<?xml version="1.0" encoding="utf-8" ?>
<svg baseProfile="full" height="10000px" version="1.1" width="10000px" xmlns="http://www.w3.org/2000/svg" xmlns:ev="http://www.w3.org/2001/xml-events" xmlns:xlink="http://www.w3.org/1999/xlink"><defs><clipPath id="border_clip"><rect height="10000" width="10000" x="0" y="0" /></clipPath></defs><polyline clip-path="url(#border_clip)" fill="none" points="5000.5,5000.5 5010.5,5000.5 5020.5,5000.5 5030.5,5000.5 5038.590169943749,5006.3778525229245 5041.680339887499,5015.888417685876 5044.770509831248,5025.3989828488275 5047.860679774998,5034.909548011779 5044.770509831248,5044.42011317473 5036.680339887499,5050.297965697656 5028.590169943749,5056.17581822058 5020.5,5062.053670743505 5010.5,5062.053670743505 5002.409830056251,5056.17581822058 4994.319660112501,5050.297965697656 4986.229490168752,5044.42011317473 4983.139320225002,5034.909548011779 4986.229490168752,5025.3989828488275 4989.319660112501,5015.888417685876 4992.409830056251,5006.3778525229245 5000.5,5000.5 5010.5,5000.5 5020.5,5000.5 5030.5,5000.5 5038.59016994375,5006.3778525229245 5041.680339887499,5015.888417685876 5044.770509831248,5025.3989828488275 5047.860679774998,5034.909548011779 5044.770509831248,5044.420113174731 5036.680339887499,5050.297965697656 5028.590169943749,5056.17581822058 5020.5,5062.053670743505 5010.5,5062.053670743505 5002.40983005625,5056.17581822058 4994.319660112501,5050.297965697656 4986.229490168752,5044.42011317473 4983.139320225002,5034.909548011779 4986.229490168752,5025.3989828488275 4989.319660112501,5015.888417685876 4992.409830056251,5006.3778525229245 5000.5,5000.5 5010.5,5000.5 5020.5,5000.5" stroke="black" stroke-linecap="round" stroke-width="1" /><polyline clip-path="url(#border_clip)" fill="none" points="5020.5,5000.5 5030.5,5000.5 5038.59016994375,5006.3778525229245 5041.680339887499,5015.888417685876 5044.770509831248,5025.398982848828 5047.860679774998,5034.909548011779 5044.770509831248,5044.420113174731 5036.680339887499,5050.297965697656 5028.590169943749,5056.17581822058 5020.5,5062.053670743505 5010.5,5062.053670743505 5002.40983005625,5056.17581822058 4994.319660112501,5050.297965697656 4986.229490168752,5044.42011317473 4983.139320225002,5034.909548011779 4986.229490168752,5025.3989828488275 4989.319660112501,5015.888417685876 4992.409830056251,5006.3778525229245 5000.5,5000.5 5010.5,5000.5 5020.5,5000.5 5030.5,5000.5 5038.59016994375,5006.3778525229245 5041.680339887499,5015.888417685876 5044.770509831248,5025.398982848828 5047.860679774998,5034.909548011779 5044.770509831248,5044.420113174731 5036.680339887499,5050.297965697656 5028.590169943749,5056.17581822058 5020.5,5062.053670743505 5010.5,5062.053670743505 5002.40983005625,5056.17581822058 4994.319660112501,5050.297965697656 4986.229490168751,5044.42011317473 4983.139320225002,5034.909548011779 4986.229490168752,5025.3989828488275 4989.319660112501,5015.888417685876 4992.409830056251,5006.3778525229245 5000.5,5000.5 5010.5,5000.5 5020.5,5000.5 5030.5,5000.5 5038.59016994375,5006.3778525229245" stroke="black" stroke-linecap="round" stroke-width="1" /><polyline clip-path="url(#border_clip)" fill="none" points="5038.59016994375,5006.3778525229245 5041.680339887499,5015.888417685876 5044.770509831249,5025.398982848828 5047.860679774998,5034.909548011779 5044.770509831248,5044.420113174731 5036.680339887499,5050.297965697656 5028.590169943749,5056.17581822058 5020.5,5062.053670743505 5010.5,5062.053670743505 5002.40983005625,5056.17581822058 4994.319660112501,5050.297965697656 4986.229490168751,5044.42011317473 4983.139320225002,5034.909548011779 4986.229490168752,5025.3989828488275 4989.319660112501,5015.8884176858755 4992.409830056251,5006.3778525229245 5000.5,5000.5 5010.5,5000.5 5020.5,5000.5 5030.5,5000.5 5038.59016994375,5006.377852522925 5041.680339887499,5015.888417685876 5044.770509831249,5025.398982848828 5047.860679774998,5034.909548011779 5044.770509831248,5044.420113174731 5036.680339887499,5050.297965697656 5028.590169943749,5056.17581822058 5020.5,5062.053670743505 5010.5,5062.053670743505 5002.40983005625,5056.17581822058 4994.319660112501,5050.297965697656 4986.229490168751,5044.42011317473 4983.139320225002,5034.9095480117785 4986.229490168752,5025.3989828488275 4989.319660112501,5015.8884176858755 4992.409830056251,5006.3778525229245 5000.5,5000.5 5010.5,5000.5 5020.5,5000.5 5030.500000000001,5000.5 5038.59016994375,5006.377852522925 5041.680339887499,5015.888417685876 5044.770509831249,5025.398982848828" stroke="black" stroke-linecap="round" stroke-width="1" /><polyline clip-path="url(#border_clip)" fill="none" points="5044.770509831249,5025.398982848828 5047.860679774998,5034.909548011779 5044.770509831248,5044.420113174731 5036.680339887499,5050.297965697656 5028.590169943749,5056.17581822058 5020.499999999999,5062.053670743505 5010.499999999999,5062.053670743505 5002.40983005625,5056.17581822058 4994.319660112501,5050.297965697655 4986.229490168751,5044.42011317473 4983.139320225002,5034.9095480117785 4986.229490168752,5025.3989828488275 4989.319660112501,5015.8884176858755 4992.409830056251,5006.3778525229245 5000.5,5000.5 5010.500000000001,5000.5 5020.500000000001,5000.5 5030.500000000001,5000.5 5038.59016994375,5006.377852522925 5041.680339887499,5015.888417685876 5044.770509831249,5025.398982848828 5047.860679774998,5034.90954801178 5044.770509831248,5044.420113174731 5036.680339887499,5050.297965697656 5028.590169943749,5056.17581822058 5020.499999999999,5062.053670743505 5010.499999999999,5062.053670743505 5002.40983005625,5056.17581822058 4994.319660112501,5050.297965697655 4986.229490168751,5044.42011317473 4983.139320225002,5034.9095480117785 4986.229490168752,5025.3989828488275 4989.319660112501,5015.8884176858755 4992.409830056251,5006.3778525229245 5000.500000000001,5000.5 5010.500000000001,5000.5 5020.500000000001,5000.5 5030.500000000001,5000.5 5038.59016994375,5006.377852522925 5041.680339887499,5015.888417685876 5044.770509831249,5025.398982848828 5047.860679774998,5034.90954801178 5044.770509831248,5044.420113174731" stroke="black" stroke-linecap="round" stroke-width="1" /><polyline clip-path="url(#border_clip)" fill="none" points="5044.770509831248,5044.420113174731 5036.680339887499,5050.297965697656 5028.590169943749,5056.17581822058 5020.499999999999,5062.053670743506 5010.499999999999,5062.053670743505 5002.40983005625,5056.17581822058 4994.3196601125,5050.297965697655 4986.229490168751,5044.42011317473 4983.139320225002,5034.9095480117785 4986.229490168752,5025.3989828488275 4989.319660112501,5015.8884176858755 4992.409830056251,5006.3778525229245 5000.500000000001,5000.499999999999 5010.500000000001,5000.5 5020.500000000001,5000.5 5030.500000000001,5000.5 5038.59016994375,5006.377852522925 5041.680339887499,5015.888417685876 5044.770509831249,5025.398982848828 5047.860679774998,5034.90954801178 5044.770509831248,5044.420113174731 5036.680339887499,5050.297965697656 5028.590169943749,5056.175818220581 5020.499999999999,5062.053670743506 5010.499999999999,5062.053670743505 5002.40983005625,5056.17581822058 4994.3196601125,5050.297965697655 4986.229490168751,5044.42011317473 4983.139320225002,5034.9095480117785 4986.229490168752,5025.3989828488275 4989.319660112501,5015.8884176858755 4992.409830056251,5006.377852522924 5000.500000000001,5000.499999999999 5010.500000000001,5000.5 5020.500000000001,5000.5 5030.500000000001,5000.5 5038.59016994375,5006.377852522925 5041.680339887499,5015.888417685876 5044.770509831249,5025.398982848828 5047.860679774998,5034.90954801178 5044.770509831248,5044.420113174731 5036.680339887499,5050.297965697657 5028.590169943749,5056.175818220581" stroke="black" stroke-linecap="round" stroke-width="1" /><polyline clip-path="url(#border_clip)" fill="none" points="5028.590169943749,5056.175818220581 5020.499999999999,5062.053670743506 5010.499999999999,5062.053670743505 5002.40983005625,5056.17581822058 4994.3196601125,5050.297965697655 4986.229490168751,5044.42011317473 4983.139320225002,5034.9095480117785 4986.229490168752,5025.3989828488275 4989.319660112501,5015.8884176858755 4992.409830056251,5006.377852522924 5000.500000000001,5000.499999999999 5010.500000000001,5000.5 5020.500000000001,5000.5 5030.500000000001,5000.5 5038.59016994375,5006.377852522925 5041.6803398875,5015.888417685876 5044.770509831249,5025.398982848828 5047.860679774998,5034.90954801178 5044.770509831248,5044.420113174732 5036.680339887498,5050.297965697657 5028.590169943749,5056.175818220581 5020.499999999999,5062.053670743506 5010.499999999999,5062.053670743505 5002.40983005625,5056.17581822058 4994.3196601125,5050.297965697655 4986.229490168751,5044.42011317473 4983.139320225002,5034.9095480117785 4986.229490168752,5025.398982848827 4989.319660112501,5015.8884176858755 4992.409830056251,5006.377852522924 5000.500000000001,5000.499999999999 5010.500000000001,5000.5 5020.500000000001,5000.5 5030.500000000001,5000.5 5038.59016994375,5006.377852522925 5041.6803398875,5015.888417685877 5044.770509831249,5025.398982848828 5047.860679774998,5034.90954801178 5044.770509831248,5044.420113174732 5036.680339887498,5050.297965697657 5028.590169943749,5056.175818220581 5020.499999999999,5062.053670743506 5010.499999999999,5062.053670743505" stroke="black" stroke-linecap="round" stroke-width="1" /><polyline clip-path="url(#border_clip)" fill="none" points="5010.499999999999,5062.053670743505 5002.40983005625,5056.17581822058 4994.3196601125,5050.297965697655 4986.229490168751,5044.42011317473 4983.139320225002,5034.9095480117785 4986.229490168752,5025.398982848827 4989.319660112501,5015.8884176858755 4992.409830056251,5006.377852522924 5000.500000000001,5000.499999999999 5010.500000000001,5000.5 5020.500000000001,5000.5 5030.500000000001,5000.5 5038.59016994375,5006.377852522925 5041.6803398875,5015.888417685877 5044.770509831249,5025.398982848828 5047.860679774998,5034.90954801178 5044.770509831248,5044.420113174732 5036.680339887498,5050.297965697657 5028.590169943749,5056.175818220581 5020.499999999999,5062.053670743506 5010.499999999999,5062.053670743505 5002.409830056249,5056.17581822058 4994.3196601125,5050.297965697655 4986.229490168751,5044.42011317473 4983.139320225002,5034.9095480117785 4986.229490168751,5025.398982848827 4989.319660112501,5015.8884176858755 4992.409830056251,5006.377852522924 5000.500000000001,5000.499999999999 5010.500000000001,5000.5 5020.500000000001,5000.5 5030.500000000001,5000.5 5038.590169943751,5006.377852522925 5041.6803398875,5015.888417685877 5044.770509831249,5025.398982848828 5047.860679774998,5034.90954801178 5044.770509831248,5044.420113174732 5036.680339887498,5050.297965697657 5028.590169943749,5056.175818220581 5020.499999999999,5062.053670743506 5010.499999999999,5062.053670743505 5002.409830056249,5056.17581822058 4994.3196601125,5050.297965697655" stroke="black" stroke-linecap="round" stroke-width="1" /><polyline clip-path="url(#border_clip)" fill="none" points="4994.3196601125,5050.297965697655 4986.229490168751,5044.42011317473 4983.139320225002,5034.9095480117785 4986.229490168751,5025.398982848827 4989.319660112501,5015.8884176858755 4992.409830056251,5006.377852522924 5000.500000000001,5000.499999999999 5010.500000000001,5000.499999999999 5020.500000000001,5000.5 5030.500000000001,5000.5 5038.590169943751,5006.377852522925 5041.6803398875,5015.888417685877 5044.770509831249,5025.398982848828 5047.860679774998,5034.90954801178 5044.770509831248,5044.420113174732 5036.680339887498,5050.297965697657 5028.590169943749,5056.175818220581 5020.499999999999,5062.053670743506 5010.499999999999,5062.053670743505 5002.409830056249,5056.17581822058 4994.3196601125,5050.297965697655 4986.229490168751,5044.4201131747295 4983.139320225002,5034.9095480117785 4986.229490168751,5025.398982848827 4989.319660112501,5015.8884176858755 4992.409830056251,5006.377852522924 5000.500000000001,5000.499999999999 5010.500000000001,5000.499999999999 5020.500000000001,5000.5 5030.500000000001,5000.5 5038.590169943751,5006.377852522925 5041.6803398875,5015.888417685877 5044.770509831249,5025.398982848829 5047.860679774998,5034.90954801178 5044.770509831248,5044.420113174732 5036.680339887498,5050.297965697657 5028.590169943748,5056.175818220581 5020.499999999999,5062.053670743506 5010.499999999999,5062.053670743505 5002.409830056249,5056.17581822058 4994.3196601125,5050.297965697655 4986.229490168751,5044.4201131747295 4983.139320225002,5034.9095480117785" stroke="black" stroke-linecap="round" stroke-width="1" /><polyline clip-path="url(#border_clip)" fill="none" points="4983.139320225002,5034.9095480117785 4986.229490168751,5025.398982848827 4989.319660112501,5015.888417685875 4992.409830056251,5006.377852522924 5000.500000000001,5000.499999999999 5010.500000000001,5000.499999999999 5020.500000000001,5000.5 5030.500000000001,5000.5 5038.590169943751,5006.377852522925 5041.6803398875,5015.888417685877 5044.770509831249,5025.398982848829 5047.860679774998,5034.90954801178 5044.770509831248,5044.420113174732 5036.680339887498,5050.297965697657 5028.590169943748,5056.175818220581 5020.499999999999,5062.053670743506 5010.499999999998,5062.053670743505 5002.409830056249,5056.17581822058 4994.3196601125,5050.297965697655 4986.229490168751,5044.4201131747295 4983.139320225001,5034.9095480117785 4986.229490168751,5025.398982848827 4989.319660112501,5015.888417685875 4992.409830056251,5006.377852522924 5000.500000000001,5000.499999999999 5010.500000000001,5000.499999999999 5020.500000000001,5000.5 5030.500000000002,5000.5 5038.590169943751,5006.377852522925 5041.6803398875,5015.888417685877 5044.770509831249,5025.398982848829 5047.860679774998,5034.909548011781 5044.770509831248,5044.420113174732 5036.680339887498,5050.297965697657 5028.590169943748,5056.175818220581 5020.499999999998,5062.053670743506 5010.499999999998,5062.053670743505 5002.409830056249,5056.17581822058 4994.3196601125,5050.297965697655 4986.229490168751,5044.4201131747295 4983.139320225001,5034.909548011778 4986.229490168751,5025.398982848827 4989.319660112501,5015.888417685875" stroke="black" stroke-linecap="round" stroke-width="1" /><polyline clip-path="url(#border_clip)" fill="none" points="4989.319660112501,5015.888417685875 4992.409830056251,5006.377852522924 5000.500000000001,5000.499999999999 5010.500000000001,5000.499999999999 5020.500000000002,5000.5 5030.500000000002,5000.5 5038.590169943751,5006.377852522925 5041.6803398875,5015.888417685877 5044.770509831249,5025.398982848829 5047.860679774998,5034.909548011781 5044.770509831248,5044.420113174732 5036.680339887498,5050.297965697657 5028.590169943748,5056.175818220581 5020.499999999998,5062.053670743506 5010.499999999998,5062.053670743505 5002.409830056249,5056.17581822058 4994.3196601125,5050.297965697655 4986.22949016875,5044.4201131747295 4983.139320225001,5034.909548011778 4986.229490168751,5025.398982848827 4989.319660112501,5015.888417685875 4992.409830056251,5006.377852522924 5000.500000000001,5000.499999999999 5010.500000000001,5000.499999999999 5020.500000000002,5000.5 5030.500000000002,5000.5 5038.590169943751,5006.377852522925 5041.6803398875,5015.888417685877 5044.770509831249,5025.398982848829 5047.860679774998,5034.909548011781 5044.770509831248,5044.420113174732 5036.680339887498,5050.297965697657 5028.590169943748,5056.175818220581 5020.499999999998,5062.053670743506 5010.499999999998,5062.053670743505 5002.409830056249,5056.17581822058 4994.3196601125,5050.297965697655 4986.22949016875,5044.4201131747295 4983.139320225001,5034.909548011778 4986.229490168751,5025.398982848827 4989.319660112501,5015.888417685875 4992.409830056251,5006.377852522924 5000.500000000001,5000.499999999999" stroke="black" stroke-linecap="round" stroke-width="1" /><polyline clip-path="url(#border_clip)" fill="none" points="5000.500000000001,5000.499999999999 5010.500000000002,5000.499999999999 5020.500000000002,5000.5 5030.500000000002,5000.5 5038.590169943751,5006.377852522925 5041.6803398875,5015.888417685877 5044.770509831249,5025.398982848829 5047.860679774998,5034.909548011781 5044.770509831248,5044.420113174732 5036.680339887498,5050.297965697657 5028.590169943748,5056.175818220581 5020.499999999998,5062.053670743506 5010.499999999998,5062.053670743505 5002.409830056249,5056.17581822058 4994.3196601125,5050.297965697655 4986.22949016875,5044.4201131747295 4983.139320225001,5034.909548011778 4986.229490168751,5025.398982848827 4989.319660112501,5015.888417685875 4992.409830056251,5006.377852522924 5000.500000000001,5000.499999999999 5010.500000000002,5000.499999999999 5020.500000000002,5000.5 5030.500000000002,5000.5 5038.590169943751,5006.377852522925 5041.6803398875,5015.888417685877 5044.770509831249,5025.398982848829 5047.860679774998,5034.909548011781 5044.770509831248,5044.420113174732 5036.680339887498,5050.297965697657 5028.590169943748,5056.175818220581 5020.499999999998,5062.053670743506 5010.499999999998,5062.053670743505 5002.409830056249,5056.17581822058 4994.319660112499,5050.297965697655 4986.22949016875,5044.4201131747295 4983.139320225001,5034.909548011778 4986.229490168751,5025.398982848827 4989.319660112501,5015.888417685875 4992.409830056252,5006.377852522923 5000.500000000001,5000.499999999999 5010.500000000002,5000.499999999999 5020.500000000002,5000.5" stroke="black" stroke-linecap="round" stroke-width="1" /><polyline clip-path="url(#border_clip)" fill="none" points="5020.500000000002,5000.5 5030.500000000002,5000.5 5038.590169943751,5006.377852522925 5041.6803398875,5015.888417685877 5044.770509831249,5025.398982848829 5047.860679774998,5034.909548011781 5044.770509831248,5044.420113174733 5036.680339887498,5050.297965697657 5028.590169943748,5056.175818220581 5020.499999999998,5062.053670743506 5010.499999999998,5062.053670743506 5002.409830056249,5056.17581822058 4994.319660112499,5050.297965697655 4986.22949016875,5044.4201131747295 4983.139320225001,5034.909548011778 4986.229490168751,5025.398982848827 4989.319660112501,5015.888417685875 4992.409830056252,5006.377852522923 5000.500000000002,5000.499999999999 5010.500000000002,5000.499999999999 5020.500000000002,5000.5 5030.500000000002,5000.5 5038.590169943751,5006.377852522925 5041.6803398875,5015.888417685877 5044.770509831249,5025.398982848829 5047.860679774998,5034.909548011781 5044.770509831248,5044.420113174733 5036.680339887498,5050.297965697657 5028.590169943748,5056.175818220581 5020.499999999998,5062.053670743506 5010.499999999998,5062.053670743506 5002.409830056249,5056.17581822058 4994.319660112499,5050.297965697655 4986.22949016875,5044.4201131747295 4983.139320225001,5034.909548011778 4986.229490168751,5025.398982848826 4989.319660112501,5015.888417685875 4992.409830056252,5006.377852522923 5000.500000000002,5000.499999999999 5010.500000000002,5000.499999999999 5020.500000000002,5000.5 5030.500000000002,5000.5 5038.590169943751,5006.377852522925" stroke="black" stroke-linecap="round" stroke-width="1" /><polyline clip-path="url(#border_clip)" fill="none" points="5038.590169943751,5006.377852522925 5041.6803398875,5015.888417685877 5044.770509831249,5025.398982848829 5047.860679774998,5034.909548011781 5044.770509831248,5044.420113174733 5036.680339887498,5050.297965697658 5028.590169943748,5056.175818220581 5020.499999999998,5062.053670743506 5010.499999999998,5062.053670743506 5002.409830056249,5056.17581822058 4994.319660112499,5050.297965697655 4986.22949016875,5044.4201131747295 4983.139320225001,5034.909548011778 4986.229490168751,5025.398982848826 4989.319660112502,5015.888417685875 4992.409830056252,5006.377852522923 5000.500000000002,5000.499999999998 5010.500000000002,5000.499999999999 5020.500000000002,5000.5 5030.500000000002,5000.500000000001 5038.590169943751,5006.377852522925 5041.6803398875,5015.888417685877 5044.770509831249,5025.398982848829 5047.860679774998,5034.909548011781 5044.770509831248,5044.420113174733 5036.680339887498,5050.297965697658 5028.590169943748,5056.175818220581 5020.499999999998,5062.053670743506 5010.499999999998,5062.053670743506 5002.409830056248,5056.17581822058 4994.319660112499,5050.297965697655 4986.22949016875,5044.4201131747295 4983.139320225001,5034.909548011778 4986.229490168751,5025.398982848826 4989.319660112502,5015.888417685875 4992.409830056252,5006.377852522923 5000.500000000002,5000.499999999998 5010.500000000002,5000.499999999999 5020.500000000002,5000.5 5030.500000000002,5000.500000000001 5038.590169943752,5006.377852522925 5041.6803398875,5015.888417685877 5044.770509831249,5025.398982848829" stroke="black" stroke-linecap="round" stroke-width="1" /><polyline clip-path="url(#border_clip)" fill="none" points="5044.770509831249,5025.398982848829 5047.860679774998,5034.909548011781 5044.770509831248,5044.420113174733 5036.680339887498,5050.297965697658 5028.590169943748,5056.175818220581 5020.499999999998,5062.053670743506 5010.499999999998,5062.053670743506 5002.409830056248,5056.17581822058 4994.319660112499,5050.297965697655 4986.22949016875,5044.4201131747295 4983.139320225001,5034.909548011778 4986.229490168751,5025.398982848826 4989.319660112502,5015.888417685875 4992.409830056252,5006.377852522923 5000.500000000002,5000.499999999998 5010.500000000002,5000.499999999999 5020.500000000002,5000.5 5030.500000000002,5000.500000000001 5038.590169943752,5006.377852522925 5041.6803398875,5015.888417685877 5044.770509831249,5025.398982848829 5047.860679774998,5034.909548011781 5044.770509831248,5044.420113174733 5036.680339887498,5050.297965697658 5028.590169943748,5056.175818220582 5020.499999999998,5062.053670743506 5010.499999999997,5062.053670743506 5002.409830056248,5056.17581822058 4994.319660112499,5050.297965697655 4986.22949016875,5044.4201131747295 4983.139320225001,5034.909548011778 4986.229490168751,5025.398982848826 4989.319660112502,5015.888417685875 4992.409830056252,5006.377852522923 5000.500000000002,5000.499999999998 5010.500000000002,5000.499999999999 5020.500000000002,5000.5 5030.500000000003,5000.500000000001 5038.590169943752,5006.377852522926 5041.680339887501,5015.888417685878 5044.770509831249,5025.39898284883 5047.860679774998,5034.909548011782 5044.770509831248,5044.420113174733" stroke="black" stroke-linecap="round" stroke-width="1" /><polyline clip-path="url(#border_clip)" fill="none" points="5044.770509831248,5044.420113174733 5036.680339887498,5050.297965697658 5028.590169943748,5056.175818220582 5020.499999999998,5062.053670743506 5010.499999999997,5062.053670743506 5002.409830056248,5056.17581822058 4994.319660112499,5050.297965697655 4986.22949016875,5044.4201131747295 4983.139320225001,5034.909548011778 4986.229490168751,5025.398982848826 4989.319660112502,5015.888417685874 4992.409830056252,5006.377852522923 5000.500000000002,5000.499999999998 5010.500000000002,5000.499999999999 5020.500000000002,5000.5 5030.500000000003,5000.500000000001 5038.590169943752,5006.377852522926 5041.680339887501,5015.888417685878 5044.770509831249,5025.39898284883 5047.860679774998,5034.909548011782 5044.770509831248,5044.420113174733 5036.680339887498,5050.297965697658 5028.590169943748,5056.175818220582 5020.499999999998,5062.053670743506 5010.499999999997,5062.053670743506 5002.409830056248,5056.17581822058 4994.319660112499,5050.297965697655 4986.22949016875,5044.420113174729 4983.139320225001,5034.909548011777 4986.229490168751,5025.398982848826 4989.319660112502,5015.888417685874 4992.409830056252,5006.377852522923 5000.500000000002,5000.499999999998 5010.500000000002,5000.499999999999 5020.500000000002,5000.5 5030.500000000003,5000.500000000001 5038.590169943752,5006.377852522926 5041.680339887501,5015.888417685878 5044.770509831249,5025.39898284883 5047.860679774998,5034.909548011782 5044.770509831248,5044.420113174733 5036.680339887498,5050.297965697658 5028.590169943748,5056.175818220582" stroke="black" stroke-linecap="round" stroke-width="1" /><polyline clip-path="url(#border_clip)" fill="none" points="5028.590169943748,5056.175818220582 5020.499999999997,5062.053670743506 5010.499999999997,5062.053670743506 5002.409830056248,5056.17581822058 4994.319660112499,5050.297965697654 4986.22949016875,5044.420113174729 4983.139320225001,5034.909548011777 4986.229490168751,5025.398982848826 4989.319660112502,5015.888417685874 4992.409830056252,5006.377852522923 5000.500000000002,5000.499999999998 5010.500000000002,5000.499999999999 5020.500000000003,5000.5 5030.500000000003,5000.500000000001 5038.590169943752,5006.377852522926 5041.680339887501,5015.888417685878 5044.770509831249,5025.39898284883 5047.860679774998,5034.909548011782 5044.770509831248,5044.420113174733 5036.680339887498,5050.297965697658 5028.590169943748,5056.175818220582 5020.499999999997,5062.053670743506 5010.499999999997,5062.053670743506 5002.409830056248,5056.17581822058 4994.319660112499,5050.297965697654 4986.22949016875,5044.420113174729 4983.139320225001,5034.909548011777 4986.229490168751,5025.398982848826 4989.319660112502,5015.888417685874 4992.409830056252,5006.377852522923 5000.500000000002,5000.499999999998 5010.500000000002,5000.499999999999 5020.500000000003,5000.5 5030.500000000003,5000.500000000001 5038.590169943752,5006.377852522926 5041.680339887501,5015.888417685878 5044.770509831249,5025.39898284883 5047.860679774998,5034.909548011782 5044.770509831248,5044.420113174733 5036.680339887498,5050.297965697658 5028.590169943747,5056.175818220582 5020.499999999997,5062.053670743506 5010.499999999997,5062.053670743506" stroke="black" stroke-linecap="round" stroke-width="1" /><polyline clip-path="url(#border_clip)" fill="none" points="5010.499999999997,5062.053670743506 5002.409830056248,5056.1758182205795 4994.319660112499,5050.297965697654 4986.22949016875,5044.420113174729 4983.139320225001,5034.909548011777 4986.229490168751,5025.398982848826 4989.319660112502,5015.888417685874 4992.409830056252,5006.377852522923 5000.500000000002,5000.499999999998 5010.500000000002,5000.499999999999 5020.500000000003,5000.5 5030.500000000003,5000.500000000001 5038.590169943752,5006.377852522926 5041.680339887501,5015.888417685878 5044.770509831249,5025.39898284883 5047.860679774998,5034.909548011782 5044.770509831248,5044.420113174734 5036.680339887498,5050.297965697658 5028.590169943747,5056.175818220582 5020.499999999997,5062.053670743506 5010.499999999997,5062.053670743506 5002.409830056248,5056.1758182205795 4994.319660112499,5050.297965697654 4986.22949016875,5044.420113174729 4983.139320225001,5034.909548011777 4986.229490168751,5025.398982848826 4989.319660112502,5015.888417685874 4992.409830056252,5006.377852522923 5000.500000000002,5000.499999999998 5010.500000000003,5000.499999999999 5020.500000000003,5000.5 5030.500000000003,5000.500000000001 5038.590169943752,5006.377852522926 5041.680339887501,5015.888417685878 5044.77050983125,5025.39898284883 5047.860679774998,5034.909548011782 5044.770509831248,5044.420113174734 5036.680339887498,5050.297965697658 5028.590169943747,5056.175818220582 5020.499999999997,5062.053670743507 5010.499999999997,5062.053670743506 5002.409830056248,5056.1758182205795 4994.319660112499,5050.297965697654" stroke="black" stroke-linecap="round" stroke-width="1" /><polyline clip-path="url(#border_clip)" fill="none" points="4994.319660112499,5050.297965697654 4986.22949016875,5044.420113174729 4983.139320225001,5034.909548011777 4986.229490168751,5025.398982848826 4989.319660112502,5015.888417685874 4992.409830056252,5006.377852522923 5000.500000000002,5000.499999999998 5010.500000000003,5000.499999999999 5020.500000000003,5000.5 5030.500000000003,5000.500000000001 5038.590169943752,5006.377852522926 5041.680339887501,5015.888417685878 5044.77050983125,5025.39898284883 5047.860679774998,5034.909548011782 5044.770509831248,5044.420113174734 5036.680339887498,5050.297965697658 5028.590169943747,5056.175818220582 5020.499999999997,5062.053670743507 5010.499999999997,5062.053670743506 5002.409830056248,5056.1758182205795 4994.319660112499,5050.297965697654 4986.229490168749,5044.420113174729 4983.139320225001,5034.909548011777 4986.229490168751,5025.398982848825 4989.319660112502,5015.888417685874 4992.409830056252,5006.377852522922 5000.500000000002,5000.499999999998 5010.500000000003,5000.499999999999 5020.500000000003,5000.5 5030.500000000003,5000.500000000001 5038.590169943752,5006.377852522926 5041.680339887501,5015.888417685878 5044.77050983125,5025.39898284883 5047.860679774998,5034.909548011782 5044.770509831248,5044.420113174734 5036.680339887498,5050.297965697658 5028.590169943747,5056.175818220582 5020.499999999997,5062.053670743507 5010.499999999997,5062.053670743506 5002.409830056248,5056.1758182205795 4994.319660112499,5050.297965697654 4986.229490168749,5044.420113174729 4983.139320225001,5034.909548011777" stroke="black" stroke-linecap="round" stroke-width="1" /><polyline clip-path="url(#border_clip)" fill="none" points="4983.139320225001,5034.909548011777 4986.229490168751,5025.398982848825 4989.319660112502,5015.888417685874 4992.409830056252,5006.377852522922 5000.500000000003,5000.499999999998 5010.500000000003,5000.499999999999 5020.500000000003,5000.5 5030.500000000003,5000.500000000001 5038.590169943752,5006.377852522926 5041.680339887501,5015.888417685878 5044.77050983125,5025.39898284883 5047.860679774998,5034.909548011782 5044.770509831248,5044.420113174734 5036.680339887497,5050.297965697658 5028.590169943747,5056.175818220582 5020.499999999997,5062.053670743507 5010.499999999997,5062.053670743506 5002.409830056248,5056.1758182205795 4994.319660112498,5050.297965697654 4986.229490168749,5044.420113174729 4983.139320225001,5034.909548011777 4986.229490168751,5025.398982848825 4989.319660112502,5015.888417685874 4992.409830056252,5006.377852522922 5000.500000000003,5000.499999999998 5010.500000000003,5000.499999999999 5020.500000000003,5000.5 5030.500000000003,5000.500000000001 5038.590169943753,5006.377852522926 5041.680339887501,5015.888417685878 5044.77050983125,5025.39898284883 5047.860679774998,5034.909548011782 5044.770509831248,5044.420113174734 5036.680339887497,5050.297965697658 5028.590169943747,5056.175818220582 5020.499999999997,5062.053670743507 5010.499999999997,5062.053670743506 5002.409830056247,5056.1758182205795 4994.319660112498,5050.297965697654 4986.229490168749,5044.420113174729 4983.139320225001,5034.909548011777 4986.229490168751,5025.398982848825 4989.319660112502,5015.888417685874" stroke="black" stroke-linecap="round" stroke-width="1" /><polyline clip-path="url(#border_clip)" fill="none" points="4989.319660112502,5015.888417685874 4992.409830056252,5006.377852522922 5000.500000000003,5000.499999999998 5010.500000000003,5000.499999999999 5020.500000000003,5000.5 5030.500000000004,5000.500000000001 5038.590169943753,5006.377852522926 5041.680339887501,5015.888417685878 5044.77050983125,5025.39898284883 5047.860679774998,5034.909548011782 5044.770509831248,5044.420113174734 5036.680339887497,5050.297965697659 5028.590169943747,5056.175818220582 5020.499999999997,5062.053670743507 5010.499999999996,5062.053670743506 5002.409830056247,5056.1758182205795 4994.319660112498,5050.297965697654 4986.229490168749,5044.420113174729 4983.139320225001,5034.909548011777 4986.229490168751,5025.398982848825 4989.319660112502,5015.888417685874 4992.409830056252,5006.377852522922 5000.500000000003,5000.499999999998 5010.500000000003,5000.499999999999 5020.500000000003,5000.5 5030.500000000004,5000.500000000001 5038.590169943753,5006.377852522926 5041.680339887501,5015.888417685878 5044.77050983125,5025.39898284883 5047.860679774998,5034.909548011783 5044.770509831248,5044.420113174734 5036.680339887497,5050.297965697659 5028.590169943747,5056.175818220582 5020.499999999997,5062.053670743507 5010.499999999996,5062.053670743506 5002.409830056247,5056.1758182205795 4994.319660112498,5050.297965697654 4986.229490168749,5044.420113174729 4983.139320225001,5034.909548011777 4986.229490168751,5025.398982848825 4989.319660112502,5015.888417685874 4992.409830056252,5006.377852522922 5000.500000000003,5000.499999999997" stroke="black" stroke-linecap="round" stroke-width="1" /><polyline clip-path="url(#border_clip)" fill="none" points="5000.500000000003,5000.499999999997 5010.500000000003,5000.499999999999 5020.500000000003,5000.5 5030.500000000004,5000.500000000001 5038.590169943753,5006.377852522926 5041.680339887501,5015.888417685878 5044.77050983125,5025.39898284883 5047.860679774998,5034.909548011783 5044.770509831248,5044.420113174734 5036.680339887497,5050.297965697659 5028.590169943747,5056.175818220582 5020.499999999997,5062.053670743507 5010.499999999996,5062.053670743506 5002.409830056247,5056.1758182205795 4994.319660112498,5050.297965697654 4986.229490168749,5044.420113174729 4983.139320225001,5034.909548011776 4986.229490168751,5025.398982848825 4989.319660112502,5015.888417685873 4992.409830056252,5006.377852522922 5000.500000000003,5000.499999999997 5010.500000000003,5000.499999999999 5020.500000000003,5000.5 5030.500000000004,5000.500000000001 5038.590169943753,5006.377852522926 5041.680339887501,5015.888417685878 5044.77050983125,5025.398982848831 5047.860679774998,5034.909548011783 5044.770509831248,5044.420113174734 5036.680339887497,5050.297965697659 5028.590169943747,5056.175818220582 5020.499999999997,5062.053670743507 5010.499999999996,5062.053670743506 5002.409830056247,5056.1758182205795 4994.319660112498,5050.297965697654 4986.229490168749,5044.420113174729 4983.139320225001,5034.909548011776 4986.229490168751,5025.398982848825 4989.319660112502,5015.888417685873 4992.409830056253,5006.377852522922 5000.500000000003,5000.499999999997 5010.500000000003,5000.499999999999 5020.500000000004,5000.5" stroke="black" stroke-linecap="round" stroke-width="1" /><polyline clip-path="url(#border_clip)" fill="none" points="5020.500000000004,5000.5 5030.500000000004,5000.500000000001 5038.590169943753,5006.377852522926 5041.680339887501,5015.888417685878 5044.77050983125,5025.398982848831 5047.860679774998,5034.909548011783 5044.770509831248,5044.420113174734 5036.680339887497,5050.297965697659 5028.590169943747,5056.175818220582 5020.499999999996,5062.053670743507 5010.499999999996,5062.053670743506 5002.409830056247,5056.1758182205795 4994.319660112498,5050.297965697654 4986.229490168749,5044.420113174729 4983.139320225001,5034.909548011776 4986.229490168751,5025.398982848825 4989.319660112502,5015.888417685873 4992.409830056253,5006.377852522922 5000.500000000003,5000.499999999997 5010.500000000003,5000.499999999998 5020.500000000004,5000.5 5030.500000000004,5000.500000000001 5038.590169943753,5006.377852522926 5041.680339887501,5015.888417685878 5044.77050983125,5025.398982848831 5047.860679774998,5034.909548011783 5044.770509831248,5044.420113174734 5036.680339887497,5050.297965697659 5028.590169943747,5056.175818220582 5020.499999999996,5062.053670743507 5010.499999999996,5062.053670743506 5002.409830056247,5056.1758182205795 4994.319660112498,5050.297965697654 4986.229490168749,5044.420113174729 4983.139320225001,5034.909548011776 4986.229490168751,5025.398982848825 4989.319660112502,5015.888417685873 4992.409830056253,5006.377852522922 5000.500000000003,5000.499999999997 5010.500000000003,5000.499999999998 5020.500000000004,5000.5 5030.500000000004,5000.500000000001 5038.590169943753,5006.377852522926" stroke="black" stroke-linecap="round" stroke-width="1" /><polyline clip-path="url(#border_clip)" fill="none" points="5038.590169943753,5006.377852522926 5041.680339887502,5015.888417685879 5044.77050983125,5025.398982848831 5047.860679774998,5034.909548011783 5044.770509831248,5044.420113174735 5036.680339887497,5050.297965697659 5028.590169943747,5056.175818220582 5020.499999999996,5062.053670743507 5010.499999999996,5062.053670743506 5002.409830056247,5056.1758182205795 4994.319660112498,5050.297965697654 4986.229490168749,5044.420113174728 4983.139320225,5034.909548011776 4986.229490168751,5025.398982848825 4989.319660112502,5015.888417685873 4992.409830056253,5006.377852522922 5000.500000000003,5000.499999999997 5010.500000000003,5000.499999999998 5020.500000000004,5000.5 5030.500000000004,5000.500000000001 5038.590169943753,5006.377852522926 5041.680339887502,5015.888417685879 5044.77050983125,5025.398982848831 5047.860679774998,5034.909548011783 5044.770509831248,5044.420113174735 5036.680339887497,5050.297965697659 5028.590169943747,5056.175818220583 5020.499999999996,5062.053670743507 5010.499999999996,5062.053670743506 5002.409830056247,5056.1758182205795 4994.319660112498,5050.297965697654 4986.229490168749,5044.420113174728 4983.139320225,5034.909548011776 4986.229490168751,5025.398982848825 4989.319660112502,5015.888417685873 4992.409830056253,5006.377852522922 5000.500000000003,5000.499999999997 5010.500000000004,5000.499999999998 5020.500000000004,5000.5 5030.500000000004,5000.500000000001 5038.590169943753,5006.377852522926 5041.680339887502,5015.888417685879 5044.77050983125,5025.398982848831" stroke="black" stroke-linecap="round" stroke-width="1" /><polyline clip-path="url(#border_clip)" fill="none" points="5044.77050983125,5025.398982848831 5047.860679774998,5034.909548011783 5044.770509831248,5044.420113174735 5036.680339887497,5050.297965697659 5028.590169943747,5056.175818220583 5020.499999999996,5062.053670743507 5010.499999999996,5062.053670743506 5002.409830056247,5056.1758182205795 4994.319660112498,5050.297965697654 4986.229490168749,5044.420113174728 4983.139320225,5034.909548011776 4986.229490168751,5025.398982848825 4989.319660112502,5015.888417685873 4992.409830056253,5006.377852522922 5000.500000000003,5000.499999999997 5010.500000000004,5000.499999999998 5020.500000000004,5000.5 5030.500000000004,5000.500000000001 5038.590169943753,5006.377852522926 5041.680339887502,5015.888417685879 5044.77050983125,5025.398982848831 5047.860679774998,5034.909548011783 5044.770509831248,5044.420113174735 5036.680339887497,5050.297965697659 5028.590169943747,5056.175818220583 5020.499999999996,5062.053670743507 5010.499999999996,5062.053670743506 5002.409830056247,5056.1758182205795 4994.319660112498,5050.297965697654 4986.229490168749,5044.420113174728 4983.139320225,5034.909548011776 4986.229490168751,5025.398982848824 4989.319660112502,5015.888417685873 4992.409830056253,5006.377852522921 5000.500000000003,5000.499999999997 5010.500000000004,5000.499999999998 5020.500000000004,5000.5 5030.500000000004,5000.500000000001 5038.590169943753,5006.377852522926 5041.680339887502,5015.888417685879 5044.77050983125,5025.398982848831 5047.860679774998,5034.909548011783 5044.770509831248,5044.420113174735" stroke="black" stroke-linecap="round" stroke-width="1" /><polyline clip-path="url(#border_clip)" fill="none" points="5044.770509831248,5044.420113174735 5036.680339887497,5050.297965697659 5028.590169943746,5056.175818220583 5020.499999999996,5062.053670743507 5010.499999999996,5062.053670743506 5002.409830056247,5056.1758182205795 4994.319660112498,5050.297965697654 4986.229490168749,5044.420113174728 4983.139320225,5034.909548011776 4986.229490168751,5025.398982848824 4989.319660112502,5015.888417685873 4992.409830056253,5006.377852522921 5000.500000000003,5000.499999999997 5010.500000000004,5000.499999999998 5020.500000000004,5000.5 5030.500000000004,5000.500000000001 5038.590169943753,5006.377852522926 5041.680339887502,5015.888417685879 5044.77050983125,5025.398982848831 5047.860679774998,5034.909548011783 5044.770509831247,5044.420113174735 5036.680339887497,5050.297965697659 5028.590169943746,5056.175818220583 5020.499999999996,5062.053670743507 5010.499999999995,5062.053670743506 5002.409830056247,5056.1758182205795 4994.319660112498,5050.297965697654 4986.229490168749,5044.420113174728 4983.139320225,5034.909548011776 4986.229490168751,5025.398982848824 4989.319660112502,5015.888417685873 4992.409830056253,5006.377852522921 5000.500000000003,5000.499999999997 5010.500000000004,5000.499999999998 5020.500000000004,5000.5 5030.500000000005,5000.500000000001 5038.590169943754,5006.377852522927 5041.680339887502,5015.888417685879 5044.77050983125,5025.398982848831 5047.860679774998,5034.909548011784 5044.770509831247,5044.420113174735 5036.680339887497,5050.297965697659 5028.590169943746,5056.175818220583" stroke="black" stroke-linecap="round" stroke-width="1" /><polyline clip-path="url(#border_clip)" fill="none" points="5028.590169943746,5056.175818220583 5020.499999999996,5062.053670743507 5010.499999999995,5062.053670743506 5002.409830056246,5056.1758182205795 4994.319660112497,5050.297965697654 4986.229490168749,5044.420113174728 4983.139320225,5034.909548011776 4986.229490168751,5025.398982848824 4989.319660112502,5015.888417685873 4992.409830056253,5006.377852522921 5000.500000000003,5000.499999999997 5010.500000000004,5000.499999999998 5020.500000000004,5000.5 5030.500000000005,5000.500000000001 5038.590169943754,5006.377852522927 5041.680339887502,5015.888417685879 5044.77050983125,5025.398982848831 5047.860679774998,5034.909548011784 5044.770509831247,5044.420113174735 5036.680339887497,5050.297965697659 5028.590169943746,5056.175818220583 5020.499999999996,5062.053670743507 5010.499999999995,5062.053670743506 5002.409830056246,5056.1758182205795 4994.319660112497,5050.297965697654 4986.229490168748,5044.420113174728 4983.139320225,5034.909548011776 4986.229490168751,5025.398982848824 4989.319660112502,5015.888417685873 4992.409830056253,5006.377852522921 5000.500000000004,5000.499999999997 5010.500000000004,5000.499999999998 5020.500000000004,5000.5 5030.500000000005,5000.500000000001 5038.590169943754,5006.377852522927 5041.680339887502,5015.888417685879 5044.77050983125,5025.398982848831 5047.860679774998,5034.909548011784 5044.770509831247,5044.420113174735 5036.680339887497,5050.2979656976595 5028.590169943746,5056.175818220583 5020.499999999996,5062.053670743507 5010.499999999995,5062.053670743506" stroke="black" stroke-linecap="round" stroke-width="1" /><polyline clip-path="url(#border_clip)" fill="none" points="5010.499999999995,5062.053670743506 5002.409830056246,5056.1758182205795 4994.319660112497,5050.297965697654 4986.229490168748,5044.420113174728 4983.139320225,5034.909548011776 4986.229490168751,5025.398982848824 4989.319660112502,5015.888417685873 4992.409830056253,5006.377852522921 5000.500000000004,5000.499999999997 5010.500000000004,5000.499999999998 5020.500000000004,5000.5 5030.500000000005,5000.500000000001 5038.590169943754,5006.377852522927 5041.680339887502,5015.888417685879 5044.77050983125,5025.398982848831 5047.860679774998,5034.909548011784 5044.770509831247,5044.420113174735 5036.680339887497,5050.2979656976595 5028.590169943746,5056.175818220583 5020.499999999996,5062.053670743507 5010.499999999995,5062.053670743506 5002.409830056246,5056.1758182205795 4994.319660112497,5050.297965697653 4986.229490168748,5044.420113174728 4983.139320225,5034.909548011775 4986.229490168751,5025.398982848824 4989.319660112502,5015.888417685872 4992.409830056253,5006.377852522921 5000.500000000004,5000.499999999997 5010.500000000004,5000.499999999998 5020.500000000004,5000.5 5030.500000000005,5000.500000000001 5038.590169943754,5006.377852522927 5041.680339887502,5015.888417685879 5044.77050983125,5025.398982848831 5047.860679774998,5034.909548011784 5044.770509831247,5044.420113174735 5036.680339887497,5050.2979656976595 5028.590169943746,5056.175818220583 5020.499999999995,5062.053670743507 5010.499999999995,5062.053670743506 5002.409830056246,5056.1758182205795 4994.319660112497,5050.297965697653" stroke="black" stroke-linecap="round" stroke-width="1" /><polyline clip-path="url(#border_clip)" fill="none" points="4994.319660112497,5050.297965697653 4986.229490168748,5044.420113174728 4983.139320225,5034.909548011775 4986.229490168751,5025.398982848824 4989.319660112502,5015.888417685872 4992.409830056253,5006.377852522921 5000.500000000004,5000.499999999997 5010.500000000004,5000.499999999998 5020.500000000005,5000.499999999999 5030.500000000005,5000.500000000001 5038.590169943754,5006.377852522927 5041.680339887502,5015.888417685879 5044.77050983125,5025.398982848832 5047.860679774998,5034.909548011784 5044.770509831247,5044.420113174735 5036.680339887497,5050.2979656976595 5028.590169943746,5056.175818220583 5020.499999999995,5062.053670743507 5010.499999999995,5062.053670743506 5002.409830056246,5056.1758182205795 4994.319660112497,5050.297965697653 4986.229490168748,5044.420113174728 4983.139320225,5034.909548011775 4986.229490168751,5025.398982848824 4989.319660112502,5015.888417685872 4992.409830056253,5006.377852522921 5000.500000000004,5000.499999999996 5010.500000000004,5000.499999999998 5020.500000000005,5000.499999999999 5030.500000000005,5000.500000000001 5038.590169943754,5006.377852522927 5041.680339887502,5015.888417685879 5044.77050983125,5025.398982848832 5047.860679774998,5034.909548011784 5044.770509831247,5044.420113174736 5036.680339887497,5050.2979656976595 5028.590169943746,5056.175818220583 5020.499999999995,5062.053670743507 5010.499999999995,5062.053670743506 5002.409830056246,5056.1758182205795 4994.319660112497,5050.297965697653 4986.229490168748,5044.420113174728 4983.139320225,5034.909548011775" stroke="black" stroke-linecap="round" stroke-width="1" /><polyline clip-path="url(#border_clip)" fill="none" points="4983.139320225,5034.909548011775 4986.229490168751,5025.398982848824 4989.319660112502,5015.888417685872 4992.409830056253,5006.377852522921 5000.500000000004,5000.499999999996 5010.500000000004,5000.499999999998 5020.500000000005,5000.499999999999 5030.500000000005,5000.500000000001 5038.590169943754,5006.377852522927 5041.680339887502,5015.888417685879 5044.77050983125,5025.398982848832 5047.860679774998,5034.909548011784 5044.770509831247,5044.420113174736 5036.680339887497,5050.2979656976595 5028.590169943746,5056.175818220583 5020.499999999995,5062.053670743507 5010.499999999995,5062.053670743506 5002.409830056246,5056.1758182205795 4994.319660112497,5050.297965697653 4986.229490168748,5044.420113174728 4983.139320225,5034.909548011775 4986.229490168751,5025.398982848824 4989.319660112502,5015.888417685872 4992.409830056253,5006.377852522921 5000.500000000004,5000.499999999996 5010.500000000004,5000.499999999998 5020.500000000005,5000.499999999999 5030.500000000005,5000.500000000001 5038.590169943754,5006.377852522927 5041.680339887502,5015.888417685879 5044.77050983125,5025.398982848832 5047.860679774998,5034.909548011784 5044.770509831247,5044.420113174736 5036.680339887497,5050.2979656976595 5028.590169943746,5056.175818220583 5020.499999999995,5062.053670743507 5010.499999999995,5062.053670743506 5002.409830056246,5056.1758182205795 4994.319660112497,5050.297965697653 4986.229490168748,5044.420113174728 4983.139320225,5034.909548011775 4986.229490168751,5025.398982848824 4989.319660112502,5015.888417685872" stroke="black" stroke-linecap="round" stroke-width="1" /><polyline clip-path="url(#border_clip)" fill="none" points="4989.319660112502,5015.888417685872 4992.409830056253,5006.377852522921 5000.500000000004,5000.499999999996 5010.500000000004,5000.499999999998 5020.500000000005,5000.499999999999 5030.500000000005,5000.500000000001 5038.590169943754,5006.377852522927 5041.680339887502,5015.888417685879 5044.77050983125,5025.398982848832 5047.860679774998,5034.909548011784 5044.770509831247,5044.420113174736 5036.680339887497,5050.2979656976595 5028.590169943746,5056.175818220583 5020.499999999995,5062.053670743507 5010.499999999995,5062.053670743506 5002.409830056246,5056.1758182205795 4994.319660112497,5050.297965697653 4986.229490168748,5044.420113174727 4983.139320225,5034.909548011775 4986.229490168751,5025.398982848823 4989.319660112502,5015.888417685872 4992.409830056253,5006.37785252292 5000.500000000004,5000.499999999996 5010.500000000004,5000.499999999998 5020.500000000005,5000.499999999999 5030.500000000005,5000.500000000001 5038.590169943754,5006.377852522927 5041.680339887502,5015.888417685879 5044.77050983125,5025.398982848832 5047.860679774998,5034.909548011784 5044.770509831247,5044.420113174736 5036.680339887497,5050.2979656976595 5028.590169943746,5056.175818220583 5020.499999999995,5062.053670743508 5010.499999999995,5062.053670743506 5002.409830056246,5056.1758182205795 4994.319660112497,5050.297965697653 4986.229490168748,5044.420113174727 4983.139320225,5034.909548011775 4986.229490168751,5025.398982848823 4989.319660112502,5015.888417685872 4992.409830056253,5006.37785252292 5000.500000000004,5000.499999999996" stroke="black" stroke-linecap="round" stroke-width="1" /><polyline clip-path="url(#border_clip)" fill="none" points="5000.500000000004,5000.499999999996 5010.500000000005,5000.499999999998 5020.500000000005,5000.499999999999 5030.500000000005,5000.500000000001 5038.590169943754,5006.377852522927 5041.680339887502,5015.888417685879 5044.77050983125,5025.398982848832 5047.860679774998,5034.909548011785 5044.770509831247,5044.420113174736 5036.680339887497,5050.2979656976595 5028.590169943746,5056.175818220583 5020.499999999995,5062.053670743508 5010.4999999999945,5062.053670743506 5002.409830056246,5056.1758182205795 4994.319660112497,5050.297965697653 4986.229490168748,5044.420113174727 4983.139320225,5034.909548011775 4986.229490168751,5025.398982848823 4989.319660112502,5015.888417685872 4992.409830056253,5006.37785252292 5000.500000000004,5000.499999999996 5010.500000000005,5000.499999999998 5020.500000000005,5000.499999999999 5030.5000000000055,5000.500000000001 5038.590169943754,5006.377852522927 5041.680339887502,5015.88841768588 5044.77050983125,5025.398982848832 5047.860679774998,5034.909548011785 5044.770509831247,5044.420113174736 5036.680339887496,5050.2979656976595 5028.590169943746,5056.175818220583 5020.499999999995,5062.053670743508 5010.4999999999945,5062.053670743506 5002.4098300562455,5056.1758182205795 4994.319660112497,5050.297965697653 4986.229490168748,5044.420113174727 4983.139320225,5034.909548011775 4986.229490168751,5025.398982848823 4989.319660112502,5015.888417685872 4992.409830056253,5006.37785252292 5000.500000000004,5000.499999999996 5010.500000000005,5000.499999999998 5020.500000000005,5000.499999999999" stroke="black" stroke-linecap="round" stroke-width="1" /><polyline clip-path="url(#border_clip)" fill="none" points="5020.500000000005,5000.499999999999 5030.5000000000055,5000.500000000001 5038.5901699437545,5006.377852522927 5041.680339887503,5015.88841768588 5044.770509831251,5025.398982848832 5047.860679774998,5034.909548011785 5044.770509831247,5044.420113174736 5036.680339887496,5050.2979656976595 5028.590169943746,5056.175818220583 5020.499999999995,5062.053670743508 5010.4999999999945,5062.053670743506 5002.4098300562455,5056.1758182205795 4994.319660112497,5050.297965697653 4986.229490168748,5044.420113174727 4983.139320225,5034.909548011775 4986.229490168751,5025.398982848823 4989.319660112502,5015.888417685872 4992.409830056253,5006.37785252292 5000.500000000004,5000.499999999996 5010.500000000005,5000.499999999998 5020.500000000005,5000.499999999999 5030.5000000000055,5000.500000000001 5038.5901699437545,5006.377852522927 5041.680339887503,5015.88841768588 5044.770509831251,5025.398982848832 5047.860679774998,5034.909548011785 5044.770509831247,5044.420113174736 5036.680339887496,5050.2979656976595 5028.590169943745,5056.175818220584 5020.499999999995,5062.053670743508 5010.4999999999945,5062.053670743506 5002.4098300562455,5056.1758182205795 4994.319660112496,5050.297965697653 4986.229490168748,5044.420113174727 4983.139320225,5034.909548011775 4986.229490168751,5025.398982848823 4989.319660112502,5015.888417685872 4992.409830056253,5006.37785252292 5000.500000000004,5000.499999999996 5010.500000000005,5000.499999999998 5020.500000000005,5000.499999999999 5030.5000000000055,5000.500000000001 5038.5901699437545,5006.377852522927" stroke="black" stroke-linecap="round" stroke-width="1" /><polyline clip-path="url(#border_clip)" fill="none" points="5038.5901699437545,5006.377852522927 5041.680339887503,5015.88841768588 5044.770509831251,5025.398982848832 5047.860679774998,5034.909548011785 5044.770509831247,5044.420113174736 5036.680339887496,5050.2979656976595 5028.590169943745,5056.175818220584 5020.499999999995,5062.053670743508 5010.4999999999945,5062.053670743506 5002.4098300562455,5056.1758182205795 4994.319660112496,5050.297965697653 4986.229490168748,5044.420113174727 4983.139320225,5034.909548011774 4986.229490168751,5025.398982848823 4989.319660112502,5015.888417685871 4992.409830056253,5006.37785252292 5000.500000000004,5000.499999999996 5010.500000000005,5000.499999999998 5020.500000000005,5000.499999999999 5030.5000000000055,5000.500000000001 5038.5901699437545,5006.377852522927 5041.680339887503,5015.88841768588 5044.770509831251,5025.398982848832 5047.860679774998,5034.909548011785 5044.770509831247,5044.420113174736 5036.680339887496,5050.29796569766 5028.590169943745,5056.175818220584 5020.4999999999945,5062.053670743508 5010.4999999999945,5062.053670743506 5002.4098300562455,5056.1758182205795 4994.319660112496,5050.297965697653 4986.229490168747,5044.420113174727 4983.139320225,5034.909548011774 4986.229490168751,5025.398982848823 4989.319660112502,5015.888417685871 4992.409830056254,5006.37785252292 5000.500000000004,5000.499999999996 5010.500000000005,5000.499999999998 5020.500000000005,5000.499999999999 5030.5000000000055,5000.500000000001 5038.5901699437545,5006.377852522927 5041.680339887503,5015.88841768588 5044.770509831251,5025.398982848832" stroke="black" stroke-linecap="round" stroke-width="1" /><polyline clip-path="url(#border_clip)" fill="none" points="5044.770509831251,5025.398982848832 5047.860679774999,5034.909548011785 5044.770509831247,5044.420113174736 5036.680339887496,5050.29796569766 5028.590169943745,5056.175818220584 5020.4999999999945,5062.053670743508 5010.4999999999945,5062.053670743506 5002.4098300562455,5056.1758182205795 4994.319660112496,5050.297965697653 4986.229490168747,5044.420113174727 4983.139320225,5034.909548011774 4986.229490168751,5025.398982848823 4989.319660112502,5015.888417685871 4992.409830056254,5006.37785252292 5000.500000000005,5000.499999999996 5010.500000000005,5000.499999999998 5020.5000000000055,5000.499999999999 5030.5000000000055,5000.500000000001 5038.5901699437545,5006.377852522927 5041.680339887503,5015.88841768588 5044.770509831251,5025.398982848832 5047.860679774999,5034.909548011785 5044.770509831247,5044.420113174737 5036.680339887496,5050.29796569766 5028.590169943745,5056.175818220584 5020.4999999999945,5062.053670743508 5010.4999999999945,5062.053670743506 5002.4098300562455,5056.1758182205795 4994.319660112496,5050.297965697653 4986.229490168747,5044.420113174727 4983.139320225,5034.909548011774 4986.229490168751,5025.398982848823 4989.319660112502,5015.888417685871 4992.409830056254,5006.37785252292 5000.500000000005,5000.499999999996 5010.500000000005,5000.499999999998 5020.5000000000055,5000.499999999999 5030.5000000000055,5000.500000000001 5038.5901699437545,5006.377852522927 5041.680339887503,5015.88841768588 5044.770509831251,5025.398982848833 5047.860679774999,5034.909548011785 5044.770509831247,5044.420113174737" stroke="black" stroke-linecap="round" stroke-width="1" /><polyline clip-path="url(#border_clip)" fill="none" points="5044.770509831247,5044.420113174737 5036.680339887496,5050.29796569766 5028.590169943745,5056.175818220584 5020.4999999999945,5062.053670743508 5010.4999999999945,5062.053670743506 5002.4098300562455,5056.1758182205795 4994.319660112496,5050.297965697653 4986.229490168747,5044.420113174727 4983.139320224999,5034.909548011774 4986.229490168751,5025.398982848823 4989.319660112502,5015.888417685871 4992.409830056254,5006.37785252292 5000.500000000005,5000.499999999996 5010.500000000005,5000.499999999997 5020.5000000000055,5000.499999999999 5030.5000000000055,5000.500000000001 5038.5901699437545,5006.377852522927 5041.680339887503,5015.88841768588 5044.770509831251,5025.398982848833 5047.860679774999,5034.909548011785 5044.770509831247,5044.420113174737 5036.680339887496,5050.29796569766 5028.590169943745,5056.175818220584 5020.4999999999945,5062.053670743508 5010.4999999999945,5062.053670743506 5002.4098300562455,5056.1758182205795 4994.319660112496,5050.297965697653 4986.229490168747,5044.420113174727 4983.139320224999,5034.909548011774 4986.229490168751,5025.398982848823 4989.319660112502,5015.888417685871 4992.409830056254,5006.37785252292 5000.500000000005,5000.499999999996 5010.500000000005,5000.499999999997 5020.5000000000055,5000.499999999999 5030.5000000000055,5000.500000000001 5038.5901699437545,5006.377852522927 5041.680339887503,5015.88841768588 5044.770509831251,5025.398982848833 5047.860679774999,5034.909548011785 5044.770509831247,5044.420113174737 5036.680339887496,5050.29796569766 5028.590169943745,5056.175818220584" stroke="black" stroke-linecap="round" stroke-width="1" /><polyline clip-path="url(#border_clip)" fill="none" points="5028.590169943745,5056.175818220584 5020.4999999999945,5062.053670743508 5010.4999999999945,5062.053670743506 5002.4098300562455,5056.1758182205795 4994.319660112496,5050.297965697653 4986.229490168747,5044.420113174727 4983.139320224999,5034.909548011774 4986.229490168751,5025.398982848823 4989.319660112502,5015.888417685871 4992.409830056254,5006.37785252292 5000.500000000005,5000.499999999996 5010.500000000005,5000.499999999997 5020.5000000000055,5000.499999999999 5030.5000000000055,5000.500000000001 5038.5901699437545,5006.377852522927 5041.680339887503,5015.88841768588 5044.770509831251,5025.398982848833 5047.860679774999,5034.909548011785 5044.770509831247,5044.420113174737 5036.680339887496,5050.29796569766 5028.590169943745,5056.175818220584 5020.4999999999945,5062.053670743508 5010.499999999994,5062.053670743506 5002.4098300562455,5056.1758182205795 4994.319660112496,5050.297965697653 4986.229490168747,5044.420113174727 4983.139320224999,5034.909548011774 4986.229490168751,5025.398982848822 4989.319660112502,5015.888417685871 4992.409830056254,5006.377852522919 5000.500000000005,5000.499999999995 5010.500000000005,5000.499999999997 5020.5000000000055,5000.499999999999 5030.5000000000055,5000.500000000001 5038.5901699437545,5006.377852522927 5041.680339887503,5015.88841768588 5044.770509831251,5025.398982848833 5047.860679774999,5034.909548011785 5044.770509831247,5044.420113174737 5036.680339887496,5050.29796569766 5028.590169943745,5056.175818220584 5020.4999999999945,5062.053670743508 5010.499999999994,5062.053670743506" stroke="black" stroke-linecap="round" stroke-width="1" /><polyline clip-path="url(#border_clip)" fill="none" points="5010.499999999994,5062.053670743506 5002.4098300562455,5056.1758182205795 4994.319660112496,5050.297965697653 4986.229490168747,5044.420113174727 4983.139320224999,5034.909548011774 4986.229490168751,5025.398982848822 4989.319660112502,5015.888417685871 4992.409830056254,5006.377852522919 5000.500000000005,5000.499999999995 5010.500000000005,5000.499999999997 5020.5000000000055,5000.499999999999 5030.500000000006,5000.500000000001 5038.5901699437545,5006.377852522927 5041.680339887503,5015.88841768588 5044.770509831251,5025.398982848833 5047.860679774999,5034.909548011786 5044.770509831247,5044.420113174737 5036.680339887496,5050.29796569766 5028.590169943745,5056.175818220584 5020.4999999999945,5062.053670743508 5010.499999999994,5062.053670743506 5002.4098300562455,5056.1758182205795 4994.319660112496,5050.297965697653 4986.229490168747,5044.420113174727 4983.139320224999,5034.909548011774 4986.229490168751,5025.398982848822 4989.319660112502,5015.888417685871 4992.409830056254,5006.377852522919 5000.500000000005,5000.499999999995 5010.5000000000055,5000.499999999997 5020.5000000000055,5000.499999999999 5030.500000000006,5000.500000000001 5038.5901699437545,5006.377852522928 5041.680339887503,5015.88841768588 5044.770509831251,5025.398982848833 5047.860679774999,5034.909548011786 5044.770509831247,5044.420113174737 5036.680339887496,5050.29796569766 5028.590169943745,5056.175818220584 5020.4999999999945,5062.053670743508 5010.499999999994,5062.053670743506 5002.409830056245,5056.1758182205795 4994.319660112496,5050.297965697653" stroke="black" stroke-linecap="round" stroke-width="1" /><polyline clip-path="url(#border_clip)" fill="none" points="4994.319660112496,5050.297965697653 4986.229490168747,5044.420113174726 4983.139320224999,5034.909548011774 4986.229490168751,5025.398982848822 4989.319660112502,5015.888417685871 4992.409830056254,5006.377852522919 5000.500000000005,5000.499999999995 5010.5000000000055,5000.499999999997 5020.5000000000055,5000.499999999999 5030.500000000006,5000.500000000001 5038.5901699437545,5006.377852522928 5041.680339887503,5015.88841768588 5044.770509831251,5025.398982848833 5047.860679774999,5034.909548011786 5044.770509831247,5044.420113174737 5036.680339887496,5050.29796569766 5028.590169943745,5056.175818220584 5020.4999999999945,5062.053670743508 5010.499999999994,5062.053670743506 5002.409830056245,5056.1758182205795 4994.319660112496,5050.297965697653 4986.229490168747,5044.420113174726 4983.139320224999,5034.909548011774 4986.229490168751,5025.398982848822 4989.319660112502,5015.888417685871 4992.409830056254,5006.377852522919 5000.500000000005,5000.499999999995 5010.5000000000055,5000.499999999997 5020.5000000000055,5000.499999999999 5030.500000000006,5000.500000000001 5038.590169943755,5006.377852522928 5041.680339887503,5015.88841768588 5044.770509831251,5025.398982848833 5047.860679774999,5034.909548011786 5044.770509831247,5044.420113174737 5036.680339887496,5050.29796569766 5028.590169943745,5056.175818220584 5020.4999999999945,5062.053670743508 5010.499999999994,5062.053670743506 5002.409830056245,5056.1758182205795 4994.319660112496,5050.297965697653 4986.229490168747,5044.420113174726 4983.139320224999,5034.909548011774" stroke="black" stroke-linecap="round" stroke-width="1" /><polyline clip-path="url(#border_clip)" fill="none" points="4983.139320224999,5034.909548011774 4986.229490168751,5025.398982848822 4989.319660112502,5015.888417685871 4992.409830056254,5006.377852522919 5000.500000000005,5000.499999999995 5010.5000000000055,5000.499999999997 5020.5000000000055,5000.499999999999 5030.500000000006,5000.500000000001 5038.590169943755,5006.377852522928 5041.680339887503,5015.88841768588 5044.770509831251,5025.398982848833 5047.860679774999,5034.909548011786 5044.770509831247,5044.420113174737 5036.680339887496,5050.29796569766 5028.590169943745,5056.175818220584 5020.499999999994,5062.053670743508 5010.499999999994,5062.053670743506 5002.409830056245,5056.1758182205795 4994.3196601124955,5050.297965697653 4986.229490168747,5044.420113174726 4983.139320224999,5034.909548011773 4986.229490168751,5025.398982848822 4989.319660112502,5015.888417685871 4992.409830056254,5006.377852522919 5000.500000000005,5000.499999999995 5010.5000000000055,5000.499999999997 5020.5000000000055,5000.499999999999 5030.500000000006,5000.500000000001 5038.590169943755,5006.377852522928 5041.680339887503,5015.888417685881 5044.770509831251,5025.398982848833 5047.860679774999,5034.909548011786 5044.770509831247,5044.420113174738 5036.680339887496,5050.29796569766 5028.590169943745,5056.175818220584 5020.499999999994,5062.053670743508 5010.499999999994,5062.053670743506 5002.409830056245,5056.1758182205795 4994.3196601124955,5050.297965697652 4986.229490168747,5044.420113174726 4983.139320224999,5034.909548011773 4986.229490168751,5025.398982848822 4989.319660112502,5015.88841768587" stroke="black" stroke-linecap="round" stroke-width="1" /><polyline clip-path="url(#border_clip)" fill="none" points="4989.319660112502,5015.88841768587 4992.409830056254,5006.377852522919 5000.500000000005,5000.499999999995 5010.5000000000055,5000.499999999997 5020.5000000000055,5000.499999999999 5030.500000000006,5000.500000000001 5038.590169943755,5006.377852522928 5041.680339887503,5015.888417685881 5044.770509831251,5025.398982848833 5047.860679774999,5034.909548011786 5044.770509831247,5044.420113174738 5036.680339887496,5050.297965697661 5028.590169943745,5056.175818220584 5020.499999999994,5062.053670743508 5010.499999999994,5062.053670743506 5002.409830056245,5056.1758182205795 4994.3196601124955,5050.297965697652 4986.229490168747,5044.420113174726 4983.139320224999,5034.909548011773 4986.229490168751,5025.398982848822 4989.319660112502,5015.88841768587 4992.409830056254,5006.377852522919 5000.500000000005,5000.499999999995 5010.5000000000055,5000.499999999997 5020.500000000006,5000.499999999999 5030.500000000006,5000.500000000001 5038.590169943755,5006.377852522928 5041.680339887503,5015.888417685881 5044.770509831251,5025.398982848833 5047.860679774999,5034.909548011786 5044.770509831247,5044.420113174738 5036.680339887496,5050.297965697661 5028.5901699437445,5056.175818220584 5020.499999999994,5062.053670743508 5010.499999999994,5062.053670743506 5002.409830056245,5056.1758182205795 4994.3196601124955,5050.297965697652 4986.229490168747,5044.420113174726 4983.139320224999,5034.909548011773 4986.229490168751,5025.398982848822 4989.319660112502,5015.88841768587 4992.409830056254,5006.377852522919 5000.500000000005,5000.499999999995" stroke="black" stroke-linecap="round" stroke-width="1" /><polyline clip-path="url(#border_clip)" fill="none" points="5000.500000000005,5000.499999999995 5010.5000000000055,5000.499999999997 5020.500000000006,5000.499999999999 5030.500000000006,5000.500000000002 5038.590169943755,5006.377852522928 5041.680339887503,5015.888417685881 5044.770509831251,5025.398982848834 5047.860679774999,5034.909548011786 5044.770509831247,5044.420113174738 5036.680339887496,5050.297965697661 5028.5901699437445,5056.175818220585 5020.499999999994,5062.053670743508 5010.499999999994,5062.053670743506 5002.409830056245,5056.1758182205795 4994.3196601124955,5050.297965697652 4986.229490168747,5044.420113174726 4983.139320224999,5034.909548011773 4986.229490168751,5025.398982848822 4989.319660112502,5015.88841768587 4992.409830056254,5006.377852522919 5000.500000000005,5000.499999999995 5010.5000000000055,5000.499999999997 5020.500000000006,5000.499999999999 5030.500000000006,5000.500000000002 5038.590169943755,5006.377852522928 5041.680339887504,5015.888417685881 5044.770509831251,5025.398982848834 5047.860679774999,5034.909548011786 5044.770509831247,5044.420113174738 5036.680339887496,5050.297965697661 5028.5901699437445,5056.175818220585 5020.499999999994,5062.053670743508 5010.499999999993,5062.053670743506 5002.409830056245,5056.1758182205795 4994.3196601124955,5050.297965697652 4986.229490168746,5044.420113174726 4983.139320224999,5034.909548011773 4986.229490168751,5025.398982848822 4989.319660112502,5015.88841768587 4992.409830056254,5006.377852522919 5000.5000000000055,5000.499999999995 5010.5000000000055,5000.499999999997 5020.500000000006,5000.499999999999" stroke="black" stroke-linecap="round" stroke-width="1" /><polyline clip-path="url(#border_clip)" fill="none" points="5020.500000000006,5000.499999999999 5030.500000000006,5000.500000000002 5038.590169943755,5006.377852522928 5041.680339887504,5015.888417685881 5044.770509831251,5025.398982848834 5047.860679774999,5034.909548011787 5044.770509831247,5044.420113174738 5036.680339887496,5050.297965697661 5028.5901699437445,5056.175818220585 5020.499999999994,5062.053670743508 5010.499999999993,5062.053670743506 5002.409830056245,5056.1758182205795 4994.3196601124955,5050.297965697652 4986.229490168746,5044.420113174726 4983.139320224999,5034.909548011773 4986.229490168751,5025.398982848822 4989.319660112502,5015.88841768587 4992.409830056254,5006.377852522919 5000.5000000000055,5000.499999999995 5010.5000000000055,5000.499999999997 5020.500000000006,5000.499999999999 5030.500000000006,5000.500000000002 5038.590169943755,5006.377852522928 5041.680339887504,5015.888417685881 5044.770509831251,5025.398982848834 5047.860679774999,5034.909548011787 5044.770509831247,5044.420113174738 5036.680339887496,5050.297965697661 5028.5901699437445,5056.175818220585 5020.499999999994,5062.053670743508 5010.499999999993,5062.053670743506 5002.409830056245,5056.1758182205795 4994.3196601124955,5050.297965697652 4986.229490168746,5044.420113174726 4983.139320224999,5034.909548011773 4986.229490168751,5025.398982848821 4989.319660112502,5015.88841768587 4992.409830056254,5006.377852522919 5000.5000000000055,5000.499999999995 5010.5000000000055,5000.499999999997 5020.500000000006,5000.499999999999 5030.500000000007,5000.500000000002 5038.590169943755,5006.377852522928" stroke="black" stroke-linecap="round" stroke-width="1" /><polyline clip-path="url(#border_clip)" fill="none" points="5038.590169943755,5006.377852522928 5041.680339887504,5015.888417685881 5044.770509831251,5025.398982848834 5047.860679774999,5034.909548011787 5044.770509831247,5044.420113174738 5036.680339887495,5050.297965697661 5028.5901699437445,5056.175818220585 5020.499999999994,5062.053670743508 5010.499999999993,5062.053670743506 5002.409830056245,5056.1758182205795 4994.3196601124955,5050.297965697652 4986.229490168746,5044.420113174726 4983.139320224999,5034.909548011773 4986.229490168751,5025.398982848821 4989.319660112503,5015.88841768587 4992.409830056254,5006.377852522918 5000.5000000000055,5000.499999999995 5010.5000000000055,5000.499999999997 5020.500000000006,5000.499999999999 5030.500000000007,5000.500000000002 5038.590169943755,5006.377852522928 5041.680339887504,5015.888417685881 5044.770509831251,5025.398982848834 5047.860679774999,5034.909548011787 5044.770509831247,5044.420113174738 5036.680339887495,5050.297965697661 5028.5901699437445,5056.175818220585 5020.499999999994,5062.0536707435085 5010.499999999993,5062.053670743506 5002.409830056244,5056.1758182205795 4994.3196601124955,5050.297965697652 4986.229490168746,5044.420113174726 4983.139320224999,5034.909548011773 4986.229490168751,5025.398982848821 4989.319660112503,5015.88841768587 4992.409830056254,5006.377852522918 5000.5000000000055,5000.499999999995 5010.5000000000055,5000.499999999997 5020.500000000006,5000.499999999999 5030.500000000007,5000.500000000002 5038.590169943755,5006.377852522928 5041.680339887504,5015.888417685881 5044.770509831251,5025.398982848834" stroke="black" stroke-linecap="round" stroke-width="1" /><polyline clip-path="url(#border_clip)" fill="none" points="5044.770509831251,5025.398982848834 5047.860679774999,5034.909548011787 5044.770509831247,5044.420113174738 5036.680339887495,5050.297965697661 5028.5901699437445,5056.175818220585 5020.499999999994,5062.0536707435085 5010.499999999993,5062.053670743506 5002.409830056244,5056.1758182205795 4994.3196601124955,5050.297965697652 4986.229490168746,5044.420113174726 4983.139320224999,5034.909548011773 4986.229490168751,5025.398982848821 4989.319660112503,5015.88841768587 4992.409830056254,5006.377852522918 5000.5000000000055,5000.499999999995 5010.5000000000055,5000.499999999997 5020.500000000006,5000.499999999999 5030.500000000007,5000.500000000002 5038.590169943755,5006.377852522928 5041.680339887504,5015.888417685881 5044.770509831251,5025.398982848834 5047.860679774999,5034.909548011787 5044.770509831247,5044.420113174738 5036.680339887495,5050.297965697661 5028.5901699437445,5056.175818220585 5020.499999999994,5062.0536707435085 5010.499999999993,5062.053670743506 5002.409830056244,5056.1758182205795 4994.3196601124955,5050.297965697652 4986.229490168746,5044.420113174726 4983.139320224999,5034.909548011773 4986.229490168751,5025.398982848821 4989.319660112503,5015.88841768587 4992.409830056254,5006.377852522918 5000.5000000000055,5000.499999999995 5010.500000000006,5000.499999999997 5020.500000000006,5000.499999999999 5030.500000000007,5000.500000000002 5038.590169943755,5006.377852522928 5041.680339887504,5015.888417685881 5044.770509831251,5025.398982848834 5047.860679774999,5034.909548011787 5044.770509831247,5044.420113174739" stroke="black" stroke-linecap="round" stroke-width="1" /><polyline clip-path="url(#border_clip)" fill="none" points="5044.770509831247,5044.420113174739 5036.680339887495,5050.297965697661 5028.5901699437445,5056.175818220585 5020.499999999993,5062.0536707435085 5010.499999999993,5062.053670743506 5002.409830056244,5056.1758182205795 4994.3196601124955,5050.297965697652 4986.229490168746,5044.420113174726 4983.139320224999,5034.909548011773 4986.229490168751,5025.398982848821 4989.319660112503,5015.88841768587 4992.409830056254,5006.377852522918 5000.5000000000055,5000.499999999995 5010.500000000006,5000.499999999997 5020.500000000006,5000.499999999999 5030.500000000007,5000.500000000002 5038.590169943756,5006.377852522928 5041.680339887504,5015.888417685881 5044.770509831251,5025.398982848834 5047.860679774999,5034.909548011787 5044.770509831247,5044.420113174739 5036.680339887495,5050.297965697661 5028.5901699437445,5056.175818220585 5020.499999999993,5062.0536707435085 5010.499999999993,5062.053670743506 5002.409830056244,5056.1758182205795 4994.3196601124955,5050.297965697652 4986.229490168746,5044.420113174725 4983.139320224999,5034.909548011773 4986.229490168751,5025.398982848821 4989.319660112503,5015.88841768587 4992.409830056255,5006.377852522918 5000.5000000000055,5000.4999999999945 5010.500000000006,5000.499999999997 5020.500000000006,5000.499999999999 5030.500000000007,5000.500000000002 5038.590169943756,5006.377852522928 5041.680339887504,5015.888417685881 5044.770509831251,5025.398982848834 5047.860679774999,5034.909548011787 5044.770509831247,5044.420113174739 5036.680339887495,5050.297965697661 5028.5901699437445,5056.175818220585" stroke="black" stroke-linecap="round" stroke-width="1" /><polyline clip-path="url(#border_clip)" fill="none" points="5028.5901699437445,5056.175818220585 5020.499999999993,5062.0536707435085 5010.499999999993,5062.053670743506 5002.409830056244,5056.1758182205795 4994.319660112495,5050.297965697652 4986.229490168746,5044.420113174725 4983.139320224999,5034.909548011772 4986.229490168751,5025.398982848821 4989.319660112503,5015.88841768587 4992.409830056255,5006.377852522918 5000.5000000000055,5000.4999999999945 5010.500000000006,5000.499999999997 5020.500000000006,5000.499999999999 5030.500000000007,5000.500000000002 5038.590169943756,5006.377852522928 5041.680339887504,5015.888417685881 5044.770509831251,5025.398982848834 5047.860679774999,5034.909548011787 5044.770509831247,5044.420113174739 5036.680339887495,5050.297965697661 5028.5901699437445,5056.175818220585 5020.499999999993,5062.0536707435085 5010.499999999993,5062.053670743506 5002.409830056244,5056.1758182205795 4994.319660112495,5050.297965697652 4986.229490168746,5044.420113174725 4983.139320224999,5034.909548011772 4986.229490168751,5025.398982848821 4989.319660112503,5015.888417685869 4992.409830056255,5006.377852522918 5000.5000000000055,5000.4999999999945 5010.500000000006,5000.499999999997 5020.500000000007,5000.499999999999 5030.500000000007,5000.500000000002 5038.590169943756,5006.377852522928 5041.680339887504,5015.888417685881 5044.770509831251,5025.398982848834 5047.860679774999,5034.909548011787 5044.770509831247,5044.420113174739 5036.680339887495,5050.297965697662 5028.5901699437445,5056.175818220585 5020.499999999993,5062.0536707435085 5010.499999999992,5062.053670743506" stroke="black" stroke-linecap="round" stroke-width="1" /><polyline clip-path="url(#border_clip)" fill="none" points="5010.499999999992,5062.053670743506 5002.409830056244,5056.1758182205795 4994.319660112495,5050.297965697652 4986.229490168746,5044.420113174725 4983.139320224998,5034.909548011772 4986.229490168751,5025.398982848821 4989.319660112503,5015.888417685869 4992.409830056255,5006.377852522918 5000.5000000000055,5000.4999999999945 5010.500000000006,5000.499999999997 5020.500000000007,5000.499999999999 5030.500000000007,5000.500000000002 5038.590169943756,5006.377852522928 5041.680339887504,5015.888417685882 5044.770509831251,5025.398982848835 5047.860679774999,5034.909548011788 5044.770509831247,5044.420113174739 5036.680339887495,5050.297965697662 5028.5901699437445,5056.175818220585 5020.499999999993,5062.0536707435085 5010.499999999992,5062.053670743506 5002.409830056244,5056.1758182205795 4994.319660112495,5050.297965697652 4986.229490168746,5044.420113174725 4983.139320224998,5034.909548011772 4986.229490168751,5025.398982848821 4989.319660112503,5015.888417685869 4992.409830056255,5006.377852522918 5000.5000000000055,5000.4999999999945 5010.500000000006,5000.499999999997 5020.500000000007,5000.499999999999 5030.500000000007,5000.500000000002 5038.590169943756,5006.377852522929 5041.680339887504,5015.888417685882 5044.770509831251,5025.398982848835 5047.860679774999,5034.909548011788 5044.770509831247,5044.420113174739 5036.680339887495,5050.297965697662 5028.5901699437445,5056.175818220585 5020.499999999993,5062.0536707435085 5010.499999999992,5062.053670743506 5002.409830056244,5056.1758182205795 4994.319660112495,5050.297965697652" stroke="black" stroke-linecap="round" stroke-width="1" /><polyline clip-path="url(#border_clip)" fill="none" points="4994.319660112495,5050.297965697652 4986.229490168746,5044.420113174725 4983.139320224998,5034.909548011772 4986.229490168751,5025.398982848821 4989.319660112503,5015.888417685869 4992.409830056255,5006.377852522918 5000.5000000000055,5000.4999999999945 5010.500000000006,5000.499999999997 5020.500000000007,5000.499999999999 5030.500000000007,5000.500000000002 5038.590169943756,5006.377852522929 5041.680339887504,5015.888417685882 5044.770509831251,5025.398982848835 5047.860679774999,5034.909548011788 5044.770509831247,5044.420113174739 5036.680339887495,5050.297965697662 5028.590169943744,5056.175818220585 5020.499999999993,5062.0536707435085 5010.499999999992,5062.053670743506 5002.409830056244,5056.1758182205795 4994.319660112495,5050.297965697652 4986.229490168746,5044.420113174725 4983.139320224998,5034.909548011772 4986.229490168751,5025.398982848821 4989.319660112503,5015.888417685869 4992.409830056255,5006.377852522918 5000.5000000000055,5000.4999999999945" stroke="black" stroke-linecap="round" stroke-width="1" /></svg>