<?xml version="1.0" encoding="utf-8" ?>
<svg baseProfile="full" height="1000px" version="1.1" width="1000px" xmlns="http://www.w3.org/2000/svg" xmlns:ev="http://www.w3.org/2001/xml-events" xmlns:xlink="http://www.w3.org/1999/xlink"><defs><clipPath id="border_clip"><rect height="1000" width="1000" x="0" y="0" /></clipPath></defs><polyline clip-path="url(#border_clip)" fill="none" points="500.5,500.5 510.5,500.5 520.5,500.5 528.5901699437495,506.37785252292474 531.6803398874989,515.8884176858762 534.7705098312484,525.3989828488278 537.8606797749978,534.9095480117794 534.7705098312484,544.4201131747309 526.6803398874989,550.2979656976556 518.5901699437494,556.1758182205804 510.49999999999994,562.0536707435051 500.49999999999994,562.0536707435051 492.4098300562505,556.1758182205804 484.319660112501,550.2979656976556 476.22949016875157,544.4201131747309 473.1393202250021,534.9095480117793 476.22949016875157,525.3989828488277 479.3196601125011,515.8884176858762 482.4098300562506,506.3778525229247 490.50000000000006,500.49999999999994 500.50000000000006,500.5 510.50000000000006,500.5 520.5000000000001,500.50000000000006 528.5901699437495,506.3778525229248 531.680339887499,515.8884176858763 534.7705098312484,525.3989828488279 537.860679774998,534.9095480117794 534.7705098312484,544.420113174731 526.6803398874989,550.2979656976557 518.5901699437494,556.1758182205804 510.4999999999999,562.0536707435051 500.4999999999999,562.0536707435051 492.4098300562504,556.1758182205804 484.31966011250097,550.2979656976555 476.2294901687515,544.4201131747308 473.13932022500205,534.9095480117792 476.22949016875157,525.3989828488277 479.3196601125011,515.8884176858761 482.4098300562506,506.3778525229246 490.5000000000001,500.49999999999994 500.50000000000017,500.5 510.50000000000017,500.5 520.5000000000002,500.50000000000006" stroke="black" stroke-linecap="round" stroke-width="1" /><polyline clip-path="url(#border_clip)" fill="none" points="520.5000000000002,500.50000000000006 528.5901699437496,506.37785252292485 531.680339887499,515.8884176858764 534.7705098312485,525.3989828488279 537.860679774998,534.9095480117795 534.7705098312484,544.4201131747311 526.6803398874989,550.2979656976557 518.5901699437493,556.1758182205805 510.49999999999983,562.0536707435051 500.49999999999983,562.0536707435051 492.40983005625037,556.1758182205804 484.3196601125009,550.2979656976555 476.22949016875145,544.4201131747308 473.13932022500205,534.9095480117792 476.22949016875157,525.3989828488276 479.31966011250114,515.8884176858761 482.40983005625066,506.37785252292457 490.5000000000002,500.4999999999999 500.5000000000002,500.49999999999994 510.5000000000002,500.5 520.5000000000002,500.5000000000001 528.5901699437497,506.3778525229249 531.6803398874991,515.8884176858764 534.7705098312485,525.398982848828 537.860679774998,534.9095480117796 534.7705098312483,544.4201131747311 526.6803398874988,550.2979656976559 518.5901699437493,556.1758182205805 510.4999999999998,562.0536707435052 500.4999999999997,562.0536707435051 492.40983005625026,556.1758182205803 484.31966011250086,550.2979656976555 476.2294901687514,544.4201131747307 473.139320225002,534.9095480117791 476.22949016875157,525.3989828488276 479.31966011250114,515.888417685876 482.4098300562507,506.37785252292446 490.5000000000002,500.49999999999983 500.5000000000003,500.4999999999999 510.50000000000034,500.5 520.5000000000003,500.5000000000001 528.5901699437497,506.3778525229249 531.6803398874991,515.8884176858766" stroke="black" stroke-linecap="round" stroke-width="1" /><polyline clip-path="url(#border_clip)" fill="none" points="531.6803398874991,515.8884176858766 534.7705098312485,525.3989828488282 537.860679774998,534.9095480117797 534.7705098312483,544.4201131747312 526.6803398874988,550.2979656976559 518.5901699437493,556.1758182205806 510.4999999999997,562.0536707435052 500.49999999999966,562.0536707435051 492.4098300562502,556.1758182205804 484.3196601125008,550.2979656976555 476.22949016875134,544.4201131747307 473.13932022500194,534.9095480117791 476.22949016875157,525.3989828488275 479.31966011250114,515.888417685876 482.4098300562507,506.37785252292446 490.5000000000003,500.4999999999998 500.50000000000034,500.4999999999999 510.5000000000004,500.5 520.5000000000005,500.5000000000001 528.5901699437499,506.37785252292497 531.6803398874993,515.8884176858766 534.7705098312485,525.3989828488282 537.860679774998,534.9095480117797 534.7705098312483,544.4201131747313 526.6803398874988,550.297965697656 518.5901699437492,556.1758182205806 510.4999999999996,562.0536707435052 500.49999999999955,562.0536707435051 492.40983005625014,556.1758182205803 484.31966011250074,550.2979656976554 476.2294901687513,544.4201131747305 473.13932022500194,534.909548011779 476.22949016875157,525.3989828488274 479.31966011250114,515.8884176858759 482.40983005625077,506.37785252292434 490.50000000000034,500.4999999999997 500.5000000000004,500.49999999999983 510.50000000000045,500.5 520.5000000000005,500.5000000000001 528.5901699437499,506.37785252292497 531.6803398874993,515.8884176858766 534.7705098312485,525.3989828488283 537.860679774998,534.9095480117799" stroke="black" stroke-linecap="round" stroke-width="1" /><polyline clip-path="url(#border_clip)" fill="none" points="537.860679774998,534.9095480117799 534.7705098312483,544.4201131747313 526.6803398874987,550.297965697656 518.5901699437491,556.1758182205806 510.4999999999995,562.0536707435053 500.4999999999995,562.0536707435051 492.40983005625003,556.1758182205803 484.3196601125006,550.2979656976554 476.2294901687512,544.4201131747304 473.1393202250019,534.9095480117788 476.2294901687515,525.3989828488274 479.31966011250114,515.8884176858758 482.4098300562508,506.3778525229243 490.5000000000004,500.49999999999966 500.50000000000045,500.4999999999998 510.5000000000005,500.49999999999994 520.5000000000006,500.5000000000001 528.59016994375,506.377852522925 531.6803398874993,515.8884176858767 534.7705098312487,525.3989828488283 537.860679774998,534.90954801178 534.7705098312483,544.4201131747315 526.6803398874987,550.2979656976561 518.5901699437491,556.1758182205807 510.49999999999943,562.0536707435053 500.4999999999994,562.0536707435051 492.40983005625,556.1758182205803 484.31966011250057,550.2979656976553 476.22949016875117,544.4201131747304 473.1393202250018,534.9095480117787 476.2294901687515,525.3989828488272 479.3196601125012,515.8884176858757 482.4098300562508,506.3778525229242 490.50000000000045,500.49999999999955 500.5000000000005,500.4999999999998 510.50000000000057,500.49999999999994 520.5000000000007,500.5000000000001 528.5901699437501,506.3778525229251 531.6803398874994,515.8884176858767 534.7705098312487,525.3989828488284 537.860679774998,534.90954801178 534.7705098312483,544.4201131747316 526.6803398874987,550.2979656976562" stroke="black" stroke-linecap="round" stroke-width="1" /><polyline clip-path="url(#border_clip)" fill="none" points="526.6803398874987,550.2979656976562 518.5901699437491,556.1758182205807 510.4999999999994,562.0536707435053 500.4999999999993,562.0536707435051 492.4098300562499,556.1758182205803 484.3196601125005,550.2979656976553 476.2294901687511,544.4201131747303 473.13932022500177,534.9095480117787 476.22949016875145,525.3989828488271 479.3196601125012,515.8884176858757 482.4098300562509,506.3778525229241 490.5000000000005,500.4999999999995 500.50000000000057,500.4999999999997 510.5000000000007,500.49999999999994 520.5000000000007,500.50000000000017 528.5901699437501,506.3778525229251 531.6803398874994,515.8884176858768 534.7705098312487,525.3989828488284 537.860679774998,534.9095480117801 534.7705098312483,544.4201131747317 526.6803398874986,550.2979656976562 518.590169943749,556.1758182205808 510.4999999999993,562.0536707435054 500.4999999999992,562.0536707435052 492.40983005624986,556.1758182205803 484.31966011250046,550.2979656976553 476.22949016875106,544.4201131747303 473.13932022500177,534.9095480117786 476.22949016875145,525.3989828488271 479.3196601125012,515.8884176858755 482.40983005625094,506.37785252292406 490.50000000000057,500.4999999999995 500.5000000000007,500.4999999999997 510.50000000000074,500.49999999999994 520.5000000000008,500.50000000000017 528.5901699437502,506.37785252292514 531.6803398874995,515.8884176858768 534.7705098312488,525.3989828488285 537.8606797749981,534.9095480117802 534.7705098312483,544.4201131747317 526.6803398874986,550.2979656976563 518.590169943749,556.1758182205809 510.49999999999926,562.0536707435054" stroke="black" stroke-linecap="round" stroke-width="1" /><polyline clip-path="url(#border_clip)" fill="none" points="510.49999999999926,562.0536707435054 500.49999999999915,562.0536707435052 492.4098300562498,556.1758182205803 484.3196601125004,550.2979656976553 476.229490168751,544.4201131747303 473.13932022500177,534.9095480117786 476.2294901687515,525.398982848827 479.31966011250125,515.8884176858755 482.409830056251,506.377852522924 490.5000000000007,500.49999999999943 500.50000000000074,500.4999999999997 510.5000000000008,500.49999999999994 520.5000000000009,500.5000000000002 528.5901699437503,506.3778525229252 531.6803398874995,515.8884176858769 534.7705098312488,525.3989828488286 537.8606797749981,534.9095480117803 534.7705098312482,544.4201131747318 526.6803398874986,550.2979656976564 518.5901699437488,556.1758182205809 510.49999999999915,562.0536707435054 500.4999999999991,562.0536707435052 492.4098300562497,556.1758182205803 484.3196601125003,550.2979656976552 476.22949016875094,544.4201131747302 473.1393202250017,534.9095480117785 476.22949016875145,525.398982848827 479.31966011250125,515.8884176858754 482.409830056251,506.37785252292394 490.5000000000007,500.4999999999994 500.5000000000008,500.49999999999966 510.5000000000009,500.49999999999994 520.5000000000009,500.5000000000002 528.5901699437503,506.37785252292525 531.6803398874996,515.8884176858769 534.7705098312488,525.3989828488286 537.8606797749981,534.9095480117803 534.7705098312482,544.4201131747319 526.6803398874986,550.2979656976564 518.5901699437488,556.1758182205809 510.4999999999991,562.0536707435056 500.499999999999,562.0536707435052 492.40983005624963,556.1758182205801" stroke="black" stroke-linecap="round" stroke-width="1" /><polyline clip-path="url(#border_clip)" fill="none" points="492.40983005624963,556.1758182205801 484.31966011250023,550.2979656976552 476.2294901687509,544.4201131747302 473.13932022500165,534.9095480117784 476.22949016875145,525.3989828488269 479.31966011250125,515.8884176858754 482.40983005625105,506.37785252292383 490.50000000000074,500.4999999999993 500.50000000000085,500.4999999999996 510.50000000000097,500.49999999999994 520.500000000001,500.5000000000002 528.5901699437504,506.37785252292525 531.6803398874996,515.888417685877 534.7705098312488,525.3989828488287 537.8606797749981,534.9095480117804 534.7705098312482,544.420113174732 526.6803398874985,550.2979656976565 518.5901699437487,556.175818220581 510.499999999999,562.0536707435056 500.4999999999989,562.0536707435052 492.4098300562495,556.1758182205801 484.3196601125002,550.2979656976552 476.22949016875083,544.4201131747301 473.1393202250016,534.9095480117784 476.22949016875145,525.3989828488268 479.31966011250125,515.8884176858753 482.40983005625105,506.3778525229238 490.5000000000008,500.49999999999926 500.5000000000009,500.49999999999955 510.500000000001,500.4999999999999 520.5000000000011,500.5000000000002 528.5901699437504,506.3778525229253 531.6803398874996,515.888417685877 534.7705098312489,525.3989828488287 537.8606797749981,534.9095480117805 534.7705098312482,544.420113174732 526.6803398874985,550.2979656976565 518.5901699437487,556.175818220581 510.4999999999989,562.0536707435056 500.4999999999988,562.0536707435052 492.40983005624946,556.1758182205801 484.3196601125001,550.2979656976551 476.2294901687508,544.42011317473" stroke="black" stroke-linecap="round" stroke-width="1" /><polyline clip-path="url(#border_clip)" fill="none" points="476.2294901687508,544.42011317473 473.1393202250016,534.9095480117783 476.22949016875145,525.3989828488267 479.31966011250125,515.8884176858752 482.4098300562511,506.37785252292366 490.5000000000009,500.49999999999915 500.50000000000097,500.49999999999955 510.5000000000011,500.4999999999999 520.5000000000013,500.5000000000002 528.5901699437505,506.3778525229253 531.6803398874997,515.8884176858771 534.7705098312489,525.3989828488288 537.8606797749981,534.9095480117805 534.7705098312482,544.4201131747321 526.6803398874983,550.2979656976565 518.5901699437486,556.175818220581 510.49999999999886,562.0536707435056 500.49999999999875,562.0536707435052 492.4098300562494,556.1758182205801 484.31966011250006,550.2979656976551 476.2294901687507,544.42011317473 473.13932022500154,534.9095480117782 476.2294901687514,525.3989828488267 479.3196601125013,515.8884176858751 482.40983005625117,506.3778525229236 490.5000000000009,500.4999999999991 500.500000000001,500.4999999999995 510.50000000000114,500.4999999999999 520.5000000000013,500.5000000000002 528.5901699437507,506.37785252292537 531.6803398874997,515.8884176858771 534.7705098312489,525.3989828488288 537.8606797749981,534.9095480117807 534.7705098312482,544.4201131747321 526.6803398874983,550.2979656976567 518.5901699437486,556.1758182205812 510.49999999999875,562.0536707435057 500.49999999999864,562.0536707435052 492.4098300562493,556.1758182205801 484.3196601125,550.2979656976551 476.22949016875066,544.4201131747299 473.1393202250015,534.9095480117782 476.2294901687514,525.3989828488266" stroke="black" stroke-linecap="round" stroke-width="1" /><polyline clip-path="url(#border_clip)" fill="none" points="476.2294901687514,525.3989828488266 479.3196601125013,515.8884176858751 482.40983005625117,506.37785252292355 490.50000000000097,500.4999999999991 500.50000000000114,500.4999999999995 510.50000000000125,500.4999999999999 520.5000000000014,500.5000000000003 528.5901699437507,506.3778525229254 531.6803398874998,515.8884176858772 534.7705098312489,525.398982848829 537.8606797749981,534.9095480117808 534.7705098312482,544.4201131747323 526.6803398874983,550.2979656976568 518.5901699437485,556.1758182205813 510.4999999999987,562.0536707435057 500.4999999999986,562.0536707435053 492.40983005624923,556.1758182205801 484.3196601124999,550.297965697655 476.2294901687506,544.4201131747299 473.1393202250015,534.909548011778 476.2294901687514,525.3989828488266 479.3196601125013,515.888417685875 482.4098300562512,506.3778525229235 490.500000000001,500.49999999999903 500.5000000000012,500.49999999999943 510.5000000000013,500.4999999999999 520.5000000000015,500.5000000000003 528.5901699437508,506.3778525229254 531.6803398874998,515.8884176858772 534.770509831249,525.3989828488291 537.8606797749981,534.9095480117808 534.7705098312481,544.4201131747324 526.6803398874983,550.2979656976568 518.5901699437485,556.1758182205813 510.49999999999864,562.0536707435057 500.4999999999985,562.0536707435053 492.4098300562492,556.1758182205801 484.31966011249983,550.297965697655 476.22949016875054,544.4201131747297 473.1393202250014,534.9095480117779 476.2294901687514,525.3989828488264 479.3196601125013,515.888417685875 482.4098300562513,506.37785252292343" stroke="black" stroke-linecap="round" stroke-width="1" /><polyline clip-path="url(#border_clip)" fill="none" points="482.4098300562513,506.37785252292343 490.50000000000114,500.499999999999 500.50000000000125,500.49999999999943 510.50000000000136,500.4999999999999 520.5000000000015,500.50000000000034 528.5901699437509,506.3778525229255 531.6803398874999,515.8884176858774 534.770509831249,525.3989828488291 537.8606797749981,534.9095480117809 534.7705098312481,544.4201131747325 526.6803398874982,550.2979656976569 518.5901699437484,556.1758182205813 510.4999999999986,562.0536707435058 500.4999999999984,562.0536707435053 492.4098300562491,556.1758182205801 484.3196601124998,550.297965697655 476.2294901687505,544.4201131747297 473.1393202250014,534.9095480117779 476.2294901687514,525.3989828488264 479.3196601125013,515.8884176858749 482.4098300562513,506.3778525229234 490.5000000000012,500.4999999999989 500.5000000000013,500.4999999999994 510.5000000000014,500.4999999999999 520.5000000000016,500.50000000000034 528.5901699437509,506.37785252292554 531.6803398874999,515.8884176858774 534.770509831249,525.3989828488292 537.8606797749981,534.909548011781 534.7705098312481,544.4201131747325 526.6803398874982,550.297965697657 518.5901699437484,556.1758182205814 510.49999999999847,562.0536707435058 500.49999999999835,562.0536707435053 492.40983005624906,556.1758182205801 484.3196601124997,550.297965697655 476.22949016875043,544.4201131747296 473.13932022500137,534.9095480117778 476.22949016875134,525.3989828488263 479.31966011250137,515.8884176858749 482.40983005625134,506.3778525229233 490.5000000000012,500.49999999999886 500.50000000000136,500.4999999999994" stroke="black" stroke-linecap="round" stroke-width="1" /><polyline clip-path="url(#border_clip)" fill="none" points="500.50000000000136,500.4999999999994 510.5000000000015,500.4999999999999 520.5000000000016,500.5000000000004 528.590169943751,506.3778525229256 531.6803398874999,515.8884176858775 534.770509831249,525.3989828488293 537.8606797749981,534.9095480117811 534.7705098312481,544.4201131747326 526.6803398874982,550.297965697657 518.5901699437483,556.1758182205814 510.4999999999984,562.0536707435058 500.49999999999824,562.0536707435053 492.40983005624895,556.17581822058 484.31966011249966,550.2979656976548 476.2294901687504,544.4201131747296 473.1393202250013,534.9095480117778 476.22949016875134,525.3989828488262 479.31966011250137,515.8884176858747 482.4098300562514,506.3778525229232 490.50000000000125,500.4999999999988 500.5000000000014,500.4999999999993 510.5000000000016,500.49999999999983 520.5000000000017,500.5000000000004 528.590169943751,506.37785252292565 531.6803398875,515.8884176858775 534.7705098312491,525.3989828488293 537.8606797749981,534.9095480117811 534.7705098312481,544.4201131747327 526.6803398874981,550.2979656976571 518.5901699437483,556.1758182205815 510.4999999999983,562.0536707435059 500.4999999999982,562.0536707435053 492.4098300562489,556.17581822058 484.3196601124996,550.2979656976548 476.2294901687503,544.4201131747295 473.1393202250013,534.9095480117777 476.22949016875134,525.3989828488262 479.31966011250137,515.8884176858746 482.4098300562514,506.37785252292315 490.50000000000136,500.49999999999875 500.5000000000015,500.4999999999993 510.50000000000165,500.49999999999983 520.5000000000018,500.5000000000004" stroke="black" stroke-linecap="round" stroke-width="1" /><polyline clip-path="url(#border_clip)" fill="none" points="520.5000000000018,500.5000000000004 528.5901699437511,506.37785252292565 531.6803398875,515.8884176858776 534.7705098312491,525.3989828488294 537.8606797749981,534.9095480117812 534.7705098312481,544.4201131747328 526.6803398874981,550.2979656976571 518.5901699437482,556.1758182205815 510.49999999999824,562.0536707435059 500.49999999999807,562.0536707435053 492.40983005624884,556.17581822058 484.31966011249955,550.2979656976548 476.22949016875026,544.4201131747295 473.13932022500126,534.9095480117776 476.22949016875134,525.3989828488261 479.3196601125014,515.8884176858746 482.40983005625145,506.3778525229231 490.5000000000014,500.4999999999987 500.5000000000016,500.4999999999993 510.5000000000017,500.4999999999999 520.5000000000019,500.50000000000045 528.5901699437512,506.3778525229257 531.6803398875002,515.8884176858776 534.7705098312491,525.3989828488295 537.8606797749981,534.9095480117813 534.770509831248,544.4201131747328 526.6803398874981,550.2979656976572 518.5901699437482,556.1758182205816 510.4999999999982,562.0536707435059 500.499999999998,562.0536707435053 492.4098300562487,556.17581822058 484.3196601124995,550.2979656976547 476.2294901687502,544.4201131747294 473.13932022500126,534.9095480117776 476.22949016875134,525.3989828488261 479.3196601125014,515.8884176858745 482.4098300562515,506.37785252292304 490.5000000000015,500.4999999999987 500.50000000000165,500.49999999999926 510.5000000000018,500.49999999999983 520.5000000000019,500.50000000000045 528.5901699437512,506.37785252292576 531.6803398875002,515.8884176858777" stroke="black" stroke-linecap="round" stroke-width="1" /><polyline clip-path="url(#border_clip)" fill="none" points="531.6803398875002,515.8884176858777 534.7705098312491,525.3989828488295 537.8606797749982,534.9095480117815 534.770509831248,544.4201131747329 526.680339887498,550.2979656976573 518.590169943748,556.1758182205816 510.4999999999981,562.053670743506 500.49999999999795,562.0536707435053 492.40983005624867,556.17581822058 484.31966011249943,550.2979656976547 476.22949016875015,544.4201131747294 473.1393202250012,534.9095480117775 476.22949016875134,525.398982848826 479.3196601125014,515.8884176858744 482.40983005625156,506.3778525229229 490.50000000000153,500.4999999999986 500.5000000000017,500.4999999999992 510.5000000000019,500.49999999999983 520.500000000002,500.50000000000045 528.5901699437513,506.3778525229258 531.6803398875003,515.8884176858777 534.7705098312492,525.3989828488296 537.8606797749982,534.9095480117815 534.770509831248,544.420113174733 526.680339887498,550.2979656976573 518.590169943748,556.1758182205816 510.49999999999807,562.053670743506 500.49999999999784,562.0536707435053 492.4098300562486,556.17581822058 484.3196601124994,550.2979656976547 476.2294901687501,544.4201131747293 473.1393202250012,534.9095480117774 476.22949016875134,525.3989828488259 479.3196601125014,515.8884176858744 482.40983005625156,506.37785252292286 490.5000000000016,500.4999999999985 500.50000000000176,500.4999999999992 510.500000000002,500.49999999999983 520.5000000000022,500.50000000000045 528.5901699437514,506.3778525229258 531.6803398875003,515.8884176858777 534.7705098312492,525.3989828488296 537.8606797749982,534.9095480117816" stroke="black" stroke-linecap="round" stroke-width="1" /><polyline clip-path="url(#border_clip)" fill="none" points="537.8606797749982,534.9095480117816 534.770509831248,544.420113174733 526.680339887498,550.2979656976574 518.590169943748,556.1758182205817 510.49999999999795,562.053670743506 500.4999999999978,562.0536707435053 492.40983005624855,556.17581822058 484.3196601124993,550.2979656976546 476.2294901687501,544.4201131747293 473.13932022500114,534.9095480117774 476.22949016875134,525.3989828488258 479.3196601125015,515.8884176858743 482.4098300562516,506.3778525229228 490.50000000000165,500.49999999999847 500.5000000000019,500.49999999999915 510.50000000000205,500.49999999999983 520.5000000000023,500.50000000000045 528.5901699437514,506.3778525229259 531.6803398875004,515.8884176858778 534.7705098312492,525.3989828488297 537.8606797749982,534.9095480117817 534.770509831248,544.4201131747332 526.680339887498,550.2979656976574 518.5901699437479,556.1758182205817 510.4999999999979,562.053670743506 500.4999999999977,562.0536707435053 492.4098300562485,556.17581822058 484.31966011249926,550.2979656976546 476.22949016875003,544.4201131747292 473.13932022500114,534.9095480117772 476.22949016875134,525.3989828488258 479.31966011250154,515.8884176858743 482.4098300562517,506.37785252292275 490.50000000000176,500.49999999999847 500.50000000000193,500.49999999999915 510.5000000000021,500.49999999999983 520.5000000000023,500.5000000000005 528.5901699437516,506.37785252292593 531.6803398875004,515.8884176858778 534.7705098312493,525.3989828488297 537.8606797749982,534.9095480117817 534.770509831248,544.4201131747333 526.6803398874979,550.2979656976576" stroke="black" stroke-linecap="round" stroke-width="1" /><polyline clip-path="url(#border_clip)" fill="none" points="526.6803398874979,550.2979656976576 518.5901699437479,556.1758182205817 510.49999999999784,562.053670743506 500.49999999999767,562.0536707435053 492.40983005624844,556.1758182205799 484.3196601124992,550.2979656976545 476.22949016875,544.4201131747291 473.13932022500114,534.9095480117771 476.22949016875134,525.3989828488257 479.31966011250154,515.8884176858742 482.40983005625174,506.37785252292264 490.5000000000018,500.49999999999835 500.500000000002,500.4999999999991 510.5000000000022,500.49999999999983 520.5000000000024,500.5000000000005 528.5901699437517,506.37785252292593 531.6803398875005,515.8884176858779 534.7705098312493,525.3989828488299 537.8606797749982,534.9095480117818 534.770509831248,544.4201131747333 526.6803398874979,550.2979656976576 518.5901699437478,556.1758182205818 510.4999999999978,562.0536707435061 500.4999999999976,562.0536707435053 492.4098300562484,556.1758182205799 484.31966011249915,550.2979656976545 476.2294901687499,544.4201131747291 473.1393202250011,534.9095480117771 476.22949016875134,525.3989828488257 479.31966011250154,515.8884176858741 482.4098300562518,506.3778525229226 490.5000000000019,500.49999999999835 500.5000000000021,500.4999999999991 510.5000000000023,500.49999999999983 520.5000000000025,500.50000000000057 528.5901699437517,506.377852522926 531.6803398875005,515.8884176858779 534.7705098312493,525.39898284883 537.8606797749982,534.9095480117819 534.770509831248,544.4201131747334 526.6803398874979,550.2979656976577 518.5901699437478,556.1758182205818 510.4999999999977,562.0536707435061" stroke="black" stroke-linecap="round" stroke-width="1" /><polyline clip-path="url(#border_clip)" fill="none" points="510.4999999999977,562.0536707435061 500.4999999999975,562.0536707435053 492.4098300562483,556.1758182205799 484.3196601124991,550.2979656976545 476.22949016874986,544.4201131747291 473.1393202250011,534.909548011777 476.22949016875134,525.3989828488255 479.3196601125016,515.8884176858741 482.40983005625185,506.3778525229225 490.50000000000193,500.4999999999983 500.50000000000216,500.49999999999903 510.50000000000233,500.49999999999983 520.5000000000026,500.50000000000057 528.5901699437518,506.37785252292605 531.6803398875006,515.888417685878 534.7705098312493,525.39898284883 537.8606797749982,534.909548011782 534.770509831248,544.4201131747335 526.6803398874979,550.2979656976577 518.5901699437477,556.175818220582 510.4999999999976,562.0536707435061 500.49999999999744,562.0536707435054 492.4098300562482,556.1758182205799 484.31966011249904,550.2979656976545 476.22949016874986,544.420113174729 473.13932022500103,534.909548011777 476.22949016875134,525.3989828488255 479.3196601125016,515.888417685874 482.40983005625185,506.37785252292247 490.500000000002,500.49999999999824 500.5000000000022,500.49999999999903 510.5000000000024,500.49999999999983 520.5000000000026,500.5000000000006 528.5901699437518,506.3778525229261 531.6803398875006,515.888417685878 534.7705098312495,525.3989828488301 537.8606797749982,534.909548011782 534.7705098312479,544.4201131747335 526.6803398874978,550.2979656976578 518.5901699437477,556.175818220582 510.49999999999756,562.0536707435062 500.4999999999973,562.0536707435054 492.40983005624815,556.1758182205799" stroke="black" stroke-linecap="round" stroke-width="1" /><polyline clip-path="url(#border_clip)" fill="none" points="492.40983005624815,556.1758182205799 484.319660112499,550.2979656976544 476.22949016874975,544.4201131747288 473.139320225001,534.9095480117769 476.2294901687513,525.3989828488254 479.3196601125016,515.888417685874 482.4098300562519,506.3778525229224 490.50000000000205,500.4999999999982 500.5000000000023,500.499999999999 510.5000000000025,500.4999999999998 520.5000000000027,500.50000000000057 528.5901699437519,506.3778525229261 531.6803398875006,515.8884176858782 534.7705098312495,525.3989828488301 537.8606797749982,534.9095480117821 534.7705098312479,544.4201131747336 526.6803398874978,550.2979656976578 518.5901699437476,556.1758182205821 510.4999999999975,562.0536707435062 500.49999999999727,562.0536707435054 492.4098300562481,556.1758182205799 484.3196601124989,550.2979656976544 476.22949016874975,544.4201131747288 473.139320225001,534.9095480117768 476.2294901687513,525.3989828488253 479.3196601125016,515.8884176858738 482.40983005625196,506.37785252292235 490.5000000000021,500.4999999999981 500.50000000000233,500.499999999999 510.50000000000256,500.4999999999998 520.5000000000028,500.5000000000006 528.590169943752,506.37785252292616 531.6803398875007,515.8884176858782 534.7705098312495,525.3989828488302 537.8606797749982,534.9095480117822 534.7705098312479,544.4201131747337 526.6803398874977,550.2979656976579 518.5901699437476,556.1758182205821 510.4999999999974,562.0536707435062 500.49999999999716,562.0536707435054 492.409830056248,556.1758182205799 484.31966011249887,550.2979656976543 476.2294901687497,544.4201131747287" stroke="black" stroke-linecap="round" stroke-width="1" /><polyline clip-path="url(#border_clip)" fill="none" points="476.2294901687497,544.4201131747287 473.1393202250009,534.9095480117768 476.2294901687513,525.3989828488252 479.31966011250165,515.8884176858737 482.409830056252,506.37785252292224 490.50000000000216,500.49999999999807 500.5000000000024,500.4999999999989 510.5000000000026,500.4999999999998 520.5000000000028,500.5000000000006 528.590169943752,506.3778525229262 531.6803398875007,515.8884176858783 534.7705098312495,525.3989828488302 537.8606797749982,534.9095480117822 534.7705098312479,544.4201131747337 526.6803398874977,550.2979656976579 518.5901699437475,556.1758182205821 510.4999999999973,562.0536707435062 500.4999999999971,562.0536707435054 492.4098300562479,556.1758182205798 484.31966011249875,550.2979656976543 476.22949016874963,544.4201131747287 473.1393202250009,534.9095480117767 476.2294901687513,525.3989828488252 479.31966011250165,515.8884176858736 482.409830056252,506.3778525229222 490.5000000000022,500.499999999998 500.50000000000244,500.49999999999886 510.50000000000273,500.4999999999998 520.500000000003,500.5000000000006 528.5901699437521,506.3778525229262 531.6803398875008,515.8884176858783 534.7705098312496,525.3989828488303 537.8606797749983,534.9095480117824 534.7705098312479,544.4201131747338 526.6803398874977,550.297965697658 518.5901699437475,556.1758182205822 510.49999999999727,562.0536707435062 500.499999999997,562.0536707435054 492.40983005624787,556.1758182205798 484.3196601124987,550.2979656976543 476.2294901687496,544.4201131747286 473.13932022500086,534.9095480117766 476.2294901687513,525.3989828488251" stroke="black" stroke-linecap="round" stroke-width="1" /><polyline clip-path="url(#border_clip)" fill="none" points="476.2294901687513,525.3989828488251 479.31966011250165,515.8884176858736 482.4098300562521,506.37785252292207 490.5000000000023,500.4999999999979 500.5000000000025,500.4999999999988 510.5000000000028,500.4999999999997 520.5000000000031,500.5000000000006 528.5901699437521,506.3778525229262 531.6803398875008,515.8884176858783 534.7705098312496,525.3989828488303 537.8606797749983,534.9095480117824 534.7705098312479,544.420113174734 526.6803398874977,550.297965697658 518.5901699437474,556.1758182205822 510.49999999999716,562.0536707435064 500.49999999999693,562.0536707435054 492.40983005624776,556.1758182205798 484.31966011249864,550.2979656976541 476.22949016874946,544.4201131747286 473.1393202250008,534.9095480117765 476.2294901687512,525.398982848825 479.31966011250165,515.8884176858735 482.4098300562521,506.377852522922 490.50000000000233,500.49999999999784 500.5000000000026,500.49999999999875 510.50000000000284,500.4999999999997 520.5000000000031,500.5000000000006 528.5901699437522,506.3778525229263 531.680339887501,515.8884176858784 534.7705098312496,525.3989828488304 537.8606797749983,534.9095480117825 534.7705098312479,544.420113174734 526.6803398874976,550.2979656976581 518.5901699437474,556.1758182205822 510.4999999999971,562.0536707435064 500.4999999999968,562.0536707435054 492.4098300562477,556.1758182205798 484.3196601124986,550.2979656976541 476.2294901687494,544.4201131747285 473.13932022500074,534.9095480117765 476.2294901687512,525.3989828488249 479.31966011250165,515.8884176858734 482.40983005625213,506.3778525229219" stroke="black" stroke-linecap="round" stroke-width="1" /><polyline clip-path="url(#border_clip)" fill="none" points="482.40983005625213,506.3778525229219 490.5000000000024,500.4999999999978 500.5000000000027,500.49999999999875 510.5000000000029,500.4999999999997 520.5000000000032,500.5000000000006 528.5901699437524,506.37785252292633 531.680339887501,515.8884176858784 534.7705098312496,525.3989828488304 537.8606797749983,534.9095480117826 534.7705098312478,544.4201131747341 526.6803398874976,550.2979656976582 518.5901699437472,556.1758182205823 510.49999999999704,562.0536707435065 500.49999999999676,562.0536707435054 492.40983005624764,556.1758182205798 484.31966011249847,550.2979656976541 476.22949016874935,544.4201131747285 473.13932022500074,534.9095480117763 476.2294901687512,525.3989828488249 479.3196601125017,515.8884176858734 482.4098300562522,506.37785252292184 490.50000000000244,500.4999999999977 500.50000000000273,500.4999999999987 510.500000000003,500.4999999999997 520.5000000000033,500.5000000000007 528.5901699437524,506.37785252292633 531.6803398875011,515.8884176858785 534.7705098312497,525.3989828488305 537.8606797749983,534.9095480117827 534.7705098312478,544.4201131747342 526.6803398874976,550.2979656976582 518.5901699437472,556.1758182205824 510.49999999999693,562.0536707435065 500.49999999999665,562.0536707435054 492.40983005624753,556.1758182205798 484.3196601124984,550.297965697654 476.2294901687493,544.4201131747284 473.1393202250007,534.9095480117763 476.22949016875117,525.3989828488247 479.3196601125017,515.8884176858733 482.4098300562522,506.3778525229218 490.5000000000025,500.4999999999977 500.50000000000273,500.4999999999987" stroke="black" stroke-linecap="round" stroke-width="1" /><polyline clip-path="url(#border_clip)" fill="none" points="500.50000000000273,500.4999999999987 510.50000000000307,500.4999999999997 520.5000000000033,500.5000000000007 528.5901699437525,506.3778525229264 531.6803398875011,515.8884176858785 534.7705098312497,525.3989828488307 537.8606797749983,534.9095480117827 534.7705098312478,544.4201131747343 526.6803398874974,550.2979656976584 518.5901699437471,556.1758182205824 510.4999999999969,562.0536707435065 500.4999999999966,562.0536707435056 492.4098300562475,556.1758182205798 484.31966011249835,550.297965697654 476.22949016874924,544.4201131747284 473.13932022500063,534.9095480117762 476.22949016875117,525.3989828488247 479.3196601125017,515.8884176858733 482.40983005625225,506.3778525229217 490.50000000000256,500.4999999999976 500.50000000000284,500.49999999999864 510.5000000000031,500.49999999999966 520.5000000000034,500.5000000000007 528.5901699437525,506.37785252292645 531.6803398875011,515.8884176858786 534.7705098312497,525.3989828488307 537.8606797749983,534.9095480117828 534.7705098312478,544.4201131747343 526.6803398874974,550.2979656976584 518.5901699437471,556.1758182205824 510.4999999999968,562.0536707435066 500.49999999999653,562.0536707435056 492.4098300562474,556.1758182205798 484.3196601124983,550.297965697654 476.2294901687492,544.4201131747283 473.13932022500063,534.9095480117761 476.22949016875117,525.3989828488246 479.3196601125017,515.8884176858732 482.4098300562523,506.37785252292167 490.5000000000026,500.4999999999976 500.5000000000029,500.49999999999864 510.5000000000032,500.49999999999966 520.5000000000035,500.50000000000074" stroke="black" stroke-linecap="round" stroke-width="1" /><polyline clip-path="url(#border_clip)" fill="none" points="520.5000000000035,500.50000000000074 528.5901699437526,506.3778525229265 531.6803398875012,515.8884176858786 534.7705098312498,525.3989828488308 537.8606797749983,534.9095480117829 534.7705098312478,544.4201131747344 526.6803398874974,550.2979656976585 518.590169943747,556.1758182205825 510.49999999999676,562.0536707435066 500.4999999999964,562.0536707435056 492.40983005624736,556.1758182205798 484.31966011249824,550.297965697654 476.2294901687491,544.4201131747283 473.1393202250006,534.9095480117761 476.22949016875117,525.3989828488246 479.31966011250177,515.888417685873 482.4098300562523,506.3778525229216 490.5000000000027,500.49999999999756 500.50000000000296,500.49999999999864 510.5000000000033,500.49999999999966 520.5000000000036,500.50000000000074 528.5901699437527,506.3778525229265 531.6803398875012,515.8884176858787 534.7705098312498,525.3989828488309 537.8606797749983,534.909548011783 534.7705098312478,544.4201131747345 526.6803398874974,550.2979656976586 518.590169943747,556.1758182205825 510.49999999999665,562.0536707435066 500.49999999999636,562.0536707435056 492.4098300562473,556.1758182205797 484.3196601124982,550.2979656976539 476.2294901687491,544.4201131747282 473.1393202250006,534.909548011776 476.22949016875117,525.3989828488245 479.31966011250177,515.888417685873 482.40983005625236,506.37785252292156 490.50000000000273,500.4999999999975 500.50000000000307,500.4999999999986 510.50000000000335,500.49999999999966 520.5000000000036,500.5000000000008 528.5901699437527,506.37785252292656 531.6803398875013,515.8884176858787" stroke="black" stroke-linecap="round" stroke-width="1" /><polyline clip-path="url(#border_clip)" fill="none" points="531.6803398875013,515.8884176858787 534.7705098312498,525.3989828488309 537.8606797749983,534.909548011783 534.7705098312478,544.4201131747345 526.6803398874973,550.2979656976586 518.590169943747,556.1758182205826 510.4999999999966,562.0536707435067 500.4999999999963,562.0536707435056 492.4098300562472,556.1758182205797 484.3196601124981,550.2979656976539 476.22949016874907,544.4201131747282 473.1393202250005,534.909548011776 476.22949016875117,525.3989828488245 479.31966011250177,515.8884176858729 482.4098300562524,506.3778525229215 490.5000000000028,500.49999999999744 500.5000000000031,500.4999999999986 510.5000000000034,500.4999999999997 520.5000000000038,500.5000000000008 528.5901699437528,506.3778525229266 531.6803398875013,515.8884176858788 534.7705098312498,525.398982848831 537.8606797749983,534.9095480117832 534.7705098312478,544.4201131747346 526.6803398874973,550.2979656976587 518.5901699437469,556.1758182205826 510.49999999999653,562.0536707435067 500.4999999999962,562.0536707435056 492.40983005624713,556.1758182205797 484.31966011249807,550.2979656976539 476.229490168749,544.420113174728 473.1393202250005,534.9095480117759 476.22949016875117,525.3989828488244 479.3196601125018,515.8884176858729 482.4098300562525,506.3778525229214 490.50000000000284,500.4999999999974 500.5000000000032,500.4999999999985 510.5000000000035,500.49999999999966 520.5000000000039,500.5000000000008 528.5901699437529,506.3778525229267 531.6803398875014,515.8884176858788 534.7705098312499,525.398982848831 537.8606797749984,534.9095480117833" stroke="black" stroke-linecap="round" stroke-width="1" /><polyline clip-path="url(#border_clip)" fill="none" points="537.8606797749984,534.9095480117833 534.7705098312476,544.4201131747348 526.6803398874973,550.2979656976587 518.5901699437469,556.1758182205828 510.4999999999965,562.0536707435067 500.49999999999613,562.0536707435056 492.4098300562471,556.1758182205797 484.319660112498,550.2979656976538 476.22949016874895,544.420113174728 473.13932022500046,534.9095480117758 476.22949016875117,525.3989828488243 479.3196601125018,515.8884176858728 482.40983005625253,506.37785252292133 490.50000000000296,500.4999999999974 500.50000000000324,500.4999999999985 510.5000000000036,500.4999999999997 520.5000000000039,500.50000000000085 528.5901699437529,506.37785252292673 531.6803398875014,515.888417685879 534.7705098312499,525.3989828488311 537.8606797749983,534.9095480117833 534.7705098312476,544.4201131747349 526.6803398874972,550.2979656976588 518.5901699437468,556.1758182205828 510.49999999999636,562.0536707435067 500.4999999999961,562.0536707435056 492.409830056247,556.1758182205797 484.31966011249796,550.2979656976538 476.2294901687489,544.4201131747279 473.13932022500046,534.9095480117758 476.22949016875117,525.3989828488243 479.3196601125018,515.8884176858728 482.40983005625253,506.3778525229213 490.50000000000296,500.4999999999973 500.5000000000033,500.49999999999847 510.50000000000364,500.49999999999966 520.500000000004,500.50000000000085 528.590169943753,506.37785252292673 531.6803398875014,515.888417685879 534.7705098312499,525.3989828488311 537.8606797749983,534.9095480117834 534.7705098312476,544.4201131747349 526.6803398874972,550.2979656976588" stroke="black" stroke-linecap="round" stroke-width="1" /><polyline clip-path="url(#border_clip)" fill="none" points="526.6803398874972,550.2979656976588 518.5901699437468,556.1758182205828 510.4999999999963,562.0536707435067 500.49999999999596,562.0536707435056 492.4098300562469,556.1758182205797 484.3196601124979,550.2979656976538 476.22949016874884,544.4201131747279 473.1393202250004,534.9095480117757 476.2294901687511,525.3989828488242 479.3196601125018,515.8884176858727 482.40983005625253,506.3778525229212 490.500000000003,500.4999999999972 500.50000000000335,500.49999999999847 510.5000000000037,500.49999999999966 520.500000000004,500.50000000000085 528.590169943753,506.3778525229268 531.6803398875015,515.888417685879 534.7705098312499,525.3989828488312 537.8606797749983,534.9095480117835 534.7705098312476,544.420113174735 526.6803398874971,550.2979656976589 518.5901699437467,556.1758182205829 510.49999999999625,562.0536707435068 500.4999999999959,562.0536707435056 492.40983005624685,556.1758182205797 484.3196601124978,550.2979656976537 476.2294901687488,544.4201131747278 473.13932022500035,534.9095480117755 476.2294901687511,525.3989828488241 479.3196601125019,515.8884176858726 482.4098300562526,506.3778525229211 490.50000000000307,500.49999999999716 500.5000000000034,500.4999999999984 510.50000000000375,500.4999999999996 520.5000000000041,500.50000000000085 528.5901699437532,506.3778525229268 531.6803398875015,515.8884176858791 534.7705098312499,525.3989828488313 537.8606797749984,534.9095480117835 534.7705098312476,544.420113174735 526.6803398874971,550.2979656976589 518.5901699437467,556.1758182205829 510.49999999999613,562.0536707435068" stroke="black" stroke-linecap="round" stroke-width="1" /><polyline clip-path="url(#border_clip)" fill="none" points="510.49999999999613,562.0536707435068 500.4999999999958,562.0536707435056 492.4098300562468,556.1758182205796 484.3196601124978,550.2979656976537 476.2294901687487,544.4201131747277 473.13932022500035,534.9095480117755 476.2294901687511,525.398982848824 479.3196601125019,515.8884176858725 482.40983005625264,506.37785252292105 490.5000000000031,500.4999999999971 500.5000000000035,500.49999999999835 510.50000000000387,500.4999999999996 520.5000000000042,500.50000000000085 528.5901699437533,506.37785252292684 531.6803398875016,515.8884176858791 534.77050983125,525.3989828488313 537.8606797749984,534.9095480117836 534.7705098312476,544.4201131747351 526.6803398874971,550.297965697659 518.5901699437466,556.1758182205829 510.4999999999961,562.0536707435068 500.49999999999574,562.0536707435056 492.40983005624673,556.1758182205796 484.3196601124977,550.2979656976537 476.22949016874867,544.4201131747277 473.1393202250003,534.9095480117754 476.2294901687511,525.398982848824 479.3196601125019,515.8884176858725 482.4098300562527,506.377852522921 490.5000000000032,500.49999999999704 500.5000000000035,500.49999999999835 510.5000000000039,500.4999999999996 520.5000000000043,500.50000000000085 528.5901699437533,506.37785252292684 531.6803398875016,515.8884176858792 534.77050983125,525.3989828488315 537.8606797749984,534.9095480117837 534.7705098312476,544.4201131747352 526.6803398874971,550.297965697659 518.5901699437466,556.175818220583 510.499999999996,562.0536707435069 500.4999999999957,562.0536707435056 492.4098300562466,556.1758182205796" stroke="black" stroke-linecap="round" stroke-width="1" /><polyline clip-path="url(#border_clip)" fill="none" points="492.4098300562466,556.1758182205796 484.3196601124976,550.2979656976536 476.2294901687486,544.4201131747276 473.13932022500023,534.9095480117753 476.22949016875106,525.3989828488238 479.3196601125019,515.8884176858724 482.4098300562527,506.3778525229209 490.50000000000324,500.499999999997 500.50000000000364,500.4999999999983 510.500000000004,500.4999999999996 520.5000000000043,500.5000000000009 528.5901699437534,506.3778525229269 531.6803398875018,515.8884176858792 534.77050983125,525.3989828488315 537.8606797749984,534.9095480117837 534.7705098312476,544.4201131747352 526.680339887497,550.2979656976592 518.5901699437464,556.175818220583 510.49999999999596,562.0536707435069 500.49999999999557,562.0536707435056 492.40983005624656,556.1758182205796 484.31966011249756,550.2979656976536 476.22949016874855,544.4201131747276 473.13932022500023,534.9095480117753 476.22949016875106,525.3989828488237 479.3196601125019,515.8884176858722 482.40983005625276,506.3778525229208 490.5000000000033,500.49999999999693 500.5000000000037,500.49999999999824 510.50000000000404,500.49999999999955 520.5000000000044,500.5000000000009 528.5901699437534,506.3778525229269 531.6803398875018,515.8884176858792 534.7705098312501,525.3989828488316 537.8606797749984,534.9095480117838 534.7705098312475,544.4201131747353 526.680339887497,550.2979656976592 518.5901699437464,556.1758182205831 510.49999999999585,562.0536707435069 500.4999999999955,562.0536707435056 492.4098300562465,556.1758182205796 484.3196601124975,550.2979656976536 476.2294901687485,544.4201131747275" stroke="black" stroke-linecap="round" stroke-width="1" /><polyline clip-path="url(#border_clip)" fill="none" points="476.2294901687485,544.4201131747275 473.1393202250002,534.9095480117752 476.22949016875106,525.3989828488237 479.31966011250194,515.8884176858722 482.40983005625276,506.3778525229207 490.50000000000335,500.4999999999969 500.50000000000375,500.4999999999982 510.50000000000415,500.49999999999955 520.5000000000045,500.5000000000009 528.5901699437535,506.37785252292696 531.6803398875018,515.8884176858793 534.7705098312501,525.3989828488316 537.8606797749984,534.909548011784 534.7705098312475,544.4201131747354 526.680339887497,550.2979656976593 518.5901699437463,556.1758182205831 510.4999999999958,562.0536707435069 500.4999999999954,562.0536707435056 492.4098300562464,556.1758182205796 484.31966011249744,550.2979656976535 476.22949016874844,544.4201131747275 473.1393202250001,534.9095480117751 476.22949016875106,525.3989828488236 479.31966011250194,515.8884176858721 482.4098300562528,506.37785252292065 490.5000000000034,500.4999999999968 500.5000000000038,500.4999999999982 510.5000000000042,500.49999999999955 520.5000000000045,500.5000000000009 528.5901699437536,506.37785252292696 531.6803398875019,515.8884176858793 534.7705098312501,525.3989828488317 537.8606797749984,534.909548011784 534.7705098312475,544.4201131747354 526.6803398874969,550.2979656976593 518.5901699437463,556.1758182205831 510.49999999999574,562.053670743507 500.49999999999534,562.0536707435056 492.40983005624634,556.1758182205796 484.31966011249733,550.2979656976535 476.2294901687484,544.4201131747274 473.1393202250001,534.909548011775 476.229490168751,525.3989828488235" stroke="black" stroke-linecap="round" stroke-width="1" /><polyline clip-path="url(#border_clip)" fill="none" points="476.229490168751,525.3989828488235 479.31966011250194,515.888417685872 482.4098300562529,506.3778525229206 490.50000000000347,500.49999999999676 500.50000000000387,500.4999999999981 510.50000000000426,500.49999999999955 520.5000000000047,500.5000000000009 528.5901699437536,506.377852522927 531.6803398875019,515.8884176858794 534.7705098312501,525.3989828488317 537.8606797749984,534.9095480117841 534.7705098312475,544.4201131747355 526.6803398874969,550.2979656976594 518.5901699437462,556.1758182205832 510.4999999999956,562.053670743507 500.4999999999952,562.0536707435057 492.4098300562463,556.1758182205796 484.3196601124973,550.2979656976535 476.2294901687483,544.4201131747274 473.13932022500006,534.909548011775 476.229490168751,525.3989828488235 479.31966011250194,515.888417685872 482.4098300562529,506.37785252292053 490.5000000000035,500.4999999999967 500.5000000000039,500.4999999999981 510.5000000000043,500.49999999999955 520.5000000000048,500.50000000000097 528.5901699437537,506.37785252292707 531.680339887502,515.8884176858794 534.7705098312503,525.3989828488318 537.8606797749984,534.9095480117842 534.7705098312475,544.4201131747357 526.6803398874969,550.2979656976595 518.5901699437462,556.1758182205833 510.49999999999557,562.053670743507 500.49999999999517,562.0536707435057 492.40983005624616,556.1758182205796 484.3196601124972,550.2979656976534 476.22949016874827,544.4201131747272 473.139320225,534.9095480117749 476.229490168751,525.3989828488234 479.31966011250194,515.8884176858719 482.40983005625293,506.3778525229205" stroke="black" stroke-linecap="round" stroke-width="1" /><polyline clip-path="url(#border_clip)" fill="none" points="482.40983005625293,506.3778525229205 490.5000000000036,500.49999999999665 500.500000000004,500.49999999999807 510.50000000000443,500.49999999999955 520.5000000000048,500.50000000000097 528.5901699437538,506.3778525229271 531.680339887502,515.8884176858795 534.7705098312503,525.3989828488319 537.8606797749985,534.9095480117842 534.7705098312475,544.4201131747357 526.6803398874969,550.2979656976595 518.5901699437461,556.1758182205833 510.4999999999955,562.0536707435072 500.49999999999505,562.0536707435057 492.4098300562461,556.1758182205796 484.31966011249716,550.2979656976534 476.2294901687482,544.4201131747272 473.139320225,534.9095480117749 476.229490168751,525.3989828488234 479.319660112502,515.8884176858719 482.409830056253,506.37785252292036 490.50000000000364,500.4999999999966 500.50000000000404,500.49999999999807 510.5000000000045,500.4999999999995 520.5000000000049,500.50000000000097 528.5901699437538,506.3778525229271 531.6803398875021,515.8884176858795 534.7705098312503,525.3989828488319 537.8606797749985,534.9095480117843 534.7705098312475,544.4201131747358 526.6803398874968,550.2979656976596 518.5901699437461,556.1758182205833 510.49999999999545,562.0536707435072 500.499999999995,562.0536707435057 492.40983005624605,556.1758182205795 484.3196601124971,550.2979656976534 476.22949016874816,544.4201131747271 473.13932022499995,534.9095480117747 476.229490168751,525.3989828488233 479.319660112502,515.8884176858718 482.409830056253,506.3778525229203 490.5000000000037,500.49999999999653 500.50000000000415,500.499999999998" stroke="black" stroke-linecap="round" stroke-width="1" /><polyline clip-path="url(#border_clip)" fill="none" points="500.50000000000415,500.499999999998 510.50000000000455,500.49999999999955 520.500000000005,500.500000000001 528.590169943754,506.3778525229272 531.6803398875021,515.8884176858796 534.7705098312504,525.398982848832 537.8606797749985,534.9095480117844 534.7705098312474,544.4201131747359 526.6803398874968,550.2979656976597 518.5901699437461,556.1758182205834 510.49999999999534,562.0536707435072 500.49999999999494,562.0536707435057 492.409830056246,556.1758182205795 484.31966011249705,550.2979656976534 476.2294901687481,544.4201131747271 473.13932022499995,534.9095480117747 476.229490168751,525.3989828488233 479.319660112502,515.8884176858718 482.40983005625304,506.37785252292025 490.50000000000375,500.49999999999653 500.5000000000042,500.499999999998 510.5000000000046,500.49999999999955 520.500000000005,500.500000000001 528.590169943754,506.37785252292724 531.6803398875022,515.8884176858796 534.7705098312504,525.3989828488321 537.8606797749985,534.9095480117845 534.7705098312474,544.420113174736 526.6803398874968,550.2979656976597 518.590169943746,556.1758182205834 510.4999999999953,562.0536707435073 500.4999999999948,562.0536707435057 492.40983005624594,556.1758182205795 484.319660112497,550.2979656976532 476.22949016874804,544.420113174727 473.1393202249999,534.9095480117746 476.22949016875094,525.3989828488232 479.31966011250205,515.8884176858717 482.4098300562531,506.3778525229202 490.5000000000038,500.4999999999964 500.50000000000426,500.49999999999795 510.5000000000047,500.4999999999995 520.5000000000051,500.500000000001" stroke="black" stroke-linecap="round" stroke-width="1" /><polyline clip-path="url(#border_clip)" fill="none" points="520.5000000000051,500.500000000001 528.5901699437541,506.3778525229273 531.6803398875022,515.8884176858797 534.7705098312504,525.3989828488321 537.8606797749985,534.9095480117846 534.7705098312474,544.4201131747361 526.6803398874966,550.2979656976598 518.590169943746,556.1758182205836 510.4999999999952,562.0536707435073 500.49999999999477,562.0536707435057 492.4098300562458,556.1758182205795 484.31966011249693,550.2979656976532 476.229490168748,544.420113174727 473.13932022499984,534.9095480117745 476.22949016875094,525.398982848823 479.31966011250205,515.8884176858716 482.40983005625316,506.3778525229201 490.50000000000387,500.49999999999636 500.5000000000043,500.49999999999795 510.5000000000048,500.4999999999995 520.5000000000052,500.5000000000011 528.5901699437542,506.3778525229273 531.6803398875022,515.8884176858797 534.7705098312504,525.3989828488322 537.8606797749985,534.9095480117846 534.7705098312474,544.4201131747361 526.6803398874966,550.2979656976598 518.5901699437459,556.1758182205836 510.4999999999951,562.0536707435073 500.49999999999466,562.0536707435058 492.40983005624577,556.1758182205795 484.3196601124968,550.2979656976532 476.22949016874793,544.4201131747269 473.1393202249998,534.9095480117744 476.22949016875094,525.3989828488229 479.31966011250205,515.8884176858714 482.40983005625316,506.37785252292 490.5000000000039,500.4999999999963 500.5000000000044,500.4999999999979 510.50000000000483,500.4999999999995 520.5000000000053,500.5000000000011 528.5901699437542,506.37785252292736 531.6803398875023,515.8884176858799" stroke="black" stroke-linecap="round" stroke-width="1" /><polyline clip-path="url(#border_clip)" fill="none" points="531.6803398875023,515.8884176858799 534.7705098312504,525.3989828488322 537.8606797749985,534.9095480117848 534.7705098312474,544.4201131747362 526.6803398874966,550.29796569766 518.5901699437459,556.1758182205837 510.49999999999505,562.0536707435074 500.4999999999946,562.0536707435058 492.40983005624565,556.1758182205795 484.31966011249676,550.2979656976531 476.2294901687479,544.4201131747268 473.1393202249998,534.9095480117744 476.2294901687509,525.3989828488229 479.31966011250205,515.8884176858714 482.4098300562532,506.37785252291997 490.500000000004,500.49999999999625 500.50000000000443,500.49999999999784 510.5000000000049,500.4999999999995 520.5000000000053,500.5000000000011 528.5901699437543,506.37785252292736 531.6803398875023,515.8884176858799 534.7705098312505,525.3989828488324 537.8606797749985,534.9095480117848 534.7705098312474,544.4201131747362 526.6803398874965,550.29796569766 518.5901699437458,556.1758182205837 510.49999999999494,562.0536707435074 500.4999999999945,562.0536707435058 492.4098300562456,556.1758182205795 484.3196601124967,550.2979656976531 476.2294901687478,544.4201131747268 473.1393202249997,534.9095480117743 476.2294901687509,525.3989828488228 479.3196601125021,515.8884176858713 482.40983005625327,506.37785252291985 490.50000000000404,500.4999999999962 500.50000000000455,500.49999999999784 510.500000000005,500.49999999999943 520.5000000000055,500.5000000000011 528.5901699437543,506.3778525229274 531.6803398875024,515.8884176858799 534.7705098312505,525.3989828488324 537.8606797749985,534.9095480117849" stroke="black" stroke-linecap="round" stroke-width="1" /><polyline clip-path="url(#border_clip)" fill="none" points="537.8606797749985,534.9095480117849 534.7705098312474,544.4201131747363 526.6803398874965,550.2979656976601 518.5901699437458,556.1758182205837 510.4999999999949,562.0536707435074 500.49999999999443,562.0536707435058 492.40983005624554,556.1758182205795 484.31966011249665,550.2979656976531 476.22949016874776,544.4201131747267 473.1393202249997,534.9095480117742 476.2294901687509,525.3989828488228 479.3196601125021,515.8884176858713 482.40983005625327,506.3778525229198 490.5000000000041,500.49999999999613 500.50000000000455,500.4999999999978 510.50000000000506,500.49999999999943 520.5000000000056,500.5000000000011 528.5901699437544,506.3778525229274 531.6803398875024,515.88841768588 534.7705098312505,525.3989828488325 537.8606797749985,534.909548011785 534.7705098312473,544.4201131747365 526.6803398874965,550.2979656976601 518.5901699437457,556.1758182205838 510.4999999999948,562.0536707435074 500.4999999999944,562.0536707435058 492.4098300562455,556.1758182205793 484.3196601124966,550.297965697653 476.2294901687477,544.4201131747267 473.13932022499966,534.9095480117742 476.2294901687509,525.3989828488227 479.3196601125021,515.8884176858712 482.4098300562533,506.37785252291974 490.50000000000415,500.4999999999961 500.5000000000046,500.4999999999977 510.5000000000051,500.49999999999943 520.5000000000056,500.5000000000011 528.5901699437545,506.37785252292747 531.6803398875024,515.88841768588 534.7705098312505,525.3989828488325 537.8606797749985,534.909548011785 534.7705098312473,544.4201131747365 526.6803398874964,550.2979656976602" stroke="black" stroke-linecap="round" stroke-width="1" /><polyline clip-path="url(#border_clip)" fill="none" points="526.6803398874964,550.2979656976602 518.5901699437457,556.1758182205838 510.49999999999477,562.0536707435075 500.49999999999426,562.0536707435058 492.4098300562454,556.1758182205793 484.31966011249654,550.297965697653 476.22949016874765,544.4201131747266 473.13932022499966,534.9095480117741 476.2294901687509,525.3989828488226 479.3196601125021,515.8884176858711 482.4098300562533,506.3778525229197 490.5000000000042,500.499999999996 500.5000000000047,500.4999999999977 510.5000000000052,500.49999999999943 520.5000000000057,500.50000000000114 528.5901699437545,506.3778525229275 531.6803398875026,515.8884176858801 534.7705098312506,525.3989828488326 537.8606797749985,534.9095480117851 534.7705098312473,544.4201131747366 526.6803398874964,550.2979656976602 518.5901699437455,556.1758182205839 510.49999999999466,562.0536707435075 500.4999999999942,562.0536707435058 492.4098300562453,556.1758182205793 484.3196601124965,550.297965697653 476.2294901687476,544.4201131747266 473.1393202249996,534.9095480117741 476.2294901687509,525.3989828488226 479.3196601125021,515.8884176858711 482.4098300562534,506.3778525229196 490.50000000000426,500.49999999999596 500.5000000000048,500.4999999999977 510.50000000000523,500.49999999999943 520.5000000000058,500.50000000000114 528.5901699437546,506.3778525229276 531.6803398875026,515.8884176858801 534.7705098312506,525.3989828488326 537.8606797749985,534.9095480117852 534.7705098312473,544.4201131747367 526.6803398874964,550.2979656976603 518.5901699437455,556.1758182205839 510.4999999999946,562.0536707435075" stroke="black" stroke-linecap="round" stroke-width="1" /><polyline clip-path="url(#border_clip)" fill="none" points="510.4999999999946,562.0536707435075 500.49999999999415,562.0536707435058 492.40983005624526,556.1758182205793 484.3196601124964,550.2979656976529 476.22949016874753,544.4201131747266 473.13932022499955,534.909548011774 476.22949016875083,525.3989828488225 479.3196601125021,515.888417685871 482.40983005625344,506.37785252291957 490.5000000000043,500.49999999999596 500.50000000000483,500.49999999999767 510.5000000000053,500.49999999999943 520.5000000000058,500.50000000000114 528.5901699437546,506.3778525229276 531.6803398875027,515.8884176858802 534.7705098312506,525.3989828488327 537.8606797749985,534.9095480117852 534.7705098312473,544.4201131747367 526.6803398874963,550.2979656976603 518.5901699437454,556.1758182205839 510.49999999999454,562.0536707435075 500.49999999999403,562.0536707435058 492.4098300562452,556.1758182205793 484.31966011249636,550.2979656976529 476.2294901687475,544.4201131747265 473.13932022499955,534.909548011774 476.22949016875083,525.3989828488225 479.31966011250216,515.888417685871 482.40983005625344,506.3778525229195 490.5000000000044,500.4999999999959 500.5000000000049,500.49999999999767 510.5000000000054,500.49999999999943 520.5000000000059,500.5000000000012 528.5901699437547,506.37785252292764 531.6803398875027,515.8884176858802 534.7705098312506,525.3989828488327 537.8606797749985,534.9095480117853 534.7705098312472,544.4201131747368 526.6803398874963,550.2979656976604 518.5901699437454,556.175818220584 510.4999999999945,562.0536707435076 500.499999999994,562.0536707435058 492.40983005624514,556.1758182205793" stroke="black" stroke-linecap="round" stroke-width="1" /><polyline clip-path="url(#border_clip)" fill="none" points="492.40983005624514,556.1758182205793 484.3196601124963,550.2979656976529 476.2294901687475,544.4201131747263 473.1393202249995,534.9095480117738 476.22949016875083,525.3989828488224 479.31966011250216,515.8884176858709 482.4098300562535,506.3778525229194 490.50000000000443,500.49999999999585 500.50000000000495,500.4999999999976 510.50000000000546,500.49999999999943 520.5000000000059,500.5000000000012 528.5901699437547,506.3778525229277 531.6803398875027,515.8884176858803 534.7705098312506,525.3989828488328 537.8606797749985,534.9095480117854 534.7705098312472,544.4201131747369 526.6803398874963,550.2979656976604 518.5901699437453,556.175818220584 510.4999999999944,562.0536707435076 500.49999999999386,562.0536707435058 492.4098300562451,556.1758182205793 484.31966011249625,550.2979656976528 476.2294901687474,544.4201131747263 473.1393202249995,534.9095480117737 476.22949016875083,525.3989828488222 479.3196601125022,515.8884176858709 482.40983005625355,506.3778525229194 490.50000000000455,500.4999999999958 500.50000000000506,500.4999999999976 510.50000000000557,500.49999999999943 520.500000000006,500.50000000000125 528.5901699437549,506.37785252292775 531.6803398875028,515.8884176858803 534.7705098312507,525.3989828488329 537.8606797749986,534.9095480117855 534.7705098312472,544.420113174737 526.6803398874963,550.2979656976605 518.5901699437453,556.1758182205841 510.4999999999943,562.0536707435076 500.4999999999938,562.0536707435058 492.40983005624497,556.1758182205793 484.3196601124962,550.2979656976528 476.22949016874736,544.4201131747263" stroke="black" stroke-linecap="round" stroke-width="1" /><polyline clip-path="url(#border_clip)" fill="none" points="476.22949016874736,544.4201131747263 473.13932022499944,534.9095480117737 476.22949016875083,525.3989828488222 479.3196601125022,515.8884176858708 482.4098300562536,506.3778525229193 490.5000000000046,500.49999999999574 500.5000000000051,500.4999999999976 510.5000000000056,500.49999999999943 520.5000000000061,500.50000000000125 528.590169943755,506.3778525229278 531.6803398875028,515.8884176858804 534.7705098312507,525.398982848833 537.8606797749986,534.9095480117857 534.7705098312472,544.420113174737 526.6803398874962,550.2979656976606 518.5901699437452,556.1758182205841 510.49999999999426,562.0536707435077 500.4999999999937,562.0536707435058 492.4098300562449,556.1758182205793 484.3196601124961,550.2979656976528 476.2294901687473,544.4201131747262 473.13932022499944,534.9095480117736 476.22949016875083,525.3989828488221 479.3196601125022,515.8884176858706 482.4098300562536,506.3778525229192 490.5000000000046,500.4999999999957 500.5000000000052,500.49999999999756 510.5000000000057,500.49999999999943 520.5000000000063,500.5000000000013 528.590169943755,506.3778525229278 531.6803398875029,515.8884176858804 534.7705098312507,525.398982848833 537.8606797749986,534.9095480117857 534.7705098312472,544.4201131747371 526.6803398874962,550.2979656976606 518.5901699437452,556.1758182205842 510.49999999999415,562.0536707435077 500.49999999999363,562.0536707435058 492.40983005624486,556.1758182205792 484.319660112496,550.2979656976527 476.22949016874725,544.4201131747261 473.1393202249994,534.9095480117735 476.22949016875083,525.3989828488221" stroke="black" stroke-linecap="round" stroke-width="1" /><polyline clip-path="url(#border_clip)" fill="none" points="476.22949016875083,525.3989828488221 479.3196601125023,515.8884176858706 482.40983005625367,506.37785252291917 490.5000000000047,500.4999999999957 500.50000000000523,500.49999999999756 510.50000000000574,500.49999999999943 520.5000000000063,500.5000000000013 528.5901699437551,506.37785252292787 531.6803398875029,515.8884176858805 534.7705098312508,525.3989828488332 537.8606797749986,534.9095480117858 534.7705098312472,544.4201131747373 526.6803398874962,550.2979656976607 518.5901699437451,556.1758182205842 510.4999999999941,562.0536707435077 500.4999999999936,562.0536707435059 492.4098300562448,556.1758182205792 484.31966011249597,550.2979656976527 476.2294901687472,544.4201131747261 473.1393202249994,534.9095480117735 476.22949016875083,525.398982848822 479.3196601125023,515.8884176858705 482.4098300562537,506.3778525229191 490.5000000000048,500.49999999999557 500.5000000000053,500.4999999999975 510.50000000000585,500.49999999999943 520.5000000000064,500.5000000000013 528.5901699437552,506.3778525229279 531.680339887503,515.8884176858805 534.7705098312508,525.3989828488332 537.8606797749986,534.9095480117859 534.7705098312472,544.4201131747373 526.6803398874961,550.2979656976609 518.5901699437451,556.1758182205843 510.49999999999403,562.0536707435078 500.4999999999935,562.0536707435059 492.4098300562447,556.1758182205792 484.3196601124959,550.2979656976527 476.22949016874713,544.4201131747261 473.1393202249993,534.9095480117734 476.2294901687508,525.3989828488219 479.3196601125023,515.8884176858705 482.4098300562538,506.377852522919" stroke="black" stroke-linecap="round" stroke-width="1" /><polyline clip-path="url(#border_clip)" fill="none" points="482.4098300562538,506.377852522919 490.50000000000483,500.4999999999955 500.50000000000534,500.49999999999744 510.5000000000059,500.4999999999994 520.5000000000065,500.5000000000013 528.5901699437552,506.3778525229279 531.680339887503,515.8884176858805 534.7705098312508,525.3989828488333 537.8606797749986,534.9095480117859 534.7705098312472,544.4201131747374 526.6803398874961,550.2979656976609 518.5901699437451,556.1758182205843 510.499999999994,562.0536707435078 500.4999999999934,562.0536707435059 492.40983005624463,556.1758182205792 484.31966011249585,550.2979656976527 476.2294901687471,544.420113174726 473.1393202249993,534.9095480117734 476.2294901687508,525.3989828488219 479.3196601125023,515.8884176858704 482.4098300562538,506.37785252291894 490.5000000000049,500.4999999999955 500.5000000000054,500.49999999999744 510.50000000000597,500.4999999999994 520.5000000000065,500.50000000000136 528.5901699437553,506.377852522928 531.6803398875031,515.8884176858807 534.7705098312508,525.3989828488334 537.8606797749986,534.909548011786 534.7705098312472,544.4201131747375 526.6803398874961,550.297965697661 518.590169943745,556.1758182205843 510.49999999999386,562.0536707435078 500.49999999999335,562.0536707435059 492.4098300562446,556.1758182205792 484.3196601124958,550.2979656976526 476.229490168747,544.4201131747259 473.13932022499927,534.9095480117733 476.2294901687508,525.3989828488218 479.31966011250233,515.8884176858703 482.40983005625384,506.3778525229189 490.50000000000495,500.49999999999545 500.50000000000546,500.49999999999744" stroke="black" stroke-linecap="round" stroke-width="1" /><polyline clip-path="url(#border_clip)" fill="none" points="500.50000000000546,500.49999999999744 510.500000000006,500.49999999999943 520.5000000000066,500.50000000000136 528.5901699437553,506.37785252292804 531.6803398875031,515.8884176858808 534.7705098312509,525.3989828488334 537.8606797749986,534.9095480117861 534.7705098312471,544.4201131747376 526.680339887496,550.297965697661 518.5901699437449,556.1758182205845 510.4999999999938,562.053670743508 500.49999999999324,562.0536707435059 492.40983005624446,556.1758182205792 484.31966011249574,550.2979656976526 476.22949016874696,544.4201131747259 473.1393202249992,534.9095480117733 476.2294901687508,525.3989828488218 479.31966011250233,515.8884176858703 482.4098300562539,506.37785252291883 490.500000000005,500.4999999999954 500.50000000000557,500.4999999999974 510.5000000000061,500.49999999999943 520.5000000000067,500.5000000000014 528.5901699437554,506.3778525229281 531.6803398875031,515.8884176858808 534.7705098312509,525.3989828488335 537.8606797749986,534.9095480117862 534.7705098312471,544.4201131747376 526.680339887496,550.2979656976611 518.5901699437449,556.1758182205845 510.49999999999375,562.053670743508 500.4999999999932,562.0536707435059 492.4098300562444,556.1758182205792 484.3196601124957,550.2979656976526 476.2294901687469,544.4201131747259 473.1393202249992,534.9095480117732 476.2294901687508,525.3989828488217 479.31966011250233,515.8884176858702 482.4098300562539,506.3778525229188 490.50000000000506,500.49999999999534 500.5000000000056,500.4999999999974 510.5000000000062,500.49999999999943 520.5000000000067,500.5000000000014" stroke="black" stroke-linecap="round" stroke-width="1" /><polyline clip-path="url(#border_clip)" fill="none" points="520.5000000000067,500.5000000000014 528.5901699437555,506.37785252292815 531.6803398875032,515.8884176858809 534.7705098312509,525.3989828488336 537.8606797749986,534.9095480117862 534.7705098312471,544.4201131747377 526.680339887496,550.2979656976611 518.5901699437447,556.1758182205846 510.4999999999937,562.053670743508 500.49999999999307,562.0536707435059 492.40983005624435,556.1758182205792 484.3196601124956,550.2979656976524 476.22949016874685,544.4201131747258 473.13932022499915,534.909548011773 476.2294901687508,525.3989828488216 479.31966011250233,515.8884176858702 482.40983005625395,506.3778525229187 490.5000000000051,500.4999999999953 500.5000000000057,500.4999999999973 510.50000000000625,500.4999999999994 520.5000000000068,500.5000000000015 528.5901699437555,506.3778525229282 531.6803398875032,515.8884176858809 534.7705098312509,525.3989828488336 537.8606797749986,534.9095480117863 534.7705098312471,544.4201131747378 526.6803398874958,550.2979656976612 518.5901699437447,556.1758182205846 510.4999999999936,562.0536707435081 500.499999999993,562.053670743506 492.4098300562443,556.1758182205792 484.3196601124955,550.2979656976524 476.2294901687468,544.4201131747258 473.1393202249991,534.909548011773 476.2294901687507,525.3989828488216 479.31966011250233,515.8884176858701 482.40983005625395,506.37785252291866 490.5000000000051,500.4999999999952 500.50000000000574,500.4999999999973 510.5000000000063,500.4999999999994 520.5000000000069,500.5000000000015 528.5901699437557,506.3778525229282 531.6803398875034,515.888417685881" stroke="black" stroke-linecap="round" stroke-width="1" /><polyline clip-path="url(#border_clip)" fill="none" points="531.6803398875034,515.888417685881 534.7705098312509,525.3989828488337 537.8606797749986,534.9095480117865 534.7705098312471,544.4201131747379 526.6803398874958,550.2979656976613 518.5901699437446,556.1758182205847 510.4999999999935,562.0536707435081 500.4999999999929,562.053670743506 492.4098300562442,556.1758182205792 484.31966011249546,550.2979656976524 476.22949016874674,544.4201131747257 473.1393202249991,534.9095480117729 476.2294901687507,525.3989828488214 479.3196601125024,515.8884176858701 482.409830056254,506.3778525229186 490.50000000000523,500.4999999999952 500.5000000000058,500.49999999999727 510.50000000000637,500.4999999999994 520.5000000000069,500.5000000000015 528.5901699437557,506.37785252292826 531.6803398875034,515.888417685881 534.770509831251,525.3989828488337 537.8606797749986,534.9095480117865 534.7705098312471,544.4201131747379 526.6803398874958,550.2979656976613 518.5901699437446,556.1758182205847 510.49999999999346,562.0536707435081 500.49999999999284,562.053670743506 492.4098300562441,556.1758182205792 484.3196601124954,550.2979656976524 476.2294901687467,544.4201131747257 473.13932022499904,534.9095480117728 476.2294901687507,525.3989828488214 479.3196601125024,515.88841768587 482.40983005625407,506.37785252291854 490.50000000000523,500.49999999999517 500.50000000000585,500.49999999999727 510.5000000000064,500.4999999999994 520.500000000007,500.50000000000153 528.5901699437558,506.3778525229283 531.6803398875034,515.8884176858811 534.770509831251,525.3989828488338 537.8606797749986,534.9095480117866" stroke="black" stroke-linecap="round" stroke-width="1" /><polyline clip-path="url(#border_clip)" fill="none" points="537.8606797749986,534.9095480117866 534.770509831247,544.420113174738 526.6803398874957,550.2979656976614 518.5901699437445,556.1758182205848 510.49999999999335,562.0536707435081 500.4999999999927,562.053670743506 492.40983005624406,556.1758182205792 484.31966011249534,550.2979656976523 476.2294901687466,544.4201131747255 473.139320224999,534.9095480117728 476.2294901687507,525.3989828488213 479.3196601125024,515.8884176858699 482.40983005625407,506.3778525229185 490.5000000000053,500.4999999999951 500.5000000000059,500.49999999999727 510.5000000000065,500.4999999999994 520.5000000000072,500.50000000000153 528.5901699437558,506.3778525229284 531.6803398875035,515.8884176858811 534.770509831251,525.398982848834 537.8606797749986,534.9095480117867 534.770509831247,544.4201131747382 526.6803398874957,550.2979656976614 518.5901699437445,556.1758182205848 510.4999999999933,562.0536707435082 500.49999999999267,562.053670743506 492.40983005624395,556.1758182205792 484.3196601124953,550.2979656976523 476.22949016874657,544.4201131747255 473.139320224999,534.9095480117727 476.22949016875066,525.3989828488213 479.3196601125024,515.8884176858699 482.4098300562541,506.37785252291843 490.50000000000534,500.49999999999505 500.50000000000597,500.4999999999972 510.5000000000066,500.4999999999994 520.5000000000072,500.50000000000153 528.5901699437559,506.3778525229284 531.6803398875035,515.8884176858812 534.770509831251,525.398982848834 537.8606797749986,534.9095480117868 534.770509831247,544.4201131747382 526.6803398874957,550.2979656976615" stroke="black" stroke-linecap="round" stroke-width="1" /><polyline clip-path="url(#border_clip)" fill="none" points="526.6803398874957,550.2979656976615 518.5901699437445,556.1758182205849 510.49999999999324,562.0536707435082 500.4999999999926,562.053670743506 492.4098300562439,556.1758182205791 484.3196601124952,550.2979656976523 476.22949016874657,544.4201131747254 473.1393202249989,534.9095480117727 476.22949016875066,525.3989828488212 479.31966011250245,515.8884176858697 482.4098300562542,506.3778525229183 490.5000000000054,500.499999999995 500.500000000006,500.4999999999972 510.50000000000665,500.4999999999994 520.5000000000073,500.5000000000016 528.590169943756,506.37785252292844 531.6803398875036,515.8884176858812 534.770509831251,525.3989828488341 537.8606797749986,534.9095480117868 534.770509831247,544.4201131747383 526.6803398874956,550.2979656976615 518.5901699437444,556.1758182205849 510.4999999999931,562.0536707435083 500.4999999999925,562.053670743506 492.40983005624383,556.1758182205791 484.31966011249517,550.2979656976523 476.22949016874645,544.4201131747254 473.1393202249989,534.9095480117726 476.22949016875066,525.3989828488211 479.31966011250245,515.8884176858697 482.4098300562542,506.37785252291826 490.50000000000546,500.49999999999494 500.5000000000061,500.49999999999716 510.5000000000067,500.4999999999994 520.5000000000074,500.5000000000016 528.590169943756,506.3778525229285 531.6803398875036,515.8884176858813 534.7705098312512,525.3989828488341 537.8606797749987,534.9095480117869 534.770509831247,544.4201131747384 526.6803398874956,550.2979656976617 518.5901699437444,556.175818220585 510.49999999999307,562.0536707435083" stroke="black" stroke-linecap="round" stroke-width="1" /><polyline clip-path="url(#border_clip)" fill="none" points="510.49999999999307,562.0536707435083 500.49999999999244,562.053670743506 492.4098300562438,556.1758182205791 484.3196601124951,550.2979656976522 476.2294901687464,544.4201131747253 473.13932022499887,534.9095480117726 476.22949016875066,525.3989828488211 479.31966011250245,515.8884176858696 482.40983005625424,506.3778525229182 490.5000000000055,500.49999999999494 500.50000000000614,500.49999999999716 510.5000000000068,500.4999999999994 520.5000000000074,500.50000000000165 528.5901699437561,506.37785252292855 531.6803398875036,515.8884176858813 534.7705098312512,525.3989828488342 537.8606797749987,534.909548011787 534.770509831247,544.4201131747385 526.6803398874956,550.2979656976618 518.5901699437443,556.175818220585 510.49999999999295,562.0536707435083 500.4999999999923,562.053670743506 492.40983005624366,556.1758182205791 484.319660112495,550.2979656976522 476.22949016874634,544.4201131747253 473.1393202249988,534.9095480117725 476.22949016875066,525.398982848821 479.31966011250245,515.8884176858695 482.4098300562543,506.3778525229181 490.5000000000056,500.4999999999948 500.50000000000625,500.4999999999971 510.5000000000069,500.4999999999994 520.5000000000075,500.50000000000165 528.5901699437561,506.37785252292855 531.6803398875037,515.8884176858814 534.7705098312512,525.3989828488343 537.8606797749987,534.9095480117871 534.7705098312468,544.4201131747385 526.6803398874955,550.2979656976618 518.5901699437442,556.175818220585 510.4999999999929,562.0536707435083 500.49999999999227,562.053670743506 492.4098300562436,556.1758182205791" stroke="black" stroke-linecap="round" stroke-width="1" /><polyline clip-path="url(#border_clip)" fill="none" points="492.4098300562436,556.1758182205791 484.31966011249494,550.2979656976522 476.2294901687463,544.4201131747252 473.1393202249988,534.9095480117724 476.22949016875066,525.3989828488209 479.31966011250245,515.8884176858695 482.4098300562543,506.37785252291803 490.5000000000056,500.49999999999477 500.5000000000063,500.49999999999704 510.50000000000693,500.4999999999994 520.5000000000076,500.50000000000165 528.5901699437562,506.3778525229286 531.6803398875037,515.8884176858814 534.7705098312513,525.3989828488343 537.8606797749987,534.9095480117871 534.7705098312468,544.4201131747386 526.6803398874955,550.2979656976619 518.5901699437442,556.1758182205851 510.49999999999284,562.0536707435084 500.49999999999216,562.0536707435061 492.40983005624355,556.1758182205791 484.3196601124949,550.2979656976521 476.2294901687462,544.4201131747252 473.13932022499876,534.9095480117724 476.2294901687506,525.3989828488209 479.3196601125025,515.8884176858694 482.40983005625435,506.377852522918 490.5000000000057,500.4999999999947 500.50000000000637,500.49999999999704 510.500000000007,500.4999999999994 520.5000000000076,500.50000000000165 528.5901699437563,506.37785252292866 531.6803398875038,515.8884176858816 534.7705098312513,525.3989828488344 537.8606797749987,534.9095480117873 534.7705098312468,544.4201131747387 526.6803398874955,550.297965697662 518.5901699437441,556.1758182205851 510.4999999999927,562.0536707435084 500.4999999999921,562.0536707435061 492.40983005624344,556.1758182205791 484.31966011249483,550.2979656976521 476.22949016874617,544.4201131747251" stroke="black" stroke-linecap="round" stroke-width="1" /><polyline clip-path="url(#border_clip)" fill="none" points="476.22949016874617,544.4201131747251 473.1393202249987,534.9095480117722 476.2294901687506,525.3989828488208 479.3196601125025,515.8884176858694 482.4098300562544,506.3778525229179 490.5000000000058,500.49999999999466 500.5000000000064,500.499999999997 510.5000000000071,500.4999999999993 520.5000000000077,500.50000000000165 528.5901699437563,506.37785252292866 531.6803398875038,515.8884176858816 534.7705098312513,525.3989828488344 537.8606797749987,534.9095480117874 534.7705098312468,544.4201131747388 526.6803398874955,550.297965697662 518.5901699437441,556.1758182205853 510.49999999999267,562.0536707435085 500.49999999999204,562.0536707435061 492.4098300562434,556.1758182205791 484.3196601124948,550.2979656976521 476.2294901687461,544.4201131747251 473.1393202249987,534.9095480117721 476.2294901687506,525.3989828488208 479.3196601125025,515.8884176858693 482.40983005625446,506.3778525229178 490.50000000000585,500.4999999999946 500.50000000000654,500.499999999997" stroke="black" stroke-linecap="round" stroke-width="1" /></svg>