<?xml version="1.0" encoding="UTF-8"?>
<svg width="1e4px" height="1e4px" baseProfile="full" version="1.1" viewBox="4983.1 5000.5 64.721 61.554" xmlns="http://www.w3.org/2000/svg">
<defs>
<clipPath id="a">
<rect width="1e4" height="1e4"/>
</clipPath>
</defs>
<polyline points="5000.5 5000.5 5010.5 5000.5 5020.5 5000.5 5030.5 5000.5 5038.6 5006.4 5041.7 5015.9 5044.8 5025.4 5047.9 5034.9 5044.8 5044.4 5036.7 5050.3 5028.6 5056.2 5020.5 5062.1 5010.5 5062.1 5002.4 5056.2 4994.3 5050.3 4986.2 5044.4 4983.1 5034.9 4986.2 5025.4 4989.3 5015.9 4992.4 5006.4 5000.5 5000.5 5010.5 5000.5 5020.5 5000.5 5030.5 5000.5 5038.6 5006.4 5041.7 5015.9 5044.8 5025.4 5047.9 5034.9 5044.8 5044.4 5036.7 5050.3 5028.6 5056.2 5020.5 5062.1 5010.5 5062.1 5002.4 5056.2 4994.3 5050.3 4986.2 5044.4 4983.1 5034.9 4986.2 5025.4 4989.3 5015.9 4992.4 5006.4 5000.5 5000.5 5010.5 5000.5 5020.5 5000.5" clip-path="url(#a)" fill="none" stroke="#000" stroke-linecap="round"/>
<polyline points="5020.5 5000.5 5030.5 5000.5 5038.6 5006.4 5041.7 5015.9 5044.8 5025.4 5047.9 5034.9 5044.8 5044.4 5036.7 5050.3 5028.6 5056.2 5020.5 5062.1 5010.5 5062.1 5002.4 5056.2 4994.3 5050.3 4986.2 5044.4 4983.1 5034.9 4986.2 5025.4 4989.3 5015.9 4992.4 5006.4 5000.5 5000.5 5010.5 5000.5 5020.5 5000.5 5030.5 5000.5 5038.6 5006.4 5041.7 5015.9 5044.8 5025.4 5047.9 5034.9 5044.8 5044.4 5036.7 5050.3 5028.6 5056.2 5020.5 5062.1 5010.5 5062.1 5002.4 5056.2 4994.3 5050.3 4986.2 5044.4 4983.1 5034.9 4986.2 5025.4 4989.3 5015.9 4992.4 5006.4 5000.5 5000.5 5010.5 5000.5 5020.5 5000.5 5030.5 5000.5 5038.6 5006.4" clip-path="url(#a)" fill="none" stroke="#000" stroke-linecap="round"/>
<polyline points="5038.6 5006.4 5041.7 5015.9 5044.8 5025.4 5047.9 5034.9 5044.8 5044.4 5036.7 5050.3 5028.6 5056.2 5020.5 5062.1 5010.5 5062.1 5002.4 5056.2 4994.3 5050.3 4986.2 5044.4 4983.1 5034.9 4986.2 5025.4 4989.3 5015.9 4992.4 5006.4 5000.5 5000.5 5010.5 5000.5 5020.5 5000.5 5030.5 5000.5 5038.6 5006.4 5041.7 5015.9 5044.8 5025.4 5047.9 5034.9 5044.8 5044.4 5036.7 5050.3 5028.6 5056.2 5020.5 5062.1 5010.5 5062.1 5002.4 5056.2 4994.3 5050.3 4986.2 5044.4 4983.1 5034.9 4986.2 5025.4 4989.3 5015.9 4992.4 5006.4 5000.5 5000.5 5010.5 5000.5 5020.5 5000.5 5030.5 5000.5 5038.6 5006.4 5041.7 5015.9 5044.8 5025.4" clip-path="url(#a)" fill="none" stroke="#000" stroke-linecap="round"/>
<polyline points="5044.8 5025.4 5047.9 5034.9 5044.8 5044.4 5036.7 5050.3 5028.6 5056.2 5020.5 5062.1 5010.5 5062.1 5002.4 5056.2 4994.3 5050.3 4986.2 5044.4 4983.1 5034.9 4986.2 5025.4 4989.3 5015.9 4992.4 5006.4 5000.5 5000.5 5010.5 5000.5 5020.5 5000.5 5030.5 5000.5 5038.6 5006.4 5041.7 5015.9 5044.8 5025.4 5047.9 5034.9 5044.8 5044.4 5036.7 5050.3 5028.6 5056.2 5020.5 5062.1 5010.5 5062.1 5002.4 5056.2 4994.3 5050.3 4986.2 5044.4 4983.1 5034.9 4986.2 5025.4 4989.3 5015.9 4992.4 5006.4 5000.5 5000.5 5010.5 5000.5 5020.5 5000.5 5030.5 5000.5 5038.6 5006.4 5041.7 5015.9 5044.8 5025.4 5047.9 5034.9 5044.8 5044.4" clip-path="url(#a)" fill="none" stroke="#000" stroke-linecap="round"/>
<polyline points="5044.8 5044.4 5036.7 5050.3 5028.6 5056.2 5020.5 5062.1 5010.5 5062.1 5002.4 5056.2 4994.3 5050.3 4986.2 5044.4 4983.1 5034.9 4986.2 5025.4 4989.3 5015.9 4992.4 5006.4 5000.5 5000.5 5010.5 5000.5 5020.5 5000.5 5030.5 5000.5 5038.6 5006.4 5041.7 5015.9 5044.8 5025.4 5047.9 5034.9 5044.8 5044.4 5036.7 5050.3 5028.6 5056.2 5020.5 5062.1 5010.5 5062.1 5002.4 5056.2 4994.3 5050.3 4986.2 5044.4 4983.1 5034.9 4986.2 5025.4 4989.3 5015.9 4992.4 5006.4 5000.5 5000.5 5010.5 5000.5 5020.5 5000.5 5030.5 5000.5 5038.6 5006.4 5041.7 5015.9 5044.8 5025.4 5047.9 5034.9 5044.8 5044.4 5036.7 5050.3 5028.6 5056.2" clip-path="url(#a)" fill="none" stroke="#000" stroke-linecap="round"/>
<polyline points="5028.6 5056.2 5020.5 5062.1 5010.5 5062.1 5002.4 5056.2 4994.3 5050.3 4986.2 5044.4 4983.1 5034.9 4986.2 5025.4 4989.3 5015.9 4992.4 5006.4 5000.5 5000.5 5010.5 5000.5 5020.5 5000.5 5030.5 5000.5 5038.6 5006.4 5041.7 5015.9 5044.8 5025.4 5047.9 5034.9 5044.8 5044.4 5036.7 5050.3 5028.6 5056.2 5020.5 5062.1 5010.5 5062.1 5002.4 5056.2 4994.3 5050.3 4986.2 5044.4 4983.1 5034.9 4986.2 5025.4 4989.3 5015.9 4992.4 5006.4 5000.5 5000.5 5010.5 5000.5 5020.5 5000.5 5030.5 5000.5 5038.6 5006.4 5041.7 5015.9 5044.8 5025.4 5047.9 5034.9 5044.8 5044.4 5036.7 5050.3 5028.6 5056.2 5020.5 5062.1 5010.5 5062.1" clip-path="url(#a)" fill="none" stroke="#000" stroke-linecap="round"/>
<polyline points="5010.5 5062.1 5002.4 5056.2 4994.3 5050.3 4986.2 5044.4 4983.1 5034.9 4986.2 5025.4 4989.3 5015.9 4992.4 5006.4 5000.5 5000.5 5010.5 5000.5 5020.5 5000.5 5030.5 5000.5 5038.6 5006.4 5041.7 5015.9 5044.8 5025.4 5047.9 5034.9 5044.8 5044.4 5036.7 5050.3 5028.6 5056.2 5020.5 5062.1 5010.5 5062.1 5002.4 5056.2 4994.3 5050.3 4986.2 5044.4 4983.1 5034.9 4986.2 5025.4 4989.3 5015.9 4992.4 5006.4 5000.5 5000.5 5010.5 5000.5 5020.5 5000.5 5030.5 5000.5 5038.6 5006.4 5041.7 5015.9 5044.8 5025.4 5047.9 5034.9 5044.8 5044.4 5036.7 5050.3 5028.6 5056.2 5020.5 5062.1 5010.5 5062.1 5002.4 5056.2 4994.3 5050.3" clip-path="url(#a)" fill="none" stroke="#000" stroke-linecap="round"/>
<polyline points="4994.3 5050.3 4986.2 5044.4 4983.1 5034.9 4986.2 5025.4 4989.3 5015.9 4992.4 5006.4 5000.5 5000.5 5010.5 5000.5 5020.5 5000.5 5030.5 5000.5 5038.6 5006.4 5041.7 5015.9 5044.8 5025.4 5047.9 5034.9 5044.8 5044.4 5036.7 5050.3 5028.6 5056.2 5020.5 5062.1 5010.5 5062.1 5002.4 5056.2 4994.3 5050.3 4986.2 5044.4 4983.1 5034.9 4986.2 5025.4 4989.3 5015.9 4992.4 5006.4 5000.5 5000.5 5010.5 5000.5 5020.5 5000.5 5030.5 5000.5 5038.6 5006.4 5041.7 5015.9 5044.8 5025.4 5047.9 5034.9 5044.8 5044.4 5036.7 5050.3 5028.6 5056.2 5020.5 5062.1 5010.5 5062.1 5002.4 5056.2 4994.3 5050.3 4986.2 5044.4 4983.1 5034.9" clip-path="url(#a)" fill="none" stroke="#000" stroke-linecap="round"/>
<polyline points="4983.1 5034.9 4986.2 5025.4 4989.3 5015.9 4992.4 5006.4 5000.5 5000.5 5010.5 5000.5 5020.5 5000.5 5030.5 5000.5 5038.6 5006.4 5041.7 5015.9 5044.8 5025.4 5047.9 5034.9 5044.8 5044.4 5036.7 5050.3 5028.6 5056.2 5020.5 5062.1 5010.5 5062.1 5002.4 5056.2 4994.3 5050.3 4986.2 5044.4 4983.1 5034.9 4986.2 5025.4 4989.3 5015.9 4992.4 5006.4 5000.5 5000.5 5010.5 5000.5 5020.5 5000.5 5030.5 5000.5 5038.6 5006.4 5041.7 5015.9 5044.8 5025.4 5047.9 5034.9 5044.8 5044.4 5036.7 5050.3 5028.6 5056.2 5020.5 5062.1 5010.5 5062.1 5002.4 5056.2 4994.3 5050.3 4986.2 5044.4 4983.1 5034.9 4986.2 5025.4 4989.3 5015.9" clip-path="url(#a)" fill="none" stroke="#000" stroke-linecap="round"/>
<polyline points="4989.3 5015.9 4992.4 5006.4 5000.5 5000.5 5010.5 5000.5 5020.5 5000.5 5030.5 5000.5 5038.6 5006.4 5041.7 5015.9 5044.8 5025.4 5047.9 5034.9 5044.8 5044.4 5036.7 5050.3 5028.6 5056.2 5020.5 5062.1 5010.5 5062.1 5002.4 5056.2 4994.3 5050.3 4986.2 5044.4 4983.1 5034.9 4986.2 5025.4 4989.3 5015.9 4992.4 5006.4 5000.5 5000.5 5010.5 5000.5 5020.5 5000.5 5030.5 5000.5 5038.6 5006.4 5041.7 5015.9 5044.8 5025.4 5047.9 5034.9 5044.8 5044.4 5036.7 5050.3 5028.6 5056.2 5020.5 5062.1 5010.5 5062.1 5002.4 5056.2 4994.3 5050.3 4986.2 5044.4 4983.1 5034.9 4986.2 5025.4 4989.3 5015.9 4992.4 5006.4 5000.5 5000.5" clip-path="url(#a)" fill="none" stroke="#000" stroke-linecap="round"/>
<polyline points="5000.5 5000.5 5010.5 5000.5 5020.5 5000.5 5030.5 5000.5 5038.6 5006.4 5041.7 5015.9 5044.8 5025.4 5047.9 5034.9 5044.8 5044.4 5036.7 5050.3 5028.6 5056.2 5020.5 5062.1 5010.5 5062.1 5002.4 5056.2 4994.3 5050.3 4986.2 5044.4 4983.1 5034.9 4986.2 5025.4 4989.3 5015.9 4992.4 5006.4 5000.5 5000.5 5010.5 5000.5 5020.5 5000.5 5030.5 5000.5 5038.6 5006.4 5041.7 5015.9 5044.8 5025.4 5047.9 5034.9 5044.8 5044.4 5036.7 5050.3 5028.6 5056.2 5020.5 5062.1 5010.5 5062.1 5002.4 5056.2 4994.3 5050.3 4986.2 5044.4 4983.1 5034.9 4986.2 5025.4 4989.3 5015.9 4992.4 5006.4 5000.5 5000.5 5010.5 5000.5 5020.5 5000.5" clip-path="url(#a)" fill="none" stroke="#000" stroke-linecap="round"/>
<polyline points="5020.5 5000.5 5030.5 5000.5 5038.6 5006.4 5041.7 5015.9 5044.8 5025.4 5047.9 5034.9 5044.8 5044.4 5036.7 5050.3 5028.6 5056.2 5020.5 5062.1 5010.5 5062.1 5002.4 5056.2 4994.3 5050.3 4986.2 5044.4 4983.1 5034.9 4986.2 5025.4 4989.3 5015.9 4992.4 5006.4 5000.5 5000.5 5010.5 5000.5 5020.5 5000.5 5030.5 5000.5 5038.6 5006.4 5041.7 5015.9 5044.8 5025.4 5047.9 5034.9 5044.8 5044.4 5036.7 5050.3 5028.6 5056.2 5020.5 5062.1 5010.5 5062.1 5002.4 5056.2 4994.3 5050.3 4986.2 5044.4 4983.1 5034.9 4986.2 5025.4 4989.3 5015.9 4992.4 5006.4 5000.5 5000.5 5010.5 5000.5 5020.5 5000.5 5030.5 5000.5 5038.6 5006.4" clip-path="url(#a)" fill="none" stroke="#000" stroke-linecap="round"/>
<polyline points="5038.6 5006.4 5041.7 5015.9 5044.8 5025.4 5047.9 5034.9 5044.8 5044.4 5036.7 5050.3 5028.6 5056.2 5020.5 5062.1 5010.5 5062.1 5002.4 5056.2 4994.3 5050.3 4986.2 5044.4 4983.1 5034.9 4986.2 5025.4 4989.3 5015.9 4992.4 5006.4 5000.5 5000.5 5010.5 5000.5 5020.5 5000.5 5030.5 5000.5 5038.6 5006.4 5041.7 5015.9 5044.8 5025.4 5047.9 5034.9 5044.8 5044.4 5036.7 5050.3 5028.6 5056.2 5020.5 5062.1 5010.5 5062.1 5002.4 5056.2 4994.3 5050.3 4986.2 5044.4 4983.1 5034.9 4986.2 5025.4 4989.3 5015.9 4992.4 5006.4 5000.5 5000.5 5010.5 5000.5 5020.5 5000.5 5030.5 5000.5 5038.6 5006.4 5041.7 5015.9 5044.8 5025.4" clip-path="url(#a)" fill="none" stroke="#000" stroke-linecap="round"/>
<polyline points="5044.8 5025.4 5047.9 5034.9 5044.8 5044.4 5036.7 5050.3 5028.6 5056.2 5020.5 5062.1 5010.5 5062.1 5002.4 5056.2 4994.3 5050.3 4986.2 5044.4 4983.1 5034.9 4986.2 5025.4 4989.3 5015.9 4992.4 5006.4 5000.5 5000.5 5010.5 5000.5 5020.5 5000.5 5030.5 5000.5 5038.6 5006.4 5041.7 5015.9 5044.8 5025.4 5047.9 5034.9 5044.8 5044.4 5036.7 5050.3 5028.6 5056.2 5020.5 5062.1 5010.5 5062.1 5002.4 5056.2 4994.3 5050.3 4986.2 5044.4 4983.1 5034.9 4986.2 5025.4 4989.3 5015.9 4992.4 5006.4 5000.5 5000.5 5010.5 5000.5 5020.5 5000.5 5030.5 5000.5 5038.6 5006.4 5041.7 5015.9 5044.8 5025.4 5047.9 5034.9 5044.8 5044.4" clip-path="url(#a)" fill="none" stroke="#000" stroke-linecap="round"/>
<polyline points="5044.8 5044.4 5036.7 5050.3 5028.6 5056.2 5020.5 5062.1 5010.5 5062.1 5002.4 5056.2 4994.3 5050.3 4986.2 5044.4 4983.1 5034.9 4986.2 5025.4 4989.3 5015.9 4992.4 5006.4 5000.5 5000.5 5010.5 5000.5 5020.5 5000.5 5030.5 5000.5 5038.6 5006.4 5041.7 5015.9 5044.8 5025.4 5047.9 5034.9 5044.8 5044.4 5036.7 5050.3 5028.6 5056.2 5020.5 5062.1 5010.5 5062.1 5002.4 5056.2 4994.3 5050.3 4986.2 5044.4 4983.1 5034.9 4986.2 5025.4 4989.3 5015.9 4992.4 5006.4 5000.5 5000.5 5010.5 5000.5 5020.5 5000.5 5030.5 5000.5 5038.6 5006.4 5041.7 5015.9 5044.8 5025.4 5047.9 5034.9 5044.8 5044.4 5036.7 5050.3 5028.6 5056.2" clip-path="url(#a)" fill="none" stroke="#000" stroke-linecap="round"/>
<polyline points="5028.6 5056.2 5020.5 5062.1 5010.5 5062.1 5002.4 5056.2 4994.3 5050.3 4986.2 5044.4 4983.1 5034.9 4986.2 5025.4 4989.3 5015.9 4992.4 5006.4 5000.5 5000.5 5010.5 5000.5 5020.5 5000.5 5030.5 5000.5 5038.6 5006.4 5041.7 5015.9 5044.8 5025.4 5047.9 5034.9 5044.8 5044.4 5036.7 5050.3 5028.6 5056.2 5020.5 5062.1 5010.5 5062.1 5002.4 5056.2 4994.3 5050.3 4986.2 5044.4 4983.1 5034.9 4986.2 5025.4 4989.3 5015.9 4992.4 5006.4 5000.5 5000.5 5010.5 5000.5 5020.5 5000.5 5030.5 5000.5 5038.6 5006.4 5041.7 5015.9 5044.8 5025.4 5047.9 5034.9 5044.8 5044.4 5036.7 5050.3 5028.6 5056.2 5020.5 5062.1 5010.5 5062.1" clip-path="url(#a)" fill="none" stroke="#000" stroke-linecap="round"/>
<polyline points="5010.5 5062.1 5002.4 5056.2 4994.3 5050.3 4986.2 5044.4 4983.1 5034.9 4986.2 5025.4 4989.3 5015.9 4992.4 5006.4 5000.5 5000.5 5010.5 5000.5 5020.5 5000.5 5030.5 5000.5 5038.6 5006.4 5041.7 5015.9 5044.8 5025.4 5047.9 5034.9 5044.8 5044.4 5036.7 5050.3 5028.6 5056.2 5020.5 5062.1 5010.5 5062.1 5002.4 5056.2 4994.3 5050.3 4986.2 5044.4 4983.1 5034.9 4986.2 5025.4 4989.3 5015.9 4992.4 5006.4 5000.5 5000.5 5010.5 5000.5 5020.5 5000.5 5030.5 5000.5 5038.6 5006.4 5041.7 5015.9 5044.8 5025.4 5047.9 5034.9 5044.8 5044.4 5036.7 5050.3 5028.6 5056.2 5020.5 5062.1 5010.5 5062.1 5002.4 5056.2 4994.3 5050.3" clip-path="url(#a)" fill="none" stroke="#000" stroke-linecap="round"/>
<polyline points="4994.3 5050.3 4986.2 5044.4 4983.1 5034.9 4986.2 5025.4 4989.3 5015.9 4992.4 5006.4 5000.5 5000.5 5010.5 5000.5 5020.5 5000.5 5030.5 5000.5 5038.6 5006.4 5041.7 5015.9 5044.8 5025.4 5047.9 5034.9 5044.8 5044.4 5036.7 5050.3 5028.6 5056.2 5020.5 5062.1 5010.5 5062.1 5002.4 5056.2 4994.3 5050.3 4986.2 5044.4 4983.1 5034.9 4986.2 5025.4 4989.3 5015.9 4992.4 5006.4 5000.5 5000.5 5010.5 5000.5 5020.5 5000.5 5030.5 5000.5 5038.6 5006.4 5041.7 5015.9 5044.8 5025.4 5047.9 5034.9 5044.8 5044.4 5036.7 5050.3 5028.6 5056.2 5020.5 5062.1 5010.5 5062.1 5002.4 5056.2 4994.3 5050.3 4986.2 5044.4 4983.1 5034.9" clip-path="url(#a)" fill="none" stroke="#000" stroke-linecap="round"/>
<polyline points="4983.1 5034.9 4986.2 5025.4 4989.3 5015.9 4992.4 5006.4 5000.5 5000.5 5010.5 5000.5 5020.5 5000.5 5030.5 5000.5 5038.6 5006.4 5041.7 5015.9 5044.8 5025.4 5047.9 5034.9 5044.8 5044.4 5036.7 5050.3 5028.6 5056.2 5020.5 5062.1 5010.5 5062.1 5002.4 5056.2 4994.3 5050.3 4986.2 5044.4 4983.1 5034.9 4986.2 5025.4 4989.3 5015.9 4992.4 5006.4 5000.5 5000.5 5010.5 5000.5 5020.5 5000.5 5030.5 5000.5 5038.6 5006.4 5041.7 5015.9 5044.8 5025.4 5047.9 5034.9 5044.8 5044.4 5036.7 5050.3 5028.6 5056.2 5020.5 5062.1 5010.5 5062.1 5002.4 5056.2 4994.3 5050.3 4986.2 5044.4 4983.1 5034.9 4986.2 5025.4 4989.3 5015.9" clip-path="url(#a)" fill="none" stroke="#000" stroke-linecap="round"/>
<polyline points="4989.3 5015.9 4992.4 5006.4 5000.5 5000.5 5010.5 5000.5 5020.5 5000.5 5030.5 5000.5 5038.6 5006.4 5041.7 5015.9 5044.8 5025.4 5047.9 5034.9 5044.8 5044.4 5036.7 5050.3 5028.6 5056.2 5020.5 5062.1 5010.5 5062.1 5002.4 5056.2 4994.3 5050.3 4986.2 5044.4 4983.1 5034.9 4986.2 5025.4 4989.3 5015.9 4992.4 5006.4 5000.5 5000.5 5010.5 5000.5 5020.5 5000.5 5030.5 5000.5 5038.6 5006.4 5041.7 5015.9 5044.8 5025.4 5047.9 5034.9 5044.8 5044.4 5036.7 5050.3 5028.6 5056.2 5020.5 5062.1 5010.5 5062.1 5002.4 5056.2 4994.3 5050.3 4986.2 5044.4 4983.1 5034.9 4986.2 5025.4 4989.3 5015.9 4992.4 5006.4 5000.5 5000.5" clip-path="url(#a)" fill="none" stroke="#000" stroke-linecap="round"/>
<polyline points="5000.5 5000.5 5010.5 5000.5 5020.5 5000.5 5030.5 5000.5 5038.6 5006.4 5041.7 5015.9 5044.8 5025.4 5047.9 5034.9 5044.8 5044.4 5036.7 5050.3 5028.6 5056.2 5020.5 5062.1 5010.5 5062.1 5002.4 5056.2 4994.3 5050.3 4986.2 5044.4 4983.1 5034.9 4986.2 5025.4 4989.3 5015.9 4992.4 5006.4 5000.5 5000.5 5010.5 5000.5 5020.5 5000.5 5030.5 5000.5 5038.6 5006.4 5041.7 5015.9 5044.8 5025.4 5047.9 5034.9 5044.8 5044.4 5036.7 5050.3 5028.6 5056.2 5020.5 5062.1 5010.5 5062.1 5002.4 5056.2 4994.3 5050.3 4986.2 5044.4 4983.1 5034.9 4986.2 5025.4 4989.3 5015.9 4992.4 5006.4 5000.5 5000.5 5010.5 5000.5 5020.5 5000.5" clip-path="url(#a)" fill="none" stroke="#000" stroke-linecap="round"/>
<polyline points="5020.5 5000.5 5030.5 5000.5 5038.6 5006.4 5041.7 5015.9 5044.8 5025.4 5047.9 5034.9 5044.8 5044.4 5036.7 5050.3 5028.6 5056.2 5020.5 5062.1 5010.5 5062.1 5002.4 5056.2 4994.3 5050.3 4986.2 5044.4 4983.1 5034.9 4986.2 5025.4 4989.3 5015.9 4992.4 5006.4 5000.5 5000.5 5010.5 5000.5 5020.5 5000.5 5030.5 5000.5 5038.6 5006.4 5041.7 5015.9 5044.8 5025.4 5047.9 5034.9 5044.8 5044.4 5036.7 5050.3 5028.6 5056.2 5020.5 5062.1 5010.5 5062.1 5002.4 5056.2 4994.3 5050.3 4986.2 5044.4 4983.1 5034.9 4986.2 5025.4 4989.3 5015.9 4992.4 5006.4 5000.5 5000.5 5010.5 5000.5 5020.5 5000.5 5030.5 5000.5 5038.6 5006.4" clip-path="url(#a)" fill="none" stroke="#000" stroke-linecap="round"/>
<polyline points="5038.6 5006.4 5041.7 5015.9 5044.8 5025.4 5047.9 5034.9 5044.8 5044.4 5036.7 5050.3 5028.6 5056.2 5020.5 5062.1 5010.5 5062.1 5002.4 5056.2 4994.3 5050.3 4986.2 5044.4 4983.1 5034.9 4986.2 5025.4 4989.3 5015.9 4992.4 5006.4 5000.5 5000.5 5010.5 5000.5 5020.5 5000.5 5030.5 5000.5 5038.6 5006.4 5041.7 5015.9 5044.8 5025.4 5047.9 5034.9 5044.8 5044.4 5036.7 5050.3 5028.6 5056.2 5020.5 5062.1 5010.5 5062.1 5002.4 5056.2 4994.3 5050.3 4986.2 5044.4 4983.1 5034.9 4986.2 5025.4 4989.3 5015.9 4992.4 5006.4 5000.5 5000.5 5010.5 5000.5 5020.5 5000.5 5030.5 5000.5 5038.6 5006.4 5041.7 5015.9 5044.8 5025.4" clip-path="url(#a)" fill="none" stroke="#000" stroke-linecap="round"/>
<polyline points="5044.8 5025.4 5047.9 5034.9 5044.8 5044.4 5036.7 5050.3 5028.6 5056.2 5020.5 5062.1 5010.5 5062.1 5002.4 5056.2 4994.3 5050.3 4986.2 5044.4 4983.1 5034.9 4986.2 5025.4 4989.3 5015.9 4992.4 5006.4 5000.5 5000.5 5010.5 5000.5 5020.5 5000.5 5030.5 5000.5 5038.6 5006.4 5041.7 5015.9 5044.8 5025.4 5047.9 5034.9 5044.8 5044.4 5036.7 5050.3 5028.6 5056.2 5020.5 5062.1 5010.5 5062.1 5002.4 5056.2 4994.3 5050.3 4986.2 5044.4 4983.1 5034.9 4986.2 5025.4 4989.3 5015.9 4992.4 5006.4 5000.5 5000.5 5010.5 5000.5 5020.5 5000.5 5030.5 5000.5 5038.6 5006.4 5041.7 5015.9 5044.8 5025.4 5047.9 5034.9 5044.8 5044.4" clip-path="url(#a)" fill="none" stroke="#000" stroke-linecap="round"/>
<polyline points="5044.8 5044.4 5036.7 5050.3 5028.6 5056.2 5020.5 5062.1 5010.5 5062.1 5002.4 5056.2 4994.3 5050.3 4986.2 5044.4 4983.1 5034.9 4986.2 5025.4 4989.3 5015.9 4992.4 5006.4 5000.5 5000.5 5010.5 5000.5 5020.5 5000.5 5030.5 5000.5 5038.6 5006.4 5041.7 5015.9 5044.8 5025.4 5047.9 5034.9 5044.8 5044.4 5036.7 5050.3 5028.6 5056.2 5020.5 5062.1 5010.5 5062.1 5002.4 5056.2 4994.3 5050.3 4986.2 5044.4 4983.1 5034.9 4986.2 5025.4 4989.3 5015.9 4992.4 5006.4 5000.5 5000.5 5010.5 5000.5 5020.5 5000.5 5030.5 5000.5 5038.6 5006.4 5041.7 5015.9 5044.8 5025.4 5047.9 5034.9 5044.8 5044.4 5036.7 5050.3 5028.6 5056.2" clip-path="url(#a)" fill="none" stroke="#000" stroke-linecap="round"/>
<polyline points="5028.6 5056.2 5020.5 5062.1 5010.5 5062.1 5002.4 5056.2 4994.3 5050.3 4986.2 5044.4 4983.1 5034.9 4986.2 5025.4 4989.3 5015.9 4992.4 5006.4 5000.5 5000.5 5010.5 5000.5 5020.5 5000.5 5030.5 5000.5 5038.6 5006.4 5041.7 5015.9 5044.8 5025.4 5047.9 5034.9 5044.8 5044.4 5036.7 5050.3 5028.6 5056.2 5020.5 5062.1 5010.5 5062.1 5002.4 5056.2 4994.3 5050.3 4986.2 5044.4 4983.1 5034.9 4986.2 5025.4 4989.3 5015.9 4992.4 5006.4 5000.5 5000.5 5010.5 5000.5 5020.5 5000.5 5030.5 5000.5 5038.6 5006.4 5041.7 5015.9 5044.8 5025.4 5047.9 5034.9 5044.8 5044.4 5036.7 5050.3 5028.6 5056.2 5020.5 5062.1 5010.5 5062.1" clip-path="url(#a)" fill="none" stroke="#000" stroke-linecap="round"/>
<polyline points="5010.5 5062.1 5002.4 5056.2 4994.3 5050.3 4986.2 5044.4 4983.1 5034.9 4986.2 5025.4 4989.3 5015.9 4992.4 5006.4 5000.5 5000.5 5010.5 5000.5 5020.5 5000.5 5030.5 5000.5 5038.6 5006.4 5041.7 5015.9 5044.8 5025.4 5047.9 5034.9 5044.8 5044.4 5036.7 5050.3 5028.6 5056.2 5020.5 5062.1 5010.5 5062.1 5002.4 5056.2 4994.3 5050.3 4986.2 5044.4 4983.1 5034.9 4986.2 5025.4 4989.3 5015.9 4992.4 5006.4 5000.5 5000.5 5010.5 5000.5 5020.5 5000.5 5030.5 5000.5 5038.6 5006.4 5041.7 5015.9 5044.8 5025.4 5047.9 5034.9 5044.8 5044.4 5036.7 5050.3 5028.6 5056.2 5020.5 5062.1 5010.5 5062.1 5002.4 5056.2 4994.3 5050.3" clip-path="url(#a)" fill="none" stroke="#000" stroke-linecap="round"/>
<polyline points="4994.3 5050.3 4986.2 5044.4 4983.1 5034.9 4986.2 5025.4 4989.3 5015.9 4992.4 5006.4 5000.5 5000.5 5010.5 5000.5 5020.5 5000.5 5030.5 5000.5 5038.6 5006.4 5041.7 5015.9 5044.8 5025.4 5047.9 5034.9 5044.8 5044.4 5036.7 5050.3 5028.6 5056.2 5020.5 5062.1 5010.5 5062.1 5002.4 5056.2 4994.3 5050.3 4986.2 5044.4 4983.1 5034.9 4986.2 5025.4 4989.3 5015.9 4992.4 5006.4 5000.5 5000.5 5010.5 5000.5 5020.5 5000.5 5030.5 5000.5 5038.6 5006.4 5041.7 5015.9 5044.8 5025.4 5047.9 5034.9 5044.8 5044.4 5036.7 5050.3 5028.6 5056.2 5020.5 5062.1 5010.5 5062.1 5002.4 5056.2 4994.3 5050.3 4986.2 5044.4 4983.1 5034.9" clip-path="url(#a)" fill="none" stroke="#000" stroke-linecap="round"/>
<polyline points="4983.1 5034.9 4986.2 5025.4 4989.3 5015.9 4992.4 5006.4 5000.5 5000.5 5010.5 5000.5 5020.5 5000.5 5030.5 5000.5 5038.6 5006.4 5041.7 5015.9 5044.8 5025.4 5047.9 5034.9 5044.8 5044.4 5036.7 5050.3 5028.6 5056.2 5020.5 5062.1 5010.5 5062.1 5002.4 5056.2 4994.3 5050.3 4986.2 5044.4 4983.1 5034.9 4986.2 5025.4 4989.3 5015.9 4992.4 5006.4 5000.5 5000.5 5010.5 5000.5 5020.5 5000.5 5030.5 5000.5 5038.6 5006.4 5041.7 5015.9 5044.8 5025.4 5047.9 5034.9 5044.8 5044.4 5036.7 5050.3 5028.6 5056.2 5020.5 5062.1 5010.5 5062.1 5002.4 5056.2 4994.3 5050.3 4986.2 5044.4 4983.1 5034.9 4986.2 5025.4 4989.3 5015.9" clip-path="url(#a)" fill="none" stroke="#000" stroke-linecap="round"/>
<polyline points="4989.3 5015.9 4992.4 5006.4 5000.5 5000.5 5010.5 5000.5 5020.5 5000.5 5030.5 5000.5 5038.6 5006.4 5041.7 5015.9 5044.8 5025.4 5047.9 5034.9 5044.8 5044.4 5036.7 5050.3 5028.6 5056.2 5020.5 5062.1 5010.5 5062.1 5002.4 5056.2 4994.3 5050.3 4986.2 5044.4 4983.1 5034.9 4986.2 5025.4 4989.3 5015.9 4992.4 5006.4 5000.5 5000.5 5010.5 5000.5 5020.5 5000.5 5030.5 5000.5 5038.6 5006.4 5041.7 5015.9 5044.8 5025.4 5047.9 5034.9 5044.8 5044.4 5036.7 5050.3 5028.6 5056.2 5020.5 5062.1 5010.5 5062.1 5002.4 5056.2 4994.3 5050.3 4986.2 5044.4 4983.1 5034.9 4986.2 5025.4 4989.3 5015.9 4992.4 5006.4 5000.5 5000.5" clip-path="url(#a)" fill="none" stroke="#000" stroke-linecap="round"/>
<polyline points="5000.5 5000.5 5010.5 5000.5 5020.5 5000.5 5030.5 5000.5 5038.6 5006.4 5041.7 5015.9 5044.8 5025.4 5047.9 5034.9 5044.8 5044.4 5036.7 5050.3 5028.6 5056.2 5020.5 5062.1 5010.5 5062.1 5002.4 5056.2 4994.3 5050.3 4986.2 5044.4 4983.1 5034.9 4986.2 5025.4 4989.3 5015.9 4992.4 5006.4 5000.5 5000.5 5010.5 5000.5 5020.5 5000.5 5030.5 5000.5 5038.6 5006.4 5041.7 5015.9 5044.8 5025.4 5047.9 5034.9 5044.8 5044.4 5036.7 5050.3 5028.6 5056.2 5020.5 5062.1 5010.5 5062.1 5002.4 5056.2 4994.3 5050.3 4986.2 5044.4 4983.1 5034.9 4986.2 5025.4 4989.3 5015.9 4992.4 5006.4 5000.5 5000.5 5010.5 5000.5 5020.5 5000.5" clip-path="url(#a)" fill="none" stroke="#000" stroke-linecap="round"/>
<polyline points="5020.5 5000.5 5030.5 5000.5 5038.6 5006.4 5041.7 5015.9 5044.8 5025.4 5047.9 5034.9 5044.8 5044.4 5036.7 5050.3 5028.6 5056.2 5020.5 5062.1 5010.5 5062.1 5002.4 5056.2 4994.3 5050.3 4986.2 5044.4 4983.1 5034.9 4986.2 5025.4 4989.3 5015.9 4992.4 5006.4 5000.5 5000.5 5010.5 5000.5 5020.5 5000.5 5030.5 5000.5 5038.6 5006.4 5041.7 5015.9 5044.8 5025.4 5047.9 5034.9 5044.8 5044.4 5036.7 5050.3 5028.6 5056.2 5020.5 5062.1 5010.5 5062.1 5002.4 5056.2 4994.3 5050.3 4986.2 5044.4 4983.1 5034.9 4986.2 5025.4 4989.3 5015.9 4992.4 5006.4 5000.5 5000.5 5010.5 5000.5 5020.5 5000.5 5030.5 5000.5 5038.6 5006.4" clip-path="url(#a)" fill="none" stroke="#000" stroke-linecap="round"/>
<polyline points="5038.6 5006.4 5041.7 5015.9 5044.8 5025.4 5047.9 5034.9 5044.8 5044.4 5036.7 5050.3 5028.6 5056.2 5020.5 5062.1 5010.5 5062.1 5002.4 5056.2 4994.3 5050.3 4986.2 5044.4 4983.1 5034.9 4986.2 5025.4 4989.3 5015.9 4992.4 5006.4 5000.5 5000.5 5010.5 5000.5 5020.5 5000.5 5030.5 5000.5 5038.6 5006.4 5041.7 5015.9 5044.8 5025.4 5047.9 5034.9 5044.8 5044.4 5036.7 5050.3 5028.6 5056.2 5020.5 5062.1 5010.5 5062.1 5002.4 5056.2 4994.3 5050.3 4986.2 5044.4 4983.1 5034.9 4986.2 5025.4 4989.3 5015.9 4992.4 5006.4 5000.5 5000.5 5010.5 5000.5 5020.5 5000.5 5030.5 5000.5 5038.6 5006.4 5041.7 5015.9 5044.8 5025.4" clip-path="url(#a)" fill="none" stroke="#000" stroke-linecap="round"/>
<polyline points="5044.8 5025.4 5047.9 5034.9 5044.8 5044.4 5036.7 5050.3 5028.6 5056.2 5020.5 5062.1 5010.5 5062.1 5002.4 5056.2 4994.3 5050.3 4986.2 5044.4 4983.1 5034.9 4986.2 5025.4 4989.3 5015.9 4992.4 5006.4 5000.5 5000.5 5010.5 5000.5 5020.5 5000.5 5030.5 5000.5 5038.6 5006.4 5041.7 5015.9 5044.8 5025.4 5047.9 5034.9 5044.8 5044.4 5036.7 5050.3 5028.6 5056.2 5020.5 5062.1 5010.5 5062.1 5002.4 5056.2 4994.3 5050.3 4986.2 5044.4 4983.1 5034.9 4986.2 5025.4 4989.3 5015.9 4992.4 5006.4 5000.5 5000.5 5010.5 5000.5 5020.5 5000.5 5030.5 5000.5 5038.6 5006.4 5041.7 5015.9 5044.8 5025.4 5047.9 5034.9 5044.8 5044.4" clip-path="url(#a)" fill="none" stroke="#000" stroke-linecap="round"/>
<polyline points="5044.8 5044.4 5036.7 5050.3 5028.6 5056.2 5020.5 5062.1 5010.5 5062.1 5002.4 5056.2 4994.3 5050.3 4986.2 5044.4 4983.1 5034.9 4986.2 5025.4 4989.3 5015.9 4992.4 5006.4 5000.5 5000.5 5010.5 5000.5 5020.5 5000.5 5030.5 5000.5 5038.6 5006.4 5041.7 5015.9 5044.8 5025.4 5047.9 5034.9 5044.8 5044.4 5036.7 5050.3 5028.6 5056.2 5020.5 5062.1 5010.5 5062.1 5002.4 5056.2 4994.3 5050.3 4986.2 5044.4 4983.1 5034.9 4986.2 5025.4 4989.3 5015.9 4992.4 5006.4 5000.5 5000.5 5010.5 5000.5 5020.5 5000.5 5030.5 5000.5 5038.6 5006.4 5041.7 5015.9 5044.8 5025.4 5047.9 5034.9 5044.8 5044.4 5036.7 5050.3 5028.6 5056.2" clip-path="url(#a)" fill="none" stroke="#000" stroke-linecap="round"/>
<polyline points="5028.6 5056.2 5020.5 5062.1 5010.5 5062.1 5002.4 5056.2 4994.3 5050.3 4986.2 5044.4 4983.1 5034.9 4986.2 5025.4 4989.3 5015.9 4992.4 5006.4 5000.5 5000.5 5010.5 5000.5 5020.5 5000.5 5030.5 5000.5 5038.6 5006.4 5041.7 5015.9 5044.8 5025.4 5047.9 5034.9 5044.8 5044.4 5036.7 5050.3 5028.6 5056.2 5020.5 5062.1 5010.5 5062.1 5002.4 5056.2 4994.3 5050.3 4986.2 5044.4 4983.1 5034.9 4986.2 5025.4 4989.3 5015.9 4992.4 5006.4 5000.5 5000.5 5010.5 5000.5 5020.5 5000.5 5030.5 5000.5 5038.6 5006.4 5041.7 5015.9 5044.8 5025.4 5047.9 5034.9 5044.8 5044.4 5036.7 5050.3 5028.6 5056.2 5020.5 5062.1 5010.5 5062.1" clip-path="url(#a)" fill="none" stroke="#000" stroke-linecap="round"/>
<polyline points="5010.5 5062.1 5002.4 5056.2 4994.3 5050.3 4986.2 5044.4 4983.1 5034.9 4986.2 5025.4 4989.3 5015.9 4992.4 5006.4 5000.5 5000.5 5010.5 5000.5 5020.5 5000.5 5030.5 5000.5 5038.6 5006.4 5041.7 5015.9 5044.8 5025.4 5047.9 5034.9 5044.8 5044.4 5036.7 5050.3 5028.6 5056.2 5020.5 5062.1 5010.5 5062.1 5002.4 5056.2 4994.3 5050.3 4986.2 5044.4 4983.1 5034.9 4986.2 5025.4 4989.3 5015.9 4992.4 5006.4 5000.5 5000.5 5010.5 5000.5 5020.5 5000.5 5030.5 5000.5 5038.6 5006.4 5041.7 5015.9 5044.8 5025.4 5047.9 5034.9 5044.8 5044.4 5036.7 5050.3 5028.6 5056.2 5020.5 5062.1 5010.5 5062.1 5002.4 5056.2 4994.3 5050.3" clip-path="url(#a)" fill="none" stroke="#000" stroke-linecap="round"/>
<polyline points="4994.3 5050.3 4986.2 5044.4 4983.1 5034.9 4986.2 5025.4 4989.3 5015.9 4992.4 5006.4 5000.5 5000.5 5010.5 5000.5 5020.5 5000.5 5030.5 5000.5 5038.6 5006.4 5041.7 5015.9 5044.8 5025.4 5047.9 5034.9 5044.8 5044.4 5036.7 5050.3 5028.6 5056.2 5020.5 5062.1 5010.5 5062.1 5002.4 5056.2 4994.3 5050.3 4986.2 5044.4 4983.1 5034.9 4986.2 5025.4 4989.3 5015.9 4992.4 5006.4 5000.5 5000.5 5010.5 5000.5 5020.5 5000.5 5030.5 5000.5 5038.6 5006.4 5041.7 5015.9 5044.8 5025.4 5047.9 5034.9 5044.8 5044.4 5036.7 5050.3 5028.6 5056.2 5020.5 5062.1 5010.5 5062.1 5002.4 5056.2 4994.3 5050.3 4986.2 5044.4 4983.1 5034.9" clip-path="url(#a)" fill="none" stroke="#000" stroke-linecap="round"/>
<polyline points="4983.1 5034.9 4986.2 5025.4 4989.3 5015.9 4992.4 5006.4 5000.5 5000.5 5010.5 5000.5 5020.5 5000.5 5030.5 5000.5 5038.6 5006.4 5041.7 5015.9 5044.8 5025.4 5047.9 5034.9 5044.8 5044.4 5036.7 5050.3 5028.6 5056.2 5020.5 5062.1 5010.5 5062.1 5002.4 5056.2 4994.3 5050.3 4986.2 5044.4 4983.1 5034.9 4986.2 5025.4 4989.3 5015.9 4992.4 5006.4 5000.5 5000.5 5010.5 5000.5 5020.5 5000.5 5030.5 5000.5 5038.6 5006.4 5041.7 5015.9 5044.8 5025.4 5047.9 5034.9 5044.8 5044.4 5036.7 5050.3 5028.6 5056.2 5020.5 5062.1 5010.5 5062.1 5002.4 5056.2 4994.3 5050.3 4986.2 5044.4 4983.1 5034.9 4986.2 5025.4 4989.3 5015.9" clip-path="url(#a)" fill="none" stroke="#000" stroke-linecap="round"/>
<polyline points="4989.3 5015.9 4992.4 5006.4 5000.5 5000.5 5010.5 5000.5 5020.5 5000.5 5030.5 5000.5 5038.6 5006.4 5041.7 5015.9 5044.8 5025.4 5047.9 5034.9 5044.8 5044.4 5036.7 5050.3 5028.6 5056.2 5020.5 5062.1 5010.5 5062.1 5002.4 5056.2 4994.3 5050.3 4986.2 5044.4 4983.1 5034.9 4986.2 5025.4 4989.3 5015.9 4992.4 5006.4 5000.5 5000.5 5010.5 5000.5 5020.5 5000.5 5030.5 5000.5 5038.6 5006.4 5041.7 5015.9 5044.8 5025.4 5047.9 5034.9 5044.8 5044.4 5036.7 5050.3 5028.6 5056.2 5020.5 5062.1 5010.5 5062.1 5002.4 5056.2 4994.3 5050.3 4986.2 5044.4 4983.1 5034.9 4986.2 5025.4 4989.3 5015.9 4992.4 5006.4 5000.5 5000.5" clip-path="url(#a)" fill="none" stroke="#000" stroke-linecap="round"/>
<polyline points="5000.5 5000.5 5010.5 5000.5 5020.5 5000.5 5030.5 5000.5 5038.6 5006.4 5041.7 5015.9 5044.8 5025.4 5047.9 5034.9 5044.8 5044.4 5036.7 5050.3 5028.6 5056.2 5020.5 5062.1 5010.5 5062.1 5002.4 5056.2 4994.3 5050.3 4986.2 5044.4 4983.1 5034.9 4986.2 5025.4 4989.3 5015.9 4992.4 5006.4 5000.5 5000.5 5010.5 5000.5 5020.5 5000.5 5030.5 5000.5 5038.6 5006.4 5041.7 5015.9 5044.8 5025.4 5047.9 5034.9 5044.8 5044.4 5036.7 5050.3 5028.6 5056.2 5020.5 5062.1 5010.5 5062.1 5002.4 5056.2 4994.3 5050.3 4986.2 5044.4 4983.1 5034.9 4986.2 5025.4 4989.3 5015.9 4992.4 5006.4 5000.5 5000.5 5010.5 5000.5 5020.5 5000.5" clip-path="url(#a)" fill="none" stroke="#000" stroke-linecap="round"/>
<polyline points="5020.5 5000.5 5030.5 5000.5 5038.6 5006.4 5041.7 5015.9 5044.8 5025.4 5047.9 5034.9 5044.8 5044.4 5036.7 5050.3 5028.6 5056.2 5020.5 5062.1 5010.5 5062.1 5002.4 5056.2 4994.3 5050.3 4986.2 5044.4 4983.1 5034.9 4986.2 5025.4 4989.3 5015.9 4992.4 5006.4 5000.5 5000.5 5010.5 5000.5 5020.5 5000.5 5030.5 5000.5 5038.6 5006.4 5041.7 5015.9 5044.8 5025.4 5047.9 5034.9 5044.8 5044.4 5036.7 5050.3 5028.6 5056.2 5020.5 5062.1 5010.5 5062.1 5002.4 5056.2 4994.3 5050.3 4986.2 5044.4 4983.1 5034.9 4986.2 5025.4 4989.3 5015.9 4992.4 5006.4 5000.5 5000.5 5010.5 5000.5 5020.5 5000.5 5030.5 5000.5 5038.6 5006.4" clip-path="url(#a)" fill="none" stroke="#000" stroke-linecap="round"/>
<polyline points="5038.6 5006.4 5041.7 5015.9 5044.8 5025.4 5047.9 5034.9 5044.8 5044.4 5036.7 5050.3 5028.6 5056.2 5020.5 5062.1 5010.5 5062.1 5002.4 5056.2 4994.3 5050.3 4986.2 5044.4 4983.1 5034.9 4986.2 5025.4 4989.3 5015.9 4992.4 5006.4 5000.5 5000.5 5010.5 5000.5 5020.5 5000.5 5030.5 5000.5 5038.6 5006.4 5041.7 5015.9 5044.8 5025.4 5047.9 5034.9 5044.8 5044.4 5036.7 5050.3 5028.6 5056.2 5020.5 5062.1 5010.5 5062.1 5002.4 5056.2 4994.3 5050.3 4986.2 5044.4 4983.1 5034.9 4986.2 5025.4 4989.3 5015.9 4992.4 5006.4 5000.5 5000.5 5010.5 5000.5 5020.5 5000.5 5030.5 5000.5 5038.6 5006.4 5041.7 5015.9 5044.8 5025.4" clip-path="url(#a)" fill="none" stroke="#000" stroke-linecap="round"/>
<polyline points="5044.8 5025.4 5047.9 5034.9 5044.8 5044.4 5036.7 5050.3 5028.6 5056.2 5020.5 5062.1 5010.5 5062.1 5002.4 5056.2 4994.3 5050.3 4986.2 5044.4 4983.1 5034.9 4986.2 5025.4 4989.3 5015.9 4992.4 5006.4 5000.5 5000.5 5010.5 5000.5 5020.5 5000.5 5030.5 5000.5 5038.6 5006.4 5041.7 5015.9 5044.8 5025.4 5047.9 5034.9 5044.8 5044.4 5036.7 5050.3 5028.6 5056.2 5020.5 5062.1 5010.5 5062.1 5002.4 5056.2 4994.3 5050.3 4986.2 5044.4 4983.1 5034.9 4986.2 5025.4 4989.3 5015.9 4992.4 5006.4 5000.5 5000.5 5010.5 5000.5 5020.5 5000.5 5030.5 5000.5 5038.6 5006.4 5041.7 5015.9 5044.8 5025.4 5047.9 5034.9 5044.8 5044.4" clip-path="url(#a)" fill="none" stroke="#000" stroke-linecap="round"/>
<polyline points="5044.8 5044.4 5036.7 5050.3 5028.6 5056.2 5020.5 5062.1 5010.5 5062.1 5002.4 5056.2 4994.3 5050.3 4986.2 5044.4 4983.1 5034.9 4986.2 5025.4 4989.3 5015.9 4992.4 5006.4 5000.5 5000.5 5010.5 5000.5 5020.5 5000.5 5030.5 5000.5 5038.6 5006.4 5041.7 5015.9 5044.8 5025.4 5047.9 5034.9 5044.8 5044.4 5036.7 5050.3 5028.6 5056.2 5020.5 5062.1 5010.5 5062.1 5002.4 5056.2 4994.3 5050.3 4986.2 5044.4 4983.1 5034.9 4986.2 5025.4 4989.3 5015.9 4992.4 5006.4 5000.5 5000.5 5010.5 5000.5 5020.5 5000.5 5030.5 5000.5 5038.6 5006.4 5041.7 5015.9 5044.8 5025.4 5047.9 5034.9 5044.8 5044.4 5036.7 5050.3 5028.6 5056.2" clip-path="url(#a)" fill="none" stroke="#000" stroke-linecap="round"/>
<polyline points="5028.6 5056.2 5020.5 5062.1 5010.5 5062.1 5002.4 5056.2 4994.3 5050.3 4986.2 5044.4 4983.1 5034.9 4986.2 5025.4 4989.3 5015.9 4992.4 5006.4 5000.5 5000.5 5010.5 5000.5 5020.5 5000.5 5030.5 5000.5 5038.6 5006.4 5041.7 5015.9 5044.8 5025.4 5047.9 5034.9 5044.8 5044.4 5036.7 5050.3 5028.6 5056.2 5020.5 5062.1 5010.5 5062.1 5002.4 5056.2 4994.3 5050.3 4986.2 5044.4 4983.1 5034.9 4986.2 5025.4 4989.3 5015.9 4992.4 5006.4 5000.5 5000.5 5010.5 5000.5 5020.5 5000.5 5030.5 5000.5 5038.6 5006.4 5041.7 5015.9 5044.8 5025.4 5047.9 5034.9 5044.8 5044.4 5036.7 5050.3 5028.6 5056.2 5020.5 5062.1 5010.5 5062.1" clip-path="url(#a)" fill="none" stroke="#000" stroke-linecap="round"/>
<polyline points="5010.5 5062.1 5002.4 5056.2 4994.3 5050.3 4986.2 5044.4 4983.1 5034.9 4986.2 5025.4 4989.3 5015.9 4992.4 5006.4 5000.5 5000.5 5010.5 5000.5 5020.5 5000.5 5030.5 5000.5 5038.6 5006.4 5041.7 5015.9 5044.8 5025.4 5047.9 5034.9 5044.8 5044.4 5036.7 5050.3 5028.6 5056.2 5020.5 5062.1 5010.5 5062.1 5002.4 5056.2 4994.3 5050.3 4986.2 5044.4 4983.1 5034.9 4986.2 5025.4 4989.3 5015.9 4992.4 5006.4 5000.5 5000.5 5010.5 5000.5 5020.5 5000.5 5030.5 5000.5 5038.6 5006.4 5041.7 5015.9 5044.8 5025.4 5047.9 5034.9 5044.8 5044.4 5036.7 5050.3 5028.6 5056.2 5020.5 5062.1 5010.5 5062.1 5002.4 5056.2 4994.3 5050.3" clip-path="url(#a)" fill="none" stroke="#000" stroke-linecap="round"/>
<polyline points="4994.3 5050.3 4986.2 5044.4 4983.1 5034.9 4986.2 5025.4 4989.3 5015.9 4992.4 5006.4 5000.5 5000.5 5010.5 5000.5 5020.5 5000.5 5030.5 5000.5 5038.6 5006.4 5041.7 5015.9 5044.8 5025.4 5047.9 5034.9 5044.8 5044.4 5036.7 5050.3 5028.6 5056.2 5020.5 5062.1 5010.5 5062.1 5002.4 5056.2 4994.3 5050.3 4986.2 5044.4 4983.1 5034.9 4986.2 5025.4 4989.3 5015.9 4992.4 5006.4 5000.5 5000.5" clip-path="url(#a)" fill="none" stroke="#000" stroke-linecap="round"/>
</svg>
