<?xml version="1.0" encoding="utf-8" ?>
<svg baseProfile="full" height="1000px" version="1.1" width="1000px" xmlns="http://www.w3.org/2000/svg" xmlns:ev="http://www.w3.org/2001/xml-events" xmlns:xlink="http://www.w3.org/1999/xlink"><defs><clipPath id="border_clip"><rect height="1000" width="1000" x="0" y="0" /></clipPath></defs><polyline clip-path="url(#border_clip)" fill="none" points="500.5,500.5 510.5,500.5 520.5,500.5 528.5901699437495,506.37785252292474 520.5,512.2557050458495 512.4098300562505,518.1335575687742 504.319660112501,512.2557050458495 512.4098300562505,506.37785252292474 504.319660112501,500.5 512.4098300562505,494.62214747707526 520.5,500.5 510.5,500.5 518.5901699437495,506.37785252292474 526.6803398874989,512.2557050458495 518.5901699437494,518.1335575687742 515.5,508.6229924058227 523.5901699437494,514.5008449287474 513.5901699437494,514.5008449287474 505.5,508.62299240582263 502.40983005625054,499.1124272428711 499.3196601125011,489.60186207991956 489.3196601125011,489.6018620799195 481.2294901687516,483.72400955699476 471.2294901687516,483.72400955699476 468.1393202250021,493.23457471994624 465.04915028125265,483.7240095569947 455.04915028125265,483.7240095569947 446.9589803375032,489.6018620799194 455.04915028125265,495.4797146028441 446.9589803375032,489.6018620799194 443.86881039375373,480.09129691696785 433.86881039375373,480.0912969169678 430.7786404500042,489.60186207991933 440.7786404500042,489.6018620799194 437.68847050625476,480.09129691696785 434.59830056250536,470.58073175401626 431.5081306187559,461.0701665910647 434.5983005625054,451.5596014281132 442.6884705062549,457.437453951038 450.77864045000433,463.3153064739627 447.6884705062548,472.82587163691426 439.59830056250536,466.94801911398946 436.50813061875584,476.458584276941" stroke="black" stroke-linecap="round" stroke-width="1" /><polyline clip-path="url(#border_clip)" fill="none" points="436.50813061875584,476.458584276941 428.4179606750064,470.58073175401626 431.5081306187559,461.0701665910647 434.59830056250536,470.58073175401626 437.6884705062549,461.0701665910647 440.7786404500044,451.55960142811324 448.86881039375385,457.437453951038 440.77864045000433,463.31530647396266 443.86881039375385,453.8047413110112 446.95898033750325,463.3153064739627 443.86881039375373,472.82587163691426 435.7786404500042,478.70372415983894 427.6884705062547,484.5815766827636 430.7786404500041,494.09214184571516 427.6884705062546,503.6027070086667 430.778640450004,513.1132721716183 440.778640450004,513.1132721716183 432.6884705062545,518.991124694543 435.7786404500039,528.5016898574946 443.86881039375334,534.3795423804194 446.9589803375029,524.8689772174679 443.86881039375334,534.3795423804194 435.7786404500038,540.257394903344 438.8688103937532,549.7679600662956 448.8688103937532,549.7679600662957 445.7786404500038,540.2573949033441 437.6884705062543,546.1352474262688 429.59830056250473,552.0130999491935 421.5081306187552,557.8909524721181 411.5081306187552,557.8909524721181 414.5983005625048,548.3803873091665 417.68847050625436,538.869822146215 427.68847050625436,538.8698221462151 424.5983005625048,548.3803873091666 434.5983005625048,548.3803873091667 431.5081306187552,557.8909524721182 421.5081306187552,557.8909524721181 429.5983005625048,552.0130999491935 419.59830056250473,552.0130999491934 409.59830056250473,552.0130999491932 412.6884705062543,542.5025347862418 420.77864045000376,548.3803873091666 410.77864045000376,548.3803873091665" stroke="black" stroke-linecap="round" stroke-width="1" /><polyline clip-path="url(#border_clip)" fill="none" points="410.77864045000376,548.3803873091665 418.8688103937533,542.5025347862419 428.8688103937533,542.5025347862419 436.95898033750274,548.3803873091667 445.04915028125214,554.2582398320916 453.1393202250017,548.380387309167 463.1393202250017,548.3803873091671 471.2294901687513,542.5025347862423 468.1393202250019,532.9919696232907 476.2294901687513,538.8698221462156 484.31966011250086,532.991969623291 487.4098300562504,523.4814044603395 477.4098300562504,523.4814044603394 487.4098300562504,523.4814044603395 495.4999999999999,529.3592569832642 503.5901699437494,523.4814044603396 500.50000000000006,513.970839297388 492.4098300562505,519.8486918203126 500.49999999999994,525.7265443432375 508.59016994374934,531.6043968661623 516.6803398874988,537.4822493890872 519.7705098312481,546.9928145520388 509.77050983124815,546.9928145520387 499.7705098312481,546.9928145520386 496.68033988749875,537.482249389087 506.68033988749875,537.4822493890871 503.5901699437494,527.9716842261355 513.5901699437494,527.9716842261356 516.6803398874988,537.4822493890872 508.59016994374934,531.6043968661623 511.6803398874987,541.1149620291139 514.7705098312481,550.6255271920655 504.77050983124803,550.6255271920654 507.86067977499766,541.1149620291139 510.950849718747,550.6255271920655 502.8606797749976,544.7476746691407 499.77050983124826,535.2371095061891 502.86067977499783,525.7265443432375 505.95084971874746,516.215979180286 497.86067977499806,510.33812665736116 494.7705098312487,500.82756149440957 486.6803398874993,494.9497089714847 478.59016994374974,500.82756149440934" stroke="black" stroke-linecap="round" stroke-width="1" /><polyline clip-path="url(#border_clip)" fill="none" points="478.59016994374974,500.82756149440934 481.6803398874993,491.3169963314578 473.5901699437499,485.43914380853295 463.5901699437499,485.4391438085328 466.68033988749926,494.9497089714844 463.5901699437499,485.4391438085328 466.68033988749954,475.9285786455813 458.5901699437501,470.05072612265644 450.5000000000005,475.92857864558107 458.5901699437499,481.8064311685059 461.68033988749954,472.2958660055544 464.77050983124917,462.78530084260285 467.8606797749988,453.27473567965137 475.9508497187484,447.39688315672674 479.0410196624977,456.90744831967834 482.13118960624706,466.41801348262993 474.0410196624975,472.29586600555456 470.95084971874815,462.78530084260296 462.8606797749986,468.6631533655276 459.7705098312492,459.152588202576 467.8606797749988,453.27473567965137 464.77050983124917,462.78530084260285 472.8606797749988,456.9074483196783 480.9508497187484,451.02959579675365 484.0410196624977,460.54016095970525 474.04101966249766,460.5401609597051 482.1311896062473,454.6623084367805 479.0410196624976,464.172873599732 470.95084971874803,470.0507261226566 460.950849718748,470.05072612265644 450.950849718748,470.0507261226563 447.8606797749983,479.56129128560775 439.7705098312487,485.4391438085324 436.68033988749903,494.94970897148386 444.77050983124843,500.82756149440877 434.77050983124843,500.8275614944086 431.68033988749875,510.3381266573601 434.7705098312481,519.8486918203117 442.86067977499766,513.9708392973871 434.7705098312481,519.8486918203117 424.77050983124803,519.8486918203115 421.68033988749835,529.3592569832631 429.77050983124775,535.237109506188" stroke="black" stroke-linecap="round" stroke-width="1" /><polyline clip-path="url(#border_clip)" fill="none" points="429.77050983124775,535.237109506188 432.86067977499744,525.7265443432365 422.8606797749974,525.7265443432362 412.8606797749974,525.726544343236 402.8606797749974,525.7265443432359 394.770509831248,519.8486918203109 402.8606797749976,513.9708392973863 410.9508497187472,508.0929867744618 419.0410196624966,513.9708392973866 410.95084971874695,519.8486918203113 419.04101966249635,525.7265443432361 410.9508497187467,531.6043968661608 402.8606797749974,525.7265443432359 412.8606797749974,525.726544343236 404.770509831248,519.8486918203112 396.68033988749863,513.9708392973862 404.77050983124826,508.0929867744616 407.86067977499755,517.6035519374133 399.7705098312482,511.72569941448836 409.7705098312482,511.7256994144886 417.8606797749976,517.6035519374135 420.95084971874684,527.1141171003651 424.0410196624961,536.6246822633168 434.0410196624962,536.624682263317 442.1311896062455,542.5025347862419 452.1311896062456,542.5025347862421 455.22135954999527,532.9919696232906 458.3115294937445,542.5025347862422 468.31152949374456,542.5025347862424 476.4016994374942,536.6246822633179 468.31152949374484,530.746829740393 476.4016994374942,536.6246822633179 479.4918693812435,546.1352474262695 489.4918693812435,546.1352474262698 492.5820393249932,536.6246822633183 482.58203932499316,536.624682263318 485.67220926874245,546.1352474262696 488.7623792124917,555.6458125892214 491.85254915624097,565.156377752173 488.7623792124912,574.6669429151245 480.6722092687419,568.7890903921996 472.58203932499254,562.9112378692746 475.6722092687422,553.4006727063231" stroke="black" stroke-linecap="round" stroke-width="1" /><polyline clip-path="url(#border_clip)" fill="none" points="475.6722092687422,553.4006727063231 483.7623792124916,559.2785252292481 486.8525491562413,549.7679600662966 494.94271909999065,555.6458125892215 491.85254915624097,565.1563777521731 488.7623792124917,555.6458125892214 485.672209268742,565.1563777521728 482.58203932499225,574.6669429151243 474.4918693812429,568.7890903921993 482.58203932499254,562.9112378692748 479.49186938124285,572.4218030322263 476.40169943749356,562.9112378692747 479.4918693812433,553.4006727063232 487.582039324993,547.5228201833986 495.6722092687426,541.6449676604741 492.5820393249934,532.1344024975225 495.67220926874313,522.6238373345709 492.5820393249939,513.1132721716193 482.58203932499384,513.1132721716191 490.6722092687435,507.2354196486945 487.58203932499424,497.72485448574287 479.4918693812449,491.8470019628179 476.40169943749515,501.3575671257694 479.4918693812449,491.8470019628179 487.5820393249946,485.96914943989333 484.49186938124535,476.4585842769417 474.4918693812453,476.45858427694145 477.5820393249945,485.9691494398931 485.6722092687442,480.09129691696853 493.7623792124939,474.213444394044 501.8525491562435,468.3355918711195 511.8525491562436,468.33559187111973 508.76237921249384,477.8461570340712 505.6722092687441,487.35672219702275 495.67220926874404,487.35672219702246 498.7623792124938,477.846157034071 488.7623792124938,477.8461570340707 491.8525491562435,468.33559187111916 501.8525491562435,468.3355918711195 493.7623792124939,474.213444394044 503.7623792124939,474.2134443940443 513.7623792124939,474.2134443940446 510.6722092687442,483.72400955699607" stroke="black" stroke-linecap="round" stroke-width="1" /><polyline clip-path="url(#border_clip)" fill="none" points="510.6722092687442,483.72400955699607 502.58203932499487,477.84615703407104 512.5820393249949,477.8461570340713 504.49186938124524,483.7240095569959 494.4918693812452,483.72400955699555 486.40169943749584,477.8461570340706 478.3115294937465,471.96830451114556 470.2213595499968,477.8461570340701 460.2213595499968,477.8461570340698 452.1311896062471,483.7240095569943 455.2213595499963,493.23457471994595 447.13118960624695,487.356722197021 439.0410196624973,493.2345747199455 435.9508497187475,502.745139882897 445.9508497187476,502.74513988289726 435.9508497187475,502.745139882897 427.8606797749982,496.86728735997195 419.7705098312485,502.74513988289647 422.8606797749977,512.2557050458481 430.95084971874735,506.3778525229236 422.86067977499806,500.49999999999864 414.7705098312488,494.6221474770736 406.68033988749943,488.7442949541486 403.59016994375025,479.23372979119694 413.5901699437503,479.2337297911972 423.5901699437503,479.23372979119756 426.6803398874995,488.7442949541492 416.6803398874995,488.7442949541489 419.77050983124866,498.2548601171006 409.7705098312486,498.2548601171003 406.68033988749943,488.7442949541486 414.7705098312488,494.6221474770736 411.6803398874996,485.11158231412196 408.5901699437504,475.60101715117025 418.5901699437504,475.6010171511706 415.5000000000007,485.1115823141221 412.4098300562515,475.60101715117037 420.5000000000008,481.4788696740954 423.59016994374997,490.9894348370471 420.50000000000017,500.4999999999986 417.40983005625037,510.01056516295006 425.49999999999966,515.8884176858751 428.59016994374883,525.3989828488268" stroke="black" stroke-linecap="round" stroke-width="1" /><polyline clip-path="url(#border_clip)" fill="none" points="428.59016994374883,525.3989828488268 436.6803398874981,531.2768353717518 444.77050983124786,525.3989828488274 441.680339887498,534.9095480117787 449.77050983124735,540.7874005347038 459.7705098312474,540.7874005347041 456.68033988749823,531.2768353717524 459.7705098312474,540.7874005347041 456.68033988749755,550.2979656976556 464.77050983124684,556.1758182205807 472.8606797749966,550.2979656976562 464.7705098312473,544.4201131747311 461.68033988749744,553.9306783376826 458.59016994374764,563.4412435006341 455.49999999999784,572.9518086635856 447.4098300562481,578.8296611865101 444.3196601124989,569.3190960235584 441.2294901687498,559.8085308606067 449.3196601124995,553.9306783376821 452.40983005624867,563.4412435006338 460.4999999999984,557.5633909777094 463.5901699437475,567.0739561406612 455.4999999999978,572.9518086635856 458.59016994374764,563.4412435006341 450.4999999999979,569.3190960235586 442.40983005624815,575.1969485464831 439.31966011249904,565.6863833835314 449.3196601124991,565.6863833835317 441.22949016874935,571.5642359064561 444.3196601124992,562.0536707435047 452.40983005624895,556.1758182205803 462.409830056249,556.1758182205806 472.409830056249,556.175818220581 475.49999999999886,546.6652530576296 483.5901699437486,540.7874005347051 486.68033988749846,531.2768353717536 478.5901699437492,525.3989828488285 488.59016994374923,525.398982848829 491.6803398874991,515.8884176858775 488.59016994374997,506.37785252292576 480.5000000000002,512.2557050458502 488.59016994374997,506.37785252292576 498.59016994375,506.37785252292616" stroke="black" stroke-linecap="round" stroke-width="1" /><polyline clip-path="url(#border_clip)" fill="none" points="498.59016994375,506.37785252292616 501.6803398874999,496.8672873599747 493.5901699437506,490.9894348370496 490.50000000000074,500.5000000000011 500.5000000000008,500.5000000000015 510.50000000000085,500.5000000000019 520.5000000000009,500.5000000000023 528.5901699437502,506.37785252292736 520.5000000000005,512.2557050458518 512.4098300562507,518.1335575687763 504.3196601125014,512.2557050458512 512.4098300562512,506.3778525229267 504.3196601125019,500.5000000000016 512.4098300562516,494.62214747707714 520.5000000000009,500.5000000000023 510.50000000000085,500.5000000000019 518.5901699437501,506.37785252292696 526.6803398874994,512.2557050458521 518.5901699437496,518.1335575687765 515.5000000000006,508.6229924058248 523.5901699437499,514.5008449287499 513.5901699437497,514.5008449287494 505.5000000000005,508.62299240582433 502.4098300562514,499.1124272428726 499.3196601125023,489.6018620799209 489.3196601125022,489.60186207992047 481.22949016875293,483.7240095569954 471.2294901687529,483.72400955699493 468.13932022500296,493.2345747199464 465.0491502812539,483.7240095569947 455.04915028125384,483.72400955699425 446.95898033750404,489.6018620799187 455.04915028125333,495.4797146028438 446.95898033750404,489.6018620799187 443.868810393755,480.09129691696694 433.86881039375487,480.09129691696654 430.778640450005,489.601862079918 440.77864045000507,489.6018620799184 437.68847050625595,480.0912969169667 434.5983005625069,470.58073175401495 431.50813061875783,461.07016659106324 434.5983005625077,451.55960142811176 442.688470506257,457.4374539510369" stroke="black" stroke-linecap="round" stroke-width="1" /><polyline clip-path="url(#border_clip)" fill="none" points="442.688470506257,457.4374539510369 450.77864045000626,463.315306473962 447.68847050625635,472.82587163691346 439.59830056250706,466.9480191139884 436.50813061875715,476.4585842769398 428.41796067500786,470.58073175401466 431.50813061875783,461.07016659106324 434.5983005625069,470.58073175401495 437.6884705062568,461.0701665910635 440.7786404500067,451.55960142811205 448.868810393756,457.4374539510372 440.7786404500062,463.3153064739616 443.8688103937561,453.8047413110101 446.9589803375052,463.31530647396187 443.86881039375527,472.8258716369133 435.77864045000547,478.7037241598377 427.68847050625567,484.5815766827621 430.77864045000473,494.09214184571385 427.6884705062548,503.60270700866533 430.7786404500039,513.113272171617 440.77864045000393,513.1132721716175 432.68847050625413,518.9911246945419 435.7786404500032,528.5016898574937 443.8688103937524,534.3795423804188 446.9589803375024,524.8689772174673 443.8688103937524,534.3795423804188 435.7786404500026,540.2573949033432 438.8688103937517,549.767960066295 448.86881039375174,549.7679600662955 445.77864045000274,540.2573949033437 437.6884705062529,546.135247426268 429.5983005625031,552.0130999491925 421.5081306187533,557.8909524721169 411.5081306187532,557.8909524721164 414.59830056250314,548.3803873091649 417.6884705062531,538.8698221462134 427.68847050625317,538.8698221462139 424.5983005625032,548.3803873091654 434.59830056250325,548.3803873091658 431.50813061875334,557.8909524721173 421.5081306187533,557.8909524721169 429.5983005625031,552.0130999491925 419.598300562503,552.013099949192" stroke="black" stroke-linecap="round" stroke-width="1" /><polyline clip-path="url(#border_clip)" fill="none" points="419.598300562503,552.013099949192 409.5983005625029,552.0130999491915 412.6884705062529,542.5025347862401 420.7786404500021,548.3803873091653 410.77864045000206,548.3803873091647 418.8688103937519,542.5025347862404 428.86881039375197,542.5025347862409 436.9589803375012,548.380387309166 445.04915028125043,554.2582398320911 453.1393202250003,548.3803873091668 463.13932022500035,548.3803873091673 471.2294901687502,542.5025347862429 468.13932022500114,532.9919696232912 476.2294901687504,538.8698221462164 484.31966011250023,532.991969623292 487.4098300562502,523.4814044603405 477.40983005625014,523.4814044603401 487.4098300562502,523.4814044603405 495.49999999999943,529.3592569832657 503.5901699437493,523.4814044603413 500.5000000000003,513.9708392973896 492.4098300562504,519.8486918203139 500.49999999999966,525.7265443432391 508.5901699437489,531.6043968661643 516.6803398874981,537.4822493890895 519.7705098312472,546.9928145520413 509.77050983124707,546.9928145520407 499.77050983124695,546.9928145520403 496.68033988749795,537.4822493890885 506.68033988749806,537.482249389089 503.59016994374906,527.9716842261372 513.5901699437492,527.9716842261378 516.6803398874981,537.4822493890895 508.5901699437489,531.6043968661643 511.6803398874979,541.1149620291161 514.7705098312468,550.6255271920679 504.77050983124684,550.6255271920674 507.8606797749968,541.1149620291159 510.9508497187458,550.6255271920677 502.8606797749966,544.7476746691425 499.7705098312476,535.2371095061907 502.8606797749976,525.7265443432392 505.95084971874763,516.2159791802878" stroke="black" stroke-linecap="round" stroke-width="1" /><polyline clip-path="url(#border_clip)" fill="none" points="505.95084971874763,516.2159791802878 497.8606797749984,510.3381266573626 494.7705098312494,500.8275614944108 486.68033988750017,494.94970897148556 478.5901699437503,500.8275614944099 481.68033988750034,491.3169963314585 473.5901699437511,485.4391438085333 463.59016994375105,485.4391438085327 466.6803398875,494.9497089714845 463.59016994375105,485.4391438085327 466.6803398875011,475.9285786455813 458.59016994375185,470.05072612265604 450.500000000002,475.9285786455804 458.5901699437512,481.80643116850564 461.6803398875012,472.29586600555416 464.7705098312512,462.78530084260274 467.86067977500124,453.27473567965126 475.9508497187511,447.396883156727 479.0410196625001,456.90744831967874 482.13118960624905,466.4180134826305 474.0410196624992,472.29586600555484 470.95084971875025,462.7853008426031 462.86067977500034,468.66315336552736 459.7705098312514,459.1525882025756 467.86067977500124,453.27473567965126 464.7705098312512,462.78530084260274 472.86067977500113,456.9074483196784 480.950849718751,451.02959579675405 484.04101966249993,460.5401609597059 474.0410196624999,460.5401609597053 482.13118960624973,454.66230843678096 479.0410196624997,464.1728735997324 470.9508497187498,470.0507261226567 460.95084971874974,470.05072612265616 450.9508497187496,470.0507261226556 447.8606797749996,479.561291285607 439.77050983124974,485.43914380853136 436.68033988749966,494.9497089714828 444.7705098312489,500.82756149440803 434.7705098312488,500.82756149440746 431.68033988749875,510.3381266573589 434.7705098312477,519.8486918203107 442.8606797749976,513.9708392973863" stroke="black" stroke-linecap="round" stroke-width="1" /><polyline clip-path="url(#border_clip)" fill="none" points="442.8606797749976,513.9708392973863 434.7705098312477,519.8486918203107 424.77050983124764,519.8486918203101 421.68033988749755,529.3592569832615 429.7705098312467,535.2371095061868 432.8606797749968,525.7265443432353 422.8606797749967,525.7265443432348 412.86067977499664,525.7265443432342 402.8606797749966,525.7265443432336 394.77050983124735,519.8486918203083 402.86067977499727,513.970839297384 410.9508497187471,508.09298677445975 419.0410196624963,513.9708392973849 410.95084971874644,519.8486918203093 419.0410196624956,525.7265443432345 410.95084971874576,531.6043968661588 402.8606797749966,525.7265443432336 412.86067977499664,525.7265443432342 404.7705098312474,519.8486918203089 396.68033988749823,513.9708392973837 404.77050983124815,508.09298677445935 407.86067977499704,517.6035519374111 399.77050983124786,511.72569941448586 409.770509831248,511.7256994144865 417.86067977499715,517.6035519374118 420.9508497187461,527.1141171003636 424.041019662495,536.6246822633154 434.04101966249505,536.624682263316 442.1311896062443,542.5025347862413 452.13118960624433,542.5025347862419 455.2213595499944,532.9919696232905 458.31152949374336,542.5025347862422 468.3115294937435,542.5025347862429 476.40169943749333,536.6246822633186 468.31152949374416,530.7468297403933 476.40169943749333,536.6246822633186 479.4918693812423,546.1352474262704 489.4918693812424,546.135247426271 492.5820393249925,536.6246822633196 482.58203932499237,536.624682263319 485.67220926874126,546.1352474262708 488.7623792124902,555.6458125892226 491.8525491562391,565.1563777521744" stroke="black" stroke-linecap="round" stroke-width="1" /><polyline clip-path="url(#border_clip)" fill="none" points="491.8525491562391,565.1563777521744 488.762379212489,574.6669429151259 480.67220926873983,568.7890903922006 472.58203932499066,562.9112378692753 475.67220926874074,553.4006727063238 483.7623792124899,559.2785252292491 486.85254915624,549.7679600662977 494.9427190999892,555.6458125892229 491.8525491562391,565.1563777521744 488.7623792124902,555.6458125892226 485.6722092687401,565.1563777521741 482.58203932499,574.6669429151254 474.4918693812408,568.7890903922003 482.5820393249907,562.911237869276 479.49186938124063,572.4218030322273 476.40169943749174,562.9112378692755 479.4918693812418,553.4006727063241 487.5820393249918,547.5228201833999 495.6722092687417,541.6449676604756 492.5820393249928,532.1344024975238 495.6722092687429,522.6238373345723 492.582039324994,513.1132721716205 482.58203932499396,513.1132721716198 490.67220926874387,507.23541964869554 487.582039324995,497.7248544857437 479.4918693812458,491.8470019628184 476.40169943749567,501.35756712576983 479.4918693812458,491.8470019628184 487.5820393249957,485.9691494398941 484.4918693812469,476.4585842769423 474.4918693812468,476.4585842769417 477.58203932499566,485.9691494398935 485.6722092687456,480.0912969169692 493.76237921249555,474.213444394045 501.85254915624546,468.3355918711207 511.8525491562456,468.3355918711214 508.76237921249543,477.8461570340728 505.6722092687453,487.3567221970242 495.6722092687452,487.3567221970236 498.7623792124953,477.8461570340721 488.76237921249526,477.8461570340715 491.8525491562454,468.3355918711201 501.85254915624546,468.33559187112076" stroke="black" stroke-linecap="round" stroke-width="1" /><polyline clip-path="url(#border_clip)" fill="none" points="501.85254915624546,468.33559187112076 493.76237921249555,474.213444394045 503.76237921249566,474.21344439404567 513.7623792124957,474.2134443940463 510.6722092687456,483.72400955699777 502.58203932499646,477.8461570340724 512.5820393249966,477.8461570340731 504.4918693812466,483.7240095569973 494.4918693812465,483.72400955699663 486.4016994374973,477.8461570340713 478.31152949374814,471.96830451114596 470.2213595499982,477.8461570340702 460.2213595499981,477.8461570340695 452.13118960624814,483.7240095569938 455.221359549997,493.2345747199456 447.13118960624786,487.35672219702025 439.0410196624979,493.2345747199445 435.95084971874775,502.7451398828959 445.9508497187478,502.7451398828966 435.95084971874775,502.7451398828959 427.8606797749986,496.8672873599706 419.77050983124866,502.7451398828948 422.8606797749975,512.2557050458466 430.95084971874746,506.3778525229224 422.8606797749983,500.49999999999704 414.7705098312491,494.62214747707174 406.6803398875,488.74429495414637 403.59016994375116,479.2337297911945 413.5901699437512,479.23372979119523 423.59016994375133,479.2337297911959 426.68033988750017,488.74429495414773 416.6803398875001,488.74429495414705 419.77050983124894,498.25486011709893 409.77050983124883,498.2548601170982 406.6803398875,488.74429495414637 414.7705098312491,494.62214747707174 411.6803398875003,485.11158231411986 408.59016994375145,475.601017151168 418.59016994375156,475.6010171511687 415.50000000000136,485.11158231412014 412.40983005625253,475.60101715116826 420.5000000000017,481.47886967409363 423.59016994375054,490.9894348370455" stroke="black" stroke-linecap="round" stroke-width="1" /><polyline clip-path="url(#border_clip)" fill="none" points="423.59016994375054,490.9894348370455 420.50000000000034,500.49999999999693 417.40983005625014,510.0105651629483 425.49999999999926,515.8884176858737 428.5901699437481,525.3989828488255 436.6803398874972,531.276835371751 444.7705098312472,525.3989828488267 441.680339887497,534.9095480117782 449.77050983124616,540.7874005347035 459.7705098312463,540.7874005347043 456.68033988749744,531.2768353717524 459.7705098312463,540.7874005347043 456.6803398874961,550.2979656976556 464.7705098312452,556.175818220581 472.86067977499516,550.2979656976569 464.77050983124604,544.4201131747315 461.68033988749585,553.9306783376828 458.59016994374565,563.4412435006343 455.49999999999545,572.9518086635857 447.4098300562454,578.8296611865098 444.31966011249665,569.319096023558 441.2294901687478,559.8085308606062 449.3196601124978,553.9306783376819 452.4098300562466,563.4412435006338 460.4999999999966,557.5633909777096 463.5901699437454,567.0739561406615 455.4999999999954,572.9518086635857 458.59016994374565,563.4412435006343 450.4999999999956,569.3190960235585 442.40983005624565,575.1969485464826 439.3196601124968,565.6863833835307 449.31966011249693,565.6863833835315 441.2294901687469,571.5642359064557 444.31966011249716,562.0536707435043 452.4098300562472,556.1758182205801 462.4098300562473,556.1758182205808 472.40983005624736,556.1758182205816 475.4999999999976,546.6652530576303 483.59016994374764,540.7874005347061 486.68033988749784,531.2768353717546 478.5901699437487,525.3989828488292 488.59016994374883,525.39898284883 491.6803398874991,515.8884176858786" stroke="black" stroke-linecap="round" stroke-width="1" /><polyline clip-path="url(#border_clip)" fill="none" points="491.6803398874991,515.8884176858786 488.5901699437503,506.37785252292673 480.5000000000003,512.2557050458508 488.5901699437503,506.37785252292673 498.5901699437504,506.37785252292747 501.6803398875006,496.8672873599761 493.59016994375156,490.9894348370507 490.5000000000013,500.50000000000205 500.5000000000014,500.50000000000284 510.50000000000153,500.5000000000036 520.5000000000016,500.5000000000044 528.5901699437508,506.3778525229298 520.5000000000007,512.2557050458539 512.4098300562507,518.1335575687781 504.3196601125016,512.2557050458527 512.4098300562516,506.37785252292855 504.3196601125025,500.5000000000031 512.4098300562525,494.62214747707895 520.5000000000016,500.5000000000044 510.50000000000153,500.5000000000036 518.5901699437507,506.377852522929 526.6803398874997,512.2557050458545 518.5901699437497,518.1335575687787 515.5000000000009,508.6229924058267 523.5901699437501,514.5008449287521 513.59016994375,514.5008449287513 505.50000000000085,508.6229924058259 502.4098300562521,499.11242724287405 499.3196601125033,489.60186207992217 489.3196601125032,489.6018620799214 481.2294901687541,483.72400955699595 471.229490168754,483.72400955699516 468.13932022500376,493.2345747199465 465.049150281255,483.72400955699464 455.04915028125487,483.72400955699385 446.95898033750484,489.60186207991796 455.0491502812539,495.47971460284344 446.95898033750484,489.60186207991796 443.86881039375606,480.0912969169661 433.86881039375595,480.0912969169653 430.7786404500057,489.60186207991666 440.7786404500058,489.6018620799175 437.6884705062571,480.0912969169656" stroke="black" stroke-linecap="round" stroke-width="1" /><polyline clip-path="url(#border_clip)" fill="none" points="437.6884705062571,480.0912969169656 434.5983005625083,470.5807317540137 431.5081306187596,461.0701665910618 434.59830056250985,451.5596014281104 442.68847050625897,457.4374539510359 450.778640450008,463.3153064739613 447.6884705062578,472.8258716369127 439.59830056250865,466.94801911398724 436.5081306187584,476.45858427693867 428.4179606750093,470.5807317540132 431.5081306187596,461.0701665910618 434.5983005625083,470.5807317540137 437.6884705062586,461.0701665910623 440.7786404500089,451.5596014281109 448.868810393758,457.4374539510364 440.7786404500079,463.3153064739605 443.8688103937582,453.80474131100914 446.95898033750694,463.315306473961 443.86881039375663,472.8258716369124 435.7786404500066,478.70372415983655 427.6884705062565,484.58157668276067 430.77864045000524,494.09214184571255 427.68847050625493,503.60270700866397 430.77864045000365,513.1132721716159 440.77864045000376,513.1132721716167 432.68847050625374,518.9911246945409 435.77864045000246,528.5016898574927 443.8688103937515,534.3795423804182 446.9589803375018,524.8689772174669 443.8688103937515,534.3795423804182 435.77864045000143,540.2573949033423 438.86881039375015,549.7679600662942 448.86881039375027,549.7679600662951 445.7786404500016,540.2573949033432 437.6884705062515,546.1352474262673 429.59830056250144,552.0130999491914 421.50813061875135,557.8909524721155 411.50813061875124,557.8909524721147 414.59830056250155,548.3803873091633 417.68847050625186,538.8698221462118 427.68847050625203,538.8698221462128 424.59830056250166,548.3803873091641 434.59830056250183,548.380387309165" stroke="black" stroke-linecap="round" stroke-width="1" /><polyline clip-path="url(#border_clip)" fill="none" points="434.59830056250183,548.380387309165 431.50813061875147,557.8909524721164 421.50813061875135,557.8909524721155 429.59830056250144,552.0130999491914 419.5983005625013,552.0130999491905 409.5983005625012,552.0130999491897 412.6884705062515,542.5025347862384 420.7786404500006,548.3803873091638 410.77864045000047,548.380387309163 418.86881039375055,542.5025347862388 428.86881039375066,542.5025347862397 436.9589803374997,548.3803873091653 445.0491502812488,554.2582398320907 453.13932022499887,548.3803873091666 463.139320224999,548.3803873091675 471.22949016874907,542.5025347862434 468.1393202250004,532.9919696232914 476.22949016874946,538.869822146217 484.31966011249955,532.9919696232929 487.4098300562499,523.4814044603415 477.4098300562498,523.4814044603406 487.4098300562499,523.4814044603415 495.499999999999,529.3592569832671 503.59016994374906,523.4814044603429 500.5000000000004,513.970839297391 492.40983005625026,519.8486918203151 500.4999999999993,525.7265443432406 508.5901699437484,531.6043968661661 516.6803398874974,537.4822493890916 519.7705098312462,546.9928145520436 509.770509831246,546.9928145520427 499.7705098312459,546.9928145520418 496.6803398874972,537.4822493890899 506.6803398874973,537.4822493890907 503.59016994374866,527.9716842261388 513.5901699437488,527.9716842261397 516.6803398874974,537.4822493890916 508.59016994374844,531.6043968661661 511.6803398874971,541.114962029118 514.7705098312457,550.62552719207 504.7705098312456,550.6255271920691 507.86067977499596,541.1149620291177 510.9508497187446,550.6255271920696" stroke="black" stroke-linecap="round" stroke-width="1" /><polyline clip-path="url(#border_clip)" fill="none" points="510.9508497187446,550.6255271920696 502.86067977499556,544.7476746691441 499.77050983124695,535.2371095061922 502.8606797749973,525.7265443432408 505.9508497187477,516.2159791802894 497.86067977499863,510.3381266573639 494.77050983125,500.82756149441195 486.68033988750096,494.9497089714864 478.5901699437508,500.8275614944105 481.6803398875012,491.3169963314591 473.5901699437522,485.4391438085335 463.5901699437521,485.4391438085326 466.6803398875007,494.94970897148454 463.5901699437521,485.4391438085326 466.68033988750244,475.92857864558124 458.5901699437534,470.0507261226557 450.5000000000033,475.92857864557976 458.5901699437523,481.8064311685053 461.6803398875027,472.29586600555393 464.7705098312531,462.78530084260257 467.8606797750035,453.2747356796512 475.9508497187536,447.39688315672714 479.04101966250226,456.9074483196791 482.13118960625087,466.418013482631 474.04101966250073,472.29586600555507 470.9508497187521,462.78530084260314 462.860679775002,468.6631533655272 459.7705098312534,459.15258820257526 467.8606797750035,453.2747356796512 464.7705098312531,462.78530084260257 472.86067977500323,456.9074483196785 480.9508497187534,451.02959579675445 484.041019662502,460.54016095970644 474.04101966250187,460.5401609597055 482.131189606252,454.6623084367814 479.0410196625016,464.1728735997328 470.95084971875144,470.05072612265684 460.95084971875133,470.0507261226559 450.95084971875116,470.05072612265496 447.86067977500073,479.56129128560633 439.7705098312506,485.43914380853033 436.68033988750017,494.94970897148175 444.7705098312492,500.8275614944073" stroke="black" stroke-linecap="round" stroke-width="1" /><polyline clip-path="url(#border_clip)" fill="none" points="444.7705098312492,500.8275614944073 434.7705098312491,500.8275614944064 431.6803398874987,510.33812665735775 434.7705098312473,519.8486918203097 442.8606797749974,513.9708392973856 434.7705098312473,519.8486918203097 424.7705098312471,519.8486918203088 421.6803398874967,529.3592569832601 429.7705098312457,535.2371095061857 432.86067977499613,525.7265443432343 422.860679774996,525.7265443432334 412.8606797749959,525.7265443432324 402.86067977499573,525.7265443432315 394.7705098312467,519.8486918203058 402.86067977499687,513.9708392973819 410.950849718747,508.0929867744578 419.04101966249607,513.9708392973833 410.95084971874587,519.8486918203074 419.04101966249493,525.7265443432331 410.95084971874473,531.604396866157 402.86067977499573,525.7265443432315 412.8606797749959,525.7265443432324 404.77050983124684,519.8486918203068 396.68033988749784,513.9708392973812 404.770509831248,508.0929867744572 407.8606797749966,517.6035519374092 399.7705098312476,511.72569941448353 409.77050983124775,511.72569941448455 417.8606797749967,517.6035519374102 420.9508497187453,527.1141171003621 424.0410196624939,536.6246822633141 434.041019662494,536.6246822633151 442.131189606243,542.5025347862407 452.1311896062432,542.5025347862417 455.2213595499936,532.9919696232903 458.3115294937422,542.5025347862423 468.31152949374234,542.5025347862432 476.40169943749254,536.6246822633193 468.3115294937435,530.7468297403937 476.4016994374925,536.6246822633193 479.4918693812411,546.1352474262712 489.4918693812412,546.1352474262723 492.5820393249917,536.6246822633209" stroke="black" stroke-linecap="round" stroke-width="1" /><polyline clip-path="url(#border_clip)" fill="none" points="492.5820393249917,536.6246822633209 482.58203932499157,536.6246822633199 485.6722092687401,546.1352474262719 488.76237921248867,555.6458125892239 491.8525491562372,565.1563777521758 488.76237921248674,574.6669429151272 480.6722092687378,568.7890903922016 472.5820393249888,562.911237869276 475.67220926873927,553.4006727063246 483.7623792124882,559.2785252292502 486.8525491562387,549.7679600662989 494.9427190999877,555.6458125892244 491.8525491562372,565.1563777521758 488.76237921248867,555.6458125892239 485.6722092687382,565.1563777521752 482.5820393249877,574.6669429151266 474.4918693812387,568.7890903922009 482.5820393249889,562.9112378692769 479.4918693812384,572.4218030322282 476.40169943748987,562.9112378692763 479.49186938124035,553.4006727063249 487.58203932499055,547.522820183401 495.67220926874074,541.6449676604769 492.5820393249922,532.134402497525 495.6722092687427,522.6238373345736 492.5820393249942,513.1132721716216 482.582039324994,513.1132721716206 490.6722092687442,507.2354196486966 487.58203932499566,497.72485448574463 479.4918693812467,491.847001962819 476.4016994374962,501.35756712577034 479.4918693812467,491.847001962819 487.5820393249969,485.969149439895 484.49186938124836,476.458584276943 474.4918693812482,476.45858427694196 477.58203932499674,485.96914943989395 485.67220926874694,480.09129691696995 493.76237921249714,474.213444394046 501.85254915624733,468.335591871122 511.8525491562475,468.3355918711231 508.76237921249697,477.8461570340744 505.6722092687465,487.35672219702576 495.6722092687463,487.35672219702474" stroke="black" stroke-linecap="round" stroke-width="1" /><polyline clip-path="url(#border_clip)" fill="none" points="495.6722092687463,487.35672219702474 498.76237921249685,477.84615703407337 488.7623792124967,477.84615703407235 491.8525491562472,468.335591871121 501.8525491562474,468.335591871122 493.76237921249714,474.213444394046 503.7623792124973,474.21344439404703 513.7623792124974,474.2134443940481 510.67220926874694,483.7240095569995 502.58203932499794,477.84615703407377 512.582039324998,477.84615703407485 504.4918693812479,483.7240095569988 494.49186938124774,483.7240095569977 486.4016994374988,477.84615703407206 478.3115294937498,471.96830451114636 470.2213595499996,477.8461570340703 460.2213595499994,477.8461570340693 452.1311896062492,483.7240095569932 455.2213595499977,493.2345747199452 447.1311896062487,487.35672219701956 439.0410196624985,493.2345747199435 435.950849718748,502.7451398828948 445.95084971874815,502.7451398828959 435.950849718748,502.7451398828948 427.86067977499897,496.86728735996917 419.7705098312488,502.7451398828931 422.86067977499727,512.2557050458452 430.95084971874746,506.37785252292116 422.8606797749985,500.49999999999545 414.77050983124957,494.6221474770698 406.6803398875006,488.7442949541441 403.59016994375213,479.23372979119205 413.59016994375224,479.2337297911931 423.5901699437524,479.2337297911942 426.6803398875009,488.74429495414626 416.68033988750074,488.7442949541452 419.7705098312492,498.25486011709717 409.7705098312491,498.2548601170961 406.6803398875006,488.7442949541441 414.77050983124957,494.6221474770698 411.6803398875011,485.11158231411775 408.5901699437526,475.6010171511657 418.59016994375276,475.60101715116684" stroke="black" stroke-linecap="round" stroke-width="1" /><polyline clip-path="url(#border_clip)" fill="none" points="418.59016994375276,475.60101715116684 415.50000000000216,485.11158231411815 412.40983005625367,475.60101715116616 420.5000000000027,481.47886967409187 423.5901699437511,490.9894348370439 420.50000000000057,500.4999999999952 417.40983005625003,510.0105651629466 425.499999999999,515.8884176858724 428.59016994374747,525.3989828488243 436.6803398874964,531.27683537175 444.77050983124667,525.3989828488261 441.6803398874961,534.9095480117775 449.770509831245,540.7874005347032 459.7705098312452,540.7874005347044 456.6803398874967,531.2768353717523 459.7705098312452,540.7874005347044 456.6803398874946,550.2979656976556 464.77050983124354,556.1758182205814 472.8606797749938,550.2979656976574 464.77050983124485,544.4201131747318 461.68033988749426,553.930678337683 458.59016994374366,563.4412435006344 455.49999999999307,572.9518086635858 447.4098300562428,578.8296611865097 444.3196601124944,569.3190960235577 441.2294901687459,559.8085308606056 449.3196601124962,553.9306783376817 452.40983005624463,563.4412435006337 460.4999999999949,557.5633909777098 463.5901699437434,567.0739561406618 455.49999999999307,572.9518086635858 458.5901699437437,563.4412435006344 450.4999999999934,569.3190960235584 442.4098300562431,575.1969485464822 439.31966011249466,565.6863833835303 449.31966011249483,565.6863833835314 441.2294901687446,571.5642359064552 444.31966011249517,562.0536707435039 452.4098300562455,556.17581822058 462.40983005624565,556.1758182205812 472.4098300562458,556.1758182205823 475.4999999999964,546.6652530576309 483.59016994374673,540.7874005347071" stroke="black" stroke-linecap="round" stroke-width="1" /><polyline clip-path="url(#border_clip)" fill="none" points="483.59016994374673,540.7874005347071 486.6803398874973,531.2768353717557 478.5901699437484,525.39898284883 488.5901699437486,525.3989828488311 491.6803398874992,515.8884176858797 488.59016994375077,506.3778525229277 480.50000000000045,512.2557050458516 488.59016994375077,506.3778525229277 498.59016994375094,506.37785252292883 501.6803398875016,496.8672873599775 493.59016994375264,490.98943483705176 490.50000000000205,500.50000000000307 500.5000000000022,500.50000000000426 510.5000000000024,500.5000000000054 520.5000000000025,500.5000000000066 528.5901699437514,506.37785252293236 520.5000000000011,512.2557050458562 512.4098300562508,518.1335575687801 504.31966011250194,512.2557050458544 512.4098300562522,506.3778525229305 504.3196601125033,500.50000000000466 512.4098300562537,494.6221474770808 520.5000000000025,500.5000000000066 510.5000000000024,500.5000000000054 518.5901699437513,506.37785252293116 526.6803398875002,512.255705045857 518.5901699437499,518.1335575687808 515.5000000000015,508.62299240582877 523.5901699437504,514.5008449287545 513.5901699437502,514.5008449287534 505.5000000000013,508.6229924058276 502.40983005625293,499.1124272428755 499.31966011250455,489.6018620799235 489.3196601125043,489.6018620799223 481.22949016875543,483.72400955699646 471.22949016875526,483.72400955699527 468.1393202250046,493.23457471994664 465.0491502812562,483.72400955699453 455.049150281256,483.72400955699334 446.9589803375057,489.6018620799172 455.04915028125464,495.47971460284305 446.9589803375057,489.6018620799172 443.8688103937573,480.0912969169651" stroke="black" stroke-linecap="round" stroke-width="1" /><polyline clip-path="url(#border_clip)" fill="none" points="443.8688103937573,480.0912969169651 433.86881039375714,480.0912969169639 430.7786404500065,489.6018620799153 440.77864045000666,489.6018620799165 437.6884705062582,480.0912969169644 434.59830056250985,470.58073175401233 431.50813061876147,461.07016659106023 434.5983005625121,451.5596014281089 442.68847050626107,457.43745395103474 450.77864045000996,463.3153064739605 447.68847050625925,472.82587163691187 439.59830056251036,466.94801911398605 436.5081306187597,476.45858427693736 428.41796067501076,470.5807317540116 431.50813061876147,461.07016659106023 434.59830056250985,470.58073175401233 437.6884705062605,461.07016659106097 440.7786404500112,451.55960142810966 448.8688103937601,457.4374539510355 440.7786404500098,463.3153064739593 443.86881039376044,453.804741311008 446.9589803375088,463.31530647396005 443.8688103937581,472.8258716369114 435.7786404500078,478.70372415983525 427.68847050625743,484.5815766827591 430.7786404500058,494.0921418457112 427.68847050625516,503.6027070086625 430.7786404500035,513.1132721716147 440.77864045000365,513.1132721716158 432.68847050625334,518.9911246945396 435.7786404500017,528.5016898574918 443.8688103937506,534.3795423804177 446.9589803375013,524.8689772174663 443.8688103937506,534.3795423804177 435.77864045000024,540.2573949033415 438.8688103937486,549.7679600662935 448.8688103937488,549.7679600662948 445.77864045000047,540.2573949033426 437.6884705062501,546.1352474262666 429.59830056249973,552.0130999491904 421.50813061874936,557.8909524721142 411.5081306187492,557.890952472113 414.5983005624999,548.3803873091616" stroke="black" stroke-linecap="round" stroke-width="1" /><polyline clip-path="url(#border_clip)" fill="none" points="414.5983005624999,548.3803873091616 417.6884705062506,538.8698221462103 427.6884705062508,538.8698221462115 424.59830056250007,548.3803873091629 434.5983005625003,548.3803873091641 431.50813061874953,557.8909524721155 421.50813061874936,557.8909524721142 429.59830056249973,552.0130999491904 419.59830056249956,552.0130999491892 409.5983005624994,552.0130999491879 412.6884705062501,542.5025347862365 420.778640449999,548.3803873091624 410.77864044999876,548.3803873091612 418.8688103937492,542.5025347862373 428.86881039374936,542.5025347862386 436.95898033749825,548.3803873091645 445.0491502812471,554.2582398320903 453.1393202249975,548.3803873091665 463.1393202249977,548.3803873091678 471.22949016874804,542.5025347862439 468.1393202249997,532.9919696232919 476.2294901687486,538.8698221462176 484.319660112499,532.9919696232939 487.4098300562497,523.4814044603426 477.4098300562495,523.4814044603413 487.4098300562497,523.4814044603426 495.4999999999986,529.3592569832684 503.59016994374895,523.4814044603446 500.5000000000006,513.9708392973924 492.40983005625026,519.8486918203163 500.49999999999915,525.7265443432422 508.59016994374804,531.604396866168 516.6803398874969,537.4822493890939 519.7705098312452,546.9928145520461 509.770509831245,546.9928145520448 499.77050983124485,546.9928145520435 496.68033988749653,537.4822493890914 506.6803398874967,537.4822493890927 503.5901699437484,527.9716842261405 513.5901699437486,527.9716842261419 516.6803398874969,537.4822493890939 508.59016994374804,531.604396866168 511.6803398874963,541.1149620291202" stroke="black" stroke-linecap="round" stroke-width="1" /><polyline clip-path="url(#border_clip)" fill="none" points="511.6803398874963,541.1149620291202 514.7705098312447,550.6255271920722 504.77050983124445,550.625527192071 507.8606797749952,541.1149620291196 510.9508497187435,550.6255271920718 502.86067977499465,544.7476746691459 499.77050983124633,535.2371095061937 502.8606797749971,525.7265443432425 505.95084971874786,516.2159791802911 497.860679774999,510.33812665736525 494.7705098312507,500.8275614944131 486.6803398875018,494.9497089714872 478.59016994375145,500.827561494411 481.6803398875022,491.3169963314597 473.5901699437534,485.4391438085338 463.59016994375315,485.4391438085325 466.6803398875014,494.9497089714846 463.59016994375315,485.4391438085325 466.6803398875039,475.9285786455812 458.5901699437551,470.05072612265525 450.50000000000466,475.928578645579 458.59016994375355,481.80643116850496 461.6803398875043,472.29586600555365 464.7705098312551,462.7853008426023 467.8606797750059,453.274735679651 475.9508497187563,447.3968831567272 479.0410196625046,456.90744831967936 482.13118960625286,466.41801348263147 474.04101966250244,472.29586600555524 470.95084971875417,462.78530084260314 462.86067977500375,468.6631533655269 459.7705098312555,459.15258820257475 467.8606797750059,453.274735679651 464.7705098312551,462.7853008426023 472.8606797750055,456.9074483196785 480.95084971875593,451.02959579675473 484.0410196625042,460.5401609597069 474.04101966250397,460.54016095970553 482.1311896062544,454.66230843678176 479.04101966250363,464.17287359973307 470.9508497187532,470.05072612265684 460.950849718753,470.05072612265553 450.95084971875275,470.05072612265417" stroke="black" stroke-linecap="round" stroke-width="1" /><polyline clip-path="url(#border_clip)" fill="none" points="450.95084971875275,470.05072612265417 447.860679775002,479.56129128560553 439.77050983125156,485.43914380852925 436.68033988750074,494.9497089714806 444.77050983124957,500.82756149440655 434.7705098312494,500.8275614944052 431.6803398874986,510.3381266573565 434.77050983124684,519.8486918203087 442.86067977499727,513.9708392973848 434.77050983124684,519.8486918203087 424.7705098312466,519.8486918203073 421.68033988749585,529.3592569832587 429.7705098312447,535.2371095061845 432.8606797749955,525.7265443432333 422.8606797749953,525.7265443432319 412.8606797749951,525.7265443432306 402.8606797749949,525.7265443432292 394.77050983124604,519.8486918203032 402.86067977499647,513.9708392973795 410.9508497187469,508.0929867744557 419.0410196624957,513.9708392973816 410.9508497187453,519.8486918203055 419.04101966249414,525.7265443432314 410.9508497187437,531.6043968661552 402.8606797749949,525.7265443432292 412.8606797749951,525.7265443432306 404.7705098312463,519.8486918203046 396.68033988749744,513.9708392973786 404.77050983124786,508.09298677445486 407.86067977499613,517.603551937407 399.7705098312473,511.7256994144811 409.7705098312475,511.72569941448245 417.86067977499636,517.6035519374084 420.95084971874456,527.1141171003605 424.0410196624928,536.6246822633127 434.041019662493,536.6246822633141 442.13118960624183,542.5025347862401 452.13118960624206,542.5025347862414 455.2213595499929,532.9919696232902 458.3115294937411,542.5025347862423 468.3115294937413,542.5025347862437 476.4016994374918,536.62468226332 468.31152949374297,530.746829740394" stroke="black" stroke-linecap="round" stroke-width="1" /><polyline clip-path="url(#border_clip)" fill="none" points="468.31152949374297,530.746829740394 476.40169943749174,536.62468226332 479.49186938124,546.1352474262721 489.4918693812402,546.1352474262735 492.58203932499106,536.6246822633223 482.58203932499083,536.6246822633209 485.67220926873904,546.135247426273 488.7623792124873,555.6458125892252 491.8525491562355,565.1563777521774 488.76237921248463,574.6669429151286 480.6722092687358,568.7890903922026 472.58203932498697,562.9112378692766 475.67220926873784,553.4006727063254 483.7623792124867,559.2785252292514 486.85254915623756,549.7679600663 494.9427190999864,555.645812589226 491.8525491562355,565.1563777521774 488.7623792124873,555.6458125892252 485.6722092687364,565.1563777521765 482.58203932498554,574.6669429151277 474.4918693812367,568.7890903922018 482.5820393249872,562.911237869278 479.4918693812363,572.4218030322294 476.4016994374881,562.9112378692772 479.491869381239,553.4006727063258 487.58203932498947,547.5228201834022 495.67220926873995,541.6449676604785 492.58203932499174,532.1344024975263 495.6722092687426,522.623837334575 492.58203932499447,513.1132721716228 482.58203932499424,513.1132721716214 490.6722092687447,507.2354196486977 487.5820393249965,497.72485448574554 479.49186938124774,491.8470019628195 476.4016994374968,501.3575671257708 479.49186938124774,491.8470019628195 487.5820393249982,485.96914943989583 484.49186938125,476.4585842769436 474.4918693812498,476.4585842769422 477.582039324998,485.9691494398944 485.6722092687485,480.0912969169707 493.76237921249896,474.213444394047 501.85254915624944,468.33559187112326" stroke="black" stroke-linecap="round" stroke-width="1" /><polyline clip-path="url(#border_clip)" fill="none" points="501.85254915624944,468.33559187112326 511.85254915624967,468.33559187112473 508.76237921249873,477.846157034076 505.67220926874785,487.3567221970273 495.6722092687476,487.3567221970259 498.76237921249856,477.84615703407457 488.76237921249833,477.84615703407314 491.8525491562492,468.33559187112184 501.85254915624944,468.33559187112326 493.76237921249896,474.213444394047 503.7623792124992,474.2134443940484 513.7623792124994,474.2134443940499 510.6722092687485,483.7240095570012 502.58203932499964,477.84615703407513 512.5820393249999,477.84615703407655 504.4918693812494,483.7240095570003 494.49186938124916,483.7240095569988 486.4016994375004,477.8461570340728 478.31152949375155,471.96830451114675 470.22135955000107,477.8461570340704 460.22135955000084,477.846157034069 452.13118960625036,483.72400955699266 455.2213595499985,493.2345747199449 447.1311896062497,487.3567221970188 439.0410196624992,493.2345747199425 435.95084971874826,502.7451398828938 445.9508497187485,502.7451398828953 435.95084971874826,502.7451398828938 427.8606797749995,496.86728735996775 419.77050983124894,502.74513988289146 422.8606797749971,512.2557050458437 430.95084971874763,506.37785252291997 422.86067977499886,500.4999999999939 414.77050983125,494.62214747706787 406.68033988750125,488.7442949541418 403.5901699437531,479.2337297911896 413.5901699437533,479.2337297911911 423.59016994375355,479.23372979119256 426.6803398875017,488.7442949541448 416.6803398875015,488.7442949541433 419.7705098312496,498.2548601170955 409.7705098312494,498.25486011709404 406.68033988750125,488.7442949541418" stroke="black" stroke-linecap="round" stroke-width="1" /><polyline clip-path="url(#border_clip)" fill="none" points="406.68033988750125,488.7442949541418 414.77050983125,494.62214747706787 411.68033988750193,485.11158231411565 408.5901699437538,475.60101715116343 418.590169943754,475.6010171511649 415.50000000000307,485.1115823141162 412.4098300562549,475.601017151164 420.5000000000037,481.4788696740901 423.59016994375185,490.98943483704227 420.50000000000085,500.4999999999936 417.4098300562499,510.0105651629449 425.4999999999987,515.888417685871 428.5901699437468,525.3989828488232 436.6803398874956,531.2768353717493 444.77050983124616,525.3989828488255 441.68033988749517,534.9095480117769 449.77050983124394,540.7874005347029 459.77050983124417,540.7874005347044 456.6803398874961,531.2768353717522 459.77050983124417,540.7874005347044 456.6803398874932,550.2979656976557 464.77050983124195,556.1758182205818 472.8606797749925,550.2979656976581 464.77050983124377,544.420113174732 461.6803398874928,553.9306783376834 458.5901699437418,563.4412435006346 455.49999999999085,572.9518086635859 447.40983005624025,578.8296611865096 444.31966011249216,569.3190960235573 441.22949016874406,559.8085308606052 449.3196601124946,553.9306783376815 452.40983005624275,563.4412435006337 460.4999999999933,557.56339097771 463.5901699437414,567.0739561406623 455.49999999999085,572.9518086635859 458.59016994374184,563.4412435006346 450.49999999999125,569.3190960235582 442.4098300562407,575.196948546482 439.3196601124926,565.6863833835297 449.31966011249284,565.6863833835312 441.2294901687423,571.5642359064549 444.3196601124933,562.0536707435035 452.40983005624383,556.1758182205799" stroke="black" stroke-linecap="round" stroke-width="1" /><polyline clip-path="url(#border_clip)" fill="none" points="452.40983005624383,556.1758182205799 462.40983005624406,556.1758182205815 472.40983005624435,556.175818220583 475.49999999999534,546.6652530576317 483.5901699437459,540.787400534708 486.68033988749687,531.2768353717568 478.59016994374815,525.3989828488307 488.5901699437484,525.3989828488322 491.6803398874994,515.8884176858809 488.5901699437513,506.37785252292866 480.50000000000074,512.2557050458523 488.5901699437513,506.37785252292866 498.5901699437515,506.3778525229302 501.68033988750256,496.86728735997895 493.5901699437538,490.98943483705284 490.5000000000028,500.5000000000041 500.500000000003,500.5000000000056 510.50000000000324,500.50000000000716 520.5000000000035,500.50000000000875 528.5901699437522,506.37785252293486 520.5000000000017,512.2557050458585 512.409830056251,518.1335575687821 504.31966011250233,512.255705045856 512.4098300562529,506.37785252293236 504.31966011250415,500.5000000000062 512.4098300562547,494.6221474770826 520.5000000000035,500.50000000000875 510.50000000000324,500.50000000000716 518.590169943752,506.3778525229333 526.6803398875007,512.2557050458595 518.5901699437502,518.1335575687831 515.5000000000022,508.6229924058308 523.5901699437509,514.5008449287569 513.5901699437507,514.5008449287553 505.5000000000019,508.6229924058292 502.40983005625384,499.112427242877 499.31966011250574,489.60186207992473 489.3196601125055,489.6018620799232 481.2294901687568,483.72400955699703 471.2294901687565,483.72400955699544 468.13932022500546,493.23457471994675 465.0491502812574,483.7240095569945 455.0491502812572,483.7240095569929" stroke="black" stroke-linecap="round" stroke-width="1" /><polyline clip-path="url(#border_clip)" fill="none" points="455.0491502812572,483.7240095569929 446.9589803375066,489.6018620799165 455.0491502812553,495.47971460284265 446.9589803375066,489.6018620799165 443.8688103937585,480.09129691696427 433.8688103937583,480.0912969169627 430.77864045000723,489.601862079914 440.7786404500075,489.6018620799155 437.6884705062594,480.0912969169633 434.5983005625114,470.580731754011 431.50813061876335,461.07016659105875 434.5983005625144,451.5596014281075 442.6884705062631,457.43745395103366 450.7786404500119,463.3153064739598 447.68847050626084,472.8258716369111 439.59830056251207,466.9480191139849 436.508130618761,476.4585842769362 428.4179606750123,470.58073175401006 431.50813061876335,461.07016659105875 434.5983005625114,470.580731754011 437.68847050626243,461.0701665910598 440.77864045001354,451.55960142810846 448.86881039376226,457.4374539510346 440.77864045001166,463.31530647395823 443.8688103937627,453.8047413110069 446.95898033751075,463.3153064739592 443.86881039375965,472.8258716369105 435.77864045000905,478.70372415983405 427.6884705062584,484.58157668275766 430.77864045000644,494.09214184570993 427.6884705062554,503.6027070086612 430.77864045000337,513.1132721716134 440.77864045000365,513.1132721716151 432.688470506253,518.9911246945386 435.77864045000103,528.5016898574909 443.86881039374975,534.3795423804171 446.95898033750086,524.8689772174658 443.86881039374975,534.3795423804171 435.7786404499991,540.2573949033407 438.86881039374714,549.767960066293 448.86881039374737,549.7679600662946 445.77864044999933,540.2573949033423 437.68847050624873,546.1352474262659" stroke="black" stroke-linecap="round" stroke-width="1" /><polyline clip-path="url(#border_clip)" fill="none" points="437.68847050624873,546.1352474262659 429.5983005624981,552.0130999491894 421.50813061874743,557.890952472113 411.5081306187472,557.8909524721114 414.59830056249825,548.3803873091601 417.68847050624936,538.8698221462088 427.68847050624964,538.8698221462105 424.59830056249854,548.3803873091617 434.5983005624988,548.3803873091633 431.5081306187477,557.8909524721146 421.50813061874743,557.890952472113 429.5983005624981,552.0130999491894 419.5983005624978,552.0130999491878 409.59830056249757,552.0130999491862 412.6884705062487,542.5025347862348 420.7786404499974,548.380387309161 410.77864044999717,548.3803873091595 418.8688103937478,542.5025347862359 428.86881039374805,542.5025347862376 436.95898033749677,548.3803873091638 445.0491502812455,554.25823983209 453.13932022499614,548.3803873091664 463.13932022499637,548.3803873091681 471.229490168747,542.5025347862445 468.13932022499904,532.9919696232922 476.22949016874776,538.8698221462184 484.3196601124984,532.9919696232948 487.4098300562496,523.4814044603436 477.4098300562493,523.481404460342 487.4098300562496,523.4814044603436 495.4999999999983,529.3592569832698 503.59016994374895,523.4814044603463 500.50000000000097,513.970839297394 492.4098300562503,519.8486918203175 500.499999999999,525.7265443432437 508.5901699437477,531.60439686617 516.6803398874964,537.4822493890962 519.7705098312445,546.9928145520485 509.7705098312441,546.9928145520469 499.7705098312439,546.9928145520452 496.6803398874959,537.4822493890929 506.6803398874962,537.4822493890946 503.5901699437482,527.9716842261422" stroke="black" stroke-linecap="round" stroke-width="1" /><polyline clip-path="url(#border_clip)" fill="none" points="503.5901699437482,527.9716842261422 513.5901699437485,527.9716842261439 516.6803398874964,537.4822493890962 508.5901699437477,531.60439686617 511.6803398874957,541.1149620291222 514.7705098312437,550.6255271920746 504.7705098312434,550.6255271920729 507.86067977499454,541.1149620291217 510.9508497187425,550.625527192074 502.8606797749938,544.7476746691477 499.7705098312458,535.2371095061953 502.860679774997,525.7265443432441 505.95084971874815,516.2159791802928 497.8606797749994,510.3381266573666 494.7705098312515,500.8275614944143 486.6803398875028,494.94970897148806 478.59016994375213,500.82756149441155 481.6803398875033,491.3169963314603 473.5901699437546,485.439143808534 463.5901699437543,485.4391438085324 466.68033988750227,494.94970897148465 463.59016994375435,485.4391438085324 466.6803398875055,475.92857864558107 458.5901699437568,470.05072612265485 450.50000000000614,475.92857864557834 458.5901699437548,481.8064311685046 461.68033988750597,472.29586600555336 464.77050983125713,462.78530084260206 467.8606797750083,453.2747356796508 475.950849718759,447.3968831567273 479.0410196625069,456.90744831967965 482.1311896062549,466.4180134826319 474.0410196625042,472.29586600555547 470.9508497187563,462.78530084260314 462.86067977500556,468.6631533655266 459.77050983125764,459.1525882025743 467.86067977500835,453.2747356796508 464.77050983125713,462.78530084260206 472.86067977500784,456.90744831967856 480.95084971875855,451.0295957967551 484.04101966250647,460.5401609597074 474.0410196625062,460.5401609597057 482.1311896062569,454.66230843678215" stroke="black" stroke-linecap="round" stroke-width="1" /><polyline clip-path="url(#border_clip)" fill="none" points="482.1311896062569,454.66230843678215 479.04101966250573,464.17287359973346 470.950849718755,470.05072612265695 460.95084971875474,470.0507261226552 450.95084971875445,470.0507261226535 447.8606797750033,479.56129128560474 439.7705098312526,485.43914380852823 436.68033988750136,494.94970897147954 444.77050983125,500.8275614944058 434.7705098312498,500.82756149440405 431.6803398874986,510.33812665735536 434.7705098312465,519.8486918203076 442.8606797749972,513.9708392973841 434.7705098312465,519.8486918203076 424.77050983124616,519.8486918203059 421.680339887495,529.3592569832572 429.77050983124366,535.2371095061835 432.8606797749949,525.7265443432323 422.8606797749946,525.7265443432304 412.8606797749943,525.7265443432287 402.860679774994,525.726544343227 394.77050983124536,519.8486918203007 402.8606797749961,513.9708392973772 410.9508497187468,508.0929867744537 419.0410196624955,513.97083929738 410.95084971874473,519.8486918203035 419.04101966249345,525.7265443432299 410.9508497187427,531.6043968661534 402.860679774994,525.726544343227 412.8606797749943,525.7265443432287 404.77050983124565,519.8486918203024 396.680339887497,513.9708392973762 404.7705098312477,508.09298677445264 407.8606797749956,517.603551937405 399.77050983124695,511.7256994144787 409.7705098312472,511.72569941448046 417.8606797749959,517.6035519374068 420.95084971874377,527.1141171003591 424.04101966249164,536.6246822633115 434.0410196624919,536.6246822633133 442.1311896062406,542.5025347862395 452.13118960624087,542.5025347862413 455.2213595499921,532.9919696232901" stroke="black" stroke-linecap="round" stroke-width="1" /><polyline clip-path="url(#border_clip)" fill="none" points="455.2213595499921,532.9919696232901 458.31152949373995,542.5025347862424 468.31152949374024,542.5025347862442 476.401699437491,536.6246822633207 468.31152949374234,530.7468297403944 476.401699437491,536.6246822633207 479.49186938123887,546.135247426273 489.49186938123916,546.1352474262749 492.5820393249904,536.6246822633236 482.5820393249901,536.6246822633218 485.672209268738,546.1352474262742 488.7623792124859,555.6458125892265 491.85254915623375,565.1563777521789 488.7623792124825,574.6669429151301 480.6722092687338,568.7890903922038 472.58203932498515,562.9112378692774 475.6722092687364,553.4006727063262 483.7623792124851,559.2785252292525 486.85254915623636,549.7679600663013 494.94271909998497,555.6458125892276 491.85254915623375,565.1563777521789 488.7623792124859,555.6458125892265 485.6722092687346,565.1563777521777 482.5820393249833,574.666942915129 474.49186938123466,568.7890903922026 482.58203932498543,562.9112378692791 479.49186938123415,572.4218030322304 476.40169943748634,562.9112378692781 479.4918693812376,553.4006727063269 487.58203932498833,547.5228201834034 495.6722092687391,541.64496766048 492.5820393249913,532.1344024975276 495.67220926874256,522.6238373345764 492.5820393249947,513.113272171624 482.5820393249944,513.1132721716222 490.6722092687452,507.2354196486987 487.5820393249973,497.7248544857464 479.4918693812487,491.84700196282 476.4016994374974,501.35756712577125 479.4918693812487,491.84700196282 487.58203932499947,485.96914943989657 484.4918693812516,476.45858427694424 474.4918693812513,476.4585842769424" stroke="black" stroke-linecap="round" stroke-width="1" /><polyline clip-path="url(#border_clip)" fill="none" points="474.4918693812513,476.4585842769424 477.5820393249992,485.9691494398948 485.67220926874995,480.0912969169714 493.7623792125007,474.2134443940479 501.8525491562515,468.3355918711245 511.85254915625177,468.33559187112627 508.7623792125005,477.8461570340775 505.6722092687492,487.3567221970288 495.67220926874893,487.35672219702695 498.7623792125002,477.8461570340757 488.7623792124999,477.8461570340739 491.8525491562512,468.3355918711227 501.8525491562515,468.3355918711245 493.7623792125007,474.2134443940479 503.762379212501,474.21344439404976 513.7623792125013,474.2134443940516 510.67220926875,483.72400955700283 502.58203932500135,477.84615703407644 512.5820393250017,477.84615703407826 504.49186938125086,483.7240095570017 494.4918693812506,483.7240095569998 486.4016994375019,477.8461570340735 478.3115294937533,471.9683045111471 470.22135955000255,477.8461570340705 460.22135955000226,477.84615703406865 452.13118960625144,483.7240095569921 455.22135954999925,493.2345747199444 447.13118960625064,487.35672219701803 439.0410196624998,493.23457471994146 435.9508497187485,502.7451398828927 445.9508497187488,502.74513988289453 435.9508497187485,502.7451398828927 427.8606797749999,496.8672873599663 419.7705098312491,502.7451398828897 422.8606797749969,512.2557050458421 430.9508497187477,506.3778525229187 422.8606797749991,500.49999999999227 414.7705098312504,494.6221474770659 406.68033988750176,488.7442949541395 403.59016994375395,479.2337297911871 413.5901699437543,479.2337297911889 423.5901699437546,479.2337297911908 426.6803398875024,488.7442949541432" stroke="black" stroke-linecap="round" stroke-width="1" /><polyline clip-path="url(#border_clip)" fill="none" points="426.6803398875024,488.7442949541432 416.6803398875021,488.7442949541413 419.77050983124985,498.2548601170937 409.77050983124957,498.2548601170919 406.68033988750176,488.7442949541395 414.77050983125037,494.6221474770659 411.6803398875026,485.1115823141135 408.5901699437548,475.6010171511611 418.5901699437551,475.601017151163 415.50000000000375,485.11158231411423 412.40983005625594,475.60101715116184 420.5000000000046,481.47886967408823 423.59016994375236,490.9894348370406 420.500000000001,500.49999999999187 417.4098300562497,510.0105651629431 425.4999999999983,515.8884176858695 428.59016994374605,525.3989828488219 436.68033988749465,531.2768353717483 444.7705098312455,525.398982848825 441.68033988749414,534.9095480117762 449.77050983124275,540.7874005347027 459.77050983124303,540.7874005347045 456.6803398874953,531.2768353717521 459.77050983124303,540.7874005347045 456.6803398874917,550.2979656976557 464.7705098312403,556.1758182205822 472.8606797749911,550.2979656976588 464.7705098312425,544.4201131747324 461.68033988749113,553.9306783376836 458.5901699437398,563.4412435006349 455.4999999999884,572.9518086635861 447.4098300562376,578.8296611865095 444.3196601124898,569.3190960235571 441.2294901687421,559.8085308606046 449.3196601124929,553.9306783376812 452.40983005624065,563.4412435006337 460.4999999999915,557.5633909777104 463.5901699437393,567.0739561406627 455.4999999999884,572.9518086635861 458.5901699437398,563.4412435006349 450.499999999989,569.3190960235582 442.4098300562381,575.1969485464816 439.3196601124904,565.6863833835292" stroke="black" stroke-linecap="round" stroke-width="1" /><polyline clip-path="url(#border_clip)" fill="none" points="439.3196601124904,565.6863833835292 449.3196601124907,565.686383383531 441.22949016873986,571.5642359064544 444.3196601124912,562.0536707435032 452.4098300562421,556.1758182205799 462.40983005624236,556.1758182205817 472.40983005624264,556.1758182205837 475.4999999999941,546.6652530576325 483.5901699437449,540.7874005347091 486.6803398874963,531.2768353717579 478.5901699437477,525.3989828488315 488.59016994374804,525.3989828488334 491.68033988749943,515.8884176858821 488.5901699437517,506.3778525229297 480.5000000000008,512.255705045853 488.5901699437517,506.3778525229297 498.59016994375196,506.3778525229316 501.68033988750335,496.86728735998037 493.5901699437548,490.9894348370539 490.5000000000034,500.5000000000051 500.5000000000037,500.50000000000705 510.500000000004,500.500000000009 520.5000000000043,500.5000000000109 528.5901699437529,506.3778525229374 520.500000000002,512.2557050458607 512.4098300562512,518.1335575687841 504.31966011250256,512.2557050458577 512.4098300562534,506.3778525229343 504.31966011250483,500.5000000000078 512.4098300562557,494.62214747708447 520.5000000000043,500.5000000000109 510.500000000004,500.500000000009 518.5901699437526,506.3778525229355 526.6803398875012,512.255705045862 518.5901699437503,518.1335575687852 515.5000000000026,508.62299240583286 523.5901699437511,514.5008449287593 513.5901699437509,514.5008449287574 505.5000000000023,508.6229924058309 502.4098300562546,499.1124272428785 499.3196601125069,489.60186207992604 489.31966011250654,489.6018620799241 481.229490168758,483.7240095569976" stroke="black" stroke-linecap="round" stroke-width="1" /><polyline clip-path="url(#border_clip)" fill="none" points="481.229490168758,483.7240095569976 471.22949016875765,483.7240095569956 468.13932022500626,493.23457471994686 465.04915028125856,483.7240095569944 455.0491502812582,483.7240095569924 446.95898033750734,489.6018620799158 455.04915028125595,495.4797146028423 446.95898033750734,489.6018620799158 443.86881039375965,480.09129691696336 433.86881039375936,480.09129691696137 430.7786404500079,489.6018620799126 440.7786404500082,489.60186207991455 437.6884705062605,480.0912969169621 434.5983005625128,470.5807317540097 431.5081306187651,461.0701665910573 434.59830056251656,451.559601428106 442.68847050626516,457.4374539510326 450.7786404500137,463.3153064739591 447.68847050626226,472.8258716369103 439.5983005625137,466.9480191139838 436.50813061876227,476.45858427693497 428.41796067501366,470.58073175400847 431.5081306187651,461.0701665910573 434.5983005625128,470.5807317540097 437.68847050626425,461.07016659105847 440.7786404500157,451.55960142810727 448.8688103937643,457.4374539510338 440.7786404500134,463.3153064739571 443.8688103937649,453.80474131100584 446.9589803375125,463.31530647395834 443.86881039376107,472.82587163690954 435.7786404500102,478.7037241598328 427.68847050625925,484.5815766827561 430.77864045000695,494.09214184570857 427.6884705062555,503.60270700865976 430.77864045000314,513.1132721716123 440.7786404500034,513.1132721716142 432.68847050625254,518.9911246945376 435.77864045000024,528.50168985749 443.86881039374873,534.3795423804165 446.95898033750024,524.8689772174653 443.86881039374873,534.3795423804165 435.77864044999785,540.2573949033398" stroke="black" stroke-linecap="round" stroke-width="1" /><polyline clip-path="url(#border_clip)" fill="none" points="435.77864044999785,540.2573949033398 438.8688103937455,549.7679600662923 448.86881039374583,549.7679600662942 445.7786404499982,540.2573949033418 437.68847050624726,546.1352474262651 429.5983005624963,552.0130999491884 421.50813061874544,557.8909524721117 411.5081306187451,557.8909524721097 414.5983005624966,548.3803873091584 417.6884705062481,538.8698221462073 427.68847050624845,538.8698221462092 424.59830056249695,548.3803873091605 434.59830056249723,548.3803873091625 431.5081306187458,557.8909524721137 421.50813061874544,557.8909524721117 429.5983005624964,552.0130999491884 419.59830056249604,552.0130999491864 409.59830056249575,552.0130999491844 412.68847050624726,542.5025347862331 420.7786404499958,548.3803873091597 410.77864044999546,548.3803873091576 418.8688103937464,542.5025347862344 428.8688103937467,542.5025347862364 436.95898033749523,548.380387309163 445.0491502812438,554.2582398320895 453.1393202249947,548.3803873091663 463.139320224995,548.3803873091683 471.22949016874594,542.5025347862451 468.1393202249983,532.9919696232926 476.22949016874685,538.8698221462191 484.3196601124978,532.9919696232959 487.4098300562493,523.4814044603447 477.409830056249,523.4814044603427 487.4098300562493,523.4814044603447 495.49999999999784,529.3592569832713 503.5901699437488,523.481404460348 500.50000000000114,513.9708392973955 492.4098300562502,519.8486918203188 500.49999999999875,525.7265443432453 508.5901699437473,531.6043968661719 516.6803398874958,537.4822493890986 519.7705098312434,546.992814552051 509.7705098312431,546.9928145520489" stroke="black" stroke-linecap="round" stroke-width="1" /><polyline clip-path="url(#border_clip)" fill="none" points="509.7705098312431,546.9928145520489 499.7705098312428,546.9928145520469 496.68033988749517,537.4822493890944 506.6803398874955,537.4822493890965 503.59016994374787,527.971684226144 513.5901699437482,527.9716842261461 516.6803398874958,537.4822493890986 508.5901699437473,531.6043968661719 511.6803398874949,541.1149620291244 514.7705098312425,550.6255271920769 504.7705098312422,550.6255271920749 507.86067977499374,541.1149620291236 510.9508497187413,550.6255271920761 502.86067977499283,544.7476746691495 499.7705098312452,535.237109506197 502.86067977499675,525.7265443432458 505.9508497187483,516.2159791802947 497.86067977499977,510.33812665736804 494.7705098312522,500.82756149441553 486.6803398875037,494.9497089714889 478.5901699437527,500.8275614944122 481.68033988750426,491.316996331461 473.59016994375577,485.43914380853437 463.5901699437554,485.43914380853226 466.680339887503,494.94970897148477 463.5901699437554,485.43914380853226 466.680339887507,475.92857864558107 458.5901699437585,470.05072612265445 450.5000000000075,475.9285786455777 458.590169943756,481.80643116850433 461.6803398875076,472.29586600555314 464.7705098312592,462.78530084260194 467.86067977501074,453.2747356796507 475.9508497187617,447.3968831567275 479.04101966250926,456.90744831968 482.13118960625684,466.4180134826325 474.0410196625059,472.2958660055557 470.9508497187583,462.7853008426032 462.8606797750073,468.66315336552645 459.77050983125974,459.15258820257395 467.86067977501074,453.2747356796507 464.7705098312592,462.78530084260194 472.8606797750101,456.9074483196787" stroke="black" stroke-linecap="round" stroke-width="1" /><polyline clip-path="url(#border_clip)" fill="none" points="472.8606797750101,456.9074483196787 480.9508497187611,451.0295957967555 484.0410196625087,460.540160959708 474.04101966250835,460.5401609597059 482.13118960625934,454.66230843678267 479.0410196625078,464.17287359973386 470.9508497187568,470.05072612265707 460.95084971875644,470.05072612265496 450.9508497187561,470.0507261226528 447.8606797750045,479.56129128560406 439.77050983125355,485.43914380852726 436.68033988750193,494.94970897147846 444.7705098312504,500.8275614944051 434.7705098312501,500.82756149440297 431.68033988749846,510.33812665735417 434.77050983124604,519.8486918203066 442.86067977499704,513.9708392973835 434.77050983124604,519.8486918203066 424.7705098312457,519.8486918203046 421.6803398874941,529.3592569832557 429.7705098312426,535.2371095061824 432.8606797749942,525.7265443432311 422.86067977499386,525.7265443432291 412.8606797749935,525.7265443432269 402.8606797749932,525.7265443432248 394.7705098312447,519.8486918202981 402.8606797749957,513.9708392973749 410.95084971874667,508.09298677445173 419.04101966249516,513.9708392973783 410.95084971874417,519.8486918203016 419.04101966249266,525.7265443432283 410.95084971874167,531.6043968661514 402.8606797749932,525.7265443432248 412.8606797749935,525.7265443432269 404.770509831245,519.8486918203002 396.68033988749653,513.9708392973736 404.7705098312475,508.0929867744504 407.8606797749951,517.6035519374029 399.7705098312466,511.72569941447625 409.77050983124695,511.7256994144784 417.86067977499545,517.6035519374051 420.9508497187429,527.1141171003576 424.0410196624905,536.6246822633101" stroke="black" stroke-linecap="round" stroke-width="1" /><polyline clip-path="url(#border_clip)" fill="none" points="424.0410196624905,536.6246822633101 434.04101966249084,536.6246822633123 442.1311896062393,542.5025347862389 452.1311896062396,542.5025347862411 455.22135954999123,532.99196962329 458.31152949373876,542.5025347862424 468.3115294937391,542.5025347862446 476.40169943749015,536.6246822633215 468.31152949374166,530.7468297403948 476.40169943749015,536.6246822633215 479.4918693812376,546.135247426274 489.49186938123796,546.1352474262761 492.58203932498964,536.624682263325 482.5820393249893,536.6246822633228 485.6722092687368,546.1352474262753 488.7623792124843,555.6458125892278 491.8525491562318,565.1563777521803 488.7623792124802,574.6669429151316 480.6722092687317,568.7890903922049 472.58203932498327,562.9112378692782 475.6722092687349,553.400672706327 483.7623792124834,559.2785252292537 486.852549156235,549.7679600663025 494.9427190999835,555.6458125892292 491.8525491562318,565.1563777521804 488.76237921248435,555.6458125892278 485.6722092687327,565.1563777521791 482.582039324981,574.6669429151302 474.49186938123256,568.7890903922035 482.58203932498355,562.9112378692804 479.49186938123194,572.4218030322315 476.4016994374844,562.911237869279 479.4918693812361,553.4006727063278 487.58203932498714,547.5228201834046 495.6722092687382,541.6449676604815 492.58203932499066,532.134402497529 495.67220926874234,522.6238373345777 492.58203932499487,513.1132721716252 482.5820393249945,513.1132721716231 490.6722092687456,507.23541964869986 487.5820393249981,497.7248544857473 479.4918693812496,491.8470019628206 476.40169943749794,501.35756712577177" stroke="black" stroke-linecap="round" stroke-width="1" /><polyline clip-path="url(#border_clip)" fill="none" points="476.40169943749794,501.35756712577177 479.4918693812496,491.8470019628206 487.58203932500066,485.9691494398974 484.4918693812532,476.4585842769449 474.49186938125285,476.4585842769427 477.5820393250003,485.96914943989526 485.6722092687514,480.0912969169721 493.7623792125024,474.21344439404896 501.8525491562535,468.3355918711258 511.8525491562539,468.33559187112803 508.76237921250214,477.84615703407917 505.67220926875046,487.35672219703036 495.6722092687501,487.35672219702815 498.7623792125018,477.84615703407695 488.76237921250146,477.84615703407474 491.85254915625313,468.3355918711236 501.85254915625353,468.3355918711258 493.7623792125024,474.2134443940489 503.76237921250276,474.2134443940512 513.7623792125031,474.2134443940534 510.67220926875143,483.7240095570046 502.582039325003,477.8461570340778 512.5820393250034,477.8461570340801 504.4918693812523,483.72400955700317 494.49186938125195,483.72400955700095 486.40169943750345,477.8461570340742 478.311529493755,471.96830451114744 470.22135955000397,477.8461570340706 460.2213595500036,477.8461570340683 452.1311896062525,483.72400955699146 455.22135955,493.234574719944 447.1311896062515,487.3567221970173 439.04101966250045,493.2345747199404 435.9508497187487,502.7451398828916 445.95084971874905,502.7451398828938 435.9508497187487,502.7451398828916 427.8606797750003,496.8672873599648 419.7705098312492,502.74513988288794 422.86067977499664,512.2557050458405 430.95084971874775,506.3778525229174 422.8606797749993,500.4999999999906 414.7705098312509,494.62214747706383 406.68033988750244,488.7442949541371" stroke="black" stroke-linecap="round" stroke-width="1" /><polyline clip-path="url(#border_clip)" fill="none" points="406.68033988750244,488.7442949541371 403.590169943755,479.23372979118454 413.59016994375537,479.23372979118676 423.5901699437557,479.23372979118903 426.6803398875031,488.7442949541416 416.6803398875028,488.7442949541394 419.77050983125025,498.25486011709194 409.7705098312499,498.25486011708966 406.68033988750244,488.7442949541371 414.7705098312509,494.62214747706383 411.68033988750346,485.1115823141113 408.59016994375605,475.6010171511587 418.5901699437564,475.601017151161 415.50000000000466,485.1115823141121 412.4098300562572,475.60101715115957 420.5000000000056,481.47886967408635 423.59016994375304,490.9894348370389 420.5000000000013,500.4999999999901 417.4098300562496,510.01056516294125 425.49999999999795,515.888417685868 428.5901699437454,525.3989828488207 436.6803398874938,531.2768353717474 444.7705098312449,525.3989828488243 441.6803398874932,534.9095480117755 449.7705098312416,540.7874005347023 459.77050983124195,540.7874005347046 456.68033988749454,531.276835371752 459.77050983124195,540.7874005347046 456.68033988749016,550.2979656976557 464.7705098312386,556.1758182205825 472.8606797749897,550.2979656976595 464.77050983124127,544.4201131747327 461.68033988748954,553.9306783376838 458.59016994373775,563.441243500635 455.499999999986,572.9518086635861 447.40983005623485,578.8296611865093 444.31966011248744,569.3190960235567 441.2294901687401,559.808530860604 449.3196601124912,553.930678337681 452.40983005623855,563.4412435006336 460.4999999999897,557.5633909777105 463.5901699437371,567.0739561406631 455.49999999998596,572.9518086635861" stroke="black" stroke-linecap="round" stroke-width="1" /><polyline clip-path="url(#border_clip)" fill="none" points="455.49999999998596,572.9518086635861 458.59016994373775,563.441243500635 450.49999999998664,569.3190960235581 442.40983005623553,575.1969485464812 439.3196601124881,565.6863833835286 449.31966011248846,565.6863833835309 441.22949016873736,571.564235906454 444.31966011248915,562.0536707435028 452.40983005624025,556.1758182205797 462.40983005624065,556.1758182205821 472.409830056241,556.1758182205843 475.4999999999928,546.6652530576332 483.59016994374394,540.7874005347102 486.68033988749573,531.2768353717589 478.5901699437473,525.3989828488321 488.5901699437477,525.3989828488344 491.6803398874995,515.8884176858833 488.59016994375213,506.3778525229307 480.50000000000097,512.2557050458538 488.59016994375213,506.3778525229307 498.59016994375247,506.37785252293304 501.68033988750426,496.86728735998184 493.5901699437559,490.989434837055 490.5000000000041,500.5000000000062 500.50000000000443,500.5000000000085" stroke="black" stroke-linecap="round" stroke-width="1" /></svg>