<?xml version="1.0" encoding="UTF-8"?>
<svg width="1e4px" height="1e4px" baseProfile="full" version="1.1" viewBox="4904.8 4947.4 133.82 131.43" xmlns="http://www.w3.org/2000/svg">
<defs>
<clipPath id="a">
<rect width="1e4" height="1e4"/>
</clipPath>
</defs>
<polyline points="5000.5 5000.5 5010.5 5000.5 5020.5 5000.5 5030.5 5000.5 5038.6 5006.4 5030.5 5012.3 5022.4 5018.1 5014.3 5012.3 5022.4 5006.4 5014.3 5000.5 5022.4 4994.6 5030.5 5000.5 5020.5 5000.5 5028.6 5006.4 5036.7 5012.3 5028.6 5018.1 5025.5 5008.6 5033.6 5014.5 5023.6 5014.5 5015.5 5008.6 5012.4 4999.1 5009.3 4989.6 4999.3 4989.6 4991.2 4983.7 4981.2 4983.7 4978.1 4993.2 4975 4983.7 4965 4983.7 4957 4989.6 4965 4995.5 4957 4989.6 4953.9 4980.1 4943.9 4980.1 4940.8 4989.6 4950.8 4989.6 4947.7 4980.1 4944.6 4970.6 4941.5 4961.1 4944.6 4951.6 4952.7 4957.4 4960.8 4963.3 4957.7 4972.8 4949.6 4966.9" clip-path="url(#a)" fill="none" stroke="#000" stroke-linecap="round"/>
<polyline points="4949.6 4966.9 4946.5 4976.5 4938.4 4970.6 4941.5 4961.1 4944.6 4970.6 4947.7 4961.1 4950.8 4951.6 4958.9 4957.4 4950.8 4963.3 4953.9 4953.8 4957 4963.3 4953.9 4972.8 4945.8 4978.7 4937.7 4984.6 4940.8 4994.1 4937.7 5003.6 4940.8 5013.1 4950.8 5013.1 4942.7 5019 4945.8 5028.5 4953.9 5034.4 4957 5024.9 4953.9 5034.4 4945.8 5040.3 4948.9 5049.8 4958.9 5049.8 4955.8 5040.3 4947.7 5046.1 4939.6 5052 4931.5 5057.9 4921.5 5057.9 4924.6 5048.4 4927.7 5038.9 4937.7 5038.9 4934.6 5048.4 4944.6 5048.4 4941.5 5057.9 4931.5 5057.9 4939.6 5052 4929.6 5052 4919.6 5052 4922.7 5042.5 4930.8 5048.4" clip-path="url(#a)" fill="none" stroke="#000" stroke-linecap="round"/>
<polyline points="4930.8 5048.4 4920.8 5048.4 4928.9 5042.5 4938.9 5042.5 4947 5048.4 4955 5054.3 4963.1 5048.4 4973.1 5048.4 4981.2 5042.5 4978.1 5033 4986.2 5038.9 4994.3 5033 4997.4 5023.5 4987.4 5023.5 4997.4 5023.5 5005.5 5029.4 5013.6 5023.5 5010.5 5014 5002.4 5019.8 5010.5 5025.7 5018.6 5031.6 5026.7 5037.5 5029.8 5047 5019.8 5047 5009.8 5047 5006.7 5037.5 5016.7 5037.5 5013.6 5028 5023.6 5028 5026.7 5037.5 5018.6 5031.6 5021.7 5041.1 5024.8 5050.6 5014.8 5050.6 5017.9 5041.1 5021 5050.6 5012.9 5044.7 5009.8 5035.2 5012.9 5025.7 5016 5016.2 5007.9 5010.3 5004.8 5000.8 4996.7 4994.9" clip-path="url(#a)" fill="none" stroke="#000" stroke-linecap="round"/>
<polyline points="4996.7 4994.9 4988.6 5000.8 4991.7 4991.3 4983.6 4985.4 4973.6 4985.4 4976.7 4994.9 4973.6 4985.4 4976.7 4975.9 4968.6 4970.1 4960.5 4975.9 4968.6 4981.8 4971.7 4972.3 4974.8 4962.8 4977.9 4953.3 4986 4947.4 4989 4956.9 4992.1 4966.4 4984 4972.3 4981 4962.8 4972.9 4968.7 4969.8 4959.2 4977.9 4953.3 4974.8 4962.8 4982.9 4956.9 4991 4951 4994 4960.5 4984 4960.5 4992.1 4954.7 4989 4964.2 4981 4970.1 4971 4970.1 4961 4970.1 4957.9 4979.6 4949.8 4985.4 4946.7 4994.9 4954.8 5000.8 4944.8 5000.8 4941.7 5010.3 4944.8 5019.8 4952.9 5014 4944.8 5019.8 4934.8 5019.8 4931.7 5029.4" clip-path="url(#a)" fill="none" stroke="#000" stroke-linecap="round"/>
<polyline points="4931.7 5029.4 4939.8 5035.2 4942.9 5025.7 4932.9 5025.7 4922.9 5025.7 4912.9 5025.7 4904.8 5019.8 4912.9 5014 4921 5008.1 4929 5014 4921 5019.8 4929 5025.7 4921 5031.6 4912.9 5025.7 4922.9 5025.7 4914.8 5019.8 4906.7 5014 4914.8 5008.1 4917.9 5017.6 4909.8 5011.7 4919.8 5011.7 4927.9 5017.6 4931 5027.1 4934 5036.6 4944 5036.6 4952.1 5042.5 4962.1 5042.5 4965.2 5033 4968.3 5042.5 4978.3 5042.5 4986.4 5036.6 4978.3 5030.7 4986.4 5036.6 4989.5 5046.1 4999.5 5046.1 5002.6 5036.6 4992.6 5036.6 4995.7 5046.1 4998.8 5055.6 5001.9 5065.2 4998.8 5074.7 4990.7 5068.8 4982.6 5062.9" clip-path="url(#a)" fill="none" stroke="#000" stroke-linecap="round"/>
<polyline points="4982.6 5062.9 4985.7 5053.4 4993.8 5059.3 4996.9 5049.8 5004.9 5055.6 5001.9 5065.2 4998.8 5055.6 4995.7 5065.2 4992.6 5074.7 4984.5 5068.8 4992.6 5062.9 4989.5 5072.4 4986.4 5062.9 4989.5 5053.4 4997.6 5047.5 5005.7 5041.6 5002.6 5032.1 5005.7 5022.6 5002.6 5013.1 4992.6 5013.1 5000.7 5007.2 4997.6 4997.7 4989.5 4991.8 4986.4 5001.4 4989.5 4991.8 4997.6 4986 4994.5 4976.5 4984.5 4976.5 4987.6 4986 4995.7 4980.1 5003.8 4974.2 5011.9 4968.3 5021.9 4968.3 5018.8 4977.8 5015.7 4987.4 5005.7 4987.4 5008.8 4977.8 4998.8 4977.8 5001.9 4968.3 5011.9 4968.3 5003.8 4974.2 5013.8 4974.2 5023.8 4974.2" clip-path="url(#a)" fill="none" stroke="#000" stroke-linecap="round"/>
<polyline points="5023.8 4974.2 5020.7 4983.7 5012.6 4977.8 5022.6 4977.8 5014.5 4983.7 5004.5 4983.7 4996.4 4977.8 4988.3 4972 4980.2 4977.8 4970.2 4977.8 4962.1 4983.7 4965.2 4993.2 4957.1 4987.4 4949 4993.2 4946 5002.7 4956 5002.7 4946 5002.7 4937.9 4996.9 4929.8 5002.7 4932.9 5012.3 4941 5006.4 4932.9 5000.5 4924.8 4994.6 4916.7 4988.7 4913.6 4979.2 4923.6 4979.2 4933.6 4979.2 4936.7 4988.7 4926.7 4988.7 4929.8 4998.3 4919.8 4998.3 4916.7 4988.7 4924.8 4994.6 4921.7 4985.1 4918.6 4975.6 4928.6 4975.6 4925.5 4985.1 4922.4 4975.6 4930.5 4981.5 4933.6 4991 4930.5 5000.5 4927.4 5010 4935.5 5015.9" clip-path="url(#a)" fill="none" stroke="#000" stroke-linecap="round"/>
<polyline points="4935.5 5015.9 4938.6 5025.4 4946.7 5031.3 4954.8 5025.4 4951.7 5034.9 4959.8 5040.8 4969.8 5040.8 4966.7 5031.3 4969.8 5040.8 4966.7 5050.3 4974.8 5056.2 4982.9 5050.3 4974.8 5044.4 4971.7 5053.9 4968.6 5063.4 4965.5 5073 4957.4 5078.8 4954.3 5069.3 4951.2 5059.8 4959.3 5053.9 4962.4 5063.4 4970.5 5057.6 4973.6 5067.1 4965.5 5073 4968.6 5063.4 4960.5 5069.3 4952.4 5075.2 4949.3 5065.7 4959.3 5065.7 4951.2 5071.6 4954.3 5062.1 4962.4 5056.2 4972.4 5056.2 4982.4 5056.2 4985.5 5046.7 4993.6 5040.8 4996.7 5031.3 4988.6 5025.4 4998.6 5025.4 5001.7 5015.9 4998.6 5006.4 4990.5 5012.3 4998.6 5006.4" clip-path="url(#a)" fill="none" stroke="#000" stroke-linecap="round"/>
<polyline points="4998.6 5006.4 5008.6 5006.4 5011.7 4996.9 5003.6 4991 5000.5 5000.5 5010.5 5000.5 5020.5 5000.5 5030.5 5000.5 5038.6 5006.4 5030.5 5012.3 5022.4 5018.1 5014.3 5012.3 5022.4 5006.4 5014.3 5000.5 5022.4 4994.6 5030.5 5000.5 5020.5 5000.5 5028.6 5006.4 5036.7 5012.3 5028.6 5018.1 5025.5 5008.6 5033.6 5014.5 5023.6 5014.5 5015.5 5008.6 5012.4 4999.1 5009.3 4989.6 4999.3 4989.6 4991.2 4983.7 4981.2 4983.7 4978.1 4993.2 4975 4983.7 4965 4983.7 4957 4989.6 4965 4995.5 4957 4989.6 4953.9 4980.1 4943.9 4980.1 4940.8 4989.6 4950.8 4989.6 4947.7 4980.1 4944.6 4970.6 4941.5 4961.1 4944.6 4951.6" clip-path="url(#a)" fill="none" stroke="#000" stroke-linecap="round"/>
<polyline points="4944.6 4951.6 4952.7 4957.4 4960.8 4963.3 4957.7 4972.8 4949.6 4966.9 4946.5 4976.5 4938.4 4970.6 4941.5 4961.1 4944.6 4970.6 4947.7 4961.1 4950.8 4951.6 4958.9 4957.4 4950.8 4963.3 4953.9 4953.8 4957 4963.3 4953.9 4972.8 4945.8 4978.7 4937.7 4984.6 4940.8 4994.1 4937.7 5003.6 4940.8 5013.1 4950.8 5013.1 4942.7 5019 4945.8 5028.5 4953.9 5034.4 4957 5024.9 4953.9 5034.4 4945.8 5040.3 4948.9 5049.8 4958.9 5049.8 4955.8 5040.3 4947.7 5046.1 4939.6 5052 4931.5 5057.9 4921.5 5057.9 4924.6 5048.4 4927.7 5038.9 4937.7 5038.9 4934.6 5048.4 4944.6 5048.4 4941.5 5057.9 4931.5 5057.9 4939.6 5052" clip-path="url(#a)" fill="none" stroke="#000" stroke-linecap="round"/>
<polyline points="4939.6 5052 4929.6 5052 4919.6 5052 4922.7 5042.5 4930.8 5048.4 4920.8 5048.4 4928.9 5042.5 4938.9 5042.5 4947 5048.4 4955 5054.3 4963.1 5048.4 4973.1 5048.4 4981.2 5042.5 4978.1 5033 4986.2 5038.9 4994.3 5033 4997.4 5023.5 4987.4 5023.5 4997.4 5023.5 5005.5 5029.4 5013.6 5023.5 5010.5 5014 5002.4 5019.8 5010.5 5025.7 5018.6 5031.6 5026.7 5037.5 5029.8 5047 5019.8 5047 5009.8 5047 5006.7 5037.5 5016.7 5037.5 5013.6 5028 5023.6 5028 5026.7 5037.5 5018.6 5031.6 5021.7 5041.1 5024.8 5050.6 5014.8 5050.6 5017.9 5041.1 5021 5050.6 5012.9 5044.7 5009.8 5035.2 5012.9 5025.7" clip-path="url(#a)" fill="none" stroke="#000" stroke-linecap="round"/>
<polyline points="5012.9 5025.7 5016 5016.2 5007.9 5010.3 5004.8 5000.8 4996.7 4994.9 4988.6 5000.8 4991.7 4991.3 4983.6 4985.4 4973.6 4985.4 4976.7 4994.9 4973.6 4985.4 4976.7 4975.9 4968.6 4970.1 4960.5 4975.9 4968.6 4981.8 4971.7 4972.3 4974.8 4962.8 4977.9 4953.3 4986 4947.4 4989 4956.9 4992.1 4966.4 4984 4972.3 4981 4962.8 4972.9 4968.7 4969.8 4959.2 4977.9 4953.3 4974.8 4962.8 4982.9 4956.9 4991 4951 4994 4960.5 4984 4960.5 4992.1 4954.7 4989 4964.2 4981 4970.1 4971 4970.1 4961 4970.1 4957.9 4979.6 4949.8 4985.4 4946.7 4994.9 4954.8 5000.8 4944.8 5000.8 4941.7 5010.3 4944.8 5019.8" clip-path="url(#a)" fill="none" stroke="#000" stroke-linecap="round"/>
<polyline points="4944.8 5019.8 4952.9 5014 4944.8 5019.8 4934.8 5019.8 4931.7 5029.4 4939.8 5035.2 4942.9 5025.7 4932.9 5025.7 4922.9 5025.7 4912.9 5025.7 4904.8 5019.8 4912.9 5014 4921 5008.1 4929 5014 4921 5019.8 4929 5025.7 4921 5031.6 4912.9 5025.7 4922.9 5025.7 4914.8 5019.8 4906.7 5014 4914.8 5008.1 4917.9 5017.6 4909.8 5011.7 4919.8 5011.7 4927.9 5017.6 4931 5027.1 4934 5036.6 4944 5036.6 4952.1 5042.5 4962.1 5042.5 4965.2 5033 4968.3 5042.5 4978.3 5042.5 4986.4 5036.6 4978.3 5030.7 4986.4 5036.6 4989.5 5046.1 4999.5 5046.1 5002.6 5036.6 4992.6 5036.6 4995.7 5046.1 4998.8 5055.6" clip-path="url(#a)" fill="none" stroke="#000" stroke-linecap="round"/>
<polyline points="4998.8 5055.6 5001.9 5065.2 4998.8 5074.7 4990.7 5068.8 4982.6 5062.9 4985.7 5053.4 4993.8 5059.3 4996.9 5049.8 5004.9 5055.6 5001.9 5065.2 4998.8 5055.6 4995.7 5065.2 4992.6 5074.7 4984.5 5068.8 4992.6 5062.9 4989.5 5072.4 4986.4 5062.9 4989.5 5053.4 4997.6 5047.5 5005.7 5041.6 5002.6 5032.1 5005.7 5022.6 5002.6 5013.1 4992.6 5013.1 5000.7 5007.2 4997.6 4997.7 4989.5 4991.8 4986.4 5001.4 4989.5 4991.8 4997.6 4986 4994.5 4976.5 4984.5 4976.5 4987.6 4986 4995.7 4980.1 5003.8 4974.2 5011.9 4968.3 5021.9 4968.3 5018.8 4977.8 5015.7 4987.4 5005.7 4987.4 5008.8 4977.8 4998.8 4977.8 5001.9 4968.3" clip-path="url(#a)" fill="none" stroke="#000" stroke-linecap="round"/>
<polyline points="5001.9 4968.3 5011.9 4968.3 5003.8 4974.2 5013.8 4974.2 5023.8 4974.2 5020.7 4983.7 5012.6 4977.8 5022.6 4977.8 5014.5 4983.7 5004.5 4983.7 4996.4 4977.8 4988.3 4972 4980.2 4977.8 4970.2 4977.8 4962.1 4983.7 4965.2 4993.2 4957.1 4987.4 4949 4993.2 4946 5002.7 4956 5002.7 4946 5002.7 4937.9 4996.9 4929.8 5002.7 4932.9 5012.3 4941 5006.4 4932.9 5000.5 4924.8 4994.6 4916.7 4988.7 4913.6 4979.2 4923.6 4979.2 4933.6 4979.2 4936.7 4988.7 4926.7 4988.7 4929.8 4998.3 4919.8 4998.3 4916.7 4988.7 4924.8 4994.6 4921.7 4985.1 4918.6 4975.6 4928.6 4975.6 4925.5 4985.1 4922.4 4975.6 4930.5 4981.5" clip-path="url(#a)" fill="none" stroke="#000" stroke-linecap="round"/>
<polyline points="4930.5 4981.5 4933.6 4991 4930.5 5000.5 4927.4 5010 4935.5 5015.9 4938.6 5025.4 4946.7 5031.3 4954.8 5025.4 4951.7 5034.9 4959.8 5040.8 4969.8 5040.8 4966.7 5031.3 4969.8 5040.8 4966.7 5050.3 4974.8 5056.2 4982.9 5050.3 4974.8 5044.4 4971.7 5053.9 4968.6 5063.4 4965.5 5073 4957.4 5078.8 4954.3 5069.3 4951.2 5059.8 4959.3 5053.9 4962.4 5063.4 4970.5 5057.6 4973.6 5067.1 4965.5 5073 4968.6 5063.4 4960.5 5069.3 4952.4 5075.2 4949.3 5065.7 4959.3 5065.7 4951.2 5071.6 4954.3 5062.1 4962.4 5056.2 4972.4 5056.2 4982.4 5056.2 4985.5 5046.7 4993.6 5040.8 4996.7 5031.3 4988.6 5025.4 4998.6 5025.4" clip-path="url(#a)" fill="none" stroke="#000" stroke-linecap="round"/>
<polyline points="4998.6 5025.4 5001.7 5015.9 4998.6 5006.4 4990.5 5012.3 4998.6 5006.4 5008.6 5006.4 5011.7 4996.9 5003.6 4991 5000.5 5000.5 5010.5 5000.5 5020.5 5000.5 5030.5 5000.5 5038.6 5006.4 5030.5 5012.3 5022.4 5018.1 5014.3 5012.3 5022.4 5006.4 5014.3 5000.5 5022.4 4994.6 5030.5 5000.5 5020.5 5000.5 5028.6 5006.4 5036.7 5012.3 5028.6 5018.1 5025.5 5008.6 5033.6 5014.5 5023.6 5014.5 5015.5 5008.6 5012.4 4999.1 5009.3 4989.6 4999.3 4989.6 4991.2 4983.7 4981.2 4983.7 4978.1 4993.2 4975 4983.7 4965 4983.7 4957 4989.6 4965 4995.5 4957 4989.6 4953.9 4980.1 4943.9 4980.1 4940.8 4989.6 4950.8 4989.6" clip-path="url(#a)" fill="none" stroke="#000" stroke-linecap="round"/>
<polyline points="4950.8 4989.6 4947.7 4980.1 4944.6 4970.6 4941.5 4961.1 4944.6 4951.6 4952.7 4957.4 4960.8 4963.3 4957.7 4972.8 4949.6 4966.9 4946.5 4976.5 4938.4 4970.6 4941.5 4961.1 4944.6 4970.6 4947.7 4961.1 4950.8 4951.6 4958.9 4957.4 4950.8 4963.3 4953.9 4953.8 4957 4963.3 4953.9 4972.8 4945.8 4978.7 4937.7 4984.6 4940.8 4994.1 4937.7 5003.6 4940.8 5013.1 4950.8 5013.1 4942.7 5019 4945.8 5028.5 4953.9 5034.4 4957 5024.9 4953.9 5034.4 4945.8 5040.3 4948.9 5049.8 4958.9 5049.8 4955.8 5040.3 4947.7 5046.1 4939.6 5052 4931.5 5057.9 4921.5 5057.9 4924.6 5048.4 4927.7 5038.9 4937.7 5038.9 4934.6 5048.4" clip-path="url(#a)" fill="none" stroke="#000" stroke-linecap="round"/>
<polyline points="4934.6 5048.4 4944.6 5048.4 4941.5 5057.9 4931.5 5057.9 4939.6 5052 4929.6 5052 4919.6 5052 4922.7 5042.5 4930.8 5048.4 4920.8 5048.4 4928.9 5042.5 4938.9 5042.5 4947 5048.4 4955 5054.3 4963.1 5048.4 4973.1 5048.4 4981.2 5042.5 4978.1 5033 4986.2 5038.9 4994.3 5033 4997.4 5023.5 4987.4 5023.5 4997.4 5023.5 5005.5 5029.4 5013.6 5023.5 5010.5 5014 5002.4 5019.8 5010.5 5025.7 5018.6 5031.6 5026.7 5037.5 5029.8 5047 5019.8 5047 5009.8 5047 5006.7 5037.5 5016.7 5037.5 5013.6 5028 5023.6 5028 5026.7 5037.5 5018.6 5031.6 5021.7 5041.1 5024.8 5050.6 5014.8 5050.6 5017.9 5041.1" clip-path="url(#a)" fill="none" stroke="#000" stroke-linecap="round"/>
<polyline points="5017.9 5041.1 5021 5050.6 5012.9 5044.7 5009.8 5035.2 5012.9 5025.7 5016 5016.2 5007.9 5010.3 5004.8 5000.8 4996.7 4994.9 4988.6 5000.8 4991.7 4991.3 4983.6 4985.4 4973.6 4985.4 4976.7 4994.9 4973.6 4985.4 4976.7 4975.9 4968.6 4970.1 4960.5 4975.9 4968.6 4981.8 4971.7 4972.3 4974.8 4962.8 4977.9 4953.3 4986 4947.4 4989 4956.9 4992.1 4966.4 4984 4972.3 4981 4962.8 4972.9 4968.7 4969.8 4959.2 4977.9 4953.3 4974.8 4962.8 4982.9 4956.9 4991 4951 4994 4960.5 4984 4960.5 4992.1 4954.7 4989 4964.2 4981 4970.1 4971 4970.1 4961 4970.1 4957.9 4979.6 4949.8 4985.4 4946.7 4994.9" clip-path="url(#a)" fill="none" stroke="#000" stroke-linecap="round"/>
<polyline points="4946.7 4994.9 4954.8 5000.8 4944.8 5000.8 4941.7 5010.3 4944.8 5019.8 4952.9 5014 4944.8 5019.8 4934.8 5019.8 4931.7 5029.4 4939.8 5035.2 4942.9 5025.7 4932.9 5025.7 4922.9 5025.7 4912.9 5025.7 4904.8 5019.8 4912.9 5014 4921 5008.1 4929 5014 4921 5019.8 4929 5025.7 4921 5031.6 4912.9 5025.7 4922.9 5025.7 4914.8 5019.8 4906.7 5014 4914.8 5008.1 4917.9 5017.6 4909.8 5011.7 4919.8 5011.7 4927.9 5017.6 4931 5027.1 4934 5036.6 4944 5036.6 4952.1 5042.5 4962.1 5042.5 4965.2 5033 4968.3 5042.5 4978.3 5042.5 4986.4 5036.6 4978.3 5030.7 4986.4 5036.6 4989.5 5046.1 4999.5 5046.1" clip-path="url(#a)" fill="none" stroke="#000" stroke-linecap="round"/>
<polyline points="4999.5 5046.1 5002.6 5036.6 4992.6 5036.6 4995.7 5046.1 4998.8 5055.6 5001.9 5065.2 4998.8 5074.7 4990.7 5068.8 4982.6 5062.9 4985.7 5053.4 4993.8 5059.3 4996.9 5049.8 5004.9 5055.6 5001.9 5065.2 4998.8 5055.6 4995.7 5065.2 4992.6 5074.7 4984.5 5068.8 4992.6 5062.9 4989.5 5072.4 4986.4 5062.9 4989.5 5053.4 4997.6 5047.5 5005.7 5041.6 5002.6 5032.1 5005.7 5022.6 5002.6 5013.1 4992.6 5013.1 5000.7 5007.2 4997.6 4997.7 4989.5 4991.8 4986.4 5001.4 4989.5 4991.8 4997.6 4986 4994.5 4976.5 4984.5 4976.5 4987.6 4986 4995.7 4980.1 5003.8 4974.2 5011.9 4968.3 5021.9 4968.3 5018.8 4977.8 5015.7 4987.4" clip-path="url(#a)" fill="none" stroke="#000" stroke-linecap="round"/>
<polyline points="5015.7 4987.4 5005.7 4987.4 5008.8 4977.8 4998.8 4977.8 5001.9 4968.3 5011.9 4968.3 5003.8 4974.2 5013.8 4974.2 5023.8 4974.2 5020.7 4983.7 5012.6 4977.8 5022.6 4977.8 5014.5 4983.7 5004.5 4983.7 4996.4 4977.8 4988.3 4972 4980.2 4977.8 4970.2 4977.8 4962.1 4983.7 4965.2 4993.2 4957.1 4987.4 4949 4993.2 4946 5002.7 4956 5002.7 4946 5002.7 4937.9 4996.9 4929.8 5002.7 4932.9 5012.3 4941 5006.4 4932.9 5000.5 4924.8 4994.6 4916.7 4988.7 4913.6 4979.2 4923.6 4979.2 4933.6 4979.2 4936.7 4988.7 4926.7 4988.7 4929.8 4998.3 4919.8 4998.3 4916.7 4988.7 4924.8 4994.6 4921.7 4985.1 4918.6 4975.6" clip-path="url(#a)" fill="none" stroke="#000" stroke-linecap="round"/>
<polyline points="4918.6 4975.6 4928.6 4975.6 4925.5 4985.1 4922.4 4975.6 4930.5 4981.5 4933.6 4991 4930.5 5000.5 4927.4 5010 4935.5 5015.9 4938.6 5025.4 4946.7 5031.3 4954.8 5025.4 4951.7 5034.9 4959.8 5040.8 4969.8 5040.8 4966.7 5031.3 4969.8 5040.8 4966.7 5050.3 4974.8 5056.2 4982.9 5050.3 4974.8 5044.4 4971.7 5053.9 4968.6 5063.4 4965.5 5073 4957.4 5078.8 4954.3 5069.3 4951.2 5059.8 4959.3 5053.9 4962.4 5063.4 4970.5 5057.6 4973.6 5067.1 4965.5 5073 4968.6 5063.4 4960.5 5069.3 4952.4 5075.2 4949.3 5065.7 4959.3 5065.7 4951.2 5071.6 4954.3 5062.1 4962.4 5056.2 4972.4 5056.2 4982.4 5056.2 4985.5 5046.7" clip-path="url(#a)" fill="none" stroke="#000" stroke-linecap="round"/>
<polyline points="4985.5 5046.7 4993.6 5040.8 4996.7 5031.3 4988.6 5025.4 4998.6 5025.4 5001.7 5015.9 4998.6 5006.4 4990.5 5012.3 4998.6 5006.4 5008.6 5006.4 5011.7 4996.9 5003.6 4991 5000.5 5000.5 5010.5 5000.5 5020.5 5000.5 5030.5 5000.5 5038.6 5006.4 5030.5 5012.3 5022.4 5018.1 5014.3 5012.3 5022.4 5006.4 5014.3 5000.5 5022.4 4994.6 5030.5 5000.5 5020.5 5000.5 5028.6 5006.4 5036.7 5012.3 5028.6 5018.1 5025.5 5008.6 5033.6 5014.5 5023.6 5014.5 5015.5 5008.6 5012.4 4999.1 5009.3 4989.6 4999.3 4989.6 4991.2 4983.7 4981.2 4983.7 4978.1 4993.2 4975 4983.7 4965 4983.7 4957 4989.6 4965 4995.5 4957 4989.6" clip-path="url(#a)" fill="none" stroke="#000" stroke-linecap="round"/>
<polyline points="4957 4989.6 4953.9 4980.1 4943.9 4980.1 4940.8 4989.6 4950.8 4989.6 4947.7 4980.1 4944.6 4970.6 4941.5 4961.1 4944.6 4951.6 4952.7 4957.4 4960.8 4963.3 4957.7 4972.8 4949.6 4966.9 4946.5 4976.5 4938.4 4970.6 4941.5 4961.1 4944.6 4970.6 4947.7 4961.1 4950.8 4951.6 4958.9 4957.4 4950.8 4963.3 4953.9 4953.8 4957 4963.3 4953.9 4972.8 4945.8 4978.7 4937.7 4984.6 4940.8 4994.1 4937.7 5003.6 4940.8 5013.1 4950.8 5013.1 4942.7 5019 4945.8 5028.5 4953.9 5034.4 4957 5024.9 4953.9 5034.4 4945.8 5040.3 4948.9 5049.8 4958.9 5049.8 4955.8 5040.3 4947.7 5046.1 4939.6 5052 4931.5 5057.9 4921.5 5057.9" clip-path="url(#a)" fill="none" stroke="#000" stroke-linecap="round"/>
<polyline points="4921.5 5057.9 4924.6 5048.4 4927.7 5038.9 4937.7 5038.9 4934.6 5048.4 4944.6 5048.4 4941.5 5057.9 4931.5 5057.9 4939.6 5052 4929.6 5052 4919.6 5052 4922.7 5042.5 4930.8 5048.4 4920.8 5048.4 4928.9 5042.5 4938.9 5042.5 4947 5048.4 4955 5054.3 4963.1 5048.4 4973.1 5048.4 4981.2 5042.5 4978.1 5033 4986.2 5038.9 4994.3 5033 4997.4 5023.5 4987.4 5023.5 4997.4 5023.5 5005.5 5029.4 5013.6 5023.5 5010.5 5014 5002.4 5019.8 5010.5 5025.7 5018.6 5031.6 5026.7 5037.5 5029.8 5047 5019.8 5047 5009.8 5047 5006.7 5037.5 5016.7 5037.5 5013.6 5028 5023.6 5028 5026.7 5037.5 5018.6 5031.6" clip-path="url(#a)" fill="none" stroke="#000" stroke-linecap="round"/>
<polyline points="5018.6 5031.6 5021.7 5041.1 5024.8 5050.6 5014.8 5050.6 5017.9 5041.1 5021 5050.6 5012.9 5044.7 5009.8 5035.2 5012.9 5025.7 5016 5016.2 5007.9 5010.3 5004.8 5000.8 4996.7 4994.9 4988.6 5000.8 4991.7 4991.3 4983.6 4985.4 4973.6 4985.4 4976.7 4994.9 4973.6 4985.4 4976.7 4975.9 4968.6 4970.1 4960.5 4975.9 4968.6 4981.8 4971.7 4972.3 4974.8 4962.8 4977.9 4953.3 4986 4947.4 4989 4956.9 4992.1 4966.4 4984 4972.3 4981 4962.8 4972.9 4968.7 4969.8 4959.2 4977.9 4953.3 4974.8 4962.8 4982.9 4956.9 4991 4951 4994 4960.5 4984 4960.5 4992.1 4954.7 4989 4964.2 4981 4970.1 4971 4970.1" clip-path="url(#a)" fill="none" stroke="#000" stroke-linecap="round"/>
<polyline points="4971 4970.1 4961 4970.1 4957.9 4979.6 4949.8 4985.4 4946.7 4994.9 4954.8 5000.8 4944.8 5000.8 4941.7 5010.3 4944.8 5019.8 4952.9 5014 4944.8 5019.8 4934.8 5019.8 4931.7 5029.4 4939.8 5035.2 4942.9 5025.7 4932.9 5025.7 4922.9 5025.7 4912.9 5025.7 4904.8 5019.8 4912.9 5014 4921 5008.1 4929 5014 4921 5019.8 4929 5025.7 4921 5031.6 4912.9 5025.7 4922.9 5025.7 4914.8 5019.8 4906.7 5014 4914.8 5008.1 4917.9 5017.6 4909.8 5011.7 4919.8 5011.7 4927.9 5017.6 4931 5027.1 4934 5036.6 4944 5036.6 4952.1 5042.5 4962.1 5042.5 4965.2 5033 4968.3 5042.5 4978.3 5042.5 4986.4 5036.6" clip-path="url(#a)" fill="none" stroke="#000" stroke-linecap="round"/>
<polyline points="4986.4 5036.6 4978.3 5030.7 4986.4 5036.6 4989.5 5046.1 4999.5 5046.1 5002.6 5036.6 4992.6 5036.6 4995.7 5046.1 4998.8 5055.6 5001.9 5065.2 4998.8 5074.7 4990.7 5068.8 4982.6 5062.9 4985.7 5053.4 4993.8 5059.3 4996.9 5049.8 5004.9 5055.6 5001.9 5065.2 4998.8 5055.6 4995.7 5065.2 4992.6 5074.7 4984.5 5068.8 4992.6 5062.9 4989.5 5072.4 4986.4 5062.9 4989.5 5053.4 4997.6 5047.5 5005.7 5041.6 5002.6 5032.1 5005.7 5022.6 5002.6 5013.1 4992.6 5013.1 5000.7 5007.2 4997.6 4997.7 4989.5 4991.8 4986.4 5001.4 4989.5 4991.8 4997.6 4986 4994.5 4976.5 4984.5 4976.5 4987.6 4986 4995.7 4980.1 5003.8 4974.2" clip-path="url(#a)" fill="none" stroke="#000" stroke-linecap="round"/>
<polyline points="5003.8 4974.2 5011.9 4968.3 5021.9 4968.3 5018.8 4977.8 5015.7 4987.4 5005.7 4987.4 5008.8 4977.8 4998.8 4977.8 5001.9 4968.3 5011.9 4968.3 5003.8 4974.2 5013.8 4974.2 5023.8 4974.2 5020.7 4983.7 5012.6 4977.8 5022.6 4977.8 5014.5 4983.7 5004.5 4983.7 4996.4 4977.8 4988.3 4972 4980.2 4977.8 4970.2 4977.8 4962.1 4983.7 4965.2 4993.2 4957.1 4987.4 4949 4993.2 4946 5002.7 4956 5002.7 4946 5002.7 4937.9 4996.9 4929.8 5002.7 4932.9 5012.3 4941 5006.4 4932.9 5000.5 4924.8 4994.6 4916.7 4988.7 4913.6 4979.2 4923.6 4979.2 4933.6 4979.2 4936.7 4988.7 4926.7 4988.7 4929.8 4998.3 4919.8 4998.3" clip-path="url(#a)" fill="none" stroke="#000" stroke-linecap="round"/>
<polyline points="4919.8 4998.3 4916.7 4988.7 4924.8 4994.6 4921.7 4985.1 4918.6 4975.6 4928.6 4975.6 4925.5 4985.1 4922.4 4975.6 4930.5 4981.5 4933.6 4991 4930.5 5000.5 4927.4 5010 4935.5 5015.9 4938.6 5025.4 4946.7 5031.3 4954.8 5025.4 4951.7 5034.9 4959.8 5040.8 4969.8 5040.8 4966.7 5031.3 4969.8 5040.8 4966.7 5050.3 4974.8 5056.2 4982.9 5050.3 4974.8 5044.4 4971.7 5053.9 4968.6 5063.4 4965.5 5073 4957.4 5078.8 4954.3 5069.3 4951.2 5059.8 4959.3 5053.9 4962.4 5063.4 4970.5 5057.6 4973.6 5067.1 4965.5 5073 4968.6 5063.4 4960.5 5069.3 4952.4 5075.2 4949.3 5065.7 4959.3 5065.7 4951.2 5071.6 4954.3 5062.1" clip-path="url(#a)" fill="none" stroke="#000" stroke-linecap="round"/>
<polyline points="4954.3 5062.1 4962.4 5056.2 4972.4 5056.2 4982.4 5056.2 4985.5 5046.7 4993.6 5040.8 4996.7 5031.3 4988.6 5025.4 4998.6 5025.4 5001.7 5015.9 4998.6 5006.4 4990.5 5012.3 4998.6 5006.4 5008.6 5006.4 5011.7 4996.9 5003.6 4991 5000.5 5000.5 5010.5 5000.5 5020.5 5000.5 5030.5 5000.5 5038.6 5006.4 5030.5 5012.3 5022.4 5018.1 5014.3 5012.3 5022.4 5006.4 5014.3 5000.5 5022.4 4994.6 5030.5 5000.5 5020.5 5000.5 5028.6 5006.4 5036.7 5012.3 5028.6 5018.1 5025.5 5008.6 5033.6 5014.5 5023.6 5014.5 5015.5 5008.6 5012.4 4999.1 5009.3 4989.6 4999.3 4989.6 4991.2 4983.7 4981.2 4983.7 4978.1 4993.2 4975 4983.7" clip-path="url(#a)" fill="none" stroke="#000" stroke-linecap="round"/>
<polyline points="4975 4983.7 4965 4983.7 4957 4989.6 4965 4995.5 4957 4989.6 4953.9 4980.1 4943.9 4980.1 4940.8 4989.6 4950.8 4989.6 4947.7 4980.1 4944.6 4970.6 4941.5 4961.1 4944.6 4951.6 4952.7 4957.4 4960.8 4963.3 4957.7 4972.8 4949.6 4966.9 4946.5 4976.5 4938.4 4970.6 4941.5 4961.1 4944.6 4970.6 4947.7 4961.1 4950.8 4951.6 4958.9 4957.4 4950.8 4963.3 4953.9 4953.8 4957 4963.3 4953.9 4972.8 4945.8 4978.7 4937.7 4984.6 4940.8 4994.1 4937.7 5003.6 4940.8 5013.1 4950.8 5013.1 4942.7 5019 4945.8 5028.5 4953.9 5034.4 4957 5024.9 4953.9 5034.4 4945.8 5040.3 4948.9 5049.8 4958.9 5049.8 4955.8 5040.3" clip-path="url(#a)" fill="none" stroke="#000" stroke-linecap="round"/>
<polyline points="4955.8 5040.3 4947.7 5046.1 4939.6 5052 4931.5 5057.9 4921.5 5057.9 4924.6 5048.4 4927.7 5038.9 4937.7 5038.9 4934.6 5048.4 4944.6 5048.4 4941.5 5057.9 4931.5 5057.9 4939.6 5052 4929.6 5052 4919.6 5052 4922.7 5042.5 4930.8 5048.4 4920.8 5048.4 4928.9 5042.5 4938.9 5042.5 4947 5048.4 4955 5054.3 4963.1 5048.4 4973.1 5048.4 4981.2 5042.5 4978.1 5033 4986.2 5038.9 4994.3 5033 4997.4 5023.5 4987.4 5023.5 4997.4 5023.5 5005.5 5029.4 5013.6 5023.5 5010.5 5014 5002.4 5019.8 5010.5 5025.7 5018.6 5031.6 5026.7 5037.5 5029.8 5047 5019.8 5047 5009.8 5047 5006.7 5037.5 5016.7 5037.5" clip-path="url(#a)" fill="none" stroke="#000" stroke-linecap="round"/>
<polyline points="5016.7 5037.5 5013.6 5028 5023.6 5028 5026.7 5037.5 5018.6 5031.6 5021.7 5041.1 5024.8 5050.6 5014.8 5050.6 5017.9 5041.1 5021 5050.6 5012.9 5044.7 5009.8 5035.2 5012.9 5025.7 5016 5016.2 5007.9 5010.3 5004.8 5000.8 4996.7 4994.9 4988.6 5000.8 4991.7 4991.3 4983.6 4985.4 4973.6 4985.4 4976.7 4994.9 4973.6 4985.4 4976.7 4975.9 4968.6 4970.1 4960.5 4975.9 4968.6 4981.8 4971.7 4972.3 4974.8 4962.8 4977.9 4953.3 4986 4947.4 4989 4956.9 4992.1 4966.4 4984 4972.3 4981 4962.8 4972.9 4968.7 4969.8 4959.2 4977.9 4953.3 4974.8 4962.8 4982.9 4956.9 4991 4951 4994 4960.5 4984 4960.5" clip-path="url(#a)" fill="none" stroke="#000" stroke-linecap="round"/>
<polyline points="4984 4960.5 4992.1 4954.7 4989 4964.2 4981 4970.1 4971 4970.1 4961 4970.1 4957.9 4979.6 4949.8 4985.4 4946.7 4994.9 4954.8 5000.8 4944.8 5000.8 4941.7 5010.3 4944.8 5019.8 4952.9 5014 4944.8 5019.8 4934.8 5019.8 4931.7 5029.4 4939.8 5035.2 4942.9 5025.7 4932.9 5025.7 4922.9 5025.7 4912.9 5025.7 4904.8 5019.8 4912.9 5014 4921 5008.1 4929 5014 4921 5019.8 4929 5025.7 4921 5031.6 4912.9 5025.7 4922.9 5025.7 4914.8 5019.8 4906.7 5014 4914.8 5008.1 4917.9 5017.6 4909.8 5011.7 4919.8 5011.7 4927.9 5017.6 4931 5027.1 4934 5036.6 4944 5036.6 4952.1 5042.5 4962.1 5042.5" clip-path="url(#a)" fill="none" stroke="#000" stroke-linecap="round"/>
<polyline points="4962.1 5042.5 4965.2 5033 4968.3 5042.5 4978.3 5042.5 4986.4 5036.6 4978.3 5030.7 4986.4 5036.6 4989.5 5046.1 4999.5 5046.1 5002.6 5036.6 4992.6 5036.6 4995.7 5046.1 4998.8 5055.6 5001.9 5065.2 4998.8 5074.7 4990.7 5068.8 4982.6 5062.9 4985.7 5053.4 4993.8 5059.3 4996.9 5049.8 5004.9 5055.6 5001.9 5065.2 4998.8 5055.6 4995.7 5065.2 4992.6 5074.7 4984.5 5068.8 4992.6 5062.9 4989.5 5072.4 4986.4 5062.9 4989.5 5053.4 4997.6 5047.5 5005.7 5041.6 5002.6 5032.1 5005.7 5022.6 5002.6 5013.1 4992.6 5013.1 5000.7 5007.2 4997.6 4997.7 4989.5 4991.8 4986.4 5001.4 4989.5 4991.8 4997.6 4986 4994.5 4976.5" clip-path="url(#a)" fill="none" stroke="#000" stroke-linecap="round"/>
<polyline points="4994.5 4976.5 4984.5 4976.5 4987.6 4986 4995.7 4980.1 5003.8 4974.2 5011.9 4968.3 5021.9 4968.3 5018.8 4977.8 5015.7 4987.4 5005.7 4987.4 5008.8 4977.8 4998.8 4977.8 5001.9 4968.3 5011.9 4968.3 5003.8 4974.2 5013.8 4974.2 5023.8 4974.2 5020.7 4983.7 5012.6 4977.8 5022.6 4977.8 5014.5 4983.7 5004.5 4983.7 4996.4 4977.8 4988.3 4972 4980.2 4977.8 4970.2 4977.8 4962.1 4983.7 4965.2 4993.2 4957.1 4987.4 4949 4993.2 4946 5002.7 4956 5002.7 4946 5002.7 4937.9 4996.9 4929.8 5002.7 4932.9 5012.3 4941 5006.4 4932.9 5000.5 4924.8 4994.6 4916.7 4988.7 4913.6 4979.2 4923.6 4979.2 4933.6 4979.2" clip-path="url(#a)" fill="none" stroke="#000" stroke-linecap="round"/>
<polyline points="4933.6 4979.2 4936.7 4988.7 4926.7 4988.7 4929.8 4998.3 4919.8 4998.3 4916.7 4988.7 4924.8 4994.6 4921.7 4985.1 4918.6 4975.6 4928.6 4975.6 4925.5 4985.1 4922.4 4975.6 4930.5 4981.5 4933.6 4991 4930.5 5000.5 4927.4 5010 4935.5 5015.9 4938.6 5025.4 4946.7 5031.3 4954.8 5025.4 4951.7 5034.9 4959.8 5040.8 4969.8 5040.8 4966.7 5031.3 4969.8 5040.8 4966.7 5050.3 4974.8 5056.2 4982.9 5050.3 4974.8 5044.4 4971.7 5053.9 4968.6 5063.4 4965.5 5073 4957.4 5078.8 4954.3 5069.3 4951.2 5059.8 4959.3 5053.9 4962.4 5063.4 4970.5 5057.6 4973.6 5067.1 4965.5 5073 4968.6 5063.4 4960.5 5069.3 4952.4 5075.2" clip-path="url(#a)" fill="none" stroke="#000" stroke-linecap="round"/>
<polyline points="4952.4 5075.2 4949.3 5065.7 4959.3 5065.7 4951.2 5071.6 4954.3 5062.1 4962.4 5056.2 4972.4 5056.2 4982.4 5056.2 4985.5 5046.7 4993.6 5040.8 4996.7 5031.3 4988.6 5025.4 4998.6 5025.4 5001.7 5015.9 4998.6 5006.4 4990.5 5012.3 4998.6 5006.4 5008.6 5006.4 5011.7 4996.9 5003.6 4991 5000.5 5000.5 5010.5 5000.5 5020.5 5000.5 5030.5 5000.5 5038.6 5006.4 5030.5 5012.3 5022.4 5018.1 5014.3 5012.3 5022.4 5006.4 5014.3 5000.5 5022.4 4994.6 5030.5 5000.5 5020.5 5000.5 5028.6 5006.4 5036.7 5012.3 5028.6 5018.1 5025.5 5008.6 5033.6 5014.5 5023.6 5014.5 5015.5 5008.6 5012.4 4999.1 5009.3 4989.6 4999.3 4989.6" clip-path="url(#a)" fill="none" stroke="#000" stroke-linecap="round"/>
<polyline points="4999.3 4989.6 4991.2 4983.7 4981.2 4983.7 4978.1 4993.2 4975 4983.7 4965 4983.7 4957 4989.6 4965 4995.5 4957 4989.6 4953.9 4980.1 4943.9 4980.1 4940.8 4989.6 4950.8 4989.6 4947.7 4980.1 4944.6 4970.6 4941.5 4961.1 4944.6 4951.6 4952.7 4957.4 4960.8 4963.3 4957.7 4972.8 4949.6 4966.9 4946.5 4976.5 4938.4 4970.6 4941.5 4961.1 4944.6 4970.6 4947.7 4961.1 4950.8 4951.6 4958.9 4957.4 4950.8 4963.3 4953.9 4953.8 4957 4963.3 4953.9 4972.8 4945.8 4978.7 4937.7 4984.6 4940.8 4994.1 4937.7 5003.6 4940.8 5013.1 4950.8 5013.1 4942.7 5019 4945.8 5028.5 4953.9 5034.4 4957 5024.9 4953.9 5034.4" clip-path="url(#a)" fill="none" stroke="#000" stroke-linecap="round"/>
<polyline points="4953.9 5034.4 4945.8 5040.3 4948.9 5049.8 4958.9 5049.8 4955.8 5040.3 4947.7 5046.1 4939.6 5052 4931.5 5057.9 4921.5 5057.9 4924.6 5048.4 4927.7 5038.9 4937.7 5038.9 4934.6 5048.4 4944.6 5048.4 4941.5 5057.9 4931.5 5057.9 4939.6 5052 4929.6 5052 4919.6 5052 4922.7 5042.5 4930.8 5048.4 4920.8 5048.4 4928.9 5042.5 4938.9 5042.5 4947 5048.4 4955 5054.3 4963.1 5048.4 4973.1 5048.4 4981.2 5042.5 4978.1 5033 4986.2 5038.9 4994.3 5033 4997.4 5023.5 4987.4 5023.5 4997.4 5023.5 5005.5 5029.4 5013.6 5023.5 5010.5 5014 5002.4 5019.8 5010.5 5025.7 5018.6 5031.6 5026.7 5037.5 5029.8 5047" clip-path="url(#a)" fill="none" stroke="#000" stroke-linecap="round"/>
<polyline points="5029.8 5047 5019.8 5047 5009.8 5047 5006.7 5037.5 5016.7 5037.5 5013.6 5028 5023.6 5028 5026.7 5037.5 5018.6 5031.6 5021.7 5041.1 5024.8 5050.6 5014.8 5050.6 5017.9 5041.1 5021 5050.6 5012.9 5044.7 5009.8 5035.2 5012.9 5025.7 5016 5016.2 5007.9 5010.3 5004.8 5000.8 4996.7 4994.9 4988.6 5000.8 4991.7 4991.3 4983.6 4985.4 4973.6 4985.4 4976.7 4994.9 4973.6 4985.4 4976.7 4975.9 4968.6 4970.1 4960.5 4975.9 4968.6 4981.8 4971.7 4972.3 4974.8 4962.8 4977.9 4953.3 4986 4947.4 4989 4956.9 4992.1 4966.4 4984 4972.3 4981 4962.8 4972.9 4968.7 4969.8 4959.2 4977.9 4953.3 4974.8 4962.8" clip-path="url(#a)" fill="none" stroke="#000" stroke-linecap="round"/>
<polyline points="4974.8 4962.8 4982.9 4956.9 4991 4951 4994 4960.5 4984 4960.5 4992.1 4954.7 4989 4964.2 4981 4970.1 4971 4970.1 4961 4970.1 4957.9 4979.6 4949.8 4985.4 4946.7 4994.9 4954.8 5000.8 4944.8 5000.8 4941.7 5010.3 4944.8 5019.8 4952.9 5014 4944.8 5019.8 4934.8 5019.8 4931.7 5029.4 4939.8 5035.2 4942.9 5025.7 4932.9 5025.7 4922.9 5025.7 4912.9 5025.7 4904.8 5019.8 4912.9 5014 4921 5008.1 4929 5014 4921 5019.8 4929 5025.7 4921 5031.6 4912.9 5025.7 4922.9 5025.7 4914.8 5019.8 4906.7 5014 4914.8 5008.1 4917.9 5017.6 4909.8 5011.7 4919.8 5011.7 4927.9 5017.6 4931 5027.1" clip-path="url(#a)" fill="none" stroke="#000" stroke-linecap="round"/>
<polyline points="4931 5027.1 4934 5036.6 4944 5036.6 4952.1 5042.5 4962.1 5042.5 4965.2 5033 4968.3 5042.5 4978.3 5042.5 4986.4 5036.6 4978.3 5030.7 4986.4 5036.6 4989.5 5046.1 4999.5 5046.1 5002.6 5036.6 4992.6 5036.6 4995.7 5046.1 4998.8 5055.6 5001.9 5065.2 4998.8 5074.7 4990.7 5068.8 4982.6 5062.9 4985.7 5053.4 4993.8 5059.3 4996.9 5049.8 5004.9 5055.6 5001.9 5065.2 4998.8 5055.6 4995.7 5065.2 4992.6 5074.7 4984.5 5068.8 4992.6 5062.9 4989.5 5072.4 4986.4 5062.9 4989.5 5053.4 4997.6 5047.5 5005.7 5041.6 5002.6 5032.1 5005.7 5022.6 5002.6 5013.1 4992.6 5013.1 5000.7 5007.2 4997.6 4997.7 4989.5 4991.8" clip-path="url(#a)" fill="none" stroke="#000" stroke-linecap="round"/>
<polyline points="4989.5 4991.8 4986.4 5001.4 4989.5 4991.8 4997.6 4986 4994.5 4976.5 4984.5 4976.5 4987.6 4986 4995.7 4980.1 5003.8 4974.2 5011.9 4968.3 5021.9 4968.3 5018.8 4977.8 5015.7 4987.4 5005.7 4987.4 5008.8 4977.8 4998.8 4977.8 5001.9 4968.3 5011.9 4968.3 5003.8 4974.2 5013.8 4974.2 5023.8 4974.2 5020.7 4983.7 5012.6 4977.8 5022.6 4977.8 5014.5 4983.7 5004.5 4983.7 4996.4 4977.8 4988.3 4972 4980.2 4977.8 4970.2 4977.8 4962.1 4983.7 4965.2 4993.2 4957.1 4987.4 4949 4993.2 4946 5002.7 4956 5002.7 4946 5002.7 4937.9 4996.9 4929.8 5002.7 4932.9 5012.3 4941 5006.4 4932.9 5000.5 4924.8 4994.6" clip-path="url(#a)" fill="none" stroke="#000" stroke-linecap="round"/>
<polyline points="4924.8 4994.6 4916.7 4988.7 4913.6 4979.2 4923.6 4979.2 4933.6 4979.2 4936.7 4988.7 4926.7 4988.7 4929.8 4998.3 4919.8 4998.3 4916.7 4988.7 4924.8 4994.6 4921.7 4985.1 4918.6 4975.6 4928.6 4975.6 4925.5 4985.1 4922.4 4975.6 4930.5 4981.5 4933.6 4991 4930.5 5000.5 4927.4 5010 4935.5 5015.9 4938.6 5025.4 4946.7 5031.3 4954.8 5025.4 4951.7 5034.9 4959.8 5040.8 4969.8 5040.8 4966.7 5031.3 4969.8 5040.8 4966.7 5050.3 4974.8 5056.2 4982.9 5050.3 4974.8 5044.4 4971.7 5053.9 4968.6 5063.4 4965.5 5073 4957.4 5078.8 4954.3 5069.3 4951.2 5059.8 4959.3 5053.9 4962.4 5063.4 4970.5 5057.6 4973.6 5067.1" clip-path="url(#a)" fill="none" stroke="#000" stroke-linecap="round"/>
<polyline points="4973.6 5067.1 4965.5 5073 4968.6 5063.4 4960.5 5069.3 4952.4 5075.2 4949.3 5065.7 4959.3 5065.7 4951.2 5071.6 4954.3 5062.1 4962.4 5056.2 4972.4 5056.2 4982.4 5056.2 4985.5 5046.7 4993.6 5040.8 4996.7 5031.3 4988.6 5025.4 4998.6 5025.4 5001.7 5015.9 4998.6 5006.4 4990.5 5012.3 4998.6 5006.4 5008.6 5006.4 5011.7 4996.9 5003.6 4991 5000.5 5000.5" clip-path="url(#a)" fill="none" stroke="#000" stroke-linecap="round"/>
</svg>
