<?xml version="1.0" encoding="utf-8" ?>
<svg baseProfile="full" height="10000px" version="1.1" width="10000px" xmlns="http://www.w3.org/2000/svg" xmlns:ev="http://www.w3.org/2001/xml-events" xmlns:xlink="http://www.w3.org/1999/xlink"><defs><clipPath id="border_clip"><rect height="10000" width="10000" x="0" y="0" /></clipPath></defs><polyline clip-path="url(#border_clip)" fill="none" points="5000.5,5000.5 5010.5,5000.5 5020.5,5000.5 5030.5,5000.5 5038.590169943749,5006.3778525229245 5041.680339887499,4996.8672873599735 5033.590169943749,5002.745139882898 5041.680339887499,4996.8672873599735 5044.770509831248,5006.3778525229245 5041.680339887499,5015.888417685876 5049.770509831248,5010.010565162952 5041.680339887499,5004.1327126400265 5038.590169943749,4994.6221474770755 5028.590169943749,4994.6221474770755 5038.590169943749,4994.6221474770755 5041.680339887499,4985.111582314124 5031.680339887499,4985.111582314124 5034.770509831248,4994.6221474770755 5026.680339887499,4988.74429495415 5029.770509831248,4998.254860117102 5032.860679774998,4988.744294954151 5042.860679774998,4988.744294954151 5032.860679774998,4988.744294954151 5024.770509831248,4982.866442431226 5027.860679774998,4973.3558772682745 5024.770509831248,4963.845312105323 5016.680339887499,4969.723164628247 5008.59016994375,4975.6010171511725 5000.5,4969.723164628247 5003.590169943749,4979.233729791199 5011.680339887499,4985.111582314124 5021.680339887499,4985.111582314124 5024.770509831248,4975.6010171511725 5021.680339887499,4966.090451988221 5018.59016994375,4975.6010171511725 5010.5,4981.478869674097 5018.59016994375,4975.6010171511725 5010.5,4969.723164628247 5002.409830056251,4975.601017151172 4999.319660112501,4966.090451988221 4991.229490168752,4960.212599465296 4983.139320225002,4954.334746942371 4975.049150281253,4960.212599465296" stroke="black" stroke-linecap="round" stroke-width="1" /><polyline clip-path="url(#border_clip)" fill="none" points="4975.049150281253,4960.212599465296 4966.958980337503,4954.334746942371 4958.868810393754,4948.456894419446 4955.778640450004,4957.967459582398 4947.688470506255,4952.089607059473 4944.598300562506,4961.600172222425 4934.598300562506,4961.600172222425 4937.688470506255,4971.110737385376 4945.778640450004,4976.988589908301 4937.688470506255,4982.866442431226 4934.598300562505,4973.355877268274 4937.688470506255,4982.866442431226 4927.688470506255,4982.866442431226 4917.688470506255,4982.866442431226 4907.688470506255,4982.866442431226 4899.598300562505,4976.9885899083 4896.508130618756,4986.499155071252 4904.598300562505,4980.621302548328 4896.508130618756,4986.499155071252 4893.417960675006,4976.9885899083 4896.508130618756,4967.478024745349 4888.417960675006,4973.355877268274 4896.508130618756,4979.233729791198 4899.598300562505,4988.74429495415 4909.598300562505,4988.74429495415 4899.598300562505,4988.74429495415 4896.508130618756,4998.254860117101 4906.508130618756,4998.254860117101 4903.417960675006,4988.74429495415 4911.508130618756,4994.622147477075 4908.417960675006,4985.111582314124 4905.327790731257,4994.622147477075 4895.327790731257,4994.622147477075 4905.327790731257,4994.622147477075 4913.417960675006,5000.499999999999 4910.327790731257,5010.010565162951 4913.417960675006,5019.521130325903 4921.508130618756,5013.6432778029775 4929.598300562505,5007.765425280053 4937.688470506255,5013.643277802978 4934.598300562505,5004.1327126400265 4926.508130618756,4998.254860117102 4916.508130618756,4998.254860117102" stroke="black" stroke-linecap="round" stroke-width="1" /><polyline clip-path="url(#border_clip)" fill="none" points="4916.508130618756,4998.254860117102 4913.417960675006,5007.765425280053 4916.508130618756,5017.275990443005 4919.598300562505,5007.765425280053 4927.688470506255,5001.8875727571285 4919.598300562505,5007.765425280053 4927.688470506255,5013.643277802978 4935.778640450004,5007.765425280053 4938.868810393753,5017.275990443005 4946.958980337503,5023.1538429659295 4955.049150281252,5029.031695488855 4963.139320225002,5023.15384296593 4971.229490168751,5029.031695488855 4979.319660112501,5034.909548011779 4982.40983005625,5025.398982848828 4990.5,5031.276835371753 4993.590169943749,5021.766270208801 5003.590169943749,5021.766270208802 5000.5,5012.25570504585 4992.40983005625,5006.377852522925 5000.5,5000.5 5003.590169943749,5010.010565162952 5000.5,5000.5 5010.5,5000.500000000001 5020.5,5000.500000000001 5030.5,5000.500000000001 5038.590169943749,5006.377852522925 5041.680339887499,4996.867287359974 5033.590169943749,5002.745139882899 5041.680339887499,4996.867287359974 5044.770509831248,5006.377852522925 5041.680339887499,5015.888417685877 5049.770509831248,5010.010565162953 5041.680339887499,5004.132712640027 5038.59016994375,4994.622147477076 5028.59016994375,4994.622147477076 5038.59016994375,4994.622147477076 5041.680339887499,4985.1115823141245 5031.680339887499,4985.1115823141245 5034.770509831249,4994.622147477076 5026.680339887499,4988.744294954151 5029.770509831248,4998.254860117103 5032.860679774998,4988.744294954151" stroke="black" stroke-linecap="round" stroke-width="1" /><polyline clip-path="url(#border_clip)" fill="none" points="5032.860679774998,4988.744294954151 5042.860679774998,4988.744294954151 5032.860679774998,4988.744294954151 5024.770509831249,4982.8664424312265 5027.860679774998,4973.3558772682745 5024.770509831249,4963.8453121053235 5016.680339887499,4969.723164628248 5008.59016994375,4975.6010171511725 5000.5,4969.723164628248 5003.59016994375,4979.233729791199 5011.680339887499,4985.1115823141245 5021.680339887499,4985.1115823141245 5024.770509831249,4975.6010171511725 5021.680339887499,4966.0904519882215 5018.59016994375,4975.6010171511725 5010.5,4981.478869674097 5018.59016994375,4975.6010171511725 5010.5,4969.723164628248 5002.409830056251,4975.6010171511725 4999.319660112502,4966.090451988221 4991.229490168752,4960.212599465296 4983.139320225003,4954.334746942371 4975.049150281253,4960.212599465296 4966.958980337504,4954.334746942371 4958.868810393755,4948.456894419446 4955.778640450005,4957.967459582397 4947.688470506256,4952.089607059473 4944.598300562506,4961.600172222424 4934.598300562506,4961.600172222424 4937.688470506255,4971.110737385376 4945.778640450004,4976.9885899083 4937.688470506255,4982.866442431225 4934.598300562506,4973.355877268274 4937.688470506255,4982.866442431225 4927.688470506255,4982.866442431225 4917.688470506255,4982.866442431225 4907.688470506255,4982.866442431225 4899.598300562505,4976.988589908299 4896.508130618756,4986.499155071251 4904.598300562505,4980.621302548327 4896.508130618756,4986.499155071251 4893.417960675007,4976.988589908299 4896.508130618756,4967.478024745348" stroke="black" stroke-linecap="round" stroke-width="1" /><polyline clip-path="url(#border_clip)" fill="none" points="4896.508130618756,4967.478024745348 4888.417960675007,4973.355877268273 4896.508130618756,4979.233729791197 4899.598300562505,4988.744294954149 4909.598300562505,4988.744294954149 4899.598300562505,4988.744294954149 4896.508130618756,4998.2548601171 4906.508130618756,4998.254860117101 4903.417960675006,4988.744294954149 4911.508130618756,4994.622147477074 4908.417960675006,4985.111582314123 4905.327790731257,4994.622147477074 4895.327790731257,4994.622147477074 4905.327790731257,4994.622147477074 4913.417960675006,5000.499999999999 4910.327790731256,5010.01056516295 4913.417960675006,5019.521130325902 4921.508130618755,5013.6432778029775 4929.598300562505,5007.765425280053 4937.688470506254,5013.6432778029775 4934.598300562505,5004.1327126400265 4926.508130618756,4998.254860117101 4916.508130618756,4998.254860117101 4913.417960675006,5007.765425280052 4916.508130618755,5017.275990443004 4919.598300562505,5007.765425280053 4927.688470506254,5001.887572757128 4919.598300562505,5007.765425280053 4927.688470506254,5013.6432778029775 4935.778640450004,5007.765425280053 4938.868810393753,5017.275990443005 4946.958980337502,5023.1538429659295 4955.049150281252,5029.031695488855 4963.139320225001,5023.1538429659295 4971.229490168751,5029.031695488855 4979.3196601125,5034.909548011779 4982.40983005625,5025.398982848828 4990.499999999999,5031.276835371753 4993.590169943749,5021.766270208802 5003.590169943749,5021.766270208802 5000.5,5012.25570504585 4992.40983005625,5006.377852522925 5000.5,5000.500000000001" stroke="black" stroke-linecap="round" stroke-width="1" /><polyline clip-path="url(#border_clip)" fill="none" points="5000.5,5000.500000000001 5003.590169943749,5010.010565162953 5000.5,5000.500000000001 5010.5,5000.500000000001 5020.5,5000.500000000001 5030.5,5000.500000000002 5038.590169943749,5006.377852522926 5041.680339887499,4996.867287359975 5033.590169943749,5002.7451398829 5041.680339887499,4996.867287359975 5044.770509831248,5006.377852522926 5041.680339887499,5015.888417685878 5049.770509831248,5010.010565162954 5041.680339887499,5004.132712640028 5038.59016994375,4994.622147477077 5028.59016994375,4994.622147477076 5038.59016994375,4994.622147477077 5041.680339887499,4985.111582314125 5031.680339887499,4985.111582314125 5034.770509831249,4994.622147477077 5026.680339887499,4988.744294954152 5029.770509831248,4998.254860117104 5032.860679774998,4988.744294954152 5042.860679774998,4988.744294954152 5032.860679774998,4988.744294954152 5024.770509831249,4982.866442431227 5027.860679774999,4973.355877268275 5024.770509831249,4963.8453121053235 5016.6803398875,4969.723164628249 5008.59016994375,4975.601017151173 5000.500000000001,4969.723164628248 5003.59016994375,4979.2337297912 5011.680339887499,4985.1115823141245 5021.680339887499,4985.111582314125 5024.770509831249,4975.601017151173 5021.6803398875,4966.0904519882215 5018.59016994375,4975.601017151173 5010.5,4981.478869674098 5018.59016994375,4975.601017151173 5010.500000000001,4969.723164628248 5002.409830056251,4975.6010171511725 4999.319660112502,4966.0904519882215 4991.229490168753,4960.212599465296" stroke="black" stroke-linecap="round" stroke-width="1" /><polyline clip-path="url(#border_clip)" fill="none" points="4991.229490168753,4960.212599465296 4983.139320225003,4954.334746942372 4975.049150281254,4960.212599465296 4966.958980337504,4954.334746942371 4958.868810393755,4948.456894419446 4955.778640450005,4957.967459582397 4947.688470506256,4952.089607059473 4944.598300562506,4961.600172222424 4934.598300562506,4961.600172222424 4937.688470506255,4971.110737385375 4945.778640450005,4976.9885899083 4937.688470506255,4982.866442431225 4934.598300562506,4973.355877268273 4937.688470506255,4982.866442431225 4927.688470506255,4982.866442431225 4917.688470506255,4982.866442431224 4907.688470506255,4982.866442431224 4899.598300562506,4976.988589908298 4896.508130618756,4986.49915507125 4904.598300562505,4980.621302548326 4896.508130618756,4986.49915507125 4893.417960675007,4976.988589908298 4896.508130618756,4967.478024745347 4888.417960675007,4973.355877268272 4896.508130618756,4979.233729791196 4899.598300562505,4988.744294954148 4909.598300562505,4988.744294954148 4899.598300562505,4988.744294954148 4896.508130618755,4998.2548601171 4906.508130618755,4998.2548601171 4903.417960675006,4988.744294954148 4911.508130618756,4994.622147477074 4908.417960675006,4985.111582314122 4905.327790731257,4994.622147477073 4895.327790731257,4994.622147477073 4905.327790731257,4994.622147477073 4913.417960675006,5000.499999999998 4910.327790731256,5010.01056516295 4913.417960675005,5019.521130325901 4921.508130618755,5013.643277802977 4929.598300562505,5007.765425280052 4937.688470506254,5013.6432778029775 4934.598300562505,5004.132712640026" stroke="black" stroke-linecap="round" stroke-width="1" /><polyline clip-path="url(#border_clip)" fill="none" points="4934.598300562505,5004.132712640026 4926.508130618755,4998.254860117101 4916.508130618755,4998.2548601171 4913.417960675006,5007.765425280052 4916.508130618755,5017.275990443003 4919.598300562505,5007.765425280052 4927.688470506254,5001.887572757128 4919.598300562505,5007.765425280052 4927.688470506254,5013.6432778029775 4935.778640450004,5007.765425280053 4938.868810393753,5017.275990443004 4946.958980337502,5023.1538429659295 4955.049150281251,5029.031695488854 4963.139320225001,5023.1538429659295 4971.22949016875,5029.031695488855 4979.319660112499,5034.90954801178 4982.409830056249,5025.398982848828 4990.499999999999,5031.276835371754 4993.590169943748,5021.766270208802 5003.590169943748,5021.766270208803 5000.499999999999,5012.255705045851 4992.40983005625,5006.377852522925 5000.5,5000.500000000001 5003.590169943749,5010.010565162953 5000.5,5000.500000000001 5010.5,5000.500000000002 5020.5,5000.500000000002 5030.5,5000.500000000002 5038.590169943749,5006.377852522927 5041.680339887499,4996.867287359976 5033.590169943749,5002.745139882901 5041.680339887499,4996.867287359976 5044.770509831248,5006.377852522927 5041.680339887498,5015.888417685879 5049.770509831248,5010.010565162955 5041.680339887499,5004.132712640029 5038.59016994375,4994.622147477077 5028.59016994375,4994.622147477077 5038.59016994375,4994.622147477077 5041.6803398875,4985.111582314126 5031.6803398875,4985.111582314126 5034.770509831249,4994.622147477077 5026.680339887499,4988.744294954153" stroke="black" stroke-linecap="round" stroke-width="1" /><polyline clip-path="url(#border_clip)" fill="none" points="5026.680339887499,4988.744294954153 5029.770509831248,4998.254860117104 5032.860679774998,4988.744294954153 5042.860679774998,4988.744294954153 5032.860679774998,4988.744294954153 5024.770509831249,4982.866442431227 5027.860679774999,4973.355877268276 5024.77050983125,4963.845312105324 5016.6803398875,4969.723164628249 5008.59016994375,4975.601017151173 5000.500000000001,4969.723164628248 5003.59016994375,4979.2337297912 5011.680339887499,4985.111582314125 5021.680339887499,4985.111582314125 5024.770509831249,4975.601017151174 5021.6803398875,4966.090451988222 5018.59016994375,4975.601017151173 5010.500000000001,4981.478869674098 5018.59016994375,4975.601017151173 5010.500000000001,4969.723164628249 5002.409830056251,4975.601017151173 4999.319660112502,4966.0904519882215 4991.229490168753,4960.212599465296 4983.139320225004,4954.334746942372 4975.049150281254,4960.212599465296 4966.958980337505,4954.334746942371 4958.868810393756,4948.456894419445 4955.778640450006,4957.967459582397 4947.688470506256,4952.089607059472 4944.598300562507,4961.600172222424 4934.598300562506,4961.600172222423 4937.688470506256,4971.110737385375 4945.778640450005,4976.9885899083 4937.688470506255,4982.866442431225 4934.598300562506,4973.355877268273 4937.688470506255,4982.866442431225 4927.688470506255,4982.866442431224 4917.688470506255,4982.866442431224 4907.688470506255,4982.866442431223 4899.598300562506,4976.988589908298 4896.508130618756,4986.499155071249 4904.598300562505,4980.621302548325 4896.508130618756,4986.499155071249" stroke="black" stroke-linecap="round" stroke-width="1" /><polyline clip-path="url(#border_clip)" fill="none" points="4896.508130618756,4986.499155071249 4893.417960675007,4976.988589908297 4896.508130618757,4967.478024745346 4888.417960675007,4973.355877268271 4896.508130618756,4979.233729791195 4899.598300562505,4988.744294954147 4909.598300562505,4988.744294954148 4899.598300562505,4988.744294954147 4896.508130618755,4998.254860117099 4906.508130618755,4998.254860117099 4903.417960675006,4988.744294954147 4911.508130618755,4994.622147477073 4908.417960675006,4985.111582314121 4905.327790731256,4994.622147477073 4895.327790731256,4994.622147477072 4905.327790731256,4994.622147477073 4913.417960675006,5000.499999999997 4910.327790731256,5010.010565162949 4913.417960675005,5019.521130325901 4921.508130618755,5013.643277802977 4929.598300562504,5007.765425280052 4937.688470506254,5013.6432778029775 4934.598300562505,5004.132712640026 4926.508130618755,4998.2548601171 4916.508130618755,4998.2548601171 4913.417960675005,5007.765425280051 4916.508130618754,5017.275990443003 4919.598300562504,5007.765425280051 4927.688470506254,5001.887572757127 4919.598300562504,5007.765425280051 4927.688470506254,5013.643277802977 4935.778640450003,5007.765425280052 4938.868810393752,5017.275990443004 4946.958980337502,5023.1538429659295 4955.049150281251,5029.031695488854 4963.139320225001,5023.1538429659295 4971.22949016875,5029.031695488855 4979.319660112499,5034.90954801178 4982.409830056249,5025.398982848828 4990.499999999998,5031.276835371754 4993.590169943748,5021.766270208803 5003.590169943748,5021.766270208803 5000.499999999999,5012.255705045851" stroke="black" stroke-linecap="round" stroke-width="1" /><polyline clip-path="url(#border_clip)" fill="none" points="5000.499999999999,5012.255705045851 4992.40983005625,5006.377852522926 5000.5,5000.500000000002 5003.590169943749,5010.010565162954 5000.5,5000.500000000002 5010.5,5000.500000000002 5020.5,5000.500000000003 5030.5,5000.500000000003 5038.590169943749,5006.377852522928 5041.680339887499,4996.867287359977 5033.590169943749,5002.745139882901 5041.680339887499,4996.867287359977 5044.770509831248,5006.377852522928 5041.680339887498,5015.88841768588 5049.770509831248,5010.010565162956 5041.680339887499,5004.13271264003 5038.59016994375,4994.622147477078 5028.59016994375,4994.622147477078 5038.59016994375,4994.622147477078 5041.6803398875,4985.111582314127 5031.6803398875,4985.111582314126 5034.770509831249,4994.622147477078 5026.6803398875,4988.744294954153 5029.770509831248,4998.254860117105 5032.860679774998,4988.744294954154 5042.860679774999,4988.744294954154 5032.860679774998,4988.744294954154 5024.770509831249,4982.866442431228 5027.860679774999,4973.355877268277 5024.77050983125,4963.845312105325 5016.6803398875,4969.72316462825 5008.590169943751,4975.601017151174 5000.500000000001,4969.723164628249 5003.59016994375,4979.233729791201 5011.6803398875,4985.111582314125 5021.6803398875,4985.111582314126 5024.77050983125,4975.601017151174 5021.680339887501,4966.090451988223 5018.590169943751,4975.601017151174 5010.500000000001,4981.478869674099 5018.590169943751,4975.601017151174 5010.500000000002,4969.723164628249 5002.409830056252,4975.601017151173" stroke="black" stroke-linecap="round" stroke-width="1" /><polyline clip-path="url(#border_clip)" fill="none" points="5002.409830056252,4975.601017151173 4999.319660112503,4966.0904519882215 4991.229490168754,4960.212599465297 4983.139320225004,4954.334746942372 4975.049150281255,4960.212599465296 4966.958980337505,4954.334746942371 4958.868810393756,4948.456894419445 4955.778640450006,4957.967459582397 4947.688470506257,4952.089607059472 4944.598300562507,4961.600172222423 4934.598300562507,4961.600172222423 4937.688470506256,4971.110737385375 4945.778640450005,4976.988589908299 4937.688470506255,4982.866442431224 4934.598300562506,4973.355877268272 4937.688470506255,4982.866442431224 4927.688470506255,4982.866442431224 4917.688470506255,4982.866442431223 4907.688470506255,4982.866442431222 4899.598300562506,4976.988589908297 4896.508130618756,4986.499155071248 4904.598300562505,4980.621302548324 4896.508130618756,4986.499155071248 4893.417960675007,4976.9885899082965 4896.508130618757,4967.4780247453455 4888.417960675007,4973.35587726827 4896.508130618756,4979.2337297911945 4899.598300562505,4988.744294954146 4909.598300562505,4988.744294954147 4899.598300562505,4988.744294954146 4896.508130618755,4998.254860117098 4906.508130618755,4998.254860117098 4903.417960675006,4988.744294954146 4911.508130618755,4994.622147477072 4908.417960675006,4985.11158231412 4905.327790731256,4994.622147477072 4895.327790731256,4994.622147477071 4905.327790731256,4994.622147477072 4913.417960675005,5000.499999999997 4910.327790731255,5010.010565162948 4913.417960675004,5019.5211303259 4921.508130618754,5013.643277802976 4929.598300562504,5007.765425280051" stroke="black" stroke-linecap="round" stroke-width="1" /><polyline clip-path="url(#border_clip)" fill="none" points="4929.598300562504,5007.765425280051 4937.688470506253,5013.643277802977 4934.598300562504,5004.132712640025 4926.508130618755,4998.254860117099 4916.508130618755,4998.254860117099 4913.417960675005,5007.76542528005 4916.508130618754,5017.275990443002 4919.598300562504,5007.765425280051 4927.688470506254,5001.887572757127 4919.598300562504,5007.765425280051 4927.688470506253,5013.643277802976 4935.778640450003,5007.765425280052 4938.868810393752,5017.275990443004 4946.958980337501,5023.153842965929 4955.04915028125,5029.031695488854 4963.139320225,5023.1538429659295 4971.229490168749,5029.031695488855 4979.319660112498,5034.90954801178 4982.409830056248,5025.398982848829 4990.499999999998,5031.276835371754 4993.590169943748,5021.766270208803 5003.590169943748,5021.766270208804 5000.499999999999,5012.255705045852 4992.40983005625,5006.377852522926 5000.5,5000.500000000002 5003.590169943749,5010.010565162954 5000.5,5000.500000000002 5010.5,5000.500000000003 5020.5,5000.500000000003 5030.5,5000.500000000004 5038.590169943749,5006.377852522929 5041.680339887499,4996.867287359977 5033.590169943749,5002.745139882902 5041.680339887499,4996.867287359977 5044.770509831248,5006.377852522929 5041.680339887498,5015.888417685881 5049.770509831248,5010.0105651629565 5041.680339887499,5004.132712640031 5038.59016994375,4994.622147477079 5028.59016994375,4994.622147477079 5038.59016994375,4994.622147477079 5041.6803398875,4985.111582314128 5031.6803398875,4985.111582314127" stroke="black" stroke-linecap="round" stroke-width="1" /><polyline clip-path="url(#border_clip)" fill="none" points="5031.6803398875,4985.111582314127 5034.770509831249,4994.622147477079 5026.6803398875,4988.744294954154 5029.770509831248,4998.254860117106 5032.860679774999,4988.744294954155 5042.860679774999,4988.744294954155 5032.860679774999,4988.744294954155 5024.770509831249,4982.866442431229 5027.860679775,4973.355877268277 5024.770509831251,4963.845312105325 5016.680339887501,4969.72316462825 5008.590169943751,4975.601017151174 5000.500000000002,4969.723164628249 5003.590169943751,4979.233729791201 5011.6803398875,4985.111582314126 5021.6803398875,4985.111582314127 5024.77050983125,4975.601017151175 5021.680339887501,4966.090451988223 5018.590169943751,4975.601017151175 5010.500000000001,4981.478869674099 5018.590169943751,4975.601017151175 5010.500000000002,4969.72316462825 5002.409830056252,4975.601017151174 4999.319660112503,4966.090451988222 4991.229490168754,4960.212599465297 4983.139320225005,4954.334746942372 4975.049150281255,4960.212599465296 4966.958980337506,4954.334746942371 4958.868810393757,4948.456894419445 4955.778640450007,4957.967459582396 4947.688470506257,4952.089607059472 4944.598300562507,4961.600172222423 4934.598300562507,4961.600172222422 4937.688470506256,4971.110737385374 4945.778640450005,4976.988589908299 4937.688470506255,4982.866442431224 4934.598300562506,4973.355877268272 4937.688470506255,4982.866442431224 4927.688470506255,4982.866442431223 4917.688470506255,4982.866442431222 4907.688470506255,4982.866442431222 4899.598300562506,4976.9885899082965 4896.508130618756,4986.4991550712475" stroke="black" stroke-linecap="round" stroke-width="1" /><polyline clip-path="url(#border_clip)" fill="none" points="4896.508130618756,4986.4991550712475 4904.598300562506,4980.621302548323 4896.508130618756,4986.4991550712475 4893.417960675007,4976.988589908296 4896.508130618757,4967.478024745345 4888.417960675007,4973.355877268269 4896.508130618756,4979.233729791194 4899.598300562505,4988.7442949541455 4909.598300562505,4988.744294954146 4899.598300562505,4988.7442949541455 4896.508130618755,4998.254860117097 4906.508130618755,4998.254860117097 4903.417960675006,4988.744294954146 4911.508130618755,4994.622147477071 4908.417960675006,4985.11158231412 4905.327790731256,4994.622147477071 4895.327790731256,4994.62214747707 4905.327790731256,4994.622147477071 4913.417960675005,5000.499999999996 4910.327790731255,5010.010565162947 4913.417960675004,5019.521130325899 4921.508130618754,5013.643277802976 4929.598300562504,5007.765425280051 4937.688470506253,5013.643277802977 4934.598300562504,5004.132712640025 4926.508130618755,4998.254860117099 4916.508130618755,4998.254860117098 4913.417960675005,5007.76542528005 4916.508130618753,5017.275990443002 4919.598300562504,5007.76542528005 4927.688470506254,5001.887572757126 4919.598300562504,5007.76542528005 4927.688470506253,5013.643277802976 4935.778640450003,5007.765425280051 4938.868810393751,5017.275990443003 4946.958980337501,5023.153842965929 4955.04915028125,5029.031695488854 4963.139320225,5023.1538429659295 4971.229490168749,5029.031695488855 4979.319660112498,5034.90954801178 4982.409830056248,5025.398982848829 4990.499999999997,5031.276835371755 4993.590169943747,5021.766270208803" stroke="black" stroke-linecap="round" stroke-width="1" /><polyline clip-path="url(#border_clip)" fill="none" points="4993.590169943747,5021.766270208803 5003.590169943747,5021.766270208804 5000.499999999999,5012.255705045852 4992.40983005625,5006.377852522926 5000.5,5000.500000000003 5003.590169943748,5010.010565162955 5000.5,5000.500000000003 5010.5,5000.500000000003 5020.5,5000.500000000004 5030.5,5000.500000000005 5038.590169943749,5006.37785252293 5041.680339887499,4996.867287359978 5033.590169943749,5002.745139882903 5041.680339887499,4996.867287359978 5044.770509831248,5006.37785252293 5041.680339887498,5015.888417685882 5049.770509831248,5010.010565162957 5041.680339887499,5004.132712640032 5038.59016994375,4994.62214747708 5028.59016994375,4994.622147477079 5038.59016994375,4994.62214747708 5041.6803398875,4985.111582314129 5031.6803398875,4985.111582314128 5034.770509831249,4994.62214747708 5026.6803398875,4988.744294954155 5029.770509831248,4998.254860117107 5032.860679774999,4988.7442949541555 5042.860679774999,4988.7442949541555 5032.860679774999,4988.7442949541555 5024.77050983125,4982.86644243123 5027.860679775,4973.355877268278 5024.770509831251,4963.845312105326 5016.680339887501,4969.723164628251 5008.590169943751,4975.601017151175 5000.500000000002,4969.72316462825 5003.590169943751,4979.233729791202 5011.6803398875,4985.111582314126 5021.6803398875,4985.111582314127 5024.77050983125,4975.601017151176 5021.680339887502,4966.090451988224 5018.590169943751,4975.601017151175 5010.500000000001,4981.4788696741 5018.590169943751,4975.601017151175" stroke="black" stroke-linecap="round" stroke-width="1" /><polyline clip-path="url(#border_clip)" fill="none" points="5018.590169943751,4975.601017151175 5010.500000000002,4969.72316462825 5002.409830056252,4975.601017151174 4999.319660112503,4966.090451988222 4991.229490168754,4960.212599465297 4983.139320225005,4954.334746942372 4975.049150281255,4960.212599465296 4966.958980337506,4954.334746942371 4958.868810393757,4948.456894419445 4955.778640450007,4957.967459582396 4947.6884705062575,4952.089607059471 4944.598300562508,4961.600172222423 4934.598300562508,4961.600172222422 4937.688470506256,4971.110737385374 4945.778640450005,4976.988589908299 4937.688470506255,4982.866442431223 4934.598300562507,4973.355877268271 4937.688470506255,4982.866442431223 4927.688470506255,4982.866442431223 4917.688470506255,4982.866442431222 4907.688470506255,4982.866442431221 4899.598300562506,4976.988589908296 4896.508130618756,4986.499155071247 4904.598300562506,4980.621302548323 4896.508130618756,4986.499155071247 4893.417960675007,4976.988589908295 4896.508130618757,4967.478024745344 4888.417960675007,4973.355877268268 4896.508130618756,4979.233729791194 4899.598300562505,4988.744294954145 4909.598300562505,4988.7442949541455 4899.598300562505,4988.744294954145 4896.508130618755,4998.2548601170965 4906.508130618755,4998.254860117097 4903.417960675006,4988.7442949541455 4911.508130618755,4994.622147477071 4908.417960675006,4985.111582314119 4905.327790731256,4994.62214747707 4895.327790731256,4994.622147477069 4905.327790731256,4994.62214747707 4913.417960675005,5000.499999999995 4910.327790731255,5010.010565162947 4913.417960675003,5019.521130325899" stroke="black" stroke-linecap="round" stroke-width="1" /><polyline clip-path="url(#border_clip)" fill="none" points="4913.417960675003,5019.521130325899 4921.508130618753,5013.643277802975 4929.598300562504,5007.76542528005 4937.688470506253,5013.643277802976 4934.598300562504,5004.132712640025 4926.508130618755,4998.254860117098 4916.508130618755,4998.254860117098 4913.417960675004,5007.765425280049 4916.508130618753,5017.275990443001 4919.598300562503,5007.76542528005 4927.688470506253,5001.887572757126 4919.598300562503,5007.76542528005 4927.688470506252,5013.643277802976 4935.778640450002,5007.765425280051 4938.868810393751,5017.275990443003 4946.9589803375,5023.153842965929 4955.049150281249,5029.031695488854 4963.139320224999,5023.1538429659295 4971.229490168748,5029.031695488855 4979.319660112497,5034.90954801178 4982.409830056248,5025.398982848829 4990.499999999997,5031.276835371755 4993.590169943747,5021.766270208804 5003.590169943747,5021.766270208805 5000.499999999998,5012.255705045853 4992.409830056249,5006.377852522927 5000.5,5000.500000000003 5003.590169943748,5010.010565162955 5000.5,5000.500000000003 5010.5,5000.500000000004 5020.5,5000.500000000005 5030.5,5000.5000000000055 5038.590169943749,5006.377852522931 5041.680339887499,4996.867287359979 5033.590169943749,5002.7451398829035 5041.680339887499,4996.867287359979 5044.770509831248,5006.377852522931 5041.680339887498,5015.888417685883 5049.770509831248,5010.010565162958 5041.680339887499,5004.132712640033 5038.59016994375,4994.622147477081 5028.59016994375,4994.62214747708 5038.59016994375,4994.622147477081" stroke="black" stroke-linecap="round" stroke-width="1" /><polyline clip-path="url(#border_clip)" fill="none" points="5038.59016994375,4994.622147477081 5041.6803398875,4985.11158231413 5031.6803398875,4985.111582314129 5034.770509831249,4994.622147477081 5026.6803398875,4988.7442949541555 5029.770509831248,4998.2548601171075 5032.860679774999,4988.7442949541555 5042.860679774999,4988.744294954156 5032.860679774999,4988.7442949541555 5024.77050983125,4982.86644243123 5027.860679775,4973.355877268279 5024.770509831252,4963.845312105327 5016.680339887502,4969.723164628251 5008.590169943751,4975.601017151175 5000.500000000002,4969.72316462825 5003.590169943751,4979.233729791202 5011.6803398875,4985.111582314127 5021.6803398875,4985.111582314128 5024.770509831251,4975.601017151177 5021.680339887502,4966.090451988225 5018.590169943752,4975.601017151176 5010.500000000001,4981.4788696741 5018.590169943752,4975.601017151176 5010.500000000003,4969.723164628251 5002.409830056252,4975.601017151174 4999.319660112504,4966.090451988222 4991.229490168755,4960.212599465297 4983.139320225006,4954.334746942372 4975.049150281256,4960.212599465296 4966.958980337507,4954.334746942371 4958.8688103937575,4948.456894419445 4955.778640450007,4957.967459582396 4947.6884705062575,4952.089607059471 4944.598300562508,4961.600172222422 4934.598300562508,4961.600172222421 4937.688470506256,4971.110737385373 4945.778640450005,4976.988589908298 4937.688470506255,4982.866442431223 4934.598300562507,4973.355877268271 4937.688470506255,4982.866442431223 4927.688470506255,4982.866442431222 4917.688470506255,4982.866442431221 4907.688470506255,4982.86644243122" stroke="black" stroke-linecap="round" stroke-width="1" /><polyline clip-path="url(#border_clip)" fill="none" points="4907.688470506255,4982.86644243122 4899.598300562506,4976.988589908295 4896.508130618755,4986.499155071246 4904.598300562506,4980.621302548322 4896.508130618755,4986.499155071246 4893.417960675007,4976.988589908294 4896.508130618757,4967.478024745343 4888.417960675007,4973.355877268266 4896.508130618756,4979.233729791193 4899.598300562505,4988.744294954145 4909.598300562505,4988.7442949541455 4899.598300562505,4988.744294954145 4896.508130618754,4998.254860117096 4906.508130618754,4998.2548601170965 4903.417960675006,4988.744294954145 4911.508130618755,4994.62214747707 4908.417960675006,4985.111582314118 4905.327790731256,4994.622147477069 4895.327790731256,4994.622147477068 4905.327790731256,4994.622147477069 4913.417960675005,5000.499999999995 4910.327790731254,5010.0105651629465 4913.417960675003,5019.521130325898 4921.508130618753,5013.643277802974 4929.598300562503,5007.76542528005 4937.688470506252,5013.643277802976 4934.598300562504,5004.132712640024 4926.508130618755,4998.254860117098 4916.508130618755,4998.254860117097 4913.417960675004,5007.7654252800485 4916.508130618753,5017.275990443 4919.598300562503,5007.765425280049 4927.688470506253,5001.887572757125 4919.598300562503,5007.765425280049 4927.688470506252,5013.643277802975 4935.778640450002,5007.765425280051 4938.868810393751,5017.275990443003 4946.9589803375,5023.153842965929 4955.049150281249,5029.031695488854 4963.139320224999,5023.1538429659295 4971.229490168748,5029.031695488855 4979.319660112497,5034.909548011781 4982.409830056247,5025.398982848829" stroke="black" stroke-linecap="round" stroke-width="1" /><polyline clip-path="url(#border_clip)" fill="none" points="4982.409830056247,5025.398982848829 4990.499999999996,5031.276835371755 4993.590169943747,5021.766270208804 5003.590169943747,5021.766270208805 5000.499999999998,5012.255705045853 4992.409830056249,5006.377852522927 5000.499999999999,5000.500000000003 5003.590169943748,5010.010565162955 5000.499999999999,5000.500000000003 5010.5,5000.500000000004 5020.5,5000.5000000000055 5030.5,5000.500000000006 5038.590169943749,5006.377852522932 5041.680339887499,4996.86728735998 5033.590169943749,5002.745139882904 5041.680339887499,4996.86728735998 5044.770509831248,5006.377852522932 5041.680339887497,5015.888417685884 5049.770509831247,5010.010565162959 5041.680339887498,5004.132712640034 5038.59016994375,4994.622147477082 5028.59016994375,4994.622147477081 5038.59016994375,4994.622147477082 5041.680339887501,4985.111582314131 5031.6803398875,4985.11158231413 5034.770509831249,4994.622147477082 5026.6803398875,4988.744294954156 5029.770509831248,4998.254860117108 5032.860679774999,4988.744294954156 5042.860679774999,4988.744294954157 5032.860679774999,4988.744294954156 5024.77050983125,4982.866442431231 5027.860679775001,4973.35587726828 5024.770509831252,4963.845312105328 5016.680339887502,4969.723164628252 5008.590169943752,4975.601017151175 5000.500000000003,4969.72316462825 5003.590169943751,4979.233729791202 5011.6803398875,4985.111582314128 5021.6803398875,4985.111582314129 5024.770509831251,4975.601017151177 5021.680339887502,4966.090451988225 5018.590169943752,4975.601017151177" stroke="black" stroke-linecap="round" stroke-width="1" /><polyline clip-path="url(#border_clip)" fill="none" points="5018.590169943752,4975.601017151177 5010.500000000002,4981.478869674101 5018.590169943752,4975.601017151177 5010.500000000003,4969.723164628251 5002.409830056253,4975.601017151175 4999.319660112504,4966.090451988223 4991.229490168755,4960.212599465298 4983.139320225006,4954.334746942372 4975.049150281256,4960.212599465296 4966.958980337507,4954.334746942371 4958.8688103937575,4948.456894419444 4955.7786404500075,4957.967459582396 4947.688470506258,4952.089607059471 4944.598300562508,4961.600172222422 4934.598300562508,4961.600172222421 4937.688470506257,4971.110737385373 4945.778640450006,4976.988589908298 4937.688470506255,4982.866442431223 4934.598300562507,4973.35587726827 4937.688470506255,4982.866442431223 4927.688470506255,4982.866442431221 4917.688470506255,4982.86644243122 4907.688470506255,4982.866442431219 4899.598300562506,4976.988589908294 4896.508130618755,4986.499155071245 4904.598300562506,4980.621302548321 4896.508130618755,4986.499155071245 4893.417960675007,4976.988589908293 4896.508130618758,4967.478024745342 4888.417960675007,4973.355877268265 4896.508130618756,4979.233729791192 4899.598300562505,4988.744294954144 4909.598300562505,4988.744294954145 4899.598300562505,4988.744294954144 4896.508130618754,4998.254860117095 4906.508130618754,4998.254860117096 4903.417960675006,4988.744294954144 4911.508130618755,4994.622147477069 4908.417960675006,4985.111582314117 4905.327790731256,4994.622147477069 4895.327790731256,4994.622147477067 4905.327790731256,4994.622147477069 4913.417960675005,5000.4999999999945" stroke="black" stroke-linecap="round" stroke-width="1" /><polyline clip-path="url(#border_clip)" fill="none" points="4913.417960675005,5000.4999999999945 4910.327790731254,5010.010565162946 4913.417960675002,5019.5211303258975 4921.508130618753,5013.643277802974 4929.598300562503,5007.765425280049 4937.688470506252,5013.643277802976 4934.598300562503,5004.132712640024 4926.508130618755,4998.254860117097 4916.508130618754,4998.2548601170965 4913.417960675004,5007.7654252800485 4916.508130618752,5017.275990443 4919.598300562503,5007.7654252800485 4927.688470506253,5001.887572757125 4919.598300562503,5007.7654252800485 4927.688470506252,5013.643277802975 4935.778640450002,5007.76542528005 4938.86881039375,5017.275990443002 4946.958980337499,5023.153842965928 4955.049150281248,5029.031695488854 4963.139320224998,5023.1538429659295 4971.229490168747,5029.031695488856 4979.319660112496,5034.909548011781 4982.409830056247,5025.39898284883 4990.499999999996,5031.276835371756 4993.590169943746,5021.766270208804 5003.590169943746,5021.7662702088055 5000.499999999998,5012.255705045854 4992.409830056249,5006.377852522927 5000.499999999999,5000.500000000004 5003.590169943748,5010.010565162956 5000.499999999999,5000.500000000004 5010.5,5000.500000000005 5020.5,5000.5000000000055 5030.5,5000.500000000006 5038.590169943749,5006.377852522933 5041.680339887499,4996.867287359981 5033.590169943749,5002.745139882905 5041.680339887499,4996.867287359981 5044.770509831248,5006.377852522933 5041.680339887497,5015.888417685885 5049.770509831247,5010.01056516296 5041.680339887498,5004.132712640035 5038.59016994375,4994.622147477083" stroke="black" stroke-linecap="round" stroke-width="1" /><polyline clip-path="url(#border_clip)" fill="none" points="5038.59016994375,4994.622147477083 5028.59016994375,4994.622147477082 5038.59016994375,4994.622147477083 5041.680339887501,4985.111582314132 5031.680339887501,4985.11158231413 5034.770509831249,4994.622147477083 5026.6803398875,4988.744294954156 5029.770509831248,4998.254860117108 5032.860679774999,4988.744294954157 5042.860679774999,4988.744294954158 5032.860679774999,4988.744294954157 5024.77050983125,4982.866442431232 5027.860679775001,4973.35587726828 5024.770509831253,4963.845312105328 5016.680339887502,4969.723164628253 5008.590169943752,4975.601017151176 5000.500000000003,4969.723164628251 5003.590169943751,4979.233729791203 5011.6803398875,4985.111582314128 5021.6803398875,4985.111582314129 5024.770509831251,4975.601017151178 5021.680339887503,4966.090451988226 5018.590169943752,4975.601017151177 5010.500000000002,4981.478869674102 5018.590169943752,4975.601017151177 5010.500000000003,4969.723164628252 5002.409830056253,4975.601017151175 4999.319660112505,4966.090451988223 4991.229490168756,4960.212599465298 4983.1393202250065,4954.3347469423725 4975.0491502812565,4960.212599465296 4966.9589803375075,4954.334746942371 4958.868810393758,4948.456894419444 4955.7786404500075,4957.967459582396 4947.688470506258,4952.08960705947 4944.5983005625085,4961.600172222422 4934.5983005625085,4961.60017222242 4937.688470506257,4971.110737385372 4945.778640450006,4976.988589908298 4937.688470506255,4982.866442431222 4934.598300562507,4973.35587726827 4937.688470506255,4982.866442431222 4927.688470506255,4982.866442431221" stroke="black" stroke-linecap="round" stroke-width="1" /><polyline clip-path="url(#border_clip)" fill="none" points="4927.688470506255,4982.866442431221 4917.688470506255,4982.86644243122 4907.688470506255,4982.866442431218 4899.598300562506,4976.988589908293 4896.508130618755,4986.499155071244 4904.598300562506,4980.62130254832 4896.508130618755,4986.499155071244 4893.417960675007,4976.988589908292 4896.508130618758,4967.478024745341 4888.417960675008,4973.3558772682645 4896.508130618756,4979.233729791191 4899.598300562505,4988.744294954143 4909.598300562505,4988.744294954144 4899.598300562505,4988.744294954143 4896.508130618754,4998.254860117094 4906.508130618754,4998.254860117095 4903.417960675006,4988.744294954143 4911.508130618755,4994.622147477069 4908.417960675006,4985.111582314116 4905.327790731256,4994.622147477068 4895.327790731255,4994.622147477067 4905.327790731256,4994.622147477068 4913.417960675004,5000.499999999994 4910.327790731254,5010.010565162945 4913.417960675002,5019.5211303258975 4921.508130618752,5013.643277802973 4929.598300562503,5007.765425280049 4937.688470506252,5013.643277802975 4934.598300562503,5004.132712640023 4926.508130618754,4998.254860117097 4916.508130618754,4998.2548601170965 4913.417960675004,5007.765425280048 4916.508130618752,5017.2759904429995 4919.598300562503,5007.7654252800485 4927.688470506253,5001.887572757124 4919.598300562503,5007.7654252800485 4927.688470506251,5013.643277802974 4935.778640450002,5007.76542528005 4938.86881039375,5017.275990443002 4946.958980337499,5023.153842965928 4955.049150281248,5029.031695488854 4963.139320224998,5023.1538429659295 4971.229490168747,5029.031695488856" stroke="black" stroke-linecap="round" stroke-width="1" /><polyline clip-path="url(#border_clip)" fill="none" points="4971.229490168747,5029.031695488856 4979.319660112496,5034.909548011781 4982.409830056246,5025.39898284883 4990.499999999995,5031.276835371756 4993.590169943746,5021.766270208805 5003.590169943746,5021.7662702088055 5000.499999999998,5012.255705045854 4992.409830056249,5006.377852522928 5000.499999999999,5000.500000000004 5003.590169943748,5010.010565162956 5000.499999999999,5000.500000000004 5010.499999999999,5000.5000000000055 5020.5,5000.500000000006 5030.5,5000.500000000007 5038.590169943749,5006.377852522934 5041.680339887499,4996.867287359982 5033.590169943749,5002.745139882906 5041.680339887499,4996.867287359982 5044.770509831248,5006.377852522934 5041.680339887497,5015.8884176858855 5049.770509831247,5010.010565162961 5041.680339887498,5004.132712640036 5038.59016994375,4994.622147477084 5028.59016994375,4994.622147477083 5038.59016994375,4994.622147477084 5041.680339887501,4985.111582314133 5031.680339887501,4985.111582314131 5034.770509831249,4994.622147477083 5026.6803398875,4988.744294954157 5029.770509831248,4998.254860117109 5032.860679774999,4988.744294954158 5042.860679774999,4988.744294954159 5032.860679774999,4988.744294954158 5024.77050983125,4982.866442431232 5027.860679775001,4973.355877268281 5024.770509831253,4963.845312105329 5016.680339887503,4969.723164628253 5008.590169943752,4975.601017151177 5000.500000000003,4969.723164628251 5003.590169943752,4979.233729791203 5011.6803398875,4985.111582314129 5021.680339887501,4985.11158231413 5024.770509831251,4975.601017151179" stroke="black" stroke-linecap="round" stroke-width="1" /><polyline clip-path="url(#border_clip)" fill="none" points="5024.770509831251,4975.601017151179 5021.680339887503,4966.090451988227 5018.590169943752,4975.601017151178 5010.500000000002,4981.478869674102 5018.590169943752,4975.601017151178 5010.500000000004,4969.723164628252 5002.409830056253,4975.601017151176 4999.319660112505,4966.090451988224 4991.229490168756,4960.212599465298 4983.1393202250065,4954.3347469423725 4975.0491502812565,4960.212599465296 4966.9589803375075,4954.334746942371 4958.868810393758,4948.456894419444 4955.778640450008,4957.967459582395 4947.688470506259,4952.08960705947 4944.5983005625085,4961.600172222421 4934.5983005625085,4961.60017222242 4937.688470506257,4971.110737385372 4945.778640450006,4976.988589908297 4937.688470506255,4982.866442431222 4934.598300562507,4973.35587726827 4937.688470506255,4982.866442431222 4927.688470506255,4982.86644243122 4917.688470506255,4982.866442431219 4907.688470506255,4982.866442431218 4899.598300562506,4976.988589908292 4896.508130618755,4986.499155071244 4904.598300562506,4980.621302548319 4896.508130618755,4986.499155071243 4893.417960675007,4976.988589908291 4896.508130618758,4967.47802474534 4888.417960675008,4973.355877268264 4896.508130618756,4979.23372979119 4899.598300562505,4988.744294954142 4909.598300562505,4988.744294954143 4899.598300562505,4988.744294954142 4896.508130618754,4998.254860117093 4906.508130618754,4998.254860117095 4903.417960675006,4988.744294954142 4911.508130618755,4994.622147477068 4908.417960675006,4985.111582314116 4905.327790731256,4994.622147477067 4895.327790731255,4994.622147477066" stroke="black" stroke-linecap="round" stroke-width="1" /><polyline clip-path="url(#border_clip)" fill="none" points="4895.327790731255,4994.622147477066 4905.327790731256,4994.622147477067 4913.417960675004,5000.499999999993 4910.327790731253,5010.010565162945 4913.417960675002,5019.521130325897 4921.508130618752,5013.643277802973 4929.598300562502,5007.765425280049 4937.688470506251,5013.643277802975 4934.598300562503,5004.132712640023 4926.508130618754,4998.2548601170965 4916.508130618754,4998.254860117096 4913.417960675003,5007.765425280047 4916.508130618751,5017.275990442999 4919.598300562502,5007.765425280048 4927.688470506253,5001.887572757124 4919.598300562502,5007.765425280048 4927.688470506251,5013.643277802974 4935.778640450001,5007.765425280049 4938.86881039375,5017.275990443002 4946.958980337498,5023.153842965928 4955.049150281247,5029.031695488854 4963.139320224998,5023.1538429659295 4971.229490168746,5029.031695488856 4979.3196601124955,5034.909548011781 4982.409830056246,5025.39898284883 4990.499999999995,5031.2768353717565 4993.590169943746,5021.766270208805 5003.590169943746,5021.766270208806 5000.499999999998,5012.255705045854 4992.409830056249,5006.377852522928 5000.499999999999,5000.500000000005 5003.590169943747,5010.0105651629565 5000.499999999999,5000.500000000005 5010.499999999999,5000.5000000000055 5020.5,5000.500000000007 5030.5,5000.500000000008 5038.590169943749,5006.3778525229345 5041.680339887499,4996.867287359983 5033.590169943749,5002.745139882906 5041.680339887499,4996.867287359983 5044.770509831248,5006.3778525229345 5041.680339887497,5015.888417685886 5049.770509831247,5010.010565162963" stroke="black" stroke-linecap="round" stroke-width="1" /><polyline clip-path="url(#border_clip)" fill="none" points="5049.770509831247,5010.010565162963 5041.680339887498,5004.1327126400365 5038.59016994375,4994.622147477085 5028.59016994375,4994.622147477083 5038.59016994375,4994.622147477085 5041.680339887501,4985.111582314134 5031.680339887501,4985.111582314132 5034.770509831249,4994.622147477084 5026.6803398875,4988.744294954158 5029.770509831248,4998.25486011711 5032.860679774999,4988.744294954159 5042.860679775,4988.74429495416 5032.860679774999,4988.744294954159 5024.770509831251,4982.866442431233 5027.860679775002,4973.355877268282 5024.770509831253,4963.84531210533 5016.680339887503,4969.7231646282535 5008.590169943752,4975.601017151177 5000.500000000004,4969.723164628252 5003.590169943752,4979.233729791204 5011.680339887501,4985.111582314129 5021.680339887501,4985.111582314131 5024.770509831252,4975.601017151179 5021.680339887504,4966.090451988227 5018.590169943753,4975.601017151179 5010.500000000002,4981.4788696741025 5018.590169943753,4975.601017151179 5010.500000000004,4969.723164628253 5002.409830056253,4975.601017151176 4999.319660112505,4966.090451988224 4991.2294901687565,4960.212599465298 4983.139320225007,4954.3347469423725 4975.0491502812565,4960.212599465296 4966.958980337508,4954.33474694237 4958.868810393759,4948.456894419444 4955.778640450008,4957.967459582395 4947.688470506259,4952.08960705947 4944.5983005625085,4961.600172222421 4934.5983005625085,4961.600172222419 4937.688470506257,4971.110737385372 4945.778640450006,4976.988589908297 4937.688470506256,4982.866442431221 4934.598300562507,4973.355877268269" stroke="black" stroke-linecap="round" stroke-width="1" /><polyline clip-path="url(#border_clip)" fill="none" points="4934.598300562507,4973.355877268269 4937.688470506256,4982.866442431221 4927.688470506255,4982.86644243122 4917.688470506255,4982.866442431218 4907.688470506255,4982.866442431217 4899.598300562506,4976.988589908291 4896.508130618755,4986.499155071243 4904.598300562506,4980.621302548318 4896.508130618755,4986.499155071243 4893.417960675007,4976.98858990829 4896.508130618758,4967.478024745339 4888.417960675008,4973.355877268263 4896.508130618756,4979.233729791189 4899.598300562504,4988.744294954141 4909.598300562505,4988.744294954142 4899.598300562504,4988.744294954141 4896.508130618754,4998.254860117092 4906.508130618754,4998.254860117094 4903.417960675006,4988.744294954142 4911.508130618754,4994.622147477067 4908.417960675006,4985.111582314115 4905.327790731255,4994.622147477066 4895.327790731255,4994.6221474770655 4905.327790731255,4994.622147477066 4913.417960675004,5000.499999999993 4910.327790731253,5010.010565162944 4913.417960675001,5019.521130325896 4921.508130618752,5013.643277802972 4929.598300562502,5007.7654252800485 4937.688470506251,5013.643277802975 4934.598300562503,5004.132712640022 4926.508130618754,4998.2548601170965 4916.508130618754,4998.254860117095 4913.417960675003,5007.765425280047 4916.508130618751,5017.275990442999 4919.598300562502,5007.765425280047 4927.688470506253,5001.887572757123 4919.598300562502,5007.765425280047 4927.688470506251,5013.643277802973 4935.778640450001,5007.765425280049 4938.868810393749,5017.275990443001 4946.958980337498,5023.153842965928 4955.049150281247,5029.031695488853" stroke="black" stroke-linecap="round" stroke-width="1" /><polyline clip-path="url(#border_clip)" fill="none" points="4955.049150281247,5029.031695488853 4963.139320224997,5023.1538429659295 4971.229490168746,5029.031695488856 4979.3196601124955,5034.909548011782 4982.409830056246,5025.39898284883 4990.4999999999945,5031.2768353717565 4993.590169943745,5021.7662702088055 5003.590169943745,5021.766270208806 5000.499999999997,5012.2557050458545 4992.409830056249,5006.377852522928 5000.499999999999,5000.500000000005 5003.590169943747,5010.0105651629565 5000.499999999999,5000.500000000005 5010.499999999999,5000.500000000006 5020.5,5000.500000000007 5030.5,5000.500000000009 5038.590169943749,5006.3778525229345 5041.6803398875,4996.8672873599835 5033.590169943749,5002.745139882907 5041.6803398875,4996.8672873599835 5044.770509831248,5006.377852522935 5041.680339887497,5015.888417685887 5049.770509831247,5010.010565162964 5041.680339887498,5004.132712640037 5038.59016994375,4994.6221474770855 5028.59016994375,4994.622147477084 5038.59016994375,4994.6221474770855 5041.680339887501,4985.1115823141345 5031.680339887501,4985.111582314133 5034.770509831249,4994.622147477085 5026.680339887501,4988.744294954159 5029.770509831249,4998.254860117111 5032.860679775,4988.74429495416 5042.860679775,4988.744294954161 5032.860679775,4988.74429495416 5024.770509831251,4982.866442431234 5027.860679775002,4973.355877268283 5024.770509831254,4963.84531210533 5016.680339887503,4969.7231646282535 5008.590169943753,4975.601017151178 5000.500000000004,4969.723164628252 5003.590169943752,4979.233729791204 5011.680339887501,4985.11158231413" stroke="black" stroke-linecap="round" stroke-width="1" /><polyline clip-path="url(#border_clip)" fill="none" points="5011.680339887501,4985.11158231413 5021.680339887501,4985.111582314131 5024.770509831252,4975.60101715118 5021.680339887504,4966.090451988228 5018.590169943753,4975.601017151179 5010.500000000002,4981.4788696741025 5018.590169943753,4975.601017151179 5010.500000000004,4969.723164628253 5002.409830056254,4975.601017151177 4999.3196601125055,4966.090451988224 4991.2294901687565,4960.212599465299 4983.139320225007,4954.3347469423725 4975.049150281257,4960.212599465296 4966.958980337508,4954.33474694237 4958.86881039376,4948.456894419444 4955.778640450009,4957.967459582395 4947.68847050626,4952.089607059469 4944.598300562509,4961.600172222421 4934.598300562509,4961.600172222419 4937.6884705062575,4971.110737385371 4945.778640450006,4976.988589908297 4937.688470506256,4982.866442431221 4934.598300562508,4973.355877268269 4937.688470506256,4982.866442431221 4927.688470506255,4982.866442431219 4917.688470506255,4982.866442431218 4907.688470506255,4982.8664424312165 4899.598300562506,4976.98858990829 4896.508130618755,4986.499155071242 4904.598300562506,4980.621302548318 4896.508130618755,4986.499155071242 4893.417960675007,4976.988589908289 4896.508130618758,4967.478024745338 4888.417960675008,4973.355877268262 4896.508130618757,4979.233729791188 4899.598300562504,4988.74429495414 4909.598300562505,4988.744294954142 4899.598300562504,4988.74429495414 4896.508130618753,4998.254860117091 4906.508130618754,4998.254860117093 4903.417960675006,4988.744294954141 4911.508130618754,4994.622147477066 4908.417960675006,4985.1115823141145" stroke="black" stroke-linecap="round" stroke-width="1" /><polyline clip-path="url(#border_clip)" fill="none" points="4908.417960675006,4985.1115823141145 4905.327790731255,4994.6221474770655 4895.327790731255,4994.622147477065 4905.327790731255,4994.6221474770655 4913.417960675004,5000.499999999992 4910.327790731253,5010.010565162943 4913.417960675001,5019.521130325896 4921.508130618751,5013.643277802972 4929.598300562502,5007.7654252800485 4937.688470506251,5013.643277802974 4934.598300562503,5004.132712640022 4926.508130618754,4998.254860117096 4916.508130618754,4998.254860117095 4913.417960675003,5007.765425280046 4916.508130618751,5017.275990442998 4919.598300562502,5007.765425280047 4927.688470506252,5001.887572757123 4919.598300562502,5007.765425280047 4927.68847050625,5013.643277802973 4935.778640450001,5007.765425280049 4938.868810393749,5017.275990443001 4946.958980337498,5023.153842965928 4955.0491502812465,5029.031695488853 4963.139320224997,5023.1538429659295 4971.2294901687455,5029.031695488856 4979.319660112495,5034.909548011782 4982.4098300562455,5025.39898284883 4990.4999999999945,5031.2768353717565 4993.590169943745,5021.7662702088055 5003.590169943745,5021.766270208807 5000.499999999997,5012.2557050458545 4992.409830056249,5006.377852522929 5000.499999999999,5000.5000000000055 5003.590169943747,5010.010565162957 5000.499999999999,5000.5000000000055 5010.499999999999,5000.500000000006 5020.5,5000.500000000008 5030.5,5000.50000000001 5038.590169943749,5006.377852522935 5041.6803398875,4996.867287359984 5033.590169943749,5002.745139882908 5041.6803398875,4996.867287359984 5044.770509831248,5006.377852522936" stroke="black" stroke-linecap="round" stroke-width="1" /><polyline clip-path="url(#border_clip)" fill="none" points="5044.770509831248,5006.377852522936 5041.680339887496,5015.888417685888 5049.770509831247,5010.010565162965 5041.680339887498,5004.132712640038 5038.590169943751,4994.622147477086 5028.59016994375,4994.622147477085 5038.590169943751,4994.622147477086 5041.680339887502,4985.1115823141345 5031.680339887501,4985.111582314134 5034.770509831249,4994.6221474770855 5026.680339887501,4988.744294954159 5029.770509831249,4998.254860117111 5032.860679775,4988.74429495416 5042.860679775,4988.744294954162 5032.860679775,4988.74429495416 5024.770509831251,4982.866442431234 5027.860679775002,4973.355877268283 5024.770509831254,4963.845312105331 5016.680339887504,4969.723164628254 5008.590169943753,4975.601017151178 5000.500000000004,4969.723164628252 5003.590169943752,4979.233729791204 5011.680339887501,4985.11158231413 5021.680339887501,4985.111582314132 5024.770509831252,4975.601017151181 5021.680339887504,4966.090451988228 5018.590169943753,4975.60101715118 5010.500000000003,4981.478869674103 5018.590169943753,4975.60101715118 5010.500000000005,4969.7231646282535 5002.409830056254,4975.601017151177 4999.3196601125055,4966.090451988225 4991.229490168757,4960.212599465299 4983.139320225008,4954.3347469423725 4975.049150281257,4960.212599465296 4966.958980337509,4954.33474694237 4958.86881039376,4948.456894419443 4955.778640450009,4957.967459582395 4947.68847050626,4952.089607059469 4944.598300562509,4961.60017222242 4934.598300562509,4961.600172222418 4937.6884705062575,4971.110737385371 4945.778640450006,4976.988589908297" stroke="black" stroke-linecap="round" stroke-width="1" /><polyline clip-path="url(#border_clip)" fill="none" points="4945.778640450006,4976.988589908297 4937.688470506256,4982.86644243122 4934.598300562508,4973.355877268268 4937.688470506256,4982.86644243122 4927.688470506255,4982.866442431219 4917.688470506255,4982.866442431217 4907.688470506255,4982.866442431216 4899.598300562506,4976.988589908289 4896.508130618755,4986.499155071241 4904.598300562506,4980.6213025483175 4896.508130618755,4986.499155071241 4893.417960675007,4976.988589908288 4896.508130618758,4967.478024745337 4888.417960675008,4973.355877268261 4896.508130618756,4979.233729791187 4899.598300562504,4988.744294954139 4909.598300562504,4988.744294954141 4899.598300562504,4988.744294954139 4896.508130618753,4998.25486011709 4906.508130618753,4998.254860117092 4903.417960675005,4988.74429495414 4911.508130618754,4994.622147477066 4908.417960675006,4985.111582314114 4905.327790731255,4994.6221474770655 4895.327790731255,4994.622147477064 4905.327790731255,4994.6221474770655 4913.417960675004,5000.499999999991 4910.327790731252,5010.010565162943 4913.417960675,5019.521130325895 4921.508130618751,5013.643277802971 4929.598300562502,5007.765425280048 4937.68847050625,5013.643277802974 4934.598300562502,5004.132712640022 4926.508130618754,4998.254860117096 4916.508130618754,4998.254860117094 4913.417960675002,5007.765425280045 4916.50813061875,5017.275990442998 4919.598300562501,5007.765425280046 4927.688470506252,5001.887572757122 4919.598300562501,5007.765425280046 4927.68847050625,5013.643277802972 4935.778640450001,5007.7654252800485 4938.868810393749,5017.275990443001" stroke="black" stroke-linecap="round" stroke-width="1" /><polyline clip-path="url(#border_clip)" fill="none" points="4938.868810393749,5017.275990443001 4946.958980337497,5023.153842965927 4955.0491502812465,5029.031695488853 4963.1393202249965,5023.1538429659295 4971.2294901687455,5029.031695488856 4979.319660112495,5034.909548011782 4982.4098300562455,5025.398982848831 4990.499999999994,5031.276835371757 4993.590169943745,5021.7662702088055 5003.590169943745,5021.766270208807 5000.499999999997,5012.255705045855 4992.409830056249,5006.377852522929 5000.499999999999,5000.5000000000055 5003.590169943747,5010.010565162957 5000.499999999999,5000.5000000000055 5010.499999999999,5000.500000000007 5020.5,5000.500000000009 5030.5,5000.50000000001 5038.590169943749,5006.377852522936 5041.6803398875,4996.867287359985 5033.590169943749,5002.745139882909 5041.6803398875,4996.867287359985 5044.770509831248,5006.377852522937 5041.680339887496,5015.888417685889 5049.770509831247,5010.010565162966 5041.680339887498,5004.132712640039 5038.590169943751,4994.622147477087 5028.59016994375,4994.6221474770855 5038.590169943751,4994.622147477087 5041.680339887502,4985.111582314135 5031.680339887502,4985.111582314134 5034.770509831249,4994.622147477086 5026.680339887501,4988.74429495416 5029.770509831249,4998.254860117112 5032.860679775,4988.744294954161 5042.860679775,4988.744294954163 5032.860679775,4988.744294954161 5024.770509831251,4982.866442431235 5027.860679775003,4973.355877268284 5024.7705098312545,4963.845312105332 5016.680339887504,4969.723164628255 5008.590169943753,4975.601017151178 5000.500000000005,4969.723164628253" stroke="black" stroke-linecap="round" stroke-width="1" /><polyline clip-path="url(#border_clip)" fill="none" points="5000.500000000005,4969.723164628253 5003.590169943753,4979.2337297912045 5011.680339887501,4985.111582314131 5021.680339887501,4985.111582314133 5024.770509831253,4975.601017151181 5021.6803398875045,4966.090451988229 5018.590169943754,4975.60101715118 5010.500000000003,4981.478869674103 5018.590169943754,4975.60101715118 5010.500000000005,4969.7231646282535 5002.409830056254,4975.601017151177 4999.319660112506,4966.090451988225 4991.229490168757,4960.212599465299 4983.139320225008,4954.3347469423725 4975.049150281258,4960.212599465296 4966.958980337509,4954.33474694237 4958.868810393761,4948.456894419443 4955.778640450009,4957.967459582394 4947.688470506261,4952.089607059469 4944.598300562509,4961.60017222242 4934.598300562509,4961.600172222418 4937.6884705062575,4971.11073738537 4945.778640450007,4976.9885899082965 4937.688470506256,4982.86644243122 4934.598300562508,4973.355877268268 4937.688470506256,4982.86644243122 4927.688470506256,4982.866442431218 4917.688470506255,4982.8664424312165 4907.688470506255,4982.866442431215 4899.598300562506,4976.988589908289 4896.508130618755,4986.49915507124 4904.598300562506,4980.621302548317 4896.508130618755,4986.49915507124 4893.417960675007,4976.988589908287 4896.5081306187585,4967.478024745336 4888.417960675008,4973.35587726826 4896.508130618757,4979.233729791186 4899.598300562504,4988.744294954138 4909.598300562504,4988.74429495414 4899.598300562504,4988.744294954138 4896.508130618753,4998.25486011709 4906.508130618753,4998.254860117091 4903.417960675005,4988.744294954139" stroke="black" stroke-linecap="round" stroke-width="1" /><polyline clip-path="url(#border_clip)" fill="none" points="4903.417960675005,4988.744294954139 4911.508130618754,4994.6221474770655 4908.417960675006,4985.111582314114 4905.327790731255,4994.622147477065 4895.327790731255,4994.622147477063 4905.327790731255,4994.622147477065 4913.417960675003,5000.499999999991 4910.327790731252,5010.010565162942 4913.417960675,5019.521130325894 4921.508130618751,5013.64327780297 4929.598300562501,5007.765425280048 4937.68847050625,5013.643277802974 4934.598300562502,5004.132712640021 4926.508130618754,4998.254860117095 4916.508130618753,4998.254860117093 4913.417960675002,5007.765425280045 4916.50813061875,5017.275990442997 4919.598300562501,5007.765425280046 4927.688470506252,5001.887572757122 4919.598300562501,5007.765425280046 4927.68847050625,5013.643277802972 4935.77864045,5007.7654252800485 4938.868810393748,5017.275990443 4946.958980337497,5023.153842965927 4955.049150281246,5029.031695488853 4963.1393202249965,5023.1538429659295 4971.2294901687455,5029.031695488856 4979.319660112494,5034.909548011782 4982.409830056245,5025.398982848831 4990.499999999994,5031.276835371757 4993.5901699437445,5021.766270208806 5003.590169943745,5021.766270208808 5000.499999999997,5012.255705045855 4992.409830056248,5006.377852522929 5000.499999999999,5000.5000000000055 5003.590169943747,5010.010565162958 5000.499999999999,5000.5000000000055 5010.499999999999,5000.500000000007 5020.5,5000.500000000009 5030.5,5000.500000000011 5038.590169943748,5006.377852522937 5041.6803398875,4996.867287359986 5033.590169943749,5002.74513988291" stroke="black" stroke-linecap="round" stroke-width="1" /><polyline clip-path="url(#border_clip)" fill="none" points="5033.590169943749,5002.74513988291 5041.6803398875,4996.867287359986 5044.770509831247,5006.377852522938 5041.680339887496,5015.88841768589 5049.770509831247,5010.0105651629665 5041.680339887498,5004.13271264004 5038.590169943751,4994.622147477087 5028.59016994375,4994.6221474770855 5038.590169943751,4994.622147477087 5041.680339887502,4985.111582314136 5031.680339887502,4985.1115823141345 5034.77050983125,4994.622147477087 5026.680339887501,4988.744294954161 5029.770509831249,4998.254860117113 5032.860679775,4988.744294954162 5042.860679775,4988.744294954164 5032.860679775,4988.744294954162 5024.770509831252,4982.866442431236 5027.860679775003,4973.3558772682845 5024.7705098312545,4963.845312105332 5016.680339887504,4969.723164628255 5008.590169943754,4975.601017151179 5000.500000000005,4969.723164628253 5003.590169943753,4979.2337297912045 5011.680339887501,4985.111582314131 5021.680339887502,4985.111582314133 5024.770509831253,4975.601017151182 5021.6803398875045,4966.09045198823 5018.590169943754,4975.601017151181 5010.500000000003,4981.478869674104 5018.590169943754,4975.601017151181 5010.500000000005,4969.723164628254 5002.409830056255,4975.601017151178 4999.319660112506,4966.090451988225 4991.229490168757,4960.212599465299 4983.139320225009,4954.3347469423725 4975.049150281258,4960.212599465296 4966.95898033751,4954.33474694237 4958.868810393761,4948.456894419443 4955.77864045001,4957.967459582394 4947.688470506261,4952.089607059468 4944.59830056251,4961.600172222419 4934.598300562509,4961.600172222417" stroke="black" stroke-linecap="round" stroke-width="1" /><polyline clip-path="url(#border_clip)" fill="none" points="4934.598300562509,4961.600172222417 4937.6884705062575,4971.11073738537 4945.778640450007,4976.9885899082965 4937.688470506256,4982.86644243122 4934.598300562508,4973.355877268267 4937.688470506256,4982.86644243122 4927.688470506255,4982.866442431218 4917.688470506255,4982.8664424312165 4907.688470506255,4982.866442431215 4899.598300562506,4976.988589908288 4896.508130618755,4986.499155071239 4904.598300562506,4980.621302548316 4896.508130618755,4986.499155071239 4893.417960675007,4976.9885899082865 4896.5081306187585,4967.4780247453355 4888.417960675008,4973.355877268259 4896.508130618756,4979.233729791185 4899.598300562504,4988.744294954137 4909.598300562504,4988.744294954139 4899.598300562504,4988.744294954137 4896.508130618753,4998.254860117089 4906.508130618753,4998.254860117091 4903.417960675005,4988.744294954138 4911.508130618754,4994.622147477065 4908.417960675006,4985.111582314113 4905.327790731255,4994.622147477064 4895.327790731254,4994.622147477062 4905.327790731255,4994.622147477064 4913.417960675003,5000.49999999999 4910.327790731252,5010.010565162941 4913.417960674999,5019.521130325894 4921.50813061875,5013.64327780297 4929.598300562501,5007.765425280047 4937.68847050625,5013.643277802973 4934.598300562502,5004.132712640021 4926.508130618753,4998.254860117095 4916.508130618753,4998.254860117093 4913.417960675002,5007.765425280044 4916.508130618749,5017.275990442996 4919.598300562501,5007.765425280045 4927.688470506252,5001.887572757121 4919.598300562501,5007.765425280045 4927.688470506249,5013.643277802971" stroke="black" stroke-linecap="round" stroke-width="1" /><polyline clip-path="url(#border_clip)" fill="none" points="4927.688470506249,5013.643277802971 4935.77864045,5007.765425280048 4938.868810393748,5017.275990443 4946.9589803374965,5023.153842965927 4955.049150281246,5029.031695488853 4963.1393202249965,5023.1538429659295 4971.229490168745,5029.031695488856 4979.319660112494,5034.909548011782 4982.409830056245,5025.398982848831 4990.499999999994,5031.276835371757 4993.5901699437445,5021.766270208806 5003.5901699437445,5021.766270208808 5000.499999999997,5012.255705045856 4992.409830056248,5006.37785252293 5000.499999999999,5000.500000000006 5003.590169943747,5010.010565162958 5000.499999999999,5000.500000000006 5010.499999999999,5000.500000000008 5020.5,5000.50000000001 5030.5,5000.500000000012 5038.590169943748,5006.377852522938 5041.6803398875,4996.867287359987 5033.590169943749,5002.745139882911 5041.6803398875,4996.867287359987 5044.770509831247,5006.377852522939 5041.680339887496,5015.888417685891 5049.770509831247,5010.010565162967 5041.680339887498,5004.132712640041 5038.590169943751,4994.622147477088 5028.590169943751,4994.622147477086 5038.590169943751,4994.622147477088 5041.680339887502,4985.111582314137 5031.680339887502,4985.111582314135 5034.77050983125,4994.622147477087 5026.680339887501,4988.744294954161 5029.770509831249,4998.254860117114 5032.860679775,4988.744294954163 5042.860679775001,4988.744294954165 5032.860679775,4988.744294954163 5024.770509831252,4982.8664424312365 5027.860679775003,4973.3558772682845 5024.770509831255,4963.845312105333 5016.6803398875045,4969.723164628256" stroke="black" stroke-linecap="round" stroke-width="1" /><polyline clip-path="url(#border_clip)" fill="none" points="5016.6803398875045,4969.723164628256 5008.590169943754,4975.601017151179 5000.500000000005,4969.723164628253 5003.590169943753,4979.233729791205 5011.680339887501,4985.111582314132 5021.680339887502,4985.111582314134 5024.770509831253,4975.6010171511825 5021.680339887505,4966.09045198823 5018.590169943754,4975.601017151181 5010.500000000003,4981.478869674104 5018.590169943754,4975.601017151181 5010.5000000000055,4969.723164628254 5002.409830056255,4975.601017151178 4999.319660112506,4966.090451988226 4991.229490168758,4960.212599465299 4983.139320225009,4954.3347469423725 4975.049150281258,4960.212599465296 4966.95898033751,4954.33474694237 4958.868810393762,4948.456894419443 4955.77864045001,4957.967459582394 4947.688470506262,4952.089607059468 4944.59830056251,4961.600172222419 4934.59830056251,4961.600172222417 4937.6884705062575,4971.110737385369 4945.778640450007,4976.9885899082965 4937.688470506256,4982.866442431219 4934.598300562508,4973.355877268267 4937.688470506256,4982.866442431219 4927.688470506256,4982.866442431217 4917.688470506255,4982.866442431216 4907.688470506255,4982.866442431214 4899.598300562507,4976.988589908287 4896.508130618755,4986.499155071238 4904.598300562506,4980.621302548315 4896.508130618755,4986.499155071238 4893.417960675007,4976.988589908286 4896.5081306187585,4967.478024745335 4888.417960675008,4973.355877268258 4896.508130618757,4979.2337297911845 4899.598300562504,4988.744294954137 4909.598300562504,4988.744294954139 4899.598300562504,4988.744294954137 4896.508130618752,4998.254860117088" stroke="black" stroke-linecap="round" stroke-width="1" /><polyline clip-path="url(#border_clip)" fill="none" points="4896.508130618752,4998.254860117088 4906.508130618753,4998.25486011709 4903.417960675005,4988.744294954137 4911.508130618754,4994.622147477065 4908.417960675006,4985.111582314112 4905.327790731255,4994.622147477063 4895.327790731254,4994.622147477061 4905.327790731255,4994.622147477063 4913.417960675003,5000.499999999989 4910.327790731251,5010.010565162941 4913.417960674999,5019.521130325893 4921.50813061875,5013.643277802969 4929.598300562501,5007.765425280047 4937.688470506249,5013.643277802973 4934.598300562502,5004.13271264002 4926.508130618753,4998.254860117094 4916.508130618753,4998.254860117092 4913.417960675001,5007.765425280043 4916.508130618749,5017.275990442996 4919.598300562501,5007.765425280045 4927.688470506251,5001.887572757121 4919.598300562501,5007.765425280045 4927.688470506249,5013.643277802971 4935.77864045,5007.765425280048 4938.8688103937475,5017.275990443 4946.9589803374965,5023.153842965927 4955.049150281245,5029.031695488853 4963.139320224996,5023.1538429659295 4971.229490168745,5029.031695488856 4979.319660112493,5034.909548011783 4982.409830056245,5025.398982848831 4990.499999999993,5031.276835371758 4993.5901699437445,5021.766270208806 5003.5901699437445,5021.766270208809 5000.499999999997,5012.255705045856 4992.409830056248,5006.37785252293 5000.499999999999,5000.500000000006 5003.590169943747,5010.010565162959 5000.499999999999,5000.500000000006 5010.499999999999,5000.500000000008 5020.5,5000.500000000011 5030.5,5000.500000000013 5038.590169943748,5006.377852522939" stroke="black" stroke-linecap="round" stroke-width="1" /><polyline clip-path="url(#border_clip)" fill="none" points="5038.590169943748,5006.377852522939 5041.6803398875,4996.867287359988 5033.590169943749,5002.745139882911 5041.6803398875,4996.867287359988 5044.770509831247,5006.37785252294 5041.680339887496,5015.888417685892 5049.770509831247,5010.010565162968 5041.680339887498,5004.132712640042 5038.590169943751,4994.622147477089 5028.590169943751,4994.622147477087 5038.590169943751,4994.622147477089 5041.680339887503,4985.111582314138 5031.680339887502,4985.111582314136 5034.77050983125,4994.622147477088 5026.680339887501,4988.744294954162 5029.770509831249,4998.254860117115 5032.860679775,4988.744294954163 5042.860679775001,4988.7442949541655 5032.860679775,4988.744294954163 5024.770509831252,4982.8664424312365 5027.8606797750035,4973.355877268285 5024.770509831255,4963.8453121053335 5016.6803398875045,4969.723164628256 5008.590169943754,4975.60101715118 5000.5000000000055,4969.7231646282535 5003.590169943753,4979.233729791205 5011.680339887502,4985.111582314132 5021.680339887502,4985.1115823141345 5024.770509831254,4975.6010171511825 5021.680339887505,4966.090451988231 5018.5901699437545,4975.601017151182 5010.500000000004,4981.478869674105 5018.5901699437545,4975.601017151182 5010.5000000000055,4969.723164628255 5002.409830056255,4975.601017151178 4999.319660112507,4966.090451988226 4991.229490168758,4960.2125994653 4983.13932022501,4954.3347469423725 4975.049150281259,4960.212599465296 4966.958980337511,4954.33474694237 4958.868810393762,4948.456894419443 4955.778640450011,4957.967459582394 4947.688470506262,4952.089607059468" stroke="black" stroke-linecap="round" stroke-width="1" /><polyline clip-path="url(#border_clip)" fill="none" points="4947.688470506262,4952.089607059468 4944.59830056251,4961.600172222419 4934.59830056251,4961.600172222416 4937.688470506258,4971.110737385369 4945.778640450007,4976.988589908296 4937.688470506256,4982.866442431219 4934.5983005625085,4973.355877268266 4937.688470506256,4982.866442431219 4927.688470506256,4982.866442431217 4917.688470506255,4982.866442431215 4907.688470506255,4982.866442431213 4899.598300562507,4976.9885899082865 4896.508130618755,4986.4991550712375 4904.598300562506,4980.621302548314 4896.508130618755,4986.4991550712375 4893.417960675008,4976.988589908285 4896.5081306187585,4967.478024745334 4888.417960675008,4973.355877268257 4896.508130618757,4979.233729791184 4899.598300562504,4988.744294954136 4909.598300562504,4988.744294954138 4899.598300562504,4988.744294954136 4896.508130618752,4998.254860117087 4906.508130618753,4998.254860117089 4903.417960675005,4988.744294954137 4911.508130618754,4994.622147477064 4908.417960675006,4985.111582314111 4905.327790731254,4994.622147477062 4895.327790731254,4994.62214747706 4905.327790731254,4994.622147477062 4913.417960675003,5000.499999999989 4910.327790731251,5010.01056516294 4913.4179606749985,5019.521130325892 4921.50813061875,5013.643277802969 4929.598300562501,5007.765425280046 4937.688470506249,5013.643277802972 4934.598300562502,5004.13271264002 4926.508130618753,4998.254860117094 4916.508130618753,4998.254860117091 4913.417960675001,5007.765425280043 4916.508130618749,5017.275990442995 4919.5983005625,5007.765425280044 4927.688470506251,5001.88757275712" stroke="black" stroke-linecap="round" stroke-width="1" /><polyline clip-path="url(#border_clip)" fill="none" points="4927.688470506251,5001.88757275712 4919.5983005625,5007.765425280044 4927.688470506249,5013.64327780297 4935.77864045,5007.765425280048 4938.8688103937475,5017.2759904429995 4946.958980337496,5023.153842965926 4955.049150281245,5029.031695488853 4963.139320224996,5023.1538429659295 4971.229490168744,5029.031695488857 4979.319660112493,5034.909548011783 4982.409830056244,5025.398982848832 4990.499999999993,5031.276835371758 4993.590169943744,5021.766270208807 5003.5901699437445,5021.766270208809 5000.499999999996,5012.255705045857 4992.409830056248,5006.37785252293 5000.499999999999,5000.500000000007 5003.590169943746,5010.010565162959 5000.499999999999,5000.500000000007 5010.499999999999,5000.500000000009 5020.5,5000.500000000011 5030.5,5000.500000000014 5038.590169943748,5006.37785252294 5041.6803398875,4996.867287359989 5033.590169943749,5002.745139882912 5041.6803398875,4996.867287359989 5044.770509831247,5006.377852522941 5041.680339887496,5015.888417685892 5049.770509831247,5010.010565162969 5041.680339887498,5004.132712640043 5038.590169943751,4994.62214747709 5028.590169943751,4994.622147477088 5038.590169943751,4994.62214747709 5041.680339887503,4985.111582314139 5031.680339887503,4985.111582314137 5034.77050983125,4994.622147477089 5026.680339887502,4988.744294954163 5029.770509831249,4998.254860117115 5032.860679775001,4988.744294954164 5042.860679775001,4988.744294954166 5032.860679775001,4988.744294954164 5024.770509831252,4982.866442431237 5027.8606797750035,4973.355877268286" stroke="black" stroke-linecap="round" stroke-width="1" /><polyline clip-path="url(#border_clip)" fill="none" points="5027.8606797750035,4973.355877268286 5024.770509831256,4963.8453121053335 5016.680339887505,4969.723164628257 5008.5901699437545,4975.60101715118 5000.5000000000055,4969.7231646282535 5003.590169943754,4979.233729791206 5011.680339887502,4985.111582314133 5021.680339887502,4985.1115823141345 5024.770509831254,4975.601017151183 5021.680339887506,4966.0904519882315 5018.5901699437545,4975.6010171511825 5010.500000000004,4981.478869674105 5018.5901699437545,4975.6010171511825 5010.500000000006,4969.723164628255 5002.409830056255,4975.601017151179 4999.319660112507,4966.090451988226 4991.229490168759,4960.2125994653 4983.139320225011,4954.334746942373 4975.049150281259,4960.212599465296 4966.958980337511,4954.33474694237 4958.868810393763,4948.4568944194425 4955.778640450011,4957.9674595823935 4947.688470506263,4952.089607059467 4944.598300562511,4961.600172222418 4934.598300562511,4961.600172222416 4937.688470506258,4971.110737385368 4945.778640450007,4976.988589908296 4937.688470506256,4982.866442431218 4934.5983005625085,4973.355877268266 4937.688470506256,4982.866442431218 4927.688470506256,4982.8664424312165 4917.688470506255,4982.866442431215 4907.688470506255,4982.866442431212 4899.598300562507,4976.988589908286 4896.508130618755,4986.499155071237 4904.598300562506,4980.621302548313 4896.508130618755,4986.499155071237 4893.417960675008,4976.988589908284 4896.508130618759,4967.478024745333 4888.417960675008,4973.355877268256 4896.508130618757,4979.233729791183 4899.598300562504,4988.7442949541355 4909.598300562504,4988.744294954137" stroke="black" stroke-linecap="round" stroke-width="1" /><polyline clip-path="url(#border_clip)" fill="none" points="4909.598300562504,4988.744294954137 4899.598300562504,4988.7442949541355 4896.508130618752,4998.2548601170865 4906.508130618752,4998.254860117088 4903.417960675005,4988.744294954136 4911.508130618753,4994.622147477063 4908.417960675006,4985.11158231411 4905.327790731254,4994.622147477062 4895.327790731254,4994.622147477059 4905.327790731254,4994.622147477062 4913.417960675003,5000.499999999988 4910.327790731251,5010.010565162939 4913.4179606749985,5019.521130325892 4921.508130618749,5013.643277802968 4929.5983005625,5007.765425280046 4937.688470506249,5013.643277802972 4934.598300562501,5004.132712640019 4926.508130618753,4998.254860117093 4916.508130618753,4998.254860117091 4913.417960675001,5007.765425280042 4916.5081306187485,5017.275990442994 4919.5983005625,5007.765425280043 4927.688470506251,5001.88757275712 4919.5983005625,5007.765425280043 4927.688470506248,5013.64327780297 4935.778640449999,5007.765425280047 4938.8688103937475,5017.2759904429995 4946.958980337496,5023.153842965926 4955.049150281244,5029.031695488853 4963.139320224995,5023.1538429659295 4971.229490168744,5029.031695488857 4979.319660112492,5034.909548011783 4982.409830056244,5025.398982848832 4990.499999999992,5031.276835371758 4993.590169943744,5021.766270208807 5003.590169943744,5021.76627020881 5000.499999999996,5012.255705045857 4992.409830056248,5006.377852522931 5000.499999999999,5000.500000000007 5003.590169943746,5010.01056516296 5000.499999999999,5000.500000000007 5010.499999999999,5000.50000000001 5020.5,5000.500000000012" stroke="black" stroke-linecap="round" stroke-width="1" /><polyline clip-path="url(#border_clip)" fill="none" points="5020.5,5000.500000000012 5030.5,5000.500000000014 5038.590169943748,5006.377852522941 5041.6803398875,4996.86728735999 5033.590169943749,5002.745139882913 5041.6803398875,4996.86728735999 5044.770509831247,5006.377852522942 5041.680339887495,5015.888417685894 5049.770509831247,5010.01056516297 5041.680339887498,5004.132712640044 5038.590169943751,4994.622147477091 5028.590169943751,4994.622147477089 5038.590169943751,4994.622147477091 5041.680339887503,4985.11158231414 5031.680339887503,4985.111582314137 5034.77050983125,4994.62214747709 5026.680339887502,4988.744294954164 5029.770509831249,4998.254860117116 5032.860679775001,4988.744294954165 5042.860679775001,4988.744294954167 5032.860679775001,4988.744294954165 5024.770509831253,4982.866442431238 5027.8606797750035,4973.355877268287 5024.770509831256,4963.845312105334 5016.680339887505,4969.723164628257 5008.5901699437545,4975.601017151181 5000.500000000006,4969.7231646282535 5003.590169943754,4979.233729791206 5011.680339887502,4985.111582314133 5021.680339887502,4985.111582314135 5024.770509831254,4975.601017151184 5021.680339887506,4966.0904519882315 5018.5901699437545,4975.6010171511825 5010.500000000004,4981.478869674106 5018.5901699437545,4975.6010171511825 5010.500000000006,4969.723164628256 5002.4098300562555,4975.601017151179 4999.319660112508,4966.090451988227 4991.229490168759,4960.2125994653 4983.139320225011,4954.334746942373 4975.04915028126,4960.212599465296 4966.958980337512,4954.33474694237 4958.868810393763,4948.4568944194425" stroke="black" stroke-linecap="round" stroke-width="1" /><polyline clip-path="url(#border_clip)" fill="none" points="4958.868810393763,4948.4568944194425 4955.778640450011,4957.9674595823935 4947.688470506263,4952.089607059467 4944.598300562511,4961.600172222418 4934.598300562511,4961.6001722224155 4937.688470506258,4971.110737385368 4945.778640450007,4976.988589908296 4937.688470506256,4982.866442431218 4934.5983005625085,4973.355877268265 4937.688470506256,4982.866442431218 4927.688470506256,4982.866442431216 4917.688470506255,4982.866442431214 4907.688470506255,4982.866442431211 4899.598300562507,4976.988589908285 4896.508130618755,4986.499155071236 4904.598300562506,4980.621302548313 4896.508130618755,4986.499155071236 4893.417960675008,4976.988589908283 4896.508130618759,4967.478024745332 4888.4179606750085,4973.355877268255 4896.508130618757,4979.233729791182 4899.598300562504,4988.744294954135 4909.598300562504,4988.744294954136 4899.598300562504,4988.744294954135 4896.508130618752,4998.254860117086 4906.508130618752,4998.254860117087 4903.417960675005,4988.7442949541355 4911.508130618753,4994.622147477062 4908.417960675006,4985.11158231411 4905.327790731254,4994.622147477061 4895.327790731254,4994.622147477058 4905.327790731254,4994.622147477061 4913.417960675002,5000.499999999987 4910.327790731251,5010.010565162938 4913.4179606749985,5019.521130325891 4921.508130618749,5013.643277802968 4929.5983005625,5007.765425280045 4937.688470506248,5013.643277802972 4934.598300562501,5004.132712640019 4926.508130618753,4998.254860117093 4916.508130618753,4998.25486011709 4913.417960675001,5007.765425280041 4916.5081306187485,5017.275990442994" stroke="black" stroke-linecap="round" stroke-width="1" /><polyline clip-path="url(#border_clip)" fill="none" points="4916.5081306187485,5017.275990442994 4919.5983005625,5007.765425280043 4927.688470506251,5001.887572757119 4919.5983005625,5007.765425280043 4927.688470506248,5013.643277802969 4935.778640449999,5007.765425280047 4938.868810393747,5017.275990442999 4946.958980337496,5023.153842965926 4955.049150281244,5029.031695488853 4963.139320224995,5023.1538429659295 4971.229490168743,5029.031695488857 4979.319660112491,5034.909548011783 4982.409830056243,5025.398982848832 4990.499999999992,5031.276835371759 4993.590169943744,5021.766270208808 5003.590169943744,5021.76627020881 5000.499999999996,5012.255705045857 4992.409830056248,5006.377852522931 5000.499999999999,5000.500000000008 5003.590169943746,5010.01056516296 5000.499999999999,5000.500000000008" stroke="black" stroke-linecap="round" stroke-width="1" /></svg>