<?xml version="1.0" encoding="utf-8" ?>
<svg baseProfile="full" height="1000px" version="1.1" width="1000px" xmlns="http://www.w3.org/2000/svg" xmlns:ev="http://www.w3.org/2001/xml-events" xmlns:xlink="http://www.w3.org/1999/xlink"><defs><clipPath id="border_clip"><rect height="1000" width="1000" x="0" y="0" /></clipPath></defs><polyline clip-path="url(#border_clip)" fill="none" points="500.5,500.5 510.5,500.5 520.5,500.5 528.5901699437495,506.37785252292474 531.6803398874989,496.8672873599732 523.5901699437495,502.74513988289794 531.6803398874989,496.8672873599732 534.7705098312484,506.37785252292474 531.6803398874989,515.8884176858762 539.7705098312484,510.01056516295154 531.6803398874989,504.1327126400268 528.5901699437495,494.62214747707526 518.5901699437495,494.62214747707526 528.5901699437495,494.62214747707526 531.680339887499,485.1115823141237 521.680339887499,485.1115823141237 524.7705098312484,494.62214747707526 516.6803398874989,488.7442949541505 519.7705098312484,498.25486011710206 522.860679774998,488.7442949541505 532.860679774998,488.7442949541506 522.860679774998,488.7442949541505 514.7705098312484,482.8664424312258 517.860679774998,473.35587726827424 514.7705098312485,463.8453121053227 506.68033988749903,469.7231646282474 498.5901699437495,475.60101715117213 490.50000000000006,469.72316462824733 493.5901699437495,479.2337297911989 501.680339887499,485.11158231412367 511.680339887499,485.11158231412367 514.7705098312484,475.6010171511722 511.68033988749903,466.0904519882206 508.5901699437495,475.60101715117213 500.5,481.4788696740968 508.5901699437495,475.60101715117213 500.50000000000006,469.7231646282474 492.40983005625054,475.6010171511721 489.31966011250114,466.09045198822054 481.2294901687517,460.21259946529574 473.1393202250022,454.334746942371 465.0491502812527,460.2125994652957 456.95898033750325,454.3347469423709" stroke="black" stroke-linecap="round" stroke-width="1" /><polyline clip-path="url(#border_clip)" fill="none" points="456.95898033750325,454.3347469423709 448.8688103937538,448.45689441944614 445.7786404500043,457.9674595823976 437.6884705062548,452.0896070594729 434.5983005625053,461.6001722224244 424.5983005625053,461.60017222242436 427.6884705062547,471.1107373853759 435.77864045000416,476.9885899083007 427.68847050625465,482.8664424312254 424.5983005625052,473.35587726827384 427.68847050625465,482.8664424312254 417.68847050625465,482.8664424312253 407.6884705062546,482.86644243122527 397.6884705062546,482.8664424312252 389.5983005625052,476.9885899083004 386.5081306187556,486.49915507125195 394.59830056250513,480.62130254832726 386.5081306187556,486.49915507125195 383.4179606750062,476.9885899083004 386.50813061875573,467.4780247453489 378.4179606750062,473.35587726827356 386.5081306187557,479.23372979119836 389.5983005625051,488.7442949541499 399.5983005625051,488.74429495415 389.5983005625051,488.7442949541499 386.50813061875556,498.25486011710143 396.50813061875556,498.25486011710154 393.41796067500616,488.74429495414995 401.50813061875556,494.62214747707475 398.41796067500616,485.11158231412315 395.32779073125664,494.6221474770747 385.32779073125664,494.62214747707463 395.32779073125664,494.6221474770747 403.41796067500604,500.4999999999995 400.3277907312565,510.010565162951 403.4179606750059,519.5211303259026 411.50813061875544,513.643277802978 419.59830056250496,507.76542528005325 427.6884705062544,513.6432778029781 424.598300562505,504.1327126400265 416.50813061875556,498.2548601171017 406.50813061875556,498.2548601171016 403.417960675006,507.76542528005314" stroke="black" stroke-linecap="round" stroke-width="1" /><polyline clip-path="url(#border_clip)" fill="none" points="403.417960675006,507.76542528005314 406.5081306187554,517.2759904430047 409.59830056250496,507.7654252800532 417.6884705062545,501.8875727571285 409.59830056250496,507.7654252800532 417.68847050625436,513.643277802978 425.77864045000393,507.76542528005336 428.86881039375334,517.275990443005 436.95898033750274,523.1538429659298 445.0491502812522,529.0316954888546 453.1393202250017,523.1538429659299 461.22949016875117,529.0316954888548 469.31966011250057,534.9095480117796 472.40983005625014,525.398982848828 480.4999999999996,531.2768353717529 483.5901699437492,521.7662702088014 493.5901699437492,521.7662702088015 490.49999999999983,512.2557050458499 482.40983005625037,506.3778525229251 490.49999999999994,500.5000000000004 493.59016994374934,510.010565162952 490.49999999999994,500.5000000000004 500.5,500.5000000000005 510.5,500.5000000000006 520.5,500.50000000000074 528.5901699437494,506.3778525229256 531.680339887499,496.86728735997406 523.5901699437495,502.74513988289874 531.680339887499,496.86728735997406 534.7705098312484,506.37785252292565 531.6803398874988,515.8884176858772 539.7705098312483,510.01056516295256 531.6803398874989,504.1327126400277 528.5901699437496,494.6221474770761 518.5901699437495,494.62214747707594 528.5901699437496,494.6221474770761 531.6803398874991,485.1115823141246 521.6803398874991,485.11158231412446 524.7705098312485,494.62214747707606 516.6803398874991,488.7442949541512 519.7705098312484,498.2548601171028 522.8606797749981,488.74429495415126 532.8606797749981,488.7442949541514" stroke="black" stroke-linecap="round" stroke-width="1" /><polyline clip-path="url(#border_clip)" fill="none" points="532.8606797749981,488.7442949541514 522.8606797749981,488.74429495415126 514.7705098312487,482.8664424312264 517.8606797749983,473.3558772682749 514.770509831249,463.8453121053233 506.6803398874994,469.7231646282479 498.5901699437498,475.6010171511725 490.5000000000004,469.7231646282477 493.59016994374974,479.23372979119927 501.68033988749914,485.1115823141242 511.68033988749914,485.1115823141243 514.7705098312488,475.6010171511728 511.68033988749943,466.0904519882212 508.5901699437498,475.6010171511727 500.5000000000002,481.4788696740973 508.5901699437498,475.6010171511727 500.5000000000004,469.72316462824784 492.4098300562508,475.60101715117247 489.3196601125015,466.0904519882208 481.2294901687521,460.21259946529597 473.1393202250027,454.3347469423711 465.0491502812531,460.21259946529574 456.9589803375037,454.3347469423708 448.8688103937543,448.4568944194459 445.7786404500047,457.96745958239745 437.68847050625527,452.08960705947254 434.59830056250564,461.6001722224241 424.5983005625056,461.6001722224239 427.68847050625493,471.1107373853755 435.77864045000433,476.9885899083004 427.6884705062547,482.86644243122504 424.5983005625054,473.3558772682734 427.6884705062547,482.86644243122504 417.6884705062547,482.86644243122487 407.68847050625465,482.86644243122464 397.6884705062546,482.86644243122447 389.59830056250524,476.9885899082996 386.50813061875556,486.4991550712511 394.5983005625052,480.6213025483265 386.50813061875556,486.4991550712511 383.41796067500627,476.98858990829945 386.5081306187559,467.47802474534797 378.4179606750063,473.35587726827254" stroke="black" stroke-linecap="round" stroke-width="1" /><polyline clip-path="url(#border_clip)" fill="none" points="378.4179606750063,473.35587726827254 386.5081306187557,479.23372979119745 389.598300562505,488.7442949541491 399.598300562505,488.74429495414927 389.598300562505,488.7442949541491 386.50813061875533,498.2548601171006 396.50813061875533,498.2548601171008 393.41796067500604,488.74429495414915 401.50813061875544,494.62214747707407 398.41796067500616,485.1115823141224 395.32779073125647,494.62214747707395 385.32779073125647,494.6221474770737 395.32779073125647,494.62214747707395 403.4179606750059,500.49999999999886 400.3277907312562,510.01056516295034 403.4179606750055,519.521130325902 411.5081306187551,513.6432778029774 419.59830056250473,507.76542528005285 427.6884705062541,513.6432778029778 424.59830056250485,504.1327126400261 416.50813061875544,498.2548601171012 406.50813061875544,498.254860117101 403.4179606750057,507.7654252800525 406.508130618755,517.2759904430042 409.5983005625047,507.7654252800526 417.6884705062543,501.88757275712805 409.5983005625047,507.7654252800526 417.6884705062541,513.6432778029775 425.7786404500037,507.76542528005297 428.86881039375294,517.2759904430046 436.95898033750234,523.1538429659296 445.04915028125174,529.0316954888544 453.13932022500137,523.1538429659299 461.2294901687507,529.0316954888549 469.31966011250006,534.9095480117797 472.4098300562498,525.3989828488283 480.49999999999915,531.2768353717532 483.59016994374883,521.7662702088018 493.5901699437489,521.766270208802 490.4999999999996,512.2557050458503 482.40983005625026,506.37785252292537 490.4999999999999,500.5000000000008 493.5901699437491,510.01056516295245" stroke="black" stroke-linecap="round" stroke-width="1" /><polyline clip-path="url(#border_clip)" fill="none" points="493.5901699437491,510.01056516295245 490.4999999999999,500.5000000000008 500.49999999999994,500.500000000001 510.49999999999994,500.5000000000013 520.5,500.50000000000153 528.5901699437494,506.37785252292645 531.680339887499,496.86728735997497 523.5901699437494,502.74513988289954 531.680339887499,496.86728735997497 534.7705098312483,506.3778525229266 531.6803398874986,515.8884176858782 539.7705098312482,510.0105651629536 531.6803398874989,504.1327126400286 528.5901699437496,494.62214747707696 518.5901699437496,494.6221474770767 528.5901699437496,494.62214747707696 531.6803398874994,485.1115823141255 521.6803398874994,485.1115823141252 524.7705098312485,494.62214747707685 516.6803398874993,488.7442949541519 519.7705098312484,498.25486011710353 522.8606797749982,488.74429495415205 532.8606797749983,488.74429495415234 522.8606797749982,488.74429495415205 514.7705098312489,482.8664424312271 517.8606797749986,473.3558772682756 514.7705098312493,463.84531210532396 506.6803398874997,469.72316462824847 498.59016994375,475.60101715117304 490.5000000000007,469.72316462824807 493.5901699437499,479.2337297911997 501.68033988749926,485.1115823141247 511.6803398874993,485.111582314125 514.770509831249,475.60101715117344 511.6803398874998,466.0904519882218 508.5901699437501,475.60101715117327 500.5000000000004,481.47886967409784 508.5901699437501,475.60101715117327 500.50000000000074,469.7231646282483 492.40983005625105,475.6010171511728 489.3196601125018,466.09045198822116 481.2294901687525,460.2125994652962 473.13932022500313,454.3347469423712" stroke="black" stroke-linecap="round" stroke-width="1" /><polyline clip-path="url(#border_clip)" fill="none" points="473.13932022500313,454.3347469423712 465.04915028125345,460.21259946529574 456.95898033750416,454.33474694237077 448.86881039375476,448.45689441944575 445.778640450005,457.9674595823972 437.68847050625567,452.08960705947226 434.5983005625059,461.60017222242374 424.59830056250587,461.60017222242345 427.6884705062551,471.1107373853751 435.77864045000445,476.9885899083001 427.68847050625476,482.86644243122464 424.59830056250553,473.35587726827293 427.68847050625476,482.86644243122464 417.6884705062547,482.8664424312243 407.6884705062547,482.866442431224 397.68847050625465,482.86644243122373 389.5983005625053,476.9885899082987 386.50813061875556,486.4991550712502 394.5983005625052,480.62130254832573 386.50813061875556,486.49915507125024 383.4179606750063,476.98858990829854 386.5081306187561,467.47802474534706 378.4179606750064,473.35587726827157 386.50813061875573,479.2337297911966 389.59830056250496,488.74429495414824 399.59830056250496,488.7442949541486 389.59830056250496,488.74429495414824 386.50813061875516,498.2548601170997 396.5081306187552,498.25486011710007 393.417960675006,488.74429495414836 401.50813061875533,494.6221474770734 398.41796067500616,485.11158231412173 395.32779073125636,494.6221474770732 385.3277907312563,494.6221474770729 395.32779073125636,494.6221474770732 403.41796067500565,500.49999999999824 400.32779073125585,510.01056516294966 403.417960675005,519.5211303259014 411.50813061875476,513.6432778029769 419.59830056250445,507.7654252800524 427.6884705062538,513.6432778029774 424.5983005625046,504.1327126400257 416.5081306187553,498.2548601171007" stroke="black" stroke-linecap="round" stroke-width="1" /><polyline clip-path="url(#border_clip)" fill="none" points="416.5081306187553,498.2548601171007 406.5081306187552,498.25486011710035 403.4179606750054,507.76542528005183 406.5081306187546,517.2759904430035 409.5983005625044,507.76542528005206 417.68847050625413,501.88757275712754 409.5983005625044,507.76542528005206 417.6884705062537,513.6432778029771 425.7786404500034,507.7654252800526 428.8688103937526,517.2759904430043 436.9589803375019,523.1538429659294 445.04915028125123,529.0316954888543 453.1393202250009,523.1538429659299 461.22949016875026,529.0316954888549 469.31966011249955,534.90954801178 472.40983005624935,525.3989828488285 480.4999999999987,531.2768353717535 483.5901699437485,521.766270208802 493.59016994374855,521.7662702088023 490.4999999999994,512.2557050458507 482.4098300562501,506.37785252292565 490.49999999999983,500.5000000000012 493.59016994374895,510.01056516295284 490.49999999999983,500.5000000000012 500.4999999999999,500.50000000000153 510.4999999999999,500.5000000000019 520.5,500.5000000000022 528.5901699437493,506.3778525229273 531.6803398874991,496.8672873599758 523.5901699437494,502.7451398829003 531.6803398874991,496.8672873599758 534.7705098312482,506.3778525229275 531.6803398874985,515.888417685879 539.7705098312481,510.0105651629545 531.6803398874988,504.13271264002947 528.5901699437497,494.62214747707776 518.5901699437496,494.62214747707736 528.5901699437497,494.62214747707776 531.6803398874996,485.1115823141263 521.6803398874995,485.1115823141259 524.7705098312487,494.6221474770776 516.6803398874994,488.74429495415256 519.7705098312484,498.2548601171043" stroke="black" stroke-linecap="round" stroke-width="1" /><polyline clip-path="url(#border_clip)" fill="none" points="519.7705098312484,498.2548601171043 522.8606797749983,488.7442949541528 532.8606797749984,488.74429495415313 522.8606797749983,488.7442949541528 514.770509831249,482.8664424312277 517.8606797749989,473.35587726827623 514.7705098312498,463.8453121053245 506.6803398875,469.723164628249 498.59016994375025,475.60101715117344 490.50000000000097,469.72316462824836 493.5901699437501,479.23372979120006 501.6803398874994,485.11158231412514 511.68033988749943,485.11158231412554 514.7705098312493,475.60101715117406 511.68033988750017,466.09045198822236 508.5901699437503,475.60101715117383 500.50000000000057,481.4788696740983 508.5901699437503,475.60101715117383 500.500000000001,469.72316462824875 492.4098300562513,475.6010171511732 489.31966011250216,466.0904519882215 481.2294901687529,460.2125994652964 473.1393202250036,454.33474694237134 465.04915028125384,460.21259946529574 456.95898033750456,454.33474694237066 448.86881039375527,448.4568944194456 445.77864045000535,457.96745958239705 437.68847050625607,452.089607059472 434.5983005625062,461.6001722224234 424.59830056250615,461.600172222423 427.68847050625527,471.1107373853747 435.77864045000456,476.98858990829984 427.6884705062548,482.86644243122424 424.5983005625057,473.35587726827254 427.6884705062548,482.86644243122424 417.68847050625476,482.86644243122385 407.6884705062547,482.86644243122345 397.68847050625465,482.866442431223 389.59830056250536,476.9885899082979 386.50813061875544,486.4991550712494 394.59830056250524,480.62130254832493 386.50813061875544,486.4991550712494 383.4179606750064,476.9885899082977" stroke="black" stroke-linecap="round" stroke-width="1" /><polyline clip-path="url(#border_clip)" fill="none" points="383.4179606750064,476.9885899082977 386.5081306187563,467.4780247453462 378.4179606750065,473.3558772682706 386.5081306187558,479.23372979119574 389.59830056250485,488.74429495414745 399.59830056250496,488.7442949541479 389.59830056250485,488.74429495414745 386.508130618755,498.25486011709893 396.50813061875505,498.2548601170993 393.41796067500593,488.7442949541476 401.5081306187552,494.62214747707276 398.41796067500616,485.111582314121 395.32779073125624,494.6221474770725 385.3277907312562,494.622147477072 395.32779073125624,494.6221474770725 403.4179606750055,500.4999999999976 400.3277907312556,510.01056516294904 403.4179606750047,519.5211303259008 411.5081306187544,513.6432778029764 419.5983005625042,507.765425280052 427.6884705062535,513.6432778029771 424.5983005625044,504.1327126400254 416.50813061875516,498.25486011710024 406.5081306187551,498.2548601170998 403.4179606750052,507.76542528005126 406.50813061875425,517.275990443003 409.59830056250416,507.76542528005155 417.68847050625396,501.88757275712715 409.59830056250416,507.76542528005155 417.68847050625345,513.6432778029766 425.7786404500032,507.7654252800522 428.86881039375226,517.275990443004 436.95898033750154,523.1538429659291 445.04915028125083,529.0316954888542 453.1393202250006,523.1538429659299 461.22949016874986,529.031695488855 469.3196601124991,534.9095480117802 472.409830056249,525.3989828488287 480.4999999999983,531.2768353717538 483.5901699437482,521.7662702088024 493.59016994374826,521.7662702088029 490.49999999999926,512.2557050458511 482.40983005625,506.377852522926" stroke="black" stroke-linecap="round" stroke-width="1" /><polyline clip-path="url(#border_clip)" fill="none" points="482.40983005625,506.377852522926 490.4999999999998,500.5000000000016 493.59016994374883,510.0105651629533 490.4999999999998,500.5000000000016 500.49999999999983,500.50000000000205 510.4999999999999,500.5000000000025 520.5,500.500000000003 528.5901699437492,506.37785252292815 531.6803398874991,496.8672873599767 523.5901699437494,502.74513988290107 531.6803398874991,496.8672873599767 534.7705098312482,506.37785252292844 531.6803398874982,515.8884176858799 539.7705098312481,510.0105651629555 531.6803398874988,504.1327126400303 528.5901699437497,494.6221474770786 518.5901699437497,494.6221474770781 528.5901699437497,494.6221474770786 531.6803398874997,485.11158231412713 521.6803398874997,485.1115823141267 524.7705098312487,494.6221474770784 516.6803398874995,488.74429495415325 519.7705098312485,498.254860117105 522.8606797749984,488.74429495415353 532.8606797749985,488.74429495415404 522.8606797749984,488.74429495415353 514.7705098312492,482.8664424312284 517.8606797749992,473.3558772682769 514.7705098312501,463.84531210532515 506.68033988750034,469.72316462824955 498.59016994375054,475.6010171511739 490.5000000000013,469.7231646282487 493.5901699437503,479.23372979120046 501.68033988749954,485.11158231412566 511.6803398874996,485.11158231412617 514.7705098312496,475.60101715117474 511.68033988750057,466.090451988223 508.5901699437506,475.6010171511744 500.50000000000074,481.47886967409875 508.5901699437506,475.6010171511744 500.50000000000136,469.7231646282492 492.4098300562515,475.60101715117355 489.31966011250256,466.0904519882218" stroke="black" stroke-linecap="round" stroke-width="1" /><polyline clip-path="url(#border_clip)" fill="none" points="489.31966011250256,466.0904519882218 481.22949016875333,460.2125994652966 473.1393202250041,454.3347469423714 465.04915028125424,460.21259946529574 456.958980337505,454.33474694237054 448.8688103937558,448.45689441944535 445.7786404500058,457.9674595823968 437.6884705062566,452.08960705947163 434.5983005625066,461.60017222242305 424.59830056250655,461.60017222242254 427.6884705062555,471.1107373853743 435.77864045000473,476.9885899082995 427.6884705062549,482.86644243122385 424.59830056250587,473.3558772682721 427.6884705062549,482.86644243122385 417.6884705062548,482.8664424312233 407.68847050625476,482.86644243122277 397.6884705062547,482.86644243122225 389.5983005625055,476.988589908297 386.50813061875544,486.4991550712485 394.5983005625053,480.62130254832414 386.50813061875544,486.4991550712485 383.4179606750065,476.9885899082967 386.50813061875647,467.47802474534524 378.4179606750066,473.3558772682696 386.50813061875584,479.2337297911948 389.59830056250485,488.7442949541466 399.5983005625049,488.7442949541471 389.59830056250485,488.7442949541466 386.50813061875476,498.254860117098 396.5081306187549,498.25486011709853 393.4179606750059,488.74429495414677 401.5081306187551,494.622147477072 398.41796067500616,485.11158231412026 395.3277907312561,494.6221474770717 385.327790731256,494.6221474770711 395.3277907312561,494.6221474770717 403.4179606750053,500.4999999999969 400.3277907312553,510.0105651629483 403.4179606750042,519.5211303259001 411.5081306187541,513.6432778029758 419.598300562504,507.7654252800515 427.68847050625317,513.6432778029767" stroke="black" stroke-linecap="round" stroke-width="1" /><polyline clip-path="url(#border_clip)" fill="none" points="427.68847050625317,513.6432778029767 424.5983005625042,504.1327126400249 416.508130618755,498.25486011709967 406.50813061875493,498.2548601170991 403.4179606750049,507.7654252800505 406.50813061875385,517.2759904430023 409.59830056250394,507.7654252800509 417.6884705062538,501.8875727571266 409.59830056250394,507.7654252800509 417.6884705062531,513.6432778029762 425.77864045000297,507.76542528005183 428.8688103937519,517.2759904430036 436.95898033750115,523.1538429659289 445.0491502812503,529.0316954888541 453.1393202250002,523.1538429659298 461.2294901687494,529.031695488855 469.3196601124986,534.9095480117803 472.4098300562486,525.3989828488288 480.49999999999784,531.2768353717541 483.59016994374787,521.7662702088027 493.5901699437479,521.7662702088032 490.49999999999903,512.2557050458515 482.4098300562498,506.3778525229262 490.4999999999997,500.50000000000193 493.59016994374866,510.0105651629537 490.4999999999997,500.50000000000193 500.4999999999998,500.5000000000025 510.4999999999999,500.5000000000031 520.4999999999999,500.5000000000037 528.5901699437492,506.37785252292895 531.6803398874991,496.8672873599775 523.5901699437493,502.7451398829018 531.6803398874991,496.8672873599775 534.7705098312481,506.37785252292935 531.680339887498,515.8884176858808 539.770509831248,510.0105651629565 531.6803398874988,504.13271264003123 528.5901699437499,494.6221474770794 518.5901699437497,494.6221474770788 528.5901699437499,494.6221474770794 531.6803398874999,485.111582314128 521.6803398874998,485.11158231412736 524.7705098312488,494.6221474770792" stroke="black" stroke-linecap="round" stroke-width="1" /><polyline clip-path="url(#border_clip)" fill="none" points="524.7705098312488,494.6221474770792 516.6803398874996,488.7442949541539 519.7705098312485,498.2548601171057 522.8606797749985,488.74429495415427 532.8606797749986,488.7442949541549 522.8606797749986,488.74429495415427 514.7705098312495,482.86644243122896 517.8606797749995,473.3558772682776 514.7705098312506,463.8453121053258 506.6803398875007,469.72316462825006 498.59016994375077,475.60101715117435 490.5000000000016,469.72316462824904 493.5901699437505,479.23372979120086 501.68033988749966,485.1115823141261 511.68033988749977,485.11158231412674 514.7705098312498,475.6010171511753 511.68033988750096,466.09045198822355 508.5901699437508,475.6010171511749 500.5000000000009,481.4788696740992 508.5901699437508,475.601017151175 500.5000000000017,469.72316462824966 492.4098300562518,475.60101715117395 489.31966011250285,466.0904519882221 481.2294901687537,460.2125994652968 473.13932022500455,454.3347469423715 465.04915028125464,460.2125994652958 456.95898033750547,454.3347469423705 448.8688103937563,448.4568944194452 445.77864045000615,457.9674595823966 437.68847050625703,452.0896070594713 434.5983005625069,461.60017222242277 424.59830056250684,461.6001722224221 427.6884705062557,471.1107373853739 435.7786404500049,476.9885899082992 427.68847050625493,482.8664424312235 424.5983005625061,473.3558772682717 427.68847050625493,482.8664424312235 417.6884705062549,482.8664424312228 407.6884705062548,482.8664424312222 397.6884705062547,482.8664424312215 389.59830056250553,476.98858990829626 386.50813061875544,486.4991550712476 394.59830056250536,480.6213025483234" stroke="black" stroke-linecap="round" stroke-width="1" /><polyline clip-path="url(#border_clip)" fill="none" points="394.59830056250536,480.6213025483234 386.50813061875544,486.4991550712476 383.41796067500655,476.9885899082958 386.5081306187567,467.47802474534444 378.4179606750067,473.35587726826867 386.5081306187559,479.233729791194 389.59830056250473,488.7442949541458 399.59830056250485,488.7442949541465 389.59830056250473,488.7442949541458 386.50813061875465,498.2548601170972 396.5081306187547,498.2548601170979 393.4179606750058,488.7442949541461 401.508130618755,494.6221474770714 398.41796067500616,485.1115823141196 395.32779073125596,494.622147477071 385.3277907312559,494.6221474770703 395.32779073125596,494.622147477071 403.41796067500513,500.4999999999963 400.327790731255,510.0105651629477 403.4179606750038,519.5211303258995 411.50813061875374,513.6432778029753 419.5983005625037,507.7654252800511 427.6884705062529,513.6432778029764 424.598300562504,504.1327126400246 416.5081306187549,498.25486011709927 406.50813061875476,498.2548601170986 403.4179606750046,507.76542528004995 406.50813061875346,517.2759904430018 409.5983005625036,507.7654252800504 417.68847050625357,501.8875727571262 409.5983005625036,507.7654252800504 417.68847050625277,513.6432778029757 425.77864045000274,507.76542528005155 428.8688103937516,517.2759904430034 436.9589803375007,523.1538429659287 445.0491502812498,529.0316954888541 453.1393202249998,523.1538429659298 461.22949016874895,529.0316954888552 469.31966011249807,534.9095480117805 472.4098300562482,525.3989828488292 480.4999999999974,531.2768353717545 483.5901699437475,521.7662702088031 493.59016994374764,521.7662702088038" stroke="black" stroke-linecap="round" stroke-width="1" /><polyline clip-path="url(#border_clip)" fill="none" points="493.59016994374764,521.7662702088038 490.4999999999988,512.255705045852 482.4098300562497,506.3778525229266 490.49999999999966,500.5000000000024 493.5901699437485,510.0105651629542 490.49999999999966,500.5000000000024 500.4999999999997,500.50000000000307 510.49999999999983,500.5000000000038 520.4999999999999,500.5000000000045 528.5901699437491,506.37785252292986 531.6803398874993,496.8672873599785 523.5901699437493,502.74513988290266 531.6803398874993,496.8672873599785 534.7705098312481,506.3778525229303 531.6803398874979,515.8884176858817 539.7705098312479,510.0105651629575 531.6803398874987,504.13271264003214 528.5901699437499,494.6221474770803 518.5901699437499,494.6221474770796 528.5901699437499,494.6221474770803 531.6803398875,485.1115823141289 521.6803398875,485.11158231412816 524.7705098312488,494.62214747708003 516.6803398874997,488.74429495415467 519.7705098312485,498.2548601171065 522.8606797749987,488.7442949541551 532.8606797749987,488.74429495415586 522.8606797749987,488.7442949541551 514.7705098312496,482.8664424312297 517.8606797749998,473.35587726827833 514.7705098312509,463.84531210532646 506.680339887501,469.72316462825063 498.590169943751,475.60101715117486 490.5000000000019,469.72316462824944 493.5901699437507,479.2337297912013 501.6803398874998,485.1115823141267 511.6803398874999,485.1115823141275 514.7705098312501,475.60101715117605 511.6803398875013,466.0904519882242 508.5901699437511,475.6010171511756 500.50000000000114,481.47886967409977 508.5901699437511,475.6010171511756 500.500000000002,469.7231646282502" stroke="black" stroke-linecap="round" stroke-width="1" /><polyline clip-path="url(#border_clip)" fill="none" points="500.500000000002,469.7231646282502 492.409830056252,475.60101715117435 489.31966011250324,466.0904519882225 481.2294901687541,460.2125994652971 473.139320225005,454.33474694237174 465.049150281255,460.2125994652959 456.95898033750586,454.3347469423705 448.8688103937568,448.4568944194451 445.77864045000655,457.9674595823965 437.68847050625743,452.0896070594711 434.59830056250723,461.6001722224225 424.5983005625071,461.60017222242175 427.6884705062559,471.11073738537357 435.778640450005,476.988589908299 427.688470506255,482.86644243122316 424.5983005625062,473.3558772682713 427.688470506255,482.86644243122316 417.68847050625493,482.8664424312224 407.6884705062548,482.8664424312216 397.6884705062547,482.8664424312209 389.5983005625056,476.98858990829547 386.50813061875533,486.49915507124683 394.59830056250536,480.62130254832266 386.50813061875533,486.49915507124683 383.4179606750066,476.98858990829495 386.5081306187568,467.4780247453436 378.41796067500684,473.35587726826776 386.5081306187559,479.2337297911932 389.5983005625047,488.74429495414506 399.5983005625048,488.7442949541458 389.5983005625047,488.74429495414506 386.5081306187544,498.2548601170964 396.50813061875454,498.2548601170972 393.41796067500576,488.74429495414535 401.5081306187549,494.62214747707077 398.4179606750061,485.1115823141189 395.32779073125585,494.62214747707026 385.32779073125573,494.62214747706946 395.32779073125585,494.62214747707026 403.41796067500496,500.49999999999574 400.3277907312547,510.0105651629471 403.4179606750034,519.521130325899 411.50813061875346,513.6432778029748" stroke="black" stroke-linecap="round" stroke-width="1" /><polyline clip-path="url(#border_clip)" fill="none" points="411.50813061875346,513.6432778029748 419.5983005625035,507.7654252800507 427.68847050625254,513.6432778029762 424.5983005625038,504.13271264002424 416.50813061875476,498.2548601170988 406.50813061875465,498.254860117098 403.41796067500434,507.7654252800494 406.5081306187531,517.2759904430013 409.59830056250337,507.7654252800499 417.6884705062534,501.8875727571257 409.59830056250337,507.7654252800499 417.68847050625243,513.6432778029754 425.7786404500025,507.7654252800512 428.86881039375123,517.275990443003 436.9589803375003,523.1538429659286 445.04915028124935,529.031695488854 453.13932022499944,523.1538429659298 461.2294901687485,529.0316954888552 469.31966011249756,534.9095480117808 472.40983005624787,525.3989828488294 480.49999999999693,531.2768353717548 483.59016994374724,521.7662702088035 493.5901699437473,521.7662702088043 490.4999999999986,512.2557050458523 482.4098300562495,506.3778525229269 490.49999999999955,500.5000000000028 493.59016994374826,510.01056516295466 490.49999999999955,500.5000000000028 500.49999999999966,500.5000000000036 510.4999999999998,500.50000000000443 520.4999999999999,500.50000000000523 528.590169943749,506.3778525229307 531.6803398874993,496.86728735997934 523.5901699437492,502.74513988290346 531.6803398874993,496.86728735997934 534.770509831248,506.3778525229312 531.6803398874977,515.8884176858826 539.7705098312478,510.01056516295847 531.6803398874987,504.132712640033 528.59016994375,494.6221474770811 518.5901699437499,494.62214747708026 528.59016994375,494.6221474770811 531.6803398875003,485.11158231412975" stroke="black" stroke-linecap="round" stroke-width="1" /><polyline clip-path="url(#border_clip)" fill="none" points="531.6803398875003,485.11158231412975 521.6803398875002,485.1115823141289 524.7705098312489,494.6221474770808 516.6803398874998,488.7442949541553 519.7705098312484,498.2548601171072 522.8606797749987,488.7442949541558 532.8606797749989,488.74429495415666 522.8606797749987,488.7442949541558 514.7705098312497,482.8664424312303 517.8606797750001,473.35587726827896 514.7705098312514,463.8453121053271 506.6803398875013,469.72316462825114 498.5901699437512,475.60101715117526 490.50000000000216,469.7231646282498 493.5901699437509,479.23372979120165 501.68033988749994,485.1115823141272 511.6803398875,485.11158231412804 514.7705098312504,475.6010171511767 511.68033988750165,466.09045198822474 508.59016994375133,475.6010171511761 500.50000000000125,481.4788696741002 508.59016994375133,475.6010171511761 500.5000000000023,469.72316462825063 492.4098300562522,475.6010171511747 489.3196601125035,466.0904519882228 481.22949016875447,460.21259946529733 473.1393202250054,454.3347469423718 465.0491502812553,460.2125994652959 456.9589803375063,454.3347469423704 448.86881039375726,448.4568944194449 445.7786404500069,457.96745958239626 437.6884705062579,452.0896070594707 434.5983005625075,461.6001722224221 424.5983005625074,461.60017222242124 427.68847050625607,471.11073738537317 435.7786404500051,476.98858990829865 427.68847050625504,482.86644243122277 424.5983005625064,473.35587726827083 427.68847050625504,482.86644243122277 417.68847050625493,482.86644243122186 407.6884705062548,482.86644243122095 397.6884705062547,482.8664424312201 389.59830056250564,476.98858990829456" stroke="black" stroke-linecap="round" stroke-width="1" /><polyline clip-path="url(#border_clip)" fill="none" points="389.59830056250564,476.98858990829456 386.50813061875533,486.4991550712459 394.5983005625054,480.62130254832186 386.5081306187553,486.4991550712459 383.4179606750066,476.988589908294 386.508130618757,467.4780247453426 378.4179606750069,473.35587726826674 386.5081306187559,479.2337297911922 389.59830056250456,488.74429495414415 399.5983005625047,488.74429495414506 389.59830056250456,488.74429495414415 386.5081306187542,498.2548601170955 396.5081306187543,498.2548601170964 393.4179606750057,488.7442949541445 401.5081306187547,494.62214747707003 398.41796067500604,485.1115823141181 395.3277907312557,494.62214747706946 385.32779073125556,494.62214747706855 395.3277907312557,494.62214747706946 403.4179606750047,500.499999999995 400.3277907312543,510.01056516294636 403.417960675003,519.5211303258983 411.50813061875306,513.6432778029742 419.5983005625032,507.7654252800502 427.6884705062522,513.6432778029757 424.5983005625036,504.1327126400238 416.50813061875454,498.25486011709825 406.5081306187544,498.25486011709734 403.41796067500405,507.7654252800487 406.5081306187527,517.2759904430006 409.5983005625031,507.76542528004927 417.6884705062532,501.8875727571252 409.5983005625031,507.76542528004927 417.6884705062521,513.6432778029748 425.77864045000223,507.76542528005075 428.86881039375083,517.2759904430027 436.95898033749984,523.1538429659282 445.0491502812489,529.0316954888539 453.139320224999,523.1538429659298 461.229490168748,529.0316954888553 469.319660112497,534.9095480117809 472.4098300562474,525.3989828488295 480.4999999999964,531.276835371755" stroke="black" stroke-linecap="round" stroke-width="1" /><polyline clip-path="url(#border_clip)" fill="none" points="480.4999999999964,531.276835371755 483.59016994374684,521.7662702088037 493.59016994374696,521.7662702088047 490.49999999999835,512.2557050458528 482.40983005624935,506.3778525229272 490.49999999999943,500.5000000000031 493.59016994374804,510.01056516295506 490.49999999999943,500.5000000000031 500.49999999999955,500.5000000000041 510.49999999999966,500.500000000005 520.4999999999998,500.50000000000597 528.5901699437488,506.37785252293156 531.6803398874993,496.8672873599802 523.5901699437491,502.7451398829042 531.6803398874993,496.8672873599802 534.7705098312479,506.37785252293213 531.6803398874974,515.8884176858835 539.7705098312475,510.01056516295944 531.6803398874986,504.1327126400339 528.59016994375,494.6221474770819 518.5901699437499,494.62214747708094 528.59016994375,494.6221474770819 531.6803398875004,485.1115823141306 521.6803398875003,485.11158231412963 524.7705098312489,494.62214747708157 516.6803398874998,488.744294954156 519.7705098312484,498.2548601171079 522.8606797749989,488.7442949541566 532.860679774999,488.74429495415757 522.8606797749989,488.7442949541566 514.7705098312498,482.866442431231 517.8606797750003,473.35587726827964 514.7705098312517,463.8453121053277 506.68033988750153,469.7231646282517 498.5901699437514,475.6010171511757 490.50000000000244,469.7231646282501 493.590169943751,479.23372979120205 501.6803398875,485.11158231412765 511.6803398875001,485.11158231412867 514.7705098312506,475.6010171511773 511.680339887502,466.09045198822537 508.59016994375156,475.6010171511767 500.50000000000136,481.4788696741007" stroke="black" stroke-linecap="round" stroke-width="1" /><polyline clip-path="url(#border_clip)" fill="none" points="500.50000000000136,481.4788696741007 508.59016994375156,475.6010171511767 500.50000000000256,469.7231646282511 492.40983005625236,475.6010171511751 489.3196601125038,466.09045198822315 481.2294901687548,460.21259946529756 473.1393202250058,454.3347469423719 465.04915028125566,460.2125994652959 456.95898033750666,454.3347469423703 448.8688103937577,448.4568944194447 445.77864045000723,457.96745958239603 437.6884705062582,452.08960705947044 434.5983005625078,461.6001722224218 424.5983005625077,461.60017222242084 427.68847050625624,471.1107373853728 435.77864045000524,476.98858990829837 427.68847050625504,482.86644243122237 424.5983005625065,473.35587726827043 427.68847050625504,482.86644243122237 417.68847050625493,482.8664424312214 407.6884705062548,482.8664424312204 397.68847050625465,482.86644243121935 389.59830056250564,476.98858990829376 386.5081306187552,486.4991550712451 394.59830056250536,480.6213025483211 386.5081306187552,486.4991550712451 383.41796067500667,476.98858990829314 386.50813061875715,467.47802474534177 378.41796067500695,473.3558772682658 386.50813061875596,479.2337297911914 389.5983005625045,488.74429495414336 399.5983005625046,488.7442949541444 389.5983005625045,488.74429495414336 386.508130618754,498.2548601170947 396.50813061875414,498.25486011709575 393.4179606750056,488.74429495414375 401.50813061875454,494.6221474770694 398.41796067500604,485.1115823141174 395.3277907312555,494.6221474770688 385.3277907312554,494.62214747706776 395.3277907312555,494.6221474770688 403.4179606750045,500.49999999999443 400.327790731254,510.01056516294574" stroke="black" stroke-linecap="round" stroke-width="1" /><polyline clip-path="url(#border_clip)" fill="none" points="400.327790731254,510.01056516294574 403.4179606750025,519.5211303258977 411.5081306187527,513.6432778029738 419.5983005625029,507.7654252800498 427.68847050625186,513.6432778029754 424.59830056250337,504.13271264002344 416.50813061875436,498.2548601170978 406.50813061875425,498.25486011709677 403.41796067500377,507.7654252800481 406.50813061875226,517.2759904430001 409.5983005625028,507.76542528004876 417.688470506253,501.88757275712476 409.5983005625028,507.76542528004876 417.68847050625175,513.6432778029744 425.77864045000194,507.7654252800504 428.86881039375044,517.2759904430025 436.95898033749944,523.1538429659281 445.0491502812484,529.0316954888538 453.1393202249986,523.1538429659298 461.22949016874753,529.0316954888555 469.31966011249654,534.9095480117811 472.409830056247,525.3989828488297 480.49999999999596,531.2768353717554 483.5901699437465,521.766270208804 493.5901699437466,521.7662702088052 490.4999999999981,512.2557050458531 482.4098300562492,506.37785252292747 490.4999999999994,500.5000000000035 493.59016994374787,510.0105651629555 490.4999999999994,500.5000000000035 500.4999999999995,500.5000000000046 510.49999999999966,500.5000000000056 520.4999999999998,500.5000000000067 528.5901699437487,506.37785252293236 531.6803398874993,496.86728735998105 523.5901699437491,502.745139882905 531.6803398874993,496.86728735998105 534.7705098312478,506.37785252293304 531.6803398874972,515.8884176858844 539.7705098312474,510.0105651629604 531.6803398874985,504.13271264003475 528.59016994375,494.62214747708276 518.5901699437499,494.6221474770817" stroke="black" stroke-linecap="round" stroke-width="1" /><polyline clip-path="url(#border_clip)" fill="none" points="518.5901699437499,494.6221474770817 528.59016994375,494.62214747708276 531.6803398875005,485.1115823141314 521.6803398875004,485.1115823141303 524.7705098312489,494.6221474770823 516.6803398874999,488.74429495415666 519.7705098312484,498.25486011710865 522.860679774999,488.74429495415734 532.8606797749991,488.7442949541584 522.860679774999,488.74429495415734 514.77050983125,482.86644243123163 517.8606797750006,473.3558772682803 514.7705098312521,463.8453121053283 506.6803398875019,469.7231646282522 498.5901699437516,475.60101715117617 490.50000000000273,469.72316462825046 493.59016994375116,479.23372979120245 501.6803398875001,485.11158231412816 511.6803398875002,485.11158231412924 514.7705098312508,475.6010171511779 511.6803398875023,466.09045198822594 508.5901699437518,475.60101715117725 500.50000000000153,481.4788696741012 508.5901699437518,475.60101715117725 500.50000000000284,469.72316462825154 492.4098300562526,475.6010171511755 489.31966011250415,466.09045198822344 481.2294901687552,460.2125994652978 473.13932022500626,454.334746942372 465.04915028125606,460.21259946529597 456.9589803375071,454.33474694237026 448.86881039375817,448.45689441944455 445.77864045000763,457.96745958239586 437.6884705062587,452.08960705947015 434.5983005625081,461.6001722224215 424.598300562508,461.6001722224204 427.6884705062564,471.1107373853724 435.77864045000535,476.9885899082981 427.6884705062551,482.866442431222 424.59830056250667,473.35587726827 427.6884705062551,482.866442431222 417.688470506255,482.8664424312209 407.6884705062548,482.86644243121975" stroke="black" stroke-linecap="round" stroke-width="1" /><polyline clip-path="url(#border_clip)" fill="none" points="407.6884705062548,482.86644243121975 397.6884705062547,482.8664424312186 389.59830056250576,476.9885899082929 386.5081306187552,486.4991550712442 394.5983005625054,480.62130254832033 386.5081306187552,486.4991550712442 383.4179606750067,476.9885899082922 386.5081306187574,467.4780247453409 378.41796067500707,473.3558772682648 386.508130618756,479.2337297911905 389.59830056250445,488.74429495414256 399.5983005625046,488.7442949541437 389.59830056250445,488.74429495414256 386.50813061875385,498.25486011709387 396.50813061875397,498.254860117095 393.4179606750056,488.744294954143 401.5081306187545,494.6221474770687 398.41796067500604,485.11158231411673 395.32779073125545,494.62214747706804 385.3277907312553,494.62214747706685 395.32779073125545,494.62214747706804 403.41796067500434,500.49999999999375 400.32779073125374,510.01056516294506 403.4179606750022,519.521130325897 411.50813061875243,513.6432778029732 419.5983005625027,507.7654252800493 427.68847050625163,513.643277802975 424.5983005625032,504.13271264002304 416.5081306187543,498.25486011709734 406.50813061875414,498.25486011709614 403.41796067500354,507.76542528004745 406.5081306187519,517.2759904429995 409.5983005625026,507.7654252800482 417.6884705062528,501.8875727571243 409.5983005625026,507.7654252800482 417.68847050625146,513.6432778029739 425.7786404500017,507.76542528005007 428.8688103937501,517.2759904430021 436.95898033749904,523.1538429659279 445.04915028124793,529.0316954888536 453.1393202249982,523.1538429659297 461.22949016874713,529.0316954888555 469.319660112496,534.9095480117812" stroke="black" stroke-linecap="round" stroke-width="1" /><polyline clip-path="url(#border_clip)" fill="none" points="469.319660112496,534.9095480117812 472.4098300562466,525.39898284883 480.49999999999557,531.2768353717557 483.59016994374616,521.7662702088044 493.59016994374633,521.7662702088056 490.49999999999795,512.2557050458536 482.409830056249,506.3778525229278 490.4999999999993,500.5000000000039 493.5901699437477,510.01056516295597 490.4999999999993,500.5000000000039 500.49999999999943,500.5000000000051 510.4999999999996,500.5000000000063 520.4999999999998,500.50000000000745 528.5901699437486,506.37785252293327 531.6803398874993,496.86728735998196 523.590169943749,502.7451398829058 531.6803398874993,496.86728735998196 534.7705098312476,506.377852522934 531.680339887497,515.8884176858853 539.7705098312473,510.0105651629614 531.6803398874985,504.13271264003566 528.5901699437501,494.6221474770836 518.5901699437499,494.6221474770824 528.5901699437501,494.6221474770836 531.6803398875007,485.1115823141323 521.6803398875005,485.1115823141311 524.7705098312489,494.62214747708316 516.6803398875,488.74429495415734 519.7705098312484,498.2548601171094 522.8606797749991,488.7442949541581 532.8606797749992,488.74429495415933 522.8606797749991,488.7442949541581 514.7705098312501,482.8664424312323 517.8606797750009,473.355877268281 514.7705098312525,463.84531210532896 506.6803398875022,469.7231646282528 498.5901699437519,475.6010171511766 490.500000000003,469.72316462825086 493.5901699437514,479.2337297912029 501.6803398875002,485.11158231412867 511.6803398875004,485.1115823141299 514.770509831251,475.6010171511786 511.6803398875027,466.09045198822656" stroke="black" stroke-linecap="round" stroke-width="1" /><polyline clip-path="url(#border_clip)" fill="none" points="511.6803398875027,466.09045198822656 508.590169943752,475.60101715117787 500.5000000000017,481.4788696741017 508.590169943752,475.60101715117787 500.5000000000032,469.72316462825205 492.4098300562529,475.6010171511759 489.3196601125045,466.09045198822383 481.2294901687556,460.212599465298 473.1393202250067,454.3347469423722 465.0491502812564,460.212599465296 456.95898033750757,454.3347469423702 448.8688103937587,448.45689441944444 445.77864045000797,457.9674595823957 437.68847050625914,452.0896070594699 434.5983005625084,461.6001722224212 424.59830056250826,461.60017222242 427.68847050625664,471.11073738537203 435.7786404500055,476.98858990829785 427.68847050625516,482.8664424312217 424.59830056250684,473.3558772682696 427.68847050625516,482.8664424312217 417.68847050625504,482.86644243122043 407.68847050625493,482.8664424312192 397.68847050625476,482.86644243121793 389.59830056250587,476.9885899082921 386.5081306187552,486.4991550712434 394.59830056250553,480.6213025483196 386.5081306187552,486.4991550712434 383.41796067500684,476.9885899082914 386.5081306187576,467.47802474534006 378.41796067500724,473.3558772682639 386.5081306187561,479.2337297911897 389.59830056250445,488.74429495414176 399.5983005625046,488.744294954143 389.59830056250445,488.74429495414176 386.50813061875374,498.2548601170931 396.50813061875385,498.2548601170943 393.41796067500553,488.7442949541423 401.5081306187544,494.6221474770681 398.4179606750061,485.11158231411605 395.3277907312554,494.6221474770673 385.3277907312552,494.62214747706605 395.3277907312554,494.6221474770673" stroke="black" stroke-linecap="round" stroke-width="1" /><polyline clip-path="url(#border_clip)" fill="none" points="395.3277907312554,494.6221474770673 403.4179606750042,500.4999999999932 400.32779073125346,510.01056516294443 403.4179606750018,519.5211303258965 411.50813061875215,513.6432778029728 419.59830056250246,507.76542528004893 427.6884705062513,513.6432778029748 424.598300562503,504.1327126400227 416.50813061875414,498.2548601170969 406.50813061875397,498.2548601170956 403.41796067500326,507.7654252800469 406.5081306187516,517.2759904429989 409.5983005625023,507.7654252800477 417.68847050625266,501.88757275712385 409.5983005625023,507.7654252800477 417.6884705062512,513.6432778029736 425.7786404500015,507.7654252800497 428.8688103937498,517.2759904430018 436.95898033749864,523.1538429659277 445.0491502812475,529.0316954888535 453.13932022499785,523.1538429659298 461.2294901687467,529.0316954888557 469.3196601124955,534.9095480117815 472.4098300562463,525.3989828488302 480.4999999999951,531.2768353717561 483.5901699437459,521.7662702088048 493.59016994374605,521.7662702088061 490.4999999999977,512.255705045854 482.4098300562489,506.37785252292815 490.49999999999926,500.5000000000044 493.5901699437476,510.0105651629564 490.49999999999926,500.5000000000044 500.49999999999943,500.5000000000057 510.4999999999996,500.50000000000693 520.4999999999998,500.50000000000824 528.5901699437486,506.3778525229341 531.6803398874994,496.86728735998287 523.590169943749,502.74513988290664 531.6803398874994,496.86728735998287 534.7705098312476,506.3778525229349 531.6803398874969,515.8884176858862 539.7705098312472,510.01056516296245 531.6803398874983,504.1327126400366" stroke="black" stroke-linecap="round" stroke-width="1" /><polyline clip-path="url(#border_clip)" fill="none" points="531.6803398874983,504.1327126400366 528.5901699437501,494.62214747708447 518.59016994375,494.62214747708316 528.5901699437501,494.62214747708447 531.6803398875008,485.1115823141332 521.6803398875007,485.1115823141319 524.770509831249,494.62214747708396 516.6803398875002,488.7442949541581 519.7705098312484,498.2548601171102 522.8606797749992,488.74429495415893 532.8606797749994,488.74429495416024 522.8606797749992,488.74429495415893 514.7705098312504,482.866442431233 517.8606797750011,473.35587726828174 514.770509831253,463.84531210532964 506.68033988750256,469.72316462825336 498.59016994375213,475.60101715117713 490.50000000000335,469.7231646282512 493.59016994375156,479.2337297912033 501.6803398875004,485.11158231412924 511.68033988750057,485.11158231413054 514.7705098312514,475.6010171511793 511.6803398875031,466.0904519882272 508.5901699437523,475.60101715117844 500.50000000000193,481.4788696741022 508.5901699437523,475.60101715117844 500.50000000000347,469.72316462825256 492.4098300562531,475.6010171511763 489.31966011250483,466.0904519882242 481.22949016875606,460.21259946529824 473.1393202250072,454.33474694237236 465.0491502812568,460.2125994652961 456.958980337508,454.33474694237015 448.8688103937592,448.4568944194442 445.77864045000837,457.9674595823955 437.68847050625953,452.0896070594696 434.5983005625087,461.60017222242084 424.5983005625086,461.60017222241953 427.6884705062568,471.11073738537164 435.7786404500056,476.98858990829757 427.6884705062552,482.8664424312213 424.59830056250695,473.3558772682692 427.6884705062552,482.8664424312213" stroke="black" stroke-linecap="round" stroke-width="1" /><polyline clip-path="url(#border_clip)" fill="none" points="427.6884705062552,482.8664424312213 417.68847050625504,482.8664424312199 407.6884705062549,482.86644243121856 397.6884705062547,482.8664424312172 389.59830056250587,476.98858990829126 386.50813061875505,486.4991550712425 394.5983005625055,480.6213025483188 386.50813061875505,486.4991550712425 383.41796067500684,476.9885899082904 386.50813061875766,467.47802474533916 378.41796067500724,473.3558772682629 386.50813061875607,479.2337297911888 389.5983005625043,488.7442949541409 399.59830056250445,488.74429495414233 389.5983005625043,488.7442949541409 386.50813061875346,498.2548601170922 396.5081306187536,498.2548601170936 393.41796067500536,488.7442949541415 401.5081306187542,494.6221474770674 398.417960675006,485.11158231411525 395.32779073125516,494.62214747706656 385.327790731255,494.62214747706514 395.32779073125516,494.62214747706656 403.41796067500394,500.4999999999925 400.3277907312531,510.0105651629438 403.41796067500127,519.5211303258959 411.50813061875175,513.6432778029722 419.5983005625022,507.7654252800485 427.68847050625095,513.6432778029745 424.5983005625028,504.1327126400223 416.50813061875397,498.25486011709637 406.5081306187538,498.25486011709495 403.417960675003,507.76542528004626 406.5081306187511,517.2759904429984 409.598300562502,507.7654252800471 417.68847050625243,501.8875727571234 409.598300562502,507.7654252800471 417.6884705062508,513.6432778029731 425.77864045000126,507.7654252800494 428.8688103937494,517.2759904430015 436.95898033749825,523.1538429659274 445.049150281247,529.0316954888534 453.13932022499745,523.1538429659297" stroke="black" stroke-linecap="round" stroke-width="1" /><polyline clip-path="url(#border_clip)" fill="none" points="453.13932022499745,523.1538429659297 461.2294901687462,529.0316954888557 469.31966011249506,534.9095480117817 472.4098300562459,525.3989828488304 480.49999999999466,531.2768353717564 483.59016994374554,521.7662702088052 493.5901699437457,521.7662702088065 490.49999999999756,512.2557050458544 482.4098300562488,506.37785252292844 490.4999999999992,500.5000000000047 493.5901699437474,510.0105651629569 490.4999999999992,500.5000000000047 500.4999999999994,500.50000000000614 510.49999999999955,500.50000000000756 520.4999999999998,500.500000000009 528.5901699437485,506.377852522935 531.6803398874994,496.8672873599837 523.590169943749,502.7451398829074 531.6803398874994,496.8672873599837 534.7705098312476,506.3778525229358 531.6803398874968,515.8884176858871 539.7705098312472,510.0105651629634 531.6803398874983,504.1327126400374 528.5901699437502,494.62214747708526 518.59016994375,494.62214747708384 528.5901699437502,494.62214747708526 531.6803398875011,485.111582314134 521.680339887501,485.1115823141326 524.7705098312491,494.62214747708475 516.6803398875003,488.74429495415876 519.7705098312484,498.25486011711087 522.8606797749993,488.7442949541596 532.8606797749995,488.7442949541611 522.8606797749994,488.7442949541596 514.7705098312506,482.8664424312336 517.8606797750015,473.35587726828237 514.7705098312533,463.8453121053302 506.6803398875029,469.72316462825387 498.5901699437524,475.60101715117753 490.50000000000364,469.72316462825154 493.5901699437518,479.2337297912037 501.68033988750057,485.1115823141297 511.68033988750074,485.11158231413117" stroke="black" stroke-linecap="round" stroke-width="1" /><polyline clip-path="url(#border_clip)" fill="none" points="511.68033988750074,485.11158231413117 514.7705098312516,475.60101715117986 511.68033988750346,466.09045198822776 508.5901699437526,475.601017151179 500.5000000000021,481.47886967410267 508.5901699437526,475.601017151179 500.5000000000038,469.72316462825296 492.4098300562533,475.6010171511766 489.3196601125052,466.09045198822446 481.22949016875646,460.21259946529847 473.1393202250077,454.3347469423724 465.0491502812572,460.2125994652961 456.9589803375084,454.3347469423701 448.86881039375965,448.45689441944404 445.77864045000877,457.9674595823953 437.68847050626,452.0896070594693 434.59830056250905,461.60017222242055 424.5983005625089,461.6001722224191 427.688470506257,471.11073738537124 435.77864045000575,476.9885899082973 427.68847050625527,482.8664424312209 424.5983005625071,473.3558772682687 427.68847050625527,482.8664424312209 417.6884705062551,482.8664424312194 407.68847050625493,482.866442431218 397.6884705062547,482.8664424312165 389.598300562506,476.98858990829046 386.50813061875505,486.4991550712417 394.59830056250553,480.62130254831806 386.50813061875505,486.4991550712417 383.4179606750069,476.98858990828955 386.50813061875783,467.4780247453383 378.41796067500735,473.35587726826196 386.5081306187561,479.23372979118795 389.5983005625042,488.7442949541402 399.5983005625044,488.74429495414165 389.5983005625042,488.7442949541402 386.5081306187533,498.2548601170914 396.50813061875346,498.2548601170929 393.41796067500536,488.7442949541407 401.5081306187541,494.62214747706673 398.417960675006,485.11158231411457 395.32779073125505,494.6221474770658" stroke="black" stroke-linecap="round" stroke-width="1" /><polyline clip-path="url(#border_clip)" fill="none" points="395.32779073125505,494.6221474770658 385.3277907312548,494.62214747706435 395.32779073125505,494.6221474770658 403.41796067500377,500.49999999999187 400.3277907312528,510.0105651629431 403.4179606750009,519.5211303258953 411.5081306187514,513.6432778029717 419.59830056250195,507.7654252800481 427.68847050625067,513.6432778029741 424.5983005625026,504.13271264002196 416.50813061875385,498.25486011709586 406.5081306187536,498.2548601170944 403.4179606750027,507.76542528004563 406.5081306187508,517.2759904429978 409.5983005625018,507.76542528004654 417.68847050625226,501.88757275712294 409.5983005625017,507.76542528004654 417.6884705062505,513.6432778029726 425.778640450001,507.765425280049 428.8688103937491,517.2759904430012 436.95898033749785,523.1538429659273 445.04915028124657,529.0316954888533 453.1393202249971,523.1538429659297 461.2294901687458,529.0316954888558 469.3196601124946,534.9095480117819 472.40983005624554,525.3989828488307 480.4999999999943,531.2768353717566 483.59016994374525,521.7662702088054 493.5901699437455,521.766270208807 490.4999999999974,512.2557050458547 482.4098300562486,506.37785252292866 490.49999999999915,500.50000000000506 493.59016994374724,510.0105651629573 490.49999999999915,500.50000000000506 500.4999999999994,500.5000000000066 510.49999999999955,500.50000000000813 520.4999999999998,500.50000000000966 528.5901699437485,506.3778525229357 531.6803398874995,496.86728735998446 523.590169943749,502.74513988290806 531.6803398874995,496.86728735998446 534.7705098312475,506.3778525229367 531.6803398874965,515.8884176858879" stroke="black" stroke-linecap="round" stroke-width="1" /><polyline clip-path="url(#border_clip)" fill="none" points="531.6803398874965,515.8884176858879 539.7705098312471,510.0105651629643 531.6803398874983,504.1327126400382 528.5901699437503,494.622147477086 518.5901699437501,494.62214747708447 528.5901699437503,494.622147477086 531.6803398875013,485.11158231413475 521.6803398875011,485.1115823141332 524.7705098312491,494.62214747708543 516.6803398875004,488.74429495415933 519.7705098312485,498.25486011711155 522.8606797749995,488.7442949541603 532.8606797749997,488.74429495416183 522.8606797749995,488.7442949541603 514.7705098312508,482.8664424312342 517.8606797750018,473.35587726828294 514.7705098312538,463.8453121053307 506.6803398875032,469.7231646282543 498.59016994375264,475.6010171511779 490.5000000000039,469.7231646282518 493.59016994375196,479.23372979120404 501.6803398875007,485.11158231413015 511.6803398875009,485.1115823141317 514.770509831252,475.60101715118043 511.68033988750386,466.0904519882282 508.5901699437528,475.60101715117946 500.5000000000023,481.47886967410307 508.5901699437528,475.60101715117946 500.5000000000041,469.72316462825336 492.40983005625355,475.60101715117696 489.3196601125055,466.09045198822474 481.2294901687568,460.2125994652986 473.1393202250081,454.3347469423725 465.04915028125754,460.2125994652961 456.9589803375088,454.33474694237 448.8688103937601,448.4568944194438 445.77864045000905,457.96745958239507 437.68847050626033,452.08960705946896 434.5983005625093,461.60017222242016 424.59830056250905,461.6001722224186 427.6884705062571,471.11073738537084 435.7786404500058,476.98858990829694 427.68847050625527,482.86644243122055" stroke="black" stroke-linecap="round" stroke-width="1" /><polyline clip-path="url(#border_clip)" fill="none" points="427.68847050625527,482.86644243122055 424.59830056250723,473.35587726826833 427.68847050625527,482.86644243122055 417.68847050625504,482.86644243121896 407.6884705062548,482.86644243121737 397.6884705062546,482.8664424312158 389.59830056250587,476.98858990828967 386.5081306187549,486.4991550712409 394.5983005625054,480.6213025483173 386.5081306187549,486.4991550712409 383.41796067500684,476.98858990828865 386.5081306187579,467.47802474533745 378.4179606750073,473.355877268261 386.508130618756,479.23372979118716 389.59830056250405,488.7442949541394 399.5983005625042,488.74429495414097 389.59830056250405,488.7442949541394 386.50813061875294,498.25486011709063 396.50813061875317,498.2548601170922 393.41796067500513,488.74429495414 401.50813061875385,494.62214747706616 398.4179606750059,485.1115823141139 395.3277907312548,494.62214747706514 385.3277907312546,494.62214747706355 395.3277907312548,494.62214747706514 403.4179606750035,500.4999999999913 400.32779073125243,510.01056516294256 403.4179606750004,519.5211303258948 411.508130618751,513.6432778029713 419.5983005625016,507.7654252800477 427.6884705062503,513.6432778029739 424.59830056250235,504.1327126400216 416.5081306187536,498.25486011709546 406.5081306187534,498.2548601170938 403.41796067500235,507.76542528004506 406.50813061875033,517.2759904429973 409.59830056250144,507.7654252800461 417.68847050625203,501.88757275712254 409.59830056250144,507.7654252800461 417.68847050625016,513.6432778029722 425.77864045000075,507.7654252800487 428.86881039374873,517.275990443001 436.95898033749745,523.1538429659271" stroke="black" stroke-linecap="round" stroke-width="1" /><polyline clip-path="url(#border_clip)" fill="none" points="436.95898033749745,523.1538429659271 445.0491502812461,529.0316954888533 453.1393202249967,523.1538429659297 461.22949016874543,529.0316954888559 469.3196601124941,534.9095480117821 472.4098300562452,525.3989828488309 480.49999999999386,531.276835371757 483.59016994374497,521.7662702088058 493.5901699437452,521.7662702088074 490.4999999999972,512.2557050458552 482.40983005624855,506.377852522929 490.49999999999915,500.50000000000546 493.5901699437471,510.01056516295773 490.49999999999915,500.50000000000546 500.4999999999994,500.5000000000071 510.4999999999996,500.50000000000875 520.4999999999998,500.5000000000104 528.5901699437485,506.37785252293656 531.6803398874996,496.86728735998537 523.590169943749,502.74513988290886 531.6803398874996,496.86728735998537 534.7705098312475,506.3778525229376 531.6803398874964,515.8884176858888 539.7705098312471,510.0105651629653 531.6803398874983,504.13271264003913 528.5901699437504,494.62214747708686 518.5901699437502,494.6221474770852 528.5901699437504,494.62214747708686 531.6803398875015,485.1115823141356 521.6803398875013,485.11158231413395 524.7705098312493,494.62214747708623 516.6803398875006,488.74429495416 519.7705098312485,498.2548601171123 522.8606797749997,488.74429495416103 532.8606797749999,488.74429495416274 522.8606797749997,488.74429495416103 514.770509831251,482.8664424312348 517.8606797750022,473.3558772682836 514.7705098312542,463.84531210533135 506.6803398875036,469.72316462825484 498.5901699437529,475.6010171511784 490.50000000000426,469.72316462825216 493.59016994375224,479.2337297912044" stroke="black" stroke-linecap="round" stroke-width="1" /><polyline clip-path="url(#border_clip)" fill="none" points="493.59016994375224,479.2337297912044 501.6803398875009,485.1115823141306 511.68033988750113,485.1115823141323 514.7705098312523,475.60101715118105 511.6803398875043,466.0904519882288 508.59016994375315,475.60101715118003 500.5000000000025,481.4788696741035 508.59016994375315,475.60101715118003 500.5000000000045,469.7231646282538 492.40983005625384,475.6010171511773 489.3196601125059,466.090451988225 481.22949016875725,460.2125994652988 473.1393202250086,454.3347469423726 465.04915028125794,460.2125994652961 456.9589803375093,454.33474694236986 448.8688103937606,448.45689441944364 445.77864045000945,457.96745958239484 437.68847050626084,452.0896070594686 434.5983005625097,461.6001722224198 424.59830056250945,461.6001722224181 427.6884705062574,471.1107373853704 435.77864045000604,476.98858990829666 427.6884705062554,482.86644243122015 424.59830056250746,473.3558772682679 427.6884705062554,482.86644243122015 417.68847050625516,482.86644243121845 407.68847050625493,482.86644243121674 397.6884705062547,482.86644243121503 389.59830056250604,476.98858990828876 386.5081306187549,486.49915507124 394.59830056250553,480.6213025483165 386.5081306187549,486.49915507124 383.41796067500695,476.98858990828774 386.5081306187581,467.4780247453365 378.4179606750074,473.35587726826 386.50813061875607,479.23372979118625 389.598300562504,488.7442949541385 399.5983005625042,488.74429495414023 389.598300562504,488.7442949541385 386.50813061875283,498.2548601170897 396.50813061875306,498.2548601170915 393.41796067500513,488.74429495413915 401.5081306187538,494.6221474770654" stroke="black" stroke-linecap="round" stroke-width="1" /><polyline clip-path="url(#border_clip)" fill="none" points="401.5081306187538,494.6221474770654 398.4179606750059,485.11158231411315 395.3277907312547,494.62214747706435 385.3277907312545,494.62214747706264 395.3277907312547,494.62214747706435 403.4179606750033,500.4999999999906 400.32779073125215,510.0105651629419 403.417960675,519.5211303258941 411.5081306187507,513.6432778029707 419.5983005625014,507.7654252800472 427.68847050625004,513.6432778029734 424.5983005625021,504.13271264002117 416.5081306187535,498.2548601170949 406.5081306187533,498.2548601170932 403.41796067500206,507.7654252800444 406.50813061875,517.2759904429967 409.59830056250115,507.76542528004546 417.68847050625186,501.88757275712203 409.59830056250115,507.76542528004546 417.6884705062498,513.6432778029717 425.77864045000047,507.7654252800483 428.8688103937484,517.2759904430006 436.958980337497,523.1538429659269 445.0491502812456,529.0316954888532 453.1393202249963,523.1538429659297 461.229490168745,529.031695488856 469.3196601124936,534.9095480117822 472.4098300562448,525.398982848831 480.4999999999934,531.2768353717573 483.5901699437446,521.7662702088061 493.59016994374485,521.7662702088079 490.499999999997,512.2557050458556 482.4098300562483,506.3778525229293 490.49999999999903,500.50000000000585 493.5901699437469,510.01056516295813 490.49999999999903,500.50000000000585 500.49999999999926,500.5000000000076 510.4999999999995,500.5000000000094 520.4999999999998,500.50000000001114 528.5901699437484,506.3778525229374 531.6803398874996,496.8672873599862 523.5901699437488,502.74513988290965 531.6803398874996,496.8672873599862" stroke="black" stroke-linecap="round" stroke-width="1" /><polyline clip-path="url(#border_clip)" fill="none" points="531.6803398874996,496.8672873599862 534.7705098312474,506.3778525229385 531.6803398874962,515.8884176858897 539.770509831247,510.01056516296626 531.6803398874983,504.13271264004 528.5901699437504,494.62214747708765 518.5901699437502,494.6221474770859 528.5901699437504,494.6221474770877 531.6803398875016,485.11158231413646 521.6803398875014,485.1115823141347 524.7705098312493,494.622147477087 516.6803398875007,488.7442949541607 519.7705098312485,498.254860117113 522.8606797749998,488.7442949541618 532.860679775,488.7442949541636 522.8606797749998,488.7442949541618 514.7705098312512,482.8664424312355 517.8606797750024,473.35587726828425 514.7705098312546,463.84531210533197 506.68033988750386,469.7231646282554 498.59016994375315,475.6010171511788 490.50000000000455,469.72316462825245 493.59016994375236,479.2337297912048 501.68033988750096,485.1115823141311 511.68033988750125,485.1115823141329 514.7705098312525,475.6010171511817 511.68033988750466,466.09045198822935 508.5901699437534,475.6010171511806 500.5000000000027,481.478869674104 508.5901699437534,475.6010171511806 500.5000000000048,469.72316462825427 492.40983005625407,475.60101715117764 489.3196601125062,466.09045198822537 481.2294901687576,460.21259946529904 473.139320225009,454.3347469423727 465.0491502812582,460.2125994652961 456.9589803375096,454.33474694236975 448.868810393761,448.4568944194434 445.7786404500098,457.96745958239467 437.6884705062612,452.08960705946834 434.5983005625099,461.60017222241953 424.5983005625097,461.6001722224177 427.6884705062575,471.11073738537004" stroke="black" stroke-linecap="round" stroke-width="1" /><polyline clip-path="url(#border_clip)" fill="none" points="427.6884705062575,471.11073738537004 435.7786404500061,476.9885899082964 427.6884705062554,482.8664424312198 424.5983005625075,473.3558772682675 427.6884705062554,482.8664424312198 417.6884705062551,482.866442431218 407.6884705062549,482.86644243121617 397.68847050625465,482.86644243121435 389.59830056250604,476.988589908288 386.50813061875476,486.4991550712392 394.5983005625055,480.6213025483158 386.50813061875476,486.4991550712392 383.41796067500695,476.9885899082869 386.50813061875823,467.4780247453357 378.4179606750075,473.35587726825906 386.50813061875607,479.2337297911854 389.5983005625039,488.7442949541378 399.59830056250416,488.7442949541396 389.5983005625039,488.7442949541378 386.5081306187526,498.254860117089 396.50813061875283,498.2548601170908 393.417960675005,488.74429495413847 401.5081306187536,494.6221474770648 398.4179606750058,485.11158231411247 395.32779073125454,494.62214747706366 385.3277907312543,494.62214747706184 395.32779073125454,494.62214747706366 403.41796067500314,500.49999999999005 400.3277907312518,510.01056516294125 403.4179606749996,519.5211303258936 411.5081306187504,513.6432778029703 419.59830056250115,507.7654252800468 427.68847050624976,513.6432778029732 424.59830056250195,504.1327126400208 416.50813061875334,498.2548601170945 406.5081306187531,498.2548601170926 403.41796067500184,507.7654252800438 406.5081306187496,517.2759904429962 409.5983005625009,507.76542528004495 417.6884705062517,501.8875727571216 409.5983005625009,507.76542528004495 417.6884705062495,513.6432778029714 425.77864045000024,507.76542528004796" stroke="black" stroke-linecap="round" stroke-width="1" /><polyline clip-path="url(#border_clip)" fill="none" points="425.77864045000024,507.76542528004796 428.86881039374805,517.2759904430003 436.95898033749666,523.1538429659267 445.0491502812452,529.0316954888531 453.13932022499597,523.1538429659297 461.2294901687446,529.0316954888561 469.3196601124931,534.9095480117825 472.40983005624446,525.3989828488313 480.49999999999307,531.2768353717577 483.59016994374434,521.7662702088064 493.5901699437446,521.7662702088084 490.4999999999968,512.255705045856 482.40983005624827,506.3778525229296 490.49999999999903,500.50000000000625 493.5901699437468,510.0105651629586 490.49999999999903,500.50000000000625 500.49999999999926,500.50000000000813 510.49999999999955,500.50000000000995 520.4999999999998,500.5000000000118 528.5901699437484,506.37785252293827 531.6803398874997,496.8672873599871 523.590169943749,502.7451398829104 531.6803398874997,496.8672873599871 534.7705098312474,506.3778525229394 531.6803398874961,515.8884176858905 539.770509831247,510.0105651629672 531.6803398874983,504.13271264004084 528.5901699437505,494.6221474770885 518.5901699437503,494.62214747708657 528.5901699437505,494.6221474770885 531.6803398875019,485.1115823141373 521.6803398875016,485.1115823141354 524.7705098312495,494.62214747708776 516.6803398875008,488.7442949541614 519.7705098312485,498.2548601171137 522.860679775,488.7442949541625 532.8606797750002,488.7442949541644 522.860679775,488.7442949541625 514.7705098312514,482.8664424312361 517.8606797750027,473.3558772682849 514.770509831255,463.84531210533254 506.6803398875042,469.72316462825586 498.59016994375344,475.60101715117924" stroke="black" stroke-linecap="round" stroke-width="1" /><polyline clip-path="url(#border_clip)" fill="none" points="498.59016994375344,475.60101715117924 490.50000000000483,469.7231646282528 493.5901699437526,479.2337297912052 501.68033988750113,485.11158231413157 511.6803398875014,485.1115823141335 514.7705098312528,475.6010171511823 511.68033988750506,466.0904519882299 508.59016994375366,475.6010171511811 500.50000000000284,481.4788696741045 508.59016994375366,475.6010171511811 500.5000000000051,469.7231646282547 492.4098300562543,475.60101715117804 489.3196601125066,466.09045198822565 481.22949016875805,460.2125994652992 473.13932022500944,454.3347469423728 465.0491502812587,460.21259946529614 456.95898033751007,454.3347469423697 448.8688103937616,448.45689441944324 445.7786404500102,457.96745958239444 437.68847050626164,452.089607059468 434.5983005625102,461.6001722224192 424.59830056250996,461.60017222241726 427.68847050625766,471.11073738536965 435.77864045000626,476.9885899082961 427.6884705062554,482.8664424312194 424.5983005625077,473.355877268267 427.6884705062554,482.8664424312194 417.68847050625516,482.8664424312175 407.68847050625493,482.86644243121555 397.68847050625465,482.8664424312136 389.5983005625061,476.98858990828717 386.5081306187547,486.49915507123836 394.59830056250553,480.62130254831504 386.5081306187547,486.49915507123836 383.417960675007,476.988589908286 386.5081306187584,467.4780247453348 378.4179606750076,473.3558772682581 386.5081306187561,479.23372979118454 389.5983005625038,488.74429495413693 399.5983005625041,488.74429495413887 389.5983005625038,488.74429495413693 386.50813061875243,498.2548601170881 396.5081306187527,498.25486011709006" stroke="black" stroke-linecap="round" stroke-width="1" /><polyline clip-path="url(#border_clip)" fill="none" points="396.5081306187527,498.25486011709006 393.417960675005,488.7442949541377 401.50813061875357,494.6221474770641 398.4179606750059,485.11158231411173 395.3277907312544,494.6221474770629 385.32779073125414,494.622147477061 395.3277907312544,494.6221474770629 403.417960675003,500.4999999999894 400.3277907312515,510.01056516294057 403.4179606749992,519.521130325893 411.5081306187501,513.6432778029697 419.5983005625009,507.7654252800464 427.6884705062495,513.6432778029729 424.5983005625018,504.1327126400205 416.5081306187532,498.254860117094 406.50813061875294,498.254860117092 403.41796067500155,507.7654252800432 406.50813061874925,517.2759904429956 409.59830056250064,507.76542528004444 417.6884705062515,501.8875727571211 409.59830056250064,507.76542528004444 417.6884705062492,513.6432778029709 425.77864045,507.7654252800476 428.8688103937477,517.275990443 436.95898033749626,523.1538429659265 445.0491502812448,529.031695488853 453.13932022499563,523.1538429659297 461.2294901687442,529.0316954888561 469.3196601124927,534.9095480117827 472.4098300562441,525.3989828488315 480.49999999999267,531.276835371758 483.5901699437441,521.7662702088068 493.5901699437444,521.7662702088088 490.4999999999967,512.2557050458563 482.4098300562482,506.37785252292986 490.49999999999903,500.5000000000066 493.59016994374673,510.010565162959 490.49999999999903,500.5000000000066 500.4999999999993,500.5000000000086 510.4999999999996,500.5000000000106 520.4999999999999,500.50000000001256 528.5901699437484,506.37785252293907 531.6803398874998,496.86728735998787" stroke="black" stroke-linecap="round" stroke-width="1" /><polyline clip-path="url(#border_clip)" fill="none" points="531.6803398874998,496.86728735998787 523.590169943749,502.74513988291113 531.6803398874998,496.86728735998787 534.7705098312475,506.37785252294026 531.6803398874961,515.8884176858915 539.770509831247,510.0105651629682 531.6803398874983,504.1327126400417 528.5901699437508,494.62214747708924 518.5901699437504,494.62214747708725 528.5901699437508,494.62214747708924 531.6803398875022,485.1115823141381 521.6803398875019,485.11158231413606 524.7705098312496,494.6221474770885 516.6803398875011,488.744294954162 519.7705098312487,498.2548601171144 522.8606797750002,488.7442949541632 532.8606797750004,488.74429495416524 522.8606797750002,488.7442949541632 514.7705098312516,482.8664424312367 517.8606797750032,473.35587726828555 514.7705098312555,463.8453121053331 506.6803398875046,469.72316462825637 498.5901699437537,475.60101715117963 490.50000000000523,469.7231646282531 493.59016994375287,479.2337297912055 501.68033988750136,485.111582314132 511.68033988750165,485.11158231413407 514.7705098312531,475.6010171511829 511.6803398875055,466.0904519882305 508.590169943754,475.6010171511816 500.5000000000031,481.4788696741049 508.590169943754,475.6010171511816 500.5000000000055,469.7231646282551 492.40983005625463,475.6010171511784 489.319660112507,466.09045198822594 481.2294901687585,460.2125994652994 473.13932022501,454.3347469423729 465.04915028125913,460.2125994652961 456.95898033751064,454.3347469423696 448.86881039376215,448.456894419443 445.77864045001064,457.9674595823942 437.6884705062621,452.08960705946765 434.59830056251064,461.60017222241885" stroke="black" stroke-linecap="round" stroke-width="1" /><polyline clip-path="url(#border_clip)" fill="none" points="434.59830056251064,461.60017222241885 424.59830056251036,461.6001722224168 427.688470506258,471.1107373853692 435.7786404500065,476.98858990829575 427.68847050625556,482.866442431219 424.598300562508,473.35587726826657 427.68847050625556,482.866442431219 417.68847050625527,482.86644243121697 407.68847050625504,482.8664424312149 397.68847050625476,482.8664424312129 389.59830056250627,476.9885899082863 386.50813061875476,486.49915507123745 394.59830056250564,480.62130254831425 386.50813061875476,486.49915507123745 383.4179606750072,476.98858990828506 386.5081306187587,467.47802474533387 378.41796067500775,473.35587726825713 386.50813061875624,479.2337297911837 389.5983005625038,488.7442949541361 399.59830056250416,488.7442949541382 389.5983005625038,488.7442949541361 386.5081306187523,498.2548601170873 396.5081306187526,498.2548601170893 393.417960675005,488.7442949541369 401.5081306187535,494.62214747706344 398.41796067500593,485.111582314111 395.32779073125437,494.6221474770622 385.3277907312541,494.6221474770601 395.32779073125437,494.6221474770622 403.41796067500286,500.49999999998875 400.3277907312513,510.01056516293994 403.4179606749989,519.5211303258924 411.5081306187498,513.6432778029691 419.59830056250075,507.7654252800459 427.68847050624925,513.6432778029725 424.59830056250166,504.1327126400201 416.50813061875317,498.2548601170935 406.5081306187529,498.2548601170914 403.4179606750013,507.76542528004256 406.5081306187489,517.2759904429951 409.59830056250047,507.76542528004387 417.6884705062514,501.88757275712067 409.59830056250047,507.76542528004387" stroke="black" stroke-linecap="round" stroke-width="1" /><polyline clip-path="url(#border_clip)" fill="none" points="409.59830056250047,507.76542528004387 417.68847050624896,513.6432778029705 425.7786404499999,507.7654252800472 428.8688103937475,517.2759904429997 436.9589803374959,523.1538429659263 445.0491502812444,529.0316954888528 453.13932022499534,523.1538429659297 461.2294901687438,529.0316954888563 469.3196601124923,534.9095480117828 472.40983005624383,525.3989828488317 480.49999999999227,531.2768353717584 483.59016994374383,521.7662702088071 493.5901699437442,521.7662702088093 490.4999999999966,512.2557050458568 482.4098300562481,506.3778525229302 490.49999999999903,500.500000000007 493.5901699437466,510.01056516295944 490.49999999999903,500.500000000007 500.4999999999993,500.5000000000091 510.4999999999996,500.5000000000112 520.4999999999999,500.5000000000133 528.5901699437484,506.3778525229399 531.6803398874999,496.8672873599887 523.5901699437491,502.74513988291193 531.6803398874999,496.8672873599887 534.7705098312475,506.3778525229412 531.680339887496,515.8884176858924 539.7705098312468,510.01056516296916 531.6803398874985,504.13271264004254 528.5901699437509,494.6221474770901 518.5901699437505,494.622147477088 528.5901699437509,494.6221474770901 531.6803398875024,485.11158231413896 521.6803398875022,485.1115823141368 524.7705098312497,494.6221474770893 516.6803398875013,488.7442949541627 519.7705098312488,498.25486011711513 522.8606797750003,488.744294954164 532.8606797750007,488.7442949541661 522.8606797750003,488.744294954164 514.770509831252,482.8664424312374 517.8606797750035,473.3558772682862 514.770509831256,463.84531210533373" stroke="black" stroke-linecap="round" stroke-width="1" /><polyline clip-path="url(#border_clip)" fill="none" points="514.770509831256,463.84531210533373 506.68033988750506,469.7231646282569 498.59016994375406,475.6010171511801 490.5000000000056,469.7231646282534 493.59016994375315,479.2337297912059 501.6803398875016,485.11158231413253 511.6803398875019,485.1115823141347 514.7705098312534,475.60101715118356 511.68033988750597,466.09045198823105 508.59016994375435,475.6010171511822 500.5000000000034,481.4788696741054 508.59016994375435,475.6010171511822 500.5000000000059,469.7231646282556 492.4098300562549,475.6010171511787 489.31966011250745,466.0904519882263 481.229490168759,460.2125994652996 473.1393202250106,454.334746942373 465.0491502812596,460.21259946529614 456.95898033751115,454.33474694236946 448.8688103937627,448.45689441944285 445.7786404500111,457.967459582394 437.68847050626266,452.0896070594673 434.59830056251104,461.60017222241845 424.59830056251076,461.6001722224163 427.6884705062582,471.1107373853688 435.7786404500067,476.98858990829547 427.6884705062557,482.8664424312186 424.5983005625082,473.3558772682661 427.6884705062557,482.8664424312186 417.68847050625544,482.8664424312164 407.68847050625516,482.86644243121424 397.6884705062549,482.8664424312121 389.59830056250644,476.9885899082854 386.50813061875476,486.49915507123654 394.59830056250576,480.62130254831345 386.50813061875476,486.49915507123654 383.4179606750073,476.9885899082841 386.5081306187589,467.47802474533296 378.4179606750079,473.3558772682561 386.50813061875635,479.2337297911828 389.5983005625038,488.7442949541352 399.59830056250416,488.74429495413744 389.5983005625038,488.7442949541352" stroke="black" stroke-linecap="round" stroke-width="1" /><polyline clip-path="url(#border_clip)" fill="none" points="389.5983005625038,488.7442949541352 386.5081306187522,498.25486011708637 396.5081306187525,498.2548601170886 393.417960675005,488.7442949541361 401.5081306187534,494.62214747706275 398.41796067500593,485.11158231411025 395.3277907312543,494.6221474770614 385.327790731254,494.6221474770592 395.3277907312543,494.6221474770614 403.41796067500275,500.49999999998806 400.32779073125107,510.0105651629392 403.41796067499854,519.5211303258917 411.50813061874953,513.6432778029686 419.5983005625005,507.76542528004546 427.68847050624896,513.6432778029722 424.5983005625015,504.13271264001963 416.50813061875306,498.25486011709296 406.5081306187528,498.25486011709074 403.4179606750011,507.7654252800419 406.50813061874857,517.2759904429944 409.59830056250024,507.76542528004325 417.68847050625124,501.88757275712015 409.59830056250024,507.76542528004325 417.6884705062487,513.6432778029699 425.77864044999967,507.7654252800468 428.86881039374714,517.2759904429994 436.9589803374955,523.1538429659261 445.04915028124395,529.0316954888527 453.139320224995,523.1538429659296 461.2294901687434,529.0316954888564 469.3196601124918,534.909548011783 472.4098300562435,525.3989828488319 480.49999999999187,531.2768353717586 483.59016994374355,521.7662702088074 493.59016994374383,521.7662702088097 490.4999999999964,512.2557050458572 482.409830056248,506.3778525229305 490.49999999999903,500.5000000000074 493.59016994374645,510.0105651629599 490.49999999999903,500.5000000000074 500.4999999999993,500.5000000000096 510.4999999999996,500.5000000000118 520.4999999999999,500.50000000001404" stroke="black" stroke-linecap="round" stroke-width="1" /><polyline clip-path="url(#border_clip)" fill="none" points="520.4999999999999,500.50000000001404 528.5901699437484,506.37785252294077 531.6803398875,496.86728735998963 523.590169943749,502.7451398829127 531.6803398875,496.86728735998963 534.7705098312474,506.37785252294213 531.6803398874957,515.8884176858933 539.7705098312468,510.0105651629702 531.6803398874983,504.13271264004345 528.590169943751,494.62214747709095 518.5901699437507,494.6221474770887 528.590169943751,494.62214747709095 531.6803398875027,485.1115823141398 521.6803398875023,485.1115823141376 524.7705098312498,494.6221474770901 516.6803398875014,488.74429495416337 519.7705098312488,498.25486011711587 522.8606797750006,488.74429495416473 532.8606797750008,488.744294954167 522.8606797750006,488.74429495416473 514.7705098312522,482.866442431238 517.8606797750039,473.3558772682869 514.7705098312565,463.84531210533436 506.6803398875054,469.72316462825745 498.59016994375435,475.60101715118054 490.50000000000597,469.7231646282538 493.5901699437534,479.2337297912063 501.68033988750176,485.11158231413305 511.68033988750204,485.1115823141353 514.7705098312538,475.6010171511842 511.68033988750636,466.0904519882317 508.59016994375463,475.6010171511828 500.5000000000036,481.47886967410585 508.59016994375463,475.6010171511828 500.50000000000625,469.72316462825603 492.4098300562552,475.6010171511791 489.3196601125078,466.0904519882266 481.2294901687594,460.21259946529983 473.13932022501103,454.3347469423731 465.04915028126,460.21259946529614 456.9589803375116,454.3347469423694 448.8688103937632,448.4568944194426 445.7786404500115,457.96745958239376" stroke="black" stroke-linecap="round" stroke-width="1" /><polyline clip-path="url(#border_clip)" fill="none" points="445.7786404500115,457.96745958239376 437.6884705062631,452.089607059467 434.5983005625114,461.6001722224181 424.5983005625111,461.60017222241584 427.68847050625845,471.1107373853684 435.77864045000683,476.9885899082951 427.6884705062558,482.8664424312182 424.59830056250837,473.35587726826566 427.6884705062558,482.8664424312182 417.6884705062555,482.8664424312159 407.68847050625516,482.8664424312136 397.6884705062549,482.86644243121134 389.59830056250655,476.98858990828455 386.50813061875476,486.4991550712357 394.59830056250587,480.6213025483126 386.50813061875476,486.4991550712357 383.4179606750074,476.98858990828313 386.50813061875914,467.47802474533205 378.4179606750081,473.3558772682551 386.5081306187564,479.2337297911819 389.5983005625038,488.7442949541344 399.5983005625041,488.7442949541367 389.5983005625038,488.7442949541344 386.50813061875203,498.2548601170855 396.5081306187524,498.2548601170878 393.41796067500496,488.7442949541353 401.50813061875334,494.6221474770621 398.417960675006,485.1115823141095 395.3277907312542,494.6221474770606 385.3277907312539,494.6221474770583 395.3277907312542,494.6221474770606 403.4179606750025,500.4999999999874 400.3277907312508,510.0105651629385 403.41796067499814,519.521130325891 411.5081306187492,513.643277802968 419.5983005625003,507.765425280045 427.6884705062487,513.6432778029719 424.5983005625013,504.13271264001924 416.50813061875294,498.25486011709245 406.50813061875266,498.2548601170901 403.41796067500087,507.76542528004126 406.5081306187482,517.2759904429938 409.5983005625,507.7654252800427" stroke="black" stroke-linecap="round" stroke-width="1" /><polyline clip-path="url(#border_clip)" fill="none" points="409.5983005625,507.7654252800427 417.68847050625106,501.88757275711964 409.5983005625,507.7654252800427 417.68847050624834,513.6432778029695 425.77864044999944,507.76542528004643 428.8688103937468,517.275990442999 436.9589803374951,523.1538429659258 445.0491502812435,529.0316954888526 453.1393202249946,523.1538429659296 461.2294901687429,529.0316954888564 469.3196601124913,534.9095480117833 472.4098300562431,525.3989828488321 480.4999999999914,531.2768353717589 483.59016994374326,521.7662702088078 493.59016994374355,521.7662702088102 490.4999999999962,512.2557050458577 482.40983005624787,506.3778525229308 490.499999999999,500.5000000000078 493.59016994374633,510.01056516296035 490.499999999999,500.5000000000078 500.49999999999926,500.5000000000102" stroke="black" stroke-linecap="round" stroke-width="1" /></svg>