<?xml version="1.0" encoding="UTF-8"?>
<svg width="1e4px" height="1e4px" baseProfile="full" version="1.1" viewBox="4888.4 4948.5 161.35 86.453" xmlns="http://www.w3.org/2000/svg">
<defs>
<clipPath id="a">
<rect width="1e4" height="1e4"/>
</clipPath>
</defs>
<polyline points="5000.5 5000.5 5010.5 5000.5 5020.5 5000.5 5030.5 5000.5 5038.6 5006.4 5041.7 4996.9 5033.6 5002.7 5041.7 4996.9 5044.8 5006.4 5041.7 5015.9 5049.8 5010 5041.7 5004.1 5038.6 4994.6 5028.6 4994.6 5038.6 4994.6 5041.7 4985.1 5031.7 4985.1 5034.8 4994.6 5026.7 4988.7 5029.8 4998.3 5032.9 4988.7 5042.9 4988.7 5032.9 4988.7 5024.8 4982.9 5027.9 4973.4 5024.8 4963.8 5016.7 4969.7 5008.6 4975.6 5000.5 4969.7 5003.6 4979.2 5011.7 4985.1 5021.7 4985.1 5024.8 4975.6 5021.7 4966.1 5018.6 4975.6 5010.5 4981.5 5018.6 4975.6 5010.5 4969.7 5002.4 4975.6 4999.3 4966.1 4991.2 4960.2 4983.1 4954.3 4975 4960.2" clip-path="url(#a)" fill="none" stroke="#000" stroke-linecap="round"/>
<polyline points="4975 4960.2 4967 4954.3 4958.9 4948.5 4955.8 4958 4947.7 4952.1 4944.6 4961.6 4934.6 4961.6 4937.7 4971.1 4945.8 4977 4937.7 4982.9 4934.6 4973.4 4937.7 4982.9 4927.7 4982.9 4917.7 4982.9 4907.7 4982.9 4899.6 4977 4896.5 4986.5 4904.6 4980.6 4896.5 4986.5 4893.4 4977 4896.5 4967.5 4888.4 4973.4 4896.5 4979.2 4899.6 4988.7 4909.6 4988.7 4899.6 4988.7 4896.5 4998.3 4906.5 4998.3 4903.4 4988.7 4911.5 4994.6 4908.4 4985.1 4905.3 4994.6 4895.3 4994.6 4905.3 4994.6 4913.4 5000.5 4910.3 5010 4913.4 5019.5 4921.5 5013.6 4929.6 5007.8 4937.7 5013.6 4934.6 5004.1 4926.5 4998.3 4916.5 4998.3" clip-path="url(#a)" fill="none" stroke="#000" stroke-linecap="round"/>
<polyline points="4916.5 4998.3 4913.4 5007.8 4916.5 5017.3 4919.6 5007.8 4927.7 5001.9 4919.6 5007.8 4927.7 5013.6 4935.8 5007.8 4938.9 5017.3 4947 5023.2 4955 5029 4963.1 5023.2 4971.2 5029 4979.3 5034.9 4982.4 5025.4 4990.5 5031.3 4993.6 5021.8 5003.6 5021.8 5000.5 5012.3 4992.4 5006.4 5000.5 5000.5 5003.6 5010 5000.5 5000.5 5010.5 5000.5 5020.5 5000.5 5030.5 5000.5 5038.6 5006.4 5041.7 4996.9 5033.6 5002.7 5041.7 4996.9 5044.8 5006.4 5041.7 5015.9 5049.8 5010 5041.7 5004.1 5038.6 4994.6 5028.6 4994.6 5038.6 4994.6 5041.7 4985.1 5031.7 4985.1 5034.8 4994.6 5026.7 4988.7 5029.8 4998.3 5032.9 4988.7" clip-path="url(#a)" fill="none" stroke="#000" stroke-linecap="round"/>
<polyline points="5032.9 4988.7 5042.9 4988.7 5032.9 4988.7 5024.8 4982.9 5027.9 4973.4 5024.8 4963.8 5016.7 4969.7 5008.6 4975.6 5000.5 4969.7 5003.6 4979.2 5011.7 4985.1 5021.7 4985.1 5024.8 4975.6 5021.7 4966.1 5018.6 4975.6 5010.5 4981.5 5018.6 4975.6 5010.5 4969.7 5002.4 4975.6 4999.3 4966.1 4991.2 4960.2 4983.1 4954.3 4975 4960.2 4967 4954.3 4958.9 4948.5 4955.8 4958 4947.7 4952.1 4944.6 4961.6 4934.6 4961.6 4937.7 4971.1 4945.8 4977 4937.7 4982.9 4934.6 4973.4 4937.7 4982.9 4927.7 4982.9 4917.7 4982.9 4907.7 4982.9 4899.6 4977 4896.5 4986.5 4904.6 4980.6 4896.5 4986.5 4893.4 4977 4896.5 4967.5" clip-path="url(#a)" fill="none" stroke="#000" stroke-linecap="round"/>
<polyline points="4896.5 4967.5 4888.4 4973.4 4896.5 4979.2 4899.6 4988.7 4909.6 4988.7 4899.6 4988.7 4896.5 4998.3 4906.5 4998.3 4903.4 4988.7 4911.5 4994.6 4908.4 4985.1 4905.3 4994.6 4895.3 4994.6 4905.3 4994.6 4913.4 5000.5 4910.3 5010 4913.4 5019.5 4921.5 5013.6 4929.6 5007.8 4937.7 5013.6 4934.6 5004.1 4926.5 4998.3 4916.5 4998.3 4913.4 5007.8 4916.5 5017.3 4919.6 5007.8 4927.7 5001.9 4919.6 5007.8 4927.7 5013.6 4935.8 5007.8 4938.9 5017.3 4947 5023.2 4955 5029 4963.1 5023.2 4971.2 5029 4979.3 5034.9 4982.4 5025.4 4990.5 5031.3 4993.6 5021.8 5003.6 5021.8 5000.5 5012.3 4992.4 5006.4 5000.5 5000.5" clip-path="url(#a)" fill="none" stroke="#000" stroke-linecap="round"/>
<polyline points="5000.5 5000.5 5003.6 5010 5000.5 5000.5 5010.5 5000.5 5020.5 5000.5 5030.5 5000.5 5038.6 5006.4 5041.7 4996.9 5033.6 5002.7 5041.7 4996.9 5044.8 5006.4 5041.7 5015.9 5049.8 5010 5041.7 5004.1 5038.6 4994.6 5028.6 4994.6 5038.6 4994.6 5041.7 4985.1 5031.7 4985.1 5034.8 4994.6 5026.7 4988.7 5029.8 4998.3 5032.9 4988.7 5042.9 4988.7 5032.9 4988.7 5024.8 4982.9 5027.9 4973.4 5024.8 4963.8 5016.7 4969.7 5008.6 4975.6 5000.5 4969.7 5003.6 4979.2 5011.7 4985.1 5021.7 4985.1 5024.8 4975.6 5021.7 4966.1 5018.6 4975.6 5010.5 4981.5 5018.6 4975.6 5010.5 4969.7 5002.4 4975.6 4999.3 4966.1 4991.2 4960.2" clip-path="url(#a)" fill="none" stroke="#000" stroke-linecap="round"/>
<polyline points="4991.2 4960.2 4983.1 4954.3 4975 4960.2 4967 4954.3 4958.9 4948.5 4955.8 4958 4947.7 4952.1 4944.6 4961.6 4934.6 4961.6 4937.7 4971.1 4945.8 4977 4937.7 4982.9 4934.6 4973.4 4937.7 4982.9 4927.7 4982.9 4917.7 4982.9 4907.7 4982.9 4899.6 4977 4896.5 4986.5 4904.6 4980.6 4896.5 4986.5 4893.4 4977 4896.5 4967.5 4888.4 4973.4 4896.5 4979.2 4899.6 4988.7 4909.6 4988.7 4899.6 4988.7 4896.5 4998.3 4906.5 4998.3 4903.4 4988.7 4911.5 4994.6 4908.4 4985.1 4905.3 4994.6 4895.3 4994.6 4905.3 4994.6 4913.4 5000.5 4910.3 5010 4913.4 5019.5 4921.5 5013.6 4929.6 5007.8 4937.7 5013.6 4934.6 5004.1" clip-path="url(#a)" fill="none" stroke="#000" stroke-linecap="round"/>
<polyline points="4934.6 5004.1 4926.5 4998.3 4916.5 4998.3 4913.4 5007.8 4916.5 5017.3 4919.6 5007.8 4927.7 5001.9 4919.6 5007.8 4927.7 5013.6 4935.8 5007.8 4938.9 5017.3 4947 5023.2 4955 5029 4963.1 5023.2 4971.2 5029 4979.3 5034.9 4982.4 5025.4 4990.5 5031.3 4993.6 5021.8 5003.6 5021.8 5000.5 5012.3 4992.4 5006.4 5000.5 5000.5 5003.6 5010 5000.5 5000.5 5010.5 5000.5 5020.5 5000.5 5030.5 5000.5 5038.6 5006.4 5041.7 4996.9 5033.6 5002.7 5041.7 4996.9 5044.8 5006.4 5041.7 5015.9 5049.8 5010 5041.7 5004.1 5038.6 4994.6 5028.6 4994.6 5038.6 4994.6 5041.7 4985.1 5031.7 4985.1 5034.8 4994.6 5026.7 4988.7" clip-path="url(#a)" fill="none" stroke="#000" stroke-linecap="round"/>
<polyline points="5026.7 4988.7 5029.8 4998.3 5032.9 4988.7 5042.9 4988.7 5032.9 4988.7 5024.8 4982.9 5027.9 4973.4 5024.8 4963.8 5016.7 4969.7 5008.6 4975.6 5000.5 4969.7 5003.6 4979.2 5011.7 4985.1 5021.7 4985.1 5024.8 4975.6 5021.7 4966.1 5018.6 4975.6 5010.5 4981.5 5018.6 4975.6 5010.5 4969.7 5002.4 4975.6 4999.3 4966.1 4991.2 4960.2 4983.1 4954.3 4975 4960.2 4967 4954.3 4958.9 4948.5 4955.8 4958 4947.7 4952.1 4944.6 4961.6 4934.6 4961.6 4937.7 4971.1 4945.8 4977 4937.7 4982.9 4934.6 4973.4 4937.7 4982.9 4927.7 4982.9 4917.7 4982.9 4907.7 4982.9 4899.6 4977 4896.5 4986.5 4904.6 4980.6 4896.5 4986.5" clip-path="url(#a)" fill="none" stroke="#000" stroke-linecap="round"/>
<polyline points="4896.5 4986.5 4893.4 4977 4896.5 4967.5 4888.4 4973.4 4896.5 4979.2 4899.6 4988.7 4909.6 4988.7 4899.6 4988.7 4896.5 4998.3 4906.5 4998.3 4903.4 4988.7 4911.5 4994.6 4908.4 4985.1 4905.3 4994.6 4895.3 4994.6 4905.3 4994.6 4913.4 5000.5 4910.3 5010 4913.4 5019.5 4921.5 5013.6 4929.6 5007.8 4937.7 5013.6 4934.6 5004.1 4926.5 4998.3 4916.5 4998.3 4913.4 5007.8 4916.5 5017.3 4919.6 5007.8 4927.7 5001.9 4919.6 5007.8 4927.7 5013.6 4935.8 5007.8 4938.9 5017.3 4947 5023.2 4955 5029 4963.1 5023.2 4971.2 5029 4979.3 5034.9 4982.4 5025.4 4990.5 5031.3 4993.6 5021.8 5003.6 5021.8 5000.5 5012.3" clip-path="url(#a)" fill="none" stroke="#000" stroke-linecap="round"/>
<polyline points="5000.5 5012.3 4992.4 5006.4 5000.5 5000.5 5003.6 5010 5000.5 5000.5 5010.5 5000.5 5020.5 5000.5 5030.5 5000.5 5038.6 5006.4 5041.7 4996.9 5033.6 5002.7 5041.7 4996.9 5044.8 5006.4 5041.7 5015.9 5049.8 5010 5041.7 5004.1 5038.6 4994.6 5028.6 4994.6 5038.6 4994.6 5041.7 4985.1 5031.7 4985.1 5034.8 4994.6 5026.7 4988.7 5029.8 4998.3 5032.9 4988.7 5042.9 4988.7 5032.9 4988.7 5024.8 4982.9 5027.9 4973.4 5024.8 4963.8 5016.7 4969.7 5008.6 4975.6 5000.5 4969.7 5003.6 4979.2 5011.7 4985.1 5021.7 4985.1 5024.8 4975.6 5021.7 4966.1 5018.6 4975.6 5010.5 4981.5 5018.6 4975.6 5010.5 4969.7 5002.4 4975.6" clip-path="url(#a)" fill="none" stroke="#000" stroke-linecap="round"/>
<polyline points="5002.4 4975.6 4999.3 4966.1 4991.2 4960.2 4983.1 4954.3 4975 4960.2 4967 4954.3 4958.9 4948.5 4955.8 4958 4947.7 4952.1 4944.6 4961.6 4934.6 4961.6 4937.7 4971.1 4945.8 4977 4937.7 4982.9 4934.6 4973.4 4937.7 4982.9 4927.7 4982.9 4917.7 4982.9 4907.7 4982.9 4899.6 4977 4896.5 4986.5 4904.6 4980.6 4896.5 4986.5 4893.4 4977 4896.5 4967.5 4888.4 4973.4 4896.5 4979.2 4899.6 4988.7 4909.6 4988.7 4899.6 4988.7 4896.5 4998.3 4906.5 4998.3 4903.4 4988.7 4911.5 4994.6 4908.4 4985.1 4905.3 4994.6 4895.3 4994.6 4905.3 4994.6 4913.4 5000.5 4910.3 5010 4913.4 5019.5 4921.5 5013.6 4929.6 5007.8" clip-path="url(#a)" fill="none" stroke="#000" stroke-linecap="round"/>
<polyline points="4929.6 5007.8 4937.7 5013.6 4934.6 5004.1 4926.5 4998.3 4916.5 4998.3 4913.4 5007.8 4916.5 5017.3 4919.6 5007.8 4927.7 5001.9 4919.6 5007.8 4927.7 5013.6 4935.8 5007.8 4938.9 5017.3 4947 5023.2 4955 5029 4963.1 5023.2 4971.2 5029 4979.3 5034.9 4982.4 5025.4 4990.5 5031.3 4993.6 5021.8 5003.6 5021.8 5000.5 5012.3 4992.4 5006.4 5000.5 5000.5 5003.6 5010 5000.5 5000.5 5010.5 5000.5 5020.5 5000.5 5030.5 5000.5 5038.6 5006.4 5041.7 4996.9 5033.6 5002.7 5041.7 4996.9 5044.8 5006.4 5041.7 5015.9 5049.8 5010 5041.7 5004.1 5038.6 4994.6 5028.6 4994.6 5038.6 4994.6 5041.7 4985.1 5031.7 4985.1" clip-path="url(#a)" fill="none" stroke="#000" stroke-linecap="round"/>
<polyline points="5031.7 4985.1 5034.8 4994.6 5026.7 4988.7 5029.8 4998.3 5032.9 4988.7 5042.9 4988.7 5032.9 4988.7 5024.8 4982.9 5027.9 4973.4 5024.8 4963.8 5016.7 4969.7 5008.6 4975.6 5000.5 4969.7 5003.6 4979.2 5011.7 4985.1 5021.7 4985.1 5024.8 4975.6 5021.7 4966.1 5018.6 4975.6 5010.5 4981.5 5018.6 4975.6 5010.5 4969.7 5002.4 4975.6 4999.3 4966.1 4991.2 4960.2 4983.1 4954.3 4975 4960.2 4967 4954.3 4958.9 4948.5 4955.8 4958 4947.7 4952.1 4944.6 4961.6 4934.6 4961.6 4937.7 4971.1 4945.8 4977 4937.7 4982.9 4934.6 4973.4 4937.7 4982.9 4927.7 4982.9 4917.7 4982.9 4907.7 4982.9 4899.6 4977 4896.5 4986.5" clip-path="url(#a)" fill="none" stroke="#000" stroke-linecap="round"/>
<polyline points="4896.5 4986.5 4904.6 4980.6 4896.5 4986.5 4893.4 4977 4896.5 4967.5 4888.4 4973.4 4896.5 4979.2 4899.6 4988.7 4909.6 4988.7 4899.6 4988.7 4896.5 4998.3 4906.5 4998.3 4903.4 4988.7 4911.5 4994.6 4908.4 4985.1 4905.3 4994.6 4895.3 4994.6 4905.3 4994.6 4913.4 5000.5 4910.3 5010 4913.4 5019.5 4921.5 5013.6 4929.6 5007.8 4937.7 5013.6 4934.6 5004.1 4926.5 4998.3 4916.5 4998.3 4913.4 5007.8 4916.5 5017.3 4919.6 5007.8 4927.7 5001.9 4919.6 5007.8 4927.7 5013.6 4935.8 5007.8 4938.9 5017.3 4947 5023.2 4955 5029 4963.1 5023.2 4971.2 5029 4979.3 5034.9 4982.4 5025.4 4990.5 5031.3 4993.6 5021.8" clip-path="url(#a)" fill="none" stroke="#000" stroke-linecap="round"/>
<polyline points="4993.6 5021.8 5003.6 5021.8 5000.5 5012.3 4992.4 5006.4 5000.5 5000.5 5003.6 5010 5000.5 5000.5 5010.5 5000.5 5020.5 5000.5 5030.5 5000.5 5038.6 5006.4 5041.7 4996.9 5033.6 5002.7 5041.7 4996.9 5044.8 5006.4 5041.7 5015.9 5049.8 5010 5041.7 5004.1 5038.6 4994.6 5028.6 4994.6 5038.6 4994.6 5041.7 4985.1 5031.7 4985.1 5034.8 4994.6 5026.7 4988.7 5029.8 4998.3 5032.9 4988.7 5042.9 4988.7 5032.9 4988.7 5024.8 4982.9 5027.9 4973.4 5024.8 4963.8 5016.7 4969.7 5008.6 4975.6 5000.5 4969.7 5003.6 4979.2 5011.7 4985.1 5021.7 4985.1 5024.8 4975.6 5021.7 4966.1 5018.6 4975.6 5010.5 4981.5 5018.6 4975.6" clip-path="url(#a)" fill="none" stroke="#000" stroke-linecap="round"/>
<polyline points="5018.6 4975.6 5010.5 4969.7 5002.4 4975.6 4999.3 4966.1 4991.2 4960.2 4983.1 4954.3 4975 4960.2 4967 4954.3 4958.9 4948.5 4955.8 4958 4947.7 4952.1 4944.6 4961.6 4934.6 4961.6 4937.7 4971.1 4945.8 4977 4937.7 4982.9 4934.6 4973.4 4937.7 4982.9 4927.7 4982.9 4917.7 4982.9 4907.7 4982.9 4899.6 4977 4896.5 4986.5 4904.6 4980.6 4896.5 4986.5 4893.4 4977 4896.5 4967.5 4888.4 4973.4 4896.5 4979.2 4899.6 4988.7 4909.6 4988.7 4899.6 4988.7 4896.5 4998.3 4906.5 4998.3 4903.4 4988.7 4911.5 4994.6 4908.4 4985.1 4905.3 4994.6 4895.3 4994.6 4905.3 4994.6 4913.4 5000.5 4910.3 5010 4913.4 5019.5" clip-path="url(#a)" fill="none" stroke="#000" stroke-linecap="round"/>
<polyline points="4913.4 5019.5 4921.5 5013.6 4929.6 5007.8 4937.7 5013.6 4934.6 5004.1 4926.5 4998.3 4916.5 4998.3 4913.4 5007.8 4916.5 5017.3 4919.6 5007.8 4927.7 5001.9 4919.6 5007.8 4927.7 5013.6 4935.8 5007.8 4938.9 5017.3 4947 5023.2 4955 5029 4963.1 5023.2 4971.2 5029 4979.3 5034.9 4982.4 5025.4 4990.5 5031.3 4993.6 5021.8 5003.6 5021.8 5000.5 5012.3 4992.4 5006.4 5000.5 5000.5 5003.6 5010 5000.5 5000.5 5010.5 5000.5 5020.5 5000.5 5030.5 5000.5 5038.6 5006.4 5041.7 4996.9 5033.6 5002.7 5041.7 4996.9 5044.8 5006.4 5041.7 5015.9 5049.8 5010 5041.7 5004.1 5038.6 4994.6 5028.6 4994.6 5038.6 4994.6" clip-path="url(#a)" fill="none" stroke="#000" stroke-linecap="round"/>
<polyline points="5038.6 4994.6 5041.7 4985.1 5031.7 4985.1 5034.8 4994.6 5026.7 4988.7 5029.8 4998.3 5032.9 4988.7 5042.9 4988.7 5032.9 4988.7 5024.8 4982.9 5027.9 4973.4 5024.8 4963.8 5016.7 4969.7 5008.6 4975.6 5000.5 4969.7 5003.6 4979.2 5011.7 4985.1 5021.7 4985.1 5024.8 4975.6 5021.7 4966.1 5018.6 4975.6 5010.5 4981.5 5018.6 4975.6 5010.5 4969.7 5002.4 4975.6 4999.3 4966.1 4991.2 4960.2 4983.1 4954.3 4975 4960.2 4967 4954.3 4958.9 4948.5 4955.8 4958 4947.7 4952.1 4944.6 4961.6 4934.6 4961.6 4937.7 4971.1 4945.8 4977 4937.7 4982.9 4934.6 4973.4 4937.7 4982.9 4927.7 4982.9 4917.7 4982.9 4907.7 4982.9" clip-path="url(#a)" fill="none" stroke="#000" stroke-linecap="round"/>
<polyline points="4907.7 4982.9 4899.6 4977 4896.5 4986.5 4904.6 4980.6 4896.5 4986.5 4893.4 4977 4896.5 4967.5 4888.4 4973.4 4896.5 4979.2 4899.6 4988.7 4909.6 4988.7 4899.6 4988.7 4896.5 4998.3 4906.5 4998.3 4903.4 4988.7 4911.5 4994.6 4908.4 4985.1 4905.3 4994.6 4895.3 4994.6 4905.3 4994.6 4913.4 5000.5 4910.3 5010 4913.4 5019.5 4921.5 5013.6 4929.6 5007.8 4937.7 5013.6 4934.6 5004.1 4926.5 4998.3 4916.5 4998.3 4913.4 5007.8 4916.5 5017.3 4919.6 5007.8 4927.7 5001.9 4919.6 5007.8 4927.7 5013.6 4935.8 5007.8 4938.9 5017.3 4947 5023.2 4955 5029 4963.1 5023.2 4971.2 5029 4979.3 5034.9 4982.4 5025.4" clip-path="url(#a)" fill="none" stroke="#000" stroke-linecap="round"/>
<polyline points="4982.4 5025.4 4990.5 5031.3 4993.6 5021.8 5003.6 5021.8 5000.5 5012.3 4992.4 5006.4 5000.5 5000.5 5003.6 5010 5000.5 5000.5 5010.5 5000.5 5020.5 5000.5 5030.5 5000.5 5038.6 5006.4 5041.7 4996.9 5033.6 5002.7 5041.7 4996.9 5044.8 5006.4 5041.7 5015.9 5049.8 5010 5041.7 5004.1 5038.6 4994.6 5028.6 4994.6 5038.6 4994.6 5041.7 4985.1 5031.7 4985.1 5034.8 4994.6 5026.7 4988.7 5029.8 4998.3 5032.9 4988.7 5042.9 4988.7 5032.9 4988.7 5024.8 4982.9 5027.9 4973.4 5024.8 4963.8 5016.7 4969.7 5008.6 4975.6 5000.5 4969.7 5003.6 4979.2 5011.7 4985.1 5021.7 4985.1 5024.8 4975.6 5021.7 4966.1 5018.6 4975.6" clip-path="url(#a)" fill="none" stroke="#000" stroke-linecap="round"/>
<polyline points="5018.6 4975.6 5010.5 4981.5 5018.6 4975.6 5010.5 4969.7 5002.4 4975.6 4999.3 4966.1 4991.2 4960.2 4983.1 4954.3 4975 4960.2 4967 4954.3 4958.9 4948.5 4955.8 4958 4947.7 4952.1 4944.6 4961.6 4934.6 4961.6 4937.7 4971.1 4945.8 4977 4937.7 4982.9 4934.6 4973.4 4937.7 4982.9 4927.7 4982.9 4917.7 4982.9 4907.7 4982.9 4899.6 4977 4896.5 4986.5 4904.6 4980.6 4896.5 4986.5 4893.4 4977 4896.5 4967.5 4888.4 4973.4 4896.5 4979.2 4899.6 4988.7 4909.6 4988.7 4899.6 4988.7 4896.5 4998.3 4906.5 4998.3 4903.4 4988.7 4911.5 4994.6 4908.4 4985.1 4905.3 4994.6 4895.3 4994.6 4905.3 4994.6 4913.4 5000.5" clip-path="url(#a)" fill="none" stroke="#000" stroke-linecap="round"/>
<polyline points="4913.4 5000.5 4910.3 5010 4913.4 5019.5 4921.5 5013.6 4929.6 5007.8 4937.7 5013.6 4934.6 5004.1 4926.5 4998.3 4916.5 4998.3 4913.4 5007.8 4916.5 5017.3 4919.6 5007.8 4927.7 5001.9 4919.6 5007.8 4927.7 5013.6 4935.8 5007.8 4938.9 5017.3 4947 5023.2 4955 5029 4963.1 5023.2 4971.2 5029 4979.3 5034.9 4982.4 5025.4 4990.5 5031.3 4993.6 5021.8 5003.6 5021.8 5000.5 5012.3 4992.4 5006.4 5000.5 5000.5 5003.6 5010 5000.5 5000.5 5010.5 5000.5 5020.5 5000.5 5030.5 5000.5 5038.6 5006.4 5041.7 4996.9 5033.6 5002.7 5041.7 4996.9 5044.8 5006.4 5041.7 5015.9 5049.8 5010 5041.7 5004.1 5038.6 4994.6" clip-path="url(#a)" fill="none" stroke="#000" stroke-linecap="round"/>
<polyline points="5038.6 4994.6 5028.6 4994.6 5038.6 4994.6 5041.7 4985.1 5031.7 4985.1 5034.8 4994.6 5026.7 4988.7 5029.8 4998.3 5032.9 4988.7 5042.9 4988.7 5032.9 4988.7 5024.8 4982.9 5027.9 4973.4 5024.8 4963.8 5016.7 4969.7 5008.6 4975.6 5000.5 4969.7 5003.6 4979.2 5011.7 4985.1 5021.7 4985.1 5024.8 4975.6 5021.7 4966.1 5018.6 4975.6 5010.5 4981.5 5018.6 4975.6 5010.5 4969.7 5002.4 4975.6 4999.3 4966.1 4991.2 4960.2 4983.1 4954.3 4975 4960.2 4967 4954.3 4958.9 4948.5 4955.8 4958 4947.7 4952.1 4944.6 4961.6 4934.6 4961.6 4937.7 4971.1 4945.8 4977 4937.7 4982.9 4934.6 4973.4 4937.7 4982.9 4927.7 4982.9" clip-path="url(#a)" fill="none" stroke="#000" stroke-linecap="round"/>
<polyline points="4927.7 4982.9 4917.7 4982.9 4907.7 4982.9 4899.6 4977 4896.5 4986.5 4904.6 4980.6 4896.5 4986.5 4893.4 4977 4896.5 4967.5 4888.4 4973.4 4896.5 4979.2 4899.6 4988.7 4909.6 4988.7 4899.6 4988.7 4896.5 4998.3 4906.5 4998.3 4903.4 4988.7 4911.5 4994.6 4908.4 4985.1 4905.3 4994.6 4895.3 4994.6 4905.3 4994.6 4913.4 5000.5 4910.3 5010 4913.4 5019.5 4921.5 5013.6 4929.6 5007.8 4937.7 5013.6 4934.6 5004.1 4926.5 4998.3 4916.5 4998.3 4913.4 5007.8 4916.5 5017.3 4919.6 5007.8 4927.7 5001.9 4919.6 5007.8 4927.7 5013.6 4935.8 5007.8 4938.9 5017.3 4947 5023.2 4955 5029 4963.1 5023.2 4971.2 5029" clip-path="url(#a)" fill="none" stroke="#000" stroke-linecap="round"/>
<polyline points="4971.2 5029 4979.3 5034.9 4982.4 5025.4 4990.5 5031.3 4993.6 5021.8 5003.6 5021.8 5000.5 5012.3 4992.4 5006.4 5000.5 5000.5 5003.6 5010 5000.5 5000.5 5010.5 5000.5 5020.5 5000.5 5030.5 5000.5 5038.6 5006.4 5041.7 4996.9 5033.6 5002.7 5041.7 4996.9 5044.8 5006.4 5041.7 5015.9 5049.8 5010 5041.7 5004.1 5038.6 4994.6 5028.6 4994.6 5038.6 4994.6 5041.7 4985.1 5031.7 4985.1 5034.8 4994.6 5026.7 4988.7 5029.8 4998.3 5032.9 4988.7 5042.9 4988.7 5032.9 4988.7 5024.8 4982.9 5027.9 4973.4 5024.8 4963.8 5016.7 4969.7 5008.6 4975.6 5000.5 4969.7 5003.6 4979.2 5011.7 4985.1 5021.7 4985.1 5024.8 4975.6" clip-path="url(#a)" fill="none" stroke="#000" stroke-linecap="round"/>
<polyline points="5024.8 4975.6 5021.7 4966.1 5018.6 4975.6 5010.5 4981.5 5018.6 4975.6 5010.5 4969.7 5002.4 4975.6 4999.3 4966.1 4991.2 4960.2 4983.1 4954.3 4975 4960.2 4967 4954.3 4958.9 4948.5 4955.8 4958 4947.7 4952.1 4944.6 4961.6 4934.6 4961.6 4937.7 4971.1 4945.8 4977 4937.7 4982.9 4934.6 4973.4 4937.7 4982.9 4927.7 4982.9 4917.7 4982.9 4907.7 4982.9 4899.6 4977 4896.5 4986.5 4904.6 4980.6 4896.5 4986.5 4893.4 4977 4896.5 4967.5 4888.4 4973.4 4896.5 4979.2 4899.6 4988.7 4909.6 4988.7 4899.6 4988.7 4896.5 4998.3 4906.5 4998.3 4903.4 4988.7 4911.5 4994.6 4908.4 4985.1 4905.3 4994.6 4895.3 4994.6" clip-path="url(#a)" fill="none" stroke="#000" stroke-linecap="round"/>
<polyline points="4895.3 4994.6 4905.3 4994.6 4913.4 5000.5 4910.3 5010 4913.4 5019.5 4921.5 5013.6 4929.6 5007.8 4937.7 5013.6 4934.6 5004.1 4926.5 4998.3 4916.5 4998.3 4913.4 5007.8 4916.5 5017.3 4919.6 5007.8 4927.7 5001.9 4919.6 5007.8 4927.7 5013.6 4935.8 5007.8 4938.9 5017.3 4947 5023.2 4955 5029 4963.1 5023.2 4971.2 5029 4979.3 5034.9 4982.4 5025.4 4990.5 5031.3 4993.6 5021.8 5003.6 5021.8 5000.5 5012.3 4992.4 5006.4 5000.5 5000.5 5003.6 5010 5000.5 5000.5 5010.5 5000.5 5020.5 5000.5 5030.5 5000.5 5038.6 5006.4 5041.7 4996.9 5033.6 5002.7 5041.7 4996.9 5044.8 5006.4 5041.7 5015.9 5049.8 5010" clip-path="url(#a)" fill="none" stroke="#000" stroke-linecap="round"/>
<polyline points="5049.8 5010 5041.7 5004.1 5038.6 4994.6 5028.6 4994.6 5038.6 4994.6 5041.7 4985.1 5031.7 4985.1 5034.8 4994.6 5026.7 4988.7 5029.8 4998.3 5032.9 4988.7 5042.9 4988.7 5032.9 4988.7 5024.8 4982.9 5027.9 4973.4 5024.8 4963.8 5016.7 4969.7 5008.6 4975.6 5000.5 4969.7 5003.6 4979.2 5011.7 4985.1 5021.7 4985.1 5024.8 4975.6 5021.7 4966.1 5018.6 4975.6 5010.5 4981.5 5018.6 4975.6 5010.5 4969.7 5002.4 4975.6 4999.3 4966.1 4991.2 4960.2 4983.1 4954.3 4975 4960.2 4967 4954.3 4958.9 4948.5 4955.8 4958 4947.7 4952.1 4944.6 4961.6 4934.6 4961.6 4937.7 4971.1 4945.8 4977 4937.7 4982.9 4934.6 4973.4" clip-path="url(#a)" fill="none" stroke="#000" stroke-linecap="round"/>
<polyline points="4934.6 4973.4 4937.7 4982.9 4927.7 4982.9 4917.7 4982.9 4907.7 4982.9 4899.6 4977 4896.5 4986.5 4904.6 4980.6 4896.5 4986.5 4893.4 4977 4896.5 4967.5 4888.4 4973.4 4896.5 4979.2 4899.6 4988.7 4909.6 4988.7 4899.6 4988.7 4896.5 4998.3 4906.5 4998.3 4903.4 4988.7 4911.5 4994.6 4908.4 4985.1 4905.3 4994.6 4895.3 4994.6 4905.3 4994.6 4913.4 5000.5 4910.3 5010 4913.4 5019.5 4921.5 5013.6 4929.6 5007.8 4937.7 5013.6 4934.6 5004.1 4926.5 4998.3 4916.5 4998.3 4913.4 5007.8 4916.5 5017.3 4919.6 5007.8 4927.7 5001.9 4919.6 5007.8 4927.7 5013.6 4935.8 5007.8 4938.9 5017.3 4947 5023.2 4955 5029" clip-path="url(#a)" fill="none" stroke="#000" stroke-linecap="round"/>
<polyline points="4955 5029 4963.1 5023.2 4971.2 5029 4979.3 5034.9 4982.4 5025.4 4990.5 5031.3 4993.6 5021.8 5003.6 5021.8 5000.5 5012.3 4992.4 5006.4 5000.5 5000.5 5003.6 5010 5000.5 5000.5 5010.5 5000.5 5020.5 5000.5 5030.5 5000.5 5038.6 5006.4 5041.7 4996.9 5033.6 5002.7 5041.7 4996.9 5044.8 5006.4 5041.7 5015.9 5049.8 5010 5041.7 5004.1 5038.6 4994.6 5028.6 4994.6 5038.6 4994.6 5041.7 4985.1 5031.7 4985.1 5034.8 4994.6 5026.7 4988.7 5029.8 4998.3 5032.9 4988.7 5042.9 4988.7 5032.9 4988.7 5024.8 4982.9 5027.9 4973.4 5024.8 4963.8 5016.7 4969.7 5008.6 4975.6 5000.5 4969.7 5003.6 4979.2 5011.7 4985.1" clip-path="url(#a)" fill="none" stroke="#000" stroke-linecap="round"/>
<polyline points="5011.7 4985.1 5021.7 4985.1 5024.8 4975.6 5021.7 4966.1 5018.6 4975.6 5010.5 4981.5 5018.6 4975.6 5010.5 4969.7 5002.4 4975.6 4999.3 4966.1 4991.2 4960.2 4983.1 4954.3 4975 4960.2 4967 4954.3 4958.9 4948.5 4955.8 4958 4947.7 4952.1 4944.6 4961.6 4934.6 4961.6 4937.7 4971.1 4945.8 4977 4937.7 4982.9 4934.6 4973.4 4937.7 4982.9 4927.7 4982.9 4917.7 4982.9 4907.7 4982.9 4899.6 4977 4896.5 4986.5 4904.6 4980.6 4896.5 4986.5 4893.4 4977 4896.5 4967.5 4888.4 4973.4 4896.5 4979.2 4899.6 4988.7 4909.6 4988.7 4899.6 4988.7 4896.5 4998.3 4906.5 4998.3 4903.4 4988.7 4911.5 4994.6 4908.4 4985.1" clip-path="url(#a)" fill="none" stroke="#000" stroke-linecap="round"/>
<polyline points="4908.4 4985.1 4905.3 4994.6 4895.3 4994.6 4905.3 4994.6 4913.4 5000.5 4910.3 5010 4913.4 5019.5 4921.5 5013.6 4929.6 5007.8 4937.7 5013.6 4934.6 5004.1 4926.5 4998.3 4916.5 4998.3 4913.4 5007.8 4916.5 5017.3 4919.6 5007.8 4927.7 5001.9 4919.6 5007.8 4927.7 5013.6 4935.8 5007.8 4938.9 5017.3 4947 5023.2 4955 5029 4963.1 5023.2 4971.2 5029 4979.3 5034.9 4982.4 5025.4 4990.5 5031.3 4993.6 5021.8 5003.6 5021.8 5000.5 5012.3 4992.4 5006.4 5000.5 5000.5 5003.6 5010 5000.5 5000.5 5010.5 5000.5 5020.5 5000.5 5030.5 5000.5 5038.6 5006.4 5041.7 4996.9 5033.6 5002.7 5041.7 4996.9 5044.8 5006.4" clip-path="url(#a)" fill="none" stroke="#000" stroke-linecap="round"/>
<polyline points="5044.8 5006.4 5041.7 5015.9 5049.8 5010 5041.7 5004.1 5038.6 4994.6 5028.6 4994.6 5038.6 4994.6 5041.7 4985.1 5031.7 4985.1 5034.8 4994.6 5026.7 4988.7 5029.8 4998.3 5032.9 4988.7 5042.9 4988.7 5032.9 4988.7 5024.8 4982.9 5027.9 4973.4 5024.8 4963.8 5016.7 4969.7 5008.6 4975.6 5000.5 4969.7 5003.6 4979.2 5011.7 4985.1 5021.7 4985.1 5024.8 4975.6 5021.7 4966.1 5018.6 4975.6 5010.5 4981.5 5018.6 4975.6 5010.5 4969.7 5002.4 4975.6 4999.3 4966.1 4991.2 4960.2 4983.1 4954.3 4975 4960.2 4967 4954.3 4958.9 4948.5 4955.8 4958 4947.7 4952.1 4944.6 4961.6 4934.6 4961.6 4937.7 4971.1 4945.8 4977" clip-path="url(#a)" fill="none" stroke="#000" stroke-linecap="round"/>
<polyline points="4945.8 4977 4937.7 4982.9 4934.6 4973.4 4937.7 4982.9 4927.7 4982.9 4917.7 4982.9 4907.7 4982.9 4899.6 4977 4896.5 4986.5 4904.6 4980.6 4896.5 4986.5 4893.4 4977 4896.5 4967.5 4888.4 4973.4 4896.5 4979.2 4899.6 4988.7 4909.6 4988.7 4899.6 4988.7 4896.5 4998.3 4906.5 4998.3 4903.4 4988.7 4911.5 4994.6 4908.4 4985.1 4905.3 4994.6 4895.3 4994.6 4905.3 4994.6 4913.4 5000.5 4910.3 5010 4913.4 5019.5 4921.5 5013.6 4929.6 5007.8 4937.7 5013.6 4934.6 5004.1 4926.5 4998.3 4916.5 4998.3 4913.4 5007.8 4916.5 5017.3 4919.6 5007.8 4927.7 5001.9 4919.6 5007.8 4927.7 5013.6 4935.8 5007.8 4938.9 5017.3" clip-path="url(#a)" fill="none" stroke="#000" stroke-linecap="round"/>
<polyline points="4938.9 5017.3 4947 5023.2 4955 5029 4963.1 5023.2 4971.2 5029 4979.3 5034.9 4982.4 5025.4 4990.5 5031.3 4993.6 5021.8 5003.6 5021.8 5000.5 5012.3 4992.4 5006.4 5000.5 5000.5 5003.6 5010 5000.5 5000.5 5010.5 5000.5 5020.5 5000.5 5030.5 5000.5 5038.6 5006.4 5041.7 4996.9 5033.6 5002.7 5041.7 4996.9 5044.8 5006.4 5041.7 5015.9 5049.8 5010 5041.7 5004.1 5038.6 4994.6 5028.6 4994.6 5038.6 4994.6 5041.7 4985.1 5031.7 4985.1 5034.8 4994.6 5026.7 4988.7 5029.8 4998.3 5032.9 4988.7 5042.9 4988.7 5032.9 4988.7 5024.8 4982.9 5027.9 4973.4 5024.8 4963.8 5016.7 4969.7 5008.6 4975.6 5000.5 4969.7" clip-path="url(#a)" fill="none" stroke="#000" stroke-linecap="round"/>
<polyline points="5000.5 4969.7 5003.6 4979.2 5011.7 4985.1 5021.7 4985.1 5024.8 4975.6 5021.7 4966.1 5018.6 4975.6 5010.5 4981.5 5018.6 4975.6 5010.5 4969.7 5002.4 4975.6 4999.3 4966.1 4991.2 4960.2 4983.1 4954.3 4975 4960.2 4967 4954.3 4958.9 4948.5 4955.8 4958 4947.7 4952.1 4944.6 4961.6 4934.6 4961.6 4937.7 4971.1 4945.8 4977 4937.7 4982.9 4934.6 4973.4 4937.7 4982.9 4927.7 4982.9 4917.7 4982.9 4907.7 4982.9 4899.6 4977 4896.5 4986.5 4904.6 4980.6 4896.5 4986.5 4893.4 4977 4896.5 4967.5 4888.4 4973.4 4896.5 4979.2 4899.6 4988.7 4909.6 4988.7 4899.6 4988.7 4896.5 4998.3 4906.5 4998.3 4903.4 4988.7" clip-path="url(#a)" fill="none" stroke="#000" stroke-linecap="round"/>
<polyline points="4903.4 4988.7 4911.5 4994.6 4908.4 4985.1 4905.3 4994.6 4895.3 4994.6 4905.3 4994.6 4913.4 5000.5 4910.3 5010 4913.4 5019.5 4921.5 5013.6 4929.6 5007.8 4937.7 5013.6 4934.6 5004.1 4926.5 4998.3 4916.5 4998.3 4913.4 5007.8 4916.5 5017.3 4919.6 5007.8 4927.7 5001.9 4919.6 5007.8 4927.7 5013.6 4935.8 5007.8 4938.9 5017.3 4947 5023.2 4955 5029 4963.1 5023.2 4971.2 5029 4979.3 5034.9 4982.4 5025.4 4990.5 5031.3 4993.6 5021.8 5003.6 5021.8 5000.5 5012.3 4992.4 5006.4 5000.5 5000.5 5003.6 5010 5000.5 5000.5 5010.5 5000.5 5020.5 5000.5 5030.5 5000.5 5038.6 5006.4 5041.7 4996.9 5033.6 5002.7" clip-path="url(#a)" fill="none" stroke="#000" stroke-linecap="round"/>
<polyline points="5033.6 5002.7 5041.7 4996.9 5044.8 5006.4 5041.7 5015.9 5049.8 5010 5041.7 5004.1 5038.6 4994.6 5028.6 4994.6 5038.6 4994.6 5041.7 4985.1 5031.7 4985.1 5034.8 4994.6 5026.7 4988.7 5029.8 4998.3 5032.9 4988.7 5042.9 4988.7 5032.9 4988.7 5024.8 4982.9 5027.9 4973.4 5024.8 4963.8 5016.7 4969.7 5008.6 4975.6 5000.5 4969.7 5003.6 4979.2 5011.7 4985.1 5021.7 4985.1 5024.8 4975.6 5021.7 4966.1 5018.6 4975.6 5010.5 4981.5 5018.6 4975.6 5010.5 4969.7 5002.4 4975.6 4999.3 4966.1 4991.2 4960.2 4983.1 4954.3 4975 4960.2 4967 4954.3 4958.9 4948.5 4955.8 4958 4947.7 4952.1 4944.6 4961.6 4934.6 4961.6" clip-path="url(#a)" fill="none" stroke="#000" stroke-linecap="round"/>
<polyline points="4934.6 4961.6 4937.7 4971.1 4945.8 4977 4937.7 4982.9 4934.6 4973.4 4937.7 4982.9 4927.7 4982.9 4917.7 4982.9 4907.7 4982.9 4899.6 4977 4896.5 4986.5 4904.6 4980.6 4896.5 4986.5 4893.4 4977 4896.5 4967.5 4888.4 4973.4 4896.5 4979.2 4899.6 4988.7 4909.6 4988.7 4899.6 4988.7 4896.5 4998.3 4906.5 4998.3 4903.4 4988.7 4911.5 4994.6 4908.4 4985.1 4905.3 4994.6 4895.3 4994.6 4905.3 4994.6 4913.4 5000.5 4910.3 5010 4913.4 5019.5 4921.5 5013.6 4929.6 5007.8 4937.7 5013.6 4934.6 5004.1 4926.5 4998.3 4916.5 4998.3 4913.4 5007.8 4916.5 5017.3 4919.6 5007.8 4927.7 5001.9 4919.6 5007.8 4927.7 5013.6" clip-path="url(#a)" fill="none" stroke="#000" stroke-linecap="round"/>
<polyline points="4927.7 5013.6 4935.8 5007.8 4938.9 5017.3 4947 5023.2 4955 5029 4963.1 5023.2 4971.2 5029 4979.3 5034.9 4982.4 5025.4 4990.5 5031.3 4993.6 5021.8 5003.6 5021.8 5000.5 5012.3 4992.4 5006.4 5000.5 5000.5 5003.6 5010 5000.5 5000.5 5010.5 5000.5 5020.5 5000.5 5030.5 5000.5 5038.6 5006.4 5041.7 4996.9 5033.6 5002.7 5041.7 4996.9 5044.8 5006.4 5041.7 5015.9 5049.8 5010 5041.7 5004.1 5038.6 4994.6 5028.6 4994.6 5038.6 4994.6 5041.7 4985.1 5031.7 4985.1 5034.8 4994.6 5026.7 4988.7 5029.8 4998.3 5032.9 4988.7 5042.9 4988.7 5032.9 4988.7 5024.8 4982.9 5027.9 4973.4 5024.8 4963.8 5016.7 4969.7" clip-path="url(#a)" fill="none" stroke="#000" stroke-linecap="round"/>
<polyline points="5016.7 4969.7 5008.6 4975.6 5000.5 4969.7 5003.6 4979.2 5011.7 4985.1 5021.7 4985.1 5024.8 4975.6 5021.7 4966.1 5018.6 4975.6 5010.5 4981.5 5018.6 4975.6 5010.5 4969.7 5002.4 4975.6 4999.3 4966.1 4991.2 4960.2 4983.1 4954.3 4975 4960.2 4967 4954.3 4958.9 4948.5 4955.8 4958 4947.7 4952.1 4944.6 4961.6 4934.6 4961.6 4937.7 4971.1 4945.8 4977 4937.7 4982.9 4934.6 4973.4 4937.7 4982.9 4927.7 4982.9 4917.7 4982.9 4907.7 4982.9 4899.6 4977 4896.5 4986.5 4904.6 4980.6 4896.5 4986.5 4893.4 4977 4896.5 4967.5 4888.4 4973.4 4896.5 4979.2 4899.6 4988.7 4909.6 4988.7 4899.6 4988.7 4896.5 4998.3" clip-path="url(#a)" fill="none" stroke="#000" stroke-linecap="round"/>
<polyline points="4896.5 4998.3 4906.5 4998.3 4903.4 4988.7 4911.5 4994.6 4908.4 4985.1 4905.3 4994.6 4895.3 4994.6 4905.3 4994.6 4913.4 5000.5 4910.3 5010 4913.4 5019.5 4921.5 5013.6 4929.6 5007.8 4937.7 5013.6 4934.6 5004.1 4926.5 4998.3 4916.5 4998.3 4913.4 5007.8 4916.5 5017.3 4919.6 5007.8 4927.7 5001.9 4919.6 5007.8 4927.7 5013.6 4935.8 5007.8 4938.9 5017.3 4947 5023.2 4955 5029 4963.1 5023.2 4971.2 5029 4979.3 5034.9 4982.4 5025.4 4990.5 5031.3 4993.6 5021.8 5003.6 5021.8 5000.5 5012.3 4992.4 5006.4 5000.5 5000.5 5003.6 5010 5000.5 5000.5 5010.5 5000.5 5020.5 5000.5 5030.5 5000.5 5038.6 5006.4" clip-path="url(#a)" fill="none" stroke="#000" stroke-linecap="round"/>
<polyline points="5038.6 5006.4 5041.7 4996.9 5033.6 5002.7 5041.7 4996.9 5044.8 5006.4 5041.7 5015.9 5049.8 5010 5041.7 5004.1 5038.6 4994.6 5028.6 4994.6 5038.6 4994.6 5041.7 4985.1 5031.7 4985.1 5034.8 4994.6 5026.7 4988.7 5029.8 4998.3 5032.9 4988.7 5042.9 4988.7 5032.9 4988.7 5024.8 4982.9 5027.9 4973.4 5024.8 4963.8 5016.7 4969.7 5008.6 4975.6 5000.5 4969.7 5003.6 4979.2 5011.7 4985.1 5021.7 4985.1 5024.8 4975.6 5021.7 4966.1 5018.6 4975.6 5010.5 4981.5 5018.6 4975.6 5010.5 4969.7 5002.4 4975.6 4999.3 4966.1 4991.2 4960.2 4983.1 4954.3 4975 4960.2 4967 4954.3 4958.9 4948.5 4955.8 4958 4947.7 4952.1" clip-path="url(#a)" fill="none" stroke="#000" stroke-linecap="round"/>
<polyline points="4947.7 4952.1 4944.6 4961.6 4934.6 4961.6 4937.7 4971.1 4945.8 4977 4937.7 4982.9 4934.6 4973.4 4937.7 4982.9 4927.7 4982.9 4917.7 4982.9 4907.7 4982.9 4899.6 4977 4896.5 4986.5 4904.6 4980.6 4896.5 4986.5 4893.4 4977 4896.5 4967.5 4888.4 4973.4 4896.5 4979.2 4899.6 4988.7 4909.6 4988.7 4899.6 4988.7 4896.5 4998.3 4906.5 4998.3 4903.4 4988.7 4911.5 4994.6 4908.4 4985.1 4905.3 4994.6 4895.3 4994.6 4905.3 4994.6 4913.4 5000.5 4910.3 5010 4913.4 5019.5 4921.5 5013.6 4929.6 5007.8 4937.7 5013.6 4934.6 5004.1 4926.5 4998.3 4916.5 4998.3 4913.4 5007.8 4916.5 5017.3 4919.6 5007.8 4927.7 5001.9" clip-path="url(#a)" fill="none" stroke="#000" stroke-linecap="round"/>
<polyline points="4927.7 5001.9 4919.6 5007.8 4927.7 5013.6 4935.8 5007.8 4938.9 5017.3 4947 5023.2 4955 5029 4963.1 5023.2 4971.2 5029 4979.3 5034.9 4982.4 5025.4 4990.5 5031.3 4993.6 5021.8 5003.6 5021.8 5000.5 5012.3 4992.4 5006.4 5000.5 5000.5 5003.6 5010 5000.5 5000.5 5010.5 5000.5 5020.5 5000.5 5030.5 5000.5 5038.6 5006.4 5041.7 4996.9 5033.6 5002.7 5041.7 4996.9 5044.8 5006.4 5041.7 5015.9 5049.8 5010 5041.7 5004.1 5038.6 4994.6 5028.6 4994.6 5038.6 4994.6 5041.7 4985.1 5031.7 4985.1 5034.8 4994.6 5026.7 4988.7 5029.8 4998.3 5032.9 4988.7 5042.9 4988.7 5032.9 4988.7 5024.8 4982.9 5027.9 4973.4" clip-path="url(#a)" fill="none" stroke="#000" stroke-linecap="round"/>
<polyline points="5027.9 4973.4 5024.8 4963.8 5016.7 4969.7 5008.6 4975.6 5000.5 4969.7 5003.6 4979.2 5011.7 4985.1 5021.7 4985.1 5024.8 4975.6 5021.7 4966.1 5018.6 4975.6 5010.5 4981.5 5018.6 4975.6 5010.5 4969.7 5002.4 4975.6 4999.3 4966.1 4991.2 4960.2 4983.1 4954.3 4975 4960.2 4967 4954.3 4958.9 4948.5 4955.8 4958 4947.7 4952.1 4944.6 4961.6 4934.6 4961.6 4937.7 4971.1 4945.8 4977 4937.7 4982.9 4934.6 4973.4 4937.7 4982.9 4927.7 4982.9 4917.7 4982.9 4907.7 4982.9 4899.6 4977 4896.5 4986.5 4904.6 4980.6 4896.5 4986.5 4893.4 4977 4896.5 4967.5 4888.4 4973.4 4896.5 4979.2 4899.6 4988.7 4909.6 4988.7" clip-path="url(#a)" fill="none" stroke="#000" stroke-linecap="round"/>
<polyline points="4909.6 4988.7 4899.6 4988.7 4896.5 4998.3 4906.5 4998.3 4903.4 4988.7 4911.5 4994.6 4908.4 4985.1 4905.3 4994.6 4895.3 4994.6 4905.3 4994.6 4913.4 5000.5 4910.3 5010 4913.4 5019.5 4921.5 5013.6 4929.6 5007.8 4937.7 5013.6 4934.6 5004.1 4926.5 4998.3 4916.5 4998.3 4913.4 5007.8 4916.5 5017.3 4919.6 5007.8 4927.7 5001.9 4919.6 5007.8 4927.7 5013.6 4935.8 5007.8 4938.9 5017.3 4947 5023.2 4955 5029 4963.1 5023.2 4971.2 5029 4979.3 5034.9 4982.4 5025.4 4990.5 5031.3 4993.6 5021.8 5003.6 5021.8 5000.5 5012.3 4992.4 5006.4 5000.5 5000.5 5003.6 5010 5000.5 5000.5 5010.5 5000.5 5020.5 5000.5" clip-path="url(#a)" fill="none" stroke="#000" stroke-linecap="round"/>
<polyline points="5020.5 5000.5 5030.5 5000.5 5038.6 5006.4 5041.7 4996.9 5033.6 5002.7 5041.7 4996.9 5044.8 5006.4 5041.7 5015.9 5049.8 5010 5041.7 5004.1 5038.6 4994.6 5028.6 4994.6 5038.6 4994.6 5041.7 4985.1 5031.7 4985.1 5034.8 4994.6 5026.7 4988.7 5029.8 4998.3 5032.9 4988.7 5042.9 4988.7 5032.9 4988.7 5024.8 4982.9 5027.9 4973.4 5024.8 4963.8 5016.7 4969.7 5008.6 4975.6 5000.5 4969.7 5003.6 4979.2 5011.7 4985.1 5021.7 4985.1 5024.8 4975.6 5021.7 4966.1 5018.6 4975.6 5010.5 4981.5 5018.6 4975.6 5010.5 4969.7 5002.4 4975.6 4999.3 4966.1 4991.2 4960.2 4983.1 4954.3 4975 4960.2 4967 4954.3 4958.9 4948.5" clip-path="url(#a)" fill="none" stroke="#000" stroke-linecap="round"/>
<polyline points="4958.9 4948.5 4955.8 4958 4947.7 4952.1 4944.6 4961.6 4934.6 4961.6 4937.7 4971.1 4945.8 4977 4937.7 4982.9 4934.6 4973.4 4937.7 4982.9 4927.7 4982.9 4917.7 4982.9 4907.7 4982.9 4899.6 4977 4896.5 4986.5 4904.6 4980.6 4896.5 4986.5 4893.4 4977 4896.5 4967.5 4888.4 4973.4 4896.5 4979.2 4899.6 4988.7 4909.6 4988.7 4899.6 4988.7 4896.5 4998.3 4906.5 4998.3 4903.4 4988.7 4911.5 4994.6 4908.4 4985.1 4905.3 4994.6 4895.3 4994.6 4905.3 4994.6 4913.4 5000.5 4910.3 5010 4913.4 5019.5 4921.5 5013.6 4929.6 5007.8 4937.7 5013.6 4934.6 5004.1 4926.5 4998.3 4916.5 4998.3 4913.4 5007.8 4916.5 5017.3" clip-path="url(#a)" fill="none" stroke="#000" stroke-linecap="round"/>
<polyline points="4916.5 5017.3 4919.6 5007.8 4927.7 5001.9 4919.6 5007.8 4927.7 5013.6 4935.8 5007.8 4938.9 5017.3 4947 5023.2 4955 5029 4963.1 5023.2 4971.2 5029 4979.3 5034.9 4982.4 5025.4 4990.5 5031.3 4993.6 5021.8 5003.6 5021.8 5000.5 5012.3 4992.4 5006.4 5000.5 5000.5 5003.6 5010 5000.5 5000.5" clip-path="url(#a)" fill="none" stroke="#000" stroke-linecap="round"/>
</svg>
