<?xml version="1.0" encoding="utf-8" ?>
<svg baseProfile="full" height="1000px" version="1.1" width="1000px" xmlns="http://www.w3.org/2000/svg" xmlns:ev="http://www.w3.org/2001/xml-events" xmlns:xlink="http://www.w3.org/1999/xlink"><defs><clipPath id="border_clip"><rect height="1000" width="1000" x="0" y="0" /></clipPath></defs><polyline clip-path="url(#border_clip)" fill="none" points="500.5,500.5 510.5,500.5 520.5,500.5 528.5901699437495,506.37785252292474 538.5901699437495,506.37785252292474 535.5,515.8884176858762 543.5901699437495,510.01056516295154 535.5,504.1327126400268 525.5,504.1327126400268 517.4098300562505,510.01056516295154 507.40983005625054,510.01056516295154 504.319660112501,519.5211303259031 501.22949016875157,510.01056516295154 509.319660112501,515.8884176858762 517.4098300562505,521.766270208801 509.319660112501,515.8884176858762 517.4098300562505,521.766270208801 525.5,527.6441227317257 522.4098300562505,518.1335575687742 525.5,527.6441227317257 517.4098300562505,533.5219752546504 514.3196601125011,524.011410091699 506.22949016875157,518.1335575687742 514.3196601125011,524.011410091699 506.22949016875157,518.1335575687742 503.1393202250021,508.62299240582263 511.22949016875157,514.5008449287474 514.3196601125011,504.99027976579583 504.3196601125011,504.99027976579583 494.3196601125011,504.9902797657958 491.22949016875157,514.5008449287473 483.1393202250021,508.6229924058226 491.22949016875157,514.5008449287473 499.3196601125011,508.62299240582263 496.2294901687516,499.11242724287104 499.31966011250114,489.60186207991956 489.31966011250114,489.6018620799195 499.31966011250114,489.60186207991956 496.2294901687516,499.11242724287104 488.13932022500217,493.2345747199463 485.04915028125276,483.72400955699476 493.1393202250023,477.8461570340701 496.2294901687518,468.33559187111854" stroke="black" stroke-linecap="round" stroke-width="1" /><polyline clip-path="url(#border_clip)" fill="none" points="496.2294901687518,468.33559187111854 499.3196601125012,477.8461570340701 496.2294901687518,468.33559187111854 488.13932022500234,462.45773934819374 485.0491502812528,471.9683045111453 476.95898033750336,466.0904519882205 486.95898033750336,466.09045198822054 495.0491502812529,460.21259946529585 485.0491502812529,460.2125994652958 493.1393202250024,454.3347469423711 496.2294901687518,463.84531210532265 488.1393202250023,469.72316462824733 480.0491502812528,463.8453121053226 476.9589803375034,454.334746942371 480.049150281253,444.8241817794195 483.1393202250025,435.313616616468 493.1393202250025,435.31361661646804 496.2294901687521,425.8030514535165 493.1393202250025,435.31361661646804 490.0491502812531,425.80305145351645 498.1393202250026,419.9251989305918 506.2294901687521,425.8030514535166 514.3196601125015,431.6809039764414 506.22949016875197,437.55875649936604 514.3196601125014,443.4366090222909 517.4098300562509,433.92604385933936 525.5000000000005,428.0481913364147 515.5000000000005,428.04819133641456 523.59016994375,433.9260438593394 526.6803398874993,443.436609022291 523.59016994375,433.9260438593394 520.5000000000003,443.4366090222909 523.5901699437497,452.9471741852425 533.5901699437497,452.9471741852426 536.6803398874991,462.4577393481942 539.7705098312488,452.94717418524266 531.6803398874991,458.8250267081673 523.5901699437496,464.70287923109197 531.680339887499,470.58073175401677 521.680339887499,470.5807317540167 529.7705098312485,464.702879231092 539.7705098312487,464.70287923109214 536.680339887499,474.2134443940437" stroke="black" stroke-linecap="round" stroke-width="1" /><polyline clip-path="url(#border_clip)" fill="none" points="536.680339887499,474.2134443940437 544.7705098312484,480.0912969169685 541.680339887499,470.5807317540169 551.6803398874991,470.580731754017 548.5901699437495,480.09129691696853 545.5,489.60186207992 542.4098300562506,480.0912969169684 539.319660112501,489.60186207991995 547.4098300562504,495.4797146028448 555.5,489.6018620799201 563.5901699437495,483.7240095569955 566.680339887499,474.21344439404396 576.6803398874991,474.2134443940441 573.5901699437497,464.70287923109254 570.5000000000001,474.213444394044 560.5000000000001,474.2134443940439 568.5901699437497,468.3355918711193 565.5000000000003,458.8250267081677 557.4098300562507,464.7028792310923 549.3196601125013,458.82502670816746 557.4098300562507,464.7028792310923 560.5000000000003,455.19231406814083 552.4098300562509,449.314461545216 542.4098300562509,449.31446154521586 534.3196601125014,455.1923140681405 526.2294901687518,461.0701665910651 518.1393202250023,466.94801911398974 508.1393202250022,466.94801911398963 500.0491502812527,472.82587163691426 496.9589803375033,463.31530647396266 493.86881039375373,472.82587163691414 503.86881039375373,472.82587163691426 511.9589803375033,466.94801911398963 515.0491502812529,457.43745395103815 523.1393202250025,451.5596014281135 520.0491502812531,442.04903626516193 528.1393202250025,447.9268887880868 518.1393202250025,447.92688878808667 508.1393202250025,447.9268887880865 518.1393202250025,447.92688878808667 508.1393202250025,447.9268887880865 498.1393202250025,447.92688878808633 506.2294901687519,453.8047413110112" stroke="black" stroke-linecap="round" stroke-width="1" /><polyline clip-path="url(#border_clip)" fill="none" points="506.2294901687519,453.8047413110112 498.1393202250025,447.92688878808633 501.22949016875214,438.41632362513485 509.31966011250154,444.2941761480597 519.3196601125015,444.2941761480599 509.31966011250154,444.2941761480597 519.3196601125015,444.2941761480599 527.4098300562509,450.17202867098473 517.4098300562509,450.17202867098456 520.5000000000002,459.68259383393615 528.5901699437499,453.8047413110115 536.6803398874994,447.92688878808696 533.5901699437501,438.41632362513536 543.5901699437501,438.41632362513553 533.5901699437501,438.41632362513536 530.5000000000005,447.92688878808684 538.5901699437499,453.8047413110117 541.6803398874991,463.31530647396335 549.7705098312488,457.4374539510387 541.6803398874991,463.31530647396335 538.5901699437499,453.8047413110117 548.5901699437499,453.80474131101187 556.6803398874993,459.6825938339368 553.5901699437495,469.19315899688826 556.6803398874989,478.70372415983985 548.5901699437495,472.825871636915 556.6803398874989,478.70372415983985 566.6803398874989,478.7037241598401 563.5901699437496,469.1931589968884 573.5901699437496,469.19315899688866 565.5,475.0710115198132 562.4098300562504,484.5815766827647 570.5,478.70372415984014 567.4098300562503,488.2142893227916 559.319660112501,482.3364367998667 562.4098300562506,472.8258716369152 572.4098300562506,472.8258716369154 580.5,478.7037241598403 583.5901699437493,488.21428932279196 586.6803398874986,497.72485448574355 578.590169943749,503.6027070086681 581.6803398874982,513.1132721716198 578.590169943749,503.6027070086681" stroke="black" stroke-linecap="round" stroke-width="1" /><polyline clip-path="url(#border_clip)" fill="none" points="578.590169943749,503.6027070086681 586.6803398874983,509.48055953159303 583.5901699437486,518.9911246945445 573.5901699437486,518.9911246945443 563.5901699437486,518.991124694544 566.6803398874983,509.48055953159263 556.6803398874983,509.4805595315924 559.7705098312475,518.991124694544 556.6803398874979,528.5016898574955 564.7705098312475,522.6238373345709 554.7705098312475,522.6238373345707 546.6803398874981,516.7459848116458 554.7705098312475,522.6238373345707 551.6803398874982,513.1132721716191 543.5901699437488,507.2354196486942 535.4999999999992,513.1132721716187 527.4098300562499,507.23541964869383 530.4999999999991,516.7459848116455 533.5901699437488,507.23541964869395 536.6803398874986,497.72485448574247 526.6803398874985,497.72485448574224 534.7705098312481,491.84700196281767 531.6803398874985,501.35756712576915 523.5901699437488,507.2354196486937 520.4999999999995,497.72485448574207 510.49999999999955,497.72485448574184 518.5901699437488,503.6027070086668 510.49999999999926,509.4805595315913 507.40983005625,499.96999436863973 504.31966011250074,490.4594292056881 512.4098300562501,496.33728172861305 509.31966011250086,486.8267165656614 499.3196601125008,486.8267165656612 496.2294901687511,496.33728172861265 493.13932022500137,505.84784689156413 496.22949016875066,515.3584120545157 488.13932022500103,521.2362645774404 496.2294901687504,527.1141171003652 493.1393202250011,517.6035519374136 501.2294901687508,511.72569941448904 498.13932022500103,521.2362645774406 506.2294901687504,527.1141171003655 509.3196601125001,517.6035519374141" stroke="black" stroke-linecap="round" stroke-width="1" /><polyline clip-path="url(#border_clip)" fill="none" points="509.3196601125001,517.6035519374141 519.3196601125002,517.6035519374143 509.3196601125001,517.6035519374141 512.4098300562493,527.1141171003657 522.4098300562493,527.1141171003659 530.499999999999,521.2362645774414 533.5901699437487,511.7256994144899 536.6803398874985,502.2151342515384 539.7705098312482,492.70456908858694 547.8606797749978,486.8267165656624 550.9508497187476,477.31615140271094 559.0410196624969,483.19400392563585 555.9508497187477,473.6834387626842 547.8606797749981,479.5612912856088 544.7705098312483,489.07185644856025 547.8606797749975,498.5824216115119 544.7705098312478,508.0929867744634 552.8606797749972,513.9708392973884 542.8606797749972,513.970839297388 550.9508497187468,508.09298677446355 559.0410196624964,502.215134251539 550.9508497187468,508.09298677446355 559.0410196624964,502.215134251539 567.131189606246,496.33728172861447 557.131189606246,496.3372817286142 567.131189606246,496.33728172861447 570.2213595499953,505.8478468915661 560.2213595499952,505.84784689156584 552.1311896062456,511.72569941449035 560.2213595499952,505.84784689156584 552.1311896062456,511.72569941449035 542.1311896062456,511.72569941449007 550.2213595499952,505.84784689156555 542.1311896062459,499.9699943686406 539.0410196624962,509.48055953159206 535.9508497187464,518.9911246945435 544.0410196624957,524.8689772174686 535.9508497187461,530.7468297403931 544.0410196624957,524.8689772174686 540.9508497187466,515.3584120545169 530.9508497187464,515.3584120545166 522.8606797749972,509.4805595315916 519.7705098312474,518.991124694543" stroke="black" stroke-linecap="round" stroke-width="1" /><polyline clip-path="url(#border_clip)" fill="none" points="519.7705098312474,518.991124694543 522.8606797749972,509.4805595315916 530.9508497187464,515.3584120545166 522.8606797749968,521.236264577441 512.8606797749968,521.2362645774408 509.7705098312476,511.72569941448916 501.6803398874983,505.84784689156413 511.6803398874983,505.8478468915645 501.6803398874983,505.84784689156413 493.5901699437486,511.72569941448864 501.6803398874979,517.6035519374136 493.5901699437482,523.4814044603381 496.680339887498,513.9708392973866 493.59016994374883,504.460274134435 490.49999999999903,513.9708392973865 487.40983005624986,504.4602741344348 497.40983005624986,504.4602741344351 500.4999999999991,513.9708392973868 492.4098300562494,519.8486918203113 482.40983005624935,519.8486918203109 474.31966011250006,513.970839297386 466.2294901687507,508.09298677446094 469.3196601125005,498.58242161150946 461.2294901687512,492.7045690885845 469.3196601125005,498.58242161150946 459.3196601125005,498.5824216115092 456.22949016875134,489.07185644855747 464.319660112501,483.194003925633 472.4098300562507,477.3161514027085 475.4999999999999,486.8267165656602 483.5901699437496,480.9488640427357 475.5000000000003,475.07101151981067 472.4098300562511,465.560446356859 469.3196601125013,475.0710115198105 477.409830056251,469.193158996886 487.40983005625105,469.1931589968863 477.409830056251,469.193158996886 485.5000000000003,475.071011519811 495.50000000000034,475.07101151981135 498.59016994375014,465.5604463568599 508.5901699437502,465.56044635686027 500.5000000000009,459.68259383393524 503.59016994375,469.1931589968869" stroke="black" stroke-linecap="round" stroke-width="1" /><polyline clip-path="url(#border_clip)" fill="none" points="503.59016994375,469.1931589968869 506.6803398874992,478.7037241598386 514.7705098312489,472.82587163691414 511.6803398874991,482.33643679986557 508.5901699437499,472.8258716369139 511.68033988749977,463.31530647396244 519.770509831249,469.1931589968875 527.8606797749987,463.315306473963 517.8606797749987,463.31530647396266 520.9508497187486,453.8047413110112 529.0410196624979,459.68259383393627 537.1311896062472,465.5604463568613 527.1311896062471,465.56044635686095 535.2213595499964,471.438298879786 543.3115294937461,465.5604463568615 540.221359549997,456.04988119390987 537.1311896062479,446.53931603095816 529.0410196624986,440.66146350803314 532.1311896062484,431.15089834508166 522.1311896062483,431.15089834508126 530.2213595499976,437.02875086800634 527.1311896062477,446.5393160309578 524.0410196624987,437.0287508680061 514.0410196624987,437.0287508680057 517.1311896062477,446.5393160309574 509.04101966249806,452.4171685538819 517.1311896062477,446.5393160309574 509.04101966249846,440.66146350803234 500.95084971874877,446.5393160309568 497.8606797749989,456.0498811939083 500.95084971874803,465.5604463568599 504.04101966249715,475.07101151981163 507.13118960624627,484.58157668276334 504.0410196624964,494.09214184571476 507.1311896062455,503.60270700866647 497.13118960624547,503.6027070086661 505.22135954999476,509.48055953159115 508.3115294937446,499.9699943686397 505.2213595499955,490.459429205688 497.13118960624627,484.58157668276294 494.04101966249715,475.07101151981124 484.0410196624971,475.07101151981084 492.13118960624683,469.1931589968864" stroke="black" stroke-linecap="round" stroke-width="1" /><polyline clip-path="url(#border_clip)" fill="none" points="492.13118960624683,469.1931589968864 489.041019662497,478.70372415983786 485.9508497187471,488.21428932278934 489.041019662497,478.70372415983786 485.9508497187471,488.21428932278934 482.8606797749972,497.72485448574076 490.95084971874695,491.8470019628163 482.8606797749972,497.72485448574076 474.770509831248,491.8470019628157 482.8606797749977,485.9691494398912 485.9508497187476,476.4585842769398 482.8606797749977,485.9691494398912 485.9508497187476,476.4585842769398 494.0410196624973,470.58073175401535 490.95084971874746,480.0912969169668 500.95084971874746,480.0912969169672 497.8606797749984,470.5807317540155 494.7705098312493,461.0701665910638 484.7705098312492,461.0701665910634 487.86067977499914,451.55960142811193 484.7705098312492,461.0701665910634 492.8606797749985,466.9480191139885 500.95084971874826,461.0701665910641 510.9508497187483,461.0701665910645 507.8606797749992,451.5596014281128 510.9508497187483,461.0701665910645 500.95084971874826,461.0701665910641 504.0410196624982,451.5596014281126 512.1311896062479,445.6817489051882 520.2213595499971,451.5596014281133 530.2213595499973,451.55960142811375 522.1311896062474,457.43745395103815 530.2213595499973,451.55960142811375 533.3115294937471,442.0490362651623 523.311529493747,442.0490362651619 526.401699437497,432.53847110221045 529.491869381246,442.04903626516216 537.5820393249953,447.92688878808724 534.4918693812463,438.41632362513553 542.5820393249954,444.2941761480606 534.4918693812457,450.17202867098507 526.4016994374964,444.29417614805993 529.4918693812464,434.78361098510845" stroke="black" stroke-linecap="round" stroke-width="1" /><polyline clip-path="url(#border_clip)" fill="none" points="529.4918693812464,434.78361098510845 537.5820393249961,428.90575846218405 547.5820393249962,428.9057584621845 557.5820393249962,428.90575846218496 560.6722092687453,438.41632362513667 570.6722092687453,438.4163236251371 560.6722092687453,438.41632362513667 568.762379212495,432.53847110221227 576.8525491562443,438.4163236251374 573.7623792124944,447.92688878808883 570.6722092687445,457.4374539510403 562.5820393249952,451.5596014281152 559.4918693812454,461.0701665910666 569.4918693812454,461.07016659106705 577.5820393249946,466.9480191139922 574.4918693812456,457.4374539510405 571.4016994374956,466.9480191139919 563.3115294937459,472.8258716369163 571.4016994374956,466.9480191139919 561.4016994374956,466.94801911399145 553.3115294937458,472.82587163691585 556.4016994374948,482.33643679986756 548.311529493745,488.21428932279196 558.3115294937451,488.2142893227924 550.2213595499958,482.3364367998673 542.1311896062466,476.45858427694213 539.0410196624966,485.96914943989356 535.9508497187476,476.45858427694185 544.0410196624969,482.336436799867 547.1311896062459,491.8470019628187 537.1311896062458,491.84700196281824 534.0410196624958,501.35756712576966 542.1311896062457,495.4797146028453 545.2213595499948,504.990279765797 535.2213595499946,504.9902797657965 525.2213595499946,504.99027976579606 533.3115294937444,499.11242724287166 523.3115294937444,499.1124272428712 520.2213595499944,508.62299240582263 528.3115294937436,514.5008449287478 536.4016994374929,520.3786974516729 546.4016994374929,520.3786974516735 549.4918693812419,529.8892626146252" stroke="black" stroke-linecap="round" stroke-width="1" /><polyline clip-path="url(#border_clip)" fill="none" points="549.4918693812419,529.8892626146252 557.5820393249918,524.0114100917008 547.5820393249917,524.0114100917003 544.4918693812426,514.5008449287486 552.5820393249919,520.3786974516737 560.6722092687417,514.5008449287494 552.5820393249925,508.6229924058242 555.6722092687424,499.1124272428728 552.5820393249925,508.6229924058242 562.5820393249926,508.62299240582473 565.6722092687426,499.1124272428733 562.5820393249935,489.60186207992155 554.4918693812442,483.7240095569964 546.401699437495,477.8461570340712 538.3115294937459,471.968304511146 535.2213595499968,462.4577393481943 527.1311896062476,456.5798868252691 535.2213595499974,450.70203430234477 525.2213595499974,450.70203430234426 528.3115294937463,460.212599465296 536.4016994374956,466.09045198822116 546.4016994374956,466.0904519882217 554.4918693812449,471.96830451114687 562.5820393249946,466.0904519882225 559.4918693812447,475.60101715117395 556.4016994374957,466.0904519882222 553.3115294937467,456.5798868252705 556.4016994374957,466.0904519882222 553.3115294937467,456.5798868252705 550.2213595499977,447.0693216623187 547.1311896062477,456.57988682527014 550.2213595499977,447.0693216623187 560.2213595499977,447.0693216623192 557.1311896062477,456.57988682527065 560.2213595499968,466.0904519882224 557.1311896062477,456.57988682527065 560.2213595499968,466.0904519882224 557.1311896062468,475.60101715117383 554.0410196624978,466.09045198822207 545.9508497187479,471.9683045111464 554.0410196624972,477.8461570340716 562.1311896062464,483.7240095569968 570.2213595499962,477.84615703407246" stroke="black" stroke-linecap="round" stroke-width="1" /><polyline clip-path="url(#border_clip)" fill="none" points="570.2213595499962,477.84615703407246 573.3115294937452,487.3567221970242 570.2213595499962,477.84615703407246 560.2213595499961,477.84615703407195 557.1311896062462,487.3567221970234 549.0410196624963,493.23457471994766 557.1311896062455,499.1124272428729 549.0410196624963,493.23457471994766 557.1311896062462,487.3567221970234 560.2213595499951,496.86728735997514 557.1311896062451,506.37785252292656 547.131189606245,506.377852522926 539.0410196624953,512.2557050458503 542.1311896062452,502.7451398828989 539.0410196624953,512.2557050458503 542.1311896062442,521.7662702088021 550.2213595499941,515.8884176858778 553.311529493743,525.3989828488295 545.2213595499938,519.5211303259043 535.2213595499937,519.5211303259038 543.3115294937429,525.398982848829 533.3115294937429,525.3989828488284 536.4016994374929,515.888417685877 546.401699437493,515.8884176858776 549.4918693812419,525.3989828488293 546.4016994374919,534.9095480117808 538.311529493742,540.7874005347051 530.2213595499921,546.6652530576293 522.131189606243,540.7874005347041 514.0410196624931,546.6652530576284 522.131189606243,540.7874005347041 519.0410196624929,550.2979656976555 509.0410196624929,550.297965697655 505.95084971874394,540.7874005347032 502.860679774995,531.2768353717514 512.8606797749951,531.276835371752 509.7705098312461,521.7662702088003 501.68033988749625,527.6441227317246 491.6803398874962,527.644122731724 499.77050983124536,533.5219752546492 496.6803398874964,524.0114100916974 499.7705098312465,514.500844928746 496.6803398874964,524.0114100916974" stroke="black" stroke-linecap="round" stroke-width="1" /><polyline clip-path="url(#border_clip)" fill="none" points="496.6803398874964,524.0114100916974 504.7705098312463,518.1335575687731 507.86067977499636,508.6229924058217 499.7705098312472,502.74513988289647 502.8606797749972,493.23457471994504 494.77050983124735,499.11242724286933 504.7705098312474,499.11242724286996 514.7705098312475,499.1124272428705 511.6803398874986,489.60186207991876 519.7705098312478,495.479714602844 509.7705098312477,495.4797146028434 501.6803398874985,489.60186207991813 509.7705098312484,483.72400955699385 506.6803398874995,474.2134443940421 503.5901699437494,483.7240095569935 495.5000000000002,477.84615703406826 503.5901699437501,471.96830451114397 511.6803398875,466.0904519882197 508.5901699437499,475.6010171511711 516.6803398874998,469.7231646282468 513.5901699437509,460.21259946529506 503.5901699437508,460.21259946529443 493.59016994375077,460.2125994652938 485.50000000000085,466.0904519882181 477.40983005625174,460.2125994652928 474.31966011250165,469.7231646282442 482.4098300562515,463.84531210532 490.5000000000007,469.72316462824523 480.5000000000006,469.7231646282446 477.40983005625054,479.233729791196 487.4098300562506,479.23372979119665 490.4999999999995,488.7442949541484 487.4098300562506,479.23372979119665 479.3196601125007,485.1115823141209 482.4098300562496,494.6221474770727 490.49999999999875,500.49999999999795 500.4999999999988,500.4999999999986 510.49999999999886,500.4999999999992 520.499999999999,500.49999999999983 528.5901699437482,506.37785252292514 538.5901699437482,506.37785252292576 535.4999999999981,515.8884176858771 543.5901699437479,510.0105651629529" stroke="black" stroke-linecap="round" stroke-width="1" /><polyline clip-path="url(#border_clip)" fill="none" points="543.5901699437479,510.0105651629529 535.4999999999989,504.13271264002765 525.4999999999987,504.13271264002697 517.4098300562489,510.01056516295125 507.4098300562488,510.0105651629506 504.3196601124987,519.521130325902 501.2294901687498,510.01056516295023 509.3196601124989,515.8884176858755 517.4098300562481,521.7662702088007 509.3196601124989,515.8884176858755 517.4098300562481,521.7662702088007 525.4999999999973,527.644122731726 522.4098300562483,518.1335575687742 525.4999999999973,527.644122731726 517.4098300562473,533.5219752546503 514.3196601124985,524.0114100916985 506.2294901687493,518.1335575687732 514.3196601124985,524.0114100916985 506.2294901687493,518.1335575687732 503.1393202250004,508.62299240582144 511.2294901687496,514.5008449287467 514.3196601124997,504.9902797657953 504.3196601124996,504.99027976579464 494.31966011249955,504.990279765794 491.2294901687494,514.5008449287454 483.1393202250003,508.62299240582007 491.2294901687494,514.5008449287454 499.3196601124994,508.62299240582115 496.2294901687505,499.1124272428694 499.3196601125006,489.60186207991796 489.31966011250057,489.6018620799173 499.3196601125006,489.60186207991796 496.2294901687505,499.1124272428694 488.13932022500137,493.234574719944 485.04915028125254,483.72400955699226 493.13932022500245,477.846157034068 496.2294901687526,468.33559187111666 499.3196601125014,477.8461570340684 496.2294901687526,468.33559187111666 488.1393202250035,462.4577393481913 485.04915028125333,471.9683045111427 476.95898033750416,466.09045198821735 486.9589803375043,466.0904519882181" stroke="black" stroke-linecap="round" stroke-width="1" /><polyline clip-path="url(#border_clip)" fill="none" points="486.9589803375043,466.0904519882181 495.0491502812542,460.21259946529386 485.04915028125413,460.2125994652932 493.13932022500404,454.33474694236895 496.2294901687529,463.8453121053208 488.13932022500296,469.72316462824494 480.04915028125384,463.84531210531964 476.958980337505,454.3347469423678 480.04915028125515,444.82418177941645 483.13932022500535,435.3136166164651 493.1393202250054,435.31361661646577 496.22949016875555,425.8030514535144 493.1393202250054,435.31361661646577 490.0491502812566,425.80305145351394 498.1393202250065,419.9251989305898 506.2294901687556,425.8030514535151 514.3196601125047,431.68090397644045 506.2294901687548,437.5587564993647 514.3196601125039,443.43660902229 517.4098300562541,433.9260438593386 525.500000000004,428.04819133641445 515.500000000004,428.0481913364137 523.590169943753,433.9260438593391 526.6803398875019,443.4366090222909 523.590169943753,433.9260438593391 520.5000000000028,443.43660902229044 523.5901699437517,452.94717418524226 533.5901699437518,452.947174185243 536.6803398875006,462.4577393481948 539.7705098312507,452.94717418524345 531.6803398875008,458.8250267081676 523.5901699437509,464.7028792310918 531.6803398874999,470.58073175401717 521.6803398874998,470.5807317540164 529.7705098312498,464.70287923109225 539.7705098312499,464.702879231093 536.6803398874997,474.21344439404436 544.7705098312488,480.0912969169698 541.6803398875,470.5807317540179 551.6803398875,470.58073175401864 548.5901699437499,480.09129691697007 545.4999999999997,489.60186207992143 542.4098300562509,480.09129691696955" stroke="black" stroke-linecap="round" stroke-width="1" /><polyline clip-path="url(#border_clip)" fill="none" points="542.4098300562509,480.09129691696955 539.3196601125006,489.601862079921 547.4098300562498,495.47971460284634 555.4999999999998,489.60186207992217 563.5901699437497,483.724009556998 566.6803398874999,474.21344439404663 576.6803398874999,474.2134443940474 573.5901699437512,464.70287923109555 570.500000000001,474.2134443940469 560.5000000000009,474.2134443940462 568.5901699437509,468.335591871122 565.5000000000022,458.8250267081701 557.4098300562522,464.7028792310943 549.319660112503,458.82502670816893 557.4098300562522,464.7028792310943 560.5000000000024,455.19231406814293 552.4098300562533,449.31446154521757 542.4098300562532,449.3144615452168 534.3196601125032,455.19231406814094 526.2294901687533,461.0701665910651 518.1393202250033,466.94801911398923 508.1393202250032,466.9480191139885 500.0491502812532,472.82587163691267 496.95898033750444,463.3153064739608 493.8688103937542,472.82587163691215 503.8688103937543,472.82587163691295 511.9589803375043,466.9480191139888 515.0491502812545,457.4374539510374 523.1393202250044,451.55960142811324 520.0491502812557,442.0490362651614 528.1393202250048,447.92688878808684 518.1393202250048,447.92688878808605 508.13932022500467,447.92688878808525 518.1393202250048,447.92688878808605 508.13932022500467,447.92688878808525 498.13932022500455,447.92688878808445 506.22949016875367,453.8047413110099 498.13932022500455,447.92688878808445 501.2294901687548,438.4163236251331 509.3196601125039,444.2941761480585 519.3196601125039,444.2941761480593 509.3196601125039,444.2941761480585 519.3196601125039,444.2941761480593" stroke="black" stroke-linecap="round" stroke-width="1" /><polyline clip-path="url(#border_clip)" fill="none" points="519.3196601125039,444.2941761480593 527.4098300562531,450.17202867098473 517.409830056253,450.17202867098393 520.5000000000017,459.6825938339358 528.5901699437517,453.80474131101164 536.6803398875018,447.9268887880875 533.590169943753,438.41632362513565 543.590169943753,438.41632362513644 533.590169943753,438.41632362513565 530.5000000000027,447.926888788087 538.5901699437518,453.80474131101244 541.6803398875005,463.3153064739643 549.7705098312506,457.4374539510402 541.6803398875005,463.3153064739643 538.5901699437518,453.80474131101244 548.5901699437519,453.80474131101323 556.680339887501,459.68259383393865 553.5901699437507,469.19315899689 556.6803398874994,478.7037241598419 548.5901699437503,472.8258716369165 556.6803398874994,478.7037241598419 566.6803398874995,478.70372415984275 563.5901699437508,469.1931589968909 573.5901699437509,469.19315899689167 565.5000000000008,475.0710115198158 562.4098300562506,484.58157668276715 570.5000000000006,478.70372415984303 567.4098300562503,488.2142893227944 559.3196601125012,482.336436799869 562.4098300562515,472.8258716369176 572.4098300562516,472.8258716369184 580.5000000000007,478.7037241598439 583.5901699437494,488.21428932279576 586.6803398874981,497.72485448574764 578.590169943748,503.60270700867176 581.6803398874968,513.1132721716236 578.590169943748,503.60270700867176 586.6803398874971,509.4805595315972 583.5901699437468,518.9911246945486 573.5901699437467,518.9911246945477 563.5901699437466,518.9911246945469 566.6803398874969,509.48055953159553 556.6803398874969,509.4805595315947" stroke="black" stroke-linecap="round" stroke-width="1" /><polyline clip-path="url(#border_clip)" fill="none" points="556.6803398874969,509.4805595315947 559.7705098312455,518.9911246945466 556.6803398874952,528.5016898574979 564.7705098312452,522.6238373345739 554.7705098312451,522.623837334573 546.6803398874961,516.7459848116475 554.7705098312451,522.623837334573 551.6803398874965,513.1132721716211 543.5901699437475,507.2354196486956 535.4999999999974,513.1132721716197 527.4098300562483,507.23541964869423 530.499999999997,516.7459848116462 533.5901699437474,507.23541964869474 536.6803398874977,497.7248544857434 526.6803398874976,497.7248544857425 534.7705098312476,491.84700196281847 531.6803398874973,501.35756712576983 523.5901699437472,507.2354196486939 520.4999999999985,497.724854485742 510.49999999999847,497.7248544857411 518.5901699437475,503.60270700866664 510.49999999999744,509.4805595315907 507.4098300562488,499.9699943686388 504.3196601125001,490.4594292056869 512.4098300562491,496.3372817286124 509.31966011250046,486.8267165656605 499.3196601125004,486.82671656565964 496.22949016875003,496.337281728611 493.1393202249997,505.84784689156237 496.2294901687484,515.3584120545142 488.1393202249983,521.2362645774383 496.22949016874736,527.1141171003638 493.1393202249987,517.6035519374119 501.2294901687487,511.72569941448785 498.1393202249984,521.2362645774392 506.2294901687474,527.1141171003648 509.3196601124978,517.6035519374134 519.3196601124979,517.6035519374143 509.3196601124978,517.6035519374134 512.4098300562464,527.1141171003652 522.4098300562465,527.1141171003661 530.4999999999966,521.2362645774421 533.590169943747,511.72569941449075" stroke="black" stroke-linecap="round" stroke-width="1" /><polyline clip-path="url(#border_clip)" fill="none" points="533.590169943747,511.72569941449075 536.6803398874973,502.2151342515394 539.7705098312476,492.704569088588 547.8606797749977,486.82671656566396 550.9508497187481,477.3161514027126 559.0410196624971,483.1940039256381 555.9508497187485,473.68343876268625 547.8606797749984,479.5612912856103 544.7705098312481,489.0718564485616 547.8606797749967,498.58242161151355 544.7705098312463,508.0929867744649 552.8606797749953,513.9708392973904 542.8606797749952,513.9708392973895 550.9508497187453,508.09298677446543 559.0410196624954,502.2151342515414 550.9508497187453,508.09298677446543 559.0410196624954,502.2151342515414 567.1311896062455,496.3372817286173 557.1311896062455,496.3372817286164 567.1311896062455,496.33728172861737 570.2213595499942,505.84784689156925 560.2213595499941,505.84784689156834 552.131189606244,511.7256994144924 560.2213595499941,505.84784689156834 552.131189606244,511.7256994144924 542.1311896062439,511.7256994144915 550.221359549994,505.84784689156743 542.1311896062449,499.9699943686419 539.0410196624946,509.48055953159326 535.9508497187442,518.9911246945446 544.0410196624932,524.8689772174702 535.950849718743,530.7468297403941 544.0410196624932,524.8689772174702 540.9508497187445,515.3584120545182 530.9508497187444,515.3584120545173 522.8606797749954,509.4805595315917 519.770509831245,518.991124694543 522.8606797749954,509.4805595315917 530.9508497187444,515.3584120545173 522.8606797749943,521.2362645774413 512.8606797749942,521.2362645774404 509.77050983124565,511.7256994144884 501.68033988749664,505.8478468915629" stroke="black" stroke-linecap="round" stroke-width="1" /><polyline clip-path="url(#border_clip)" fill="none" points="501.68033988749664,505.8478468915629 511.6803398874967,505.84784689156385 501.68033988749664,505.8478468915629 493.5901699437465,511.7256994144869 501.6803398874955,517.6035519374125 493.59016994374537,523.4814044603365 496.6803398874958,513.9708392973852 493.5901699437472,504.46027413443323 490.49999999999676,513.9708392973846 487.40983005624815,504.4602741344326 497.40983005624827,504.4602741344336 500.4999999999969,513.9708392973855 492.40983005624673,519.8486918203096 482.4098300562467,519.8486918203085 474.3196601124977,513.970839297383 466.22949016874867,508.0929867744574 469.3196601124991,498.5824216115061 461.2294901687501,492.7045690885805 469.3196601124991,498.5824216115061 459.319660112499,498.5824216115051 456.2294901687504,489.07185644855315 464.3196601125005,483.19400392562915 472.40983005625066,477.31615140270515 475.49999999999926,486.8267165656571 483.5901699437494,480.9488640427331 475.5000000000004,475.0710115198075 472.4098300562518,465.56044635685555 469.31966011250137,475.0710115198069 477.4098300562515,469.1931589968829 487.4098300562516,469.1931589968839 477.4098300562515,469.1931589968829 485.5000000000005,475.0710115198085 495.5000000000006,475.0710115198095 498.59016994375105,465.56044635685817 508.59016994375116,465.56044635685913 500.50000000000216,459.68259383393354 503.59016994375077,469.1931589968855 506.6803398874993,478.7037241598374 514.7705098312495,472.82587163691346 511.68033988749903,482.33643679986477 508.5901699437504,472.82587163691284 511.6803398875009,463.31530647396147 519.7705098312499,469.19315899688706" stroke="black" stroke-linecap="round" stroke-width="1" /><polyline clip-path="url(#border_clip)" fill="none" points="519.7705098312499,469.19315899688706 527.860679775,463.3153064739631 517.8606797749999,463.3153064739621 520.9508497187504,453.8047413110108 529.0410196624994,459.6825938339364 537.1311896062483,465.560446356862 527.1311896062482,465.560446356861 535.2213595499973,471.4382988797866 543.3115294937473,465.5604463568626 540.2213595499989,456.04988119391066 537.1311896062502,446.53931603095873 529.0410196625013,440.6614635080331 532.1311896062517,431.15089834508177 522.1311896062516,431.15089834508075 530.2213595500007,437.02875086800634 527.1311896062501,446.5393160309577 524.0410196625016,437.0287508680057 514.0410196625015,437.0287508680047 517.13118960625,446.5393160309567 509.0410196624999,452.41716855388063 517.13118960625,446.5393160309567 509.04101966250107,440.66146350803103 500.9508497187509,446.53931603095504 497.8606797750004,456.04988119390634 500.95084971874894,465.56044635685834 504.0410196624975,475.07101151981027 507.13118960624604,484.58157668276226 504.04101966249556,494.09214184571357 507.1311896062441,503.6027070086655 497.131189606244,503.6027070086645 505.22135954999294,509.48055953159013 508.3115294937434,499.9699943686388 505.2213595499949,490.45942920568683 497.1311896062459,484.58157668276124 494.0410196624974,475.07101151980925 484.04101966249726,475.0710115198082 492.13118960624746,469.1931589968842 489.041019662497,478.7037241598356 485.9508497187465,488.2142893227869 489.041019662497,478.7037241598356 485.9508497187465,488.2142893227869 482.86067977499596,497.7248544857382 490.95084971874616,491.84700196281426" stroke="black" stroke-linecap="round" stroke-width="1" /><polyline clip-path="url(#border_clip)" fill="none" points="490.95084971874616,491.84700196281426 482.86067977499596,497.7248544857382 474.770509831247,491.8470019628126 482.8606797749972,485.9691494398886 485.9508497187477,476.4585842769373 482.8606797749972,485.9691494398886 485.9508497187477,476.4585842769373 494.0410196624979,470.58073175401336 490.95084971874735,480.09129691696467 500.9508497187475,480.09129691696575 497.86067977499897,470.58073175401375 494.7705098312505,461.07016659106176 484.77050983125037,461.07016659106074 487.86067977500085,451.5596014281094 484.77050983125037,461.07016659106074 492.8606797749993,466.9480191139864 500.9508497187495,461.07016659106245 510.9508497187496,461.07016659106347 507.86067977500113,451.5596014281115 510.9508497187496,461.07016659106347 500.9508497187495,461.07016659106245 504.0410196625,451.5596014281111 512.1311896062502,445.68174890518713 520.2213595499992,451.55960142811284 530.2213595499993,451.55960142811387 522.1311896062491,457.4374539510378 530.2213595499993,451.55960142811387 533.3115294937498,442.04903626516256 523.3115294937497,442.0490362651615 526.4016994375002,432.53847110221017 529.4918693812488,442.04903626516216 537.5820393249976,447.9268887880878 534.4918693812491,438.4163236251359 542.582039324998,444.2941761480615 534.4918693812479,450.17202867098547 526.4016994374989,444.29417614805976 529.4918693812494,434.78361098510845 537.5820393249998,428.9057584621845 547.5820393249999,428.90575846218564 557.582039325,428.9057584621867 560.6722092687485,438.4163236251387 570.6722092687486,438.4163236251398 560.6722092687485,438.4163236251387" stroke="black" stroke-linecap="round" stroke-width="1" /><polyline clip-path="url(#border_clip)" fill="none" points="560.6722092687485,438.4163236251387 568.7623792124987,432.53847110221477 576.8525491562476,438.4163236251405 573.7623792124971,447.9268887880918 570.6722092687464,457.4374539510431 562.5820393249976,451.5596014281174 559.4918693812469,461.07016659106876 569.491869381247,461.07016659106984 577.582039324996,466.94801911399554 574.4918693812476,457.43745395104355 571.401699437497,466.94801911399486 563.3115294937468,472.82587163691875 571.401699437497,466.94801911399486 561.4016994374969,466.9480191139937 553.3115294937467,472.82587163691767 556.4016994374952,482.33643679986966 548.3115294937448,488.21428932279355 558.311529493745,488.2142893227947 550.2213595499961,482.336436799869 542.1311896062472,476.45858427694327 539.0410196624965,485.9691494398946 535.9508497187481,476.45858427694253 544.0410196624971,482.33643679986824 547.1311896062455,491.8470019628203 537.1311896062454,491.84700196281915 534.0410196624947,501.35756712577046 542.131189606245,495.47971460284657 545.2213595499934,504.99027976579856 535.2213595499933,504.9902797657974 525.2213595499932,504.9902797657963 533.3115294937434,499.1124272428724 523.3115294937433,499.11242724287126 520.2213595499927,508.6229924058226 528.3115294937417,514.5008449287483 536.4016994374905,520.378697451674 546.4016994374906,520.3786974516752 549.4918693812391,529.8892626146272 557.5820393249893,524.0114100917033 547.5820393249892,524.0114100917021 544.4918693812408,514.5008449287502 552.5820393249896,520.3786974516759 560.67220926874,514.500844928752 552.582039324991,508.62299240582627" stroke="black" stroke-linecap="round" stroke-width="1" /><polyline clip-path="url(#border_clip)" fill="none" points="552.582039324991,508.62299240582627 555.6722092687417,499.11242724287496 552.582039324991,508.62299240582627 562.5820393249911,508.6229924058274 565.6722092687418,499.11242724287615 562.5820393249934,489.6018620799241 554.4918693812444,483.7240095569984 546.4016994374955,477.84615703407263 538.3115294937467,471.9683045111469 535.2213595499982,462.4577393481949 527.1311896062493,456.57988682526917 535.2213595499995,450.7020343023453 525.2213595499994,450.70203430234415 528.3115294937478,460.21259946529614 536.4016994374967,466.0904519882219 546.4016994374969,466.09045198822304 554.4918693812458,471.9683045111488 562.582039324996,466.0904519882249 559.4918693812455,475.6010171511762 556.401699437497,466.0904519882242 553.3115294937486,456.5798868252722 556.401699437497,466.0904519882242 553.3115294937486,456.5798868252722 550.2213595500002,447.06932166232014 547.1311896062496,456.57988682527144 550.2213595500002,447.06932166232014 560.2213595500003,447.06932166232133 557.1311896062497,456.57988682527264 560.221359549998,466.09045198822463 557.1311896062497,456.57988682527264 560.221359549998,466.09045198822463 557.1311896062475,475.60101715117594 554.041019662499,466.0904519882239 545.9508497187488,471.9683045111478 554.0410196624977,477.84615703407354 562.1311896062466,483.7240095569993 570.2213595499968,477.8461570340754 573.3115294937453,487.35672219702747 570.2213595499968,477.8461570340754 560.2213595499967,477.8461570340743 557.131189606246,487.3567221970256 549.0410196624958,493.2345747199494 557.1311896062447,499.1124272428752" stroke="black" stroke-linecap="round" stroke-width="1" /><polyline clip-path="url(#border_clip)" fill="none" points="557.1311896062447,499.1124272428752 549.0410196624958,493.2345747199494 557.131189606246,487.3567221970256 560.2213595499944,496.8672873599776 557.1311896062439,506.3778525229289 547.1311896062437,506.3778525229277 539.0410196624933,512.2557050458515 542.131189606244,502.7451398829003 539.0410196624933,512.2557050458515 542.1311896062418,521.7662702088036 550.221359549992,515.8884176858797 553.3115294937404,525.3989828488318 545.2213595499916,519.521130325906 535.2213595499915,519.5211303259048 543.3115294937403,525.3989828488305 533.3115294937402,525.3989828488294 536.4016994374908,515.888417685878 546.401699437491,515.8884176858793 549.4918693812393,525.3989828488313 546.4016994374887,534.9095480117826 538.3115294937384,540.7874005347065 530.221359549988,546.6652530576304 522.1311896062392,540.7874005347045 514.0410196624889,546.6652530576283 522.1311896062392,540.7874005347045 519.0410196624885,550.2979656976559 509.04101966248834,550.2979656976546 505.95084971874,540.7874005347026 502.86067977499164,531.2768353717505 512.8606797749918,531.2768353717518 509.77050983124343,521.7662702087997 501.6803398874931,527.6441227317235 491.680339887493,527.6441227317223 499.77050983124184,533.521975254648 496.6803398874935,524.011410091696 499.77050983124417,514.5008449287448 496.6803398874935,524.011410091696 504.7705098312438,518.1335575687722 507.8606797749945,508.6229924058209 499.77050983124565,502.7451398828951 502.86067977499636,493.2345747199438 494.77050983124604,499.1124272428676 504.77050983124616,499.1124272428689" stroke="black" stroke-linecap="round" stroke-width="1" /><polyline clip-path="url(#border_clip)" fill="none" points="504.77050983124616,499.1124272428689 514.7705098312463,499.1124272428701 511.68033988749795,489.6018620799181 519.7705098312468,495.4797146028439 509.77050983124667,495.47971460284265 501.68033988749784,489.6018620799168 509.77050983124815,483.724009556993 506.6803398874998,474.21344439404095 503.5901699437491,483.7240095569922 495.5000000000002,477.8461570340664 503.5901699437506,471.9683045111426 511.6803398875009,466.0904519882188 508.5901699437502,475.6010171511701 516.6803398875005,469.72316462824625 513.5901699437522,460.2125994652942 503.5901699437521,460.21259946529295 493.5901699437519,460.2125994652917 485.5000000000016,466.0904519882155 477.4098300562527,460.21259946528966 474.319660112502,469.72316462824097 482.40983005625236,463.84531210531713 490.5000000000012,469.723164628243 480.500000000001,469.7231646282417 477.4098300562503,479.233729791193 487.4098300562505,479.23372979119426 490.4999999999988,488.74429495414637 487.4098300562505,479.23372979119426 479.3196601125001,485.1115823141181 482.40983005624844,494.62214747707014 490.49999999999727,500.49999999999596 500.49999999999744,500.49999999999727 510.4999999999976,500.4999999999985 520.4999999999977,500.4999999999998 528.5901699437466,506.37785252292565 538.5901699437468,506.3778525229269 535.499999999996,515.8884176858783 543.5901699437463,510.01056516295444 535.4999999999975,504.13271264002856 525.4999999999974,504.1327126400273 517.4098300562471,510.0105651629511 507.40983005624685,510.0105651629498 504.31966011249614,519.521130325901 501.2294901687478,510.010565162949" stroke="black" stroke-linecap="round" stroke-width="1" /><polyline clip-path="url(#border_clip)" fill="none" points="501.2294901687478,510.010565162949 509.31966011249665,515.8884176858749 517.4098300562455,521.7662702088007 509.31966011249665,515.8884176858749 517.4098300562455,521.7662702088007 525.4999999999943,527.6441227317266 522.409830056246,518.1335575687746 525.4999999999943,527.6441227317266 517.409830056244,533.5219752546503 514.3196601124957,524.0114100916983 506.22949016874685,518.1335575687724 514.3196601124957,524.0114100916983 506.22949016874685,518.1335575687724 503.1393202249986,508.62299240582036 511.2294901687474,514.5008449287462 514.3196601124981,504.9902797657949 504.319660112498,504.9902797657936 494.31966011249784,504.9902797657923 491.22949016874713,514.5008449287436 483.1393202249983,508.62299240581774 491.2294901687471,514.5008449287436 499.31966011249744,508.62299240581984 496.2294901687492,499.11242724286774 499.31966011249995,489.6018620799165 489.3196601124998,489.6018620799152 499.31966011249995,489.6018620799165 496.2294901687492,499.11242724286774 488.13932022500035,493.23457471994186 485.0491502812521,483.72400955698976 493.13932022500245,477.84615703406604 496.2294901687532,468.33559187111473 499.3196601125015,477.84615703406683 496.2294901687532,468.33559187111473 488.13932022500444,462.45773934818885 485.0491502812536,471.9683045111401 476.95898033750484,466.0904519882142 486.95898033750495,466.0904519882156 495.0491502812553,460.2125994652918 485.0491502812552,460.2125994652905 493.1393202250056,454.33474694236673 496.22949016875384,463.84531210531884 488.1393202250035,469.72316462824256 480.04915028125464,463.8453121053167" stroke="black" stroke-linecap="round" stroke-width="1" /><polyline clip-path="url(#border_clip)" fill="none" points="480.04915028125464,463.8453121053167 476.9589803375064,454.3347469423646 480.0491502812572,444.8241817794133 483.13932022500796,435.313616616462 493.13932022500813,435.3136166164634 496.2294901687589,425.8030514535121 493.13932022500813,435.3136166164634 490.04915028125987,425.8030514535113 498.1393202250103,419.9251989305875 506.22949016875907,425.80305145351343 514.3196601125079,431.68090397643937 506.2294901687575,437.5587564993631 514.3196601125063,443.436609022289 517.4098300562571,433.9260438593377 525.5000000000075,428.048191336414 515.5000000000074,428.04819133641263 523.5901699437562,433.92604385933856 526.6803398875044,443.43660902229067 523.5901699437562,433.92604385933856 520.5000000000053,443.4366090222899 523.5901699437536,452.947174185242 533.5901699437537,452.94717418524334 536.680339887502,462.45773934819545 539.7705098312528,452.94717418524414 531.6803398875024,458.8250267081679 523.590169943752,464.70287923109163 531.6803398875007,470.58073175401756 521.6803398875006,470.5807317540162 529.770509831251,464.7028792310924 539.7705098312512,464.70287923109385 536.6803398875004,474.2134443940451 544.7705098312492,480.09129691697103 541.680339887501,470.5807317540189 551.6803398875011,470.5807317540203 548.5901699437503,480.09129691697154 545.4999999999994,489.60186207992285 542.4098300562513,480.0912969169707 539.3196601125004,489.601862079922 547.4098300562492,495.47971460284793 555.4999999999997,489.6018620799242 563.5901699437501,483.7240095570005 566.6803398875008,474.21344439404925 576.6803398875011,474.2134443940506" stroke="black" stroke-linecap="round" stroke-width="1" /><polyline clip-path="url(#border_clip)" fill="none" points="576.6803398875011,474.2134443940506 573.5901699437528,464.7028792310985 570.500000000002,474.21344439404976 560.5000000000018,474.2134443940484 568.5901699437522,468.3355918711247 565.5000000000041,458.8250267081726 557.4098300562537,464.70287923109623 549.3196601125048,458.8250267081703 557.4098300562537,464.7028792310963 560.5000000000044,455.192314068145 552.4098300562557,449.31446154521905 542.4098300562555,449.3144615452176 534.3196601125051,455.19231406814134 526.2294901687546,461.07016659106506 518.1393202250042,466.9480191139887 508.13932022500404,466.94801911398736 500.0491502812536,472.8258716369111 496.9589803375054,463.3153064739589 493.86881039375453,472.82587163691016 503.8688103937547,472.8258716369116 511.9589803375051,466.94801911398787 515.0491502812561,457.4374539510366 523.1393202250065,451.55960142811296 520.0491502812582,442.0490362651608 528.139320225007,447.9268887880868 518.1393202250068,447.92688878808536 508.1393202250067,447.92688878808394 518.1393202250068,447.92688878808536 508.1393202250067,447.92688878808394 498.13932022500654,447.9268887880825 506.2294901687553,453.8047413110085 498.13932022500654,447.9268887880825 501.2294901687574,438.41632362513127 509.3196601125062,444.29417614805726 519.3196601125063,444.2941761480587 509.3196601125062,444.29417614805726 519.3196601125063,444.2941761480587 527.4098300562551,450.1720286709847 517.4098300562549,450.17202867098325 520.5000000000032,459.68259383393536 528.5901699437536,453.8047413110117 536.680339887504,447.92688878808804 533.5901699437559,438.4163236251359" stroke="black" stroke-linecap="round" stroke-width="1" /><polyline clip-path="url(#border_clip)" fill="none" points="533.5901699437559,438.4163236251359 543.5901699437561,438.4163236251373 533.5901699437559,438.4163236251359 530.500000000005,447.9268887880871 538.5901699437537,453.8047413110131 541.680339887502,463.3153064739653 549.7705098312524,457.43745395104156 541.680339887502,463.3153064739653 538.5901699437537,453.8047413110131 548.590169943754,453.80474131101454 556.6803398875027,459.6825938339406 553.5901699437518,469.19315899689184 556.6803398874999,478.70372415984394 548.5901699437512,472.82587163691795 556.6803398874999,478.70372415984394 566.6803398875002,478.7037241598454 563.590169943752,469.19315899689326 573.5901699437521,469.1931589968947 565.5000000000017,475.0710115198184 562.4098300562508,484.58157668276965 570.5000000000013,478.703724159846 567.4098300562504,488.21428932279724 559.3196601125015,482.3364367998712 562.4098300562525,472.82587163691994 572.4098300562526,472.8258716369214 580.5000000000015,478.7037241598474 583.5901699437495,488.2142893227996 586.6803398874977,497.72485448575173 578.5901699437472,503.6027070086754 581.6803398874954,513.1132721716276 578.5901699437472,503.6027070086754 586.680339887496,509.48055953160144 583.5901699437451,518.9911246945527 573.5901699437449,518.9911246945512 563.5901699437447,518.9911246945497 566.6803398874956,509.4805595315985 556.6803398874954,509.480559531597 559.7705098312435,518.9911246945492 556.6803398874927,528.5016898575004 564.7705098312431,522.6238373345768 554.770509831243,522.6238373345753 546.6803398874941,516.7459848116492 554.770509831243,522.6238373345753" stroke="black" stroke-linecap="round" stroke-width="1" /><polyline clip-path="url(#border_clip)" fill="none" points="554.770509831243,522.6238373345753 551.6803398874948,513.1132721716231 543.5901699437461,507.2354196486971 535.4999999999956,513.1132721716207 527.4098300562468,507.2354196486947 530.4999999999949,516.7459848116468 533.5901699437459,507.2354196486956 536.6803398874969,497.72485448574434 526.6803398874966,497.72485448574287 534.7705098312472,491.8470019628192 531.6803398874962,501.35756712577046 523.5901699437457,507.2354196486941 520.4999999999976,497.7248544857419 510.4999999999974,497.7248544857404 518.5901699437461,503.60270700866647 510.4999999999956,509.48055953159013 507.40983005624753,499.9699943686379 504.31966011249943,490.45942920568575 512.4098300562482,496.3372817286118 509.31966011250006,486.82671656565964 499.3196601124999,486.8267165656581 496.2294901687489,496.33728172860936 493.13932022499796,505.8478468915606 496.22949016874605,515.3584120545128 488.1393202249955,521.2362645774364 496.2294901687443,527.1141171003625 493.1393202249962,517.6035519374103 501.2294901687467,511.7256994144867 498.13932022499574,521.236264577438 506.22949016874446,527.114117100364 509.31966011249546,517.6035519374127 519.3196601124956,517.6035519374143 509.31966011249546,517.6035519374127 512.4098300562435,527.114117100365 522.4098300562437,527.1141171003665 530.4999999999942,521.2362645774429 533.5901699437452,511.7256994144916 536.6803398874962,502.21513425154035 539.7705098312472,492.7045690885891 547.8606797749977,486.8267165656655 550.9508497187487,477.31615140271424 559.0410196624974,483.19400392564035 555.9508497187494,473.6834387626881" stroke="black" stroke-linecap="round" stroke-width="1" /><polyline clip-path="url(#border_clip)" fill="none" points="555.9508497187494,473.6834387626881 547.8606797749989,479.56129128561173 544.7705098312479,489.071856448563 547.8606797749959,498.5824216115152 544.7705098312449,508.09298677446645 552.8606797749936,513.9708392973926 542.8606797749935,513.970839297391 550.9508497187439,508.09298677446736 559.0410196624945,502.21513425154376 550.9508497187439,508.09298677446736 559.0410196624945,502.21513425154376 567.131189606245,496.33728172862016 557.1311896062449,496.3372817286186 567.131189606245,496.3372817286202 570.2213595499932,505.8478468915724 560.2213595499929,505.84784689157084 552.1311896062424,511.72569941449444 560.2213595499929,505.84784689157084 552.1311896062424,511.72569941449444 542.1311896062422,511.7256994144929 550.2213595499927,505.8478468915693 542.131189606244,499.9699943686432 539.041019662493,509.48055953159445 535.950849718742,518.9911246945456 544.0410196624907,524.8689772174718 535.9508497187402,530.7468297403954 544.0410196624907,524.8689772174718 540.9508497187427,515.3584120545196 530.9508497187425,515.358412054518 522.8606797749937,509.4805595315919 519.7705098312427,518.9911246945431 522.8606797749937,509.4805595315919 530.9508497187425,515.358412054518 522.8606797749919,521.2362645774416 512.8606797749917,521.23626457744 509.77050983124366,511.72569941448785 501.68033988749494,505.8478468915617 511.68033988749517,505.8478468915633 501.68033988749494,505.8478468915617 493.5901699437444,511.7256994144853 501.6803398874931,517.6035519374115 493.5901699437425,523.4814044603349 496.6803398874936,513.9708392973837" stroke="black" stroke-linecap="round" stroke-width="1" /><polyline clip-path="url(#border_clip)" fill="none" points="496.6803398874936,513.9708392973837 493.59016994374554,504.46027413443153 490.4999999999945,513.9708392973828 487.40983005624645,504.46027413443056 497.4098300562467,504.46027413443215 500.4999999999947,513.9708392973844 492.4098300562441,519.8486918203079 482.40983005624395,519.8486918203063 474.3196601124952,513.9708392973802 466.2294901687465,508.09298677445406 469.31966011249756,498.5824216115028 461.2294901687489,492.70456908857665 469.31966011249756,498.5824216115028 459.3196601124974,498.5824216115012 456.22949016874935,489.071856448549 464.31966011249995,483.19400392562545 472.40983005625054,477.3161514027019 475.4999999999985,486.8267165656541 483.5901699437491,480.9488640427306 475.50000000000045,475.0710115198044 472.4098300562524,465.5604463568522 469.31966011250137,475.0710115198034 477.40983005625196,469.19315899687984 487.40983005625213,469.1931589968815 477.40983005625196,469.19315899687984 485.5000000000006,475.071011519806 495.5000000000008,475.07101151980766 498.5901699437519,465.5604463568564 508.5901699437521,465.56044635685805 500.5000000000034,459.6825938339319 503.5901699437514,469.1931589968841 506.68033988749943,478.7037241598363 514.77050983125,472.8258716369128 511.6803398874989,482.33643679986403 508.59016994375094,472.82587163691176 511.680339887502,463.31530647396056 519.7705098312507,469.1931589968867 527.8606797750012,463.31530647396323 517.8606797750011,463.3153064739616 520.9508497187521,453.80474131101033 529.0410196625008,459.6825938339365 537.1311896062496,465.5604463568627 527.1311896062493,465.56044635686106" stroke="black" stroke-linecap="round" stroke-width="1" /><polyline clip-path="url(#border_clip)" fill="none" points="527.1311896062493,465.56044635686106 535.2213595499979,471.4382988797872 543.3115294937486,465.56044635686374 540.2213595500007,456.04988119391146 537.1311896062526,446.53931603095924 529.0410196625039,440.6614635080331 532.131189606255,431.1508983450818 522.1311896062549,431.1508983450802 530.2213595500035,437.0287508680064 527.1311896062524,446.5393160309576 524.0410196625045,437.0287508680054 514.0410196625043,437.0287508680037 517.1311896062522,446.53931603095594 509.04101966250164,452.4171685538795 517.1311896062522,446.53931603095594 509.0410196625036,440.6614635080298 500.9508497187529,446.5393160309533 497.8606797750018,456.04988119390447 500.9508497187498,465.56044635685674 504.0410196624978,475.07101151980896 507.13118960624575,484.58157668276124 504.0410196624946,494.09214184571243 507.1311896062426,503.60270700866465 497.1311896062424,503.602707008663 505.22135954999106,509.4805595315892 508.31152949374217,499.96999436863797 505.2213595499942,490.45942920568575 497.1311896062455,484.58157668275953 494.04101966249755,475.0710115198073 484.0410196624974,475.07101151980567 492.131189606248,469.1931589968821 489.04101966249686,478.70372415983337 485.95084971874576,488.21428932278457 489.04101966249686,478.70372415983337 485.95084971874576,488.21428932278457 482.86067977499465,497.7248544857358 490.95084971874525,491.84700196281227 482.86067977499465,497.7248544857358 474.77050983124593,491.8470019628096 482.8606797749966,485.9691494398861 485.9508497187477,476.45858427693486 482.8606797749966,485.9691494398861 485.9508497187477,476.45858427693486" stroke="black" stroke-linecap="round" stroke-width="1" /><polyline clip-path="url(#border_clip)" fill="none" points="485.9508497187477,476.45858427693486 494.04101966249834,470.58073175401137 490.95084971874724,480.09129691696256 500.9508497187474,480.09129691696427 497.8606797749995,470.580731754012 494.77050983125156,461.0701665910598 484.77050983125133,461.07016659105807 487.8606797750025,451.5596014281068 484.77050983125133,461.07016659105807 492.860679775,466.9480191139843 500.95084971875065,461.0701665910608 510.9508497187508,461.07016659106245 507.8606797750029,451.5596014281102 510.9508497187508,461.07016659106245 500.95084971875065,461.0701665910608 504.04101966250175,451.55960142810954 512.1311896062524,445.68174890518605 520.2213595500011,451.5596014281123 530.2213595500012,451.559601428114 522.1311896062506,457.43745395103747 530.2213595500012,451.559601428114 533.3115294937525,442.0490362651628 523.3115294937522,442.0490362651611 526.4016994375033,432.5384711022099 529.4918693812513,442.04903626516216 537.582039325,447.9268887880884 534.4918693812521,438.4163236251361 542.5820393250007,444.2941761480624 534.49186938125,450.1720286709858 526.4016994375014,444.2941761480596 529.4918693812525,434.7836109851084 537.5820393250033,428.9057584621849 547.5820393250034,428.9057584621866 557.5820393250036,428.9057584621884 560.6722092687515,438.41632362514065 570.6722092687518,438.41632362514235 560.6722092687515,438.41632362514065 568.7623792125023,432.53847110221716 576.8525491562509,438.41632362514343 573.7623792124997,447.92688878809463 570.6722092687485,457.4374539510458 562.5820393249999,451.55960142811955 559.4918693812486,461.0701665910708" stroke="black" stroke-linecap="round" stroke-width="1" /><polyline clip-path="url(#border_clip)" fill="none" points="559.4918693812486,461.0701665910708 569.4918693812489,461.0701665910725 577.5820393249976,466.9480191139988 574.4918693812497,457.4374539510465 571.4016994374985,466.9480191139977 563.3115294937478,472.82587163692114 571.4016994374985,466.9480191139977 561.4016994374982,466.94801911399594 553.3115294937476,472.82587163691943 556.4016994374954,482.3364367998717 548.3115294937447,488.21428932279514 558.311529493745,488.2142893227969 550.2213595499964,482.3364367998706 542.1311896062477,476.45858427694435 539.0410196624965,485.96914943989555 535.9508497187486,476.45858427694327 544.0410196624973,482.33643679986955 547.1311896062451,491.8470019628218 537.1311896062449,491.84700196282006 534.0410196624937,501.35756712577125 542.1311896062443,495.4797146028478 545.2213595499923,504.9902797658001 535.221359549992,504.9902797657984 525.2213595499918,504.99027976579663 533.3115294937425,499.1124272428732 523.3115294937423,499.1124272428714 520.2213595499911,508.62299240582263 528.3115294937397,514.5008449287488 536.4016994374883,520.3786974516752 546.4016994374886,520.378697451677 549.4918693812364,529.8892626146293 557.582039324987,524.0114100917058 547.5820393249869,524.0114100917041 544.491869381239,514.5008449287517 552.5820393249876,520.378697451678 560.6722092687382,514.5008449287546 552.5820393249896,508.6229924058283 555.672209268741,499.1124272428771 552.5820393249896,508.6229924058283 562.5820393249899,508.6229924058301 565.6722092687412,499.1124272428789 562.5820393249933,489.6018620799266 554.4918693812447,483.72400955700033" stroke="black" stroke-linecap="round" stroke-width="1" /><polyline clip-path="url(#border_clip)" fill="none" points="554.4918693812447,483.72400955700033 546.4016994374961,477.846157034074 538.3115294937475,471.9683045111477 535.2213595499996,462.45773934819545 527.131189606251,456.5798868252691 535.2213595500017,450.7020343023457 525.2213595500015,450.7020343023439 528.3115294937494,460.2125994652962 536.401699437498,466.0904519882225 546.4016994374981,466.0904519882243 554.4918693812467,471.9683045111506 562.5820393249975,466.0904519882272 559.4918693812463,475.6010171511784 556.4016994374983,466.09045198822605 553.3115294937505,456.5798868252738 556.4016994374983,466.09045198822605 553.3115294937505,456.5798868252738 550.2213595500027,447.0693216623215 547.1311896062515,456.57988682527264 550.2213595500027,447.0693216623215 560.221359550003,447.06932166232326 557.1311896062517,456.57988682527446 560.2213595499995,466.09045198822673 557.1311896062517,456.57988682527446 560.2213595499995,466.09045198822673 557.1311896062482,475.6010171511779 554.0410196625004,466.09045198822565 545.9508497187497,471.96830451114903 554.0410196624983,477.84615703407536 562.131189606247,483.7240095570017 570.2213595499976,477.8461570340783 573.3115294937454,487.3567221970306 570.2213595499976,477.8461570340783 560.2213595499974,477.8461570340765 557.1311896062462,487.3567221970277 549.0410196624954,493.23457471995107 557.131189606244,499.1124272428774 549.0410196624954,493.23457471995107 557.1311896062462,487.3567221970277 560.221359549994,496.86728735997997 557.1311896062427,506.37785252293116 547.1311896062425,506.37785252292935 539.0410196624917,512.2557050458528" stroke="black" stroke-linecap="round" stroke-width="1" /><polyline clip-path="url(#border_clip)" fill="none" points="539.0410196624917,512.2557050458528 542.131189606243,502.7451398829016 539.0410196624917,512.2557050458528 542.1311896062396,521.766270208805 550.2213595499903,515.8884176858817 553.3115294937381,525.398982848834 545.2213595499895,519.5211303259076 535.2213595499893,519.5211303259058 543.3115294937379,525.3989828488321 533.3115294937377,525.3989828488303 536.4016994374889,515.8884176858792 546.4016994374891,515.888417685881 549.4918693812369,525.3989828488333 546.4016994374856,534.9095480117845 538.311529493735,540.7874005347079 530.2213595499842,546.6652530576313 522.1311896062356,540.787400534705 514.0410196624848,546.6652530576283 522.1311896062356,540.787400534705 519.0410196624842,550.2979656976561 509.0410196624841,550.2979656976543 505.95084971873627,540.7874005347019 502.8606797749885,531.2768353717496 512.8606797749887,531.2768353717514 509.77050983124093,521.7662702087991 501.68033988749016,527.6441227317225 491.68033988748994,527.6441227317206 499.77050983123854,533.521975254647 496.68033988749073,524.0114100916946 499.77050983124207,514.5008449287435 496.68033988749073,524.0114100916946 504.7705098312415,518.1335575687713 507.86067977499283,508.6229924058201 499.7705098312443,502.74513988289374 502.86067977499556,493.23457471994254 494.7705098312448,499.1124272428659 504.770509831245,499.1124272428678 514.7705098312452,499.11242724286967 511.6803398874975,489.60186207991734 519.770509831246,495.4797146028437 509.7705098312458,495.47971460284185 501.68033988749727,489.60186207991546 509.77050983124803,483.7240095569921" stroke="black" stroke-linecap="round" stroke-width="1" /><polyline clip-path="url(#border_clip)" fill="none" points="509.77050983124803,483.7240095569921 506.6803398875003,474.21344439403975 503.59016994374895,483.72400955699095 495.5000000000004,477.84615703406456 503.59016994375116,471.9683045111412 511.68033988750193,466.09045198821786 508.5901699437506,475.601017151169 516.6803398875013,469.7231646282457 513.5901699437536,460.21259946529335 503.5901699437534,460.2125994652915 493.59016994375315,460.2125994652896 485.5000000000024,466.0904519882129 477.40983005625384,460.21259946528653 474.3196601125025,469.7231646282377 482.40983005625327,463.84531210531435 490.5000000000018,469.72316462824074 480.5000000000016,469.72316462823886 477.4098300562502,479.23372979119006 487.4098300562505,479.23372979119193 490.4999999999982,488.74429495414427 487.4098300562505,479.23372979119193 479.31966011249966,485.11158231411525 482.4098300562474,494.6221474770676 490.49999999999596,500.49999999999403 500.4999999999962,500.4999999999959 510.4999999999964,500.49999999999784 520.4999999999967,500.4999999999997 528.5901699437452,506.3778525229261 538.5901699437454,506.37785252292804 535.4999999999941,515.8884176858792 543.5901699437449,510.01056516295586 535.4999999999964,504.13271264002947 525.499999999996,504.13271264002753 517.4098300562453,510.01056516295085 507.4098300562451,510.010565162949 504.3196601124937,519.5211303259001 501.229490168746,510.0105651629478 509.3196601124945,515.8884176858742 517.409830056243,521.7662702088006 509.3196601124945,515.8884176858742 517.409830056243,521.7662702088006 525.4999999999916,527.6441227317271 522.4098300562439,518.1335575687747" stroke="black" stroke-linecap="round" stroke-width="1" /><polyline clip-path="url(#border_clip)" fill="none" points="522.4098300562439,518.1335575687747 525.4999999999916,527.6441227317271 517.4098300562408,533.5219752546503 514.319660112493,524.011410091698 506.2294901687445,518.1335575687716 514.319660112493,524.011410091698 506.2294901687445,518.1335575687716 503.1393202249968,508.6229924058192 511.2294901687454,514.5008449287457 514.3196601124968,504.99027976579447 504.31966011249654,504.99027976579254 494.3196601124963,504.9902797657906 491.2294901687449,514.5008449287418 483.13932022499637,508.62299240581535 491.2294901687449,514.5008449287418 499.3196601124957,508.6229924058185 496.229490168748,499.11242724286615 499.3196601124994,489.60186207991495 489.31966011249915,489.601862079913 499.3196601124994,489.60186207991495 496.229490168748,499.11242724286615 488.13932022499944,493.2345747199397 485.04915028125174,483.7240095569873 493.13932022500256,477.84615703406405 496.22949016875396,468.33559187111285 499.31966011250165,477.84615703406524 496.22949016875396,468.33559187111285 488.13932022500546,462.4577393481864 485.0491502812541,471.9683045111376 476.9589803375055,466.09045198821116 486.95898033750575,466.0904519882131 495.0491502812566,460.2125994652898 485.04915028125635,460.21259946528784 493.13932022500717,454.3347469423646 496.22949016875486,463.8453121053169 488.13932022500404,469.7231646282402 480.0491502812555,463.8453121053137 476.95898033750785,454.3347469423614 480.04915028125924,444.8241817794102 483.1393202250107,435.31361661645906 493.1393202250109,435.31361661646105 496.22949016876237,425.8030514535099 493.1393202250109,435.31361661646105" stroke="black" stroke-linecap="round" stroke-width="1" /><polyline clip-path="url(#border_clip)" fill="none" points="493.1393202250109,435.31361661646105 490.0491502812632,425.80305145350866 498.1393202250141,419.9251989305854 506.2294901687626,425.8030514535119 514.3196601125111,431.68090397643834 506.22949016876026,437.5587564993616 514.3196601125088,443.4366090222881 517.4098300562601,433.9260438593369 525.500000000011,428.04819133641365 515.5000000000108,428.0481913364117 523.5901699437593,433.92604385933817 526.680339887507,443.43660902229055 523.5901699437593,433.92604385933817 520.5000000000078,443.4366090222893 523.5901699437555,452.9471741852417 533.5901699437558,452.9471741852437 536.6803398875034,462.45773934819607 539.7705098312548,452.94717418524493 531.680339887504,458.8250267081682 523.5901699437532,464.70287923109146 531.6803398875016,470.58073175401796 521.6803398875014,470.5807317540159 529.7705098312523,464.70287923109265 539.7705098312525,464.7028792310947 536.6803398875011,474.21344439404584 544.7705098312496,480.09129691697234 541.6803398875019,470.58073175401995 551.6803398875022,470.58073175402194 548.5901699437507,480.0912969169731 545.4999999999992,489.6018620799243 542.4098300562516,480.0912969169718 539.3196601125002,489.601862079923 547.4098300562487,495.4797146028495 555.4999999999994,489.60186207992626 563.5901699437503,483.724009557003 566.6803398875018,474.21344439405186 576.680339887502,474.2134443940539 573.5901699437544,464.7028792311015 570.500000000003,474.21344439405266 560.5000000000027,474.2134443940506 568.5901699437536,468.33559187112735 565.5000000000059,458.82502670817496 557.409830056255,464.7028792310982" stroke="black" stroke-linecap="round" stroke-width="1" /><polyline clip-path="url(#border_clip)" fill="none" points="557.409830056255,464.7028792310982 549.3196601125065,458.8250267081717 557.409830056255,464.7028792310982 560.5000000000066,455.1923140681471 552.4098300562581,449.3144615452206 542.4098300562579,449.31446154521853 534.319660112507,455.1923140681418 526.2294901687561,461.070166591065 518.1393202250052,466.94801911398827 508.139320225005,466.9480191139862 500.04915028125413,472.8258716369094 496.9589803375065,463.31530647395704 493.86881039375504,472.8258716369082 503.86881039375527,472.8258716369102 511.95898033750615,466.948019113987 515.0491502812577,457.4374539510359 523.1393202250085,451.5596014281126 520.0491502812608,442.0490362651602 528.1393202250093,447.9268887880867 518.1393202250091,447.92688878808474 508.1393202250089,447.9268887880827 518.1393202250091,447.92688878808474 508.1393202250089,447.9268887880827 498.13932022500865,447.92688878808065 506.2294901687571,453.80474131100715 498.13932022500865,447.92688878808065 501.2294901687601,438.4163236251295 509.3196601125086,444.294176148056 519.3196601125088,444.29417614805806 509.3196601125086,444.294176148056 519.3196601125088,444.29417614805806 527.4098300562573,450.1720286709846 517.4098300562571,450.17202867098257 520.5000000000047,459.68259383393496 528.5901699437555,453.80474131101175 536.6803398875064,447.92688878808855 533.5901699437588,438.4163236251361 543.5901699437591,438.4163236251382 533.5901699437588,438.4163236251361 530.5000000000073,447.92688878808724 538.5901699437558,453.8047413110138 541.6803398875034,463.31530647396625 549.7705098312542,457.43745395104304" stroke="black" stroke-linecap="round" stroke-width="1" /><polyline clip-path="url(#border_clip)" fill="none" points="549.7705098312542,457.43745395104304 541.6803398875034,463.31530647396625 538.5901699437558,453.8047413110138 548.590169943756,453.8047413110159 556.6803398875045,459.6825938339424 553.5901699437529,469.19315899689354 556.6803398875005,478.703724159846 548.5901699437521,472.82587163691943 556.6803398875005,478.703724159846 566.6803398875008,478.7037241598481 563.5901699437533,469.19315899689565 573.5901699437535,469.19315899689775 565.5000000000026,475.0710115198209 562.409830056251,484.58157668277204 570.5000000000019,478.7037241598489 567.4098300562504,488.21428932279997 559.319660112502,482.3364367998734 562.4098300562536,472.8258716369223 572.4098300562538,472.8258716369244 580.5000000000022,478.70372415985094 583.5901699437497,488.2142893228034 586.6803398874973,497.7248544857558 578.5901699437463,503.602707008679 581.6803398874939,513.1132721716315 578.5901699437463,503.602707008679 586.6803398874948,509.4805595316056 583.5901699437433,518.9911246945567 573.590169943743,518.9911246945546 563.5901699437428,518.9911246945525 566.6803398874944,509.4805595316014 556.680339887494,509.4805595315993 559.7705098312416,518.9911246945517 556.68033988749,528.5016898575028 564.770509831241,522.6238373345797 554.7705098312407,522.6238373345775 546.6803398874923,516.7459848116509 554.7705098312407,522.6238373345775 551.6803398874932,513.1132721716251 543.5901699437447,507.2354196486985 535.4999999999939,513.1132721716217 527.4098300562454,507.2354196486951 530.499999999993,516.7459848116475 533.5901699437445,507.2354196486964" stroke="black" stroke-linecap="round" stroke-width="1" /><polyline clip-path="url(#border_clip)" fill="none" points="533.5901699437445,507.2354196486964 536.6803398874961,497.72485448574525 526.6803398874958,497.72485448574315 534.7705098312467,491.84700196281995 531.6803398874952,501.3575671257711 523.5901699437443,507.23541964869423 520.4999999999967,497.7248544857418 510.4999999999965,497.7248544857397 518.5901699437449,503.6027070086663 510.499999999994,509.48055953158945 507.40983005624645,499.969994368637 504.3196601124989,490.45942920568456 512.4098300562473,496.3372817286112 509.31966011249983,486.8267165656587 499.31966011249955,486.82671656565657 496.229490168748,496.3372817286077 493.13932022499637,505.84784689155885 496.2294901687439,515.3584120545113 488.13932022499296,521.2362645774344 496.2294901687414,527.114117100361 493.13932022499387,517.6035519374086 501.2294901687448,511.72569941448546 498.1393202249932,521.2362645774366 506.2294901687416,527.1141171003632 509.31966011249324,517.603551937412 519.3196601124935,517.6035519374142 509.31966011249324,517.603551937412 512.4098300562407,527.1141171003645 522.4098300562409,527.1141171003667 530.4999999999919,521.2362645774435 533.5901699437436,511.7256994144924 536.6803398874952,502.2151342515413 539.7705098312467,492.7045690885902 547.8606797749977,486.826716565667 550.9508497187493,477.31615140271595 559.0410196624978,483.19400392564256 555.9508497187502,473.6834387626901 547.8606797749993,479.56129128561327 544.7705098312476,489.07185644856435 547.8606797749951,498.5824216115168 544.7705098312435,508.09298677446793 552.8606797749919,513.9708392973946 542.8606797749917,513.9708392973924" stroke="black" stroke-linecap="round" stroke-width="1" /><polyline clip-path="url(#border_clip)" fill="none" points="542.8606797749917,513.9708392973924 550.9508497187427,508.0929867744693 559.0410196624937,502.21513425154615 550.9508497187427,508.0929867744693 559.0410196624937,502.21513425154615 567.1311896062446,496.337281728623 557.1311896062443,496.33728172862084 567.1311896062446,496.337281728623 570.221359549992,505.8478468915755 560.2213595499918,505.8478468915733 552.1311896062408,511.72569941449643 560.2213595499918,505.8478468915733 552.1311896062408,511.72569941449643 542.1311896062406,511.7256994144942 550.2213595499916,505.8478468915711 542.1311896062431,499.96999436864445 539.0410196624915,509.4805595315956 535.9508497187398,518.9911246945467 544.0410196624882,524.8689772174733 535.9508497187372,530.7468297403965 544.0410196624882,524.8689772174733 540.9508497187408,515.3584120545208 530.9508497187405,515.3584120545187 522.8606797749921,509.480559531592 519.7705098312405,518.9911246945431 522.8606797749921,509.480559531592 530.9508497187405,515.3584120545187 522.8606797749895,521.2362645774418 512.8606797749893,521.2362645774396 509.7705098312418,511.7256994144871 501.6803398874934,505.84784689156044 511.6803398874937,505.84784689156265 501.6803398874934,505.84784689156044 493.5901699437424,511.72569941448353 501.6803398874908,517.6035519374102 493.5901699437398,523.4814044603334 496.68033988749147,513.9708392973822 493.590169943744,504.4602741344297 490.4999999999924,513.9708392973808 487.4098300562449,504.46027413442835 497.4098300562452,504.46027413443056 500.4999999999926,513.9708392973831 492.4098300562416,519.8486918203062" stroke="black" stroke-linecap="round" stroke-width="1" /><polyline clip-path="url(#border_clip)" fill="none" points="492.4098300562416,519.8486918203062 482.40983005624133,519.8486918203039 474.31966011249295,513.9708392973772 466.2294901687446,508.09298677445054 469.31966011249625,498.58242161149946 461.2294901687479,492.7045690885727 469.31966011249625,498.58242161149946 459.31966011249597,498.5824216114972 456.22949016874855,489.07185644854474 464.31966011249955,483.19400392562164 472.4098300562506,477.31615140269855 475.499999999998,486.82671656565105 483.590169943749,480.94886404272796 475.5000000000006,475.07101151980123 472.4098300562532,465.56044635684873 469.31966011250154,475.07101151979987 477.40983005625253,469.1931589968768 487.4098300562528,469.19315899687905 477.40983005625253,469.1931589968768 485.5000000000009,475.0710115198035 495.5000000000012,475.0710115198058 498.5901699437529,465.56044635685464 508.59016994375315,465.5604463568569 500.50000000000483,459.6825938339302 503.59016994375224,469.1931589968827 506.68033988749966,478.7037241598352 514.7705098312507,472.8258716369121 511.680339887499,482.33643679986324 508.59016994375156,472.82587163691073 511.68033988750324,463.3153064739596 519.7705098312516,469.1931589968863 527.8606797750026,463.3153064739633 517.8606797750024,463.315306473961 520.9508497187541,453.80474131100993 529.0410196625024,459.6825938339366 537.1311896062508,465.5604463568634 527.1311896062506,465.5604463568611 535.221359549999,471.43829887978785 543.31152949375,465.56044635686476 540.2213595500026,456.04988119391226 537.1311896062551,446.53931603095975 529.0410196625068,440.661463508033 532.1311896062585,431.15089834508194" stroke="black" stroke-linecap="round" stroke-width="1" /><polyline clip-path="url(#border_clip)" fill="none" points="532.1311896062585,431.15089834508194 522.1311896062582,431.15089834507967 530.2213595500066,437.0287508680064 527.1311896062549,446.5393160309575 524.0410196625074,437.028750868005 514.0410196625072,437.0287508680027 517.1311896062546,446.5393160309552 509.0410196625035,452.41716855387824 517.1311896062546,446.5393160309552 509.04101966250624,440.6614635080285 500.9508497187552,446.5393160309515 497.86067977500346,456.0498811939026 500.9508497187508,465.5604463568551 504.04101966249823,475.07101151980766 507.1311896062456,484.58157668276016 504.04101966249385,494.09214184571124 507.13118960624126,503.60270700866374 497.131189606241,503.60270700866147 505.2213595499893,509.48055953158826 508.3115294937411,499.9699943686371 505.2213595499937,490.4594292056846 497.1311896062453,484.5815766827579 494.04101966249794,475.0710115198053 484.04101966249766,475.07101151980305 492.1311896062487,469.19315899688 489.041019662497,478.7037241598311 485.9508497187452,488.2142893227822 489.041019662497,478.7037241598311 485.9508497187452,488.2142893227822 482.86067977499346,497.7248544857333 490.9508497187445,491.8470019628103 482.86067977499346,497.7248544857333 474.77050983124514,491.84700196280653 482.8606797749962,485.9691494398835 485.9508497187479,476.4585842769324 482.8606797749962,485.9691494398835 485.9508497187479,476.4585842769324 494.041019662499,470.5807317540094 490.95084971874724,480.09129691696046 500.9508497187475,480.0912969169628 497.86067977500016,470.58073175401023 494.7705098312528,461.0701665910577 484.7705098312525,461.0701665910554" stroke="black" stroke-linecap="round" stroke-width="1" /><polyline clip-path="url(#border_clip)" fill="none" points="484.7705098312525,461.0701665910554 487.8606797750043,451.5596014281043 484.7705098312525,461.0701665910554 492.86067977500085,466.9480191139822 500.95084971875195,461.07016659105915 510.95084971875224,461.0701665910615 507.8606797750049,451.559601428109 510.95084971875224,461.0701665910615 500.95084971875195,461.07016659105915 504.04101966250374,451.55960142810807 512.1311896062548,445.68174890518503 520.2213595500032,451.5596014281118 530.2213595500034,451.55960142811415 522.1311896062523,457.4374539510372 530.2213595500034,451.55960142811415 533.3115294937552,442.04903626516307 523.311529493755,442.04903626516074 526.4016994375067,432.53847110220966 529.4918693812541,442.04903626516216 537.5820393250024,447.926888788089 534.491869381255,438.41632362513644 542.5820393250034,444.29417614806323 534.4918693812523,450.17202867098626 526.401699437504,444.2941761480595 529.4918693812558,434.78361098510834 537.5820393250069,428.90575846218536 547.5820393250071,428.9057584621877 557.5820393250075,428.9057584621901 560.6722092687548,438.4163236251426 570.6722092687551,438.41632362514497 560.6722092687548,438.4163236251426 568.762379212506,432.5384711022196 576.8525491562542,438.41632362514645 573.7623792125024,447.92688878809753 570.6722092687506,457.4374539510486 562.5820393250023,451.55960142812177 559.4918693812505,461.07016659107285 569.4918693812508,461.07016659107524 577.5820393249991,466.9480191140021 574.4918693812517,457.4374539510495 571.4016994374999,466.9480191140006 563.3115294937488,472.8258716369236 571.4016994374999,466.9480191140006" stroke="black" stroke-linecap="round" stroke-width="1" /><polyline clip-path="url(#border_clip)" fill="none" points="571.4016994374999,466.9480191140006 561.4016994374997,466.9480191139982 553.3115294937486,472.8258716369212 556.4016994374958,482.33643679987375 548.3115294937447,488.21428932279673 558.3115294937451,488.2142893227991 550.2213595499967,482.3364367998723 542.1311896062484,476.45858427694543 539.0410196624965,485.96914943989657 535.9508497187493,476.458584276944 544.0410196624975,482.33643679987085 547.1311896062449,491.8470019628234 537.1311896062446,491.847001962821 534.0410196624928,501.3575671257721 542.1311896062439,495.4797146028491 545.2213595499911,504.9902797658017 535.2213595499909,504.9902797657993 525.2213595499906,504.9902797657969 533.3115294937417,499.11242724287393 523.3115294937413,499.1124272428715 520.2213595499895,508.62299240582263 528.3115294937378,514.5008449287494 536.4016994374862,520.3786974516763 546.4016994374864,520.3786974516787 549.4918693812338,529.8892626146313 557.5820393249849,524.0114100917083 547.5820393249845,524.0114100917059 544.4918693812373,514.5008449287533 552.5820393249855,520.3786974516802 560.6722092687367,514.5008449287573 552.5820393249884,508.62299240583036 555.6722092687403,499.1124272428793 552.5820393249884,508.62299240583036 562.5820393249887,508.62299240583275 565.6722092687405,499.1124272428817 562.5820393249933,489.6018620799291 554.491869381245,483.72400955700226 546.4016994374967,477.8461570340754 538.3115294937484,471.9683045111485 535.2213595500011,462.45773934819596 527.1311896062529,456.5798868252691 535.221359550004,450.70203430234614 525.2213595500036,450.7020343023437" stroke="black" stroke-linecap="round" stroke-width="1" /><polyline clip-path="url(#border_clip)" fill="none" points="525.2213595500036,450.7020343023437 528.3115294937509,460.2125994652963 536.4016994374992,466.09045198822315 546.4016994374995,466.0904519882256 554.4918693812479,471.96830451115244 562.582039324999,466.0904519882295 559.491869381247,475.6010171511806 556.4016994374998,466.090451988228 553.3115294937526,456.5798868252754 556.4016994374998,466.090451988228 553.3115294937526,456.5798868252754 550.2213595500053,447.06932166232286 547.1311896062534,456.57988682527395 550.2213595500053,447.06932166232286 560.2213595500057,447.06932166232525 557.1311896062538,456.57988682527633 560.221359550001,466.09045198822895 557.1311896062538,456.57988682527633 560.221359550001,466.09045198822895 557.1311896062491,475.60101715118003 554.0410196625019,466.0904519882274 545.9508497187506,471.96830451115034 554.041019662499,477.84615703407724 562.1311896062473,483.72400955700414 570.2213595499984,477.8461570340812 573.3115294937456,487.3567221970338 570.2213595499984,477.8461570340812 560.2213595499982,477.8461570340788 557.1311896062463,487.35672219702985 549.041019662495,493.2345747199528 557.1311896062433,499.1124272428797 549.041019662495,493.2345747199528 557.1311896062463,487.35672219702985 560.2213595499935,496.8672873599824 557.1311896062416,506.3778525229335 547.1311896062413,506.37785252293105 539.04101966249,512.2557050458539 542.131189606242,502.7451398829029 539.04101966249,512.2557050458539 542.1311896062373,521.7662702088065 550.2213595499885,515.8884176858836 553.3115294937357,525.3989828488362 545.2213595499875,519.5211303259093" stroke="black" stroke-linecap="round" stroke-width="1" /><polyline clip-path="url(#border_clip)" fill="none" points="545.2213595499875,519.5211303259093 535.2213595499871,519.5211303259068 543.3115294937354,525.3989828488337 533.3115294937351,525.3989828488312 536.401699437487,515.8884176858802 546.4016994374873,515.8884176858827 549.4918693812346,525.3989828488352 546.4016994374826,534.9095480117863 538.3115294937314,540.7874005347093 530.2213595499802,546.6652530576322 522.1311896062319,540.7874005347052 514.0410196624808,546.6652530576281 522.1311896062319,540.7874005347052 519.04101966248,550.2979656976563 509.04101966247975,550.2979656976538 505.95084971873257,540.7874005347012 502.86067977498533,531.2768353717486 512.8606797749857,531.2768353717511 509.7705098312384,521.7662702087985 501.68033988748726,527.6441227317214 491.6803398874869,527.6441227317189 499.7705098312352,533.5219752546458 496.680339887488,524.0114100916933 499.77050983123996,514.5008449287421 496.680339887488,524.0114100916933 504.7705098312392,518.1335575687704 507.8606797749911,508.6229924058193 499.7705098312429,502.7451398828923 502.8606797749948,493.2345747199413 494.77050983124366,499.11242724286416 504.77050983124394,499.11242724286666 514.7705098312442,499.11242724286916 511.6803398874971,489.6018620799166 519.7705098312454,495.4797146028435 509.770509831245,495.479714602841 501.68033988749676,489.60186207991404 509.770509831248,483.7240095569912 506.6803398875008,474.21344439403856 503.59016994374883,483.72400955698964 495.50000000000057,477.8461570340627 503.5901699437518,471.9683045111398 511.680339887503,466.0904519882169 508.590169943751,475.601017151168" stroke="black" stroke-linecap="round" stroke-width="1" /><polyline clip-path="url(#border_clip)" fill="none" points="508.590169943751,475.601017151168 516.6803398875022,469.72316462824506 513.5901699437551,460.21259946529244 503.59016994375474,460.21259946528994 493.5901699437544,460.21259946528744 485.50000000000324,466.0904519882103 477.409830056255,460.21259946528335 474.319660112503,469.7231646282344 482.40983005625424,463.8453121053115 490.50000000000244,469.72316462823846 480.50000000000216,469.72316462823596 477.40983005625014,479.233729791187 487.4098300562505,479.23372979118955 490.4999999999976,488.74429495414216 487.4098300562505,479.23372979118955 479.31966011249926,485.1115823141124 482.4098300562464,494.622147477065 490.49999999999466,500.499999999992 500.499999999995,500.49999999999454" stroke="black" stroke-linecap="round" stroke-width="1" /></svg>