<?xml version="1.0" encoding="UTF-8"?>
<svg width="1e4px" height="1e4px" baseProfile="full" version="1.1" viewBox="4966.2 4919.9 130.45 130.37" xmlns="http://www.w3.org/2000/svg">
<defs>
<clipPath id="a">
<rect width="1e4" height="1e4"/>
</clipPath>
</defs>
<polyline points="5000.5 5000.5 5010.5 5000.5 5020.5 5000.5 5030.5 5000.5 5038.6 5006.4 5048.6 5006.4 5045.5 5015.9 5053.6 5010 5045.5 5004.1 5035.5 5004.1 5027.4 5010 5017.4 5010 5014.3 5019.5 5011.2 5010 5019.3 5015.9 5027.4 5021.8 5019.3 5015.9 5027.4 5021.8 5035.5 5027.6 5032.4 5018.1 5035.5 5027.6 5027.4 5033.5 5024.3 5024 5016.2 5018.1 5024.3 5024 5016.2 5018.1 5013.1 5008.6 5021.2 5014.5 5024.3 5005 5014.3 5005 5004.3 5005 5001.2 5014.5 4993.1 5008.6 5001.2 5014.5 5009.3 5008.6 5006.2 4999.1 5009.3 4989.6 4999.3 4989.6 5009.3 4989.6 5006.2 4999.1 4998.1 4993.2 4995 4983.7 5003.1 4977.8" clip-path="url(#a)" fill="none" stroke="#000" stroke-linecap="round"/>
<polyline points="5003.1 4977.8 5006.2 4968.3 5009.3 4977.8 5006.2 4968.3 4998.1 4962.5 4995 4972 4987 4966.1 4997 4966.1 5005 4960.2 4995 4960.2 5003.1 4954.3 5006.2 4963.8 4998.1 4969.7 4990 4963.8 4987 4954.3 4990 4944.8 4993.1 4935.3 5003.1 4935.3 5006.2 4925.8 5003.1 4935.3 5e3 4925.8 5008.1 4919.9 5016.2 4925.8 5024.3 4931.7 5016.2 4937.6 5024.3 4943.4 5027.4 4933.9 5035.5 4928 5025.5 4928 5033.6 4933.9 5036.7 4943.4 5033.6 4933.9 5030.5 4943.4 5033.6 4952.9 5043.6 4952.9 5046.7 4962.5 5049.8 4952.9 5041.7 4958.8 5033.6 4964.7 5041.7 4970.6 5031.7 4970.6 5039.8 4964.7 5049.8 4964.7" clip-path="url(#a)" fill="none" stroke="#000" stroke-linecap="round"/>
<polyline points="5049.8 4964.7 5046.7 4974.2 5054.8 4980.1 5051.7 4970.6 5061.7 4970.6 5058.6 4980.1 5055.5 4989.6 5052.4 4980.1 5049.3 4989.6 5057.4 4995.5 5065.5 4989.6 5073.6 4983.7 5076.7 4974.2 5086.7 4974.2 5083.6 4964.7 5080.5 4974.2 5070.5 4974.2 5078.6 4968.3 5075.5 4958.8 5067.4 4964.7 5059.3 4958.8 5067.4 4964.7 5070.5 4955.2 5062.4 4949.3 5052.4 4949.3 5044.3 4955.2 5036.2 4961.1 5028.1 4966.9 5018.1 4966.9 5010 4972.8 5007 4963.3 5003.9 4972.8 5013.9 4972.8 5022 4966.9 5025 4957.4 5033.1 4951.6 5030 4942 5038.1 4947.9 5028.1 4947.9 5018.1 4947.9 5028.1 4947.9 5018.1 4947.9 5008.1 4947.9" clip-path="url(#a)" fill="none" stroke="#000" stroke-linecap="round"/>
<polyline points="5008.1 4947.9 5016.2 4953.8 5008.1 4947.9 5011.2 4938.4 5019.3 4944.3 5029.3 4944.3 5019.3 4944.3 5029.3 4944.3 5037.4 4950.2 5027.4 4950.2 5030.5 4959.7 5038.6 4953.8 5046.7 4947.9 5043.6 4938.4 5053.6 4938.4 5043.6 4938.4 5040.5 4947.9 5048.6 4953.8 5051.7 4963.3 5059.8 4957.4 5051.7 4963.3 5048.6 4953.8 5058.6 4953.8 5066.7 4959.7 5063.6 4969.2 5066.7 4978.7 5058.6 4972.8 5066.7 4978.7 5076.7 4978.7 5073.6 4969.2 5083.6 4969.2 5075.5 4975.1 5072.4 4984.6 5080.5 4978.7 5077.4 4988.2 5069.3 4982.3 5072.4 4972.8 5082.4 4972.8 5090.5 4978.7 5093.6 4988.2 5096.7 4997.7 5088.6 5003.6 5091.7 5013.1" clip-path="url(#a)" fill="none" stroke="#000" stroke-linecap="round"/>
<polyline points="5091.7 5013.1 5088.6 5003.6 5096.7 5009.5 5093.6 5019 5083.6 5019 5073.6 5019 5076.7 5009.5 5066.7 5009.5 5069.8 5019 5066.7 5028.5 5074.8 5022.6 5064.8 5022.6 5056.7 5016.7 5064.8 5022.6 5061.7 5013.1 5053.6 5007.2 5045.5 5013.1 5037.4 5007.2 5040.5 5016.7 5043.6 5007.2 5046.7 4997.7 5036.7 4997.7 5044.8 4991.8 5041.7 5001.4 5033.6 5007.2 5030.5 4997.7 5020.5 4997.7 5028.6 5003.6 5020.5 5009.5 5017.4 5e3 5014.3 4990.5 5022.4 4996.3 5019.3 4986.8 5009.3 4986.8 5006.2 4996.3 5003.1 5005.8 5006.2 5015.4 4998.1 5021.2 5006.2 5027.1 5003.1 5017.6 5011.2 5011.7 5008.1 5021.2 5016.2 5027.1" clip-path="url(#a)" fill="none" stroke="#000" stroke-linecap="round"/>
<polyline points="5016.2 5027.1 5019.3 5017.6 5029.3 5017.6 5019.3 5017.6 5022.4 5027.1 5032.4 5027.1 5040.5 5021.2 5043.6 5011.7 5046.7 5002.2 5049.8 4992.7 5057.9 4986.8 5061 4977.3 5069 4983.2 5066 4973.7 5057.9 4979.6 5054.8 4989.1 5057.9 4998.6 5054.8 5008.1 5062.9 5014 5052.9 5014 5061 5008.1 5069 5002.2 5061 5008.1 5069 5002.2 5077.1 4996.3 5067.1 4996.3 5077.1 4996.3 5080.2 5005.8 5070.2 5005.8 5062.1 5011.7 5070.2 5005.8 5062.1 5011.7 5052.1 5011.7 5060.2 5005.8 5052.1 5e3 5049 5009.5 5046 5019 5054 5024.9 5046 5030.7 5054 5024.9 5051 5015.4 5041 5015.4 5032.9 5009.5" clip-path="url(#a)" fill="none" stroke="#000" stroke-linecap="round"/>
<polyline points="5032.9 5009.5 5029.8 5019 5032.9 5009.5 5041 5015.4 5032.9 5021.2 5022.9 5021.2 5019.8 5011.7 5011.7 5005.8 5021.7 5005.8 5011.7 5005.8 5003.6 5011.7 5011.7 5017.6 5003.6 5023.5 5006.7 5014 5003.6 5004.5 5000.5 5014 4997.4 5004.5 5007.4 5004.5 5010.5 5014 5002.4 5019.8 4992.4 5019.8 4984.3 5014 4976.2 5008.1 4979.3 4998.6 4971.2 4992.7 4979.3 4998.6 4969.3 4998.6 4966.2 4989.1 4974.3 4983.2 4982.4 4977.3 4985.5 4986.8 4993.6 4980.9 4985.5 4975.1 4982.4 4965.6 4979.3 4975.1 4987.4 4969.2 4997.4 4969.2 4987.4 4969.2 4995.5 4975.1 5005.5 4975.1 5008.6 4965.6 5018.6 4965.6 5010.5 4959.7" clip-path="url(#a)" fill="none" stroke="#000" stroke-linecap="round"/>
<polyline points="5010.5 4959.7 5013.6 4969.2 5016.7 4978.7 5024.8 4972.8 5021.7 4982.3 5018.6 4972.8 5021.7 4963.3 5029.8 4969.2 5037.9 4963.3 5027.9 4963.3 5031 4953.8 5039 4959.7 5047.1 4965.6 5037.1 4965.6 5045.2 4971.4 5053.3 4965.6 5050.2 4956 5047.1 4946.5 5039 4940.7 5042.1 4931.2 5032.1 4931.2 5040.2 4937 5037.1 4946.5 5034 4937 5024 4937 5027.1 4946.5 5019 4952.4 5027.1 4946.5 5019 4940.7 5011 4946.5 5007.9 4956 5011 4965.6 5014 4975.1 5017.1 4984.6 5014 4994.1 5017.1 5003.6 5007.1 5003.6 5015.2 5009.5 5018.3 5e3 5015.2 4990.5 5007.1 4984.6 5004 4975.1 4994 4975.1" clip-path="url(#a)" fill="none" stroke="#000" stroke-linecap="round"/>
<polyline points="4994 4975.1 5002.1 4969.2 4999 4978.7 4996 4988.2 4999 4978.7 4996 4988.2 4992.9 4997.7 5001 4991.8 4992.9 4997.7 4984.8 4991.8 4992.9 4986 4996 4976.5 4992.9 4986 4996 4976.5 5004 4970.6 5001 4980.1 5011 4980.1 5007.9 4970.6 5004.8 4961.1 4994.8 4961.1 4997.9 4951.6 4994.8 4961.1 5002.9 4966.9 5011 4961.1 5021 4961.1 5017.9 4951.6 5021 4961.1 5011 4961.1 5014 4951.6 5022.1 4945.7 5030.2 4951.6 5040.2 4951.6 5032.1 4957.4 5040.2 4951.6 5043.3 4942 5033.3 4942 5036.4 4932.5 5039.5 4942 5047.6 4947.9 5044.5 4938.4 5052.6 4944.3 5044.5 4950.2 5036.4 4944.3" clip-path="url(#a)" fill="none" stroke="#000" stroke-linecap="round"/>
<polyline points="5036.4 4944.3 5039.5 4934.8 5047.6 4928.9 5057.6 4928.9 5067.6 4928.9 5070.7 4938.4 5080.7 4938.4 5070.7 4938.4 5078.8 4932.5 5086.9 4938.4 5083.8 4947.9 5080.7 4957.4 5072.6 4951.6 5069.5 4961.1 5079.5 4961.1 5087.6 4966.9 5084.5 4957.4 5081.4 4966.9 5073.3 4972.8 5081.4 4966.9 5071.4 4966.9 5063.3 4972.8 5066.4 4982.3 5058.3 4988.2 5068.3 4988.2 5060.2 4982.3 5052.1 4976.5 5049 4986 5046 4976.5 5054 4982.3 5057.1 4991.8 5047.1 4991.8 5044 5001.4 5052.1 4995.5 5055.2 5005 5045.2 5005 5035.2 5005 5043.3 4999.1 5033.3 4999.1 5030.2 5008.6 5038.3 5014.5 5046.4 5020.4 5056.4 5020.4" clip-path="url(#a)" fill="none" stroke="#000" stroke-linecap="round"/>
<polyline points="5056.4 5020.4 5059.5 5029.9 5067.6 5024 5057.6 5024 5054.5 5014.5 5062.6 5020.4 5070.7 5014.5 5062.6 5008.6 5065.7 4999.1 5062.6 5008.6 5072.6 5008.6 5075.7 4999.1 5072.6 4989.6 5064.5 4983.7 5056.4 4977.8 5048.3 4972 5045.2 4962.5 5037.1 4956.6 5045.2 4950.7 5035.2 4950.7 5038.3 4960.2 5046.4 4966.1 5056.4 4966.1 5064.5 4972 5072.6 4966.1 5069.5 4975.6 5066.4 4966.1 5063.3 4956.6 5066.4 4966.1 5063.3 4956.6 5060.2 4947.1 5057.1 4956.6 5060.2 4947.1 5070.2 4947.1 5067.1 4956.6 5070.2 4966.1 5067.1 4956.6 5070.2 4966.1 5067.1 4975.6 5064 4966.1 5056 4972 5064 4977.8 5072.1 4983.7" clip-path="url(#a)" fill="none" stroke="#000" stroke-linecap="round"/>
<polyline points="5072.1 4983.7 5080.2 4977.8 5083.3 4987.4 5080.2 4977.8 5070.2 4977.8 5067.1 4987.4 5059 4993.2 5067.1 4999.1 5059 4993.2 5067.1 4987.4 5070.2 4996.9 5067.1 5006.4 5057.1 5006.4 5049 5012.3 5052.1 5002.7 5049 5012.3 5052.1 5021.8 5060.2 5015.9 5063.3 5025.4 5055.2 5019.5 5045.2 5019.5 5053.3 5025.4 5043.3 5025.4 5046.4 5015.9 5056.4 5015.9 5059.5 5025.4 5056.4 5034.9 5048.3 5040.8 5040.2 5046.7 5032.1 5040.8 5024 5046.7 5032.1 5040.8 5029 5050.3 5019 5050.3 5016 5040.8 5012.9 5031.3 5022.9 5031.3 5019.8 5021.8 5011.7 5027.6 5001.7 5027.6 5009.8 5033.5 5006.7 5024 5009.8 5014.5" clip-path="url(#a)" fill="none" stroke="#000" stroke-linecap="round"/>
<polyline points="5009.8 5014.5 5006.7 5024 5014.8 5018.1 5017.9 5008.6 5009.8 5002.7 5012.9 4993.2 5004.8 4999.1 5014.8 4999.1 5024.8 4999.1 5021.7 4989.6 5029.8 4995.5 5019.8 4995.5 5011.7 4989.6 5019.8 4983.7 5016.7 4974.2 5013.6 4983.7 5005.5 4977.8 5013.6 4972 5021.7 4966.1 5018.6 4975.6 5026.7 4969.7 5023.6 4960.2 5013.6 4960.2 5003.6 4960.2 4995.5 4966.1 4987.4 4960.2 4984.3 4969.7 4992.4 4963.8 5000.5 4969.7 4990.5 4969.7 4987.4 4979.2 4997.4 4979.2 5000.5 4988.7 4997.4 4979.2 4989.3 4985.1 4992.4 4994.6 5000.5 5000.5 5010.5 5000.5 5020.5 5000.5 5030.5 5000.5 5038.6 5006.4 5048.6 5006.4 5045.5 5015.9" clip-path="url(#a)" fill="none" stroke="#000" stroke-linecap="round"/>
<polyline points="5045.5 5015.9 5053.6 5010 5045.5 5004.1 5035.5 5004.1 5027.4 5010 5017.4 5010 5014.3 5019.5 5011.2 5010 5019.3 5015.9 5027.4 5021.8 5019.3 5015.9 5027.4 5021.8 5035.5 5027.6 5032.4 5018.1 5035.5 5027.6 5027.4 5033.5 5024.3 5024 5016.2 5018.1 5024.3 5024 5016.2 5018.1 5013.1 5008.6 5021.2 5014.5 5024.3 5005 5014.3 5005 5004.3 5005 5001.2 5014.5 4993.1 5008.6 5001.2 5014.5 5009.3 5008.6 5006.2 4999.1 5009.3 4989.6 4999.3 4989.6 5009.3 4989.6 5006.2 4999.1 4998.1 4993.2 4995 4983.7 5003.1 4977.8 5006.2 4968.3 5009.3 4977.8 5006.2 4968.3 4998.1 4962.5 4995 4972 4987 4966.1" clip-path="url(#a)" fill="none" stroke="#000" stroke-linecap="round"/>
<polyline points="4987 4966.1 4997 4966.1 5005 4960.2 4995 4960.2 5003.1 4954.3 5006.2 4963.8 4998.1 4969.7 4990 4963.8 4987 4954.3 4990 4944.8 4993.1 4935.3 5003.1 4935.3 5006.2 4925.8 5003.1 4935.3 5e3 4925.8 5008.1 4919.9 5016.2 4925.8 5024.3 4931.7 5016.2 4937.6 5024.3 4943.4 5027.4 4933.9 5035.5 4928 5025.5 4928 5033.6 4933.9 5036.7 4943.4 5033.6 4933.9 5030.5 4943.4 5033.6 4952.9 5043.6 4952.9 5046.7 4962.5 5049.8 4952.9 5041.7 4958.8 5033.6 4964.7 5041.7 4970.6 5031.7 4970.6 5039.8 4964.7 5049.8 4964.7 5046.7 4974.2 5054.8 4980.1 5051.7 4970.6 5061.7 4970.6 5058.6 4980.1 5055.5 4989.6" clip-path="url(#a)" fill="none" stroke="#000" stroke-linecap="round"/>
<polyline points="5055.5 4989.6 5052.4 4980.1 5049.3 4989.6 5057.4 4995.5 5065.5 4989.6 5073.6 4983.7 5076.7 4974.2 5086.7 4974.2 5083.6 4964.7 5080.5 4974.2 5070.5 4974.2 5078.6 4968.3 5075.5 4958.8 5067.4 4964.7 5059.3 4958.8 5067.4 4964.7 5070.5 4955.2 5062.4 4949.3 5052.4 4949.3 5044.3 4955.2 5036.2 4961.1 5028.1 4966.9 5018.1 4966.9 5010 4972.8 5007 4963.3 5003.9 4972.8 5013.9 4972.8 5022 4966.9 5025 4957.4 5033.1 4951.6 5030 4942 5038.1 4947.9 5028.1 4947.9 5018.1 4947.9 5028.1 4947.9 5018.1 4947.9 5008.1 4947.9 5016.2 4953.8 5008.1 4947.9 5011.2 4938.4 5019.3 4944.3 5029.3 4944.3 5019.3 4944.3" clip-path="url(#a)" fill="none" stroke="#000" stroke-linecap="round"/>
<polyline points="5019.3 4944.3 5029.3 4944.3 5037.4 4950.2 5027.4 4950.2 5030.5 4959.7 5038.6 4953.8 5046.7 4947.9 5043.6 4938.4 5053.6 4938.4 5043.6 4938.4 5040.5 4947.9 5048.6 4953.8 5051.7 4963.3 5059.8 4957.4 5051.7 4963.3 5048.6 4953.8 5058.6 4953.8 5066.7 4959.7 5063.6 4969.2 5066.7 4978.7 5058.6 4972.8 5066.7 4978.7 5076.7 4978.7 5073.6 4969.2 5083.6 4969.2 5075.5 4975.1 5072.4 4984.6 5080.5 4978.7 5077.4 4988.2 5069.3 4982.3 5072.4 4972.8 5082.4 4972.8 5090.5 4978.7 5093.6 4988.2 5096.7 4997.7 5088.6 5003.6 5091.7 5013.1 5088.6 5003.6 5096.7 5009.5 5093.6 5019 5083.6 5019 5073.6 5019 5076.7 5009.5" clip-path="url(#a)" fill="none" stroke="#000" stroke-linecap="round"/>
<polyline points="5076.7 5009.5 5066.7 5009.5 5069.8 5019 5066.7 5028.5 5074.8 5022.6 5064.8 5022.6 5056.7 5016.7 5064.8 5022.6 5061.7 5013.1 5053.6 5007.2 5045.5 5013.1 5037.4 5007.2 5040.5 5016.7 5043.6 5007.2 5046.7 4997.7 5036.7 4997.7 5044.8 4991.8 5041.7 5001.4 5033.6 5007.2 5030.5 4997.7 5020.5 4997.7 5028.6 5003.6 5020.5 5009.5 5017.4 5e3 5014.3 4990.5 5022.4 4996.3 5019.3 4986.8 5009.3 4986.8 5006.2 4996.3 5003.1 5005.8 5006.2 5015.4 4998.1 5021.2 5006.2 5027.1 5003.1 5017.6 5011.2 5011.7 5008.1 5021.2 5016.2 5027.1 5019.3 5017.6 5029.3 5017.6 5019.3 5017.6 5022.4 5027.1 5032.4 5027.1 5040.5 5021.2" clip-path="url(#a)" fill="none" stroke="#000" stroke-linecap="round"/>
<polyline points="5040.5 5021.2 5043.6 5011.7 5046.7 5002.2 5049.8 4992.7 5057.9 4986.8 5061 4977.3 5069 4983.2 5066 4973.7 5057.9 4979.6 5054.8 4989.1 5057.9 4998.6 5054.8 5008.1 5062.9 5014 5052.9 5014 5061 5008.1 5069 5002.2 5061 5008.1 5069 5002.2 5077.1 4996.3 5067.1 4996.3 5077.1 4996.3 5080.2 5005.8 5070.2 5005.8 5062.1 5011.7 5070.2 5005.8 5062.1 5011.7 5052.1 5011.7 5060.2 5005.8 5052.1 5e3 5049 5009.5 5046 5019 5054 5024.9 5046 5030.7 5054 5024.9 5051 5015.4 5041 5015.4 5032.9 5009.5 5029.8 5019 5032.9 5009.5 5041 5015.4 5032.9 5021.2 5022.9 5021.2 5019.8 5011.7" clip-path="url(#a)" fill="none" stroke="#000" stroke-linecap="round"/>
<polyline points="5019.8 5011.7 5011.7 5005.8 5021.7 5005.8 5011.7 5005.8 5003.6 5011.7 5011.7 5017.6 5003.6 5023.5 5006.7 5014 5003.6 5004.5 5000.5 5014 4997.4 5004.5 5007.4 5004.5 5010.5 5014 5002.4 5019.8 4992.4 5019.8 4984.3 5014 4976.2 5008.1 4979.3 4998.6 4971.2 4992.7 4979.3 4998.6 4969.3 4998.6 4966.2 4989.1 4974.3 4983.2 4982.4 4977.3 4985.5 4986.8 4993.6 4980.9 4985.5 4975.1 4982.4 4965.6 4979.3 4975.1 4987.4 4969.2 4997.4 4969.2 4987.4 4969.2 4995.5 4975.1 5005.5 4975.1 5008.6 4965.6 5018.6 4965.6 5010.5 4959.7 5013.6 4969.2 5016.7 4978.7 5024.8 4972.8 5021.7 4982.3 5018.6 4972.8 5021.7 4963.3" clip-path="url(#a)" fill="none" stroke="#000" stroke-linecap="round"/>
<polyline points="5021.7 4963.3 5029.8 4969.2 5037.9 4963.3 5027.9 4963.3 5031 4953.8 5039 4959.7 5047.1 4965.6 5037.1 4965.6 5045.2 4971.4 5053.3 4965.6 5050.2 4956 5047.1 4946.5 5039 4940.7 5042.1 4931.2 5032.1 4931.2 5040.2 4937 5037.1 4946.5 5034 4937 5024 4937 5027.1 4946.5 5019 4952.4 5027.1 4946.5 5019 4940.7 5011 4946.5 5007.9 4956 5011 4965.6 5014 4975.1 5017.1 4984.6 5014 4994.1 5017.1 5003.6 5007.1 5003.6 5015.2 5009.5 5018.3 5e3 5015.2 4990.5 5007.1 4984.6 5004 4975.1 4994 4975.1 5002.1 4969.2 4999 4978.7 4996 4988.2 4999 4978.7 4996 4988.2 4992.9 4997.7" clip-path="url(#a)" fill="none" stroke="#000" stroke-linecap="round"/>
<polyline points="4992.9 4997.7 5001 4991.8 4992.9 4997.7 4984.8 4991.8 4992.9 4986 4996 4976.5 4992.9 4986 4996 4976.5 5004 4970.6 5001 4980.1 5011 4980.1 5007.9 4970.6 5004.8 4961.1 4994.8 4961.1 4997.9 4951.6 4994.8 4961.1 5002.9 4966.9 5011 4961.1 5021 4961.1 5017.9 4951.6 5021 4961.1 5011 4961.1 5014 4951.6 5022.1 4945.7 5030.2 4951.6 5040.2 4951.6 5032.1 4957.4 5040.2 4951.6 5043.3 4942 5033.3 4942 5036.4 4932.5 5039.5 4942 5047.6 4947.9 5044.5 4938.4 5052.6 4944.3 5044.5 4950.2 5036.4 4944.3 5039.5 4934.8 5047.6 4928.9 5057.6 4928.9 5067.6 4928.9 5070.7 4938.4 5080.7 4938.4" clip-path="url(#a)" fill="none" stroke="#000" stroke-linecap="round"/>
<polyline points="5080.7 4938.4 5070.7 4938.4 5078.8 4932.5 5086.9 4938.4 5083.8 4947.9 5080.7 4957.4 5072.6 4951.6 5069.5 4961.1 5079.5 4961.1 5087.6 4966.9 5084.5 4957.4 5081.4 4966.9 5073.3 4972.8 5081.4 4966.9 5071.4 4966.9 5063.3 4972.8 5066.4 4982.3 5058.3 4988.2 5068.3 4988.2 5060.2 4982.3 5052.1 4976.5 5049 4986 5046 4976.5 5054 4982.3 5057.1 4991.8 5047.1 4991.8 5044 5001.4 5052.1 4995.5 5055.2 5005 5045.2 5005 5035.2 5005 5043.3 4999.1 5033.3 4999.1 5030.2 5008.6 5038.3 5014.5 5046.4 5020.4 5056.4 5020.4 5059.5 5029.9 5067.6 5024 5057.6 5024 5054.5 5014.5 5062.6 5020.4 5070.7 5014.5" clip-path="url(#a)" fill="none" stroke="#000" stroke-linecap="round"/>
<polyline points="5070.7 5014.5 5062.6 5008.6 5065.7 4999.1 5062.6 5008.6 5072.6 5008.6 5075.7 4999.1 5072.6 4989.6 5064.5 4983.7 5056.4 4977.8 5048.3 4972 5045.2 4962.5 5037.1 4956.6 5045.2 4950.7 5035.2 4950.7 5038.3 4960.2 5046.4 4966.1 5056.4 4966.1 5064.5 4972 5072.6 4966.1 5069.5 4975.6 5066.4 4966.1 5063.3 4956.6 5066.4 4966.1 5063.3 4956.6 5060.2 4947.1 5057.1 4956.6 5060.2 4947.1 5070.2 4947.1 5067.1 4956.6 5070.2 4966.1 5067.1 4956.6 5070.2 4966.1 5067.1 4975.6 5064 4966.1 5056 4972 5064 4977.8 5072.1 4983.7 5080.2 4977.8 5083.3 4987.4 5080.2 4977.8 5070.2 4977.8 5067.1 4987.4 5059 4993.2" clip-path="url(#a)" fill="none" stroke="#000" stroke-linecap="round"/>
<polyline points="5059 4993.2 5067.1 4999.1 5059 4993.2 5067.1 4987.4 5070.2 4996.9 5067.1 5006.4 5057.1 5006.4 5049 5012.3 5052.1 5002.7 5049 5012.3 5052.1 5021.8 5060.2 5015.9 5063.3 5025.4 5055.2 5019.5 5045.2 5019.5 5053.3 5025.4 5043.3 5025.4 5046.4 5015.9 5056.4 5015.9 5059.5 5025.4 5056.4 5034.9 5048.3 5040.8 5040.2 5046.7 5032.1 5040.8 5024 5046.7 5032.1 5040.8 5029 5050.3 5019 5050.3 5016 5040.8 5012.9 5031.3 5022.9 5031.3 5019.8 5021.8 5011.7 5027.6 5001.7 5027.6 5009.8 5033.5 5006.7 5024 5009.8 5014.5 5006.7 5024 5014.8 5018.1 5017.9 5008.6 5009.8 5002.7 5012.9 4993.2 5004.8 4999.1" clip-path="url(#a)" fill="none" stroke="#000" stroke-linecap="round"/>
<polyline points="5004.8 4999.1 5014.8 4999.1 5024.8 4999.1 5021.7 4989.6 5029.8 4995.5 5019.8 4995.5 5011.7 4989.6 5019.8 4983.7 5016.7 4974.2 5013.6 4983.7 5005.5 4977.8 5013.6 4972 5021.7 4966.1 5018.6 4975.6 5026.7 4969.7 5023.6 4960.2 5013.6 4960.2 5003.6 4960.2 4995.5 4966.1 4987.4 4960.2 4984.3 4969.7 4992.4 4963.8 5000.5 4969.7 4990.5 4969.7 4987.4 4979.2 4997.4 4979.2 5000.5 4988.7 4997.4 4979.2 4989.3 4985.1 4992.4 4994.6 5000.5 5000.5 5010.5 5000.5 5020.5 5000.5 5030.5 5000.5 5038.6 5006.4 5048.6 5006.4 5045.5 5015.9 5053.6 5010 5045.5 5004.1 5035.5 5004.1 5027.4 5010 5017.4 5010 5014.3 5019.5" clip-path="url(#a)" fill="none" stroke="#000" stroke-linecap="round"/>
<polyline points="5014.3 5019.5 5011.2 5010 5019.3 5015.9 5027.4 5021.8 5019.3 5015.9 5027.4 5021.8 5035.5 5027.6 5032.4 5018.1 5035.5 5027.6 5027.4 5033.5 5024.3 5024 5016.2 5018.1 5024.3 5024 5016.2 5018.1 5013.1 5008.6 5021.2 5014.5 5024.3 5005 5014.3 5005 5004.3 5005 5001.2 5014.5 4993.1 5008.6 5001.2 5014.5 5009.3 5008.6 5006.2 4999.1 5009.3 4989.6 4999.3 4989.6 5009.3 4989.6 5006.2 4999.1 4998.1 4993.2 4995 4983.7 5003.1 4977.8 5006.2 4968.3 5009.3 4977.8 5006.2 4968.3 4998.1 4962.5 4995 4972 4987 4966.1 4997 4966.1 5005 4960.2 4995 4960.2 5003.1 4954.3 5006.2 4963.8 4998.1 4969.7" clip-path="url(#a)" fill="none" stroke="#000" stroke-linecap="round"/>
<polyline points="4998.1 4969.7 4990 4963.8 4987 4954.3 4990 4944.8 4993.1 4935.3 5003.1 4935.3 5006.2 4925.8 5003.1 4935.3 5e3 4925.8 5008.1 4919.9 5016.2 4925.8 5024.3 4931.7 5016.2 4937.6 5024.3 4943.4 5027.4 4933.9 5035.5 4928 5025.5 4928 5033.6 4933.9 5036.7 4943.4 5033.6 4933.9 5030.5 4943.4 5033.6 4952.9 5043.6 4952.9 5046.7 4962.5 5049.8 4952.9 5041.7 4958.8 5033.6 4964.7 5041.7 4970.6 5031.7 4970.6 5039.8 4964.7 5049.8 4964.7 5046.7 4974.2 5054.8 4980.1 5051.7 4970.6 5061.7 4970.6 5058.6 4980.1 5055.5 4989.6 5052.4 4980.1 5049.3 4989.6 5057.4 4995.5 5065.5 4989.6 5073.6 4983.7 5076.7 4974.2" clip-path="url(#a)" fill="none" stroke="#000" stroke-linecap="round"/>
<polyline points="5076.7 4974.2 5086.7 4974.2 5083.6 4964.7 5080.5 4974.2 5070.5 4974.2 5078.6 4968.3 5075.5 4958.8 5067.4 4964.7 5059.3 4958.8 5067.4 4964.7 5070.5 4955.2 5062.4 4949.3 5052.4 4949.3 5044.3 4955.2 5036.2 4961.1 5028.1 4966.9 5018.1 4966.9 5010 4972.8 5007 4963.3 5003.9 4972.8 5013.9 4972.8 5022 4966.9 5025 4957.4 5033.1 4951.6 5030 4942 5038.1 4947.9 5028.1 4947.9 5018.1 4947.9 5028.1 4947.9 5018.1 4947.9 5008.1 4947.9 5016.2 4953.8 5008.1 4947.9 5011.2 4938.4 5019.3 4944.3 5029.3 4944.3 5019.3 4944.3 5029.3 4944.3 5037.4 4950.2 5027.4 4950.2 5030.5 4959.7 5038.6 4953.8 5046.7 4947.9" clip-path="url(#a)" fill="none" stroke="#000" stroke-linecap="round"/>
<polyline points="5046.7 4947.9 5043.6 4938.4 5053.6 4938.4 5043.6 4938.4 5040.5 4947.9 5048.6 4953.8 5051.7 4963.3 5059.8 4957.4 5051.7 4963.3 5048.6 4953.8 5058.6 4953.8 5066.7 4959.7 5063.6 4969.2 5066.7 4978.7 5058.6 4972.8 5066.7 4978.7 5076.7 4978.7 5073.6 4969.2 5083.6 4969.2 5075.5 4975.1 5072.4 4984.6 5080.5 4978.7 5077.4 4988.2 5069.3 4982.3 5072.4 4972.8 5082.4 4972.8 5090.5 4978.7 5093.6 4988.2 5096.7 4997.7 5088.6 5003.6 5091.7 5013.1 5088.6 5003.6 5096.7 5009.5 5093.6 5019 5083.6 5019 5073.6 5019 5076.7 5009.5 5066.7 5009.5 5069.8 5019 5066.7 5028.5 5074.8 5022.6 5064.8 5022.6 5056.7 5016.7" clip-path="url(#a)" fill="none" stroke="#000" stroke-linecap="round"/>
<polyline points="5056.7 5016.7 5064.8 5022.6 5061.7 5013.1 5053.6 5007.2 5045.5 5013.1 5037.4 5007.2 5040.5 5016.7 5043.6 5007.2 5046.7 4997.7 5036.7 4997.7 5044.8 4991.8 5041.7 5001.4 5033.6 5007.2 5030.5 4997.7 5020.5 4997.7 5028.6 5003.6 5020.5 5009.5 5017.4 5e3 5014.3 4990.5 5022.4 4996.3 5019.3 4986.8 5009.3 4986.8 5006.2 4996.3 5003.1 5005.8 5006.2 5015.4 4998.1 5021.2 5006.2 5027.1 5003.1 5017.6 5011.2 5011.7 5008.1 5021.2 5016.2 5027.1 5019.3 5017.6 5029.3 5017.6 5019.3 5017.6 5022.4 5027.1 5032.4 5027.1 5040.5 5021.2 5043.6 5011.7 5046.7 5002.2 5049.8 4992.7 5057.9 4986.8 5061 4977.3 5069 4983.2" clip-path="url(#a)" fill="none" stroke="#000" stroke-linecap="round"/>
<polyline points="5069 4983.2 5066 4973.7 5057.9 4979.6 5054.8 4989.1 5057.9 4998.6 5054.8 5008.1 5062.9 5014 5052.9 5014 5061 5008.1 5069 5002.2 5061 5008.1 5069 5002.2 5077.1 4996.3 5067.1 4996.3 5077.1 4996.3 5080.2 5005.8 5070.2 5005.8 5062.1 5011.7 5070.2 5005.8 5062.1 5011.7 5052.1 5011.7 5060.2 5005.8 5052.1 5e3 5049 5009.5 5046 5019 5054 5024.9 5046 5030.7 5054 5024.9 5051 5015.4 5041 5015.4 5032.9 5009.5 5029.8 5019 5032.9 5009.5 5041 5015.4 5032.9 5021.2 5022.9 5021.2 5019.8 5011.7 5011.7 5005.8 5021.7 5005.8 5011.7 5005.8 5003.6 5011.7 5011.7 5017.6 5003.6 5023.5" clip-path="url(#a)" fill="none" stroke="#000" stroke-linecap="round"/>
<polyline points="5003.6 5023.5 5006.7 5014 5003.6 5004.5 5000.5 5014 4997.4 5004.5 5007.4 5004.5 5010.5 5014 5002.4 5019.8 4992.4 5019.8 4984.3 5014 4976.2 5008.1 4979.3 4998.6 4971.2 4992.7 4979.3 4998.6 4969.3 4998.6 4966.2 4989.1 4974.3 4983.2 4982.4 4977.3 4985.5 4986.8 4993.6 4980.9 4985.5 4975.1 4982.4 4965.6 4979.3 4975.1 4987.4 4969.2 4997.4 4969.2 4987.4 4969.2 4995.5 4975.1 5005.5 4975.1 5008.6 4965.6 5018.6 4965.6 5010.5 4959.7 5013.6 4969.2 5016.7 4978.7 5024.8 4972.8 5021.7 4982.3 5018.6 4972.8 5021.7 4963.3 5029.8 4969.2 5037.9 4963.3 5027.9 4963.3 5031 4953.8 5039 4959.7 5047.1 4965.6" clip-path="url(#a)" fill="none" stroke="#000" stroke-linecap="round"/>
<polyline points="5047.1 4965.6 5037.1 4965.6 5045.2 4971.4 5053.3 4965.6 5050.2 4956 5047.1 4946.5 5039 4940.7 5042.1 4931.2 5032.1 4931.2 5040.2 4937 5037.1 4946.5 5034 4937 5024 4937 5027.1 4946.5 5019 4952.4 5027.1 4946.5 5019 4940.7 5011 4946.5 5007.9 4956 5011 4965.6 5014 4975.1 5017.1 4984.6 5014 4994.1 5017.1 5003.6 5007.1 5003.6 5015.2 5009.5 5018.3 5e3 5015.2 4990.5 5007.1 4984.6 5004 4975.1 4994 4975.1 5002.1 4969.2 4999 4978.7 4996 4988.2 4999 4978.7 4996 4988.2 4992.9 4997.7 5001 4991.8 4992.9 4997.7 4984.8 4991.8 4992.9 4986 4996 4976.5 4992.9 4986" clip-path="url(#a)" fill="none" stroke="#000" stroke-linecap="round"/>
<polyline points="4992.9 4986 4996 4976.5 5004 4970.6 5001 4980.1 5011 4980.1 5007.9 4970.6 5004.8 4961.1 4994.8 4961.1 4997.9 4951.6 4994.8 4961.1 5002.9 4966.9 5011 4961.1 5021 4961.1 5017.9 4951.6 5021 4961.1 5011 4961.1 5014 4951.6 5022.1 4945.7 5030.2 4951.6 5040.2 4951.6 5032.1 4957.4 5040.2 4951.6 5043.3 4942 5033.3 4942 5036.4 4932.5 5039.5 4942 5047.6 4947.9 5044.5 4938.4 5052.6 4944.3 5044.5 4950.2 5036.4 4944.3 5039.5 4934.8 5047.6 4928.9 5057.6 4928.9 5067.6 4928.9 5070.7 4938.4 5080.7 4938.4 5070.7 4938.4 5078.8 4932.5 5086.9 4938.4 5083.8 4947.9 5080.7 4957.4 5072.6 4951.6" clip-path="url(#a)" fill="none" stroke="#000" stroke-linecap="round"/>
<polyline points="5072.6 4951.6 5069.5 4961.1 5079.5 4961.1 5087.6 4966.9 5084.5 4957.4 5081.4 4966.9 5073.3 4972.8 5081.4 4966.9 5071.4 4966.9 5063.3 4972.8 5066.4 4982.3 5058.3 4988.2 5068.3 4988.2 5060.2 4982.3 5052.1 4976.5 5049 4986 5046 4976.5 5054 4982.3 5057.1 4991.8 5047.1 4991.8 5044 5001.4 5052.1 4995.5 5055.2 5005 5045.2 5005 5035.2 5005 5043.3 4999.1 5033.3 4999.1 5030.2 5008.6 5038.3 5014.5 5046.4 5020.4 5056.4 5020.4 5059.5 5029.9 5067.6 5024 5057.6 5024 5054.5 5014.5 5062.6 5020.4 5070.7 5014.5 5062.6 5008.6 5065.7 4999.1 5062.6 5008.6 5072.6 5008.6 5075.7 4999.1 5072.6 4989.6" clip-path="url(#a)" fill="none" stroke="#000" stroke-linecap="round"/>
<polyline points="5072.6 4989.6 5064.5 4983.7 5056.4 4977.8 5048.3 4972 5045.2 4962.5 5037.1 4956.6 5045.2 4950.7 5035.2 4950.7 5038.3 4960.2 5046.4 4966.1 5056.4 4966.1 5064.5 4972 5072.6 4966.1 5069.5 4975.6 5066.4 4966.1 5063.3 4956.6 5066.4 4966.1 5063.3 4956.6 5060.2 4947.1 5057.1 4956.6 5060.2 4947.1 5070.2 4947.1 5067.1 4956.6 5070.2 4966.1 5067.1 4956.6 5070.2 4966.1 5067.1 4975.6 5064 4966.1 5056 4972 5064 4977.8 5072.1 4983.7 5080.2 4977.8 5083.3 4987.4 5080.2 4977.8 5070.2 4977.8 5067.1 4987.4 5059 4993.2 5067.1 4999.1 5059 4993.2 5067.1 4987.4 5070.2 4996.9 5067.1 5006.4 5057.1 5006.4" clip-path="url(#a)" fill="none" stroke="#000" stroke-linecap="round"/>
<polyline points="5057.1 5006.4 5049 5012.3 5052.1 5002.7 5049 5012.3 5052.1 5021.8 5060.2 5015.9 5063.3 5025.4 5055.2 5019.5 5045.2 5019.5 5053.3 5025.4 5043.3 5025.4 5046.4 5015.9 5056.4 5015.9 5059.5 5025.4 5056.4 5034.9 5048.3 5040.8 5040.2 5046.7 5032.1 5040.8 5024 5046.7 5032.1 5040.8 5029 5050.3 5019 5050.3 5016 5040.8 5012.9 5031.3 5022.9 5031.3 5019.8 5021.8 5011.7 5027.6 5001.7 5027.6 5009.8 5033.5 5006.7 5024 5009.8 5014.5 5006.7 5024 5014.8 5018.1 5017.9 5008.6 5009.8 5002.7 5012.9 4993.2 5004.8 4999.1 5014.8 4999.1 5024.8 4999.1 5021.7 4989.6 5029.8 4995.5 5019.8 4995.5 5011.7 4989.6" clip-path="url(#a)" fill="none" stroke="#000" stroke-linecap="round"/>
<polyline points="5011.7 4989.6 5019.8 4983.7 5016.7 4974.2 5013.6 4983.7 5005.5 4977.8 5013.6 4972 5021.7 4966.1 5018.6 4975.6 5026.7 4969.7 5023.6 4960.2 5013.6 4960.2 5003.6 4960.2 4995.5 4966.1 4987.4 4960.2 4984.3 4969.7 4992.4 4963.8 5000.5 4969.7 4990.5 4969.7 4987.4 4979.2 4997.4 4979.2 5000.5 4988.7 4997.4 4979.2 4989.3 4985.1 4992.4 4994.6 5000.5 5000.5 5010.5 5000.5 5020.5 5000.5 5030.5 5000.5 5038.6 5006.4 5048.6 5006.4 5045.5 5015.9 5053.6 5010 5045.5 5004.1 5035.5 5004.1 5027.4 5010 5017.4 5010 5014.3 5019.5 5011.2 5010 5019.3 5015.9 5027.4 5021.8 5019.3 5015.9 5027.4 5021.8 5035.5 5027.6" clip-path="url(#a)" fill="none" stroke="#000" stroke-linecap="round"/>
<polyline points="5035.5 5027.6 5032.4 5018.1 5035.5 5027.6 5027.4 5033.5 5024.3 5024 5016.2 5018.1 5024.3 5024 5016.2 5018.1 5013.1 5008.6 5021.2 5014.5 5024.3 5005 5014.3 5005 5004.3 5005 5001.2 5014.5 4993.1 5008.6 5001.2 5014.5 5009.3 5008.6 5006.2 4999.1 5009.3 4989.6 4999.3 4989.6 5009.3 4989.6 5006.2 4999.1 4998.1 4993.2 4995 4983.7 5003.1 4977.8 5006.2 4968.3 5009.3 4977.8 5006.2 4968.3 4998.1 4962.5 4995 4972 4987 4966.1 4997 4966.1 5005 4960.2 4995 4960.2 5003.1 4954.3 5006.2 4963.8 4998.1 4969.7 4990 4963.8 4987 4954.3 4990 4944.8 4993.1 4935.3 5003.1 4935.3 5006.2 4925.8" clip-path="url(#a)" fill="none" stroke="#000" stroke-linecap="round"/>
<polyline points="5006.2 4925.8 5003.1 4935.3 5e3 4925.8 5008.1 4919.9 5016.2 4925.8 5024.3 4931.7 5016.2 4937.6 5024.3 4943.4 5027.4 4933.9 5035.5 4928 5025.5 4928 5033.6 4933.9 5036.7 4943.4 5033.6 4933.9 5030.5 4943.4 5033.6 4952.9 5043.6 4952.9 5046.7 4962.5 5049.8 4952.9 5041.7 4958.8 5033.6 4964.7 5041.7 4970.6 5031.7 4970.6 5039.8 4964.7 5049.8 4964.7 5046.7 4974.2 5054.8 4980.1 5051.7 4970.6 5061.7 4970.6 5058.6 4980.1 5055.5 4989.6 5052.4 4980.1 5049.3 4989.6 5057.4 4995.5 5065.5 4989.6 5073.6 4983.7 5076.7 4974.2 5086.7 4974.2 5083.6 4964.7 5080.5 4974.2 5070.5 4974.2 5078.6 4968.3 5075.5 4958.8" clip-path="url(#a)" fill="none" stroke="#000" stroke-linecap="round"/>
<polyline points="5075.5 4958.8 5067.4 4964.7 5059.3 4958.8 5067.4 4964.7 5070.5 4955.2 5062.4 4949.3 5052.4 4949.3 5044.3 4955.2 5036.2 4961.1 5028.1 4966.9 5018.1 4966.9 5010 4972.8 5007 4963.3 5003.9 4972.8 5013.9 4972.8 5022 4966.9 5025 4957.4 5033.1 4951.6 5030 4942 5038.1 4947.9 5028.1 4947.9 5018.1 4947.9 5028.1 4947.9 5018.1 4947.9 5008.1 4947.9 5016.2 4953.8 5008.1 4947.9 5011.2 4938.4 5019.3 4944.3 5029.3 4944.3 5019.3 4944.3 5029.3 4944.3 5037.4 4950.2 5027.4 4950.2 5030.5 4959.7 5038.6 4953.8 5046.7 4947.9 5043.6 4938.4 5053.6 4938.4 5043.6 4938.4 5040.5 4947.9 5048.6 4953.8 5051.7 4963.3" clip-path="url(#a)" fill="none" stroke="#000" stroke-linecap="round"/>
<polyline points="5051.7 4963.3 5059.8 4957.4 5051.7 4963.3 5048.6 4953.8 5058.6 4953.8 5066.7 4959.7 5063.6 4969.2 5066.7 4978.7 5058.6 4972.8 5066.7 4978.7 5076.7 4978.7 5073.6 4969.2 5083.6 4969.2 5075.5 4975.1 5072.4 4984.6 5080.5 4978.7 5077.4 4988.2 5069.3 4982.3 5072.4 4972.8 5082.4 4972.8 5090.5 4978.7 5093.6 4988.2 5096.7 4997.7 5088.6 5003.6 5091.7 5013.1 5088.6 5003.6 5096.7 5009.5 5093.6 5019 5083.6 5019 5073.6 5019 5076.7 5009.5 5066.7 5009.5 5069.8 5019 5066.7 5028.5 5074.8 5022.6 5064.8 5022.6 5056.7 5016.7 5064.8 5022.6 5061.7 5013.1 5053.6 5007.2 5045.5 5013.1 5037.4 5007.2 5040.5 5016.7" clip-path="url(#a)" fill="none" stroke="#000" stroke-linecap="round"/>
<polyline points="5040.5 5016.7 5043.6 5007.2 5046.7 4997.7 5036.7 4997.7 5044.8 4991.8 5041.7 5001.4 5033.6 5007.2 5030.5 4997.7 5020.5 4997.7 5028.6 5003.6 5020.5 5009.5 5017.4 5e3 5014.3 4990.5 5022.4 4996.3 5019.3 4986.8 5009.3 4986.8 5006.2 4996.3 5003.1 5005.8 5006.2 5015.4 4998.1 5021.2 5006.2 5027.1 5003.1 5017.6 5011.2 5011.7 5008.1 5021.2 5016.2 5027.1 5019.3 5017.6 5029.3 5017.6 5019.3 5017.6 5022.4 5027.1 5032.4 5027.1 5040.5 5021.2 5043.6 5011.7 5046.7 5002.2 5049.8 4992.7 5057.9 4986.8 5061 4977.3 5069 4983.2 5066 4973.7 5057.9 4979.6 5054.8 4989.1 5057.9 4998.6 5054.8 5008.1 5062.9 5014" clip-path="url(#a)" fill="none" stroke="#000" stroke-linecap="round"/>
<polyline points="5062.9 5014 5052.9 5014 5061 5008.1 5069 5002.2 5061 5008.1 5069 5002.2 5077.1 4996.3 5067.1 4996.3 5077.1 4996.3 5080.2 5005.8 5070.2 5005.8 5062.1 5011.7 5070.2 5005.8 5062.1 5011.7 5052.1 5011.7 5060.2 5005.8 5052.1 5e3 5049 5009.5 5046 5019 5054 5024.9 5046 5030.7 5054 5024.9 5051 5015.4 5041 5015.4 5032.9 5009.5 5029.8 5019 5032.9 5009.5 5041 5015.4 5032.9 5021.2 5022.9 5021.2 5019.8 5011.7 5011.7 5005.8 5021.7 5005.8 5011.7 5005.8 5003.6 5011.7 5011.7 5017.6 5003.6 5023.5 5006.7 5014 5003.6 5004.5 5000.5 5014 4997.4 5004.5 5007.4 5004.5 5010.5 5014" clip-path="url(#a)" fill="none" stroke="#000" stroke-linecap="round"/>
<polyline points="5010.5 5014 5002.4 5019.8 4992.4 5019.8 4984.3 5014 4976.2 5008.1 4979.3 4998.6 4971.2 4992.7 4979.3 4998.6 4969.3 4998.6 4966.2 4989.1 4974.3 4983.2 4982.4 4977.3 4985.5 4986.8 4993.6 4980.9 4985.5 4975.1 4982.4 4965.6 4979.3 4975.1 4987.4 4969.2 4997.4 4969.2 4987.4 4969.2 4995.5 4975.1 5005.5 4975.1 5008.6 4965.6 5018.6 4965.6 5010.5 4959.7 5013.6 4969.2 5016.7 4978.7 5024.8 4972.8 5021.7 4982.3 5018.6 4972.8 5021.7 4963.3 5029.8 4969.2 5037.9 4963.3 5027.9 4963.3 5031 4953.8 5039 4959.7 5047.1 4965.6 5037.1 4965.6 5045.2 4971.4 5053.3 4965.6 5050.2 4956 5047.1 4946.5 5039 4940.7" clip-path="url(#a)" fill="none" stroke="#000" stroke-linecap="round"/>
<polyline points="5039 4940.7 5042.1 4931.2 5032.1 4931.2 5040.2 4937 5037.1 4946.5 5034 4937 5024 4937 5027.1 4946.5 5019 4952.4 5027.1 4946.5 5019 4940.7 5011 4946.5 5007.9 4956 5011 4965.6 5014 4975.1 5017.1 4984.6 5014 4994.1 5017.1 5003.6 5007.1 5003.6 5015.2 5009.5 5018.3 5e3 5015.2 4990.5 5007.1 4984.6 5004 4975.1 4994 4975.1 5002.1 4969.2 4999 4978.7 4996 4988.2 4999 4978.7 4996 4988.2 4992.9 4997.7 5001 4991.8 4992.9 4997.7 4984.8 4991.8 4992.9 4986 4996 4976.5 4992.9 4986 4996 4976.5 5004 4970.6 5001 4980.1 5011 4980.1 5007.9 4970.6 5004.8 4961.1" clip-path="url(#a)" fill="none" stroke="#000" stroke-linecap="round"/>
<polyline points="5004.8 4961.1 4994.8 4961.1 4997.9 4951.6 4994.8 4961.1 5002.9 4966.9 5011 4961.1 5021 4961.1 5017.9 4951.6 5021 4961.1 5011 4961.1 5014 4951.6 5022.1 4945.7 5030.2 4951.6 5040.2 4951.6 5032.1 4957.4 5040.2 4951.6 5043.3 4942 5033.3 4942 5036.4 4932.5 5039.5 4942 5047.6 4947.9 5044.5 4938.4 5052.6 4944.3 5044.5 4950.2 5036.4 4944.3 5039.5 4934.8 5047.6 4928.9 5057.6 4928.9 5067.6 4928.9 5070.7 4938.4 5080.7 4938.4 5070.7 4938.4 5078.8 4932.5 5086.9 4938.4 5083.8 4947.9 5080.7 4957.4 5072.6 4951.6 5069.5 4961.1 5079.5 4961.1 5087.6 4966.9 5084.5 4957.4 5081.4 4966.9 5073.3 4972.8" clip-path="url(#a)" fill="none" stroke="#000" stroke-linecap="round"/>
<polyline points="5073.3 4972.8 5081.4 4966.9 5071.4 4966.9 5063.3 4972.8 5066.4 4982.3 5058.3 4988.2 5068.3 4988.2 5060.2 4982.3 5052.1 4976.5 5049 4986 5046 4976.5 5054 4982.3 5057.1 4991.8 5047.1 4991.8 5044 5001.4 5052.1 4995.5 5055.2 5005 5045.2 5005 5035.2 5005 5043.3 4999.1 5033.3 4999.1 5030.2 5008.6 5038.3 5014.5 5046.4 5020.4 5056.4 5020.4 5059.5 5029.9 5067.6 5024 5057.6 5024 5054.5 5014.5 5062.6 5020.4 5070.7 5014.5 5062.6 5008.6 5065.7 4999.1 5062.6 5008.6 5072.6 5008.6 5075.7 4999.1 5072.6 4989.6 5064.5 4983.7 5056.4 4977.8 5048.3 4972 5045.2 4962.5 5037.1 4956.6 5045.2 4950.7" clip-path="url(#a)" fill="none" stroke="#000" stroke-linecap="round"/>
<polyline points="5045.2 4950.7 5035.2 4950.7 5038.3 4960.2 5046.4 4966.1 5056.4 4966.1 5064.5 4972 5072.6 4966.1 5069.5 4975.6 5066.4 4966.1 5063.3 4956.6 5066.4 4966.1 5063.3 4956.6 5060.2 4947.1 5057.1 4956.6 5060.2 4947.1 5070.2 4947.1 5067.1 4956.6 5070.2 4966.1 5067.1 4956.6 5070.2 4966.1 5067.1 4975.6 5064 4966.1 5056 4972 5064 4977.8 5072.1 4983.7 5080.2 4977.8 5083.3 4987.4 5080.2 4977.8 5070.2 4977.8 5067.1 4987.4 5059 4993.2 5067.1 4999.1 5059 4993.2 5067.1 4987.4 5070.2 4996.9 5067.1 5006.4 5057.1 5006.4 5049 5012.3 5052.1 5002.7 5049 5012.3 5052.1 5021.8 5060.2 5015.9 5063.3 5025.4" clip-path="url(#a)" fill="none" stroke="#000" stroke-linecap="round"/>
<polyline points="5063.3 5025.4 5055.2 5019.5 5045.2 5019.5 5053.3 5025.4 5043.3 5025.4 5046.4 5015.9 5056.4 5015.9 5059.5 5025.4 5056.4 5034.9 5048.3 5040.8 5040.2 5046.7 5032.1 5040.8 5024 5046.7 5032.1 5040.8 5029 5050.3 5019 5050.3 5016 5040.8 5012.9 5031.3 5022.9 5031.3 5019.8 5021.8 5011.7 5027.6 5001.7 5027.6 5009.8 5033.5 5006.7 5024 5009.8 5014.5 5006.7 5024 5014.8 5018.1 5017.9 5008.6 5009.8 5002.7 5012.9 4993.2 5004.8 4999.1 5014.8 4999.1 5024.8 4999.1 5021.7 4989.6 5029.8 4995.5 5019.8 4995.5 5011.7 4989.6 5019.8 4983.7 5016.7 4974.2 5013.6 4983.7 5005.5 4977.8 5013.6 4972 5021.7 4966.1" clip-path="url(#a)" fill="none" stroke="#000" stroke-linecap="round"/>
<polyline points="5021.7 4966.1 5018.6 4975.6 5026.7 4969.7 5023.6 4960.2 5013.6 4960.2 5003.6 4960.2 4995.5 4966.1 4987.4 4960.2 4984.3 4969.7 4992.4 4963.8 5000.5 4969.7 4990.5 4969.7 4987.4 4979.2 4997.4 4979.2 5000.5 4988.7 4997.4 4979.2 4989.3 4985.1 4992.4 4994.6 5000.5 5000.5" clip-path="url(#a)" fill="none" stroke="#000" stroke-linecap="round"/>
</svg>
