<?xml version="1.0" encoding="utf-8" ?>
<svg baseProfile="full" height="1000px" version="1.1" width="1000px" xmlns="http://www.w3.org/2000/svg" xmlns:ev="http://www.w3.org/2001/xml-events" xmlns:xlink="http://www.w3.org/1999/xlink"><defs><clipPath id="border_clip"><rect height="1000" width="1000" x="0" y="0" /></clipPath></defs><polyline clip-path="url(#border_clip)" fill="none" points="500.5,500.5 510.5,500.5 518.5901699437495,506.37785252292474 526.6803398874989,512.2557050458495 529.7705098312484,521.766270208801 532.8606797749978,531.2768353717526 529.7705098312484,540.787400534704 526.6803398874989,550.2979656976556 518.5901699437494,556.1758182205804 510.49999999999994,562.0536707435051 500.49999999999994,562.0536707435051 490.49999999999994,562.053670743505 482.4098300562505,556.1758182205803 474.319660112501,550.2979656976555 471.22949016875157,540.787400534704 468.1393202250021,531.2768353717524 471.22949016875157,521.766270208801 474.3196601125011,512.2557050458494 482.4098300562506,506.3778525229247 490.50000000000006,500.49999999999994 500.50000000000006,500.5 510.50000000000006,500.5 518.5901699437495,506.37785252292474 526.680339887499,512.2557050458495 529.7705098312484,521.7662702088011 532.860679774998,531.2768353717527 529.7705098312484,540.7874005347041 526.6803398874989,550.2979656976557 518.5901699437494,556.1758182205804 510.4999999999999,562.0536707435051 500.4999999999999,562.0536707435051 490.4999999999999,562.0536707435051 482.4098300562504,556.1758182205803 474.31966011250097,550.2979656976555 471.2294901687515,540.7874005347039 468.13932022500205,531.2768353717524 471.22949016875157,521.7662702088008 474.3196601125011,512.2557050458494 482.4098300562506,506.3778525229246 490.5000000000001,500.49999999999994 500.50000000000017,500.5 510.50000000000017,500.50000000000006 518.5901699437496,506.3778525229248" stroke="black" stroke-linecap="round" stroke-width="1" /><polyline clip-path="url(#border_clip)" fill="none" points="518.5901699437496,506.3778525229248 526.680339887499,512.2557050458496 529.7705098312485,521.7662702088012 532.860679774998,531.2768353717527 529.7705098312484,540.7874005347043 526.6803398874988,550.2979656976559 518.5901699437493,556.1758182205805 510.49999999999983,562.0536707435052 500.4999999999998,562.0536707435051 490.4999999999998,562.0536707435051 482.4098300562503,556.1758182205803 474.31966011250086,550.2979656976555 471.22949016875145,540.7874005347039 468.13932022500205,531.2768353717523 471.22949016875157,521.7662702088008 474.31966011250114,512.2557050458493 482.40983005625066,506.37785252292457 490.5000000000002,500.4999999999999 500.5000000000002,500.5 510.5000000000002,500.50000000000006 518.5901699437497,506.37785252292485 526.6803398874991,512.2557050458497 529.7705098312485,521.7662702088012 532.860679774998,531.2768353717528 529.7705098312484,540.7874005347044 526.6803398874988,550.2979656976559 518.5901699437493,556.1758182205806 510.4999999999998,562.0536707435052 500.4999999999997,562.0536707435051 490.4999999999997,562.0536707435051 482.40983005625026,556.1758182205803 474.3196601125008,550.2979656976554 471.2294901687514,540.7874005347038 468.139320225002,531.2768353717522 471.22949016875157,521.7662702088007 474.31966011250114,512.2557050458493 482.4098300562507,506.3778525229245 490.5000000000002,500.49999999999983 500.5000000000003,500.49999999999994 510.50000000000034,500.50000000000006 518.5901699437497,506.37785252292485 526.6803398874991,512.2557050458497 529.7705098312485,521.7662702088013" stroke="black" stroke-linecap="round" stroke-width="1" /><polyline clip-path="url(#border_clip)" fill="none" points="529.7705098312485,521.7662702088013 532.860679774998,531.2768353717529 529.7705098312484,540.7874005347044 526.6803398874988,550.297965697656 518.5901699437493,556.1758182205806 510.4999999999997,562.0536707435053 500.49999999999966,562.0536707435052 490.4999999999996,562.0536707435051 482.4098300562502,556.1758182205803 474.31966011250074,550.2979656976554 471.2294901687514,540.7874005347038 468.139320225002,531.2768353717522 471.22949016875157,521.7662702088006 474.3196601125012,512.2557050458491 482.40983005625077,506.37785252292446 490.50000000000034,500.49999999999983 500.50000000000034,500.49999999999994 510.5000000000004,500.50000000000006 518.5901699437499,506.3778525229249 526.6803398874993,512.2557050458497 529.7705098312487,521.7662702088013 532.860679774998,531.276835371753 529.7705098312484,540.7874005347045 526.6803398874988,550.297965697656 518.5901699437492,556.1758182205807 510.4999999999996,562.0536707435053 500.4999999999996,562.0536707435052 490.49999999999955,562.0536707435051 482.40983005625014,556.1758182205801 474.3196601125007,550.2979656976553 471.22949016875134,540.7874005347037 468.139320225002,531.2768353717521 471.22949016875157,521.7662702088006 474.3196601125012,512.255705045849 482.4098300562508,506.3778525229244 490.5000000000004,500.4999999999998 500.5000000000004,500.4999999999999 510.50000000000045,500.50000000000006 518.5901699437499,506.3778525229249 526.6803398874993,512.2557050458498 529.7705098312487,521.7662702088014 532.8606797749981,531.276835371753 529.7705098312483,540.7874005347046" stroke="black" stroke-linecap="round" stroke-width="1" /><polyline clip-path="url(#border_clip)" fill="none" points="529.7705098312483,540.7874005347046 526.6803398874988,550.2979656976561 518.5901699437492,556.1758182205807 510.49999999999955,562.0536707435053 500.4999999999995,562.0536707435052 490.4999999999995,562.053670743505 482.40983005625003,556.1758182205801 474.3196601125006,550.2979656976553 471.2294901687513,540.7874005347037 468.13932022500194,531.276835371752 471.2294901687516,521.7662702088005 474.31966011250125,512.2557050458489 482.4098300562508,506.37785252292434 490.50000000000045,500.4999999999997 500.5000000000005,500.4999999999999 510.50000000000057,500.5 518.59016994375,506.3778525229249 526.6803398874994,512.2557050458498 529.7705098312487,521.7662702088014 532.8606797749981,531.2768353717531 529.7705098312484,540.7874005347046 526.6803398874987,550.2979656976562 518.5901699437491,556.1758182205808 510.4999999999995,562.0536707435053 500.49999999999943,562.0536707435052 490.4999999999994,562.053670743505 482.40983005625,556.1758182205801 474.31966011250057,550.2979656976552 471.2294901687512,540.7874005347036 468.13932022500194,531.276835371752 471.2294901687516,521.7662702088004 474.31966011250125,512.2557050458489 482.4098300562509,506.3778525229243 490.5000000000005,500.49999999999966 500.50000000000057,500.49999999999983 510.5000000000006,500.50000000000006 518.5901699437501,506.37785252292497 526.6803398874995,512.2557050458498 529.7705098312488,521.7662702088015 532.8606797749981,531.2768353717531 529.7705098312484,540.7874005347047 526.6803398874987,550.2979656976563 518.5901699437491,556.1758182205808" stroke="black" stroke-linecap="round" stroke-width="1" /><polyline clip-path="url(#border_clip)" fill="none" points="518.5901699437491,556.1758182205808 510.49999999999943,562.0536707435054 500.4999999999994,562.0536707435052 490.4999999999993,562.0536707435051 482.4098300562499,556.1758182205801 474.3196601125005,550.2979656976552 471.22949016875117,540.7874005347035 468.1393202250019,531.2768353717519 471.22949016875157,521.7662702088003 474.3196601125013,512.2557050458488 482.40983005625094,506.3778525229242 490.50000000000057,500.4999999999996 500.5000000000006,500.49999999999983 510.50000000000074,500.50000000000006 518.5901699437501,506.37785252292497 526.6803398874995,512.2557050458499 529.7705098312488,521.7662702088016 532.8606797749981,531.2768353717532 529.7705098312484,540.7874005347048 526.6803398874987,550.2979656976563 518.5901699437491,556.1758182205809 510.4999999999994,562.0536707435056 500.4999999999993,562.0536707435053 490.4999999999992,562.0536707435051 482.4098300562498,556.1758182205801 474.3196601125004,550.2979656976552 471.22949016875117,540.7874005347035 468.1393202250019,531.2768353717518 471.22949016875157,521.7662702088003 474.3196601125013,512.2557050458487 482.409830056251,506.3778525229241 490.5000000000007,500.49999999999955 500.50000000000074,500.4999999999998" stroke="black" stroke-linecap="round" stroke-width="1" /></svg>