<?xml version="1.0" encoding="utf-8" ?>
<svg baseProfile="full" height="10000px" version="1.1" width="10000px" xmlns="http://www.w3.org/2000/svg" xmlns:ev="http://www.w3.org/2001/xml-events" xmlns:xlink="http://www.w3.org/1999/xlink"><defs><clipPath id="border_clip"><rect height="10000" width="10000" x="0" y="0" /></clipPath></defs><polyline clip-path="url(#border_clip)" fill="none" points="5000.5,5000.5 5010.5,5000.5 5020.5,5000.5 5028.590169943749,5006.3778525229245 5036.680339887499,5012.255705045849 5039.770509831248,5021.766270208801 5042.860679774998,5031.276835371753 5039.770509831248,5040.787400534704 5036.680339887499,5050.297965697656 5028.590169943749,5056.17581822058 5020.5,5062.053670743505 5010.5,5062.053670743505 5000.5,5062.053670743505 4992.409830056251,5056.17581822058 4984.319660112501,5050.297965697656 4981.229490168752,5040.787400534704 4978.139320225002,5031.276835371753 4981.229490168752,5021.766270208801 4984.319660112501,5012.255705045849 4992.409830056251,5006.3778525229245 5000.5,5000.5 5010.5,5000.5 5020.5,5000.5 5028.59016994375,5006.3778525229245 5036.680339887499,5012.25570504585 5039.770509831248,5021.766270208801 5042.860679774998,5031.276835371753 5039.770509831248,5040.787400534704 5036.680339887499,5050.297965697656 5028.590169943749,5056.17581822058 5020.5,5062.053670743505 5010.5,5062.053670743505 5000.5,5062.053670743505 4992.40983005625,5056.17581822058 4984.319660112501,5050.297965697656 4981.229490168752,5040.787400534704 4978.139320225002,5031.276835371752 4981.229490168752,5021.766270208801 4984.319660112501,5012.255705045849 4992.409830056251,5006.3778525229245 5000.5,5000.5 5010.5,5000.5 5020.5,5000.5" stroke="black" stroke-linecap="round" stroke-width="1" /><polyline clip-path="url(#border_clip)" fill="none" points="5020.5,5000.5 5028.59016994375,5006.3778525229245 5036.680339887499,5012.25570504585 5039.770509831248,5021.766270208801 5042.860679774998,5031.276835371753 5039.770509831248,5040.787400534704 5036.680339887499,5050.297965697656 5028.590169943749,5056.17581822058 5020.5,5062.053670743505 5010.5,5062.053670743505 5000.5,5062.053670743505 4992.40983005625,5056.17581822058 4984.319660112501,5050.297965697656 4981.229490168752,5040.787400534704 4978.139320225002,5031.276835371752 4981.229490168752,5021.766270208801 4984.319660112501,5012.255705045849 4992.409830056251,5006.3778525229245 5000.5,5000.5 5010.5,5000.5 5020.5,5000.5 5028.59016994375,5006.3778525229245 5036.680339887499,5012.25570504585 5039.770509831249,5021.766270208801 5042.860679774998,5031.276835371753 5039.770509831248,5040.787400534704 5036.680339887499,5050.297965697656 5028.590169943749,5056.17581822058 5020.5,5062.053670743505 5010.5,5062.053670743505 5000.5,5062.053670743505 4992.40983005625,5056.17581822058 4984.319660112501,5050.297965697656 4981.229490168751,5040.787400534704 4978.139320225002,5031.276835371752 4981.229490168752,5021.766270208801 4984.319660112501,5012.255705045849 4992.409830056251,5006.3778525229245 5000.5,5000.5 5010.5,5000.5 5020.5,5000.5 5028.59016994375,5006.3778525229245 5036.680339887499,5012.25570504585" stroke="black" stroke-linecap="round" stroke-width="1" /><polyline clip-path="url(#border_clip)" fill="none" points="5036.680339887499,5012.25570504585 5039.770509831249,5021.766270208801 5042.860679774998,5031.276835371753 5039.770509831248,5040.787400534705 5036.680339887499,5050.297965697656 5028.590169943749,5056.17581822058 5020.5,5062.053670743505 5010.5,5062.053670743505 5000.5,5062.053670743505 4992.40983005625,5056.17581822058 4984.319660112501,5050.297965697655 4981.229490168751,5040.787400534704 4978.139320225002,5031.276835371752 4981.229490168752,5021.766270208801 4984.319660112501,5012.255705045849 4992.409830056251,5006.3778525229245 5000.5,5000.5 5010.5,5000.5 5020.5,5000.5 5028.59016994375,5006.3778525229245 5036.680339887499,5012.25570504585 5039.770509831249,5021.766270208801 5042.860679774998,5031.276835371753 5039.770509831248,5040.787400534705 5036.680339887499,5050.297965697656 5028.590169943749,5056.17581822058 5020.5,5062.053670743505 5010.5,5062.053670743505 5000.5,5062.053670743505 4992.40983005625,5056.17581822058 4984.319660112501,5050.297965697655 4981.229490168751,5040.787400534704 4978.139320225002,5031.276835371752 4981.229490168752,5021.766270208801 4984.319660112501,5012.255705045849 4992.409830056251,5006.3778525229245 5000.5,5000.5 5010.5,5000.5 5020.500000000001,5000.5 5028.59016994375,5006.3778525229245 5036.680339887499,5012.25570504585 5039.770509831249,5021.766270208801 5042.860679774998,5031.276835371753" stroke="black" stroke-linecap="round" stroke-width="1" /><polyline clip-path="url(#border_clip)" fill="none" points="5042.860679774998,5031.276835371753 5039.770509831248,5040.787400534705 5036.680339887499,5050.297965697656 5028.590169943749,5056.17581822058 5020.5,5062.053670743506 5010.499999999999,5062.053670743505 5000.499999999999,5062.053670743505 4992.40983005625,5056.17581822058 4984.319660112501,5050.297965697655 4981.229490168751,5040.787400534704 4978.139320225002,5031.276835371752 4981.229490168752,5021.7662702088 4984.319660112501,5012.255705045849 4992.409830056251,5006.3778525229245 5000.500000000001,5000.5 5010.500000000001,5000.5 5020.500000000001,5000.5 5028.59016994375,5006.3778525229245 5036.680339887499,5012.25570504585 5039.770509831249,5021.766270208802 5042.860679774998,5031.276835371753 5039.770509831248,5040.787400534705 5036.680339887499,5050.297965697656 5028.590169943749,5056.17581822058 5020.499999999999,5062.053670743506 5010.499999999999,5062.053670743505 5000.499999999999,5062.053670743505 4992.40983005625,5056.17581822058 4984.319660112501,5050.297965697655 4981.229490168751,5040.787400534704 4978.139320225002,5031.276835371752 4981.229490168752,5021.7662702088 4984.319660112501,5012.255705045849 4992.409830056251,5006.3778525229245 5000.500000000001,5000.5 5010.500000000001,5000.5 5020.500000000001,5000.5 5028.59016994375,5006.3778525229245 5036.680339887499,5012.25570504585 5039.770509831249,5021.766270208802 5042.860679774998,5031.276835371753 5039.770509831248,5040.787400534705 5036.680339887499,5050.297965697656" stroke="black" stroke-linecap="round" stroke-width="1" /><polyline clip-path="url(#border_clip)" fill="none" points="5036.680339887499,5050.297965697656 5028.590169943749,5056.175818220581 5020.499999999999,5062.053670743506 5010.499999999999,5062.053670743505 5000.499999999999,5062.053670743505 4992.40983005625,5056.17581822058 4984.3196601125,5050.297965697655 4981.229490168751,5040.787400534704 4978.139320225002,5031.276835371752 4981.229490168752,5021.7662702088 4984.319660112501,5012.255705045849 4992.409830056251,5006.3778525229245 5000.500000000001,5000.5 5010.500000000001,5000.5 5020.500000000001,5000.5 5028.59016994375,5006.377852522925 5036.6803398875,5012.25570504585 5039.770509831249,5021.766270208802 5042.860679774998,5031.276835371753 5039.770509831248,5040.787400534705 5036.680339887499,5050.297965697657 5028.590169943749,5056.175818220581 5020.499999999999,5062.053670743506 5010.499999999999,5062.053670743505 5000.499999999999,5062.053670743505 4992.40983005625,5056.17581822058 4984.3196601125,5050.297965697655 4981.229490168751,5040.787400534704 4978.139320225002,5031.276835371752 4981.229490168752,5021.7662702088 4984.319660112501,5012.255705045849 4992.409830056251,5006.3778525229245 5000.500000000001,5000.5" stroke="black" stroke-linecap="round" stroke-width="1" /></svg>