<?xml version="1.0" encoding="UTF-8"?>
<svg width="1e4px" height="1e4px" baseProfile="full" version="1.1" viewBox="4978.1 5000.5 64.721 61.554" xmlns="http://www.w3.org/2000/svg">
<defs>
<clipPath id="a">
<rect width="1e4" height="1e4"/>
</clipPath>
</defs>
<polyline points="5000.5 5000.5 5010.5 5000.5 5020.5 5000.5 5028.6 5006.4 5036.7 5012.3 5039.8 5021.8 5042.9 5031.3 5039.8 5040.8 5036.7 5050.3 5028.6 5056.2 5020.5 5062.1 5010.5 5062.1 5000.5 5062.1 4992.4 5056.2 4984.3 5050.3 4981.2 5040.8 4978.1 5031.3 4981.2 5021.8 4984.3 5012.3 4992.4 5006.4 5000.5 5000.5 5010.5 5000.5 5020.5 5000.5 5028.6 5006.4 5036.7 5012.3 5039.8 5021.8 5042.9 5031.3 5039.8 5040.8 5036.7 5050.3 5028.6 5056.2 5020.5 5062.1 5010.5 5062.1 5000.5 5062.1 4992.4 5056.2 4984.3 5050.3 4981.2 5040.8 4978.1 5031.3 4981.2 5021.8 4984.3 5012.3 4992.4 5006.4 5000.5 5000.5 5010.5 5000.5 5020.5 5000.5" clip-path="url(#a)" fill="none" stroke="#000" stroke-linecap="round"/>
<polyline points="5020.5 5000.5 5028.6 5006.4 5036.7 5012.3 5039.8 5021.8 5042.9 5031.3 5039.8 5040.8 5036.7 5050.3 5028.6 5056.2 5020.5 5062.1 5010.5 5062.1 5000.5 5062.1 4992.4 5056.2 4984.3 5050.3 4981.2 5040.8 4978.1 5031.3 4981.2 5021.8 4984.3 5012.3 4992.4 5006.4 5000.5 5000.5 5010.5 5000.5 5020.5 5000.5 5028.6 5006.4 5036.7 5012.3 5039.8 5021.8 5042.9 5031.3 5039.8 5040.8 5036.7 5050.3 5028.6 5056.2 5020.5 5062.1 5010.5 5062.1 5000.5 5062.1 4992.4 5056.2 4984.3 5050.3 4981.2 5040.8 4978.1 5031.3 4981.2 5021.8 4984.3 5012.3 4992.4 5006.4 5000.5 5000.5 5010.5 5000.5 5020.5 5000.5 5028.6 5006.4 5036.7 5012.3" clip-path="url(#a)" fill="none" stroke="#000" stroke-linecap="round"/>
<polyline points="5036.7 5012.3 5039.8 5021.8 5042.9 5031.3 5039.8 5040.8 5036.7 5050.3 5028.6 5056.2 5020.5 5062.1 5010.5 5062.1 5000.5 5062.1 4992.4 5056.2 4984.3 5050.3 4981.2 5040.8 4978.1 5031.3 4981.2 5021.8 4984.3 5012.3 4992.4 5006.4 5000.5 5000.5 5010.5 5000.5 5020.5 5000.5 5028.6 5006.4 5036.7 5012.3 5039.8 5021.8 5042.9 5031.3 5039.8 5040.8 5036.7 5050.3 5028.6 5056.2 5020.5 5062.1 5010.5 5062.1 5000.5 5062.1 4992.4 5056.2 4984.3 5050.3 4981.2 5040.8 4978.1 5031.3 4981.2 5021.8 4984.3 5012.3 4992.4 5006.4 5000.5 5000.5 5010.5 5000.5 5020.5 5000.5 5028.6 5006.4 5036.7 5012.3 5039.8 5021.8 5042.9 5031.3" clip-path="url(#a)" fill="none" stroke="#000" stroke-linecap="round"/>
<polyline points="5042.9 5031.3 5039.8 5040.8 5036.7 5050.3 5028.6 5056.2 5020.5 5062.1 5010.5 5062.1 5000.5 5062.1 4992.4 5056.2 4984.3 5050.3 4981.2 5040.8 4978.1 5031.3 4981.2 5021.8 4984.3 5012.3 4992.4 5006.4 5000.5 5000.5 5010.5 5000.5 5020.5 5000.5 5028.6 5006.4 5036.7 5012.3 5039.8 5021.8 5042.9 5031.3 5039.8 5040.8 5036.7 5050.3 5028.6 5056.2 5020.5 5062.1 5010.5 5062.1 5000.5 5062.1 4992.4 5056.2 4984.3 5050.3 4981.2 5040.8 4978.1 5031.3 4981.2 5021.8 4984.3 5012.3 4992.4 5006.4 5000.5 5000.5 5010.5 5000.5 5020.5 5000.5 5028.6 5006.4 5036.7 5012.3 5039.8 5021.8 5042.9 5031.3 5039.8 5040.8 5036.7 5050.3" clip-path="url(#a)" fill="none" stroke="#000" stroke-linecap="round"/>
<polyline points="5036.7 5050.3 5028.6 5056.2 5020.5 5062.1 5010.5 5062.1 5000.5 5062.1 4992.4 5056.2 4984.3 5050.3 4981.2 5040.8 4978.1 5031.3 4981.2 5021.8 4984.3 5012.3 4992.4 5006.4 5000.5 5000.5 5010.5 5000.5 5020.5 5000.5 5028.6 5006.4 5036.7 5012.3 5039.8 5021.8 5042.9 5031.3 5039.8 5040.8 5036.7 5050.3 5028.6 5056.2 5020.5 5062.1 5010.5 5062.1 5000.5 5062.1 4992.4 5056.2 4984.3 5050.3 4981.2 5040.8 4978.1 5031.3 4981.2 5021.8 4984.3 5012.3 4992.4 5006.4 5000.5 5000.5" clip-path="url(#a)" fill="none" stroke="#000" stroke-linecap="round"/>
</svg>
