<?xml version="1.0" encoding="utf-8" ?>
<svg baseProfile="full" height="10000px" version="1.1" width="10000px" xmlns="http://www.w3.org/2000/svg" xmlns:ev="http://www.w3.org/2001/xml-events" xmlns:xlink="http://www.w3.org/1999/xlink"><defs><clipPath id="border_clip"><rect height="10000" width="10000" x="0" y="0" /></clipPath></defs><polyline clip-path="url(#border_clip)" fill="none" points="5000.5,5000.5 5010.5,5000.5 5020.5,5000.5 5030.5,5000.5 5033.590169943749,5010.010565162952 5025.5,5015.888417685876 5035.5,5015.888417685876 5043.590169943749,5021.766270208801 5035.5,5015.888417685876 5043.590169943749,5021.766270208801 5035.5,5027.6441227317255 5043.590169943749,5021.766270208801 5040.5,5012.255705045849 5030.5,5012.255705045849 5022.409830056251,5018.133557568774 5025.5,5027.6441227317255 5033.590169943749,5021.766270208801 5041.680339887499,5027.6441227317255 5044.770509831248,5037.154687894677 5052.860679774998,5031.276835371753 5060.950849718747,5037.154687894677 5069.041019662497,5043.032540417602 5060.950849718747,5037.154687894677 5057.860679774998,5046.665253057628 5054.770509831248,5056.17581822058 5046.680339887499,5062.053670743505 5043.590169943749,5052.543105580554 5035.5,5058.420958103478 5045.5,5058.420958103478 5035.5,5058.420958103478 5027.40983005625,5064.298810626403 5035.5,5070.176663149327 5043.590169943749,5064.298810626403 5046.680339887499,5073.809375789355 5049.770509831248,5064.298810626403 5039.770509831248,5064.298810626403 5042.860679774998,5073.809375789355 5034.770509831248,5067.931523266429 5026.680339887499,5073.809375789355 5018.590169943749,5067.931523266429 5015.5,5077.442088429381 5018.590169943749,5086.952653592332 5010.5,5092.830506115258" stroke="black" stroke-linecap="round" stroke-width="1" /><polyline clip-path="url(#border_clip)" fill="none" points="5010.5,5092.830506115258 5018.590169943749,5086.952653592332 5026.680339887499,5092.830506115258 5023.590169943749,5083.319940952306 5020.5,5073.809375789355 5030.5,5073.809375789355 5040.5,5073.809375789355 5037.40983005625,5083.319940952306 5029.319660112501,5089.19779347523 5032.40983005625,5079.687228312279 5024.319660112501,5085.565080835204 5027.40983005625,5076.054515672253 5030.5,5066.543950509301 5027.40983005625,5057.033385346349 5037.40983005625,5057.033385346349 5029.319660112501,5062.911237869274 5019.319660112501,5062.911237869274 5011.229490168752,5057.033385346349 5001.229490168752,5057.033385346349 4993.139320225002,5062.9112378692735 5001.229490168752,5057.033385346349 5009.319660112501,5051.155532823424 4999.319660112501,5051.155532823424 5007.40983005625,5057.033385346349 5015.5,5051.155532823424 5005.5,5051.155532823424 5008.59016994375,5041.6449676604725 5016.680339887499,5047.522820183398 5013.590169943749,5057.033385346349 5005.5,5051.155532823424 5015.5,5051.155532823424 5023.590169943749,5045.2776803005 5031.680339887499,5039.399827777575 5028.590169943749,5048.910392940526 5031.680339887499,5058.420958103478 5028.590169943749,5067.931523266429 5036.680339887499,5062.053670743505 5033.590169943749,5071.564235906457 5025.5,5077.442088429381 5017.40983005625,5083.319940952306 5020.5,5092.830506115258 5012.40983005625,5086.952653592332 5020.5,5092.830506115258" stroke="black" stroke-linecap="round" stroke-width="1" /><polyline clip-path="url(#border_clip)" fill="none" points="5020.5,5092.830506115258 5017.40983005625,5083.319940952306 5025.5,5077.442088429381 5022.40983005625,5086.952653592332 5014.319660112501,5081.074801069408 5006.229490168751,5086.952653592332 5014.319660112501,5081.074801069408 5011.229490168751,5090.58536623236 5008.139320225002,5081.074801069408 5000.049150281252,5086.952653592332 4996.958980337503,5077.442088429381 4988.868810393754,5071.564235906456 4998.868810393754,5071.564235906456 5001.958980337503,5081.074801069408 5010.049150281252,5086.952653592332 5006.958980337503,5077.442088429381 4998.868810393754,5071.564235906456 5006.958980337503,5077.442088429381 5010.049150281252,5086.952653592332 5020.049150281252,5086.952653592332 5028.139320225002,5092.830506115258 5036.229490168751,5086.952653592333 5044.319660112501,5081.074801069409 5036.229490168751,5075.196948546483 5044.319660112501,5081.074801069409 5047.40983005625,5071.564235906457 5055.5,5065.686383383532 5063.590169943749,5071.564235906457 5071.680339887499,5065.686383383532 5063.590169943749,5059.808530860608 5055.5,5053.930678337682 5047.409830056251,5048.052825814758 5050.5,5038.542260651807 5060.5,5038.542260651807 5052.409830056251,5032.664408128881 5049.319660112502,5023.15384296593 5052.409830056251,5032.664408128881 5049.319660112502,5023.15384296593 5059.319660112502,5023.15384296593 5049.319660112502,5023.15384296593 5046.229490168752,5032.664408128881 5054.319660112501,5038.542260651807 5064.319660112501,5038.542260651807" stroke="black" stroke-linecap="round" stroke-width="1" /><polyline clip-path="url(#border_clip)" fill="none" points="5064.319660112501,5038.542260651807 5067.409830056251,5029.031695488855 5057.409830056251,5029.031695488855 5054.319660112502,5019.521130325903 5057.409830056251,5010.010565162952 5047.409830056251,5010.010565162952 5044.319660112502,5000.5 5041.229490168753,4990.989434837048 5044.319660112502,5000.5 5052.409830056252,4994.6221474770755 5060.500000000001,4988.744294954151 5070.500000000001,4988.744294954151 5067.409830056252,4998.254860117103 5077.409830056252,4998.254860117103 5069.319660112502,4992.3770075941775 5077.409830056252,4998.254860117103 5087.409830056252,4998.254860117103 5084.319660112502,4988.744294954151 5074.319660112502,4988.744294954151 5077.409830056252,4979.2337297912 5069.319660112502,4985.1115823141245 5077.409830056252,4990.989434837049 5080.500000000001,4981.478869674098 5083.590169943751,4990.989434837049 5093.590169943751,4990.989434837049 5096.6803398875,5000.500000000001 5104.77050983125,4994.622147477076 5107.860679774999,4985.1115823141245 5117.860679774999,4985.111582314125 5107.860679774999,4985.1115823141245 5104.77050983125,4975.601017151173 5101.6803398875,4985.1115823141245 5098.590169943751,4994.622147477076 5090.500000000001,4988.744294954151 5082.409830056252,4982.8664424312265 5090.500000000002,4976.988589908302 5100.500000000002,4976.988589908302 5092.409830056252,4982.8664424312265 5102.409830056252,4982.8664424312265 5094.319660112502,4988.744294954151 5086.229490168753,4994.622147477076 5083.139320225003,5004.132712640027 5075.049150281254,4998.254860117103" stroke="black" stroke-linecap="round" stroke-width="1" /><polyline clip-path="url(#border_clip)" fill="none" points="5075.049150281254,4998.254860117103 5085.049150281254,4998.254860117103 5093.139320225003,5004.132712640027 5096.229490168752,5013.643277802979 5104.319660112502,5019.521130325904 5114.319660112502,5019.521130325905 5104.319660112502,5019.521130325904 5094.319660112502,5019.521130325904 5102.409830056251,5025.398982848829 5099.319660112502,5015.888417685877 5089.319660112502,5015.888417685877 5097.409830056251,5021.766270208802 5089.319660112502,5027.644122731726 5086.229490168752,5018.133557568775 5094.319660112502,5012.25570504585 5097.409830056251,5021.766270208802 5089.319660112502,5015.888417685877 5079.319660112502,5015.888417685876 5069.319660112502,5015.888417685876 5077.409830056251,5010.010565162952 5080.500000000001,5000.500000000001 5088.590169943751,4994.622147477076 5078.590169943751,4994.6221474770755 5086.6803398875,4988.744294954151 5096.6803398875,4988.744294954152 5106.6803398875,4988.744294954152 5109.77050983125,4979.2337297912 5112.860679774999,4988.744294954152 5109.77050983125,4979.2337297912 5106.6803398875,4988.744294954152 5096.6803398875,4988.744294954152 5104.77050983125,4982.8664424312265 5107.860679774999,4992.377007594178 5117.860679774999,4992.377007594178 5107.860679774999,4992.377007594178 5115.950849718749,4986.499155071254 5112.860679774999,4996.009720234206 5122.860679774999,4996.009720234206 5119.770509831249,5005.520285397157 5122.860679774999,5015.030850560109 5114.770509831249,5009.152998037184 5117.860679774999,4999.642432874232 5114.77050983125,4990.13186771128" stroke="black" stroke-linecap="round" stroke-width="1" /><polyline clip-path="url(#border_clip)" fill="none" points="5114.77050983125,4990.13186771128 5111.6803398875,4999.642432874232 5114.770509831249,5009.152998037184 5111.6803398875,4999.642432874232 5114.77050983125,4990.13186771128 5106.6803398875,4984.254015188356 5103.590169943751,4974.743450025404 5093.590169943751,4974.743450025404 5083.590169943751,4974.743450025404 5086.6803398875,4984.254015188355 5083.590169943751,4974.743450025404 5075.500000000002,4980.6213025483285 5065.500000000002,4980.621302548328 5062.409830056252,4971.1107373853765 5052.409830056252,4971.110737385376 5055.500000000001,4980.621302548328 5058.590169943751,4990.1318677112795 5061.6803398875,4999.642432874231 5053.59016994375,5005.520285397156 5045.500000000001,4999.6424328742305 5048.59016994375,5009.152998037182 5045.5,5018.6635632001335 5048.59016994375,5009.152998037182 5045.5,5018.6635632001335 5037.409830056251,5012.785710677209 5045.5,5018.6635632001335 5053.59016994375,5012.785710677209 5050.500000000001,5003.275145514258 5042.409830056252,4997.3972929913325 5034.319660112502,5003.275145514257 5042.409830056251,5009.152998037182 5039.319660112501,5018.6635632001335 5031.229490168752,5024.541415723058 5039.319660112501,5030.419268245983 5036.229490168751,5039.929833408934 5033.139320225002,5049.440398571886 5036.229490168751,5039.929833408934 5026.229490168751,5039.929833408934 5016.229490168751,5039.9298334089335 5008.139320225002,5034.051980886009 5016.229490168752,5028.1741283630845 5008.139320225002,5022.296275840159 5011.229490168751,5031.806841003111" stroke="black" stroke-linecap="round" stroke-width="1" /><polyline clip-path="url(#border_clip)" fill="none" points="5011.229490168751,5031.806841003111 5008.139320225002,5022.296275840159 5000.049150281253,5016.418423317235 4996.958980337503,5025.928988480186 5005.049150281253,5031.806841003111 4996.958980337503,5037.6846935260355 5006.958980337503,5037.6846935260355 5003.868810393754,5028.1741283630845 4995.778640450004,5034.051980886009 4998.868810393754,5024.541415723057 4990.778640450005,5018.663563200133 4993.868810393754,5009.152998037181 4983.868810393754,5009.152998037181 4975.778640450005,5015.030850560105 4967.688470506255,5009.15299803718 4975.778640450005,5015.030850560105 4972.688470506255,5024.541415723056 4980.778640450004,5018.663563200132 4988.868810393754,5012.785710677207 4991.958980337503,5022.296275840159 4995.049150281252,5031.806841003111 4985.049150281252,5031.80684100311 4976.958980337503,5025.928988480186 4986.958980337503,5025.928988480186 4978.868810393754,5020.051135957261 4988.868810393754,5020.051135957261 4998.868810393754,5020.051135957261 5006.958980337504,5014.173283434337 5010.049150281253,5023.6838485972885 5001.958980337504,5017.805996074363 4998.868810393754,5008.295430911412 5001.958980337504,4998.78486574846 4998.868810393755,4989.274300585508 4990.778640450006,4983.396448062584 4998.868810393755,4989.274300585508 5006.958980337504,4995.152153108434 5003.868810393755,4985.641587945482 5000.778640450005,4995.152153108434 5008.868810393755,5001.030005631358 5005.778640450006,4991.519440468407 5015.778640450006,4991.519440468407 5012.688470506256,5001.030005631359 5002.688470506256,5001.030005631358" stroke="black" stroke-linecap="round" stroke-width="1" /><polyline clip-path="url(#border_clip)" fill="none" points="5002.688470506256,5001.030005631358 5005.778640450006,4991.519440468407 5008.868810393755,5001.030005631358 5016.958980337504,5006.9078581542835 5025.049150281253,5012.785710677209 5015.049150281253,5012.785710677208 5006.958980337503,5018.663563200133 4996.958980337503,5018.663563200133 5005.049150281253,5024.541415723057 4995.049150281253,5024.541415723057 4986.958980337503,5018.663563200132 4978.868810393754,5012.785710677207 4970.778640450004,5018.663563200132 4973.868810393754,5009.15299803718 4970.778640450004,5018.663563200132 4978.868810393754,5012.785710677207 4986.958980337503,5018.663563200132 4976.958980337503,5018.663563200132 4980.049150281253,5009.15299803718 4971.958980337504,5003.275145514255 4980.049150281253,5009.15299803718 4970.049150281253,5009.15299803718 4978.139320225003,5003.275145514255 4970.049150281254,4997.397292991331 4978.139320225003,4991.519440468406 4981.229490168753,4982.008875305454 4984.319660112502,4991.519440468406 4976.229490168753,4997.397292991331 4973.139320225003,5006.907858154282 4981.229490168752,5001.030005631357 4984.319660112502,4991.519440468406 4981.229490168752,5001.030005631357 4973.139320225003,5006.907858154282 4976.229490168752,5016.418423317234 4973.139320225002,5025.928988480185 4981.229490168751,5031.80684100311 4989.3196601125,5037.6846935260355 4992.40983005625,5028.174128363084 4989.3196601125,5037.6846935260355 4999.3196601125,5037.6846935260355 5007.40983005625,5043.562546048961 5004.3196601125,5053.073111211912 5012.409830056249,5058.950963734837" stroke="black" stroke-linecap="round" stroke-width="1" /><polyline clip-path="url(#border_clip)" fill="none" points="5012.409830056249,5058.950963734837 5015.499999999999,5049.440398571885 5018.590169943749,5039.929833408934 5021.680339887499,5030.4192682459825 5031.680339887499,5030.419268245983 5034.770509831248,5039.929833408935 5037.860679774998,5030.419268245983 5045.950849718747,5024.541415723059 5037.860679774998,5030.419268245983 5045.950849718747,5024.541415723059 5049.041019662496,5034.051980886011 5045.950849718747,5024.541415723059 5035.950849718747,5024.541415723059 5032.860679774998,5034.05198088601 5035.950849718747,5043.562546048962 5045.950849718747,5043.562546048962 5042.860679774998,5034.051980886011 5050.950849718747,5028.174128363086 5060.950849718747,5028.174128363086 5057.860679774998,5018.663563200134 5065.950849718748,5012.78571067721 5074.041019662498,5006.907858154286 5065.950849718748,5012.78571067721 5074.041019662497,5018.663563200135 5082.131189606247,5024.541415723061 5085.221359549996,5034.051980886013 5075.221359549996,5034.051980886012 5078.311529493745,5043.562546048964 5081.401699437494,5034.051980886012 5078.311529493745,5043.562546048964 5081.401699437494,5053.073111211916 5089.491869381243,5047.195258688991 5086.401699437494,5037.684693526039 5096.401699437494,5037.684693526039 5088.311529493745,5031.806841003115 5085.221359549995,5041.317406166066 5095.221359549995,5041.317406166067 5087.131189606245,5047.195258688991 5090.221359549995,5056.705823851942 5082.131189606245,5062.583676374867 5090.221359549994,5068.461528897792 5100.221359549994,5068.461528897792 5103.311529493743,5077.972094060744" stroke="black" stroke-linecap="round" stroke-width="1" /><polyline clip-path="url(#border_clip)" fill="none" points="5103.311529493743,5077.972094060744 5100.221359549994,5068.461528897792 5108.311529493744,5062.5836763748675 5098.311529493744,5062.5836763748675 5088.311529493744,5062.583676374867 5091.401699437494,5053.073111211916 5094.491869381244,5043.562546048965 5102.582039324993,5049.440398571889 5105.672209268742,5058.950963734841 5097.582039324993,5053.073111211916 5100.672209268742,5062.5836763748675 5092.582039324992,5056.705823851942 5084.491869381243,5050.827971329018 5074.491869381243,5050.827971329017 5077.582039324993,5041.317406166066 5080.672209268742,5050.827971329018 5077.582039324992,5060.338536491969 5069.491869381242,5066.216389014893 5066.401699437492,5075.726954177844 5069.4918693812415,5085.237519340796 5066.401699437492,5075.726954177844 5063.311529493743,5066.216389014893 5060.221359549993,5075.726954177844 5068.311529493743,5069.84910165492 5065.221359549994,5060.338536491968 5062.131189606244,5069.84910165492 5054.041019662495,5063.971249131994 5062.131189606245,5058.09339660907 5070.221359549994,5063.971249131995 5062.131189606244,5069.84910165492 5065.221359549994,5060.338536491968 5062.131189606245,5050.827971329017 5059.041019662496,5041.317406166065 5067.131189606245,5047.19525868899 5077.131189606245,5047.19525868899 5085.221359549995,5053.073111211916 5082.131189606246,5043.562546048964 5090.221359549995,5049.440398571889 5093.311529493744,5058.95096373484 5096.401699437493,5068.461528897792 5106.401699437493,5068.461528897793 5098.311529493743,5074.3393814207175 5106.401699437493,5068.461528897793" stroke="black" stroke-linecap="round" stroke-width="1" /><polyline clip-path="url(#border_clip)" fill="none" points="5106.401699437493,5068.461528897793 5096.401699437493,5068.461528897792 5093.311529493744,5058.95096373484 5101.401699437493,5064.8288162577655 5093.311529493743,5070.70666878069 5096.401699437492,5080.217233943642 5093.311529493743,5070.70666878069 5101.401699437492,5076.5845213036155 5091.401699437492,5076.584521303615 5094.4918693812415,5086.0950864665665 5084.4918693812415,5086.095086466566 5076.4016994374915,5091.97293898949 5079.4918693812415,5082.462373826539 5089.491869381242,5082.462373826539 5097.5820393249915,5076.5845213036155 5087.5820393249915,5076.584521303615 5079.4918693812415,5082.462373826539 5087.5820393249915,5076.584521303615 5097.5820393249915,5076.5845213036155 5100.672209268741,5067.0739561406635 5108.762379212491,5061.196103617739 5105.672209268742,5051.685538454787 5102.582039324993,5042.174973291836 5094.491869381243,5048.05282581476 5102.582039324993,5042.174973291836 5094.491869381244,5036.297120768911 5091.401699437495,5026.786555605959 5099.491869381245,5020.908703083034 5096.401699437496,5011.398137920082 5088.311529493746,5017.275990443007 5080.221359549996,5023.153842965931 5072.131189606247,5029.031695488856 5064.041019662497,5023.15384296593 5067.131189606247,5013.643277802979 5059.041019662498,5019.521130325904 5049.041019662497,5019.521130325903 5059.041019662498,5019.521130325904 5049.041019662497,5019.521130325903 5052.131189606248,5010.010565162952 5049.041019662497,5019.521130325903 5057.131189606247,5025.398982848828 5065.221359549997,5019.521130325904 5068.311529493747,5010.010565162952" stroke="black" stroke-linecap="round" stroke-width="1" /><polyline clip-path="url(#border_clip)" fill="none" points="5068.311529493747,5010.010565162952 5060.221359549997,5004.132712640027 5057.131189606247,5013.643277802978 5047.131189606247,5013.643277802978 5039.041019662498,5007.765425280053 5035.950849718748,5017.275990443004 5025.950849718748,5017.275990443004 5015.950849718748,5017.275990443003 5025.950849718748,5017.275990443004 5022.860679774999,5007.765425280052 5019.77050983125,4998.2548601171 5022.860679775,4988.744294954149 5030.950849718749,4994.622147477074 5034.041019662499,4985.111582314123 5025.95084971875,4990.989434837047 5034.041019662499,4985.111582314123 5037.131189606249,4975.601017151171 5027.131189606249,4975.601017151171 5024.041019662499,4985.111582314122 5015.95084971875,4979.233729791197 5019.041019662499,4988.744294954148 5027.131189606249,4982.866442431225 5019.0410196625,4976.988589908299 5029.0410196625,4976.988589908299 5032.13118960625,4967.478024745348 5042.13118960625,4967.478024745349 5039.041019662501,4957.967459582397 5030.950849718752,4952.089607059472 5034.041019662502,4942.57904189652 5030.950849718752,4952.089607059472 5020.950849718752,4952.089607059471 5029.041019662501,4957.967459582396 5037.13118960625,4963.845312105322 5029.0410196625,4969.723164628246 5020.95084971875,4975.60101715117 5017.860679775002,4966.090451988219 5020.950849718752,4956.579886825267 5024.0410196625,4966.090451988219 5027.131189606251,4956.579886825268 5030.221359549999,4966.090451988219 5033.311529493748,4975.601017151171 5041.401699437497,4981.478869674096 5033.311529493748,4987.356722197021" stroke="black" stroke-linecap="round" stroke-width="1" /><polyline clip-path="url(#border_clip)" fill="none" points="5033.311529493748,4987.356722197021 5036.401699437498,4977.846157034069 5044.491869381248,4971.968304511145 5054.491869381248,4971.968304511145 5062.582039324998,4966.090451988221 5065.672209268748,4956.57988682527 5062.582039324998,4966.090451988221 5059.491869381247,4975.6010171511725 5067.582039324997,4969.723164628248 5057.582039324997,4969.723164628248 5054.491869381247,4979.233729791199 5062.582039324997,4973.3558772682745 5065.672209268746,4982.8664424312265 5055.672209268746,4982.866442431226 5052.582039324997,4973.3558772682745 5062.582039324997,4973.3558772682745 5054.491869381247,4979.233729791199 5051.401699437497,4988.74429495415 5048.311529493747,4998.254860117102 5045.221359549998,4988.74429495415 5037.131189606249,4982.866442431225 5034.0410196625,4973.355877268273 5030.95084971875,4982.866442431225 5027.860679775001,4973.355877268273 5030.950849718751,4963.845312105321 5034.041019662501,4954.33474694237 5025.950849718752,4948.456894419444 5035.950849718752,4948.456894419445 5025.950849718752,4948.456894419444 5034.041019662501,4954.33474694237 5030.950849718751,4963.845312105321 5027.860679775002,4954.33474694237 5037.860679775003,4954.33474694237 5040.950849718753,4944.824181779419 5037.860679775003,4954.33474694237 5034.770509831254,4944.824181779418 5042.860679775003,4950.702034302343 5045.950849718753,4941.191469139392 5054.041019662502,4947.069321662318 5064.041019662502,4947.069321662318 5055.950849718752,4952.947174185242 5047.860679775003,4947.069321662317 5037.860679775003,4947.069321662317" stroke="black" stroke-linecap="round" stroke-width="1" /><polyline clip-path="url(#border_clip)" fill="none" points="5037.860679775003,4947.069321662317 5045.950849718752,4952.947174185241 5055.950849718752,4952.947174185242 5045.950849718752,4952.947174185241 5037.860679775003,4947.069321662317 5029.770509831253,4952.94717418524 5019.770509831253,4952.94717418524 5016.680339887503,4962.457739348191 5013.590169943753,4971.968304511142 5023.590169943753,4971.968304511143 5013.590169943753,4971.968304511142 5016.680339887502,4981.478869674094 5013.590169943751,4990.989434837046 5003.590169943751,4990.989434837045 5000.500000000001,5000.499999999996 5010.500000000001,5000.499999999997 5020.500000000001,5000.499999999998 5030.500000000001,5000.499999999999 5033.59016994375,5010.010565162951 5025.5,5015.888417685875 5035.5,5015.8884176858755 5043.590169943749,5021.766270208801 5035.5,5015.8884176858755 5043.590169943749,5021.766270208801 5035.499999999999,5027.6441227317255 5043.590169943749,5021.766270208801 5040.500000000001,5012.255705045849 5030.500000000001,5012.255705045848 5022.409830056251,5018.133557568773 5025.499999999999,5027.644122731725 5033.590169943749,5021.7662702088 5041.680339887498,5027.6441227317255 5044.770509831247,5037.154687894677 5052.860679774997,5031.276835371753 5060.950849718746,5037.154687894678 5069.041019662495,5043.032540417604 5060.950849718746,5037.154687894678 5057.860679774996,5046.66525305763 5054.770509831246,5056.175818220581 5046.680339887496,5062.053670743506 5043.590169943747,5052.543105580554 5035.499999999997,5058.4209581034775 5045.499999999997,5058.420958103478" stroke="black" stroke-linecap="round" stroke-width="1" /><polyline clip-path="url(#border_clip)" fill="none" points="5045.499999999997,5058.420958103478 5035.499999999997,5058.4209581034775 5027.409830056247,5064.298810626402 5035.499999999996,5070.176663149327 5043.590169943746,5064.298810626403 5046.680339887495,5073.809375789355 5049.770509831245,5064.298810626404 5039.770509831245,5064.298810626403 5042.860679774994,5073.809375789355 5034.770509831245,5067.931523266429 5026.680339887495,5073.809375789354 5018.590169943746,5067.9315232664285 5015.499999999996,5077.4420884293795 5018.5901699437445,5086.952653592331 5010.4999999999945,5092.830506115256 5018.5901699437445,5086.952653592331 5026.680339887494,5092.830506115257 5023.590169943745,5083.319940952305 5020.499999999996,5073.809375789353 5030.499999999996,5073.809375789354 5040.499999999996,5073.809375789355 5037.409830056246,5083.319940952306 5029.319660112496,5089.19779347523 5032.409830056246,5079.687228312278 5024.319660112496,5085.565080835203 5027.409830056246,5076.054515672252 5030.499999999997,5066.5439505093 5027.409830056248,5057.033385346348 5037.409830056248,5057.033385346349 5029.319660112498,5062.9112378692735 5019.319660112498,5062.911237869273 5011.229490168749,5057.033385346347 5001.229490168749,5057.033385346346 4993.139320224999,5062.911237869271 5001.229490168749,5057.033385346346 5009.319660112499,5051.155532823423 4999.319660112499,5051.155532823422 5007.409830056248,5057.033385346347 5015.499999999998,5051.155532823423 5005.499999999998,5051.155532823422 5008.590169943748,5041.644967660471 5016.680339887497,5047.522820183396 5013.590169943747,5057.033385346347" stroke="black" stroke-linecap="round" stroke-width="1" /><polyline clip-path="url(#border_clip)" fill="none" points="5013.590169943747,5057.033385346347 5005.499999999998,5051.155532823422 5015.499999999998,5051.155532823423 5023.590169943748,5045.277680300498 5031.680339887498,5039.3998277775745 5028.590169943747,5048.9103929405255 5031.680339887496,5058.4209581034775 5028.590169943746,5067.931523266429 5036.680339887496,5062.053670743505 5033.590169943746,5071.564235906456 5025.499999999996,5077.44208842938 5017.409830056246,5083.319940952305 5020.4999999999945,5092.830506115257 5012.4098300562455,5086.952653592331 5020.4999999999945,5092.830506115257 5017.409830056246,5083.319940952305 5025.499999999996,5077.44208842938 5022.4098300562455,5086.952653592331 5014.319660112496,5081.074801069406 5006.229490168746,5086.9526535923305 5014.319660112496,5081.074801069406 5011.229490168746,5090.585366232358 5008.139320224997,5081.074801069406 5000.049150281247,5086.9526535923305 4996.958980337499,5077.442088429379 4988.868810393749,5071.564235906453 4998.86881039375,5071.564235906453 5001.958980337498,5081.074801069405 5010.049150281247,5086.9526535923305 5006.958980337499,5077.442088429379 4998.86881039375,5071.564235906453 5006.958980337499,5077.442088429379 5010.049150281247,5086.9526535923305 5020.049150281247,5086.952653592331 5028.1393202249965,5092.830506115257 5036.229490168747,5086.952653592333 5044.319660112497,5081.074801069409 5036.229490168748,5075.196948546483 5044.319660112497,5081.074801069409 5047.409830056247,5071.564235906458 5055.499999999997,5065.686383383533 5063.590169943746,5071.564235906459 5071.680339887496,5065.686383383534" stroke="black" stroke-linecap="round" stroke-width="1" /><polyline clip-path="url(#border_clip)" fill="none" points="5071.680339887496,5065.686383383534 5063.590169943747,5059.808530860609 5055.499999999998,5053.930678337683 5047.409830056249,5048.052825814758 5050.499999999999,5038.542260651807 5060.499999999999,5038.542260651808 5052.40983005625,5032.664408128882 5049.319660112502,5023.15384296593 5052.40983005625,5032.664408128882 5049.319660112502,5023.15384296593 5059.319660112502,5023.153842965931 5049.319660112502,5023.15384296593 5046.229490168751,5032.664408128881 5054.3196601125,5038.542260651807 5064.3196601125,5038.542260651808 5067.409830056251,5029.031695488857 5057.409830056251,5029.031695488856 5054.319660112502,5019.521130325904 5057.409830056252,5010.010565162953 5047.409830056252,5010.010565162952 5044.319660112504,5000.5 5041.229490168755,4990.989434837048 5044.319660112504,5000.5 5052.409830056254,4994.6221474770755 5060.500000000004,4988.744294954152 5070.500000000004,4988.744294954152 5067.409830056254,4998.254860117104 5077.409830056254,4998.254860117105 5069.319660112505,4992.377007594179 5077.409830056254,4998.254860117105 5087.409830056254,4998.254860117106 5084.319660112505,4988.744294954154 5074.319660112505,4988.744294954153 5077.409830056255,4979.233729791201 5069.319660112505,4985.111582314125 5077.409830056254,4990.989434837051 5080.500000000005,4981.4788696741 5083.590169943753,4990.989434837052 5093.590169943753,4990.989434837052 5096.680339887502,5000.500000000004 5104.770509831252,4994.62214747708 5107.860679775002,4985.111582314128 5117.860679775003,4985.111582314129" stroke="black" stroke-linecap="round" stroke-width="1" /><polyline clip-path="url(#border_clip)" fill="none" points="5117.860679775003,4985.111582314129 5107.860679775002,4985.111582314128 5104.770509831254,4975.601017151176 5101.680339887504,4985.111582314128 5098.590169943753,4994.622147477079 5090.500000000004,4988.744294954154 5082.409830056255,4982.866442431228 5090.500000000005,4976.988589908305 5100.500000000005,4976.988589908305 5092.409830056255,4982.866442431229 5102.409830056255,4982.86644243123 5094.319660112505,4988.744294954155 5086.229490168755,4994.622147477078 5083.139320225005,5004.13271264003 5075.049150281256,4998.254860117104 5085.049150281256,4998.254860117105 5093.139320225005,5004.13271264003 5096.229490168754,5013.643277802982 5104.319660112503,5019.521130325908 5114.319660112503,5019.521130325908 5104.319660112503,5019.521130325908 5094.319660112502,5019.5211303259075 5102.409830056251,5025.398982848833 5099.319660112503,5015.888417685881 5089.319660112503,5015.88841768588 5097.409830056252,5021.7662702088055 5089.319660112502,5027.644122731729 5086.229490168753,5018.133557568777 5094.319660112503,5012.255705045854 5097.409830056252,5021.7662702088055 5089.319660112503,5015.88841768588 5079.319660112503,5015.888417685879 5069.319660112502,5015.888417685878 5077.409830056253,5010.010565162954 5080.500000000003,5000.500000000003 5088.590169943753,4994.622147477078 5078.590169943753,4994.622147477077 5086.680339887503,4988.744294954154 5096.680339887503,4988.744294954155 5106.680339887503,4988.7442949541555 5109.770509831254,4979.233729791204 5112.860679775002,4988.7442949541555 5109.770509831254,4979.233729791204" stroke="black" stroke-linecap="round" stroke-width="1" /><polyline clip-path="url(#border_clip)" fill="none" points="5109.770509831254,4979.233729791204 5106.680339887503,4988.7442949541555 5096.680339887503,4988.744294954155 5104.770509831253,4982.86644243123 5107.860679775002,4992.377007594182 5117.860679775002,4992.377007594183 5107.860679775002,4992.377007594182 5115.950849718752,4986.499155071258 5112.860679775002,4996.009720234209 5122.860679775002,4996.00972023421 5119.770509831251,5005.520285397161 5122.860679775,5015.030850560113 5114.770509831251,5009.152998037188 5117.860679775001,4999.642432874237 5114.770509831253,4990.131867711285 5111.680339887502,4999.642432874236 5114.770509831251,5009.152998037188 5111.680339887502,4999.642432874236 5114.770509831253,4990.131867711285 5106.680339887504,4984.2540151883595 5103.5901699437545,4974.743450025408 5093.5901699437545,4974.743450025407 5083.5901699437545,4974.743450025406 5086.680339887504,4984.254015188358 5083.5901699437545,4974.743450025406 5075.500000000005,4980.621302548329 5065.500000000005,4980.6213025483285 5062.4098300562555,4971.1107373853765 5052.4098300562555,4971.110737385376 5055.500000000005,4980.621302548328 5058.590169943753,4990.1318677112795 5061.680339887502,4999.642432874231 5053.590169943751,5005.520285397156 5045.500000000002,4999.6424328742305 5048.590169943751,5009.152998037182 5045.500000000001,5018.6635632001335 5048.590169943751,5009.152998037182 5045.500000000001,5018.6635632001335 5037.409830056252,5012.785710677208 5045.500000000001,5018.6635632001335 5053.590169943751,5012.78571067721 5050.500000000002,5003.275145514258 5042.409830056253,4997.397292991332" stroke="black" stroke-linecap="round" stroke-width="1" /><polyline clip-path="url(#border_clip)" fill="none" points="5042.409830056253,4997.397292991332 5034.319660112503,5003.275145514256 5042.409830056252,5009.1529980371815 5039.319660112502,5018.663563200133 5031.229490168751,5024.541415723057 5039.3196601125,5030.4192682459825 5036.22949016875,5039.9298334089335 5033.139320224999,5049.440398571885 5036.22949016875,5039.9298334089335 5026.22949016875,5039.929833408933 5016.22949016875,5039.929833408932 5008.139320225001,5034.051980886006 5016.229490168751,5028.174128363083 5008.139320225002,5022.296275840157 5011.22949016875,5031.806841003109 5008.139320225002,5022.296275840157 5000.049150281253,5016.418423317231 4996.958980337502,5025.928988480183 5005.049150281251,5031.806841003108 4996.958980337501,5037.684693526032 5006.958980337501,5037.684693526033 5003.868810393753,5028.174128363081 4995.778640450003,5034.051980886005 4998.868810393753,5024.541415723054 4990.778640450004,5018.663563200128 4993.868810393755,5009.152998037177 4983.868810393755,5009.152998037176 4975.778640450004,5015.0308505601 4967.688470506255,5009.152998037174 4975.778640450004,5015.0308505601 4972.688470506254,5024.541415723052 4980.778640450004,5018.663563200127 4988.868810393754,5012.7857106772035 4991.958980337503,5022.296275840155 4995.049150281251,5031.806841003107 4985.049150281251,5031.8068410031065 4976.958980337502,5025.928988480181 4986.958980337502,5025.928988480182 4978.868810393753,5020.0511359572565 4988.868810393753,5020.051135957257 4998.868810393754,5020.051135957258 5006.958980337504,5014.173283434334 5010.049150281252,5023.683848597286" stroke="black" stroke-linecap="round" stroke-width="1" /><polyline clip-path="url(#border_clip)" fill="none" points="5010.049150281252,5023.683848597286 5001.958980337503,5017.80599607436 4998.868810393755,5008.295430911408 5001.958980337505,4998.784865748457 4998.868810393757,4989.274300585505 4990.7786404500075,4983.396448062579 4998.868810393757,4989.274300585505 5006.958980337506,4995.152153108431 5003.868810393757,4985.641587945479 5000.778640450007,4995.15215310843 5008.868810393756,5001.030005631355 5005.778640450007,4991.519440468403 5015.7786404500075,4991.519440468404 5012.688470506257,5001.030005631356 5002.688470506257,5001.030005631355 5005.778640450007,4991.519440468403 5008.868810393756,5001.030005631355 5016.958980337505,5006.907858154282 5025.049150281254,5012.785710677207 5015.049150281254,5012.785710677206 5006.958980337503,5018.66356320013 4996.958980337503,5018.663563200129 5005.049150281252,5024.541415723054 4995.049150281252,5024.541415723053 4986.958980337503,5018.663563200128 4978.868810393754,5012.785710677203 4970.778640450004,5018.663563200126 4973.868810393754,5009.152998037175 4970.778640450004,5018.663563200126 4978.868810393754,5012.785710677203 4986.958980337503,5018.663563200128 4976.958980337503,5018.663563200127 4980.049150281253,5009.152998037176 4971.958980337505,5003.27514551425 4980.049150281253,5009.152998037176 4970.049150281253,5009.152998037174 4978.139320225004,5003.275145514251 4970.049150281255,4997.397292991325 4978.139320225005,4991.519440468401 4981.229490168755,4982.00887530545 4984.319660112504,4991.519440468402 4976.229490168754,4997.397292991325 4973.139320225003,5006.907858154277" stroke="black" stroke-linecap="round" stroke-width="1" /><polyline clip-path="url(#border_clip)" fill="none" points="4973.139320225003,5006.907858154277 4981.229490168753,5001.030005631353 4984.319660112504,4991.519440468402 4981.229490168753,5001.030005631353 4973.139320225003,5006.907858154277 4976.229490168751,5016.418423317229 4973.139320225001,5025.92898848018 4981.22949016875,5031.806841003106 4989.319660112499,5037.684693526032 4992.409830056249,5028.17412836308 4989.319660112499,5037.684693526032 4999.319660112499,5037.684693526033 5007.409830056248,5043.562546048958 5004.319660112497,5053.073111211909 5012.409830056246,5058.950963734836 5015.499999999997,5049.440398571884 5018.590169943747,5039.929833408933 5021.680339887498,5030.419268245982 5031.680339887498,5030.4192682459825 5034.770509831246,5039.929833408934 5037.860679774997,5030.419268245983 5045.950849718747,5024.541415723059 5037.860679774997,5030.419268245983 5045.950849718747,5024.541415723059 5049.041019662496,5034.051980886011 5045.950849718747,5024.541415723059 5035.950849718747,5024.541415723058 5032.860679774996,5034.051980886009 5035.950849718745,5043.562546048961 5045.950849718745,5043.562546048963 5042.860679774997,5034.05198088601 5050.950849718747,5028.174128363086 5060.950849718747,5028.174128363087 5057.860679774999,5018.663563200135 5065.950849718749,5012.785710677212 5074.041019662499,5006.907858154287 5065.950849718749,5012.785710677212 5074.041019662498,5018.663563200137 5082.131189606247,5024.5414157230625 5085.221359549995,5034.0519808860145 5075.221359549995,5034.051980886014 5078.311529493743,5043.5625460489655 5081.401699437494,5034.0519808860145" stroke="black" stroke-linecap="round" stroke-width="1" /><polyline clip-path="url(#border_clip)" fill="none" points="5081.401699437494,5034.0519808860145 5078.311529493743,5043.5625460489655 5081.401699437492,5053.073111211917 5089.491869381242,5047.195258688994 5086.401699437494,5037.684693526042 5096.401699437494,5037.684693526043 5088.311529493745,5031.806841003117 5085.221359549994,5041.317406166068 5095.221359549994,5041.317406166069 5087.131189606244,5047.195258688994 5090.2213595499925,5056.705823851946 5082.1311896062425,5062.583676374869 5090.221359549992,5068.461528897796 5100.221359549992,5068.461528897797 5103.311529493741,5077.9720940607485 5100.221359549992,5068.461528897797 5108.311529493742,5062.583676374872 5098.311529493742,5062.583676374871 5088.311529493742,5062.58367637487 5091.401699437492,5053.073111211919 5094.491869381242,5043.562546048967 5102.5820393249915,5049.440398571894 5105.6722092687405,5058.950963734846 5097.5820393249915,5053.073111211919 5100.67220926874,5062.583676374871 5092.582039324991,5056.705823851946 5084.4918693812415,5050.82797132902 5074.4918693812415,5050.827971329019 5077.582039324992,5041.3174061660675 5080.6722092687405,5050.827971329019 5077.582039324991,5060.338536491971 5069.49186938124,5066.216389014895 5066.40169943749,5075.726954177846 5069.491869381238,5085.237519340798 5066.40169943749,5075.726954177846 5063.311529493741,5066.216389014894 5060.221359549991,5075.726954177846 5068.311529493741,5069.8491016549215 5065.2213595499925,5060.3385364919695 5062.131189606242,5069.849101654921 5054.0410196624925,5063.971249131995 5062.1311896062425,5058.0933966090715 5070.221359549992,5063.971249131997" stroke="black" stroke-linecap="round" stroke-width="1" /><polyline clip-path="url(#border_clip)" fill="none" points="5070.221359549992,5063.971249131997 5062.131189606242,5069.849101654921 5065.2213595499925,5060.3385364919695 5062.131189606243,5050.827971329018 5059.041019662495,5041.317406166066 5067.131189606244,5047.195258688991 5077.131189606244,5047.195258688993 5085.221359549993,5053.073111211918 5082.131189606245,5043.562546048966 5090.221359549993,5049.440398571892 5093.3115294937425,5058.950963734844 5096.401699437491,5068.461528897796 5106.401699437491,5068.4615288977975 5098.311529493741,5074.339381420721 5106.401699437491,5068.4615288977975 5096.401699437491,5068.461528897796 5093.3115294937425,5058.950963734844 5101.4016994374915,5064.82881625777 5093.311529493741,5070.706668780694 5096.401699437489,5080.217233943646 5093.311529493741,5070.706668780694 5101.40169943749,5076.584521303619 5091.40169943749,5076.584521303618 5094.491869381238,5086.09508646657 5084.491869381238,5086.095086466569 5076.401699437488,5091.972938989493 5079.491869381238,5082.462373826542 5089.491869381239,5082.462373826543 5097.582039324989,5076.584521303619 5087.582039324989,5076.584521303618 5079.491869381238,5082.462373826542 5087.582039324989,5076.584521303618 5097.582039324989,5076.584521303619 5100.67220926874,5067.073956140667 5108.76237921249,5061.196103617744 5105.672209268741,5051.685538454792 5102.582039324992,5042.17497329184 5094.491869381242,5048.052825814763 5102.582039324992,5042.17497329184 5094.491869381244,5036.297120768914 5091.401699437495,5026.786555605961 5099.491869381246,5020.908703083038 5096.401699437497,5011.398137920086" stroke="black" stroke-linecap="round" stroke-width="1" /><polyline clip-path="url(#border_clip)" fill="none" points="5096.401699437497,5011.398137920086 5088.311529493747,5017.2759904430095 5080.221359549997,5023.153842965934 5072.131189606246,5029.031695488858 5064.041019662497,5023.153842965932 5067.131189606248,5013.64327780298 5059.041019662498,5019.521130325904 5049.041019662498,5019.521130325903 5059.041019662498,5019.521130325904 5049.041019662498,5019.521130325903 5052.131189606248,5010.010565162952 5049.041019662498,5019.521130325903 5057.131189606246,5025.398982848829 5065.221359549997,5019.521130325905 5068.311529493748,5010.010565162954 5060.221359549999,5004.132712640028 5057.131189606248,5013.643277802979 5047.131189606248,5013.643277802978 5039.041019662499,5007.765425280052 5035.950849718748,5017.275990443003 5025.950849718748,5017.275990443002 5015.950849718748,5017.275990443001 5025.950849718748,5017.275990443002 5022.860679775,5007.76542528005 5019.770509831252,4998.254860117098 5022.860679775002,4988.744294954147 5030.950849718751,4994.622147477073 5034.041019662502,4985.111582314122 5025.950849718752,4990.989434837045 5034.041019662502,4985.111582314122 5037.1311896062525,4975.60101715117 5027.1311896062525,4975.601017151169 5024.041019662502,4985.11158231412 5015.950849718753,4979.2337297911945 5019.041019662501,4988.744294954146 5027.131189606252,4982.866442431223 5019.041019662503,4976.9885899082965 5029.041019662503,4976.988589908298 5032.131189606253,4967.478024745346 5042.131189606253,4967.478024745348 5039.041019662505,4957.967459582396 5030.950849718756,4952.08960705947 5034.041019662507,4942.579041896519" stroke="black" stroke-linecap="round" stroke-width="1" /><polyline clip-path="url(#border_clip)" fill="none" points="5034.041019662507,4942.579041896519 5030.950849718756,4952.08960705947 5020.950849718756,4952.089607059469 5029.041019662504,4957.967459582394 5037.131189606253,4963.845312105321 5029.0410196625035,4969.723164628244 5020.950849718753,4975.601017151168 5017.860679775004,4966.090451988216 5020.950849718755,4956.579886825265 5024.0410196625035,4966.090451988217 5027.131189606254,4956.579886825266 5030.2213595500025,4966.090451988218 5033.311529493752,4975.60101715117 5041.4016994375,4981.478869674095 5033.31152949375,4987.35672219702 5036.401699437501,4977.846157034068 5044.491869381251,4971.968304511144 5054.491869381251,4971.968304511145 5062.5820393250015,4966.0904519882215 5065.672209268752,4956.5798868252705 5062.5820393250015,4966.0904519882215 5059.491869381251,4975.6010171511725 5067.582039325001,4969.723164628249 5057.582039325001,4969.723164628248 5054.49186938125,4979.233729791199 5062.582039325001,4973.355877268275 5065.672209268749,4982.866442431227 5055.672209268749,4982.8664424312265 5052.582039325001,4973.3558772682745 5062.582039325001,4973.355877268275 5054.49186938125,4979.233729791199 5051.4016994375,4988.74429495415 5048.311529493749,4998.254860117102 5045.22135955,4988.74429495415 5037.131189606252,4982.866442431224 5034.0410196625035,4973.355877268272 5030.950849718753,4982.866442431223 5027.8606797750035,4973.355877268271 5030.950849718754,4963.84531210532 5034.041019662505,4954.334746942368 5025.950849718756,4948.4568944194425 5035.950849718757,4948.456894419443 5025.950849718756,4948.4568944194425" stroke="black" stroke-linecap="round" stroke-width="1" /><polyline clip-path="url(#border_clip)" fill="none" points="5025.950849718756,4948.4568944194425 5034.041019662505,4954.334746942368 5030.950849718754,4963.84531210532 5027.860679775006,4954.334746942368 5037.860679775006,4954.334746942369 5040.950849718757,4944.824181779418 5037.860679775006,4954.334746942369 5034.770509831258,4944.824181779417 5042.860679775007,4950.702034302342 5045.950849718758,4941.191469139391 5054.041019662507,4947.069321662317 5064.041019662507,4947.0693216623185 5055.950849718756,4952.947174185242 5047.860679775008,4947.069321662317 5037.860679775007,4947.069321662315 5045.950849718756,4952.947174185241 5055.950849718756,4952.947174185242 5045.950849718756,4952.947174185241 5037.860679775007,4947.069321662315 5029.770509831257,4952.9471741852385 5019.770509831257,4952.947174185238 5016.680339887506,4962.457739348189 5013.590169943755,4971.968304511141 5023.590169943755,4971.9683045111415 5013.590169943755,4971.968304511141 5016.680339887504,4981.4788696740925 5013.590169943753,4990.9894348370435 5003.590169943753,4990.989434837043 5000.500000000002,5000.499999999994 5010.500000000002,5000.4999999999945 5020.500000000003,5000.499999999996 5030.500000000003,5000.499999999997 5033.590169943751,5010.010565162949 5025.5,5015.888417685874 5035.500000000001,5015.888417685875 5043.590169943749,5021.766270208801 5035.500000000001,5015.888417685875 5043.590169943749,5021.766270208801 5035.499999999999,5027.644122731725 5043.590169943749,5021.766270208801 5040.500000000001,5012.255705045848 5030.500000000001,5012.255705045847 5022.409830056251,5018.133557568771" stroke="black" stroke-linecap="round" stroke-width="1" /><polyline clip-path="url(#border_clip)" fill="none" points="5022.409830056251,5018.133557568771 5025.499999999999,5027.644122731723 5033.590169943749,5021.766270208799 5041.680339887498,5027.6441227317255 5044.770509831246,5037.154687894677 5052.860679774997,5031.276835371754 5060.950849718745,5037.154687894679 5069.041019662494,5043.032540417606 5060.950849718745,5037.154687894679 5057.860679774994,5046.665253057631 5054.770509831244,5056.175818220582 5046.680339887494,5062.053670743506 5043.590169943745,5052.543105580554 5035.4999999999945,5058.4209581034775 5045.499999999995,5058.420958103479 5035.4999999999945,5058.4209581034775 5027.409830056245,5064.298810626401 5035.499999999994,5070.176663149327 5043.590169943744,5064.298810626404 5046.680339887492,5073.809375789356 5049.770509831243,5064.298810626404 5039.770509831243,5064.298810626403 5042.860679774991,5073.809375789355 5034.770509831242,5067.931523266429 5026.680339887492,5073.809375789353 5018.590169943743,5067.931523266427 5015.499999999992,5077.442088429379 5018.59016994374,5086.9526535923305 5010.49999999999,5092.830506115254 5018.59016994374,5086.9526535923305 5026.680339887489,5092.830506115256 5023.590169943741,5083.319940952304 5020.499999999993,5073.809375789352 5030.499999999993,5073.809375789353 5040.499999999993,5073.809375789355 5037.409830056242,5083.319940952306 5029.319660112492,5089.197793475229 5032.409830056243,5079.687228312278 5024.319660112492,5085.565080835202 5027.409830056243,5076.054515672251 5030.499999999994,5066.5439505093 5027.4098300562455,5057.033385346347 5037.4098300562455,5057.033385346349" stroke="black" stroke-linecap="round" stroke-width="1" /><polyline clip-path="url(#border_clip)" fill="none" points="5037.4098300562455,5057.033385346349 5029.3196601124955,5062.911237869273 5019.3196601124955,5062.911237869272 5011.229490168746,5057.033385346345 5001.229490168746,5057.0333853463435 4993.139320224996,5062.911237869268 5001.229490168746,5057.0333853463435 5009.319660112496,5051.15553282342 4999.319660112496,5051.155532823419 5007.4098300562455,5057.033385346344 5015.499999999995,5051.155532823421 5005.499999999995,5051.15553282342 5008.590169943746,5041.644967660468 5016.680339887495,5047.522820183394 5013.5901699437445,5057.033385346345 5005.499999999995,5051.15553282342 5015.499999999995,5051.155532823421 5023.590169943746,5045.277680300497 5031.680339887496,5039.399827777574 5028.590169943745,5048.910392940525 5031.680339887494,5058.420958103477 5028.590169943743,5067.9315232664285 5036.680339887494,5062.053670743505 5033.590169943743,5071.564235906456 5025.499999999992,5077.4420884293795 5017.409830056242,5083.319940952303 5020.49999999999,5092.830506115255 5012.409830056241,5086.95265359233 5020.49999999999,5092.830506115255 5017.409830056242,5083.319940952303 5025.499999999992,5077.4420884293795 5022.409830056241,5086.9526535923305 5014.319660112493,5081.074801069405 5006.229490168742,5086.952653592329 5014.319660112493,5081.074801069405 5011.229490168742,5090.585366232356 5008.139320224994,5081.074801069404 5000.049150281243,5086.952653592328 4996.958980337495,5077.442088429376 4988.868810393746,5071.5642359064495 4998.868810393747,5071.564235906451 5001.958980337495,5081.074801069403 5010.049150281243,5086.952653592329" stroke="black" stroke-linecap="round" stroke-width="1" /><polyline clip-path="url(#border_clip)" fill="none" points="5010.049150281243,5086.952653592329 5006.958980337495,5077.442088429377 4998.868810393747,5071.564235906451 5006.958980337495,5077.442088429377 5010.049150281243,5086.952653592329 5020.049150281244,5086.9526535923305 5028.139320224992,5092.830506115257 5036.229490168743,5086.952653592333 5044.319660112493,5081.074801069409 5036.229490168745,5075.196948546483 5044.319660112493,5081.074801069409 5047.409830056244,5071.564235906458 5055.4999999999945,5065.686383383534 5063.590169943744,5071.56423590646 5071.680339887494,5065.686383383537 5063.5901699437445,5059.8085308606105 5055.499999999996,5053.930678337684 5047.409830056247,5048.052825814759 5050.499999999998,5038.542260651807 5060.499999999998,5038.542260651809 5052.40983005625,5032.664408128882 5049.319660112502,5023.15384296593 5052.40983005625,5032.664408128882 5049.319660112502,5023.15384296593 5059.319660112502,5023.153842965932 5049.319660112502,5023.15384296593 5046.229490168751,5032.664408128881 5054.319660112499,5038.542260651808 5064.319660112499,5038.54226065181 5067.40983005625,5029.031695488858 5057.40983005625,5029.031695488857 5054.319660112502,5019.521130325904 5057.409830056253,5010.010565162953 5047.409830056253,5010.010565162952 5044.319660112505,5000.499999999999 5041.2294901687565,4990.989434837047 5044.319660112505,5000.499999999999 5052.4098300562555,4994.6221474770755 5060.5000000000055,4988.744294954152 5070.5000000000055,4988.744294954154 5067.409830056255,4998.254860117105 5077.4098300562555,4998.254860117107 5069.319660112506,4992.37700759418" stroke="black" stroke-linecap="round" stroke-width="1" /><polyline clip-path="url(#border_clip)" fill="none" points="5069.319660112506,4992.37700759418 5077.4098300562555,4998.254860117107 5087.4098300562555,4998.2548601171075 5084.319660112507,4988.7442949541555 5074.319660112507,4988.744294954154 5077.409830056258,4979.233729791203 5069.319660112507,4985.111582314126 5077.409830056256,4990.989434837053 5080.500000000007,4981.478869674102 5083.590169943755,4990.9894348370535 5093.590169943755,4990.989434837055 5096.680339887504,5000.500000000007 5104.7705098312545,4994.622147477084 5107.860679775005,4985.111582314132 5117.860679775005,4985.111582314134 5107.860679775005,4985.111582314132 5104.770509831257,4975.60101715118 5101.680339887506,4985.111582314131 5098.590169943755,4994.622147477083 5090.500000000006,4988.744294954156 5082.409830056257,4982.86644243123 5090.500000000008,4976.9885899083065 5100.500000000008,4976.988589908308 5092.409830056257,4982.866442431232 5102.409830056258,4982.866442431234 5094.319660112507,4988.744294954157 5086.2294901687565,4994.622147477081 5083.139320225006,5004.132712640032 5075.049150281257,4998.254860117106 5085.049150281257,4998.2548601171075 5093.1393202250065,5004.132712640034 5096.229490168755,5013.643277802986 5104.319660112503,5019.521130325912 5114.319660112503,5019.521130325913 5104.319660112503,5019.521130325912 5094.319660112503,5019.52113032591 5102.409830056252,5025.398982848837 5099.319660112504,5015.888417685884 5089.319660112503,5015.888417685883 5097.409830056252,5021.766270208808 5089.319660112502,5027.644122731732 5086.229490168754,5018.13355756878 5094.319660112504,5012.255705045856" stroke="black" stroke-linecap="round" stroke-width="1" /><polyline clip-path="url(#border_clip)" fill="none" points="5094.319660112504,5012.255705045856 5097.409830056252,5021.766270208808 5089.319660112503,5015.888417685883 5079.319660112503,5015.888417685881 5069.319660112503,5015.888417685879 5077.409830056254,5010.010565162956 5080.500000000005,5000.500000000005 5088.5901699437545,4994.622147477081 5078.5901699437545,4994.622147477079 5086.680339887505,4988.7442949541555 5096.680339887505,4988.744294954157 5106.680339887505,4988.744294954159 5109.770509831256,4979.233729791207 5112.860679775004,4988.74429495416 5109.770509831256,4979.233729791207 5106.680339887505,4988.744294954159 5096.680339887505,4988.744294954157 5104.770509831256,4982.866442431234 5107.860679775004,4992.377007594186 5117.860679775004,4992.3770075941875 5107.860679775004,4992.377007594186 5115.950849718754,4986.499155071262 5112.8606797750035,4996.009720234214 5122.8606797750035,4996.009720234215 5119.770509831253,5005.520285397167 5122.860679775001,5015.030850560119 5114.770509831252,5009.152998037192 5117.8606797750035,4999.642432874241 5114.770509831255,4990.1318677112895 5111.6803398875045,4999.6424328742405 5114.770509831252,5009.152998037192 5111.6803398875045,4999.6424328742405 5114.770509831255,4990.1318677112895 5106.680339887506,4984.254015188363 5103.590169943758,4974.74345002541 5093.590169943758,4974.743450025409 5083.590169943758,4974.743450025408 5086.680339887506,4984.2540151883595 5083.590169943758,4974.743450025408 5075.500000000007,4980.621302548331 5065.500000000007,4980.621302548329 5062.409830056259,4971.110737385377 5052.409830056259,4971.110737385376" stroke="black" stroke-linecap="round" stroke-width="1" /><polyline clip-path="url(#border_clip)" fill="none" points="5052.409830056259,4971.110737385376 5055.500000000007,4980.6213025483285 5058.5901699437545,4990.13186771128 5061.680339887503,4999.642432874232 5053.590169943753,5005.520285397156 5045.500000000004,4999.64243287423 5048.590169943752,5009.152998037182 5045.500000000001,5018.6635632001335 5048.590169943752,5009.152998037182 5045.500000000001,5018.6635632001335 5037.409830056252,5012.785710677207 5045.500000000001,5018.6635632001335 5053.590169943751,5012.78571067721 5050.500000000004,5003.275145514258 5042.409830056255,4997.397292991332 5034.319660112504,5003.275145514255 5042.409830056253,5009.1529980371815 5039.319660112502,5018.663563200133 5031.229490168751,5024.541415723056 5039.3196601125,5030.4192682459825 5036.229490168748,5039.9298334089335 5033.139320224997,5049.4403985718845 5036.229490168748,5039.9298334089335 5026.229490168748,5039.929833408932 5016.229490168748,5039.92983340893 5008.139320224999,5034.0519808860045 5016.22949016875,5028.174128363081 5008.139320225001,5022.2962758401545 5011.229490168749,5031.8068410031065 5008.139320225001,5022.2962758401545 5000.049150281253,5016.418423317228 4996.958980337502,5025.928988480179 5005.04915028125,5031.806841003106 4996.958980337499,5037.684693526029 5006.9589803375,5037.684693526031 5003.868810393752,5028.174128363079 4995.778640450001,5034.051980886002 4998.868810393752,5024.541415723051 4990.778640450004,5018.663563200124 4993.868810393755,5009.152998037173 4983.868810393755,5009.1529980371715 4975.778640450004,5015.030850560095 4967.688470506255,5009.15299803717" stroke="black" stroke-linecap="round" stroke-width="1" /><polyline clip-path="url(#border_clip)" fill="none" points="4967.688470506255,5009.15299803717 4975.778640450004,5015.030850560095 4972.688470506253,5024.541415723047 4980.778640450004,5018.6635632001235 4988.868810393754,5012.7857106772 4991.958980337502,5022.296275840152 4995.04915028125,5031.806841003104 4985.04915028125,5031.806841003103 4976.958980337501,5025.9289884801765 4986.958980337501,5025.928988480178 4978.868810393753,5020.051135957252 4988.868810393753,5020.051135957254 4998.868810393753,5020.051135957255 5006.958980337504,5014.173283434331 5010.049150281252,5023.683848597284 5001.958980337503,5017.805996074358 4998.868810393755,5008.295430911406 5001.958980337507,4998.784865748454 4998.868810393758,4989.274300585502 4990.778640450009,4983.3964480625755 4998.868810393758,4989.274300585502 5006.958980337507,4995.152153108428 5003.868810393759,4985.641587945475 5000.7786404500075,4995.152153108427 5008.868810393757,5001.030005631354 5005.778640450008,4991.519440468401 5015.778640450008,4991.5194404684025 5012.6884705062575,5001.030005631354 5002.6884705062575,5001.030005631352 5005.778640450008,4991.519440468401 5008.868810393757,5001.030005631354 5016.958980337505,5006.907858154279 5025.049150281254,5012.785710677205 5015.049150281254,5012.7857106772035 5006.958980337503,5018.663563200127 4996.958980337503,5018.663563200126 5005.049150281251,5024.541415723052 4995.049150281251,5024.541415723051 4986.958980337503,5018.663563200124 4978.868810393754,5012.785710677198 4970.778640450003,5018.663563200122 4973.868810393754,5009.152998037171 4970.778640450003,5018.663563200122" stroke="black" stroke-linecap="round" stroke-width="1" /><polyline clip-path="url(#border_clip)" fill="none" points="4970.778640450003,5018.663563200122 4978.868810393754,5012.785710677198 4986.958980337503,5018.663563200124 4976.958980337502,5018.663563200123 4980.049150281254,5009.1529980371715 4971.958980337505,5003.275145514245 4980.049150281254,5009.1529980371715 4970.049150281253,5009.15299803717 4978.139320225004,5003.275145514246 4970.049150281255,4997.39729299132 4978.139320225006,4991.519440468396 4981.229490168757,4982.008875305445 4984.319660112505,4991.519440468397 4976.229490168755,4997.397292991321 4973.139320225003,5006.907858154272 4981.229490168754,5001.030005631348 4984.319660112505,4991.519440468397 4981.229490168754,5001.030005631348 4973.139320225003,5006.907858154272 4976.229490168751,5016.418423317225 4973.139320225,5025.928988480176 4981.229490168748,5031.806841003102 4989.319660112497,5037.684693526028 4992.409830056248,5028.174128363077 4989.319660112497,5037.684693526028 4999.319660112497,5037.68469352603 5007.409830056246,5043.562546048956 5004.319660112495,5053.073111211907 5012.409830056244,5058.950963734834 5015.4999999999945,5049.440398571882 5018.590169943746,5039.929833408931 5021.680339887497,5030.41926824598 5031.680339887497,5030.419268245982 5034.770509831245,5039.9298334089335 5037.860679774996,5030.4192682459825 5045.950849718747,5024.541415723059 5037.860679774996,5030.4192682459825 5045.950849718747,5024.541415723059 5049.041019662495,5034.051980886012 5045.950849718747,5024.541415723059 5035.950849718747,5024.541415723057 5032.860679774995,5034.051980886008 5035.9508497187435,5043.562546048961" stroke="black" stroke-linecap="round" stroke-width="1" /><polyline clip-path="url(#border_clip)" fill="none" points="5035.9508497187435,5043.562546048961 5045.9508497187435,5043.562546048963 5042.860679774996,5034.05198088601 5050.950849718746,5028.174128363087 5060.950849718747,5028.174128363088 5057.860679774999,5018.663563200136 5065.95084971875,5012.785710677213 5074.041019662501,5006.907858154289 5065.95084971875,5012.785710677213 5074.041019662498,5018.663563200139 5082.131189606247,5024.541415723065 5085.221359549995,5034.051980886017 5075.221359549994,5034.051980886015 5078.3115294937425,5043.562546048968 5081.401699437493,5034.051980886017 5078.3115294937425,5043.562546048968 5081.401699437491,5053.07311121192 5089.4918693812415,5047.195258688997 5086.401699437493,5037.684693526045 5096.401699437493,5037.684693526046 5088.311529493745,5031.80684100312 5085.221359549993,5041.317406166071 5095.221359549994,5041.317406166073 5087.131189606243,5047.195258688997 5090.221359549991,5056.7058238519485 5082.131189606241,5062.583676374872 5090.221359549989,5068.461528897798 5100.22135954999,5068.4615288978 5103.311529493737,5077.972094060753 5100.22135954999,5068.4615288978 5108.31152949374,5062.583676374877 5098.31152949374,5062.583676374875 5088.31152949374,5062.583676374873 5091.401699437491,5053.073111211922 5094.491869381242,5043.562546048971 5102.582039324991,5049.440398571897 5105.672209268739,5058.950963734849 5097.58203932499,5053.073111211923 5100.672209268738,5062.583676374876 5092.582039324989,5056.705823851949 5084.491869381241,5050.827971329023 5074.491869381241,5050.827971329021 5077.5820393249915,5041.31740616607" stroke="black" stroke-linecap="round" stroke-width="1" /><polyline clip-path="url(#border_clip)" fill="none" points="5077.5820393249915,5041.31740616607 5080.67220926874,5050.827971329022 5077.582039324988,5060.338536491973 5069.491869381237,5066.216389014897 5066.401699437486,5075.726954177848 5069.491869381234,5085.237519340801 5066.401699437486,5075.726954177848 5063.311529493738,5066.216389014896 5060.221359549987,5075.726954177847 5068.311529493738,5069.849101654923 5065.22135954999,5060.338536491971 5062.131189606239,5069.849101654922 5054.04101966249,5063.971249131996 5062.131189606241,5058.093396609072 5070.22135954999,5063.971249131999 5062.131189606239,5069.849101654922 5065.22135954999,5060.338536491971 5062.131189606242,5050.827971329019 5059.041019662494,5041.317406166067 5067.1311896062425,5047.195258688993 5077.131189606243,5047.195258688995 5085.221359549992,5053.073111211921 5082.131189606243,5043.562546048969 5090.2213595499925,5049.4403985718955 5093.311529493741,5058.950963734847 5096.401699437488,5068.4615288978 5106.401699437489,5068.461528897801 5098.311529493738,5074.339381420725 5106.401699437489,5068.461528897801 5096.401699437488,5068.4615288978 5093.311529493741,5058.950963734847 5101.401699437489,5064.828816257774 5093.311529493738,5070.706668780697 5096.401699437486,5080.217233943649 5093.311529493738,5070.706668780697 5101.401699437487,5076.584521303624 5091.401699437487,5076.584521303622 5094.491869381234,5086.095086466574 5084.491869381234,5086.095086466572 5076.401699437483,5091.972938989496 5079.491869381235,5082.4623738265445 5089.491869381235,5082.462373826546 5097.582039324986,5076.584521303623" stroke="black" stroke-linecap="round" stroke-width="1" /><polyline clip-path="url(#border_clip)" fill="none" points="5097.582039324986,5076.584521303623 5087.582039324985,5076.584521303621 5079.491869381235,5082.4623738265445 5087.582039324985,5076.584521303621 5097.582039324986,5076.584521303623 5100.672209268737,5067.073956140672 5108.762379212488,5061.196103617748 5105.67220926874,5051.685538454796 5102.582039324992,5042.174973291843 5094.4918693812415,5048.052825814767 5102.582039324992,5042.174973291843 5094.491869381243,5036.297120768917 5091.401699437496,5026.786555605965 5099.491869381246,5020.9087030830415 5096.401699437499,5011.3981379200895 5088.311529493748,5017.275990443012 5080.221359549997,5023.153842965936 5072.131189606246,5029.031695488859 5064.041019662498,5023.153842965933 5067.131189606249,5013.643277802982 5059.041019662498,5019.521130325905 5049.041019662498,5019.521130325903 5059.041019662498,5019.521130325905 5049.041019662498,5019.521130325903 5052.131189606249,5010.010565162952 5049.041019662498,5019.521130325903 5057.131189606246,5025.398982848829 5065.221359549997,5019.521130325907 5068.311529493749,5010.010565162955 5060.22135955,5004.132712640028 5057.131189606249,5013.64327780298 5047.131189606248,5013.643277802978 5039.0410196625,5007.765425280052 5035.950849718749,5017.275990443003 5025.950849718748,5017.275990443001 5015.950849718748,5017.2759904429995 5025.950849718748,5017.275990443001 5022.860679775001,5007.7654252800485 5019.770509831253,4998.2548601170965 5022.860679775004,4988.7442949541455 5030.950849718753,4994.622147477072 5034.0410196625035,4985.11158231412 5025.9508497187535,4990.9894348370435" stroke="black" stroke-linecap="round" stroke-width="1" /><polyline clip-path="url(#border_clip)" fill="none" points="5025.9508497187535,4990.9894348370435 5034.0410196625035,4985.11158231412 5037.131189606255,4975.601017151169 5027.131189606255,4975.601017151167 5024.0410196625035,4985.111582314118 5015.950849718755,4979.233729791192 5019.041019662503,4988.744294954145 5027.131189606253,4982.866442431221 5019.041019662505,4976.988589908295 5029.041019662505,4976.9885899082965 5032.131189606257,4967.4780247453455 5042.131189606257,4967.478024745347 5039.041019662509,4957.967459582394 5030.950849718761,4952.089607059468 5034.041019662512,4942.579041896517 5030.950849718761,4952.089607059468 5020.95084971876,4952.089607059466 5029.041019662509,4957.967459582393 5037.131189606257,4963.845312105319 5029.041019662506,4969.723164628243 5020.950849718756,4975.601017151166 5017.860679775008,4966.090451988213 5020.95084971876,4956.579886825262 5024.041019662507,4966.090451988215 5027.131189606259,4956.579886825264 5030.221359550006,4966.090451988216 5033.311529493754,4975.601017151168 5041.401699437502,4981.478869674095 5033.311529493752,4987.356722197018 5036.401699437503,4977.846157034067 5044.491869381254,4971.968304511143 5054.491869381254,4971.968304511145 5062.582039325005,4966.090451988222 5065.672209268756,4956.579886825271 5062.582039325005,4966.090451988222 5059.491869381253,4975.601017151173 5067.582039325004,4969.72316462825 5057.582039325004,4969.723164628248 5054.491869381253,4979.233729791199 5062.582039325003,4973.355877268276 5065.672209268751,4982.866442431228 5055.672209268751,4982.8664424312265 5052.582039325003,4973.355877268274" stroke="black" stroke-linecap="round" stroke-width="1" /><polyline clip-path="url(#border_clip)" fill="none" points="5052.582039325003,4973.355877268274 5062.582039325003,4973.355877268276 5054.491869381253,4979.233729791199 5051.4016994375015,4988.744294954151 5048.31152949375,4998.254860117102 5045.2213595500025,4988.744294954149 5037.131189606253,4982.866442431223 5034.041019662506,4973.355877268271 5030.950849718754,4982.866442431222 5027.860679775007,4973.355877268269 5030.950849718758,4963.845312105318 5034.04101966251,4954.334746942367 5025.950849718761,4948.456894419441 5035.950849718762,4948.4568944194425 5025.950849718761,4948.456894419441 5034.04101966251,4954.334746942367 5030.950849718758,4963.845312105318 5027.860679775011,4954.334746942366 5037.860679775011,4954.334746942368 5040.950849718763,4944.824181779417 5037.860679775011,4954.334746942368 5034.770509831264,4944.824181779415 5042.860679775012,4950.702034302341 5045.9508497187635,4941.19146913939 5054.041019662512,4947.069321662317 5064.041019662512,4947.0693216623185 5055.950849718761,4952.947174185242 5047.860679775013,4947.069321662316 5037.860679775013,4947.069321662314 5045.950849718761,4952.94717418524 5055.950849718761,4952.947174185242 5045.950849718761,4952.94717418524 5037.860679775013,4947.069321662314 5029.770509831262,4952.947174185238 5019.770509831261,4952.947174185235 5016.68033988751,4962.457739348187 5013.590169943758,4971.968304511138 5023.590169943758,4971.96830451114 5013.590169943758,4971.968304511138 5016.680339887506,4981.47886967409 5013.5901699437545,4990.989434837041 5003.5901699437545,4990.989434837039 5000.500000000003,5000.49999999999" stroke="black" stroke-linecap="round" stroke-width="1" /><polyline clip-path="url(#border_clip)" fill="none" points="5000.500000000003,5000.49999999999 5010.500000000004,5000.499999999993 5020.500000000004,5000.4999999999945 5030.500000000004,5000.499999999996 5033.590169943752,5010.010565162948 5025.500000000001,5015.888417685872 5035.500000000001,5015.888417685874 5043.590169943749,5021.7662702088 5035.500000000001,5015.888417685874 5043.590169943749,5021.7662702088 5035.499999999998,5027.644122731724 5043.590169943749,5021.7662702088 5040.500000000002,5012.255705045848 5030.500000000002,5012.255705045846 5022.409830056251,5018.133557568769 5025.499999999998,5027.644122731722 5033.590169943749,5021.766270208798 5041.680339887498,5027.644122731725 5044.770509831245,5037.154687894677 5052.860679774996,5031.276835371754 5060.950849718744,5037.154687894681 5069.041019662493,5043.032540417607 5060.950849718744,5037.154687894681 5057.8606797749935,5046.665253057632 5054.770509831242,5056.175818220583 5046.680339887491,5062.053670743507 5043.590169943744,5052.543105580554 5035.499999999993,5058.4209581034775 5045.499999999993,5058.420958103479 5035.499999999993,5058.4209581034775 5027.409830056242,5064.2988106264 5035.49999999999,5070.176663149327 5043.590169943741,5064.298810626404 5046.680339887489,5073.809375789356 5049.77050983124,5064.298810626405 5039.77050983124,5064.298810626403 5042.860679774987,5073.809375789356 5034.770509831239,5067.9315232664285 5026.680339887488,5073.809375789352 5018.59016994374,5067.931523266426 5015.499999999988,5077.442088429377 5018.590169943735,5086.95265359233 5010.4999999999845,5092.830506115252" stroke="black" stroke-linecap="round" stroke-width="1" /><polyline clip-path="url(#border_clip)" fill="none" points="5010.4999999999845,5092.830506115252 5018.590169943735,5086.95265359233 5026.6803398874845,5092.830506115256 5023.590169943736,5083.319940952303 5020.499999999989,5073.809375789351 5030.499999999989,5073.809375789353 5040.499999999989,5073.809375789355 5037.409830056238,5083.319940952306 5029.319660112487,5089.197793475229 5032.409830056238,5079.687228312278 5024.319660112487,5085.565080835201 5027.409830056239,5076.05451567225 5030.499999999991,5066.543950509299 5027.409830056243,5057.033385346346 5037.409830056244,5057.033385346349 5029.319660112493,5062.911237869272 5019.319660112492,5062.91123786927 5011.229490168744,5057.0333853463435 5001.229490168744,5057.033385346342 4993.139320224993,5062.911237869264 5001.229490168744,5057.033385346342 5009.319660112495,5051.155532823418 4999.319660112494,5051.155532823416 5007.409830056243,5057.033385346343 5015.499999999994,5051.155532823419 5005.499999999993,5051.155532823417 5008.5901699437445,5041.644967660466 5016.680339887494,5047.5228201833925 5013.590169943742,5057.0333853463435 5005.499999999993,5051.155532823417 5015.499999999994,5051.155532823419 5023.5901699437445,5045.277680300496 5031.680339887495,5039.399827777573 5028.590169943744,5048.910392940524 5031.680339887492,5058.420958103477 5028.59016994374,5067.931523266428 5036.680339887491,5062.053670743504 5033.590169943739,5071.564235906456 5025.499999999988,5077.442088429379 5017.409830056237,5083.319940952302 5020.4999999999845,5092.830506115254 5012.409830056236,5086.952653592328 5020.4999999999845,5092.830506115254" stroke="black" stroke-linecap="round" stroke-width="1" /><polyline clip-path="url(#border_clip)" fill="none" points="5020.4999999999845,5092.830506115254 5017.409830056237,5083.319940952302 5025.499999999988,5077.442088429379 5022.409830056236,5086.95265359233 5014.319660112488,5081.074801069403 5006.229490168737,5086.952653592327 5014.319660112488,5081.074801069403 5011.229490168736,5090.585366232354 5008.139320224989,5081.074801069402 5000.049150281238,5086.952653592325 4996.95898033749,5077.442088429373 4988.868810393742,5071.564235906446 4998.868810393742,5071.564235906449 5001.95898033749,5081.074801069401 5010.049150281238,5086.952653592328 5006.958980337491,5077.442088429375 4998.868810393742,5071.564235906449 5006.958980337491,5077.442088429375 5010.049150281238,5086.952653592328 5020.049150281239,5086.95265359233 5028.139320224987,5092.830506115256 5036.229490168738,5086.952653592333 5044.319660112489,5081.07480106941 5036.229490168741,5075.196948546483 5044.319660112489,5081.07480106941 5047.409830056241,5071.564235906459 5055.499999999992,5065.686383383535 5063.59016994374,5071.564235906462 5071.680339887491,5065.686383383539 5063.590169943743,5059.808530860612 5055.4999999999945,5053.930678337685 5047.4098300562455,5048.052825814759 5050.499999999997,5038.542260651808 5060.499999999997,5038.54226065181 5052.409830056249,5032.664408128883 5049.319660112502,5023.15384296593 5052.409830056249,5032.664408128883 5049.319660112502,5023.15384296593 5059.319660112502,5023.153842965933 5049.319660112502,5023.15384296593 5046.22949016875,5032.664408128882 5054.319660112498,5038.542260651809 5064.319660112498,5038.5422606518105" stroke="black" stroke-linecap="round" stroke-width="1" /><polyline clip-path="url(#border_clip)" fill="none" points="5064.319660112498,5038.5422606518105 5067.40983005625,5029.031695488859 5057.40983005625,5029.031695488858 5054.319660112503,5019.521130325905 5057.409830056254,5010.010565162954 5047.409830056254,5010.010565162952 5044.319660112506,5000.499999999999 5041.229490168758,4990.989434837046 5044.319660112506,5000.499999999999 5052.409830056257,4994.6221474770755 5060.500000000008,4988.744294954153 5070.500000000008,4988.744294954155 5067.409830056256,4998.254860117106 5077.409830056257,4998.254860117108 5069.319660112508,4992.377007594181 5077.409830056257,4998.254860117108 5087.409830056257,4998.25486011711 5084.31966011251,4988.744294954157 5074.319660112509,4988.7442949541555 5077.409830056261,4979.2337297912045 5069.31966011251,4985.111582314128 5077.409830056258,4990.989434837054 5080.50000000001,4981.478869674103 5083.590169943758,4990.989434837055 5093.590169943758,4990.989434837058 5096.680339887505,5000.50000000001 5104.770509831256,4994.622147477087 5107.860679775008,4985.111582314136 5117.860679775008,4985.111582314138 5107.860679775008,4985.111582314136 5104.770509831261,4975.601017151183 5101.680339887509,4985.1115823141345 5098.590169943757,4994.6221474770855 5090.500000000009,4988.744294954159 5082.40983005626,4982.866442431233 5090.500000000012,4976.988589908309 5100.500000000012,4976.988589908311 5092.409830056261,4982.866442431235 5102.409830056261,4982.8664424312365 5094.31966011251,4988.74429495416 5086.229490168759,4994.622147477083 5083.139320225007,5004.132712640035 5075.049150281259,4998.2548601171075" stroke="black" stroke-linecap="round" stroke-width="1" /><polyline clip-path="url(#border_clip)" fill="none" points="5075.049150281259,4998.2548601171075 5085.049150281259,4998.25486011711 5093.139320225007,5004.1327126400365 5096.229490168756,5013.643277802989 5104.319660112504,5019.521130325916 5114.319660112504,5019.5211303259175 5104.319660112504,5019.521130325916 5094.319660112504,5019.521130325913 5102.409830056252,5025.39898284884 5099.319660112505,5015.888417685887 5089.319660112504,5015.8884176858855 5097.409830056253,5021.766270208812 5089.319660112502,5027.6441227317355 5086.229490168754,5018.133557568783 5094.3196601125055,5012.25570504586 5097.409830056253,5021.766270208812 5089.319660112504,5015.8884176858855 5079.319660112504,5015.888417685883 5069.319660112504,5015.888417685881 5077.409830056255,5010.010565162958 5080.500000000006,5000.500000000006 5088.590169943757,4994.622147477084 5078.590169943757,4994.622147477082 5086.680339887508,4988.744294954158 5096.680339887508,4988.74429495416 5106.680339887508,4988.744294954163 5109.77050983126,4979.233729791212 5112.860679775007,4988.744294954164 5109.77050983126,4979.233729791212 5106.680339887508,4988.744294954163 5096.680339887508,4988.74429495416 5104.770509831259,4982.866442431237 5107.860679775006,4992.37700759419 5117.860679775007,4992.377007594192 5107.860679775006,4992.37700759419 5115.950849718758,4986.499155071267 5112.860679775006,4996.009720234218 5122.860679775006,4996.00972023422 5119.7705098312545,5005.520285397171 5122.860679775002,5015.030850560123 5114.770509831254,5009.152998037197 5117.860679775005,4999.642432874246 5114.770509831258,4990.131867711293" stroke="black" stroke-linecap="round" stroke-width="1" /><polyline clip-path="url(#border_clip)" fill="none" points="5114.770509831258,4990.131867711293 5111.680339887506,4999.642432874244 5114.770509831254,5009.152998037197 5111.680339887506,4999.642432874244 5114.770509831258,4990.131867711293 5106.680339887509,4984.254015188367 5103.590169943762,4974.743450025414 5093.590169943762,4974.743450025412 5083.590169943762,4974.743450025409 5086.680339887509,4984.254015188362 5083.590169943762,4974.743450025409 5075.50000000001,4980.621302548333 5065.50000000001,4980.62130254833 5062.409830056263,4971.110737385378 5052.409830056262,4971.110737385376 5055.50000000001,4980.6213025483285 5058.590169943757,4990.131867711281 5061.6803398875045,4999.642432874233 5053.590169943754,5005.520285397157 5045.5000000000055,4999.64243287423 5048.590169943753,5009.152998037182 5045.500000000001,5018.6635632001335 5048.590169943753,5009.152998037182 5045.500000000001,5018.6635632001335 5037.409830056253,5012.785710677207 5045.500000000001,5018.6635632001335 5053.590169943752,5012.785710677211 5050.500000000005,5003.275145514258 5042.409830056256,4997.397292991331 5034.3196601125055,5003.275145514254 5042.409830056254,5009.152998037181 5039.319660112502,5018.663563200132 5031.229490168751,5024.541415723055 5039.319660112499,5030.419268245982 5036.229490168747,5039.929833408933 5033.139320224996,5049.4403985718845 5036.229490168747,5039.929833408933 5026.229490168747,5039.929833408931 5016.229490168746,5039.929833408928 5008.139320224998,5034.051980886002 5016.229490168749,5028.174128363079 5008.139320225001,5022.296275840152 5011.229490168748,5031.806841003105" stroke="black" stroke-linecap="round" stroke-width="1" /><polyline clip-path="url(#border_clip)" fill="none" points="5011.229490168748,5031.806841003105 5008.139320225001,5022.296275840152 5000.049150281253,5016.4184233172255 4996.958980337501,5025.9289884801765 5005.049150281249,5031.806841003103 4996.958980337498,5037.684693526026 5006.958980337498,5037.684693526028 5003.868810393751,5028.174128363076 4995.77864045,5034.051980885999 4998.868810393752,5024.541415723048 4990.778640450004,5018.663563200121 4993.868810393755,5009.15299803717 4983.868810393755,5009.152998037168 4975.778640450004,5015.030850560091 4967.688470506256,5009.152998037164 4975.778640450004,5015.030850560091 4972.688470506252,5024.541415723042 4980.778640450003,5018.663563200119 4988.868810393754,5012.785710677195 4991.958980337502,5022.296275840148 4995.049150281249,5031.806841003101 4985.049150281248,5031.806841003098 4976.9589803375,5025.928988480172 4986.958980337501,5025.928988480174 4978.868810393752,5020.051135957247 4988.868810393753,5020.051135957249 4998.868810393753,5020.051135957252 5006.958980337504,5014.173283434328 5010.049150281251,5023.683848597281 5001.958980337503,5017.805996074355 4998.868810393756,5008.295430911402 5001.9589803375075,4998.784865748451 4998.86881039376,4989.274300585498 4990.778640450011,4983.396448062572 4998.86881039376,4989.274300585498 5006.958980337508,4995.152153108425 5003.868810393761,4985.641587945473 5000.778640450009,4995.152153108424 5008.8688103937575,5001.030005631351 5005.77864045001,4991.519440468398 5015.77864045001,4991.5194404684 5012.688470506258,5001.030005631352 5002.688470506258,5001.030005631349" stroke="black" stroke-linecap="round" stroke-width="1" /><polyline clip-path="url(#border_clip)" fill="none" points="5002.688470506258,5001.030005631349 5005.77864045001,4991.519440468398 5008.8688103937575,5001.030005631351 5016.958980337506,5006.907858154277 5025.049150281255,5012.785710677204 5015.049150281254,5012.785710677202 5006.958980337503,5018.663563200124 4996.958980337503,5018.663563200123 5005.049150281251,5024.541415723049 4995.049150281251,5024.541415723047 4986.958980337502,5018.66356320012 4978.868810393754,5012.7857106771935 4970.778640450003,5018.663563200116 4973.868810393755,5009.152998037165 4970.778640450003,5018.663563200116 4978.868810393754,5012.7857106771935 4986.958980337502,5018.66356320012 4976.958980337502,5018.663563200118 4980.049150281254,5009.152998037167 4971.958980337506,5003.27514551424 4980.049150281254,5009.152998037167 4970.049150281254,5009.152998037164 4978.139320225005,5003.275145514242 4970.0491502812565,4997.397292991314 4978.139320225007,4991.519440468392 4981.229490168759,4982.008875305441 4984.319660112506,4991.5194404683925 4976.229490168756,4997.397292991316 4973.139320225004,5006.907858154267 4981.229490168755,5001.0300056313445 4984.319660112506,4991.5194404683925 4981.229490168755,5001.0300056313445 4973.139320225004,5006.907858154267 4976.229490168751,5016.41842331722 4973.139320224999,5025.928988480171 4981.229490168747,5031.806841003097 4989.3196601124955,5037.684693526025 4992.409830056247,5028.174128363074 4989.3196601124955,5037.684693526025 4999.319660112496,5037.684693526026 5007.409830056245,5043.562546048954 5004.319660112493,5053.073111211905 5012.409830056241,5058.950963734832" stroke="black" stroke-linecap="round" stroke-width="1" /><polyline clip-path="url(#border_clip)" fill="none" points="5012.409830056241,5058.950963734832 5015.499999999993,5049.44039857188 5018.5901699437445,5039.929833408929 5021.680339887496,5030.419268245978 5031.680339887496,5030.419268245981 5034.770509831244,5039.9298334089335 5037.860679774996,5030.419268245982 5045.950849718747,5024.541415723059 5037.860679774996,5030.419268245982 5045.950849718747,5024.541415723059 5049.041019662494,5034.051980886012 5045.950849718747,5024.541415723059 5035.950849718747,5024.541415723057 5032.860679774995,5034.051980886008 5035.950849718743,5043.56254604896 5045.950849718743,5043.562546048963 5042.860679774995,5034.05198088601 5050.950849718746,5028.174128363087 5060.950849718747,5028.174128363089 5057.860679774999,5018.663563200137 5065.950849718751,5012.7857106772135 5074.041019662502,5006.907858154291 5065.950849718751,5012.7857106772135 5074.041019662499,5018.663563200141 5082.131189606247,5024.541415723068 5085.221359549994,5034.05198088602 5075.221359549994,5034.051980886018 5078.311529493742,5043.56254604897 5081.401699437493,5034.051980886019 5078.311529493742,5043.56254604897 5081.401699437489,5053.073111211923 5089.49186938124,5047.195258689 5086.401699437492,5037.684693526047 5096.401699437493,5037.68469352605 5088.311529493744,5031.806841003123 5085.2213595499925,5041.317406166074 5095.221359549993,5041.317406166077 5087.131189606242,5047.195258688999 5090.221359549989,5056.705823851952 5082.131189606238,5062.583676374875 5090.221359549986,5068.461528897802 5100.221359549987,5068.461528897804 5103.311529493734,5077.972094060757" stroke="black" stroke-linecap="round" stroke-width="1" /><polyline clip-path="url(#border_clip)" fill="none" points="5103.311529493734,5077.972094060757 5100.221359549987,5068.461528897804 5108.311529493738,5062.583676374881 5098.311529493738,5062.583676374878 5088.311529493737,5062.583676374877 5091.401699437489,5053.073111211926 5094.491869381241,5043.562546048975 5102.58203932499,5049.440398571901 5105.672209268737,5058.950963734854 5097.582039324989,5053.0731112119265 5100.672209268736,5062.583676374879 5092.582039324987,5056.705823851953 5084.491869381239,5050.827971329026 5074.491869381239,5050.827971329023 5077.582039324991,5041.317406166072 5080.672209268738,5050.827971329025 5077.582039324986,5060.338536491976 5069.491869381235,5066.216389014899 5066.401699437482,5075.72695417785 5069.49186938123,5085.2375193408025 5066.401699437482,5075.72695417785 5063.311529493735,5066.216389014898 5060.221359549983,5075.726954177849 5068.311529493735,5069.849101654925 5065.221359549988,5060.338536491973 5062.131189606235,5069.849101654924 5054.041019662487,5063.971249131997 5062.131189606239,5058.093396609074 5070.221359549987,5063.9712491320015 5062.131189606235,5069.849101654924 5065.221359549988,5060.338536491973 5062.131189606241,5050.82797132902 5059.041019662493,5041.3174061660675 5067.131189606242,5047.195258688995 5077.131189606242,5047.1952586889975 5085.22135954999,5053.073111211924 5082.1311896062425,5043.562546048971 5090.221359549991,5049.440398571898 5093.311529493738,5058.950963734851 5096.401699437485,5068.461528897804 5106.401699437486,5068.461528897806 5098.311529493734,5074.339381420729 5106.401699437486,5068.461528897806" stroke="black" stroke-linecap="round" stroke-width="1" /><polyline clip-path="url(#border_clip)" fill="none" points="5106.401699437486,5068.461528897806 5096.401699437485,5068.461528897804 5093.311529493738,5058.950963734851 5101.401699437487,5064.828816257777 5093.311529493735,5070.706668780701 5096.401699437482,5080.217233943653 5093.311529493735,5070.706668780701 5101.401699437483,5076.584521303627 5091.401699437483,5076.5845213036255 5094.491869381231,5086.095086466577 5084.491869381231,5086.095086466576 5076.401699437479,5091.972938989498 5079.491869381231,5082.462373826547 5089.4918693812315,5082.46237382655 5097.582039324982,5076.584521303626 5087.582039324982,5076.584521303625 5079.491869381231,5082.462373826547 5087.582039324982,5076.584521303625 5097.582039324982,5076.584521303626 5100.672209268734,5067.073956140675 5108.762379212486,5061.196103617753 5105.672209268739,5051.6855384548 5102.5820393249915,5042.174973291848 5094.49186938124,5048.052825814771 5102.5820393249915,5042.174973291848 5094.491869381243,5036.297120768921 5091.401699437496,5026.786555605968 5099.491869381247,5020.908703083045 5096.4016994375,5011.398137920092 5088.311529493749,5017.275990443015 5080.221359549997,5023.153842965939 5072.131189606246,5029.031695488861 5064.041019662498,5023.153842965934 5067.13118960625,5013.643277802983 5059.041019662499,5019.521130325906 5049.041019662498,5019.521130325904 5059.041019662499,5019.521130325906 5049.041019662498,5019.521130325904 5052.13118960625,5010.010565162953 5049.041019662498,5019.521130325904 5057.131189606246,5025.39898284883 5065.221359549998,5019.5211303259075 5068.31152949375,5010.0105651629565" stroke="black" stroke-linecap="round" stroke-width="1" /><polyline clip-path="url(#border_clip)" fill="none" points="5068.31152949375,5010.0105651629565 5060.221359550002,5004.132712640029 5057.13118960625,5013.64327780298 5047.131189606249,5013.643277802978 5039.041019662501,5007.765425280051 5035.950849718749,5017.275990443002 5025.950849718748,5017.2759904429995 5015.950849718748,5017.275990442997 5025.950849718748,5017.2759904429995 5022.860679775002,5007.765425280047 5019.7705098312545,4998.254860117095 5022.860679775006,4988.744294954144 5030.950849718754,4994.62214747707 5034.041019662506,4985.111582314119 5025.950849718755,4990.989434837042 5034.041019662506,4985.111582314119 5037.131189606258,4975.601017151168 5027.131189606258,4975.601017151165 5024.041019662506,4985.111582314116 5015.950849718758,4979.23372979119 5019.041019662505,4988.744294954143 5027.131189606256,4982.866442431219 5019.041019662508,4976.988589908293 5029.041019662508,4976.988589908295 5032.13118960626,4967.478024745344 5042.131189606261,4967.478024745346 5039.0410196625135,4957.9674595823935 5030.950849718765,4952.089607059467 5034.041019662517,4942.579041896516 5030.950849718765,4952.089607059467 5020.950849718764,4952.0896070594645 5029.041019662513,4957.967459582392 5037.131189606262,4963.845312105318 5029.04101966251,4969.723164628241 5020.950849718759,4975.601017151164 5017.860679775012,4966.0904519882115 5020.9508497187635,4956.5798868252605 5024.041019662511,4966.090451988213 5027.1311896062625,4956.579886825262 5030.22135955001,4966.090451988214 5033.311529493757,4975.601017151167 5041.401699437505,4981.478869674094 5033.311529493754,4987.356722197017" stroke="black" stroke-linecap="round" stroke-width="1" /><polyline clip-path="url(#border_clip)" fill="none" points="5033.311529493754,4987.356722197017 5036.401699437506,4977.846157034066 5044.491869381257,4971.968304511143 5054.491869381258,4971.968304511146 5062.582039325009,4966.090451988222 5065.6722092687605,4956.579886825271 5062.582039325009,4966.090451988222 5059.491869381257,4975.601017151173 5067.582039325008,4969.723164628251 5057.582039325008,4969.723164628248 5054.491869381256,4979.2337297912 5062.582039325007,4973.355877268276 5065.672209268754,4982.866442431229 5055.672209268754,4982.8664424312265 5052.582039325007,4973.3558772682745 5062.582039325007,4973.355877268276 5054.491869381256,4979.2337297912 5051.401699437503,4988.744294954151 5048.311529493752,4998.254860117102 5045.221359550004,4988.744294954149 5037.131189606256,4982.866442431222 5034.041019662509,4973.355877268269 5030.950849718757,4982.86644243122 5027.86067977501,4973.355877268268 5030.950849718762,4963.845312105316 5034.041019662514,4954.334746942365 5025.950849718766,4948.456894419439 5035.950849718766,4948.456894419441 5025.950849718766,4948.456894419439 5034.041019662514,4954.334746942365 5030.950849718762,4963.845312105316 5027.860679775015,4954.334746942364 5037.860679775015,4954.334746942366 5040.950849718767,4944.824181779415 5037.860679775015,4954.334746942366 5034.770509831268,4944.824181779414 5042.860679775016,4950.7020343023405 5045.950849718769,4941.1914691393895 5054.041019662517,4947.069321662317 5064.041019662517,4947.069321662319 5055.950849718766,4952.947174185242 5047.860679775017,4947.069321662315 5037.860679775017,4947.069321662313" stroke="black" stroke-linecap="round" stroke-width="1" /><polyline clip-path="url(#border_clip)" fill="none" points="5037.860679775017,4947.069321662313 5045.950849718765,4952.947174185239 5055.950849718766,4952.947174185242 5045.950849718765,4952.947174185239 5037.860679775017,4947.069321662313 5029.770509831266,4952.947174185236 5019.770509831265,4952.947174185233 5016.680339887514,4962.457739348184 5013.590169943762,4971.968304511135 5023.590169943762,4971.968304511138 5013.590169943762,4971.968304511135 5016.680339887508,4981.478869674088 5013.590169943756,4990.989434837039 5003.590169943756,4990.989434837036 5000.500000000004,5000.499999999987" stroke="black" stroke-linecap="round" stroke-width="1" /></svg>