<?xml version="1.0" encoding="utf-8" ?>
<svg baseProfile="full" height="1000px" version="1.1" width="1000px" xmlns="http://www.w3.org/2000/svg" xmlns:ev="http://www.w3.org/2001/xml-events" xmlns:xlink="http://www.w3.org/1999/xlink"><defs><clipPath id="border_clip"><rect height="1000" width="1000" x="0" y="0" /></clipPath></defs><polyline clip-path="url(#border_clip)" fill="none" points="500.5,500.5 510.5,500.5 520.5,500.5 523.5901699437495,510.01056516295154 515.5,515.8884176858762 525.5,515.8884176858762 533.5901699437495,521.766270208801 525.5,515.8884176858762 533.5901699437495,521.766270208801 525.5,527.6441227317257 533.5901699437495,521.766270208801 530.5,512.2557050458495 520.5,512.2557050458495 512.4098300562505,518.1335575687742 515.5,527.6441227317257 523.5901699437495,521.766270208801 531.6803398874989,527.6441227317257 534.7705098312484,537.1546878946773 542.8606797749978,531.2768353717526 550.9508497187473,537.1546878946773 559.0410196624968,543.032540417602 550.9508497187473,537.1546878946773 547.8606797749978,546.6652530576289 544.7705098312483,556.1758182205804 536.6803398874988,562.0536707435051 533.5901699437494,552.5431055805535 525.4999999999999,558.4209581034783 535.4999999999999,558.4209581034783 525.4999999999999,558.4209581034783 517.4098300562504,564.2988106264029 525.4999999999999,570.1766631493277 533.5901699437493,564.298810626403 536.6803398874988,573.8093757893546 539.7705098312483,564.298810626403 529.7705098312483,564.298810626403 532.8606797749977,573.8093757893546 524.7705098312483,567.9315232664297 516.6803398874988,573.8093757893545 508.59016994374934,567.9315232664297 505.49999999999983,577.4420884293812 508.59016994374923,586.9526535923328 500.4999999999997,592.8305061152574 508.59016994374923,586.9526535923328" stroke="black" stroke-linecap="round" stroke-width="1" /><polyline clip-path="url(#border_clip)" fill="none" points="508.59016994374923,586.9526535923328 516.6803398874987,592.8305061152575 513.5901699437493,583.319940952306 510.49999999999983,573.8093757893545 520.4999999999999,573.8093757893545 530.4999999999999,573.8093757893546 527.4098300562504,583.3199409523061 519.3196601125009,589.1977934752308 522.4098300562504,579.6872283122792 514.3196601125009,585.565080835204 517.4098300562504,576.0545156722524 520.4999999999999,566.5439505093009 517.4098300562505,557.0333853463493 527.4098300562505,557.0333853463494 519.319660112501,562.911237869274 509.31966011250097,562.911237869274 501.2294901687515,557.0333853463492 491.2294901687515,557.0333853463492 483.139320225002,562.9112378692738 491.2294901687515,557.0333853463492 499.319660112501,551.1555328234244 489.319660112501,551.1555328234244 497.4098300562505,557.0333853463492 505.5,551.1555328234246 495.5,551.1555328234244 498.5901699437495,541.644967660473 506.680339887499,547.5228201833977 503.5901699437494,557.0333853463492 495.5,551.1555328234244 505.5,551.1555328234246 513.5901699437495,545.2776803004998 521.680339887499,539.3998277775752 518.5901699437495,548.9103929405267 521.6803398874989,558.4209581034783 518.5901699437493,567.9315232664298 526.6803398874988,562.0536707435051 523.5901699437493,571.5642359064566 515.4999999999998,577.4420884293813 507.4098300562502,583.319940952306 510.4999999999996,592.8305061152575 502.4098300562502,586.9526535923327 510.4999999999996,592.8305061152575 507.4098300562502,583.319940952306" stroke="black" stroke-linecap="round" stroke-width="1" /><polyline clip-path="url(#border_clip)" fill="none" points="507.4098300562502,583.319940952306 515.4999999999998,577.4420884293813 512.4098300562501,586.9526535923328 504.31966011250074,581.074801069408 496.2294901687512,586.9526535923326 504.31966011250074,581.074801069408 501.22949016875117,590.5853662323594 498.1393202250018,581.0748010694078 490.04915028125225,586.9526535923326 486.9589803375029,577.442088429381 478.8688103937535,571.5642359064561 488.8688103937535,571.5642359064562 491.95898033750285,581.0748010694078 500.04915028125225,586.9526535923327 496.9589803375029,577.4420884293811 488.8688103937535,571.5642359064562 496.9589803375029,577.4420884293811 500.04915028125225,586.9526535923327 510.0491502812523,586.9526535923328 518.1393202250017,592.8305061152577 526.2294901687512,586.952653592333 534.3196601125009,581.0748010694083 526.2294901687515,575.1969485464836 534.3196601125009,581.0748010694083 537.4098300562504,571.5642359064568 545.5,565.6863833835322 553.5901699437494,571.564235906457 561.6803398874989,565.6863833835324 553.5901699437495,559.8085308606076 545.5000000000001,553.9306783376827 537.4098300562507,548.0528258147579 540.5000000000003,538.5422606518064 550.5000000000003,538.5422606518066 542.4098300562509,532.6644081288816 539.3196601125017,523.1538429659302 542.4098300562509,532.6644081288816 539.3196601125017,523.1538429659302 549.3196601125017,523.1538429659303 539.3196601125017,523.15384296593 536.229490168752,532.6644081288816 544.3196601125014,538.5422606518065 554.3196601125014,538.5422606518066 557.409830056251,529.0316954888551" stroke="black" stroke-linecap="round" stroke-width="1" /><polyline clip-path="url(#border_clip)" fill="none" points="557.409830056251,529.0316954888551 547.409830056251,529.031695488855 544.3196601125017,519.5211303259034 547.4098300562513,510.0105651629519 537.4098300562513,510.0105651629517 534.319660112502,500.5000000000001 531.2294901687526,490.9894348370485 534.319660112502,500.5000000000001 542.4098300562515,494.6221474770755 550.5000000000011,488.74429495415086 560.5000000000011,488.74429495415103 557.4098300562515,498.2548601171025 567.4098300562515,498.2548601171027 559.3196601125021,492.3770075941778 567.4098300562515,498.2548601171027 577.4098300562515,498.25486011710285 574.3196601125022,488.74429495415126 564.3196601125022,488.7442949541511 567.4098300562518,479.2337297911996 559.3196601125022,485.1115823141242 567.4098300562516,490.9894348370491 570.5000000000013,481.47886967409755 573.5901699437507,490.9894348370492 583.5901699437507,490.9894348370494 586.6803398874999,500.50000000000097 594.7705098312496,494.62214747707634 597.8606797749992,485.11158231412486 607.8606797749992,485.11158231412503 597.8606797749992,485.11158231412486 594.7705098312499,475.60101715117327 591.6803398875002,485.11158231412475 588.5901699437505,494.6221474770762 580.5000000000011,488.74429495415137 572.4098300562518,482.86644243122646 580.5000000000014,476.9885899083019 590.5000000000014,476.98858990830206 582.4098300562518,482.86644243122663 592.4098300562518,482.86644243122686 584.3196601125022,488.7442949541514 576.2294901687526,494.622147477076 573.139320225003,504.1327126400275 565.0491502812536,498.2548601171026 575.0491502812536,498.2548601171028" stroke="black" stroke-linecap="round" stroke-width="1" /><polyline clip-path="url(#border_clip)" fill="none" points="575.0491502812536,498.2548601171028 583.139320225003,504.1327126400277 586.2294901687522,513.6432778029794 594.3196601125017,519.5211303259042 604.3196601125017,519.5211303259044 594.3196601125017,519.5211303259042 584.3196601125017,519.521130325904 592.4098300562509,525.398982848829 589.3196601125017,515.8884176858774 579.3196601125017,515.8884176858771 587.409830056251,521.766270208802 579.3196601125014,527.6441227317266 576.2294901687521,518.1335575687749 584.3196601125018,512.2557050458504 587.409830056251,521.766270208802 579.3196601125017,515.8884176858771 569.3196601125017,515.8884176858769 559.3196601125017,515.8884176858767 567.4098300562513,510.0105651629521 570.5000000000009,500.5000000000006 578.5901699437505,494.62214747707606 568.5901699437505,494.6221474770758 576.6803398875002,488.74429495415126 586.6803398875002,488.7442949541515 596.6803398875003,488.7442949541517 599.7705098312499,479.23372979120023 602.8606797749992,488.7442949541518 599.7705098312499,479.23372979120023 596.6803398875003,488.7442949541517 586.6803398875002,488.7442949541515 594.7705098312499,482.8664424312269 597.8606797749991,492.3770075941785 607.8606797749992,492.3770075941788 597.8606797749991,492.3770075941785 605.9508497187487,486.499155071254 602.860679774999,496.0097202342055 612.8606797749991,496.0097202342057 609.7705098312493,505.5202853971572 612.8606797749986,515.0308505601088 604.7705098312492,509.15299803718386 607.860679774999,499.6424328742324 604.7705098312497,490.13186771128073 601.6803398875,499.64243287423227" stroke="black" stroke-linecap="round" stroke-width="1" /><polyline clip-path="url(#border_clip)" fill="none" points="601.6803398875,499.64243287423227 604.7705098312492,509.15299803718386 601.6803398875,499.64243287423227 604.7705098312497,490.13186771128073 596.6803398875004,484.2540151883558 593.5901699437511,474.7434500254042 583.5901699437511,474.74345002540394 573.5901699437511,474.74345002540366 576.6803398875003,484.2540151883553 573.5901699437511,474.74345002540366 565.5000000000015,480.62130254832823 555.5000000000014,480.62130254832795 552.4098300562522,471.1107373853763 542.4098300562522,471.11073738537607 545.5000000000014,480.6213025483277 548.5901699437507,490.13186771127937 551.6803398874998,499.642432874231 543.5901699437502,505.52028539715553 535.5000000000009,499.64243287423056 538.5901699437501,509.1529980371822 535.5000000000003,518.6635632001337 538.5901699437501,509.1529980371822 535.5000000000003,518.6635632001337 527.409830056251,512.7857106772087 535.5000000000003,518.6635632001337 543.59016994375,512.7857106772092 540.5000000000008,503.27514551425753 532.4098300562514,497.39729299133256 524.3196601125018,503.2751455142571 532.4098300562512,509.15299803718204 529.3196601125014,518.6635632001336 521.2294901687517,524.5414157230581 529.3196601125011,530.4192682459831 526.2294901687513,539.9298334089345 523.1393202250016,549.440398571886 526.2294901687513,539.9298334089345 516.2294901687512,539.9298334089342 506.2294901687512,539.929833408934 498.13932022500194,534.051980886009 506.22949016875157,528.1741283630845 498.1393202250023,522.2962758401594 501.22949016875145,531.8068410031111 498.1393202250023,522.2962758401594" stroke="black" stroke-linecap="round" stroke-width="1" /><polyline clip-path="url(#border_clip)" fill="none" points="498.1393202250023,522.2962758401594 490.04915028125293,516.4184233172344 486.95898033750314,525.9289884801859 495.0491502812525,531.8068410031109 486.9589803375028,537.6846935260354 496.95898033750285,537.6846935260357 493.8688103937536,528.174128363084 485.778640450004,534.0519808860086 488.86881039375373,524.5414157230571 480.7786404500044,518.6635632001321 483.8688103937542,509.1529980371806 473.86881039375413,509.15299803718034 465.77864045000445,515.0308505601049 457.68847050625516,509.1529980371798 465.77864045000445,515.0308505601049 462.6884705062547,524.5414157230564 470.7786404500044,518.6635632001319 478.8688103937541,512.7857106772074 481.95898033750325,522.296275840159 485.0491502812524,531.8068410031107 475.0491502812524,531.8068410031103 466.9589803375031,525.9289884801854 476.95898033750314,525.9289884801857 468.8688103937538,520.0511359572606 478.86881039375385,520.051135957261 488.86881039375385,520.0511359572613 496.9589803375036,514.1732834343368 500.04915028125276,523.6838485972885 491.9589803375034,517.8059960743634 488.86881039375425,508.29543091141176 491.95898033750404,498.7848657484603 488.86881039375487,489.2743005855086 480.7786404500055,483.3964480625836 488.86881039375487,489.2743005855086 496.95898033750416,495.15215310843365 493.868810393755,485.64158794548194 490.7786404500052,495.1521531084334 498.86881039375453,501.03000563135845 495.77864045000535,491.5194404684068 505.7786404500054,491.5194404684071 502.68847050625556,501.03000563135856 492.68847050625556,501.0300056313582 495.77864045000535,491.5194404684068" stroke="black" stroke-linecap="round" stroke-width="1" /><polyline clip-path="url(#border_clip)" fill="none" points="495.77864045000535,491.5194404684068 498.86881039375453,501.03000563135845 506.9589803375038,506.9078581542835 515.0491502812531,512.7857106772085 505.0491502812531,512.7857106772082 496.95898033750336,518.6635632001327 486.95898033750336,518.6635632001323 495.04915028125265,524.5414157230573 485.0491502812526,524.541415723057 476.9589803375033,518.663563200132 468.868810393754,512.7857106772069 460.7786404500043,518.6635632001314 463.86881039375413,509.15299803717994 460.7786404500043,518.6635632001314 468.868810393754,512.7857106772069 476.9589803375033,518.663563200132 466.95898033750325,518.6635632001316 470.0491502812531,509.1529980371801 461.9589803375038,503.2751455142551 470.0491502812531,509.15299803718017 460.04915028125305,509.15299803717977 468.1393202250028,503.2751455142553 460.04915028125345,497.3972929913303 468.1393202250032,491.51944046840583 471.22949016875305,482.00887530545435 474.31966011250216,491.51944046840606 466.2294901687524,497.3972929913305 463.1393202250026,506.90785815428194 471.2294901687523,501.0300056313575 474.31966011250216,491.51944046840606 471.2294901687523,501.0300056313575 463.1393202250026,506.90785815428194 466.22949016875174,516.4184233172336 463.1393202250019,525.9289884801851 471.22949016875117,531.8068410031102 479.31966011250046,537.6846935260353 482.4098300562503,528.1741283630838 479.31966011250046,537.6846935260353 489.3196601125005,537.6846935260356 497.4098300562498,543.5625460489607 494.31966011249995,553.0731112119122 502.40983005624923,558.9509637348372 505.4999999999991,549.4403985718858" stroke="black" stroke-linecap="round" stroke-width="1" /><polyline clip-path="url(#border_clip)" fill="none" points="505.4999999999991,549.4403985718858 508.59016994374895,539.9298334089343 511.6803398874988,530.4192682459828 521.6803398874988,530.4192682459832 524.770509831248,539.9298334089349 527.8606797749978,530.4192682459834 535.9508497187476,524.541415723059 527.8606797749978,530.4192682459834 535.9508497187476,524.541415723059 539.0410196624966,534.0519808860107 535.9508497187476,524.541415723059 525.9508497187475,524.5414157230587 522.8606797749976,534.05198088601 525.9508497187468,543.5625460489617 535.9508497187468,543.5625460489622 532.8606797749977,534.0519808860105 540.9508497187475,528.1741283630861 550.9508497187475,528.1741283630864 547.8606797749984,518.6635632001347 555.9508497187481,512.7857106772103 564.0410196624979,506.90785815428586 555.9508497187481,512.7857106772103 564.0410196624974,518.6635632001354 572.1311896062466,524.5414157230605 575.2213595499958,534.0519808860122 565.2213595499957,534.0519808860117 568.3115294937447,543.5625460489634 571.4016994374947,534.0519808860121 568.3115294937447,543.5625460489634 571.4016994374939,553.0731112119153 579.4918693812436,547.1952586889907 576.4016994374946,537.684693526039 586.4016994374946,537.6846935260395 578.3115294937453,531.8068410031144 575.2213595499954,541.3174061660659 585.2213595499954,541.3174061660662 577.1311896062457,547.1952586889906 580.2213595499948,556.7058238519423 572.131189606245,562.5836763748669 580.2213595499943,568.4615288977919 590.2213595499943,568.4615288977924 593.3115294937435,577.9720940607441 590.2213595499943,568.4615288977924" stroke="black" stroke-linecap="round" stroke-width="1" /><polyline clip-path="url(#border_clip)" fill="none" points="590.2213595499943,568.4615288977924 598.3115294937442,562.583676374868 588.311529493744,562.5836763748675 578.311529493744,562.5836763748671 581.4016994374939,553.0731112119156 584.4918693812438,543.5625460489641 592.582039324993,549.4403985718893 595.6722092687421,558.950963734841 587.5820393249929,553.0731112119158 590.672209268742,562.5836763748677 582.5820393249927,556.7058238519425 574.4918693812434,550.8279713290174 564.4918693812434,550.8279713290169 567.5820393249933,541.3174061660654 570.6722092687423,550.8279713290171 567.5820393249925,560.3385364919686 559.4918693812426,566.216389014893 556.4016994374928,575.7269541778445 559.4918693812418,585.2375193407962 556.4016994374928,575.7269541778445 553.3115294937437,566.2163890148928 550.2213595499937,575.7269541778442 558.3115294937436,569.8491016549198 555.2213595499945,560.3385364919681 552.1311896062446,569.8491016549195 544.0410196624953,563.9712491319943 552.1311896062451,558.0933966090699 560.2213595499943,563.9712491319951 552.1311896062446,569.8491016549195 555.2213595499945,560.3385364919681 552.1311896062455,550.8279713290163 549.0410196624964,541.3174061660646 557.1311896062457,547.1952586889897 567.1311896062457,547.1952586889902 575.221359549995,553.0731112119154 572.1311896062459,543.5625460489637 580.2213595499951,549.4403985718887 583.3115294937442,558.9509637348406 586.4016994374932,568.4615288977923 596.4016994374933,568.4615288977927 588.3115294937435,574.3393814207171 596.4016994374933,568.4615288977927 586.4016994374932,568.4615288977923" stroke="black" stroke-linecap="round" stroke-width="1" /><polyline clip-path="url(#border_clip)" fill="none" points="586.4016994374932,568.4615288977923 583.3115294937443,558.9509637348405 591.4016994374934,564.8288162577657 583.3115294937436,570.70666878069 586.4016994374927,580.2172339436418 583.3115294937436,570.70666878069 591.4016994374929,576.5845213036152 581.4016994374929,576.5845213036147 584.4918693812418,586.0950864665665 574.4918693812418,586.0950864665659 566.401699437492,591.9729389894903 569.4918693812419,582.4623738265389 579.491869381242,582.4623738265394 587.5820393249918,576.584521303615 577.5820393249918,576.5845213036146 569.4918693812419,582.4623738265389 577.5820393249918,576.5845213036146 587.5820393249918,576.584521303615 590.6722092687418,567.0739561406635 598.7623792124916,561.1961036177393 595.6722092687426,551.6855384547874 592.5820393249936,542.1749732918357 584.4918693812438,548.0528258147601 592.5820393249936,542.1749732918357 584.4918693812444,536.2971207689105 581.4016994374954,526.7865556059588 589.4918693812452,520.9087030830344 586.4016994374962,511.39813792008266 578.3115294937463,517.275990443007 570.2213595499966,523.1538429659314 562.1311896062467,529.0316954888557 554.0410196624975,523.1538429659305 557.1311896062475,513.6432778029791 549.0410196624977,519.5211303259034 539.0410196624975,519.521130325903 549.0410196624977,519.5211303259034 539.0410196624975,519.521130325903 542.1311896062476,510.0105651629515 539.0410196624975,519.521130325903 547.1311896062468,525.3989828488282 555.2213595499967,519.5211303259038 558.3115294937467,510.01056516295233 550.2213595499975,504.13271264002714" stroke="black" stroke-linecap="round" stroke-width="1" /><polyline clip-path="url(#border_clip)" fill="none" points="550.2213595499975,504.13271264002714 547.1311896062474,513.6432778029786 537.1311896062474,513.6432778029781 529.0410196624981,507.76542528005285 525.9508497187481,517.2759904430043 515.950849718748,517.2759904430037 505.95084971874803,517.2759904430033 515.950849718748,517.2759904430037 512.8606797749991,507.765425280052 509.77050983125014,498.2548601171002 512.8606797750001,488.74429495414876 520.9508497187494,494.622147477074 524.0410196624994,485.11158231412253 515.9508497187495,490.9894348370469 524.0410196624994,485.11158231412253 527.1311896062493,475.6010171511711 517.1311896062493,475.6010171511706 514.0410196624993,485.111582314122 505.9508497187501,479.23372979119677 509.041019662499,488.7442949541486 517.1311896062489,482.86644243122424 509.0410196624997,476.988589908299 519.0410196624998,476.98858990829956 522.1311896062498,467.47802474534814 532.1311896062499,467.4780247453487 529.041019662501,457.96745958239694 520.9508497187517,452.0896070594717 524.0410196625018,442.57904189652027 520.9508497187517,452.0896070594717 510.9508497187516,452.0896070594711 519.0410196625008,457.9674595823964 527.13118960625,463.84531210532157 519.0410196625002,469.7231646282459 510.9508497187503,475.60101715117025 507.8606797750013,466.09045198821843 510.9508497187514,456.579886825267 514.0410196625003,466.0904519882188 517.1311896062504,456.57988682526735 520.2213595499993,466.0904519882192 523.3115294937483,475.60101715117094 531.4016994374974,481.4788696740962 523.3115294937476,487.35672219702053 526.4016994374977,477.84615703406905" stroke="black" stroke-linecap="round" stroke-width="1" /><polyline clip-path="url(#border_clip)" fill="none" points="526.4016994374977,477.84615703406905 534.4918693812475,471.96830451114477 544.4918693812476,471.96830451114533 552.5820393249975,466.09045198822105 555.6722092687476,456.5798868252696 552.5820393249975,466.09045198822105 549.4918693812474,475.60101715117247 557.5820393249974,469.7231646282482 547.5820393249973,469.72316462824756 544.4918693812472,479.233729791199 552.582039324997,473.3558772682747 555.672209268746,482.8664424312265 545.672209268746,482.8664424312259 542.582039324997,473.3558772682741 552.582039324997,473.3558772682747 544.4918693812472,479.233729791199 541.4016994374971,488.7442949541504 538.311529493747,498.2548601171018 535.2213595499982,488.74429495415006 527.1311896062489,482.8664424312248 524.0410196625,473.355877268273 520.95084971875,482.8664424312244 517.860679775001,473.3558772682726 520.9508497187511,463.84531210532117 524.0410196625012,454.33474694236975 515.950849718752,448.4568944194445 525.950849718752,448.4568944194451 515.950849718752,448.4568944194445 524.0410196625012,454.33474694236975 520.9508497187511,463.84531210532117 517.8606797750022,454.3347469423694 527.8606797750023,454.33474694237 530.9508497187524,444.82418177941855 527.8606797750023,454.33474694237 524.7705098312533,444.82418177941815 532.8606797750025,450.70203430234346 535.9508497187526,441.19146913939204 544.0410196625018,447.06932166231735 554.0410196625019,447.069321662318 545.950849718752,452.94717418524226 537.8606797750028,447.06932166231695 527.8606797750027,447.0693216623163 535.9508497187519,452.9471741852416" stroke="black" stroke-linecap="round" stroke-width="1" /><polyline clip-path="url(#border_clip)" fill="none" points="535.9508497187519,452.9471741852416 545.950849718752,452.94717418524226 535.9508497187519,452.9471741852416 527.8606797750027,447.0693216623163 519.7705098312528,452.94717418524056 509.7705098312527,452.94717418523993 506.6803398875026,462.45773934819135 503.59016994375247,471.9683045111428 513.5901699437526,471.9683045111434 503.59016994375247,471.9683045111428 506.68033988750136,481.4788696740946 503.5901699437513,490.989434837046 493.59016994375116,490.9894348370454 490.500000000001,500.4999999999968 500.50000000000114,500.49999999999744 510.50000000000125,500.4999999999981 520.5000000000014,500.49999999999875 523.5901699437502,510.01056516295057 515.5000000000002,515.8884176858749 525.5000000000003,515.8884176858755 533.5901699437495,521.7662702088008 525.5000000000003,515.8884176858755 533.5901699437495,521.7662702088008 525.4999999999995,527.644122731725 533.5901699437495,521.7662702088008 530.5000000000007,512.255705045849 520.5000000000006,512.2557050458483 512.4098300562506,518.1335575687725 515.4999999999995,527.6441227317243 523.5901699437494,521.7662702088002 531.6803398874986,527.6441227317255 534.7705098312474,537.1546878946773 542.8606797749974,531.276835371753 550.9508497187466,537.1546878946784 559.0410196624957,543.0325404176037 550.9508497187466,537.1546878946784 547.8606797749964,546.6652530576298 544.7705098312463,556.1758182205813 536.6803398874963,562.0536707435054 533.5901699437475,552.5431055805536 525.4999999999975,558.4209581034779 535.4999999999976,558.4209581034786 525.4999999999975,558.4209581034779" stroke="black" stroke-linecap="round" stroke-width="1" /><polyline clip-path="url(#border_clip)" fill="none" points="525.4999999999975,558.4209581034779 517.4098300562475,564.2988106264021 525.4999999999967,570.1766631493274 533.5901699437467,564.2988106264032 536.6803398874955,573.809375789355 539.7705098312456,564.2988106264036 529.7705098312456,564.2988106264029 532.8606797749944,573.8093757893548 524.7705098312452,567.9315232664294 516.6803398874953,573.8093757893537 508.59016994374616,567.9315232664283 505.49999999999596,577.4420884293797 508.5901699437448,586.9526535923316 500.4999999999949,592.8305061152557 508.5901699437448,586.9526535923316 516.6803398874939,592.8305061152569 513.5901699437451,583.319940952305 510.4999999999963,573.8093757893532 520.4999999999964,573.8093757893539 530.4999999999965,573.8093757893546 527.4098300562463,583.3199409523061 519.3196601124963,589.1977934752302 522.4098300562465,579.6872283122789 514.3196601124965,585.565080835203 517.4098300562467,576.0545156722517 520.4999999999969,566.5439505093002 517.4098300562481,557.0333853463484 527.4098300562482,557.0333853463491 519.3196601124982,562.9112378692734 509.3196601124981,562.9112378692726 501.229490168749,557.0333853463472 491.2294901687489,557.0333853463464 483.1393202249989,562.9112378692707 491.2294901687489,557.0333853463464 499.31966011249887,551.1555328234223 489.31966011249875,551.1555328234216 497.40983005624787,557.0333853463469 505.4999999999979,551.1555328234227 495.4999999999978,551.155532823422 498.590169943748,541.6449676604706 506.6803398874971,547.522820183396 503.5901699437469,557.0333853463474 495.4999999999978,551.155532823422" stroke="black" stroke-linecap="round" stroke-width="1" /><polyline clip-path="url(#border_clip)" fill="none" points="495.4999999999978,551.155532823422 505.4999999999979,551.1555328234227 513.5901699437479,545.2776803004986 521.6803398874979,539.3998277775744 518.5901699437477,548.9103929405258 521.6803398874964,558.4209581034776 518.5901699437462,567.931523266429 526.6803398874962,562.0536707435049 523.590169943746,571.5642359064562 515.499999999996,577.4420884293804 507.40983005624605,583.3199409523046 510.4999999999948,592.8305061152564 502.4098300562457,586.9526535923311 510.4999999999948,592.8305061152564 507.40983005624605,583.3199409523046 515.499999999996,577.4420884293804 512.4098300562458,586.9526535923318 504.3196601124967,581.0748010694064 496.2294901687467,586.9526535923305 504.3196601124967,581.0748010694064 501.22949016874645,590.5853662323578 498.1393202249977,581.0748010694059 490.04915028124765,586.9526535923301 486.9589803374989,577.4420884293783 478.86881039374975,571.5642359064528 488.86881039374987,571.5642359064536 491.95898033749864,581.0748010694055 500.04915028124776,586.9526535923309 496.958980337499,577.442088429379 488.86881039374987,571.5642359064536 496.958980337499,577.442088429379 500.04915028124776,586.9526535923309 510.0491502812479,586.9526535923317 518.1393202249969,592.8305061152571 526.229490168747,586.9526535923329 534.319660112497,581.0748010694087 526.2294901687479,575.1969485464833 534.319660112497,581.0748010694087 537.4098300562473,571.5642359064574 545.4999999999973,565.6863833835332 553.5901699437463,571.5642359064586 561.6803398874964,565.6863833835345 553.5901699437474,559.808530860609" stroke="black" stroke-linecap="round" stroke-width="1" /><polyline clip-path="url(#border_clip)" fill="none" points="553.5901699437474,559.808530860609 545.4999999999982,553.9306783376836 537.4098300562491,548.0528258147582 540.4999999999993,538.5422606518068 550.4999999999994,538.5422606518076 542.4098300562504,532.6644081288822 539.3196601125017,523.1538429659303 542.4098300562504,532.6644081288822 539.3196601125017,523.1538429659303 549.3196601125018,523.1538429659311 539.3196601125017,523.1538429659303 536.2294901687513,532.6644081288816 544.3196601125004,538.542260651807 554.3196601125005,538.5422606518079 557.4098300562508,529.0316954888565 547.4098300562507,529.0316954888557 544.319660112502,519.5211303259039 547.4098300562523,510.01056516295245 537.4098300562521,510.0105651629516 534.3196601125034,500.4999999999997 531.2294901687546,490.98943483704784 534.3196601125034,500.4999999999997 542.4098300562534,494.6221474770756 550.5000000000035,488.7442949541514 560.5000000000036,488.7442949541522 557.4098300562533,498.25486011710365 567.4098300562534,498.25486011710444 559.3196601125044,492.377007594179 567.4098300562534,498.25486011710444 577.4098300562536,498.2548601171053 574.3196601125048,488.74429495415336 564.3196601125047,488.74429495415256 567.409830056255,479.2337297912012 559.319660112505,485.1115823141253 567.409830056254,490.9894348370508 570.5000000000043,481.47886967409937 573.590169943753,490.98943483705125 583.5901699437532,490.9894348370521 586.6803398875019,500.500000000004 594.770509831252,494.62214747707986 597.8606797750022,485.1115823141285 607.8606797750024,485.11158231412935 597.8606797750022,485.1115823141285" stroke="black" stroke-linecap="round" stroke-width="1" /><polyline clip-path="url(#border_clip)" fill="none" points="597.8606797750022,485.1115823141285 594.7705098312535,475.60101715117656 591.6803398875031,485.111582314128 588.5901699437529,494.62214747707935 580.5000000000038,488.7442949541539 572.4098300562547,482.8664424312284 580.5000000000048,476.9885899083043 590.5000000000049,476.98858990830513 582.4098300562548,482.86644243122925 592.409830056255,482.8664424312301 584.319660112505,488.7442949541542 576.2294901687549,494.62214747707833 573.1393202250046,504.1327126400297 565.0491502812555,498.2548601171042 575.0491502812556,498.25486011710507 583.1393202250047,504.13271264003055 586.2294901687534,513.6432778029824 594.3196601125024,519.521130325908 604.3196601125026,519.5211303259089 594.3196601125024,519.521130325908 584.3196601125023,519.521130325907 592.4098300562514,525.3989828488326 589.3196601125027,515.8884176858807 579.3196601125026,515.8884176858799 587.4098300562516,521.7662702088053 579.3196601125015,527.6441227317295 576.2294901687529,518.1335575687775 584.319660112503,512.2557050458535 587.4098300562516,521.7662702088053 579.3196601125026,515.8884176858799 569.3196601125024,515.888417685879 559.3196601125023,515.888417685878 567.4098300562524,510.010565162954 570.5000000000027,500.5000000000026 578.5901699437529,494.6221474770785 568.5901699437527,494.62214747707765 576.6803398875029,488.74429495415353 586.6803398875029,488.74429495415444 596.6803398875031,488.7442949541553 599.7705098312534,479.2337297912039 602.860679775002,488.74429495415586 599.7705098312534,479.2337297912039 596.680339887503,488.7442949541553" stroke="black" stroke-linecap="round" stroke-width="1" /><polyline clip-path="url(#border_clip)" fill="none" points="596.680339887503,488.7442949541553 586.6803398875029,488.74429495415444 594.770509831253,482.8664424312303 597.8606797750017,492.37700759418226 607.8606797750018,492.37700759418317 597.8606797750017,492.37700759418226 605.9508497187518,486.4991550712582 602.8606797750015,496.00972023420957 612.8606797750015,496.0097202342105 609.7705098312512,505.52028539716184 612.8606797749999,515.0308505601138 604.7705098312508,509.15299803718824 607.8606797750011,499.6424328742369 604.7705098312525,490.13186771128494 601.6803398875021,499.6424328742363 604.7705098312508,509.15299803718824 601.6803398875021,499.6424328742363 604.7705098312525,490.13186771128494 596.6803398875035,484.2540151883594 593.5901699437547,474.74345002540747 583.5901699437546,474.74345002540656 573.5901699437545,474.74345002540565 576.6803398875032,484.2540151883576 573.5901699437545,474.74345002540565 565.5000000000044,480.6213025483297 555.5000000000043,480.6213025483288 552.4098300562557,471.11073738537686 542.4098300562556,471.11073738537596 545.5000000000042,480.6213025483279 548.5901699437528,490.1318677112798 551.6803398875015,499.64243287423176 543.5901699437513,505.5202853971558 535.5000000000023,499.6424328742303 538.590169943751,509.1529980371822 535.5000000000006,518.6635632001336 538.590169943751,509.1529980371822 535.5000000000006,518.6635632001336 527.4098300562515,512.785710677208 535.5000000000006,518.6635632001336 543.5901699437507,512.7857106772095 540.500000000002,503.2751455142576 532.409830056253,497.39729299133205 524.3196601125029,503.27514551425605" stroke="black" stroke-linecap="round" stroke-width="1" /><polyline clip-path="url(#border_clip)" fill="none" points="524.3196601125029,503.27514551425605 532.409830056252,509.15299803718165 529.3196601125015,518.663563200133 521.2294901687515,524.5414157230571 529.3196601125004,530.4192682459826 526.2294901687501,539.929833408934 523.1393202249997,549.4403985718853 526.2294901687501,539.929833408934 516.2294901687499,539.9298334089331 506.2294901687498,539.929833408932 498.13932022500074,534.0519808860065 506.2294901687509,528.1741283630824 498.1393202250019,522.2962758401569 501.2294901687505,531.8068410031088 498.1393202250019,522.2962758401569 490.0491502812529,516.4184233172314 486.95898033750245,525.9289884801826 495.04915028125146,531.8068410031083 486.9589803375013,537.6846935260323 496.95898033750143,537.6846935260332 493.8688103937528,528.1741283630813 485.77864045000274,534.0519808860054 488.86881039375317,524.541415723054 480.7786404500041,518.6635632001284 483.86881039375453,509.15299803717704 473.8688103937544,509.1529980371761 465.7786404500043,515.0308505601001 457.68847050625527,509.1529980371745 465.7786404500043,515.0308505601001 462.68847050625385,524.5414157230515 470.778640450004,518.6635632001274 478.86881039375413,512.7857106772034 481.95898033750274,522.2962758401553 485.04915028125134,531.8068410031074 475.0491502812512,531.8068410031063 466.95898033750217,525.9289884801808 476.95898033750234,525.9289884801817 468.86881039375334,520.0511359572562 478.86881039375345,520.0511359572571 488.86881039375356,520.0511359572581 496.9589803375037,514.173283434334 500.0491502812523,523.683848597286 491.9589803375033,517.8059960743605" stroke="black" stroke-linecap="round" stroke-width="1" /><polyline clip-path="url(#border_clip)" fill="none" points="491.9589803375033,517.8059960743605 488.8688103937547,508.29543091140846 491.9589803375052,498.7848657484571 488.8688103937566,489.27430058550516 480.7786404500076,483.39644806257957 488.8688103937566,489.27430058550516 496.9589803375056,495.15215310843075 493.86881039375703,485.6415879454788 490.77864045000655,495.1521531084301 498.86881039375555,501.0300056313558 495.778640450007,491.5194404684038 505.7786404500071,491.5194404684048 502.68847050625664,501.0300056313561 492.6884705062565,501.03000563135515 495.778640450007,491.5194404684038 498.86881039375555,501.0300056313558 506.95898033750456,506.90785815428137 515.0491502812536,512.785710677207 505.0491502812534,512.785710677206 496.95898033750325,518.6635632001299 486.95898033750314,518.663563200129 495.0491502812521,524.5414157230546 485.04915028125197,524.5414157230535 476.95898033750296,518.663563200128 468.868810393754,512.7857106772024 460.7786404500038,518.6635632001263 463.8688103937543,509.152998037175 460.7786404500038,518.6635632001263 468.868810393754,512.7857106772024 476.95898033750296,518.663563200128 466.95898033750285,518.663563200127 470.04915028125333,509.1529980371756 461.95898033750433,503.27514551424997 470.04915028125333,509.1529980371756 460.0491502812532,509.1529980371746 468.1393202250034,503.2751455142506 460.0491502812544,497.397292991325 468.1393202250046,491.519440468401 471.2294901687551,482.0088753054497 474.31966011250364,491.5194404684016 466.22949016875344,497.3972929913256 463.13932022500296,506.90785815427694 471.22949016875316,501.030005631353" stroke="black" stroke-linecap="round" stroke-width="1" /><polyline clip-path="url(#border_clip)" fill="none" points="471.22949016875316,501.030005631353 474.31966011250364,491.5194404684016 471.22949016875316,501.030005631353 463.13932022500296,506.90785815427694 466.22949016875145,516.418423317229 463.139320225001,525.9289884801802 471.2294901687499,531.8068410031059 479.3196601124989,537.6846935260315 482.4098300562494,528.1741283630803 479.3196601124989,537.6846935260315 489.31966011249904,537.6846935260327 497.40983005624804,543.5625460489583 494.3196601124975,553.0731112119096 502.40983005624645,558.9509637348353 505.499999999997,549.440398571884 508.59016994374747,539.9298334089326 511.680339887498,530.4192682459812 521.6803398874981,530.4192682459823 524.7705098312466,539.9298334089343 527.8606797749972,530.419268245983 535.9508497187473,524.541415723059 527.8606797749972,530.419268245983 535.9508497187473,524.541415723059 539.041019662496,534.0519808860109 535.9508497187473,524.541415723059 525.9508497187472,524.541415723058 522.8606797749967,534.0519808860092 525.9508497187452,543.5625460489613 535.9508497187454,543.5625460489623 532.8606797749969,534.0519808860104 540.9508497187471,528.1741283630864 550.9508497187472,528.1741283630874 547.8606797749987,518.6635632001354 555.9508497187489,512.7857106772115 564.0410196624991,506.9078581542875 555.9508497187489,512.7857106772115 564.0410196624979,518.6635632001372 572.1311896062468,524.5414157230629 575.2213595499953,534.0519808860149 565.2213595499952,534.0519808860138 568.3115294937437,543.5625460489658 571.4016994374942,534.0519808860145 568.3115294937437,543.5625460489658" stroke="black" stroke-linecap="round" stroke-width="1" /><polyline clip-path="url(#border_clip)" fill="none" points="568.3115294937437,543.5625460489658 571.4016994374922,553.0731112119178 579.4918693812424,547.1952586889938 576.4016994374939,537.6846935260419 586.401699437494,537.6846935260429 578.3115294937451,531.8068410031173 575.2213595499945,541.3174061660686 585.2213595499948,541.3174061660696 577.1311896062444,547.1952586889936 580.2213595499929,556.7058238519456 572.1311896062427,562.5836763748696 580.2213595499917,568.4615288977952 590.2213595499918,568.4615288977964 593.3115294937403,577.9720940607483 590.2213595499918,568.4615288977964 598.311529493742,562.5836763748724 588.3115294937419,562.5836763748713 578.3115294937418,562.5836763748703 581.4016994374923,553.0731112119189 584.4918693812429,543.5625460489675 592.5820393249918,549.4403985718933 595.6722092687403,558.9509637348452 587.5820393249913,553.0731112119196 590.6722092687398,562.5836763748716 582.5820393249909,556.7058238519459 574.4918693812419,550.8279713290201 564.4918693812418,550.8279713290191 567.5820393249924,541.3174061660677 570.6722092687409,550.8279713290198 567.5820393249902,560.338536491971 559.49186938124,566.216389014895 556.4016994374895,575.7269541778463 559.4918693812378,585.2375193407984 556.4016994374895,575.7269541778463 553.311529493741,566.2163890148943 550.2213595499904,575.7269541778456 558.3115294937406,569.8491016549217 555.2213595499921,560.3385364919696 552.1311896062416,569.849101654921 544.0410196624927,563.9712491319953 552.131189606243,558.0933966090713 560.2213595499918,563.9712491319971 552.1311896062416,569.849101654921" stroke="black" stroke-linecap="round" stroke-width="1" /><polyline clip-path="url(#border_clip)" fill="none" points="552.1311896062416,569.849101654921 555.2213595499923,560.3385364919696 552.1311896062438,550.8279713290176 549.0410196624953,541.3174061660657 557.1311896062442,547.1952586889913 567.1311896062443,547.1952586889925 575.2213595499933,553.0731112119182 572.1311896062449,543.5625460489662 580.2213595499938,549.4403985718919 583.3115294937422,558.950963734844 586.4016994374907,568.461528897796 596.4016994374908,568.4615288977972 588.3115294937405,574.339381420721 596.4016994374908,568.4615288977972 586.4016994374907,568.461528897796 583.3115294937422,558.950963734844 591.4016994374912,564.8288162577697 583.3115294937409,570.7066687806936 586.4016994374894,580.2172339436456 583.3115294937409,570.7066687806936 591.4016994374898,576.5845213036193 581.4016994374897,576.5845213036182 584.4918693812381,586.0950864665703 574.491869381238,586.0950864665691 566.4016994374877,591.972938989493 569.4918693812383,582.4623738265417 579.4918693812384,582.4623738265428 587.5820393249887,576.5845213036189 577.5820393249885,576.5845213036177 569.4918693812383,582.4623738265416 577.5820393249885,576.5845213036177 587.5820393249887,576.5845213036189 590.6722092687394,567.0739561406676 598.7623792124896,561.1961036177437 595.6722092687412,551.6855384547916 592.5820393249928,542.1749732918397 584.4918693812425,548.0528258147635 592.5820393249928,542.1749732918397 584.4918693812439,536.2971207689138 581.4016994374955,526.7865556059618 589.4918693812458,520.908703083038 586.4016994374974,511.3981379200859 578.3115294937471,517.2759904430097" stroke="black" stroke-linecap="round" stroke-width="1" /><polyline clip-path="url(#border_clip)" fill="none" points="578.3115294937471,517.2759904430097 570.2213595499968,523.1538429659337 562.1311896062465,529.0316954888575 554.0410196624975,523.1538429659317 557.1311896062482,513.6432778029804 549.0410196624979,519.5211303259043 539.0410196624978,519.5211303259031 549.0410196624979,519.5211303259043 539.0410196624978,519.5211303259031 542.1311896062484,510.01056516295176 539.0410196624978,519.5211303259031 547.1311896062467,525.3989828488288 555.221359549997,519.521130325905 558.3115294937477,510.0105651629537 550.2213595499987,504.13271264002793 547.1311896062481,513.6432778029792 537.131189606248,513.6432778029781 529.041019662499,507.7654252800523 525.9508497187484,517.2759904430036 515.9508497187483,517.2759904430023 505.95084971874803,517.2759904430012 515.9508497187483,517.2759904430023 512.8606797749998,507.7654252800503 509.77050983125145,498.25486011709825 512.8606797750022,488.74429495414694 520.950849718751,494.62214747707276 524.0410196625016,485.11158231412145 515.9508497187513,490.9894348370453 524.0410196625016,485.11158231412145 527.1311896062523,475.6010171511701 517.1311896062522,475.6010171511689 514.0410196625015,485.1115823141202 505.95084971875264,479.2337297911944 509.04101966250096,488.7442949541465 517.1311896062513,482.86644243122265 509.04101966250244,476.98858990829683 519.0410196625025,476.988589908298 522.1311896062532,467.4780247453467 532.1311896062534,467.47802474534797 529.041019662505,457.96745958239586 520.9508497187562,452.08960705947004 524.0410196625069,442.57904189651873 520.9508497187562,452.08960705947004" stroke="black" stroke-linecap="round" stroke-width="1" /><polyline clip-path="url(#border_clip)" fill="none" points="520.9508497187562,452.08960705947004 510.950849718756,452.08960705946885 519.0410196625049,457.96745958239467 527.1311896062538,463.8453121053205 519.0410196625035,469.7231646282443 510.9508497187531,475.60101715116815 507.86067977500477,466.09045198821605 510.9508497187555,456.57988682526474 514.0410196625038,466.09045198821684 517.1311896062546,456.57988682526553 520.2213595500028,466.0904519882176 523.3115294937512,475.6010171511697 531.4016994375,481.4788696740955 523.3115294937497,487.35672219701934 526.4016994375005,477.846157034068 534.4918693812508,471.9683045111442 544.491869381251,471.96830451114545 552.5820393250013,466.0904519882216 555.672209268752,456.5798868252703 552.5820393250013,466.0904519882216 549.4918693812506,475.6010171511729 557.5820393250009,469.7231646282491 547.5820393250008,469.72316462824784 544.49186938125,479.23372979119915 552.5820393250004,473.3558772682753 555.6722092687487,482.8664424312274 545.6722092687486,482.8664424312262 542.5820393250002,473.35587726827407 552.5820393250004,473.3558772682753 544.49186938125,479.23372979119915 541.4016994374994,488.74429495415046 538.3115294937486,498.25486011710177 535.2213595500003,488.7442949541497 527.1311896062514,482.86644243122385 524.0410196625031,473.35587726827174 520.9508497187524,482.86644243122305 517.860679775004,473.35587726827094 520.9508497187547,463.84531210531964 524.0410196625055,454.3347469423683 515.9508497187567,448.4568944194425 525.9508497187568,448.45689441944376 515.9508497187567,448.4568944194425 524.0410196625055,454.3347469423683" stroke="black" stroke-linecap="round" stroke-width="1" /><polyline clip-path="url(#border_clip)" fill="none" points="524.0410196625055,454.3347469423683 520.9508497187547,463.84531210531964 517.8606797750065,454.33474694236753 527.8606797750066,454.33474694236884 530.9508497187574,444.82418177941753 527.8606797750066,454.33474694236884 524.7705098312583,444.82418177941673 532.8606797750072,450.7020343023426 535.9508497187579,441.1914691393913 544.0410196625068,447.0693216623172 554.041019662507,447.0693216623185 545.9508497187566,452.94717418524226 537.8606797750077,447.0693216623164 527.8606797750076,447.0693216623151 535.9508497187564,452.94717418524095 545.9508497187566,452.94717418524226 535.9508497187564,452.94717418524095 527.8606797750076,447.0693216623151 519.7705098312572,452.94717418523885 509.770509831257,452.9471741852376 506.68033988750625,462.4577393481889 503.5901699437555,471.9683045111402 513.5901699437557,471.96830451114147 503.5901699437555,471.9683045111402 506.68033988750375,481.4788696740923 503.590169943753,490.98943483704363 493.5901699437528,490.9894348370423 490.50000000000205,500.49999999999363 500.5000000000022,500.49999999999494 510.5000000000024,500.49999999999625 520.5000000000026,500.49999999999756 523.5901699437509,510.01056516294966 515.5000000000005,515.8884176858734 525.5000000000007,515.8884176858747 533.5901699437495,521.7662702088006 525.5000000000007,515.8884176858747 533.5901699437495,521.7662702088006 525.4999999999991,527.6441227317245 533.5901699437495,521.7662702088006 530.5000000000013,512.2557050458486 520.500000000001,512.2557050458472 512.4098300562507,518.1335575687709 515.499999999999,527.6441227317231" stroke="black" stroke-linecap="round" stroke-width="1" /><polyline clip-path="url(#border_clip)" fill="none" points="515.499999999999,527.6441227317231 523.5901699437493,521.7662702087994 531.6803398874981,527.6441227317252 534.7705098312465,537.1546878946774 542.8606797749968,531.2768353717536 550.9508497187456,537.1546878946795 559.0410196624945,543.0325404176054 550.9508497187456,537.1546878946795 547.8606797749949,546.6652530576308 544.7705098312441,556.1758182205821 536.6803398874937,562.0536707435058 533.5901699437454,552.5431055805537 525.499999999995,558.4209581034775 535.4999999999952,558.4209581034788 525.499999999995,558.4209581034775 517.4098300562446,564.2988106264013 525.4999999999934,570.1766631493272 533.5901699437438,564.2988106264035 536.6803398874921,573.8093757893555 539.7705098312429,564.2988106264042 529.7705098312427,564.2988106264029 532.860679774991,573.809375789355 524.7705098312422,567.931523266429 516.6803398874918,573.8093757893528 508.5901699437429,567.9315232664269 505.4999999999921,577.4420884293781 508.5901699437403,586.9526535923303 500.4999999999899,592.830506115254 508.5901699437403,586.9526535923303 516.6803398874891,592.8305061152563 513.5901699437409,583.3199409523041 510.49999999999267,573.809375789352 520.4999999999928,573.8093757893533 530.4999999999931,573.8093757893547 527.4098300562422,583.3199409523061 519.3196601124918,589.1977934752298 522.4098300562426,579.6872283122784 514.3196601124922,585.5650808352023 517.409830056243,576.0545156722509 520.4999999999939,566.5439505092996 517.4098300562456,557.0333853463475 527.4098300562458,557.0333853463488 519.3196601124954,562.9112378692726" stroke="black" stroke-linecap="round" stroke-width="1" /><polyline clip-path="url(#border_clip)" fill="none" points="519.3196601124954,562.9112378692726 509.31966011249517,562.9112378692712 501.2294901687464,557.0333853463453 491.22949016874617,557.0333853463438 483.13932022499574,562.9112378692677 491.22949016874617,557.0333853463438 499.3196601124966,551.1555328234201 489.3196601124964,551.1555328234188 497.40983005624526,557.0333853463447 505.4999999999957,551.155532823421 495.4999999999955,551.1555328234197 498.59016994374633,541.6449676604683 506.68033988749517,547.5228201833943 503.5901699437443,557.0333853463455 495.4999999999955,551.1555328234197 505.4999999999957,551.155532823421 513.5901699437461,545.2776803004973 521.6803398874965,539.3998277775736 518.5901699437458,548.9103929405248 521.6803398874939,558.420958103477 518.590169943743,567.9315232664283 526.6803398874936,562.0536707435045 523.5901699437427,571.5642359064559 515.4999999999923,577.4420884293795 507.4098300562418,583.3199409523033 510.49999999999,592.8305061152554 502.40983005624116,586.9526535923294 510.49999999999,592.8305061152554 507.4098300562418,583.3199409523033 515.4999999999923,577.4420884293795 512.4098300562414,586.9526535923309 504.31966011249256,581.0748010694049 496.2294901687421,586.9526535923286 504.31966011249256,581.0748010694049 501.2294901687417,590.5853662323561 498.13932022499347,581.074801069404 490.04915028124304,586.9526535923277 486.95898033749484,577.4420884293755 478.86881039374606,571.5642359064495 488.86881039374623,571.5642359064509 491.95898033749444,581.0748010694031 500.0491502812432,586.9526535923292 496.958980337495,577.442088429377" stroke="black" stroke-linecap="round" stroke-width="1" /><polyline clip-path="url(#border_clip)" fill="none" points="496.958980337495,577.442088429377 488.86881039374623,571.5642359064509 496.958980337495,577.442088429377 500.0491502812432,586.9526535923292 510.0491502812434,586.9526535923305 518.1393202249922,592.8305061152565 526.2294901687427,586.9526535923328 534.3196601124931,581.0748010694092 526.2294901687444,575.1969485464831 534.3196601124931,581.0748010694092 537.409830056244,571.5642359064578 545.4999999999945,565.6863833835342 553.5901699437433,571.5642359064602 561.6803398874938,565.6863833835365 553.590169943745,559.8085308606105 545.4999999999962,553.9306783376845 537.4098300562474,548.0528258147585 540.4999999999983,538.5422606518072 550.4999999999985,538.5422606518086 542.4098300562497,532.6644081288827 539.3196601125015,523.1538429659305 542.4098300562497,532.6644081288827 539.3196601125015,523.1538429659305 549.3196601125018,523.1538429659319 539.3196601125015,523.1538429659305 536.2294901687507,532.6644081288817 544.3196601124994,538.5422606518077 554.3196601124996,538.5422606518092 557.4098300562506,529.031695488858 547.4098300562504,529.0316954888565 544.3196601125022,519.5211303259043 547.4098300562531,510.010565162953 537.4098300562529,510.0105651629516 534.3196601125047,500.4999999999994 531.2294901687566,490.9894348370472 534.3196601125047,500.4999999999994 542.4098300562553,494.6221474770757 550.5000000000058,488.74429495415205 560.5000000000059,488.74429495415353 557.409830056255,498.2548601171048 567.4098300562553,498.25486011710626 559.3196601125064,492.3770075941802 567.4098300562553,498.25486011710626" stroke="black" stroke-linecap="round" stroke-width="1" /><polyline clip-path="url(#border_clip)" fill="none" points="567.4098300562553,498.25486011710626 577.4098300562554,498.25486011710774 574.3196601125073,488.7442949541556 564.3196601125071,488.7442949541541 567.409830056258,479.2337297912028 559.3196601125076,485.11158231412645 567.4098300562563,490.9894348370525 570.5000000000073,481.47886967410125 573.5901699437554,490.9894348370534 583.5901699437555,490.9894348370549 586.6803398875037,500.5000000000071 594.7705098312542,494.62214747708344 597.8606797750051,485.11158231413214 607.8606797750053,485.1115823141336 597.8606797750051,485.11158231413214 594.770509831257,475.60101715118 591.6803398875061,485.1115823141312 588.5901699437551,494.62214747708254 580.5000000000064,488.74429495415643 572.4098300562575,482.8664424312304 580.5000000000081,476.9885899083068 590.5000000000083,476.98858990830826 582.4098300562578,482.8664424312319 592.409830056258,482.8664424312334 584.3196601125074,488.74429495415706 576.2294901687569,494.62214747708066 573.139320225006,504.1327126400319 565.0491502812572,498.25486011710586 575.0491502812574,498.2548601171074 583.1393202250061,504.13271264003345 586.2294901687543,513.6432778029856 594.319660112503,519.5211303259117 604.3196601125032,519.5211303259132 594.319660112503,519.5211303259117 584.3196601125028,519.5211303259102 592.4098300562516,525.3989828488362 589.3196601125035,515.8884176858841 579.3196601125032,515.8884176858826 587.4098300562521,521.7662702088087 579.3196601125015,527.6441227317323 576.2294901687534,518.13355756878 584.3196601125039,512.2557050458564 587.4098300562521,521.7662702088087" stroke="black" stroke-linecap="round" stroke-width="1" /><polyline clip-path="url(#border_clip)" fill="none" points="587.4098300562521,521.7662702088087 579.3196601125032,515.8884176858826 569.319660112503,515.888417685881 559.3196601125029,515.8884176858795 567.4098300562534,510.0105651629559 570.5000000000043,500.50000000000466 578.590169943755,494.622147477081 568.5901699437547,494.62214747707947 576.6803398875053,488.74429495415586 586.6803398875054,488.7442949541574 596.6803398875056,488.74429495415893 599.7705098312566,479.2337297912077 602.8606797750048,488.7442949541599 599.7705098312566,479.2337297912077 596.6803398875056,488.74429495415893 586.6803398875054,488.7442949541574 594.770509831256,482.8664424312338 597.8606797750041,492.377007594186 607.8606797750043,492.37700759418755 597.8606797750041,492.377007594186 605.9508497187546,486.4991550712624 602.8606797750036,496.00972023421366 612.8606797750039,496.0097202342152 609.7705098312529,505.52028539716645 612.8606797750009,515.0308505601187 604.7705098312522,509.15299803719256 607.8606797750032,499.6424328742413 604.7705098312551,490.1318677112891 601.680339887504,499.64243287424034 604.7705098312522,509.15299803719256 601.680339887504,499.64243287424034 604.7705098312551,490.1318677112891 596.6803398875064,484.254015188363 593.5901699437584,474.74345002541077 583.5901699437582,474.7434500254092 573.5901699437579,474.74345002540764 576.680339887506,484.25401518835986 573.5901699437579,474.74345002540764 565.5000000000073,480.62130254833124 555.5000000000072,480.62130254832965 552.4098300562591,471.11073738537743 542.4098300562589,471.1107373853759 545.5000000000069,480.6213025483281" stroke="black" stroke-linecap="round" stroke-width="1" /><polyline clip-path="url(#border_clip)" fill="none" points="545.5000000000069,480.6213025483281 548.590169943755,490.13186771128034 551.680339887503,499.64243287423255 543.5901699437525,505.52028539715616 535.5000000000038,499.64243287423 538.5901699437518,509.1529980371822 535.5000000000007,518.6635632001335 538.5901699437518,509.1529980371822 535.5000000000007,518.6635632001335 527.409830056252,512.7857106772074 535.5000000000007,518.6635632001335 543.5901699437513,512.7857106772099 540.5000000000033,503.2751455142577 532.4098300562546,497.39729299133154 524.3196601125039,503.27514551425514 532.4098300562526,509.15299803718125 529.3196601125017,518.6635632001326 521.229490168751,524.541415723056 529.3196601124997,530.4192682459823 526.2294901687487,539.9298334089335 523.1393202249976,549.4403985718848 526.2294901687487,539.9298334089335 516.2294901687485,539.9298334089319 506.22949016874827,539.9298334089303 498.13932022499955,534.0519808860041 506.22949016875015,528.1741283630806 498.1393202250014,522.2962758401544 501.22949016874946,531.8068410031067 498.1393202250014,522.2962758401544 490.0491502812527,516.4184233172283 486.95898033750166,525.9289884801796 495.0491502812504,531.8068410031057 486.9589803374998,537.6846935260293 496.95898033749995,537.6846935260309 493.86881039375197,528.1741283630786 485.7786404500014,534.0519808860022 488.8688103937524,524.5414157230509 480.7786404500037,518.6635632001247 483.8688103937548,509.1529980371735 473.8688103937546,509.1529980371719 465.778640450004,515.0308505600955 457.68847050625527,509.1529980371693 465.778640450004,515.0308505600955" stroke="black" stroke-linecap="round" stroke-width="1" /><polyline clip-path="url(#border_clip)" fill="none" points="465.778640450004,515.0308505600955 462.6884705062529,524.5414157230467 470.7786404500035,518.6635632001231 478.86881039375413,512.7857106771996 481.9589803375021,522.2962758401519 485.0491502812501,531.8068410031041 475.04915028124987,531.8068410031025 466.9589803375012,525.9289884801763 476.95898033750143,525.928988480178 468.8688103937527,520.0511359572517 478.86881039375294,520.0511359572533 488.86881039375317,520.051135957255 496.95898033750376,514.1732834343314 500.0491502812518,523.6838485972837 491.9589803375031,517.8059960743575 488.8688103937551,508.2954309114053 491.9589803375062,498.784865748454 488.8688103937582,489.27430058550175 480.7786404500095,483.3964480625756 488.8688103937582,489.27430058550175 496.9589803375069,495.15215310842797 493.8688103937589,485.6415879454757 490.7786404500078,495.15215310842694 498.8688103937565,501.03000563135316 495.77864045000854,491.5194404684009 505.77864045000877,491.51944046840254 502.68847050625766,501.0300056313538 492.68847050625743,501.03000563135214 495.77864045000854,491.5194404684009 498.8688103937565,501.03000563135316 506.9589803375052,506.9078581542793 515.0491502812539,512.7857106772055 505.0491502812537,512.785710677204 496.958980337503,518.6635632001274 486.9589803375028,518.6635632001257 495.04915028125146,524.541415723052 485.04915028125123,524.5414157230504 476.95898033750257,518.6635632001241 468.86881039375385,512.7857106771979 460.7786404500032,518.6635632001214 463.8688103937543,509.15299803717016 460.7786404500032,518.6635632001214 468.86881039375385,512.7857106771979" stroke="black" stroke-linecap="round" stroke-width="1" /><polyline clip-path="url(#border_clip)" fill="none" points="468.86881039375385,512.7857106771979 476.9589803375025,518.6635632001241 466.9589803375023,518.6635632001224 470.04915028125345,509.1529980371712 461.9589803375047,503.27514551424497 470.04915028125345,509.1529980371712 460.04915028125316,509.15299803716954 468.1393202250038,503.275145514246 460.04915028125515,497.3972929913198 468.1393202250058,491.5194404683963 471.22949016875697,482.00887530544503 474.3196601125049,491.5194404683973 466.22949016875424,497.3972929913208 463.1393202250031,506.90785815427205 471.2294901687537,501.03000563134856 474.3196601125049,491.5194404683973 471.2294901687537,501.03000563134856 463.1393202250031,506.90785815427205 466.22949016875106,516.4184233172243 463.1393202249999,525.9289884801756 471.22949016874855,531.8068410031018 479.3196601124972,537.6846935260281 482.4098300562484,528.1741283630769 479.3196601124972,537.6846935260281 489.3196601124975,537.6846935260297 497.40983005624616,543.562546048956 494.319660112495,553.0731112119073 502.40983005624366,558.9509637348335 505.4999999999948,549.4403985718823 508.590169943746,539.929833408931 511.68033988749715,530.4192682459798 521.6803398874974,530.4192682459815 524.7705098312454,539.9298334089337 527.8606797749965,530.4192682459825 535.9508497187471,524.541415723059 527.8606797749965,530.4192682459825 535.9508497187471,524.541415723059 539.041019662495,534.0519808860113 535.9508497187471,524.541415723059 525.9508497187469,524.5414157230573 522.8606797749958,534.0519808860086 525.9508497187437,543.5625460489608 535.9508497187439,543.5625460489625" stroke="black" stroke-linecap="round" stroke-width="1" /><polyline clip-path="url(#border_clip)" fill="none" points="535.9508497187439,543.5625460489625 532.860679774996,534.0519808860103 540.9508497187467,528.1741283630868 550.9508497187469,528.1741283630885 547.860679774999,518.6635632001362 555.9508497187497,512.7857106772127 564.0410196625004,506.9078581542892 555.9508497187496,512.7857106772127 564.0410196624983,518.6635632001389 572.1311896062471,524.5414157230653 575.2213595499949,534.0519808860175 565.2213595499946,534.0519808860158 568.3115294937426,543.5625460489681 571.4016994374938,534.0519808860168 568.3115294937426,543.5625460489681 571.4016994374905,553.0731112119204 579.4918693812411,547.195258688997 576.4016994374933,537.6846935260446 586.4016994374936,537.6846935260464 578.3115294937448,531.8068410031201 575.2213595499936,541.3174061660714 585.221359549994,541.317406166073 577.1311896062432,547.1952586889965 580.2213595499911,556.7058238519488 572.1311896062405,562.5836763748723 580.2213595499891,568.4615288977986 590.2213595499893,568.4615288978003 593.3115294937372,577.9720940607526 590.2213595499893,568.4615288978003 598.3115294937401,562.5836763748769 588.3115294937398,562.5836763748752 578.3115294937395,562.5836763748733 581.4016994374908,553.0731112119222 584.4918693812419,543.562546048971 592.5820393249907,549.4403985718972 595.6722092687385,558.9509637348496 587.5820393249899,553.0731112119232 590.6722092687378,562.5836763748755 582.5820393249891,556.7058238519493 574.4918693812405,550.827971329023 564.4918693812402,550.8279713290212 567.5820393249915,541.31740616607 570.6722092687393,550.8279713290223" stroke="black" stroke-linecap="round" stroke-width="1" /><polyline clip-path="url(#border_clip)" fill="none" points="570.6722092687393,550.8279713290223 567.582039324988,560.3385364919735 559.4918693812374,566.216389014897 556.4016994374862,575.7269541778483 559.491869381234,585.2375193408005 556.4016994374862,575.7269541778483 553.3115294937382,566.2163890148959 550.221359549987,575.7269541778471 558.3115294937378,569.8491016549237 555.2213595499899,560.3385364919714 552.1311896062386,569.8491016549226 544.04101966249,563.9712491319963 552.1311896062407,558.0933966090729 560.2213595499893,563.9712491319991 552.1311896062386,569.8491016549226 555.2213595499899,560.3385364919714 552.1311896062421,550.8279713290191 549.0410196624941,541.3174061660667 557.1311896062427,547.195258688993 567.1311896062431,547.1952586889948 575.2213595499917,553.0731112119212 572.1311896062439,543.5625460489688 580.2213595499925,549.4403985718951 583.3115294937403,558.9509637348475 586.4016994374881,568.4615288977998 596.4016994374884,568.4615288978016 588.3115294937377,574.339381420725 596.4016994374884,568.4615288978016 586.4016994374881,568.4615288977998 583.3115294937403,558.9509637348475 591.4016994374889,564.8288162577738 583.3115294937382,570.7066687806972 586.4016994374861,580.2172339436496 583.3115294937382,570.7066687806972 591.4016994374869,576.5845213036235 581.4016994374866,576.5845213036217 584.4918693812344,586.0950864665741 574.4918693812342,586.0950864665723 566.4016994374834,591.9729389894957 569.4918693812347,582.4623738265445 579.491869381235,582.4623738265462 587.5820393249858,576.5845213036229 577.5820393249854,576.584521303621" stroke="black" stroke-linecap="round" stroke-width="1" /><polyline clip-path="url(#border_clip)" fill="none" points="577.5820393249854,576.584521303621 569.4918693812347,582.4623738265445 577.5820393249854,576.584521303621 587.5820393249858,576.5845213036229 590.672209268737,567.0739561406716 598.7623792124878,561.1961036177482 595.67220926874,551.685538454796 592.5820393249921,542.1749732918436 584.4918693812414,548.052825814767 592.5820393249921,542.1749732918436 584.4918693812435,536.2971207689172 581.4016994374956,526.7865556059648 589.4918693812464,520.9087030830415 586.4016994374986,511.3981379200891 578.3115294937478,517.2759904430125 570.221359549997,523.153842965936 562.1311896062463,529.0316954888593 554.0410196624977,523.153842965933 557.131189606249,513.6432778029817 549.0410196624982,519.5211303259051 539.041019662498,519.5211303259033 549.0410196624982,519.5211303259051 539.041019662498,519.5211303259033 542.1311896062492,510.0105651629521 539.041019662498,519.5211303259033 547.1311896062466,525.3989828488296 555.2213595499974,519.5211303259063 558.3115294937486,510.01056516295506 550.22135955,504.13271264002867 547.1311896062488,513.6432778029799 537.1311896062484,513.6432778029781 529.0410196624998,507.76542528005166 525.9508497187486,517.2759904430029 515.9508497187483,517.2759904430011 505.95084971874803,517.2759904429992 515.9508497187483,517.2759904430011 512.8606797750004,507.7654252800487 509.7705098312527,498.2548601170963 512.860679775004,488.7442949541451 520.9508497187526,494.6221474770715 524.0410196625039,485.1115823141203 515.9508497187531,490.9894348370437 524.0410196625039,485.1115823141203" stroke="black" stroke-linecap="round" stroke-width="1" /><polyline clip-path="url(#border_clip)" fill="none" points="524.0410196625039,485.1115823141203 527.1311896062552,475.6010171511691 517.131189606255,475.60101715116724 514.0410196625037,485.11158231411844 505.9508497187551,479.23372979119205 509.0410196625029,488.7442949541444 517.1311896062537,482.866442431221 509.04101966250505,476.9885899082946 519.0410196625053,476.9885899082965 522.1311896062566,467.4780247453453 532.131189606257,467.47802474534717 529.0410196625091,457.9674595823948 520.9508497187605,452.0896070594684 524.0410196625119,442.5790418965172 520.9508497187605,452.0896070594684 510.9508497187603,452.0896070594665 519.0410196625089,457.96745958239296 527.1311896062575,463.84531210531935 519.0410196625066,469.7231646282427 510.9508497187559,475.60101715116605 507.8606797750081,466.0904519882137 510.95084971875946,456.5798868252625 514.0410196625072,466.09045198821485 517.1311896062585,456.57988682526366 520.2213595500064,466.09045198821605 523.311529493754,475.60101715116843 531.4016994375027,481.4788696740948 523.3115294937519,487.3567221970182 526.4016994375032,477.846157034067 534.491869381254,471.96830451114363 544.4918693812543,471.9683045111455 552.5820393250051,466.0904519882222 555.6722092687564,456.579886825271 552.5820393250051,466.0904519882222 549.4918693812538,475.6010171511734 557.5820393250045,469.72316462825 547.5820393250043,469.7231646282481 544.491869381253,479.2337297911993 552.5820393250037,473.355877268276 555.6722092687514,482.86644243122834 545.6722092687512,482.86644243122646 542.5820393250035,473.35587726827407 552.5820393250037,473.355877268276" stroke="black" stroke-linecap="round" stroke-width="1" /><polyline clip-path="url(#border_clip)" fill="none" points="552.5820393250037,473.355877268276 544.491869381253,479.2337297911993 541.4016994375015,488.7442949541505 538.3115294937502,498.2548601171017 535.2213595500024,488.7442949541493 527.1311896062539,482.8664424312229 524.0410196625061,473.3558772682705 520.9508497187547,482.8664424312217 517.860679775007,473.3558772682693 520.9508497187584,463.8453121053181 524.0410196625098,454.3347469423669 515.9508497187612,448.45689441944046 525.9508497187614,448.4568944194424 515.9508497187612,448.45689441944046 524.0410196625098,454.3347469423669 520.9508497187584,463.8453121053181 517.8606797750107,454.3347469423657 527.8606797750109,454.33474694236764 530.9508497187624,444.82418177941645 527.8606797750109,454.33474694236764 524.7705098312632,444.82418177941526 532.8606797750118,450.70203430234176 535.9508497187632,441.1914691393905 544.0410196625118,447.069321662317 554.041019662512,447.06932166231894 545.9508497187612,452.94717418524226 537.8606797750126,447.0693216623158 527.8606797750124,447.0693216623138 535.9508497187609,452.9471741852403 545.9508497187612,452.94717418524226 535.9508497187609,452.9471741852403 527.8606797750124,447.0693216623138 519.7705098312615,452.94717418523715 509.7705098312612,452.9471741852352 506.68033988750983,462.4577393481864 503.5901699437584,471.9683045111376 513.5901699437586,471.96830451113954 503.5901699437584,471.9683045111376 506.6803398875061,481.47886967409 503.5901699437547,490.9894348370412 493.5901699437544,490.98943483703925 490.50000000000296,500.49999999999045 500.50000000000324,500.4999999999924" stroke="black" stroke-linecap="round" stroke-width="1" /><polyline clip-path="url(#border_clip)" fill="none" points="500.50000000000324,500.4999999999924 510.5000000000035,500.4999999999944 520.5000000000038,500.4999999999963 523.5901699437514,510.0105651629487 515.5000000000007,515.888417685872 525.5000000000009,515.888417685874 533.5901699437495,521.7662702088005 525.5000000000009,515.888417685874 533.5901699437495,521.7662702088005 525.4999999999986,527.6441227317238 533.5901699437495,521.7662702088005 530.5000000000018,512.2557050458481 520.5000000000015,512.2557050458461 512.4098300562506,518.1335575687694 515.4999999999983,527.6441227317218 523.5901699437492,521.7662702087985 531.6803398874977,527.644122731725 534.7705098312454,537.1546878946774 542.8606797749962,531.2768353717541 550.9508497187448,537.1546878946806 559.0410196624933,543.0325404176072 550.9508497187448,537.1546878946806 547.8606797749934,546.6652530576318 544.770509831242,556.175818220583 536.6803398874911,562.0536707435062 533.5901699437434,552.5431055805539 525.4999999999925,558.4209581034772 535.4999999999927,558.4209581034792 525.4999999999925,558.4209581034772 517.4098300562416,564.2988106264005 525.4999999999901,570.1766631493269 533.590169943741,564.2988106264037 536.6803398874887,573.8093757893561 539.7705098312401,564.2988106264049 529.7705098312399,564.2988106264029 532.8606797749875,573.8093757893554 524.770509831239,567.9315232664288 516.6803398874881,573.8093757893521 508.5901699437396,567.9315232664255 505.4999999999881,577.4420884293768 508.59016994373576,586.9526535923292 500.4999999999849,592.8305061152524 508.59016994373576,586.9526535923292" stroke="black" stroke-linecap="round" stroke-width="1" /><polyline clip-path="url(#border_clip)" fill="none" points="508.59016994373576,586.9526535923292 516.6803398874843,592.8305061152557 513.5901699437367,583.3199409523033 510.49999999998903,573.8093757893508 520.4999999999893,573.8093757893529 530.4999999999895,573.8093757893549 527.4098300562381,583.3199409523061 519.3196601124872,589.1977934752293 522.4098300562387,579.6872283122782 514.3196601124878,585.5650808352015 517.4098300562393,576.0545156722502 520.4999999999908,566.5439505092991 517.4098300562431,557.0333853463467 527.4098300562434,557.0333853463486 519.3196601124926,562.9112378692719 509.3196601124922,562.9112378692699 501.2294901687437,557.0333853463434 491.22949016874344,557.0333853463413 483.13932022499256,562.9112378692646 491.22949016874344,557.0333853463413 499.3196601124943,551.1555328234181 489.31966011249403,551.155532823416 497.4098300562426,557.0333853463426 505.49999999999346,551.1555328234193 495.4999999999932,551.1555328234173 498.5901699437447,541.6449676604661 506.6803398874932,547.5228201833927 503.59016994374167,557.0333853463438 495.4999999999932,551.1555328234173 505.49999999999346,551.1555328234193 513.5901699437444,545.2776803004961 521.6803398874953,539.3998277775728 518.5901699437438,548.910392940524 521.6803398874914,558.4209581034764 518.5901699437399,567.9315232664276 526.6803398874908,562.0536707435044 523.5901699437393,571.5642359064556 515.4999999999884,577.4420884293788 507.40983005623747,583.319940952302 510.49999999998505,592.8305061152545 502.40983005623656,586.9526535923279 510.49999999998505,592.8305061152545 507.40983005623747,583.319940952302" stroke="black" stroke-linecap="round" stroke-width="1" /><polyline clip-path="url(#border_clip)" fill="none" points="507.40983005623747,583.319940952302 515.4999999999884,577.4420884293788 512.4098300562368,586.95265359233 504.31966011248835,581.0748010694034 496.2294901687374,586.9526535923267 504.31966011248835,581.0748010694034 501.2294901687368,590.5853662323545 498.1393202249892,581.0748010694022 490.04915028123827,586.9526535923253 486.9589803374907,577.4420884293729 478.8688103937422,571.5642359064464 488.8688103937425,571.5642359064484 491.95898033749006,581.0748010694008 500.04915028123855,586.9526535923275 496.95898033749097,577.442088429375 488.8688103937425,571.5642359064484 496.95898033749097,577.442088429375 500.04915028123855,586.9526535923275 510.0491502812389,586.9526535923295 518.1393202249874,592.8305061152561 526.2294901687383,586.9526535923329 534.3196601124893,581.0748010694097 526.2294901687408,575.1969485464831 534.3196601124893,581.0748010694097 537.4098300562408,571.5642359064585 545.4999999999917,565.6863833835353 553.5901699437402,571.5642359064619 561.6803398874912,565.6863833835387 553.5901699437427,559.8085308606121 545.4999999999942,553.9306783376854 537.4098300562457,548.0528258147589 540.4999999999973,538.5422606518077 550.4999999999976,538.5422606518098 542.4098300562491,532.6644081288832 539.3196601125015,523.1538429659307 542.4098300562491,532.6644081288832 539.3196601125015,523.1538429659307 549.3196601125019,523.1538429659329 539.3196601125015,523.1538429659307 536.22949016875,532.6644081288819 544.3196601124985,538.5422606518085 554.3196601124987,538.5422606518106 557.4098300562503,529.0316954888594" stroke="black" stroke-linecap="round" stroke-width="1" /><polyline clip-path="url(#border_clip)" fill="none" points="557.4098300562503,529.0316954888594 547.40983005625,529.0316954888574 544.3196601125024,519.5211303259049 547.409830056254,510.0105651629537 537.4098300562538,510.0105651629516 534.3196601125062,500.4999999999991 531.2294901687586,490.98943483704664 534.3196601125062,500.4999999999991 542.4098300562572,494.62214747707594 550.5000000000081,488.74429495415274 560.5000000000084,488.74429495415484 557.4098300562569,498.25486011710603 567.4098300562571,498.25486011710814 559.3196601125087,492.3770075941815 567.4098300562571,498.25486011710814 577.4098300562574,498.2548601171103 574.3196601125098,488.7442949541578 564.3196601125096,488.74429495415563 567.4098300562612,479.2337297912045 559.3196601125102,485.1115823141277 567.4098300562587,490.9894348370543 570.5000000000102,481.4788696741032 573.5901699437578,490.9894348370556 583.5901699437582,490.9894348370578 586.6803398875056,500.50000000001023 594.7705098312566,494.6221474770871 597.8606797750083,485.11158231413594 607.8606797750085,485.11158231413805 597.8606797750083,485.11158231413594 594.7705098312607,475.60101715118344 591.6803398875091,485.1115823141346 588.5901699437575,494.6221474770858 580.5000000000091,488.7442949541591 572.4098300562606,482.86644243123243 580.5000000000116,476.9885899083093 590.5000000000118,476.98858990831144 582.409830056261,482.8664424312346 592.4098300562612,482.86644243123675 584.3196601125102,488.7442949541599 576.2294901687592,494.6221474770831 573.1393202250076,504.13271264003424 565.0491502812591,498.25486011710757 575.0491502812595,498.25486011710973" stroke="black" stroke-linecap="round" stroke-width="1" /><polyline clip-path="url(#border_clip)" fill="none" points="575.0491502812595,498.25486011710973 583.1393202250079,504.1327126400364 586.2294901687554,513.6432778029889 594.3196601125039,519.5211303259156 604.3196601125042,519.5211303259177 594.3196601125039,519.5211303259156 584.3196601125036,519.5211303259134 592.409830056252,525.3989828488401 589.3196601125045,515.8884176858876 579.3196601125042,515.8884176858854 587.4098300562526,521.7662702088121 579.3196601125017,527.6441227317353 576.2294901687542,518.1335575687827 584.3196601125052,512.2557050458596 587.4098300562526,521.7662702088121 579.3196601125042,515.8884176858854 569.3196601125039,515.8884176858833 559.3196601125036,515.888417685881 567.4098300562546,510.0105651629579 570.5000000000063,500.50000000000676 578.5901699437572,494.6221474770836 568.5901699437569,494.6221474770814 576.6803398875079,488.74429495415825 586.6803398875082,488.74429495416047 596.6803398875086,488.7442949541626 599.7705098312603,479.2337297912115 602.8606797750077,488.744294954164 599.7705098312603,479.2337297912115 596.6803398875086,488.7442949541626 586.6803398875082,488.74429495416047 594.7705098312592,482.8664424312373 597.8606797750067,492.3770075941898 607.860679775007,492.37700759419204 597.8606797750067,492.3770075941898 605.9508497187578,486.49915507126667 602.8606797750061,496.0097202342178 612.8606797750065,496.00972023422 609.7705098312547,505.52028539717116 612.8606797750022,515.0308505601237 604.7705098312538,509.152998037197 607.8606797750055,499.64243287424586 604.770509831258,490.13186771129335 601.6803398875063,499.6424328742445" stroke="black" stroke-linecap="round" stroke-width="1" /><polyline clip-path="url(#border_clip)" fill="none" points="601.6803398875063,499.6424328742445 604.7705098312538,509.152998037197 601.6803398875063,499.6424328742445 604.770509831258,490.13186771129335 596.6803398875096,484.2540151883666 593.5901699437621,474.7434500254141 583.5901699437618,474.7434500254119 573.5901699437615,474.7434500254097 576.6803398875089,484.2540151883622 573.5901699437615,474.7434500254097 565.5000000000105,480.6213025483328 555.5000000000101,480.62130254833056 552.4098300562626,471.11073738537806 542.4098300562624,471.11073738537584 545.5000000000098,480.62130254832834 548.5901699437572,490.13186771128085 551.6803398875047,499.6424328742334 543.5901699437537,505.5202853971565 535.5000000000053,499.64243287422977 538.5901699437527,509.1529980371823 535.500000000001,518.6635632001335 538.5901699437527,509.1529980371823 535.500000000001,518.6635632001335 527.4098300562526,512.7857106772067 535.500000000001,518.6635632001335 543.5901699437521,512.7857106772103 540.5000000000047,503.2751455142578 532.4098300562563,497.3972929913311 524.3196601125052,503.2751455142542 532.4098300562536,509.1529980371809 529.3196601125019,518.6635632001321 521.2294901687509,524.5414157230551 529.3196601124993,530.4192682459819 526.2294901687476,539.9298334089331 523.1393202249958,549.4403985718841 526.2294901687476,539.9298334089331 516.2294901687472,539.9298334089308 506.2294901687469,539.9298334089285 498.1393202249985,534.0519808860017 506.2294901687496,528.1741283630787 498.1393202250012,522.2962758401519 501.2294901687486,531.8068410031044 498.1393202250012,522.2962758401519" stroke="black" stroke-linecap="round" stroke-width="1" /><polyline clip-path="url(#border_clip)" fill="none" points="498.1393202250012,522.2962758401519 490.04915028125276,516.4184233172252 486.95898033750103,525.9289884801764 495.04915028124947,531.806841003103 486.9589803374984,537.6846935260262 496.9589803374987,537.6846935260285 493.8688103937513,528.1741283630759 485.77864045000024,534.051980885999 488.86881039375197,524.5414157230479 480.77864045000354,518.6635632001211 483.86881039375527,509.15299803716994 473.868810393755,509.15299803716766 465.77864045000393,515.0308505600908 457.6884705062555,509.152998037164 465.7786404500039,515.0308505600908 462.6884705062522,524.541415723042 470.77864045000325,518.6635632001188 478.8688103937543,512.7857106771958 481.9589803375017,522.2962758401483 485.0491502812491,531.8068410031008 475.0491502812488,531.8068410030985 466.9589803375004,525.9289884801718 476.95898033750075,525.9289884801741 468.86881039375237,520.0511359572473 478.86881039375265,520.0511359572496 488.868810393753,520.0511359572519 496.95898033750404,514.1732834343288 500.04915028125146,523.6838485972813 491.9589803375031,517.8059960743545 488.86881039375567,508.29543091140204 491.9589803375074,498.7848657484509 488.86881039376004,489.27430058549834 480.77864045001166,483.39644806257155 488.86881039376004,489.27430058549834 496.9589803375084,495.1521531084251 493.868810393761,485.64158794547257 490.7786404500093,495.1521531084237 498.86881039375766,501.0300056313505 495.77864045001024,491.51944046839793 505.7786404500106,491.5194404684002 502.6884705062588,501.03000563135134 492.6884705062585,501.03000563134907 495.77864045001024,491.51944046839793" stroke="black" stroke-linecap="round" stroke-width="1" /><polyline clip-path="url(#border_clip)" fill="none" points="495.77864045001024,491.51944046839793 498.86881039375766,501.0300056313505 506.95898033750603,506.9078581542773 515.0491502812544,512.7857106772041 505.0491502812541,512.7857106772018 496.95898033750296,518.6635632001248 486.9589803375027,518.6635632001224 495.04915028125106,524.5414157230492 485.0491502812507,524.541415723047 476.95898033750234,518.6635632001202 468.86881039375396,512.7857106771934 460.77864045000285,518.6635632001164 463.86881039375464,509.1529980371653 460.77864045000285,518.6635632001164 468.86881039375396,512.7857106771934 476.95898033750234,518.6635632001202 466.958980337502,518.6635632001179 470.0491502812538,509.15299803716675 461.95898033750547,503.2751455142399 470.0491502812538,509.15299803716675 460.0491502812535,509.1529980371644 468.1393202250046,503.2751455142414 460.04915028125623,497.39729299131454 468.13932022500734,491.5194404683915 471.2294901687591,482.0088753054404 474.3196601125065,491.519440468393 466.2294901687554,497.397292991316 463.1393202250036,506.9078581542671 471.2294901687547,501.03000563134407 474.3196601125065,491.519440468393 471.2294901687547,501.03000563134407 463.1393202250036,506.9078581542671 466.22949016875094,516.4184233172197 463.1393202249991,525.9289884801708 471.2294901687475,531.8068410030976 479.31966011249585,537.6846935260245 482.40983005624764,528.1741283630734 479.31966011249585,537.6846935260245 489.31966011249614,537.6846935260268 497.4098300562445,543.5625460489537 494.3196601124927,553.0731112119047 502.40983005624105,558.9509637348316 505.4999999999929,549.4403985718805" stroke="black" stroke-linecap="round" stroke-width="1" /><polyline clip-path="url(#border_clip)" fill="none" points="505.4999999999929,549.4403985718805 508.5901699437447,539.9298334089293 511.68033988749653,530.4192682459782 521.6803398874969,530.4192682459806 524.7705098312442,539.9298334089332 527.860679774996,530.419268245982 535.9508497187471,524.541415723059 527.860679774996,530.419268245982 535.9508497187471,524.541415723059 539.0410196624945,534.0519808860116 535.9508497187471,524.541415723059 525.9508497187468,524.5414157230566 522.860679774995,534.0519808860078 525.9508497187423,543.5625460489604 535.9508497187426,543.5625460489628 532.8606797749953,534.0519808860101 540.9508497187464,528.1741283630871 550.9508497187468,528.1741283630895 547.8606797749994,518.6635632001369 555.9508497187505,512.785710677214 564.0410196625018,506.9078581542909 555.9508497187505,512.785710677214 564.0410196624989,518.6635632001407 572.1311896062473,524.5414157230676 575.2213595499945,534.0519808860201 565.2213595499942,534.0519808860178 568.3115294937415,543.5625460489704 571.4016994374933,534.0519808860192 568.3115294937415,543.5625460489704 571.4016994374889,553.073111211923 579.49186938124,547.195258689 576.4016994374927,537.6846935260473 586.401699437493,537.6846935260497 578.3115294937447,531.8068410031229 575.2213595499928,541.3174061660741 585.2213595499932,541.3174061660765 577.1311896062421,547.1952586889994 580.2213595499893,556.705823851952 572.1311896062382,562.583676374875 580.2213595499865,568.4615288978018 590.2213595499868,568.4615288978042 593.3115294937342,577.9720940607568 590.2213595499868,568.4615288978043" stroke="black" stroke-linecap="round" stroke-width="1" /><polyline clip-path="url(#border_clip)" fill="none" points="590.2213595499868,568.4615288978043 598.311529493738,562.5836763748813 588.3115294937377,562.5836763748789 578.3115294937373,562.5836763748765 581.4016994374891,553.0731112119254 584.491869381241,543.5625460489742 592.5820393249894,549.4403985719011 595.6722092687367,558.9509637348538 587.5820393249883,553.0731112119269 590.6722092687356,562.5836763748795 582.5820393249872,556.7058238519526 574.491869381239,550.8279713290257 564.4918693812385,550.8279713290233 567.5820393249904,541.3174061660721 570.6722092687378,550.8279713290248 567.5820393249859,560.3385364919759 559.4918693812347,566.2163890148988 556.4016994374829,575.72695417785 559.4918693812301,585.2375193408026 556.4016994374829,575.72695417785 553.3115294937355,566.2163890148973 550.2213595499836,575.7269541778485 558.3115294937348,569.8491016549256 555.2213595499876,560.338536491973 552.1311896062357,569.849101654924 544.0410196624873,563.9712491319972 552.1311896062385,558.0933966090741 560.2213595499868,563.971249132001 552.1311896062357,569.849101654924 555.2213595499876,560.338536491973 552.1311896062402,550.8279713290203 549.041019662493,541.3174061660677 557.1311896062414,547.1952586889946 567.1311896062417,547.195258688997 575.22135954999,553.0731112119239 572.1311896062427,543.5625460489713 580.2213595499911,549.4403985718982 583.3115294937384,558.9509637348508 586.4016994374856,568.4615288978034 596.401699437486,568.4615288978059 588.3115294937347,574.3393814207288 596.401699437486,568.4615288978059 586.4016994374856,568.4615288978034" stroke="black" stroke-linecap="round" stroke-width="1" /><polyline clip-path="url(#border_clip)" fill="none" points="586.4016994374856,568.4615288978034 583.3115294937384,558.9509637348508 591.4016994374866,564.8288162577778 583.3115294937354,570.7066687807007 586.4016994374826,580.2172339436534 583.3115294937354,570.7066687807007 591.4016994374838,576.5845213036276 581.4016994374834,576.5845213036251 584.4918693812307,586.0950864665778 574.4918693812303,586.0950864665754 566.4016994374791,591.9729389894983 569.491869381231,582.4623738265472 579.4918693812314,582.4623738265497 587.5820393249826,576.5845213036267 577.5820393249822,576.5845213036242 569.491869381231,582.4623738265472 577.5820393249822,576.5845213036242 587.5820393249826,576.5845213036267 590.6722092687345,567.0739561406756 598.7623792124857,561.1961036177527 595.6722092687385,551.6855384548 592.5820393249912,542.1749732918474 584.49186938124,548.0528258147704 592.5820393249912,542.1749732918474 584.491869381243,536.2971207689205 581.4016994374957,526.7865556059679 589.4918693812469,520.908703083045 586.4016994374997,511.3981379200923 578.3115294937485,517.2759904430153 570.2213595499973,523.1538429659382 562.131189606246,529.0316954888611 554.0410196624978,523.1538429659341 557.1311896062498,513.6432778029831 549.0410196624986,519.521130325906 539.0410196624982,519.5211303259035 549.0410196624985,519.521130325906 539.0410196624982,519.5211303259035 542.1311896062501,510.0105651629524 539.0410196624982,519.5211303259035 547.1311896062465,525.3989828488304 555.2213595499977,519.5211303259075 558.3115294937496,510.0105651629564 550.2213595500014,504.13271264002947" stroke="black" stroke-linecap="round" stroke-width="1" /><polyline clip-path="url(#border_clip)" fill="none" points="550.2213595500014,504.13271264002947 547.1311896062493,513.6432778029806 537.131189606249,513.6432778029781 529.0410196625007,507.76542528005115 525.9508497187488,517.2759904430022 515.9508497187485,517.2759904429997 505.9508497187481,517.2759904429972 515.9508497187485,517.2759904429997 512.8606797750012,507.7654252800471 509.77050983125406,498.25486011709444 512.860679775006,488.74429495414336 520.9508497187543,494.6221474770703 524.0410196625063,485.11158231411923 515.9508497187551,490.98943483704215 524.0410196625063,485.11158231411923 527.1311896062582,475.60101715116815 517.1311896062579,475.6010171511656 514.041019662506,485.11158231411673 505.95084971875764,479.2337297911897 509.0410196625048,488.7442949541424 517.131189606256,482.86644243121947 509.0410196625078,476.9885899082925 519.0410196625081,476.988589908295 522.1311896062601,467.47802474534393 532.1311896062605,467.4780247453465 529.0410196625133,457.9674595823938 520.9508497187651,452.08960705946686 524.041019662517,442.5790418965157 520.9508497187651,452.08960705946686 510.9508497187647,452.0896070594643 519.041019662513,457.96745958239126 527.1311896062613,463.84531210531827 519.0410196625099,469.72316462824114 510.9508497187587,475.60101715116406 507.86067977501153,466.0904519882114 510.95084971876355,456.5798868252603 514.0410196625107,466.090451988213 517.1311896062628,456.5798868252619 520.2213595500099,466.0904519882145 523.311529493757,475.6010171511672 531.4016994375053,481.4788696740942 523.311529493754,487.35672219701706 526.4016994375061,477.846157034066" stroke="black" stroke-linecap="round" stroke-width="1" /><polyline clip-path="url(#border_clip)" fill="none" points="526.4016994375061,477.846157034066 534.4918693812573,471.9683045111431 544.4918693812576,471.9683045111457 552.582039325009,466.09045198822275 555.672209268761,456.57988682527167 552.582039325009,466.09045198822275 549.491869381257,475.6010171511739 557.5820393250082,469.72316462825097 547.5820393250078,469.7231646282484 544.4918693812558,479.2337297911995 552.5820393250071,473.35587726827663 555.6722092687543,482.8664424312293 545.6722092687539,482.86644243122674 542.5820393250068,473.35587726827407 552.5820393250071,473.35587726827663 544.4918693812558,479.2337297911995 541.4016994375038,488.74429495415063 538.3115294937518,498.2548601171017 535.2213595500046,488.74429495414904 527.1311896062564,482.866442431222 524.0410196625093,473.3558772682693 520.9508497187572,482.86644243122043 517.8606797750101,473.3558772682677 520.9508497187621,463.8453121053167 524.0410196625141,454.33474694236554 515.9508497187659,448.4568944194385 525.9508497187662,448.45689441944114 515.9508497187659,448.4568944194385 524.0410196625141,454.3347469423656 520.9508497187621,463.8453121053167 517.860679775015,454.33474694236395 527.8606797750153,454.33474694236656 530.9508497187674,444.8241817794155 527.8606797750153,454.33474694236656 524.7705098312682,444.8241817794139 532.8606797750165,450.7020343023409 535.9508497187685,441.1914691393898 544.0410196625168,447.0693216623169 554.0410196625171,447.06932166231945 545.9508497187658,452.9471741852423 537.8606797750176,447.06932166231525 527.8606797750172,447.0693216623127 535.9508497187654,452.9471741852397" stroke="black" stroke-linecap="round" stroke-width="1" /><polyline clip-path="url(#border_clip)" fill="none" points="535.9508497187654,452.9471741852397 545.9508497187658,452.9471741852423 535.9508497187654,452.9471741852397 527.8606797750172,447.0693216623127 519.7705098312659,452.9471741852355 509.77050983126554,452.9471741852329 506.68033988751347,462.45773934818396 503.5901699437614,471.96830451113505 513.5901699437618,471.96830451113766 503.5901699437614,471.96830451113505 506.6803398875085,481.4788696740878 503.59016994375645,490.98943483703886 493.59016994375605,490.98943483703624 490.500000000004,500.49999999998727 500.5000000000043,500.49999999998994" stroke="black" stroke-linecap="round" stroke-width="1" /></svg>