<?xml version="1.0" encoding="UTF-8"?>
<svg width="1e4px" height="1e4px" baseProfile="full" version="1.1" viewBox="4995 4980.6 30.902 30.777" xmlns="http://www.w3.org/2000/svg">
<defs>
<clipPath id="a">
<rect width="1e4" height="1e4"/>
</clipPath>
</defs>
<polyline points="5000.5 5000.5 5010.5 5000.5 5020.5 5000.5 5017.4 5010 5014.3 5000.5 5017.4 4991 5009.3 4985.1 5006.2 4994.6 5003.1 5004.1 4995 4998.3 5005 4998.3 5013.1 5004.1 5021.2 4998.3 5013.1 4992.4 5005 4986.5 5013.1 4980.6 5010 4990.1 5002 4996 5005 5005.5 5013.1 4999.6 5021.2 4993.8 5024.3 5003.3 5016.2 4997.4 5013.1 4987.9 5003.1 4987.9 5006.2 4997.4 5009.3 5006.9 4999.3 5006.9 5007.4 5001 5017.4 5001 5020.5 4991.5 5010.5 4991.5 5000.5 4991.5 5003.6 4982 5006.7 4991.5 5003.6 5001 5011.7 5006.9 5014.8 4997.4 5017.9 4987.9 5026 4993.8 5016 4993.8 5007.9 4987.9 4999.8 4993.8" clip-path="url(#a)" fill="none" stroke="#000" stroke-linecap="round"/>
<polyline points="4999.8 4993.8 5007.9 4999.6 5016 5005.5 5007.9 5011.4 5011 5001.9 5019 4996 5016 4986.5 5007.9 4992.4 4999.8 4998.3 4996.7 4988.7 5004.8 4994.6 5007.9 5004.1 5017.9 5004.1 5014.8 4994.6 5011.7 4985.1 5021.7 4985.1 5013.6 4991 5003.6 4991 5000.5 5000.5 5010.5 5000.5 5020.5 5000.5 5017.4 5010 5014.3 5000.5 5017.4 4991 5009.3 4985.1 5006.2 4994.6 5003.1 5004.1 4995 4998.3 5005 4998.3 5013.1 5004.1 5021.2 4998.3 5013.1 4992.4 5005 4986.5 5013.1 4980.6 5010 4990.1 5002 4996 5005 5005.5 5013.1 4999.6 5021.2 4993.8 5024.3 5003.3 5016.2 4997.4 5013.1 4987.9 5003.1 4987.9" clip-path="url(#a)" fill="none" stroke="#000" stroke-linecap="round"/>
<polyline points="5003.1 4987.9 5006.2 4997.4 5009.3 5006.9 4999.3 5006.9 5007.4 5001 5017.4 5001 5020.5 4991.5 5010.5 4991.5 5000.5 4991.5 5003.6 4982 5006.7 4991.5 5003.6 5001 5011.7 5006.9 5014.8 4997.4 5017.9 4987.9 5026 4993.8 5016 4993.8 5007.9 4987.9 4999.8 4993.8 5007.9 4999.6 5016 5005.5 5007.9 5011.4 5011 5001.9 5019 4996 5016 4986.5 5007.9 4992.4 4999.8 4998.3 4996.7 4988.7 5004.8 4994.6 5007.9 5004.1 5017.9 5004.1 5014.8 4994.6 5011.7 4985.1 5021.7 4985.1 5013.6 4991 5003.6 4991 5000.5 5000.5 5010.5 5000.5 5020.5 5000.5 5017.4 5010 5014.3 5000.5 5017.4 4991 5009.3 4985.1" clip-path="url(#a)" fill="none" stroke="#000" stroke-linecap="round"/>
<polyline points="5009.3 4985.1 5006.2 4994.6 5003.1 5004.1 4995 4998.3 5005 4998.3 5013.1 5004.1 5021.2 4998.3 5013.1 4992.4 5005 4986.5 5013.1 4980.6 5010 4990.1 5002 4996 5005 5005.5 5013.1 4999.6 5021.2 4993.8 5024.3 5003.3 5016.2 4997.4 5013.1 4987.9 5003.1 4987.9 5006.2 4997.4 5009.3 5006.9 4999.3 5006.9 5007.4 5001 5017.4 5001 5020.5 4991.5 5010.5 4991.5 5000.5 4991.5 5003.6 4982 5006.7 4991.5 5003.6 5001 5011.7 5006.9 5014.8 4997.4 5017.9 4987.9 5026 4993.8 5016 4993.8 5007.9 4987.9 4999.8 4993.8 5007.9 4999.6 5016 5005.5 5007.9 5011.4 5011 5001.9 5019 4996 5016 4986.5" clip-path="url(#a)" fill="none" stroke="#000" stroke-linecap="round"/>
<polyline points="5016 4986.5 5007.9 4992.4 4999.8 4998.3 4996.7 4988.7 5004.8 4994.6 5007.9 5004.1 5017.9 5004.1 5014.8 4994.6 5011.7 4985.1 5021.7 4985.1 5013.6 4991 5003.6 4991 5000.5 5000.5 5010.5 5000.5 5020.5 5000.5 5017.4 5010 5014.3 5000.5 5017.4 4991 5009.3 4985.1 5006.2 4994.6 5003.1 5004.1 4995 4998.3 5005 4998.3 5013.1 5004.1 5021.2 4998.3 5013.1 4992.4 5005 4986.5 5013.1 4980.6 5010 4990.1 5002 4996 5005 5005.5 5013.1 4999.6 5021.2 4993.8 5024.3 5003.3 5016.2 4997.4 5013.1 4987.9 5003.1 4987.9 5006.2 4997.4 5009.3 5006.9 4999.3 5006.9 5007.4 5001 5017.4 5001 5020.5 4991.5" clip-path="url(#a)" fill="none" stroke="#000" stroke-linecap="round"/>
<polyline points="5020.5 4991.5 5010.5 4991.5 5000.5 4991.5 5003.6 4982 5006.7 4991.5 5003.6 5001 5011.7 5006.9 5014.8 4997.4 5017.9 4987.9 5026 4993.8 5016 4993.8 5007.9 4987.9 4999.8 4993.8 5007.9 4999.6 5016 5005.5 5007.9 5011.4 5011 5001.9 5019 4996 5016 4986.5 5007.9 4992.4 4999.8 4998.3 4996.7 4988.7 5004.8 4994.6 5007.9 5004.1 5017.9 5004.1 5014.8 4994.6 5011.7 4985.1 5021.7 4985.1 5013.6 4991 5003.6 4991 5000.5 5000.5" clip-path="url(#a)" fill="none" stroke="#000" stroke-linecap="round"/>
</svg>
