<?xml version="1.0" encoding="utf-8" ?>
<svg baseProfile="full" height="1000px" version="1.1" width="1000px" xmlns="http://www.w3.org/2000/svg" xmlns:ev="http://www.w3.org/2001/xml-events" xmlns:xlink="http://www.w3.org/1999/xlink"><defs><clipPath id="border_clip"><rect height="1000" width="1000" x="0" y="0" /></clipPath></defs><polyline clip-path="url(#border_clip)" fill="none" points="500.5,500.5 510.5,500.5 507.40983005625054,510.01056516295154 504.319660112501,500.5 507.40983005625054,490.98943483704846 499.3196601125011,485.1115823141237 496.22949016875157,494.62214747707526 493.1393202250021,504.1327126400268 485.04915028125265,498.25486011710206 495.04915028125265,498.25486011710206 503.1393202250021,504.1327126400268 511.22949016875157,498.2548601171021 503.1393202250021,492.3770075941773 495.04915028125265,486.4991550712526 503.1393202250021,480.6213025483279 500.04915028125265,490.1318677112794 491.95898033750314,496.0097202342041 495.0491502812526,505.5202853971557 503.1393202250021,499.64243287423096 511.22949016875157,493.7645803513062 514.3196601125011,503.2751455142578 506.22949016875157,497.397292991333 503.1393202250021,487.8867278283815 493.1393202250021,487.8867278283815 496.22949016875157,497.397292991333 499.319660112501,506.90785815428455 489.319660112501,506.90785815428455 497.40983005625054,501.0300056313598 507.40983005625054,501.03000563135987 510.50000000000006,491.51944046840833 500.5,491.5194404684083 490.5,491.5194404684083 493.5901699437495,482.00887530545674 496.680339887499,491.5194404684083 493.59016994374946,501.0300056313598 501.6803398874989,506.90785815428455 504.77050983124843,497.397292991333 507.86067977499795,487.88672782838154 515.9508497187473,493.7645803513063 505.9508497187474,493.7645803513062 497.86067977499795,487.8867278283815 489.77050983124843,493.76458035130617 497.8606797749979,499.64243287423096" stroke="black" stroke-linecap="round" stroke-width="1" /><polyline clip-path="url(#border_clip)" fill="none" points="497.8606797749979,499.64243287423096 505.95084971874735,505.5202853971557 497.86067977499783,511.39813792008044 500.95084971874735,501.8875727571289 509.04101966249686,496.00972023420417 505.95084971874746,486.49915507125263 497.86067977499795,492.3770075941773 489.77050983124843,498.254860117102 486.680339887499,488.74429495415046 494.77050983124843,494.62214747707526 497.86067977499783,504.1327126400268 507.8606797749979,504.13271264002685 504.77050983124843,494.6221474770753 501.68033988749903,485.1115823141237 511.68033988749903,485.1115823141238 503.5901699437495,490.98943483704846 493.5901699437495,490.9894348370484 490.49999999999994,500.49999999999994 500.5,500.5 510.5,500.50000000000006 507.4098300562504,510.0105651629516 504.319660112501,500.5 507.4098300562506,490.9894348370485 499.31966011250114,485.1115823141237 496.22949016875157,494.6221474770752 493.13932022500205,504.13271264002674 485.0491502812526,498.25486011710194 495.0491502812526,498.25486011710206 503.13932022500205,504.13271264002685 511.22949016875157,498.25486011710217 503.13932022500217,492.37700759417737 495.0491502812527,486.4991550712525 503.1393202250022,480.6213025483279 500.0491502812527,490.13186771127937 491.95898033750314,496.00972023420405 495.04915028125254,505.52028539715565 503.1393202250021,499.64243287423096 511.2294901687516,493.76458035130634 514.319660112501,503.2751455142579 506.22949016875157,497.3972929913331 503.13932022500217,487.8867278283815 493.13932022500217,487.88672782838137 496.22949016875157,497.39729299133296" stroke="black" stroke-linecap="round" stroke-width="1" /><polyline clip-path="url(#border_clip)" fill="none" points="496.22949016875157,497.39729299133296 499.31966011250097,506.90785815428455 489.3196601125009,506.90785815428444 497.4098300562505,501.0300056313598 507.4098300562505,501.0300056313599 510.50000000000006,491.5194404684084 500.50000000000006,491.5194404684083 490.50000000000006,491.51944046840816 493.59016994374963,482.0088753054566 496.680339887499,491.5194404684082 493.5901699437494,501.03000563135976 501.68033988749886,506.9078581542846 504.77050983124843,497.3972929913331 507.860679774998,487.88672782838154 515.9508497187475,493.7645803513064 505.9508497187474,493.7645803513063 497.860679774998,487.8867278283814 489.77050983124843,493.7645803513061 497.86067977499783,499.6424328742309 505.9508497187473,505.52028539715576 497.8606797749977,511.39813792008044 500.9508497187473,501.8875727571289 509.04101966249686,496.0097202342042 505.9508497187475,486.49915507125263 497.86067977499795,492.3770075941773 489.7705098312484,498.25486011710194 486.68033988749903,488.74429495415035 494.77050983124843,494.6221474770752 497.8606797749978,504.1327126400268 507.86067977499783,504.1327126400269 504.7705098312485,494.6221474770753 501.6803398874991,485.1115823141237 511.68033988749914,485.11158231412384 503.5901699437496,490.98943483704846 493.5901699437495,490.98943483704835 490.49999999999994,500.4999999999999 500.49999999999994,500.5 510.5,500.5000000000001 507.40983005625037,510.01056516295165 504.319660112501,500.50000000000006 507.4098300562506,490.9894348370485 499.3196601125012,485.11158231412367 496.22949016875157,494.6221474770752" stroke="black" stroke-linecap="round" stroke-width="1" /><polyline clip-path="url(#border_clip)" fill="none" points="496.22949016875157,494.6221474770752 493.139320225002,504.13271264002674 485.04915028125254,498.2548601171018 495.0491502812526,498.254860117102 503.139320225002,504.13271264002685 511.22949016875157,498.2548601171022 503.13932022500217,492.37700759417737 495.04915028125276,486.4991550712525 503.13932022500234,480.62130254832783 500.0491502812527,490.13186771127937 491.95898033750314,496.009720234204 495.0491502812525,505.52028539715565 503.13932022500205,499.642432874231 511.2294901687517,493.7645803513064 514.319660112501,503.275145514258 506.22949016875157,497.39729299133313 503.1393202250022,487.8867278283815 493.1393202250022,487.8867278283813 496.22949016875157,497.39729299133296 499.31966011250086,506.90785815428455 489.31966011250086,506.9078581542844 497.4098300562504,501.03000563135976 507.4098300562505,501.0300056313599 510.5000000000001,491.51944046840845 500.50000000000006,491.5194404684083 490.50000000000006,491.5194404684081 493.5901699437497,482.00887530545657 496.68033988749903,491.5194404684082 493.59016994374934,501.0300056313597 501.68033988749875,506.9078581542846 504.77050983124843,497.3972929913331 507.86067977499806,487.8867278283816 515.9508497187475,493.76458035130645 505.95084971874746,493.7645803513063 497.86067977499806,487.88672782838137 489.77050983124843,493.764580351306 497.86067977499783,499.6424328742309 505.95084971874724,505.5202853971558 497.8606797749976,511.39813792008044 500.9508497187473,501.8875727571289 509.04101966249686,496.0097202342043 505.9508497187476,486.49915507125263 497.86067977499795,492.37700759417726" stroke="black" stroke-linecap="round" stroke-width="1" /><polyline clip-path="url(#border_clip)" fill="none" points="497.86067977499795,492.37700759417726 489.7705098312483,498.2548601171019 486.68033988749903,488.74429495415023 494.77050983124843,494.62214747707515 497.8606797749977,504.1327126400268 507.8606797749978,504.13271264002697 504.7705098312485,494.6221474770753 501.68033988749914,485.1115823141237 511.6803398874992,485.1115823141239 503.5901699437496,490.9894348370485 493.5901699437496,490.9894348370483 490.4999999999999,500.49999999999983 500.4999999999999,500.5 510.49999999999994,500.5000000000002 507.40983005625026,510.0105651629517 504.31966011250097,500.50000000000006 507.40983005625066,490.9894348370486 499.31966011250125,485.11158231412367 496.22949016875157,494.62214747707515 493.1393202250019,504.1327126400267 485.04915028125254,498.25486011710177 495.04915028125254,498.25486011710194 503.13932022500194,504.1327126400269 511.22949016875157,498.2548601171023 503.1393202250022,492.37700759417737 495.0491502812528,486.49915507125246 503.13932022500245,480.6213025483279 500.04915028125276,490.13186771127937 491.95898033750314,496.00972023420394 495.0491502812524,505.5202853971556 503.13932022500205,499.642432874231 511.2294901687517,493.76458035130645 514.319660112501,503.2751455142581 506.22949016875157,497.39729299133313 503.1393202250023,487.8867278283815 493.1393202250023,487.88672782838125 496.2294901687515,497.3972929913329 499.3196601125008,506.90785815428455 489.31966011250074,506.9078581542843 497.40983005625037,501.03000563135976 507.4098300562504,501.03000563136 510.50000000000017,491.5194404684085 500.5000000000001,491.5194404684083" stroke="black" stroke-linecap="round" stroke-width="1" /><polyline clip-path="url(#border_clip)" fill="none" points="500.5000000000001,491.5194404684083 490.50000000000006,491.51944046840805 493.59016994374974,482.0088753054565 496.68033988749903,491.51944046840816 493.59016994374934,501.0300056313597 501.6803398874987,506.9078581542846 504.77050983124843,497.39729299133313 507.8606797749981,487.8867278283816 515.9508497187475,493.76458035130656 505.95084971874746,493.76458035130634 497.86067977499806,487.88672782838137 489.77050983124843,493.76458035130594 497.8606797749978,499.6424328742309 505.9508497187472,505.5202853971559 497.8606797749975,511.3981379200804 500.95084971874724,501.8875727571289 509.04101966249686,496.00972023420434 505.95084971874763,486.4991550712527 497.86067977499795,492.37700759417726 489.7705098312483,498.25486011710177 486.6803398874991,488.7442949541501 494.77050983124843,494.6221474770751 497.86067977499766,504.13271264002674 507.8606797749977,504.132712640027 504.7705098312485,494.6221474770754 501.68033988749926,485.1115823141237 511.68033988749926,485.11158231412395 503.59016994374963,490.9894348370485 493.5901699437496,490.98943483704824 490.49999999999983,500.4999999999998 500.4999999999999,500.5" stroke="black" stroke-linecap="round" stroke-width="1" /></svg>