<?xml version="1.0" encoding="utf-8" ?>
<svg baseProfile="full" height="10000px" version="1.1" width="10000px" xmlns="http://www.w3.org/2000/svg" xmlns:ev="http://www.w3.org/2001/xml-events" xmlns:xlink="http://www.w3.org/1999/xlink"><defs><clipPath id="border_clip"><rect height="10000" width="10000" x="0" y="0" /></clipPath></defs><polyline clip-path="url(#border_clip)" fill="none" points="5000.5,5000.5 5010.5,5000.5 5020.5,5000.5 5017.409830056251,5010.010565162952 5014.319660112501,5000.5 5017.409830056251,4990.989434837048 5009.319660112501,4985.111582314124 5006.229490168752,4994.6221474770755 5003.139320225002,5004.1327126400265 4995.049150281253,4998.254860117102 5005.049150281253,4998.254860117102 5013.139320225002,5004.1327126400265 5021.229490168752,4998.254860117102 5013.139320225002,4992.3770075941775 5005.049150281253,4986.499155071253 5013.139320225002,4980.621302548328 5010.049150281253,4990.1318677112795 5001.958980337503,4996.009720234204 5005.049150281253,5005.520285397156 5013.139320225002,4999.6424328742305 5021.229490168752,4993.764580351306 5024.319660112501,5003.275145514258 5016.229490168752,4997.397292991333 5013.139320225002,4987.8867278283815 5003.139320225002,4987.8867278283815 5006.229490168752,4997.397292991333 5009.319660112501,5006.907858154284 4999.319660112501,5006.907858154284 5007.409830056251,5001.03000563136 5017.409830056251,5001.03000563136 5020.5,4991.519440468408 5010.5,4991.519440468408 5000.5,4991.519440468408 5003.59016994375,4982.008875305457 5006.680339887499,4991.519440468408 5003.590169943749,5001.03000563136 5011.680339887499,5006.907858154284 5014.770509831248,4997.397292991333 5017.860679774998,4987.8867278283815 5025.950849718747,4993.764580351306 5015.950849718747,4993.764580351306 5007.860679774998,4987.8867278283815 4999.770509831248,4993.764580351306" stroke="black" stroke-linecap="round" stroke-width="1" /><polyline clip-path="url(#border_clip)" fill="none" points="4999.770509831248,4993.764580351306 5007.860679774998,4999.6424328742305 5015.950849718747,5005.520285397156 5007.860679774998,5011.39813792008 5010.950849718747,5001.8875727571285 5019.041019662497,4996.009720234204 5015.950849718747,4986.499155071253 5007.860679774998,4992.3770075941775 4999.770509831248,4998.254860117102 4996.680339887499,4988.74429495415 5004.770509831248,4994.6221474770755 5007.860679774998,5004.1327126400265 5017.860679774998,5004.1327126400265 5014.770509831248,4994.6221474770755 5011.680339887499,4985.111582314124 5021.680339887499,4985.111582314124 5013.59016994375,4990.989434837048 5003.590169943749,4990.989434837048 5000.5,5000.5 5010.5,5000.5 5020.5,5000.5 5017.40983005625,5010.010565162952 5014.319660112501,5000.5 5017.409830056251,4990.989434837048 5009.319660112501,4985.111582314124 5006.229490168752,4994.6221474770755 5003.139320225002,5004.1327126400265 4995.049150281253,4998.254860117102 5005.049150281253,4998.254860117102 5013.139320225002,5004.1327126400265 5021.229490168752,4998.254860117102 5013.139320225002,4992.3770075941775 5005.049150281253,4986.499155071253 5013.139320225002,4980.621302548328 5010.049150281253,4990.1318677112795 5001.958980337503,4996.009720234204 5005.049150281253,5005.520285397156 5013.139320225002,4999.642432874231 5021.229490168752,4993.764580351306 5024.319660112501,5003.275145514258 5016.229490168752,4997.397292991333 5013.139320225002,4987.8867278283815 5003.139320225002,4987.8867278283815" stroke="black" stroke-linecap="round" stroke-width="1" /><polyline clip-path="url(#border_clip)" fill="none" points="5003.139320225002,4987.8867278283815 5006.229490168752,4997.397292991333 5009.319660112501,5006.907858154284 4999.319660112501,5006.907858154284 5007.40983005625,5001.03000563136 5017.409830056251,5001.03000563136 5020.5,4991.519440468408 5010.5,4991.519440468408 5000.5,4991.519440468408 5003.59016994375,4982.008875305457 5006.680339887499,4991.519440468408 5003.590169943749,5001.03000563136 5011.680339887499,5006.907858154284 5014.770509831248,4997.397292991333 5017.860679774998,4987.8867278283815 5025.950849718747,4993.764580351306 5015.950849718747,4993.764580351306 5007.860679774998,4987.8867278283815 4999.770509831248,4993.764580351306 5007.860679774998,4999.6424328742305 5015.950849718747,5005.520285397156 5007.860679774998,5011.39813792008 5010.950849718747,5001.8875727571285 5019.041019662497,4996.009720234204 5015.950849718747,4986.499155071253 5007.860679774998,4992.3770075941775 4999.770509831248,4998.254860117102 4996.680339887499,4988.74429495415 5004.770509831248,4994.6221474770755 5007.860679774998,5004.1327126400265 5017.860679774998,5004.1327126400265 5014.770509831248,4994.6221474770755 5011.680339887499,4985.111582314124 5021.680339887499,4985.111582314124 5013.59016994375,4990.989434837048 5003.590169943749,4990.989434837048 5000.5,5000.5 5010.5,5000.5 5020.5,5000.5 5017.40983005625,5010.010565162952 5014.319660112501,5000.5 5017.409830056251,4990.989434837049 5009.319660112501,4985.111582314124" stroke="black" stroke-linecap="round" stroke-width="1" /><polyline clip-path="url(#border_clip)" fill="none" points="5009.319660112501,4985.111582314124 5006.229490168752,4994.6221474770755 5003.139320225002,5004.1327126400265 4995.049150281253,4998.254860117102 5005.049150281253,4998.254860117102 5013.139320225002,5004.1327126400265 5021.229490168752,4998.254860117102 5013.139320225002,4992.3770075941775 5005.049150281253,4986.499155071252 5013.139320225002,4980.621302548328 5010.049150281253,4990.1318677112795 5001.958980337503,4996.009720234204 5005.049150281253,5005.520285397156 5013.139320225002,4999.642432874231 5021.229490168752,4993.764580351306 5024.319660112501,5003.275145514258 5016.229490168752,4997.397292991333 5013.139320225002,4987.8867278283815 5003.139320225002,4987.8867278283815 5006.229490168752,4997.3972929913325 5009.319660112501,5006.907858154284 4999.319660112501,5006.907858154284 5007.40983005625,5001.03000563136 5017.40983005625,5001.03000563136 5020.5,4991.519440468408 5010.5,4991.519440468408 5000.5,4991.519440468408 5003.59016994375,4982.008875305457 5006.680339887499,4991.519440468408 5003.590169943749,5001.03000563136 5011.680339887499,5006.907858154284 5014.770509831248,4997.397292991333 5017.860679774998,4987.8867278283815 5025.950849718747,4993.764580351307 5015.950849718747,4993.764580351306 5007.860679774998,4987.8867278283815 4999.770509831248,4993.764580351306 5007.860679774998,4999.6424328742305 5015.950849718747,5005.520285397156 5007.860679774997,5011.39813792008 5010.950849718747,5001.8875727571285 5019.041019662497,4996.009720234204 5015.950849718747,4986.499155071253" stroke="black" stroke-linecap="round" stroke-width="1" /><polyline clip-path="url(#border_clip)" fill="none" points="5015.950849718747,4986.499155071253 5007.860679774998,4992.3770075941775 4999.770509831248,4998.254860117102 4996.680339887499,4988.74429495415 5004.770509831248,4994.6221474770755 5007.860679774998,5004.1327126400265 5017.860679774998,5004.132712640027 5014.770509831248,4994.6221474770755 5011.680339887499,4985.111582314124 5021.680339887499,4985.111582314124 5013.59016994375,4990.989434837048 5003.59016994375,4990.989434837048 5000.5,5000.5 5010.5,5000.5 5020.5,5000.5 5017.40983005625,5010.010565162952 5014.319660112501,5000.5 5017.409830056251,4990.989434837049 5009.319660112501,4985.111582314124 5006.229490168752,4994.6221474770755 5003.139320225002,5004.1327126400265 4995.049150281253,4998.254860117102 5005.049150281253,4998.254860117102 5013.139320225002,5004.1327126400265 5021.229490168752,4998.254860117102 5013.139320225002,4992.3770075941775 5005.049150281253,4986.499155071252 5013.139320225003,4980.621302548328 5010.049150281253,4990.1318677112795 5001.958980337503,4996.009720234204 5005.049150281252,5005.520285397156 5013.139320225002,4999.642432874231 5021.229490168752,4993.764580351306 5024.319660112501,5003.275145514258 5016.229490168752,4997.397292991333 5013.139320225002,4987.8867278283815 5003.139320225002,4987.8867278283815 5006.229490168752,4997.3972929913325 5009.319660112501,5006.907858154284 4999.319660112501,5006.907858154284 5007.40983005625,5001.03000563136 5017.40983005625,5001.03000563136 5020.5,4991.519440468409" stroke="black" stroke-linecap="round" stroke-width="1" /><polyline clip-path="url(#border_clip)" fill="none" points="5020.5,4991.519440468409 5010.5,4991.519440468408 5000.5,4991.519440468408 5003.59016994375,4982.008875305457 5006.680339887499,4991.519440468408 5003.590169943749,5001.03000563136 5011.680339887499,5006.907858154284 5014.770509831248,4997.397292991333 5017.860679774998,4987.8867278283815 5025.950849718747,4993.764580351307 5015.950849718747,4993.764580351306 5007.860679774998,4987.8867278283815 4999.770509831248,4993.764580351306 5007.860679774998,4999.6424328742305 5015.950849718747,5005.520285397156 5007.860679774997,5011.39813792008 5010.950849718747,5001.8875727571285 5019.041019662497,4996.009720234204 5015.950849718748,4986.499155071253 5007.860679774998,4992.3770075941775 4999.770509831248,4998.254860117102 4996.680339887499,4988.74429495415 5004.770509831248,4994.6221474770755 5007.860679774998,5004.1327126400265 5017.860679774998,5004.132712640027 5014.770509831248,4994.6221474770755 5011.680339887499,4985.111582314124 5021.680339887499,4985.111582314124 5013.59016994375,4990.989434837048 5003.59016994375,4990.989434837048 5000.5,5000.5" stroke="black" stroke-linecap="round" stroke-width="1" /></svg>