<?xml version="1.0" encoding="UTF-8"?>
<svg width="1e4px" height="1e4px" baseProfile="full" version="1.1" viewBox="4969.6 4946.2 122.53 198.66" xmlns="http://www.w3.org/2000/svg">
<defs>
<clipPath id="a">
<rect width="1e4" height="1e4"/>
</clipPath>
</defs>
<polyline points="5000.5 5000.5 5010.5 5000.5 5020.5 5000.5 5030.5 5000.5 5027.4 5010 5024.3 5000.5 5016.2 5006.4 5024.3 5012.3 5016.2 5006.4 5019.3 4996.9 5027.4 5002.7 5019.3 5008.6 5011.2 5002.7 5021.2 5002.7 5024.3 4993.2 5021.2 5002.7 5013.1 5008.6 5021.2 5002.7 5011.2 5002.7 5003.1 5008.6 4993.1 5008.6 4990 4999.1 4987 5008.6 4978.9 5002.7 4975.8 5012.3 4983.9 5018.1 4980.8 5027.6 4988.9 5033.5 4985.8 5024 4982.7 5033.5 4990.8 5039.4 4982.7 5045.3 4992.7 5045.3 4995.8 5054.8 4998.9 5064.3 4995.8 5073.8 4998.9 5083.3 4990.8 5077.4 4982.7 5071.6 4979.6 5081.1 4976.5 5090.6 4979.6 5081.1 4969.6 5081.1" clip-path="url(#a)" fill="none" stroke="#000" stroke-linecap="round"/>
<polyline points="4969.6 5081.1 4977.7 5087 4980.8 5077.4 4977.7 5087 4980.8 5096.5 4988.9 5102.3 4985.8 5092.8 4988.9 5102.3 4992 5111.9 5e3 5106 5008.1 5111.9 5018.1 5111.9 5010 5117.7 5007 5108.2 5010 5098.7 5e3 5098.7 4997 5089.2 5e3 5079.7 4990 5079.7 4982 5085.6 4985 5095.1 4982 5104.6 4973.9 5098.7 4982 5092.8 4990 5087 5e3 5087 5008.1 5092.8 5016.2 5087 5008.1 5081.1 5018.1 5081.1 5010 5087 5020 5087 5028.1 5081.1 5025 5071.6 5015 5071.6 5007 5077.4 5015 5083.3 5007 5089.2 5017 5089.2 5027 5089.2 5018.9 5083.3 5027 5089.2 5023.9 5098.7" clip-path="url(#a)" fill="none" stroke="#000" stroke-linecap="round"/>
<polyline points="5023.9 5098.7 5020.8 5108.2 5023.9 5117.7 5020.8 5108.2 5010.8 5108.2 5018.9 5102.3 5022 5111.9 5030 5117.7 5022 5123.6 5030 5117.7 5022 5123.6 5018.9 5114.1 5008.9 5114.1 5018.9 5114.1 5027 5108.2 5037 5108.2 5047 5108.2 5050 5117.7 5058.1 5111.9 5068.1 5111.9 5060 5117.7 5050 5117.7 5058.1 5123.6 5048.1 5123.6 5058.1 5123.6 5050 5129.5 5060 5129.5 5063.1 5139 5055 5144.9 5063.1 5139 5053.1 5139 5045 5133.1 5055 5133.1 5063.1 5127.2 5071.2 5133.1 5074.3 5123.6 5066.2 5117.7 5058.1 5111.9 5068.1 5111.9 5076.2 5106 5084.3 5100.1 5081.2 5109.6 5071.2 5109.6" clip-path="url(#a)" fill="none" stroke="#000" stroke-linecap="round"/>
<polyline points="5071.2 5109.6 5074.3 5100.1 5077.4 5090.6 5069.3 5084.7 5061.2 5090.6 5051.2 5090.6 5041.2 5090.6 5031.2 5090.6 5034.3 5081.1 5037.4 5090.6 5045.5 5084.7 5037.4 5078.8 5045.5 5084.7 5042.4 5094.2 5034.3 5088.3 5042.4 5082.5 5050.5 5088.3 5040.5 5088.3 5037.4 5097.9 5040.5 5088.3 5048.6 5082.5 5040.5 5088.3 5050.5 5088.3 5058.6 5082.5 5068.6 5082.5 5071.7 5092 5074.8 5082.5 5082.9 5088.3 5086 5078.8 5077.9 5073 5081 5063.4 5072.9 5057.6 5076 5067.1 5079 5057.6 5071 5051.7 5079 5045.8 5069 5045.8 5066 5036.3 5062.9 5026.8 5066 5017.3 5062.9 5007.8 5071 5013.6 5079 5019.5" clip-path="url(#a)" fill="none" stroke="#000" stroke-linecap="round"/>
<polyline points="5079 5019.5 5082.1 5010 5085.2 5000.5 5082.1 5010 5092.1 5010 5084 5004.1 5081 5013.6 5084 5004.1 5081 4994.6 5072.9 4988.7 5076 4998.3 5072.9 4988.7 5069.8 4979.2 5061.7 4985.1 5053.6 4979.2 5043.6 4979.2 5051.7 4973.4 5054.8 4982.9 5051.7 4992.4 5061.7 4992.4 5064.8 5001.9 5061.7 5011.4 5071.7 5011.4 5079.8 5005.5 5076.7 4996 5079.8 4986.5 5087.9 4992.4 5079.8 4998.3 5071.7 5004.1 5061.7 5004.1 5053.6 4998.3 5045.5 5004.1 5053.6 5010 5043.6 5010 5051.7 5004.1 5041.7 5004.1 5033.6 5010 5036.7 5019.5 5046.7 5019.5 5054.8 5013.6 5046.7 5007.8 5054.8 5001.9 5044.8 5001.9" clip-path="url(#a)" fill="none" stroke="#000" stroke-linecap="round"/>
<polyline points="5044.8 5001.9 5034.8 5001.9 5042.9 5007.8 5034.8 5001.9 5037.9 4992.4 5041 4982.9 5037.9 4973.4 5041 4982.9 5051 4982.9 5042.9 4988.7 5039.8 4979.2 5031.7 4973.4 5039.8 4967.5 5031.7 4973.4 5039.8 4967.5 5042.9 4977 5052.9 4977 5042.9 4977 5034.8 4982.9 5024.8 4982.9 5014.8 4982.9 5011.7 4973.4 5003.6 4979.2 4993.6 4979.2 5001.7 4973.4 5011.7 4973.4 5003.6 4967.5 5013.6 4967.5 5003.6 4967.5 5011.7 4961.6 5001.7 4961.6 4998.6 4952.1 5006.7 4946.2 4998.6 4952.1 5008.6 4952.1 5016.7 4958 5006.7 4958 4998.6 4963.8 4990.5 4958 4987.4 4967.5 4995.5 4973.4 5003.6 4979.2 4993.6 4979.2" clip-path="url(#a)" fill="none" stroke="#000" stroke-linecap="round"/>
<polyline points="4993.6 4979.2 4985.5 4985.1 4977.4 4991 4980.5 4981.5 4990.5 4981.5 4987.4 4991 4984.3 5000.5 4992.4 5006.4 5000.5 5000.5 5010.5 5000.5 5020.5 5000.5 5030.5 5000.5 5027.4 5010 5024.3 5000.5 5016.2 5006.4 5024.3 5012.3 5016.2 5006.4 5019.3 4996.9 5027.4 5002.7 5019.3 5008.6 5011.2 5002.7 5021.2 5002.7 5024.3 4993.2 5021.2 5002.7 5013.1 5008.6 5021.2 5002.7 5011.2 5002.7 5003.1 5008.6 4993.1 5008.6 4990 4999.1 4987 5008.6 4978.9 5002.7 4975.8 5012.3 4983.9 5018.1 4980.8 5027.6 4988.9 5033.5 4985.8 5024 4982.7 5033.5 4990.8 5039.4 4982.7 5045.3 4992.7 5045.3 4995.8 5054.8 4998.9 5064.3" clip-path="url(#a)" fill="none" stroke="#000" stroke-linecap="round"/>
<polyline points="4998.9 5064.3 4995.8 5073.8 4998.9 5083.3 4990.8 5077.4 4982.7 5071.6 4979.6 5081.1 4976.5 5090.6 4979.6 5081.1 4969.6 5081.1 4977.7 5087 4980.8 5077.4 4977.7 5087 4980.8 5096.5 4988.9 5102.3 4985.8 5092.8 4988.9 5102.3 4992 5111.9 5e3 5106 5008.1 5111.9 5018.1 5111.9 5010 5117.7 5007 5108.2 5010 5098.7 5e3 5098.7 4997 5089.2 5e3 5079.7 4990 5079.7 4982 5085.6 4985 5095.1 4982 5104.6 4973.9 5098.7 4982 5092.8 4990 5087 5e3 5087 5008.1 5092.8 5016.2 5087 5008.1 5081.1 5018.1 5081.1 5010 5087 5020 5087 5028.1 5081.1 5025 5071.6 5015 5071.6" clip-path="url(#a)" fill="none" stroke="#000" stroke-linecap="round"/>
<polyline points="5015 5071.6 5007 5077.4 5015 5083.3 5007 5089.2 5017 5089.2 5027 5089.2 5018.9 5083.3 5027 5089.2 5023.9 5098.7 5020.8 5108.2 5023.9 5117.7 5020.8 5108.2 5010.8 5108.2 5018.9 5102.3 5022 5111.9 5030 5117.7 5022 5123.6 5030 5117.7 5022 5123.6 5018.9 5114.1 5008.9 5114.1 5018.9 5114.1 5027 5108.2 5037 5108.2 5047 5108.2 5050 5117.7 5058.1 5111.9 5068.1 5111.9 5060 5117.7 5050 5117.7 5058.1 5123.6 5048.1 5123.6 5058.1 5123.6 5050 5129.5 5060 5129.5 5063.1 5139 5055 5144.9 5063.1 5139 5053.1 5139 5045 5133.1 5055 5133.1 5063.1 5127.2 5071.2 5133.1" clip-path="url(#a)" fill="none" stroke="#000" stroke-linecap="round"/>
<polyline points="5071.2 5133.1 5074.3 5123.6 5066.2 5117.7 5058.1 5111.9 5068.1 5111.9 5076.2 5106 5084.3 5100.1 5081.2 5109.6 5071.2 5109.6 5074.3 5100.1 5077.4 5090.6 5069.3 5084.7 5061.2 5090.6 5051.2 5090.6 5041.2 5090.6 5031.2 5090.6 5034.3 5081.1 5037.4 5090.6 5045.5 5084.7 5037.4 5078.8 5045.5 5084.7 5042.4 5094.2 5034.3 5088.3 5042.4 5082.5 5050.5 5088.3 5040.5 5088.3 5037.4 5097.9 5040.5 5088.3 5048.6 5082.5 5040.5 5088.3 5050.5 5088.3 5058.6 5082.5 5068.6 5082.5 5071.7 5092 5074.8 5082.5 5082.9 5088.3 5086 5078.8 5077.9 5073 5081 5063.4 5072.9 5057.6 5076 5067.1 5079 5057.6 5071 5051.7" clip-path="url(#a)" fill="none" stroke="#000" stroke-linecap="round"/>
<polyline points="5071 5051.7 5079 5045.8 5069 5045.8 5066 5036.3 5062.9 5026.8 5066 5017.3 5062.9 5007.8 5071 5013.6 5079 5019.5 5082.1 5010 5085.2 5000.5 5082.1 5010 5092.1 5010 5084 5004.1 5081 5013.6 5084 5004.1 5081 4994.6 5072.9 4988.7 5076 4998.3 5072.9 4988.7 5069.8 4979.2 5061.7 4985.1 5053.6 4979.2 5043.6 4979.2 5051.7 4973.4 5054.8 4982.9 5051.7 4992.4 5061.7 4992.4 5064.8 5001.9 5061.7 5011.4 5071.7 5011.4 5079.8 5005.5 5076.7 4996 5079.8 4986.5 5087.9 4992.4 5079.8 4998.3 5071.7 5004.1 5061.7 5004.1 5053.6 4998.3 5045.5 5004.1 5053.6 5010 5043.6 5010 5051.7 5004.1" clip-path="url(#a)" fill="none" stroke="#000" stroke-linecap="round"/>
<polyline points="5051.7 5004.1 5041.7 5004.1 5033.6 5010 5036.7 5019.5 5046.7 5019.5 5054.8 5013.6 5046.7 5007.8 5054.8 5001.9 5044.8 5001.9 5034.8 5001.9 5042.9 5007.8 5034.8 5001.9 5037.9 4992.4 5041 4982.9 5037.9 4973.4 5041 4982.9 5051 4982.9 5042.9 4988.7 5039.8 4979.2 5031.7 4973.4 5039.8 4967.5 5031.7 4973.4 5039.8 4967.5 5042.9 4977 5052.9 4977 5042.9 4977 5034.8 4982.9 5024.8 4982.9 5014.8 4982.9 5011.7 4973.4 5003.6 4979.2 4993.6 4979.2 5001.7 4973.4 5011.7 4973.4 5003.6 4967.5 5013.6 4967.5 5003.6 4967.5 5011.7 4961.6 5001.7 4961.6 4998.6 4952.1 5006.7 4946.2 4998.6 4952.1 5008.6 4952.1" clip-path="url(#a)" fill="none" stroke="#000" stroke-linecap="round"/>
<polyline points="5008.6 4952.1 5016.7 4958 5006.7 4958 4998.6 4963.8 4990.5 4958 4987.4 4967.5 4995.5 4973.4 5003.6 4979.2 4993.6 4979.2 4985.5 4985.1 4977.4 4991 4980.5 4981.5 4990.5 4981.5 4987.4 4991 4984.3 5000.5 4992.4 5006.4 5000.5 5000.5 5010.5 5000.5 5020.5 5000.5 5030.5 5000.5 5027.4 5010 5024.3 5000.5 5016.2 5006.4 5024.3 5012.3 5016.2 5006.4 5019.3 4996.9 5027.4 5002.7 5019.3 5008.6 5011.2 5002.7 5021.2 5002.7 5024.3 4993.2 5021.2 5002.7 5013.1 5008.6 5021.2 5002.7 5011.2 5002.7 5003.1 5008.6 4993.1 5008.6 4990 4999.1 4987 5008.6 4978.9 5002.7 4975.8 5012.3 4983.9 5018.1 4980.8 5027.6" clip-path="url(#a)" fill="none" stroke="#000" stroke-linecap="round"/>
<polyline points="4980.8 5027.6 4988.9 5033.5 4985.8 5024 4982.7 5033.5 4990.8 5039.4 4982.7 5045.3 4992.7 5045.3 4995.8 5054.8 4998.9 5064.3 4995.8 5073.8 4998.9 5083.3 4990.8 5077.4 4982.7 5071.6 4979.6 5081.1 4976.5 5090.6 4979.6 5081.1 4969.6 5081.1 4977.7 5087 4980.8 5077.4 4977.7 5087 4980.8 5096.5 4988.9 5102.3 4985.8 5092.8 4988.9 5102.3 4992 5111.9 5e3 5106 5008.1 5111.9 5018.1 5111.9 5010 5117.7 5007 5108.2 5010 5098.7 5e3 5098.7 4997 5089.2 5e3 5079.7 4990 5079.7 4982 5085.6 4985 5095.1 4982 5104.6 4973.9 5098.7 4982 5092.8 4990 5087 5e3 5087 5008.1 5092.8" clip-path="url(#a)" fill="none" stroke="#000" stroke-linecap="round"/>
<polyline points="5008.1 5092.8 5016.2 5087 5008.1 5081.1 5018.1 5081.1 5010 5087 5020 5087 5028.1 5081.1 5025 5071.6 5015 5071.6 5007 5077.4 5015 5083.3 5007 5089.2 5017 5089.2 5027 5089.2 5018.9 5083.3 5027 5089.2 5023.9 5098.7 5020.8 5108.2 5023.9 5117.7 5020.8 5108.2 5010.8 5108.2 5018.9 5102.3 5022 5111.9 5030 5117.7 5022 5123.6 5030 5117.7 5022 5123.6 5018.9 5114.1 5008.9 5114.1 5018.9 5114.1 5027 5108.2 5037 5108.2 5047 5108.2 5050 5117.7 5058.1 5111.9 5068.1 5111.9 5060 5117.7 5050 5117.7 5058.1 5123.6 5048.1 5123.6 5058.1 5123.6 5050 5129.5 5060 5129.5" clip-path="url(#a)" fill="none" stroke="#000" stroke-linecap="round"/>
<polyline points="5060 5129.5 5063.1 5139 5055 5144.9 5063.1 5139 5053.1 5139 5045 5133.1 5055 5133.1 5063.1 5127.2 5071.2 5133.1 5074.3 5123.6 5066.2 5117.7 5058.1 5111.9 5068.1 5111.9 5076.2 5106 5084.3 5100.1 5081.2 5109.6 5071.2 5109.6 5074.3 5100.1 5077.4 5090.6 5069.3 5084.7 5061.2 5090.6 5051.2 5090.6 5041.2 5090.6 5031.2 5090.6 5034.3 5081.1 5037.4 5090.6 5045.5 5084.7 5037.4 5078.8 5045.5 5084.7 5042.4 5094.2 5034.3 5088.3 5042.4 5082.5 5050.5 5088.3 5040.5 5088.3 5037.4 5097.9 5040.5 5088.3 5048.6 5082.5 5040.5 5088.3 5050.5 5088.3 5058.6 5082.5 5068.6 5082.5 5071.7 5092 5074.8 5082.5" clip-path="url(#a)" fill="none" stroke="#000" stroke-linecap="round"/>
<polyline points="5074.8 5082.5 5082.9 5088.3 5086 5078.8 5077.9 5073 5081 5063.4 5072.9 5057.6 5076 5067.1 5079 5057.6 5071 5051.7 5079 5045.8 5069 5045.8 5066 5036.3 5062.9 5026.8 5066 5017.3 5062.9 5007.8 5071 5013.6 5079 5019.5 5082.1 5010 5085.2 5000.5 5082.1 5010 5092.1 5010 5084 5004.1 5081 5013.6 5084 5004.1 5081 4994.6 5072.9 4988.7 5076 4998.3 5072.9 4988.7 5069.8 4979.2 5061.7 4985.1 5053.6 4979.2 5043.6 4979.2 5051.7 4973.4 5054.8 4982.9 5051.7 4992.4 5061.7 4992.4 5064.8 5001.9 5061.7 5011.4 5071.7 5011.4 5079.8 5005.5 5076.7 4996 5079.8 4986.5 5087.9 4992.4" clip-path="url(#a)" fill="none" stroke="#000" stroke-linecap="round"/>
<polyline points="5087.9 4992.4 5079.8 4998.3 5071.7 5004.1 5061.7 5004.1 5053.6 4998.3 5045.5 5004.1 5053.6 5010 5043.6 5010 5051.7 5004.1 5041.7 5004.1 5033.6 5010 5036.7 5019.5 5046.7 5019.5 5054.8 5013.6 5046.7 5007.8 5054.8 5001.9 5044.8 5001.9 5034.8 5001.9 5042.9 5007.8 5034.8 5001.9 5037.9 4992.4 5041 4982.9 5037.9 4973.4 5041 4982.9 5051 4982.9 5042.9 4988.7 5039.8 4979.2 5031.7 4973.4 5039.8 4967.5 5031.7 4973.4 5039.8 4967.5 5042.9 4977 5052.9 4977 5042.9 4977 5034.8 4982.9 5024.8 4982.9 5014.8 4982.9 5011.7 4973.4 5003.6 4979.2 4993.6 4979.2 5001.7 4973.4 5011.7 4973.4 5003.6 4967.5" clip-path="url(#a)" fill="none" stroke="#000" stroke-linecap="round"/>
<polyline points="5003.6 4967.5 5013.6 4967.5 5003.6 4967.5 5011.7 4961.6 5001.7 4961.6 4998.6 4952.1 5006.7 4946.2 4998.6 4952.1 5008.6 4952.1 5016.7 4958 5006.7 4958 4998.6 4963.8 4990.5 4958 4987.4 4967.5 4995.5 4973.4 5003.6 4979.2 4993.6 4979.2 4985.5 4985.1 4977.4 4991 4980.5 4981.5 4990.5 4981.5 4987.4 4991 4984.3 5000.5 4992.4 5006.4 5000.5 5000.5 5010.5 5000.5 5020.5 5000.5 5030.5 5000.5 5027.4 5010 5024.3 5000.5 5016.2 5006.4 5024.3 5012.3 5016.2 5006.4 5019.3 4996.9 5027.4 5002.7 5019.3 5008.6 5011.2 5002.7 5021.2 5002.7 5024.3 4993.2 5021.2 5002.7 5013.1 5008.6 5021.2 5002.7 5011.2 5002.7" clip-path="url(#a)" fill="none" stroke="#000" stroke-linecap="round"/>
<polyline points="5011.2 5002.7 5003.1 5008.6 4993.1 5008.6 4990 4999.1 4987 5008.6 4978.9 5002.7 4975.8 5012.3 4983.9 5018.1 4980.8 5027.6 4988.9 5033.5 4985.8 5024 4982.7 5033.5 4990.8 5039.4 4982.7 5045.3 4992.7 5045.3 4995.8 5054.8 4998.9 5064.3 4995.8 5073.8 4998.9 5083.3 4990.8 5077.4 4982.7 5071.6 4979.6 5081.1 4976.5 5090.6 4979.6 5081.1 4969.6 5081.1 4977.7 5087 4980.8 5077.4 4977.7 5087 4980.8 5096.5 4988.9 5102.3 4985.8 5092.8 4988.9 5102.3 4992 5111.9 5e3 5106 5008.1 5111.9 5018.1 5111.9 5010 5117.7 5007 5108.2 5010 5098.7 5e3 5098.7 4997 5089.2 5e3 5079.7 4990 5079.7" clip-path="url(#a)" fill="none" stroke="#000" stroke-linecap="round"/>
<polyline points="4990 5079.7 4982 5085.6 4985 5095.1 4982 5104.6 4973.9 5098.7 4982 5092.8 4990 5087 5e3 5087 5008.1 5092.8 5016.2 5087 5008.1 5081.1 5018.1 5081.1 5010 5087 5020 5087 5028.1 5081.1 5025 5071.6 5015 5071.6 5007 5077.4 5015 5083.3 5007 5089.2 5017 5089.2 5027 5089.2 5018.9 5083.3 5027 5089.2 5023.9 5098.7 5020.8 5108.2 5023.9 5117.7 5020.8 5108.2 5010.8 5108.2 5018.9 5102.3 5022 5111.9 5030 5117.7 5022 5123.6 5030 5117.7 5022 5123.6 5018.9 5114.1 5008.9 5114.1 5018.9 5114.1 5027 5108.2 5037 5108.2 5047 5108.2 5050 5117.7 5058.1 5111.9" clip-path="url(#a)" fill="none" stroke="#000" stroke-linecap="round"/>
<polyline points="5058.1 5111.9 5068.1 5111.9 5060 5117.7 5050 5117.7 5058.1 5123.6 5048.1 5123.6 5058.1 5123.6 5050 5129.5 5060 5129.5 5063.1 5139 5055 5144.9 5063.1 5139 5053.1 5139 5045 5133.1 5055 5133.1 5063.1 5127.2 5071.2 5133.1 5074.3 5123.6 5066.2 5117.7 5058.1 5111.9 5068.1 5111.9 5076.2 5106 5084.3 5100.1 5081.2 5109.6 5071.2 5109.6 5074.3 5100.1 5077.4 5090.6 5069.3 5084.7 5061.2 5090.6 5051.2 5090.6 5041.2 5090.6 5031.2 5090.6 5034.3 5081.1 5037.4 5090.6 5045.5 5084.7 5037.4 5078.8 5045.5 5084.7 5042.4 5094.2 5034.3 5088.3 5042.4 5082.5 5050.5 5088.3 5040.5 5088.3 5037.4 5097.9" clip-path="url(#a)" fill="none" stroke="#000" stroke-linecap="round"/>
<polyline points="5037.4 5097.9 5040.5 5088.3 5048.6 5082.5 5040.5 5088.3 5050.5 5088.3 5058.6 5082.5 5068.6 5082.5 5071.7 5092 5074.8 5082.5 5082.9 5088.3 5086 5078.8 5077.9 5073 5081 5063.4 5072.9 5057.6 5076 5067.1 5079 5057.6 5071 5051.7 5079 5045.8 5069 5045.8 5066 5036.3 5062.9 5026.8 5066 5017.3 5062.9 5007.8 5071 5013.6 5079 5019.5 5082.1 5010 5085.2 5000.5 5082.1 5010 5092.1 5010 5084 5004.1 5081 5013.6 5084 5004.1 5081 4994.6 5072.9 4988.7 5076 4998.3 5072.9 4988.7 5069.8 4979.2 5061.7 4985.1 5053.6 4979.2 5043.6 4979.2 5051.7 4973.4 5054.8 4982.9 5051.7 4992.4" clip-path="url(#a)" fill="none" stroke="#000" stroke-linecap="round"/>
<polyline points="5051.7 4992.4 5061.7 4992.4 5064.8 5001.9 5061.7 5011.4 5071.7 5011.4 5079.8 5005.5 5076.7 4996 5079.8 4986.5 5087.9 4992.4 5079.8 4998.3 5071.7 5004.1 5061.7 5004.1 5053.6 4998.3 5045.5 5004.1 5053.6 5010 5043.6 5010 5051.7 5004.1 5041.7 5004.1 5033.6 5010 5036.7 5019.5 5046.7 5019.5 5054.8 5013.6 5046.7 5007.8 5054.8 5001.9 5044.8 5001.9 5034.8 5001.9 5042.9 5007.8 5034.8 5001.9 5037.9 4992.4 5041 4982.9 5037.9 4973.4 5041 4982.9 5051 4982.9 5042.9 4988.7 5039.8 4979.2 5031.7 4973.4 5039.8 4967.5 5031.7 4973.4 5039.8 4967.5 5042.9 4977 5052.9 4977 5042.9 4977 5034.8 4982.9" clip-path="url(#a)" fill="none" stroke="#000" stroke-linecap="round"/>
<polyline points="5034.8 4982.9 5024.8 4982.9 5014.8 4982.9 5011.7 4973.4 5003.6 4979.2 4993.6 4979.2 5001.7 4973.4 5011.7 4973.4 5003.6 4967.5 5013.6 4967.5 5003.6 4967.5 5011.7 4961.6 5001.7 4961.6 4998.6 4952.1 5006.7 4946.2 4998.6 4952.1 5008.6 4952.1 5016.7 4958 5006.7 4958 4998.6 4963.8 4990.5 4958 4987.4 4967.5 4995.5 4973.4 5003.6 4979.2 4993.6 4979.2 4985.5 4985.1 4977.4 4991 4980.5 4981.5 4990.5 4981.5 4987.4 4991 4984.3 5000.5 4992.4 5006.4 5000.5 5000.5 5010.5 5000.5 5020.5 5000.5 5030.5 5000.5 5027.4 5010 5024.3 5000.5 5016.2 5006.4 5024.3 5012.3 5016.2 5006.4 5019.3 4996.9 5027.4 5002.7" clip-path="url(#a)" fill="none" stroke="#000" stroke-linecap="round"/>
<polyline points="5027.4 5002.7 5019.3 5008.6 5011.2 5002.7 5021.2 5002.7 5024.3 4993.2 5021.2 5002.7 5013.1 5008.6 5021.2 5002.7 5011.2 5002.7 5003.1 5008.6 4993.1 5008.6 4990 4999.1 4987 5008.6 4978.9 5002.7 4975.8 5012.3 4983.9 5018.1 4980.8 5027.6 4988.9 5033.5 4985.8 5024 4982.7 5033.5 4990.8 5039.4 4982.7 5045.3 4992.7 5045.3 4995.8 5054.8 4998.9 5064.3 4995.8 5073.8 4998.9 5083.3 4990.8 5077.4 4982.7 5071.6 4979.6 5081.1 4976.5 5090.6 4979.6 5081.1 4969.6 5081.1 4977.7 5087 4980.8 5077.4 4977.7 5087 4980.8 5096.5 4988.9 5102.3 4985.8 5092.8 4988.9 5102.3 4992 5111.9 5e3 5106 5008.1 5111.9" clip-path="url(#a)" fill="none" stroke="#000" stroke-linecap="round"/>
<polyline points="5008.1 5111.9 5018.1 5111.9 5010 5117.7 5007 5108.2 5010 5098.7 5e3 5098.7 4997 5089.2 5e3 5079.7 4990 5079.7 4982 5085.6 4985 5095.1 4982 5104.6 4973.9 5098.7 4982 5092.8 4990 5087 5e3 5087 5008.1 5092.8 5016.2 5087 5008.1 5081.1 5018.1 5081.1 5010 5087 5020 5087 5028.1 5081.1 5025 5071.6 5015 5071.6 5007 5077.4 5015 5083.3 5007 5089.2 5017 5089.2 5027 5089.2 5018.9 5083.3 5027 5089.2 5023.9 5098.7 5020.8 5108.2 5023.9 5117.7 5020.8 5108.2 5010.8 5108.2 5018.9 5102.3 5022 5111.9 5030 5117.7 5022 5123.6 5030 5117.7 5022 5123.6" clip-path="url(#a)" fill="none" stroke="#000" stroke-linecap="round"/>
<polyline points="5022 5123.6 5018.9 5114.1 5008.9 5114.1 5018.9 5114.1 5027 5108.2 5037 5108.2 5047 5108.2 5050 5117.7 5058.1 5111.9 5068.1 5111.9 5060 5117.7 5050 5117.7 5058.1 5123.6 5048.1 5123.6 5058.1 5123.6 5050 5129.5 5060 5129.5 5063.1 5139 5055 5144.9 5063.1 5139 5053.1 5139 5045 5133.1 5055 5133.1 5063.1 5127.2 5071.2 5133.1 5074.3 5123.6 5066.2 5117.7 5058.1 5111.9 5068.1 5111.9 5076.2 5106 5084.3 5100.1 5081.2 5109.6 5071.2 5109.6 5074.3 5100.1 5077.4 5090.6 5069.3 5084.7 5061.2 5090.6 5051.2 5090.6 5041.2 5090.6 5031.2 5090.6 5034.3 5081.1 5037.4 5090.6 5045.5 5084.7" clip-path="url(#a)" fill="none" stroke="#000" stroke-linecap="round"/>
<polyline points="5045.5 5084.7 5037.4 5078.8 5045.5 5084.7 5042.4 5094.2 5034.3 5088.3 5042.4 5082.5 5050.5 5088.3 5040.5 5088.3 5037.4 5097.9 5040.5 5088.3 5048.6 5082.5 5040.5 5088.3 5050.5 5088.3 5058.6 5082.5 5068.6 5082.5 5071.7 5092 5074.8 5082.5 5082.9 5088.3 5086 5078.8 5077.9 5073 5081 5063.4 5072.9 5057.6 5076 5067.1 5079 5057.6 5071 5051.7 5079 5045.8 5069 5045.8 5066 5036.3 5062.9 5026.8 5066 5017.3 5062.9 5007.8 5071 5013.6 5079 5019.5 5082.1 5010 5085.2 5000.5 5082.1 5010 5092.1 5010 5084 5004.1 5081 5013.6 5084 5004.1 5081 4994.6 5072.9 4988.7 5076 4998.3" clip-path="url(#a)" fill="none" stroke="#000" stroke-linecap="round"/>
<polyline points="5076 4998.3 5072.9 4988.7 5069.8 4979.2 5061.7 4985.1 5053.6 4979.2 5043.6 4979.2 5051.7 4973.4 5054.8 4982.9 5051.7 4992.4 5061.7 4992.4 5064.8 5001.9 5061.7 5011.4 5071.7 5011.4 5079.8 5005.5 5076.7 4996 5079.8 4986.5 5087.9 4992.4 5079.8 4998.3 5071.7 5004.1 5061.7 5004.1 5053.6 4998.3 5045.5 5004.1 5053.6 5010 5043.6 5010 5051.7 5004.1 5041.7 5004.1 5033.6 5010 5036.7 5019.5 5046.7 5019.5 5054.8 5013.6 5046.7 5007.8 5054.8 5001.9 5044.8 5001.9 5034.8 5001.9 5042.9 5007.8 5034.8 5001.9 5037.9 4992.4 5041 4982.9 5037.9 4973.4 5041 4982.9 5051 4982.9 5042.9 4988.7 5039.8 4979.2" clip-path="url(#a)" fill="none" stroke="#000" stroke-linecap="round"/>
<polyline points="5039.8 4979.2 5031.7 4973.4 5039.8 4967.5 5031.7 4973.4 5039.8 4967.5 5042.9 4977 5052.9 4977 5042.9 4977 5034.8 4982.9 5024.8 4982.9 5014.8 4982.9 5011.7 4973.4 5003.6 4979.2 4993.6 4979.2 5001.7 4973.4 5011.7 4973.4 5003.6 4967.5 5013.6 4967.5 5003.6 4967.5 5011.7 4961.6 5001.7 4961.6 4998.6 4952.1 5006.7 4946.2 4998.6 4952.1 5008.6 4952.1 5016.7 4958 5006.7 4958 4998.6 4963.8 4990.5 4958 4987.4 4967.5 4995.5 4973.4 5003.6 4979.2 4993.6 4979.2 4985.5 4985.1 4977.4 4991 4980.5 4981.5 4990.5 4981.5 4987.4 4991 4984.3 5000.5 4992.4 5006.4 5000.5 5000.5 5010.5 5000.5 5020.5 5000.5" clip-path="url(#a)" fill="none" stroke="#000" stroke-linecap="round"/>
<polyline points="5020.5 5000.5 5030.5 5000.5 5027.4 5010 5024.3 5000.5 5016.2 5006.4 5024.3 5012.3 5016.2 5006.4 5019.3 4996.9 5027.4 5002.7 5019.3 5008.6 5011.2 5002.7 5021.2 5002.7 5024.3 4993.2 5021.2 5002.7 5013.1 5008.6 5021.2 5002.7 5011.2 5002.7 5003.1 5008.6 4993.1 5008.6 4990 4999.1 4987 5008.6 4978.9 5002.7 4975.8 5012.3 4983.9 5018.1 4980.8 5027.6 4988.9 5033.5 4985.8 5024 4982.7 5033.5 4990.8 5039.4 4982.7 5045.3 4992.7 5045.3 4995.8 5054.8 4998.9 5064.3 4995.8 5073.8 4998.9 5083.3 4990.8 5077.4 4982.7 5071.6 4979.6 5081.1 4976.5 5090.6 4979.6 5081.1 4969.6 5081.1 4977.7 5087 4980.8 5077.4" clip-path="url(#a)" fill="none" stroke="#000" stroke-linecap="round"/>
<polyline points="4980.8 5077.4 4977.7 5087 4980.8 5096.5 4988.9 5102.3 4985.8 5092.8 4988.9 5102.3 4992 5111.9 5e3 5106 5008.1 5111.9 5018.1 5111.9 5010 5117.7 5007 5108.2 5010 5098.7 5e3 5098.7 4997 5089.2 5e3 5079.7 4990 5079.7 4982 5085.6 4985 5095.1 4982 5104.6 4973.9 5098.7 4982 5092.8 4990 5087 5e3 5087 5008.1 5092.8 5016.2 5087 5008.1 5081.1 5018.1 5081.1 5010 5087 5020 5087 5028.1 5081.1 5025 5071.6 5015 5071.6 5007 5077.4 5015 5083.3 5007 5089.2 5017 5089.2 5027 5089.2 5018.9 5083.3 5027 5089.2 5023.9 5098.7 5020.8 5108.2 5023.9 5117.7" clip-path="url(#a)" fill="none" stroke="#000" stroke-linecap="round"/>
<polyline points="5023.9 5117.7 5020.8 5108.2 5010.8 5108.2 5018.9 5102.3 5022 5111.9 5030 5117.7 5022 5123.6 5030 5117.7 5022 5123.6 5018.9 5114.1 5008.9 5114.1 5018.9 5114.1 5027 5108.2 5037 5108.2 5047 5108.2 5050 5117.7 5058.1 5111.9 5068.1 5111.9 5060 5117.7 5050 5117.7 5058.1 5123.6 5048.1 5123.6 5058.1 5123.6 5050 5129.5 5060 5129.5 5063.1 5139 5055 5144.9 5063.1 5139 5053.1 5139 5045 5133.1 5055 5133.1 5063.1 5127.2 5071.2 5133.1 5074.3 5123.6 5066.2 5117.7 5058.1 5111.9 5068.1 5111.9 5076.2 5106 5084.3 5100.1 5081.2 5109.6 5071.2 5109.6 5074.3 5100.1 5077.4 5090.6" clip-path="url(#a)" fill="none" stroke="#000" stroke-linecap="round"/>
<polyline points="5077.4 5090.6 5069.3 5084.7 5061.2 5090.6 5051.2 5090.6 5041.2 5090.6 5031.2 5090.6 5034.3 5081.1 5037.4 5090.6 5045.5 5084.7 5037.4 5078.8 5045.5 5084.7 5042.4 5094.2 5034.3 5088.3 5042.4 5082.5 5050.5 5088.3 5040.5 5088.3 5037.4 5097.9 5040.5 5088.3 5048.6 5082.5 5040.5 5088.3 5050.5 5088.3 5058.6 5082.5 5068.6 5082.5 5071.7 5092 5074.8 5082.5 5082.9 5088.3 5086 5078.8 5077.9 5073 5081 5063.4 5072.9 5057.6 5076 5067.1 5079 5057.6 5071 5051.7 5079 5045.8 5069 5045.8 5066 5036.3 5062.9 5026.8 5066 5017.3 5062.9 5007.8 5071 5013.6 5079 5019.5 5082.1 5010 5085.2 5000.5" clip-path="url(#a)" fill="none" stroke="#000" stroke-linecap="round"/>
<polyline points="5085.2 5000.5 5082.1 5010 5092.1 5010 5084 5004.1 5081 5013.6 5084 5004.1 5081 4994.6 5072.9 4988.7 5076 4998.3 5072.9 4988.7 5069.8 4979.2 5061.7 4985.1 5053.6 4979.2 5043.6 4979.2 5051.7 4973.4 5054.8 4982.9 5051.7 4992.4 5061.7 4992.4 5064.8 5001.9 5061.7 5011.4 5071.7 5011.4 5079.8 5005.5 5076.7 4996 5079.8 4986.5 5087.9 4992.4 5079.8 4998.3 5071.7 5004.1 5061.7 5004.1 5053.6 4998.3 5045.5 5004.1 5053.6 5010 5043.6 5010 5051.7 5004.1 5041.7 5004.1 5033.6 5010 5036.7 5019.5 5046.7 5019.5 5054.8 5013.6 5046.7 5007.8 5054.8 5001.9 5044.8 5001.9 5034.8 5001.9 5042.9 5007.8" clip-path="url(#a)" fill="none" stroke="#000" stroke-linecap="round"/>
<polyline points="5042.9 5007.8 5034.8 5001.9 5037.9 4992.4 5041 4982.9 5037.9 4973.4 5041 4982.9 5051 4982.9 5042.9 4988.7 5039.8 4979.2 5031.7 4973.4 5039.8 4967.5 5031.7 4973.4 5039.8 4967.5 5042.9 4977 5052.9 4977 5042.9 4977 5034.8 4982.9 5024.8 4982.9 5014.8 4982.9 5011.7 4973.4 5003.6 4979.2 4993.6 4979.2 5001.7 4973.4 5011.7 4973.4 5003.6 4967.5 5013.6 4967.5 5003.6 4967.5 5011.7 4961.6 5001.7 4961.6 4998.6 4952.1 5006.7 4946.2 4998.6 4952.1 5008.6 4952.1 5016.7 4958 5006.7 4958 4998.6 4963.8 4990.5 4958 4987.4 4967.5 4995.5 4973.4 5003.6 4979.2 4993.6 4979.2 4985.5 4985.1 4977.4 4991" clip-path="url(#a)" fill="none" stroke="#000" stroke-linecap="round"/>
<polyline points="4977.4 4991 4980.5 4981.5 4990.5 4981.5 4987.4 4991 4984.3 5000.5 4992.4 5006.4 5000.5 5000.5 5010.5 5000.5 5020.5 5000.5 5030.5 5000.5 5027.4 5010 5024.3 5000.5 5016.2 5006.4 5024.3 5012.3 5016.2 5006.4 5019.3 4996.9 5027.4 5002.7 5019.3 5008.6 5011.2 5002.7 5021.2 5002.7 5024.3 4993.2 5021.2 5002.7 5013.1 5008.6 5021.2 5002.7 5011.2 5002.7 5003.1 5008.6 4993.1 5008.6 4990 4999.1 4987 5008.6 4978.9 5002.7 4975.8 5012.3 4983.9 5018.1 4980.8 5027.6 4988.9 5033.5 4985.8 5024 4982.7 5033.5 4990.8 5039.4 4982.7 5045.3 4992.7 5045.3 4995.8 5054.8 4998.9 5064.3 4995.8 5073.8 4998.9 5083.3" clip-path="url(#a)" fill="none" stroke="#000" stroke-linecap="round"/>
<polyline points="4998.9 5083.3 4990.8 5077.4 4982.7 5071.6 4979.6 5081.1 4976.5 5090.6 4979.6 5081.1 4969.6 5081.1 4977.7 5087 4980.8 5077.4 4977.7 5087 4980.8 5096.5 4988.9 5102.3 4985.8 5092.8 4988.9 5102.3 4992 5111.9 5e3 5106 5008.1 5111.9 5018.1 5111.9 5010 5117.7 5007 5108.2 5010 5098.7 5e3 5098.7 4997 5089.2 5e3 5079.7 4990 5079.7 4982 5085.6 4985 5095.1 4982 5104.6 4973.9 5098.7 4982 5092.8 4990 5087 5e3 5087 5008.1 5092.8 5016.2 5087 5008.1 5081.1 5018.1 5081.1 5010 5087 5020 5087 5028.1 5081.1 5025 5071.6 5015 5071.6 5007 5077.4 5015 5083.3" clip-path="url(#a)" fill="none" stroke="#000" stroke-linecap="round"/>
<polyline points="5015 5083.3 5007 5089.2 5017 5089.2 5027 5089.2 5018.9 5083.3 5027 5089.2 5023.9 5098.7 5020.8 5108.2 5023.9 5117.7 5020.8 5108.2 5010.8 5108.2 5018.9 5102.3 5022 5111.9 5030 5117.7 5022 5123.6 5030 5117.7 5022 5123.6 5018.9 5114.1 5008.9 5114.1 5018.9 5114.1 5027 5108.2 5037 5108.2 5047 5108.2 5050 5117.7 5058.1 5111.9 5068.1 5111.9 5060 5117.7 5050 5117.7 5058.1 5123.6 5048.1 5123.6 5058.1 5123.6 5050 5129.5 5060 5129.5 5063.1 5139 5055 5144.9 5063.1 5139 5053.1 5139 5045 5133.1 5055 5133.1 5063.1 5127.2 5071.2 5133.1 5074.3 5123.6 5066.2 5117.7" clip-path="url(#a)" fill="none" stroke="#000" stroke-linecap="round"/>
<polyline points="5066.2 5117.7 5058.1 5111.9 5068.1 5111.9 5076.2 5106 5084.3 5100.1 5081.2 5109.6 5071.2 5109.6 5074.3 5100.1 5077.4 5090.6 5069.3 5084.7 5061.2 5090.6 5051.2 5090.6 5041.2 5090.6 5031.2 5090.6 5034.3 5081.1 5037.4 5090.6 5045.5 5084.7 5037.4 5078.8 5045.5 5084.7 5042.4 5094.2 5034.3 5088.3 5042.4 5082.5 5050.5 5088.3 5040.5 5088.3 5037.4 5097.9 5040.5 5088.3 5048.6 5082.5 5040.5 5088.3 5050.5 5088.3 5058.6 5082.5 5068.6 5082.5 5071.7 5092 5074.8 5082.5 5082.9 5088.3 5086 5078.8 5077.9 5073 5081 5063.4 5072.9 5057.6 5076 5067.1 5079 5057.6 5071 5051.7 5079 5045.8 5069 5045.8" clip-path="url(#a)" fill="none" stroke="#000" stroke-linecap="round"/>
<polyline points="5069 5045.8 5066 5036.3 5062.9 5026.8 5066 5017.3 5062.9 5007.8 5071 5013.6 5079 5019.5 5082.1 5010 5085.2 5000.5 5082.1 5010 5092.1 5010 5084 5004.1 5081 5013.6 5084 5004.1 5081 4994.6 5072.9 4988.7 5076 4998.3 5072.9 4988.7 5069.8 4979.2 5061.7 4985.1 5053.6 4979.2 5043.6 4979.2 5051.7 4973.4 5054.8 4982.9 5051.7 4992.4 5061.7 4992.4 5064.8 5001.9 5061.7 5011.4 5071.7 5011.4 5079.8 5005.5 5076.7 4996 5079.8 4986.5 5087.9 4992.4 5079.8 4998.3 5071.7 5004.1 5061.7 5004.1 5053.6 4998.3 5045.5 5004.1 5053.6 5010 5043.6 5010 5051.7 5004.1 5041.7 5004.1 5033.6 5010" clip-path="url(#a)" fill="none" stroke="#000" stroke-linecap="round"/>
<polyline points="5033.6 5010 5036.7 5019.5 5046.7 5019.5 5054.8 5013.6 5046.7 5007.8 5054.8 5001.9 5044.8 5001.9 5034.8 5001.9 5042.9 5007.8 5034.8 5001.9 5037.9 4992.4 5041 4982.9 5037.9 4973.4 5041 4982.9 5051 4982.9 5042.9 4988.7 5039.8 4979.2 5031.7 4973.4 5039.8 4967.5 5031.7 4973.4 5039.8 4967.5 5042.9 4977 5052.9 4977 5042.9 4977 5034.8 4982.9 5024.8 4982.9 5014.8 4982.9 5011.7 4973.4 5003.6 4979.2 4993.6 4979.2 5001.7 4973.4 5011.7 4973.4 5003.6 4967.5 5013.6 4967.5 5003.6 4967.5 5011.7 4961.6 5001.7 4961.6 4998.6 4952.1 5006.7 4946.2 4998.6 4952.1 5008.6 4952.1 5016.7 4958 5006.7 4958" clip-path="url(#a)" fill="none" stroke="#000" stroke-linecap="round"/>
<polyline points="5006.7 4958 4998.6 4963.8 4990.5 4958 4987.4 4967.5 4995.5 4973.4 5003.6 4979.2 4993.6 4979.2 4985.5 4985.1 4977.4 4991 4980.5 4981.5 4990.5 4981.5 4987.4 4991 4984.3 5000.5 4992.4 5006.4 5000.5 5000.5 5010.5 5000.5 5020.5 5000.5 5030.5 5000.5 5027.4 5010 5024.3 5000.5 5016.2 5006.4 5024.3 5012.3 5016.2 5006.4 5019.3 4996.9 5027.4 5002.7 5019.3 5008.6 5011.2 5002.7 5021.2 5002.7 5024.3 4993.2 5021.2 5002.7 5013.1 5008.6 5021.2 5002.7 5011.2 5002.7 5003.1 5008.6 4993.1 5008.6 4990 4999.1 4987 5008.6 4978.9 5002.7 4975.8 5012.3 4983.9 5018.1 4980.8 5027.6 4988.9 5033.5 4985.8 5024" clip-path="url(#a)" fill="none" stroke="#000" stroke-linecap="round"/>
<polyline points="4985.8 5024 4982.7 5033.5 4990.8 5039.4 4982.7 5045.3 4992.7 5045.3 4995.8 5054.8 4998.9 5064.3 4995.8 5073.8 4998.9 5083.3 4990.8 5077.4 4982.7 5071.6 4979.6 5081.1 4976.5 5090.6 4979.6 5081.1 4969.6 5081.1 4977.7 5087 4980.8 5077.4 4977.7 5087 4980.8 5096.5 4988.9 5102.3 4985.8 5092.8 4988.9 5102.3 4992 5111.9 5e3 5106 5008.1 5111.9 5018.1 5111.9 5010 5117.7 5007 5108.2 5010 5098.7 5e3 5098.7 4997 5089.2 5e3 5079.7 4990 5079.7 4982 5085.6 4985 5095.1 4982 5104.6 4973.9 5098.7 4982 5092.8 4990 5087 5e3 5087 5008.1 5092.8 5016.2 5087 5008.1 5081.1" clip-path="url(#a)" fill="none" stroke="#000" stroke-linecap="round"/>
<polyline points="5008.1 5081.1 5018.1 5081.1 5010 5087 5020 5087 5028.1 5081.1 5025 5071.6 5015 5071.6 5007 5077.4 5015 5083.3 5007 5089.2 5017 5089.2 5027 5089.2 5018.9 5083.3 5027 5089.2 5023.9 5098.7 5020.8 5108.2 5023.9 5117.7 5020.8 5108.2 5010.8 5108.2 5018.9 5102.3 5022 5111.9 5030 5117.7 5022 5123.6 5030 5117.7 5022 5123.6 5018.9 5114.1 5008.9 5114.1 5018.9 5114.1 5027 5108.2 5037 5108.2 5047 5108.2 5050 5117.7 5058.1 5111.9 5068.1 5111.9 5060 5117.7 5050 5117.7 5058.1 5123.6 5048.1 5123.6 5058.1 5123.6 5050 5129.5 5060 5129.5 5063.1 5139 5055 5144.9" clip-path="url(#a)" fill="none" stroke="#000" stroke-linecap="round"/>
<polyline points="5055 5144.9 5063.1 5139 5053.1 5139 5045 5133.1 5055 5133.1 5063.1 5127.2 5071.2 5133.1 5074.3 5123.6 5066.2 5117.7 5058.1 5111.9 5068.1 5111.9 5076.2 5106 5084.3 5100.1 5081.2 5109.6 5071.2 5109.6 5074.3 5100.1 5077.4 5090.6 5069.3 5084.7 5061.2 5090.6 5051.2 5090.6 5041.2 5090.6 5031.2 5090.6 5034.3 5081.1 5037.4 5090.6 5045.5 5084.7 5037.4 5078.8 5045.5 5084.7 5042.4 5094.2 5034.3 5088.3 5042.4 5082.5 5050.5 5088.3 5040.5 5088.3 5037.4 5097.9 5040.5 5088.3 5048.6 5082.5 5040.5 5088.3 5050.5 5088.3 5058.6 5082.5 5068.6 5082.5 5071.7 5092 5074.8 5082.5 5082.9 5088.3 5086 5078.8" clip-path="url(#a)" fill="none" stroke="#000" stroke-linecap="round"/>
<polyline points="5086 5078.8 5077.9 5073 5081 5063.4 5072.9 5057.6 5076 5067.1 5079 5057.6 5071 5051.7 5079 5045.8 5069 5045.8 5066 5036.3 5062.9 5026.8 5066 5017.3 5062.9 5007.8 5071 5013.6 5079 5019.5 5082.1 5010 5085.2 5000.5 5082.1 5010 5092.1 5010 5084 5004.1 5081 5013.6 5084 5004.1 5081 4994.6 5072.9 4988.7 5076 4998.3 5072.9 4988.7 5069.8 4979.2 5061.7 4985.1 5053.6 4979.2 5043.6 4979.2 5051.7 4973.4 5054.8 4982.9 5051.7 4992.4 5061.7 4992.4 5064.8 5001.9 5061.7 5011.4 5071.7 5011.4 5079.8 5005.5 5076.7 4996 5079.8 4986.5 5087.9 4992.4 5079.8 4998.3 5071.7 5004.1" clip-path="url(#a)" fill="none" stroke="#000" stroke-linecap="round"/>
<polyline points="5071.7 5004.1 5061.7 5004.1 5053.6 4998.3 5045.5 5004.1 5053.6 5010 5043.6 5010 5051.7 5004.1 5041.7 5004.1 5033.6 5010 5036.7 5019.5 5046.7 5019.5 5054.8 5013.6 5046.7 5007.8 5054.8 5001.9 5044.8 5001.9 5034.8 5001.9 5042.9 5007.8 5034.8 5001.9 5037.9 4992.4 5041 4982.9 5037.9 4973.4 5041 4982.9 5051 4982.9 5042.9 4988.7 5039.8 4979.2 5031.7 4973.4 5039.8 4967.5 5031.7 4973.4 5039.8 4967.5 5042.9 4977 5052.9 4977 5042.9 4977 5034.8 4982.9 5024.8 4982.9 5014.8 4982.9 5011.7 4973.4 5003.6 4979.2 4993.6 4979.2 5001.7 4973.4 5011.7 4973.4 5003.6 4967.5 5013.6 4967.5 5003.6 4967.5" clip-path="url(#a)" fill="none" stroke="#000" stroke-linecap="round"/>
<polyline points="5003.6 4967.5 5011.7 4961.6 5001.7 4961.6 4998.6 4952.1 5006.7 4946.2 4998.6 4952.1 5008.6 4952.1 5016.7 4958 5006.7 4958 4998.6 4963.8 4990.5 4958 4987.4 4967.5 4995.5 4973.4 5003.6 4979.2 4993.6 4979.2 4985.5 4985.1 4977.4 4991 4980.5 4981.5 4990.5 4981.5 4987.4 4991 4984.3 5000.5 4992.4 5006.4 5000.5 5000.5 5010.5 5000.5 5020.5 5000.5 5030.5 5000.5 5027.4 5010 5024.3 5000.5 5016.2 5006.4 5024.3 5012.3 5016.2 5006.4 5019.3 4996.9 5027.4 5002.7 5019.3 5008.6 5011.2 5002.7 5021.2 5002.7 5024.3 4993.2 5021.2 5002.7 5013.1 5008.6 5021.2 5002.7 5011.2 5002.7 5003.1 5008.6 4993.1 5008.6" clip-path="url(#a)" fill="none" stroke="#000" stroke-linecap="round"/>
<polyline points="4993.1 5008.6 4990 4999.1 4987 5008.6 4978.9 5002.7 4975.8 5012.3 4983.9 5018.1 4980.8 5027.6 4988.9 5033.5 4985.8 5024 4982.7 5033.5 4990.8 5039.4 4982.7 5045.3 4992.7 5045.3 4995.8 5054.8 4998.9 5064.3 4995.8 5073.8 4998.9 5083.3 4990.8 5077.4 4982.7 5071.6 4979.6 5081.1 4976.5 5090.6 4979.6 5081.1 4969.6 5081.1 4977.7 5087 4980.8 5077.4 4977.7 5087 4980.8 5096.5 4988.9 5102.3 4985.8 5092.8 4988.9 5102.3 4992 5111.9 5e3 5106 5008.1 5111.9 5018.1 5111.9 5010 5117.7 5007 5108.2 5010 5098.7 5e3 5098.7 4997 5089.2 5e3 5079.7 4990 5079.7 4982 5085.6 4985 5095.1" clip-path="url(#a)" fill="none" stroke="#000" stroke-linecap="round"/>
<polyline points="4985 5095.1 4982 5104.6 4973.9 5098.7 4982 5092.8 4990 5087 5e3 5087 5008.1 5092.8 5016.2 5087 5008.1 5081.1 5018.1 5081.1 5010 5087 5020 5087 5028.1 5081.1 5025 5071.6 5015 5071.6 5007 5077.4 5015 5083.3 5007 5089.2 5017 5089.2 5027 5089.2 5018.9 5083.3 5027 5089.2 5023.9 5098.7 5020.8 5108.2 5023.9 5117.7 5020.8 5108.2 5010.8 5108.2 5018.9 5102.3 5022 5111.9 5030 5117.7 5022 5123.6 5030 5117.7 5022 5123.6 5018.9 5114.1 5008.9 5114.1 5018.9 5114.1 5027 5108.2 5037 5108.2 5047 5108.2 5050 5117.7 5058.1 5111.9 5068.1 5111.9 5060 5117.7" clip-path="url(#a)" fill="none" stroke="#000" stroke-linecap="round"/>
<polyline points="5060 5117.7 5050 5117.7 5058.1 5123.6 5048.1 5123.6 5058.1 5123.6 5050 5129.5 5060 5129.5 5063.1 5139 5055 5144.9 5063.1 5139 5053.1 5139 5045 5133.1 5055 5133.1 5063.1 5127.2 5071.2 5133.1 5074.3 5123.6 5066.2 5117.7 5058.1 5111.9 5068.1 5111.9 5076.2 5106 5084.3 5100.1 5081.2 5109.6 5071.2 5109.6 5074.3 5100.1 5077.4 5090.6 5069.3 5084.7 5061.2 5090.6 5051.2 5090.6 5041.2 5090.6 5031.2 5090.6 5034.3 5081.1 5037.4 5090.6 5045.5 5084.7 5037.4 5078.8 5045.5 5084.7 5042.4 5094.2 5034.3 5088.3 5042.4 5082.5 5050.5 5088.3 5040.5 5088.3 5037.4 5097.9 5040.5 5088.3 5048.6 5082.5" clip-path="url(#a)" fill="none" stroke="#000" stroke-linecap="round"/>
<polyline points="5048.6 5082.5 5040.5 5088.3 5050.5 5088.3 5058.6 5082.5 5068.6 5082.5 5071.7 5092 5074.8 5082.5 5082.9 5088.3 5086 5078.8 5077.9 5073 5081 5063.4 5072.9 5057.6 5076 5067.1 5079 5057.6 5071 5051.7 5079 5045.8 5069 5045.8 5066 5036.3 5062.9 5026.8 5066 5017.3 5062.9 5007.8 5071 5013.6 5079 5019.5 5082.1 5010 5085.2 5000.5 5082.1 5010 5092.1 5010 5084 5004.1 5081 5013.6 5084 5004.1 5081 4994.6 5072.9 4988.7 5076 4998.3 5072.9 4988.7 5069.8 4979.2 5061.7 4985.1 5053.6 4979.2 5043.6 4979.2 5051.7 4973.4 5054.8 4982.9 5051.7 4992.4 5061.7 4992.4 5064.8 5001.9" clip-path="url(#a)" fill="none" stroke="#000" stroke-linecap="round"/>
<polyline points="5064.8 5001.9 5061.7 5011.4 5071.7 5011.4 5079.8 5005.5 5076.7 4996 5079.8 4986.5 5087.9 4992.4 5079.8 4998.3 5071.7 5004.1 5061.7 5004.1 5053.6 4998.3 5045.5 5004.1 5053.6 5010 5043.6 5010 5051.7 5004.1 5041.7 5004.1 5033.6 5010 5036.7 5019.5 5046.7 5019.5 5054.8 5013.6 5046.7 5007.8 5054.8 5001.9 5044.8 5001.9 5034.8 5001.9 5042.9 5007.8 5034.8 5001.9 5037.9 4992.4 5041 4982.9 5037.9 4973.4 5041 4982.9 5051 4982.9 5042.9 4988.7 5039.8 4979.2 5031.7 4973.4 5039.8 4967.5 5031.7 4973.4 5039.8 4967.5 5042.9 4977 5052.9 4977 5042.9 4977 5034.8 4982.9 5024.8 4982.9 5014.8 4982.9" clip-path="url(#a)" fill="none" stroke="#000" stroke-linecap="round"/>
<polyline points="5014.8 4982.9 5011.7 4973.4 5003.6 4979.2 4993.6 4979.2 5001.7 4973.4 5011.7 4973.4 5003.6 4967.5 5013.6 4967.5 5003.6 4967.5 5011.7 4961.6 5001.7 4961.6 4998.6 4952.1 5006.7 4946.2 4998.6 4952.1 5008.6 4952.1 5016.7 4958 5006.7 4958 4998.6 4963.8 4990.5 4958 4987.4 4967.5 4995.5 4973.4 5003.6 4979.2 4993.6 4979.2 4985.5 4985.1 4977.4 4991 4980.5 4981.5 4990.5 4981.5 4987.4 4991 4984.3 5000.5 4992.4 5006.4 5000.5 5000.5 5010.5 5000.5 5020.5 5000.5 5030.5 5000.5 5027.4 5010 5024.3 5000.5 5016.2 5006.4 5024.3 5012.3 5016.2 5006.4 5019.3 4996.9 5027.4 5002.7 5019.3 5008.6 5011.2 5002.7" clip-path="url(#a)" fill="none" stroke="#000" stroke-linecap="round"/>
<polyline points="5011.2 5002.7 5021.2 5002.7 5024.3 4993.2 5021.2 5002.7 5013.1 5008.6 5021.2 5002.7 5011.2 5002.7 5003.1 5008.6 4993.1 5008.6 4990 4999.1 4987 5008.6 4978.9 5002.7 4975.8 5012.3 4983.9 5018.1 4980.8 5027.6 4988.9 5033.5 4985.8 5024 4982.7 5033.5 4990.8 5039.4 4982.7 5045.3 4992.7 5045.3 4995.8 5054.8 4998.9 5064.3 4995.8 5073.8 4998.9 5083.3 4990.8 5077.4 4982.7 5071.6 4979.6 5081.1 4976.5 5090.6 4979.6 5081.1 4969.6 5081.1 4977.7 5087 4980.8 5077.4 4977.7 5087 4980.8 5096.5 4988.9 5102.3 4985.8 5092.8 4988.9 5102.3 4992 5111.9 5e3 5106 5008.1 5111.9 5018.1 5111.9 5010 5117.7" clip-path="url(#a)" fill="none" stroke="#000" stroke-linecap="round"/>
<polyline points="5010 5117.7 5007 5108.2 5010 5098.7 5e3 5098.7 4997 5089.2 5e3 5079.7 4990 5079.7 4982 5085.6 4985 5095.1 4982 5104.6 4973.9 5098.7 4982 5092.8 4990 5087 5e3 5087 5008.1 5092.8 5016.2 5087 5008.1 5081.1 5018.1 5081.1 5010 5087 5020 5087 5028.1 5081.1 5025 5071.6 5015 5071.6 5007 5077.4 5015 5083.3 5007 5089.2 5017 5089.2 5027 5089.2 5018.9 5083.3 5027 5089.2 5023.9 5098.7 5020.8 5108.2 5023.9 5117.7 5020.8 5108.2 5010.8 5108.2 5018.9 5102.3 5022 5111.9 5030 5117.7 5022 5123.6 5030 5117.7 5022 5123.6 5018.9 5114.1 5008.9 5114.1" clip-path="url(#a)" fill="none" stroke="#000" stroke-linecap="round"/>
<polyline points="5008.9 5114.1 5018.9 5114.1 5027 5108.2 5037 5108.2 5047 5108.2 5050 5117.7 5058.1 5111.9 5068.1 5111.9 5060 5117.7 5050 5117.7 5058.1 5123.6 5048.1 5123.6 5058.1 5123.6 5050 5129.5 5060 5129.5 5063.1 5139 5055 5144.9 5063.1 5139 5053.1 5139 5045 5133.1 5055 5133.1 5063.1 5127.2 5071.2 5133.1 5074.3 5123.6 5066.2 5117.7 5058.1 5111.9 5068.1 5111.9 5076.2 5106 5084.3 5100.1 5081.2 5109.6 5071.2 5109.6 5074.3 5100.1 5077.4 5090.6 5069.3 5084.7 5061.2 5090.6 5051.2 5090.6 5041.2 5090.6 5031.2 5090.6 5034.3 5081.1 5037.4 5090.6 5045.5 5084.7 5037.4 5078.8 5045.5 5084.7" clip-path="url(#a)" fill="none" stroke="#000" stroke-linecap="round"/>
<polyline points="5045.5 5084.7 5042.4 5094.2 5034.3 5088.3 5042.4 5082.5 5050.5 5088.3 5040.5 5088.3 5037.4 5097.9 5040.5 5088.3 5048.6 5082.5 5040.5 5088.3 5050.5 5088.3 5058.6 5082.5 5068.6 5082.5 5071.7 5092 5074.8 5082.5 5082.9 5088.3 5086 5078.8 5077.9 5073 5081 5063.4 5072.9 5057.6 5076 5067.1 5079 5057.6 5071 5051.7 5079 5045.8 5069 5045.8 5066 5036.3 5062.9 5026.8 5066 5017.3 5062.9 5007.8 5071 5013.6 5079 5019.5 5082.1 5010 5085.2 5000.5 5082.1 5010 5092.1 5010 5084 5004.1 5081 5013.6 5084 5004.1 5081 4994.6 5072.9 4988.7 5076 4998.3 5072.9 4988.7 5069.8 4979.2" clip-path="url(#a)" fill="none" stroke="#000" stroke-linecap="round"/>
<polyline points="5069.8 4979.2 5061.7 4985.1 5053.6 4979.2 5043.6 4979.2 5051.7 4973.4 5054.8 4982.9 5051.7 4992.4 5061.7 4992.4 5064.8 5001.9 5061.7 5011.4 5071.7 5011.4 5079.8 5005.5 5076.7 4996 5079.8 4986.5 5087.9 4992.4 5079.8 4998.3 5071.7 5004.1 5061.7 5004.1 5053.6 4998.3 5045.5 5004.1 5053.6 5010 5043.6 5010 5051.7 5004.1 5041.7 5004.1 5033.6 5010 5036.7 5019.5 5046.7 5019.5 5054.8 5013.6 5046.7 5007.8 5054.8 5001.9 5044.8 5001.9 5034.8 5001.9 5042.9 5007.8 5034.8 5001.9 5037.9 4992.4 5041 4982.9 5037.9 4973.4 5041 4982.9 5051 4982.9 5042.9 4988.7 5039.8 4979.2 5031.7 4973.4 5039.8 4967.5" clip-path="url(#a)" fill="none" stroke="#000" stroke-linecap="round"/>
<polyline points="5039.8 4967.5 5031.7 4973.4 5039.8 4967.5 5042.9 4977 5052.9 4977 5042.9 4977 5034.8 4982.9 5024.8 4982.9 5014.8 4982.9 5011.7 4973.4 5003.6 4979.2 4993.6 4979.2 5001.7 4973.4 5011.7 4973.4 5003.6 4967.5 5013.6 4967.5 5003.6 4967.5 5011.7 4961.6 5001.7 4961.6 4998.6 4952.1 5006.7 4946.2 4998.6 4952.1 5008.6 4952.1 5016.7 4958 5006.7 4958 4998.6 4963.8 4990.5 4958 4987.4 4967.5 4995.5 4973.4 5003.6 4979.2 4993.6 4979.2 4985.5 4985.1 4977.4 4991 4980.5 4981.5 4990.5 4981.5 4987.4 4991 4984.3 5000.5 4992.4 5006.4 5000.5 5000.5" clip-path="url(#a)" fill="none" stroke="#000" stroke-linecap="round"/>
</svg>
