<?xml version="1.0" encoding="UTF-8"?>
<svg width="1e4px" height="1e4px" baseProfile="full" version="1.1" viewBox="4943.6 4942.3 108.54 105.8" xmlns="http://www.w3.org/2000/svg">
<defs>
<clipPath id="a">
<rect width="1e4" height="1e4"/>
</clipPath>
</defs>
<polyline points="5000.5 5000.5 5010.5 5000.5 5020.5 5000.5 5030.5 5000.5 5027.4 5010 5030.5 5019.5 5027.4 5029 5035.5 5023.2 5032.4 5013.6 5029.3 5023.2 5037.4 5017.3 5034.3 5026.8 5031.2 5036.3 5039.3 5030.4 5031.2 5024.5 5021.2 5024.5 5029.3 5018.7 5021.2 5024.5 5031.2 5024.5 5023.1 5030.4 5020 5020.9 5028.1 5026.8 5036.2 5020.9 5028.1 5026.8 5020 5020.9 5017 5011.4 5020 5001.9 5012 4996 5015 4986.5 5018.1 4977 5015 4986.5 5007 4980.6 5015 4986.5 5007 4980.6 5003.9 4990.1 4995.8 4996 5003.9 4990.1 5000.8 4999.6 4990.8 4999.6 4993.9 5009.2 4997 4999.6 4993.9 5009.2 5003.9 5009.2" clip-path="url(#a)" fill="none" stroke="#000" stroke-linecap="round"/>
<polyline points="5003.9 5009.2 5007 4999.6 4997 4999.6 5e3 4990.1 4992 4996 4988.9 5005.5 4985.8 5015 4982.7 5024.5 4974.6 5018.7 4964.6 5018.7 4956.5 5012.8 4959.6 5022.3 4969.6 5022.3 4961.5 5016.4 4964.6 5025.9 4956.5 5020.1 4948.4 5014.2 4951.5 5023.7 4959.6 5017.8 4962.7 5008.3 4965.8 5017.8 4962.7 5008.3 4959.6 5017.8 4956.5 5008.3 4966.5 5008.3 4958.4 5014.2 4961.5 5023.7 4958.4 5014.2 4966.5 5008.3 4976.5 5008.3 4984.6 5014.2 4992.7 5008.3 5000.8 5014.2 5008.9 5020.1 5000.8 5014.2 5008.9 5008.3 5000.8 5014.2 5008.9 5008.3 5000.8 5002.4 4997.7 4992.9 5000.8 5002.4 4992.7 4996.5 4995.8 4987" clip-path="url(#a)" fill="none" stroke="#000" stroke-linecap="round"/>
<polyline points="4995.8 4987 4985.8 4987 4993.9 4992.9 4985.8 4987 4982.7 4996.5 4990.8 5002.4 4993.9 4992.9 5002 4998.8 4998.9 4989.3 4990.8 4983.4 4982.7 4977.5 4974.6 4971.6 4982.7 4965.8 4985.8 4956.3 4993.9 4950.4 4983.9 4950.4 4980.8 4959.9 4988.9 4954 4978.9 4954 4987 4948.1 4995 4942.3 4985 4942.3 4988.1 4951.8 4996.2 4957.6 4986.2 4957.6 4996.2 4957.6 4988.1 4951.8 4998.1 4951.8 4995 4961.3 4992 4951.8 4982 4951.8 4992 4951.8 4995 4961.3 4992 4970.8 4983.9 4976.7 4987 4986.2 4978.9 4992 4970.8 4997.9 4978.9 4992 4982 5001.6 4978.9 4992 4982 5001.6 4990 4995.7" clip-path="url(#a)" fill="none" stroke="#000" stroke-linecap="round"/>
<polyline points="4990 4995.7 5e3 4995.7 4990 4995.7 4998.1 4989.8 5006.2 4995.7 5009.3 4986.2 5001.2 4992 5009.3 4986.2 5001.2 4980.3 4993.1 4986.2 5001.2 4992 4993.1 4997.9 5003.1 4997.9 5011.2 4992 5019.3 4986.2 5027.4 4980.3 5030.5 4989.8 5038.6 4995.7 5041.7 5005.2 5044.8 4995.7 5036.7 4989.8 5039.8 4999.3 5042.9 4989.8 5046 4999.3 5049 5008.8 5052.1 4999.3 5042.1 4999.3 5034 5005.2 5037.1 4995.7 5034 5005.2 5042.1 4999.3 5039 5008.8 5031 5002.9 5041 5002.9 5044 4993.4 5041 5002.9 5031 5002.9 5022.9 4997.1 5019.8 4987.6 5009.8 4987.6 5006.7 4978 5003.6 4968.5 5006.7 4978" clip-path="url(#a)" fill="none" stroke="#000" stroke-linecap="round"/>
<polyline points="5006.7 4978 4996.7 4978 5006.7 4978 4996.7 4978 4999.8 4987.6 4996.7 4997.1 4999.8 4987.6 5002.9 4997.1 4994.8 5002.9 5002.9 5008.8 4999.8 4999.3 5002.9 5008.8 5011 5002.9 5007.9 4993.4 4999.8 4999.3 4996.7 4989.8 4993.6 4999.3 4996.7 5008.8 4999.8 5018.3 5002.9 5027.8 4992.9 5027.8 4984.8 5033.7 4974.8 5033.7 4982.9 5039.6 4991 5033.7 4981 5033.7 4989 5039.6 4979 5039.6 4969 5039.6 4977.1 5045.5 4980.2 5036 4977.1 5026.5 4985.2 5032.3 4977.1 5026.5 4980.2 5036 4972.1 5030.1 4980.2 5024.2 4977.1 5033.7 4985.2 5039.6 4977.1 5033.7 4980.2 5024.2 4988.3 5018.3 4998.3 5018.3" clip-path="url(#a)" fill="none" stroke="#000" stroke-linecap="round"/>
<polyline points="4998.3 5018.3 5001.4 5008.8 5011.4 5008.8 5021.4 5008.8 5011.4 5008.8 5014.5 4999.3 5011.4 5008.8 5014.5 4999.3 5004.5 4999.3 4996.4 4993.4 5004.5 4999.3 4994.5 4999.3 4991.4 4989.8 4983.3 4995.7 4993.3 4995.7 4983.3 4995.7 4986.4 5005.2 4996.4 5005.2 4993.3 4995.7 5003.3 4995.7 4995.2 4989.8 4985.2 4989.8 4975.2 4989.8 4965.2 4989.8 4968.3 4980.3 4965.2 4970.8 4968.3 4961.3 4960.2 4967.2 4963.3 4976.7 4966.4 4967.2 4958.3 4973 4961.4 4963.5 4964.5 4954 4956.4 4959.9 4964.5 4965.8 4974.5 4965.8 4966.4 4971.6 4974.5 4965.8 4964.5 4965.8 4972.6 4959.9 4975.7 4969.4 4967.6 4963.5 4959.5 4969.4" clip-path="url(#a)" fill="none" stroke="#000" stroke-linecap="round"/>
<polyline points="4959.5 4969.4 4967.6 4963.5 4975.7 4969.4 4978.8 4978.9 4975.7 4988.4 4983.8 4994.3 4980.7 5003.8 4977.6 5013.3 4980.7 5003.8 4988.8 5009.7 4980.7 5003.8 4988.8 5009.7 4991.9 5000.2 4999.9 4994.3 4991.9 5000.2 4994.9 4990.7 5004.9 4990.7 5001.9 4981.2 4998.8 4990.7 5001.9 4981.2 4991.9 4981.2 4988.8 4990.7 4998.8 4990.7 4995.7 5000.2 5003.8 4994.3 5006.9 4984.8 5009.9 4975.3 5013 4965.8 5021.1 4971.6 5031.1 4971.6 5039.2 4977.5 5036.1 4968 5026.1 4968 5034.2 4973.9 5031.1 4964.4 5039.2 4970.3 5047.3 4976.1 5044.2 4966.6 5036.1 4972.5 5033 4982 5029.9 4972.5 5033 4982 5036.1 4972.5" clip-path="url(#a)" fill="none" stroke="#000" stroke-linecap="round"/>
<polyline points="5036.1 4972.5 5039.2 4982 5029.2 4982 5037.3 4976.1 5034.2 4966.6 5037.3 4976.1 5029.2 4982 5019.2 4982 5011.1 4976.1 5003 4982 4994.9 4976.1 4986.9 4970.3 4994.9 4976.1 4986.9 4982 4994.9 4976.1 4986.9 4982 4994.9 4987.9 4998 4997.4 4994.9 4987.9 5003 4993.8 4999.9 5003.3 5009.9 5003.3 5001.9 4997.4 5009.9 5003.3 5013 4993.8 5004.9 4987.9 5001.9 4997.4 4993.8 4991.5 4996.9 5001 5004.9 5006.9 5013 5012.8 5021.1 5018.7 5013 5024.5 5009.9 5034.1 5001.9 5039.9 5011.9 5039.9 5014.9 5030.4 5006.9 5036.3 5016.9 5036.3 5008.8 5042.2 5000.7 5048.1 5010.7 5048.1 5007.6 5038.5" clip-path="url(#a)" fill="none" stroke="#000" stroke-linecap="round"/>
<polyline points="5007.6 5038.5 4999.5 5032.7 5009.5 5032.7 4999.5 5032.7 5007.6 5038.5 4997.6 5038.5 5000.7 5029 5003.8 5038.5 5013.8 5038.5 5003.8 5038.5 5000.7 5029 5003.8 5019.5 5011.9 5013.6 5008.8 5004.1 5016.9 4998.3 5024.9 4992.4 5016.9 4998.3 5013.8 4988.7 5016.9 4998.3 5013.8 4988.7 5005.7 4994.6 4995.7 4994.6 5005.7 4994.6 4997.6 5000.5 4989.5 4994.6 4986.4 5004.1 4994.5 4998.3 4986.4 5004.1 4994.5 5010 5002.6 5004.1 4994.5 4998.3 5002.6 4992.4 4992.6 4992.4 4984.5 4998.3 4976.4 5004.1 4968.3 5010 4965.2 5000.5 4957.1 4994.6 4954 4985.1 4951 4994.6 4959 5000.5 4956 4991 4952.9 5000.5" clip-path="url(#a)" fill="none" stroke="#000" stroke-linecap="round"/>
<polyline points="4952.9 5000.5 4949.8 4991 4946.7 4981.5 4943.6 4991 4953.6 4991 4961.7 4985.1 4958.6 4994.6 4961.7 4985.1 4953.6 4991 4956.7 4981.5 4964.8 4987.4 4954.8 4987.4 4951.7 4996.9 4954.8 4987.4 4964.8 4987.4 4972.9 4993.2 4976 5002.7 4986 5002.7 4989 5012.3 4992.1 5021.8 4989 5012.3 4999 5012.3 4989 5012.3 4999 5012.3 4996 5002.7 4999 4993.2 4996 5002.7 4992.9 4993.2 5001 4987.4 4992.9 4981.5 4996 4991 4992.9 4981.5 4984.8 4987.4 4987.9 4996.9 4996 4991 4999 5000.5 5002.1 4991 4999 4981.5 4996 4972 4992.9 4962.5 5002.9 4962.5 5011 4956.6 5021 4956.6" clip-path="url(#a)" fill="none" stroke="#000" stroke-linecap="round"/>
<polyline points="5021 4956.6 5012.9 4950.7 5004.8 4956.6 5014.8 4956.6 5006.7 4950.7 5016.7 4950.7 5026.7 4950.7 5018.6 4944.8 5015.5 4954.3 5018.6 4963.8 5010.5 4958 5018.6 4963.8 5015.5 4954.3 5023.6 4960.2 5015.5 4966.1 5018.6 4956.6 5010.5 4950.7 5018.6 4956.6 5015.5 4966.1 5007.4 4972 4997.4 4972 4994.3 4981.5 4984.3 4981.5 4974.3 4981.5 4984.3 4981.5 4981.2 4991 4984.3 4981.5 4981.2 4991 4991.2 4991 4999.3 4996.9 4991.2 4991 5001.2 4991 5004.3 5000.5 5012.4 4994.6 5002.4 4994.6 5012.4 4994.6 5009.3 4985.1 4999.3 4985.1 5002.4 4994.6 4992.4 4994.6 5000.5 5000.5 5010.5 5000.5 5020.5 5000.5" clip-path="url(#a)" fill="none" stroke="#000" stroke-linecap="round"/>
<polyline points="5020.5 5000.5 5030.5 5000.5 5027.4 5010 5030.5 5019.5 5027.4 5029 5035.5 5023.2 5032.4 5013.6 5029.3 5023.2 5037.4 5017.3 5034.3 5026.8 5031.2 5036.3 5039.3 5030.4 5031.2 5024.5 5021.2 5024.5 5029.3 5018.7 5021.2 5024.5 5031.2 5024.5 5023.1 5030.4 5020 5020.9 5028.1 5026.8 5036.2 5020.9 5028.1 5026.8 5020 5020.9 5017 5011.4 5020 5001.9 5012 4996 5015 4986.5 5018.1 4977 5015 4986.5 5007 4980.6 5015 4986.5 5007 4980.6 5003.9 4990.1 4995.8 4996 5003.9 4990.1 5000.8 4999.6 4990.8 4999.6 4993.9 5009.2 4997 4999.6 4993.9 5009.2 5003.9 5009.2 5007 4999.6 4997 4999.6" clip-path="url(#a)" fill="none" stroke="#000" stroke-linecap="round"/>
<polyline points="4997 4999.6 5e3 4990.1 4992 4996 4988.9 5005.5 4985.8 5015 4982.7 5024.5 4974.6 5018.7 4964.6 5018.7 4956.5 5012.8 4959.6 5022.3 4969.6 5022.3 4961.5 5016.4 4964.6 5025.9 4956.5 5020.1 4948.4 5014.2 4951.5 5023.7 4959.6 5017.8 4962.7 5008.3 4965.8 5017.8 4962.7 5008.3 4959.6 5017.8 4956.5 5008.3 4966.5 5008.3 4958.4 5014.2 4961.5 5023.7 4958.4 5014.2 4966.5 5008.3 4976.5 5008.3 4984.6 5014.2 4992.7 5008.3 5000.8 5014.2 5008.9 5020.1 5000.8 5014.2 5008.9 5008.3 5000.8 5014.2 5008.9 5008.3 5000.8 5002.4 4997.7 4992.9 5000.8 5002.4 4992.7 4996.5 4995.8 4987 4985.8 4987 4993.9 4992.9" clip-path="url(#a)" fill="none" stroke="#000" stroke-linecap="round"/>
<polyline points="4993.9 4992.9 4985.8 4987 4982.7 4996.5 4990.8 5002.4 4993.9 4992.9 5002 4998.8 4998.9 4989.3 4990.8 4983.4 4982.7 4977.5 4974.6 4971.6 4982.7 4965.8 4985.8 4956.3 4993.9 4950.4 4983.9 4950.4 4980.8 4959.9 4988.9 4954 4978.9 4954 4987 4948.1 4995 4942.3 4985 4942.3 4988.1 4951.8 4996.2 4957.6 4986.2 4957.6 4996.2 4957.6 4988.1 4951.8 4998.1 4951.8 4995 4961.3 4992 4951.8 4982 4951.8 4992 4951.8 4995 4961.3 4992 4970.8 4983.9 4976.7 4987 4986.2 4978.9 4992 4970.8 4997.9 4978.9 4992 4982 5001.6 4978.9 4992 4982 5001.6 4990 4995.7 5e3 4995.7 4990 4995.7" clip-path="url(#a)" fill="none" stroke="#000" stroke-linecap="round"/>
<polyline points="4990 4995.7 4998.1 4989.8 5006.2 4995.7 5009.3 4986.2 5001.2 4992 5009.3 4986.2 5001.2 4980.3 4993.1 4986.2 5001.2 4992 4993.1 4997.9 5003.1 4997.9 5011.2 4992 5019.3 4986.2 5027.4 4980.3 5030.5 4989.8 5038.6 4995.7 5041.7 5005.2 5044.8 4995.7 5036.7 4989.8 5039.8 4999.3 5042.9 4989.8 5046 4999.3 5049 5008.8 5052.1 4999.3 5042.1 4999.3 5034 5005.2 5037.1 4995.7 5034 5005.2 5042.1 4999.3 5039 5008.8 5031 5002.9 5041 5002.9 5044 4993.4 5041 5002.9 5031 5002.9 5022.9 4997.1 5019.8 4987.6 5009.8 4987.6 5006.7 4978 5003.6 4968.5 5006.7 4978 4996.7 4978 5006.7 4978" clip-path="url(#a)" fill="none" stroke="#000" stroke-linecap="round"/>
<polyline points="5006.7 4978 4996.7 4978 4999.8 4987.6 4996.7 4997.1 4999.8 4987.6 5002.9 4997.1 4994.8 5002.9 5002.9 5008.8 4999.8 4999.3 5002.9 5008.8 5011 5002.9 5007.9 4993.4 4999.8 4999.3 4996.7 4989.8 4993.6 4999.3 4996.7 5008.8 4999.8 5018.3 5002.9 5027.8 4992.9 5027.8 4984.8 5033.7 4974.8 5033.7 4982.9 5039.6 4991 5033.7 4981 5033.7 4989 5039.6 4979 5039.6 4969 5039.6 4977.1 5045.5 4980.2 5036 4977.1 5026.5 4985.2 5032.3 4977.1 5026.5 4980.2 5036 4972.1 5030.1 4980.2 5024.2 4977.1 5033.7 4985.2 5039.6 4977.1 5033.7 4980.2 5024.2 4988.3 5018.3 4998.3 5018.3 5001.4 5008.8 5011.4 5008.8" clip-path="url(#a)" fill="none" stroke="#000" stroke-linecap="round"/>
<polyline points="5011.4 5008.8 5021.4 5008.8 5011.4 5008.8 5014.5 4999.3 5011.4 5008.8 5014.5 4999.3 5004.5 4999.3 4996.4 4993.4 5004.5 4999.3 4994.5 4999.3 4991.4 4989.8 4983.3 4995.7 4993.3 4995.7 4983.3 4995.7 4986.4 5005.2 4996.4 5005.2 4993.3 4995.7 5003.3 4995.7 4995.2 4989.8 4985.2 4989.8 4975.2 4989.8 4965.2 4989.8 4968.3 4980.3 4965.2 4970.8 4968.3 4961.3 4960.2 4967.2 4963.3 4976.7 4966.4 4967.2 4958.3 4973 4961.4 4963.5 4964.5 4954 4956.4 4959.9 4964.5 4965.8 4974.5 4965.8 4966.4 4971.6 4974.5 4965.8 4964.5 4965.8 4972.6 4959.9 4975.7 4969.4 4967.6 4963.5 4959.5 4969.4 4967.6 4963.5 4975.7 4969.4" clip-path="url(#a)" fill="none" stroke="#000" stroke-linecap="round"/>
<polyline points="4975.7 4969.4 4978.8 4978.9 4975.7 4988.4 4983.8 4994.3 4980.7 5003.8 4977.6 5013.3 4980.7 5003.8 4988.8 5009.7 4980.7 5003.8 4988.8 5009.7 4991.9 5000.2 4999.9 4994.3 4991.9 5000.2 4994.9 4990.7 5004.9 4990.7 5001.9 4981.2 4998.8 4990.7 5001.9 4981.2 4991.9 4981.2 4988.8 4990.7 4998.8 4990.7 4995.7 5000.2 5003.8 4994.3 5006.9 4984.8 5009.9 4975.3 5013 4965.8 5021.1 4971.6 5031.1 4971.6 5039.2 4977.5 5036.1 4968 5026.1 4968 5034.2 4973.9 5031.1 4964.4 5039.2 4970.3 5047.3 4976.1 5044.2 4966.6 5036.1 4972.5 5033 4982 5029.9 4972.5 5033 4982 5036.1 4972.5 5039.2 4982 5029.2 4982" clip-path="url(#a)" fill="none" stroke="#000" stroke-linecap="round"/>
<polyline points="5029.2 4982 5037.3 4976.1 5034.2 4966.6 5037.3 4976.1 5029.2 4982 5019.2 4982 5011.1 4976.1 5003 4982 4994.9 4976.1 4986.9 4970.3 4994.9 4976.1 4986.9 4982 4994.9 4976.1 4986.9 4982 4994.9 4987.9 4998 4997.4 4994.9 4987.9 5003 4993.8 4999.9 5003.3 5009.9 5003.3 5001.9 4997.4 5009.9 5003.3 5013 4993.8 5004.9 4987.9 5001.9 4997.4 4993.8 4991.5 4996.9 5001 5004.9 5006.9 5013 5012.8 5021.1 5018.7 5013 5024.5 5009.9 5034.1 5001.9 5039.9 5011.9 5039.9 5014.9 5030.4 5006.9 5036.3 5016.9 5036.3 5008.8 5042.2 5000.7 5048.1 5010.7 5048.1 5007.6 5038.5 4999.5 5032.7 5009.5 5032.7" clip-path="url(#a)" fill="none" stroke="#000" stroke-linecap="round"/>
<polyline points="5009.5 5032.7 4999.5 5032.7 5007.6 5038.5 4997.6 5038.5 5000.7 5029 5003.8 5038.5 5013.8 5038.5 5003.8 5038.5 5000.7 5029 5003.8 5019.5 5011.9 5013.6 5008.8 5004.1 5016.9 4998.3 5024.9 4992.4 5016.9 4998.3 5013.8 4988.7 5016.9 4998.3 5013.8 4988.7 5005.7 4994.6 4995.7 4994.6 5005.7 4994.6 4997.6 5000.5 4989.5 4994.6 4986.4 5004.1 4994.5 4998.3 4986.4 5004.1 4994.5 5010 5002.6 5004.1 4994.5 4998.3 5002.6 4992.4 4992.6 4992.4 4984.5 4998.3 4976.4 5004.1 4968.3 5010 4965.2 5000.5 4957.1 4994.6 4954 4985.1 4951 4994.6 4959 5000.5 4956 4991 4952.9 5000.5 4949.8 4991 4946.7 4981.5" clip-path="url(#a)" fill="none" stroke="#000" stroke-linecap="round"/>
<polyline points="4946.7 4981.5 4943.6 4991 4953.6 4991 4961.7 4985.1 4958.6 4994.6 4961.7 4985.1 4953.6 4991 4956.7 4981.5 4964.8 4987.4 4954.8 4987.4 4951.7 4996.9 4954.8 4987.4 4964.8 4987.4 4972.9 4993.2 4976 5002.7 4986 5002.7 4989 5012.3 4992.1 5021.8 4989 5012.3 4999 5012.3 4989 5012.3 4999 5012.3 4996 5002.7 4999 4993.2 4996 5002.7 4992.9 4993.2 5001 4987.4 4992.9 4981.5 4996 4991 4992.9 4981.5 4984.8 4987.4 4987.9 4996.9 4996 4991 4999 5000.5 5002.1 4991 4999 4981.5 4996 4972 4992.9 4962.5 5002.9 4962.5 5011 4956.6 5021 4956.6 5012.9 4950.7 5004.8 4956.6" clip-path="url(#a)" fill="none" stroke="#000" stroke-linecap="round"/>
<polyline points="5004.8 4956.6 5014.8 4956.6 5006.7 4950.7 5016.7 4950.7 5026.7 4950.7 5018.6 4944.8 5015.5 4954.3 5018.6 4963.8 5010.5 4958 5018.6 4963.8 5015.5 4954.3 5023.6 4960.2 5015.5 4966.1 5018.6 4956.6 5010.5 4950.7 5018.6 4956.6 5015.5 4966.1 5007.4 4972 4997.4 4972 4994.3 4981.5 4984.3 4981.5 4974.3 4981.5 4984.3 4981.5 4981.2 4991 4984.3 4981.5 4981.2 4991 4991.2 4991 4999.3 4996.9 4991.2 4991 5001.2 4991 5004.3 5000.5 5012.4 4994.6 5002.4 4994.6 5012.4 4994.6 5009.3 4985.1 4999.3 4985.1 5002.4 4994.6 4992.4 4994.6 5000.5 5000.5 5010.5 5000.5 5020.5 5000.5 5030.5 5000.5 5027.4 5010" clip-path="url(#a)" fill="none" stroke="#000" stroke-linecap="round"/>
<polyline points="5027.4 5010 5030.5 5019.5 5027.4 5029 5035.5 5023.2 5032.4 5013.6 5029.3 5023.2 5037.4 5017.3 5034.3 5026.8 5031.2 5036.3 5039.3 5030.4 5031.2 5024.5 5021.2 5024.5 5029.3 5018.7 5021.2 5024.5 5031.2 5024.5 5023.1 5030.4 5020 5020.9 5028.1 5026.8 5036.2 5020.9 5028.1 5026.8 5020 5020.9 5017 5011.4 5020 5001.9 5012 4996 5015 4986.5 5018.1 4977 5015 4986.5 5007 4980.6 5015 4986.5 5007 4980.6 5003.9 4990.1 4995.8 4996 5003.9 4990.1 5000.8 4999.6 4990.8 4999.6 4993.9 5009.2 4997 4999.6 4993.9 5009.2 5003.9 5009.2 5007 4999.6 4997 4999.6 5e3 4990.1 4992 4996" clip-path="url(#a)" fill="none" stroke="#000" stroke-linecap="round"/>
<polyline points="4992 4996 4988.9 5005.5 4985.8 5015 4982.7 5024.5 4974.6 5018.7 4964.6 5018.7 4956.5 5012.8 4959.6 5022.3 4969.6 5022.3 4961.5 5016.4 4964.6 5025.9 4956.5 5020.1 4948.4 5014.2 4951.5 5023.7 4959.6 5017.8 4962.7 5008.3 4965.8 5017.8 4962.7 5008.3 4959.6 5017.8 4956.5 5008.3 4966.5 5008.3 4958.4 5014.2 4961.5 5023.7 4958.4 5014.2 4966.5 5008.3 4976.5 5008.3 4984.6 5014.2 4992.7 5008.3 5000.8 5014.2 5008.9 5020.1 5000.8 5014.2 5008.9 5008.3 5000.8 5014.2 5008.9 5008.3 5000.8 5002.4 4997.7 4992.9 5000.8 5002.4 4992.7 4996.5 4995.8 4987 4985.8 4987 4993.9 4992.9 4985.8 4987 4982.7 4996.5" clip-path="url(#a)" fill="none" stroke="#000" stroke-linecap="round"/>
<polyline points="4982.7 4996.5 4990.8 5002.4 4993.9 4992.9 5002 4998.8 4998.9 4989.3 4990.8 4983.4 4982.7 4977.5 4974.6 4971.6 4982.7 4965.8 4985.8 4956.3 4993.9 4950.4 4983.9 4950.4 4980.8 4959.9 4988.9 4954 4978.9 4954 4987 4948.1 4995 4942.3 4985 4942.3 4988.1 4951.8 4996.2 4957.6 4986.2 4957.6 4996.2 4957.6 4988.1 4951.8 4998.1 4951.8 4995 4961.3 4992 4951.8 4982 4951.8 4992 4951.8 4995 4961.3 4992 4970.8 4983.9 4976.7 4987 4986.2 4978.9 4992 4970.8 4997.9 4978.9 4992 4982 5001.6 4978.9 4992 4982 5001.6 4990 4995.7 5e3 4995.7 4990 4995.7 4998.1 4989.8 5006.2 4995.7" clip-path="url(#a)" fill="none" stroke="#000" stroke-linecap="round"/>
<polyline points="5006.2 4995.7 5009.3 4986.2 5001.2 4992 5009.3 4986.2 5001.2 4980.3 4993.1 4986.2 5001.2 4992 4993.1 4997.9 5003.1 4997.9 5011.2 4992 5019.3 4986.2 5027.4 4980.3 5030.5 4989.8 5038.6 4995.7 5041.7 5005.2 5044.8 4995.7 5036.7 4989.8 5039.8 4999.3 5042.9 4989.8 5046 4999.3 5049 5008.8 5052.1 4999.3 5042.1 4999.3 5034 5005.2 5037.1 4995.7 5034 5005.2 5042.1 4999.3 5039 5008.8 5031 5002.9 5041 5002.9 5044 4993.4 5041 5002.9 5031 5002.9 5022.9 4997.1 5019.8 4987.6 5009.8 4987.6 5006.7 4978 5003.6 4968.5 5006.7 4978 4996.7 4978 5006.7 4978 4996.7 4978 4999.8 4987.6" clip-path="url(#a)" fill="none" stroke="#000" stroke-linecap="round"/>
<polyline points="4999.8 4987.6 4996.7 4997.1 4999.8 4987.6 5002.9 4997.1 4994.8 5002.9 5002.9 5008.8 4999.8 4999.3 5002.9 5008.8 5011 5002.9 5007.9 4993.4 4999.8 4999.3 4996.7 4989.8 4993.6 4999.3 4996.7 5008.8 4999.8 5018.3 5002.9 5027.8 4992.9 5027.8 4984.8 5033.7 4974.8 5033.7 4982.9 5039.6 4991 5033.7 4981 5033.7 4989 5039.6 4979 5039.6 4969 5039.6 4977.1 5045.5 4980.2 5036 4977.1 5026.5 4985.2 5032.3 4977.1 5026.5 4980.2 5036 4972.1 5030.1 4980.2 5024.2 4977.1 5033.7 4985.2 5039.6 4977.1 5033.7 4980.2 5024.2 4988.3 5018.3 4998.3 5018.3 5001.4 5008.8 5011.4 5008.8 5021.4 5008.8 5011.4 5008.8" clip-path="url(#a)" fill="none" stroke="#000" stroke-linecap="round"/>
<polyline points="5011.4 5008.8 5014.5 4999.3 5011.4 5008.8 5014.5 4999.3 5004.5 4999.3 4996.4 4993.4 5004.5 4999.3 4994.5 4999.3 4991.4 4989.8 4983.3 4995.7 4993.3 4995.7 4983.3 4995.7 4986.4 5005.2 4996.4 5005.2 4993.3 4995.7 5003.3 4995.7 4995.2 4989.8 4985.2 4989.8 4975.2 4989.8 4965.2 4989.8 4968.3 4980.3 4965.2 4970.8 4968.3 4961.3 4960.2 4967.2 4963.3 4976.7 4966.4 4967.2 4958.3 4973 4961.4 4963.5 4964.5 4954 4956.4 4959.9 4964.5 4965.8 4974.5 4965.8 4966.4 4971.6 4974.5 4965.8 4964.5 4965.8 4972.6 4959.9 4975.7 4969.4 4967.6 4963.5 4959.5 4969.4 4967.6 4963.5 4975.7 4969.4 4978.8 4978.9 4975.7 4988.4" clip-path="url(#a)" fill="none" stroke="#000" stroke-linecap="round"/>
<polyline points="4975.7 4988.4 4983.8 4994.3 4980.7 5003.8 4977.6 5013.3 4980.7 5003.8 4988.8 5009.7 4980.7 5003.8 4988.8 5009.7 4991.9 5000.2 4999.9 4994.3 4991.9 5000.2 4994.9 4990.7 5004.9 4990.7 5001.9 4981.2 4998.8 4990.7 5001.9 4981.2 4991.9 4981.2 4988.8 4990.7 4998.8 4990.7 4995.7 5000.2 5003.8 4994.3 5006.9 4984.8 5009.9 4975.3 5013 4965.8 5021.1 4971.6 5031.1 4971.6 5039.2 4977.5 5036.1 4968 5026.1 4968 5034.2 4973.9 5031.1 4964.4 5039.2 4970.3 5047.3 4976.1 5044.2 4966.6 5036.1 4972.5 5033 4982 5029.9 4972.5 5033 4982 5036.1 4972.5 5039.2 4982 5029.2 4982 5037.3 4976.1 5034.2 4966.6" clip-path="url(#a)" fill="none" stroke="#000" stroke-linecap="round"/>
<polyline points="5034.2 4966.6 5037.3 4976.1 5029.2 4982 5019.2 4982 5011.1 4976.1 5003 4982 4994.9 4976.1 4986.9 4970.3 4994.9 4976.1 4986.9 4982 4994.9 4976.1 4986.9 4982 4994.9 4987.9 4998 4997.4 4994.9 4987.9 5003 4993.8 4999.9 5003.3 5009.9 5003.3 5001.9 4997.4 5009.9 5003.3 5013 4993.8 5004.9 4987.9 5001.9 4997.4 4993.8 4991.5 4996.9 5001 5004.9 5006.9 5013 5012.8 5021.1 5018.7 5013 5024.5 5009.9 5034.1 5001.9 5039.9 5011.9 5039.9 5014.9 5030.4 5006.9 5036.3 5016.9 5036.3 5008.8 5042.2 5000.7 5048.1 5010.7 5048.1 5007.6 5038.5 4999.5 5032.7 5009.5 5032.7 4999.5 5032.7 5007.6 5038.5" clip-path="url(#a)" fill="none" stroke="#000" stroke-linecap="round"/>
<polyline points="5007.6 5038.5 4997.6 5038.5 5000.7 5029 5003.8 5038.5 5013.8 5038.5 5003.8 5038.5 5000.7 5029 5003.8 5019.5 5011.9 5013.6 5008.8 5004.1 5016.9 4998.3 5024.9 4992.4 5016.9 4998.3 5013.8 4988.7 5016.9 4998.3 5013.8 4988.7 5005.7 4994.6 4995.7 4994.6 5005.7 4994.6 4997.6 5000.5 4989.5 4994.6 4986.4 5004.1 4994.5 4998.3 4986.4 5004.1 4994.5 5010 5002.6 5004.1 4994.5 4998.3 5002.6 4992.4 4992.6 4992.4 4984.5 4998.3 4976.4 5004.1 4968.3 5010 4965.2 5000.5 4957.1 4994.6 4954 4985.1 4951 4994.6 4959 5000.5 4956 4991 4952.9 5000.5 4949.8 4991 4946.7 4981.5 4943.6 4991 4953.6 4991" clip-path="url(#a)" fill="none" stroke="#000" stroke-linecap="round"/>
<polyline points="4953.6 4991 4961.7 4985.1 4958.6 4994.6 4961.7 4985.1 4953.6 4991 4956.7 4981.5 4964.8 4987.4 4954.8 4987.4 4951.7 4996.9 4954.8 4987.4 4964.8 4987.4 4972.9 4993.2 4976 5002.7 4986 5002.7 4989 5012.3 4992.1 5021.8 4989 5012.3 4999 5012.3 4989 5012.3 4999 5012.3 4996 5002.7 4999 4993.2 4996 5002.7 4992.9 4993.2 5001 4987.4 4992.9 4981.5 4996 4991 4992.9 4981.5 4984.8 4987.4 4987.9 4996.9 4996 4991 4999 5000.5 5002.1 4991 4999 4981.5 4996 4972 4992.9 4962.5 5002.9 4962.5 5011 4956.6 5021 4956.6 5012.9 4950.7 5004.8 4956.6 5014.8 4956.6 5006.7 4950.7" clip-path="url(#a)" fill="none" stroke="#000" stroke-linecap="round"/>
<polyline points="5006.7 4950.7 5016.7 4950.7 5026.7 4950.7 5018.6 4944.8 5015.5 4954.3 5018.6 4963.8 5010.5 4958 5018.6 4963.8 5015.5 4954.3 5023.6 4960.2 5015.5 4966.1 5018.6 4956.6 5010.5 4950.7 5018.6 4956.6 5015.5 4966.1 5007.4 4972 4997.4 4972 4994.3 4981.5 4984.3 4981.5 4974.3 4981.5 4984.3 4981.5 4981.2 4991 4984.3 4981.5 4981.2 4991 4991.2 4991 4999.3 4996.9 4991.2 4991 5001.2 4991 5004.3 5000.5 5012.4 4994.6 5002.4 4994.6 5012.4 4994.6 5009.3 4985.1 4999.3 4985.1 5002.4 4994.6 4992.4 4994.6 5000.5 5000.5 5010.5 5000.5 5020.5 5000.5 5030.5 5000.5 5027.4 5010 5030.5 5019.5 5027.4 5029" clip-path="url(#a)" fill="none" stroke="#000" stroke-linecap="round"/>
<polyline points="5027.4 5029 5035.5 5023.2 5032.4 5013.6 5029.3 5023.2 5037.4 5017.3 5034.3 5026.8 5031.2 5036.3 5039.3 5030.4 5031.2 5024.5 5021.2 5024.5 5029.3 5018.7 5021.2 5024.5 5031.2 5024.5 5023.1 5030.4 5020 5020.9 5028.1 5026.8 5036.2 5020.9 5028.1 5026.8 5020 5020.9 5017 5011.4 5020 5001.9 5012 4996 5015 4986.5 5018.1 4977 5015 4986.5 5007 4980.6 5015 4986.5 5007 4980.6 5003.9 4990.1 4995.8 4996 5003.9 4990.1 5000.8 4999.6 4990.8 4999.6 4993.9 5009.2 4997 4999.6 4993.9 5009.2 5003.9 5009.2 5007 4999.6 4997 4999.6 5e3 4990.1 4992 4996 4988.9 5005.5 4985.8 5015" clip-path="url(#a)" fill="none" stroke="#000" stroke-linecap="round"/>
<polyline points="4985.8 5015 4982.7 5024.5 4974.6 5018.7 4964.6 5018.7 4956.5 5012.8 4959.6 5022.3 4969.6 5022.3 4961.5 5016.4 4964.6 5025.9 4956.5 5020.1 4948.4 5014.2 4951.5 5023.7 4959.6 5017.8 4962.7 5008.3 4965.8 5017.8 4962.7 5008.3 4959.6 5017.8 4956.5 5008.3 4966.5 5008.3 4958.4 5014.2 4961.5 5023.7 4958.4 5014.2 4966.5 5008.3 4976.5 5008.3 4984.6 5014.2 4992.7 5008.3 5000.8 5014.2 5008.9 5020.1 5000.8 5014.2 5008.9 5008.3 5000.8 5014.2 5008.9 5008.3 5000.8 5002.4 4997.7 4992.9 5000.8 5002.4 4992.7 4996.5 4995.8 4987 4985.8 4987 4993.9 4992.9 4985.8 4987 4982.7 4996.5 4990.8 5002.4 4993.9 4992.9" clip-path="url(#a)" fill="none" stroke="#000" stroke-linecap="round"/>
<polyline points="4993.9 4992.9 5002 4998.8 4998.9 4989.3 4990.8 4983.4 4982.7 4977.5 4974.6 4971.6 4982.7 4965.8 4985.8 4956.3 4993.9 4950.4 4983.9 4950.4 4980.8 4959.9 4988.9 4954 4978.9 4954 4987 4948.1 4995 4942.3 4985 4942.3 4988.1 4951.8 4996.2 4957.6 4986.2 4957.6 4996.2 4957.6 4988.1 4951.8 4998.1 4951.8 4995 4961.3 4992 4951.8 4982 4951.8 4992 4951.8 4995 4961.3 4992 4970.8 4983.9 4976.7 4987 4986.2 4978.9 4992 4970.8 4997.9 4978.9 4992 4982 5001.6 4978.9 4992 4982 5001.6 4990 4995.7 5e3 4995.7 4990 4995.7 4998.1 4989.8 5006.2 4995.7 5009.3 4986.2 5001.2 4992" clip-path="url(#a)" fill="none" stroke="#000" stroke-linecap="round"/>
<polyline points="5001.2 4992 5009.3 4986.2 5001.2 4980.3 4993.1 4986.2 5001.2 4992 4993.1 4997.9 5003.1 4997.9 5011.2 4992 5019.3 4986.2 5027.4 4980.3 5030.5 4989.8 5038.6 4995.7 5041.7 5005.2 5044.8 4995.7 5036.7 4989.8 5039.8 4999.3 5042.9 4989.8 5046 4999.3 5049 5008.8 5052.1 4999.3 5042.1 4999.3 5034 5005.2 5037.1 4995.7 5034 5005.2 5042.1 4999.3 5039 5008.8 5031 5002.9 5041 5002.9 5044 4993.4 5041 5002.9 5031 5002.9 5022.9 4997.1 5019.8 4987.6 5009.8 4987.6 5006.7 4978 5003.6 4968.5 5006.7 4978 4996.7 4978 5006.7 4978 4996.7 4978 4999.8 4987.6 4996.7 4997.1 4999.8 4987.6" clip-path="url(#a)" fill="none" stroke="#000" stroke-linecap="round"/>
<polyline points="4999.8 4987.6 5002.9 4997.1 4994.8 5002.9 5002.9 5008.8 4999.8 4999.3 5002.9 5008.8 5011 5002.9 5007.9 4993.4 4999.8 4999.3 4996.7 4989.8 4993.6 4999.3 4996.7 5008.8 4999.8 5018.3 5002.9 5027.8 4992.9 5027.8 4984.8 5033.7 4974.8 5033.7 4982.9 5039.6 4991 5033.7 4981 5033.7 4989 5039.6 4979 5039.6 4969 5039.6 4977.1 5045.5 4980.2 5036 4977.1 5026.5 4985.2 5032.3 4977.1 5026.5 4980.2 5036 4972.1 5030.1 4980.2 5024.2 4977.1 5033.7 4985.2 5039.6 4977.1 5033.7 4980.2 5024.2 4988.3 5018.3 4998.3 5018.3 5001.4 5008.8 5011.4 5008.8 5021.4 5008.8 5011.4 5008.8 5014.5 4999.3 5011.4 5008.8" clip-path="url(#a)" fill="none" stroke="#000" stroke-linecap="round"/>
<polyline points="5011.4 5008.8 5014.5 4999.3 5004.5 4999.3 4996.4 4993.4 5004.5 4999.3 4994.5 4999.3 4991.4 4989.8 4983.3 4995.7 4993.3 4995.7 4983.3 4995.7 4986.4 5005.2 4996.4 5005.2 4993.3 4995.7 5003.3 4995.7 4995.2 4989.8 4985.2 4989.8 4975.2 4989.8 4965.2 4989.8 4968.3 4980.3 4965.2 4970.8 4968.3 4961.3 4960.2 4967.2 4963.3 4976.7 4966.4 4967.2 4958.3 4973 4961.4 4963.5 4964.5 4954 4956.4 4959.9 4964.5 4965.8 4974.5 4965.8 4966.4 4971.6 4974.5 4965.8 4964.5 4965.8 4972.6 4959.9 4975.7 4969.4 4967.6 4963.5 4959.5 4969.4 4967.6 4963.5 4975.7 4969.4 4978.8 4978.9 4975.7 4988.4 4983.8 4994.3 4980.7 5003.8" clip-path="url(#a)" fill="none" stroke="#000" stroke-linecap="round"/>
<polyline points="4980.7 5003.8 4977.6 5013.3 4980.7 5003.8 4988.8 5009.7 4980.7 5003.8 4988.8 5009.7 4991.9 5000.2 4999.9 4994.3 4991.9 5000.2 4994.9 4990.7 5004.9 4990.7 5001.9 4981.2 4998.8 4990.7 5001.9 4981.2 4991.9 4981.2 4988.8 4990.7 4998.8 4990.7 4995.7 5000.2 5003.8 4994.3 5006.9 4984.8 5009.9 4975.3 5013 4965.8 5021.1 4971.6 5031.1 4971.6 5039.2 4977.5 5036.1 4968 5026.1 4968 5034.2 4973.9 5031.1 4964.4 5039.2 4970.3 5047.3 4976.1 5044.2 4966.6 5036.1 4972.5 5033 4982 5029.9 4972.5 5033 4982 5036.1 4972.5 5039.2 4982 5029.2 4982 5037.3 4976.1 5034.2 4966.6 5037.3 4976.1 5029.2 4982" clip-path="url(#a)" fill="none" stroke="#000" stroke-linecap="round"/>
<polyline points="5029.2 4982 5019.2 4982 5011.1 4976.1 5003 4982 4994.9 4976.1 4986.9 4970.3 4994.9 4976.1 4986.9 4982 4994.9 4976.1 4986.9 4982 4994.9 4987.9 4998 4997.4 4994.9 4987.9 5003 4993.8 4999.9 5003.3 5009.9 5003.3 5001.9 4997.4 5009.9 5003.3 5013 4993.8 5004.9 4987.9 5001.9 4997.4 4993.8 4991.5 4996.9 5001 5004.9 5006.9 5013 5012.8 5021.1 5018.7 5013 5024.5 5009.9 5034.1 5001.9 5039.9 5011.9 5039.9 5014.9 5030.4 5006.9 5036.3 5016.9 5036.3 5008.8 5042.2 5000.7 5048.1 5010.7 5048.1 5007.6 5038.5 4999.5 5032.7 5009.5 5032.7 4999.5 5032.7 5007.6 5038.5 4997.6 5038.5 5000.7 5029" clip-path="url(#a)" fill="none" stroke="#000" stroke-linecap="round"/>
<polyline points="5000.7 5029 5003.8 5038.5 5013.8 5038.5 5003.8 5038.5 5000.7 5029 5003.8 5019.5 5011.9 5013.6 5008.8 5004.1 5016.9 4998.3 5024.9 4992.4 5016.9 4998.3 5013.8 4988.7 5016.9 4998.3 5013.8 4988.7 5005.7 4994.6 4995.7 4994.6 5005.7 4994.6 4997.6 5000.5 4989.5 4994.6 4986.4 5004.1 4994.5 4998.3 4986.4 5004.1 4994.5 5010 5002.6 5004.1 4994.5 4998.3 5002.6 4992.4 4992.6 4992.4 4984.5 4998.3 4976.4 5004.1 4968.3 5010 4965.2 5000.5 4957.1 4994.6 4954 4985.1 4951 4994.6 4959 5000.5 4956 4991 4952.9 5000.5 4949.8 4991 4946.7 4981.5 4943.6 4991 4953.6 4991 4961.7 4985.1 4958.6 4994.6" clip-path="url(#a)" fill="none" stroke="#000" stroke-linecap="round"/>
<polyline points="4958.6 4994.6 4961.7 4985.1 4953.6 4991 4956.7 4981.5 4964.8 4987.4 4954.8 4987.4 4951.7 4996.9 4954.8 4987.4 4964.8 4987.4 4972.9 4993.2 4976 5002.7 4986 5002.7 4989 5012.3 4992.1 5021.8 4989 5012.3 4999 5012.3 4989 5012.3 4999 5012.3 4996 5002.7 4999 4993.2 4996 5002.7 4992.9 4993.2 5001 4987.4 4992.9 4981.5 4996 4991 4992.9 4981.5 4984.8 4987.4 4987.9 4996.9 4996 4991 4999 5000.5 5002.1 4991 4999 4981.5 4996 4972 4992.9 4962.5 5002.9 4962.5 5011 4956.6 5021 4956.6 5012.9 4950.7 5004.8 4956.6 5014.8 4956.6 5006.7 4950.7 5016.7 4950.7 5026.7 4950.7" clip-path="url(#a)" fill="none" stroke="#000" stroke-linecap="round"/>
<polyline points="5026.7 4950.7 5018.6 4944.8 5015.5 4954.3 5018.6 4963.8 5010.5 4958 5018.6 4963.8 5015.5 4954.3 5023.6 4960.2 5015.5 4966.1 5018.6 4956.6 5010.5 4950.7 5018.6 4956.6 5015.5 4966.1 5007.4 4972 4997.4 4972 4994.3 4981.5 4984.3 4981.5 4974.3 4981.5 4984.3 4981.5 4981.2 4991 4984.3 4981.5 4981.2 4991 4991.2 4991 4999.3 4996.9 4991.2 4991 5001.2 4991 5004.3 5000.5 5012.4 4994.6 5002.4 4994.6 5012.4 4994.6 5009.3 4985.1 4999.3 4985.1 5002.4 4994.6 4992.4 4994.6 5000.5 5000.5 5010.5 5000.5 5020.5 5000.5 5030.5 5000.5 5027.4 5010 5030.5 5019.5 5027.4 5029 5035.5 5023.2 5032.4 5013.6" clip-path="url(#a)" fill="none" stroke="#000" stroke-linecap="round"/>
<polyline points="5032.4 5013.6 5029.3 5023.2 5037.4 5017.3 5034.3 5026.8 5031.2 5036.3 5039.3 5030.4 5031.2 5024.5 5021.2 5024.5 5029.3 5018.7 5021.2 5024.5 5031.2 5024.5 5023.1 5030.4 5020 5020.9 5028.1 5026.8 5036.2 5020.9 5028.1 5026.8 5020 5020.9 5017 5011.4 5020 5001.9 5012 4996 5015 4986.5 5018.1 4977 5015 4986.5 5007 4980.6 5015 4986.5 5007 4980.6 5003.9 4990.1 4995.8 4996 5003.9 4990.1 5000.8 4999.6 4990.8 4999.6 4993.9 5009.2 4997 4999.6 4993.9 5009.2 5003.9 5009.2 5007 4999.6 4997 4999.6 5e3 4990.1 4992 4996 4988.9 5005.5 4985.8 5015 4982.7 5024.5 4974.6 5018.7" clip-path="url(#a)" fill="none" stroke="#000" stroke-linecap="round"/>
<polyline points="4974.6 5018.7 4964.6 5018.7 4956.5 5012.8 4959.6 5022.3 4969.6 5022.3 4961.5 5016.4 4964.6 5025.9 4956.5 5020.1 4948.4 5014.2 4951.5 5023.7 4959.6 5017.8 4962.7 5008.3 4965.8 5017.8 4962.7 5008.3 4959.6 5017.8 4956.5 5008.3 4966.5 5008.3 4958.4 5014.2 4961.5 5023.7 4958.4 5014.2 4966.5 5008.3 4976.5 5008.3 4984.6 5014.2 4992.7 5008.3 5000.8 5014.2 5008.9 5020.1 5000.8 5014.2 5008.9 5008.3 5000.8 5014.2 5008.9 5008.3 5000.8 5002.4 4997.7 4992.9 5000.8 5002.4 4992.7 4996.5 4995.8 4987 4985.8 4987 4993.9 4992.9 4985.8 4987 4982.7 4996.5 4990.8 5002.4 4993.9 4992.9 5002 4998.8 4998.9 4989.3" clip-path="url(#a)" fill="none" stroke="#000" stroke-linecap="round"/>
<polyline points="4998.9 4989.3 4990.8 4983.4 4982.7 4977.5 4974.6 4971.6 4982.7 4965.8 4985.8 4956.3 4993.9 4950.4 4983.9 4950.4 4980.8 4959.9 4988.9 4954 4978.9 4954 4987 4948.1 4995 4942.3 4985 4942.3 4988.1 4951.8 4996.2 4957.6 4986.2 4957.6 4996.2 4957.6 4988.1 4951.8 4998.1 4951.8 4995 4961.3 4992 4951.8 4982 4951.8 4992 4951.8 4995 4961.3 4992 4970.8 4983.9 4976.7 4987 4986.2 4978.9 4992 4970.8 4997.9 4978.9 4992 4982 5001.6 4978.9 4992 4982 5001.6 4990 4995.7 5e3 4995.7 4990 4995.7 4998.1 4989.8 5006.2 4995.7 5009.3 4986.2 5001.2 4992 5009.3 4986.2 5001.2 4980.3" clip-path="url(#a)" fill="none" stroke="#000" stroke-linecap="round"/>
<polyline points="5001.2 4980.3 4993.1 4986.2 5001.2 4992 4993.1 4997.9 5003.1 4997.9 5011.2 4992 5019.3 4986.2 5027.4 4980.3 5030.5 4989.8 5038.6 4995.7 5041.7 5005.2 5044.8 4995.7 5036.7 4989.8 5039.8 4999.3 5042.9 4989.8 5046 4999.3 5049 5008.8 5052.1 4999.3 5042.1 4999.3 5034 5005.2 5037.1 4995.7 5034 5005.2 5042.1 4999.3 5039 5008.8 5031 5002.9 5041 5002.9 5044 4993.4 5041 5002.9 5031 5002.9 5022.9 4997.1 5019.8 4987.6 5009.8 4987.6 5006.7 4978 5003.6 4968.5 5006.7 4978 4996.7 4978 5006.7 4978 4996.7 4978 4999.8 4987.6 4996.7 4997.1 4999.8 4987.6 5002.9 4997.1 4994.8 5002.9" clip-path="url(#a)" fill="none" stroke="#000" stroke-linecap="round"/>
<polyline points="4994.8 5002.9 5002.9 5008.8 4999.8 4999.3 5002.9 5008.8 5011 5002.9 5007.9 4993.4 4999.8 4999.3 4996.7 4989.8 4993.6 4999.3 4996.7 5008.8 4999.8 5018.3 5002.9 5027.8 4992.9 5027.8 4984.8 5033.7 4974.8 5033.7 4982.9 5039.6 4991 5033.7 4981 5033.7 4989 5039.6 4979 5039.6 4969 5039.6 4977.1 5045.5 4980.2 5036 4977.1 5026.5 4985.2 5032.3 4977.1 5026.5 4980.2 5036 4972.1 5030.1 4980.2 5024.2 4977.1 5033.7 4985.2 5039.6 4977.1 5033.7 4980.2 5024.2 4988.3 5018.3 4998.3 5018.3 5001.4 5008.8 5011.4 5008.8 5021.4 5008.8 5011.4 5008.8 5014.5 4999.3 5011.4 5008.8 5014.5 4999.3 5004.5 4999.3" clip-path="url(#a)" fill="none" stroke="#000" stroke-linecap="round"/>
<polyline points="5004.5 4999.3 4996.4 4993.4 5004.5 4999.3 4994.5 4999.3 4991.4 4989.8 4983.3 4995.7 4993.3 4995.7 4983.3 4995.7 4986.4 5005.2 4996.4 5005.2 4993.3 4995.7 5003.3 4995.7 4995.2 4989.8 4985.2 4989.8 4975.2 4989.8 4965.2 4989.8 4968.3 4980.3 4965.2 4970.8 4968.3 4961.3 4960.2 4967.2 4963.3 4976.7 4966.4 4967.2 4958.3 4973 4961.4 4963.5 4964.5 4954 4956.4 4959.9 4964.5 4965.8 4974.5 4965.8 4966.4 4971.6 4974.5 4965.8 4964.5 4965.8 4972.6 4959.9 4975.7 4969.4 4967.6 4963.5 4959.5 4969.4 4967.6 4963.5 4975.7 4969.4 4978.8 4978.9 4975.7 4988.4 4983.8 4994.3 4980.7 5003.8 4977.6 5013.3 4980.7 5003.8" clip-path="url(#a)" fill="none" stroke="#000" stroke-linecap="round"/>
<polyline points="4980.7 5003.8 4988.8 5009.7 4980.7 5003.8 4988.8 5009.7 4991.9 5000.2 4999.9 4994.3 4991.9 5000.2 4994.9 4990.7 5004.9 4990.7 5001.9 4981.2 4998.8 4990.7 5001.9 4981.2 4991.9 4981.2 4988.8 4990.7 4998.8 4990.7 4995.7 5000.2 5003.8 4994.3 5006.9 4984.8 5009.9 4975.3 5013 4965.8 5021.1 4971.6 5031.1 4971.6 5039.2 4977.5 5036.1 4968 5026.1 4968 5034.2 4973.9 5031.1 4964.4 5039.2 4970.3 5047.3 4976.1 5044.2 4966.6 5036.1 4972.5 5033 4982 5029.9 4972.5 5033 4982 5036.1 4972.5 5039.2 4982 5029.2 4982 5037.3 4976.1 5034.2 4966.6 5037.3 4976.1 5029.2 4982 5019.2 4982 5011.1 4976.1" clip-path="url(#a)" fill="none" stroke="#000" stroke-linecap="round"/>
<polyline points="5011.1 4976.1 5003 4982 4994.9 4976.1 4986.9 4970.3 4994.9 4976.1 4986.9 4982 4994.9 4976.1 4986.9 4982 4994.9 4987.9 4998 4997.4 4994.9 4987.9 5003 4993.8 4999.9 5003.3 5009.9 5003.3 5001.9 4997.4 5009.9 5003.3 5013 4993.8 5004.9 4987.9 5001.9 4997.4 4993.8 4991.5 4996.9 5001 5004.9 5006.9 5013 5012.8 5021.1 5018.7 5013 5024.5 5009.9 5034.1 5001.9 5039.9 5011.9 5039.9 5014.9 5030.4 5006.9 5036.3 5016.9 5036.3 5008.8 5042.2 5000.7 5048.1 5010.7 5048.1 5007.6 5038.5 4999.5 5032.7 5009.5 5032.7 4999.5 5032.7 5007.6 5038.5 4997.6 5038.5 5000.7 5029 5003.8 5038.5 5013.8 5038.5" clip-path="url(#a)" fill="none" stroke="#000" stroke-linecap="round"/>
<polyline points="5013.8 5038.5 5003.8 5038.5 5000.7 5029 5003.8 5019.5 5011.9 5013.6 5008.8 5004.1 5016.9 4998.3 5024.9 4992.4 5016.9 4998.3 5013.8 4988.7 5016.9 4998.3 5013.8 4988.7 5005.7 4994.6 4995.7 4994.6 5005.7 4994.6 4997.6 5000.5 4989.5 4994.6 4986.4 5004.1 4994.5 4998.3 4986.4 5004.1 4994.5 5010 5002.6 5004.1 4994.5 4998.3 5002.6 4992.4 4992.6 4992.4 4984.5 4998.3 4976.4 5004.1 4968.3 5010 4965.2 5000.5 4957.1 4994.6 4954 4985.1 4951 4994.6 4959 5000.5 4956 4991 4952.9 5000.5 4949.8 4991 4946.7 4981.5 4943.6 4991 4953.6 4991 4961.7 4985.1 4958.6 4994.6 4961.7 4985.1 4953.6 4991" clip-path="url(#a)" fill="none" stroke="#000" stroke-linecap="round"/>
<polyline points="4953.6 4991 4956.7 4981.5 4964.8 4987.4 4954.8 4987.4 4951.7 4996.9 4954.8 4987.4 4964.8 4987.4 4972.9 4993.2 4976 5002.7 4986 5002.7 4989 5012.3 4992.1 5021.8 4989 5012.3 4999 5012.3 4989 5012.3 4999 5012.3 4996 5002.7 4999 4993.2 4996 5002.7 4992.9 4993.2 5001 4987.4 4992.9 4981.5 4996 4991 4992.9 4981.5 4984.8 4987.4 4987.9 4996.9 4996 4991 4999 5000.5 5002.1 4991 4999 4981.5 4996 4972 4992.9 4962.5 5002.9 4962.5 5011 4956.6 5021 4956.6 5012.9 4950.7 5004.8 4956.6 5014.8 4956.6 5006.7 4950.7 5016.7 4950.7 5026.7 4950.7 5018.6 4944.8 5015.5 4954.3" clip-path="url(#a)" fill="none" stroke="#000" stroke-linecap="round"/>
<polyline points="5015.5 4954.3 5018.6 4963.8 5010.5 4958 5018.6 4963.8 5015.5 4954.3 5023.6 4960.2 5015.5 4966.1 5018.6 4956.6 5010.5 4950.7 5018.6 4956.6 5015.5 4966.1 5007.4 4972 4997.4 4972 4994.3 4981.5 4984.3 4981.5 4974.3 4981.5 4984.3 4981.5 4981.2 4991 4984.3 4981.5 4981.2 4991 4991.2 4991 4999.3 4996.9 4991.2 4991 5001.2 4991 5004.3 5000.5 5012.4 4994.6 5002.4 4994.6 5012.4 4994.6 5009.3 4985.1 4999.3 4985.1 5002.4 4994.6 4992.4 4994.6 5000.5 5000.5 5010.5 5000.5 5020.5 5000.5 5030.5 5000.5 5027.4 5010 5030.5 5019.5 5027.4 5029 5035.5 5023.2 5032.4 5013.6 5029.3 5023.2 5037.4 5017.3" clip-path="url(#a)" fill="none" stroke="#000" stroke-linecap="round"/>
<polyline points="5037.4 5017.3 5034.3 5026.8 5031.2 5036.3 5039.3 5030.4 5031.2 5024.5 5021.2 5024.5 5029.3 5018.7 5021.2 5024.5 5031.2 5024.5 5023.1 5030.4 5020 5020.9 5028.1 5026.8 5036.2 5020.9 5028.1 5026.8 5020 5020.9 5017 5011.4 5020 5001.9 5012 4996 5015 4986.5 5018.1 4977 5015 4986.5 5007 4980.6 5015 4986.5 5007 4980.6 5003.9 4990.1 4995.8 4996 5003.9 4990.1 5000.8 4999.6 4990.8 4999.6 4993.9 5009.2 4997 4999.6 4993.9 5009.2 5003.9 5009.2 5007 4999.6 4997 4999.6 5e3 4990.1 4992 4996 4988.9 5005.5 4985.8 5015 4982.7 5024.5 4974.6 5018.7 4964.6 5018.7 4956.5 5012.8" clip-path="url(#a)" fill="none" stroke="#000" stroke-linecap="round"/>
<polyline points="4956.5 5012.8 4959.6 5022.3 4969.6 5022.3 4961.5 5016.4 4964.6 5025.9 4956.5 5020.1 4948.4 5014.2 4951.5 5023.7 4959.6 5017.8 4962.7 5008.3 4965.8 5017.8 4962.7 5008.3 4959.6 5017.8 4956.5 5008.3 4966.5 5008.3 4958.4 5014.2 4961.5 5023.7 4958.4 5014.2 4966.5 5008.3 4976.5 5008.3 4984.6 5014.2 4992.7 5008.3 5000.8 5014.2 5008.9 5020.1 5000.8 5014.2 5008.9 5008.3 5000.8 5014.2 5008.9 5008.3 5000.8 5002.4 4997.7 4992.9 5000.8 5002.4 4992.7 4996.5 4995.8 4987 4985.8 4987 4993.9 4992.9 4985.8 4987 4982.7 4996.5 4990.8 5002.4 4993.9 4992.9 5002 4998.8 4998.9 4989.3 4990.8 4983.4 4982.7 4977.5" clip-path="url(#a)" fill="none" stroke="#000" stroke-linecap="round"/>
<polyline points="4982.7 4977.5 4974.6 4971.6 4982.7 4965.8 4985.8 4956.3 4993.9 4950.4 4983.9 4950.4 4980.8 4959.9 4988.9 4954 4978.9 4954 4987 4948.1 4995 4942.3 4985 4942.3 4988.1 4951.8 4996.2 4957.6 4986.2 4957.6 4996.2 4957.6 4988.1 4951.8 4998.1 4951.8 4995 4961.3 4992 4951.8 4982 4951.8 4992 4951.8 4995 4961.3 4992 4970.8 4983.9 4976.7 4987 4986.2 4978.9 4992 4970.8 4997.9 4978.9 4992 4982 5001.6 4978.9 4992 4982 5001.6 4990 4995.7 5e3 4995.7 4990 4995.7 4998.1 4989.8 5006.2 4995.7 5009.3 4986.2 5001.2 4992 5009.3 4986.2 5001.2 4980.3 4993.1 4986.2 5001.2 4992" clip-path="url(#a)" fill="none" stroke="#000" stroke-linecap="round"/>
<polyline points="5001.2 4992 4993.1 4997.9 5003.1 4997.9 5011.2 4992 5019.3 4986.2 5027.4 4980.3 5030.5 4989.8 5038.6 4995.7 5041.7 5005.2 5044.8 4995.7 5036.7 4989.8 5039.8 4999.3 5042.9 4989.8 5046 4999.3 5049 5008.8 5052.1 4999.3 5042.1 4999.3 5034 5005.2 5037.1 4995.7 5034 5005.2 5042.1 4999.3 5039 5008.8 5031 5002.9 5041 5002.9 5044 4993.4 5041 5002.9 5031 5002.9 5022.9 4997.1 5019.8 4987.6 5009.8 4987.6 5006.7 4978 5003.6 4968.5 5006.7 4978 4996.7 4978 5006.7 4978 4996.7 4978 4999.8 4987.6 4996.7 4997.1 4999.8 4987.6 5002.9 4997.1 4994.8 5002.9 5002.9 5008.8 4999.8 4999.3" clip-path="url(#a)" fill="none" stroke="#000" stroke-linecap="round"/>
<polyline points="4999.8 4999.3 5002.9 5008.8 5011 5002.9 5007.9 4993.4 4999.8 4999.3 4996.7 4989.8 4993.6 4999.3 4996.7 5008.8 4999.8 5018.3 5002.9 5027.8 4992.9 5027.8 4984.8 5033.7 4974.8 5033.7 4982.9 5039.6 4991 5033.7 4981 5033.7 4989 5039.6 4979 5039.6 4969 5039.6 4977.1 5045.5 4980.2 5036 4977.1 5026.5 4985.2 5032.3 4977.1 5026.5 4980.2 5036 4972.1 5030.1 4980.2 5024.2 4977.1 5033.7 4985.2 5039.6 4977.1 5033.7 4980.2 5024.2 4988.3 5018.3 4998.3 5018.3 5001.4 5008.8 5011.4 5008.8 5021.4 5008.8 5011.4 5008.8 5014.5 4999.3 5011.4 5008.8 5014.5 4999.3 5004.5 4999.3 4996.4 4993.4 5004.5 4999.3" clip-path="url(#a)" fill="none" stroke="#000" stroke-linecap="round"/>
<polyline points="5004.5 4999.3 4994.5 4999.3 4991.4 4989.8 4983.3 4995.7 4993.3 4995.7 4983.3 4995.7 4986.4 5005.2 4996.4 5005.2 4993.3 4995.7 5003.3 4995.7 4995.2 4989.8 4985.2 4989.8 4975.2 4989.8 4965.2 4989.8 4968.3 4980.3 4965.2 4970.8 4968.3 4961.3 4960.2 4967.2 4963.3 4976.7 4966.4 4967.2 4958.3 4973 4961.4 4963.5 4964.5 4954 4956.4 4959.9 4964.5 4965.8 4974.5 4965.8 4966.4 4971.6 4974.5 4965.8 4964.5 4965.8 4972.6 4959.9 4975.7 4969.4 4967.6 4963.5 4959.5 4969.4 4967.6 4963.5 4975.7 4969.4 4978.8 4978.9 4975.7 4988.4 4983.8 4994.3 4980.7 5003.8 4977.6 5013.3 4980.7 5003.8 4988.8 5009.7 4980.7 5003.8" clip-path="url(#a)" fill="none" stroke="#000" stroke-linecap="round"/>
<polyline points="4980.7 5003.8 4988.8 5009.7 4991.9 5000.2 4999.9 4994.3 4991.9 5000.2 4994.9 4990.7 5004.9 4990.7 5001.9 4981.2 4998.8 4990.7 5001.9 4981.2 4991.9 4981.2 4988.8 4990.7 4998.8 4990.7 4995.7 5000.2 5003.8 4994.3 5006.9 4984.8 5009.9 4975.3 5013 4965.8 5021.1 4971.6 5031.1 4971.6 5039.2 4977.5 5036.1 4968 5026.1 4968 5034.2 4973.9 5031.1 4964.4 5039.2 4970.3 5047.3 4976.1 5044.2 4966.6 5036.1 4972.5 5033 4982 5029.9 4972.5 5033 4982 5036.1 4972.5 5039.2 4982 5029.2 4982 5037.3 4976.1 5034.2 4966.6 5037.3 4976.1 5029.2 4982 5019.2 4982 5011.1 4976.1 5003 4982 4994.9 4976.1" clip-path="url(#a)" fill="none" stroke="#000" stroke-linecap="round"/>
<polyline points="4994.9 4976.1 4986.9 4970.3 4994.9 4976.1 4986.9 4982 4994.9 4976.1 4986.9 4982 4994.9 4987.9 4998 4997.4 4994.9 4987.9 5003 4993.8 4999.9 5003.3 5009.9 5003.3 5001.9 4997.4 5009.9 5003.3 5013 4993.8 5004.9 4987.9 5001.9 4997.4 4993.8 4991.5 4996.9 5001 5004.9 5006.9 5013 5012.8 5021.1 5018.7 5013 5024.5 5009.9 5034.1 5001.9 5039.9 5011.9 5039.9 5014.9 5030.4 5006.9 5036.3 5016.9 5036.3 5008.8 5042.2 5000.7 5048.1 5010.7 5048.1 5007.6 5038.5 4999.5 5032.7 5009.5 5032.7 4999.5 5032.7 5007.6 5038.5 4997.6 5038.5 5000.7 5029 5003.8 5038.5 5013.8 5038.5 5003.8 5038.5 5000.7 5029" clip-path="url(#a)" fill="none" stroke="#000" stroke-linecap="round"/>
<polyline points="5000.7 5029 5003.8 5019.5 5011.9 5013.6 5008.8 5004.1 5016.9 4998.3 5024.9 4992.4 5016.9 4998.3 5013.8 4988.7 5016.9 4998.3 5013.8 4988.7 5005.7 4994.6 4995.7 4994.6 5005.7 4994.6 4997.6 5000.5 4989.5 4994.6 4986.4 5004.1 4994.5 4998.3 4986.4 5004.1 4994.5 5010 5002.6 5004.1 4994.5 4998.3 5002.6 4992.4 4992.6 4992.4 4984.5 4998.3 4976.4 5004.1 4968.3 5010 4965.2 5000.5 4957.1 4994.6 4954 4985.1 4951 4994.6 4959 5000.5 4956 4991 4952.9 5000.5 4949.8 4991 4946.7 4981.5 4943.6 4991 4953.6 4991 4961.7 4985.1 4958.6 4994.6 4961.7 4985.1 4953.6 4991 4956.7 4981.5 4964.8 4987.4" clip-path="url(#a)" fill="none" stroke="#000" stroke-linecap="round"/>
<polyline points="4964.8 4987.4 4954.8 4987.4 4951.7 4996.9 4954.8 4987.4 4964.8 4987.4 4972.9 4993.2 4976 5002.7 4986 5002.7 4989 5012.3 4992.1 5021.8 4989 5012.3 4999 5012.3 4989 5012.3 4999 5012.3 4996 5002.7 4999 4993.2 4996 5002.7 4992.9 4993.2 5001 4987.4 4992.9 4981.5 4996 4991 4992.9 4981.5 4984.8 4987.4 4987.9 4996.9 4996 4991 4999 5000.5 5002.1 4991 4999 4981.5 4996 4972 4992.9 4962.5 5002.9 4962.5 5011 4956.6 5021 4956.6 5012.9 4950.7 5004.8 4956.6 5014.8 4956.6 5006.7 4950.7 5016.7 4950.7 5026.7 4950.7 5018.6 4944.8 5015.5 4954.3 5018.6 4963.8 5010.5 4958" clip-path="url(#a)" fill="none" stroke="#000" stroke-linecap="round"/>
<polyline points="5010.5 4958 5018.6 4963.8 5015.5 4954.3 5023.6 4960.2 5015.5 4966.1 5018.6 4956.6 5010.5 4950.7 5018.6 4956.6 5015.5 4966.1 5007.4 4972 4997.4 4972 4994.3 4981.5 4984.3 4981.5 4974.3 4981.5 4984.3 4981.5 4981.2 4991 4984.3 4981.5 4981.2 4991 4991.2 4991 4999.3 4996.9 4991.2 4991 5001.2 4991 5004.3 5000.5 5012.4 4994.6 5002.4 4994.6 5012.4 4994.6 5009.3 4985.1 4999.3 4985.1 5002.4 4994.6 4992.4 4994.6 5000.5 5000.5" clip-path="url(#a)" fill="none" stroke="#000" stroke-linecap="round"/>
</svg>
