<?xml version="1.0" encoding="UTF-8"?>
<svg width="1e4px" height="1e4px" baseProfile="full" version="1.1" viewBox="4860 4936.2 221.52 213.72" xmlns="http://www.w3.org/2000/svg">
<defs>
<clipPath id="a">
<rect width="1e4" height="1e4"/>
</clipPath>
</defs>
<polyline points="5000.5 5000.5 5010.5 5000.5 5020.5 5000.5 5030.5 5000.5 5022.4 5006.4 5019.3 4996.9 5011.2 4991 5001.2 4991 5009.3 4996.9 5017.4 5002.7 5020.5 5012.3 5028.6 5006.4 5038.6 5006.4 5028.6 5006.4 5020.5 5000.5 5028.6 4994.6 5020.5 4988.7 5010.5 4988.7 5020.5 4988.7 5012.4 4982.9 5009.3 4992.4 5006.2 4982.9 4996.2 4982.9 5004.3 4988.7 5014.3 4988.7 5006.2 4994.6 5003.1 5004.1 5e3 5013.6 4992 5007.8 4988.9 5017.3 4978.9 5017.3 4975.8 5026.8 4978.9 5017.3 4975.8 5026.8 4972.7 5036.3 4982.7 5036.3 4979.6 5026.8 4982.7 5036.3 4979.6 5026.8 4989.6 5026.8 4999.6 5026.8 4991.5 5020.9 5001.5 5020.9" clip-path="url(#a)" fill="none" stroke="#000" stroke-linecap="round"/>
<polyline points="5001.5 5020.9 5009.6 5026.8 5001.5 5032.7 4991.5 5032.7 4988.4 5023.2 4996.5 5029 4988.4 5023.2 4996.5 5017.3 4999.6 5026.8 5007.7 5032.7 5004.6 5042.2 5007.7 5051.7 5017.7 5051.7 5027.7 5051.7 5030.8 5061.2 5033.9 5070.7 5030.8 5061.2 5022.7 5067.1 5025.8 5057.6 5033.9 5051.7 5037 5042.2 5028.9 5036.3 5037 5030.4 5028.9 5036.3 5025.8 5045.8 5022.7 5036.3 5032.7 5036.3 5029.6 5045.8 5019.6 5045.8 5029.6 5045.8 5032.7 5036.3 5022.7 5036.3 5030.8 5042.2 5027.7 5051.7 5019.6 5057.6 5009.6 5057.6 5012.7 5067.1 5022.7 5067.1 5025.8 5076.6 5017.7 5082.5 5025.8 5076.6 5035.8 5076.6 5045.8 5076.6" clip-path="url(#a)" fill="none" stroke="#000" stroke-linecap="round"/>
<polyline points="5045.8 5076.6 5037.7 5082.5 5029.6 5088.3 5039.6 5088.3 5049.6 5088.3 5052.7 5078.8 5055.8 5088.3 5047.7 5094.2 5057.7 5094.2 5047.7 5094.2 5055.8 5088.3 5047.7 5082.5 5055.8 5076.6 5047.7 5082.5 5039.6 5076.6 5036.5 5086.1 5026.5 5086.1 5018.4 5080.2 5010.3 5086.1 5013.4 5076.6 5010.3 5067.1 5020.3 5067.1 5012.2 5061.2 5015.3 5070.7 5012.2 5080.2 5009.1 5070.7 5017.2 5076.6 5014.1 5067.1 5011.1 5076.6 5019.1 5082.5 5022.2 5092 5019.1 5082.5 5011.1 5088.3 5003 5094.2 5006.1 5103.7 5009.1 5113.2 5017.2 5119.1 5020.3 5109.6 5012.2 5115.5 5015.3 5125 5025.3 5125 5028.4 5134.5 5036.5 5140.4" clip-path="url(#a)" fill="none" stroke="#000" stroke-linecap="round"/>
<polyline points="5036.5 5140.4 5033.4 5149.9 5025.3 5144 5022.2 5134.5 5014.1 5128.6 5011.1 5119.1 5008 5128.6 5004.9 5119.1 4996.8 5125 4988.7 5130.9 4980.6 5125 4988.7 5119.1 4985.6 5109.6 4982.5 5119.1 4972.5 5119.1 4975.6 5128.6 4985.6 5128.6 4988.7 5119.1 4985.6 5109.6 4982.5 5119.1 4974.4 5113.2 4984.4 5113.2 4974.4 5113.2 4966.3 5119.1 4958.2 5125 4950.2 5130.9 4953.2 5121.4 4961.3 5127.2 4971.3 5127.2 4979.4 5121.4 4969.4 5121.4 4959.4 5121.4 4951.3 5115.5 4948.2 5125 4940.2 5130.9 4948.2 5125 4958.2 5125 4955.2 5134.5 4965.2 5134.5 4973.2 5128.6 4965.2 5134.5 4975.2 5134.5 4972.1 5125" clip-path="url(#a)" fill="none" stroke="#000" stroke-linecap="round"/>
<polyline points="4972.1 5125 4980.2 5130.9 4988.2 5125 4978.2 5125 4970.2 5130.9 4973.2 5121.4 4970.2 5111.9 4967.1 5102.3 4977.1 5102.3 4974 5092.8 4982.1 5087 4979 5077.4 4982.1 5087 4979 5077.4 4975.9 5067.9 4967.8 5073.8 4975.9 5079.7 4967.8 5073.8 4975.9 5079.7 4967.8 5085.6 4959.7 5091.4 4969.7 5091.4 4961.6 5097.3 4951.6 5097.3 4954.7 5087.8 4962.8 5081.9 4970.9 5087.8 4960.9 5087.8 4970.9 5087.8 4967.8 5097.3 4959.7 5091.4 4949.7 5091.4 4946.6 5081.9 4938.5 5076.1 4930.4 5081.9 4922.3 5087.8 4914.3 5081.9 4906.2 5076.1 4914.3 5081.9 4917.3 5072.4 4920.4 5081.9 4917.3 5091.4 4920.4 5101" clip-path="url(#a)" fill="none" stroke="#000" stroke-linecap="round"/>
<polyline points="4920.4 5101 4930.4 5101 4927.3 5110.5 4930.4 5101 4927.3 5091.4 4935.4 5097.3 4927.3 5103.2 4924.3 5093.7 4932.3 5087.8 4924.3 5093.7 4927.3 5103.2 4935.4 5097.3 4925.4 5097.3 4922.3 5087.8 4925.4 5078.3 4933.5 5072.4 4925.4 5066.5 4917.3 5072.4 4909.3 5066.5 4912.3 5057 4909.3 5066.5 4901.2 5072.4 4893.1 5078.3 4896.2 5068.8 4899.3 5059.3 4891.2 5065.2 4883.1 5071 4886.2 5080.5 4878.1 5074.7 4881.2 5065.2 4873.1 5071 4881.2 5065.2 4878.1 5074.7 4888.1 5074.7 4885 5084.2 4888.1 5074.7 4898.1 5074.7 4895 5065.2 4903.1 5059.3 4913.1 5059.3 4916.2 5049.8 4919.3 5059.3 4927.3 5065.2" clip-path="url(#a)" fill="none" stroke="#000" stroke-linecap="round"/>
<polyline points="4927.3 5065.2 4919.3 5071 4929.3 5071 4921.2 5065.2 4918.1 5055.6 4926.2 5061.5 4916.2 5061.5 4924.3 5067.4 4921.2 5057.9 4911.2 5057.9 4903.1 5052 4911.2 5057.9 4914.3 5048.4 4917.3 5038.9 4909.3 5033 4901.2 5027.1 4891.2 5027.1 4894.3 5036.6 4897.3 5027.1 4889.3 5021.2 4881.2 5027.1 4873.1 5021.2 4863.1 5021.2 4860 5011.7 4870 5011.7 4878.1 5017.6 4888.1 5017.6 4896.2 5023.5 4893.1 5014 4901.2 5019.8 4904.3 5010.3 4907.3 5000.8 4917.3 5000.8 4914.3 5010.3 4922.3 5016.2 4919.3 5006.7 4927.3 5000.8 4919.3 4994.9 4911.2 5000.8 4914.3 5010.3 4922.3 5016.2 4919.3 5006.7 4929.3 5006.7" clip-path="url(#a)" fill="none" stroke="#000" stroke-linecap="round"/>
<polyline points="4929.3 5006.7 4921.2 5012.6 4929.3 5006.7 4932.3 4997.2 4935.4 4987.7 4938.5 4978.2 4941.6 4987.7 4931.6 4987.7 4923.5 4993.6 4920.4 5003.1 4928.5 4997.2 4936.6 4991.3 4946.6 4991.3 4943.5 4981.8 4946.6 4972.3 4943.5 4981.8 4935.4 4987.7 4932.3 4978.2 4924.3 4984.1 4921.2 4993.6 4924.3 4984.1 4916.2 4989.9 4924.3 4995.8 4914.3 4995.8 4911.2 5005.3 4919.3 4999.4 4922.3 4989.9 4925.4 4999.4 4933.5 5005.3 4941.6 5011.2 4933.5 5017.1 4941.6 5023 4938.5 5032.5 4946.6 5038.3 4938.5 5032.5 4946.6 5038.3 4954.7 5044.2 4957.8 5034.7 4947.8 5034.7 4957.8 5034.7 4947.8 5034.7 4950.9 5025.2 4954 5015.7" clip-path="url(#a)" fill="none" stroke="#000" stroke-linecap="round"/>
<polyline points="4954 5015.7 4945.9 5021.6 4949 5012.1 4957.1 5006.2 4960.2 5015.7 4957.1 5025.2 4947.1 5025.2 4955.2 5019.3 4947.1 5025.2 4944 5015.7 4954 5015.7 4962.1 5009.8 4970.2 5015.7 4980.2 5015.7 4983.2 5006.2 4986.3 4996.7 4996.3 4996.7 5006.3 4996.7 4996.3 4996.7 4999.4 5006.2 4991.3 5000.3 4988.2 4990.8 4980.2 4984.9 4972.1 4990.8 4969 4981.3 4972.1 4990.8 4980.2 4996.7 4970.2 4996.7 4973.2 4987.2 4981.3 4993 4978.2 5002.5 4981.3 4993 4973.2 4987.2 4970.2 4996.7 4978.2 4990.8 4986.3 4996.7 4989.4 5006.2 4986.3 5015.7 4996.3 5015.7 4999.4 5006.2 5009.4 5006.2 5012.5 5015.7 5009.4 5006.2" clip-path="url(#a)" fill="none" stroke="#000" stroke-linecap="round"/>
<polyline points="5009.4 5006.2 5012.5 4996.7 5015.6 4987.2 5018.7 4996.7 5021.8 5006.2 5024.9 4996.7 5028 4987.2 5019.9 4981.3 5029.9 4981.3 5033 4990.8 5036.1 4981.3 5033 4990.8 5029.9 4981.3 5021.8 4987.2 5018.7 4977.6 5021.8 4987.2 5013.7 4993 5021.8 4998.9 5018.7 5008.4 5010.6 5014.3 5013.7 5023.8 5005.6 5017.9 4995.6 5017.9 4998.7 5008.4 4990.6 5014.3 5000.6 5014.3 5008.7 5020.2 4998.7 5020.2 5006.8 5014.3 4996.8 5014.3 5004.9 5020.2 5013 5014.3 5023 5014.3 5013 5014.3 5016.1 5023.8 5019.1 5033.3 5029.1 5033.3 5039.1 5033.3 5047.2 5027.4 5039.1 5021.6 5042.2 5031.1 5052.2 5031.1 5055.3 5021.6" clip-path="url(#a)" fill="none" stroke="#000" stroke-linecap="round"/>
<polyline points="5055.3 5021.6 5065.3 5021.6 5073.4 5015.7 5081.5 5021.6 5073.4 5027.4 5063.4 5027.4 5055.3 5033.3 5045.3 5033.3 5053.4 5039.2 5043.4 5039.2 5046.5 5048.7 5049.6 5058.2 5041.5 5064.1 5038.4 5054.6 5028.4 5054.6 5036.5 5060.5 5033.4 5070 5043.4 5070 5046.5 5060.5 5038.4 5054.6 5028.4 5054.6 5036.5 5060.5 5028.4 5066.3 5031.5 5056.8 5028.4 5066.3 5031.5 5075.9 5034.6 5085.4 5037.7 5094.9 5029.6 5089 5037.7 5083.1 5040.8 5073.6 5037.7 5064.1 5034.6 5073.6 5031.5 5083.1 5023.4 5089 5031.5 5094.9 5034.6 5104.4 5031.5 5094.9 5034.6 5085.4 5042.7 5091.2 5045.8 5081.7 5042.7 5072.2 5045.8 5081.7" clip-path="url(#a)" fill="none" stroke="#000" stroke-linecap="round"/>
<polyline points="5045.8 5081.7 5048.9 5072.2 5038.9 5072.2 5047 5066.3 5043.9 5056.8 5040.8 5066.3 5043.9 5075.9 5035.8 5070 5025.8 5070 5015.8 5070 5018.9 5060.5 5008.9 5060.5 5005.8 5051 4995.8 5051 5005.8 5051 4995.8 5051 4985.8 5051 4988.9 5060.5 4997 5054.6 4988.9 5060.5 4997 5054.6 5e3 5064.1 5003.1 5073.6 5006.2 5064.1 5009.3 5073.6 5006.2 5083.1 4998.1 5077.2 4995 5067.7 5003.1 5061.9 5e3 5071.4 5003.1 5061.9 5011.2 5067.7 5003.1 5073.6 5e3 5083.1 4990 5083.1 4982 5089 4985 5098.5 4988.1 5108 4980 5113.9 4972 5119.8 4980 5113.9 4972 5108 4982 5108" clip-path="url(#a)" fill="none" stroke="#000" stroke-linecap="round"/>
<polyline points="4982 5108 4990 5113.9 5e3 5113.9 5003.1 5104.4 5011.2 5110.3 5003.1 5104.4 4993.1 5104.4 5001.2 5098.5 5004.3 5108 4994.3 5108 4991.2 5098.5 4994.3 5108 5004.3 5108 5001.2 5098.5 4998.1 5108 4988.1 5108 4980 5102.1 4977 5092.6 4968.9 5098.5 4972 5108 4963.9 5113.9 4955.8 5108 4963.9 5113.9 4967 5123.4 4970 5132.9 4962 5127 4953.9 5121.2 4957 5130.7 4960 5140.2 4970 5140.2 4962 5146.1 4953.9 5140.2 4957 5149.7 4953.9 5140.2 4962 5146.1 4965 5136.5 4973.1 5142.4 4965 5136.5 4968.1 5127 4958.1 5127 4955 5117.5 4958.1 5108 4950 5102.1" clip-path="url(#a)" fill="none" stroke="#000" stroke-linecap="round"/>
<polyline points="4950 5102.1 4960 5102.1 4968.1 5096.3 4971.2 5105.8 4974.3 5096.3 4966.2 5102.1 4956.2 5102.1 4964.3 5096.3 4961.2 5105.8 4969.3 5099.9 4959.3 5099.9 4956.2 5109.4 4948.1 5115.3 4956.2 5109.4 4948.1 5103.5 4940 5097.6 4932 5103.5 4923.9 5109.4 4920.8 5118.9 4930.8 5118.9 4922.7 5113 4914.6 5118.9 4917.7 5128.4 4909.6 5134.3 4906.5 5143.8 4896.5 5143.8 4899.6 5134.3 4907.7 5128.4 4910.8 5118.9 4918.9 5113 4908.9 5113 4917 5107.2 4908.9 5101.3 4900.8 5095.4 4903.9 5085.9 4912 5091.8 4920 5085.9 4910 5085.9 4907 5076.4 4898.9 5082.3 4902 5091.8 4912 5091.8 4920 5085.9" clip-path="url(#a)" fill="none" stroke="#000" stroke-linecap="round"/>
<polyline points="4920 5085.9 4910 5085.9 4913.1 5076.4 4916.2 5085.9 4913.1 5076.4 4905 5070.5 4897 5064.6 4888.9 5058.7 4898.9 5058.7 4895.8 5068.3 4898.9 5077.8 4907 5083.6 4903.9 5074.1 4900.8 5064.6 4903.9 5055.1 4893.9 5055.1 4885.8 5049.2 4893.9 5055.1 4897 5064.6 4887 5064.6 4890 5074.1 4898.1 5080 4890 5074.1 4893.1 5083.6 4901.2 5077.8 4898.1 5087.3 4906.2 5093.2 4903.1 5083.6 4895 5077.8 4905 5077.8 4913.1 5071.9 4921.2 5066 4924.3 5075.5 4932.4 5069.6 4940.5 5075.5 4948.6 5069.6 4940.5 5075.5 4948.6 5069.6 4956.7 5063.8 4948.6 5057.9 4945.5 5067.4 4948.6 5057.9 4945.5 5067.4" clip-path="url(#a)" fill="none" stroke="#000" stroke-linecap="round"/>
<polyline points="4945.5 5067.4 4937.4 5061.5 4929.3 5055.6 4932.4 5065.2 4924.3 5059.3 4921.2 5049.8 4931.2 5049.8 4939.3 5055.6 4936.2 5065.2 4933.1 5055.6 4936.2 5065.2 4926.2 5065.2 4929.3 5055.6 4926.2 5046.1 4934.3 5040.3 4937.4 5030.7 4929.3 5024.9 4921.2 5019 4924.3 5009.5 4927.4 5e3 4924.3 5009.5 4934.3 5009.5 4926.2 5015.4 4916.2 5015.4 4908.1 5021.2 4911.2 5030.7 4901.2 5030.7 4911.2 5030.7 4919.3 5024.9 4916.2 5034.4 4908.1 5028.5 4916.2 5022.6 4924.3 5028.5 4916.2 5022.6 4908.1 5028.5 4916.2 5034.4 4913.1 5024.9 4921.2 5019 4931.2 5019 4939.3 5024.9 4942.4 5015.4 4934.3 5009.5 4937.4 5e3" clip-path="url(#a)" fill="none" stroke="#000" stroke-linecap="round"/>
<polyline points="4937.4 5e3 4947.4 5e3 4937.4 5e3 4929.3 4994.1 4921.2 4988.2 4931.2 4988.2 4941.2 4988.2 4933.1 4982.3 4925 4976.5 4917 4982.3 4920 4972.8 4930 4972.8 4922 4966.9 4930 4972.8 4920 4972.8 4923.1 4982.3 4913.1 4982.3 4923.1 4982.3 4926.2 4991.8 4934.3 4986 4942.4 4991.8 4945.5 5001.4 4955.5 5001.4 4947.4 5007.2 4944.3 5016.7 4936.2 5010.9 4939.3 5020.4 4942.4 5010.9 4950.5 5005 4947.4 5014.5 4944.3 5005 4941.2 5014.5 4949.3 5008.6 4946.2 4999.1 4949.3 4989.6 4946.2 4999.1 4956.2 4999.1 4966.2 4999.1 4969.3 4989.6 4972.4 4980.1 4969.3 4970.6 4961.2 4976.5 4971.2 4976.5" clip-path="url(#a)" fill="none" stroke="#000" stroke-linecap="round"/>
<polyline points="4971.2 4976.5 4974.3 4966.9 4966.2 4961.1 4969.3 4951.6 4966.2 4942 4974.3 4936.2 4977.4 4945.7 4974.3 4955.2 4977.4 4964.7 4974.3 4974.2 4982.4 4968.3 4979.3 4977.8 4989.3 4977.8 4999.3 4977.8 5002.4 4987.4 4992.4 4987.4 4989.3 4996.9 4997.4 4991 5005.5 4996.9 5008.6 4987.4 5000.5 4981.5 4992.4 4987.4 4989.3 4996.9 4997.4 4991 5000.5 5000.5 4992.4 4994.6 5000.5 5000.5 5010.5 5000.5 5020.5 5000.5 5030.5 5000.5 5022.4 5006.4 5019.3 4996.9 5011.2 4991 5001.2 4991 5009.3 4996.9 5017.4 5002.7 5020.5 5012.3 5028.6 5006.4 5038.6 5006.4 5028.6 5006.4 5020.5 5000.5 5028.6 4994.6 5020.5 4988.7" clip-path="url(#a)" fill="none" stroke="#000" stroke-linecap="round"/>
<polyline points="5020.5 4988.7 5010.5 4988.7 5020.5 4988.7 5012.4 4982.9 5009.3 4992.4 5006.2 4982.9 4996.2 4982.9 5004.3 4988.7 5014.3 4988.7 5006.2 4994.6 5003.1 5004.1 5e3 5013.6 4992 5007.8 4988.9 5017.3 4978.9 5017.3 4975.8 5026.8 4978.9 5017.3 4975.8 5026.8 4972.7 5036.3 4982.7 5036.3 4979.6 5026.8 4982.7 5036.3 4979.6 5026.8 4989.6 5026.8 4999.6 5026.8 4991.5 5020.9 5001.5 5020.9 5009.6 5026.8 5001.5 5032.7 4991.5 5032.7 4988.4 5023.2 4996.5 5029 4988.4 5023.2 4996.5 5017.3 4999.6 5026.8 5007.7 5032.7 5004.6 5042.2 5007.7 5051.7 5017.7 5051.7 5027.7 5051.7 5030.8 5061.2 5033.9 5070.7 5030.8 5061.2" clip-path="url(#a)" fill="none" stroke="#000" stroke-linecap="round"/>
<polyline points="5030.8 5061.2 5022.7 5067.1 5025.8 5057.6 5033.9 5051.7 5037 5042.2 5028.9 5036.3 5037 5030.4 5028.9 5036.3 5025.8 5045.8 5022.7 5036.3 5032.7 5036.3 5029.6 5045.8 5019.6 5045.8 5029.6 5045.8 5032.7 5036.3 5022.7 5036.3 5030.8 5042.2 5027.7 5051.7 5019.6 5057.6 5009.6 5057.6 5012.7 5067.1 5022.7 5067.1 5025.8 5076.6 5017.7 5082.5 5025.8 5076.6 5035.8 5076.6 5045.8 5076.6 5037.7 5082.5 5029.6 5088.3 5039.6 5088.3 5049.6 5088.3 5052.7 5078.8 5055.8 5088.3 5047.7 5094.2 5057.7 5094.2 5047.7 5094.2 5055.8 5088.3 5047.7 5082.5 5055.8 5076.6 5047.7 5082.5 5039.6 5076.6 5036.5 5086.1 5026.5 5086.1" clip-path="url(#a)" fill="none" stroke="#000" stroke-linecap="round"/>
<polyline points="5026.5 5086.1 5018.4 5080.2 5010.3 5086.1 5013.4 5076.6 5010.3 5067.1 5020.3 5067.1 5012.2 5061.2 5015.3 5070.7 5012.2 5080.2 5009.1 5070.7 5017.2 5076.6 5014.1 5067.1 5011.1 5076.6 5019.1 5082.5 5022.2 5092 5019.1 5082.5 5011.1 5088.3 5003 5094.2 5006.1 5103.7 5009.1 5113.2 5017.2 5119.1 5020.3 5109.6 5012.2 5115.5 5015.3 5125 5025.3 5125 5028.4 5134.5 5036.5 5140.4 5033.4 5149.9 5025.3 5144 5022.2 5134.5 5014.1 5128.6 5011.1 5119.1 5008 5128.6 5004.9 5119.1 4996.8 5125 4988.7 5130.9 4980.6 5125 4988.7 5119.1 4985.6 5109.6 4982.5 5119.1 4972.5 5119.1 4975.6 5128.6 4985.6 5128.6" clip-path="url(#a)" fill="none" stroke="#000" stroke-linecap="round"/>
<polyline points="4985.6 5128.6 4988.7 5119.1 4985.6 5109.6 4982.5 5119.1 4974.4 5113.2 4984.4 5113.2 4974.4 5113.2 4966.3 5119.1 4958.2 5125 4950.2 5130.9 4953.2 5121.4 4961.3 5127.2 4971.3 5127.2 4979.4 5121.4 4969.4 5121.4 4959.4 5121.4 4951.3 5115.5 4948.2 5125 4940.2 5130.9 4948.2 5125 4958.2 5125 4955.2 5134.5 4965.2 5134.5 4973.2 5128.6 4965.2 5134.5 4975.2 5134.5 4972.1 5125 4980.2 5130.9 4988.2 5125 4978.2 5125 4970.2 5130.9 4973.2 5121.4 4970.2 5111.9 4967.1 5102.3 4977.1 5102.3 4974 5092.8 4982.1 5087 4979 5077.4 4982.1 5087 4979 5077.4 4975.9 5067.9 4967.8 5073.8 4975.9 5079.7" clip-path="url(#a)" fill="none" stroke="#000" stroke-linecap="round"/>
<polyline points="4975.9 5079.7 4967.8 5073.8 4975.9 5079.7 4967.8 5085.6 4959.7 5091.4 4969.7 5091.4 4961.6 5097.3 4951.6 5097.3 4954.7 5087.8 4962.8 5081.9 4970.9 5087.8 4960.9 5087.8 4970.9 5087.8 4967.8 5097.3 4959.7 5091.4 4949.7 5091.4 4946.6 5081.9 4938.5 5076.1 4930.4 5081.9 4922.3 5087.8 4914.3 5081.9 4906.2 5076.1 4914.3 5081.9 4917.3 5072.4 4920.4 5081.9 4917.3 5091.4 4920.4 5101 4930.4 5101 4927.3 5110.5 4930.4 5101 4927.3 5091.4 4935.4 5097.3 4927.3 5103.2 4924.3 5093.7 4932.3 5087.8 4924.3 5093.7 4927.3 5103.2 4935.4 5097.3 4925.4 5097.3 4922.3 5087.8 4925.4 5078.3 4933.5 5072.4 4925.4 5066.5" clip-path="url(#a)" fill="none" stroke="#000" stroke-linecap="round"/>
<polyline points="4925.4 5066.5 4917.3 5072.4 4909.3 5066.5 4912.3 5057 4909.3 5066.5 4901.2 5072.4 4893.1 5078.3 4896.2 5068.8 4899.3 5059.3 4891.2 5065.2 4883.1 5071 4886.2 5080.5 4878.1 5074.7 4881.2 5065.2 4873.1 5071 4881.2 5065.2 4878.1 5074.7 4888.1 5074.7 4885 5084.2 4888.1 5074.7 4898.1 5074.7 4895 5065.2 4903.1 5059.3 4913.1 5059.3 4916.2 5049.8 4919.3 5059.3 4927.3 5065.2 4919.3 5071 4929.3 5071 4921.2 5065.2 4918.1 5055.6 4926.2 5061.5 4916.2 5061.5 4924.3 5067.4 4921.2 5057.9 4911.2 5057.9 4903.1 5052 4911.2 5057.9 4914.3 5048.4 4917.3 5038.9 4909.3 5033 4901.2 5027.1 4891.2 5027.1" clip-path="url(#a)" fill="none" stroke="#000" stroke-linecap="round"/>
<polyline points="4891.2 5027.1 4894.3 5036.6 4897.3 5027.1 4889.3 5021.2 4881.2 5027.1 4873.1 5021.2 4863.1 5021.2 4860 5011.7 4870 5011.7 4878.1 5017.6 4888.1 5017.6 4896.2 5023.5 4893.1 5014 4901.2 5019.8 4904.3 5010.3 4907.3 5000.8 4917.3 5000.8 4914.3 5010.3 4922.3 5016.2 4919.3 5006.7 4927.3 5000.8 4919.3 4994.9 4911.2 5000.8 4914.3 5010.3 4922.3 5016.2 4919.3 5006.7 4929.3 5006.7 4921.2 5012.6 4929.3 5006.7 4932.3 4997.2 4935.4 4987.7 4938.5 4978.2 4941.6 4987.7 4931.6 4987.7 4923.5 4993.6 4920.4 5003.1 4928.5 4997.2 4936.6 4991.3 4946.6 4991.3 4943.5 4981.8 4946.6 4972.3 4943.5 4981.8 4935.4 4987.7" clip-path="url(#a)" fill="none" stroke="#000" stroke-linecap="round"/>
<polyline points="4935.4 4987.7 4932.3 4978.2 4924.3 4984.1 4921.2 4993.6 4924.3 4984.1 4916.2 4989.9 4924.3 4995.8 4914.3 4995.8 4911.2 5005.3 4919.3 4999.4 4922.3 4989.9 4925.4 4999.4 4933.5 5005.3 4941.6 5011.2 4933.5 5017.1 4941.6 5023 4938.5 5032.5 4946.6 5038.3 4938.5 5032.5 4946.6 5038.3 4954.7 5044.2 4957.8 5034.7 4947.8 5034.7 4957.8 5034.7 4947.8 5034.7 4950.9 5025.2 4954 5015.7 4945.9 5021.6 4949 5012.1 4957.1 5006.2 4960.2 5015.7 4957.1 5025.2 4947.1 5025.2 4955.2 5019.3 4947.1 5025.2 4944 5015.7 4954 5015.7 4962.1 5009.8 4970.2 5015.7 4980.2 5015.7 4983.2 5006.2 4986.3 4996.7 4996.3 4996.7" clip-path="url(#a)" fill="none" stroke="#000" stroke-linecap="round"/>
<polyline points="4996.3 4996.7 5006.3 4996.7 4996.3 4996.7 4999.4 5006.2 4991.3 5000.3 4988.2 4990.8 4980.2 4984.9 4972.1 4990.8 4969 4981.3 4972.1 4990.8 4980.2 4996.7 4970.2 4996.7 4973.2 4987.2 4981.3 4993 4978.2 5002.5 4981.3 4993 4973.2 4987.2 4970.2 4996.7 4978.2 4990.8 4986.3 4996.7 4989.4 5006.2 4986.3 5015.7 4996.3 5015.7 4999.4 5006.2 5009.4 5006.2 5012.5 5015.7 5009.4 5006.2 5012.5 4996.7 5015.6 4987.2 5018.7 4996.7 5021.8 5006.2 5024.9 4996.7 5028 4987.2 5019.9 4981.3 5029.9 4981.3 5033 4990.8 5036.1 4981.3 5033 4990.8 5029.9 4981.3 5021.8 4987.2 5018.7 4977.6 5021.8 4987.2 5013.7 4993" clip-path="url(#a)" fill="none" stroke="#000" stroke-linecap="round"/>
<polyline points="5013.7 4993 5021.8 4998.9 5018.7 5008.4 5010.6 5014.3 5013.7 5023.8 5005.6 5017.9 4995.6 5017.9 4998.7 5008.4 4990.6 5014.3 5000.6 5014.3 5008.7 5020.2 4998.7 5020.2 5006.8 5014.3 4996.8 5014.3 5004.9 5020.2 5013 5014.3 5023 5014.3 5013 5014.3 5016.1 5023.8 5019.1 5033.3 5029.1 5033.3 5039.1 5033.3 5047.2 5027.4 5039.1 5021.6 5042.2 5031.1 5052.2 5031.1 5055.3 5021.6 5065.3 5021.6 5073.4 5015.7 5081.5 5021.6 5073.4 5027.4 5063.4 5027.4 5055.3 5033.3 5045.3 5033.3 5053.4 5039.2 5043.4 5039.2 5046.5 5048.7 5049.6 5058.2 5041.5 5064.1 5038.4 5054.6 5028.4 5054.6 5036.5 5060.5 5033.4 5070" clip-path="url(#a)" fill="none" stroke="#000" stroke-linecap="round"/>
<polyline points="5033.4 5070 5043.4 5070 5046.5 5060.5 5038.4 5054.6 5028.4 5054.6 5036.5 5060.5 5028.4 5066.3 5031.5 5056.8 5028.4 5066.3 5031.5 5075.9 5034.6 5085.4 5037.7 5094.9 5029.6 5089 5037.7 5083.1 5040.8 5073.6 5037.7 5064.1 5034.6 5073.6 5031.5 5083.1 5023.4 5089 5031.5 5094.9 5034.6 5104.4 5031.5 5094.9 5034.6 5085.4 5042.7 5091.2 5045.8 5081.7 5042.7 5072.2 5045.8 5081.7 5048.9 5072.2 5038.9 5072.2 5047 5066.3 5043.9 5056.8 5040.8 5066.3 5043.9 5075.9 5035.8 5070 5025.8 5070 5015.8 5070 5018.9 5060.5 5008.9 5060.5 5005.8 5051 4995.8 5051 5005.8 5051 4995.8 5051 4985.8 5051" clip-path="url(#a)" fill="none" stroke="#000" stroke-linecap="round"/>
<polyline points="4985.8 5051 4988.9 5060.5 4997 5054.6 4988.9 5060.5 4997 5054.6 5e3 5064.1 5003.1 5073.6 5006.2 5064.1 5009.3 5073.6 5006.2 5083.1 4998.1 5077.2 4995 5067.7 5003.1 5061.9 5e3 5071.4 5003.1 5061.9 5011.2 5067.7 5003.1 5073.6 5e3 5083.1 4990 5083.1 4982 5089 4985 5098.5 4988.1 5108 4980 5113.9 4972 5119.8 4980 5113.9 4972 5108 4982 5108 4990 5113.9 5e3 5113.9 5003.1 5104.4 5011.2 5110.3 5003.1 5104.4 4993.1 5104.4 5001.2 5098.5 5004.3 5108 4994.3 5108 4991.2 5098.5 4994.3 5108 5004.3 5108 5001.2 5098.5 4998.1 5108 4988.1 5108 4980 5102.1" clip-path="url(#a)" fill="none" stroke="#000" stroke-linecap="round"/>
<polyline points="4980 5102.1 4977 5092.6 4968.9 5098.5 4972 5108 4963.9 5113.9 4955.8 5108 4963.9 5113.9 4967 5123.4 4970 5132.9 4962 5127 4953.9 5121.2 4957 5130.7 4960 5140.2 4970 5140.2 4962 5146.1 4953.9 5140.2 4957 5149.7 4953.9 5140.2 4962 5146.1 4965 5136.5 4973.1 5142.4 4965 5136.5 4968.1 5127 4958.1 5127 4955 5117.5 4958.1 5108 4950 5102.1 4960 5102.1 4968.1 5096.3 4971.2 5105.8 4974.3 5096.3 4966.2 5102.1 4956.2 5102.1 4964.3 5096.3 4961.2 5105.8 4969.3 5099.9 4959.3 5099.9 4956.2 5109.4 4948.1 5115.3 4956.2 5109.4 4948.1 5103.5 4940 5097.6 4932 5103.5" clip-path="url(#a)" fill="none" stroke="#000" stroke-linecap="round"/>
<polyline points="4932 5103.5 4923.9 5109.4 4920.8 5118.9 4930.8 5118.9 4922.7 5113 4914.6 5118.9 4917.7 5128.4 4909.6 5134.3 4906.5 5143.8 4896.5 5143.8 4899.6 5134.3 4907.7 5128.4 4910.8 5118.9 4918.9 5113 4908.9 5113 4917 5107.2 4908.9 5101.3 4900.8 5095.4 4903.9 5085.9 4912 5091.8 4920 5085.9 4910 5085.9 4907 5076.4 4898.9 5082.3 4902 5091.8 4912 5091.8 4920 5085.9 4910 5085.9 4913.1 5076.4 4916.2 5085.9 4913.1 5076.4 4905 5070.5 4897 5064.6 4888.9 5058.7 4898.9 5058.7 4895.8 5068.3 4898.9 5077.8 4907 5083.6 4903.9 5074.1 4900.8 5064.6 4903.9 5055.1 4893.9 5055.1 4885.8 5049.2" clip-path="url(#a)" fill="none" stroke="#000" stroke-linecap="round"/>
<polyline points="4885.8 5049.2 4893.9 5055.1 4897 5064.6 4887 5064.6 4890 5074.1 4898.1 5080 4890 5074.1 4893.1 5083.6 4901.2 5077.8 4898.1 5087.3 4906.2 5093.2 4903.1 5083.6 4895 5077.8 4905 5077.8 4913.1 5071.9 4921.2 5066 4924.3 5075.5 4932.4 5069.6 4940.5 5075.5 4948.6 5069.6 4940.5 5075.5 4948.6 5069.6 4956.7 5063.8 4948.6 5057.9 4945.5 5067.4 4948.6 5057.9 4945.5 5067.4 4937.4 5061.5 4929.3 5055.6 4932.4 5065.2 4924.3 5059.3 4921.2 5049.8 4931.2 5049.8 4939.3 5055.6 4936.2 5065.2 4933.1 5055.6 4936.2 5065.2 4926.2 5065.2 4929.3 5055.6 4926.2 5046.1 4934.3 5040.3 4937.4 5030.7 4929.3 5024.9" clip-path="url(#a)" fill="none" stroke="#000" stroke-linecap="round"/>
<polyline points="4929.3 5024.9 4921.2 5019 4924.3 5009.5 4927.4 5e3 4924.3 5009.5 4934.3 5009.5 4926.2 5015.4 4916.2 5015.4 4908.1 5021.2 4911.2 5030.7 4901.2 5030.7 4911.2 5030.7 4919.3 5024.9 4916.2 5034.4 4908.1 5028.5 4916.2 5022.6 4924.3 5028.5 4916.2 5022.6 4908.1 5028.5 4916.2 5034.4 4913.1 5024.9 4921.2 5019 4931.2 5019 4939.3 5024.9 4942.4 5015.4 4934.3 5009.5 4937.4 5e3 4947.4 5e3 4937.4 5e3 4929.3 4994.1 4921.2 4988.2 4931.2 4988.2 4941.2 4988.2 4933.1 4982.3 4925 4976.5 4917 4982.3 4920 4972.8 4930 4972.8 4922 4966.9 4930 4972.8 4920 4972.8 4923.1 4982.3 4913.1 4982.3" clip-path="url(#a)" fill="none" stroke="#000" stroke-linecap="round"/>
<polyline points="4913.1 4982.3 4923.1 4982.3 4926.2 4991.8 4934.3 4986 4942.4 4991.8 4945.5 5001.4 4955.5 5001.4 4947.4 5007.2 4944.3 5016.7 4936.2 5010.9 4939.3 5020.4 4942.4 5010.9 4950.5 5005 4947.4 5014.5 4944.3 5005 4941.2 5014.5 4949.3 5008.6 4946.2 4999.1 4949.3 4989.6 4946.2 4999.1 4956.2 4999.1 4966.2 4999.1 4969.3 4989.6 4972.4 4980.1 4969.3 4970.6 4961.2 4976.5 4971.2 4976.5 4974.3 4966.9 4966.2 4961.1 4969.3 4951.6 4966.2 4942 4974.3 4936.2 4977.4 4945.7 4974.3 4955.2 4977.4 4964.7 4974.3 4974.2 4982.4 4968.3 4979.3 4977.8 4989.3 4977.8 4999.3 4977.8 5002.4 4987.4 4992.4 4987.4 4989.3 4996.9" clip-path="url(#a)" fill="none" stroke="#000" stroke-linecap="round"/>
<polyline points="4989.3 4996.9 4997.4 4991 5005.5 4996.9 5008.6 4987.4 5000.5 4981.5 4992.4 4987.4 4989.3 4996.9 4997.4 4991 5000.5 5000.5 4992.4 4994.6 5000.5 5000.5 5010.5 5000.5 5020.5 5000.5 5030.5 5000.5 5022.4 5006.4 5019.3 4996.9 5011.2 4991 5001.2 4991 5009.3 4996.9 5017.4 5002.7 5020.5 5012.3 5028.6 5006.4 5038.6 5006.4 5028.6 5006.4 5020.5 5000.5 5028.6 4994.6 5020.5 4988.7 5010.5 4988.7 5020.5 4988.7 5012.4 4982.9 5009.3 4992.4 5006.2 4982.9 4996.2 4982.9 5004.3 4988.7 5014.3 4988.7 5006.2 4994.6 5003.1 5004.1 5e3 5013.6 4992 5007.8 4988.9 5017.3 4978.9 5017.3 4975.8 5026.8 4978.9 5017.3" clip-path="url(#a)" fill="none" stroke="#000" stroke-linecap="round"/>
<polyline points="4978.9 5017.3 4975.8 5026.8 4972.7 5036.3 4982.7 5036.3 4979.6 5026.8 4982.7 5036.3 4979.6 5026.8 4989.6 5026.8 4999.6 5026.8 4991.5 5020.9 5001.5 5020.9 5009.6 5026.8 5001.5 5032.7 4991.5 5032.7 4988.4 5023.2 4996.5 5029 4988.4 5023.2 4996.5 5017.3 4999.6 5026.8 5007.7 5032.7 5004.6 5042.2 5007.7 5051.7 5017.7 5051.7 5027.7 5051.7 5030.8 5061.2 5033.9 5070.7 5030.8 5061.2 5022.7 5067.1 5025.8 5057.6 5033.9 5051.7 5037 5042.2 5028.9 5036.3 5037 5030.4 5028.9 5036.3 5025.8 5045.8 5022.7 5036.3 5032.7 5036.3 5029.6 5045.8 5019.6 5045.8 5029.6 5045.8 5032.7 5036.3 5022.7 5036.3 5030.8 5042.2" clip-path="url(#a)" fill="none" stroke="#000" stroke-linecap="round"/>
<polyline points="5030.8 5042.2 5027.7 5051.7 5019.6 5057.6 5009.6 5057.6 5012.7 5067.1 5022.7 5067.1 5025.8 5076.6 5017.7 5082.5 5025.8 5076.6 5035.8 5076.6 5045.8 5076.6 5037.7 5082.5 5029.6 5088.3 5039.6 5088.3 5049.6 5088.3 5052.7 5078.8 5055.8 5088.3 5047.7 5094.2 5057.7 5094.2 5047.7 5094.2 5055.8 5088.3 5047.7 5082.5 5055.8 5076.6 5047.7 5082.5 5039.6 5076.6 5036.5 5086.1 5026.5 5086.1 5018.4 5080.2 5010.3 5086.1 5013.4 5076.6 5010.3 5067.1 5020.3 5067.1 5012.2 5061.2 5015.3 5070.7 5012.2 5080.2 5009.1 5070.7 5017.2 5076.6 5014.1 5067.1 5011.1 5076.6 5019.1 5082.5 5022.2 5092 5019.1 5082.5 5011.1 5088.3" clip-path="url(#a)" fill="none" stroke="#000" stroke-linecap="round"/>
<polyline points="5011.1 5088.3 5003 5094.2 5006.1 5103.7 5009.1 5113.2 5017.2 5119.1 5020.3 5109.6 5012.2 5115.5 5015.3 5125 5025.3 5125 5028.4 5134.5 5036.5 5140.4 5033.4 5149.9 5025.3 5144 5022.2 5134.5 5014.1 5128.6 5011.1 5119.1 5008 5128.6 5004.9 5119.1 4996.8 5125 4988.7 5130.9 4980.6 5125 4988.7 5119.1 4985.6 5109.6 4982.5 5119.1 4972.5 5119.1 4975.6 5128.6 4985.6 5128.6 4988.7 5119.1 4985.6 5109.6 4982.5 5119.1 4974.4 5113.2 4984.4 5113.2 4974.4 5113.2 4966.3 5119.1 4958.2 5125 4950.2 5130.9 4953.2 5121.4 4961.3 5127.2 4971.3 5127.2 4979.4 5121.4 4969.4 5121.4 4959.4 5121.4 4951.3 5115.5" clip-path="url(#a)" fill="none" stroke="#000" stroke-linecap="round"/>
<polyline points="4951.3 5115.5 4948.2 5125 4940.2 5130.9 4948.2 5125 4958.2 5125 4955.2 5134.5 4965.2 5134.5 4973.2 5128.6 4965.2 5134.5 4975.2 5134.5 4972.1 5125 4980.2 5130.9 4988.2 5125 4978.2 5125 4970.2 5130.9 4973.2 5121.4 4970.2 5111.9 4967.1 5102.3 4977.1 5102.3 4974 5092.8 4982.1 5087 4979 5077.4 4982.1 5087 4979 5077.4 4975.9 5067.9 4967.8 5073.8 4975.9 5079.7 4967.8 5073.8 4975.9 5079.7 4967.8 5085.6 4959.7 5091.4 4969.7 5091.4 4961.6 5097.3 4951.6 5097.3 4954.7 5087.8 4962.8 5081.9 4970.9 5087.8 4960.9 5087.8 4970.9 5087.8 4967.8 5097.3 4959.7 5091.4 4949.7 5091.4 4946.6 5081.9" clip-path="url(#a)" fill="none" stroke="#000" stroke-linecap="round"/>
<polyline points="4946.6 5081.9 4938.5 5076.1 4930.4 5081.9 4922.3 5087.8 4914.3 5081.9 4906.2 5076.1 4914.3 5081.9 4917.3 5072.4 4920.4 5081.9 4917.3 5091.4 4920.4 5101 4930.4 5101 4927.3 5110.5 4930.4 5101 4927.3 5091.4 4935.4 5097.3 4927.3 5103.2 4924.3 5093.7 4932.3 5087.8 4924.3 5093.7 4927.3 5103.2 4935.4 5097.3 4925.4 5097.3 4922.3 5087.8 4925.4 5078.3 4933.5 5072.4 4925.4 5066.5 4917.3 5072.4 4909.3 5066.5 4912.3 5057 4909.3 5066.5 4901.2 5072.4 4893.1 5078.3 4896.2 5068.8 4899.3 5059.3 4891.2 5065.2 4883.1 5071 4886.2 5080.5 4878.1 5074.7 4881.2 5065.2 4873.1 5071 4881.2 5065.2 4878.1 5074.7" clip-path="url(#a)" fill="none" stroke="#000" stroke-linecap="round"/>
<polyline points="4878.1 5074.7 4888.1 5074.7 4885 5084.2 4888.1 5074.7 4898.1 5074.7 4895 5065.2 4903.1 5059.3 4913.1 5059.3 4916.2 5049.8 4919.3 5059.3 4927.3 5065.2 4919.3 5071 4929.3 5071 4921.2 5065.2 4918.1 5055.6 4926.2 5061.5 4916.2 5061.5 4924.3 5067.4 4921.2 5057.9 4911.2 5057.9 4903.1 5052 4911.2 5057.9 4914.3 5048.4 4917.3 5038.9 4909.3 5033 4901.2 5027.1 4891.2 5027.1 4894.3 5036.6 4897.3 5027.1 4889.3 5021.2 4881.2 5027.1 4873.1 5021.2 4863.1 5021.2 4860 5011.7 4870 5011.7 4878.1 5017.6 4888.1 5017.6 4896.2 5023.5 4893.1 5014 4901.2 5019.8 4904.3 5010.3 4907.3 5000.8 4917.3 5000.8" clip-path="url(#a)" fill="none" stroke="#000" stroke-linecap="round"/>
<polyline points="4917.3 5000.8 4914.3 5010.3 4922.3 5016.2 4919.3 5006.7 4927.3 5000.8 4919.3 4994.9 4911.2 5000.8 4914.3 5010.3 4922.3 5016.2 4919.3 5006.7 4929.3 5006.7 4921.2 5012.6 4929.3 5006.7 4932.3 4997.2 4935.4 4987.7 4938.5 4978.2 4941.6 4987.7 4931.6 4987.7 4923.5 4993.6 4920.4 5003.1 4928.5 4997.2 4936.6 4991.3 4946.6 4991.3 4943.5 4981.8 4946.6 4972.3 4943.5 4981.8 4935.4 4987.7 4932.3 4978.2 4924.3 4984.1 4921.2 4993.6 4924.3 4984.1 4916.2 4989.9 4924.3 4995.8 4914.3 4995.8 4911.2 5005.3 4919.3 4999.4 4922.3 4989.9 4925.4 4999.4 4933.5 5005.3 4941.6 5011.2 4933.5 5017.1 4941.6 5023 4938.5 5032.5" clip-path="url(#a)" fill="none" stroke="#000" stroke-linecap="round"/>
<polyline points="4938.5 5032.5 4946.6 5038.3 4938.5 5032.5 4946.6 5038.3 4954.7 5044.2 4957.8 5034.7 4947.8 5034.7 4957.8 5034.7 4947.8 5034.7 4950.9 5025.2 4954 5015.7 4945.9 5021.6 4949 5012.1 4957.1 5006.2 4960.2 5015.7 4957.1 5025.2 4947.1 5025.2 4955.2 5019.3 4947.1 5025.2 4944 5015.7 4954 5015.7 4962.1 5009.8 4970.2 5015.7 4980.2 5015.7 4983.2 5006.2 4986.3 4996.7 4996.3 4996.7 5006.3 4996.7 4996.3 4996.7 4999.4 5006.2 4991.3 5000.3 4988.2 4990.8 4980.2 4984.9 4972.1 4990.8 4969 4981.3 4972.1 4990.8 4980.2 4996.7 4970.2 4996.7 4973.2 4987.2 4981.3 4993 4978.2 5002.5 4981.3 4993 4973.2 4987.2" clip-path="url(#a)" fill="none" stroke="#000" stroke-linecap="round"/>
<polyline points="4973.2 4987.2 4970.2 4996.7 4978.2 4990.8 4986.3 4996.7 4989.4 5006.2 4986.3 5015.7 4996.3 5015.7 4999.4 5006.2 5009.4 5006.2 5012.5 5015.7 5009.4 5006.2 5012.5 4996.7 5015.6 4987.2 5018.7 4996.7 5021.8 5006.2 5024.9 4996.7 5028 4987.2 5019.9 4981.3 5029.9 4981.3 5033 4990.8 5036.1 4981.3 5033 4990.8 5029.9 4981.3 5021.8 4987.2 5018.7 4977.6 5021.8 4987.2 5013.7 4993 5021.8 4998.9 5018.7 5008.4 5010.6 5014.3 5013.7 5023.8 5005.6 5017.9 4995.6 5017.9 4998.7 5008.4 4990.6 5014.3 5000.6 5014.3 5008.7 5020.2 4998.7 5020.2 5006.8 5014.3 4996.8 5014.3 5004.9 5020.2 5013 5014.3 5023 5014.3" clip-path="url(#a)" fill="none" stroke="#000" stroke-linecap="round"/>
<polyline points="5023 5014.3 5013 5014.3 5016.1 5023.8 5019.1 5033.3 5029.1 5033.3 5039.1 5033.3 5047.2 5027.4 5039.1 5021.6 5042.2 5031.1 5052.2 5031.1 5055.3 5021.6 5065.3 5021.6 5073.4 5015.7 5081.5 5021.6 5073.4 5027.4 5063.4 5027.4 5055.3 5033.3 5045.3 5033.3 5053.4 5039.2 5043.4 5039.2 5046.5 5048.7 5049.6 5058.2 5041.5 5064.1 5038.4 5054.6 5028.4 5054.6 5036.5 5060.5 5033.4 5070 5043.4 5070 5046.5 5060.5 5038.4 5054.6 5028.4 5054.6 5036.5 5060.5 5028.4 5066.3 5031.5 5056.8 5028.4 5066.3 5031.5 5075.9 5034.6 5085.4 5037.7 5094.9 5029.6 5089 5037.7 5083.1 5040.8 5073.6 5037.7 5064.1 5034.6 5073.6" clip-path="url(#a)" fill="none" stroke="#000" stroke-linecap="round"/>
<polyline points="5034.6 5073.6 5031.5 5083.1 5023.4 5089 5031.5 5094.9 5034.6 5104.4 5031.5 5094.9 5034.6 5085.4 5042.7 5091.2 5045.8 5081.7 5042.7 5072.2 5045.8 5081.7 5048.9 5072.2 5038.9 5072.2 5047 5066.3 5043.9 5056.8 5040.8 5066.3 5043.9 5075.9 5035.8 5070 5025.8 5070 5015.8 5070 5018.9 5060.5 5008.9 5060.5 5005.8 5051 4995.8 5051 5005.8 5051 4995.8 5051 4985.8 5051 4988.9 5060.5 4997 5054.6 4988.9 5060.5 4997 5054.6 5e3 5064.1 5003.1 5073.6 5006.2 5064.1 5009.3 5073.6 5006.2 5083.1 4998.1 5077.2 4995 5067.7 5003.1 5061.9 5e3 5071.4 5003.1 5061.9 5011.2 5067.7 5003.1 5073.6" clip-path="url(#a)" fill="none" stroke="#000" stroke-linecap="round"/>
<polyline points="5003.1 5073.6 5e3 5083.1 4990 5083.1 4982 5089 4985 5098.5 4988.1 5108 4980 5113.9 4972 5119.8 4980 5113.9 4972 5108 4982 5108 4990 5113.9 5e3 5113.9 5003.1 5104.4 5011.2 5110.3 5003.1 5104.4 4993.1 5104.4 5001.2 5098.5 5004.3 5108 4994.3 5108 4991.2 5098.5 4994.3 5108 5004.3 5108 5001.2 5098.5 4998.1 5108 4988.1 5108 4980 5102.1 4977 5092.6 4968.9 5098.5 4972 5108 4963.9 5113.9 4955.8 5108 4963.9 5113.9 4967 5123.4 4970 5132.9 4962 5127 4953.9 5121.2 4957 5130.7 4960 5140.2 4970 5140.2 4962 5146.1 4953.9 5140.2 4957 5149.7" clip-path="url(#a)" fill="none" stroke="#000" stroke-linecap="round"/>
<polyline points="4957 5149.7 4953.9 5140.2 4962 5146.1 4965 5136.5 4973.1 5142.4 4965 5136.5 4968.1 5127 4958.1 5127 4955 5117.5 4958.1 5108 4950 5102.1 4960 5102.1 4968.1 5096.3 4971.2 5105.8 4974.3 5096.3 4966.2 5102.1 4956.2 5102.1 4964.3 5096.3 4961.2 5105.8 4969.3 5099.9 4959.3 5099.9 4956.2 5109.4 4948.1 5115.3 4956.2 5109.4 4948.1 5103.5 4940 5097.6 4932 5103.5 4923.9 5109.4 4920.8 5118.9 4930.8 5118.9 4922.7 5113 4914.6 5118.9 4917.7 5128.4 4909.6 5134.3 4906.5 5143.8 4896.5 5143.8 4899.6 5134.3 4907.7 5128.4 4910.8 5118.9 4918.9 5113 4908.9 5113 4917 5107.2 4908.9 5101.3" clip-path="url(#a)" fill="none" stroke="#000" stroke-linecap="round"/>
<polyline points="4908.9 5101.3 4900.8 5095.4 4903.9 5085.9 4912 5091.8 4920 5085.9 4910 5085.9 4907 5076.4 4898.9 5082.3 4902 5091.8 4912 5091.8 4920 5085.9 4910 5085.9 4913.1 5076.4 4916.2 5085.9 4913.1 5076.4 4905 5070.5 4897 5064.6 4888.9 5058.7 4898.9 5058.7 4895.8 5068.3 4898.9 5077.8 4907 5083.6 4903.9 5074.1 4900.8 5064.6 4903.9 5055.1 4893.9 5055.1 4885.8 5049.2 4893.9 5055.1 4897 5064.6 4887 5064.6 4890 5074.1 4898.1 5080 4890 5074.1 4893.1 5083.6 4901.2 5077.8 4898.1 5087.3 4906.2 5093.2 4903.1 5083.6 4895 5077.8 4905 5077.8 4913.1 5071.9 4921.2 5066 4924.3 5075.5" clip-path="url(#a)" fill="none" stroke="#000" stroke-linecap="round"/>
<polyline points="4924.3 5075.5 4932.4 5069.6 4940.5 5075.5 4948.6 5069.6 4940.5 5075.5 4948.6 5069.6 4956.7 5063.8 4948.6 5057.9 4945.5 5067.4 4948.6 5057.9 4945.5 5067.4 4937.4 5061.5 4929.3 5055.6 4932.4 5065.2 4924.3 5059.3 4921.2 5049.8 4931.2 5049.8 4939.3 5055.6 4936.2 5065.2 4933.1 5055.6 4936.2 5065.2 4926.2 5065.2 4929.3 5055.6 4926.2 5046.1 4934.3 5040.3 4937.4 5030.7 4929.3 5024.9 4921.2 5019 4924.3 5009.5 4927.4 5e3 4924.3 5009.5 4934.3 5009.5 4926.2 5015.4 4916.2 5015.4 4908.1 5021.2 4911.2 5030.7 4901.2 5030.7 4911.2 5030.7 4919.3 5024.9 4916.2 5034.4 4908.1 5028.5 4916.2 5022.6 4924.3 5028.5" clip-path="url(#a)" fill="none" stroke="#000" stroke-linecap="round"/>
<polyline points="4924.3 5028.5 4916.2 5022.6 4908.1 5028.5 4916.2 5034.4 4913.1 5024.9 4921.2 5019 4931.2 5019 4939.3 5024.9 4942.4 5015.4 4934.3 5009.5 4937.4 5e3 4947.4 5e3 4937.4 5e3 4929.3 4994.1 4921.2 4988.2 4931.2 4988.2 4941.2 4988.2 4933.1 4982.3 4925 4976.5 4917 4982.3 4920 4972.8 4930 4972.8 4922 4966.9 4930 4972.8 4920 4972.8 4923.1 4982.3 4913.1 4982.3 4923.1 4982.3 4926.2 4991.8 4934.3 4986 4942.4 4991.8 4945.5 5001.4 4955.5 5001.4 4947.4 5007.2 4944.3 5016.7 4936.2 5010.9 4939.3 5020.4 4942.4 5010.9 4950.5 5005 4947.4 5014.5 4944.3 5005 4941.2 5014.5 4949.3 5008.6" clip-path="url(#a)" fill="none" stroke="#000" stroke-linecap="round"/>
<polyline points="4949.3 5008.6 4946.2 4999.1 4949.3 4989.6 4946.2 4999.1 4956.2 4999.1 4966.2 4999.1 4969.3 4989.6 4972.4 4980.1 4969.3 4970.6 4961.2 4976.5 4971.2 4976.5 4974.3 4966.9 4966.2 4961.1 4969.3 4951.6 4966.2 4942 4974.3 4936.2 4977.4 4945.7 4974.3 4955.2 4977.4 4964.7 4974.3 4974.2 4982.4 4968.3 4979.3 4977.8 4989.3 4977.8 4999.3 4977.8 5002.4 4987.4 4992.4 4987.4 4989.3 4996.9 4997.4 4991 5005.5 4996.9 5008.6 4987.4 5000.5 4981.5 4992.4 4987.4 4989.3 4996.9 4997.4 4991 5000.5 5000.5 4992.4 4994.6 5000.5 5000.5 5010.5 5000.5 5020.5 5000.5 5030.5 5000.5 5022.4 5006.4 5019.3 4996.9 5011.2 4991" clip-path="url(#a)" fill="none" stroke="#000" stroke-linecap="round"/>
<polyline points="5011.2 4991 5001.2 4991 5009.3 4996.9 5017.4 5002.7 5020.5 5012.3 5028.6 5006.4 5038.6 5006.4 5028.6 5006.4 5020.5 5000.5 5028.6 4994.6 5020.5 4988.7 5010.5 4988.7 5020.5 4988.7 5012.4 4982.9 5009.3 4992.4 5006.2 4982.9 4996.2 4982.9 5004.3 4988.7 5014.3 4988.7 5006.2 4994.6 5003.1 5004.1 5e3 5013.6 4992 5007.8 4988.9 5017.3 4978.9 5017.3 4975.8 5026.8 4978.9 5017.3 4975.8 5026.8 4972.7 5036.3 4982.7 5036.3 4979.6 5026.8 4982.7 5036.3 4979.6 5026.8 4989.6 5026.8 4999.6 5026.8 4991.5 5020.9 5001.5 5020.9 5009.6 5026.8 5001.5 5032.7 4991.5 5032.7 4988.4 5023.2 4996.5 5029 4988.4 5023.2" clip-path="url(#a)" fill="none" stroke="#000" stroke-linecap="round"/>
<polyline points="4988.4 5023.2 4996.5 5017.3 4999.6 5026.8 5007.7 5032.7 5004.6 5042.2 5007.7 5051.7 5017.7 5051.7 5027.7 5051.7 5030.8 5061.2 5033.9 5070.7 5030.8 5061.2 5022.7 5067.1 5025.8 5057.6 5033.9 5051.7 5037 5042.2 5028.9 5036.3 5037 5030.4 5028.9 5036.3 5025.8 5045.8 5022.7 5036.3 5032.7 5036.3 5029.6 5045.8 5019.6 5045.8 5029.6 5045.8 5032.7 5036.3 5022.7 5036.3 5030.8 5042.2 5027.7 5051.7 5019.6 5057.6 5009.6 5057.6 5012.7 5067.1 5022.7 5067.1 5025.8 5076.6 5017.7 5082.5 5025.8 5076.6 5035.8 5076.6 5045.8 5076.6 5037.7 5082.5 5029.6 5088.3 5039.6 5088.3 5049.6 5088.3 5052.7 5078.8 5055.8 5088.3" clip-path="url(#a)" fill="none" stroke="#000" stroke-linecap="round"/>
<polyline points="5055.8 5088.3 5047.7 5094.2 5057.7 5094.2 5047.7 5094.2 5055.8 5088.3 5047.7 5082.5 5055.8 5076.6 5047.7 5082.5 5039.6 5076.6 5036.5 5086.1 5026.5 5086.1 5018.4 5080.2 5010.3 5086.1 5013.4 5076.6 5010.3 5067.1 5020.3 5067.1 5012.2 5061.2 5015.3 5070.7 5012.2 5080.2 5009.1 5070.7 5017.2 5076.6 5014.1 5067.1 5011.1 5076.6 5019.1 5082.5 5022.2 5092 5019.1 5082.5 5011.1 5088.3 5003 5094.2 5006.1 5103.7 5009.1 5113.2 5017.2 5119.1 5020.3 5109.6 5012.2 5115.5 5015.3 5125 5025.3 5125 5028.4 5134.5 5036.5 5140.4 5033.4 5149.9 5025.3 5144 5022.2 5134.5 5014.1 5128.6 5011.1 5119.1 5008 5128.6" clip-path="url(#a)" fill="none" stroke="#000" stroke-linecap="round"/>
<polyline points="5008 5128.6 5004.9 5119.1 4996.8 5125 4988.7 5130.9 4980.6 5125 4988.7 5119.1 4985.6 5109.6 4982.5 5119.1 4972.5 5119.1 4975.6 5128.6 4985.6 5128.6 4988.7 5119.1 4985.6 5109.6 4982.5 5119.1 4974.4 5113.2 4984.4 5113.2 4974.4 5113.2 4966.3 5119.1 4958.2 5125 4950.2 5130.9 4953.2 5121.4 4961.3 5127.2 4971.3 5127.2 4979.4 5121.4 4969.4 5121.4 4959.4 5121.4 4951.3 5115.5 4948.2 5125 4940.2 5130.9 4948.2 5125 4958.2 5125 4955.2 5134.5 4965.2 5134.5 4973.2 5128.6 4965.2 5134.5 4975.2 5134.5 4972.1 5125 4980.2 5130.9 4988.2 5125 4978.2 5125 4970.2 5130.9 4973.2 5121.4 4970.2 5111.9" clip-path="url(#a)" fill="none" stroke="#000" stroke-linecap="round"/>
<polyline points="4970.2 5111.9 4967.1 5102.3 4977.1 5102.3 4974 5092.8 4982.1 5087 4979 5077.4 4982.1 5087 4979 5077.4 4975.9 5067.9 4967.8 5073.8 4975.9 5079.7 4967.8 5073.8 4975.9 5079.7 4967.8 5085.6 4959.7 5091.4 4969.7 5091.4 4961.6 5097.3 4951.6 5097.3 4954.7 5087.8 4962.8 5081.9 4970.9 5087.8 4960.9 5087.8 4970.9 5087.8 4967.8 5097.3 4959.7 5091.4 4949.7 5091.4 4946.6 5081.9 4938.5 5076.1 4930.4 5081.9 4922.3 5087.8 4914.3 5081.9 4906.2 5076.1 4914.3 5081.9 4917.3 5072.4 4920.4 5081.9 4917.3 5091.4 4920.4 5101 4930.4 5101 4927.3 5110.5 4930.4 5101 4927.3 5091.4 4935.4 5097.3 4927.3 5103.2" clip-path="url(#a)" fill="none" stroke="#000" stroke-linecap="round"/>
<polyline points="4927.3 5103.2 4924.3 5093.7 4932.3 5087.8 4924.3 5093.7 4927.3 5103.2 4935.4 5097.3 4925.4 5097.3 4922.3 5087.8 4925.4 5078.3 4933.5 5072.4 4925.4 5066.5 4917.3 5072.4 4909.3 5066.5 4912.3 5057 4909.3 5066.5 4901.2 5072.4 4893.1 5078.3 4896.2 5068.8 4899.3 5059.3 4891.2 5065.2 4883.1 5071 4886.2 5080.5 4878.1 5074.7 4881.2 5065.2 4873.1 5071 4881.2 5065.2 4878.1 5074.7 4888.1 5074.7 4885 5084.2 4888.1 5074.7 4898.1 5074.7 4895 5065.2 4903.1 5059.3 4913.1 5059.3 4916.2 5049.8 4919.3 5059.3 4927.3 5065.2 4919.3 5071 4929.3 5071 4921.2 5065.2 4918.1 5055.6 4926.2 5061.5 4916.2 5061.5" clip-path="url(#a)" fill="none" stroke="#000" stroke-linecap="round"/>
<polyline points="4916.2 5061.5 4924.3 5067.4 4921.2 5057.9 4911.2 5057.9 4903.1 5052 4911.2 5057.9 4914.3 5048.4 4917.3 5038.9 4909.3 5033 4901.2 5027.1 4891.2 5027.1 4894.3 5036.6 4897.3 5027.1 4889.3 5021.2 4881.2 5027.1 4873.1 5021.2 4863.1 5021.2 4860 5011.7 4870 5011.7 4878.1 5017.6 4888.1 5017.6 4896.2 5023.5 4893.1 5014 4901.2 5019.8 4904.3 5010.3 4907.3 5000.8 4917.3 5000.8 4914.3 5010.3 4922.3 5016.2 4919.3 5006.7 4927.3 5000.8 4919.3 4994.9 4911.2 5000.8 4914.3 5010.3 4922.3 5016.2 4919.3 5006.7 4929.3 5006.7 4921.2 5012.6 4929.3 5006.7 4932.3 4997.2 4935.4 4987.7 4938.5 4978.2 4941.6 4987.7" clip-path="url(#a)" fill="none" stroke="#000" stroke-linecap="round"/>
<polyline points="4941.6 4987.7 4931.6 4987.7 4923.5 4993.6 4920.4 5003.1 4928.5 4997.2 4936.6 4991.3 4946.6 4991.3 4943.5 4981.8 4946.6 4972.3 4943.5 4981.8 4935.4 4987.7 4932.3 4978.2 4924.3 4984.1 4921.2 4993.6 4924.3 4984.1 4916.2 4989.9 4924.3 4995.8 4914.3 4995.8 4911.2 5005.3 4919.3 4999.4 4922.3 4989.9 4925.4 4999.4 4933.5 5005.3 4941.6 5011.2 4933.5 5017.1 4941.6 5023 4938.5 5032.5 4946.6 5038.3 4938.5 5032.5 4946.6 5038.3 4954.7 5044.2 4957.8 5034.7 4947.8 5034.7 4957.8 5034.7 4947.8 5034.7 4950.9 5025.2 4954 5015.7 4945.9 5021.6 4949 5012.1 4957.1 5006.2 4960.2 5015.7 4957.1 5025.2 4947.1 5025.2" clip-path="url(#a)" fill="none" stroke="#000" stroke-linecap="round"/>
<polyline points="4947.1 5025.2 4955.2 5019.3 4947.1 5025.2 4944 5015.7 4954 5015.7 4962.1 5009.8 4970.2 5015.7 4980.2 5015.7 4983.2 5006.2 4986.3 4996.7 4996.3 4996.7 5006.3 4996.7 4996.3 4996.7 4999.4 5006.2 4991.3 5000.3 4988.2 4990.8 4980.2 4984.9 4972.1 4990.8 4969 4981.3 4972.1 4990.8 4980.2 4996.7 4970.2 4996.7 4973.2 4987.2 4981.3 4993 4978.2 5002.5 4981.3 4993 4973.2 4987.2 4970.2 4996.7 4978.2 4990.8 4986.3 4996.7 4989.4 5006.2 4986.3 5015.7 4996.3 5015.7 4999.4 5006.2 5009.4 5006.2 5012.5 5015.7 5009.4 5006.2 5012.5 4996.7 5015.6 4987.2 5018.7 4996.7 5021.8 5006.2 5024.9 4996.7 5028 4987.2" clip-path="url(#a)" fill="none" stroke="#000" stroke-linecap="round"/>
<polyline points="5028 4987.2 5019.9 4981.3 5029.9 4981.3 5033 4990.8 5036.1 4981.3 5033 4990.8 5029.9 4981.3 5021.8 4987.2 5018.7 4977.6 5021.8 4987.2 5013.7 4993 5021.8 4998.9 5018.7 5008.4 5010.6 5014.3 5013.7 5023.8 5005.6 5017.9 4995.6 5017.9 4998.7 5008.4 4990.6 5014.3 5000.6 5014.3 5008.7 5020.2 4998.7 5020.2 5006.8 5014.3 4996.8 5014.3 5004.9 5020.2 5013 5014.3 5023 5014.3 5013 5014.3 5016.1 5023.8 5019.1 5033.3 5029.1 5033.3 5039.1 5033.3 5047.2 5027.4 5039.1 5021.6 5042.2 5031.1 5052.2 5031.1 5055.3 5021.6 5065.3 5021.6 5073.4 5015.7 5081.5 5021.6 5073.4 5027.4 5063.4 5027.4 5055.3 5033.3" clip-path="url(#a)" fill="none" stroke="#000" stroke-linecap="round"/>
<polyline points="5055.3 5033.3 5045.3 5033.3 5053.4 5039.2 5043.4 5039.2 5046.5 5048.7 5049.6 5058.2 5041.5 5064.1 5038.4 5054.6 5028.4 5054.6 5036.5 5060.5 5033.4 5070 5043.4 5070 5046.5 5060.5 5038.4 5054.6 5028.4 5054.6 5036.5 5060.5 5028.4 5066.3 5031.5 5056.8 5028.4 5066.3 5031.5 5075.9 5034.6 5085.4 5037.7 5094.9 5029.6 5089 5037.7 5083.1 5040.8 5073.6 5037.7 5064.1 5034.6 5073.6 5031.5 5083.1 5023.4 5089 5031.5 5094.9 5034.6 5104.4 5031.5 5094.9 5034.6 5085.4 5042.7 5091.2 5045.8 5081.7 5042.7 5072.2 5045.8 5081.7 5048.9 5072.2 5038.9 5072.2 5047 5066.3 5043.9 5056.8 5040.8 5066.3 5043.9 5075.9" clip-path="url(#a)" fill="none" stroke="#000" stroke-linecap="round"/>
<polyline points="5043.9 5075.9 5035.8 5070 5025.8 5070 5015.8 5070 5018.9 5060.5 5008.9 5060.5 5005.8 5051 4995.8 5051 5005.8 5051 4995.8 5051 4985.8 5051 4988.9 5060.5 4997 5054.6 4988.9 5060.5 4997 5054.6 5e3 5064.1 5003.1 5073.6 5006.2 5064.1 5009.3 5073.6 5006.2 5083.1 4998.1 5077.2 4995 5067.7 5003.1 5061.9 5e3 5071.4 5003.1 5061.9 5011.2 5067.7 5003.1 5073.6 5e3 5083.1 4990 5083.1 4982 5089 4985 5098.5 4988.1 5108 4980 5113.9 4972 5119.8 4980 5113.9 4972 5108 4982 5108 4990 5113.9 5e3 5113.9 5003.1 5104.4 5011.2 5110.3 5003.1 5104.4 4993.1 5104.4" clip-path="url(#a)" fill="none" stroke="#000" stroke-linecap="round"/>
<polyline points="4993.1 5104.4 5001.2 5098.5 5004.3 5108 4994.3 5108 4991.2 5098.5 4994.3 5108 5004.3 5108 5001.2 5098.5 4998.1 5108 4988.1 5108 4980 5102.1 4977 5092.6 4968.9 5098.5 4972 5108 4963.9 5113.9 4955.8 5108 4963.9 5113.9 4967 5123.4 4970 5132.9 4962 5127 4953.9 5121.2 4957 5130.7 4960 5140.2 4970 5140.2 4962 5146.1 4953.9 5140.2 4957 5149.7 4953.9 5140.2 4962 5146.1 4965 5136.5 4973.1 5142.4 4965 5136.5 4968.1 5127 4958.1 5127 4955 5117.5 4958.1 5108 4950 5102.1 4960 5102.1 4968.1 5096.3 4971.2 5105.8 4974.3 5096.3 4966.2 5102.1 4956.2 5102.1" clip-path="url(#a)" fill="none" stroke="#000" stroke-linecap="round"/>
<polyline points="4956.2 5102.1 4964.3 5096.3 4961.2 5105.8 4969.3 5099.9 4959.3 5099.9 4956.2 5109.4 4948.1 5115.3 4956.2 5109.4 4948.1 5103.5 4940 5097.6 4932 5103.5 4923.9 5109.4 4920.8 5118.9 4930.8 5118.9 4922.7 5113 4914.6 5118.9 4917.7 5128.4 4909.6 5134.3 4906.5 5143.8 4896.5 5143.8 4899.6 5134.3 4907.7 5128.4 4910.8 5118.9 4918.9 5113 4908.9 5113 4917 5107.2 4908.9 5101.3 4900.8 5095.4 4903.9 5085.9 4912 5091.8 4920 5085.9 4910 5085.9 4907 5076.4 4898.9 5082.3 4902 5091.8 4912 5091.8 4920 5085.9 4910 5085.9 4913.1 5076.4 4916.2 5085.9 4913.1 5076.4 4905 5070.5 4897 5064.6" clip-path="url(#a)" fill="none" stroke="#000" stroke-linecap="round"/>
<polyline points="4897 5064.6 4888.9 5058.7 4898.9 5058.7 4895.8 5068.3 4898.9 5077.8 4907 5083.6 4903.9 5074.1 4900.8 5064.6 4903.9 5055.1 4893.9 5055.1 4885.8 5049.2 4893.9 5055.1 4897 5064.6 4887 5064.6 4890 5074.1 4898.1 5080 4890 5074.1 4893.1 5083.6 4901.2 5077.8 4898.1 5087.3 4906.2 5093.2 4903.1 5083.6 4895 5077.8 4905 5077.8 4913.1 5071.9 4921.2 5066 4924.3 5075.5 4932.4 5069.6 4940.5 5075.5 4948.6 5069.6 4940.5 5075.5 4948.6 5069.6 4956.7 5063.8 4948.6 5057.9 4945.5 5067.4 4948.6 5057.9 4945.5 5067.4 4937.4 5061.5 4929.3 5055.6 4932.4 5065.2 4924.3 5059.3 4921.2 5049.8 4931.2 5049.8" clip-path="url(#a)" fill="none" stroke="#000" stroke-linecap="round"/>
<polyline points="4931.2 5049.8 4939.3 5055.6 4936.2 5065.2 4933.1 5055.6 4936.2 5065.2 4926.2 5065.2 4929.3 5055.6 4926.2 5046.1 4934.3 5040.3 4937.4 5030.7 4929.3 5024.9 4921.2 5019 4924.3 5009.5 4927.4 5e3 4924.3 5009.5 4934.3 5009.5 4926.2 5015.4 4916.2 5015.4 4908.1 5021.2 4911.2 5030.7 4901.2 5030.7 4911.2 5030.7 4919.3 5024.9 4916.2 5034.4 4908.1 5028.5 4916.2 5022.6 4924.3 5028.5 4916.2 5022.6 4908.1 5028.5 4916.2 5034.4 4913.1 5024.9 4921.2 5019 4931.2 5019 4939.3 5024.9 4942.4 5015.4 4934.3 5009.5 4937.4 5e3 4947.4 5e3 4937.4 5e3 4929.3 4994.1 4921.2 4988.2 4931.2 4988.2 4941.2 4988.2" clip-path="url(#a)" fill="none" stroke="#000" stroke-linecap="round"/>
<polyline points="4941.2 4988.2 4933.1 4982.3 4925 4976.5 4917 4982.3 4920 4972.8 4930 4972.8 4922 4966.9 4930 4972.8 4920 4972.8 4923.1 4982.3 4913.1 4982.3 4923.1 4982.3 4926.2 4991.8 4934.3 4986 4942.4 4991.8 4945.5 5001.4 4955.5 5001.4 4947.4 5007.2 4944.3 5016.7 4936.2 5010.9 4939.3 5020.4 4942.4 5010.9 4950.5 5005 4947.4 5014.5 4944.3 5005 4941.2 5014.5 4949.3 5008.6 4946.2 4999.1 4949.3 4989.6 4946.2 4999.1 4956.2 4999.1 4966.2 4999.1 4969.3 4989.6 4972.4 4980.1 4969.3 4970.6 4961.2 4976.5 4971.2 4976.5 4974.3 4966.9 4966.2 4961.1 4969.3 4951.6 4966.2 4942 4974.3 4936.2 4977.4 4945.7" clip-path="url(#a)" fill="none" stroke="#000" stroke-linecap="round"/>
<polyline points="4977.4 4945.7 4974.3 4955.2 4977.4 4964.7 4974.3 4974.2 4982.4 4968.3 4979.3 4977.8 4989.3 4977.8 4999.3 4977.8 5002.4 4987.4 4992.4 4987.4 4989.3 4996.9 4997.4 4991 5005.5 4996.9 5008.6 4987.4 5000.5 4981.5 4992.4 4987.4 4989.3 4996.9 4997.4 4991 5000.5 5000.5 4992.4 4994.6 5000.5 5000.5" clip-path="url(#a)" fill="none" stroke="#000" stroke-linecap="round"/>
</svg>
