<?xml version="1.0" encoding="UTF-8"?>
<svg width="1e4px" height="1e4px" baseProfile="full" version="1.1" viewBox="4939.3 4953.8 91.18 89.228" xmlns="http://www.w3.org/2000/svg">
<defs>
<clipPath id="a">
<rect width="1e4" height="1e4"/>
</clipPath>
</defs>
<polyline points="5000.5 5000.5 5010.5 5000.5 5020.5 5000.5 5030.5 5000.5 5022.4 5006.4 5025.5 4996.9 5017.4 4991 5009.3 4996.9 5017.4 4991 5020.5 4981.5 5023.6 4991 5020.5 4981.5 5023.6 4991 5015.5 4985.1 5007.4 4991 4997.4 4991 4989.3 4996.9 4997.4 5002.7 5000.5 5012.3 5003.6 5021.8 4993.6 5021.8 4990.5 5031.3 4980.5 5031.3 4988.6 5037.2 4980.5 5043 4983.6 5033.5 4993.6 5033.5 4996.7 5024 4993.6 5014.5 4985.5 5008.6 4982.4 4999.1 4972.4 4999.1 4962.4 4999.1 4972.4 4999.1 4975.5 4989.6 4983.6 4983.7 4991.7 4989.6 4999.8 4995.5 5009.8 4995.5 5006.7 4986 4996.7 4986 5004.8 4991.8 4996.7 4986" clip-path="url(#a)" fill="none" stroke="#000" stroke-linecap="round"/>
<polyline points="4996.7 4986 4988.6 4980.1 4985.5 4989.6 4995.5 4989.6 5003.6 4983.7 5006.7 4974.2 4998.6 4968.3 5006.7 4974.2 5003.6 4983.7 5011.7 4989.6 5003.6 4995.5 4995.5 4989.6 4985.5 4989.6 4993.6 4995.5 4985.5 4989.6 4995.5 4989.6 5003.6 4995.5 4995.5 4989.6 4992.4 4999.1 4989.3 4989.6 4986.2 4999.1 4994.3 5005 4997.4 4995.5 5007.4 4995.5 4999.3 4989.6 4989.3 4989.6 4979.3 4989.6 4989.3 4989.6 4997.4 4995.5 4987.4 4995.5 4977.4 4995.5 4974.3 5005 4971.2 4995.5 4968.1 5005 4960 5010.9 4952 5016.7 4943.9 5022.6 4947 5013.1 4950 5022.6 4960 5022.6 4963.1 5013.1 4960 5022.6 4963.1 5032.1" clip-path="url(#a)" fill="none" stroke="#000" stroke-linecap="round"/>
<polyline points="4963.1 5032.1 4955 5026.3 4963.1 5032.1 4955 5026.3 4965 5026.3 4968.1 5016.7 4976.2 5010.9 4979.3 5001.4 4969.3 5001.4 4961.2 4995.5 4953.1 4989.6 4961.2 4983.7 4958.1 4974.2 4966.2 4968.3 4956.2 4968.3 4959.3 4958.8 4962.4 4968.3 4954.3 4974.2 4957.4 4983.7 4965.5 4989.6 4975.5 4989.6 4983.6 4995.5 4991.7 4989.6 4999.8 4983.7 4991.7 4989.6 4994.8 4999.1 4991.7 5008.6 4981.7 5008.6 4971.7 5008.6 4963.6 5014.5 4971.7 5020.4 4979.8 5014.5 4969.8 5014.5 4979.8 5014.5 4989.8 5014.5 4986.7 5005 4978.6 5010.9 4975.5 5020.4 4978.6 5029.9 4988.6 5029.9 4978.6 5029.9 4975.5 5020.4 4965.5 5020.4" clip-path="url(#a)" fill="none" stroke="#000" stroke-linecap="round"/>
<polyline points="4965.5 5020.4 4968.6 5010.9 4978.6 5010.9 4986.7 5005 4976.7 5005 4986.7 5005 4978.6 5010.9 4968.6 5010.9 4978.6 5010.9 4975.5 5001.4 4983.6 5007.2 4980.5 4997.7 4970.5 4997.7 4973.6 5007.2 4965.5 5013.1 4975.5 5013.1 4983.6 5007.2 4991.7 5001.4 4983.6 5007.2 4973.6 5007.2 4981.7 5001.4 4989.8 4995.5 4986.7 4986 4994.8 4991.8 4991.7 4982.3 4994.8 4972.8 4997.9 4963.3 5001 4953.8 5004 4963.3 4996 4957.4 4987.9 4963.3 4991 4972.8 4987.9 4963.3 4979.8 4957.4 4989.8 4957.4 4979.8 4957.4 4989.8 4957.4 4981.7 4963.3 4984.8 4972.8 4981.7 4982.3 4984.8 4991.8 4992.9 4986 5002.9 4986" clip-path="url(#a)" fill="none" stroke="#000" stroke-linecap="round"/>
<polyline points="5002.9 4986 5012.9 4986 5009.8 4995.5 5017.9 5001.4 5014.8 5010.9 5022.9 5005 5026 5014.5 5017.9 5008.6 5021 4999.1 5012.9 4993.2 5002.9 4993.2 4994.8 4999.1 4984.8 4999.1 4981.7 5008.6 4978.6 5018.1 4981.7 5008.6 4973.6 5002.7 4970.5 4993.2 4978.6 4987.4 4986.7 4981.5 4989.8 4972 4979.8 4972 4976.7 4981.5 4984.8 4975.6 4976.7 4981.5 4968.6 4987.4 4976.7 4993.2 4979.8 4983.7 4976.7 4974.2 4968.6 4968.3 4960.5 4974.2 4968.6 4968.3 4976.7 4974.2 4984.8 4968.3 4987.9 4977.8 4979.8 4983.7 4976.7 4993.2 4984.8 4987.4 4976.7 4993.2 4979.8 4983.7 4987.9 4977.8 4979.8 4983.7 4987.9 4989.6" clip-path="url(#a)" fill="none" stroke="#000" stroke-linecap="round"/>
<polyline points="4987.9 4989.6 4977.9 4989.6 4986 4995.5 4994 4989.6 4986 4983.7 4989 4974.2 4981 4980.1 4977.9 4989.6 4974.8 4999.1 4977.9 4989.6 4986 4983.7 4982.9 4993.2 4979.8 5002.7 4987.9 5008.6 4977.9 5008.6 4986 5014.5 4989 5024 4992.1 5033.5 4995.2 5043 4987.1 5037.2 4997.1 5037.2 5000.2 5027.6 4992.1 5021.8 5000.2 5027.6 5010.2 5027.6 5002.1 5033.5 5010.2 5027.6 5002.1 5033.5 5005.2 5024 4997.1 5018.1 4994 5008.6 4986 5002.7 4982.9 5012.3 4974.8 5018.1 4966.7 5024 4963.6 5014.5 4953.6 5014.5 4950.5 5005 4947.4 5014.5 4939.3 5008.6 4949.3 5008.6 4952.4 5018.1 4962.4 5018.1" clip-path="url(#a)" fill="none" stroke="#000" stroke-linecap="round"/>
<polyline points="4962.4 5018.1 4970.5 5012.3 4973.6 5002.7 4981.7 4996.9 4978.6 4987.4 4975.5 4977.8 4978.6 4987.4 4988.6 4987.4 4996.7 4993.2 4993.6 5002.7 4990.5 5012.3 4993.6 5021.8 5001.7 5015.9 4998.6 5006.4 4995.5 5015.9 4998.6 5006.4 5001.7 4996.9 4991.7 4996.9 4994.8 5006.4 5002.9 5012.3 5012.9 5012.3 5016 5002.7 5012.9 5012.3 5002.9 5012.3 4999.8 5021.8 4991.7 5015.9 4994.8 5006.4 4991.7 4996.9 4988.6 5006.4 4991.7 4996.9 4994.8 5006.4 4991.7 5015.9 4994.8 5006.4 4984.8 5006.4 4992.9 5000.5 4982.9 5000.5 4979.8 5010 4989.8 5010 4992.9 5019.5 4996 5010 4992.9 5000.5 4989.8 4991 4992.9 5000.5" clip-path="url(#a)" fill="none" stroke="#000" stroke-linecap="round"/>
<polyline points="4992.9 5000.5 4989.8 5010 4986.7 5000.5 4983.6 4991 4973.6 4991 4981.7 4985.1 4971.7 4985.1 4963.6 4979.2 4955.5 4973.4 4947.4 4967.5 4957.4 4967.5 4949.3 4973.4 4952.4 4982.9 4962.4 4982.9 4952.4 4982.9 4944.3 4988.7 4947.4 4979.2 4944.3 4988.7 4947.4 4979.2 4950.5 4988.7 4960.5 4988.7 4968.6 4994.6 4978.6 4994.6 4975.5 4985.1 4978.6 4975.6 4981.7 4966.1 4989.8 4972 4997.9 4966.1 5006 4972 5002.9 4962.5 5012.9 4962.5 5004.8 4968.3 4996.7 4962.5 4988.6 4968.3 4985.5 4977.8 4988.6 4987.4 4985.5 4996.9 4993.6 5002.7 5001.7 5008.6 4993.6 5002.7 4985.5 5008.6 4975.5 5008.6 4972.4 4999.1" clip-path="url(#a)" fill="none" stroke="#000" stroke-linecap="round"/>
<polyline points="4972.4 4999.1 4969.3 4989.6 4961.2 4983.7 4958.1 4993.2 4966.2 4999.1 4963.1 4989.6 4966.2 4999.1 4969.3 5008.6 4977.4 5002.7 4969.3 4996.9 4959.3 4996.9 4951.2 5002.7 4954.3 5012.3 4951.2 5002.7 4959.3 4996.9 4956.2 4987.4 4966.2 4987.4 4969.3 4996.9 4977.4 5002.7 4974.3 4993.2 4977.4 5002.7 4969.3 4996.9 4966.2 4987.4 4969.3 4996.9 4977.4 4991 4974.3 5000.5 4982.4 4994.6 4979.3 4985.1 4971.2 4991 4963.1 4985.1 4966.2 4994.6 4974.3 5000.5 4982.4 5006.4 4974.3 5000.5 4971.2 4991 4979.3 4996.9 4987.4 5002.7 4995.5 4996.9 4992.4 5006.4 5000.5 5000.5 5010.5 5000.5 5020.5 5000.5 5030.5 5000.5" clip-path="url(#a)" fill="none" stroke="#000" stroke-linecap="round"/>
<polyline points="5030.5 5000.5 5022.4 5006.4 5025.5 4996.9 5017.4 4991 5009.3 4996.9 5017.4 4991 5020.5 4981.5 5023.6 4991 5020.5 4981.5 5023.6 4991 5015.5 4985.1 5007.4 4991 4997.4 4991 4989.3 4996.9 4997.4 5002.7 5000.5 5012.3 5003.6 5021.8 4993.6 5021.8 4990.5 5031.3 4980.5 5031.3 4988.6 5037.2 4980.5 5043 4983.6 5033.5 4993.6 5033.5 4996.7 5024 4993.6 5014.5 4985.5 5008.6 4982.4 4999.1 4972.4 4999.1 4962.4 4999.1 4972.4 4999.1 4975.5 4989.6 4983.6 4983.7 4991.7 4989.6 4999.8 4995.5 5009.8 4995.5 5006.7 4986 4996.7 4986 5004.8 4991.8 4996.7 4986 4988.6 4980.1 4985.5 4989.6 4995.5 4989.6" clip-path="url(#a)" fill="none" stroke="#000" stroke-linecap="round"/>
<polyline points="4995.5 4989.6 5003.6 4983.7 5006.7 4974.2 4998.6 4968.3 5006.7 4974.2 5003.6 4983.7 5011.7 4989.6 5003.6 4995.5 4995.5 4989.6 4985.5 4989.6 4993.6 4995.5 4985.5 4989.6 4995.5 4989.6 5003.6 4995.5 4995.5 4989.6 4992.4 4999.1 4989.3 4989.6 4986.2 4999.1 4994.3 5005 4997.4 4995.5 5007.4 4995.5 4999.3 4989.6 4989.3 4989.6 4979.3 4989.6 4989.3 4989.6 4997.4 4995.5 4987.4 4995.5 4977.4 4995.5 4974.3 5005 4971.2 4995.5 4968.1 5005 4960 5010.9 4952 5016.7 4943.9 5022.6 4947 5013.1 4950 5022.6 4960 5022.6 4963.1 5013.1 4960 5022.6 4963.1 5032.1 4955 5026.3 4963.1 5032.1 4955 5026.3" clip-path="url(#a)" fill="none" stroke="#000" stroke-linecap="round"/>
<polyline points="4955 5026.3 4965 5026.3 4968.1 5016.7 4976.2 5010.9 4979.3 5001.4 4969.3 5001.4 4961.2 4995.5 4953.1 4989.6 4961.2 4983.7 4958.1 4974.2 4966.2 4968.3 4956.2 4968.3 4959.3 4958.8 4962.4 4968.3 4954.3 4974.2 4957.4 4983.7 4965.5 4989.6 4975.5 4989.6 4983.6 4995.5 4991.7 4989.6 4999.8 4983.7 4991.7 4989.6 4994.8 4999.1 4991.7 5008.6 4981.7 5008.6 4971.7 5008.6 4963.6 5014.5 4971.7 5020.4 4979.8 5014.5 4969.8 5014.5 4979.8 5014.5 4989.8 5014.5 4986.7 5005 4978.6 5010.9 4975.5 5020.4 4978.6 5029.9 4988.6 5029.9 4978.6 5029.9 4975.5 5020.4 4965.5 5020.4 4968.6 5010.9 4978.6 5010.9 4986.7 5005" clip-path="url(#a)" fill="none" stroke="#000" stroke-linecap="round"/>
<polyline points="4986.7 5005 4976.7 5005 4986.7 5005 4978.6 5010.9 4968.6 5010.9 4978.6 5010.9 4975.5 5001.4 4983.6 5007.2 4980.5 4997.7 4970.5 4997.7 4973.6 5007.2 4965.5 5013.1 4975.5 5013.1 4983.6 5007.2 4991.7 5001.4 4983.6 5007.2 4973.6 5007.2 4981.7 5001.4 4989.8 4995.5 4986.7 4986 4994.8 4991.8 4991.7 4982.3 4994.8 4972.8 4997.9 4963.3 5001 4953.8 5004 4963.3 4996 4957.4 4987.9 4963.3 4991 4972.8 4987.9 4963.3 4979.8 4957.4 4989.8 4957.4 4979.8 4957.4 4989.8 4957.4 4981.7 4963.3 4984.8 4972.8 4981.7 4982.3 4984.8 4991.8 4992.9 4986 5002.9 4986 5012.9 4986 5009.8 4995.5 5017.9 5001.4" clip-path="url(#a)" fill="none" stroke="#000" stroke-linecap="round"/>
<polyline points="5017.9 5001.4 5014.8 5010.9 5022.9 5005 5026 5014.5 5017.9 5008.6 5021 4999.1 5012.9 4993.2 5002.9 4993.2 4994.8 4999.1 4984.8 4999.1 4981.7 5008.6 4978.6 5018.1 4981.7 5008.6 4973.6 5002.7 4970.5 4993.2 4978.6 4987.4 4986.7 4981.5 4989.8 4972 4979.8 4972 4976.7 4981.5 4984.8 4975.6 4976.7 4981.5 4968.6 4987.4 4976.7 4993.2 4979.8 4983.7 4976.7 4974.2 4968.6 4968.3 4960.5 4974.2 4968.6 4968.3 4976.7 4974.2 4984.8 4968.3 4987.9 4977.8 4979.8 4983.7 4976.7 4993.2 4984.8 4987.4 4976.7 4993.2 4979.8 4983.7 4987.9 4977.8 4979.8 4983.7 4987.9 4989.6 4977.9 4989.6 4986 4995.5 4994 4989.6" clip-path="url(#a)" fill="none" stroke="#000" stroke-linecap="round"/>
<polyline points="4994 4989.6 4986 4983.7 4989 4974.2 4981 4980.1 4977.9 4989.6 4974.8 4999.1 4977.9 4989.6 4986 4983.7 4982.9 4993.2 4979.8 5002.7 4987.9 5008.6 4977.9 5008.6 4986 5014.5 4989 5024 4992.1 5033.5 4995.2 5043 4987.1 5037.2 4997.1 5037.2 5000.2 5027.6 4992.1 5021.8 5000.2 5027.6 5010.2 5027.6 5002.1 5033.5 5010.2 5027.6 5002.1 5033.5 5005.2 5024 4997.1 5018.1 4994 5008.6 4986 5002.7 4982.9 5012.3 4974.8 5018.1 4966.7 5024 4963.6 5014.5 4953.6 5014.5 4950.5 5005 4947.4 5014.5 4939.3 5008.6 4949.3 5008.6 4952.4 5018.1 4962.4 5018.1 4970.5 5012.3 4973.6 5002.7 4981.7 4996.9" clip-path="url(#a)" fill="none" stroke="#000" stroke-linecap="round"/>
<polyline points="4981.7 4996.9 4978.6 4987.4 4975.5 4977.8 4978.6 4987.4 4988.6 4987.4 4996.7 4993.2 4993.6 5002.7 4990.5 5012.3 4993.6 5021.8 5001.7 5015.9 4998.6 5006.4 4995.5 5015.9 4998.6 5006.4 5001.7 4996.9 4991.7 4996.9 4994.8 5006.4 5002.9 5012.3 5012.9 5012.3 5016 5002.7 5012.9 5012.3 5002.9 5012.3 4999.8 5021.8 4991.7 5015.9 4994.8 5006.4 4991.7 4996.9 4988.6 5006.4 4991.7 4996.9 4994.8 5006.4 4991.7 5015.9 4994.8 5006.4 4984.8 5006.4 4992.9 5000.5 4982.9 5000.5 4979.8 5010 4989.8 5010 4992.9 5019.5 4996 5010 4992.9 5000.5 4989.8 4991 4992.9 5000.5 4989.8 5010 4986.7 5000.5 4983.6 4991" clip-path="url(#a)" fill="none" stroke="#000" stroke-linecap="round"/>
<polyline points="4983.6 4991 4973.6 4991 4981.7 4985.1 4971.7 4985.1 4963.6 4979.2 4955.5 4973.4 4947.4 4967.5 4957.4 4967.5 4949.3 4973.4 4952.4 4982.9 4962.4 4982.9 4952.4 4982.9 4944.3 4988.7 4947.4 4979.2 4944.3 4988.7 4947.4 4979.2 4950.5 4988.7 4960.5 4988.7 4968.6 4994.6 4978.6 4994.6 4975.5 4985.1 4978.6 4975.6 4981.7 4966.1 4989.8 4972 4997.9 4966.1 5006 4972 5002.9 4962.5 5012.9 4962.5 5004.8 4968.3 4996.7 4962.5 4988.6 4968.3 4985.5 4977.8 4988.6 4987.4 4985.5 4996.9 4993.6 5002.7 5001.7 5008.6 4993.6 5002.7 4985.5 5008.6 4975.5 5008.6 4972.4 4999.1 4969.3 4989.6 4961.2 4983.7 4958.1 4993.2" clip-path="url(#a)" fill="none" stroke="#000" stroke-linecap="round"/>
<polyline points="4958.1 4993.2 4966.2 4999.1 4963.1 4989.6 4966.2 4999.1 4969.3 5008.6 4977.4 5002.7 4969.3 4996.9 4959.3 4996.9 4951.2 5002.7 4954.3 5012.3 4951.2 5002.7 4959.3 4996.9 4956.2 4987.4 4966.2 4987.4 4969.3 4996.9 4977.4 5002.7 4974.3 4993.2 4977.4 5002.7 4969.3 4996.9 4966.2 4987.4 4969.3 4996.9 4977.4 4991 4974.3 5000.5 4982.4 4994.6 4979.3 4985.1 4971.2 4991 4963.1 4985.1 4966.2 4994.6 4974.3 5000.5 4982.4 5006.4 4974.3 5000.5 4971.2 4991 4979.3 4996.9 4987.4 5002.7 4995.5 4996.9 4992.4 5006.4 5000.5 5000.5 5010.5 5000.5 5020.5 5000.5 5030.5 5000.5 5022.4 5006.4 5025.5 4996.9 5017.4 4991" clip-path="url(#a)" fill="none" stroke="#000" stroke-linecap="round"/>
<polyline points="5017.4 4991 5009.3 4996.9 5017.4 4991 5020.5 4981.5 5023.6 4991 5020.5 4981.5 5023.6 4991 5015.5 4985.1 5007.4 4991 4997.4 4991 4989.3 4996.9 4997.4 5002.7 5000.5 5012.3 5003.6 5021.8 4993.6 5021.8 4990.5 5031.3 4980.5 5031.3 4988.6 5037.2 4980.5 5043 4983.6 5033.5 4993.6 5033.5 4996.7 5024 4993.6 5014.5 4985.5 5008.6 4982.4 4999.1 4972.4 4999.1 4962.4 4999.1 4972.4 4999.1 4975.5 4989.6 4983.6 4983.7 4991.7 4989.6 4999.8 4995.5 5009.8 4995.5 5006.7 4986 4996.7 4986 5004.8 4991.8 4996.7 4986 4988.6 4980.1 4985.5 4989.6 4995.5 4989.6 5003.6 4983.7 5006.7 4974.2 4998.6 4968.3" clip-path="url(#a)" fill="none" stroke="#000" stroke-linecap="round"/>
<polyline points="4998.6 4968.3 5006.7 4974.2 5003.6 4983.7 5011.7 4989.6 5003.6 4995.5 4995.5 4989.6 4985.5 4989.6 4993.6 4995.5 4985.5 4989.6 4995.5 4989.6 5003.6 4995.5 4995.5 4989.6 4992.4 4999.1 4989.3 4989.6 4986.2 4999.1 4994.3 5005 4997.4 4995.5 5007.4 4995.5 4999.3 4989.6 4989.3 4989.6 4979.3 4989.6 4989.3 4989.6 4997.4 4995.5 4987.4 4995.5 4977.4 4995.5 4974.3 5005 4971.2 4995.5 4968.1 5005 4960 5010.9 4952 5016.7 4943.9 5022.6 4947 5013.1 4950 5022.6 4960 5022.6 4963.1 5013.1 4960 5022.6 4963.1 5032.1 4955 5026.3 4963.1 5032.1 4955 5026.3 4965 5026.3 4968.1 5016.7 4976.2 5010.9" clip-path="url(#a)" fill="none" stroke="#000" stroke-linecap="round"/>
<polyline points="4976.2 5010.9 4979.3 5001.4 4969.3 5001.4 4961.2 4995.5 4953.1 4989.6 4961.2 4983.7 4958.1 4974.2 4966.2 4968.3 4956.2 4968.3 4959.3 4958.8 4962.4 4968.3 4954.3 4974.2 4957.4 4983.7 4965.5 4989.6 4975.5 4989.6 4983.6 4995.5 4991.7 4989.6 4999.8 4983.7 4991.7 4989.6 4994.8 4999.1 4991.7 5008.6 4981.7 5008.6 4971.7 5008.6 4963.6 5014.5 4971.7 5020.4 4979.8 5014.5 4969.8 5014.5 4979.8 5014.5 4989.8 5014.5 4986.7 5005 4978.6 5010.9 4975.5 5020.4 4978.6 5029.9 4988.6 5029.9 4978.6 5029.9 4975.5 5020.4 4965.5 5020.4 4968.6 5010.9 4978.6 5010.9 4986.7 5005 4976.7 5005 4986.7 5005 4978.6 5010.9" clip-path="url(#a)" fill="none" stroke="#000" stroke-linecap="round"/>
<polyline points="4978.6 5010.9 4968.6 5010.9 4978.6 5010.9 4975.5 5001.4 4983.6 5007.2 4980.5 4997.7 4970.5 4997.7 4973.6 5007.2 4965.5 5013.1 4975.5 5013.1 4983.6 5007.2 4991.7 5001.4 4983.6 5007.2 4973.6 5007.2 4981.7 5001.4 4989.8 4995.5 4986.7 4986 4994.8 4991.8 4991.7 4982.3 4994.8 4972.8 4997.9 4963.3 5001 4953.8 5004 4963.3 4996 4957.4 4987.9 4963.3 4991 4972.8 4987.9 4963.3 4979.8 4957.4 4989.8 4957.4 4979.8 4957.4 4989.8 4957.4 4981.7 4963.3 4984.8 4972.8 4981.7 4982.3 4984.8 4991.8 4992.9 4986 5002.9 4986 5012.9 4986 5009.8 4995.5 5017.9 5001.4 5014.8 5010.9 5022.9 5005 5026 5014.5" clip-path="url(#a)" fill="none" stroke="#000" stroke-linecap="round"/>
<polyline points="5026 5014.5 5017.9 5008.6 5021 4999.1 5012.9 4993.2 5002.9 4993.2 4994.8 4999.1 4984.8 4999.1 4981.7 5008.6 4978.6 5018.1 4981.7 5008.6 4973.6 5002.7 4970.5 4993.2 4978.6 4987.4 4986.7 4981.5 4989.8 4972 4979.8 4972 4976.7 4981.5 4984.8 4975.6 4976.7 4981.5 4968.6 4987.4 4976.7 4993.2 4979.8 4983.7 4976.7 4974.2 4968.6 4968.3 4960.5 4974.2 4968.6 4968.3 4976.7 4974.2 4984.8 4968.3 4987.9 4977.8 4979.8 4983.7 4976.7 4993.2 4984.8 4987.4 4976.7 4993.2 4979.8 4983.7 4987.9 4977.8 4979.8 4983.7 4987.9 4989.6 4977.9 4989.6 4986 4995.5 4994 4989.6 4986 4983.7 4989 4974.2 4981 4980.1" clip-path="url(#a)" fill="none" stroke="#000" stroke-linecap="round"/>
<polyline points="4981 4980.1 4977.9 4989.6 4974.8 4999.1 4977.9 4989.6 4986 4983.7 4982.9 4993.2 4979.8 5002.7 4987.9 5008.6 4977.9 5008.6 4986 5014.5 4989 5024 4992.1 5033.5 4995.2 5043 4987.1 5037.2 4997.1 5037.2 5000.2 5027.6 4992.1 5021.8 5000.2 5027.6 5010.2 5027.6 5002.1 5033.5 5010.2 5027.6 5002.1 5033.5 5005.2 5024 4997.1 5018.1 4994 5008.6 4986 5002.7 4982.9 5012.3 4974.8 5018.1 4966.7 5024 4963.6 5014.5 4953.6 5014.5 4950.5 5005 4947.4 5014.5 4939.3 5008.6 4949.3 5008.6 4952.4 5018.1 4962.4 5018.1 4970.5 5012.3 4973.6 5002.7 4981.7 4996.9 4978.6 4987.4 4975.5 4977.8 4978.6 4987.4" clip-path="url(#a)" fill="none" stroke="#000" stroke-linecap="round"/>
<polyline points="4978.6 4987.4 4988.6 4987.4 4996.7 4993.2 4993.6 5002.7 4990.5 5012.3 4993.6 5021.8 5001.7 5015.9 4998.6 5006.4 4995.5 5015.9 4998.6 5006.4 5001.7 4996.9 4991.7 4996.9 4994.8 5006.4 5002.9 5012.3 5012.9 5012.3 5016 5002.7 5012.9 5012.3 5002.9 5012.3 4999.8 5021.8 4991.7 5015.9 4994.8 5006.4 4991.7 4996.9 4988.6 5006.4 4991.7 4996.9 4994.8 5006.4 4991.7 5015.9 4994.8 5006.4 4984.8 5006.4 4992.9 5000.5 4982.9 5000.5 4979.8 5010 4989.8 5010 4992.9 5019.5 4996 5010 4992.9 5000.5 4989.8 4991 4992.9 5000.5 4989.8 5010 4986.7 5000.5 4983.6 4991 4973.6 4991 4981.7 4985.1 4971.7 4985.1" clip-path="url(#a)" fill="none" stroke="#000" stroke-linecap="round"/>
<polyline points="4971.7 4985.1 4963.6 4979.2 4955.5 4973.4 4947.4 4967.5 4957.4 4967.5 4949.3 4973.4 4952.4 4982.9 4962.4 4982.9 4952.4 4982.9 4944.3 4988.7 4947.4 4979.2 4944.3 4988.7 4947.4 4979.2 4950.5 4988.7 4960.5 4988.7 4968.6 4994.6 4978.6 4994.6 4975.5 4985.1 4978.6 4975.6 4981.7 4966.1 4989.8 4972 4997.9 4966.1 5006 4972 5002.9 4962.5 5012.9 4962.5 5004.8 4968.3 4996.7 4962.5 4988.6 4968.3 4985.5 4977.8 4988.6 4987.4 4985.5 4996.9 4993.6 5002.7 5001.7 5008.6 4993.6 5002.7 4985.5 5008.6 4975.5 5008.6 4972.4 4999.1 4969.3 4989.6 4961.2 4983.7 4958.1 4993.2 4966.2 4999.1 4963.1 4989.6 4966.2 4999.1" clip-path="url(#a)" fill="none" stroke="#000" stroke-linecap="round"/>
<polyline points="4966.2 4999.1 4969.3 5008.6 4977.4 5002.7 4969.3 4996.9 4959.3 4996.9 4951.2 5002.7 4954.3 5012.3 4951.2 5002.7 4959.3 4996.9 4956.2 4987.4 4966.2 4987.4 4969.3 4996.9 4977.4 5002.7 4974.3 4993.2 4977.4 5002.7 4969.3 4996.9 4966.2 4987.4 4969.3 4996.9 4977.4 4991 4974.3 5000.5 4982.4 4994.6 4979.3 4985.1 4971.2 4991 4963.1 4985.1 4966.2 4994.6 4974.3 5000.5 4982.4 5006.4 4974.3 5000.5 4971.2 4991 4979.3 4996.9 4987.4 5002.7 4995.5 4996.9 4992.4 5006.4 5000.5 5000.5 5010.5 5000.5 5020.5 5000.5 5030.5 5000.5 5022.4 5006.4 5025.5 4996.9 5017.4 4991 5009.3 4996.9 5017.4 4991 5020.5 4981.5" clip-path="url(#a)" fill="none" stroke="#000" stroke-linecap="round"/>
<polyline points="5020.5 4981.5 5023.6 4991 5020.5 4981.5 5023.6 4991 5015.5 4985.1 5007.4 4991 4997.4 4991 4989.3 4996.9 4997.4 5002.7 5000.5 5012.3 5003.6 5021.8 4993.6 5021.8 4990.5 5031.3 4980.5 5031.3 4988.6 5037.2 4980.5 5043 4983.6 5033.5 4993.6 5033.5 4996.7 5024 4993.6 5014.5 4985.5 5008.6 4982.4 4999.1 4972.4 4999.1 4962.4 4999.1 4972.4 4999.1 4975.5 4989.6 4983.6 4983.7 4991.7 4989.6 4999.8 4995.5 5009.8 4995.5 5006.7 4986 4996.7 4986 5004.8 4991.8 4996.7 4986 4988.6 4980.1 4985.5 4989.6 4995.5 4989.6 5003.6 4983.7 5006.7 4974.2 4998.6 4968.3 5006.7 4974.2 5003.6 4983.7 5011.7 4989.6" clip-path="url(#a)" fill="none" stroke="#000" stroke-linecap="round"/>
<polyline points="5011.7 4989.6 5003.6 4995.5 4995.5 4989.6 4985.5 4989.6 4993.6 4995.5 4985.5 4989.6 4995.5 4989.6 5003.6 4995.5 4995.5 4989.6 4992.4 4999.1 4989.3 4989.6 4986.2 4999.1 4994.3 5005 4997.4 4995.5 5007.4 4995.5 4999.3 4989.6 4989.3 4989.6 4979.3 4989.6 4989.3 4989.6 4997.4 4995.5 4987.4 4995.5 4977.4 4995.5 4974.3 5005 4971.2 4995.5 4968.1 5005 4960 5010.9 4952 5016.7 4943.9 5022.6 4947 5013.1 4950 5022.6 4960 5022.6 4963.1 5013.1 4960 5022.6 4963.1 5032.1 4955 5026.3 4963.1 5032.1 4955 5026.3 4965 5026.3 4968.1 5016.7 4976.2 5010.9 4979.3 5001.4 4969.3 5001.4 4961.2 4995.5" clip-path="url(#a)" fill="none" stroke="#000" stroke-linecap="round"/>
<polyline points="4961.2 4995.5 4953.1 4989.6 4961.2 4983.7 4958.1 4974.2 4966.2 4968.3 4956.2 4968.3 4959.3 4958.8 4962.4 4968.3 4954.3 4974.2 4957.4 4983.7 4965.5 4989.6 4975.5 4989.6 4983.6 4995.5 4991.7 4989.6 4999.8 4983.7 4991.7 4989.6 4994.8 4999.1 4991.7 5008.6 4981.7 5008.6 4971.7 5008.6 4963.6 5014.5 4971.7 5020.4 4979.8 5014.5 4969.8 5014.5 4979.8 5014.5 4989.8 5014.5 4986.7 5005 4978.6 5010.9 4975.5 5020.4 4978.6 5029.9 4988.6 5029.9 4978.6 5029.9 4975.5 5020.4 4965.5 5020.4 4968.6 5010.9 4978.6 5010.9 4986.7 5005 4976.7 5005 4986.7 5005 4978.6 5010.9 4968.6 5010.9 4978.6 5010.9 4975.5 5001.4" clip-path="url(#a)" fill="none" stroke="#000" stroke-linecap="round"/>
<polyline points="4975.5 5001.4 4983.6 5007.2 4980.5 4997.7 4970.5 4997.7 4973.6 5007.2 4965.5 5013.1 4975.5 5013.1 4983.6 5007.2 4991.7 5001.4 4983.6 5007.2 4973.6 5007.2 4981.7 5001.4 4989.8 4995.5 4986.7 4986 4994.8 4991.8 4991.7 4982.3 4994.8 4972.8 4997.9 4963.3 5001 4953.8 5004 4963.3 4996 4957.4 4987.9 4963.3 4991 4972.8 4987.9 4963.3 4979.8 4957.4 4989.8 4957.4 4979.8 4957.4 4989.8 4957.4 4981.7 4963.3 4984.8 4972.8 4981.7 4982.3 4984.8 4991.8 4992.9 4986 5002.9 4986 5012.9 4986 5009.8 4995.5 5017.9 5001.4 5014.8 5010.9 5022.9 5005 5026 5014.5 5017.9 5008.6 5021 4999.1 5012.9 4993.2" clip-path="url(#a)" fill="none" stroke="#000" stroke-linecap="round"/>
<polyline points="5012.9 4993.2 5002.9 4993.2 4994.8 4999.1 4984.8 4999.1 4981.7 5008.6 4978.6 5018.1 4981.7 5008.6 4973.6 5002.7 4970.5 4993.2 4978.6 4987.4 4986.7 4981.5 4989.8 4972 4979.8 4972 4976.7 4981.5 4984.8 4975.6 4976.7 4981.5 4968.6 4987.4 4976.7 4993.2 4979.8 4983.7 4976.7 4974.2 4968.6 4968.3 4960.5 4974.2 4968.6 4968.3 4976.7 4974.2 4984.8 4968.3 4987.9 4977.8 4979.8 4983.7 4976.7 4993.2 4984.8 4987.4 4976.7 4993.2 4979.8 4983.7 4987.9 4977.8 4979.8 4983.7 4987.9 4989.6 4977.9 4989.6 4986 4995.5 4994 4989.6 4986 4983.7 4989 4974.2 4981 4980.1 4977.9 4989.6 4974.8 4999.1 4977.9 4989.6" clip-path="url(#a)" fill="none" stroke="#000" stroke-linecap="round"/>
<polyline points="4977.9 4989.6 4986 4983.7 4982.9 4993.2 4979.8 5002.7 4987.9 5008.6 4977.9 5008.6 4986 5014.5 4989 5024 4992.1 5033.5 4995.2 5043 4987.1 5037.2 4997.1 5037.2 5000.2 5027.6 4992.1 5021.8 5000.2 5027.6 5010.2 5027.6 5002.1 5033.5 5010.2 5027.6 5002.1 5033.5 5005.2 5024 4997.1 5018.1 4994 5008.6 4986 5002.7 4982.9 5012.3 4974.8 5018.1 4966.7 5024 4963.6 5014.5 4953.6 5014.5 4950.5 5005 4947.4 5014.5 4939.3 5008.6 4949.3 5008.6 4952.4 5018.1 4962.4 5018.1 4970.5 5012.3 4973.6 5002.7 4981.7 4996.9 4978.6 4987.4 4975.5 4977.8 4978.6 4987.4 4988.6 4987.4 4996.7 4993.2 4993.6 5002.7" clip-path="url(#a)" fill="none" stroke="#000" stroke-linecap="round"/>
<polyline points="4993.6 5002.7 4990.5 5012.3 4993.6 5021.8 5001.7 5015.9 4998.6 5006.4 4995.5 5015.9 4998.6 5006.4 5001.7 4996.9 4991.7 4996.9 4994.8 5006.4 5002.9 5012.3 5012.9 5012.3 5016 5002.7 5012.9 5012.3 5002.9 5012.3 4999.8 5021.8 4991.7 5015.9 4994.8 5006.4 4991.7 4996.9 4988.6 5006.4 4991.7 4996.9 4994.8 5006.4 4991.7 5015.9 4994.8 5006.4 4984.8 5006.4 4992.9 5000.5 4982.9 5000.5 4979.8 5010 4989.8 5010 4992.9 5019.5 4996 5010 4992.9 5000.5 4989.8 4991 4992.9 5000.5 4989.8 5010 4986.7 5000.5 4983.6 4991 4973.6 4991 4981.7 4985.1 4971.7 4985.1 4963.6 4979.2 4955.5 4973.4 4947.4 4967.5" clip-path="url(#a)" fill="none" stroke="#000" stroke-linecap="round"/>
<polyline points="4947.4 4967.5 4957.4 4967.5 4949.3 4973.4 4952.4 4982.9 4962.4 4982.9 4952.4 4982.9 4944.3 4988.7 4947.4 4979.2 4944.3 4988.7 4947.4 4979.2 4950.5 4988.7 4960.5 4988.7 4968.6 4994.6 4978.6 4994.6 4975.5 4985.1 4978.6 4975.6 4981.7 4966.1 4989.8 4972 4997.9 4966.1 5006 4972 5002.9 4962.5 5012.9 4962.5 5004.8 4968.3 4996.7 4962.5 4988.6 4968.3 4985.5 4977.8 4988.6 4987.4 4985.5 4996.9 4993.6 5002.7 5001.7 5008.6 4993.6 5002.7 4985.5 5008.6 4975.5 5008.6 4972.4 4999.1 4969.3 4989.6 4961.2 4983.7 4958.1 4993.2 4966.2 4999.1 4963.1 4989.6 4966.2 4999.1 4969.3 5008.6 4977.4 5002.7 4969.3 4996.9" clip-path="url(#a)" fill="none" stroke="#000" stroke-linecap="round"/>
<polyline points="4969.3 4996.9 4959.3 4996.9 4951.2 5002.7 4954.3 5012.3 4951.2 5002.7 4959.3 4996.9 4956.2 4987.4 4966.2 4987.4 4969.3 4996.9 4977.4 5002.7 4974.3 4993.2 4977.4 5002.7 4969.3 4996.9 4966.2 4987.4 4969.3 4996.9 4977.4 4991 4974.3 5000.5 4982.4 4994.6 4979.3 4985.1 4971.2 4991 4963.1 4985.1 4966.2 4994.6 4974.3 5000.5 4982.4 5006.4 4974.3 5000.5 4971.2 4991 4979.3 4996.9 4987.4 5002.7 4995.5 4996.9 4992.4 5006.4 5000.5 5000.5 5010.5 5000.5 5020.5 5000.5 5030.5 5000.5 5022.4 5006.4 5025.5 4996.9 5017.4 4991 5009.3 4996.9 5017.4 4991 5020.5 4981.5 5023.6 4991 5020.5 4981.5 5023.6 4991" clip-path="url(#a)" fill="none" stroke="#000" stroke-linecap="round"/>
<polyline points="5023.6 4991 5015.5 4985.1 5007.4 4991 4997.4 4991 4989.3 4996.9 4997.4 5002.7 5000.5 5012.3 5003.6 5021.8 4993.6 5021.8 4990.5 5031.3 4980.5 5031.3 4988.6 5037.2 4980.5 5043 4983.6 5033.5 4993.6 5033.5 4996.7 5024 4993.6 5014.5 4985.5 5008.6 4982.4 4999.1 4972.4 4999.1 4962.4 4999.1 4972.4 4999.1 4975.5 4989.6 4983.6 4983.7 4991.7 4989.6 4999.8 4995.5 5009.8 4995.5 5006.7 4986 4996.7 4986 5004.8 4991.8 4996.7 4986 4988.6 4980.1 4985.5 4989.6 4995.5 4989.6 5003.6 4983.7 5006.7 4974.2 4998.6 4968.3 5006.7 4974.2 5003.6 4983.7 5011.7 4989.6 5003.6 4995.5 4995.5 4989.6 4985.5 4989.6" clip-path="url(#a)" fill="none" stroke="#000" stroke-linecap="round"/>
<polyline points="4985.5 4989.6 4993.6 4995.5 4985.5 4989.6 4995.5 4989.6 5003.6 4995.5 4995.5 4989.6 4992.4 4999.1 4989.3 4989.6 4986.2 4999.1 4994.3 5005 4997.4 4995.5 5007.4 4995.5 4999.3 4989.6 4989.3 4989.6 4979.3 4989.6 4989.3 4989.6 4997.4 4995.5 4987.4 4995.5 4977.4 4995.5 4974.3 5005 4971.2 4995.5 4968.1 5005 4960 5010.9 4952 5016.7 4943.9 5022.6 4947 5013.1 4950 5022.6 4960 5022.6 4963.1 5013.1 4960 5022.6 4963.1 5032.1 4955 5026.3 4963.1 5032.1 4955 5026.3 4965 5026.3 4968.1 5016.7 4976.2 5010.9 4979.3 5001.4 4969.3 5001.4 4961.2 4995.5 4953.1 4989.6 4961.2 4983.7 4958.1 4974.2" clip-path="url(#a)" fill="none" stroke="#000" stroke-linecap="round"/>
<polyline points="4958.1 4974.2 4966.2 4968.3 4956.2 4968.3 4959.3 4958.8 4962.4 4968.3 4954.3 4974.2 4957.4 4983.7 4965.5 4989.6 4975.5 4989.6 4983.6 4995.5 4991.7 4989.6 4999.8 4983.7 4991.7 4989.6 4994.8 4999.1 4991.7 5008.6 4981.7 5008.6 4971.7 5008.6 4963.6 5014.5 4971.7 5020.4 4979.8 5014.5 4969.8 5014.5 4979.8 5014.5 4989.8 5014.5 4986.7 5005 4978.6 5010.9 4975.5 5020.4 4978.6 5029.9 4988.6 5029.9 4978.6 5029.9 4975.5 5020.4 4965.5 5020.4 4968.6 5010.9 4978.6 5010.9 4986.7 5005 4976.7 5005 4986.7 5005 4978.6 5010.9 4968.6 5010.9 4978.6 5010.9 4975.5 5001.4 4983.6 5007.2 4980.5 4997.7 4970.5 4997.7" clip-path="url(#a)" fill="none" stroke="#000" stroke-linecap="round"/>
<polyline points="4970.5 4997.7 4973.6 5007.2 4965.5 5013.1 4975.5 5013.1 4983.6 5007.2 4991.7 5001.4 4983.6 5007.2 4973.6 5007.2 4981.7 5001.4 4989.8 4995.5 4986.7 4986 4994.8 4991.8 4991.7 4982.3 4994.8 4972.8 4997.9 4963.3 5001 4953.8 5004 4963.3 4996 4957.4 4987.9 4963.3 4991 4972.8 4987.9 4963.3 4979.8 4957.4 4989.8 4957.4 4979.8 4957.4 4989.8 4957.4 4981.7 4963.3 4984.8 4972.8 4981.7 4982.3 4984.8 4991.8 4992.9 4986 5002.9 4986 5012.9 4986 5009.8 4995.5 5017.9 5001.4 5014.8 5010.9 5022.9 5005 5026 5014.5 5017.9 5008.6 5021 4999.1 5012.9 4993.2 5002.9 4993.2 4994.8 4999.1 4984.8 4999.1" clip-path="url(#a)" fill="none" stroke="#000" stroke-linecap="round"/>
<polyline points="4984.8 4999.1 4981.7 5008.6 4978.6 5018.1 4981.7 5008.6 4973.6 5002.7 4970.5 4993.2 4978.6 4987.4 4986.7 4981.5 4989.8 4972 4979.8 4972 4976.7 4981.5 4984.8 4975.6 4976.7 4981.5 4968.6 4987.4 4976.7 4993.2 4979.8 4983.7 4976.7 4974.2 4968.6 4968.3 4960.5 4974.2 4968.6 4968.3 4976.7 4974.2 4984.8 4968.3 4987.9 4977.8 4979.8 4983.7 4976.7 4993.2 4984.8 4987.4 4976.7 4993.2 4979.8 4983.7 4987.9 4977.8 4979.8 4983.7 4987.9 4989.6 4977.9 4989.6 4986 4995.5 4994 4989.6 4986 4983.7 4989 4974.2 4981 4980.1 4977.9 4989.6 4974.8 4999.1 4977.9 4989.6 4986 4983.7 4982.9 4993.2 4979.8 5002.7" clip-path="url(#a)" fill="none" stroke="#000" stroke-linecap="round"/>
<polyline points="4979.8 5002.7 4987.9 5008.6 4977.9 5008.6 4986 5014.5 4989 5024 4992.1 5033.5 4995.2 5043 4987.1 5037.2 4997.1 5037.2 5000.2 5027.6 4992.1 5021.8 5000.2 5027.6 5010.2 5027.6 5002.1 5033.5 5010.2 5027.6 5002.1 5033.5 5005.2 5024 4997.1 5018.1 4994 5008.6 4986 5002.7 4982.9 5012.3 4974.8 5018.1 4966.7 5024 4963.6 5014.5 4953.6 5014.5 4950.5 5005 4947.4 5014.5 4939.3 5008.6 4949.3 5008.6 4952.4 5018.1 4962.4 5018.1 4970.5 5012.3 4973.6 5002.7 4981.7 4996.9 4978.6 4987.4 4975.5 4977.8 4978.6 4987.4 4988.6 4987.4 4996.7 4993.2 4993.6 5002.7 4990.5 5012.3 4993.6 5021.8 5001.7 5015.9" clip-path="url(#a)" fill="none" stroke="#000" stroke-linecap="round"/>
<polyline points="5001.7 5015.9 4998.6 5006.4 4995.5 5015.9 4998.6 5006.4 5001.7 4996.9 4991.7 4996.9 4994.8 5006.4 5002.9 5012.3 5012.9 5012.3 5016 5002.7 5012.9 5012.3 5002.9 5012.3 4999.8 5021.8 4991.7 5015.9 4994.8 5006.4 4991.7 4996.9 4988.6 5006.4 4991.7 4996.9 4994.8 5006.4 4991.7 5015.9 4994.8 5006.4 4984.8 5006.4 4992.9 5000.5 4982.9 5000.5 4979.8 5010 4989.8 5010 4992.9 5019.5 4996 5010 4992.9 5000.5 4989.8 4991 4992.9 5000.5 4989.8 5010 4986.7 5000.5 4983.6 4991 4973.6 4991 4981.7 4985.1 4971.7 4985.1 4963.6 4979.2 4955.5 4973.4 4947.4 4967.5 4957.4 4967.5 4949.3 4973.4 4952.4 4982.9" clip-path="url(#a)" fill="none" stroke="#000" stroke-linecap="round"/>
<polyline points="4952.4 4982.9 4962.4 4982.9 4952.4 4982.9 4944.3 4988.7 4947.4 4979.2 4944.3 4988.7 4947.4 4979.2 4950.5 4988.7 4960.5 4988.7 4968.6 4994.6 4978.6 4994.6 4975.5 4985.1 4978.6 4975.6 4981.7 4966.1 4989.8 4972 4997.9 4966.1 5006 4972 5002.9 4962.5 5012.9 4962.5 5004.8 4968.3 4996.7 4962.5 4988.6 4968.3 4985.5 4977.8 4988.6 4987.4 4985.5 4996.9 4993.6 5002.7 5001.7 5008.6 4993.6 5002.7 4985.5 5008.6 4975.5 5008.6 4972.4 4999.1 4969.3 4989.6 4961.2 4983.7 4958.1 4993.2 4966.2 4999.1 4963.1 4989.6 4966.2 4999.1 4969.3 5008.6 4977.4 5002.7 4969.3 4996.9 4959.3 4996.9 4951.2 5002.7 4954.3 5012.3" clip-path="url(#a)" fill="none" stroke="#000" stroke-linecap="round"/>
<polyline points="4954.3 5012.3 4951.2 5002.7 4959.3 4996.9 4956.2 4987.4 4966.2 4987.4 4969.3 4996.9 4977.4 5002.7 4974.3 4993.2 4977.4 5002.7 4969.3 4996.9 4966.2 4987.4 4969.3 4996.9 4977.4 4991 4974.3 5000.5 4982.4 4994.6 4979.3 4985.1 4971.2 4991 4963.1 4985.1 4966.2 4994.6 4974.3 5000.5 4982.4 5006.4 4974.3 5000.5 4971.2 4991 4979.3 4996.9 4987.4 5002.7 4995.5 4996.9 4992.4 5006.4 5000.5 5000.5 5010.5 5000.5 5020.5 5000.5 5030.5 5000.5 5022.4 5006.4 5025.5 4996.9 5017.4 4991 5009.3 4996.9 5017.4 4991 5020.5 4981.5 5023.6 4991 5020.5 4981.5 5023.6 4991 5015.5 4985.1 5007.4 4991 4997.4 4991" clip-path="url(#a)" fill="none" stroke="#000" stroke-linecap="round"/>
<polyline points="4997.4 4991 4989.3 4996.9 4997.4 5002.7 5000.5 5012.3 5003.6 5021.8 4993.6 5021.8 4990.5 5031.3 4980.5 5031.3 4988.6 5037.2 4980.5 5043 4983.6 5033.5 4993.6 5033.5 4996.7 5024 4993.6 5014.5 4985.5 5008.6 4982.4 4999.1 4972.4 4999.1 4962.4 4999.1 4972.4 4999.1 4975.5 4989.6 4983.6 4983.7 4991.7 4989.6 4999.8 4995.5 5009.8 4995.5 5006.7 4986 4996.7 4986 5004.8 4991.8 4996.7 4986 4988.6 4980.1 4985.5 4989.6 4995.5 4989.6 5003.6 4983.7 5006.7 4974.2 4998.6 4968.3 5006.7 4974.2 5003.6 4983.7 5011.7 4989.6 5003.6 4995.5 4995.5 4989.6 4985.5 4989.6 4993.6 4995.5 4985.5 4989.6 4995.5 4989.6" clip-path="url(#a)" fill="none" stroke="#000" stroke-linecap="round"/>
<polyline points="4995.5 4989.6 5003.6 4995.5 4995.5 4989.6 4992.4 4999.1 4989.3 4989.6 4986.2 4999.1 4994.3 5005 4997.4 4995.5 5007.4 4995.5 4999.3 4989.6 4989.3 4989.6 4979.3 4989.6 4989.3 4989.6 4997.4 4995.5 4987.4 4995.5 4977.4 4995.5 4974.3 5005 4971.2 4995.5 4968.1 5005 4960 5010.9 4952 5016.7 4943.9 5022.6 4947 5013.1 4950 5022.6 4960 5022.6 4963.1 5013.1 4960 5022.6 4963.1 5032.1 4955 5026.3 4963.1 5032.1 4955 5026.3 4965 5026.3 4968.1 5016.7 4976.2 5010.9 4979.3 5001.4 4969.3 5001.4 4961.2 4995.5 4953.1 4989.6 4961.2 4983.7 4958.1 4974.2 4966.2 4968.3 4956.2 4968.3 4959.3 4958.8" clip-path="url(#a)" fill="none" stroke="#000" stroke-linecap="round"/>
<polyline points="4959.3 4958.8 4962.4 4968.3 4954.3 4974.2 4957.4 4983.7 4965.5 4989.6 4975.5 4989.6 4983.6 4995.5 4991.7 4989.6 4999.8 4983.7 4991.7 4989.6 4994.8 4999.1 4991.7 5008.6 4981.7 5008.6 4971.7 5008.6 4963.6 5014.5 4971.7 5020.4 4979.8 5014.5 4969.8 5014.5 4979.8 5014.5 4989.8 5014.5 4986.7 5005 4978.6 5010.9 4975.5 5020.4 4978.6 5029.9 4988.6 5029.9 4978.6 5029.9 4975.5 5020.4 4965.5 5020.4 4968.6 5010.9 4978.6 5010.9 4986.7 5005 4976.7 5005 4986.7 5005 4978.6 5010.9 4968.6 5010.9 4978.6 5010.9 4975.5 5001.4 4983.6 5007.2 4980.5 4997.7 4970.5 4997.7 4973.6 5007.2 4965.5 5013.1 4975.5 5013.1" clip-path="url(#a)" fill="none" stroke="#000" stroke-linecap="round"/>
<polyline points="4975.5 5013.1 4983.6 5007.2 4991.7 5001.4 4983.6 5007.2 4973.6 5007.2 4981.7 5001.4 4989.8 4995.5 4986.7 4986 4994.8 4991.8 4991.7 4982.3 4994.8 4972.8 4997.9 4963.3 5001 4953.8 5004 4963.3 4996 4957.4 4987.9 4963.3 4991 4972.8 4987.9 4963.3 4979.8 4957.4 4989.8 4957.4 4979.8 4957.4 4989.8 4957.4 4981.7 4963.3 4984.8 4972.8 4981.7 4982.3 4984.8 4991.8 4992.9 4986 5002.9 4986 5012.9 4986 5009.8 4995.5 5017.9 5001.4 5014.8 5010.9 5022.9 5005 5026 5014.5 5017.9 5008.6 5021 4999.1 5012.9 4993.2 5002.9 4993.2 4994.8 4999.1 4984.8 4999.1 4981.7 5008.6 4978.6 5018.1 4981.7 5008.6" clip-path="url(#a)" fill="none" stroke="#000" stroke-linecap="round"/>
<polyline points="4981.7 5008.6 4973.6 5002.7 4970.5 4993.2 4978.6 4987.4 4986.7 4981.5 4989.8 4972 4979.8 4972 4976.7 4981.5 4984.8 4975.6 4976.7 4981.5 4968.6 4987.4 4976.7 4993.2 4979.8 4983.7 4976.7 4974.2 4968.6 4968.3 4960.5 4974.2 4968.6 4968.3 4976.7 4974.2 4984.8 4968.3 4987.9 4977.8 4979.8 4983.7 4976.7 4993.2 4984.8 4987.4 4976.7 4993.2 4979.8 4983.7 4987.9 4977.8 4979.8 4983.7 4987.9 4989.6 4977.9 4989.6 4986 4995.5 4994 4989.6 4986 4983.7 4989 4974.2 4981 4980.1 4977.9 4989.6 4974.8 4999.1 4977.9 4989.6 4986 4983.7 4982.9 4993.2 4979.8 5002.7 4987.9 5008.6 4977.9 5008.6 4986 5014.5" clip-path="url(#a)" fill="none" stroke="#000" stroke-linecap="round"/>
<polyline points="4986 5014.5 4989 5024 4992.1 5033.5 4995.2 5043 4987.1 5037.2 4997.1 5037.2 5000.2 5027.6 4992.1 5021.8 5000.2 5027.6 5010.2 5027.6 5002.1 5033.5 5010.2 5027.6 5002.1 5033.5 5005.2 5024 4997.1 5018.1 4994 5008.6 4986 5002.7 4982.9 5012.3 4974.8 5018.1 4966.7 5024 4963.6 5014.5 4953.6 5014.5 4950.5 5005 4947.4 5014.5 4939.3 5008.6 4949.3 5008.6 4952.4 5018.1 4962.4 5018.1 4970.5 5012.3 4973.6 5002.7 4981.7 4996.9 4978.6 4987.4 4975.5 4977.8 4978.6 4987.4 4988.6 4987.4 4996.7 4993.2 4993.6 5002.7 4990.5 5012.3 4993.6 5021.8 5001.7 5015.9 4998.6 5006.4 4995.5 5015.9 4998.6 5006.4" clip-path="url(#a)" fill="none" stroke="#000" stroke-linecap="round"/>
<polyline points="4998.6 5006.4 5001.7 4996.9 4991.7 4996.9 4994.8 5006.4 5002.9 5012.3 5012.9 5012.3 5016 5002.7 5012.9 5012.3 5002.9 5012.3 4999.8 5021.8 4991.7 5015.9 4994.8 5006.4 4991.7 4996.9 4988.6 5006.4 4991.7 4996.9 4994.8 5006.4 4991.7 5015.9 4994.8 5006.4 4984.8 5006.4 4992.9 5000.5 4982.9 5000.5 4979.8 5010 4989.8 5010 4992.9 5019.5 4996 5010 4992.9 5000.5 4989.8 4991 4992.9 5000.5 4989.8 5010 4986.7 5000.5 4983.6 4991 4973.6 4991 4981.7 4985.1 4971.7 4985.1 4963.6 4979.2 4955.5 4973.4 4947.4 4967.5 4957.4 4967.5 4949.3 4973.4 4952.4 4982.9 4962.4 4982.9 4952.4 4982.9 4944.3 4988.7" clip-path="url(#a)" fill="none" stroke="#000" stroke-linecap="round"/>
<polyline points="4944.3 4988.7 4947.4 4979.2 4944.3 4988.7 4947.4 4979.2 4950.5 4988.7 4960.5 4988.7 4968.6 4994.6 4978.6 4994.6 4975.5 4985.1 4978.6 4975.6 4981.7 4966.1 4989.8 4972 4997.9 4966.1 5006 4972 5002.9 4962.5 5012.9 4962.5 5004.8 4968.3 4996.7 4962.5 4988.6 4968.3 4985.5 4977.8 4988.6 4987.4 4985.5 4996.9 4993.6 5002.7 5001.7 5008.6 4993.6 5002.7 4985.5 5008.6 4975.5 5008.6 4972.4 4999.1 4969.3 4989.6 4961.2 4983.7 4958.1 4993.2 4966.2 4999.1 4963.1 4989.6 4966.2 4999.1 4969.3 5008.6 4977.4 5002.7 4969.3 4996.9 4959.3 4996.9 4951.2 5002.7 4954.3 5012.3 4951.2 5002.7 4959.3 4996.9 4956.2 4987.4" clip-path="url(#a)" fill="none" stroke="#000" stroke-linecap="round"/>
<polyline points="4956.2 4987.4 4966.2 4987.4 4969.3 4996.9 4977.4 5002.7 4974.3 4993.2 4977.4 5002.7 4969.3 4996.9 4966.2 4987.4 4969.3 4996.9 4977.4 4991 4974.3 5000.5 4982.4 4994.6 4979.3 4985.1 4971.2 4991 4963.1 4985.1 4966.2 4994.6 4974.3 5000.5 4982.4 5006.4 4974.3 5000.5 4971.2 4991 4979.3 4996.9 4987.4 5002.7 4995.5 4996.9 4992.4 5006.4 5000.5 5000.5 5010.5 5000.5 5020.5 5000.5 5030.5 5000.5 5022.4 5006.4 5025.5 4996.9 5017.4 4991 5009.3 4996.9 5017.4 4991 5020.5 4981.5 5023.6 4991 5020.5 4981.5 5023.6 4991 5015.5 4985.1 5007.4 4991 4997.4 4991 4989.3 4996.9 4997.4 5002.7 5000.5 5012.3" clip-path="url(#a)" fill="none" stroke="#000" stroke-linecap="round"/>
<polyline points="5000.5 5012.3 5003.6 5021.8 4993.6 5021.8 4990.5 5031.3 4980.5 5031.3 4988.6 5037.2 4980.5 5043 4983.6 5033.5 4993.6 5033.5 4996.7 5024 4993.6 5014.5 4985.5 5008.6 4982.4 4999.1 4972.4 4999.1 4962.4 4999.1 4972.4 4999.1 4975.5 4989.6 4983.6 4983.7 4991.7 4989.6 4999.8 4995.5 5009.8 4995.5 5006.7 4986 4996.7 4986 5004.8 4991.8 4996.7 4986 4988.6 4980.1 4985.5 4989.6 4995.5 4989.6 5003.6 4983.7 5006.7 4974.2 4998.6 4968.3 5006.7 4974.2 5003.6 4983.7 5011.7 4989.6 5003.6 4995.5 4995.5 4989.6 4985.5 4989.6 4993.6 4995.5 4985.5 4989.6 4995.5 4989.6 5003.6 4995.5 4995.5 4989.6 4992.4 4999.1" clip-path="url(#a)" fill="none" stroke="#000" stroke-linecap="round"/>
<polyline points="4992.4 4999.1 4989.3 4989.6 4986.2 4999.1 4994.3 5005 4997.4 4995.5 5007.4 4995.5 4999.3 4989.6 4989.3 4989.6 4979.3 4989.6 4989.3 4989.6 4997.4 4995.5 4987.4 4995.5 4977.4 4995.5 4974.3 5005 4971.2 4995.5 4968.1 5005 4960 5010.9 4952 5016.7 4943.9 5022.6 4947 5013.1 4950 5022.6 4960 5022.6 4963.1 5013.1 4960 5022.6 4963.1 5032.1 4955 5026.3 4963.1 5032.1 4955 5026.3 4965 5026.3 4968.1 5016.7 4976.2 5010.9 4979.3 5001.4 4969.3 5001.4 4961.2 4995.5 4953.1 4989.6 4961.2 4983.7 4958.1 4974.2 4966.2 4968.3 4956.2 4968.3 4959.3 4958.8 4962.4 4968.3 4954.3 4974.2 4957.4 4983.7" clip-path="url(#a)" fill="none" stroke="#000" stroke-linecap="round"/>
<polyline points="4957.4 4983.7 4965.5 4989.6 4975.5 4989.6 4983.6 4995.5 4991.7 4989.6 4999.8 4983.7 4991.7 4989.6 4994.8 4999.1 4991.7 5008.6 4981.7 5008.6 4971.7 5008.6 4963.6 5014.5 4971.7 5020.4 4979.8 5014.5 4969.8 5014.5 4979.8 5014.5 4989.8 5014.5 4986.7 5005 4978.6 5010.9 4975.5 5020.4 4978.6 5029.9 4988.6 5029.9 4978.6 5029.9 4975.5 5020.4 4965.5 5020.4 4968.6 5010.9 4978.6 5010.9 4986.7 5005 4976.7 5005 4986.7 5005 4978.6 5010.9 4968.6 5010.9 4978.6 5010.9 4975.5 5001.4 4983.6 5007.2 4980.5 4997.7 4970.5 4997.7 4973.6 5007.2 4965.5 5013.1 4975.5 5013.1 4983.6 5007.2 4991.7 5001.4 4983.6 5007.2" clip-path="url(#a)" fill="none" stroke="#000" stroke-linecap="round"/>
<polyline points="4983.6 5007.2 4973.6 5007.2 4981.7 5001.4 4989.8 4995.5 4986.7 4986 4994.8 4991.8 4991.7 4982.3 4994.8 4972.8 4997.9 4963.3 5001 4953.8 5004 4963.3 4996 4957.4 4987.9 4963.3 4991 4972.8 4987.9 4963.3 4979.8 4957.4 4989.8 4957.4 4979.8 4957.4 4989.8 4957.4 4981.7 4963.3 4984.8 4972.8 4981.7 4982.3 4984.8 4991.8 4992.9 4986 5002.9 4986 5012.9 4986 5009.8 4995.5 5017.9 5001.4 5014.8 5010.9 5022.9 5005 5026 5014.5 5017.9 5008.6 5021 4999.1 5012.9 4993.2 5002.9 4993.2 4994.8 4999.1 4984.8 4999.1 4981.7 5008.6 4978.6 5018.1 4981.7 5008.6 4973.6 5002.7 4970.5 4993.2 4978.6 4987.4" clip-path="url(#a)" fill="none" stroke="#000" stroke-linecap="round"/>
<polyline points="4978.6 4987.4 4986.7 4981.5 4989.8 4972 4979.8 4972 4976.7 4981.5 4984.8 4975.6 4976.7 4981.5 4968.6 4987.4 4976.7 4993.2 4979.8 4983.7 4976.7 4974.2 4968.6 4968.3 4960.5 4974.2 4968.6 4968.3 4976.7 4974.2 4984.8 4968.3 4987.9 4977.8 4979.8 4983.7 4976.7 4993.2 4984.8 4987.4 4976.7 4993.2 4979.8 4983.7 4987.9 4977.8 4979.8 4983.7 4987.9 4989.6 4977.9 4989.6 4986 4995.5 4994 4989.6 4986 4983.7 4989 4974.2 4981 4980.1 4977.9 4989.6 4974.8 4999.1 4977.9 4989.6 4986 4983.7 4982.9 4993.2 4979.8 5002.7 4987.9 5008.6 4977.9 5008.6 4986 5014.5 4989 5024 4992.1 5033.5 4995.2 5043" clip-path="url(#a)" fill="none" stroke="#000" stroke-linecap="round"/>
<polyline points="4995.2 5043 4987.1 5037.2 4997.1 5037.2 5000.2 5027.6 4992.1 5021.8 5000.2 5027.6 5010.2 5027.6 5002.1 5033.5 5010.2 5027.6 5002.1 5033.5 5005.2 5024 4997.1 5018.1 4994 5008.6 4986 5002.7 4982.9 5012.3 4974.8 5018.1 4966.7 5024 4963.6 5014.5 4953.6 5014.5 4950.5 5005 4947.4 5014.5 4939.3 5008.6 4949.3 5008.6 4952.4 5018.1 4962.4 5018.1 4970.5 5012.3 4973.6 5002.7 4981.7 4996.9 4978.6 4987.4 4975.5 4977.8 4978.6 4987.4 4988.6 4987.4 4996.7 4993.2 4993.6 5002.7 4990.5 5012.3 4993.6 5021.8 5001.7 5015.9 4998.6 5006.4 4995.5 5015.9 4998.6 5006.4 5001.7 4996.9 4991.7 4996.9 4994.8 5006.4" clip-path="url(#a)" fill="none" stroke="#000" stroke-linecap="round"/>
<polyline points="4994.8 5006.4 5002.9 5012.3 5012.9 5012.3 5016 5002.7 5012.9 5012.3 5002.9 5012.3 4999.8 5021.8 4991.7 5015.9 4994.8 5006.4 4991.7 4996.9 4988.6 5006.4 4991.7 4996.9 4994.8 5006.4 4991.7 5015.9 4994.8 5006.4 4984.8 5006.4 4992.9 5000.5 4982.9 5000.5 4979.8 5010 4989.8 5010 4992.9 5019.5 4996 5010 4992.9 5000.5 4989.8 4991 4992.9 5000.5 4989.8 5010 4986.7 5000.5 4983.6 4991 4973.6 4991 4981.7 4985.1 4971.7 4985.1 4963.6 4979.2 4955.5 4973.4 4947.4 4967.5 4957.4 4967.5 4949.3 4973.4 4952.4 4982.9 4962.4 4982.9 4952.4 4982.9 4944.3 4988.7 4947.4 4979.2 4944.3 4988.7 4947.4 4979.2" clip-path="url(#a)" fill="none" stroke="#000" stroke-linecap="round"/>
<polyline points="4947.4 4979.2 4950.5 4988.7 4960.5 4988.7 4968.6 4994.6 4978.6 4994.6 4975.5 4985.1 4978.6 4975.6 4981.7 4966.1 4989.8 4972 4997.9 4966.1 5006 4972 5002.9 4962.5 5012.9 4962.5 5004.8 4968.3 4996.7 4962.5 4988.6 4968.3 4985.5 4977.8 4988.6 4987.4 4985.5 4996.9 4993.6 5002.7 5001.7 5008.6 4993.6 5002.7 4985.5 5008.6 4975.5 5008.6 4972.4 4999.1 4969.3 4989.6 4961.2 4983.7 4958.1 4993.2 4966.2 4999.1 4963.1 4989.6 4966.2 4999.1 4969.3 5008.6 4977.4 5002.7 4969.3 4996.9 4959.3 4996.9 4951.2 5002.7 4954.3 5012.3 4951.2 5002.7 4959.3 4996.9 4956.2 4987.4 4966.2 4987.4 4969.3 4996.9 4977.4 5002.7" clip-path="url(#a)" fill="none" stroke="#000" stroke-linecap="round"/>
<polyline points="4977.4 5002.7 4974.3 4993.2 4977.4 5002.7 4969.3 4996.9 4966.2 4987.4 4969.3 4996.9 4977.4 4991 4974.3 5000.5 4982.4 4994.6 4979.3 4985.1 4971.2 4991 4963.1 4985.1 4966.2 4994.6 4974.3 5000.5 4982.4 5006.4 4974.3 5000.5 4971.2 4991 4979.3 4996.9 4987.4 5002.7 4995.5 4996.9 4992.4 5006.4 5000.5 5000.5 5010.5 5000.5 5020.5 5000.5 5030.5 5000.5 5022.4 5006.4 5025.5 4996.9 5017.4 4991 5009.3 4996.9 5017.4 4991 5020.5 4981.5 5023.6 4991 5020.5 4981.5 5023.6 4991 5015.5 4985.1 5007.4 4991 4997.4 4991 4989.3 4996.9 4997.4 5002.7 5000.5 5012.3 5003.6 5021.8 4993.6 5021.8 4990.5 5031.3" clip-path="url(#a)" fill="none" stroke="#000" stroke-linecap="round"/>
<polyline points="4990.5 5031.3 4980.5 5031.3 4988.6 5037.2 4980.5 5043 4983.6 5033.5 4993.6 5033.5 4996.7 5024 4993.6 5014.5 4985.5 5008.6 4982.4 4999.1 4972.4 4999.1 4962.4 4999.1 4972.4 4999.1 4975.5 4989.6 4983.6 4983.7 4991.7 4989.6 4999.8 4995.5 5009.8 4995.5 5006.7 4986 4996.7 4986 5004.8 4991.8 4996.7 4986 4988.6 4980.1 4985.5 4989.6 4995.5 4989.6 5003.6 4983.7 5006.7 4974.2 4998.6 4968.3 5006.7 4974.2 5003.6 4983.7 5011.7 4989.6 5003.6 4995.5 4995.5 4989.6 4985.5 4989.6 4993.6 4995.5 4985.5 4989.6 4995.5 4989.6 5003.6 4995.5 4995.5 4989.6 4992.4 4999.1 4989.3 4989.6 4986.2 4999.1 4994.3 5005" clip-path="url(#a)" fill="none" stroke="#000" stroke-linecap="round"/>
<polyline points="4994.3 5005 4997.4 4995.5 5007.4 4995.5 4999.3 4989.6 4989.3 4989.6 4979.3 4989.6 4989.3 4989.6 4997.4 4995.5 4987.4 4995.5 4977.4 4995.5 4974.3 5005 4971.2 4995.5 4968.1 5005 4960 5010.9 4952 5016.7 4943.9 5022.6 4947 5013.1 4950 5022.6 4960 5022.6 4963.1 5013.1 4960 5022.6 4963.1 5032.1 4955 5026.3 4963.1 5032.1 4955 5026.3 4965 5026.3 4968.1 5016.7 4976.2 5010.9 4979.3 5001.4 4969.3 5001.4 4961.2 4995.5 4953.1 4989.6 4961.2 4983.7 4958.1 4974.2 4966.2 4968.3 4956.2 4968.3 4959.3 4958.8 4962.4 4968.3 4954.3 4974.2 4957.4 4983.7 4965.5 4989.6 4975.5 4989.6 4983.6 4995.5" clip-path="url(#a)" fill="none" stroke="#000" stroke-linecap="round"/>
<polyline points="4983.6 4995.5 4991.7 4989.6 4999.8 4983.7 4991.7 4989.6 4994.8 4999.1 4991.7 5008.6 4981.7 5008.6 4971.7 5008.6 4963.6 5014.5 4971.7 5020.4 4979.8 5014.5 4969.8 5014.5 4979.8 5014.5 4989.8 5014.5 4986.7 5005 4978.6 5010.9 4975.5 5020.4 4978.6 5029.9 4988.6 5029.9 4978.6 5029.9 4975.5 5020.4 4965.5 5020.4 4968.6 5010.9 4978.6 5010.9 4986.7 5005 4976.7 5005 4986.7 5005 4978.6 5010.9 4968.6 5010.9 4978.6 5010.9 4975.5 5001.4 4983.6 5007.2 4980.5 4997.7 4970.5 4997.7 4973.6 5007.2 4965.5 5013.1 4975.5 5013.1 4983.6 5007.2 4991.7 5001.4 4983.6 5007.2 4973.6 5007.2 4981.7 5001.4 4989.8 4995.5" clip-path="url(#a)" fill="none" stroke="#000" stroke-linecap="round"/>
<polyline points="4989.8 4995.5 4986.7 4986 4994.8 4991.8 4991.7 4982.3 4994.8 4972.8 4997.9 4963.3 5001 4953.8 5004 4963.3 4996 4957.4 4987.9 4963.3 4991 4972.8 4987.9 4963.3 4979.8 4957.4 4989.8 4957.4 4979.8 4957.4 4989.8 4957.4 4981.7 4963.3 4984.8 4972.8 4981.7 4982.3 4984.8 4991.8 4992.9 4986 5002.9 4986 5012.9 4986 5009.8 4995.5 5017.9 5001.4 5014.8 5010.9 5022.9 5005 5026 5014.5 5017.9 5008.6 5021 4999.1 5012.9 4993.2 5002.9 4993.2 4994.8 4999.1 4984.8 4999.1 4981.7 5008.6 4978.6 5018.1 4981.7 5008.6 4973.6 5002.7 4970.5 4993.2 4978.6 4987.4 4986.7 4981.5 4989.8 4972 4979.8 4972" clip-path="url(#a)" fill="none" stroke="#000" stroke-linecap="round"/>
<polyline points="4979.8 4972 4976.7 4981.5 4984.8 4975.6 4976.7 4981.5 4968.6 4987.4 4976.7 4993.2 4979.8 4983.7 4976.7 4974.2 4968.6 4968.3 4960.5 4974.2 4968.6 4968.3 4976.7 4974.2 4984.8 4968.3 4987.9 4977.8 4979.8 4983.7 4976.7 4993.2 4984.8 4987.4 4976.7 4993.2 4979.8 4983.7 4987.9 4977.8 4979.8 4983.7 4987.9 4989.6 4977.9 4989.6 4986 4995.5 4994 4989.6 4986 4983.7 4989 4974.2 4981 4980.1 4977.9 4989.6 4974.8 4999.1 4977.9 4989.6 4986 4983.7 4982.9 4993.2 4979.8 5002.7 4987.9 5008.6 4977.9 5008.6 4986 5014.5 4989 5024 4992.1 5033.5 4995.2 5043 4987.1 5037.2 4997.1 5037.2 5000.2 5027.6" clip-path="url(#a)" fill="none" stroke="#000" stroke-linecap="round"/>
<polyline points="5000.2 5027.6 4992.1 5021.8 5000.2 5027.6 5010.2 5027.6 5002.1 5033.5 5010.2 5027.6 5002.1 5033.5 5005.2 5024 4997.1 5018.1 4994 5008.6 4986 5002.7 4982.9 5012.3 4974.8 5018.1 4966.7 5024 4963.6 5014.5 4953.6 5014.5 4950.5 5005 4947.4 5014.5 4939.3 5008.6 4949.3 5008.6 4952.4 5018.1 4962.4 5018.1 4970.5 5012.3 4973.6 5002.7 4981.7 4996.9 4978.6 4987.4 4975.5 4977.8 4978.6 4987.4 4988.6 4987.4 4996.7 4993.2 4993.6 5002.7 4990.5 5012.3 4993.6 5021.8 5001.7 5015.9 4998.6 5006.4 4995.5 5015.9 4998.6 5006.4 5001.7 4996.9 4991.7 4996.9 4994.8 5006.4 5002.9 5012.3 5012.9 5012.3 5016 5002.7" clip-path="url(#a)" fill="none" stroke="#000" stroke-linecap="round"/>
<polyline points="5016 5002.7 5012.9 5012.3 5002.9 5012.3 4999.8 5021.8 4991.7 5015.9 4994.8 5006.4 4991.7 4996.9 4988.6 5006.4 4991.7 4996.9 4994.8 5006.4 4991.7 5015.9 4994.8 5006.4 4984.8 5006.4 4992.9 5000.5 4982.9 5000.5 4979.8 5010 4989.8 5010 4992.9 5019.5 4996 5010 4992.9 5000.5 4989.8 4991 4992.9 5000.5 4989.8 5010 4986.7 5000.5 4983.6 4991 4973.6 4991 4981.7 4985.1 4971.7 4985.1 4963.6 4979.2 4955.5 4973.4 4947.4 4967.5 4957.4 4967.5 4949.3 4973.4 4952.4 4982.9 4962.4 4982.9 4952.4 4982.9 4944.3 4988.7 4947.4 4979.2 4944.3 4988.7 4947.4 4979.2 4950.5 4988.7 4960.5 4988.7 4968.6 4994.6" clip-path="url(#a)" fill="none" stroke="#000" stroke-linecap="round"/>
<polyline points="4968.6 4994.6 4978.6 4994.6 4975.5 4985.1 4978.6 4975.6 4981.7 4966.1 4989.8 4972 4997.9 4966.1 5006 4972 5002.9 4962.5 5012.9 4962.5 5004.8 4968.3 4996.7 4962.5 4988.6 4968.3 4985.5 4977.8 4988.6 4987.4 4985.5 4996.9 4993.6 5002.7 5001.7 5008.6 4993.6 5002.7 4985.5 5008.6 4975.5 5008.6 4972.4 4999.1 4969.3 4989.6 4961.2 4983.7 4958.1 4993.2 4966.2 4999.1 4963.1 4989.6 4966.2 4999.1 4969.3 5008.6 4977.4 5002.7 4969.3 4996.9 4959.3 4996.9 4951.2 5002.7 4954.3 5012.3 4951.2 5002.7 4959.3 4996.9 4956.2 4987.4 4966.2 4987.4 4969.3 4996.9 4977.4 5002.7 4974.3 4993.2 4977.4 5002.7 4969.3 4996.9" clip-path="url(#a)" fill="none" stroke="#000" stroke-linecap="round"/>
<polyline points="4969.3 4996.9 4966.2 4987.4 4969.3 4996.9 4977.4 4991 4974.3 5000.5 4982.4 4994.6 4979.3 4985.1 4971.2 4991 4963.1 4985.1 4966.2 4994.6 4974.3 5000.5 4982.4 5006.4 4974.3 5000.5 4971.2 4991 4979.3 4996.9 4987.4 5002.7 4995.5 4996.9 4992.4 5006.4 5000.5 5000.5" clip-path="url(#a)" fill="none" stroke="#000" stroke-linecap="round"/>
</svg>
