<?xml version="1.0" encoding="UTF-8"?>
<svg width="1e4px" height="1e4px" baseProfile="full" version="1.1" viewBox="5000.5 5000.5 4327.9 2044" xmlns="http://www.w3.org/2000/svg">
<defs>
<clipPath id="a">
<rect width="1e4" height="1e4"/>
</clipPath>
</defs>
<polyline points="5000.5 5000.5 5010.5 5000.5 5020.5 5000.5 5030.5 5000.5 5022.4 5006.4 5019.3 5015.9 5029.3 5015.9 5021.2 5010 5018.1 5000.5 5026.2 5006.4 5029.3 5015.9 5037.4 5010 5034.3 5000.5 5037.4 5010 5045.5 5015.9 5037.4 5010 5034.3 5019.5 5044.3 5019.5 5041.2 5029 5049.3 5023.2 5046.2 5013.6 5038.1 5019.5 5046.2 5025.4 5056.2 5025.4 5059.3 5015.9 5069.3 5015.9 5072.4 5025.4 5080.5 5019.5 5070.5 5019.5 5073.6 5029 5070.5 5019.5 5073.6 5029 5065.5 5034.9 5068.6 5044.4 5060.5 5050.3 5063.6 5059.8 5073.6 5059.8 5083.6 5059.8 5086.7 5069.3 5083.6 5059.8 5091.7 5053.9 5099.8 5059.8 5102.9 5069.3" clip-path="url(#a)" fill="none" stroke="#000" stroke-linecap="round"/>
<polyline points="5102.9 5069.3 5099.8 5059.8 5109.8 5059.8 5119.8 5059.8 5109.8 5059.8 5119.8 5059.8 5122.9 5050.3 5119.8 5040.8 5116.7 5050.3 5108.6 5044.4 5100.5 5050.3 5108.6 5056.2 5111.7 5065.7 5121.7 5065.7 5113.6 5071.6 5121.7 5077.4 5118.6 5087 5115.5 5096.5 5125.5 5096.5 5117.4 5102.3 5109.3 5096.5 5101.2 5090.6 5098.1 5081.1 5106.2 5075.2 5109.3 5065.7 5106.2 5075.2 5098.1 5081.1 5106.2 5075.2 5114.3 5069.3 5124.3 5069.3 5127.4 5059.8 5130.5 5050.3 5122.4 5044.4 5125.5 5053.9 5122.4 5044.4 5114.3 5050.3 5104.3 5050.3 5101.2 5040.8 5111.2 5040.8 5108.1 5050.3 5118.1 5050.3 5128.1 5050.3 5138.1 5050.3" clip-path="url(#a)" fill="none" stroke="#000" stroke-linecap="round"/>
<polyline points="5138.1 5050.3 5130 5056.2 5127 5065.7 5137 5065.7 5128.9 5059.8 5125.8 5050.3 5133.9 5056.2 5137 5065.7 5145 5059.8 5142 5050.3 5145 5059.8 5153.1 5065.7 5145 5059.8 5142 5069.3 5152 5069.3 5148.9 5078.8 5157 5073 5153.9 5063.4 5145.8 5069.3 5153.9 5075.2 5163.9 5075.2 5167 5065.7 5177 5065.7 5180 5075.2 5188.1 5069.3 5178.1 5069.3 5181.2 5078.8 5178.1 5069.3 5181.2 5078.8 5173.1 5084.7 5176.2 5094.2 5168.1 5100.1 5171.2 5109.6 5181.2 5109.6 5191.2 5109.6 5194.3 5119.1 5191.2 5109.6 5199.3 5103.7 5207.4 5109.6 5210.5 5119.1 5207.4 5109.6 5217.4 5109.6 5227.4 5109.6" clip-path="url(#a)" fill="none" stroke="#000" stroke-linecap="round"/>
<polyline points="5227.4 5109.6 5217.4 5109.6 5227.4 5109.6 5230.5 5100.1 5227.4 5090.6 5224.3 5100.1 5216.2 5094.2 5208.1 5100.1 5216.2 5106 5219.3 5115.5 5229.3 5115.5 5221.2 5121.4 5229.3 5127.2 5226.2 5136.8 5223.1 5146.3 5233.1 5146.3 5225 5152.1 5217 5146.3 5208.9 5140.4 5205.8 5130.9 5213.9 5125 5217 5115.5 5213.9 5125 5205.8 5130.9 5213.9 5125 5222 5119.1 5232 5119.1 5235 5109.6 5238.1 5100.1 5230 5094.2 5233.1 5103.7 5230 5094.2 5222 5100.1 5212 5100.1 5208.9 5090.6 5218.9 5090.6 5215.8 5100.1 5225.8 5100.1 5235.8 5100.1 5245.8 5100.1 5237.7 5106 5234.6 5115.5 5244.6 5115.5" clip-path="url(#a)" fill="none" stroke="#000" stroke-linecap="round"/>
<polyline points="5244.6 5115.5 5236.5 5109.6 5233.4 5100.1 5241.5 5106 5244.6 5115.5 5252.7 5109.6 5249.6 5100.1 5252.7 5109.6 5260.8 5115.5 5252.7 5109.6 5249.6 5119.1 5259.6 5119.1 5256.5 5128.6 5264.6 5122.7 5261.5 5113.2 5253.4 5119.1 5261.5 5125 5271.5 5125 5274.6 5115.5 5284.6 5115.5 5287.7 5125 5295.8 5119.1 5285.8 5119.1 5288.9 5128.6 5285.8 5119.1 5288.9 5128.6 5280.8 5134.5 5283.9 5144 5275.8 5149.9 5278.9 5159.4 5288.9 5159.4 5298.9 5159.4 5302 5168.9 5298.9 5159.4 5307 5153.5 5315 5159.4 5318.1 5168.9 5315 5159.4 5325 5159.4 5335 5159.4 5325 5159.4 5335 5159.4 5338.1 5149.9" clip-path="url(#a)" fill="none" stroke="#000" stroke-linecap="round"/>
<polyline points="5338.1 5149.9 5335 5140.4 5332 5149.9 5323.9 5144 5315.8 5149.9 5323.9 5155.8 5327 5165.3 5337 5165.3 5328.9 5171.2 5337 5177 5333.9 5186.5 5330.8 5196.1 5340.8 5196.1 5332.7 5201.9 5324.6 5196.1 5316.5 5190.2 5313.4 5180.7 5321.5 5174.8 5324.6 5165.3 5321.5 5174.8 5313.4 5180.7 5321.5 5174.8 5329.6 5168.9 5339.6 5168.9 5342.7 5159.4 5345.8 5149.9 5337.7 5144 5340.8 5153.5 5337.7 5144 5329.6 5149.9 5319.6 5149.9 5316.5 5140.4 5326.5 5140.4 5323.4 5149.9 5333.4 5149.9 5343.4 5149.9 5353.4 5149.9 5345.3 5155.8 5342.2 5165.3 5352.2 5165.3 5344.1 5159.4 5341.1 5149.9 5349.1 5155.8" clip-path="url(#a)" fill="none" stroke="#000" stroke-linecap="round"/>
<polyline points="5349.1 5155.8 5352.2 5165.3 5360.3 5159.4 5357.2 5149.9 5360.3 5159.4 5368.4 5165.3 5360.3 5159.4 5357.2 5168.9 5367.2 5168.9 5364.1 5178.4 5372.2 5172.5 5369.1 5163 5361.1 5168.9 5369.1 5174.8 5379.1 5174.8 5382.2 5165.3 5392.2 5165.3 5395.3 5174.8 5403.4 5168.9 5393.4 5168.9 5396.5 5178.4 5393.4 5168.9 5396.5 5178.4 5388.4 5184.3 5391.5 5193.8 5383.4 5199.7 5386.5 5209.2 5396.5 5209.2 5406.5 5209.2 5409.6 5218.7 5406.5 5209.2 5414.6 5203.3 5422.7 5209.2 5425.8 5218.7 5422.7 5209.2 5432.7 5209.2 5442.7 5209.2 5432.7 5209.2 5442.7 5209.2 5445.8 5199.7 5442.7 5190.2 5439.6 5199.7 5431.5 5193.8" clip-path="url(#a)" fill="none" stroke="#000" stroke-linecap="round"/>
<polyline points="5431.5 5193.8 5423.4 5199.7 5431.5 5205.6 5434.6 5215.1 5444.6 5215.1 5436.5 5221 5444.6 5226.8 5441.5 5236.3 5438.4 5245.9 5448.4 5245.9 5440.3 5251.7 5432.2 5245.9 5424.1 5240 5421.1 5230.5 5429.1 5224.6 5432.2 5215.1 5429.1 5224.6 5421.1 5230.5 5429.1 5224.6 5437.2 5218.7 5447.2 5218.7 5450.3 5209.2 5453.4 5199.7 5445.3 5193.8 5448.4 5203.3 5445.3 5193.8 5437.2 5199.7 5427.2 5199.7 5424.1 5190.2 5434.1 5190.2 5431.1 5199.7 5441.1 5199.7 5451.1 5199.7 5461.1 5199.7 5453 5205.6 5449.9 5215.1 5459.9 5215.1 5451.8 5209.2 5448.7 5199.7 5456.8 5205.6 5459.9 5215.1 5468 5209.2 5464.9 5199.7" clip-path="url(#a)" fill="none" stroke="#000" stroke-linecap="round"/>
<polyline points="5464.9 5199.7 5468 5209.2 5476.1 5215.1 5468 5209.2 5464.9 5218.7 5474.9 5218.7 5471.8 5228.2 5479.9 5222.3 5476.8 5212.8 5468.7 5218.7 5476.8 5224.6 5486.8 5224.6 5489.9 5215.1 5499.9 5215.1 5503 5224.6 5511.1 5218.7 5501.1 5218.7 5504.1 5228.2 5501.1 5218.7 5504.1 5228.2 5496.1 5234.1 5499.1 5243.6 5491.1 5249.5 5494.1 5259 5504.1 5259 5514.1 5259 5517.2 5268.5 5514.1 5259 5522.2 5253.1 5530.3 5259 5533.4 5268.5 5530.3 5259 5540.3 5259 5550.3 5259 5540.3 5259 5550.3 5259 5553.4 5249.5 5550.3 5240 5547.2 5249.5 5539.1 5243.6 5531.1 5249.5 5539.1 5255.4 5542.2 5264.9" clip-path="url(#a)" fill="none" stroke="#000" stroke-linecap="round"/>
<polyline points="5542.2 5264.9 5552.2 5264.9 5544.1 5270.8 5552.2 5276.6 5549.1 5286.1 5546.1 5295.7 5556.1 5295.7 5548 5301.5 5539.9 5295.7 5531.8 5289.8 5528.7 5280.3 5536.8 5274.4 5539.9 5264.9 5536.8 5274.4 5528.7 5280.3 5536.8 5274.4 5544.9 5268.5 5554.9 5268.5 5558 5259 5561.1 5249.5 5553 5243.6 5556.1 5253.1 5553 5243.6 5544.9 5249.5 5534.9 5249.5 5531.8 5240 5541.8 5240 5538.7 5249.5 5548.7 5249.5 5558.7 5249.5 5568.7 5249.5 5560.6 5255.4 5557.5 5264.9 5567.5 5264.9 5559.4 5259 5556.3 5249.5 5564.4 5255.4 5567.5 5264.9 5575.6 5259 5572.5 5249.5 5575.6 5259 5583.7 5264.9 5575.6 5259" clip-path="url(#a)" fill="none" stroke="#000" stroke-linecap="round"/>
<polyline points="5575.6 5259 5572.5 5268.5 5582.5 5268.5 5579.4 5278 5587.5 5272.1 5584.4 5262.6 5576.3 5268.5 5584.4 5274.4 5594.4 5274.4 5597.5 5264.9 5607.5 5264.9 5610.6 5274.4 5618.7 5268.5 5608.7 5268.5 5611.8 5278 5608.7 5268.5 5611.8 5278 5603.7 5283.9 5606.8 5293.4 5598.7 5299.3 5601.8 5308.8 5611.8 5308.8 5621.8 5308.8 5624.9 5318.3 5621.8 5308.8 5629.9 5302.9 5638 5308.8 5641.1 5318.3 5638 5308.8 5648 5308.8 5658 5308.8 5648 5308.8 5658 5308.8 5661.1 5299.3 5658 5289.8 5654.9 5299.3 5646.8 5293.4 5638.7 5299.3 5646.8 5305.2 5649.9 5314.7 5659.9 5314.7 5651.8 5320.6 5659.9 5326.4" clip-path="url(#a)" fill="none" stroke="#000" stroke-linecap="round"/>
<polyline points="5659.9 5326.4 5656.8 5335.9 5653.7 5345.5 5663.7 5345.5 5655.6 5351.3 5647.5 5345.5 5639.4 5339.6 5636.3 5330.1 5644.4 5324.2 5647.5 5314.7 5644.4 5324.2 5636.3 5330.1 5644.4 5324.2 5652.5 5318.3 5662.5 5318.3 5665.6 5308.8 5668.7 5299.3 5660.6 5293.4 5663.7 5302.9 5660.6 5293.4 5652.5 5299.3 5642.5 5299.3 5639.4 5289.8 5649.4 5289.8 5646.3 5299.3 5656.3 5299.3 5666.3 5299.3 5676.3 5299.3 5668.2 5305.2 5665.2 5314.7 5675.2 5314.7 5667.1 5308.8 5664 5299.3 5672.1 5305.2 5675.2 5314.7 5683.2 5308.8 5680.2 5299.3 5683.2 5308.8 5691.3 5314.7 5683.2 5308.8 5680.2 5318.3 5690.2 5318.3 5687.1 5327.8" clip-path="url(#a)" fill="none" stroke="#000" stroke-linecap="round"/>
<polyline points="5687.1 5327.8 5695.2 5321.9 5692.1 5312.4 5684 5318.3 5692.1 5324.2 5702.1 5324.2 5705.2 5314.7 5715.2 5314.7 5718.2 5324.2 5726.3 5318.3 5716.3 5318.3 5719.4 5327.8 5716.3 5318.3 5719.4 5327.8 5711.3 5333.7 5714.4 5343.2 5706.3 5349.1 5709.4 5358.6 5719.4 5358.6 5729.4 5358.6 5732.5 5368.1 5729.4 5358.6 5737.5 5352.7 5745.6 5358.6 5748.7 5368.1 5745.6 5358.6 5755.6 5358.6 5765.6 5358.6 5755.6 5358.6 5765.6 5358.6 5768.7 5349.1 5765.6 5339.6 5762.5 5349.1 5754.4 5343.2 5746.3 5349.1 5754.4 5355 5757.5 5364.5 5767.5 5364.5 5759.4 5370.4 5767.5 5376.2 5764.4 5385.7 5761.3 5395.3 5771.3 5395.3" clip-path="url(#a)" fill="none" stroke="#000" stroke-linecap="round"/>
<polyline points="5771.3 5395.3 5763.2 5401.1 5755.2 5395.3 5747.1 5389.4 5744 5379.9 5752.1 5374 5755.2 5364.5 5752.1 5374 5744 5379.9 5752.1 5374 5760.2 5368.1 5770.2 5368.1 5773.2 5358.6 5776.3 5349.1 5768.2 5343.2 5771.3 5352.7 5768.2 5343.2 5760.2 5349.1 5750.2 5349.1 5747.1 5339.6 5757.1 5339.6 5754 5349.1 5764 5349.1 5774 5349.1 5784 5349.1 5775.9 5355 5772.8 5364.5 5782.8 5364.5 5774.7 5358.6 5771.6 5349.1 5779.7 5355 5782.8 5364.5 5790.9 5358.6 5787.8 5349.1 5790.9 5358.6 5799 5364.5 5790.9 5358.6 5787.8 5368.1 5797.8 5368.1 5794.7 5377.6 5802.8 5371.7 5799.7 5362.2 5791.6 5368.1" clip-path="url(#a)" fill="none" stroke="#000" stroke-linecap="round"/>
<polyline points="5791.6 5368.1 5799.7 5374 5809.7 5374 5812.8 5364.5 5822.8 5364.5 5825.9 5374 5834 5368.1 5824 5368.1 5827.1 5377.6 5824 5368.1 5827.1 5377.6 5819 5383.5 5822.1 5393 5814 5398.9 5817.1 5408.4 5827.1 5408.4 5837.1 5408.4 5840.2 5417.9 5837.1 5408.4 5845.2 5402.5 5853.2 5408.4 5856.3 5417.9 5853.2 5408.4 5863.2 5408.4 5873.2 5408.4 5863.2 5408.4 5873.2 5408.4 5876.3 5398.9 5873.2 5389.4 5870.2 5398.9 5862.1 5393 5854 5398.9 5862.1 5404.8 5865.2 5414.3 5875.2 5414.3 5867.1 5420.1 5875.2 5426 5872.1 5435.5 5869 5445 5879 5445 5870.9 5450.9 5862.8 5445 5854.7 5439.2" clip-path="url(#a)" fill="none" stroke="#000" stroke-linecap="round"/>
<polyline points="5854.7 5439.2 5851.6 5429.7 5859.7 5423.8 5862.8 5414.3 5859.7 5423.8 5851.6 5429.7 5859.7 5423.8 5867.8 5417.9 5877.8 5417.9 5880.9 5408.4 5884 5398.9 5875.9 5393 5879 5402.5 5875.9 5393 5867.8 5398.9 5857.8 5398.9 5854.7 5389.4 5864.7 5389.4 5861.6 5398.9 5871.6 5398.9 5881.6 5398.9 5891.6 5398.9 5883.5 5404.8 5880.4 5414.3 5890.4 5414.3 5882.3 5408.4 5879.3 5398.9 5887.3 5404.8 5890.4 5414.3 5898.5 5408.4 5895.4 5398.9 5898.5 5408.4 5906.6 5414.3 5898.5 5408.4 5895.4 5417.9 5905.4 5417.9 5902.3 5427.4 5910.4 5421.5 5907.3 5412 5899.3 5417.9 5907.3 5423.8 5917.3 5423.8 5920.4 5414.3" clip-path="url(#a)" fill="none" stroke="#000" stroke-linecap="round"/>
<polyline points="5920.4 5414.3 5930.4 5414.3 5933.5 5423.8 5941.6 5417.9 5931.6 5417.9 5934.7 5427.4 5931.6 5417.9 5934.7 5427.4 5926.6 5433.3 5929.7 5442.8 5921.6 5448.7 5924.7 5458.2 5934.7 5458.2 5944.7 5458.2 5947.8 5467.7 5944.7 5458.2 5952.8 5452.3 5960.9 5458.2 5964 5467.7 5960.9 5458.2 5970.9 5458.2 5980.9 5458.2 5970.9 5458.2 5980.9 5458.2 5984 5448.7 5980.9 5439.2 5977.8 5448.7 5969.7 5442.8 5961.6 5448.7 5969.7 5454.6 5972.8 5464.1 5982.8 5464.1 5974.7 5469.9 5982.8 5475.8 5979.7 5485.3 5976.6 5494.8 5986.6 5494.8 5978.5 5500.7 5970.4 5494.8 5962.3 5489 5959.3 5479.5 5967.3 5473.6 5970.4 5464.1" clip-path="url(#a)" fill="none" stroke="#000" stroke-linecap="round"/>
<polyline points="5970.4 5464.1 5967.3 5473.6 5959.3 5479.5 5967.3 5473.6 5975.4 5467.7 5985.4 5467.7 5988.5 5458.2 5991.6 5448.7 5983.5 5442.8 5986.6 5452.3 5983.5 5442.8 5975.4 5448.7 5965.4 5448.7 5962.3 5439.2 5972.3 5439.2 5969.3 5448.7 5979.3 5448.7 5989.3 5448.7 5999.3 5448.7 5991.2 5454.6 5988.1 5464.1 5998.1 5464.1 5990 5458.2 5986.9 5448.7 5995 5454.6 5998.1 5464.1 6006.2 5458.2 6003.1 5448.7 6006.2 5458.2 6014.3 5464.1 6006.2 5458.2 6003.1 5467.7 6013.1 5467.7 6010 5477.2 6018.1 5471.3 6015 5461.8 6006.9 5467.7 6015 5473.6 6025 5473.6 6028.1 5464.1 6038.1 5464.1 6041.2 5473.6 6049.3 5467.7" clip-path="url(#a)" fill="none" stroke="#000" stroke-linecap="round"/>
<polyline points="6049.3 5467.7 6039.3 5467.7 6042.3 5477.2 6039.3 5467.7 6042.3 5477.2 6034.3 5483.1 6037.3 5492.6 6029.3 5498.5 6032.3 5508 6042.3 5508 6052.3 5508 6055.4 5517.5 6052.3 5508 6060.4 5502.1 6068.5 5508 6071.6 5517.5 6068.5 5508 6078.5 5508 6088.5 5508 6078.5 5508 6088.5 5508 6091.6 5498.5 6088.5 5489 6085.4 5498.5 6077.3 5492.6 6069.3 5498.5 6077.3 5504.4 6080.4 5513.9 6090.4 5513.9 6082.3 5519.7 6090.4 5525.6 6087.3 5535.1 6084.3 5544.6 6094.3 5544.6 6086.2 5550.5 6078.1 5544.6 6070 5538.8 6066.9 5529.3 6075 5523.4 6078.1 5513.9 6075 5523.4 6066.9 5529.3 6075 5523.4" clip-path="url(#a)" fill="none" stroke="#000" stroke-linecap="round"/>
<polyline points="6075 5523.4 6083.1 5517.5 6093.1 5517.5 6096.2 5508 6099.3 5498.5 6091.2 5492.6 6094.3 5502.1 6091.2 5492.6 6083.1 5498.5 6073.1 5498.5 6070 5489 6080 5489 6076.9 5498.5 6086.9 5498.5 6096.9 5498.5 6106.9 5498.5 6098.8 5504.4 6095.7 5513.9 6105.7 5513.9 6097.6 5508 6094.5 5498.5 6102.6 5504.4 6105.7 5513.9 6113.8 5508 6110.7 5498.5 6113.8 5508 6121.9 5513.9 6113.8 5508 6110.7 5517.5 6120.7 5517.5 6117.6 5527 6125.7 5521.1 6122.6 5511.6 6114.5 5517.5 6122.6 5523.4 6132.6 5523.4 6135.7 5513.9 6145.7 5513.9 6148.8 5523.4 6156.9 5517.5 6146.9 5517.5 6150 5527 6146.9 5517.5" clip-path="url(#a)" fill="none" stroke="#000" stroke-linecap="round"/>
<polyline points="6146.9 5517.5 6150 5527 6141.9 5532.9 6145 5542.4 6136.9 5548.3 6140 5557.8 6150 5557.8 6160 5557.8 6163.1 5567.3 6160 5557.8 6168.1 5551.9 6176.2 5557.8 6179.3 5567.3 6176.2 5557.8 6186.2 5557.8 6196.2 5557.8 6186.2 5557.8 6196.2 5557.8 6199.3 5548.3 6196.2 5538.8 6193.1 5548.3 6185 5542.4 6176.9 5548.3 6185 5554.2 6188.1 5563.7 6198.1 5563.7 6190 5569.5 6198.1 5575.4 6195 5584.9 6191.9 5594.4 6201.9 5594.4 6193.8 5600.3 6185.7 5594.4 6177.6 5588.6 6174.5 5579.1 6182.6 5573.2 6185.7 5563.7 6182.6 5573.2 6174.5 5579.1 6182.6 5573.2 6190.7 5567.3 6200.7 5567.3 6203.8 5557.8" clip-path="url(#a)" fill="none" stroke="#000" stroke-linecap="round"/>
<polyline points="6203.8 5557.8 6206.9 5548.3 6198.8 5542.4 6201.9 5551.9 6198.8 5542.4 6190.7 5548.3 6180.7 5548.3 6177.6 5538.8 6187.6 5538.8 6184.5 5548.3 6194.5 5548.3 6204.5 5548.3 6214.5 5548.3 6206.4 5554.2 6203.4 5563.7 6213.4 5563.7 6205.3 5557.8 6202.2 5548.3 6210.3 5554.2 6213.4 5563.7 6221.4 5557.8 6218.4 5548.3 6221.4 5557.8 6229.5 5563.7 6221.4 5557.8 6218.4 5567.3 6228.4 5567.3 6225.3 5576.8 6233.4 5570.9 6230.3 5561.4 6222.2 5567.3 6230.3 5573.2 6240.3 5573.2 6243.4 5563.7 6253.4 5563.7 6256.4 5573.2 6264.5 5567.3 6254.5 5567.3 6257.6 5576.8 6254.5 5567.3 6257.6 5576.8 6249.5 5582.7 6252.6 5592.2" clip-path="url(#a)" fill="none" stroke="#000" stroke-linecap="round"/>
<polyline points="6252.6 5592.2 6244.5 5598.1 6247.6 5607.6 6257.6 5607.6 6267.6 5607.6 6270.7 5617.1 6267.6 5607.6 6275.7 5601.7 6283.8 5607.6 6286.9 5617.1 6283.8 5607.6 6293.8 5607.6 6303.8 5607.6 6293.8 5607.6 6303.8 5607.6 6306.9 5598.1 6303.8 5588.6 6300.7 5598.1 6292.6 5592.2 6284.5 5598.1 6292.6 5604 6295.7 5613.5 6305.7 5613.5 6297.6 5619.3 6305.7 5625.2 6302.6 5634.7 6299.5 5644.2 6309.5 5644.2 6301.4 5650.1 6293.4 5644.2 6285.3 5638.4 6282.2 5628.9 6290.3 5623 6293.4 5613.5 6290.3 5623 6282.2 5628.9 6290.3 5623 6298.4 5617.1 6308.4 5617.1 6311.4 5607.6 6314.5 5598.1 6306.4 5592.2 6309.5 5601.7" clip-path="url(#a)" fill="none" stroke="#000" stroke-linecap="round"/>
<polyline points="6309.5 5601.7 6306.4 5592.2 6298.4 5598.1 6288.4 5598.1 6285.3 5588.6 6295.3 5588.6 6292.2 5598.1 6302.2 5598.1 6312.2 5598.1 6322.2 5598.1 6314.1 5604 6311 5613.5 6321 5613.5 6312.9 5607.6 6309.8 5598.1 6317.9 5604 6321 5613.5 6329.1 5607.6 6326 5598.1 6329.1 5607.6 6337.2 5613.5 6329.1 5607.6 6326 5617.1 6336 5617.1 6332.9 5626.6 6341 5620.7 6337.9 5611.2 6329.8 5617.1 6337.9 5623 6347.9 5623 6351 5613.5 6361 5613.5 6364.1 5623 6372.2 5617.1 6362.2 5617.1 6365.3 5626.6 6362.2 5617.1 6365.3 5626.6 6357.2 5632.5 6360.3 5642 6352.2 5647.9 6355.3 5657.4 6365.3 5657.4" clip-path="url(#a)" fill="none" stroke="#000" stroke-linecap="round"/>
<polyline points="6365.3 5657.4 6375.3 5657.4 6378.4 5666.9 6375.3 5657.4 6383.4 5651.5 6391.4 5657.4 6394.5 5666.9 6391.4 5657.4 6401.4 5657.4 6411.4 5657.4 6401.4 5657.4 6411.4 5657.4 6414.5 5647.9 6411.4 5638.4 6408.4 5647.9 6400.3 5642 6392.2 5647.9 6400.3 5653.8 6403.4 5663.3 6413.4 5663.3 6405.3 5669.1 6413.4 5675 6410.3 5684.5 6407.2 5694 6417.2 5694 6409.1 5699.9 6401 5694 6392.9 5688.2 6389.8 5678.7 6397.9 5672.8 6401 5663.3 6397.9 5672.8 6389.8 5678.7 6397.9 5672.8 6406 5666.9 6416 5666.9 6419.1 5657.4 6422.2 5647.9 6414.1 5642 6417.2 5651.5 6414.1 5642 6406 5647.9 6396 5647.9" clip-path="url(#a)" fill="none" stroke="#000" stroke-linecap="round"/>
<polyline points="6396 5647.9 6392.9 5638.4 6402.9 5638.4 6399.8 5647.9 6409.8 5647.9 6419.8 5647.9 6429.8 5647.9 6421.7 5653.8 6418.6 5663.3 6428.6 5663.3 6420.5 5657.4 6417.5 5647.9 6425.5 5653.8 6428.6 5663.3 6436.7 5657.4 6433.6 5647.9 6436.7 5657.4 6444.8 5663.3 6436.7 5657.4 6433.6 5666.9 6443.6 5666.9 6440.5 5676.4 6448.6 5670.5 6445.5 5661 6437.5 5666.9 6445.5 5672.8 6455.5 5672.8 6458.6 5663.3 6468.6 5663.3 6471.7 5672.8 6479.8 5666.9 6469.8 5666.9 6472.9 5676.4 6469.8 5666.9 6472.9 5676.4 6464.8 5682.3 6467.9 5691.8 6459.8 5697.7 6462.9 5707.2 6472.9 5707.2 6482.9 5707.2 6486 5716.7 6482.9 5707.2" clip-path="url(#a)" fill="none" stroke="#000" stroke-linecap="round"/>
<polyline points="6482.9 5707.2 6491 5701.3 6499.1 5707.2 6502.2 5716.7 6499.1 5707.2 6509.1 5707.2 6519.1 5707.2 6509.1 5707.2 6519.1 5707.2 6522.2 5697.7 6519.1 5688.2 6516 5697.7 6507.9 5691.8 6499.8 5697.7 6507.9 5703.5 6511 5713.1 6521 5713.1 6512.9 5718.9 6521 5724.8 6517.9 5734.3 6514.8 5743.8 6524.8 5743.8 6516.7 5749.7 6508.6 5743.8 6500.5 5738 6497.5 5728.4 6505.5 5722.6 6508.6 5713.1 6505.5 5722.6 6497.5 5728.4 6505.5 5722.6 6513.6 5716.7 6523.6 5716.7 6526.7 5707.2 6529.8 5697.7 6521.7 5691.8 6524.8 5701.3 6521.7 5691.8 6513.6 5697.7 6503.6 5697.7 6500.5 5688.2 6510.5 5688.2 6507.5 5697.7" clip-path="url(#a)" fill="none" stroke="#000" stroke-linecap="round"/>
<polyline points="6507.5 5697.7 6517.5 5697.7 6527.5 5697.7 6537.5 5697.7 6529.4 5703.5 6526.3 5713.1 6536.3 5713.1 6528.2 5707.2 6525.1 5697.7 6533.2 5703.5 6536.3 5713.1 6544.4 5707.2 6541.3 5697.7 6544.4 5707.2 6552.5 5713.1 6544.4 5707.2 6541.3 5716.7 6551.3 5716.7 6548.2 5726.2 6556.3 5720.3 6553.2 5710.8 6545.1 5716.7 6553.2 5722.6 6563.2 5722.6 6566.3 5713.1 6576.3 5713.1 6579.4 5722.6 6587.5 5716.7 6577.5 5716.7 6580.5 5726.2 6577.5 5716.7 6580.5 5726.2 6572.5 5732.1 6575.5 5741.6 6567.5 5747.5 6570.5 5757 6580.5 5757 6590.5 5757 6593.6 5766.5 6590.5 5757 6598.6 5751.1 6606.7 5757 6609.8 5766.5" clip-path="url(#a)" fill="none" stroke="#000" stroke-linecap="round"/>
<polyline points="6609.8 5766.5 6606.7 5757 6616.7 5757 6626.7 5757 6616.7 5757 6626.7 5757 6629.8 5747.5 6626.7 5738 6623.6 5747.5 6615.5 5741.6 6607.5 5747.5 6615.5 5753.3 6618.6 5762.9 6628.6 5762.9 6620.5 5768.7 6628.6 5774.6 6625.5 5784.1 6622.5 5793.6 6632.5 5793.6 6624.4 5799.5 6616.3 5793.6 6608.2 5787.8 6605.1 5778.2 6613.2 5772.4 6616.3 5762.9 6613.2 5772.4 6605.1 5778.2 6613.2 5772.4 6621.3 5766.5 6631.3 5766.5 6634.4 5757 6637.5 5747.5 6629.4 5741.6 6632.5 5751.1 6629.4 5741.6 6621.3 5747.5 6611.3 5747.5 6608.2 5738 6618.2 5738 6615.1 5747.5 6625.1 5747.5 6635.1 5747.5 6645.1 5747.5" clip-path="url(#a)" fill="none" stroke="#000" stroke-linecap="round"/>
<polyline points="6645.1 5747.5 6637 5753.3 6633.9 5762.9 6643.9 5762.9 6635.8 5757 6632.7 5747.5 6640.8 5753.3 6643.9 5762.9 6652 5757 6648.9 5747.5 6652 5757 6660.1 5762.9 6652 5757 6648.9 5766.5 6658.9 5766.5 6655.8 5776 6663.9 5770.1 6660.8 5760.6 6652.7 5766.5 6660.8 5772.4 6670.8 5772.4 6673.9 5762.9 6683.9 5762.9 6687 5772.4 6695.1 5766.5 6685.1 5766.5 6688.2 5776 6685.1 5766.5 6688.2 5776 6680.1 5781.9 6683.2 5791.4 6675.1 5797.3 6678.2 5806.8 6688.2 5806.8 6698.2 5806.8 6701.3 5816.3 6698.2 5806.8 6706.3 5800.9 6714.4 5806.8 6717.5 5816.3 6714.4 5806.8 6724.4 5806.8 6734.4 5806.8" clip-path="url(#a)" fill="none" stroke="#000" stroke-linecap="round"/>
<polyline points="6734.4 5806.8 6724.4 5806.8 6734.4 5806.8 6737.5 5797.3 6734.4 5787.8 6731.3 5797.3 6723.2 5791.4 6715.1 5797.3 6723.2 5803.1 6726.3 5812.7 6736.3 5812.7 6728.2 5818.5 6736.3 5824.4 6733.2 5833.9 6730.1 5843.4 6740.1 5843.4 6732 5849.3 6723.9 5843.4 6715.8 5837.6 6712.7 5828 6720.8 5822.2 6723.9 5812.7 6720.8 5822.2 6712.7 5828 6720.8 5822.2 6728.9 5816.3 6738.9 5816.3 6742 5806.8 6745.1 5797.3 6737 5791.4 6740.1 5800.9 6737 5791.4 6728.9 5797.3 6718.9 5797.3 6715.8 5787.8 6725.8 5787.8 6722.7 5797.3 6732.7 5797.3 6742.7 5797.3 6752.7 5797.3 6744.6 5803.1 6741.5 5812.7 6751.5 5812.7" clip-path="url(#a)" fill="none" stroke="#000" stroke-linecap="round"/>
<polyline points="6751.5 5812.7 6743.5 5806.8 6740.4 5797.3 6748.5 5803.1 6751.5 5812.7 6759.6 5806.8 6756.5 5797.3 6759.6 5806.8 6767.7 5812.7 6759.6 5806.8 6756.5 5816.3 6766.5 5816.3 6763.5 5825.8 6771.5 5819.9 6768.5 5810.4 6760.4 5816.3 6768.5 5822.2 6778.5 5822.2 6781.5 5812.7 6791.5 5812.7 6794.6 5822.2 6802.7 5816.3 6792.7 5816.3 6795.8 5825.8 6792.7 5816.3 6795.8 5825.8 6787.7 5831.7 6790.8 5841.2 6782.7 5847.1 6785.8 5856.6 6795.8 5856.6 6805.8 5856.6 6808.9 5866.1 6805.8 5856.6 6813.9 5850.7 6822 5856.6 6825.1 5866.1 6822 5856.6 6832 5856.6 6842 5856.6 6832 5856.6 6842 5856.6 6845.1 5847.1" clip-path="url(#a)" fill="none" stroke="#000" stroke-linecap="round"/>
<polyline points="6845.1 5847.1 6842 5837.6 6838.9 5847.1 6830.8 5841.2 6822.7 5847.1 6830.8 5852.9 6833.9 5862.5 6843.9 5862.5 6835.8 5868.3 6843.9 5874.2 6840.8 5883.7 6837.7 5893.2 6847.7 5893.2 6839.6 5899.1 6831.5 5893.2 6823.5 5887.4 6820.4 5877.8 6828.5 5872 6831.5 5862.5 6828.5 5872 6820.4 5877.8 6828.5 5872 6836.5 5866.1 6846.5 5866.1 6849.6 5856.6 6852.7 5847.1 6844.6 5841.2 6847.7 5850.7 6844.6 5841.2 6836.5 5847.1 6826.5 5847.1 6823.5 5837.6 6833.5 5837.6 6830.4 5847.1 6840.4 5847.1 6850.4 5847.1 6860.4 5847.1 6852.3 5852.9 6849.2 5862.5 6859.2 5862.5 6851.1 5856.6 6848 5847.1 6856.1 5852.9" clip-path="url(#a)" fill="none" stroke="#000" stroke-linecap="round"/>
<polyline points="6856.1 5852.9 6859.2 5862.5 6867.3 5856.6 6864.2 5847.1 6867.3 5856.6 6875.4 5862.5 6867.3 5856.6 6864.2 5866.1 6874.2 5866.1 6871.1 5875.6 6879.2 5869.7 6876.1 5860.2 6868 5866.1 6876.1 5872 6886.1 5872 6889.2 5862.5 6899.2 5862.5 6902.3 5872 6910.4 5866.1 6900.4 5866.1 6903.5 5875.6 6900.4 5866.1 6903.5 5875.6 6895.4 5881.5 6898.5 5891 6890.4 5896.9 6893.5 5906.4 6903.5 5906.4 6913.5 5906.4 6916.5 5915.9 6913.5 5906.4 6921.5 5900.5 6929.6 5906.4 6932.7 5915.9 6929.6 5906.4 6939.6 5906.4 6949.6 5906.4 6939.6 5906.4 6949.6 5906.4 6952.7 5896.9 6949.6 5887.4 6946.5 5896.9 6938.5 5891" clip-path="url(#a)" fill="none" stroke="#000" stroke-linecap="round"/>
<polyline points="6938.5 5891 6930.4 5896.9 6938.5 5902.7 6941.5 5912.3 6951.5 5912.3 6943.5 5918.1 6951.5 5924 6948.5 5933.5 6945.4 5943 6955.4 5943 6947.3 5948.9 6939.2 5943 6931.1 5937.2 6928 5927.6 6936.1 5921.8 6939.2 5912.3 6936.1 5921.8 6928 5927.6 6936.1 5921.8 6944.2 5915.9 6954.2 5915.9 6957.3 5906.4 6960.4 5896.9 6952.3 5891 6955.4 5900.5 6952.3 5891 6944.2 5896.9 6934.2 5896.9 6931.1 5887.4 6941.1 5887.4 6938 5896.9 6948 5896.9 6958 5896.9 6968 5896.9 6959.9 5902.7 6956.8 5912.3 6966.8 5912.3 6958.7 5906.4 6955.6 5896.9 6963.7 5902.7 6966.8 5912.3 6974.9 5906.4 6971.8 5896.9" clip-path="url(#a)" fill="none" stroke="#000" stroke-linecap="round"/>
<polyline points="6971.8 5896.9 6974.9 5906.4 6983 5912.3 6974.9 5906.4 6971.8 5915.9 6981.8 5915.9 6978.7 5925.4 6986.8 5919.5 6983.7 5910 6975.6 5915.9 6983.7 5921.8 6993.7 5921.8 6996.8 5912.3 7006.8 5912.3 7009.9 5921.8 7018 5915.9 7008 5915.9 7011.1 5925.4 7008 5915.9 7011.1 5925.4 7003 5931.3 7006.1 5940.8 6998 5946.7 7001.1 5956.2 7011.1 5956.2 7021.1 5956.2 7024.2 5965.7 7021.1 5956.2 7029.2 5950.3 7037.3 5956.2 7040.4 5965.7 7037.3 5956.2 7047.3 5956.2 7057.3 5956.2 7047.3 5956.2 7057.3 5956.2 7060.4 5946.7 7057.3 5937.2 7054.2 5946.7 7046.1 5940.8 7038 5946.7 7046.1 5952.5 7049.2 5962" clip-path="url(#a)" fill="none" stroke="#000" stroke-linecap="round"/>
<polyline points="7049.2 5962 7059.2 5962 7051.1 5967.9 7059.2 5973.8 7056.1 5983.3 7053 5992.8 7063 5992.8 7054.9 5998.7 7046.8 5992.8 7038.7 5986.9 7035.6 5977.4 7043.7 5971.6 7046.8 5962 7043.7 5971.6 7035.6 5977.4 7043.7 5971.6 7051.8 5965.7 7061.8 5965.7 7064.9 5956.2 7068 5946.7 7059.9 5940.8 7063 5950.3 7059.9 5940.8 7051.8 5946.7 7041.8 5946.7 7038.7 5937.2 7048.7 5937.2 7045.6 5946.7 7055.6 5946.7 7065.6 5946.7 7075.6 5946.7 7067.6 5952.5 7064.5 5962 7074.5 5962 7066.4 5956.2 7063.3 5946.7 7071.4 5952.5 7074.5 5962 7082.6 5956.2 7079.5 5946.7 7082.6 5956.2 7090.6 5962 7082.6 5956.2" clip-path="url(#a)" fill="none" stroke="#000" stroke-linecap="round"/>
<polyline points="7082.6 5956.2 7079.5 5965.7 7089.5 5965.7 7086.4 5975.2 7094.5 5969.3 7091.4 5959.8 7083.3 5965.7 7091.4 5971.6 7101.4 5971.6 7104.5 5962 7114.5 5962 7117.6 5971.6 7125.6 5965.7 7115.6 5965.7 7118.7 5975.2 7115.6 5965.7 7118.7 5975.2 7110.6 5981.1 7113.7 5990.6 7105.6 5996.5 7108.7 6006 7118.7 6006 7128.7 6006 7131.8 6015.5 7128.7 6006 7136.8 6000.1 7144.9 6006 7148 6015.5 7144.9 6006 7154.9 6006 7164.9 6006 7154.9 6006 7164.9 6006 7168 5996.5 7164.9 5986.9 7161.8 5996.5 7153.7 5990.6 7145.6 5996.5 7153.7 6002.3 7156.8 6011.8 7166.8 6011.8 7158.7 6017.7 7166.8 6023.6" clip-path="url(#a)" fill="none" stroke="#000" stroke-linecap="round"/>
<polyline points="7166.8 6023.6 7163.7 6033.1 7160.6 6042.6 7170.6 6042.6 7162.6 6048.5 7154.5 6042.6 7146.4 6036.7 7143.3 6027.2 7151.4 6021.4 7154.5 6011.8 7151.4 6021.4 7143.3 6027.2 7151.4 6021.4 7159.5 6015.5 7169.5 6015.5 7172.6 6006 7175.6 5996.5 7167.6 5990.6 7170.6 6000.1 7167.6 5990.6 7159.5 5996.5 7149.5 5996.5 7146.4 5986.9 7156.4 5986.9 7153.3 5996.5 7163.3 5996.5 7173.3 5996.5 7183.3 5996.5 7175.2 6002.3 7172.1 6011.8 7182.1 6011.8 7174 6006 7170.9 5996.5 7179 6002.3 7182.1 6011.8 7190.2 6006 7187.1 5996.5 7190.2 6006 7198.3 6011.8 7190.2 6006 7187.1 6015.5 7197.1 6015.5 7194 6025" clip-path="url(#a)" fill="none" stroke="#000" stroke-linecap="round"/>
<polyline points="7194 6025 7202.1 6019.1 7199 6009.6 7190.9 6015.5 7199 6021.4 7209 6021.4 7212.1 6011.8 7222.1 6011.8 7225.2 6021.4 7233.3 6015.5 7223.3 6015.5 7226.4 6025 7223.3 6015.5 7226.4 6025 7218.3 6030.9 7221.4 6040.4 7213.3 6046.3 7216.4 6055.8 7226.4 6055.8 7236.4 6055.8 7239.5 6065.3 7236.4 6055.8 7244.5 6049.9 7252.6 6055.8 7255.6 6065.3 7252.6 6055.8 7262.6 6055.8 7272.6 6055.8 7262.6 6055.8 7272.6 6055.8 7275.6 6046.3 7272.6 6036.7 7269.5 6046.3 7261.4 6040.4 7253.3 6046.3 7261.4 6052.1 7264.5 6061.6 7274.5 6061.6 7266.4 6067.5 7274.5 6073.4 7271.4 6082.9 7268.3 6092.4 7278.3 6092.4" clip-path="url(#a)" fill="none" stroke="#000" stroke-linecap="round"/>
<polyline points="7278.3 6092.4 7270.2 6098.3 7262.1 6092.4 7254 6086.5 7250.9 6077 7259 6071.2 7262.1 6061.6 7259 6071.2 7250.9 6077 7259 6071.2 7267.1 6065.3 7277.1 6065.3 7280.2 6055.8 7283.3 6046.3 7275.2 6040.4 7278.3 6049.9 7275.2 6040.4 7267.1 6046.3 7257.1 6046.3 7254 6036.7 7264 6036.7 7260.9 6046.3 7270.9 6046.3 7280.9 6046.3 7290.9 6046.3 7282.8 6052.1 7279.7 6061.6 7289.7 6061.6 7281.7 6055.8 7278.6 6046.3 7286.7 6052.1 7289.7 6061.6 7297.8 6055.8 7294.7 6046.3 7297.8 6055.8 7305.9 6061.6 7297.8 6055.8 7294.7 6065.3 7304.7 6065.3 7301.7 6074.8 7309.7 6068.9 7306.7 6059.4 7298.6 6065.3" clip-path="url(#a)" fill="none" stroke="#000" stroke-linecap="round"/>
<polyline points="7298.6 6065.3 7306.7 6071.2 7316.7 6071.2 7319.7 6061.6 7329.7 6061.6 7332.8 6071.2 7340.9 6065.3 7330.9 6065.3 7334 6074.8 7330.9 6065.3 7334 6074.8 7325.9 6080.7 7329 6090.2 7320.9 6096.1 7324 6105.6 7334 6105.6 7344 6105.6 7347.1 6115.1 7344 6105.6 7352.1 6099.7 7360.2 6105.6 7363.3 6115.1 7360.2 6105.6 7370.2 6105.6 7380.2 6105.6 7370.2 6105.6 7380.2 6105.6 7383.3 6096.1 7380.2 6086.5 7377.1 6096.1 7369 6090.2 7360.9 6096.1 7369 6101.9 7372.1 6111.4 7382.1 6111.4 7374 6117.3 7382.1 6123.2 7379 6132.7 7375.9 6142.2 7385.9 6142.2 7377.8 6148.1 7369.7 6142.2 7361.7 6136.3" clip-path="url(#a)" fill="none" stroke="#000" stroke-linecap="round"/>
<polyline points="7361.7 6136.3 7358.6 6126.8 7366.7 6121 7369.7 6111.4 7366.7 6121 7358.6 6126.8 7366.7 6121 7374.7 6115.1 7384.7 6115.1 7387.8 6105.6 7390.9 6096.1 7382.8 6090.2 7385.9 6099.7 7382.8 6090.2 7374.7 6096.1 7364.7 6096.1 7361.7 6086.5 7371.7 6086.5 7368.6 6096.1 7378.6 6096.1 7388.6 6096.1 7398.6 6096.1 7390.5 6101.9 7387.4 6111.4 7397.4 6111.4 7389.3 6105.6 7386.2 6096.1 7394.3 6101.9 7397.4 6111.4 7405.5 6105.6 7402.4 6096.1 7405.5 6105.6 7413.6 6111.4 7405.5 6105.6 7402.4 6115.1 7412.4 6115.1 7409.3 6124.6 7417.4 6118.7 7414.3 6109.2 7406.2 6115.1 7414.3 6121 7424.3 6121 7427.4 6111.4" clip-path="url(#a)" fill="none" stroke="#000" stroke-linecap="round"/>
<polyline points="7427.4 6111.4 7437.4 6111.4 7440.5 6121 7448.6 6115.1 7438.6 6115.1 7441.7 6124.6 7438.6 6115.1 7441.7 6124.6 7433.6 6130.5 7436.7 6140 7428.6 6145.9 7431.7 6155.4 7441.7 6155.4 7451.7 6155.4 7454.7 6164.9 7451.7 6155.4 7459.7 6149.5 7467.8 6155.4 7470.9 6164.9 7467.8 6155.4 7477.8 6155.4 7487.8 6155.4 7477.8 6155.4 7487.8 6155.4 7490.9 6145.9 7487.8 6136.3 7484.7 6145.9 7476.7 6140 7468.6 6145.9 7476.7 6151.7 7479.7 6161.2 7489.7 6161.2 7481.7 6167.1 7489.7 6173 7486.7 6182.5 7483.6 6192 7493.6 6192 7485.5 6197.9 7477.4 6192 7469.3 6186.1 7466.2 6176.6 7474.3 6170.8 7477.4 6161.2" clip-path="url(#a)" fill="none" stroke="#000" stroke-linecap="round"/>
<polyline points="7477.4 6161.2 7474.3 6170.8 7466.2 6176.6 7474.3 6170.8 7482.4 6164.9 7492.4 6164.9 7495.5 6155.4 7498.6 6145.9 7490.5 6140 7493.6 6149.5 7490.5 6140 7482.4 6145.9 7472.4 6145.9 7469.3 6136.3 7479.3 6136.3 7476.2 6145.9 7486.2 6145.9 7496.2 6145.9 7506.2 6145.9 7498.1 6151.7 7495 6161.2 7505 6161.2 7496.9 6155.4 7493.8 6145.9 7501.9 6151.7 7505 6161.2 7513.1 6155.4 7510 6145.9 7513.1 6155.4 7521.2 6161.2 7513.1 6155.4 7510 6164.9 7520 6164.9 7516.9 6174.4 7525 6168.5 7521.9 6159 7513.8 6164.9 7521.9 6170.8 7531.9 6170.8 7535 6161.2 7545 6161.2 7548.1 6170.8 7556.2 6164.9" clip-path="url(#a)" fill="none" stroke="#000" stroke-linecap="round"/>
<polyline points="7556.2 6164.9 7546.2 6164.9 7549.3 6174.4 7546.2 6164.9 7549.3 6174.4 7541.2 6180.3 7544.3 6189.8 7536.2 6195.7 7539.3 6205.2 7549.3 6205.2 7559.3 6205.2 7562.4 6214.7 7559.3 6205.2 7567.4 6199.3 7575.5 6205.2 7578.6 6214.7 7575.5 6205.2 7585.5 6205.2 7595.5 6205.2 7585.5 6205.2 7595.5 6205.2 7598.6 6195.7 7595.5 6186.1 7592.4 6195.7 7584.3 6189.8 7576.2 6195.7 7584.3 6201.5 7587.4 6211 7597.4 6211 7589.3 6216.9 7597.4 6222.8 7594.3 6232.3 7591.2 6241.8 7601.2 6241.8 7593.1 6247.7 7585 6241.8 7576.9 6235.9 7573.8 6226.4 7581.9 6220.6 7585 6211 7581.9 6220.6 7573.8 6226.4 7581.9 6220.6" clip-path="url(#a)" fill="none" stroke="#000" stroke-linecap="round"/>
<polyline points="7581.9 6220.6 7590 6214.7 7600 6214.7 7603.1 6205.2 7606.2 6195.7 7598.1 6189.8 7601.2 6199.3 7598.1 6189.8 7590 6195.7 7580 6195.7 7576.9 6186.1 7586.9 6186.1 7583.8 6195.7 7593.8 6195.7 7603.8 6195.7 7613.8 6195.7 7605.8 6201.5 7602.7 6211 7612.7 6211 7604.6 6205.2 7601.5 6195.7 7609.6 6201.5 7612.7 6211 7620.8 6205.2 7617.7 6195.7 7620.8 6205.2 7628.8 6211 7620.8 6205.2 7617.7 6214.7 7627.7 6214.7 7624.6 6224.2 7632.7 6218.3 7629.6 6208.8 7621.5 6214.7 7629.6 6220.6 7639.6 6220.6 7642.7 6211 7652.7 6211 7655.8 6220.6 7663.8 6214.7 7653.8 6214.7 7656.9 6224.2 7653.8 6214.7" clip-path="url(#a)" fill="none" stroke="#000" stroke-linecap="round"/>
<polyline points="7653.8 6214.7 7656.9 6224.2 7648.8 6230.1 7651.9 6239.6 7643.8 6245.4 7646.9 6255 7656.9 6255 7666.9 6255 7670 6264.5 7666.9 6255 7675 6249.1 7683.1 6255 7686.2 6264.5 7683.1 6255 7693.1 6255 7703.1 6255 7693.1 6255 7703.1 6255 7706.2 6245.4 7703.1 6235.9 7700 6245.4 7691.9 6239.6 7683.8 6245.4 7691.9 6251.3 7695 6260.8 7705 6260.8 7696.9 6266.7 7705 6272.6 7701.9 6282.1 7698.8 6291.6 7708.8 6291.6 7700.8 6297.5 7692.7 6291.6 7684.6 6285.7 7681.5 6276.2 7689.6 6270.3 7692.7 6260.8 7689.6 6270.3 7681.5 6276.2 7689.6 6270.3 7697.7 6264.5 7707.7 6264.5 7710.8 6255" clip-path="url(#a)" fill="none" stroke="#000" stroke-linecap="round"/>
<polyline points="7710.8 6255 7713.8 6245.4 7705.8 6239.6 7708.8 6249.1 7705.8 6239.6 7697.7 6245.4 7687.7 6245.4 7684.6 6235.9 7694.6 6235.9 7691.5 6245.4 7701.5 6245.4 7711.5 6245.4 7721.5 6245.4 7713.4 6251.3 7710.3 6260.8 7720.3 6260.8 7712.2 6255 7709.1 6245.4 7717.2 6251.3 7720.3 6260.8 7728.4 6255 7725.3 6245.4 7728.4 6255 7736.5 6260.8 7728.4 6255 7725.3 6264.5 7735.3 6264.5 7732.2 6274 7740.3 6268.1 7737.2 6258.6 7729.1 6264.5 7737.2 6270.3 7747.2 6270.3 7750.3 6260.8 7760.3 6260.8 7763.4 6270.3 7771.5 6264.5 7761.5 6264.5 7764.6 6274 7761.5 6264.5 7764.6 6274 7756.5 6279.9 7759.6 6289.4" clip-path="url(#a)" fill="none" stroke="#000" stroke-linecap="round"/>
<polyline points="7759.6 6289.4 7751.5 6295.2 7754.6 6304.8 7764.6 6304.8 7774.6 6304.8 7777.7 6314.3 7774.6 6304.8 7782.7 6298.9 7790.8 6304.8 7793.8 6314.3 7790.8 6304.8 7800.8 6304.8 7810.8 6304.8 7800.8 6304.8 7810.8 6304.8 7813.8 6295.2 7810.8 6285.7 7807.7 6295.2 7799.6 6289.4 7791.5 6295.2 7799.6 6301.1 7802.7 6310.6 7812.7 6310.6 7804.6 6316.5 7812.7 6322.4 7809.6 6331.9 7806.5 6341.4 7816.5 6341.4 7808.4 6347.3 7800.3 6341.4 7792.2 6335.5 7789.1 6326 7797.2 6320.1 7800.3 6310.6 7797.2 6320.1 7789.1 6326 7797.2 6320.1 7805.3 6314.3 7815.3 6314.3 7818.4 6304.8 7821.5 6295.2 7813.4 6289.4 7816.5 6298.9" clip-path="url(#a)" fill="none" stroke="#000" stroke-linecap="round"/>
<polyline points="7816.5 6298.9 7813.4 6289.4 7805.3 6295.2 7795.3 6295.2 7792.2 6285.7 7802.2 6285.7 7799.1 6295.2 7809.1 6295.2 7819.1 6295.2 7829.1 6295.2 7821 6301.1 7817.9 6310.6 7827.9 6310.6 7819.9 6304.8 7816.8 6295.2 7824.9 6301.1 7827.9 6310.6 7836 6304.8 7832.9 6295.2 7836 6304.8 7844.1 6310.6 7836 6304.8 7832.9 6314.3 7842.9 6314.3 7839.9 6323.8 7847.9 6317.9 7844.9 6308.4 7836.8 6314.3 7844.9 6320.1 7854.9 6320.1 7857.9 6310.6 7867.9 6310.6 7871 6320.1 7879.1 6314.3 7869.1 6314.3 7872.2 6323.8 7869.1 6314.3 7872.2 6323.8 7864.1 6329.7 7867.2 6339.2 7859.1 6345 7862.2 6354.6 7872.2 6354.6" clip-path="url(#a)" fill="none" stroke="#000" stroke-linecap="round"/>
<polyline points="7872.2 6354.6 7882.2 6354.6 7885.3 6364.1 7882.2 6354.6 7890.3 6348.7 7898.4 6354.6 7901.5 6364.1 7898.4 6354.6 7908.4 6354.6 7918.4 6354.6 7908.4 6354.6 7918.4 6354.6 7921.5 6345 7918.4 6335.5 7915.3 6345 7907.2 6339.2 7899.1 6345 7907.2 6350.9 7910.3 6360.4 7920.3 6360.4 7912.2 6366.3 7920.3 6372.2 7917.2 6381.7 7914.1 6391.2 7924.1 6391.2 7916 6397.1 7907.9 6391.2 7899.9 6385.3 7896.8 6375.8 7904.9 6369.9 7907.9 6360.4 7904.9 6369.9 7896.8 6375.8 7904.9 6369.9 7912.9 6364.1 7922.9 6364.1 7926 6354.6 7929.1 6345 7921 6339.2 7924.1 6348.7 7921 6339.2 7912.9 6345 7902.9 6345" clip-path="url(#a)" fill="none" stroke="#000" stroke-linecap="round"/>
<polyline points="7902.9 6345 7899.9 6335.5 7909.9 6335.5 7906.8 6345 7916.8 6345 7926.8 6345 7936.8 6345 7928.7 6350.9 7925.6 6360.4 7935.6 6360.4 7927.5 6354.6 7924.4 6345 7932.5 6350.9 7935.6 6360.4 7943.7 6354.6 7940.6 6345 7943.7 6354.6 7951.8 6360.4 7943.7 6354.6 7940.6 6364.1 7950.6 6364.1 7947.5 6373.6 7955.6 6367.7 7952.5 6358.2 7944.4 6364.1 7952.5 6369.9 7962.5 6369.9 7965.6 6360.4 7975.6 6360.4 7978.7 6369.9 7986.8 6364.1 7976.8 6364.1 7979.9 6373.6 7976.8 6364.1 7979.9 6373.6 7971.8 6379.5 7974.9 6389 7966.8 6394.8 7969.9 6404.4 7979.9 6404.4 7989.9 6404.4 7992.9 6413.9 7989.9 6404.4" clip-path="url(#a)" fill="none" stroke="#000" stroke-linecap="round"/>
<polyline points="7989.9 6404.4 7997.9 6398.5 8006 6404.4 8009.1 6413.9 8006 6404.4 8016 6404.4 8026 6404.4 8016 6404.4 8026 6404.4 8029.1 6394.8 8026 6385.3 8022.9 6394.8 8014.9 6389 8006.8 6394.8 8014.9 6400.7 8017.9 6410.2 8027.9 6410.2 8019.9 6416.1 8027.9 6422 8024.9 6431.5 8021.8 6441 8031.8 6441 8023.7 6446.9 8015.6 6441 8007.5 6435.1 8004.4 6425.6 8012.5 6419.7 8015.6 6410.2 8012.5 6419.7 8004.4 6425.6 8012.5 6419.7 8020.6 6413.9 8030.6 6413.9 8033.7 6404.4 8036.8 6394.8 8028.7 6389 8031.8 6398.5 8028.7 6389 8020.6 6394.8 8010.6 6394.8 8007.5 6385.3 8017.5 6385.3 8014.4 6394.8" clip-path="url(#a)" fill="none" stroke="#000" stroke-linecap="round"/>
<polyline points="8014.4 6394.8 8024.4 6394.8 8034.4 6394.8 8044.4 6394.8 8036.3 6400.7 8033.2 6410.2 8043.2 6410.2 8035.1 6404.4 8032 6394.8 8040.1 6400.7 8043.2 6410.2 8051.3 6404.4 8048.2 6394.8 8051.3 6404.4 8059.4 6410.2 8051.3 6404.4 8048.2 6413.9 8058.2 6413.9 8055.1 6423.4 8063.2 6417.5 8060.1 6408 8052 6413.9 8060.1 6419.7 8070.1 6419.7 8073.2 6410.2 8083.2 6410.2 8086.3 6419.7 8094.4 6413.9 8084.4 6413.9 8087.5 6423.4 8084.4 6413.9 8087.5 6423.4 8079.4 6429.3 8082.5 6438.8 8074.4 6444.6 8077.5 6454.2 8087.5 6454.2 8097.5 6454.2 8100.6 6463.7 8097.5 6454.2 8105.6 6448.3 8113.7 6454.2 8116.8 6463.7" clip-path="url(#a)" fill="none" stroke="#000" stroke-linecap="round"/>
<polyline points="8116.8 6463.7 8113.7 6454.2 8123.7 6454.2 8133.7 6454.2 8123.7 6454.2 8133.7 6454.2 8136.8 6444.6 8133.7 6435.1 8130.6 6444.6 8122.5 6438.8 8114.4 6444.6 8122.5 6450.5 8125.6 6460 8135.6 6460 8127.5 6465.9 8135.6 6471.8 8132.5 6481.3 8129.4 6490.8 8139.4 6490.8 8131.3 6496.7 8123.2 6490.8 8115.1 6484.9 8112 6475.4 8120.1 6469.5 8123.2 6460 8120.1 6469.5 8112 6475.4 8120.1 6469.5 8128.2 6463.7 8138.2 6463.7 8141.3 6454.2 8144.4 6444.6 8136.3 6438.8 8139.4 6448.3 8136.3 6438.8 8128.2 6444.6 8118.2 6444.6 8115.1 6435.1 8125.1 6435.1 8122 6444.6 8132 6444.6 8142 6444.6 8152 6444.6" clip-path="url(#a)" fill="none" stroke="#000" stroke-linecap="round"/>
<polyline points="8152 6444.6 8144 6450.5 8140.9 6460 8150.9 6460 8142.8 6454.2 8139.7 6444.6 8147.8 6450.5 8150.9 6460 8159 6454.2 8155.9 6444.6 8159 6454.2 8167 6460 8159 6454.2 8155.9 6463.7 8165.9 6463.7 8162.8 6473.2 8170.9 6467.3 8167.8 6457.8 8159.7 6463.7 8167.8 6469.5 8177.8 6469.5 8180.9 6460 8190.9 6460 8194 6469.5 8202 6463.7 8192 6463.7 8195.1 6473.2 8192 6463.7 8195.1 6473.2 8187 6479.1 8190.1 6488.6 8182 6494.4 8185.1 6503.9 8195.1 6503.9 8205.1 6503.9 8208.2 6513.5 8205.1 6503.9 8213.2 6498.1 8221.3 6503.9 8224.4 6513.5 8221.3 6503.9 8231.3 6503.9 8241.3 6503.9" clip-path="url(#a)" fill="none" stroke="#000" stroke-linecap="round"/>
<polyline points="8241.3 6503.9 8231.3 6503.9 8241.3 6503.9 8244.4 6494.4 8241.3 6484.9 8238.2 6494.4 8230.1 6488.6 8222 6494.4 8230.1 6500.3 8233.2 6509.8 8243.2 6509.8 8235.1 6515.7 8243.2 6521.6 8240.1 6531.1 8237 6540.6 8247 6540.6 8239 6546.5 8230.9 6540.6 8222.8 6534.7 8219.7 6525.2 8227.8 6519.3 8230.9 6509.8 8227.8 6519.3 8219.7 6525.2 8227.8 6519.3 8235.9 6513.5 8245.9 6513.5 8249 6503.9 8252 6494.4 8244 6488.6 8247 6498.1 8244 6488.6 8235.9 6494.4 8225.9 6494.4 8222.8 6484.9 8232.8 6484.9 8229.7 6494.4 8239.7 6494.4 8249.7 6494.4 8259.7 6494.4 8251.6 6500.3 8248.5 6509.8 8258.5 6509.8" clip-path="url(#a)" fill="none" stroke="#000" stroke-linecap="round"/>
<polyline points="8258.5 6509.8 8250.4 6503.9 8247.3 6494.4 8255.4 6500.3 8258.5 6509.8 8266.6 6503.9 8263.5 6494.4 8266.6 6503.9 8274.7 6509.8 8266.6 6503.9 8263.5 6513.5 8273.5 6513.5 8270.4 6523 8278.5 6517.1 8275.4 6507.6 8267.3 6513.5 8275.4 6519.3 8285.4 6519.3 8288.5 6509.8 8298.5 6509.8 8301.6 6519.3 8309.7 6513.5 8299.7 6513.5 8302.8 6523 8299.7 6513.5 8302.8 6523 8294.7 6528.8 8297.8 6538.4 8289.7 6544.2 8292.8 6553.7 8302.8 6553.7 8312.8 6553.7 8315.9 6563.3 8312.8 6553.7 8320.9 6547.9 8329 6553.7 8332 6563.3 8329 6553.7 8339 6553.7 8349 6553.7 8339 6553.7 8349 6553.7 8352 6544.2" clip-path="url(#a)" fill="none" stroke="#000" stroke-linecap="round"/>
<polyline points="8352 6544.2 8349 6534.7 8345.9 6544.2 8337.8 6538.4 8329.7 6544.2 8337.8 6550.1 8340.9 6559.6 8350.9 6559.6 8342.8 6565.5 8350.9 6571.4 8347.8 6580.9 8344.7 6590.4 8354.7 6590.4 8346.6 6596.3 8338.5 6590.4 8330.4 6584.5 8327.3 6575 8335.4 6569.1 8338.5 6559.6 8335.4 6569.1 8327.3 6575 8335.4 6569.1 8343.5 6563.3 8353.5 6563.3 8356.6 6553.7 8359.7 6544.2 8351.6 6538.4 8354.7 6547.9 8351.6 6538.4 8343.5 6544.2 8333.5 6544.2 8330.4 6534.7 8340.4 6534.7 8337.3 6544.2 8347.3 6544.2 8357.3 6544.2 8367.3 6544.2 8359.2 6550.1 8356.1 6559.6 8366.1 6559.6 8358 6553.7 8355 6544.2 8363 6550.1" clip-path="url(#a)" fill="none" stroke="#000" stroke-linecap="round"/>
<polyline points="8363 6550.1 8366.1 6559.6 8374.2 6553.7 8371.1 6544.2 8374.2 6553.7 8382.3 6559.6 8374.2 6553.7 8371.1 6563.3 8381.1 6563.3 8378 6572.8 8386.1 6566.9 8383 6557.4 8375 6563.3 8383 6569.1 8393 6569.1 8396.1 6559.6 8406.1 6559.6 8409.2 6569.1 8417.3 6563.3 8407.3 6563.3 8410.4 6572.8 8407.3 6563.3 8410.4 6572.8 8402.3 6578.6 8405.4 6588.2 8397.3 6594 8400.4 6603.5 8410.4 6603.5 8420.4 6603.5 8423.5 6613.1 8420.4 6603.5 8428.5 6597.7 8436.6 6603.5 8439.7 6613.1 8436.6 6603.5 8446.6 6603.5 8456.6 6603.5 8446.6 6603.5 8456.6 6603.5 8459.7 6594 8456.6 6584.5 8453.5 6594 8445.4 6588.2" clip-path="url(#a)" fill="none" stroke="#000" stroke-linecap="round"/>
<polyline points="8445.4 6588.2 8437.3 6594 8445.4 6599.9 8448.5 6609.4 8458.5 6609.4 8450.4 6615.3 8458.5 6621.2 8455.4 6630.7 8452.3 6640.2 8462.3 6640.2 8454.2 6646.1 8446.1 6640.2 8438 6634.3 8435 6624.8 8443 6618.9 8446.1 6609.4 8443 6618.9 8435 6624.8 8443 6618.9 8451.1 6613.1 8461.1 6613.1 8464.2 6603.5 8467.3 6594 8459.2 6588.2 8462.3 6597.7 8459.2 6588.2 8451.1 6594 8441.1 6594 8438 6584.5 8448 6584.5 8445 6594 8455 6594 8465 6594 8475 6594 8466.9 6599.9 8463.8 6609.4 8473.8 6609.4 8465.7 6603.5 8462.6 6594 8470.7 6599.9 8473.8 6609.4 8481.9 6603.5 8478.8 6594" clip-path="url(#a)" fill="none" stroke="#000" stroke-linecap="round"/>
<polyline points="8478.8 6594 8481.9 6603.5 8490 6609.4 8481.9 6603.5 8478.8 6613.1 8488.8 6613.1 8485.7 6622.6 8493.8 6616.7 8490.7 6607.2 8482.6 6613.1 8490.7 6618.9 8500.7 6618.9 8503.8 6609.4 8513.8 6609.4 8516.9 6618.9 8525 6613.1 8515 6613.1 8518 6622.6 8515 6613.1 8518 6622.6 8510 6628.4 8513 6638 8505 6643.8 8508 6653.3 8518 6653.3 8528 6653.3 8531.1 6662.9 8528 6653.3 8536.1 6647.5 8544.2 6653.3 8547.3 6662.9 8544.2 6653.3 8554.2 6653.3 8564.2 6653.3 8554.2 6653.3 8564.2 6653.3 8567.3 6643.8 8564.2 6634.3 8561.1 6643.8 8553 6638 8545 6643.8 8553 6649.7 8556.1 6659.2" clip-path="url(#a)" fill="none" stroke="#000" stroke-linecap="round"/>
<polyline points="8556.1 6659.2 8566.1 6659.2 8558 6665.1 8566.1 6671 8563 6680.5 8560 6690 8570 6690 8561.9 6695.9 8553.8 6690 8545.7 6684.1 8542.6 6674.6 8550.7 6668.7 8553.8 6659.2 8550.7 6668.7 8542.6 6674.6 8550.7 6668.7 8558.8 6662.9 8568.8 6662.9 8571.9 6653.3 8575 6643.8 8566.9 6638 8570 6647.5 8566.9 6638 8558.8 6643.8 8548.8 6643.8 8545.7 6634.3 8555.7 6634.3 8552.6 6643.8 8562.6 6643.8 8572.6 6643.8 8582.6 6643.8 8574.5 6649.7 8571.4 6659.2 8581.4 6659.2 8573.3 6653.3 8570.2 6643.8 8578.3 6649.7 8581.4 6659.2 8589.5 6653.3 8586.4 6643.8 8589.5 6653.3 8597.6 6659.2 8589.5 6653.3" clip-path="url(#a)" fill="none" stroke="#000" stroke-linecap="round"/>
<polyline points="8589.5 6653.3 8586.4 6662.9 8596.4 6662.9 8593.3 6672.4 8601.4 6666.5 8598.3 6657 8590.2 6662.9 8598.3 6668.7 8608.3 6668.7 8611.4 6659.2 8621.4 6659.2 8624.5 6668.7 8632.6 6662.9 8622.6 6662.9 8625.7 6672.4 8622.6 6662.9 8625.7 6672.4 8617.6 6678.2 8620.7 6687.8 8612.6 6693.6 8615.7 6703.1 8625.7 6703.1 8635.7 6703.1 8638.8 6712.7 8635.7 6703.1 8643.8 6697.3 8651.9 6703.1 8655 6712.7 8651.9 6703.1 8661.9 6703.1 8671.9 6703.1 8661.9 6703.1 8671.9 6703.1 8675 6693.6 8671.9 6684.1 8668.8 6693.6 8660.7 6687.8 8652.6 6693.6 8660.7 6699.5 8663.8 6709 8673.8 6709 8665.7 6714.9 8673.8 6720.8" clip-path="url(#a)" fill="none" stroke="#000" stroke-linecap="round"/>
<polyline points="8673.8 6720.8 8670.7 6730.3 8667.6 6739.8 8677.6 6739.8 8669.5 6745.7 8661.4 6739.8 8653.3 6733.9 8650.2 6724.4 8658.3 6718.5 8661.4 6709 8658.3 6718.5 8650.2 6724.4 8658.3 6718.5 8666.4 6712.7 8676.4 6712.7 8679.5 6703.1 8682.6 6693.6 8674.5 6687.8 8677.6 6697.3 8674.5 6687.8 8666.4 6693.6 8656.4 6693.6 8653.3 6684.1 8663.3 6684.1 8660.2 6693.6 8670.2 6693.6 8680.2 6693.6 8690.2 6693.6 8682.1 6699.5 8679.1 6709 8689.1 6709 8681 6703.1 8677.9 6693.6 8686 6699.5 8689.1 6709 8697.1 6703.1 8694.1 6693.6 8697.1 6703.1 8705.2 6709 8697.1 6703.1 8694.1 6712.7 8704.1 6712.7 8701 6722.2" clip-path="url(#a)" fill="none" stroke="#000" stroke-linecap="round"/>
<polyline points="8701 6722.2 8709.1 6716.3 8706 6706.8 8697.9 6712.7 8706 6718.5 8716 6718.5 8719.1 6709 8729.1 6709 8732.1 6718.5 8740.2 6712.7 8730.2 6712.7 8733.3 6722.2 8730.2 6712.7 8733.3 6722.2 8725.2 6728 8728.3 6737.6 8720.2 6743.4 8723.3 6752.9 8733.3 6752.9 8743.3 6752.9 8746.4 6762.4 8743.3 6752.9 8751.4 6747.1 8759.5 6752.9 8762.6 6762.4 8759.5 6752.9 8769.5 6752.9 8779.5 6752.9 8769.5 6752.9 8779.5 6752.9 8782.6 6743.4 8779.5 6733.9 8776.4 6743.4 8768.3 6737.6 8760.2 6743.4 8768.3 6749.3 8771.4 6758.8 8781.4 6758.8 8773.3 6764.7 8781.4 6770.6 8778.3 6780.1 8775.2 6789.6 8785.2 6789.6" clip-path="url(#a)" fill="none" stroke="#000" stroke-linecap="round"/>
<polyline points="8785.2 6789.6 8777.1 6795.5 8769.1 6789.6 8761 6783.7 8757.9 6774.2 8766 6768.3 8769.1 6758.8 8766 6768.3 8757.9 6774.2 8766 6768.3 8774.1 6762.4 8784.1 6762.4 8787.1 6752.9 8790.2 6743.4 8782.1 6737.6 8785.2 6747.1 8782.1 6737.6 8774.1 6743.4 8764.1 6743.4 8761 6733.9 8771 6733.9 8767.9 6743.4 8777.9 6743.4 8787.9 6743.4 8797.9 6743.4 8789.8 6749.3 8786.7 6758.8 8796.7 6758.8 8788.6 6752.9 8785.5 6743.4 8793.6 6749.3 8796.7 6758.8 8804.8 6752.9 8801.7 6743.4 8804.8 6752.9 8812.9 6758.8 8804.8 6752.9 8801.7 6762.4 8811.7 6762.4 8808.6 6772 8816.7 6766.1 8813.6 6756.6 8805.5 6762.4" clip-path="url(#a)" fill="none" stroke="#000" stroke-linecap="round"/>
<polyline points="8805.5 6762.4 8813.6 6768.3 8823.6 6768.3 8826.7 6758.8 8836.7 6758.8 8839.8 6768.3 8847.9 6762.4 8837.9 6762.4 8841 6772 8837.9 6762.4 8841 6772 8832.9 6777.8 8836 6787.3 8827.9 6793.2 8831 6802.7 8841 6802.7 8851 6802.7 8854.1 6812.2 8851 6802.7 8859.1 6796.9 8867.1 6802.7 8870.2 6812.2 8867.1 6802.7 8877.1 6802.7 8887.1 6802.7 8877.1 6802.7 8887.1 6802.7 8890.2 6793.2 8887.1 6783.7 8884.1 6793.2 8876 6787.3 8867.9 6793.2 8876 6799.1 8879.1 6808.6 8889.1 6808.6 8881 6814.5 8889.1 6820.4 8886 6829.9 8882.9 6839.4 8892.9 6839.4 8884.8 6845.3 8876.7 6839.4 8868.6 6833.5" clip-path="url(#a)" fill="none" stroke="#000" stroke-linecap="round"/>
<polyline points="8868.6 6833.5 8865.5 6824 8873.6 6818.1 8876.7 6808.6 8873.6 6818.1 8865.5 6824 8873.6 6818.1 8881.7 6812.2 8891.7 6812.2 8894.8 6802.7 8897.9 6793.2 8889.8 6787.3 8892.9 6796.9 8889.8 6787.3 8881.7 6793.2 8871.7 6793.2 8868.6 6783.7 8878.6 6783.7 8875.5 6793.2 8885.5 6793.2 8895.5 6793.2 8905.5 6793.2 8897.4 6799.1 8894.3 6808.6 8904.3 6808.6 8896.2 6802.7 8893.2 6793.2 8901.2 6799.1 8904.3 6808.6 8912.4 6802.7 8909.3 6793.2 8912.4 6802.7 8920.5 6808.6 8912.4 6802.7 8909.3 6812.2 8919.3 6812.2 8916.2 6821.8 8924.3 6815.9 8921.2 6806.4 8913.2 6812.2 8921.2 6818.1 8931.2 6818.1 8934.3 6808.6" clip-path="url(#a)" fill="none" stroke="#000" stroke-linecap="round"/>
<polyline points="8934.3 6808.6 8944.3 6808.6 8947.4 6818.1 8955.5 6812.2 8945.5 6812.2 8948.6 6821.8 8945.5 6812.2 8948.6 6821.8 8940.5 6827.6 8943.6 6837.1 8935.5 6843 8938.6 6852.5 8948.6 6852.5 8958.6 6852.5 8961.7 6862 8958.6 6852.5 8966.7 6846.7 8974.8 6852.5 8977.9 6862 8974.8 6852.5 8984.8 6852.5 8994.8 6852.5 8984.8 6852.5 8994.8 6852.5 8997.9 6843 8994.8 6833.5 8991.7 6843 8983.6 6837.1 8975.5 6843 8983.6 6848.9 8986.7 6858.4 8996.7 6858.4 8988.6 6864.3 8996.7 6870.2 8993.6 6879.7 8990.5 6889.2 9000.5 6889.2 8992.4 6895.1 8984.3 6889.2 8976.2 6883.3 8973.2 6873.8 8981.2 6867.9 8984.3 6858.4" clip-path="url(#a)" fill="none" stroke="#000" stroke-linecap="round"/>
<polyline points="8984.3 6858.4 8981.2 6867.9 8973.2 6873.8 8981.2 6867.9 8989.3 6862 8999.3 6862 9002.4 6852.5 9005.5 6843 8997.4 6837.1 9000.5 6846.7 8997.4 6837.1 8989.3 6843 8979.3 6843 8976.2 6833.5 8986.2 6833.5 8983.2 6843 8993.2 6843 9003.2 6843 9013.2 6843 9005.1 6848.9 9002 6858.4 9012 6858.4 9003.9 6852.5 9000.8 6843 9008.9 6848.9 9012 6858.4 9020.1 6852.5 9017 6843 9020.1 6852.5 9028.2 6858.4 9020.1 6852.5 9017 6862 9027 6862 9023.9 6871.6 9032 6865.7 9028.9 6856.2 9020.8 6862 9028.9 6867.9 9038.9 6867.9 9042 6858.4 9052 6858.4 9055.1 6867.9 9063.2 6862" clip-path="url(#a)" fill="none" stroke="#000" stroke-linecap="round"/>
<polyline points="9063.2 6862 9053.2 6862 9056.2 6871.6 9053.2 6862 9056.2 6871.6 9048.2 6877.4 9051.2 6886.9 9043.2 6892.8 9046.2 6902.3 9056.2 6902.3 9066.2 6902.3 9069.3 6911.8 9066.2 6902.3 9074.3 6896.5 9082.4 6902.3 9085.5 6911.8 9082.4 6902.3 9092.4 6902.3 9102.4 6902.3 9092.4 6902.3 9102.4 6902.3 9105.5 6892.8 9102.4 6883.3 9099.3 6892.8 9091.2 6886.9 9083.2 6892.8 9091.2 6898.7 9094.3 6908.2 9104.3 6908.2 9096.2 6914.1 9104.3 6920 9101.2 6929.5 9098.2 6939 9108.2 6939 9100.1 6944.9 9092 6939 9083.9 6933.1 9080.8 6923.6 9088.9 6917.7 9092 6908.2 9088.9 6917.7 9080.8 6923.6 9088.9 6917.7" clip-path="url(#a)" fill="none" stroke="#000" stroke-linecap="round"/>
<polyline points="9088.9 6917.7 9097 6911.8 9107 6911.8 9110.1 6902.3 9113.2 6892.8 9105.1 6886.9 9108.2 6896.5 9105.1 6886.9 9097 6892.8 9087 6892.8 9083.9 6883.3 9093.9 6883.3 9090.8 6892.8 9100.8 6892.8 9110.8 6892.8 9120.8 6892.8 9112.7 6898.7 9109.6 6908.2 9119.6 6908.2 9111.5 6902.3 9108.4 6892.8 9116.5 6898.7 9119.6 6908.2 9127.7 6902.3 9124.6 6892.8 9127.7 6902.3 9135.8 6908.2 9127.7 6902.3 9124.6 6911.8 9134.6 6911.8 9131.5 6921.4 9139.6 6915.5 9136.5 6906 9128.4 6911.8 9136.5 6917.7 9146.5 6917.7 9149.6 6908.2 9159.6 6908.2 9162.7 6917.7 9170.8 6911.8 9160.8 6911.8 9163.9 6921.4 9160.8 6911.8" clip-path="url(#a)" fill="none" stroke="#000" stroke-linecap="round"/>
<polyline points="9160.8 6911.8 9163.9 6921.4 9155.8 6927.2 9158.9 6936.7 9150.8 6942.6 9153.9 6952.1 9163.9 6952.1 9173.9 6952.1 9177 6961.6 9173.9 6952.1 9182 6946.3 9190.1 6952.1 9193.2 6961.6 9190.1 6952.1 9200.1 6952.1 9210.1 6952.1 9200.1 6952.1 9210.1 6952.1 9213.2 6942.6 9210.1 6933.1 9207 6942.6 9198.9 6936.7 9190.8 6942.6 9198.9 6948.5 9202 6958 9212 6958 9203.9 6963.9 9212 6969.8 9208.9 6979.3 9205.8 6988.8 9215.8 6988.8 9207.7 6994.7 9199.6 6988.8 9191.5 6982.9 9188.4 6973.4 9196.5 6967.5 9199.6 6958 9196.5 6967.5 9188.4 6973.4 9196.5 6967.5 9204.6 6961.6 9214.6 6961.6 9217.7 6952.1" clip-path="url(#a)" fill="none" stroke="#000" stroke-linecap="round"/>
<polyline points="9217.7 6952.1 9220.8 6942.6 9212.7 6936.7 9215.8 6946.3 9212.7 6936.7 9204.6 6942.6 9194.6 6942.6 9191.5 6933.1 9201.5 6933.1 9198.4 6942.6 9208.4 6942.6 9218.4 6942.6 9228.4 6942.6 9220.3 6948.5 9217.3 6958 9227.3 6958 9219.2 6952.1 9216.1 6942.6 9224.2 6948.5 9227.3 6958 9235.3 6952.1 9232.3 6942.6 9235.3 6952.1 9243.4 6958 9235.3 6952.1 9232.3 6961.6 9242.3 6961.6 9239.2 6971.2 9247.3 6965.3 9244.2 6955.8 9236.1 6961.6 9244.2 6967.5 9254.2 6967.5 9257.3 6958 9267.3 6958 9270.3 6967.5 9278.4 6961.6 9268.4 6961.6 9271.5 6971.2 9268.4 6961.6 9271.5 6971.2 9263.4 6977 9266.5 6986.5" clip-path="url(#a)" fill="none" stroke="#000" stroke-linecap="round"/>
<polyline points="9266.5 6986.5 9258.4 6992.4 9261.5 7001.9 9271.5 7001.9 9281.5 7001.9 9284.6 7011.4 9281.5 7001.9 9289.6 6996.1 9297.7 7001.9 9300.8 7011.4 9297.7 7001.9 9307.7 7001.9 9317.7 7001.9 9307.7 7001.9 9317.7 7001.9 9320.8 6992.4 9317.7 6982.9 9314.6 6992.4 9306.5 6986.5 9298.4 6992.4 9306.5 6998.3 9309.6 7007.8 9319.6 7007.8 9311.5 7013.7 9319.6 7019.6 9316.5 7029.1 9313.4 7038.6 9323.4 7038.6 9315.3 7044.5 9307.3 7038.6 9299.2 7032.7 9296.1 7023.2 9304.2 7017.3 9307.3 7007.8 9304.2 7017.3 9296.1 7023.2 9304.2 7017.3 9312.3 7011.4 9322.3 7011.4 9325.3 7001.9 9328.4 6992.4 9320.3 6986.5 9323.4 6996.1" clip-path="url(#a)" fill="none" stroke="#000" stroke-linecap="round"/>
<polyline points="9323.4 6996.1 9320.3 6986.5 9312.3 6992.4 9302.3 6992.4 9299.2 6982.9 9309.2 6982.9 9306.1 6992.4" clip-path="url(#a)" fill="none" stroke="#000" stroke-linecap="round"/>
</svg>
