<?xml version="1.0" encoding="UTF-8"?>
<svg width="1e4px" height="1e4px" baseProfile="full" version="1.1" viewBox="4936.5 4852.8 277.29 265.64" xmlns="http://www.w3.org/2000/svg">
<defs>
<clipPath id="a">
<rect width="1e4" height="1e4"/>
</clipPath>
</defs>
<polyline points="5000.5 5000.5 5010.5 5000.5 5020.5 5000.5 5030.5 5000.5 5020.5 5000.5 5012.4 4994.6 5015.5 4985.1 5025.5 4985.1 5035.5 4985.1 5038.6 4975.6 5028.6 4975.6 5020.5 4969.7 5028.6 4975.6 5036.7 4969.7 5044.8 4963.8 5054.8 4963.8 5044.8 4963.8 5041.7 4954.3 5038.6 4944.8 5046.7 4938.9 5038.6 4933.1 5041.7 4923.6 5031.7 4923.6 5028.6 4933.1 5038.6 4933.1 5035.5 4923.6 5038.6 4933.1 5046.7 4927.2 5043.6 4917.7 5046.7 4908.2 5036.7 4908.2 5044.8 4914 5054.8 4914 5051.7 4904.5 5043.6 4898.7 5051.7 4892.8 5043.6 4886.9 5053.6 4886.9 5043.6 4886.9 5040.5 4896.4 5037.4 4886.9 5040.5 4877.4 5032.4 4883.3" clip-path="url(#a)" fill="none" stroke="#000" stroke-linecap="round"/>
<polyline points="5032.4 4883.3 5035.5 4873.8 5032.4 4864.2 5029.3 4854.7 5039.3 4854.7 5036.2 4864.2 5026.2 4864.2 5034.3 4870.1 5031.2 4860.6 5023.1 4866.5 5020 4876 5023.1 4885.5 5031.2 4879.6 5034.3 4889.1 5024.3 4889.1 5021.2 4898.7 5029.3 4892.8 5021.2 4898.7 5029.3 4892.8 5037.4 4886.9 5045.5 4892.8 5048.6 4902.3 5040.5 4908.2 5043.6 4917.7 5046.7 4927.2 5054.8 4921.3 5046.7 4927.2 5036.7 4927.2 5033.6 4936.7 5023.6 4936.7 5015.5 4942.6 5025.5 4942.6 5022.4 4933.1 5032.4 4933.1 5040.5 4927.2 5037.4 4917.7 5040.5 4927.2 5030.5 4927.2 5038.6 4933.1 5035.5 4942.6 5038.6 4933.1 5041.7 4923.6 5033.6 4917.7" clip-path="url(#a)" fill="none" stroke="#000" stroke-linecap="round"/>
<polyline points="5033.6 4917.7 5030.5 4908.2 5033.6 4898.7 5025.5 4904.5 5017.4 4910.4 5014.3 4919.9 5017.4 4929.4 5014.3 4938.9 5006.2 4933.1 5016.2 4933.1 5026.2 4933.1 5018.1 4927.2 5026.2 4921.3 5036.2 4921.3 5046.2 4921.3 5038.1 4915.4 5028.1 4915.4 5020 4909.6 5010 4909.6 5018.1 4903.7 5021.2 4894.2 5024.3 4903.7 5014.3 4903.7 5022.4 4897.8 5019.3 4907.3 5027.4 4901.4 5024.3 4910.9 5016.2 4905.1 5008.1 4899.2 5018.1 4899.2 5008.1 4899.2 5005 4889.7 5013.1 4895.6 5010 4905.1 5018.1 4910.9 5008.1 4910.9 5011.2 4920.5 5014.3 4910.9 5022.4 4916.8 5025.5 4907.3 5028.6 4897.8 5025.5 4907.3 5035.5 4907.3" clip-path="url(#a)" fill="none" stroke="#000" stroke-linecap="round"/>
<polyline points="5035.5 4907.3 5038.6 4916.8 5035.5 4926.3 5043.6 4932.2 5051.7 4926.3 5054.8 4916.8 5051.7 4926.3 5054.8 4916.8 5057.9 4926.3 5049.8 4932.2 5041.7 4926.3 5051.7 4926.3 5054.8 4916.8 5046.7 4910.9 5054.8 4905.1 5046.7 4910.9 5056.7 4910.9 5048.6 4905.1 5045.5 4895.6 5037.4 4889.7 5029.3 4883.8 5019.3 4883.8 5022.4 4874.3 5030.5 4868.4 5027.4 4877.9 5035.5 4872 5043.6 4866.2 5046.7 4875.7 5054.8 4881.6 5051.7 4891.1 5054.8 4881.6 5057.9 4891.1 5067.9 4891.1 5071 4900.6 5061 4900.6 5069 4906.5 5077.1 4900.6 5069 4906.5 5066 4916 5074 4910.1 5084 4910.1 5081 4919.6 5077.9 4929.1" clip-path="url(#a)" fill="none" stroke="#000" stroke-linecap="round"/>
<polyline points="5077.9 4929.1 5074.8 4938.6 5077.9 4929.1 5086 4923.2 5094 4929.1 5091 4938.6 5087.9 4948.1 5096 4954 5099 4944.5 5107.1 4938.6 5099 4944.5 5102.1 4954 5105.2 4963.5 5102.1 4973 5105.2 4963.5 5115.2 4963.5 5125.2 4963.5 5128.3 4973 5136.4 4967.2 5144.5 4973 5147.6 4963.5 5139.5 4957.6 5136.4 4967.2 5146.4 4967.2 5136.4 4967.2 5139.5 4976.7 5149.5 4976.7 5157.6 4982.5 5160.7 4973 5152.6 4978.9 5149.5 4988.4 5159.5 4988.4 5167.6 4982.5 5170.7 4992 5178.8 4986.2 5175.7 4995.7 5178.8 4986.2 5170.7 4980.3 5180.7 4980.3 5188.8 4986.2 5185.7 4976.7 5193.8 4982.5 5203.8 4982.5" clip-path="url(#a)" fill="none" stroke="#000" stroke-linecap="round"/>
<polyline points="5203.8 4982.5 5213.8 4982.5 5210.7 4992 5202.6 4986.2 5205.7 4976.7 5197.6 4982.5 5207.6 4982.5 5204.5 4973 5196.4 4967.2 5186.4 4967.2 5189.5 4976.7 5179.5 4976.7 5182.6 4967.2 5174.5 4961.3 5177.6 4970.8 5174.5 4961.3 5177.6 4970.8 5180.7 4980.3 5172.6 4986.2 5162.6 4986.2 5159.5 4976.7 5149.5 4976.7 5139.5 4976.7 5142.6 4986.2 5139.5 4976.7 5142.6 4967.2 5134.5 4961.3 5137.6 4951.8 5134.5 4942.3 5131.4 4951.8 5141.4 4951.8 5138.3 4961.3 5141.4 4970.8 5151.4 4970.8 5141.4 4970.8 5144.5 4961.3 5136.4 4967.2 5128.3 4961.3 5136.4 4967.2 5144.5 4973 5152.6 4967.2 5162.6 4967.2 5170.7 4973" clip-path="url(#a)" fill="none" stroke="#000" stroke-linecap="round"/>
<polyline points="5170.7 4973 5167.6 4963.5 5164.5 4954 5156.4 4948.1 5146.4 4948.1 5138.3 4942.3 5146.4 4936.4 5143.3 4945.9 5140.2 4955.4 5148.3 4949.5 5151.4 4959 5148.3 4968.5 5145.2 4978 5153.3 4972.2 5156.4 4962.7 5164.5 4956.8 5167.6 4947.3 5170.7 4956.8 5178.8 4962.7 5168.8 4962.7 5171.9 4953.1 5174.9 4962.7 5166.9 4956.8 5169.9 4966.3 5161.9 4960.4 5169.9 4954.5 5178 4948.7 5174.9 4958.2 5178 4948.7 5188 4948.7 5179.9 4954.5 5171.9 4948.7 5163.8 4954.5 5166.9 4945 5156.9 4945 5164.9 4950.9 5156.9 4956.8 5164.9 4962.7 5173 4968.5 5164.9 4962.7 5161.9 4972.2 5151.9 4972.2 5143.8 4966.3" clip-path="url(#a)" fill="none" stroke="#000" stroke-linecap="round"/>
<polyline points="5143.8 4966.3 5135.7 4972.2 5138.8 4981.7 5146.9 4987.6 5138.8 4981.7 5146.9 4987.6 5136.9 4987.6 5133.8 4978 5141.9 4972.2 5138.8 4981.7 5146.9 4987.6 5154.9 4981.7 5158 4991.2 5154.9 4981.7 5151.9 4991.2 5159.9 4985.3 5169.9 4985.3 5178 4979.4 5186.1 4973.6 5189.2 4964 5197.3 4969.9 5200.4 4979.4 5192.3 4973.6 5195.4 4983.1 5198.5 4992.6 5188.5 4992.6 5180.4 4998.5 5172.3 4992.6 5180.4 4998.5 5170.4 4998.5 5167.3 5008 5157.3 5008 5160.4 4998.5 5152.3 5004.3 5155.4 5013.8 5152.3 5004.3 5144.2 4998.5 5147.3 5008 5144.2 5017.5 5136.1 5011.6 5128 5005.7 5119.9 4999.8 5128 5005.7" clip-path="url(#a)" fill="none" stroke="#000" stroke-linecap="round"/>
<polyline points="5128 5005.7 5131.1 5015.2 5123 5021.1 5114.9 5015.2 5106.9 5009.4 5098.8 5015.2 5106.9 5021.1 5109.9 5030.6 5106.9 5021.1 5096.9 5021.1 5086.9 5021.1 5078.8 5015.2 5086.9 5021.1 5083.8 5030.6 5080.7 5040.1 5070.7 5040.1 5073.8 5049.6 5065.7 5055.5 5073.8 5061.4 5081.9 5055.5 5073.8 5049.6 5070.7 5059.2 5073.8 5049.6 5063.8 5049.6 5060.7 5059.2 5052.6 5065 5060.7 5070.9 5057.6 5061.4 5049.5 5055.5 5046.4 5065 5049.5 5074.5 5039.5 5074.5 5042.6 5084.1 5034.5 5078.2 5042.6 5084.1 5050.7 5078.2 5047.6 5087.7 5039.5 5093.6 5049.5 5093.6 5041.4 5099.4 5038.3 5109 5035.2 5118.5 5027.1 5112.6" clip-path="url(#a)" fill="none" stroke="#000" stroke-linecap="round"/>
<polyline points="5027.1 5112.6 5035.2 5106.7 5043.3 5112.6 5040.2 5103.1 5037.1 5112.6 5047.1 5112.6 5055.2 5106.7 5058.3 5097.2 5048.3 5097.2 5051.4 5087.7 5059.5 5093.6 5067.6 5087.7 5057.6 5087.7 5067.6 5087.7 5057.6 5087.7 5047.6 5087.7 5044.5 5078.2 5047.6 5068.7 5057.6 5068.7 5060.7 5059.2 5063.8 5049.6 5053.8 5049.6 5063.8 5049.6 5071.9 5055.5 5079.9 5049.6 5088 5055.5 5098 5055.5 5089.9 5049.6 5086.9 5059.2 5078.8 5053.3 5068.8 5053.3 5065.7 5062.8 5068.8 5053.3 5076.9 5059.2 5073.8 5049.6 5081.9 5043.8 5073.8 5049.6 5065.7 5055.5 5068.8 5065 5065.7 5074.5 5057.6 5080.4 5067.6 5080.4 5077.6 5080.4" clip-path="url(#a)" fill="none" stroke="#000" stroke-linecap="round"/>
<polyline points="5077.6 5080.4 5085.7 5074.5 5088.8 5065 5096.9 5059.2 5099.9 5068.7 5091.9 5062.8 5083.8 5056.9 5086.9 5066.4 5076.9 5066.4 5068.8 5060.5 5060.7 5054.7 5063.8 5064.2 5071.9 5070.1 5074.9 5079.6 5083 5085.4 5073 5085.4 5064.9 5091.3 5068 5081.8 5076.1 5087.7 5066.1 5087.7 5074.2 5081.8 5064.2 5081.8 5072.3 5075.9 5075.4 5085.4 5078.5 5095 5070.4 5089.1 5078.5 5095 5075.4 5104.5 5072.3 5095 5080.4 5089.1 5077.3 5079.6 5085.4 5085.4 5088.5 5075.9 5080.4 5081.8 5077.3 5072.3 5069.2 5078.2 5061.1 5084.1 5069.2 5078.2 5061.1 5072.3 5064.2 5062.8 5072.3 5056.9 5069.2 5047.4 5059.2 5047.4" clip-path="url(#a)" fill="none" stroke="#000" stroke-linecap="round"/>
<polyline points="5059.2 5047.4 5051.1 5053.3 5059.2 5047.4 5051.1 5053.3 5054.2 5043.8 5064.2 5043.8 5067.3 5053.3 5059.2 5047.4 5051.1 5053.3 5054.2 5062.8 5044.2 5062.8 5054.2 5062.8 5046.1 5056.9 5049.2 5066.4 5046.1 5075.9 5049.2 5085.4 5052.3 5095 5060.4 5100.8 5052.3 5106.7 5042.3 5106.7 5050.4 5100.8 5040.4 5100.8 5030.4 5100.8 5033.5 5091.3 5030.4 5081.8 5038.5 5075.9 5030.4 5081.8 5033.5 5072.3 5025.4 5066.4 5028.5 5056.9 5036.6 5062.8 5033.5 5053.3 5023.5 5053.3 5033.5 5053.3 5041.6 5047.4 5031.6 5047.4 5023.5 5041.5 5031.6 5035.6 5039.7 5029.8 5047.8 5023.9 5039.7 5029.8 5029.7 5029.8 5026.6 5020.3" clip-path="url(#a)" fill="none" stroke="#000" stroke-linecap="round"/>
<polyline points="5026.6 5020.3 5034.7 5014.4 5042.8 5008.5 5039.7 4999 5031.6 5004.9 5021.6 5004.9 5031.6 5004.9 5034.7 4995.4 5037.8 4985.8 5045.8 4980 5037.8 4985.8 5029.7 4980 5021.6 4974.1 5024.7 4964.6 5014.7 4964.6 5011.6 4955.1 5003.5 4960.9 5006.6 4970.5 5014.7 4964.6 5006.6 4958.7 5014.7 4964.6 5017.8 4955.1 5009.7 4949.2 5006.6 4939.7 4998.5 4945.6 5008.5 4945.6 5016.6 4939.7 5008.5 4933.8 4998.5 4933.8 5001.6 4924.3 4991.6 4924.3 4999.7 4918.4 4991.6 4924.3 4994.7 4933.8 4986.6 4927.9 4983.5 4918.4 4980.4 4927.9 4977.3 4918.4 4969.2 4912.5 4961.1 4906.7 4969.2 4900.8 4972.3 4910.3 4964.2 4916.2" clip-path="url(#a)" fill="none" stroke="#000" stroke-linecap="round"/>
<polyline points="4964.2 4916.2 4974.2 4916.2 4966.1 4910.3 4963 4919.8 4966.1 4929.3 4974.2 4935.2 4977.3 4925.7 4985.4 4931.6 4977.3 4937.4 4980.4 4946.9 4983.5 4937.4 4980.4 4946.9 4983.5 4937.4 4986.6 4927.9 4996.6 4927.9 5004.7 4933.8 5001.6 4943.3 5009.7 4949.2 5017.8 4955.1 5020.8 4945.6 5017.8 4955.1 5009.7 4960.9 5012.8 4970.5 5004.7 4976.3 5001.6 4985.8 5009.7 4980 5001.6 4974.1 5009.7 4968.2 5012.8 4958.7 5004.7 4952.8 5012.8 4958.7 5004.7 4964.6 5014.7 4964.6 5017.8 4974.1 5014.7 4964.6 5011.6 4955.1 5001.6 4955.1 4993.5 4949.2 4990.4 4939.7 4987.3 4949.2 4984.2 4958.7 4987.3 4968.2 4995.4 4974.1" clip-path="url(#a)" fill="none" stroke="#000" stroke-linecap="round"/>
<polyline points="4995.4 4974.1 4998.5 4983.6 4988.5 4983.6 4996.6 4977.7 5004.7 4971.8 4994.7 4971.8 4997.8 4962.3 5005.8 4956.5 5013.9 4950.6 5003.9 4950.6 4995.8 4956.5 4985.8 4956.5 4977.8 4962.3 4980.8 4952.8 4977.8 4943.3 4985.8 4949.2 4977.8 4955.1 4980.8 4945.6 4983.9 4955.1 4987 4945.6 4990.1 4955.1 4980.1 4955.1 4970.1 4955.1 4978.2 4949.2 4970.1 4955.1 4962 4949.2 4972 4949.2 4975.1 4958.7 4985.1 4958.7 4977 4964.6 4985.1 4970.5 4982 4960.9 4992 4960.9 4988.9 4951.4 4985.8 4941.9 4988.9 4951.4 4997 4945.6 5005.1 4951.4 5008.2 4960.9 5018.2 4960.9 5021.3 4951.4 5018.2 4941.9 5021.3 4951.4" clip-path="url(#a)" fill="none" stroke="#000" stroke-linecap="round"/>
<polyline points="5021.3 4951.4 5018.2 4941.9 5026.3 4947.8 5023.2 4957.3 5013.2 4957.3 5021.3 4951.4 5018.2 4941.9 5008.2 4941.9 5011.3 4932.4 5008.2 4941.9 5016.3 4936 5006.3 4936 4998.2 4930.2 4988.2 4930.2 4978.2 4930.2 4970.1 4936 4967 4926.5 4970.1 4917 4973.2 4926.5 4976.3 4917 4979.4 4907.5 4987.5 4913.4 4997.5 4913.4 5000.6 4922.9 4997.5 4913.4 5005.6 4919.3 5013.7 4913.4 5021.7 4919.3 5013.7 4925.1 5023.7 4925.1 5026.7 4915.6 5023.7 4925.1 5026.7 4934.7 5029.8 4925.1 5037.9 4919.3 5041 4928.8 5044.1 4938.3 5047.2 4947.8 5044.1 4938.3 5047.2 4928.8 5057.2 4928.8 5060.3 4938.3 5063.4 4947.8" clip-path="url(#a)" fill="none" stroke="#000" stroke-linecap="round"/>
<polyline points="5063.4 4947.8 5073.4 4947.8 5070.3 4938.3 5073.4 4928.8 5070.3 4938.3 5078.4 4944.2 5086.5 4950 5089.6 4959.6 5086.5 4950 5094.6 4944.2 5102.6 4938.3 5110.7 4944.2 5113.8 4934.7 5123.8 4934.7 5120.7 4925.1 5110.7 4925.1 5113.8 4934.7 5121.9 4928.8 5113.8 4934.7 5121.9 4940.5 5130 4934.7 5140 4934.7 5136.9 4925.1 5133.8 4934.7 5136.9 4944.2 5145 4938.3 5148.1 4928.8 5156.2 4934.7 5159.3 4925.1 5162.4 4934.7 5159.3 4925.1 5149.3 4925.1 5157.4 4919.3 5167.4 4919.3 5159.3 4913.4 5169.3 4913.4 5177.4 4907.5 5185.5 4901.6 5188.5 4911.1 5178.5 4911.1 5175.5 4901.6 5172.4 4911.1 5180.5 4905.3" clip-path="url(#a)" fill="none" stroke="#000" stroke-linecap="round"/>
<polyline points="5180.5 4905.3 5172.4 4899.4 5162.4 4899.4 5154.3 4905.3 5162.4 4911.1 5154.3 4917 5151.2 4907.5 5141.2 4907.5 5149.3 4913.4 5141.2 4907.5 5149.3 4913.4 5157.4 4919.3 5154.3 4928.8 5146.2 4934.7 5138.1 4928.8 5130 4934.7 5121.9 4940.5 5130 4946.4 5121.9 4940.5 5118.8 4931 5108.8 4931 5105.7 4921.5 5097.6 4915.6 5100.7 4925.1 5108.8 4919.3 5111.9 4928.8 5120 4934.7 5128.1 4928.8 5120 4934.7 5116.9 4925.1 5113.8 4934.7 5103.8 4934.7 5113.8 4934.7 5123.8 4934.7 5126.9 4925.1 5135 4919.3 5145 4919.3 5136.9 4913.4 5128.8 4907.5 5118.8 4907.5 5110.7 4913.4 5100.7 4913.4 5103.8 4903.9" clip-path="url(#a)" fill="none" stroke="#000" stroke-linecap="round"/>
<polyline points="5103.8 4903.9 5106.9 4913.4 5110 4922.9 5113.1 4913.4 5121.2 4919.3 5124.3 4928.8 5127.4 4938.3 5130.5 4928.8 5127.4 4919.3 5130.5 4909.8 5127.4 4900.2 5135.5 4906.1 5145.5 4906.1 5137.4 4912 5134.3 4902.5 5142.4 4908.4 5132.4 4908.4 5140.5 4914.2 5130.5 4914.2 5133.5 4904.7 5136.6 4895.2 5139.7 4904.7 5136.6 4895.2 5144.7 4889.4 5141.6 4898.9 5131.6 4898.9 5128.5 4908.4 5125.5 4898.9 5117.4 4904.7 5127.4 4904.7 5124.3 4914.2 5134.3 4914.2 5144.3 4914.2 5134.3 4914.2 5137.4 4923.8 5129.3 4929.6 5119.3 4929.6 5116.2 4939.1 5124.3 4945 5134.3 4945 5124.3 4945 5134.3 4945 5126.2 4950.9" clip-path="url(#a)" fill="none" stroke="#000" stroke-linecap="round"/>
<polyline points="5126.2 4950.9 5118.1 4945 5121.2 4935.5 5124.3 4945 5134.3 4945 5137.4 4935.5 5145.5 4941.4 5137.4 4935.5 5140.5 4945 5143.5 4935.5 5151.6 4929.6 5154.7 4920.1 5157.8 4910.6 5154.7 4901.1 5164.7 4901.1 5172.8 4907 5162.8 4907 5170.9 4912.9 5179 4918.7 5170.9 4924.6 5167.8 4934.1 5157.8 4934.1 5167.8 4934.1 5159.7 4940 5162.8 4949.5 5154.7 4955.4 5151.6 4945.9 5148.5 4955.4 5156.6 4961.3 5148.5 4955.4 5138.5 4955.4 5146.6 4961.3 5149.7 4970.8 5139.7 4970.8 5129.7 4970.8 5119.7 4970.8 5129.7 4970.8 5137.8 4976.7 5134.7 4986.2 5124.7 4986.2 5114.7 4986.2 5111.6 4995.7 5121.6 4995.7" clip-path="url(#a)" fill="none" stroke="#000" stroke-linecap="round"/>
<polyline points="5121.6 4995.7 5129.7 5001.6 5121.6 4995.7 5113.5 5001.6 5105.5 5007.4 5095.5 5007.4 5105.5 5007.4 5108.5 5016.9 5111.6 5026.5 5103.5 5032.3 5111.6 5038.2 5108.5 5047.7 5118.5 5047.7 5121.6 5038.2 5111.6 5038.2 5114.7 5047.7 5111.6 5038.2 5103.5 5044.1 5106.6 5053.6 5103.5 5063.1 5113.5 5063.1 5105.5 5057.2 5095.5 5057.2 5098.5 5066.7 5106.6 5072.6 5098.5 5078.5 5106.6 5084.4 5096.6 5084.4 5106.6 5084.4 5109.7 5074.9 5112.8 5084.4 5109.7 5093.9 5117.8 5088 5114.7 5097.5 5117.8 5107 5120.9 5116.5 5110.9 5116.5 5114 5107 5124 5107 5115.9 5101.2 5119 5110.7 5127.1 5104.8 5130.2 5095.3" clip-path="url(#a)" fill="none" stroke="#000" stroke-linecap="round"/>
<polyline points="5130.2 5095.3 5127.1 5085.8 5119 5091.6 5115.9 5082.1 5125.9 5082.1 5129 5072.6 5120.9 5078.5 5129 5072.6 5120.9 5078.5 5112.8 5084.4 5104.7 5078.5 5101.6 5069 5109.7 5063.1 5106.6 5053.6 5103.5 5044.1 5095.5 5050 5103.5 5044.1 5113.5 5044.1 5116.6 5034.6 5126.6 5034.6 5134.7 5028.7 5124.7 5028.7 5127.8 5038.2 5117.8 5038.2 5109.7 5044.1 5112.8 5053.6 5109.7 5044.1 5119.7 5044.1 5111.6 5038.2 5114.7 5028.7 5111.6 5038.2 5108.5 5047.7 5116.6 5053.6 5119.7 5063.1 5116.6 5072.6 5124.7 5066.7 5132.8 5060.9 5135.9 5051.4 5132.8 5041.8 5135.9 5032.3 5144 5038.2 5134 5038.2 5124 5038.2" clip-path="url(#a)" fill="none" stroke="#000" stroke-linecap="round"/>
<polyline points="5124 5038.2 5132.1 5044.1 5124 5050 5114 5050 5104 5050 5112.1 5055.8 5122.1 5055.8 5130.2 5061.7 5140.2 5061.7 5132.1 5067.6 5129 5077.1 5125.9 5067.6 5135.9 5067.6 5127.8 5073.5 5130.9 5064 5122.8 5069.8 5125.9 5060.3 5134 5066.2 5142.1 5072.1 5132.1 5072.1 5142.1 5072.1 5145.2 5081.6 5137.1 5075.7 5140.2 5066.2 5132.1 5060.3 5142.1 5060.3 5139 5050.8 5135.9 5060.3 5127.8 5054.5 5124.7 5064 5121.6 5073.5 5124.7 5064 5114.7 5064 5111.6 5054.5 5114.7 5045 5106.6 5039.1 5098.5 5045 5095.5 5054.5 5098.5 5045 5095.5 5054.5 5092.4 5045 5100.5 5039.1 5108.5 5045" clip-path="url(#a)" fill="none" stroke="#000" stroke-linecap="round"/>
<polyline points="5108.5 5045 5098.5 5045 5095.5 5054.5 5103.5 5060.3 5095.5 5066.2 5103.5 5060.3 5093.5 5060.3 5101.6 5066.2 5104.7 5075.7 5112.8 5081.6 5120.9 5087.5 5130.9 5087.5 5127.8 5097 5119.7 5102.9 5122.8 5093.4 5114.7 5099.2 5106.6 5105.1 5103.5 5095.6 5095.5 5089.7 5098.5 5080.2 5095.5 5089.7 5092.4 5080.2 5082.4 5080.2 5079.3 5070.7 5089.3 5070.7 5081.2 5064.8 5073.1 5070.7 5081.2 5064.8 5084.3 5055.3 5076.2 5061.2 5066.2 5061.2 5069.3 5051.7 5072.4 5042.2 5075.5 5032.7 5072.4 5042.2 5064.3 5048.1 5056.2 5042.2 5059.3 5032.7 5062.4 5023.2 5054.3 5017.3 5051.2 5026.8 5043.1 5032.7 5051.2 5026.8" clip-path="url(#a)" fill="none" stroke="#000" stroke-linecap="round"/>
<polyline points="5051.2 5026.8 5048.1 5017.3 5045 5007.8 5048.1 4998.3 5045 5007.8 5035 5007.8 5025 5007.8 5021.9 4998.3 5013.8 5004.1 5005.7 4998.3 5002.6 5007.8 5010.7 5013.6 5013.8 5004.1 5003.8 5004.1 5013.8 5004.1 5010.7 4994.6 5000.7 4994.6 4992.6 4988.7 4989.6 4998.3 4997.6 4992.4 5000.7 4982.9 4990.7 4982.9 4982.6 4988.7 4979.6 4979.2 4971.5 4985.1 4974.6 4975.6 4971.5 4985.1 4979.6 4991 4969.6 4991 4961.5 4985.1 4964.6 4994.6 4956.5 4988.7 4946.5 4988.7 4936.5 4988.7 4939.6 4979.2 4947.6 4985.1 4944.6 4994.6 4952.6 4988.7 4942.6 4988.7 4945.7 4998.3 4953.8 5004.1 4963.8 5004.1 4960.7 4994.6" clip-path="url(#a)" fill="none" stroke="#000" stroke-linecap="round"/>
<polyline points="4960.7 4994.6 4970.7 4994.6 4967.6 5004.1 4975.7 5010 4972.6 5000.5 4975.7 5010 4972.6 5000.5 4969.6 4991 4977.6 4985.1 4987.6 4985.1 4990.7 4994.6 5000.7 4994.6 5010.7 4994.6 5007.6 4985.1 5010.7 4994.6 5007.6 5004.1 5015.7 5010 5012.6 5019.5 5015.7 5029 5018.8 5019.5 5008.8 5019.5 5011.9 5010 5008.8 5000.5 4998.8 5000.5 5008.8 5000.5 5005.7 5010 5013.8 5004.1 5021.9 5010 5013.8 5004.1 5005.7 4998.3 4997.6 5004.1 4987.6 5004.1 4979.6 4998.3 4982.6 5007.8 4985.7 5017.3 4993.8 5023.2 5003.8 5023.2 5011.9 5029 5003.8 5034.9 5006.9 5025.4 5010 5015.9 5001.9 5021.8 4998.8 5012.3" clip-path="url(#a)" fill="none" stroke="#000" stroke-linecap="round"/>
<polyline points="4998.8 5012.3 5001.9 5002.7 5005 4993.2 4996.9 4999.1 4993.8 5008.6 4985.7 5014.5 4982.6 5024 4979.6 5014.5 4971.5 5008.6 4981.5 5008.6 4978.4 5018.1 4975.3 5008.6 4983.4 5014.5 4980.3 5005 4988.4 5010.9 4980.3 5016.7 4972.2 5022.6 4975.3 5013.1 4972.2 5022.6 4962.2 5022.6 4970.3 5016.7 4978.4 5022.6 4986.5 5016.7 4983.4 5026.3 4993.4 5026.3 4985.3 5020.4 4993.4 5014.5 4985.3 5008.6 4977.2 5002.7 4985.3 5008.6 4988.4 4999.1 4998.4 4999.1 5006.5 5005 5014.6 4999.1 5011.5 4989.6 5003.4 4983.7 5011.5 4989.6 5003.4 4983.7 5013.4 4983.7 5016.5 4993.2 5008.4 4999.1 5011.5 4989.6 5003.4 4983.7" clip-path="url(#a)" fill="none" stroke="#000" stroke-linecap="round"/>
<polyline points="5003.4 4983.7 4995.3 4989.6 4992.2 4980.1 4995.3 4989.6 4998.4 4980.1 4990.3 4986 4980.3 4986 4972.2 4991.8 4964.1 4997.7 4961 5007.2 4952.9 5001.4 4949.8 4991.8 4957.9 4997.7 4954.8 4988.2 4951.7 4978.7 4961.7 4978.7 4969.8 4972.8 4977.9 4978.7 4969.8 4972.8 4979.8 4972.8 4982.9 4963.3 4992.9 4963.3 4989.8 4972.8 4997.9 4966.9 4994.8 4957.4 4997.9 4966.9 5006 4972.8 5002.9 4963.3 5006 4953.8 5014.1 4959.7 5022.2 4965.6 5030.3 4971.4 5022.2 4965.6 5019.1 4956 5027.2 4950.2 5035.3 4956 5043.4 4961.9 5051.5 4956 5043.4 4950.2 5040.3 4940.7 5043.4 4950.2 5053.4 4950.2 5063.4 4950.2" clip-path="url(#a)" fill="none" stroke="#000" stroke-linecap="round"/>
<polyline points="5063.4 4950.2 5071.5 4956 5063.4 4950.2 5066.5 4940.7 5069.6 4931.2 5079.6 4931.2 5076.5 4921.6 5084.6 4915.8 5076.5 4909.9 5068.4 4915.8 5076.5 4921.6 5079.6 4912.1 5076.5 4921.6 5086.5 4921.6 5089.6 4912.1 5097.6 4906.3 5089.6 4900.4 5092.6 4909.9 5100.7 4915.8 5103.8 4906.3 5100.7 4896.7 5110.7 4896.7 5107.6 4887.2 5115.7 4893.1 5107.6 4887.2 5099.6 4893.1 5102.6 4883.6 5110.7 4877.7 5100.7 4877.7 5108.8 4871.8 5111.9 4862.3 5115 4852.8 5123.1 4858.7 5115 4864.6 5106.9 4858.7 5110 4868.2 5113.1 4858.7 5103.1 4858.7 5095 4864.6 5091.9 4874.1 5101.9 4874.1 5098.8 4883.6 5090.7 4877.7" clip-path="url(#a)" fill="none" stroke="#000" stroke-linecap="round"/>
<polyline points="5090.7 4877.7 5082.6 4883.6 5092.6 4883.6 5082.6 4883.6 5092.6 4883.6 5102.6 4883.6 5105.7 4893.1 5102.6 4902.6 5092.6 4902.6 5089.6 4912.1 5086.5 4921.6 5096.5 4921.6 5086.5 4921.6 5078.4 4915.8 5070.3 4921.6 5062.2 4915.8 5052.2 4915.8 5060.3 4921.6 5063.4 4912.1 5071.5 4918 5081.5 4918 5084.6 4908.5 5081.5 4918 5073.4 4912.1 5076.5 4921.6 5068.4 4927.5 5076.5 4921.6 5084.6 4915.8 5081.5 4906.3 5084.6 4896.7 5092.6 4890.9 5082.6 4890.9 5072.6 4890.9 5064.6 4896.7 5061.5 4906.3 5053.4 4912.1 5050.3 4902.6 5058.4 4908.5 5066.5 4914.4 5063.4 4904.9 5073.4 4904.9 5081.5 4910.7 5089.6 4916.6" clip-path="url(#a)" fill="none" stroke="#000" stroke-linecap="round"/>
<polyline points="5089.6 4916.6 5086.5 4907.1 5078.4 4901.2 5075.3 4891.7 5067.2 4885.8 5077.2 4885.8 5085.3 4880 5082.2 4889.5 5074.1 4883.6 5084.1 4883.6 5076 4889.5 5086 4889.5 5077.9 4895.4 5074.8 4885.8 5071.7 4876.3 5079.8 4882.2 5071.7 4876.3 5074.8 4866.8 5077.9 4876.3 5069.8 4882.2 5072.9 4891.7 5064.8 4885.8 5061.7 4895.4 5069.8 4889.5 5072.9 4899 5081 4893.1 5089.1 4887.2 5081 4893.1 5089.1 4899 5086 4908.5 5077.9 4914.4 5081 4923.9 5091 4923.9 5099.1 4918 5091 4923.9 5099.1 4918 5096 4927.5 5086 4927.5 5082.9 4918 5091 4923.9 5099.1 4918 5096 4908.5 5106 4908.5" clip-path="url(#a)" fill="none" stroke="#000" stroke-linecap="round"/>
<polyline points="5106 4908.5 5096 4908.5 5104.1 4914.4 5101 4904.9 5104.1 4895.4 5101 4885.8 5097.9 4876.3 5089.8 4870.5 5097.9 4864.6 5107.9 4864.6 5099.8 4870.5 5109.8 4870.5 5119.8 4870.5 5116.7 4880 5119.8 4889.5 5111.7 4895.4 5119.8 4889.5 5116.7 4899 5124.8 4904.9 5121.7 4914.4 5113.7 4908.5 5116.7 4918 5126.7 4918 5116.7 4918 5108.7 4923.9 5118.7 4923.9 5126.7 4929.8 5118.7 4935.6 5110.6 4941.5 5102.5 4947.4 5110.6 4941.5 5120.6 4941.5 5123.7 4951 5115.6 4956.9 5107.5 4962.8 5110.6 4972.3 5118.7 4966.4 5128.7 4966.4 5118.7 4966.4 5115.6 4975.9 5112.5 4985.4 5104.4 4991.3 5112.5 4985.4" clip-path="url(#a)" fill="none" stroke="#000" stroke-linecap="round"/>
<polyline points="5112.5 4985.4 5120.6 4991.3 5128.7 4997.2 5125.6 5006.7 5135.6 5006.7 5138.7 5016.2 5146.7 5010.3 5143.7 5000.8 5135.6 5006.7 5143.7 5012.6 5135.6 5006.7 5132.5 5016.2 5140.6 5022.1 5143.7 5031.6 5151.7 5025.7 5141.7 5025.7 5133.7 5031.6 5141.7 5037.5 5151.7 5037.5 5148.7 5047 5158.7 5047 5150.6 5052.9 5158.7 5047 5155.6 5037.5 5163.7 5043.4 5166.7 5052.9 5169.8 5043.4 5172.9 5052.9 5181 5058.7 5189.1 5064.6 5181 5070.5 5177.9 5061 5186 5055.1 5176 5055.1 5184.1 5061 5187.2 5051.5 5184.1 5042 5176 5036.1 5172.9 5045.6 5164.8 5039.7 5172.9 5033.8 5169.8 5024.3 5166.7 5033.8" clip-path="url(#a)" fill="none" stroke="#000" stroke-linecap="round"/>
<polyline points="5166.7 5033.8 5169.8 5024.3 5166.7 5033.8 5163.7 5043.4 5153.7 5043.4 5145.6 5037.5 5148.7 5028 5140.6 5022.1 5132.5 5016.2 5129.4 5025.7 5132.5 5016.2 5140.6 5010.3 5137.5 5000.8 5145.6 4994.9 5148.7 4985.4 5140.6 4991.3 5148.7 4997.2 5140.6 5003.1 5137.5 5012.6 5145.6 5018.5 5137.5 5012.6 5145.6 5006.7 5135.6 5006.7 5132.5 4997.2 5135.6 5006.7 5138.7 5016.2 5148.7 5016.2 5156.7 5022.1 5159.8 5031.6 5162.9 5022.1 5166 5012.6 5162.9 5003.1 5154.8 4997.2 5151.7 4987.7 5161.7 4987.7 5153.7 4993.6 5145.6 4999.4 5155.6 4999.4 5152.5 5009 5144.4 5014.8 5136.3 5020.7 5146.3 5020.7 5154.4 5014.8" clip-path="url(#a)" fill="none" stroke="#000" stroke-linecap="round"/>
<polyline points="5154.4 5014.8 5164.4 5014.8 5172.5 5009 5169.4 5018.5 5172.5 5028 5164.4 5022.1 5172.5 5016.2 5169.4 5025.7 5166.3 5016.2 5163.2 5025.7 5160.1 5016.2 5170.1 5016.2 5180.1 5016.2 5172 5022.1 5180.1 5016.2 5188.2 5022.1 5178.2 5022.1 5175.1 5012.6 5165.1 5012.6 5173.2 5006.7 5165.1 5000.8 5168.2 5010.3 5158.2 5010.3 5161.3 5019.8 5164.4 5029.4 5161.3 5019.8 5153.2 5025.7 5145.1 5019.8 5142 5010.3 5132 5010.3 5128.9 5019.8 5132 5029.4 5128.9 5019.8 5132 5029.4 5123.9 5023.5 5127 5014 5137 5014 5128.9 5019.8 5132 5029.4 5142 5029.4 5138.9 5038.9 5142 5029.4 5133.9 5035.2" clip-path="url(#a)" fill="none" stroke="#000" stroke-linecap="round"/>
<polyline points="5133.9 5035.2 5143.9 5035.2 5152 5041.1 5162 5041.1 5172 5041.1 5180.1 5035.2 5183.2 5044.7 5180.1 5054.3 5177 5044.7 5173.9 5054.3 5170.8 5063.8 5162.8 5057.9 5152.8 5057.9 5149.7 5048.4 5152.8 5057.9 5144.7 5052 5136.6 5057.9 5128.5 5052 5136.6 5046.1 5126.6 5046.1 5123.5 5055.6 5126.6 5046.1 5123.5 5036.6 5120.4 5046.1 5112.3 5052 5109.2 5042.5 5106.1 5033 5103 5023.5 5106.1 5033 5103 5042.5 5093 5042.5 5089.9 5033 5086.9 5023.5 5076.9 5023.5 5079.9 5033 5076.9 5042.5 5079.9 5033 5071.9 5027.1 5063.8 5021.2 5060.7 5011.7 5063.8 5021.2 5055.7 5027.1 5047.6 5033" clip-path="url(#a)" fill="none" stroke="#000" stroke-linecap="round"/>
<polyline points="5047.6 5033 5039.5 5027.1 5036.4 5036.6 5026.4 5036.6 5029.5 5046.1 5039.5 5046.1 5036.4 5036.6 5028.3 5042.5 5036.4 5036.6 5028.3 5030.7 5020.2 5036.6 5010.2 5036.6 5013.3 5046.1 5016.4 5036.6 5013.3 5027.1 5005.2 5033 5002.1 5042.5 4994 5036.6 4991 5046.1 4987.9 5036.6 4991 5046.1 5001 5046.1 4992.9 5052 4982.9 5052 4991 5057.9 4981 5057.9 4972.9 5063.8 4964.8 5069.6 4961.7 5060.1 4971.7 5060.1 4974.8 5069.6 4977.9 5060.1 4969.8 5066 4977.9 5071.9 4987.9 5071.9 4996 5066 4987.9 5060.1 4996 5054.3 4999 5063.8 5009 5063.8 5001 5057.9 5009 5063.8 5001 5057.9" clip-path="url(#a)" fill="none" stroke="#000" stroke-linecap="round"/>
<polyline points="5001 5057.9 4992.9 5052 4996 5042.5 5004 5036.6 5012.1 5042.5 5020.2 5036.6 5028.3 5030.7 5020.2 5024.9 5028.3 5030.7 5031.4 5040.3 5041.4 5040.3 5044.5 5049.8 5052.6 5055.6 5049.5 5046.1 5041.4 5052 5038.3 5042.5 5030.2 5036.6 5022.1 5042.5 5030.2 5036.6 5033.3 5046.1 5036.4 5036.6 5046.4 5036.6 5036.4 5036.6 5026.4 5036.6 5023.3 5046.1 5015.2 5052 5005.2 5052 5013.3 5057.9 5021.4 5063.8 5031.4 5063.8 5039.5 5057.9 5049.5 5057.9 5046.4 5067.4 5043.3 5057.9 5040.2 5048.4 5037.1 5057.9 5029 5052 5026 5042.5 5022.9 5033 5019.8 5042.5 5022.9 5052 5019.8 5061.5 5022.9 5071" clip-path="url(#a)" fill="none" stroke="#000" stroke-linecap="round"/>
<polyline points="5022.9 5071 5014.8 5065.2 5004.8 5065.2 5012.9 5059.3 5016 5068.8 5007.9 5062.9 5017.9 5062.9 5009.8 5057 5019.8 5057 5016.7 5066.5 5013.6 5076.1 5010.5 5066.5 5013.6 5076.1 5005.5 5081.9 5008.6 5072.4 5018.6 5072.4 5021.7 5062.9 5024.8 5072.4 5032.9 5066.5 5022.9 5066.5 5026 5057 5016 5057 5006 5057 5016 5057 5012.9 5047.5 5021 5041.6 5031 5041.6 5034 5032.1 5026 5026.3 5016 5026.3 5026 5026.3 5016 5026.3 5024 5020.4 5032.1 5026.3 5029 5035.8 5026 5026.3 5016 5026.3 5012.9 5035.8 5004.8 5029.9 5012.9 5035.8 5009.8 5026.3 5006.7 5035.8 4998.6 5041.6" clip-path="url(#a)" fill="none" stroke="#000" stroke-linecap="round"/>
<polyline points="4998.6 5041.6 4995.5 5051.2 4992.4 5060.7 4995.5 5070.2 4985.5 5070.2 4977.4 5064.3 4987.4 5064.3 4979.3 5058.4 4971.2 5052.5 4979.3 5046.7 4982.4 5037.2 4992.4 5037.2 4982.4 5037.2 4990.5 5031.3 4987.4 5021.8 4995.5 5015.9 4998.6 5025.4 5001.7 5015.9 4993.6 5010 5001.7 5015.9 5011.7 5015.9 5003.6 5010 5000.5 5000.5 5010.5 5000.5 5020.5 5000.5 5030.5 5000.5 5020.5 5000.5 5012.4 4994.6 5015.5 4985.1 5025.5 4985.1 5035.5 4985.1 5038.6 4975.6 5028.6 4975.6 5020.5 4969.7 5028.6 4975.6 5036.7 4969.7 5044.8 4963.8 5054.8 4963.8 5044.8 4963.8 5041.7 4954.3 5038.6 4944.8 5046.7 4938.9 5038.6 4933.1" clip-path="url(#a)" fill="none" stroke="#000" stroke-linecap="round"/>
<polyline points="5038.6 4933.1 5041.7 4923.6 5031.7 4923.6 5028.6 4933.1 5038.6 4933.1 5035.5 4923.6 5038.6 4933.1 5046.7 4927.2 5043.6 4917.7 5046.7 4908.2 5036.7 4908.2 5044.8 4914 5054.8 4914 5051.7 4904.5 5043.6 4898.7 5051.7 4892.8 5043.6 4886.9 5053.6 4886.9 5043.6 4886.9 5040.5 4896.4 5037.4 4886.9 5040.5 4877.4 5032.4 4883.3 5035.5 4873.8 5032.4 4864.2 5029.3 4854.7 5039.3 4854.7 5036.2 4864.2 5026.2 4864.2 5034.3 4870.1 5031.2 4860.6 5023.1 4866.5 5020 4876 5023.1 4885.5 5031.2 4879.6 5034.3 4889.1 5024.3 4889.1 5021.2 4898.7 5029.3 4892.8 5021.2 4898.7 5029.3 4892.8 5037.4 4886.9 5045.5 4892.8" clip-path="url(#a)" fill="none" stroke="#000" stroke-linecap="round"/>
<polyline points="5045.5 4892.8 5048.6 4902.3 5040.5 4908.2 5043.6 4917.7 5046.7 4927.2 5054.8 4921.3 5046.7 4927.2 5036.7 4927.2 5033.6 4936.7 5023.6 4936.7 5015.5 4942.6 5025.5 4942.6 5022.4 4933.1 5032.4 4933.1 5040.5 4927.2 5037.4 4917.7 5040.5 4927.2 5030.5 4927.2 5038.6 4933.1 5035.5 4942.6 5038.6 4933.1 5041.7 4923.6 5033.6 4917.7 5030.5 4908.2 5033.6 4898.7 5025.5 4904.5 5017.4 4910.4 5014.3 4919.9 5017.4 4929.4 5014.3 4938.9 5006.2 4933.1 5016.2 4933.1 5026.2 4933.1 5018.1 4927.2 5026.2 4921.3 5036.2 4921.3 5046.2 4921.3 5038.1 4915.4 5028.1 4915.4 5020 4909.6 5010 4909.6 5018.1 4903.7 5021.2 4894.2" clip-path="url(#a)" fill="none" stroke="#000" stroke-linecap="round"/>
<polyline points="5021.2 4894.2 5024.3 4903.7 5014.3 4903.7 5022.4 4897.8 5019.3 4907.3 5027.4 4901.4 5024.3 4910.9 5016.2 4905.1 5008.1 4899.2 5018.1 4899.2 5008.1 4899.2 5005 4889.7 5013.1 4895.6 5010 4905.1 5018.1 4910.9 5008.1 4910.9 5011.2 4920.5 5014.3 4910.9 5022.4 4916.8 5025.5 4907.3 5028.6 4897.8 5025.5 4907.3 5035.5 4907.3 5038.6 4916.8 5035.5 4926.3 5043.6 4932.2 5051.7 4926.3 5054.8 4916.8 5051.7 4926.3 5054.8 4916.8 5057.9 4926.3 5049.8 4932.2 5041.7 4926.3 5051.7 4926.3 5054.8 4916.8 5046.7 4910.9 5054.8 4905.1 5046.7 4910.9 5056.7 4910.9 5048.6 4905.1 5045.5 4895.6 5037.4 4889.7 5029.3 4883.8" clip-path="url(#a)" fill="none" stroke="#000" stroke-linecap="round"/>
<polyline points="5029.3 4883.8 5019.3 4883.8 5022.4 4874.3 5030.5 4868.4 5027.4 4877.9 5035.5 4872 5043.6 4866.2 5046.7 4875.7 5054.8 4881.6 5051.7 4891.1 5054.8 4881.6 5057.9 4891.1 5067.9 4891.1 5071 4900.6 5061 4900.6 5069 4906.5 5077.1 4900.6 5069 4906.5 5066 4916 5074 4910.1 5084 4910.1 5081 4919.6 5077.9 4929.1 5074.8 4938.6 5077.9 4929.1 5086 4923.2 5094 4929.1 5091 4938.6 5087.9 4948.1 5096 4954 5099 4944.5 5107.1 4938.6 5099 4944.5 5102.1 4954 5105.2 4963.5 5102.1 4973 5105.2 4963.5 5115.2 4963.5 5125.2 4963.5 5128.3 4973 5136.4 4967.2 5144.5 4973 5147.6 4963.5" clip-path="url(#a)" fill="none" stroke="#000" stroke-linecap="round"/>
<polyline points="5147.6 4963.5 5139.5 4957.6 5136.4 4967.2 5146.4 4967.2 5136.4 4967.2 5139.5 4976.7 5149.5 4976.7 5157.6 4982.5 5160.7 4973 5152.6 4978.9 5149.5 4988.4 5159.5 4988.4 5167.6 4982.5 5170.7 4992 5178.8 4986.2 5175.7 4995.7 5178.8 4986.2 5170.7 4980.3 5180.7 4980.3 5188.8 4986.2 5185.7 4976.7 5193.8 4982.5 5203.8 4982.5 5213.8 4982.5 5210.7 4992 5202.6 4986.2 5205.7 4976.7 5197.6 4982.5 5207.6 4982.5 5204.5 4973 5196.4 4967.2 5186.4 4967.2 5189.5 4976.7 5179.5 4976.7 5182.6 4967.2 5174.5 4961.3 5177.6 4970.8 5174.5 4961.3 5177.6 4970.8 5180.7 4980.3 5172.6 4986.2 5162.6 4986.2 5159.5 4976.7" clip-path="url(#a)" fill="none" stroke="#000" stroke-linecap="round"/>
<polyline points="5159.5 4976.7 5149.5 4976.7 5139.5 4976.7 5142.6 4986.2 5139.5 4976.7 5142.6 4967.2 5134.5 4961.3 5137.6 4951.8 5134.5 4942.3 5131.4 4951.8 5141.4 4951.8 5138.3 4961.3 5141.4 4970.8 5151.4 4970.8 5141.4 4970.8 5144.5 4961.3 5136.4 4967.2 5128.3 4961.3 5136.4 4967.2 5144.5 4973 5152.6 4967.2 5162.6 4967.2 5170.7 4973 5167.6 4963.5 5164.5 4954 5156.4 4948.1 5146.4 4948.1 5138.3 4942.3 5146.4 4936.4 5143.3 4945.9 5140.2 4955.4 5148.3 4949.5 5151.4 4959 5148.3 4968.5 5145.2 4978 5153.3 4972.2 5156.4 4962.7 5164.5 4956.8 5167.6 4947.3 5170.7 4956.8 5178.8 4962.7 5168.8 4962.7 5171.9 4953.1" clip-path="url(#a)" fill="none" stroke="#000" stroke-linecap="round"/>
<polyline points="5171.9 4953.1 5174.9 4962.7 5166.9 4956.8 5169.9 4966.3 5161.9 4960.4 5169.9 4954.5 5178 4948.7 5174.9 4958.2 5178 4948.7 5188 4948.7 5179.9 4954.5 5171.9 4948.7 5163.8 4954.5 5166.9 4945 5156.9 4945 5164.9 4950.9 5156.9 4956.8 5164.9 4962.7 5173 4968.5 5164.9 4962.7 5161.9 4972.2 5151.9 4972.2 5143.8 4966.3 5135.7 4972.2 5138.8 4981.7 5146.9 4987.6 5138.8 4981.7 5146.9 4987.6 5136.9 4987.6 5133.8 4978 5141.9 4972.2 5138.8 4981.7 5146.9 4987.6 5154.9 4981.7 5158 4991.2 5154.9 4981.7 5151.9 4991.2 5159.9 4985.3 5169.9 4985.3 5178 4979.4 5186.1 4973.6 5189.2 4964 5197.3 4969.9" clip-path="url(#a)" fill="none" stroke="#000" stroke-linecap="round"/>
<polyline points="5197.3 4969.9 5200.4 4979.4 5192.3 4973.6 5195.4 4983.1 5198.5 4992.6 5188.5 4992.6 5180.4 4998.5 5172.3 4992.6 5180.4 4998.5 5170.4 4998.5 5167.3 5008 5157.3 5008 5160.4 4998.5 5152.3 5004.3 5155.4 5013.8 5152.3 5004.3 5144.2 4998.5 5147.3 5008 5144.2 5017.5 5136.1 5011.6 5128 5005.7 5119.9 4999.8 5128 5005.7 5131.1 5015.2 5123 5021.1 5114.9 5015.2 5106.9 5009.4 5098.8 5015.2 5106.9 5021.1 5109.9 5030.6 5106.9 5021.1 5096.9 5021.1 5086.9 5021.1 5078.8 5015.2 5086.9 5021.1 5083.8 5030.6 5080.7 5040.1 5070.7 5040.1 5073.8 5049.6 5065.7 5055.5 5073.8 5061.4 5081.9 5055.5 5073.8 5049.6" clip-path="url(#a)" fill="none" stroke="#000" stroke-linecap="round"/>
<polyline points="5073.8 5049.6 5070.7 5059.2 5073.8 5049.6 5063.8 5049.6 5060.7 5059.2 5052.6 5065 5060.7 5070.9 5057.6 5061.4 5049.5 5055.5 5046.4 5065 5049.5 5074.5 5039.5 5074.5 5042.6 5084.1 5034.5 5078.2 5042.6 5084.1 5050.7 5078.2 5047.6 5087.7 5039.5 5093.6 5049.5 5093.6 5041.4 5099.4 5038.3 5109 5035.2 5118.5 5027.1 5112.6 5035.2 5106.7 5043.3 5112.6 5040.2 5103.1 5037.1 5112.6 5047.1 5112.6 5055.2 5106.7 5058.3 5097.2 5048.3 5097.2 5051.4 5087.7 5059.5 5093.6 5067.6 5087.7 5057.6 5087.7 5067.6 5087.7 5057.6 5087.7 5047.6 5087.7 5044.5 5078.2 5047.6 5068.7 5057.6 5068.7 5060.7 5059.2 5063.8 5049.6" clip-path="url(#a)" fill="none" stroke="#000" stroke-linecap="round"/>
<polyline points="5063.8 5049.6 5053.8 5049.6 5063.8 5049.6 5071.9 5055.5 5079.9 5049.6 5088 5055.5 5098 5055.5 5089.9 5049.6 5086.9 5059.2 5078.8 5053.3 5068.8 5053.3 5065.7 5062.8 5068.8 5053.3 5076.9 5059.2 5073.8 5049.6 5081.9 5043.8 5073.8 5049.6 5065.7 5055.5 5068.8 5065 5065.7 5074.5 5057.6 5080.4 5067.6 5080.4 5077.6 5080.4 5085.7 5074.5 5088.8 5065 5096.9 5059.2 5099.9 5068.7 5091.9 5062.8 5083.8 5056.9 5086.9 5066.4 5076.9 5066.4 5068.8 5060.5 5060.7 5054.7 5063.8 5064.2 5071.9 5070.1 5074.9 5079.6 5083 5085.4 5073 5085.4 5064.9 5091.3 5068 5081.8 5076.1 5087.7 5066.1 5087.7 5074.2 5081.8" clip-path="url(#a)" fill="none" stroke="#000" stroke-linecap="round"/>
<polyline points="5074.2 5081.8 5064.2 5081.8 5072.3 5075.9 5075.4 5085.4 5078.5 5095 5070.4 5089.1 5078.5 5095 5075.4 5104.5 5072.3 5095 5080.4 5089.1 5077.3 5079.6 5085.4 5085.4 5088.5 5075.9 5080.4 5081.8 5077.3 5072.3 5069.2 5078.2 5061.1 5084.1 5069.2 5078.2 5061.1 5072.3 5064.2 5062.8 5072.3 5056.9 5069.2 5047.4 5059.2 5047.4 5051.1 5053.3 5059.2 5047.4 5051.1 5053.3 5054.2 5043.8 5064.2 5043.8 5067.3 5053.3 5059.2 5047.4 5051.1 5053.3 5054.2 5062.8 5044.2 5062.8 5054.2 5062.8 5046.1 5056.9 5049.2 5066.4 5046.1 5075.9 5049.2 5085.4 5052.3 5095 5060.4 5100.8 5052.3 5106.7 5042.3 5106.7 5050.4 5100.8" clip-path="url(#a)" fill="none" stroke="#000" stroke-linecap="round"/>
<polyline points="5050.4 5100.8 5040.4 5100.8 5030.4 5100.8 5033.5 5091.3 5030.4 5081.8 5038.5 5075.9 5030.4 5081.8 5033.5 5072.3 5025.4 5066.4 5028.5 5056.9 5036.6 5062.8 5033.5 5053.3 5023.5 5053.3 5033.5 5053.3 5041.6 5047.4 5031.6 5047.4 5023.5 5041.5 5031.6 5035.6 5039.7 5029.8 5047.8 5023.9 5039.7 5029.8 5029.7 5029.8 5026.6 5020.3 5034.7 5014.4 5042.8 5008.5 5039.7 4999 5031.6 5004.9 5021.6 5004.9 5031.6 5004.9 5034.7 4995.4 5037.8 4985.8 5045.8 4980 5037.8 4985.8 5029.7 4980 5021.6 4974.1 5024.7 4964.6 5014.7 4964.6 5011.6 4955.1 5003.5 4960.9 5006.6 4970.5 5014.7 4964.6 5006.6 4958.7 5014.7 4964.6" clip-path="url(#a)" fill="none" stroke="#000" stroke-linecap="round"/>
<polyline points="5014.7 4964.6 5017.8 4955.1 5009.7 4949.2 5006.6 4939.7 4998.5 4945.6 5008.5 4945.6 5016.6 4939.7 5008.5 4933.8 4998.5 4933.8 5001.6 4924.3 4991.6 4924.3 4999.7 4918.4 4991.6 4924.3 4994.7 4933.8 4986.6 4927.9 4983.5 4918.4 4980.4 4927.9 4977.3 4918.4 4969.2 4912.5 4961.1 4906.7 4969.2 4900.8 4972.3 4910.3 4964.2 4916.2 4974.2 4916.2 4966.1 4910.3 4963 4919.8 4966.1 4929.3 4974.2 4935.2 4977.3 4925.7 4985.4 4931.6 4977.3 4937.4 4980.4 4946.9 4983.5 4937.4 4980.4 4946.9 4983.5 4937.4 4986.6 4927.9 4996.6 4927.9 5004.7 4933.8 5001.6 4943.3 5009.7 4949.2 5017.8 4955.1 5020.8 4945.6 5017.8 4955.1" clip-path="url(#a)" fill="none" stroke="#000" stroke-linecap="round"/>
<polyline points="5017.8 4955.1 5009.7 4960.9 5012.8 4970.5 5004.7 4976.3 5001.6 4985.8 5009.7 4980 5001.6 4974.1 5009.7 4968.2 5012.8 4958.7 5004.7 4952.8 5012.8 4958.7 5004.7 4964.6 5014.7 4964.6 5017.8 4974.1 5014.7 4964.6 5011.6 4955.1 5001.6 4955.1 4993.5 4949.2 4990.4 4939.7 4987.3 4949.2 4984.2 4958.7 4987.3 4968.2 4995.4 4974.1 4998.5 4983.6 4988.5 4983.6 4996.6 4977.7 5004.7 4971.8 4994.7 4971.8 4997.8 4962.3 5005.8 4956.5 5013.9 4950.6 5003.9 4950.6 4995.8 4956.5 4985.8 4956.5 4977.8 4962.3 4980.8 4952.8 4977.8 4943.3 4985.8 4949.2 4977.8 4955.1 4980.8 4945.6 4983.9 4955.1 4987 4945.6 4990.1 4955.1" clip-path="url(#a)" fill="none" stroke="#000" stroke-linecap="round"/>
<polyline points="4990.1 4955.1 4980.1 4955.1 4970.1 4955.1 4978.2 4949.2 4970.1 4955.1 4962 4949.2 4972 4949.2 4975.1 4958.7 4985.1 4958.7 4977 4964.6 4985.1 4970.5 4982 4960.9 4992 4960.9 4988.9 4951.4 4985.8 4941.9 4988.9 4951.4 4997 4945.6 5005.1 4951.4 5008.2 4960.9 5018.2 4960.9 5021.3 4951.4 5018.2 4941.9 5021.3 4951.4 5018.2 4941.9 5026.3 4947.8 5023.2 4957.3 5013.2 4957.3 5021.3 4951.4 5018.2 4941.9 5008.2 4941.9 5011.3 4932.4 5008.2 4941.9 5016.3 4936 5006.3 4936 4998.2 4930.2 4988.2 4930.2 4978.2 4930.2 4970.1 4936 4967 4926.5 4970.1 4917 4973.2 4926.5 4976.3 4917 4979.4 4907.5" clip-path="url(#a)" fill="none" stroke="#000" stroke-linecap="round"/>
<polyline points="4979.4 4907.5 4987.5 4913.4 4997.5 4913.4 5000.6 4922.9 4997.5 4913.4 5005.6 4919.3 5013.7 4913.4 5021.7 4919.3 5013.7 4925.1 5023.7 4925.1 5026.7 4915.6 5023.7 4925.1 5026.7 4934.7 5029.8 4925.1 5037.9 4919.3 5041 4928.8 5044.1 4938.3 5047.2 4947.8 5044.1 4938.3 5047.2 4928.8 5057.2 4928.8 5060.3 4938.3 5063.4 4947.8 5073.4 4947.8 5070.3 4938.3 5073.4 4928.8 5070.3 4938.3 5078.4 4944.2 5086.5 4950 5089.6 4959.6 5086.5 4950 5094.6 4944.2 5102.6 4938.3 5110.7 4944.2 5113.8 4934.7 5123.8 4934.7 5120.7 4925.1 5110.7 4925.1 5113.8 4934.7 5121.9 4928.8 5113.8 4934.7 5121.9 4940.5 5130 4934.7" clip-path="url(#a)" fill="none" stroke="#000" stroke-linecap="round"/>
<polyline points="5130 4934.7 5140 4934.7 5136.9 4925.1 5133.8 4934.7 5136.9 4944.2 5145 4938.3 5148.1 4928.8 5156.2 4934.7 5159.3 4925.1 5162.4 4934.7 5159.3 4925.1 5149.3 4925.1 5157.4 4919.3 5167.4 4919.3 5159.3 4913.4 5169.3 4913.4 5177.4 4907.5 5185.5 4901.6 5188.5 4911.1 5178.5 4911.1 5175.5 4901.6 5172.4 4911.1 5180.5 4905.3 5172.4 4899.4 5162.4 4899.4 5154.3 4905.3 5162.4 4911.1 5154.3 4917 5151.2 4907.5 5141.2 4907.5 5149.3 4913.4 5141.2 4907.5 5149.3 4913.4 5157.4 4919.3 5154.3 4928.8 5146.2 4934.7 5138.1 4928.8 5130 4934.7 5121.9 4940.5 5130 4946.4 5121.9 4940.5 5118.8 4931 5108.8 4931" clip-path="url(#a)" fill="none" stroke="#000" stroke-linecap="round"/>
<polyline points="5108.8 4931 5105.7 4921.5 5097.6 4915.6 5100.7 4925.1 5108.8 4919.3 5111.9 4928.8 5120 4934.7 5128.1 4928.8 5120 4934.7 5116.9 4925.1 5113.8 4934.7 5103.8 4934.7 5113.8 4934.7 5123.8 4934.7 5126.9 4925.1 5135 4919.3 5145 4919.3 5136.9 4913.4 5128.8 4907.5 5118.8 4907.5 5110.7 4913.4 5100.7 4913.4 5103.8 4903.9 5106.9 4913.4 5110 4922.9 5113.1 4913.4 5121.2 4919.3 5124.3 4928.8 5127.4 4938.3 5130.5 4928.8 5127.4 4919.3 5130.5 4909.8 5127.4 4900.2 5135.5 4906.1 5145.5 4906.1 5137.4 4912 5134.3 4902.5 5142.4 4908.4 5132.4 4908.4 5140.5 4914.2 5130.5 4914.2 5133.5 4904.7 5136.6 4895.2" clip-path="url(#a)" fill="none" stroke="#000" stroke-linecap="round"/>
<polyline points="5136.6 4895.2 5139.7 4904.7 5136.6 4895.2 5144.7 4889.4 5141.6 4898.9 5131.6 4898.9 5128.5 4908.4 5125.5 4898.9 5117.4 4904.7 5127.4 4904.7 5124.3 4914.2 5134.3 4914.2 5144.3 4914.2 5134.3 4914.2 5137.4 4923.8 5129.3 4929.6 5119.3 4929.6 5116.2 4939.1 5124.3 4945 5134.3 4945 5124.3 4945 5134.3 4945 5126.2 4950.9 5118.1 4945 5121.2 4935.5 5124.3 4945 5134.3 4945 5137.4 4935.5 5145.5 4941.4 5137.4 4935.5 5140.5 4945 5143.5 4935.5 5151.6 4929.6 5154.7 4920.1 5157.8 4910.6 5154.7 4901.1 5164.7 4901.1 5172.8 4907 5162.8 4907 5170.9 4912.9 5179 4918.7 5170.9 4924.6 5167.8 4934.1" clip-path="url(#a)" fill="none" stroke="#000" stroke-linecap="round"/>
<polyline points="5167.8 4934.1 5157.8 4934.1 5167.8 4934.1 5159.7 4940 5162.8 4949.5 5154.7 4955.4 5151.6 4945.9 5148.5 4955.4 5156.6 4961.3 5148.5 4955.4 5138.5 4955.4 5146.6 4961.3 5149.7 4970.8 5139.7 4970.8 5129.7 4970.8 5119.7 4970.8 5129.7 4970.8 5137.8 4976.7 5134.7 4986.2 5124.7 4986.2 5114.7 4986.2 5111.6 4995.7 5121.6 4995.7 5129.7 5001.6 5121.6 4995.7 5113.5 5001.6 5105.5 5007.4 5095.5 5007.4 5105.5 5007.4 5108.5 5016.9 5111.6 5026.5 5103.5 5032.3 5111.6 5038.2 5108.5 5047.7 5118.5 5047.7 5121.6 5038.2 5111.6 5038.2 5114.7 5047.7 5111.6 5038.2 5103.5 5044.1 5106.6 5053.6 5103.5 5063.1 5113.5 5063.1" clip-path="url(#a)" fill="none" stroke="#000" stroke-linecap="round"/>
<polyline points="5113.5 5063.1 5105.5 5057.2 5095.5 5057.2 5098.5 5066.7 5106.6 5072.6 5098.5 5078.5 5106.6 5084.4 5096.6 5084.4 5106.6 5084.4 5109.7 5074.9 5112.8 5084.4 5109.7 5093.9 5117.8 5088 5114.7 5097.5 5117.8 5107 5120.9 5116.5 5110.9 5116.5 5114 5107 5124 5107 5115.9 5101.2 5119 5110.7 5127.1 5104.8 5130.2 5095.3 5127.1 5085.8 5119 5091.6 5115.9 5082.1 5125.9 5082.1 5129 5072.6 5120.9 5078.5 5129 5072.6 5120.9 5078.5 5112.8 5084.4 5104.7 5078.5 5101.6 5069 5109.7 5063.1 5106.6 5053.6 5103.5 5044.1 5095.5 5050 5103.5 5044.1 5113.5 5044.1 5116.6 5034.6 5126.6 5034.6 5134.7 5028.7" clip-path="url(#a)" fill="none" stroke="#000" stroke-linecap="round"/>
<polyline points="5134.7 5028.7 5124.7 5028.7 5127.8 5038.2 5117.8 5038.2 5109.7 5044.1 5112.8 5053.6 5109.7 5044.1 5119.7 5044.1 5111.6 5038.2 5114.7 5028.7 5111.6 5038.2 5108.5 5047.7 5116.6 5053.6 5119.7 5063.1 5116.6 5072.6 5124.7 5066.7 5132.8 5060.9 5135.9 5051.4 5132.8 5041.8 5135.9 5032.3 5144 5038.2 5134 5038.2 5124 5038.2 5132.1 5044.1 5124 5050 5114 5050 5104 5050 5112.1 5055.8 5122.1 5055.8 5130.2 5061.7 5140.2 5061.7 5132.1 5067.6 5129 5077.1 5125.9 5067.6 5135.9 5067.6 5127.8 5073.5 5130.9 5064 5122.8 5069.8 5125.9 5060.3 5134 5066.2 5142.1 5072.1 5132.1 5072.1 5142.1 5072.1" clip-path="url(#a)" fill="none" stroke="#000" stroke-linecap="round"/>
<polyline points="5142.1 5072.1 5145.2 5081.6 5137.1 5075.7 5140.2 5066.2 5132.1 5060.3 5142.1 5060.3 5139 5050.8 5135.9 5060.3 5127.8 5054.5 5124.7 5064 5121.6 5073.5 5124.7 5064 5114.7 5064 5111.6 5054.5 5114.7 5045 5106.6 5039.1 5098.5 5045 5095.5 5054.5 5098.5 5045 5095.5 5054.5 5092.4 5045 5100.5 5039.1 5108.5 5045 5098.5 5045 5095.5 5054.5 5103.5 5060.3 5095.5 5066.2 5103.5 5060.3 5093.5 5060.3 5101.6 5066.2 5104.7 5075.7 5112.8 5081.6 5120.9 5087.5 5130.9 5087.5 5127.8 5097 5119.7 5102.9 5122.8 5093.4 5114.7 5099.2 5106.6 5105.1 5103.5 5095.6 5095.5 5089.7 5098.5 5080.2 5095.5 5089.7" clip-path="url(#a)" fill="none" stroke="#000" stroke-linecap="round"/>
<polyline points="5095.5 5089.7 5092.4 5080.2 5082.4 5080.2 5079.3 5070.7 5089.3 5070.7 5081.2 5064.8 5073.1 5070.7 5081.2 5064.8 5084.3 5055.3 5076.2 5061.2 5066.2 5061.2 5069.3 5051.7 5072.4 5042.2 5075.5 5032.7 5072.4 5042.2 5064.3 5048.1 5056.2 5042.2 5059.3 5032.7 5062.4 5023.2 5054.3 5017.3 5051.2 5026.8 5043.1 5032.7 5051.2 5026.8 5048.1 5017.3 5045 5007.8 5048.1 4998.3 5045 5007.8 5035 5007.8 5025 5007.8 5021.9 4998.3 5013.8 5004.1 5005.7 4998.3 5002.6 5007.8 5010.7 5013.6 5013.8 5004.1 5003.8 5004.1 5013.8 5004.1 5010.7 4994.6 5000.7 4994.6 4992.6 4988.7 4989.6 4998.3 4997.6 4992.4 5000.7 4982.9" clip-path="url(#a)" fill="none" stroke="#000" stroke-linecap="round"/>
<polyline points="5000.7 4982.9 4990.7 4982.9 4982.6 4988.7 4979.6 4979.2 4971.5 4985.1 4974.6 4975.6 4971.5 4985.1 4979.6 4991 4969.6 4991 4961.5 4985.1 4964.6 4994.6 4956.5 4988.7 4946.5 4988.7 4936.5 4988.7 4939.6 4979.2 4947.6 4985.1 4944.6 4994.6 4952.6 4988.7 4942.6 4988.7 4945.7 4998.3 4953.8 5004.1 4963.8 5004.1 4960.7 4994.6 4970.7 4994.6 4967.6 5004.1 4975.7 5010 4972.6 5000.5 4975.7 5010 4972.6 5000.5 4969.6 4991 4977.6 4985.1 4987.6 4985.1 4990.7 4994.6 5000.7 4994.6 5010.7 4994.6 5007.6 4985.1 5010.7 4994.6 5007.6 5004.1 5015.7 5010 5012.6 5019.5 5015.7 5029 5018.8 5019.5 5008.8 5019.5" clip-path="url(#a)" fill="none" stroke="#000" stroke-linecap="round"/>
<polyline points="5008.8 5019.5 5011.9 5010 5008.8 5000.5 4998.8 5000.5 5008.8 5000.5 5005.7 5010 5013.8 5004.1 5021.9 5010 5013.8 5004.1 5005.7 4998.3 4997.6 5004.1 4987.6 5004.1 4979.6 4998.3 4982.6 5007.8 4985.7 5017.3 4993.8 5023.2 5003.8 5023.2 5011.9 5029 5003.8 5034.9 5006.9 5025.4 5010 5015.9 5001.9 5021.8 4998.8 5012.3 5001.9 5002.7 5005 4993.2 4996.9 4999.1 4993.8 5008.6 4985.7 5014.5 4982.6 5024 4979.6 5014.5 4971.5 5008.6 4981.5 5008.6 4978.4 5018.1 4975.3 5008.6 4983.4 5014.5 4980.3 5005 4988.4 5010.9 4980.3 5016.7 4972.2 5022.6 4975.3 5013.1 4972.2 5022.6 4962.2 5022.6 4970.3 5016.7" clip-path="url(#a)" fill="none" stroke="#000" stroke-linecap="round"/>
<polyline points="4970.3 5016.7 4978.4 5022.6 4986.5 5016.7 4983.4 5026.3 4993.4 5026.3 4985.3 5020.4 4993.4 5014.5 4985.3 5008.6 4977.2 5002.7 4985.3 5008.6 4988.4 4999.1 4998.4 4999.1 5006.5 5005 5014.6 4999.1 5011.5 4989.6 5003.4 4983.7 5011.5 4989.6 5003.4 4983.7 5013.4 4983.7 5016.5 4993.2 5008.4 4999.1 5011.5 4989.6 5003.4 4983.7 4995.3 4989.6 4992.2 4980.1 4995.3 4989.6 4998.4 4980.1 4990.3 4986 4980.3 4986 4972.2 4991.8 4964.1 4997.7 4961 5007.2 4952.9 5001.4 4949.8 4991.8 4957.9 4997.7 4954.8 4988.2 4951.7 4978.7 4961.7 4978.7 4969.8 4972.8 4977.9 4978.7 4969.8 4972.8 4979.8 4972.8 4982.9 4963.3" clip-path="url(#a)" fill="none" stroke="#000" stroke-linecap="round"/>
<polyline points="4982.9 4963.3 4992.9 4963.3 4989.8 4972.8 4997.9 4966.9 4994.8 4957.4 4997.9 4966.9 5006 4972.8 5002.9 4963.3 5006 4953.8 5014.1 4959.7 5022.2 4965.6 5030.3 4971.4 5022.2 4965.6 5019.1 4956 5027.2 4950.2 5035.3 4956 5043.4 4961.9 5051.5 4956 5043.4 4950.2 5040.3 4940.7 5043.4 4950.2 5053.4 4950.2 5063.4 4950.2 5071.5 4956 5063.4 4950.2 5066.5 4940.7 5069.6 4931.2 5079.6 4931.2 5076.5 4921.6 5084.6 4915.8 5076.5 4909.9 5068.4 4915.8 5076.5 4921.6 5079.6 4912.1 5076.5 4921.6 5086.5 4921.6 5089.6 4912.1 5097.6 4906.3 5089.6 4900.4 5092.6 4909.9 5100.7 4915.8 5103.8 4906.3 5100.7 4896.7" clip-path="url(#a)" fill="none" stroke="#000" stroke-linecap="round"/>
<polyline points="5100.7 4896.7 5110.7 4896.7 5107.6 4887.2 5115.7 4893.1 5107.6 4887.2 5099.6 4893.1 5102.6 4883.6 5110.7 4877.7 5100.7 4877.7 5108.8 4871.8 5111.9 4862.3 5115 4852.8 5123.1 4858.7 5115 4864.6 5106.9 4858.7 5110 4868.2 5113.1 4858.7 5103.1 4858.7 5095 4864.6 5091.9 4874.1 5101.9 4874.1 5098.8 4883.6 5090.7 4877.7 5082.6 4883.6 5092.6 4883.6 5082.6 4883.6 5092.6 4883.6 5102.6 4883.6 5105.7 4893.1 5102.6 4902.6 5092.6 4902.6 5089.6 4912.1 5086.5 4921.6 5096.5 4921.6 5086.5 4921.6 5078.4 4915.8 5070.3 4921.6 5062.2 4915.8 5052.2 4915.8 5060.3 4921.6 5063.4 4912.1 5071.5 4918 5081.5 4918" clip-path="url(#a)" fill="none" stroke="#000" stroke-linecap="round"/>
<polyline points="5081.5 4918 5084.6 4908.5 5081.5 4918 5073.4 4912.1 5076.5 4921.6 5068.4 4927.5 5076.5 4921.6 5084.6 4915.8 5081.5 4906.3 5084.6 4896.7 5092.6 4890.9 5082.6 4890.9 5072.6 4890.9 5064.6 4896.7 5061.5 4906.3 5053.4 4912.1 5050.3 4902.6 5058.4 4908.5 5066.5 4914.4 5063.4 4904.9 5073.4 4904.9 5081.5 4910.7 5089.6 4916.6 5086.5 4907.1 5078.4 4901.2 5075.3 4891.7 5067.2 4885.8 5077.2 4885.8 5085.3 4880 5082.2 4889.5 5074.1 4883.6 5084.1 4883.6 5076 4889.5 5086 4889.5 5077.9 4895.4 5074.8 4885.8 5071.7 4876.3 5079.8 4882.2 5071.7 4876.3 5074.8 4866.8 5077.9 4876.3 5069.8 4882.2 5072.9 4891.7" clip-path="url(#a)" fill="none" stroke="#000" stroke-linecap="round"/>
<polyline points="5072.9 4891.7 5064.8 4885.8 5061.7 4895.4 5069.8 4889.5 5072.9 4899 5081 4893.1 5089.1 4887.2 5081 4893.1 5089.1 4899 5086 4908.5 5077.9 4914.4 5081 4923.9 5091 4923.9 5099.1 4918 5091 4923.9 5099.1 4918 5096 4927.5 5086 4927.5 5082.9 4918 5091 4923.9 5099.1 4918 5096 4908.5 5106 4908.5 5096 4908.5 5104.1 4914.4 5101 4904.9 5104.1 4895.4 5101 4885.8 5097.9 4876.3 5089.8 4870.5 5097.9 4864.6 5107.9 4864.6 5099.8 4870.5 5109.8 4870.5 5119.8 4870.5 5116.7 4880 5119.8 4889.5 5111.7 4895.4 5119.8 4889.5 5116.7 4899 5124.8 4904.9 5121.7 4914.4 5113.7 4908.5" clip-path="url(#a)" fill="none" stroke="#000" stroke-linecap="round"/>
<polyline points="5113.7 4908.5 5116.7 4918 5126.7 4918 5116.7 4918 5108.7 4923.9 5118.7 4923.9 5126.7 4929.8 5118.7 4935.6 5110.6 4941.5 5102.5 4947.4 5110.6 4941.5 5120.6 4941.5 5123.7 4951 5115.6 4956.9 5107.5 4962.8 5110.6 4972.3 5118.7 4966.4 5128.7 4966.4 5118.7 4966.4 5115.6 4975.9 5112.5 4985.4 5104.4 4991.3 5112.5 4985.4 5120.6 4991.3 5128.7 4997.2 5125.6 5006.7 5135.6 5006.7 5138.7 5016.2 5146.7 5010.3 5143.7 5000.8 5135.6 5006.7 5143.7 5012.6 5135.6 5006.7 5132.5 5016.2 5140.6 5022.1 5143.7 5031.6 5151.7 5025.7 5141.7 5025.7 5133.7 5031.6 5141.7 5037.5 5151.7 5037.5 5148.7 5047 5158.7 5047" clip-path="url(#a)" fill="none" stroke="#000" stroke-linecap="round"/>
<polyline points="5158.7 5047 5150.6 5052.9 5158.7 5047 5155.6 5037.5 5163.7 5043.4 5166.7 5052.9 5169.8 5043.4 5172.9 5052.9 5181 5058.7 5189.1 5064.6 5181 5070.5 5177.9 5061 5186 5055.1 5176 5055.1 5184.1 5061 5187.2 5051.5 5184.1 5042 5176 5036.1 5172.9 5045.6 5164.8 5039.7 5172.9 5033.8 5169.8 5024.3 5166.7 5033.8 5169.8 5024.3 5166.7 5033.8 5163.7 5043.4 5153.7 5043.4 5145.6 5037.5 5148.7 5028 5140.6 5022.1 5132.5 5016.2 5129.4 5025.7 5132.5 5016.2 5140.6 5010.3 5137.5 5000.8 5145.6 4994.9 5148.7 4985.4 5140.6 4991.3 5148.7 4997.2 5140.6 5003.1 5137.5 5012.6 5145.6 5018.5 5137.5 5012.6" clip-path="url(#a)" fill="none" stroke="#000" stroke-linecap="round"/>
<polyline points="5137.5 5012.6 5145.6 5006.7 5135.6 5006.7 5132.5 4997.2 5135.6 5006.7 5138.7 5016.2 5148.7 5016.2 5156.7 5022.1 5159.8 5031.6 5162.9 5022.1 5166 5012.6 5162.9 5003.1 5154.8 4997.2 5151.7 4987.7 5161.7 4987.7 5153.7 4993.6 5145.6 4999.4 5155.6 4999.4 5152.5 5009 5144.4 5014.8 5136.3 5020.7 5146.3 5020.7 5154.4 5014.8 5164.4 5014.8 5172.5 5009 5169.4 5018.5 5172.5 5028 5164.4 5022.1 5172.5 5016.2 5169.4 5025.7 5166.3 5016.2 5163.2 5025.7 5160.1 5016.2 5170.1 5016.2 5180.1 5016.2 5172 5022.1 5180.1 5016.2 5188.2 5022.1 5178.2 5022.1 5175.1 5012.6 5165.1 5012.6 5173.2 5006.7 5165.1 5000.8" clip-path="url(#a)" fill="none" stroke="#000" stroke-linecap="round"/>
<polyline points="5165.1 5000.8 5168.2 5010.3 5158.2 5010.3 5161.3 5019.8 5164.4 5029.4 5161.3 5019.8 5153.2 5025.7 5145.1 5019.8 5142 5010.3 5132 5010.3 5128.9 5019.8 5132 5029.4 5128.9 5019.8 5132 5029.4 5123.9 5023.5 5127 5014 5137 5014 5128.9 5019.8 5132 5029.4 5142 5029.4 5138.9 5038.9 5142 5029.4 5133.9 5035.2 5143.9 5035.2 5152 5041.1 5162 5041.1 5172 5041.1 5180.1 5035.2 5183.2 5044.7 5180.1 5054.3 5177 5044.7 5173.9 5054.3 5170.8 5063.8 5162.8 5057.9 5152.8 5057.9 5149.7 5048.4 5152.8 5057.9 5144.7 5052 5136.6 5057.9 5128.5 5052 5136.6 5046.1 5126.6 5046.1 5123.5 5055.6" clip-path="url(#a)" fill="none" stroke="#000" stroke-linecap="round"/>
<polyline points="5123.5 5055.6 5126.6 5046.1 5123.5 5036.6 5120.4 5046.1 5112.3 5052 5109.2 5042.5 5106.1 5033 5103 5023.5 5106.1 5033 5103 5042.5 5093 5042.5 5089.9 5033 5086.9 5023.5 5076.9 5023.5 5079.9 5033 5076.9 5042.5 5079.9 5033 5071.9 5027.1 5063.8 5021.2 5060.7 5011.7 5063.8 5021.2 5055.7 5027.1 5047.6 5033 5039.5 5027.1 5036.4 5036.6 5026.4 5036.6 5029.5 5046.1 5039.5 5046.1 5036.4 5036.6 5028.3 5042.5 5036.4 5036.6 5028.3 5030.7 5020.2 5036.6 5010.2 5036.6 5013.3 5046.1 5016.4 5036.6 5013.3 5027.1 5005.2 5033 5002.1 5042.5 4994 5036.6 4991 5046.1 4987.9 5036.6 4991 5046.1" clip-path="url(#a)" fill="none" stroke="#000" stroke-linecap="round"/>
<polyline points="4991 5046.1 5001 5046.1 4992.9 5052 4982.9 5052 4991 5057.9 4981 5057.9 4972.9 5063.8 4964.8 5069.6 4961.7 5060.1 4971.7 5060.1 4974.8 5069.6 4977.9 5060.1 4969.8 5066 4977.9 5071.9 4987.9 5071.9 4996 5066 4987.9 5060.1 4996 5054.3 4999 5063.8 5009 5063.8 5001 5057.9 5009 5063.8 5001 5057.9 4992.9 5052 4996 5042.5 5004 5036.6 5012.1 5042.5 5020.2 5036.6 5028.3 5030.7 5020.2 5024.9 5028.3 5030.7 5031.4 5040.3 5041.4 5040.3 5044.5 5049.8 5052.6 5055.6 5049.5 5046.1 5041.4 5052 5038.3 5042.5 5030.2 5036.6 5022.1 5042.5 5030.2 5036.6 5033.3 5046.1 5036.4 5036.6" clip-path="url(#a)" fill="none" stroke="#000" stroke-linecap="round"/>
<polyline points="5036.4 5036.6 5046.4 5036.6 5036.4 5036.6 5026.4 5036.6 5023.3 5046.1 5015.2 5052 5005.2 5052 5013.3 5057.9 5021.4 5063.8 5031.4 5063.8 5039.5 5057.9 5049.5 5057.9 5046.4 5067.4 5043.3 5057.9 5040.2 5048.4 5037.1 5057.9 5029 5052 5026 5042.5 5022.9 5033 5019.8 5042.5 5022.9 5052 5019.8 5061.5 5022.9 5071 5014.8 5065.2 5004.8 5065.2 5012.9 5059.3 5016 5068.8 5007.9 5062.9 5017.9 5062.9 5009.8 5057 5019.8 5057 5016.7 5066.5 5013.6 5076.1 5010.5 5066.5 5013.6 5076.1 5005.5 5081.9 5008.6 5072.4 5018.6 5072.4 5021.7 5062.9 5024.8 5072.4 5032.9 5066.5 5022.9 5066.5 5026 5057" clip-path="url(#a)" fill="none" stroke="#000" stroke-linecap="round"/>
<polyline points="5026 5057 5016 5057 5006 5057 5016 5057 5012.9 5047.5 5021 5041.6 5031 5041.6 5034 5032.1 5026 5026.3 5016 5026.3 5026 5026.3 5016 5026.3 5024 5020.4 5032.1 5026.3 5029 5035.8 5026 5026.3 5016 5026.3 5012.9 5035.8 5004.8 5029.9 5012.9 5035.8 5009.8 5026.3 5006.7 5035.8 4998.6 5041.6 4995.5 5051.2 4992.4 5060.7 4995.5 5070.2 4985.5 5070.2 4977.4 5064.3 4987.4 5064.3 4979.3 5058.4 4971.2 5052.5 4979.3 5046.7 4982.4 5037.2 4992.4 5037.2 4982.4 5037.2 4990.5 5031.3 4987.4 5021.8 4995.5 5015.9 4998.6 5025.4 5001.7 5015.9 4993.6 5010 5001.7 5015.9 5011.7 5015.9" clip-path="url(#a)" fill="none" stroke="#000" stroke-linecap="round"/>
<polyline points="5011.7 5015.9 5003.6 5010 5000.5 5000.5" clip-path="url(#a)" fill="none" stroke="#000" stroke-linecap="round"/>
</svg>
