<?xml version="1.0" encoding="utf-8" ?>
<svg baseProfile="full" height="1000px" version="1.1" width="1000px" xmlns="http://www.w3.org/2000/svg" xmlns:ev="http://www.w3.org/2001/xml-events" xmlns:xlink="http://www.w3.org/1999/xlink"><defs><clipPath id="border_clip"><rect height="1000" width="1000" x="0" y="0" /></clipPath></defs><polyline clip-path="url(#border_clip)" fill="none" points="500.5,500.5 510.5,500.5 500.5,500.5 497.40983005625054,490.98943483704846 505.5,485.1115823141237 502.40983005625054,475.6010171511722 494.3196601125011,481.4788696740969 502.40983005625054,475.6010171511722 499.3196601125011,466.09045198822065 502.40983005625054,456.5798868252691 494.3196601125011,462.45773934819385 491.22949016875157,471.9683045111454 494.319660112501,481.4788696740969 484.319660112501,481.4788696740969 492.40983005625054,475.6010171511722 482.40983005625054,475.6010171511722 485.5,466.09045198822065 488.5901699437495,456.5798868252691 485.5,466.09045198822065 475.5,466.0904519882206 472.4098300562506,456.57988682526906 462.4098300562506,456.57988682526906 465.5,466.0904519882206 462.4098300562506,456.57988682526906 452.4098300562506,456.579886825269 444.3196601125011,450.70203430234426 447.40983005625054,460.2125994652958 455.5,466.09045198822054 465.5,466.0904519882206 462.4098300562505,475.60101715117213 459.3196601125011,466.0904519882206 456.22949016875157,475.6010171511721 448.1393202250021,469.72316462824733 440.04915028125265,463.8453121053226 448.1393202250021,469.72316462824733 445.0491502812526,479.23372979119887 435.0491502812526,479.2337297911988 431.9589803375031,488.74429495415035 441.9589803375031,488.7442949541504 431.9589803375031,488.74429495415035 428.86881039375356,498.2548601171018 420.77864045000405,504.13271264002657 430.77864045000405,504.13271264002657" stroke="black" stroke-linecap="round" stroke-width="1" /><polyline clip-path="url(#border_clip)" fill="none" points="430.77864045000405,504.13271264002657 438.86881039375356,498.2548601171019 441.9589803375031,488.7442949541504 450.04915028125254,494.62214747707515 440.04915028125254,494.6221474770751 448.139320225002,500.4999999999999 440.0491502812525,506.37785252292457 431.95898033750296,512.2557050458493 440.0491502812525,506.37785252292457 448.13932022500194,512.2557050458494 445.04915028125237,521.7662702088008 453.1393202250018,527.6441227317256 456.22949016875134,518.1335575687741 453.1393202250018,527.6441227317256 461.2294901687513,533.5219752546504 464.3196601125007,543.0325404176019 467.4098300562502,533.5219752546504 464.3196601125008,524.011410091699 456.22949016875134,518.1335575687741 464.31966011250086,512.2557050458495 461.22949016875134,521.766270208801 469.31966011250086,515.8884176858763 472.40983005625026,525.3989828488278 475.49999999999966,534.9095480117794 472.40983005625026,525.3989828488278 480.4999999999998,519.5211303259032 488.59016994374923,525.3989828488279 496.68033988749875,519.5211303259033 488.5901699437493,513.6432778029784 496.68033988749875,519.5211303259033 504.77050983124826,513.6432778029787 514.7705098312483,513.6432778029787 506.68033988749886,507.76542528005393 496.6803398874988,507.7654252800538 488.5901699437493,513.6432778029784 485.4999999999999,504.1327126400269 493.59016994374934,510.0105651629517 490.49999999999994,500.50000000000017 500.49999999999994,500.5000000000002 510.49999999999994,500.50000000000034 500.49999999999994,500.5000000000002 497.40983005625054,490.9894348370487 505.5000000000001,485.111582314124" stroke="black" stroke-linecap="round" stroke-width="1" /><polyline clip-path="url(#border_clip)" fill="none" points="505.5000000000001,485.111582314124 502.4098300562507,475.60101715117247 494.3196601125012,481.4788696740971 502.4098300562507,475.60101715117247 499.3196601125013,466.0904519882209 502.4098300562509,456.5798868252694 494.31966011250137,462.457739348194 491.2294901687518,471.96830451114556 494.3196601125012,481.4788696740971 484.31966011250114,481.478869674097 492.4098300562507,475.60101715117236 482.4098300562507,475.60101715117224 485.5000000000003,466.0904519882207 488.59016994374986,456.5798868252692 485.5000000000003,466.0904519882207 475.5000000000003,466.0904519882206 472.4098300562509,456.57988682526906 462.4098300562509,456.57988682526894 465.5000000000002,466.0904519882205 462.4098300562509,456.57988682526894 452.4098300562509,456.57988682526883 444.3196601125015,450.702034302344 447.4098300562508,460.21259946529557 455.5000000000002,466.09045198822037 465.5000000000002,466.09045198822054 462.40983005625066,475.601017151172 459.3196601125013,466.0904519882204 456.2294901687517,475.60101715117196 448.1393202250023,469.7231646282471 440.0491502812529,463.84531210532225 448.1393202250023,469.7231646282471 445.0491502812527,479.2337297911986 435.04915028125265,479.23372979119847 431.9589803375031,488.74429495414995 441.9589803375031,488.7442949541501 431.9589803375031,488.74429495414995 428.8688103937535,498.2548601171015 420.77864045000393,504.1327126400261 430.77864045000393,504.1327126400262 438.8688103937535,498.2548601171016 441.95898033750314,488.7442949541501 450.04915028125254,494.622147477075 440.0491502812525,494.6221474770748" stroke="black" stroke-linecap="round" stroke-width="1" /><polyline clip-path="url(#border_clip)" fill="none" points="440.0491502812525,494.6221474770748 448.1393202250019,500.49999999999966 440.0491502812523,506.3778525229243 431.9589803375028,512.2557050458489 440.0491502812523,506.3778525229243 448.1393202250017,512.2557050458491 445.0491502812521,521.7662702088006 453.1393202250015,527.6441227317255 456.2294901687511,518.133557568774 453.1393202250015,527.6441227317255 461.2294901687509,533.5219752546503 464.31966011250023,543.0325404176019 467.40983005624986,533.5219752546504 464.3196601125005,524.0114100916988 456.2294901687511,518.133557568774 464.31966011250074,512.2557050458494 461.2294901687511,521.7662702088008 469.3196601125007,515.8884176858762 472.40983005625,525.3989828488279 475.4999999999993,534.9095480117794 472.40983005625,525.3989828488279 480.49999999999955,519.5211303259033 488.59016994374895,525.3989828488282 496.6803398874985,519.5211303259035 488.5901699437491,513.6432778029787 496.6803398874985,519.5211303259035 504.7705098312481,513.6432778029789 514.7705098312481,513.6432778029791 506.68033988749875,507.7654252800543 496.68033988749875,507.76542528005405 488.5901699437491,513.6432778029787 485.49999999999983,504.1327126400271 493.59016994374923,510.01056516295193 490.4999999999999,500.50000000000034 500.49999999999994,500.5000000000005 510.49999999999994,500.5000000000007 500.49999999999994,500.5000000000005 497.4098300562506,490.9894348370489 505.5000000000002,485.11158231412435 502.4098300562509,475.60101715117275 494.3196601125013,481.4788696740973 502.40983005625094,475.60101715117275 499.3196601125016,466.09045198822116" stroke="black" stroke-linecap="round" stroke-width="1" /><polyline clip-path="url(#border_clip)" fill="none" points="499.3196601125016,466.09045198822116 502.4098300562513,456.5798868252697 494.3196601125017,462.45773934819425 491.229490168752,471.96830451114573 494.3196601125013,481.4788696740973 484.3196601125013,481.4788696740971 492.4098300562509,475.6010171511725 482.4098300562509,475.60101715117236 485.50000000000057,466.0904519882209 488.5901699437502,456.5798868252694 485.50000000000057,466.0904519882209 475.50000000000057,466.09045198822065 472.4098300562513,456.57988682526906 462.4098300562513,456.57988682526883 465.50000000000057,466.0904519882205 462.4098300562513,456.57988682526883 452.4098300562513,456.57988682526866 444.3196601125019,450.7020343023437 447.40983005625117,460.21259946529534 455.5000000000005,466.09045198822025 465.50000000000057,466.0904519882205 462.4098300562508,475.60101715117196 459.3196601125016,466.0904519882203 456.2294901687519,475.6010171511718 448.1393202250025,469.7231646282469 440.04915028125316,463.84531210532197 448.1393202250025,469.7231646282469 445.0491502812528,479.23372979119836 435.0491502812528,479.23372979119813 431.95898033750314,488.7442949541496 441.95898033750314,488.74429495414984 431.95898033750314,488.7442949541496 428.86881039375345,498.2548601171011 420.7786404500038,504.13271264002566 430.7786404500038,504.1327126400259 438.86881039375345,498.2548601171013 441.95898033750314,488.74429495414984 450.0491502812525,494.62214747707475 440.0491502812525,494.6221474770745 448.1393202250018,500.4999999999995 440.0491502812522,506.377852522924 431.95898033750257,512.2557050458486 440.0491502812522,506.377852522924" stroke="black" stroke-linecap="round" stroke-width="1" /><polyline clip-path="url(#border_clip)" fill="none" points="440.0491502812522,506.377852522924 448.13932022500154,512.2557050458489 445.04915028125185,521.7662702088004 453.1393202250012,527.6441227317254 456.2294901687509,518.1335575687739 453.1393202250012,527.6441227317254 461.22949016875054,533.5219752546503 464.3196601124998,543.0325404176019 467.40983005624946,533.5219752546504 464.31966011250023,524.0114100916988 456.2294901687509,518.1335575687739 464.3196601125005,512.2557050458494 461.22949016875083,521.7662702088008 469.31966011250046,515.8884176858763 472.4098300562497,525.3989828488279 475.4999999999989,534.9095480117795 472.4098300562497,525.3989828488279 480.4999999999993,519.5211303259034 488.59016994374866,525.3989828488284 496.6803398874983,519.5211303259039 488.590169943749,513.6432778029789 496.6803398874983,519.5211303259039 504.770509831248,513.6432778029792 514.770509831248,513.6432778029796 506.68033988749863,507.7654252800546 496.68033988749863,507.76542528005433 488.59016994374895,513.6432778029789 485.4999999999998,504.1327126400272 493.59016994374906,510.01056516295216 490.4999999999999,500.5000000000005 500.4999999999999,500.5000000000008 510.4999999999999,500.5000000000011 500.4999999999999,500.5000000000008 497.40983005625066,490.98943483704915 505.50000000000034,485.11158231412463 502.4098300562511,475.601017151173 494.3196601125015,481.4788696740975 502.4098300562511,475.601017151173 499.3196601125019,466.0904519882214 502.4098300562517,456.5798868252699 494.319660112502,462.4577393481944 491.22949016875225,471.9683045111459 494.3196601125014,481.4788696740975" stroke="black" stroke-linecap="round" stroke-width="1" /><polyline clip-path="url(#border_clip)" fill="none" points="494.3196601125014,481.4788696740975 484.3196601125014,481.4788696740972 492.4098300562511,475.6010171511727 482.40983005625105,475.6010171511724 485.50000000000085,466.09045198822093 488.5901699437506,456.5798868252695 485.50000000000085,466.09045198822093 475.5000000000008,466.09045198822065 472.4098300562516,456.579886825269 462.40983005625156,456.5798868252687 465.5000000000008,466.09045198822037 462.40983005625156,456.5798868252687 452.40983005625156,456.57988682526843 444.3196601125022,450.7020343023434 447.40983005625145,460.21259946529506 455.50000000000074,466.0904519882201 465.5000000000008,466.09045198822037 462.409830056251,475.60101715117185 459.3196601125018,466.0904519882202 456.229490168752,475.6010171511716 448.13932022500273,469.72316462824665 440.0491502812534,463.8453121053216 448.13932022500273,469.72316462824665 445.04915028125293,479.23372979119813 435.0491502812529,479.2337297911978 431.95898033750314,488.74429495414927 441.95898033750314,488.74429495414955 431.95898033750314,488.74429495414927 428.86881039375334,498.2548601171007 420.77864045000365,504.1327126400252 430.77864045000365,504.1327126400255 438.8688103937534,498.25486011710103 441.95898033750314,488.74429495414955 450.0491502812525,494.6221474770746 440.0491502812524,494.62214747707424 448.1393202250017,500.49999999999926 440.0491502812521,506.3778525229237 431.95898033750234,512.2557050458482 440.0491502812521,506.3778525229237 448.13932022500137,512.2557050458488 445.04915028125157,521.7662702088002 453.13932022500086,527.6441227317252 456.22949016875066,518.1335575687738" stroke="black" stroke-linecap="round" stroke-width="1" /><polyline clip-path="url(#border_clip)" fill="none" points="456.22949016875066,518.1335575687738 453.13932022500086,527.6441227317252 461.22949016875015,533.5219752546502 464.31966011249926,543.0325404176019 467.4098300562491,533.5219752546504 464.31966011249995,524.0114100916987 456.22949016875066,518.1335575687738 464.31966011250034,512.2557050458493 461.22949016875054,521.7662702088007 469.31966011250023,515.8884176858763 472.40983005624935,525.3989828488279 475.4999999999985,534.9095480117796 472.40983005624935,525.3989828488279 480.4999999999991,519.5211303259035 488.5901699437484,525.3989828488285 496.68033988749806,519.5211303259041 488.5901699437488,513.643277802979 496.68033988749806,519.5211303259041 504.77050983124775,513.6432778029796 514.7705098312478,513.6432778029799 506.6803398874985,507.76542528005496 496.68033988749846,507.76542528005456 488.5901699437488,513.643277802979 485.49999999999966,504.13271264002736 493.5901699437489,510.0105651629524 490.4999999999998,500.50000000000074 500.49999999999983,500.5000000000011" stroke="black" stroke-linecap="round" stroke-width="1" /></svg>