<?xml version="1.0" encoding="utf-8" ?>
<svg baseProfile="full" height="10000px" version="1.1" width="10000px" xmlns="http://www.w3.org/2000/svg" xmlns:ev="http://www.w3.org/2001/xml-events" xmlns:xlink="http://www.w3.org/1999/xlink"><defs><clipPath id="border_clip"><rect height="10000" width="10000" x="0" y="0" /></clipPath></defs><polyline clip-path="url(#border_clip)" fill="none" points="5000.5,5000.5 5010.5,5000.5 5020.5,5000.5 5010.5,5000.5 5007.409830056251,4990.989434837048 5015.5,4985.111582314124 5012.409830056251,4975.6010171511725 5004.319660112501,4981.478869674097 5012.409830056251,4975.6010171511725 5009.319660112501,4966.090451988221 5012.409830056251,4956.57988682527 5004.319660112501,4962.457739348194 5001.229490168752,4971.968304511145 5004.319660112501,4981.478869674097 4994.319660112501,4981.478869674097 5002.409830056251,4975.6010171511725 4992.409830056251,4975.6010171511725 4995.5,4966.090451988221 4998.59016994375,4956.579886825269 4995.5,4966.090451988221 4985.5,4966.090451988221 4982.409830056251,4956.579886825269 4972.409830056251,4956.579886825269 4975.5,4966.090451988221 4972.409830056251,4956.579886825269 4962.409830056251,4956.579886825269 4954.319660112501,4950.702034302344 4957.409830056251,4960.212599465296 4965.5,4966.090451988221 4975.5,4966.090451988221 4972.409830056251,4975.6010171511725 4969.319660112501,4966.090451988221 4966.229490168752,4975.6010171511725 4958.139320225002,4969.723164628247 4950.049150281253,4963.845312105323 4958.139320225002,4969.723164628247 4955.049150281253,4979.233729791199 4945.049150281253,4979.233729791199 4941.958980337503,4988.74429495415 4951.958980337503,4988.74429495415 4941.958980337503,4988.74429495415 4938.868810393754,4998.254860117102 4930.778640450004,5004.1327126400265" stroke="black" stroke-linecap="round" stroke-width="1" /><polyline clip-path="url(#border_clip)" fill="none" points="4930.778640450004,5004.1327126400265 4940.778640450004,5004.1327126400265 4948.868810393754,4998.254860117102 4951.958980337503,4988.74429495415 4960.049150281253,4994.6221474770755 4950.049150281253,4994.6221474770755 4958.139320225002,5000.5 4950.049150281253,5006.3778525229245 4941.958980337503,5012.255705045849 4950.049150281253,5006.3778525229245 4958.139320225002,5012.255705045849 4955.049150281252,5021.766270208801 4963.139320225002,5027.6441227317255 4966.229490168751,5018.133557568774 4963.139320225002,5027.6441227317255 4971.229490168751,5033.52197525465 4974.319660112501,5043.032540417602 4977.40983005625,5033.521975254651 4974.319660112501,5024.011410091699 4966.229490168751,5018.133557568774 4974.319660112501,5012.255705045849 4971.229490168751,5021.766270208801 4979.319660112501,5015.888417685876 4982.40983005625,5025.3989828488275 4985.5,5034.909548011779 4982.40983005625,5025.3989828488275 4990.5,5019.521130325903 4998.590169943749,5025.398982848828 5006.680339887499,5019.521130325903 4998.590169943749,5013.643277802978 5006.680339887499,5019.521130325903 5014.770509831248,5013.643277802978 5024.770509831248,5013.643277802978 5016.680339887499,5007.765425280054 5006.680339887499,5007.765425280054 4998.590169943749,5013.643277802978 4995.5,5004.1327126400265 5003.590169943749,5010.010565162952 5000.5,5000.5 5010.5,5000.5 5020.5,5000.5 5010.5,5000.5 5007.409830056251,4990.989434837049" stroke="black" stroke-linecap="round" stroke-width="1" /><polyline clip-path="url(#border_clip)" fill="none" points="5007.409830056251,4990.989434837049 5015.5,4985.1115823141245 5012.409830056251,4975.6010171511725 5004.319660112501,4981.478869674097 5012.409830056251,4975.6010171511725 5009.319660112501,4966.090451988221 5012.409830056251,4956.57988682527 5004.319660112501,4962.457739348194 5001.229490168752,4971.968304511145 5004.319660112501,4981.478869674097 4994.319660112501,4981.478869674097 5002.409830056251,4975.6010171511725 4992.409830056251,4975.6010171511725 4995.5,4966.090451988221 4998.59016994375,4956.57988682527 4995.5,4966.090451988221 4985.5,4966.090451988221 4982.409830056251,4956.579886825269 4972.409830056251,4956.579886825269 4975.5,4966.090451988221 4972.409830056251,4956.579886825269 4962.409830056251,4956.579886825269 4954.319660112502,4950.702034302344 4957.409830056251,4960.212599465295 4965.5,4966.090451988221 4975.5,4966.090451988221 4972.409830056251,4975.601017151172 4969.319660112501,4966.090451988221 4966.229490168752,4975.601017151172 4958.139320225002,4969.723164628247 4950.049150281253,4963.845312105323 4958.139320225002,4969.723164628247 4955.049150281253,4979.233729791199 4945.049150281253,4979.233729791198 4941.958980337503,4988.74429495415 4951.958980337503,4988.74429495415 4941.958980337503,4988.74429495415 4938.868810393754,4998.254860117101 4930.778640450004,5004.1327126400265 4940.778640450004,5004.1327126400265 4948.868810393754,4998.254860117102 4951.958980337503,4988.74429495415 4960.049150281253,4994.622147477075" stroke="black" stroke-linecap="round" stroke-width="1" /><polyline clip-path="url(#border_clip)" fill="none" points="4960.049150281253,4994.622147477075 4950.049150281253,4994.622147477075 4958.139320225002,5000.5 4950.049150281252,5006.3778525229245 4941.958980337503,5012.255705045849 4950.049150281252,5006.3778525229245 4958.139320225002,5012.255705045849 4955.049150281252,5021.766270208801 4963.139320225002,5027.6441227317255 4966.229490168751,5018.133557568774 4963.139320225002,5027.6441227317255 4971.229490168751,5033.52197525465 4974.3196601125,5043.032540417602 4977.40983005625,5033.521975254651 4974.319660112501,5024.011410091699 4966.229490168751,5018.133557568774 4974.319660112501,5012.255705045849 4971.229490168751,5021.766270208801 4979.319660112501,5015.888417685876 4982.40983005625,5025.3989828488275 4985.499999999999,5034.909548011779 4982.40983005625,5025.3989828488275 4990.5,5019.521130325903 4998.590169943749,5025.398982848828 5006.680339887498,5019.521130325904 4998.590169943749,5013.643277802978 5006.680339887498,5019.521130325904 5014.770509831248,5013.643277802979 5024.770509831248,5013.643277802979 5016.680339887499,5007.765425280054 5006.680339887499,5007.765425280054 4998.590169943749,5013.643277802978 4995.5,5004.132712640027 5003.590169943749,5010.010565162952 5000.5,5000.5 5010.5,5000.500000000001 5020.5,5000.500000000001 5010.5,5000.500000000001 5007.409830056251,4990.989434837049 5015.5,4985.1115823141245 5012.409830056251,4975.6010171511725 5004.319660112501,4981.478869674097 5012.409830056251,4975.6010171511725" stroke="black" stroke-linecap="round" stroke-width="1" /><polyline clip-path="url(#border_clip)" fill="none" points="5012.409830056251,4975.6010171511725 5009.319660112502,4966.0904519882215 5012.409830056251,4956.57988682527 5004.319660112502,4962.457739348194 5001.229490168752,4971.968304511146 5004.319660112501,4981.478869674097 4994.319660112501,4981.478869674097 5002.409830056251,4975.6010171511725 4992.409830056251,4975.6010171511725 4995.500000000001,4966.090451988221 4998.59016994375,4956.57988682527 4995.500000000001,4966.090451988221 4985.500000000001,4966.090451988221 4982.409830056251,4956.579886825269 4972.409830056251,4956.579886825269 4975.500000000001,4966.090451988221 4972.409830056251,4956.579886825269 4962.409830056251,4956.579886825269 4954.319660112502,4950.702034302344 4957.409830056251,4960.212599465295 4965.500000000001,4966.090451988221 4975.500000000001,4966.090451988221 4972.409830056251,4975.601017151172 4969.319660112502,4966.090451988221 4966.229490168752,4975.601017151172 4958.139320225003,4969.723164628247 4950.049150281253,4963.845312105322 4958.139320225003,4969.723164628247 4955.049150281253,4979.233729791198 4945.049150281253,4979.233729791198 4941.958980337503,4988.744294954149 4951.958980337503,4988.74429495415 4941.958980337503,4988.744294954149 4938.868810393754,4998.254860117101 4930.778640450004,5004.132712640026 4940.778640450004,5004.132712640026 4948.868810393754,4998.254860117101 4951.958980337503,4988.74429495415 4960.049150281253,4994.622147477075 4950.049150281253,4994.622147477075 4958.139320225002,5000.499999999999 4950.049150281252,5006.377852522924 4941.958980337503,5012.255705045848" stroke="black" stroke-linecap="round" stroke-width="1" /><polyline clip-path="url(#border_clip)" fill="none" points="4941.958980337503,5012.255705045848 4950.049150281252,5006.377852522924 4958.139320225002,5012.255705045849 4955.049150281252,5021.7662702088 4963.139320225001,5027.6441227317255 4966.229490168751,5018.1335575687735 4963.139320225001,5027.6441227317255 4971.22949016875,5033.52197525465 4974.3196601125,5043.032540417602 4977.409830056249,5033.521975254651 4974.3196601125,5024.011410091699 4966.229490168751,5018.1335575687735 4974.3196601125,5012.255705045849 4971.229490168751,5021.766270208801 4979.3196601125,5015.888417685876 4982.40983005625,5025.3989828488275 4985.499999999999,5034.909548011779 4982.40983005625,5025.3989828488275 4990.499999999999,5019.521130325903 4998.590169943749,5025.398982848828 5006.680339887498,5019.521130325904 4998.590169943749,5013.643277802978 5006.680339887498,5019.521130325904 5014.770509831248,5013.643277802979 5024.770509831248,5013.643277802979 5016.680339887499,5007.765425280055 5006.680339887499,5007.765425280054 4998.590169943749,5013.643277802978 4995.5,5004.132712640027 5003.590169943749,5010.010565162952 5000.5,5000.500000000001 5010.5,5000.500000000001 5020.5,5000.500000000001 5010.5,5000.500000000001 5007.409830056251,4990.989434837049 5015.5,4985.1115823141245 5012.409830056251,4975.601017151173 5004.319660112501,4981.478869674098 5012.409830056251,4975.601017151173 5009.319660112502,4966.0904519882215 5012.409830056252,4956.57988682527 5004.319660112502,4962.457739348194 5001.229490168752,4971.968304511146" stroke="black" stroke-linecap="round" stroke-width="1" /><polyline clip-path="url(#border_clip)" fill="none" points="5001.229490168752,4971.968304511146 5004.319660112501,4981.478869674098 4994.319660112501,4981.478869674097 5002.409830056251,4975.6010171511725 4992.409830056251,4975.6010171511725 4995.500000000001,4966.090451988221 4998.590169943751,4956.57988682527 4995.500000000001,4966.090451988221 4985.500000000001,4966.090451988221 4982.409830056252,4956.579886825269 4972.409830056252,4956.579886825269 4975.500000000001,4966.090451988221 4972.409830056252,4956.579886825269 4962.409830056252,4956.579886825269 4954.319660112502,4950.702034302343 4957.409830056252,4960.212599465295 4965.500000000001,4966.09045198822 4975.500000000001,4966.090451988221 4972.409830056251,4975.601017151172 4969.319660112502,4966.090451988221 4966.229490168752,4975.601017151172 4958.139320225003,4969.723164628246 4950.049150281254,4963.845312105322 4958.139320225003,4969.723164628246 4955.049150281253,4979.233729791198 4945.049150281253,4979.233729791198 4941.958980337503,4988.744294954149 4951.958980337503,4988.744294954149 4941.958980337503,4988.744294954149 4938.868810393753,4998.254860117101 4930.778640450004,5004.132712640026 4940.778640450004,5004.132712640026 4948.868810393753,4998.254860117101 4951.958980337503,4988.744294954149 4960.049150281253,4994.622147477075 4950.049150281253,4994.622147477075 4958.139320225002,5000.499999999999 4950.049150281252,5006.377852522924 4941.958980337502,5012.255705045848 4950.049150281252,5006.377852522924 4958.139320225001,5012.255705045849 4955.049150281252,5021.7662702088 4963.139320225001,5027.6441227317255" stroke="black" stroke-linecap="round" stroke-width="1" /><polyline clip-path="url(#border_clip)" fill="none" points="4963.139320225001,5027.6441227317255 4966.229490168751,5018.1335575687735 4963.139320225001,5027.6441227317255 4971.22949016875,5033.52197525465 4974.319660112499,5043.032540417602 4977.409830056249,5033.521975254651 4974.3196601125,5024.011410091699 4966.229490168751,5018.1335575687735 4974.3196601125,5012.255705045849 4971.22949016875,5021.766270208801 4979.3196601125,5015.888417685876 4982.409830056249,5025.398982848828 4985.499999999998,5034.909548011779 4982.409830056249,5025.398982848828 4990.499999999999,5019.521130325904 4998.590169943748,5025.398982848828 5006.680339887498,5019.521130325904 4998.590169943749,5013.643277802979 5006.680339887498,5019.521130325904 5014.770509831248,5013.643277802979 5024.770509831248,5013.64327780298 5016.680339887498,5007.765425280055 5006.680339887498,5007.765425280055 4998.590169943749,5013.643277802979 4995.5,5004.132712640027 5003.590169943749,5010.010565162953 5000.5,5000.500000000001" stroke="black" stroke-linecap="round" stroke-width="1" /></svg>