<?xml version="1.0" encoding="UTF-8"?>
<svg width="1e4px" height="1e4px" baseProfile="full" version="1.1" viewBox="4985.5 4921 107.08 103.03" xmlns="http://www.w3.org/2000/svg">
<defs>
<clipPath id="a">
<rect width="1e4" height="1e4"/>
</clipPath>
</defs>
<polyline points="5000.5 5000.5 5010.5 5000.5 5020.5 5000.5 5030.5 5000.5 5020.5 5000.5 5023.6 4991 5033.6 4991 5043.6 4991 5040.5 4981.5 5037.4 4991 5034.3 4981.5 5042.4 4975.6 5039.3 4966.1 5036.2 4956.6 5044.3 4950.7 5052.4 4944.8 5062.4 4944.8 5065.5 4935.3 5057.4 4941.2 5049.3 4935.3 5057.4 4941.2 5049.3 4935.3 5052.4 4944.8 5049.3 4954.3 5052.4 4963.8 5060.5 4958 5057.4 4948.5 5060.5 4938.9 5052.4 4944.8 5049.3 4935.3 5052.4 4925.8 5060.5 4931.7 5050.5 4931.7 5047.4 4922.2 5057.4 4922.2 5060.5 4931.7 5052.4 4925.8 5042.4 4925.8 5039.3 4935.3 5031.2 4929.4 5021.2 4929.4 5029.3 4923.6 5032.4 4933.1" clip-path="url(#a)" fill="none" stroke="#000" stroke-linecap="round"/>
<polyline points="5032.4 4933.1 5024.3 4927.2 5021.2 4936.7 5018.1 4946.2 5015 4955.7 5018.1 4946.2 5026.2 4952.1 5023.1 4961.6 5020 4971.1 5030 4971.1 5022 4965.2 5032 4965.2 5035 4974.7 5045 4974.7 5055 4974.7 5058.1 4984.3 5061.2 4993.8 5058.1 5003.3 5066.2 5009.2 5063.1 4999.6 5071.2 4993.8 5063.1 4999.6 5071.2 4993.8 5061.2 4993.8 5053.1 4987.9 5043.1 4987.9 5046.2 4997.4 5056.2 4997.4 5064.3 5003.3 5061.2 4993.8 5071.2 4993.8 5079.3 4999.6 5071.2 5005.5 5074.3 4996 5084.3 4996 5081.2 5005.5 5071.2 5005.5 5079.3 4999.6 5082.4 4990.1 5074.3 4984.3 5082.4 4978.4 5085.5 4968.9 5088.6 4978.4" clip-path="url(#a)" fill="none" stroke="#000" stroke-linecap="round"/>
<polyline points="5088.6 4978.4 5078.6 4978.4 5086.7 4972.5 5078.6 4966.6 5070.5 4960.7 5062.4 4954.9 5070.5 4960.7 5062.4 4966.6 5054.3 4960.7 5046.2 4954.9 5043.1 4964.4 5051.2 4958.5 5048.1 4968 5038.1 4968 5035 4977.5 5032 4987 5022 4987 5012 4987 5003.9 4981.2 4995.8 4987 5005.8 4987 5008.9 4996.5 5005.8 4987 5008.9 4996.5 5012 4987 5020 4981.2 5023.1 4971.6 5013.1 4971.6 5010 4981.2 5002 4987 5012 4987 5008.9 4996.5 5000.8 5002.4 4997.7 4992.9 5005.8 4998.8 5002.7 5008.3 4994.6 5002.4 4997.7 4992.9 5000.8 5002.4 5008.9 5008.3 5017 5002.4 5020 5011.9 5028.1 5017.8" clip-path="url(#a)" fill="none" stroke="#000" stroke-linecap="round"/>
<polyline points="5028.1 5017.8 5018.1 5017.8 5021.2 5008.3 5024.3 5017.8 5032.4 5011.9 5040.5 5006.1 5048.6 5000.2 5040.5 5006.1 5037.4 4996.5 5045.5 4990.7 5053.6 4984.8 5045.5 4978.9 5048.6 4988.4 5040.5 4982.5 5043.6 4973 5035.5 4967.2 5027.4 4961.3 5030.5 4951.8 5033.6 4942.3 5041.7 4936.4 5038.6 4926.9 5035.5 4936.4 5025.5 4936.4 5035.5 4936.4 5025.5 4936.4 5033.6 4942.3 5036.7 4951.8 5044.8 4957.6 5047.9 4948.1 5039.8 4942.3 5036.7 4932.7 5033.6 4942.3 5025.5 4936.4 5022.4 4926.9 5032.4 4926.9 5024.3 4932.7 5016.2 4926.9 5024.3 4921 5032.4 4926.9 5022.4 4926.9 5014.3 4932.7 5017.4 4942.3 5007.4 4942.3" clip-path="url(#a)" fill="none" stroke="#000" stroke-linecap="round"/>
<polyline points="5007.4 4942.3 4999.3 4948.1 5002.4 4938.6 5010.5 4944.5 5000.5 4944.5 5003.6 4954 5006.7 4963.5 5009.8 4973 5006.7 4963.5 5016.7 4963.5 5019.8 4973 5022.9 4982.5 5031 4976.7 5021 4976.7 5029 4970.8 5037.1 4976.7 5045.2 4970.8 5053.3 4964.9 5061.4 4970.8 5069.5 4976.7 5072.6 4986.2 5082.6 4986.2 5074.5 4980.3 5077.6 4970.8 5074.5 4980.3 5077.6 4970.8 5069.5 4976.7 5059.5 4976.7 5051.4 4982.5 5059.5 4988.4 5067.6 4982.5 5077.6 4982.5 5069.5 4976.7 5077.6 4970.8 5087.6 4970.8 5084.5 4980.3 5081.4 4970.8 5089.5 4964.9 5092.6 4974.4 5084.5 4980.3 5087.6 4970.8 5084.5 4961.3 5074.5 4961.3" clip-path="url(#a)" fill="none" stroke="#000" stroke-linecap="round"/>
<polyline points="5074.5 4961.3 5077.6 4951.8 5074.5 4942.3 5082.6 4948.1 5074.5 4954 5077.6 4944.5 5067.6 4944.5 5057.6 4944.5 5047.6 4944.5 5057.6 4944.5 5054.5 4954 5044.5 4954 5034.5 4954 5037.6 4963.5 5040.7 4954 5043.8 4963.5 5035.7 4969.4 5038.8 4978.9 5041.9 4988.4 5033.8 4994.3 5025.7 5000.2 5015.7 5000.2 5012.6 5009.7 5020.7 5003.8 5028.8 5009.7 5020.7 5003.8 5028.8 5009.7 5025.7 5000.2 5028.8 4990.7 5025.7 4981.2 5017.6 4987 5020.7 4996.5 5017.6 5006.1 5025.7 5000.2 5028.8 5009.7 5025.7 5019.2 5017.6 5013.3 5027.6 5013.3 5030.7 5022.8 5020.7 5022.8 5017.6 5013.3 5025.7 5019.2 5035.7 5019.2" clip-path="url(#a)" fill="none" stroke="#000" stroke-linecap="round"/>
<polyline points="5035.7 5019.2 5038.8 5009.7 5046.9 5015.6 5056.9 5015.6 5048.8 5021.4 5045.7 5011.9 5053.8 5017.8 5056.9 5008.3 5059.9 4998.8 5063 4989.3 5059.9 4998.8 5051.9 4992.9 5054.9 4983.4 5058 4973.9 5048 4973.9 5056.1 4979.8 5046.1 4979.8 5043 4970.3 5033 4970.3 5023 4970.3 5019.9 4960.7 5016.9 4951.2 5019.9 4941.7 5011.9 4935.8 5014.9 4945.4 5006.9 4951.2 5014.9 4945.4 5006.9 4951.2 5016.9 4951.2 5024.9 4957.1 5034.9 4957.1 5031.9 4947.6 5021.9 4947.6 5013.8 4941.7 5016.9 4951.2 5006.9 4951.2 4998.8 4945.4 5006.9 4939.5 5003.8 4949 4993.8 4949 4996.9 4939.5 5006.9 4939.5 4998.8 4945.4" clip-path="url(#a)" fill="none" stroke="#000" stroke-linecap="round"/>
<polyline points="4998.8 4945.4 4995.7 4954.9 5003.8 4960.7 4995.7 4966.6 4992.6 4976.1 4989.5 4966.6 4999.5 4966.6 4991.4 4972.5 4999.5 4978.4 5007.6 4984.3 5015.7 4990.1 5007.6 4984.3 5015.7 4978.4 5023.8 4984.3 5031.9 4990.1 5034.9 4980.6 5026.9 4986.5 5029.9 4977 5039.9 4977 5043 4967.5 5046.1 4958 5056.1 4958 5066.1 4958 5074.2 4963.8 5082.3 4958 5072.3 4958 5069.2 4948.5 5072.3 4958 5069.2 4948.5 5066.1 4958 5058 4963.8 5054.9 4973.4 5064.9 4973.4 5068 4963.8 5076.1 4958 5066.1 4958 5069.2 4948.5 5077.3 4942.6 5080.4 4952.1 5072.3 4946.2 5075.4 4936.7 5083.5 4942.6 5080.4 4952.1" clip-path="url(#a)" fill="none" stroke="#000" stroke-linecap="round"/>
<polyline points="5080.4 4952.1 5077.3 4942.6 5069.2 4936.7 5061.1 4942.6 5058 4933.1 5049.9 4927.2 5059.9 4927.2 5056.9 4936.7 5053.8 4927.2 5045.7 4933.1 5037.6 4938.9 5029.5 4944.8 5037.6 4938.9 5040.7 4948.5 5032.6 4954.3 5024.5 4960.2 5032.6 4966.1 5029.5 4956.6 5037.6 4962.5 5034.5 4972 5042.6 4977.8 5050.7 4983.7 5047.6 4993.2 5044.5 5002.7 5036.4 5008.6 5039.5 5018.1 5042.6 5008.6 5052.6 5008.6 5042.6 5008.6 5052.6 5008.6 5044.5 5002.7 5041.4 4993.2 5033.3 4987.4 5030.2 4996.9 5038.3 5002.7 5041.4 5012.3 5044.5 5002.7 5052.6 5008.6 5055.7 5018.1 5045.7 5018.1 5053.8 5012.3 5061.9 5018.1 5053.8 5024" clip-path="url(#a)" fill="none" stroke="#000" stroke-linecap="round"/>
<polyline points="5053.8 5024 5045.7 5018.1 5055.7 5018.1 5063.8 5012.3 5060.7 5002.7 5070.7 5002.7 5078.8 4996.9 5075.7 5006.4 5067.6 5000.5 5077.6 5000.5 5074.5 4991 5071.4 4981.5 5068.3 4972 5071.4 4981.5 5061.4 4981.5 5058.3 4972 5055.2 4962.5 5047.1 4968.3 5057.1 4968.3 5049 4974.2 5041 4968.3 5032.9 4974.2 5024.8 4980.1 5016.7 4974.2 5008.6 4968.3 5005.5 4958.8 4995.5 4958.8 5003.6 4964.7 5000.5 4974.2 5003.6 4964.7 5000.5 4974.2 5008.6 4968.3 5018.6 4968.3 5026.7 4962.5 5018.6 4956.6 5010.5 4962.5 5000.5 4962.5 5008.6 4968.3 5000.5 4974.2 4990.5 4974.2 4993.6 4964.7 4996.7 4974.2 4988.6 4980.1" clip-path="url(#a)" fill="none" stroke="#000" stroke-linecap="round"/>
<polyline points="4988.6 4980.1 4985.5 4970.6 4993.6 4964.7 4990.5 4974.2 4993.6 4983.7 5003.6 4983.7 5000.5 4993.2 5003.6 5002.7 4995.5 4996.9 5003.6 4991 5000.5 5000.5 5010.5 5000.5 5020.5 5000.5 5030.5 5000.5 5020.5 5000.5 5023.6 4991 5033.6 4991 5043.6 4991 5040.5 4981.5 5037.4 4991 5034.3 4981.5 5042.4 4975.6 5039.3 4966.1 5036.2 4956.6 5044.3 4950.7 5052.4 4944.8 5062.4 4944.8 5065.5 4935.3 5057.4 4941.2 5049.3 4935.3 5057.4 4941.2 5049.3 4935.3 5052.4 4944.8 5049.3 4954.3 5052.4 4963.8 5060.5 4958 5057.4 4948.5 5060.5 4938.9 5052.4 4944.8 5049.3 4935.3 5052.4 4925.8 5060.5 4931.7 5050.5 4931.7" clip-path="url(#a)" fill="none" stroke="#000" stroke-linecap="round"/>
<polyline points="5050.5 4931.7 5047.4 4922.2 5057.4 4922.2 5060.5 4931.7 5052.4 4925.8 5042.4 4925.8 5039.3 4935.3 5031.2 4929.4 5021.2 4929.4 5029.3 4923.6 5032.4 4933.1 5024.3 4927.2 5021.2 4936.7 5018.1 4946.2 5015 4955.7 5018.1 4946.2 5026.2 4952.1 5023.1 4961.6 5020 4971.1 5030 4971.1 5022 4965.2 5032 4965.2 5035 4974.7 5045 4974.7 5055 4974.7 5058.1 4984.3 5061.2 4993.8 5058.1 5003.3 5066.2 5009.2 5063.1 4999.6 5071.2 4993.8 5063.1 4999.6 5071.2 4993.8 5061.2 4993.8 5053.1 4987.9 5043.1 4987.9 5046.2 4997.4 5056.2 4997.4 5064.3 5003.3 5061.2 4993.8 5071.2 4993.8 5079.3 4999.6 5071.2 5005.5" clip-path="url(#a)" fill="none" stroke="#000" stroke-linecap="round"/>
<polyline points="5071.2 5005.5 5074.3 4996 5084.3 4996 5081.2 5005.5 5071.2 5005.5 5079.3 4999.6 5082.4 4990.1 5074.3 4984.3 5082.4 4978.4 5085.5 4968.9 5088.6 4978.4 5078.6 4978.4 5086.7 4972.5 5078.6 4966.6 5070.5 4960.7 5062.4 4954.9 5070.5 4960.7 5062.4 4966.6 5054.3 4960.7 5046.2 4954.9 5043.1 4964.4 5051.2 4958.5 5048.1 4968 5038.1 4968 5035 4977.5 5032 4987 5022 4987 5012 4987 5003.9 4981.2 4995.8 4987 5005.8 4987 5008.9 4996.5 5005.8 4987 5008.9 4996.5 5012 4987 5020 4981.2 5023.1 4971.6 5013.1 4971.6 5010 4981.2 5002 4987 5012 4987 5008.9 4996.5 5000.8 5002.4" clip-path="url(#a)" fill="none" stroke="#000" stroke-linecap="round"/>
<polyline points="5000.8 5002.4 4997.7 4992.9 5005.8 4998.8 5002.7 5008.3 4994.6 5002.4 4997.7 4992.9 5000.8 5002.4 5008.9 5008.3 5017 5002.4 5020 5011.9 5028.1 5017.8 5018.1 5017.8 5021.2 5008.3 5024.3 5017.8 5032.4 5011.9 5040.5 5006.1 5048.6 5000.2 5040.5 5006.1 5037.4 4996.5 5045.5 4990.7 5053.6 4984.8 5045.5 4978.9 5048.6 4988.4 5040.5 4982.5 5043.6 4973 5035.5 4967.2 5027.4 4961.3 5030.5 4951.8 5033.6 4942.3 5041.7 4936.4 5038.6 4926.9 5035.5 4936.4 5025.5 4936.4 5035.5 4936.4 5025.5 4936.4 5033.6 4942.3 5036.7 4951.8 5044.8 4957.6 5047.9 4948.1 5039.8 4942.3 5036.7 4932.7 5033.6 4942.3 5025.5 4936.4" clip-path="url(#a)" fill="none" stroke="#000" stroke-linecap="round"/>
<polyline points="5025.5 4936.4 5022.4 4926.9 5032.4 4926.9 5024.3 4932.7 5016.2 4926.9 5024.3 4921 5032.4 4926.9 5022.4 4926.9 5014.3 4932.7 5017.4 4942.3 5007.4 4942.3 4999.3 4948.1 5002.4 4938.6 5010.5 4944.5 5000.5 4944.5 5003.6 4954 5006.7 4963.5 5009.8 4973 5006.7 4963.5 5016.7 4963.5 5019.8 4973 5022.9 4982.5 5031 4976.7 5021 4976.7 5029 4970.8 5037.1 4976.7 5045.2 4970.8 5053.3 4964.9 5061.4 4970.8 5069.5 4976.7 5072.6 4986.2 5082.6 4986.2 5074.5 4980.3 5077.6 4970.8 5074.5 4980.3 5077.6 4970.8 5069.5 4976.7 5059.5 4976.7 5051.4 4982.5 5059.5 4988.4 5067.6 4982.5 5077.6 4982.5 5069.5 4976.7" clip-path="url(#a)" fill="none" stroke="#000" stroke-linecap="round"/>
<polyline points="5069.5 4976.7 5077.6 4970.8 5087.6 4970.8 5084.5 4980.3 5081.4 4970.8 5089.5 4964.9 5092.6 4974.4 5084.5 4980.3 5087.6 4970.8 5084.5 4961.3 5074.5 4961.3 5077.6 4951.8 5074.5 4942.3 5082.6 4948.1 5074.5 4954 5077.6 4944.5 5067.6 4944.5 5057.6 4944.5 5047.6 4944.5 5057.6 4944.5 5054.5 4954 5044.5 4954 5034.5 4954 5037.6 4963.5 5040.7 4954 5043.8 4963.5 5035.7 4969.4 5038.8 4978.9 5041.9 4988.4 5033.8 4994.3 5025.7 5000.2 5015.7 5000.2 5012.6 5009.7 5020.7 5003.8 5028.8 5009.7 5020.7 5003.8 5028.8 5009.7 5025.7 5000.2 5028.8 4990.7 5025.7 4981.2 5017.6 4987 5020.7 4996.5 5017.6 5006.1" clip-path="url(#a)" fill="none" stroke="#000" stroke-linecap="round"/>
<polyline points="5017.6 5006.1 5025.7 5000.2 5028.8 5009.7 5025.7 5019.2 5017.6 5013.3 5027.6 5013.3 5030.7 5022.8 5020.7 5022.8 5017.6 5013.3 5025.7 5019.2 5035.7 5019.2 5038.8 5009.7 5046.9 5015.6 5056.9 5015.6 5048.8 5021.4 5045.7 5011.9 5053.8 5017.8 5056.9 5008.3 5059.9 4998.8 5063 4989.3 5059.9 4998.8 5051.9 4992.9 5054.9 4983.4 5058 4973.9 5048 4973.9 5056.1 4979.8 5046.1 4979.8 5043 4970.3 5033 4970.3 5023 4970.3 5019.9 4960.7 5016.9 4951.2 5019.9 4941.7 5011.9 4935.8 5014.9 4945.4 5006.9 4951.2 5014.9 4945.4 5006.9 4951.2 5016.9 4951.2 5024.9 4957.1 5034.9 4957.1 5031.9 4947.6 5021.9 4947.6" clip-path="url(#a)" fill="none" stroke="#000" stroke-linecap="round"/>
<polyline points="5021.9 4947.6 5013.8 4941.7 5016.9 4951.2 5006.9 4951.2 4998.8 4945.4 5006.9 4939.5 5003.8 4949 4993.8 4949 4996.9 4939.5 5006.9 4939.5 4998.8 4945.4 4995.7 4954.9 5003.8 4960.7 4995.7 4966.6 4992.6 4976.1 4989.5 4966.6 4999.5 4966.6 4991.4 4972.5 4999.5 4978.4 5007.6 4984.3 5015.7 4990.1 5007.6 4984.3 5015.7 4978.4 5023.8 4984.3 5031.9 4990.1 5034.9 4980.6 5026.9 4986.5 5029.9 4977 5039.9 4977 5043 4967.5 5046.1 4958 5056.1 4958 5066.1 4958 5074.2 4963.8 5082.3 4958 5072.3 4958 5069.2 4948.5 5072.3 4958 5069.2 4948.5 5066.1 4958 5058 4963.8 5054.9 4973.4 5064.9 4973.4" clip-path="url(#a)" fill="none" stroke="#000" stroke-linecap="round"/>
<polyline points="5064.9 4973.4 5068 4963.8 5076.1 4958 5066.1 4958 5069.2 4948.5 5077.3 4942.6 5080.4 4952.1 5072.3 4946.2 5075.4 4936.7 5083.5 4942.6 5080.4 4952.1 5077.3 4942.6 5069.2 4936.7 5061.1 4942.6 5058 4933.1 5049.9 4927.2 5059.9 4927.2 5056.9 4936.7 5053.8 4927.2 5045.7 4933.1 5037.6 4938.9 5029.5 4944.8 5037.6 4938.9 5040.7 4948.5 5032.6 4954.3 5024.5 4960.2 5032.6 4966.1 5029.5 4956.6 5037.6 4962.5 5034.5 4972 5042.6 4977.8 5050.7 4983.7 5047.6 4993.2 5044.5 5002.7 5036.4 5008.6 5039.5 5018.1 5042.6 5008.6 5052.6 5008.6 5042.6 5008.6 5052.6 5008.6 5044.5 5002.7 5041.4 4993.2 5033.3 4987.4" clip-path="url(#a)" fill="none" stroke="#000" stroke-linecap="round"/>
<polyline points="5033.3 4987.4 5030.2 4996.9 5038.3 5002.7 5041.4 5012.3 5044.5 5002.7 5052.6 5008.6 5055.7 5018.1 5045.7 5018.1 5053.8 5012.3 5061.9 5018.1 5053.8 5024 5045.7 5018.1 5055.7 5018.1 5063.8 5012.3 5060.7 5002.7 5070.7 5002.7 5078.8 4996.9 5075.7 5006.4 5067.6 5000.5 5077.6 5000.5 5074.5 4991 5071.4 4981.5 5068.3 4972 5071.4 4981.5 5061.4 4981.5 5058.3 4972 5055.2 4962.5 5047.1 4968.3 5057.1 4968.3 5049 4974.2 5041 4968.3 5032.9 4974.2 5024.8 4980.1 5016.7 4974.2 5008.6 4968.3 5005.5 4958.8 4995.5 4958.8 5003.6 4964.7 5000.5 4974.2 5003.6 4964.7 5000.5 4974.2 5008.6 4968.3 5018.6 4968.3" clip-path="url(#a)" fill="none" stroke="#000" stroke-linecap="round"/>
<polyline points="5018.6 4968.3 5026.7 4962.5 5018.6 4956.6 5010.5 4962.5 5000.5 4962.5 5008.6 4968.3 5000.5 4974.2 4990.5 4974.2 4993.6 4964.7 4996.7 4974.2 4988.6 4980.1 4985.5 4970.6 4993.6 4964.7 4990.5 4974.2 4993.6 4983.7 5003.6 4983.7 5000.5 4993.2 5003.6 5002.7 4995.5 4996.9 5003.6 4991 5000.5 5000.5 5010.5 5000.5 5020.5 5000.5 5030.5 5000.5 5020.5 5000.5 5023.6 4991 5033.6 4991 5043.6 4991 5040.5 4981.5 5037.4 4991 5034.3 4981.5 5042.4 4975.6 5039.3 4966.1 5036.2 4956.6 5044.3 4950.7 5052.4 4944.8 5062.4 4944.8 5065.5 4935.3 5057.4 4941.2 5049.3 4935.3 5057.4 4941.2 5049.3 4935.3 5052.4 4944.8" clip-path="url(#a)" fill="none" stroke="#000" stroke-linecap="round"/>
<polyline points="5052.4 4944.8 5049.3 4954.3 5052.4 4963.8 5060.5 4958 5057.4 4948.5 5060.5 4938.9 5052.4 4944.8 5049.3 4935.3 5052.4 4925.8 5060.5 4931.7 5050.5 4931.7 5047.4 4922.2 5057.4 4922.2 5060.5 4931.7 5052.4 4925.8 5042.4 4925.8 5039.3 4935.3 5031.2 4929.4 5021.2 4929.4 5029.3 4923.6 5032.4 4933.1 5024.3 4927.2 5021.2 4936.7 5018.1 4946.2 5015 4955.7 5018.1 4946.2 5026.2 4952.1 5023.1 4961.6 5020 4971.1 5030 4971.1 5022 4965.2 5032 4965.2 5035 4974.7 5045 4974.7 5055 4974.7 5058.1 4984.3 5061.2 4993.8 5058.1 5003.3 5066.2 5009.2 5063.1 4999.6 5071.2 4993.8 5063.1 4999.6 5071.2 4993.8" clip-path="url(#a)" fill="none" stroke="#000" stroke-linecap="round"/>
<polyline points="5071.2 4993.8 5061.2 4993.8 5053.1 4987.9 5043.1 4987.9 5046.2 4997.4 5056.2 4997.4 5064.3 5003.3 5061.2 4993.8 5071.2 4993.8 5079.3 4999.6 5071.2 5005.5 5074.3 4996 5084.3 4996 5081.2 5005.5 5071.2 5005.5 5079.3 4999.6 5082.4 4990.1 5074.3 4984.3 5082.4 4978.4 5085.5 4968.9 5088.6 4978.4 5078.6 4978.4 5086.7 4972.5 5078.6 4966.6 5070.5 4960.7 5062.4 4954.9 5070.5 4960.7 5062.4 4966.6 5054.3 4960.7 5046.2 4954.9 5043.1 4964.4 5051.2 4958.5 5048.1 4968 5038.1 4968 5035 4977.5 5032 4987 5022 4987 5012 4987 5003.9 4981.2 4995.8 4987 5005.8 4987 5008.9 4996.5 5005.8 4987" clip-path="url(#a)" fill="none" stroke="#000" stroke-linecap="round"/>
<polyline points="5005.8 4987 5008.9 4996.5 5012 4987 5020 4981.2 5023.1 4971.6 5013.1 4971.6 5010 4981.2 5002 4987 5012 4987 5008.9 4996.5 5000.8 5002.4 4997.7 4992.9 5005.8 4998.8 5002.7 5008.3 4994.6 5002.4 4997.7 4992.9 5000.8 5002.4 5008.9 5008.3 5017 5002.4 5020 5011.9 5028.1 5017.8 5018.1 5017.8 5021.2 5008.3 5024.3 5017.8 5032.4 5011.9 5040.5 5006.1 5048.6 5000.2 5040.5 5006.1 5037.4 4996.5 5045.5 4990.7 5053.6 4984.8 5045.5 4978.9 5048.6 4988.4 5040.5 4982.5 5043.6 4973 5035.5 4967.2 5027.4 4961.3 5030.5 4951.8 5033.6 4942.3 5041.7 4936.4 5038.6 4926.9 5035.5 4936.4 5025.5 4936.4" clip-path="url(#a)" fill="none" stroke="#000" stroke-linecap="round"/>
<polyline points="5025.5 4936.4 5035.5 4936.4 5025.5 4936.4 5033.6 4942.3 5036.7 4951.8 5044.8 4957.6 5047.9 4948.1 5039.8 4942.3 5036.7 4932.7 5033.6 4942.3 5025.5 4936.4 5022.4 4926.9 5032.4 4926.9 5024.3 4932.7 5016.2 4926.9 5024.3 4921 5032.4 4926.9 5022.4 4926.9 5014.3 4932.7 5017.4 4942.3 5007.4 4942.3 4999.3 4948.1 5002.4 4938.6 5010.5 4944.5 5000.5 4944.5 5003.6 4954 5006.7 4963.5 5009.8 4973 5006.7 4963.5 5016.7 4963.5 5019.8 4973 5022.9 4982.5 5031 4976.7 5021 4976.7 5029 4970.8 5037.1 4976.7 5045.2 4970.8 5053.3 4964.9 5061.4 4970.8 5069.5 4976.7 5072.6 4986.2 5082.6 4986.2 5074.5 4980.3" clip-path="url(#a)" fill="none" stroke="#000" stroke-linecap="round"/>
<polyline points="5074.5 4980.3 5077.6 4970.8 5074.5 4980.3 5077.6 4970.8 5069.5 4976.7 5059.5 4976.7 5051.4 4982.5 5059.5 4988.4 5067.6 4982.5 5077.6 4982.5 5069.5 4976.7 5077.6 4970.8 5087.6 4970.8 5084.5 4980.3 5081.4 4970.8 5089.5 4964.9 5092.6 4974.4 5084.5 4980.3 5087.6 4970.8 5084.5 4961.3 5074.5 4961.3 5077.6 4951.8 5074.5 4942.3 5082.6 4948.1 5074.5 4954 5077.6 4944.5 5067.6 4944.5 5057.6 4944.5 5047.6 4944.5 5057.6 4944.5 5054.5 4954 5044.5 4954 5034.5 4954 5037.6 4963.5 5040.7 4954 5043.8 4963.5 5035.7 4969.4 5038.8 4978.9 5041.9 4988.4 5033.8 4994.3 5025.7 5000.2 5015.7 5000.2 5012.6 5009.7" clip-path="url(#a)" fill="none" stroke="#000" stroke-linecap="round"/>
<polyline points="5012.6 5009.7 5020.7 5003.8 5028.8 5009.7 5020.7 5003.8 5028.8 5009.7 5025.7 5000.2 5028.8 4990.7 5025.7 4981.2 5017.6 4987 5020.7 4996.5 5017.6 5006.1 5025.7 5000.2 5028.8 5009.7 5025.7 5019.2 5017.6 5013.3 5027.6 5013.3 5030.7 5022.8 5020.7 5022.8 5017.6 5013.3 5025.7 5019.2 5035.7 5019.2 5038.8 5009.7 5046.9 5015.6 5056.9 5015.6 5048.8 5021.4 5045.7 5011.9 5053.8 5017.8 5056.9 5008.3 5059.9 4998.8 5063 4989.3 5059.9 4998.8 5051.9 4992.9 5054.9 4983.4 5058 4973.9 5048 4973.9 5056.1 4979.8 5046.1 4979.8 5043 4970.3 5033 4970.3 5023 4970.3 5019.9 4960.7 5016.9 4951.2 5019.9 4941.7" clip-path="url(#a)" fill="none" stroke="#000" stroke-linecap="round"/>
<polyline points="5019.9 4941.7 5011.9 4935.8 5014.9 4945.4 5006.9 4951.2 5014.9 4945.4 5006.9 4951.2 5016.9 4951.2 5024.9 4957.1 5034.9 4957.1 5031.9 4947.6 5021.9 4947.6 5013.8 4941.7 5016.9 4951.2 5006.9 4951.2 4998.8 4945.4 5006.9 4939.5 5003.8 4949 4993.8 4949 4996.9 4939.5 5006.9 4939.5 4998.8 4945.4 4995.7 4954.9 5003.8 4960.7 4995.7 4966.6 4992.6 4976.1 4989.5 4966.6 4999.5 4966.6 4991.4 4972.5 4999.5 4978.4 5007.6 4984.3 5015.7 4990.1 5007.6 4984.3 5015.7 4978.4 5023.8 4984.3 5031.9 4990.1 5034.9 4980.6 5026.9 4986.5 5029.9 4977 5039.9 4977 5043 4967.5 5046.1 4958 5056.1 4958 5066.1 4958" clip-path="url(#a)" fill="none" stroke="#000" stroke-linecap="round"/>
<polyline points="5066.1 4958 5074.2 4963.8 5082.3 4958 5072.3 4958 5069.2 4948.5 5072.3 4958 5069.2 4948.5 5066.1 4958 5058 4963.8 5054.9 4973.4 5064.9 4973.4 5068 4963.8 5076.1 4958 5066.1 4958 5069.2 4948.5 5077.3 4942.6 5080.4 4952.1 5072.3 4946.2 5075.4 4936.7 5083.5 4942.6 5080.4 4952.1 5077.3 4942.6 5069.2 4936.7 5061.1 4942.6 5058 4933.1 5049.9 4927.2 5059.9 4927.2 5056.9 4936.7 5053.8 4927.2 5045.7 4933.1 5037.6 4938.9 5029.5 4944.8 5037.6 4938.9 5040.7 4948.5 5032.6 4954.3 5024.5 4960.2 5032.6 4966.1 5029.5 4956.6 5037.6 4962.5 5034.5 4972 5042.6 4977.8 5050.7 4983.7 5047.6 4993.2" clip-path="url(#a)" fill="none" stroke="#000" stroke-linecap="round"/>
<polyline points="5047.6 4993.2 5044.5 5002.7 5036.4 5008.6 5039.5 5018.1 5042.6 5008.6 5052.6 5008.6 5042.6 5008.6 5052.6 5008.6 5044.5 5002.7 5041.4 4993.2 5033.3 4987.4 5030.2 4996.9 5038.3 5002.7 5041.4 5012.3 5044.5 5002.7 5052.6 5008.6 5055.7 5018.1 5045.7 5018.1 5053.8 5012.3 5061.9 5018.1 5053.8 5024 5045.7 5018.1 5055.7 5018.1 5063.8 5012.3 5060.7 5002.7 5070.7 5002.7 5078.8 4996.9 5075.7 5006.4 5067.6 5000.5 5077.6 5000.5 5074.5 4991 5071.4 4981.5 5068.3 4972 5071.4 4981.5 5061.4 4981.5 5058.3 4972 5055.2 4962.5 5047.1 4968.3 5057.1 4968.3 5049 4974.2 5041 4968.3 5032.9 4974.2 5024.8 4980.1" clip-path="url(#a)" fill="none" stroke="#000" stroke-linecap="round"/>
<polyline points="5024.8 4980.1 5016.7 4974.2 5008.6 4968.3 5005.5 4958.8 4995.5 4958.8 5003.6 4964.7 5000.5 4974.2 5003.6 4964.7 5000.5 4974.2 5008.6 4968.3 5018.6 4968.3 5026.7 4962.5 5018.6 4956.6 5010.5 4962.5 5000.5 4962.5 5008.6 4968.3 5000.5 4974.2 4990.5 4974.2 4993.6 4964.7 4996.7 4974.2 4988.6 4980.1 4985.5 4970.6 4993.6 4964.7 4990.5 4974.2 4993.6 4983.7 5003.6 4983.7 5000.5 4993.2 5003.6 5002.7 4995.5 4996.9 5003.6 4991 5000.5 5000.5 5010.5 5000.5 5020.5 5000.5 5030.5 5000.5 5020.5 5000.5 5023.6 4991 5033.6 4991 5043.6 4991 5040.5 4981.5 5037.4 4991 5034.3 4981.5 5042.4 4975.6 5039.3 4966.1" clip-path="url(#a)" fill="none" stroke="#000" stroke-linecap="round"/>
<polyline points="5039.3 4966.1 5036.2 4956.6 5044.3 4950.7 5052.4 4944.8 5062.4 4944.8 5065.5 4935.3 5057.4 4941.2 5049.3 4935.3 5057.4 4941.2 5049.3 4935.3 5052.4 4944.8 5049.3 4954.3 5052.4 4963.8 5060.5 4958 5057.4 4948.5 5060.5 4938.9 5052.4 4944.8 5049.3 4935.3 5052.4 4925.8 5060.5 4931.7 5050.5 4931.7 5047.4 4922.2 5057.4 4922.2 5060.5 4931.7 5052.4 4925.8 5042.4 4925.8 5039.3 4935.3 5031.2 4929.4 5021.2 4929.4 5029.3 4923.6 5032.4 4933.1 5024.3 4927.2 5021.2 4936.7 5018.1 4946.2 5015 4955.7 5018.1 4946.2 5026.2 4952.1 5023.1 4961.6 5020 4971.1 5030 4971.1 5022 4965.2 5032 4965.2 5035 4974.7" clip-path="url(#a)" fill="none" stroke="#000" stroke-linecap="round"/>
<polyline points="5035 4974.7 5045 4974.7 5055 4974.7 5058.1 4984.3 5061.2 4993.8 5058.1 5003.3 5066.2 5009.2 5063.1 4999.6 5071.2 4993.8 5063.1 4999.6 5071.2 4993.8 5061.2 4993.8 5053.1 4987.9 5043.1 4987.9 5046.2 4997.4 5056.2 4997.4 5064.3 5003.3 5061.2 4993.8 5071.2 4993.8 5079.3 4999.6 5071.2 5005.5 5074.3 4996 5084.3 4996 5081.2 5005.5 5071.2 5005.5 5079.3 4999.6 5082.4 4990.1 5074.3 4984.3 5082.4 4978.4 5085.5 4968.9 5088.6 4978.4 5078.6 4978.4 5086.7 4972.5 5078.6 4966.6 5070.5 4960.7 5062.4 4954.9 5070.5 4960.7 5062.4 4966.6 5054.3 4960.7 5046.2 4954.9 5043.1 4964.4 5051.2 4958.5 5048.1 4968" clip-path="url(#a)" fill="none" stroke="#000" stroke-linecap="round"/>
<polyline points="5048.1 4968 5038.1 4968 5035 4977.5 5032 4987 5022 4987 5012 4987 5003.9 4981.2 4995.8 4987 5005.8 4987 5008.9 4996.5 5005.8 4987 5008.9 4996.5 5012 4987 5020 4981.2 5023.1 4971.6 5013.1 4971.6 5010 4981.2 5002 4987 5012 4987 5008.9 4996.5 5000.8 5002.4 4997.7 4992.9 5005.8 4998.8 5002.7 5008.3 4994.6 5002.4 4997.7 4992.9 5000.8 5002.4 5008.9 5008.3 5017 5002.4 5020 5011.9 5028.1 5017.8 5018.1 5017.8 5021.2 5008.3 5024.3 5017.8 5032.4 5011.9 5040.5 5006.1 5048.6 5000.2 5040.5 5006.1 5037.4 4996.5 5045.5 4990.7 5053.6 4984.8 5045.5 4978.9 5048.6 4988.4" clip-path="url(#a)" fill="none" stroke="#000" stroke-linecap="round"/>
<polyline points="5048.6 4988.4 5040.5 4982.5 5043.6 4973 5035.5 4967.2 5027.4 4961.3 5030.5 4951.8 5033.6 4942.3 5041.7 4936.4 5038.6 4926.9 5035.5 4936.4 5025.5 4936.4 5035.5 4936.4 5025.5 4936.4 5033.6 4942.3 5036.7 4951.8 5044.8 4957.6 5047.9 4948.1 5039.8 4942.3 5036.7 4932.7 5033.6 4942.3 5025.5 4936.4 5022.4 4926.9 5032.4 4926.9 5024.3 4932.7 5016.2 4926.9 5024.3 4921 5032.4 4926.9 5022.4 4926.9 5014.3 4932.7 5017.4 4942.3 5007.4 4942.3 4999.3 4948.1 5002.4 4938.6 5010.5 4944.5 5000.5 4944.5 5003.6 4954 5006.7 4963.5 5009.8 4973 5006.7 4963.5 5016.7 4963.5 5019.8 4973 5022.9 4982.5 5031 4976.7" clip-path="url(#a)" fill="none" stroke="#000" stroke-linecap="round"/>
<polyline points="5031 4976.7 5021 4976.7 5029 4970.8 5037.1 4976.7 5045.2 4970.8 5053.3 4964.9 5061.4 4970.8 5069.5 4976.7 5072.6 4986.2 5082.6 4986.2 5074.5 4980.3 5077.6 4970.8 5074.5 4980.3 5077.6 4970.8 5069.5 4976.7 5059.5 4976.7 5051.4 4982.5 5059.5 4988.4 5067.6 4982.5 5077.6 4982.5 5069.5 4976.7 5077.6 4970.8 5087.6 4970.8 5084.5 4980.3 5081.4 4970.8 5089.5 4964.9 5092.6 4974.4 5084.5 4980.3 5087.6 4970.8 5084.5 4961.3 5074.5 4961.3 5077.6 4951.8 5074.5 4942.3 5082.6 4948.1 5074.5 4954 5077.6 4944.5 5067.6 4944.5 5057.6 4944.5 5047.6 4944.5 5057.6 4944.5 5054.5 4954 5044.5 4954 5034.5 4954" clip-path="url(#a)" fill="none" stroke="#000" stroke-linecap="round"/>
<polyline points="5034.5 4954 5037.6 4963.5 5040.7 4954 5043.8 4963.5 5035.7 4969.4 5038.8 4978.9 5041.9 4988.4 5033.8 4994.3 5025.7 5000.2 5015.7 5000.2 5012.6 5009.7 5020.7 5003.8 5028.8 5009.7 5020.7 5003.8 5028.8 5009.7 5025.7 5000.2 5028.8 4990.7 5025.7 4981.2 5017.6 4987 5020.7 4996.5 5017.6 5006.1 5025.7 5000.2 5028.8 5009.7 5025.7 5019.2 5017.6 5013.3 5027.6 5013.3 5030.7 5022.8 5020.7 5022.8 5017.6 5013.3 5025.7 5019.2 5035.7 5019.2 5038.8 5009.7 5046.9 5015.6 5056.9 5015.6 5048.8 5021.4 5045.7 5011.9 5053.8 5017.8 5056.9 5008.3 5059.9 4998.8 5063 4989.3 5059.9 4998.8 5051.9 4992.9 5054.9 4983.4" clip-path="url(#a)" fill="none" stroke="#000" stroke-linecap="round"/>
<polyline points="5054.9 4983.4 5058 4973.9 5048 4973.9 5056.1 4979.8 5046.1 4979.8 5043 4970.3 5033 4970.3 5023 4970.3 5019.9 4960.7 5016.9 4951.2 5019.9 4941.7 5011.9 4935.8 5014.9 4945.4 5006.9 4951.2 5014.9 4945.4 5006.9 4951.2 5016.9 4951.2 5024.9 4957.1 5034.9 4957.1 5031.9 4947.6 5021.9 4947.6 5013.8 4941.7 5016.9 4951.2 5006.9 4951.2 4998.8 4945.4 5006.9 4939.5 5003.8 4949 4993.8 4949 4996.9 4939.5 5006.9 4939.5 4998.8 4945.4 4995.7 4954.9 5003.8 4960.7 4995.7 4966.6 4992.6 4976.1 4989.5 4966.6 4999.5 4966.6 4991.4 4972.5 4999.5 4978.4 5007.6 4984.3 5015.7 4990.1 5007.6 4984.3 5015.7 4978.4" clip-path="url(#a)" fill="none" stroke="#000" stroke-linecap="round"/>
<polyline points="5015.7 4978.4 5023.8 4984.3 5031.9 4990.1 5034.9 4980.6 5026.9 4986.5 5029.9 4977 5039.9 4977 5043 4967.5 5046.1 4958 5056.1 4958 5066.1 4958 5074.2 4963.8 5082.3 4958 5072.3 4958 5069.2 4948.5 5072.3 4958 5069.2 4948.5 5066.1 4958 5058 4963.8 5054.9 4973.4 5064.9 4973.4 5068 4963.8 5076.1 4958 5066.1 4958 5069.2 4948.5 5077.3 4942.6 5080.4 4952.1 5072.3 4946.2 5075.4 4936.7 5083.5 4942.6 5080.4 4952.1 5077.3 4942.6 5069.2 4936.7 5061.1 4942.6 5058 4933.1 5049.9 4927.2 5059.9 4927.2 5056.9 4936.7 5053.8 4927.2 5045.7 4933.1 5037.6 4938.9 5029.5 4944.8 5037.6 4938.9" clip-path="url(#a)" fill="none" stroke="#000" stroke-linecap="round"/>
<polyline points="5037.6 4938.9 5040.7 4948.5 5032.6 4954.3 5024.5 4960.2 5032.6 4966.1 5029.5 4956.6 5037.6 4962.5 5034.5 4972 5042.6 4977.8 5050.7 4983.7 5047.6 4993.2 5044.5 5002.7 5036.4 5008.6 5039.5 5018.1 5042.6 5008.6 5052.6 5008.6 5042.6 5008.6 5052.6 5008.6 5044.5 5002.7 5041.4 4993.2 5033.3 4987.4 5030.2 4996.9 5038.3 5002.7 5041.4 5012.3 5044.5 5002.7 5052.6 5008.6 5055.7 5018.1 5045.7 5018.1 5053.8 5012.3 5061.9 5018.1 5053.8 5024 5045.7 5018.1 5055.7 5018.1 5063.8 5012.3 5060.7 5002.7 5070.7 5002.7 5078.8 4996.9 5075.7 5006.4 5067.6 5000.5 5077.6 5000.5 5074.5 4991 5071.4 4981.5 5068.3 4972" clip-path="url(#a)" fill="none" stroke="#000" stroke-linecap="round"/>
<polyline points="5068.3 4972 5071.4 4981.5 5061.4 4981.5 5058.3 4972 5055.2 4962.5 5047.1 4968.3 5057.1 4968.3 5049 4974.2 5041 4968.3 5032.9 4974.2 5024.8 4980.1 5016.7 4974.2 5008.6 4968.3 5005.5 4958.8 4995.5 4958.8 5003.6 4964.7 5000.5 4974.2 5003.6 4964.7 5000.5 4974.2 5008.6 4968.3 5018.6 4968.3 5026.7 4962.5 5018.6 4956.6 5010.5 4962.5 5000.5 4962.5 5008.6 4968.3 5000.5 4974.2 4990.5 4974.2 4993.6 4964.7 4996.7 4974.2 4988.6 4980.1 4985.5 4970.6 4993.6 4964.7 4990.5 4974.2 4993.6 4983.7 5003.6 4983.7 5000.5 4993.2 5003.6 5002.7 4995.5 4996.9 5003.6 4991 5000.5 5000.5 5010.5 5000.5 5020.5 5000.5" clip-path="url(#a)" fill="none" stroke="#000" stroke-linecap="round"/>
<polyline points="5020.5 5000.5 5030.5 5000.5 5020.5 5000.5 5023.6 4991 5033.6 4991 5043.6 4991 5040.5 4981.5 5037.4 4991 5034.3 4981.5 5042.4 4975.6 5039.3 4966.1 5036.2 4956.6 5044.3 4950.7 5052.4 4944.8 5062.4 4944.8 5065.5 4935.3 5057.4 4941.2 5049.3 4935.3 5057.4 4941.2 5049.3 4935.3 5052.4 4944.8 5049.3 4954.3 5052.4 4963.8 5060.5 4958 5057.4 4948.5 5060.5 4938.9 5052.4 4944.8 5049.3 4935.3 5052.4 4925.8 5060.5 4931.7 5050.5 4931.7 5047.4 4922.2 5057.4 4922.2 5060.5 4931.7 5052.4 4925.8 5042.4 4925.8 5039.3 4935.3 5031.2 4929.4 5021.2 4929.4 5029.3 4923.6 5032.4 4933.1 5024.3 4927.2 5021.2 4936.7" clip-path="url(#a)" fill="none" stroke="#000" stroke-linecap="round"/>
<polyline points="5021.2 4936.7 5018.1 4946.2 5015 4955.7 5018.1 4946.2 5026.2 4952.1 5023.1 4961.6 5020 4971.1 5030 4971.1 5022 4965.2 5032 4965.2 5035 4974.7 5045 4974.7 5055 4974.7 5058.1 4984.3 5061.2 4993.8 5058.1 5003.3 5066.2 5009.2 5063.1 4999.6 5071.2 4993.8 5063.1 4999.6 5071.2 4993.8 5061.2 4993.8 5053.1 4987.9 5043.1 4987.9 5046.2 4997.4 5056.2 4997.4 5064.3 5003.3 5061.2 4993.8 5071.2 4993.8 5079.3 4999.6 5071.2 5005.5 5074.3 4996 5084.3 4996 5081.2 5005.5 5071.2 5005.5 5079.3 4999.6 5082.4 4990.1 5074.3 4984.3 5082.4 4978.4 5085.5 4968.9 5088.6 4978.4 5078.6 4978.4 5086.7 4972.5" clip-path="url(#a)" fill="none" stroke="#000" stroke-linecap="round"/>
<polyline points="5086.7 4972.5 5078.6 4966.6 5070.5 4960.7 5062.4 4954.9 5070.5 4960.7 5062.4 4966.6 5054.3 4960.7 5046.2 4954.9 5043.1 4964.4 5051.2 4958.5 5048.1 4968 5038.1 4968 5035 4977.5 5032 4987 5022 4987 5012 4987 5003.9 4981.2 4995.8 4987 5005.8 4987 5008.9 4996.5 5005.8 4987 5008.9 4996.5 5012 4987 5020 4981.2 5023.1 4971.6 5013.1 4971.6 5010 4981.2 5002 4987 5012 4987 5008.9 4996.5 5000.8 5002.4 4997.7 4992.9 5005.8 4998.8 5002.7 5008.3 4994.6 5002.4 4997.7 4992.9 5000.8 5002.4 5008.9 5008.3 5017 5002.4 5020 5011.9 5028.1 5017.8 5018.1 5017.8 5021.2 5008.3" clip-path="url(#a)" fill="none" stroke="#000" stroke-linecap="round"/>
<polyline points="5021.2 5008.3 5024.3 5017.8 5032.4 5011.9 5040.5 5006.1 5048.6 5000.2 5040.5 5006.1 5037.4 4996.5 5045.5 4990.7 5053.6 4984.8 5045.5 4978.9 5048.6 4988.4 5040.5 4982.5 5043.6 4973 5035.5 4967.2 5027.4 4961.3 5030.5 4951.8 5033.6 4942.3 5041.7 4936.4 5038.6 4926.9 5035.5 4936.4 5025.5 4936.4 5035.5 4936.4 5025.5 4936.4 5033.6 4942.3 5036.7 4951.8 5044.8 4957.6 5047.9 4948.1 5039.8 4942.3 5036.7 4932.7 5033.6 4942.3 5025.5 4936.4 5022.4 4926.9 5032.4 4926.9 5024.3 4932.7 5016.2 4926.9 5024.3 4921 5032.4 4926.9 5022.4 4926.9 5014.3 4932.7 5017.4 4942.3 5007.4 4942.3 4999.3 4948.1 5002.4 4938.6" clip-path="url(#a)" fill="none" stroke="#000" stroke-linecap="round"/>
<polyline points="5002.4 4938.6 5010.5 4944.5 5000.5 4944.5 5003.6 4954 5006.7 4963.5 5009.8 4973 5006.7 4963.5 5016.7 4963.5 5019.8 4973 5022.9 4982.5 5031 4976.7 5021 4976.7 5029 4970.8 5037.1 4976.7 5045.2 4970.8 5053.3 4964.9 5061.4 4970.8 5069.5 4976.7 5072.6 4986.2 5082.6 4986.2 5074.5 4980.3 5077.6 4970.8 5074.5 4980.3 5077.6 4970.8 5069.5 4976.7 5059.5 4976.7 5051.4 4982.5 5059.5 4988.4 5067.6 4982.5 5077.6 4982.5 5069.5 4976.7 5077.6 4970.8 5087.6 4970.8 5084.5 4980.3 5081.4 4970.8 5089.5 4964.9 5092.6 4974.4 5084.5 4980.3 5087.6 4970.8 5084.5 4961.3 5074.5 4961.3 5077.6 4951.8 5074.5 4942.3" clip-path="url(#a)" fill="none" stroke="#000" stroke-linecap="round"/>
<polyline points="5074.5 4942.3 5082.6 4948.1 5074.5 4954 5077.6 4944.5 5067.6 4944.5 5057.6 4944.5 5047.6 4944.5 5057.6 4944.5 5054.5 4954 5044.5 4954 5034.5 4954 5037.6 4963.5 5040.7 4954 5043.8 4963.5 5035.7 4969.4 5038.8 4978.9 5041.9 4988.4 5033.8 4994.3 5025.7 5000.2 5015.7 5000.2 5012.6 5009.7 5020.7 5003.8 5028.8 5009.7 5020.7 5003.8 5028.8 5009.7 5025.7 5000.2 5028.8 4990.7 5025.7 4981.2 5017.6 4987 5020.7 4996.5 5017.6 5006.1 5025.7 5000.2 5028.8 5009.7 5025.7 5019.2 5017.6 5013.3 5027.6 5013.3 5030.7 5022.8 5020.7 5022.8 5017.6 5013.3 5025.7 5019.2 5035.7 5019.2 5038.8 5009.7 5046.9 5015.6" clip-path="url(#a)" fill="none" stroke="#000" stroke-linecap="round"/>
<polyline points="5046.9 5015.6 5056.9 5015.6 5048.8 5021.4 5045.7 5011.9 5053.8 5017.8 5056.9 5008.3 5059.9 4998.8 5063 4989.3 5059.9 4998.8 5051.9 4992.9 5054.9 4983.4 5058 4973.9 5048 4973.9 5056.1 4979.8 5046.1 4979.8 5043 4970.3 5033 4970.3 5023 4970.3 5019.9 4960.7 5016.9 4951.2 5019.9 4941.7 5011.9 4935.8 5014.9 4945.4 5006.9 4951.2 5014.9 4945.4 5006.9 4951.2 5016.9 4951.2 5024.9 4957.1 5034.9 4957.1 5031.9 4947.6 5021.9 4947.6 5013.8 4941.7 5016.9 4951.2 5006.9 4951.2 4998.8 4945.4 5006.9 4939.5 5003.8 4949 4993.8 4949 4996.9 4939.5 5006.9 4939.5 4998.8 4945.4 4995.7 4954.9 5003.8 4960.7" clip-path="url(#a)" fill="none" stroke="#000" stroke-linecap="round"/>
<polyline points="5003.8 4960.7 4995.7 4966.6 4992.6 4976.1 4989.5 4966.6 4999.5 4966.6 4991.4 4972.5 4999.5 4978.4 5007.6 4984.3 5015.7 4990.1 5007.6 4984.3 5015.7 4978.4 5023.8 4984.3 5031.9 4990.1 5034.9 4980.6 5026.9 4986.5 5029.9 4977 5039.9 4977 5043 4967.5 5046.1 4958 5056.1 4958 5066.1 4958 5074.2 4963.8 5082.3 4958 5072.3 4958 5069.2 4948.5 5072.3 4958 5069.2 4948.5 5066.1 4958 5058 4963.8 5054.9 4973.4 5064.9 4973.4 5068 4963.8 5076.1 4958 5066.1 4958 5069.2 4948.5 5077.3 4942.6 5080.4 4952.1 5072.3 4946.2 5075.4 4936.7 5083.5 4942.6 5080.4 4952.1 5077.3 4942.6 5069.2 4936.7" clip-path="url(#a)" fill="none" stroke="#000" stroke-linecap="round"/>
<polyline points="5069.2 4936.7 5061.1 4942.6 5058 4933.1 5049.9 4927.2 5059.9 4927.2 5056.9 4936.7 5053.8 4927.2 5045.7 4933.1 5037.6 4938.9 5029.5 4944.8 5037.6 4938.9 5040.7 4948.5 5032.6 4954.3 5024.5 4960.2 5032.6 4966.1 5029.5 4956.6 5037.6 4962.5 5034.5 4972 5042.6 4977.8 5050.7 4983.7 5047.6 4993.2 5044.5 5002.7 5036.4 5008.6 5039.5 5018.1 5042.6 5008.6 5052.6 5008.6 5042.6 5008.6 5052.6 5008.6 5044.5 5002.7 5041.4 4993.2 5033.3 4987.4 5030.2 4996.9 5038.3 5002.7 5041.4 5012.3 5044.5 5002.7 5052.6 5008.6 5055.7 5018.1 5045.7 5018.1 5053.8 5012.3 5061.9 5018.1 5053.8 5024 5045.7 5018.1 5055.7 5018.1" clip-path="url(#a)" fill="none" stroke="#000" stroke-linecap="round"/>
<polyline points="5055.7 5018.1 5063.8 5012.3 5060.7 5002.7 5070.7 5002.7 5078.8 4996.9 5075.7 5006.4 5067.6 5000.5 5077.6 5000.5 5074.5 4991 5071.4 4981.5 5068.3 4972 5071.4 4981.5 5061.4 4981.5 5058.3 4972 5055.2 4962.5 5047.1 4968.3 5057.1 4968.3 5049 4974.2 5041 4968.3 5032.9 4974.2 5024.8 4980.1 5016.7 4974.2 5008.6 4968.3 5005.5 4958.8 4995.5 4958.8 5003.6 4964.7 5000.5 4974.2 5003.6 4964.7 5000.5 4974.2 5008.6 4968.3 5018.6 4968.3 5026.7 4962.5 5018.6 4956.6 5010.5 4962.5 5000.5 4962.5 5008.6 4968.3 5000.5 4974.2 4990.5 4974.2 4993.6 4964.7 4996.7 4974.2 4988.6 4980.1 4985.5 4970.6 4993.6 4964.7" clip-path="url(#a)" fill="none" stroke="#000" stroke-linecap="round"/>
<polyline points="4993.6 4964.7 4990.5 4974.2 4993.6 4983.7 5003.6 4983.7 5000.5 4993.2 5003.6 5002.7 4995.5 4996.9 5003.6 4991 5000.5 5000.5 5010.5 5000.5 5020.5 5000.5 5030.5 5000.5 5020.5 5000.5 5023.6 4991 5033.6 4991 5043.6 4991 5040.5 4981.5 5037.4 4991 5034.3 4981.5 5042.4 4975.6 5039.3 4966.1 5036.2 4956.6 5044.3 4950.7 5052.4 4944.8 5062.4 4944.8 5065.5 4935.3 5057.4 4941.2 5049.3 4935.3 5057.4 4941.2 5049.3 4935.3 5052.4 4944.8 5049.3 4954.3 5052.4 4963.8 5060.5 4958 5057.4 4948.5 5060.5 4938.9 5052.4 4944.8 5049.3 4935.3 5052.4 4925.8 5060.5 4931.7 5050.5 4931.7 5047.4 4922.2 5057.4 4922.2" clip-path="url(#a)" fill="none" stroke="#000" stroke-linecap="round"/>
<polyline points="5057.4 4922.2 5060.5 4931.7 5052.4 4925.8 5042.4 4925.8 5039.3 4935.3 5031.2 4929.4 5021.2 4929.4 5029.3 4923.6 5032.4 4933.1 5024.3 4927.2 5021.2 4936.7 5018.1 4946.2 5015 4955.7 5018.1 4946.2 5026.2 4952.1 5023.1 4961.6 5020 4971.1 5030 4971.1 5022 4965.2 5032 4965.2 5035 4974.7 5045 4974.7 5055 4974.7 5058.1 4984.3 5061.2 4993.8 5058.1 5003.3 5066.2 5009.2 5063.1 4999.6 5071.2 4993.8 5063.1 4999.6 5071.2 4993.8 5061.2 4993.8 5053.1 4987.9 5043.1 4987.9 5046.2 4997.4 5056.2 4997.4 5064.3 5003.3 5061.2 4993.8 5071.2 4993.8 5079.3 4999.6 5071.2 5005.5 5074.3 4996 5084.3 4996" clip-path="url(#a)" fill="none" stroke="#000" stroke-linecap="round"/>
<polyline points="5084.3 4996 5081.2 5005.5 5071.2 5005.5 5079.3 4999.6 5082.4 4990.1 5074.3 4984.3 5082.4 4978.4 5085.5 4968.9 5088.6 4978.4 5078.6 4978.4 5086.7 4972.5 5078.6 4966.6 5070.5 4960.7 5062.4 4954.9 5070.5 4960.7 5062.4 4966.6 5054.3 4960.7 5046.2 4954.9 5043.1 4964.4 5051.2 4958.5 5048.1 4968 5038.1 4968 5035 4977.5 5032 4987 5022 4987 5012 4987 5003.9 4981.2 4995.8 4987 5005.8 4987 5008.9 4996.5 5005.8 4987 5008.9 4996.5 5012 4987 5020 4981.2 5023.1 4971.6 5013.1 4971.6 5010 4981.2 5002 4987 5012 4987 5008.9 4996.5 5000.8 5002.4 4997.7 4992.9 5005.8 4998.8" clip-path="url(#a)" fill="none" stroke="#000" stroke-linecap="round"/>
<polyline points="5005.8 4998.8 5002.7 5008.3 4994.6 5002.4 4997.7 4992.9 5000.8 5002.4 5008.9 5008.3 5017 5002.4 5020 5011.9 5028.1 5017.8 5018.1 5017.8 5021.2 5008.3 5024.3 5017.8 5032.4 5011.9 5040.5 5006.1 5048.6 5000.2 5040.5 5006.1 5037.4 4996.5 5045.5 4990.7 5053.6 4984.8 5045.5 4978.9 5048.6 4988.4 5040.5 4982.5 5043.6 4973 5035.5 4967.2 5027.4 4961.3 5030.5 4951.8 5033.6 4942.3 5041.7 4936.4 5038.6 4926.9 5035.5 4936.4 5025.5 4936.4 5035.5 4936.4 5025.5 4936.4 5033.6 4942.3 5036.7 4951.8 5044.8 4957.6 5047.9 4948.1 5039.8 4942.3 5036.7 4932.7 5033.6 4942.3 5025.5 4936.4 5022.4 4926.9 5032.4 4926.9" clip-path="url(#a)" fill="none" stroke="#000" stroke-linecap="round"/>
<polyline points="5032.4 4926.9 5024.3 4932.7 5016.2 4926.9 5024.3 4921 5032.4 4926.9 5022.4 4926.9 5014.3 4932.7 5017.4 4942.3 5007.4 4942.3 4999.3 4948.1 5002.4 4938.6 5010.5 4944.5 5000.5 4944.5 5003.6 4954 5006.7 4963.5 5009.8 4973 5006.7 4963.5 5016.7 4963.5 5019.8 4973 5022.9 4982.5 5031 4976.7 5021 4976.7 5029 4970.8 5037.1 4976.7 5045.2 4970.8 5053.3 4964.9 5061.4 4970.8 5069.5 4976.7 5072.6 4986.2 5082.6 4986.2 5074.5 4980.3 5077.6 4970.8 5074.5 4980.3 5077.6 4970.8 5069.5 4976.7 5059.5 4976.7 5051.4 4982.5 5059.5 4988.4 5067.6 4982.5 5077.6 4982.5 5069.5 4976.7 5077.6 4970.8 5087.6 4970.8" clip-path="url(#a)" fill="none" stroke="#000" stroke-linecap="round"/>
<polyline points="5087.6 4970.8 5084.5 4980.3 5081.4 4970.8 5089.5 4964.9 5092.6 4974.4 5084.5 4980.3 5087.6 4970.8 5084.5 4961.3 5074.5 4961.3 5077.6 4951.8 5074.5 4942.3 5082.6 4948.1 5074.5 4954 5077.6 4944.5 5067.6 4944.5 5057.6 4944.5 5047.6 4944.5 5057.6 4944.5 5054.5 4954 5044.5 4954 5034.5 4954 5037.6 4963.5 5040.7 4954 5043.8 4963.5 5035.7 4969.4 5038.8 4978.9 5041.9 4988.4 5033.8 4994.3 5025.7 5000.2 5015.7 5000.2 5012.6 5009.7 5020.7 5003.8 5028.8 5009.7 5020.7 5003.8 5028.8 5009.7 5025.7 5000.2 5028.8 4990.7 5025.7 4981.2 5017.6 4987 5020.7 4996.5 5017.6 5006.1 5025.7 5000.2 5028.8 5009.7" clip-path="url(#a)" fill="none" stroke="#000" stroke-linecap="round"/>
<polyline points="5028.8 5009.7 5025.7 5019.2 5017.6 5013.3 5027.6 5013.3 5030.7 5022.8 5020.7 5022.8 5017.6 5013.3 5025.7 5019.2 5035.7 5019.2 5038.8 5009.7 5046.9 5015.6 5056.9 5015.6 5048.8 5021.4 5045.7 5011.9 5053.8 5017.8 5056.9 5008.3 5059.9 4998.8 5063 4989.3 5059.9 4998.8 5051.9 4992.9 5054.9 4983.4 5058 4973.9 5048 4973.9 5056.1 4979.8 5046.1 4979.8 5043 4970.3 5033 4970.3 5023 4970.3 5019.9 4960.7 5016.9 4951.2 5019.9 4941.7 5011.9 4935.8 5014.9 4945.4 5006.9 4951.2 5014.9 4945.4 5006.9 4951.2 5016.9 4951.2 5024.9 4957.1 5034.9 4957.1 5031.9 4947.6 5021.9 4947.6 5013.8 4941.7 5016.9 4951.2" clip-path="url(#a)" fill="none" stroke="#000" stroke-linecap="round"/>
<polyline points="5016.9 4951.2 5006.9 4951.2 4998.8 4945.4 5006.9 4939.5 5003.8 4949 4993.8 4949 4996.9 4939.5 5006.9 4939.5 4998.8 4945.4 4995.7 4954.9 5003.8 4960.7 4995.7 4966.6 4992.6 4976.1 4989.5 4966.6 4999.5 4966.6 4991.4 4972.5 4999.5 4978.4 5007.6 4984.3 5015.7 4990.1 5007.6 4984.3 5015.7 4978.4 5023.8 4984.3 5031.9 4990.1 5034.9 4980.6 5026.9 4986.5 5029.9 4977 5039.9 4977 5043 4967.5 5046.1 4958 5056.1 4958 5066.1 4958 5074.2 4963.8 5082.3 4958 5072.3 4958 5069.2 4948.5 5072.3 4958 5069.2 4948.5 5066.1 4958 5058 4963.8 5054.9 4973.4 5064.9 4973.4 5068 4963.8 5076.1 4958" clip-path="url(#a)" fill="none" stroke="#000" stroke-linecap="round"/>
<polyline points="5076.1 4958 5066.1 4958 5069.2 4948.5 5077.3 4942.6 5080.4 4952.1 5072.3 4946.2 5075.4 4936.7 5083.5 4942.6 5080.4 4952.1 5077.3 4942.6 5069.2 4936.7 5061.1 4942.6 5058 4933.1 5049.9 4927.2 5059.9 4927.2 5056.9 4936.7 5053.8 4927.2 5045.7 4933.1 5037.6 4938.9 5029.5 4944.8 5037.6 4938.9 5040.7 4948.5 5032.6 4954.3 5024.5 4960.2 5032.6 4966.1 5029.5 4956.6 5037.6 4962.5 5034.5 4972 5042.6 4977.8 5050.7 4983.7 5047.6 4993.2 5044.5 5002.7 5036.4 5008.6 5039.5 5018.1 5042.6 5008.6 5052.6 5008.6 5042.6 5008.6 5052.6 5008.6 5044.5 5002.7 5041.4 4993.2 5033.3 4987.4 5030.2 4996.9 5038.3 5002.7" clip-path="url(#a)" fill="none" stroke="#000" stroke-linecap="round"/>
<polyline points="5038.3 5002.7 5041.4 5012.3 5044.5 5002.7 5052.6 5008.6 5055.7 5018.1 5045.7 5018.1 5053.8 5012.3 5061.9 5018.1 5053.8 5024 5045.7 5018.1 5055.7 5018.1 5063.8 5012.3 5060.7 5002.7 5070.7 5002.7 5078.8 4996.9 5075.7 5006.4 5067.6 5000.5 5077.6 5000.5 5074.5 4991 5071.4 4981.5 5068.3 4972 5071.4 4981.5 5061.4 4981.5 5058.3 4972 5055.2 4962.5 5047.1 4968.3 5057.1 4968.3 5049 4974.2 5041 4968.3 5032.9 4974.2 5024.8 4980.1 5016.7 4974.2 5008.6 4968.3 5005.5 4958.8 4995.5 4958.8 5003.6 4964.7 5000.5 4974.2 5003.6 4964.7 5000.5 4974.2 5008.6 4968.3 5018.6 4968.3 5026.7 4962.5 5018.6 4956.6" clip-path="url(#a)" fill="none" stroke="#000" stroke-linecap="round"/>
<polyline points="5018.6 4956.6 5010.5 4962.5 5000.5 4962.5 5008.6 4968.3 5000.5 4974.2 4990.5 4974.2 4993.6 4964.7 4996.7 4974.2 4988.6 4980.1 4985.5 4970.6 4993.6 4964.7 4990.5 4974.2 4993.6 4983.7 5003.6 4983.7 5000.5 4993.2 5003.6 5002.7 4995.5 4996.9 5003.6 4991 5000.5 5000.5 5010.5 5000.5 5020.5 5000.5 5030.5 5000.5 5020.5 5000.5 5023.6 4991 5033.6 4991 5043.6 4991 5040.5 4981.5 5037.4 4991 5034.3 4981.5 5042.4 4975.6 5039.3 4966.1 5036.2 4956.6 5044.3 4950.7 5052.4 4944.8 5062.4 4944.8 5065.5 4935.3 5057.4 4941.2 5049.3 4935.3 5057.4 4941.2 5049.3 4935.3 5052.4 4944.8 5049.3 4954.3 5052.4 4963.8" clip-path="url(#a)" fill="none" stroke="#000" stroke-linecap="round"/>
<polyline points="5052.4 4963.8 5060.5 4958 5057.4 4948.5 5060.5 4938.9 5052.4 4944.8 5049.3 4935.3 5052.4 4925.8 5060.5 4931.7 5050.5 4931.7 5047.4 4922.2 5057.4 4922.2 5060.5 4931.7 5052.4 4925.8 5042.4 4925.8 5039.3 4935.3 5031.2 4929.4 5021.2 4929.4 5029.3 4923.6 5032.4 4933.1 5024.3 4927.2 5021.2 4936.7 5018.1 4946.2 5015 4955.7 5018.1 4946.2 5026.2 4952.1 5023.1 4961.6 5020 4971.1 5030 4971.1 5022 4965.2 5032 4965.2 5035 4974.7 5045 4974.7 5055 4974.7 5058.1 4984.3 5061.2 4993.8 5058.1 5003.3 5066.2 5009.2 5063.1 4999.6 5071.2 4993.8 5063.1 4999.6 5071.2 4993.8 5061.2 4993.8 5053.1 4987.9" clip-path="url(#a)" fill="none" stroke="#000" stroke-linecap="round"/>
<polyline points="5053.1 4987.9 5043.1 4987.9 5046.2 4997.4 5056.2 4997.4 5064.3 5003.3 5061.2 4993.8 5071.2 4993.8 5079.3 4999.6 5071.2 5005.5 5074.3 4996 5084.3 4996 5081.2 5005.5 5071.2 5005.5 5079.3 4999.6 5082.4 4990.1 5074.3 4984.3 5082.4 4978.4 5085.5 4968.9 5088.6 4978.4 5078.6 4978.4 5086.7 4972.5 5078.6 4966.6 5070.5 4960.7 5062.4 4954.9 5070.5 4960.7 5062.4 4966.6 5054.3 4960.7 5046.2 4954.9 5043.1 4964.4 5051.2 4958.5 5048.1 4968 5038.1 4968 5035 4977.5 5032 4987 5022 4987 5012 4987 5003.9 4981.2 4995.8 4987 5005.8 4987 5008.9 4996.5 5005.8 4987 5008.9 4996.5 5012 4987" clip-path="url(#a)" fill="none" stroke="#000" stroke-linecap="round"/>
<polyline points="5012 4987 5020 4981.2 5023.1 4971.6 5013.1 4971.6 5010 4981.2 5002 4987 5012 4987 5008.9 4996.5 5000.8 5002.4 4997.7 4992.9 5005.8 4998.8 5002.7 5008.3 4994.6 5002.4 4997.7 4992.9 5000.8 5002.4 5008.9 5008.3 5017 5002.4 5020 5011.9 5028.1 5017.8 5018.1 5017.8 5021.2 5008.3 5024.3 5017.8 5032.4 5011.9 5040.5 5006.1 5048.6 5000.2 5040.5 5006.1 5037.4 4996.5 5045.5 4990.7 5053.6 4984.8 5045.5 4978.9 5048.6 4988.4 5040.5 4982.5 5043.6 4973 5035.5 4967.2 5027.4 4961.3 5030.5 4951.8 5033.6 4942.3 5041.7 4936.4 5038.6 4926.9 5035.5 4936.4 5025.5 4936.4 5035.5 4936.4 5025.5 4936.4" clip-path="url(#a)" fill="none" stroke="#000" stroke-linecap="round"/>
<polyline points="5025.5 4936.4 5033.6 4942.3 5036.7 4951.8 5044.8 4957.6 5047.9 4948.1 5039.8 4942.3 5036.7 4932.7 5033.6 4942.3 5025.5 4936.4 5022.4 4926.9 5032.4 4926.9 5024.3 4932.7 5016.2 4926.9 5024.3 4921 5032.4 4926.9 5022.4 4926.9 5014.3 4932.7 5017.4 4942.3 5007.4 4942.3 4999.3 4948.1 5002.4 4938.6 5010.5 4944.5 5000.5 4944.5 5003.6 4954 5006.7 4963.5 5009.8 4973 5006.7 4963.5 5016.7 4963.5 5019.8 4973 5022.9 4982.5 5031 4976.7 5021 4976.7 5029 4970.8 5037.1 4976.7 5045.2 4970.8 5053.3 4964.9 5061.4 4970.8 5069.5 4976.7 5072.6 4986.2 5082.6 4986.2 5074.5 4980.3 5077.6 4970.8 5074.5 4980.3" clip-path="url(#a)" fill="none" stroke="#000" stroke-linecap="round"/>
<polyline points="5074.5 4980.3 5077.6 4970.8 5069.5 4976.7 5059.5 4976.7 5051.4 4982.5 5059.5 4988.4 5067.6 4982.5 5077.6 4982.5 5069.5 4976.7 5077.6 4970.8 5087.6 4970.8 5084.5 4980.3 5081.4 4970.8 5089.5 4964.9 5092.6 4974.4 5084.5 4980.3 5087.6 4970.8 5084.5 4961.3 5074.5 4961.3 5077.6 4951.8 5074.5 4942.3 5082.6 4948.1 5074.5 4954 5077.6 4944.5 5067.6 4944.5 5057.6 4944.5 5047.6 4944.5 5057.6 4944.5 5054.5 4954 5044.5 4954 5034.5 4954 5037.6 4963.5 5040.7 4954 5043.8 4963.5 5035.7 4969.4 5038.8 4978.9 5041.9 4988.4 5033.8 4994.3 5025.7 5000.2 5015.7 5000.2 5012.6 5009.7 5020.7 5003.8 5028.8 5009.7" clip-path="url(#a)" fill="none" stroke="#000" stroke-linecap="round"/>
<polyline points="5028.8 5009.7 5020.7 5003.8 5028.8 5009.7 5025.7 5000.2 5028.8 4990.7 5025.7 4981.2 5017.6 4987 5020.7 4996.5 5017.6 5006.1 5025.7 5000.2 5028.8 5009.7 5025.7 5019.2 5017.6 5013.3 5027.6 5013.3 5030.7 5022.8 5020.7 5022.8 5017.6 5013.3 5025.7 5019.2 5035.7 5019.2 5038.8 5009.7 5046.9 5015.6 5056.9 5015.6 5048.8 5021.4 5045.7 5011.9 5053.8 5017.8 5056.9 5008.3 5059.9 4998.8 5063 4989.3 5059.9 4998.8 5051.9 4992.9 5054.9 4983.4 5058 4973.9 5048 4973.9 5056.1 4979.8 5046.1 4979.8 5043 4970.3 5033 4970.3 5023 4970.3 5019.9 4960.7 5016.9 4951.2 5019.9 4941.7 5011.9 4935.8 5014.9 4945.4" clip-path="url(#a)" fill="none" stroke="#000" stroke-linecap="round"/>
<polyline points="5014.9 4945.4 5006.9 4951.2 5014.9 4945.4 5006.9 4951.2 5016.9 4951.2 5024.9 4957.1 5034.9 4957.1 5031.9 4947.6 5021.9 4947.6 5013.8 4941.7 5016.9 4951.2 5006.9 4951.2 4998.8 4945.4 5006.9 4939.5 5003.8 4949 4993.8 4949 4996.9 4939.5 5006.9 4939.5 4998.8 4945.4 4995.7 4954.9 5003.8 4960.7 4995.7 4966.6 4992.6 4976.1 4989.5 4966.6 4999.5 4966.6 4991.4 4972.5 4999.5 4978.4 5007.6 4984.3 5015.7 4990.1 5007.6 4984.3 5015.7 4978.4 5023.8 4984.3 5031.9 4990.1 5034.9 4980.6 5026.9 4986.5 5029.9 4977 5039.9 4977 5043 4967.5 5046.1 4958 5056.1 4958 5066.1 4958 5074.2 4963.8 5082.3 4958" clip-path="url(#a)" fill="none" stroke="#000" stroke-linecap="round"/>
<polyline points="5082.3 4958 5072.3 4958 5069.2 4948.5 5072.3 4958 5069.2 4948.5 5066.1 4958 5058 4963.8 5054.9 4973.4 5064.9 4973.4 5068 4963.8 5076.1 4958 5066.1 4958 5069.2 4948.5 5077.3 4942.6 5080.4 4952.1 5072.3 4946.2 5075.4 4936.7 5083.5 4942.6 5080.4 4952.1 5077.3 4942.6 5069.2 4936.7 5061.1 4942.6 5058 4933.1 5049.9 4927.2 5059.9 4927.2 5056.9 4936.7 5053.8 4927.2 5045.7 4933.1 5037.6 4938.9 5029.5 4944.8 5037.6 4938.9 5040.7 4948.5 5032.6 4954.3 5024.5 4960.2 5032.6 4966.1 5029.5 4956.6 5037.6 4962.5 5034.5 4972 5042.6 4977.8 5050.7 4983.7 5047.6 4993.2 5044.5 5002.7 5036.4 5008.6" clip-path="url(#a)" fill="none" stroke="#000" stroke-linecap="round"/>
<polyline points="5036.4 5008.6 5039.5 5018.1 5042.6 5008.6 5052.6 5008.6 5042.6 5008.6 5052.6 5008.6 5044.5 5002.7 5041.4 4993.2 5033.3 4987.4 5030.2 4996.9 5038.3 5002.7 5041.4 5012.3 5044.5 5002.7 5052.6 5008.6 5055.7 5018.1 5045.7 5018.1 5053.8 5012.3 5061.9 5018.1 5053.8 5024 5045.7 5018.1 5055.7 5018.1 5063.8 5012.3 5060.7 5002.7 5070.7 5002.7 5078.8 4996.9 5075.7 5006.4 5067.6 5000.5 5077.6 5000.5 5074.5 4991 5071.4 4981.5 5068.3 4972 5071.4 4981.5 5061.4 4981.5 5058.3 4972 5055.2 4962.5 5047.1 4968.3 5057.1 4968.3 5049 4974.2 5041 4968.3 5032.9 4974.2 5024.8 4980.1 5016.7 4974.2 5008.6 4968.3" clip-path="url(#a)" fill="none" stroke="#000" stroke-linecap="round"/>
<polyline points="5008.6 4968.3 5005.5 4958.8 4995.5 4958.8 5003.6 4964.7 5000.5 4974.2 5003.6 4964.7 5000.5 4974.2 5008.6 4968.3 5018.6 4968.3 5026.7 4962.5 5018.6 4956.6 5010.5 4962.5 5000.5 4962.5 5008.6 4968.3 5000.5 4974.2 4990.5 4974.2 4993.6 4964.7 4996.7 4974.2 4988.6 4980.1 4985.5 4970.6 4993.6 4964.7 4990.5 4974.2 4993.6 4983.7 5003.6 4983.7 5000.5 4993.2 5003.6 5002.7 4995.5 4996.9 5003.6 4991 5000.5 5000.5 5010.5 5000.5 5020.5 5000.5 5030.5 5000.5 5020.5 5000.5 5023.6 4991 5033.6 4991 5043.6 4991 5040.5 4981.5 5037.4 4991 5034.3 4981.5 5042.4 4975.6 5039.3 4966.1 5036.2 4956.6 5044.3 4950.7" clip-path="url(#a)" fill="none" stroke="#000" stroke-linecap="round"/>
<polyline points="5044.3 4950.7 5052.4 4944.8 5062.4 4944.8 5065.5 4935.3 5057.4 4941.2 5049.3 4935.3 5057.4 4941.2 5049.3 4935.3 5052.4 4944.8 5049.3 4954.3 5052.4 4963.8 5060.5 4958 5057.4 4948.5 5060.5 4938.9 5052.4 4944.8 5049.3 4935.3 5052.4 4925.8 5060.5 4931.7 5050.5 4931.7 5047.4 4922.2 5057.4 4922.2 5060.5 4931.7 5052.4 4925.8 5042.4 4925.8 5039.3 4935.3 5031.2 4929.4 5021.2 4929.4 5029.3 4923.6 5032.4 4933.1 5024.3 4927.2 5021.2 4936.7 5018.1 4946.2 5015 4955.7 5018.1 4946.2 5026.2 4952.1 5023.1 4961.6 5020 4971.1 5030 4971.1 5022 4965.2 5032 4965.2 5035 4974.7 5045 4974.7 5055 4974.7" clip-path="url(#a)" fill="none" stroke="#000" stroke-linecap="round"/>
<polyline points="5055 4974.7 5058.1 4984.3 5061.2 4993.8 5058.1 5003.3 5066.2 5009.2 5063.1 4999.6 5071.2 4993.8 5063.1 4999.6 5071.2 4993.8 5061.2 4993.8 5053.1 4987.9 5043.1 4987.9 5046.2 4997.4 5056.2 4997.4 5064.3 5003.3 5061.2 4993.8 5071.2 4993.8 5079.3 4999.6 5071.2 5005.5 5074.3 4996 5084.3 4996 5081.2 5005.5 5071.2 5005.5 5079.3 4999.6 5082.4 4990.1 5074.3 4984.3 5082.4 4978.4 5085.5 4968.9 5088.6 4978.4 5078.6 4978.4 5086.7 4972.5 5078.6 4966.6 5070.5 4960.7 5062.4 4954.9 5070.5 4960.7 5062.4 4966.6 5054.3 4960.7 5046.2 4954.9 5043.1 4964.4 5051.2 4958.5 5048.1 4968 5038.1 4968 5035 4977.5" clip-path="url(#a)" fill="none" stroke="#000" stroke-linecap="round"/>
<polyline points="5035 4977.5 5032 4987 5022 4987 5012 4987 5003.9 4981.2 4995.8 4987 5005.8 4987 5008.9 4996.5 5005.8 4987 5008.9 4996.5 5012 4987 5020 4981.2 5023.1 4971.6 5013.1 4971.6 5010 4981.2 5002 4987 5012 4987 5008.9 4996.5 5000.8 5002.4 4997.7 4992.9 5005.8 4998.8 5002.7 5008.3 4994.6 5002.4 4997.7 4992.9 5000.8 5002.4 5008.9 5008.3 5017 5002.4 5020 5011.9 5028.1 5017.8 5018.1 5017.8 5021.2 5008.3 5024.3 5017.8 5032.4 5011.9 5040.5 5006.1 5048.6 5000.2 5040.5 5006.1 5037.4 4996.5 5045.5 4990.7 5053.6 4984.8 5045.5 4978.9 5048.6 4988.4 5040.5 4982.5 5043.6 4973" clip-path="url(#a)" fill="none" stroke="#000" stroke-linecap="round"/>
<polyline points="5043.6 4973 5035.5 4967.2 5027.4 4961.3 5030.5 4951.8 5033.6 4942.3 5041.7 4936.4 5038.6 4926.9 5035.5 4936.4 5025.5 4936.4 5035.5 4936.4 5025.5 4936.4 5033.6 4942.3 5036.7 4951.8 5044.8 4957.6 5047.9 4948.1 5039.8 4942.3 5036.7 4932.7 5033.6 4942.3 5025.5 4936.4 5022.4 4926.9 5032.4 4926.9 5024.3 4932.7 5016.2 4926.9 5024.3 4921 5032.4 4926.9 5022.4 4926.9 5014.3 4932.7 5017.4 4942.3 5007.4 4942.3 4999.3 4948.1 5002.4 4938.6 5010.5 4944.5 5000.5 4944.5 5003.6 4954 5006.7 4963.5 5009.8 4973 5006.7 4963.5 5016.7 4963.5 5019.8 4973 5022.9 4982.5 5031 4976.7 5021 4976.7 5029 4970.8" clip-path="url(#a)" fill="none" stroke="#000" stroke-linecap="round"/>
<polyline points="5029 4970.8 5037.1 4976.7 5045.2 4970.8 5053.3 4964.9 5061.4 4970.8 5069.5 4976.7 5072.6 4986.2 5082.6 4986.2 5074.5 4980.3 5077.6 4970.8 5074.5 4980.3 5077.6 4970.8 5069.5 4976.7 5059.5 4976.7 5051.4 4982.5 5059.5 4988.4 5067.6 4982.5 5077.6 4982.5 5069.5 4976.7 5077.6 4970.8 5087.6 4970.8 5084.5 4980.3 5081.4 4970.8 5089.5 4964.9 5092.6 4974.4 5084.5 4980.3 5087.6 4970.8 5084.5 4961.3 5074.5 4961.3 5077.6 4951.8 5074.5 4942.3 5082.6 4948.1 5074.5 4954 5077.6 4944.5 5067.6 4944.5 5057.6 4944.5 5047.6 4944.5 5057.6 4944.5 5054.5 4954 5044.5 4954 5034.5 4954 5037.6 4963.5 5040.7 4954" clip-path="url(#a)" fill="none" stroke="#000" stroke-linecap="round"/>
<polyline points="5040.7 4954 5043.8 4963.5 5035.7 4969.4 5038.8 4978.9 5041.9 4988.4 5033.8 4994.3 5025.7 5000.2 5015.7 5000.2 5012.6 5009.7 5020.7 5003.8 5028.8 5009.7 5020.7 5003.8 5028.8 5009.7 5025.7 5000.2 5028.8 4990.7 5025.7 4981.2 5017.6 4987 5020.7 4996.5 5017.6 5006.1 5025.7 5000.2 5028.8 5009.7 5025.7 5019.2 5017.6 5013.3 5027.6 5013.3 5030.7 5022.8 5020.7 5022.8 5017.6 5013.3 5025.7 5019.2 5035.7 5019.2 5038.8 5009.7 5046.9 5015.6 5056.9 5015.6 5048.8 5021.4 5045.7 5011.9 5053.8 5017.8 5056.9 5008.3 5059.9 4998.8 5063 4989.3 5059.9 4998.8 5051.9 4992.9 5054.9 4983.4 5058 4973.9 5048 4973.9" clip-path="url(#a)" fill="none" stroke="#000" stroke-linecap="round"/>
<polyline points="5048 4973.9 5056.1 4979.8 5046.1 4979.8 5043 4970.3 5033 4970.3 5023 4970.3 5019.9 4960.7 5016.9 4951.2 5019.9 4941.7 5011.9 4935.8 5014.9 4945.4 5006.9 4951.2 5014.9 4945.4 5006.9 4951.2 5016.9 4951.2 5024.9 4957.1 5034.9 4957.1 5031.9 4947.6 5021.9 4947.6 5013.8 4941.7 5016.9 4951.2 5006.9 4951.2 4998.8 4945.4 5006.9 4939.5 5003.8 4949 4993.8 4949 4996.9 4939.5 5006.9 4939.5 4998.8 4945.4 4995.7 4954.9 5003.8 4960.7 4995.7 4966.6 4992.6 4976.1 4989.5 4966.6 4999.5 4966.6 4991.4 4972.5 4999.5 4978.4 5007.6 4984.3 5015.7 4990.1 5007.6 4984.3 5015.7 4978.4 5023.8 4984.3 5031.9 4990.1" clip-path="url(#a)" fill="none" stroke="#000" stroke-linecap="round"/>
<polyline points="5031.9 4990.1 5034.9 4980.6 5026.9 4986.5 5029.9 4977 5039.9 4977 5043 4967.5 5046.1 4958 5056.1 4958 5066.1 4958 5074.2 4963.8 5082.3 4958 5072.3 4958 5069.2 4948.5 5072.3 4958 5069.2 4948.5 5066.1 4958 5058 4963.8 5054.9 4973.4 5064.9 4973.4 5068 4963.8 5076.1 4958 5066.1 4958 5069.2 4948.5 5077.3 4942.6 5080.4 4952.1 5072.3 4946.2 5075.4 4936.7 5083.5 4942.6 5080.4 4952.1 5077.3 4942.6 5069.2 4936.7 5061.1 4942.6 5058 4933.1 5049.9 4927.2 5059.9 4927.2 5056.9 4936.7 5053.8 4927.2 5045.7 4933.1 5037.6 4938.9 5029.5 4944.8 5037.6 4938.9 5040.7 4948.5 5032.6 4954.3" clip-path="url(#a)" fill="none" stroke="#000" stroke-linecap="round"/>
<polyline points="5032.6 4954.3 5024.5 4960.2 5032.6 4966.1 5029.5 4956.6 5037.6 4962.5 5034.5 4972 5042.6 4977.8 5050.7 4983.7 5047.6 4993.2 5044.5 5002.7 5036.4 5008.6 5039.5 5018.1 5042.6 5008.6 5052.6 5008.6 5042.6 5008.6 5052.6 5008.6 5044.5 5002.7 5041.4 4993.2 5033.3 4987.4 5030.2 4996.9 5038.3 5002.7 5041.4 5012.3 5044.5 5002.7 5052.6 5008.6 5055.7 5018.1 5045.7 5018.1 5053.8 5012.3 5061.9 5018.1 5053.8 5024 5045.7 5018.1 5055.7 5018.1 5063.8 5012.3 5060.7 5002.7 5070.7 5002.7 5078.8 4996.9 5075.7 5006.4 5067.6 5000.5 5077.6 5000.5 5074.5 4991 5071.4 4981.5 5068.3 4972 5071.4 4981.5 5061.4 4981.5" clip-path="url(#a)" fill="none" stroke="#000" stroke-linecap="round"/>
<polyline points="5061.4 4981.5 5058.3 4972 5055.2 4962.5 5047.1 4968.3 5057.1 4968.3 5049 4974.2 5041 4968.3 5032.9 4974.2 5024.8 4980.1 5016.7 4974.2 5008.6 4968.3 5005.5 4958.8 4995.5 4958.8 5003.6 4964.7 5000.5 4974.2 5003.6 4964.7 5000.5 4974.2 5008.6 4968.3 5018.6 4968.3 5026.7 4962.5 5018.6 4956.6 5010.5 4962.5 5000.5 4962.5 5008.6 4968.3 5000.5 4974.2 4990.5 4974.2 4993.6 4964.7 4996.7 4974.2 4988.6 4980.1 4985.5 4970.6 4993.6 4964.7 4990.5 4974.2 4993.6 4983.7 5003.6 4983.7 5000.5 4993.2 5003.6 5002.7 4995.5 4996.9 5003.6 4991 5000.5 5000.5" clip-path="url(#a)" fill="none" stroke="#000" stroke-linecap="round"/>
</svg>
