<?xml version="1.0" encoding="UTF-8"?>
<svg width="1e4px" height="1e4px" baseProfile="full" version="1.1" viewBox="4709 4896.4 414.51 410.14" xmlns="http://www.w3.org/2000/svg">
<defs>
<clipPath id="a">
<rect width="1e4" height="1e4"/>
</clipPath>
</defs>
<polyline points="5000.5 5000.5 5010.5 5000.5 5020.5 5000.5 5030.5 5000.5 5020.5 5000.5 5030.5 5000.5 5033.6 5010 5025.5 5004.1 5033.6 5010 5036.7 5019.5 5046.7 5019.5 5054.8 5013.6 5057.9 5023.2 5049.8 5029 5046.7 5019.5 5056.7 5019.5 5066.7 5019.5 5074.8 5025.4 5071.7 5015.9 5074.8 5006.4 5082.9 5012.3 5091 5006.4 5099 5000.5 5096 5010 5087.9 5004.1 5079.8 4998.3 5076.7 5007.8 5068.6 5013.6 5065.5 5023.2 5062.4 5032.7 5059.3 5023.2 5051.2 5017.3 5054.3 5026.8 5051.2 5017.3 5041.2 5017.3 5051.2 5017.3 5059.3 5011.4 5051.2 5005.5 5048.1 4996 5056.2 5001.9 5046.2 5001.9 5054.3 5007.8 5051.2 5017.3" clip-path="url(#a)" fill="none" stroke="#000" stroke-linecap="round"/>
<polyline points="5051.2 5017.3 5048.1 5026.8 5056.2 5020.9 5046.2 5020.9 5054.3 5015 5064.3 5015 5067.4 5005.5 5075.5 5011.4 5078.6 5001.9 5086.7 5007.8 5083.6 4998.3 5075.5 5004.1 5067.4 5010 5064.3 5019.5 5061.2 5010 5071.2 5010 5061.2 5010 5053.1 5004.1 5061.2 4998.3 5064.3 5007.8 5056.2 5001.9 5064.3 5007.8 5067.4 4998.3 5070.5 5007.8 5078.6 5001.9 5081.7 4992.4 5073.6 4986.5 5076.7 4977 5068.6 4982.9 5058.6 4982.9 5050.5 4988.7 5053.6 4979.2 5045.5 4973.4 5037.4 4967.5 5027.4 4967.5 5019.3 4973.4 5016.2 4982.9 5008.1 4977 5005 4986.5 5008.1 4996 5e3 5001.9 5010 5001.9 5007 4992.4" clip-path="url(#a)" fill="none" stroke="#000" stroke-linecap="round"/>
<polyline points="5007 4992.4 5010 5001.9 5e3 5001.9 5010 5001.9 5002 4996 4992 4996 4988.9 4986.5 4992 4977 5e3 4971.1 4990 4971.1 4998.1 4977 5008.1 4977 5005 4967.5 5002 4977 4998.9 4986.5 4990.8 4980.6 4993.9 4971.1 4985.8 4965.2 4975.8 4965.2 4972.7 4974.7 4980.8 4980.6 4983.9 4990.1 4987 4999.6 4983.9 4990.1 4980.8 4980.6 4970.8 4980.6 4973.9 4971.1 4982 4965.2 4973.9 4959.4 4965.8 4965.2 4955.8 4965.2 4963.9 4959.4 4972 4953.5 4980 4959.4 4983.1 4968.9 4991.2 4963 4999.3 4968.9 4991.2 4963 4994.3 4972.5 4984.3 4972.5 4992.4 4978.4 4989.3 4987.9 4986.2 4978.4" clip-path="url(#a)" fill="none" stroke="#000" stroke-linecap="round"/>
<polyline points="4986.2 4978.4 4983.1 4968.9 4975 4974.7 4983.1 4980.6 4975 4974.7 4965 4974.7 4957 4968.9 4965 4974.7 4957 4968.9 4953.9 4978.4 4950.8 4987.9 4942.7 4982 4934.6 4987.9 4937.7 4978.4 4929.6 4972.5 4937.7 4978.4 4927.7 4978.4 4919.6 4972.5 4922.7 4963 4912.7 4963 4909.6 4972.5 4917.7 4966.6 4925.8 4960.7 4922.7 4951.2 4912.7 4951.2 4915.8 4960.7 4918.9 4951.2 4922 4960.7 4930 4954.9 4927 4964.4 4917 4964.4 4920 4954.9 4917 4945.4 4920 4954.9 4923.1 4964.4 4915 4970.3 4923.1 4976.1 4915 4982 4905 4982 4902 4972.5 4910 4966.6 4918.1 4972.5 4926.2 4966.6" clip-path="url(#a)" fill="none" stroke="#000" stroke-linecap="round"/>
<polyline points="4926.2 4966.6 4923.1 4976.1 4913.1 4976.1 4905 4982 4913.1 4976.1 4910 4985.6 4918.1 4979.8 4915 4970.3 4912 4979.8 4915 4970.3 4925 4970.3 4933.1 4964.4 4941.2 4958.5 4949.3 4952.6 4941.2 4958.5 4949.3 4952.6 4957.4 4958.5 4947.4 4958.5 4957.4 4958.5 4965.5 4964.4 4973.6 4958.5 4976.7 4949 4984.8 4954.9 4981.7 4964.4 4973.6 4958.5 4981.7 4952.6 4989.8 4946.7 4999.8 4946.7 4991.7 4940.9 4988.6 4931.4 4998.6 4931.4 5001.7 4921.8 5004.8 4912.3 5007.9 4921.8 4997.9 4921.8 4987.9 4921.8 4991 4931.4 4987.9 4940.9 4991 4950.4 4994 4959.9 4986 4954 4976 4954 4984 4959.9" clip-path="url(#a)" fill="none" stroke="#000" stroke-linecap="round"/>
<polyline points="4984 4959.9 4976 4954 4967.9 4959.9 4976 4954 4979 4944.5 4969 4944.5 4961 4938.6 4971 4938.6 4962.9 4944.5 4972.9 4944.5 4976 4954 4979 4963.5 4982.1 4954 4974 4959.9 4977.1 4950.4 4985.2 4944.5 4982.1 4935 4992.1 4935 4989 4925.5 4999 4925.5 4991 4919.6 4987.9 4929.1 4984.8 4938.6 4987.9 4948.1 4979.8 4942.3 4987.9 4936.4 4979.8 4942.3 4969.8 4942.3 4972.9 4932.7 4981 4938.6 4971 4938.6 4981 4938.6 4977.9 4929.1 4986 4935 4989 4925.5 4986 4916 4976 4916 4972.9 4906.5 4969.8 4916 4961.7 4921.8 4958.6 4931.4 4955.5 4921.8 4945.5 4921.8" clip-path="url(#a)" fill="none" stroke="#000" stroke-linecap="round"/>
<polyline points="4945.5 4921.8 4935.5 4921.8 4927.4 4927.7 4924.3 4937.2 4927.4 4946.7 4917.4 4946.7 4920.5 4956.3 4928.6 4962.1 4925.5 4971.6 4933.6 4965.8 4925.5 4959.9 4933.6 4965.8 4925.5 4971.6 4933.6 4965.8 4923.6 4965.8 4915.5 4971.6 4907.4 4965.8 4904.3 4956.3 4907.4 4946.7 4899.3 4952.6 4909.3 4952.6 4917.4 4946.7 4909.3 4940.9 4912.4 4950.4 4915.5 4959.9 4905.5 4959.9 4902.4 4950.4 4892.4 4950.4 4884.3 4956.3 4887.4 4965.8 4897.4 4965.8 4905.5 4971.6 4913.6 4977.5 4905.5 4971.6 4897.4 4965.8 4889.3 4971.6 4886.2 4962.1 4889.3 4952.6 4879.3 4952.6 4876.2 4962.1 4868.1 4968 4871.2 4958.5 4874.3 4949" clip-path="url(#a)" fill="none" stroke="#000" stroke-linecap="round"/>
<polyline points="4874.3 4949 4884.3 4949 4892.4 4954.9 4895.5 4945.4 4905.5 4945.4 4895.5 4945.4 4903.6 4951.2 4895.5 4957.1 4905.5 4957.1 4908.6 4966.6 4900.5 4960.7 4892.4 4954.9 4889.3 4964.4 4899.3 4964.4 4889.3 4964.4 4881.2 4970.3 4871.2 4970.3 4881.2 4970.3 4871.2 4970.3 4874.3 4979.8 4877.4 4989.3 4867.4 4989.3 4864.3 4998.8 4861.2 4989.3 4851.2 4989.3 4861.2 4989.3 4853.1 4995.2 4843.1 4995.2 4840 4985.6 4832 4991.5 4835 5001 4838.1 4991.5 4841.2 4982 4833.1 4976.1 4825 4982 4833.1 4987.9 4830 4978.4 4838.1 4984.3 4841.2 4974.7 4844.3 4984.3 4836.2 4990.1 4833.1 4980.6 4825 4974.7" clip-path="url(#a)" fill="none" stroke="#000" stroke-linecap="round"/>
<polyline points="4825 4974.7 4833.1 4980.6 4841.2 4986.5 4838.1 4996 4848.1 4996 4845 5005.5 4837 5011.4 4828.9 5005.5 4832 4996 4842 4996 4845 4986.5 4848.1 4996 4840 5001.9 4837 5011.4 4840 5001.9 4843.1 5011.4 4846.2 5001.9 4838.1 4996 4841.2 5005.5 4838.1 4996 4846.2 4990.1 4849.3 4980.6 4852.4 4971.1 4855.5 4961.6 4852.4 4971.1 4855.5 4961.6 4865.5 4961.6 4857.4 4967.5 4865.5 4961.6 4875.5 4961.6 4878.6 4952.1 4875.5 4942.6 4885.5 4942.6 4888.6 4952.1 4878.6 4952.1 4881.7 4942.6 4884.8 4933.1 4892.9 4927.2 4882.9 4927.2 4874.8 4921.3 4882.9 4915.4 4879.8 4905.9 4876.7 4896.4" clip-path="url(#a)" fill="none" stroke="#000" stroke-linecap="round"/>
<polyline points="4876.7 4896.4 4884.8 4902.3 4876.7 4908.2 4868.6 4914 4876.7 4919.9 4879.8 4929.4 4887.9 4935.3 4896 4941.2 4886 4941.2 4877.9 4947.1 4887.9 4947.1 4877.9 4947.1 4874.8 4956.6 4877.9 4947.1 4874.8 4937.6 4866.7 4943.4 4856.7 4943.4 4864.8 4937.6 4861.7 4947.1 4869.8 4941.2 4877.9 4947.1 4886 4952.9 4882.9 4943.4 4879.8 4952.9 4876.7 4943.4 4879.8 4933.9 4871.7 4928 4879.8 4922.2 4871.7 4916.3 4879.8 4910.4 4869.8 4910.4 4872.9 4919.9 4876 4929.4 4884 4935.3 4874 4935.3 4877.1 4925.8 4874 4935.3 4866 4941.2 4862.9 4931.7 4872.9 4931.7 4864.8 4937.6 4872.9 4931.7 4864.8 4925.8" clip-path="url(#a)" fill="none" stroke="#000" stroke-linecap="round"/>
<polyline points="4864.8 4925.8 4874.8 4925.8 4871.7 4916.3 4863.6 4910.4 4855.5 4916.3 4847.4 4910.4 4850.5 4919.9 4847.4 4929.4 4850.5 4938.9 4842.4 4933.1 4834.3 4938.9 4826.2 4944.8 4823.1 4954.3 4826.2 4963.8 4834.3 4969.7 4826.2 4975.6 4834.3 4981.5 4844.3 4981.5 4847.4 4991 4850.5 4981.5 4840.5 4981.5 4850.5 4981.5 4847.4 4991 4850.5 4981.5 4842.4 4987.4 4839.3 4996.9 4829.3 4996.9 4821.2 4991 4818.1 4981.5 4815 4991 4823.1 4985.1 4826.2 4975.6 4816.2 4975.6 4824.3 4981.5 4832.4 4987.4 4824.3 4993.2 4816.2 4987.4 4808.1 4993.2 4805 5002.7 4813.1 5008.6 4821.2 5002.7 4831.2 5002.7 4841.2 5002.7" clip-path="url(#a)" fill="none" stroke="#000" stroke-linecap="round"/>
<polyline points="4841.2 5002.7 4831.2 5002.7 4821.2 5002.7 4818.1 5012.3 4810 5006.4 4807 4996.9 4798.9 5002.7 4802 5012.3 4798.9 5021.8 4795.8 5012.3 4792.7 5002.7 4800.8 4996.9 4810.8 4996.9 4807.7 4987.4 4815.8 4981.5 4807.7 4987.4 4817.7 4987.4 4814.6 4996.9 4822.7 4991 4830.8 4996.9 4820.8 4996.9 4810.8 4996.9 4813.9 5006.4 4822 5000.5 4813.9 5006.4 4810.8 5015.9 4802.7 5021.8 4810.8 5015.9 4802.7 5021.8 4810.8 5027.6 4818.9 5033.5 4810.8 5039.4 4813.9 5048.9 4805.8 5043 4797.7 5048.9 4805.8 5043 4802.7 5052.5 4794.6 5058.4 4786.5 5052.5 4783.4 5062.1 4791.5 5067.9 4788.4 5058.4 4785.3 5048.9" clip-path="url(#a)" fill="none" stroke="#000" stroke-linecap="round"/>
<polyline points="4785.3 5048.9 4775.3 5048.9 4772.2 5058.4 4782.2 5058.4 4774.1 5052.5 4784.1 5052.5 4781.1 5043 4789.1 5048.9 4786.1 5058.4 4778 5052.5 4768 5052.5 4778 5052.5 4788 5052.5 4791.1 5062.1 4799.1 5056.2 4802.2 5065.7 4799.1 5075.2 4789.1 5075.2 4786.1 5065.7 4794.1 5059.8 4791.1 5050.3 4799.1 5056.2 4796.1 5065.7 4799.1 5075.2 4796.1 5065.7 4804.1 5071.6 4801.1 5062.1 4791.1 5062.1 4799.1 5067.9 4791.1 5062.1 4794.1 5052.5 4791.1 5043 4788 5033.5 4784.9 5024 4788 5033.5 4784.9 5024 4793 5018.1 4789.9 5027.6 4793 5018.1 4801.1 5012.3 4798 5002.7 4789.9 4996.9 4798 4991" clip-path="url(#a)" fill="none" stroke="#000" stroke-linecap="round"/>
<polyline points="4798 4991 4806.1 4996.9 4798 5002.7 4794.9 4993.2 4791.8 4983.7 4794.9 4974.2 4786.8 4980.1 4776.8 4980.1 4779.9 4970.6 4771.8 4964.7 4763.7 4958.8 4773.7 4958.8 4770.6 4968.3 4767.5 4977.8 4777.5 4977.8 4785.6 4983.7 4795.6 4983.7 4805.6 4983.7 4797.5 4989.6 4794.4 4999.1 4802.5 4993.2 4794.4 4999.1 4797.5 5008.6 4794.4 4999.1 4786.3 4993.2 4783.2 5002.7 4775.2 5008.6 4778.2 4999.1 4781.3 5008.6 4784.4 4999.1 4794.4 4999.1 4804.4 4999.1 4796.3 4993.2 4799.4 5002.7 4791.3 4996.9 4788.2 4987.4 4778.2 4987.4 4781.3 4977.8 4771.3 4977.8 4774.4 4968.3 4766.3 4974.2 4774.4 4980.1 4782.5 4986" clip-path="url(#a)" fill="none" stroke="#000" stroke-linecap="round"/>
<polyline points="4782.5 4986 4792.5 4986 4784.4 4991.8 4781.3 4982.3 4784.4 4991.8 4781.3 5001.4 4773.2 4995.5 4781.3 4989.6 4778.2 4999.1 4781.3 4989.6 4771.3 4989.6 4779.4 4983.7 4771.3 4977.8 4761.3 4977.8 4758.2 4987.4 4748.2 4987.4 4756.3 4993.2 4759.4 5002.7 4767.5 5008.6 4757.5 5008.6 4754.4 5018.1 4751.3 5027.6 4754.4 5037.2 4762.5 5043 4772.5 5043 4769.4 5052.5 4779.4 5052.5 4787.5 5046.7 4795.6 5052.5 4792.5 5043 4784.4 5048.9 4792.5 5043 4795.6 5052.5 4792.5 5043 4789.4 5052.5 4792.5 5062.1 4784.4 5067.9 4774.4 5067.9 4766.3 5062.1 4769.4 5071.6 4772.5 5062.1 4769.4 5052.5 4761.3 5058.4" clip-path="url(#a)" fill="none" stroke="#000" stroke-linecap="round"/>
<polyline points="4761.3 5058.4 4771.3 5058.4 4781.3 5058.4 4778.2 5067.9 4768.2 5067.9 4765.2 5077.4 4768.2 5087 4778.2 5087 4781.3 5077.4 4789.4 5071.6 4797.5 5065.7 4789.4 5071.6 4781.3 5077.4 4784.4 5087 4774.4 5087 4766.3 5081.1 4763.2 5090.6 4771.3 5096.5 4774.4 5106 4766.3 5100.1 4758.2 5094.2 4761.3 5084.7 4769.4 5078.8 4761.3 5073 4764.4 5063.4 4761.3 5073 4769.4 5067.1 4772.5 5076.6 4775.6 5067.1 4785.6 5067.1 4777.5 5073 4769.4 5078.8 4777.5 5084.7 4780.6 5075.2 4777.5 5084.7 4780.6 5094.2 4777.5 5103.7 4780.6 5094.2 4777.5 5103.7 4787.5 5103.7 4797.5 5103.7 4794.4 5113.2 4802.5 5119.1" clip-path="url(#a)" fill="none" stroke="#000" stroke-linecap="round"/>
<polyline points="4802.5 5119.1 4792.5 5119.1 4789.4 5128.6 4792.5 5119.1 4795.6 5128.6 4792.5 5138.1 4782.5 5138.1 4785.6 5147.6 4795.6 5147.6 4787.5 5141.8 4779.4 5135.9 4771.3 5141.8 4774.4 5151.3 4782.5 5145.4 4772.5 5145.4 4780.6 5139.5 4772.5 5133.6 4782.5 5133.6 4785.6 5143.2 4775.6 5143.2 4767.5 5149 4775.6 5143.2 4783.7 5137.3 4791.8 5143.2 4794.9 5133.6 4803 5139.5 4806.1 5149 4798 5154.9 4789.9 5149 4793 5139.5 4784.9 5133.6 4794.9 5133.6 4798 5143.2 4806.1 5149 4798 5143.2 4808 5143.2 4799.9 5137.3 4791.8 5143.2 4801.8 5143.2 4791.8 5143.2 4788.7 5133.6 4780.6 5127.8 4772.5 5121.9" clip-path="url(#a)" fill="none" stroke="#000" stroke-linecap="round"/>
<polyline points="4772.5 5121.9 4764.4 5116 4772.5 5121.9 4764.4 5116 4767.5 5106.5 4770.6 5116 4767.5 5106.5 4770.6 5097 4762.5 5091.1 4752.5 5091.1 4755.6 5081.6 4765.6 5081.6 4762.5 5091.1 4754.4 5085.2 4746.3 5079.4 4743.2 5069.8 4740.2 5079.4 4732.1 5085.2 4729 5075.7 4719 5075.7 4709 5075.7 4717.1 5069.8 4720.2 5079.4 4723.2 5088.9 4731.3 5083 4741.3 5083 4749.4 5077.1 4757.5 5071.2 4754.4 5080.7 4757.5 5090.3 4760.6 5080.7 4757.5 5090.3 4765.6 5096.1 4757.5 5090.3 4747.5 5090.3 4750.6 5099.8 4747.5 5109.3 4744.4 5099.8 4752.5 5105.6 4749.4 5096.1 4757.5 5090.3 4765.6 5084.4 4755.6 5084.4" clip-path="url(#a)" fill="none" stroke="#000" stroke-linecap="round"/>
<polyline points="4755.6 5084.4 4763.7 5090.3 4753.7 5090.3 4745.6 5084.4 4737.5 5090.3 4734.4 5080.7 4726.3 5086.6 4723.2 5077.1 4720.2 5086.6 4730.2 5086.6 4740.2 5086.6 4748.2 5080.7 4745.2 5090.3 4737.1 5084.4 4745.2 5090.3 4748.2 5099.8 4738.2 5099.8 4741.3 5090.3 4744.4 5099.8 4741.3 5090.3 4733.2 5096.1 4736.3 5086.6 4726.3 5086.6 4718.2 5092.5 4721.3 5102 4713.2 5107.9 4723.2 5107.9 4731.3 5113.8 4741.3 5113.8 4733.2 5119.6 4736.3 5129.2 4739.4 5138.7 4747.5 5144.5 4757.5 5144.5 4765.6 5138.7 4768.7 5148.2 4776.8 5142.3 4779.9 5132.8 4789.9 5132.8 4781.8 5126.9 4778.7 5136.4 4781.8 5126.9 4789.9 5132.8" clip-path="url(#a)" fill="none" stroke="#000" stroke-linecap="round"/>
<polyline points="4789.9 5132.8 4781.8 5126.9 4784.9 5136.4 4793 5142.3 4789.9 5151.8 4781.8 5157.7 4771.8 5157.7 4779.9 5163.6 4776.8 5154.1 4768.7 5148.2 4765.6 5157.7 4773.7 5151.8 4781.8 5145.9 4784.9 5155.4 4776.8 5161.3 4779.9 5170.8 4788 5176.7 4796.1 5170.8 4793 5161.3 4796.1 5151.8 4799.1 5142.3 4796.1 5151.8 4793 5161.3 4801.1 5167.2 4793 5173.1 4783 5173.1 4786.1 5182.6 4796.1 5182.6 4804.1 5188.5 4794.1 5188.5 4784.1 5188.5 4781.1 5179 4784.1 5169.4 4774.1 5169.4 4771.1 5159.9 4774.1 5169.4 4777.2 5159.9 4785.3 5165.8 4782.2 5156.3 4790.3 5150.4 4787.2 5159.9 4784.1 5169.4 4794.1 5169.4" clip-path="url(#a)" fill="none" stroke="#000" stroke-linecap="round"/>
<polyline points="4794.1 5169.4 4791.1 5159.9 4794.1 5169.4 4802.2 5175.3 4805.3 5184.8 4802.2 5175.3 4805.3 5184.8 4813.4 5179 4821.5 5173.1 4824.6 5182.6 4834.6 5182.6 4826.5 5188.5 4829.6 5198 4826.5 5188.5 4834.6 5194.3 4837.7 5203.9 4829.6 5209.7 4837.7 5215.6 4845.8 5209.7 4835.8 5209.7 4825.8 5209.7 4822.7 5219.2 4830.8 5225.1 4833.9 5215.6 4825.8 5221.5 4828.9 5212 4818.9 5212 4827 5206.1 4835 5212 4827 5217.9 4823.9 5227.4 4827 5217.9 4830 5208.3 4840 5208.3 4837 5198.8 4847 5198.8 4855 5204.7 4852 5214.2 4842 5214.2 4838.9 5204.7 4828.9 5204.7 4837 5198.8 4845 5204.7" clip-path="url(#a)" fill="none" stroke="#000" stroke-linecap="round"/>
<polyline points="4845 5204.7 4855 5204.7 4845 5204.7 4853.1 5198.8 4843.1 5198.8 4840 5208.3 4848.1 5202.5 4840 5208.3 4832 5202.5 4822 5202.5 4812 5202.5 4802 5202.5 4812 5202.5 4802 5202.5 4798.9 5193 4807 5198.8 4798.9 5193 4795.8 5183.4 4785.8 5183.4 4777.7 5189.3 4774.6 5179.8 4782.7 5173.9 4785.8 5183.4 4775.8 5183.4 4765.8 5183.4 4757.7 5177.6 4760.8 5187.1 4757.7 5196.6 4749.6 5190.7 4741.5 5196.6 4733.4 5202.5 4736.5 5193 4744.6 5198.8 4752.7 5204.7 4755.8 5195.2 4763.9 5189.3 4767 5179.8 4770 5170.3 4773.1 5179.8 4781.2 5185.7 4778.1 5176.2 4781.2 5185.7 4791.2 5185.7" clip-path="url(#a)" fill="none" stroke="#000" stroke-linecap="round"/>
<polyline points="4791.2 5185.7 4781.2 5185.7 4773.1 5191.6 4781.2 5197.4 4784.3 5207 4776.2 5201.1 4786.2 5201.1 4778.1 5195.2 4781.2 5185.7 4784.3 5176.2 4776.2 5182.1 4786.2 5182.1 4778.1 5187.9 4768.1 5187.9 4765 5197.4 4757 5191.6 4753.9 5201.1 4745.8 5195.2 4748.9 5204.7 4757 5198.8 4765 5193 4768.1 5183.4 4771.2 5193 4761.2 5193 4771.2 5193 4779.3 5198.8 4771.2 5204.7 4768.1 5195.2 4776.2 5201.1 4768.1 5195.2 4765 5204.7 4762 5195.2 4753.9 5201.1 4750.8 5210.6 4758.9 5216.5 4755.8 5226 4763.9 5220.1 4773.9 5220.1 4782 5214.2 4778.9 5223.7 4787 5229.6 4795 5235.5 4805 5235.5" clip-path="url(#a)" fill="none" stroke="#000" stroke-linecap="round"/>
<polyline points="4805 5235.5 4813.1 5229.6 4816.2 5220.1 4824.3 5226 4827.4 5216.5 4824.3 5207 4832.4 5201.1 4822.4 5201.1 4825.5 5210.6 4822.4 5201.1 4832.4 5201.1 4822.4 5201.1 4830.5 5207 4840.5 5207 4843.6 5216.5 4840.5 5226 4832.4 5231.9 4842.4 5231.9 4834.3 5226 4824.3 5226 4827.4 5235.5 4830.5 5226 4833.6 5216.5 4841.7 5222.3 4838.6 5231.9 4846.7 5237.7 4856.7 5237.7 4859.8 5228.2 4851.7 5222.3 4848.6 5212.8 4845.5 5203.3 4848.6 5212.8 4851.7 5222.3 4861.7 5222.3 4858.6 5231.9 4850.5 5237.7 4858.6 5243.6 4866.7 5237.7 4876.7 5237.7 4868.6 5243.6 4860.5 5249.5 4852.4 5243.6 4849.3 5234.1" clip-path="url(#a)" fill="none" stroke="#000" stroke-linecap="round"/>
<polyline points="4849.3 5234.1 4841.2 5240 4833.1 5234.1 4841.2 5240 4838.1 5230.5 4848.1 5230.5 4840 5224.6 4843.1 5215.1 4846.2 5224.6 4849.3 5234.1 4857.4 5228.2 4849.3 5222.3 4857.4 5228.2 4867.4 5228.2 4875.5 5234.1 4867.4 5228.2 4875.5 5234.1 4878.6 5224.6 4881.7 5215.1 4889.8 5221 4897.9 5215.1 4894.8 5224.6 4902.9 5230.5 4894.8 5224.6 4904.8 5224.6 4912.9 5230.5 4909.8 5240 4919.8 5240 4922.9 5230.5 4914.8 5236.3 4906.7 5242.2 4909.8 5251.7 4919.8 5251.7 4916.7 5242.2 4913.6 5251.7 4910.5 5242.2 4902.4 5248.1 4905.5 5238.6 4915.5 5238.6 4912.4 5248.1 4915.5 5257.6 4912.4 5248.1 4909.3 5238.6" clip-path="url(#a)" fill="none" stroke="#000" stroke-linecap="round"/>
<polyline points="4909.3 5238.6 4917.4 5232.7 4909.3 5226.8 4917.4 5221 4927.4 5221 4930.5 5230.5 4922.4 5236.3 4914.3 5230.5 4906.2 5236.3 4909.3 5226.8 4919.3 5226.8 4927.4 5221 4919.3 5226.8 4922.4 5217.3 4914.3 5223.2 4917.4 5232.7 4920.5 5223.2 4917.4 5232.7 4907.4 5232.7 4899.3 5238.6 4891.2 5244.5 4883.1 5250.3 4891.2 5244.5 4883.1 5250.3 4875 5244.5 4885 5244.5 4875 5244.5 4867 5238.6 4858.9 5244.5 4855.8 5254 4847.7 5248.1 4850.8 5238.6 4858.9 5244.5 4850.8 5250.3 4842.7 5256.2 4832.7 5256.2 4840.8 5262.1 4843.9 5271.6 4833.9 5271.6 4830.8 5281.1 4827.7 5290.6 4824.6 5281.1 4834.6 5281.1" clip-path="url(#a)" fill="none" stroke="#000" stroke-linecap="round"/>
<polyline points="4834.6 5281.1 4844.6 5281.1 4841.5 5271.6 4844.6 5262.1 4841.5 5252.6 4838.4 5243.1 4846.5 5249 4856.5 5249 4848.4 5243.1 4856.5 5249 4864.6 5243.1 4856.5 5249 4853.4 5258.5 4863.4 5258.5 4871.5 5264.3 4861.5 5264.3 4869.6 5258.5 4859.6 5258.5 4856.5 5249 4853.4 5239.4 4850.3 5249 4858.4 5243.1 4855.3 5252.6 4847.2 5258.5 4850.3 5268 4840.3 5268 4843.4 5277.5 4833.4 5277.5 4841.5 5283.4 4844.6 5273.9 4847.7 5264.3 4844.6 5254.8 4852.7 5260.7 4844.6 5266.6 4852.7 5260.7 4862.7 5260.7 4859.6 5270.2 4851.5 5264.3 4861.5 5264.3 4851.5 5264.3 4854.6 5273.9 4846.5 5268 4843.4 5277.5" clip-path="url(#a)" fill="none" stroke="#000" stroke-linecap="round"/>
<polyline points="4843.4 5277.5 4846.5 5287 4856.5 5287 4859.6 5296.5 4862.7 5287 4870.8 5281.1 4873.9 5271.6 4877 5281.1 4887 5281.1 4897 5281.1 4905 5275.2 4908.1 5265.7 4905 5256.2 4915 5256.2 4912 5246.7 4903.9 5240.8 4907 5231.3 4898.9 5237.2 4907 5243.1 4898.9 5237.2 4907 5231.3 4898.9 5237.2 4908.9 5237.2 4917 5231.3 4925 5237.2 4928.1 5246.7 4925 5256.2 4933.1 5250.3 4923.1 5250.3 4915 5256.2 4923.1 5262.1 4920 5252.6 4917 5243.1 4927 5243.1 4930 5252.6 4940 5252.6 4948.1 5246.7 4945 5237.2 4935 5237.2 4927 5231.3 4918.9 5225.4 4927 5231.3 4935 5237.2" clip-path="url(#a)" fill="none" stroke="#000" stroke-linecap="round"/>
<polyline points="4935 5237.2 4943.1 5231.3 4946.2 5240.8 4943.1 5250.3 4953.1 5250.3 4956.2 5240.8 4964.3 5235 4961.2 5244.5 4958.1 5254 4948.1 5254 4940 5248.1 4937 5257.6 4927 5257.6 4937 5257.6 4928.9 5251.7 4937 5245.9 4927 5245.9 4923.9 5236.3 4932 5242.2 4940 5248.1 4943.1 5238.6 4933.1 5238.6 4943.1 5238.6 4951.2 5232.7 4961.2 5232.7 4951.2 5232.7 4961.2 5232.7 4958.1 5223.2 4955 5213.7 4965 5213.7 4968.1 5204.2 4971.2 5213.7 4981.2 5213.7 4971.2 5213.7 4979.3 5207.8 4989.3 5207.8 4992.4 5217.3 5000.5 5211.4 4997.4 5201.9 4994.3 5211.4 4991.2 5221 4999.3 5226.8 5007.4 5221" clip-path="url(#a)" fill="none" stroke="#000" stroke-linecap="round"/>
<polyline points="5007.4 5221 4999.3 5215.1 5002.4 5224.6 4994.3 5218.7 4991.2 5228.2 4988.1 5218.7 4996.2 5212.8 4999.3 5222.3 5007.4 5228.2 4999.3 5222.3 4991.2 5216.5 4994.3 5207 4984.3 5207 4987.4 5197.4 4995.5 5191.6 5003.6 5197.4 5000.5 5207 4990.5 5207 4987.4 5216.5 4984.3 5207 4992.4 5201.1 4995.5 5191.6 4992.4 5201.1 4989.3 5191.6 4986.2 5201.1 4994.3 5207 4991.2 5197.4 4994.3 5207 4986.2 5212.8 4983.1 5222.3 4980 5231.9 4977 5241.4 4980 5231.9 4977 5241.4 4967 5241.4 4975 5235.5 4967 5241.4 4957 5241.4 4953.9 5250.9 4957 5260.4 4947 5260.4 4943.9 5250.9 4953.9 5250.9" clip-path="url(#a)" fill="none" stroke="#000" stroke-linecap="round"/>
<polyline points="4953.9 5250.9 4950.8 5260.4 4947.7 5269.9 4939.6 5275.8 4949.6 5275.8 4957.7 5281.7 4949.6 5287.5 4952.7 5297 4955.8 5306.6 4947.7 5300.7 4955.8 5294.8 4963.9 5288.9 4955.8 5283 4952.7 5273.5 4944.6 5267.7 4936.5 5261.8 4946.5 5261.8 4954.6 5255.9 4944.6 5255.9 4954.6 5255.9 4957.7 5246.4 4954.6 5255.9 4957.7 5265.4 4965.8 5259.5 4975.8 5259.5 4967.7 5265.4 4970.8 5255.9 4962.7 5261.8 4954.6 5255.9 4946.5 5250 4949.6 5259.5 4952.7 5250 4955.8 5259.5 4952.7 5269 4960.8 5274.9 4952.7 5280.8 4960.8 5286.7 4952.7 5292.6 4962.7 5292.6 4959.6 5283 4956.5 5273.5 4948.4 5267.7 4958.4 5267.7" clip-path="url(#a)" fill="none" stroke="#000" stroke-linecap="round"/>
<polyline points="4958.4 5267.7 4955.3 5277.2 4958.4 5267.7 4966.5 5261.8 4969.6 5271.3 4959.6 5271.3 4967.7 5265.4 4959.6 5271.3 4967.7 5277.2 4957.7 5277.2 4960.8 5286.7 4968.9 5292.6 4977 5286.7 4985 5292.6 4982 5283 4985 5273.5 4982 5264 4990 5269.9 4998.1 5264 5006.2 5258.1 5009.3 5248.6 5006.2 5239.1 4998.1 5233.2 5006.2 5227.4 4998.1 5221.5 4988.1 5221.5 4985 5212 4982 5221.5 4992 5221.5 4982 5221.5 4985 5212 4982 5221.5 4990 5215.6 4993.1 5206.1 5003.1 5206.1 5011.2 5212 5014.3 5221.5 5017.4 5212 5009.3 5217.9 5006.2 5227.4 5016.2 5227.4 5008.1 5221.5 5e3 5215.6" clip-path="url(#a)" fill="none" stroke="#000" stroke-linecap="round"/>
<polyline points="5e3 5215.6 5008.1 5209.7 5016.2 5215.6 5024.3 5209.7 5027.4 5200.2 5019.3 5194.3 5011.2 5200.2 5001.2 5200.2 4991.2 5200.2 5001.2 5200.2 5011.2 5200.2 5014.3 5190.7 5022.4 5196.6 5025.5 5206.1 5033.6 5200.2 5030.5 5190.7 5033.6 5181.2 5036.7 5190.7 5039.8 5200.2 5031.7 5206.1 5021.7 5206.1 5024.8 5215.6 5016.7 5221.5 5024.8 5215.6 5014.8 5215.6 5017.9 5206.1 5009.8 5212 5001.7 5206.1 5011.7 5206.1 5021.7 5206.1 5018.6 5196.6 5010.5 5202.5 5018.6 5196.6 5021.7 5187.1 5029.8 5181.2 5021.7 5187.1 5029.8 5181.2 5021.7 5175.3 5013.6 5169.4 5021.7 5163.6 5018.6 5154.1 5026.7 5159.9 5034.8 5154.1" clip-path="url(#a)" fill="none" stroke="#000" stroke-linecap="round"/>
<polyline points="5034.8 5154.1 5026.7 5159.9 5029.8 5150.4 5037.9 5144.5 5046 5150.4 5049 5140.9 5041 5135 5044 5144.5 5047.1 5154.1 5057.1 5154.1 5060.2 5144.5 5050.2 5144.5 5058.3 5150.4 5048.3 5150.4 5051.4 5159.9 5043.3 5154.1 5046.4 5144.5 5054.5 5150.4 5064.5 5150.4 5054.5 5150.4 5044.5 5150.4 5041.4 5140.9 5033.3 5146.8 5030.2 5137.3 5033.3 5127.8 5043.3 5127.8 5046.4 5137.3 5038.3 5143.2 5041.4 5152.7 5033.3 5146.8 5036.4 5137.3 5033.3 5127.8 5036.4 5137.3 5028.3 5131.4 5031.4 5140.9 5041.4 5140.9 5033.3 5135 5041.4 5140.9 5038.3 5150.4 5041.4 5159.9 5044.5 5169.4 5047.6 5179 5044.5 5169.4" clip-path="url(#a)" fill="none" stroke="#000" stroke-linecap="round"/>
<polyline points="5044.5 5169.4 5047.6 5179 5039.5 5184.8 5042.6 5175.3 5039.5 5184.8 5031.4 5190.7 5034.5 5200.2 5042.6 5206.1 5034.5 5212 5026.4 5206.1 5034.5 5200.2 5037.6 5209.7 5040.7 5219.2 5037.6 5228.8 5045.7 5222.9 5055.7 5222.9 5052.6 5232.4 5060.7 5238.3 5068.8 5244.1 5058.8 5244.1 5061.9 5234.6 5064.9 5225.1 5054.9 5225.1 5046.9 5219.2 5036.9 5219.2 5026.9 5219.2 5034.9 5213.4 5038 5203.9 5029.9 5209.7 5038 5203.9 5034.9 5194.3 5038 5203.9 5046.1 5209.7 5049.2 5200.2 5057.3 5194.3 5054.2 5203.9 5051.1 5194.3 5048 5203.9 5038 5203.9 5028 5203.9 5036.1 5209.7 5033 5200.2 5041.1 5206.1" clip-path="url(#a)" fill="none" stroke="#000" stroke-linecap="round"/>
<polyline points="5041.1 5206.1 5044.2 5215.6 5054.2 5215.6 5051.1 5225.1 5061.1 5225.1 5058 5234.6 5066.1 5228.8 5058 5222.9 5049.9 5217 5039.9 5217 5048 5211.1 5051.1 5220.6 5048 5211.1 5051.1 5201.6 5059.2 5207.5 5051.1 5213.4 5054.2 5203.9 5051.1 5213.4 5061.1 5213.4 5053 5219.2 5061.1 5225.1 5071.1 5225.1 5074.2 5215.6 5084.2 5215.6 5076.1 5209.7 5073 5200.2 5064.9 5194.3 5074.9 5194.3 5078 5184.8 5081.1 5175.3 5078 5165.8 5069.9 5159.9 5059.9 5159.9 5063 5150.4 5053 5150.4 5044.9 5156.3 5036.9 5150.4 5039.9 5159.9 5048 5154.1 5039.9 5159.9 5036.9 5150.4 5039.9 5159.9 5043 5150.4" clip-path="url(#a)" fill="none" stroke="#000" stroke-linecap="round"/>
<polyline points="5043 5150.4 5039.9 5140.9 5048 5135 5058 5135 5066.1 5140.9 5063 5131.4 5059.9 5140.9 5063 5150.4 5071.1 5144.5 5061.1 5144.5 5051.1 5144.5 5054.2 5135 5064.2 5135 5067.3 5125.5 5064.2 5116 5054.2 5116 5051.1 5125.5 5043 5131.4 5034.9 5137.3 5043 5131.4 5051.1 5125.5 5048 5116 5058 5116 5066.1 5121.9 5069.2 5112.4 5061.1 5106.5 5058 5097 5066.1 5102.9 5074.2 5108.7 5071.1 5118.3 5063 5124.1 5071.1 5130 5068 5139.5 5071.1 5130 5063 5135.9 5059.9 5126.4 5056.9 5135.9 5046.9 5135.9 5054.9 5130 5063 5124.1 5054.9 5118.3 5051.9 5127.8 5054.9 5118.3" clip-path="url(#a)" fill="none" stroke="#000" stroke-linecap="round"/>
<polyline points="5054.9 5118.3 5051.9 5108.7 5054.9 5099.2 5051.9 5108.7 5054.9 5099.2 5044.9 5099.2 5034.9 5099.2 5038 5089.7 5029.9 5083.8 5039.9 5083.8 5043 5074.3 5039.9 5083.8 5036.9 5074.3 5039.9 5064.8 5049.9 5064.8 5046.9 5055.3 5036.9 5055.3 5044.9 5061.2 5053 5067.1 5061.1 5061.2 5058 5051.7 5049.9 5057.6 5059.9 5057.6 5051.9 5063.4 5059.9 5069.3 5049.9 5069.3 5046.9 5059.8 5056.9 5059.8 5064.9 5053.9 5056.9 5059.8 5048.8 5065.7 5040.7 5059.8 5037.6 5069.3 5029.5 5063.4 5026.4 5053.9 5034.5 5048.1 5042.6 5053.9 5039.5 5063.4 5047.6 5069.3 5037.6 5069.3 5034.5 5059.8 5026.4 5053.9 5034.5 5059.8" clip-path="url(#a)" fill="none" stroke="#000" stroke-linecap="round"/>
<polyline points="5034.5 5059.8 5024.5 5059.8 5032.6 5065.7 5040.7 5059.8 5030.7 5059.8 5040.7 5059.8 5043.8 5069.3 5051.9 5075.2 5059.9 5081.1 5068 5087 5059.9 5081.1 5068 5087 5064.9 5096.5 5061.9 5087 5064.9 5096.5 5061.9 5106 5069.9 5111.9 5079.9 5111.9 5076.9 5121.4 5066.9 5121.4 5069.9 5111.9 5078 5117.7 5086.1 5123.6 5089.2 5133.1 5092.3 5123.6 5100.4 5117.7 5103.5 5127.2 5113.5 5127.2 5123.5 5127.2 5115.4 5133.1 5112.3 5123.6 5109.2 5114.1 5101.1 5120 5091.1 5120 5083 5125.9 5074.9 5131.7 5078 5122.2 5074.9 5112.7 5071.9 5122.2 5074.9 5112.7 5066.9 5106.8 5074.9 5112.7 5084.9 5112.7" clip-path="url(#a)" fill="none" stroke="#000" stroke-linecap="round"/>
<polyline points="5084.9 5112.7 5081.9 5103.2 5084.9 5093.7 5088 5103.2 5079.9 5097.3 5083 5106.8 5074.9 5112.7 5066.9 5118.6 5076.9 5118.6 5068.8 5112.7 5078.8 5112.7 5086.9 5118.6 5094.9 5112.7 5098 5122.2 5106.1 5116.3 5109.2 5125.9 5112.3 5116.3 5102.3 5116.3 5092.3 5116.3 5084.2 5122.2 5087.3 5112.7 5095.4 5118.6 5087.3 5112.7 5084.2 5103.2 5094.2 5103.2 5091.1 5112.7 5088 5103.2 5091.1 5112.7 5099.2 5106.8 5096.1 5116.3 5106.1 5116.3 5114.2 5110.5 5111.1 5101 5119.2 5095.1 5109.2 5095.1 5101.1 5089.2 5091.1 5089.2 5099.2 5083.3 5096.1 5073.8 5093 5064.3 5084.9 5058.4 5074.9 5058.4 5066.9 5064.3" clip-path="url(#a)" fill="none" stroke="#000" stroke-linecap="round"/>
<polyline points="5066.9 5064.3 5063.8 5054.8 5055.7 5060.7 5052.6 5070.2 5042.6 5070.2 5050.7 5076.1 5053.8 5066.5 5050.7 5076.1 5042.6 5070.2 5050.7 5076.1 5047.6 5066.5 5039.5 5060.7 5042.6 5051.2 5050.7 5045.3 5060.7 5045.3 5052.6 5039.4 5055.7 5048.9 5063.8 5054.8 5066.9 5045.3 5058.8 5051.2 5050.7 5057 5047.6 5047.5 5055.7 5041.6 5052.6 5032.1 5044.5 5026.3 5036.4 5032.1 5039.5 5041.6 5036.4 5051.2 5033.3 5060.7 5036.4 5051.2 5039.5 5041.6 5031.4 5035.8 5039.5 5029.9 5049.5 5029.9 5046.4 5020.4 5036.4 5020.4 5028.3 5014.5 5038.3 5014.5 5048.3 5014.5 5051.4 5024 5048.3 5033.5 5058.3 5033.5 5061.4 5043" clip-path="url(#a)" fill="none" stroke="#000" stroke-linecap="round"/>
<polyline points="5061.4 5043 5058.3 5033.5 5055.2 5043 5047.1 5037.2 5050.2 5046.7 5042.1 5052.5 5045.2 5043 5048.3 5033.5 5038.3 5033.5 5041.4 5043 5038.3 5033.5 5030.2 5027.6 5027.1 5018.1 5030.2 5027.6 5027.1 5018.1 5019 5024 5011 5029.9 5007.9 5020.4 4997.9 5020.4 5006 5014.5 5002.9 5005 5006 5014.5 4997.9 5008.6 4994.8 4999.1 5002.9 4993.2 4994.8 4987.4 4986.7 4993.2 4996.7 4993.2 5006.7 4993.2 5009.8 4983.7 5001.7 4977.8 4998.6 4987.4 5006.7 4981.5 5003.6 4991 5013.6 4991 5005.5 4996.9 4997.4 4991 5005.5 4985.1 5008.6 4975.6 5005.5 4985.1 5002.4 4994.6 4992.4 4994.6 4995.5 5004.1" clip-path="url(#a)" fill="none" stroke="#000" stroke-linecap="round"/>
<polyline points="4995.5 5004.1 4985.5 5004.1 4977.4 4998.3 4980.5 4988.7 4990.5 4988.7 4993.6 4998.3 5003.6 4998.3 4995.5 5004.1 4987.4 4998.3 4977.4 4998.3 4987.4 4998.3 4979.3 5004.1 4989.3 5004.1 4992.4 4994.6 4984.3 5000.5 4992.4 4994.6 5000.5 5000.5 5010.5 5000.5 5020.5 5000.5 5030.5 5000.5 5020.5 5000.5 5030.5 5000.5 5033.6 5010 5025.5 5004.1 5033.6 5010 5036.7 5019.5 5046.7 5019.5 5054.8 5013.6 5057.9 5023.2 5049.8 5029 5046.7 5019.5 5056.7 5019.5 5066.7 5019.5 5074.8 5025.4 5071.7 5015.9 5074.8 5006.4 5082.9 5012.3 5091 5006.4 5099 5000.5 5096 5010 5087.9 5004.1 5079.8 4998.3 5076.7 5007.8" clip-path="url(#a)" fill="none" stroke="#000" stroke-linecap="round"/>
<polyline points="5076.7 5007.8 5068.6 5013.6 5065.5 5023.2 5062.4 5032.7 5059.3 5023.2 5051.2 5017.3 5054.3 5026.8 5051.2 5017.3 5041.2 5017.3 5051.2 5017.3 5059.3 5011.4 5051.2 5005.5 5048.1 4996 5056.2 5001.9 5046.2 5001.9 5054.3 5007.8 5051.2 5017.3 5048.1 5026.8 5056.2 5020.9 5046.2 5020.9 5054.3 5015 5064.3 5015 5067.4 5005.5 5075.5 5011.4 5078.6 5001.9 5086.7 5007.8 5083.6 4998.3 5075.5 5004.1 5067.4 5010 5064.3 5019.5 5061.2 5010 5071.2 5010 5061.2 5010 5053.1 5004.1 5061.2 4998.3 5064.3 5007.8 5056.2 5001.9 5064.3 5007.8 5067.4 4998.3 5070.5 5007.8 5078.6 5001.9 5081.7 4992.4 5073.6 4986.5" clip-path="url(#a)" fill="none" stroke="#000" stroke-linecap="round"/>
<polyline points="5073.6 4986.5 5076.7 4977 5068.6 4982.9 5058.6 4982.9 5050.5 4988.7 5053.6 4979.2 5045.5 4973.4 5037.4 4967.5 5027.4 4967.5 5019.3 4973.4 5016.2 4982.9 5008.1 4977 5005 4986.5 5008.1 4996 5e3 5001.9 5010 5001.9 5007 4992.4 5010 5001.9 5e3 5001.9 5010 5001.9 5002 4996 4992 4996 4988.9 4986.5 4992 4977 5e3 4971.1 4990 4971.1 4998.1 4977 5008.1 4977 5005 4967.5 5002 4977 4998.9 4986.5 4990.8 4980.6 4993.9 4971.1 4985.8 4965.2 4975.8 4965.2 4972.7 4974.7 4980.8 4980.6 4983.9 4990.1 4987 4999.6 4983.9 4990.1 4980.8 4980.6 4970.8 4980.6 4973.9 4971.1" clip-path="url(#a)" fill="none" stroke="#000" stroke-linecap="round"/>
<polyline points="4973.9 4971.1 4982 4965.2 4973.9 4959.4 4965.8 4965.2 4955.8 4965.2 4963.9 4959.4 4972 4953.5 4980 4959.4 4983.1 4968.9 4991.2 4963 4999.3 4968.9 4991.2 4963 4994.3 4972.5 4984.3 4972.5 4992.4 4978.4 4989.3 4987.9 4986.2 4978.4 4983.1 4968.9 4975 4974.7 4983.1 4980.6 4975 4974.7 4965 4974.7 4957 4968.9 4965 4974.7 4957 4968.9 4953.9 4978.4 4950.8 4987.9 4942.7 4982 4934.6 4987.9 4937.7 4978.4 4929.6 4972.5 4937.7 4978.4 4927.7 4978.4 4919.6 4972.5 4922.7 4963 4912.7 4963 4909.6 4972.5 4917.7 4966.6 4925.8 4960.7 4922.7 4951.2 4912.7 4951.2 4915.8 4960.7 4918.9 4951.2" clip-path="url(#a)" fill="none" stroke="#000" stroke-linecap="round"/>
<polyline points="4918.9 4951.2 4922 4960.7 4930 4954.9 4927 4964.4 4917 4964.4 4920 4954.9 4917 4945.4 4920 4954.9 4923.1 4964.4 4915 4970.3 4923.1 4976.1 4915 4982 4905 4982 4902 4972.5 4910 4966.6 4918.1 4972.5 4926.2 4966.6 4923.1 4976.1 4913.1 4976.1 4905 4982 4913.1 4976.1 4910 4985.6 4918.1 4979.8 4915 4970.3 4912 4979.8 4915 4970.3 4925 4970.3 4933.1 4964.4 4941.2 4958.5 4949.3 4952.6 4941.2 4958.5 4949.3 4952.6 4957.4 4958.5 4947.4 4958.5 4957.4 4958.5 4965.5 4964.4 4973.6 4958.5 4976.7 4949 4984.8 4954.9 4981.7 4964.4 4973.6 4958.5 4981.7 4952.6 4989.8 4946.7" clip-path="url(#a)" fill="none" stroke="#000" stroke-linecap="round"/>
<polyline points="4989.8 4946.7 4999.8 4946.7 4991.7 4940.9 4988.6 4931.4 4998.6 4931.4 5001.7 4921.8 5004.8 4912.3 5007.9 4921.8 4997.9 4921.8 4987.9 4921.8 4991 4931.4 4987.9 4940.9 4991 4950.4 4994 4959.9 4986 4954 4976 4954 4984 4959.9 4976 4954 4967.9 4959.9 4976 4954 4979 4944.5 4969 4944.5 4961 4938.6 4971 4938.6 4962.9 4944.5 4972.9 4944.5 4976 4954 4979 4963.5 4982.1 4954 4974 4959.9 4977.1 4950.4 4985.2 4944.5 4982.1 4935 4992.1 4935 4989 4925.5 4999 4925.5 4991 4919.6 4987.9 4929.1 4984.8 4938.6 4987.9 4948.1 4979.8 4942.3 4987.9 4936.4 4979.8 4942.3" clip-path="url(#a)" fill="none" stroke="#000" stroke-linecap="round"/>
<polyline points="4979.8 4942.3 4969.8 4942.3 4972.9 4932.7 4981 4938.6 4971 4938.6 4981 4938.6 4977.9 4929.1 4986 4935 4989 4925.5 4986 4916 4976 4916 4972.9 4906.5 4969.8 4916 4961.7 4921.8 4958.6 4931.4 4955.5 4921.8 4945.5 4921.8 4935.5 4921.8 4927.4 4927.7 4924.3 4937.2 4927.4 4946.7 4917.4 4946.7 4920.5 4956.3 4928.6 4962.1 4925.5 4971.6 4933.6 4965.8 4925.5 4959.9 4933.6 4965.8 4925.5 4971.6 4933.6 4965.8 4923.6 4965.8 4915.5 4971.6 4907.4 4965.8 4904.3 4956.3 4907.4 4946.7 4899.3 4952.6 4909.3 4952.6 4917.4 4946.7 4909.3 4940.9 4912.4 4950.4 4915.5 4959.9 4905.5 4959.9 4902.4 4950.4" clip-path="url(#a)" fill="none" stroke="#000" stroke-linecap="round"/>
<polyline points="4902.4 4950.4 4892.4 4950.4 4884.3 4956.3 4887.4 4965.8 4897.4 4965.8 4905.5 4971.6 4913.6 4977.5 4905.5 4971.6 4897.4 4965.8 4889.3 4971.6 4886.2 4962.1 4889.3 4952.6 4879.3 4952.6 4876.2 4962.1 4868.1 4968 4871.2 4958.5 4874.3 4949 4884.3 4949 4892.4 4954.9 4895.5 4945.4 4905.5 4945.4 4895.5 4945.4 4903.6 4951.2 4895.5 4957.1 4905.5 4957.1 4908.6 4966.6 4900.5 4960.7 4892.4 4954.9 4889.3 4964.4 4899.3 4964.4 4889.3 4964.4 4881.2 4970.3 4871.2 4970.3 4881.2 4970.3 4871.2 4970.3 4874.3 4979.8 4877.4 4989.3 4867.4 4989.3 4864.3 4998.8 4861.2 4989.3 4851.2 4989.3 4861.2 4989.3 4853.1 4995.2" clip-path="url(#a)" fill="none" stroke="#000" stroke-linecap="round"/>
<polyline points="4853.1 4995.2 4843.1 4995.2 4840 4985.6 4832 4991.5 4835 5001 4838.1 4991.5 4841.2 4982 4833.1 4976.1 4825 4982 4833.1 4987.9 4830 4978.4 4838.1 4984.3 4841.2 4974.7 4844.3 4984.3 4836.2 4990.1 4833.1 4980.6 4825 4974.7 4833.1 4980.6 4841.2 4986.5 4838.1 4996 4848.1 4996 4845 5005.5 4837 5011.4 4828.9 5005.5 4832 4996 4842 4996 4845 4986.5 4848.1 4996 4840 5001.9 4837 5011.4 4840 5001.9 4843.1 5011.4 4846.2 5001.9 4838.1 4996 4841.2 5005.5 4838.1 4996 4846.2 4990.1 4849.3 4980.6 4852.4 4971.1 4855.5 4961.6 4852.4 4971.1 4855.5 4961.6 4865.5 4961.6" clip-path="url(#a)" fill="none" stroke="#000" stroke-linecap="round"/>
<polyline points="4865.5 4961.6 4857.4 4967.5 4865.5 4961.6 4875.5 4961.6 4878.6 4952.1 4875.5 4942.6 4885.5 4942.6 4888.6 4952.1 4878.6 4952.1 4881.7 4942.6 4884.8 4933.1 4892.9 4927.2 4882.9 4927.2 4874.8 4921.3 4882.9 4915.4 4879.8 4905.9 4876.7 4896.4 4884.8 4902.3 4876.7 4908.2 4868.6 4914 4876.7 4919.9 4879.8 4929.4 4887.9 4935.3 4896 4941.2 4886 4941.2 4877.9 4947.1 4887.9 4947.1 4877.9 4947.1 4874.8 4956.6 4877.9 4947.1 4874.8 4937.6 4866.7 4943.4 4856.7 4943.4 4864.8 4937.6 4861.7 4947.1 4869.8 4941.2 4877.9 4947.1 4886 4952.9 4882.9 4943.4 4879.8 4952.9 4876.7 4943.4 4879.8 4933.9 4871.7 4928" clip-path="url(#a)" fill="none" stroke="#000" stroke-linecap="round"/>
<polyline points="4871.7 4928 4879.8 4922.2 4871.7 4916.3 4879.8 4910.4 4869.8 4910.4 4872.9 4919.9 4876 4929.4 4884 4935.3 4874 4935.3 4877.1 4925.8 4874 4935.3 4866 4941.2 4862.9 4931.7 4872.9 4931.7 4864.8 4937.6 4872.9 4931.7 4864.8 4925.8 4874.8 4925.8 4871.7 4916.3 4863.6 4910.4 4855.5 4916.3 4847.4 4910.4 4850.5 4919.9 4847.4 4929.4 4850.5 4938.9 4842.4 4933.1 4834.3 4938.9 4826.2 4944.8 4823.1 4954.3 4826.2 4963.8 4834.3 4969.7 4826.2 4975.6 4834.3 4981.5 4844.3 4981.5 4847.4 4991 4850.5 4981.5 4840.5 4981.5 4850.5 4981.5 4847.4 4991 4850.5 4981.5 4842.4 4987.4 4839.3 4996.9 4829.3 4996.9" clip-path="url(#a)" fill="none" stroke="#000" stroke-linecap="round"/>
<polyline points="4829.3 4996.9 4821.2 4991 4818.1 4981.5 4815 4991 4823.1 4985.1 4826.2 4975.6 4816.2 4975.6 4824.3 4981.5 4832.4 4987.4 4824.3 4993.2 4816.2 4987.4 4808.1 4993.2 4805 5002.7 4813.1 5008.6 4821.2 5002.7 4831.2 5002.7 4841.2 5002.7 4831.2 5002.7 4821.2 5002.7 4818.1 5012.3 4810 5006.4 4807 4996.9 4798.9 5002.7 4802 5012.3 4798.9 5021.8 4795.8 5012.3 4792.7 5002.7 4800.8 4996.9 4810.8 4996.9 4807.7 4987.4 4815.8 4981.5 4807.7 4987.4 4817.7 4987.4 4814.6 4996.9 4822.7 4991 4830.8 4996.9 4820.8 4996.9 4810.8 4996.9 4813.9 5006.4 4822 5000.5 4813.9 5006.4 4810.8 5015.9 4802.7 5021.8" clip-path="url(#a)" fill="none" stroke="#000" stroke-linecap="round"/>
<polyline points="4802.7 5021.8 4810.8 5015.9 4802.7 5021.8 4810.8 5027.6 4818.9 5033.5 4810.8 5039.4 4813.9 5048.9 4805.8 5043 4797.7 5048.9 4805.8 5043 4802.7 5052.5 4794.6 5058.4 4786.5 5052.5 4783.4 5062.1 4791.5 5067.9 4788.4 5058.4 4785.3 5048.9 4775.3 5048.9 4772.2 5058.4 4782.2 5058.4 4774.1 5052.5 4784.1 5052.5 4781.1 5043 4789.1 5048.9 4786.1 5058.4 4778 5052.5 4768 5052.5 4778 5052.5 4788 5052.5 4791.1 5062.1 4799.1 5056.2 4802.2 5065.7 4799.1 5075.2 4789.1 5075.2 4786.1 5065.7 4794.1 5059.8 4791.1 5050.3 4799.1 5056.2 4796.1 5065.7 4799.1 5075.2 4796.1 5065.7 4804.1 5071.6 4801.1 5062.1" clip-path="url(#a)" fill="none" stroke="#000" stroke-linecap="round"/>
<polyline points="4801.1 5062.1 4791.1 5062.1 4799.1 5067.9 4791.1 5062.1 4794.1 5052.5 4791.1 5043 4788 5033.5 4784.9 5024 4788 5033.5 4784.9 5024 4793 5018.1 4789.9 5027.6 4793 5018.1 4801.1 5012.3 4798 5002.7 4789.9 4996.9 4798 4991 4806.1 4996.9 4798 5002.7 4794.9 4993.2 4791.8 4983.7 4794.9 4974.2 4786.8 4980.1 4776.8 4980.1 4779.9 4970.6 4771.8 4964.7 4763.7 4958.8 4773.7 4958.8 4770.6 4968.3 4767.5 4977.8 4777.5 4977.8 4785.6 4983.7 4795.6 4983.7 4805.6 4983.7 4797.5 4989.6 4794.4 4999.1 4802.5 4993.2 4794.4 4999.1 4797.5 5008.6 4794.4 4999.1 4786.3 4993.2 4783.2 5002.7 4775.2 5008.6" clip-path="url(#a)" fill="none" stroke="#000" stroke-linecap="round"/>
<polyline points="4775.2 5008.6 4778.2 4999.1 4781.3 5008.6 4784.4 4999.1 4794.4 4999.1 4804.4 4999.1 4796.3 4993.2 4799.4 5002.7 4791.3 4996.9 4788.2 4987.4 4778.2 4987.4 4781.3 4977.8 4771.3 4977.8 4774.4 4968.3 4766.3 4974.2 4774.4 4980.1 4782.5 4986 4792.5 4986 4784.4 4991.8 4781.3 4982.3 4784.4 4991.8 4781.3 5001.4 4773.2 4995.5 4781.3 4989.6 4778.2 4999.1 4781.3 4989.6 4771.3 4989.6 4779.4 4983.7 4771.3 4977.8 4761.3 4977.8 4758.2 4987.4 4748.2 4987.4 4756.3 4993.2 4759.4 5002.7 4767.5 5008.6 4757.5 5008.6 4754.4 5018.1 4751.3 5027.6 4754.4 5037.2 4762.5 5043 4772.5 5043 4769.4 5052.5 4779.4 5052.5" clip-path="url(#a)" fill="none" stroke="#000" stroke-linecap="round"/>
<polyline points="4779.4 5052.5 4787.5 5046.7 4795.6 5052.5 4792.5 5043 4784.4 5048.9 4792.5 5043 4795.6 5052.5 4792.5 5043 4789.4 5052.5 4792.5 5062.1 4784.4 5067.9 4774.4 5067.9 4766.3 5062.1 4769.4 5071.6 4772.5 5062.1 4769.4 5052.5 4761.3 5058.4 4771.3 5058.4 4781.3 5058.4 4778.2 5067.9 4768.2 5067.9 4765.2 5077.4 4768.2 5087 4778.2 5087 4781.3 5077.4 4789.4 5071.6 4797.5 5065.7 4789.4 5071.6 4781.3 5077.4 4784.4 5087 4774.4 5087 4766.3 5081.1 4763.2 5090.6 4771.3 5096.5 4774.4 5106 4766.3 5100.1 4758.2 5094.2 4761.3 5084.7 4769.4 5078.8 4761.3 5073 4764.4 5063.4 4761.3 5073 4769.4 5067.1" clip-path="url(#a)" fill="none" stroke="#000" stroke-linecap="round"/>
<polyline points="4769.4 5067.1 4772.5 5076.6 4775.6 5067.1 4785.6 5067.1 4777.5 5073 4769.4 5078.8 4777.5 5084.7 4780.6 5075.2 4777.5 5084.7 4780.6 5094.2 4777.5 5103.7 4780.6 5094.2 4777.5 5103.7 4787.5 5103.7 4797.5 5103.7 4794.4 5113.2 4802.5 5119.1 4792.5 5119.1 4789.4 5128.6 4792.5 5119.1 4795.6 5128.6 4792.5 5138.1 4782.5 5138.1 4785.6 5147.6 4795.6 5147.6 4787.5 5141.8 4779.4 5135.9 4771.3 5141.8 4774.4 5151.3 4782.5 5145.4 4772.5 5145.4 4780.6 5139.5 4772.5 5133.6 4782.5 5133.6 4785.6 5143.2 4775.6 5143.2 4767.5 5149 4775.6 5143.2 4783.7 5137.3 4791.8 5143.2 4794.9 5133.6 4803 5139.5 4806.1 5149" clip-path="url(#a)" fill="none" stroke="#000" stroke-linecap="round"/>
<polyline points="4806.1 5149 4798 5154.9 4789.9 5149 4793 5139.5 4784.9 5133.6 4794.9 5133.6 4798 5143.2 4806.1 5149 4798 5143.2 4808 5143.2 4799.9 5137.3 4791.8 5143.2 4801.8 5143.2 4791.8 5143.2 4788.7 5133.6 4780.6 5127.8 4772.5 5121.9 4764.4 5116 4772.5 5121.9 4764.4 5116 4767.5 5106.5 4770.6 5116 4767.5 5106.5 4770.6 5097 4762.5 5091.1 4752.5 5091.1 4755.6 5081.6 4765.6 5081.6 4762.5 5091.1 4754.4 5085.2 4746.3 5079.4 4743.2 5069.8 4740.2 5079.4 4732.1 5085.2 4729 5075.7 4719 5075.7 4709 5075.7 4717.1 5069.8 4720.2 5079.4 4723.2 5088.9 4731.3 5083 4741.3 5083 4749.4 5077.1" clip-path="url(#a)" fill="none" stroke="#000" stroke-linecap="round"/>
<polyline points="4749.4 5077.1 4757.5 5071.2 4754.4 5080.7 4757.5 5090.3 4760.6 5080.7 4757.5 5090.3 4765.6 5096.1 4757.5 5090.3 4747.5 5090.3 4750.6 5099.8 4747.5 5109.3 4744.4 5099.8 4752.5 5105.6 4749.4 5096.1 4757.5 5090.3 4765.6 5084.4 4755.6 5084.4 4763.7 5090.3 4753.7 5090.3 4745.6 5084.4 4737.5 5090.3 4734.4 5080.7 4726.3 5086.6 4723.2 5077.1 4720.2 5086.6 4730.2 5086.6 4740.2 5086.6 4748.2 5080.7 4745.2 5090.3 4737.1 5084.4 4745.2 5090.3 4748.2 5099.8 4738.2 5099.8 4741.3 5090.3 4744.4 5099.8 4741.3 5090.3 4733.2 5096.1 4736.3 5086.6 4726.3 5086.6 4718.2 5092.5 4721.3 5102 4713.2 5107.9 4723.2 5107.9" clip-path="url(#a)" fill="none" stroke="#000" stroke-linecap="round"/>
<polyline points="4723.2 5107.9 4731.3 5113.8 4741.3 5113.8 4733.2 5119.6 4736.3 5129.2 4739.4 5138.7 4747.5 5144.5 4757.5 5144.5 4765.6 5138.7 4768.7 5148.2 4776.8 5142.3 4779.9 5132.8 4789.9 5132.8 4781.8 5126.9 4778.7 5136.4 4781.8 5126.9 4789.9 5132.8 4781.8 5126.9 4784.9 5136.4 4793 5142.3 4789.9 5151.8 4781.8 5157.7 4771.8 5157.7 4779.9 5163.6 4776.8 5154.1 4768.7 5148.2 4765.6 5157.7 4773.7 5151.8 4781.8 5145.9 4784.9 5155.4 4776.8 5161.3 4779.9 5170.8 4788 5176.7 4796.1 5170.8 4793 5161.3 4796.1 5151.8 4799.1 5142.3 4796.1 5151.8 4793 5161.3 4801.1 5167.2 4793 5173.1 4783 5173.1 4786.1 5182.6" clip-path="url(#a)" fill="none" stroke="#000" stroke-linecap="round"/>
<polyline points="4786.1 5182.6 4796.1 5182.6 4804.1 5188.5 4794.1 5188.5 4784.1 5188.5 4781.1 5179 4784.1 5169.4 4774.1 5169.4 4771.1 5159.9 4774.1 5169.4 4777.2 5159.9 4785.3 5165.8 4782.2 5156.3 4790.3 5150.4 4787.2 5159.9 4784.1 5169.4 4794.1 5169.4 4791.1 5159.9 4794.1 5169.4 4802.2 5175.3 4805.3 5184.8 4802.2 5175.3 4805.3 5184.8 4813.4 5179 4821.5 5173.1 4824.6 5182.6 4834.6 5182.6 4826.5 5188.5 4829.6 5198 4826.5 5188.5 4834.6 5194.3 4837.7 5203.9 4829.6 5209.7 4837.7 5215.6 4845.8 5209.7 4835.8 5209.7 4825.8 5209.7 4822.7 5219.2 4830.8 5225.1 4833.9 5215.6 4825.8 5221.5 4828.9 5212 4818.9 5212" clip-path="url(#a)" fill="none" stroke="#000" stroke-linecap="round"/>
<polyline points="4818.9 5212 4827 5206.1 4835 5212 4827 5217.9 4823.9 5227.4 4827 5217.9 4830 5208.3 4840 5208.3 4837 5198.8 4847 5198.8 4855 5204.7 4852 5214.2 4842 5214.2 4838.9 5204.7 4828.9 5204.7 4837 5198.8 4845 5204.7 4855 5204.7 4845 5204.7 4853.1 5198.8 4843.1 5198.8 4840 5208.3 4848.1 5202.5 4840 5208.3 4832 5202.5 4822 5202.5 4812 5202.5 4802 5202.5 4812 5202.5 4802 5202.5 4798.9 5193 4807 5198.8 4798.9 5193 4795.8 5183.4 4785.8 5183.4 4777.7 5189.3 4774.6 5179.8 4782.7 5173.9 4785.8 5183.4 4775.8 5183.4 4765.8 5183.4 4757.7 5177.6 4760.8 5187.1" clip-path="url(#a)" fill="none" stroke="#000" stroke-linecap="round"/>
<polyline points="4760.8 5187.1 4757.7 5196.6 4749.6 5190.7 4741.5 5196.6 4733.4 5202.5 4736.5 5193 4744.6 5198.8 4752.7 5204.7 4755.8 5195.2 4763.9 5189.3 4767 5179.8 4770 5170.3 4773.1 5179.8 4781.2 5185.7 4778.1 5176.2 4781.2 5185.7 4791.2 5185.7 4781.2 5185.7 4773.1 5191.6 4781.2 5197.4 4784.3 5207 4776.2 5201.1 4786.2 5201.1 4778.1 5195.2 4781.2 5185.7 4784.3 5176.2 4776.2 5182.1 4786.2 5182.1 4778.1 5187.9 4768.1 5187.9 4765 5197.4 4757 5191.6 4753.9 5201.1 4745.8 5195.2 4748.9 5204.7 4757 5198.8 4765 5193 4768.1 5183.4 4771.2 5193 4761.2 5193 4771.2 5193 4779.3 5198.8 4771.2 5204.7" clip-path="url(#a)" fill="none" stroke="#000" stroke-linecap="round"/>
<polyline points="4771.2 5204.7 4768.1 5195.2 4776.2 5201.1 4768.1 5195.2 4765 5204.7 4762 5195.2 4753.9 5201.1 4750.8 5210.6 4758.9 5216.5 4755.8 5226 4763.9 5220.1 4773.9 5220.1 4782 5214.2 4778.9 5223.7 4787 5229.6 4795 5235.5 4805 5235.5 4813.1 5229.6 4816.2 5220.1 4824.3 5226 4827.4 5216.5 4824.3 5207 4832.4 5201.1 4822.4 5201.1 4825.5 5210.6 4822.4 5201.1 4832.4 5201.1 4822.4 5201.1 4830.5 5207 4840.5 5207 4843.6 5216.5 4840.5 5226 4832.4 5231.9 4842.4 5231.9 4834.3 5226 4824.3 5226 4827.4 5235.5 4830.5 5226 4833.6 5216.5 4841.7 5222.3 4838.6 5231.9 4846.7 5237.7 4856.7 5237.7" clip-path="url(#a)" fill="none" stroke="#000" stroke-linecap="round"/>
<polyline points="4856.7 5237.7 4859.8 5228.2 4851.7 5222.3 4848.6 5212.8 4845.5 5203.3 4848.6 5212.8 4851.7 5222.3 4861.7 5222.3 4858.6 5231.9 4850.5 5237.7 4858.6 5243.6 4866.7 5237.7 4876.7 5237.7 4868.6 5243.6 4860.5 5249.5 4852.4 5243.6 4849.3 5234.1 4841.2 5240 4833.1 5234.1 4841.2 5240 4838.1 5230.5 4848.1 5230.5 4840 5224.6 4843.1 5215.1 4846.2 5224.6 4849.3 5234.1 4857.4 5228.2 4849.3 5222.3 4857.4 5228.2 4867.4 5228.2 4875.5 5234.1 4867.4 5228.2 4875.5 5234.1 4878.6 5224.6 4881.7 5215.1 4889.8 5221 4897.9 5215.1 4894.8 5224.6 4902.9 5230.5 4894.8 5224.6 4904.8 5224.6 4912.9 5230.5 4909.8 5240" clip-path="url(#a)" fill="none" stroke="#000" stroke-linecap="round"/>
<polyline points="4909.8 5240 4919.8 5240 4922.9 5230.5 4914.8 5236.3 4906.7 5242.2 4909.8 5251.7 4919.8 5251.7 4916.7 5242.2 4913.6 5251.7 4910.5 5242.2 4902.4 5248.1 4905.5 5238.6 4915.5 5238.6 4912.4 5248.1 4915.5 5257.6 4912.4 5248.1 4909.3 5238.6 4917.4 5232.7 4909.3 5226.8 4917.4 5221 4927.4 5221 4930.5 5230.5 4922.4 5236.3 4914.3 5230.5 4906.2 5236.3 4909.3 5226.8 4919.3 5226.8 4927.4 5221 4919.3 5226.8 4922.4 5217.3 4914.3 5223.2 4917.4 5232.7 4920.5 5223.2 4917.4 5232.7 4907.4 5232.7 4899.3 5238.6 4891.2 5244.5 4883.1 5250.3 4891.2 5244.5 4883.1 5250.3 4875 5244.5 4885 5244.5 4875 5244.5" clip-path="url(#a)" fill="none" stroke="#000" stroke-linecap="round"/>
<polyline points="4875 5244.5 4867 5238.6 4858.9 5244.5 4855.8 5254 4847.7 5248.1 4850.8 5238.6 4858.9 5244.5 4850.8 5250.3 4842.7 5256.2 4832.7 5256.2 4840.8 5262.1 4843.9 5271.6 4833.9 5271.6 4830.8 5281.1 4827.7 5290.6 4824.6 5281.1 4834.6 5281.1 4844.6 5281.1 4841.5 5271.6 4844.6 5262.1 4841.5 5252.6 4838.4 5243.1 4846.5 5249 4856.5 5249 4848.4 5243.1 4856.5 5249 4864.6 5243.1 4856.5 5249 4853.4 5258.5 4863.4 5258.5 4871.5 5264.3 4861.5 5264.3 4869.6 5258.5 4859.6 5258.5 4856.5 5249 4853.4 5239.4 4850.3 5249 4858.4 5243.1 4855.3 5252.6 4847.2 5258.5 4850.3 5268 4840.3 5268 4843.4 5277.5" clip-path="url(#a)" fill="none" stroke="#000" stroke-linecap="round"/>
<polyline points="4843.4 5277.5 4833.4 5277.5 4841.5 5283.4 4844.6 5273.9 4847.7 5264.3 4844.6 5254.8 4852.7 5260.7 4844.6 5266.6 4852.7 5260.7 4862.7 5260.7 4859.6 5270.2 4851.5 5264.3 4861.5 5264.3 4851.5 5264.3 4854.6 5273.9 4846.5 5268 4843.4 5277.5 4846.5 5287 4856.5 5287 4859.6 5296.5 4862.7 5287 4870.8 5281.1 4873.9 5271.6 4877 5281.1 4887 5281.1 4897 5281.1 4905 5275.2 4908.1 5265.7 4905 5256.2 4915 5256.2 4912 5246.7 4903.9 5240.8 4907 5231.3 4898.9 5237.2 4907 5243.1 4898.9 5237.2 4907 5231.3 4898.9 5237.2 4908.9 5237.2 4917 5231.3 4925 5237.2 4928.1 5246.7 4925 5256.2" clip-path="url(#a)" fill="none" stroke="#000" stroke-linecap="round"/>
<polyline points="4925 5256.2 4933.1 5250.3 4923.1 5250.3 4915 5256.2 4923.1 5262.1 4920 5252.6 4917 5243.1 4927 5243.1 4930 5252.6 4940 5252.6 4948.1 5246.7 4945 5237.2 4935 5237.2 4927 5231.3 4918.9 5225.4 4927 5231.3 4935 5237.2 4943.1 5231.3 4946.2 5240.8 4943.1 5250.3 4953.1 5250.3 4956.2 5240.8 4964.3 5235 4961.2 5244.5 4958.1 5254 4948.1 5254 4940 5248.1 4937 5257.6 4927 5257.6 4937 5257.6 4928.9 5251.7 4937 5245.9 4927 5245.9 4923.9 5236.3 4932 5242.2 4940 5248.1 4943.1 5238.6 4933.1 5238.6 4943.1 5238.6 4951.2 5232.7 4961.2 5232.7 4951.2 5232.7 4961.2 5232.7" clip-path="url(#a)" fill="none" stroke="#000" stroke-linecap="round"/>
<polyline points="4961.2 5232.7 4958.1 5223.2 4955 5213.7 4965 5213.7 4968.1 5204.2 4971.2 5213.7 4981.2 5213.7 4971.2 5213.7 4979.3 5207.8 4989.3 5207.8 4992.4 5217.3 5000.5 5211.4 4997.4 5201.9 4994.3 5211.4 4991.2 5221 4999.3 5226.8 5007.4 5221 4999.3 5215.1 5002.4 5224.6 4994.3 5218.7 4991.2 5228.2 4988.1 5218.7 4996.2 5212.8 4999.3 5222.3 5007.4 5228.2 4999.3 5222.3 4991.2 5216.5 4994.3 5207 4984.3 5207 4987.4 5197.4 4995.5 5191.6 5003.6 5197.4 5000.5 5207 4990.5 5207 4987.4 5216.5 4984.3 5207 4992.4 5201.1 4995.5 5191.6 4992.4 5201.1 4989.3 5191.6 4986.2 5201.1 4994.3 5207 4991.2 5197.4" clip-path="url(#a)" fill="none" stroke="#000" stroke-linecap="round"/>
<polyline points="4991.2 5197.4 4994.3 5207 4986.2 5212.8 4983.1 5222.3 4980 5231.9 4977 5241.4 4980 5231.9 4977 5241.4 4967 5241.4 4975 5235.5 4967 5241.4 4957 5241.4 4953.9 5250.9 4957 5260.4 4947 5260.4 4943.9 5250.9 4953.9 5250.9 4950.8 5260.4 4947.7 5269.9 4939.6 5275.8 4949.6 5275.8 4957.7 5281.7 4949.6 5287.5 4952.7 5297 4955.8 5306.6 4947.7 5300.7 4955.8 5294.8 4963.9 5288.9 4955.8 5283 4952.7 5273.5 4944.6 5267.7 4936.5 5261.8 4946.5 5261.8 4954.6 5255.9 4944.6 5255.9 4954.6 5255.9 4957.7 5246.4 4954.6 5255.9 4957.7 5265.4 4965.8 5259.5 4975.8 5259.5 4967.7 5265.4 4970.8 5255.9" clip-path="url(#a)" fill="none" stroke="#000" stroke-linecap="round"/>
<polyline points="4970.8 5255.9 4962.7 5261.8 4954.6 5255.9 4946.5 5250 4949.6 5259.5 4952.7 5250 4955.8 5259.5 4952.7 5269 4960.8 5274.9 4952.7 5280.8 4960.8 5286.7 4952.7 5292.6 4962.7 5292.6 4959.6 5283 4956.5 5273.5 4948.4 5267.7 4958.4 5267.7 4955.3 5277.2 4958.4 5267.7 4966.5 5261.8 4969.6 5271.3 4959.6 5271.3 4967.7 5265.4 4959.6 5271.3 4967.7 5277.2 4957.7 5277.2 4960.8 5286.7 4968.9 5292.6 4977 5286.7 4985 5292.6 4982 5283 4985 5273.5 4982 5264 4990 5269.9 4998.1 5264 5006.2 5258.1 5009.3 5248.6 5006.2 5239.1 4998.1 5233.2 5006.2 5227.4 4998.1 5221.5 4988.1 5221.5 4985 5212" clip-path="url(#a)" fill="none" stroke="#000" stroke-linecap="round"/>
<polyline points="4985 5212 4982 5221.5 4992 5221.5 4982 5221.5 4985 5212 4982 5221.5 4990 5215.6 4993.1 5206.1 5003.1 5206.1 5011.2 5212 5014.3 5221.5 5017.4 5212 5009.3 5217.9 5006.2 5227.4 5016.2 5227.4 5008.1 5221.5 5e3 5215.6 5008.1 5209.7 5016.2 5215.6 5024.3 5209.7 5027.4 5200.2 5019.3 5194.3 5011.2 5200.2 5001.2 5200.2 4991.2 5200.2 5001.2 5200.2 5011.2 5200.2 5014.3 5190.7 5022.4 5196.6 5025.5 5206.1 5033.6 5200.2 5030.5 5190.7 5033.6 5181.2 5036.7 5190.7 5039.8 5200.2 5031.7 5206.1 5021.7 5206.1 5024.8 5215.6 5016.7 5221.5 5024.8 5215.6 5014.8 5215.6 5017.9 5206.1 5009.8 5212" clip-path="url(#a)" fill="none" stroke="#000" stroke-linecap="round"/>
<polyline points="5009.8 5212 5001.7 5206.1 5011.7 5206.1 5021.7 5206.1 5018.6 5196.6 5010.5 5202.5 5018.6 5196.6 5021.7 5187.1 5029.8 5181.2 5021.7 5187.1 5029.8 5181.2 5021.7 5175.3 5013.6 5169.4 5021.7 5163.6 5018.6 5154.1 5026.7 5159.9 5034.8 5154.1 5026.7 5159.9 5029.8 5150.4 5037.9 5144.5 5046 5150.4 5049 5140.9 5041 5135 5044 5144.5 5047.1 5154.1 5057.1 5154.1 5060.2 5144.5 5050.2 5144.5 5058.3 5150.4 5048.3 5150.4 5051.4 5159.9 5043.3 5154.1 5046.4 5144.5 5054.5 5150.4 5064.5 5150.4 5054.5 5150.4 5044.5 5150.4 5041.4 5140.9 5033.3 5146.8 5030.2 5137.3 5033.3 5127.8 5043.3 5127.8 5046.4 5137.3" clip-path="url(#a)" fill="none" stroke="#000" stroke-linecap="round"/>
<polyline points="5046.4 5137.3 5038.3 5143.2 5041.4 5152.7 5033.3 5146.8 5036.4 5137.3 5033.3 5127.8 5036.4 5137.3 5028.3 5131.4 5031.4 5140.9 5041.4 5140.9 5033.3 5135 5041.4 5140.9 5038.3 5150.4 5041.4 5159.9 5044.5 5169.4 5047.6 5179 5044.5 5169.4 5047.6 5179 5039.5 5184.8 5042.6 5175.3 5039.5 5184.8 5031.4 5190.7 5034.5 5200.2 5042.6 5206.1 5034.5 5212 5026.4 5206.1 5034.5 5200.2 5037.6 5209.7 5040.7 5219.2 5037.6 5228.8 5045.7 5222.9 5055.7 5222.9 5052.6 5232.4 5060.7 5238.3 5068.8 5244.1 5058.8 5244.1 5061.9 5234.6 5064.9 5225.1 5054.9 5225.1 5046.9 5219.2 5036.9 5219.2 5026.9 5219.2 5034.9 5213.4" clip-path="url(#a)" fill="none" stroke="#000" stroke-linecap="round"/>
<polyline points="5034.9 5213.4 5038 5203.9 5029.9 5209.7 5038 5203.9 5034.9 5194.3 5038 5203.9 5046.1 5209.7 5049.2 5200.2 5057.3 5194.3 5054.2 5203.9 5051.1 5194.3 5048 5203.9 5038 5203.9 5028 5203.9 5036.1 5209.7 5033 5200.2 5041.1 5206.1 5044.2 5215.6 5054.2 5215.6 5051.1 5225.1 5061.1 5225.1 5058 5234.6 5066.1 5228.8 5058 5222.9 5049.9 5217 5039.9 5217 5048 5211.1 5051.1 5220.6 5048 5211.1 5051.1 5201.6 5059.2 5207.5 5051.1 5213.4 5054.2 5203.9 5051.1 5213.4 5061.1 5213.4 5053 5219.2 5061.1 5225.1 5071.1 5225.1 5074.2 5215.6 5084.2 5215.6 5076.1 5209.7 5073 5200.2 5064.9 5194.3" clip-path="url(#a)" fill="none" stroke="#000" stroke-linecap="round"/>
<polyline points="5064.9 5194.3 5074.9 5194.3 5078 5184.8 5081.1 5175.3 5078 5165.8 5069.9 5159.9 5059.9 5159.9 5063 5150.4 5053 5150.4 5044.9 5156.3 5036.9 5150.4 5039.9 5159.9 5048 5154.1 5039.9 5159.9 5036.9 5150.4 5039.9 5159.9 5043 5150.4 5039.9 5140.9 5048 5135 5058 5135 5066.1 5140.9 5063 5131.4 5059.9 5140.9 5063 5150.4 5071.1 5144.5 5061.1 5144.5 5051.1 5144.5 5054.2 5135 5064.2 5135 5067.3 5125.5 5064.2 5116 5054.2 5116 5051.1 5125.5 5043 5131.4 5034.9 5137.3 5043 5131.4 5051.1 5125.5 5048 5116 5058 5116 5066.1 5121.9 5069.2 5112.4 5061.1 5106.5 5058 5097" clip-path="url(#a)" fill="none" stroke="#000" stroke-linecap="round"/>
<polyline points="5058 5097 5066.1 5102.9 5074.2 5108.7 5071.1 5118.3 5063 5124.1 5071.1 5130 5068 5139.5 5071.1 5130 5063 5135.9 5059.9 5126.4 5056.9 5135.9 5046.9 5135.9 5054.9 5130 5063 5124.1 5054.9 5118.3 5051.9 5127.8 5054.9 5118.3 5051.9 5108.7 5054.9 5099.2 5051.9 5108.7 5054.9 5099.2 5044.9 5099.2 5034.9 5099.2 5038 5089.7 5029.9 5083.8 5039.9 5083.8 5043 5074.3 5039.9 5083.8 5036.9 5074.3 5039.9 5064.8 5049.9 5064.8 5046.9 5055.3 5036.9 5055.3 5044.9 5061.2 5053 5067.1 5061.1 5061.2 5058 5051.7 5049.9 5057.6 5059.9 5057.6 5051.9 5063.4 5059.9 5069.3 5049.9 5069.3 5046.9 5059.8" clip-path="url(#a)" fill="none" stroke="#000" stroke-linecap="round"/>
<polyline points="5046.9 5059.8 5056.9 5059.8 5064.9 5053.9 5056.9 5059.8 5048.8 5065.7 5040.7 5059.8 5037.6 5069.3 5029.5 5063.4 5026.4 5053.9 5034.5 5048.1 5042.6 5053.9 5039.5 5063.4 5047.6 5069.3 5037.6 5069.3 5034.5 5059.8 5026.4 5053.9 5034.5 5059.8 5024.5 5059.8 5032.6 5065.7 5040.7 5059.8 5030.7 5059.8 5040.7 5059.8 5043.8 5069.3 5051.9 5075.2 5059.9 5081.1 5068 5087 5059.9 5081.1 5068 5087 5064.9 5096.5 5061.9 5087 5064.9 5096.5 5061.9 5106 5069.9 5111.9 5079.9 5111.9 5076.9 5121.4 5066.9 5121.4 5069.9 5111.9 5078 5117.7 5086.1 5123.6 5089.2 5133.1 5092.3 5123.6 5100.4 5117.7 5103.5 5127.2" clip-path="url(#a)" fill="none" stroke="#000" stroke-linecap="round"/>
<polyline points="5103.5 5127.2 5113.5 5127.2 5123.5 5127.2 5115.4 5133.1 5112.3 5123.6 5109.2 5114.1 5101.1 5120 5091.1 5120 5083 5125.9 5074.9 5131.7 5078 5122.2 5074.9 5112.7 5071.9 5122.2 5074.9 5112.7 5066.9 5106.8 5074.9 5112.7 5084.9 5112.7 5081.9 5103.2 5084.9 5093.7 5088 5103.2 5079.9 5097.3 5083 5106.8 5074.9 5112.7 5066.9 5118.6 5076.9 5118.6 5068.8 5112.7 5078.8 5112.7 5086.9 5118.6 5094.9 5112.7 5098 5122.2 5106.1 5116.3 5109.2 5125.9 5112.3 5116.3 5102.3 5116.3 5092.3 5116.3 5084.2 5122.2 5087.3 5112.7 5095.4 5118.6 5087.3 5112.7 5084.2 5103.2 5094.2 5103.2 5091.1 5112.7 5088 5103.2" clip-path="url(#a)" fill="none" stroke="#000" stroke-linecap="round"/>
<polyline points="5088 5103.2 5091.1 5112.7 5099.2 5106.8 5096.1 5116.3 5106.1 5116.3 5114.2 5110.5 5111.1 5101 5119.2 5095.1 5109.2 5095.1 5101.1 5089.2 5091.1 5089.2 5099.2 5083.3 5096.1 5073.8 5093 5064.3 5084.9 5058.4 5074.9 5058.4 5066.9 5064.3 5063.8 5054.8 5055.7 5060.7 5052.6 5070.2 5042.6 5070.2 5050.7 5076.1 5053.8 5066.5 5050.7 5076.1 5042.6 5070.2 5050.7 5076.1 5047.6 5066.5 5039.5 5060.7 5042.6 5051.2 5050.7 5045.3 5060.7 5045.3 5052.6 5039.4 5055.7 5048.9 5063.8 5054.8 5066.9 5045.3 5058.8 5051.2 5050.7 5057 5047.6 5047.5 5055.7 5041.6 5052.6 5032.1 5044.5 5026.3 5036.4 5032.1 5039.5 5041.6" clip-path="url(#a)" fill="none" stroke="#000" stroke-linecap="round"/>
<polyline points="5039.5 5041.6 5036.4 5051.2 5033.3 5060.7 5036.4 5051.2 5039.5 5041.6 5031.4 5035.8 5039.5 5029.9 5049.5 5029.9 5046.4 5020.4 5036.4 5020.4 5028.3 5014.5 5038.3 5014.5 5048.3 5014.5 5051.4 5024 5048.3 5033.5 5058.3 5033.5 5061.4 5043 5058.3 5033.5 5055.2 5043 5047.1 5037.2 5050.2 5046.7 5042.1 5052.5 5045.2 5043 5048.3 5033.5 5038.3 5033.5 5041.4 5043 5038.3 5033.5 5030.2 5027.6 5027.1 5018.1 5030.2 5027.6 5027.1 5018.1 5019 5024 5011 5029.9 5007.9 5020.4 4997.9 5020.4 5006 5014.5 5002.9 5005 5006 5014.5 4997.9 5008.6 4994.8 4999.1 5002.9 4993.2 4994.8 4987.4 4986.7 4993.2" clip-path="url(#a)" fill="none" stroke="#000" stroke-linecap="round"/>
<polyline points="4986.7 4993.2 4996.7 4993.2 5006.7 4993.2 5009.8 4983.7 5001.7 4977.8 4998.6 4987.4 5006.7 4981.5 5003.6 4991 5013.6 4991 5005.5 4996.9 4997.4 4991 5005.5 4985.1 5008.6 4975.6 5005.5 4985.1 5002.4 4994.6 4992.4 4994.6 4995.5 5004.1 4985.5 5004.1 4977.4 4998.3 4980.5 4988.7 4990.5 4988.7 4993.6 4998.3 5003.6 4998.3 4995.5 5004.1 4987.4 4998.3 4977.4 4998.3 4987.4 4998.3 4979.3 5004.1 4989.3 5004.1 4992.4 4994.6 4984.3 5000.5 4992.4 4994.6 5000.5 5000.5" clip-path="url(#a)" fill="none" stroke="#000" stroke-linecap="round"/>
</svg>
