<?xml version="1.0" encoding="UTF-8"?>
<svg width="1e4px" height="1e4px" baseProfile="full" version="1.1" viewBox="3461.1 4924.4 1582.5 1778.5" xmlns="http://www.w3.org/2000/svg">
<defs>
<clipPath id="a">
<rect width="1e4" height="1e4"/>
</clipPath>
</defs>
<polyline points="5000.5 5000.5 5010.5 5000.5 5020.5 5000.5 5030.5 5000.5 5020.5 5000.5 5030.5 5000.5 5033.6 4991 5025.5 4996.9 5017.4 4991 5027.4 4991 5035.5 4985.1 5043.6 4991 5035.5 4996.9 5027.4 4991 5030.5 5000.5 5027.4 4991 5019.3 4996.9 5011.2 5002.7 5019.3 5008.6 5016.2 5018.1 5013.1 5008.6 5023.1 5008.6 5015 5002.7 5007 4996.9 5003.9 5006.4 5013.9 5006.4 5022 5000.5 5012 5000.5 5003.9 4994.6 4993.9 4994.6 4997 4985.1 4993.9 4975.6 4983.9 4975.6 4987 4966.1 4990 4956.6 4998.1 4962.5 5008.1 4962.5 5011.2 4972 5021.2 4972 5018.1 4962.5 5008.1 4962.5 4998.1 4962.5 5006.2 4968.3" clip-path="url(#a)" fill="none" stroke="#000" stroke-linecap="round"/>
<polyline points="5006.2 4968.3 5003.1 4958.8 4995 4952.9 4992 4943.4 5e3 4937.6 5008.1 4943.4 5011.2 4952.9 5008.1 4943.4 5005 4933.9 4995 4933.9 4998.1 4924.4 5001.2 4933.9 5011.2 4933.9 5003.1 4928 5e3 4937.6 4997 4947.1 4988.9 4952.9 4997 4958.8 5e3 4968.3 5010 4968.3 5013.1 4958.8 5016.2 4968.3 5013.1 4958.8 5005 4952.9 5002 4943.4 4993.9 4949.3 5002 4955.2 4993.9 4961.1 4985.8 4966.9 4982.7 4976.5 4979.6 4966.9 4982.7 4976.5 4972.7 4976.5 4980.8 4982.3 4972.7 4976.5 4975.8 4966.9 4972.7 4976.5 4969.6 4966.9 4961.5 4972.8 4969.6 4966.9 4961.5 4961.1 4969.6 4966.9 4972.7 4976.5" clip-path="url(#a)" fill="none" stroke="#000" stroke-linecap="round"/>
<polyline points="4972.7 4976.5 4980.8 4982.3 4990.8 4982.3 4982.7 4988.2 4974.6 4994.1 4977.7 5003.6 4987.7 5003.6 4997.7 5003.6 5005.8 5009.5 5008.9 5019 5012 5009.5 5003.9 5015.4 5000.8 5005.8 5003.9 5015.4 5012 5021.2 5015 5011.7 5025 5011.7 5033.1 5005.8 5030 4996.3 5022 4990.5 5030 4996.3 5027 4986.8 5035 4992.7 5038.1 5002.2 5030 4996.3 5020 4996.3 5023.1 5005.8 5033.1 5005.8 5023.1 5005.8 5015 5e3 5025 5e3 5017 5005.8 5008.9 5e3 5017 5005.8 5025 5011.7 5022 5021.2 5030 5027.1 5027 5036.6 5018.9 5030.7 5010.8 5036.6 5000.8 5036.6 4997.7 5046.1 4987.7 5046.1" clip-path="url(#a)" fill="none" stroke="#000" stroke-linecap="round"/>
<polyline points="4987.7 5046.1 4979.6 5052 4976.5 5042.5 4984.6 5048.4 4976.5 5054.3 4966.5 5054.3 4976.5 5054.3 4966.5 5054.3 4963.4 5044.7 4960.3 5035.2 4952.2 5029.4 4942.2 5029.4 4932.2 5029.4 4940.3 5035.2 4943.4 5044.7 4933.4 5044.7 4930.3 5054.3 4940.3 5054.3 4937.2 5063.8 4940.3 5054.3 4943.4 5063.8 4940.3 5073.3 4937.2 5082.8 4934.1 5073.3 4931.1 5063.8 4941.1 5063.8 4938 5073.3 4948 5073.3 4939.9 5067.4 4943 5057.9 4946.1 5048.4 4949.1 5057.9 4941.1 5052 4933 5057.9 4923 5057.9 4919.9 5048.4 4911.8 5054.3 4921.8 5054.3 4924.9 5044.7 4921.8 5054.3 4929.9 5048.4 4933 5038.9 4924.9 5044.7" clip-path="url(#a)" fill="none" stroke="#000" stroke-linecap="round"/>
<polyline points="4924.9 5044.7 4933 5050.6 4923 5050.6 4931.1 5056.5 4921.1 5056.5 4929.1 5062.4 4937.2 5068.3 4934.1 5077.8 4924.1 5077.8 4927.2 5087.3 4924.1 5096.8 4916.1 5090.9 4924.1 5085 4934.1 5085 4944.1 5085 4954.1 5085 4944.1 5085 4954.1 5085 4957.2 5075.5 4949.1 5081.4 4941.1 5075.5 4951.1 5075.5 4959.1 5069.6 4967.2 5075.5 4959.1 5081.4 4951.1 5075.5 4954.1 5085 4951.1 5075.5 4943 5081.4 4934.9 5087.3 4943 5093.2 4939.9 5102.7 4936.8 5093.2 4946.8 5093.2 4938.7 5087.3 4930.6 5081.4 4927.5 5090.9 4937.5 5090.9 4945.6 5085 4935.6 5085 4927.5 5079.2 4917.5 5079.2 4920.6 5069.6" clip-path="url(#a)" fill="none" stroke="#000" stroke-linecap="round"/>
<polyline points="4920.6 5069.6 4917.5 5060.1 4907.5 5060.1 4910.6 5050.6 4913.7 5041.1 4921.8 5047 4931.8 5047 4934.9 5056.5 4944.9 5056.5 4941.8 5047 4931.8 5047 4921.8 5047 4929.9 5052.9 4926.8 5043.4 4918.7 5037.5 4915.6 5028 4923.7 5022.1 4931.8 5028 4934.9 5037.5 4931.8 5028 4928.7 5018.5 4918.7 5018.5 4921.8 5009 4924.9 5018.5 4934.9 5018.5 4926.8 5012.6 4923.7 5022.1 4920.6 5031.6 4912.5 5037.5 4920.6 5043.4 4923.7 5052.9 4933.7 5052.9 4936.8 5043.4 4939.9 5052.9 4936.8 5043.4 4928.7 5037.5 4925.6 5028 4917.5 5033.8 4925.6 5039.7 4917.5 5045.6 4909.4 5051.5 4906.3 5061 4903.2 5051.5" clip-path="url(#a)" fill="none" stroke="#000" stroke-linecap="round"/>
<polyline points="4903.2 5051.5 4906.3 5061 4896.3 5061 4904.4 5066.9 4896.3 5061 4899.4 5051.5 4896.3 5061 4893.2 5051.5 4885.2 5057.4 4893.2 5051.5 4885.2 5045.6 4893.2 5051.5 4896.3 5061 4904.4 5066.9 4914.4 5066.9 4906.3 5072.7 4898.2 5078.6 4901.3 5088.1 4911.3 5088.1 4921.3 5088.1 4929.4 5094 4932.5 5103.5 4935.6 5094 4927.5 5099.9 4924.4 5090.4 4927.5 5099.9 4935.6 5105.8 4938.7 5096.3 4948.7 5096.3 4956.8 5090.4 4953.7 5080.9 4945.6 5075 4953.7 5080.9 4950.6 5071.4 4958.7 5077.2 4961.8 5086.8 4953.7 5080.9 4943.7 5080.9 4946.8 5090.4 4956.8 5090.4 4946.8 5090.4 4938.7 5084.5 4948.7 5084.5" clip-path="url(#a)" fill="none" stroke="#000" stroke-linecap="round"/>
<polyline points="4948.7 5084.5 4940.6 5090.4 4932.5 5084.5 4940.6 5090.4 4948.7 5096.3 4945.6 5105.8 4953.7 5111.6 4950.6 5121.2 4942.5 5115.3 4934.4 5121.2 4924.4 5121.2 4921.3 5130.7 4911.3 5130.7 4903.2 5136.5 4900.2 5127 4908.2 5132.9 4900.2 5138.8 4890.2 5138.8 4900.2 5138.8 4890.2 5138.8 4887.1 5129.3 4884 5119.8 4875.9 5113.9 4865.9 5113.9 4855.9 5113.9 4864 5119.8 4867.1 5129.3 4857.1 5129.3 4854 5138.8 4864 5138.8 4860.9 5148.3 4864 5138.8 4867.1 5148.3 4864 5157.8 4860.9 5167.3 4857.8 5157.8 4854.7 5148.3 4864.7 5148.3 4861.6 5157.8 4871.6 5157.8 4863.5 5151.9 4866.6 5142.4 4869.7 5132.9" clip-path="url(#a)" fill="none" stroke="#000" stroke-linecap="round"/>
<polyline points="4869.7 5132.9 4872.8 5142.4 4864.7 5136.5 4856.6 5142.4 4846.6 5142.4 4843.5 5132.9 4835.4 5138.8 4845.4 5138.8 4848.5 5129.3 4845.4 5138.8 4853.5 5132.9 4856.6 5123.4 4848.5 5129.3 4856.6 5135.2 4846.6 5135.2 4854.7 5141 4844.7 5141 4852.8 5146.9 4860.9 5152.8 4857.8 5162.3 4847.8 5162.3 4850.9 5171.8 4847.8 5181.3 4839.7 5175.4 4847.8 5169.6 4857.8 5169.6 4867.8 5169.6 4877.8 5169.6 4867.8 5169.6 4877.8 5169.6 4880.9 5160.1 4872.8 5165.9 4864.7 5160.1 4874.7 5160.1 4882.8 5154.2 4890.9 5160.1 4882.8 5165.9 4874.7 5160.1 4877.8 5169.6 4874.7 5160.1 4866.6 5165.9 4858.5 5171.8 4866.6 5177.7" clip-path="url(#a)" fill="none" stroke="#000" stroke-linecap="round"/>
<polyline points="4866.6 5177.7 4863.5 5187.2 4860.4 5177.7 4870.4 5177.7 4862.3 5171.8 4854.3 5165.9 4851.2 5175.4 4861.2 5175.4 4869.3 5169.6 4859.3 5169.6 4851.2 5163.7 4841.2 5163.7 4844.3 5154.2 4841.2 5144.7 4831.2 5144.7 4834.3 5135.2 4837.3 5125.7 4845.4 5131.5 4855.4 5131.5 4858.5 5141 4868.5 5141 4865.4 5131.5 4855.4 5131.5 4845.4 5131.5 4853.5 5137.4 4850.4 5127.9 4842.3 5122 4839.3 5112.5 4847.3 5106.6 4855.4 5112.5 4858.5 5122 4855.4 5112.5 4852.3 5103 4842.3 5103 4845.4 5093.5 4848.5 5103 4858.5 5103 4850.4 5097.1 4847.3 5106.6 4844.3 5116.1 4836.2 5122 4844.3 5127.9 4847.3 5137.4" clip-path="url(#a)" fill="none" stroke="#000" stroke-linecap="round"/>
<polyline points="4847.3 5137.4 4857.3 5137.4 4860.4 5127.9 4863.5 5137.4 4860.4 5127.9 4852.3 5122 4849.3 5112.5 4841.2 5118.4 4849.3 5124.3 4841.2 5130.1 4833.1 5136 4830 5145.5 4826.9 5136 4830 5145.5 4820 5145.5 4828.1 5151.4 4820 5145.5 4823.1 5136 4820 5145.5 4816.9 5136 4808.8 5141.9 4816.9 5136 4808.8 5130.1 4816.9 5136 4820 5145.5 4828.1 5151.4 4838.1 5151.4 4830 5157.3 4821.9 5163.2 4825 5172.7 4835 5172.7 4845 5172.7 4853.1 5178.6 4856.2 5188.1 4859.3 5178.6 4851.2 5184.4 4848.1 5174.9 4851.2 5184.4 4859.3 5190.3 4862.3 5180.8 4872.3 5180.8 4880.4 5174.9 4877.3 5165.4" clip-path="url(#a)" fill="none" stroke="#000" stroke-linecap="round"/>
<polyline points="4877.3 5165.4 4869.3 5159.5 4877.3 5165.4 4874.3 5155.9 4882.3 5161.8 4885.4 5171.3 4877.3 5165.4 4867.3 5165.4 4870.4 5174.9 4880.4 5174.9 4870.4 5174.9 4862.3 5169 4872.3 5169 4864.3 5174.9 4856.2 5169 4864.3 5174.9 4872.3 5180.8 4869.3 5190.3 4877.3 5196.2 4874.3 5205.7 4866.2 5199.8 4858.1 5205.7 4848.1 5205.7 4845 5215.2 4835 5215.2 4826.9 5221.1 4823.8 5211.6 4831.9 5217.5 4823.8 5223.3 4813.8 5223.3 4823.8 5223.3 4813.8 5223.3 4810.7 5213.8 4807.6 5204.3 4799.5 5198.4 4789.5 5198.4 4779.5 5198.4 4787.6 5204.3 4790.7 5213.8 4780.7 5213.8 4777.6 5223.3 4787.6 5223.3 4784.5 5232.8" clip-path="url(#a)" fill="none" stroke="#000" stroke-linecap="round"/>
<polyline points="4784.5 5232.8 4787.6 5223.3 4790.7 5232.8 4787.6 5242.3 4784.5 5251.9 4781.4 5242.3 4778.4 5232.8 4788.4 5232.8 4785.3 5242.3 4795.3 5242.3 4787.2 5236.5 4790.3 5227 4793.4 5217.5 4796.4 5227 4788.4 5221.1 4780.3 5227 4770.3 5227 4767.2 5217.5 4759.1 5223.3 4769.1 5223.3 4772.2 5213.8 4769.1 5223.3 4777.2 5217.5 4780.3 5207.9 4772.2 5213.8 4780.3 5219.7 4770.3 5219.7 4778.4 5225.6 4768.4 5225.6 4776.4 5231.5 4784.5 5237.3 4781.4 5246.8 4771.4 5246.8 4774.5 5256.4 4771.4 5265.9 4763.4 5260 4771.4 5254.1 4781.4 5254.1 4791.4 5254.1 4801.4 5254.1 4791.4 5254.1 4801.4 5254.1 4804.5 5244.6" clip-path="url(#a)" fill="none" stroke="#000" stroke-linecap="round"/>
<polyline points="4804.5 5244.6 4796.4 5250.5 4788.4 5244.6 4798.4 5244.6 4806.4 5238.7 4814.5 5244.6 4806.4 5250.5 4798.4 5244.6 4801.4 5254.1 4798.4 5244.6 4790.3 5250.5 4782.2 5256.4 4790.3 5262.2 4787.2 5271.7 4784.1 5262.2 4794.1 5262.2 4786 5256.4 4777.9 5250.5 4774.8 5260 4784.8 5260 4792.9 5254.1 4782.9 5254.1 4774.8 5248.2 4764.8 5248.2 4767.9 5238.7 4764.8 5229.2 4754.8 5229.2 4757.9 5219.7 4761 5210.2 4769.1 5216.1 4779.1 5216.1 4782.2 5225.6 4792.2 5225.6 4789.1 5216.1 4779.1 5216.1 4769.1 5216.1 4777.2 5221.9 4774.1 5212.4 4766 5206.6 4762.9 5197 4771 5191.2 4779.1 5197 4782.2 5206.6" clip-path="url(#a)" fill="none" stroke="#000" stroke-linecap="round"/>
<polyline points="4782.2 5206.6 4779.1 5197 4776 5187.5 4766 5187.5 4769.1 5178 4772.2 5187.5 4782.2 5187.5 4774.1 5181.7 4771 5191.2 4767.9 5200.7 4759.8 5206.6 4767.9 5212.4 4771 5221.9 4781 5221.9 4784.1 5212.4 4787.2 5221.9 4784.1 5212.4 4776 5206.6 4772.9 5197 4764.8 5202.9 4772.9 5208.8 4764.8 5214.7 4756.7 5220.6 4753.6 5230.1 4750.5 5220.6 4753.6 5230.1 4743.6 5230.1 4751.7 5235.9 4743.6 5230.1 4746.7 5220.6 4743.6 5230.1 4740.5 5220.6 4732.5 5226.4 4740.5 5220.6 4732.5 5214.7 4740.5 5220.6 4743.6 5230.1 4751.7 5235.9 4761.7 5235.9 4753.6 5241.8 4745.5 5247.7 4748.6 5257.2 4758.6 5257.2" clip-path="url(#a)" fill="none" stroke="#000" stroke-linecap="round"/>
<polyline points="4758.6 5257.2 4768.6 5257.2 4776.7 5263.1 4779.8 5272.6 4782.9 5263.1 4774.8 5269 4771.7 5259.5 4774.8 5269 4782.9 5274.8 4786 5265.3 4796 5265.3 4804.1 5259.5 4801 5249.9 4792.9 5244.1 4801 5249.9 4797.9 5240.4 4806 5246.3 4809.1 5255.8 4801 5249.9 4791 5249.9 4794.1 5259.5 4804.1 5259.5 4794.1 5259.5 4786 5253.6 4796 5253.6 4787.9 5259.5 4779.8 5253.6 4787.9 5259.5 4796 5265.3 4792.9 5274.8 4801 5280.7 4797.9 5290.2 4789.8 5284.4 4781.7 5290.2 4771.7 5290.2 4768.6 5299.7 4758.6 5299.7 4750.5 5305.6 4747.5 5296.1 4755.5 5302 4747.5 5307.9 4737.5 5307.9 4747.5 5307.9" clip-path="url(#a)" fill="none" stroke="#000" stroke-linecap="round"/>
<polyline points="4747.5 5307.9 4737.5 5307.9 4734.4 5298.4 4731.3 5288.8 4723.2 5283 4713.2 5283 4703.2 5283 4711.3 5288.8 4714.4 5298.4 4704.4 5298.4 4701.3 5307.9 4711.3 5307.9 4708.2 5317.4 4711.3 5307.9 4714.4 5317.4 4711.3 5326.9 4708.2 5336.4 4705.1 5326.9 4702 5317.4 4712 5317.4 4708.9 5326.9 4718.9 5326.9 4710.8 5321 4713.9 5311.5 4717 5302 4720.1 5311.5 4712 5305.6 4703.9 5311.5 4693.9 5311.5 4690.8 5302 4682.7 5307.9 4692.7 5307.9 4695.8 5298.4 4692.7 5307.9 4700.8 5302 4703.9 5292.5 4695.8 5298.4 4703.9 5304.2 4693.9 5304.2 4702 5310.1 4692 5310.1 4700.1 5316 4708.2 5321.9" clip-path="url(#a)" fill="none" stroke="#000" stroke-linecap="round"/>
<polyline points="4708.2 5321.9 4705.1 5331.4 4695.1 5331.4 4698.2 5340.9 4695.1 5350.4 4687 5344.5 4695.1 5338.6 4705.1 5338.6 4715.1 5338.6 4725.1 5338.6 4715.1 5338.6 4725.1 5338.6 4728.2 5329.1 4720.1 5335 4712 5329.1 4722 5329.1 4730.1 5323.3 4738.2 5329.1 4730.1 5335 4722 5329.1 4725.1 5338.6 4722 5329.1 4713.9 5335 4705.8 5340.9 4713.9 5346.8 4710.8 5356.3 4707.7 5346.8 4717.7 5346.8 4709.6 5340.9 4701.5 5335 4698.5 5344.5 4708.5 5344.5 4716.5 5338.6 4706.5 5338.6 4698.5 5332.8 4688.5 5332.8 4691.5 5323.3 4688.5 5313.7 4678.5 5313.7 4681.5 5304.2 4684.6 5294.7 4692.7 5300.6 4702.7 5300.6" clip-path="url(#a)" fill="none" stroke="#000" stroke-linecap="round"/>
<polyline points="4702.7 5300.6 4705.8 5310.1 4715.8 5310.1 4712.7 5300.6 4702.7 5300.6 4692.7 5300.6 4700.8 5306.5 4697.7 5297 4689.6 5291.1 4686.5 5281.6 4694.6 5275.7 4702.7 5281.6 4705.8 5291.1 4702.7 5281.6 4699.6 5272.1 4689.6 5272.1 4692.7 5262.6 4695.8 5272.1 4705.8 5272.1 4697.7 5266.2 4694.6 5275.7 4691.5 5285.2 4683.5 5291.1 4691.5 5297 4694.6 5306.5 4704.6 5306.5 4707.7 5297 4710.8 5306.5 4707.7 5297 4699.6 5291.1 4696.5 5281.6 4688.5 5287.5 4696.5 5293.3 4688.5 5299.2 4680.4 5305.1 4677.3 5314.6 4674.2 5305.1 4677.3 5314.6 4667.3 5314.6 4675.4 5320.5 4667.3 5314.6 4670.4 5305.1 4667.3 5314.6" clip-path="url(#a)" fill="none" stroke="#000" stroke-linecap="round"/>
<polyline points="4667.3 5314.6 4664.2 5305.1 4656.1 5311 4664.2 5305.1 4656.1 5299.2 4664.2 5305.1 4667.3 5314.6 4675.4 5320.5 4685.4 5320.5 4677.3 5326.4 4669.2 5332.2 4672.3 5341.7 4682.3 5341.7 4692.3 5341.7 4700.4 5347.6 4703.5 5357.1 4706.5 5347.6 4698.5 5353.5 4695.4 5344 4698.5 5353.5 4706.5 5359.4 4709.6 5349.9 4719.6 5349.9 4727.7 5344 4724.6 5334.5 4716.5 5328.6 4724.6 5334.5 4721.5 5325 4729.6 5330.8 4732.7 5340.4 4724.6 5334.5 4714.6 5334.5 4717.7 5344 4727.7 5344 4717.7 5344 4709.6 5338.1 4719.6 5338.1 4711.5 5344 4703.5 5338.1 4711.5 5344 4719.6 5349.9 4716.5 5359.4 4724.6 5365.3" clip-path="url(#a)" fill="none" stroke="#000" stroke-linecap="round"/>
<polyline points="4724.6 5365.3 4721.5 5374.8 4713.5 5368.9 4705.4 5374.8 4695.4 5374.8 4692.3 5384.3 4682.3 5384.3 4674.2 5390.2 4671.1 5380.6 4679.2 5386.5 4671.1 5392.4 4661.1 5392.4 4671.1 5392.4 4661.1 5392.4 4658 5382.9 4654.9 5373.4 4646.8 5367.5 4636.8 5367.5 4626.8 5367.5 4634.9 5373.4 4638 5382.9 4628 5382.9 4624.9 5392.4 4634.9 5392.4 4631.8 5401.9 4634.9 5392.4 4638 5401.9 4634.9 5411.4 4631.8 5420.9 4628.7 5411.4 4625.6 5401.9 4635.6 5401.9 4632.6 5411.4 4642.6 5411.4 4634.5 5405.5 4637.6 5396 4640.6 5386.5 4643.7 5396 4635.6 5390.2 4627.6 5396 4617.6 5396 4614.5 5386.5 4606.4 5392.4" clip-path="url(#a)" fill="none" stroke="#000" stroke-linecap="round"/>
<polyline points="4606.4 5392.4 4616.4 5392.4 4619.5 5382.9 4616.4 5392.4 4624.5 5386.5 4627.6 5377 4619.5 5382.9 4627.6 5388.8 4617.6 5388.8 4625.6 5394.6 4615.6 5394.6 4623.7 5400.5 4631.8 5406.4 4628.7 5415.9 4618.7 5415.9 4621.8 5425.4 4618.7 5434.9 4610.6 5429.1 4618.7 5423.2 4628.7 5423.2 4638.7 5423.2 4648.7 5423.2 4638.7 5423.2 4648.7 5423.2 4651.8 5413.7 4643.7 5419.5 4635.6 5413.7 4645.6 5413.7 4653.7 5407.8 4661.8 5413.7 4653.7 5419.5 4645.6 5413.7 4648.7 5423.2 4645.6 5413.7 4637.6 5419.5 4629.5 5425.4 4637.6 5431.3 4634.5 5440.8 4631.4 5431.3 4641.4 5431.3 4633.3 5425.4 4625.2 5419.5 4622.1 5429.1" clip-path="url(#a)" fill="none" stroke="#000" stroke-linecap="round"/>
<polyline points="4622.1 5429.1 4632.1 5429.1 4640.2 5423.2 4630.2 5423.2 4622.1 5417.3 4612.1 5417.3 4615.2 5407.8 4612.1 5398.3 4602.1 5398.3 4605.2 5388.8 4608.3 5379.3 4616.4 5385.1 4626.4 5385.1 4629.5 5394.6 4639.5 5394.6 4636.4 5385.1 4626.4 5385.1 4616.4 5385.1 4624.5 5391 4621.4 5381.5 4613.3 5375.6 4610.2 5366.1 4618.3 5360.2 4626.4 5366.1 4629.5 5375.6 4626.4 5366.1 4623.3 5356.6 4613.3 5356.6 4616.4 5347.1 4619.5 5356.6 4629.5 5356.6 4621.4 5350.7 4618.3 5360.2 4615.2 5369.7 4607.1 5375.6 4615.2 5381.5 4618.3 5391 4628.3 5391 4631.4 5381.5 4634.5 5391 4631.4 5381.5 4623.3 5375.6 4620.2 5366.1" clip-path="url(#a)" fill="none" stroke="#000" stroke-linecap="round"/>
<polyline points="4620.2 5366.1 4612.1 5372 4620.2 5377.9 4612.1 5383.7 4604 5389.6 4600.9 5399.1 4597.8 5389.6 4600.9 5399.1 4590.9 5399.1 4599 5405 4590.9 5399.1 4594 5389.6 4590.9 5399.1 4587.8 5389.6 4579.7 5395.5 4587.8 5389.6 4579.7 5383.7 4587.8 5389.6 4590.9 5399.1 4599 5405 4609 5405 4600.9 5410.9 4592.8 5416.8 4595.9 5426.3 4605.9 5426.3 4615.9 5426.3 4624 5432.2 4627.1 5441.7 4630.2 5432.2 4622.1 5438 4619 5428.5 4622.1 5438 4630.2 5443.9 4633.3 5434.4 4643.3 5434.4 4651.4 5428.5 4648.3 5419 4640.2 5413.1 4648.3 5419 4645.2 5409.5 4653.3 5415.4 4656.4 5424.9 4648.3 5419" clip-path="url(#a)" fill="none" stroke="#000" stroke-linecap="round"/>
<polyline points="4648.3 5419 4638.3 5419 4641.4 5428.5 4651.4 5428.5 4641.4 5428.5 4633.3 5422.6 4643.3 5422.6 4635.2 5428.5 4627.1 5422.6 4635.2 5428.5 4643.3 5434.4 4640.2 5443.9 4648.3 5449.8 4645.2 5459.3 4637.1 5453.4 4629 5459.3 4619 5459.3 4615.9 5468.8 4605.9 5468.8 4597.8 5474.7 4594.7 5465.2 4602.8 5471.1 4594.7 5476.9 4584.7 5476.9 4594.7 5476.9 4584.7 5476.9 4581.7 5467.4 4578.6 5457.9 4570.5 5452 4560.5 5452 4550.5 5452 4558.6 5457.9 4561.7 5467.4 4551.7 5467.4 4548.6 5476.9 4558.6 5476.9 4555.5 5486.4 4558.6 5476.9 4561.7 5486.4 4558.6 5496 4555.5 5505.5 4552.4 5496 4549.3 5486.4" clip-path="url(#a)" fill="none" stroke="#000" stroke-linecap="round"/>
<polyline points="4549.3 5486.4 4559.3 5486.4 4556.2 5496 4566.2 5496 4558.1 5490.1 4561.2 5480.6 4564.3 5471.1 4567.4 5480.6 4559.3 5474.7 4551.2 5480.6 4541.2 5480.6 4538.1 5471.1 4530 5476.9 4540 5476.9 4543.1 5467.4 4540 5476.9 4548.1 5471.1 4551.2 5461.5 4543.1 5467.4 4551.2 5473.3 4541.2 5473.3 4549.3 5479.2 4539.3 5479.2 4547.4 5485.1 4555.5 5490.9 4552.4 5500.4 4542.4 5500.4 4545.5 5510 4542.4 5519.5 4534.3 5513.6 4542.4 5507.7 4552.4 5507.7 4562.4 5507.7 4572.4 5507.7 4562.4 5507.7 4572.4 5507.7 4575.5 5498.2 4567.4 5504.1 4559.3 5498.2 4569.3 5498.2 4577.4 5492.3 4585.5 5498.2 4577.4 5504.1" clip-path="url(#a)" fill="none" stroke="#000" stroke-linecap="round"/>
<polyline points="4577.4 5504.1 4569.3 5498.2 4572.4 5507.7 4569.3 5498.2 4561.2 5504.1 4553.1 5510 4561.2 5515.8 4558.1 5525.3 4555 5515.8 4565 5515.8 4556.9 5510 4548.8 5504.1 4545.8 5513.6 4555.8 5513.6 4563.8 5507.7 4553.8 5507.7 4545.8 5501.8 4535.8 5501.8 4538.8 5492.3 4535.8 5482.8 4525.8 5482.8 4528.8 5473.3 4531.9 5463.8 4540 5469.7 4550 5469.7 4553.1 5479.2 4563.1 5479.2 4560 5469.7 4550 5469.7 4540 5469.7 4548.1 5475.5 4545 5466 4536.9 5460.2 4533.8 5450.6 4541.9 5444.8 4550 5450.6 4553.1 5460.2 4550 5450.6 4546.9 5441.1 4536.9 5441.1 4540 5431.6 4543.1 5441.1 4553.1 5441.1" clip-path="url(#a)" fill="none" stroke="#000" stroke-linecap="round"/>
<polyline points="4553.1 5441.1 4545 5435.3 4541.9 5444.8 4538.8 5454.3 4530.8 5460.2 4538.8 5466 4541.9 5475.5 4551.9 5475.5 4555 5466 4558.1 5475.5 4555 5466 4546.9 5460.2 4543.8 5450.6 4535.8 5456.5 4543.8 5462.4 4535.8 5468.3 4527.7 5474.2 4524.6 5483.7 4521.5 5474.2 4524.6 5483.7 4514.6 5483.7 4522.7 5489.5 4514.6 5483.7 4517.7 5474.2 4514.6 5483.7 4511.5 5474.2 4503.4 5480 4511.5 5474.2 4503.4 5468.3 4511.5 5474.2 4514.6 5483.7 4522.7 5489.5 4532.7 5489.5 4524.6 5495.4 4516.5 5501.3 4519.6 5510.8 4529.6 5510.8 4539.6 5510.8 4547.7 5516.7 4550.8 5526.2 4553.8 5516.7 4545.8 5522.6 4542.7 5513.1" clip-path="url(#a)" fill="none" stroke="#000" stroke-linecap="round"/>
<polyline points="4542.7 5513.1 4545.8 5522.6 4553.8 5528.4 4556.9 5518.9 4566.9 5518.9 4575 5513.1 4571.9 5503.5 4563.8 5497.7 4571.9 5503.5 4568.8 5494 4576.9 5499.9 4580 5509.4 4571.9 5503.5 4561.9 5503.5 4565 5513.1 4575 5513.1 4565 5513.1 4556.9 5507.2 4566.9 5507.2 4558.8 5513.1 4550.8 5507.2 4558.8 5513.1 4566.9 5518.9 4563.8 5528.4 4571.9 5534.3 4568.8 5543.8 4560.8 5538 4552.7 5543.8 4542.7 5543.8 4539.6 5553.3 4529.6 5553.3 4521.5 5559.2 4518.4 5549.7 4526.5 5555.6 4518.4 5561.5 4508.4 5561.5 4518.4 5561.5 4508.4 5561.5 4505.3 5552 4502.2 5542.4 4494.1 5536.6 4484.1 5536.6 4474.1 5536.6" clip-path="url(#a)" fill="none" stroke="#000" stroke-linecap="round"/>
<polyline points="4474.1 5536.6 4482.2 5542.4 4485.3 5552 4475.3 5552 4472.2 5561.5 4482.2 5561.5 4479.1 5571 4482.2 5561.5 4485.3 5571 4482.2 5580.5 4479.1 5590 4476 5580.5 4472.9 5571 4482.9 5571 4479.9 5580.5 4489.9 5580.5 4481.8 5574.6 4484.9 5565.1 4487.9 5555.6 4491 5565.1 4482.9 5559.2 4474.9 5565.1 4464.9 5565.1 4461.8 5555.6 4453.7 5561.5 4463.7 5561.5 4466.8 5552 4463.7 5561.5 4471.8 5555.6 4474.9 5546.1 4466.8 5552 4474.9 5557.8 4464.9 5557.8 4472.9 5563.7 4462.9 5563.7 4471 5569.6 4479.1 5575.5 4476 5585 4466 5585 4469.1 5594.5 4466 5604 4457.9 5598.1 4466 5592.2" clip-path="url(#a)" fill="none" stroke="#000" stroke-linecap="round"/>
<polyline points="4466 5592.2 4476 5592.2 4486 5592.2 4496 5592.2 4486 5592.2 4496 5592.2 4499.1 5582.7 4491 5588.6 4482.9 5582.7 4492.9 5582.7 4501 5576.9 4509.1 5582.7 4501 5588.6 4492.9 5582.7 4496 5592.2 4492.9 5582.7 4484.9 5588.6 4476.8 5594.5 4484.9 5600.4 4481.8 5609.9 4478.7 5600.4 4488.7 5600.4 4480.6 5594.5 4472.5 5588.6 4469.4 5598.1 4479.4 5598.1 4487.5 5592.2 4477.5 5592.2 4469.4 5586.4 4459.4 5586.4 4462.5 5576.9 4459.4 5567.3 4449.4 5567.3 4452.5 5557.8 4455.6 5548.3 4463.7 5554.2 4473.7 5554.2 4476.8 5563.7 4486.8 5563.7 4483.7 5554.2 4473.7 5554.2 4463.7 5554.2 4471.8 5560.1" clip-path="url(#a)" fill="none" stroke="#000" stroke-linecap="round"/>
<polyline points="4471.8 5560.1 4468.7 5550.6 4460.6 5544.7 4457.5 5535.2 4465.6 5529.3 4473.7 5535.2 4476.8 5544.7 4473.7 5535.2 4470.6 5525.7 4460.6 5525.7 4463.7 5516.2 4466.8 5525.7 4476.8 5525.7 4468.7 5519.8 4465.6 5529.3 4462.5 5538.8 4454.4 5544.7 4462.5 5550.6 4465.6 5560.1 4475.6 5560.1 4478.7 5550.6 4481.8 5560.1 4478.7 5550.6 4470.6 5544.7 4467.5 5535.2 4459.4 5541.1 4467.5 5546.9 4459.4 5552.8 4451.3 5558.7 4448.2 5568.2 4445.1 5558.7 4448.2 5568.2 4438.2 5568.2 4446.3 5574.1 4438.2 5568.2 4441.3 5558.7 4438.2 5568.2 4435.1 5558.7 4427 5564.6 4435.1 5558.7 4427 5552.8 4435.1 5558.7 4438.2 5568.2" clip-path="url(#a)" fill="none" stroke="#000" stroke-linecap="round"/>
<polyline points="4438.2 5568.2 4446.3 5574.1 4456.3 5574.1 4448.2 5580 4440.1 5585.8 4443.2 5595.3 4453.2 5595.3 4463.2 5595.3 4471.3 5601.2 4474.4 5610.7 4477.5 5601.2 4469.4 5607.1 4466.3 5597.6 4469.4 5607.1 4477.5 5613 4480.6 5603.5 4490.6 5603.5 4498.7 5597.6 4495.6 5588.1 4487.5 5582.2 4495.6 5588.1 4492.5 5578.6 4500.6 5584.5 4503.7 5594 4495.6 5588.1 4485.6 5588.1 4488.7 5597.6 4498.7 5597.6 4488.7 5597.6 4480.6 5591.7 4490.6 5591.7 4482.5 5597.6 4474.4 5591.7 4482.5 5597.6 4490.6 5603.5 4487.5 5613 4495.6 5618.9 4492.5 5628.4 4484.4 5622.5 4476.3 5628.4 4466.3 5628.4 4463.2 5637.9 4453.2 5637.9" clip-path="url(#a)" fill="none" stroke="#000" stroke-linecap="round"/>
<polyline points="4453.2 5637.9 4445.1 5643.8 4442 5634.2 4450.1 5640.1 4442 5646 4432 5646 4442 5646 4432 5646 4429 5636.5 4425.9 5627 4417.8 5621.1 4407.8 5621.1 4397.8 5621.1 4405.9 5627 4409 5636.5 4399 5636.5 4395.9 5646 4405.9 5646 4402.8 5655.5 4405.9 5646 4409 5655.5 4405.9 5665 4402.8 5674.5 4399.7 5665 4396.6 5655.5 4406.6 5655.5 4403.5 5665 4413.5 5665 4405.4 5659.1 4408.5 5649.6 4411.6 5640.1 4414.7 5649.6 4406.6 5643.8 4398.5 5649.6 4388.5 5649.6 4385.4 5640.1 4377.3 5646 4387.3 5646 4390.4 5636.5 4387.3 5646 4395.4 5640.1 4398.5 5630.6 4390.4 5636.5" clip-path="url(#a)" fill="none" stroke="#000" stroke-linecap="round"/>
<polyline points="4390.4 5636.5 4398.5 5642.4 4388.5 5642.4 4396.6 5648.2 4386.6 5648.2 4394.7 5654.1 4402.8 5660 4399.7 5669.5 4389.7 5669.5 4392.8 5679 4389.7 5688.5 4381.6 5682.7 4389.7 5676.8 4399.7 5676.8 4409.7 5676.8 4419.7 5676.8 4409.7 5676.8 4419.7 5676.8 4422.8 5667.3 4414.7 5673.1 4406.6 5667.3 4416.6 5667.3 4424.7 5661.4 4432.8 5667.3 4424.7 5673.1 4416.6 5667.3 4419.7 5676.8 4416.6 5667.3 4408.5 5673.1 4400.4 5679 4408.5 5684.9 4405.4 5694.4 4402.3 5684.9 4412.3 5684.9 4404.2 5679 4396.1 5673.1 4393 5682.7 4403 5682.7 4411.1 5676.8 4401.1 5676.8 4393 5670.9 4383 5670.9 4386.1 5661.4" clip-path="url(#a)" fill="none" stroke="#000" stroke-linecap="round"/>
<polyline points="4386.1 5661.4 4383 5651.9 4373 5651.9 4376.1 5642.4 4379.2 5632.9 4387.3 5638.7 4397.3 5638.7 4400.4 5648.2 4410.4 5648.2 4407.3 5638.7 4397.3 5638.7 4387.3 5638.7 4395.4 5644.6 4392.3 5635.1 4384.2 5629.2 4381.1 5619.7 4389.2 5613.8 4397.3 5619.7 4400.4 5629.2 4397.3 5619.7 4394.2 5610.2 4384.2 5610.2 4387.3 5600.7 4390.4 5610.2 4400.4 5610.2 4392.3 5604.3 4389.2 5613.8 4386.1 5623.3 4378 5629.2 4386.1 5635.1 4389.2 5644.6 4399.2 5644.6 4402.3 5635.1 4405.4 5644.6 4402.3 5635.1 4394.2 5629.2 4391.1 5619.7 4383 5625.6 4391.1 5631.5 4383 5637.4 4375 5643.2 4371.9 5652.7 4368.8 5643.2" clip-path="url(#a)" fill="none" stroke="#000" stroke-linecap="round"/>
<polyline points="4368.8 5643.2 4371.9 5652.7 4361.9 5652.7 4370 5658.6 4361.9 5652.7 4365 5643.2 4361.9 5652.7 4358.8 5643.2 4350.7 5649.1 4358.8 5643.2 4350.7 5637.4 4358.8 5643.2 4361.9 5652.7 4370 5658.6 4380 5658.6 4371.9 5664.5 4363.8 5670.4 4366.9 5679.9 4376.9 5679.9 4386.9 5679.9 4395 5685.8 4398 5695.3 4401.1 5685.8 4393 5691.6 4390 5682.1 4393 5691.6 4401.1 5697.5 4404.2 5688 4414.2 5688 4422.3 5682.1 4419.2 5672.6 4411.1 5666.7 4419.2 5672.6 4416.1 5663.1 4424.2 5669 4427.3 5678.5 4419.2 5672.6 4409.2 5672.6 4412.3 5682.1 4422.3 5682.1 4412.3 5682.1 4404.2 5676.3 4414.2 5676.3" clip-path="url(#a)" fill="none" stroke="#000" stroke-linecap="round"/>
<polyline points="4414.2 5676.3 4406.1 5682.1 4398 5676.3 4406.1 5682.1 4414.2 5688 4411.1 5697.5 4419.2 5703.4 4416.1 5712.9 4408 5707 4400 5712.9 4390 5712.9 4386.9 5722.4 4376.9 5722.4 4368.8 5728.3 4365.7 5718.8 4373.8 5724.7 4365.7 5730.5 4355.7 5730.5 4365.7 5730.5 4355.7 5730.5 4352.6 5721 4349.5 5711.5 4341.4 5705.6 4331.4 5705.6 4321.4 5705.6 4329.5 5711.5 4332.6 5721 4322.6 5721 4319.5 5730.5 4329.5 5730.5 4326.4 5740 4329.5 5730.5 4332.6 5740 4329.5 5749.6 4326.4 5759.1 4323.3 5749.6 4320.2 5740 4330.2 5740 4327.1 5749.6 4337.1 5749.6 4329.1 5743.7 4332.1 5734.2 4335.2 5724.7" clip-path="url(#a)" fill="none" stroke="#000" stroke-linecap="round"/>
<polyline points="4335.2 5724.7 4338.3 5734.2 4330.2 5728.3 4322.1 5734.2 4312.1 5734.2 4309.1 5724.7 4301 5730.5 4311 5730.5 4314.1 5721 4311 5730.5 4319.1 5724.7 4322.1 5715.2 4314.1 5721 4322.1 5726.9 4312.1 5726.9 4320.2 5732.8 4310.2 5732.8 4318.3 5738.7 4326.4 5744.5 4323.3 5754.1 4313.3 5754.1 4316.4 5763.6 4313.3 5773.1 4305.2 5767.2 4313.3 5761.3 4323.3 5761.3 4333.3 5761.3 4343.3 5761.3 4333.3 5761.3 4343.3 5761.3 4346.4 5751.8 4338.3 5757.7 4330.2 5751.8 4340.2 5751.8 4348.3 5745.9 4356.4 5751.8 4348.3 5757.7 4340.2 5751.8 4343.3 5761.3 4340.2 5751.8 4332.1 5757.7 4324.1 5763.6 4332.1 5769.4" clip-path="url(#a)" fill="none" stroke="#000" stroke-linecap="round"/>
<polyline points="4332.1 5769.4 4329.1 5778.9 4326 5769.4 4336 5769.4 4327.9 5763.6 4319.8 5757.7 4316.7 5767.2 4326.7 5767.2 4334.8 5761.3 4324.8 5761.3 4316.7 5755.4 4306.7 5755.4 4309.8 5745.9 4306.7 5736.4 4296.7 5736.4 4299.8 5726.9 4302.9 5717.4 4311 5723.3 4321 5723.3 4324.1 5732.8 4334.1 5732.8 4331 5723.3 4321 5723.3 4311 5723.3 4319.1 5729.2 4316 5719.6 4307.9 5713.8 4304.8 5704.3 4312.9 5698.4 4321 5704.3 4324.1 5713.8 4321 5704.3 4317.9 5694.7 4307.9 5694.7 4311 5685.2 4314.1 5694.7 4324.1 5694.7 4316 5688.9 4312.9 5698.4 4309.8 5707.9 4301.7 5713.8 4309.8 5719.6 4312.9 5729.2" clip-path="url(#a)" fill="none" stroke="#000" stroke-linecap="round"/>
<polyline points="4312.9 5729.2 4322.9 5729.2 4326 5719.6 4329.1 5729.2 4326 5719.6 4317.9 5713.8 4314.8 5704.3 4306.7 5710.1 4314.8 5716 4306.7 5721.9 4298.6 5727.8 4295.5 5737.3 4292.4 5727.8 4295.5 5737.3 4285.5 5737.3 4293.6 5743.2 4285.5 5737.3 4288.6 5727.8 4285.5 5737.3 4282.4 5727.8 4274.3 5733.6 4282.4 5727.8 4274.3 5721.9 4282.4 5727.8 4285.5 5737.3 4293.6 5743.2 4303.6 5743.2 4295.5 5749 4287.4 5754.9 4290.5 5764.4 4300.5 5764.4 4310.5 5764.4 4318.6 5770.3 4321.7 5779.8 4324.8 5770.3 4316.7 5776.2 4313.6 5766.7 4316.7 5776.2 4324.8 5782.1 4327.9 5772.5 4337.9 5772.5 4346 5766.7 4342.9 5757.2" clip-path="url(#a)" fill="none" stroke="#000" stroke-linecap="round"/>
<polyline points="4342.9 5757.2 4334.8 5751.3 4342.9 5757.2 4339.8 5747.6 4347.9 5753.5 4351 5763 4342.9 5757.2 4332.9 5757.2 4336 5766.7 4346 5766.7 4336 5766.7 4327.9 5760.8 4337.9 5760.8 4329.8 5766.7 4321.7 5760.8 4329.8 5766.7 4337.9 5772.5 4334.8 5782.1 4342.9 5787.9 4339.8 5797.4 4331.7 5791.6 4323.6 5797.4 4313.6 5797.4 4310.5 5807 4300.5 5807 4292.4 5812.8 4289.3 5803.3 4297.4 5809.2 4289.3 5815.1 4279.3 5815.1 4289.3 5815.1 4279.3 5815.1 4276.2 5805.6 4273.2 5796.1 4265.1 5790.2 4255.1 5790.2 4245.1 5790.2 4253.2 5796.1 4256.2 5805.6 4246.2 5805.6 4243.2 5815.1 4253.2 5815.1 4250.1 5824.6" clip-path="url(#a)" fill="none" stroke="#000" stroke-linecap="round"/>
<polyline points="4250.1 5824.6 4253.2 5815.1 4256.2 5824.6 4253.2 5834.1 4250.1 5843.6 4247 5834.1 4243.9 5824.6 4253.9 5824.6 4250.8 5834.1 4260.8 5834.1 4252.7 5828.2 4255.8 5818.7 4258.9 5809.2 4262 5818.7 4253.9 5812.8 4245.8 5818.7 4235.8 5818.7 4232.7 5809.2 4224.6 5815.1 4234.6 5815.1 4237.7 5805.6 4234.6 5815.1 4242.7 5809.2 4245.8 5799.7 4237.7 5805.6 4245.8 5811.4 4235.8 5811.4 4243.9 5817.3 4233.9 5817.3 4242 5823.2 4250.1 5829.1 4247 5838.6 4237 5838.6 4240.1 5848.1 4237 5857.6 4228.9 5851.7 4237 5845.9 4247 5845.9 4257 5845.9 4267 5845.9 4257 5845.9 4267 5845.9 4270.1 5836.3" clip-path="url(#a)" fill="none" stroke="#000" stroke-linecap="round"/>
<polyline points="4270.1 5836.3 4262 5842.2 4253.9 5836.3 4263.9 5836.3 4272 5830.5 4280.1 5836.3 4272 5842.2 4263.9 5836.3 4267 5845.9 4263.9 5836.3 4255.8 5842.2 4247.7 5848.1 4255.8 5854 4252.7 5863.5 4249.6 5854 4259.6 5854 4251.5 5848.1 4243.4 5842.2 4240.3 5851.7 4250.3 5851.7 4258.4 5845.9 4248.4 5845.9 4240.3 5840 4230.3 5840 4233.4 5830.5 4230.3 5821 4220.3 5821 4223.4 5811.4 4226.5 5801.9 4234.6 5807.8 4244.6 5807.8 4247.7 5817.3 4257.7 5817.3 4254.6 5807.8 4244.6 5807.8 4234.6 5807.8 4242.7 5813.7 4239.6 5804.2 4231.5 5798.3 4228.4 5788.8 4236.5 5782.9 4244.6 5788.8 4247.7 5798.3" clip-path="url(#a)" fill="none" stroke="#000" stroke-linecap="round"/>
<polyline points="4247.7 5798.3 4244.6 5788.8 4241.5 5779.3 4231.5 5779.3 4234.6 5769.8 4237.7 5779.3 4247.7 5779.3 4239.6 5773.4 4236.5 5782.9 4233.4 5792.4 4225.3 5798.3 4233.4 5804.2 4236.5 5813.7 4246.5 5813.7 4249.6 5804.2 4252.7 5813.7 4249.6 5804.2 4241.5 5798.3 4238.4 5788.8 4230.3 5794.7 4238.4 5800.5 4230.3 5806.4 4222.3 5812.3 4219.2 5821.8 4216.1 5812.3 4219.2 5821.8 4209.2 5821.8 4217.3 5827.7 4209.2 5821.8 4212.3 5812.3 4209.2 5821.8 4206.1 5812.3 4198 5818.2 4206.1 5812.3 4198 5806.4 4206.1 5812.3 4209.2 5821.8 4217.3 5827.7 4227.3 5827.7 4219.2 5833.6 4211.1 5839.4 4214.2 5849 4224.2 5849" clip-path="url(#a)" fill="none" stroke="#000" stroke-linecap="round"/>
<polyline points="4224.2 5849 4234.2 5849 4242.3 5854.8 4245.3 5864.3 4248.4 5854.8 4240.3 5860.7 4237.3 5851.2 4240.3 5860.7 4248.4 5866.6 4251.5 5857.1 4261.5 5857.1 4269.6 5851.2 4266.5 5841.7 4258.4 5835.8 4266.5 5841.7 4263.4 5832.2 4271.5 5838.1 4274.6 5847.6 4266.5 5841.7 4256.5 5841.7 4259.6 5851.2 4269.6 5851.2 4259.6 5851.2 4251.5 5845.3 4261.5 5845.3 4253.4 5851.2 4245.3 5845.3 4253.4 5851.2 4261.5 5857.1 4258.4 5866.6 4266.5 5872.5 4263.4 5882 4255.3 5876.1 4247.3 5882 4237.3 5882 4234.2 5891.5 4224.2 5891.5 4216.1 5897.4 4213 5887.9 4221.1 5893.7 4213 5899.6 4203 5899.6 4213 5899.6" clip-path="url(#a)" fill="none" stroke="#000" stroke-linecap="round"/>
<polyline points="4213 5899.6 4203 5899.6 4199.9 5890.1 4196.8 5880.6 4188.7 5874.7 4178.7 5874.7 4168.7 5874.7 4176.8 5880.6 4179.9 5890.1 4169.9 5890.1 4166.8 5899.6 4176.8 5899.6 4173.7 5909.1 4176.8 5899.6 4179.9 5909.1 4176.8 5918.6 4173.7 5928.1 4170.6 5918.6 4167.5 5909.1 4177.5 5909.1 4174.4 5918.6 4184.4 5918.6 4176.4 5912.8 4179.4 5903.2 4182.5 5893.7 4185.6 5903.2 4177.5 5897.4 4169.4 5903.2 4159.4 5903.2 4156.4 5893.7 4148.3 5899.6 4158.3 5899.6 4161.4 5890.1 4158.3 5899.6 4166.4 5893.7 4169.4 5884.2 4161.4 5890.1 4169.4 5896 4159.4 5896 4167.5 5901.9 4157.5 5901.9 4165.6 5907.7 4173.7 5913.6" clip-path="url(#a)" fill="none" stroke="#000" stroke-linecap="round"/>
<polyline points="4173.7 5913.6 4170.6 5923.1 4160.6 5923.1 4163.7 5932.6 4160.6 5942.1 4152.5 5936.3 4160.6 5930.4 4170.6 5930.4 4180.6 5930.4 4190.6 5930.4 4180.6 5930.4 4190.6 5930.4 4193.7 5920.9 4185.6 5926.8 4177.5 5920.9 4187.5 5920.9 4195.6 5915 4203.7 5920.9 4195.6 5926.8 4187.5 5920.9 4190.6 5930.4 4187.5 5920.9 4179.4 5926.8 4171.4 5932.6 4179.4 5938.5 4176.4 5948 4173.3 5938.5 4183.3 5938.5 4175.2 5932.6 4167.1 5926.8 4164 5936.3 4174 5936.3 4182.1 5930.4 4172.1 5930.4 4164 5924.5 4154 5924.5 4157.1 5915 4154 5905.5 4144 5905.5 4147.1 5896 4150.2 5886.5 4158.3 5892.3 4168.3 5892.3" clip-path="url(#a)" fill="none" stroke="#000" stroke-linecap="round"/>
<polyline points="4168.3 5892.3 4171.4 5901.9 4181.4 5901.9 4178.3 5892.3 4168.3 5892.3 4158.3 5892.3 4166.4 5898.2 4163.3 5888.7 4155.2 5882.8 4152.1 5873.3 4160.2 5867.4 4168.3 5873.3 4171.4 5882.8 4168.3 5873.3 4165.2 5863.8 4155.2 5863.8 4158.3 5854.3 4161.4 5863.8 4171.4 5863.8 4163.3 5857.9 4160.2 5867.4 4157.1 5877 4149 5882.8 4157.1 5888.7 4160.2 5898.2 4170.2 5898.2 4173.3 5888.7 4176.4 5898.2 4173.3 5888.7 4165.2 5882.8 4162.1 5873.3 4154 5879.2 4162.1 5885.1 4154 5891 4145.9 5896.8 4142.8 5906.3 4139.7 5896.8 4142.8 5906.3 4132.8 5906.3 4140.9 5912.2 4132.8 5906.3 4135.9 5896.8 4132.8 5906.3" clip-path="url(#a)" fill="none" stroke="#000" stroke-linecap="round"/>
<polyline points="4132.8 5906.3 4129.7 5896.8 4121.6 5902.7 4129.7 5896.8 4121.6 5891 4129.7 5896.8 4132.8 5906.3 4140.9 5912.2 4150.9 5912.2 4142.8 5918.1 4134.7 5924 4137.8 5933.5 4147.8 5933.5 4157.8 5933.5 4165.9 5939.4 4169 5948.9 4172.1 5939.4 4164 5945.2 4160.9 5935.7 4164 5945.2 4172.1 5951.1 4175.2 5941.6 4185.2 5941.6 4193.3 5935.7 4190.2 5926.2 4182.1 5920.3 4190.2 5926.2 4187.1 5916.7 4195.2 5922.6 4198.3 5932.1 4190.2 5926.2 4180.2 5926.2 4183.3 5935.7 4193.3 5935.7 4183.3 5935.7 4175.2 5929.9 4185.2 5929.9 4177.1 5935.7 4169 5929.9 4177.1 5935.7 4185.2 5941.6 4182.1 5951.1 4190.2 5957" clip-path="url(#a)" fill="none" stroke="#000" stroke-linecap="round"/>
<polyline points="4190.2 5957 4187.1 5966.5 4179 5960.6 4170.9 5966.5 4160.9 5966.5 4157.8 5976 4147.8 5976 4139.7 5981.9 4136.6 5972.4 4144.7 5978.3 4136.6 5984.1 4126.6 5984.1 4136.6 5984.1 4126.6 5984.1 4123.5 5974.6 4120.4 5965.1 4112.4 5959.2 4102.4 5959.2 4092.4 5959.2 4100.4 5965.1 4103.5 5974.6 4093.5 5974.6 4090.4 5984.1 4100.4 5984.1 4097.4 5993.7 4100.4 5984.1 4103.5 5993.7 4100.4 6003.2 4097.4 6012.7 4094.3 6003.2 4091.2 5993.7 4101.2 5993.7 4098.1 6003.2 4108.1 6003.2 4100 5997.3 4103.1 5987.8 4106.2 5978.3 4109.3 5987.8 4101.2 5981.9 4093.1 5987.8 4083.1 5987.8 4080 5978.3 4071.9 5984.1" clip-path="url(#a)" fill="none" stroke="#000" stroke-linecap="round"/>
<polyline points="4071.9 5984.1 4081.9 5984.1 4085 5974.6 4081.9 5984.1 4090 5978.3 4093.1 5968.8 4085 5974.6 4093.1 5980.5 4083.1 5980.5 4091.2 5986.4 4081.2 5986.4 4089.3 5992.3 4097.4 5998.1 4094.3 6007.7 4084.3 6007.7 4087.4 6017.2 4084.3 6026.7 4076.2 6020.8 4084.3 6014.9 4094.3 6014.9 4104.3 6014.9 4114.3 6014.9 4104.3 6014.9 4114.3 6014.9 4117.4 6005.4 4109.3 6011.3 4101.2 6005.4 4111.2 6005.4 4119.3 5999.5 4127.4 6005.4 4119.3 6011.3 4111.2 6005.4 4114.3 6014.9 4111.2 6005.4 4103.1 6011.3 4095 6017.2 4103.1 6023 4100 6032.6 4096.9 6023 4106.9 6023 4098.8 6017.2 4090.7 6011.3 4087.6 6020.8" clip-path="url(#a)" fill="none" stroke="#000" stroke-linecap="round"/>
<polyline points="4087.6 6020.8 4097.6 6020.8 4105.7 6014.9 4095.7 6014.9 4087.6 6009 4077.6 6009 4080.7 5999.5 4077.6 5990 4067.6 5990 4070.7 5980.5 4073.8 5971 4081.9 5976.9 4091.9 5976.9 4095 5986.4 4105 5986.4 4101.9 5976.9 4091.9 5976.9 4081.9 5976.9 4090 5982.8 4086.9 5973.2 4078.8 5967.4 4075.7 5957.9 4083.8 5952 4091.9 5957.9 4095 5967.4 4091.9 5957.9 4088.8 5948.3 4078.8 5948.3 4081.9 5938.8 4085 5948.3 4095 5948.3 4086.9 5942.5 4083.8 5952 4080.7 5961.5 4072.6 5967.4 4080.7 5973.2 4083.8 5982.8 4093.8 5982.8 4096.9 5973.2 4100 5982.8 4096.9 5973.2 4088.8 5967.4 4085.7 5957.9" clip-path="url(#a)" fill="none" stroke="#000" stroke-linecap="round"/>
<polyline points="4085.7 5957.9 4077.6 5963.7 4085.7 5969.6 4077.6 5975.5 4069.5 5981.4 4066.5 5990.9 4063.4 5981.4 4066.5 5990.9 4056.5 5990.9 4064.5 5996.8 4056.5 5990.9 4059.5 5981.4 4056.5 5990.9 4053.4 5981.4 4045.3 5987.2 4053.4 5981.4 4045.3 5975.5 4053.4 5981.4 4056.5 5990.9 4064.5 5996.8 4074.5 5996.8 4066.5 6002.6 4058.4 6008.5 4061.5 6018 4071.5 6018 4081.5 6018 4089.5 6023.9 4092.6 6033.4 4095.7 6023.9 4087.6 6029.8 4084.5 6020.3 4087.6 6029.8 4095.7 6035.7 4098.8 6026.1 4108.8 6026.1 4116.9 6020.3 4113.8 6010.8 4105.7 6004.9 4113.8 6010.8 4110.7 6001.2 4118.8 6007.1 4121.9 6016.6 4113.8 6010.8" clip-path="url(#a)" fill="none" stroke="#000" stroke-linecap="round"/>
<polyline points="4113.8 6010.8 4103.8 6010.8 4106.9 6020.3 4116.9 6020.3 4106.9 6020.3 4098.8 6014.4 4108.8 6014.4 4100.7 6020.3 4092.6 6014.4 4100.7 6020.3 4108.8 6026.1 4105.7 6035.7 4113.8 6041.5 4110.7 6051 4102.6 6045.2 4094.5 6051 4084.5 6051 4081.5 6060.6 4071.5 6060.6 4063.4 6066.4 4060.3 6056.9 4068.4 6062.8 4060.3 6068.7 4050.3 6068.7 4060.3 6068.7 4050.3 6068.7 4047.2 6059.2 4044.1 6049.7 4036 6043.8 4026 6043.8 4016 6043.8 4024.1 6049.7 4027.2 6059.2 4017.2 6059.2 4014.1 6068.7 4024.1 6068.7 4021 6078.2 4024.1 6068.7 4027.2 6078.2 4024.1 6087.7 4021 6097.2 4017.9 6087.7 4014.8 6078.2" clip-path="url(#a)" fill="none" stroke="#000" stroke-linecap="round"/>
<polyline points="4014.8 6078.2 4024.8 6078.2 4021.7 6087.7 4031.7 6087.7 4023.6 6081.8 4026.7 6072.3 4029.8 6062.8 4032.9 6072.3 4024.8 6066.4 4016.7 6072.3 4006.7 6072.3 4003.6 6062.8 3995.6 6068.7 4005.6 6068.7 4008.6 6059.2 4005.6 6068.7 4013.6 6062.8 4016.7 6053.3 4008.6 6059.2 4016.7 6065 4006.7 6065 4014.8 6070.9 4004.8 6070.9 4012.9 6076.8 4021 6082.7 4017.9 6092.2 4007.9 6092.2 4011 6101.7 4007.9 6111.2 3999.8 6105.3 4007.9 6099.5 4017.9 6099.5 4027.9 6099.5 4037.9 6099.5 4027.9 6099.5 4037.9 6099.5 4041 6089.9 4032.9 6095.8 4024.8 6089.9 4034.8 6089.9 4042.9 6084.1 4051 6089.9 4042.9 6095.8" clip-path="url(#a)" fill="none" stroke="#000" stroke-linecap="round"/>
<polyline points="4042.9 6095.8 4034.8 6089.9 4037.9 6099.5 4034.8 6089.9 4026.7 6095.8 4018.6 6101.7 4026.7 6107.6 4023.6 6117.1 4020.6 6107.6 4030.6 6107.6 4022.5 6101.7 4014.4 6095.8 4011.3 6105.3 4021.3 6105.3 4029.4 6099.5 4019.4 6099.5 4011.3 6093.6 4001.3 6093.6 4004.4 6084.1 4001.3 6074.6 3991.3 6074.6 3994.4 6065 3997.5 6055.5 4005.6 6061.4 4015.6 6061.4 4018.6 6070.9 4028.6 6070.9 4025.6 6061.4 4015.6 6061.4 4005.6 6061.4 4013.6 6067.3 4010.6 6057.8 4002.5 6051.9 3999.4 6042.4 4007.5 6036.5 4015.6 6042.4 4018.6 6051.9 4015.6 6042.4 4012.5 6032.9 4002.5 6032.9 4005.6 6023.4 4008.6 6032.9 4018.6 6032.9" clip-path="url(#a)" fill="none" stroke="#000" stroke-linecap="round"/>
<polyline points="4018.6 6032.9 4010.6 6027 4007.5 6036.5 4004.4 6046 3996.3 6051.9 4004.4 6057.8 4007.5 6067.3 4017.5 6067.3 4020.6 6057.8 4023.6 6067.3 4020.6 6057.8 4012.5 6051.9 4009.4 6042.4 4001.3 6048.3 4009.4 6054.1 4001.3 6060 3993.2 6065.9 3990.1 6075.4 3987 6065.9 3990.1 6075.4 3980.1 6075.4 3988.2 6081.3 3980.1 6075.4 3983.2 6065.9 3980.1 6075.4 3977 6065.9 3968.9 6071.8 3977 6065.9 3968.9 6060 3977 6065.9 3980.1 6075.4 3988.2 6081.3 3998.2 6081.3 3990.1 6087.2 3982 6093 3985.1 6102.6 3995.1 6102.6 4005.1 6102.6 4013.2 6108.4 4016.3 6117.9 4019.4 6108.4 4011.3 6114.3 4008.2 6104.8" clip-path="url(#a)" fill="none" stroke="#000" stroke-linecap="round"/>
<polyline points="4008.2 6104.8 4011.3 6114.3 4019.4 6120.2 4022.5 6110.7 4032.5 6110.7 4040.6 6104.8 4037.5 6095.3 4029.4 6089.4 4037.5 6095.3 4034.4 6085.8 4042.5 6091.7 4045.6 6101.2 4037.5 6095.3 4027.5 6095.3 4030.6 6104.8 4040.6 6104.8 4030.6 6104.8 4022.5 6098.9 4032.5 6098.9 4024.4 6104.8 4016.3 6098.9 4024.4 6104.8 4032.5 6110.7 4029.4 6120.2 4037.5 6126.1 4034.4 6135.6 4026.3 6129.7 4018.2 6135.6 4008.2 6135.6 4005.1 6145.1 3995.1 6145.1 3987 6151 3983.9 6141.5 3992 6147.3 3983.9 6153.2 3973.9 6153.2 3983.9 6153.2 3973.9 6153.2 3970.8 6143.7 3967.7 6134.2 3959.7 6128.3 3949.7 6128.3 3939.7 6128.3" clip-path="url(#a)" fill="none" stroke="#000" stroke-linecap="round"/>
<polyline points="3939.7 6128.3 3947.7 6134.2 3950.8 6143.7 3940.8 6143.7 3937.7 6153.2 3947.7 6153.2 3944.7 6162.7 3947.7 6153.2 3950.8 6162.7 3947.7 6172.2 3944.7 6181.7 3941.6 6172.2 3938.5 6162.7 3948.5 6162.7 3945.4 6172.2 3955.4 6172.2 3947.3 6166.4 3950.4 6156.8 3953.5 6147.3 3956.6 6156.8 3948.5 6151 3940.4 6156.8 3930.4 6156.8 3927.3 6147.3 3919.2 6153.2 3929.2 6153.2 3932.3 6143.7 3929.2 6153.2 3937.3 6147.3 3940.4 6137.8 3932.3 6143.7 3940.4 6149.6 3930.4 6149.6 3938.5 6155.5 3928.5 6155.5 3936.6 6161.3 3944.7 6167.2 3941.6 6176.7 3931.6 6176.7 3934.7 6186.2 3931.6 6195.7 3923.5 6189.9 3931.6 6184" clip-path="url(#a)" fill="none" stroke="#000" stroke-linecap="round"/>
<polyline points="3931.6 6184 3941.6 6184 3951.6 6184 3961.6 6184 3951.6 6184 3961.6 6184 3964.7 6174.5 3956.6 6180.4 3948.5 6174.5 3958.5 6174.5 3966.6 6168.6 3974.7 6174.5 3966.6 6180.4 3958.5 6174.5 3961.6 6184 3958.5 6174.5 3950.4 6180.4 3942.3 6186.2 3950.4 6192.1 3947.3 6201.6 3944.2 6192.1 3954.2 6192.1 3946.1 6186.2 3938 6180.4 3934.9 6189.9 3944.9 6189.9 3953 6184 3943 6184 3934.9 6178.1 3924.9 6178.1 3928 6168.6 3924.9 6159.1 3914.9 6159.1 3918 6149.6 3921.1 6140.1 3929.2 6145.9 3939.2 6145.9 3942.3 6155.5 3952.3 6155.5 3949.2 6145.9 3939.2 6145.9 3929.2 6145.9 3937.3 6151.8" clip-path="url(#a)" fill="none" stroke="#000" stroke-linecap="round"/>
<polyline points="3937.3 6151.8 3934.2 6142.3 3926.1 6136.4 3923 6126.9 3931.1 6121 3939.2 6126.9 3942.3 6136.4 3939.2 6126.9 3936.1 6117.4 3926.1 6117.4 3929.2 6107.9 3932.3 6117.4 3942.3 6117.4 3934.2 6111.5 3931.1 6121 3928 6130.6 3919.9 6136.4 3928 6142.3 3931.1 6151.8 3941.1 6151.8 3944.2 6142.3 3947.3 6151.8 3944.2 6142.3 3936.1 6136.4 3933 6126.9 3924.9 6132.8 3933 6138.7 3924.9 6144.6 3916.8 6150.4 3913.8 6159.9 3910.7 6150.4 3913.8 6159.9 3903.8 6159.9 3911.8 6165.8 3903.8 6159.9 3906.8 6150.4 3903.8 6159.9 3900.7 6150.4 3892.6 6156.3 3900.7 6150.4 3892.6 6144.6 3900.7 6150.4 3903.8 6159.9" clip-path="url(#a)" fill="none" stroke="#000" stroke-linecap="round"/>
<polyline points="3903.8 6159.9 3911.8 6165.8 3921.8 6165.8 3913.8 6171.7 3905.7 6177.6 3908.8 6187.1 3918.8 6187.1 3928.8 6187.1 3936.8 6193 3939.9 6202.5 3943 6193 3934.9 6198.8 3931.8 6189.3 3934.9 6198.8 3943 6204.7 3946.1 6195.2 3956.1 6195.2 3964.2 6189.3 3961.1 6179.8 3953 6174 3961.1 6179.8 3958 6170.3 3966.1 6176.2 3969.2 6185.7 3961.1 6179.8 3951.1 6179.8 3954.2 6189.3 3964.2 6189.3 3954.2 6189.3 3946.1 6183.5 3956.1 6183.5 3948 6189.3 3939.9 6183.5 3948 6189.3 3956.1 6195.2 3953 6204.7 3961.1 6210.6 3958 6220.1 3949.9 6214.2 3941.8 6220.1 3931.8 6220.1 3928.8 6229.6 3918.8 6229.6" clip-path="url(#a)" fill="none" stroke="#000" stroke-linecap="round"/>
<polyline points="3918.8 6229.6 3910.7 6235.5 3907.6 6226 3915.7 6231.9 3907.6 6237.7 3897.6 6237.7 3907.6 6237.7 3897.6 6237.7 3894.5 6228.2 3891.4 6218.7 3883.3 6212.9 3873.3 6212.9 3863.3 6212.9 3871.4 6218.7 3874.5 6228.2 3864.5 6228.2 3861.4 6237.7 3871.4 6237.7 3868.3 6247.3 3871.4 6237.7 3874.5 6247.3 3871.4 6256.8 3868.3 6266.3 3865.2 6256.8 3862.1 6247.3 3872.1 6247.3 3869 6256.8 3879 6256.8 3870.9 6250.9 3874 6241.4 3877.1 6231.9 3880.2 6241.4 3872.1 6235.5 3864 6241.4 3854 6241.4 3850.9 6231.9 3842.9 6237.7 3852.9 6237.7 3855.9 6228.2 3852.9 6237.7 3860.9 6231.9 3864 6222.4 3855.9 6228.2" clip-path="url(#a)" fill="none" stroke="#000" stroke-linecap="round"/>
<polyline points="3855.9 6228.2 3864 6234.1 3854 6234.1 3862.1 6240 3852.1 6240 3860.2 6245.9 3868.3 6251.8 3865.2 6261.3 3855.2 6261.3 3858.3 6270.8 3855.2 6280.3 3847.1 6274.4 3855.2 6268.5 3865.2 6268.5 3875.2 6268.5 3885.2 6268.5 3875.2 6268.5 3885.2 6268.5 3888.3 6259 3880.2 6264.9 3872.1 6259 3882.1 6259 3890.2 6253.1 3898.3 6259 3890.2 6264.9 3882.1 6259 3885.2 6268.5 3882.1 6259 3874 6264.9 3865.9 6270.8 3874 6276.6 3870.9 6286.2 3867.9 6276.6 3877.9 6276.6 3869.8 6270.8 3861.7 6264.9 3858.6 6274.4 3868.6 6274.4 3876.7 6268.5 3866.7 6268.5 3858.6 6262.6 3848.6 6262.6 3851.7 6253.1" clip-path="url(#a)" fill="none" stroke="#000" stroke-linecap="round"/>
<polyline points="3851.7 6253.1 3848.6 6243.6 3838.6 6243.6 3841.7 6234.1 3844.8 6224.6 3852.9 6230.5 3862.9 6230.5 3865.9 6240 3875.9 6240 3872.9 6230.5 3862.9 6230.5 3852.9 6230.5 3860.9 6236.4 3857.9 6226.9 3849.8 6221 3846.7 6211.5 3854.8 6205.6 3862.9 6211.5 3865.9 6221 3862.9 6211.5 3859.8 6202 3849.8 6202 3852.9 6192.4 3855.9 6202 3865.9 6202 3857.9 6196.1 3854.8 6205.6 3851.7 6215.1 3843.6 6221 3851.7 6226.9 3854.8 6236.4 3864.8 6236.4 3867.9 6226.9 3870.9 6236.4 3867.9 6226.9 3859.8 6221 3856.7 6211.5 3848.6 6217.3 3856.7 6223.2 3848.6 6229.1 3840.5 6235 3837.4 6244.5 3834.3 6235" clip-path="url(#a)" fill="none" stroke="#000" stroke-linecap="round"/>
<polyline points="3834.3 6235 3837.4 6244.5 3827.4 6244.5 3835.5 6250.4 3827.4 6244.5 3830.5 6235 3827.4 6244.5 3824.3 6235 3816.2 6240.9 3824.3 6235 3816.2 6229.1 3824.3 6235 3827.4 6244.5 3835.5 6250.4 3845.5 6250.4 3837.4 6256.2 3829.3 6262.1 3832.4 6271.6 3842.4 6271.6 3852.4 6271.6 3860.5 6277.5 3863.6 6287 3866.7 6277.5 3858.6 6283.4 3855.5 6273.9 3858.6 6283.4 3866.7 6289.3 3869.8 6279.8 3879.8 6279.8 3887.9 6273.9 3884.8 6264.4 3876.7 6258.5 3884.8 6264.4 3881.7 6254.9 3889.8 6260.7 3892.9 6270.2 3884.8 6264.4 3874.8 6264.4 3877.9 6273.9 3887.9 6273.9 3877.9 6273.9 3869.8 6268 3879.8 6268" clip-path="url(#a)" fill="none" stroke="#000" stroke-linecap="round"/>
<polyline points="3879.8 6268 3871.7 6273.9 3863.6 6268 3871.7 6273.9 3879.8 6279.8 3876.7 6289.3 3884.8 6295.1 3881.7 6304.7 3873.6 6298.8 3865.5 6304.7 3855.5 6304.7 3852.4 6314.2 3842.4 6314.2 3834.3 6320 3831.2 6310.5 3839.3 6316.4 3831.2 6322.3 3821.2 6322.3 3831.2 6322.3 3821.2 6322.3 3818.1 6312.8 3815 6303.3 3806.9 6297.4 3796.9 6297.4 3786.9 6297.4 3795 6303.3 3798.1 6312.8 3788.1 6312.8 3785 6322.3 3795 6322.3 3791.9 6331.8 3795 6322.3 3798.1 6331.8 3795 6341.3 3791.9 6350.8 3788.9 6341.3 3785.8 6331.8 3795.8 6331.8 3792.7 6341.3 3802.7 6341.3 3794.6 6335.4 3797.7 6325.9 3800.8 6316.4" clip-path="url(#a)" fill="none" stroke="#000" stroke-linecap="round"/>
<polyline points="3800.8 6316.4 3803.9 6325.9 3795.8 6320 3787.7 6325.9 3777.7 6325.9 3774.6 6316.4 3766.5 6322.3 3776.5 6322.3 3779.6 6312.8 3776.5 6322.3 3784.6 6316.4 3787.7 6306.9 3779.6 6312.8 3787.7 6318.7 3777.7 6318.7 3785.8 6324.5 3775.8 6324.5 3783.9 6330.4 3791.9 6336.3 3788.9 6345.8 3778.9 6345.8 3781.9 6355.3 3778.9 6364.8 3770.8 6358.9 3778.9 6353.1 3788.9 6353.1 3798.9 6353.1 3808.9 6353.1 3798.9 6353.1 3808.9 6353.1 3811.9 6343.6 3803.9 6349.4 3795.8 6343.6 3805.8 6343.6 3813.9 6337.7 3821.9 6343.6 3813.9 6349.4 3805.8 6343.6 3808.9 6353.1 3805.8 6343.6 3797.7 6349.4 3789.6 6355.3 3797.7 6361.2" clip-path="url(#a)" fill="none" stroke="#000" stroke-linecap="round"/>
<polyline points="3797.7 6361.2 3794.6 6370.7 3791.5 6361.2 3801.5 6361.2 3793.4 6355.3 3785.3 6349.4 3782.2 6358.9 3792.2 6358.9 3800.3 6353.1 3790.3 6353.1 3782.2 6347.2 3772.2 6347.2 3775.3 6337.7 3772.2 6328.2 3762.2 6328.2 3765.3 6318.7 3768.4 6309.1 3776.5 6315 3786.5 6315 3789.6 6324.5 3799.6 6324.5 3796.5 6315 3786.5 6315 3776.5 6315 3784.6 6320.9 3781.5 6311.4 3773.4 6305.5 3770.3 6296 3778.4 6290.1 3786.5 6296 3789.6 6305.5 3786.5 6296 3783.4 6286.5 3773.4 6286.5 3776.5 6277 3779.6 6286.5 3789.6 6286.5 3781.5 6280.6 3778.4 6290.1 3775.3 6299.6 3767.2 6305.5 3775.3 6311.4 3778.4 6320.9" clip-path="url(#a)" fill="none" stroke="#000" stroke-linecap="round"/>
<polyline points="3778.4 6320.9 3788.4 6320.9 3791.5 6311.4 3794.6 6320.9 3791.5 6311.4 3783.4 6305.5 3780.3 6296 3772.2 6301.9 3780.3 6307.8 3772.2 6313.6 3764.1 6319.5 3761 6329 3758 6319.5 3761 6329 3751 6329 3759.1 6334.9 3751 6329 3754.1 6319.5 3751 6329 3748 6319.5 3739.9 6325.4 3748 6319.5 3739.9 6313.6 3748 6319.5 3751 6329 3759.1 6334.9 3769.1 6334.9 3761 6340.8 3753 6346.7 3756 6356.2 3766 6356.2 3776 6356.2 3784.1 6362 3787.2 6371.6 3790.3 6362 3782.2 6367.9 3779.1 6358.4 3782.2 6367.9 3790.3 6373.8 3793.4 6364.3 3803.4 6364.3 3811.5 6358.4 3808.4 6348.9" clip-path="url(#a)" fill="none" stroke="#000" stroke-linecap="round"/>
<polyline points="3808.4 6348.9 3800.3 6343 3808.4 6348.9 3805.3 6339.4 3813.4 6345.3 3816.5 6354.8 3808.4 6348.9 3798.4 6348.9 3801.5 6358.4 3811.5 6358.4 3801.5 6358.4 3793.4 6352.5 3803.4 6352.5 3795.3 6358.4 3787.2 6352.5 3795.3 6358.4 3803.4 6364.3 3800.3 6373.8 3808.4 6379.7 3805.3 6389.2 3797.2 6383.3 3789.1 6389.2 3779.1 6389.2 3776 6398.7 3766 6398.7 3758 6404.6 3754.9 6395.1 3763 6400.9 3754.9 6406.8 3744.9 6406.8 3754.9 6406.8 3744.9 6406.8 3741.8 6397.3 3738.7 6387.8 3730.6 6381.9 3720.6 6381.9 3710.6 6381.9 3718.7 6387.8 3721.8 6397.3 3711.8 6397.3 3708.7 6406.8 3718.7 6406.8 3715.6 6416.3" clip-path="url(#a)" fill="none" stroke="#000" stroke-linecap="round"/>
<polyline points="3715.6 6416.3 3718.7 6406.8 3721.8 6416.3 3718.7 6425.8 3715.6 6435.4 3712.5 6425.8 3709.4 6416.3 3719.4 6416.3 3716.3 6425.8 3726.3 6425.8 3718.2 6420 3721.3 6410.5 3724.4 6400.9 3727.5 6410.5 3719.4 6404.6 3711.3 6410.5 3701.3 6410.5 3698.2 6400.9 3690.1 6406.8 3700.1 6406.8 3703.2 6397.3 3700.1 6406.8 3708.2 6400.9 3711.3 6391.4 3703.2 6397.3 3711.3 6403.2 3701.3 6403.2 3709.4 6409.1 3699.4 6409.1 3707.5 6414.9 3715.6 6420.8 3712.5 6430.3 3702.5 6430.3 3705.6 6439.8 3702.5 6449.4 3694.4 6443.5 3702.5 6437.6 3712.5 6437.6 3722.5 6437.6 3732.5 6437.6 3722.5 6437.6 3732.5 6437.6 3735.6 6428.1" clip-path="url(#a)" fill="none" stroke="#000" stroke-linecap="round"/>
<polyline points="3735.6 6428.1 3727.5 6434 3719.4 6428.1 3729.4 6428.1 3737.5 6422.2 3745.6 6428.1 3737.5 6434 3729.4 6428.1 3732.5 6437.6 3729.4 6428.1 3721.3 6434 3713.2 6439.8 3721.3 6445.7 3718.2 6455.2 3715.1 6445.7 3725.1 6445.7 3717.1 6439.8 3709 6434 3705.9 6443.5 3715.9 6443.5 3724 6437.6 3714 6437.6 3705.9 6431.7 3695.9 6431.7 3699 6422.2 3695.9 6412.7 3685.9 6412.7 3689 6403.2 3692.1 6393.7 3700.1 6399.6 3710.1 6399.6 3713.2 6409.1 3723.2 6409.1 3720.1 6399.6 3710.1 6399.6 3700.1 6399.6 3708.2 6405.4 3705.1 6395.9 3697.1 6390 3694 6380.5 3702.1 6374.7 3710.1 6380.5 3713.2 6390" clip-path="url(#a)" fill="none" stroke="#000" stroke-linecap="round"/>
<polyline points="3713.2 6390 3710.1 6380.5 3707.1 6371 3697.1 6371 3700.1 6361.5 3703.2 6371 3713.2 6371 3705.1 6365.1 3702.1 6374.7 3699 6384.2 3690.9 6390 3699 6395.9 3702.1 6405.4 3712.1 6405.4 3715.1 6395.9 3718.2 6405.4 3715.1 6395.9 3707.1 6390 3704 6380.5 3695.9 6386.4 3704 6392.3 3695.9 6398.2 3687.8 6404 3684.7 6413.6 3681.6 6404 3684.7 6413.6 3674.7 6413.6 3682.8 6419.4 3674.7 6413.6 3677.8 6404 3674.7 6413.6 3671.6 6404 3663.5 6409.9 3671.6 6404 3663.5 6398.2 3671.6 6404 3674.7 6413.6 3682.8 6419.4 3692.8 6419.4 3684.7 6425.3 3676.6 6431.2 3679.7 6440.7 3689.7 6440.7" clip-path="url(#a)" fill="none" stroke="#000" stroke-linecap="round"/>
<polyline points="3689.7 6440.7 3699.7 6440.7 3707.8 6446.6 3710.9 6456.1 3714 6446.6 3705.9 6452.5 3702.8 6442.9 3705.9 6452.5 3714 6458.3 3717.1 6448.8 3727.1 6448.8 3735.1 6442.9 3732.1 6433.4 3724 6427.6 3732.1 6433.4 3729 6423.9 3737.1 6429.8 3740.1 6439.3 3732.1 6433.4 3722.1 6433.4 3725.1 6442.9 3735.1 6442.9 3725.1 6442.9 3717.1 6437.1 3727.1 6437.1 3719 6442.9 3710.9 6437.1 3719 6442.9 3727.1 6448.8 3724 6458.3 3732.1 6464.2 3729 6473.7 3720.9 6467.8 3712.8 6473.7 3702.8 6473.7 3699.7 6483.2 3689.7 6483.2 3681.6 6489.1 3678.5 6479.6 3686.6 6485.5 3678.5 6491.4 3668.5 6491.4 3678.5 6491.4" clip-path="url(#a)" fill="none" stroke="#000" stroke-linecap="round"/>
<polyline points="3678.5 6491.4 3668.5 6491.4 3665.4 6481.8 3662.3 6472.3 3654.2 6466.5 3644.2 6466.5 3634.2 6466.5 3642.3 6472.3 3645.4 6481.8 3635.4 6481.8 3632.3 6491.4 3642.3 6491.4 3639.2 6500.9 3642.3 6491.4 3645.4 6500.9 3642.3 6510.4 3639.2 6519.9 3636.2 6510.4 3633.1 6500.9 3643.1 6500.9 3640 6510.4 3650 6510.4 3641.9 6504.5 3645 6495 3648.1 6485.5 3651.2 6495 3643.1 6489.1 3635 6495 3625 6495 3621.9 6485.5 3613.8 6491.4 3623.8 6491.4 3626.9 6481.8 3623.8 6491.4 3631.9 6485.5 3635 6476 3626.9 6481.8 3635 6487.7 3625 6487.7 3633.1 6493.6 3623.1 6493.6 3631.2 6499.5 3639.2 6505.4" clip-path="url(#a)" fill="none" stroke="#000" stroke-linecap="round"/>
<polyline points="3639.2 6505.4 3636.2 6514.9 3626.2 6514.9 3629.2 6524.4 3626.2 6533.9 3618.1 6528 3626.2 6522.1 3636.2 6522.1 3646.2 6522.1 3656.2 6522.1 3646.2 6522.1 3656.2 6522.1 3659.2 6512.6 3651.2 6518.5 3643.1 6512.6 3653.1 6512.6 3661.2 6506.7 3669.2 6512.6 3661.2 6518.5 3653.1 6512.6 3656.2 6522.1 3653.1 6512.6 3645 6518.5 3636.9 6524.4 3645 6530.3 3641.9 6539.8 3638.8 6530.3 3648.8 6530.3 3640.7 6524.4 3632.6 6518.5 3629.5 6528 3639.5 6528 3647.6 6522.1 3637.6 6522.1 3629.5 6516.3 3619.5 6516.3 3622.6 6506.7 3619.5 6497.2 3609.5 6497.2 3612.6 6487.7 3615.7 6478.2 3623.8 6484.1 3633.8 6484.1" clip-path="url(#a)" fill="none" stroke="#000" stroke-linecap="round"/>
<polyline points="3633.8 6484.1 3636.9 6493.6 3646.9 6493.6 3643.8 6484.1 3633.8 6484.1 3623.8 6484.1 3631.9 6490 3628.8 6480.5 3620.7 6474.6 3617.6 6465.1 3625.7 6459.2 3633.8 6465.1 3636.9 6474.6 3633.8 6465.1 3630.7 6455.6 3620.7 6455.6 3623.8 6446 3626.9 6455.6 3636.9 6455.6 3628.8 6449.7 3625.7 6459.2 3622.6 6468.7 3614.5 6474.6 3622.6 6480.5 3625.7 6490 3635.7 6490 3638.8 6480.5 3641.9 6490 3638.8 6480.5 3630.7 6474.6 3627.6 6465.1 3619.5 6470.9 3627.6 6476.8 3619.5 6482.7 3611.4 6488.6 3608.3 6498.1 3605.3 6488.6 3608.3 6498.1 3598.3 6498.1 3606.4 6504 3598.3 6498.1 3601.4 6488.6 3598.3 6498.1" clip-path="url(#a)" fill="none" stroke="#000" stroke-linecap="round"/>
<polyline points="3598.3 6498.1 3595.3 6488.6 3587.2 6494.5 3595.3 6488.6 3587.2 6482.7 3595.3 6488.6 3598.3 6498.1 3606.4 6504 3616.4 6504 3608.3 6509.8 3600.3 6515.7 3603.3 6525.2 3613.3 6525.2 3623.3 6525.2 3631.4 6531.1 3634.5 6540.6 3637.6 6531.1 3629.5 6537 3626.4 6527.5 3629.5 6537 3637.6 6542.9 3640.7 6533.4 3650.7 6533.4 3658.8 6527.5 3655.7 6518 3647.6 6512.1 3655.7 6518 3652.6 6508.5 3660.7 6514.3 3663.8 6523.8 3655.7 6518 3645.7 6518 3648.8 6527.5 3658.8 6527.5 3648.8 6527.5 3640.7 6521.6 3650.7 6521.6 3642.6 6527.5 3634.5 6521.6 3642.6 6527.5 3650.7 6533.4 3647.6 6542.9 3655.7 6548.7" clip-path="url(#a)" fill="none" stroke="#000" stroke-linecap="round"/>
<polyline points="3655.7 6548.7 3652.6 6558.3 3644.5 6552.4 3636.4 6558.3 3626.4 6558.3 3623.3 6567.8 3613.3 6567.8 3605.3 6573.6 3602.2 6564.1 3610.3 6570 3602.2 6575.9 3592.2 6575.9 3602.2 6575.9 3592.2 6575.9 3589.1 6566.4 3586 6556.9 3577.9 6551 3567.9 6551 3557.9 6551 3566 6556.9 3569.1 6566.4 3559.1 6566.4 3556 6575.9 3566 6575.9 3562.9 6585.4 3566 6575.9 3569.1 6585.4 3566 6594.9 3562.9 6604.4 3559.8 6594.9 3556.7 6585.4 3566.7 6585.4 3563.6 6594.9 3573.6 6594.9 3565.5 6589 3568.6 6579.5 3571.7 6570 3574.8 6579.5 3566.7 6573.6 3558.6 6579.5 3548.6 6579.5 3545.5 6570 3537.4 6575.9" clip-path="url(#a)" fill="none" stroke="#000" stroke-linecap="round"/>
<polyline points="3537.4 6575.9 3547.4 6575.9 3550.5 6566.4 3547.4 6575.9 3555.5 6570 3558.6 6560.5 3550.5 6566.4 3558.6 6572.3 3548.6 6572.3 3556.7 6578.1 3546.7 6578.1 3554.8 6584 3562.9 6589.9 3559.8 6599.4 3549.8 6599.4 3552.9 6608.9 3549.8 6618.4 3541.7 6612.5 3549.8 6606.7 3559.8 6606.7 3569.8 6606.7 3579.8 6606.7 3569.8 6606.7 3579.8 6606.7 3582.9 6597.2 3574.8 6603 3566.7 6597.2 3576.7 6597.2 3584.8 6591.3 3592.9 6597.2 3584.8 6603 3576.7 6597.2 3579.8 6606.7 3576.7 6597.2 3568.6 6603 3560.5 6608.9 3568.6 6614.8 3565.5 6624.3 3562.4 6614.8 3572.4 6614.8 3564.4 6608.9 3556.3 6603 3553.2 6612.5" clip-path="url(#a)" fill="none" stroke="#000" stroke-linecap="round"/>
<polyline points="3553.2 6612.5 3563.2 6612.5 3571.3 6606.7 3561.3 6606.7 3553.2 6600.8 3543.2 6600.8 3546.3 6591.3 3543.2 6581.8 3533.2 6581.8 3536.3 6572.3 3539.4 6562.7 3547.4 6568.6 3557.4 6568.6 3560.5 6578.1 3570.5 6578.1 3567.4 6568.6 3557.4 6568.6 3547.4 6568.6 3555.5 6574.5 3552.4 6565 3544.4 6559.1 3541.3 6549.6 3549.4 6543.7 3557.4 6549.6 3560.5 6559.1 3557.4 6549.6 3554.4 6540.1 3544.4 6540.1 3547.4 6530.6 3550.5 6540.1 3560.5 6540.1 3552.4 6534.2 3549.4 6543.7 3546.3 6553.2 3538.2 6559.1 3546.3 6565 3549.4 6574.5 3559.4 6574.5 3562.4 6565 3565.5 6574.5 3562.4 6565 3554.4 6559.1 3551.3 6549.6" clip-path="url(#a)" fill="none" stroke="#000" stroke-linecap="round"/>
<polyline points="3551.3 6549.6 3543.2 6555.5 3551.3 6561.4 3543.2 6567.2 3535.1 6573.1 3532 6582.6 3528.9 6573.1 3532 6582.6 3522 6582.6 3530.1 6588.5 3522 6582.6 3525.1 6573.1 3522 6582.6 3518.9 6573.1 3510.8 6579 3518.9 6573.1 3510.8 6567.2 3518.9 6573.1 3522 6582.6 3530.1 6588.5 3540.1 6588.5 3532 6594.4 3523.9 6600.3 3527 6609.8 3537 6609.8 3547 6609.8 3555.1 6615.6 3558.2 6625.2 3561.3 6615.6 3553.2 6621.5 3550.1 6612 3553.2 6621.5 3561.3 6627.4 3564.4 6617.9 3574.4 6617.9 3582.4 6612 3579.4 6602.5 3571.3 6596.6 3579.4 6602.5 3576.3 6593 3584.4 6598.9 3587.4 6608.4 3579.4 6602.5" clip-path="url(#a)" fill="none" stroke="#000" stroke-linecap="round"/>
<polyline points="3579.4 6602.5 3569.4 6602.5 3572.4 6612 3582.4 6612 3572.4 6612 3564.4 6606.1 3574.4 6606.1 3566.3 6612 3558.2 6606.1 3566.3 6612 3574.4 6617.9 3571.3 6627.4 3579.4 6633.3 3576.3 6642.8 3568.2 6636.9 3560.1 6642.8 3550.1 6642.8 3547 6652.3 3537 6652.3 3528.9 6658.2 3525.8 6648.7 3533.9 6654.5 3525.8 6660.4 3515.8 6660.4 3525.8 6660.4 3515.8 6660.4 3512.7 6650.9 3509.6 6641.4 3501.5 6635.5 3491.5 6635.5 3481.5 6635.5 3489.6 6641.4 3492.7 6650.9 3482.7 6650.9 3479.6 6660.4 3489.6 6660.4 3486.5 6669.9 3489.6 6660.4 3492.7 6669.9 3489.6 6679.4 3486.5 6689 3483.4 6679.4 3480.4 6669.9" clip-path="url(#a)" fill="none" stroke="#000" stroke-linecap="round"/>
<polyline points="3480.4 6669.9 3490.4 6669.9 3487.3 6679.4 3497.3 6679.4 3489.2 6673.6 3492.3 6664.1 3495.4 6654.5 3498.4 6664.1 3490.4 6658.2 3482.3 6664.1 3472.3 6664.1 3469.2 6654.5 3461.1 6660.4 3471.1 6660.4 3474.2 6650.9 3471.1 6660.4 3479.2 6654.5 3482.3 6645 3474.2 6650.9 3482.3 6656.8 3472.3 6656.8 3480.4 6662.7 3470.4 6662.7 3478.4 6668.5 3486.5 6674.4 3483.4 6683.9 3473.4 6683.9 3476.5 6693.4 3473.4 6703 3465.4 6697.1 3473.4 6691.2" clip-path="url(#a)" fill="none" stroke="#000" stroke-linecap="round"/>
</svg>
