<?xml version="1.0" encoding="UTF-8"?>
<svg width="1e4px" height="1e4px" baseProfile="full" version="1.1" viewBox="4992.4 4929.4 164.72 168.42" xmlns="http://www.w3.org/2000/svg">
<defs>
<clipPath id="a">
<rect width="1e4" height="1e4"/>
</clipPath>
</defs>
<polyline points="5000.5 5000.5 5010.5 5000.5 5020.5 5000.5 5010.5 5000.5 5007.4 5010 5004.3 5000.5 4996.2 5006.4 4993.1 5015.9 4996.2 5006.4 5004.3 5012.3 5001.2 5021.8 4993.1 5027.6 5003.1 5027.6 5e3 5037.2 5010 5037.2 5002 5043 4993.9 5037.2 4997 5046.7 5007 5046.7 5015 5040.8 5023.1 5034.9 5015 5040.8 5018.1 5050.3 5010 5044.4 5007 5053.9 5010 5063.4 5007 5053.9 5017 5053.9 5020 5063.4 5017 5073 5025 5067.1 5028.1 5076.6 5036.2 5070.7 5033.1 5080.2 5023.1 5080.2 5031.2 5086.1 5039.3 5080.2 5042.4 5070.7 5045.5 5061.2 5042.4 5070.7 5050.5 5076.6 5040.5 5076.6 5043.6 5086.1" clip-path="url(#a)" fill="none" stroke="#000" stroke-linecap="round"/>
<polyline points="5043.6 5086.1 5051.7 5092 5043.6 5086.1 5051.7 5080.2 5059.8 5086.1 5062.9 5095.6 5066 5086.1 5074 5092 5077.1 5082.5 5080.2 5092 5072.1 5097.9 5082.1 5097.9 5085.2 5088.3 5082.1 5078.8 5079 5069.3 5082.1 5078.8 5092.1 5078.8 5084 5084.7 5092.1 5090.6 5102.1 5090.6 5092.1 5090.6 5095.2 5081.1 5105.2 5081.1 5113.3 5087 5110.2 5077.4 5120.2 5077.4 5117.1 5067.9 5125.2 5073.8 5122.1 5083.3 5130.2 5077.4 5127.1 5067.9 5119 5062.1 5111 5056.2 5119 5062.1 5127.1 5056.2 5124 5065.7 5134 5065.7 5142.1 5059.8 5134 5065.7 5131 5056.2 5139 5050.3 5149 5050.3 5141 5044.4" clip-path="url(#a)" fill="none" stroke="#000" stroke-linecap="round"/>
<polyline points="5141 5044.4 5149 5038.5 5141 5032.7 5151 5032.7 5154 5042.2 5157.1 5032.7 5149 5026.8 5139 5026.8 5129 5026.8 5139 5026.8 5142.1 5017.3 5145.2 5026.8 5153.3 5020.9 5156.4 5011.4 5153.3 5020.9 5145.2 5015 5148.3 5005.5 5156.4 4999.6 5146.4 4999.6 5149.5 4990.1 5139.5 4990.1 5147.6 4984.3 5155.7 4990.1 5152.6 4980.6 5142.6 4980.6 5134.5 4986.5 5126.4 4992.4 5134.5 4986.5 5131.4 4977 5139.5 4982.9 5142.6 4973.4 5139.5 4963.8 5142.6 4973.4 5132.6 4973.4 5129.5 4963.8 5132.6 4954.3 5124.5 4960.2 5121.4 4950.7 5113.3 4956.6 5116.4 4947.1 5126.4 4947.1 5118.3 4941.2 5110.2 4947.1" clip-path="url(#a)" fill="none" stroke="#000" stroke-linecap="round"/>
<polyline points="5110.2 4947.1 5107.1 4956.6 5104 4966.1 5107.1 4956.6 5099 4950.7 5109 4950.7 5106 4941.2 5097.9 4935.3 5106 4941.2 5097.9 4947.1 5089.8 4941.2 5086.7 4931.7 5083.6 4941.2 5075.5 4935.3 5072.4 4944.8 5069.3 4935.3 5077.4 4929.4 5067.4 4929.4 5064.3 4938.9 5067.4 4948.5 5070.5 4958 5067.4 4948.5 5057.4 4948.5 5065.5 4942.6 5057.4 4936.7 5047.4 4936.7 5057.4 4936.7 5054.3 4946.2 5044.3 4946.2 5036.2 4940.3 5039.3 4949.8 5029.3 4949.8 5032.4 4959.4 5024.3 4953.5 5027.4 4944 5019.3 4949.8 5022.4 4959.4 5030.5 4965.2 5038.6 4971.1 5030.5 4965.2 5022.4 4971.1 5025.5 4961.6 5015.5 4961.6" clip-path="url(#a)" fill="none" stroke="#000" stroke-linecap="round"/>
<polyline points="5015.5 4961.6 5007.4 4967.5 5015.5 4961.6 5018.6 4971.1 5010.5 4977 5000.5 4977 5008.6 4982.9 5000.5 4988.7 5008.6 4994.6 4998.6 4994.6 4995.5 4985.1 4992.4 4994.6 5000.5 5000.5 5010.5 5000.5 5020.5 5000.5 5010.5 5000.5 5007.4 5010 5004.3 5000.5 4996.2 5006.4 4993.1 5015.9 4996.2 5006.4 5004.3 5012.3 5001.2 5021.8 4993.1 5027.6 5003.1 5027.6 5e3 5037.2 5010 5037.2 5002 5043 4993.9 5037.2 4997 5046.7 5007 5046.7 5015 5040.8 5023.1 5034.9 5015 5040.8 5018.1 5050.3 5010 5044.4 5007 5053.9 5010 5063.4 5007 5053.9 5017 5053.9 5020 5063.4 5017 5073 5025 5067.1" clip-path="url(#a)" fill="none" stroke="#000" stroke-linecap="round"/>
<polyline points="5025 5067.1 5028.1 5076.6 5036.2 5070.7 5033.1 5080.2 5023.1 5080.2 5031.2 5086.1 5039.3 5080.2 5042.4 5070.7 5045.5 5061.2 5042.4 5070.7 5050.5 5076.6 5040.5 5076.6 5043.6 5086.1 5051.7 5092 5043.6 5086.1 5051.7 5080.2 5059.8 5086.1 5062.9 5095.6 5066 5086.1 5074 5092 5077.1 5082.5 5080.2 5092 5072.1 5097.9 5082.1 5097.9 5085.2 5088.3 5082.1 5078.8 5079 5069.3 5082.1 5078.8 5092.1 5078.8 5084 5084.7 5092.1 5090.6 5102.1 5090.6 5092.1 5090.6 5095.2 5081.1 5105.2 5081.1 5113.3 5087 5110.2 5077.4 5120.2 5077.4 5117.1 5067.9 5125.2 5073.8 5122.1 5083.3 5130.2 5077.4 5127.1 5067.9" clip-path="url(#a)" fill="none" stroke="#000" stroke-linecap="round"/>
<polyline points="5127.1 5067.9 5119 5062.1 5111 5056.2 5119 5062.1 5127.1 5056.2 5124 5065.7 5134 5065.7 5142.1 5059.8 5134 5065.7 5131 5056.2 5139 5050.3 5149 5050.3 5141 5044.4 5149 5038.5 5141 5032.7 5151 5032.7 5154 5042.2 5157.1 5032.7 5149 5026.8 5139 5026.8 5129 5026.8 5139 5026.8 5142.1 5017.3 5145.2 5026.8 5153.3 5020.9 5156.4 5011.4 5153.3 5020.9 5145.2 5015 5148.3 5005.5 5156.4 4999.6 5146.4 4999.6 5149.5 4990.1 5139.5 4990.1 5147.6 4984.3 5155.7 4990.1 5152.6 4980.6 5142.6 4980.6 5134.5 4986.5 5126.4 4992.4 5134.5 4986.5 5131.4 4977 5139.5 4982.9 5142.6 4973.4" clip-path="url(#a)" fill="none" stroke="#000" stroke-linecap="round"/>
<polyline points="5142.6 4973.4 5139.5 4963.8 5142.6 4973.4 5132.6 4973.4 5129.5 4963.8 5132.6 4954.3 5124.5 4960.2 5121.4 4950.7 5113.3 4956.6 5116.4 4947.1 5126.4 4947.1 5118.3 4941.2 5110.2 4947.1 5107.1 4956.6 5104 4966.1 5107.1 4956.6 5099 4950.7 5109 4950.7 5106 4941.2 5097.9 4935.3 5106 4941.2 5097.9 4947.1 5089.8 4941.2 5086.7 4931.7 5083.6 4941.2 5075.5 4935.3 5072.4 4944.8 5069.3 4935.3 5077.4 4929.4 5067.4 4929.4 5064.3 4938.9 5067.4 4948.5 5070.5 4958 5067.4 4948.5 5057.4 4948.5 5065.5 4942.6 5057.4 4936.7 5047.4 4936.7 5057.4 4936.7 5054.3 4946.2 5044.3 4946.2 5036.2 4940.3 5039.3 4949.8" clip-path="url(#a)" fill="none" stroke="#000" stroke-linecap="round"/>
<polyline points="5039.3 4949.8 5029.3 4949.8 5032.4 4959.4 5024.3 4953.5 5027.4 4944 5019.3 4949.8 5022.4 4959.4 5030.5 4965.2 5038.6 4971.1 5030.5 4965.2 5022.4 4971.1 5025.5 4961.6 5015.5 4961.6 5007.4 4967.5 5015.5 4961.6 5018.6 4971.1 5010.5 4977 5000.5 4977 5008.6 4982.9 5000.5 4988.7 5008.6 4994.6 4998.6 4994.6 4995.5 4985.1 4992.4 4994.6 5000.5 5000.5" clip-path="url(#a)" fill="none" stroke="#000" stroke-linecap="round"/>
</svg>
