<?xml version="1.0" encoding="utf-8" ?>
<svg baseProfile="full" height="1000px" version="1.1" width="1000px" xmlns="http://www.w3.org/2000/svg" xmlns:ev="http://www.w3.org/2001/xml-events" xmlns:xlink="http://www.w3.org/1999/xlink"><defs><clipPath id="border_clip"><rect height="1000" width="1000" x="0" y="0" /></clipPath></defs><polyline clip-path="url(#border_clip)" fill="none" points="500.5,500.5 510.5,500.5 500.5,500.5 497.40983005625054,510.01056516295154 494.319660112501,500.5 486.22949016875157,506.37785252292474 483.1393202250021,515.8884176858762 486.22949016875157,506.37785252292474 494.319660112501,512.2557050458495 491.22949016875157,521.766270208801 483.13932022500205,527.6441227317257 493.1393202250021,527.6441227317257 490.0491502812526,537.1546878946773 500.0491502812526,537.1546878946773 491.95898033750314,543.032540417602 483.8688103937536,537.1546878946773 486.9589803375031,546.6652530576288 496.9589803375031,546.6652530576288 505.0491502812526,540.7874005347041 513.139320225002,534.9095480117794 505.0491502812526,540.7874005347041 508.13932022500205,550.2979656976556 500.0491502812526,544.4201131747309 496.9589803375031,553.9306783376825 500.04915028125254,563.441243500634 496.9589803375031,553.9306783376825 506.9589803375031,553.9306783376825 510.04915028125254,563.4412435006341 506.958980337503,572.9518086635856 515.0491502812525,567.0739561406608 518.1393202250019,576.5845213036124 526.2294901687515,570.7066687806877 523.1393202250019,580.2172339436393 513.1393202250019,580.2172339436391 521.2294901687515,586.095086466564 529.3196601125009,580.2172339436393 532.4098300562504,570.7066687806877 535.4999999999999,561.1961036177362 532.4098300562504,570.7066687806877 540.4999999999999,576.5845213036125 530.4999999999999,576.5845213036124 533.5901699437493,586.095086466564 541.6803398874988,591.9729389894887" stroke="black" stroke-linecap="round" stroke-width="1" /><polyline clip-path="url(#border_clip)" fill="none" points="541.6803398874988,591.9729389894887 533.5901699437493,586.095086466564 541.6803398874988,580.2172339436393 549.7705098312483,586.0950864665641 552.8606797749977,595.6056516295157 555.9508497187472,586.0950864665641 564.0410196624966,591.9729389894889 567.1311896062462,582.4623738265374 570.2213595499957,591.972938989489 562.1311896062462,597.8507915124136 572.1311896062462,597.8507915124137 575.2213595499957,588.3402263494621 572.1311896062463,578.8296611865106 569.0410196624969,569.319096023559 572.1311896062463,578.8296611865106 582.1311896062463,578.8296611865106 574.0410196624968,584.7075137094354 582.1311896062462,590.5853662323601 592.1311896062462,590.5853662323602 582.1311896062462,590.5853662323601 585.2213595499958,581.0748010694086 595.2213595499958,581.0748010694087 603.3115294937452,586.9526535923335 600.2213595499958,577.4420884293819 610.2213595499958,577.442088429382 607.1311896062464,567.9315232664304 615.2213595499959,573.8093757893553 612.1311896062463,583.3199409523068 620.2213595499958,577.442088429382 617.1311896062464,567.9315232664305 609.041019662497,562.0536707435057 600.9508497187476,556.1758182205808 609.041019662497,562.0536707435057 617.1311896062465,556.175818220581 614.041019662497,565.6863833835325 624.041019662497,565.6863833835326 632.1311896062465,559.8085308606079 624.041019662497,565.6863833835326 620.9508497187476,556.175818220581 629.0410196624971,550.2979656976563 639.0410196624971,550.2979656976564 630.9508497187477,544.4201131747317 639.0410196624972,538.5422606518069" stroke="black" stroke-linecap="round" stroke-width="1" /><polyline clip-path="url(#border_clip)" fill="none" points="639.0410196624972,538.5422606518069 630.9508497187478,532.6644081288822 640.9508497187478,532.6644081288823 644.0410196624972,542.1749732918338 647.1311896062467,532.6644081288823 639.0410196624973,526.7865556059575 629.0410196624973,526.7865556059573 619.0410196624973,526.7865556059572 629.0410196624973,526.7865556059573 632.1311896062468,517.2759904430059 635.2213595499962,526.7865556059575 643.3115294937458,520.9087030830328 646.4016994374954,511.3981379200813 643.3115294937458,520.9087030830328 635.2213595499964,515.030850560108 638.3115294937459,505.52028539715644 646.4016994374955,499.6424328742318 636.4016994374954,499.6424328742317 639.491869381245,490.13186771128017 629.491869381245,490.13186771128005 637.5820393249946,484.2540151883554 645.6722092687439,490.1318677112803 642.5820393249946,480.6213025483287 632.5820393249946,480.6213025483285 624.491869381245,486.4991550712532 616.4016994374955,492.3770075941778 624.491869381245,486.4991550712532 621.4016994374957,476.9885899083016 629.4918693812451,482.86644243122646 632.5820393249946,473.3558772682749 629.4918693812454,463.84531210532333 632.5820393249946,473.3558772682749 622.5820393249946,473.35587726827475 619.4918693812454,463.84531210532316 622.582039324995,454.3347469423717 614.4918693812454,460.2125994652963 611.4016994374961,450.7020343023447 603.3115294937464,456.57988682526934 606.4016994374961,447.0693216623178 616.4016994374961,447.069321662318 608.3115294937467,441.1914691393931 600.2213595499971,447.06932166231775 597.1311896062475,456.5798868252692" stroke="black" stroke-linecap="round" stroke-width="1" /><polyline clip-path="url(#border_clip)" fill="none" points="597.1311896062475,456.5798868252692 594.0410196624979,466.0904519882207 597.1311896062475,456.5798868252692 589.0410196624981,450.7020343023444 599.0410196624981,450.7020343023445 595.9508497187487,441.1914691393929 587.8606797749994,435.31361661646804 595.9508497187487,441.1914691393929 587.8606797749992,447.0693216623175 579.7705098312498,441.19146913939267 576.6803398875004,431.6809039764411 573.5901699437509,441.19146913939255 565.5000000000014,435.3136166164677 562.4098300562517,444.8241817794192 559.3196601125024,435.3136166164676 567.4098300562521,429.43576409354296 557.4098300562521,429.4357640935428 554.3196601125023,438.9463292564943 557.4098300562517,448.4568944194459 560.500000000001,457.9674595823975 557.4098300562517,448.4568944194459 547.4098300562516,448.45689441944575 555.5000000000013,442.5790418965211 547.4098300562518,436.70118937359626 537.4098300562518,436.7011893735961 547.4098300562518,436.70118937359626 544.3196601125022,446.21175453654774 534.3196601125022,446.2117545365476 526.2294901687528,440.3339020136227 529.3196601125021,449.8444671765743 519.3196601125021,449.84446717657414 522.4098300562514,459.35503233952574 514.319660112502,453.4771798166008 517.4098300562516,443.96661465364934 509.31966011250205,449.8444671765739 512.4098300562514,459.35503233952556 520.5000000000008,465.2328848624504 528.5901699437502,471.11073738537533 520.5000000000008,465.2328848624504 512.4098300562512,471.11073738537505 515.5000000000008,461.60017222242357 505.5000000000008,461.60017222242334 497.40983005625117,467.47802474534797" stroke="black" stroke-linecap="round" stroke-width="1" /><polyline clip-path="url(#border_clip)" fill="none" points="497.40983005625117,467.47802474534797 505.5000000000008,461.60017222242334 508.5901699437501,471.110737385375 500.50000000000045,476.98858990829956 490.50000000000045,476.98858990829933 498.5901699437498,482.8664424312243 490.5000000000002,488.74429495414887 498.5901699437496,494.6221474770738 488.5901699437496,494.62214747707355 485.5000000000003,485.11158231412196 482.4098300562506,494.62214747707344 490.49999999999994,500.49999999999835 500.5,500.4999999999986 510.5,500.49999999999875 500.5,500.4999999999986 497.4098300562503,510.01056516295006 494.319660112501,500.4999999999984 486.2294901687514,506.37785252292304 483.1393202250017,515.8884176858745 486.2294901687514,506.37785252292304 494.3196601125008,512.2557050458479 491.22949016875106,521.7662702087995 483.1393202250014,527.644122731724 493.1393202250015,527.6441227317242 490.0491502812518,537.1546878946757 500.0491502812518,537.1546878946759 491.95898033750217,543.0325404176006 483.8688103937528,537.1546878946756 486.9589803375021,546.6652530576273 496.9589803375021,546.6652530576275 505.04915028125174,540.7874005347029 513.1393202250014,534.9095480117783 505.04915028125174,540.7874005347029 508.13932022500103,550.2979656976545 500.0491502812517,544.4201131747296 496.95898033750194,553.9306783376811 500.04915028125123,563.4412435006327 496.95898033750194,553.9306783376811 506.958980337502,553.9306783376813 510.04915028125123,563.4412435006329 506.95898033750154,572.9518086635844 515.0491502812512,567.0739561406599 518.1393202250005,576.5845213036116" stroke="black" stroke-linecap="round" stroke-width="1" /><polyline clip-path="url(#border_clip)" fill="none" points="518.1393202250005,576.5845213036116 526.2294901687501,570.706668780687 523.1393202250003,580.2172339436385 513.1393202250003,580.2172339436382 521.2294901687496,586.0950864665632 529.3196601124994,580.2172339436387 532.4098300562491,570.7066687806871 535.4999999999987,561.1961036177356 532.4098300562491,570.7066687806871 540.4999999999984,576.5845213036121 530.4999999999984,576.5845213036118 533.5901699437476,586.0950864665635 541.680339887497,591.9729389894885 533.5901699437476,586.0950864665635 541.6803398874973,580.217233943639 549.7705098312466,586.095086466564 552.8606797749959,595.6056516295156 555.9508497187456,586.0950864665641 564.041019662495,591.9729389894891 567.1311896062448,582.4623738265376 570.221359549994,591.9729389894892 562.1311896062443,597.8507915124138 572.1311896062443,597.850791512414 575.2213595499941,588.3402263494626 572.1311896062448,578.8296611865109 569.0410196624956,569.3190960235593 572.1311896062448,578.8296611865109 582.1311896062449,578.8296611865112 574.0410196624953,584.7075137094357 582.1311896062446,590.5853662323607 592.1311896062446,590.5853662323609 582.1311896062446,590.5853662323607 585.2213595499943,581.0748010694092 595.2213595499943,581.0748010694094 603.3115294937437,586.9526535923344 600.2213595499945,577.4420884293828 610.2213595499945,577.442088429383 607.1311896062454,567.9315232664314 615.2213595499946,573.8093757893564 612.1311896062449,583.3199409523079 620.2213595499945,577.4420884293834 617.1311896062454,567.9315232664317 609.0410196624961,562.0536707435067" stroke="black" stroke-linecap="round" stroke-width="1" /><polyline clip-path="url(#border_clip)" fill="none" points="609.0410196624961,562.0536707435067 600.9508497187467,556.1758182205817 609.041019662496,562.0536707435067 617.1311896062457,556.1758182205822 614.041019662496,565.6863833835337 624.041019662496,565.686383383534 632.1311896062457,559.8085308606095 624.041019662496,565.686383383534 620.9508497187468,556.1758182205823 629.0410196624964,550.2979656976578 639.0410196624965,550.2979656976581 630.9508497187471,544.420113174733 639.0410196624969,538.5422606518085 630.9508497187476,532.6644081288836 640.9508497187476,532.6644081288839 644.0410196624968,542.1749732918355 647.1311896062466,532.664408128884 639.0410196624973,526.786555605959 629.0410196624972,526.7865556059587 619.0410196624971,526.7865556059584 629.0410196624972,526.7865556059587 632.1311896062471,517.2759904430072 635.2213595499961,526.7865556059589 643.3115294937459,520.9087030830344 646.4016994374956,511.39813792008295 643.3115294937459,520.9087030830344 635.2213595499966,515.0308505601095 638.3115294937463,505.5202853971579 646.4016994374961,499.6424328742334 636.4016994374961,499.6424328742331 639.4918693812458,490.13186771128164 629.4918693812458,490.1318677112813 637.5820393249954,484.2540151883568 645.6722092687448,490.1318677112818 642.5820393249955,480.62130254833016 632.5820393249955,480.6213025483298 624.4918693812458,486.4991550712543 616.4016994374961,492.3770075941788 624.4918693812458,486.4991550712543 621.4016994374966,476.98858990830263 629.491869381246,482.86644243122765 632.5820393249958,473.3558772682762 629.4918693812466,463.84531210532447" stroke="black" stroke-linecap="round" stroke-width="1" /><polyline clip-path="url(#border_clip)" fill="none" points="629.4918693812466,463.84531210532447 632.5820393249958,473.3558772682762 622.5820393249958,473.35587726827583 619.4918693812466,463.8453121053241 622.5820393249963,454.33474694237265 614.4918693812467,460.2125994652971 611.4016994374975,450.70203430234545 603.3115294937478,456.5798868252699 606.4016994374977,447.06932166231843 616.4016994374977,447.06932166231877 608.3115294937484,441.19146913939375 600.2213595499986,447.0693216623182 597.1311896062488,456.5798868252697 594.0410196624989,466.09045198822116 597.1311896062488,456.5798868252697 589.0410196624995,450.70203430234466 599.0410196624996,450.702034302345 595.9508497187504,441.1914691393933 587.8606797750011,435.31361661646827 595.9508497187504,441.1914691393933 587.8606797750007,447.06932166231775 579.7705098312514,441.1914691393927 576.6803398875022,431.680903976441 573.5901699437524,441.1914691393925 565.5000000000031,435.3136166164674 562.4098300562532,444.8241817794189 559.319660112504,435.3136166164672 567.4098300562538,429.43576409354273 557.4098300562538,429.4357640935424 554.3196601125039,438.94632925649387 557.4098300562531,448.4568944194456 560.5000000000022,457.9674595823973 557.4098300562531,448.4568944194456 547.409830056253,448.4568944194452 555.5000000000027,442.5790418965207 547.4098300562534,436.70118937359564 537.4098300562534,436.70118937359524 547.4098300562534,436.70118937359564 544.3196601125036,446.2117545365471 534.3196601125035,446.2117545365467 526.2294901687542,440.33390201362164 529.3196601125034,449.84446717657335 519.3196601125032,449.84446717657295" stroke="black" stroke-linecap="round" stroke-width="1" /><polyline clip-path="url(#border_clip)" fill="none" points="519.3196601125032,449.84446717657295 522.4098300562524,459.35503233952466 514.3196601125031,453.4771798165996 517.409830056253,443.96661465364815 509.31966011250324,449.8444671765726 512.4098300562523,459.3550323395243 520.5000000000016,465.2328848624494 528.5901699437509,471.1107373853745 520.5000000000016,465.2328848624494 512.4098300562518,471.1107373853738 515.5000000000018,461.6001722224224 505.5000000000017,461.600172222422 497.40983005625196,467.4780247453464 505.5000000000017,461.600172222422 508.5901699437508,471.1107373853737 500.500000000001,476.9885899082981 490.50000000000097,476.9885899082977 498.59016994375025,482.8664424312228 490.5000000000005,488.7442949541472 498.5901699437498,494.6221474770723 488.59016994374974,494.6221474770719 485.5000000000006,485.1115823141202 482.4098300562507,494.6221474770716 490.5,500.49999999999676 500.50000000000006,500.49999999999716" stroke="black" stroke-linecap="round" stroke-width="1" /></svg>