<?xml version="1.0" encoding="UTF-8"?>
<svg width="1e4px" height="1e4px" baseProfile="full" version="1.1" viewBox="4940 4887.8 505.97 528.76" xmlns="http://www.w3.org/2000/svg">
<defs>
<clipPath id="a">
<rect width="1e4" height="1e4"/>
</clipPath>
</defs>
<polyline points="5000.5 5000.5 5010.5 5000.5 5020.5 5000.5 5030.5 5000.5 5020.5 5000.5 5017.4 5010 5027.4 5010 5017.4 5010 5025.5 5004.1 5033.6 4998.3 5030.5 4988.7 5027.4 4979.2 5030.5 4969.7 5022.4 4975.6 5025.5 4985.1 5028.6 4975.6 5031.7 4966.1 5041.7 4966.1 5038.6 4956.6 5048.6 4956.6 5040.5 4962.5 5030.5 4962.5 5038.6 4956.6 5030.5 4950.7 5027.4 4960.2 5030.5 4950.7 5033.6 4941.2 5041.7 4947.1 5038.6 4956.6 5041.7 4947.1 5031.7 4947.1 5039.8 4952.9 5047.9 4958.8 5051 4949.3 5047.9 4939.8 5044.8 4949.3 5047.9 4958.8 5056 4952.9 5052.9 4962.5 5056 4972 5066 4972 5056 4972 5064 4966.1" clip-path="url(#a)" fill="none" stroke="#000" stroke-linecap="round"/>
<polyline points="5064 4966.1 5056 4972 5066 4972 5057.9 4966.1 5066 4972 5074 4977.8 5082.1 4972 5079 4981.5 5082.1 4991 5072.1 4991 5069 4981.5 5066 4972 5057.9 4966.1 5049.8 4960.2 5052.9 4969.7 5042.9 4969.7 5034.8 4975.6 5037.9 4985.1 5041 4994.6 5044 4985.1 5041 4975.6 5049 4969.7 5057.1 4975.6 5054 4966.1 5062.1 4960.2 5065.2 4950.7 5068.3 4960.2 5058.3 4960.2 5068.3 4960.2 5065.2 4950.7 5068.3 4941.2 5060.2 4935.3 5070.2 4935.3 5067.1 4944.8 5064 4954.3 5067.1 4963.8 5064 4954.3 5074 4954.3 5084 4954.3 5076 4960.2 5067.9 4954.3 5059.8 4948.5 5069.8 4948.5" clip-path="url(#a)" fill="none" stroke="#000" stroke-linecap="round"/>
<polyline points="5069.8 4948.5 5072.9 4938.9 5082.9 4938.9 5086 4929.4 5094 4935.3 5102.1 4929.4 5099 4919.9 5102.1 4929.4 5110.2 4935.3 5113.3 4925.8 5116.4 4916.3 5126.4 4916.3 5134.5 4922.2 5142.6 4928 5150.7 4933.9 5142.6 4928 5134.5 4933.9 5142.6 4939.8 5134.5 4933.9 5144.5 4933.9 5154.5 4933.9 5157.6 4924.4 5160.7 4914.9 5168.8 4909 5158.8 4909 5155.7 4918.5 5163.8 4912.7 5171.9 4906.8 5179.9 4912.7 5183 4903.1 5191.1 4909 5181.1 4909 5173 4903.1 5183 4903.1 5179.9 4893.6 5171.9 4899.5 5179.9 4893.6 5188 4887.8 5191.1 4897.3 5183 4903.1 5191.1 4897.3 5183 4891.4 5186.1 4900.9" clip-path="url(#a)" fill="none" stroke="#000" stroke-linecap="round"/>
<polyline points="5186.1 4900.9 5189.2 4910.4 5197.3 4904.5 5200.4 4895 5192.3 4900.9 5189.2 4910.4 5199.2 4910.4 5191.1 4916.3 5188 4925.8 5196.1 4931.7 5188 4925.8 5198 4925.8 5188 4925.8 5196.1 4931.7 5193 4922.2 5196.1 4931.7 5199.2 4941.2 5209.2 4941.2 5201.1 4947.1 5198 4956.6 5189.9 4950.7 5193 4941.2 5196.1 4931.7 5193 4922.2 5189.9 4912.7 5186.9 4922.2 5178.8 4916.3 5168.8 4916.3 5165.7 4925.8 5162.6 4935.3 5170.7 4929.4 5173.8 4919.9 5183.8 4919.9 5186.9 4929.4 5189.9 4919.9 5199.9 4919.9 5208 4914 5204.9 4923.6 5196.9 4917.7 5204.9 4923.6 5208 4914 5216.1 4908.2 5213 4898.7" clip-path="url(#a)" fill="none" stroke="#000" stroke-linecap="round"/>
<polyline points="5213 4898.7 5221.1 4904.5 5213 4910.4 5204.9 4916.3 5201.9 4925.8 5204.9 4916.3 5213 4922.2 5221.1 4928 5211.1 4928 5208 4918.5 5204.9 4909 5213 4914.9 5221.1 4909 5229.2 4914.9 5237.3 4909 5240.4 4918.5 5250.4 4918.5 5253.5 4909 5250.4 4918.5 5253.5 4928 5261.6 4922.2 5269.7 4916.3 5277.8 4922.2 5280.8 4931.7 5283.9 4941.2 5287 4950.7 5283.9 4941.2 5273.9 4941.2 5277 4950.7 5273.9 4941.2 5282 4947.1 5290.1 4952.9 5298.2 4947.1 5306.3 4941.2 5316.3 4941.2 5308.2 4935.3 5300.1 4941.2 5310.1 4941.2 5320.1 4941.2 5323.2 4950.7 5331.3 4944.8 5334.4 4954.3 5326.3 4948.5" clip-path="url(#a)" fill="none" stroke="#000" stroke-linecap="round"/>
<polyline points="5326.3 4948.5 5323.2 4938.9 5331.3 4944.8 5334.4 4935.3 5324.4 4935.3 5334.4 4935.3 5344.4 4935.3 5341.3 4944.8 5331.3 4944.8 5341.3 4944.8 5338.2 4935.3 5335.1 4944.8 5332 4954.3 5342 4954.3 5350.1 4948.5 5340.1 4948.5 5332 4954.3 5340.1 4960.2 5330.1 4960.2 5322 4966.1 5325.1 4975.6 5322 4966.1 5330.1 4972 5322 4966.1 5325.1 4975.6 5328.2 4966.1 5325.1 4975.6 5322 4985.1 5330.1 4991 5320.1 4991 5312 4996.9 5308.9 4987.4 5317 4981.5 5325.1 4975.6 5328.2 4966.1 5331.3 4956.6 5323.2 4962.5 5320.1 4952.9 5312 4947.1 5303.9 4952.9 5295.8 4958.8 5305.8 4958.8 5313.9 4952.9" clip-path="url(#a)" fill="none" stroke="#000" stroke-linecap="round"/>
<polyline points="5313.9 4952.9 5322 4958.8 5318.9 4968.3 5327 4962.5 5335.1 4968.3 5345.1 4968.3 5337 4974.2 5333.9 4964.7 5337 4974.2 5345.1 4968.3 5355.1 4968.3 5358.2 4958.8 5361.3 4968.3 5351.3 4968.3 5341.3 4968.3 5333.2 4974.2 5341.3 4968.3 5344.4 4977.8 5347.5 4987.4 5339.4 4981.5 5342.5 4972 5345.6 4962.5 5348.7 4972 5358.7 4972 5361.7 4981.5 5371.7 4981.5 5368.7 4991 5376.7 4996.9 5384.8 4991 5376.7 4996.9 5373.7 5006.4 5383.7 5006.4 5393.7 5006.4 5396.7 5015.9 5393.7 5025.4 5390.6 5034.9 5387.5 5044.4 5390.6 5034.9 5382.5 5029 5379.4 5038.5 5382.5 5029 5385.6 5038.5 5388.7 5048.1" clip-path="url(#a)" fill="none" stroke="#000" stroke-linecap="round"/>
<polyline points="5388.7 5048.1 5398.7 5048.1 5408.7 5048.1 5416.7 5053.9 5413.7 5044.4 5403.7 5044.4 5411.7 5050.3 5419.8 5056.2 5416.7 5065.7 5426.7 5065.7 5423.7 5075.2 5420.6 5065.7 5423.7 5056.2 5426.7 5065.7 5434.8 5059.8 5426.7 5053.9 5434.8 5059.8 5442.9 5065.7 5434.8 5071.6 5426.7 5065.7 5434.8 5071.6 5437.9 5062.1 5429.8 5067.9 5421.7 5073.8 5429.8 5079.7 5439.8 5079.7 5431.7 5073.8 5421.7 5073.8 5424.8 5083.3 5416.7 5077.4 5406.7 5077.4 5403.7 5087 5406.7 5077.4 5409.8 5087 5406.7 5077.4 5403.7 5087 5411.7 5081.1 5403.7 5087 5395.6 5092.8 5398.7 5102.3 5390.6 5096.5 5380.6 5096.5 5383.7 5087" clip-path="url(#a)" fill="none" stroke="#000" stroke-linecap="round"/>
<polyline points="5383.7 5087 5393.7 5087 5403.7 5087 5411.7 5081.1 5419.8 5075.2 5409.8 5075.2 5412.9 5065.7 5409.8 5056.2 5399.8 5056.2 5389.8 5056.2 5397.9 5062.1 5407.9 5062.1 5411 5071.6 5402.9 5077.4 5412.9 5077.4 5416 5087 5424.1 5092.8 5414.1 5092.8 5417.2 5083.3 5414.1 5092.8 5424.1 5092.8 5432.2 5098.7 5440.3 5092.8 5437.2 5102.3 5429.1 5096.5 5421 5090.6 5411 5090.6 5421 5090.6 5417.9 5100.1 5414.8 5109.6 5411.7 5100.1 5419.8 5094.2 5427.9 5088.3 5424.8 5097.9 5432.9 5103.7 5429.8 5113.2 5437.9 5119.1 5429.8 5125 5432.9 5134.5 5442.9 5134.5 5432.9 5134.5 5424.8 5140.4 5432.9 5146.3" clip-path="url(#a)" fill="none" stroke="#000" stroke-linecap="round"/>
<polyline points="5432.9 5146.3 5441 5152.1 5437.9 5161.6 5429.8 5167.5 5421.7 5173.4 5413.7 5179.3 5421.7 5173.4 5418.7 5163.9 5410.6 5169.8 5418.7 5163.9 5415.6 5173.4 5412.5 5182.9 5420.6 5188.8 5428.7 5194.7 5431.7 5204.2 5434.8 5194.7 5426.7 5188.8 5429.8 5198.3 5432.9 5207.8 5424.8 5213.7 5432.9 5219.6 5424.8 5225.4 5427.9 5215.9 5436 5210.1 5432.9 5219.6 5442.9 5219.6 5439.8 5210.1 5442.9 5219.6 5446 5229.1 5436 5229.1 5432.9 5219.6 5436 5229.1 5444.1 5223.2 5434.1 5223.2 5424.1 5223.2 5427.2 5232.7 5435.3 5238.6 5432.2 5229.1 5424.1 5223.2 5421 5232.7 5417.9 5223.2 5409.8 5217.3 5401.7 5223.2" clip-path="url(#a)" fill="none" stroke="#000" stroke-linecap="round"/>
<polyline points="5401.7 5223.2 5409.8 5217.3 5406.7 5226.8 5409.8 5217.3 5401.7 5223.2 5411.7 5223.2 5401.7 5223.2 5391.7 5223.2 5388.7 5232.7 5385.6 5223.2 5377.5 5217.3 5385.6 5211.4 5393.7 5217.3 5401.7 5223.2 5411.7 5223.2 5421.7 5223.2 5413.7 5217.3 5421.7 5211.4 5424.8 5201.9 5416.7 5196.1 5408.7 5190.2 5411.7 5199.7 5419.8 5205.6 5416.7 5215.1 5406.7 5215.1 5414.8 5221 5411.7 5230.5 5414.8 5240 5406.7 5234.1 5414.8 5228.2 5406.7 5234.1 5414.8 5240 5417.9 5249.5 5427.9 5249.5 5419.8 5255.4 5416.7 5245.9 5413.7 5236.3 5405.6 5230.5 5413.7 5236.3 5405.6 5242.2 5397.5 5248.1 5400.6 5238.6 5410.6 5238.6" clip-path="url(#a)" fill="none" stroke="#000" stroke-linecap="round"/>
<polyline points="5410.6 5238.6 5420.6 5238.6 5412.5 5244.5 5415.6 5254 5407.5 5259.9 5410.6 5269.4 5400.6 5269.4 5397.5 5278.9 5405.6 5284.8 5397.5 5278.9 5387.5 5278.9 5390.6 5288.4 5393.7 5297.9 5385.6 5303.8 5375.6 5303.8 5365.6 5303.8 5355.6 5303.8 5365.6 5303.8 5368.7 5294.3 5358.7 5294.3 5368.7 5294.3 5360.6 5300.1 5352.5 5306 5355.6 5315.5 5358.7 5325 5355.6 5334.6 5363.7 5328.7 5360.6 5319.2 5357.5 5328.7 5354.4 5338.2 5344.4 5338.2 5347.5 5347.7 5337.5 5347.7 5345.6 5341.8 5355.6 5341.8 5347.5 5347.7 5355.6 5353.6 5358.7 5344.1 5355.6 5353.6 5352.5 5363.1 5344.4 5357.2 5347.5 5347.7 5344.4 5357.2" clip-path="url(#a)" fill="none" stroke="#000" stroke-linecap="round"/>
<polyline points="5344.4 5357.2 5354.4 5357.2 5346.3 5351.3 5338.2 5345.5 5335.1 5355 5338.2 5364.5 5341.3 5355 5338.2 5345.5 5330.1 5351.3 5333.2 5341.8 5330.1 5332.3 5320.1 5332.3 5330.1 5332.3 5322 5338.2 5330.1 5332.3 5320.1 5332.3 5328.2 5338.2 5320.1 5332.3 5312 5326.4 5303.9 5332.3 5307 5322.8 5303.9 5313.3 5313.9 5313.3 5317 5322.8 5320.1 5332.3 5328.2 5338.2 5336.3 5344.1 5333.2 5334.6 5343.2 5334.6 5351.3 5328.7 5348.2 5319.2 5345.1 5309.7 5342 5319.2 5345.1 5328.7 5337 5334.6 5328.9 5328.7 5332 5338.2 5323.9 5344.1 5320.8 5353.6 5317.8 5344.1 5327.8 5344.1 5317.8 5344.1 5320.8 5353.6" clip-path="url(#a)" fill="none" stroke="#000" stroke-linecap="round"/>
<polyline points="5320.8 5353.6 5317.8 5363.1 5325.8 5369 5315.8 5369 5318.9 5359.5 5322 5349.9 5318.9 5340.4 5322 5349.9 5312 5349.9 5302 5349.9 5310.1 5344.1 5318.2 5349.9 5326.3 5355.8 5316.3 5355.8 5313.2 5365.3 5303.2 5365.3 5300.1 5374.8 5292 5369 5283.9 5374.8 5287 5384.4 5283.9 5374.8 5275.8 5369 5272.8 5378.5 5269.7 5388 5259.7 5388 5251.6 5382.1 5243.5 5376.2 5235.4 5370.4 5243.5 5376.2 5251.6 5370.4 5243.5 5364.5 5251.6 5370.4 5241.6 5370.4 5231.6 5370.4 5228.5 5379.9 5225.4 5389.4 5217.3 5395.3 5227.3 5395.3 5230.4 5385.7 5222.3 5391.6 5214.2 5397.5 5206.1 5391.6 5203 5401.1" clip-path="url(#a)" fill="none" stroke="#000" stroke-linecap="round"/>
<polyline points="5203 5401.1 5194.9 5395.3 5204.9 5395.3 5213 5401.1 5203 5401.1 5206.1 5410.6 5214.2 5404.8 5206.1 5410.6 5198 5416.5 5194.9 5407 5203 5401.1 5194.9 5407 5203 5412.9 5199.9 5403.4 5196.9 5393.9 5188.8 5399.7 5185.7 5409.3 5193.8 5403.4 5196.9 5393.9 5186.9 5393.9 5194.9 5388 5198 5378.5 5189.9 5372.6 5198 5378.5 5188 5378.5 5198 5378.5 5189.9 5372.6 5193 5382.1 5189.9 5372.6 5186.9 5363.1 5176.9 5363.1 5184.9 5357.2 5188 5347.7 5196.1 5353.6 5193 5363.1 5189.9 5372.6 5193 5382.1 5196.1 5391.6 5199.2 5382.1 5207.3 5388 5217.3 5388 5220.4 5378.5 5223.5 5369" clip-path="url(#a)" fill="none" stroke="#000" stroke-linecap="round"/>
<polyline points="5223.5 5369 5215.4 5374.8 5212.3 5384.4 5202.3 5384.4 5199.2 5374.8 5196.1 5384.4 5186.1 5384.4 5178 5390.2 5181.1 5380.7 5189.2 5386.6 5181.1 5380.7 5178 5390.2 5169.9 5396.1 5173 5405.6 5164.9 5399.7 5173 5393.9 5181.1 5388 5184.2 5378.5 5181.1 5388 5173 5382.1 5164.9 5376.2 5174.9 5376.2 5178 5385.7 5181.1 5395.3 5173 5389.4 5164.9 5395.3 5156.9 5389.4 5148.8 5395.3 5145.7 5385.7 5135.7 5385.7 5132.6 5395.3 5135.7 5385.7 5132.6 5376.2 5124.5 5382.1 5116.4 5388 5108.3 5382.1 5105.2 5372.6 5102.1 5363.1 5099 5353.6 5102.1 5363.1 5112.1 5363.1 5109 5353.6 5112.1 5363.1" clip-path="url(#a)" fill="none" stroke="#000" stroke-linecap="round"/>
<polyline points="5112.1 5363.1 5104 5357.2 5096 5351.3 5087.9 5357.2 5079.8 5363.1 5069.8 5363.1 5077.9 5369 5086 5363.1 5076 5363.1 5066 5363.1 5062.9 5353.6 5054.8 5359.5 5051.7 5349.9 5059.8 5355.8 5062.9 5365.3 5054.8 5359.5 5051.7 5369 5061.7 5369 5051.7 5369 5041.7 5369 5044.8 5359.5 5054.8 5359.5 5044.8 5359.5 5047.9 5369 5051 5359.5 5054 5349.9 5044 5349.9 5036 5355.8 5046 5355.8 5054 5349.9 5046 5344.1 5056 5344.1 5064 5338.2 5061 5328.7 5064 5338.2 5056 5332.3 5064 5338.2 5061 5328.7 5057.9 5338.2 5061 5328.7 5064 5319.2 5056 5313.3 5066 5313.3" clip-path="url(#a)" fill="none" stroke="#000" stroke-linecap="round"/>
<polyline points="5066 5313.3 5074 5307.4 5077.1 5316.9 5069 5322.8 5061 5328.7 5057.9 5338.2 5054.8 5347.7 5062.9 5341.8 5066 5351.3 5074 5357.2 5082.1 5351.3 5090.2 5345.5 5080.2 5345.5 5072.1 5351.3 5064 5345.5 5067.1 5335.9 5059 5341.8 5051 5335.9 5041 5335.9 5049 5330.1 5052.1 5339.6 5049 5330.1 5041 5335.9 5031 5335.9 5027.9 5345.5 5024.8 5335.9 5034.8 5335.9 5044.8 5335.9 5052.9 5330.1 5044.8 5335.9 5041.7 5326.4 5038.6 5316.9 5046.7 5322.8 5043.6 5332.3 5040.5 5341.8 5037.4 5332.3 5027.4 5332.3 5024.3 5322.8 5014.3 5322.8 5017.4 5313.3 5009.3 5307.4 5001.2 5313.3 5009.3 5307.4" clip-path="url(#a)" fill="none" stroke="#000" stroke-linecap="round"/>
<polyline points="5009.3 5307.4 5012.4 5297.9 5002.4 5297.9 4992.4 5297.9 4989.3 5288.4 4992.4 5278.9 4995.5 5269.4 4998.6 5259.9 4995.5 5269.4 5003.6 5275.2 5006.7 5265.7 5003.6 5275.2 5000.5 5265.7 4997.4 5256.2 4987.4 5256.2 4977.4 5256.2 4969.3 5250.3 4972.4 5259.9 4982.4 5259.9 4974.3 5254 4966.2 5248.1 4969.3 5238.6 4959.3 5238.6 4962.4 5229.1 4965.5 5238.6 4962.4 5248.1 4959.3 5238.6 4951.2 5244.5 4959.3 5250.3 4951.2 5244.5 4943.1 5238.6 4951.2 5232.7 4959.3 5238.6 4951.2 5232.7 4948.1 5242.2 4956.2 5236.3 4964.3 5230.5 4956.2 5224.6 4946.2 5224.6 4954.3 5230.5 4964.3 5230.5 4961.2 5221 4969.3 5226.8" clip-path="url(#a)" fill="none" stroke="#000" stroke-linecap="round"/>
<polyline points="4969.3 5226.8 4979.3 5226.8 4982.4 5217.3 4979.3 5226.8 4976.2 5217.3 4979.3 5226.8 4982.4 5217.3 4974.3 5223.2 4982.4 5217.3 4990.5 5211.4 4987.4 5201.9 4995.5 5207.8 5005.5 5207.8 5002.4 5217.3 4992.4 5217.3 4982.4 5217.3 4974.3 5223.2 4966.2 5229.1 4976.2 5229.1 4973.1 5238.6 4976.2 5248.1 4986.2 5248.1 4996.2 5248.1 4988.1 5242.2 4978.1 5242.2 4975 5232.7 4983.1 5226.8 4973.1 5226.8 4970 5217.3 4962 5211.4 4972 5211.4 4968.9 5221 4972 5211.4 4962 5211.4 4953.9 5205.6 4945.8 5211.4 4948.9 5201.9 4957 5207.8 4965 5213.7 4975 5213.7 4965 5213.7 4968.1 5204.2 4971.2 5194.7" clip-path="url(#a)" fill="none" stroke="#000" stroke-linecap="round"/>
<polyline points="4971.2 5194.7 4974.3 5204.2 4966.2 5210.1 4958.1 5215.9 4961.2 5206.4 4953.1 5200.5 4956.2 5191 4948.1 5185.2 4956.2 5179.3 4953.1 5169.8 4943.1 5169.8 4953.1 5169.8 4961.2 5163.9 4953.1 5158 4945 5152.1 4948.1 5142.6 4956.2 5136.8 4964.3 5130.9 4972.4 5125 4964.3 5130.9 4967.4 5140.4 4975.5 5134.5 4967.4 5140.4 4970.5 5130.9 4973.6 5121.4 4965.5 5115.5 4957.4 5109.6 4954.3 5100.1 4951.2 5109.6 4959.3 5115.5 4956.2 5106 4953.1 5096.5 4961.2 5090.6 4953.1 5084.7 4961.2 5078.8 4958.1 5088.3 4950 5094.2 4953.1 5084.7 4943.1 5084.7 4946.2 5094.2 4943.1 5084.7 4940 5075.2 4950 5075.2" clip-path="url(#a)" fill="none" stroke="#000" stroke-linecap="round"/>
<polyline points="4950 5075.2 4953.1 5084.7 4950 5075.2 4942 5081.1 4952 5081.1 4962 5081.1 4958.9 5071.6 4950.8 5065.7 4953.9 5075.2 4962 5081.1 4965 5071.6 4968.1 5081.1 4976.2 5087 4984.3 5081.1 4976.2 5087 4979.3 5077.4 4976.2 5087 4984.3 5081.1 4974.3 5081.1 4984.3 5081.1 4994.3 5081.1 4997.4 5071.6 5000.5 5081.1 5008.6 5087 5000.5 5092.8 4992.4 5087 4984.3 5081.1 4974.3 5081.1 4964.3 5081.1 4972.4 5087 4964.3 5092.8 4961.2 5102.3 4969.3 5108.2 4977.4 5114.1 4974.3 5104.6 4966.2 5098.7 4969.3 5089.2 4979.3 5089.2 4971.2 5083.3 4974.3 5073.8 4971.2 5064.3 4979.3 5070.2 4971.2 5076.1" clip-path="url(#a)" fill="none" stroke="#000" stroke-linecap="round"/>
<polyline points="4971.2 5076.1 4979.3 5070.2 4971.2 5064.3 4968.1 5054.8 4958.1 5054.8 4966.2 5048.9 4969.3 5058.4 4972.4 5067.9 4980.5 5073.8 4972.4 5067.9 4980.5 5062.1 4988.6 5056.2 4985.5 5065.7 4975.5 5065.7 4965.5 5065.7 4973.6 5059.8 4970.5 5050.3 4978.6 5044.4 4975.5 5034.9 4985.5 5034.9 4988.6 5025.4 4980.5 5019.5 4988.6 5025.4 4998.6 5025.4 4995.5 5015.9 4992.4 5006.4 5000.5 5000.5 5010.5 5000.5 5020.5 5000.5 5030.5 5000.5 5020.5 5000.5 5017.4 5010 5027.4 5010 5017.4 5010 5025.5 5004.1 5033.6 4998.3 5030.5 4988.7 5027.4 4979.2 5030.5 4969.7 5022.4 4975.6 5025.5 4985.1 5028.6 4975.6 5031.7 4966.1" clip-path="url(#a)" fill="none" stroke="#000" stroke-linecap="round"/>
<polyline points="5031.7 4966.1 5041.7 4966.1 5038.6 4956.6 5048.6 4956.6 5040.5 4962.5 5030.5 4962.5 5038.6 4956.6 5030.5 4950.7 5027.4 4960.2 5030.5 4950.7 5033.6 4941.2 5041.7 4947.1 5038.6 4956.6 5041.7 4947.1 5031.7 4947.1 5039.8 4952.9 5047.9 4958.8 5051 4949.3 5047.9 4939.8 5044.8 4949.3 5047.9 4958.8 5056 4952.9 5052.9 4962.5 5056 4972 5066 4972 5056 4972 5064 4966.1 5056 4972 5066 4972 5057.9 4966.1 5066 4972 5074 4977.8 5082.1 4972 5079 4981.5 5082.1 4991 5072.1 4991 5069 4981.5 5066 4972 5057.9 4966.1 5049.8 4960.2 5052.9 4969.7 5042.9 4969.7 5034.8 4975.6" clip-path="url(#a)" fill="none" stroke="#000" stroke-linecap="round"/>
<polyline points="5034.8 4975.6 5037.9 4985.1 5041 4994.6 5044 4985.1 5041 4975.6 5049 4969.7 5057.1 4975.6 5054 4966.1 5062.1 4960.2 5065.2 4950.7 5068.3 4960.2 5058.3 4960.2 5068.3 4960.2 5065.2 4950.7 5068.3 4941.2 5060.2 4935.3 5070.2 4935.3 5067.1 4944.8 5064 4954.3 5067.1 4963.8 5064 4954.3 5074 4954.3 5084 4954.3 5076 4960.2 5067.9 4954.3 5059.8 4948.5 5069.8 4948.5 5072.9 4938.9 5082.9 4938.9 5086 4929.4 5094 4935.3 5102.1 4929.4 5099 4919.9 5102.1 4929.4 5110.2 4935.3 5113.3 4925.8 5116.4 4916.3 5126.4 4916.3 5134.5 4922.2 5142.6 4928 5150.7 4933.9 5142.6 4928 5134.5 4933.9" clip-path="url(#a)" fill="none" stroke="#000" stroke-linecap="round"/>
<polyline points="5134.5 4933.9 5142.6 4939.8 5134.5 4933.9 5144.5 4933.9 5154.5 4933.9 5157.6 4924.4 5160.7 4914.9 5168.8 4909 5158.8 4909 5155.7 4918.5 5163.8 4912.7 5171.9 4906.8 5179.9 4912.7 5183 4903.1 5191.1 4909 5181.1 4909 5173 4903.1 5183 4903.1 5179.9 4893.6 5171.9 4899.5 5179.9 4893.6 5188 4887.8 5191.1 4897.3 5183 4903.1 5191.1 4897.3 5183 4891.4 5186.1 4900.9 5189.2 4910.4 5197.3 4904.5 5200.4 4895 5192.3 4900.9 5189.2 4910.4 5199.2 4910.4 5191.1 4916.3 5188 4925.8 5196.1 4931.7 5188 4925.8 5198 4925.8 5188 4925.8 5196.1 4931.7 5193 4922.2 5196.1 4931.7 5199.2 4941.2" clip-path="url(#a)" fill="none" stroke="#000" stroke-linecap="round"/>
<polyline points="5199.2 4941.2 5209.2 4941.2 5201.1 4947.1 5198 4956.6 5189.9 4950.7 5193 4941.2 5196.1 4931.7 5193 4922.2 5189.9 4912.7 5186.9 4922.2 5178.8 4916.3 5168.8 4916.3 5165.7 4925.8 5162.6 4935.3 5170.7 4929.4 5173.8 4919.9 5183.8 4919.9 5186.9 4929.4 5189.9 4919.9 5199.9 4919.9 5208 4914 5204.9 4923.6 5196.9 4917.7 5204.9 4923.6 5208 4914 5216.1 4908.2 5213 4898.7 5221.1 4904.5 5213 4910.4 5204.9 4916.3 5201.9 4925.8 5204.9 4916.3 5213 4922.2 5221.1 4928 5211.1 4928 5208 4918.5 5204.9 4909 5213 4914.9 5221.1 4909 5229.2 4914.9 5237.3 4909 5240.4 4918.5 5250.4 4918.5" clip-path="url(#a)" fill="none" stroke="#000" stroke-linecap="round"/>
<polyline points="5250.4 4918.5 5253.5 4909 5250.4 4918.5 5253.5 4928 5261.6 4922.2 5269.7 4916.3 5277.8 4922.2 5280.8 4931.7 5283.9 4941.2 5287 4950.7 5283.9 4941.2 5273.9 4941.2 5277 4950.7 5273.9 4941.2 5282 4947.1 5290.1 4952.9 5298.2 4947.1 5306.3 4941.2 5316.3 4941.2 5308.2 4935.3 5300.1 4941.2 5310.1 4941.2 5320.1 4941.2 5323.2 4950.7 5331.3 4944.8 5334.4 4954.3 5326.3 4948.5 5323.2 4938.9 5331.3 4944.8 5334.4 4935.3 5324.4 4935.3 5334.4 4935.3 5344.4 4935.3 5341.3 4944.8 5331.3 4944.8 5341.3 4944.8 5338.2 4935.3 5335.1 4944.8 5332 4954.3 5342 4954.3 5350.1 4948.5 5340.1 4948.5 5332 4954.3" clip-path="url(#a)" fill="none" stroke="#000" stroke-linecap="round"/>
<polyline points="5332 4954.3 5340.1 4960.2 5330.1 4960.2 5322 4966.1 5325.1 4975.6 5322 4966.1 5330.1 4972 5322 4966.1 5325.1 4975.6 5328.2 4966.1 5325.1 4975.6 5322 4985.1 5330.1 4991 5320.1 4991 5312 4996.9 5308.9 4987.4 5317 4981.5 5325.1 4975.6 5328.2 4966.1 5331.3 4956.6 5323.2 4962.5 5320.1 4952.9 5312 4947.1 5303.9 4952.9 5295.8 4958.8 5305.8 4958.8 5313.9 4952.9 5322 4958.8 5318.9 4968.3 5327 4962.5 5335.1 4968.3 5345.1 4968.3 5337 4974.2 5333.9 4964.7 5337 4974.2 5345.1 4968.3 5355.1 4968.3 5358.2 4958.8 5361.3 4968.3 5351.3 4968.3 5341.3 4968.3 5333.2 4974.2 5341.3 4968.3" clip-path="url(#a)" fill="none" stroke="#000" stroke-linecap="round"/>
<polyline points="5341.3 4968.3 5344.4 4977.8 5347.5 4987.4 5339.4 4981.5 5342.5 4972 5345.6 4962.5 5348.7 4972 5358.7 4972 5361.7 4981.5 5371.7 4981.5 5368.7 4991 5376.7 4996.9 5384.8 4991 5376.7 4996.9 5373.7 5006.4 5383.7 5006.4 5393.7 5006.4 5396.7 5015.9 5393.7 5025.4 5390.6 5034.9 5387.5 5044.4 5390.6 5034.9 5382.5 5029 5379.4 5038.5 5382.5 5029 5385.6 5038.5 5388.7 5048.1 5398.7 5048.1 5408.7 5048.1 5416.7 5053.9 5413.7 5044.4 5403.7 5044.4 5411.7 5050.3 5419.8 5056.2 5416.7 5065.7 5426.7 5065.7 5423.7 5075.2 5420.6 5065.7 5423.7 5056.2 5426.7 5065.7 5434.8 5059.8 5426.7 5053.9 5434.8 5059.8" clip-path="url(#a)" fill="none" stroke="#000" stroke-linecap="round"/>
<polyline points="5434.8 5059.8 5442.9 5065.7 5434.8 5071.6 5426.7 5065.7 5434.8 5071.6 5437.9 5062.1 5429.8 5067.9 5421.7 5073.8 5429.8 5079.7 5439.8 5079.7 5431.7 5073.8 5421.7 5073.8 5424.8 5083.3 5416.7 5077.4 5406.7 5077.4 5403.7 5087 5406.7 5077.4 5409.8 5087 5406.7 5077.4 5403.7 5087 5411.7 5081.1 5403.7 5087 5395.6 5092.8 5398.7 5102.3 5390.6 5096.5 5380.6 5096.5 5383.7 5087 5393.7 5087 5403.7 5087 5411.7 5081.1 5419.8 5075.2 5409.8 5075.2 5412.9 5065.7 5409.8 5056.2 5399.8 5056.2 5389.8 5056.2 5397.9 5062.1 5407.9 5062.1 5411 5071.6 5402.9 5077.4 5412.9 5077.4 5416 5087 5424.1 5092.8" clip-path="url(#a)" fill="none" stroke="#000" stroke-linecap="round"/>
<polyline points="5424.1 5092.8 5414.1 5092.8 5417.2 5083.3 5414.1 5092.8 5424.1 5092.8 5432.2 5098.7 5440.3 5092.8 5437.2 5102.3 5429.1 5096.5 5421 5090.6 5411 5090.6 5421 5090.6 5417.9 5100.1 5414.8 5109.6 5411.7 5100.1 5419.8 5094.2 5427.9 5088.3 5424.8 5097.9 5432.9 5103.7 5429.8 5113.2 5437.9 5119.1 5429.8 5125 5432.9 5134.5 5442.9 5134.5 5432.9 5134.5 5424.8 5140.4 5432.9 5146.3 5441 5152.1 5437.9 5161.6 5429.8 5167.5 5421.7 5173.4 5413.7 5179.3 5421.7 5173.4 5418.7 5163.9 5410.6 5169.8 5418.7 5163.9 5415.6 5173.4 5412.5 5182.9 5420.6 5188.8 5428.7 5194.7 5431.7 5204.2 5434.8 5194.7 5426.7 5188.8" clip-path="url(#a)" fill="none" stroke="#000" stroke-linecap="round"/>
<polyline points="5426.7 5188.8 5429.8 5198.3 5432.9 5207.8 5424.8 5213.7 5432.9 5219.6 5424.8 5225.4 5427.9 5215.9 5436 5210.1 5432.9 5219.6 5442.9 5219.6 5439.8 5210.1 5442.9 5219.6 5446 5229.1 5436 5229.1 5432.9 5219.6 5436 5229.1 5444.1 5223.2 5434.1 5223.2 5424.1 5223.2 5427.2 5232.7 5435.3 5238.6 5432.2 5229.1 5424.1 5223.2 5421 5232.7 5417.9 5223.2 5409.8 5217.3 5401.7 5223.2 5409.8 5217.3 5406.7 5226.8 5409.8 5217.3 5401.7 5223.2 5411.7 5223.2 5401.7 5223.2 5391.7 5223.2 5388.7 5232.7 5385.6 5223.2 5377.5 5217.3 5385.6 5211.4 5393.7 5217.3 5401.7 5223.2 5411.7 5223.2 5421.7 5223.2 5413.7 5217.3" clip-path="url(#a)" fill="none" stroke="#000" stroke-linecap="round"/>
<polyline points="5413.7 5217.3 5421.7 5211.4 5424.8 5201.9 5416.7 5196.1 5408.7 5190.2 5411.7 5199.7 5419.8 5205.6 5416.7 5215.1 5406.7 5215.1 5414.8 5221 5411.7 5230.5 5414.8 5240 5406.7 5234.1 5414.8 5228.2 5406.7 5234.1 5414.8 5240 5417.9 5249.5 5427.9 5249.5 5419.8 5255.4 5416.7 5245.9 5413.7 5236.3 5405.6 5230.5 5413.7 5236.3 5405.6 5242.2 5397.5 5248.1 5400.6 5238.6 5410.6 5238.6 5420.6 5238.6 5412.5 5244.5 5415.6 5254 5407.5 5259.9 5410.6 5269.4 5400.6 5269.4 5397.5 5278.9 5405.6 5284.8 5397.5 5278.9 5387.5 5278.9 5390.6 5288.4 5393.7 5297.9 5385.6 5303.8 5375.6 5303.8 5365.6 5303.8 5355.6 5303.8" clip-path="url(#a)" fill="none" stroke="#000" stroke-linecap="round"/>
<polyline points="5355.6 5303.8 5365.6 5303.8 5368.7 5294.3 5358.7 5294.3 5368.7 5294.3 5360.6 5300.1 5352.5 5306 5355.6 5315.5 5358.7 5325 5355.6 5334.6 5363.7 5328.7 5360.6 5319.2 5357.5 5328.7 5354.4 5338.2 5344.4 5338.2 5347.5 5347.7 5337.5 5347.7 5345.6 5341.8 5355.6 5341.8 5347.5 5347.7 5355.6 5353.6 5358.7 5344.1 5355.6 5353.6 5352.5 5363.1 5344.4 5357.2 5347.5 5347.7 5344.4 5357.2 5354.4 5357.2 5346.3 5351.3 5338.2 5345.5 5335.1 5355 5338.2 5364.5 5341.3 5355 5338.2 5345.5 5330.1 5351.3 5333.2 5341.8 5330.1 5332.3 5320.1 5332.3 5330.1 5332.3 5322 5338.2 5330.1 5332.3 5320.1 5332.3 5328.2 5338.2" clip-path="url(#a)" fill="none" stroke="#000" stroke-linecap="round"/>
<polyline points="5328.2 5338.2 5320.1 5332.3 5312 5326.4 5303.9 5332.3 5307 5322.8 5303.9 5313.3 5313.9 5313.3 5317 5322.8 5320.1 5332.3 5328.2 5338.2 5336.3 5344.1 5333.2 5334.6 5343.2 5334.6 5351.3 5328.7 5348.2 5319.2 5345.1 5309.7 5342 5319.2 5345.1 5328.7 5337 5334.6 5328.9 5328.7 5332 5338.2 5323.9 5344.1 5320.8 5353.6 5317.8 5344.1 5327.8 5344.1 5317.8 5344.1 5320.8 5353.6 5317.8 5363.1 5325.8 5369 5315.8 5369 5318.9 5359.5 5322 5349.9 5318.9 5340.4 5322 5349.9 5312 5349.9 5302 5349.9 5310.1 5344.1 5318.2 5349.9 5326.3 5355.8 5316.3 5355.8 5313.2 5365.3 5303.2 5365.3 5300.1 5374.8" clip-path="url(#a)" fill="none" stroke="#000" stroke-linecap="round"/>
<polyline points="5300.1 5374.8 5292 5369 5283.9 5374.8 5287 5384.4 5283.9 5374.8 5275.8 5369 5272.8 5378.5 5269.7 5388 5259.7 5388 5251.6 5382.1 5243.5 5376.2 5235.4 5370.4 5243.5 5376.2 5251.6 5370.4 5243.5 5364.5 5251.6 5370.4 5241.6 5370.4 5231.6 5370.4 5228.5 5379.9 5225.4 5389.4 5217.3 5395.3 5227.3 5395.3 5230.4 5385.7 5222.3 5391.6 5214.2 5397.5 5206.1 5391.6 5203 5401.1 5194.9 5395.3 5204.9 5395.3 5213 5401.1 5203 5401.1 5206.1 5410.6 5214.2 5404.8 5206.1 5410.6 5198 5416.5 5194.9 5407 5203 5401.1 5194.9 5407 5203 5412.9 5199.9 5403.4 5196.9 5393.9 5188.8 5399.7 5185.7 5409.3" clip-path="url(#a)" fill="none" stroke="#000" stroke-linecap="round"/>
<polyline points="5185.7 5409.3 5193.8 5403.4 5196.9 5393.9 5186.9 5393.9 5194.9 5388 5198 5378.5 5189.9 5372.6 5198 5378.5 5188 5378.5 5198 5378.5 5189.9 5372.6 5193 5382.1 5189.9 5372.6 5186.9 5363.1 5176.9 5363.1 5184.9 5357.2 5188 5347.7 5196.1 5353.6 5193 5363.1 5189.9 5372.6 5193 5382.1 5196.1 5391.6 5199.2 5382.1 5207.3 5388 5217.3 5388 5220.4 5378.5 5223.5 5369 5215.4 5374.8 5212.3 5384.4 5202.3 5384.4 5199.2 5374.8 5196.1 5384.4 5186.1 5384.4 5178 5390.2 5181.1 5380.7 5189.2 5386.6 5181.1 5380.7 5178 5390.2 5169.9 5396.1 5173 5405.6 5164.9 5399.7 5173 5393.9 5181.1 5388" clip-path="url(#a)" fill="none" stroke="#000" stroke-linecap="round"/>
<polyline points="5181.1 5388 5184.2 5378.5 5181.1 5388 5173 5382.1 5164.9 5376.2 5174.9 5376.2 5178 5385.7 5181.1 5395.3 5173 5389.4 5164.9 5395.3 5156.9 5389.4 5148.8 5395.3 5145.7 5385.7 5135.7 5385.7 5132.6 5395.3 5135.7 5385.7 5132.6 5376.2 5124.5 5382.1 5116.4 5388 5108.3 5382.1 5105.2 5372.6 5102.1 5363.1 5099 5353.6 5102.1 5363.1 5112.1 5363.1 5109 5353.6 5112.1 5363.1 5104 5357.2 5096 5351.3 5087.9 5357.2 5079.8 5363.1 5069.8 5363.1 5077.9 5369 5086 5363.1 5076 5363.1 5066 5363.1 5062.9 5353.6 5054.8 5359.5 5051.7 5349.9 5059.8 5355.8 5062.9 5365.3 5054.8 5359.5 5051.7 5369" clip-path="url(#a)" fill="none" stroke="#000" stroke-linecap="round"/>
<polyline points="5051.7 5369 5061.7 5369 5051.7 5369 5041.7 5369 5044.8 5359.5 5054.8 5359.5 5044.8 5359.5 5047.9 5369 5051 5359.5 5054 5349.9 5044 5349.9 5036 5355.8 5046 5355.8 5054 5349.9 5046 5344.1 5056 5344.1 5064 5338.2 5061 5328.7 5064 5338.2 5056 5332.3 5064 5338.2 5061 5328.7 5057.9 5338.2 5061 5328.7 5064 5319.2 5056 5313.3 5066 5313.3 5074 5307.4 5077.1 5316.9 5069 5322.8 5061 5328.7 5057.9 5338.2 5054.8 5347.7 5062.9 5341.8 5066 5351.3 5074 5357.2 5082.1 5351.3 5090.2 5345.5 5080.2 5345.5 5072.1 5351.3 5064 5345.5 5067.1 5335.9 5059 5341.8" clip-path="url(#a)" fill="none" stroke="#000" stroke-linecap="round"/>
<polyline points="5059 5341.8 5051 5335.9 5041 5335.9 5049 5330.1 5052.1 5339.6 5049 5330.1 5041 5335.9 5031 5335.9 5027.9 5345.5 5024.8 5335.9 5034.8 5335.9 5044.8 5335.9 5052.9 5330.1 5044.8 5335.9 5041.7 5326.4 5038.6 5316.9 5046.7 5322.8 5043.6 5332.3 5040.5 5341.8 5037.4 5332.3 5027.4 5332.3 5024.3 5322.8 5014.3 5322.8 5017.4 5313.3 5009.3 5307.4 5001.2 5313.3 5009.3 5307.4 5012.4 5297.9 5002.4 5297.9 4992.4 5297.9 4989.3 5288.4 4992.4 5278.9 4995.5 5269.4 4998.6 5259.9 4995.5 5269.4 5003.6 5275.2 5006.7 5265.7 5003.6 5275.2 5000.5 5265.7 4997.4 5256.2 4987.4 5256.2 4977.4 5256.2 4969.3 5250.3" clip-path="url(#a)" fill="none" stroke="#000" stroke-linecap="round"/>
<polyline points="4969.3 5250.3 4972.4 5259.9 4982.4 5259.9 4974.3 5254 4966.2 5248.1 4969.3 5238.6 4959.3 5238.6 4962.4 5229.1 4965.5 5238.6 4962.4 5248.1 4959.3 5238.6 4951.2 5244.5 4959.3 5250.3 4951.2 5244.5 4943.1 5238.6 4951.2 5232.7 4959.3 5238.6 4951.2 5232.7 4948.1 5242.2 4956.2 5236.3 4964.3 5230.5 4956.2 5224.6 4946.2 5224.6 4954.3 5230.5 4964.3 5230.5 4961.2 5221 4969.3 5226.8 4979.3 5226.8 4982.4 5217.3 4979.3 5226.8 4976.2 5217.3 4979.3 5226.8 4982.4 5217.3 4974.3 5223.2 4982.4 5217.3 4990.5 5211.4 4987.4 5201.9 4995.5 5207.8 5005.5 5207.8 5002.4 5217.3 4992.4 5217.3 4982.4 5217.3 4974.3 5223.2" clip-path="url(#a)" fill="none" stroke="#000" stroke-linecap="round"/>
<polyline points="4974.3 5223.2 4966.2 5229.1 4976.2 5229.1 4973.1 5238.6 4976.2 5248.1 4986.2 5248.1 4996.2 5248.1 4988.1 5242.2 4978.1 5242.2 4975 5232.7 4983.1 5226.8 4973.1 5226.8 4970 5217.3 4962 5211.4 4972 5211.4 4968.9 5221 4972 5211.4 4962 5211.4 4953.9 5205.6 4945.8 5211.4 4948.9 5201.9 4957 5207.8 4965 5213.7 4975 5213.7 4965 5213.7 4968.1 5204.2 4971.2 5194.7 4974.3 5204.2 4966.2 5210.1 4958.1 5215.9 4961.2 5206.4 4953.1 5200.5 4956.2 5191 4948.1 5185.2 4956.2 5179.3 4953.1 5169.8 4943.1 5169.8 4953.1 5169.8 4961.2 5163.9 4953.1 5158 4945 5152.1 4948.1 5142.6 4956.2 5136.8" clip-path="url(#a)" fill="none" stroke="#000" stroke-linecap="round"/>
<polyline points="4956.2 5136.8 4964.3 5130.9 4972.4 5125 4964.3 5130.9 4967.4 5140.4 4975.5 5134.5 4967.4 5140.4 4970.5 5130.9 4973.6 5121.4 4965.5 5115.5 4957.4 5109.6 4954.3 5100.1 4951.2 5109.6 4959.3 5115.5 4956.2 5106 4953.1 5096.5 4961.2 5090.6 4953.1 5084.7 4961.2 5078.8 4958.1 5088.3 4950 5094.2 4953.1 5084.7 4943.1 5084.7 4946.2 5094.2 4943.1 5084.7 4940 5075.2 4950 5075.2 4953.1 5084.7 4950 5075.2 4942 5081.1 4952 5081.1 4962 5081.1 4958.9 5071.6 4950.8 5065.7 4953.9 5075.2 4962 5081.1 4965 5071.6 4968.1 5081.1 4976.2 5087 4984.3 5081.1 4976.2 5087 4979.3 5077.4 4976.2 5087" clip-path="url(#a)" fill="none" stroke="#000" stroke-linecap="round"/>
<polyline points="4976.2 5087 4984.3 5081.1 4974.3 5081.1 4984.3 5081.1 4994.3 5081.1 4997.4 5071.6 5000.5 5081.1 5008.6 5087 5000.5 5092.8 4992.4 5087 4984.3 5081.1 4974.3 5081.1 4964.3 5081.1 4972.4 5087 4964.3 5092.8 4961.2 5102.3 4969.3 5108.2 4977.4 5114.1 4974.3 5104.6 4966.2 5098.7 4969.3 5089.2 4979.3 5089.2 4971.2 5083.3 4974.3 5073.8 4971.2 5064.3 4979.3 5070.2 4971.2 5076.1 4979.3 5070.2 4971.2 5064.3 4968.1 5054.8 4958.1 5054.8 4966.2 5048.9 4969.3 5058.4 4972.4 5067.9 4980.5 5073.8 4972.4 5067.9 4980.5 5062.1 4988.6 5056.2 4985.5 5065.7 4975.5 5065.7 4965.5 5065.7 4973.6 5059.8 4970.5 5050.3" clip-path="url(#a)" fill="none" stroke="#000" stroke-linecap="round"/>
<polyline points="4970.5 5050.3 4978.6 5044.4 4975.5 5034.9 4985.5 5034.9 4988.6 5025.4 4980.5 5019.5 4988.6 5025.4 4998.6 5025.4 4995.5 5015.9 4992.4 5006.4 5000.5 5000.5 5010.5 5000.5 5020.5 5000.5 5030.5 5000.5 5020.5 5000.5 5017.4 5010 5027.4 5010 5017.4 5010 5025.5 5004.1 5033.6 4998.3 5030.5 4988.7 5027.4 4979.2 5030.5 4969.7 5022.4 4975.6 5025.5 4985.1 5028.6 4975.6 5031.7 4966.1 5041.7 4966.1 5038.6 4956.6 5048.6 4956.6 5040.5 4962.5 5030.5 4962.5 5038.6 4956.6 5030.5 4950.7 5027.4 4960.2 5030.5 4950.7 5033.6 4941.2 5041.7 4947.1 5038.6 4956.6 5041.7 4947.1 5031.7 4947.1 5039.8 4952.9 5047.9 4958.8" clip-path="url(#a)" fill="none" stroke="#000" stroke-linecap="round"/>
<polyline points="5047.9 4958.8 5051 4949.3 5047.9 4939.8 5044.8 4949.3 5047.9 4958.8 5056 4952.9 5052.9 4962.5 5056 4972 5066 4972 5056 4972 5064 4966.1 5056 4972 5066 4972 5057.9 4966.1 5066 4972 5074 4977.8 5082.1 4972 5079 4981.5 5082.1 4991 5072.1 4991 5069 4981.5 5066 4972 5057.9 4966.1 5049.8 4960.2 5052.9 4969.7 5042.9 4969.7 5034.8 4975.6 5037.9 4985.1 5041 4994.6 5044 4985.1 5041 4975.6 5049 4969.7 5057.1 4975.6 5054 4966.1 5062.1 4960.2 5065.2 4950.7 5068.3 4960.2 5058.3 4960.2 5068.3 4960.2 5065.2 4950.7 5068.3 4941.2 5060.2 4935.3 5070.2 4935.3" clip-path="url(#a)" fill="none" stroke="#000" stroke-linecap="round"/>
<polyline points="5070.2 4935.3 5067.1 4944.8 5064 4954.3 5067.1 4963.8 5064 4954.3 5074 4954.3 5084 4954.3 5076 4960.2 5067.9 4954.3 5059.8 4948.5 5069.8 4948.5 5072.9 4938.9 5082.9 4938.9 5086 4929.4 5094 4935.3 5102.1 4929.4 5099 4919.9 5102.1 4929.4 5110.2 4935.3 5113.3 4925.8 5116.4 4916.3 5126.4 4916.3 5134.5 4922.2 5142.6 4928 5150.7 4933.9 5142.6 4928 5134.5 4933.9 5142.6 4939.8 5134.5 4933.9 5144.5 4933.9 5154.5 4933.9 5157.6 4924.4 5160.7 4914.9 5168.8 4909 5158.8 4909 5155.7 4918.5 5163.8 4912.7 5171.9 4906.8 5179.9 4912.7 5183 4903.1 5191.1 4909 5181.1 4909 5173 4903.1" clip-path="url(#a)" fill="none" stroke="#000" stroke-linecap="round"/>
<polyline points="5173 4903.1 5183 4903.1 5179.9 4893.6 5171.9 4899.5 5179.9 4893.6 5188 4887.8 5191.1 4897.3 5183 4903.1 5191.1 4897.3 5183 4891.4 5186.1 4900.9 5189.2 4910.4 5197.3 4904.5 5200.4 4895 5192.3 4900.9 5189.2 4910.4 5199.2 4910.4 5191.1 4916.3 5188 4925.8 5196.1 4931.7 5188 4925.8 5198 4925.8 5188 4925.8 5196.1 4931.7 5193 4922.2 5196.1 4931.7 5199.2 4941.2 5209.2 4941.2 5201.1 4947.1 5198 4956.6 5189.9 4950.7 5193 4941.2 5196.1 4931.7 5193 4922.2 5189.9 4912.7 5186.9 4922.2 5178.8 4916.3 5168.8 4916.3 5165.7 4925.8 5162.6 4935.3 5170.7 4929.4 5173.8 4919.9 5183.8 4919.9" clip-path="url(#a)" fill="none" stroke="#000" stroke-linecap="round"/>
<polyline points="5183.8 4919.9 5186.9 4929.4 5189.9 4919.9 5199.9 4919.9 5208 4914 5204.9 4923.6 5196.9 4917.7 5204.9 4923.6 5208 4914 5216.1 4908.2 5213 4898.7 5221.1 4904.5 5213 4910.4 5204.9 4916.3 5201.9 4925.8 5204.9 4916.3 5213 4922.2 5221.1 4928 5211.1 4928 5208 4918.5 5204.9 4909 5213 4914.9 5221.1 4909 5229.2 4914.9 5237.3 4909 5240.4 4918.5 5250.4 4918.5 5253.5 4909 5250.4 4918.5 5253.5 4928 5261.6 4922.2 5269.7 4916.3 5277.8 4922.2 5280.8 4931.7 5283.9 4941.2 5287 4950.7 5283.9 4941.2 5273.9 4941.2 5277 4950.7 5273.9 4941.2 5282 4947.1 5290.1 4952.9 5298.2 4947.1" clip-path="url(#a)" fill="none" stroke="#000" stroke-linecap="round"/>
<polyline points="5298.2 4947.1 5306.3 4941.2 5316.3 4941.2 5308.2 4935.3 5300.1 4941.2 5310.1 4941.2 5320.1 4941.2 5323.2 4950.7 5331.3 4944.8 5334.4 4954.3 5326.3 4948.5 5323.2 4938.9 5331.3 4944.8 5334.4 4935.3 5324.4 4935.3 5334.4 4935.3 5344.4 4935.3 5341.3 4944.8 5331.3 4944.8 5341.3 4944.8 5338.2 4935.3 5335.1 4944.8 5332 4954.3 5342 4954.3 5350.1 4948.5 5340.1 4948.5 5332 4954.3 5340.1 4960.2 5330.1 4960.2 5322 4966.1 5325.1 4975.6 5322 4966.1 5330.1 4972 5322 4966.1 5325.1 4975.6 5328.2 4966.1 5325.1 4975.6 5322 4985.1 5330.1 4991 5320.1 4991 5312 4996.9 5308.9 4987.4 5317 4981.5" clip-path="url(#a)" fill="none" stroke="#000" stroke-linecap="round"/>
<polyline points="5317 4981.5 5325.1 4975.6 5328.2 4966.1 5331.3 4956.6 5323.2 4962.5 5320.1 4952.9 5312 4947.1 5303.9 4952.9 5295.8 4958.8 5305.8 4958.8 5313.9 4952.9 5322 4958.8 5318.9 4968.3 5327 4962.5 5335.1 4968.3 5345.1 4968.3 5337 4974.2 5333.9 4964.7 5337 4974.2 5345.1 4968.3 5355.1 4968.3 5358.2 4958.8 5361.3 4968.3 5351.3 4968.3 5341.3 4968.3 5333.2 4974.2 5341.3 4968.3 5344.4 4977.8 5347.5 4987.4 5339.4 4981.5 5342.5 4972 5345.6 4962.5 5348.7 4972 5358.7 4972 5361.7 4981.5 5371.7 4981.5 5368.7 4991 5376.7 4996.9 5384.8 4991 5376.7 4996.9 5373.7 5006.4 5383.7 5006.4 5393.7 5006.4" clip-path="url(#a)" fill="none" stroke="#000" stroke-linecap="round"/>
<polyline points="5393.7 5006.4 5396.7 5015.9 5393.7 5025.4 5390.6 5034.9 5387.5 5044.4 5390.6 5034.9 5382.5 5029 5379.4 5038.5 5382.5 5029 5385.6 5038.5 5388.7 5048.1 5398.7 5048.1 5408.7 5048.1 5416.7 5053.9 5413.7 5044.4 5403.7 5044.4 5411.7 5050.3 5419.8 5056.2 5416.7 5065.7 5426.7 5065.7 5423.7 5075.2 5420.6 5065.7 5423.7 5056.2 5426.7 5065.7 5434.8 5059.8 5426.7 5053.9 5434.8 5059.8 5442.9 5065.7 5434.8 5071.6 5426.7 5065.7 5434.8 5071.6 5437.9 5062.1 5429.8 5067.9 5421.7 5073.8 5429.8 5079.7 5439.8 5079.7 5431.7 5073.8 5421.7 5073.8 5424.8 5083.3 5416.7 5077.4 5406.7 5077.4 5403.7 5087 5406.7 5077.4" clip-path="url(#a)" fill="none" stroke="#000" stroke-linecap="round"/>
<polyline points="5406.7 5077.4 5409.8 5087 5406.7 5077.4 5403.7 5087 5411.7 5081.1 5403.7 5087 5395.6 5092.8 5398.7 5102.3 5390.6 5096.5 5380.6 5096.5 5383.7 5087 5393.7 5087 5403.7 5087 5411.7 5081.1 5419.8 5075.2 5409.8 5075.2 5412.9 5065.7 5409.8 5056.2 5399.8 5056.2 5389.8 5056.2 5397.9 5062.1 5407.9 5062.1 5411 5071.6 5402.9 5077.4 5412.9 5077.4 5416 5087 5424.1 5092.8 5414.1 5092.8 5417.2 5083.3 5414.1 5092.8 5424.1 5092.8 5432.2 5098.7 5440.3 5092.8 5437.2 5102.3 5429.1 5096.5 5421 5090.6 5411 5090.6 5421 5090.6 5417.9 5100.1 5414.8 5109.6 5411.7 5100.1 5419.8 5094.2 5427.9 5088.3" clip-path="url(#a)" fill="none" stroke="#000" stroke-linecap="round"/>
<polyline points="5427.9 5088.3 5424.8 5097.9 5432.9 5103.7 5429.8 5113.2 5437.9 5119.1 5429.8 5125 5432.9 5134.5 5442.9 5134.5 5432.9 5134.5 5424.8 5140.4 5432.9 5146.3 5441 5152.1 5437.9 5161.6 5429.8 5167.5 5421.7 5173.4 5413.7 5179.3 5421.7 5173.4 5418.7 5163.9 5410.6 5169.8 5418.7 5163.9 5415.6 5173.4 5412.5 5182.9 5420.6 5188.8 5428.7 5194.7 5431.7 5204.2 5434.8 5194.7 5426.7 5188.8 5429.8 5198.3 5432.9 5207.8 5424.8 5213.7 5432.9 5219.6 5424.8 5225.4 5427.9 5215.9 5436 5210.1 5432.9 5219.6 5442.9 5219.6 5439.8 5210.1 5442.9 5219.6 5446 5229.1 5436 5229.1 5432.9 5219.6 5436 5229.1 5444.1 5223.2" clip-path="url(#a)" fill="none" stroke="#000" stroke-linecap="round"/>
<polyline points="5444.1 5223.2 5434.1 5223.2 5424.1 5223.2 5427.2 5232.7 5435.3 5238.6 5432.2 5229.1 5424.1 5223.2 5421 5232.7 5417.9 5223.2 5409.8 5217.3 5401.7 5223.2 5409.8 5217.3 5406.7 5226.8 5409.8 5217.3 5401.7 5223.2 5411.7 5223.2 5401.7 5223.2 5391.7 5223.2 5388.7 5232.7 5385.6 5223.2 5377.5 5217.3 5385.6 5211.4 5393.7 5217.3 5401.7 5223.2 5411.7 5223.2 5421.7 5223.2 5413.7 5217.3 5421.7 5211.4 5424.8 5201.9 5416.7 5196.1 5408.7 5190.2 5411.7 5199.7 5419.8 5205.6 5416.7 5215.1 5406.7 5215.1 5414.8 5221 5411.7 5230.5 5414.8 5240 5406.7 5234.1 5414.8 5228.2 5406.7 5234.1 5414.8 5240 5417.9 5249.5" clip-path="url(#a)" fill="none" stroke="#000" stroke-linecap="round"/>
<polyline points="5417.9 5249.5 5427.9 5249.5 5419.8 5255.4 5416.7 5245.9 5413.7 5236.3 5405.6 5230.5 5413.7 5236.3 5405.6 5242.2 5397.5 5248.1 5400.6 5238.6 5410.6 5238.6 5420.6 5238.6 5412.5 5244.5 5415.6 5254 5407.5 5259.9 5410.6 5269.4 5400.6 5269.4 5397.5 5278.9 5405.6 5284.8 5397.5 5278.9 5387.5 5278.9 5390.6 5288.4 5393.7 5297.9 5385.6 5303.8 5375.6 5303.8 5365.6 5303.8 5355.6 5303.8 5365.6 5303.8 5368.7 5294.3 5358.7 5294.3 5368.7 5294.3 5360.6 5300.1 5352.5 5306 5355.6 5315.5 5358.7 5325 5355.6 5334.6 5363.7 5328.7 5360.6 5319.2 5357.5 5328.7 5354.4 5338.2 5344.4 5338.2 5347.5 5347.7 5337.5 5347.7" clip-path="url(#a)" fill="none" stroke="#000" stroke-linecap="round"/>
<polyline points="5337.5 5347.7 5345.6 5341.8 5355.6 5341.8 5347.5 5347.7 5355.6 5353.6 5358.7 5344.1 5355.6 5353.6 5352.5 5363.1 5344.4 5357.2 5347.5 5347.7 5344.4 5357.2 5354.4 5357.2 5346.3 5351.3 5338.2 5345.5 5335.1 5355 5338.2 5364.5 5341.3 5355 5338.2 5345.5 5330.1 5351.3 5333.2 5341.8 5330.1 5332.3 5320.1 5332.3 5330.1 5332.3 5322 5338.2 5330.1 5332.3 5320.1 5332.3 5328.2 5338.2 5320.1 5332.3 5312 5326.4 5303.9 5332.3 5307 5322.8 5303.9 5313.3 5313.9 5313.3 5317 5322.8 5320.1 5332.3 5328.2 5338.2 5336.3 5344.1 5333.2 5334.6 5343.2 5334.6 5351.3 5328.7 5348.2 5319.2 5345.1 5309.7 5342 5319.2" clip-path="url(#a)" fill="none" stroke="#000" stroke-linecap="round"/>
<polyline points="5342 5319.2 5345.1 5328.7 5337 5334.6 5328.9 5328.7 5332 5338.2 5323.9 5344.1 5320.8 5353.6 5317.8 5344.1 5327.8 5344.1 5317.8 5344.1 5320.8 5353.6 5317.8 5363.1 5325.8 5369 5315.8 5369 5318.9 5359.5 5322 5349.9 5318.9 5340.4 5322 5349.9 5312 5349.9 5302 5349.9 5310.1 5344.1 5318.2 5349.9 5326.3 5355.8 5316.3 5355.8 5313.2 5365.3 5303.2 5365.3 5300.1 5374.8 5292 5369 5283.9 5374.8 5287 5384.4 5283.9 5374.8 5275.8 5369 5272.8 5378.5 5269.7 5388 5259.7 5388 5251.6 5382.1 5243.5 5376.2 5235.4 5370.4 5243.5 5376.2 5251.6 5370.4 5243.5 5364.5 5251.6 5370.4 5241.6 5370.4" clip-path="url(#a)" fill="none" stroke="#000" stroke-linecap="round"/>
<polyline points="5241.6 5370.4 5231.6 5370.4 5228.5 5379.9 5225.4 5389.4 5217.3 5395.3 5227.3 5395.3 5230.4 5385.7 5222.3 5391.6 5214.2 5397.5 5206.1 5391.6 5203 5401.1 5194.9 5395.3 5204.9 5395.3 5213 5401.1 5203 5401.1 5206.1 5410.6 5214.2 5404.8 5206.1 5410.6 5198 5416.5 5194.9 5407 5203 5401.1 5194.9 5407 5203 5412.9 5199.9 5403.4 5196.9 5393.9 5188.8 5399.7 5185.7 5409.3 5193.8 5403.4 5196.9 5393.9 5186.9 5393.9 5194.9 5388 5198 5378.5 5189.9 5372.6 5198 5378.5 5188 5378.5 5198 5378.5 5189.9 5372.6 5193 5382.1 5189.9 5372.6 5186.9 5363.1 5176.9 5363.1 5184.9 5357.2 5188 5347.7" clip-path="url(#a)" fill="none" stroke="#000" stroke-linecap="round"/>
<polyline points="5188 5347.7 5196.1 5353.6 5193 5363.1 5189.9 5372.6 5193 5382.1 5196.1 5391.6 5199.2 5382.1 5207.3 5388 5217.3 5388 5220.4 5378.5 5223.5 5369 5215.4 5374.8 5212.3 5384.4 5202.3 5384.4 5199.2 5374.8 5196.1 5384.4 5186.1 5384.4 5178 5390.2 5181.1 5380.7 5189.2 5386.6 5181.1 5380.7 5178 5390.2 5169.9 5396.1 5173 5405.6 5164.9 5399.7 5173 5393.9 5181.1 5388 5184.2 5378.5 5181.1 5388 5173 5382.1 5164.9 5376.2 5174.9 5376.2 5178 5385.7 5181.1 5395.3 5173 5389.4 5164.9 5395.3 5156.9 5389.4 5148.8 5395.3 5145.7 5385.7 5135.7 5385.7 5132.6 5395.3 5135.7 5385.7 5132.6 5376.2" clip-path="url(#a)" fill="none" stroke="#000" stroke-linecap="round"/>
<polyline points="5132.6 5376.2 5124.5 5382.1 5116.4 5388 5108.3 5382.1 5105.2 5372.6 5102.1 5363.1 5099 5353.6 5102.1 5363.1 5112.1 5363.1 5109 5353.6 5112.1 5363.1 5104 5357.2 5096 5351.3 5087.9 5357.2 5079.8 5363.1 5069.8 5363.1 5077.9 5369 5086 5363.1 5076 5363.1 5066 5363.1 5062.9 5353.6 5054.8 5359.5 5051.7 5349.9 5059.8 5355.8 5062.9 5365.3 5054.8 5359.5 5051.7 5369 5061.7 5369 5051.7 5369 5041.7 5369 5044.8 5359.5 5054.8 5359.5 5044.8 5359.5 5047.9 5369 5051 5359.5 5054 5349.9 5044 5349.9 5036 5355.8 5046 5355.8 5054 5349.9 5046 5344.1 5056 5344.1 5064 5338.2" clip-path="url(#a)" fill="none" stroke="#000" stroke-linecap="round"/>
<polyline points="5064 5338.2 5061 5328.7 5064 5338.2 5056 5332.3 5064 5338.2 5061 5328.7 5057.9 5338.2 5061 5328.7 5064 5319.2 5056 5313.3 5066 5313.3 5074 5307.4 5077.1 5316.9 5069 5322.8 5061 5328.7 5057.9 5338.2 5054.8 5347.7 5062.9 5341.8 5066 5351.3 5074 5357.2 5082.1 5351.3 5090.2 5345.5 5080.2 5345.5 5072.1 5351.3 5064 5345.5 5067.1 5335.9 5059 5341.8 5051 5335.9 5041 5335.9 5049 5330.1 5052.1 5339.6 5049 5330.1 5041 5335.9 5031 5335.9 5027.9 5345.5 5024.8 5335.9 5034.8 5335.9 5044.8 5335.9 5052.9 5330.1 5044.8 5335.9 5041.7 5326.4 5038.6 5316.9 5046.7 5322.8" clip-path="url(#a)" fill="none" stroke="#000" stroke-linecap="round"/>
<polyline points="5046.7 5322.8 5043.6 5332.3 5040.5 5341.8 5037.4 5332.3 5027.4 5332.3 5024.3 5322.8 5014.3 5322.8 5017.4 5313.3 5009.3 5307.4 5001.2 5313.3 5009.3 5307.4 5012.4 5297.9 5002.4 5297.9 4992.4 5297.9 4989.3 5288.4 4992.4 5278.9 4995.5 5269.4 4998.6 5259.9 4995.5 5269.4 5003.6 5275.2 5006.7 5265.7 5003.6 5275.2 5000.5 5265.7 4997.4 5256.2 4987.4 5256.2 4977.4 5256.2 4969.3 5250.3 4972.4 5259.9 4982.4 5259.9 4974.3 5254 4966.2 5248.1 4969.3 5238.6 4959.3 5238.6 4962.4 5229.1 4965.5 5238.6 4962.4 5248.1 4959.3 5238.6 4951.2 5244.5 4959.3 5250.3 4951.2 5244.5 4943.1 5238.6 4951.2 5232.7 4959.3 5238.6" clip-path="url(#a)" fill="none" stroke="#000" stroke-linecap="round"/>
<polyline points="4959.3 5238.6 4951.2 5232.7 4948.1 5242.2 4956.2 5236.3 4964.3 5230.5 4956.2 5224.6 4946.2 5224.6 4954.3 5230.5 4964.3 5230.5 4961.2 5221 4969.3 5226.8 4979.3 5226.8 4982.4 5217.3 4979.3 5226.8 4976.2 5217.3 4979.3 5226.8 4982.4 5217.3 4974.3 5223.2 4982.4 5217.3 4990.5 5211.4 4987.4 5201.9 4995.5 5207.8 5005.5 5207.8 5002.4 5217.3 4992.4 5217.3 4982.4 5217.3 4974.3 5223.2 4966.2 5229.1 4976.2 5229.1 4973.1 5238.6 4976.2 5248.1 4986.2 5248.1 4996.2 5248.1 4988.1 5242.2 4978.1 5242.2 4975 5232.7 4983.1 5226.8 4973.1 5226.8 4970 5217.3 4962 5211.4 4972 5211.4 4968.9 5221 4972 5211.4" clip-path="url(#a)" fill="none" stroke="#000" stroke-linecap="round"/>
<polyline points="4972 5211.4 4962 5211.4 4953.9 5205.6 4945.8 5211.4 4948.9 5201.9 4957 5207.8 4965 5213.7 4975 5213.7 4965 5213.7 4968.1 5204.2 4971.2 5194.7 4974.3 5204.2 4966.2 5210.1 4958.1 5215.9 4961.2 5206.4 4953.1 5200.5 4956.2 5191 4948.1 5185.2 4956.2 5179.3 4953.1 5169.8 4943.1 5169.8 4953.1 5169.8 4961.2 5163.9 4953.1 5158 4945 5152.1 4948.1 5142.6 4956.2 5136.8 4964.3 5130.9 4972.4 5125 4964.3 5130.9 4967.4 5140.4 4975.5 5134.5 4967.4 5140.4 4970.5 5130.9 4973.6 5121.4 4965.5 5115.5 4957.4 5109.6 4954.3 5100.1 4951.2 5109.6 4959.3 5115.5 4956.2 5106 4953.1 5096.5 4961.2 5090.6" clip-path="url(#a)" fill="none" stroke="#000" stroke-linecap="round"/>
<polyline points="4961.2 5090.6 4953.1 5084.7 4961.2 5078.8 4958.1 5088.3 4950 5094.2 4953.1 5084.7 4943.1 5084.7 4946.2 5094.2 4943.1 5084.7 4940 5075.2 4950 5075.2 4953.1 5084.7 4950 5075.2 4942 5081.1 4952 5081.1 4962 5081.1 4958.9 5071.6 4950.8 5065.7 4953.9 5075.2 4962 5081.1 4965 5071.6 4968.1 5081.1 4976.2 5087 4984.3 5081.1 4976.2 5087 4979.3 5077.4 4976.2 5087 4984.3 5081.1 4974.3 5081.1 4984.3 5081.1 4994.3 5081.1 4997.4 5071.6 5000.5 5081.1 5008.6 5087 5000.5 5092.8 4992.4 5087 4984.3 5081.1 4974.3 5081.1 4964.3 5081.1 4972.4 5087 4964.3 5092.8 4961.2 5102.3 4969.3 5108.2" clip-path="url(#a)" fill="none" stroke="#000" stroke-linecap="round"/>
<polyline points="4969.3 5108.2 4977.4 5114.1 4974.3 5104.6 4966.2 5098.7 4969.3 5089.2 4979.3 5089.2 4971.2 5083.3 4974.3 5073.8 4971.2 5064.3 4979.3 5070.2 4971.2 5076.1 4979.3 5070.2 4971.2 5064.3 4968.1 5054.8 4958.1 5054.8 4966.2 5048.9 4969.3 5058.4 4972.4 5067.9 4980.5 5073.8 4972.4 5067.9 4980.5 5062.1 4988.6 5056.2 4985.5 5065.7 4975.5 5065.7 4965.5 5065.7 4973.6 5059.8 4970.5 5050.3 4978.6 5044.4 4975.5 5034.9 4985.5 5034.9 4988.6 5025.4 4980.5 5019.5 4988.6 5025.4 4998.6 5025.4 4995.5 5015.9 4992.4 5006.4 5000.5 5000.5 5010.5 5000.5 5020.5 5000.5 5030.5 5000.5 5020.5 5000.5 5017.4 5010 5027.4 5010" clip-path="url(#a)" fill="none" stroke="#000" stroke-linecap="round"/>
<polyline points="5027.4 5010 5017.4 5010 5025.5 5004.1 5033.6 4998.3 5030.5 4988.7 5027.4 4979.2 5030.5 4969.7 5022.4 4975.6 5025.5 4985.1 5028.6 4975.6 5031.7 4966.1 5041.7 4966.1 5038.6 4956.6 5048.6 4956.6 5040.5 4962.5 5030.5 4962.5 5038.6 4956.6 5030.5 4950.7 5027.4 4960.2 5030.5 4950.7 5033.6 4941.2 5041.7 4947.1 5038.6 4956.6 5041.7 4947.1 5031.7 4947.1 5039.8 4952.9 5047.9 4958.8 5051 4949.3 5047.9 4939.8 5044.8 4949.3 5047.9 4958.8 5056 4952.9 5052.9 4962.5 5056 4972 5066 4972 5056 4972 5064 4966.1 5056 4972 5066 4972 5057.9 4966.1 5066 4972 5074 4977.8 5082.1 4972" clip-path="url(#a)" fill="none" stroke="#000" stroke-linecap="round"/>
<polyline points="5082.1 4972 5079 4981.5 5082.1 4991 5072.1 4991 5069 4981.5 5066 4972 5057.9 4966.1 5049.8 4960.2 5052.9 4969.7 5042.9 4969.7 5034.8 4975.6 5037.9 4985.1 5041 4994.6 5044 4985.1 5041 4975.6 5049 4969.7 5057.1 4975.6 5054 4966.1 5062.1 4960.2 5065.2 4950.7 5068.3 4960.2 5058.3 4960.2 5068.3 4960.2 5065.2 4950.7 5068.3 4941.2 5060.2 4935.3 5070.2 4935.3 5067.1 4944.8 5064 4954.3 5067.1 4963.8 5064 4954.3 5074 4954.3 5084 4954.3 5076 4960.2 5067.9 4954.3 5059.8 4948.5 5069.8 4948.5 5072.9 4938.9 5082.9 4938.9 5086 4929.4 5094 4935.3 5102.1 4929.4 5099 4919.9" clip-path="url(#a)" fill="none" stroke="#000" stroke-linecap="round"/>
<polyline points="5099 4919.9 5102.1 4929.4 5110.2 4935.3 5113.3 4925.8 5116.4 4916.3 5126.4 4916.3 5134.5 4922.2 5142.6 4928 5150.7 4933.9 5142.6 4928 5134.5 4933.9 5142.6 4939.8 5134.5 4933.9 5144.5 4933.9 5154.5 4933.9 5157.6 4924.4 5160.7 4914.9 5168.8 4909 5158.8 4909 5155.7 4918.5 5163.8 4912.7 5171.9 4906.8 5179.9 4912.7 5183 4903.1 5191.1 4909 5181.1 4909 5173 4903.1 5183 4903.1 5179.9 4893.6 5171.9 4899.5 5179.9 4893.6 5188 4887.8 5191.1 4897.3 5183 4903.1 5191.1 4897.3 5183 4891.4 5186.1 4900.9 5189.2 4910.4 5197.3 4904.5 5200.4 4895 5192.3 4900.9 5189.2 4910.4 5199.2 4910.4" clip-path="url(#a)" fill="none" stroke="#000" stroke-linecap="round"/>
<polyline points="5199.2 4910.4 5191.1 4916.3 5188 4925.8 5196.1 4931.7 5188 4925.8 5198 4925.8 5188 4925.8 5196.1 4931.7 5193 4922.2 5196.1 4931.7 5199.2 4941.2 5209.2 4941.2 5201.1 4947.1 5198 4956.6 5189.9 4950.7 5193 4941.2 5196.1 4931.7 5193 4922.2 5189.9 4912.7 5186.9 4922.2 5178.8 4916.3 5168.8 4916.3 5165.7 4925.8 5162.6 4935.3 5170.7 4929.4 5173.8 4919.9 5183.8 4919.9 5186.9 4929.4 5189.9 4919.9 5199.9 4919.9 5208 4914 5204.9 4923.6 5196.9 4917.7 5204.9 4923.6 5208 4914 5216.1 4908.2 5213 4898.7 5221.1 4904.5 5213 4910.4 5204.9 4916.3 5201.9 4925.8 5204.9 4916.3 5213 4922.2" clip-path="url(#a)" fill="none" stroke="#000" stroke-linecap="round"/>
<polyline points="5213 4922.2 5221.1 4928 5211.1 4928 5208 4918.5 5204.9 4909 5213 4914.9 5221.1 4909 5229.2 4914.9 5237.3 4909 5240.4 4918.5 5250.4 4918.5 5253.5 4909 5250.4 4918.5 5253.5 4928 5261.6 4922.2 5269.7 4916.3 5277.8 4922.2 5280.8 4931.7 5283.9 4941.2 5287 4950.7 5283.9 4941.2 5273.9 4941.2 5277 4950.7 5273.9 4941.2 5282 4947.1 5290.1 4952.9 5298.2 4947.1 5306.3 4941.2 5316.3 4941.2 5308.2 4935.3 5300.1 4941.2 5310.1 4941.2 5320.1 4941.2 5323.2 4950.7 5331.3 4944.8 5334.4 4954.3 5326.3 4948.5 5323.2 4938.9 5331.3 4944.8 5334.4 4935.3 5324.4 4935.3 5334.4 4935.3 5344.4 4935.3" clip-path="url(#a)" fill="none" stroke="#000" stroke-linecap="round"/>
<polyline points="5344.4 4935.3 5341.3 4944.8 5331.3 4944.8 5341.3 4944.8 5338.2 4935.3 5335.1 4944.8 5332 4954.3 5342 4954.3 5350.1 4948.5 5340.1 4948.5 5332 4954.3 5340.1 4960.2 5330.1 4960.2 5322 4966.1 5325.1 4975.6 5322 4966.1 5330.1 4972 5322 4966.1 5325.1 4975.6 5328.2 4966.1 5325.1 4975.6 5322 4985.1 5330.1 4991 5320.1 4991 5312 4996.9 5308.9 4987.4 5317 4981.5 5325.1 4975.6 5328.2 4966.1 5331.3 4956.6 5323.2 4962.5 5320.1 4952.9 5312 4947.1 5303.9 4952.9 5295.8 4958.8 5305.8 4958.8 5313.9 4952.9 5322 4958.8 5318.9 4968.3 5327 4962.5 5335.1 4968.3 5345.1 4968.3 5337 4974.2" clip-path="url(#a)" fill="none" stroke="#000" stroke-linecap="round"/>
<polyline points="5337 4974.2 5333.9 4964.7 5337 4974.2 5345.1 4968.3 5355.1 4968.3 5358.2 4958.8 5361.3 4968.3 5351.3 4968.3 5341.3 4968.3 5333.2 4974.2 5341.3 4968.3 5344.4 4977.8 5347.5 4987.4 5339.4 4981.5 5342.5 4972 5345.6 4962.5 5348.7 4972 5358.7 4972 5361.7 4981.5 5371.7 4981.5 5368.7 4991 5376.7 4996.9 5384.8 4991 5376.7 4996.9 5373.7 5006.4 5383.7 5006.4 5393.7 5006.4 5396.7 5015.9 5393.7 5025.4 5390.6 5034.9 5387.5 5044.4 5390.6 5034.9 5382.5 5029 5379.4 5038.5 5382.5 5029 5385.6 5038.5 5388.7 5048.1 5398.7 5048.1 5408.7 5048.1 5416.7 5053.9 5413.7 5044.4 5403.7 5044.4 5411.7 5050.3" clip-path="url(#a)" fill="none" stroke="#000" stroke-linecap="round"/>
<polyline points="5411.7 5050.3 5419.8 5056.2 5416.7 5065.7 5426.7 5065.7 5423.7 5075.2 5420.6 5065.7 5423.7 5056.2 5426.7 5065.7 5434.8 5059.8 5426.7 5053.9 5434.8 5059.8 5442.9 5065.7 5434.8 5071.6 5426.7 5065.7 5434.8 5071.6 5437.9 5062.1 5429.8 5067.9 5421.7 5073.8 5429.8 5079.7 5439.8 5079.7 5431.7 5073.8 5421.7 5073.8 5424.8 5083.3 5416.7 5077.4 5406.7 5077.4 5403.7 5087 5406.7 5077.4 5409.8 5087 5406.7 5077.4 5403.7 5087 5411.7 5081.1 5403.7 5087 5395.6 5092.8 5398.7 5102.3 5390.6 5096.5 5380.6 5096.5 5383.7 5087 5393.7 5087 5403.7 5087 5411.7 5081.1 5419.8 5075.2 5409.8 5075.2 5412.9 5065.7" clip-path="url(#a)" fill="none" stroke="#000" stroke-linecap="round"/>
<polyline points="5412.9 5065.7 5409.8 5056.2 5399.8 5056.2 5389.8 5056.2 5397.9 5062.1 5407.9 5062.1 5411 5071.6 5402.9 5077.4 5412.9 5077.4 5416 5087 5424.1 5092.8 5414.1 5092.8 5417.2 5083.3 5414.1 5092.8 5424.1 5092.8 5432.2 5098.7 5440.3 5092.8 5437.2 5102.3 5429.1 5096.5 5421 5090.6 5411 5090.6 5421 5090.6 5417.9 5100.1 5414.8 5109.6 5411.7 5100.1 5419.8 5094.2 5427.9 5088.3 5424.8 5097.9 5432.9 5103.7 5429.8 5113.2 5437.9 5119.1 5429.8 5125 5432.9 5134.5 5442.9 5134.5 5432.9 5134.5 5424.8 5140.4 5432.9 5146.3 5441 5152.1 5437.9 5161.6 5429.8 5167.5 5421.7 5173.4 5413.7 5179.3 5421.7 5173.4" clip-path="url(#a)" fill="none" stroke="#000" stroke-linecap="round"/>
<polyline points="5421.7 5173.4 5418.7 5163.9 5410.6 5169.8 5418.7 5163.9 5415.6 5173.4 5412.5 5182.9 5420.6 5188.8 5428.7 5194.7 5431.7 5204.2 5434.8 5194.7 5426.7 5188.8 5429.8 5198.3 5432.9 5207.8 5424.8 5213.7 5432.9 5219.6 5424.8 5225.4 5427.9 5215.9 5436 5210.1 5432.9 5219.6 5442.9 5219.6 5439.8 5210.1 5442.9 5219.6 5446 5229.1 5436 5229.1 5432.9 5219.6 5436 5229.1 5444.1 5223.2 5434.1 5223.2 5424.1 5223.2 5427.2 5232.7 5435.3 5238.6 5432.2 5229.1 5424.1 5223.2 5421 5232.7 5417.9 5223.2 5409.8 5217.3 5401.7 5223.2 5409.8 5217.3 5406.7 5226.8 5409.8 5217.3 5401.7 5223.2 5411.7 5223.2 5401.7 5223.2" clip-path="url(#a)" fill="none" stroke="#000" stroke-linecap="round"/>
<polyline points="5401.7 5223.2 5391.7 5223.2 5388.7 5232.7 5385.6 5223.2 5377.5 5217.3 5385.6 5211.4 5393.7 5217.3 5401.7 5223.2 5411.7 5223.2 5421.7 5223.2 5413.7 5217.3 5421.7 5211.4 5424.8 5201.9 5416.7 5196.1 5408.7 5190.2 5411.7 5199.7 5419.8 5205.6 5416.7 5215.1 5406.7 5215.1 5414.8 5221 5411.7 5230.5 5414.8 5240 5406.7 5234.1 5414.8 5228.2 5406.7 5234.1 5414.8 5240 5417.9 5249.5 5427.9 5249.5 5419.8 5255.4 5416.7 5245.9 5413.7 5236.3 5405.6 5230.5 5413.7 5236.3 5405.6 5242.2 5397.5 5248.1 5400.6 5238.6 5410.6 5238.6 5420.6 5238.6 5412.5 5244.5 5415.6 5254 5407.5 5259.9 5410.6 5269.4 5400.6 5269.4" clip-path="url(#a)" fill="none" stroke="#000" stroke-linecap="round"/>
<polyline points="5400.6 5269.4 5397.5 5278.9 5405.6 5284.8 5397.5 5278.9 5387.5 5278.9 5390.6 5288.4 5393.7 5297.9 5385.6 5303.8 5375.6 5303.8 5365.6 5303.8 5355.6 5303.8 5365.6 5303.8 5368.7 5294.3 5358.7 5294.3 5368.7 5294.3 5360.6 5300.1 5352.5 5306 5355.6 5315.5 5358.7 5325 5355.6 5334.6 5363.7 5328.7 5360.6 5319.2 5357.5 5328.7 5354.4 5338.2 5344.4 5338.2 5347.5 5347.7 5337.5 5347.7 5345.6 5341.8 5355.6 5341.8 5347.5 5347.7 5355.6 5353.6 5358.7 5344.1 5355.6 5353.6 5352.5 5363.1 5344.4 5357.2 5347.5 5347.7 5344.4 5357.2 5354.4 5357.2 5346.3 5351.3 5338.2 5345.5 5335.1 5355 5338.2 5364.5 5341.3 5355" clip-path="url(#a)" fill="none" stroke="#000" stroke-linecap="round"/>
<polyline points="5341.3 5355 5338.2 5345.5 5330.1 5351.3 5333.2 5341.8 5330.1 5332.3 5320.1 5332.3 5330.1 5332.3 5322 5338.2 5330.1 5332.3 5320.1 5332.3 5328.2 5338.2 5320.1 5332.3 5312 5326.4 5303.9 5332.3 5307 5322.8 5303.9 5313.3 5313.9 5313.3 5317 5322.8 5320.1 5332.3 5328.2 5338.2 5336.3 5344.1 5333.2 5334.6 5343.2 5334.6 5351.3 5328.7 5348.2 5319.2 5345.1 5309.7 5342 5319.2 5345.1 5328.7 5337 5334.6 5328.9 5328.7 5332 5338.2 5323.9 5344.1 5320.8 5353.6 5317.8 5344.1 5327.8 5344.1 5317.8 5344.1 5320.8 5353.6 5317.8 5363.1 5325.8 5369 5315.8 5369 5318.9 5359.5 5322 5349.9 5318.9 5340.4" clip-path="url(#a)" fill="none" stroke="#000" stroke-linecap="round"/>
<polyline points="5318.9 5340.4 5322 5349.9 5312 5349.9 5302 5349.9 5310.1 5344.1 5318.2 5349.9 5326.3 5355.8 5316.3 5355.8 5313.2 5365.3 5303.2 5365.3 5300.1 5374.8 5292 5369 5283.9 5374.8 5287 5384.4 5283.9 5374.8 5275.8 5369 5272.8 5378.5 5269.7 5388 5259.7 5388 5251.6 5382.1 5243.5 5376.2 5235.4 5370.4 5243.5 5376.2 5251.6 5370.4 5243.5 5364.5 5251.6 5370.4 5241.6 5370.4 5231.6 5370.4 5228.5 5379.9 5225.4 5389.4 5217.3 5395.3 5227.3 5395.3 5230.4 5385.7 5222.3 5391.6 5214.2 5397.5 5206.1 5391.6 5203 5401.1 5194.9 5395.3 5204.9 5395.3 5213 5401.1 5203 5401.1 5206.1 5410.6 5214.2 5404.8" clip-path="url(#a)" fill="none" stroke="#000" stroke-linecap="round"/>
<polyline points="5214.2 5404.8 5206.1 5410.6 5198 5416.5 5194.9 5407 5203 5401.1 5194.9 5407 5203 5412.9 5199.9 5403.4 5196.9 5393.9 5188.8 5399.7 5185.7 5409.3 5193.8 5403.4 5196.9 5393.9 5186.9 5393.9 5194.9 5388 5198 5378.5 5189.9 5372.6 5198 5378.5 5188 5378.5 5198 5378.5 5189.9 5372.6 5193 5382.1 5189.9 5372.6 5186.9 5363.1 5176.9 5363.1 5184.9 5357.2 5188 5347.7 5196.1 5353.6 5193 5363.1 5189.9 5372.6 5193 5382.1 5196.1 5391.6 5199.2 5382.1 5207.3 5388 5217.3 5388 5220.4 5378.5 5223.5 5369 5215.4 5374.8 5212.3 5384.4 5202.3 5384.4 5199.2 5374.8 5196.1 5384.4 5186.1 5384.4" clip-path="url(#a)" fill="none" stroke="#000" stroke-linecap="round"/>
<polyline points="5186.1 5384.4 5178 5390.2 5181.1 5380.7 5189.2 5386.6 5181.1 5380.7 5178 5390.2 5169.9 5396.1 5173 5405.6 5164.9 5399.7 5173 5393.9 5181.1 5388 5184.2 5378.5 5181.1 5388 5173 5382.1 5164.9 5376.2 5174.9 5376.2 5178 5385.7 5181.1 5395.3 5173 5389.4 5164.9 5395.3 5156.9 5389.4 5148.8 5395.3 5145.7 5385.7 5135.7 5385.7 5132.6 5395.3 5135.7 5385.7 5132.6 5376.2 5124.5 5382.1 5116.4 5388 5108.3 5382.1 5105.2 5372.6 5102.1 5363.1 5099 5353.6 5102.1 5363.1 5112.1 5363.1 5109 5353.6 5112.1 5363.1 5104 5357.2 5096 5351.3 5087.9 5357.2 5079.8 5363.1 5069.8 5363.1 5077.9 5369" clip-path="url(#a)" fill="none" stroke="#000" stroke-linecap="round"/>
<polyline points="5077.9 5369 5086 5363.1 5076 5363.1 5066 5363.1 5062.9 5353.6 5054.8 5359.5 5051.7 5349.9 5059.8 5355.8 5062.9 5365.3 5054.8 5359.5 5051.7 5369 5061.7 5369 5051.7 5369 5041.7 5369 5044.8 5359.5 5054.8 5359.5 5044.8 5359.5 5047.9 5369 5051 5359.5 5054 5349.9 5044 5349.9 5036 5355.8 5046 5355.8 5054 5349.9 5046 5344.1 5056 5344.1 5064 5338.2 5061 5328.7 5064 5338.2 5056 5332.3 5064 5338.2 5061 5328.7 5057.9 5338.2 5061 5328.7 5064 5319.2 5056 5313.3 5066 5313.3 5074 5307.4 5077.1 5316.9 5069 5322.8 5061 5328.7 5057.9 5338.2 5054.8 5347.7" clip-path="url(#a)" fill="none" stroke="#000" stroke-linecap="round"/>
<polyline points="5054.8 5347.7 5062.9 5341.8 5066 5351.3 5074 5357.2 5082.1 5351.3 5090.2 5345.5 5080.2 5345.5 5072.1 5351.3 5064 5345.5 5067.1 5335.9 5059 5341.8 5051 5335.9 5041 5335.9 5049 5330.1 5052.1 5339.6 5049 5330.1 5041 5335.9 5031 5335.9 5027.9 5345.5 5024.8 5335.9 5034.8 5335.9 5044.8 5335.9 5052.9 5330.1 5044.8 5335.9 5041.7 5326.4 5038.6 5316.9 5046.7 5322.8 5043.6 5332.3 5040.5 5341.8 5037.4 5332.3 5027.4 5332.3 5024.3 5322.8 5014.3 5322.8 5017.4 5313.3 5009.3 5307.4 5001.2 5313.3 5009.3 5307.4 5012.4 5297.9 5002.4 5297.9 4992.4 5297.9 4989.3 5288.4 4992.4 5278.9 4995.5 5269.4" clip-path="url(#a)" fill="none" stroke="#000" stroke-linecap="round"/>
<polyline points="4995.5 5269.4 4998.6 5259.9 4995.5 5269.4 5003.6 5275.2 5006.7 5265.7 5003.6 5275.2 5000.5 5265.7 4997.4 5256.2 4987.4 5256.2 4977.4 5256.2 4969.3 5250.3 4972.4 5259.9 4982.4 5259.9 4974.3 5254 4966.2 5248.1 4969.3 5238.6 4959.3 5238.6 4962.4 5229.1 4965.5 5238.6 4962.4 5248.1 4959.3 5238.6 4951.2 5244.5 4959.3 5250.3 4951.2 5244.5 4943.1 5238.6 4951.2 5232.7 4959.3 5238.6 4951.2 5232.7 4948.1 5242.2 4956.2 5236.3 4964.3 5230.5 4956.2 5224.6 4946.2 5224.6 4954.3 5230.5 4964.3 5230.5 4961.2 5221 4969.3 5226.8 4979.3 5226.8 4982.4 5217.3 4979.3 5226.8 4976.2 5217.3 4979.3 5226.8 4982.4 5217.3" clip-path="url(#a)" fill="none" stroke="#000" stroke-linecap="round"/>
<polyline points="4982.4 5217.3 4974.3 5223.2 4982.4 5217.3 4990.5 5211.4 4987.4 5201.9 4995.5 5207.8 5005.5 5207.8 5002.4 5217.3 4992.4 5217.3 4982.4 5217.3 4974.3 5223.2 4966.2 5229.1 4976.2 5229.1 4973.1 5238.6 4976.2 5248.1 4986.2 5248.1 4996.2 5248.1 4988.1 5242.2 4978.1 5242.2 4975 5232.7 4983.1 5226.8 4973.1 5226.8 4970 5217.3 4962 5211.4 4972 5211.4 4968.9 5221 4972 5211.4 4962 5211.4 4953.9 5205.6 4945.8 5211.4 4948.9 5201.9 4957 5207.8 4965 5213.7 4975 5213.7 4965 5213.7 4968.1 5204.2 4971.2 5194.7 4974.3 5204.2 4966.2 5210.1 4958.1 5215.9 4961.2 5206.4 4953.1 5200.5 4956.2 5191" clip-path="url(#a)" fill="none" stroke="#000" stroke-linecap="round"/>
<polyline points="4956.2 5191 4948.1 5185.2 4956.2 5179.3 4953.1 5169.8 4943.1 5169.8 4953.1 5169.8 4961.2 5163.9 4953.1 5158 4945 5152.1 4948.1 5142.6 4956.2 5136.8 4964.3 5130.9 4972.4 5125 4964.3 5130.9 4967.4 5140.4 4975.5 5134.5 4967.4 5140.4 4970.5 5130.9 4973.6 5121.4 4965.5 5115.5 4957.4 5109.6 4954.3 5100.1 4951.2 5109.6 4959.3 5115.5 4956.2 5106 4953.1 5096.5 4961.2 5090.6 4953.1 5084.7 4961.2 5078.8 4958.1 5088.3 4950 5094.2 4953.1 5084.7 4943.1 5084.7 4946.2 5094.2 4943.1 5084.7 4940 5075.2 4950 5075.2 4953.1 5084.7 4950 5075.2 4942 5081.1 4952 5081.1 4962 5081.1 4958.9 5071.6" clip-path="url(#a)" fill="none" stroke="#000" stroke-linecap="round"/>
<polyline points="4958.9 5071.6 4950.8 5065.7 4953.9 5075.2 4962 5081.1 4965 5071.6 4968.1 5081.1 4976.2 5087 4984.3 5081.1 4976.2 5087 4979.3 5077.4 4976.2 5087 4984.3 5081.1 4974.3 5081.1 4984.3 5081.1 4994.3 5081.1 4997.4 5071.6 5000.5 5081.1 5008.6 5087 5000.5 5092.8 4992.4 5087 4984.3 5081.1 4974.3 5081.1 4964.3 5081.1 4972.4 5087 4964.3 5092.8 4961.2 5102.3 4969.3 5108.2 4977.4 5114.1 4974.3 5104.6 4966.2 5098.7 4969.3 5089.2 4979.3 5089.2 4971.2 5083.3 4974.3 5073.8 4971.2 5064.3 4979.3 5070.2 4971.2 5076.1 4979.3 5070.2 4971.2 5064.3 4968.1 5054.8 4958.1 5054.8 4966.2 5048.9 4969.3 5058.4" clip-path="url(#a)" fill="none" stroke="#000" stroke-linecap="round"/>
<polyline points="4969.3 5058.4 4972.4 5067.9 4980.5 5073.8 4972.4 5067.9 4980.5 5062.1 4988.6 5056.2 4985.5 5065.7 4975.5 5065.7 4965.5 5065.7 4973.6 5059.8 4970.5 5050.3 4978.6 5044.4 4975.5 5034.9 4985.5 5034.9 4988.6 5025.4 4980.5 5019.5 4988.6 5025.4 4998.6 5025.4 4995.5 5015.9 4992.4 5006.4 5000.5 5000.5" clip-path="url(#a)" fill="none" stroke="#000" stroke-linecap="round"/>
</svg>
