<?xml version="1.0" encoding="UTF-8"?>
<svg width="1e4px" height="1e4px" baseProfile="full" version="1.1" viewBox="4906.2 4822.2 236.98 237.56" xmlns="http://www.w3.org/2000/svg">
<defs>
<clipPath id="a">
<rect width="1e4" height="1e4"/>
</clipPath>
</defs>
<polyline points="5000.5 5000.5 5010.5 5000.5 5020.5 5000.5 5030.5 5000.5 5020.5 5000.5 5012.4 5006.4 5004.3 5000.5 4994.3 5000.5 4997.4 5010 5000.5 5000.5 5008.6 5006.4 5018.6 5006.4 5008.6 5006.4 4998.6 5006.4 4995.5 5015.9 4998.6 5006.4 5006.7 5000.5 5014.8 4994.6 5011.7 5004.1 5003.6 4998.3 5000.5 5007.8 5003.6 4998.3 5011.7 5004.1 5003.6 4998.3 4993.6 4998.3 4990.5 5007.8 4982.4 5013.6 4990.5 5007.8 4982.4 5001.9 4979.3 5011.4 4976.2 5001.9 4986.2 5001.9 4989.3 5011.4 4979.3 5011.4 4989.3 5011.4 4981.2 5017.3 4991.2 5017.3 4988.1 5026.8 4985 5017.3 4993.1 5023.2 4990 5032.7 5e3 5032.7 5008.1 5038.5" clip-path="url(#a)" fill="none" stroke="#000" stroke-linecap="round"/>
<polyline points="5008.1 5038.5 5011.2 5029 5019.3 5034.9 5016.2 5044.4 5024.3 5050.3 5027.4 5040.8 5037.4 5040.8 5034.3 5031.3 5031.2 5040.8 5034.3 5050.3 5031.2 5059.8 5028.1 5050.3 5036.2 5044.4 5046.2 5044.4 5054.3 5038.5 5057.4 5029 5065.5 5023.2 5068.6 5013.6 5076.7 5019.5 5084.8 5025.4 5087.9 5034.9 5079.8 5040.8 5089.8 5040.8 5081.7 5034.9 5089.8 5040.8 5081.7 5034.9 5078.6 5025.4 5081.7 5034.9 5073.6 5040.8 5081.7 5034.9 5071.7 5034.9 5063.6 5029 5055.5 5034.9 5058.6 5044.4 5068.6 5044.4 5065.5 5053.9 5057.4 5059.8 5054.3 5050.3 5057.4 5040.8 5049.3 5034.9 5057.4 5029 5047.4 5029 5055.5 5023.2" clip-path="url(#a)" fill="none" stroke="#000" stroke-linecap="round"/>
<polyline points="5055.5 5023.2 5058.6 5013.6 5055.5 5004.1 5047.4 5010 5037.4 5010 5034.3 5000.5 5037.4 4991 5040.5 5000.5 5048.6 4994.6 5051.7 5004.1 5059.8 4998.3 5067.9 4992.4 5059.8 4998.3 5062.9 4988.7 5071 4982.9 5081 4982.9 5072.9 4977 5076 4967.5 5072.9 4958 5081 4952.1 5077.9 4961.6 5081 4952.1 5072.9 4946.2 5076 4936.7 5067.9 4942.6 5057.9 4942.6 5061 4933.1 5052.9 4938.9 5044.8 4944.8 5034.8 4944.8 5037.9 4954.3 5047.9 4954.3 5039.8 4960.2 5049.8 4960.2 5052.9 4950.7 5044.8 4956.6 5036.7 4950.7 5044.8 4944.8 5052.9 4938.9 5042.9 4938.9 5051 4933.1 5047.9 4942.6 5057.9 4942.6" clip-path="url(#a)" fill="none" stroke="#000" stroke-linecap="round"/>
<polyline points="5057.9 4942.6 5061 4933.1 5057.9 4923.6 5047.9 4923.6 5056 4929.4 5059 4919.9 5056 4929.4 5064 4935.3 5067.1 4925.8 5057.1 4925.8 5049 4931.7 5052.1 4922.2 5055.2 4912.7 5058.3 4922.2 5068.3 4922.2 5076.4 4916.3 5079.5 4925.8 5071.4 4919.9 5061.4 4919.9 5069.5 4914 5061.4 4919.9 5053.3 4914 5045.2 4908.2 5042.1 4917.7 5045.2 4927.2 5048.3 4936.7 5040.2 4942.6 5032.1 4936.7 5024 4930.8 5027.1 4921.3 5019 4915.4 5016 4905.9 5012.9 4896.4 5004.8 4890.5 5012.9 4896.4 5004.8 4890.5 5007.9 4900 5011 4890.5 5014 4881 5006 4886.9 5002.9 4896.4 5011 4890.5 5002.9 4896.4" clip-path="url(#a)" fill="none" stroke="#000" stroke-linecap="round"/>
<polyline points="5002.9 4896.4 4994.8 4902.3 4991.7 4892.8 5001.7 4892.8 4998.6 4902.3 5006.7 4908.2 5014.8 4914 5022.9 4908.2 5031 4902.3 5034 4911.8 5044 4911.8 5034 4911.8 5037.1 4921.3 5029 4927.2 5021 4921.3 5031 4921.3 5041 4921.3 5049 4915.4 5057.1 4909.6 5049 4903.7 5059 4903.7 5062.1 4894.2 5065.2 4903.7 5062.1 4913.2 5070.2 4907.3 5062.1 4901.4 5054 4895.6 5046 4889.7 5054 4895.6 5064 4895.6 5067.1 4905.1 5075.2 4910.9 5078.3 4901.4 5070.2 4907.3 5067.1 4897.8 5059 4891.9 5067.1 4897.8 5075.2 4903.7 5083.3 4897.8 5075.2 4903.7 5065.2 4903.7 5055.2 4903.7 5063.3 4897.8" clip-path="url(#a)" fill="none" stroke="#000" stroke-linecap="round"/>
<polyline points="5063.3 4897.8 5066.4 4907.3 5074.5 4901.4 5066.4 4907.3 5063.3 4897.8 5066.4 4907.3 5074.5 4913.2 5082.6 4907.3 5092.6 4907.3 5082.6 4907.3 5085.7 4916.8 5093.8 4910.9 5090.7 4920.5 5082.6 4914.6 5085.7 4905.1 5093.8 4910.9 5085.7 4905.1 5095.7 4905.1 5087.6 4899.2 5095.7 4893.3 5092.6 4902.8 5089.5 4893.3 5097.6 4887.4 5089.5 4881.6 5086.4 4872 5078.3 4877.9 5075.2 4868.4 5083.3 4862.5 5080.2 4853 5072.1 4858.9 5064 4853 5061 4862.5 5069 4856.7 5072.1 4847.1 5080.2 4841.3 5077.1 4850.8 5067.1 4850.8 5059 4844.9 5049 4844.9 5041 4850.8 5031 4850.8 5022.9 4856.7 5019.8 4847.1" clip-path="url(#a)" fill="none" stroke="#000" stroke-linecap="round"/>
<polyline points="5019.8 4847.1 5016.7 4837.6 5019.8 4828.1 5029.8 4828.1 5021.7 4822.2 5024.8 4831.8 5021.7 4822.2 5024.8 4831.8 5021.7 4841.3 5024.8 4831.8 5034.8 4831.8 5024.8 4831.8 5032.9 4837.6 5036 4847.1 5046 4847.1 5049 4837.6 5041 4831.8 5049 4825.9 5059 4825.9 5056 4835.4 5047.9 4841.3 5051 4850.8 5041 4850.8 5049 4856.7 5039 4856.7 5031 4862.5 5027.9 4872 5037.9 4872 5046 4877.9 5042.9 4887.4 5034.8 4893.3 5037.9 4883.8 5027.9 4883.8 5031 4874.3 5021 4874.3 5011 4874.3 5021 4874.3 5012.9 4880.2 5002.9 4880.2 4994.8 4874.3 4997.9 4883.8 4989.8 4889.7 4986.7 4899.2" clip-path="url(#a)" fill="none" stroke="#000" stroke-linecap="round"/>
<polyline points="4986.7 4899.2 4976.7 4899.2 4984.8 4893.3 4976.7 4899.2 4979.8 4908.7 4971.7 4914.6 4981.7 4914.6 4989.8 4920.5 4981.7 4926.3 4991.7 4926.3 5001.7 4926.3 5009.8 4932.2 5012.9 4922.7 5004.8 4916.8 5014.8 4916.8 5006.7 4910.9 4998.6 4916.8 5008.6 4916.8 5011.7 4926.3 5001.7 4926.3 4991.7 4926.3 4999.8 4932.2 4989.8 4932.2 4997.9 4926.3 4989.8 4920.5 4981.7 4926.3 4978.6 4935.8 4986.7 4941.7 4983.6 4932.2 4975.5 4938.1 4983.6 4932.2 4980.5 4922.7 4972.4 4928.6 4980.5 4934.5 4990.5 4934.5 4982.4 4940.3 4974.3 4946.2 4977.4 4936.7 4969.3 4930.8 4959.3 4930.8 4962.4 4921.3 4965.5 4930.8 4973.6 4936.7" clip-path="url(#a)" fill="none" stroke="#000" stroke-linecap="round"/>
<polyline points="4973.6 4936.7 4963.6 4936.7 4973.6 4936.7 4976.7 4946.2 4979.8 4955.7 4987.9 4949.8 4991 4940.3 4994 4930.8 5004 4930.8 5007.1 4940.3 5010.2 4949.8 5002.1 4955.7 5005.2 4965.2 5002.1 4974.7 4999 4984.3 5002.1 4993.8 4999 4984.3 5002.1 4993.8 5005.2 4984.3 4997.1 4990.1 4989 4996 4999 4996 5007.1 4990.1 4997.1 4990.1 5007.1 4990.1 5017.1 4990.1 5014 4999.6 5006 4993.8 5014 4987.9 5011 4978.4 5007.9 4968.9 4997.9 4968.9 4987.9 4968.9 4991 4959.4 4982.9 4953.5 4991 4959.4 4994 4949.8 5004 4949.8 5007.1 4959.4 4999 4953.5 4991 4947.6 4981 4947.6 4971 4947.6" clip-path="url(#a)" fill="none" stroke="#000" stroke-linecap="round"/>
<polyline points="4971 4947.6 4974 4957.1 4966 4951.2 4957.9 4957.1 4961 4947.6 4969 4941.7 4959 4941.7 4962.1 4951.2 4965.2 4960.7 4968.3 4970.3 4965.2 4960.7 4957.1 4954.9 4960.2 4945.4 4957.1 4935.8 4949 4941.7 4959 4941.7 4956 4951.2 4959 4960.7 4956 4951.2 4952.9 4941.7 4942.9 4941.7 4952.9 4941.7 4961 4947.6 4969 4953.5 4959 4953.5 4962.1 4944 4952.1 4944 4962.1 4944 4959 4953.5 4962.1 4944 4959 4934.5 4949 4934.5 4941 4928.6 4949 4934.5 4952.1 4924.9 4942.1 4924.9 4950.2 4919.1 4953.3 4928.6 4945.2 4934.5 4942.1 4924.9 4945.2 4934.5 4937.1 4928.6 4940.2 4938.1" clip-path="url(#a)" fill="none" stroke="#000" stroke-linecap="round"/>
<polyline points="4940.2 4938.1 4930.2 4938.1 4938.3 4932.2 4935.2 4941.7 4925.2 4941.7 4928.3 4951.2 4925.2 4960.7 4935.2 4960.7 4932.1 4970.3 4922.1 4970.3 4919 4979.8 4929 4979.8 4932.1 4989.3 4940.2 4983.4 4930.2 4983.4 4922.1 4989.3 4912.1 4989.3 4920.2 4983.4 4928.3 4989.3 4931.4 4998.8 4939.5 5004.7 4949.5 5004.7 4957.6 5010.5 4967.6 5010.5 4964.5 5020.1 4961.4 5029.6 4953.3 5035.4 4945.2 5029.6 4948.3 5039.1 4951.4 5029.6 4948.3 5039.1 4951.4 5029.6 4959.5 5023.7 4951.4 5029.6 4943.3 5023.7 4951.4 5029.6 4948.3 5020.1 4951.4 5010.5 4943.3 5004.7 4935.2 5010.5 4938.3 5020.1 4928.3 5020.1 4920.2 5014.2" clip-path="url(#a)" fill="none" stroke="#000" stroke-linecap="round"/>
<polyline points="4920.2 5014.2 4928.3 5008.3 4938.3 5008.3 4941.4 4998.8 4949.5 5004.7 4946.4 4995.2 4954.5 5001 4964.5 5001 4972.6 4995.2 4964.5 4989.3 4961.4 4979.8 4969.5 4973.9 4979.5 4973.9 4971.4 4979.8 4979.5 4985.6 4971.4 4991.5 4979.5 4997.4 4987.6 5003.3 4979.5 4997.4 4989.5 4997.4 4997.6 5003.3 5000.7 5012.8 5003.8 5003.3 5013.8 5003.3 5021.9 4997.4 5029.9 5003.3 5019.9 5003.3 5029.9 5003.3 5033 4993.8 5043 4993.8 5034.9 4987.9 5031.9 4978.4 5041.9 4978.4 5033.8 4972.5 5025.7 4966.6 5022.6 4957.1 5014.5 4963 5017.6 4972.5 5009.5 4966.6 5012.6 4976.1 5022.6 4976.1 5014.5 4970.3 5017.6 4960.7" clip-path="url(#a)" fill="none" stroke="#000" stroke-linecap="round"/>
<polyline points="5017.6 4960.7 5025.7 4966.6 5033.8 4972.5 5030.7 4963 5038.8 4968.9 5028.8 4968.9 5031.9 4978.4 5041.9 4978.4 5049.9 4972.5 5046.9 4963 5043.8 4972.5 5053.8 4972.5 5043.8 4972.5 5040.7 4982 5050.7 4982 5047.6 4972.5 5039.5 4966.6 5049.5 4966.6 5059.5 4966.6 5051.4 4972.5 5054.5 4982 5062.6 4987.9 5054.5 4993.8 5057.6 4984.3 5054.5 4974.7 5062.6 4980.6 5054.5 4974.7 5057.6 4965.2 5060.7 4955.7 5050.7 4955.7 5042.6 4961.6 5034.5 4967.5 5026.4 4961.6 5029.5 4952.1 5032.6 4942.6 5042.6 4942.6 5045.7 4933.1 5053.8 4927.2 5061.9 4921.3 5064.9 4911.8 5061.9 4921.3 5064.9 4911.8 5056.9 4917.7" clip-path="url(#a)" fill="none" stroke="#000" stroke-linecap="round"/>
<polyline points="5056.9 4917.7 5066.9 4917.7 5076.9 4917.7 5068.8 4911.8 5058.8 4911.8 5066.9 4917.7 5058.8 4911.8 5050.7 4905.9 5058.8 4900 5061.9 4909.6 5051.9 4909.6 5048.8 4919.1 5045.7 4928.6 5053.8 4934.5 5061.9 4940.3 5053.8 4946.2 5056.9 4955.7 5053.8 4946.2 5045.7 4952.1 5037.6 4946.2 5040.7 4936.7 5043.8 4946.2 5046.9 4955.7 5054.9 4961.6 5063 4967.5 5066.1 4958 5069.2 4967.5 5079.2 4967.5 5071.1 4973.4 5061.1 4973.4 5069.2 4979.2 5072.3 4969.7 5075.4 4960.2 5078.5 4950.7 5075.4 4960.2 5078.5 4969.7 5070.4 4975.6 5067.3 4985.1 5077.3 4985.1 5069.2 4979.2 5077.3 4973.4 5080.4 4963.8 5077.3 4973.4" clip-path="url(#a)" fill="none" stroke="#000" stroke-linecap="round"/>
<polyline points="5077.3 4973.4 5074.2 4982.9 5082.3 4988.7 5074.2 4982.9 5071.1 4973.4 5068 4963.8 5076.1 4969.7 5068 4975.6 5076.1 4981.5 5068 4975.6 5076.1 4969.7 5068 4975.6 5064.9 4985.1 5073 4991 5076.1 5000.5 5073 4991 5064.9 4996.9 5073 5002.7 5063 5002.7 5066.1 4993.2 5076.1 4993.2 5073 5002.7 5076.1 4993.2 5079.2 5002.7 5082.3 4993.2 5090.4 4999.1 5080.4 4999.1 5088.5 4993.2 5096.6 4999.1 5099.7 4989.6 5107.8 4983.7 5099.7 4977.8 5107.8 4972 5115.8 4977.8 5123.9 4972 5115.8 4966.1 5118.9 4956.6 5108.9 4956.6 5117 4962.5 5127 4962.5 5135.1 4968.3 5125.1 4968.3 5122 4958.8" clip-path="url(#a)" fill="none" stroke="#000" stroke-linecap="round"/>
<polyline points="5122 4958.8 5125.1 4949.3 5122 4939.8 5113.9 4933.9 5110.8 4924.4 5102.8 4918.5 5110.8 4912.7 5118.9 4906.8 5128.9 4906.8 5132 4916.3 5135.1 4906.8 5127 4912.7 5135.1 4906.8 5127 4912.7 5117 4912.7 5127 4912.7 5130.1 4922.2 5127 4912.7 5123.9 4922.2 5115.8 4928 5118.9 4937.6 5128.9 4937.6 5132 4928 5140.1 4933.9 5143.2 4943.4 5133.2 4943.4 5125.1 4937.6 5117 4943.4 5113.9 4933.9 5110.8 4943.4 5107.8 4933.9 5099.7 4928 5089.7 4928 5092.8 4937.6 5089.7 4947.1 5079.7 4947.1 5071.6 4941.2 5081.6 4941.2 5078.5 4931.7 5088.5 4931.7 5085.4 4922.2 5082.3 4912.7 5085.4 4922.2" clip-path="url(#a)" fill="none" stroke="#000" stroke-linecap="round"/>
<polyline points="5085.4 4922.2 5077.3 4916.3 5074.2 4906.8 5077.3 4897.3 5069.2 4903.1 5061.1 4897.3 5051.1 4897.3 5048 4887.8 5056.1 4893.6 5048 4887.8 5039.9 4893.6 5031.9 4887.8 5034.9 4897.3 5031.9 4906.8 5023.8 4900.9 5026.9 4910.4 5029.9 4919.9 5026.9 4929.4 5036.9 4929.4 5039.9 4919.9 5043 4929.4 5046.1 4919.9 5038 4914 5041.1 4923.6 5033 4929.4 5029.9 4919.9 5026.9 4910.4 5023.8 4919.9 5020.7 4910.4 5028.8 4916.3 5031.9 4906.8 5023.8 4900.9 5013.8 4900.9 5010.7 4910.4 5018.8 4904.5 5010.7 4898.7 5018.8 4904.5 5026.9 4898.7 5018.8 4892.8 5015.7 4902.3 5018.8 4911.8 5010.7 4905.9 5002.6 4900" clip-path="url(#a)" fill="none" stroke="#000" stroke-linecap="round"/>
<polyline points="5002.6 4900 5012.6 4900 5015.7 4890.5 5012.6 4881 5022.6 4881 5014.5 4886.9 5011.4 4896.4 5008.3 4886.9 5011.4 4896.4 5003.3 4902.3 4995.2 4908.2 5003.3 4914 5013.3 4914 5023.3 4914 5026.4 4923.6 5018.3 4929.4 5010.2 4935.3 5002.1 4929.4 4994 4935.3 4984 4935.3 4974 4935.3 4966 4941.2 4974 4935.3 4966 4941.2 4976 4941.2 4967.9 4935.3 4959.8 4929.4 4962.9 4938.9 4971 4944.8 4967.9 4935.3 4971 4944.8 4974 4954.3 4964 4954.3 4967.1 4944.8 4975.2 4950.7 4983.3 4944.8 4991.4 4938.9 4988.3 4929.4 4985.2 4919.9 4995.2 4919.9 4998.3 4910.4 4995.2 4919.9 5005.2 4919.9" clip-path="url(#a)" fill="none" stroke="#000" stroke-linecap="round"/>
<polyline points="5005.2 4919.9 5008.3 4929.4 5000.2 4935.3 5003.3 4925.8 5006.4 4916.3 5003.3 4906.8 5000.2 4897.3 4992.1 4903.1 4995.2 4893.6 4987.1 4887.8 4997.1 4887.8 5005.2 4893.6 5002.1 4884.1 4994 4890 4986 4895.9 4977.9 4901.8 4986 4895.9 4989 4886.4 4999 4886.4 5007.1 4880.5 4999 4874.6 5002.1 4884.1 4992.1 4884.1 4984 4890 4992.1 4884.1 5000.2 4878.3 4997.1 4868.7 5000.2 4878.3 4997.1 4887.8 4994 4897.3 4991 4887.8 5001 4887.8 4997.9 4878.3 5001 4887.8 4991 4887.8 5001 4887.8 5009 4881.9 5006 4872.4 5009 4862.9 5006 4872.4 5016 4872.4 5012.9 4862.9 5021 4868.7" clip-path="url(#a)" fill="none" stroke="#000" stroke-linecap="round"/>
<polyline points="5021 4868.7 5012.9 4874.6 5004.8 4868.7 5012.9 4862.9 5004.8 4868.7 5007.9 4859.2 4999.8 4865.1 4996.7 4855.6 5004.8 4861.5 4994.8 4861.5 4991.7 4852 4983.6 4857.8 4973.6 4857.8 4976.7 4867.4 4966.7 4867.4 4963.6 4857.8 4953.6 4857.8 4956.7 4867.4 4948.6 4873.2 4956.7 4879.1 4953.6 4869.6 4945.5 4863.7 4942.4 4854.2 4950.5 4860.1 4947.4 4869.6 4939.3 4875.5 4936.2 4885 4939.3 4894.5 4936.2 4904 4939.3 4913.5 4929.3 4913.5 4919.3 4913.5 4911.2 4907.6 4914.3 4898.1 4906.2 4904 4916.2 4904 4906.2 4904 4916.2 4904 4924.3 4909.9 4916.2 4904 4919.3 4894.5 4916.2 4904 4924.3 4898.1" clip-path="url(#a)" fill="none" stroke="#000" stroke-linecap="round"/>
<polyline points="4924.3 4898.1 4934.3 4898.1 4937.4 4888.6 4929.3 4882.7 4921.2 4888.6 4918.1 4879.1 4921.2 4869.6 4929.3 4875.5 4932.4 4885 4942.4 4885 4939.3 4894.5 4947.4 4888.6 4944.3 4898.1 4947.4 4907.6 4955.5 4913.5 4958.6 4904 4966.7 4898.1 4974.8 4904 4977.9 4913.5 4969.8 4907.6 4966.7 4917.2 4958.6 4911.3 4955.5 4920.8 4952.4 4930.3 4955.5 4920.8 4958.6 4930.3 4955.5 4939.8 4947.4 4945.7 4957.4 4945.7 4960.5 4955.2 4968.6 4961.1 4965.5 4970.6 4962.4 4961.1 4965.5 4970.6 4975.5 4970.6 4978.6 4980.1 4981.7 4970.6 4989.8 4964.7 4992.9 4974.2 4996 4964.7 4999 4955.2 5007.1 4949.3 4999 4943.4" clip-path="url(#a)" fill="none" stroke="#000" stroke-linecap="round"/>
<polyline points="4999 4943.4 4991 4949.3 4994 4939.8 4986 4945.7 4989 4955.2 4992.1 4945.7 5002.1 4945.7 4999 4955.2 4996 4964.7 5004 4958.8 5001 4968.3 4997.9 4958.8 4989.8 4964.7 4992.9 4974.2 5001 4980.1 5009 4974.2 4999 4974.2 5002.1 4983.7 4999 4974.2 4989 4974.2 4992.1 4983.7 5000.2 4977.8 5003.3 4968.3 5006.4 4977.8 5009.5 4987.4 5001.4 4981.5 4993.3 4987.4 4990.2 4996.9 4982.1 4991 4992.1 4991 5000.2 4985.1 4997.1 4994.6 5000.2 4985.1 5010.2 4985.1 5020.2 4985.1 5017.1 4975.6 5009 4969.7 5001 4963.8 5004 4954.3 5014 4954.3 5024 4954.3 5027.1 4963.8 5037.1 4963.8" clip-path="url(#a)" fill="none" stroke="#000" stroke-linecap="round"/>
<polyline points="5037.1 4963.8 5045.2 4969.7 5053.3 4975.6 5063.3 4975.6 5053.3 4975.6 5063.3 4975.6 5055.2 4969.7 5058.3 4979.2 5061.4 4988.7 5064.5 4979.2 5061.4 4969.7 5058.3 4979.2 5061.4 4969.7 5064.5 4960.2 5072.6 4966.1 5064.5 4972 5061.4 4962.5 5051.4 4962.5 5041.4 4962.5 5038.3 4972 5035.2 4981.5 5027.1 4975.6 5019 4981.5 5027.1 4975.6 5019 4969.7 5022.1 4960.2 5032.1 4960.2 5024 4966.1 5016 4972 5012.9 4981.5 5009.8 4991 5019.8 4991 5011.7 4996.9 5014.8 5006.4 5006.7 5000.5 5003.6 4991 5000.5 5000.5 5010.5 5000.5 5020.5 5000.5 5030.5 5000.5 5020.5 5000.5 5012.4 5006.4 5004.3 5000.5" clip-path="url(#a)" fill="none" stroke="#000" stroke-linecap="round"/>
<polyline points="5004.3 5000.5 4994.3 5000.5 4997.4 5010 5000.5 5000.5 5008.6 5006.4 5018.6 5006.4 5008.6 5006.4 4998.6 5006.4 4995.5 5015.9 4998.6 5006.4 5006.7 5000.5 5014.8 4994.6 5011.7 5004.1 5003.6 4998.3 5000.5 5007.8 5003.6 4998.3 5011.7 5004.1 5003.6 4998.3 4993.6 4998.3 4990.5 5007.8 4982.4 5013.6 4990.5 5007.8 4982.4 5001.9 4979.3 5011.4 4976.2 5001.9 4986.2 5001.9 4989.3 5011.4 4979.3 5011.4 4989.3 5011.4 4981.2 5017.3 4991.2 5017.3 4988.1 5026.8 4985 5017.3 4993.1 5023.2 4990 5032.7 5e3 5032.7 5008.1 5038.5 5011.2 5029 5019.3 5034.9 5016.2 5044.4 5024.3 5050.3 5027.4 5040.8 5037.4 5040.8" clip-path="url(#a)" fill="none" stroke="#000" stroke-linecap="round"/>
<polyline points="5037.4 5040.8 5034.3 5031.3 5031.2 5040.8 5034.3 5050.3 5031.2 5059.8 5028.1 5050.3 5036.2 5044.4 5046.2 5044.4 5054.3 5038.5 5057.4 5029 5065.5 5023.2 5068.6 5013.6 5076.7 5019.5 5084.8 5025.4 5087.9 5034.9 5079.8 5040.8 5089.8 5040.8 5081.7 5034.9 5089.8 5040.8 5081.7 5034.9 5078.6 5025.4 5081.7 5034.9 5073.6 5040.8 5081.7 5034.9 5071.7 5034.9 5063.6 5029 5055.5 5034.9 5058.6 5044.4 5068.6 5044.4 5065.5 5053.9 5057.4 5059.8 5054.3 5050.3 5057.4 5040.8 5049.3 5034.9 5057.4 5029 5047.4 5029 5055.5 5023.2 5058.6 5013.6 5055.5 5004.1 5047.4 5010 5037.4 5010 5034.3 5000.5 5037.4 4991" clip-path="url(#a)" fill="none" stroke="#000" stroke-linecap="round"/>
<polyline points="5037.4 4991 5040.5 5000.5 5048.6 4994.6 5051.7 5004.1 5059.8 4998.3 5067.9 4992.4 5059.8 4998.3 5062.9 4988.7 5071 4982.9 5081 4982.9 5072.9 4977 5076 4967.5 5072.9 4958 5081 4952.1 5077.9 4961.6 5081 4952.1 5072.9 4946.2 5076 4936.7 5067.9 4942.6 5057.9 4942.6 5061 4933.1 5052.9 4938.9 5044.8 4944.8 5034.8 4944.8 5037.9 4954.3 5047.9 4954.3 5039.8 4960.2 5049.8 4960.2 5052.9 4950.7 5044.8 4956.6 5036.7 4950.7 5044.8 4944.8 5052.9 4938.9 5042.9 4938.9 5051 4933.1 5047.9 4942.6 5057.9 4942.6 5061 4933.1 5057.9 4923.6 5047.9 4923.6 5056 4929.4 5059 4919.9 5056 4929.4" clip-path="url(#a)" fill="none" stroke="#000" stroke-linecap="round"/>
<polyline points="5056 4929.4 5064 4935.3 5067.1 4925.8 5057.1 4925.8 5049 4931.7 5052.1 4922.2 5055.2 4912.7 5058.3 4922.2 5068.3 4922.2 5076.4 4916.3 5079.5 4925.8 5071.4 4919.9 5061.4 4919.9 5069.5 4914 5061.4 4919.9 5053.3 4914 5045.2 4908.2 5042.1 4917.7 5045.2 4927.2 5048.3 4936.7 5040.2 4942.6 5032.1 4936.7 5024 4930.8 5027.1 4921.3 5019 4915.4 5016 4905.9 5012.9 4896.4 5004.8 4890.5 5012.9 4896.4 5004.8 4890.5 5007.9 4900 5011 4890.5 5014 4881 5006 4886.9 5002.9 4896.4 5011 4890.5 5002.9 4896.4 4994.8 4902.3 4991.7 4892.8 5001.7 4892.8 4998.6 4902.3 5006.7 4908.2 5014.8 4914" clip-path="url(#a)" fill="none" stroke="#000" stroke-linecap="round"/>
<polyline points="5014.8 4914 5022.9 4908.2 5031 4902.3 5034 4911.8 5044 4911.8 5034 4911.8 5037.1 4921.3 5029 4927.2 5021 4921.3 5031 4921.3 5041 4921.3 5049 4915.4 5057.1 4909.6 5049 4903.7 5059 4903.7 5062.1 4894.2 5065.2 4903.7 5062.1 4913.2 5070.2 4907.3 5062.1 4901.4 5054 4895.6 5046 4889.7 5054 4895.6 5064 4895.6 5067.1 4905.1 5075.2 4910.9 5078.3 4901.4 5070.2 4907.3 5067.1 4897.8 5059 4891.9 5067.1 4897.8 5075.2 4903.7 5083.3 4897.8 5075.2 4903.7 5065.2 4903.7 5055.2 4903.7 5063.3 4897.8 5066.4 4907.3 5074.5 4901.4 5066.4 4907.3 5063.3 4897.8 5066.4 4907.3 5074.5 4913.2" clip-path="url(#a)" fill="none" stroke="#000" stroke-linecap="round"/>
<polyline points="5074.5 4913.2 5082.6 4907.3 5092.6 4907.3 5082.6 4907.3 5085.7 4916.8 5093.8 4910.9 5090.7 4920.5 5082.6 4914.6 5085.7 4905.1 5093.8 4910.9 5085.7 4905.1 5095.7 4905.1 5087.6 4899.2 5095.7 4893.3 5092.6 4902.8 5089.5 4893.3 5097.6 4887.4 5089.5 4881.6 5086.4 4872 5078.3 4877.9 5075.2 4868.4 5083.3 4862.5 5080.2 4853 5072.1 4858.9 5064 4853 5061 4862.5 5069 4856.7 5072.1 4847.1 5080.2 4841.3 5077.1 4850.8 5067.1 4850.8 5059 4844.9 5049 4844.9 5041 4850.8 5031 4850.8 5022.9 4856.7 5019.8 4847.1 5016.7 4837.6 5019.8 4828.1 5029.8 4828.1 5021.7 4822.2 5024.8 4831.8 5021.7 4822.2" clip-path="url(#a)" fill="none" stroke="#000" stroke-linecap="round"/>
<polyline points="5021.7 4822.2 5024.8 4831.8 5021.7 4841.3 5024.8 4831.8 5034.8 4831.8 5024.8 4831.8 5032.9 4837.6 5036 4847.1 5046 4847.1 5049 4837.6 5041 4831.8 5049 4825.9 5059 4825.9 5056 4835.4 5047.9 4841.3 5051 4850.8 5041 4850.8 5049 4856.7 5039 4856.7 5031 4862.5 5027.9 4872 5037.9 4872 5046 4877.9 5042.9 4887.4 5034.8 4893.3 5037.9 4883.8 5027.9 4883.8 5031 4874.3 5021 4874.3 5011 4874.3 5021 4874.3 5012.9 4880.2 5002.9 4880.2 4994.8 4874.3 4997.9 4883.8 4989.8 4889.7 4986.7 4899.2 4976.7 4899.2 4984.8 4893.3 4976.7 4899.2 4979.8 4908.7 4971.7 4914.6 4981.7 4914.6" clip-path="url(#a)" fill="none" stroke="#000" stroke-linecap="round"/>
<polyline points="4981.7 4914.6 4989.8 4920.5 4981.7 4926.3 4991.7 4926.3 5001.7 4926.3 5009.8 4932.2 5012.9 4922.7 5004.8 4916.8 5014.8 4916.8 5006.7 4910.9 4998.6 4916.8 5008.6 4916.8 5011.7 4926.3 5001.7 4926.3 4991.7 4926.3 4999.8 4932.2 4989.8 4932.2 4997.9 4926.3 4989.8 4920.5 4981.7 4926.3 4978.6 4935.8 4986.7 4941.7 4983.6 4932.2 4975.5 4938.1 4983.6 4932.2 4980.5 4922.7 4972.4 4928.6 4980.5 4934.5 4990.5 4934.5 4982.4 4940.3 4974.3 4946.2 4977.4 4936.7 4969.3 4930.8 4959.3 4930.8 4962.4 4921.3 4965.5 4930.8 4973.6 4936.7 4963.6 4936.7 4973.6 4936.7 4976.7 4946.2 4979.8 4955.7 4987.9 4949.8 4991 4940.3" clip-path="url(#a)" fill="none" stroke="#000" stroke-linecap="round"/>
<polyline points="4991 4940.3 4994 4930.8 5004 4930.8 5007.1 4940.3 5010.2 4949.8 5002.1 4955.7 5005.2 4965.2 5002.1 4974.7 4999 4984.3 5002.1 4993.8 4999 4984.3 5002.1 4993.8 5005.2 4984.3 4997.1 4990.1 4989 4996 4999 4996 5007.1 4990.1 4997.1 4990.1 5007.1 4990.1 5017.1 4990.1 5014 4999.6 5006 4993.8 5014 4987.9 5011 4978.4 5007.9 4968.9 4997.9 4968.9 4987.9 4968.9 4991 4959.4 4982.9 4953.5 4991 4959.4 4994 4949.8 5004 4949.8 5007.1 4959.4 4999 4953.5 4991 4947.6 4981 4947.6 4971 4947.6 4974 4957.1 4966 4951.2 4957.9 4957.1 4961 4947.6 4969 4941.7 4959 4941.7" clip-path="url(#a)" fill="none" stroke="#000" stroke-linecap="round"/>
<polyline points="4959 4941.7 4962.1 4951.2 4965.2 4960.7 4968.3 4970.3 4965.2 4960.7 4957.1 4954.9 4960.2 4945.4 4957.1 4935.8 4949 4941.7 4959 4941.7 4956 4951.2 4959 4960.7 4956 4951.2 4952.9 4941.7 4942.9 4941.7 4952.9 4941.7 4961 4947.6 4969 4953.5 4959 4953.5 4962.1 4944 4952.1 4944 4962.1 4944 4959 4953.5 4962.1 4944 4959 4934.5 4949 4934.5 4941 4928.6 4949 4934.5 4952.1 4924.9 4942.1 4924.9 4950.2 4919.1 4953.3 4928.6 4945.2 4934.5 4942.1 4924.9 4945.2 4934.5 4937.1 4928.6 4940.2 4938.1 4930.2 4938.1 4938.3 4932.2 4935.2 4941.7 4925.2 4941.7 4928.3 4951.2 4925.2 4960.7" clip-path="url(#a)" fill="none" stroke="#000" stroke-linecap="round"/>
<polyline points="4925.2 4960.7 4935.2 4960.7 4932.1 4970.3 4922.1 4970.3 4919 4979.8 4929 4979.8 4932.1 4989.3 4940.2 4983.4 4930.2 4983.4 4922.1 4989.3 4912.1 4989.3 4920.2 4983.4 4928.3 4989.3 4931.4 4998.8 4939.5 5004.7 4949.5 5004.7 4957.6 5010.5 4967.6 5010.5 4964.5 5020.1 4961.4 5029.6 4953.3 5035.4 4945.2 5029.6 4948.3 5039.1 4951.4 5029.6 4948.3 5039.1 4951.4 5029.6 4959.5 5023.7 4951.4 5029.6 4943.3 5023.7 4951.4 5029.6 4948.3 5020.1 4951.4 5010.5 4943.3 5004.7 4935.2 5010.5 4938.3 5020.1 4928.3 5020.1 4920.2 5014.2 4928.3 5008.3 4938.3 5008.3 4941.4 4998.8 4949.5 5004.7 4946.4 4995.2 4954.5 5001" clip-path="url(#a)" fill="none" stroke="#000" stroke-linecap="round"/>
<polyline points="4954.5 5001 4964.5 5001 4972.6 4995.2 4964.5 4989.3 4961.4 4979.8 4969.5 4973.9 4979.5 4973.9 4971.4 4979.8 4979.5 4985.6 4971.4 4991.5 4979.5 4997.4 4987.6 5003.3 4979.5 4997.4 4989.5 4997.4 4997.6 5003.3 5000.7 5012.8 5003.8 5003.3 5013.8 5003.3 5021.9 4997.4 5029.9 5003.3 5019.9 5003.3 5029.9 5003.3 5033 4993.8 5043 4993.8 5034.9 4987.9 5031.9 4978.4 5041.9 4978.4 5033.8 4972.5 5025.7 4966.6 5022.6 4957.1 5014.5 4963 5017.6 4972.5 5009.5 4966.6 5012.6 4976.1 5022.6 4976.1 5014.5 4970.3 5017.6 4960.7 5025.7 4966.6 5033.8 4972.5 5030.7 4963 5038.8 4968.9 5028.8 4968.9 5031.9 4978.4" clip-path="url(#a)" fill="none" stroke="#000" stroke-linecap="round"/>
<polyline points="5031.9 4978.4 5041.9 4978.4 5049.9 4972.5 5046.9 4963 5043.8 4972.5 5053.8 4972.5 5043.8 4972.5 5040.7 4982 5050.7 4982 5047.6 4972.5 5039.5 4966.6 5049.5 4966.6 5059.5 4966.6 5051.4 4972.5 5054.5 4982 5062.6 4987.9 5054.5 4993.8 5057.6 4984.3 5054.5 4974.7 5062.6 4980.6 5054.5 4974.7 5057.6 4965.2 5060.7 4955.7 5050.7 4955.7 5042.6 4961.6 5034.5 4967.5 5026.4 4961.6 5029.5 4952.1 5032.6 4942.6 5042.6 4942.6 5045.7 4933.1 5053.8 4927.2 5061.9 4921.3 5064.9 4911.8 5061.9 4921.3 5064.9 4911.8 5056.9 4917.7 5066.9 4917.7 5076.9 4917.7 5068.8 4911.8 5058.8 4911.8 5066.9 4917.7 5058.8 4911.8" clip-path="url(#a)" fill="none" stroke="#000" stroke-linecap="round"/>
<polyline points="5058.8 4911.8 5050.7 4905.9 5058.8 4900 5061.9 4909.6 5051.9 4909.6 5048.8 4919.1 5045.7 4928.6 5053.8 4934.5 5061.9 4940.3 5053.8 4946.2 5056.9 4955.7 5053.8 4946.2 5045.7 4952.1 5037.6 4946.2 5040.7 4936.7 5043.8 4946.2 5046.9 4955.7 5054.9 4961.6 5063 4967.5 5066.1 4958 5069.2 4967.5 5079.2 4967.5 5071.1 4973.4 5061.1 4973.4 5069.2 4979.2 5072.3 4969.7 5075.4 4960.2 5078.5 4950.7 5075.4 4960.2 5078.5 4969.7 5070.4 4975.6 5067.3 4985.1 5077.3 4985.1 5069.2 4979.2 5077.3 4973.4 5080.4 4963.8 5077.3 4973.4 5074.2 4982.9 5082.3 4988.7 5074.2 4982.9 5071.1 4973.4 5068 4963.8 5076.1 4969.7" clip-path="url(#a)" fill="none" stroke="#000" stroke-linecap="round"/>
<polyline points="5076.1 4969.7 5068 4975.6 5076.1 4981.5 5068 4975.6 5076.1 4969.7 5068 4975.6 5064.9 4985.1 5073 4991 5076.1 5000.5 5073 4991 5064.9 4996.9 5073 5002.7 5063 5002.7 5066.1 4993.2 5076.1 4993.2 5073 5002.7 5076.1 4993.2 5079.2 5002.7 5082.3 4993.2 5090.4 4999.1 5080.4 4999.1 5088.5 4993.2 5096.6 4999.1 5099.7 4989.6 5107.8 4983.7 5099.7 4977.8 5107.8 4972 5115.8 4977.8 5123.9 4972 5115.8 4966.1 5118.9 4956.6 5108.9 4956.6 5117 4962.5 5127 4962.5 5135.1 4968.3 5125.1 4968.3 5122 4958.8 5125.1 4949.3 5122 4939.8 5113.9 4933.9 5110.8 4924.4 5102.8 4918.5 5110.8 4912.7" clip-path="url(#a)" fill="none" stroke="#000" stroke-linecap="round"/>
<polyline points="5110.8 4912.7 5118.9 4906.8 5128.9 4906.8 5132 4916.3 5135.1 4906.8 5127 4912.7 5135.1 4906.8 5127 4912.7 5117 4912.7 5127 4912.7 5130.1 4922.2 5127 4912.7 5123.9 4922.2 5115.8 4928 5118.9 4937.6 5128.9 4937.6 5132 4928 5140.1 4933.9 5143.2 4943.4 5133.2 4943.4 5125.1 4937.6 5117 4943.4 5113.9 4933.9 5110.8 4943.4 5107.8 4933.9 5099.7 4928 5089.7 4928 5092.8 4937.6 5089.7 4947.1 5079.7 4947.1 5071.6 4941.2 5081.6 4941.2 5078.5 4931.7 5088.5 4931.7 5085.4 4922.2 5082.3 4912.7 5085.4 4922.2 5077.3 4916.3 5074.2 4906.8 5077.3 4897.3 5069.2 4903.1 5061.1 4897.3 5051.1 4897.3" clip-path="url(#a)" fill="none" stroke="#000" stroke-linecap="round"/>
<polyline points="5051.1 4897.3 5048 4887.8 5056.1 4893.6 5048 4887.8 5039.9 4893.6 5031.9 4887.8 5034.9 4897.3 5031.9 4906.8 5023.8 4900.9 5026.9 4910.4 5029.9 4919.9 5026.9 4929.4 5036.9 4929.4 5039.9 4919.9 5043 4929.4 5046.1 4919.9 5038 4914 5041.1 4923.6 5033 4929.4 5029.9 4919.9 5026.9 4910.4 5023.8 4919.9 5020.7 4910.4 5028.8 4916.3 5031.9 4906.8 5023.8 4900.9 5013.8 4900.9 5010.7 4910.4 5018.8 4904.5 5010.7 4898.7 5018.8 4904.5 5026.9 4898.7 5018.8 4892.8 5015.7 4902.3 5018.8 4911.8 5010.7 4905.9 5002.6 4900 5012.6 4900 5015.7 4890.5 5012.6 4881 5022.6 4881 5014.5 4886.9 5011.4 4896.4" clip-path="url(#a)" fill="none" stroke="#000" stroke-linecap="round"/>
<polyline points="5011.4 4896.4 5008.3 4886.9 5011.4 4896.4 5003.3 4902.3 4995.2 4908.2 5003.3 4914 5013.3 4914 5023.3 4914 5026.4 4923.6 5018.3 4929.4 5010.2 4935.3 5002.1 4929.4 4994 4935.3 4984 4935.3 4974 4935.3 4966 4941.2 4974 4935.3 4966 4941.2 4976 4941.2 4967.9 4935.3 4959.8 4929.4 4962.9 4938.9 4971 4944.8 4967.9 4935.3 4971 4944.8 4974 4954.3 4964 4954.3 4967.1 4944.8 4975.2 4950.7 4983.3 4944.8 4991.4 4938.9 4988.3 4929.4 4985.2 4919.9 4995.2 4919.9 4998.3 4910.4 4995.2 4919.9 5005.2 4919.9 5008.3 4929.4 5000.2 4935.3 5003.3 4925.8 5006.4 4916.3 5003.3 4906.8 5000.2 4897.3" clip-path="url(#a)" fill="none" stroke="#000" stroke-linecap="round"/>
<polyline points="5000.2 4897.3 4992.1 4903.1 4995.2 4893.6 4987.1 4887.8 4997.1 4887.8 5005.2 4893.6 5002.1 4884.1 4994 4890 4986 4895.9 4977.9 4901.8 4986 4895.9 4989 4886.4 4999 4886.4 5007.1 4880.5 4999 4874.6 5002.1 4884.1 4992.1 4884.1 4984 4890 4992.1 4884.1 5000.2 4878.3 4997.1 4868.7 5000.2 4878.3 4997.1 4887.8 4994 4897.3 4991 4887.8 5001 4887.8 4997.9 4878.3 5001 4887.8 4991 4887.8 5001 4887.8 5009 4881.9 5006 4872.4 5009 4862.9 5006 4872.4 5016 4872.4 5012.9 4862.9 5021 4868.7 5012.9 4874.6 5004.8 4868.7 5012.9 4862.9 5004.8 4868.7 5007.9 4859.2 4999.8 4865.1" clip-path="url(#a)" fill="none" stroke="#000" stroke-linecap="round"/>
<polyline points="4999.8 4865.1 4996.7 4855.6 5004.8 4861.5 4994.8 4861.5 4991.7 4852 4983.6 4857.8 4973.6 4857.8 4976.7 4867.4 4966.7 4867.4 4963.6 4857.8 4953.6 4857.8 4956.7 4867.4 4948.6 4873.2 4956.7 4879.1 4953.6 4869.6 4945.5 4863.7 4942.4 4854.2 4950.5 4860.1 4947.4 4869.6 4939.3 4875.5 4936.2 4885 4939.3 4894.5 4936.2 4904 4939.3 4913.5 4929.3 4913.5 4919.3 4913.5 4911.2 4907.6 4914.3 4898.1 4906.2 4904 4916.2 4904 4906.2 4904 4916.2 4904 4924.3 4909.9 4916.2 4904 4919.3 4894.5 4916.2 4904 4924.3 4898.1 4934.3 4898.1 4937.4 4888.6 4929.3 4882.7 4921.2 4888.6 4918.1 4879.1 4921.2 4869.6" clip-path="url(#a)" fill="none" stroke="#000" stroke-linecap="round"/>
<polyline points="4921.2 4869.6 4929.3 4875.5 4932.4 4885 4942.4 4885 4939.3 4894.5 4947.4 4888.6 4944.3 4898.1 4947.4 4907.6 4955.5 4913.5 4958.6 4904 4966.7 4898.1 4974.8 4904 4977.9 4913.5 4969.8 4907.6 4966.7 4917.2 4958.6 4911.3 4955.5 4920.8 4952.4 4930.3 4955.5 4920.8 4958.6 4930.3 4955.5 4939.8 4947.4 4945.7 4957.4 4945.7 4960.5 4955.2 4968.6 4961.1 4965.5 4970.6 4962.4 4961.1 4965.5 4970.6 4975.5 4970.6 4978.6 4980.1 4981.7 4970.6 4989.8 4964.7 4992.9 4974.2 4996 4964.7 4999 4955.2 5007.1 4949.3 4999 4943.4 4991 4949.3 4994 4939.8 4986 4945.7 4989 4955.2 4992.1 4945.7 5002.1 4945.7" clip-path="url(#a)" fill="none" stroke="#000" stroke-linecap="round"/>
<polyline points="5002.1 4945.7 4999 4955.2 4996 4964.7 5004 4958.8 5001 4968.3 4997.9 4958.8 4989.8 4964.7 4992.9 4974.2 5001 4980.1 5009 4974.2 4999 4974.2 5002.1 4983.7 4999 4974.2 4989 4974.2 4992.1 4983.7 5000.2 4977.8 5003.3 4968.3 5006.4 4977.8 5009.5 4987.4 5001.4 4981.5 4993.3 4987.4 4990.2 4996.9 4982.1 4991 4992.1 4991 5000.2 4985.1 4997.1 4994.6 5000.2 4985.1 5010.2 4985.1 5020.2 4985.1 5017.1 4975.6 5009 4969.7 5001 4963.8 5004 4954.3 5014 4954.3 5024 4954.3 5027.1 4963.8 5037.1 4963.8 5045.2 4969.7 5053.3 4975.6 5063.3 4975.6 5053.3 4975.6 5063.3 4975.6 5055.2 4969.7" clip-path="url(#a)" fill="none" stroke="#000" stroke-linecap="round"/>
<polyline points="5055.2 4969.7 5058.3 4979.2 5061.4 4988.7 5064.5 4979.2 5061.4 4969.7 5058.3 4979.2 5061.4 4969.7 5064.5 4960.2 5072.6 4966.1 5064.5 4972 5061.4 4962.5 5051.4 4962.5 5041.4 4962.5 5038.3 4972 5035.2 4981.5 5027.1 4975.6 5019 4981.5 5027.1 4975.6 5019 4969.7 5022.1 4960.2 5032.1 4960.2 5024 4966.1 5016 4972 5012.9 4981.5 5009.8 4991 5019.8 4991 5011.7 4996.9 5014.8 5006.4 5006.7 5000.5 5003.6 4991 5000.5 5000.5 5010.5 5000.5 5020.5 5000.5 5030.5 5000.5 5020.5 5000.5 5012.4 5006.4 5004.3 5000.5 4994.3 5000.5 4997.4 5010 5000.5 5000.5 5008.6 5006.4 5018.6 5006.4 5008.6 5006.4" clip-path="url(#a)" fill="none" stroke="#000" stroke-linecap="round"/>
<polyline points="5008.6 5006.4 4998.6 5006.4 4995.5 5015.9 4998.6 5006.4 5006.7 5000.5 5014.8 4994.6 5011.7 5004.1 5003.6 4998.3 5000.5 5007.8 5003.6 4998.3 5011.7 5004.1 5003.6 4998.3 4993.6 4998.3 4990.5 5007.8 4982.4 5013.6 4990.5 5007.8 4982.4 5001.9 4979.3 5011.4 4976.2 5001.9 4986.2 5001.9 4989.3 5011.4 4979.3 5011.4 4989.3 5011.4 4981.2 5017.3 4991.2 5017.3 4988.1 5026.8 4985 5017.3 4993.1 5023.2 4990 5032.7 5e3 5032.7 5008.1 5038.5 5011.2 5029 5019.3 5034.9 5016.2 5044.4 5024.3 5050.3 5027.4 5040.8 5037.4 5040.8 5034.3 5031.3 5031.2 5040.8 5034.3 5050.3 5031.2 5059.8 5028.1 5050.3 5036.2 5044.4" clip-path="url(#a)" fill="none" stroke="#000" stroke-linecap="round"/>
<polyline points="5036.2 5044.4 5046.2 5044.4 5054.3 5038.5 5057.4 5029 5065.5 5023.2 5068.6 5013.6 5076.7 5019.5 5084.8 5025.4 5087.9 5034.9 5079.8 5040.8 5089.8 5040.8 5081.7 5034.9 5089.8 5040.8 5081.7 5034.9 5078.6 5025.4 5081.7 5034.9 5073.6 5040.8 5081.7 5034.9 5071.7 5034.9 5063.6 5029 5055.5 5034.9 5058.6 5044.4 5068.6 5044.4 5065.5 5053.9 5057.4 5059.8 5054.3 5050.3 5057.4 5040.8 5049.3 5034.9 5057.4 5029 5047.4 5029 5055.5 5023.2 5058.6 5013.6 5055.5 5004.1 5047.4 5010 5037.4 5010 5034.3 5000.5 5037.4 4991 5040.5 5000.5 5048.6 4994.6 5051.7 5004.1 5059.8 4998.3 5067.9 4992.4 5059.8 4998.3" clip-path="url(#a)" fill="none" stroke="#000" stroke-linecap="round"/>
<polyline points="5059.8 4998.3 5062.9 4988.7 5071 4982.9 5081 4982.9 5072.9 4977 5076 4967.5 5072.9 4958 5081 4952.1 5077.9 4961.6 5081 4952.1 5072.9 4946.2 5076 4936.7 5067.9 4942.6 5057.9 4942.6 5061 4933.1 5052.9 4938.9 5044.8 4944.8 5034.8 4944.8 5037.9 4954.3 5047.9 4954.3 5039.8 4960.2 5049.8 4960.2 5052.9 4950.7 5044.8 4956.6 5036.7 4950.7 5044.8 4944.8 5052.9 4938.9 5042.9 4938.9 5051 4933.1 5047.9 4942.6 5057.9 4942.6 5061 4933.1 5057.9 4923.6 5047.9 4923.6 5056 4929.4 5059 4919.9 5056 4929.4 5064 4935.3 5067.1 4925.8 5057.1 4925.8 5049 4931.7 5052.1 4922.2 5055.2 4912.7" clip-path="url(#a)" fill="none" stroke="#000" stroke-linecap="round"/>
<polyline points="5055.2 4912.7 5058.3 4922.2 5068.3 4922.2 5076.4 4916.3 5079.5 4925.8 5071.4 4919.9 5061.4 4919.9 5069.5 4914 5061.4 4919.9 5053.3 4914 5045.2 4908.2 5042.1 4917.7 5045.2 4927.2 5048.3 4936.7 5040.2 4942.6 5032.1 4936.7 5024 4930.8 5027.1 4921.3 5019 4915.4 5016 4905.9 5012.9 4896.4 5004.8 4890.5 5012.9 4896.4 5004.8 4890.5 5007.9 4900 5011 4890.5 5014 4881 5006 4886.9 5002.9 4896.4 5011 4890.5 5002.9 4896.4 4994.8 4902.3 4991.7 4892.8 5001.7 4892.8 4998.6 4902.3 5006.7 4908.2 5014.8 4914 5022.9 4908.2 5031 4902.3 5034 4911.8 5044 4911.8 5034 4911.8 5037.1 4921.3" clip-path="url(#a)" fill="none" stroke="#000" stroke-linecap="round"/>
<polyline points="5037.1 4921.3 5029 4927.2 5021 4921.3 5031 4921.3 5041 4921.3 5049 4915.4 5057.1 4909.6 5049 4903.7 5059 4903.7 5062.1 4894.2 5065.2 4903.7 5062.1 4913.2 5070.2 4907.3 5062.1 4901.4 5054 4895.6 5046 4889.7 5054 4895.6 5064 4895.6 5067.1 4905.1 5075.2 4910.9 5078.3 4901.4 5070.2 4907.3 5067.1 4897.8 5059 4891.9 5067.1 4897.8 5075.2 4903.7 5083.3 4897.8 5075.2 4903.7 5065.2 4903.7 5055.2 4903.7 5063.3 4897.8 5066.4 4907.3 5074.5 4901.4 5066.4 4907.3 5063.3 4897.8 5066.4 4907.3 5074.5 4913.2 5082.6 4907.3 5092.6 4907.3 5082.6 4907.3 5085.7 4916.8 5093.8 4910.9 5090.7 4920.5" clip-path="url(#a)" fill="none" stroke="#000" stroke-linecap="round"/>
<polyline points="5090.7 4920.5 5082.6 4914.6 5085.7 4905.1 5093.8 4910.9 5085.7 4905.1 5095.7 4905.1 5087.6 4899.2 5095.7 4893.3 5092.6 4902.8 5089.5 4893.3 5097.6 4887.4 5089.5 4881.6 5086.4 4872 5078.3 4877.9 5075.2 4868.4 5083.3 4862.5 5080.2 4853 5072.1 4858.9 5064 4853 5061 4862.5 5069 4856.7 5072.1 4847.1 5080.2 4841.3 5077.1 4850.8 5067.1 4850.8 5059 4844.9 5049 4844.9 5041 4850.8 5031 4850.8 5022.9 4856.7 5019.8 4847.1 5016.7 4837.6 5019.8 4828.1 5029.8 4828.1 5021.7 4822.2 5024.8 4831.8 5021.7 4822.2 5024.8 4831.8 5021.7 4841.3 5024.8 4831.8 5034.8 4831.8 5024.8 4831.8 5032.9 4837.6" clip-path="url(#a)" fill="none" stroke="#000" stroke-linecap="round"/>
<polyline points="5032.9 4837.6 5036 4847.1 5046 4847.1 5049 4837.6 5041 4831.8 5049 4825.9 5059 4825.9 5056 4835.4 5047.9 4841.3 5051 4850.8 5041 4850.8 5049 4856.7 5039 4856.7 5031 4862.5 5027.9 4872 5037.9 4872 5046 4877.9 5042.9 4887.4 5034.8 4893.3 5037.9 4883.8 5027.9 4883.8 5031 4874.3 5021 4874.3 5011 4874.3 5021 4874.3 5012.9 4880.2 5002.9 4880.2 4994.8 4874.3 4997.9 4883.8 4989.8 4889.7 4986.7 4899.2 4976.7 4899.2 4984.8 4893.3 4976.7 4899.2 4979.8 4908.7 4971.7 4914.6 4981.7 4914.6 4989.8 4920.5 4981.7 4926.3 4991.7 4926.3 5001.7 4926.3 5009.8 4932.2 5012.9 4922.7" clip-path="url(#a)" fill="none" stroke="#000" stroke-linecap="round"/>
<polyline points="5012.9 4922.7 5004.8 4916.8 5014.8 4916.8 5006.7 4910.9 4998.6 4916.8 5008.6 4916.8 5011.7 4926.3 5001.7 4926.3 4991.7 4926.3 4999.8 4932.2 4989.8 4932.2 4997.9 4926.3 4989.8 4920.5 4981.7 4926.3 4978.6 4935.8 4986.7 4941.7 4983.6 4932.2 4975.5 4938.1 4983.6 4932.2 4980.5 4922.7 4972.4 4928.6 4980.5 4934.5 4990.5 4934.5 4982.4 4940.3 4974.3 4946.2 4977.4 4936.7 4969.3 4930.8 4959.3 4930.8 4962.4 4921.3 4965.5 4930.8 4973.6 4936.7 4963.6 4936.7 4973.6 4936.7 4976.7 4946.2 4979.8 4955.7 4987.9 4949.8 4991 4940.3 4994 4930.8 5004 4930.8 5007.1 4940.3 5010.2 4949.8 5002.1 4955.7 5005.2 4965.2" clip-path="url(#a)" fill="none" stroke="#000" stroke-linecap="round"/>
<polyline points="5005.2 4965.2 5002.1 4974.7 4999 4984.3 5002.1 4993.8 4999 4984.3 5002.1 4993.8 5005.2 4984.3 4997.1 4990.1 4989 4996 4999 4996 5007.1 4990.1 4997.1 4990.1 5007.1 4990.1 5017.1 4990.1 5014 4999.6 5006 4993.8 5014 4987.9 5011 4978.4 5007.9 4968.9 4997.9 4968.9 4987.9 4968.9 4991 4959.4 4982.9 4953.5 4991 4959.4 4994 4949.8 5004 4949.8 5007.1 4959.4 4999 4953.5 4991 4947.6 4981 4947.6 4971 4947.6 4974 4957.1 4966 4951.2 4957.9 4957.1 4961 4947.6 4969 4941.7 4959 4941.7 4962.1 4951.2 4965.2 4960.7 4968.3 4970.3 4965.2 4960.7 4957.1 4954.9 4960.2 4945.4" clip-path="url(#a)" fill="none" stroke="#000" stroke-linecap="round"/>
<polyline points="4960.2 4945.4 4957.1 4935.8 4949 4941.7 4959 4941.7 4956 4951.2 4959 4960.7 4956 4951.2 4952.9 4941.7 4942.9 4941.7 4952.9 4941.7 4961 4947.6 4969 4953.5 4959 4953.5 4962.1 4944 4952.1 4944 4962.1 4944 4959 4953.5 4962.1 4944 4959 4934.5 4949 4934.5 4941 4928.6 4949 4934.5 4952.1 4924.9 4942.1 4924.9 4950.2 4919.1 4953.3 4928.6 4945.2 4934.5 4942.1 4924.9 4945.2 4934.5 4937.1 4928.6 4940.2 4938.1 4930.2 4938.1 4938.3 4932.2 4935.2 4941.7 4925.2 4941.7 4928.3 4951.2 4925.2 4960.7 4935.2 4960.7 4932.1 4970.3 4922.1 4970.3 4919 4979.8 4929 4979.8 4932.1 4989.3" clip-path="url(#a)" fill="none" stroke="#000" stroke-linecap="round"/>
<polyline points="4932.1 4989.3 4940.2 4983.4 4930.2 4983.4 4922.1 4989.3 4912.1 4989.3 4920.2 4983.4 4928.3 4989.3 4931.4 4998.8 4939.5 5004.7 4949.5 5004.7 4957.6 5010.5 4967.6 5010.5 4964.5 5020.1 4961.4 5029.6 4953.3 5035.4 4945.2 5029.6 4948.3 5039.1 4951.4 5029.6 4948.3 5039.1 4951.4 5029.6 4959.5 5023.7 4951.4 5029.6 4943.3 5023.7 4951.4 5029.6 4948.3 5020.1 4951.4 5010.5 4943.3 5004.7 4935.2 5010.5 4938.3 5020.1 4928.3 5020.1 4920.2 5014.2 4928.3 5008.3 4938.3 5008.3 4941.4 4998.8 4949.5 5004.7 4946.4 4995.2 4954.5 5001 4964.5 5001 4972.6 4995.2 4964.5 4989.3 4961.4 4979.8 4969.5 4973.9 4979.5 4973.9" clip-path="url(#a)" fill="none" stroke="#000" stroke-linecap="round"/>
<polyline points="4979.5 4973.9 4971.4 4979.8 4979.5 4985.6 4971.4 4991.5 4979.5 4997.4 4987.6 5003.3 4979.5 4997.4 4989.5 4997.4 4997.6 5003.3 5000.7 5012.8 5003.8 5003.3 5013.8 5003.3 5021.9 4997.4 5029.9 5003.3 5019.9 5003.3 5029.9 5003.3 5033 4993.8 5043 4993.8 5034.9 4987.9 5031.9 4978.4 5041.9 4978.4 5033.8 4972.5 5025.7 4966.6 5022.6 4957.1 5014.5 4963 5017.6 4972.5 5009.5 4966.6 5012.6 4976.1 5022.6 4976.1 5014.5 4970.3 5017.6 4960.7 5025.7 4966.6 5033.8 4972.5 5030.7 4963 5038.8 4968.9 5028.8 4968.9 5031.9 4978.4 5041.9 4978.4 5049.9 4972.5 5046.9 4963 5043.8 4972.5 5053.8 4972.5 5043.8 4972.5" clip-path="url(#a)" fill="none" stroke="#000" stroke-linecap="round"/>
<polyline points="5043.8 4972.5 5040.7 4982 5050.7 4982 5047.6 4972.5 5039.5 4966.6 5049.5 4966.6 5059.5 4966.6 5051.4 4972.5 5054.5 4982 5062.6 4987.9 5054.5 4993.8 5057.6 4984.3 5054.5 4974.7 5062.6 4980.6 5054.5 4974.7 5057.6 4965.2 5060.7 4955.7 5050.7 4955.7 5042.6 4961.6 5034.5 4967.5 5026.4 4961.6 5029.5 4952.1 5032.6 4942.6 5042.6 4942.6 5045.7 4933.1 5053.8 4927.2 5061.9 4921.3 5064.9 4911.8 5061.9 4921.3 5064.9 4911.8 5056.9 4917.7 5066.9 4917.7 5076.9 4917.7 5068.8 4911.8 5058.8 4911.8 5066.9 4917.7 5058.8 4911.8 5050.7 4905.9 5058.8 4900 5061.9 4909.6 5051.9 4909.6 5048.8 4919.1 5045.7 4928.6" clip-path="url(#a)" fill="none" stroke="#000" stroke-linecap="round"/>
<polyline points="5045.7 4928.6 5053.8 4934.5 5061.9 4940.3 5053.8 4946.2 5056.9 4955.7 5053.8 4946.2 5045.7 4952.1 5037.6 4946.2 5040.7 4936.7 5043.8 4946.2 5046.9 4955.7 5054.9 4961.6 5063 4967.5 5066.1 4958 5069.2 4967.5 5079.2 4967.5 5071.1 4973.4 5061.1 4973.4 5069.2 4979.2 5072.3 4969.7 5075.4 4960.2 5078.5 4950.7 5075.4 4960.2 5078.5 4969.7 5070.4 4975.6 5067.3 4985.1 5077.3 4985.1 5069.2 4979.2 5077.3 4973.4 5080.4 4963.8 5077.3 4973.4 5074.2 4982.9 5082.3 4988.7 5074.2 4982.9 5071.1 4973.4 5068 4963.8 5076.1 4969.7 5068 4975.6 5076.1 4981.5 5068 4975.6 5076.1 4969.7 5068 4975.6 5064.9 4985.1" clip-path="url(#a)" fill="none" stroke="#000" stroke-linecap="round"/>
<polyline points="5064.9 4985.1 5073 4991 5076.1 5000.5 5073 4991 5064.9 4996.9 5073 5002.7 5063 5002.7 5066.1 4993.2 5076.1 4993.2 5073 5002.7 5076.1 4993.2 5079.2 5002.7 5082.3 4993.2 5090.4 4999.1 5080.4 4999.1 5088.5 4993.2 5096.6 4999.1 5099.7 4989.6 5107.8 4983.7 5099.7 4977.8 5107.8 4972 5115.8 4977.8 5123.9 4972 5115.8 4966.1 5118.9 4956.6 5108.9 4956.6 5117 4962.5 5127 4962.5 5135.1 4968.3 5125.1 4968.3 5122 4958.8 5125.1 4949.3 5122 4939.8 5113.9 4933.9 5110.8 4924.4 5102.8 4918.5 5110.8 4912.7 5118.9 4906.8 5128.9 4906.8 5132 4916.3 5135.1 4906.8 5127 4912.7 5135.1 4906.8" clip-path="url(#a)" fill="none" stroke="#000" stroke-linecap="round"/>
<polyline points="5135.1 4906.8 5127 4912.7 5117 4912.7 5127 4912.7 5130.1 4922.2 5127 4912.7 5123.9 4922.2 5115.8 4928 5118.9 4937.6 5128.9 4937.6 5132 4928 5140.1 4933.9 5143.2 4943.4 5133.2 4943.4 5125.1 4937.6 5117 4943.4 5113.9 4933.9 5110.8 4943.4 5107.8 4933.9 5099.7 4928 5089.7 4928 5092.8 4937.6 5089.7 4947.1 5079.7 4947.1 5071.6 4941.2 5081.6 4941.2 5078.5 4931.7 5088.5 4931.7 5085.4 4922.2 5082.3 4912.7 5085.4 4922.2 5077.3 4916.3 5074.2 4906.8 5077.3 4897.3 5069.2 4903.1 5061.1 4897.3 5051.1 4897.3 5048 4887.8 5056.1 4893.6 5048 4887.8 5039.9 4893.6 5031.9 4887.8 5034.9 4897.3" clip-path="url(#a)" fill="none" stroke="#000" stroke-linecap="round"/>
<polyline points="5034.9 4897.3 5031.9 4906.8 5023.8 4900.9 5026.9 4910.4 5029.9 4919.9 5026.9 4929.4 5036.9 4929.4 5039.9 4919.9 5043 4929.4 5046.1 4919.9 5038 4914 5041.1 4923.6 5033 4929.4 5029.9 4919.9 5026.9 4910.4 5023.8 4919.9 5020.7 4910.4 5028.8 4916.3 5031.9 4906.8 5023.8 4900.9 5013.8 4900.9 5010.7 4910.4 5018.8 4904.5 5010.7 4898.7 5018.8 4904.5 5026.9 4898.7 5018.8 4892.8 5015.7 4902.3 5018.8 4911.8 5010.7 4905.9 5002.6 4900 5012.6 4900 5015.7 4890.5 5012.6 4881 5022.6 4881 5014.5 4886.9 5011.4 4896.4 5008.3 4886.9 5011.4 4896.4 5003.3 4902.3 4995.2 4908.2 5003.3 4914 5013.3 4914" clip-path="url(#a)" fill="none" stroke="#000" stroke-linecap="round"/>
<polyline points="5013.3 4914 5023.3 4914 5026.4 4923.6 5018.3 4929.4 5010.2 4935.3 5002.1 4929.4 4994 4935.3 4984 4935.3 4974 4935.3 4966 4941.2 4974 4935.3 4966 4941.2 4976 4941.2 4967.9 4935.3 4959.8 4929.4 4962.9 4938.9 4971 4944.8 4967.9 4935.3 4971 4944.8 4974 4954.3 4964 4954.3 4967.1 4944.8 4975.2 4950.7 4983.3 4944.8 4991.4 4938.9 4988.3 4929.4 4985.2 4919.9 4995.2 4919.9 4998.3 4910.4 4995.2 4919.9 5005.2 4919.9 5008.3 4929.4 5000.2 4935.3 5003.3 4925.8 5006.4 4916.3 5003.3 4906.8 5000.2 4897.3 4992.1 4903.1 4995.2 4893.6 4987.1 4887.8 4997.1 4887.8 5005.2 4893.6 5002.1 4884.1" clip-path="url(#a)" fill="none" stroke="#000" stroke-linecap="round"/>
<polyline points="5002.1 4884.1 4994 4890 4986 4895.9 4977.9 4901.8 4986 4895.9 4989 4886.4 4999 4886.4 5007.1 4880.5 4999 4874.6 5002.1 4884.1 4992.1 4884.1 4984 4890 4992.1 4884.1 5000.2 4878.3 4997.1 4868.7 5000.2 4878.3 4997.1 4887.8 4994 4897.3 4991 4887.8 5001 4887.8 4997.9 4878.3 5001 4887.8 4991 4887.8 5001 4887.8 5009 4881.9 5006 4872.4 5009 4862.9 5006 4872.4 5016 4872.4 5012.9 4862.9 5021 4868.7 5012.9 4874.6 5004.8 4868.7 5012.9 4862.9 5004.8 4868.7 5007.9 4859.2 4999.8 4865.1 4996.7 4855.6 5004.8 4861.5 4994.8 4861.5 4991.7 4852 4983.6 4857.8 4973.6 4857.8" clip-path="url(#a)" fill="none" stroke="#000" stroke-linecap="round"/>
<polyline points="4973.6 4857.8 4976.7 4867.4 4966.7 4867.4 4963.6 4857.8 4953.6 4857.8 4956.7 4867.4 4948.6 4873.2 4956.7 4879.1 4953.6 4869.6 4945.5 4863.7 4942.4 4854.2 4950.5 4860.1 4947.4 4869.6 4939.3 4875.5 4936.2 4885 4939.3 4894.5 4936.2 4904 4939.3 4913.5 4929.3 4913.5 4919.3 4913.5 4911.2 4907.6 4914.3 4898.1 4906.2 4904 4916.2 4904 4906.2 4904 4916.2 4904 4924.3 4909.9 4916.2 4904 4919.3 4894.5 4916.2 4904 4924.3 4898.1 4934.3 4898.1 4937.4 4888.6 4929.3 4882.7 4921.2 4888.6 4918.1 4879.1 4921.2 4869.6 4929.3 4875.5 4932.4 4885 4942.4 4885 4939.3 4894.5 4947.4 4888.6 4944.3 4898.1" clip-path="url(#a)" fill="none" stroke="#000" stroke-linecap="round"/>
<polyline points="4944.3 4898.1 4947.4 4907.6 4955.5 4913.5 4958.6 4904 4966.7 4898.1 4974.8 4904 4977.9 4913.5 4969.8 4907.6 4966.7 4917.2 4958.6 4911.3 4955.5 4920.8 4952.4 4930.3 4955.5 4920.8 4958.6 4930.3 4955.5 4939.8 4947.4 4945.7 4957.4 4945.7 4960.5 4955.2 4968.6 4961.1 4965.5 4970.6 4962.4 4961.1 4965.5 4970.6 4975.5 4970.6 4978.6 4980.1 4981.7 4970.6 4989.8 4964.7 4992.9 4974.2 4996 4964.7 4999 4955.2 5007.1 4949.3 4999 4943.4 4991 4949.3 4994 4939.8 4986 4945.7 4989 4955.2 4992.1 4945.7 5002.1 4945.7 4999 4955.2 4996 4964.7 5004 4958.8 5001 4968.3 4997.9 4958.8 4989.8 4964.7" clip-path="url(#a)" fill="none" stroke="#000" stroke-linecap="round"/>
<polyline points="4989.8 4964.7 4992.9 4974.2 5001 4980.1 5009 4974.2 4999 4974.2 5002.1 4983.7 4999 4974.2 4989 4974.2 4992.1 4983.7 5000.2 4977.8 5003.3 4968.3 5006.4 4977.8 5009.5 4987.4 5001.4 4981.5 4993.3 4987.4 4990.2 4996.9 4982.1 4991 4992.1 4991 5000.2 4985.1 4997.1 4994.6 5000.2 4985.1 5010.2 4985.1 5020.2 4985.1 5017.1 4975.6 5009 4969.7 5001 4963.8 5004 4954.3 5014 4954.3 5024 4954.3 5027.1 4963.8 5037.1 4963.8 5045.2 4969.7 5053.3 4975.6 5063.3 4975.6 5053.3 4975.6 5063.3 4975.6 5055.2 4969.7 5058.3 4979.2 5061.4 4988.7 5064.5 4979.2 5061.4 4969.7 5058.3 4979.2 5061.4 4969.7" clip-path="url(#a)" fill="none" stroke="#000" stroke-linecap="round"/>
<polyline points="5061.4 4969.7 5064.5 4960.2 5072.6 4966.1 5064.5 4972 5061.4 4962.5 5051.4 4962.5 5041.4 4962.5 5038.3 4972 5035.2 4981.5 5027.1 4975.6 5019 4981.5 5027.1 4975.6 5019 4969.7 5022.1 4960.2 5032.1 4960.2 5024 4966.1 5016 4972 5012.9 4981.5 5009.8 4991 5019.8 4991 5011.7 4996.9 5014.8 5006.4 5006.7 5000.5 5003.6 4991 5000.5 5000.5 5010.5 5000.5 5020.5 5000.5 5030.5 5000.5 5020.5 5000.5 5012.4 5006.4 5004.3 5000.5 4994.3 5000.5 4997.4 5010 5000.5 5000.5 5008.6 5006.4 5018.6 5006.4 5008.6 5006.4 4998.6 5006.4 4995.5 5015.9 4998.6 5006.4 5006.7 5000.5 5014.8 4994.6 5011.7 5004.1" clip-path="url(#a)" fill="none" stroke="#000" stroke-linecap="round"/>
<polyline points="5011.7 5004.1 5003.6 4998.3 5000.5 5007.8 5003.6 4998.3 5011.7 5004.1 5003.6 4998.3 4993.6 4998.3 4990.5 5007.8 4982.4 5013.6 4990.5 5007.8 4982.4 5001.9 4979.3 5011.4 4976.2 5001.9 4986.2 5001.9 4989.3 5011.4 4979.3 5011.4 4989.3 5011.4 4981.2 5017.3 4991.2 5017.3 4988.1 5026.8 4985 5017.3 4993.1 5023.2 4990 5032.7 5e3 5032.7 5008.1 5038.5 5011.2 5029 5019.3 5034.9 5016.2 5044.4 5024.3 5050.3 5027.4 5040.8 5037.4 5040.8 5034.3 5031.3 5031.2 5040.8 5034.3 5050.3 5031.2 5059.8 5028.1 5050.3 5036.2 5044.4 5046.2 5044.4 5054.3 5038.5 5057.4 5029 5065.5 5023.2 5068.6 5013.6 5076.7 5019.5" clip-path="url(#a)" fill="none" stroke="#000" stroke-linecap="round"/>
<polyline points="5076.7 5019.5 5084.8 5025.4 5087.9 5034.9 5079.8 5040.8 5089.8 5040.8 5081.7 5034.9 5089.8 5040.8 5081.7 5034.9 5078.6 5025.4 5081.7 5034.9 5073.6 5040.8 5081.7 5034.9 5071.7 5034.9 5063.6 5029 5055.5 5034.9 5058.6 5044.4 5068.6 5044.4 5065.5 5053.9 5057.4 5059.8 5054.3 5050.3 5057.4 5040.8 5049.3 5034.9 5057.4 5029 5047.4 5029 5055.5 5023.2 5058.6 5013.6 5055.5 5004.1 5047.4 5010 5037.4 5010 5034.3 5000.5 5037.4 4991 5040.5 5000.5 5048.6 4994.6 5051.7 5004.1 5059.8 4998.3 5067.9 4992.4 5059.8 4998.3 5062.9 4988.7 5071 4982.9 5081 4982.9 5072.9 4977 5076 4967.5 5072.9 4958" clip-path="url(#a)" fill="none" stroke="#000" stroke-linecap="round"/>
<polyline points="5072.9 4958 5081 4952.1 5077.9 4961.6 5081 4952.1 5072.9 4946.2 5076 4936.7 5067.9 4942.6 5057.9 4942.6 5061 4933.1 5052.9 4938.9 5044.8 4944.8 5034.8 4944.8 5037.9 4954.3 5047.9 4954.3 5039.8 4960.2 5049.8 4960.2 5052.9 4950.7 5044.8 4956.6 5036.7 4950.7 5044.8 4944.8 5052.9 4938.9 5042.9 4938.9 5051 4933.1 5047.9 4942.6 5057.9 4942.6 5061 4933.1 5057.9 4923.6 5047.9 4923.6 5056 4929.4 5059 4919.9 5056 4929.4 5064 4935.3 5067.1 4925.8 5057.1 4925.8 5049 4931.7 5052.1 4922.2 5055.2 4912.7 5058.3 4922.2 5068.3 4922.2 5076.4 4916.3 5079.5 4925.8 5071.4 4919.9 5061.4 4919.9" clip-path="url(#a)" fill="none" stroke="#000" stroke-linecap="round"/>
<polyline points="5061.4 4919.9 5069.5 4914 5061.4 4919.9 5053.3 4914 5045.2 4908.2 5042.1 4917.7 5045.2 4927.2 5048.3 4936.7 5040.2 4942.6 5032.1 4936.7 5024 4930.8 5027.1 4921.3 5019 4915.4 5016 4905.9 5012.9 4896.4 5004.8 4890.5 5012.9 4896.4 5004.8 4890.5 5007.9 4900 5011 4890.5 5014 4881 5006 4886.9 5002.9 4896.4 5011 4890.5 5002.9 4896.4 4994.8 4902.3 4991.7 4892.8 5001.7 4892.8 4998.6 4902.3 5006.7 4908.2 5014.8 4914 5022.9 4908.2 5031 4902.3 5034 4911.8 5044 4911.8 5034 4911.8 5037.1 4921.3 5029 4927.2 5021 4921.3 5031 4921.3 5041 4921.3 5049 4915.4 5057.1 4909.6" clip-path="url(#a)" fill="none" stroke="#000" stroke-linecap="round"/>
<polyline points="5057.1 4909.6 5049 4903.7 5059 4903.7 5062.1 4894.2 5065.2 4903.7 5062.1 4913.2 5070.2 4907.3 5062.1 4901.4 5054 4895.6 5046 4889.7 5054 4895.6 5064 4895.6 5067.1 4905.1 5075.2 4910.9 5078.3 4901.4 5070.2 4907.3 5067.1 4897.8 5059 4891.9 5067.1 4897.8 5075.2 4903.7 5083.3 4897.8 5075.2 4903.7 5065.2 4903.7 5055.2 4903.7 5063.3 4897.8 5066.4 4907.3 5074.5 4901.4 5066.4 4907.3 5063.3 4897.8 5066.4 4907.3 5074.5 4913.2 5082.6 4907.3 5092.6 4907.3 5082.6 4907.3 5085.7 4916.8 5093.8 4910.9 5090.7 4920.5 5082.6 4914.6 5085.7 4905.1 5093.8 4910.9 5085.7 4905.1 5095.7 4905.1 5087.6 4899.2" clip-path="url(#a)" fill="none" stroke="#000" stroke-linecap="round"/>
<polyline points="5087.6 4899.2 5095.7 4893.3 5092.6 4902.8 5089.5 4893.3 5097.6 4887.4 5089.5 4881.6 5086.4 4872 5078.3 4877.9 5075.2 4868.4 5083.3 4862.5 5080.2 4853 5072.1 4858.9 5064 4853 5061 4862.5 5069 4856.7 5072.1 4847.1 5080.2 4841.3 5077.1 4850.8 5067.1 4850.8 5059 4844.9 5049 4844.9 5041 4850.8 5031 4850.8 5022.9 4856.7 5019.8 4847.1 5016.7 4837.6 5019.8 4828.1 5029.8 4828.1 5021.7 4822.2 5024.8 4831.8 5021.7 4822.2 5024.8 4831.8 5021.7 4841.3 5024.8 4831.8 5034.8 4831.8 5024.8 4831.8 5032.9 4837.6 5036 4847.1 5046 4847.1 5049 4837.6 5041 4831.8 5049 4825.9 5059 4825.9" clip-path="url(#a)" fill="none" stroke="#000" stroke-linecap="round"/>
<polyline points="5059 4825.9 5056 4835.4 5047.9 4841.3 5051 4850.8 5041 4850.8 5049 4856.7 5039 4856.7 5031 4862.5 5027.9 4872 5037.9 4872 5046 4877.9 5042.9 4887.4 5034.8 4893.3 5037.9 4883.8 5027.9 4883.8 5031 4874.3 5021 4874.3 5011 4874.3 5021 4874.3 5012.9 4880.2 5002.9 4880.2 4994.8 4874.3 4997.9 4883.8 4989.8 4889.7 4986.7 4899.2 4976.7 4899.2 4984.8 4893.3 4976.7 4899.2 4979.8 4908.7 4971.7 4914.6 4981.7 4914.6 4989.8 4920.5 4981.7 4926.3 4991.7 4926.3 5001.7 4926.3 5009.8 4932.2 5012.9 4922.7 5004.8 4916.8 5014.8 4916.8 5006.7 4910.9 4998.6 4916.8 5008.6 4916.8 5011.7 4926.3" clip-path="url(#a)" fill="none" stroke="#000" stroke-linecap="round"/>
<polyline points="5011.7 4926.3 5001.7 4926.3 4991.7 4926.3 4999.8 4932.2 4989.8 4932.2 4997.9 4926.3 4989.8 4920.5 4981.7 4926.3 4978.6 4935.8 4986.7 4941.7 4983.6 4932.2 4975.5 4938.1 4983.6 4932.2 4980.5 4922.7 4972.4 4928.6 4980.5 4934.5 4990.5 4934.5 4982.4 4940.3 4974.3 4946.2 4977.4 4936.7 4969.3 4930.8 4959.3 4930.8 4962.4 4921.3 4965.5 4930.8 4973.6 4936.7 4963.6 4936.7 4973.6 4936.7 4976.7 4946.2 4979.8 4955.7 4987.9 4949.8 4991 4940.3 4994 4930.8 5004 4930.8 5007.1 4940.3 5010.2 4949.8 5002.1 4955.7 5005.2 4965.2 5002.1 4974.7 4999 4984.3 5002.1 4993.8 4999 4984.3 5002.1 4993.8 5005.2 4984.3" clip-path="url(#a)" fill="none" stroke="#000" stroke-linecap="round"/>
<polyline points="5005.2 4984.3 4997.1 4990.1 4989 4996 4999 4996 5007.1 4990.1 4997.1 4990.1 5007.1 4990.1 5017.1 4990.1 5014 4999.6 5006 4993.8 5014 4987.9 5011 4978.4 5007.9 4968.9 4997.9 4968.9 4987.9 4968.9 4991 4959.4 4982.9 4953.5 4991 4959.4 4994 4949.8 5004 4949.8 5007.1 4959.4 4999 4953.5 4991 4947.6 4981 4947.6 4971 4947.6 4974 4957.1 4966 4951.2 4957.9 4957.1 4961 4947.6 4969 4941.7 4959 4941.7 4962.1 4951.2 4965.2 4960.7 4968.3 4970.3 4965.2 4960.7 4957.1 4954.9 4960.2 4945.4 4957.1 4935.8 4949 4941.7 4959 4941.7 4956 4951.2 4959 4960.7 4956 4951.2" clip-path="url(#a)" fill="none" stroke="#000" stroke-linecap="round"/>
<polyline points="4956 4951.2 4952.9 4941.7 4942.9 4941.7 4952.9 4941.7 4961 4947.6 4969 4953.5 4959 4953.5 4962.1 4944 4952.1 4944 4962.1 4944 4959 4953.5 4962.1 4944 4959 4934.5 4949 4934.5 4941 4928.6 4949 4934.5 4952.1 4924.9 4942.1 4924.9 4950.2 4919.1 4953.3 4928.6 4945.2 4934.5 4942.1 4924.9 4945.2 4934.5 4937.1 4928.6 4940.2 4938.1 4930.2 4938.1 4938.3 4932.2 4935.2 4941.7 4925.2 4941.7 4928.3 4951.2 4925.2 4960.7 4935.2 4960.7 4932.1 4970.3 4922.1 4970.3 4919 4979.8 4929 4979.8 4932.1 4989.3 4940.2 4983.4 4930.2 4983.4 4922.1 4989.3 4912.1 4989.3 4920.2 4983.4 4928.3 4989.3" clip-path="url(#a)" fill="none" stroke="#000" stroke-linecap="round"/>
<polyline points="4928.3 4989.3 4931.4 4998.8 4939.5 5004.7 4949.5 5004.7 4957.6 5010.5 4967.6 5010.5 4964.5 5020.1 4961.4 5029.6 4953.3 5035.4 4945.2 5029.6 4948.3 5039.1 4951.4 5029.6 4948.3 5039.1 4951.4 5029.6 4959.5 5023.7 4951.4 5029.6 4943.3 5023.7 4951.4 5029.6 4948.3 5020.1 4951.4 5010.5 4943.3 5004.7 4935.2 5010.5 4938.3 5020.1 4928.3 5020.1 4920.2 5014.2 4928.3 5008.3 4938.3 5008.3 4941.4 4998.8 4949.5 5004.7 4946.4 4995.2 4954.5 5001 4964.5 5001 4972.6 4995.2 4964.5 4989.3 4961.4 4979.8 4969.5 4973.9 4979.5 4973.9 4971.4 4979.8 4979.5 4985.6 4971.4 4991.5 4979.5 4997.4 4987.6 5003.3 4979.5 4997.4" clip-path="url(#a)" fill="none" stroke="#000" stroke-linecap="round"/>
<polyline points="4979.5 4997.4 4989.5 4997.4 4997.6 5003.3 5000.7 5012.8 5003.8 5003.3 5013.8 5003.3 5021.9 4997.4 5029.9 5003.3 5019.9 5003.3 5029.9 5003.3 5033 4993.8 5043 4993.8 5034.9 4987.9 5031.9 4978.4 5041.9 4978.4 5033.8 4972.5 5025.7 4966.6 5022.6 4957.1 5014.5 4963 5017.6 4972.5 5009.5 4966.6 5012.6 4976.1 5022.6 4976.1 5014.5 4970.3 5017.6 4960.7 5025.7 4966.6 5033.8 4972.5 5030.7 4963 5038.8 4968.9 5028.8 4968.9 5031.9 4978.4 5041.9 4978.4 5049.9 4972.5 5046.9 4963 5043.8 4972.5 5053.8 4972.5 5043.8 4972.5 5040.7 4982 5050.7 4982 5047.6 4972.5 5039.5 4966.6 5049.5 4966.6 5059.5 4966.6" clip-path="url(#a)" fill="none" stroke="#000" stroke-linecap="round"/>
<polyline points="5059.5 4966.6 5051.4 4972.5 5054.5 4982 5062.6 4987.9 5054.5 4993.8 5057.6 4984.3 5054.5 4974.7 5062.6 4980.6 5054.5 4974.7 5057.6 4965.2 5060.7 4955.7 5050.7 4955.7 5042.6 4961.6 5034.5 4967.5 5026.4 4961.6 5029.5 4952.1 5032.6 4942.6 5042.6 4942.6 5045.7 4933.1 5053.8 4927.2 5061.9 4921.3 5064.9 4911.8 5061.9 4921.3 5064.9 4911.8 5056.9 4917.7 5066.9 4917.7 5076.9 4917.7 5068.8 4911.8 5058.8 4911.8 5066.9 4917.7 5058.8 4911.8 5050.7 4905.9 5058.8 4900 5061.9 4909.6 5051.9 4909.6 5048.8 4919.1 5045.7 4928.6 5053.8 4934.5 5061.9 4940.3 5053.8 4946.2 5056.9 4955.7 5053.8 4946.2 5045.7 4952.1" clip-path="url(#a)" fill="none" stroke="#000" stroke-linecap="round"/>
<polyline points="5045.7 4952.1 5037.6 4946.2 5040.7 4936.7 5043.8 4946.2 5046.9 4955.7 5054.9 4961.6 5063 4967.5 5066.1 4958 5069.2 4967.5 5079.2 4967.5 5071.1 4973.4 5061.1 4973.4 5069.2 4979.2 5072.3 4969.7 5075.4 4960.2 5078.5 4950.7 5075.4 4960.2 5078.5 4969.7 5070.4 4975.6 5067.3 4985.1 5077.3 4985.1 5069.2 4979.2 5077.3 4973.4 5080.4 4963.8 5077.3 4973.4 5074.2 4982.9 5082.3 4988.7 5074.2 4982.9 5071.1 4973.4 5068 4963.8 5076.1 4969.7 5068 4975.6 5076.1 4981.5 5068 4975.6 5076.1 4969.7 5068 4975.6 5064.9 4985.1 5073 4991 5076.1 5000.5 5073 4991 5064.9 4996.9 5073 5002.7 5063 5002.7" clip-path="url(#a)" fill="none" stroke="#000" stroke-linecap="round"/>
<polyline points="5063 5002.7 5066.1 4993.2 5076.1 4993.2 5073 5002.7 5076.1 4993.2 5079.2 5002.7 5082.3 4993.2 5090.4 4999.1 5080.4 4999.1 5088.5 4993.2 5096.6 4999.1 5099.7 4989.6 5107.8 4983.7 5099.7 4977.8 5107.8 4972 5115.8 4977.8 5123.9 4972 5115.8 4966.1 5118.9 4956.6 5108.9 4956.6 5117 4962.5 5127 4962.5 5135.1 4968.3 5125.1 4968.3 5122 4958.8 5125.1 4949.3 5122 4939.8 5113.9 4933.9 5110.8 4924.4 5102.8 4918.5 5110.8 4912.7 5118.9 4906.8 5128.9 4906.8 5132 4916.3 5135.1 4906.8 5127 4912.7 5135.1 4906.8 5127 4912.7 5117 4912.7 5127 4912.7 5130.1 4922.2 5127 4912.7 5123.9 4922.2" clip-path="url(#a)" fill="none" stroke="#000" stroke-linecap="round"/>
<polyline points="5123.9 4922.2 5115.8 4928 5118.9 4937.6 5128.9 4937.6 5132 4928 5140.1 4933.9 5143.2 4943.4 5133.2 4943.4 5125.1 4937.6 5117 4943.4 5113.9 4933.9 5110.8 4943.4 5107.8 4933.9 5099.7 4928 5089.7 4928 5092.8 4937.6 5089.7 4947.1 5079.7 4947.1 5071.6 4941.2 5081.6 4941.2 5078.5 4931.7 5088.5 4931.7 5085.4 4922.2 5082.3 4912.7 5085.4 4922.2 5077.3 4916.3 5074.2 4906.8 5077.3 4897.3 5069.2 4903.1 5061.1 4897.3 5051.1 4897.3 5048 4887.8 5056.1 4893.6 5048 4887.8 5039.9 4893.6 5031.9 4887.8 5034.9 4897.3 5031.9 4906.8 5023.8 4900.9 5026.9 4910.4 5029.9 4919.9 5026.9 4929.4 5036.9 4929.4" clip-path="url(#a)" fill="none" stroke="#000" stroke-linecap="round"/>
<polyline points="5036.9 4929.4 5039.9 4919.9 5043 4929.4 5046.1 4919.9 5038 4914 5041.1 4923.6 5033 4929.4 5029.9 4919.9 5026.9 4910.4 5023.8 4919.9 5020.7 4910.4 5028.8 4916.3 5031.9 4906.8 5023.8 4900.9 5013.8 4900.9 5010.7 4910.4 5018.8 4904.5 5010.7 4898.7 5018.8 4904.5 5026.9 4898.7 5018.8 4892.8 5015.7 4902.3 5018.8 4911.8 5010.7 4905.9 5002.6 4900 5012.6 4900 5015.7 4890.5 5012.6 4881 5022.6 4881 5014.5 4886.9 5011.4 4896.4 5008.3 4886.9 5011.4 4896.4 5003.3 4902.3 4995.2 4908.2 5003.3 4914 5013.3 4914 5023.3 4914 5026.4 4923.6 5018.3 4929.4 5010.2 4935.3 5002.1 4929.4 4994 4935.3" clip-path="url(#a)" fill="none" stroke="#000" stroke-linecap="round"/>
<polyline points="4994 4935.3 4984 4935.3 4974 4935.3 4966 4941.2 4974 4935.3 4966 4941.2 4976 4941.2 4967.9 4935.3 4959.8 4929.4 4962.9 4938.9 4971 4944.8 4967.9 4935.3 4971 4944.8 4974 4954.3 4964 4954.3 4967.1 4944.8 4975.2 4950.7 4983.3 4944.8 4991.4 4938.9 4988.3 4929.4 4985.2 4919.9 4995.2 4919.9 4998.3 4910.4 4995.2 4919.9 5005.2 4919.9 5008.3 4929.4 5000.2 4935.3 5003.3 4925.8 5006.4 4916.3 5003.3 4906.8 5000.2 4897.3 4992.1 4903.1 4995.2 4893.6 4987.1 4887.8 4997.1 4887.8 5005.2 4893.6 5002.1 4884.1 4994 4890 4986 4895.9 4977.9 4901.8 4986 4895.9 4989 4886.4 4999 4886.4" clip-path="url(#a)" fill="none" stroke="#000" stroke-linecap="round"/>
<polyline points="4999 4886.4 5007.1 4880.5 4999 4874.6 5002.1 4884.1 4992.1 4884.1 4984 4890 4992.1 4884.1 5000.2 4878.3 4997.1 4868.7 5000.2 4878.3 4997.1 4887.8 4994 4897.3 4991 4887.8 5001 4887.8 4997.9 4878.3 5001 4887.8 4991 4887.8 5001 4887.8 5009 4881.9 5006 4872.4 5009 4862.9 5006 4872.4 5016 4872.4 5012.9 4862.9 5021 4868.7 5012.9 4874.6 5004.8 4868.7 5012.9 4862.9 5004.8 4868.7 5007.9 4859.2 4999.8 4865.1 4996.7 4855.6 5004.8 4861.5 4994.8 4861.5 4991.7 4852 4983.6 4857.8 4973.6 4857.8 4976.7 4867.4 4966.7 4867.4 4963.6 4857.8 4953.6 4857.8 4956.7 4867.4 4948.6 4873.2" clip-path="url(#a)" fill="none" stroke="#000" stroke-linecap="round"/>
<polyline points="4948.6 4873.2 4956.7 4879.1 4953.6 4869.6 4945.5 4863.7 4942.4 4854.2 4950.5 4860.1 4947.4 4869.6 4939.3 4875.5 4936.2 4885 4939.3 4894.5 4936.2 4904 4939.3 4913.5 4929.3 4913.5 4919.3 4913.5 4911.2 4907.6 4914.3 4898.1 4906.2 4904 4916.2 4904 4906.2 4904 4916.2 4904 4924.3 4909.9 4916.2 4904 4919.3 4894.5 4916.2 4904 4924.3 4898.1 4934.3 4898.1 4937.4 4888.6 4929.3 4882.7 4921.2 4888.6 4918.1 4879.1 4921.2 4869.6 4929.3 4875.5 4932.4 4885 4942.4 4885 4939.3 4894.5 4947.4 4888.6 4944.3 4898.1 4947.4 4907.6 4955.5 4913.5 4958.6 4904 4966.7 4898.1 4974.8 4904 4977.9 4913.5" clip-path="url(#a)" fill="none" stroke="#000" stroke-linecap="round"/>
<polyline points="4977.9 4913.5 4969.8 4907.6 4966.7 4917.2 4958.6 4911.3 4955.5 4920.8 4952.4 4930.3 4955.5 4920.8 4958.6 4930.3 4955.5 4939.8 4947.4 4945.7 4957.4 4945.7 4960.5 4955.2 4968.6 4961.1 4965.5 4970.6 4962.4 4961.1 4965.5 4970.6 4975.5 4970.6 4978.6 4980.1 4981.7 4970.6 4989.8 4964.7 4992.9 4974.2 4996 4964.7 4999 4955.2 5007.1 4949.3 4999 4943.4 4991 4949.3 4994 4939.8 4986 4945.7 4989 4955.2 4992.1 4945.7 5002.1 4945.7 4999 4955.2 4996 4964.7 5004 4958.8 5001 4968.3 4997.9 4958.8 4989.8 4964.7 4992.9 4974.2 5001 4980.1 5009 4974.2 4999 4974.2 5002.1 4983.7 4999 4974.2" clip-path="url(#a)" fill="none" stroke="#000" stroke-linecap="round"/>
<polyline points="4999 4974.2 4989 4974.2 4992.1 4983.7 5000.2 4977.8 5003.3 4968.3 5006.4 4977.8 5009.5 4987.4 5001.4 4981.5 4993.3 4987.4 4990.2 4996.9 4982.1 4991 4992.1 4991 5000.2 4985.1 4997.1 4994.6 5000.2 4985.1 5010.2 4985.1 5020.2 4985.1 5017.1 4975.6 5009 4969.7 5001 4963.8 5004 4954.3 5014 4954.3 5024 4954.3 5027.1 4963.8 5037.1 4963.8 5045.2 4969.7 5053.3 4975.6 5063.3 4975.6 5053.3 4975.6 5063.3 4975.6 5055.2 4969.7 5058.3 4979.2 5061.4 4988.7 5064.5 4979.2 5061.4 4969.7 5058.3 4979.2 5061.4 4969.7 5064.5 4960.2 5072.6 4966.1 5064.5 4972 5061.4 4962.5 5051.4 4962.5 5041.4 4962.5" clip-path="url(#a)" fill="none" stroke="#000" stroke-linecap="round"/>
<polyline points="5041.4 4962.5 5038.3 4972 5035.2 4981.5 5027.1 4975.6 5019 4981.5 5027.1 4975.6 5019 4969.7 5022.1 4960.2 5032.1 4960.2 5024 4966.1 5016 4972 5012.9 4981.5 5009.8 4991 5019.8 4991 5011.7 4996.9 5014.8 5006.4 5006.7 5000.5 5003.6 4991 5000.5 5000.5" clip-path="url(#a)" fill="none" stroke="#000" stroke-linecap="round"/>
</svg>
