<?xml version="1.0" encoding="UTF-8"?>
<svg width="1e4px" height="1e4px" baseProfile="full" version="1.1" viewBox="4953.1 4974.2 234.16 229.97" xmlns="http://www.w3.org/2000/svg">
<defs>
<clipPath id="a">
<rect width="1e4" height="1e4"/>
</clipPath>
</defs>
<polyline points="5000.5 5000.5 5010.5 5000.5 5020.5 5000.5 5030.5 5000.5 5020.5 5000.5 5010.5 5000.5 5013.6 4991 5016.7 5000.5 5024.8 5006.4 5021.7 4996.9 5011.7 4996.9 5003.6 5002.7 5011.7 5008.6 5021.7 5008.6 5029.8 5014.5 5021.7 5020.4 5011.7 5020.4 5019.8 5014.5 5029.8 5014.5 5019.8 5014.5 5027.9 5020.4 5031 5010.9 5027.9 5001.4 5024.8 5010.9 5016.7 5005 5008.6 5010.9 5000.5 5016.7 4992.4 5010.9 4982.4 5010.9 4979.3 5020.4 4982.4 5029.9 4974.3 5035.8 4977.4 5045.3 4967.4 5045.3 4975.5 5051.2 4985.5 5051.2 4993.6 5045.3 4996.7 5035.8 4999.8 5045.3 4989.8 5045.3 4999.8 5045.3 5007.9 5039.4 5004.8 5029.9" clip-path="url(#a)" fill="none" stroke="#000" stroke-linecap="round"/>
<polyline points="5004.8 5029.9 5012.9 5035.8 5016 5045.3 5019 5054.8 5027.1 5048.9 5019 5054.8 5027.1 5048.9 5019 5043 5011 5048.9 5001 5048.9 4992.9 5043 4996 5052.5 4992.9 5062.1 5001 5067.9 5004 5058.4 5014 5058.4 5004 5058.4 5007.1 5048.9 5017.1 5048.9 5009 5054.8 5001 5048.9 4992.9 5043 4984.8 5048.9 4976.7 5054.8 4984.8 5060.7 4992.9 5066.5 4989.8 5057 4992.9 5066.5 4984.8 5060.7 4987.9 5051.2 4984.8 5060.7 4992.9 5066.5 4984.8 5072.4 4974.8 5072.4 4966.7 5078.3 4958.6 5072.4 4966.7 5066.5 4974.8 5072.4 4984.8 5072.4 4981.7 5081.9 4989.8 5087.8 4981.7 5081.9 4984.8 5072.4" clip-path="url(#a)" fill="none" stroke="#000" stroke-linecap="round"/>
<polyline points="4984.8 5072.4 4994.8 5072.4 4997.9 5081.9 5006 5076.1 5002.9 5066.5 4999.8 5076.1 4989.8 5076.1 4992.9 5066.5 4982.9 5066.5 4972.9 5066.5 4964.8 5060.7 4974.8 5060.7 4966.7 5054.8 4969.8 5064.3 4961.7 5058.4 4969.8 5052.5 4977.9 5046.7 4986 5040.8 4977.9 5046.7 4969.8 5052.5 4966.7 5043 4974.8 5048.9 4984.8 5048.9 4976.7 5043 4968.6 5048.9 4965.5 5058.4 4975.5 5058.4 4983.6 5052.5 4993.6 5052.5 4990.5 5062.1 4982.4 5067.9 4985.5 5058.4 4993.6 5052.5 4985.5 5058.4 4995.5 5058.4 4992.4 5048.9 4984.3 5043 4987.4 5052.5 4977.4 5052.5 4974.3 5062.1 4971.2 5071.6 4961.2 5071.6 4953.1 5077.4" clip-path="url(#a)" fill="none" stroke="#000" stroke-linecap="round"/>
<polyline points="4953.1 5077.4 4956.2 5087 4964.3 5092.8 4961.2 5102.3 4969.3 5108.2 4961.2 5114.1 4971.2 5114.1 4979.3 5108.2 4982.4 5098.7 4979.3 5089.2 4987.4 5095.1 4979.3 5101 4987.4 5095.1 4990.5 5085.6 4982.4 5079.7 4992.4 5079.7 5000.5 5085.6 5008.6 5091.4 5011.7 5081.9 5008.6 5091.4 5011.7 5081.9 5001.7 5081.9 4998.6 5091.4 4990.5 5097.3 4980.5 5097.3 4988.6 5103.2 4991.7 5112.7 5001.7 5112.7 4998.6 5103.2 5006.7 5097.3 4998.6 5103.2 4995.5 5093.7 5003.6 5087.8 5000.5 5097.3 4990.5 5097.3 4980.5 5097.3 4977.4 5106.8 4974.3 5116.3 4984.3 5116.3 4994.3 5116.3 4986.2 5110.5 4994.3 5116.3 4984.3 5116.3" clip-path="url(#a)" fill="none" stroke="#000" stroke-linecap="round"/>
<polyline points="4984.3 5116.3 4981.2 5106.8 4984.3 5116.3 4994.3 5116.3 4991.2 5125.9 4983.1 5131.7 4980 5141.2 4970 5141.2 4973.1 5131.7 4983.1 5131.7 4991.2 5125.9 4994.3 5135.4 5004.3 5135.4 4994.3 5135.4 4991.2 5125.9 4999.3 5120 5007.4 5125.9 5010.5 5116.3 5002.4 5110.5 5005.5 5120 4997.4 5125.9 4994.3 5116.3 4986.2 5122.2 4978.1 5128.1 4968.1 5128.1 4976.2 5122.2 4966.2 5122.2 4974.3 5128.1 4964.3 5128.1 4967.4 5118.6 4970.5 5109.1 4973.6 5099.6 4970.5 5109.1 4967.4 5118.6 4959.3 5112.7 4969.3 5112.7 4977.4 5106.8 4967.4 5106.8 4964.3 5116.3 4967.4 5125.9 4975.5 5120 4978.6 5110.5 4986.7 5104.6" clip-path="url(#a)" fill="none" stroke="#000" stroke-linecap="round"/>
<polyline points="4986.7 5104.6 4989.8 5114.1 4986.7 5123.6 4983.6 5114.1 4986.7 5104.6 4983.6 5114.1 4991.7 5108.2 4983.6 5102.3 4973.6 5102.3 4981.7 5108.2 4973.6 5114.1 4976.7 5123.6 4979.8 5133.1 4971.7 5139 4968.6 5148.5 4976.7 5154.4 4986.7 5154.4 4989.8 5163.9 4999.8 5163.9 4996.7 5173.4 5004.8 5167.5 5007.9 5158 5004.8 5148.5 4996.7 5142.6 5006.7 5142.6 5003.6 5152.1 5006.7 5142.6 5003.6 5133.1 4993.6 5133.1 5001.7 5127.2 5011.7 5127.2 5021.7 5127.2 5018.6 5117.7 5021.7 5127.2 5018.6 5117.7 5010.5 5123.6 5013.6 5133.1 5010.5 5142.6 5002.4 5148.5 5012.4 5148.5 5020.5 5154.4 5028.6 5148.5 5020.5 5142.6" clip-path="url(#a)" fill="none" stroke="#000" stroke-linecap="round"/>
<polyline points="5020.5 5142.6 5023.6 5133.1 5020.5 5142.6 5012.4 5136.8 5015.5 5127.2 5018.6 5136.8 5010.5 5142.6 5002.4 5148.5 5005.5 5158 5008.6 5167.5 5016.7 5161.6 5024.8 5155.8 5014.8 5155.8 5024.8 5155.8 5016.7 5161.6 5008.6 5155.8 5016.7 5161.6 5024.8 5155.8 5027.9 5165.3 5024.8 5174.8 5027.9 5184.3 5019.8 5190.2 5016.7 5180.7 5024.8 5174.8 5027.9 5165.3 5036 5171.2 5044 5165.3 5036 5171.2 5027.9 5165.3 5031 5155.8 5041 5155.8 5037.9 5146.3 5027.9 5146.3 5036 5152.1 5032.9 5161.6 5024.8 5155.8 5021.7 5165.3 5018.6 5174.8 5010.5 5180.7 5013.6 5171.2 5005.5 5177 5015.5 5177 5007.4 5182.9" clip-path="url(#a)" fill="none" stroke="#000" stroke-linecap="round"/>
<polyline points="5007.4 5182.9 5004.3 5173.4 5001.2 5163.9 4998.1 5154.4 5001.2 5163.9 5004.3 5173.4 4994.3 5173.4 5002.4 5167.5 5005.5 5158 4997.4 5163.9 5000.5 5173.4 5008.6 5179.3 5011.7 5169.8 5008.6 5160.3 5011.7 5150.8 5019.8 5156.6 5022.9 5166.1 5014.8 5160.3 5011.7 5150.8 5014.8 5160.3 5017.9 5150.8 5007.9 5150.8 4999.8 5156.6 5009.8 5156.6 5006.7 5166.1 5014.8 5172 5022.9 5177.9 5019.8 5187.4 5022.9 5196.9 5032.9 5196.9 5041 5191 5049 5196.9 5057.1 5191 5060.2 5200.5 5063.3 5191 5060.2 5181.5 5052.1 5175.7 5042.1 5175.7 5050.2 5169.8 5053.3 5179.3 5050.2 5169.8 5042.1 5163.9 5034 5169.8" clip-path="url(#a)" fill="none" stroke="#000" stroke-linecap="round"/>
<polyline points="5034 5169.8 5037.1 5160.3 5045.2 5154.4 5053.3 5148.5 5045.2 5142.6 5053.3 5148.5 5045.2 5142.6 5042.1 5152.1 5050.2 5158 5053.3 5167.5 5050.2 5177 5058.3 5171.2 5068.3 5171.2 5071.4 5161.6 5061.4 5161.6 5058.3 5152.1 5061.4 5161.6 5051.4 5161.6 5048.3 5152.1 5056.4 5158 5053.3 5167.5 5050.2 5177 5058.3 5182.9 5066.4 5188.8 5069.5 5179.3 5072.6 5169.8 5064.5 5175.7 5072.6 5169.8 5069.5 5179.3 5059.5 5179.3 5069.5 5179.3 5072.6 5169.8 5080.7 5175.7 5083.8 5185.2 5091.9 5191 5088.8 5200.5 5080.7 5194.7 5083.8 5185.2 5080.7 5175.7 5090.7 5175.7 5093.8 5166.1 5090.7 5175.7 5080.7 5175.7" clip-path="url(#a)" fill="none" stroke="#000" stroke-linecap="round"/>
<polyline points="5080.7 5175.7 5077.6 5166.1 5085.7 5160.3 5077.6 5154.4 5069.5 5160.3 5079.5 5160.3 5082.6 5169.8 5072.6 5169.8 5075.7 5179.3 5078.8 5188.8 5075.7 5198.3 5072.6 5188.8 5069.5 5198.3 5077.6 5192.4 5074.5 5201.9 5066.4 5196.1 5058.3 5190.2 5050.2 5184.3 5058.3 5190.2 5066.4 5196.1 5058.3 5201.9 5061.4 5192.4 5058.3 5182.9 5055.2 5192.4 5063.3 5198.3 5073.3 5198.3 5070.2 5188.8 5062.1 5182.9 5059 5173.4 5069 5173.4 5077.1 5179.3 5067.1 5179.3 5059 5173.4 5067.1 5179.3 5064 5169.8 5056 5175.7 5052.9 5185.2 5061 5179.3 5064 5188.8 5074 5188.8 5084 5188.8 5087.1 5198.3 5095.2 5204.2" clip-path="url(#a)" fill="none" stroke="#000" stroke-linecap="round"/>
<polyline points="5095.2 5204.2 5103.3 5198.3 5106.4 5188.8 5116.4 5188.8 5119.5 5179.3 5127.6 5185.2 5124.5 5175.7 5116.4 5169.8 5106.4 5169.8 5098.3 5175.7 5101.4 5166.1 5109.5 5172 5101.4 5166.1 5091.4 5166.1 5088.3 5175.7 5085.2 5166.1 5088.3 5156.6 5091.4 5147.1 5081.4 5147.1 5091.4 5147.1 5081.4 5147.1 5084.5 5156.6 5094.5 5156.6 5102.6 5162.5 5105.7 5172 5108.8 5162.5 5116.9 5156.6 5113.8 5147.1 5105.7 5153 5097.6 5147.1 5105.7 5153 5097.6 5158.9 5089.5 5153 5099.5 5153 5102.6 5162.5 5105.7 5172 5115.7 5172 5125.7 5172 5122.6 5162.5 5119.5 5153 5116.4 5162.5 5119.5 5153 5122.6 5162.5" clip-path="url(#a)" fill="none" stroke="#000" stroke-linecap="round"/>
<polyline points="5122.6 5162.5 5114.5 5168.4 5122.6 5162.5 5119.5 5153 5129.5 5153 5137.6 5158.9 5147.6 5158.9 5150.7 5168.4 5140.7 5168.4 5137.6 5158.9 5129.5 5153 5137.6 5147.1 5134.5 5137.6 5137.6 5147.1 5129.5 5153 5121.4 5147.1 5124.5 5137.6 5114.5 5137.6 5111.4 5147.1 5119.5 5141.2 5127.6 5147.1 5119.5 5153 5127.6 5158.9 5135.7 5164.8 5138.8 5174.3 5130.7 5168.4 5133.8 5177.9 5136.9 5168.4 5139.9 5177.9 5129.9 5177.9 5119.9 5177.9 5109.9 5177.9 5119.9 5177.9 5129.9 5177.9 5126.9 5187.4 5123.8 5177.9 5115.7 5172 5118.8 5181.5 5128.8 5181.5 5136.9 5175.7 5128.8 5169.8 5118.8 5169.8 5110.7 5163.9" clip-path="url(#a)" fill="none" stroke="#000" stroke-linecap="round"/>
<polyline points="5110.7 5163.9 5118.8 5158 5128.8 5158 5120.7 5163.9 5110.7 5163.9 5120.7 5163.9 5112.6 5158 5109.5 5167.5 5112.6 5177 5115.7 5167.5 5123.8 5173.4 5131.9 5167.5 5139.9 5161.6 5148 5167.5 5158 5167.5 5161.1 5158 5158 5148.5 5166.1 5142.6 5163 5133.1 5173 5133.1 5164.9 5127.2 5154.9 5127.2 5146.9 5133.1 5143.8 5142.6 5140.7 5133.1 5150.7 5133.1 5140.7 5133.1 5132.6 5139 5135.7 5148.5 5127.6 5142.6 5124.5 5133.1 5121.4 5123.6 5113.3 5129.5 5121.4 5123.6 5113.3 5129.5 5121.4 5135.4 5129.5 5129.5 5139.5 5129.5 5147.6 5135.4 5144.5 5125.9 5147.6 5116.3 5139.5 5110.5 5136.4 5120" clip-path="url(#a)" fill="none" stroke="#000" stroke-linecap="round"/>
<polyline points="5136.4 5120 5126.4 5120 5136.4 5120 5133.3 5129.5 5123.3 5129.5 5131.4 5123.6 5139.5 5129.5 5147.6 5135.4 5155.7 5129.5 5163.8 5123.6 5155.7 5117.7 5147.6 5111.9 5150.7 5121.4 5147.6 5111.9 5155.7 5117.7 5152.6 5127.2 5155.7 5117.7 5147.6 5111.9 5155.7 5106 5165.7 5106 5173.8 5100.1 5181.9 5106 5173.8 5111.9 5165.7 5106 5155.7 5106 5158.8 5096.5 5150.7 5090.6 5158.8 5096.5 5155.7 5106 5145.7 5106 5142.6 5096.5 5134.5 5102.3 5137.6 5111.9 5140.7 5102.3 5150.7 5102.3 5147.6 5111.9 5157.6 5111.9 5167.6 5111.9 5175.7 5117.7 5165.7 5117.7 5173.8 5123.6 5170.7 5114.1 5178.8 5120" clip-path="url(#a)" fill="none" stroke="#000" stroke-linecap="round"/>
<polyline points="5178.8 5120 5170.7 5125.9 5162.6 5131.7 5154.5 5137.6 5162.6 5131.7 5170.7 5125.9 5173.8 5135.4 5165.7 5129.5 5155.7 5129.5 5163.8 5135.4 5171.9 5129.5 5174.9 5120 5164.9 5120 5156.9 5125.9 5146.9 5125.9 5149.9 5116.3 5158 5110.5 5154.9 5120 5146.9 5125.9 5154.9 5120 5144.9 5120 5148 5129.5 5156.1 5135.4 5153 5125.9 5163 5125.9 5166.1 5116.3 5169.2 5106.8 5179.2 5106.8 5187.3 5101 5184.2 5091.4 5176.1 5085.6 5179.2 5076.1 5171.1 5070.2 5179.2 5064.3 5169.2 5064.3 5161.1 5070.2 5158 5079.7 5161.1 5089.2 5153 5083.3 5161.1 5077.4 5153 5083.3 5149.9 5092.8 5158 5098.7" clip-path="url(#a)" fill="none" stroke="#000" stroke-linecap="round"/>
<polyline points="5158 5098.7 5148 5098.7 5139.9 5092.8 5131.9 5087 5128.8 5096.5 5131.9 5087 5128.8 5096.5 5138.8 5096.5 5141.9 5087 5149.9 5081.1 5159.9 5081.1 5151.9 5075.2 5148.8 5065.7 5138.8 5065.7 5141.9 5075.2 5133.8 5081.1 5141.9 5075.2 5144.9 5084.7 5136.9 5090.6 5139.9 5081.1 5149.9 5081.1 5159.9 5081.1 5163 5071.6 5166.1 5062.1 5156.1 5062.1 5146.1 5062.1 5154.2 5067.9 5146.1 5062.1 5156.1 5062.1 5159.2 5071.6 5156.1 5062.1 5146.1 5062.1 5149.2 5052.5 5157.3 5046.7 5160.4 5037.2 5170.4 5037.2 5167.3 5046.7 5157.3 5046.7 5149.2 5052.5 5146.1 5043 5136.1 5043 5146.1 5043 5149.2 5052.5" clip-path="url(#a)" fill="none" stroke="#000" stroke-linecap="round"/>
<polyline points="5149.2 5052.5 5141.1 5058.4 5133 5052.5 5129.9 5062.1 5138 5067.9 5134.9 5058.4 5143 5052.5 5146.1 5062.1 5154.2 5056.2 5162.3 5050.3 5172.3 5050.3 5164.2 5056.2 5174.2 5056.2 5166.1 5050.3 5176.1 5050.3 5173 5059.8 5169.9 5069.3 5166.9 5078.8 5169.9 5069.3 5173 5059.8 5181.1 5065.7 5171.1 5065.7 5163 5071.6 5173 5071.6 5176.1 5062.1 5173 5052.5 5164.9 5058.4 5161.9 5067.9 5153.8 5073.8 5150.7 5064.3 5153.8 5054.8 5156.9 5064.3 5153.8 5073.8 5156.9 5064.3 5148.8 5070.2 5156.9 5076.1 5166.9 5076.1 5158.8 5070.2 5166.9 5064.3 5163.8 5054.8 5160.7 5045.3 5168.8 5039.4 5171.9 5029.9" clip-path="url(#a)" fill="none" stroke="#000" stroke-linecap="round"/>
<polyline points="5171.9 5029.9 5163.8 5024 5153.8 5024 5150.7 5014.5 5140.7 5014.5 5143.8 5005 5135.7 5010.9 5132.6 5020.4 5135.7 5029.9 5143.8 5035.8 5133.8 5035.8 5136.9 5026.3 5133.8 5035.8 5136.9 5045.3 5146.9 5045.3 5138.8 5051.2 5128.8 5051.2 5118.8 5051.2 5121.9 5060.7 5118.8 5051.2 5121.9 5060.7 5129.9 5054.8 5126.9 5045.3 5129.9 5035.8 5138 5029.9 5128 5029.9 5119.9 5024 5111.9 5029.9 5119.9 5035.8 5116.9 5045.3 5119.9 5035.8 5128 5041.6 5124.9 5051.2 5121.9 5041.6 5129.9 5035.8 5138 5029.9 5134.9 5020.4 5131.9 5010.9 5123.8 5016.7 5115.7 5022.6 5125.7 5022.6 5115.7 5022.6 5123.8 5016.7" clip-path="url(#a)" fill="none" stroke="#000" stroke-linecap="round"/>
<polyline points="5123.8 5016.7 5131.9 5022.6 5123.8 5016.7 5115.7 5022.6 5112.6 5013.1 5115.7 5003.6 5112.6 4994.1 5120.7 4988.2 5123.8 4997.7 5115.7 5003.6 5112.6 5013.1 5104.5 5007.2 5096.4 5013.1 5104.5 5007.2 5112.6 5013.1 5109.5 5022.6 5099.5 5022.6 5102.6 5032.1 5112.6 5032.1 5104.5 5026.3 5107.6 5016.7 5115.7 5022.6 5118.8 5013.1 5121.9 5003.6 5129.9 4997.7 5126.9 5007.2 5134.9 5001.4 5124.9 5001.4 5133 4995.5 5136.1 5005 5139.2 5014.5 5142.3 5024 5139.2 5014.5 5136.1 5005 5146.1 5005 5138 5010.9 5134.9 5020.4 5143 5014.5 5139.9 5005 5131.9 4999.1 5128.8 5008.6 5131.9 5018.1 5128.8 5027.6" clip-path="url(#a)" fill="none" stroke="#000" stroke-linecap="round"/>
<polyline points="5128.8 5027.6 5120.7 5021.8 5117.6 5012.3 5125.7 5018.1 5128.8 5027.6 5125.7 5018.1 5122.6 5027.6 5132.6 5027.6 5140.7 5021.8 5130.7 5021.8 5133.8 5012.3 5125.7 5006.4 5117.6 5000.5 5120.7 4991 5117.6 4981.5 5107.6 4981.5 5099.5 4987.4 5091.4 4981.5 5083.3 4987.4 5080.2 4977.8 5077.1 4987.4 5080.2 4996.9 5088.3 5002.7 5098.3 5002.7 5090.2 5008.6 5087.1 4999.1 5090.2 5008.6 5098.3 5014.5 5106.4 5008.6 5103.3 5018.1 5095.2 5024 5087.1 5029.9 5095.2 5035.8 5087.1 5029.9 5095.2 5035.8 5098.3 5026.3 5090.2 5020.4 5087.1 5010.9 5090.2 5001.4 5082.1 5007.2 5072.1 5007.2 5069 5016.7 5079 5016.7" clip-path="url(#a)" fill="none" stroke="#000" stroke-linecap="round"/>
<polyline points="5079 5016.7 5082.1 5026.3 5079 5016.7 5089 5016.7 5092.1 5026.3 5084 5020.4 5087.1 5010.9 5090.2 5001.4 5082.1 4995.5 5074 4989.6 5071 4999.1 5067.9 5008.6 5076 5002.7 5067.9 5008.6 5071 4999.1 5081 4999.1 5071 4999.1 5067.9 5008.6 5059.8 5002.7 5056.7 4993.2 5048.6 4987.4 5051.7 4977.8 5059.8 4983.7 5056.7 4993.2 5059.8 5002.7 5049.8 5002.7 5046.7 5012.3 5049.8 5002.7 5059.8 5002.7 5062.9 5012.3 5054.8 5018.1 5062.9 5024 5071 5018.1 5061 5018.1 5057.9 5008.6 5067.9 5008.6 5064.8 4999.1 5061.7 4989.6 5064.8 4980.1 5067.9 4989.6 5071 4980.1 5062.9 4986 5066 4976.5" clip-path="url(#a)" fill="none" stroke="#000" stroke-linecap="round"/>
<polyline points="5066 4976.5 5074 4982.3 5082.1 4988.2 5090.2 4994.1 5082.1 4988.2 5074 4982.3 5082.1 4976.5 5079 4986 5082.1 4995.5 5085.2 4986 5077.1 4980.1 5067.1 4980.1 5070.2 4989.6 5078.3 4995.5 5081.4 5005 5071.4 5005 5063.3 4999.1 5073.3 4999.1 5081.4 5005 5073.3 4999.1 5076.4 5008.6 5084.5 5002.7 5087.6 4993.2 5079.5 4999.1 5076.4 4989.6 5066.4 4989.6 5056.4 4989.6 5053.3 4980.1 5045.2 4974.2 5037.1 4980.1 5034 4989.6 5024 4989.6 5021 4999.1 5012.9 4993.2 5016 5002.7 5024 5008.6 5034 5008.6 5042.1 5002.7 5039 5012.3 5031 5006.4 5039 5012.3 5049 5012.3 5052.1 5002.7" clip-path="url(#a)" fill="none" stroke="#000" stroke-linecap="round"/>
<polyline points="5052.1 5002.7 5055.2 5012.3 5052.1 5021.8 5049 5031.3 5059 5031.3 5049 5031.3 5059 5031.3 5056 5021.8 5046 5021.8 5037.9 5015.9 5034.8 5006.4 5031.7 5015.9 5023.6 5021.8 5026.7 5031.3 5034.8 5025.4 5042.9 5031.3 5034.8 5025.4 5042.9 5019.5 5051 5025.4 5041 5025.4 5037.9 5015.9 5034.8 5006.4 5024.8 5006.4 5014.8 5006.4 5017.9 5015.9 5021 5025.4 5024 5015.9 5021 5025.4 5017.9 5015.9 5026 5010 5017.9 5015.9 5021 5025.4 5011 5025.4 5002.9 5019.5 4992.9 5019.5 4989.8 5010 4999.8 5010 5002.9 5019.5 5011 5025.4 5002.9 5031.3 5006 5040.8 5002.9 5031.3 5011 5025.4" clip-path="url(#a)" fill="none" stroke="#000" stroke-linecap="round"/>
<polyline points="5011 5025.4 5019 5031.3 5016 5040.8 5026 5040.8 5029 5031.3 5021 5037.2 5012.9 5031.3 5021 5025.4 5012.9 5019.5 5004.8 5013.6 5001.7 5004.1 5009.8 5010 5006.7 5000.5 5003.6 5010 5000.5 5000.5 5010.5 5000.5 5020.5 5000.5 5030.5 5000.5 5020.5 5000.5 5010.5 5000.5 5013.6 4991 5016.7 5000.5 5024.8 5006.4 5021.7 4996.9 5011.7 4996.9 5003.6 5002.7 5011.7 5008.6 5021.7 5008.6 5029.8 5014.5 5021.7 5020.4 5011.7 5020.4 5019.8 5014.5 5029.8 5014.5 5019.8 5014.5 5027.9 5020.4 5031 5010.9 5027.9 5001.4 5024.8 5010.9 5016.7 5005 5008.6 5010.9 5000.5 5016.7 4992.4 5010.9 4982.4 5010.9" clip-path="url(#a)" fill="none" stroke="#000" stroke-linecap="round"/>
<polyline points="4982.4 5010.9 4979.3 5020.4 4982.4 5029.9 4974.3 5035.8 4977.4 5045.3 4967.4 5045.3 4975.5 5051.2 4985.5 5051.2 4993.6 5045.3 4996.7 5035.8 4999.8 5045.3 4989.8 5045.3 4999.8 5045.3 5007.9 5039.4 5004.8 5029.9 5012.9 5035.8 5016 5045.3 5019 5054.8 5027.1 5048.9 5019 5054.8 5027.1 5048.9 5019 5043 5011 5048.9 5001 5048.9 4992.9 5043 4996 5052.5 4992.9 5062.1 5001 5067.9 5004 5058.4 5014 5058.4 5004 5058.4 5007.1 5048.9 5017.1 5048.9 5009 5054.8 5001 5048.9 4992.9 5043 4984.8 5048.9 4976.7 5054.8 4984.8 5060.7 4992.9 5066.5 4989.8 5057 4992.9 5066.5 4984.8 5060.7" clip-path="url(#a)" fill="none" stroke="#000" stroke-linecap="round"/>
<polyline points="4984.8 5060.7 4987.9 5051.2 4984.8 5060.7 4992.9 5066.5 4984.8 5072.4 4974.8 5072.4 4966.7 5078.3 4958.6 5072.4 4966.7 5066.5 4974.8 5072.4 4984.8 5072.4 4981.7 5081.9 4989.8 5087.8 4981.7 5081.9 4984.8 5072.4 4994.8 5072.4 4997.9 5081.9 5006 5076.1 5002.9 5066.5 4999.8 5076.1 4989.8 5076.1 4992.9 5066.5 4982.9 5066.5 4972.9 5066.5 4964.8 5060.7 4974.8 5060.7 4966.7 5054.8 4969.8 5064.3 4961.7 5058.4 4969.8 5052.5 4977.9 5046.7 4986 5040.8 4977.9 5046.7 4969.8 5052.5 4966.7 5043 4974.8 5048.9 4984.8 5048.9 4976.7 5043 4968.6 5048.9 4965.5 5058.4 4975.5 5058.4 4983.6 5052.5 4993.6 5052.5" clip-path="url(#a)" fill="none" stroke="#000" stroke-linecap="round"/>
<polyline points="4993.6 5052.5 4990.5 5062.1 4982.4 5067.9 4985.5 5058.4 4993.6 5052.5 4985.5 5058.4 4995.5 5058.4 4992.4 5048.9 4984.3 5043 4987.4 5052.5 4977.4 5052.5 4974.3 5062.1 4971.2 5071.6 4961.2 5071.6 4953.1 5077.4 4956.2 5087 4964.3 5092.8 4961.2 5102.3 4969.3 5108.2 4961.2 5114.1 4971.2 5114.1 4979.3 5108.2 4982.4 5098.7 4979.3 5089.2 4987.4 5095.1 4979.3 5101 4987.4 5095.1 4990.5 5085.6 4982.4 5079.7 4992.4 5079.7 5000.5 5085.6 5008.6 5091.4 5011.7 5081.9 5008.6 5091.4 5011.7 5081.9 5001.7 5081.9 4998.6 5091.4 4990.5 5097.3 4980.5 5097.3 4988.6 5103.2 4991.7 5112.7 5001.7 5112.7 4998.6 5103.2" clip-path="url(#a)" fill="none" stroke="#000" stroke-linecap="round"/>
<polyline points="4998.6 5103.2 5006.7 5097.3 4998.6 5103.2 4995.5 5093.7 5003.6 5087.8 5000.5 5097.3 4990.5 5097.3 4980.5 5097.3 4977.4 5106.8 4974.3 5116.3 4984.3 5116.3 4994.3 5116.3 4986.2 5110.5 4994.3 5116.3 4984.3 5116.3 4981.2 5106.8 4984.3 5116.3 4994.3 5116.3 4991.2 5125.9 4983.1 5131.7 4980 5141.2 4970 5141.2 4973.1 5131.7 4983.1 5131.7 4991.2 5125.9 4994.3 5135.4 5004.3 5135.4 4994.3 5135.4 4991.2 5125.9 4999.3 5120 5007.4 5125.9 5010.5 5116.3 5002.4 5110.5 5005.5 5120 4997.4 5125.9 4994.3 5116.3 4986.2 5122.2 4978.1 5128.1 4968.1 5128.1 4976.2 5122.2 4966.2 5122.2 4974.3 5128.1 4964.3 5128.1" clip-path="url(#a)" fill="none" stroke="#000" stroke-linecap="round"/>
<polyline points="4964.3 5128.1 4967.4 5118.6 4970.5 5109.1 4973.6 5099.6 4970.5 5109.1 4967.4 5118.6 4959.3 5112.7 4969.3 5112.7 4977.4 5106.8 4967.4 5106.8 4964.3 5116.3 4967.4 5125.9 4975.5 5120 4978.6 5110.5 4986.7 5104.6 4989.8 5114.1 4986.7 5123.6 4983.6 5114.1 4986.7 5104.6 4983.6 5114.1 4991.7 5108.2 4983.6 5102.3 4973.6 5102.3 4981.7 5108.2 4973.6 5114.1 4976.7 5123.6 4979.8 5133.1 4971.7 5139 4968.6 5148.5 4976.7 5154.4 4986.7 5154.4 4989.8 5163.9 4999.8 5163.9 4996.7 5173.4 5004.8 5167.5 5007.9 5158 5004.8 5148.5 4996.7 5142.6 5006.7 5142.6 5003.6 5152.1 5006.7 5142.6 5003.6 5133.1 4993.6 5133.1" clip-path="url(#a)" fill="none" stroke="#000" stroke-linecap="round"/>
<polyline points="4993.6 5133.1 5001.7 5127.2 5011.7 5127.2 5021.7 5127.2 5018.6 5117.7 5021.7 5127.2 5018.6 5117.7 5010.5 5123.6 5013.6 5133.1 5010.5 5142.6 5002.4 5148.5 5012.4 5148.5 5020.5 5154.4 5028.6 5148.5 5020.5 5142.6 5023.6 5133.1 5020.5 5142.6 5012.4 5136.8 5015.5 5127.2 5018.6 5136.8 5010.5 5142.6 5002.4 5148.5 5005.5 5158 5008.6 5167.5 5016.7 5161.6 5024.8 5155.8 5014.8 5155.8 5024.8 5155.8 5016.7 5161.6 5008.6 5155.8 5016.7 5161.6 5024.8 5155.8 5027.9 5165.3 5024.8 5174.8 5027.9 5184.3 5019.8 5190.2 5016.7 5180.7 5024.8 5174.8 5027.9 5165.3 5036 5171.2 5044 5165.3 5036 5171.2 5027.9 5165.3" clip-path="url(#a)" fill="none" stroke="#000" stroke-linecap="round"/>
<polyline points="5027.9 5165.3 5031 5155.8 5041 5155.8 5037.9 5146.3 5027.9 5146.3 5036 5152.1 5032.9 5161.6 5024.8 5155.8 5021.7 5165.3 5018.6 5174.8 5010.5 5180.7 5013.6 5171.2 5005.5 5177 5015.5 5177 5007.4 5182.9 5004.3 5173.4 5001.2 5163.9 4998.1 5154.4 5001.2 5163.9 5004.3 5173.4 4994.3 5173.4 5002.4 5167.5 5005.5 5158 4997.4 5163.9 5000.5 5173.4 5008.6 5179.3 5011.7 5169.8 5008.6 5160.3 5011.7 5150.8 5019.8 5156.6 5022.9 5166.1 5014.8 5160.3 5011.7 5150.8 5014.8 5160.3 5017.9 5150.8 5007.9 5150.8 4999.8 5156.6 5009.8 5156.6 5006.7 5166.1 5014.8 5172 5022.9 5177.9 5019.8 5187.4 5022.9 5196.9" clip-path="url(#a)" fill="none" stroke="#000" stroke-linecap="round"/>
<polyline points="5022.9 5196.9 5032.9 5196.9 5041 5191 5049 5196.9 5057.1 5191 5060.2 5200.5 5063.3 5191 5060.2 5181.5 5052.1 5175.7 5042.1 5175.7 5050.2 5169.8 5053.3 5179.3 5050.2 5169.8 5042.1 5163.9 5034 5169.8 5037.1 5160.3 5045.2 5154.4 5053.3 5148.5 5045.2 5142.6 5053.3 5148.5 5045.2 5142.6 5042.1 5152.1 5050.2 5158 5053.3 5167.5 5050.2 5177 5058.3 5171.2 5068.3 5171.2 5071.4 5161.6 5061.4 5161.6 5058.3 5152.1 5061.4 5161.6 5051.4 5161.6 5048.3 5152.1 5056.4 5158 5053.3 5167.5 5050.2 5177 5058.3 5182.9 5066.4 5188.8 5069.5 5179.3 5072.6 5169.8 5064.5 5175.7 5072.6 5169.8 5069.5 5179.3" clip-path="url(#a)" fill="none" stroke="#000" stroke-linecap="round"/>
<polyline points="5069.5 5179.3 5059.5 5179.3 5069.5 5179.3 5072.6 5169.8 5080.7 5175.7 5083.8 5185.2 5091.9 5191 5088.8 5200.5 5080.7 5194.7 5083.8 5185.2 5080.7 5175.7 5090.7 5175.7 5093.8 5166.1 5090.7 5175.7 5080.7 5175.7 5077.6 5166.1 5085.7 5160.3 5077.6 5154.4 5069.5 5160.3 5079.5 5160.3 5082.6 5169.8 5072.6 5169.8 5075.7 5179.3 5078.8 5188.8 5075.7 5198.3 5072.6 5188.8 5069.5 5198.3 5077.6 5192.4 5074.5 5201.9 5066.4 5196.1 5058.3 5190.2 5050.2 5184.3 5058.3 5190.2 5066.4 5196.1 5058.3 5201.9 5061.4 5192.4 5058.3 5182.9 5055.2 5192.4 5063.3 5198.3 5073.3 5198.3 5070.2 5188.8 5062.1 5182.9 5059 5173.4" clip-path="url(#a)" fill="none" stroke="#000" stroke-linecap="round"/>
<polyline points="5059 5173.4 5069 5173.4 5077.1 5179.3 5067.1 5179.3 5059 5173.4 5067.1 5179.3 5064 5169.8 5056 5175.7 5052.9 5185.2 5061 5179.3 5064 5188.8 5074 5188.8 5084 5188.8 5087.1 5198.3 5095.2 5204.2 5103.3 5198.3 5106.4 5188.8 5116.4 5188.8 5119.5 5179.3 5127.6 5185.2 5124.5 5175.7 5116.4 5169.8 5106.4 5169.8 5098.3 5175.7 5101.4 5166.1 5109.5 5172 5101.4 5166.1 5091.4 5166.1 5088.3 5175.7 5085.2 5166.1 5088.3 5156.6 5091.4 5147.1 5081.4 5147.1 5091.4 5147.1 5081.4 5147.1 5084.5 5156.6 5094.5 5156.6 5102.6 5162.5 5105.7 5172 5108.8 5162.5 5116.9 5156.6 5113.8 5147.1 5105.7 5153" clip-path="url(#a)" fill="none" stroke="#000" stroke-linecap="round"/>
<polyline points="5105.7 5153 5097.6 5147.1 5105.7 5153 5097.6 5158.9 5089.5 5153 5099.5 5153 5102.6 5162.5 5105.7 5172 5115.7 5172 5125.7 5172 5122.6 5162.5 5119.5 5153 5116.4 5162.5 5119.5 5153 5122.6 5162.5 5114.5 5168.4 5122.6 5162.5 5119.5 5153 5129.5 5153 5137.6 5158.9 5147.6 5158.9 5150.7 5168.4 5140.7 5168.4 5137.6 5158.9 5129.5 5153 5137.6 5147.1 5134.5 5137.6 5137.6 5147.1 5129.5 5153 5121.4 5147.1 5124.5 5137.6 5114.5 5137.6 5111.4 5147.1 5119.5 5141.2 5127.6 5147.1 5119.5 5153 5127.6 5158.9 5135.7 5164.8 5138.8 5174.3 5130.7 5168.4 5133.8 5177.9 5136.9 5168.4 5139.9 5177.9" clip-path="url(#a)" fill="none" stroke="#000" stroke-linecap="round"/>
<polyline points="5139.9 5177.9 5129.9 5177.9 5119.9 5177.9 5109.9 5177.9 5119.9 5177.9 5129.9 5177.9 5126.9 5187.4 5123.8 5177.9 5115.7 5172 5118.8 5181.5 5128.8 5181.5 5136.9 5175.7 5128.8 5169.8 5118.8 5169.8 5110.7 5163.9 5118.8 5158 5128.8 5158 5120.7 5163.9 5110.7 5163.9 5120.7 5163.9 5112.6 5158 5109.5 5167.5 5112.6 5177 5115.7 5167.5 5123.8 5173.4 5131.9 5167.5 5139.9 5161.6 5148 5167.5 5158 5167.5 5161.1 5158 5158 5148.5 5166.1 5142.6 5163 5133.1 5173 5133.1 5164.9 5127.2 5154.9 5127.2 5146.9 5133.1 5143.8 5142.6 5140.7 5133.1 5150.7 5133.1 5140.7 5133.1 5132.6 5139 5135.7 5148.5" clip-path="url(#a)" fill="none" stroke="#000" stroke-linecap="round"/>
<polyline points="5135.7 5148.5 5127.6 5142.6 5124.5 5133.1 5121.4 5123.6 5113.3 5129.5 5121.4 5123.6 5113.3 5129.5 5121.4 5135.4 5129.5 5129.5 5139.5 5129.5 5147.6 5135.4 5144.5 5125.9 5147.6 5116.3 5139.5 5110.5 5136.4 5120 5126.4 5120 5136.4 5120 5133.3 5129.5 5123.3 5129.5 5131.4 5123.6 5139.5 5129.5 5147.6 5135.4 5155.7 5129.5 5163.8 5123.6 5155.7 5117.7 5147.6 5111.9 5150.7 5121.4 5147.6 5111.9 5155.7 5117.7 5152.6 5127.2 5155.7 5117.7 5147.6 5111.9 5155.7 5106 5165.7 5106 5173.8 5100.1 5181.9 5106 5173.8 5111.9 5165.7 5106 5155.7 5106 5158.8 5096.5 5150.7 5090.6 5158.8 5096.5 5155.7 5106" clip-path="url(#a)" fill="none" stroke="#000" stroke-linecap="round"/>
<polyline points="5155.7 5106 5145.7 5106 5142.6 5096.5 5134.5 5102.3 5137.6 5111.9 5140.7 5102.3 5150.7 5102.3 5147.6 5111.9 5157.6 5111.9 5167.6 5111.9 5175.7 5117.7 5165.7 5117.7 5173.8 5123.6 5170.7 5114.1 5178.8 5120 5170.7 5125.9 5162.6 5131.7 5154.5 5137.6 5162.6 5131.7 5170.7 5125.9 5173.8 5135.4 5165.7 5129.5 5155.7 5129.5 5163.8 5135.4 5171.9 5129.5 5174.9 5120 5164.9 5120 5156.9 5125.9 5146.9 5125.9 5149.9 5116.3 5158 5110.5 5154.9 5120 5146.9 5125.9 5154.9 5120 5144.9 5120 5148 5129.5 5156.1 5135.4 5153 5125.9 5163 5125.9 5166.1 5116.3 5169.2 5106.8 5179.2 5106.8 5187.3 5101" clip-path="url(#a)" fill="none" stroke="#000" stroke-linecap="round"/>
<polyline points="5187.3 5101 5184.2 5091.4 5176.1 5085.6 5179.2 5076.1 5171.1 5070.2 5179.2 5064.3 5169.2 5064.3 5161.1 5070.2 5158 5079.7 5161.1 5089.2 5153 5083.3 5161.1 5077.4 5153 5083.3 5149.9 5092.8 5158 5098.7 5148 5098.7 5139.9 5092.8 5131.9 5087 5128.8 5096.5 5131.9 5087 5128.8 5096.5 5138.8 5096.5 5141.9 5087 5149.9 5081.1 5159.9 5081.1 5151.9 5075.2 5148.8 5065.7 5138.8 5065.7 5141.9 5075.2 5133.8 5081.1 5141.9 5075.2 5144.9 5084.7 5136.9 5090.6 5139.9 5081.1 5149.9 5081.1 5159.9 5081.1 5163 5071.6 5166.1 5062.1 5156.1 5062.1 5146.1 5062.1 5154.2 5067.9 5146.1 5062.1 5156.1 5062.1" clip-path="url(#a)" fill="none" stroke="#000" stroke-linecap="round"/>
<polyline points="5156.1 5062.1 5159.2 5071.6 5156.1 5062.1 5146.1 5062.1 5149.2 5052.5 5157.3 5046.7 5160.4 5037.2 5170.4 5037.2 5167.3 5046.7 5157.3 5046.7 5149.2 5052.5 5146.1 5043 5136.1 5043 5146.1 5043 5149.2 5052.5 5141.1 5058.4 5133 5052.5 5129.9 5062.1 5138 5067.9 5134.9 5058.4 5143 5052.5 5146.1 5062.1 5154.2 5056.2 5162.3 5050.3 5172.3 5050.3 5164.2 5056.2 5174.2 5056.2 5166.1 5050.3 5176.1 5050.3 5173 5059.8 5169.9 5069.3 5166.9 5078.8 5169.9 5069.3 5173 5059.8 5181.1 5065.7 5171.1 5065.7 5163 5071.6 5173 5071.6 5176.1 5062.1 5173 5052.5 5164.9 5058.4 5161.9 5067.9 5153.8 5073.8" clip-path="url(#a)" fill="none" stroke="#000" stroke-linecap="round"/>
<polyline points="5153.8 5073.8 5150.7 5064.3 5153.8 5054.8 5156.9 5064.3 5153.8 5073.8 5156.9 5064.3 5148.8 5070.2 5156.9 5076.1 5166.9 5076.1 5158.8 5070.2 5166.9 5064.3 5163.8 5054.8 5160.7 5045.3 5168.8 5039.4 5171.9 5029.9 5163.8 5024 5153.8 5024 5150.7 5014.5 5140.7 5014.5 5143.8 5005 5135.7 5010.9 5132.6 5020.4 5135.7 5029.9 5143.8 5035.8 5133.8 5035.8 5136.9 5026.3 5133.8 5035.8 5136.9 5045.3 5146.9 5045.3 5138.8 5051.2 5128.8 5051.2 5118.8 5051.2 5121.9 5060.7 5118.8 5051.2 5121.9 5060.7 5129.9 5054.8 5126.9 5045.3 5129.9 5035.8 5138 5029.9 5128 5029.9 5119.9 5024 5111.9 5029.9 5119.9 5035.8" clip-path="url(#a)" fill="none" stroke="#000" stroke-linecap="round"/>
<polyline points="5119.9 5035.8 5116.9 5045.3 5119.9 5035.8 5128 5041.6 5124.9 5051.2 5121.9 5041.6 5129.9 5035.8 5138 5029.9 5134.9 5020.4 5131.9 5010.9 5123.8 5016.7 5115.7 5022.6 5125.7 5022.6 5115.7 5022.6 5123.8 5016.7 5131.9 5022.6 5123.8 5016.7 5115.7 5022.6 5112.6 5013.1 5115.7 5003.6 5112.6 4994.1 5120.7 4988.2 5123.8 4997.7 5115.7 5003.6 5112.6 5013.1 5104.5 5007.2 5096.4 5013.1 5104.5 5007.2 5112.6 5013.1 5109.5 5022.6 5099.5 5022.6 5102.6 5032.1 5112.6 5032.1 5104.5 5026.3 5107.6 5016.7 5115.7 5022.6 5118.8 5013.1 5121.9 5003.6 5129.9 4997.7 5126.9 5007.2 5134.9 5001.4 5124.9 5001.4 5133 4995.5" clip-path="url(#a)" fill="none" stroke="#000" stroke-linecap="round"/>
<polyline points="5133 4995.5 5136.1 5005 5139.2 5014.5 5142.3 5024 5139.2 5014.5 5136.1 5005 5146.1 5005 5138 5010.9 5134.9 5020.4 5143 5014.5 5139.9 5005 5131.9 4999.1 5128.8 5008.6 5131.9 5018.1 5128.8 5027.6 5120.7 5021.8 5117.6 5012.3 5125.7 5018.1 5128.8 5027.6 5125.7 5018.1 5122.6 5027.6 5132.6 5027.6 5140.7 5021.8 5130.7 5021.8 5133.8 5012.3 5125.7 5006.4 5117.6 5000.5 5120.7 4991 5117.6 4981.5 5107.6 4981.5 5099.5 4987.4 5091.4 4981.5 5083.3 4987.4 5080.2 4977.8 5077.1 4987.4 5080.2 4996.9 5088.3 5002.7 5098.3 5002.7 5090.2 5008.6 5087.1 4999.1 5090.2 5008.6 5098.3 5014.5 5106.4 5008.6" clip-path="url(#a)" fill="none" stroke="#000" stroke-linecap="round"/>
<polyline points="5106.4 5008.6 5103.3 5018.1 5095.2 5024 5087.1 5029.9 5095.2 5035.8 5087.1 5029.9 5095.2 5035.8 5098.3 5026.3 5090.2 5020.4 5087.1 5010.9 5090.2 5001.4 5082.1 5007.2 5072.1 5007.2 5069 5016.7 5079 5016.7 5082.1 5026.3 5079 5016.7 5089 5016.7 5092.1 5026.3 5084 5020.4 5087.1 5010.9 5090.2 5001.4 5082.1 4995.5 5074 4989.6 5071 4999.1 5067.9 5008.6 5076 5002.7 5067.9 5008.6 5071 4999.1 5081 4999.1 5071 4999.1 5067.9 5008.6 5059.8 5002.7 5056.7 4993.2 5048.6 4987.4 5051.7 4977.8 5059.8 4983.7 5056.7 4993.2 5059.8 5002.7 5049.8 5002.7 5046.7 5012.3 5049.8 5002.7 5059.8 5002.7" clip-path="url(#a)" fill="none" stroke="#000" stroke-linecap="round"/>
<polyline points="5059.8 5002.7 5062.9 5012.3 5054.8 5018.1 5062.9 5024 5071 5018.1 5061 5018.1 5057.9 5008.6 5067.9 5008.6 5064.8 4999.1 5061.7 4989.6 5064.8 4980.1 5067.9 4989.6 5071 4980.1 5062.9 4986 5066 4976.5 5074 4982.3 5082.1 4988.2 5090.2 4994.1 5082.1 4988.2 5074 4982.3 5082.1 4976.5 5079 4986 5082.1 4995.5 5085.2 4986 5077.1 4980.1 5067.1 4980.1 5070.2 4989.6 5078.3 4995.5 5081.4 5005 5071.4 5005 5063.3 4999.1 5073.3 4999.1 5081.4 5005 5073.3 4999.1 5076.4 5008.6 5084.5 5002.7 5087.6 4993.2 5079.5 4999.1 5076.4 4989.6 5066.4 4989.6 5056.4 4989.6 5053.3 4980.1 5045.2 4974.2" clip-path="url(#a)" fill="none" stroke="#000" stroke-linecap="round"/>
<polyline points="5045.2 4974.2 5037.1 4980.1 5034 4989.6 5024 4989.6 5021 4999.1 5012.9 4993.2 5016 5002.7 5024 5008.6 5034 5008.6 5042.1 5002.7 5039 5012.3 5031 5006.4 5039 5012.3 5049 5012.3 5052.1 5002.7 5055.2 5012.3 5052.1 5021.8 5049 5031.3 5059 5031.3 5049 5031.3 5059 5031.3 5056 5021.8 5046 5021.8 5037.9 5015.9 5034.8 5006.4 5031.7 5015.9 5023.6 5021.8 5026.7 5031.3 5034.8 5025.4 5042.9 5031.3 5034.8 5025.4 5042.9 5019.5 5051 5025.4 5041 5025.4 5037.9 5015.9 5034.8 5006.4 5024.8 5006.4 5014.8 5006.4 5017.9 5015.9 5021 5025.4 5024 5015.9 5021 5025.4 5017.9 5015.9" clip-path="url(#a)" fill="none" stroke="#000" stroke-linecap="round"/>
<polyline points="5017.9 5015.9 5026 5010 5017.9 5015.9 5021 5025.4 5011 5025.4 5002.9 5019.5 4992.9 5019.5 4989.8 5010 4999.8 5010 5002.9 5019.5 5011 5025.4 5002.9 5031.3 5006 5040.8 5002.9 5031.3 5011 5025.4 5019 5031.3 5016 5040.8 5026 5040.8 5029 5031.3 5021 5037.2 5012.9 5031.3 5021 5025.4 5012.9 5019.5 5004.8 5013.6 5001.7 5004.1 5009.8 5010 5006.7 5000.5 5003.6 5010 5000.5 5000.5 5010.5 5000.5 5020.5 5000.5 5030.5 5000.5 5020.5 5000.5 5010.5 5000.5 5013.6 4991 5016.7 5000.5 5024.8 5006.4 5021.7 4996.9 5011.7 4996.9 5003.6 5002.7 5011.7 5008.6 5021.7 5008.6 5029.8 5014.5" clip-path="url(#a)" fill="none" stroke="#000" stroke-linecap="round"/>
<polyline points="5029.8 5014.5 5021.7 5020.4 5011.7 5020.4 5019.8 5014.5 5029.8 5014.5 5019.8 5014.5 5027.9 5020.4 5031 5010.9 5027.9 5001.4 5024.8 5010.9 5016.7 5005 5008.6 5010.9 5000.5 5016.7 4992.4 5010.9 4982.4 5010.9 4979.3 5020.4 4982.4 5029.9 4974.3 5035.8 4977.4 5045.3 4967.4 5045.3 4975.5 5051.2 4985.5 5051.2 4993.6 5045.3 4996.7 5035.8 4999.8 5045.3 4989.8 5045.3 4999.8 5045.3 5007.9 5039.4 5004.8 5029.9 5012.9 5035.8 5016 5045.3 5019 5054.8 5027.1 5048.9 5019 5054.8 5027.1 5048.9 5019 5043 5011 5048.9 5001 5048.9 4992.9 5043 4996 5052.5 4992.9 5062.1 5001 5067.9 5004 5058.4" clip-path="url(#a)" fill="none" stroke="#000" stroke-linecap="round"/>
<polyline points="5004 5058.4 5014 5058.4 5004 5058.4 5007.1 5048.9 5017.1 5048.9 5009 5054.8 5001 5048.9 4992.9 5043 4984.8 5048.9 4976.7 5054.8 4984.8 5060.7 4992.9 5066.5 4989.8 5057 4992.9 5066.5 4984.8 5060.7 4987.9 5051.2 4984.8 5060.7 4992.9 5066.5 4984.8 5072.4 4974.8 5072.4 4966.7 5078.3 4958.6 5072.4 4966.7 5066.5 4974.8 5072.4 4984.8 5072.4 4981.7 5081.9 4989.8 5087.8 4981.7 5081.9 4984.8 5072.4 4994.8 5072.4 4997.9 5081.9 5006 5076.1 5002.9 5066.5 4999.8 5076.1 4989.8 5076.1 4992.9 5066.5 4982.9 5066.5 4972.9 5066.5 4964.8 5060.7 4974.8 5060.7 4966.7 5054.8 4969.8 5064.3 4961.7 5058.4" clip-path="url(#a)" fill="none" stroke="#000" stroke-linecap="round"/>
<polyline points="4961.7 5058.4 4969.8 5052.5 4977.9 5046.7 4986 5040.8 4977.9 5046.7 4969.8 5052.5 4966.7 5043 4974.8 5048.9 4984.8 5048.9 4976.7 5043 4968.6 5048.9 4965.5 5058.4 4975.5 5058.4 4983.6 5052.5 4993.6 5052.5 4990.5 5062.1 4982.4 5067.9 4985.5 5058.4 4993.6 5052.5 4985.5 5058.4 4995.5 5058.4 4992.4 5048.9 4984.3 5043 4987.4 5052.5 4977.4 5052.5 4974.3 5062.1 4971.2 5071.6 4961.2 5071.6 4953.1 5077.4 4956.2 5087 4964.3 5092.8 4961.2 5102.3 4969.3 5108.2 4961.2 5114.1 4971.2 5114.1 4979.3 5108.2 4982.4 5098.7 4979.3 5089.2 4987.4 5095.1 4979.3 5101 4987.4 5095.1 4990.5 5085.6 4982.4 5079.7" clip-path="url(#a)" fill="none" stroke="#000" stroke-linecap="round"/>
<polyline points="4982.4 5079.7 4992.4 5079.7 5000.5 5085.6 5008.6 5091.4 5011.7 5081.9 5008.6 5091.4 5011.7 5081.9 5001.7 5081.9 4998.6 5091.4 4990.5 5097.3 4980.5 5097.3 4988.6 5103.2 4991.7 5112.7 5001.7 5112.7 4998.6 5103.2 5006.7 5097.3 4998.6 5103.2 4995.5 5093.7 5003.6 5087.8 5000.5 5097.3 4990.5 5097.3 4980.5 5097.3 4977.4 5106.8 4974.3 5116.3 4984.3 5116.3 4994.3 5116.3 4986.2 5110.5 4994.3 5116.3 4984.3 5116.3 4981.2 5106.8 4984.3 5116.3 4994.3 5116.3 4991.2 5125.9 4983.1 5131.7 4980 5141.2 4970 5141.2 4973.1 5131.7 4983.1 5131.7 4991.2 5125.9 4994.3 5135.4 5004.3 5135.4 4994.3 5135.4 4991.2 5125.9" clip-path="url(#a)" fill="none" stroke="#000" stroke-linecap="round"/>
<polyline points="4991.2 5125.9 4999.3 5120 5007.4 5125.9 5010.5 5116.3 5002.4 5110.5 5005.5 5120 4997.4 5125.9 4994.3 5116.3 4986.2 5122.2 4978.1 5128.1 4968.1 5128.1 4976.2 5122.2 4966.2 5122.2 4974.3 5128.1 4964.3 5128.1 4967.4 5118.6 4970.5 5109.1 4973.6 5099.6 4970.5 5109.1 4967.4 5118.6 4959.3 5112.7 4969.3 5112.7 4977.4 5106.8 4967.4 5106.8 4964.3 5116.3 4967.4 5125.9 4975.5 5120 4978.6 5110.5 4986.7 5104.6 4989.8 5114.1 4986.7 5123.6 4983.6 5114.1 4986.7 5104.6 4983.6 5114.1 4991.7 5108.2 4983.6 5102.3 4973.6 5102.3 4981.7 5108.2 4973.6 5114.1 4976.7 5123.6 4979.8 5133.1 4971.7 5139 4968.6 5148.5" clip-path="url(#a)" fill="none" stroke="#000" stroke-linecap="round"/>
<polyline points="4968.6 5148.5 4976.7 5154.4 4986.7 5154.4 4989.8 5163.9 4999.8 5163.9 4996.7 5173.4 5004.8 5167.5 5007.9 5158 5004.8 5148.5 4996.7 5142.6 5006.7 5142.6 5003.6 5152.1 5006.7 5142.6 5003.6 5133.1 4993.6 5133.1 5001.7 5127.2 5011.7 5127.2 5021.7 5127.2 5018.6 5117.7 5021.7 5127.2 5018.6 5117.7 5010.5 5123.6 5013.6 5133.1 5010.5 5142.6 5002.4 5148.5 5012.4 5148.5 5020.5 5154.4 5028.6 5148.5 5020.5 5142.6 5023.6 5133.1 5020.5 5142.6 5012.4 5136.8 5015.5 5127.2 5018.6 5136.8 5010.5 5142.6 5002.4 5148.5 5005.5 5158 5008.6 5167.5 5016.7 5161.6 5024.8 5155.8 5014.8 5155.8 5024.8 5155.8 5016.7 5161.6" clip-path="url(#a)" fill="none" stroke="#000" stroke-linecap="round"/>
<polyline points="5016.7 5161.6 5008.6 5155.8 5016.7 5161.6 5024.8 5155.8 5027.9 5165.3 5024.8 5174.8 5027.9 5184.3 5019.8 5190.2 5016.7 5180.7 5024.8 5174.8 5027.9 5165.3 5036 5171.2 5044 5165.3 5036 5171.2 5027.9 5165.3 5031 5155.8 5041 5155.8 5037.9 5146.3 5027.9 5146.3 5036 5152.1 5032.9 5161.6 5024.8 5155.8 5021.7 5165.3 5018.6 5174.8 5010.5 5180.7 5013.6 5171.2 5005.5 5177 5015.5 5177 5007.4 5182.9 5004.3 5173.4 5001.2 5163.9 4998.1 5154.4 5001.2 5163.9 5004.3 5173.4 4994.3 5173.4 5002.4 5167.5 5005.5 5158 4997.4 5163.9 5000.5 5173.4 5008.6 5179.3 5011.7 5169.8 5008.6 5160.3 5011.7 5150.8" clip-path="url(#a)" fill="none" stroke="#000" stroke-linecap="round"/>
<polyline points="5011.7 5150.8 5019.8 5156.6 5022.9 5166.1 5014.8 5160.3 5011.7 5150.8 5014.8 5160.3 5017.9 5150.8 5007.9 5150.8 4999.8 5156.6 5009.8 5156.6 5006.7 5166.1 5014.8 5172 5022.9 5177.9 5019.8 5187.4 5022.9 5196.9 5032.9 5196.9 5041 5191 5049 5196.9 5057.1 5191 5060.2 5200.5 5063.3 5191 5060.2 5181.5 5052.1 5175.7 5042.1 5175.7 5050.2 5169.8 5053.3 5179.3 5050.2 5169.8 5042.1 5163.9 5034 5169.8 5037.1 5160.3 5045.2 5154.4 5053.3 5148.5 5045.2 5142.6 5053.3 5148.5 5045.2 5142.6 5042.1 5152.1 5050.2 5158 5053.3 5167.5 5050.2 5177 5058.3 5171.2 5068.3 5171.2 5071.4 5161.6 5061.4 5161.6" clip-path="url(#a)" fill="none" stroke="#000" stroke-linecap="round"/>
<polyline points="5061.4 5161.6 5058.3 5152.1 5061.4 5161.6 5051.4 5161.6 5048.3 5152.1 5056.4 5158 5053.3 5167.5 5050.2 5177 5058.3 5182.9 5066.4 5188.8 5069.5 5179.3 5072.6 5169.8 5064.5 5175.7 5072.6 5169.8 5069.5 5179.3 5059.5 5179.3 5069.5 5179.3 5072.6 5169.8 5080.7 5175.7 5083.8 5185.2 5091.9 5191 5088.8 5200.5 5080.7 5194.7 5083.8 5185.2 5080.7 5175.7 5090.7 5175.7 5093.8 5166.1 5090.7 5175.7 5080.7 5175.7 5077.6 5166.1 5085.7 5160.3 5077.6 5154.4 5069.5 5160.3 5079.5 5160.3 5082.6 5169.8 5072.6 5169.8 5075.7 5179.3 5078.8 5188.8 5075.7 5198.3 5072.6 5188.8 5069.5 5198.3 5077.6 5192.4 5074.5 5201.9" clip-path="url(#a)" fill="none" stroke="#000" stroke-linecap="round"/>
<polyline points="5074.5 5201.9 5066.4 5196.1 5058.3 5190.2 5050.2 5184.3 5058.3 5190.2 5066.4 5196.1 5058.3 5201.9 5061.4 5192.4 5058.3 5182.9 5055.2 5192.4 5063.3 5198.3 5073.3 5198.3 5070.2 5188.8 5062.1 5182.9 5059 5173.4 5069 5173.4 5077.1 5179.3 5067.1 5179.3 5059 5173.4 5067.1 5179.3 5064 5169.8 5056 5175.7 5052.9 5185.2 5061 5179.3 5064 5188.8 5074 5188.8 5084 5188.8 5087.1 5198.3 5095.2 5204.2 5103.3 5198.3 5106.4 5188.8 5116.4 5188.8 5119.5 5179.3 5127.6 5185.2 5124.5 5175.7 5116.4 5169.8 5106.4 5169.8 5098.3 5175.7 5101.4 5166.1 5109.5 5172 5101.4 5166.1 5091.4 5166.1 5088.3 5175.7" clip-path="url(#a)" fill="none" stroke="#000" stroke-linecap="round"/>
<polyline points="5088.3 5175.7 5085.2 5166.1 5088.3 5156.6 5091.4 5147.1 5081.4 5147.1 5091.4 5147.1 5081.4 5147.1 5084.5 5156.6 5094.5 5156.6 5102.6 5162.5 5105.7 5172 5108.8 5162.5 5116.9 5156.6 5113.8 5147.1 5105.7 5153 5097.6 5147.1 5105.7 5153 5097.6 5158.9 5089.5 5153 5099.5 5153 5102.6 5162.5 5105.7 5172 5115.7 5172 5125.7 5172 5122.6 5162.5 5119.5 5153 5116.4 5162.5 5119.5 5153 5122.6 5162.5 5114.5 5168.4 5122.6 5162.5 5119.5 5153 5129.5 5153 5137.6 5158.9 5147.6 5158.9 5150.7 5168.4 5140.7 5168.4 5137.6 5158.9 5129.5 5153 5137.6 5147.1 5134.5 5137.6 5137.6 5147.1 5129.5 5153" clip-path="url(#a)" fill="none" stroke="#000" stroke-linecap="round"/>
<polyline points="5129.5 5153 5121.4 5147.1 5124.5 5137.6 5114.5 5137.6 5111.4 5147.1 5119.5 5141.2 5127.6 5147.1 5119.5 5153 5127.6 5158.9 5135.7 5164.8 5138.8 5174.3 5130.7 5168.4 5133.8 5177.9 5136.9 5168.4 5139.9 5177.9 5129.9 5177.9 5119.9 5177.9 5109.9 5177.9 5119.9 5177.9 5129.9 5177.9 5126.9 5187.4 5123.8 5177.9 5115.7 5172 5118.8 5181.5 5128.8 5181.5 5136.9 5175.7 5128.8 5169.8 5118.8 5169.8 5110.7 5163.9 5118.8 5158 5128.8 5158 5120.7 5163.9 5110.7 5163.9 5120.7 5163.9 5112.6 5158 5109.5 5167.5 5112.6 5177 5115.7 5167.5 5123.8 5173.4 5131.9 5167.5 5139.9 5161.6 5148 5167.5 5158 5167.5" clip-path="url(#a)" fill="none" stroke="#000" stroke-linecap="round"/>
<polyline points="5158 5167.5 5161.1 5158 5158 5148.5 5166.1 5142.6 5163 5133.1 5173 5133.1 5164.9 5127.2 5154.9 5127.2 5146.9 5133.1 5143.8 5142.6 5140.7 5133.1 5150.7 5133.1 5140.7 5133.1 5132.6 5139 5135.7 5148.5 5127.6 5142.6 5124.5 5133.1 5121.4 5123.6 5113.3 5129.5 5121.4 5123.6 5113.3 5129.5 5121.4 5135.4 5129.5 5129.5 5139.5 5129.5 5147.6 5135.4 5144.5 5125.9 5147.6 5116.3 5139.5 5110.5 5136.4 5120 5126.4 5120 5136.4 5120 5133.3 5129.5 5123.3 5129.5 5131.4 5123.6 5139.5 5129.5 5147.6 5135.4 5155.7 5129.5 5163.8 5123.6 5155.7 5117.7 5147.6 5111.9 5150.7 5121.4 5147.6 5111.9 5155.7 5117.7" clip-path="url(#a)" fill="none" stroke="#000" stroke-linecap="round"/>
<polyline points="5155.7 5117.7 5152.6 5127.2 5155.7 5117.7 5147.6 5111.9 5155.7 5106 5165.7 5106 5173.8 5100.1 5181.9 5106 5173.8 5111.9 5165.7 5106 5155.7 5106 5158.8 5096.5 5150.7 5090.6 5158.8 5096.5 5155.7 5106 5145.7 5106 5142.6 5096.5 5134.5 5102.3 5137.6 5111.9 5140.7 5102.3 5150.7 5102.3 5147.6 5111.9 5157.6 5111.9 5167.6 5111.9 5175.7 5117.7 5165.7 5117.7 5173.8 5123.6 5170.7 5114.1 5178.8 5120 5170.7 5125.9 5162.6 5131.7 5154.5 5137.6 5162.6 5131.7 5170.7 5125.9 5173.8 5135.4 5165.7 5129.5 5155.7 5129.5 5163.8 5135.4 5171.9 5129.5 5174.9 5120 5164.9 5120 5156.9 5125.9 5146.9 5125.9" clip-path="url(#a)" fill="none" stroke="#000" stroke-linecap="round"/>
<polyline points="5146.9 5125.9 5149.9 5116.3 5158 5110.5 5154.9 5120 5146.9 5125.9 5154.9 5120 5144.9 5120 5148 5129.5 5156.1 5135.4 5153 5125.9 5163 5125.9 5166.1 5116.3 5169.2 5106.8 5179.2 5106.8 5187.3 5101 5184.2 5091.4 5176.1 5085.6 5179.2 5076.1 5171.1 5070.2 5179.2 5064.3 5169.2 5064.3 5161.1 5070.2 5158 5079.7 5161.1 5089.2 5153 5083.3 5161.1 5077.4 5153 5083.3 5149.9 5092.8 5158 5098.7 5148 5098.7 5139.9 5092.8 5131.9 5087 5128.8 5096.5 5131.9 5087 5128.8 5096.5 5138.8 5096.5 5141.9 5087 5149.9 5081.1 5159.9 5081.1 5151.9 5075.2 5148.8 5065.7 5138.8 5065.7 5141.9 5075.2" clip-path="url(#a)" fill="none" stroke="#000" stroke-linecap="round"/>
<polyline points="5141.9 5075.2 5133.8 5081.1 5141.9 5075.2 5144.9 5084.7 5136.9 5090.6 5139.9 5081.1 5149.9 5081.1 5159.9 5081.1 5163 5071.6 5166.1 5062.1 5156.1 5062.1 5146.1 5062.1 5154.2 5067.9 5146.1 5062.1 5156.1 5062.1 5159.2 5071.6 5156.1 5062.1 5146.1 5062.1 5149.2 5052.5 5157.3 5046.7 5160.4 5037.2 5170.4 5037.2 5167.3 5046.7 5157.3 5046.7 5149.2 5052.5 5146.1 5043 5136.1 5043 5146.1 5043 5149.2 5052.5 5141.1 5058.4 5133 5052.5 5129.9 5062.1 5138 5067.9 5134.9 5058.4 5143 5052.5 5146.1 5062.1 5154.2 5056.2 5162.3 5050.3 5172.3 5050.3 5164.2 5056.2 5174.2 5056.2 5166.1 5050.3 5176.1 5050.3" clip-path="url(#a)" fill="none" stroke="#000" stroke-linecap="round"/>
<polyline points="5176.1 5050.3 5173 5059.8 5169.9 5069.3 5166.9 5078.8 5169.9 5069.3 5173 5059.8 5181.1 5065.7 5171.1 5065.7 5163 5071.6 5173 5071.6 5176.1 5062.1 5173 5052.5 5164.9 5058.4 5161.9 5067.9 5153.8 5073.8 5150.7 5064.3 5153.8 5054.8 5156.9 5064.3 5153.8 5073.8 5156.9 5064.3 5148.8 5070.2 5156.9 5076.1 5166.9 5076.1 5158.8 5070.2 5166.9 5064.3 5163.8 5054.8 5160.7 5045.3 5168.8 5039.4 5171.9 5029.9 5163.8 5024 5153.8 5024 5150.7 5014.5 5140.7 5014.5 5143.8 5005 5135.7 5010.9 5132.6 5020.4 5135.7 5029.9 5143.8 5035.8 5133.8 5035.8 5136.9 5026.3 5133.8 5035.8 5136.9 5045.3 5146.9 5045.3" clip-path="url(#a)" fill="none" stroke="#000" stroke-linecap="round"/>
<polyline points="5146.9 5045.3 5138.8 5051.2 5128.8 5051.2 5118.8 5051.2 5121.9 5060.7 5118.8 5051.2 5121.9 5060.7 5129.9 5054.8 5126.9 5045.3 5129.9 5035.8 5138 5029.9 5128 5029.9 5119.9 5024 5111.9 5029.9 5119.9 5035.8 5116.9 5045.3 5119.9 5035.8 5128 5041.6 5124.9 5051.2 5121.9 5041.6 5129.9 5035.8 5138 5029.9 5134.9 5020.4 5131.9 5010.9 5123.8 5016.7 5115.7 5022.6 5125.7 5022.6 5115.7 5022.6 5123.8 5016.7 5131.9 5022.6 5123.8 5016.7 5115.7 5022.6 5112.6 5013.1 5115.7 5003.6 5112.6 4994.1 5120.7 4988.2 5123.8 4997.7 5115.7 5003.6 5112.6 5013.1 5104.5 5007.2 5096.4 5013.1 5104.5 5007.2 5112.6 5013.1" clip-path="url(#a)" fill="none" stroke="#000" stroke-linecap="round"/>
<polyline points="5112.6 5013.1 5109.5 5022.6 5099.5 5022.6 5102.6 5032.1 5112.6 5032.1 5104.5 5026.3 5107.6 5016.7 5115.7 5022.6 5118.8 5013.1 5121.9 5003.6 5129.9 4997.7 5126.9 5007.2 5134.9 5001.4 5124.9 5001.4 5133 4995.5 5136.1 5005 5139.2 5014.5 5142.3 5024 5139.2 5014.5 5136.1 5005 5146.1 5005 5138 5010.9 5134.9 5020.4 5143 5014.5 5139.9 5005 5131.9 4999.1 5128.8 5008.6 5131.9 5018.1 5128.8 5027.6 5120.7 5021.8 5117.6 5012.3 5125.7 5018.1 5128.8 5027.6 5125.7 5018.1 5122.6 5027.6 5132.6 5027.6 5140.7 5021.8 5130.7 5021.8 5133.8 5012.3 5125.7 5006.4 5117.6 5000.5 5120.7 4991 5117.6 4981.5" clip-path="url(#a)" fill="none" stroke="#000" stroke-linecap="round"/>
<polyline points="5117.6 4981.5 5107.6 4981.5 5099.5 4987.4 5091.4 4981.5 5083.3 4987.4 5080.2 4977.8 5077.1 4987.4 5080.2 4996.9 5088.3 5002.7 5098.3 5002.7 5090.2 5008.6 5087.1 4999.1 5090.2 5008.6 5098.3 5014.5 5106.4 5008.6 5103.3 5018.1 5095.2 5024 5087.1 5029.9 5095.2 5035.8 5087.1 5029.9 5095.2 5035.8 5098.3 5026.3 5090.2 5020.4 5087.1 5010.9 5090.2 5001.4 5082.1 5007.2 5072.1 5007.2 5069 5016.7 5079 5016.7 5082.1 5026.3 5079 5016.7 5089 5016.7 5092.1 5026.3 5084 5020.4 5087.1 5010.9 5090.2 5001.4 5082.1 4995.5 5074 4989.6 5071 4999.1 5067.9 5008.6 5076 5002.7 5067.9 5008.6 5071 4999.1" clip-path="url(#a)" fill="none" stroke="#000" stroke-linecap="round"/>
<polyline points="5071 4999.1 5081 4999.1 5071 4999.1 5067.9 5008.6 5059.8 5002.7 5056.7 4993.2 5048.6 4987.4 5051.7 4977.8 5059.8 4983.7 5056.7 4993.2 5059.8 5002.7 5049.8 5002.7 5046.7 5012.3 5049.8 5002.7 5059.8 5002.7 5062.9 5012.3 5054.8 5018.1 5062.9 5024 5071 5018.1 5061 5018.1 5057.9 5008.6 5067.9 5008.6 5064.8 4999.1 5061.7 4989.6 5064.8 4980.1 5067.9 4989.6 5071 4980.1 5062.9 4986 5066 4976.5 5074 4982.3 5082.1 4988.2 5090.2 4994.1 5082.1 4988.2 5074 4982.3 5082.1 4976.5 5079 4986 5082.1 4995.5 5085.2 4986 5077.1 4980.1 5067.1 4980.1 5070.2 4989.6 5078.3 4995.5 5081.4 5005" clip-path="url(#a)" fill="none" stroke="#000" stroke-linecap="round"/>
<polyline points="5081.4 5005 5071.4 5005 5063.3 4999.1 5073.3 4999.1 5081.4 5005 5073.3 4999.1 5076.4 5008.6 5084.5 5002.7 5087.6 4993.2 5079.5 4999.1 5076.4 4989.6 5066.4 4989.6 5056.4 4989.6 5053.3 4980.1 5045.2 4974.2 5037.1 4980.1 5034 4989.6 5024 4989.6 5021 4999.1 5012.9 4993.2 5016 5002.7 5024 5008.6 5034 5008.6 5042.1 5002.7 5039 5012.3 5031 5006.4 5039 5012.3 5049 5012.3 5052.1 5002.7 5055.2 5012.3 5052.1 5021.8 5049 5031.3 5059 5031.3 5049 5031.3 5059 5031.3 5056 5021.8 5046 5021.8 5037.9 5015.9 5034.8 5006.4 5031.7 5015.9 5023.6 5021.8 5026.7 5031.3 5034.8 5025.4" clip-path="url(#a)" fill="none" stroke="#000" stroke-linecap="round"/>
<polyline points="5034.8 5025.4 5042.9 5031.3 5034.8 5025.4 5042.9 5019.5 5051 5025.4 5041 5025.4 5037.9 5015.9 5034.8 5006.4 5024.8 5006.4 5014.8 5006.4 5017.9 5015.9 5021 5025.4 5024 5015.9 5021 5025.4 5017.9 5015.9 5026 5010 5017.9 5015.9 5021 5025.4 5011 5025.4 5002.9 5019.5 4992.9 5019.5 4989.8 5010 4999.8 5010 5002.9 5019.5 5011 5025.4 5002.9 5031.3 5006 5040.8 5002.9 5031.3 5011 5025.4 5019 5031.3 5016 5040.8 5026 5040.8 5029 5031.3 5021 5037.2 5012.9 5031.3 5021 5025.4 5012.9 5019.5 5004.8 5013.6 5001.7 5004.1 5009.8 5010 5006.7 5000.5 5003.6 5010 5000.5 5000.5" clip-path="url(#a)" fill="none" stroke="#000" stroke-linecap="round"/>
<polyline points="5000.5 5000.5 5010.5 5000.5 5020.5 5000.5 5030.5 5000.5 5020.5 5000.5 5010.5 5000.5 5013.6 4991 5016.7 5000.5 5024.8 5006.4 5021.7 4996.9 5011.7 4996.9 5003.6 5002.7 5011.7 5008.6 5021.7 5008.6 5029.8 5014.5 5021.7 5020.4 5011.7 5020.4 5019.8 5014.5 5029.8 5014.5 5019.8 5014.5 5027.9 5020.4 5031 5010.9 5027.9 5001.4 5024.8 5010.9 5016.7 5005 5008.6 5010.9 5000.5 5016.7 4992.4 5010.9 4982.4 5010.9 4979.3 5020.4 4982.4 5029.9 4974.3 5035.8 4977.4 5045.3 4967.4 5045.3 4975.5 5051.2 4985.5 5051.2 4993.6 5045.3 4996.7 5035.8 4999.8 5045.3 4989.8 5045.3 4999.8 5045.3 5007.9 5039.4 5004.8 5029.9" clip-path="url(#a)" fill="none" stroke="#000" stroke-linecap="round"/>
<polyline points="5004.8 5029.9 5012.9 5035.8 5016 5045.3 5019 5054.8 5027.1 5048.9 5019 5054.8 5027.1 5048.9 5019 5043 5011 5048.9 5001 5048.9 4992.9 5043 4996 5052.5 4992.9 5062.1 5001 5067.9 5004 5058.4 5014 5058.4 5004 5058.4 5007.1 5048.9 5017.1 5048.9 5009 5054.8 5001 5048.9 4992.9 5043 4984.8 5048.9 4976.7 5054.8 4984.8 5060.7 4992.9 5066.5 4989.8 5057 4992.9 5066.5 4984.8 5060.7 4987.9 5051.2 4984.8 5060.7 4992.9 5066.5 4984.8 5072.4 4974.8 5072.4 4966.7 5078.3 4958.6 5072.4 4966.7 5066.5 4974.8 5072.4 4984.8 5072.4 4981.7 5081.9 4989.8 5087.8 4981.7 5081.9 4984.8 5072.4" clip-path="url(#a)" fill="none" stroke="#000" stroke-linecap="round"/>
<polyline points="4984.8 5072.4 4994.8 5072.4 4997.9 5081.9 5006 5076.1 5002.9 5066.5 4999.8 5076.1 4989.8 5076.1 4992.9 5066.5 4982.9 5066.5 4972.9 5066.5 4964.8 5060.7 4974.8 5060.7 4966.7 5054.8 4969.8 5064.3 4961.7 5058.4 4969.8 5052.5 4977.9 5046.7 4986 5040.8 4977.9 5046.7 4969.8 5052.5 4966.7 5043 4974.8 5048.9 4984.8 5048.9 4976.7 5043 4968.6 5048.9 4965.5 5058.4 4975.5 5058.4 4983.6 5052.5 4993.6 5052.5 4990.5 5062.1 4982.4 5067.9 4985.5 5058.4 4993.6 5052.5 4985.5 5058.4 4995.5 5058.4 4992.4 5048.9 4984.3 5043 4987.4 5052.5 4977.4 5052.5 4974.3 5062.1 4971.2 5071.6 4961.2 5071.6 4953.1 5077.4" clip-path="url(#a)" fill="none" stroke="#000" stroke-linecap="round"/>
<polyline points="4953.1 5077.4 4956.2 5087 4964.3 5092.8 4961.2 5102.3 4969.3 5108.2 4961.2 5114.1 4971.2 5114.1 4979.3 5108.2 4982.4 5098.7 4979.3 5089.2 4987.4 5095.1 4979.3 5101 4987.4 5095.1 4990.5 5085.6 4982.4 5079.7 4992.4 5079.7 5000.5 5085.6 5008.6 5091.4 5011.7 5081.9 5008.6 5091.4 5011.7 5081.9 5001.7 5081.9 4998.6 5091.4 4990.5 5097.3 4980.5 5097.3 4988.6 5103.2 4991.7 5112.7 5001.7 5112.7 4998.6 5103.2 5006.7 5097.3 4998.6 5103.2 4995.5 5093.7 5003.6 5087.8 5000.5 5097.3 4990.5 5097.3 4980.5 5097.3 4977.4 5106.8 4974.3 5116.3 4984.3 5116.3 4994.3 5116.3 4986.2 5110.5 4994.3 5116.3 4984.3 5116.3" clip-path="url(#a)" fill="none" stroke="#000" stroke-linecap="round"/>
<polyline points="4984.3 5116.3 4981.2 5106.8 4984.3 5116.3 4994.3 5116.3 4991.2 5125.9 4983.1 5131.7 4980 5141.2 4970 5141.2 4973.1 5131.7 4983.1 5131.7 4991.2 5125.9 4994.3 5135.4 5004.3 5135.4 4994.3 5135.4 4991.2 5125.9 4999.3 5120 5007.4 5125.9 5010.5 5116.3 5002.4 5110.5 5005.5 5120 4997.4 5125.9 4994.3 5116.3 4986.2 5122.2 4978.1 5128.1 4968.1 5128.1 4976.2 5122.2 4966.2 5122.2 4974.3 5128.1 4964.3 5128.1 4967.4 5118.6 4970.5 5109.1 4973.6 5099.6 4970.5 5109.1 4967.4 5118.6 4959.3 5112.7 4969.3 5112.7 4977.4 5106.8 4967.4 5106.8 4964.3 5116.3 4967.4 5125.9 4975.5 5120 4978.6 5110.5 4986.7 5104.6" clip-path="url(#a)" fill="none" stroke="#000" stroke-linecap="round"/>
<polyline points="4986.7 5104.6 4989.8 5114.1 4986.7 5123.6 4983.6 5114.1 4986.7 5104.6 4983.6 5114.1 4991.7 5108.2 4983.6 5102.3 4973.6 5102.3 4981.7 5108.2 4973.6 5114.1 4976.7 5123.6 4979.8 5133.1 4971.7 5139 4968.6 5148.5 4976.7 5154.4 4986.7 5154.4 4989.8 5163.9 4999.8 5163.9 4996.7 5173.4 5004.8 5167.5 5007.9 5158 5004.8 5148.5 4996.7 5142.6 5006.7 5142.6 5003.6 5152.1 5006.7 5142.6 5003.6 5133.1 4993.6 5133.1 5001.7 5127.2 5011.7 5127.2 5021.7 5127.2 5018.6 5117.7 5021.7 5127.2 5018.6 5117.7 5010.5 5123.6 5013.6 5133.1 5010.5 5142.6 5002.4 5148.5 5012.4 5148.5 5020.5 5154.4 5028.6 5148.5 5020.5 5142.6" clip-path="url(#a)" fill="none" stroke="#000" stroke-linecap="round"/>
<polyline points="5020.5 5142.6 5023.6 5133.1 5020.5 5142.6 5012.4 5136.8 5015.5 5127.2 5018.6 5136.8 5010.5 5142.6 5002.4 5148.5 5005.5 5158 5008.6 5167.5 5016.7 5161.6 5024.8 5155.8 5014.8 5155.8 5024.8 5155.8 5016.7 5161.6 5008.6 5155.8 5016.7 5161.6 5024.8 5155.8 5027.9 5165.3 5024.8 5174.8 5027.9 5184.3 5019.8 5190.2 5016.7 5180.7 5024.8 5174.8 5027.9 5165.3 5036 5171.2 5044 5165.3 5036 5171.2 5027.9 5165.3 5031 5155.8 5041 5155.8 5037.9 5146.3 5027.9 5146.3 5036 5152.1 5032.9 5161.6 5024.8 5155.8 5021.7 5165.3 5018.6 5174.8 5010.5 5180.7 5013.6 5171.2 5005.5 5177 5015.5 5177 5007.4 5182.9" clip-path="url(#a)" fill="none" stroke="#000" stroke-linecap="round"/>
<polyline points="5007.4 5182.9 5004.3 5173.4 5001.2 5163.9 4998.1 5154.4 5001.2 5163.9 5004.3 5173.4 4994.3 5173.4 5002.4 5167.5 5005.5 5158 4997.4 5163.9 5000.5 5173.4 5008.6 5179.3 5011.7 5169.8 5008.6 5160.3 5011.7 5150.8 5019.8 5156.6 5022.9 5166.1 5014.8 5160.3 5011.7 5150.8 5014.8 5160.3 5017.9 5150.8 5007.9 5150.8 4999.8 5156.6 5009.8 5156.6 5006.7 5166.1 5014.8 5172 5022.9 5177.9 5019.8 5187.4 5022.9 5196.9 5032.9 5196.9 5041 5191 5049 5196.9 5057.1 5191 5060.2 5200.5 5063.3 5191 5060.2 5181.5 5052.1 5175.7 5042.1 5175.7 5050.2 5169.8 5053.3 5179.3 5050.2 5169.8 5042.1 5163.9 5034 5169.8" clip-path="url(#a)" fill="none" stroke="#000" stroke-linecap="round"/>
<polyline points="5034 5169.8 5037.1 5160.3 5045.2 5154.4 5053.3 5148.5 5045.2 5142.6 5053.3 5148.5 5045.2 5142.6 5042.1 5152.1 5050.2 5158 5053.3 5167.5 5050.2 5177 5058.3 5171.2 5068.3 5171.2 5071.4 5161.6 5061.4 5161.6 5058.3 5152.1 5061.4 5161.6 5051.4 5161.6 5048.3 5152.1 5056.4 5158 5053.3 5167.5 5050.2 5177 5058.3 5182.9 5066.4 5188.8 5069.5 5179.3 5072.6 5169.8 5064.5 5175.7 5072.6 5169.8 5069.5 5179.3 5059.5 5179.3 5069.5 5179.3 5072.6 5169.8 5080.7 5175.7 5083.8 5185.2 5091.9 5191 5088.8 5200.5 5080.7 5194.7 5083.8 5185.2 5080.7 5175.7 5090.7 5175.7 5093.8 5166.1 5090.7 5175.7 5080.7 5175.7" clip-path="url(#a)" fill="none" stroke="#000" stroke-linecap="round"/>
<polyline points="5080.7 5175.7 5077.6 5166.1 5085.7 5160.3 5077.6 5154.4 5069.5 5160.3 5079.5 5160.3 5082.6 5169.8 5072.6 5169.8 5075.7 5179.3 5078.8 5188.8 5075.7 5198.3 5072.6 5188.8 5069.5 5198.3 5077.6 5192.4 5074.5 5201.9 5066.4 5196.1 5058.3 5190.2 5050.2 5184.3 5058.3 5190.2 5066.4 5196.1 5058.3 5201.9 5061.4 5192.4 5058.3 5182.9 5055.2 5192.4 5063.3 5198.3 5073.3 5198.3 5070.2 5188.8 5062.1 5182.9 5059 5173.4 5069 5173.4 5077.1 5179.3 5067.1 5179.3 5059 5173.4 5067.1 5179.3 5064 5169.8 5056 5175.7 5052.9 5185.2 5061 5179.3 5064 5188.8 5074 5188.8 5084 5188.8 5087.1 5198.3 5095.2 5204.2" clip-path="url(#a)" fill="none" stroke="#000" stroke-linecap="round"/>
<polyline points="5095.2 5204.2 5103.3 5198.3 5106.4 5188.8 5116.4 5188.8 5119.5 5179.3 5127.6 5185.2 5124.5 5175.7 5116.4 5169.8 5106.4 5169.8 5098.3 5175.7 5101.4 5166.1 5109.5 5172 5101.4 5166.1 5091.4 5166.1 5088.3 5175.7 5085.2 5166.1 5088.3 5156.6 5091.4 5147.1 5081.4 5147.1 5091.4 5147.1 5081.4 5147.1 5084.5 5156.6 5094.5 5156.6 5102.6 5162.5 5105.7 5172 5108.8 5162.5 5116.9 5156.6 5113.8 5147.1 5105.7 5153 5097.6 5147.1 5105.7 5153 5097.6 5158.9 5089.5 5153 5099.5 5153 5102.6 5162.5 5105.7 5172 5115.7 5172 5125.7 5172 5122.6 5162.5 5119.5 5153 5116.4 5162.5 5119.5 5153 5122.6 5162.5" clip-path="url(#a)" fill="none" stroke="#000" stroke-linecap="round"/>
<polyline points="5122.6 5162.5 5114.5 5168.4 5122.6 5162.5 5119.5 5153 5129.5 5153 5137.6 5158.9 5147.6 5158.9 5150.7 5168.4 5140.7 5168.4 5137.6 5158.9 5129.5 5153 5137.6 5147.1 5134.5 5137.6 5137.6 5147.1 5129.5 5153 5121.4 5147.1 5124.5 5137.6 5114.5 5137.6 5111.4 5147.1 5119.5 5141.2 5127.6 5147.1 5119.5 5153 5127.6 5158.9 5135.7 5164.8 5138.8 5174.3 5130.7 5168.4 5133.8 5177.9 5136.9 5168.4 5139.9 5177.9 5129.9 5177.9 5119.9 5177.9 5109.9 5177.9 5119.9 5177.9 5129.9 5177.9 5126.9 5187.4 5123.8 5177.9 5115.7 5172 5118.8 5181.5 5128.8 5181.5 5136.9 5175.7 5128.8 5169.8 5118.8 5169.8 5110.7 5163.9" clip-path="url(#a)" fill="none" stroke="#000" stroke-linecap="round"/>
<polyline points="5110.7 5163.9 5118.8 5158 5128.8 5158 5120.7 5163.9 5110.7 5163.9 5120.7 5163.9 5112.6 5158 5109.5 5167.5 5112.6 5177 5115.7 5167.5 5123.8 5173.4 5131.9 5167.5 5139.9 5161.6 5148 5167.5 5158 5167.5 5161.1 5158 5158 5148.5 5166.1 5142.6 5163 5133.1 5173 5133.1 5164.9 5127.2 5154.9 5127.2 5146.9 5133.1 5143.8 5142.6 5140.7 5133.1 5150.7 5133.1 5140.7 5133.1 5132.6 5139 5135.7 5148.5 5127.6 5142.6 5124.5 5133.1 5121.4 5123.6 5113.3 5129.5 5121.4 5123.6 5113.3 5129.5 5121.4 5135.4 5129.5 5129.5 5139.5 5129.5 5147.6 5135.4 5144.5 5125.9 5147.6 5116.3 5139.5 5110.5 5136.4 5120" clip-path="url(#a)" fill="none" stroke="#000" stroke-linecap="round"/>
<polyline points="5136.4 5120 5126.4 5120 5136.4 5120 5133.3 5129.5 5123.3 5129.5 5131.4 5123.6 5139.5 5129.5 5147.6 5135.4 5155.7 5129.5 5163.8 5123.6 5155.7 5117.7 5147.6 5111.9 5150.7 5121.4 5147.6 5111.9 5155.7 5117.7 5152.6 5127.2 5155.7 5117.7 5147.6 5111.9 5155.7 5106 5165.7 5106 5173.8 5100.1 5181.9 5106 5173.8 5111.9 5165.7 5106 5155.7 5106 5158.8 5096.5 5150.7 5090.6 5158.8 5096.5 5155.7 5106 5145.7 5106 5142.6 5096.5 5134.5 5102.3 5137.6 5111.9 5140.7 5102.3 5150.7 5102.3 5147.6 5111.9 5157.6 5111.9 5167.6 5111.9 5175.7 5117.7 5165.7 5117.7 5173.8 5123.6 5170.7 5114.1 5178.8 5120" clip-path="url(#a)" fill="none" stroke="#000" stroke-linecap="round"/>
<polyline points="5178.8 5120 5170.7 5125.9 5162.6 5131.7 5154.5 5137.6 5162.6 5131.7 5170.7 5125.9 5173.8 5135.4 5165.7 5129.5 5155.7 5129.5 5163.8 5135.4 5171.9 5129.5 5174.9 5120 5164.9 5120 5156.9 5125.9 5146.9 5125.9 5149.9 5116.3 5158 5110.5 5154.9 5120 5146.9 5125.9 5154.9 5120 5144.9 5120 5148 5129.5 5156.1 5135.4 5153 5125.9 5163 5125.9 5166.1 5116.3 5169.2 5106.8 5179.2 5106.8 5187.3 5101 5184.2 5091.4 5176.1 5085.6 5179.2 5076.1 5171.1 5070.2 5179.2 5064.3 5169.2 5064.3 5161.1 5070.2 5158 5079.7 5161.1 5089.2 5153 5083.3 5161.1 5077.4 5153 5083.3 5149.9 5092.8 5158 5098.7" clip-path="url(#a)" fill="none" stroke="#000" stroke-linecap="round"/>
<polyline points="5158 5098.7 5148 5098.7 5139.9 5092.8 5131.9 5087 5128.8 5096.5 5131.9 5087 5128.8 5096.5 5138.8 5096.5 5141.9 5087 5149.9 5081.1 5159.9 5081.1 5151.9 5075.2 5148.8 5065.7 5138.8 5065.7 5141.9 5075.2 5133.8 5081.1 5141.9 5075.2 5144.9 5084.7 5136.9 5090.6 5139.9 5081.1 5149.9 5081.1 5159.9 5081.1 5163 5071.6 5166.1 5062.1 5156.1 5062.1 5146.1 5062.1 5154.2 5067.9 5146.1 5062.1 5156.1 5062.1 5159.2 5071.6 5156.1 5062.1 5146.1 5062.1 5149.2 5052.5 5157.3 5046.7 5160.4 5037.2 5170.4 5037.2 5167.3 5046.7 5157.3 5046.7 5149.2 5052.5 5146.1 5043 5136.1 5043 5146.1 5043 5149.2 5052.5" clip-path="url(#a)" fill="none" stroke="#000" stroke-linecap="round"/>
<polyline points="5149.2 5052.5 5141.1 5058.4 5133 5052.5 5129.9 5062.1 5138 5067.9 5134.9 5058.4 5143 5052.5 5146.1 5062.1 5154.2 5056.2 5162.3 5050.3 5172.3 5050.3 5164.2 5056.2 5174.2 5056.2 5166.1 5050.3 5176.1 5050.3 5173 5059.8 5169.9 5069.3 5166.9 5078.8 5169.9 5069.3 5173 5059.8 5181.1 5065.7 5171.1 5065.7 5163 5071.6 5173 5071.6 5176.1 5062.1 5173 5052.5 5164.9 5058.4 5161.9 5067.9 5153.8 5073.8 5150.7 5064.3 5153.8 5054.8 5156.9 5064.3 5153.8 5073.8 5156.9 5064.3 5148.8 5070.2 5156.9 5076.1 5166.9 5076.1 5158.8 5070.2 5166.9 5064.3 5163.8 5054.8 5160.7 5045.3 5168.8 5039.4 5171.9 5029.9" clip-path="url(#a)" fill="none" stroke="#000" stroke-linecap="round"/>
<polyline points="5171.9 5029.9 5163.8 5024 5153.8 5024 5150.7 5014.5 5140.7 5014.5 5143.8 5005 5135.7 5010.9 5132.6 5020.4 5135.7 5029.9 5143.8 5035.8 5133.8 5035.8 5136.9 5026.3 5133.8 5035.8 5136.9 5045.3 5146.9 5045.3 5138.8 5051.2 5128.8 5051.2 5118.8 5051.2 5121.9 5060.7 5118.8 5051.2 5121.9 5060.7 5129.9 5054.8 5126.9 5045.3 5129.9 5035.8 5138 5029.9 5128 5029.9 5119.9 5024 5111.9 5029.9 5119.9 5035.8 5116.9 5045.3 5119.9 5035.8 5128 5041.6 5124.9 5051.2 5121.9 5041.6 5129.9 5035.8 5138 5029.9 5134.9 5020.4 5131.9 5010.9 5123.8 5016.7 5115.7 5022.6 5125.7 5022.6 5115.7 5022.6 5123.8 5016.7" clip-path="url(#a)" fill="none" stroke="#000" stroke-linecap="round"/>
<polyline points="5123.8 5016.7 5131.9 5022.6 5123.8 5016.7 5115.7 5022.6 5112.6 5013.1 5115.7 5003.6 5112.6 4994.1 5120.7 4988.2 5123.8 4997.7 5115.7 5003.6 5112.6 5013.1 5104.5 5007.2 5096.4 5013.1 5104.5 5007.2 5112.6 5013.1 5109.5 5022.6 5099.5 5022.6 5102.6 5032.1 5112.6 5032.1 5104.5 5026.3 5107.6 5016.7 5115.7 5022.6 5118.8 5013.1 5121.9 5003.6 5129.9 4997.7 5126.9 5007.2 5134.9 5001.4 5124.9 5001.4 5133 4995.5 5136.1 5005 5139.2 5014.5 5142.3 5024 5139.2 5014.5 5136.1 5005 5146.1 5005 5138 5010.9 5134.9 5020.4 5143 5014.5 5139.9 5005 5131.9 4999.1 5128.8 5008.6 5131.9 5018.1 5128.8 5027.6" clip-path="url(#a)" fill="none" stroke="#000" stroke-linecap="round"/>
<polyline points="5128.8 5027.6 5120.7 5021.8 5117.6 5012.3 5125.7 5018.1 5128.8 5027.6 5125.7 5018.1 5122.6 5027.6 5132.6 5027.6 5140.7 5021.8 5130.7 5021.8 5133.8 5012.3 5125.7 5006.4 5117.6 5000.5 5120.7 4991 5117.6 4981.5 5107.6 4981.5 5099.5 4987.4 5091.4 4981.5 5083.3 4987.4 5080.2 4977.8 5077.1 4987.4 5080.2 4996.9 5088.3 5002.7 5098.3 5002.7 5090.2 5008.6 5087.1 4999.1 5090.2 5008.6 5098.3 5014.5 5106.4 5008.6 5103.3 5018.1 5095.2 5024 5087.1 5029.9 5095.2 5035.8 5087.1 5029.9 5095.2 5035.8 5098.3 5026.3 5090.2 5020.4 5087.1 5010.9 5090.2 5001.4 5082.1 5007.2 5072.1 5007.2 5069 5016.7 5079 5016.7" clip-path="url(#a)" fill="none" stroke="#000" stroke-linecap="round"/>
<polyline points="5079 5016.7 5082.1 5026.3 5079 5016.7 5089 5016.7 5092.1 5026.3 5084 5020.4 5087.1 5010.9 5090.2 5001.4 5082.1 4995.5 5074 4989.6 5071 4999.1 5067.9 5008.6 5076 5002.7 5067.9 5008.6 5071 4999.1 5081 4999.1 5071 4999.1 5067.9 5008.6 5059.8 5002.7 5056.7 4993.2 5048.6 4987.4 5051.7 4977.8 5059.8 4983.7 5056.7 4993.2 5059.8 5002.7 5049.8 5002.7 5046.7 5012.3 5049.8 5002.7 5059.8 5002.7 5062.9 5012.3 5054.8 5018.1 5062.9 5024 5071 5018.1 5061 5018.1 5057.9 5008.6 5067.9 5008.6 5064.8 4999.1 5061.7 4989.6 5064.8 4980.1 5067.9 4989.6 5071 4980.1 5062.9 4986 5066 4976.5" clip-path="url(#a)" fill="none" stroke="#000" stroke-linecap="round"/>
<polyline points="5066 4976.5 5074 4982.3 5082.1 4988.2 5090.2 4994.1 5082.1 4988.2 5074 4982.3 5082.1 4976.5 5079 4986 5082.1 4995.5 5085.2 4986 5077.1 4980.1 5067.1 4980.1 5070.2 4989.6 5078.3 4995.5 5081.4 5005 5071.4 5005 5063.3 4999.1 5073.3 4999.1 5081.4 5005 5073.3 4999.1 5076.4 5008.6 5084.5 5002.7 5087.6 4993.2 5079.5 4999.1 5076.4 4989.6 5066.4 4989.6 5056.4 4989.6 5053.3 4980.1 5045.2 4974.2 5037.1 4980.1 5034 4989.6 5024 4989.6 5021 4999.1 5012.9 4993.2 5016 5002.7 5024 5008.6 5034 5008.6 5042.1 5002.7 5039 5012.3 5031 5006.4 5039 5012.3 5049 5012.3 5052.1 5002.7" clip-path="url(#a)" fill="none" stroke="#000" stroke-linecap="round"/>
<polyline points="5052.1 5002.7 5055.2 5012.3 5052.1 5021.8 5049 5031.3 5059 5031.3 5049 5031.3 5059 5031.3 5056 5021.8 5046 5021.8 5037.9 5015.9 5034.8 5006.4 5031.7 5015.9 5023.6 5021.8 5026.7 5031.3 5034.8 5025.4 5042.9 5031.3 5034.8 5025.4 5042.9 5019.5 5051 5025.4 5041 5025.4 5037.9 5015.9 5034.8 5006.4 5024.8 5006.4 5014.8 5006.4 5017.9 5015.9 5021 5025.4 5024 5015.9 5021 5025.4 5017.9 5015.9 5026 5010 5017.9 5015.9 5021 5025.4 5011 5025.4 5002.9 5019.5 4992.9 5019.5 4989.8 5010 4999.8 5010 5002.9 5019.5 5011 5025.4 5002.9 5031.3 5006 5040.8 5002.9 5031.3 5011 5025.4" clip-path="url(#a)" fill="none" stroke="#000" stroke-linecap="round"/>
<polyline points="5011 5025.4 5019 5031.3 5016 5040.8 5026 5040.8 5029 5031.3 5021 5037.2 5012.9 5031.3 5021 5025.4 5012.9 5019.5 5004.8 5013.6 5001.7 5004.1 5009.8 5010 5006.7 5000.5 5003.6 5010 5000.5 5000.5" clip-path="url(#a)" fill="none" stroke="#000" stroke-linecap="round"/>
</svg>
