<?xml version="1.0" encoding="UTF-8"?>
<svg width="1e4px" height="1e4px" baseProfile="full" version="1.1" viewBox="4974.3 4973.4 59.271 113.6" xmlns="http://www.w3.org/2000/svg">
<defs>
<clipPath id="a">
<rect width="1e4" height="1e4"/>
</clipPath>
</defs>
<polyline points="5000.5 5000.5 5010.5 5000.5 5020.5 5000.5 5030.5 5000.5 5022.4 4994.6 5030.5 4988.7 5022.4 4982.9 5019.3 4973.4 5011.2 4979.2 5019.3 4985.1 5009.3 4985.1 5017.4 4991 5020.5 5000.5 5030.5 5000.5 5033.6 5010 5030.5 5019.5 5027.4 5029 5019.3 5034.9 5009.3 5034.9 5019.3 5034.9 5022.4 5025.4 5025.5 5034.9 5028.6 5044.4 5020.5 5038.5 5030.5 5038.5 5027.4 5029 5030.5 5038.5 5033.6 5048.1 5023.6 5048.1 5015.5 5053.9 5007.4 5059.8 4997.4 5059.8 4987.4 5059.8 4977.4 5059.8 4985.5 5065.7 4977.4 5071.6 4985.5 5077.4 4988.6 5087 4996.7 5081.1 4988.6 5075.2 4998.6 5075.2 4990.5 5069.3 4987.4 5059.8" clip-path="url(#a)" fill="none" stroke="#000" stroke-linecap="round"/>
<polyline points="4987.4 5059.8 4977.4 5059.8 4974.3 5050.3 4977.4 5040.8 4980.5 5031.3 4988.6 5025.4 4998.6 5025.4 4988.6 5025.4 4985.5 5034.9 4982.4 5025.4 4979.3 5015.9 4987.4 5021.8 4977.4 5021.8 4980.5 5031.3 4977.4 5021.8 4974.3 5012.3 4984.3 5012.3 4992.4 5006.4 5000.5 5000.5 5010.5 5000.5 5020.5 5000.5 5030.5 5000.5 5022.4 4994.6 5030.5 4988.7 5022.4 4982.9 5019.3 4973.4 5011.2 4979.2 5019.3 4985.1 5009.3 4985.1 5017.4 4991 5020.5 5000.5 5030.5 5000.5 5033.6 5010 5030.5 5019.5 5027.4 5029 5019.3 5034.9 5009.3 5034.9 5019.3 5034.9 5022.4 5025.4 5025.5 5034.9 5028.6 5044.4 5020.5 5038.5 5030.5 5038.5" clip-path="url(#a)" fill="none" stroke="#000" stroke-linecap="round"/>
<polyline points="5030.5 5038.5 5027.4 5029 5030.5 5038.5 5033.6 5048.1 5023.6 5048.1 5015.5 5053.9 5007.4 5059.8 4997.4 5059.8 4987.4 5059.8 4977.4 5059.8 4985.5 5065.7 4977.4 5071.6 4985.5 5077.4 4988.6 5087 4996.7 5081.1 4988.6 5075.2 4998.6 5075.2 4990.5 5069.3 4987.4 5059.8 4977.4 5059.8 4974.3 5050.3 4977.4 5040.8 4980.5 5031.3 4988.6 5025.4 4998.6 5025.4 4988.6 5025.4 4985.5 5034.9 4982.4 5025.4 4979.3 5015.9 4987.4 5021.8 4977.4 5021.8 4980.5 5031.3 4977.4 5021.8 4974.3 5012.3 4984.3 5012.3 4992.4 5006.4 5000.5 5000.5 5010.5 5000.5 5020.5 5000.5 5030.5 5000.5 5022.4 4994.6 5030.5 4988.7 5022.4 4982.9" clip-path="url(#a)" fill="none" stroke="#000" stroke-linecap="round"/>
<polyline points="5022.4 4982.9 5019.3 4973.4 5011.2 4979.2 5019.3 4985.1 5009.3 4985.1 5017.4 4991 5020.5 5000.5 5030.5 5000.5 5033.6 5010 5030.5 5019.5 5027.4 5029 5019.3 5034.9 5009.3 5034.9 5019.3 5034.9 5022.4 5025.4 5025.5 5034.9 5028.6 5044.4 5020.5 5038.5 5030.5 5038.5 5027.4 5029 5030.5 5038.5 5033.6 5048.1 5023.6 5048.1 5015.5 5053.9 5007.4 5059.8 4997.4 5059.8 4987.4 5059.8 4977.4 5059.8 4985.5 5065.7 4977.4 5071.6 4985.5 5077.4 4988.6 5087 4996.7 5081.1 4988.6 5075.2 4998.6 5075.2 4990.5 5069.3 4987.4 5059.8 4977.4 5059.8 4974.3 5050.3 4977.4 5040.8 4980.5 5031.3 4988.6 5025.4 4998.6 5025.4" clip-path="url(#a)" fill="none" stroke="#000" stroke-linecap="round"/>
<polyline points="4998.6 5025.4 4988.6 5025.4 4985.5 5034.9 4982.4 5025.4 4979.3 5015.9 4987.4 5021.8 4977.4 5021.8 4980.5 5031.3 4977.4 5021.8 4974.3 5012.3 4984.3 5012.3 4992.4 5006.4 5000.5 5000.5 5010.5 5000.5 5020.5 5000.5 5030.5 5000.5 5022.4 4994.6 5030.5 4988.7 5022.4 4982.9 5019.3 4973.4 5011.2 4979.2 5019.3 4985.1 5009.3 4985.1 5017.4 4991 5020.5 5000.5 5030.5 5000.5 5033.6 5010 5030.5 5019.5 5027.4 5029 5019.3 5034.9 5009.3 5034.9 5019.3 5034.9 5022.4 5025.4 5025.5 5034.9 5028.6 5044.4 5020.5 5038.5 5030.5 5038.5 5027.4 5029 5030.5 5038.5 5033.6 5048.1 5023.6 5048.1 5015.5 5053.9 5007.4 5059.8" clip-path="url(#a)" fill="none" stroke="#000" stroke-linecap="round"/>
<polyline points="5007.4 5059.8 4997.4 5059.8 4987.4 5059.8 4977.4 5059.8 4985.5 5065.7 4977.4 5071.6 4985.5 5077.4 4988.6 5087 4996.7 5081.1 4988.6 5075.2 4998.6 5075.2 4990.5 5069.3 4987.4 5059.8 4977.4 5059.8 4974.3 5050.3 4977.4 5040.8 4980.5 5031.3 4988.6 5025.4 4998.6 5025.4 4988.6 5025.4 4985.5 5034.9 4982.4 5025.4 4979.3 5015.9 4987.4 5021.8 4977.4 5021.8 4980.5 5031.3 4977.4 5021.8 4974.3 5012.3 4984.3 5012.3 4992.4 5006.4 5000.5 5000.5 5010.5 5000.5 5020.5 5000.5 5030.5 5000.5 5022.4 4994.6 5030.5 4988.7 5022.4 4982.9 5019.3 4973.4 5011.2 4979.2 5019.3 4985.1 5009.3 4985.1 5017.4 4991 5020.5 5000.5" clip-path="url(#a)" fill="none" stroke="#000" stroke-linecap="round"/>
<polyline points="5020.5 5000.5 5030.5 5000.5 5033.6 5010 5030.5 5019.5 5027.4 5029 5019.3 5034.9 5009.3 5034.9 5019.3 5034.9 5022.4 5025.4 5025.5 5034.9 5028.6 5044.4 5020.5 5038.5 5030.5 5038.5 5027.4 5029 5030.5 5038.5 5033.6 5048.1 5023.6 5048.1 5015.5 5053.9 5007.4 5059.8 4997.4 5059.8 4987.4 5059.8 4977.4 5059.8 4985.5 5065.7 4977.4 5071.6 4985.5 5077.4 4988.6 5087 4996.7 5081.1 4988.6 5075.2 4998.6 5075.2 4990.5 5069.3 4987.4 5059.8 4977.4 5059.8 4974.3 5050.3 4977.4 5040.8 4980.5 5031.3 4988.6 5025.4 4998.6 5025.4 4988.6 5025.4 4985.5 5034.9 4982.4 5025.4 4979.3 5015.9 4987.4 5021.8 4977.4 5021.8" clip-path="url(#a)" fill="none" stroke="#000" stroke-linecap="round"/>
<polyline points="4977.4 5021.8 4980.5 5031.3 4977.4 5021.8 4974.3 5012.3 4984.3 5012.3 4992.4 5006.4 5000.5 5000.5 5010.5 5000.5 5020.5 5000.5 5030.5 5000.5 5022.4 4994.6 5030.5 4988.7 5022.4 4982.9 5019.3 4973.4 5011.2 4979.2 5019.3 4985.1 5009.3 4985.1 5017.4 4991 5020.5 5000.5 5030.5 5000.5 5033.6 5010 5030.5 5019.5 5027.4 5029 5019.3 5034.9 5009.3 5034.9 5019.3 5034.9 5022.4 5025.4 5025.5 5034.9 5028.6 5044.4 5020.5 5038.5 5030.5 5038.5 5027.4 5029 5030.5 5038.5 5033.6 5048.1 5023.6 5048.1 5015.5 5053.9 5007.4 5059.8 4997.4 5059.8 4987.4 5059.8 4977.4 5059.8 4985.5 5065.7 4977.4 5071.6 4985.5 5077.4" clip-path="url(#a)" fill="none" stroke="#000" stroke-linecap="round"/>
<polyline points="4985.5 5077.4 4988.6 5087 4996.7 5081.1 4988.6 5075.2 4998.6 5075.2 4990.5 5069.3 4987.4 5059.8 4977.4 5059.8 4974.3 5050.3 4977.4 5040.8 4980.5 5031.3 4988.6 5025.4 4998.6 5025.4 4988.6 5025.4 4985.5 5034.9 4982.4 5025.4 4979.3 5015.9 4987.4 5021.8 4977.4 5021.8 4980.5 5031.3 4977.4 5021.8 4974.3 5012.3 4984.3 5012.3 4992.4 5006.4 5000.5 5000.5 5010.5 5000.5 5020.5 5000.5 5030.5 5000.5 5022.4 4994.6 5030.5 4988.7 5022.4 4982.9 5019.3 4973.4 5011.2 4979.2 5019.3 4985.1 5009.3 4985.1 5017.4 4991 5020.5 5000.5 5030.5 5000.5 5033.6 5010 5030.5 5019.5 5027.4 5029 5019.3 5034.9 5009.3 5034.9" clip-path="url(#a)" fill="none" stroke="#000" stroke-linecap="round"/>
<polyline points="5009.3 5034.9 5019.3 5034.9 5022.4 5025.4 5025.5 5034.9 5028.6 5044.4 5020.5 5038.5 5030.5 5038.5 5027.4 5029 5030.5 5038.5 5033.6 5048.1 5023.6 5048.1 5015.5 5053.9 5007.4 5059.8 4997.4 5059.8 4987.4 5059.8 4977.4 5059.8 4985.5 5065.7 4977.4 5071.6 4985.5 5077.4 4988.6 5087 4996.7 5081.1 4988.6 5075.2 4998.6 5075.2 4990.5 5069.3 4987.4 5059.8 4977.4 5059.8 4974.3 5050.3 4977.4 5040.8 4980.5 5031.3 4988.6 5025.4 4998.6 5025.4 4988.6 5025.4 4985.5 5034.9 4982.4 5025.4 4979.3 5015.9 4987.4 5021.8 4977.4 5021.8 4980.5 5031.3 4977.4 5021.8 4974.3 5012.3 4984.3 5012.3 4992.4 5006.4 5000.5 5000.5" clip-path="url(#a)" fill="none" stroke="#000" stroke-linecap="round"/>
<polyline points="5000.5 5000.5 5010.5 5000.5 5020.5 5000.5 5030.5 5000.5 5022.4 4994.6 5030.5 4988.7 5022.4 4982.9 5019.3 4973.4 5011.2 4979.2 5019.3 4985.1 5009.3 4985.1 5017.4 4991 5020.5 5000.5 5030.5 5000.5 5033.6 5010 5030.5 5019.5 5027.4 5029 5019.3 5034.9 5009.3 5034.9 5019.3 5034.9 5022.4 5025.4 5025.5 5034.9 5028.6 5044.4 5020.5 5038.5 5030.5 5038.5 5027.4 5029 5030.5 5038.5 5033.6 5048.1 5023.6 5048.1 5015.5 5053.9 5007.4 5059.8 4997.4 5059.8 4987.4 5059.8 4977.4 5059.8 4985.5 5065.7 4977.4 5071.6 4985.5 5077.4 4988.6 5087 4996.7 5081.1 4988.6 5075.2 4998.6 5075.2 4990.5 5069.3 4987.4 5059.8" clip-path="url(#a)" fill="none" stroke="#000" stroke-linecap="round"/>
<polyline points="4987.4 5059.8 4977.4 5059.8 4974.3 5050.3 4977.4 5040.8 4980.5 5031.3 4988.6 5025.4 4998.6 5025.4 4988.6 5025.4 4985.5 5034.9 4982.4 5025.4 4979.3 5015.9 4987.4 5021.8 4977.4 5021.8 4980.5 5031.3 4977.4 5021.8 4974.3 5012.3 4984.3 5012.3 4992.4 5006.4 5000.5 5000.5 5010.5 5000.5 5020.5 5000.5 5030.5 5000.5 5022.4 4994.6 5030.5 4988.7 5022.4 4982.9 5019.3 4973.4 5011.2 4979.2 5019.3 4985.1 5009.3 4985.1 5017.4 4991 5020.5 5000.5 5030.5 5000.5 5033.6 5010 5030.5 5019.5 5027.4 5029 5019.3 5034.9 5009.3 5034.9 5019.3 5034.9 5022.4 5025.4 5025.5 5034.9 5028.6 5044.4 5020.5 5038.5 5030.5 5038.5" clip-path="url(#a)" fill="none" stroke="#000" stroke-linecap="round"/>
<polyline points="5030.5 5038.5 5027.4 5029 5030.5 5038.5 5033.6 5048.1 5023.6 5048.1 5015.5 5053.9 5007.4 5059.8 4997.4 5059.8 4987.4 5059.8 4977.4 5059.8 4985.5 5065.7 4977.4 5071.6 4985.5 5077.4 4988.6 5087 4996.7 5081.1 4988.6 5075.2 4998.6 5075.2 4990.5 5069.3 4987.4 5059.8 4977.4 5059.8 4974.3 5050.3 4977.4 5040.8 4980.5 5031.3 4988.6 5025.4 4998.6 5025.4 4988.6 5025.4 4985.5 5034.9 4982.4 5025.4 4979.3 5015.9 4987.4 5021.8 4977.4 5021.8 4980.5 5031.3 4977.4 5021.8 4974.3 5012.3 4984.3 5012.3 4992.4 5006.4 5000.5 5000.5 5010.5 5000.5 5020.5 5000.5 5030.5 5000.5 5022.4 4994.6 5030.5 4988.7 5022.4 4982.9" clip-path="url(#a)" fill="none" stroke="#000" stroke-linecap="round"/>
<polyline points="5022.4 4982.9 5019.3 4973.4 5011.2 4979.2 5019.3 4985.1 5009.3 4985.1 5017.4 4991 5020.5 5000.5 5030.5 5000.5 5033.6 5010 5030.5 5019.5 5027.4 5029 5019.3 5034.9 5009.3 5034.9 5019.3 5034.9 5022.4 5025.4 5025.5 5034.9 5028.6 5044.4 5020.5 5038.5 5030.5 5038.5 5027.4 5029 5030.5 5038.5 5033.6 5048.1 5023.6 5048.1 5015.5 5053.9 5007.4 5059.8 4997.4 5059.8 4987.4 5059.8 4977.4 5059.8 4985.5 5065.7 4977.4 5071.6 4985.5 5077.4 4988.6 5087 4996.7 5081.1 4988.6 5075.2 4998.6 5075.2 4990.5 5069.3 4987.4 5059.8 4977.4 5059.8 4974.3 5050.3 4977.4 5040.8 4980.5 5031.3 4988.6 5025.4 4998.6 5025.4" clip-path="url(#a)" fill="none" stroke="#000" stroke-linecap="round"/>
<polyline points="4998.6 5025.4 4988.6 5025.4 4985.5 5034.9 4982.4 5025.4 4979.3 5015.9 4987.4 5021.8 4977.4 5021.8 4980.5 5031.3 4977.4 5021.8 4974.3 5012.3 4984.3 5012.3 4992.4 5006.4 5000.5 5000.5 5010.5 5000.5 5020.5 5000.5 5030.5 5000.5 5022.4 4994.6 5030.5 4988.7 5022.4 4982.9 5019.3 4973.4 5011.2 4979.2 5019.3 4985.1 5009.3 4985.1 5017.4 4991 5020.5 5000.5 5030.5 5000.5 5033.6 5010 5030.5 5019.5 5027.4 5029 5019.3 5034.9 5009.3 5034.9 5019.3 5034.9 5022.4 5025.4 5025.5 5034.9 5028.6 5044.4 5020.5 5038.5 5030.5 5038.5 5027.4 5029 5030.5 5038.5 5033.6 5048.1 5023.6 5048.1 5015.5 5053.9 5007.4 5059.8" clip-path="url(#a)" fill="none" stroke="#000" stroke-linecap="round"/>
<polyline points="5007.4 5059.8 4997.4 5059.8 4987.4 5059.8 4977.4 5059.8 4985.5 5065.7 4977.4 5071.6 4985.5 5077.4 4988.6 5087 4996.7 5081.1 4988.6 5075.2 4998.6 5075.2 4990.5 5069.3 4987.4 5059.8 4977.4 5059.8 4974.3 5050.3 4977.4 5040.8 4980.5 5031.3 4988.6 5025.4 4998.6 5025.4 4988.6 5025.4 4985.5 5034.9 4982.4 5025.4 4979.3 5015.9 4987.4 5021.8 4977.4 5021.8 4980.5 5031.3 4977.4 5021.8 4974.3 5012.3 4984.3 5012.3 4992.4 5006.4 5000.5 5000.5 5010.5 5000.5 5020.5 5000.5 5030.5 5000.5 5022.4 4994.6 5030.5 4988.7 5022.4 4982.9 5019.3 4973.4 5011.2 4979.2 5019.3 4985.1 5009.3 4985.1 5017.4 4991 5020.5 5000.5" clip-path="url(#a)" fill="none" stroke="#000" stroke-linecap="round"/>
<polyline points="5020.5 5000.5 5030.5 5000.5 5033.6 5010 5030.5 5019.5 5027.4 5029 5019.3 5034.9 5009.3 5034.9 5019.3 5034.9 5022.4 5025.4 5025.5 5034.9 5028.6 5044.4 5020.5 5038.5 5030.5 5038.5 5027.4 5029 5030.5 5038.5 5033.6 5048.1 5023.6 5048.1 5015.5 5053.9 5007.4 5059.8 4997.4 5059.8 4987.4 5059.8 4977.4 5059.8 4985.5 5065.7 4977.4 5071.6 4985.5 5077.4 4988.6 5087 4996.7 5081.1 4988.6 5075.2 4998.6 5075.2 4990.5 5069.3 4987.4 5059.8 4977.4 5059.8 4974.3 5050.3 4977.4 5040.8 4980.5 5031.3 4988.6 5025.4 4998.6 5025.4 4988.6 5025.4 4985.5 5034.9 4982.4 5025.4 4979.3 5015.9 4987.4 5021.8 4977.4 5021.8" clip-path="url(#a)" fill="none" stroke="#000" stroke-linecap="round"/>
<polyline points="4977.4 5021.8 4980.5 5031.3 4977.4 5021.8 4974.3 5012.3 4984.3 5012.3 4992.4 5006.4 5000.5 5000.5 5010.5 5000.5 5020.5 5000.5 5030.5 5000.5 5022.4 4994.6 5030.5 4988.7 5022.4 4982.9 5019.3 4973.4 5011.2 4979.2 5019.3 4985.1 5009.3 4985.1 5017.4 4991 5020.5 5000.5 5030.5 5000.5 5033.6 5010 5030.5 5019.5 5027.4 5029 5019.3 5034.9 5009.3 5034.9 5019.3 5034.9 5022.4 5025.4 5025.5 5034.9 5028.6 5044.4 5020.5 5038.5 5030.5 5038.5 5027.4 5029 5030.5 5038.5 5033.6 5048.1 5023.6 5048.1 5015.5 5053.9 5007.4 5059.8 4997.4 5059.8 4987.4 5059.8 4977.4 5059.8 4985.5 5065.7 4977.4 5071.6 4985.5 5077.4" clip-path="url(#a)" fill="none" stroke="#000" stroke-linecap="round"/>
<polyline points="4985.5 5077.4 4988.6 5087 4996.7 5081.1 4988.6 5075.2 4998.6 5075.2 4990.5 5069.3 4987.4 5059.8 4977.4 5059.8 4974.3 5050.3 4977.4 5040.8 4980.5 5031.3 4988.6 5025.4 4998.6 5025.4 4988.6 5025.4 4985.5 5034.9 4982.4 5025.4 4979.3 5015.9 4987.4 5021.8 4977.4 5021.8 4980.5 5031.3 4977.4 5021.8 4974.3 5012.3 4984.3 5012.3 4992.4 5006.4 5000.5 5000.5 5010.5 5000.5 5020.5 5000.5 5030.5 5000.5 5022.4 4994.6 5030.5 4988.7 5022.4 4982.9 5019.3 4973.4 5011.2 4979.2 5019.3 4985.1 5009.3 4985.1 5017.4 4991 5020.5 5000.5 5030.5 5000.5 5033.6 5010 5030.5 5019.5 5027.4 5029 5019.3 5034.9 5009.3 5034.9" clip-path="url(#a)" fill="none" stroke="#000" stroke-linecap="round"/>
<polyline points="5009.3 5034.9 5019.3 5034.9 5022.4 5025.4 5025.5 5034.9 5028.6 5044.4 5020.5 5038.5 5030.5 5038.5 5027.4 5029 5030.5 5038.5 5033.6 5048.1 5023.6 5048.1 5015.5 5053.9 5007.4 5059.8 4997.4 5059.8 4987.4 5059.8 4977.4 5059.8 4985.5 5065.7 4977.4 5071.6 4985.5 5077.4 4988.6 5087 4996.7 5081.1 4988.6 5075.2 4998.6 5075.2 4990.5 5069.3 4987.4 5059.8 4977.4 5059.8 4974.3 5050.3 4977.4 5040.8 4980.5 5031.3 4988.6 5025.4 4998.6 5025.4 4988.6 5025.4 4985.5 5034.9 4982.4 5025.4 4979.3 5015.9 4987.4 5021.8 4977.4 5021.8 4980.5 5031.3 4977.4 5021.8 4974.3 5012.3 4984.3 5012.3 4992.4 5006.4 5000.5 5000.5" clip-path="url(#a)" fill="none" stroke="#000" stroke-linecap="round"/>
<polyline points="5000.5 5000.5 5010.5 5000.5 5020.5 5000.5 5030.5 5000.5 5022.4 4994.6 5030.5 4988.7 5022.4 4982.9 5019.3 4973.4 5011.2 4979.2 5019.3 4985.1 5009.3 4985.1 5017.4 4991 5020.5 5000.5 5030.5 5000.5 5033.6 5010 5030.5 5019.5 5027.4 5029 5019.3 5034.9 5009.3 5034.9 5019.3 5034.9 5022.4 5025.4 5025.5 5034.9 5028.6 5044.4 5020.5 5038.5 5030.5 5038.5 5027.4 5029 5030.5 5038.5 5033.6 5048.1 5023.6 5048.1 5015.5 5053.9 5007.4 5059.8 4997.4 5059.8 4987.4 5059.8 4977.4 5059.8 4985.5 5065.7 4977.4 5071.6 4985.5 5077.4 4988.6 5087 4996.7 5081.1 4988.6 5075.2 4998.6 5075.2 4990.5 5069.3 4987.4 5059.8" clip-path="url(#a)" fill="none" stroke="#000" stroke-linecap="round"/>
<polyline points="4987.4 5059.8 4977.4 5059.8 4974.3 5050.3 4977.4 5040.8 4980.5 5031.3 4988.6 5025.4 4998.6 5025.4 4988.6 5025.4 4985.5 5034.9 4982.4 5025.4 4979.3 5015.9 4987.4 5021.8 4977.4 5021.8 4980.5 5031.3 4977.4 5021.8 4974.3 5012.3 4984.3 5012.3 4992.4 5006.4 5000.5 5000.5 5010.5 5000.5 5020.5 5000.5 5030.5 5000.5 5022.4 4994.6 5030.5 4988.7 5022.4 4982.9 5019.3 4973.4 5011.2 4979.2 5019.3 4985.1 5009.3 4985.1 5017.4 4991 5020.5 5000.5 5030.5 5000.5 5033.6 5010 5030.5 5019.5 5027.4 5029 5019.3 5034.9 5009.3 5034.9 5019.3 5034.9 5022.4 5025.4 5025.5 5034.9 5028.6 5044.4 5020.5 5038.5 5030.5 5038.5" clip-path="url(#a)" fill="none" stroke="#000" stroke-linecap="round"/>
<polyline points="5030.5 5038.5 5027.4 5029 5030.5 5038.5 5033.6 5048.1 5023.6 5048.1 5015.5 5053.9 5007.4 5059.8 4997.4 5059.8 4987.4 5059.8 4977.4 5059.8 4985.5 5065.7 4977.4 5071.6 4985.5 5077.4 4988.6 5087 4996.7 5081.1 4988.6 5075.2 4998.6 5075.2 4990.5 5069.3 4987.4 5059.8 4977.4 5059.8 4974.3 5050.3 4977.4 5040.8 4980.5 5031.3 4988.6 5025.4 4998.6 5025.4 4988.6 5025.4 4985.5 5034.9 4982.4 5025.4 4979.3 5015.9 4987.4 5021.8 4977.4 5021.8 4980.5 5031.3 4977.4 5021.8 4974.3 5012.3 4984.3 5012.3 4992.4 5006.4 5000.5 5000.5 5010.5 5000.5 5020.5 5000.5 5030.5 5000.5 5022.4 4994.6 5030.5 4988.7 5022.4 4982.9" clip-path="url(#a)" fill="none" stroke="#000" stroke-linecap="round"/>
<polyline points="5022.4 4982.9 5019.3 4973.4 5011.2 4979.2 5019.3 4985.1 5009.3 4985.1 5017.4 4991 5020.5 5000.5 5030.5 5000.5 5033.6 5010 5030.5 5019.5 5027.4 5029 5019.3 5034.9 5009.3 5034.9 5019.3 5034.9 5022.4 5025.4 5025.5 5034.9 5028.6 5044.4 5020.5 5038.5 5030.5 5038.5 5027.4 5029 5030.5 5038.5 5033.6 5048.1 5023.6 5048.1 5015.5 5053.9 5007.4 5059.8 4997.4 5059.8 4987.4 5059.8 4977.4 5059.8 4985.5 5065.7 4977.4 5071.6 4985.5 5077.4 4988.6 5087 4996.7 5081.1 4988.6 5075.2 4998.6 5075.2 4990.5 5069.3 4987.4 5059.8 4977.4 5059.8 4974.3 5050.3 4977.4 5040.8 4980.5 5031.3 4988.6 5025.4 4998.6 5025.4" clip-path="url(#a)" fill="none" stroke="#000" stroke-linecap="round"/>
<polyline points="4998.6 5025.4 4988.6 5025.4 4985.5 5034.9 4982.4 5025.4 4979.3 5015.9 4987.4 5021.8 4977.4 5021.8 4980.5 5031.3 4977.4 5021.8 4974.3 5012.3 4984.3 5012.3 4992.4 5006.4 5000.5 5000.5 5010.5 5000.5 5020.5 5000.5 5030.5 5000.5 5022.4 4994.6 5030.5 4988.7 5022.4 4982.9 5019.3 4973.4 5011.2 4979.2 5019.3 4985.1 5009.3 4985.1 5017.4 4991 5020.5 5000.5 5030.5 5000.5 5033.6 5010 5030.5 5019.5 5027.4 5029 5019.3 5034.9 5009.3 5034.9 5019.3 5034.9 5022.4 5025.4 5025.5 5034.9 5028.6 5044.4 5020.5 5038.5 5030.5 5038.5 5027.4 5029 5030.5 5038.5 5033.6 5048.1 5023.6 5048.1 5015.5 5053.9 5007.4 5059.8" clip-path="url(#a)" fill="none" stroke="#000" stroke-linecap="round"/>
<polyline points="5007.4 5059.8 4997.4 5059.8 4987.4 5059.8 4977.4 5059.8 4985.5 5065.7 4977.4 5071.6 4985.5 5077.4 4988.6 5087 4996.7 5081.1 4988.6 5075.2 4998.6 5075.2 4990.5 5069.3 4987.4 5059.8 4977.4 5059.8 4974.3 5050.3 4977.4 5040.8 4980.5 5031.3 4988.6 5025.4 4998.6 5025.4 4988.6 5025.4 4985.5 5034.9 4982.4 5025.4 4979.3 5015.9 4987.4 5021.8 4977.4 5021.8 4980.5 5031.3 4977.4 5021.8 4974.3 5012.3 4984.3 5012.3 4992.4 5006.4 5000.5 5000.5 5010.5 5000.5 5020.5 5000.5 5030.5 5000.5 5022.4 4994.6 5030.5 4988.7 5022.4 4982.9 5019.3 4973.4 5011.2 4979.2 5019.3 4985.1 5009.3 4985.1 5017.4 4991 5020.5 5000.5" clip-path="url(#a)" fill="none" stroke="#000" stroke-linecap="round"/>
<polyline points="5020.5 5000.5 5030.5 5000.5 5033.6 5010 5030.5 5019.5 5027.4 5029 5019.3 5034.9 5009.3 5034.9 5019.3 5034.9 5022.4 5025.4 5025.5 5034.9 5028.6 5044.4 5020.5 5038.5 5030.5 5038.5 5027.4 5029 5030.5 5038.5 5033.6 5048.1 5023.6 5048.1 5015.5 5053.9 5007.4 5059.8 4997.4 5059.8 4987.4 5059.8 4977.4 5059.8 4985.5 5065.7 4977.4 5071.6 4985.5 5077.4 4988.6 5087 4996.7 5081.1 4988.6 5075.2 4998.6 5075.2 4990.5 5069.3 4987.4 5059.8 4977.4 5059.8 4974.3 5050.3 4977.4 5040.8 4980.5 5031.3 4988.6 5025.4 4998.6 5025.4 4988.6 5025.4 4985.5 5034.9 4982.4 5025.4 4979.3 5015.9 4987.4 5021.8 4977.4 5021.8" clip-path="url(#a)" fill="none" stroke="#000" stroke-linecap="round"/>
<polyline points="4977.4 5021.8 4980.5 5031.3 4977.4 5021.8 4974.3 5012.3 4984.3 5012.3 4992.4 5006.4 5000.5 5000.5 5010.5 5000.5 5020.5 5000.5 5030.5 5000.5 5022.4 4994.6 5030.5 4988.7 5022.4 4982.9 5019.3 4973.4 5011.2 4979.2 5019.3 4985.1 5009.3 4985.1 5017.4 4991 5020.5 5000.5 5030.5 5000.5 5033.6 5010 5030.5 5019.5 5027.4 5029 5019.3 5034.9 5009.3 5034.9 5019.3 5034.9 5022.4 5025.4 5025.5 5034.9 5028.6 5044.4 5020.5 5038.5 5030.5 5038.5 5027.4 5029 5030.5 5038.5 5033.6 5048.1 5023.6 5048.1 5015.5 5053.9 5007.4 5059.8 4997.4 5059.8 4987.4 5059.8 4977.4 5059.8 4985.5 5065.7 4977.4 5071.6 4985.5 5077.4" clip-path="url(#a)" fill="none" stroke="#000" stroke-linecap="round"/>
<polyline points="4985.5 5077.4 4988.6 5087 4996.7 5081.1 4988.6 5075.2 4998.6 5075.2 4990.5 5069.3 4987.4 5059.8 4977.4 5059.8 4974.3 5050.3 4977.4 5040.8 4980.5 5031.3 4988.6 5025.4 4998.6 5025.4 4988.6 5025.4 4985.5 5034.9 4982.4 5025.4 4979.3 5015.9 4987.4 5021.8 4977.4 5021.8 4980.5 5031.3 4977.4 5021.8 4974.3 5012.3 4984.3 5012.3 4992.4 5006.4 5000.5 5000.5 5010.5 5000.5 5020.5 5000.5 5030.5 5000.5 5022.4 4994.6 5030.5 4988.7 5022.4 4982.9 5019.3 4973.4 5011.2 4979.2 5019.3 4985.1 5009.3 4985.1 5017.4 4991 5020.5 5000.5 5030.5 5000.5 5033.6 5010 5030.5 5019.5 5027.4 5029 5019.3 5034.9 5009.3 5034.9" clip-path="url(#a)" fill="none" stroke="#000" stroke-linecap="round"/>
<polyline points="5009.3 5034.9 5019.3 5034.9 5022.4 5025.4 5025.5 5034.9 5028.6 5044.4 5020.5 5038.5 5030.5 5038.5 5027.4 5029 5030.5 5038.5 5033.6 5048.1 5023.6 5048.1 5015.5 5053.9 5007.4 5059.8 4997.4 5059.8 4987.4 5059.8 4977.4 5059.8 4985.5 5065.7 4977.4 5071.6 4985.5 5077.4 4988.6 5087 4996.7 5081.1 4988.6 5075.2 4998.6 5075.2 4990.5 5069.3 4987.4 5059.8 4977.4 5059.8 4974.3 5050.3 4977.4 5040.8 4980.5 5031.3 4988.6 5025.4 4998.6 5025.4 4988.6 5025.4 4985.5 5034.9 4982.4 5025.4 4979.3 5015.9 4987.4 5021.8 4977.4 5021.8 4980.5 5031.3 4977.4 5021.8 4974.3 5012.3 4984.3 5012.3 4992.4 5006.4 5000.5 5000.5" clip-path="url(#a)" fill="none" stroke="#000" stroke-linecap="round"/>
<polyline points="5000.5 5000.5 5010.5 5000.5 5020.5 5000.5 5030.5 5000.5 5022.4 4994.6 5030.5 4988.7 5022.4 4982.9 5019.3 4973.4 5011.2 4979.2 5019.3 4985.1 5009.3 4985.1 5017.4 4991 5020.5 5000.5 5030.5 5000.5 5033.6 5010 5030.5 5019.5 5027.4 5029 5019.3 5034.9 5009.3 5034.9 5019.3 5034.9 5022.4 5025.4 5025.5 5034.9 5028.6 5044.4 5020.5 5038.5 5030.5 5038.5 5027.4 5029 5030.5 5038.5 5033.6 5048.1 5023.6 5048.1 5015.5 5053.9 5007.4 5059.8 4997.4 5059.8 4987.4 5059.8 4977.4 5059.8 4985.5 5065.7 4977.4 5071.6 4985.5 5077.4 4988.6 5087 4996.7 5081.1 4988.6 5075.2 4998.6 5075.2 4990.5 5069.3 4987.4 5059.8" clip-path="url(#a)" fill="none" stroke="#000" stroke-linecap="round"/>
<polyline points="4987.4 5059.8 4977.4 5059.8 4974.3 5050.3 4977.4 5040.8 4980.5 5031.3 4988.6 5025.4 4998.6 5025.4 4988.6 5025.4 4985.5 5034.9 4982.4 5025.4 4979.3 5015.9 4987.4 5021.8 4977.4 5021.8 4980.5 5031.3 4977.4 5021.8 4974.3 5012.3 4984.3 5012.3 4992.4 5006.4 5000.5 5000.5 5010.5 5000.5 5020.5 5000.5 5030.5 5000.5 5022.4 4994.6 5030.5 4988.7 5022.4 4982.9 5019.3 4973.4 5011.2 4979.2 5019.3 4985.1 5009.3 4985.1 5017.4 4991 5020.5 5000.5 5030.5 5000.5 5033.6 5010 5030.5 5019.5 5027.4 5029 5019.3 5034.9 5009.3 5034.9 5019.3 5034.9 5022.4 5025.4 5025.5 5034.9 5028.6 5044.4 5020.5 5038.5 5030.5 5038.5" clip-path="url(#a)" fill="none" stroke="#000" stroke-linecap="round"/>
<polyline points="5030.5 5038.5 5027.4 5029 5030.5 5038.5 5033.6 5048.1 5023.6 5048.1 5015.5 5053.9 5007.4 5059.8 4997.4 5059.8 4987.4 5059.8 4977.4 5059.8 4985.5 5065.7 4977.4 5071.6 4985.5 5077.4 4988.6 5087 4996.7 5081.1 4988.6 5075.2 4998.6 5075.2 4990.5 5069.3 4987.4 5059.8 4977.4 5059.8 4974.3 5050.3 4977.4 5040.8 4980.5 5031.3 4988.6 5025.4 4998.6 5025.4 4988.6 5025.4 4985.5 5034.9 4982.4 5025.4 4979.3 5015.9 4987.4 5021.8 4977.4 5021.8 4980.5 5031.3 4977.4 5021.8 4974.3 5012.3 4984.3 5012.3 4992.4 5006.4 5000.5 5000.5 5010.5 5000.5 5020.5 5000.5 5030.5 5000.5 5022.4 4994.6 5030.5 4988.7 5022.4 4982.9" clip-path="url(#a)" fill="none" stroke="#000" stroke-linecap="round"/>
<polyline points="5022.4 4982.9 5019.3 4973.4 5011.2 4979.2 5019.3 4985.1 5009.3 4985.1 5017.4 4991 5020.5 5000.5 5030.5 5000.5 5033.6 5010 5030.5 5019.5 5027.4 5029 5019.3 5034.9 5009.3 5034.9 5019.3 5034.9 5022.4 5025.4 5025.5 5034.9 5028.6 5044.4 5020.5 5038.5 5030.5 5038.5 5027.4 5029 5030.5 5038.5 5033.6 5048.1 5023.6 5048.1 5015.5 5053.9 5007.4 5059.8 4997.4 5059.8 4987.4 5059.8 4977.4 5059.8 4985.5 5065.7 4977.4 5071.6 4985.5 5077.4 4988.6 5087 4996.7 5081.1 4988.6 5075.2 4998.6 5075.2 4990.5 5069.3 4987.4 5059.8 4977.4 5059.8 4974.3 5050.3 4977.4 5040.8 4980.5 5031.3 4988.6 5025.4 4998.6 5025.4" clip-path="url(#a)" fill="none" stroke="#000" stroke-linecap="round"/>
<polyline points="4998.6 5025.4 4988.6 5025.4 4985.5 5034.9 4982.4 5025.4 4979.3 5015.9 4987.4 5021.8 4977.4 5021.8 4980.5 5031.3 4977.4 5021.8 4974.3 5012.3 4984.3 5012.3 4992.4 5006.4 5000.5 5000.5 5010.5 5000.5 5020.5 5000.5 5030.5 5000.5 5022.4 4994.6 5030.5 4988.7 5022.4 4982.9 5019.3 4973.4 5011.2 4979.2 5019.3 4985.1 5009.3 4985.1 5017.4 4991 5020.5 5000.5 5030.5 5000.5 5033.6 5010 5030.5 5019.5 5027.4 5029 5019.3 5034.9 5009.3 5034.9 5019.3 5034.9 5022.4 5025.4 5025.5 5034.9 5028.6 5044.4 5020.5 5038.5 5030.5 5038.5 5027.4 5029 5030.5 5038.5 5033.6 5048.1 5023.6 5048.1 5015.5 5053.9 5007.4 5059.8" clip-path="url(#a)" fill="none" stroke="#000" stroke-linecap="round"/>
<polyline points="5007.4 5059.8 4997.4 5059.8 4987.4 5059.8 4977.4 5059.8 4985.5 5065.7 4977.4 5071.6 4985.5 5077.4 4988.6 5087 4996.7 5081.1 4988.6 5075.2 4998.6 5075.2 4990.5 5069.3 4987.4 5059.8 4977.4 5059.8 4974.3 5050.3 4977.4 5040.8 4980.5 5031.3 4988.6 5025.4 4998.6 5025.4 4988.6 5025.4 4985.5 5034.9 4982.4 5025.4 4979.3 5015.9 4987.4 5021.8 4977.4 5021.8 4980.5 5031.3 4977.4 5021.8 4974.3 5012.3 4984.3 5012.3 4992.4 5006.4 5000.5 5000.5 5010.5 5000.5 5020.5 5000.5 5030.5 5000.5 5022.4 4994.6 5030.5 4988.7 5022.4 4982.9 5019.3 4973.4 5011.2 4979.2 5019.3 4985.1 5009.3 4985.1 5017.4 4991 5020.5 5000.5" clip-path="url(#a)" fill="none" stroke="#000" stroke-linecap="round"/>
<polyline points="5020.5 5000.5 5030.5 5000.5 5033.6 5010 5030.5 5019.5 5027.4 5029 5019.3 5034.9 5009.3 5034.9 5019.3 5034.9 5022.4 5025.4 5025.5 5034.9 5028.6 5044.4 5020.5 5038.5 5030.5 5038.5 5027.4 5029 5030.5 5038.5 5033.6 5048.1 5023.6 5048.1 5015.5 5053.9 5007.4 5059.8 4997.4 5059.8 4987.4 5059.8 4977.4 5059.8 4985.5 5065.7 4977.4 5071.6 4985.5 5077.4 4988.6 5087 4996.7 5081.1 4988.6 5075.2 4998.6 5075.2 4990.5 5069.3 4987.4 5059.8 4977.4 5059.8 4974.3 5050.3 4977.4 5040.8 4980.5 5031.3 4988.6 5025.4 4998.6 5025.4 4988.6 5025.4 4985.5 5034.9 4982.4 5025.4 4979.3 5015.9 4987.4 5021.8 4977.4 5021.8" clip-path="url(#a)" fill="none" stroke="#000" stroke-linecap="round"/>
<polyline points="4977.4 5021.8 4980.5 5031.3 4977.4 5021.8 4974.3 5012.3 4984.3 5012.3 4992.4 5006.4 5000.5 5000.5 5010.5 5000.5 5020.5 5000.5 5030.5 5000.5 5022.4 4994.6 5030.5 4988.7 5022.4 4982.9 5019.3 4973.4 5011.2 4979.2 5019.3 4985.1 5009.3 4985.1 5017.4 4991 5020.5 5000.5 5030.5 5000.5 5033.6 5010 5030.5 5019.5 5027.4 5029 5019.3 5034.9 5009.3 5034.9 5019.3 5034.9 5022.4 5025.4 5025.5 5034.9 5028.6 5044.4 5020.5 5038.5 5030.5 5038.5 5027.4 5029 5030.5 5038.5 5033.6 5048.1 5023.6 5048.1 5015.5 5053.9 5007.4 5059.8 4997.4 5059.8 4987.4 5059.8 4977.4 5059.8 4985.5 5065.7 4977.4 5071.6 4985.5 5077.4" clip-path="url(#a)" fill="none" stroke="#000" stroke-linecap="round"/>
<polyline points="4985.5 5077.4 4988.6 5087 4996.7 5081.1 4988.6 5075.2 4998.6 5075.2 4990.5 5069.3 4987.4 5059.8 4977.4 5059.8 4974.3 5050.3 4977.4 5040.8 4980.5 5031.3 4988.6 5025.4 4998.6 5025.4 4988.6 5025.4 4985.5 5034.9 4982.4 5025.4 4979.3 5015.9 4987.4 5021.8 4977.4 5021.8 4980.5 5031.3 4977.4 5021.8 4974.3 5012.3 4984.3 5012.3 4992.4 5006.4 5000.5 5000.5 5010.5 5000.5 5020.5 5000.5 5030.5 5000.5 5022.4 4994.6 5030.5 4988.7 5022.4 4982.9 5019.3 4973.4 5011.2 4979.2 5019.3 4985.1 5009.3 4985.1 5017.4 4991 5020.5 5000.5 5030.5 5000.5 5033.6 5010 5030.5 5019.5 5027.4 5029 5019.3 5034.9 5009.3 5034.9" clip-path="url(#a)" fill="none" stroke="#000" stroke-linecap="round"/>
<polyline points="5009.3 5034.9 5019.3 5034.9 5022.4 5025.4 5025.5 5034.9 5028.6 5044.4 5020.5 5038.5 5030.5 5038.5 5027.4 5029 5030.5 5038.5 5033.6 5048.1 5023.6 5048.1 5015.5 5053.9 5007.4 5059.8 4997.4 5059.8 4987.4 5059.8 4977.4 5059.8 4985.5 5065.7 4977.4 5071.6 4985.5 5077.4 4988.6 5087 4996.7 5081.1 4988.6 5075.2 4998.6 5075.2 4990.5 5069.3 4987.4 5059.8 4977.4 5059.8 4974.3 5050.3 4977.4 5040.8 4980.5 5031.3 4988.6 5025.4 4998.6 5025.4 4988.6 5025.4 4985.5 5034.9 4982.4 5025.4 4979.3 5015.9 4987.4 5021.8 4977.4 5021.8 4980.5 5031.3 4977.4 5021.8 4974.3 5012.3 4984.3 5012.3 4992.4 5006.4 5000.5 5000.5" clip-path="url(#a)" fill="none" stroke="#000" stroke-linecap="round"/>
<polyline points="5000.5 5000.5 5010.5 5000.5 5020.5 5000.5 5030.5 5000.5 5022.4 4994.6 5030.5 4988.7 5022.4 4982.9 5019.3 4973.4 5011.2 4979.2 5019.3 4985.1 5009.3 4985.1 5017.4 4991 5020.5 5000.5 5030.5 5000.5 5033.6 5010 5030.5 5019.5 5027.4 5029 5019.3 5034.9 5009.3 5034.9 5019.3 5034.9 5022.4 5025.4 5025.5 5034.9 5028.6 5044.4 5020.5 5038.5 5030.5 5038.5 5027.4 5029 5030.5 5038.5 5033.6 5048.1 5023.6 5048.1 5015.5 5053.9 5007.4 5059.8 4997.4 5059.8 4987.4 5059.8 4977.4 5059.8 4985.5 5065.7 4977.4 5071.6 4985.5 5077.4 4988.6 5087 4996.7 5081.1 4988.6 5075.2 4998.6 5075.2 4990.5 5069.3 4987.4 5059.8" clip-path="url(#a)" fill="none" stroke="#000" stroke-linecap="round"/>
<polyline points="4987.4 5059.8 4977.4 5059.8 4974.3 5050.3 4977.4 5040.8 4980.5 5031.3 4988.6 5025.4 4998.6 5025.4 4988.6 5025.4 4985.5 5034.9 4982.4 5025.4 4979.3 5015.9 4987.4 5021.8 4977.4 5021.8 4980.5 5031.3 4977.4 5021.8 4974.3 5012.3 4984.3 5012.3 4992.4 5006.4 5000.5 5000.5 5010.5 5000.5 5020.5 5000.5 5030.5 5000.5 5022.4 4994.6 5030.5 4988.7 5022.4 4982.9 5019.3 4973.4 5011.2 4979.2 5019.3 4985.1 5009.3 4985.1 5017.4 4991 5020.5 5000.5 5030.5 5000.5 5033.6 5010 5030.5 5019.5 5027.4 5029 5019.3 5034.9 5009.3 5034.9 5019.3 5034.9 5022.4 5025.4 5025.5 5034.9 5028.6 5044.4 5020.5 5038.5 5030.5 5038.5" clip-path="url(#a)" fill="none" stroke="#000" stroke-linecap="round"/>
<polyline points="5030.5 5038.5 5027.4 5029 5030.5 5038.5 5033.6 5048.1 5023.6 5048.1 5015.5 5053.9 5007.4 5059.8 4997.4 5059.8 4987.4 5059.8 4977.4 5059.8 4985.5 5065.7 4977.4 5071.6 4985.5 5077.4 4988.6 5087 4996.7 5081.1 4988.6 5075.2 4998.6 5075.2 4990.5 5069.3 4987.4 5059.8 4977.4 5059.8 4974.3 5050.3 4977.4 5040.8 4980.5 5031.3 4988.6 5025.4 4998.6 5025.4 4988.6 5025.4 4985.5 5034.9 4982.4 5025.4 4979.3 5015.9 4987.4 5021.8 4977.4 5021.8 4980.5 5031.3 4977.4 5021.8 4974.3 5012.3 4984.3 5012.3 4992.4 5006.4 5000.5 5000.5 5010.5 5000.5 5020.5 5000.5 5030.5 5000.5 5022.4 4994.6 5030.5 4988.7 5022.4 4982.9" clip-path="url(#a)" fill="none" stroke="#000" stroke-linecap="round"/>
<polyline points="5022.4 4982.9 5019.3 4973.4 5011.2 4979.2 5019.3 4985.1 5009.3 4985.1 5017.4 4991 5020.5 5000.5 5030.5 5000.5 5033.6 5010 5030.5 5019.5 5027.4 5029 5019.3 5034.9 5009.3 5034.9 5019.3 5034.9 5022.4 5025.4 5025.5 5034.9 5028.6 5044.4 5020.5 5038.5 5030.5 5038.5 5027.4 5029 5030.5 5038.5 5033.6 5048.1 5023.6 5048.1 5015.5 5053.9 5007.4 5059.8 4997.4 5059.8 4987.4 5059.8 4977.4 5059.8 4985.5 5065.7 4977.4 5071.6 4985.5 5077.4 4988.6 5087 4996.7 5081.1 4988.6 5075.2 4998.6 5075.2 4990.5 5069.3 4987.4 5059.8 4977.4 5059.8 4974.3 5050.3 4977.4 5040.8 4980.5 5031.3 4988.6 5025.4 4998.6 5025.4" clip-path="url(#a)" fill="none" stroke="#000" stroke-linecap="round"/>
<polyline points="4998.6 5025.4 4988.6 5025.4 4985.5 5034.9 4982.4 5025.4 4979.3 5015.9 4987.4 5021.8 4977.4 5021.8 4980.5 5031.3 4977.4 5021.8 4974.3 5012.3 4984.3 5012.3 4992.4 5006.4 5000.5 5000.5 5010.5 5000.5 5020.5 5000.5 5030.5 5000.5 5022.4 4994.6 5030.5 4988.7 5022.4 4982.9 5019.3 4973.4 5011.2 4979.2 5019.3 4985.1 5009.3 4985.1 5017.4 4991 5020.5 5000.5 5030.5 5000.5 5033.6 5010 5030.5 5019.5 5027.4 5029 5019.3 5034.9 5009.3 5034.9 5019.3 5034.9 5022.4 5025.4 5025.5 5034.9 5028.6 5044.4 5020.5 5038.5 5030.5 5038.5 5027.4 5029 5030.5 5038.5 5033.6 5048.1 5023.6 5048.1 5015.5 5053.9 5007.4 5059.8" clip-path="url(#a)" fill="none" stroke="#000" stroke-linecap="round"/>
<polyline points="5007.4 5059.8 4997.4 5059.8 4987.4 5059.8 4977.4 5059.8 4985.5 5065.7 4977.4 5071.6 4985.5 5077.4 4988.6 5087 4996.7 5081.1 4988.6 5075.2 4998.6 5075.2 4990.5 5069.3 4987.4 5059.8 4977.4 5059.8 4974.3 5050.3 4977.4 5040.8 4980.5 5031.3 4988.6 5025.4 4998.6 5025.4 4988.6 5025.4 4985.5 5034.9 4982.4 5025.4 4979.3 5015.9 4987.4 5021.8 4977.4 5021.8 4980.5 5031.3 4977.4 5021.8 4974.3 5012.3 4984.3 5012.3 4992.4 5006.4 5000.5 5000.5 5010.5 5000.5 5020.5 5000.5 5030.5 5000.5 5022.4 4994.6 5030.5 4988.7 5022.4 4982.9 5019.3 4973.4 5011.2 4979.2 5019.3 4985.1 5009.3 4985.1 5017.4 4991 5020.5 5000.5" clip-path="url(#a)" fill="none" stroke="#000" stroke-linecap="round"/>
<polyline points="5020.5 5000.5 5030.5 5000.5 5033.6 5010 5030.5 5019.5 5027.4 5029 5019.3 5034.9 5009.3 5034.9 5019.3 5034.9 5022.4 5025.4 5025.5 5034.9 5028.6 5044.4 5020.5 5038.5 5030.5 5038.5 5027.4 5029 5030.5 5038.5 5033.6 5048.1 5023.6 5048.1 5015.5 5053.9 5007.4 5059.8 4997.4 5059.8 4987.4 5059.8 4977.4 5059.8 4985.5 5065.7 4977.4 5071.6 4985.5 5077.4 4988.6 5087 4996.7 5081.1 4988.6 5075.2 4998.6 5075.2 4990.5 5069.3 4987.4 5059.8 4977.4 5059.8 4974.3 5050.3 4977.4 5040.8 4980.5 5031.3 4988.6 5025.4 4998.6 5025.4 4988.6 5025.4 4985.5 5034.9 4982.4 5025.4 4979.3 5015.9 4987.4 5021.8 4977.4 5021.8" clip-path="url(#a)" fill="none" stroke="#000" stroke-linecap="round"/>
<polyline points="4977.4 5021.8 4980.5 5031.3 4977.4 5021.8 4974.3 5012.3 4984.3 5012.3 4992.4 5006.4 5000.5 5000.5 5010.5 5000.5 5020.5 5000.5 5030.5 5000.5 5022.4 4994.6 5030.5 4988.7 5022.4 4982.9 5019.3 4973.4 5011.2 4979.2 5019.3 4985.1 5009.3 4985.1 5017.4 4991 5020.5 5000.5 5030.5 5000.5 5033.6 5010 5030.5 5019.5 5027.4 5029 5019.3 5034.9 5009.3 5034.9 5019.3 5034.9 5022.4 5025.4 5025.5 5034.9 5028.6 5044.4 5020.5 5038.5 5030.5 5038.5 5027.4 5029 5030.5 5038.5 5033.6 5048.1 5023.6 5048.1 5015.5 5053.9 5007.4 5059.8 4997.4 5059.8 4987.4 5059.8 4977.4 5059.8 4985.5 5065.7 4977.4 5071.6 4985.5 5077.4" clip-path="url(#a)" fill="none" stroke="#000" stroke-linecap="round"/>
<polyline points="4985.5 5077.4 4988.6 5087 4996.7 5081.1 4988.6 5075.2 4998.6 5075.2 4990.5 5069.3 4987.4 5059.8 4977.4 5059.8 4974.3 5050.3 4977.4 5040.8 4980.5 5031.3 4988.6 5025.4 4998.6 5025.4 4988.6 5025.4 4985.5 5034.9 4982.4 5025.4 4979.3 5015.9 4987.4 5021.8 4977.4 5021.8 4980.5 5031.3 4977.4 5021.8 4974.3 5012.3 4984.3 5012.3 4992.4 5006.4 5000.5 5000.5 5010.5 5000.5 5020.5 5000.5 5030.5 5000.5 5022.4 4994.6 5030.5 4988.7 5022.4 4982.9 5019.3 4973.4 5011.2 4979.2 5019.3 4985.1 5009.3 4985.1 5017.4 4991 5020.5 5000.5 5030.5 5000.5 5033.6 5010 5030.5 5019.5 5027.4 5029 5019.3 5034.9 5009.3 5034.9" clip-path="url(#a)" fill="none" stroke="#000" stroke-linecap="round"/>
<polyline points="5009.3 5034.9 5019.3 5034.9 5022.4 5025.4 5025.5 5034.9 5028.6 5044.4 5020.5 5038.5 5030.5 5038.5 5027.4 5029 5030.5 5038.5 5033.6 5048.1 5023.6 5048.1 5015.5 5053.9 5007.4 5059.8 4997.4 5059.8 4987.4 5059.8 4977.4 5059.8 4985.5 5065.7 4977.4 5071.6 4985.5 5077.4 4988.6 5087 4996.7 5081.1 4988.6 5075.2 4998.6 5075.2 4990.5 5069.3 4987.4 5059.8 4977.4 5059.8 4974.3 5050.3 4977.4 5040.8 4980.5 5031.3 4988.6 5025.4 4998.6 5025.4 4988.6 5025.4 4985.5 5034.9 4982.4 5025.4 4979.3 5015.9 4987.4 5021.8 4977.4 5021.8 4980.5 5031.3 4977.4 5021.8 4974.3 5012.3 4984.3 5012.3 4992.4 5006.4 5000.5 5000.5" clip-path="url(#a)" fill="none" stroke="#000" stroke-linecap="round"/>
<polyline points="5000.5 5000.5 5010.5 5000.5 5020.5 5000.5 5030.5 5000.5 5022.4 4994.6 5030.5 4988.7 5022.4 4982.9 5019.3 4973.4 5011.2 4979.2 5019.3 4985.1 5009.3 4985.1 5017.4 4991 5020.5 5000.5 5030.5 5000.5 5033.6 5010 5030.5 5019.5 5027.4 5029 5019.3 5034.9 5009.3 5034.9 5019.3 5034.9 5022.4 5025.4 5025.5 5034.9 5028.6 5044.4 5020.5 5038.5 5030.5 5038.5 5027.4 5029 5030.5 5038.5 5033.6 5048.1 5023.6 5048.1 5015.5 5053.9 5007.4 5059.8 4997.4 5059.8 4987.4 5059.8 4977.4 5059.8 4985.5 5065.7 4977.4 5071.6 4985.5 5077.4 4988.6 5087 4996.7 5081.1 4988.6 5075.2 4998.6 5075.2 4990.5 5069.3 4987.4 5059.8" clip-path="url(#a)" fill="none" stroke="#000" stroke-linecap="round"/>
<polyline points="4987.4 5059.8 4977.4 5059.8 4974.3 5050.3 4977.4 5040.8 4980.5 5031.3 4988.6 5025.4 4998.6 5025.4 4988.6 5025.4 4985.5 5034.9 4982.4 5025.4 4979.3 5015.9 4987.4 5021.8 4977.4 5021.8 4980.5 5031.3 4977.4 5021.8 4974.3 5012.3 4984.3 5012.3 4992.4 5006.4 5000.5 5000.5 5010.5 5000.5 5020.5 5000.5 5030.5 5000.5 5022.4 4994.6 5030.5 4988.7 5022.4 4982.9 5019.3 4973.4 5011.2 4979.2 5019.3 4985.1 5009.3 4985.1 5017.4 4991 5020.5 5000.5 5030.5 5000.5 5033.6 5010 5030.5 5019.5 5027.4 5029 5019.3 5034.9 5009.3 5034.9 5019.3 5034.9 5022.4 5025.4 5025.5 5034.9 5028.6 5044.4 5020.5 5038.5 5030.5 5038.5" clip-path="url(#a)" fill="none" stroke="#000" stroke-linecap="round"/>
<polyline points="5030.5 5038.5 5027.4 5029 5030.5 5038.5 5033.6 5048.1 5023.6 5048.1 5015.5 5053.9 5007.4 5059.8 4997.4 5059.8 4987.4 5059.8 4977.4 5059.8 4985.5 5065.7 4977.4 5071.6 4985.5 5077.4 4988.6 5087 4996.7 5081.1 4988.6 5075.2 4998.6 5075.2 4990.5 5069.3 4987.4 5059.8 4977.4 5059.8 4974.3 5050.3 4977.4 5040.8 4980.5 5031.3 4988.6 5025.4 4998.6 5025.4 4988.6 5025.4 4985.5 5034.9 4982.4 5025.4 4979.3 5015.9 4987.4 5021.8 4977.4 5021.8 4980.5 5031.3 4977.4 5021.8 4974.3 5012.3 4984.3 5012.3 4992.4 5006.4 5000.5 5000.5 5010.5 5000.5 5020.5 5000.5 5030.5 5000.5 5022.4 4994.6 5030.5 4988.7 5022.4 4982.9" clip-path="url(#a)" fill="none" stroke="#000" stroke-linecap="round"/>
<polyline points="5022.4 4982.9 5019.3 4973.4 5011.2 4979.2 5019.3 4985.1 5009.3 4985.1 5017.4 4991 5020.5 5000.5 5030.5 5000.5 5033.6 5010 5030.5 5019.5 5027.4 5029 5019.3 5034.9 5009.3 5034.9 5019.3 5034.9 5022.4 5025.4 5025.5 5034.9 5028.6 5044.4 5020.5 5038.5 5030.5 5038.5 5027.4 5029 5030.5 5038.5 5033.6 5048.1 5023.6 5048.1 5015.5 5053.9 5007.4 5059.8 4997.4 5059.8 4987.4 5059.8 4977.4 5059.8 4985.5 5065.7 4977.4 5071.6 4985.5 5077.4 4988.6 5087 4996.7 5081.1 4988.6 5075.2 4998.6 5075.2 4990.5 5069.3 4987.4 5059.8 4977.4 5059.8 4974.3 5050.3 4977.4 5040.8 4980.5 5031.3 4988.6 5025.4 4998.6 5025.4" clip-path="url(#a)" fill="none" stroke="#000" stroke-linecap="round"/>
<polyline points="4998.6 5025.4 4988.6 5025.4 4985.5 5034.9 4982.4 5025.4 4979.3 5015.9 4987.4 5021.8 4977.4 5021.8 4980.5 5031.3 4977.4 5021.8 4974.3 5012.3 4984.3 5012.3 4992.4 5006.4 5000.5 5000.5 5010.5 5000.5 5020.5 5000.5 5030.5 5000.5 5022.4 4994.6 5030.5 4988.7 5022.4 4982.9 5019.3 4973.4 5011.2 4979.2 5019.3 4985.1 5009.3 4985.1 5017.4 4991 5020.5 5000.5 5030.5 5000.5 5033.6 5010 5030.5 5019.5 5027.4 5029 5019.3 5034.9 5009.3 5034.9 5019.3 5034.9 5022.4 5025.4 5025.5 5034.9 5028.6 5044.4 5020.5 5038.5 5030.5 5038.5 5027.4 5029 5030.5 5038.5 5033.6 5048.1 5023.6 5048.1 5015.5 5053.9 5007.4 5059.8" clip-path="url(#a)" fill="none" stroke="#000" stroke-linecap="round"/>
<polyline points="5007.4 5059.8 4997.4 5059.8 4987.4 5059.8 4977.4 5059.8 4985.5 5065.7 4977.4 5071.6 4985.5 5077.4 4988.6 5087 4996.7 5081.1 4988.6 5075.2 4998.6 5075.2 4990.5 5069.3 4987.4 5059.8 4977.4 5059.8 4974.3 5050.3 4977.4 5040.8 4980.5 5031.3 4988.6 5025.4 4998.6 5025.4 4988.6 5025.4 4985.5 5034.9 4982.4 5025.4 4979.3 5015.9 4987.4 5021.8 4977.4 5021.8 4980.5 5031.3 4977.4 5021.8 4974.3 5012.3 4984.3 5012.3 4992.4 5006.4 5000.5 5000.5 5010.5 5000.5 5020.5 5000.5 5030.5 5000.5 5022.4 4994.6 5030.5 4988.7 5022.4 4982.9 5019.3 4973.4 5011.2 4979.2 5019.3 4985.1 5009.3 4985.1 5017.4 4991 5020.5 5000.5" clip-path="url(#a)" fill="none" stroke="#000" stroke-linecap="round"/>
<polyline points="5020.5 5000.5 5030.5 5000.5 5033.6 5010 5030.5 5019.5 5027.4 5029 5019.3 5034.9 5009.3 5034.9 5019.3 5034.9 5022.4 5025.4 5025.5 5034.9 5028.6 5044.4 5020.5 5038.5 5030.5 5038.5 5027.4 5029 5030.5 5038.5 5033.6 5048.1 5023.6 5048.1 5015.5 5053.9 5007.4 5059.8 4997.4 5059.8 4987.4 5059.8 4977.4 5059.8 4985.5 5065.7 4977.4 5071.6 4985.5 5077.4 4988.6 5087 4996.7 5081.1 4988.6 5075.2 4998.6 5075.2 4990.5 5069.3 4987.4 5059.8 4977.4 5059.8 4974.3 5050.3 4977.4 5040.8 4980.5 5031.3 4988.6 5025.4 4998.6 5025.4 4988.6 5025.4 4985.5 5034.9 4982.4 5025.4 4979.3 5015.9 4987.4 5021.8 4977.4 5021.8" clip-path="url(#a)" fill="none" stroke="#000" stroke-linecap="round"/>
<polyline points="4977.4 5021.8 4980.5 5031.3 4977.4 5021.8 4974.3 5012.3 4984.3 5012.3 4992.4 5006.4 5000.5 5000.5 5010.5 5000.5 5020.5 5000.5 5030.5 5000.5 5022.4 4994.6 5030.5 4988.7 5022.4 4982.9 5019.3 4973.4 5011.2 4979.2 5019.3 4985.1 5009.3 4985.1 5017.4 4991 5020.5 5000.5 5030.5 5000.5 5033.6 5010 5030.5 5019.5 5027.4 5029 5019.3 5034.9 5009.3 5034.9 5019.3 5034.9 5022.4 5025.4 5025.5 5034.9 5028.6 5044.4 5020.5 5038.5 5030.5 5038.5 5027.4 5029 5030.5 5038.5 5033.6 5048.1 5023.6 5048.1 5015.5 5053.9 5007.4 5059.8 4997.4 5059.8 4987.4 5059.8 4977.4 5059.8 4985.5 5065.7 4977.4 5071.6 4985.5 5077.4" clip-path="url(#a)" fill="none" stroke="#000" stroke-linecap="round"/>
<polyline points="4985.5 5077.4 4988.6 5087 4996.7 5081.1 4988.6 5075.2 4998.6 5075.2 4990.5 5069.3 4987.4 5059.8 4977.4 5059.8 4974.3 5050.3 4977.4 5040.8 4980.5 5031.3 4988.6 5025.4 4998.6 5025.4 4988.6 5025.4 4985.5 5034.9 4982.4 5025.4 4979.3 5015.9 4987.4 5021.8 4977.4 5021.8 4980.5 5031.3 4977.4 5021.8 4974.3 5012.3 4984.3 5012.3 4992.4 5006.4 5000.5 5000.5 5010.5 5000.5 5020.5 5000.5 5030.5 5000.5 5022.4 4994.6 5030.5 4988.7 5022.4 4982.9 5019.3 4973.4 5011.2 4979.2 5019.3 4985.1 5009.3 4985.1 5017.4 4991 5020.5 5000.5 5030.5 5000.5 5033.6 5010 5030.5 5019.5 5027.4 5029 5019.3 5034.9 5009.3 5034.9" clip-path="url(#a)" fill="none" stroke="#000" stroke-linecap="round"/>
<polyline points="5009.3 5034.9 5019.3 5034.9 5022.4 5025.4 5025.5 5034.9 5028.6 5044.4 5020.5 5038.5 5030.5 5038.5 5027.4 5029 5030.5 5038.5 5033.6 5048.1 5023.6 5048.1 5015.5 5053.9 5007.4 5059.8 4997.4 5059.8 4987.4 5059.8 4977.4 5059.8 4985.5 5065.7 4977.4 5071.6 4985.5 5077.4 4988.6 5087 4996.7 5081.1 4988.6 5075.2 4998.6 5075.2 4990.5 5069.3 4987.4 5059.8 4977.4 5059.8 4974.3 5050.3 4977.4 5040.8 4980.5 5031.3 4988.6 5025.4 4998.6 5025.4 4988.6 5025.4 4985.5 5034.9 4982.4 5025.4 4979.3 5015.9 4987.4 5021.8 4977.4 5021.8 4980.5 5031.3 4977.4 5021.8 4974.3 5012.3 4984.3 5012.3 4992.4 5006.4 5000.5 5000.5" clip-path="url(#a)" fill="none" stroke="#000" stroke-linecap="round"/>
<polyline points="5000.5 5000.5 5010.5 5000.5 5020.5 5000.5 5030.5 5000.5 5022.4 4994.6 5030.5 4988.7 5022.4 4982.9 5019.3 4973.4 5011.2 4979.2 5019.3 4985.1 5009.3 4985.1 5017.4 4991 5020.5 5000.5 5030.5 5000.5 5033.6 5010 5030.5 5019.5 5027.4 5029 5019.3 5034.9 5009.3 5034.9 5019.3 5034.9 5022.4 5025.4 5025.5 5034.9 5028.6 5044.4 5020.5 5038.5 5030.5 5038.5 5027.4 5029 5030.5 5038.5 5033.6 5048.1 5023.6 5048.1 5015.5 5053.9 5007.4 5059.8 4997.4 5059.8 4987.4 5059.8 4977.4 5059.8 4985.5 5065.7 4977.4 5071.6 4985.5 5077.4 4988.6 5087 4996.7 5081.1 4988.6 5075.2 4998.6 5075.2 4990.5 5069.3 4987.4 5059.8" clip-path="url(#a)" fill="none" stroke="#000" stroke-linecap="round"/>
<polyline points="4987.4 5059.8 4977.4 5059.8 4974.3 5050.3 4977.4 5040.8 4980.5 5031.3 4988.6 5025.4 4998.6 5025.4 4988.6 5025.4 4985.5 5034.9 4982.4 5025.4 4979.3 5015.9 4987.4 5021.8 4977.4 5021.8 4980.5 5031.3 4977.4 5021.8 4974.3 5012.3 4984.3 5012.3 4992.4 5006.4 5000.5 5000.5 5010.5 5000.5 5020.5 5000.5 5030.5 5000.5 5022.4 4994.6 5030.5 4988.7 5022.4 4982.9 5019.3 4973.4 5011.2 4979.2 5019.3 4985.1 5009.3 4985.1 5017.4 4991 5020.5 5000.5 5030.5 5000.5 5033.6 5010 5030.5 5019.5 5027.4 5029 5019.3 5034.9 5009.3 5034.9 5019.3 5034.9 5022.4 5025.4 5025.5 5034.9 5028.6 5044.4 5020.5 5038.5 5030.5 5038.5" clip-path="url(#a)" fill="none" stroke="#000" stroke-linecap="round"/>
<polyline points="5030.5 5038.5 5027.4 5029 5030.5 5038.5 5033.6 5048.1 5023.6 5048.1 5015.5 5053.9 5007.4 5059.8 4997.4 5059.8 4987.4 5059.8 4977.4 5059.8 4985.5 5065.7 4977.4 5071.6 4985.5 5077.4 4988.6 5087 4996.7 5081.1 4988.6 5075.2 4998.6 5075.2 4990.5 5069.3 4987.4 5059.8 4977.4 5059.8 4974.3 5050.3 4977.4 5040.8 4980.5 5031.3 4988.6 5025.4 4998.6 5025.4 4988.6 5025.4 4985.5 5034.9 4982.4 5025.4 4979.3 5015.9 4987.4 5021.8 4977.4 5021.8 4980.5 5031.3 4977.4 5021.8 4974.3 5012.3 4984.3 5012.3 4992.4 5006.4 5000.5 5000.5 5010.5 5000.5 5020.5 5000.5 5030.5 5000.5 5022.4 4994.6 5030.5 4988.7 5022.4 4982.9" clip-path="url(#a)" fill="none" stroke="#000" stroke-linecap="round"/>
<polyline points="5022.4 4982.9 5019.3 4973.4 5011.2 4979.2 5019.3 4985.1 5009.3 4985.1 5017.4 4991 5020.5 5000.5 5030.5 5000.5 5033.6 5010 5030.5 5019.5 5027.4 5029 5019.3 5034.9 5009.3 5034.9 5019.3 5034.9 5022.4 5025.4 5025.5 5034.9 5028.6 5044.4 5020.5 5038.5 5030.5 5038.5 5027.4 5029 5030.5 5038.5 5033.6 5048.1 5023.6 5048.1 5015.5 5053.9 5007.4 5059.8 4997.4 5059.8 4987.4 5059.8 4977.4 5059.8 4985.5 5065.7 4977.4 5071.6 4985.5 5077.4 4988.6 5087 4996.7 5081.1 4988.6 5075.2 4998.6 5075.2 4990.5 5069.3 4987.4 5059.8 4977.4 5059.8 4974.3 5050.3 4977.4 5040.8 4980.5 5031.3 4988.6 5025.4 4998.6 5025.4" clip-path="url(#a)" fill="none" stroke="#000" stroke-linecap="round"/>
<polyline points="4998.6 5025.4 4988.6 5025.4 4985.5 5034.9 4982.4 5025.4 4979.3 5015.9 4987.4 5021.8 4977.4 5021.8 4980.5 5031.3 4977.4 5021.8 4974.3 5012.3 4984.3 5012.3 4992.4 5006.4 5000.5 5000.5 5010.5 5000.5 5020.5 5000.5 5030.5 5000.5 5022.4 4994.6 5030.5 4988.7 5022.4 4982.9 5019.3 4973.4 5011.2 4979.2 5019.3 4985.1 5009.3 4985.1 5017.4 4991 5020.5 5000.5 5030.5 5000.5 5033.6 5010 5030.5 5019.5 5027.4 5029 5019.3 5034.9 5009.3 5034.9 5019.3 5034.9 5022.4 5025.4 5025.5 5034.9 5028.6 5044.4 5020.5 5038.5 5030.5 5038.5 5027.4 5029 5030.5 5038.5 5033.6 5048.1 5023.6 5048.1 5015.5 5053.9 5007.4 5059.8" clip-path="url(#a)" fill="none" stroke="#000" stroke-linecap="round"/>
<polyline points="5007.4 5059.8 4997.4 5059.8 4987.4 5059.8 4977.4 5059.8 4985.5 5065.7 4977.4 5071.6 4985.5 5077.4 4988.6 5087 4996.7 5081.1 4988.6 5075.2 4998.6 5075.2 4990.5 5069.3 4987.4 5059.8 4977.4 5059.8 4974.3 5050.3 4977.4 5040.8 4980.5 5031.3 4988.6 5025.4 4998.6 5025.4 4988.6 5025.4 4985.5 5034.9 4982.4 5025.4 4979.3 5015.9 4987.4 5021.8 4977.4 5021.8 4980.5 5031.3 4977.4 5021.8 4974.3 5012.3 4984.3 5012.3 4992.4 5006.4 5000.5 5000.5 5010.5 5000.5 5020.5 5000.5 5030.5 5000.5 5022.4 4994.6 5030.5 4988.7 5022.4 4982.9 5019.3 4973.4 5011.2 4979.2 5019.3 4985.1 5009.3 4985.1 5017.4 4991 5020.5 5000.5" clip-path="url(#a)" fill="none" stroke="#000" stroke-linecap="round"/>
<polyline points="5020.5 5000.5 5030.5 5000.5 5033.6 5010 5030.5 5019.5 5027.4 5029 5019.3 5034.9 5009.3 5034.9 5019.3 5034.9 5022.4 5025.4 5025.5 5034.9 5028.6 5044.4 5020.5 5038.5 5030.5 5038.5 5027.4 5029 5030.5 5038.5 5033.6 5048.1 5023.6 5048.1 5015.5 5053.9 5007.4 5059.8 4997.4 5059.8 4987.4 5059.8 4977.4 5059.8 4985.5 5065.7 4977.4 5071.6 4985.5 5077.4 4988.6 5087 4996.7 5081.1 4988.6 5075.2 4998.6 5075.2 4990.5 5069.3 4987.4 5059.8 4977.4 5059.8 4974.3 5050.3 4977.4 5040.8 4980.5 5031.3 4988.6 5025.4 4998.6 5025.4 4988.6 5025.4 4985.5 5034.9 4982.4 5025.4 4979.3 5015.9 4987.4 5021.8 4977.4 5021.8" clip-path="url(#a)" fill="none" stroke="#000" stroke-linecap="round"/>
<polyline points="4977.4 5021.8 4980.5 5031.3 4977.4 5021.8 4974.3 5012.3 4984.3 5012.3 4992.4 5006.4 5000.5 5000.5 5010.5 5000.5 5020.5 5000.5 5030.5 5000.5 5022.4 4994.6 5030.5 4988.7 5022.4 4982.9 5019.3 4973.4 5011.2 4979.2 5019.3 4985.1 5009.3 4985.1 5017.4 4991 5020.5 5000.5 5030.5 5000.5 5033.6 5010 5030.5 5019.5 5027.4 5029 5019.3 5034.9 5009.3 5034.9 5019.3 5034.9 5022.4 5025.4 5025.5 5034.9 5028.6 5044.4 5020.5 5038.5 5030.5 5038.5 5027.4 5029 5030.5 5038.5 5033.6 5048.1 5023.6 5048.1 5015.5 5053.9 5007.4 5059.8 4997.4 5059.8 4987.4 5059.8 4977.4 5059.8 4985.5 5065.7 4977.4 5071.6 4985.5 5077.4" clip-path="url(#a)" fill="none" stroke="#000" stroke-linecap="round"/>
<polyline points="4985.5 5077.4 4988.6 5087 4996.7 5081.1 4988.6 5075.2 4998.6 5075.2 4990.5 5069.3 4987.4 5059.8 4977.4 5059.8 4974.3 5050.3 4977.4 5040.8 4980.5 5031.3 4988.6 5025.4 4998.6 5025.4 4988.6 5025.4 4985.5 5034.9 4982.4 5025.4 4979.3 5015.9 4987.4 5021.8 4977.4 5021.8 4980.5 5031.3 4977.4 5021.8 4974.3 5012.3 4984.3 5012.3 4992.4 5006.4 5000.5 5000.5 5010.5 5000.5 5020.5 5000.5 5030.5 5000.5 5022.4 4994.6 5030.5 4988.7 5022.4 4982.9 5019.3 4973.4 5011.2 4979.2 5019.3 4985.1 5009.3 4985.1 5017.4 4991 5020.5 5000.5 5030.5 5000.5 5033.6 5010 5030.5 5019.5 5027.4 5029 5019.3 5034.9 5009.3 5034.9" clip-path="url(#a)" fill="none" stroke="#000" stroke-linecap="round"/>
<polyline points="5009.3 5034.9 5019.3 5034.9 5022.4 5025.4 5025.5 5034.9 5028.6 5044.4 5020.5 5038.5 5030.5 5038.5 5027.4 5029 5030.5 5038.5 5033.6 5048.1 5023.6 5048.1 5015.5 5053.9 5007.4 5059.8 4997.4 5059.8 4987.4 5059.8 4977.4 5059.8 4985.5 5065.7 4977.4 5071.6 4985.5 5077.4 4988.6 5087 4996.7 5081.1 4988.6 5075.2 4998.6 5075.2 4990.5 5069.3 4987.4 5059.8 4977.4 5059.8 4974.3 5050.3 4977.4 5040.8 4980.5 5031.3 4988.6 5025.4 4998.6 5025.4 4988.6 5025.4 4985.5 5034.9 4982.4 5025.4 4979.3 5015.9 4987.4 5021.8 4977.4 5021.8 4980.5 5031.3 4977.4 5021.8 4974.3 5012.3 4984.3 5012.3 4992.4 5006.4 5000.5 5000.5" clip-path="url(#a)" fill="none" stroke="#000" stroke-linecap="round"/>
<polyline points="5000.5 5000.5 5010.5 5000.5 5020.5 5000.5 5030.5 5000.5 5022.4 4994.6 5030.5 4988.7 5022.4 4982.9 5019.3 4973.4 5011.2 4979.2 5019.3 4985.1 5009.3 4985.1 5017.4 4991 5020.5 5000.5 5030.5 5000.5 5033.6 5010 5030.5 5019.5 5027.4 5029 5019.3 5034.9 5009.3 5034.9 5019.3 5034.9 5022.4 5025.4 5025.5 5034.9 5028.6 5044.4 5020.5 5038.5 5030.5 5038.5 5027.4 5029 5030.5 5038.5 5033.6 5048.1 5023.6 5048.1 5015.5 5053.9 5007.4 5059.8 4997.4 5059.8 4987.4 5059.8 4977.4 5059.8 4985.5 5065.7 4977.4 5071.6 4985.5 5077.4 4988.6 5087 4996.7 5081.1 4988.6 5075.2 4998.6 5075.2 4990.5 5069.3 4987.4 5059.8" clip-path="url(#a)" fill="none" stroke="#000" stroke-linecap="round"/>
<polyline points="4987.4 5059.8 4977.4 5059.8 4974.3 5050.3 4977.4 5040.8 4980.5 5031.3 4988.6 5025.4 4998.6 5025.4 4988.6 5025.4 4985.5 5034.9 4982.4 5025.4 4979.3 5015.9 4987.4 5021.8 4977.4 5021.8 4980.5 5031.3 4977.4 5021.8 4974.3 5012.3 4984.3 5012.3 4992.4 5006.4 5000.5 5000.5 5010.5 5000.5 5020.5 5000.5 5030.5 5000.5 5022.4 4994.6 5030.5 4988.7 5022.4 4982.9 5019.3 4973.4 5011.2 4979.2 5019.3 4985.1 5009.3 4985.1 5017.4 4991 5020.5 5000.5 5030.5 5000.5 5033.6 5010 5030.5 5019.5 5027.4 5029 5019.3 5034.9 5009.3 5034.9 5019.3 5034.9 5022.4 5025.4 5025.5 5034.9 5028.6 5044.4 5020.5 5038.5 5030.5 5038.5" clip-path="url(#a)" fill="none" stroke="#000" stroke-linecap="round"/>
<polyline points="5030.5 5038.5 5027.4 5029 5030.5 5038.5 5033.6 5048.1 5023.6 5048.1 5015.5 5053.9 5007.4 5059.8 4997.4 5059.8 4987.4 5059.8 4977.4 5059.8 4985.5 5065.7 4977.4 5071.6 4985.5 5077.4 4988.6 5087 4996.7 5081.1 4988.6 5075.2 4998.6 5075.2 4990.5 5069.3 4987.4 5059.8 4977.4 5059.8 4974.3 5050.3 4977.4 5040.8 4980.5 5031.3 4988.6 5025.4 4998.6 5025.4 4988.6 5025.4 4985.5 5034.9 4982.4 5025.4 4979.3 5015.9 4987.4 5021.8 4977.4 5021.8 4980.5 5031.3 4977.4 5021.8 4974.3 5012.3 4984.3 5012.3 4992.4 5006.4 5000.5 5000.5 5010.5 5000.5 5020.5 5000.5 5030.5 5000.5 5022.4 4994.6 5030.5 4988.7 5022.4 4982.9" clip-path="url(#a)" fill="none" stroke="#000" stroke-linecap="round"/>
<polyline points="5022.4 4982.9 5019.3 4973.4 5011.2 4979.2 5019.3 4985.1 5009.3 4985.1 5017.4 4991 5020.5 5000.5 5030.5 5000.5 5033.6 5010 5030.5 5019.5 5027.4 5029 5019.3 5034.9 5009.3 5034.9 5019.3 5034.9 5022.4 5025.4 5025.5 5034.9 5028.6 5044.4 5020.5 5038.5 5030.5 5038.5 5027.4 5029 5030.5 5038.5 5033.6 5048.1 5023.6 5048.1 5015.5 5053.9 5007.4 5059.8 4997.4 5059.8 4987.4 5059.8 4977.4 5059.8 4985.5 5065.7 4977.4 5071.6 4985.5 5077.4 4988.6 5087 4996.7 5081.1 4988.6 5075.2 4998.6 5075.2 4990.5 5069.3 4987.4 5059.8 4977.4 5059.8 4974.3 5050.3 4977.4 5040.8 4980.5 5031.3 4988.6 5025.4 4998.6 5025.4" clip-path="url(#a)" fill="none" stroke="#000" stroke-linecap="round"/>
<polyline points="4998.6 5025.4 4988.6 5025.4 4985.5 5034.9 4982.4 5025.4 4979.3 5015.9 4987.4 5021.8 4977.4 5021.8 4980.5 5031.3 4977.4 5021.8 4974.3 5012.3 4984.3 5012.3 4992.4 5006.4 5000.5 5000.5 5010.5 5000.5 5020.5 5000.5 5030.5 5000.5 5022.4 4994.6 5030.5 4988.7 5022.4 4982.9 5019.3 4973.4 5011.2 4979.2 5019.3 4985.1 5009.3 4985.1 5017.4 4991 5020.5 5000.5 5030.5 5000.5 5033.6 5010 5030.5 5019.5 5027.4 5029 5019.3 5034.9 5009.3 5034.9 5019.3 5034.9 5022.4 5025.4 5025.5 5034.9 5028.6 5044.4 5020.5 5038.5 5030.5 5038.5 5027.4 5029 5030.5 5038.5 5033.6 5048.1 5023.6 5048.1 5015.5 5053.9 5007.4 5059.8" clip-path="url(#a)" fill="none" stroke="#000" stroke-linecap="round"/>
<polyline points="5007.4 5059.8 4997.4 5059.8 4987.4 5059.8 4977.4 5059.8 4985.5 5065.7 4977.4 5071.6 4985.5 5077.4 4988.6 5087 4996.7 5081.1 4988.6 5075.2 4998.6 5075.2 4990.5 5069.3 4987.4 5059.8 4977.4 5059.8 4974.3 5050.3 4977.4 5040.8 4980.5 5031.3 4988.6 5025.4 4998.6 5025.4 4988.6 5025.4 4985.5 5034.9 4982.4 5025.4 4979.3 5015.9 4987.4 5021.8 4977.4 5021.8 4980.5 5031.3 4977.4 5021.8 4974.3 5012.3 4984.3 5012.3 4992.4 5006.4 5000.5 5000.5 5010.5 5000.5 5020.5 5000.5 5030.5 5000.5 5022.4 4994.6 5030.5 4988.7 5022.4 4982.9 5019.3 4973.4 5011.2 4979.2 5019.3 4985.1 5009.3 4985.1 5017.4 4991 5020.5 5000.5" clip-path="url(#a)" fill="none" stroke="#000" stroke-linecap="round"/>
<polyline points="5020.5 5000.5 5030.5 5000.5 5033.6 5010 5030.5 5019.5 5027.4 5029 5019.3 5034.9 5009.3 5034.9 5019.3 5034.9 5022.4 5025.4 5025.5 5034.9 5028.6 5044.4 5020.5 5038.5 5030.5 5038.5 5027.4 5029 5030.5 5038.5 5033.6 5048.1 5023.6 5048.1 5015.5 5053.9 5007.4 5059.8 4997.4 5059.8 4987.4 5059.8 4977.4 5059.8 4985.5 5065.7 4977.4 5071.6 4985.5 5077.4 4988.6 5087 4996.7 5081.1 4988.6 5075.2 4998.6 5075.2 4990.5 5069.3 4987.4 5059.8 4977.4 5059.8 4974.3 5050.3 4977.4 5040.8 4980.5 5031.3 4988.6 5025.4 4998.6 5025.4 4988.6 5025.4 4985.5 5034.9 4982.4 5025.4 4979.3 5015.9 4987.4 5021.8 4977.4 5021.8" clip-path="url(#a)" fill="none" stroke="#000" stroke-linecap="round"/>
<polyline points="4977.4 5021.8 4980.5 5031.3 4977.4 5021.8 4974.3 5012.3 4984.3 5012.3 4992.4 5006.4 5000.5 5000.5 5010.5 5000.5 5020.5 5000.5 5030.5 5000.5 5022.4 4994.6 5030.5 4988.7 5022.4 4982.9 5019.3 4973.4 5011.2 4979.2 5019.3 4985.1 5009.3 4985.1 5017.4 4991 5020.5 5000.5 5030.5 5000.5 5033.6 5010 5030.5 5019.5 5027.4 5029 5019.3 5034.9 5009.3 5034.9 5019.3 5034.9 5022.4 5025.4 5025.5 5034.9 5028.6 5044.4 5020.5 5038.5 5030.5 5038.5 5027.4 5029 5030.5 5038.5 5033.6 5048.1 5023.6 5048.1 5015.5 5053.9 5007.4 5059.8 4997.4 5059.8 4987.4 5059.8 4977.4 5059.8 4985.5 5065.7 4977.4 5071.6 4985.5 5077.4" clip-path="url(#a)" fill="none" stroke="#000" stroke-linecap="round"/>
<polyline points="4985.5 5077.4 4988.6 5087 4996.7 5081.1 4988.6 5075.2 4998.6 5075.2 4990.5 5069.3 4987.4 5059.8 4977.4 5059.8 4974.3 5050.3 4977.4 5040.8 4980.5 5031.3 4988.6 5025.4 4998.6 5025.4 4988.6 5025.4 4985.5 5034.9 4982.4 5025.4 4979.3 5015.9 4987.4 5021.8 4977.4 5021.8 4980.5 5031.3 4977.4 5021.8 4974.3 5012.3 4984.3 5012.3 4992.4 5006.4 5000.5 5000.5 5010.5 5000.5 5020.5 5000.5 5030.5 5000.5 5022.4 4994.6 5030.5 4988.7 5022.4 4982.9 5019.3 4973.4 5011.2 4979.2 5019.3 4985.1 5009.3 4985.1 5017.4 4991 5020.5 5000.5 5030.5 5000.5 5033.6 5010 5030.5 5019.5 5027.4 5029 5019.3 5034.9 5009.3 5034.9" clip-path="url(#a)" fill="none" stroke="#000" stroke-linecap="round"/>
<polyline points="5009.3 5034.9 5019.3 5034.9 5022.4 5025.4 5025.5 5034.9 5028.6 5044.4 5020.5 5038.5 5030.5 5038.5 5027.4 5029 5030.5 5038.5 5033.6 5048.1 5023.6 5048.1 5015.5 5053.9 5007.4 5059.8 4997.4 5059.8 4987.4 5059.8 4977.4 5059.8 4985.5 5065.7 4977.4 5071.6 4985.5 5077.4 4988.6 5087 4996.7 5081.1 4988.6 5075.2 4998.6 5075.2 4990.5 5069.3 4987.4 5059.8 4977.4 5059.8 4974.3 5050.3 4977.4 5040.8 4980.5 5031.3 4988.6 5025.4 4998.6 5025.4 4988.6 5025.4 4985.5 5034.9 4982.4 5025.4 4979.3 5015.9 4987.4 5021.8 4977.4 5021.8 4980.5 5031.3 4977.4 5021.8 4974.3 5012.3 4984.3 5012.3 4992.4 5006.4 5000.5 5000.5" clip-path="url(#a)" fill="none" stroke="#000" stroke-linecap="round"/>
<polyline points="5000.5 5000.5 5010.5 5000.5 5020.5 5000.5 5030.5 5000.5 5022.4 4994.6 5030.5 4988.7 5022.4 4982.9 5019.3 4973.4 5011.2 4979.2 5019.3 4985.1 5009.3 4985.1 5017.4 4991 5020.5 5000.5 5030.5 5000.5 5033.6 5010 5030.5 5019.5 5027.4 5029 5019.3 5034.9 5009.3 5034.9 5019.3 5034.9 5022.4 5025.4 5025.5 5034.9 5028.6 5044.4 5020.5 5038.5 5030.5 5038.5 5027.4 5029 5030.5 5038.5 5033.6 5048.1 5023.6 5048.1 5015.5 5053.9 5007.4 5059.8 4997.4 5059.8 4987.4 5059.8 4977.4 5059.8 4985.5 5065.7 4977.4 5071.6 4985.5 5077.4 4988.6 5087 4996.7 5081.1 4988.6 5075.2 4998.6 5075.2 4990.5 5069.3 4987.4 5059.8" clip-path="url(#a)" fill="none" stroke="#000" stroke-linecap="round"/>
<polyline points="4987.4 5059.8 4977.4 5059.8 4974.3 5050.3 4977.4 5040.8 4980.5 5031.3 4988.6 5025.4 4998.6 5025.4 4988.6 5025.4 4985.5 5034.9 4982.4 5025.4 4979.3 5015.9 4987.4 5021.8 4977.4 5021.8 4980.5 5031.3 4977.4 5021.8 4974.3 5012.3 4984.3 5012.3 4992.4 5006.4 5000.5 5000.5 5010.5 5000.5 5020.5 5000.5 5030.5 5000.5 5022.4 4994.6 5030.5 4988.7 5022.4 4982.9 5019.3 4973.4 5011.2 4979.2 5019.3 4985.1 5009.3 4985.1 5017.4 4991 5020.5 5000.5 5030.5 5000.5 5033.6 5010 5030.5 5019.5 5027.4 5029 5019.3 5034.9 5009.3 5034.9 5019.3 5034.9 5022.4 5025.4 5025.5 5034.9 5028.6 5044.4 5020.5 5038.5 5030.5 5038.5" clip-path="url(#a)" fill="none" stroke="#000" stroke-linecap="round"/>
<polyline points="5030.5 5038.5 5027.4 5029 5030.5 5038.5 5033.6 5048.1 5023.6 5048.1 5015.5 5053.9 5007.4 5059.8 4997.4 5059.8 4987.4 5059.8 4977.4 5059.8 4985.5 5065.7 4977.4 5071.6 4985.5 5077.4 4988.6 5087 4996.7 5081.1 4988.6 5075.2 4998.6 5075.2 4990.5 5069.3 4987.4 5059.8 4977.4 5059.8 4974.3 5050.3 4977.4 5040.8 4980.5 5031.3 4988.6 5025.4 4998.6 5025.4 4988.6 5025.4 4985.5 5034.9 4982.4 5025.4 4979.3 5015.9 4987.4 5021.8 4977.4 5021.8 4980.5 5031.3 4977.4 5021.8 4974.3 5012.3 4984.3 5012.3 4992.4 5006.4 5000.5 5000.5 5010.5 5000.5 5020.5 5000.5 5030.5 5000.5 5022.4 4994.6 5030.5 4988.7 5022.4 4982.9" clip-path="url(#a)" fill="none" stroke="#000" stroke-linecap="round"/>
<polyline points="5022.4 4982.9 5019.3 4973.4 5011.2 4979.2 5019.3 4985.1 5009.3 4985.1 5017.4 4991 5020.5 5000.5 5030.5 5000.5 5033.6 5010 5030.5 5019.5 5027.4 5029 5019.3 5034.9 5009.3 5034.9 5019.3 5034.9 5022.4 5025.4 5025.5 5034.9 5028.6 5044.4 5020.5 5038.5 5030.5 5038.5 5027.4 5029 5030.5 5038.5 5033.6 5048.1 5023.6 5048.1 5015.5 5053.9 5007.4 5059.8 4997.4 5059.8 4987.4 5059.8 4977.4 5059.8 4985.5 5065.7 4977.4 5071.6 4985.5 5077.4 4988.6 5087 4996.7 5081.1 4988.6 5075.2 4998.6 5075.2 4990.5 5069.3 4987.4 5059.8 4977.4 5059.8 4974.3 5050.3 4977.4 5040.8 4980.5 5031.3 4988.6 5025.4 4998.6 5025.4" clip-path="url(#a)" fill="none" stroke="#000" stroke-linecap="round"/>
<polyline points="4998.6 5025.4 4988.6 5025.4 4985.5 5034.9 4982.4 5025.4 4979.3 5015.9 4987.4 5021.8 4977.4 5021.8 4980.5 5031.3 4977.4 5021.8 4974.3 5012.3 4984.3 5012.3 4992.4 5006.4 5000.5 5000.5 5010.5 5000.5 5020.5 5000.5 5030.5 5000.5 5022.4 4994.6 5030.5 4988.7 5022.4 4982.9 5019.3 4973.4 5011.2 4979.2 5019.3 4985.1 5009.3 4985.1 5017.4 4991 5020.5 5000.5 5030.5 5000.5 5033.6 5010 5030.5 5019.5 5027.4 5029 5019.3 5034.9 5009.3 5034.9 5019.3 5034.9 5022.4 5025.4 5025.5 5034.9 5028.6 5044.4 5020.5 5038.5 5030.5 5038.5 5027.4 5029 5030.5 5038.5 5033.6 5048.1 5023.6 5048.1 5015.5 5053.9 5007.4 5059.8" clip-path="url(#a)" fill="none" stroke="#000" stroke-linecap="round"/>
<polyline points="5007.4 5059.8 4997.4 5059.8 4987.4 5059.8 4977.4 5059.8 4985.5 5065.7 4977.4 5071.6 4985.5 5077.4 4988.6 5087 4996.7 5081.1 4988.6 5075.2 4998.6 5075.2 4990.5 5069.3 4987.4 5059.8 4977.4 5059.8 4974.3 5050.3 4977.4 5040.8 4980.5 5031.3 4988.6 5025.4 4998.6 5025.4 4988.6 5025.4 4985.5 5034.9 4982.4 5025.4 4979.3 5015.9 4987.4 5021.8 4977.4 5021.8 4980.5 5031.3 4977.4 5021.8 4974.3 5012.3 4984.3 5012.3 4992.4 5006.4 5000.5 5000.5 5010.5 5000.5 5020.5 5000.5 5030.5 5000.5 5022.4 4994.6 5030.5 4988.7 5022.4 4982.9 5019.3 4973.4 5011.2 4979.2 5019.3 4985.1 5009.3 4985.1 5017.4 4991 5020.5 5000.5" clip-path="url(#a)" fill="none" stroke="#000" stroke-linecap="round"/>
<polyline points="5020.5 5000.5 5030.5 5000.5 5033.6 5010 5030.5 5019.5 5027.4 5029 5019.3 5034.9 5009.3 5034.9 5019.3 5034.9 5022.4 5025.4 5025.5 5034.9 5028.6 5044.4 5020.5 5038.5 5030.5 5038.5 5027.4 5029 5030.5 5038.5 5033.6 5048.1 5023.6 5048.1 5015.5 5053.9 5007.4 5059.8 4997.4 5059.8 4987.4 5059.8 4977.4 5059.8 4985.5 5065.7 4977.4 5071.6 4985.5 5077.4 4988.6 5087 4996.7 5081.1 4988.6 5075.2 4998.6 5075.2 4990.5 5069.3 4987.4 5059.8 4977.4 5059.8 4974.3 5050.3 4977.4 5040.8 4980.5 5031.3 4988.6 5025.4 4998.6 5025.4 4988.6 5025.4 4985.5 5034.9 4982.4 5025.4 4979.3 5015.9 4987.4 5021.8 4977.4 5021.8" clip-path="url(#a)" fill="none" stroke="#000" stroke-linecap="round"/>
<polyline points="4977.4 5021.8 4980.5 5031.3 4977.4 5021.8 4974.3 5012.3 4984.3 5012.3 4992.4 5006.4 5000.5 5000.5 5010.5 5000.5 5020.5 5000.5 5030.5 5000.5 5022.4 4994.6 5030.5 4988.7 5022.4 4982.9 5019.3 4973.4 5011.2 4979.2 5019.3 4985.1 5009.3 4985.1 5017.4 4991 5020.5 5000.5 5030.5 5000.5 5033.6 5010 5030.5 5019.5 5027.4 5029 5019.3 5034.9 5009.3 5034.9 5019.3 5034.9 5022.4 5025.4 5025.5 5034.9 5028.6 5044.4 5020.5 5038.5 5030.5 5038.5 5027.4 5029 5030.5 5038.5 5033.6 5048.1 5023.6 5048.1 5015.5 5053.9 5007.4 5059.8 4997.4 5059.8 4987.4 5059.8 4977.4 5059.8 4985.5 5065.7 4977.4 5071.6 4985.5 5077.4" clip-path="url(#a)" fill="none" stroke="#000" stroke-linecap="round"/>
<polyline points="4985.5 5077.4 4988.6 5087 4996.7 5081.1 4988.6 5075.2 4998.6 5075.2 4990.5 5069.3 4987.4 5059.8 4977.4 5059.8 4974.3 5050.3 4977.4 5040.8 4980.5 5031.3 4988.6 5025.4 4998.6 5025.4 4988.6 5025.4 4985.5 5034.9 4982.4 5025.4 4979.3 5015.9 4987.4 5021.8 4977.4 5021.8 4980.5 5031.3 4977.4 5021.8 4974.3 5012.3 4984.3 5012.3 4992.4 5006.4 5000.5 5000.5 5010.5 5000.5 5020.5 5000.5 5030.5 5000.5 5022.4 4994.6 5030.5 4988.7 5022.4 4982.9 5019.3 4973.4 5011.2 4979.2 5019.3 4985.1 5009.3 4985.1 5017.4 4991 5020.5 5000.5 5030.5 5000.5 5033.6 5010 5030.5 5019.5 5027.4 5029 5019.3 5034.9 5009.3 5034.9" clip-path="url(#a)" fill="none" stroke="#000" stroke-linecap="round"/>
<polyline points="5009.3 5034.9 5019.3 5034.9 5022.4 5025.4 5025.5 5034.9 5028.6 5044.4 5020.5 5038.5 5030.5 5038.5 5027.4 5029 5030.5 5038.5 5033.6 5048.1 5023.6 5048.1 5015.5 5053.9 5007.4 5059.8 4997.4 5059.8 4987.4 5059.8 4977.4 5059.8 4985.5 5065.7 4977.4 5071.6 4985.5 5077.4 4988.6 5087 4996.7 5081.1 4988.6 5075.2 4998.6 5075.2 4990.5 5069.3 4987.4 5059.8 4977.4 5059.8 4974.3 5050.3 4977.4 5040.8 4980.5 5031.3 4988.6 5025.4 4998.6 5025.4 4988.6 5025.4 4985.5 5034.9 4982.4 5025.4 4979.3 5015.9 4987.4 5021.8 4977.4 5021.8 4980.5 5031.3 4977.4 5021.8 4974.3 5012.3 4984.3 5012.3 4992.4 5006.4 5000.5 5000.5" clip-path="url(#a)" fill="none" stroke="#000" stroke-linecap="round"/>
<polyline points="5000.5 5000.5 5010.5 5000.5 5020.5 5000.5 5030.5 5000.5 5022.4 4994.6 5030.5 4988.7 5022.4 4982.9 5019.3 4973.4 5011.2 4979.2 5019.3 4985.1 5009.3 4985.1 5017.4 4991 5020.5 5000.5 5030.5 5000.5 5033.6 5010 5030.5 5019.5 5027.4 5029 5019.3 5034.9 5009.3 5034.9 5019.3 5034.9 5022.4 5025.4 5025.5 5034.9 5028.6 5044.4 5020.5 5038.5 5030.5 5038.5 5027.4 5029 5030.5 5038.5 5033.6 5048.1 5023.6 5048.1 5015.5 5053.9 5007.4 5059.8 4997.4 5059.8 4987.4 5059.8 4977.4 5059.8 4985.5 5065.7 4977.4 5071.6 4985.5 5077.4 4988.6 5087 4996.7 5081.1 4988.6 5075.2 4998.6 5075.2 4990.5 5069.3 4987.4 5059.8" clip-path="url(#a)" fill="none" stroke="#000" stroke-linecap="round"/>
<polyline points="4987.4 5059.8 4977.4 5059.8 4974.3 5050.3 4977.4 5040.8 4980.5 5031.3 4988.6 5025.4 4998.6 5025.4 4988.6 5025.4 4985.5 5034.9 4982.4 5025.4 4979.3 5015.9 4987.4 5021.8 4977.4 5021.8 4980.5 5031.3 4977.4 5021.8 4974.3 5012.3 4984.3 5012.3 4992.4 5006.4 5000.5 5000.5 5010.5 5000.5 5020.5 5000.5 5030.5 5000.5 5022.4 4994.6 5030.5 4988.7 5022.4 4982.9 5019.3 4973.4 5011.2 4979.2 5019.3 4985.1 5009.3 4985.1 5017.4 4991 5020.5 5000.5 5030.5 5000.5 5033.6 5010 5030.5 5019.5 5027.4 5029 5019.3 5034.9 5009.3 5034.9 5019.3 5034.9 5022.4 5025.4 5025.5 5034.9 5028.6 5044.4 5020.5 5038.5 5030.5 5038.5" clip-path="url(#a)" fill="none" stroke="#000" stroke-linecap="round"/>
<polyline points="5030.5 5038.5 5027.4 5029 5030.5 5038.5 5033.6 5048.1 5023.6 5048.1 5015.5 5053.9 5007.4 5059.8 4997.4 5059.8 4987.4 5059.8 4977.4 5059.8 4985.5 5065.7 4977.4 5071.6 4985.5 5077.4 4988.6 5087 4996.7 5081.1 4988.6 5075.2 4998.6 5075.2 4990.5 5069.3 4987.4 5059.8 4977.4 5059.8 4974.3 5050.3 4977.4 5040.8 4980.5 5031.3 4988.6 5025.4 4998.6 5025.4 4988.6 5025.4 4985.5 5034.9 4982.4 5025.4 4979.3 5015.9 4987.4 5021.8 4977.4 5021.8 4980.5 5031.3 4977.4 5021.8 4974.3 5012.3 4984.3 5012.3 4992.4 5006.4 5000.5 5000.5 5010.5 5000.5 5020.5 5000.5 5030.5 5000.5 5022.4 4994.6 5030.5 4988.7 5022.4 4982.9" clip-path="url(#a)" fill="none" stroke="#000" stroke-linecap="round"/>
<polyline points="5022.4 4982.9 5019.3 4973.4 5011.2 4979.2 5019.3 4985.1 5009.3 4985.1 5017.4 4991 5020.5 5000.5 5030.5 5000.5 5033.6 5010 5030.5 5019.5 5027.4 5029 5019.3 5034.9 5009.3 5034.9 5019.3 5034.9 5022.4 5025.4 5025.5 5034.9 5028.6 5044.4 5020.5 5038.5 5030.5 5038.5 5027.4 5029 5030.5 5038.5 5033.6 5048.1 5023.6 5048.1 5015.5 5053.9 5007.4 5059.8 4997.4 5059.8 4987.4 5059.8 4977.4 5059.8 4985.5 5065.7 4977.4 5071.6 4985.5 5077.4 4988.6 5087 4996.7 5081.1 4988.6 5075.2 4998.6 5075.2 4990.5 5069.3 4987.4 5059.8 4977.4 5059.8 4974.3 5050.3 4977.4 5040.8 4980.5 5031.3 4988.6 5025.4 4998.6 5025.4" clip-path="url(#a)" fill="none" stroke="#000" stroke-linecap="round"/>
<polyline points="4998.6 5025.4 4988.6 5025.4 4985.5 5034.9 4982.4 5025.4 4979.3 5015.9 4987.4 5021.8 4977.4 5021.8 4980.5 5031.3 4977.4 5021.8 4974.3 5012.3 4984.3 5012.3 4992.4 5006.4 5000.5 5000.5 5010.5 5000.5 5020.5 5000.5 5030.5 5000.5 5022.4 4994.6 5030.5 4988.7 5022.4 4982.9 5019.3 4973.4 5011.2 4979.2 5019.3 4985.1 5009.3 4985.1 5017.4 4991 5020.5 5000.5 5030.5 5000.5 5033.6 5010 5030.5 5019.5 5027.4 5029 5019.3 5034.9 5009.3 5034.9 5019.3 5034.9 5022.4 5025.4 5025.5 5034.9 5028.6 5044.4 5020.5 5038.5 5030.5 5038.5 5027.4 5029 5030.5 5038.5 5033.6 5048.1 5023.6 5048.1 5015.5 5053.9 5007.4 5059.8" clip-path="url(#a)" fill="none" stroke="#000" stroke-linecap="round"/>
<polyline points="5007.4 5059.8 4997.4 5059.8 4987.4 5059.8 4977.4 5059.8 4985.5 5065.7 4977.4 5071.6 4985.5 5077.4 4988.6 5087 4996.7 5081.1 4988.6 5075.2 4998.6 5075.2 4990.5 5069.3 4987.4 5059.8 4977.4 5059.8 4974.3 5050.3 4977.4 5040.8 4980.5 5031.3 4988.6 5025.4 4998.6 5025.4 4988.6 5025.4 4985.5 5034.9 4982.4 5025.4 4979.3 5015.9 4987.4 5021.8 4977.4 5021.8 4980.5 5031.3 4977.4 5021.8 4974.3 5012.3 4984.3 5012.3 4992.4 5006.4 5000.5 5000.5 5010.5 5000.5 5020.5 5000.5 5030.5 5000.5 5022.4 4994.6 5030.5 4988.7 5022.4 4982.9 5019.3 4973.4 5011.2 4979.2 5019.3 4985.1 5009.3 4985.1 5017.4 4991 5020.5 5000.5" clip-path="url(#a)" fill="none" stroke="#000" stroke-linecap="round"/>
<polyline points="5020.5 5000.5 5030.5 5000.5 5033.6 5010 5030.5 5019.5 5027.4 5029 5019.3 5034.9 5009.3 5034.9 5019.3 5034.9 5022.4 5025.4 5025.5 5034.9 5028.6 5044.4 5020.5 5038.5 5030.5 5038.5 5027.4 5029 5030.5 5038.5 5033.6 5048.1 5023.6 5048.1 5015.5 5053.9 5007.4 5059.8 4997.4 5059.8 4987.4 5059.8 4977.4 5059.8 4985.5 5065.7 4977.4 5071.6 4985.5 5077.4 4988.6 5087 4996.7 5081.1 4988.6 5075.2 4998.6 5075.2 4990.5 5069.3 4987.4 5059.8 4977.4 5059.8 4974.3 5050.3 4977.4 5040.8 4980.5 5031.3 4988.6 5025.4 4998.6 5025.4 4988.6 5025.4 4985.5 5034.9 4982.4 5025.4 4979.3 5015.9 4987.4 5021.8 4977.4 5021.8" clip-path="url(#a)" fill="none" stroke="#000" stroke-linecap="round"/>
<polyline points="4977.4 5021.8 4980.5 5031.3 4977.4 5021.8 4974.3 5012.3 4984.3 5012.3 4992.4 5006.4 5000.5 5000.5 5010.5 5000.5 5020.5 5000.5 5030.5 5000.5 5022.4 4994.6 5030.5 4988.7 5022.4 4982.9 5019.3 4973.4 5011.2 4979.2 5019.3 4985.1 5009.3 4985.1 5017.4 4991 5020.5 5000.5 5030.5 5000.5 5033.6 5010 5030.5 5019.5 5027.4 5029 5019.3 5034.9 5009.3 5034.9 5019.3 5034.9 5022.4 5025.4 5025.5 5034.9 5028.6 5044.4 5020.5 5038.5 5030.5 5038.5 5027.4 5029 5030.5 5038.5 5033.6 5048.1 5023.6 5048.1 5015.5 5053.9 5007.4 5059.8 4997.4 5059.8 4987.4 5059.8 4977.4 5059.8 4985.5 5065.7 4977.4 5071.6 4985.5 5077.4" clip-path="url(#a)" fill="none" stroke="#000" stroke-linecap="round"/>
<polyline points="4985.5 5077.4 4988.6 5087 4996.7 5081.1 4988.6 5075.2 4998.6 5075.2 4990.5 5069.3 4987.4 5059.8 4977.4 5059.8 4974.3 5050.3 4977.4 5040.8 4980.5 5031.3 4988.6 5025.4 4998.6 5025.4 4988.6 5025.4 4985.5 5034.9 4982.4 5025.4 4979.3 5015.9 4987.4 5021.8 4977.4 5021.8 4980.5 5031.3 4977.4 5021.8 4974.3 5012.3 4984.3 5012.3 4992.4 5006.4 5000.5 5000.5 5010.5 5000.5 5020.5 5000.5 5030.5 5000.5 5022.4 4994.6 5030.5 4988.7 5022.4 4982.9 5019.3 4973.4 5011.2 4979.2 5019.3 4985.1 5009.3 4985.1 5017.4 4991 5020.5 5000.5 5030.5 5000.5 5033.6 5010 5030.5 5019.5 5027.4 5029 5019.3 5034.9 5009.3 5034.9" clip-path="url(#a)" fill="none" stroke="#000" stroke-linecap="round"/>
<polyline points="5009.3 5034.9 5019.3 5034.9 5022.4 5025.4 5025.5 5034.9 5028.6 5044.4 5020.5 5038.5 5030.5 5038.5 5027.4 5029 5030.5 5038.5 5033.6 5048.1 5023.6 5048.1 5015.5 5053.9 5007.4 5059.8 4997.4 5059.8 4987.4 5059.8 4977.4 5059.8 4985.5 5065.7 4977.4 5071.6 4985.5 5077.4 4988.6 5087 4996.7 5081.1 4988.6 5075.2 4998.6 5075.2 4990.5 5069.3 4987.4 5059.8 4977.4 5059.8 4974.3 5050.3 4977.4 5040.8 4980.5 5031.3 4988.6 5025.4 4998.6 5025.4 4988.6 5025.4 4985.5 5034.9 4982.4 5025.4 4979.3 5015.9 4987.4 5021.8 4977.4 5021.8 4980.5 5031.3 4977.4 5021.8 4974.3 5012.3 4984.3 5012.3 4992.4 5006.4 5000.5 5000.5" clip-path="url(#a)" fill="none" stroke="#000" stroke-linecap="round"/>
</svg>
