<?xml version="1.0" encoding="UTF-8"?>
<svg width="1e4px" height="1e4px" baseProfile="full" version="1.1" viewBox="4877.2 4895 153.99 158.9" xmlns="http://www.w3.org/2000/svg">
<defs>
<clipPath id="a">
<rect width="1e4" height="1e4"/>
</clipPath>
</defs>
<polyline points="5000.5 5000.5 5010.5 5000.5 5020.5 5000.5 5030.5 5000.5 5022.4 4994.6 5025.5 5004.1 5028.6 5013.6 5025.5 5004.1 5015.5 5004.1 5012.4 4994.6 5020.5 5000.5 5023.6 4991 5015.5 4996.9 5023.6 5002.7 5013.6 5002.7 5005.5 5008.6 5008.6 5018.1 5016.7 5012.3 5008.6 5006.4 5011.7 5015.9 5003.6 5021.8 4995.5 5027.6 4992.4 5037.2 4984.3 5031.3 4994.3 5031.3 4997.4 5021.8 4994.3 5012.3 4986.2 5006.4 4989.3 5015.9 4986.2 5006.4 4978.1 5012.3 4975 5002.7 4972 5012.3 4980 5006.4 4970 5006.4 4962 5000.5 4958.9 5010 4968.9 5010 4977 5015.9 4985 5010 4993.1 5004.1 4996.2 5013.6 4999.3 5023.2" clip-path="url(#a)" fill="none" stroke="#000" stroke-linecap="round"/>
<polyline points="4999.3 5023.2 5002.4 5013.6 5012.4 5013.6 5004.3 5007.8 5012.4 5013.6 5009.3 5023.2 5012.4 5032.7 5015.5 5023.2 5023.6 5017.3 5026.7 5026.8 5016.7 5026.8 5008.6 5020.9 5016.7 5015 5008.6 5009.2 5016.7 5015 5006.7 5015 5003.6 5005.5 4993.6 5005.5 4990.5 4996 4982.4 4990.1 4979.3 4980.6 4971.2 4986.5 4963.1 4980.6 4960 4990.1 4968.1 4996 4960 4990.1 4957 4980.6 4960 4971.1 4957 4961.6 4948.9 4955.7 4952 4946.2 4960 4940.3 4950 4940.3 4947 4949.8 4938.9 4944 4935.8 4953.5 4938.9 4963 4948.9 4963 4945.8 4972.5 4937.7 4966.6 4945.8 4972.5 4948.9 4963 4938.9 4963" clip-path="url(#a)" fill="none" stroke="#000" stroke-linecap="round"/>
<polyline points="4938.9 4963 4928.9 4963 4932 4972.5 4928.9 4982 4925.8 4972.5 4922.7 4982 4914.6 4976.1 4922.7 4982 4914.6 4987.9 4911.5 4978.4 4908.4 4968.9 4911.5 4959.4 4903.4 4953.5 4911.5 4959.4 4921.5 4959.4 4929.6 4953.5 4937.7 4947.6 4940.8 4938.1 4930.8 4938.1 4927.7 4947.6 4930.8 4957.1 4927.7 4947.6 4935.8 4941.7 4927.7 4947.6 4917.7 4947.6 4907.7 4947.6 4910.8 4957.1 4913.9 4966.6 4905.8 4972.5 4913.9 4978.4 4905.8 4984.3 4897.7 4990.1 4889.6 4996 4899.6 4996 4891.5 4990.1 4883.4 4984.3 4891.5 4990.1 4899.6 4984.3 4907.7 4990.1 4897.7 4990.1 4900.8 4999.6 4903.9 4990.1 4893.9 4990.1" clip-path="url(#a)" fill="none" stroke="#000" stroke-linecap="round"/>
<polyline points="4893.9 4990.1 4902 4984.3 4905 4974.7 4897 4968.9 4893.9 4978.4 4903.9 4978.4 4895.8 4972.5 4898.9 4963 4902 4953.5 4898.9 4944 4908.9 4944 4900.8 4949.8 4903.9 4959.4 4912 4965.2 4922 4965.2 4913.9 4959.4 4922 4965.2 4925 4955.7 4933.1 4961.6 4930 4952.1 4927 4961.6 4935 4955.7 4945 4955.7 4942 4946.2 4933.9 4952.1 4923.9 4952.1 4920.8 4961.6 4917.7 4971.1 4909.6 4965.2 4901.5 4959.4 4904.6 4968.9 4896.5 4974.7 4906.5 4974.7 4896.5 4974.7 4893.4 4965.2 4885.3 4959.4 4888.4 4968.9 4885.3 4978.4 4877.2 4972.5 4885.3 4966.6 4895.3 4966.6 4892.2 4976.1 4902.2 4976.1" clip-path="url(#a)" fill="none" stroke="#000" stroke-linecap="round"/>
<polyline points="4902.2 4976.1 4892.2 4976.1 4900.3 4970.3 4908.4 4976.1 4916.5 4970.3 4924.6 4976.1 4934.6 4976.1 4942.7 4982 4945.8 4972.5 4955.8 4972.5 4952.7 4963 4942.7 4963 4952.7 4963 4960.8 4968.9 4963.9 4978.4 4972 4984.3 4982 4984.3 4985 4993.8 4982 5003.3 4990 4997.4 4987 4987.9 4997 4987.9 4993.9 4978.4 4985.8 4972.5 4977.7 4978.4 4974.6 4968.9 4984.6 4968.9 4974.6 4968.9 4977.7 4978.4 4985.8 4972.5 4993.9 4966.6 4985.8 4960.7 4982.7 4951.2 4990.8 4957.1 4987.7 4947.6 4997.7 4947.6 4987.7 4947.6 4990.8 4938.1 4998.9 4944 5007 4949.8 5010 4959.4 5020 4959.4 5010 4959.4" clip-path="url(#a)" fill="none" stroke="#000" stroke-linecap="round"/>
<polyline points="5010 4959.4 5002 4965.2 4998.9 4974.7 4995.8 4984.3 4998.9 4993.8 5007 4987.9 5003.9 4978.4 4995.8 4972.5 5003.9 4978.4 5000.8 4987.9 5003.9 4978.4 5012 4972.5 5020 4966.6 5012 4960.7 5003.9 4954.9 5007 4945.4 4997 4945.4 5e3 4935.8 5003.1 4926.3 5006.2 4916.8 4998.1 4922.7 5008.1 4922.7 5018.1 4922.7 5008.1 4922.7 5005 4932.2 4995 4932.2 5003.1 4926.3 4995 4920.5 4998.1 4930 5006.2 4924.1 5003.1 4933.6 5006.2 4943.1 5016.2 4943.1 5013.1 4933.6 5005 4939.5 5015 4939.5 5018.1 4949 5021.2 4958.5 5029.3 4964.4 5021.2 4970.3 5024.3 4960.7 5016.2 4954.9 5006.2 4954.9" clip-path="url(#a)" fill="none" stroke="#000" stroke-linecap="round"/>
<polyline points="5006.2 4954.9 4998.1 4960.7 5008.1 4960.7 4998.1 4960.7 5001.2 4970.3 4991.2 4970.3 4999.3 4976.1 4996.2 4966.6 4993.1 4976.1 4985 4982 4993.1 4987.9 4996.2 4978.4 5004.3 4972.5 5001.2 4963 4998.1 4953.5 5008.1 4953.5 5018.1 4953.5 5010 4947.6 5013.1 4938.1 5005 4944 5013.1 4938.1 5021.2 4944 5031.2 4944 5023.1 4938.1 5020 4928.6 5030 4928.6 5027 4938.1 5018.9 4944 5015.8 4934.5 5007.7 4940.3 5015.8 4934.5 5012.7 4944 5002.7 4944 4999.6 4953.5 4989.6 4953.5 4981.5 4959.4 4971.5 4959.4 4974.6 4968.9 4966.5 4974.7 4974.6 4980.6 4982.7 4974.7 4974.6 4980.6 4964.6 4980.6" clip-path="url(#a)" fill="none" stroke="#000" stroke-linecap="round"/>
<polyline points="4964.6 4980.6 4956.5 4974.7 4946.5 4974.7 4938.4 4980.6 4930.3 4974.7 4927.2 4965.2 4924.1 4974.7 4932.2 4980.6 4924.1 4986.5 4932.2 4992.4 4942.2 4992.4 4945.3 4982.9 4953.4 4988.7 4945.3 4994.6 4953.4 4988.7 4945.3 4982.9 4942.2 4992.4 4939.1 5001.9 4949.1 5001.9 4957.2 5007.8 4947.2 5007.8 4955.3 5013.6 4947.2 5019.5 4955.3 5013.6 4958.4 5023.2 4948.4 5023.2 4938.4 5023.2 4930.3 5017.3 4922.2 5023.2 4930.3 5017.3 4933.4 5007.8 4930.3 4998.3 4927.2 4988.7 4919.1 4982.9 4916.1 4992.4 4924.1 4998.3 4934.1 4998.3 4924.1 4998.3 4921.1 4988.7 4924.1 4998.3 4921.1 5007.8 4918 5017.3 4928 5017.3" clip-path="url(#a)" fill="none" stroke="#000" stroke-linecap="round"/>
<polyline points="4928 5017.3 4938 5017.3 4941.1 5026.8 4949.1 5020.9 4952.2 5030.4 4955.3 5039.9 4958.4 5049.4 4961.5 5039.9 4953.4 5045.8 4945.3 5051.7 4953.4 5045.8 4950.3 5036.3 4958.4 5030.4 4955.3 5039.9 4965.3 5039.9 4957.2 5034.1 4954.1 5043.6 4951.1 5034.1 4943 5028.2 4934.9 5034.1 4943 5039.9 4946.1 5030.4 4938 5036.3 4929.9 5030.4 4921.8 5024.5 4911.8 5024.5 4914.9 5015 4918 5024.5 4928 5024.5 4936.1 5018.7 4939.1 5009.2 4931.1 5015 4939.1 5009.2 4931.1 5003.3 4939.1 4997.4 4929.1 4997.4 4937.2 5003.3 4934.1 4993.8 4937.2 4984.3 4927.2 4984.3 4930.3 4993.8 4927.2 5003.3 4935.3 5009.2" clip-path="url(#a)" fill="none" stroke="#000" stroke-linecap="round"/>
<polyline points="4935.3 5009.2 4943.4 5015 4935.3 5020.9 4927.2 5026.8 4937.2 5026.8 4940.3 5036.3 4943.4 5026.8 4940.3 5036.3 4930.3 5036.3 4922.2 5042.2 4932.2 5042.2 4940.3 5048.1 4932.2 5053.9 4929.1 5044.4 4932.2 5034.9 4940.3 5040.8 4943.4 5031.3 4940.3 5040.8 4937.2 5031.3 4945.3 5025.4 4942.2 5015.9 4950.3 5010 4953.4 5000.5 4961.5 4994.6 4953.4 4988.7 4956.5 4979.2 4946.5 4979.2 4943.4 4988.7 4946.5 4979.2 4954.6 4973.4 4964.6 4973.4 4972.7 4967.5 4975.8 4958 4985.8 4958 4993.9 4963.8 4990.8 4954.3 4980.8 4954.3 4983.9 4944.8 4973.9 4944.8 4965.8 4950.7 4968.9 4960.2 4958.9 4960.2 4962 4950.7" clip-path="url(#a)" fill="none" stroke="#000" stroke-linecap="round"/>
<polyline points="4962 4950.7 4958.9 4960.2 4968.9 4960.2 4965.8 4950.7 4962.7 4941.2 4954.6 4947.1 4944.6 4947.1 4952.7 4941.2 4942.7 4941.2 4945.8 4931.7 4942.7 4941.2 4934.6 4935.3 4942.7 4929.4 4950.8 4923.6 4960.8 4923.6 4963.9 4914 4960.8 4923.6 4963.9 4933.1 4972 4938.9 4980 4944.8 4990 4944.8 4987 4935.3 4977 4935.3 4968.9 4941.2 4977 4935.3 4985 4941.2 4977 4935.3 4973.9 4925.8 4970.8 4916.3 4962.7 4922.2 4954.6 4928 4946.5 4922.2 4943.4 4931.7 4935.3 4925.8 4927.2 4919.9 4919.1 4914 4922.2 4923.6 4925.3 4914 4928.4 4904.5 4925.3 4914 4933.4 4919.9 4930.3 4929.4 4927.2 4919.9" clip-path="url(#a)" fill="none" stroke="#000" stroke-linecap="round"/>
<polyline points="4927.2 4919.9 4919.1 4925.8 4929.1 4925.8 4926.1 4916.3 4934.1 4922.2 4944.1 4922.2 4947.2 4912.7 4937.2 4912.7 4940.3 4922.2 4943.4 4912.7 4953.4 4912.7 4963.4 4912.7 4971.5 4906.8 4974.6 4916.3 4966.5 4910.4 4958.4 4916.3 4955.3 4925.8 4958.4 4935.3 4961.5 4925.8 4958.4 4935.3 4968.4 4935.3 4965.3 4944.8 4973.4 4938.9 4963.4 4938.9 4971.5 4944.8 4974.6 4954.3 4982.7 4948.5 4974.6 4942.6 4971.5 4933.1 4961.5 4933.1 4951.5 4933.1 4954.6 4923.6 4957.7 4914 4949.6 4919.9 4941.5 4914 4944.6 4923.6 4941.5 4914 4949.6 4908.2 4952.7 4898.7 4944.6 4904.5 4934.6 4904.5 4937.7 4895 4945.8 4900.9" clip-path="url(#a)" fill="none" stroke="#000" stroke-linecap="round"/>
<polyline points="4945.8 4900.9 4948.9 4910.4 4938.9 4910.4 4942 4919.9 4938.9 4910.4 4947 4916.3 4943.9 4925.8 4952 4931.7 4948.9 4941.2 4952 4950.7 4948.9 4960.2 4958.9 4960.2 4962 4969.7 4970 4963.8 4967 4954.3 4970 4963.8 4967 4973.4 4958.9 4979.2 4955.8 4988.7 4958.9 4998.3 4950.8 5004.1 4940.8 5004.1 4948.9 5010 4957 5004.1 4960 5013.6 4968.1 5007.8 4971.2 4998.3 4963.1 4992.4 4971.2 4986.5 4974.3 4996 4971.2 4986.5 4963.1 4992.4 4971.2 4998.3 4979.3 5004.1 4982.4 4994.6 4990.5 4988.7 4987.4 4998.3 4995.5 4992.4 4998.6 5001.9 4995.5 4992.4 5005.5 4992.4 5002.4 5001.9 4999.3 5011.4" clip-path="url(#a)" fill="none" stroke="#000" stroke-linecap="round"/>
<polyline points="4999.3 5011.4 4991.2 5017.3 4994.3 5026.8 4991.2 5017.3 4983.1 5011.4 4973.1 5011.4 4963.1 5011.4 4955 5017.3 4963.1 5023.2 4971.2 5017.3 4974.3 5007.8 4971.2 5017.3 4961.2 5017.3 4971.2 5017.3 4979.3 5023.2 4987.4 5029 4990.5 5019.5 4993.6 5010 5003.6 5010 5000.5 5000.5 5010.5 5000.5 5020.5 5000.5 5030.5 5000.5 5022.4 4994.6 5025.5 5004.1 5028.6 5013.6 5025.5 5004.1 5015.5 5004.1 5012.4 4994.6 5020.5 5000.5 5023.6 4991 5015.5 4996.9 5023.6 5002.7 5013.6 5002.7 5005.5 5008.6 5008.6 5018.1 5016.7 5012.3 5008.6 5006.4 5011.7 5015.9 5003.6 5021.8 4995.5 5027.6 4992.4 5037.2 4984.3 5031.3" clip-path="url(#a)" fill="none" stroke="#000" stroke-linecap="round"/>
<polyline points="4984.3 5031.3 4994.3 5031.3 4997.4 5021.8 4994.3 5012.3 4986.2 5006.4 4989.3 5015.9 4986.2 5006.4 4978.1 5012.3 4975 5002.7 4972 5012.3 4980 5006.4 4970 5006.4 4962 5000.5 4958.9 5010 4968.9 5010 4977 5015.9 4985 5010 4993.1 5004.1 4996.2 5013.6 4999.3 5023.2 5002.4 5013.6 5012.4 5013.6 5004.3 5007.8 5012.4 5013.6 5009.3 5023.2 5012.4 5032.7 5015.5 5023.2 5023.6 5017.3 5026.7 5026.8 5016.7 5026.8 5008.6 5020.9 5016.7 5015 5008.6 5009.2 5016.7 5015 5006.7 5015 5003.6 5005.5 4993.6 5005.5 4990.5 4996 4982.4 4990.1 4979.3 4980.6 4971.2 4986.5 4963.1 4980.6 4960 4990.1" clip-path="url(#a)" fill="none" stroke="#000" stroke-linecap="round"/>
<polyline points="4960 4990.1 4968.1 4996 4960 4990.1 4957 4980.6 4960 4971.1 4957 4961.6 4948.9 4955.7 4952 4946.2 4960 4940.3 4950 4940.3 4947 4949.8 4938.9 4944 4935.8 4953.5 4938.9 4963 4948.9 4963 4945.8 4972.5 4937.7 4966.6 4945.8 4972.5 4948.9 4963 4938.9 4963 4928.9 4963 4932 4972.5 4928.9 4982 4925.8 4972.5 4922.7 4982 4914.6 4976.1 4922.7 4982 4914.6 4987.9 4911.5 4978.4 4908.4 4968.9 4911.5 4959.4 4903.4 4953.5 4911.5 4959.4 4921.5 4959.4 4929.6 4953.5 4937.7 4947.6 4940.8 4938.1 4930.8 4938.1 4927.7 4947.6 4930.8 4957.1 4927.7 4947.6 4935.8 4941.7 4927.7 4947.6" clip-path="url(#a)" fill="none" stroke="#000" stroke-linecap="round"/>
<polyline points="4927.7 4947.6 4917.7 4947.6 4907.7 4947.6 4910.8 4957.1 4913.9 4966.6 4905.8 4972.5 4913.9 4978.4 4905.8 4984.3 4897.7 4990.1 4889.6 4996 4899.6 4996 4891.5 4990.1 4883.4 4984.3 4891.5 4990.1 4899.6 4984.3 4907.7 4990.1 4897.7 4990.1 4900.8 4999.6 4903.9 4990.1 4893.9 4990.1 4902 4984.3 4905 4974.7 4897 4968.9 4893.9 4978.4 4903.9 4978.4 4895.8 4972.5 4898.9 4963 4902 4953.5 4898.9 4944 4908.9 4944 4900.8 4949.8 4903.9 4959.4 4912 4965.2 4922 4965.2 4913.9 4959.4 4922 4965.2 4925 4955.7 4933.1 4961.6 4930 4952.1 4927 4961.6 4935 4955.7 4945 4955.7 4942 4946.2" clip-path="url(#a)" fill="none" stroke="#000" stroke-linecap="round"/>
<polyline points="4942 4946.2 4933.9 4952.1 4923.9 4952.1 4920.8 4961.6 4917.7 4971.1 4909.6 4965.2 4901.5 4959.4 4904.6 4968.9 4896.5 4974.7 4906.5 4974.7 4896.5 4974.7 4893.4 4965.2 4885.3 4959.4 4888.4 4968.9 4885.3 4978.4 4877.2 4972.5 4885.3 4966.6 4895.3 4966.6 4892.2 4976.1 4902.2 4976.1 4892.2 4976.1 4900.3 4970.3 4908.4 4976.1 4916.5 4970.3 4924.6 4976.1 4934.6 4976.1 4942.7 4982 4945.8 4972.5 4955.8 4972.5 4952.7 4963 4942.7 4963 4952.7 4963 4960.8 4968.9 4963.9 4978.4 4972 4984.3 4982 4984.3 4985 4993.8 4982 5003.3 4990 4997.4 4987 4987.9 4997 4987.9 4993.9 4978.4 4985.8 4972.5" clip-path="url(#a)" fill="none" stroke="#000" stroke-linecap="round"/>
<polyline points="4985.8 4972.5 4977.7 4978.4 4974.6 4968.9 4984.6 4968.9 4974.6 4968.9 4977.7 4978.4 4985.8 4972.5 4993.9 4966.6 4985.8 4960.7 4982.7 4951.2 4990.8 4957.1 4987.7 4947.6 4997.7 4947.6 4987.7 4947.6 4990.8 4938.1 4998.9 4944 5007 4949.8 5010 4959.4 5020 4959.4 5010 4959.4 5002 4965.2 4998.9 4974.7 4995.8 4984.3 4998.9 4993.8 5007 4987.9 5003.9 4978.4 4995.8 4972.5 5003.9 4978.4 5000.8 4987.9 5003.9 4978.4 5012 4972.5 5020 4966.6 5012 4960.7 5003.9 4954.9 5007 4945.4 4997 4945.4 5e3 4935.8 5003.1 4926.3 5006.2 4916.8 4998.1 4922.7 5008.1 4922.7 5018.1 4922.7 5008.1 4922.7" clip-path="url(#a)" fill="none" stroke="#000" stroke-linecap="round"/>
<polyline points="5008.1 4922.7 5005 4932.2 4995 4932.2 5003.1 4926.3 4995 4920.5 4998.1 4930 5006.2 4924.1 5003.1 4933.6 5006.2 4943.1 5016.2 4943.1 5013.1 4933.6 5005 4939.5 5015 4939.5 5018.1 4949 5021.2 4958.5 5029.3 4964.4 5021.2 4970.3 5024.3 4960.7 5016.2 4954.9 5006.2 4954.9 4998.1 4960.7 5008.1 4960.7 4998.1 4960.7 5001.2 4970.3 4991.2 4970.3 4999.3 4976.1 4996.2 4966.6 4993.1 4976.1 4985 4982 4993.1 4987.9 4996.2 4978.4 5004.3 4972.5 5001.2 4963 4998.1 4953.5 5008.1 4953.5 5018.1 4953.5 5010 4947.6 5013.1 4938.1 5005 4944 5013.1 4938.1 5021.2 4944 5031.2 4944 5023.1 4938.1" clip-path="url(#a)" fill="none" stroke="#000" stroke-linecap="round"/>
<polyline points="5023.1 4938.1 5020 4928.6 5030 4928.6 5027 4938.1 5018.9 4944 5015.8 4934.5 5007.7 4940.3 5015.8 4934.5 5012.7 4944 5002.7 4944 4999.6 4953.5 4989.6 4953.5 4981.5 4959.4 4971.5 4959.4 4974.6 4968.9 4966.5 4974.7 4974.6 4980.6 4982.7 4974.7 4974.6 4980.6 4964.6 4980.6 4956.5 4974.7 4946.5 4974.7 4938.4 4980.6 4930.3 4974.7 4927.2 4965.2 4924.1 4974.7 4932.2 4980.6 4924.1 4986.5 4932.2 4992.4 4942.2 4992.4 4945.3 4982.9 4953.4 4988.7 4945.3 4994.6 4953.4 4988.7 4945.3 4982.9 4942.2 4992.4 4939.1 5001.9 4949.1 5001.9 4957.2 5007.8 4947.2 5007.8 4955.3 5013.6 4947.2 5019.5 4955.3 5013.6" clip-path="url(#a)" fill="none" stroke="#000" stroke-linecap="round"/>
<polyline points="4955.3 5013.6 4958.4 5023.2 4948.4 5023.2 4938.4 5023.2 4930.3 5017.3 4922.2 5023.2 4930.3 5017.3 4933.4 5007.8 4930.3 4998.3 4927.2 4988.7 4919.1 4982.9 4916.1 4992.4 4924.1 4998.3 4934.1 4998.3 4924.1 4998.3 4921.1 4988.7 4924.1 4998.3 4921.1 5007.8 4918 5017.3 4928 5017.3 4938 5017.3 4941.1 5026.8 4949.1 5020.9 4952.2 5030.4 4955.3 5039.9 4958.4 5049.4 4961.5 5039.9 4953.4 5045.8 4945.3 5051.7 4953.4 5045.8 4950.3 5036.3 4958.4 5030.4 4955.3 5039.9 4965.3 5039.9 4957.2 5034.1 4954.1 5043.6 4951.1 5034.1 4943 5028.2 4934.9 5034.1 4943 5039.9 4946.1 5030.4 4938 5036.3 4929.9 5030.4" clip-path="url(#a)" fill="none" stroke="#000" stroke-linecap="round"/>
<polyline points="4929.9 5030.4 4921.8 5024.5 4911.8 5024.5 4914.9 5015 4918 5024.5 4928 5024.5 4936.1 5018.7 4939.1 5009.2 4931.1 5015 4939.1 5009.2 4931.1 5003.3 4939.1 4997.4 4929.1 4997.4 4937.2 5003.3 4934.1 4993.8 4937.2 4984.3 4927.2 4984.3 4930.3 4993.8 4927.2 5003.3 4935.3 5009.2 4943.4 5015 4935.3 5020.9 4927.2 5026.8 4937.2 5026.8 4940.3 5036.3 4943.4 5026.8 4940.3 5036.3 4930.3 5036.3 4922.2 5042.2 4932.2 5042.2 4940.3 5048.1 4932.2 5053.9 4929.1 5044.4 4932.2 5034.9 4940.3 5040.8 4943.4 5031.3 4940.3 5040.8 4937.2 5031.3 4945.3 5025.4 4942.2 5015.9 4950.3 5010 4953.4 5000.5 4961.5 4994.6" clip-path="url(#a)" fill="none" stroke="#000" stroke-linecap="round"/>
<polyline points="4961.5 4994.6 4953.4 4988.7 4956.5 4979.2 4946.5 4979.2 4943.4 4988.7 4946.5 4979.2 4954.6 4973.4 4964.6 4973.4 4972.7 4967.5 4975.8 4958 4985.8 4958 4993.9 4963.8 4990.8 4954.3 4980.8 4954.3 4983.9 4944.8 4973.9 4944.8 4965.8 4950.7 4968.9 4960.2 4958.9 4960.2 4962 4950.7 4958.9 4960.2 4968.9 4960.2 4965.8 4950.7 4962.7 4941.2 4954.6 4947.1 4944.6 4947.1 4952.7 4941.2 4942.7 4941.2 4945.8 4931.7 4942.7 4941.2 4934.6 4935.3 4942.7 4929.4 4950.8 4923.6 4960.8 4923.6 4963.9 4914 4960.8 4923.6 4963.9 4933.1 4972 4938.9 4980 4944.8 4990 4944.8 4987 4935.3 4977 4935.3 4968.9 4941.2" clip-path="url(#a)" fill="none" stroke="#000" stroke-linecap="round"/>
<polyline points="4968.9 4941.2 4977 4935.3 4985 4941.2 4977 4935.3 4973.9 4925.8 4970.8 4916.3 4962.7 4922.2 4954.6 4928 4946.5 4922.2 4943.4 4931.7 4935.3 4925.8 4927.2 4919.9 4919.1 4914 4922.2 4923.6 4925.3 4914 4928.4 4904.5 4925.3 4914 4933.4 4919.9 4930.3 4929.4 4927.2 4919.9 4919.1 4925.8 4929.1 4925.8 4926.1 4916.3 4934.1 4922.2 4944.1 4922.2 4947.2 4912.7 4937.2 4912.7 4940.3 4922.2 4943.4 4912.7 4953.4 4912.7 4963.4 4912.7 4971.5 4906.8 4974.6 4916.3 4966.5 4910.4 4958.4 4916.3 4955.3 4925.8 4958.4 4935.3 4961.5 4925.8 4958.4 4935.3 4968.4 4935.3 4965.3 4944.8 4973.4 4938.9 4963.4 4938.9" clip-path="url(#a)" fill="none" stroke="#000" stroke-linecap="round"/>
<polyline points="4963.4 4938.9 4971.5 4944.8 4974.6 4954.3 4982.7 4948.5 4974.6 4942.6 4971.5 4933.1 4961.5 4933.1 4951.5 4933.1 4954.6 4923.6 4957.7 4914 4949.6 4919.9 4941.5 4914 4944.6 4923.6 4941.5 4914 4949.6 4908.2 4952.7 4898.7 4944.6 4904.5 4934.6 4904.5 4937.7 4895 4945.8 4900.9 4948.9 4910.4 4938.9 4910.4 4942 4919.9 4938.9 4910.4 4947 4916.3 4943.9 4925.8 4952 4931.7 4948.9 4941.2 4952 4950.7 4948.9 4960.2 4958.9 4960.2 4962 4969.7 4970 4963.8 4967 4954.3 4970 4963.8 4967 4973.4 4958.9 4979.2 4955.8 4988.7 4958.9 4998.3 4950.8 5004.1 4940.8 5004.1 4948.9 5010 4957 5004.1" clip-path="url(#a)" fill="none" stroke="#000" stroke-linecap="round"/>
<polyline points="4957 5004.1 4960 5013.6 4968.1 5007.8 4971.2 4998.3 4963.1 4992.4 4971.2 4986.5 4974.3 4996 4971.2 4986.5 4963.1 4992.4 4971.2 4998.3 4979.3 5004.1 4982.4 4994.6 4990.5 4988.7 4987.4 4998.3 4995.5 4992.4 4998.6 5001.9 4995.5 4992.4 5005.5 4992.4 5002.4 5001.9 4999.3 5011.4 4991.2 5017.3 4994.3 5026.8 4991.2 5017.3 4983.1 5011.4 4973.1 5011.4 4963.1 5011.4 4955 5017.3 4963.1 5023.2 4971.2 5017.3 4974.3 5007.8 4971.2 5017.3 4961.2 5017.3 4971.2 5017.3 4979.3 5023.2 4987.4 5029 4990.5 5019.5 4993.6 5010 5003.6 5010 5000.5 5000.5 5010.5 5000.5 5020.5 5000.5 5030.5 5000.5 5022.4 4994.6" clip-path="url(#a)" fill="none" stroke="#000" stroke-linecap="round"/>
<polyline points="5022.4 4994.6 5025.5 5004.1 5028.6 5013.6 5025.5 5004.1 5015.5 5004.1 5012.4 4994.6 5020.5 5000.5 5023.6 4991 5015.5 4996.9 5023.6 5002.7 5013.6 5002.7 5005.5 5008.6 5008.6 5018.1 5016.7 5012.3 5008.6 5006.4 5011.7 5015.9 5003.6 5021.8 4995.5 5027.6 4992.4 5037.2 4984.3 5031.3 4994.3 5031.3 4997.4 5021.8 4994.3 5012.3 4986.2 5006.4 4989.3 5015.9 4986.2 5006.4 4978.1 5012.3 4975 5002.7 4972 5012.3 4980 5006.4 4970 5006.4 4962 5000.5 4958.9 5010 4968.9 5010 4977 5015.9 4985 5010 4993.1 5004.1 4996.2 5013.6 4999.3 5023.2 5002.4 5013.6 5012.4 5013.6 5004.3 5007.8 5012.4 5013.6" clip-path="url(#a)" fill="none" stroke="#000" stroke-linecap="round"/>
<polyline points="5012.4 5013.6 5009.3 5023.2 5012.4 5032.7 5015.5 5023.2 5023.6 5017.3 5026.7 5026.8 5016.7 5026.8 5008.6 5020.9 5016.7 5015 5008.6 5009.2 5016.7 5015 5006.7 5015 5003.6 5005.5 4993.6 5005.5 4990.5 4996 4982.4 4990.1 4979.3 4980.6 4971.2 4986.5 4963.1 4980.6 4960 4990.1 4968.1 4996 4960 4990.1 4957 4980.6 4960 4971.1 4957 4961.6 4948.9 4955.7 4952 4946.2 4960 4940.3 4950 4940.3 4947 4949.8 4938.9 4944 4935.8 4953.5 4938.9 4963 4948.9 4963 4945.8 4972.5 4937.7 4966.6 4945.8 4972.5 4948.9 4963 4938.9 4963 4928.9 4963 4932 4972.5 4928.9 4982 4925.8 4972.5" clip-path="url(#a)" fill="none" stroke="#000" stroke-linecap="round"/>
<polyline points="4925.8 4972.5 4922.7 4982 4914.6 4976.1 4922.7 4982 4914.6 4987.9 4911.5 4978.4 4908.4 4968.9 4911.5 4959.4 4903.4 4953.5 4911.5 4959.4 4921.5 4959.4 4929.6 4953.5 4937.7 4947.6 4940.8 4938.1 4930.8 4938.1 4927.7 4947.6 4930.8 4957.1 4927.7 4947.6 4935.8 4941.7 4927.7 4947.6 4917.7 4947.6 4907.7 4947.6 4910.8 4957.1 4913.9 4966.6 4905.8 4972.5 4913.9 4978.4 4905.8 4984.3 4897.7 4990.1 4889.6 4996 4899.6 4996 4891.5 4990.1 4883.4 4984.3 4891.5 4990.1 4899.6 4984.3 4907.7 4990.1 4897.7 4990.1 4900.8 4999.6 4903.9 4990.1 4893.9 4990.1 4902 4984.3 4905 4974.7 4897 4968.9 4893.9 4978.4" clip-path="url(#a)" fill="none" stroke="#000" stroke-linecap="round"/>
<polyline points="4893.9 4978.4 4903.9 4978.4 4895.8 4972.5 4898.9 4963 4902 4953.5 4898.9 4944 4908.9 4944 4900.8 4949.8 4903.9 4959.4 4912 4965.2 4922 4965.2 4913.9 4959.4 4922 4965.2 4925 4955.7 4933.1 4961.6 4930 4952.1 4927 4961.6 4935 4955.7 4945 4955.7 4942 4946.2 4933.9 4952.1 4923.9 4952.1 4920.8 4961.6 4917.7 4971.1 4909.6 4965.2 4901.5 4959.4 4904.6 4968.9 4896.5 4974.7 4906.5 4974.7 4896.5 4974.7 4893.4 4965.2 4885.3 4959.4 4888.4 4968.9 4885.3 4978.4 4877.2 4972.5 4885.3 4966.6 4895.3 4966.6 4892.2 4976.1 4902.2 4976.1 4892.2 4976.1 4900.3 4970.3 4908.4 4976.1 4916.5 4970.3" clip-path="url(#a)" fill="none" stroke="#000" stroke-linecap="round"/>
<polyline points="4916.5 4970.3 4924.6 4976.1 4934.6 4976.1 4942.7 4982 4945.8 4972.5 4955.8 4972.5 4952.7 4963 4942.7 4963 4952.7 4963 4960.8 4968.9 4963.9 4978.4 4972 4984.3 4982 4984.3 4985 4993.8 4982 5003.3 4990 4997.4 4987 4987.9 4997 4987.9 4993.9 4978.4 4985.8 4972.5 4977.7 4978.4 4974.6 4968.9 4984.6 4968.9 4974.6 4968.9 4977.7 4978.4 4985.8 4972.5 4993.9 4966.6 4985.8 4960.7 4982.7 4951.2 4990.8 4957.1 4987.7 4947.6 4997.7 4947.6 4987.7 4947.6 4990.8 4938.1 4998.9 4944 5007 4949.8 5010 4959.4 5020 4959.4 5010 4959.4 5002 4965.2 4998.9 4974.7 4995.8 4984.3 4998.9 4993.8" clip-path="url(#a)" fill="none" stroke="#000" stroke-linecap="round"/>
<polyline points="4998.9 4993.8 5007 4987.9 5003.9 4978.4 4995.8 4972.5 5003.9 4978.4 5000.8 4987.9 5003.9 4978.4 5012 4972.5 5020 4966.6 5012 4960.7 5003.9 4954.9 5007 4945.4 4997 4945.4 5e3 4935.8 5003.1 4926.3 5006.2 4916.8 4998.1 4922.7 5008.1 4922.7 5018.1 4922.7 5008.1 4922.7 5005 4932.2 4995 4932.2 5003.1 4926.3 4995 4920.5 4998.1 4930 5006.2 4924.1 5003.1 4933.6 5006.2 4943.1 5016.2 4943.1 5013.1 4933.6 5005 4939.5 5015 4939.5 5018.1 4949 5021.2 4958.5 5029.3 4964.4 5021.2 4970.3 5024.3 4960.7 5016.2 4954.9 5006.2 4954.9 4998.1 4960.7 5008.1 4960.7 4998.1 4960.7 5001.2 4970.3" clip-path="url(#a)" fill="none" stroke="#000" stroke-linecap="round"/>
<polyline points="5001.2 4970.3 4991.2 4970.3 4999.3 4976.1 4996.2 4966.6 4993.1 4976.1 4985 4982 4993.1 4987.9 4996.2 4978.4 5004.3 4972.5 5001.2 4963 4998.1 4953.5 5008.1 4953.5 5018.1 4953.5 5010 4947.6 5013.1 4938.1 5005 4944 5013.1 4938.1 5021.2 4944 5031.2 4944 5023.1 4938.1 5020 4928.6 5030 4928.6 5027 4938.1 5018.9 4944 5015.8 4934.5 5007.7 4940.3 5015.8 4934.5 5012.7 4944 5002.7 4944 4999.6 4953.5 4989.6 4953.5 4981.5 4959.4 4971.5 4959.4 4974.6 4968.9 4966.5 4974.7 4974.6 4980.6 4982.7 4974.7 4974.6 4980.6 4964.6 4980.6 4956.5 4974.7 4946.5 4974.7 4938.4 4980.6 4930.3 4974.7" clip-path="url(#a)" fill="none" stroke="#000" stroke-linecap="round"/>
<polyline points="4930.3 4974.7 4927.2 4965.2 4924.1 4974.7 4932.2 4980.6 4924.1 4986.5 4932.2 4992.4 4942.2 4992.4 4945.3 4982.9 4953.4 4988.7 4945.3 4994.6 4953.4 4988.7 4945.3 4982.9 4942.2 4992.4 4939.1 5001.9 4949.1 5001.9 4957.2 5007.8 4947.2 5007.8 4955.3 5013.6 4947.2 5019.5 4955.3 5013.6 4958.4 5023.2 4948.4 5023.2 4938.4 5023.2 4930.3 5017.3 4922.2 5023.2 4930.3 5017.3 4933.4 5007.8 4930.3 4998.3 4927.2 4988.7 4919.1 4982.9 4916.1 4992.4 4924.1 4998.3 4934.1 4998.3 4924.1 4998.3 4921.1 4988.7 4924.1 4998.3 4921.1 5007.8 4918 5017.3 4928 5017.3 4938 5017.3 4941.1 5026.8 4949.1 5020.9 4952.2 5030.4" clip-path="url(#a)" fill="none" stroke="#000" stroke-linecap="round"/>
<polyline points="4952.2 5030.4 4955.3 5039.9 4958.4 5049.4 4961.5 5039.9 4953.4 5045.8 4945.3 5051.7 4953.4 5045.8 4950.3 5036.3 4958.4 5030.4 4955.3 5039.9 4965.3 5039.9 4957.2 5034.1 4954.1 5043.6 4951.1 5034.1 4943 5028.2 4934.9 5034.1 4943 5039.9 4946.1 5030.4 4938 5036.3 4929.9 5030.4 4921.8 5024.5 4911.8 5024.5 4914.9 5015 4918 5024.5 4928 5024.5 4936.1 5018.7 4939.1 5009.2 4931.1 5015 4939.1 5009.2 4931.1 5003.3 4939.1 4997.4 4929.1 4997.4 4937.2 5003.3 4934.1 4993.8 4937.2 4984.3 4927.2 4984.3 4930.3 4993.8 4927.2 5003.3 4935.3 5009.2 4943.4 5015 4935.3 5020.9 4927.2 5026.8 4937.2 5026.8" clip-path="url(#a)" fill="none" stroke="#000" stroke-linecap="round"/>
<polyline points="4937.2 5026.8 4940.3 5036.3 4943.4 5026.8 4940.3 5036.3 4930.3 5036.3 4922.2 5042.2 4932.2 5042.2 4940.3 5048.1 4932.2 5053.9 4929.1 5044.4 4932.2 5034.9 4940.3 5040.8 4943.4 5031.3 4940.3 5040.8 4937.2 5031.3 4945.3 5025.4 4942.2 5015.9 4950.3 5010 4953.4 5000.5 4961.5 4994.6 4953.4 4988.7 4956.5 4979.2 4946.5 4979.2 4943.4 4988.7 4946.5 4979.2 4954.6 4973.4 4964.6 4973.4 4972.7 4967.5 4975.8 4958 4985.8 4958 4993.9 4963.8 4990.8 4954.3 4980.8 4954.3 4983.9 4944.8 4973.9 4944.8 4965.8 4950.7 4968.9 4960.2 4958.9 4960.2 4962 4950.7 4958.9 4960.2 4968.9 4960.2 4965.8 4950.7 4962.7 4941.2" clip-path="url(#a)" fill="none" stroke="#000" stroke-linecap="round"/>
<polyline points="4962.7 4941.2 4954.6 4947.1 4944.6 4947.1 4952.7 4941.2 4942.7 4941.2 4945.8 4931.7 4942.7 4941.2 4934.6 4935.3 4942.7 4929.4 4950.8 4923.6 4960.8 4923.6 4963.9 4914 4960.8 4923.6 4963.9 4933.1 4972 4938.9 4980 4944.8 4990 4944.8 4987 4935.3 4977 4935.3 4968.9 4941.2 4977 4935.3 4985 4941.2 4977 4935.3 4973.9 4925.8 4970.8 4916.3 4962.7 4922.2 4954.6 4928 4946.5 4922.2 4943.4 4931.7 4935.3 4925.8 4927.2 4919.9 4919.1 4914 4922.2 4923.6 4925.3 4914 4928.4 4904.5 4925.3 4914 4933.4 4919.9 4930.3 4929.4 4927.2 4919.9 4919.1 4925.8 4929.1 4925.8 4926.1 4916.3 4934.1 4922.2" clip-path="url(#a)" fill="none" stroke="#000" stroke-linecap="round"/>
<polyline points="4934.1 4922.2 4944.1 4922.2 4947.2 4912.7 4937.2 4912.7 4940.3 4922.2 4943.4 4912.7 4953.4 4912.7 4963.4 4912.7 4971.5 4906.8 4974.6 4916.3 4966.5 4910.4 4958.4 4916.3 4955.3 4925.8 4958.4 4935.3 4961.5 4925.8 4958.4 4935.3 4968.4 4935.3 4965.3 4944.8 4973.4 4938.9 4963.4 4938.9 4971.5 4944.8 4974.6 4954.3 4982.7 4948.5 4974.6 4942.6 4971.5 4933.1 4961.5 4933.1 4951.5 4933.1 4954.6 4923.6 4957.7 4914 4949.6 4919.9 4941.5 4914 4944.6 4923.6 4941.5 4914 4949.6 4908.2 4952.7 4898.7 4944.6 4904.5 4934.6 4904.5 4937.7 4895 4945.8 4900.9 4948.9 4910.4 4938.9 4910.4 4942 4919.9 4938.9 4910.4" clip-path="url(#a)" fill="none" stroke="#000" stroke-linecap="round"/>
<polyline points="4938.9 4910.4 4947 4916.3 4943.9 4925.8 4952 4931.7 4948.9 4941.2 4952 4950.7 4948.9 4960.2 4958.9 4960.2 4962 4969.7 4970 4963.8 4967 4954.3 4970 4963.8 4967 4973.4 4958.9 4979.2 4955.8 4988.7 4958.9 4998.3 4950.8 5004.1 4940.8 5004.1 4948.9 5010 4957 5004.1 4960 5013.6 4968.1 5007.8 4971.2 4998.3 4963.1 4992.4 4971.2 4986.5 4974.3 4996 4971.2 4986.5 4963.1 4992.4 4971.2 4998.3 4979.3 5004.1 4982.4 4994.6 4990.5 4988.7 4987.4 4998.3 4995.5 4992.4 4998.6 5001.9 4995.5 4992.4 5005.5 4992.4 5002.4 5001.9 4999.3 5011.4 4991.2 5017.3 4994.3 5026.8 4991.2 5017.3 4983.1 5011.4" clip-path="url(#a)" fill="none" stroke="#000" stroke-linecap="round"/>
<polyline points="4983.1 5011.4 4973.1 5011.4 4963.1 5011.4 4955 5017.3 4963.1 5023.2 4971.2 5017.3 4974.3 5007.8 4971.2 5017.3 4961.2 5017.3 4971.2 5017.3 4979.3 5023.2 4987.4 5029 4990.5 5019.5 4993.6 5010 5003.6 5010 5000.5 5000.5 5010.5 5000.5 5020.5 5000.5 5030.5 5000.5 5022.4 4994.6 5025.5 5004.1 5028.6 5013.6 5025.5 5004.1 5015.5 5004.1 5012.4 4994.6 5020.5 5000.5 5023.6 4991 5015.5 4996.9 5023.6 5002.7 5013.6 5002.7 5005.5 5008.6 5008.6 5018.1 5016.7 5012.3 5008.6 5006.4 5011.7 5015.9 5003.6 5021.8 4995.5 5027.6 4992.4 5037.2 4984.3 5031.3 4994.3 5031.3 4997.4 5021.8 4994.3 5012.3 4986.2 5006.4" clip-path="url(#a)" fill="none" stroke="#000" stroke-linecap="round"/>
<polyline points="4986.2 5006.4 4989.3 5015.9 4986.2 5006.4 4978.1 5012.3 4975 5002.7 4972 5012.3 4980 5006.4 4970 5006.4 4962 5000.5 4958.9 5010 4968.9 5010 4977 5015.9 4985 5010 4993.1 5004.1 4996.2 5013.6 4999.3 5023.2 5002.4 5013.6 5012.4 5013.6 5004.3 5007.8 5012.4 5013.6 5009.3 5023.2 5012.4 5032.7 5015.5 5023.2 5023.6 5017.3 5026.7 5026.8 5016.7 5026.8 5008.6 5020.9 5016.7 5015 5008.6 5009.2 5016.7 5015 5006.7 5015 5003.6 5005.5 4993.6 5005.5 4990.5 4996 4982.4 4990.1 4979.3 4980.6 4971.2 4986.5 4963.1 4980.6 4960 4990.1 4968.1 4996 4960 4990.1 4957 4980.6 4960 4971.1" clip-path="url(#a)" fill="none" stroke="#000" stroke-linecap="round"/>
<polyline points="4960 4971.1 4957 4961.6 4948.9 4955.7 4952 4946.2 4960 4940.3 4950 4940.3 4947 4949.8 4938.9 4944 4935.8 4953.5 4938.9 4963 4948.9 4963 4945.8 4972.5 4937.7 4966.6 4945.8 4972.5 4948.9 4963 4938.9 4963 4928.9 4963 4932 4972.5 4928.9 4982 4925.8 4972.5 4922.7 4982 4914.6 4976.1 4922.7 4982 4914.6 4987.9 4911.5 4978.4 4908.4 4968.9 4911.5 4959.4 4903.4 4953.5 4911.5 4959.4 4921.5 4959.4 4929.6 4953.5 4937.7 4947.6 4940.8 4938.1 4930.8 4938.1 4927.7 4947.6 4930.8 4957.1 4927.7 4947.6 4935.8 4941.7 4927.7 4947.6 4917.7 4947.6 4907.7 4947.6 4910.8 4957.1 4913.9 4966.6" clip-path="url(#a)" fill="none" stroke="#000" stroke-linecap="round"/>
<polyline points="4913.9 4966.6 4905.8 4972.5 4913.9 4978.4 4905.8 4984.3 4897.7 4990.1 4889.6 4996 4899.6 4996 4891.5 4990.1 4883.4 4984.3 4891.5 4990.1 4899.6 4984.3 4907.7 4990.1 4897.7 4990.1 4900.8 4999.6 4903.9 4990.1 4893.9 4990.1 4902 4984.3 4905 4974.7 4897 4968.9 4893.9 4978.4 4903.9 4978.4 4895.8 4972.5 4898.9 4963 4902 4953.5 4898.9 4944 4908.9 4944 4900.8 4949.8 4903.9 4959.4 4912 4965.2 4922 4965.2 4913.9 4959.4 4922 4965.2 4925 4955.7 4933.1 4961.6 4930 4952.1 4927 4961.6 4935 4955.7 4945 4955.7 4942 4946.2 4933.9 4952.1 4923.9 4952.1 4920.8 4961.6 4917.7 4971.1" clip-path="url(#a)" fill="none" stroke="#000" stroke-linecap="round"/>
<polyline points="4917.7 4971.1 4909.6 4965.2 4901.5 4959.4 4904.6 4968.9 4896.5 4974.7 4906.5 4974.7 4896.5 4974.7 4893.4 4965.2 4885.3 4959.4 4888.4 4968.9 4885.3 4978.4 4877.2 4972.5 4885.3 4966.6 4895.3 4966.6 4892.2 4976.1 4902.2 4976.1 4892.2 4976.1 4900.3 4970.3 4908.4 4976.1 4916.5 4970.3 4924.6 4976.1 4934.6 4976.1 4942.7 4982 4945.8 4972.5 4955.8 4972.5 4952.7 4963 4942.7 4963 4952.7 4963 4960.8 4968.9 4963.9 4978.4 4972 4984.3 4982 4984.3 4985 4993.8 4982 5003.3 4990 4997.4 4987 4987.9 4997 4987.9 4993.9 4978.4 4985.8 4972.5 4977.7 4978.4 4974.6 4968.9 4984.6 4968.9 4974.6 4968.9" clip-path="url(#a)" fill="none" stroke="#000" stroke-linecap="round"/>
<polyline points="4974.6 4968.9 4977.7 4978.4 4985.8 4972.5 4993.9 4966.6 4985.8 4960.7 4982.7 4951.2 4990.8 4957.1 4987.7 4947.6 4997.7 4947.6 4987.7 4947.6 4990.8 4938.1 4998.9 4944 5007 4949.8 5010 4959.4 5020 4959.4 5010 4959.4 5002 4965.2 4998.9 4974.7 4995.8 4984.3 4998.9 4993.8 5007 4987.9 5003.9 4978.4 4995.8 4972.5 5003.9 4978.4 5000.8 4987.9 5003.9 4978.4 5012 4972.5 5020 4966.6 5012 4960.7 5003.9 4954.9 5007 4945.4 4997 4945.4 5e3 4935.8 5003.1 4926.3 5006.2 4916.8 4998.1 4922.7 5008.1 4922.7 5018.1 4922.7 5008.1 4922.7 5005 4932.2 4995 4932.2 5003.1 4926.3 4995 4920.5" clip-path="url(#a)" fill="none" stroke="#000" stroke-linecap="round"/>
<polyline points="4995 4920.5 4998.1 4930 5006.2 4924.1 5003.1 4933.6 5006.2 4943.1 5016.2 4943.1 5013.1 4933.6 5005 4939.5 5015 4939.5 5018.1 4949 5021.2 4958.5 5029.3 4964.4 5021.2 4970.3 5024.3 4960.7 5016.2 4954.9 5006.2 4954.9 4998.1 4960.7 5008.1 4960.7 4998.1 4960.7 5001.2 4970.3 4991.2 4970.3 4999.3 4976.1 4996.2 4966.6 4993.1 4976.1 4985 4982 4993.1 4987.9 4996.2 4978.4 5004.3 4972.5 5001.2 4963 4998.1 4953.5 5008.1 4953.5 5018.1 4953.5 5010 4947.6 5013.1 4938.1 5005 4944 5013.1 4938.1 5021.2 4944 5031.2 4944 5023.1 4938.1 5020 4928.6 5030 4928.6 5027 4938.1 5018.9 4944" clip-path="url(#a)" fill="none" stroke="#000" stroke-linecap="round"/>
<polyline points="5018.9 4944 5015.8 4934.5 5007.7 4940.3 5015.8 4934.5 5012.7 4944 5002.7 4944 4999.6 4953.5 4989.6 4953.5 4981.5 4959.4 4971.5 4959.4 4974.6 4968.9 4966.5 4974.7 4974.6 4980.6 4982.7 4974.7 4974.6 4980.6 4964.6 4980.6 4956.5 4974.7 4946.5 4974.7 4938.4 4980.6 4930.3 4974.7 4927.2 4965.2 4924.1 4974.7 4932.2 4980.6 4924.1 4986.5 4932.2 4992.4 4942.2 4992.4 4945.3 4982.9 4953.4 4988.7 4945.3 4994.6 4953.4 4988.7 4945.3 4982.9 4942.2 4992.4 4939.1 5001.9 4949.1 5001.9 4957.2 5007.8 4947.2 5007.8 4955.3 5013.6 4947.2 5019.5 4955.3 5013.6 4958.4 5023.2 4948.4 5023.2 4938.4 5023.2 4930.3 5017.3" clip-path="url(#a)" fill="none" stroke="#000" stroke-linecap="round"/>
<polyline points="4930.3 5017.3 4922.2 5023.2 4930.3 5017.3 4933.4 5007.8 4930.3 4998.3 4927.2 4988.7 4919.1 4982.9 4916.1 4992.4 4924.1 4998.3 4934.1 4998.3 4924.1 4998.3 4921.1 4988.7 4924.1 4998.3 4921.1 5007.8 4918 5017.3 4928 5017.3 4938 5017.3 4941.1 5026.8 4949.1 5020.9 4952.2 5030.4 4955.3 5039.9 4958.4 5049.4 4961.5 5039.9 4953.4 5045.8 4945.3 5051.7 4953.4 5045.8 4950.3 5036.3 4958.4 5030.4 4955.3 5039.9 4965.3 5039.9 4957.2 5034.1 4954.1 5043.6 4951.1 5034.1 4943 5028.2 4934.9 5034.1 4943 5039.9 4946.1 5030.4 4938 5036.3 4929.9 5030.4 4921.8 5024.5 4911.8 5024.5 4914.9 5015 4918 5024.5" clip-path="url(#a)" fill="none" stroke="#000" stroke-linecap="round"/>
<polyline points="4918 5024.5 4928 5024.5 4936.1 5018.7 4939.1 5009.2 4931.1 5015 4939.1 5009.2 4931.1 5003.3 4939.1 4997.4 4929.1 4997.4 4937.2 5003.3 4934.1 4993.8 4937.2 4984.3 4927.2 4984.3 4930.3 4993.8 4927.2 5003.3 4935.3 5009.2 4943.4 5015 4935.3 5020.9 4927.2 5026.8 4937.2 5026.8 4940.3 5036.3 4943.4 5026.8 4940.3 5036.3 4930.3 5036.3 4922.2 5042.2 4932.2 5042.2 4940.3 5048.1 4932.2 5053.9 4929.1 5044.4 4932.2 5034.9 4940.3 5040.8 4943.4 5031.3 4940.3 5040.8 4937.2 5031.3 4945.3 5025.4 4942.2 5015.9 4950.3 5010 4953.4 5000.5 4961.5 4994.6 4953.4 4988.7 4956.5 4979.2 4946.5 4979.2 4943.4 4988.7" clip-path="url(#a)" fill="none" stroke="#000" stroke-linecap="round"/>
<polyline points="4943.4 4988.7 4946.5 4979.2 4954.6 4973.4 4964.6 4973.4 4972.7 4967.5 4975.8 4958 4985.8 4958 4993.9 4963.8 4990.8 4954.3 4980.8 4954.3 4983.9 4944.8 4973.9 4944.8 4965.8 4950.7 4968.9 4960.2 4958.9 4960.2 4962 4950.7 4958.9 4960.2 4968.9 4960.2 4965.8 4950.7 4962.7 4941.2 4954.6 4947.1 4944.6 4947.1 4952.7 4941.2 4942.7 4941.2 4945.8 4931.7 4942.7 4941.2 4934.6 4935.3 4942.7 4929.4 4950.8 4923.6 4960.8 4923.6 4963.9 4914 4960.8 4923.6 4963.9 4933.1 4972 4938.9 4980 4944.8 4990 4944.8 4987 4935.3 4977 4935.3 4968.9 4941.2 4977 4935.3 4985 4941.2 4977 4935.3 4973.9 4925.8" clip-path="url(#a)" fill="none" stroke="#000" stroke-linecap="round"/>
<polyline points="4973.9 4925.8 4970.8 4916.3 4962.7 4922.2 4954.6 4928 4946.5 4922.2 4943.4 4931.7 4935.3 4925.8 4927.2 4919.9 4919.1 4914 4922.2 4923.6 4925.3 4914 4928.4 4904.5 4925.3 4914 4933.4 4919.9 4930.3 4929.4 4927.2 4919.9 4919.1 4925.8 4929.1 4925.8 4926.1 4916.3 4934.1 4922.2 4944.1 4922.2 4947.2 4912.7 4937.2 4912.7 4940.3 4922.2 4943.4 4912.7 4953.4 4912.7 4963.4 4912.7 4971.5 4906.8 4974.6 4916.3 4966.5 4910.4 4958.4 4916.3 4955.3 4925.8 4958.4 4935.3 4961.5 4925.8 4958.4 4935.3 4968.4 4935.3 4965.3 4944.8 4973.4 4938.9 4963.4 4938.9 4971.5 4944.8 4974.6 4954.3 4982.7 4948.5 4974.6 4942.6" clip-path="url(#a)" fill="none" stroke="#000" stroke-linecap="round"/>
<polyline points="4974.6 4942.6 4971.5 4933.1 4961.5 4933.1 4951.5 4933.1 4954.6 4923.6 4957.7 4914 4949.6 4919.9 4941.5 4914 4944.6 4923.6 4941.5 4914 4949.6 4908.2 4952.7 4898.7 4944.6 4904.5 4934.6 4904.5 4937.7 4895 4945.8 4900.9 4948.9 4910.4 4938.9 4910.4 4942 4919.9 4938.9 4910.4 4947 4916.3 4943.9 4925.8 4952 4931.7 4948.9 4941.2 4952 4950.7 4948.9 4960.2 4958.9 4960.2 4962 4969.7 4970 4963.8 4967 4954.3 4970 4963.8 4967 4973.4 4958.9 4979.2 4955.8 4988.7 4958.9 4998.3 4950.8 5004.1 4940.8 5004.1 4948.9 5010 4957 5004.1 4960 5013.6 4968.1 5007.8 4971.2 4998.3 4963.1 4992.4" clip-path="url(#a)" fill="none" stroke="#000" stroke-linecap="round"/>
<polyline points="4963.1 4992.4 4971.2 4986.5 4974.3 4996 4971.2 4986.5 4963.1 4992.4 4971.2 4998.3 4979.3 5004.1 4982.4 4994.6 4990.5 4988.7 4987.4 4998.3 4995.5 4992.4 4998.6 5001.9 4995.5 4992.4 5005.5 4992.4 5002.4 5001.9 4999.3 5011.4 4991.2 5017.3 4994.3 5026.8 4991.2 5017.3 4983.1 5011.4 4973.1 5011.4 4963.1 5011.4 4955 5017.3 4963.1 5023.2 4971.2 5017.3 4974.3 5007.8 4971.2 5017.3 4961.2 5017.3 4971.2 5017.3 4979.3 5023.2 4987.4 5029 4990.5 5019.5 4993.6 5010 5003.6 5010 5000.5 5000.5 5010.5 5000.5 5020.5 5000.5 5030.5 5000.5 5022.4 4994.6 5025.5 5004.1 5028.6 5013.6 5025.5 5004.1 5015.5 5004.1" clip-path="url(#a)" fill="none" stroke="#000" stroke-linecap="round"/>
<polyline points="5015.5 5004.1 5012.4 4994.6 5020.5 5000.5 5023.6 4991 5015.5 4996.9 5023.6 5002.7 5013.6 5002.7 5005.5 5008.6 5008.6 5018.1 5016.7 5012.3 5008.6 5006.4 5011.7 5015.9 5003.6 5021.8 4995.5 5027.6 4992.4 5037.2 4984.3 5031.3 4994.3 5031.3 4997.4 5021.8 4994.3 5012.3 4986.2 5006.4 4989.3 5015.9 4986.2 5006.4 4978.1 5012.3 4975 5002.7 4972 5012.3 4980 5006.4 4970 5006.4 4962 5000.5 4958.9 5010 4968.9 5010 4977 5015.9 4985 5010 4993.1 5004.1 4996.2 5013.6 4999.3 5023.2 5002.4 5013.6 5012.4 5013.6 5004.3 5007.8 5012.4 5013.6 5009.3 5023.2 5012.4 5032.7 5015.5 5023.2 5023.6 5017.3" clip-path="url(#a)" fill="none" stroke="#000" stroke-linecap="round"/>
<polyline points="5023.6 5017.3 5026.7 5026.8 5016.7 5026.8 5008.6 5020.9 5016.7 5015 5008.6 5009.2 5016.7 5015 5006.7 5015 5003.6 5005.5 4993.6 5005.5 4990.5 4996 4982.4 4990.1 4979.3 4980.6 4971.2 4986.5 4963.1 4980.6 4960 4990.1 4968.1 4996 4960 4990.1 4957 4980.6 4960 4971.1 4957 4961.6 4948.9 4955.7 4952 4946.2 4960 4940.3 4950 4940.3 4947 4949.8 4938.9 4944 4935.8 4953.5 4938.9 4963 4948.9 4963 4945.8 4972.5 4937.7 4966.6 4945.8 4972.5 4948.9 4963 4938.9 4963 4928.9 4963 4932 4972.5 4928.9 4982 4925.8 4972.5 4922.7 4982 4914.6 4976.1 4922.7 4982 4914.6 4987.9" clip-path="url(#a)" fill="none" stroke="#000" stroke-linecap="round"/>
<polyline points="4914.6 4987.9 4911.5 4978.4 4908.4 4968.9 4911.5 4959.4 4903.4 4953.5 4911.5 4959.4 4921.5 4959.4 4929.6 4953.5 4937.7 4947.6 4940.8 4938.1 4930.8 4938.1 4927.7 4947.6 4930.8 4957.1 4927.7 4947.6 4935.8 4941.7 4927.7 4947.6 4917.7 4947.6 4907.7 4947.6 4910.8 4957.1 4913.9 4966.6 4905.8 4972.5 4913.9 4978.4 4905.8 4984.3 4897.7 4990.1 4889.6 4996 4899.6 4996 4891.5 4990.1 4883.4 4984.3 4891.5 4990.1 4899.6 4984.3 4907.7 4990.1 4897.7 4990.1 4900.8 4999.6 4903.9 4990.1 4893.9 4990.1 4902 4984.3 4905 4974.7 4897 4968.9 4893.9 4978.4 4903.9 4978.4 4895.8 4972.5 4898.9 4963 4902 4953.5" clip-path="url(#a)" fill="none" stroke="#000" stroke-linecap="round"/>
<polyline points="4902 4953.5 4898.9 4944 4908.9 4944 4900.8 4949.8 4903.9 4959.4 4912 4965.2 4922 4965.2 4913.9 4959.4 4922 4965.2 4925 4955.7 4933.1 4961.6 4930 4952.1 4927 4961.6 4935 4955.7 4945 4955.7 4942 4946.2 4933.9 4952.1 4923.9 4952.1 4920.8 4961.6 4917.7 4971.1 4909.6 4965.2 4901.5 4959.4 4904.6 4968.9 4896.5 4974.7 4906.5 4974.7 4896.5 4974.7 4893.4 4965.2 4885.3 4959.4 4888.4 4968.9 4885.3 4978.4 4877.2 4972.5 4885.3 4966.6 4895.3 4966.6 4892.2 4976.1 4902.2 4976.1 4892.2 4976.1 4900.3 4970.3 4908.4 4976.1 4916.5 4970.3 4924.6 4976.1 4934.6 4976.1 4942.7 4982 4945.8 4972.5" clip-path="url(#a)" fill="none" stroke="#000" stroke-linecap="round"/>
<polyline points="4945.8 4972.5 4955.8 4972.5 4952.7 4963 4942.7 4963 4952.7 4963 4960.8 4968.9 4963.9 4978.4 4972 4984.3 4982 4984.3 4985 4993.8 4982 5003.3 4990 4997.4 4987 4987.9 4997 4987.9 4993.9 4978.4 4985.8 4972.5 4977.7 4978.4 4974.6 4968.9 4984.6 4968.9 4974.6 4968.9 4977.7 4978.4 4985.8 4972.5 4993.9 4966.6 4985.8 4960.7 4982.7 4951.2 4990.8 4957.1 4987.7 4947.6 4997.7 4947.6 4987.7 4947.6 4990.8 4938.1 4998.9 4944 5007 4949.8 5010 4959.4 5020 4959.4 5010 4959.4 5002 4965.2 4998.9 4974.7 4995.8 4984.3 4998.9 4993.8 5007 4987.9 5003.9 4978.4 4995.8 4972.5 5003.9 4978.4" clip-path="url(#a)" fill="none" stroke="#000" stroke-linecap="round"/>
<polyline points="5003.9 4978.4 5000.8 4987.9 5003.9 4978.4 5012 4972.5 5020 4966.6 5012 4960.7 5003.9 4954.9 5007 4945.4 4997 4945.4 5e3 4935.8 5003.1 4926.3 5006.2 4916.8 4998.1 4922.7 5008.1 4922.7 5018.1 4922.7 5008.1 4922.7 5005 4932.2 4995 4932.2 5003.1 4926.3 4995 4920.5 4998.1 4930 5006.2 4924.1 5003.1 4933.6 5006.2 4943.1 5016.2 4943.1 5013.1 4933.6 5005 4939.5 5015 4939.5 5018.1 4949 5021.2 4958.5 5029.3 4964.4 5021.2 4970.3 5024.3 4960.7 5016.2 4954.9 5006.2 4954.9 4998.1 4960.7 5008.1 4960.7 4998.1 4960.7 5001.2 4970.3 4991.2 4970.3 4999.3 4976.1 4996.2 4966.6 4993.1 4976.1" clip-path="url(#a)" fill="none" stroke="#000" stroke-linecap="round"/>
<polyline points="4993.1 4976.1 4985 4982 4993.1 4987.9 4996.2 4978.4 5004.3 4972.5 5001.2 4963 4998.1 4953.5 5008.1 4953.5 5018.1 4953.5 5010 4947.6 5013.1 4938.1 5005 4944 5013.1 4938.1 5021.2 4944 5031.2 4944 5023.1 4938.1 5020 4928.6 5030 4928.6 5027 4938.1 5018.9 4944 5015.8 4934.5 5007.7 4940.3 5015.8 4934.5 5012.7 4944 5002.7 4944 4999.6 4953.5 4989.6 4953.5 4981.5 4959.4 4971.5 4959.4 4974.6 4968.9 4966.5 4974.7 4974.6 4980.6 4982.7 4974.7 4974.6 4980.6 4964.6 4980.6 4956.5 4974.7 4946.5 4974.7 4938.4 4980.6 4930.3 4974.7 4927.2 4965.2 4924.1 4974.7 4932.2 4980.6 4924.1 4986.5" clip-path="url(#a)" fill="none" stroke="#000" stroke-linecap="round"/>
<polyline points="4924.1 4986.5 4932.2 4992.4 4942.2 4992.4 4945.3 4982.9 4953.4 4988.7 4945.3 4994.6 4953.4 4988.7 4945.3 4982.9 4942.2 4992.4 4939.1 5001.9 4949.1 5001.9 4957.2 5007.8 4947.2 5007.8 4955.3 5013.6 4947.2 5019.5 4955.3 5013.6 4958.4 5023.2 4948.4 5023.2 4938.4 5023.2 4930.3 5017.3 4922.2 5023.2 4930.3 5017.3 4933.4 5007.8 4930.3 4998.3 4927.2 4988.7 4919.1 4982.9 4916.1 4992.4 4924.1 4998.3 4934.1 4998.3 4924.1 4998.3 4921.1 4988.7 4924.1 4998.3 4921.1 5007.8 4918 5017.3 4928 5017.3 4938 5017.3 4941.1 5026.8 4949.1 5020.9 4952.2 5030.4 4955.3 5039.9 4958.4 5049.4 4961.5 5039.9 4953.4 5045.8" clip-path="url(#a)" fill="none" stroke="#000" stroke-linecap="round"/>
<polyline points="4953.4 5045.8 4945.3 5051.7 4953.4 5045.8 4950.3 5036.3 4958.4 5030.4 4955.3 5039.9 4965.3 5039.9 4957.2 5034.1 4954.1 5043.6 4951.1 5034.1 4943 5028.2 4934.9 5034.1 4943 5039.9 4946.1 5030.4 4938 5036.3 4929.9 5030.4 4921.8 5024.5 4911.8 5024.5 4914.9 5015 4918 5024.5 4928 5024.5 4936.1 5018.7 4939.1 5009.2 4931.1 5015 4939.1 5009.2 4931.1 5003.3 4939.1 4997.4 4929.1 4997.4 4937.2 5003.3 4934.1 4993.8 4937.2 4984.3 4927.2 4984.3 4930.3 4993.8 4927.2 5003.3 4935.3 5009.2 4943.4 5015 4935.3 5020.9 4927.2 5026.8 4937.2 5026.8 4940.3 5036.3 4943.4 5026.8 4940.3 5036.3 4930.3 5036.3" clip-path="url(#a)" fill="none" stroke="#000" stroke-linecap="round"/>
<polyline points="4930.3 5036.3 4922.2 5042.2 4932.2 5042.2 4940.3 5048.1 4932.2 5053.9 4929.1 5044.4 4932.2 5034.9 4940.3 5040.8 4943.4 5031.3 4940.3 5040.8 4937.2 5031.3 4945.3 5025.4 4942.2 5015.9 4950.3 5010 4953.4 5000.5 4961.5 4994.6 4953.4 4988.7 4956.5 4979.2 4946.5 4979.2 4943.4 4988.7 4946.5 4979.2 4954.6 4973.4 4964.6 4973.4 4972.7 4967.5 4975.8 4958 4985.8 4958 4993.9 4963.8 4990.8 4954.3 4980.8 4954.3 4983.9 4944.8 4973.9 4944.8 4965.8 4950.7 4968.9 4960.2 4958.9 4960.2 4962 4950.7 4958.9 4960.2 4968.9 4960.2 4965.8 4950.7 4962.7 4941.2 4954.6 4947.1 4944.6 4947.1 4952.7 4941.2 4942.7 4941.2" clip-path="url(#a)" fill="none" stroke="#000" stroke-linecap="round"/>
<polyline points="4942.7 4941.2 4945.8 4931.7 4942.7 4941.2 4934.6 4935.3 4942.7 4929.4 4950.8 4923.6 4960.8 4923.6 4963.9 4914 4960.8 4923.6 4963.9 4933.1 4972 4938.9 4980 4944.8 4990 4944.8 4987 4935.3 4977 4935.3 4968.9 4941.2 4977 4935.3 4985 4941.2 4977 4935.3 4973.9 4925.8 4970.8 4916.3 4962.7 4922.2 4954.6 4928 4946.5 4922.2 4943.4 4931.7 4935.3 4925.8 4927.2 4919.9 4919.1 4914 4922.2 4923.6 4925.3 4914 4928.4 4904.5 4925.3 4914 4933.4 4919.9 4930.3 4929.4 4927.2 4919.9 4919.1 4925.8 4929.1 4925.8 4926.1 4916.3 4934.1 4922.2 4944.1 4922.2 4947.2 4912.7 4937.2 4912.7 4940.3 4922.2" clip-path="url(#a)" fill="none" stroke="#000" stroke-linecap="round"/>
<polyline points="4940.3 4922.2 4943.4 4912.7 4953.4 4912.7 4963.4 4912.7 4971.5 4906.8 4974.6 4916.3 4966.5 4910.4 4958.4 4916.3 4955.3 4925.8 4958.4 4935.3 4961.5 4925.8 4958.4 4935.3 4968.4 4935.3 4965.3 4944.8 4973.4 4938.9 4963.4 4938.9 4971.5 4944.8 4974.6 4954.3 4982.7 4948.5 4974.6 4942.6 4971.5 4933.1 4961.5 4933.1 4951.5 4933.1 4954.6 4923.6 4957.7 4914 4949.6 4919.9 4941.5 4914 4944.6 4923.6 4941.5 4914 4949.6 4908.2 4952.7 4898.7 4944.6 4904.5 4934.6 4904.5 4937.7 4895 4945.8 4900.9 4948.9 4910.4 4938.9 4910.4 4942 4919.9 4938.9 4910.4 4947 4916.3 4943.9 4925.8 4952 4931.7 4948.9 4941.2" clip-path="url(#a)" fill="none" stroke="#000" stroke-linecap="round"/>
<polyline points="4948.9 4941.2 4952 4950.7 4948.9 4960.2 4958.9 4960.2 4962 4969.7 4970 4963.8 4967 4954.3 4970 4963.8 4967 4973.4 4958.9 4979.2 4955.8 4988.7 4958.9 4998.3 4950.8 5004.1 4940.8 5004.1 4948.9 5010 4957 5004.1 4960 5013.6 4968.1 5007.8 4971.2 4998.3 4963.1 4992.4 4971.2 4986.5 4974.3 4996 4971.2 4986.5 4963.1 4992.4 4971.2 4998.3 4979.3 5004.1 4982.4 4994.6 4990.5 4988.7 4987.4 4998.3 4995.5 4992.4 4998.6 5001.9 4995.5 4992.4 5005.5 4992.4 5002.4 5001.9 4999.3 5011.4 4991.2 5017.3 4994.3 5026.8 4991.2 5017.3 4983.1 5011.4 4973.1 5011.4 4963.1 5011.4 4955 5017.3 4963.1 5023.2" clip-path="url(#a)" fill="none" stroke="#000" stroke-linecap="round"/>
<polyline points="4963.1 5023.2 4971.2 5017.3 4974.3 5007.8 4971.2 5017.3 4961.2 5017.3 4971.2 5017.3 4979.3 5023.2 4987.4 5029 4990.5 5019.5 4993.6 5010 5003.6 5010 5000.5 5000.5 5010.5 5000.5 5020.5 5000.5 5030.5 5000.5 5022.4 4994.6 5025.5 5004.1 5028.6 5013.6 5025.5 5004.1 5015.5 5004.1 5012.4 4994.6 5020.5 5000.5 5023.6 4991 5015.5 4996.9 5023.6 5002.7 5013.6 5002.7 5005.5 5008.6 5008.6 5018.1 5016.7 5012.3 5008.6 5006.4 5011.7 5015.9 5003.6 5021.8 4995.5 5027.6 4992.4 5037.2 4984.3 5031.3 4994.3 5031.3 4997.4 5021.8 4994.3 5012.3 4986.2 5006.4 4989.3 5015.9 4986.2 5006.4 4978.1 5012.3 4975 5002.7" clip-path="url(#a)" fill="none" stroke="#000" stroke-linecap="round"/>
<polyline points="4975 5002.7 4972 5012.3 4980 5006.4 4970 5006.4 4962 5000.5 4958.9 5010 4968.9 5010 4977 5015.9 4985 5010 4993.1 5004.1 4996.2 5013.6 4999.3 5023.2 5002.4 5013.6 5012.4 5013.6 5004.3 5007.8 5012.4 5013.6 5009.3 5023.2 5012.4 5032.7 5015.5 5023.2 5023.6 5017.3 5026.7 5026.8 5016.7 5026.8 5008.6 5020.9 5016.7 5015 5008.6 5009.2 5016.7 5015 5006.7 5015 5003.6 5005.5 4993.6 5005.5 4990.5 4996 4982.4 4990.1 4979.3 4980.6 4971.2 4986.5 4963.1 4980.6 4960 4990.1 4968.1 4996 4960 4990.1 4957 4980.6 4960 4971.1 4957 4961.6 4948.9 4955.7 4952 4946.2 4960 4940.3" clip-path="url(#a)" fill="none" stroke="#000" stroke-linecap="round"/>
<polyline points="4960 4940.3 4950 4940.3 4947 4949.8 4938.9 4944 4935.8 4953.5 4938.9 4963 4948.9 4963 4945.8 4972.5 4937.7 4966.6 4945.8 4972.5 4948.9 4963 4938.9 4963 4928.9 4963 4932 4972.5 4928.9 4982 4925.8 4972.5 4922.7 4982 4914.6 4976.1 4922.7 4982 4914.6 4987.9 4911.5 4978.4 4908.4 4968.9 4911.5 4959.4 4903.4 4953.5 4911.5 4959.4 4921.5 4959.4 4929.6 4953.5 4937.7 4947.6 4940.8 4938.1 4930.8 4938.1 4927.7 4947.6 4930.8 4957.1 4927.7 4947.6 4935.8 4941.7 4927.7 4947.6 4917.7 4947.6 4907.7 4947.6 4910.8 4957.1 4913.9 4966.6 4905.8 4972.5 4913.9 4978.4 4905.8 4984.3 4897.7 4990.1" clip-path="url(#a)" fill="none" stroke="#000" stroke-linecap="round"/>
<polyline points="4897.7 4990.1 4889.6 4996 4899.6 4996 4891.5 4990.1 4883.4 4984.3 4891.5 4990.1 4899.6 4984.3 4907.7 4990.1 4897.7 4990.1 4900.8 4999.6 4903.9 4990.1 4893.9 4990.1 4902 4984.3 4905 4974.7 4897 4968.9 4893.9 4978.4 4903.9 4978.4 4895.8 4972.5 4898.9 4963 4902 4953.5 4898.9 4944 4908.9 4944 4900.8 4949.8 4903.9 4959.4 4912 4965.2 4922 4965.2 4913.9 4959.4 4922 4965.2 4925 4955.7 4933.1 4961.6 4930 4952.1 4927 4961.6 4935 4955.7 4945 4955.7 4942 4946.2 4933.9 4952.1 4923.9 4952.1 4920.8 4961.6 4917.7 4971.1 4909.6 4965.2 4901.5 4959.4 4904.6 4968.9 4896.5 4974.7" clip-path="url(#a)" fill="none" stroke="#000" stroke-linecap="round"/>
<polyline points="4896.5 4974.7 4906.5 4974.7 4896.5 4974.7 4893.4 4965.2 4885.3 4959.4 4888.4 4968.9 4885.3 4978.4 4877.2 4972.5 4885.3 4966.6 4895.3 4966.6 4892.2 4976.1 4902.2 4976.1 4892.2 4976.1 4900.3 4970.3 4908.4 4976.1 4916.5 4970.3 4924.6 4976.1 4934.6 4976.1 4942.7 4982 4945.8 4972.5 4955.8 4972.5 4952.7 4963 4942.7 4963 4952.7 4963 4960.8 4968.9 4963.9 4978.4 4972 4984.3 4982 4984.3 4985 4993.8 4982 5003.3 4990 4997.4 4987 4987.9 4997 4987.9 4993.9 4978.4 4985.8 4972.5 4977.7 4978.4 4974.6 4968.9 4984.6 4968.9 4974.6 4968.9 4977.7 4978.4 4985.8 4972.5 4993.9 4966.6 4985.8 4960.7" clip-path="url(#a)" fill="none" stroke="#000" stroke-linecap="round"/>
<polyline points="4985.8 4960.7 4982.7 4951.2 4990.8 4957.1 4987.7 4947.6 4997.7 4947.6 4987.7 4947.6 4990.8 4938.1 4998.9 4944 5007 4949.8 5010 4959.4 5020 4959.4 5010 4959.4 5002 4965.2 4998.9 4974.7 4995.8 4984.3 4998.9 4993.8 5007 4987.9 5003.9 4978.4 4995.8 4972.5 5003.9 4978.4 5000.8 4987.9 5003.9 4978.4 5012 4972.5 5020 4966.6 5012 4960.7 5003.9 4954.9 5007 4945.4 4997 4945.4 5e3 4935.8 5003.1 4926.3 5006.2 4916.8 4998.1 4922.7 5008.1 4922.7 5018.1 4922.7 5008.1 4922.7 5005 4932.2 4995 4932.2 5003.1 4926.3 4995 4920.5 4998.1 4930 5006.2 4924.1 5003.1 4933.6 5006.2 4943.1" clip-path="url(#a)" fill="none" stroke="#000" stroke-linecap="round"/>
<polyline points="5006.2 4943.1 5016.2 4943.1 5013.1 4933.6 5005 4939.5 5015 4939.5 5018.1 4949 5021.2 4958.5 5029.3 4964.4 5021.2 4970.3 5024.3 4960.7 5016.2 4954.9 5006.2 4954.9 4998.1 4960.7 5008.1 4960.7 4998.1 4960.7 5001.2 4970.3 4991.2 4970.3 4999.3 4976.1 4996.2 4966.6 4993.1 4976.1 4985 4982 4993.1 4987.9 4996.2 4978.4 5004.3 4972.5 5001.2 4963 4998.1 4953.5 5008.1 4953.5 5018.1 4953.5 5010 4947.6 5013.1 4938.1 5005 4944 5013.1 4938.1 5021.2 4944 5031.2 4944 5023.1 4938.1 5020 4928.6 5030 4928.6 5027 4938.1 5018.9 4944 5015.8 4934.5 5007.7 4940.3 5015.8 4934.5 5012.7 4944" clip-path="url(#a)" fill="none" stroke="#000" stroke-linecap="round"/>
<polyline points="5012.7 4944 5002.7 4944 4999.6 4953.5 4989.6 4953.5 4981.5 4959.4 4971.5 4959.4 4974.6 4968.9 4966.5 4974.7 4974.6 4980.6 4982.7 4974.7 4974.6 4980.6 4964.6 4980.6 4956.5 4974.7 4946.5 4974.7 4938.4 4980.6 4930.3 4974.7 4927.2 4965.2 4924.1 4974.7 4932.2 4980.6 4924.1 4986.5 4932.2 4992.4 4942.2 4992.4 4945.3 4982.9 4953.4 4988.7 4945.3 4994.6 4953.4 4988.7 4945.3 4982.9 4942.2 4992.4 4939.1 5001.9 4949.1 5001.9 4957.2 5007.8 4947.2 5007.8 4955.3 5013.6 4947.2 5019.5 4955.3 5013.6 4958.4 5023.2 4948.4 5023.2 4938.4 5023.2 4930.3 5017.3 4922.2 5023.2 4930.3 5017.3 4933.4 5007.8 4930.3 4998.3" clip-path="url(#a)" fill="none" stroke="#000" stroke-linecap="round"/>
<polyline points="4930.3 4998.3 4927.2 4988.7 4919.1 4982.9 4916.1 4992.4 4924.1 4998.3 4934.1 4998.3 4924.1 4998.3 4921.1 4988.7 4924.1 4998.3 4921.1 5007.8 4918 5017.3 4928 5017.3 4938 5017.3 4941.1 5026.8 4949.1 5020.9 4952.2 5030.4 4955.3 5039.9 4958.4 5049.4 4961.5 5039.9 4953.4 5045.8 4945.3 5051.7 4953.4 5045.8 4950.3 5036.3 4958.4 5030.4 4955.3 5039.9 4965.3 5039.9 4957.2 5034.1 4954.1 5043.6 4951.1 5034.1 4943 5028.2 4934.9 5034.1 4943 5039.9 4946.1 5030.4 4938 5036.3 4929.9 5030.4 4921.8 5024.5 4911.8 5024.5 4914.9 5015 4918 5024.5 4928 5024.5 4936.1 5018.7 4939.1 5009.2 4931.1 5015" clip-path="url(#a)" fill="none" stroke="#000" stroke-linecap="round"/>
<polyline points="4931.1 5015 4939.1 5009.2 4931.1 5003.3 4939.1 4997.4 4929.1 4997.4 4937.2 5003.3 4934.1 4993.8 4937.2 4984.3 4927.2 4984.3 4930.3 4993.8 4927.2 5003.3 4935.3 5009.2 4943.4 5015 4935.3 5020.9 4927.2 5026.8 4937.2 5026.8 4940.3 5036.3 4943.4 5026.8 4940.3 5036.3 4930.3 5036.3 4922.2 5042.2 4932.2 5042.2 4940.3 5048.1 4932.2 5053.9 4929.1 5044.4 4932.2 5034.9 4940.3 5040.8 4943.4 5031.3 4940.3 5040.8 4937.2 5031.3 4945.3 5025.4 4942.2 5015.9 4950.3 5010 4953.4 5000.5 4961.5 4994.6 4953.4 4988.7 4956.5 4979.2 4946.5 4979.2 4943.4 4988.7 4946.5 4979.2 4954.6 4973.4 4964.6 4973.4 4972.7 4967.5" clip-path="url(#a)" fill="none" stroke="#000" stroke-linecap="round"/>
<polyline points="4972.7 4967.5 4975.8 4958 4985.8 4958 4993.9 4963.8 4990.8 4954.3 4980.8 4954.3 4983.9 4944.8 4973.9 4944.8 4965.8 4950.7 4968.9 4960.2 4958.9 4960.2 4962 4950.7 4958.9 4960.2 4968.9 4960.2 4965.8 4950.7 4962.7 4941.2 4954.6 4947.1 4944.6 4947.1 4952.7 4941.2 4942.7 4941.2 4945.8 4931.7 4942.7 4941.2 4934.6 4935.3 4942.7 4929.4 4950.8 4923.6 4960.8 4923.6 4963.9 4914 4960.8 4923.6 4963.9 4933.1 4972 4938.9 4980 4944.8 4990 4944.8 4987 4935.3 4977 4935.3 4968.9 4941.2 4977 4935.3 4985 4941.2 4977 4935.3 4973.9 4925.8 4970.8 4916.3 4962.7 4922.2 4954.6 4928 4946.5 4922.2" clip-path="url(#a)" fill="none" stroke="#000" stroke-linecap="round"/>
<polyline points="4946.5 4922.2 4943.4 4931.7 4935.3 4925.8 4927.2 4919.9 4919.1 4914 4922.2 4923.6 4925.3 4914 4928.4 4904.5 4925.3 4914 4933.4 4919.9 4930.3 4929.4 4927.2 4919.9 4919.1 4925.8 4929.1 4925.8 4926.1 4916.3 4934.1 4922.2 4944.1 4922.2 4947.2 4912.7 4937.2 4912.7 4940.3 4922.2 4943.4 4912.7 4953.4 4912.7 4963.4 4912.7 4971.5 4906.8 4974.6 4916.3 4966.5 4910.4 4958.4 4916.3 4955.3 4925.8 4958.4 4935.3 4961.5 4925.8 4958.4 4935.3 4968.4 4935.3 4965.3 4944.8 4973.4 4938.9 4963.4 4938.9 4971.5 4944.8 4974.6 4954.3 4982.7 4948.5 4974.6 4942.6 4971.5 4933.1 4961.5 4933.1 4951.5 4933.1 4954.6 4923.6" clip-path="url(#a)" fill="none" stroke="#000" stroke-linecap="round"/>
<polyline points="4954.6 4923.6 4957.7 4914 4949.6 4919.9 4941.5 4914 4944.6 4923.6 4941.5 4914 4949.6 4908.2 4952.7 4898.7 4944.6 4904.5 4934.6 4904.5 4937.7 4895 4945.8 4900.9 4948.9 4910.4 4938.9 4910.4 4942 4919.9 4938.9 4910.4 4947 4916.3 4943.9 4925.8 4952 4931.7 4948.9 4941.2 4952 4950.7 4948.9 4960.2 4958.9 4960.2 4962 4969.7 4970 4963.8 4967 4954.3 4970 4963.8 4967 4973.4 4958.9 4979.2 4955.8 4988.7 4958.9 4998.3 4950.8 5004.1 4940.8 5004.1 4948.9 5010 4957 5004.1 4960 5013.6 4968.1 5007.8 4971.2 4998.3 4963.1 4992.4 4971.2 4986.5 4974.3 4996 4971.2 4986.5 4963.1 4992.4" clip-path="url(#a)" fill="none" stroke="#000" stroke-linecap="round"/>
<polyline points="4963.1 4992.4 4971.2 4998.3 4979.3 5004.1 4982.4 4994.6 4990.5 4988.7 4987.4 4998.3 4995.5 4992.4 4998.6 5001.9 4995.5 4992.4 5005.5 4992.4 5002.4 5001.9 4999.3 5011.4 4991.2 5017.3 4994.3 5026.8 4991.2 5017.3 4983.1 5011.4 4973.1 5011.4 4963.1 5011.4 4955 5017.3 4963.1 5023.2 4971.2 5017.3 4974.3 5007.8 4971.2 5017.3 4961.2 5017.3 4971.2 5017.3 4979.3 5023.2 4987.4 5029 4990.5 5019.5 4993.6 5010 5003.6 5010 5000.5 5000.5 5010.5 5000.5 5020.5 5000.5 5030.5 5000.5 5022.4 4994.6 5025.5 5004.1 5028.6 5013.6 5025.5 5004.1 5015.5 5004.1 5012.4 4994.6 5020.5 5000.5 5023.6 4991 5015.5 4996.9" clip-path="url(#a)" fill="none" stroke="#000" stroke-linecap="round"/>
<polyline points="5015.5 4996.9 5023.6 5002.7 5013.6 5002.7 5005.5 5008.6 5008.6 5018.1 5016.7 5012.3 5008.6 5006.4 5011.7 5015.9 5003.6 5021.8 4995.5 5027.6 4992.4 5037.2 4984.3 5031.3 4994.3 5031.3 4997.4 5021.8 4994.3 5012.3 4986.2 5006.4 4989.3 5015.9 4986.2 5006.4 4978.1 5012.3 4975 5002.7 4972 5012.3 4980 5006.4 4970 5006.4 4962 5000.5 4958.9 5010 4968.9 5010 4977 5015.9 4985 5010 4993.1 5004.1 4996.2 5013.6 4999.3 5023.2 5002.4 5013.6 5012.4 5013.6 5004.3 5007.8 5012.4 5013.6 5009.3 5023.2 5012.4 5032.7 5015.5 5023.2 5023.6 5017.3 5026.7 5026.8 5016.7 5026.8 5008.6 5020.9 5016.7 5015" clip-path="url(#a)" fill="none" stroke="#000" stroke-linecap="round"/>
<polyline points="5016.7 5015 5008.6 5009.2 5016.7 5015 5006.7 5015 5003.6 5005.5 4993.6 5005.5 4990.5 4996 4982.4 4990.1 4979.3 4980.6 4971.2 4986.5 4963.1 4980.6 4960 4990.1 4968.1 4996 4960 4990.1 4957 4980.6 4960 4971.1 4957 4961.6 4948.9 4955.7 4952 4946.2 4960 4940.3 4950 4940.3 4947 4949.8 4938.9 4944 4935.8 4953.5 4938.9 4963 4948.9 4963 4945.8 4972.5 4937.7 4966.6 4945.8 4972.5 4948.9 4963 4938.9 4963 4928.9 4963 4932 4972.5 4928.9 4982 4925.8 4972.5 4922.7 4982 4914.6 4976.1 4922.7 4982 4914.6 4987.9 4911.5 4978.4 4908.4 4968.9 4911.5 4959.4 4903.4 4953.5" clip-path="url(#a)" fill="none" stroke="#000" stroke-linecap="round"/>
<polyline points="4903.4 4953.5 4911.5 4959.4 4921.5 4959.4 4929.6 4953.5 4937.7 4947.6 4940.8 4938.1 4930.8 4938.1 4927.7 4947.6 4930.8 4957.1 4927.7 4947.6 4935.8 4941.7 4927.7 4947.6 4917.7 4947.6 4907.7 4947.6 4910.8 4957.1 4913.9 4966.6 4905.8 4972.5 4913.9 4978.4 4905.8 4984.3 4897.7 4990.1 4889.6 4996 4899.6 4996 4891.5 4990.1 4883.4 4984.3 4891.5 4990.1 4899.6 4984.3 4907.7 4990.1 4897.7 4990.1 4900.8 4999.6 4903.9 4990.1 4893.9 4990.1 4902 4984.3 4905 4974.7 4897 4968.9 4893.9 4978.4 4903.9 4978.4 4895.8 4972.5 4898.9 4963 4902 4953.5 4898.9 4944 4908.9 4944 4900.8 4949.8 4903.9 4959.4" clip-path="url(#a)" fill="none" stroke="#000" stroke-linecap="round"/>
<polyline points="4903.9 4959.4 4912 4965.2 4922 4965.2 4913.9 4959.4 4922 4965.2 4925 4955.7 4933.1 4961.6 4930 4952.1 4927 4961.6 4935 4955.7 4945 4955.7 4942 4946.2 4933.9 4952.1 4923.9 4952.1 4920.8 4961.6 4917.7 4971.1 4909.6 4965.2 4901.5 4959.4 4904.6 4968.9 4896.5 4974.7 4906.5 4974.7 4896.5 4974.7 4893.4 4965.2 4885.3 4959.4 4888.4 4968.9 4885.3 4978.4 4877.2 4972.5 4885.3 4966.6 4895.3 4966.6 4892.2 4976.1 4902.2 4976.1 4892.2 4976.1 4900.3 4970.3 4908.4 4976.1 4916.5 4970.3 4924.6 4976.1 4934.6 4976.1 4942.7 4982 4945.8 4972.5 4955.8 4972.5 4952.7 4963 4942.7 4963 4952.7 4963" clip-path="url(#a)" fill="none" stroke="#000" stroke-linecap="round"/>
<polyline points="4952.7 4963 4960.8 4968.9 4963.9 4978.4 4972 4984.3 4982 4984.3 4985 4993.8 4982 5003.3 4990 4997.4 4987 4987.9 4997 4987.9 4993.9 4978.4 4985.8 4972.5 4977.7 4978.4 4974.6 4968.9 4984.6 4968.9 4974.6 4968.9 4977.7 4978.4 4985.8 4972.5 4993.9 4966.6 4985.8 4960.7 4982.7 4951.2 4990.8 4957.1 4987.7 4947.6 4997.7 4947.6 4987.7 4947.6 4990.8 4938.1 4998.9 4944 5007 4949.8 5010 4959.4 5020 4959.4 5010 4959.4 5002 4965.2 4998.9 4974.7 4995.8 4984.3 4998.9 4993.8 5007 4987.9 5003.9 4978.4 4995.8 4972.5 5003.9 4978.4 5000.8 4987.9 5003.9 4978.4 5012 4972.5 5020 4966.6" clip-path="url(#a)" fill="none" stroke="#000" stroke-linecap="round"/>
<polyline points="5020 4966.6 5012 4960.7 5003.9 4954.9 5007 4945.4 4997 4945.4 5e3 4935.8 5003.1 4926.3 5006.2 4916.8 4998.1 4922.7 5008.1 4922.7 5018.1 4922.7 5008.1 4922.7 5005 4932.2 4995 4932.2 5003.1 4926.3 4995 4920.5 4998.1 4930 5006.2 4924.1 5003.1 4933.6 5006.2 4943.1 5016.2 4943.1 5013.1 4933.6 5005 4939.5 5015 4939.5 5018.1 4949 5021.2 4958.5 5029.3 4964.4 5021.2 4970.3 5024.3 4960.7 5016.2 4954.9 5006.2 4954.9 4998.1 4960.7 5008.1 4960.7 4998.1 4960.7 5001.2 4970.3 4991.2 4970.3 4999.3 4976.1 4996.2 4966.6 4993.1 4976.1 4985 4982 4993.1 4987.9 4996.2 4978.4 5004.3 4972.5" clip-path="url(#a)" fill="none" stroke="#000" stroke-linecap="round"/>
<polyline points="5004.3 4972.5 5001.2 4963 4998.1 4953.5 5008.1 4953.5 5018.1 4953.5 5010 4947.6 5013.1 4938.1 5005 4944 5013.1 4938.1 5021.2 4944 5031.2 4944 5023.1 4938.1 5020 4928.6 5030 4928.6 5027 4938.1 5018.9 4944 5015.8 4934.5 5007.7 4940.3 5015.8 4934.5 5012.7 4944 5002.7 4944 4999.6 4953.5 4989.6 4953.5 4981.5 4959.4 4971.5 4959.4 4974.6 4968.9 4966.5 4974.7 4974.6 4980.6 4982.7 4974.7 4974.6 4980.6 4964.6 4980.6 4956.5 4974.7 4946.5 4974.7 4938.4 4980.6 4930.3 4974.7 4927.2 4965.2 4924.1 4974.7 4932.2 4980.6 4924.1 4986.5 4932.2 4992.4 4942.2 4992.4 4945.3 4982.9 4953.4 4988.7" clip-path="url(#a)" fill="none" stroke="#000" stroke-linecap="round"/>
<polyline points="4953.4 4988.7 4945.3 4994.6 4953.4 4988.7 4945.3 4982.9 4942.2 4992.4 4939.1 5001.9 4949.1 5001.9 4957.2 5007.8 4947.2 5007.8 4955.3 5013.6 4947.2 5019.5 4955.3 5013.6 4958.4 5023.2 4948.4 5023.2 4938.4 5023.2 4930.3 5017.3 4922.2 5023.2 4930.3 5017.3 4933.4 5007.8 4930.3 4998.3 4927.2 4988.7 4919.1 4982.9 4916.1 4992.4 4924.1 4998.3 4934.1 4998.3 4924.1 4998.3 4921.1 4988.7 4924.1 4998.3 4921.1 5007.8 4918 5017.3 4928 5017.3 4938 5017.3 4941.1 5026.8 4949.1 5020.9 4952.2 5030.4 4955.3 5039.9 4958.4 5049.4 4961.5 5039.9 4953.4 5045.8 4945.3 5051.7 4953.4 5045.8 4950.3 5036.3 4958.4 5030.4" clip-path="url(#a)" fill="none" stroke="#000" stroke-linecap="round"/>
<polyline points="4958.4 5030.4 4955.3 5039.9 4965.3 5039.9 4957.2 5034.1 4954.1 5043.6 4951.1 5034.1 4943 5028.2 4934.9 5034.1 4943 5039.9 4946.1 5030.4 4938 5036.3 4929.9 5030.4 4921.8 5024.5 4911.8 5024.5 4914.9 5015 4918 5024.5 4928 5024.5 4936.1 5018.7 4939.1 5009.2 4931.1 5015 4939.1 5009.2 4931.1 5003.3 4939.1 4997.4 4929.1 4997.4 4937.2 5003.3 4934.1 4993.8 4937.2 4984.3 4927.2 4984.3 4930.3 4993.8 4927.2 5003.3 4935.3 5009.2 4943.4 5015 4935.3 5020.9 4927.2 5026.8 4937.2 5026.8 4940.3 5036.3 4943.4 5026.8 4940.3 5036.3 4930.3 5036.3 4922.2 5042.2 4932.2 5042.2 4940.3 5048.1 4932.2 5053.9" clip-path="url(#a)" fill="none" stroke="#000" stroke-linecap="round"/>
<polyline points="4932.2 5053.9 4929.1 5044.4 4932.2 5034.9 4940.3 5040.8 4943.4 5031.3 4940.3 5040.8 4937.2 5031.3 4945.3 5025.4 4942.2 5015.9 4950.3 5010 4953.4 5000.5 4961.5 4994.6 4953.4 4988.7 4956.5 4979.2 4946.5 4979.2 4943.4 4988.7 4946.5 4979.2 4954.6 4973.4 4964.6 4973.4 4972.7 4967.5 4975.8 4958 4985.8 4958 4993.9 4963.8 4990.8 4954.3 4980.8 4954.3 4983.9 4944.8 4973.9 4944.8 4965.8 4950.7 4968.9 4960.2 4958.9 4960.2 4962 4950.7 4958.9 4960.2 4968.9 4960.2 4965.8 4950.7 4962.7 4941.2 4954.6 4947.1 4944.6 4947.1 4952.7 4941.2 4942.7 4941.2 4945.8 4931.7 4942.7 4941.2 4934.6 4935.3 4942.7 4929.4" clip-path="url(#a)" fill="none" stroke="#000" stroke-linecap="round"/>
<polyline points="4942.7 4929.4 4950.8 4923.6 4960.8 4923.6 4963.9 4914 4960.8 4923.6 4963.9 4933.1 4972 4938.9 4980 4944.8 4990 4944.8 4987 4935.3 4977 4935.3 4968.9 4941.2 4977 4935.3 4985 4941.2 4977 4935.3 4973.9 4925.8 4970.8 4916.3 4962.7 4922.2 4954.6 4928 4946.5 4922.2 4943.4 4931.7 4935.3 4925.8 4927.2 4919.9 4919.1 4914 4922.2 4923.6 4925.3 4914 4928.4 4904.5 4925.3 4914 4933.4 4919.9 4930.3 4929.4 4927.2 4919.9 4919.1 4925.8 4929.1 4925.8 4926.1 4916.3 4934.1 4922.2 4944.1 4922.2 4947.2 4912.7 4937.2 4912.7 4940.3 4922.2 4943.4 4912.7 4953.4 4912.7 4963.4 4912.7 4971.5 4906.8" clip-path="url(#a)" fill="none" stroke="#000" stroke-linecap="round"/>
<polyline points="4971.5 4906.8 4974.6 4916.3 4966.5 4910.4 4958.4 4916.3 4955.3 4925.8 4958.4 4935.3 4961.5 4925.8 4958.4 4935.3 4968.4 4935.3 4965.3 4944.8 4973.4 4938.9 4963.4 4938.9 4971.5 4944.8 4974.6 4954.3 4982.7 4948.5 4974.6 4942.6 4971.5 4933.1 4961.5 4933.1 4951.5 4933.1 4954.6 4923.6 4957.7 4914 4949.6 4919.9 4941.5 4914 4944.6 4923.6 4941.5 4914 4949.6 4908.2 4952.7 4898.7 4944.6 4904.5 4934.6 4904.5 4937.7 4895 4945.8 4900.9 4948.9 4910.4 4938.9 4910.4 4942 4919.9 4938.9 4910.4 4947 4916.3 4943.9 4925.8 4952 4931.7 4948.9 4941.2 4952 4950.7 4948.9 4960.2 4958.9 4960.2 4962 4969.7" clip-path="url(#a)" fill="none" stroke="#000" stroke-linecap="round"/>
<polyline points="4962 4969.7 4970 4963.8 4967 4954.3 4970 4963.8 4967 4973.4 4958.9 4979.2 4955.8 4988.7 4958.9 4998.3 4950.8 5004.1 4940.8 5004.1 4948.9 5010 4957 5004.1 4960 5013.6 4968.1 5007.8 4971.2 4998.3 4963.1 4992.4 4971.2 4986.5 4974.3 4996 4971.2 4986.5 4963.1 4992.4 4971.2 4998.3 4979.3 5004.1 4982.4 4994.6 4990.5 4988.7 4987.4 4998.3 4995.5 4992.4 4998.6 5001.9 4995.5 4992.4 5005.5 4992.4 5002.4 5001.9 4999.3 5011.4 4991.2 5017.3 4994.3 5026.8 4991.2 5017.3 4983.1 5011.4 4973.1 5011.4 4963.1 5011.4 4955 5017.3 4963.1 5023.2 4971.2 5017.3 4974.3 5007.8 4971.2 5017.3 4961.2 5017.3" clip-path="url(#a)" fill="none" stroke="#000" stroke-linecap="round"/>
<polyline points="4961.2 5017.3 4971.2 5017.3 4979.3 5023.2 4987.4 5029 4990.5 5019.5 4993.6 5010 5003.6 5010 5000.5 5000.5 5010.5 5000.5 5020.5 5000.5 5030.5 5000.5 5022.4 4994.6 5025.5 5004.1 5028.6 5013.6 5025.5 5004.1 5015.5 5004.1 5012.4 4994.6 5020.5 5000.5 5023.6 4991 5015.5 4996.9 5023.6 5002.7 5013.6 5002.7 5005.5 5008.6 5008.6 5018.1 5016.7 5012.3 5008.6 5006.4 5011.7 5015.9 5003.6 5021.8 4995.5 5027.6 4992.4 5037.2 4984.3 5031.3 4994.3 5031.3 4997.4 5021.8 4994.3 5012.3 4986.2 5006.4 4989.3 5015.9 4986.2 5006.4 4978.1 5012.3 4975 5002.7 4972 5012.3 4980 5006.4 4970 5006.4 4962 5000.5" clip-path="url(#a)" fill="none" stroke="#000" stroke-linecap="round"/>
<polyline points="4962 5000.5 4958.9 5010 4968.9 5010 4977 5015.9 4985 5010 4993.1 5004.1 4996.2 5013.6 4999.3 5023.2 5002.4 5013.6 5012.4 5013.6 5004.3 5007.8 5012.4 5013.6 5009.3 5023.2 5012.4 5032.7 5015.5 5023.2 5023.6 5017.3 5026.7 5026.8 5016.7 5026.8 5008.6 5020.9 5016.7 5015 5008.6 5009.2 5016.7 5015 5006.7 5015 5003.6 5005.5 4993.6 5005.5 4990.5 4996 4982.4 4990.1 4979.3 4980.6 4971.2 4986.5 4963.1 4980.6 4960 4990.1 4968.1 4996 4960 4990.1 4957 4980.6 4960 4971.1 4957 4961.6 4948.9 4955.7 4952 4946.2 4960 4940.3 4950 4940.3 4947 4949.8 4938.9 4944 4935.8 4953.5" clip-path="url(#a)" fill="none" stroke="#000" stroke-linecap="round"/>
<polyline points="4935.8 4953.5 4938.9 4963 4948.9 4963 4945.8 4972.5 4937.7 4966.6 4945.8 4972.5 4948.9 4963 4938.9 4963 4928.9 4963 4932 4972.5 4928.9 4982 4925.8 4972.5 4922.7 4982 4914.6 4976.1 4922.7 4982 4914.6 4987.9 4911.5 4978.4 4908.4 4968.9 4911.5 4959.4 4903.4 4953.5 4911.5 4959.4 4921.5 4959.4 4929.6 4953.5 4937.7 4947.6 4940.8 4938.1 4930.8 4938.1 4927.7 4947.6 4930.8 4957.1 4927.7 4947.6 4935.8 4941.7 4927.7 4947.6 4917.7 4947.6 4907.7 4947.6 4910.8 4957.1 4913.9 4966.6 4905.8 4972.5 4913.9 4978.4 4905.8 4984.3 4897.7 4990.1 4889.6 4996 4899.6 4996 4891.5 4990.1 4883.4 4984.3" clip-path="url(#a)" fill="none" stroke="#000" stroke-linecap="round"/>
<polyline points="4883.4 4984.3 4891.5 4990.1 4899.6 4984.3 4907.7 4990.1 4897.7 4990.1 4900.8 4999.6 4903.9 4990.1 4893.9 4990.1 4902 4984.3 4905 4974.7 4897 4968.9 4893.9 4978.4 4903.9 4978.4 4895.8 4972.5 4898.9 4963 4902 4953.5 4898.9 4944 4908.9 4944 4900.8 4949.8 4903.9 4959.4 4912 4965.2 4922 4965.2 4913.9 4959.4 4922 4965.2 4925 4955.7 4933.1 4961.6 4930 4952.1 4927 4961.6 4935 4955.7 4945 4955.7 4942 4946.2 4933.9 4952.1 4923.9 4952.1 4920.8 4961.6 4917.7 4971.1 4909.6 4965.2 4901.5 4959.4 4904.6 4968.9 4896.5 4974.7 4906.5 4974.7 4896.5 4974.7 4893.4 4965.2 4885.3 4959.4" clip-path="url(#a)" fill="none" stroke="#000" stroke-linecap="round"/>
<polyline points="4885.3 4959.4 4888.4 4968.9 4885.3 4978.4 4877.2 4972.5 4885.3 4966.6 4895.3 4966.6 4892.2 4976.1 4902.2 4976.1 4892.2 4976.1 4900.3 4970.3 4908.4 4976.1 4916.5 4970.3 4924.6 4976.1 4934.6 4976.1 4942.7 4982 4945.8 4972.5 4955.8 4972.5 4952.7 4963 4942.7 4963 4952.7 4963 4960.8 4968.9 4963.9 4978.4 4972 4984.3 4982 4984.3 4985 4993.8 4982 5003.3 4990 4997.4 4987 4987.9 4997 4987.9 4993.9 4978.4 4985.8 4972.5 4977.7 4978.4 4974.6 4968.9 4984.6 4968.9 4974.6 4968.9 4977.7 4978.4 4985.8 4972.5 4993.9 4966.6 4985.8 4960.7 4982.7 4951.2 4990.8 4957.1 4987.7 4947.6 4997.7 4947.6" clip-path="url(#a)" fill="none" stroke="#000" stroke-linecap="round"/>
<polyline points="4997.7 4947.6 4987.7 4947.6 4990.8 4938.1 4998.9 4944 5007 4949.8 5010 4959.4 5020 4959.4 5010 4959.4 5002 4965.2 4998.9 4974.7 4995.8 4984.3 4998.9 4993.8 5007 4987.9 5003.9 4978.4 4995.8 4972.5 5003.9 4978.4 5000.8 4987.9 5003.9 4978.4 5012 4972.5 5020 4966.6 5012 4960.7 5003.9 4954.9 5007 4945.4 4997 4945.4 5e3 4935.8 5003.1 4926.3 5006.2 4916.8 4998.1 4922.7 5008.1 4922.7 5018.1 4922.7 5008.1 4922.7 5005 4932.2 4995 4932.2 5003.1 4926.3 4995 4920.5 4998.1 4930 5006.2 4924.1 5003.1 4933.6 5006.2 4943.1 5016.2 4943.1 5013.1 4933.6 5005 4939.5 5015 4939.5" clip-path="url(#a)" fill="none" stroke="#000" stroke-linecap="round"/>
<polyline points="5015 4939.5 5018.1 4949 5021.2 4958.5 5029.3 4964.4 5021.2 4970.3 5024.3 4960.7 5016.2 4954.9 5006.2 4954.9 4998.1 4960.7 5008.1 4960.7 4998.1 4960.7 5001.2 4970.3 4991.2 4970.3 4999.3 4976.1 4996.2 4966.6 4993.1 4976.1 4985 4982 4993.1 4987.9 4996.2 4978.4 5004.3 4972.5 5001.2 4963 4998.1 4953.5 5008.1 4953.5 5018.1 4953.5 5010 4947.6 5013.1 4938.1 5005 4944 5013.1 4938.1 5021.2 4944 5031.2 4944 5023.1 4938.1 5020 4928.6 5030 4928.6 5027 4938.1 5018.9 4944 5015.8 4934.5 5007.7 4940.3 5015.8 4934.5 5012.7 4944 5002.7 4944 4999.6 4953.5 4989.6 4953.5 4981.5 4959.4" clip-path="url(#a)" fill="none" stroke="#000" stroke-linecap="round"/>
<polyline points="4981.5 4959.4 4971.5 4959.4 4974.6 4968.9 4966.5 4974.7 4974.6 4980.6 4982.7 4974.7 4974.6 4980.6 4964.6 4980.6 4956.5 4974.7 4946.5 4974.7 4938.4 4980.6 4930.3 4974.7 4927.2 4965.2 4924.1 4974.7 4932.2 4980.6 4924.1 4986.5 4932.2 4992.4 4942.2 4992.4 4945.3 4982.9 4953.4 4988.7 4945.3 4994.6 4953.4 4988.7 4945.3 4982.9 4942.2 4992.4 4939.1 5001.9 4949.1 5001.9 4957.2 5007.8 4947.2 5007.8 4955.3 5013.6 4947.2 5019.5 4955.3 5013.6 4958.4 5023.2 4948.4 5023.2 4938.4 5023.2 4930.3 5017.3 4922.2 5023.2 4930.3 5017.3 4933.4 5007.8 4930.3 4998.3 4927.2 4988.7 4919.1 4982.9 4916.1 4992.4 4924.1 4998.3" clip-path="url(#a)" fill="none" stroke="#000" stroke-linecap="round"/>
<polyline points="4924.1 4998.3 4934.1 4998.3 4924.1 4998.3 4921.1 4988.7 4924.1 4998.3 4921.1 5007.8 4918 5017.3 4928 5017.3 4938 5017.3 4941.1 5026.8 4949.1 5020.9 4952.2 5030.4 4955.3 5039.9 4958.4 5049.4 4961.5 5039.9 4953.4 5045.8 4945.3 5051.7 4953.4 5045.8 4950.3 5036.3 4958.4 5030.4 4955.3 5039.9 4965.3 5039.9 4957.2 5034.1 4954.1 5043.6 4951.1 5034.1 4943 5028.2 4934.9 5034.1 4943 5039.9 4946.1 5030.4 4938 5036.3 4929.9 5030.4 4921.8 5024.5 4911.8 5024.5 4914.9 5015 4918 5024.5 4928 5024.5 4936.1 5018.7 4939.1 5009.2 4931.1 5015 4939.1 5009.2 4931.1 5003.3 4939.1 4997.4 4929.1 4997.4" clip-path="url(#a)" fill="none" stroke="#000" stroke-linecap="round"/>
<polyline points="4929.1 4997.4 4937.2 5003.3 4934.1 4993.8 4937.2 4984.3 4927.2 4984.3 4930.3 4993.8 4927.2 5003.3 4935.3 5009.2 4943.4 5015 4935.3 5020.9 4927.2 5026.8 4937.2 5026.8 4940.3 5036.3 4943.4 5026.8 4940.3 5036.3 4930.3 5036.3 4922.2 5042.2 4932.2 5042.2 4940.3 5048.1 4932.2 5053.9 4929.1 5044.4 4932.2 5034.9 4940.3 5040.8 4943.4 5031.3 4940.3 5040.8 4937.2 5031.3 4945.3 5025.4 4942.2 5015.9 4950.3 5010 4953.4 5000.5 4961.5 4994.6 4953.4 4988.7 4956.5 4979.2 4946.5 4979.2 4943.4 4988.7 4946.5 4979.2 4954.6 4973.4 4964.6 4973.4 4972.7 4967.5 4975.8 4958 4985.8 4958 4993.9 4963.8 4990.8 4954.3" clip-path="url(#a)" fill="none" stroke="#000" stroke-linecap="round"/>
<polyline points="4990.8 4954.3 4980.8 4954.3 4983.9 4944.8 4973.9 4944.8 4965.8 4950.7 4968.9 4960.2 4958.9 4960.2 4962 4950.7 4958.9 4960.2 4968.9 4960.2 4965.8 4950.7 4962.7 4941.2 4954.6 4947.1 4944.6 4947.1 4952.7 4941.2 4942.7 4941.2 4945.8 4931.7 4942.7 4941.2 4934.6 4935.3 4942.7 4929.4 4950.8 4923.6 4960.8 4923.6 4963.9 4914 4960.8 4923.6 4963.9 4933.1 4972 4938.9 4980 4944.8 4990 4944.8 4987 4935.3 4977 4935.3 4968.9 4941.2 4977 4935.3 4985 4941.2 4977 4935.3 4973.9 4925.8 4970.8 4916.3 4962.7 4922.2 4954.6 4928 4946.5 4922.2 4943.4 4931.7 4935.3 4925.8 4927.2 4919.9 4919.1 4914" clip-path="url(#a)" fill="none" stroke="#000" stroke-linecap="round"/>
<polyline points="4919.1 4914 4922.2 4923.6 4925.3 4914 4928.4 4904.5 4925.3 4914 4933.4 4919.9 4930.3 4929.4 4927.2 4919.9 4919.1 4925.8 4929.1 4925.8 4926.1 4916.3 4934.1 4922.2 4944.1 4922.2 4947.2 4912.7 4937.2 4912.7 4940.3 4922.2 4943.4 4912.7 4953.4 4912.7 4963.4 4912.7 4971.5 4906.8 4974.6 4916.3 4966.5 4910.4 4958.4 4916.3 4955.3 4925.8 4958.4 4935.3 4961.5 4925.8 4958.4 4935.3 4968.4 4935.3 4965.3 4944.8 4973.4 4938.9 4963.4 4938.9 4971.5 4944.8 4974.6 4954.3 4982.7 4948.5 4974.6 4942.6 4971.5 4933.1 4961.5 4933.1 4951.5 4933.1 4954.6 4923.6 4957.7 4914 4949.6 4919.9 4941.5 4914 4944.6 4923.6" clip-path="url(#a)" fill="none" stroke="#000" stroke-linecap="round"/>
<polyline points="4944.6 4923.6 4941.5 4914 4949.6 4908.2 4952.7 4898.7 4944.6 4904.5 4934.6 4904.5 4937.7 4895 4945.8 4900.9 4948.9 4910.4 4938.9 4910.4 4942 4919.9 4938.9 4910.4 4947 4916.3 4943.9 4925.8 4952 4931.7 4948.9 4941.2 4952 4950.7 4948.9 4960.2 4958.9 4960.2 4962 4969.7 4970 4963.8 4967 4954.3 4970 4963.8 4967 4973.4 4958.9 4979.2 4955.8 4988.7 4958.9 4998.3 4950.8 5004.1 4940.8 5004.1 4948.9 5010 4957 5004.1 4960 5013.6 4968.1 5007.8 4971.2 4998.3 4963.1 4992.4 4971.2 4986.5 4974.3 4996 4971.2 4986.5 4963.1 4992.4 4971.2 4998.3 4979.3 5004.1 4982.4 4994.6 4990.5 4988.7" clip-path="url(#a)" fill="none" stroke="#000" stroke-linecap="round"/>
<polyline points="4990.5 4988.7 4987.4 4998.3 4995.5 4992.4 4998.6 5001.9 4995.5 4992.4 5005.5 4992.4 5002.4 5001.9 4999.3 5011.4 4991.2 5017.3 4994.3 5026.8 4991.2 5017.3 4983.1 5011.4 4973.1 5011.4 4963.1 5011.4 4955 5017.3 4963.1 5023.2 4971.2 5017.3 4974.3 5007.8 4971.2 5017.3 4961.2 5017.3 4971.2 5017.3 4979.3 5023.2 4987.4 5029 4990.5 5019.5 4993.6 5010 5003.6 5010 5000.5 5000.5" clip-path="url(#a)" fill="none" stroke="#000" stroke-linecap="round"/>
</svg>
