<?xml version="1.0" encoding="UTF-8"?>
<svg width="1e4px" height="1e4px" baseProfile="full" version="1.1" viewBox="4851.1 4843 197.98 203.68" xmlns="http://www.w3.org/2000/svg">
<defs>
<clipPath id="a">
<rect width="1e4" height="1e4"/>
</clipPath>
</defs>
<polyline points="5000.5 5000.5 5010.5 5000.5 5020.5 5000.5 5012.4 4994.6 5009.3 5004.1 5017.4 4998.3 5020.5 5007.8 5012.4 5013.6 5015.5 5023.2 5007.4 5017.3 4999.3 5011.4 5002.4 5001.9 5005.5 5011.4 5002.4 5020.9 5005.5 5011.4 5008.6 5020.9 5005.5 5011.4 4995.5 5011.4 4987.4 5017.3 4984.3 5007.8 4976.2 5013.6 4966.2 5013.6 4958.1 5019.5 4966.2 5025.4 4974.3 5031.3 4971.2 5021.8 4963.1 5027.6 4973.1 5027.6 4970 5037.2 4960 5037.2 4957 5046.7 4953.9 5037.2 4950.8 5027.6 4958.9 5021.8 4955.8 5031.3 4947.7 5037.2 4955.8 5031.3 4952.7 5040.8 4955.8 5031.3 4947.7 5025.4 4937.7 5025.4 4940.8 5015.9 4930.8 5015.9" clip-path="url(#a)" fill="none" stroke="#000" stroke-linecap="round"/>
<polyline points="4930.8 5015.9 4922.7 5010 4912.7 5010 4915.8 5019.5 4918.9 5029 4922 5019.5 4912 5019.5 4920 5025.4 4912 5031.3 4903.9 5025.4 4895.8 5031.3 4898.9 5021.8 4902 5012.3 4912 5012.3 4903.9 5018.1 4893.9 5018.1 4903.9 5018.1 4895.8 5024 4903.9 5018.1 4900.8 5008.6 4892.7 5002.7 4900.8 4996.9 4892.7 4991 4889.6 4981.5 4881.5 4975.6 4878.4 4985.1 4875.3 4994.6 4883.4 4988.7 4875.3 4982.9 4878.4 4992.4 4868.4 4992.4 4865.3 4982.9 4855.3 4982.9 4863.4 4977 4871.5 4971.1 4879.6 4977 4869.6 4977 4861.5 4971.1 4869.6 4977 4859.6 4977 4869.6 4977 4872.7 4967.5 4869.6 4958" clip-path="url(#a)" fill="none" stroke="#000" stroke-linecap="round"/>
<polyline points="4869.6 4958 4879.6 4958 4876.5 4948.5 4879.6 4938.9 4876.5 4929.4 4868.4 4935.3 4860.3 4941.2 4870.3 4941.2 4867.2 4931.7 4864.1 4941.2 4856.1 4935.3 4859.1 4925.8 4851.1 4919.9 4861.1 4919.9 4871.1 4919.9 4874.1 4929.4 4866.1 4923.6 4863 4914 4866.1 4923.6 4858 4917.7 4866.1 4923.6 4874.1 4917.7 4877.2 4908.2 4885.3 4914 4888.4 4904.5 4896.5 4898.7 4899.6 4889.1 4889.6 4889.1 4879.6 4889.1 4887.7 4895 4890.8 4885.5 4882.7 4891.4 4879.6 4881.9 4887.7 4876 4884.6 4866.5 4892.7 4872.4 4900.8 4878.3 4897.7 4887.8 4894.6 4878.3 4897.7 4868.7 4894.6 4878.3 4891.5 4868.7 4894.6 4878.3" clip-path="url(#a)" fill="none" stroke="#000" stroke-linecap="round"/>
<polyline points="4894.6 4878.3 4904.6 4878.3 4912.7 4872.4 4915.8 4881.9 4923.9 4876 4933.9 4876 4942 4870.1 4933.9 4864.2 4925.8 4858.4 4928.9 4867.9 4937 4862 4927 4862 4930 4852.5 4940 4852.5 4943.1 4843 4946.2 4852.5 4949.3 4862 4941.2 4867.9 4944.3 4858.4 4952.4 4852.5 4944.3 4858.4 4947.4 4848.9 4944.3 4858.4 4952.4 4864.2 4962.4 4864.2 4959.3 4873.8 4969.3 4873.8 4977.4 4879.6 4987.4 4879.6 4984.3 4870.1 4981.2 4860.6 4978.1 4870.1 4988.1 4870.1 4980 4864.2 4988.1 4858.4 4996.2 4864.2 5004.3 4858.4 5001.2 4867.9 4998.1 4877.4 4988.1 4877.4 4996.2 4871.5 5006.2 4871.5 4996.2 4871.5" clip-path="url(#a)" fill="none" stroke="#000" stroke-linecap="round"/>
<polyline points="4996.2 4871.5 5004.3 4865.6 4996.2 4871.5 4999.3 4881 5007.4 4886.9 4999.3 4892.8 5007.4 4898.7 5010.5 4908.2 5018.6 4914 5021.7 4904.5 5024.8 4895 5016.7 4900.9 5024.8 4906.8 5021.7 4897.3 5031.7 4897.3 5034.8 4906.8 5044.8 4906.8 5036.7 4912.7 5028.6 4918.5 5020.5 4912.7 5030.5 4912.7 5038.6 4918.5 5030.5 4912.7 5040.5 4912.7 5030.5 4912.7 5027.4 4922.2 5030.5 4931.7 5020.5 4931.7 5023.6 4941.2 5020.5 4950.7 5023.6 4960.2 5031.7 4954.3 5039.8 4948.5 5029.8 4948.5 5032.9 4958 5036 4948.5 5044 4954.3 5041 4963.8 5049 4969.7 5039 4969.7 5029 4969.7 5026 4960.2 5034 4966.1" clip-path="url(#a)" fill="none" stroke="#000" stroke-linecap="round"/>
<polyline points="5034 4966.1 5037.1 4975.6 5034 4966.1 5042.1 4972 5034 4966.1 5026 4972 5022.9 4981.5 5014.8 4975.6 5011.7 4985.1 5003.6 4991 5000.5 5000.5 5010.5 5000.5 5020.5 5000.5 5012.4 4994.6 5009.3 5004.1 5017.4 4998.3 5020.5 5007.8 5012.4 5013.6 5015.5 5023.2 5007.4 5017.3 4999.3 5011.4 5002.4 5001.9 5005.5 5011.4 5002.4 5020.9 5005.5 5011.4 5008.6 5020.9 5005.5 5011.4 4995.5 5011.4 4987.4 5017.3 4984.3 5007.8 4976.2 5013.6 4966.2 5013.6 4958.1 5019.5 4966.2 5025.4 4974.3 5031.3 4971.2 5021.8 4963.1 5027.6 4973.1 5027.6 4970 5037.2 4960 5037.2 4957 5046.7 4953.9 5037.2 4950.8 5027.6" clip-path="url(#a)" fill="none" stroke="#000" stroke-linecap="round"/>
<polyline points="4950.8 5027.6 4958.9 5021.8 4955.8 5031.3 4947.7 5037.2 4955.8 5031.3 4952.7 5040.8 4955.8 5031.3 4947.7 5025.4 4937.7 5025.4 4940.8 5015.9 4930.8 5015.9 4922.7 5010 4912.7 5010 4915.8 5019.5 4918.9 5029 4922 5019.5 4912 5019.5 4920 5025.4 4912 5031.3 4903.9 5025.4 4895.8 5031.3 4898.9 5021.8 4902 5012.3 4912 5012.3 4903.9 5018.1 4893.9 5018.1 4903.9 5018.1 4895.8 5024 4903.9 5018.1 4900.8 5008.6 4892.7 5002.7 4900.8 4996.9 4892.7 4991 4889.6 4981.5 4881.5 4975.6 4878.4 4985.1 4875.3 4994.6 4883.4 4988.7 4875.3 4982.9 4878.4 4992.4 4868.4 4992.4 4865.3 4982.9 4855.3 4982.9" clip-path="url(#a)" fill="none" stroke="#000" stroke-linecap="round"/>
<polyline points="4855.3 4982.9 4863.4 4977 4871.5 4971.1 4879.6 4977 4869.6 4977 4861.5 4971.1 4869.6 4977 4859.6 4977 4869.6 4977 4872.7 4967.5 4869.6 4958 4879.6 4958 4876.5 4948.5 4879.6 4938.9 4876.5 4929.4 4868.4 4935.3 4860.3 4941.2 4870.3 4941.2 4867.2 4931.7 4864.1 4941.2 4856.1 4935.3 4859.1 4925.8 4851.1 4919.9 4861.1 4919.9 4871.1 4919.9 4874.1 4929.4 4866.1 4923.6 4863 4914 4866.1 4923.6 4858 4917.7 4866.1 4923.6 4874.1 4917.7 4877.2 4908.2 4885.3 4914 4888.4 4904.5 4896.5 4898.7 4899.6 4889.1 4889.6 4889.1 4879.6 4889.1 4887.7 4895 4890.8 4885.5 4882.7 4891.4 4879.6 4881.9" clip-path="url(#a)" fill="none" stroke="#000" stroke-linecap="round"/>
<polyline points="4879.6 4881.9 4887.7 4876 4884.6 4866.5 4892.7 4872.4 4900.8 4878.3 4897.7 4887.8 4894.6 4878.3 4897.7 4868.7 4894.6 4878.3 4891.5 4868.7 4894.6 4878.3 4904.6 4878.3 4912.7 4872.4 4915.8 4881.9 4923.9 4876 4933.9 4876 4942 4870.1 4933.9 4864.2 4925.8 4858.4 4928.9 4867.9 4937 4862 4927 4862 4930 4852.5 4940 4852.5 4943.1 4843 4946.2 4852.5 4949.3 4862 4941.2 4867.9 4944.3 4858.4 4952.4 4852.5 4944.3 4858.4 4947.4 4848.9 4944.3 4858.4 4952.4 4864.2 4962.4 4864.2 4959.3 4873.8 4969.3 4873.8 4977.4 4879.6 4987.4 4879.6 4984.3 4870.1 4981.2 4860.6 4978.1 4870.1 4988.1 4870.1" clip-path="url(#a)" fill="none" stroke="#000" stroke-linecap="round"/>
<polyline points="4988.1 4870.1 4980 4864.2 4988.1 4858.4 4996.2 4864.2 5004.3 4858.4 5001.2 4867.9 4998.1 4877.4 4988.1 4877.4 4996.2 4871.5 5006.2 4871.5 4996.2 4871.5 5004.3 4865.6 4996.2 4871.5 4999.3 4881 5007.4 4886.9 4999.3 4892.8 5007.4 4898.7 5010.5 4908.2 5018.6 4914 5021.7 4904.5 5024.8 4895 5016.7 4900.9 5024.8 4906.8 5021.7 4897.3 5031.7 4897.3 5034.8 4906.8 5044.8 4906.8 5036.7 4912.7 5028.6 4918.5 5020.5 4912.7 5030.5 4912.7 5038.6 4918.5 5030.5 4912.7 5040.5 4912.7 5030.5 4912.7 5027.4 4922.2 5030.5 4931.7 5020.5 4931.7 5023.6 4941.2 5020.5 4950.7 5023.6 4960.2 5031.7 4954.3 5039.8 4948.5" clip-path="url(#a)" fill="none" stroke="#000" stroke-linecap="round"/>
<polyline points="5039.8 4948.5 5029.8 4948.5 5032.9 4958 5036 4948.5 5044 4954.3 5041 4963.8 5049 4969.7 5039 4969.7 5029 4969.7 5026 4960.2 5034 4966.1 5037.1 4975.6 5034 4966.1 5042.1 4972 5034 4966.1 5026 4972 5022.9 4981.5 5014.8 4975.6 5011.7 4985.1 5003.6 4991 5000.5 5000.5" clip-path="url(#a)" fill="none" stroke="#000" stroke-linecap="round"/>
</svg>
