<?xml version="1.0" encoding="utf-8" ?>
<svg baseProfile="full" height="10000px" version="1.1" width="10000px" xmlns="http://www.w3.org/2000/svg" xmlns:ev="http://www.w3.org/2001/xml-events" xmlns:xlink="http://www.w3.org/1999/xlink"><defs><clipPath id="border_clip"><rect height="10000" width="10000" x="0" y="0" /></clipPath></defs><polyline clip-path="url(#border_clip)" fill="none" points="5000.5,5000.5 5010.5,5000.5 5020.5,5000.5 5012.409830056251,4994.6221474770755 5009.319660112501,5004.1327126400265 5017.409830056251,4998.254860117102 5020.5,5007.765425280054 5012.409830056251,5013.643277802978 5015.5,5023.1538429659295 5007.409830056251,5017.275990443005 4999.319660112501,5011.39813792008 5002.409830056251,5001.8875727571285 5005.5,5011.39813792008 5002.409830056251,5020.908703083032 5005.5,5011.39813792008 5008.590169943749,5020.908703083032 5005.5,5011.39813792008 4995.5,5011.39813792008 4987.409830056251,5017.275990443005 4984.319660112501,5007.765425280054 4976.229490168752,5013.643277802978 4966.229490168752,5013.643277802978 4958.139320225002,5019.521130325903 4966.229490168752,5025.3989828488275 4974.319660112501,5031.276835371753 4971.229490168752,5021.766270208801 4963.139320225002,5027.6441227317255 4973.139320225002,5027.6441227317255 4970.049150281253,5037.154687894677 4960.049150281253,5037.154687894677 4956.958980337503,5046.665253057628 4953.868810393754,5037.154687894677 4950.778640450004,5027.6441227317255 4958.868810393754,5021.766270208801 4955.778640450004,5031.276835371752 4947.688470506255,5037.154687894677 4955.778640450004,5031.276835371752 4952.688470506255,5040.787400534704 4955.778640450004,5031.276835371752 4947.688470506255,5025.3989828488275 4937.688470506255,5025.3989828488275 4940.778640450004,5015.888417685876 4930.778640450004,5015.888417685876" stroke="black" stroke-linecap="round" stroke-width="1" /><polyline clip-path="url(#border_clip)" fill="none" points="4930.778640450004,5015.888417685876 4922.688470506255,5010.010565162951 4912.688470506255,5010.010565162951 4915.778640450004,5019.521130325903 4918.868810393754,5029.031695488854 4921.958980337503,5019.521130325903 4911.958980337503,5019.521130325903 4920.049150281253,5025.3989828488275 4911.958980337503,5031.276835371752 4903.868810393754,5025.3989828488275 4895.778640450004,5031.276835371752 4898.868810393754,5021.766270208801 4901.958980337503,5012.255705045849 4911.958980337503,5012.255705045849 4903.868810393754,5018.1335575687735 4893.868810393754,5018.1335575687735 4903.868810393754,5018.1335575687735 4895.778640450004,5024.011410091698 4903.868810393754,5018.1335575687735 4900.778640450004,5008.6229924058225 4892.688470506255,5002.745139882897 4900.778640450005,4996.867287359973 4892.688470506255,4990.989434837048 4889.598300562506,4981.478869674096 4881.508130618756,4975.601017151172 4878.417960675007,4985.111582314124 4875.327790731257,4994.622147477075 4883.417960675007,4988.74429495415 4875.327790731257,4982.866442431226 4878.417960675007,4992.377007594177 4868.417960675007,4992.377007594177 4865.327790731257,4982.866442431225 4855.327790731257,4982.866442431225 4863.417960675007,4976.9885899083 4871.508130618756,4971.110737385376 4879.598300562506,4976.9885899083 4869.598300562506,4976.9885899083 4861.508130618756,4971.110737385376 4869.598300562506,4976.9885899083 4859.598300562506,4976.9885899083 4869.598300562506,4976.9885899083 4872.688470506255,4967.478024745349 4869.598300562506,4957.967459582397" stroke="black" stroke-linecap="round" stroke-width="1" /><polyline clip-path="url(#border_clip)" fill="none" points="4869.598300562506,4957.967459582397 4879.598300562506,4957.967459582397 4876.508130618757,4948.456894419446 4879.598300562506,4938.946329256494 4876.508130618757,4929.435764093542 4868.417960675007,4935.313616616468 4860.327790731258,4941.191469139392 4870.327790731258,4941.191469139392 4867.237620787508,4931.68090397644 4864.147450843759,4941.191469139392 4856.057280900009,4935.313616616467 4859.147450843759,4925.803051453516 4851.05728090001,4919.925198930591 4861.05728090001,4919.925198930591 4871.05728090001,4919.925198930591 4874.147450843759,4929.435764093542 4866.05728090001,4923.557911570618 4862.96711095626,4914.047346407666 4866.05728090001,4923.557911570618 4857.96711095626,4917.680059047693 4866.05728090001,4923.557911570618 4874.147450843759,4917.680059047693 4877.237620787509,4908.169493884741 4885.327790731258,4914.047346407667 4888.417960675008,4904.536781244715 4896.508130618757,4898.65892872179 4899.598300562507,4889.148363558839 4889.598300562507,4889.148363558838 4879.598300562507,4889.148363558838 4887.688470506256,4895.026216081764 4890.778640450006,4885.515650918812 4882.688470506256,4891.393503441736 4879.598300562507,4881.882938278785 4887.688470506256,4876.005085755861 4884.598300562507,4866.494520592909 4892.688470506257,4872.372373115833 4900.778640450006,4878.250225638759 4897.688470506256,4887.76079080171 4894.598300562507,4878.250225638759 4897.688470506257,4868.739660475807 4894.598300562507,4878.250225638759 4891.508130618758,4868.739660475807 4894.598300562507,4878.250225638759" stroke="black" stroke-linecap="round" stroke-width="1" /><polyline clip-path="url(#border_clip)" fill="none" points="4894.598300562507,4878.250225638759 4904.598300562507,4878.250225638759 4912.688470506257,4872.372373115834 4915.778640450006,4881.882938278785 4923.868810393755,4876.005085755861 4933.868810393755,4876.005085755861 4941.958980337505,4870.127233232936 4933.868810393756,4864.249380710012 4925.778640450006,4858.371528187086 4928.868810393756,4867.882093350038 4936.958980337505,4862.004240827114 4926.958980337505,4862.004240827114 4930.049150281255,4852.493675664162 4940.049150281255,4852.493675664162 4943.139320225004,4842.983110501211 4946.229490168754,4852.493675664162 4949.319660112503,4862.004240827114 4941.229490168753,4867.882093350038 4944.319660112503,4858.371528187087 4952.409830056253,4852.493675664163 4944.319660112503,4858.371528187087 4947.409830056253,4848.860963024135 4944.319660112503,4858.371528187087 4952.409830056252,4864.249380710012 4962.409830056252,4864.249380710012 4959.319660112503,4873.759945872964 4969.319660112503,4873.759945872964 4977.409830056252,4879.637798395888 4987.409830056252,4879.637798395889 4984.319660112503,4870.127233232937 4981.229490168754,4860.616668069985 4978.139320225004,4870.127233232937 4988.139320225004,4870.127233232937 4980.049150281255,4864.249380710013 4988.139320225004,4858.371528187088 4996.229490168754,4864.249380710013 5004.319660112503,4858.371528187088 5001.229490168754,4867.882093350039 4998.139320225004,4877.392658512991 4988.139320225004,4877.392658512991 4996.229490168753,4871.514805990067 5006.229490168753,4871.514805990067 4996.229490168753,4871.514805990067" stroke="black" stroke-linecap="round" stroke-width="1" /><polyline clip-path="url(#border_clip)" fill="none" points="4996.229490168753,4871.514805990067 5004.319660112503,4865.636953467142 4996.229490168753,4871.514805990067 4999.319660112503,4881.025371153018 5007.409830056252,4886.903223675943 4999.319660112502,4892.781076198868 5007.409830056252,4898.658928721792 5010.500000000001,4908.169493884744 5018.59016994375,4914.047346407669 5021.6803398875,4904.5367812447175 5024.77050983125,4895.026216081766 5016.6803398875,4900.90406860469 5024.770509831249,4906.7819211276155 5021.6803398875,4897.271355964664 5031.6803398875,4897.271355964664 5034.770509831249,4906.7819211276155 5044.770509831249,4906.7819211276155 5036.6803398875,4912.65977365054 5028.59016994375,4918.537626173465 5020.500000000001,4912.65977365054 5030.500000000001,4912.65977365054 5038.59016994375,4918.5376261734655 5030.500000000001,4912.65977365054 5040.500000000001,4912.65977365054 5030.500000000001,4912.65977365054 5027.409830056251,4922.170338813492 5030.5,4931.680903976443 5020.5,4931.680903976443 5023.59016994375,4941.191469139395 5020.5,4950.702034302346 5023.590169943749,4960.212599465298 5031.680339887499,4954.334746942373 5039.770509831248,4948.456894419449 5029.770509831248,4948.456894419449 5032.860679774998,4957.9674595824 5035.950849718747,4948.456894419449 5044.041019662497,4954.334746942373 5040.950849718747,4963.845312105325 5049.041019662496,4969.72316462825 5039.041019662496,4969.72316462825 5029.041019662496,4969.72316462825 5025.950849718747,4960.212599465298 5034.041019662496,4966.090451988223" stroke="black" stroke-linecap="round" stroke-width="1" /><polyline clip-path="url(#border_clip)" fill="none" points="5034.041019662496,4966.090451988223 5037.131189606246,4975.601017151174 5034.041019662496,4966.090451988223 5042.131189606246,4971.968304511148 5034.041019662496,4966.090451988223 5025.950849718747,4971.968304511148 5022.860679774997,4981.478869674099 5014.770509831248,4975.601017151174 5011.680339887498,4985.111582314125 5003.590169943748,4990.98943483705 5000.499999999999,5000.500000000002 5010.499999999999,5000.500000000002 5020.499999999999,5000.500000000002 5012.409830056249,4994.622147477077 5009.3196601125,5004.132712640028 5017.409830056249,4998.254860117104 5020.499999999998,5007.765425280056 5012.409830056249,5013.64327780298 5015.499999999998,5023.153842965932 5007.409830056249,5017.275990443007 4999.319660112499,5011.398137920082 5002.409830056249,5001.88757275713 5005.499999999998,5011.398137920082 5002.409830056248,5020.908703083033 5005.499999999998,5011.398137920082 5008.590169943747,5020.908703083033 5005.499999999998,5011.398137920082 4995.499999999998,5011.398137920081 4987.409830056249,5017.275990443006 4984.319660112499,5007.765425280055 4976.22949016875,5013.643277802979 4966.22949016875,5013.643277802978 4958.139320225,5019.521130325903 4966.229490168749,5025.398982848828 4974.319660112499,5031.276835371753 4971.229490168749,5021.766270208802 4963.139320225,5027.644122731726 4973.139320225,5027.644122731726 4970.04915028125,5037.154687894678 4960.04915028125,5037.154687894677 4956.9589803375,5046.665253057629 4953.868810393751,5037.154687894677 4950.778640450002,5027.6441227317255" stroke="black" stroke-linecap="round" stroke-width="1" /><polyline clip-path="url(#border_clip)" fill="none" points="4950.778640450002,5027.6441227317255 4958.868810393752,5021.766270208801 4955.778640450002,5031.276835371753 4947.688470506252,5037.154687894677 4955.778640450002,5031.276835371753 4952.688470506252,5040.787400534704 4955.778640450002,5031.276835371753 4947.688470506253,5025.3989828488275 4937.688470506252,5025.3989828488275 4940.778640450002,5015.888417685876 4930.778640450002,5015.8884176858755 4922.688470506253,5010.010565162951 4912.688470506253,5010.01056516295 4915.778640450002,5019.521130325902 4918.868810393751,5029.031695488854 4921.958980337501,5019.521130325902 4911.958980337501,5019.521130325902 4920.04915028125,5025.398982848827 4911.958980337501,5031.276835371751 4903.868810393751,5025.398982848827 4895.778640450002,5031.276835371751 4898.868810393751,5021.766270208799 4901.958980337501,5012.255705045848 4911.958980337501,5012.255705045848 4903.868810393751,5018.133557568773 4893.868810393751,5018.133557568773 4903.868810393751,5018.133557568773 4895.778640450002,5024.011410091697 4903.868810393751,5018.133557568773 4900.778640450002,5008.622992405821 4892.688470506253,5002.745139882896 4900.778640450003,4996.867287359972 4892.688470506254,4990.989434837046 4889.598300562504,4981.478869674095 4881.508130618755,4975.60101715117 4878.417960675005,4985.111582314122 4875.327790731255,4994.622147477073 4883.417960675005,4988.744294954148 4875.327790731256,4982.866442431224 4878.417960675005,4992.377007594175 4868.417960675005,4992.377007594175 4865.327790731256,4982.866442431223 4855.327790731256,4982.866442431223" stroke="black" stroke-linecap="round" stroke-width="1" /><polyline clip-path="url(#border_clip)" fill="none" points="4855.327790731256,4982.866442431223 4863.417960675006,4976.988589908298 4871.508130618755,4971.110737385374 4879.598300562505,4976.988589908298 4869.598300562504,4976.988589908298 4861.508130618755,4971.110737385373 4869.598300562504,4976.988589908298 4859.598300562504,4976.988589908298 4869.598300562504,4976.988589908298 4872.688470506254,4967.478024745347 4869.598300562505,4957.967459582395 4879.598300562505,4957.967459582395 4876.508130618756,4948.456894419444 4879.598300562506,4938.946329256492 4876.508130618757,4929.4357640935405 4868.417960675007,4935.313616616465 4860.327790731257,4941.1914691393895 4870.327790731257,4941.19146913939 4867.237620787508,4931.6809039764385 4864.147450843759,4941.1914691393895 4856.057280900009,4935.313616616465 4859.147450843759,4925.803051453513 4851.05728090001,4919.9251989305885 4861.05728090001,4919.9251989305885 4871.05728090001,4919.9251989305885 4874.147450843759,4929.4357640935405 4866.05728090001,4923.557911570616 4862.9671109562605,4914.047346407664 4866.05728090001,4923.557911570616 4857.9671109562605,4917.6800590476905 4866.05728090001,4923.557911570616 4874.1474508437595,4917.680059047691 4877.237620787509,4908.1694938847395 4885.327790731259,4914.047346407665 4888.4179606750085,4904.536781244713 4896.508130618758,4898.6589287217885 4899.598300562508,4889.148363558837 4889.598300562508,4889.1483635588365 4879.598300562508,4889.1483635588365 4887.688470506257,4895.026216081762 4890.778640450007,4885.51565091881 4882.688470506257,4891.3935034417345 4879.598300562508,4881.882938278783" stroke="black" stroke-linecap="round" stroke-width="1" /><polyline clip-path="url(#border_clip)" fill="none" points="4879.598300562508,4881.882938278783 4887.6884705062575,4876.005085755858 4884.5983005625085,4866.494520592907 4892.6884705062575,4872.372373115832 4900.7786404500075,4878.250225638757 4897.6884705062575,4887.760790801708 4894.5983005625085,4878.250225638757 4897.688470506258,4868.739660475805 4894.5983005625085,4878.250225638757 4891.508130618759,4868.739660475805 4894.5983005625085,4878.250225638757 4904.5983005625085,4878.250225638757 4912.6884705062575,4872.3723731158325 4915.7786404500075,4881.882938278784 4923.868810393757,4876.00508575586 4933.868810393757,4876.00508575586 4941.958980337507,4870.127233232936 4933.8688103937575,4864.249380710011 4925.778640450008,4858.3715281870855 4928.8688103937575,4867.882093350037 4936.958980337507,4862.004240827113 4926.958980337507,4862.004240827113 4930.0491502812565,4852.493675664161 4940.0491502812565,4852.493675664162 4943.1393202250065,4842.98311050121 4946.229490168756,4852.493675664162 4949.319660112505,4862.004240827114 4941.229490168756,4867.882093350038 4944.319660112505,4858.371528187086 4952.409830056255,4852.493675664162 4944.3196601125055,4858.371528187086 4947.409830056255,4848.860963024135 4944.3196601125055,4858.371528187086 4952.409830056255,4864.249380710012 4962.409830056255,4864.249380710012 4959.319660112505,4873.759945872964 4969.319660112505,4873.759945872964 4977.409830056254,4879.637798395889 4987.409830056254,4879.637798395889 4984.319660112505,4870.127233232938 4981.229490168756,4860.616668069986 4978.139320225006,4870.127233232937 4988.139320225006,4870.127233232938" stroke="black" stroke-linecap="round" stroke-width="1" /><polyline clip-path="url(#border_clip)" fill="none" points="4988.139320225006,4870.127233232938 4980.0491502812565,4864.249380710013 4988.1393202250065,4858.371528187088 4996.229490168756,4864.249380710014 5004.3196601125055,4858.371528187089 5001.229490168756,4867.882093350041 4998.139320225006,4877.392658512992 4988.139320225006,4877.392658512991 4996.229490168756,4871.5148059900675 5006.229490168756,4871.5148059900675 4996.229490168756,4871.5148059900675 5004.3196601125055,4865.636953467143 4996.229490168756,4871.5148059900675 4999.319660112505,4881.025371153019 5007.409830056254,4886.903223675944 4999.319660112504,4892.7810761988685 5007.409830056253,4898.658928721794 5010.500000000002,4908.169493884745 5018.590169943752,4914.04734640767 5021.680339887502,4904.536781244719 5024.770509831251,4895.026216081767 5016.680339887502,4900.904068604692 5024.770509831251,4906.781921127617 5021.680339887502,4897.271355964665 5031.680339887502,4897.271355964665 5034.770509831251,4906.781921127617 5044.770509831251,4906.781921127618 5036.680339887501,4912.659773650543 5028.590169943751,4918.537626173466 5020.500000000002,4912.659773650542 5030.500000000002,4912.659773650542 5038.590169943751,4918.537626173467 5030.500000000002,4912.659773650542 5040.500000000002,4912.659773650543 5030.500000000002,4912.659773650542 5027.409830056252,4922.170338813494 5030.500000000001,4931.680903976446 5020.500000000001,4931.680903976445 5023.59016994375,4941.191469139397 5020.5,4950.702034302348 5023.590169943749,4960.2125994653 5031.680339887499,4954.334746942375 5039.770509831249,4948.456894419451" stroke="black" stroke-linecap="round" stroke-width="1" /><polyline clip-path="url(#border_clip)" fill="none" points="5039.770509831249,4948.456894419451 5029.770509831249,4948.456894419451 5032.860679774998,4957.967459582403 5035.950849718748,4948.456894419451 5044.041019662497,4954.334746942376 5040.950849718747,4963.845312105327 5049.041019662496,4969.723164628253 5039.041019662496,4969.723164628253 5029.041019662496,4969.723164628252 5025.950849718747,4960.2125994653 5034.041019662496,4966.090451988225 5037.131189606245,4975.601017151177 5034.041019662496,4966.090451988225 5042.131189606245,4971.968304511151 5034.041019662496,4966.090451988225 5025.950849718746,4971.96830451115 5022.860679774996,4981.478869674101 5014.770509831247,4975.601017151175 5011.680339887497,4985.111582314127 5003.590169943747,4990.989434837052 5000.499999999997,5000.500000000003" stroke="black" stroke-linecap="round" stroke-width="1" /></svg>