<?xml version="1.0" encoding="utf-8" ?>
<svg baseProfile="full" height="1000px" version="1.1" width="1000px" xmlns="http://www.w3.org/2000/svg" xmlns:ev="http://www.w3.org/2001/xml-events" xmlns:xlink="http://www.w3.org/1999/xlink"><defs><clipPath id="border_clip"><rect height="1000" width="1000" x="0" y="0" /></clipPath></defs><polyline clip-path="url(#border_clip)" fill="none" points="500.5,500.5 510.5,500.5 502.40983005625054,494.62214747707526 499.319660112501,504.1327126400268 507.40983005625054,498.25486011710206 510.5,507.7654252800536 502.40983005625054,513.6432778029783 505.5,523.1538429659299 497.40983005625054,517.2759904430052 489.319660112501,511.3981379200804 492.40983005625054,501.88757275712885 495.5,511.3981379200804 492.4098300562505,520.9087030830319 495.5,511.3981379200804 498.59016994374946,520.9087030830319 495.5,511.3981379200804 485.5,511.3981379200804 477.4098300562505,517.2759904430051 474.3196601125011,507.76542528005353 466.22949016875157,513.6432778029782 456.22949016875157,513.6432778029782 448.13932022500205,519.521130325903 456.22949016875157,525.3989828488277 464.319660112501,531.2768353717524 461.22949016875157,521.766270208801 453.13932022500205,527.6441227317256 463.13932022500205,527.6441227317257 460.04915028125254,537.1546878946772 450.04915028125254,537.1546878946772 446.958980337503,546.6652530576287 443.8688103937536,537.1546878946772 440.77864045000416,527.6441227317256 448.8688103937537,521.7662702088008 445.77864045000416,531.2768353717524 437.68847050625465,537.1546878946771 445.77864045000416,531.2768353717524 442.68847050625465,540.7874005347039 445.77864045000416,531.2768353717524 437.6884705062547,525.3989828488277 427.6884705062547,525.3989828488276 430.7786404500042,515.8884176858761 420.7786404500042,515.888417685876 412.68847050625476,510.01056516295125" stroke="black" stroke-linecap="round" stroke-width="1" /><polyline clip-path="url(#border_clip)" fill="none" points="412.68847050625476,510.01056516295125 402.6884705062547,510.0105651629512 405.77864045000416,519.5211303259027 408.8688103937536,529.0316954888543 411.95898033750314,519.5211303259028 401.95898033750314,519.5211303259027 410.04915028125254,525.3989828488275 401.958980337503,531.2768353717522 393.8688103937536,525.3989828488275 385.7786404500041,531.2768353717521 388.8688103937536,521.7662702088006 391.95898033750314,512.255705045849 401.9589803375032,512.2557050458491 393.8688103937537,518.1335575687738 383.8688103937536,518.1335575687738 393.8688103937537,518.1335575687738 385.7786404500041,524.0114100916985 393.8688103937537,518.1335575687738 390.7786404500042,508.62299240582223 382.6884705062548,502.74513988289743 390.77864045000433,496.86728735997275 382.6884705062549,490.98943483704795 379.5983005625055,481.4788696740964 371.508130618756,475.6010171511716 368.4179606750065,485.1115823141231 365.327790731257,494.62214747707463 373.4179606750065,488.74429495414995 365.32779073125704,482.86644243122515 368.41796067500644,492.37700759417675 358.41796067500644,492.3770075941767 355.32779073125704,482.8664424312251 345.32779073125704,482.866442431225 353.4179606750066,476.98858990830036 361.5081306187561,471.11073738537567 369.59830056250553,476.98858990830047 359.59830056250553,476.9885899083004 351.5081306187561,471.11073738537556 359.59830056250553,476.9885899083004 349.59830056250553,476.9885899083003 359.59830056250553,476.9885899083004 362.6884705062551,467.4780247453489 359.59830056250576,457.9674595823973 369.59830056250576,457.9674595823974" stroke="black" stroke-linecap="round" stroke-width="1" /><polyline clip-path="url(#border_clip)" fill="none" points="369.59830056250576,457.9674595823974 366.50813061875635,448.4568944194458 369.598300562506,438.9463292564943 366.5081306187566,429.43576409354273 358.41796067500707,435.31361661646736 350.3277907312575,441.19146913939204 360.3277907312575,441.19146913939215 357.23762078750815,431.68090397644056 354.1474508437585,441.19146913939204 346.0572809000091,435.31361661646724 349.1474508437587,425.8030514535157 341.05728090000923,419.9251989305909 351.0572809000093,419.925198930591 361.0572809000093,419.92519893059114 364.14745084375863,429.4357640935427 356.05728090000923,423.5579115706179 352.96711095625983,414.0473464076663 356.05728090000923,423.5579115706179 347.96711095625983,417.680059047693 356.05728090000923,423.5579115706179 364.1474508437588,417.6800590476932 367.2376207875084,408.1694938847417 375.32779073125783,414.0473464076665 378.4179606750074,404.53678124471503 386.508130618757,398.6589287217904 389.59830056250655,389.1483635588389 379.59830056250655,389.14836355883875 369.59830056250655,389.14836355883864 377.68847050625595,395.0262160817635 380.7786404500056,385.51565091881196 372.688470506256,391.3935034417366 369.59830056250667,381.882938278785 377.6884705062562,376.00508575586036 374.5983005625069,366.49452059290877 382.6884705062563,372.3723731158336 390.7786404500057,378.2502256387585 387.68847050625607,387.76079080171 384.5983005625067,378.2502256387584 387.6884705062563,368.7396604758069 384.5983005625067,378.2502256387584 381.5081306187574,368.73966047580683 384.5983005625067,378.2502256387584 394.5983005625067,378.2502256387586" stroke="black" stroke-linecap="round" stroke-width="1" /><polyline clip-path="url(#border_clip)" fill="none" points="394.5983005625067,378.2502256387586 402.6884705062563,372.37237311583397 405.77864045000564,381.88293827878556 413.8688103937552,376.00508575586093 423.8688103937552,376.0050857558611 431.9589803375048,370.1272332329365 423.8688103937554,364.2493807100116 415.778640450006,358.37152818708677 418.8688103937553,367.88209335003836 426.9589803375049,362.00424082711373 416.9589803375049,362.00424082711356 420.0491502812545,352.4936756641621 430.0491502812545,352.4936756641622 433.13932022500416,342.9831105012107 436.2294901687535,352.4936756641623 439.3196601125028,362.0042408271139 431.2294901687532,367.88209335003853 434.31966011250285,358.371528187087 442.4098300562524,352.4936756641624 434.31966011250285,358.371528187087 437.40983005625253,348.86096302413546 434.31966011250285,358.371528187087 442.40983005625225,364.2493807100119 452.40983005625225,364.249380710012 449.3196601125026,373.75994587296356 459.3196601125026,373.7599458729637 467.409830056252,379.6377983958886 477.409830056252,379.6377983958888 474.31966011250273,370.1272332329372 471.22949016875344,360.61666806998556 468.13932022500376,370.1272332329371 478.13932022500376,370.1272332329373 470.0491502812544,364.24938071001236 478.139320225004,358.3715281870878 486.2294901687534,364.2493807100127 494.319660112503,358.3715281870881 491.22949016875333,367.8820933500396 488.13932022500364,377.3926585129911 478.13932022500364,377.3926585129909 486.2294901687533,371.5148059900663 496.2294901687533,371.5148059900665 486.2294901687533,371.5148059900663 494.31966011250285,365.6369534671418" stroke="black" stroke-linecap="round" stroke-width="1" /><polyline clip-path="url(#border_clip)" fill="none" points="494.31966011250285,365.6369534671418 486.2294901687533,371.5148059900663 489.31966011250256,381.02537115301794 497.4098300562519,386.90322367594285 489.3196601125023,392.7810761988674 497.4098300562517,398.65892872179234 500.50000000000097,408.169493884744 508.5901699437503,414.0473464076689 511.6803398875,404.5367812447174 514.7705098312497,395.0262160817659 506.68033988750005,400.90406860469045 514.7705098312495,406.7819211276154 511.68033988750017,397.27135596466377 521.6803398875002,397.271355964664 524.7705098312495,406.7819211276156 534.7705098312495,406.7819211276158 526.6803398874998,412.6597736505404 518.5901699437502,418.53762617346496 510.5000000000009,412.65977365054005 520.5000000000009,412.6597736505403 528.5901699437503,418.5376261734652 520.5000000000009,412.6597736505403 530.5000000000009,412.6597736505405 520.5000000000009,412.6597736505403 517.4098300562512,422.17033881349175 520.5000000000005,431.68090397644335 510.50000000000045,431.6809039764431 513.5901699437497,441.19146913939477 510.5,450.7020343023463 513.5901699437493,460.2125994652979 521.6803398874989,454.33474694237333 529.7705098312485,448.45689441944876 519.7705098312485,448.45689441944853 522.8606797749978,457.9674595824002 525.9508497187475,448.4568944194487 534.0410196624969,454.3347469423736 530.9508497187471,463.84531210532515 539.0410196624965,469.72316462825006 529.0410196624964,469.72316462824983 519.0410196624964,469.7231646282496 515.9508497187472,460.21259946529796 524.0410196624965,466.09045198822287 527.1311896062458,475.6010171511745" stroke="black" stroke-linecap="round" stroke-width="1" /><polyline clip-path="url(#border_clip)" fill="none" points="527.1311896062458,475.6010171511745 524.0410196624965,466.09045198822287 532.1311896062459,471.96830451114784 524.0410196624965,466.09045198822287 515.9508497187469,471.96830451114744 512.8606797749972,481.4788696740989 504.7705098312478,475.60101715117395 501.6803398874981,485.1115823141254 493.59016994374844,490.98943483705 490.4999999999987,500.5000000000015 500.49999999999875,500.5000000000017 510.49999999999875,500.500000000002 502.4098300562494,494.622147477077 499.3196601124997,504.1327126400285 507.40983005624935,498.254860117104 510.4999999999986,507.76542528005564 502.4098300562489,513.6432778029802 505.4999999999981,523.1538429659317 497.40983005624884,517.2759904430068 489.3196601124995,511.39813792008187 492.40983005624923,501.8875727571304 495.4999999999984,511.39813792008204 492.40983005624867,520.9087030830335 495.4999999999984,511.39813792008204 498.59016994374764,520.9087030830336 495.49999999999847,511.39813792008204 485.4999999999984,511.39813792008175 477.4098300562487,517.2759904430063 474.31966011249955,507.7654252800546 466.22949016874986,513.6432778029791 456.22949016874986,513.6432778029789 448.1393202250002,519.5211303259034 456.2294901687495,525.3989828488284 464.3196601124988,531.2768353717534 461.22949016874963,521.7662702088016 453.13932022499995,527.6441227317262 463.139320225,527.6441227317265 460.0491502812502,537.154687894678 450.0491502812502,537.1546878946776 446.9589803375004,546.6652530576291 443.86881039375123,537.1546878946775 440.778640450002,527.6441227317258 448.8688103937517,521.7662702088013" stroke="black" stroke-linecap="round" stroke-width="1" /><polyline clip-path="url(#border_clip)" fill="none" points="448.8688103937517,521.7662702088013 445.77864045000194,531.2768353717528 437.68847050625226,537.1546878946773 445.77864045000194,531.2768353717528 442.68847050625214,540.7874005347043 445.77864045000194,531.2768353717528 437.6884705062526,525.3989828488278 427.68847050625254,525.3989828488275 430.77864045000234,515.888417685876 420.7786404500023,515.8884176858758 412.688470506253,510.0105651629507 402.68847050625294,510.0105651629504 405.7786404500021,519.521130325902 408.86881039375135,529.0316954888538 411.9589803375011,519.5211303259023 401.9589803375011,519.5211303259019 410.0491502812504,525.3989828488269 401.9589803375007,531.2768353717514 393.86881039375135,525.3989828488264 385.7786404500017,531.276835371751 388.86881039375146,521.7662702087995 391.95898033750126,512.255705045848 401.9589803375013,512.2557050458483 393.8688103937516,518.1335575687729 383.8688103937516,518.1335575687725 393.8688103937516,518.1335575687729 385.7786404500019,524.0114100916973 393.8688103937516,518.1335575687729 390.7786404500024,508.62299240582115 382.6884705062531,502.7451398828961 390.7786404500028,496.8672873599716 382.6884705062535,490.9894348370466 379.59830056250433,481.47886967409494 371.508130618755,475.6010171511699 368.41796067500525,485.1115823141214 365.3277907312554,494.6221474770728 373.41796067500513,488.74429495414836 365.32779073125585,482.86644243122333 368.417960675005,492.377007594175 358.41796067500496,492.37700759417464 355.3277907312558,482.866442431223 345.32779073125573,482.86644243122265 353.4179606750055,476.98858990829814" stroke="black" stroke-linecap="round" stroke-width="1" /><polyline clip-path="url(#border_clip)" fill="none" points="353.4179606750055,476.98858990829814 361.50813061875516,471.1107373853737 369.5983005625045,476.9885899082987 359.5983005625044,476.98858990829837 351.5081306187551,471.11073738537334 359.5983005625044,476.98858990829837 349.59830056250433,476.988589908298 359.5983005625044,476.98858990829837 362.68847050625425,467.4780247453469 359.5983005625051,457.96745958239524 369.59830056250513,457.9674595823956 366.508130618756,448.45689441944387 369.5983005625058,438.9463292564924 366.5081306187567,429.4357640935407 358.41796067500695,435.3136166164652 350.3277907312572,441.19146913938965 360.32779073125727,441.19146913939 357.23762078750815,431.68090397643834 354.1474508437583,441.19146913938977 346.057280900009,435.31361661646474 349.14745084375886,425.80305145351326 341.0572809000096,419.9251989305882 351.0572809000096,419.9251989305886 361.0572809000097,419.925198930589 364.1474508437588,429.4357640935406 356.0572809000095,423.5579115706156 352.9671109562604,414.0473464076639 356.0572809000095,423.5579115706156 347.9671109562602,417.6800590476905 356.0572809000095,423.5579115706156 364.14745084375926,417.6800590476911 367.2376207875091,408.16949388473967 375.3277907312584,414.0473464076647 378.41796067500826,404.53678124471327 386.508130618758,398.6589287217888 389.59830056250786,389.14836355883733 379.5983005625078,389.148363558837 369.59830056250775,389.1483635588366 377.68847050625703,395.0262160817617 380.7786404500069,385.5156509188102 372.68847050625715,391.39350344173465 369.59830056250803,381.88293827878294 377.6884705062578,376.0050857558585" stroke="black" stroke-linecap="round" stroke-width="1" /><polyline clip-path="url(#border_clip)" fill="none" points="377.6884705062578,376.0050857558585 374.59830056250865,366.4945205929068 382.68847050625794,372.37237311583186 390.77864045000723,378.25022563875694 387.6884705062574,387.7607908017084 384.59830056250826,378.25022563875666 387.6884705062581,368.7396604758052 384.59830056250826,378.25022563875666 381.50813061875914,368.73966047580495 384.59830056250826,378.25022563875666 394.5983005625083,378.2502256387571 402.68847050625806,372.37237311583266 405.7786404500072,381.88293827878437 413.8688103937569,376.00508575585997 423.868810393757,376.00508575586036 431.9589803375068,370.12723323293596 423.8688103937575,364.2493807100108 415.7786404500082,358.3715281870857 418.8688103937573,367.8820933500374 426.95898033750706,362.004240827113 416.958980337507,362.00424082711254 420.0491502812569,352.4936756641611 430.04915028125697,352.4936756641615 433.1393202250068,342.9831105012101 436.22949016875594,352.4936756641618 439.31966011250506,362.0042408271135 431.22949016875526,367.88209335003796 434.3196601125052,358.3715281870865 442.4098300562549,352.4936756641621 434.3196601125052,358.3715281870865 437.4098300562551,348.860963024135 434.3196601125052,358.3715281870865 442.4098300562544,364.24938071001156 452.40983005625446,364.249380710012 449.3196601125046,373.7599458729635 459.31966011250466,373.75994587296395 467.4098300562539,379.63779839588904 477.409830056254,379.6377983958895 474.3196601125049,370.1272332329378 471.22949016875583,360.616668069986 468.1393202250059,370.12723323293744 478.139320225006,370.1272332329379 470.0491502812567,364.2493807100128" stroke="black" stroke-linecap="round" stroke-width="1" /><polyline clip-path="url(#border_clip)" fill="none" points="470.0491502812567,364.2493807100128 478.1393202250065,358.3715281870884 486.2294901687558,364.2493807100135 494.3196601125055,358.3715281870891 491.2294901687556,367.8820933500406 488.1393202250057,377.39265851299206 478.13932022500563,377.3926585129916 486.22949016875543,371.5148059900672 496.2294901687555,371.51480599006766 486.22949016875543,371.5148059900672 494.31966011250523,365.6369534671428 486.22949016875543,371.5148059900672 489.3196601125045,381.0253711530189 497.4098300562537,386.90322367594405 489.3196601125039,392.78107619886845 497.4098300562532,398.6589287217936 500.5000000000023,408.1694938847453 508.5901699437515,414.0473464076705 511.6803398875014,404.536781244719 514.7705098312514,395.02621608176753 506.6803398875016,400.90406860469193 514.7705098312508,406.7819211276171 511.68033988750176,397.27135596466536 521.6803398875019,397.2713559646658 524.7705098312509,406.7819211276176 534.7705098312509,406.78192112761803 526.6803398875012,412.65977365054243 518.5901699437513,418.53762617346683 510.5000000000021,412.65977365054164 520.5000000000022,412.65977365054215 528.5901699437514,418.5376261734673 520.5000000000022,412.65977365054215 530.5000000000023,412.6597736505426 520.5000000000022,412.65977365054215 517.4098300562522,422.1703388134936 520.5000000000013,431.68090397644534 510.5000000000012,431.6809039764448 513.5901699437502,441.1914691393966 510.5000000000002,450.702034302348 513.5901699437493,460.2125994652998 521.680339887499,454.33474694237543 529.7705098312489,448.45689441945103 519.7705098312489,448.4568944194506" stroke="black" stroke-linecap="round" stroke-width="1" /><polyline clip-path="url(#border_clip)" fill="none" points="519.7705098312489,448.4568944194506 522.8606797749978,457.9674595824023 525.9508497187478,448.45689441945086 534.0410196624971,454.334746942376 530.9508497187471,463.8453121053275 539.0410196624963,469.7231646282527 529.0410196624963,469.72316462825216 519.0410196624962,469.72316462825165 515.9508497187472,460.2125994652999 524.0410196624964,466.0904519882251 527.1311896062455,475.60101715117685 524.0410196624964,466.0904519882251 532.1311896062457,471.9683045111502 524.0410196624964,466.0904519882251 515.9508497187466,471.9683045111494 512.8606797749966,481.47886967410085 504.7705098312474,475.60101715117565 501.6803398874974,485.11158231412713 493.5901699437476,490.9894348370515 490.4999999999976,500.5000000000029 500.49999999999767,500.5000000000034" stroke="black" stroke-linecap="round" stroke-width="1" /></svg>