<?xml version="1.0" encoding="UTF-8"?>
<svg width="1e4px" height="1e4px" baseProfile="full" version="1.1" viewBox="4877.9 4939.8 255.34 251.23" xmlns="http://www.w3.org/2000/svg">
<defs>
<clipPath id="a">
<rect width="1e4" height="1e4"/>
</clipPath>
</defs>
<polyline points="5000.5 5000.5 5010.5 5000.5 5020.5 5000.5 5030.5 5000.5 5022.4 4994.6 5014.3 5000.5 5004.3 5000.5 4996.2 5006.4 4988.1 5000.5 4991.2 5010 4988.1 5000.5 4985 5010 4977 5015.9 4985 5021.8 4977 5015.9 4987 5015.9 4990 5006.4 4982 5000.5 4978.9 5010 4982 5019.5 4972 5019.5 4982 5019.5 4990 5025.4 4980 5025.4 4990 5025.4 4982 5031.3 4985 5021.8 4982 5031.3 4990 5037.2 4993.1 5027.6 4996.2 5037.2 4999.3 5046.7 4996.2 5037.2 4988.1 5031.3 4996.2 5037.2 5004.3 5043 5012.4 5037.2 5015.5 5027.6 5007.4 5033.5 5015.5 5027.6 5025.5 5027.6 5028.6 5018.1 5020.5 5012.3" clip-path="url(#a)" fill="none" stroke="#000" stroke-linecap="round"/>
<polyline points="5020.5 5012.3 5028.6 5006.4 5018.6 5006.4 5026.7 5000.5 5029.8 5010 5021.7 5015.9 5018.6 5025.4 5021.7 5034.9 5029.8 5040.8 5021.7 5034.9 5024.8 5025.4 5032.9 5031.3 5036 5040.8 5027.9 5046.7 5031 5056.2 5022.9 5062.1 5031 5067.9 5039 5062.1 5036 5071.6 5039 5081.1 5031 5087 5022.9 5092.8 5026 5102.3 5022.9 5092.8 5032.9 5092.8 5022.9 5092.8 5014.8 5098.7 5006.7 5104.6 5003.6 5095.1 4993.6 5095.1 4985.5 5089.2 4995.5 5089.2 5003.6 5083.3 4995.5 5077.4 5003.6 5071.6 4995.5 5065.7 4992.4 5075.2 4984.3 5081.1 4976.2 5087 4984.3 5081.1 4976.2 5087 4973.1 5077.4 4976.2 5067.9" clip-path="url(#a)" fill="none" stroke="#000" stroke-linecap="round"/>
<polyline points="4976.2 5067.9 4966.2 5067.9 4958.1 5062.1 4955 5052.5 4947 5046.7 4950 5056.2 4958.1 5062.1 4948.1 5062.1 4951.2 5071.6 4954.3 5081.1 4951.2 5090.6 4948.1 5100.1 4951.2 5109.6 4961.2 5109.6 4964.3 5119.1 4954.3 5119.1 4964.3 5119.1 4954.3 5119.1 4957.4 5128.6 4949.3 5122.7 4952.4 5132.3 4944.3 5138.1 4936.2 5144 4939.3 5134.5 4949.3 5134.5 4941.2 5140.4 4944.3 5130.9 4952.4 5125 4944.3 5130.9 4947.4 5140.4 4937.4 5140.4 4934.3 5130.9 4937.4 5121.4 4940.5 5130.9 4937.4 5140.4 4929.3 5146.3 4937.4 5140.4 4940.5 5149.9 4943.6 5159.4 4935.5 5165.3 4932.4 5174.8 4935.5 5165.3 4927.4 5171.2" clip-path="url(#a)" fill="none" stroke="#000" stroke-linecap="round"/>
<polyline points="4927.4 5171.2 4935.5 5165.3 4943.6 5159.4 4940.5 5168.9 4948.6 5163 4940.5 5157.2 4948.6 5151.3 4951.7 5160.8 4943.6 5154.9 4946.7 5145.4 4938.6 5139.5 4941.7 5149 4944.8 5158.5 4952.9 5152.7 4942.9 5152.7 4946 5162.2 4954 5156.3 4944 5156.3 4947.1 5146.8 4950.2 5156.3 4958.3 5150.4 4968.3 5150.4 4960.2 5144.5 4963.3 5135 4955.2 5140.9 4945.2 5140.9 4948.3 5131.4 4958.3 5131.4 4948.3 5131.4 4956.4 5137.3 4964.5 5143.2 4956.4 5149 4953.3 5139.5 4943.3 5139.5 4953.3 5139.5 4950.2 5130 4940.2 5130 4932.1 5135.9 4924 5130 4927.1 5120.5 4937.1 5120.5 4929 5114.6 4919 5114.6" clip-path="url(#a)" fill="none" stroke="#000" stroke-linecap="round"/>
<polyline points="4919 5114.6 4916 5124.1 4912.9 5133.6 4916 5143.2 4906 5143.2 4897.9 5149 4901 5139.5 4909 5145.4 4912.1 5135.9 4922.1 5135.9 4930.2 5130 4940.2 5130 4937.1 5139.5 4945.2 5133.6 4942.1 5124.1 4939 5133.6 4929 5133.6 4921 5127.8 4912.9 5133.6 4909.8 5124.1 4906.7 5114.6 4898.6 5120.5 4890.5 5114.6 4900.5 5114.6 4903.6 5105.1 4906.7 5114.6 4898.6 5108.7 4890.5 5102.9 4887.4 5093.4 4884.3 5102.9 4892.4 5097 4889.3 5087.5 4886.2 5078 4894.3 5083.8 4902.4 5089.7 4910.5 5095.6 4907.4 5105.1 4910.5 5095.6 4920.5 5095.6 4917.4 5086.1 4925.5 5092 4928.6 5101.5 4931.7 5111" clip-path="url(#a)" fill="none" stroke="#000" stroke-linecap="round"/>
<polyline points="4931.7 5111 4928.6 5120.5 4918.6 5120.5 4921.7 5111 4918.6 5101.5 4908.6 5101.5 4916.7 5107.4 4913.6 5097.9 4921.7 5103.7 4924.8 5094.2 4921.7 5103.7 4924.8 5113.2 4921.7 5122.7 4931.7 5122.7 4939.8 5116.9 4931.7 5111 4928.6 5120.5 4925.5 5130 4933.6 5124.1 4936.7 5133.6 4946.7 5133.6 4954.8 5127.8 4962.9 5121.9 4954.8 5116 4946.7 5110.1 4938.6 5104.3 4941.7 5113.8 4951.7 5113.8 4959.8 5119.6 4969.8 5119.6 4972.9 5129.2 4976 5119.6 4972.9 5129.2 4981 5123.3 4991 5123.3 4987.9 5113.8 4991 5123.3 4982.9 5117.4 4974.8 5123.3 4977.9 5132.8 4986 5126.9 4989 5117.4 4997.1 5123.3" clip-path="url(#a)" fill="none" stroke="#000" stroke-linecap="round"/>
<polyline points="4997.1 5123.3 4989 5117.4 4986 5107.9 4994 5113.8 4986 5107.9 4996 5107.9 4987.9 5113.8 4996 5107.9 4992.9 5098.4 4984.8 5104.3 4987.9 5094.7 4991 5085.2 4987.9 5094.7 4991 5104.3 4987.9 5094.7 4984.8 5085.2 4974.8 5085.2 4966.7 5091.1 4976.7 5091.1 4966.7 5091.1 4958.6 5085.2 4950.5 5091.1 4953.6 5100.6 4943.6 5100.6 4951.7 5106.5 4941.7 5106.5 4944.8 5097 4954.8 5097 4962.9 5091.1 4966 5081.6 4962.9 5072.1 4966 5081.6 4957.9 5087.5 4954.8 5078 4957.9 5068.5 4967.9 5068.5 4971 5059 4981 5059 4977.9 5049.4 4967.9 5049.4 4976 5043.6 4979 5034.1 4989 5034.1" clip-path="url(#a)" fill="none" stroke="#000" stroke-linecap="round"/>
<polyline points="4989 5034.1 4999 5034.1 5002.1 5024.5 4999 5034.1 4991 5028.2 4999 5034.1 5009 5034.1 5019 5034.1 5016 5043.6 5024 5049.4 5027.1 5059 5019 5053.1 5009 5053.1 5012.1 5062.6 5002.1 5062.6 5005.2 5072.1 5013.3 5066.2 5023.3 5066.2 5033.3 5066.2 5023.3 5066.2 5033.3 5066.2 5030.2 5075.7 5022.1 5081.6 5030.2 5087.5 5033.3 5097 5030.2 5106.5 5033.3 5116 5036.4 5106.5 5033.3 5097 5041.4 5102.9 5044.5 5093.4 5047.6 5083.8 5055.7 5078 5063.8 5072.1 5066.9 5062.6 5058.8 5056.7 5061.9 5047.2 5069.9 5053.1 5061.9 5047.2 5069.9 5053.1 5073 5043.6 5076.1 5053.1 5079.2 5043.6" clip-path="url(#a)" fill="none" stroke="#000" stroke-linecap="round"/>
<polyline points="5079.2 5043.6 5089.2 5043.6 5099.2 5043.6 5091.1 5049.4 5083 5043.6 5093 5043.6 5084.9 5049.4 5074.9 5049.4 5084.9 5049.4 5088 5039.9 5096.1 5045.8 5093 5055.3 5084.9 5061.2 5088 5051.7 5096.1 5045.8 5106.1 5045.8 5096.1 5045.8 5099.2 5036.3 5102.3 5026.8 5112.3 5026.8 5120.4 5020.9 5112.3 5026.8 5122.3 5026.8 5112.3 5026.8 5102.3 5026.8 5110.4 5020.9 5100.4 5020.9 5103.5 5030.4 5093.5 5030.4 5096.6 5020.9 5099.7 5030.4 5091.6 5036.3 5094.7 5045.8 5097.8 5036.3 5100.8 5026.8 5090.8 5026.8 5098.9 5032.7 5102 5023.2 5092 5023.2 5100.1 5029 5092 5034.9 5095.1 5025.4 5085.1 5025.4" clip-path="url(#a)" fill="none" stroke="#000" stroke-linecap="round"/>
<polyline points="5085.1 5025.4 5077 5019.5 5080.1 5029 5072 5034.9 5082 5034.9 5090.1 5040.8 5082 5046.7 5073.9 5040.8 5082 5046.7 5078.9 5037.2 5075.8 5027.6 5085.8 5027.6 5082.8 5037.2 5090.8 5043 5082.8 5037.2 5079.7 5046.7 5087.8 5052.5 5097.8 5052.5 5100.8 5062.1 5092.8 5067.9 5084.7 5062.1 5087.8 5071.6 5095.8 5077.4 5103.9 5071.6 5112 5065.7 5115.1 5056.2 5123.2 5062.1 5133.2 5062.1 5125.1 5067.9 5122 5058.4 5113.9 5064.3 5105.8 5058.4 5095.8 5058.4 5087.8 5052.5 5095.8 5046.7 5085.8 5046.7 5082.8 5056.2 5090.8 5050.3 5098.9 5056.2 5102 5065.7 5112 5065.7 5108.9 5075.2 5105.8 5084.7" clip-path="url(#a)" fill="none" stroke="#000" stroke-linecap="round"/>
<polyline points="5105.8 5084.7 5115.8 5084.7 5118.9 5094.2 5110.8 5088.3 5102.8 5094.2 5105.8 5084.7 5108.9 5094.2 5112 5103.7 5108.9 5113.2 5117 5107.4 5107 5107.4 5103.9 5116.9 5100.8 5126.4 5097.8 5116.9 5094.7 5107.4 5091.6 5097.9 5099.7 5092 5091.6 5097.9 5083.5 5092 5080.4 5101.5 5077.3 5092 5080.4 5082.5 5083.5 5073 5091.6 5067.1 5099.7 5073 5091.6 5078.8 5088.5 5088.3 5096.6 5094.2 5093.5 5084.7 5090.4 5094.2 5087.3 5084.7 5079.2 5090.6 5087.3 5084.7 5090.4 5075.2 5098.5 5069.3 5090.4 5063.4 5080.4 5063.4 5083.5 5073 5091.6 5067.1 5099.7 5061.2 5089.7 5061.2 5092.8 5051.7 5084.7 5045.8" clip-path="url(#a)" fill="none" stroke="#000" stroke-linecap="round"/>
<polyline points="5084.7 5045.8 5074.7 5045.8 5064.7 5045.8 5067.8 5055.3 5070.8 5064.8 5073.9 5074.3 5077 5064.8 5068.9 5059 5065.8 5049.4 5057.8 5043.6 5060.8 5034.1 5052.8 5039.9 5060.8 5034.1 5050.8 5034.1 5042.8 5028.2 5039.7 5037.7 5042.8 5028.2 5045.8 5037.7 5055.8 5037.7 5058.9 5028.2 5048.9 5028.2 5040.8 5034.1 5037.8 5024.5 5040.8 5034.1 5037.8 5043.6 5034.7 5034.1 5037.8 5043.6 5029.7 5037.7 5039.7 5037.7 5029.7 5037.7 5026.6 5047.2 5036.6 5047.2 5028.5 5053.1 5020.4 5059 5028.5 5053.1 5031.6 5043.6 5028.5 5053.1 5025.4 5062.6 5033.5 5068.5 5043.5 5068.5 5035.4 5062.6 5043.5 5068.5 5046.6 5078" clip-path="url(#a)" fill="none" stroke="#000" stroke-linecap="round"/>
<polyline points="5046.6 5078 5056.6 5078 5059.7 5068.5 5067.8 5074.3 5064.7 5064.8 5072.8 5070.7 5064.7 5076.6 5056.6 5070.7 5046.6 5070.7 5038.5 5076.6 5035.4 5086.1 5038.5 5076.6 5048.5 5076.6 5045.4 5086.1 5037.3 5092 5029.2 5086.1 5021.1 5092 5013 5086.1 5009.9 5095.6 5018 5101.5 5008 5101.5 4999.9 5107.4 4991.9 5101.5 4983.8 5095.6 4975.7 5101.5 4983.8 5095.6 4986.9 5105.1 4983.8 5095.6 4975.7 5089.7 4967.6 5083.8 4975.7 5078 4972.6 5068.5 4975.7 5059 4978.8 5068.5 4986.9 5074.3 4989.9 5064.8 4998 5070.7 5001.1 5061.2 4991.1 5061.2 4983 5055.3 4974.9 5049.4 4983 5055.3 4974.9 5049.4" clip-path="url(#a)" fill="none" stroke="#000" stroke-linecap="round"/>
<polyline points="4974.9 5049.4 4983 5043.6 4993 5043.6 4989.9 5034.1 4993 5024.5 5001.1 5018.7 5004.2 5009.2 4996.1 5015 4993 5024.5 4989.9 5015 4981.9 5020.9 4973.8 5026.8 4963.8 5026.8 4953.8 5026.8 4945.7 5032.7 4948.8 5042.2 4940.7 5048.1 4937.6 5038.5 4940.7 5048.1 4937.6 5038.5 4929.5 5044.4 4932.6 5034.9 4924.5 5040.8 4916.4 5034.9 4908.3 5029 4918.3 5029 4921.4 5038.5 4913.3 5032.7 4923.3 5032.7 4931.4 5038.5 4923.3 5032.7 4915.2 5038.5 4912.1 5029 4920.2 5023.2 4930.2 5023.2 4922.1 5029 4912.1 5029 4904 5023.2 4912.1 5029 4904 5034.9 4896 5040.8 4887.9 5034.9 4877.9 5034.9" clip-path="url(#a)" fill="none" stroke="#000" stroke-linecap="round"/>
<polyline points="4877.9 5034.9 4887.9 5034.9 4879.8 5029 4887.9 5034.9 4896 5040.8 4886 5040.8 4894 5046.7 4897.1 5037.2 4905.2 5043 4897.1 5048.9 4900.2 5039.4 4910.2 5039.4 4913.3 5029.9 4905.2 5035.8 4897.1 5041.6 4905.2 5047.5 4902.1 5038 4894 5043.9 4902.1 5049.8 4899 5040.3 4909 5040.3 4901 5046.1 4909 5052 4912.1 5061.5 4915.2 5052 4925.2 5052 4917.1 5046.1 4914 5036.6 4924 5036.6 4927.1 5046.1 4924 5036.6 4921 5046.1 4917.9 5055.6 4909.8 5049.8 4917.9 5043.9 4914.8 5034.4 4917.9 5043.9 4926 5038 4922.9 5028.5 4914.8 5022.6 4917.9 5013.1 4927.9 5013.1 4931 5022.6" clip-path="url(#a)" fill="none" stroke="#000" stroke-linecap="round"/>
<polyline points="4931 5022.6 4934 5013.1 4931 5003.6 4921 5003.6 4911 5003.6 4902.9 5009.5 4899.8 5e3 4891.7 4994.1 4901.7 4994.1 4898.6 5003.6 4908.6 5003.6 4911.7 5013.1 4919.8 5019 4922.9 5028.5 4912.9 5028.5 4921 5034.4 4929 5028.5 4919 5028.5 4916 5019 4919 5009.5 4911 5003.6 4919 4997.7 4927.1 4991.8 4919 4986 4922.1 4976.5 4925.2 4986 4935.2 4986 4927.1 4991.8 4930.2 4982.3 4933.3 4972.8 4941.4 4966.9 4931.4 4966.9 4939.5 4972.8 4947.6 4966.9 4955.7 4961.1 4952.6 4970.6 4949.5 4980.1 4946.4 4989.6 4936.4 4989.6 4946.4 4989.6 4949.5 4999.1 4957.6 4993.2 4954.5 5002.7" clip-path="url(#a)" fill="none" stroke="#000" stroke-linecap="round"/>
<polyline points="4954.5 5002.7 4946.4 5008.6 4938.3 5014.5 4928.3 5014.5 4925.2 5005 4935.2 5005 4943.3 4999.1 4940.2 4989.6 4937.1 4999.1 4945.2 4993.2 4942.1 5002.7 4952.1 5002.7 4942.1 5002.7 4934 5008.6 4924 5008.6 4927.1 5018.1 4935.2 5024 4938.3 5014.5 4928.3 5014.5 4918.3 5014.5 4926.4 5020.4 4918.3 5026.3 4921.4 5035.8 4929.5 5041.6 4937.6 5047.5 4940.7 5038 4943.8 5028.5 4946.9 5019 4938.8 5024.9 4941.9 5034.4 4938.8 5043.9 4941.9 5053.4 4933.8 5059.3 4943.8 5059.3 4933.8 5059.3 4941.9 5065.2 4944.9 5074.7 4953 5068.8 4944.9 5074.7 4948 5065.2 4939.9 5059.3 4931.9 5065.2 4939.9 5071" clip-path="url(#a)" fill="none" stroke="#000" stroke-linecap="round"/>
<polyline points="4939.9 5071 4949.9 5071 4946.9 5080.5 4949.9 5071 4958 5065.2 4954.9 5074.7 4958 5065.2 4961.1 5074.7 4953 5068.8 4961.1 5074.7 4969.2 5068.8 4961.1 5062.9 4971.1 5062.9 4981.1 5062.9 4971.1 5062.9 4963 5068.8 4971.1 5062.9 4979.2 5057 4976.1 5047.5 4968 5041.6 4971.1 5051.2 4968 5041.6 4971.1 5032.1 4963 5026.3 4954.9 5032.1 4951.9 5022.6 4948.8 5032.1 4945.7 5022.6 4955.7 5022.6 4958.8 5032.1 4966.9 5038 4976.9 5038 4984.9 5032.1 4976.9 5038 4968.8 5032.1 4976.9 5026.3 4986.9 5026.3 4989.9 5035.8 4999.9 5035.8 5003 5045.3 5011.1 5039.4 5008 5029.9 5016.1 5035.8" clip-path="url(#a)" fill="none" stroke="#000" stroke-linecap="round"/>
<polyline points="5016.1 5035.8 5026.1 5035.8 5029.2 5045.3 5032.3 5054.8 5042.3 5054.8 5032.3 5054.8 5035.4 5045.3 5032.3 5054.8 5035.4 5064.3 5038.5 5073.8 5028.5 5073.8 5025.4 5083.3 5017.3 5089.2 5020.4 5079.7 5017.3 5070.2 5009.2 5076.1 5006.1 5066.5 4998 5072.4 5006.1 5078.3 5009.2 5087.8 5012.3 5097.3 5009.2 5087.8 5012.3 5097.3 5002.3 5097.3 4994.2 5091.4 4991.1 5101 4983 5106.8 4973 5106.8 4964.9 5112.7 4974.9 5112.7 4983 5106.8 4979.9 5116.3 4989.9 5116.3 4999.9 5116.3 5008 5122.2 5016.1 5128.1 5026.1 5128.1 5029.2 5118.6 5039.2 5118.6 5036.1 5128.1 5039.2 5118.6 5036.1 5128.1 5046.1 5128.1" clip-path="url(#a)" fill="none" stroke="#000" stroke-linecap="round"/>
<polyline points="5046.1 5128.1 5038 5134 5048 5134 5051.1 5143.5 5054.2 5153 5046.1 5147.1 5049.2 5137.6 5052.3 5147.1 5044.2 5141.2 5041.1 5131.7 5044.2 5141.2 5054.2 5141.2 5051.1 5150.8 5041.1 5150.8 5033 5144.9 5043 5144.9 5051.1 5150.8 5054.2 5160.3 5051.1 5150.8 5061.1 5150.8 5071.1 5150.8 5074.2 5160.3 5082.3 5166.1 5074.2 5160.3 5077.3 5169.8 5074.2 5160.3 5071.1 5150.8 5079.2 5156.6 5076.1 5147.1 5068 5153 5064.9 5143.5 5074.9 5143.5 5066.9 5149.4 5058.8 5143.5 5050.7 5149.4 5060.7 5149.4 5070.7 5149.4 5067.6 5139.9 5064.5 5149.4 5074.5 5149.4 5071.4 5139.9 5068.3 5149.4 5060.2 5143.5" clip-path="url(#a)" fill="none" stroke="#000" stroke-linecap="round"/>
<polyline points="5060.2 5143.5 5070.2 5143.5 5067.1 5134 5070.2 5124.5 5062.1 5130.3 5054 5124.5 5057.1 5134 5054 5143.5 5046 5137.6 5049 5128.1 5046 5137.6 5054 5131.7 5062.1 5125.9 5065.2 5135.4 5055.2 5135.4 5052.1 5144.9 5055.2 5135.4 5045.2 5135.4 5042.1 5144.9 5045.2 5154.4 5037.1 5160.3 5029 5154.4 5032.1 5144.9 5024 5150.8 5021 5160.3 5029 5166.1 5037.1 5172 5047.1 5172 5044 5181.5 5047.1 5191 5039 5185.2 5047.1 5179.3 5039 5173.4 5042.1 5163.9 5039 5154.4 5042.1 5144.9 5050.2 5150.8 5047.1 5141.2 5037.1 5141.2 5045.2 5147.1 5042.1 5156.6 5034 5162.5 5037.1 5172" clip-path="url(#a)" fill="none" stroke="#000" stroke-linecap="round"/>
<polyline points="5037.1 5172 5027.1 5172 5017.1 5172 5020.2 5181.5 5012.1 5187.4 5015.2 5177.9 5007.1 5172 5017.1 5172 5009 5177.9 5001 5183.8 4991 5183.8 4999 5189.7 4996 5180.1 4986 5180.1 4976 5180.1 4984 5174.3 4992.1 5168.4 5000.2 5162.5 5008.3 5168.4 5000.2 5162.5 5003.3 5153 4993.3 5153 5001.4 5147.1 5011.4 5147.1 5021.4 5147.1 5029.5 5153 5026.4 5162.5 5018.3 5156.6 5008.3 5156.6 5005.2 5166.1 5013.3 5160.3 5003.3 5160.3 5011.4 5154.4 5003.3 5148.5 5011.4 5154.4 5021.4 5154.4 5029.5 5160.3 5032.6 5150.8 5029.5 5141.2 5021.4 5147.1 5029.5 5153 5037.6 5158.9 5034.5 5149.4" clip-path="url(#a)" fill="none" stroke="#000" stroke-linecap="round"/>
<polyline points="5034.5 5149.4 5044.5 5149.4 5047.6 5139.9 5044.5 5130.3 5041.4 5120.8 5033.3 5126.7 5025.2 5132.6 5017.1 5138.5 5027.1 5138.5 5030.2 5129 5038.3 5123.1 5041.4 5113.6 5051.4 5113.6 5043.3 5107.7 5051.4 5113.6 5048.3 5104.1 5051.4 5094.5 5041.4 5094.5 5051.4 5094.5 5043.3 5100.4 5046.4 5109.9 5056.4 5109.9 5053.3 5100.4 5045.2 5094.5 5053.3 5088.7 5045.2 5094.5 5035.2 5094.5 5043.3 5088.7 5035.2 5094.5 5038.3 5085 5041.4 5094.5 5038.3 5085 5028.3 5085 5031.4 5094.5 5023.3 5088.7 5015.2 5082.8 5023.3 5088.7 5033.3 5088.7 5023.3 5088.7 5013.3 5088.7 5010.2 5098.2 5013.3 5107.7 5016.4 5098.2" clip-path="url(#a)" fill="none" stroke="#000" stroke-linecap="round"/>
<polyline points="5016.4 5098.2 5013.3 5107.7 5005.2 5113.6 5008.3 5123.1 5018.3 5123.1 5015.2 5132.6 5023.3 5126.7 5020.2 5136.2 5012.1 5130.3 5015.2 5120.8 5012.1 5111.3 5004 5105.4 4994 5105.4 5004 5105.4 5007.1 5115 4997.1 5115 4989 5109.1 4992.1 5099.6 4984 5093.7 4987.1 5084.2 4977.1 5084.2 4974 5093.7 4971 5084.2 4962.9 5078.3 4966 5068.8 4969 5059.3 4961 5053.4 4969 5059.3 4961 5065.2 4969 5059.3 4972.1 5049.8 4975.2 5040.3 4983.3 5046.1 4991.4 5040.3 5001.4 5040.3 4993.3 5046.1 4990.2 5055.6 5000.2 5055.6 4997.1 5065.2 5007.1 5065.2 5004 5055.6 5007.1 5046.1 5010.2 5036.6" clip-path="url(#a)" fill="none" stroke="#000" stroke-linecap="round"/>
<polyline points="5010.2 5036.6 5007.1 5046.1 5010.2 5036.6 5018.3 5042.5 5021.4 5052 5029.5 5046.1 5039.5 5046.1 5047.6 5052 5057.6 5052 5049.5 5046.1 5039.5 5046.1 5047.6 5040.3 5039.5 5034.4 5031.4 5028.5 5028.3 5019 5025.2 5009.5 5017.1 5003.6 5009 5009.5 5001 5003.6 5009 4997.7 5001 5003.6 5009 4997.7 5001 4991.8 5011 4991.8 5002.9 4986 5006 4976.5 5009 4966.9 5012.1 4976.5 5004 4982.3 5007.1 4972.8 5010.2 4982.3 5007.1 4991.8 5010.2 4982.3 5002.1 4976.5 5010.2 4970.6 5018.3 4976.5 5021.4 4986 5013.3 4980.1 5010.2 4970.6 5013.3 4961.1 5010.2 4970.6 5002.1 4964.7 4994 4958.8" clip-path="url(#a)" fill="none" stroke="#000" stroke-linecap="round"/>
<polyline points="4994 4958.8 4997.1 4949.3 4994 4939.8 4997.1 4949.3 5000.2 4939.8 4997.1 4949.3 4994 4958.8 4991 4949.3 4987.9 4958.8 4997.9 4958.8 4994.8 4968.3 4986.7 4962.5 4996.7 4962.5 4999.8 4972 5009.8 4972 5001.7 4966.1 4993.6 4960.2 4990.5 4969.7 4998.6 4963.8 4990.5 4958 4987.4 4967.5 4995.5 4961.6 4998.6 4971.1 4990.5 4965.2 4987.4 4974.7 4979.3 4980.6 4989.3 4980.6 4992.4 4990.1 4995.5 4980.6 5003.6 4974.7 5006.7 4984.3 4998.6 4990.1 5006.7 4984.3 4996.7 4984.3 4986.7 4984.3 4989.8 4974.7 4997.9 4980.6 5006 4974.7 4997.9 4980.6 5006 4986.5 5014 4980.6 5017.1 4971.1 5027.1 4971.1" clip-path="url(#a)" fill="none" stroke="#000" stroke-linecap="round"/>
<polyline points="5027.1 4971.1 5030.2 4980.6 5022.1 4986.5 5032.1 4986.5 5040.2 4980.6 5037.1 4971.1 5034 4961.6 5026 4955.7 5034 4949.8 5037.1 4940.3 5040.2 4949.8 5030.2 4949.8 5033.3 4959.4 5025.2 4965.2 5022.1 4974.7 5014 4980.6 5011 4971.1 5007.9 4980.6 5016 4986.5 5012.9 4977 5021 4971.1 5031 4971.1 5034 4961.6 5042.1 4967.5 5050.2 4973.4 5053.3 4963.8 5063.3 4963.8 5055.2 4969.7 5058.3 4979.2 5050.2 4973.4 5060.2 4973.4 5070.2 4973.4 5078.3 4979.2 5075.2 4969.7 5072.1 4979.2 5080.2 4985.1 5088.3 4991 5078.3 4991 5068.3 4991 5058.3 4991 5055.2 4981.5 5058.3 4991 5050.2 4996.9" clip-path="url(#a)" fill="none" stroke="#000" stroke-linecap="round"/>
<polyline points="5050.2 4996.9 5058.3 5002.7 5048.3 5002.7 5040.2 4996.9 5032.1 4991 5029 4981.5 5037.1 4975.6 5040.2 4985.1 5048.3 4991 5056.4 4985.1 5046.4 4985.1 5054.5 4991 5044.5 4991 5047.6 5000.5 5044.5 4991 5036.4 4985.1 5033.3 4975.6 5025.2 4981.5 5022.1 4991 5032.1 4991 5029 4981.5 5026 4972 5022.9 4981.5 5014.8 4975.6 5006.7 4981.5 5003.6 4991 5000.5 5000.5 5010.5 5000.5 5020.5 5000.5 5030.5 5000.5 5022.4 4994.6 5014.3 5000.5 5004.3 5000.5 4996.2 5006.4 4988.1 5000.5 4991.2 5010 4988.1 5000.5 4985 5010 4977 5015.9 4985 5021.8 4977 5015.9 4987 5015.9 4990 5006.4" clip-path="url(#a)" fill="none" stroke="#000" stroke-linecap="round"/>
<polyline points="4990 5006.4 4982 5000.5 4978.9 5010 4982 5019.5 4972 5019.5 4982 5019.5 4990 5025.4 4980 5025.4 4990 5025.4 4982 5031.3 4985 5021.8 4982 5031.3 4990 5037.2 4993.1 5027.6 4996.2 5037.2 4999.3 5046.7 4996.2 5037.2 4988.1 5031.3 4996.2 5037.2 5004.3 5043 5012.4 5037.2 5015.5 5027.6 5007.4 5033.5 5015.5 5027.6 5025.5 5027.6 5028.6 5018.1 5020.5 5012.3 5028.6 5006.4 5018.6 5006.4 5026.7 5000.5 5029.8 5010 5021.7 5015.9 5018.6 5025.4 5021.7 5034.9 5029.8 5040.8 5021.7 5034.9 5024.8 5025.4 5032.9 5031.3 5036 5040.8 5027.9 5046.7 5031 5056.2 5022.9 5062.1 5031 5067.9" clip-path="url(#a)" fill="none" stroke="#000" stroke-linecap="round"/>
<polyline points="5031 5067.9 5039 5062.1 5036 5071.6 5039 5081.1 5031 5087 5022.9 5092.8 5026 5102.3 5022.9 5092.8 5032.9 5092.8 5022.9 5092.8 5014.8 5098.7 5006.7 5104.6 5003.6 5095.1 4993.6 5095.1 4985.5 5089.2 4995.5 5089.2 5003.6 5083.3 4995.5 5077.4 5003.6 5071.6 4995.5 5065.7 4992.4 5075.2 4984.3 5081.1 4976.2 5087 4984.3 5081.1 4976.2 5087 4973.1 5077.4 4976.2 5067.9 4966.2 5067.9 4958.1 5062.1 4955 5052.5 4947 5046.7 4950 5056.2 4958.1 5062.1 4948.1 5062.1 4951.2 5071.6 4954.3 5081.1 4951.2 5090.6 4948.1 5100.1 4951.2 5109.6 4961.2 5109.6 4964.3 5119.1 4954.3 5119.1 4964.3 5119.1" clip-path="url(#a)" fill="none" stroke="#000" stroke-linecap="round"/>
<polyline points="4964.3 5119.1 4954.3 5119.1 4957.4 5128.6 4949.3 5122.7 4952.4 5132.3 4944.3 5138.1 4936.2 5144 4939.3 5134.5 4949.3 5134.5 4941.2 5140.4 4944.3 5130.9 4952.4 5125 4944.3 5130.9 4947.4 5140.4 4937.4 5140.4 4934.3 5130.9 4937.4 5121.4 4940.5 5130.9 4937.4 5140.4 4929.3 5146.3 4937.4 5140.4 4940.5 5149.9 4943.6 5159.4 4935.5 5165.3 4932.4 5174.8 4935.5 5165.3 4927.4 5171.2 4935.5 5165.3 4943.6 5159.4 4940.5 5168.9 4948.6 5163 4940.5 5157.2 4948.6 5151.3 4951.7 5160.8 4943.6 5154.9 4946.7 5145.4 4938.6 5139.5 4941.7 5149 4944.8 5158.5 4952.9 5152.7 4942.9 5152.7 4946 5162.2 4954 5156.3" clip-path="url(#a)" fill="none" stroke="#000" stroke-linecap="round"/>
<polyline points="4954 5156.3 4944 5156.3 4947.1 5146.8 4950.2 5156.3 4958.3 5150.4 4968.3 5150.4 4960.2 5144.5 4963.3 5135 4955.2 5140.9 4945.2 5140.9 4948.3 5131.4 4958.3 5131.4 4948.3 5131.4 4956.4 5137.3 4964.5 5143.2 4956.4 5149 4953.3 5139.5 4943.3 5139.5 4953.3 5139.5 4950.2 5130 4940.2 5130 4932.1 5135.9 4924 5130 4927.1 5120.5 4937.1 5120.5 4929 5114.6 4919 5114.6 4916 5124.1 4912.9 5133.6 4916 5143.2 4906 5143.2 4897.9 5149 4901 5139.5 4909 5145.4 4912.1 5135.9 4922.1 5135.9 4930.2 5130 4940.2 5130 4937.1 5139.5 4945.2 5133.6 4942.1 5124.1 4939 5133.6 4929 5133.6" clip-path="url(#a)" fill="none" stroke="#000" stroke-linecap="round"/>
<polyline points="4929 5133.6 4921 5127.8 4912.9 5133.6 4909.8 5124.1 4906.7 5114.6 4898.6 5120.5 4890.5 5114.6 4900.5 5114.6 4903.6 5105.1 4906.7 5114.6 4898.6 5108.7 4890.5 5102.9 4887.4 5093.4 4884.3 5102.9 4892.4 5097 4889.3 5087.5 4886.2 5078 4894.3 5083.8 4902.4 5089.7 4910.5 5095.6 4907.4 5105.1 4910.5 5095.6 4920.5 5095.6 4917.4 5086.1 4925.5 5092 4928.6 5101.5 4931.7 5111 4928.6 5120.5 4918.6 5120.5 4921.7 5111 4918.6 5101.5 4908.6 5101.5 4916.7 5107.4 4913.6 5097.9 4921.7 5103.7 4924.8 5094.2 4921.7 5103.7 4924.8 5113.2 4921.7 5122.7 4931.7 5122.7 4939.8 5116.9 4931.7 5111 4928.6 5120.5" clip-path="url(#a)" fill="none" stroke="#000" stroke-linecap="round"/>
<polyline points="4928.6 5120.5 4925.5 5130 4933.6 5124.1 4936.7 5133.6 4946.7 5133.6 4954.8 5127.8 4962.9 5121.9 4954.8 5116 4946.7 5110.1 4938.6 5104.3 4941.7 5113.8 4951.7 5113.8 4959.8 5119.6 4969.8 5119.6 4972.9 5129.2 4976 5119.6 4972.9 5129.2 4981 5123.3 4991 5123.3 4987.9 5113.8 4991 5123.3 4982.9 5117.4 4974.8 5123.3 4977.9 5132.8 4986 5126.9 4989 5117.4 4997.1 5123.3 4989 5117.4 4986 5107.9 4994 5113.8 4986 5107.9 4996 5107.9 4987.9 5113.8 4996 5107.9 4992.9 5098.4 4984.8 5104.3 4987.9 5094.7 4991 5085.2 4987.9 5094.7 4991 5104.3 4987.9 5094.7 4984.8 5085.2 4974.8 5085.2" clip-path="url(#a)" fill="none" stroke="#000" stroke-linecap="round"/>
<polyline points="4974.8 5085.2 4966.7 5091.1 4976.7 5091.1 4966.7 5091.1 4958.6 5085.2 4950.5 5091.1 4953.6 5100.6 4943.6 5100.6 4951.7 5106.5 4941.7 5106.5 4944.8 5097 4954.8 5097 4962.9 5091.1 4966 5081.6 4962.9 5072.1 4966 5081.6 4957.9 5087.5 4954.8 5078 4957.9 5068.5 4967.9 5068.5 4971 5059 4981 5059 4977.9 5049.4 4967.9 5049.4 4976 5043.6 4979 5034.1 4989 5034.1 4999 5034.1 5002.1 5024.5 4999 5034.1 4991 5028.2 4999 5034.1 5009 5034.1 5019 5034.1 5016 5043.6 5024 5049.4 5027.1 5059 5019 5053.1 5009 5053.1 5012.1 5062.6 5002.1 5062.6 5005.2 5072.1 5013.3 5066.2" clip-path="url(#a)" fill="none" stroke="#000" stroke-linecap="round"/>
<polyline points="5013.3 5066.2 5023.3 5066.2 5033.3 5066.2 5023.3 5066.2 5033.3 5066.2 5030.2 5075.7 5022.1 5081.6 5030.2 5087.5 5033.3 5097 5030.2 5106.5 5033.3 5116 5036.4 5106.5 5033.3 5097 5041.4 5102.9 5044.5 5093.4 5047.6 5083.8 5055.7 5078 5063.8 5072.1 5066.9 5062.6 5058.8 5056.7 5061.9 5047.2 5069.9 5053.1 5061.9 5047.2 5069.9 5053.1 5073 5043.6 5076.1 5053.1 5079.2 5043.6 5089.2 5043.6 5099.2 5043.6 5091.1 5049.4 5083 5043.6 5093 5043.6 5084.9 5049.4 5074.9 5049.4 5084.9 5049.4 5088 5039.9 5096.1 5045.8 5093 5055.3 5084.9 5061.2 5088 5051.7 5096.1 5045.8 5106.1 5045.8 5096.1 5045.8" clip-path="url(#a)" fill="none" stroke="#000" stroke-linecap="round"/>
<polyline points="5096.1 5045.8 5099.2 5036.3 5102.3 5026.8 5112.3 5026.8 5120.4 5020.9 5112.3 5026.8 5122.3 5026.8 5112.3 5026.8 5102.3 5026.8 5110.4 5020.9 5100.4 5020.9 5103.5 5030.4 5093.5 5030.4 5096.6 5020.9 5099.7 5030.4 5091.6 5036.3 5094.7 5045.8 5097.8 5036.3 5100.8 5026.8 5090.8 5026.8 5098.9 5032.7 5102 5023.2 5092 5023.2 5100.1 5029 5092 5034.9 5095.1 5025.4 5085.1 5025.4 5077 5019.5 5080.1 5029 5072 5034.9 5082 5034.9 5090.1 5040.8 5082 5046.7 5073.9 5040.8 5082 5046.7 5078.9 5037.2 5075.8 5027.6 5085.8 5027.6 5082.8 5037.2 5090.8 5043 5082.8 5037.2 5079.7 5046.7 5087.8 5052.5" clip-path="url(#a)" fill="none" stroke="#000" stroke-linecap="round"/>
<polyline points="5087.8 5052.5 5097.8 5052.5 5100.8 5062.1 5092.8 5067.9 5084.7 5062.1 5087.8 5071.6 5095.8 5077.4 5103.9 5071.6 5112 5065.7 5115.1 5056.2 5123.2 5062.1 5133.2 5062.1 5125.1 5067.9 5122 5058.4 5113.9 5064.3 5105.8 5058.4 5095.8 5058.4 5087.8 5052.5 5095.8 5046.7 5085.8 5046.7 5082.8 5056.2 5090.8 5050.3 5098.9 5056.2 5102 5065.7 5112 5065.7 5108.9 5075.2 5105.8 5084.7 5115.8 5084.7 5118.9 5094.2 5110.8 5088.3 5102.8 5094.2 5105.8 5084.7 5108.9 5094.2 5112 5103.7 5108.9 5113.2 5117 5107.4 5107 5107.4 5103.9 5116.9 5100.8 5126.4 5097.8 5116.9 5094.7 5107.4 5091.6 5097.9 5099.7 5092" clip-path="url(#a)" fill="none" stroke="#000" stroke-linecap="round"/>
<polyline points="5099.7 5092 5091.6 5097.9 5083.5 5092 5080.4 5101.5 5077.3 5092 5080.4 5082.5 5083.5 5073 5091.6 5067.1 5099.7 5073 5091.6 5078.8 5088.5 5088.3 5096.6 5094.2 5093.5 5084.7 5090.4 5094.2 5087.3 5084.7 5079.2 5090.6 5087.3 5084.7 5090.4 5075.2 5098.5 5069.3 5090.4 5063.4 5080.4 5063.4 5083.5 5073 5091.6 5067.1 5099.7 5061.2 5089.7 5061.2 5092.8 5051.7 5084.7 5045.8 5074.7 5045.8 5064.7 5045.8 5067.8 5055.3 5070.8 5064.8 5073.9 5074.3 5077 5064.8 5068.9 5059 5065.8 5049.4 5057.8 5043.6 5060.8 5034.1 5052.8 5039.9 5060.8 5034.1 5050.8 5034.1 5042.8 5028.2 5039.7 5037.7 5042.8 5028.2" clip-path="url(#a)" fill="none" stroke="#000" stroke-linecap="round"/>
<polyline points="5042.8 5028.2 5045.8 5037.7 5055.8 5037.7 5058.9 5028.2 5048.9 5028.2 5040.8 5034.1 5037.8 5024.5 5040.8 5034.1 5037.8 5043.6 5034.7 5034.1 5037.8 5043.6 5029.7 5037.7 5039.7 5037.7 5029.7 5037.7 5026.6 5047.2 5036.6 5047.2 5028.5 5053.1 5020.4 5059 5028.5 5053.1 5031.6 5043.6 5028.5 5053.1 5025.4 5062.6 5033.5 5068.5 5043.5 5068.5 5035.4 5062.6 5043.5 5068.5 5046.6 5078 5056.6 5078 5059.7 5068.5 5067.8 5074.3 5064.7 5064.8 5072.8 5070.7 5064.7 5076.6 5056.6 5070.7 5046.6 5070.7 5038.5 5076.6 5035.4 5086.1 5038.5 5076.6 5048.5 5076.6 5045.4 5086.1 5037.3 5092 5029.2 5086.1 5021.1 5092" clip-path="url(#a)" fill="none" stroke="#000" stroke-linecap="round"/>
<polyline points="5021.1 5092 5013 5086.1 5009.9 5095.6 5018 5101.5 5008 5101.5 4999.9 5107.4 4991.9 5101.5 4983.8 5095.6 4975.7 5101.5 4983.8 5095.6 4986.9 5105.1 4983.8 5095.6 4975.7 5089.7 4967.6 5083.8 4975.7 5078 4972.6 5068.5 4975.7 5059 4978.8 5068.5 4986.9 5074.3 4989.9 5064.8 4998 5070.7 5001.1 5061.2 4991.1 5061.2 4983 5055.3 4974.9 5049.4 4983 5055.3 4974.9 5049.4 4983 5043.6 4993 5043.6 4989.9 5034.1 4993 5024.5 5001.1 5018.7 5004.2 5009.2 4996.1 5015 4993 5024.5 4989.9 5015 4981.9 5020.9 4973.8 5026.8 4963.8 5026.8 4953.8 5026.8 4945.7 5032.7 4948.8 5042.2 4940.7 5048.1" clip-path="url(#a)" fill="none" stroke="#000" stroke-linecap="round"/>
<polyline points="4940.7 5048.1 4937.6 5038.5 4940.7 5048.1 4937.6 5038.5 4929.5 5044.4 4932.6 5034.9 4924.5 5040.8 4916.4 5034.9 4908.3 5029 4918.3 5029 4921.4 5038.5 4913.3 5032.7 4923.3 5032.7 4931.4 5038.5 4923.3 5032.7 4915.2 5038.5 4912.1 5029 4920.2 5023.2 4930.2 5023.2 4922.1 5029 4912.1 5029 4904 5023.2 4912.1 5029 4904 5034.9 4896 5040.8 4887.9 5034.9 4877.9 5034.9 4887.9 5034.9 4879.8 5029 4887.9 5034.9 4896 5040.8 4886 5040.8 4894 5046.7 4897.1 5037.2 4905.2 5043 4897.1 5048.9 4900.2 5039.4 4910.2 5039.4 4913.3 5029.9 4905.2 5035.8 4897.1 5041.6 4905.2 5047.5 4902.1 5038" clip-path="url(#a)" fill="none" stroke="#000" stroke-linecap="round"/>
<polyline points="4902.1 5038 4894 5043.9 4902.1 5049.8 4899 5040.3 4909 5040.3 4901 5046.1 4909 5052 4912.1 5061.5 4915.2 5052 4925.2 5052 4917.1 5046.1 4914 5036.6 4924 5036.6 4927.1 5046.1 4924 5036.6 4921 5046.1 4917.9 5055.6 4909.8 5049.8 4917.9 5043.9 4914.8 5034.4 4917.9 5043.9 4926 5038 4922.9 5028.5 4914.8 5022.6 4917.9 5013.1 4927.9 5013.1 4931 5022.6 4934 5013.1 4931 5003.6 4921 5003.6 4911 5003.6 4902.9 5009.5 4899.8 5e3 4891.7 4994.1 4901.7 4994.1 4898.6 5003.6 4908.6 5003.6 4911.7 5013.1 4919.8 5019 4922.9 5028.5 4912.9 5028.5 4921 5034.4 4929 5028.5" clip-path="url(#a)" fill="none" stroke="#000" stroke-linecap="round"/>
<polyline points="4929 5028.5 4919 5028.5 4916 5019 4919 5009.5 4911 5003.6 4919 4997.7 4927.1 4991.8 4919 4986 4922.1 4976.5 4925.2 4986 4935.2 4986 4927.1 4991.8 4930.2 4982.3 4933.3 4972.8 4941.4 4966.9 4931.4 4966.9 4939.5 4972.8 4947.6 4966.9 4955.7 4961.1 4952.6 4970.6 4949.5 4980.1 4946.4 4989.6 4936.4 4989.6 4946.4 4989.6 4949.5 4999.1 4957.6 4993.2 4954.5 5002.7 4946.4 5008.6 4938.3 5014.5 4928.3 5014.5 4925.2 5005 4935.2 5005 4943.3 4999.1 4940.2 4989.6 4937.1 4999.1 4945.2 4993.2 4942.1 5002.7 4952.1 5002.7 4942.1 5002.7 4934 5008.6 4924 5008.6 4927.1 5018.1 4935.2 5024" clip-path="url(#a)" fill="none" stroke="#000" stroke-linecap="round"/>
<polyline points="4935.2 5024 4938.3 5014.5 4928.3 5014.5 4918.3 5014.5 4926.4 5020.4 4918.3 5026.3 4921.4 5035.8 4929.5 5041.6 4937.6 5047.5 4940.7 5038 4943.8 5028.5 4946.9 5019 4938.8 5024.9 4941.9 5034.4 4938.8 5043.9 4941.9 5053.4 4933.8 5059.3 4943.8 5059.3 4933.8 5059.3 4941.9 5065.2 4944.9 5074.7 4953 5068.8 4944.9 5074.7 4948 5065.2 4939.9 5059.3 4931.9 5065.2 4939.9 5071 4949.9 5071 4946.9 5080.5 4949.9 5071 4958 5065.2 4954.9 5074.7 4958 5065.2 4961.1 5074.7 4953 5068.8 4961.1 5074.7 4969.2 5068.8 4961.1 5062.9 4971.1 5062.9 4981.1 5062.9 4971.1 5062.9 4963 5068.8 4971.1 5062.9" clip-path="url(#a)" fill="none" stroke="#000" stroke-linecap="round"/>
<polyline points="4971.1 5062.9 4979.2 5057 4976.1 5047.5 4968 5041.6 4971.1 5051.2 4968 5041.6 4971.1 5032.1 4963 5026.3 4954.9 5032.1 4951.9 5022.6 4948.8 5032.1 4945.7 5022.6 4955.7 5022.6 4958.8 5032.1 4966.9 5038 4976.9 5038 4984.9 5032.1 4976.9 5038 4968.8 5032.1 4976.9 5026.3 4986.9 5026.3 4989.9 5035.8 4999.9 5035.8 5003 5045.3 5011.1 5039.4 5008 5029.9 5016.1 5035.8 5026.1 5035.8 5029.2 5045.3 5032.3 5054.8 5042.3 5054.8 5032.3 5054.8 5035.4 5045.3 5032.3 5054.8 5035.4 5064.3 5038.5 5073.8 5028.5 5073.8 5025.4 5083.3 5017.3 5089.2 5020.4 5079.7 5017.3 5070.2 5009.2 5076.1 5006.1 5066.5" clip-path="url(#a)" fill="none" stroke="#000" stroke-linecap="round"/>
<polyline points="5006.1 5066.5 4998 5072.4 5006.1 5078.3 5009.2 5087.8 5012.3 5097.3 5009.2 5087.8 5012.3 5097.3 5002.3 5097.3 4994.2 5091.4 4991.1 5101 4983 5106.8 4973 5106.8 4964.9 5112.7 4974.9 5112.7 4983 5106.8 4979.9 5116.3 4989.9 5116.3 4999.9 5116.3 5008 5122.2 5016.1 5128.1 5026.1 5128.1 5029.2 5118.6 5039.2 5118.6 5036.1 5128.1 5039.2 5118.6 5036.1 5128.1 5046.1 5128.1 5038 5134 5048 5134 5051.1 5143.5 5054.2 5153 5046.1 5147.1 5049.2 5137.6 5052.3 5147.1 5044.2 5141.2 5041.1 5131.7 5044.2 5141.2 5054.2 5141.2 5051.1 5150.8 5041.1 5150.8 5033 5144.9 5043 5144.9 5051.1 5150.8" clip-path="url(#a)" fill="none" stroke="#000" stroke-linecap="round"/>
<polyline points="5051.1 5150.8 5054.2 5160.3 5051.1 5150.8 5061.1 5150.8 5071.1 5150.8 5074.2 5160.3 5082.3 5166.1 5074.2 5160.3 5077.3 5169.8 5074.2 5160.3 5071.1 5150.8 5079.2 5156.6 5076.1 5147.1 5068 5153 5064.9 5143.5 5074.9 5143.5 5066.9 5149.4 5058.8 5143.5 5050.7 5149.4 5060.7 5149.4 5070.7 5149.4 5067.6 5139.9 5064.5 5149.4 5074.5 5149.4 5071.4 5139.9 5068.3 5149.4 5060.2 5143.5 5070.2 5143.5 5067.1 5134 5070.2 5124.5 5062.1 5130.3 5054 5124.5 5057.1 5134 5054 5143.5 5046 5137.6 5049 5128.1 5046 5137.6 5054 5131.7 5062.1 5125.9 5065.2 5135.4 5055.2 5135.4 5052.1 5144.9 5055.2 5135.4" clip-path="url(#a)" fill="none" stroke="#000" stroke-linecap="round"/>
<polyline points="5055.2 5135.4 5045.2 5135.4 5042.1 5144.9 5045.2 5154.4 5037.1 5160.3 5029 5154.4 5032.1 5144.9 5024 5150.8 5021 5160.3 5029 5166.1 5037.1 5172 5047.1 5172 5044 5181.5 5047.1 5191 5039 5185.2 5047.1 5179.3 5039 5173.4 5042.1 5163.9 5039 5154.4 5042.1 5144.9 5050.2 5150.8 5047.1 5141.2 5037.1 5141.2 5045.2 5147.1 5042.1 5156.6 5034 5162.5 5037.1 5172 5027.1 5172 5017.1 5172 5020.2 5181.5 5012.1 5187.4 5015.2 5177.9 5007.1 5172 5017.1 5172 5009 5177.9 5001 5183.8 4991 5183.8 4999 5189.7 4996 5180.1 4986 5180.1 4976 5180.1 4984 5174.3 4992.1 5168.4" clip-path="url(#a)" fill="none" stroke="#000" stroke-linecap="round"/>
<polyline points="4992.1 5168.4 5000.2 5162.5 5008.3 5168.4 5000.2 5162.5 5003.3 5153 4993.3 5153 5001.4 5147.1 5011.4 5147.1 5021.4 5147.1 5029.5 5153 5026.4 5162.5 5018.3 5156.6 5008.3 5156.6 5005.2 5166.1 5013.3 5160.3 5003.3 5160.3 5011.4 5154.4 5003.3 5148.5 5011.4 5154.4 5021.4 5154.4 5029.5 5160.3 5032.6 5150.8 5029.5 5141.2 5021.4 5147.1 5029.5 5153 5037.6 5158.9 5034.5 5149.4 5044.5 5149.4 5047.6 5139.9 5044.5 5130.3 5041.4 5120.8 5033.3 5126.7 5025.2 5132.6 5017.1 5138.5 5027.1 5138.5 5030.2 5129 5038.3 5123.1 5041.4 5113.6 5051.4 5113.6 5043.3 5107.7 5051.4 5113.6 5048.3 5104.1 5051.4 5094.5" clip-path="url(#a)" fill="none" stroke="#000" stroke-linecap="round"/>
<polyline points="5051.4 5094.5 5041.4 5094.5 5051.4 5094.5 5043.3 5100.4 5046.4 5109.9 5056.4 5109.9 5053.3 5100.4 5045.2 5094.5 5053.3 5088.7 5045.2 5094.5 5035.2 5094.5 5043.3 5088.7 5035.2 5094.5 5038.3 5085 5041.4 5094.5 5038.3 5085 5028.3 5085 5031.4 5094.5 5023.3 5088.7 5015.2 5082.8 5023.3 5088.7 5033.3 5088.7 5023.3 5088.7 5013.3 5088.7 5010.2 5098.2 5013.3 5107.7 5016.4 5098.2 5013.3 5107.7 5005.2 5113.6 5008.3 5123.1 5018.3 5123.1 5015.2 5132.6 5023.3 5126.7 5020.2 5136.2 5012.1 5130.3 5015.2 5120.8 5012.1 5111.3 5004 5105.4 4994 5105.4 5004 5105.4 5007.1 5115 4997.1 5115 4989 5109.1" clip-path="url(#a)" fill="none" stroke="#000" stroke-linecap="round"/>
<polyline points="4989 5109.1 4992.1 5099.6 4984 5093.7 4987.1 5084.2 4977.1 5084.2 4974 5093.7 4971 5084.2 4962.9 5078.3 4966 5068.8 4969 5059.3 4961 5053.4 4969 5059.3 4961 5065.2 4969 5059.3 4972.1 5049.8 4975.2 5040.3 4983.3 5046.1 4991.4 5040.3 5001.4 5040.3 4993.3 5046.1 4990.2 5055.6 5000.2 5055.6 4997.1 5065.2 5007.1 5065.2 5004 5055.6 5007.1 5046.1 5010.2 5036.6 5007.1 5046.1 5010.2 5036.6 5018.3 5042.5 5021.4 5052 5029.5 5046.1 5039.5 5046.1 5047.6 5052 5057.6 5052 5049.5 5046.1 5039.5 5046.1 5047.6 5040.3 5039.5 5034.4 5031.4 5028.5 5028.3 5019 5025.2 5009.5 5017.1 5003.6" clip-path="url(#a)" fill="none" stroke="#000" stroke-linecap="round"/>
<polyline points="5017.1 5003.6 5009 5009.5 5001 5003.6 5009 4997.7 5001 5003.6 5009 4997.7 5001 4991.8 5011 4991.8 5002.9 4986 5006 4976.5 5009 4966.9 5012.1 4976.5 5004 4982.3 5007.1 4972.8 5010.2 4982.3 5007.1 4991.8 5010.2 4982.3 5002.1 4976.5 5010.2 4970.6 5018.3 4976.5 5021.4 4986 5013.3 4980.1 5010.2 4970.6 5013.3 4961.1 5010.2 4970.6 5002.1 4964.7 4994 4958.8 4997.1 4949.3 4994 4939.8 4997.1 4949.3 5000.2 4939.8 4997.1 4949.3 4994 4958.8 4991 4949.3 4987.9 4958.8 4997.9 4958.8 4994.8 4968.3 4986.7 4962.5 4996.7 4962.5 4999.8 4972 5009.8 4972 5001.7 4966.1 4993.6 4960.2" clip-path="url(#a)" fill="none" stroke="#000" stroke-linecap="round"/>
<polyline points="4993.6 4960.2 4990.5 4969.7 4998.6 4963.8 4990.5 4958 4987.4 4967.5 4995.5 4961.6 4998.6 4971.1 4990.5 4965.2 4987.4 4974.7 4979.3 4980.6 4989.3 4980.6 4992.4 4990.1 4995.5 4980.6 5003.6 4974.7 5006.7 4984.3 4998.6 4990.1 5006.7 4984.3 4996.7 4984.3 4986.7 4984.3 4989.8 4974.7 4997.9 4980.6 5006 4974.7 4997.9 4980.6 5006 4986.5 5014 4980.6 5017.1 4971.1 5027.1 4971.1 5030.2 4980.6 5022.1 4986.5 5032.1 4986.5 5040.2 4980.6 5037.1 4971.1 5034 4961.6 5026 4955.7 5034 4949.8 5037.1 4940.3 5040.2 4949.8 5030.2 4949.8 5033.3 4959.4 5025.2 4965.2 5022.1 4974.7 5014 4980.6 5011 4971.1" clip-path="url(#a)" fill="none" stroke="#000" stroke-linecap="round"/>
<polyline points="5011 4971.1 5007.9 4980.6 5016 4986.5 5012.9 4977 5021 4971.1 5031 4971.1 5034 4961.6 5042.1 4967.5 5050.2 4973.4 5053.3 4963.8 5063.3 4963.8 5055.2 4969.7 5058.3 4979.2 5050.2 4973.4 5060.2 4973.4 5070.2 4973.4 5078.3 4979.2 5075.2 4969.7 5072.1 4979.2 5080.2 4985.1 5088.3 4991 5078.3 4991 5068.3 4991 5058.3 4991 5055.2 4981.5 5058.3 4991 5050.2 4996.9 5058.3 5002.7 5048.3 5002.7 5040.2 4996.9 5032.1 4991 5029 4981.5 5037.1 4975.6 5040.2 4985.1 5048.3 4991 5056.4 4985.1 5046.4 4985.1 5054.5 4991 5044.5 4991 5047.6 5000.5 5044.5 4991 5036.4 4985.1 5033.3 4975.6" clip-path="url(#a)" fill="none" stroke="#000" stroke-linecap="round"/>
<polyline points="5033.3 4975.6 5025.2 4981.5 5022.1 4991 5032.1 4991 5029 4981.5 5026 4972 5022.9 4981.5 5014.8 4975.6 5006.7 4981.5 5003.6 4991 5000.5 5000.5 5010.5 5000.5 5020.5 5000.5 5030.5 5000.5 5022.4 4994.6 5014.3 5000.5 5004.3 5000.5 4996.2 5006.4 4988.1 5000.5 4991.2 5010 4988.1 5000.5 4985 5010 4977 5015.9 4985 5021.8 4977 5015.9 4987 5015.9 4990 5006.4 4982 5000.5 4978.9 5010 4982 5019.5 4972 5019.5 4982 5019.5 4990 5025.4 4980 5025.4 4990 5025.4 4982 5031.3 4985 5021.8 4982 5031.3 4990 5037.2 4993.1 5027.6 4996.2 5037.2 4999.3 5046.7 4996.2 5037.2" clip-path="url(#a)" fill="none" stroke="#000" stroke-linecap="round"/>
<polyline points="4996.2 5037.2 4988.1 5031.3 4996.2 5037.2 5004.3 5043 5012.4 5037.2 5015.5 5027.6 5007.4 5033.5 5015.5 5027.6 5025.5 5027.6 5028.6 5018.1 5020.5 5012.3 5028.6 5006.4 5018.6 5006.4 5026.7 5000.5 5029.8 5010 5021.7 5015.9 5018.6 5025.4 5021.7 5034.9 5029.8 5040.8 5021.7 5034.9 5024.8 5025.4 5032.9 5031.3 5036 5040.8 5027.9 5046.7 5031 5056.2 5022.9 5062.1 5031 5067.9 5039 5062.1 5036 5071.6 5039 5081.1 5031 5087 5022.9 5092.8 5026 5102.3 5022.9 5092.8 5032.9 5092.8 5022.9 5092.8 5014.8 5098.7 5006.7 5104.6 5003.6 5095.1 4993.6 5095.1 4985.5 5089.2 4995.5 5089.2 5003.6 5083.3" clip-path="url(#a)" fill="none" stroke="#000" stroke-linecap="round"/>
<polyline points="5003.6 5083.3 4995.5 5077.4 5003.6 5071.6 4995.5 5065.7 4992.4 5075.2 4984.3 5081.1 4976.2 5087 4984.3 5081.1 4976.2 5087 4973.1 5077.4 4976.2 5067.9 4966.2 5067.9 4958.1 5062.1 4955 5052.5 4947 5046.7 4950 5056.2 4958.1 5062.1 4948.1 5062.1 4951.2 5071.6 4954.3 5081.1 4951.2 5090.6 4948.1 5100.1 4951.2 5109.6 4961.2 5109.6 4964.3 5119.1 4954.3 5119.1 4964.3 5119.1 4954.3 5119.1 4957.4 5128.6 4949.3 5122.7 4952.4 5132.3 4944.3 5138.1 4936.2 5144 4939.3 5134.5 4949.3 5134.5 4941.2 5140.4 4944.3 5130.9 4952.4 5125 4944.3 5130.9 4947.4 5140.4 4937.4 5140.4 4934.3 5130.9 4937.4 5121.4" clip-path="url(#a)" fill="none" stroke="#000" stroke-linecap="round"/>
<polyline points="4937.4 5121.4 4940.5 5130.9 4937.4 5140.4 4929.3 5146.3 4937.4 5140.4 4940.5 5149.9 4943.6 5159.4 4935.5 5165.3 4932.4 5174.8 4935.5 5165.3 4927.4 5171.2 4935.5 5165.3 4943.6 5159.4 4940.5 5168.9 4948.6 5163 4940.5 5157.2 4948.6 5151.3 4951.7 5160.8 4943.6 5154.9 4946.7 5145.4 4938.6 5139.5 4941.7 5149 4944.8 5158.5 4952.9 5152.7 4942.9 5152.7 4946 5162.2 4954 5156.3 4944 5156.3 4947.1 5146.8 4950.2 5156.3 4958.3 5150.4 4968.3 5150.4 4960.2 5144.5 4963.3 5135 4955.2 5140.9 4945.2 5140.9 4948.3 5131.4 4958.3 5131.4 4948.3 5131.4 4956.4 5137.3 4964.5 5143.2 4956.4 5149 4953.3 5139.5" clip-path="url(#a)" fill="none" stroke="#000" stroke-linecap="round"/>
<polyline points="4953.3 5139.5 4943.3 5139.5 4953.3 5139.5 4950.2 5130 4940.2 5130 4932.1 5135.9 4924 5130 4927.1 5120.5 4937.1 5120.5 4929 5114.6 4919 5114.6 4916 5124.1 4912.9 5133.6 4916 5143.2 4906 5143.2 4897.9 5149 4901 5139.5 4909 5145.4 4912.1 5135.9 4922.1 5135.9 4930.2 5130 4940.2 5130 4937.1 5139.5 4945.2 5133.6 4942.1 5124.1 4939 5133.6 4929 5133.6 4921 5127.8 4912.9 5133.6 4909.8 5124.1 4906.7 5114.6 4898.6 5120.5 4890.5 5114.6 4900.5 5114.6 4903.6 5105.1 4906.7 5114.6 4898.6 5108.7 4890.5 5102.9 4887.4 5093.4 4884.3 5102.9 4892.4 5097 4889.3 5087.5 4886.2 5078" clip-path="url(#a)" fill="none" stroke="#000" stroke-linecap="round"/>
<polyline points="4886.2 5078 4894.3 5083.8 4902.4 5089.7 4910.5 5095.6 4907.4 5105.1 4910.5 5095.6 4920.5 5095.6 4917.4 5086.1 4925.5 5092 4928.6 5101.5 4931.7 5111 4928.6 5120.5 4918.6 5120.5 4921.7 5111 4918.6 5101.5 4908.6 5101.5 4916.7 5107.4 4913.6 5097.9 4921.7 5103.7 4924.8 5094.2 4921.7 5103.7 4924.8 5113.2 4921.7 5122.7 4931.7 5122.7 4939.8 5116.9 4931.7 5111 4928.6 5120.5 4925.5 5130 4933.6 5124.1 4936.7 5133.6 4946.7 5133.6 4954.8 5127.8 4962.9 5121.9 4954.8 5116 4946.7 5110.1 4938.6 5104.3 4941.7 5113.8 4951.7 5113.8 4959.8 5119.6 4969.8 5119.6 4972.9 5129.2 4976 5119.6 4972.9 5129.2" clip-path="url(#a)" fill="none" stroke="#000" stroke-linecap="round"/>
<polyline points="4972.9 5129.2 4981 5123.3 4991 5123.3 4987.9 5113.8 4991 5123.3 4982.9 5117.4 4974.8 5123.3 4977.9 5132.8 4986 5126.9 4989 5117.4 4997.1 5123.3 4989 5117.4 4986 5107.9 4994 5113.8 4986 5107.9 4996 5107.9 4987.9 5113.8 4996 5107.9 4992.9 5098.4 4984.8 5104.3 4987.9 5094.7 4991 5085.2 4987.9 5094.7 4991 5104.3 4987.9 5094.7 4984.8 5085.2 4974.8 5085.2 4966.7 5091.1 4976.7 5091.1 4966.7 5091.1 4958.6 5085.2 4950.5 5091.1 4953.6 5100.6 4943.6 5100.6 4951.7 5106.5 4941.7 5106.5 4944.8 5097 4954.8 5097 4962.9 5091.1 4966 5081.6 4962.9 5072.1 4966 5081.6 4957.9 5087.5" clip-path="url(#a)" fill="none" stroke="#000" stroke-linecap="round"/>
<polyline points="4957.9 5087.5 4954.8 5078 4957.9 5068.5 4967.9 5068.5 4971 5059 4981 5059 4977.9 5049.4 4967.9 5049.4 4976 5043.6 4979 5034.1 4989 5034.1 4999 5034.1 5002.1 5024.5 4999 5034.1 4991 5028.2 4999 5034.1 5009 5034.1 5019 5034.1 5016 5043.6 5024 5049.4 5027.1 5059 5019 5053.1 5009 5053.1 5012.1 5062.6 5002.1 5062.6 5005.2 5072.1 5013.3 5066.2 5023.3 5066.2 5033.3 5066.2 5023.3 5066.2 5033.3 5066.2 5030.2 5075.7 5022.1 5081.6 5030.2 5087.5 5033.3 5097 5030.2 5106.5 5033.3 5116 5036.4 5106.5 5033.3 5097 5041.4 5102.9 5044.5 5093.4 5047.6 5083.8 5055.7 5078" clip-path="url(#a)" fill="none" stroke="#000" stroke-linecap="round"/>
<polyline points="5055.7 5078 5063.8 5072.1 5066.9 5062.6 5058.8 5056.7 5061.9 5047.2 5069.9 5053.1 5061.9 5047.2 5069.9 5053.1 5073 5043.6 5076.1 5053.1 5079.2 5043.6 5089.2 5043.6 5099.2 5043.6 5091.1 5049.4 5083 5043.6 5093 5043.6 5084.9 5049.4 5074.9 5049.4 5084.9 5049.4 5088 5039.9 5096.1 5045.8 5093 5055.3 5084.9 5061.2 5088 5051.7 5096.1 5045.8 5106.1 5045.8 5096.1 5045.8 5099.2 5036.3 5102.3 5026.8 5112.3 5026.8 5120.4 5020.9 5112.3 5026.8 5122.3 5026.8 5112.3 5026.8 5102.3 5026.8 5110.4 5020.9 5100.4 5020.9 5103.5 5030.4 5093.5 5030.4 5096.6 5020.9 5099.7 5030.4 5091.6 5036.3 5094.7 5045.8" clip-path="url(#a)" fill="none" stroke="#000" stroke-linecap="round"/>
<polyline points="5094.7 5045.8 5097.8 5036.3 5100.8 5026.8 5090.8 5026.8 5098.9 5032.7 5102 5023.2 5092 5023.2 5100.1 5029 5092 5034.9 5095.1 5025.4 5085.1 5025.4 5077 5019.5 5080.1 5029 5072 5034.9 5082 5034.9 5090.1 5040.8 5082 5046.7 5073.9 5040.8 5082 5046.7 5078.9 5037.2 5075.8 5027.6 5085.8 5027.6 5082.8 5037.2 5090.8 5043 5082.8 5037.2 5079.7 5046.7 5087.8 5052.5 5097.8 5052.5 5100.8 5062.1 5092.8 5067.9 5084.7 5062.1 5087.8 5071.6 5095.8 5077.4 5103.9 5071.6 5112 5065.7 5115.1 5056.2 5123.2 5062.1 5133.2 5062.1 5125.1 5067.9 5122 5058.4 5113.9 5064.3 5105.8 5058.4 5095.8 5058.4" clip-path="url(#a)" fill="none" stroke="#000" stroke-linecap="round"/>
<polyline points="5095.8 5058.4 5087.8 5052.5 5095.8 5046.7 5085.8 5046.7 5082.8 5056.2 5090.8 5050.3 5098.9 5056.2 5102 5065.7 5112 5065.7 5108.9 5075.2 5105.8 5084.7 5115.8 5084.7 5118.9 5094.2 5110.8 5088.3 5102.8 5094.2 5105.8 5084.7 5108.9 5094.2 5112 5103.7 5108.9 5113.2 5117 5107.4 5107 5107.4 5103.9 5116.9 5100.8 5126.4 5097.8 5116.9 5094.7 5107.4 5091.6 5097.9 5099.7 5092 5091.6 5097.9 5083.5 5092 5080.4 5101.5 5077.3 5092 5080.4 5082.5 5083.5 5073 5091.6 5067.1 5099.7 5073 5091.6 5078.8 5088.5 5088.3 5096.6 5094.2 5093.5 5084.7 5090.4 5094.2 5087.3 5084.7 5079.2 5090.6 5087.3 5084.7" clip-path="url(#a)" fill="none" stroke="#000" stroke-linecap="round"/>
<polyline points="5087.3 5084.7 5090.4 5075.2 5098.5 5069.3 5090.4 5063.4 5080.4 5063.4 5083.5 5073 5091.6 5067.1 5099.7 5061.2 5089.7 5061.2 5092.8 5051.7 5084.7 5045.8 5074.7 5045.8 5064.7 5045.8 5067.8 5055.3 5070.8 5064.8 5073.9 5074.3 5077 5064.8 5068.9 5059 5065.8 5049.4 5057.8 5043.6 5060.8 5034.1 5052.8 5039.9 5060.8 5034.1 5050.8 5034.1 5042.8 5028.2 5039.7 5037.7 5042.8 5028.2 5045.8 5037.7 5055.8 5037.7 5058.9 5028.2 5048.9 5028.2 5040.8 5034.1 5037.8 5024.5 5040.8 5034.1 5037.8 5043.6 5034.7 5034.1 5037.8 5043.6 5029.7 5037.7 5039.7 5037.7 5029.7 5037.7 5026.6 5047.2 5036.6 5047.2 5028.5 5053.1" clip-path="url(#a)" fill="none" stroke="#000" stroke-linecap="round"/>
<polyline points="5028.5 5053.1 5020.4 5059 5028.5 5053.1 5031.6 5043.6 5028.5 5053.1 5025.4 5062.6 5033.5 5068.5 5043.5 5068.5 5035.4 5062.6 5043.5 5068.5 5046.6 5078 5056.6 5078 5059.7 5068.5 5067.8 5074.3 5064.7 5064.8 5072.8 5070.7 5064.7 5076.6 5056.6 5070.7 5046.6 5070.7 5038.5 5076.6 5035.4 5086.1 5038.5 5076.6 5048.5 5076.6 5045.4 5086.1 5037.3 5092 5029.2 5086.1 5021.1 5092 5013 5086.1 5009.9 5095.6 5018 5101.5 5008 5101.5 4999.9 5107.4 4991.9 5101.5 4983.8 5095.6 4975.7 5101.5 4983.8 5095.6 4986.9 5105.1 4983.8 5095.6 4975.7 5089.7 4967.6 5083.8 4975.7 5078 4972.6 5068.5 4975.7 5059" clip-path="url(#a)" fill="none" stroke="#000" stroke-linecap="round"/>
<polyline points="4975.7 5059 4978.8 5068.5 4986.9 5074.3 4989.9 5064.8 4998 5070.7 5001.1 5061.2 4991.1 5061.2 4983 5055.3 4974.9 5049.4 4983 5055.3 4974.9 5049.4 4983 5043.6 4993 5043.6 4989.9 5034.1 4993 5024.5 5001.1 5018.7 5004.2 5009.2 4996.1 5015 4993 5024.5 4989.9 5015 4981.9 5020.9 4973.8 5026.8 4963.8 5026.8 4953.8 5026.8 4945.7 5032.7 4948.8 5042.2 4940.7 5048.1 4937.6 5038.5 4940.7 5048.1 4937.6 5038.5 4929.5 5044.4 4932.6 5034.9 4924.5 5040.8 4916.4 5034.9 4908.3 5029 4918.3 5029 4921.4 5038.5 4913.3 5032.7 4923.3 5032.7 4931.4 5038.5 4923.3 5032.7 4915.2 5038.5 4912.1 5029" clip-path="url(#a)" fill="none" stroke="#000" stroke-linecap="round"/>
<polyline points="4912.1 5029 4920.2 5023.2 4930.2 5023.2 4922.1 5029 4912.1 5029 4904 5023.2 4912.1 5029 4904 5034.9 4896 5040.8 4887.9 5034.9 4877.9 5034.9 4887.9 5034.9 4879.8 5029 4887.9 5034.9 4896 5040.8 4886 5040.8 4894 5046.7 4897.1 5037.2 4905.2 5043 4897.1 5048.9 4900.2 5039.4 4910.2 5039.4 4913.3 5029.9 4905.2 5035.8 4897.1 5041.6 4905.2 5047.5 4902.1 5038 4894 5043.9 4902.1 5049.8 4899 5040.3 4909 5040.3 4901 5046.1 4909 5052 4912.1 5061.5 4915.2 5052 4925.2 5052 4917.1 5046.1 4914 5036.6 4924 5036.6 4927.1 5046.1 4924 5036.6 4921 5046.1 4917.9 5055.6" clip-path="url(#a)" fill="none" stroke="#000" stroke-linecap="round"/>
<polyline points="4917.9 5055.6 4909.8 5049.8 4917.9 5043.9 4914.8 5034.4 4917.9 5043.9 4926 5038 4922.9 5028.5 4914.8 5022.6 4917.9 5013.1 4927.9 5013.1 4931 5022.6 4934 5013.1 4931 5003.6 4921 5003.6 4911 5003.6 4902.9 5009.5 4899.8 5e3 4891.7 4994.1 4901.7 4994.1 4898.6 5003.6 4908.6 5003.6 4911.7 5013.1 4919.8 5019 4922.9 5028.5 4912.9 5028.5 4921 5034.4 4929 5028.5 4919 5028.5 4916 5019 4919 5009.5 4911 5003.6 4919 4997.7 4927.1 4991.8 4919 4986 4922.1 4976.5 4925.2 4986 4935.2 4986 4927.1 4991.8 4930.2 4982.3 4933.3 4972.8 4941.4 4966.9 4931.4 4966.9 4939.5 4972.8" clip-path="url(#a)" fill="none" stroke="#000" stroke-linecap="round"/>
<polyline points="4939.5 4972.8 4947.6 4966.9 4955.7 4961.1 4952.6 4970.6 4949.5 4980.1 4946.4 4989.6 4936.4 4989.6 4946.4 4989.6 4949.5 4999.1 4957.6 4993.2 4954.5 5002.7 4946.4 5008.6 4938.3 5014.5 4928.3 5014.5 4925.2 5005 4935.2 5005 4943.3 4999.1 4940.2 4989.6 4937.1 4999.1 4945.2 4993.2 4942.1 5002.7 4952.1 5002.7 4942.1 5002.7 4934 5008.6 4924 5008.6 4927.1 5018.1 4935.2 5024 4938.3 5014.5 4928.3 5014.5 4918.3 5014.5 4926.4 5020.4 4918.3 5026.3 4921.4 5035.8 4929.5 5041.6 4937.6 5047.5 4940.7 5038 4943.8 5028.5 4946.9 5019 4938.8 5024.9 4941.9 5034.4 4938.8 5043.9 4941.9 5053.4 4933.8 5059.3" clip-path="url(#a)" fill="none" stroke="#000" stroke-linecap="round"/>
<polyline points="4933.8 5059.3 4943.8 5059.3 4933.8 5059.3 4941.9 5065.2 4944.9 5074.7 4953 5068.8 4944.9 5074.7 4948 5065.2 4939.9 5059.3 4931.9 5065.2 4939.9 5071 4949.9 5071 4946.9 5080.5 4949.9 5071 4958 5065.2 4954.9 5074.7 4958 5065.2 4961.1 5074.7 4953 5068.8 4961.1 5074.7 4969.2 5068.8 4961.1 5062.9 4971.1 5062.9 4981.1 5062.9 4971.1 5062.9 4963 5068.8 4971.1 5062.9 4979.2 5057 4976.1 5047.5 4968 5041.6 4971.1 5051.2 4968 5041.6 4971.1 5032.1 4963 5026.3 4954.9 5032.1 4951.9 5022.6 4948.8 5032.1 4945.7 5022.6 4955.7 5022.6 4958.8 5032.1 4966.9 5038 4976.9 5038 4984.9 5032.1" clip-path="url(#a)" fill="none" stroke="#000" stroke-linecap="round"/>
<polyline points="4984.9 5032.1 4976.9 5038 4968.8 5032.1 4976.9 5026.3 4986.9 5026.3 4989.9 5035.8 4999.9 5035.8 5003 5045.3 5011.1 5039.4 5008 5029.9 5016.1 5035.8 5026.1 5035.8 5029.2 5045.3 5032.3 5054.8 5042.3 5054.8 5032.3 5054.8 5035.4 5045.3 5032.3 5054.8 5035.4 5064.3 5038.5 5073.8 5028.5 5073.8 5025.4 5083.3 5017.3 5089.2 5020.4 5079.7 5017.3 5070.2 5009.2 5076.1 5006.1 5066.5 4998 5072.4 5006.1 5078.3 5009.2 5087.8 5012.3 5097.3 5009.2 5087.8 5012.3 5097.3 5002.3 5097.3 4994.2 5091.4 4991.1 5101 4983 5106.8 4973 5106.8 4964.9 5112.7 4974.9 5112.7 4983 5106.8 4979.9 5116.3 4989.9 5116.3" clip-path="url(#a)" fill="none" stroke="#000" stroke-linecap="round"/>
<polyline points="4989.9 5116.3 4999.9 5116.3 5008 5122.2 5016.1 5128.1 5026.1 5128.1 5029.2 5118.6 5039.2 5118.6 5036.1 5128.1 5039.2 5118.6 5036.1 5128.1 5046.1 5128.1 5038 5134 5048 5134 5051.1 5143.5 5054.2 5153 5046.1 5147.1 5049.2 5137.6 5052.3 5147.1 5044.2 5141.2 5041.1 5131.7 5044.2 5141.2 5054.2 5141.2 5051.1 5150.8 5041.1 5150.8 5033 5144.9 5043 5144.9 5051.1 5150.8 5054.2 5160.3 5051.1 5150.8 5061.1 5150.8 5071.1 5150.8 5074.2 5160.3 5082.3 5166.1 5074.2 5160.3 5077.3 5169.8 5074.2 5160.3 5071.1 5150.8 5079.2 5156.6 5076.1 5147.1 5068 5153 5064.9 5143.5 5074.9 5143.5 5066.9 5149.4" clip-path="url(#a)" fill="none" stroke="#000" stroke-linecap="round"/>
<polyline points="5066.9 5149.4 5058.8 5143.5 5050.7 5149.4 5060.7 5149.4 5070.7 5149.4 5067.6 5139.9 5064.5 5149.4 5074.5 5149.4 5071.4 5139.9 5068.3 5149.4 5060.2 5143.5 5070.2 5143.5 5067.1 5134 5070.2 5124.5 5062.1 5130.3 5054 5124.5 5057.1 5134 5054 5143.5 5046 5137.6 5049 5128.1 5046 5137.6 5054 5131.7 5062.1 5125.9 5065.2 5135.4 5055.2 5135.4 5052.1 5144.9 5055.2 5135.4 5045.2 5135.4 5042.1 5144.9 5045.2 5154.4 5037.1 5160.3 5029 5154.4 5032.1 5144.9 5024 5150.8 5021 5160.3 5029 5166.1 5037.1 5172 5047.1 5172 5044 5181.5 5047.1 5191 5039 5185.2 5047.1 5179.3 5039 5173.4" clip-path="url(#a)" fill="none" stroke="#000" stroke-linecap="round"/>
<polyline points="5039 5173.4 5042.1 5163.9 5039 5154.4 5042.1 5144.9 5050.2 5150.8 5047.1 5141.2 5037.1 5141.2 5045.2 5147.1 5042.1 5156.6 5034 5162.5 5037.1 5172 5027.1 5172 5017.1 5172 5020.2 5181.5 5012.1 5187.4 5015.2 5177.9 5007.1 5172 5017.1 5172 5009 5177.9 5001 5183.8 4991 5183.8 4999 5189.7 4996 5180.1 4986 5180.1 4976 5180.1 4984 5174.3 4992.1 5168.4 5000.2 5162.5 5008.3 5168.4 5000.2 5162.5 5003.3 5153 4993.3 5153 5001.4 5147.1 5011.4 5147.1 5021.4 5147.1 5029.5 5153 5026.4 5162.5 5018.3 5156.6 5008.3 5156.6 5005.2 5166.1 5013.3 5160.3 5003.3 5160.3 5011.4 5154.4" clip-path="url(#a)" fill="none" stroke="#000" stroke-linecap="round"/>
<polyline points="5011.4 5154.4 5003.3 5148.5 5011.4 5154.4 5021.4 5154.4 5029.5 5160.3 5032.6 5150.8 5029.5 5141.2 5021.4 5147.1 5029.5 5153 5037.6 5158.9 5034.5 5149.4 5044.5 5149.4 5047.6 5139.9 5044.5 5130.3 5041.4 5120.8 5033.3 5126.7 5025.2 5132.6 5017.1 5138.5 5027.1 5138.5 5030.2 5129 5038.3 5123.1 5041.4 5113.6 5051.4 5113.6 5043.3 5107.7 5051.4 5113.6 5048.3 5104.1 5051.4 5094.5 5041.4 5094.5 5051.4 5094.5 5043.3 5100.4 5046.4 5109.9 5056.4 5109.9 5053.3 5100.4 5045.2 5094.5 5053.3 5088.7 5045.2 5094.5 5035.2 5094.5 5043.3 5088.7 5035.2 5094.5 5038.3 5085 5041.4 5094.5 5038.3 5085 5028.3 5085" clip-path="url(#a)" fill="none" stroke="#000" stroke-linecap="round"/>
<polyline points="5028.3 5085 5031.4 5094.5 5023.3 5088.7 5015.2 5082.8 5023.3 5088.7 5033.3 5088.7 5023.3 5088.7 5013.3 5088.7 5010.2 5098.2 5013.3 5107.7 5016.4 5098.2 5013.3 5107.7 5005.2 5113.6 5008.3 5123.1 5018.3 5123.1 5015.2 5132.6 5023.3 5126.7 5020.2 5136.2 5012.1 5130.3 5015.2 5120.8 5012.1 5111.3 5004 5105.4 4994 5105.4 5004 5105.4 5007.1 5115 4997.1 5115 4989 5109.1 4992.1 5099.6 4984 5093.7 4987.1 5084.2 4977.1 5084.2 4974 5093.7 4971 5084.2 4962.9 5078.3 4966 5068.8 4969 5059.3 4961 5053.4 4969 5059.3 4961 5065.2 4969 5059.3 4972.1 5049.8 4975.2 5040.3 4983.3 5046.1" clip-path="url(#a)" fill="none" stroke="#000" stroke-linecap="round"/>
<polyline points="4983.3 5046.1 4991.4 5040.3 5001.4 5040.3 4993.3 5046.1 4990.2 5055.6 5000.2 5055.6 4997.1 5065.2 5007.1 5065.2 5004 5055.6 5007.1 5046.1 5010.2 5036.6 5007.1 5046.1 5010.2 5036.6 5018.3 5042.5 5021.4 5052 5029.5 5046.1 5039.5 5046.1 5047.6 5052 5057.6 5052 5049.5 5046.1 5039.5 5046.1 5047.6 5040.3 5039.5 5034.4 5031.4 5028.5 5028.3 5019 5025.2 5009.5 5017.1 5003.6 5009 5009.5 5001 5003.6 5009 4997.7 5001 5003.6 5009 4997.7 5001 4991.8 5011 4991.8 5002.9 4986 5006 4976.5 5009 4966.9 5012.1 4976.5 5004 4982.3 5007.1 4972.8 5010.2 4982.3 5007.1 4991.8 5010.2 4982.3" clip-path="url(#a)" fill="none" stroke="#000" stroke-linecap="round"/>
<polyline points="5010.2 4982.3 5002.1 4976.5 5010.2 4970.6 5018.3 4976.5 5021.4 4986 5013.3 4980.1 5010.2 4970.6 5013.3 4961.1 5010.2 4970.6 5002.1 4964.7 4994 4958.8 4997.1 4949.3 4994 4939.8 4997.1 4949.3 5000.2 4939.8 4997.1 4949.3 4994 4958.8 4991 4949.3 4987.9 4958.8 4997.9 4958.8 4994.8 4968.3 4986.7 4962.5 4996.7 4962.5 4999.8 4972 5009.8 4972 5001.7 4966.1 4993.6 4960.2 4990.5 4969.7 4998.6 4963.8 4990.5 4958 4987.4 4967.5 4995.5 4961.6 4998.6 4971.1 4990.5 4965.2 4987.4 4974.7 4979.3 4980.6 4989.3 4980.6 4992.4 4990.1 4995.5 4980.6 5003.6 4974.7 5006.7 4984.3 4998.6 4990.1 5006.7 4984.3" clip-path="url(#a)" fill="none" stroke="#000" stroke-linecap="round"/>
<polyline points="5006.7 4984.3 4996.7 4984.3 4986.7 4984.3 4989.8 4974.7 4997.9 4980.6 5006 4974.7 4997.9 4980.6 5006 4986.5 5014 4980.6 5017.1 4971.1 5027.1 4971.1 5030.2 4980.6 5022.1 4986.5 5032.1 4986.5 5040.2 4980.6 5037.1 4971.1 5034 4961.6 5026 4955.7 5034 4949.8 5037.1 4940.3 5040.2 4949.8 5030.2 4949.8 5033.3 4959.4 5025.2 4965.2 5022.1 4974.7 5014 4980.6 5011 4971.1 5007.9 4980.6 5016 4986.5 5012.9 4977 5021 4971.1 5031 4971.1 5034 4961.6 5042.1 4967.5 5050.2 4973.4 5053.3 4963.8 5063.3 4963.8 5055.2 4969.7 5058.3 4979.2 5050.2 4973.4 5060.2 4973.4 5070.2 4973.4 5078.3 4979.2" clip-path="url(#a)" fill="none" stroke="#000" stroke-linecap="round"/>
<polyline points="5078.3 4979.2 5075.2 4969.7 5072.1 4979.2 5080.2 4985.1 5088.3 4991 5078.3 4991 5068.3 4991 5058.3 4991 5055.2 4981.5 5058.3 4991 5050.2 4996.9 5058.3 5002.7 5048.3 5002.7 5040.2 4996.9 5032.1 4991 5029 4981.5 5037.1 4975.6 5040.2 4985.1 5048.3 4991 5056.4 4985.1 5046.4 4985.1 5054.5 4991 5044.5 4991 5047.6 5000.5 5044.5 4991 5036.4 4985.1 5033.3 4975.6 5025.2 4981.5 5022.1 4991 5032.1 4991 5029 4981.5 5026 4972 5022.9 4981.5 5014.8 4975.6 5006.7 4981.5 5003.6 4991 5000.5 5000.5 5010.5 5000.5 5020.5 5000.5 5030.5 5000.5 5022.4 4994.6 5014.3 5000.5 5004.3 5000.5" clip-path="url(#a)" fill="none" stroke="#000" stroke-linecap="round"/>
<polyline points="5004.3 5000.5 4996.2 5006.4 4988.1 5000.5 4991.2 5010 4988.1 5000.5 4985 5010 4977 5015.9 4985 5021.8 4977 5015.9 4987 5015.9 4990 5006.4 4982 5000.5 4978.9 5010 4982 5019.5 4972 5019.5 4982 5019.5 4990 5025.4 4980 5025.4 4990 5025.4 4982 5031.3 4985 5021.8 4982 5031.3 4990 5037.2 4993.1 5027.6 4996.2 5037.2 4999.3 5046.7 4996.2 5037.2 4988.1 5031.3 4996.2 5037.2 5004.3 5043 5012.4 5037.2 5015.5 5027.6 5007.4 5033.5 5015.5 5027.6 5025.5 5027.6 5028.6 5018.1 5020.5 5012.3 5028.6 5006.4 5018.6 5006.4 5026.7 5000.5 5029.8 5010 5021.7 5015.9 5018.6 5025.4" clip-path="url(#a)" fill="none" stroke="#000" stroke-linecap="round"/>
<polyline points="5018.6 5025.4 5021.7 5034.9 5029.8 5040.8 5021.7 5034.9 5024.8 5025.4 5032.9 5031.3 5036 5040.8 5027.9 5046.7 5031 5056.2 5022.9 5062.1 5031 5067.9 5039 5062.1 5036 5071.6 5039 5081.1 5031 5087 5022.9 5092.8 5026 5102.3 5022.9 5092.8 5032.9 5092.8 5022.9 5092.8 5014.8 5098.7 5006.7 5104.6 5003.6 5095.1 4993.6 5095.1 4985.5 5089.2 4995.5 5089.2 5003.6 5083.3 4995.5 5077.4 5003.6 5071.6 4995.5 5065.7 4992.4 5075.2 4984.3 5081.1 4976.2 5087 4984.3 5081.1 4976.2 5087 4973.1 5077.4 4976.2 5067.9 4966.2 5067.9 4958.1 5062.1 4955 5052.5 4947 5046.7 4950 5056.2 4958.1 5062.1" clip-path="url(#a)" fill="none" stroke="#000" stroke-linecap="round"/>
<polyline points="4958.1 5062.1 4948.1 5062.1 4951.2 5071.6 4954.3 5081.1 4951.2 5090.6 4948.1 5100.1 4951.2 5109.6 4961.2 5109.6 4964.3 5119.1 4954.3 5119.1 4964.3 5119.1 4954.3 5119.1 4957.4 5128.6 4949.3 5122.7 4952.4 5132.3 4944.3 5138.1 4936.2 5144 4939.3 5134.5 4949.3 5134.5 4941.2 5140.4 4944.3 5130.9 4952.4 5125 4944.3 5130.9 4947.4 5140.4 4937.4 5140.4 4934.3 5130.9 4937.4 5121.4 4940.5 5130.9 4937.4 5140.4 4929.3 5146.3 4937.4 5140.4 4940.5 5149.9 4943.6 5159.4 4935.5 5165.3 4932.4 5174.8 4935.5 5165.3 4927.4 5171.2 4935.5 5165.3 4943.6 5159.4 4940.5 5168.9 4948.6 5163 4940.5 5157.2 4948.6 5151.3" clip-path="url(#a)" fill="none" stroke="#000" stroke-linecap="round"/>
<polyline points="4948.6 5151.3 4951.7 5160.8 4943.6 5154.9 4946.7 5145.4 4938.6 5139.5 4941.7 5149 4944.8 5158.5 4952.9 5152.7 4942.9 5152.7 4946 5162.2 4954 5156.3 4944 5156.3 4947.1 5146.8 4950.2 5156.3 4958.3 5150.4 4968.3 5150.4 4960.2 5144.5 4963.3 5135 4955.2 5140.9 4945.2 5140.9 4948.3 5131.4 4958.3 5131.4 4948.3 5131.4 4956.4 5137.3 4964.5 5143.2 4956.4 5149 4953.3 5139.5 4943.3 5139.5 4953.3 5139.5 4950.2 5130 4940.2 5130 4932.1 5135.9 4924 5130 4927.1 5120.5 4937.1 5120.5 4929 5114.6 4919 5114.6 4916 5124.1 4912.9 5133.6 4916 5143.2 4906 5143.2 4897.9 5149 4901 5139.5" clip-path="url(#a)" fill="none" stroke="#000" stroke-linecap="round"/>
<polyline points="4901 5139.5 4909 5145.4 4912.1 5135.9 4922.1 5135.9 4930.2 5130 4940.2 5130 4937.1 5139.5 4945.2 5133.6 4942.1 5124.1 4939 5133.6 4929 5133.6 4921 5127.8 4912.9 5133.6 4909.8 5124.1 4906.7 5114.6 4898.6 5120.5 4890.5 5114.6 4900.5 5114.6 4903.6 5105.1 4906.7 5114.6 4898.6 5108.7 4890.5 5102.9 4887.4 5093.4 4884.3 5102.9 4892.4 5097 4889.3 5087.5 4886.2 5078 4894.3 5083.8 4902.4 5089.7 4910.5 5095.6 4907.4 5105.1 4910.5 5095.6 4920.5 5095.6 4917.4 5086.1 4925.5 5092 4928.6 5101.5 4931.7 5111 4928.6 5120.5 4918.6 5120.5 4921.7 5111 4918.6 5101.5 4908.6 5101.5 4916.7 5107.4" clip-path="url(#a)" fill="none" stroke="#000" stroke-linecap="round"/>
<polyline points="4916.7 5107.4 4913.6 5097.9 4921.7 5103.7 4924.8 5094.2 4921.7 5103.7 4924.8 5113.2 4921.7 5122.7 4931.7 5122.7 4939.8 5116.9 4931.7 5111 4928.6 5120.5 4925.5 5130 4933.6 5124.1 4936.7 5133.6 4946.7 5133.6 4954.8 5127.8 4962.9 5121.9 4954.8 5116 4946.7 5110.1 4938.6 5104.3 4941.7 5113.8 4951.7 5113.8 4959.8 5119.6 4969.8 5119.6 4972.9 5129.2 4976 5119.6 4972.9 5129.2 4981 5123.3 4991 5123.3 4987.9 5113.8 4991 5123.3 4982.9 5117.4 4974.8 5123.3 4977.9 5132.8 4986 5126.9 4989 5117.4 4997.1 5123.3 4989 5117.4 4986 5107.9 4994 5113.8 4986 5107.9 4996 5107.9 4987.9 5113.8" clip-path="url(#a)" fill="none" stroke="#000" stroke-linecap="round"/>
<polyline points="4987.9 5113.8 4996 5107.9 4992.9 5098.4 4984.8 5104.3 4987.9 5094.7 4991 5085.2 4987.9 5094.7 4991 5104.3 4987.9 5094.7 4984.8 5085.2 4974.8 5085.2 4966.7 5091.1 4976.7 5091.1 4966.7 5091.1 4958.6 5085.2 4950.5 5091.1 4953.6 5100.6 4943.6 5100.6 4951.7 5106.5 4941.7 5106.5 4944.8 5097 4954.8 5097 4962.9 5091.1 4966 5081.6 4962.9 5072.1 4966 5081.6 4957.9 5087.5 4954.8 5078 4957.9 5068.5 4967.9 5068.5 4971 5059 4981 5059 4977.9 5049.4 4967.9 5049.4 4976 5043.6 4979 5034.1 4989 5034.1 4999 5034.1 5002.1 5024.5 4999 5034.1 4991 5028.2 4999 5034.1 5009 5034.1" clip-path="url(#a)" fill="none" stroke="#000" stroke-linecap="round"/>
<polyline points="5009 5034.1 5019 5034.1 5016 5043.6 5024 5049.4 5027.1 5059 5019 5053.1 5009 5053.1 5012.1 5062.6 5002.1 5062.6 5005.2 5072.1 5013.3 5066.2 5023.3 5066.2 5033.3 5066.2 5023.3 5066.2 5033.3 5066.2 5030.2 5075.7 5022.1 5081.6 5030.2 5087.5 5033.3 5097 5030.2 5106.5 5033.3 5116 5036.4 5106.5 5033.3 5097 5041.4 5102.9 5044.5 5093.4 5047.6 5083.8 5055.7 5078 5063.8 5072.1 5066.9 5062.6 5058.8 5056.7 5061.9 5047.2 5069.9 5053.1 5061.9 5047.2 5069.9 5053.1 5073 5043.6 5076.1 5053.1 5079.2 5043.6 5089.2 5043.6 5099.2 5043.6 5091.1 5049.4 5083 5043.6 5093 5043.6 5084.9 5049.4" clip-path="url(#a)" fill="none" stroke="#000" stroke-linecap="round"/>
<polyline points="5084.9 5049.4 5074.9 5049.4 5084.9 5049.4 5088 5039.9 5096.1 5045.8 5093 5055.3 5084.9 5061.2 5088 5051.7 5096.1 5045.8 5106.1 5045.8 5096.1 5045.8 5099.2 5036.3 5102.3 5026.8 5112.3 5026.8 5120.4 5020.9 5112.3 5026.8 5122.3 5026.8 5112.3 5026.8 5102.3 5026.8 5110.4 5020.9 5100.4 5020.9 5103.5 5030.4 5093.5 5030.4 5096.6 5020.9 5099.7 5030.4 5091.6 5036.3 5094.7 5045.8 5097.8 5036.3 5100.8 5026.8 5090.8 5026.8 5098.9 5032.7 5102 5023.2 5092 5023.2 5100.1 5029 5092 5034.9 5095.1 5025.4 5085.1 5025.4 5077 5019.5 5080.1 5029 5072 5034.9 5082 5034.9 5090.1 5040.8 5082 5046.7" clip-path="url(#a)" fill="none" stroke="#000" stroke-linecap="round"/>
<polyline points="5082 5046.7 5073.9 5040.8 5082 5046.7 5078.9 5037.2 5075.8 5027.6 5085.8 5027.6 5082.8 5037.2 5090.8 5043 5082.8 5037.2 5079.7 5046.7 5087.8 5052.5 5097.8 5052.5 5100.8 5062.1 5092.8 5067.9 5084.7 5062.1 5087.8 5071.6 5095.8 5077.4 5103.9 5071.6 5112 5065.7 5115.1 5056.2 5123.2 5062.1 5133.2 5062.1 5125.1 5067.9 5122 5058.4 5113.9 5064.3 5105.8 5058.4 5095.8 5058.4 5087.8 5052.5 5095.8 5046.7 5085.8 5046.7 5082.8 5056.2 5090.8 5050.3 5098.9 5056.2 5102 5065.7 5112 5065.7 5108.9 5075.2 5105.8 5084.7 5115.8 5084.7 5118.9 5094.2 5110.8 5088.3 5102.8 5094.2 5105.8 5084.7 5108.9 5094.2" clip-path="url(#a)" fill="none" stroke="#000" stroke-linecap="round"/>
<polyline points="5108.9 5094.2 5112 5103.7 5108.9 5113.2 5117 5107.4 5107 5107.4 5103.9 5116.9 5100.8 5126.4 5097.8 5116.9 5094.7 5107.4 5091.6 5097.9 5099.7 5092 5091.6 5097.9 5083.5 5092 5080.4 5101.5 5077.3 5092 5080.4 5082.5 5083.5 5073 5091.6 5067.1 5099.7 5073 5091.6 5078.8 5088.5 5088.3 5096.6 5094.2 5093.5 5084.7 5090.4 5094.2 5087.3 5084.7 5079.2 5090.6 5087.3 5084.7 5090.4 5075.2 5098.5 5069.3 5090.4 5063.4 5080.4 5063.4 5083.5 5073 5091.6 5067.1 5099.7 5061.2 5089.7 5061.2 5092.8 5051.7 5084.7 5045.8 5074.7 5045.8 5064.7 5045.8 5067.8 5055.3 5070.8 5064.8 5073.9 5074.3 5077 5064.8" clip-path="url(#a)" fill="none" stroke="#000" stroke-linecap="round"/>
<polyline points="5077 5064.8 5068.9 5059 5065.8 5049.4 5057.8 5043.6 5060.8 5034.1 5052.8 5039.9 5060.8 5034.1 5050.8 5034.1 5042.8 5028.2 5039.7 5037.7 5042.8 5028.2 5045.8 5037.7 5055.8 5037.7 5058.9 5028.2 5048.9 5028.2 5040.8 5034.1 5037.8 5024.5 5040.8 5034.1 5037.8 5043.6 5034.7 5034.1 5037.8 5043.6 5029.7 5037.7 5039.7 5037.7 5029.7 5037.7 5026.6 5047.2 5036.6 5047.2 5028.5 5053.1 5020.4 5059 5028.5 5053.1 5031.6 5043.6 5028.5 5053.1 5025.4 5062.6 5033.5 5068.5 5043.5 5068.5 5035.4 5062.6 5043.5 5068.5 5046.6 5078 5056.6 5078 5059.7 5068.5 5067.8 5074.3 5064.7 5064.8 5072.8 5070.7 5064.7 5076.6" clip-path="url(#a)" fill="none" stroke="#000" stroke-linecap="round"/>
<polyline points="5064.7 5076.6 5056.6 5070.7 5046.6 5070.7 5038.5 5076.6 5035.4 5086.1 5038.5 5076.6 5048.5 5076.6 5045.4 5086.1 5037.3 5092 5029.2 5086.1 5021.1 5092 5013 5086.1 5009.9 5095.6 5018 5101.5 5008 5101.5 4999.9 5107.4 4991.9 5101.5 4983.8 5095.6 4975.7 5101.5 4983.8 5095.6 4986.9 5105.1 4983.8 5095.6 4975.7 5089.7 4967.6 5083.8 4975.7 5078 4972.6 5068.5 4975.7 5059 4978.8 5068.5 4986.9 5074.3 4989.9 5064.8 4998 5070.7 5001.1 5061.2 4991.1 5061.2 4983 5055.3 4974.9 5049.4 4983 5055.3 4974.9 5049.4 4983 5043.6 4993 5043.6 4989.9 5034.1 4993 5024.5 5001.1 5018.7 5004.2 5009.2" clip-path="url(#a)" fill="none" stroke="#000" stroke-linecap="round"/>
<polyline points="5004.2 5009.2 4996.1 5015 4993 5024.5 4989.9 5015 4981.9 5020.9 4973.8 5026.8 4963.8 5026.8 4953.8 5026.8 4945.7 5032.7 4948.8 5042.2 4940.7 5048.1 4937.6 5038.5 4940.7 5048.1 4937.6 5038.5 4929.5 5044.4 4932.6 5034.9 4924.5 5040.8 4916.4 5034.9 4908.3 5029 4918.3 5029 4921.4 5038.5 4913.3 5032.7 4923.3 5032.7 4931.4 5038.5 4923.3 5032.7 4915.2 5038.5 4912.1 5029 4920.2 5023.2 4930.2 5023.2 4922.1 5029 4912.1 5029 4904 5023.2 4912.1 5029 4904 5034.9 4896 5040.8 4887.9 5034.9 4877.9 5034.9 4887.9 5034.9 4879.8 5029 4887.9 5034.9 4896 5040.8 4886 5040.8 4894 5046.7" clip-path="url(#a)" fill="none" stroke="#000" stroke-linecap="round"/>
<polyline points="4894 5046.7 4897.1 5037.2 4905.2 5043 4897.1 5048.9 4900.2 5039.4 4910.2 5039.4 4913.3 5029.9 4905.2 5035.8 4897.1 5041.6 4905.2 5047.5 4902.1 5038 4894 5043.9 4902.1 5049.8 4899 5040.3 4909 5040.3 4901 5046.1 4909 5052 4912.1 5061.5 4915.2 5052 4925.2 5052 4917.1 5046.1 4914 5036.6 4924 5036.6 4927.1 5046.1 4924 5036.6 4921 5046.1 4917.9 5055.6 4909.8 5049.8 4917.9 5043.9 4914.8 5034.4 4917.9 5043.9 4926 5038 4922.9 5028.5 4914.8 5022.6 4917.9 5013.1 4927.9 5013.1 4931 5022.6 4934 5013.1 4931 5003.6 4921 5003.6 4911 5003.6 4902.9 5009.5 4899.8 5e3" clip-path="url(#a)" fill="none" stroke="#000" stroke-linecap="round"/>
<polyline points="4899.8 5e3 4891.7 4994.1 4901.7 4994.1 4898.6 5003.6 4908.6 5003.6 4911.7 5013.1 4919.8 5019 4922.9 5028.5 4912.9 5028.5 4921 5034.4 4929 5028.5 4919 5028.5 4916 5019 4919 5009.5 4911 5003.6 4919 4997.7 4927.1 4991.8 4919 4986 4922.1 4976.5 4925.2 4986 4935.2 4986 4927.1 4991.8 4930.2 4982.3 4933.3 4972.8 4941.4 4966.9 4931.4 4966.9 4939.5 4972.8 4947.6 4966.9 4955.7 4961.1 4952.6 4970.6 4949.5 4980.1 4946.4 4989.6 4936.4 4989.6 4946.4 4989.6 4949.5 4999.1 4957.6 4993.2 4954.5 5002.7 4946.4 5008.6 4938.3 5014.5 4928.3 5014.5 4925.2 5005 4935.2 5005 4943.3 4999.1" clip-path="url(#a)" fill="none" stroke="#000" stroke-linecap="round"/>
<polyline points="4943.3 4999.1 4940.2 4989.6 4937.1 4999.1 4945.2 4993.2 4942.1 5002.7 4952.1 5002.7 4942.1 5002.7 4934 5008.6 4924 5008.6 4927.1 5018.1 4935.2 5024 4938.3 5014.5 4928.3 5014.5 4918.3 5014.5 4926.4 5020.4 4918.3 5026.3 4921.4 5035.8 4929.5 5041.6 4937.6 5047.5 4940.7 5038 4943.8 5028.5 4946.9 5019 4938.8 5024.9 4941.9 5034.4 4938.8 5043.9 4941.9 5053.4 4933.8 5059.3 4943.8 5059.3 4933.8 5059.3 4941.9 5065.2 4944.9 5074.7 4953 5068.8 4944.9 5074.7 4948 5065.2 4939.9 5059.3 4931.9 5065.2 4939.9 5071 4949.9 5071 4946.9 5080.5 4949.9 5071 4958 5065.2 4954.9 5074.7 4958 5065.2" clip-path="url(#a)" fill="none" stroke="#000" stroke-linecap="round"/>
<polyline points="4958 5065.2 4961.1 5074.7 4953 5068.8 4961.1 5074.7 4969.2 5068.8 4961.1 5062.9 4971.1 5062.9 4981.1 5062.9 4971.1 5062.9 4963 5068.8 4971.1 5062.9 4979.2 5057 4976.1 5047.5 4968 5041.6 4971.1 5051.2 4968 5041.6 4971.1 5032.1 4963 5026.3 4954.9 5032.1 4951.9 5022.6 4948.8 5032.1 4945.7 5022.6 4955.7 5022.6 4958.8 5032.1 4966.9 5038 4976.9 5038 4984.9 5032.1 4976.9 5038 4968.8 5032.1 4976.9 5026.3 4986.9 5026.3 4989.9 5035.8 4999.9 5035.8 5003 5045.3 5011.1 5039.4 5008 5029.9 5016.1 5035.8 5026.1 5035.8 5029.2 5045.3 5032.3 5054.8 5042.3 5054.8 5032.3 5054.8 5035.4 5045.3" clip-path="url(#a)" fill="none" stroke="#000" stroke-linecap="round"/>
<polyline points="5035.4 5045.3 5032.3 5054.8 5035.4 5064.3 5038.5 5073.8 5028.5 5073.8 5025.4 5083.3 5017.3 5089.2 5020.4 5079.7 5017.3 5070.2 5009.2 5076.1 5006.1 5066.5 4998 5072.4 5006.1 5078.3 5009.2 5087.8 5012.3 5097.3 5009.2 5087.8 5012.3 5097.3 5002.3 5097.3 4994.2 5091.4 4991.1 5101 4983 5106.8 4973 5106.8 4964.9 5112.7 4974.9 5112.7 4983 5106.8 4979.9 5116.3 4989.9 5116.3 4999.9 5116.3 5008 5122.2 5016.1 5128.1 5026.1 5128.1 5029.2 5118.6 5039.2 5118.6 5036.1 5128.1 5039.2 5118.6 5036.1 5128.1 5046.1 5128.1 5038 5134 5048 5134 5051.1 5143.5 5054.2 5153 5046.1 5147.1 5049.2 5137.6" clip-path="url(#a)" fill="none" stroke="#000" stroke-linecap="round"/>
<polyline points="5049.2 5137.6 5052.3 5147.1 5044.2 5141.2 5041.1 5131.7 5044.2 5141.2 5054.2 5141.2 5051.1 5150.8 5041.1 5150.8 5033 5144.9 5043 5144.9 5051.1 5150.8 5054.2 5160.3 5051.1 5150.8 5061.1 5150.8 5071.1 5150.8 5074.2 5160.3 5082.3 5166.1 5074.2 5160.3 5077.3 5169.8 5074.2 5160.3 5071.1 5150.8 5079.2 5156.6 5076.1 5147.1 5068 5153 5064.9 5143.5 5074.9 5143.5 5066.9 5149.4 5058.8 5143.5 5050.7 5149.4 5060.7 5149.4 5070.7 5149.4 5067.6 5139.9 5064.5 5149.4 5074.5 5149.4 5071.4 5139.9 5068.3 5149.4 5060.2 5143.5 5070.2 5143.5 5067.1 5134 5070.2 5124.5 5062.1 5130.3 5054 5124.5 5057.1 5134" clip-path="url(#a)" fill="none" stroke="#000" stroke-linecap="round"/>
<polyline points="5057.1 5134 5054 5143.5 5046 5137.6 5049 5128.1 5046 5137.6 5054 5131.7 5062.1 5125.9 5065.2 5135.4 5055.2 5135.4 5052.1 5144.9 5055.2 5135.4 5045.2 5135.4 5042.1 5144.9 5045.2 5154.4 5037.1 5160.3 5029 5154.4 5032.1 5144.9 5024 5150.8 5021 5160.3 5029 5166.1 5037.1 5172 5047.1 5172 5044 5181.5 5047.1 5191 5039 5185.2 5047.1 5179.3 5039 5173.4 5042.1 5163.9 5039 5154.4 5042.1 5144.9 5050.2 5150.8 5047.1 5141.2 5037.1 5141.2 5045.2 5147.1 5042.1 5156.6 5034 5162.5 5037.1 5172 5027.1 5172 5017.1 5172 5020.2 5181.5 5012.1 5187.4 5015.2 5177.9 5007.1 5172" clip-path="url(#a)" fill="none" stroke="#000" stroke-linecap="round"/>
<polyline points="5007.1 5172 5017.1 5172 5009 5177.9 5001 5183.8 4991 5183.8 4999 5189.7 4996 5180.1 4986 5180.1 4976 5180.1 4984 5174.3 4992.1 5168.4 5000.2 5162.5 5008.3 5168.4 5000.2 5162.5 5003.3 5153 4993.3 5153 5001.4 5147.1 5011.4 5147.1 5021.4 5147.1 5029.5 5153 5026.4 5162.5 5018.3 5156.6 5008.3 5156.6 5005.2 5166.1 5013.3 5160.3 5003.3 5160.3 5011.4 5154.4 5003.3 5148.5 5011.4 5154.4 5021.4 5154.4 5029.5 5160.3 5032.6 5150.8 5029.5 5141.2 5021.4 5147.1 5029.5 5153 5037.6 5158.9 5034.5 5149.4 5044.5 5149.4 5047.6 5139.9 5044.5 5130.3 5041.4 5120.8 5033.3 5126.7 5025.2 5132.6" clip-path="url(#a)" fill="none" stroke="#000" stroke-linecap="round"/>
<polyline points="5025.2 5132.6 5017.1 5138.5 5027.1 5138.5 5030.2 5129 5038.3 5123.1 5041.4 5113.6 5051.4 5113.6 5043.3 5107.7 5051.4 5113.6 5048.3 5104.1 5051.4 5094.5 5041.4 5094.5 5051.4 5094.5 5043.3 5100.4 5046.4 5109.9 5056.4 5109.9 5053.3 5100.4 5045.2 5094.5 5053.3 5088.7 5045.2 5094.5 5035.2 5094.5 5043.3 5088.7 5035.2 5094.5 5038.3 5085 5041.4 5094.5 5038.3 5085 5028.3 5085 5031.4 5094.5 5023.3 5088.7 5015.2 5082.8 5023.3 5088.7 5033.3 5088.7 5023.3 5088.7 5013.3 5088.7 5010.2 5098.2 5013.3 5107.7 5016.4 5098.2 5013.3 5107.7 5005.2 5113.6 5008.3 5123.1 5018.3 5123.1 5015.2 5132.6 5023.3 5126.7" clip-path="url(#a)" fill="none" stroke="#000" stroke-linecap="round"/>
<polyline points="5023.3 5126.7 5020.2 5136.2 5012.1 5130.3 5015.2 5120.8 5012.1 5111.3 5004 5105.4 4994 5105.4 5004 5105.4 5007.1 5115 4997.1 5115 4989 5109.1 4992.1 5099.6 4984 5093.7 4987.1 5084.2 4977.1 5084.2 4974 5093.7 4971 5084.2 4962.9 5078.3 4966 5068.8 4969 5059.3 4961 5053.4 4969 5059.3 4961 5065.2 4969 5059.3 4972.1 5049.8 4975.2 5040.3 4983.3 5046.1 4991.4 5040.3 5001.4 5040.3 4993.3 5046.1 4990.2 5055.6 5000.2 5055.6 4997.1 5065.2 5007.1 5065.2 5004 5055.6 5007.1 5046.1 5010.2 5036.6 5007.1 5046.1 5010.2 5036.6 5018.3 5042.5 5021.4 5052 5029.5 5046.1 5039.5 5046.1" clip-path="url(#a)" fill="none" stroke="#000" stroke-linecap="round"/>
<polyline points="5039.5 5046.1 5047.6 5052 5057.6 5052 5049.5 5046.1 5039.5 5046.1 5047.6 5040.3 5039.5 5034.4 5031.4 5028.5 5028.3 5019 5025.2 5009.5 5017.1 5003.6 5009 5009.5 5001 5003.6 5009 4997.7 5001 5003.6 5009 4997.7 5001 4991.8 5011 4991.8 5002.9 4986 5006 4976.5 5009 4966.9 5012.1 4976.5 5004 4982.3 5007.1 4972.8 5010.2 4982.3 5007.1 4991.8 5010.2 4982.3 5002.1 4976.5 5010.2 4970.6 5018.3 4976.5 5021.4 4986 5013.3 4980.1 5010.2 4970.6 5013.3 4961.1 5010.2 4970.6 5002.1 4964.7 4994 4958.8 4997.1 4949.3 4994 4939.8 4997.1 4949.3 5000.2 4939.8 4997.1 4949.3 4994 4958.8" clip-path="url(#a)" fill="none" stroke="#000" stroke-linecap="round"/>
<polyline points="4994 4958.8 4991 4949.3 4987.9 4958.8 4997.9 4958.8 4994.8 4968.3 4986.7 4962.5 4996.7 4962.5 4999.8 4972 5009.8 4972 5001.7 4966.1 4993.6 4960.2 4990.5 4969.7 4998.6 4963.8 4990.5 4958 4987.4 4967.5 4995.5 4961.6 4998.6 4971.1 4990.5 4965.2 4987.4 4974.7 4979.3 4980.6 4989.3 4980.6 4992.4 4990.1 4995.5 4980.6 5003.6 4974.7 5006.7 4984.3 4998.6 4990.1 5006.7 4984.3 4996.7 4984.3 4986.7 4984.3 4989.8 4974.7 4997.9 4980.6 5006 4974.7 4997.9 4980.6 5006 4986.5 5014 4980.6 5017.1 4971.1 5027.1 4971.1 5030.2 4980.6 5022.1 4986.5 5032.1 4986.5 5040.2 4980.6 5037.1 4971.1 5034 4961.6" clip-path="url(#a)" fill="none" stroke="#000" stroke-linecap="round"/>
<polyline points="5034 4961.6 5026 4955.7 5034 4949.8 5037.1 4940.3 5040.2 4949.8 5030.2 4949.8 5033.3 4959.4 5025.2 4965.2 5022.1 4974.7 5014 4980.6 5011 4971.1 5007.9 4980.6 5016 4986.5 5012.9 4977 5021 4971.1 5031 4971.1 5034 4961.6 5042.1 4967.5 5050.2 4973.4 5053.3 4963.8 5063.3 4963.8 5055.2 4969.7 5058.3 4979.2 5050.2 4973.4 5060.2 4973.4 5070.2 4973.4 5078.3 4979.2 5075.2 4969.7 5072.1 4979.2 5080.2 4985.1 5088.3 4991 5078.3 4991 5068.3 4991 5058.3 4991 5055.2 4981.5 5058.3 4991 5050.2 4996.9 5058.3 5002.7 5048.3 5002.7 5040.2 4996.9 5032.1 4991 5029 4981.5 5037.1 4975.6" clip-path="url(#a)" fill="none" stroke="#000" stroke-linecap="round"/>
<polyline points="5037.1 4975.6 5040.2 4985.1 5048.3 4991 5056.4 4985.1 5046.4 4985.1 5054.5 4991 5044.5 4991 5047.6 5000.5 5044.5 4991 5036.4 4985.1 5033.3 4975.6 5025.2 4981.5 5022.1 4991 5032.1 4991 5029 4981.5 5026 4972 5022.9 4981.5 5014.8 4975.6 5006.7 4981.5 5003.6 4991 5000.5 5000.5" clip-path="url(#a)" fill="none" stroke="#000" stroke-linecap="round"/>
</svg>
