<?xml version="1.0" encoding="UTF-8"?>
<svg width="1e4px" height="1e4px" baseProfile="full" version="1.1" viewBox="4988.1 4979.2 42.361 43.92" xmlns="http://www.w3.org/2000/svg">
<defs>
<clipPath id="a">
<rect width="1e4" height="1e4"/>
</clipPath>
</defs>
<polyline points="5000.5 5000.5 5010.5 5000.5 5020.5 5000.5 5030.5 5000.5 5022.4 4994.6 5012.4 4994.6 5009.3 4985.1 5006.2 4994.6 5009.3 5004.1 5012.4 5013.6 5015.5 5023.2 5018.6 5013.6 5015.5 5004.1 5023.6 4998.3 5013.6 4998.3 5005.5 5004.1 4997.4 5010 4989.3 5015.9 4999.3 5015.9 5007.4 5010 5015.5 5015.9 5012.4 5006.4 5004.3 5000.5 4996.2 4994.6 4988.1 4988.7 4991.2 4998.3 4999.3 5004.1 4996.2 5013.6 5004.3 5007.8 5007.4 4998.3 5010.5 4988.7 5013.6 4979.2 5005.5 4985.1 5002.4 4994.6 4992.4 4994.6 5000.5 5000.5 5010.5 5000.5 5020.5 5000.5 5030.5 5000.5 5022.4 4994.6 5012.4 4994.6 5009.3 4985.1 5006.2 4994.6" clip-path="url(#a)" fill="none" stroke="#000" stroke-linecap="round"/>
<polyline points="5006.2 4994.6 5009.3 5004.1 5012.4 5013.6 5015.5 5023.2 5018.6 5013.6 5015.5 5004.1 5023.6 4998.3 5013.6 4998.3 5005.5 5004.1 4997.4 5010 4989.3 5015.9 4999.3 5015.9 5007.4 5010 5015.5 5015.9 5012.4 5006.4 5004.3 5000.5 4996.2 4994.6 4988.1 4988.7 4991.2 4998.3 4999.3 5004.1 4996.2 5013.6 5004.3 5007.8 5007.4 4998.3 5010.5 4988.7 5013.6 4979.2 5005.5 4985.1 5002.4 4994.6 4992.4 4994.6 5000.5 5000.5 5010.5 5000.5 5020.5 5000.5 5030.5 5000.5 5022.4 4994.6 5012.4 4994.6 5009.3 4985.1 5006.2 4994.6 5009.3 5004.1 5012.4 5013.6 5015.5 5023.2 5018.6 5013.6 5015.5 5004.1 5023.6 4998.3 5013.6 4998.3" clip-path="url(#a)" fill="none" stroke="#000" stroke-linecap="round"/>
<polyline points="5013.6 4998.3 5005.5 5004.1 4997.4 5010 4989.3 5015.9 4999.3 5015.9 5007.4 5010 5015.5 5015.9 5012.4 5006.4 5004.3 5000.5 4996.2 4994.6 4988.1 4988.7 4991.2 4998.3 4999.3 5004.1 4996.2 5013.6 5004.3 5007.8 5007.4 4998.3 5010.5 4988.7 5013.6 4979.2 5005.5 4985.1 5002.4 4994.6 4992.4 4994.6 5000.5 5000.5 5010.5 5000.5 5020.5 5000.5 5030.5 5000.5 5022.4 4994.6 5012.4 4994.6 5009.3 4985.1 5006.2 4994.6 5009.3 5004.1 5012.4 5013.6 5015.5 5023.2 5018.6 5013.6 5015.5 5004.1 5023.6 4998.3 5013.6 4998.3 5005.5 5004.1 4997.4 5010 4989.3 5015.9 4999.3 5015.9 5007.4 5010 5015.5 5015.9 5012.4 5006.4" clip-path="url(#a)" fill="none" stroke="#000" stroke-linecap="round"/>
<polyline points="5012.4 5006.4 5004.3 5000.5 4996.2 4994.6 4988.1 4988.7 4991.2 4998.3 4999.3 5004.1 4996.2 5013.6 5004.3 5007.8 5007.4 4998.3 5010.5 4988.7 5013.6 4979.2 5005.5 4985.1 5002.4 4994.6 4992.4 4994.6 5000.5 5000.5 5010.5 5000.5 5020.5 5000.5 5030.5 5000.5 5022.4 4994.6 5012.4 4994.6 5009.3 4985.1 5006.2 4994.6 5009.3 5004.1 5012.4 5013.6 5015.5 5023.2 5018.6 5013.6 5015.5 5004.1 5023.6 4998.3 5013.6 4998.3 5005.5 5004.1 4997.4 5010 4989.3 5015.9 4999.3 5015.9 5007.4 5010 5015.5 5015.9 5012.4 5006.4 5004.3 5000.5 4996.2 4994.6 4988.1 4988.7 4991.2 4998.3 4999.3 5004.1 4996.2 5013.6 5004.3 5007.8" clip-path="url(#a)" fill="none" stroke="#000" stroke-linecap="round"/>
<polyline points="5004.3 5007.8 5007.4 4998.3 5010.5 4988.7 5013.6 4979.2 5005.5 4985.1 5002.4 4994.6 4992.4 4994.6 5000.5 5000.5 5010.5 5000.5 5020.5 5000.5 5030.5 5000.5 5022.4 4994.6 5012.4 4994.6 5009.3 4985.1 5006.2 4994.6 5009.3 5004.1 5012.4 5013.6 5015.5 5023.2 5018.6 5013.6 5015.5 5004.1 5023.6 4998.3 5013.6 4998.3 5005.5 5004.1 4997.4 5010 4989.3 5015.9 4999.3 5015.9 5007.4 5010 5015.5 5015.9 5012.4 5006.4 5004.3 5000.5 4996.2 4994.6 4988.1 4988.7 4991.2 4998.3 4999.3 5004.1 4996.2 5013.6 5004.3 5007.8 5007.4 4998.3 5010.5 4988.7 5013.6 4979.2 5005.5 4985.1 5002.4 4994.6 4992.4 4994.6 5000.5 5000.5" clip-path="url(#a)" fill="none" stroke="#000" stroke-linecap="round"/>
<polyline points="5000.5 5000.5 5010.5 5000.5 5020.5 5000.5 5030.5 5000.5 5022.4 4994.6 5012.4 4994.6 5009.3 4985.1 5006.2 4994.6 5009.3 5004.1 5012.4 5013.6 5015.5 5023.2 5018.6 5013.6 5015.5 5004.1 5023.6 4998.3 5013.6 4998.3 5005.5 5004.1 4997.4 5010 4989.3 5015.9 4999.3 5015.9 5007.4 5010 5015.5 5015.9 5012.4 5006.4 5004.3 5000.5 4996.2 4994.6 4988.1 4988.7 4991.2 4998.3 4999.3 5004.1 4996.2 5013.6 5004.3 5007.8 5007.4 4998.3 5010.5 4988.7 5013.6 4979.2 5005.5 4985.1 5002.4 4994.6 4992.4 4994.6 5000.5 5000.5 5010.5 5000.5 5020.5 5000.5 5030.5 5000.5 5022.4 4994.6 5012.4 4994.6 5009.3 4985.1 5006.2 4994.6" clip-path="url(#a)" fill="none" stroke="#000" stroke-linecap="round"/>
<polyline points="5006.2 4994.6 5009.3 5004.1 5012.4 5013.6 5015.5 5023.2 5018.6 5013.6 5015.5 5004.1 5023.6 4998.3 5013.6 4998.3 5005.5 5004.1 4997.4 5010 4989.3 5015.9 4999.3 5015.9 5007.4 5010 5015.5 5015.9 5012.4 5006.4 5004.3 5000.5 4996.2 4994.6 4988.1 4988.7 4991.2 4998.3 4999.3 5004.1 4996.2 5013.6 5004.3 5007.8 5007.4 4998.3 5010.5 4988.7 5013.6 4979.2 5005.5 4985.1 5002.4 4994.6 4992.4 4994.6 5000.5 5000.5 5010.5 5000.5 5020.5 5000.5 5030.5 5000.5 5022.4 4994.6 5012.4 4994.6 5009.3 4985.1 5006.2 4994.6 5009.3 5004.1 5012.4 5013.6 5015.5 5023.2 5018.6 5013.6 5015.5 5004.1 5023.6 4998.3 5013.6 4998.3" clip-path="url(#a)" fill="none" stroke="#000" stroke-linecap="round"/>
<polyline points="5013.6 4998.3 5005.5 5004.1 4997.4 5010 4989.3 5015.9 4999.3 5015.9 5007.4 5010 5015.5 5015.9 5012.4 5006.4 5004.3 5000.5 4996.2 4994.6 4988.1 4988.7 4991.2 4998.3 4999.3 5004.1 4996.2 5013.6 5004.3 5007.8 5007.4 4998.3 5010.5 4988.7 5013.6 4979.2 5005.5 4985.1 5002.4 4994.6 4992.4 4994.6 5000.5 5000.5 5010.5 5000.5 5020.5 5000.5 5030.5 5000.5 5022.4 4994.6 5012.4 4994.6 5009.3 4985.1 5006.2 4994.6 5009.3 5004.1 5012.4 5013.6 5015.5 5023.2 5018.6 5013.6 5015.5 5004.1 5023.6 4998.3 5013.6 4998.3 5005.5 5004.1 4997.4 5010 4989.3 5015.9 4999.3 5015.9 5007.4 5010 5015.5 5015.9 5012.4 5006.4" clip-path="url(#a)" fill="none" stroke="#000" stroke-linecap="round"/>
<polyline points="5012.4 5006.4 5004.3 5000.5 4996.2 4994.6 4988.1 4988.7 4991.2 4998.3 4999.3 5004.1 4996.2 5013.6 5004.3 5007.8 5007.4 4998.3 5010.5 4988.7 5013.6 4979.2 5005.5 4985.1 5002.4 4994.6 4992.4 4994.6 5000.5 5000.5 5010.5 5000.5 5020.5 5000.5 5030.5 5000.5 5022.4 4994.6 5012.4 4994.6 5009.3 4985.1 5006.2 4994.6 5009.3 5004.1 5012.4 5013.6 5015.5 5023.2 5018.6 5013.6 5015.5 5004.1 5023.6 4998.3 5013.6 4998.3 5005.5 5004.1 4997.4 5010 4989.3 5015.9 4999.3 5015.9 5007.4 5010 5015.5 5015.9 5012.4 5006.4 5004.3 5000.5 4996.2 4994.6 4988.1 4988.7 4991.2 4998.3 4999.3 5004.1 4996.2 5013.6 5004.3 5007.8" clip-path="url(#a)" fill="none" stroke="#000" stroke-linecap="round"/>
<polyline points="5004.3 5007.8 5007.4 4998.3 5010.5 4988.7 5013.6 4979.2 5005.5 4985.1 5002.4 4994.6 4992.4 4994.6 5000.5 5000.5 5010.5 5000.5 5020.5 5000.5 5030.5 5000.5 5022.4 4994.6 5012.4 4994.6 5009.3 4985.1 5006.2 4994.6 5009.3 5004.1 5012.4 5013.6 5015.5 5023.2 5018.6 5013.6 5015.5 5004.1 5023.6 4998.3 5013.6 4998.3 5005.5 5004.1 4997.4 5010 4989.3 5015.9 4999.3 5015.9 5007.4 5010 5015.5 5015.9 5012.4 5006.4 5004.3 5000.5 4996.2 4994.6 4988.1 4988.7 4991.2 4998.3 4999.3 5004.1 4996.2 5013.6 5004.3 5007.8 5007.4 4998.3 5010.5 4988.7 5013.6 4979.2 5005.5 4985.1 5002.4 4994.6 4992.4 4994.6 5000.5 5000.5" clip-path="url(#a)" fill="none" stroke="#000" stroke-linecap="round"/>
<polyline points="5000.5 5000.5 5010.5 5000.5 5020.5 5000.5 5030.5 5000.5 5022.4 4994.6 5012.4 4994.6 5009.3 4985.1 5006.2 4994.6 5009.3 5004.1 5012.4 5013.6 5015.5 5023.2 5018.6 5013.6 5015.5 5004.1 5023.6 4998.3 5013.6 4998.3 5005.5 5004.1 4997.4 5010 4989.3 5015.9 4999.3 5015.9 5007.4 5010 5015.5 5015.9 5012.4 5006.4 5004.3 5000.5 4996.2 4994.6 4988.1 4988.7 4991.2 4998.3 4999.3 5004.1 4996.2 5013.6 5004.3 5007.8 5007.4 4998.3 5010.5 4988.7 5013.6 4979.2 5005.5 4985.1 5002.4 4994.6 4992.4 4994.6 5000.5 5000.5 5010.5 5000.5 5020.5 5000.5 5030.5 5000.5 5022.4 4994.6 5012.4 4994.6 5009.3 4985.1 5006.2 4994.6" clip-path="url(#a)" fill="none" stroke="#000" stroke-linecap="round"/>
<polyline points="5006.2 4994.6 5009.3 5004.1 5012.4 5013.6 5015.5 5023.2 5018.6 5013.6 5015.5 5004.1 5023.6 4998.3 5013.6 4998.3 5005.5 5004.1 4997.4 5010 4989.3 5015.9 4999.3 5015.9 5007.4 5010 5015.5 5015.9 5012.4 5006.4 5004.3 5000.5 4996.2 4994.6 4988.1 4988.7 4991.2 4998.3 4999.3 5004.1 4996.2 5013.6 5004.3 5007.8 5007.4 4998.3 5010.5 4988.7 5013.6 4979.2 5005.5 4985.1 5002.4 4994.6 4992.4 4994.6 5000.5 5000.5 5010.5 5000.5 5020.5 5000.5 5030.5 5000.5 5022.4 4994.6 5012.4 4994.6 5009.3 4985.1 5006.2 4994.6 5009.3 5004.1 5012.4 5013.6 5015.5 5023.2 5018.6 5013.6 5015.5 5004.1 5023.6 4998.3 5013.6 4998.3" clip-path="url(#a)" fill="none" stroke="#000" stroke-linecap="round"/>
<polyline points="5013.6 4998.3 5005.5 5004.1 4997.4 5010 4989.3 5015.9 4999.3 5015.9 5007.4 5010 5015.5 5015.9 5012.4 5006.4 5004.3 5000.5 4996.2 4994.6 4988.1 4988.7 4991.2 4998.3 4999.3 5004.1 4996.2 5013.6 5004.3 5007.8 5007.4 4998.3 5010.5 4988.7 5013.6 4979.2 5005.5 4985.1 5002.4 4994.6 4992.4 4994.6 5000.5 5000.5 5010.5 5000.5 5020.5 5000.5 5030.5 5000.5 5022.4 4994.6 5012.4 4994.6 5009.3 4985.1 5006.2 4994.6 5009.3 5004.1 5012.4 5013.6 5015.5 5023.2 5018.6 5013.6 5015.5 5004.1 5023.6 4998.3 5013.6 4998.3 5005.5 5004.1 4997.4 5010 4989.3 5015.9 4999.3 5015.9 5007.4 5010 5015.5 5015.9 5012.4 5006.4" clip-path="url(#a)" fill="none" stroke="#000" stroke-linecap="round"/>
<polyline points="5012.4 5006.4 5004.3 5000.5 4996.2 4994.6 4988.1 4988.7 4991.2 4998.3 4999.3 5004.1 4996.2 5013.6 5004.3 5007.8 5007.4 4998.3 5010.5 4988.7 5013.6 4979.2 5005.5 4985.1 5002.4 4994.6 4992.4 4994.6 5000.5 5000.5 5010.5 5000.5 5020.5 5000.5 5030.5 5000.5 5022.4 4994.6 5012.4 4994.6 5009.3 4985.1 5006.2 4994.6 5009.3 5004.1 5012.4 5013.6 5015.5 5023.2 5018.6 5013.6 5015.5 5004.1 5023.6 4998.3 5013.6 4998.3 5005.5 5004.1 4997.4 5010 4989.3 5015.9 4999.3 5015.9 5007.4 5010 5015.5 5015.9 5012.4 5006.4 5004.3 5000.5 4996.2 4994.6 4988.1 4988.7 4991.2 4998.3 4999.3 5004.1 4996.2 5013.6 5004.3 5007.8" clip-path="url(#a)" fill="none" stroke="#000" stroke-linecap="round"/>
<polyline points="5004.3 5007.8 5007.4 4998.3 5010.5 4988.7 5013.6 4979.2 5005.5 4985.1 5002.4 4994.6 4992.4 4994.6 5000.5 5000.5 5010.5 5000.5 5020.5 5000.5 5030.5 5000.5 5022.4 4994.6 5012.4 4994.6 5009.3 4985.1 5006.2 4994.6 5009.3 5004.1 5012.4 5013.6 5015.5 5023.2 5018.6 5013.6 5015.5 5004.1 5023.6 4998.3 5013.6 4998.3 5005.5 5004.1 4997.4 5010 4989.3 5015.9 4999.3 5015.9 5007.4 5010 5015.5 5015.9 5012.4 5006.4 5004.3 5000.5 4996.2 4994.6 4988.1 4988.7 4991.2 4998.3 4999.3 5004.1 4996.2 5013.6 5004.3 5007.8 5007.4 4998.3 5010.5 4988.7 5013.6 4979.2 5005.5 4985.1 5002.4 4994.6 4992.4 4994.6 5000.5 5000.5" clip-path="url(#a)" fill="none" stroke="#000" stroke-linecap="round"/>
<polyline points="5000.5 5000.5 5010.5 5000.5 5020.5 5000.5 5030.5 5000.5 5022.4 4994.6 5012.4 4994.6 5009.3 4985.1 5006.2 4994.6 5009.3 5004.1 5012.4 5013.6 5015.5 5023.2 5018.6 5013.6 5015.5 5004.1 5023.6 4998.3 5013.6 4998.3 5005.5 5004.1 4997.4 5010 4989.3 5015.9 4999.3 5015.9 5007.4 5010 5015.5 5015.9 5012.4 5006.4 5004.3 5000.5 4996.2 4994.6 4988.1 4988.7 4991.2 4998.3 4999.3 5004.1 4996.2 5013.6 5004.3 5007.8 5007.4 4998.3 5010.5 4988.7 5013.6 4979.2 5005.5 4985.1 5002.4 4994.6 4992.4 4994.6 5000.5 5000.5 5010.5 5000.5 5020.5 5000.5 5030.5 5000.5 5022.4 4994.6 5012.4 4994.6 5009.3 4985.1 5006.2 4994.6" clip-path="url(#a)" fill="none" stroke="#000" stroke-linecap="round"/>
<polyline points="5006.2 4994.6 5009.3 5004.1 5012.4 5013.6 5015.5 5023.2 5018.6 5013.6 5015.5 5004.1 5023.6 4998.3 5013.6 4998.3 5005.5 5004.1 4997.4 5010 4989.3 5015.9 4999.3 5015.9 5007.4 5010 5015.5 5015.9 5012.4 5006.4 5004.3 5000.5 4996.2 4994.6 4988.1 4988.7 4991.2 4998.3 4999.3 5004.1 4996.2 5013.6 5004.3 5007.8 5007.4 4998.3 5010.5 4988.7 5013.6 4979.2 5005.5 4985.1 5002.4 4994.6 4992.4 4994.6 5000.5 5000.5 5010.5 5000.5 5020.5 5000.5 5030.5 5000.5 5022.4 4994.6 5012.4 4994.6 5009.3 4985.1 5006.2 4994.6 5009.3 5004.1 5012.4 5013.6 5015.5 5023.2 5018.6 5013.6 5015.5 5004.1 5023.6 4998.3 5013.6 4998.3" clip-path="url(#a)" fill="none" stroke="#000" stroke-linecap="round"/>
<polyline points="5013.6 4998.3 5005.5 5004.1 4997.4 5010 4989.3 5015.9 4999.3 5015.9 5007.4 5010 5015.5 5015.9 5012.4 5006.4 5004.3 5000.5 4996.2 4994.6 4988.1 4988.7 4991.2 4998.3 4999.3 5004.1 4996.2 5013.6 5004.3 5007.8 5007.4 4998.3 5010.5 4988.7 5013.6 4979.2 5005.5 4985.1 5002.4 4994.6 4992.4 4994.6 5000.5 5000.5 5010.5 5000.5 5020.5 5000.5 5030.5 5000.5 5022.4 4994.6 5012.4 4994.6 5009.3 4985.1 5006.2 4994.6 5009.3 5004.1 5012.4 5013.6 5015.5 5023.2 5018.6 5013.6 5015.5 5004.1 5023.6 4998.3 5013.6 4998.3 5005.5 5004.1 4997.4 5010 4989.3 5015.9 4999.3 5015.9 5007.4 5010 5015.5 5015.9 5012.4 5006.4" clip-path="url(#a)" fill="none" stroke="#000" stroke-linecap="round"/>
<polyline points="5012.4 5006.4 5004.3 5000.5 4996.2 4994.6 4988.1 4988.7 4991.2 4998.3 4999.3 5004.1 4996.2 5013.6 5004.3 5007.8 5007.4 4998.3 5010.5 4988.7 5013.6 4979.2 5005.5 4985.1 5002.4 4994.6 4992.4 4994.6 5000.5 5000.5 5010.5 5000.5 5020.5 5000.5 5030.5 5000.5 5022.4 4994.6 5012.4 4994.6 5009.3 4985.1 5006.2 4994.6 5009.3 5004.1 5012.4 5013.6 5015.5 5023.2 5018.6 5013.6 5015.5 5004.1 5023.6 4998.3 5013.6 4998.3 5005.5 5004.1 4997.4 5010 4989.3 5015.9 4999.3 5015.9 5007.4 5010 5015.5 5015.9 5012.4 5006.4 5004.3 5000.5 4996.2 4994.6 4988.1 4988.7 4991.2 4998.3 4999.3 5004.1 4996.2 5013.6 5004.3 5007.8" clip-path="url(#a)" fill="none" stroke="#000" stroke-linecap="round"/>
<polyline points="5004.3 5007.8 5007.4 4998.3 5010.5 4988.7 5013.6 4979.2 5005.5 4985.1 5002.4 4994.6 4992.4 4994.6 5000.5 5000.5 5010.5 5000.5 5020.5 5000.5 5030.5 5000.5 5022.4 4994.6 5012.4 4994.6 5009.3 4985.1 5006.2 4994.6 5009.3 5004.1 5012.4 5013.6 5015.5 5023.2 5018.6 5013.6 5015.5 5004.1 5023.6 4998.3 5013.6 4998.3 5005.5 5004.1 4997.4 5010 4989.3 5015.9 4999.3 5015.9 5007.4 5010 5015.5 5015.9 5012.4 5006.4 5004.3 5000.5 4996.2 4994.6 4988.1 4988.7 4991.2 4998.3 4999.3 5004.1 4996.2 5013.6 5004.3 5007.8 5007.4 4998.3 5010.5 4988.7 5013.6 4979.2 5005.5 4985.1 5002.4 4994.6 4992.4 4994.6 5000.5 5000.5" clip-path="url(#a)" fill="none" stroke="#000" stroke-linecap="round"/>
<polyline points="5000.5 5000.5 5010.5 5000.5 5020.5 5000.5 5030.5 5000.5 5022.4 4994.6 5012.4 4994.6 5009.3 4985.1 5006.2 4994.6 5009.3 5004.1 5012.4 5013.6 5015.5 5023.2 5018.6 5013.6 5015.5 5004.1 5023.6 4998.3 5013.6 4998.3 5005.5 5004.1 4997.4 5010 4989.3 5015.9 4999.3 5015.9 5007.4 5010 5015.5 5015.9 5012.4 5006.4 5004.3 5000.5 4996.2 4994.6 4988.1 4988.7 4991.2 4998.3 4999.3 5004.1 4996.2 5013.6 5004.3 5007.8 5007.4 4998.3 5010.5 4988.7 5013.6 4979.2 5005.5 4985.1 5002.4 4994.6 4992.4 4994.6 5000.5 5000.5 5010.5 5000.5 5020.5 5000.5 5030.5 5000.5 5022.4 4994.6 5012.4 4994.6 5009.3 4985.1 5006.2 4994.6" clip-path="url(#a)" fill="none" stroke="#000" stroke-linecap="round"/>
<polyline points="5006.2 4994.6 5009.3 5004.1 5012.4 5013.6 5015.5 5023.2 5018.6 5013.6 5015.5 5004.1 5023.6 4998.3 5013.6 4998.3 5005.5 5004.1 4997.4 5010 4989.3 5015.9 4999.3 5015.9 5007.4 5010 5015.5 5015.9 5012.4 5006.4 5004.3 5000.5 4996.2 4994.6 4988.1 4988.7 4991.2 4998.3 4999.3 5004.1 4996.2 5013.6 5004.3 5007.8 5007.4 4998.3 5010.5 4988.7 5013.6 4979.2 5005.5 4985.1 5002.4 4994.6 4992.4 4994.6 5000.5 5000.5 5010.5 5000.5 5020.5 5000.5 5030.5 5000.5 5022.4 4994.6 5012.4 4994.6 5009.3 4985.1 5006.2 4994.6 5009.3 5004.1 5012.4 5013.6 5015.5 5023.2 5018.6 5013.6 5015.5 5004.1 5023.6 4998.3 5013.6 4998.3" clip-path="url(#a)" fill="none" stroke="#000" stroke-linecap="round"/>
<polyline points="5013.6 4998.3 5005.5 5004.1 4997.4 5010 4989.3 5015.9 4999.3 5015.9 5007.4 5010 5015.5 5015.9 5012.4 5006.4 5004.3 5000.5 4996.2 4994.6 4988.1 4988.7 4991.2 4998.3 4999.3 5004.1 4996.2 5013.6 5004.3 5007.8 5007.4 4998.3 5010.5 4988.7 5013.6 4979.2 5005.5 4985.1 5002.4 4994.6 4992.4 4994.6 5000.5 5000.5 5010.5 5000.5 5020.5 5000.5 5030.5 5000.5 5022.4 4994.6 5012.4 4994.6 5009.3 4985.1 5006.2 4994.6 5009.3 5004.1 5012.4 5013.6 5015.5 5023.2 5018.6 5013.6 5015.5 5004.1 5023.6 4998.3 5013.6 4998.3 5005.5 5004.1 4997.4 5010 4989.3 5015.9 4999.3 5015.9 5007.4 5010 5015.5 5015.9 5012.4 5006.4" clip-path="url(#a)" fill="none" stroke="#000" stroke-linecap="round"/>
<polyline points="5012.4 5006.4 5004.3 5000.5 4996.2 4994.6 4988.1 4988.7 4991.2 4998.3 4999.3 5004.1 4996.2 5013.6 5004.3 5007.8 5007.4 4998.3 5010.5 4988.7 5013.6 4979.2 5005.5 4985.1 5002.4 4994.6 4992.4 4994.6 5000.5 5000.5 5010.5 5000.5 5020.5 5000.5 5030.5 5000.5 5022.4 4994.6 5012.4 4994.6 5009.3 4985.1 5006.2 4994.6 5009.3 5004.1 5012.4 5013.6 5015.5 5023.2 5018.6 5013.6 5015.5 5004.1 5023.6 4998.3 5013.6 4998.3 5005.5 5004.1 4997.4 5010 4989.3 5015.9 4999.3 5015.9 5007.4 5010 5015.5 5015.9 5012.4 5006.4 5004.3 5000.5 4996.2 4994.6 4988.1 4988.7 4991.2 4998.3 4999.3 5004.1 4996.2 5013.6 5004.3 5007.8" clip-path="url(#a)" fill="none" stroke="#000" stroke-linecap="round"/>
<polyline points="5004.3 5007.8 5007.4 4998.3 5010.5 4988.7 5013.6 4979.2 5005.5 4985.1 5002.4 4994.6 4992.4 4994.6 5000.5 5000.5 5010.5 5000.5 5020.5 5000.5 5030.5 5000.5 5022.4 4994.6 5012.4 4994.6 5009.3 4985.1 5006.2 4994.6 5009.3 5004.1 5012.4 5013.6 5015.5 5023.2 5018.6 5013.6 5015.5 5004.1 5023.6 4998.3 5013.6 4998.3 5005.5 5004.1 4997.4 5010 4989.3 5015.9 4999.3 5015.9 5007.4 5010 5015.5 5015.9 5012.4 5006.4 5004.3 5000.5 4996.2 4994.6 4988.1 4988.7 4991.2 4998.3 4999.3 5004.1 4996.2 5013.6 5004.3 5007.8 5007.4 4998.3 5010.5 4988.7 5013.6 4979.2 5005.5 4985.1 5002.4 4994.6 4992.4 4994.6 5000.5 5000.5" clip-path="url(#a)" fill="none" stroke="#000" stroke-linecap="round"/>
<polyline points="5000.5 5000.5 5010.5 5000.5 5020.5 5000.5 5030.5 5000.5 5022.4 4994.6 5012.4 4994.6 5009.3 4985.1 5006.2 4994.6 5009.3 5004.1 5012.4 5013.6 5015.5 5023.2 5018.6 5013.6 5015.5 5004.1 5023.6 4998.3 5013.6 4998.3 5005.5 5004.1 4997.4 5010 4989.3 5015.9 4999.3 5015.9 5007.4 5010 5015.5 5015.9 5012.4 5006.4 5004.3 5000.5 4996.2 4994.6 4988.1 4988.7 4991.2 4998.3 4999.3 5004.1 4996.2 5013.6 5004.3 5007.8 5007.4 4998.3 5010.5 4988.7 5013.6 4979.2 5005.5 4985.1 5002.4 4994.6 4992.4 4994.6 5000.5 5000.5 5010.5 5000.5 5020.5 5000.5 5030.5 5000.5 5022.4 4994.6 5012.4 4994.6 5009.3 4985.1 5006.2 4994.6" clip-path="url(#a)" fill="none" stroke="#000" stroke-linecap="round"/>
<polyline points="5006.2 4994.6 5009.3 5004.1 5012.4 5013.6 5015.5 5023.2 5018.6 5013.6 5015.5 5004.1 5023.6 4998.3 5013.6 4998.3 5005.5 5004.1 4997.4 5010 4989.3 5015.9 4999.3 5015.9 5007.4 5010 5015.5 5015.9 5012.4 5006.4 5004.3 5000.5 4996.2 4994.6 4988.1 4988.7 4991.2 4998.3 4999.3 5004.1 4996.2 5013.6 5004.3 5007.8 5007.4 4998.3 5010.5 4988.7 5013.6 4979.2 5005.5 4985.1 5002.4 4994.6 4992.4 4994.6 5000.5 5000.5 5010.5 5000.5 5020.5 5000.5 5030.5 5000.5 5022.4 4994.6 5012.4 4994.6 5009.3 4985.1 5006.2 4994.6 5009.3 5004.1 5012.4 5013.6 5015.5 5023.2 5018.6 5013.6 5015.5 5004.1 5023.6 4998.3 5013.6 4998.3" clip-path="url(#a)" fill="none" stroke="#000" stroke-linecap="round"/>
<polyline points="5013.6 4998.3 5005.5 5004.1 4997.4 5010 4989.3 5015.9 4999.3 5015.9 5007.4 5010 5015.5 5015.9 5012.4 5006.4 5004.3 5000.5 4996.2 4994.6 4988.1 4988.7 4991.2 4998.3 4999.3 5004.1 4996.2 5013.6 5004.3 5007.8 5007.4 4998.3 5010.5 4988.7 5013.6 4979.2 5005.5 4985.1 5002.4 4994.6 4992.4 4994.6 5000.5 5000.5 5010.5 5000.5 5020.5 5000.5 5030.5 5000.5 5022.4 4994.6 5012.4 4994.6 5009.3 4985.1 5006.2 4994.6 5009.3 5004.1 5012.4 5013.6 5015.5 5023.2 5018.6 5013.6 5015.5 5004.1 5023.6 4998.3 5013.6 4998.3 5005.5 5004.1 4997.4 5010 4989.3 5015.9 4999.3 5015.9 5007.4 5010 5015.5 5015.9 5012.4 5006.4" clip-path="url(#a)" fill="none" stroke="#000" stroke-linecap="round"/>
<polyline points="5012.4 5006.4 5004.3 5000.5 4996.2 4994.6 4988.1 4988.7 4991.2 4998.3 4999.3 5004.1 4996.2 5013.6 5004.3 5007.8 5007.4 4998.3 5010.5 4988.7 5013.6 4979.2 5005.5 4985.1 5002.4 4994.6 4992.4 4994.6 5000.5 5000.5 5010.5 5000.5 5020.5 5000.5 5030.5 5000.5 5022.4 4994.6 5012.4 4994.6 5009.3 4985.1 5006.2 4994.6 5009.3 5004.1 5012.4 5013.6 5015.5 5023.2 5018.6 5013.6 5015.5 5004.1 5023.6 4998.3 5013.6 4998.3 5005.5 5004.1 4997.4 5010 4989.3 5015.9 4999.3 5015.9 5007.4 5010 5015.5 5015.9 5012.4 5006.4 5004.3 5000.5 4996.2 4994.6 4988.1 4988.7 4991.2 4998.3 4999.3 5004.1 4996.2 5013.6 5004.3 5007.8" clip-path="url(#a)" fill="none" stroke="#000" stroke-linecap="round"/>
<polyline points="5004.3 5007.8 5007.4 4998.3 5010.5 4988.7 5013.6 4979.2 5005.5 4985.1 5002.4 4994.6 4992.4 4994.6 5000.5 5000.5 5010.5 5000.5 5020.5 5000.5 5030.5 5000.5 5022.4 4994.6 5012.4 4994.6 5009.3 4985.1 5006.2 4994.6 5009.3 5004.1 5012.4 5013.6 5015.5 5023.2 5018.6 5013.6 5015.5 5004.1 5023.6 4998.3 5013.6 4998.3 5005.5 5004.1 4997.4 5010 4989.3 5015.9 4999.3 5015.9 5007.4 5010 5015.5 5015.9 5012.4 5006.4 5004.3 5000.5 4996.2 4994.6 4988.1 4988.7 4991.2 4998.3 4999.3 5004.1 4996.2 5013.6 5004.3 5007.8 5007.4 4998.3 5010.5 4988.7 5013.6 4979.2 5005.5 4985.1 5002.4 4994.6 4992.4 4994.6 5000.5 5000.5" clip-path="url(#a)" fill="none" stroke="#000" stroke-linecap="round"/>
<polyline points="5000.5 5000.5 5010.5 5000.5 5020.5 5000.5 5030.5 5000.5 5022.4 4994.6 5012.4 4994.6 5009.3 4985.1 5006.2 4994.6 5009.3 5004.1 5012.4 5013.6 5015.5 5023.2 5018.6 5013.6 5015.5 5004.1 5023.6 4998.3 5013.6 4998.3 5005.5 5004.1 4997.4 5010 4989.3 5015.9 4999.3 5015.9 5007.4 5010 5015.5 5015.9 5012.4 5006.4 5004.3 5000.5 4996.2 4994.6 4988.1 4988.7 4991.2 4998.3 4999.3 5004.1 4996.2 5013.6 5004.3 5007.8 5007.4 4998.3 5010.5 4988.7 5013.6 4979.2 5005.5 4985.1 5002.4 4994.6 4992.4 4994.6 5000.5 5000.5 5010.5 5000.5 5020.5 5000.5 5030.5 5000.5 5022.4 4994.6 5012.4 4994.6 5009.3 4985.1 5006.2 4994.6" clip-path="url(#a)" fill="none" stroke="#000" stroke-linecap="round"/>
<polyline points="5006.2 4994.6 5009.3 5004.1 5012.4 5013.6 5015.5 5023.2 5018.6 5013.6 5015.5 5004.1 5023.6 4998.3 5013.6 4998.3 5005.5 5004.1 4997.4 5010 4989.3 5015.9 4999.3 5015.9 5007.4 5010 5015.5 5015.9 5012.4 5006.4 5004.3 5000.5 4996.2 4994.6 4988.1 4988.7 4991.2 4998.3 4999.3 5004.1 4996.2 5013.6 5004.3 5007.8 5007.4 4998.3 5010.5 4988.7 5013.6 4979.2 5005.5 4985.1 5002.4 4994.6 4992.4 4994.6 5000.5 5000.5 5010.5 5000.5 5020.5 5000.5 5030.5 5000.5 5022.4 4994.6 5012.4 4994.6 5009.3 4985.1 5006.2 4994.6 5009.3 5004.1 5012.4 5013.6 5015.5 5023.2 5018.6 5013.6 5015.5 5004.1 5023.6 4998.3 5013.6 4998.3" clip-path="url(#a)" fill="none" stroke="#000" stroke-linecap="round"/>
<polyline points="5013.6 4998.3 5005.5 5004.1 4997.4 5010 4989.3 5015.9 4999.3 5015.9 5007.4 5010 5015.5 5015.9 5012.4 5006.4 5004.3 5000.5 4996.2 4994.6 4988.1 4988.7 4991.2 4998.3 4999.3 5004.1 4996.2 5013.6 5004.3 5007.8 5007.4 4998.3 5010.5 4988.7 5013.6 4979.2 5005.5 4985.1 5002.4 4994.6 4992.4 4994.6 5000.5 5000.5 5010.5 5000.5 5020.5 5000.5 5030.5 5000.5 5022.4 4994.6 5012.4 4994.6 5009.3 4985.1 5006.2 4994.6 5009.3 5004.1 5012.4 5013.6 5015.5 5023.2 5018.6 5013.6 5015.5 5004.1 5023.6 4998.3 5013.6 4998.3 5005.5 5004.1 4997.4 5010 4989.3 5015.9 4999.3 5015.9 5007.4 5010 5015.5 5015.9 5012.4 5006.4" clip-path="url(#a)" fill="none" stroke="#000" stroke-linecap="round"/>
<polyline points="5012.4 5006.4 5004.3 5000.5 4996.2 4994.6 4988.1 4988.7 4991.2 4998.3 4999.3 5004.1 4996.2 5013.6 5004.3 5007.8 5007.4 4998.3 5010.5 4988.7 5013.6 4979.2 5005.5 4985.1 5002.4 4994.6 4992.4 4994.6 5000.5 5000.5 5010.5 5000.5 5020.5 5000.5 5030.5 5000.5 5022.4 4994.6 5012.4 4994.6 5009.3 4985.1 5006.2 4994.6 5009.3 5004.1 5012.4 5013.6 5015.5 5023.2 5018.6 5013.6 5015.5 5004.1 5023.6 4998.3 5013.6 4998.3 5005.5 5004.1 4997.4 5010 4989.3 5015.9 4999.3 5015.9 5007.4 5010 5015.5 5015.9 5012.4 5006.4 5004.3 5000.5 4996.2 4994.6 4988.1 4988.7 4991.2 4998.3 4999.3 5004.1 4996.2 5013.6 5004.3 5007.8" clip-path="url(#a)" fill="none" stroke="#000" stroke-linecap="round"/>
<polyline points="5004.3 5007.8 5007.4 4998.3 5010.5 4988.7 5013.6 4979.2 5005.5 4985.1 5002.4 4994.6 4992.4 4994.6 5000.5 5000.5 5010.5 5000.5 5020.5 5000.5 5030.5 5000.5 5022.4 4994.6 5012.4 4994.6 5009.3 4985.1 5006.2 4994.6 5009.3 5004.1 5012.4 5013.6 5015.5 5023.2 5018.6 5013.6 5015.5 5004.1 5023.6 4998.3 5013.6 4998.3 5005.5 5004.1 4997.4 5010 4989.3 5015.9 4999.3 5015.9 5007.4 5010 5015.5 5015.9 5012.4 5006.4 5004.3 5000.5 4996.2 4994.6 4988.1 4988.7 4991.2 4998.3 4999.3 5004.1 4996.2 5013.6 5004.3 5007.8 5007.4 4998.3 5010.5 4988.7 5013.6 4979.2 5005.5 4985.1 5002.4 4994.6 4992.4 4994.6 5000.5 5000.5" clip-path="url(#a)" fill="none" stroke="#000" stroke-linecap="round"/>
<polyline points="5000.5 5000.5 5010.5 5000.5 5020.5 5000.5 5030.5 5000.5 5022.4 4994.6 5012.4 4994.6 5009.3 4985.1 5006.2 4994.6 5009.3 5004.1 5012.4 5013.6 5015.5 5023.2 5018.6 5013.6 5015.5 5004.1 5023.6 4998.3 5013.6 4998.3 5005.5 5004.1 4997.4 5010 4989.3 5015.9 4999.3 5015.9 5007.4 5010 5015.5 5015.9 5012.4 5006.4 5004.3 5000.5 4996.2 4994.6 4988.1 4988.7 4991.2 4998.3 4999.3 5004.1 4996.2 5013.6 5004.3 5007.8 5007.4 4998.3 5010.5 4988.7 5013.6 4979.2 5005.5 4985.1 5002.4 4994.6 4992.4 4994.6 5000.5 5000.5 5010.5 5000.5 5020.5 5000.5 5030.5 5000.5 5022.4 4994.6 5012.4 4994.6 5009.3 4985.1 5006.2 4994.6" clip-path="url(#a)" fill="none" stroke="#000" stroke-linecap="round"/>
<polyline points="5006.2 4994.6 5009.3 5004.1 5012.4 5013.6 5015.5 5023.2 5018.6 5013.6 5015.5 5004.1 5023.6 4998.3 5013.6 4998.3 5005.5 5004.1 4997.4 5010 4989.3 5015.9 4999.3 5015.9 5007.4 5010 5015.5 5015.9 5012.4 5006.4 5004.3 5000.5 4996.2 4994.6 4988.1 4988.7 4991.2 4998.3 4999.3 5004.1 4996.2 5013.6 5004.3 5007.8 5007.4 4998.3 5010.5 4988.7 5013.6 4979.2 5005.5 4985.1 5002.4 4994.6 4992.4 4994.6 5000.5 5000.5 5010.5 5000.5 5020.5 5000.5 5030.5 5000.5 5022.4 4994.6 5012.4 4994.6 5009.3 4985.1 5006.2 4994.6 5009.3 5004.1 5012.4 5013.6 5015.5 5023.2 5018.6 5013.6 5015.5 5004.1 5023.6 4998.3 5013.6 4998.3" clip-path="url(#a)" fill="none" stroke="#000" stroke-linecap="round"/>
<polyline points="5013.6 4998.3 5005.5 5004.1 4997.4 5010 4989.3 5015.9 4999.3 5015.9 5007.4 5010 5015.5 5015.9 5012.4 5006.4 5004.3 5000.5 4996.2 4994.6 4988.1 4988.7 4991.2 4998.3 4999.3 5004.1 4996.2 5013.6 5004.3 5007.8 5007.4 4998.3 5010.5 4988.7 5013.6 4979.2 5005.5 4985.1 5002.4 4994.6 4992.4 4994.6 5000.5 5000.5 5010.5 5000.5 5020.5 5000.5 5030.5 5000.5 5022.4 4994.6 5012.4 4994.6 5009.3 4985.1 5006.2 4994.6 5009.3 5004.1 5012.4 5013.6 5015.5 5023.2 5018.6 5013.6 5015.5 5004.1 5023.6 4998.3 5013.6 4998.3 5005.5 5004.1 4997.4 5010 4989.3 5015.9 4999.3 5015.9 5007.4 5010 5015.5 5015.9 5012.4 5006.4" clip-path="url(#a)" fill="none" stroke="#000" stroke-linecap="round"/>
<polyline points="5012.4 5006.4 5004.3 5000.5 4996.2 4994.6 4988.1 4988.7 4991.2 4998.3 4999.3 5004.1 4996.2 5013.6 5004.3 5007.8 5007.4 4998.3 5010.5 4988.7 5013.6 4979.2 5005.5 4985.1 5002.4 4994.6 4992.4 4994.6 5000.5 5000.5 5010.5 5000.5 5020.5 5000.5 5030.5 5000.5 5022.4 4994.6 5012.4 4994.6 5009.3 4985.1 5006.2 4994.6 5009.3 5004.1 5012.4 5013.6 5015.5 5023.2 5018.6 5013.6 5015.5 5004.1 5023.6 4998.3 5013.6 4998.3 5005.5 5004.1 4997.4 5010 4989.3 5015.9 4999.3 5015.9 5007.4 5010 5015.5 5015.9 5012.4 5006.4 5004.3 5000.5 4996.2 4994.6 4988.1 4988.7 4991.2 4998.3 4999.3 5004.1 4996.2 5013.6 5004.3 5007.8" clip-path="url(#a)" fill="none" stroke="#000" stroke-linecap="round"/>
<polyline points="5004.3 5007.8 5007.4 4998.3 5010.5 4988.7 5013.6 4979.2 5005.5 4985.1 5002.4 4994.6 4992.4 4994.6 5000.5 5000.5 5010.5 5000.5 5020.5 5000.5 5030.5 5000.5 5022.4 4994.6 5012.4 4994.6 5009.3 4985.1 5006.2 4994.6 5009.3 5004.1 5012.4 5013.6 5015.5 5023.2 5018.6 5013.6 5015.5 5004.1 5023.6 4998.3 5013.6 4998.3 5005.5 5004.1 4997.4 5010 4989.3 5015.9 4999.3 5015.9 5007.4 5010 5015.5 5015.9 5012.4 5006.4 5004.3 5000.5 4996.2 4994.6 4988.1 4988.7 4991.2 4998.3 4999.3 5004.1 4996.2 5013.6 5004.3 5007.8 5007.4 4998.3 5010.5 4988.7 5013.6 4979.2 5005.5 4985.1 5002.4 4994.6 4992.4 4994.6 5000.5 5000.5" clip-path="url(#a)" fill="none" stroke="#000" stroke-linecap="round"/>
<polyline points="5000.5 5000.5 5010.5 5000.5 5020.5 5000.5 5030.5 5000.5 5022.4 4994.6 5012.4 4994.6 5009.3 4985.1 5006.2 4994.6 5009.3 5004.1 5012.4 5013.6 5015.5 5023.2 5018.6 5013.6 5015.5 5004.1 5023.6 4998.3 5013.6 4998.3 5005.5 5004.1 4997.4 5010 4989.3 5015.9 4999.3 5015.9 5007.4 5010 5015.5 5015.9 5012.4 5006.4 5004.3 5000.5 4996.2 4994.6 4988.1 4988.7 4991.2 4998.3 4999.3 5004.1 4996.2 5013.6 5004.3 5007.8 5007.4 4998.3 5010.5 4988.7 5013.6 4979.2 5005.5 4985.1 5002.4 4994.6 4992.4 4994.6 5000.5 5000.5 5010.5 5000.5 5020.5 5000.5 5030.5 5000.5 5022.4 4994.6 5012.4 4994.6 5009.3 4985.1 5006.2 4994.6" clip-path="url(#a)" fill="none" stroke="#000" stroke-linecap="round"/>
<polyline points="5006.2 4994.6 5009.3 5004.1 5012.4 5013.6 5015.5 5023.2 5018.6 5013.6 5015.5 5004.1 5023.6 4998.3 5013.6 4998.3 5005.5 5004.1 4997.4 5010 4989.3 5015.9 4999.3 5015.9 5007.4 5010 5015.5 5015.9 5012.4 5006.4 5004.3 5000.5 4996.2 4994.6 4988.1 4988.7 4991.2 4998.3 4999.3 5004.1 4996.2 5013.6 5004.3 5007.8 5007.4 4998.3 5010.5 4988.7 5013.6 4979.2 5005.5 4985.1 5002.4 4994.6 4992.4 4994.6 5000.5 5000.5 5010.5 5000.5 5020.5 5000.5 5030.5 5000.5 5022.4 4994.6 5012.4 4994.6 5009.3 4985.1 5006.2 4994.6 5009.3 5004.1 5012.4 5013.6 5015.5 5023.2 5018.6 5013.6 5015.5 5004.1 5023.6 4998.3 5013.6 4998.3" clip-path="url(#a)" fill="none" stroke="#000" stroke-linecap="round"/>
<polyline points="5013.6 4998.3 5005.5 5004.1 4997.4 5010 4989.3 5015.9 4999.3 5015.9 5007.4 5010 5015.5 5015.9 5012.4 5006.4 5004.3 5000.5 4996.2 4994.6 4988.1 4988.7 4991.2 4998.3 4999.3 5004.1 4996.2 5013.6 5004.3 5007.8 5007.4 4998.3 5010.5 4988.7 5013.6 4979.2 5005.5 4985.1 5002.4 4994.6 4992.4 4994.6 5000.5 5000.5 5010.5 5000.5 5020.5 5000.5 5030.5 5000.5 5022.4 4994.6 5012.4 4994.6 5009.3 4985.1 5006.2 4994.6 5009.3 5004.1 5012.4 5013.6 5015.5 5023.2 5018.6 5013.6 5015.5 5004.1 5023.6 4998.3 5013.6 4998.3 5005.5 5004.1 4997.4 5010 4989.3 5015.9 4999.3 5015.9 5007.4 5010 5015.5 5015.9 5012.4 5006.4" clip-path="url(#a)" fill="none" stroke="#000" stroke-linecap="round"/>
<polyline points="5012.4 5006.4 5004.3 5000.5 4996.2 4994.6 4988.1 4988.7 4991.2 4998.3 4999.3 5004.1 4996.2 5013.6 5004.3 5007.8 5007.4 4998.3 5010.5 4988.7 5013.6 4979.2 5005.5 4985.1 5002.4 4994.6 4992.4 4994.6 5000.5 5000.5 5010.5 5000.5 5020.5 5000.5 5030.5 5000.5 5022.4 4994.6 5012.4 4994.6 5009.3 4985.1 5006.2 4994.6 5009.3 5004.1 5012.4 5013.6 5015.5 5023.2 5018.6 5013.6 5015.5 5004.1 5023.6 4998.3 5013.6 4998.3 5005.5 5004.1 4997.4 5010 4989.3 5015.9 4999.3 5015.9 5007.4 5010 5015.5 5015.9 5012.4 5006.4 5004.3 5000.5 4996.2 4994.6 4988.1 4988.7 4991.2 4998.3 4999.3 5004.1 4996.2 5013.6 5004.3 5007.8" clip-path="url(#a)" fill="none" stroke="#000" stroke-linecap="round"/>
<polyline points="5004.3 5007.8 5007.4 4998.3 5010.5 4988.7 5013.6 4979.2 5005.5 4985.1 5002.4 4994.6 4992.4 4994.6 5000.5 5000.5 5010.5 5000.5 5020.5 5000.5 5030.5 5000.5 5022.4 4994.6 5012.4 4994.6 5009.3 4985.1 5006.2 4994.6 5009.3 5004.1 5012.4 5013.6 5015.5 5023.2 5018.6 5013.6 5015.5 5004.1 5023.6 4998.3 5013.6 4998.3 5005.5 5004.1 4997.4 5010 4989.3 5015.9 4999.3 5015.9 5007.4 5010 5015.5 5015.9 5012.4 5006.4 5004.3 5000.5 4996.2 4994.6 4988.1 4988.7 4991.2 4998.3 4999.3 5004.1 4996.2 5013.6 5004.3 5007.8 5007.4 4998.3 5010.5 4988.7 5013.6 4979.2 5005.5 4985.1 5002.4 4994.6 4992.4 4994.6 5000.5 5000.5" clip-path="url(#a)" fill="none" stroke="#000" stroke-linecap="round"/>
<polyline points="5000.5 5000.5 5010.5 5000.5 5020.5 5000.5 5030.5 5000.5 5022.4 4994.6 5012.4 4994.6 5009.3 4985.1 5006.2 4994.6 5009.3 5004.1 5012.4 5013.6 5015.5 5023.2 5018.6 5013.6 5015.5 5004.1 5023.6 4998.3 5013.6 4998.3 5005.5 5004.1 4997.4 5010 4989.3 5015.9 4999.3 5015.9 5007.4 5010 5015.5 5015.9 5012.4 5006.4 5004.3 5000.5 4996.2 4994.6 4988.1 4988.7 4991.2 4998.3 4999.3 5004.1 4996.2 5013.6 5004.3 5007.8 5007.4 4998.3 5010.5 4988.7 5013.6 4979.2 5005.5 4985.1 5002.4 4994.6 4992.4 4994.6 5000.5 5000.5 5010.5 5000.5 5020.5 5000.5 5030.5 5000.5 5022.4 4994.6 5012.4 4994.6 5009.3 4985.1 5006.2 4994.6" clip-path="url(#a)" fill="none" stroke="#000" stroke-linecap="round"/>
<polyline points="5006.2 4994.6 5009.3 5004.1 5012.4 5013.6 5015.5 5023.2 5018.6 5013.6 5015.5 5004.1 5023.6 4998.3 5013.6 4998.3 5005.5 5004.1 4997.4 5010 4989.3 5015.9 4999.3 5015.9 5007.4 5010 5015.5 5015.9 5012.4 5006.4 5004.3 5000.5 4996.2 4994.6 4988.1 4988.7 4991.2 4998.3 4999.3 5004.1 4996.2 5013.6 5004.3 5007.8 5007.4 4998.3 5010.5 4988.7 5013.6 4979.2 5005.5 4985.1 5002.4 4994.6 4992.4 4994.6 5000.5 5000.5 5010.5 5000.5 5020.5 5000.5 5030.5 5000.5 5022.4 4994.6 5012.4 4994.6 5009.3 4985.1 5006.2 4994.6 5009.3 5004.1 5012.4 5013.6 5015.5 5023.2 5018.6 5013.6 5015.5 5004.1 5023.6 4998.3 5013.6 4998.3" clip-path="url(#a)" fill="none" stroke="#000" stroke-linecap="round"/>
<polyline points="5013.6 4998.3 5005.5 5004.1 4997.4 5010 4989.3 5015.9 4999.3 5015.9 5007.4 5010 5015.5 5015.9 5012.4 5006.4 5004.3 5000.5 4996.2 4994.6 4988.1 4988.7 4991.2 4998.3 4999.3 5004.1 4996.2 5013.6 5004.3 5007.8 5007.4 4998.3 5010.5 4988.7 5013.6 4979.2 5005.5 4985.1 5002.4 4994.6 4992.4 4994.6 5000.5 5000.5 5010.5 5000.5 5020.5 5000.5 5030.5 5000.5 5022.4 4994.6 5012.4 4994.6 5009.3 4985.1 5006.2 4994.6 5009.3 5004.1 5012.4 5013.6 5015.5 5023.2 5018.6 5013.6 5015.5 5004.1 5023.6 4998.3 5013.6 4998.3 5005.5 5004.1 4997.4 5010 4989.3 5015.9 4999.3 5015.9 5007.4 5010 5015.5 5015.9 5012.4 5006.4" clip-path="url(#a)" fill="none" stroke="#000" stroke-linecap="round"/>
<polyline points="5012.4 5006.4 5004.3 5000.5 4996.2 4994.6 4988.1 4988.7 4991.2 4998.3 4999.3 5004.1 4996.2 5013.6 5004.3 5007.8 5007.4 4998.3 5010.5 4988.7 5013.6 4979.2 5005.5 4985.1 5002.4 4994.6 4992.4 4994.6 5000.5 5000.5 5010.5 5000.5 5020.5 5000.5 5030.5 5000.5 5022.4 4994.6 5012.4 4994.6 5009.3 4985.1 5006.2 4994.6 5009.3 5004.1 5012.4 5013.6 5015.5 5023.2 5018.6 5013.6 5015.5 5004.1 5023.6 4998.3 5013.6 4998.3 5005.5 5004.1 4997.4 5010 4989.3 5015.9 4999.3 5015.9 5007.4 5010 5015.5 5015.9 5012.4 5006.4 5004.3 5000.5 4996.2 4994.6 4988.1 4988.7 4991.2 4998.3 4999.3 5004.1 4996.2 5013.6 5004.3 5007.8" clip-path="url(#a)" fill="none" stroke="#000" stroke-linecap="round"/>
<polyline points="5004.3 5007.8 5007.4 4998.3 5010.5 4988.7 5013.6 4979.2 5005.5 4985.1 5002.4 4994.6 4992.4 4994.6 5000.5 5000.5 5010.5 5000.5 5020.5 5000.5 5030.5 5000.5 5022.4 4994.6 5012.4 4994.6 5009.3 4985.1 5006.2 4994.6 5009.3 5004.1 5012.4 5013.6 5015.5 5023.2 5018.6 5013.6 5015.5 5004.1 5023.6 4998.3 5013.6 4998.3 5005.5 5004.1 4997.4 5010 4989.3 5015.9 4999.3 5015.9 5007.4 5010 5015.5 5015.9 5012.4 5006.4 5004.3 5000.5 4996.2 4994.6 4988.1 4988.7 4991.2 4998.3 4999.3 5004.1 4996.2 5013.6 5004.3 5007.8 5007.4 4998.3 5010.5 4988.7 5013.6 4979.2 5005.5 4985.1 5002.4 4994.6 4992.4 4994.6 5000.5 5000.5" clip-path="url(#a)" fill="none" stroke="#000" stroke-linecap="round"/>
<polyline points="5000.5 5000.5 5010.5 5000.5 5020.5 5000.5 5030.5 5000.5 5022.4 4994.6 5012.4 4994.6 5009.3 4985.1 5006.2 4994.6 5009.3 5004.1 5012.4 5013.6 5015.5 5023.2 5018.6 5013.6 5015.5 5004.1 5023.6 4998.3 5013.6 4998.3 5005.5 5004.1 4997.4 5010 4989.3 5015.9 4999.3 5015.9 5007.4 5010 5015.5 5015.9 5012.4 5006.4 5004.3 5000.5 4996.2 4994.6 4988.1 4988.7 4991.2 4998.3 4999.3 5004.1 4996.2 5013.6 5004.3 5007.8 5007.4 4998.3 5010.5 4988.7 5013.6 4979.2 5005.5 4985.1 5002.4 4994.6 4992.4 4994.6 5000.5 5000.5 5010.5 5000.5 5020.5 5000.5 5030.5 5000.5 5022.4 4994.6 5012.4 4994.6 5009.3 4985.1 5006.2 4994.6" clip-path="url(#a)" fill="none" stroke="#000" stroke-linecap="round"/>
<polyline points="5006.2 4994.6 5009.3 5004.1 5012.4 5013.6 5015.5 5023.2 5018.6 5013.6 5015.5 5004.1 5023.6 4998.3 5013.6 4998.3 5005.5 5004.1 4997.4 5010 4989.3 5015.9 4999.3 5015.9 5007.4 5010 5015.5 5015.9 5012.4 5006.4 5004.3 5000.5 4996.2 4994.6 4988.1 4988.7 4991.2 4998.3 4999.3 5004.1 4996.2 5013.6 5004.3 5007.8 5007.4 4998.3 5010.5 4988.7 5013.6 4979.2 5005.5 4985.1 5002.4 4994.6 4992.4 4994.6 5000.5 5000.5 5010.5 5000.5 5020.5 5000.5 5030.5 5000.5 5022.4 4994.6 5012.4 4994.6 5009.3 4985.1 5006.2 4994.6 5009.3 5004.1 5012.4 5013.6 5015.5 5023.2 5018.6 5013.6 5015.5 5004.1 5023.6 4998.3 5013.6 4998.3" clip-path="url(#a)" fill="none" stroke="#000" stroke-linecap="round"/>
<polyline points="5013.6 4998.3 5005.5 5004.1 4997.4 5010 4989.3 5015.9 4999.3 5015.9 5007.4 5010 5015.5 5015.9 5012.4 5006.4 5004.3 5000.5 4996.2 4994.6 4988.1 4988.7 4991.2 4998.3 4999.3 5004.1 4996.2 5013.6 5004.3 5007.8 5007.4 4998.3 5010.5 4988.7 5013.6 4979.2 5005.5 4985.1 5002.4 4994.6 4992.4 4994.6 5000.5 5000.5 5010.5 5000.5 5020.5 5000.5 5030.5 5000.5 5022.4 4994.6 5012.4 4994.6 5009.3 4985.1 5006.2 4994.6 5009.3 5004.1 5012.4 5013.6 5015.5 5023.2 5018.6 5013.6 5015.5 5004.1 5023.6 4998.3 5013.6 4998.3 5005.5 5004.1 4997.4 5010 4989.3 5015.9 4999.3 5015.9 5007.4 5010 5015.5 5015.9 5012.4 5006.4" clip-path="url(#a)" fill="none" stroke="#000" stroke-linecap="round"/>
<polyline points="5012.4 5006.4 5004.3 5000.5 4996.2 4994.6 4988.1 4988.7 4991.2 4998.3 4999.3 5004.1 4996.2 5013.6 5004.3 5007.8 5007.4 4998.3 5010.5 4988.7 5013.6 4979.2 5005.5 4985.1 5002.4 4994.6 4992.4 4994.6 5000.5 5000.5 5010.5 5000.5 5020.5 5000.5 5030.5 5000.5 5022.4 4994.6 5012.4 4994.6 5009.3 4985.1 5006.2 4994.6 5009.3 5004.1 5012.4 5013.6 5015.5 5023.2 5018.6 5013.6 5015.5 5004.1 5023.6 4998.3 5013.6 4998.3 5005.5 5004.1 4997.4 5010 4989.3 5015.9 4999.3 5015.9 5007.4 5010 5015.5 5015.9 5012.4 5006.4 5004.3 5000.5 4996.2 4994.6 4988.1 4988.7 4991.2 4998.3 4999.3 5004.1 4996.2 5013.6 5004.3 5007.8" clip-path="url(#a)" fill="none" stroke="#000" stroke-linecap="round"/>
<polyline points="5004.3 5007.8 5007.4 4998.3 5010.5 4988.7 5013.6 4979.2 5005.5 4985.1 5002.4 4994.6 4992.4 4994.6 5000.5 5000.5 5010.5 5000.5 5020.5 5000.5 5030.5 5000.5 5022.4 4994.6 5012.4 4994.6 5009.3 4985.1 5006.2 4994.6 5009.3 5004.1 5012.4 5013.6 5015.5 5023.2 5018.6 5013.6 5015.5 5004.1 5023.6 4998.3 5013.6 4998.3 5005.5 5004.1 4997.4 5010 4989.3 5015.9 4999.3 5015.9 5007.4 5010 5015.5 5015.9 5012.4 5006.4 5004.3 5000.5 4996.2 4994.6 4988.1 4988.7 4991.2 4998.3 4999.3 5004.1 4996.2 5013.6 5004.3 5007.8 5007.4 4998.3 5010.5 4988.7 5013.6 4979.2 5005.5 4985.1 5002.4 4994.6 4992.4 4994.6 5000.5 5000.5" clip-path="url(#a)" fill="none" stroke="#000" stroke-linecap="round"/>
<polyline points="5000.5 5000.5 5010.5 5000.5 5020.5 5000.5 5030.5 5000.5 5022.4 4994.6 5012.4 4994.6 5009.3 4985.1 5006.2 4994.6 5009.3 5004.1 5012.4 5013.6 5015.5 5023.2 5018.6 5013.6 5015.5 5004.1 5023.6 4998.3 5013.6 4998.3 5005.5 5004.1 4997.4 5010 4989.3 5015.9 4999.3 5015.9 5007.4 5010 5015.5 5015.9 5012.4 5006.4 5004.3 5000.5 4996.2 4994.6 4988.1 4988.7 4991.2 4998.3 4999.3 5004.1 4996.2 5013.6 5004.3 5007.8 5007.4 4998.3 5010.5 4988.7 5013.6 4979.2 5005.5 4985.1 5002.4 4994.6 4992.4 4994.6 5000.5 5000.5 5010.5 5000.5 5020.5 5000.5 5030.5 5000.5 5022.4 4994.6 5012.4 4994.6 5009.3 4985.1 5006.2 4994.6" clip-path="url(#a)" fill="none" stroke="#000" stroke-linecap="round"/>
<polyline points="5006.2 4994.6 5009.3 5004.1 5012.4 5013.6 5015.5 5023.2 5018.6 5013.6 5015.5 5004.1 5023.6 4998.3 5013.6 4998.3 5005.5 5004.1 4997.4 5010 4989.3 5015.9 4999.3 5015.9 5007.4 5010 5015.5 5015.9 5012.4 5006.4 5004.3 5000.5 4996.2 4994.6 4988.1 4988.7 4991.2 4998.3 4999.3 5004.1 4996.2 5013.6 5004.3 5007.8 5007.4 4998.3 5010.5 4988.7 5013.6 4979.2 5005.5 4985.1 5002.4 4994.6 4992.4 4994.6 5000.5 5000.5 5010.5 5000.5 5020.5 5000.5 5030.5 5000.5 5022.4 4994.6 5012.4 4994.6 5009.3 4985.1 5006.2 4994.6 5009.3 5004.1 5012.4 5013.6 5015.5 5023.2 5018.6 5013.6 5015.5 5004.1 5023.6 4998.3 5013.6 4998.3" clip-path="url(#a)" fill="none" stroke="#000" stroke-linecap="round"/>
<polyline points="5013.6 4998.3 5005.5 5004.1 4997.4 5010 4989.3 5015.9 4999.3 5015.9 5007.4 5010 5015.5 5015.9 5012.4 5006.4 5004.3 5000.5 4996.2 4994.6 4988.1 4988.7 4991.2 4998.3 4999.3 5004.1 4996.2 5013.6 5004.3 5007.8 5007.4 4998.3 5010.5 4988.7 5013.6 4979.2 5005.5 4985.1 5002.4 4994.6 4992.4 4994.6 5000.5 5000.5 5010.5 5000.5 5020.5 5000.5 5030.5 5000.5 5022.4 4994.6 5012.4 4994.6 5009.3 4985.1 5006.2 4994.6 5009.3 5004.1 5012.4 5013.6 5015.5 5023.2 5018.6 5013.6 5015.5 5004.1 5023.6 4998.3 5013.6 4998.3 5005.5 5004.1 4997.4 5010 4989.3 5015.9 4999.3 5015.9 5007.4 5010 5015.5 5015.9 5012.4 5006.4" clip-path="url(#a)" fill="none" stroke="#000" stroke-linecap="round"/>
<polyline points="5012.4 5006.4 5004.3 5000.5 4996.2 4994.6 4988.1 4988.7 4991.2 4998.3 4999.3 5004.1 4996.2 5013.6 5004.3 5007.8 5007.4 4998.3 5010.5 4988.7 5013.6 4979.2 5005.5 4985.1 5002.4 4994.6 4992.4 4994.6 5000.5 5000.5 5010.5 5000.5 5020.5 5000.5 5030.5 5000.5 5022.4 4994.6 5012.4 4994.6 5009.3 4985.1 5006.2 4994.6 5009.3 5004.1 5012.4 5013.6 5015.5 5023.2 5018.6 5013.6 5015.5 5004.1 5023.6 4998.3 5013.6 4998.3 5005.5 5004.1 4997.4 5010 4989.3 5015.9 4999.3 5015.9 5007.4 5010 5015.5 5015.9 5012.4 5006.4 5004.3 5000.5 4996.2 4994.6 4988.1 4988.7 4991.2 4998.3 4999.3 5004.1 4996.2 5013.6 5004.3 5007.8" clip-path="url(#a)" fill="none" stroke="#000" stroke-linecap="round"/>
<polyline points="5004.3 5007.8 5007.4 4998.3 5010.5 4988.7 5013.6 4979.2 5005.5 4985.1 5002.4 4994.6 4992.4 4994.6 5000.5 5000.5 5010.5 5000.5 5020.5 5000.5 5030.5 5000.5 5022.4 4994.6 5012.4 4994.6 5009.3 4985.1 5006.2 4994.6 5009.3 5004.1 5012.4 5013.6 5015.5 5023.2 5018.6 5013.6 5015.5 5004.1 5023.6 4998.3 5013.6 4998.3 5005.5 5004.1 4997.4 5010 4989.3 5015.9 4999.3 5015.9 5007.4 5010 5015.5 5015.9 5012.4 5006.4 5004.3 5000.5 4996.2 4994.6 4988.1 4988.7 4991.2 4998.3 4999.3 5004.1 4996.2 5013.6 5004.3 5007.8 5007.4 4998.3 5010.5 4988.7 5013.6 4979.2 5005.5 4985.1 5002.4 4994.6 4992.4 4994.6 5000.5 5000.5" clip-path="url(#a)" fill="none" stroke="#000" stroke-linecap="round"/>
<polyline points="5000.5 5000.5 5010.5 5000.5 5020.5 5000.5 5030.5 5000.5 5022.4 4994.6 5012.4 4994.6 5009.3 4985.1 5006.2 4994.6 5009.3 5004.1 5012.4 5013.6 5015.5 5023.2 5018.6 5013.6 5015.5 5004.1 5023.6 4998.3 5013.6 4998.3 5005.5 5004.1 4997.4 5010 4989.3 5015.9 4999.3 5015.9 5007.4 5010 5015.5 5015.9 5012.4 5006.4 5004.3 5000.5 4996.2 4994.6 4988.1 4988.7 4991.2 4998.3 4999.3 5004.1 4996.2 5013.6 5004.3 5007.8 5007.4 4998.3 5010.5 4988.7 5013.6 4979.2 5005.5 4985.1 5002.4 4994.6 4992.4 4994.6 5000.5 5000.5 5010.5 5000.5 5020.5 5000.5 5030.5 5000.5 5022.4 4994.6 5012.4 4994.6 5009.3 4985.1 5006.2 4994.6" clip-path="url(#a)" fill="none" stroke="#000" stroke-linecap="round"/>
<polyline points="5006.2 4994.6 5009.3 5004.1 5012.4 5013.6 5015.5 5023.2 5018.6 5013.6 5015.5 5004.1 5023.6 4998.3 5013.6 4998.3 5005.5 5004.1 4997.4 5010 4989.3 5015.9 4999.3 5015.9 5007.4 5010 5015.5 5015.9 5012.4 5006.4 5004.3 5000.5 4996.2 4994.6 4988.1 4988.7 4991.2 4998.3 4999.3 5004.1 4996.2 5013.6 5004.3 5007.8 5007.4 4998.3 5010.5 4988.7 5013.6 4979.2 5005.5 4985.1 5002.4 4994.6 4992.4 4994.6 5000.5 5000.5 5010.5 5000.5 5020.5 5000.5 5030.5 5000.5 5022.4 4994.6 5012.4 4994.6 5009.3 4985.1 5006.2 4994.6 5009.3 5004.1 5012.4 5013.6 5015.5 5023.2 5018.6 5013.6 5015.5 5004.1 5023.6 4998.3 5013.6 4998.3" clip-path="url(#a)" fill="none" stroke="#000" stroke-linecap="round"/>
<polyline points="5013.6 4998.3 5005.5 5004.1 4997.4 5010 4989.3 5015.9 4999.3 5015.9 5007.4 5010 5015.5 5015.9 5012.4 5006.4 5004.3 5000.5 4996.2 4994.6 4988.1 4988.7 4991.2 4998.3 4999.3 5004.1 4996.2 5013.6 5004.3 5007.8 5007.4 4998.3 5010.5 4988.7 5013.6 4979.2 5005.5 4985.1 5002.4 4994.6 4992.4 4994.6 5000.5 5000.5 5010.5 5000.5 5020.5 5000.5 5030.5 5000.5 5022.4 4994.6 5012.4 4994.6 5009.3 4985.1 5006.2 4994.6 5009.3 5004.1 5012.4 5013.6 5015.5 5023.2 5018.6 5013.6 5015.5 5004.1 5023.6 4998.3 5013.6 4998.3 5005.5 5004.1 4997.4 5010 4989.3 5015.9 4999.3 5015.9 5007.4 5010 5015.5 5015.9 5012.4 5006.4" clip-path="url(#a)" fill="none" stroke="#000" stroke-linecap="round"/>
<polyline points="5012.4 5006.4 5004.3 5000.5 4996.2 4994.6 4988.1 4988.7 4991.2 4998.3 4999.3 5004.1 4996.2 5013.6 5004.3 5007.8 5007.4 4998.3 5010.5 4988.7 5013.6 4979.2 5005.5 4985.1 5002.4 4994.6 4992.4 4994.6 5000.5 5000.5 5010.5 5000.5 5020.5 5000.5 5030.5 5000.5 5022.4 4994.6 5012.4 4994.6 5009.3 4985.1 5006.2 4994.6 5009.3 5004.1 5012.4 5013.6 5015.5 5023.2 5018.6 5013.6 5015.5 5004.1 5023.6 4998.3 5013.6 4998.3 5005.5 5004.1 4997.4 5010 4989.3 5015.9 4999.3 5015.9 5007.4 5010 5015.5 5015.9 5012.4 5006.4 5004.3 5000.5 4996.2 4994.6 4988.1 4988.7 4991.2 4998.3 4999.3 5004.1 4996.2 5013.6 5004.3 5007.8" clip-path="url(#a)" fill="none" stroke="#000" stroke-linecap="round"/>
<polyline points="5004.3 5007.8 5007.4 4998.3 5010.5 4988.7 5013.6 4979.2 5005.5 4985.1 5002.4 4994.6 4992.4 4994.6 5000.5 5000.5 5010.5 5000.5 5020.5 5000.5 5030.5 5000.5 5022.4 4994.6 5012.4 4994.6 5009.3 4985.1 5006.2 4994.6 5009.3 5004.1 5012.4 5013.6 5015.5 5023.2 5018.6 5013.6 5015.5 5004.1 5023.6 4998.3 5013.6 4998.3 5005.5 5004.1 4997.4 5010 4989.3 5015.9 4999.3 5015.9 5007.4 5010 5015.5 5015.9 5012.4 5006.4 5004.3 5000.5 4996.2 4994.6 4988.1 4988.7 4991.2 4998.3 4999.3 5004.1 4996.2 5013.6 5004.3 5007.8 5007.4 4998.3 5010.5 4988.7 5013.6 4979.2 5005.5 4985.1 5002.4 4994.6 4992.4 4994.6 5000.5 5000.5" clip-path="url(#a)" fill="none" stroke="#000" stroke-linecap="round"/>
<polyline points="5000.5 5000.5 5010.5 5000.5 5020.5 5000.5 5030.5 5000.5 5022.4 4994.6 5012.4 4994.6 5009.3 4985.1 5006.2 4994.6 5009.3 5004.1 5012.4 5013.6 5015.5 5023.2 5018.6 5013.6 5015.5 5004.1 5023.6 4998.3 5013.6 4998.3 5005.5 5004.1 4997.4 5010 4989.3 5015.9 4999.3 5015.9 5007.4 5010 5015.5 5015.9 5012.4 5006.4 5004.3 5000.5 4996.2 4994.6 4988.1 4988.7 4991.2 4998.3 4999.3 5004.1 4996.2 5013.6 5004.3 5007.8 5007.4 4998.3 5010.5 4988.7 5013.6 4979.2 5005.5 4985.1 5002.4 4994.6 4992.4 4994.6 5000.5 5000.5 5010.5 5000.5 5020.5 5000.5 5030.5 5000.5 5022.4 4994.6 5012.4 4994.6 5009.3 4985.1 5006.2 4994.6" clip-path="url(#a)" fill="none" stroke="#000" stroke-linecap="round"/>
<polyline points="5006.2 4994.6 5009.3 5004.1 5012.4 5013.6 5015.5 5023.2 5018.6 5013.6 5015.5 5004.1 5023.6 4998.3 5013.6 4998.3 5005.5 5004.1 4997.4 5010 4989.3 5015.9 4999.3 5015.9 5007.4 5010 5015.5 5015.9 5012.4 5006.4 5004.3 5000.5 4996.2 4994.6 4988.1 4988.7 4991.2 4998.3 4999.3 5004.1 4996.2 5013.6 5004.3 5007.8 5007.4 4998.3 5010.5 4988.7 5013.6 4979.2 5005.5 4985.1 5002.4 4994.6 4992.4 4994.6 5000.5 5000.5 5010.5 5000.5 5020.5 5000.5 5030.5 5000.5 5022.4 4994.6 5012.4 4994.6 5009.3 4985.1 5006.2 4994.6 5009.3 5004.1 5012.4 5013.6 5015.5 5023.2 5018.6 5013.6 5015.5 5004.1 5023.6 4998.3 5013.6 4998.3" clip-path="url(#a)" fill="none" stroke="#000" stroke-linecap="round"/>
<polyline points="5013.6 4998.3 5005.5 5004.1 4997.4 5010 4989.3 5015.9 4999.3 5015.9 5007.4 5010 5015.5 5015.9 5012.4 5006.4 5004.3 5000.5 4996.2 4994.6 4988.1 4988.7 4991.2 4998.3 4999.3 5004.1 4996.2 5013.6 5004.3 5007.8 5007.4 4998.3 5010.5 4988.7 5013.6 4979.2 5005.5 4985.1 5002.4 4994.6 4992.4 4994.6 5000.5 5000.5 5010.5 5000.5 5020.5 5000.5 5030.5 5000.5 5022.4 4994.6 5012.4 4994.6 5009.3 4985.1 5006.2 4994.6 5009.3 5004.1 5012.4 5013.6 5015.5 5023.2 5018.6 5013.6 5015.5 5004.1 5023.6 4998.3 5013.6 4998.3 5005.5 5004.1 4997.4 5010 4989.3 5015.9 4999.3 5015.9 5007.4 5010 5015.5 5015.9 5012.4 5006.4" clip-path="url(#a)" fill="none" stroke="#000" stroke-linecap="round"/>
<polyline points="5012.4 5006.4 5004.3 5000.5 4996.2 4994.6 4988.1 4988.7 4991.2 4998.3 4999.3 5004.1 4996.2 5013.6 5004.3 5007.8 5007.4 4998.3 5010.5 4988.7 5013.6 4979.2 5005.5 4985.1 5002.4 4994.6 4992.4 4994.6 5000.5 5000.5 5010.5 5000.5 5020.5 5000.5 5030.5 5000.5 5022.4 4994.6 5012.4 4994.6 5009.3 4985.1 5006.2 4994.6 5009.3 5004.1 5012.4 5013.6 5015.5 5023.2 5018.6 5013.6 5015.5 5004.1 5023.6 4998.3 5013.6 4998.3 5005.5 5004.1 4997.4 5010 4989.3 5015.9 4999.3 5015.9 5007.4 5010 5015.5 5015.9 5012.4 5006.4 5004.3 5000.5 4996.2 4994.6 4988.1 4988.7 4991.2 4998.3 4999.3 5004.1 4996.2 5013.6 5004.3 5007.8" clip-path="url(#a)" fill="none" stroke="#000" stroke-linecap="round"/>
<polyline points="5004.3 5007.8 5007.4 4998.3 5010.5 4988.7 5013.6 4979.2 5005.5 4985.1 5002.4 4994.6 4992.4 4994.6 5000.5 5000.5 5010.5 5000.5 5020.5 5000.5 5030.5 5000.5 5022.4 4994.6 5012.4 4994.6 5009.3 4985.1 5006.2 4994.6 5009.3 5004.1 5012.4 5013.6 5015.5 5023.2 5018.6 5013.6 5015.5 5004.1 5023.6 4998.3 5013.6 4998.3 5005.5 5004.1 4997.4 5010 4989.3 5015.9 4999.3 5015.9 5007.4 5010 5015.5 5015.9 5012.4 5006.4 5004.3 5000.5 4996.2 4994.6 4988.1 4988.7 4991.2 4998.3 4999.3 5004.1 4996.2 5013.6 5004.3 5007.8 5007.4 4998.3 5010.5 4988.7 5013.6 4979.2 5005.5 4985.1 5002.4 4994.6 4992.4 4994.6 5000.5 5000.5" clip-path="url(#a)" fill="none" stroke="#000" stroke-linecap="round"/>
<polyline points="5000.5 5000.5 5010.5 5000.5 5020.5 5000.5 5030.5 5000.5 5022.4 4994.6 5012.4 4994.6 5009.3 4985.1 5006.2 4994.6 5009.3 5004.1 5012.4 5013.6 5015.5 5023.2 5018.6 5013.6 5015.5 5004.1 5023.6 4998.3 5013.6 4998.3 5005.5 5004.1 4997.4 5010 4989.3 5015.9 4999.3 5015.9 5007.4 5010 5015.5 5015.9 5012.4 5006.4 5004.3 5000.5 4996.2 4994.6 4988.1 4988.7 4991.2 4998.3 4999.3 5004.1 4996.2 5013.6 5004.3 5007.8 5007.4 4998.3 5010.5 4988.7 5013.6 4979.2 5005.5 4985.1 5002.4 4994.6 4992.4 4994.6 5000.5 5000.5 5010.5 5000.5 5020.5 5000.5 5030.5 5000.5 5022.4 4994.6 5012.4 4994.6 5009.3 4985.1 5006.2 4994.6" clip-path="url(#a)" fill="none" stroke="#000" stroke-linecap="round"/>
<polyline points="5006.2 4994.6 5009.3 5004.1 5012.4 5013.6 5015.5 5023.2 5018.6 5013.6 5015.5 5004.1 5023.6 4998.3 5013.6 4998.3 5005.5 5004.1 4997.4 5010 4989.3 5015.9 4999.3 5015.9 5007.4 5010 5015.5 5015.9 5012.4 5006.4 5004.3 5000.5 4996.2 4994.6 4988.1 4988.7 4991.2 4998.3 4999.3 5004.1 4996.2 5013.6 5004.3 5007.8 5007.4 4998.3 5010.5 4988.7 5013.6 4979.2 5005.5 4985.1 5002.4 4994.6 4992.4 4994.6 5000.5 5000.5 5010.5 5000.5 5020.5 5000.5 5030.5 5000.5 5022.4 4994.6 5012.4 4994.6 5009.3 4985.1 5006.2 4994.6 5009.3 5004.1 5012.4 5013.6 5015.5 5023.2 5018.6 5013.6 5015.5 5004.1 5023.6 4998.3 5013.6 4998.3" clip-path="url(#a)" fill="none" stroke="#000" stroke-linecap="round"/>
<polyline points="5013.6 4998.3 5005.5 5004.1 4997.4 5010 4989.3 5015.9 4999.3 5015.9 5007.4 5010 5015.5 5015.9 5012.4 5006.4 5004.3 5000.5 4996.2 4994.6 4988.1 4988.7 4991.2 4998.3 4999.3 5004.1 4996.2 5013.6 5004.3 5007.8 5007.4 4998.3 5010.5 4988.7 5013.6 4979.2 5005.5 4985.1 5002.4 4994.6 4992.4 4994.6 5000.5 5000.5 5010.5 5000.5 5020.5 5000.5 5030.5 5000.5 5022.4 4994.6 5012.4 4994.6 5009.3 4985.1 5006.2 4994.6 5009.3 5004.1 5012.4 5013.6 5015.5 5023.2 5018.6 5013.6 5015.5 5004.1 5023.6 4998.3 5013.6 4998.3 5005.5 5004.1 4997.4 5010 4989.3 5015.9 4999.3 5015.9 5007.4 5010 5015.5 5015.9 5012.4 5006.4" clip-path="url(#a)" fill="none" stroke="#000" stroke-linecap="round"/>
<polyline points="5012.4 5006.4 5004.3 5000.5 4996.2 4994.6 4988.1 4988.7 4991.2 4998.3 4999.3 5004.1 4996.2 5013.6 5004.3 5007.8 5007.4 4998.3 5010.5 4988.7 5013.6 4979.2 5005.5 4985.1 5002.4 4994.6 4992.4 4994.6 5000.5 5000.5 5010.5 5000.5 5020.5 5000.5 5030.5 5000.5 5022.4 4994.6 5012.4 4994.6 5009.3 4985.1 5006.2 4994.6 5009.3 5004.1 5012.4 5013.6 5015.5 5023.2 5018.6 5013.6 5015.5 5004.1 5023.6 4998.3 5013.6 4998.3 5005.5 5004.1 4997.4 5010 4989.3 5015.9 4999.3 5015.9 5007.4 5010 5015.5 5015.9 5012.4 5006.4 5004.3 5000.5 4996.2 4994.6 4988.1 4988.7 4991.2 4998.3 4999.3 5004.1 4996.2 5013.6 5004.3 5007.8" clip-path="url(#a)" fill="none" stroke="#000" stroke-linecap="round"/>
<polyline points="5004.3 5007.8 5007.4 4998.3 5010.5 4988.7 5013.6 4979.2 5005.5 4985.1 5002.4 4994.6 4992.4 4994.6 5000.5 5000.5 5010.5 5000.5 5020.5 5000.5 5030.5 5000.5 5022.4 4994.6 5012.4 4994.6 5009.3 4985.1 5006.2 4994.6 5009.3 5004.1 5012.4 5013.6 5015.5 5023.2 5018.6 5013.6 5015.5 5004.1 5023.6 4998.3 5013.6 4998.3 5005.5 5004.1 4997.4 5010 4989.3 5015.9 4999.3 5015.9 5007.4 5010 5015.5 5015.9 5012.4 5006.4 5004.3 5000.5 4996.2 4994.6 4988.1 4988.7 4991.2 4998.3 4999.3 5004.1 4996.2 5013.6 5004.3 5007.8 5007.4 4998.3 5010.5 4988.7 5013.6 4979.2 5005.5 4985.1 5002.4 4994.6 4992.4 4994.6 5000.5 5000.5" clip-path="url(#a)" fill="none" stroke="#000" stroke-linecap="round"/>
<polyline points="5000.5 5000.5 5010.5 5000.5 5020.5 5000.5 5030.5 5000.5 5022.4 4994.6 5012.4 4994.6 5009.3 4985.1 5006.2 4994.6 5009.3 5004.1 5012.4 5013.6 5015.5 5023.2 5018.6 5013.6 5015.5 5004.1 5023.6 4998.3 5013.6 4998.3 5005.5 5004.1 4997.4 5010 4989.3 5015.9 4999.3 5015.9 5007.4 5010 5015.5 5015.9 5012.4 5006.4 5004.3 5000.5 4996.2 4994.6 4988.1 4988.7 4991.2 4998.3 4999.3 5004.1 4996.2 5013.6 5004.3 5007.8 5007.4 4998.3 5010.5 4988.7 5013.6 4979.2 5005.5 4985.1 5002.4 4994.6 4992.4 4994.6 5000.5 5000.5 5010.5 5000.5 5020.5 5000.5 5030.5 5000.5 5022.4 4994.6 5012.4 4994.6 5009.3 4985.1 5006.2 4994.6" clip-path="url(#a)" fill="none" stroke="#000" stroke-linecap="round"/>
<polyline points="5006.2 4994.6 5009.3 5004.1 5012.4 5013.6 5015.5 5023.2 5018.6 5013.6 5015.5 5004.1 5023.6 4998.3 5013.6 4998.3 5005.5 5004.1 4997.4 5010 4989.3 5015.9 4999.3 5015.9 5007.4 5010 5015.5 5015.9 5012.4 5006.4 5004.3 5000.5 4996.2 4994.6 4988.1 4988.7 4991.2 4998.3 4999.3 5004.1 4996.2 5013.6 5004.3 5007.8 5007.4 4998.3 5010.5 4988.7 5013.6 4979.2 5005.5 4985.1 5002.4 4994.6 4992.4 4994.6 5000.5 5000.5 5010.5 5000.5 5020.5 5000.5 5030.5 5000.5 5022.4 4994.6 5012.4 4994.6 5009.3 4985.1 5006.2 4994.6 5009.3 5004.1 5012.4 5013.6 5015.5 5023.2 5018.6 5013.6 5015.5 5004.1 5023.6 4998.3 5013.6 4998.3" clip-path="url(#a)" fill="none" stroke="#000" stroke-linecap="round"/>
<polyline points="5013.6 4998.3 5005.5 5004.1 4997.4 5010 4989.3 5015.9 4999.3 5015.9 5007.4 5010 5015.5 5015.9 5012.4 5006.4 5004.3 5000.5 4996.2 4994.6 4988.1 4988.7 4991.2 4998.3 4999.3 5004.1 4996.2 5013.6 5004.3 5007.8 5007.4 4998.3 5010.5 4988.7 5013.6 4979.2 5005.5 4985.1 5002.4 4994.6 4992.4 4994.6 5000.5 5000.5 5010.5 5000.5 5020.5 5000.5 5030.5 5000.5 5022.4 4994.6 5012.4 4994.6 5009.3 4985.1 5006.2 4994.6 5009.3 5004.1 5012.4 5013.6 5015.5 5023.2 5018.6 5013.6 5015.5 5004.1 5023.6 4998.3 5013.6 4998.3 5005.5 5004.1 4997.4 5010 4989.3 5015.9 4999.3 5015.9 5007.4 5010 5015.5 5015.9 5012.4 5006.4" clip-path="url(#a)" fill="none" stroke="#000" stroke-linecap="round"/>
<polyline points="5012.4 5006.4 5004.3 5000.5 4996.2 4994.6 4988.1 4988.7 4991.2 4998.3 4999.3 5004.1 4996.2 5013.6 5004.3 5007.8 5007.4 4998.3 5010.5 4988.7 5013.6 4979.2 5005.5 4985.1 5002.4 4994.6 4992.4 4994.6 5000.5 5000.5 5010.5 5000.5 5020.5 5000.5 5030.5 5000.5 5022.4 4994.6 5012.4 4994.6 5009.3 4985.1 5006.2 4994.6 5009.3 5004.1 5012.4 5013.6 5015.5 5023.2 5018.6 5013.6 5015.5 5004.1 5023.6 4998.3 5013.6 4998.3 5005.5 5004.1 4997.4 5010 4989.3 5015.9 4999.3 5015.9 5007.4 5010 5015.5 5015.9 5012.4 5006.4 5004.3 5000.5 4996.2 4994.6 4988.1 4988.7 4991.2 4998.3 4999.3 5004.1 4996.2 5013.6 5004.3 5007.8" clip-path="url(#a)" fill="none" stroke="#000" stroke-linecap="round"/>
<polyline points="5004.3 5007.8 5007.4 4998.3 5010.5 4988.7 5013.6 4979.2 5005.5 4985.1 5002.4 4994.6 4992.4 4994.6 5000.5 5000.5 5010.5 5000.5 5020.5 5000.5 5030.5 5000.5 5022.4 4994.6 5012.4 4994.6 5009.3 4985.1 5006.2 4994.6 5009.3 5004.1 5012.4 5013.6 5015.5 5023.2 5018.6 5013.6 5015.5 5004.1 5023.6 4998.3 5013.6 4998.3 5005.5 5004.1 4997.4 5010 4989.3 5015.9 4999.3 5015.9 5007.4 5010 5015.5 5015.9 5012.4 5006.4 5004.3 5000.5 4996.2 4994.6 4988.1 4988.7 4991.2 4998.3 4999.3 5004.1 4996.2 5013.6 5004.3 5007.8 5007.4 4998.3 5010.5 4988.7 5013.6 4979.2 5005.5 4985.1 5002.4 4994.6 4992.4 4994.6 5000.5 5000.5" clip-path="url(#a)" fill="none" stroke="#000" stroke-linecap="round"/>
<polyline points="5000.5 5000.5 5010.5 5000.5 5020.5 5000.5 5030.5 5000.5 5022.4 4994.6 5012.4 4994.6 5009.3 4985.1 5006.2 4994.6 5009.3 5004.1 5012.4 5013.6 5015.5 5023.2 5018.6 5013.6 5015.5 5004.1 5023.6 4998.3 5013.6 4998.3 5005.5 5004.1 4997.4 5010 4989.3 5015.9 4999.3 5015.9 5007.4 5010 5015.5 5015.9 5012.4 5006.4 5004.3 5000.5 4996.2 4994.6 4988.1 4988.7 4991.2 4998.3 4999.3 5004.1 4996.2 5013.6 5004.3 5007.8 5007.4 4998.3 5010.5 4988.7 5013.6 4979.2 5005.5 4985.1 5002.4 4994.6 4992.4 4994.6 5000.5 5000.5 5010.5 5000.5 5020.5 5000.5 5030.5 5000.5 5022.4 4994.6 5012.4 4994.6 5009.3 4985.1 5006.2 4994.6" clip-path="url(#a)" fill="none" stroke="#000" stroke-linecap="round"/>
<polyline points="5006.2 4994.6 5009.3 5004.1 5012.4 5013.6 5015.5 5023.2 5018.6 5013.6 5015.5 5004.1 5023.6 4998.3 5013.6 4998.3 5005.5 5004.1 4997.4 5010 4989.3 5015.9 4999.3 5015.9 5007.4 5010 5015.5 5015.9 5012.4 5006.4 5004.3 5000.5 4996.2 4994.6 4988.1 4988.7 4991.2 4998.3 4999.3 5004.1 4996.2 5013.6 5004.3 5007.8 5007.4 4998.3 5010.5 4988.7 5013.6 4979.2 5005.5 4985.1 5002.4 4994.6 4992.4 4994.6 5000.5 5000.5 5010.5 5000.5 5020.5 5000.5 5030.5 5000.5 5022.4 4994.6 5012.4 4994.6 5009.3 4985.1 5006.2 4994.6 5009.3 5004.1 5012.4 5013.6 5015.5 5023.2 5018.6 5013.6 5015.5 5004.1 5023.6 4998.3 5013.6 4998.3" clip-path="url(#a)" fill="none" stroke="#000" stroke-linecap="round"/>
<polyline points="5013.6 4998.3 5005.5 5004.1 4997.4 5010 4989.3 5015.9 4999.3 5015.9 5007.4 5010 5015.5 5015.9 5012.4 5006.4 5004.3 5000.5 4996.2 4994.6 4988.1 4988.7 4991.2 4998.3 4999.3 5004.1 4996.2 5013.6 5004.3 5007.8 5007.4 4998.3 5010.5 4988.7 5013.6 4979.2 5005.5 4985.1 5002.4 4994.6 4992.4 4994.6 5000.5 5000.5 5010.5 5000.5 5020.5 5000.5 5030.5 5000.5 5022.4 4994.6 5012.4 4994.6 5009.3 4985.1 5006.2 4994.6 5009.3 5004.1 5012.4 5013.6 5015.5 5023.2 5018.6 5013.6 5015.5 5004.1 5023.6 4998.3 5013.6 4998.3 5005.5 5004.1 4997.4 5010 4989.3 5015.9 4999.3 5015.9 5007.4 5010 5015.5 5015.9 5012.4 5006.4" clip-path="url(#a)" fill="none" stroke="#000" stroke-linecap="round"/>
<polyline points="5012.4 5006.4 5004.3 5000.5 4996.2 4994.6 4988.1 4988.7 4991.2 4998.3 4999.3 5004.1 4996.2 5013.6 5004.3 5007.8 5007.4 4998.3 5010.5 4988.7 5013.6 4979.2 5005.5 4985.1 5002.4 4994.6 4992.4 4994.6 5000.5 5000.5 5010.5 5000.5 5020.5 5000.5 5030.5 5000.5 5022.4 4994.6 5012.4 4994.6 5009.3 4985.1 5006.2 4994.6 5009.3 5004.1 5012.4 5013.6 5015.5 5023.2 5018.6 5013.6 5015.5 5004.1 5023.6 4998.3 5013.6 4998.3 5005.5 5004.1 4997.4 5010 4989.3 5015.9 4999.3 5015.9 5007.4 5010 5015.5 5015.9 5012.4 5006.4 5004.3 5000.5 4996.2 4994.6 4988.1 4988.7 4991.2 4998.3 4999.3 5004.1 4996.2 5013.6 5004.3 5007.8" clip-path="url(#a)" fill="none" stroke="#000" stroke-linecap="round"/>
<polyline points="5004.3 5007.8 5007.4 4998.3 5010.5 4988.7 5013.6 4979.2 5005.5 4985.1 5002.4 4994.6 4992.4 4994.6 5000.5 5000.5 5010.5 5000.5 5020.5 5000.5 5030.5 5000.5 5022.4 4994.6 5012.4 4994.6 5009.3 4985.1 5006.2 4994.6 5009.3 5004.1 5012.4 5013.6 5015.5 5023.2 5018.6 5013.6 5015.5 5004.1 5023.6 4998.3 5013.6 4998.3 5005.5 5004.1 4997.4 5010 4989.3 5015.9 4999.3 5015.9 5007.4 5010 5015.5 5015.9 5012.4 5006.4 5004.3 5000.5 4996.2 4994.6 4988.1 4988.7 4991.2 4998.3 4999.3 5004.1 4996.2 5013.6 5004.3 5007.8 5007.4 4998.3 5010.5 4988.7 5013.6 4979.2 5005.5 4985.1 5002.4 4994.6 4992.4 4994.6 5000.5 5000.5" clip-path="url(#a)" fill="none" stroke="#000" stroke-linecap="round"/>
<polyline points="5000.5 5000.5 5010.5 5000.5 5020.5 5000.5 5030.5 5000.5 5022.4 4994.6 5012.4 4994.6 5009.3 4985.1 5006.2 4994.6 5009.3 5004.1 5012.4 5013.6 5015.5 5023.2 5018.6 5013.6 5015.5 5004.1 5023.6 4998.3 5013.6 4998.3 5005.5 5004.1 4997.4 5010 4989.3 5015.9 4999.3 5015.9 5007.4 5010 5015.5 5015.9 5012.4 5006.4 5004.3 5000.5 4996.2 4994.6 4988.1 4988.7 4991.2 4998.3 4999.3 5004.1 4996.2 5013.6 5004.3 5007.8 5007.4 4998.3 5010.5 4988.7 5013.6 4979.2 5005.5 4985.1 5002.4 4994.6 4992.4 4994.6 5000.5 5000.5 5010.5 5000.5 5020.5 5000.5 5030.5 5000.5 5022.4 4994.6 5012.4 4994.6 5009.3 4985.1 5006.2 4994.6" clip-path="url(#a)" fill="none" stroke="#000" stroke-linecap="round"/>
<polyline points="5006.2 4994.6 5009.3 5004.1 5012.4 5013.6 5015.5 5023.2 5018.6 5013.6 5015.5 5004.1 5023.6 4998.3 5013.6 4998.3 5005.5 5004.1 4997.4 5010 4989.3 5015.9 4999.3 5015.9 5007.4 5010 5015.5 5015.9 5012.4 5006.4 5004.3 5000.5 4996.2 4994.6 4988.1 4988.7 4991.2 4998.3 4999.3 5004.1 4996.2 5013.6 5004.3 5007.8 5007.4 4998.3 5010.5 4988.7 5013.6 4979.2 5005.5 4985.1 5002.4 4994.6 4992.4 4994.6 5000.5 5000.5 5010.5 5000.5 5020.5 5000.5 5030.5 5000.5 5022.4 4994.6 5012.4 4994.6 5009.3 4985.1 5006.2 4994.6 5009.3 5004.1 5012.4 5013.6 5015.5 5023.2 5018.6 5013.6 5015.5 5004.1 5023.6 4998.3 5013.6 4998.3" clip-path="url(#a)" fill="none" stroke="#000" stroke-linecap="round"/>
<polyline points="5013.6 4998.3 5005.5 5004.1 4997.4 5010 4989.3 5015.9 4999.3 5015.9 5007.4 5010 5015.5 5015.9 5012.4 5006.4 5004.3 5000.5 4996.2 4994.6 4988.1 4988.7 4991.2 4998.3 4999.3 5004.1 4996.2 5013.6 5004.3 5007.8 5007.4 4998.3 5010.5 4988.7 5013.6 4979.2 5005.5 4985.1 5002.4 4994.6 4992.4 4994.6 5000.5 5000.5 5010.5 5000.5 5020.5 5000.5 5030.5 5000.5 5022.4 4994.6 5012.4 4994.6 5009.3 4985.1 5006.2 4994.6 5009.3 5004.1 5012.4 5013.6 5015.5 5023.2 5018.6 5013.6 5015.5 5004.1 5023.6 4998.3 5013.6 4998.3 5005.5 5004.1 4997.4 5010 4989.3 5015.9 4999.3 5015.9 5007.4 5010 5015.5 5015.9 5012.4 5006.4" clip-path="url(#a)" fill="none" stroke="#000" stroke-linecap="round"/>
<polyline points="5012.4 5006.4 5004.3 5000.5 4996.2 4994.6 4988.1 4988.7 4991.2 4998.3 4999.3 5004.1 4996.2 5013.6 5004.3 5007.8 5007.4 4998.3 5010.5 4988.7 5013.6 4979.2 5005.5 4985.1 5002.4 4994.6 4992.4 4994.6 5000.5 5000.5 5010.5 5000.5 5020.5 5000.5 5030.5 5000.5 5022.4 4994.6 5012.4 4994.6 5009.3 4985.1 5006.2 4994.6 5009.3 5004.1 5012.4 5013.6 5015.5 5023.2 5018.6 5013.6 5015.5 5004.1 5023.6 4998.3 5013.6 4998.3 5005.5 5004.1 4997.4 5010 4989.3 5015.9 4999.3 5015.9 5007.4 5010 5015.5 5015.9 5012.4 5006.4 5004.3 5000.5 4996.2 4994.6 4988.1 4988.7 4991.2 4998.3 4999.3 5004.1 4996.2 5013.6 5004.3 5007.8" clip-path="url(#a)" fill="none" stroke="#000" stroke-linecap="round"/>
<polyline points="5004.3 5007.8 5007.4 4998.3 5010.5 4988.7 5013.6 4979.2 5005.5 4985.1 5002.4 4994.6 4992.4 4994.6 5000.5 5000.5 5010.5 5000.5 5020.5 5000.5 5030.5 5000.5 5022.4 4994.6 5012.4 4994.6 5009.3 4985.1 5006.2 4994.6 5009.3 5004.1 5012.4 5013.6 5015.5 5023.2 5018.6 5013.6 5015.5 5004.1 5023.6 4998.3 5013.6 4998.3 5005.5 5004.1 4997.4 5010 4989.3 5015.9 4999.3 5015.9 5007.4 5010 5015.5 5015.9 5012.4 5006.4 5004.3 5000.5 4996.2 4994.6 4988.1 4988.7 4991.2 4998.3 4999.3 5004.1 4996.2 5013.6 5004.3 5007.8 5007.4 4998.3 5010.5 4988.7 5013.6 4979.2 5005.5 4985.1 5002.4 4994.6 4992.4 4994.6 5000.5 5000.5" clip-path="url(#a)" fill="none" stroke="#000" stroke-linecap="round"/>
<polyline points="5000.5 5000.5 5010.5 5000.5 5020.5 5000.5 5030.5 5000.5 5022.4 4994.6 5012.4 4994.6 5009.3 4985.1 5006.2 4994.6 5009.3 5004.1 5012.4 5013.6 5015.5 5023.2 5018.6 5013.6 5015.5 5004.1 5023.6 4998.3 5013.6 4998.3 5005.5 5004.1 4997.4 5010 4989.3 5015.9 4999.3 5015.9 5007.4 5010 5015.5 5015.9 5012.4 5006.4 5004.3 5000.5 4996.2 4994.6 4988.1 4988.7 4991.2 4998.3 4999.3 5004.1 4996.2 5013.6 5004.3 5007.8 5007.4 4998.3 5010.5 4988.7 5013.6 4979.2 5005.5 4985.1 5002.4 4994.6 4992.4 4994.6 5000.5 5000.5 5010.5 5000.5 5020.5 5000.5 5030.5 5000.5 5022.4 4994.6 5012.4 4994.6 5009.3 4985.1 5006.2 4994.6" clip-path="url(#a)" fill="none" stroke="#000" stroke-linecap="round"/>
<polyline points="5006.2 4994.6 5009.3 5004.1 5012.4 5013.6 5015.5 5023.2 5018.6 5013.6 5015.5 5004.1 5023.6 4998.3 5013.6 4998.3 5005.5 5004.1 4997.4 5010 4989.3 5015.9 4999.3 5015.9 5007.4 5010 5015.5 5015.9 5012.4 5006.4 5004.3 5000.5 4996.2 4994.6 4988.1 4988.7 4991.2 4998.3 4999.3 5004.1 4996.2 5013.6 5004.3 5007.8 5007.4 4998.3 5010.5 4988.7 5013.6 4979.2 5005.5 4985.1 5002.4 4994.6 4992.4 4994.6 5000.5 5000.5 5010.5 5000.5 5020.5 5000.5 5030.5 5000.5 5022.4 4994.6 5012.4 4994.6 5009.3 4985.1 5006.2 4994.6 5009.3 5004.1 5012.4 5013.6 5015.5 5023.2 5018.6 5013.6 5015.5 5004.1 5023.6 4998.3 5013.6 4998.3" clip-path="url(#a)" fill="none" stroke="#000" stroke-linecap="round"/>
<polyline points="5013.6 4998.3 5005.5 5004.1 4997.4 5010 4989.3 5015.9 4999.3 5015.9 5007.4 5010 5015.5 5015.9 5012.4 5006.4 5004.3 5000.5 4996.2 4994.6 4988.1 4988.7 4991.2 4998.3 4999.3 5004.1 4996.2 5013.6 5004.3 5007.8 5007.4 4998.3 5010.5 4988.7 5013.6 4979.2 5005.5 4985.1 5002.4 4994.6 4992.4 4994.6 5000.5 5000.5 5010.5 5000.5 5020.5 5000.5 5030.5 5000.5 5022.4 4994.6 5012.4 4994.6 5009.3 4985.1 5006.2 4994.6 5009.3 5004.1 5012.4 5013.6 5015.5 5023.2 5018.6 5013.6 5015.5 5004.1 5023.6 4998.3 5013.6 4998.3 5005.5 5004.1 4997.4 5010 4989.3 5015.9 4999.3 5015.9 5007.4 5010 5015.5 5015.9 5012.4 5006.4" clip-path="url(#a)" fill="none" stroke="#000" stroke-linecap="round"/>
<polyline points="5012.4 5006.4 5004.3 5000.5 4996.2 4994.6 4988.1 4988.7 4991.2 4998.3 4999.3 5004.1 4996.2 5013.6 5004.3 5007.8 5007.4 4998.3 5010.5 4988.7 5013.6 4979.2 5005.5 4985.1 5002.4 4994.6 4992.4 4994.6 5000.5 5000.5 5010.5 5000.5 5020.5 5000.5 5030.5 5000.5 5022.4 4994.6 5012.4 4994.6 5009.3 4985.1 5006.2 4994.6 5009.3 5004.1 5012.4 5013.6 5015.5 5023.2 5018.6 5013.6 5015.5 5004.1 5023.6 4998.3 5013.6 4998.3 5005.5 5004.1 4997.4 5010 4989.3 5015.9 4999.3 5015.9 5007.4 5010 5015.5 5015.9 5012.4 5006.4 5004.3 5000.5 4996.2 4994.6 4988.1 4988.7 4991.2 4998.3 4999.3 5004.1 4996.2 5013.6 5004.3 5007.8" clip-path="url(#a)" fill="none" stroke="#000" stroke-linecap="round"/>
<polyline points="5004.3 5007.8 5007.4 4998.3 5010.5 4988.7 5013.6 4979.2 5005.5 4985.1 5002.4 4994.6 4992.4 4994.6 5000.5 5000.5 5010.5 5000.5 5020.5 5000.5 5030.5 5000.5 5022.4 4994.6 5012.4 4994.6 5009.3 4985.1 5006.2 4994.6 5009.3 5004.1 5012.4 5013.6 5015.5 5023.2 5018.6 5013.6 5015.5 5004.1 5023.6 4998.3 5013.6 4998.3 5005.5 5004.1 4997.4 5010 4989.3 5015.9 4999.3 5015.9 5007.4 5010 5015.5 5015.9 5012.4 5006.4 5004.3 5000.5 4996.2 4994.6 4988.1 4988.7 4991.2 4998.3 4999.3 5004.1 4996.2 5013.6 5004.3 5007.8 5007.4 4998.3 5010.5 4988.7 5013.6 4979.2 5005.5 4985.1 5002.4 4994.6 4992.4 4994.6 5000.5 5000.5" clip-path="url(#a)" fill="none" stroke="#000" stroke-linecap="round"/>
<polyline points="5000.5 5000.5 5010.5 5000.5 5020.5 5000.5 5030.5 5000.5 5022.4 4994.6 5012.4 4994.6 5009.3 4985.1 5006.2 4994.6 5009.3 5004.1 5012.4 5013.6 5015.5 5023.2 5018.6 5013.6 5015.5 5004.1 5023.6 4998.3 5013.6 4998.3 5005.5 5004.1 4997.4 5010 4989.3 5015.9 4999.3 5015.9 5007.4 5010 5015.5 5015.9 5012.4 5006.4 5004.3 5000.5 4996.2 4994.6 4988.1 4988.7 4991.2 4998.3 4999.3 5004.1 4996.2 5013.6 5004.3 5007.8 5007.4 4998.3 5010.5 4988.7 5013.6 4979.2 5005.5 4985.1 5002.4 4994.6 4992.4 4994.6 5000.5 5000.5 5010.5 5000.5 5020.5 5000.5 5030.5 5000.5 5022.4 4994.6 5012.4 4994.6 5009.3 4985.1 5006.2 4994.6" clip-path="url(#a)" fill="none" stroke="#000" stroke-linecap="round"/>
<polyline points="5006.2 4994.6 5009.3 5004.1 5012.4 5013.6 5015.5 5023.2 5018.6 5013.6 5015.5 5004.1 5023.6 4998.3 5013.6 4998.3 5005.5 5004.1 4997.4 5010 4989.3 5015.9 4999.3 5015.9 5007.4 5010 5015.5 5015.9 5012.4 5006.4 5004.3 5000.5 4996.2 4994.6 4988.1 4988.7 4991.2 4998.3 4999.3 5004.1 4996.2 5013.6 5004.3 5007.8 5007.4 4998.3 5010.5 4988.7 5013.6 4979.2 5005.5 4985.1 5002.4 4994.6 4992.4 4994.6 5000.5 5000.5 5010.5 5000.5 5020.5 5000.5 5030.5 5000.5 5022.4 4994.6 5012.4 4994.6 5009.3 4985.1 5006.2 4994.6 5009.3 5004.1 5012.4 5013.6 5015.5 5023.2 5018.6 5013.6 5015.5 5004.1 5023.6 4998.3 5013.6 4998.3" clip-path="url(#a)" fill="none" stroke="#000" stroke-linecap="round"/>
<polyline points="5013.6 4998.3 5005.5 5004.1 4997.4 5010 4989.3 5015.9 4999.3 5015.9 5007.4 5010 5015.5 5015.9 5012.4 5006.4 5004.3 5000.5 4996.2 4994.6 4988.1 4988.7 4991.2 4998.3 4999.3 5004.1 4996.2 5013.6 5004.3 5007.8 5007.4 4998.3 5010.5 4988.7 5013.6 4979.2 5005.5 4985.1 5002.4 4994.6 4992.4 4994.6 5000.5 5000.5 5010.5 5000.5 5020.5 5000.5 5030.5 5000.5 5022.4 4994.6 5012.4 4994.6 5009.3 4985.1 5006.2 4994.6 5009.3 5004.1 5012.4 5013.6 5015.5 5023.2 5018.6 5013.6 5015.5 5004.1 5023.6 4998.3 5013.6 4998.3 5005.5 5004.1 4997.4 5010 4989.3 5015.9 4999.3 5015.9 5007.4 5010 5015.5 5015.9 5012.4 5006.4" clip-path="url(#a)" fill="none" stroke="#000" stroke-linecap="round"/>
<polyline points="5012.4 5006.4 5004.3 5000.5 4996.2 4994.6 4988.1 4988.7 4991.2 4998.3 4999.3 5004.1 4996.2 5013.6 5004.3 5007.8 5007.4 4998.3 5010.5 4988.7 5013.6 4979.2 5005.5 4985.1 5002.4 4994.6 4992.4 4994.6 5000.5 5000.5 5010.5 5000.5 5020.5 5000.5 5030.5 5000.5 5022.4 4994.6 5012.4 4994.6 5009.3 4985.1 5006.2 4994.6 5009.3 5004.1 5012.4 5013.6 5015.5 5023.2 5018.6 5013.6 5015.5 5004.1 5023.6 4998.3 5013.6 4998.3 5005.5 5004.1 4997.4 5010 4989.3 5015.9 4999.3 5015.9 5007.4 5010 5015.5 5015.9 5012.4 5006.4 5004.3 5000.5 4996.2 4994.6 4988.1 4988.7 4991.2 4998.3 4999.3 5004.1 4996.2 5013.6 5004.3 5007.8" clip-path="url(#a)" fill="none" stroke="#000" stroke-linecap="round"/>
<polyline points="5004.3 5007.8 5007.4 4998.3 5010.5 4988.7 5013.6 4979.2 5005.5 4985.1 5002.4 4994.6 4992.4 4994.6 5000.5 5000.5 5010.5 5000.5 5020.5 5000.5 5030.5 5000.5 5022.4 4994.6 5012.4 4994.6 5009.3 4985.1 5006.2 4994.6 5009.3 5004.1 5012.4 5013.6 5015.5 5023.2 5018.6 5013.6 5015.5 5004.1 5023.6 4998.3 5013.6 4998.3 5005.5 5004.1 4997.4 5010 4989.3 5015.9 4999.3 5015.9 5007.4 5010 5015.5 5015.9 5012.4 5006.4 5004.3 5000.5 4996.2 4994.6 4988.1 4988.7 4991.2 4998.3 4999.3 5004.1 4996.2 5013.6 5004.3 5007.8 5007.4 4998.3 5010.5 4988.7 5013.6 4979.2 5005.5 4985.1 5002.4 4994.6 4992.4 4994.6 5000.5 5000.5" clip-path="url(#a)" fill="none" stroke="#000" stroke-linecap="round"/>
<polyline points="5000.5 5000.5 5010.5 5000.5 5020.5 5000.5 5030.5 5000.5 5022.4 4994.6 5012.4 4994.6 5009.3 4985.1 5006.2 4994.6 5009.3 5004.1 5012.4 5013.6 5015.5 5023.2 5018.6 5013.6 5015.5 5004.1 5023.6 4998.3 5013.6 4998.3 5005.5 5004.1 4997.4 5010 4989.3 5015.9 4999.3 5015.9 5007.4 5010 5015.5 5015.9 5012.4 5006.4 5004.3 5000.5 4996.2 4994.6 4988.1 4988.7 4991.2 4998.3 4999.3 5004.1 4996.2 5013.6 5004.3 5007.8 5007.4 4998.3 5010.5 4988.7 5013.6 4979.2 5005.5 4985.1 5002.4 4994.6 4992.4 4994.6 5000.5 5000.5 5010.5 5000.5 5020.5 5000.5 5030.5 5000.5 5022.4 4994.6 5012.4 4994.6 5009.3 4985.1 5006.2 4994.6" clip-path="url(#a)" fill="none" stroke="#000" stroke-linecap="round"/>
<polyline points="5006.2 4994.6 5009.3 5004.1 5012.4 5013.6 5015.5 5023.2 5018.6 5013.6 5015.5 5004.1 5023.6 4998.3 5013.6 4998.3 5005.5 5004.1 4997.4 5010 4989.3 5015.9 4999.3 5015.9 5007.4 5010 5015.5 5015.9 5012.4 5006.4 5004.3 5000.5 4996.2 4994.6 4988.1 4988.7 4991.2 4998.3 4999.3 5004.1 4996.2 5013.6 5004.3 5007.8 5007.4 4998.3 5010.5 4988.7 5013.6 4979.2 5005.5 4985.1 5002.4 4994.6 4992.4 4994.6 5000.5 5000.5 5010.5 5000.5 5020.5 5000.5 5030.5 5000.5 5022.4 4994.6 5012.4 4994.6 5009.3 4985.1 5006.2 4994.6 5009.3 5004.1 5012.4 5013.6 5015.5 5023.2 5018.6 5013.6 5015.5 5004.1 5023.6 4998.3 5013.6 4998.3" clip-path="url(#a)" fill="none" stroke="#000" stroke-linecap="round"/>
<polyline points="5013.6 4998.3 5005.5 5004.1 4997.4 5010 4989.3 5015.9 4999.3 5015.9 5007.4 5010 5015.5 5015.9 5012.4 5006.4 5004.3 5000.5 4996.2 4994.6 4988.1 4988.7 4991.2 4998.3 4999.3 5004.1 4996.2 5013.6 5004.3 5007.8 5007.4 4998.3 5010.5 4988.7 5013.6 4979.2 5005.5 4985.1 5002.4 4994.6 4992.4 4994.6 5000.5 5000.5 5010.5 5000.5 5020.5 5000.5 5030.5 5000.5 5022.4 4994.6 5012.4 4994.6 5009.3 4985.1 5006.2 4994.6 5009.3 5004.1 5012.4 5013.6 5015.5 5023.2 5018.6 5013.6 5015.5 5004.1 5023.6 4998.3 5013.6 4998.3 5005.5 5004.1 4997.4 5010 4989.3 5015.9 4999.3 5015.9 5007.4 5010 5015.5 5015.9 5012.4 5006.4" clip-path="url(#a)" fill="none" stroke="#000" stroke-linecap="round"/>
<polyline points="5012.4 5006.4 5004.3 5000.5 4996.2 4994.6 4988.1 4988.7 4991.2 4998.3 4999.3 5004.1 4996.2 5013.6 5004.3 5007.8 5007.4 4998.3 5010.5 4988.7 5013.6 4979.2 5005.5 4985.1 5002.4 4994.6 4992.4 4994.6 5000.5 5000.5 5010.5 5000.5 5020.5 5000.5 5030.5 5000.5 5022.4 4994.6 5012.4 4994.6 5009.3 4985.1 5006.2 4994.6 5009.3 5004.1 5012.4 5013.6 5015.5 5023.2 5018.6 5013.6 5015.5 5004.1 5023.6 4998.3 5013.6 4998.3 5005.5 5004.1 4997.4 5010 4989.3 5015.9 4999.3 5015.9 5007.4 5010 5015.5 5015.9 5012.4 5006.4 5004.3 5000.5 4996.2 4994.6 4988.1 4988.7 4991.2 4998.3 4999.3 5004.1 4996.2 5013.6 5004.3 5007.8" clip-path="url(#a)" fill="none" stroke="#000" stroke-linecap="round"/>
<polyline points="5004.3 5007.8 5007.4 4998.3 5010.5 4988.7 5013.6 4979.2 5005.5 4985.1 5002.4 4994.6 4992.4 4994.6 5000.5 5000.5 5010.5 5000.5 5020.5 5000.5 5030.5 5000.5 5022.4 4994.6 5012.4 4994.6 5009.3 4985.1 5006.2 4994.6 5009.3 5004.1 5012.4 5013.6 5015.5 5023.2 5018.6 5013.6 5015.5 5004.1 5023.6 4998.3 5013.6 4998.3 5005.5 5004.1 4997.4 5010 4989.3 5015.9 4999.3 5015.9 5007.4 5010 5015.5 5015.9 5012.4 5006.4 5004.3 5000.5 4996.2 4994.6 4988.1 4988.7 4991.2 4998.3 4999.3 5004.1 4996.2 5013.6 5004.3 5007.8 5007.4 4998.3 5010.5 4988.7 5013.6 4979.2 5005.5 4985.1 5002.4 4994.6 4992.4 4994.6 5000.5 5000.5" clip-path="url(#a)" fill="none" stroke="#000" stroke-linecap="round"/>
<polyline points="5000.5 5000.5 5010.5 5000.5 5020.5 5000.5 5030.5 5000.5 5022.4 4994.6 5012.4 4994.6 5009.3 4985.1 5006.2 4994.6 5009.3 5004.1 5012.4 5013.6 5015.5 5023.2 5018.6 5013.6 5015.5 5004.1 5023.6 4998.3 5013.6 4998.3 5005.5 5004.1 4997.4 5010 4989.3 5015.9 4999.3 5015.9 5007.4 5010 5015.5 5015.9 5012.4 5006.4 5004.3 5000.5 4996.2 4994.6 4988.1 4988.7 4991.2 4998.3 4999.3 5004.1 4996.2 5013.6 5004.3 5007.8 5007.4 4998.3 5010.5 4988.7 5013.6 4979.2 5005.5 4985.1 5002.4 4994.6 4992.4 4994.6 5000.5 5000.5 5010.5 5000.5 5020.5 5000.5 5030.5 5000.5 5022.4 4994.6 5012.4 4994.6 5009.3 4985.1 5006.2 4994.6" clip-path="url(#a)" fill="none" stroke="#000" stroke-linecap="round"/>
<polyline points="5006.2 4994.6 5009.3 5004.1 5012.4 5013.6 5015.5 5023.2 5018.6 5013.6 5015.5 5004.1 5023.6 4998.3 5013.6 4998.3 5005.5 5004.1 4997.4 5010 4989.3 5015.9 4999.3 5015.9 5007.4 5010 5015.5 5015.9 5012.4 5006.4 5004.3 5000.5 4996.2 4994.6 4988.1 4988.7 4991.2 4998.3 4999.3 5004.1 4996.2 5013.6 5004.3 5007.8 5007.4 4998.3 5010.5 4988.7 5013.6 4979.2 5005.5 4985.1 5002.4 4994.6 4992.4 4994.6 5000.5 5000.5 5010.5 5000.5 5020.5 5000.5 5030.5 5000.5 5022.4 4994.6 5012.4 4994.6 5009.3 4985.1 5006.2 4994.6 5009.3 5004.1 5012.4 5013.6 5015.5 5023.2 5018.6 5013.6 5015.5 5004.1 5023.6 4998.3 5013.6 4998.3" clip-path="url(#a)" fill="none" stroke="#000" stroke-linecap="round"/>
<polyline points="5013.6 4998.3 5005.5 5004.1 4997.4 5010 4989.3 5015.9 4999.3 5015.9 5007.4 5010 5015.5 5015.9 5012.4 5006.4 5004.3 5000.5 4996.2 4994.6 4988.1 4988.7 4991.2 4998.3 4999.3 5004.1 4996.2 5013.6 5004.3 5007.8 5007.4 4998.3 5010.5 4988.7 5013.6 4979.2 5005.5 4985.1 5002.4 4994.6 4992.4 4994.6 5000.5 5000.5 5010.5 5000.5 5020.5 5000.5 5030.5 5000.5 5022.4 4994.6 5012.4 4994.6 5009.3 4985.1 5006.2 4994.6 5009.3 5004.1 5012.4 5013.6 5015.5 5023.2 5018.6 5013.6 5015.5 5004.1 5023.6 4998.3 5013.6 4998.3 5005.5 5004.1 4997.4 5010 4989.3 5015.9 4999.3 5015.9 5007.4 5010 5015.5 5015.9 5012.4 5006.4" clip-path="url(#a)" fill="none" stroke="#000" stroke-linecap="round"/>
<polyline points="5012.4 5006.4 5004.3 5000.5 4996.2 4994.6 4988.1 4988.7 4991.2 4998.3 4999.3 5004.1 4996.2 5013.6 5004.3 5007.8 5007.4 4998.3 5010.5 4988.7 5013.6 4979.2 5005.5 4985.1 5002.4 4994.6 4992.4 4994.6 5000.5 5000.5 5010.5 5000.5 5020.5 5000.5 5030.5 5000.5 5022.4 4994.6 5012.4 4994.6 5009.3 4985.1 5006.2 4994.6 5009.3 5004.1 5012.4 5013.6 5015.5 5023.2 5018.6 5013.6 5015.5 5004.1 5023.6 4998.3 5013.6 4998.3 5005.5 5004.1 4997.4 5010 4989.3 5015.9 4999.3 5015.9 5007.4 5010 5015.5 5015.9 5012.4 5006.4 5004.3 5000.5 4996.2 4994.6 4988.1 4988.7 4991.2 4998.3 4999.3 5004.1 4996.2 5013.6 5004.3 5007.8" clip-path="url(#a)" fill="none" stroke="#000" stroke-linecap="round"/>
<polyline points="5004.3 5007.8 5007.4 4998.3 5010.5 4988.7 5013.6 4979.2 5005.5 4985.1 5002.4 4994.6 4992.4 4994.6 5000.5 5000.5 5010.5 5000.5 5020.5 5000.5 5030.5 5000.5 5022.4 4994.6 5012.4 4994.6 5009.3 4985.1 5006.2 4994.6 5009.3 5004.1 5012.4 5013.6 5015.5 5023.2 5018.6 5013.6 5015.5 5004.1 5023.6 4998.3 5013.6 4998.3 5005.5 5004.1 4997.4 5010 4989.3 5015.9 4999.3 5015.9 5007.4 5010 5015.5 5015.9 5012.4 5006.4 5004.3 5000.5 4996.2 4994.6 4988.1 4988.7 4991.2 4998.3 4999.3 5004.1 4996.2 5013.6 5004.3 5007.8 5007.4 4998.3 5010.5 4988.7 5013.6 4979.2 5005.5 4985.1 5002.4 4994.6 4992.4 4994.6 5000.5 5000.5" clip-path="url(#a)" fill="none" stroke="#000" stroke-linecap="round"/>
<polyline points="5000.5 5000.5 5010.5 5000.5 5020.5 5000.5 5030.5 5000.5 5022.4 4994.6 5012.4 4994.6 5009.3 4985.1 5006.2 4994.6 5009.3 5004.1 5012.4 5013.6 5015.5 5023.2 5018.6 5013.6 5015.5 5004.1 5023.6 4998.3 5013.6 4998.3 5005.5 5004.1 4997.4 5010 4989.3 5015.9 4999.3 5015.9 5007.4 5010 5015.5 5015.9 5012.4 5006.4 5004.3 5000.5 4996.2 4994.6 4988.1 4988.7 4991.2 4998.3 4999.3 5004.1 4996.2 5013.6 5004.3 5007.8 5007.4 4998.3 5010.5 4988.7 5013.6 4979.2 5005.5 4985.1 5002.4 4994.6 4992.4 4994.6 5000.5 5000.5 5010.5 5000.5 5020.5 5000.5 5030.5 5000.5 5022.4 4994.6 5012.4 4994.6 5009.3 4985.1 5006.2 4994.6" clip-path="url(#a)" fill="none" stroke="#000" stroke-linecap="round"/>
<polyline points="5006.2 4994.6 5009.3 5004.1 5012.4 5013.6 5015.5 5023.2 5018.6 5013.6 5015.5 5004.1 5023.6 4998.3 5013.6 4998.3 5005.5 5004.1 4997.4 5010 4989.3 5015.9 4999.3 5015.9 5007.4 5010 5015.5 5015.9 5012.4 5006.4 5004.3 5000.5 4996.2 4994.6 4988.1 4988.7 4991.2 4998.3 4999.3 5004.1 4996.2 5013.6 5004.3 5007.8 5007.4 4998.3 5010.5 4988.7 5013.6 4979.2 5005.5 4985.1 5002.4 4994.6 4992.4 4994.6 5000.5 5000.5 5010.5 5000.5 5020.5 5000.5 5030.5 5000.5 5022.4 4994.6 5012.4 4994.6 5009.3 4985.1 5006.2 4994.6 5009.3 5004.1 5012.4 5013.6 5015.5 5023.2 5018.6 5013.6 5015.5 5004.1 5023.6 4998.3 5013.6 4998.3" clip-path="url(#a)" fill="none" stroke="#000" stroke-linecap="round"/>
<polyline points="5013.6 4998.3 5005.5 5004.1 4997.4 5010 4989.3 5015.9 4999.3 5015.9 5007.4 5010 5015.5 5015.9 5012.4 5006.4 5004.3 5000.5 4996.2 4994.6 4988.1 4988.7 4991.2 4998.3 4999.3 5004.1 4996.2 5013.6 5004.3 5007.8 5007.4 4998.3 5010.5 4988.7 5013.6 4979.2 5005.5 4985.1 5002.4 4994.6 4992.4 4994.6 5000.5 5000.5 5010.5 5000.5 5020.5 5000.5 5030.5 5000.5 5022.4 4994.6 5012.4 4994.6 5009.3 4985.1 5006.2 4994.6 5009.3 5004.1 5012.4 5013.6 5015.5 5023.2 5018.6 5013.6 5015.5 5004.1 5023.6 4998.3 5013.6 4998.3 5005.5 5004.1 4997.4 5010 4989.3 5015.9 4999.3 5015.9 5007.4 5010 5015.5 5015.9 5012.4 5006.4" clip-path="url(#a)" fill="none" stroke="#000" stroke-linecap="round"/>
<polyline points="5012.4 5006.4 5004.3 5000.5 4996.2 4994.6 4988.1 4988.7 4991.2 4998.3 4999.3 5004.1 4996.2 5013.6 5004.3 5007.8 5007.4 4998.3 5010.5 4988.7 5013.6 4979.2 5005.5 4985.1 5002.4 4994.6 4992.4 4994.6 5000.5 5000.5" clip-path="url(#a)" fill="none" stroke="#000" stroke-linecap="round"/>
</svg>
