<?xml version="1.0" encoding="UTF-8"?>
<svg width="1e4px" height="1e4px" baseProfile="full" version="1.1" viewBox="4642.6 4697.2 467.15 465.29" xmlns="http://www.w3.org/2000/svg">
<defs>
<clipPath id="a">
<rect width="1e4" height="1e4"/>
</clipPath>
</defs>
<polyline points="5000.5 5000.5 5010.5 5000.5 5020.5 5000.5 5030.5 5000.5 5027.4 4991 5035.5 4985.1 5045.5 4985.1 5053.6 4979.2 5061.7 4973.4 5053.6 4979.2 5045.5 4985.1 5053.6 4979.2 5061.7 4985.1 5064.8 4975.6 5067.9 4985.1 5064.8 4975.6 5074.8 4975.6 5064.8 4975.6 5061.7 4966.1 5071.7 4966.1 5061.7 4966.1 5069.8 4972 5066.7 4981.5 5063.6 4972 5055.5 4977.8 5047.4 4972 5037.4 4972 5040.5 4981.5 5050.5 4981.5 5053.6 4972 5061.7 4966.1 5053.6 4972 5050.5 4962.5 5042.4 4956.6 5039.3 4947.1 5047.4 4941.2 5037.4 4941.2 5045.5 4947.1 5048.6 4937.6 5045.5 4947.1 5037.4 4941.2 5034.3 4931.7 5044.3 4931.7" clip-path="url(#a)" fill="none" stroke="#000" stroke-linecap="round"/>
<polyline points="5044.3 4931.7 5036.2 4937.6 5039.3 4928 5036.2 4937.6 5046.2 4937.6 5038.1 4943.4 5028.1 4943.4 5036.2 4937.6 5026.2 4937.6 5018.1 4931.7 5021.2 4922.2 5024.3 4912.7 5021.2 4922.2 5029.3 4916.3 5019.3 4916.3 5022.4 4906.8 5014.3 4912.7 5011.2 4903.1 5008.1 4893.6 5016.2 4887.8 5019.3 4878.3 5027.4 4884.1 5037.4 4884.1 5040.5 4874.6 5043.6 4865.1 5046.7 4874.6 5056.7 4874.6 5059.8 4865.1 5056.7 4874.6 5053.6 4865.1 5061.7 4859.2 5069.8 4853.4 5079.8 4853.4 5076.7 4843.8 5068.6 4849.7 5060.5 4843.8 5068.6 4849.7 5076.7 4843.8 5079.8 4834.3 5071.7 4840.2 5063.6 4846.1 5055.5 4852 5052.4 4842.5" clip-path="url(#a)" fill="none" stroke="#000" stroke-linecap="round"/>
<polyline points="5052.4 4842.5 5062.4 4842.5 5065.5 4852 5075.5 4852 5083.6 4846.1 5091.7 4840.2 5094.8 4830.7 5091.7 4821.2 5099.8 4827.1 5091.7 4832.9 5099.8 4838.8 5109.8 4838.8 5099.8 4838.8 5091.7 4844.7 5088.6 4835.2 5091.7 4844.7 5094.8 4854.2 5091.7 4863.7 5083.6 4857.8 5075.5 4863.7 5072.4 4854.2 5080.5 4860.1 5088.6 4854.2 5085.5 4863.7 5093.6 4857.8 5085.5 4863.7 5075.5 4863.7 5067.4 4869.6 5077.4 4869.6 5074.3 4860.1 5077.4 4850.6 5080.5 4860.1 5072.4 4866 5064.3 4860.1 5072.4 4854.2 5075.5 4844.7 5072.4 4854.2 5064.3 4860.1 5072.4 4854.2 5064.3 4848.3 5061.2 4857.8 5058.1 4867.4 5050 4861.5" clip-path="url(#a)" fill="none" stroke="#000" stroke-linecap="round"/>
<polyline points="5050 4861.5 5047 4871 5038.9 4876.9 5042 4886.4 5038.9 4895.9 5030.8 4901.8 5033.9 4892.3 5030.8 4882.7 5027.7 4873.2 5035.8 4867.4 5045.8 4867.4 5037.7 4861.5 5034.6 4852 5031.5 4861.5 5034.6 4871 5026.5 4865.1 5023.4 4874.6 5031.5 4868.7 5028.4 4859.2 5025.3 4868.7 5028.4 4878.3 5038.4 4878.3 5030.3 4872.4 5038.4 4878.3 5048.4 4878.3 5045.3 4868.7 5053.4 4874.6 5063.4 4874.6 5066.5 4884.1 5058.4 4878.3 5066.5 4872.4 5069.6 4881.9 5072.7 4891.4 5075.8 4881.9 5067.7 4876 5070.8 4866.5 5073.9 4857 5070.8 4847.5 5073.9 4857 5070.8 4847.5 5078.9 4853.4 5075.8 4843.8 5065.8 4843.8" clip-path="url(#a)" fill="none" stroke="#000" stroke-linecap="round"/>
<polyline points="5065.8 4843.8 5055.8 4843.8 5052.7 4853.4 5062.7 4853.4 5059.6 4843.8 5056.5 4853.4 5053.4 4843.8 5045.3 4849.7 5037.2 4855.6 5045.3 4861.5 5037.2 4855.6 5029.1 4849.7 5019.1 4849.7 5011.1 4843.8 5014.1 4853.4 5011.1 4843.8 5014.1 4853.4 5024.1 4853.4 5014.1 4853.4 5011.1 4862.9 5003 4868.7 4999.9 4878.3 4989.9 4878.3 4986.8 4887.8 4976.8 4887.8 4979.9 4878.3 4988 4872.4 4979.9 4866.5 4988 4860.6 4991.1 4870.1 4994.1 4860.6 4984.1 4860.6 4976.1 4866.5 4966.1 4866.5 4956.1 4866.5 4964.1 4860.6 4961.1 4870.1 4964.1 4879.6 4967.2 4870.1 4975.3 4876 4972.2 4885.5 4975.3 4876 4983.4 4870.1" clip-path="url(#a)" fill="none" stroke="#000" stroke-linecap="round"/>
<polyline points="4983.4 4870.1 4993.4 4870.1 4996.5 4860.6 4988.4 4854.7 4978.4 4854.7 4981.5 4845.2 4991.5 4845.2 4999.6 4851.1 4996.5 4860.6 4986.5 4860.6 4989.6 4870.1 4999.6 4870.1 4991.5 4876 4983.4 4870.1 4986.5 4879.6 4978.4 4885.5 4981.5 4895 4984.6 4885.5 4992.7 4879.6 5000.8 4873.8 4997.7 4864.2 5007.7 4864.2 5010.8 4854.7 5000.8 4854.7 5003.9 4845.2 4993.9 4845.2 5003.9 4845.2 4995.8 4839.4 4987.7 4833.5 4990.8 4824 4987.7 4833.5 4984.6 4824 4981.5 4814.5 4973.4 4820.3 4970.3 4829.8 4973.4 4839.4 4983.4 4839.4 4986.5 4848.9 4989.6 4839.4 4992.7 4829.8 4984.6 4835.7 4987.7 4826.2 4990.8 4835.7" clip-path="url(#a)" fill="none" stroke="#000" stroke-linecap="round"/>
<polyline points="4990.8 4835.7 4987.7 4845.2 4995.8 4851.1 4985.8 4851.1 4975.8 4851.1 4978.9 4841.6 4982 4832.1 4985 4822.6 4975 4822.6 4972 4813.1 4975 4803.6 4972 4794 4968.9 4784.5 4972 4794 4975 4803.6 4972 4794 4980 4788.2 4972 4782.3 4982 4782.3 4972 4782.3 4975 4772.8 4972 4782.3 4962 4782.3 4965 4772.8 4962 4782.3 4970 4776.4 4978.1 4782.3 4968.1 4782.3 4971.2 4791.8 4963.1 4797.7 4960 4807.2 4970 4807.2 4973.1 4797.7 4965 4791.8 4962 4782.3 4965 4791.8 4955 4791.8 4947 4797.7 4937 4797.7 4933.9 4788.2 4930.8 4797.7 4938.9 4791.8 4930.8 4785.9" clip-path="url(#a)" fill="none" stroke="#000" stroke-linecap="round"/>
<polyline points="4930.8 4785.9 4938.9 4791.8 4930.8 4797.7 4920.8 4797.7 4923.9 4788.2 4927 4797.7 4918.9 4791.8 4927 4797.7 4930 4788.2 4933.1 4797.7 4930 4807.2 4927 4797.7 4923.9 4807.2 4915.8 4813.1 4907.7 4807.2 4899.6 4801.3 4907.7 4807.2 4904.6 4797.7 4901.5 4807.2 4893.4 4801.3 4896.5 4810.8 4886.5 4810.8 4876.5 4810.8 4873.4 4801.3 4865.3 4795.4 4873.4 4789.6 4876.5 4780 4868.4 4774.2 4860.3 4768.3 4870.3 4768.3 4873.4 4758.8 4865.3 4752.9 4873.4 4758.8 4863.4 4758.8 4860.3 4749.3 4857.2 4739.8 4860.3 4730.2 4850.3 4730.2 4853.4 4739.8 4845.3 4745.6 4853.4 4739.8 4850.3 4730.2 4842.2 4724.4" clip-path="url(#a)" fill="none" stroke="#000" stroke-linecap="round"/>
<polyline points="4842.2 4724.4 4845.3 4733.9 4848.4 4743.4 4851.5 4752.9 4841.5 4752.9 4844.6 4743.4 4854.6 4743.4 4857.7 4733.9 4854.6 4724.4 4851.5 4714.9 4843.4 4709 4833.4 4709 4841.5 4703.1 4844.6 4712.6 4852.7 4706.7 4855.8 4697.2 4852.7 4706.7 4855.8 4716.2 4845.8 4716.2 4855.8 4716.2 4865.8 4716.2 4873.9 4722.1 4865.8 4728 4868.9 4737.5 4858.9 4737.5 4867 4731.6 4863.9 4722.1 4872 4728 4868.9 4718.5 4872 4728 4868.9 4737.5 4872 4747 4875 4737.5 4865 4737.5 4857 4731.6 4867 4731.6 4870 4741.1 4862 4747 4858.9 4737.5 4850.8 4731.6 4858.9 4737.5 4862 4747 4858.9 4737.5" clip-path="url(#a)" fill="none" stroke="#000" stroke-linecap="round"/>
<polyline points="4858.9 4737.5 4850.8 4743.4 4858.9 4749.3 4867 4755.1 4858.9 4761 4867 4766.9 4870 4776.4 4880 4776.4 4888.1 4782.3 4891.2 4791.8 4883.1 4785.9 4873.1 4785.9 4863.1 4785.9 4860 4776.4 4863.1 4766.9 4855 4772.8 4845 4772.8 4853.1 4778.7 4863.1 4778.7 4855 4784.5 4863.1 4790.4 4860 4780.9 4850 4780.9 4858.1 4786.8 4868.1 4786.8 4871.2 4777.3 4863.1 4783.1 4871.2 4777.3 4874.3 4767.8 4864.3 4767.8 4872.4 4761.9 4875.5 4752.4 4885.5 4752.4 4877.4 4758.2 4874.3 4748.7 4884.3 4748.7 4894.3 4748.7 4886.2 4742.9 4878.1 4748.7 4870 4742.9 4862 4737 4852 4737 4862 4737" clip-path="url(#a)" fill="none" stroke="#000" stroke-linecap="round"/>
<polyline points="4862 4737 4852 4737 4860 4731.1 4850 4731.1 4847 4740.6 4843.9 4750.1 4852 4756 4855 4746.5 4845 4746.5 4853.1 4752.4 4843.1 4752.4 4846.2 4761.9 4849.3 4771.4 4857.4 4765.5 4849.3 4771.4 4841.2 4777.3 4838.1 4786.8 4830 4792.7 4840 4792.7 4830 4792.7 4840 4792.7 4843.1 4783.1 4840 4792.7 4848.1 4798.5 4851.2 4808 4859.3 4813.9 4856.2 4823.4 4864.3 4829.3 4861.2 4838.8 4853.1 4832.9 4850 4823.4 4842 4829.3 4838.9 4819.8 4848.9 4819.8 4840.8 4813.9 4837.7 4823.4 4840.8 4832.9 4837.7 4842.5 4834.6 4852 4831.5 4842.5 4839.6 4848.3 4849.6 4848.3 4841.5 4842.5" clip-path="url(#a)" fill="none" stroke="#000" stroke-linecap="round"/>
<polyline points="4841.5 4842.5 4849.6 4836.6 4857.7 4842.5 4849.6 4836.6 4846.5 4827.1 4849.6 4817.6 4841.5 4811.7 4833.4 4817.6 4830.3 4827.1 4822.2 4821.2 4825.3 4811.7 4833.4 4805.8 4841.5 4811.7 4838.4 4821.2 4848.4 4821.2 4851.5 4811.7 4854.6 4821.2 4846.5 4827.1 4856.5 4827.1 4859.6 4836.6 4869.6 4836.6 4861.5 4830.7 4858.4 4821.2 4855.3 4811.7 4845.3 4811.7 4848.4 4802.2 4840.3 4796.3 4837.2 4805.8 4829.1 4799.9 4826.1 4809.4 4829.1 4799.9 4821.1 4805.8 4813 4811.7 4804.9 4805.8 4813 4811.7 4803 4811.7 4793 4811.7 4796.1 4821.2 4804.1 4827.1 4814.1 4827.1 4817.2 4817.6 4827.2 4817.6 4819.1 4811.7" clip-path="url(#a)" fill="none" stroke="#000" stroke-linecap="round"/>
<polyline points="4819.1 4811.7 4811.1 4805.8 4814.1 4815.3 4806.1 4809.4 4816.1 4809.4 4824.1 4815.3 4832.2 4809.4 4829.1 4818.9 4826.1 4828.5 4818 4822.6 4809.9 4816.7 4801.8 4810.8 4798.7 4820.3 4788.7 4820.3 4780.6 4814.5 4770.6 4814.5 4760.6 4814.5 4770.6 4814.5 4780.6 4814.5 4770.6 4814.5 4767.5 4804.9 4759.4 4810.8 4762.5 4801.3 4759.4 4810.8 4751.3 4804.9 4759.4 4810.8 4756.3 4820.3 4748.2 4814.5 4756.3 4820.3 4753.2 4810.8 4761.3 4804.9 4758.2 4814.5 4768.2 4814.5 4771.3 4824 4779.4 4829.8 4782.5 4820.3 4774.4 4814.5 4766.3 4820.3 4756.3 4820.3 4766.3 4820.3 4763.2 4829.8 4766.3 4839.4 4763.2 4848.9" clip-path="url(#a)" fill="none" stroke="#000" stroke-linecap="round"/>
<polyline points="4763.2 4848.9 4753.2 4848.9 4761.3 4854.7 4758.2 4845.2 4750.2 4851.1 4758.2 4845.2 4761.3 4854.7 4758.2 4864.2 4750.2 4858.4 4760.2 4858.4 4752.1 4864.2 4760.2 4858.4 4752.1 4852.5 4762.1 4852.5 4770.2 4858.4 4760.2 4858.4 4768.2 4864.2 4771.3 4873.8 4763.2 4879.6 4755.2 4885.5 4763.2 4879.6 4753.2 4879.6 4761.3 4885.5 4753.2 4891.4 4763.2 4891.4 4760.2 4900.9 4757.1 4910.4 4747.1 4910.4 4739 4916.3 4735.9 4906.8 4727.8 4900.9 4719.7 4906.8 4711.6 4912.7 4714.7 4903.1 4706.6 4897.3 4698.5 4903.1 4706.6 4897.3 4703.5 4906.8 4693.5 4906.8 4683.5 4906.8 4675.4 4900.9 4672.3 4910.4 4682.3 4910.4" clip-path="url(#a)" fill="none" stroke="#000" stroke-linecap="round"/>
<polyline points="4682.3 4910.4 4685.4 4919.9 4682.3 4910.4 4672.3 4910.4 4664.3 4916.3 4674.3 4916.3 4684.3 4916.3 4694.3 4916.3 4691.2 4925.8 4683.1 4919.9 4686.2 4910.4 4678.1 4904.5 4668.1 4904.5 4658.1 4904.5 4650 4910.4 4646.9 4919.9 4643.8 4910.4 4653.8 4910.4 4650.7 4900.9 4642.6 4895 4650.7 4900.9 4660.7 4900.9 4657.6 4910.4 4660.7 4900.9 4663.8 4891.4 4671.9 4885.5 4675 4895 4685 4895 4681.9 4904.5 4678.8 4895 4668.8 4895 4676.9 4889.1 4666.9 4889.1 4676.9 4889.1 4685 4895 4695 4895 4686.9 4889.1 4683.8 4898.7 4675.7 4904.5 4678.8 4895 4688.8 4895 4691.9 4904.5 4681.9 4904.5" clip-path="url(#a)" fill="none" stroke="#000" stroke-linecap="round"/>
<polyline points="4681.9 4904.5 4673.8 4910.4 4681.9 4904.5 4691.9 4904.5 4681.9 4904.5 4685 4914 4693.1 4908.2 4701.2 4902.3 4704.3 4911.8 4712.3 4905.9 4722.3 4905.9 4725.4 4896.4 4733.5 4890.5 4743.5 4890.5 4735.4 4896.4 4732.3 4905.9 4729.3 4915.4 4719.3 4915.4 4711.2 4909.6 4714.3 4919.1 4711.2 4928.6 4719.3 4922.7 4722.3 4913.2 4725.4 4922.7 4733.5 4916.8 4723.5 4916.8 4720.4 4926.3 4728.5 4920.5 4731.6 4910.9 4723.5 4905.1 4726.6 4914.6 4723.5 4905.1 4715.4 4899.2 4712.3 4908.7 4709.3 4899.2 4701.2 4893.3 4704.3 4883.8 4707.3 4893.3 4697.3 4893.3 4700.4 4883.8 4703.5 4874.3 4695.4 4880.2 4698.5 4889.7" clip-path="url(#a)" fill="none" stroke="#000" stroke-linecap="round"/>
<polyline points="4698.5 4889.7 4690.4 4895.6 4682.3 4901.4 4679.3 4910.9 4682.3 4901.4 4679.3 4910.9 4676.2 4901.4 4673.1 4910.9 4681.2 4916.8 4689.3 4922.7 4697.3 4916.8 4689.3 4910.9 4686.2 4920.5 4694.3 4914.6 4691.2 4924.1 4701.2 4924.1 4711.2 4924.1 4708.1 4914.6 4711.2 4924.1 4714.3 4933.6 4722.3 4939.5 4725.4 4949 4728.5 4939.5 4725.4 4949 4728.5 4939.5 4720.4 4933.6 4728.5 4939.5 4736.6 4933.6 4746.6 4933.6 4754.7 4927.7 4762.8 4933.6 4770.9 4927.7 4779 4933.6 4770.9 4939.5 4760.9 4939.5 4764 4949 4754 4949 4757.1 4939.5 4749 4945.4 4757.1 4951.2 4767.1 4951.2 4775.2 4957.1 4783.2 4963" clip-path="url(#a)" fill="none" stroke="#000" stroke-linecap="round"/>
<polyline points="4783.2 4963 4773.2 4963 4781.3 4957.1 4784.4 4947.6 4776.3 4953.5 4773.2 4944 4781.3 4938.1 4773.2 4944 4763.2 4944 4755.2 4938.1 4747.1 4944 4750.2 4953.5 4758.2 4959.4 4750.2 4965.2 4742.1 4959.4 4739 4949.8 4747.1 4944 4755.2 4949.8 4758.2 4940.3 4750.2 4934.5 4760.2 4934.5 4763.2 4944 4766.3 4934.5 4776.3 4934.5 4779.4 4924.9 4771.3 4930.8 4761.3 4930.8 4751.3 4930.8 4748.2 4940.3 4740.2 4934.5 4732.1 4940.3 4740.2 4946.2 4732.1 4952.1 4740.2 4958 4732.1 4952.1 4735.2 4961.6 4738.2 4971.1 4730.2 4977 4738.2 4971.1 4735.2 4980.6 4732.1 4990.1 4742.1 4990.1 4750.2 4984.3" clip-path="url(#a)" fill="none" stroke="#000" stroke-linecap="round"/>
<polyline points="4750.2 4984.3 4753.2 4974.7 4745.2 4968.9 4748.2 4959.4 4740.2 4965.2 4732.1 4971.1 4742.1 4971.1 4734 4977 4737.1 4967.5 4745.2 4961.6 4742.1 4952.1 4750.2 4958 4758.2 4963.8 4750.2 4969.7 4742.1 4975.6 4734 4981.5 4742.1 4987.4 4739 4996.9 4730.9 5002.7 4727.8 5012.3 4724.7 5021.8 4727.8 5012.3 4730.9 5002.7 4727.8 5012.3 4717.8 5012.3 4720.9 5021.8 4712.8 5015.9 4720.9 5021.8 4712.8 5027.6 4720.9 5021.8 4729 5027.6 4720.9 5033.5 4729 5027.6 4719 5027.6 4715.9 5018.1 4724 5024 4727.1 5014.5 4737.1 5014.5 4745.2 5008.6 4737.1 5002.7 4729 5008.6 4732.1 5018.1 4729 5027.6" clip-path="url(#a)" fill="none" stroke="#000" stroke-linecap="round"/>
<polyline points="4729 5027.6 4732.1 5018.1 4740.2 5024 4750.2 5024 4758.2 5029.9 4755.2 5039.4 4763.2 5033.5 4753.2 5033.5 4756.3 5043 4753.2 5033.5 4763.2 5033.5 4771.3 5039.4 4763.2 5045.3 4766.3 5035.8 4769.4 5045.3 4766.3 5035.8 4758.2 5041.6 4761.3 5032.1 4769.4 5026.3 4766.3 5035.8 4774.4 5029.9 4784.4 5029.9 4787.5 5039.4 4790.6 5048.9 4787.5 5039.4 4784.4 5048.9 4792.5 5043 4795.6 5052.5 4798.7 5043 4806.8 5048.9 4814.9 5054.8 4811.8 5064.3 4814.9 5073.8 4804.9 5073.8 4796.8 5079.7 4799.9 5089.2 4803 5098.7 4794.9 5092.8 4786.8 5098.7 4789.9 5108.2 4786.8 5098.7 4794.9 5104.6 4791.8 5114.1" clip-path="url(#a)" fill="none" stroke="#000" stroke-linecap="round"/>
<polyline points="4791.8 5114.1 4788.7 5123.6 4780.6 5129.5 4788.7 5135.4 4791.8 5125.9 4801.8 5125.9 4791.8 5125.9 4788.7 5135.4 4791.8 5144.9 4794.9 5135.4 4798 5125.9 4801.1 5116.3 4809.1 5122.2 4801.1 5128.1 4793 5122.2 4784.9 5128.1 4781.8 5137.6 4778.7 5147.1 4781.8 5156.6 4789.9 5162.5 4779.9 5162.5 4783 5153 4773 5153 4764.9 5158.9 4773 5153 4776.1 5143.5 4784.1 5149.4 4776.1 5143.5 4768 5137.6 4764.9 5128.1 4774.9 5128.1 4778 5118.6 4786.1 5124.5 4776.1 5124.5 4773 5134 4769.9 5124.5 4766.8 5134 4769.9 5124.5 4778 5118.6 4781.1 5109.1 4773 5115 4781.1 5120.8 4784.1 5130.3" clip-path="url(#a)" fill="none" stroke="#000" stroke-linecap="round"/>
<polyline points="4784.1 5130.3 4776.1 5124.5 4779.1 5115 4789.1 5115 4786.1 5124.5 4789.1 5134 4786.1 5124.5 4789.1 5115 4786.1 5124.5 4796.1 5124.5 4793 5115 4789.9 5105.4 4799.9 5105.4 4796.8 5095.9 4799.9 5086.4 4791.8 5080.5 4788.7 5071 4791.8 5061.5 4794.9 5071 4803 5076.9 4811.1 5082.8 4808 5092.3 4799.9 5098.2 4809.9 5098.2 4818 5104.1 4814.9 5094.5 4806.8 5088.7 4816.8 5088.7 4813.7 5079.2 4810.6 5088.7 4818.7 5094.5 4815.6 5085 4807.5 5079.2 4799.4 5085 4809.4 5085 4799.4 5085 4791.3 5090.9 4799.4 5096.8 4789.4 5096.8 4781.3 5102.7 4773.2 5096.8 4783.2 5096.8 4780.2 5106.3" clip-path="url(#a)" fill="none" stroke="#000" stroke-linecap="round"/>
<polyline points="4780.2 5106.3 4772.1 5100.4 4764 5094.5 4767.1 5104.1 4777.1 5104.1 4780.2 5113.6 4783.2 5123.1 4791.3 5129 4783.2 5123.1 4791.3 5129 4781.3 5129 4789.4 5134.8 4797.5 5129 4805.6 5123.1 4802.5 5113.6 4794.4 5119.4 4802.5 5125.3 4799.4 5115.8 4807.5 5121.7 4810.6 5112.2 4813.7 5102.7 4803.7 5102.7 4813.7 5102.7 4823.7 5102.7 4831.8 5096.8 4841.8 5096.8 4833.7 5090.9 4841.8 5096.8 4833.7 5090.9 4825.6 5096.8 4833.7 5090.9 4830.6 5081.4 4833.7 5071.9 4830.6 5062.4 4838.7 5056.5 4835.6 5047 4843.7 5041.1 4846.8 5050.6 4843.7 5060.1 4853.7 5060.1 4850.6 5069.6 4842.5 5063.8 4845.6 5073.3" clip-path="url(#a)" fill="none" stroke="#000" stroke-linecap="round"/>
<polyline points="4845.6 5073.3 4853.7 5067.4 4856.8 5057.9 4864.9 5052 4873 5046.1 4869.9 5055.6 4866.8 5046.1 4858.7 5040.3 4861.8 5049.8 4851.8 5049.8 4848.7 5040.3 4851.8 5049.8 4848.7 5059.3 4840.6 5065.2 4843.7 5074.7 4853.7 5074.7 4861.8 5068.8 4864.9 5078.3 4856.8 5084.2 4846.8 5084.2 4843.7 5074.7 4851.8 5068.8 4843.7 5062.9 4835.6 5068.8 4838.7 5059.3 4848.7 5059.3 4840.6 5053.4 4843.7 5043.9 4835.6 5038 4838.7 5047.5 4835.6 5057 4832.5 5066.5 4840.6 5072.4 4832.5 5078.3 4835.6 5087.8 4843.7 5081.9 4846.8 5091.4 4854.9 5085.6 4846.8 5091.4 4856.8 5091.4 4866.8 5091.4 4869.9 5101 4866.8 5091.4" clip-path="url(#a)" fill="none" stroke="#000" stroke-linecap="round"/>
<polyline points="4866.8 5091.4 4874.9 5097.3 4883 5103.2 4886.1 5093.7 4883 5084.2 4874.9 5078.3 4866.8 5084.2 4858.7 5078.3 4861.8 5087.8 4864.9 5097.3 4868 5087.8 4871.1 5097.3 4863 5091.4 4859.9 5081.9 4849.9 5081.9 4858 5076.1 4866.1 5070.2 4869.1 5079.7 4872.2 5089.2 4875.3 5098.7 4883.4 5092.8 4891.5 5098.7 4894.6 5108.2 4902.7 5114.1 4910.8 5120 4902.7 5114.1 4894.6 5108.2 4902.7 5114.1 4899.6 5123.6 4909.6 5123.6 4901.5 5129.5 4909.6 5123.6 4912.7 5133.1 4909.6 5123.6 4917.7 5117.7 4920.8 5127.2 4917.7 5117.7 4914.6 5127.2 4904.6 5127.2 4912.7 5121.4 4904.6 5115.5 4907.7 5106 4904.6 5096.5" clip-path="url(#a)" fill="none" stroke="#000" stroke-linecap="round"/>
<polyline points="4904.6 5096.5 4896.5 5102.3 4899.6 5111.9 4909.6 5111.9 4917.7 5117.7 4909.6 5111.9 4917.7 5106 4920.8 5096.5 4928.9 5090.6 4937 5096.5 4933.9 5087 4930.8 5096.5 4940.8 5096.5 4930.8 5096.5 4933.9 5087 4942 5081.1 4945 5090.6 4937 5084.7 4947 5084.7 4937 5084.7 4940 5094.2 4932 5088.3 4928.9 5078.8 4937 5084.7 4933.9 5075.2 4937 5065.7 4947 5065.7 4957 5065.7 4947 5065.7 4955 5071.6 4952 5062.1 4962 5062.1 4953.9 5056.2 4962 5050.3 4970 5044.4 4978.1 5050.3 4988.1 5050.3 4985 5059.8 4988.1 5069.3 4998.1 5069.3 5008.1 5069.3 5e3 5075.2 5003.1 5084.7" clip-path="url(#a)" fill="none" stroke="#000" stroke-linecap="round"/>
<polyline points="5003.1 5084.7 5013.1 5084.7 5003.1 5084.7 5011.2 5078.8 5019.3 5084.7 5027.4 5090.6 5030.5 5100.1 5038.6 5094.2 5030.5 5088.3 5033.6 5078.8 5030.5 5088.3 5038.6 5094.2 5048.6 5094.2 5040.5 5088.3 5032.4 5082.5 5024.3 5076.6 5032.4 5070.7 5035.5 5080.2 5027.4 5086.1 5030.5 5095.6 5038.6 5101.5 5046.7 5107.4 5056.7 5107.4 5064.8 5101.5 5061.7 5111 5053.6 5105.1 5050.5 5114.6 5053.6 5124.1 5050.5 5114.6 5042.4 5108.7 5050.5 5102.9 5042.4 5108.7 5034.3 5114.6 5024.3 5114.6 5027.4 5105.1 5019.3 5099.2 5027.4 5093.4 5024.3 5102.9 5032.4 5108.7 5022.4 5108.7 5030.5 5114.6 5022.4 5108.7 5019.3 5099.2" clip-path="url(#a)" fill="none" stroke="#000" stroke-linecap="round"/>
<polyline points="5019.3 5099.2 5011.2 5093.4 5014.3 5102.9 5022.4 5097 5032.4 5097 5024.3 5102.9 5016.2 5097 5019.3 5087.5 5027.4 5093.4 5037.4 5093.4 5027.4 5093.4 5019.3 5087.5 5027.4 5093.4 5030.5 5083.8 5020.5 5083.8 5010.5 5083.8 5013.6 5074.3 5003.6 5074.3 4995.5 5068.5 4987.4 5074.3 4977.4 5074.3 4969.3 5068.5 4979.3 5068.5 4987.4 5062.6 4995.5 5056.7 5003.6 5062.6 5006.7 5072.1 5009.8 5062.6 5017.9 5056.7 5007.9 5056.7 4999.8 5062.6 5002.9 5053.1 4992.9 5053.1 5001 5059 5009 5053.1 4999 5053.1 4991 5059 4994 5068.5 4997.1 5059 4994 5068.5 4997.1 5078 5005.2 5072.1 5002.1 5081.6" clip-path="url(#a)" fill="none" stroke="#000" stroke-linecap="round"/>
<polyline points="5002.1 5081.6 5005.2 5091.1 4997.1 5097 5000.2 5087.5 5008.3 5093.4 5000.2 5099.2 4992.1 5105.1 5002.1 5105.1 5005.2 5095.6 5015.2 5095.6 5025.2 5095.6 5033.3 5089.7 5025.2 5095.6 5033.3 5089.7 5030.2 5099.2 5038.3 5093.4 5035.2 5083.8 5032.1 5074.3 5022.1 5074.3 5025.2 5083.8 5033.3 5078 5023.3 5078 5031.4 5072.1 5023.3 5066.2 5015.2 5060.3 5012.1 5069.8 5015.2 5060.3 5018.3 5050.8 5015.2 5041.3 5018.3 5031.8 5010.2 5037.7 5018.3 5031.8 5010.2 5037.7 5013.3 5047.2 5010.2 5037.7 5000.2 5037.7 4992.1 5031.8 4982.1 5031.8 4979 5022.3 4969 5022.3 4966 5012.8 4976 5012.8 4984 5018.7" clip-path="url(#a)" fill="none" stroke="#000" stroke-linecap="round"/>
<polyline points="4984 5018.7 4987.1 5009.2 4995.2 5015 4987.1 5020.9 4997.1 5020.9 4994 5011.4 4986 5005.5 4982.9 4996 4979.8 4986.5 4987.9 4992.4 4977.9 4992.4 4969.8 4998.3 4979.8 4998.3 4976.7 5007.8 4966.7 5007.8 4976.7 5007.8 4984.8 5013.6 4987.9 5023.2 4997.9 5023.2 5001 5013.6 4997.9 5004.1 5007.9 5004.1 5011 5013.6 5007.9 5023.2 4997.9 5023.2 4994.8 5013.6 4986.7 5019.5 4989.8 5029 4981.7 5023.2 4984.8 5013.6 4976.7 5019.5 4968.6 5013.6 4960.5 5019.5 4970.5 5019.5 4978.6 5025.4 4986.7 5031.3 4994.8 5025.4 4997.9 5034.9 5007.9 5034.9 5004.8 5025.4 5014.8 5025.4 5011.7 5015.9 5014.8 5025.4" clip-path="url(#a)" fill="none" stroke="#000" stroke-linecap="round"/>
<polyline points="5014.8 5025.4 5017.9 5015.9 5021 5006.4 5031 5006.4 5021 5006.4 5029 5000.5 5037.1 4994.6 5029 4988.7 5019 4988.7 5011 4994.6 5014 5004.1 5006 5010 5016 5010 5026 5010 5017.9 5004.1 5027.9 5004.1 5019.8 5010 5009.8 5010 5006.7 5019.5 5003.6 5010 5000.5 5000.5 5010.5 5000.5 5020.5 5000.5 5030.5 5000.5 5027.4 4991 5035.5 4985.1 5045.5 4985.1 5053.6 4979.2 5061.7 4973.4 5053.6 4979.2 5045.5 4985.1 5053.6 4979.2 5061.7 4985.1 5064.8 4975.6 5067.9 4985.1 5064.8 4975.6 5074.8 4975.6 5064.8 4975.6 5061.7 4966.1 5071.7 4966.1 5061.7 4966.1 5069.8 4972 5066.7 4981.5" clip-path="url(#a)" fill="none" stroke="#000" stroke-linecap="round"/>
<polyline points="5066.7 4981.5 5063.6 4972 5055.5 4977.8 5047.4 4972 5037.4 4972 5040.5 4981.5 5050.5 4981.5 5053.6 4972 5061.7 4966.1 5053.6 4972 5050.5 4962.5 5042.4 4956.6 5039.3 4947.1 5047.4 4941.2 5037.4 4941.2 5045.5 4947.1 5048.6 4937.6 5045.5 4947.1 5037.4 4941.2 5034.3 4931.7 5044.3 4931.7 5036.2 4937.6 5039.3 4928 5036.2 4937.6 5046.2 4937.6 5038.1 4943.4 5028.1 4943.4 5036.2 4937.6 5026.2 4937.6 5018.1 4931.7 5021.2 4922.2 5024.3 4912.7 5021.2 4922.2 5029.3 4916.3 5019.3 4916.3 5022.4 4906.8 5014.3 4912.7 5011.2 4903.1 5008.1 4893.6 5016.2 4887.8 5019.3 4878.3 5027.4 4884.1 5037.4 4884.1" clip-path="url(#a)" fill="none" stroke="#000" stroke-linecap="round"/>
<polyline points="5037.4 4884.1 5040.5 4874.6 5043.6 4865.1 5046.7 4874.6 5056.7 4874.6 5059.8 4865.1 5056.7 4874.6 5053.6 4865.1 5061.7 4859.2 5069.8 4853.4 5079.8 4853.4 5076.7 4843.8 5068.6 4849.7 5060.5 4843.8 5068.6 4849.7 5076.7 4843.8 5079.8 4834.3 5071.7 4840.2 5063.6 4846.1 5055.5 4852 5052.4 4842.5 5062.4 4842.5 5065.5 4852 5075.5 4852 5083.6 4846.1 5091.7 4840.2 5094.8 4830.7 5091.7 4821.2 5099.8 4827.1 5091.7 4832.9 5099.8 4838.8 5109.8 4838.8 5099.8 4838.8 5091.7 4844.7 5088.6 4835.2 5091.7 4844.7 5094.8 4854.2 5091.7 4863.7 5083.6 4857.8 5075.5 4863.7 5072.4 4854.2 5080.5 4860.1 5088.6 4854.2" clip-path="url(#a)" fill="none" stroke="#000" stroke-linecap="round"/>
<polyline points="5088.6 4854.2 5085.5 4863.7 5093.6 4857.8 5085.5 4863.7 5075.5 4863.7 5067.4 4869.6 5077.4 4869.6 5074.3 4860.1 5077.4 4850.6 5080.5 4860.1 5072.4 4866 5064.3 4860.1 5072.4 4854.2 5075.5 4844.7 5072.4 4854.2 5064.3 4860.1 5072.4 4854.2 5064.3 4848.3 5061.2 4857.8 5058.1 4867.4 5050 4861.5 5047 4871 5038.9 4876.9 5042 4886.4 5038.9 4895.9 5030.8 4901.8 5033.9 4892.3 5030.8 4882.7 5027.7 4873.2 5035.8 4867.4 5045.8 4867.4 5037.7 4861.5 5034.6 4852 5031.5 4861.5 5034.6 4871 5026.5 4865.1 5023.4 4874.6 5031.5 4868.7 5028.4 4859.2 5025.3 4868.7 5028.4 4878.3 5038.4 4878.3 5030.3 4872.4" clip-path="url(#a)" fill="none" stroke="#000" stroke-linecap="round"/>
<polyline points="5030.3 4872.4 5038.4 4878.3 5048.4 4878.3 5045.3 4868.7 5053.4 4874.6 5063.4 4874.6 5066.5 4884.1 5058.4 4878.3 5066.5 4872.4 5069.6 4881.9 5072.7 4891.4 5075.8 4881.9 5067.7 4876 5070.8 4866.5 5073.9 4857 5070.8 4847.5 5073.9 4857 5070.8 4847.5 5078.9 4853.4 5075.8 4843.8 5065.8 4843.8 5055.8 4843.8 5052.7 4853.4 5062.7 4853.4 5059.6 4843.8 5056.5 4853.4 5053.4 4843.8 5045.3 4849.7 5037.2 4855.6 5045.3 4861.5 5037.2 4855.6 5029.1 4849.7 5019.1 4849.7 5011.1 4843.8 5014.1 4853.4 5011.1 4843.8 5014.1 4853.4 5024.1 4853.4 5014.1 4853.4 5011.1 4862.9 5003 4868.7 4999.9 4878.3 4989.9 4878.3" clip-path="url(#a)" fill="none" stroke="#000" stroke-linecap="round"/>
<polyline points="4989.9 4878.3 4986.8 4887.8 4976.8 4887.8 4979.9 4878.3 4988 4872.4 4979.9 4866.5 4988 4860.6 4991.1 4870.1 4994.1 4860.6 4984.1 4860.6 4976.1 4866.5 4966.1 4866.5 4956.1 4866.5 4964.1 4860.6 4961.1 4870.1 4964.1 4879.6 4967.2 4870.1 4975.3 4876 4972.2 4885.5 4975.3 4876 4983.4 4870.1 4993.4 4870.1 4996.5 4860.6 4988.4 4854.7 4978.4 4854.7 4981.5 4845.2 4991.5 4845.2 4999.6 4851.1 4996.5 4860.6 4986.5 4860.6 4989.6 4870.1 4999.6 4870.1 4991.5 4876 4983.4 4870.1 4986.5 4879.6 4978.4 4885.5 4981.5 4895 4984.6 4885.5 4992.7 4879.6 5000.8 4873.8 4997.7 4864.2 5007.7 4864.2 5010.8 4854.7" clip-path="url(#a)" fill="none" stroke="#000" stroke-linecap="round"/>
<polyline points="5010.8 4854.7 5000.8 4854.7 5003.9 4845.2 4993.9 4845.2 5003.9 4845.2 4995.8 4839.4 4987.7 4833.5 4990.8 4824 4987.7 4833.5 4984.6 4824 4981.5 4814.5 4973.4 4820.3 4970.3 4829.8 4973.4 4839.4 4983.4 4839.4 4986.5 4848.9 4989.6 4839.4 4992.7 4829.8 4984.6 4835.7 4987.7 4826.2 4990.8 4835.7 4987.7 4845.2 4995.8 4851.1 4985.8 4851.1 4975.8 4851.1 4978.9 4841.6 4982 4832.1 4985 4822.6 4975 4822.6 4972 4813.1 4975 4803.6 4972 4794 4968.9 4784.5 4972 4794 4975 4803.6 4972 4794 4980 4788.2 4972 4782.3 4982 4782.3 4972 4782.3 4975 4772.8 4972 4782.3 4962 4782.3" clip-path="url(#a)" fill="none" stroke="#000" stroke-linecap="round"/>
<polyline points="4962 4782.3 4965 4772.8 4962 4782.3 4970 4776.4 4978.1 4782.3 4968.1 4782.3 4971.2 4791.8 4963.1 4797.7 4960 4807.2 4970 4807.2 4973.1 4797.7 4965 4791.8 4962 4782.3 4965 4791.8 4955 4791.8 4947 4797.7 4937 4797.7 4933.9 4788.2 4930.8 4797.7 4938.9 4791.8 4930.8 4785.9 4938.9 4791.8 4930.8 4797.7 4920.8 4797.7 4923.9 4788.2 4927 4797.7 4918.9 4791.8 4927 4797.7 4930 4788.2 4933.1 4797.7 4930 4807.2 4927 4797.7 4923.9 4807.2 4915.8 4813.1 4907.7 4807.2 4899.6 4801.3 4907.7 4807.2 4904.6 4797.7 4901.5 4807.2 4893.4 4801.3 4896.5 4810.8 4886.5 4810.8 4876.5 4810.8" clip-path="url(#a)" fill="none" stroke="#000" stroke-linecap="round"/>
<polyline points="4876.5 4810.8 4873.4 4801.3 4865.3 4795.4 4873.4 4789.6 4876.5 4780 4868.4 4774.2 4860.3 4768.3 4870.3 4768.3 4873.4 4758.8 4865.3 4752.9 4873.4 4758.8 4863.4 4758.8 4860.3 4749.3 4857.2 4739.8 4860.3 4730.2 4850.3 4730.2 4853.4 4739.8 4845.3 4745.6 4853.4 4739.8 4850.3 4730.2 4842.2 4724.4 4845.3 4733.9 4848.4 4743.4 4851.5 4752.9 4841.5 4752.9 4844.6 4743.4 4854.6 4743.4 4857.7 4733.9 4854.6 4724.4 4851.5 4714.9 4843.4 4709 4833.4 4709 4841.5 4703.1 4844.6 4712.6 4852.7 4706.7 4855.8 4697.2 4852.7 4706.7 4855.8 4716.2 4845.8 4716.2 4855.8 4716.2 4865.8 4716.2 4873.9 4722.1 4865.8 4728" clip-path="url(#a)" fill="none" stroke="#000" stroke-linecap="round"/>
<polyline points="4865.8 4728 4868.9 4737.5 4858.9 4737.5 4867 4731.6 4863.9 4722.1 4872 4728 4868.9 4718.5 4872 4728 4868.9 4737.5 4872 4747 4875 4737.5 4865 4737.5 4857 4731.6 4867 4731.6 4870 4741.1 4862 4747 4858.9 4737.5 4850.8 4731.6 4858.9 4737.5 4862 4747 4858.9 4737.5 4850.8 4743.4 4858.9 4749.3 4867 4755.1 4858.9 4761 4867 4766.9 4870 4776.4 4880 4776.4 4888.1 4782.3 4891.2 4791.8 4883.1 4785.9 4873.1 4785.9 4863.1 4785.9 4860 4776.4 4863.1 4766.9 4855 4772.8 4845 4772.8 4853.1 4778.7 4863.1 4778.7 4855 4784.5 4863.1 4790.4 4860 4780.9 4850 4780.9" clip-path="url(#a)" fill="none" stroke="#000" stroke-linecap="round"/>
<polyline points="4850 4780.9 4858.1 4786.8 4868.1 4786.8 4871.2 4777.3 4863.1 4783.1 4871.2 4777.3 4874.3 4767.8 4864.3 4767.8 4872.4 4761.9 4875.5 4752.4 4885.5 4752.4 4877.4 4758.2 4874.3 4748.7 4884.3 4748.7 4894.3 4748.7 4886.2 4742.9 4878.1 4748.7 4870 4742.9 4862 4737 4852 4737 4862 4737 4852 4737 4860 4731.1 4850 4731.1 4847 4740.6 4843.9 4750.1 4852 4756 4855 4746.5 4845 4746.5 4853.1 4752.4 4843.1 4752.4 4846.2 4761.9 4849.3 4771.4 4857.4 4765.5 4849.3 4771.4 4841.2 4777.3 4838.1 4786.8 4830 4792.7 4840 4792.7 4830 4792.7 4840 4792.7 4843.1 4783.1 4840 4792.7" clip-path="url(#a)" fill="none" stroke="#000" stroke-linecap="round"/>
<polyline points="4840 4792.7 4848.1 4798.5 4851.2 4808 4859.3 4813.9 4856.2 4823.4 4864.3 4829.3 4861.2 4838.8 4853.1 4832.9 4850 4823.4 4842 4829.3 4838.9 4819.8 4848.9 4819.8 4840.8 4813.9 4837.7 4823.4 4840.8 4832.9 4837.7 4842.5 4834.6 4852 4831.5 4842.5 4839.6 4848.3 4849.6 4848.3 4841.5 4842.5 4849.6 4836.6 4857.7 4842.5 4849.6 4836.6 4846.5 4827.1 4849.6 4817.6 4841.5 4811.7 4833.4 4817.6 4830.3 4827.1 4822.2 4821.2 4825.3 4811.7 4833.4 4805.8 4841.5 4811.7 4838.4 4821.2 4848.4 4821.2 4851.5 4811.7 4854.6 4821.2 4846.5 4827.1 4856.5 4827.1 4859.6 4836.6 4869.6 4836.6 4861.5 4830.7 4858.4 4821.2" clip-path="url(#a)" fill="none" stroke="#000" stroke-linecap="round"/>
<polyline points="4858.4 4821.2 4855.3 4811.7 4845.3 4811.7 4848.4 4802.2 4840.3 4796.3 4837.2 4805.8 4829.1 4799.9 4826.1 4809.4 4829.1 4799.9 4821.1 4805.8 4813 4811.7 4804.9 4805.8 4813 4811.7 4803 4811.7 4793 4811.7 4796.1 4821.2 4804.1 4827.1 4814.1 4827.1 4817.2 4817.6 4827.2 4817.6 4819.1 4811.7 4811.1 4805.8 4814.1 4815.3 4806.1 4809.4 4816.1 4809.4 4824.1 4815.3 4832.2 4809.4 4829.1 4818.9 4826.1 4828.5 4818 4822.6 4809.9 4816.7 4801.8 4810.8 4798.7 4820.3 4788.7 4820.3 4780.6 4814.5 4770.6 4814.5 4760.6 4814.5 4770.6 4814.5 4780.6 4814.5 4770.6 4814.5 4767.5 4804.9 4759.4 4810.8 4762.5 4801.3" clip-path="url(#a)" fill="none" stroke="#000" stroke-linecap="round"/>
<polyline points="4762.5 4801.3 4759.4 4810.8 4751.3 4804.9 4759.4 4810.8 4756.3 4820.3 4748.2 4814.5 4756.3 4820.3 4753.2 4810.8 4761.3 4804.9 4758.2 4814.5 4768.2 4814.5 4771.3 4824 4779.4 4829.8 4782.5 4820.3 4774.4 4814.5 4766.3 4820.3 4756.3 4820.3 4766.3 4820.3 4763.2 4829.8 4766.3 4839.4 4763.2 4848.9 4753.2 4848.9 4761.3 4854.7 4758.2 4845.2 4750.2 4851.1 4758.2 4845.2 4761.3 4854.7 4758.2 4864.2 4750.2 4858.4 4760.2 4858.4 4752.1 4864.2 4760.2 4858.4 4752.1 4852.5 4762.1 4852.5 4770.2 4858.4 4760.2 4858.4 4768.2 4864.2 4771.3 4873.8 4763.2 4879.6 4755.2 4885.5 4763.2 4879.6 4753.2 4879.6 4761.3 4885.5" clip-path="url(#a)" fill="none" stroke="#000" stroke-linecap="round"/>
<polyline points="4761.3 4885.5 4753.2 4891.4 4763.2 4891.4 4760.2 4900.9 4757.1 4910.4 4747.1 4910.4 4739 4916.3 4735.9 4906.8 4727.8 4900.9 4719.7 4906.8 4711.6 4912.7 4714.7 4903.1 4706.6 4897.3 4698.5 4903.1 4706.6 4897.3 4703.5 4906.8 4693.5 4906.8 4683.5 4906.8 4675.4 4900.9 4672.3 4910.4 4682.3 4910.4 4685.4 4919.9 4682.3 4910.4 4672.3 4910.4 4664.3 4916.3 4674.3 4916.3 4684.3 4916.3 4694.3 4916.3 4691.2 4925.8 4683.1 4919.9 4686.2 4910.4 4678.1 4904.5 4668.1 4904.5 4658.1 4904.5 4650 4910.4 4646.9 4919.9 4643.8 4910.4 4653.8 4910.4 4650.7 4900.9 4642.6 4895 4650.7 4900.9 4660.7 4900.9 4657.6 4910.4" clip-path="url(#a)" fill="none" stroke="#000" stroke-linecap="round"/>
<polyline points="4657.6 4910.4 4660.7 4900.9 4663.8 4891.4 4671.9 4885.5 4675 4895 4685 4895 4681.9 4904.5 4678.8 4895 4668.8 4895 4676.9 4889.1 4666.9 4889.1 4676.9 4889.1 4685 4895 4695 4895 4686.9 4889.1 4683.8 4898.7 4675.7 4904.5 4678.8 4895 4688.8 4895 4691.9 4904.5 4681.9 4904.5 4673.8 4910.4 4681.9 4904.5 4691.9 4904.5 4681.9 4904.5 4685 4914 4693.1 4908.2 4701.2 4902.3 4704.3 4911.8 4712.3 4905.9 4722.3 4905.9 4725.4 4896.4 4733.5 4890.5 4743.5 4890.5 4735.4 4896.4 4732.3 4905.9 4729.3 4915.4 4719.3 4915.4 4711.2 4909.6 4714.3 4919.1 4711.2 4928.6 4719.3 4922.7 4722.3 4913.2" clip-path="url(#a)" fill="none" stroke="#000" stroke-linecap="round"/>
<polyline points="4722.3 4913.2 4725.4 4922.7 4733.5 4916.8 4723.5 4916.8 4720.4 4926.3 4728.5 4920.5 4731.6 4910.9 4723.5 4905.1 4726.6 4914.6 4723.5 4905.1 4715.4 4899.2 4712.3 4908.7 4709.3 4899.2 4701.2 4893.3 4704.3 4883.8 4707.3 4893.3 4697.3 4893.3 4700.4 4883.8 4703.5 4874.3 4695.4 4880.2 4698.5 4889.7 4690.4 4895.6 4682.3 4901.4 4679.3 4910.9 4682.3 4901.4 4679.3 4910.9 4676.2 4901.4 4673.1 4910.9 4681.2 4916.8 4689.3 4922.7 4697.3 4916.8 4689.3 4910.9 4686.2 4920.5 4694.3 4914.6 4691.2 4924.1 4701.2 4924.1 4711.2 4924.1 4708.1 4914.6 4711.2 4924.1 4714.3 4933.6 4722.3 4939.5 4725.4 4949 4728.5 4939.5" clip-path="url(#a)" fill="none" stroke="#000" stroke-linecap="round"/>
<polyline points="4728.5 4939.5 4725.4 4949 4728.5 4939.5 4720.4 4933.6 4728.5 4939.5 4736.6 4933.6 4746.6 4933.6 4754.7 4927.7 4762.8 4933.6 4770.9 4927.7 4779 4933.6 4770.9 4939.5 4760.9 4939.5 4764 4949 4754 4949 4757.1 4939.5 4749 4945.4 4757.1 4951.2 4767.1 4951.2 4775.2 4957.1 4783.2 4963 4773.2 4963 4781.3 4957.1 4784.4 4947.6 4776.3 4953.5 4773.2 4944 4781.3 4938.1 4773.2 4944 4763.2 4944 4755.2 4938.1 4747.1 4944 4750.2 4953.5 4758.2 4959.4 4750.2 4965.2 4742.1 4959.4 4739 4949.8 4747.1 4944 4755.2 4949.8 4758.2 4940.3 4750.2 4934.5 4760.2 4934.5 4763.2 4944 4766.3 4934.5" clip-path="url(#a)" fill="none" stroke="#000" stroke-linecap="round"/>
<polyline points="4766.3 4934.5 4776.3 4934.5 4779.4 4924.9 4771.3 4930.8 4761.3 4930.8 4751.3 4930.8 4748.2 4940.3 4740.2 4934.5 4732.1 4940.3 4740.2 4946.2 4732.1 4952.1 4740.2 4958 4732.1 4952.1 4735.2 4961.6 4738.2 4971.1 4730.2 4977 4738.2 4971.1 4735.2 4980.6 4732.1 4990.1 4742.1 4990.1 4750.2 4984.3 4753.2 4974.7 4745.2 4968.9 4748.2 4959.4 4740.2 4965.2 4732.1 4971.1 4742.1 4971.1 4734 4977 4737.1 4967.5 4745.2 4961.6 4742.1 4952.1 4750.2 4958 4758.2 4963.8 4750.2 4969.7 4742.1 4975.6 4734 4981.5 4742.1 4987.4 4739 4996.9 4730.9 5002.7 4727.8 5012.3 4724.7 5021.8 4727.8 5012.3 4730.9 5002.7" clip-path="url(#a)" fill="none" stroke="#000" stroke-linecap="round"/>
<polyline points="4730.9 5002.7 4727.8 5012.3 4717.8 5012.3 4720.9 5021.8 4712.8 5015.9 4720.9 5021.8 4712.8 5027.6 4720.9 5021.8 4729 5027.6 4720.9 5033.5 4729 5027.6 4719 5027.6 4715.9 5018.1 4724 5024 4727.1 5014.5 4737.1 5014.5 4745.2 5008.6 4737.1 5002.7 4729 5008.6 4732.1 5018.1 4729 5027.6 4732.1 5018.1 4740.2 5024 4750.2 5024 4758.2 5029.9 4755.2 5039.4 4763.2 5033.5 4753.2 5033.5 4756.3 5043 4753.2 5033.5 4763.2 5033.5 4771.3 5039.4 4763.2 5045.3 4766.3 5035.8 4769.4 5045.3 4766.3 5035.8 4758.2 5041.6 4761.3 5032.1 4769.4 5026.3 4766.3 5035.8 4774.4 5029.9 4784.4 5029.9 4787.5 5039.4" clip-path="url(#a)" fill="none" stroke="#000" stroke-linecap="round"/>
<polyline points="4787.5 5039.4 4790.6 5048.9 4787.5 5039.4 4784.4 5048.9 4792.5 5043 4795.6 5052.5 4798.7 5043 4806.8 5048.9 4814.9 5054.8 4811.8 5064.3 4814.9 5073.8 4804.9 5073.8 4796.8 5079.7 4799.9 5089.2 4803 5098.7 4794.9 5092.8 4786.8 5098.7 4789.9 5108.2 4786.8 5098.7 4794.9 5104.6 4791.8 5114.1 4788.7 5123.6 4780.6 5129.5 4788.7 5135.4 4791.8 5125.9 4801.8 5125.9 4791.8 5125.9 4788.7 5135.4 4791.8 5144.9 4794.9 5135.4 4798 5125.9 4801.1 5116.3 4809.1 5122.2 4801.1 5128.1 4793 5122.2 4784.9 5128.1 4781.8 5137.6 4778.7 5147.1 4781.8 5156.6 4789.9 5162.5 4779.9 5162.5 4783 5153 4773 5153" clip-path="url(#a)" fill="none" stroke="#000" stroke-linecap="round"/>
<polyline points="4773 5153 4764.9 5158.9 4773 5153 4776.1 5143.5 4784.1 5149.4 4776.1 5143.5 4768 5137.6 4764.9 5128.1 4774.9 5128.1 4778 5118.6 4786.1 5124.5 4776.1 5124.5 4773 5134 4769.9 5124.5 4766.8 5134 4769.9 5124.5 4778 5118.6 4781.1 5109.1 4773 5115 4781.1 5120.8 4784.1 5130.3 4776.1 5124.5 4779.1 5115 4789.1 5115 4786.1 5124.5 4789.1 5134 4786.1 5124.5 4789.1 5115 4786.1 5124.5 4796.1 5124.5 4793 5115 4789.9 5105.4 4799.9 5105.4 4796.8 5095.9 4799.9 5086.4 4791.8 5080.5 4788.7 5071 4791.8 5061.5 4794.9 5071 4803 5076.9 4811.1 5082.8 4808 5092.3 4799.9 5098.2" clip-path="url(#a)" fill="none" stroke="#000" stroke-linecap="round"/>
<polyline points="4799.9 5098.2 4809.9 5098.2 4818 5104.1 4814.9 5094.5 4806.8 5088.7 4816.8 5088.7 4813.7 5079.2 4810.6 5088.7 4818.7 5094.5 4815.6 5085 4807.5 5079.2 4799.4 5085 4809.4 5085 4799.4 5085 4791.3 5090.9 4799.4 5096.8 4789.4 5096.8 4781.3 5102.7 4773.2 5096.8 4783.2 5096.8 4780.2 5106.3 4772.1 5100.4 4764 5094.5 4767.1 5104.1 4777.1 5104.1 4780.2 5113.6 4783.2 5123.1 4791.3 5129 4783.2 5123.1 4791.3 5129 4781.3 5129 4789.4 5134.8 4797.5 5129 4805.6 5123.1 4802.5 5113.6 4794.4 5119.4 4802.5 5125.3 4799.4 5115.8 4807.5 5121.7 4810.6 5112.2 4813.7 5102.7 4803.7 5102.7 4813.7 5102.7" clip-path="url(#a)" fill="none" stroke="#000" stroke-linecap="round"/>
<polyline points="4813.7 5102.7 4823.7 5102.7 4831.8 5096.8 4841.8 5096.8 4833.7 5090.9 4841.8 5096.8 4833.7 5090.9 4825.6 5096.8 4833.7 5090.9 4830.6 5081.4 4833.7 5071.9 4830.6 5062.4 4838.7 5056.5 4835.6 5047 4843.7 5041.1 4846.8 5050.6 4843.7 5060.1 4853.7 5060.1 4850.6 5069.6 4842.5 5063.8 4845.6 5073.3 4853.7 5067.4 4856.8 5057.9 4864.9 5052 4873 5046.1 4869.9 5055.6 4866.8 5046.1 4858.7 5040.3 4861.8 5049.8 4851.8 5049.8 4848.7 5040.3 4851.8 5049.8 4848.7 5059.3 4840.6 5065.2 4843.7 5074.7 4853.7 5074.7 4861.8 5068.8 4864.9 5078.3 4856.8 5084.2 4846.8 5084.2 4843.7 5074.7 4851.8 5068.8 4843.7 5062.9" clip-path="url(#a)" fill="none" stroke="#000" stroke-linecap="round"/>
<polyline points="4843.7 5062.9 4835.6 5068.8 4838.7 5059.3 4848.7 5059.3 4840.6 5053.4 4843.7 5043.9 4835.6 5038 4838.7 5047.5 4835.6 5057 4832.5 5066.5 4840.6 5072.4 4832.5 5078.3 4835.6 5087.8 4843.7 5081.9 4846.8 5091.4 4854.9 5085.6 4846.8 5091.4 4856.8 5091.4 4866.8 5091.4 4869.9 5101 4866.8 5091.4 4874.9 5097.3 4883 5103.2 4886.1 5093.7 4883 5084.2 4874.9 5078.3 4866.8 5084.2 4858.7 5078.3 4861.8 5087.8 4864.9 5097.3 4868 5087.8 4871.1 5097.3 4863 5091.4 4859.9 5081.9 4849.9 5081.9 4858 5076.1 4866.1 5070.2 4869.1 5079.7 4872.2 5089.2 4875.3 5098.7 4883.4 5092.8 4891.5 5098.7 4894.6 5108.2" clip-path="url(#a)" fill="none" stroke="#000" stroke-linecap="round"/>
<polyline points="4894.6 5108.2 4902.7 5114.1 4910.8 5120 4902.7 5114.1 4894.6 5108.2 4902.7 5114.1 4899.6 5123.6 4909.6 5123.6 4901.5 5129.5 4909.6 5123.6 4912.7 5133.1 4909.6 5123.6 4917.7 5117.7 4920.8 5127.2 4917.7 5117.7 4914.6 5127.2 4904.6 5127.2 4912.7 5121.4 4904.6 5115.5 4907.7 5106 4904.6 5096.5 4896.5 5102.3 4899.6 5111.9 4909.6 5111.9 4917.7 5117.7 4909.6 5111.9 4917.7 5106 4920.8 5096.5 4928.9 5090.6 4937 5096.5 4933.9 5087 4930.8 5096.5 4940.8 5096.5 4930.8 5096.5 4933.9 5087 4942 5081.1 4945 5090.6 4937 5084.7 4947 5084.7 4937 5084.7 4940 5094.2 4932 5088.3 4928.9 5078.8" clip-path="url(#a)" fill="none" stroke="#000" stroke-linecap="round"/>
<polyline points="4928.9 5078.8 4937 5084.7 4933.9 5075.2 4937 5065.7 4947 5065.7 4957 5065.7 4947 5065.7 4955 5071.6 4952 5062.1 4962 5062.1 4953.9 5056.2 4962 5050.3 4970 5044.4 4978.1 5050.3 4988.1 5050.3 4985 5059.8 4988.1 5069.3 4998.1 5069.3 5008.1 5069.3 5e3 5075.2 5003.1 5084.7 5013.1 5084.7 5003.1 5084.7 5011.2 5078.8 5019.3 5084.7 5027.4 5090.6 5030.5 5100.1 5038.6 5094.2 5030.5 5088.3 5033.6 5078.8 5030.5 5088.3 5038.6 5094.2 5048.6 5094.2 5040.5 5088.3 5032.4 5082.5 5024.3 5076.6 5032.4 5070.7 5035.5 5080.2 5027.4 5086.1 5030.5 5095.6 5038.6 5101.5 5046.7 5107.4 5056.7 5107.4" clip-path="url(#a)" fill="none" stroke="#000" stroke-linecap="round"/>
<polyline points="5056.7 5107.4 5064.8 5101.5 5061.7 5111 5053.6 5105.1 5050.5 5114.6 5053.6 5124.1 5050.5 5114.6 5042.4 5108.7 5050.5 5102.9 5042.4 5108.7 5034.3 5114.6 5024.3 5114.6 5027.4 5105.1 5019.3 5099.2 5027.4 5093.4 5024.3 5102.9 5032.4 5108.7 5022.4 5108.7 5030.5 5114.6 5022.4 5108.7 5019.3 5099.2 5011.2 5093.4 5014.3 5102.9 5022.4 5097 5032.4 5097 5024.3 5102.9 5016.2 5097 5019.3 5087.5 5027.4 5093.4 5037.4 5093.4 5027.4 5093.4 5019.3 5087.5 5027.4 5093.4 5030.5 5083.8 5020.5 5083.8 5010.5 5083.8 5013.6 5074.3 5003.6 5074.3 4995.5 5068.5 4987.4 5074.3 4977.4 5074.3 4969.3 5068.5 4979.3 5068.5" clip-path="url(#a)" fill="none" stroke="#000" stroke-linecap="round"/>
<polyline points="4979.3 5068.5 4987.4 5062.6 4995.5 5056.7 5003.6 5062.6 5006.7 5072.1 5009.8 5062.6 5017.9 5056.7 5007.9 5056.7 4999.8 5062.6 5002.9 5053.1 4992.9 5053.1 5001 5059 5009 5053.1 4999 5053.1 4991 5059 4994 5068.5 4997.1 5059 4994 5068.5 4997.1 5078 5005.2 5072.1 5002.1 5081.6 5005.2 5091.1 4997.1 5097 5000.2 5087.5 5008.3 5093.4 5000.2 5099.2 4992.1 5105.1 5002.1 5105.1 5005.2 5095.6 5015.2 5095.6 5025.2 5095.6 5033.3 5089.7 5025.2 5095.6 5033.3 5089.7 5030.2 5099.2 5038.3 5093.4 5035.2 5083.8 5032.1 5074.3 5022.1 5074.3 5025.2 5083.8 5033.3 5078 5023.3 5078 5031.4 5072.1" clip-path="url(#a)" fill="none" stroke="#000" stroke-linecap="round"/>
<polyline points="5031.4 5072.1 5023.3 5066.2 5015.2 5060.3 5012.1 5069.8 5015.2 5060.3 5018.3 5050.8 5015.2 5041.3 5018.3 5031.8 5010.2 5037.7 5018.3 5031.8 5010.2 5037.7 5013.3 5047.2 5010.2 5037.7 5000.2 5037.7 4992.1 5031.8 4982.1 5031.8 4979 5022.3 4969 5022.3 4966 5012.8 4976 5012.8 4984 5018.7 4987.1 5009.2 4995.2 5015 4987.1 5020.9 4997.1 5020.9 4994 5011.4 4986 5005.5 4982.9 4996 4979.8 4986.5 4987.9 4992.4 4977.9 4992.4 4969.8 4998.3 4979.8 4998.3 4976.7 5007.8 4966.7 5007.8 4976.7 5007.8 4984.8 5013.6 4987.9 5023.2 4997.9 5023.2 5001 5013.6 4997.9 5004.1 5007.9 5004.1 5011 5013.6" clip-path="url(#a)" fill="none" stroke="#000" stroke-linecap="round"/>
<polyline points="5011 5013.6 5007.9 5023.2 4997.9 5023.2 4994.8 5013.6 4986.7 5019.5 4989.8 5029 4981.7 5023.2 4984.8 5013.6 4976.7 5019.5 4968.6 5013.6 4960.5 5019.5 4970.5 5019.5 4978.6 5025.4 4986.7 5031.3 4994.8 5025.4 4997.9 5034.9 5007.9 5034.9 5004.8 5025.4 5014.8 5025.4 5011.7 5015.9 5014.8 5025.4 5017.9 5015.9 5021 5006.4 5031 5006.4 5021 5006.4 5029 5000.5 5037.1 4994.6 5029 4988.7 5019 4988.7 5011 4994.6 5014 5004.1 5006 5010 5016 5010 5026 5010 5017.9 5004.1 5027.9 5004.1 5019.8 5010 5009.8 5010 5006.7 5019.5 5003.6 5010 5000.5 5000.5 5010.5 5000.5 5020.5 5000.5" clip-path="url(#a)" fill="none" stroke="#000" stroke-linecap="round"/>
<polyline points="5020.5 5000.5 5030.5 5000.5 5027.4 4991 5035.5 4985.1 5045.5 4985.1 5053.6 4979.2 5061.7 4973.4 5053.6 4979.2 5045.5 4985.1 5053.6 4979.2 5061.7 4985.1 5064.8 4975.6 5067.9 4985.1 5064.8 4975.6 5074.8 4975.6 5064.8 4975.6 5061.7 4966.1 5071.7 4966.1 5061.7 4966.1 5069.8 4972 5066.7 4981.5 5063.6 4972 5055.5 4977.8 5047.4 4972 5037.4 4972 5040.5 4981.5 5050.5 4981.5 5053.6 4972 5061.7 4966.1 5053.6 4972 5050.5 4962.5 5042.4 4956.6 5039.3 4947.1 5047.4 4941.2 5037.4 4941.2 5045.5 4947.1 5048.6 4937.6 5045.5 4947.1 5037.4 4941.2 5034.3 4931.7 5044.3 4931.7 5036.2 4937.6 5039.3 4928" clip-path="url(#a)" fill="none" stroke="#000" stroke-linecap="round"/>
<polyline points="5039.3 4928 5036.2 4937.6 5046.2 4937.6 5038.1 4943.4 5028.1 4943.4 5036.2 4937.6 5026.2 4937.6 5018.1 4931.7 5021.2 4922.2 5024.3 4912.7 5021.2 4922.2 5029.3 4916.3 5019.3 4916.3 5022.4 4906.8 5014.3 4912.7 5011.2 4903.1 5008.1 4893.6 5016.2 4887.8 5019.3 4878.3 5027.4 4884.1 5037.4 4884.1 5040.5 4874.6 5043.6 4865.1 5046.7 4874.6 5056.7 4874.6 5059.8 4865.1 5056.7 4874.6 5053.6 4865.1 5061.7 4859.2 5069.8 4853.4 5079.8 4853.4 5076.7 4843.8 5068.6 4849.7 5060.5 4843.8 5068.6 4849.7 5076.7 4843.8 5079.8 4834.3 5071.7 4840.2 5063.6 4846.1 5055.5 4852 5052.4 4842.5 5062.4 4842.5 5065.5 4852" clip-path="url(#a)" fill="none" stroke="#000" stroke-linecap="round"/>
<polyline points="5065.5 4852 5075.5 4852 5083.6 4846.1 5091.7 4840.2 5094.8 4830.7 5091.7 4821.2 5099.8 4827.1 5091.7 4832.9 5099.8 4838.8 5109.8 4838.8 5099.8 4838.8 5091.7 4844.7 5088.6 4835.2 5091.7 4844.7 5094.8 4854.2 5091.7 4863.7 5083.6 4857.8 5075.5 4863.7 5072.4 4854.2 5080.5 4860.1 5088.6 4854.2 5085.5 4863.7 5093.6 4857.8 5085.5 4863.7 5075.5 4863.7 5067.4 4869.6 5077.4 4869.6 5074.3 4860.1 5077.4 4850.6 5080.5 4860.1 5072.4 4866 5064.3 4860.1 5072.4 4854.2 5075.5 4844.7 5072.4 4854.2 5064.3 4860.1 5072.4 4854.2 5064.3 4848.3 5061.2 4857.8 5058.1 4867.4 5050 4861.5 5047 4871 5038.9 4876.9" clip-path="url(#a)" fill="none" stroke="#000" stroke-linecap="round"/>
<polyline points="5038.9 4876.9 5042 4886.4 5038.9 4895.9 5030.8 4901.8 5033.9 4892.3 5030.8 4882.7 5027.7 4873.2 5035.8 4867.4 5045.8 4867.4 5037.7 4861.5 5034.6 4852 5031.5 4861.5 5034.6 4871 5026.5 4865.1 5023.4 4874.6 5031.5 4868.7 5028.4 4859.2 5025.3 4868.7 5028.4 4878.3 5038.4 4878.3 5030.3 4872.4 5038.4 4878.3 5048.4 4878.3 5045.3 4868.7 5053.4 4874.6 5063.4 4874.6 5066.5 4884.1 5058.4 4878.3 5066.5 4872.4 5069.6 4881.9 5072.7 4891.4 5075.8 4881.9 5067.7 4876 5070.8 4866.5 5073.9 4857 5070.8 4847.5 5073.9 4857 5070.8 4847.5 5078.9 4853.4 5075.8 4843.8 5065.8 4843.8 5055.8 4843.8 5052.7 4853.4" clip-path="url(#a)" fill="none" stroke="#000" stroke-linecap="round"/>
<polyline points="5052.7 4853.4 5062.7 4853.4 5059.6 4843.8 5056.5 4853.4 5053.4 4843.8 5045.3 4849.7 5037.2 4855.6 5045.3 4861.5 5037.2 4855.6 5029.1 4849.7 5019.1 4849.7 5011.1 4843.8 5014.1 4853.4 5011.1 4843.8 5014.1 4853.4 5024.1 4853.4 5014.1 4853.4 5011.1 4862.9 5003 4868.7 4999.9 4878.3 4989.9 4878.3 4986.8 4887.8 4976.8 4887.8 4979.9 4878.3 4988 4872.4 4979.9 4866.5 4988 4860.6 4991.1 4870.1 4994.1 4860.6 4984.1 4860.6 4976.1 4866.5 4966.1 4866.5 4956.1 4866.5 4964.1 4860.6 4961.1 4870.1 4964.1 4879.6 4967.2 4870.1 4975.3 4876 4972.2 4885.5 4975.3 4876 4983.4 4870.1 4993.4 4870.1 4996.5 4860.6" clip-path="url(#a)" fill="none" stroke="#000" stroke-linecap="round"/>
<polyline points="4996.5 4860.6 4988.4 4854.7 4978.4 4854.7 4981.5 4845.2 4991.5 4845.2 4999.6 4851.1 4996.5 4860.6 4986.5 4860.6 4989.6 4870.1 4999.6 4870.1 4991.5 4876 4983.4 4870.1 4986.5 4879.6 4978.4 4885.5 4981.5 4895 4984.6 4885.5 4992.7 4879.6 5000.8 4873.8 4997.7 4864.2 5007.7 4864.2 5010.8 4854.7 5000.8 4854.7 5003.9 4845.2 4993.9 4845.2 5003.9 4845.2 4995.8 4839.4 4987.7 4833.5 4990.8 4824 4987.7 4833.5 4984.6 4824 4981.5 4814.5 4973.4 4820.3 4970.3 4829.8 4973.4 4839.4 4983.4 4839.4 4986.5 4848.9 4989.6 4839.4 4992.7 4829.8 4984.6 4835.7 4987.7 4826.2 4990.8 4835.7 4987.7 4845.2 4995.8 4851.1" clip-path="url(#a)" fill="none" stroke="#000" stroke-linecap="round"/>
<polyline points="4995.8 4851.1 4985.8 4851.1 4975.8 4851.1 4978.9 4841.6 4982 4832.1 4985 4822.6 4975 4822.6 4972 4813.1 4975 4803.6 4972 4794 4968.9 4784.5 4972 4794 4975 4803.6 4972 4794 4980 4788.2 4972 4782.3 4982 4782.3 4972 4782.3 4975 4772.8 4972 4782.3 4962 4782.3 4965 4772.8 4962 4782.3 4970 4776.4 4978.1 4782.3 4968.1 4782.3 4971.2 4791.8 4963.1 4797.7 4960 4807.2 4970 4807.2 4973.1 4797.7 4965 4791.8 4962 4782.3 4965 4791.8 4955 4791.8 4947 4797.7 4937 4797.7 4933.9 4788.2 4930.8 4797.7 4938.9 4791.8 4930.8 4785.9 4938.9 4791.8 4930.8 4797.7" clip-path="url(#a)" fill="none" stroke="#000" stroke-linecap="round"/>
<polyline points="4930.8 4797.7 4920.8 4797.7 4923.9 4788.2 4927 4797.7 4918.9 4791.8 4927 4797.7 4930 4788.2 4933.1 4797.7 4930 4807.2 4927 4797.7 4923.9 4807.2 4915.8 4813.1 4907.7 4807.2 4899.6 4801.3 4907.7 4807.2 4904.6 4797.7 4901.5 4807.2 4893.4 4801.3 4896.5 4810.8 4886.5 4810.8 4876.5 4810.8 4873.4 4801.3 4865.3 4795.4 4873.4 4789.6 4876.5 4780 4868.4 4774.2 4860.3 4768.3 4870.3 4768.3 4873.4 4758.8 4865.3 4752.9 4873.4 4758.8 4863.4 4758.8 4860.3 4749.3 4857.2 4739.8 4860.3 4730.2 4850.3 4730.2 4853.4 4739.8 4845.3 4745.6 4853.4 4739.8 4850.3 4730.2 4842.2 4724.4 4845.3 4733.9 4848.4 4743.4" clip-path="url(#a)" fill="none" stroke="#000" stroke-linecap="round"/>
<polyline points="4848.4 4743.4 4851.5 4752.9 4841.5 4752.9 4844.6 4743.4 4854.6 4743.4 4857.7 4733.9 4854.6 4724.4 4851.5 4714.9 4843.4 4709 4833.4 4709 4841.5 4703.1 4844.6 4712.6 4852.7 4706.7 4855.8 4697.2 4852.7 4706.7 4855.8 4716.2 4845.8 4716.2 4855.8 4716.2 4865.8 4716.2 4873.9 4722.1 4865.8 4728 4868.9 4737.5 4858.9 4737.5 4867 4731.6 4863.9 4722.1 4872 4728 4868.9 4718.5 4872 4728 4868.9 4737.5 4872 4747 4875 4737.5 4865 4737.5 4857 4731.6 4867 4731.6 4870 4741.1 4862 4747 4858.9 4737.5 4850.8 4731.6 4858.9 4737.5 4862 4747 4858.9 4737.5 4850.8 4743.4 4858.9 4749.3" clip-path="url(#a)" fill="none" stroke="#000" stroke-linecap="round"/>
<polyline points="4858.9 4749.3 4867 4755.1 4858.9 4761 4867 4766.9 4870 4776.4 4880 4776.4 4888.1 4782.3 4891.2 4791.8 4883.1 4785.9 4873.1 4785.9 4863.1 4785.9 4860 4776.4 4863.1 4766.9 4855 4772.8 4845 4772.8 4853.1 4778.7 4863.1 4778.7 4855 4784.5 4863.1 4790.4 4860 4780.9 4850 4780.9 4858.1 4786.8 4868.1 4786.8 4871.2 4777.3 4863.1 4783.1 4871.2 4777.3 4874.3 4767.8 4864.3 4767.8 4872.4 4761.9 4875.5 4752.4 4885.5 4752.4 4877.4 4758.2 4874.3 4748.7 4884.3 4748.7 4894.3 4748.7 4886.2 4742.9 4878.1 4748.7 4870 4742.9 4862 4737 4852 4737 4862 4737 4852 4737 4860 4731.1" clip-path="url(#a)" fill="none" stroke="#000" stroke-linecap="round"/>
<polyline points="4860 4731.1 4850 4731.1 4847 4740.6 4843.9 4750.1 4852 4756 4855 4746.5 4845 4746.5 4853.1 4752.4 4843.1 4752.4 4846.2 4761.9 4849.3 4771.4 4857.4 4765.5 4849.3 4771.4 4841.2 4777.3 4838.1 4786.8 4830 4792.7 4840 4792.7 4830 4792.7 4840 4792.7 4843.1 4783.1 4840 4792.7 4848.1 4798.5 4851.2 4808 4859.3 4813.9 4856.2 4823.4 4864.3 4829.3 4861.2 4838.8 4853.1 4832.9 4850 4823.4 4842 4829.3 4838.9 4819.8 4848.9 4819.8 4840.8 4813.9 4837.7 4823.4 4840.8 4832.9 4837.7 4842.5 4834.6 4852 4831.5 4842.5 4839.6 4848.3 4849.6 4848.3 4841.5 4842.5 4849.6 4836.6 4857.7 4842.5" clip-path="url(#a)" fill="none" stroke="#000" stroke-linecap="round"/>
<polyline points="4857.7 4842.5 4849.6 4836.6 4846.5 4827.1 4849.6 4817.6 4841.5 4811.7 4833.4 4817.6 4830.3 4827.1 4822.2 4821.2 4825.3 4811.7 4833.4 4805.8 4841.5 4811.7 4838.4 4821.2 4848.4 4821.2 4851.5 4811.7 4854.6 4821.2 4846.5 4827.1 4856.5 4827.1 4859.6 4836.6 4869.6 4836.6 4861.5 4830.7 4858.4 4821.2 4855.3 4811.7 4845.3 4811.7 4848.4 4802.2 4840.3 4796.3 4837.2 4805.8 4829.1 4799.9 4826.1 4809.4 4829.1 4799.9 4821.1 4805.8 4813 4811.7 4804.9 4805.8 4813 4811.7 4803 4811.7 4793 4811.7 4796.1 4821.2 4804.1 4827.1 4814.1 4827.1 4817.2 4817.6 4827.2 4817.6 4819.1 4811.7 4811.1 4805.8 4814.1 4815.3" clip-path="url(#a)" fill="none" stroke="#000" stroke-linecap="round"/>
<polyline points="4814.1 4815.3 4806.1 4809.4 4816.1 4809.4 4824.1 4815.3 4832.2 4809.4 4829.1 4818.9 4826.1 4828.5 4818 4822.6 4809.9 4816.7 4801.8 4810.8 4798.7 4820.3 4788.7 4820.3 4780.6 4814.5 4770.6 4814.5 4760.6 4814.5 4770.6 4814.5 4780.6 4814.5 4770.6 4814.5 4767.5 4804.9 4759.4 4810.8 4762.5 4801.3 4759.4 4810.8 4751.3 4804.9 4759.4 4810.8 4756.3 4820.3 4748.2 4814.5 4756.3 4820.3 4753.2 4810.8 4761.3 4804.9 4758.2 4814.5 4768.2 4814.5 4771.3 4824 4779.4 4829.8 4782.5 4820.3 4774.4 4814.5 4766.3 4820.3 4756.3 4820.3 4766.3 4820.3 4763.2 4829.8 4766.3 4839.4 4763.2 4848.9 4753.2 4848.9 4761.3 4854.7" clip-path="url(#a)" fill="none" stroke="#000" stroke-linecap="round"/>
<polyline points="4761.3 4854.7 4758.2 4845.2 4750.2 4851.1 4758.2 4845.2 4761.3 4854.7 4758.2 4864.2 4750.2 4858.4 4760.2 4858.4 4752.1 4864.2 4760.2 4858.4 4752.1 4852.5 4762.1 4852.5 4770.2 4858.4 4760.2 4858.4 4768.2 4864.2 4771.3 4873.8 4763.2 4879.6 4755.2 4885.5 4763.2 4879.6 4753.2 4879.6 4761.3 4885.5 4753.2 4891.4 4763.2 4891.4 4760.2 4900.9 4757.1 4910.4 4747.1 4910.4 4739 4916.3 4735.9 4906.8 4727.8 4900.9 4719.7 4906.8 4711.6 4912.7 4714.7 4903.1 4706.6 4897.3 4698.5 4903.1 4706.6 4897.3 4703.5 4906.8 4693.5 4906.8 4683.5 4906.8 4675.4 4900.9 4672.3 4910.4 4682.3 4910.4 4685.4 4919.9 4682.3 4910.4" clip-path="url(#a)" fill="none" stroke="#000" stroke-linecap="round"/>
<polyline points="4682.3 4910.4 4672.3 4910.4 4664.3 4916.3 4674.3 4916.3 4684.3 4916.3 4694.3 4916.3 4691.2 4925.8 4683.1 4919.9 4686.2 4910.4 4678.1 4904.5 4668.1 4904.5 4658.1 4904.5 4650 4910.4 4646.9 4919.9 4643.8 4910.4 4653.8 4910.4 4650.7 4900.9 4642.6 4895 4650.7 4900.9 4660.7 4900.9 4657.6 4910.4 4660.7 4900.9 4663.8 4891.4 4671.9 4885.5 4675 4895 4685 4895 4681.9 4904.5 4678.8 4895 4668.8 4895 4676.9 4889.1 4666.9 4889.1 4676.9 4889.1 4685 4895 4695 4895 4686.9 4889.1 4683.8 4898.7 4675.7 4904.5 4678.8 4895 4688.8 4895 4691.9 4904.5 4681.9 4904.5 4673.8 4910.4 4681.9 4904.5" clip-path="url(#a)" fill="none" stroke="#000" stroke-linecap="round"/>
<polyline points="4681.9 4904.5 4691.9 4904.5 4681.9 4904.5 4685 4914 4693.1 4908.2 4701.2 4902.3 4704.3 4911.8 4712.3 4905.9 4722.3 4905.9 4725.4 4896.4 4733.5 4890.5 4743.5 4890.5 4735.4 4896.4 4732.3 4905.9 4729.3 4915.4 4719.3 4915.4 4711.2 4909.6 4714.3 4919.1 4711.2 4928.6 4719.3 4922.7 4722.3 4913.2 4725.4 4922.7 4733.5 4916.8 4723.5 4916.8 4720.4 4926.3 4728.5 4920.5 4731.6 4910.9 4723.5 4905.1 4726.6 4914.6 4723.5 4905.1 4715.4 4899.2 4712.3 4908.7 4709.3 4899.2 4701.2 4893.3 4704.3 4883.8 4707.3 4893.3 4697.3 4893.3 4700.4 4883.8 4703.5 4874.3 4695.4 4880.2 4698.5 4889.7 4690.4 4895.6 4682.3 4901.4" clip-path="url(#a)" fill="none" stroke="#000" stroke-linecap="round"/>
<polyline points="4682.3 4901.4 4679.3 4910.9 4682.3 4901.4 4679.3 4910.9 4676.2 4901.4 4673.1 4910.9 4681.2 4916.8 4689.3 4922.7 4697.3 4916.8 4689.3 4910.9 4686.2 4920.5 4694.3 4914.6 4691.2 4924.1 4701.2 4924.1 4711.2 4924.1 4708.1 4914.6 4711.2 4924.1 4714.3 4933.6 4722.3 4939.5 4725.4 4949 4728.5 4939.5 4725.4 4949 4728.5 4939.5 4720.4 4933.6 4728.5 4939.5 4736.6 4933.6 4746.6 4933.6 4754.7 4927.7 4762.8 4933.6 4770.9 4927.7 4779 4933.6 4770.9 4939.5 4760.9 4939.5 4764 4949 4754 4949 4757.1 4939.5 4749 4945.4 4757.1 4951.2 4767.1 4951.2 4775.2 4957.1 4783.2 4963 4773.2 4963 4781.3 4957.1" clip-path="url(#a)" fill="none" stroke="#000" stroke-linecap="round"/>
<polyline points="4781.3 4957.1 4784.4 4947.6 4776.3 4953.5 4773.2 4944 4781.3 4938.1 4773.2 4944 4763.2 4944 4755.2 4938.1 4747.1 4944 4750.2 4953.5 4758.2 4959.4 4750.2 4965.2 4742.1 4959.4 4739 4949.8 4747.1 4944 4755.2 4949.8 4758.2 4940.3 4750.2 4934.5 4760.2 4934.5 4763.2 4944 4766.3 4934.5 4776.3 4934.5 4779.4 4924.9 4771.3 4930.8 4761.3 4930.8 4751.3 4930.8 4748.2 4940.3 4740.2 4934.5 4732.1 4940.3 4740.2 4946.2 4732.1 4952.1 4740.2 4958 4732.1 4952.1 4735.2 4961.6 4738.2 4971.1 4730.2 4977 4738.2 4971.1 4735.2 4980.6 4732.1 4990.1 4742.1 4990.1 4750.2 4984.3 4753.2 4974.7 4745.2 4968.9" clip-path="url(#a)" fill="none" stroke="#000" stroke-linecap="round"/>
<polyline points="4745.2 4968.9 4748.2 4959.4 4740.2 4965.2 4732.1 4971.1 4742.1 4971.1 4734 4977 4737.1 4967.5 4745.2 4961.6 4742.1 4952.1 4750.2 4958 4758.2 4963.8 4750.2 4969.7 4742.1 4975.6 4734 4981.5 4742.1 4987.4 4739 4996.9 4730.9 5002.7 4727.8 5012.3 4724.7 5021.8 4727.8 5012.3 4730.9 5002.7 4727.8 5012.3 4717.8 5012.3 4720.9 5021.8 4712.8 5015.9 4720.9 5021.8 4712.8 5027.6 4720.9 5021.8 4729 5027.6 4720.9 5033.5 4729 5027.6 4719 5027.6 4715.9 5018.1 4724 5024 4727.1 5014.5 4737.1 5014.5 4745.2 5008.6 4737.1 5002.7 4729 5008.6 4732.1 5018.1 4729 5027.6 4732.1 5018.1 4740.2 5024" clip-path="url(#a)" fill="none" stroke="#000" stroke-linecap="round"/>
<polyline points="4740.2 5024 4750.2 5024 4758.2 5029.9 4755.2 5039.4 4763.2 5033.5 4753.2 5033.5 4756.3 5043 4753.2 5033.5 4763.2 5033.5 4771.3 5039.4 4763.2 5045.3 4766.3 5035.8 4769.4 5045.3 4766.3 5035.8 4758.2 5041.6 4761.3 5032.1 4769.4 5026.3 4766.3 5035.8 4774.4 5029.9 4784.4 5029.9 4787.5 5039.4 4790.6 5048.9 4787.5 5039.4 4784.4 5048.9 4792.5 5043 4795.6 5052.5 4798.7 5043 4806.8 5048.9 4814.9 5054.8 4811.8 5064.3 4814.9 5073.8 4804.9 5073.8 4796.8 5079.7 4799.9 5089.2 4803 5098.7 4794.9 5092.8 4786.8 5098.7 4789.9 5108.2 4786.8 5098.7 4794.9 5104.6 4791.8 5114.1 4788.7 5123.6 4780.6 5129.5" clip-path="url(#a)" fill="none" stroke="#000" stroke-linecap="round"/>
<polyline points="4780.6 5129.5 4788.7 5135.4 4791.8 5125.9 4801.8 5125.9 4791.8 5125.9 4788.7 5135.4 4791.8 5144.9 4794.9 5135.4 4798 5125.9 4801.1 5116.3 4809.1 5122.2 4801.1 5128.1 4793 5122.2 4784.9 5128.1 4781.8 5137.6 4778.7 5147.1 4781.8 5156.6 4789.9 5162.5 4779.9 5162.5 4783 5153 4773 5153 4764.9 5158.9 4773 5153 4776.1 5143.5 4784.1 5149.4 4776.1 5143.5 4768 5137.6 4764.9 5128.1 4774.9 5128.1 4778 5118.6 4786.1 5124.5 4776.1 5124.5 4773 5134 4769.9 5124.5 4766.8 5134 4769.9 5124.5 4778 5118.6 4781.1 5109.1 4773 5115 4781.1 5120.8 4784.1 5130.3 4776.1 5124.5 4779.1 5115" clip-path="url(#a)" fill="none" stroke="#000" stroke-linecap="round"/>
<polyline points="4779.1 5115 4789.1 5115 4786.1 5124.5 4789.1 5134 4786.1 5124.5 4789.1 5115 4786.1 5124.5 4796.1 5124.5 4793 5115 4789.9 5105.4 4799.9 5105.4 4796.8 5095.9 4799.9 5086.4 4791.8 5080.5 4788.7 5071 4791.8 5061.5 4794.9 5071 4803 5076.9 4811.1 5082.8 4808 5092.3 4799.9 5098.2 4809.9 5098.2 4818 5104.1 4814.9 5094.5 4806.8 5088.7 4816.8 5088.7 4813.7 5079.2 4810.6 5088.7 4818.7 5094.5 4815.6 5085 4807.5 5079.2 4799.4 5085 4809.4 5085 4799.4 5085 4791.3 5090.9 4799.4 5096.8 4789.4 5096.8 4781.3 5102.7 4773.2 5096.8 4783.2 5096.8 4780.2 5106.3 4772.1 5100.4 4764 5094.5" clip-path="url(#a)" fill="none" stroke="#000" stroke-linecap="round"/>
<polyline points="4764 5094.5 4767.1 5104.1 4777.1 5104.1 4780.2 5113.6 4783.2 5123.1 4791.3 5129 4783.2 5123.1 4791.3 5129 4781.3 5129 4789.4 5134.8 4797.5 5129 4805.6 5123.1 4802.5 5113.6 4794.4 5119.4 4802.5 5125.3 4799.4 5115.8 4807.5 5121.7 4810.6 5112.2 4813.7 5102.7 4803.7 5102.7 4813.7 5102.7 4823.7 5102.7 4831.8 5096.8 4841.8 5096.8 4833.7 5090.9 4841.8 5096.8 4833.7 5090.9 4825.6 5096.8 4833.7 5090.9 4830.6 5081.4 4833.7 5071.9 4830.6 5062.4 4838.7 5056.5 4835.6 5047 4843.7 5041.1 4846.8 5050.6 4843.7 5060.1 4853.7 5060.1 4850.6 5069.6 4842.5 5063.8 4845.6 5073.3 4853.7 5067.4 4856.8 5057.9" clip-path="url(#a)" fill="none" stroke="#000" stroke-linecap="round"/>
<polyline points="4856.8 5057.9 4864.9 5052 4873 5046.1 4869.9 5055.6 4866.8 5046.1 4858.7 5040.3 4861.8 5049.8 4851.8 5049.8 4848.7 5040.3 4851.8 5049.8 4848.7 5059.3 4840.6 5065.2 4843.7 5074.7 4853.7 5074.7 4861.8 5068.8 4864.9 5078.3 4856.8 5084.2 4846.8 5084.2 4843.7 5074.7 4851.8 5068.8 4843.7 5062.9 4835.6 5068.8 4838.7 5059.3 4848.7 5059.3 4840.6 5053.4 4843.7 5043.9 4835.6 5038 4838.7 5047.5 4835.6 5057 4832.5 5066.5 4840.6 5072.4 4832.5 5078.3 4835.6 5087.8 4843.7 5081.9 4846.8 5091.4 4854.9 5085.6 4846.8 5091.4 4856.8 5091.4 4866.8 5091.4 4869.9 5101 4866.8 5091.4 4874.9 5097.3 4883 5103.2" clip-path="url(#a)" fill="none" stroke="#000" stroke-linecap="round"/>
<polyline points="4883 5103.2 4886.1 5093.7 4883 5084.2 4874.9 5078.3 4866.8 5084.2 4858.7 5078.3 4861.8 5087.8 4864.9 5097.3 4868 5087.8 4871.1 5097.3 4863 5091.4 4859.9 5081.9 4849.9 5081.9 4858 5076.1 4866.1 5070.2 4869.1 5079.7 4872.2 5089.2 4875.3 5098.7 4883.4 5092.8 4891.5 5098.7 4894.6 5108.2 4902.7 5114.1 4910.8 5120 4902.7 5114.1 4894.6 5108.2 4902.7 5114.1 4899.6 5123.6 4909.6 5123.6 4901.5 5129.5 4909.6 5123.6 4912.7 5133.1 4909.6 5123.6 4917.7 5117.7 4920.8 5127.2 4917.7 5117.7 4914.6 5127.2 4904.6 5127.2 4912.7 5121.4 4904.6 5115.5 4907.7 5106 4904.6 5096.5 4896.5 5102.3 4899.6 5111.9" clip-path="url(#a)" fill="none" stroke="#000" stroke-linecap="round"/>
<polyline points="4899.6 5111.9 4909.6 5111.9 4917.7 5117.7 4909.6 5111.9 4917.7 5106 4920.8 5096.5 4928.9 5090.6 4937 5096.5 4933.9 5087 4930.8 5096.5 4940.8 5096.5 4930.8 5096.5 4933.9 5087 4942 5081.1 4945 5090.6 4937 5084.7 4947 5084.7 4937 5084.7 4940 5094.2 4932 5088.3 4928.9 5078.8 4937 5084.7 4933.9 5075.2 4937 5065.7 4947 5065.7 4957 5065.7 4947 5065.7 4955 5071.6 4952 5062.1 4962 5062.1 4953.9 5056.2 4962 5050.3 4970 5044.4 4978.1 5050.3 4988.1 5050.3 4985 5059.8 4988.1 5069.3 4998.1 5069.3 5008.1 5069.3 5e3 5075.2 5003.1 5084.7 5013.1 5084.7 5003.1 5084.7" clip-path="url(#a)" fill="none" stroke="#000" stroke-linecap="round"/>
<polyline points="5003.1 5084.7 5011.2 5078.8 5019.3 5084.7 5027.4 5090.6 5030.5 5100.1 5038.6 5094.2 5030.5 5088.3 5033.6 5078.8 5030.5 5088.3 5038.6 5094.2 5048.6 5094.2 5040.5 5088.3 5032.4 5082.5 5024.3 5076.6 5032.4 5070.7 5035.5 5080.2 5027.4 5086.1 5030.5 5095.6 5038.6 5101.5 5046.7 5107.4 5056.7 5107.4 5064.8 5101.5 5061.7 5111 5053.6 5105.1 5050.5 5114.6 5053.6 5124.1 5050.5 5114.6 5042.4 5108.7 5050.5 5102.9 5042.4 5108.7 5034.3 5114.6 5024.3 5114.6 5027.4 5105.1 5019.3 5099.2 5027.4 5093.4 5024.3 5102.9 5032.4 5108.7 5022.4 5108.7 5030.5 5114.6 5022.4 5108.7 5019.3 5099.2 5011.2 5093.4 5014.3 5102.9" clip-path="url(#a)" fill="none" stroke="#000" stroke-linecap="round"/>
<polyline points="5014.3 5102.9 5022.4 5097 5032.4 5097 5024.3 5102.9 5016.2 5097 5019.3 5087.5 5027.4 5093.4 5037.4 5093.4 5027.4 5093.4 5019.3 5087.5 5027.4 5093.4 5030.5 5083.8 5020.5 5083.8 5010.5 5083.8 5013.6 5074.3 5003.6 5074.3 4995.5 5068.5 4987.4 5074.3 4977.4 5074.3 4969.3 5068.5 4979.3 5068.5 4987.4 5062.6 4995.5 5056.7 5003.6 5062.6 5006.7 5072.1 5009.8 5062.6 5017.9 5056.7 5007.9 5056.7 4999.8 5062.6 5002.9 5053.1 4992.9 5053.1 5001 5059 5009 5053.1 4999 5053.1 4991 5059 4994 5068.5 4997.1 5059 4994 5068.5 4997.1 5078 5005.2 5072.1 5002.1 5081.6 5005.2 5091.1 4997.1 5097" clip-path="url(#a)" fill="none" stroke="#000" stroke-linecap="round"/>
<polyline points="4997.1 5097 5000.2 5087.5 5008.3 5093.4 5000.2 5099.2 4992.1 5105.1 5002.1 5105.1 5005.2 5095.6 5015.2 5095.6 5025.2 5095.6 5033.3 5089.7 5025.2 5095.6 5033.3 5089.7 5030.2 5099.2 5038.3 5093.4 5035.2 5083.8 5032.1 5074.3 5022.1 5074.3 5025.2 5083.8 5033.3 5078 5023.3 5078 5031.4 5072.1 5023.3 5066.2 5015.2 5060.3 5012.1 5069.8 5015.2 5060.3 5018.3 5050.8 5015.2 5041.3 5018.3 5031.8 5010.2 5037.7 5018.3 5031.8 5010.2 5037.7 5013.3 5047.2 5010.2 5037.7 5000.2 5037.7 4992.1 5031.8 4982.1 5031.8 4979 5022.3 4969 5022.3 4966 5012.8 4976 5012.8 4984 5018.7 4987.1 5009.2 4995.2 5015" clip-path="url(#a)" fill="none" stroke="#000" stroke-linecap="round"/>
<polyline points="4995.2 5015 4987.1 5020.9 4997.1 5020.9 4994 5011.4 4986 5005.5 4982.9 4996 4979.8 4986.5 4987.9 4992.4 4977.9 4992.4 4969.8 4998.3 4979.8 4998.3 4976.7 5007.8 4966.7 5007.8 4976.7 5007.8 4984.8 5013.6 4987.9 5023.2 4997.9 5023.2 5001 5013.6 4997.9 5004.1 5007.9 5004.1 5011 5013.6 5007.9 5023.2 4997.9 5023.2 4994.8 5013.6 4986.7 5019.5 4989.8 5029 4981.7 5023.2 4984.8 5013.6 4976.7 5019.5 4968.6 5013.6 4960.5 5019.5 4970.5 5019.5 4978.6 5025.4 4986.7 5031.3 4994.8 5025.4 4997.9 5034.9 5007.9 5034.9 5004.8 5025.4 5014.8 5025.4 5011.7 5015.9 5014.8 5025.4 5017.9 5015.9 5021 5006.4" clip-path="url(#a)" fill="none" stroke="#000" stroke-linecap="round"/>
<polyline points="5021 5006.4 5031 5006.4 5021 5006.4 5029 5000.5 5037.1 4994.6 5029 4988.7 5019 4988.7 5011 4994.6 5014 5004.1 5006 5010 5016 5010 5026 5010 5017.9 5004.1 5027.9 5004.1 5019.8 5010 5009.8 5010 5006.7 5019.5 5003.6 5010 5000.5 5000.5 5010.5 5000.5 5020.5 5000.5 5030.5 5000.5 5027.4 4991 5035.5 4985.1 5045.5 4985.1 5053.6 4979.2 5061.7 4973.4 5053.6 4979.2 5045.5 4985.1 5053.6 4979.2 5061.7 4985.1 5064.8 4975.6 5067.9 4985.1 5064.8 4975.6 5074.8 4975.6 5064.8 4975.6 5061.7 4966.1 5071.7 4966.1 5061.7 4966.1 5069.8 4972 5066.7 4981.5 5063.6 4972 5055.5 4977.8" clip-path="url(#a)" fill="none" stroke="#000" stroke-linecap="round"/>
<polyline points="5055.5 4977.8 5047.4 4972 5037.4 4972 5040.5 4981.5 5050.5 4981.5 5053.6 4972 5061.7 4966.1 5053.6 4972 5050.5 4962.5 5042.4 4956.6 5039.3 4947.1 5047.4 4941.2 5037.4 4941.2 5045.5 4947.1 5048.6 4937.6 5045.5 4947.1 5037.4 4941.2 5034.3 4931.7 5044.3 4931.7 5036.2 4937.6 5039.3 4928 5036.2 4937.6 5046.2 4937.6 5038.1 4943.4 5028.1 4943.4 5036.2 4937.6 5026.2 4937.6 5018.1 4931.7 5021.2 4922.2 5024.3 4912.7 5021.2 4922.2 5029.3 4916.3 5019.3 4916.3 5022.4 4906.8 5014.3 4912.7 5011.2 4903.1 5008.1 4893.6 5016.2 4887.8 5019.3 4878.3 5027.4 4884.1 5037.4 4884.1 5040.5 4874.6 5043.6 4865.1" clip-path="url(#a)" fill="none" stroke="#000" stroke-linecap="round"/>
<polyline points="5043.6 4865.1 5046.7 4874.6 5056.7 4874.6 5059.8 4865.1 5056.7 4874.6 5053.6 4865.1 5061.7 4859.2 5069.8 4853.4 5079.8 4853.4 5076.7 4843.8 5068.6 4849.7 5060.5 4843.8 5068.6 4849.7 5076.7 4843.8 5079.8 4834.3 5071.7 4840.2 5063.6 4846.1 5055.5 4852 5052.4 4842.5 5062.4 4842.5 5065.5 4852 5075.5 4852 5083.6 4846.1 5091.7 4840.2 5094.8 4830.7 5091.7 4821.2 5099.8 4827.1 5091.7 4832.9 5099.8 4838.8 5109.8 4838.8 5099.8 4838.8 5091.7 4844.7 5088.6 4835.2 5091.7 4844.7 5094.8 4854.2 5091.7 4863.7 5083.6 4857.8 5075.5 4863.7 5072.4 4854.2 5080.5 4860.1 5088.6 4854.2 5085.5 4863.7 5093.6 4857.8" clip-path="url(#a)" fill="none" stroke="#000" stroke-linecap="round"/>
<polyline points="5093.6 4857.8 5085.5 4863.7 5075.5 4863.7 5067.4 4869.6 5077.4 4869.6 5074.3 4860.1 5077.4 4850.6 5080.5 4860.1 5072.4 4866 5064.3 4860.1 5072.4 4854.2 5075.5 4844.7 5072.4 4854.2 5064.3 4860.1 5072.4 4854.2 5064.3 4848.3 5061.2 4857.8 5058.1 4867.4 5050 4861.5 5047 4871 5038.9 4876.9 5042 4886.4 5038.9 4895.9 5030.8 4901.8 5033.9 4892.3 5030.8 4882.7 5027.7 4873.2 5035.8 4867.4 5045.8 4867.4 5037.7 4861.5 5034.6 4852 5031.5 4861.5 5034.6 4871 5026.5 4865.1 5023.4 4874.6 5031.5 4868.7 5028.4 4859.2 5025.3 4868.7 5028.4 4878.3 5038.4 4878.3 5030.3 4872.4 5038.4 4878.3 5048.4 4878.3" clip-path="url(#a)" fill="none" stroke="#000" stroke-linecap="round"/>
<polyline points="5048.4 4878.3 5045.3 4868.7 5053.4 4874.6 5063.4 4874.6 5066.5 4884.1 5058.4 4878.3 5066.5 4872.4 5069.6 4881.9 5072.7 4891.4 5075.8 4881.9 5067.7 4876 5070.8 4866.5 5073.9 4857 5070.8 4847.5 5073.9 4857 5070.8 4847.5 5078.9 4853.4 5075.8 4843.8 5065.8 4843.8 5055.8 4843.8 5052.7 4853.4 5062.7 4853.4 5059.6 4843.8 5056.5 4853.4 5053.4 4843.8 5045.3 4849.7 5037.2 4855.6 5045.3 4861.5 5037.2 4855.6 5029.1 4849.7 5019.1 4849.7 5011.1 4843.8 5014.1 4853.4 5011.1 4843.8 5014.1 4853.4 5024.1 4853.4 5014.1 4853.4 5011.1 4862.9 5003 4868.7 4999.9 4878.3 4989.9 4878.3 4986.8 4887.8 4976.8 4887.8" clip-path="url(#a)" fill="none" stroke="#000" stroke-linecap="round"/>
<polyline points="4976.8 4887.8 4979.9 4878.3 4988 4872.4 4979.9 4866.5 4988 4860.6 4991.1 4870.1 4994.1 4860.6 4984.1 4860.6 4976.1 4866.5 4966.1 4866.5 4956.1 4866.5 4964.1 4860.6 4961.1 4870.1 4964.1 4879.6 4967.2 4870.1 4975.3 4876 4972.2 4885.5 4975.3 4876 4983.4 4870.1 4993.4 4870.1 4996.5 4860.6 4988.4 4854.7 4978.4 4854.7 4981.5 4845.2 4991.5 4845.2 4999.6 4851.1 4996.5 4860.6 4986.5 4860.6 4989.6 4870.1 4999.6 4870.1 4991.5 4876 4983.4 4870.1 4986.5 4879.6 4978.4 4885.5 4981.5 4895 4984.6 4885.5 4992.7 4879.6 5000.8 4873.8 4997.7 4864.2 5007.7 4864.2 5010.8 4854.7 5000.8 4854.7 5003.9 4845.2" clip-path="url(#a)" fill="none" stroke="#000" stroke-linecap="round"/>
<polyline points="5003.9 4845.2 4993.9 4845.2 5003.9 4845.2 4995.8 4839.4 4987.7 4833.5 4990.8 4824 4987.7 4833.5 4984.6 4824 4981.5 4814.5 4973.4 4820.3 4970.3 4829.8 4973.4 4839.4 4983.4 4839.4 4986.5 4848.9 4989.6 4839.4 4992.7 4829.8 4984.6 4835.7 4987.7 4826.2 4990.8 4835.7 4987.7 4845.2 4995.8 4851.1 4985.8 4851.1 4975.8 4851.1 4978.9 4841.6 4982 4832.1 4985 4822.6 4975 4822.6 4972 4813.1 4975 4803.6 4972 4794 4968.9 4784.5 4972 4794 4975 4803.6 4972 4794 4980 4788.2 4972 4782.3 4982 4782.3 4972 4782.3 4975 4772.8 4972 4782.3 4962 4782.3 4965 4772.8 4962 4782.3" clip-path="url(#a)" fill="none" stroke="#000" stroke-linecap="round"/>
<polyline points="4962 4782.3 4970 4776.4 4978.1 4782.3 4968.1 4782.3 4971.2 4791.8 4963.1 4797.7 4960 4807.2 4970 4807.2 4973.1 4797.7 4965 4791.8 4962 4782.3 4965 4791.8 4955 4791.8 4947 4797.7 4937 4797.7 4933.9 4788.2 4930.8 4797.7 4938.9 4791.8 4930.8 4785.9 4938.9 4791.8 4930.8 4797.7 4920.8 4797.7 4923.9 4788.2 4927 4797.7 4918.9 4791.8 4927 4797.7 4930 4788.2 4933.1 4797.7 4930 4807.2 4927 4797.7 4923.9 4807.2 4915.8 4813.1 4907.7 4807.2 4899.6 4801.3 4907.7 4807.2 4904.6 4797.7 4901.5 4807.2 4893.4 4801.3 4896.5 4810.8 4886.5 4810.8 4876.5 4810.8 4873.4 4801.3 4865.3 4795.4" clip-path="url(#a)" fill="none" stroke="#000" stroke-linecap="round"/>
<polyline points="4865.3 4795.4 4873.4 4789.6 4876.5 4780 4868.4 4774.2 4860.3 4768.3 4870.3 4768.3 4873.4 4758.8 4865.3 4752.9 4873.4 4758.8 4863.4 4758.8 4860.3 4749.3 4857.2 4739.8 4860.3 4730.2 4850.3 4730.2 4853.4 4739.8 4845.3 4745.6 4853.4 4739.8 4850.3 4730.2 4842.2 4724.4 4845.3 4733.9 4848.4 4743.4 4851.5 4752.9 4841.5 4752.9 4844.6 4743.4 4854.6 4743.4 4857.7 4733.9 4854.6 4724.4 4851.5 4714.9 4843.4 4709 4833.4 4709 4841.5 4703.1 4844.6 4712.6 4852.7 4706.7 4855.8 4697.2 4852.7 4706.7 4855.8 4716.2 4845.8 4716.2 4855.8 4716.2 4865.8 4716.2 4873.9 4722.1 4865.8 4728 4868.9 4737.5 4858.9 4737.5" clip-path="url(#a)" fill="none" stroke="#000" stroke-linecap="round"/>
<polyline points="4858.9 4737.5 4867 4731.6 4863.9 4722.1 4872 4728 4868.9 4718.5 4872 4728 4868.9 4737.5 4872 4747 4875 4737.5 4865 4737.5 4857 4731.6 4867 4731.6 4870 4741.1 4862 4747 4858.9 4737.5 4850.8 4731.6 4858.9 4737.5 4862 4747 4858.9 4737.5 4850.8 4743.4 4858.9 4749.3 4867 4755.1 4858.9 4761 4867 4766.9 4870 4776.4 4880 4776.4 4888.1 4782.3 4891.2 4791.8 4883.1 4785.9 4873.1 4785.9 4863.1 4785.9 4860 4776.4 4863.1 4766.9 4855 4772.8 4845 4772.8 4853.1 4778.7 4863.1 4778.7 4855 4784.5 4863.1 4790.4 4860 4780.9 4850 4780.9 4858.1 4786.8 4868.1 4786.8" clip-path="url(#a)" fill="none" stroke="#000" stroke-linecap="round"/>
<polyline points="4868.1 4786.8 4871.2 4777.3 4863.1 4783.1 4871.2 4777.3 4874.3 4767.8 4864.3 4767.8 4872.4 4761.9 4875.5 4752.4 4885.5 4752.4 4877.4 4758.2 4874.3 4748.7 4884.3 4748.7 4894.3 4748.7 4886.2 4742.9 4878.1 4748.7 4870 4742.9 4862 4737 4852 4737 4862 4737 4852 4737 4860 4731.1 4850 4731.1 4847 4740.6 4843.9 4750.1 4852 4756 4855 4746.5 4845 4746.5 4853.1 4752.4 4843.1 4752.4 4846.2 4761.9 4849.3 4771.4 4857.4 4765.5 4849.3 4771.4 4841.2 4777.3 4838.1 4786.8 4830 4792.7 4840 4792.7 4830 4792.7 4840 4792.7 4843.1 4783.1 4840 4792.7 4848.1 4798.5 4851.2 4808" clip-path="url(#a)" fill="none" stroke="#000" stroke-linecap="round"/>
<polyline points="4851.2 4808 4859.3 4813.9 4856.2 4823.4 4864.3 4829.3 4861.2 4838.8 4853.1 4832.9 4850 4823.4 4842 4829.3 4838.9 4819.8 4848.9 4819.8 4840.8 4813.9 4837.7 4823.4 4840.8 4832.9 4837.7 4842.5 4834.6 4852 4831.5 4842.5 4839.6 4848.3 4849.6 4848.3 4841.5 4842.5 4849.6 4836.6 4857.7 4842.5 4849.6 4836.6 4846.5 4827.1 4849.6 4817.6 4841.5 4811.7 4833.4 4817.6 4830.3 4827.1 4822.2 4821.2 4825.3 4811.7 4833.4 4805.8 4841.5 4811.7 4838.4 4821.2 4848.4 4821.2 4851.5 4811.7 4854.6 4821.2 4846.5 4827.1 4856.5 4827.1 4859.6 4836.6 4869.6 4836.6 4861.5 4830.7 4858.4 4821.2 4855.3 4811.7 4845.3 4811.7" clip-path="url(#a)" fill="none" stroke="#000" stroke-linecap="round"/>
<polyline points="4845.3 4811.7 4848.4 4802.2 4840.3 4796.3 4837.2 4805.8 4829.1 4799.9 4826.1 4809.4 4829.1 4799.9 4821.1 4805.8 4813 4811.7 4804.9 4805.8 4813 4811.7 4803 4811.7 4793 4811.7 4796.1 4821.2 4804.1 4827.1 4814.1 4827.1 4817.2 4817.6 4827.2 4817.6 4819.1 4811.7 4811.1 4805.8 4814.1 4815.3 4806.1 4809.4 4816.1 4809.4 4824.1 4815.3 4832.2 4809.4 4829.1 4818.9 4826.1 4828.5 4818 4822.6 4809.9 4816.7 4801.8 4810.8 4798.7 4820.3 4788.7 4820.3 4780.6 4814.5 4770.6 4814.5 4760.6 4814.5 4770.6 4814.5 4780.6 4814.5 4770.6 4814.5 4767.5 4804.9 4759.4 4810.8 4762.5 4801.3 4759.4 4810.8 4751.3 4804.9" clip-path="url(#a)" fill="none" stroke="#000" stroke-linecap="round"/>
<polyline points="4751.3 4804.9 4759.4 4810.8 4756.3 4820.3 4748.2 4814.5 4756.3 4820.3 4753.2 4810.8 4761.3 4804.9 4758.2 4814.5 4768.2 4814.5 4771.3 4824 4779.4 4829.8 4782.5 4820.3 4774.4 4814.5 4766.3 4820.3 4756.3 4820.3 4766.3 4820.3 4763.2 4829.8 4766.3 4839.4 4763.2 4848.9 4753.2 4848.9 4761.3 4854.7 4758.2 4845.2 4750.2 4851.1 4758.2 4845.2 4761.3 4854.7 4758.2 4864.2 4750.2 4858.4 4760.2 4858.4 4752.1 4864.2 4760.2 4858.4 4752.1 4852.5 4762.1 4852.5 4770.2 4858.4 4760.2 4858.4 4768.2 4864.2 4771.3 4873.8 4763.2 4879.6 4755.2 4885.5 4763.2 4879.6 4753.2 4879.6 4761.3 4885.5 4753.2 4891.4 4763.2 4891.4" clip-path="url(#a)" fill="none" stroke="#000" stroke-linecap="round"/>
<polyline points="4763.2 4891.4 4760.2 4900.9 4757.1 4910.4 4747.1 4910.4 4739 4916.3 4735.9 4906.8 4727.8 4900.9 4719.7 4906.8 4711.6 4912.7 4714.7 4903.1 4706.6 4897.3 4698.5 4903.1 4706.6 4897.3 4703.5 4906.8 4693.5 4906.8 4683.5 4906.8 4675.4 4900.9 4672.3 4910.4 4682.3 4910.4 4685.4 4919.9 4682.3 4910.4 4672.3 4910.4 4664.3 4916.3 4674.3 4916.3 4684.3 4916.3 4694.3 4916.3 4691.2 4925.8 4683.1 4919.9 4686.2 4910.4 4678.1 4904.5 4668.1 4904.5 4658.1 4904.5 4650 4910.4 4646.9 4919.9 4643.8 4910.4 4653.8 4910.4 4650.7 4900.9 4642.6 4895 4650.7 4900.9 4660.7 4900.9 4657.6 4910.4 4660.7 4900.9 4663.8 4891.4" clip-path="url(#a)" fill="none" stroke="#000" stroke-linecap="round"/>
<polyline points="4663.8 4891.4 4671.9 4885.5 4675 4895 4685 4895 4681.9 4904.5 4678.8 4895 4668.8 4895 4676.9 4889.1 4666.9 4889.1 4676.9 4889.1 4685 4895 4695 4895 4686.9 4889.1 4683.8 4898.7 4675.7 4904.5 4678.8 4895 4688.8 4895 4691.9 4904.5 4681.9 4904.5 4673.8 4910.4 4681.9 4904.5 4691.9 4904.5 4681.9 4904.5 4685 4914 4693.1 4908.2 4701.2 4902.3 4704.3 4911.8 4712.3 4905.9 4722.3 4905.9 4725.4 4896.4 4733.5 4890.5 4743.5 4890.5 4735.4 4896.4 4732.3 4905.9 4729.3 4915.4 4719.3 4915.4 4711.2 4909.6 4714.3 4919.1 4711.2 4928.6 4719.3 4922.7 4722.3 4913.2 4725.4 4922.7 4733.5 4916.8" clip-path="url(#a)" fill="none" stroke="#000" stroke-linecap="round"/>
<polyline points="4733.5 4916.8 4723.5 4916.8 4720.4 4926.3 4728.5 4920.5 4731.6 4910.9 4723.5 4905.1 4726.6 4914.6 4723.5 4905.1 4715.4 4899.2 4712.3 4908.7 4709.3 4899.2 4701.2 4893.3 4704.3 4883.8 4707.3 4893.3 4697.3 4893.3 4700.4 4883.8 4703.5 4874.3 4695.4 4880.2 4698.5 4889.7 4690.4 4895.6 4682.3 4901.4 4679.3 4910.9 4682.3 4901.4 4679.3 4910.9 4676.2 4901.4 4673.1 4910.9 4681.2 4916.8 4689.3 4922.7 4697.3 4916.8 4689.3 4910.9 4686.2 4920.5 4694.3 4914.6 4691.2 4924.1 4701.2 4924.1 4711.2 4924.1 4708.1 4914.6 4711.2 4924.1 4714.3 4933.6 4722.3 4939.5 4725.4 4949 4728.5 4939.5 4725.4 4949 4728.5 4939.5" clip-path="url(#a)" fill="none" stroke="#000" stroke-linecap="round"/>
<polyline points="4728.5 4939.5 4720.4 4933.6 4728.5 4939.5 4736.6 4933.6 4746.6 4933.6 4754.7 4927.7 4762.8 4933.6 4770.9 4927.7 4779 4933.6 4770.9 4939.5 4760.9 4939.5 4764 4949 4754 4949 4757.1 4939.5 4749 4945.4 4757.1 4951.2 4767.1 4951.2 4775.2 4957.1 4783.2 4963 4773.2 4963 4781.3 4957.1 4784.4 4947.6 4776.3 4953.5 4773.2 4944 4781.3 4938.1 4773.2 4944 4763.2 4944 4755.2 4938.1 4747.1 4944 4750.2 4953.5 4758.2 4959.4 4750.2 4965.2 4742.1 4959.4 4739 4949.8 4747.1 4944 4755.2 4949.8 4758.2 4940.3 4750.2 4934.5 4760.2 4934.5 4763.2 4944 4766.3 4934.5 4776.3 4934.5 4779.4 4924.9" clip-path="url(#a)" fill="none" stroke="#000" stroke-linecap="round"/>
<polyline points="4779.4 4924.9 4771.3 4930.8 4761.3 4930.8 4751.3 4930.8 4748.2 4940.3 4740.2 4934.5 4732.1 4940.3 4740.2 4946.2 4732.1 4952.1 4740.2 4958 4732.1 4952.1 4735.2 4961.6 4738.2 4971.1 4730.2 4977 4738.2 4971.1 4735.2 4980.6 4732.1 4990.1 4742.1 4990.1 4750.2 4984.3 4753.2 4974.7 4745.2 4968.9 4748.2 4959.4 4740.2 4965.2 4732.1 4971.1 4742.1 4971.1 4734 4977 4737.1 4967.5 4745.2 4961.6 4742.1 4952.1 4750.2 4958 4758.2 4963.8 4750.2 4969.7 4742.1 4975.6 4734 4981.5 4742.1 4987.4 4739 4996.9 4730.9 5002.7 4727.8 5012.3 4724.7 5021.8 4727.8 5012.3 4730.9 5002.7 4727.8 5012.3 4717.8 5012.3" clip-path="url(#a)" fill="none" stroke="#000" stroke-linecap="round"/>
<polyline points="4717.8 5012.3 4720.9 5021.8 4712.8 5015.9 4720.9 5021.8 4712.8 5027.6 4720.9 5021.8 4729 5027.6 4720.9 5033.5 4729 5027.6 4719 5027.6 4715.9 5018.1 4724 5024 4727.1 5014.5 4737.1 5014.5 4745.2 5008.6 4737.1 5002.7 4729 5008.6 4732.1 5018.1 4729 5027.6 4732.1 5018.1 4740.2 5024 4750.2 5024 4758.2 5029.9 4755.2 5039.4 4763.2 5033.5 4753.2 5033.5 4756.3 5043 4753.2 5033.5 4763.2 5033.5 4771.3 5039.4 4763.2 5045.3 4766.3 5035.8 4769.4 5045.3 4766.3 5035.8 4758.2 5041.6 4761.3 5032.1 4769.4 5026.3 4766.3 5035.8 4774.4 5029.9 4784.4 5029.9 4787.5 5039.4 4790.6 5048.9 4787.5 5039.4" clip-path="url(#a)" fill="none" stroke="#000" stroke-linecap="round"/>
<polyline points="4787.5 5039.4 4784.4 5048.9 4792.5 5043 4795.6 5052.5 4798.7 5043 4806.8 5048.9 4814.9 5054.8 4811.8 5064.3 4814.9 5073.8 4804.9 5073.8 4796.8 5079.7 4799.9 5089.2 4803 5098.7 4794.9 5092.8 4786.8 5098.7 4789.9 5108.2 4786.8 5098.7 4794.9 5104.6 4791.8 5114.1 4788.7 5123.6 4780.6 5129.5 4788.7 5135.4 4791.8 5125.9 4801.8 5125.9 4791.8 5125.9 4788.7 5135.4 4791.8 5144.9 4794.9 5135.4 4798 5125.9 4801.1 5116.3 4809.1 5122.2 4801.1 5128.1 4793 5122.2 4784.9 5128.1 4781.8 5137.6 4778.7 5147.1 4781.8 5156.6 4789.9 5162.5 4779.9 5162.5 4783 5153 4773 5153 4764.9 5158.9 4773 5153" clip-path="url(#a)" fill="none" stroke="#000" stroke-linecap="round"/>
<polyline points="4773 5153 4776.1 5143.5 4784.1 5149.4 4776.1 5143.5 4768 5137.6 4764.9 5128.1 4774.9 5128.1 4778 5118.6 4786.1 5124.5 4776.1 5124.5 4773 5134 4769.9 5124.5 4766.8 5134 4769.9 5124.5 4778 5118.6 4781.1 5109.1 4773 5115 4781.1 5120.8 4784.1 5130.3 4776.1 5124.5 4779.1 5115 4789.1 5115 4786.1 5124.5 4789.1 5134 4786.1 5124.5 4789.1 5115 4786.1 5124.5 4796.1 5124.5 4793 5115 4789.9 5105.4 4799.9 5105.4 4796.8 5095.9 4799.9 5086.4 4791.8 5080.5 4788.7 5071 4791.8 5061.5 4794.9 5071 4803 5076.9 4811.1 5082.8 4808 5092.3 4799.9 5098.2 4809.9 5098.2 4818 5104.1" clip-path="url(#a)" fill="none" stroke="#000" stroke-linecap="round"/>
<polyline points="4818 5104.1 4814.9 5094.5 4806.8 5088.7 4816.8 5088.7 4813.7 5079.2 4810.6 5088.7 4818.7 5094.5 4815.6 5085 4807.5 5079.2 4799.4 5085 4809.4 5085 4799.4 5085 4791.3 5090.9 4799.4 5096.8 4789.4 5096.8 4781.3 5102.7 4773.2 5096.8 4783.2 5096.8 4780.2 5106.3 4772.1 5100.4 4764 5094.5 4767.1 5104.1 4777.1 5104.1 4780.2 5113.6 4783.2 5123.1 4791.3 5129 4783.2 5123.1 4791.3 5129 4781.3 5129 4789.4 5134.8 4797.5 5129 4805.6 5123.1 4802.5 5113.6 4794.4 5119.4 4802.5 5125.3 4799.4 5115.8 4807.5 5121.7 4810.6 5112.2 4813.7 5102.7 4803.7 5102.7 4813.7 5102.7 4823.7 5102.7 4831.8 5096.8" clip-path="url(#a)" fill="none" stroke="#000" stroke-linecap="round"/>
<polyline points="4831.8 5096.8 4841.8 5096.8 4833.7 5090.9 4841.8 5096.8 4833.7 5090.9 4825.6 5096.8 4833.7 5090.9 4830.6 5081.4 4833.7 5071.9 4830.6 5062.4 4838.7 5056.5 4835.6 5047 4843.7 5041.1 4846.8 5050.6 4843.7 5060.1 4853.7 5060.1 4850.6 5069.6 4842.5 5063.8 4845.6 5073.3 4853.7 5067.4 4856.8 5057.9 4864.9 5052 4873 5046.1 4869.9 5055.6 4866.8 5046.1 4858.7 5040.3 4861.8 5049.8 4851.8 5049.8 4848.7 5040.3 4851.8 5049.8 4848.7 5059.3 4840.6 5065.2 4843.7 5074.7 4853.7 5074.7 4861.8 5068.8 4864.9 5078.3 4856.8 5084.2 4846.8 5084.2 4843.7 5074.7 4851.8 5068.8 4843.7 5062.9 4835.6 5068.8 4838.7 5059.3" clip-path="url(#a)" fill="none" stroke="#000" stroke-linecap="round"/>
<polyline points="4838.7 5059.3 4848.7 5059.3 4840.6 5053.4 4843.7 5043.9 4835.6 5038 4838.7 5047.5 4835.6 5057 4832.5 5066.5 4840.6 5072.4 4832.5 5078.3 4835.6 5087.8 4843.7 5081.9 4846.8 5091.4 4854.9 5085.6 4846.8 5091.4 4856.8 5091.4 4866.8 5091.4 4869.9 5101 4866.8 5091.4 4874.9 5097.3 4883 5103.2 4886.1 5093.7 4883 5084.2 4874.9 5078.3 4866.8 5084.2 4858.7 5078.3 4861.8 5087.8 4864.9 5097.3 4868 5087.8 4871.1 5097.3 4863 5091.4 4859.9 5081.9 4849.9 5081.9 4858 5076.1 4866.1 5070.2 4869.1 5079.7 4872.2 5089.2 4875.3 5098.7 4883.4 5092.8 4891.5 5098.7 4894.6 5108.2 4902.7 5114.1 4910.8 5120" clip-path="url(#a)" fill="none" stroke="#000" stroke-linecap="round"/>
<polyline points="4910.8 5120 4902.7 5114.1 4894.6 5108.2 4902.7 5114.1 4899.6 5123.6 4909.6 5123.6 4901.5 5129.5 4909.6 5123.6 4912.7 5133.1 4909.6 5123.6 4917.7 5117.7 4920.8 5127.2 4917.7 5117.7 4914.6 5127.2 4904.6 5127.2 4912.7 5121.4 4904.6 5115.5 4907.7 5106 4904.6 5096.5 4896.5 5102.3 4899.6 5111.9 4909.6 5111.9 4917.7 5117.7 4909.6 5111.9 4917.7 5106 4920.8 5096.5 4928.9 5090.6 4937 5096.5 4933.9 5087 4930.8 5096.5 4940.8 5096.5 4930.8 5096.5 4933.9 5087 4942 5081.1 4945 5090.6 4937 5084.7 4947 5084.7 4937 5084.7 4940 5094.2 4932 5088.3 4928.9 5078.8 4937 5084.7 4933.9 5075.2" clip-path="url(#a)" fill="none" stroke="#000" stroke-linecap="round"/>
<polyline points="4933.9 5075.2 4937 5065.7 4947 5065.7 4957 5065.7 4947 5065.7 4955 5071.6 4952 5062.1 4962 5062.1 4953.9 5056.2 4962 5050.3 4970 5044.4 4978.1 5050.3 4988.1 5050.3 4985 5059.8 4988.1 5069.3 4998.1 5069.3 5008.1 5069.3 5e3 5075.2 5003.1 5084.7 5013.1 5084.7 5003.1 5084.7 5011.2 5078.8 5019.3 5084.7 5027.4 5090.6 5030.5 5100.1 5038.6 5094.2 5030.5 5088.3 5033.6 5078.8 5030.5 5088.3 5038.6 5094.2 5048.6 5094.2 5040.5 5088.3 5032.4 5082.5 5024.3 5076.6 5032.4 5070.7 5035.5 5080.2 5027.4 5086.1 5030.5 5095.6 5038.6 5101.5 5046.7 5107.4 5056.7 5107.4 5064.8 5101.5 5061.7 5111" clip-path="url(#a)" fill="none" stroke="#000" stroke-linecap="round"/>
<polyline points="5061.7 5111 5053.6 5105.1 5050.5 5114.6 5053.6 5124.1 5050.5 5114.6 5042.4 5108.7 5050.5 5102.9 5042.4 5108.7 5034.3 5114.6 5024.3 5114.6 5027.4 5105.1 5019.3 5099.2 5027.4 5093.4 5024.3 5102.9 5032.4 5108.7 5022.4 5108.7 5030.5 5114.6 5022.4 5108.7 5019.3 5099.2 5011.2 5093.4 5014.3 5102.9 5022.4 5097 5032.4 5097 5024.3 5102.9 5016.2 5097 5019.3 5087.5 5027.4 5093.4 5037.4 5093.4 5027.4 5093.4 5019.3 5087.5 5027.4 5093.4 5030.5 5083.8 5020.5 5083.8 5010.5 5083.8 5013.6 5074.3 5003.6 5074.3 4995.5 5068.5 4987.4 5074.3 4977.4 5074.3 4969.3 5068.5 4979.3 5068.5 4987.4 5062.6 4995.5 5056.7" clip-path="url(#a)" fill="none" stroke="#000" stroke-linecap="round"/>
<polyline points="4995.5 5056.7 5003.6 5062.6 5006.7 5072.1 5009.8 5062.6 5017.9 5056.7 5007.9 5056.7 4999.8 5062.6 5002.9 5053.1 4992.9 5053.1 5001 5059 5009 5053.1 4999 5053.1 4991 5059 4994 5068.5 4997.1 5059 4994 5068.5 4997.1 5078 5005.2 5072.1 5002.1 5081.6 5005.2 5091.1 4997.1 5097 5000.2 5087.5 5008.3 5093.4 5000.2 5099.2 4992.1 5105.1 5002.1 5105.1 5005.2 5095.6 5015.2 5095.6 5025.2 5095.6 5033.3 5089.7 5025.2 5095.6 5033.3 5089.7 5030.2 5099.2 5038.3 5093.4 5035.2 5083.8 5032.1 5074.3 5022.1 5074.3 5025.2 5083.8 5033.3 5078 5023.3 5078 5031.4 5072.1 5023.3 5066.2 5015.2 5060.3" clip-path="url(#a)" fill="none" stroke="#000" stroke-linecap="round"/>
<polyline points="5015.2 5060.3 5012.1 5069.8 5015.2 5060.3 5018.3 5050.8 5015.2 5041.3 5018.3 5031.8 5010.2 5037.7 5018.3 5031.8 5010.2 5037.7 5013.3 5047.2 5010.2 5037.7 5000.2 5037.7 4992.1 5031.8 4982.1 5031.8 4979 5022.3 4969 5022.3 4966 5012.8 4976 5012.8 4984 5018.7 4987.1 5009.2 4995.2 5015 4987.1 5020.9 4997.1 5020.9 4994 5011.4 4986 5005.5 4982.9 4996 4979.8 4986.5 4987.9 4992.4 4977.9 4992.4 4969.8 4998.3 4979.8 4998.3 4976.7 5007.8 4966.7 5007.8 4976.7 5007.8 4984.8 5013.6 4987.9 5023.2 4997.9 5023.2 5001 5013.6 4997.9 5004.1 5007.9 5004.1 5011 5013.6 5007.9 5023.2 4997.9 5023.2" clip-path="url(#a)" fill="none" stroke="#000" stroke-linecap="round"/>
<polyline points="4997.9 5023.2 4994.8 5013.6 4986.7 5019.5 4989.8 5029 4981.7 5023.2 4984.8 5013.6 4976.7 5019.5 4968.6 5013.6 4960.5 5019.5 4970.5 5019.5 4978.6 5025.4 4986.7 5031.3 4994.8 5025.4 4997.9 5034.9 5007.9 5034.9 5004.8 5025.4 5014.8 5025.4 5011.7 5015.9 5014.8 5025.4 5017.9 5015.9 5021 5006.4 5031 5006.4 5021 5006.4 5029 5000.5 5037.1 4994.6 5029 4988.7 5019 4988.7 5011 4994.6 5014 5004.1 5006 5010 5016 5010 5026 5010 5017.9 5004.1 5027.9 5004.1 5019.8 5010 5009.8 5010 5006.7 5019.5 5003.6 5010 5000.5 5000.5" clip-path="url(#a)" fill="none" stroke="#000" stroke-linecap="round"/>
</svg>
