<?xml version="1.0" encoding="UTF-8"?>
<svg width="1e4px" height="1e4px" baseProfile="full" version="1.1" viewBox="4812.2 4071.1 1152.3 1173.4" xmlns="http://www.w3.org/2000/svg">
<defs>
<clipPath id="a">
<rect width="1e4" height="1e4"/>
</clipPath>
</defs>
<polyline points="5000.5 5000.5 5010.5 5000.5 5020.5 5000.5 5030.5 5000.5 5027.4 4991 5035.5 4985.1 5043.6 4979.2 5040.5 4969.7 5030.5 4969.7 5027.4 4960.2 5019.3 4954.3 5016.2 4963.8 5013.1 4954.3 5021.2 4948.5 5029.3 4954.3 5037.4 4948.5 5040.5 4938.9 5032.4 4933.1 5029.3 4923.6 5019.3 4923.6 5022.4 4914 5030.5 4919.9 5022.4 4914 5032.4 4914 5024.3 4919.9 5032.4 4914 5024.3 4908.2 5021.2 4898.7 5024.3 4889.1 5016.2 4883.3 5013.1 4892.8 5005 4898.7 5013.1 4892.8 5003.1 4892.8 5006.2 4902.3 4996.2 4902.3 4993.1 4911.8 4990 4902.3 4980 4902.3 4983.1 4911.8 4980 4902.3 4990 4902.3 4982 4896.4" clip-path="url(#a)" fill="none" stroke="#000" stroke-linecap="round"/>
<polyline points="4982 4896.4 4972 4896.4 4980 4902.3 4977 4892.8 4973.9 4902.3 4963.9 4902.3 4972 4896.4 4968.9 4905.9 4960.8 4911.8 4963.9 4921.3 4967 4930.8 4975 4936.7 4967 4930.8 4958.9 4936.7 4950.8 4942.6 4940.8 4942.6 4932.7 4948.5 4935.8 4958 4932.7 4948.5 4929.6 4958 4921.5 4952.1 4929.6 4958 4937.7 4952.1 4945.8 4958 4937.7 4952.1 4927.7 4952.1 4930.8 4942.6 4927.7 4933.1 4919.6 4927.2 4911.5 4921.3 4903.4 4927.2 4906.5 4917.7 4909.6 4927.2 4917.7 4933.1 4909.6 4927.2 4906.5 4917.7 4914.6 4923.6 4917.7 4933.1 4914.6 4923.6 4922.7 4917.7 4925.8 4908.2 4933.9 4914 4930.8 4904.5" clip-path="url(#a)" fill="none" stroke="#000" stroke-linecap="round"/>
<polyline points="4930.8 4904.5 4933.9 4895 4937 4885.5 4928.9 4891.4 4918.9 4891.4 4927 4897.3 4935 4891.4 4945 4891.4 4937 4897.3 4945 4891.4 4948.1 4900.9 4938.1 4900.9 4930 4895 4933.1 4904.5 4925 4898.7 4933.1 4892.8 4930 4902.3 4920 4902.3 4910 4902.3 4918.1 4896.4 4926.2 4890.5 4934.3 4896.4 4937.4 4886.9 4940.5 4896.4 4937.4 4886.9 4934.3 4877.4 4926.2 4871.5 4923.1 4862 4920 4852.5 4912 4846.6 4902 4846.6 4910 4852.5 4918.1 4858.4 4908.1 4858.4 4905 4848.9 4902 4858.4 4910 4852.5 4913.1 4843 4916.2 4833.5 4919.3 4843 4922.4 4833.5 4925.5 4843 4933.6 4837.1" clip-path="url(#a)" fill="none" stroke="#000" stroke-linecap="round"/>
<polyline points="4933.6 4837.1 4941.7 4843 4933.6 4848.9 4925.5 4843 4922.4 4852.5 4930.5 4858.4 4920.5 4858.4 4912.4 4852.5 4909.3 4843 4917.4 4848.9 4927.4 4848.9 4935.5 4854.7 4927.4 4860.6 4924.3 4851.1 4916.2 4845.2 4919.3 4835.7 4922.4 4845.2 4930.5 4839.4 4933.6 4829.8 4930.5 4820.3 4940.5 4820.3 4943.6 4829.8 4933.6 4829.8 4923.6 4829.8 4926.7 4820.3 4918.6 4814.5 4910.5 4820.3 4920.5 4820.3 4917.4 4810.8 4909.3 4816.7 4919.3 4816.7 4911.2 4822.6 4903.1 4828.5 4895 4834.3 4892 4824.8 4900 4830.7 4908.1 4836.6 4905 4827.1 4908.1 4836.6 4900 4830.7 4892 4836.6 4888.9 4827.1 4880.8 4832.9" clip-path="url(#a)" fill="none" stroke="#000" stroke-linecap="round"/>
<polyline points="4880.8 4832.9 4877.7 4823.4 4885.8 4829.3 4882.7 4819.8 4872.7 4819.8 4882.7 4819.8 4885.8 4829.3 4882.7 4819.8 4885.8 4829.3 4882.7 4819.8 4874.6 4813.9 4871.5 4823.4 4881.5 4823.4 4891.5 4823.4 4888.4 4832.9 4880.3 4838.8 4872.2 4832.9 4875.3 4842.5 4865.3 4842.5 4857.2 4836.6 4849.1 4830.7 4852.2 4821.2 4860.3 4827.1 4857.2 4817.6 4860.3 4827.1 4870.3 4827.1 4862.2 4821.2 4870.3 4815.3 4873.4 4805.8 4865.3 4811.7 4857.2 4805.8 4849.1 4811.7 4841.1 4805.8 4844.1 4796.3 4852.2 4790.4 4855.3 4799.9 4863.4 4794 4855.3 4788.2 4858.4 4778.7 4850.3 4784.5 4842.2 4790.4 4850.3 4796.3 4858.4 4802.2" clip-path="url(#a)" fill="none" stroke="#000" stroke-linecap="round"/>
<polyline points="4858.4 4802.2 4855.3 4792.7 4847.2 4786.8 4850.3 4777.3 4842.2 4771.4 4850.3 4777.3 4858.4 4783.1 4861.5 4792.7 4858.4 4783.1 4855.3 4773.6 4858.4 4783.1 4848.4 4783.1 4838.4 4783.1 4841.5 4792.7 4844.6 4783.1 4836.5 4777.3 4828.4 4783.1 4820.3 4789 4828.4 4783.1 4820.3 4777.3 4812.2 4783.1 4820.3 4789 4830.3 4789 4838.4 4794.9 4841.5 4785.4 4849.6 4779.5 4852.7 4770 4855.8 4779.5 4863.9 4773.6 4853.9 4773.6 4845.8 4767.8 4848.9 4758.2 4852 4748.7 4860 4742.9 4868.1 4748.7 4865 4758.2 4868.1 4748.7 4876.2 4742.9 4868.1 4737 4858.1 4737 4868.1 4737 4858.1 4737 4855 4727.5" clip-path="url(#a)" fill="none" stroke="#000" stroke-linecap="round"/>
<polyline points="4855 4727.5 4858.1 4718 4848.1 4718 4858.1 4718 4855 4708.4 4863.1 4714.3 4873.1 4714.3 4876.2 4704.8 4873.1 4695.3 4881.2 4701.2 4873.1 4707.1 4881.2 4712.9 4889.3 4718.8 4897.4 4724.7 4900.5 4715.2 4910.5 4715.2 4920.5 4715.2 4923.6 4705.7 4915.5 4699.8 4918.6 4690.3 4915.5 4680.8 4907.4 4686.7 4910.5 4677.1 4920.5 4677.1 4923.6 4686.7 4933.6 4686.7 4941.7 4680.8 4938.6 4671.3 4941.7 4661.8 4933.6 4655.9 4941.7 4650 4944.8 4659.5 4941.7 4650 4949.8 4655.9 4939.8 4655.9 4949.8 4655.9 4946.7 4646.4 4949.8 4636.9 4957.9 4631 4954.8 4621.5 4946.7 4627.3 4936.7 4627.3 4946.7 4627.3" clip-path="url(#a)" fill="none" stroke="#000" stroke-linecap="round"/>
<polyline points="4946.7 4627.3 4938.6 4621.5 4935.5 4631 4927.4 4625.1 4919.3 4631 4922.4 4621.5 4914.3 4615.6 4911.2 4625.1 4914.3 4615.6 4922.4 4621.5 4919.3 4612 4911.2 4606.1 4914.3 4615.6 4917.4 4606.1 4909.3 4612 4901.2 4606.1 4911.2 4606.1 4903.1 4612 4893.1 4612 4890 4621.5 4887 4631 4890 4640.5 4887 4631 4877 4631 4867 4631 4858.9 4625.1 4848.9 4625.1 4845.8 4634.6 4848.9 4625.1 4840.8 4631 4837.7 4621.5 4840.8 4631 4850.8 4631 4853.9 4640.5 4850.8 4631 4842.7 4625.1 4850.8 4619.2 4853.9 4609.7 4850.8 4600.2 4847.7 4590.7 4837.7 4590.7 4845.8 4584.8 4842.7 4594.3" clip-path="url(#a)" fill="none" stroke="#000" stroke-linecap="round"/>
<polyline points="4842.7 4594.3 4845.8 4603.8 4842.7 4594.3 4845.8 4584.8 4848.9 4594.3 4845.8 4603.8 4848.9 4594.3 4858.9 4594.3 4867 4588.4 4870 4598 4873.1 4588.4 4881.2 4582.6 4889.3 4576.7 4879.3 4576.7 4871.2 4570.8 4874.3 4580.3 4884.3 4580.3 4892.4 4586.2 4882.4 4586.2 4892.4 4586.2 4889.3 4595.7 4881.2 4589.8 4878.1 4580.3 4875 4589.8 4872 4580.3 4882 4580.3 4873.9 4586.2 4865.8 4580.3 4857.7 4574.4 4867.7 4574.4 4877.7 4574.4 4880.8 4584 4888.9 4578.1 4885.8 4587.6 4888.9 4578.1 4892 4568.6 4888.9 4559.1 4892 4549.5 4895 4540 4892 4530.5 4883.9 4524.6 4887 4534.2 4890 4543.7" clip-path="url(#a)" fill="none" stroke="#000" stroke-linecap="round"/>
<polyline points="4890 4543.7 4882 4537.8 4885 4528.3 4877 4534.2 4887 4534.2 4895 4528.3 4903.1 4522.4 4900 4531.9 4908.1 4526 4905 4535.5 4915 4535.5 4918.1 4545.1 4908.1 4545.1 4905 4535.5 4897 4541.4 4900 4550.9 4892 4545.1 4888.9 4535.5 4892 4526 4895 4535.5 4903.1 4541.4 4906.2 4550.9 4896.2 4550.9 4899.3 4541.4 4896.2 4531.9 4904.3 4526 4901.2 4535.5 4911.2 4535.5 4919.3 4529.7 4922.4 4520.2 4930.5 4526 4927.4 4535.5 4919.3 4529.7 4911.2 4523.8 4919.3 4517.9 4916.2 4508.4 4906.2 4508.4 4914.3 4514.3 4917.4 4504.8 4907.4 4504.8 4915.5 4510.6 4905.5 4510.6 4895.5 4510.6" clip-path="url(#a)" fill="none" stroke="#000" stroke-linecap="round"/>
<polyline points="4895.5 4510.6 4885.5 4510.6 4888.6 4501.1 4891.7 4510.6 4894.8 4520.2 4897.9 4510.6 4894.8 4520.2 4891.7 4510.6 4881.7 4510.6 4884.8 4501.1 4874.8 4501.1 4877.9 4491.6 4881 4501.1 4884 4491.6 4876 4485.7 4884 4491.6 4881 4501.1 4884 4491.6 4881 4501.1 4884 4491.6 4881 4482.1 4872.9 4488 4881 4493.9 4889 4499.7 4881 4505.6 4871 4505.6 4867.9 4496.1 4864.8 4505.6 4856.7 4499.7 4853.6 4490.2 4850.5 4480.7 4858.6 4474.8 4861.7 4484.4 4864.8 4474.8 4861.7 4484.4 4869.8 4490.2 4866.7 4480.7 4876.7 4480.7 4884.8 4474.8 4874.8 4474.8 4871.7 4465.3 4861.7 4465.3 4858.6 4455.8" clip-path="url(#a)" fill="none" stroke="#000" stroke-linecap="round"/>
<polyline points="4858.6 4455.8 4866.7 4449.9 4876.7 4449.9 4873.6 4459.5 4883.6 4459.5 4880.5 4449.9 4888.6 4444.1 4878.6 4444.1 4868.6 4444.1 4871.7 4453.6 4874.8 4463.1 4877.9 4453.6 4874.8 4444.1 4882.9 4438.2 4879.8 4428.7 4882.9 4438.2 4886 4447.7 4882.9 4457.2 4886 4447.7 4889 4438.2 4886 4447.7 4877.9 4441.8 4869.8 4435.9 4866.7 4445.5 4874.8 4439.6 4871.7 4430.1 4861.7 4430.1 4851.7 4430.1 4861.7 4430.1 4858.6 4420.6 4848.6 4420.6 4851.7 4430.1 4859.8 4435.9 4862.9 4445.5 4871 4439.6 4881 4439.6 4889 4433.7 4886 4443.2 4896 4443.2 4887.9 4437.3 4884.8 4427.8 4892.9 4421.9 4901 4416.1" clip-path="url(#a)" fill="none" stroke="#000" stroke-linecap="round"/>
<polyline points="4901 4416.1 4911 4416.1 4914 4425.6 4906 4431.5 4914 4425.6 4924 4425.6 4921 4416.1 4912.9 4410.2 4921 4416.1 4912.9 4410.2 4916 4400.7 4924 4394.8 4916 4388.9 4924 4394.8 4927.1 4385.3 4930.2 4394.8 4938.3 4400.7 4946.4 4394.8 4949.5 4385.3 4952.6 4394.8 4942.6 4394.8 4945.7 4404.3 4948.8 4413.8 4951.9 4423.3 4959.9 4417.5 4968 4423.3 4976.1 4429.2 4984.2 4423.3 4981.1 4413.8 4989.2 4407.9 4992.3 4398.4 4982.3 4398.4 4990.4 4392.6 4998.5 4398.4 4995.4 4407.9 5003.5 4413.8 5013.5 4413.8 5016.6 4404.3 5024.7 4398.4 5021.6 4388.9 5031.6 4388.9 5028.5 4398.4 5031.6 4388.9" clip-path="url(#a)" fill="none" stroke="#000" stroke-linecap="round"/>
<polyline points="5031.6 4388.9 5034.7 4398.4 5026.6 4392.6 5034.7 4398.4 5037.8 4388.9 5045.8 4383 5055.8 4383 5058.9 4373.5 5048.9 4373.5 5040.8 4367.7 5048.9 4373.5 5045.8 4364 5037.8 4369.9 5034.7 4360.4 5024.7 4360.4 5032.8 4354.5 5029.7 4345 5021.6 4350.9 5029.7 4345 5032.8 4354.5 5035.8 4345 5032.8 4335.5 5029.7 4345 5037.8 4339.1 5027.8 4339.1 5024.7 4329.6 5032.8 4335.5 5022.8 4335.5 5014.7 4329.6 5006.6 4335.5 4998.5 4341.4 4995.4 4350.9 4998.5 4341.4 4990.4 4335.5 4982.3 4329.6 4979.2 4320.1 4971.1 4314.2 4963 4320.1 4971.1 4314.2 4961.1 4314.2 4964.2 4304.7 4961.1 4314.2 4969.2 4320.1" clip-path="url(#a)" fill="none" stroke="#000" stroke-linecap="round"/>
<polyline points="4969.2 4320.1 4966.1 4329.6 4969.2 4320.1 4966.1 4310.6 4976.1 4310.6 4984.2 4304.7 4987.3 4295.2 4990.4 4285.7 4982.3 4279.8 4992.3 4279.8 4984.2 4285.7 4981.1 4295.2 4984.2 4285.7 4992.3 4279.8 4989.2 4289.3 4981.1 4295.2 4989.2 4289.3 4997.3 4295.2 5007.3 4295.2 5004.2 4304.7 5012.3 4298.8 5022.3 4298.8 5032.3 4298.8 5024.2 4293 5021.1 4283.4 5018 4293 5026.1 4298.8 5029.2 4308.3 5021.1 4302.5 5029.2 4308.3 5021.1 4314.2 5018 4304.7 5021.1 4295.2 5013 4301.1 5016.1 4291.6 5024.2 4297.5 5014.2 4297.5 5011.1 4287.9 5008 4278.4 5016.1 4284.3 5024.2 4290.2 5021.1 4299.7 5031.1 4299.7" clip-path="url(#a)" fill="none" stroke="#000" stroke-linecap="round"/>
<polyline points="5031.1 4299.7 5023 4305.6 5031.1 4299.7 5039.2 4293.8 5042.3 4284.3 5050.4 4278.4 5058.5 4272.6 5061.6 4263 5058.5 4253.5 5055.4 4263 5052.3 4272.6 5049.2 4263 5057.3 4257.2 5047.3 4257.2 5055.4 4263 5065.4 4263 5075.4 4263 5067.3 4268.9 5077.3 4268.9 5069.2 4274.8 5077.3 4280.7 5074.2 4290.2 5066.1 4284.3 5069.2 4274.8 5059.2 4274.8 5056.1 4284.3 5053 4274.8 5056.1 4265.3 5064.2 4259.4 5061.1 4268.9 5064.2 4278.4 5061.1 4287.9 5053 4282.1 5061.1 4276.2 5064.2 4266.7 5074.2 4266.7 5066.1 4272.6 5074.2 4278.4 5084.2 4278.4 5092.3 4272.6 5095.4 4282.1 5087.3 4287.9 5084.2 4278.4" clip-path="url(#a)" fill="none" stroke="#000" stroke-linecap="round"/>
<polyline points="5084.2 4278.4 5081.1 4268.9 5091.1 4268.9 5094.2 4259.4 5086.1 4253.5 5089.2 4263 5097.3 4257.2 5089.2 4251.3 5092.3 4260.8 5084.2 4254.9 5076.1 4249 5068 4243.2 5076.1 4237.3 5073 4246.8 5069.9 4256.3 5078 4250.4 5069.9 4256.3 5073 4246.8 5064.9 4240.9 5073 4235 5064.9 4229.2 5073 4223.3 5069.9 4232.8 5078 4226.9 5074.9 4217.4 5078 4226.9 5069.9 4232.8 5078 4226.9 5069.9 4232.8 5078 4226.9 5081.1 4217.4 5071.1 4217.4 5074.2 4226.9 5077.3 4236.4 5067.3 4236.4 5059.2 4230.5 5062.3 4221 5054.2 4226.9 5051.1 4217.4 5054.2 4207.9 5057.3 4198.4 5067.3 4198.4 5064.2 4207.9" clip-path="url(#a)" fill="none" stroke="#000" stroke-linecap="round"/>
<polyline points="5064.2 4207.9 5072.3 4202 5064.2 4207.9 5067.3 4217.4 5070.4 4207.9 5078.5 4213.8 5088.5 4213.8 5080.4 4207.9 5083.5 4198.4 5075.4 4192.5 5078.5 4183 5088.5 4183 5096.6 4188.9 5088.5 4194.8 5096.6 4200.6 5099.7 4191.1 5109.7 4191.1 5101.6 4185.2 5093.5 4179.4 5090.4 4188.9 5087.3 4198.4 5095.4 4192.5 5098.5 4183 5108.5 4183 5111.6 4173.5 5108.5 4183 5105.4 4192.5 5097.3 4198.4 5105.4 4192.5 5113.5 4186.6 5105.4 4192.5 5102.3 4183 5099.2 4173.5 5091.1 4179.4 5101.1 4179.4 5104.2 4169.9 5096.1 4164 5088 4158.1 5096.1 4164 5099.2 4154.5 5091.1 4148.6 5088 4158.1 5091.1 4167.6" clip-path="url(#a)" fill="none" stroke="#000" stroke-linecap="round"/>
<polyline points="5091.1 4167.6 5088 4177.1 5098 4177.1 5106.1 4183 5116.1 4183 5108 4188.9 5116.1 4194.8 5113 4185.2 5116.1 4175.7 5126.1 4175.7 5136.1 4175.7 5144.2 4181.6 5141.1 4191.1 5131.1 4191.1 5141.1 4191.1 5149.2 4197 5152.3 4187.5 5149.2 4178 5152.3 4187.5 5149.2 4178 5157.3 4172.1 5167.3 4172.1 5164.2 4162.6 5167.3 4172.1 5175.4 4166.2 5172.3 4175.7 5175.4 4185.2 5185.4 4185.2 5193.5 4179.4 5190.4 4188.9 5182.3 4183 5179.2 4192.5 5176.1 4202 5173 4211.5 5183 4211.5 5186.1 4221 5189.2 4230.5 5199.2 4230.5 5202.3 4221 5212.3 4221 5220.4 4215.2 5212.3 4209.3 5222.3 4209.3" clip-path="url(#a)" fill="none" stroke="#000" stroke-linecap="round"/>
<polyline points="5222.3 4209.3 5225.4 4218.8 5217.3 4224.7 5220.4 4234.2 5228.5 4240.1 5236.6 4234.2 5246.6 4234.2 5249.7 4224.7 5257.8 4230.5 5249.7 4236.4 5257.8 4230.5 5254.7 4240.1 5251.6 4230.5 5254.7 4240.1 5262.8 4234.2 5272.8 4234.2 5280.8 4240.1 5288.9 4234.2 5280.8 4228.3 5277.8 4218.8 5280.8 4228.3 5283.9 4218.8 5273.9 4218.8 5277 4209.3 5268.9 4203.4 5278.9 4203.4 5282 4193.9 5272 4193.9 5282 4193.9 5278.9 4203.4 5287 4197.5 5290.1 4188 5282 4193.9 5292 4193.9 5283.9 4188 5287 4178.5 5290.1 4188 5282 4182.1 5278.9 4172.6 5268.9 4172.6 5258.9 4172.6 5250.8 4178.5 5258.9 4172.6" clip-path="url(#a)" fill="none" stroke="#000" stroke-linecap="round"/>
<polyline points="5258.9 4172.6 5255.8 4163.1 5252.8 4153.6 5255.8 4144.1 5252.8 4134.6 5242.8 4134.6 5252.8 4134.6 5244.7 4128.7 5252.8 4122.8 5244.7 4128.7 5247.8 4138.2 5239.7 4144.1 5247.8 4138.2 5250.8 4128.7 5258.9 4134.6 5268.9 4134.6 5277 4128.7 5285.1 4122.8 5282 4113.3 5290.1 4119.2 5280.1 4119.2 5272 4125.1 5280.1 4119.2 5290.1 4119.2 5282 4125.1 5272 4125.1 5282 4125.1 5285.1 4134.6 5293.2 4140.5 5285.1 4146.3 5295.1 4146.3 5303.2 4152.2 5311.3 4158.1 5308.2 4148.6 5311.3 4139.1 5303.2 4145 5306.3 4154.5 5303.2 4164 5300.1 4154.5 5303.2 4164 5293.2 4164 5296.3 4154.5 5304.4 4148.6" clip-path="url(#a)" fill="none" stroke="#000" stroke-linecap="round"/>
<polyline points="5304.4 4148.6 5294.4 4148.6 5302.5 4142.7 5305.6 4152.2 5297.5 4146.3 5300.6 4136.8 5303.7 4127.3 5306.7 4136.8 5309.8 4146.3 5301.7 4152.2 5309.8 4158.1 5299.8 4158.1 5309.8 4158.1 5319.8 4158.1 5327.9 4152.2 5337.9 4152.2 5347.9 4152.2 5356 4146.3 5359.1 4136.8 5351 4142.7 5342.9 4148.6 5346 4139.1 5356 4139.1 5347.9 4133.2 5351 4142.7 5359.1 4148.6 5367.2 4154.5 5357.2 4154.5 5365.3 4160.3 5355.3 4160.3 5358.4 4169.9 5350.3 4175.7 5347.2 4166.2 5355.3 4160.3 5347.2 4154.5 5339.1 4160.3 5342.2 4150.8 5350.3 4145 5360.3 4145 5352.2 4150.8 5349.1 4160.3 5341 4166.2 5337.9 4156.7" clip-path="url(#a)" fill="none" stroke="#000" stroke-linecap="round"/>
<polyline points="5337.9 4156.7 5347.9 4156.7 5356 4150.8 5364.1 4156.7 5354.1 4156.7 5357.2 4166.2 5365.3 4172.1 5375.3 4172.1 5372.2 4181.6 5362.2 4181.6 5365.3 4172.1 5368.4 4162.6 5376.5 4168.5 5384.6 4162.6 5381.5 4153.1 5378.4 4162.6 5388.4 4162.6 5385.3 4153.1 5382.2 4162.6 5379.1 4153.1 5376 4143.6 5372.9 4134.1 5382.9 4134.1 5374.8 4139.9 5366.7 4145.8 5376.7 4145.8 5366.7 4145.8 5374.8 4139.9 5371.7 4130.4 5381.7 4130.4 5378.7 4120.9 5388.7 4120.9 5380.6 4126.8 5390.6 4126.8 5393.7 4117.3 5390.6 4126.8 5380.6 4126.8 5390.6 4126.8 5380.6 4126.8 5390.6 4126.8 5398.7 4120.9 5390.6 4115 5387.5 4124.5" clip-path="url(#a)" fill="none" stroke="#000" stroke-linecap="round"/>
<polyline points="5387.5 4124.5 5384.4 4134.1 5376.3 4128.2 5373.2 4118.7 5381.3 4112.8 5371.3 4112.8 5374.4 4103.3 5382.5 4097.4 5390.6 4091.5 5398.7 4097.4 5390.6 4103.3 5400.6 4103.3 5390.6 4103.3 5387.5 4112.8 5395.6 4106.9 5398.7 4116.4 5406.7 4122.3 5403.7 4112.8 5411.7 4106.9 5408.7 4097.4 5416.7 4091.5 5424.8 4097.4 5427.9 4106.9 5417.9 4106.9 5421 4116.4 5429.1 4110.5 5437.2 4116.4 5434.1 4106.9 5431 4097.4 5422.9 4103.3 5414.8 4109.2 5424.8 4109.2 5432.9 4103.3 5441 4109.2 5449.1 4103.3 5441 4109.2 5432.9 4115 5422.9 4115 5432.9 4115 5442.9 4115 5432.9 4115 5436 4105.5 5439.1 4096" clip-path="url(#a)" fill="none" stroke="#000" stroke-linecap="round"/>
<polyline points="5439.1 4096 5429.1 4096 5437.2 4101.9 5445.3 4096 5442.2 4086.5 5439.1 4077 5442.2 4086.5 5450.3 4080.6 5447.2 4071.1 5439.1 4077 5436 4086.5 5427.9 4092.4 5436 4098.3 5439.1 4107.8 5447.2 4113.6 5437.2 4113.6 5440.3 4123.2 5443.4 4113.6 5451.5 4107.8 5459.6 4113.6 5467.6 4119.5 5470.7 4129 5462.6 4134.9 5454.6 4129 5462.6 4134.9 5465.7 4144.4 5473.8 4138.5 5476.9 4129 5473.8 4138.5 5476.9 4129 5486.9 4129 5495 4134.9 5498.1 4125.4 5495 4134.9 5505 4134.9 5496.9 4140.8 5493.8 4150.3 5501.9 4156.2 5511.9 4156.2 5503.8 4162.1 5500.7 4152.5 5492.6 4158.4 5484.6 4164.3" clip-path="url(#a)" fill="none" stroke="#000" stroke-linecap="round"/>
<polyline points="5484.6 4164.3 5476.5 4170.2 5484.6 4176.1 5481.5 4185.6 5478.4 4195.1 5486.5 4201 5494.6 4195.1 5502.6 4201 5512.6 4201 5509.6 4191.4 5517.6 4197.3 5514.6 4206.8 5504.6 4206.8 5501.5 4216.3 5504.6 4225.9 5514.6 4225.9 5522.6 4231.7 5530.7 4225.9 5533.8 4235.4 5523.8 4235.4 5533.8 4235.4 5525.7 4241.2 5528.8 4231.7 5525.7 4241.2 5535.7 4241.2 5543.8 4247.1 5546.9 4256.6 5556.9 4256.6 5553.8 4247.1 5556.9 4237.6 5553.8 4247.1 5561.9 4241.2 5553.8 4235.4 5561.9 4229.5 5558.8 4220 5566.9 4225.9 5575 4220 5566.9 4214.1 5575 4220 5566.9 4225.9 5576.9 4225.9 5585 4220 5575 4220" clip-path="url(#a)" fill="none" stroke="#000" stroke-linecap="round"/>
<polyline points="5575 4220 5583.1 4225.9 5580 4216.3 5588.1 4210.5 5585 4220 5581.9 4210.5 5585 4201 5576.9 4195.1 5568.8 4189.2 5558.8 4189.2 5568.8 4189.2 5571.9 4179.7 5575 4170.2 5583.1 4164.3 5586.2 4154.8 5578.1 4148.9 5586.2 4154.8 5583.1 4145.3 5593.1 4145.3 5583.1 4145.3 5580 4154.8 5570 4154.8 5580 4154.8 5588.1 4148.9 5591.2 4158.4 5599.3 4164.3 5609.3 4164.3 5619.3 4164.3 5622.4 4154.8 5625.5 4164.3 5617.4 4158.4 5607.4 4158.4 5617.4 4158.4 5625.5 4164.3 5615.5 4164.3 5607.4 4158.4 5615.5 4164.3 5612.4 4173.8 5615.5 4183.3 5605.5 4183.3 5613.5 4189.2 5616.6 4198.7 5619.7 4208.2" clip-path="url(#a)" fill="none" stroke="#000" stroke-linecap="round"/>
<polyline points="5619.7 4208.2 5622.8 4198.7 5630.9 4192.8 5620.9 4192.8 5617.8 4202.3 5609.7 4208.2 5612.8 4198.7 5609.7 4208.2 5601.6 4202.3 5609.7 4196.5 5619.7 4196.5 5611.6 4190.6 5621.6 4190.6 5618.5 4200.1 5615.5 4190.6 5623.5 4184.7 5631.6 4178.8 5628.5 4188.3 5625.5 4197.9 5615.5 4197.9 5618.5 4207.4 5610.5 4201.5 5618.5 4207.4 5626.6 4213.2 5636.6 4213.2 5644.7 4219.1 5652.8 4225 5662.8 4225 5670.9 4219.1 5660.9 4219.1 5650.9 4219.1 5659 4213.2 5667.1 4219.1 5664 4209.6 5660.9 4219.1 5664 4228.6 5667.1 4238.1 5659 4232.3 5662.1 4241.8 5654 4235.9 5650.9 4245.4 5640.9 4245.4 5644 4235.9" clip-path="url(#a)" fill="none" stroke="#000" stroke-linecap="round"/>
<polyline points="5644 4235.9 5654 4235.9 5650.9 4226.4 5640.9 4226.4 5649 4220.5 5659 4220.5 5667.1 4226.4 5657.1 4226.4 5649 4232.3 5639 4232.3 5642.1 4222.8 5650.2 4228.6 5660.2 4228.6 5663.3 4238.1 5655.2 4232.3 5652.1 4241.8 5655.2 4251.3 5663.3 4257.2 5655.2 4263 5647.1 4257.2 5655.2 4251.3 5663.3 4245.4 5666.4 4254.9 5676.4 4254.9 5679.5 4245.4 5671.4 4251.3 5679.5 4257.2 5682.5 4247.7 5674.5 4253.5 5677.5 4244 5680.6 4234.5 5683.7 4225 5691.8 4230.9 5681.8 4230.9 5671.8 4230.9 5679.9 4236.8 5671.8 4230.9 5681.8 4230.9 5684.9 4221.4 5693 4227.2 5696.1 4217.7 5704.2 4223.6 5694.2 4223.6" clip-path="url(#a)" fill="none" stroke="#000" stroke-linecap="round"/>
<polyline points="5694.2 4223.6 5702.3 4229.5 5710.4 4223.6 5702.3 4229.5 5694.2 4223.6 5702.3 4229.5 5694.2 4223.6 5702.3 4229.5 5712.3 4229.5 5709.2 4220 5701.1 4225.9 5693 4231.7 5689.9 4222.2 5693 4212.7 5703 4212.7 5694.9 4206.8 5703 4201 5713 4201 5723 4201 5726.1 4210.5 5716.1 4210.5 5724.2 4216.3 5716.1 4210.5 5708 4216.3 5718 4216.3 5714.9 4225.9 5718 4235.4 5721.1 4225.9 5731.1 4225.9 5734.2 4216.3 5744.2 4216.3 5747.3 4225.9 5744.2 4235.4 5736.1 4229.5 5733 4239 5743 4239 5746.1 4248.5 5749.2 4239 5752.3 4229.5 5742.3 4229.5 5732.3 4229.5 5740.4 4235.4 5750.4 4235.4" clip-path="url(#a)" fill="none" stroke="#000" stroke-linecap="round"/>
<polyline points="5750.4 4235.4 5753.4 4244.9 5763.4 4244.9 5753.4 4244.9 5743.4 4244.9 5735.4 4239 5743.4 4244.9 5751.5 4250.8 5743.4 4244.9 5751.5 4239 5759.6 4233.1 5751.5 4227.2 5754.6 4236.8 5764.6 4236.8 5767.7 4227.2 5770.8 4217.7 5767.7 4227.2 5777.7 4227.2 5780.8 4217.7 5770.8 4217.7 5762.7 4223.6 5752.7 4223.6 5755.8 4233.1 5752.7 4242.6 5755.8 4252.1 5747.7 4246.3 5744.6 4255.8 5752.7 4249.9 5762.7 4249.9 5765.8 4259.4 5768.9 4268.9 5765.8 4278.4 5755.8 4278.4 5752.7 4268.9 5755.8 4278.4 5752.7 4287.9 5762.7 4287.9 5770.8 4282.1 5762.7 4287.9 5770.8 4282.1 5778.9 4287.9 5782 4297.5 5790.1 4291.6" clip-path="url(#a)" fill="none" stroke="#000" stroke-linecap="round"/>
<polyline points="5790.1 4291.6 5782 4297.5 5790.1 4303.3 5780.1 4303.3 5772 4309.2 5775.1 4318.7 5783.2 4324.6 5773.2 4324.6 5776.3 4315.1 5766.3 4315.1 5756.3 4315.1 5746.3 4315.1 5749.3 4324.6 5741.3 4330.5 5733.2 4336.4 5736.3 4345.9 5746.3 4345.9 5749.3 4355.4 5757.4 4361.2 5760.5 4351.7 5763.6 4361.2 5755.5 4367.1 5747.4 4361.2 5739.3 4367.1 5736.3 4376.6 5744.3 4382.5 5747.4 4392 5757.4 4392 5754.3 4401.5 5746.3 4395.7 5754.3 4401.5 5744.3 4401.5 5752.4 4395.7 5744.3 4401.5 5752.4 4407.4 5755.5 4416.9 5752.4 4426.4 5760.5 4432.3 5763.6 4422.8 5771.7 4416.9 5763.6 4422.8 5773.6 4422.8 5770.5 4413.3" clip-path="url(#a)" fill="none" stroke="#000" stroke-linecap="round"/>
<polyline points="5770.5 4413.3 5780.5 4413.3 5783.6 4403.8 5786.7 4413.3 5796.7 4413.3 5793.6 4403.8 5796.7 4413.3 5786.7 4413.3 5794.8 4419.2 5804.8 4419.2 5796.7 4413.3 5799.8 4422.8 5802.9 4413.3 5812.9 4413.3 5804.8 4419.2 5807.9 4409.7 5816 4403.8 5812.9 4394.3 5809.8 4384.8 5801.7 4378.9 5809.8 4384.8 5817.9 4378.9 5826 4373 5836 4373 5844.1 4367.1 5841 4357.6 5844.1 4367.1 5847.2 4357.6 5855.2 4363.5 5847.2 4357.6 5839.1 4363.5 5831 4357.6 5839.1 4363.5 5849.1 4363.5 5846 4373 5849.1 4382.5 5857.2 4388.4 5865.2 4394.3 5873.3 4388.4 5870.2 4397.9 5867.2 4388.4 5859.1 4382.5 5867.2 4388.4" clip-path="url(#a)" fill="none" stroke="#000" stroke-linecap="round"/>
<polyline points="5867.2 4388.4 5870.2 4397.9 5862.2 4392 5859.1 4382.5 5862.2 4392 5854.1 4397.9 5851 4407.4 5842.9 4401.5 5846 4411 5842.9 4420.6 5839.8 4430.1 5847.9 4424.2 5857.9 4424.2 5849.8 4418.3 5841.7 4424.2 5831.7 4424.2 5839.8 4418.3 5831.7 4424.2 5828.6 4414.7 5838.6 4414.7 5846.7 4420.6 5843.6 4411 5851.7 4416.9 5843.6 4422.8 5846.7 4413.3 5856.7 4413.3 5866.7 4413.3 5858.6 4419.2 5850.5 4425 5842.4 4419.2 5839.3 4428.7 5836.3 4419.2 5839.3 4428.7 5842.4 4438.2 5850.5 4444.1 5853.6 4453.6 5856.7 4463.1 5864.8 4469 5874.8 4469 5866.7 4463.1 5858.6 4457.2 5868.6 4457.2 5871.7 4466.7" clip-path="url(#a)" fill="none" stroke="#000" stroke-linecap="round"/>
<polyline points="5871.7 4466.7 5874.8 4457.2 5866.7 4463.1 5863.6 4472.6 5860.5 4482.1 5857.4 4472.6 5854.3 4482.1 5851.3 4472.6 5843.2 4478.5 5835.1 4472.6 5843.2 4466.7 5851.3 4472.6 5854.3 4463.1 5846.3 4457.2 5856.3 4457.2 5864.3 4463.1 5867.4 4472.6 5859.3 4466.7 5849.3 4466.7 5841.3 4460.8 5849.3 4455 5852.4 4464.5 5860.5 4470.4 5857.4 4479.9 5854.3 4470.4 5846.3 4476.2 5843.2 4485.7 5846.3 4495.3 5836.3 4495.3 5833.2 4485.7 5843.2 4485.7 5853.2 4485.7 5850.1 4495.3 5858.2 4501.1 5866.3 4495.3 5856.3 4495.3 5859.3 4504.8 5867.4 4498.9 5857.4 4498.9 5865.5 4493 5873.6 4487.1 5881.7 4481.3 5884.8 4490.8" clip-path="url(#a)" fill="none" stroke="#000" stroke-linecap="round"/>
<polyline points="5884.8 4490.8 5876.7 4484.9 5868.6 4479 5871.7 4488.5 5868.6 4479 5876.7 4484.9 5884.8 4479 5887.9 4488.5 5896 4482.6 5899.1 4492.2 5891 4486.3 5894.1 4495.8 5904.1 4495.8 5894.1 4495.8 5891 4486.3 5894.1 4495.8 5891 4486.3 5894.1 4495.8 5902.2 4501.7 5905.2 4492.2 5895.2 4492.2 5885.2 4492.2 5888.3 4482.6 5896.4 4476.8 5904.5 4482.6 5901.4 4473.1 5911.4 4473.1 5919.5 4479 5927.6 4484.9 5924.5 4494.4 5916.4 4488.5 5919.5 4498 5916.4 4488.5 5906.4 4488.5 5914.5 4494.4 5906.4 4500.3 5903.3 4509.8 5911.4 4503.9 5919.5 4509.8 5927.6 4503.9 5935.7 4509.8 5932.6 4519.3 5924.5 4525.2" clip-path="url(#a)" fill="none" stroke="#000" stroke-linecap="round"/>
<polyline points="5924.5 4525.2 5921.4 4515.7 5913.3 4521.5 5921.4 4527.4 5918.3 4536.9 5926.4 4531.1 5934.5 4525.2 5926.4 4519.3 5918.3 4513.4 5921.4 4522.9 5929.5 4528.8 5926.4 4538.3 5934.5 4544.2 5926.4 4538.3 5918.3 4532.4 5915.2 4522.9 5918.3 4532.4 5921.4 4542 5918.3 4532.4 5928.3 4532.4 5938.3 4532.4 5935.2 4522.9 5932.2 4532.4 5940.2 4538.3 5948.3 4532.4 5956.4 4526.6 5948.3 4532.4 5956.4 4538.3 5964.5 4532.4 5956.4 4526.6 5946.4 4526.6 5938.3 4520.7 5935.2 4530.2 5927.2 4536.1 5924.1 4545.6 5921 4536.1 5912.9 4542 5922.9 4542 5931 4547.8 5927.9 4557.3 5924.8 4566.8 5916.7 4572.7 5908.6 4566.8" clip-path="url(#a)" fill="none" stroke="#000" stroke-linecap="round"/>
<polyline points="5908.6 4566.8 5911.7 4557.3 5908.6 4566.8 5900.5 4572.7 5908.6 4578.6 5918.6 4578.6 5908.6 4578.6 5918.6 4578.6 5921.7 4588.1 5918.6 4597.6 5928.6 4597.6 5918.6 4597.6 5921.7 4607.1 5913.6 4601.3 5903.6 4601.3 5900.5 4610.8 5903.6 4620.3 5895.5 4614.4 5903.6 4608.5 5895.5 4602.6 5887.4 4596.8 5879.3 4590.9 5876.3 4600.4 5866.3 4600.4 5856.3 4600.4 5853.2 4609.9 5861.3 4615.8 5858.2 4625.3 5861.3 4634.8 5869.3 4628.9 5866.3 4638.4 5856.3 4638.4 5853.2 4628.9 5843.2 4628.9 5835.1 4634.8 5838.2 4644.3 5835.1 4653.8 5843.2 4659.7 5835.1 4665.6 5832 4656.1 5835.1 4665.6 5827 4659.7 5837 4659.7" clip-path="url(#a)" fill="none" stroke="#000" stroke-linecap="round"/>
<polyline points="5837 4659.7 5827 4659.7 5830.1 4669.2 5827 4678.7 5818.9 4684.6 5822 4694.1 5830.1 4688.2 5840.1 4688.2 5830.1 4688.2 5838.2 4694.1 5841.3 4684.6 5849.3 4690.5 5857.4 4684.6 5854.3 4694.1 5862.4 4700 5865.5 4690.5 5862.4 4700 5854.3 4694.1 5857.4 4703.6 5865.5 4709.5 5862.4 4700 5859.3 4709.5 5867.4 4703.6 5875.5 4709.5 5865.5 4709.5 5873.6 4703.6 5883.6 4703.6 5886.7 4694.1 5889.8 4684.6 5886.7 4675.1 5889.8 4684.6 5899.8 4684.6 5909.8 4684.6 5917.9 4690.5 5927.9 4690.5 5931 4681 5927.9 4690.5 5936 4684.6 5939.1 4694.1 5936 4684.6 5926 4684.6 5922.9 4675.1 5926 4684.6" clip-path="url(#a)" fill="none" stroke="#000" stroke-linecap="round"/>
<polyline points="5926 4684.6 5934.1 4690.5 5926 4696.4 5922.9 4705.9 5926 4715.4 5929.1 4724.9 5939.1 4724.9 5931 4730.8 5934.1 4721.3 5931 4711.8 5934.1 4721.3 5931 4730.8 5927.9 4721.3 5931 4711.8 5927.9 4721.3 5917.9 4721.3 5909.8 4727.1 5906.7 4717.6 5903.6 4727.1 5895.5 4733 5887.4 4738.9 5897.4 4738.9 5905.5 4744.8 5902.4 4735.3 5892.4 4735.3 5884.3 4729.4 5894.3 4729.4 5884.3 4729.4 5887.4 4719.9 5895.5 4725.8 5898.6 4735.3 5901.7 4725.8 5904.8 4735.3 5894.8 4735.3 5902.9 4729.4 5911 4735.3 5919.1 4741.1 5909.1 4741.1 5899.1 4741.1 5896 4731.6 5887.9 4737.5 5891 4728 5887.9 4737.5" clip-path="url(#a)" fill="none" stroke="#000" stroke-linecap="round"/>
<polyline points="5887.9 4737.5 5884.8 4747 5887.9 4756.5 5884.8 4766 5881.7 4775.6 5884.8 4785.1 5892.9 4790.9 5889.8 4781.4 5886.7 4771.9 5894.8 4777.8 5891.7 4787.3 5899.8 4781.4 5889.8 4781.4 5881.7 4787.3 5873.6 4793.2 5876.7 4783.7 5868.6 4789.6 5871.7 4780 5861.7 4780 5858.6 4770.5 5868.6 4770.5 5871.7 4780 5879.8 4774.2 5876.7 4764.7 5884.8 4770.5 5887.9 4780 5884.8 4789.6 5881.7 4780 5873.6 4774.2 5870.5 4764.7 5880.5 4764.7 5877.4 4774.2 5880.5 4783.7 5872.4 4789.6 5875.5 4780 5865.5 4780 5857.4 4785.9 5854.3 4795.4 5846.3 4789.6 5849.3 4780 5857.4 4785.9 5865.5 4791.8 5857.4 4797.7" clip-path="url(#a)" fill="none" stroke="#000" stroke-linecap="round"/>
<polyline points="5857.4 4797.7 5860.5 4807.2 5870.5 4807.2 5862.4 4801.3 5859.3 4810.8 5869.3 4810.8 5861.3 4804.9 5871.3 4804.9 5881.3 4804.9 5891.3 4804.9 5888.2 4814.5 5885.1 4804.9 5882 4795.4 5878.9 4804.9 5882 4795.4 5885.1 4804.9 5895.1 4804.9 5892 4814.5 5902 4814.5 5898.9 4824 5895.8 4814.5 5892.7 4824 5900.8 4829.8 5892.7 4824 5895.8 4814.5 5892.7 4824 5895.8 4814.5 5892.7 4824 5895.8 4833.5 5903.9 4827.6 5895.8 4821.7 5887.7 4815.8 5895.8 4810 5905.8 4810 5908.9 4819.5 5912 4810 5920.1 4815.8 5923.2 4825.3 5926.3 4834.9 5918.2 4840.7 5915.1 4831.2 5912 4840.7 5915.1 4831.2" clip-path="url(#a)" fill="none" stroke="#000" stroke-linecap="round"/>
<polyline points="5915.1 4831.2 5907 4825.3 5910.1 4834.9 5900.1 4834.9 5892 4840.7 5902 4840.7 5905.1 4850.2 5915.1 4850.2 5918.2 4859.8 5910.1 4865.6 5900.1 4865.6 5903.2 4856.1 5893.2 4856.1 5896.3 4865.6 5888.2 4871.5 5898.2 4871.5 5908.2 4871.5 5905.1 4862 5902 4852.5 5898.9 4862 5902 4871.5 5893.9 4877.4 5897 4886.9 5893.9 4877.4 5890.8 4867.9 5893.9 4858.4 5890.8 4867.9 5887.7 4877.4 5890.8 4867.9 5898.9 4873.8 5907 4879.6 5910.1 4870.1 5902 4876 5905.1 4885.5 5915.1 4885.5 5925.1 4885.5 5915.1 4885.5 5918.2 4895 5928.2 4895 5925.1 4885.5 5917 4879.6 5913.9 4870.1 5905.8 4876" clip-path="url(#a)" fill="none" stroke="#000" stroke-linecap="round"/>
<polyline points="5905.8 4876 5895.8 4876 5887.7 4881.9 5890.8 4872.4 5880.8 4872.4 5888.9 4878.3 5892 4887.8 5883.9 4893.6 5875.8 4899.5 5865.8 4899.5 5862.7 4890 5870.8 4884.1 5862.7 4890 5852.7 4890 5855.8 4899.5 5863.9 4905.4 5855.8 4899.5 5863.9 4905.4 5860.8 4914.9 5852.7 4920.8 5860.8 4926.7 5852.7 4920.8 5849.6 4930.3 5846.5 4920.8 5838.4 4914.9 5830.4 4920.8 5827.3 4930.3 5824.2 4920.8 5834.2 4920.8 5831.1 4911.3 5828 4901.8 5824.9 4892.3 5816.8 4898.1 5808.7 4892.3 5800.6 4886.4 5792.5 4892.3 5795.6 4901.8 5787.5 4907.6 5784.5 4917.2 5794.5 4917.2 5786.4 4923 5778.3 4917.2 5781.4 4907.6" clip-path="url(#a)" fill="none" stroke="#000" stroke-linecap="round"/>
<polyline points="5781.4 4907.6 5773.3 4901.8 5763.3 4901.8 5760.2 4911.3 5752.1 4917.2 5755.2 4926.7 5745.2 4926.7 5748.3 4917.2 5745.2 4926.7 5742.1 4917.2 5750.2 4923 5742.1 4917.2 5739 4926.7 5730.9 4932.5 5720.9 4932.5 5717.8 4942 5727.8 4942 5735.9 4947.9 5727.8 4942 5730.9 4951.6 5739 4945.7 5742.1 4955.2 5752.1 4955.2 5744 4961.1 5747.1 4970.6 5755.2 4964.7 5747.1 4970.6 5744 4961.1 5740.9 4970.6 5744 4980.1 5747.1 4970.6 5739 4976.5 5749 4976.5 5752.1 4986 5744 4980.1 5754 4980.1 5762.1 4986 5770.2 4980.1 5778.3 4974.2 5781.4 4964.7 5778.3 4974.2 5786.4 4980.1 5794.5 4986" clip-path="url(#a)" fill="none" stroke="#000" stroke-linecap="round"/>
<polyline points="5794.5 4986 5797.5 4995.5 5805.6 5001.4 5813.7 4995.5 5805.6 5001.4 5815.6 5001.4 5812.5 5010.9 5815.6 5001.4 5807.5 4995.5 5810.6 4986 5807.5 4995.5 5810.6 5005 5800.6 5005 5792.5 5010.9 5789.5 5020.4 5786.4 5029.9 5794.5 5035.8 5784.5 5035.8 5792.5 5029.9 5795.6 5020.4 5792.5 5029.9 5784.5 5035.8 5787.5 5026.3 5795.6 5020.4 5787.5 5026.3 5779.5 5020.4 5769.5 5020.4 5772.5 5010.9 5764.5 5016.7 5754.5 5016.7 5744.5 5016.7 5752.5 5022.6 5755.6 5032.1 5758.7 5022.6 5750.6 5016.7 5747.5 5007.2 5755.6 5013.1 5747.5 5007.2 5755.6 5001.4 5758.7 5010.9 5755.6 5020.4 5763.7 5014.5 5760.6 5024" clip-path="url(#a)" fill="none" stroke="#000" stroke-linecap="round"/>
<polyline points="5760.6 5024 5752.5 5018.1 5762.5 5018.1 5765.6 5027.6 5768.7 5037.2 5760.6 5031.3 5752.5 5025.4 5755.6 5015.9 5745.6 5015.9 5753.7 5010 5745.6 5015.9 5737.5 5021.8 5734.5 5031.3 5726.4 5037.2 5718.3 5043 5715.2 5052.5 5718.3 5062.1 5721.4 5052.5 5724.5 5043 5727.5 5052.5 5719.5 5058.4 5729.5 5058.4 5721.4 5052.5 5711.4 5052.5 5701.4 5052.5 5709.5 5046.7 5699.5 5046.7 5707.5 5040.8 5699.5 5034.9 5702.5 5025.4 5710.6 5031.3 5707.5 5040.8 5717.5 5040.8 5720.6 5031.3 5723.7 5040.8 5720.6 5050.3 5712.5 5056.2 5715.6 5046.7 5712.5 5037.2 5715.6 5027.6 5723.7 5033.5 5715.6 5039.4 5712.5 5048.9" clip-path="url(#a)" fill="none" stroke="#000" stroke-linecap="round"/>
<polyline points="5712.5 5048.9 5702.5 5048.9 5710.6 5043 5702.5 5037.2 5692.5 5037.2 5684.5 5043 5681.4 5033.5 5689.5 5027.6 5692.5 5037.2 5695.6 5046.7 5685.6 5046.7 5682.5 5056.2 5690.6 5062.1 5687.5 5052.5 5679.5 5058.4 5687.5 5064.3 5684.5 5054.8 5692.5 5060.7 5700.6 5066.5 5708.7 5072.4 5700.6 5078.3 5703.7 5068.8 5706.8 5059.3 5698.7 5065.2 5706.8 5059.3 5703.7 5068.8 5711.8 5074.7 5703.7 5080.5 5711.8 5086.4 5703.7 5092.3 5706.8 5082.8 5698.7 5088.7 5701.8 5098.2 5698.7 5088.7 5706.8 5082.8 5698.7 5088.7 5706.8 5082.8 5698.7 5088.7 5695.6 5098.2 5705.6 5098.2 5702.5 5088.7 5699.5 5079.2 5709.5 5079.2" clip-path="url(#a)" fill="none" stroke="#000" stroke-linecap="round"/>
<polyline points="5709.5 5079.2 5717.5 5085 5714.5 5094.5 5722.5 5088.7 5725.6 5098.2 5722.5 5107.7 5719.5 5117.2 5709.5 5117.2 5712.5 5107.7 5704.5 5113.6 5712.5 5107.7 5709.5 5098.2 5706.4 5107.7 5698.3 5101.8 5688.3 5101.8 5696.4 5107.7 5693.3 5117.2 5701.4 5123.1 5698.3 5132.6 5688.3 5132.6 5680.2 5126.7 5688.3 5120.8 5680.2 5115 5677.1 5124.5 5667.1 5124.5 5675.2 5130.3 5683.3 5136.2 5686.4 5126.7 5689.5 5117.2 5681.4 5123.1 5678.3 5132.6 5668.3 5132.6 5665.2 5142.1 5668.3 5132.6 5671.4 5123.1 5679.5 5117.2 5671.4 5123.1 5663.3 5129 5671.4 5123.1 5674.5 5132.6 5677.5 5142.1 5685.6 5136.2 5675.6 5136.2" clip-path="url(#a)" fill="none" stroke="#000" stroke-linecap="round"/>
<polyline points="5675.6 5136.2 5672.5 5145.7 5680.6 5151.6 5688.7 5157.5 5680.6 5151.6 5677.5 5161.1 5685.6 5167 5688.7 5157.5 5685.6 5148 5688.7 5138.5 5678.7 5138.5 5670.6 5132.6 5660.6 5132.6 5668.7 5126.7 5660.6 5120.8 5663.7 5130.3 5660.6 5139.9 5650.6 5139.9 5640.6 5139.9 5632.5 5134 5635.6 5124.5 5645.6 5124.5 5635.6 5124.5 5627.5 5118.6 5624.5 5128.1 5627.5 5137.6 5624.5 5128.1 5627.5 5137.6 5619.5 5143.5 5609.5 5143.5 5612.5 5153 5609.5 5143.5 5601.4 5149.4 5604.5 5139.9 5601.4 5130.3 5591.4 5130.3 5583.3 5136.2 5586.4 5126.7 5594.5 5132.6 5597.5 5123.1 5600.6 5113.6 5603.7 5104.1 5593.7 5104.1" clip-path="url(#a)" fill="none" stroke="#000" stroke-linecap="round"/>
<polyline points="5593.7 5104.1 5590.6 5094.5 5587.5 5085 5577.5 5085 5574.5 5094.5 5564.5 5094.5 5556.4 5100.4 5564.5 5106.3 5554.5 5106.3 5551.4 5096.8 5559.5 5090.9 5556.4 5081.4 5548.3 5075.5 5540.2 5081.4 5530.2 5081.4 5527.1 5090.9 5519 5085 5527.1 5079.2 5519 5085 5522.1 5075.5 5525.2 5085 5522.1 5075.5 5514 5081.4 5504 5081.4 5495.9 5075.5 5487.8 5081.4 5495.9 5087.3 5499 5096.8 5495.9 5087.3 5492.8 5096.8 5502.8 5096.8 5499.7 5106.3 5507.8 5112.2 5497.8 5112.2 5494.7 5121.7 5504.7 5121.7 5494.7 5121.7 5497.8 5112.2 5489.7 5118.1 5486.6 5127.6 5494.7 5121.7 5484.7 5121.7 5492.8 5127.6" clip-path="url(#a)" fill="none" stroke="#000" stroke-linecap="round"/>
<polyline points="5492.8 5127.6 5489.7 5137.1 5486.6 5127.6 5494.7 5133.4 5497.8 5143 5507.8 5143 5517.8 5143 5525.9 5137.1 5517.8 5143 5520.9 5152.5 5524 5162 5520.9 5171.5 5524 5181 5534 5181 5524 5181 5532.1 5186.9 5524 5192.8 5532.1 5186.9 5529 5177.4 5537.1 5171.5 5529 5177.4 5525.9 5186.9 5517.8 5181 5507.8 5181 5499.7 5186.9 5491.6 5192.8 5494.7 5202.3 5486.6 5196.4 5496.6 5196.4 5504.7 5190.5 5496.6 5196.4 5486.6 5196.4 5494.7 5190.5 5504.7 5190.5 5494.7 5190.5 5491.6 5181 5483.5 5175.1 5491.6 5169.2 5481.6 5169.2 5473.5 5163.4 5465.5 5157.5 5468.5 5167 5465.5 5176.5" clip-path="url(#a)" fill="none" stroke="#000" stroke-linecap="round"/>
<polyline points="5465.5 5176.5 5473.5 5170.6 5470.5 5161.1 5473.5 5151.6 5476.6 5161.1 5473.5 5151.6 5483.5 5151.6 5480.5 5161.1 5472.4 5167 5482.4 5167 5474.3 5172.9 5471.2 5163.4 5479.3 5169.2 5476.2 5178.8 5473.1 5188.3 5470 5178.8 5466.9 5169.2 5475 5163.4 5466.9 5157.5 5476.9 5157.5 5466.9 5157.5 5456.9 5157.5 5448.8 5163.4 5438.8 5163.4 5428.8 5163.4 5420.7 5169.2 5417.6 5178.8 5425.7 5172.9 5433.8 5167 5430.7 5176.5 5420.7 5176.5 5428.8 5182.4 5425.7 5172.9 5417.6 5167 5409.6 5161.1 5419.6 5161.1 5411.5 5155.2 5421.5 5155.2 5418.4 5145.7 5426.5 5139.9 5429.6 5149.4 5421.5 5155.2 5429.6 5161.1" clip-path="url(#a)" fill="none" stroke="#000" stroke-linecap="round"/>
<polyline points="5429.6 5161.1 5437.6 5155.2 5434.6 5164.8 5426.5 5170.6 5416.5 5170.6 5424.6 5164.8 5427.6 5155.2 5435.7 5149.4 5438.8 5158.9 5428.8 5158.9 5420.7 5164.8 5412.6 5158.9 5422.6 5158.9 5419.6 5149.4 5411.5 5143.5 5401.5 5143.5 5404.6 5134 5414.6 5134 5411.5 5143.5 5408.4 5153 5400.3 5147.1 5392.2 5153 5395.3 5162.5 5398.4 5153 5388.4 5153 5391.5 5162.5 5394.6 5153 5397.6 5162.5 5400.7 5172 5403.8 5181.5 5393.8 5181.5 5401.9 5175.7 5410 5169.8 5400 5169.8 5410 5169.8 5401.9 5175.7 5405 5185.2 5395 5185.2 5398.1 5194.7 5388.1 5194.7 5396.2 5188.8 5386.2 5188.8 5383.1 5198.3" clip-path="url(#a)" fill="none" stroke="#000" stroke-linecap="round"/>
<polyline points="5383.1 5198.3 5386.2 5188.8 5396.2 5188.8 5386.2 5188.8 5396.2 5188.8 5386.2 5188.8 5378.1 5194.7 5386.2 5200.5 5389.3 5191 5392.4 5181.5 5400.5 5187.4 5403.5 5196.9 5395.5 5202.8 5405.5 5202.8 5402.4 5212.3 5394.3 5218.2 5386.2 5224.1 5378.1 5218.2 5386.2 5212.3 5376.2 5212.3 5386.2 5212.3 5389.3 5202.8 5381.2 5208.7 5378.1 5199.2 5370 5193.3 5373.1 5202.8 5365 5208.7 5368.1 5218.2 5360 5224.1 5351.9 5218.2 5348.8 5208.7 5358.8 5208.7 5355.7 5199.2 5347.6 5205 5339.6 5199.2 5342.6 5208.7 5345.7 5218.2 5353.8 5212.3 5361.9 5206.4 5351.9 5206.4 5343.8 5212.3 5335.7 5206.4 5327.6 5212.3" clip-path="url(#a)" fill="none" stroke="#000" stroke-linecap="round"/>
<polyline points="5327.6 5212.3 5335.7 5206.4 5343.8 5200.5 5353.8 5200.5 5343.8 5200.5 5333.8 5200.5 5343.8 5200.5 5340.7 5210.1 5337.6 5219.6 5347.6 5219.6 5339.6 5213.7 5331.5 5219.6 5334.6 5229.1 5337.6 5238.6 5334.6 5229.1 5326.5 5235 5329.6 5244.5 5337.6 5238.6 5340.7 5229.1 5348.8 5223.2 5340.7 5217.3 5337.6 5207.8 5329.6 5201.9 5339.6 5201.9 5336.5 5192.4 5333.4 5201.9 5325.3 5207.8 5317.2 5201.9 5309.1 5196.1 5306 5186.5 5314.1 5180.7 5322.2 5186.5 5314.1 5180.7 5311 5171.2 5302.9 5177 5299.8 5186.5 5302.9 5177 5299.8 5186.5 5289.8 5186.5 5281.7 5180.7 5278.7 5190.2 5281.7 5180.7 5271.7 5180.7" clip-path="url(#a)" fill="none" stroke="#000" stroke-linecap="round"/>
<polyline points="5271.7 5180.7 5279.8 5174.8 5282.9 5165.3 5274.8 5159.4 5264.8 5159.4 5272.9 5153.5 5276 5163 5284.1 5157.2 5292.2 5151.3 5300.3 5145.4 5292.2 5139.5 5295.3 5130 5298.4 5120.5 5290.3 5114.6 5282.2 5120.5 5274.1 5114.6 5264.1 5114.6 5267.2 5124.1 5259.1 5118.3 5262.2 5108.7 5272.2 5108.7 5275.3 5099.2 5272.2 5089.7 5262.2 5089.7 5254.1 5083.8 5246 5089.7 5242.9 5080.2 5252.9 5080.2 5242.9 5080.2 5251 5074.3 5247.9 5083.8 5251 5074.3 5241 5074.3 5232.9 5068.5 5229.8 5059 5219.8 5059 5222.9 5068.5 5219.8 5078 5222.9 5068.5 5214.8 5074.3 5222.9 5080.2 5214.8 5086.1 5217.9 5095.6" clip-path="url(#a)" fill="none" stroke="#000" stroke-linecap="round"/>
<polyline points="5217.9 5095.6 5209.8 5089.7 5201.7 5095.6 5209.8 5101.5 5201.7 5095.6 5209.8 5089.7 5199.8 5089.7 5191.7 5095.6 5201.7 5095.6 5193.7 5089.7 5196.7 5099.2 5188.7 5105.1 5191.7 5095.6 5194.8 5105.1 5191.7 5114.6 5199.8 5120.5 5207.9 5126.4 5217.9 5126.4 5207.9 5126.4 5204.8 5135.9 5201.7 5145.4 5193.7 5151.3 5190.6 5160.8 5198.7 5166.7 5190.6 5160.8 5193.7 5170.3 5183.7 5170.3 5193.7 5170.3 5196.7 5160.8 5206.7 5160.8 5196.7 5160.8 5188.7 5166.7 5185.6 5157.2 5177.5 5151.3 5167.5 5151.3 5157.5 5151.3 5154.4 5160.8 5151.3 5151.3 5159.4 5157.2 5169.4 5157.2 5159.4 5157.2 5151.3 5151.3 5161.3 5151.3" clip-path="url(#a)" fill="none" stroke="#000" stroke-linecap="round"/>
<polyline points="5161.3 5151.3 5169.4 5157.2 5161.3 5151.3 5164.4 5141.8 5161.3 5132.3 5171.3 5132.3 5163.2 5126.4 5160.1 5116.9 5157 5107.4 5153.9 5116.9 5145.8 5122.7 5155.8 5122.7 5158.9 5113.2 5167 5107.4 5163.9 5116.9 5167 5107.4 5175.1 5113.2 5167 5119.1 5157 5119.1 5165.1 5125 5155.1 5125 5158.2 5115.5 5161.3 5125 5153.2 5130.9 5145.1 5136.8 5148.2 5127.2 5151.3 5117.7 5161.3 5117.7 5158.2 5108.2 5166.3 5114.1 5158.2 5108.2 5150.1 5102.3 5140.1 5102.3 5132 5096.5 5123.9 5090.6 5113.9 5090.6 5105.8 5096.5 5115.8 5096.5 5125.8 5096.5 5117.8 5102.3 5109.7 5096.5 5112.8 5106 5115.8 5096.5" clip-path="url(#a)" fill="none" stroke="#000" stroke-linecap="round"/>
<polyline points="5115.8 5096.5 5112.8 5087 5109.7 5077.4 5117.8 5083.3 5114.7 5073.8 5122.8 5079.7 5125.8 5070.2 5135.8 5070.2 5132.8 5079.7 5122.8 5079.7 5125.8 5089.2 5135.8 5089.2 5127.8 5095.1 5117.8 5095.1 5109.7 5089.2 5119.7 5089.2 5127.8 5083.3 5137.8 5083.3 5134.7 5092.8 5126.6 5087 5116.6 5087 5113.5 5077.4 5121.6 5083.3 5124.7 5073.8 5121.6 5064.3 5113.5 5058.4 5121.6 5052.5 5129.7 5058.4 5121.6 5064.3 5113.5 5070.2 5110.4 5060.7 5100.4 5060.7 5097.3 5070.2 5105.4 5064.3 5097.3 5058.4 5094.2 5067.9 5102.3 5062.1 5099.2 5071.6 5096.1 5081.1 5093 5090.6 5084.9 5084.7 5094.9 5084.7 5104.9 5084.7" clip-path="url(#a)" fill="none" stroke="#000" stroke-linecap="round"/>
<polyline points="5104.9 5084.7 5096.9 5078.8 5104.9 5084.7 5094.9 5084.7 5091.9 5094.2 5083.8 5088.3 5080.7 5097.9 5072.6 5092 5082.6 5092 5074.5 5086.1 5066.4 5092 5074.5 5086.1 5082.6 5092 5074.5 5086.1 5082.6 5092 5074.5 5086.1 5064.5 5086.1 5067.6 5095.6 5075.7 5089.7 5083.8 5083.8 5086.9 5093.4 5083.8 5102.9 5073.8 5102.9 5081.9 5108.7 5073.8 5114.6 5063.8 5114.6 5053.8 5114.6 5050.7 5105.1 5060.7 5105.1 5052.6 5099.2 5060.7 5105.1 5068.8 5099.2 5058.8 5099.2 5061.9 5089.7 5058.8 5080.2 5055.7 5089.7 5045.7 5089.7 5042.6 5099.2 5032.6 5099.2 5029.5 5089.7 5032.6 5080.2 5040.7 5086.1 5043.8 5076.6" clip-path="url(#a)" fill="none" stroke="#000" stroke-linecap="round"/>
<polyline points="5043.8 5076.6 5033.8 5076.6 5030.7 5067.1 5027.6 5076.6 5024.5 5086.1 5034.5 5086.1 5044.5 5086.1 5036.4 5080.2 5026.4 5080.2 5023.3 5070.7 5013.3 5070.7 5023.3 5070.7 5033.3 5070.7 5041.4 5076.6 5033.3 5070.7 5025.2 5064.8 5033.3 5070.7 5025.2 5076.6 5017.1 5082.5 5025.2 5088.3 5022.1 5078.8 5012.1 5078.8 5009 5088.3 5006 5097.9 5009 5088.3 4999 5088.3 4996 5097.9 5006 5097.9 5014 5092 5024 5092 5021 5082.5 5024 5073 5021 5063.4 5029 5069.3 5032.1 5059.8 5024 5065.7 5014 5065.7 5011 5056.2 5007.9 5046.7 5011 5037.2 5021 5037.2 5024 5046.7 5021 5037.2" clip-path="url(#a)" fill="none" stroke="#000" stroke-linecap="round"/>
<polyline points="5021 5037.2 5024 5027.6 5014 5027.6 5006 5033.5 5014 5027.6 5006 5033.5 4997.9 5027.6 4994.8 5018.1 4986.7 5024 4994.8 5018.1 4986.7 5012.3 4996.7 5012.3 5004.8 5006.4 5001.7 4996.9 4993.6 4991 5003.6 4991 5000.5 5000.5 5010.5 5000.5 5020.5 5000.5 5030.5 5000.5 5027.4 4991 5035.5 4985.1 5043.6 4979.2 5040.5 4969.7 5030.5 4969.7 5027.4 4960.2 5019.3 4954.3 5016.2 4963.8 5013.1 4954.3 5021.2 4948.5 5029.3 4954.3 5037.4 4948.5 5040.5 4938.9 5032.4 4933.1 5029.3 4923.6 5019.3 4923.6 5022.4 4914 5030.5 4919.9 5022.4 4914 5032.4 4914 5024.3 4919.9 5032.4 4914 5024.3 4908.2" clip-path="url(#a)" fill="none" stroke="#000" stroke-linecap="round"/>
<polyline points="5024.3 4908.2 5021.2 4898.7 5024.3 4889.1 5016.2 4883.3 5013.1 4892.8 5005 4898.7 5013.1 4892.8 5003.1 4892.8 5006.2 4902.3 4996.2 4902.3 4993.1 4911.8 4990 4902.3 4980 4902.3 4983.1 4911.8 4980 4902.3 4990 4902.3 4982 4896.4 4972 4896.4 4980 4902.3 4977 4892.8 4973.9 4902.3 4963.9 4902.3 4972 4896.4 4968.9 4905.9 4960.8 4911.8 4963.9 4921.3 4967 4930.8 4975 4936.7 4967 4930.8 4958.9 4936.7 4950.8 4942.6 4940.8 4942.6 4932.7 4948.5 4935.8 4958 4932.7 4948.5 4929.6 4958 4921.5 4952.1 4929.6 4958 4937.7 4952.1 4945.8 4958 4937.7 4952.1 4927.7 4952.1 4930.8 4942.6" clip-path="url(#a)" fill="none" stroke="#000" stroke-linecap="round"/>
<polyline points="4930.8 4942.6 4927.7 4933.1 4919.6 4927.2 4911.5 4921.3 4903.4 4927.2 4906.5 4917.7 4909.6 4927.2 4917.7 4933.1 4909.6 4927.2 4906.5 4917.7 4914.6 4923.6 4917.7 4933.1 4914.6 4923.6 4922.7 4917.7 4925.8 4908.2 4933.9 4914 4930.8 4904.5 4933.9 4895 4937 4885.5 4928.9 4891.4 4918.9 4891.4 4927 4897.3 4935 4891.4 4945 4891.4 4937 4897.3 4945 4891.4 4948.1 4900.9 4938.1 4900.9 4930 4895 4933.1 4904.5 4925 4898.7 4933.1 4892.8 4930 4902.3 4920 4902.3 4910 4902.3 4918.1 4896.4 4926.2 4890.5 4934.3 4896.4 4937.4 4886.9 4940.5 4896.4 4937.4 4886.9 4934.3 4877.4 4926.2 4871.5" clip-path="url(#a)" fill="none" stroke="#000" stroke-linecap="round"/>
<polyline points="4926.2 4871.5 4923.1 4862 4920 4852.5 4912 4846.6 4902 4846.6 4910 4852.5 4918.1 4858.4 4908.1 4858.4 4905 4848.9 4902 4858.4 4910 4852.5 4913.1 4843 4916.2 4833.5 4919.3 4843 4922.4 4833.5 4925.5 4843 4933.6 4837.1 4941.7 4843 4933.6 4848.9 4925.5 4843 4922.4 4852.5 4930.5 4858.4 4920.5 4858.4 4912.4 4852.5 4909.3 4843 4917.4 4848.9 4927.4 4848.9 4935.5 4854.7 4927.4 4860.6 4924.3 4851.1 4916.2 4845.2 4919.3 4835.7 4922.4 4845.2 4930.5 4839.4 4933.6 4829.8 4930.5 4820.3 4940.5 4820.3 4943.6 4829.8 4933.6 4829.8 4923.6 4829.8 4926.7 4820.3 4918.6 4814.5 4910.5 4820.3" clip-path="url(#a)" fill="none" stroke="#000" stroke-linecap="round"/>
<polyline points="4910.5 4820.3 4920.5 4820.3 4917.4 4810.8 4909.3 4816.7 4919.3 4816.7 4911.2 4822.6 4903.1 4828.5 4895 4834.3 4892 4824.8 4900 4830.7 4908.1 4836.6 4905 4827.1 4908.1 4836.6 4900 4830.7 4892 4836.6 4888.9 4827.1 4880.8 4832.9 4877.7 4823.4 4885.8 4829.3 4882.7 4819.8 4872.7 4819.8 4882.7 4819.8 4885.8 4829.3 4882.7 4819.8 4885.8 4829.3 4882.7 4819.8 4874.6 4813.9 4871.5 4823.4 4881.5 4823.4 4891.5 4823.4 4888.4 4832.9 4880.3 4838.8 4872.2 4832.9 4875.3 4842.5 4865.3 4842.5 4857.2 4836.6 4849.1 4830.7 4852.2 4821.2 4860.3 4827.1 4857.2 4817.6 4860.3 4827.1 4870.3 4827.1 4862.2 4821.2" clip-path="url(#a)" fill="none" stroke="#000" stroke-linecap="round"/>
<polyline points="4862.2 4821.2 4870.3 4815.3 4873.4 4805.8 4865.3 4811.7 4857.2 4805.8 4849.1 4811.7 4841.1 4805.8 4844.1 4796.3 4852.2 4790.4 4855.3 4799.9 4863.4 4794 4855.3 4788.2 4858.4 4778.7 4850.3 4784.5 4842.2 4790.4 4850.3 4796.3 4858.4 4802.2 4855.3 4792.7 4847.2 4786.8 4850.3 4777.3 4842.2 4771.4 4850.3 4777.3 4858.4 4783.1 4861.5 4792.7 4858.4 4783.1 4855.3 4773.6 4858.4 4783.1 4848.4 4783.1 4838.4 4783.1 4841.5 4792.7 4844.6 4783.1 4836.5 4777.3 4828.4 4783.1 4820.3 4789 4828.4 4783.1 4820.3 4777.3 4812.2 4783.1 4820.3 4789 4830.3 4789 4838.4 4794.9 4841.5 4785.4 4849.6 4779.5 4852.7 4770" clip-path="url(#a)" fill="none" stroke="#000" stroke-linecap="round"/>
<polyline points="4852.7 4770 4855.8 4779.5 4863.9 4773.6 4853.9 4773.6 4845.8 4767.8 4848.9 4758.2 4852 4748.7 4860 4742.9 4868.1 4748.7 4865 4758.2 4868.1 4748.7 4876.2 4742.9 4868.1 4737 4858.1 4737 4868.1 4737 4858.1 4737 4855 4727.5 4858.1 4718 4848.1 4718 4858.1 4718 4855 4708.4 4863.1 4714.3 4873.1 4714.3 4876.2 4704.8 4873.1 4695.3 4881.2 4701.2 4873.1 4707.1 4881.2 4712.9 4889.3 4718.8 4897.4 4724.7 4900.5 4715.2 4910.5 4715.2 4920.5 4715.2 4923.6 4705.7 4915.5 4699.8 4918.6 4690.3 4915.5 4680.8 4907.4 4686.7 4910.5 4677.1 4920.5 4677.1 4923.6 4686.7 4933.6 4686.7 4941.7 4680.8" clip-path="url(#a)" fill="none" stroke="#000" stroke-linecap="round"/>
<polyline points="4941.7 4680.8 4938.6 4671.3 4941.7 4661.8 4933.6 4655.9 4941.7 4650 4944.8 4659.5 4941.7 4650 4949.8 4655.9 4939.8 4655.9 4949.8 4655.9 4946.7 4646.4 4949.8 4636.9 4957.9 4631 4954.8 4621.5 4946.7 4627.3 4936.7 4627.3 4946.7 4627.3 4938.6 4621.5 4935.5 4631 4927.4 4625.1 4919.3 4631 4922.4 4621.5 4914.3 4615.6 4911.2 4625.1 4914.3 4615.6 4922.4 4621.5 4919.3 4612 4911.2 4606.1 4914.3 4615.6 4917.4 4606.1 4909.3 4612 4901.2 4606.1 4911.2 4606.1 4903.1 4612 4893.1 4612 4890 4621.5 4887 4631 4890 4640.5 4887 4631 4877 4631 4867 4631 4858.9 4625.1 4848.9 4625.1" clip-path="url(#a)" fill="none" stroke="#000" stroke-linecap="round"/>
<polyline points="4848.9 4625.1 4845.8 4634.6 4848.9 4625.1 4840.8 4631 4837.7 4621.5 4840.8 4631 4850.8 4631 4853.9 4640.5 4850.8 4631 4842.7 4625.1 4850.8 4619.2 4853.9 4609.7 4850.8 4600.2 4847.7 4590.7 4837.7 4590.7 4845.8 4584.8 4842.7 4594.3 4845.8 4603.8 4842.7 4594.3 4845.8 4584.8 4848.9 4594.3 4845.8 4603.8 4848.9 4594.3 4858.9 4594.3 4867 4588.4 4870 4598 4873.1 4588.4 4881.2 4582.6 4889.3 4576.7 4879.3 4576.7 4871.2 4570.8 4874.3 4580.3 4884.3 4580.3 4892.4 4586.2 4882.4 4586.2 4892.4 4586.2 4889.3 4595.7 4881.2 4589.8 4878.1 4580.3 4875 4589.8 4872 4580.3 4882 4580.3 4873.9 4586.2" clip-path="url(#a)" fill="none" stroke="#000" stroke-linecap="round"/>
<polyline points="4873.9 4586.2 4865.8 4580.3 4857.7 4574.4 4867.7 4574.4 4877.7 4574.4 4880.8 4584 4888.9 4578.1 4885.8 4587.6 4888.9 4578.1 4892 4568.6 4888.9 4559.1 4892 4549.5 4895 4540 4892 4530.5 4883.9 4524.6 4887 4534.2 4890 4543.7 4882 4537.8 4885 4528.3 4877 4534.2 4887 4534.2 4895 4528.3 4903.1 4522.4 4900 4531.9 4908.1 4526 4905 4535.5 4915 4535.5 4918.1 4545.1 4908.1 4545.1 4905 4535.5 4897 4541.4 4900 4550.9 4892 4545.1 4888.9 4535.5 4892 4526 4895 4535.5 4903.1 4541.4 4906.2 4550.9 4896.2 4550.9 4899.3 4541.4 4896.2 4531.9 4904.3 4526 4901.2 4535.5" clip-path="url(#a)" fill="none" stroke="#000" stroke-linecap="round"/>
<polyline points="4901.2 4535.5 4911.2 4535.5 4919.3 4529.7 4922.4 4520.2 4930.5 4526 4927.4 4535.5 4919.3 4529.7 4911.2 4523.8 4919.3 4517.9 4916.2 4508.4 4906.2 4508.4 4914.3 4514.3 4917.4 4504.8 4907.4 4504.8 4915.5 4510.6 4905.5 4510.6 4895.5 4510.6 4885.5 4510.6 4888.6 4501.1 4891.7 4510.6 4894.8 4520.2 4897.9 4510.6 4894.8 4520.2 4891.7 4510.6 4881.7 4510.6 4884.8 4501.1 4874.8 4501.1 4877.9 4491.6 4881 4501.1 4884 4491.6 4876 4485.7 4884 4491.6 4881 4501.1 4884 4491.6 4881 4501.1 4884 4491.6 4881 4482.1 4872.9 4488 4881 4493.9 4889 4499.7 4881 4505.6 4871 4505.6 4867.9 4496.1" clip-path="url(#a)" fill="none" stroke="#000" stroke-linecap="round"/>
<polyline points="4867.9 4496.1 4864.8 4505.6 4856.7 4499.7 4853.6 4490.2 4850.5 4480.7 4858.6 4474.8 4861.7 4484.4 4864.8 4474.8 4861.7 4484.4 4869.8 4490.2 4866.7 4480.7 4876.7 4480.7 4884.8 4474.8 4874.8 4474.8 4871.7 4465.3 4861.7 4465.3 4858.6 4455.8 4866.7 4449.9 4876.7 4449.9 4873.6 4459.5 4883.6 4459.5 4880.5 4449.9 4888.6 4444.1 4878.6 4444.1 4868.6 4444.1 4871.7 4453.6 4874.8 4463.1 4877.9 4453.6 4874.8 4444.1 4882.9 4438.2 4879.8 4428.7 4882.9 4438.2 4886 4447.7 4882.9 4457.2 4886 4447.7 4889 4438.2 4886 4447.7 4877.9 4441.8 4869.8 4435.9 4866.7 4445.5 4874.8 4439.6 4871.7 4430.1 4861.7 4430.1" clip-path="url(#a)" fill="none" stroke="#000" stroke-linecap="round"/>
<polyline points="4861.7 4430.1 4851.7 4430.1 4861.7 4430.1 4858.6 4420.6 4848.6 4420.6 4851.7 4430.1 4859.8 4435.9 4862.9 4445.5 4871 4439.6 4881 4439.6 4889 4433.7 4886 4443.2 4896 4443.2 4887.9 4437.3 4884.8 4427.8 4892.9 4421.9 4901 4416.1 4911 4416.1 4914 4425.6 4906 4431.5 4914 4425.6 4924 4425.6 4921 4416.1 4912.9 4410.2 4921 4416.1 4912.9 4410.2 4916 4400.7 4924 4394.8 4916 4388.9 4924 4394.8 4927.1 4385.3 4930.2 4394.8 4938.3 4400.7 4946.4 4394.8 4949.5 4385.3 4952.6 4394.8 4942.6 4394.8 4945.7 4404.3 4948.8 4413.8 4951.9 4423.3 4959.9 4417.5 4968 4423.3 4976.1 4429.2" clip-path="url(#a)" fill="none" stroke="#000" stroke-linecap="round"/>
<polyline points="4976.1 4429.2 4984.2 4423.3 4981.1 4413.8 4989.2 4407.9 4992.3 4398.4 4982.3 4398.4 4990.4 4392.6 4998.5 4398.4 4995.4 4407.9 5003.5 4413.8 5013.5 4413.8 5016.6 4404.3 5024.7 4398.4 5021.6 4388.9 5031.6 4388.9 5028.5 4398.4 5031.6 4388.9 5034.7 4398.4 5026.6 4392.6 5034.7 4398.4 5037.8 4388.9 5045.8 4383 5055.8 4383 5058.9 4373.5 5048.9 4373.5 5040.8 4367.7 5048.9 4373.5 5045.8 4364 5037.8 4369.9 5034.7 4360.4 5024.7 4360.4 5032.8 4354.5 5029.7 4345 5021.6 4350.9 5029.7 4345 5032.8 4354.5 5035.8 4345 5032.8 4335.5 5029.7 4345 5037.8 4339.1 5027.8 4339.1 5024.7 4329.6 5032.8 4335.5" clip-path="url(#a)" fill="none" stroke="#000" stroke-linecap="round"/>
<polyline points="5032.8 4335.5 5022.8 4335.5 5014.7 4329.6 5006.6 4335.5 4998.5 4341.4 4995.4 4350.9 4998.5 4341.4 4990.4 4335.5 4982.3 4329.6 4979.2 4320.1 4971.1 4314.2 4963 4320.1 4971.1 4314.2 4961.1 4314.2 4964.2 4304.7 4961.1 4314.2 4969.2 4320.1 4966.1 4329.6 4969.2 4320.1 4966.1 4310.6 4976.1 4310.6 4984.2 4304.7 4987.3 4295.2 4990.4 4285.7 4982.3 4279.8 4992.3 4279.8 4984.2 4285.7 4981.1 4295.2 4984.2 4285.7 4992.3 4279.8 4989.2 4289.3 4981.1 4295.2 4989.2 4289.3 4997.3 4295.2 5007.3 4295.2 5004.2 4304.7 5012.3 4298.8 5022.3 4298.8 5032.3 4298.8 5024.2 4293 5021.1 4283.4 5018 4293 5026.1 4298.8" clip-path="url(#a)" fill="none" stroke="#000" stroke-linecap="round"/>
<polyline points="5026.1 4298.8 5029.2 4308.3 5021.1 4302.5 5029.2 4308.3 5021.1 4314.2 5018 4304.7 5021.1 4295.2 5013 4301.1 5016.1 4291.6 5024.2 4297.5 5014.2 4297.5 5011.1 4287.9 5008 4278.4 5016.1 4284.3 5024.2 4290.2 5021.1 4299.7 5031.1 4299.7 5023 4305.6 5031.1 4299.7 5039.2 4293.8 5042.3 4284.3 5050.4 4278.4 5058.5 4272.6 5061.6 4263 5058.5 4253.5 5055.4 4263 5052.3 4272.6 5049.2 4263 5057.3 4257.2 5047.3 4257.2 5055.4 4263 5065.4 4263 5075.4 4263 5067.3 4268.9 5077.3 4268.9 5069.2 4274.8 5077.3 4280.7 5074.2 4290.2 5066.1 4284.3 5069.2 4274.8 5059.2 4274.8 5056.1 4284.3 5053 4274.8" clip-path="url(#a)" fill="none" stroke="#000" stroke-linecap="round"/>
<polyline points="5053 4274.8 5056.1 4265.3 5064.2 4259.4 5061.1 4268.9 5064.2 4278.4 5061.1 4287.9 5053 4282.1 5061.1 4276.2 5064.2 4266.7 5074.2 4266.7 5066.1 4272.6 5074.2 4278.4 5084.2 4278.4 5092.3 4272.6 5095.4 4282.1 5087.3 4287.9 5084.2 4278.4 5081.1 4268.9 5091.1 4268.9 5094.2 4259.4 5086.1 4253.5 5089.2 4263 5097.3 4257.2 5089.2 4251.3 5092.3 4260.8 5084.2 4254.9 5076.1 4249 5068 4243.2 5076.1 4237.3 5073 4246.8 5069.9 4256.3 5078 4250.4 5069.9 4256.3 5073 4246.8 5064.9 4240.9 5073 4235 5064.9 4229.2 5073 4223.3 5069.9 4232.8 5078 4226.9 5074.9 4217.4 5078 4226.9 5069.9 4232.8" clip-path="url(#a)" fill="none" stroke="#000" stroke-linecap="round"/>
<polyline points="5069.9 4232.8 5078 4226.9 5069.9 4232.8 5078 4226.9 5081.1 4217.4 5071.1 4217.4 5074.2 4226.9 5077.3 4236.4 5067.3 4236.4 5059.2 4230.5 5062.3 4221 5054.2 4226.9 5051.1 4217.4 5054.2 4207.9 5057.3 4198.4 5067.3 4198.4 5064.2 4207.9 5072.3 4202 5064.2 4207.9 5067.3 4217.4 5070.4 4207.9 5078.5 4213.8 5088.5 4213.8 5080.4 4207.9 5083.5 4198.4 5075.4 4192.5 5078.5 4183 5088.5 4183 5096.6 4188.9 5088.5 4194.8 5096.6 4200.6 5099.7 4191.1 5109.7 4191.1 5101.6 4185.2 5093.5 4179.4 5090.4 4188.9 5087.3 4198.4 5095.4 4192.5 5098.5 4183 5108.5 4183 5111.6 4173.5 5108.5 4183 5105.4 4192.5" clip-path="url(#a)" fill="none" stroke="#000" stroke-linecap="round"/>
<polyline points="5105.4 4192.5 5097.3 4198.4 5105.4 4192.5 5113.5 4186.6 5105.4 4192.5 5102.3 4183 5099.2 4173.5 5091.1 4179.4 5101.1 4179.4 5104.2 4169.9 5096.1 4164 5088 4158.1 5096.1 4164 5099.2 4154.5 5091.1 4148.6 5088 4158.1 5091.1 4167.6 5088 4177.1 5098 4177.1 5106.1 4183 5116.1 4183 5108 4188.9 5116.1 4194.8 5113 4185.2 5116.1 4175.7 5126.1 4175.7 5136.1 4175.7 5144.2 4181.6 5141.1 4191.1 5131.1 4191.1 5141.1 4191.1 5149.2 4197 5152.3 4187.5 5149.2 4178 5152.3 4187.5 5149.2 4178 5157.3 4172.1 5167.3 4172.1 5164.2 4162.6 5167.3 4172.1 5175.4 4166.2 5172.3 4175.7 5175.4 4185.2" clip-path="url(#a)" fill="none" stroke="#000" stroke-linecap="round"/>
<polyline points="5175.4 4185.2 5185.4 4185.2 5193.5 4179.4 5190.4 4188.9 5182.3 4183 5179.2 4192.5 5176.1 4202 5173 4211.5 5183 4211.5 5186.1 4221 5189.2 4230.5 5199.2 4230.5 5202.3 4221 5212.3 4221 5220.4 4215.2 5212.3 4209.3 5222.3 4209.3 5225.4 4218.8 5217.3 4224.7 5220.4 4234.2 5228.5 4240.1 5236.6 4234.2 5246.6 4234.2 5249.7 4224.7 5257.8 4230.5 5249.7 4236.4 5257.8 4230.5 5254.7 4240.1 5251.6 4230.5 5254.7 4240.1 5262.8 4234.2 5272.8 4234.2 5280.8 4240.1 5288.9 4234.2 5280.8 4228.3 5277.8 4218.8 5280.8 4228.3 5283.9 4218.8 5273.9 4218.8 5277 4209.3 5268.9 4203.4 5278.9 4203.4 5282 4193.9" clip-path="url(#a)" fill="none" stroke="#000" stroke-linecap="round"/>
<polyline points="5282 4193.9 5272 4193.9 5282 4193.9 5278.9 4203.4 5287 4197.5 5290.1 4188 5282 4193.9 5292 4193.9 5283.9 4188 5287 4178.5 5290.1 4188 5282 4182.1 5278.9 4172.6 5268.9 4172.6 5258.9 4172.6 5250.8 4178.5 5258.9 4172.6 5255.8 4163.1 5252.8 4153.6 5255.8 4144.1 5252.8 4134.6 5242.8 4134.6 5252.8 4134.6 5244.7 4128.7 5252.8 4122.8 5244.7 4128.7 5247.8 4138.2 5239.7 4144.1 5247.8 4138.2 5250.8 4128.7 5258.9 4134.6 5268.9 4134.6 5277 4128.7 5285.1 4122.8 5282 4113.3 5290.1 4119.2 5280.1 4119.2 5272 4125.1 5280.1 4119.2 5290.1 4119.2 5282 4125.1 5272 4125.1 5282 4125.1" clip-path="url(#a)" fill="none" stroke="#000" stroke-linecap="round"/>
<polyline points="5282 4125.1 5285.1 4134.6 5293.2 4140.5 5285.1 4146.3 5295.1 4146.3 5303.2 4152.2 5311.3 4158.1 5308.2 4148.6 5311.3 4139.1 5303.2 4145 5306.3 4154.5 5303.2 4164 5300.1 4154.5 5303.2 4164 5293.2 4164 5296.3 4154.5 5304.4 4148.6 5294.4 4148.6 5302.5 4142.7 5305.6 4152.2 5297.5 4146.3 5300.6 4136.8 5303.7 4127.3 5306.7 4136.8 5309.8 4146.3 5301.7 4152.2 5309.8 4158.1 5299.8 4158.1 5309.8 4158.1 5319.8 4158.1 5327.9 4152.2 5337.9 4152.2 5347.9 4152.2 5356 4146.3 5359.1 4136.8 5351 4142.7 5342.9 4148.6 5346 4139.1 5356 4139.1 5347.9 4133.2 5351 4142.7 5359.1 4148.6 5367.2 4154.5" clip-path="url(#a)" fill="none" stroke="#000" stroke-linecap="round"/>
<polyline points="5367.2 4154.5 5357.2 4154.5 5365.3 4160.3 5355.3 4160.3 5358.4 4169.9 5350.3 4175.7 5347.2 4166.2 5355.3 4160.3 5347.2 4154.5 5339.1 4160.3 5342.2 4150.8 5350.3 4145 5360.3 4145 5352.2 4150.8 5349.1 4160.3 5341 4166.2 5337.9 4156.7 5347.9 4156.7 5356 4150.8 5364.1 4156.7 5354.1 4156.7 5357.2 4166.2 5365.3 4172.1 5375.3 4172.1 5372.2 4181.6 5362.2 4181.6 5365.3 4172.1 5368.4 4162.6 5376.5 4168.5 5384.6 4162.6 5381.5 4153.1 5378.4 4162.6 5388.4 4162.6 5385.3 4153.1 5382.2 4162.6 5379.1 4153.1 5376 4143.6 5372.9 4134.1 5382.9 4134.1 5374.8 4139.9 5366.7 4145.8 5376.7 4145.8 5366.7 4145.8" clip-path="url(#a)" fill="none" stroke="#000" stroke-linecap="round"/>
<polyline points="5366.7 4145.8 5374.8 4139.9 5371.7 4130.4 5381.7 4130.4 5378.7 4120.9 5388.7 4120.9 5380.6 4126.8 5390.6 4126.8 5393.7 4117.3 5390.6 4126.8 5380.6 4126.8 5390.6 4126.8 5380.6 4126.8 5390.6 4126.8 5398.7 4120.9 5390.6 4115 5387.5 4124.5 5384.4 4134.1 5376.3 4128.2 5373.2 4118.7 5381.3 4112.8 5371.3 4112.8 5374.4 4103.3 5382.5 4097.4 5390.6 4091.5 5398.7 4097.4 5390.6 4103.3 5400.6 4103.3 5390.6 4103.3 5387.5 4112.8 5395.6 4106.9 5398.7 4116.4 5406.7 4122.3 5403.7 4112.8 5411.7 4106.9 5408.7 4097.4 5416.7 4091.5 5424.8 4097.4 5427.9 4106.9 5417.9 4106.9 5421 4116.4 5429.1 4110.5 5437.2 4116.4" clip-path="url(#a)" fill="none" stroke="#000" stroke-linecap="round"/>
<polyline points="5437.2 4116.4 5434.1 4106.9 5431 4097.4 5422.9 4103.3 5414.8 4109.2 5424.8 4109.2 5432.9 4103.3 5441 4109.2 5449.1 4103.3 5441 4109.2 5432.9 4115 5422.9 4115 5432.9 4115 5442.9 4115 5432.9 4115 5436 4105.5 5439.1 4096 5429.1 4096 5437.2 4101.9 5445.3 4096 5442.2 4086.5 5439.1 4077 5442.2 4086.5 5450.3 4080.6 5447.2 4071.1 5439.1 4077 5436 4086.5 5427.9 4092.4 5436 4098.3 5439.1 4107.8 5447.2 4113.6 5437.2 4113.6 5440.3 4123.2 5443.4 4113.6 5451.5 4107.8 5459.6 4113.6 5467.6 4119.5 5470.7 4129 5462.6 4134.9 5454.6 4129 5462.6 4134.9 5465.7 4144.4 5473.8 4138.5" clip-path="url(#a)" fill="none" stroke="#000" stroke-linecap="round"/>
<polyline points="5473.8 4138.5 5476.9 4129 5473.8 4138.5 5476.9 4129 5486.9 4129 5495 4134.9 5498.1 4125.4 5495 4134.9 5505 4134.9 5496.9 4140.8 5493.8 4150.3 5501.9 4156.2 5511.9 4156.2 5503.8 4162.1 5500.7 4152.5 5492.6 4158.4 5484.6 4164.3 5476.5 4170.2 5484.6 4176.1 5481.5 4185.6 5478.4 4195.1 5486.5 4201 5494.6 4195.1 5502.6 4201 5512.6 4201 5509.6 4191.4 5517.6 4197.3 5514.6 4206.8 5504.6 4206.8 5501.5 4216.3 5504.6 4225.9 5514.6 4225.9 5522.6 4231.7 5530.7 4225.9 5533.8 4235.4 5523.8 4235.4 5533.8 4235.4 5525.7 4241.2 5528.8 4231.7 5525.7 4241.2 5535.7 4241.2 5543.8 4247.1 5546.9 4256.6" clip-path="url(#a)" fill="none" stroke="#000" stroke-linecap="round"/>
<polyline points="5546.9 4256.6 5556.9 4256.6 5553.8 4247.1 5556.9 4237.6 5553.8 4247.1 5561.9 4241.2 5553.8 4235.4 5561.9 4229.5 5558.8 4220 5566.9 4225.9 5575 4220 5566.9 4214.1 5575 4220 5566.9 4225.9 5576.9 4225.9 5585 4220 5575 4220 5583.1 4225.9 5580 4216.3 5588.1 4210.5 5585 4220 5581.9 4210.5 5585 4201 5576.9 4195.1 5568.8 4189.2 5558.8 4189.2 5568.8 4189.2 5571.9 4179.7 5575 4170.2 5583.1 4164.3 5586.2 4154.8 5578.1 4148.9 5586.2 4154.8 5583.1 4145.3 5593.1 4145.3 5583.1 4145.3 5580 4154.8 5570 4154.8 5580 4154.8 5588.1 4148.9 5591.2 4158.4 5599.3 4164.3 5609.3 4164.3" clip-path="url(#a)" fill="none" stroke="#000" stroke-linecap="round"/>
<polyline points="5609.3 4164.3 5619.3 4164.3 5622.4 4154.8 5625.5 4164.3 5617.4 4158.4 5607.4 4158.4 5617.4 4158.4 5625.5 4164.3 5615.5 4164.3 5607.4 4158.4 5615.5 4164.3 5612.4 4173.8 5615.5 4183.3 5605.5 4183.3 5613.5 4189.2 5616.6 4198.7 5619.7 4208.2 5622.8 4198.7 5630.9 4192.8 5620.9 4192.8 5617.8 4202.3 5609.7 4208.2 5612.8 4198.7 5609.7 4208.2 5601.6 4202.3 5609.7 4196.5 5619.7 4196.5 5611.6 4190.6 5621.6 4190.6 5618.5 4200.1 5615.5 4190.6 5623.5 4184.7 5631.6 4178.8 5628.5 4188.3 5625.5 4197.9 5615.5 4197.9 5618.5 4207.4 5610.5 4201.5 5618.5 4207.4 5626.6 4213.2 5636.6 4213.2 5644.7 4219.1 5652.8 4225" clip-path="url(#a)" fill="none" stroke="#000" stroke-linecap="round"/>
<polyline points="5652.8 4225 5662.8 4225 5670.9 4219.1 5660.9 4219.1 5650.9 4219.1 5659 4213.2 5667.1 4219.1 5664 4209.6 5660.9 4219.1 5664 4228.6 5667.1 4238.1 5659 4232.3 5662.1 4241.8 5654 4235.9 5650.9 4245.4 5640.9 4245.4 5644 4235.9 5654 4235.9 5650.9 4226.4 5640.9 4226.4 5649 4220.5 5659 4220.5 5667.1 4226.4 5657.1 4226.4 5649 4232.3 5639 4232.3 5642.1 4222.8 5650.2 4228.6 5660.2 4228.6 5663.3 4238.1 5655.2 4232.3 5652.1 4241.8 5655.2 4251.3 5663.3 4257.2 5655.2 4263 5647.1 4257.2 5655.2 4251.3 5663.3 4245.4 5666.4 4254.9 5676.4 4254.9 5679.5 4245.4 5671.4 4251.3 5679.5 4257.2" clip-path="url(#a)" fill="none" stroke="#000" stroke-linecap="round"/>
<polyline points="5679.5 4257.2 5682.5 4247.7 5674.5 4253.5 5677.5 4244 5680.6 4234.5 5683.7 4225 5691.8 4230.9 5681.8 4230.9 5671.8 4230.9 5679.9 4236.8 5671.8 4230.9 5681.8 4230.9 5684.9 4221.4 5693 4227.2 5696.1 4217.7 5704.2 4223.6 5694.2 4223.6 5702.3 4229.5 5710.4 4223.6 5702.3 4229.5 5694.2 4223.6 5702.3 4229.5 5694.2 4223.6 5702.3 4229.5 5712.3 4229.5 5709.2 4220 5701.1 4225.9 5693 4231.7 5689.9 4222.2 5693 4212.7 5703 4212.7 5694.9 4206.8 5703 4201 5713 4201 5723 4201 5726.1 4210.5 5716.1 4210.5 5724.2 4216.3 5716.1 4210.5 5708 4216.3 5718 4216.3 5714.9 4225.9 5718 4235.4" clip-path="url(#a)" fill="none" stroke="#000" stroke-linecap="round"/>
<polyline points="5718 4235.4 5721.1 4225.9 5731.1 4225.9 5734.2 4216.3 5744.2 4216.3 5747.3 4225.9 5744.2 4235.4 5736.1 4229.5 5733 4239 5743 4239 5746.1 4248.5 5749.2 4239 5752.3 4229.5 5742.3 4229.5 5732.3 4229.5 5740.4 4235.4 5750.4 4235.4 5753.4 4244.9 5763.4 4244.9 5753.4 4244.9 5743.4 4244.9 5735.4 4239 5743.4 4244.9 5751.5 4250.8 5743.4 4244.9 5751.5 4239 5759.6 4233.1 5751.5 4227.2 5754.6 4236.8 5764.6 4236.8 5767.7 4227.2 5770.8 4217.7 5767.7 4227.2 5777.7 4227.2 5780.8 4217.7 5770.8 4217.7 5762.7 4223.6 5752.7 4223.6 5755.8 4233.1 5752.7 4242.6 5755.8 4252.1 5747.7 4246.3 5744.6 4255.8" clip-path="url(#a)" fill="none" stroke="#000" stroke-linecap="round"/>
<polyline points="5744.6 4255.8 5752.7 4249.9 5762.7 4249.9 5765.8 4259.4 5768.9 4268.9 5765.8 4278.4 5755.8 4278.4 5752.7 4268.9 5755.8 4278.4 5752.7 4287.9 5762.7 4287.9 5770.8 4282.1 5762.7 4287.9 5770.8 4282.1 5778.9 4287.9 5782 4297.5 5790.1 4291.6 5782 4297.5 5790.1 4303.3 5780.1 4303.3 5772 4309.2 5775.1 4318.7 5783.2 4324.6 5773.2 4324.6 5776.3 4315.1 5766.3 4315.1 5756.3 4315.1 5746.3 4315.1 5749.3 4324.6 5741.3 4330.5 5733.2 4336.4 5736.3 4345.9 5746.3 4345.9 5749.3 4355.4 5757.4 4361.2 5760.5 4351.7 5763.6 4361.2 5755.5 4367.1 5747.4 4361.2 5739.3 4367.1 5736.3 4376.6 5744.3 4382.5 5747.4 4392" clip-path="url(#a)" fill="none" stroke="#000" stroke-linecap="round"/>
<polyline points="5747.4 4392 5757.4 4392 5754.3 4401.5 5746.3 4395.7 5754.3 4401.5 5744.3 4401.5 5752.4 4395.7 5744.3 4401.5 5752.4 4407.4 5755.5 4416.9 5752.4 4426.4 5760.5 4432.3 5763.6 4422.8 5771.7 4416.9 5763.6 4422.8 5773.6 4422.8 5770.5 4413.3 5780.5 4413.3 5783.6 4403.8 5786.7 4413.3 5796.7 4413.3 5793.6 4403.8 5796.7 4413.3 5786.7 4413.3 5794.8 4419.2 5804.8 4419.2 5796.7 4413.3 5799.8 4422.8 5802.9 4413.3 5812.9 4413.3 5804.8 4419.2 5807.9 4409.7 5816 4403.8 5812.9 4394.3 5809.8 4384.8 5801.7 4378.9 5809.8 4384.8 5817.9 4378.9 5826 4373 5836 4373 5844.1 4367.1 5841 4357.6 5844.1 4367.1" clip-path="url(#a)" fill="none" stroke="#000" stroke-linecap="round"/>
<polyline points="5844.1 4367.1 5847.2 4357.6 5855.2 4363.5 5847.2 4357.6 5839.1 4363.5 5831 4357.6 5839.1 4363.5 5849.1 4363.5 5846 4373 5849.1 4382.5 5857.2 4388.4 5865.2 4394.3 5873.3 4388.4 5870.2 4397.9 5867.2 4388.4 5859.1 4382.5 5867.2 4388.4 5870.2 4397.9 5862.2 4392 5859.1 4382.5 5862.2 4392 5854.1 4397.9 5851 4407.4 5842.9 4401.5 5846 4411 5842.9 4420.6 5839.8 4430.1 5847.9 4424.2 5857.9 4424.2 5849.8 4418.3 5841.7 4424.2 5831.7 4424.2 5839.8 4418.3 5831.7 4424.2 5828.6 4414.7 5838.6 4414.7 5846.7 4420.6 5843.6 4411 5851.7 4416.9 5843.6 4422.8 5846.7 4413.3 5856.7 4413.3 5866.7 4413.3" clip-path="url(#a)" fill="none" stroke="#000" stroke-linecap="round"/>
<polyline points="5866.7 4413.3 5858.6 4419.2 5850.5 4425 5842.4 4419.2 5839.3 4428.7 5836.3 4419.2 5839.3 4428.7 5842.4 4438.2 5850.5 4444.1 5853.6 4453.6 5856.7 4463.1 5864.8 4469 5874.8 4469 5866.7 4463.1 5858.6 4457.2 5868.6 4457.2 5871.7 4466.7 5874.8 4457.2 5866.7 4463.1 5863.6 4472.6 5860.5 4482.1 5857.4 4472.6 5854.3 4482.1 5851.3 4472.6 5843.2 4478.5 5835.1 4472.6 5843.2 4466.7 5851.3 4472.6 5854.3 4463.1 5846.3 4457.2 5856.3 4457.2 5864.3 4463.1 5867.4 4472.6 5859.3 4466.7 5849.3 4466.7 5841.3 4460.8 5849.3 4455 5852.4 4464.5 5860.5 4470.4 5857.4 4479.9 5854.3 4470.4 5846.3 4476.2 5843.2 4485.7" clip-path="url(#a)" fill="none" stroke="#000" stroke-linecap="round"/>
<polyline points="5843.2 4485.7 5846.3 4495.3 5836.3 4495.3 5833.2 4485.7 5843.2 4485.7 5853.2 4485.7 5850.1 4495.3 5858.2 4501.1 5866.3 4495.3 5856.3 4495.3 5859.3 4504.8 5867.4 4498.9 5857.4 4498.9 5865.5 4493 5873.6 4487.1 5881.7 4481.3 5884.8 4490.8 5876.7 4484.9 5868.6 4479 5871.7 4488.5 5868.6 4479 5876.7 4484.9 5884.8 4479 5887.9 4488.5 5896 4482.6 5899.1 4492.2 5891 4486.3 5894.1 4495.8 5904.1 4495.8 5894.1 4495.8 5891 4486.3 5894.1 4495.8 5891 4486.3 5894.1 4495.8 5902.2 4501.7 5905.2 4492.2 5895.2 4492.2 5885.2 4492.2 5888.3 4482.6 5896.4 4476.8 5904.5 4482.6 5901.4 4473.1 5911.4 4473.1" clip-path="url(#a)" fill="none" stroke="#000" stroke-linecap="round"/>
<polyline points="5911.4 4473.1 5919.5 4479 5927.6 4484.9 5924.5 4494.4 5916.4 4488.5 5919.5 4498 5916.4 4488.5 5906.4 4488.5 5914.5 4494.4 5906.4 4500.3 5903.3 4509.8 5911.4 4503.9 5919.5 4509.8 5927.6 4503.9 5935.7 4509.8 5932.6 4519.3 5924.5 4525.2 5921.4 4515.7 5913.3 4521.5 5921.4 4527.4 5918.3 4536.9 5926.4 4531.1 5934.5 4525.2 5926.4 4519.3 5918.3 4513.4 5921.4 4522.9 5929.5 4528.8 5926.4 4538.3 5934.5 4544.2 5926.4 4538.3 5918.3 4532.4 5915.2 4522.9 5918.3 4532.4 5921.4 4542 5918.3 4532.4 5928.3 4532.4 5938.3 4532.4 5935.2 4522.9 5932.2 4532.4 5940.2 4538.3 5948.3 4532.4 5956.4 4526.6 5948.3 4532.4" clip-path="url(#a)" fill="none" stroke="#000" stroke-linecap="round"/>
<polyline points="5948.3 4532.4 5956.4 4538.3 5964.5 4532.4 5956.4 4526.6 5946.4 4526.6 5938.3 4520.7 5935.2 4530.2 5927.2 4536.1 5924.1 4545.6 5921 4536.1 5912.9 4542 5922.9 4542 5931 4547.8 5927.9 4557.3 5924.8 4566.8 5916.7 4572.7 5908.6 4566.8 5911.7 4557.3 5908.6 4566.8 5900.5 4572.7 5908.6 4578.6 5918.6 4578.6 5908.6 4578.6 5918.6 4578.6 5921.7 4588.1 5918.6 4597.6 5928.6 4597.6 5918.6 4597.6 5921.7 4607.1 5913.6 4601.3 5903.6 4601.3 5900.5 4610.8 5903.6 4620.3 5895.5 4614.4 5903.6 4608.5 5895.5 4602.6 5887.4 4596.8 5879.3 4590.9 5876.3 4600.4 5866.3 4600.4 5856.3 4600.4 5853.2 4609.9 5861.3 4615.8" clip-path="url(#a)" fill="none" stroke="#000" stroke-linecap="round"/>
<polyline points="5861.3 4615.8 5858.2 4625.3 5861.3 4634.8 5869.3 4628.9 5866.3 4638.4 5856.3 4638.4 5853.2 4628.9 5843.2 4628.9 5835.1 4634.8 5838.2 4644.3 5835.1 4653.8 5843.2 4659.7 5835.1 4665.6 5832 4656.1 5835.1 4665.6 5827 4659.7 5837 4659.7 5827 4659.7 5830.1 4669.2 5827 4678.7 5818.9 4684.6 5822 4694.1 5830.1 4688.2 5840.1 4688.2 5830.1 4688.2 5838.2 4694.1 5841.3 4684.6 5849.3 4690.5 5857.4 4684.6 5854.3 4694.1 5862.4 4700 5865.5 4690.5 5862.4 4700 5854.3 4694.1 5857.4 4703.6 5865.5 4709.5 5862.4 4700 5859.3 4709.5 5867.4 4703.6 5875.5 4709.5 5865.5 4709.5 5873.6 4703.6 5883.6 4703.6" clip-path="url(#a)" fill="none" stroke="#000" stroke-linecap="round"/>
<polyline points="5883.6 4703.6 5886.7 4694.1 5889.8 4684.6 5886.7 4675.1 5889.8 4684.6 5899.8 4684.6 5909.8 4684.6 5917.9 4690.5 5927.9 4690.5 5931 4681 5927.9 4690.5 5936 4684.6 5939.1 4694.1 5936 4684.6 5926 4684.6 5922.9 4675.1 5926 4684.6 5934.1 4690.5 5926 4696.4 5922.9 4705.9 5926 4715.4 5929.1 4724.9 5939.1 4724.9 5931 4730.8 5934.1 4721.3 5931 4711.8 5934.1 4721.3 5931 4730.8 5927.9 4721.3 5931 4711.8 5927.9 4721.3 5917.9 4721.3 5909.8 4727.1 5906.7 4717.6 5903.6 4727.1 5895.5 4733 5887.4 4738.9 5897.4 4738.9 5905.5 4744.8 5902.4 4735.3 5892.4 4735.3 5884.3 4729.4 5894.3 4729.4" clip-path="url(#a)" fill="none" stroke="#000" stroke-linecap="round"/>
<polyline points="5894.3 4729.4 5884.3 4729.4 5887.4 4719.9 5895.5 4725.8 5898.6 4735.3 5901.7 4725.8 5904.8 4735.3 5894.8 4735.3 5902.9 4729.4 5911 4735.3 5919.1 4741.1 5909.1 4741.1 5899.1 4741.1 5896 4731.6 5887.9 4737.5 5891 4728 5887.9 4737.5 5884.8 4747 5887.9 4756.5 5884.8 4766 5881.7 4775.6 5884.8 4785.1 5892.9 4790.9 5889.8 4781.4 5886.7 4771.9 5894.8 4777.8 5891.7 4787.3 5899.8 4781.4 5889.8 4781.4 5881.7 4787.3 5873.6 4793.2 5876.7 4783.7 5868.6 4789.6 5871.7 4780 5861.7 4780 5858.6 4770.5 5868.6 4770.5 5871.7 4780 5879.8 4774.2 5876.7 4764.7 5884.8 4770.5 5887.9 4780 5884.8 4789.6" clip-path="url(#a)" fill="none" stroke="#000" stroke-linecap="round"/>
<polyline points="5884.8 4789.6 5881.7 4780 5873.6 4774.2 5870.5 4764.7 5880.5 4764.7 5877.4 4774.2 5880.5 4783.7 5872.4 4789.6 5875.5 4780 5865.5 4780 5857.4 4785.9 5854.3 4795.4 5846.3 4789.6 5849.3 4780 5857.4 4785.9 5865.5 4791.8 5857.4 4797.7 5860.5 4807.2 5870.5 4807.2 5862.4 4801.3 5859.3 4810.8 5869.3 4810.8 5861.3 4804.9 5871.3 4804.9 5881.3 4804.9 5891.3 4804.9 5888.2 4814.5 5885.1 4804.9 5882 4795.4 5878.9 4804.9 5882 4795.4 5885.1 4804.9 5895.1 4804.9 5892 4814.5 5902 4814.5 5898.9 4824 5895.8 4814.5 5892.7 4824 5900.8 4829.8 5892.7 4824 5895.8 4814.5 5892.7 4824 5895.8 4814.5" clip-path="url(#a)" fill="none" stroke="#000" stroke-linecap="round"/>
<polyline points="5895.8 4814.5 5892.7 4824 5895.8 4833.5 5903.9 4827.6 5895.8 4821.7 5887.7 4815.8 5895.8 4810 5905.8 4810 5908.9 4819.5 5912 4810 5920.1 4815.8 5923.2 4825.3 5926.3 4834.9 5918.2 4840.7 5915.1 4831.2 5912 4840.7 5915.1 4831.2 5907 4825.3 5910.1 4834.9 5900.1 4834.9 5892 4840.7 5902 4840.7 5905.1 4850.2 5915.1 4850.2 5918.2 4859.8 5910.1 4865.6 5900.1 4865.6 5903.2 4856.1 5893.2 4856.1 5896.3 4865.6 5888.2 4871.5 5898.2 4871.5 5908.2 4871.5 5905.1 4862 5902 4852.5 5898.9 4862 5902 4871.5 5893.9 4877.4 5897 4886.9 5893.9 4877.4 5890.8 4867.9 5893.9 4858.4 5890.8 4867.9" clip-path="url(#a)" fill="none" stroke="#000" stroke-linecap="round"/>
<polyline points="5890.8 4867.9 5887.7 4877.4 5890.8 4867.9 5898.9 4873.8 5907 4879.6 5910.1 4870.1 5902 4876 5905.1 4885.5 5915.1 4885.5 5925.1 4885.5 5915.1 4885.5 5918.2 4895 5928.2 4895 5925.1 4885.5 5917 4879.6 5913.9 4870.1 5905.8 4876 5895.8 4876 5887.7 4881.9 5890.8 4872.4 5880.8 4872.4 5888.9 4878.3 5892 4887.8 5883.9 4893.6 5875.8 4899.5 5865.8 4899.5 5862.7 4890 5870.8 4884.1 5862.7 4890 5852.7 4890 5855.8 4899.5 5863.9 4905.4 5855.8 4899.5 5863.9 4905.4 5860.8 4914.9 5852.7 4920.8 5860.8 4926.7 5852.7 4920.8 5849.6 4930.3 5846.5 4920.8 5838.4 4914.9 5830.4 4920.8 5827.3 4930.3" clip-path="url(#a)" fill="none" stroke="#000" stroke-linecap="round"/>
<polyline points="5827.3 4930.3 5824.2 4920.8 5834.2 4920.8 5831.1 4911.3 5828 4901.8 5824.9 4892.3 5816.8 4898.1 5808.7 4892.3 5800.6 4886.4 5792.5 4892.3 5795.6 4901.8 5787.5 4907.6 5784.5 4917.2 5794.5 4917.2 5786.4 4923 5778.3 4917.2 5781.4 4907.6 5773.3 4901.8 5763.3 4901.8 5760.2 4911.3 5752.1 4917.2 5755.2 4926.7 5745.2 4926.7 5748.3 4917.2 5745.2 4926.7 5742.1 4917.2 5750.2 4923 5742.1 4917.2 5739 4926.7 5730.9 4932.5 5720.9 4932.5 5717.8 4942 5727.8 4942 5735.9 4947.9 5727.8 4942 5730.9 4951.6 5739 4945.7 5742.1 4955.2 5752.1 4955.2 5744 4961.1 5747.1 4970.6 5755.2 4964.7 5747.1 4970.6" clip-path="url(#a)" fill="none" stroke="#000" stroke-linecap="round"/>
<polyline points="5747.1 4970.6 5744 4961.1 5740.9 4970.6 5744 4980.1 5747.1 4970.6 5739 4976.5 5749 4976.5 5752.1 4986 5744 4980.1 5754 4980.1 5762.1 4986 5770.2 4980.1 5778.3 4974.2 5781.4 4964.7 5778.3 4974.2 5786.4 4980.1 5794.5 4986 5797.5 4995.5 5805.6 5001.4 5813.7 4995.5 5805.6 5001.4 5815.6 5001.4 5812.5 5010.9 5815.6 5001.4 5807.5 4995.5 5810.6 4986 5807.5 4995.5 5810.6 5005 5800.6 5005 5792.5 5010.9 5789.5 5020.4 5786.4 5029.9 5794.5 5035.8 5784.5 5035.8 5792.5 5029.9 5795.6 5020.4 5792.5 5029.9 5784.5 5035.8 5787.5 5026.3 5795.6 5020.4 5787.5 5026.3 5779.5 5020.4 5769.5 5020.4" clip-path="url(#a)" fill="none" stroke="#000" stroke-linecap="round"/>
<polyline points="5769.5 5020.4 5772.5 5010.9 5764.5 5016.7 5754.5 5016.7 5744.5 5016.7 5752.5 5022.6 5755.6 5032.1 5758.7 5022.6 5750.6 5016.7 5747.5 5007.2 5755.6 5013.1 5747.5 5007.2 5755.6 5001.4 5758.7 5010.9 5755.6 5020.4 5763.7 5014.5 5760.6 5024 5752.5 5018.1 5762.5 5018.1 5765.6 5027.6 5768.7 5037.2 5760.6 5031.3 5752.5 5025.4 5755.6 5015.9 5745.6 5015.9 5753.7 5010 5745.6 5015.9 5737.5 5021.8 5734.5 5031.3 5726.4 5037.2 5718.3 5043 5715.2 5052.5 5718.3 5062.1 5721.4 5052.5 5724.5 5043 5727.5 5052.5 5719.5 5058.4 5729.5 5058.4 5721.4 5052.5 5711.4 5052.5 5701.4 5052.5 5709.5 5046.7 5699.5 5046.7" clip-path="url(#a)" fill="none" stroke="#000" stroke-linecap="round"/>
<polyline points="5699.5 5046.7 5707.5 5040.8 5699.5 5034.9 5702.5 5025.4 5710.6 5031.3 5707.5 5040.8 5717.5 5040.8 5720.6 5031.3 5723.7 5040.8 5720.6 5050.3 5712.5 5056.2 5715.6 5046.7 5712.5 5037.2 5715.6 5027.6 5723.7 5033.5 5715.6 5039.4 5712.5 5048.9 5702.5 5048.9 5710.6 5043 5702.5 5037.2 5692.5 5037.2 5684.5 5043 5681.4 5033.5 5689.5 5027.6 5692.5 5037.2 5695.6 5046.7 5685.6 5046.7 5682.5 5056.2 5690.6 5062.1 5687.5 5052.5 5679.5 5058.4 5687.5 5064.3 5684.5 5054.8 5692.5 5060.7 5700.6 5066.5 5708.7 5072.4 5700.6 5078.3 5703.7 5068.8 5706.8 5059.3 5698.7 5065.2 5706.8 5059.3 5703.7 5068.8 5711.8 5074.7" clip-path="url(#a)" fill="none" stroke="#000" stroke-linecap="round"/>
<polyline points="5711.8 5074.7 5703.7 5080.5 5711.8 5086.4 5703.7 5092.3 5706.8 5082.8 5698.7 5088.7 5701.8 5098.2 5698.7 5088.7 5706.8 5082.8 5698.7 5088.7 5706.8 5082.8 5698.7 5088.7 5695.6 5098.2 5705.6 5098.2 5702.5 5088.7 5699.5 5079.2 5709.5 5079.2 5717.5 5085 5714.5 5094.5 5722.5 5088.7 5725.6 5098.2 5722.5 5107.7 5719.5 5117.2 5709.5 5117.2 5712.5 5107.7 5704.5 5113.6 5712.5 5107.7 5709.5 5098.2 5706.4 5107.7 5698.3 5101.8 5688.3 5101.8 5696.4 5107.7 5693.3 5117.2 5701.4 5123.1 5698.3 5132.6 5688.3 5132.6 5680.2 5126.7 5688.3 5120.8 5680.2 5115 5677.1 5124.5 5667.1 5124.5 5675.2 5130.3 5683.3 5136.2" clip-path="url(#a)" fill="none" stroke="#000" stroke-linecap="round"/>
<polyline points="5683.3 5136.2 5686.4 5126.7 5689.5 5117.2 5681.4 5123.1 5678.3 5132.6 5668.3 5132.6 5665.2 5142.1 5668.3 5132.6 5671.4 5123.1 5679.5 5117.2 5671.4 5123.1 5663.3 5129 5671.4 5123.1 5674.5 5132.6 5677.5 5142.1 5685.6 5136.2 5675.6 5136.2 5672.5 5145.7 5680.6 5151.6 5688.7 5157.5 5680.6 5151.6 5677.5 5161.1 5685.6 5167 5688.7 5157.5 5685.6 5148 5688.7 5138.5 5678.7 5138.5 5670.6 5132.6 5660.6 5132.6 5668.7 5126.7 5660.6 5120.8 5663.7 5130.3 5660.6 5139.9 5650.6 5139.9 5640.6 5139.9 5632.5 5134 5635.6 5124.5 5645.6 5124.5 5635.6 5124.5 5627.5 5118.6 5624.5 5128.1 5627.5 5137.6 5624.5 5128.1" clip-path="url(#a)" fill="none" stroke="#000" stroke-linecap="round"/>
<polyline points="5624.5 5128.1 5627.5 5137.6 5619.5 5143.5 5609.5 5143.5 5612.5 5153 5609.5 5143.5 5601.4 5149.4 5604.5 5139.9 5601.4 5130.3 5591.4 5130.3 5583.3 5136.2 5586.4 5126.7 5594.5 5132.6 5597.5 5123.1 5600.6 5113.6 5603.7 5104.1 5593.7 5104.1 5590.6 5094.5 5587.5 5085 5577.5 5085 5574.5 5094.5 5564.5 5094.5 5556.4 5100.4 5564.5 5106.3 5554.5 5106.3 5551.4 5096.8 5559.5 5090.9 5556.4 5081.4 5548.3 5075.5 5540.2 5081.4 5530.2 5081.4 5527.1 5090.9 5519 5085 5527.1 5079.2 5519 5085 5522.1 5075.5 5525.2 5085 5522.1 5075.5 5514 5081.4 5504 5081.4 5495.9 5075.5 5487.8 5081.4 5495.9 5087.3" clip-path="url(#a)" fill="none" stroke="#000" stroke-linecap="round"/>
<polyline points="5495.9 5087.3 5499 5096.8 5495.9 5087.3 5492.8 5096.8 5502.8 5096.8 5499.7 5106.3 5507.8 5112.2 5497.8 5112.2 5494.7 5121.7 5504.7 5121.7 5494.7 5121.7 5497.8 5112.2 5489.7 5118.1 5486.6 5127.6 5494.7 5121.7 5484.7 5121.7 5492.8 5127.6 5489.7 5137.1 5486.6 5127.6 5494.7 5133.4 5497.8 5143 5507.8 5143 5517.8 5143 5525.9 5137.1 5517.8 5143 5520.9 5152.5 5524 5162 5520.9 5171.5 5524 5181 5534 5181 5524 5181 5532.1 5186.9 5524 5192.8 5532.1 5186.9 5529 5177.4 5537.1 5171.5 5529 5177.4 5525.9 5186.9 5517.8 5181 5507.8 5181 5499.7 5186.9 5491.6 5192.8 5494.7 5202.3" clip-path="url(#a)" fill="none" stroke="#000" stroke-linecap="round"/>
<polyline points="5494.7 5202.3 5486.6 5196.4 5496.6 5196.4 5504.7 5190.5 5496.6 5196.4 5486.6 5196.4 5494.7 5190.5 5504.7 5190.5 5494.7 5190.5 5491.6 5181 5483.5 5175.1 5491.6 5169.2 5481.6 5169.2 5473.5 5163.4 5465.5 5157.5 5468.5 5167 5465.5 5176.5 5473.5 5170.6 5470.5 5161.1 5473.5 5151.6 5476.6 5161.1 5473.5 5151.6 5483.5 5151.6 5480.5 5161.1 5472.4 5167 5482.4 5167 5474.3 5172.9 5471.2 5163.4 5479.3 5169.2 5476.2 5178.8 5473.1 5188.3 5470 5178.8 5466.9 5169.2 5475 5163.4 5466.9 5157.5 5476.9 5157.5 5466.9 5157.5 5456.9 5157.5 5448.8 5163.4 5438.8 5163.4 5428.8 5163.4 5420.7 5169.2 5417.6 5178.8" clip-path="url(#a)" fill="none" stroke="#000" stroke-linecap="round"/>
<polyline points="5417.6 5178.8 5425.7 5172.9 5433.8 5167 5430.7 5176.5 5420.7 5176.5 5428.8 5182.4 5425.7 5172.9 5417.6 5167 5409.6 5161.1 5419.6 5161.1 5411.5 5155.2 5421.5 5155.2 5418.4 5145.7 5426.5 5139.9 5429.6 5149.4 5421.5 5155.2 5429.6 5161.1 5437.6 5155.2 5434.6 5164.8 5426.5 5170.6 5416.5 5170.6 5424.6 5164.8 5427.6 5155.2 5435.7 5149.4 5438.8 5158.9 5428.8 5158.9 5420.7 5164.8 5412.6 5158.9 5422.6 5158.9 5419.6 5149.4 5411.5 5143.5 5401.5 5143.5 5404.6 5134 5414.6 5134 5411.5 5143.5 5408.4 5153 5400.3 5147.1 5392.2 5153 5395.3 5162.5 5398.4 5153 5388.4 5153 5391.5 5162.5 5394.6 5153" clip-path="url(#a)" fill="none" stroke="#000" stroke-linecap="round"/>
<polyline points="5394.6 5153 5397.6 5162.5 5400.7 5172 5403.8 5181.5 5393.8 5181.5 5401.9 5175.7 5410 5169.8 5400 5169.8 5410 5169.8 5401.9 5175.7 5405 5185.2 5395 5185.2 5398.1 5194.7 5388.1 5194.7 5396.2 5188.8 5386.2 5188.8 5383.1 5198.3 5386.2 5188.8 5396.2 5188.8 5386.2 5188.8 5396.2 5188.8 5386.2 5188.8 5378.1 5194.7 5386.2 5200.5 5389.3 5191 5392.4 5181.5 5400.5 5187.4 5403.5 5196.9 5395.5 5202.8 5405.5 5202.8 5402.4 5212.3 5394.3 5218.2 5386.2 5224.1 5378.1 5218.2 5386.2 5212.3 5376.2 5212.3 5386.2 5212.3 5389.3 5202.8 5381.2 5208.7 5378.1 5199.2 5370 5193.3 5373.1 5202.8 5365 5208.7" clip-path="url(#a)" fill="none" stroke="#000" stroke-linecap="round"/>
<polyline points="5365 5208.7 5368.1 5218.2 5360 5224.1 5351.9 5218.2 5348.8 5208.7 5358.8 5208.7 5355.7 5199.2 5347.6 5205 5339.6 5199.2 5342.6 5208.7 5345.7 5218.2 5353.8 5212.3 5361.9 5206.4 5351.9 5206.4 5343.8 5212.3 5335.7 5206.4 5327.6 5212.3 5335.7 5206.4 5343.8 5200.5 5353.8 5200.5 5343.8 5200.5 5333.8 5200.5 5343.8 5200.5 5340.7 5210.1 5337.6 5219.6 5347.6 5219.6 5339.6 5213.7 5331.5 5219.6 5334.6 5229.1 5337.6 5238.6 5334.6 5229.1 5326.5 5235 5329.6 5244.5 5337.6 5238.6 5340.7 5229.1 5348.8 5223.2 5340.7 5217.3 5337.6 5207.8 5329.6 5201.9 5339.6 5201.9 5336.5 5192.4 5333.4 5201.9 5325.3 5207.8" clip-path="url(#a)" fill="none" stroke="#000" stroke-linecap="round"/>
<polyline points="5325.3 5207.8 5317.2 5201.9 5309.1 5196.1 5306 5186.5 5314.1 5180.7 5322.2 5186.5 5314.1 5180.7 5311 5171.2 5302.9 5177 5299.8 5186.5 5302.9 5177 5299.8 5186.5 5289.8 5186.5 5281.7 5180.7 5278.7 5190.2 5281.7 5180.7 5271.7 5180.7 5279.8 5174.8 5282.9 5165.3 5274.8 5159.4 5264.8 5159.4 5272.9 5153.5 5276 5163 5284.1 5157.2 5292.2 5151.3 5300.3 5145.4 5292.2 5139.5 5295.3 5130 5298.4 5120.5 5290.3 5114.6 5282.2 5120.5 5274.1 5114.6 5264.1 5114.6 5267.2 5124.1 5259.1 5118.3 5262.2 5108.7 5272.2 5108.7 5275.3 5099.2 5272.2 5089.7 5262.2 5089.7 5254.1 5083.8 5246 5089.7 5242.9 5080.2" clip-path="url(#a)" fill="none" stroke="#000" stroke-linecap="round"/>
<polyline points="5242.9 5080.2 5252.9 5080.2 5242.9 5080.2 5251 5074.3 5247.9 5083.8 5251 5074.3 5241 5074.3 5232.9 5068.5 5229.8 5059 5219.8 5059 5222.9 5068.5 5219.8 5078 5222.9 5068.5 5214.8 5074.3 5222.9 5080.2 5214.8 5086.1 5217.9 5095.6 5209.8 5089.7 5201.7 5095.6 5209.8 5101.5 5201.7 5095.6 5209.8 5089.7 5199.8 5089.7 5191.7 5095.6 5201.7 5095.6 5193.7 5089.7 5196.7 5099.2 5188.7 5105.1 5191.7 5095.6 5194.8 5105.1 5191.7 5114.6 5199.8 5120.5 5207.9 5126.4 5217.9 5126.4 5207.9 5126.4 5204.8 5135.9 5201.7 5145.4 5193.7 5151.3 5190.6 5160.8 5198.7 5166.7 5190.6 5160.8 5193.7 5170.3 5183.7 5170.3" clip-path="url(#a)" fill="none" stroke="#000" stroke-linecap="round"/>
<polyline points="5183.7 5170.3 5193.7 5170.3 5196.7 5160.8 5206.7 5160.8 5196.7 5160.8 5188.7 5166.7 5185.6 5157.2 5177.5 5151.3 5167.5 5151.3 5157.5 5151.3 5154.4 5160.8 5151.3 5151.3 5159.4 5157.2 5169.4 5157.2 5159.4 5157.2 5151.3 5151.3 5161.3 5151.3 5169.4 5157.2 5161.3 5151.3 5164.4 5141.8 5161.3 5132.3 5171.3 5132.3 5163.2 5126.4 5160.1 5116.9 5157 5107.4 5153.9 5116.9 5145.8 5122.7 5155.8 5122.7 5158.9 5113.2 5167 5107.4 5163.9 5116.9 5167 5107.4 5175.1 5113.2 5167 5119.1 5157 5119.1 5165.1 5125 5155.1 5125 5158.2 5115.5 5161.3 5125 5153.2 5130.9 5145.1 5136.8 5148.2 5127.2 5151.3 5117.7" clip-path="url(#a)" fill="none" stroke="#000" stroke-linecap="round"/>
<polyline points="5151.3 5117.7 5161.3 5117.7 5158.2 5108.2 5166.3 5114.1 5158.2 5108.2 5150.1 5102.3 5140.1 5102.3 5132 5096.5 5123.9 5090.6 5113.9 5090.6 5105.8 5096.5 5115.8 5096.5 5125.8 5096.5 5117.8 5102.3 5109.7 5096.5 5112.8 5106 5115.8 5096.5 5112.8 5087 5109.7 5077.4 5117.8 5083.3 5114.7 5073.8 5122.8 5079.7 5125.8 5070.2 5135.8 5070.2 5132.8 5079.7 5122.8 5079.7 5125.8 5089.2 5135.8 5089.2 5127.8 5095.1 5117.8 5095.1 5109.7 5089.2 5119.7 5089.2 5127.8 5083.3 5137.8 5083.3 5134.7 5092.8 5126.6 5087 5116.6 5087 5113.5 5077.4 5121.6 5083.3 5124.7 5073.8 5121.6 5064.3 5113.5 5058.4 5121.6 5052.5" clip-path="url(#a)" fill="none" stroke="#000" stroke-linecap="round"/>
<polyline points="5121.6 5052.5 5129.7 5058.4 5121.6 5064.3 5113.5 5070.2 5110.4 5060.7 5100.4 5060.7 5097.3 5070.2 5105.4 5064.3 5097.3 5058.4 5094.2 5067.9 5102.3 5062.1 5099.2 5071.6 5096.1 5081.1 5093 5090.6 5084.9 5084.7 5094.9 5084.7 5104.9 5084.7 5096.9 5078.8 5104.9 5084.7 5094.9 5084.7 5091.9 5094.2 5083.8 5088.3 5080.7 5097.9 5072.6 5092 5082.6 5092 5074.5 5086.1 5066.4 5092 5074.5 5086.1 5082.6 5092 5074.5 5086.1 5082.6 5092 5074.5 5086.1 5064.5 5086.1 5067.6 5095.6 5075.7 5089.7 5083.8 5083.8 5086.9 5093.4 5083.8 5102.9 5073.8 5102.9 5081.9 5108.7 5073.8 5114.6 5063.8 5114.6 5053.8 5114.6" clip-path="url(#a)" fill="none" stroke="#000" stroke-linecap="round"/>
<polyline points="5053.8 5114.6 5050.7 5105.1 5060.7 5105.1 5052.6 5099.2 5060.7 5105.1 5068.8 5099.2 5058.8 5099.2 5061.9 5089.7 5058.8 5080.2 5055.7 5089.7 5045.7 5089.7 5042.6 5099.2 5032.6 5099.2 5029.5 5089.7 5032.6 5080.2 5040.7 5086.1 5043.8 5076.6 5033.8 5076.6 5030.7 5067.1 5027.6 5076.6 5024.5 5086.1 5034.5 5086.1 5044.5 5086.1 5036.4 5080.2 5026.4 5080.2 5023.3 5070.7 5013.3 5070.7 5023.3 5070.7 5033.3 5070.7 5041.4 5076.6 5033.3 5070.7 5025.2 5064.8 5033.3 5070.7 5025.2 5076.6 5017.1 5082.5 5025.2 5088.3 5022.1 5078.8 5012.1 5078.8 5009 5088.3 5006 5097.9 5009 5088.3 4999 5088.3 4996 5097.9" clip-path="url(#a)" fill="none" stroke="#000" stroke-linecap="round"/>
<polyline points="4996 5097.9 5006 5097.9 5014 5092 5024 5092 5021 5082.5 5024 5073 5021 5063.4 5029 5069.3 5032.1 5059.8 5024 5065.7 5014 5065.7 5011 5056.2 5007.9 5046.7 5011 5037.2 5021 5037.2 5024 5046.7 5021 5037.2 5024 5027.6 5014 5027.6 5006 5033.5 5014 5027.6 5006 5033.5 4997.9 5027.6 4994.8 5018.1 4986.7 5024 4994.8 5018.1 4986.7 5012.3 4996.7 5012.3 5004.8 5006.4 5001.7 4996.9 4993.6 4991 5003.6 4991 5000.5 5000.5" clip-path="url(#a)" fill="none" stroke="#000" stroke-linecap="round"/>
</svg>
