<?xml version="1.0" encoding="UTF-8"?>
<svg width="1e4px" height="1e4px" baseProfile="full" version="1.1" viewBox="4922.7 4894.2 237.25 234.46" xmlns="http://www.w3.org/2000/svg">
<defs>
<clipPath id="a">
<rect width="1e4" height="1e4"/>
</clipPath>
</defs>
<polyline points="5000.5 5000.5 5010.5 5000.5 5020.5 5000.5 5030.5 5000.5 5027.4 4991 5037.4 4991 5045.5 4985.1 5048.6 4994.6 5051.7 4985.1 5059.8 4991 5067.9 4985.1 5071 4975.6 5067.9 4966.1 5076 4960.2 5086 4960.2 5076 4960.2 5067.9 4954.3 5057.9 4954.3 5047.9 4954.3 5051 4944.8 5061 4944.8 5071 4944.8 5062.9 4950.7 5066 4941.2 5074 4935.3 5077.1 4925.8 5069 4931.7 5079 4931.7 5087.1 4937.6 5084 4947.1 5087.1 4956.6 5090.2 4947.1 5087.1 4937.6 5077.1 4937.6 5085.2 4931.7 5077.1 4925.8 5074 4916.3 5071 4925.8 5067.9 4935.3 5071 4925.8 5062.9 4919.9 5054.8 4914 5057.9 4923.6" clip-path="url(#a)" fill="none" stroke="#000" stroke-linecap="round"/>
<polyline points="5057.9 4923.6 5061 4914 5064 4923.6 5067.1 4933.1 5064 4942.6 5061 4933.1 5069 4938.9 5061 4933.1 5064 4942.6 5074 4942.6 5071 4952.1 5074 4942.6 5077.1 4933.1 5085.2 4927.2 5082.1 4917.7 5085.2 4908.2 5075.2 4908.2 5083.3 4902.3 5091.4 4908.2 5099.5 4914 5107.6 4908.2 5117.6 4908.2 5114.5 4917.7 5124.5 4917.7 5132.6 4923.6 5124.5 4929.4 5121.4 4919.9 5129.5 4925.8 5132.6 4935.3 5129.5 4925.8 5121.4 4919.9 5131.4 4919.9 5128.3 4929.4 5136.4 4935.3 5133.3 4944.8 5130.2 4935.3 5120.2 4935.3 5128.3 4941.2 5120.2 4935.3 5117.1 4944.8 5120.2 4935.3 5110.2 4935.3 5102.1 4941.2" clip-path="url(#a)" fill="none" stroke="#000" stroke-linecap="round"/>
<polyline points="5102.1 4941.2 5110.2 4935.3 5120.2 4935.3 5123.3 4944.8 5120.2 4935.3 5112.1 4929.4 5109 4938.9 5106 4948.5 5109 4958 5117.1 4963.8 5127.1 4963.8 5117.1 4963.8 5114 4973.4 5122.1 4967.5 5125.2 4958 5128.3 4967.5 5136.4 4961.6 5128.3 4967.5 5131.4 4958 5141.4 4958 5138.3 4967.5 5130.2 4961.6 5127.1 4971.1 5135.2 4977 5138.3 4967.5 5130.2 4973.4 5133.3 4982.9 5136.4 4992.4 5139.5 5001.9 5129.5 5001.9 5137.6 5007.8 5140.7 4998.3 5132.6 5004.1 5122.6 5004.1 5130.7 5010 5127.6 5000.5 5117.6 5000.5 5120.7 5010 5110.7 5010 5102.6 5004.1 5092.6 5004.1 5089.5 4994.6 5079.5 4994.6" clip-path="url(#a)" fill="none" stroke="#000" stroke-linecap="round"/>
<polyline points="5079.5 4994.6 5071.4 5000.5 5079.5 4994.6 5076.4 5004.1 5079.5 5013.6 5087.6 5007.8 5079.5 5001.9 5082.6 4992.4 5074.5 4986.5 5077.6 4977 5085.7 4971.1 5095.7 4971.1 5087.6 4977 5090.7 4986.5 5082.6 4992.4 5085.7 5001.9 5082.6 4992.4 5072.6 4992.4 5075.7 4982.9 5085.7 4982.9 5088.8 4992.4 5096.9 4998.3 5104.9 5004.1 5101.9 4994.6 5098.8 4985.1 5106.9 4979.2 5116.9 4979.2 5119.9 4969.7 5116.9 4960.2 5119.9 4950.7 5109.9 4950.7 5113 4960.2 5116.1 4969.7 5108 4975.6 5116.1 4969.7 5108 4975.6 5099.9 4981.5 5096.9 4991 5086.9 4991 5096.9 4991 5099.9 5000.5 5089.9 5000.5 5093 5010" clip-path="url(#a)" fill="none" stroke="#000" stroke-linecap="round"/>
<polyline points="5093 5010 5084.9 5004.1 5076.9 4998.3 5084.9 5004.1 5088 5013.6 5091.1 5004.1 5099.2 5010 5102.3 5019.5 5099.2 5010 5102.3 5019.5 5110.4 5013.6 5120.4 5013.6 5130.4 5013.6 5127.3 5004.1 5119.2 5010 5129.2 5010 5119.2 5010 5122.3 5000.5 5114.2 4994.6 5117.3 5004.1 5114.2 5013.6 5111.1 5023.2 5103 5017.3 5094.9 5011.4 5104.9 5011.4 5101.9 5001.9 5093.8 4996 5090.7 4986.5 5100.7 4986.5 5110.7 4986.5 5113.8 4977 5116.9 4986.5 5119.9 4996 5129.9 4996 5133 4986.5 5123 4986.5 5113 4986.5 5121.1 4992.4 5118 5001.9 5128 5001.9 5131.1 4992.4 5139.2 4998.3 5149.2 4998.3" clip-path="url(#a)" fill="none" stroke="#000" stroke-linecap="round"/>
<polyline points="5149.2 4998.3 5146.1 4988.7 5156.1 4988.7 5146.1 4988.7 5154.2 4994.6 5144.2 4994.6 5152.3 5000.5 5142.3 5000.5 5139.2 4991 5136.1 5000.5 5133 5010 5136.1 5019.5 5139.2 5010 5149.2 5010 5141.1 5015.9 5131.1 5015.9 5128 5006.4 5136.1 5000.5 5144.2 5006.4 5141.1 4996.9 5151.1 4996.9 5141.1 4996.9 5138 4987.4 5129.9 4993.2 5133 4983.7 5124.9 4989.6 5133 4995.5 5143 4995.5 5146.1 4986 5138 4980.1 5148 4980.1 5144.9 4989.6 5141.9 4980.1 5144.9 4989.6 5134.9 4989.6 5126.9 4983.7 5123.8 4974.2 5113.8 4974.2 5123.8 4974.2 5115.7 4980.1 5123.8 4974.2 5131.9 4968.3 5123.8 4974.2" clip-path="url(#a)" fill="none" stroke="#000" stroke-linecap="round"/>
<polyline points="5123.8 4974.2 5131.9 4968.3 5134.9 4977.8 5126.9 4972 5118.8 4977.8 5110.7 4983.7 5102.6 4977.8 5092.6 4977.8 5095.7 4968.3 5105.7 4968.3 5097.6 4962.5 5094.5 4972 5084.5 4972 5092.6 4966.1 5089.5 4975.6 5092.6 4985.1 5082.6 4985.1 5074.5 4991 5066.4 4996.9 5058.3 5002.7 5066.4 5008.6 5058.3 5014.5 5055.2 5024 5047.1 5018.1 5050.2 5027.6 5040.2 5027.6 5037.1 5037.2 5040.2 5046.7 5048.3 5052.5 5045.2 5062.1 5037.1 5067.9 5045.2 5062.1 5055.2 5062.1 5063.3 5056.2 5071.4 5050.3 5074.5 5059.8 5066.4 5065.7 5058.3 5071.6 5061.4 5062.1 5064.5 5071.6 5061.4 5081.1 5064.5 5090.6 5067.6 5081.1" clip-path="url(#a)" fill="none" stroke="#000" stroke-linecap="round"/>
<polyline points="5067.6 5081.1 5059.5 5087 5049.5 5087 5046.4 5077.4 5038.3 5071.6 5041.4 5081.1 5049.5 5087 5057.6 5081.1 5054.5 5090.6 5064.5 5090.6 5072.6 5096.5 5069.5 5087 5066.4 5077.4 5069.5 5087 5079.5 5087 5089.5 5087 5081.4 5081.1 5084.5 5090.6 5076.4 5084.7 5068.3 5078.8 5065.2 5069.3 5073.3 5075.2 5063.3 5075.2 5073.3 5075.2 5065.2 5069.3 5057.1 5075.2 5054 5065.7 5057.1 5075.2 5060.2 5084.7 5057.1 5094.2 5065.2 5100.1 5068.3 5109.6 5076.4 5103.7 5073.3 5113.2 5063.3 5113.2 5053.3 5113.2 5050.2 5122.7 5042.1 5128.6 5039 5119.1 5031 5125 5021 5125 5024 5115.5 5032.1 5121.4" clip-path="url(#a)" fill="none" stroke="#000" stroke-linecap="round"/>
<polyline points="5032.1 5121.4 5022.1 5121.4 5014 5115.5 5022.1 5121.4 5032.1 5121.4 5024 5127.2 5021 5117.7 5011 5117.7 5007.9 5108.2 5016 5114.1 5024 5108.2 5014 5108.2 5024 5108.2 5021 5098.7 5024 5108.2 5032.1 5102.3 5035.2 5092.8 5032.1 5102.3 5024 5108.2 5016 5102.3 5024 5108.2 5034 5108.2 5031 5098.7 5027.9 5089.2 5019.8 5083.3 5009.8 5083.3 5001.7 5089.2 5009.8 5083.3 5006.7 5073.8 5003.6 5083.3 5006.7 5092.8 4998.6 5087 4995.5 5096.5 4998.6 5087 5001.7 5096.5 4993.6 5102.3 4990.5 5092.8 5000.5 5092.8 4997.4 5083.3 4987.4 5083.3 4990.5 5092.8 4993.6 5083.3 4985.5 5077.4" clip-path="url(#a)" fill="none" stroke="#000" stroke-linecap="round"/>
<polyline points="4985.5 5077.4 4977.4 5071.6 4969.3 5065.7 4977.4 5059.8 4967.4 5059.8 4970.5 5069.3 4973.6 5059.8 4981.7 5053.9 4971.7 5053.9 4979.8 5059.8 4987.9 5053.9 4979.8 5048.1 4987.9 5042.2 4997.9 5042.2 5006 5036.3 5014 5042.2 5022.1 5036.3 5025.2 5026.8 5022.1 5036.3 5019 5026.8 5011 5020.9 5007.9 5030.4 5017.9 5030.4 5021 5039.9 5031 5039.9 5034 5049.4 5031 5059 5022.9 5064.8 5026 5055.3 5017.9 5049.4 5021 5039.9 5012.9 5034.1 5021 5039.9 5029 5034.1 5032.1 5043.6 5024 5049.4 5016 5043.6 5006 5043.6 4996 5043.6 5004 5049.4 5012.1 5055.3 5009 5064.8 5001 5070.7" clip-path="url(#a)" fill="none" stroke="#000" stroke-linecap="round"/>
<polyline points="5001 5070.7 5004 5080.2 5012.1 5086.1 5015.2 5095.6 5023.3 5089.7 5015.2 5083.8 5007.1 5078 5010.2 5068.5 5007.1 5078 5010.2 5068.5 5013.3 5059 5010.2 5049.4 5018.3 5043.6 5010.2 5049.4 5002.1 5043.6 5010.2 5037.7 5002.1 5031.8 5012.1 5031.8 5022.1 5031.8 5012.1 5031.8 5004 5025.9 5007.1 5035.4 4997.1 5035.4 4989 5029.6 4997.1 5035.4 4989 5029.6 4986 5039.1 4977.9 5045 4969.8 5050.8 4977.9 5056.7 4981 5047.2 4972.9 5053.1 4981 5047.2 4984 5056.7 4994 5056.7 4986 5050.8 4982.9 5041.3 4979.8 5031.8 4989.8 5031.8 4999.8 5031.8 4991.7 5037.7 4999.8 5043.6 5009.8 5043.6" clip-path="url(#a)" fill="none" stroke="#000" stroke-linecap="round"/>
<polyline points="5009.8 5043.6 5017.9 5049.4 5009.8 5055.3 5001.7 5061.2 5004.8 5070.7 4996.7 5064.8 4988.6 5059 4980.5 5064.8 4983.6 5074.3 4991.7 5068.5 4999.8 5062.6 4989.8 5062.6 4986.7 5053.1 4978.6 5059 4981.7 5068.5 4971.7 5068.5 4963.6 5074.3 4971.7 5080.2 4963.6 5086.1 4971.7 5080.2 4961.7 5080.2 4969.8 5074.3 4959.8 5074.3 4967.9 5068.5 4976 5074.3 4972.9 5064.8 4969.8 5055.3 4961.7 5049.4 4964.8 5059 4956.7 5064.8 4959.8 5055.3 4967.9 5049.4 4976 5055.3 4972.9 5064.8 4962.9 5064.8 4971 5070.7 4962.9 5076.6 4971 5070.7 4979 5076.6 4982.1 5067.1 4985.2 5076.6 4988.3 5067.1 4978.3 5067.1" clip-path="url(#a)" fill="none" stroke="#000" stroke-linecap="round"/>
<polyline points="4978.3 5067.1 4970.2 5073 4973.3 5082.5 4983.3 5082.5 4975.2 5088.3 4972.1 5078.8 4980.2 5084.7 4972.1 5078.8 4980.2 5073 4990.2 5073 4998.3 5078.8 5006.4 5073 4998.3 5078.8 5001.4 5069.3 4998.3 5078.8 4995.2 5088.3 4998.3 5078.8 4995.2 5088.3 4987.1 5082.5 4997.1 5082.5 5000.2 5073 5003.3 5063.4 5013.3 5063.4 5021.4 5057.6 5024.5 5067.1 5016.4 5073 5026.4 5073 5023.3 5063.4 5031.4 5057.6 5028.3 5067.1 5025.2 5057.6 5017.1 5051.7 5025.2 5045.8 5028.3 5036.3 5031.4 5026.8 5034.5 5017.3 5024.5 5017.3 5027.6 5007.8 5024.5 4998.3 5034.5 4998.3 5026.4 4992.4 5034.5 4986.5 5031.4 4977" clip-path="url(#a)" fill="none" stroke="#000" stroke-linecap="round"/>
<polyline points="5031.4 4977 5023.3 4971.1 5013.3 4971.1 5010.2 4961.6 5013.3 4952.1 5010.2 4961.6 5002.1 4967.5 4999 4977 4996 4986.5 4987.9 4980.6 4991 4971.1 4994 4961.6 4997.1 4971.1 4989 4965.2 4986 4955.7 4977.9 4949.8 4981 4959.4 4984 4949.8 4992.1 4944 5000.2 4949.8 5010.2 4949.8 5002.1 4944 4992.1 4944 4989 4953.5 4986 4944 4977.9 4949.8 4967.9 4949.8 4976 4955.7 4984 4961.6 4976 4955.7 4967.9 4961.6 4959.8 4967.5 4969.8 4967.5 4961.7 4961.6 4971.7 4961.6 4981.7 4961.6 4989.8 4967.5 4979.8 4967.5 4987.9 4961.6 4979.8 4967.5 4989.8 4967.5 4992.9 4958 5001 4963.8" clip-path="url(#a)" fill="none" stroke="#000" stroke-linecap="round"/>
<polyline points="5001 4963.8 4992.9 4958 4984.8 4952.1 4981.7 4942.6 4971.7 4942.6 4963.6 4936.7 4960.5 4946.2 4957.4 4936.7 4965.5 4930.8 4973.6 4924.9 4970.5 4915.4 4973.6 4905.9 4981.7 4911.8 4984.8 4902.3 4992.9 4896.4 4996 4905.9 4986 4905.9 4994 4900 5004 4900 4994 4900 4986 4905.9 4989 4896.4 4997.1 4902.3 5005.2 4896.4 5013.3 4902.3 5003.3 4902.3 5000.2 4911.8 5008.3 4905.9 5000.2 4911.8 5008.3 4917.7 5000.2 4911.8 4997.1 4921.3 5000.2 4930.8 4997.1 4921.3 5000.2 4911.8 5010.2 4911.8 5000.2 4911.8 4992.1 4917.7 5000.2 4923.6 5008.3 4929.4 5018.3 4929.4 5026.4 4923.6 5029.5 4914" clip-path="url(#a)" fill="none" stroke="#000" stroke-linecap="round"/>
<polyline points="5029.5 4914 5026.4 4923.6 5034.5 4929.4 5031.4 4919.9 5023.3 4914 5033.3 4914 5030.2 4904.5 5033.3 4914 5025.2 4908.2 5028.3 4898.7 5036.4 4904.5 5028.3 4910.4 5036.4 4916.3 5044.5 4910.4 5036.4 4904.5 5039.5 4914 5049.5 4914 5059.5 4914 5069.5 4914 5066.4 4923.6 5074.5 4917.7 5066.4 4911.8 5069.5 4921.3 5066.4 4930.8 5074.5 4924.9 5064.5 4924.9 5061.4 4934.5 5071.4 4934.5 5068.3 4944 5060.2 4949.8 5057.1 4959.4 5047.1 4959.4 5044 4968.9 5047.1 4978.4 5044 4968.9 5052.1 4974.7 5062.1 4974.7 5059 4965.2 5051 4971.1 5042.9 4965.2 5034.8 4971.1 5026.7 4965.2 5023.6 4955.7" clip-path="url(#a)" fill="none" stroke="#000" stroke-linecap="round"/>
<polyline points="5023.6 4955.7 5026.7 4946.2 5029.8 4955.7 5039.8 4955.7 5042.9 4965.2 5052.9 4965.2 5042.9 4965.2 5039.8 4974.7 5031.7 4968.9 5034.8 4959.4 5044.8 4959.4 5052.9 4953.5 5061 4947.6 5051 4947.6 5041 4947.6 5037.9 4938.1 5041 4928.6 5032.9 4922.7 5022.9 4922.7 5014.8 4916.8 5011.7 4926.3 5021.7 4926.3 5031.7 4926.3 5034.8 4935.8 5031.7 4926.3 5034.8 4935.8 5037.9 4945.4 5046 4951.2 5042.9 4960.7 5046 4951.2 5056 4951.2 5052.9 4960.7 5062.9 4960.7 5054.8 4966.6 5046.7 4972.5 5054.8 4966.6 5064.8 4966.6 5056.7 4960.7 5064.8 4954.9 5074.8 4954.9 5064.8 4954.9 5074.8 4954.9 5071.7 4945.4" clip-path="url(#a)" fill="none" stroke="#000" stroke-linecap="round"/>
<polyline points="5071.7 4945.4 5074.8 4935.8 5077.9 4926.3 5067.9 4926.3 5071 4935.8 5074 4926.3 5071 4935.8 5062.9 4930 5054.8 4935.8 5064.8 4935.8 5072.9 4941.7 5081 4947.6 5072.9 4953.5 5064.8 4959.4 5067.9 4949.8 5057.9 4949.8 5049.8 4955.7 5039.8 4955.7 5042.9 4946.2 5046 4936.7 5037.9 4930.8 5047.9 4930.8 5057.9 4930.8 5061 4921.3 5052.9 4915.4 5049.8 4924.9 5046.7 4934.5 5054.8 4928.6 5062.9 4934.5 5066 4924.9 5057.9 4919.1 5066 4913.2 5069 4903.7 5059 4903.7 5062.1 4894.2 5059 4903.7 5067.1 4897.8 5064 4907.3 5072.1 4901.4 5069 4910.9 5059 4910.9 5067.1 4916.8 5075.2 4922.7" clip-path="url(#a)" fill="none" stroke="#000" stroke-linecap="round"/>
<polyline points="5075.2 4922.7 5085.2 4922.7 5077.1 4916.8 5080.2 4907.3 5083.3 4916.8 5080.2 4926.3 5070.2 4926.3 5067.1 4916.8 5075.2 4910.9 5065.2 4910.9 5068.3 4901.4 5065.2 4910.9 5055.2 4910.9 5058.3 4920.5 5050.2 4914.6 5053.3 4924.1 5061.4 4918.2 5064.5 4908.7 5056.4 4902.8 5048.3 4908.7 5051.4 4899.2 5059.5 4905.1 5049.5 4905.1 5059.5 4905.1 5056.4 4914.6 5048.3 4920.5 5038.3 4920.5 5035.2 4930 5038.3 4920.5 5041.4 4930 5038.3 4920.5 5035.2 4910.9 5038.3 4920.5 5035.2 4910.9 5045.2 4910.9 5037.1 4916.8 5040.2 4926.3 5043.3 4935.8 5035.2 4941.7 5032.1 4951.2 5024 4945.4 5027.1 4935.8 5019 4941.7" clip-path="url(#a)" fill="none" stroke="#000" stroke-linecap="round"/>
<polyline points="5019 4941.7 5027.1 4947.6 5024 4957.1 5021 4947.6 5029 4953.5 5039 4953.5 5036 4963 5039 4972.5 5042.1 4982 5045.2 4991.5 5053.3 4985.6 5056.4 4995.2 5064.5 5001 5056.4 5006.9 5066.4 5006.9 5063.3 5016.4 5071.4 5022.3 5081.4 5022.3 5089.5 5016.4 5097.6 5022.3 5100.7 5031.8 5097.6 5022.3 5100.7 5012.8 5097.6 5003.3 5094.5 4993.8 5104.5 4993.8 5107.6 5003.3 5110.7 5012.8 5102.6 5006.9 5112.6 5006.9 5120.7 5012.8 5130.7 5012.8 5122.6 5006.9 5125.7 5016.4 5122.6 5025.9 5112.6 5025.9 5104.5 5031.8 5114.5 5031.8 5122.6 5025.9 5119.5 5016.4 5127.6 5022.3 5130.7 5012.8 5138.8 5006.9" clip-path="url(#a)" fill="none" stroke="#000" stroke-linecap="round"/>
<polyline points="5138.8 5006.9 5128.8 5006.9 5118.8 5006.9 5128.8 5006.9 5131.9 4997.4 5134.9 4987.9 5126.9 4993.8 5136.9 4993.8 5128.8 4999.6 5120.7 5005.5 5110.7 5005.5 5118.8 4999.6 5115.7 5009.2 5118.8 4999.6 5110.7 5005.5 5113.8 5015 5103.8 5015 5113.8 5015 5123.8 5015 5131.9 5020.9 5139.9 5015 5149.9 5015 5146.9 5005.5 5154.9 5011.4 5151.9 5020.9 5148.8 5030.4 5156.9 5036.3 5159.9 5045.8 5149.9 5045.8 5153 5055.3 5149.9 5064.8 5141.9 5059 5149.9 5053.1 5146.9 5062.6 5138.8 5068.5 5146.9 5062.6 5149.9 5053.1 5153 5062.6 5143 5062.6 5139.9 5072.1 5129.9 5072.1 5138 5066.2 5134.9 5056.7" clip-path="url(#a)" fill="none" stroke="#000" stroke-linecap="round"/>
<polyline points="5134.9 5056.7 5131.9 5066.2 5134.9 5056.7 5124.9 5056.7 5134.9 5056.7 5131.9 5047.2 5123.8 5041.3 5131.9 5047.2 5134.9 5056.7 5126.9 5062.6 5134.9 5056.7 5138 5047.2 5128 5047.2 5118 5047.2 5109.9 5053.1 5106.9 5062.6 5109.9 5072.1 5106.9 5062.6 5096.9 5062.6 5104.9 5068.5 5114.9 5068.5 5106.9 5074.3 5114.9 5080.2 5106.9 5074.3 5116.9 5074.3 5119.9 5083.8 5109.9 5083.8 5113 5074.3 5103 5074.3 5099.9 5083.8 5109.9 5083.8 5101.9 5078 5093.8 5083.8 5085.7 5089.7 5077.6 5095.6 5074.5 5086.1 5071.4 5095.6 5081.4 5095.6 5073.3 5089.7 5070.2 5080.2 5067.1 5089.7 5075.2 5083.8 5072.1 5074.3" clip-path="url(#a)" fill="none" stroke="#000" stroke-linecap="round"/>
<polyline points="5072.1 5074.3 5064 5080.2 5061 5070.7 5064 5061.2 5061 5051.7 5069 5045.8 5066 5036.3 5057.9 5030.4 5066 5036.3 5056 5036.3 5047.9 5042.2 5056 5048.1 5059 5038.5 5069 5038.5 5072.1 5029 5082.1 5029 5090.2 5034.9 5093.3 5044.4 5085.2 5038.5 5077.1 5044.4 5069 5038.5 5061 5044.4 5069 5038.5 5066 5029 5076 5029 5079 5038.5 5071 5044.4 5067.9 5053.9 5064.8 5063.4 5072.9 5057.6 5081 5051.7 5089 5057.6 5092.1 5067.1 5102.1 5067.1 5110.2 5061.2 5120.2 5061.2 5117.1 5051.7 5109 5057.6 5101 5063.4 5092.9 5057.6 5101 5063.4 5092.9 5057.6 5084.8 5051.7" clip-path="url(#a)" fill="none" stroke="#000" stroke-linecap="round"/>
<polyline points="5084.8 5051.7 5074.8 5051.7 5071.7 5042.2 5074.8 5051.7 5066.7 5057.6 5063.6 5048.1 5055.5 5053.9 5058.6 5044.4 5061.7 5034.9 5058.6 5044.4 5050.5 5050.3 5060.5 5050.3 5057.4 5059.8 5049.3 5065.7 5057.4 5059.8 5049.3 5065.7 5057.4 5071.6 5060.5 5081.1 5063.6 5090.6 5071.7 5084.7 5063.6 5078.8 5066.7 5088.3 5063.6 5078.8 5073.6 5078.8 5076.7 5069.3 5068.6 5075.2 5058.6 5075.2 5048.6 5075.2 5051.7 5065.7 5054.8 5056.2 5057.9 5065.7 5066 5059.8 5069 5050.3 5077.1 5044.4 5080.2 5053.9 5083.3 5063.4 5093.3 5063.4 5085.2 5069.3 5077.1 5075.2 5080.2 5084.7 5090.2 5084.7 5087.1 5075.2 5084 5065.7" clip-path="url(#a)" fill="none" stroke="#000" stroke-linecap="round"/>
<polyline points="5084 5065.7 5081 5075.2 5071 5075.2 5074 5084.7 5084 5084.7 5081 5094.2 5084 5103.7 5092.1 5097.9 5095.2 5107.4 5092.1 5097.9 5089 5107.4 5086 5097.9 5082.9 5107.4 5079.8 5097.9 5087.9 5092 5077.9 5092 5067.9 5092 5059.8 5097.9 5069.8 5097.9 5072.9 5107.4 5064.8 5101.5 5061.7 5092 5069.8 5086.1 5077.9 5092 5074.8 5101.5 5082.9 5095.6 5086 5105.1 5082.9 5095.6 5091 5089.7 5082.9 5083.8 5092.9 5083.8 5084.8 5078 5081.7 5087.5 5084.8 5097 5094.8 5097 5097.9 5087.5 5101 5097 5091 5097 5099 5091.1 5091 5097 5087.9 5087.5 5091 5078 5099 5072.1" clip-path="url(#a)" fill="none" stroke="#000" stroke-linecap="round"/>
<polyline points="5099 5072.1 5096 5062.6 5099 5072.1 5091 5066.2 5099 5072.1 5107.1 5078 5099 5072.1 5107.1 5078 5099 5083.8 5102.1 5074.3 5094 5068.5 5086 5062.6 5089 5053.1 5086 5043.6 5096 5043.6 5099 5053.1 5102.1 5043.6 5092.1 5043.6 5089 5034.1 5097.1 5039.9 5087.1 5039.9 5079 5045.8 5076 5036.3 5067.9 5030.4 5059.8 5024.5 5051.7 5018.7 5048.6 5028.2 5040.5 5022.3 5030.5 5022.3 5033.6 5012.8 5025.5 5018.7 5022.4 5009.2 5012.4 5009.2 5004.3 5015 5001.2 5024.5 4991.2 5024.5 4983.1 5018.7 4991.2 5024.5 4994.3 5034.1 5002.4 5039.9 5010.5 5045.8 5002.4 5051.7 4994.3 5045.8" clip-path="url(#a)" fill="none" stroke="#000" stroke-linecap="round"/>
<polyline points="4994.3 5045.8 4986.2 5039.9 4996.2 5039.9 4988.1 5045.8 4978.1 5045.8 4970 5051.7 4980 5051.7 4972 5045.8 4968.9 5036.3 4977 5030.4 4980 5020.9 4972 5026.8 4968.9 5036.3 4977 5042.2 4967 5042.2 4970 5051.7 4967 5061.2 4975 5055.3 4983.1 5049.4 4975 5055.3 4978.1 5064.8 4981.2 5074.3 4984.3 5064.8 4976.2 5070.7 4979.3 5061.2 4982.4 5051.7 4990.5 5045.8 4987.4 5055.3 4984.3 5045.8 4987.4 5055.3 4990.5 5045.8 4982.4 5039.9 4990.5 5034.1 4982.4 5039.9 4974.3 5045.8 4964.3 5045.8 4961.2 5055.3 4953.1 5061.2 4961.2 5067.1 4951.2 5067.1 4948.1 5057.6 4945 5048.1 4935 5048.1" clip-path="url(#a)" fill="none" stroke="#000" stroke-linecap="round"/>
<polyline points="4935 5048.1 4927 5042.2 4935 5036.3 4927 5030.4 4923.9 5020.9 4933.9 5020.9 4930.8 5030.4 4927.7 5020.9 4930.8 5011.4 4927.7 5020.9 4930.8 5030.4 4922.7 5024.5 4930.8 5018.7 4927.7 5009.2 4935.8 5003.3 4932.7 5012.8 4940.8 5018.7 4937.7 5009.2 4940.8 5018.7 4948.9 5012.8 4940.8 5018.7 4948.9 5024.5 4958.9 5024.5 4948.9 5024.5 4940.8 5018.7 4943.9 5009.2 4940.8 5018.7 4943.9 5028.2 4952 5022.3 4960 5016.4 4963.1 5006.9 4960 4997.4 4952 4991.5 4960 4997.4 4968.1 4991.5 4958.1 4991.5 4950 4997.4 4953.1 4987.9 4943.1 4987.9 4953.1 4987.9 4945 4993.8 4937 4987.9 4945 4982" clip-path="url(#a)" fill="none" stroke="#000" stroke-linecap="round"/>
<polyline points="4945 4982 4948.1 4991.5 4956.2 4985.6 4953.1 4976.1 4945 4982 4955 4982 4958.1 4972.5 4961.2 4963 4964.3 4953.5 4972.4 4959.4 4969.3 4949.8 4961.2 4955.7 4971.2 4955.7 4979.3 4961.6 4976.2 4952.1 4973.1 4961.6 4981.2 4967.5 4984.3 4958 4992.4 4963.8 4995.5 4973.4 5003.6 4979.2 5000.5 4988.7 5008.6 4994.6 5018.6 4994.6 5008.6 4994.6 5016.7 4988.7 5019.8 4979.2 5009.8 4979.2 5012.9 4988.7 5004.8 4994.6 5007.9 5004.1 4999.8 5010 4989.8 5010 4981.7 5004.1 4991.7 5004.1 4994.8 4994.6 5004.8 4994.6 5007.9 4985.1 5004.8 4994.6 5012.9 5000.5 5004.8 5006.4 4996.7 5000.5 4999.8 4991" clip-path="url(#a)" fill="none" stroke="#000" stroke-linecap="round"/>
<polyline points="4999.8 4991 4996.7 4981.5 4993.6 4972 4990.5 4981.5 4987.4 4991 4977.4 4991 4969.3 4985.1 4961.2 4991 4958.1 5000.5 4950 5006.4 4958.1 5012.3 4961.2 5002.7 4964.3 4993.2 4974.3 4993.2 4964.3 4993.2 4974.3 4993.2 4984.3 4993.2 4992.4 4987.4 5000.5 4993.2 4992.4 4987.4 4995.5 4977.8 5003.6 4983.7 5006.7 4974.2 5009.8 4983.7 5012.9 4993.2 5009.8 4983.7 5012.9 4974.2 5004.8 4980.1 5001.7 4970.6 5004.8 4961.1 5001.7 4970.6 5004.8 4961.1 4994.8 4961.1 4986.7 4955.2 4978.6 4949.3 4975.5 4958.8 4985.5 4958.8 4977.4 4952.9 4985.5 4958.8 4977.4 4964.7 4980.5 4974.2 4983.6 4964.7 4991.7 4958.8" clip-path="url(#a)" fill="none" stroke="#000" stroke-linecap="round"/>
<polyline points="4991.7 4958.8 4999.8 4952.9 5002.9 4962.5 5006 4972 4997.9 4966.1 4994.8 4975.6 4997.9 4985.1 4994.8 4994.6 4986.7 4988.7 4978.6 4982.9 4970.5 4988.7 4973.6 4979.2 4976.7 4969.7 4968.6 4963.8 4960.5 4969.7 4968.6 4975.6 4976.7 4981.5 4973.6 4972 4981.7 4966.1 4973.6 4960.2 4965.5 4966.1 4962.4 4956.6 4954.3 4950.7 4951.2 4960.2 4943.1 4954.3 4951.2 4960.2 4948.1 4950.7 4956.2 4956.6 4953.1 4947.1 4961.2 4952.9 4958.1 4962.5 4966.2 4956.6 4974.3 4950.7 4977.4 4941.2 4969.3 4947.1 4961.2 4941.2 4971.2 4941.2 4979.3 4947.1 4976.2 4956.6 4966.2 4956.6 4963.1 4947.1 4960 4956.6 4952 4950.7" clip-path="url(#a)" fill="none" stroke="#000" stroke-linecap="round"/>
<polyline points="4952 4950.7 4960 4956.6 4957 4966.1 4967 4966.1 4958.9 4972 4968.9 4972 4965.8 4962.5 4957.7 4956.6 4949.6 4962.5 4952.7 4972 4944.6 4966.1 4952.7 4960.2 4949.6 4969.7 4952.7 4960.2 4960.8 4966.1 4963.9 4975.6 4960.8 4985.1 4968.9 4991 4960.8 4985.1 4970.8 4985.1 4960.8 4985.1 4950.8 4985.1 4960.8 4985.1 4950.8 4985.1 4953.9 4975.6 4957 4985.1 4967 4985.1 4977 4985.1 4980 4994.6 4988.1 5000.5 4980 5006.4 4972 5000.5 4975 5010 4983.1 5004.1 4991.2 5010 4981.2 5010 4989.3 5004.1 4992.4 4994.6 5000.5 5000.5 5010.5 5000.5 5020.5 5000.5 5030.5 5000.5 5027.4 4991" clip-path="url(#a)" fill="none" stroke="#000" stroke-linecap="round"/>
<polyline points="5027.4 4991 5037.4 4991 5045.5 4985.1 5048.6 4994.6 5051.7 4985.1 5059.8 4991 5067.9 4985.1 5071 4975.6 5067.9 4966.1 5076 4960.2 5086 4960.2 5076 4960.2 5067.9 4954.3 5057.9 4954.3 5047.9 4954.3 5051 4944.8 5061 4944.8 5071 4944.8 5062.9 4950.7 5066 4941.2 5074 4935.3 5077.1 4925.8 5069 4931.7 5079 4931.7 5087.1 4937.6 5084 4947.1 5087.1 4956.6 5090.2 4947.1 5087.1 4937.6 5077.1 4937.6 5085.2 4931.7 5077.1 4925.8 5074 4916.3 5071 4925.8 5067.9 4935.3 5071 4925.8 5062.9 4919.9 5054.8 4914 5057.9 4923.6 5061 4914 5064 4923.6 5067.1 4933.1 5064 4942.6" clip-path="url(#a)" fill="none" stroke="#000" stroke-linecap="round"/>
<polyline points="5064 4942.6 5061 4933.1 5069 4938.9 5061 4933.1 5064 4942.6 5074 4942.6 5071 4952.1 5074 4942.6 5077.1 4933.1 5085.2 4927.2 5082.1 4917.7 5085.2 4908.2 5075.2 4908.2 5083.3 4902.3 5091.4 4908.2 5099.5 4914 5107.6 4908.2 5117.6 4908.2 5114.5 4917.7 5124.5 4917.7 5132.6 4923.6 5124.5 4929.4 5121.4 4919.9 5129.5 4925.8 5132.6 4935.3 5129.5 4925.8 5121.4 4919.9 5131.4 4919.9 5128.3 4929.4 5136.4 4935.3 5133.3 4944.8 5130.2 4935.3 5120.2 4935.3 5128.3 4941.2 5120.2 4935.3 5117.1 4944.8 5120.2 4935.3 5110.2 4935.3 5102.1 4941.2 5110.2 4935.3 5120.2 4935.3 5123.3 4944.8 5120.2 4935.3" clip-path="url(#a)" fill="none" stroke="#000" stroke-linecap="round"/>
<polyline points="5120.2 4935.3 5112.1 4929.4 5109 4938.9 5106 4948.5 5109 4958 5117.1 4963.8 5127.1 4963.8 5117.1 4963.8 5114 4973.4 5122.1 4967.5 5125.2 4958 5128.3 4967.5 5136.4 4961.6 5128.3 4967.5 5131.4 4958 5141.4 4958 5138.3 4967.5 5130.2 4961.6 5127.1 4971.1 5135.2 4977 5138.3 4967.5 5130.2 4973.4 5133.3 4982.9 5136.4 4992.4 5139.5 5001.9 5129.5 5001.9 5137.6 5007.8 5140.7 4998.3 5132.6 5004.1 5122.6 5004.1 5130.7 5010 5127.6 5000.5 5117.6 5000.5 5120.7 5010 5110.7 5010 5102.6 5004.1 5092.6 5004.1 5089.5 4994.6 5079.5 4994.6 5071.4 5000.5 5079.5 4994.6 5076.4 5004.1 5079.5 5013.6" clip-path="url(#a)" fill="none" stroke="#000" stroke-linecap="round"/>
<polyline points="5079.5 5013.6 5087.6 5007.8 5079.5 5001.9 5082.6 4992.4 5074.5 4986.5 5077.6 4977 5085.7 4971.1 5095.7 4971.1 5087.6 4977 5090.7 4986.5 5082.6 4992.4 5085.7 5001.9 5082.6 4992.4 5072.6 4992.4 5075.7 4982.9 5085.7 4982.9 5088.8 4992.4 5096.9 4998.3 5104.9 5004.1 5101.9 4994.6 5098.8 4985.1 5106.9 4979.2 5116.9 4979.2 5119.9 4969.7 5116.9 4960.2 5119.9 4950.7 5109.9 4950.7 5113 4960.2 5116.1 4969.7 5108 4975.6 5116.1 4969.7 5108 4975.6 5099.9 4981.5 5096.9 4991 5086.9 4991 5096.9 4991 5099.9 5000.5 5089.9 5000.5 5093 5010 5084.9 5004.1 5076.9 4998.3 5084.9 5004.1 5088 5013.6" clip-path="url(#a)" fill="none" stroke="#000" stroke-linecap="round"/>
<polyline points="5088 5013.6 5091.1 5004.1 5099.2 5010 5102.3 5019.5 5099.2 5010 5102.3 5019.5 5110.4 5013.6 5120.4 5013.6 5130.4 5013.6 5127.3 5004.1 5119.2 5010 5129.2 5010 5119.2 5010 5122.3 5000.5 5114.2 4994.6 5117.3 5004.1 5114.2 5013.6 5111.1 5023.2 5103 5017.3 5094.9 5011.4 5104.9 5011.4 5101.9 5001.9 5093.8 4996 5090.7 4986.5 5100.7 4986.5 5110.7 4986.5 5113.8 4977 5116.9 4986.5 5119.9 4996 5129.9 4996 5133 4986.5 5123 4986.5 5113 4986.5 5121.1 4992.4 5118 5001.9 5128 5001.9 5131.1 4992.4 5139.2 4998.3 5149.2 4998.3 5146.1 4988.7 5156.1 4988.7 5146.1 4988.7 5154.2 4994.6" clip-path="url(#a)" fill="none" stroke="#000" stroke-linecap="round"/>
<polyline points="5154.2 4994.6 5144.2 4994.6 5152.3 5000.5 5142.3 5000.5 5139.2 4991 5136.1 5000.5 5133 5010 5136.1 5019.5 5139.2 5010 5149.2 5010 5141.1 5015.9 5131.1 5015.9 5128 5006.4 5136.1 5000.5 5144.2 5006.4 5141.1 4996.9 5151.1 4996.9 5141.1 4996.9 5138 4987.4 5129.9 4993.2 5133 4983.7 5124.9 4989.6 5133 4995.5 5143 4995.5 5146.1 4986 5138 4980.1 5148 4980.1 5144.9 4989.6 5141.9 4980.1 5144.9 4989.6 5134.9 4989.6 5126.9 4983.7 5123.8 4974.2 5113.8 4974.2 5123.8 4974.2 5115.7 4980.1 5123.8 4974.2 5131.9 4968.3 5123.8 4974.2 5131.9 4968.3 5134.9 4977.8 5126.9 4972 5118.8 4977.8" clip-path="url(#a)" fill="none" stroke="#000" stroke-linecap="round"/>
<polyline points="5118.8 4977.8 5110.7 4983.7 5102.6 4977.8 5092.6 4977.8 5095.7 4968.3 5105.7 4968.3 5097.6 4962.5 5094.5 4972 5084.5 4972 5092.6 4966.1 5089.5 4975.6 5092.6 4985.1 5082.6 4985.1 5074.5 4991 5066.4 4996.9 5058.3 5002.7 5066.4 5008.6 5058.3 5014.5 5055.2 5024 5047.1 5018.1 5050.2 5027.6 5040.2 5027.6 5037.1 5037.2 5040.2 5046.7 5048.3 5052.5 5045.2 5062.1 5037.1 5067.9 5045.2 5062.1 5055.2 5062.1 5063.3 5056.2 5071.4 5050.3 5074.5 5059.8 5066.4 5065.7 5058.3 5071.6 5061.4 5062.1 5064.5 5071.6 5061.4 5081.1 5064.5 5090.6 5067.6 5081.1 5059.5 5087 5049.5 5087 5046.4 5077.4 5038.3 5071.6" clip-path="url(#a)" fill="none" stroke="#000" stroke-linecap="round"/>
<polyline points="5038.3 5071.6 5041.4 5081.1 5049.5 5087 5057.6 5081.1 5054.5 5090.6 5064.5 5090.6 5072.6 5096.5 5069.5 5087 5066.4 5077.4 5069.5 5087 5079.5 5087 5089.5 5087 5081.4 5081.1 5084.5 5090.6 5076.4 5084.7 5068.3 5078.8 5065.2 5069.3 5073.3 5075.2 5063.3 5075.2 5073.3 5075.2 5065.2 5069.3 5057.1 5075.2 5054 5065.7 5057.1 5075.2 5060.2 5084.7 5057.1 5094.2 5065.2 5100.1 5068.3 5109.6 5076.4 5103.7 5073.3 5113.2 5063.3 5113.2 5053.3 5113.2 5050.2 5122.7 5042.1 5128.6 5039 5119.1 5031 5125 5021 5125 5024 5115.5 5032.1 5121.4 5022.1 5121.4 5014 5115.5 5022.1 5121.4 5032.1 5121.4" clip-path="url(#a)" fill="none" stroke="#000" stroke-linecap="round"/>
<polyline points="5032.1 5121.4 5024 5127.2 5021 5117.7 5011 5117.7 5007.9 5108.2 5016 5114.1 5024 5108.2 5014 5108.2 5024 5108.2 5021 5098.7 5024 5108.2 5032.1 5102.3 5035.2 5092.8 5032.1 5102.3 5024 5108.2 5016 5102.3 5024 5108.2 5034 5108.2 5031 5098.7 5027.9 5089.2 5019.8 5083.3 5009.8 5083.3 5001.7 5089.2 5009.8 5083.3 5006.7 5073.8 5003.6 5083.3 5006.7 5092.8 4998.6 5087 4995.5 5096.5 4998.6 5087 5001.7 5096.5 4993.6 5102.3 4990.5 5092.8 5000.5 5092.8 4997.4 5083.3 4987.4 5083.3 4990.5 5092.8 4993.6 5083.3 4985.5 5077.4 4977.4 5071.6 4969.3 5065.7 4977.4 5059.8 4967.4 5059.8" clip-path="url(#a)" fill="none" stroke="#000" stroke-linecap="round"/>
<polyline points="4967.4 5059.8 4970.5 5069.3 4973.6 5059.8 4981.7 5053.9 4971.7 5053.9 4979.8 5059.8 4987.9 5053.9 4979.8 5048.1 4987.9 5042.2 4997.9 5042.2 5006 5036.3 5014 5042.2 5022.1 5036.3 5025.2 5026.8 5022.1 5036.3 5019 5026.8 5011 5020.9 5007.9 5030.4 5017.9 5030.4 5021 5039.9 5031 5039.9 5034 5049.4 5031 5059 5022.9 5064.8 5026 5055.3 5017.9 5049.4 5021 5039.9 5012.9 5034.1 5021 5039.9 5029 5034.1 5032.1 5043.6 5024 5049.4 5016 5043.6 5006 5043.6 4996 5043.6 5004 5049.4 5012.1 5055.3 5009 5064.8 5001 5070.7 5004 5080.2 5012.1 5086.1 5015.2 5095.6 5023.3 5089.7" clip-path="url(#a)" fill="none" stroke="#000" stroke-linecap="round"/>
<polyline points="5023.3 5089.7 5015.2 5083.8 5007.1 5078 5010.2 5068.5 5007.1 5078 5010.2 5068.5 5013.3 5059 5010.2 5049.4 5018.3 5043.6 5010.2 5049.4 5002.1 5043.6 5010.2 5037.7 5002.1 5031.8 5012.1 5031.8 5022.1 5031.8 5012.1 5031.8 5004 5025.9 5007.1 5035.4 4997.1 5035.4 4989 5029.6 4997.1 5035.4 4989 5029.6 4986 5039.1 4977.9 5045 4969.8 5050.8 4977.9 5056.7 4981 5047.2 4972.9 5053.1 4981 5047.2 4984 5056.7 4994 5056.7 4986 5050.8 4982.9 5041.3 4979.8 5031.8 4989.8 5031.8 4999.8 5031.8 4991.7 5037.7 4999.8 5043.6 5009.8 5043.6 5017.9 5049.4 5009.8 5055.3 5001.7 5061.2 5004.8 5070.7" clip-path="url(#a)" fill="none" stroke="#000" stroke-linecap="round"/>
<polyline points="5004.8 5070.7 4996.7 5064.8 4988.6 5059 4980.5 5064.8 4983.6 5074.3 4991.7 5068.5 4999.8 5062.6 4989.8 5062.6 4986.7 5053.1 4978.6 5059 4981.7 5068.5 4971.7 5068.5 4963.6 5074.3 4971.7 5080.2 4963.6 5086.1 4971.7 5080.2 4961.7 5080.2 4969.8 5074.3 4959.8 5074.3 4967.9 5068.5 4976 5074.3 4972.9 5064.8 4969.8 5055.3 4961.7 5049.4 4964.8 5059 4956.7 5064.8 4959.8 5055.3 4967.9 5049.4 4976 5055.3 4972.9 5064.8 4962.9 5064.8 4971 5070.7 4962.9 5076.6 4971 5070.7 4979 5076.6 4982.1 5067.1 4985.2 5076.6 4988.3 5067.1 4978.3 5067.1 4970.2 5073 4973.3 5082.5 4983.3 5082.5 4975.2 5088.3" clip-path="url(#a)" fill="none" stroke="#000" stroke-linecap="round"/>
<polyline points="4975.2 5088.3 4972.1 5078.8 4980.2 5084.7 4972.1 5078.8 4980.2 5073 4990.2 5073 4998.3 5078.8 5006.4 5073 4998.3 5078.8 5001.4 5069.3 4998.3 5078.8 4995.2 5088.3 4998.3 5078.8 4995.2 5088.3 4987.1 5082.5 4997.1 5082.5 5000.2 5073 5003.3 5063.4 5013.3 5063.4 5021.4 5057.6 5024.5 5067.1 5016.4 5073 5026.4 5073 5023.3 5063.4 5031.4 5057.6 5028.3 5067.1 5025.2 5057.6 5017.1 5051.7 5025.2 5045.8 5028.3 5036.3 5031.4 5026.8 5034.5 5017.3 5024.5 5017.3 5027.6 5007.8 5024.5 4998.3 5034.5 4998.3 5026.4 4992.4 5034.5 4986.5 5031.4 4977 5023.3 4971.1 5013.3 4971.1 5010.2 4961.6 5013.3 4952.1" clip-path="url(#a)" fill="none" stroke="#000" stroke-linecap="round"/>
<polyline points="5013.3 4952.1 5010.2 4961.6 5002.1 4967.5 4999 4977 4996 4986.5 4987.9 4980.6 4991 4971.1 4994 4961.6 4997.1 4971.1 4989 4965.2 4986 4955.7 4977.9 4949.8 4981 4959.4 4984 4949.8 4992.1 4944 5000.2 4949.8 5010.2 4949.8 5002.1 4944 4992.1 4944 4989 4953.5 4986 4944 4977.9 4949.8 4967.9 4949.8 4976 4955.7 4984 4961.6 4976 4955.7 4967.9 4961.6 4959.8 4967.5 4969.8 4967.5 4961.7 4961.6 4971.7 4961.6 4981.7 4961.6 4989.8 4967.5 4979.8 4967.5 4987.9 4961.6 4979.8 4967.5 4989.8 4967.5 4992.9 4958 5001 4963.8 4992.9 4958 4984.8 4952.1 4981.7 4942.6 4971.7 4942.6" clip-path="url(#a)" fill="none" stroke="#000" stroke-linecap="round"/>
<polyline points="4971.7 4942.6 4963.6 4936.7 4960.5 4946.2 4957.4 4936.7 4965.5 4930.8 4973.6 4924.9 4970.5 4915.4 4973.6 4905.9 4981.7 4911.8 4984.8 4902.3 4992.9 4896.4 4996 4905.9 4986 4905.9 4994 4900 5004 4900 4994 4900 4986 4905.9 4989 4896.4 4997.1 4902.3 5005.2 4896.4 5013.3 4902.3 5003.3 4902.3 5000.2 4911.8 5008.3 4905.9 5000.2 4911.8 5008.3 4917.7 5000.2 4911.8 4997.1 4921.3 5000.2 4930.8 4997.1 4921.3 5000.2 4911.8 5010.2 4911.8 5000.2 4911.8 4992.1 4917.7 5000.2 4923.6 5008.3 4929.4 5018.3 4929.4 5026.4 4923.6 5029.5 4914 5026.4 4923.6 5034.5 4929.4 5031.4 4919.9 5023.3 4914" clip-path="url(#a)" fill="none" stroke="#000" stroke-linecap="round"/>
<polyline points="5023.3 4914 5033.3 4914 5030.2 4904.5 5033.3 4914 5025.2 4908.2 5028.3 4898.7 5036.4 4904.5 5028.3 4910.4 5036.4 4916.3 5044.5 4910.4 5036.4 4904.5 5039.5 4914 5049.5 4914 5059.5 4914 5069.5 4914 5066.4 4923.6 5074.5 4917.7 5066.4 4911.8 5069.5 4921.3 5066.4 4930.8 5074.5 4924.9 5064.5 4924.9 5061.4 4934.5 5071.4 4934.5 5068.3 4944 5060.2 4949.8 5057.1 4959.4 5047.1 4959.4 5044 4968.9 5047.1 4978.4 5044 4968.9 5052.1 4974.7 5062.1 4974.7 5059 4965.2 5051 4971.1 5042.9 4965.2 5034.8 4971.1 5026.7 4965.2 5023.6 4955.7 5026.7 4946.2 5029.8 4955.7 5039.8 4955.7 5042.9 4965.2" clip-path="url(#a)" fill="none" stroke="#000" stroke-linecap="round"/>
<polyline points="5042.9 4965.2 5052.9 4965.2 5042.9 4965.2 5039.8 4974.7 5031.7 4968.9 5034.8 4959.4 5044.8 4959.4 5052.9 4953.5 5061 4947.6 5051 4947.6 5041 4947.6 5037.9 4938.1 5041 4928.6 5032.9 4922.7 5022.9 4922.7 5014.8 4916.8 5011.7 4926.3 5021.7 4926.3 5031.7 4926.3 5034.8 4935.8 5031.7 4926.3 5034.8 4935.8 5037.9 4945.4 5046 4951.2 5042.9 4960.7 5046 4951.2 5056 4951.2 5052.9 4960.7 5062.9 4960.7 5054.8 4966.6 5046.7 4972.5 5054.8 4966.6 5064.8 4966.6 5056.7 4960.7 5064.8 4954.9 5074.8 4954.9 5064.8 4954.9 5074.8 4954.9 5071.7 4945.4 5074.8 4935.8 5077.9 4926.3 5067.9 4926.3 5071 4935.8" clip-path="url(#a)" fill="none" stroke="#000" stroke-linecap="round"/>
<polyline points="5071 4935.8 5074 4926.3 5071 4935.8 5062.9 4930 5054.8 4935.8 5064.8 4935.8 5072.9 4941.7 5081 4947.6 5072.9 4953.5 5064.8 4959.4 5067.9 4949.8 5057.9 4949.8 5049.8 4955.7 5039.8 4955.7 5042.9 4946.2 5046 4936.7 5037.9 4930.8 5047.9 4930.8 5057.9 4930.8 5061 4921.3 5052.9 4915.4 5049.8 4924.9 5046.7 4934.5 5054.8 4928.6 5062.9 4934.5 5066 4924.9 5057.9 4919.1 5066 4913.2 5069 4903.7 5059 4903.7 5062.1 4894.2 5059 4903.7 5067.1 4897.8 5064 4907.3 5072.1 4901.4 5069 4910.9 5059 4910.9 5067.1 4916.8 5075.2 4922.7 5085.2 4922.7 5077.1 4916.8 5080.2 4907.3 5083.3 4916.8" clip-path="url(#a)" fill="none" stroke="#000" stroke-linecap="round"/>
<polyline points="5083.3 4916.8 5080.2 4926.3 5070.2 4926.3 5067.1 4916.8 5075.2 4910.9 5065.2 4910.9 5068.3 4901.4 5065.2 4910.9 5055.2 4910.9 5058.3 4920.5 5050.2 4914.6 5053.3 4924.1 5061.4 4918.2 5064.5 4908.7 5056.4 4902.8 5048.3 4908.7 5051.4 4899.2 5059.5 4905.1 5049.5 4905.1 5059.5 4905.1 5056.4 4914.6 5048.3 4920.5 5038.3 4920.5 5035.2 4930 5038.3 4920.5 5041.4 4930 5038.3 4920.5 5035.2 4910.9 5038.3 4920.5 5035.2 4910.9 5045.2 4910.9 5037.1 4916.8 5040.2 4926.3 5043.3 4935.8 5035.2 4941.7 5032.1 4951.2 5024 4945.4 5027.1 4935.8 5019 4941.7 5027.1 4947.6 5024 4957.1 5021 4947.6 5029 4953.5" clip-path="url(#a)" fill="none" stroke="#000" stroke-linecap="round"/>
<polyline points="5029 4953.5 5039 4953.5 5036 4963 5039 4972.5 5042.1 4982 5045.2 4991.5 5053.3 4985.6 5056.4 4995.2 5064.5 5001 5056.4 5006.9 5066.4 5006.9 5063.3 5016.4 5071.4 5022.3 5081.4 5022.3 5089.5 5016.4 5097.6 5022.3 5100.7 5031.8 5097.6 5022.3 5100.7 5012.8 5097.6 5003.3 5094.5 4993.8 5104.5 4993.8 5107.6 5003.3 5110.7 5012.8 5102.6 5006.9 5112.6 5006.9 5120.7 5012.8 5130.7 5012.8 5122.6 5006.9 5125.7 5016.4 5122.6 5025.9 5112.6 5025.9 5104.5 5031.8 5114.5 5031.8 5122.6 5025.9 5119.5 5016.4 5127.6 5022.3 5130.7 5012.8 5138.8 5006.9 5128.8 5006.9 5118.8 5006.9 5128.8 5006.9 5131.9 4997.4" clip-path="url(#a)" fill="none" stroke="#000" stroke-linecap="round"/>
<polyline points="5131.9 4997.4 5134.9 4987.9 5126.9 4993.8 5136.9 4993.8 5128.8 4999.6 5120.7 5005.5 5110.7 5005.5 5118.8 4999.6 5115.7 5009.2 5118.8 4999.6 5110.7 5005.5 5113.8 5015 5103.8 5015 5113.8 5015 5123.8 5015 5131.9 5020.9 5139.9 5015 5149.9 5015 5146.9 5005.5 5154.9 5011.4 5151.9 5020.9 5148.8 5030.4 5156.9 5036.3 5159.9 5045.8 5149.9 5045.8 5153 5055.3 5149.9 5064.8 5141.9 5059 5149.9 5053.1 5146.9 5062.6 5138.8 5068.5 5146.9 5062.6 5149.9 5053.1 5153 5062.6 5143 5062.6 5139.9 5072.1 5129.9 5072.1 5138 5066.2 5134.9 5056.7 5131.9 5066.2 5134.9 5056.7 5124.9 5056.7 5134.9 5056.7" clip-path="url(#a)" fill="none" stroke="#000" stroke-linecap="round"/>
<polyline points="5134.9 5056.7 5131.9 5047.2 5123.8 5041.3 5131.9 5047.2 5134.9 5056.7 5126.9 5062.6 5134.9 5056.7 5138 5047.2 5128 5047.2 5118 5047.2 5109.9 5053.1 5106.9 5062.6 5109.9 5072.1 5106.9 5062.6 5096.9 5062.6 5104.9 5068.5 5114.9 5068.5 5106.9 5074.3 5114.9 5080.2 5106.9 5074.3 5116.9 5074.3 5119.9 5083.8 5109.9 5083.8 5113 5074.3 5103 5074.3 5099.9 5083.8 5109.9 5083.8 5101.9 5078 5093.8 5083.8 5085.7 5089.7 5077.6 5095.6 5074.5 5086.1 5071.4 5095.6 5081.4 5095.6 5073.3 5089.7 5070.2 5080.2 5067.1 5089.7 5075.2 5083.8 5072.1 5074.3 5064 5080.2 5061 5070.7 5064 5061.2 5061 5051.7" clip-path="url(#a)" fill="none" stroke="#000" stroke-linecap="round"/>
<polyline points="5061 5051.7 5069 5045.8 5066 5036.3 5057.9 5030.4 5066 5036.3 5056 5036.3 5047.9 5042.2 5056 5048.1 5059 5038.5 5069 5038.5 5072.1 5029 5082.1 5029 5090.2 5034.9 5093.3 5044.4 5085.2 5038.5 5077.1 5044.4 5069 5038.5 5061 5044.4 5069 5038.5 5066 5029 5076 5029 5079 5038.5 5071 5044.4 5067.9 5053.9 5064.8 5063.4 5072.9 5057.6 5081 5051.7 5089 5057.6 5092.1 5067.1 5102.1 5067.1 5110.2 5061.2 5120.2 5061.2 5117.1 5051.7 5109 5057.6 5101 5063.4 5092.9 5057.6 5101 5063.4 5092.9 5057.6 5084.8 5051.7 5074.8 5051.7 5071.7 5042.2 5074.8 5051.7 5066.7 5057.6" clip-path="url(#a)" fill="none" stroke="#000" stroke-linecap="round"/>
<polyline points="5066.7 5057.6 5063.6 5048.1 5055.5 5053.9 5058.6 5044.4 5061.7 5034.9 5058.6 5044.4 5050.5 5050.3 5060.5 5050.3 5057.4 5059.8 5049.3 5065.7 5057.4 5059.8 5049.3 5065.7 5057.4 5071.6 5060.5 5081.1 5063.6 5090.6 5071.7 5084.7 5063.6 5078.8 5066.7 5088.3 5063.6 5078.8 5073.6 5078.8 5076.7 5069.3 5068.6 5075.2 5058.6 5075.2 5048.6 5075.2 5051.7 5065.7 5054.8 5056.2 5057.9 5065.7 5066 5059.8 5069 5050.3 5077.1 5044.4 5080.2 5053.9 5083.3 5063.4 5093.3 5063.4 5085.2 5069.3 5077.1 5075.2 5080.2 5084.7 5090.2 5084.7 5087.1 5075.2 5084 5065.7 5081 5075.2 5071 5075.2 5074 5084.7 5084 5084.7" clip-path="url(#a)" fill="none" stroke="#000" stroke-linecap="round"/>
<polyline points="5084 5084.7 5081 5094.2 5084 5103.7 5092.1 5097.9 5095.2 5107.4 5092.1 5097.9 5089 5107.4 5086 5097.9 5082.9 5107.4 5079.8 5097.9 5087.9 5092 5077.9 5092 5067.9 5092 5059.8 5097.9 5069.8 5097.9 5072.9 5107.4 5064.8 5101.5 5061.7 5092 5069.8 5086.1 5077.9 5092 5074.8 5101.5 5082.9 5095.6 5086 5105.1 5082.9 5095.6 5091 5089.7 5082.9 5083.8 5092.9 5083.8 5084.8 5078 5081.7 5087.5 5084.8 5097 5094.8 5097 5097.9 5087.5 5101 5097 5091 5097 5099 5091.1 5091 5097 5087.9 5087.5 5091 5078 5099 5072.1 5096 5062.6 5099 5072.1 5091 5066.2 5099 5072.1" clip-path="url(#a)" fill="none" stroke="#000" stroke-linecap="round"/>
<polyline points="5099 5072.1 5107.1 5078 5099 5072.1 5107.1 5078 5099 5083.8 5102.1 5074.3 5094 5068.5 5086 5062.6 5089 5053.1 5086 5043.6 5096 5043.6 5099 5053.1 5102.1 5043.6 5092.1 5043.6 5089 5034.1 5097.1 5039.9 5087.1 5039.9 5079 5045.8 5076 5036.3 5067.9 5030.4 5059.8 5024.5 5051.7 5018.7 5048.6 5028.2 5040.5 5022.3 5030.5 5022.3 5033.6 5012.8 5025.5 5018.7 5022.4 5009.2 5012.4 5009.2 5004.3 5015 5001.2 5024.5 4991.2 5024.5 4983.1 5018.7 4991.2 5024.5 4994.3 5034.1 5002.4 5039.9 5010.5 5045.8 5002.4 5051.7 4994.3 5045.8 4986.2 5039.9 4996.2 5039.9 4988.1 5045.8 4978.1 5045.8" clip-path="url(#a)" fill="none" stroke="#000" stroke-linecap="round"/>
<polyline points="4978.1 5045.8 4970 5051.7 4980 5051.7 4972 5045.8 4968.9 5036.3 4977 5030.4 4980 5020.9 4972 5026.8 4968.9 5036.3 4977 5042.2 4967 5042.2 4970 5051.7 4967 5061.2 4975 5055.3 4983.1 5049.4 4975 5055.3 4978.1 5064.8 4981.2 5074.3 4984.3 5064.8 4976.2 5070.7 4979.3 5061.2 4982.4 5051.7 4990.5 5045.8 4987.4 5055.3 4984.3 5045.8 4987.4 5055.3 4990.5 5045.8 4982.4 5039.9 4990.5 5034.1 4982.4 5039.9 4974.3 5045.8 4964.3 5045.8 4961.2 5055.3 4953.1 5061.2 4961.2 5067.1 4951.2 5067.1 4948.1 5057.6 4945 5048.1 4935 5048.1 4927 5042.2 4935 5036.3 4927 5030.4 4923.9 5020.9" clip-path="url(#a)" fill="none" stroke="#000" stroke-linecap="round"/>
<polyline points="4923.9 5020.9 4933.9 5020.9 4930.8 5030.4 4927.7 5020.9 4930.8 5011.4 4927.7 5020.9 4930.8 5030.4 4922.7 5024.5 4930.8 5018.7 4927.7 5009.2 4935.8 5003.3 4932.7 5012.8 4940.8 5018.7 4937.7 5009.2 4940.8 5018.7 4948.9 5012.8 4940.8 5018.7 4948.9 5024.5 4958.9 5024.5 4948.9 5024.5 4940.8 5018.7 4943.9 5009.2 4940.8 5018.7 4943.9 5028.2 4952 5022.3 4960 5016.4 4963.1 5006.9 4960 4997.4 4952 4991.5 4960 4997.4 4968.1 4991.5 4958.1 4991.5 4950 4997.4 4953.1 4987.9 4943.1 4987.9 4953.1 4987.9 4945 4993.8 4937 4987.9 4945 4982 4948.1 4991.5 4956.2 4985.6 4953.1 4976.1 4945 4982" clip-path="url(#a)" fill="none" stroke="#000" stroke-linecap="round"/>
<polyline points="4945 4982 4955 4982 4958.1 4972.5 4961.2 4963 4964.3 4953.5 4972.4 4959.4 4969.3 4949.8 4961.2 4955.7 4971.2 4955.7 4979.3 4961.6 4976.2 4952.1 4973.1 4961.6 4981.2 4967.5 4984.3 4958 4992.4 4963.8 4995.5 4973.4 5003.6 4979.2 5000.5 4988.7 5008.6 4994.6 5018.6 4994.6 5008.6 4994.6 5016.7 4988.7 5019.8 4979.2 5009.8 4979.2 5012.9 4988.7 5004.8 4994.6 5007.9 5004.1 4999.8 5010 4989.8 5010 4981.7 5004.1 4991.7 5004.1 4994.8 4994.6 5004.8 4994.6 5007.9 4985.1 5004.8 4994.6 5012.9 5000.5 5004.8 5006.4 4996.7 5000.5 4999.8 4991 4996.7 4981.5 4993.6 4972 4990.5 4981.5 4987.4 4991" clip-path="url(#a)" fill="none" stroke="#000" stroke-linecap="round"/>
<polyline points="4987.4 4991 4977.4 4991 4969.3 4985.1 4961.2 4991 4958.1 5000.5 4950 5006.4 4958.1 5012.3 4961.2 5002.7 4964.3 4993.2 4974.3 4993.2 4964.3 4993.2 4974.3 4993.2 4984.3 4993.2 4992.4 4987.4 5000.5 4993.2 4992.4 4987.4 4995.5 4977.8 5003.6 4983.7 5006.7 4974.2 5009.8 4983.7 5012.9 4993.2 5009.8 4983.7 5012.9 4974.2 5004.8 4980.1 5001.7 4970.6 5004.8 4961.1 5001.7 4970.6 5004.8 4961.1 4994.8 4961.1 4986.7 4955.2 4978.6 4949.3 4975.5 4958.8 4985.5 4958.8 4977.4 4952.9 4985.5 4958.8 4977.4 4964.7 4980.5 4974.2 4983.6 4964.7 4991.7 4958.8 4999.8 4952.9 5002.9 4962.5 5006 4972 4997.9 4966.1" clip-path="url(#a)" fill="none" stroke="#000" stroke-linecap="round"/>
<polyline points="4997.9 4966.1 4994.8 4975.6 4997.9 4985.1 4994.8 4994.6 4986.7 4988.7 4978.6 4982.9 4970.5 4988.7 4973.6 4979.2 4976.7 4969.7 4968.6 4963.8 4960.5 4969.7 4968.6 4975.6 4976.7 4981.5 4973.6 4972 4981.7 4966.1 4973.6 4960.2 4965.5 4966.1 4962.4 4956.6 4954.3 4950.7 4951.2 4960.2 4943.1 4954.3 4951.2 4960.2 4948.1 4950.7 4956.2 4956.6 4953.1 4947.1 4961.2 4952.9 4958.1 4962.5 4966.2 4956.6 4974.3 4950.7 4977.4 4941.2 4969.3 4947.1 4961.2 4941.2 4971.2 4941.2 4979.3 4947.1 4976.2 4956.6 4966.2 4956.6 4963.1 4947.1 4960 4956.6 4952 4950.7 4960 4956.6 4957 4966.1 4967 4966.1 4958.9 4972" clip-path="url(#a)" fill="none" stroke="#000" stroke-linecap="round"/>
<polyline points="4958.9 4972 4968.9 4972 4965.8 4962.5 4957.7 4956.6 4949.6 4962.5 4952.7 4972 4944.6 4966.1 4952.7 4960.2 4949.6 4969.7 4952.7 4960.2 4960.8 4966.1 4963.9 4975.6 4960.8 4985.1 4968.9 4991 4960.8 4985.1 4970.8 4985.1 4960.8 4985.1 4950.8 4985.1 4960.8 4985.1 4950.8 4985.1 4953.9 4975.6 4957 4985.1 4967 4985.1 4977 4985.1 4980 4994.6 4988.1 5000.5 4980 5006.4 4972 5000.5 4975 5010 4983.1 5004.1 4991.2 5010 4981.2 5010 4989.3 5004.1 4992.4 4994.6 5000.5 5000.5 5010.5 5000.5 5020.5 5000.5 5030.5 5000.5 5027.4 4991 5037.4 4991 5045.5 4985.1 5048.6 4994.6 5051.7 4985.1" clip-path="url(#a)" fill="none" stroke="#000" stroke-linecap="round"/>
<polyline points="5051.7 4985.1 5059.8 4991 5067.9 4985.1 5071 4975.6 5067.9 4966.1 5076 4960.2 5086 4960.2 5076 4960.2 5067.9 4954.3 5057.9 4954.3 5047.9 4954.3 5051 4944.8 5061 4944.8 5071 4944.8 5062.9 4950.7 5066 4941.2 5074 4935.3 5077.1 4925.8 5069 4931.7 5079 4931.7 5087.1 4937.6 5084 4947.1 5087.1 4956.6 5090.2 4947.1 5087.1 4937.6 5077.1 4937.6 5085.2 4931.7 5077.1 4925.8 5074 4916.3 5071 4925.8 5067.9 4935.3 5071 4925.8 5062.9 4919.9 5054.8 4914 5057.9 4923.6 5061 4914 5064 4923.6 5067.1 4933.1 5064 4942.6 5061 4933.1 5069 4938.9 5061 4933.1 5064 4942.6" clip-path="url(#a)" fill="none" stroke="#000" stroke-linecap="round"/>
<polyline points="5064 4942.6 5074 4942.6 5071 4952.1 5074 4942.6 5077.1 4933.1 5085.2 4927.2 5082.1 4917.7 5085.2 4908.2 5075.2 4908.2 5083.3 4902.3 5091.4 4908.2 5099.5 4914 5107.6 4908.2 5117.6 4908.2 5114.5 4917.7 5124.5 4917.7 5132.6 4923.6 5124.5 4929.4 5121.4 4919.9 5129.5 4925.8 5132.6 4935.3 5129.5 4925.8 5121.4 4919.9 5131.4 4919.9 5128.3 4929.4 5136.4 4935.3 5133.3 4944.8 5130.2 4935.3 5120.2 4935.3 5128.3 4941.2 5120.2 4935.3 5117.1 4944.8 5120.2 4935.3 5110.2 4935.3 5102.1 4941.2 5110.2 4935.3 5120.2 4935.3 5123.3 4944.8 5120.2 4935.3 5112.1 4929.4 5109 4938.9 5106 4948.5 5109 4958" clip-path="url(#a)" fill="none" stroke="#000" stroke-linecap="round"/>
<polyline points="5109 4958 5117.1 4963.8 5127.1 4963.8 5117.1 4963.8 5114 4973.4 5122.1 4967.5 5125.2 4958 5128.3 4967.5 5136.4 4961.6 5128.3 4967.5 5131.4 4958 5141.4 4958 5138.3 4967.5 5130.2 4961.6 5127.1 4971.1 5135.2 4977 5138.3 4967.5 5130.2 4973.4 5133.3 4982.9 5136.4 4992.4 5139.5 5001.9 5129.5 5001.9 5137.6 5007.8 5140.7 4998.3 5132.6 5004.1 5122.6 5004.1 5130.7 5010 5127.6 5000.5 5117.6 5000.5 5120.7 5010 5110.7 5010 5102.6 5004.1 5092.6 5004.1 5089.5 4994.6 5079.5 4994.6 5071.4 5000.5 5079.5 4994.6 5076.4 5004.1 5079.5 5013.6 5087.6 5007.8 5079.5 5001.9 5082.6 4992.4 5074.5 4986.5" clip-path="url(#a)" fill="none" stroke="#000" stroke-linecap="round"/>
<polyline points="5074.5 4986.5 5077.6 4977 5085.7 4971.1 5095.7 4971.1 5087.6 4977 5090.7 4986.5 5082.6 4992.4 5085.7 5001.9 5082.6 4992.4 5072.6 4992.4 5075.7 4982.9 5085.7 4982.9 5088.8 4992.4 5096.9 4998.3 5104.9 5004.1 5101.9 4994.6 5098.8 4985.1 5106.9 4979.2 5116.9 4979.2 5119.9 4969.7 5116.9 4960.2 5119.9 4950.7 5109.9 4950.7 5113 4960.2 5116.1 4969.7 5108 4975.6 5116.1 4969.7 5108 4975.6 5099.9 4981.5 5096.9 4991 5086.9 4991 5096.9 4991 5099.9 5000.5 5089.9 5000.5 5093 5010 5084.9 5004.1 5076.9 4998.3 5084.9 5004.1 5088 5013.6 5091.1 5004.1 5099.2 5010 5102.3 5019.5 5099.2 5010" clip-path="url(#a)" fill="none" stroke="#000" stroke-linecap="round"/>
<polyline points="5099.2 5010 5102.3 5019.5 5110.4 5013.6 5120.4 5013.6 5130.4 5013.6 5127.3 5004.1 5119.2 5010 5129.2 5010 5119.2 5010 5122.3 5000.5 5114.2 4994.6 5117.3 5004.1 5114.2 5013.6 5111.1 5023.2 5103 5017.3 5094.9 5011.4 5104.9 5011.4 5101.9 5001.9 5093.8 4996 5090.7 4986.5 5100.7 4986.5 5110.7 4986.5 5113.8 4977 5116.9 4986.5 5119.9 4996 5129.9 4996 5133 4986.5 5123 4986.5 5113 4986.5 5121.1 4992.4 5118 5001.9 5128 5001.9 5131.1 4992.4 5139.2 4998.3 5149.2 4998.3 5146.1 4988.7 5156.1 4988.7 5146.1 4988.7 5154.2 4994.6 5144.2 4994.6 5152.3 5000.5 5142.3 5000.5 5139.2 4991" clip-path="url(#a)" fill="none" stroke="#000" stroke-linecap="round"/>
<polyline points="5139.2 4991 5136.1 5000.5 5133 5010 5136.1 5019.5 5139.2 5010 5149.2 5010 5141.1 5015.9 5131.1 5015.9 5128 5006.4 5136.1 5000.5 5144.2 5006.4 5141.1 4996.9 5151.1 4996.9 5141.1 4996.9 5138 4987.4 5129.9 4993.2 5133 4983.7 5124.9 4989.6 5133 4995.5 5143 4995.5 5146.1 4986 5138 4980.1 5148 4980.1 5144.9 4989.6 5141.9 4980.1 5144.9 4989.6 5134.9 4989.6 5126.9 4983.7 5123.8 4974.2 5113.8 4974.2 5123.8 4974.2 5115.7 4980.1 5123.8 4974.2 5131.9 4968.3 5123.8 4974.2 5131.9 4968.3 5134.9 4977.8 5126.9 4972 5118.8 4977.8 5110.7 4983.7 5102.6 4977.8 5092.6 4977.8 5095.7 4968.3" clip-path="url(#a)" fill="none" stroke="#000" stroke-linecap="round"/>
<polyline points="5095.7 4968.3 5105.7 4968.3 5097.6 4962.5 5094.5 4972 5084.5 4972 5092.6 4966.1 5089.5 4975.6 5092.6 4985.1 5082.6 4985.1 5074.5 4991 5066.4 4996.9 5058.3 5002.7 5066.4 5008.6 5058.3 5014.5 5055.2 5024 5047.1 5018.1 5050.2 5027.6 5040.2 5027.6 5037.1 5037.2 5040.2 5046.7 5048.3 5052.5 5045.2 5062.1 5037.1 5067.9 5045.2 5062.1 5055.2 5062.1 5063.3 5056.2 5071.4 5050.3 5074.5 5059.8 5066.4 5065.7 5058.3 5071.6 5061.4 5062.1 5064.5 5071.6 5061.4 5081.1 5064.5 5090.6 5067.6 5081.1 5059.5 5087 5049.5 5087 5046.4 5077.4 5038.3 5071.6 5041.4 5081.1 5049.5 5087 5057.6 5081.1 5054.5 5090.6" clip-path="url(#a)" fill="none" stroke="#000" stroke-linecap="round"/>
<polyline points="5054.5 5090.6 5064.5 5090.6 5072.6 5096.5 5069.5 5087 5066.4 5077.4 5069.5 5087 5079.5 5087 5089.5 5087 5081.4 5081.1 5084.5 5090.6 5076.4 5084.7 5068.3 5078.8 5065.2 5069.3 5073.3 5075.2 5063.3 5075.2 5073.3 5075.2 5065.2 5069.3 5057.1 5075.2 5054 5065.7 5057.1 5075.2 5060.2 5084.7 5057.1 5094.2 5065.2 5100.1 5068.3 5109.6 5076.4 5103.7 5073.3 5113.2 5063.3 5113.2 5053.3 5113.2 5050.2 5122.7 5042.1 5128.6 5039 5119.1 5031 5125 5021 5125 5024 5115.5 5032.1 5121.4 5022.1 5121.4 5014 5115.5 5022.1 5121.4 5032.1 5121.4 5024 5127.2 5021 5117.7 5011 5117.7 5007.9 5108.2" clip-path="url(#a)" fill="none" stroke="#000" stroke-linecap="round"/>
<polyline points="5007.9 5108.2 5016 5114.1 5024 5108.2 5014 5108.2 5024 5108.2 5021 5098.7 5024 5108.2 5032.1 5102.3 5035.2 5092.8 5032.1 5102.3 5024 5108.2 5016 5102.3 5024 5108.2 5034 5108.2 5031 5098.7 5027.9 5089.2 5019.8 5083.3 5009.8 5083.3 5001.7 5089.2 5009.8 5083.3 5006.7 5073.8 5003.6 5083.3 5006.7 5092.8 4998.6 5087 4995.5 5096.5 4998.6 5087 5001.7 5096.5 4993.6 5102.3 4990.5 5092.8 5000.5 5092.8 4997.4 5083.3 4987.4 5083.3 4990.5 5092.8 4993.6 5083.3 4985.5 5077.4 4977.4 5071.6 4969.3 5065.7 4977.4 5059.8 4967.4 5059.8 4970.5 5069.3 4973.6 5059.8 4981.7 5053.9 4971.7 5053.9" clip-path="url(#a)" fill="none" stroke="#000" stroke-linecap="round"/>
<polyline points="4971.7 5053.9 4979.8 5059.8 4987.9 5053.9 4979.8 5048.1 4987.9 5042.2 4997.9 5042.2 5006 5036.3 5014 5042.2 5022.1 5036.3 5025.2 5026.8 5022.1 5036.3 5019 5026.8 5011 5020.9 5007.9 5030.4 5017.9 5030.4 5021 5039.9 5031 5039.9 5034 5049.4 5031 5059 5022.9 5064.8 5026 5055.3 5017.9 5049.4 5021 5039.9 5012.9 5034.1 5021 5039.9 5029 5034.1 5032.1 5043.6 5024 5049.4 5016 5043.6 5006 5043.6 4996 5043.6 5004 5049.4 5012.1 5055.3 5009 5064.8 5001 5070.7 5004 5080.2 5012.1 5086.1 5015.2 5095.6 5023.3 5089.7 5015.2 5083.8 5007.1 5078 5010.2 5068.5 5007.1 5078" clip-path="url(#a)" fill="none" stroke="#000" stroke-linecap="round"/>
<polyline points="5007.1 5078 5010.2 5068.5 5013.3 5059 5010.2 5049.4 5018.3 5043.6 5010.2 5049.4 5002.1 5043.6 5010.2 5037.7 5002.1 5031.8 5012.1 5031.8 5022.1 5031.8 5012.1 5031.8 5004 5025.9 5007.1 5035.4 4997.1 5035.4 4989 5029.6 4997.1 5035.4 4989 5029.6 4986 5039.1 4977.9 5045 4969.8 5050.8 4977.9 5056.7 4981 5047.2 4972.9 5053.1 4981 5047.2 4984 5056.7 4994 5056.7 4986 5050.8 4982.9 5041.3 4979.8 5031.8 4989.8 5031.8 4999.8 5031.8 4991.7 5037.7 4999.8 5043.6 5009.8 5043.6 5017.9 5049.4 5009.8 5055.3 5001.7 5061.2 5004.8 5070.7 4996.7 5064.8 4988.6 5059 4980.5 5064.8 4983.6 5074.3" clip-path="url(#a)" fill="none" stroke="#000" stroke-linecap="round"/>
<polyline points="4983.6 5074.3 4991.7 5068.5 4999.8 5062.6 4989.8 5062.6 4986.7 5053.1 4978.6 5059 4981.7 5068.5 4971.7 5068.5 4963.6 5074.3 4971.7 5080.2 4963.6 5086.1 4971.7 5080.2 4961.7 5080.2 4969.8 5074.3 4959.8 5074.3 4967.9 5068.5 4976 5074.3 4972.9 5064.8 4969.8 5055.3 4961.7 5049.4 4964.8 5059 4956.7 5064.8 4959.8 5055.3 4967.9 5049.4 4976 5055.3 4972.9 5064.8 4962.9 5064.8 4971 5070.7 4962.9 5076.6 4971 5070.7 4979 5076.6 4982.1 5067.1 4985.2 5076.6 4988.3 5067.1 4978.3 5067.1 4970.2 5073 4973.3 5082.5 4983.3 5082.5 4975.2 5088.3 4972.1 5078.8 4980.2 5084.7 4972.1 5078.8 4980.2 5073" clip-path="url(#a)" fill="none" stroke="#000" stroke-linecap="round"/>
<polyline points="4980.2 5073 4990.2 5073 4998.3 5078.8 5006.4 5073 4998.3 5078.8 5001.4 5069.3 4998.3 5078.8 4995.2 5088.3 4998.3 5078.8 4995.2 5088.3 4987.1 5082.5 4997.1 5082.5 5000.2 5073 5003.3 5063.4 5013.3 5063.4 5021.4 5057.6 5024.5 5067.1 5016.4 5073 5026.4 5073 5023.3 5063.4 5031.4 5057.6 5028.3 5067.1 5025.2 5057.6 5017.1 5051.7 5025.2 5045.8 5028.3 5036.3 5031.4 5026.8 5034.5 5017.3 5024.5 5017.3 5027.6 5007.8 5024.5 4998.3 5034.5 4998.3 5026.4 4992.4 5034.5 4986.5 5031.4 4977 5023.3 4971.1 5013.3 4971.1 5010.2 4961.6 5013.3 4952.1 5010.2 4961.6 5002.1 4967.5 4999 4977 4996 4986.5" clip-path="url(#a)" fill="none" stroke="#000" stroke-linecap="round"/>
<polyline points="4996 4986.5 4987.9 4980.6 4991 4971.1 4994 4961.6 4997.1 4971.1 4989 4965.2 4986 4955.7 4977.9 4949.8 4981 4959.4 4984 4949.8 4992.1 4944 5000.2 4949.8 5010.2 4949.8 5002.1 4944 4992.1 4944 4989 4953.5 4986 4944 4977.9 4949.8 4967.9 4949.8 4976 4955.7 4984 4961.6 4976 4955.7 4967.9 4961.6 4959.8 4967.5 4969.8 4967.5 4961.7 4961.6 4971.7 4961.6 4981.7 4961.6 4989.8 4967.5 4979.8 4967.5 4987.9 4961.6 4979.8 4967.5 4989.8 4967.5 4992.9 4958 5001 4963.8 4992.9 4958 4984.8 4952.1 4981.7 4942.6 4971.7 4942.6 4963.6 4936.7 4960.5 4946.2 4957.4 4936.7 4965.5 4930.8" clip-path="url(#a)" fill="none" stroke="#000" stroke-linecap="round"/>
<polyline points="4965.5 4930.8 4973.6 4924.9 4970.5 4915.4 4973.6 4905.9 4981.7 4911.8 4984.8 4902.3 4992.9 4896.4 4996 4905.9 4986 4905.9 4994 4900 5004 4900 4994 4900 4986 4905.9 4989 4896.4 4997.1 4902.3 5005.2 4896.4 5013.3 4902.3 5003.3 4902.3 5000.2 4911.8 5008.3 4905.9 5000.2 4911.8 5008.3 4917.7 5000.2 4911.8 4997.1 4921.3 5000.2 4930.8 4997.1 4921.3 5000.2 4911.8 5010.2 4911.8 5000.2 4911.8 4992.1 4917.7 5000.2 4923.6 5008.3 4929.4 5018.3 4929.4 5026.4 4923.6 5029.5 4914 5026.4 4923.6 5034.5 4929.4 5031.4 4919.9 5023.3 4914 5033.3 4914 5030.2 4904.5 5033.3 4914 5025.2 4908.2" clip-path="url(#a)" fill="none" stroke="#000" stroke-linecap="round"/>
<polyline points="5025.2 4908.2 5028.3 4898.7 5036.4 4904.5 5028.3 4910.4 5036.4 4916.3 5044.5 4910.4 5036.4 4904.5 5039.5 4914 5049.5 4914 5059.5 4914 5069.5 4914 5066.4 4923.6 5074.5 4917.7 5066.4 4911.8 5069.5 4921.3 5066.4 4930.8 5074.5 4924.9 5064.5 4924.9 5061.4 4934.5 5071.4 4934.5 5068.3 4944 5060.2 4949.8 5057.1 4959.4 5047.1 4959.4 5044 4968.9 5047.1 4978.4 5044 4968.9 5052.1 4974.7 5062.1 4974.7 5059 4965.2 5051 4971.1 5042.9 4965.2 5034.8 4971.1 5026.7 4965.2 5023.6 4955.7 5026.7 4946.2 5029.8 4955.7 5039.8 4955.7 5042.9 4965.2 5052.9 4965.2 5042.9 4965.2 5039.8 4974.7 5031.7 4968.9" clip-path="url(#a)" fill="none" stroke="#000" stroke-linecap="round"/>
<polyline points="5031.7 4968.9 5034.8 4959.4 5044.8 4959.4 5052.9 4953.5 5061 4947.6 5051 4947.6 5041 4947.6 5037.9 4938.1 5041 4928.6 5032.9 4922.7 5022.9 4922.7 5014.8 4916.8 5011.7 4926.3 5021.7 4926.3 5031.7 4926.3 5034.8 4935.8 5031.7 4926.3 5034.8 4935.8 5037.9 4945.4 5046 4951.2 5042.9 4960.7 5046 4951.2 5056 4951.2 5052.9 4960.7 5062.9 4960.7 5054.8 4966.6 5046.7 4972.5 5054.8 4966.6 5064.8 4966.6 5056.7 4960.7 5064.8 4954.9 5074.8 4954.9 5064.8 4954.9 5074.8 4954.9 5071.7 4945.4 5074.8 4935.8 5077.9 4926.3 5067.9 4926.3 5071 4935.8 5074 4926.3 5071 4935.8 5062.9 4930 5054.8 4935.8" clip-path="url(#a)" fill="none" stroke="#000" stroke-linecap="round"/>
<polyline points="5054.8 4935.8 5064.8 4935.8 5072.9 4941.7 5081 4947.6 5072.9 4953.5 5064.8 4959.4 5067.9 4949.8 5057.9 4949.8 5049.8 4955.7 5039.8 4955.7 5042.9 4946.2 5046 4936.7 5037.9 4930.8 5047.9 4930.8 5057.9 4930.8 5061 4921.3 5052.9 4915.4 5049.8 4924.9 5046.7 4934.5 5054.8 4928.6 5062.9 4934.5 5066 4924.9 5057.9 4919.1 5066 4913.2 5069 4903.7 5059 4903.7 5062.1 4894.2 5059 4903.7 5067.1 4897.8 5064 4907.3 5072.1 4901.4 5069 4910.9 5059 4910.9 5067.1 4916.8 5075.2 4922.7 5085.2 4922.7 5077.1 4916.8 5080.2 4907.3 5083.3 4916.8 5080.2 4926.3 5070.2 4926.3 5067.1 4916.8 5075.2 4910.9" clip-path="url(#a)" fill="none" stroke="#000" stroke-linecap="round"/>
<polyline points="5075.2 4910.9 5065.2 4910.9 5068.3 4901.4 5065.2 4910.9 5055.2 4910.9 5058.3 4920.5 5050.2 4914.6 5053.3 4924.1 5061.4 4918.2 5064.5 4908.7 5056.4 4902.8 5048.3 4908.7 5051.4 4899.2 5059.5 4905.1 5049.5 4905.1 5059.5 4905.1 5056.4 4914.6 5048.3 4920.5 5038.3 4920.5 5035.2 4930 5038.3 4920.5 5041.4 4930 5038.3 4920.5 5035.2 4910.9 5038.3 4920.5 5035.2 4910.9 5045.2 4910.9 5037.1 4916.8 5040.2 4926.3 5043.3 4935.8 5035.2 4941.7 5032.1 4951.2 5024 4945.4 5027.1 4935.8 5019 4941.7 5027.1 4947.6 5024 4957.1 5021 4947.6 5029 4953.5 5039 4953.5 5036 4963 5039 4972.5 5042.1 4982" clip-path="url(#a)" fill="none" stroke="#000" stroke-linecap="round"/>
<polyline points="5042.1 4982 5045.2 4991.5 5053.3 4985.6 5056.4 4995.2 5064.5 5001 5056.4 5006.9 5066.4 5006.9 5063.3 5016.4 5071.4 5022.3 5081.4 5022.3 5089.5 5016.4 5097.6 5022.3 5100.7 5031.8 5097.6 5022.3 5100.7 5012.8 5097.6 5003.3 5094.5 4993.8 5104.5 4993.8 5107.6 5003.3 5110.7 5012.8 5102.6 5006.9 5112.6 5006.9 5120.7 5012.8 5130.7 5012.8 5122.6 5006.9 5125.7 5016.4 5122.6 5025.9 5112.6 5025.9 5104.5 5031.8 5114.5 5031.8 5122.6 5025.9 5119.5 5016.4 5127.6 5022.3 5130.7 5012.8 5138.8 5006.9 5128.8 5006.9 5118.8 5006.9 5128.8 5006.9 5131.9 4997.4 5134.9 4987.9 5126.9 4993.8 5136.9 4993.8 5128.8 4999.6" clip-path="url(#a)" fill="none" stroke="#000" stroke-linecap="round"/>
<polyline points="5128.8 4999.6 5120.7 5005.5 5110.7 5005.5 5118.8 4999.6 5115.7 5009.2 5118.8 4999.6 5110.7 5005.5 5113.8 5015 5103.8 5015 5113.8 5015 5123.8 5015 5131.9 5020.9 5139.9 5015 5149.9 5015 5146.9 5005.5 5154.9 5011.4 5151.9 5020.9 5148.8 5030.4 5156.9 5036.3 5159.9 5045.8 5149.9 5045.8 5153 5055.3 5149.9 5064.8 5141.9 5059 5149.9 5053.1 5146.9 5062.6 5138.8 5068.5 5146.9 5062.6 5149.9 5053.1 5153 5062.6 5143 5062.6 5139.9 5072.1 5129.9 5072.1 5138 5066.2 5134.9 5056.7 5131.9 5066.2 5134.9 5056.7 5124.9 5056.7 5134.9 5056.7 5131.9 5047.2 5123.8 5041.3 5131.9 5047.2 5134.9 5056.7" clip-path="url(#a)" fill="none" stroke="#000" stroke-linecap="round"/>
<polyline points="5134.9 5056.7 5126.9 5062.6 5134.9 5056.7 5138 5047.2 5128 5047.2 5118 5047.2 5109.9 5053.1 5106.9 5062.6 5109.9 5072.1 5106.9 5062.6 5096.9 5062.6 5104.9 5068.5 5114.9 5068.5 5106.9 5074.3 5114.9 5080.2 5106.9 5074.3 5116.9 5074.3 5119.9 5083.8 5109.9 5083.8 5113 5074.3 5103 5074.3 5099.9 5083.8 5109.9 5083.8 5101.9 5078 5093.8 5083.8 5085.7 5089.7 5077.6 5095.6 5074.5 5086.1 5071.4 5095.6 5081.4 5095.6 5073.3 5089.7 5070.2 5080.2 5067.1 5089.7 5075.2 5083.8 5072.1 5074.3 5064 5080.2 5061 5070.7 5064 5061.2 5061 5051.7 5069 5045.8 5066 5036.3 5057.9 5030.4 5066 5036.3" clip-path="url(#a)" fill="none" stroke="#000" stroke-linecap="round"/>
<polyline points="5066 5036.3 5056 5036.3 5047.9 5042.2 5056 5048.1 5059 5038.5 5069 5038.5 5072.1 5029 5082.1 5029 5090.2 5034.9 5093.3 5044.4 5085.2 5038.5 5077.1 5044.4 5069 5038.5 5061 5044.4 5069 5038.5 5066 5029 5076 5029 5079 5038.5 5071 5044.4 5067.9 5053.9 5064.8 5063.4 5072.9 5057.6 5081 5051.7 5089 5057.6 5092.1 5067.1 5102.1 5067.1 5110.2 5061.2 5120.2 5061.2 5117.1 5051.7 5109 5057.6 5101 5063.4 5092.9 5057.6 5101 5063.4 5092.9 5057.6 5084.8 5051.7 5074.8 5051.7 5071.7 5042.2 5074.8 5051.7 5066.7 5057.6 5063.6 5048.1 5055.5 5053.9 5058.6 5044.4 5061.7 5034.9" clip-path="url(#a)" fill="none" stroke="#000" stroke-linecap="round"/>
<polyline points="5061.7 5034.9 5058.6 5044.4 5050.5 5050.3 5060.5 5050.3 5057.4 5059.8 5049.3 5065.7 5057.4 5059.8 5049.3 5065.7 5057.4 5071.6 5060.5 5081.1 5063.6 5090.6 5071.7 5084.7 5063.6 5078.8 5066.7 5088.3 5063.6 5078.8 5073.6 5078.8 5076.7 5069.3 5068.6 5075.2 5058.6 5075.2 5048.6 5075.2 5051.7 5065.7 5054.8 5056.2 5057.9 5065.7 5066 5059.8 5069 5050.3 5077.1 5044.4 5080.2 5053.9 5083.3 5063.4 5093.3 5063.4 5085.2 5069.3 5077.1 5075.2 5080.2 5084.7 5090.2 5084.7 5087.1 5075.2 5084 5065.7 5081 5075.2 5071 5075.2 5074 5084.7 5084 5084.7 5081 5094.2 5084 5103.7 5092.1 5097.9 5095.2 5107.4" clip-path="url(#a)" fill="none" stroke="#000" stroke-linecap="round"/>
<polyline points="5095.2 5107.4 5092.1 5097.9 5089 5107.4 5086 5097.9 5082.9 5107.4 5079.8 5097.9 5087.9 5092 5077.9 5092 5067.9 5092 5059.8 5097.9 5069.8 5097.9 5072.9 5107.4 5064.8 5101.5 5061.7 5092 5069.8 5086.1 5077.9 5092 5074.8 5101.5 5082.9 5095.6 5086 5105.1 5082.9 5095.6 5091 5089.7 5082.9 5083.8 5092.9 5083.8 5084.8 5078 5081.7 5087.5 5084.8 5097 5094.8 5097 5097.9 5087.5 5101 5097 5091 5097 5099 5091.1 5091 5097 5087.9 5087.5 5091 5078 5099 5072.1 5096 5062.6 5099 5072.1 5091 5066.2 5099 5072.1 5107.1 5078 5099 5072.1 5107.1 5078 5099 5083.8" clip-path="url(#a)" fill="none" stroke="#000" stroke-linecap="round"/>
<polyline points="5099 5083.8 5102.1 5074.3 5094 5068.5 5086 5062.6 5089 5053.1 5086 5043.6 5096 5043.6 5099 5053.1 5102.1 5043.6 5092.1 5043.6 5089 5034.1 5097.1 5039.9 5087.1 5039.9 5079 5045.8 5076 5036.3 5067.9 5030.4 5059.8 5024.5 5051.7 5018.7 5048.6 5028.2 5040.5 5022.3 5030.5 5022.3 5033.6 5012.8 5025.5 5018.7 5022.4 5009.2 5012.4 5009.2 5004.3 5015 5001.2 5024.5 4991.2 5024.5 4983.1 5018.7 4991.2 5024.5 4994.3 5034.1 5002.4 5039.9 5010.5 5045.8 5002.4 5051.7 4994.3 5045.8 4986.2 5039.9 4996.2 5039.9 4988.1 5045.8 4978.1 5045.8 4970 5051.7 4980 5051.7 4972 5045.8 4968.9 5036.3" clip-path="url(#a)" fill="none" stroke="#000" stroke-linecap="round"/>
<polyline points="4968.9 5036.3 4977 5030.4 4980 5020.9 4972 5026.8 4968.9 5036.3 4977 5042.2 4967 5042.2 4970 5051.7 4967 5061.2 4975 5055.3 4983.1 5049.4 4975 5055.3 4978.1 5064.8 4981.2 5074.3 4984.3 5064.8 4976.2 5070.7 4979.3 5061.2 4982.4 5051.7 4990.5 5045.8 4987.4 5055.3 4984.3 5045.8 4987.4 5055.3 4990.5 5045.8 4982.4 5039.9 4990.5 5034.1 4982.4 5039.9 4974.3 5045.8 4964.3 5045.8 4961.2 5055.3 4953.1 5061.2 4961.2 5067.1 4951.2 5067.1 4948.1 5057.6 4945 5048.1 4935 5048.1 4927 5042.2 4935 5036.3 4927 5030.4 4923.9 5020.9 4933.9 5020.9 4930.8 5030.4 4927.7 5020.9 4930.8 5011.4" clip-path="url(#a)" fill="none" stroke="#000" stroke-linecap="round"/>
<polyline points="4930.8 5011.4 4927.7 5020.9 4930.8 5030.4 4922.7 5024.5 4930.8 5018.7 4927.7 5009.2 4935.8 5003.3 4932.7 5012.8 4940.8 5018.7 4937.7 5009.2 4940.8 5018.7 4948.9 5012.8 4940.8 5018.7 4948.9 5024.5 4958.9 5024.5 4948.9 5024.5 4940.8 5018.7 4943.9 5009.2 4940.8 5018.7 4943.9 5028.2 4952 5022.3 4960 5016.4 4963.1 5006.9 4960 4997.4 4952 4991.5 4960 4997.4 4968.1 4991.5 4958.1 4991.5 4950 4997.4 4953.1 4987.9 4943.1 4987.9 4953.1 4987.9 4945 4993.8 4937 4987.9 4945 4982 4948.1 4991.5 4956.2 4985.6 4953.1 4976.1 4945 4982 4955 4982 4958.1 4972.5 4961.2 4963 4964.3 4953.5" clip-path="url(#a)" fill="none" stroke="#000" stroke-linecap="round"/>
<polyline points="4964.3 4953.5 4972.4 4959.4 4969.3 4949.8 4961.2 4955.7 4971.2 4955.7 4979.3 4961.6 4976.2 4952.1 4973.1 4961.6 4981.2 4967.5 4984.3 4958 4992.4 4963.8 4995.5 4973.4 5003.6 4979.2 5000.5 4988.7 5008.6 4994.6 5018.6 4994.6 5008.6 4994.6 5016.7 4988.7 5019.8 4979.2 5009.8 4979.2 5012.9 4988.7 5004.8 4994.6 5007.9 5004.1 4999.8 5010 4989.8 5010 4981.7 5004.1 4991.7 5004.1 4994.8 4994.6 5004.8 4994.6 5007.9 4985.1 5004.8 4994.6 5012.9 5000.5 5004.8 5006.4 4996.7 5000.5 4999.8 4991 4996.7 4981.5 4993.6 4972 4990.5 4981.5 4987.4 4991 4977.4 4991 4969.3 4985.1 4961.2 4991 4958.1 5000.5" clip-path="url(#a)" fill="none" stroke="#000" stroke-linecap="round"/>
<polyline points="4958.1 5000.5 4950 5006.4 4958.1 5012.3 4961.2 5002.7 4964.3 4993.2 4974.3 4993.2 4964.3 4993.2 4974.3 4993.2 4984.3 4993.2 4992.4 4987.4 5000.5 4993.2 4992.4 4987.4 4995.5 4977.8 5003.6 4983.7 5006.7 4974.2 5009.8 4983.7 5012.9 4993.2 5009.8 4983.7 5012.9 4974.2 5004.8 4980.1 5001.7 4970.6 5004.8 4961.1 5001.7 4970.6 5004.8 4961.1 4994.8 4961.1 4986.7 4955.2 4978.6 4949.3 4975.5 4958.8 4985.5 4958.8 4977.4 4952.9 4985.5 4958.8 4977.4 4964.7 4980.5 4974.2 4983.6 4964.7 4991.7 4958.8 4999.8 4952.9 5002.9 4962.5 5006 4972 4997.9 4966.1 4994.8 4975.6 4997.9 4985.1 4994.8 4994.6 4986.7 4988.7" clip-path="url(#a)" fill="none" stroke="#000" stroke-linecap="round"/>
<polyline points="4986.7 4988.7 4978.6 4982.9 4970.5 4988.7 4973.6 4979.2 4976.7 4969.7 4968.6 4963.8 4960.5 4969.7 4968.6 4975.6 4976.7 4981.5 4973.6 4972 4981.7 4966.1 4973.6 4960.2 4965.5 4966.1 4962.4 4956.6 4954.3 4950.7 4951.2 4960.2 4943.1 4954.3 4951.2 4960.2 4948.1 4950.7 4956.2 4956.6 4953.1 4947.1 4961.2 4952.9 4958.1 4962.5 4966.2 4956.6 4974.3 4950.7 4977.4 4941.2 4969.3 4947.1 4961.2 4941.2 4971.2 4941.2 4979.3 4947.1 4976.2 4956.6 4966.2 4956.6 4963.1 4947.1 4960 4956.6 4952 4950.7 4960 4956.6 4957 4966.1 4967 4966.1 4958.9 4972 4968.9 4972 4965.8 4962.5 4957.7 4956.6 4949.6 4962.5" clip-path="url(#a)" fill="none" stroke="#000" stroke-linecap="round"/>
<polyline points="4949.6 4962.5 4952.7 4972 4944.6 4966.1 4952.7 4960.2 4949.6 4969.7 4952.7 4960.2 4960.8 4966.1 4963.9 4975.6 4960.8 4985.1 4968.9 4991 4960.8 4985.1 4970.8 4985.1 4960.8 4985.1 4950.8 4985.1 4960.8 4985.1 4950.8 4985.1 4953.9 4975.6 4957 4985.1 4967 4985.1 4977 4985.1 4980 4994.6 4988.1 5000.5 4980 5006.4 4972 5000.5 4975 5010 4983.1 5004.1 4991.2 5010 4981.2 5010 4989.3 5004.1 4992.4 4994.6 5000.5 5000.5 5010.5 5000.5 5020.5 5000.5 5030.5 5000.5 5027.4 4991 5037.4 4991 5045.5 4985.1 5048.6 4994.6 5051.7 4985.1 5059.8 4991 5067.9 4985.1 5071 4975.6 5067.9 4966.1" clip-path="url(#a)" fill="none" stroke="#000" stroke-linecap="round"/>
<polyline points="5067.9 4966.1 5076 4960.2 5086 4960.2 5076 4960.2 5067.9 4954.3 5057.9 4954.3 5047.9 4954.3 5051 4944.8 5061 4944.8 5071 4944.8 5062.9 4950.7 5066 4941.2 5074 4935.3 5077.1 4925.8 5069 4931.7 5079 4931.7 5087.1 4937.6 5084 4947.1 5087.1 4956.6 5090.2 4947.1 5087.1 4937.6 5077.1 4937.6 5085.2 4931.7 5077.1 4925.8 5074 4916.3 5071 4925.8 5067.9 4935.3 5071 4925.8 5062.9 4919.9 5054.8 4914 5057.9 4923.6 5061 4914 5064 4923.6 5067.1 4933.1 5064 4942.6 5061 4933.1 5069 4938.9 5061 4933.1 5064 4942.6 5074 4942.6 5071 4952.1 5074 4942.6 5077.1 4933.1" clip-path="url(#a)" fill="none" stroke="#000" stroke-linecap="round"/>
<polyline points="5077.1 4933.1 5085.2 4927.2 5082.1 4917.7 5085.2 4908.2 5075.2 4908.2 5083.3 4902.3 5091.4 4908.2 5099.5 4914 5107.6 4908.2 5117.6 4908.2 5114.5 4917.7 5124.5 4917.7 5132.6 4923.6 5124.5 4929.4 5121.4 4919.9 5129.5 4925.8 5132.6 4935.3 5129.5 4925.8 5121.4 4919.9 5131.4 4919.9 5128.3 4929.4 5136.4 4935.3 5133.3 4944.8 5130.2 4935.3 5120.2 4935.3 5128.3 4941.2 5120.2 4935.3 5117.1 4944.8 5120.2 4935.3 5110.2 4935.3 5102.1 4941.2 5110.2 4935.3 5120.2 4935.3 5123.3 4944.8 5120.2 4935.3 5112.1 4929.4 5109 4938.9 5106 4948.5 5109 4958 5117.1 4963.8 5127.1 4963.8 5117.1 4963.8 5114 4973.4" clip-path="url(#a)" fill="none" stroke="#000" stroke-linecap="round"/>
<polyline points="5114 4973.4 5122.1 4967.5 5125.2 4958 5128.3 4967.5 5136.4 4961.6 5128.3 4967.5 5131.4 4958 5141.4 4958 5138.3 4967.5 5130.2 4961.6 5127.1 4971.1 5135.2 4977 5138.3 4967.5 5130.2 4973.4 5133.3 4982.9 5136.4 4992.4 5139.5 5001.9 5129.5 5001.9 5137.6 5007.8 5140.7 4998.3 5132.6 5004.1 5122.6 5004.1 5130.7 5010 5127.6 5000.5 5117.6 5000.5 5120.7 5010 5110.7 5010 5102.6 5004.1 5092.6 5004.1 5089.5 4994.6 5079.5 4994.6 5071.4 5000.5 5079.5 4994.6 5076.4 5004.1 5079.5 5013.6 5087.6 5007.8 5079.5 5001.9 5082.6 4992.4 5074.5 4986.5 5077.6 4977 5085.7 4971.1 5095.7 4971.1 5087.6 4977" clip-path="url(#a)" fill="none" stroke="#000" stroke-linecap="round"/>
<polyline points="5087.6 4977 5090.7 4986.5 5082.6 4992.4 5085.7 5001.9 5082.6 4992.4 5072.6 4992.4 5075.7 4982.9 5085.7 4982.9 5088.8 4992.4 5096.9 4998.3 5104.9 5004.1 5101.9 4994.6 5098.8 4985.1 5106.9 4979.2 5116.9 4979.2 5119.9 4969.7 5116.9 4960.2 5119.9 4950.7 5109.9 4950.7 5113 4960.2 5116.1 4969.7 5108 4975.6 5116.1 4969.7 5108 4975.6 5099.9 4981.5 5096.9 4991 5086.9 4991 5096.9 4991 5099.9 5000.5 5089.9 5000.5 5093 5010 5084.9 5004.1 5076.9 4998.3 5084.9 5004.1 5088 5013.6 5091.1 5004.1 5099.2 5010 5102.3 5019.5 5099.2 5010 5102.3 5019.5 5110.4 5013.6 5120.4 5013.6 5130.4 5013.6" clip-path="url(#a)" fill="none" stroke="#000" stroke-linecap="round"/>
<polyline points="5130.4 5013.6 5127.3 5004.1 5119.2 5010 5129.2 5010 5119.2 5010 5122.3 5000.5 5114.2 4994.6 5117.3 5004.1 5114.2 5013.6 5111.1 5023.2 5103 5017.3 5094.9 5011.4 5104.9 5011.4 5101.9 5001.9 5093.8 4996 5090.7 4986.5 5100.7 4986.5 5110.7 4986.5 5113.8 4977 5116.9 4986.5 5119.9 4996 5129.9 4996 5133 4986.5 5123 4986.5 5113 4986.5 5121.1 4992.4 5118 5001.9 5128 5001.9 5131.1 4992.4 5139.2 4998.3 5149.2 4998.3 5146.1 4988.7 5156.1 4988.7 5146.1 4988.7 5154.2 4994.6 5144.2 4994.6 5152.3 5000.5 5142.3 5000.5 5139.2 4991 5136.1 5000.5 5133 5010 5136.1 5019.5 5139.2 5010" clip-path="url(#a)" fill="none" stroke="#000" stroke-linecap="round"/>
<polyline points="5139.2 5010 5149.2 5010 5141.1 5015.9 5131.1 5015.9 5128 5006.4 5136.1 5000.5 5144.2 5006.4 5141.1 4996.9 5151.1 4996.9 5141.1 4996.9 5138 4987.4 5129.9 4993.2 5133 4983.7 5124.9 4989.6 5133 4995.5 5143 4995.5 5146.1 4986 5138 4980.1 5148 4980.1 5144.9 4989.6 5141.9 4980.1 5144.9 4989.6 5134.9 4989.6 5126.9 4983.7 5123.8 4974.2 5113.8 4974.2 5123.8 4974.2 5115.7 4980.1 5123.8 4974.2 5131.9 4968.3 5123.8 4974.2 5131.9 4968.3 5134.9 4977.8 5126.9 4972 5118.8 4977.8 5110.7 4983.7 5102.6 4977.8 5092.6 4977.8 5095.7 4968.3 5105.7 4968.3 5097.6 4962.5 5094.5 4972 5084.5 4972" clip-path="url(#a)" fill="none" stroke="#000" stroke-linecap="round"/>
<polyline points="5084.5 4972 5092.6 4966.1 5089.5 4975.6 5092.6 4985.1 5082.6 4985.1 5074.5 4991 5066.4 4996.9 5058.3 5002.7 5066.4 5008.6 5058.3 5014.5 5055.2 5024 5047.1 5018.1 5050.2 5027.6 5040.2 5027.6 5037.1 5037.2 5040.2 5046.7 5048.3 5052.5 5045.2 5062.1 5037.1 5067.9 5045.2 5062.1 5055.2 5062.1 5063.3 5056.2 5071.4 5050.3 5074.5 5059.8 5066.4 5065.7 5058.3 5071.6 5061.4 5062.1 5064.5 5071.6 5061.4 5081.1 5064.5 5090.6 5067.6 5081.1 5059.5 5087 5049.5 5087 5046.4 5077.4 5038.3 5071.6 5041.4 5081.1 5049.5 5087 5057.6 5081.1 5054.5 5090.6 5064.5 5090.6 5072.6 5096.5 5069.5 5087 5066.4 5077.4" clip-path="url(#a)" fill="none" stroke="#000" stroke-linecap="round"/>
<polyline points="5066.4 5077.4 5069.5 5087 5079.5 5087 5089.5 5087 5081.4 5081.1 5084.5 5090.6 5076.4 5084.7 5068.3 5078.8 5065.2 5069.3 5073.3 5075.2 5063.3 5075.2 5073.3 5075.2 5065.2 5069.3 5057.1 5075.2 5054 5065.7 5057.1 5075.2 5060.2 5084.7 5057.1 5094.2 5065.2 5100.1 5068.3 5109.6 5076.4 5103.7 5073.3 5113.2 5063.3 5113.2 5053.3 5113.2 5050.2 5122.7 5042.1 5128.6 5039 5119.1 5031 5125 5021 5125 5024 5115.5 5032.1 5121.4 5022.1 5121.4 5014 5115.5 5022.1 5121.4 5032.1 5121.4 5024 5127.2 5021 5117.7 5011 5117.7 5007.9 5108.2 5016 5114.1 5024 5108.2 5014 5108.2 5024 5108.2" clip-path="url(#a)" fill="none" stroke="#000" stroke-linecap="round"/>
<polyline points="5024 5108.2 5021 5098.7 5024 5108.2 5032.1 5102.3 5035.2 5092.8 5032.1 5102.3 5024 5108.2 5016 5102.3 5024 5108.2 5034 5108.2 5031 5098.7 5027.9 5089.2 5019.8 5083.3 5009.8 5083.3 5001.7 5089.2 5009.8 5083.3 5006.7 5073.8 5003.6 5083.3 5006.7 5092.8 4998.6 5087 4995.5 5096.5 4998.6 5087 5001.7 5096.5 4993.6 5102.3 4990.5 5092.8 5000.5 5092.8 4997.4 5083.3 4987.4 5083.3 4990.5 5092.8 4993.6 5083.3 4985.5 5077.4 4977.4 5071.6 4969.3 5065.7 4977.4 5059.8 4967.4 5059.8 4970.5 5069.3 4973.6 5059.8 4981.7 5053.9 4971.7 5053.9 4979.8 5059.8 4987.9 5053.9 4979.8 5048.1 4987.9 5042.2" clip-path="url(#a)" fill="none" stroke="#000" stroke-linecap="round"/>
<polyline points="4987.9 5042.2 4997.9 5042.2 5006 5036.3 5014 5042.2 5022.1 5036.3 5025.2 5026.8 5022.1 5036.3 5019 5026.8 5011 5020.9 5007.9 5030.4 5017.9 5030.4 5021 5039.9 5031 5039.9 5034 5049.4 5031 5059 5022.9 5064.8 5026 5055.3 5017.9 5049.4 5021 5039.9 5012.9 5034.1 5021 5039.9 5029 5034.1 5032.1 5043.6 5024 5049.4 5016 5043.6 5006 5043.6 4996 5043.6 5004 5049.4 5012.1 5055.3 5009 5064.8 5001 5070.7 5004 5080.2 5012.1 5086.1 5015.2 5095.6 5023.3 5089.7 5015.2 5083.8 5007.1 5078 5010.2 5068.5 5007.1 5078 5010.2 5068.5 5013.3 5059 5010.2 5049.4 5018.3 5043.6" clip-path="url(#a)" fill="none" stroke="#000" stroke-linecap="round"/>
<polyline points="5018.3 5043.6 5010.2 5049.4 5002.1 5043.6 5010.2 5037.7 5002.1 5031.8 5012.1 5031.8 5022.1 5031.8 5012.1 5031.8 5004 5025.9 5007.1 5035.4 4997.1 5035.4 4989 5029.6 4997.1 5035.4 4989 5029.6 4986 5039.1 4977.9 5045 4969.8 5050.8 4977.9 5056.7 4981 5047.2 4972.9 5053.1 4981 5047.2 4984 5056.7 4994 5056.7 4986 5050.8 4982.9 5041.3 4979.8 5031.8 4989.8 5031.8 4999.8 5031.8 4991.7 5037.7 4999.8 5043.6 5009.8 5043.6 5017.9 5049.4 5009.8 5055.3 5001.7 5061.2 5004.8 5070.7 4996.7 5064.8 4988.6 5059 4980.5 5064.8 4983.6 5074.3 4991.7 5068.5 4999.8 5062.6 4989.8 5062.6 4986.7 5053.1" clip-path="url(#a)" fill="none" stroke="#000" stroke-linecap="round"/>
<polyline points="4986.7 5053.1 4978.6 5059 4981.7 5068.5 4971.7 5068.5 4963.6 5074.3 4971.7 5080.2 4963.6 5086.1 4971.7 5080.2 4961.7 5080.2 4969.8 5074.3 4959.8 5074.3 4967.9 5068.5 4976 5074.3 4972.9 5064.8 4969.8 5055.3 4961.7 5049.4 4964.8 5059 4956.7 5064.8 4959.8 5055.3 4967.9 5049.4 4976 5055.3 4972.9 5064.8 4962.9 5064.8 4971 5070.7 4962.9 5076.6 4971 5070.7 4979 5076.6 4982.1 5067.1 4985.2 5076.6 4988.3 5067.1 4978.3 5067.1 4970.2 5073 4973.3 5082.5 4983.3 5082.5 4975.2 5088.3 4972.1 5078.8 4980.2 5084.7 4972.1 5078.8 4980.2 5073 4990.2 5073 4998.3 5078.8 5006.4 5073 4998.3 5078.8" clip-path="url(#a)" fill="none" stroke="#000" stroke-linecap="round"/>
<polyline points="4998.3 5078.8 5001.4 5069.3 4998.3 5078.8 4995.2 5088.3 4998.3 5078.8 4995.2 5088.3 4987.1 5082.5 4997.1 5082.5 5000.2 5073 5003.3 5063.4 5013.3 5063.4 5021.4 5057.6 5024.5 5067.1 5016.4 5073 5026.4 5073 5023.3 5063.4 5031.4 5057.6 5028.3 5067.1 5025.2 5057.6 5017.1 5051.7 5025.2 5045.8 5028.3 5036.3 5031.4 5026.8 5034.5 5017.3 5024.5 5017.3 5027.6 5007.8 5024.5 4998.3 5034.5 4998.3 5026.4 4992.4 5034.5 4986.5 5031.4 4977 5023.3 4971.1 5013.3 4971.1 5010.2 4961.6 5013.3 4952.1 5010.2 4961.6 5002.1 4967.5 4999 4977 4996 4986.5 4987.9 4980.6 4991 4971.1 4994 4961.6 4997.1 4971.1" clip-path="url(#a)" fill="none" stroke="#000" stroke-linecap="round"/>
<polyline points="4997.1 4971.1 4989 4965.2 4986 4955.7 4977.9 4949.8 4981 4959.4 4984 4949.8 4992.1 4944 5000.2 4949.8 5010.2 4949.8 5002.1 4944 4992.1 4944 4989 4953.5 4986 4944 4977.9 4949.8 4967.9 4949.8 4976 4955.7 4984 4961.6 4976 4955.7 4967.9 4961.6 4959.8 4967.5 4969.8 4967.5 4961.7 4961.6 4971.7 4961.6 4981.7 4961.6 4989.8 4967.5 4979.8 4967.5 4987.9 4961.6 4979.8 4967.5 4989.8 4967.5 4992.9 4958 5001 4963.8 4992.9 4958 4984.8 4952.1 4981.7 4942.6 4971.7 4942.6 4963.6 4936.7 4960.5 4946.2 4957.4 4936.7 4965.5 4930.8 4973.6 4924.9 4970.5 4915.4 4973.6 4905.9 4981.7 4911.8" clip-path="url(#a)" fill="none" stroke="#000" stroke-linecap="round"/>
<polyline points="4981.7 4911.8 4984.8 4902.3 4992.9 4896.4 4996 4905.9 4986 4905.9 4994 4900 5004 4900 4994 4900 4986 4905.9 4989 4896.4 4997.1 4902.3 5005.2 4896.4 5013.3 4902.3 5003.3 4902.3 5000.2 4911.8 5008.3 4905.9 5000.2 4911.8 5008.3 4917.7 5000.2 4911.8 4997.1 4921.3 5000.2 4930.8 4997.1 4921.3 5000.2 4911.8 5010.2 4911.8 5000.2 4911.8 4992.1 4917.7 5000.2 4923.6 5008.3 4929.4 5018.3 4929.4 5026.4 4923.6 5029.5 4914 5026.4 4923.6 5034.5 4929.4 5031.4 4919.9 5023.3 4914 5033.3 4914 5030.2 4904.5 5033.3 4914 5025.2 4908.2 5028.3 4898.7 5036.4 4904.5 5028.3 4910.4 5036.4 4916.3" clip-path="url(#a)" fill="none" stroke="#000" stroke-linecap="round"/>
<polyline points="5036.4 4916.3 5044.5 4910.4 5036.4 4904.5 5039.5 4914 5049.5 4914 5059.5 4914 5069.5 4914 5066.4 4923.6 5074.5 4917.7 5066.4 4911.8 5069.5 4921.3 5066.4 4930.8 5074.5 4924.9 5064.5 4924.9 5061.4 4934.5 5071.4 4934.5 5068.3 4944 5060.2 4949.8 5057.1 4959.4 5047.1 4959.4 5044 4968.9 5047.1 4978.4 5044 4968.9 5052.1 4974.7 5062.1 4974.7 5059 4965.2 5051 4971.1 5042.9 4965.2 5034.8 4971.1 5026.7 4965.2 5023.6 4955.7 5026.7 4946.2 5029.8 4955.7 5039.8 4955.7 5042.9 4965.2 5052.9 4965.2 5042.9 4965.2 5039.8 4974.7 5031.7 4968.9 5034.8 4959.4 5044.8 4959.4 5052.9 4953.5 5061 4947.6" clip-path="url(#a)" fill="none" stroke="#000" stroke-linecap="round"/>
<polyline points="5061 4947.6 5051 4947.6 5041 4947.6 5037.9 4938.1 5041 4928.6 5032.9 4922.7 5022.9 4922.7 5014.8 4916.8 5011.7 4926.3 5021.7 4926.3 5031.7 4926.3 5034.8 4935.8 5031.7 4926.3 5034.8 4935.8 5037.9 4945.4 5046 4951.2 5042.9 4960.7 5046 4951.2 5056 4951.2 5052.9 4960.7 5062.9 4960.7 5054.8 4966.6 5046.7 4972.5 5054.8 4966.6 5064.8 4966.6 5056.7 4960.7 5064.8 4954.9 5074.8 4954.9 5064.8 4954.9 5074.8 4954.9 5071.7 4945.4 5074.8 4935.8 5077.9 4926.3 5067.9 4926.3 5071 4935.8 5074 4926.3 5071 4935.8 5062.9 4930 5054.8 4935.8 5064.8 4935.8 5072.9 4941.7 5081 4947.6 5072.9 4953.5" clip-path="url(#a)" fill="none" stroke="#000" stroke-linecap="round"/>
<polyline points="5072.9 4953.5 5064.8 4959.4 5067.9 4949.8 5057.9 4949.8 5049.8 4955.7 5039.8 4955.7 5042.9 4946.2 5046 4936.7 5037.9 4930.8 5047.9 4930.8 5057.9 4930.8 5061 4921.3 5052.9 4915.4 5049.8 4924.9 5046.7 4934.5 5054.8 4928.6 5062.9 4934.5 5066 4924.9 5057.9 4919.1 5066 4913.2 5069 4903.7 5059 4903.7 5062.1 4894.2 5059 4903.7 5067.1 4897.8 5064 4907.3 5072.1 4901.4 5069 4910.9 5059 4910.9 5067.1 4916.8 5075.2 4922.7 5085.2 4922.7 5077.1 4916.8 5080.2 4907.3 5083.3 4916.8 5080.2 4926.3 5070.2 4926.3 5067.1 4916.8 5075.2 4910.9 5065.2 4910.9 5068.3 4901.4 5065.2 4910.9 5055.2 4910.9" clip-path="url(#a)" fill="none" stroke="#000" stroke-linecap="round"/>
<polyline points="5055.2 4910.9 5058.3 4920.5 5050.2 4914.6 5053.3 4924.1 5061.4 4918.2 5064.5 4908.7 5056.4 4902.8 5048.3 4908.7 5051.4 4899.2 5059.5 4905.1 5049.5 4905.1 5059.5 4905.1 5056.4 4914.6 5048.3 4920.5 5038.3 4920.5 5035.2 4930 5038.3 4920.5 5041.4 4930 5038.3 4920.5 5035.2 4910.9 5038.3 4920.5 5035.2 4910.9 5045.2 4910.9 5037.1 4916.8 5040.2 4926.3 5043.3 4935.8 5035.2 4941.7 5032.1 4951.2 5024 4945.4 5027.1 4935.8 5019 4941.7 5027.1 4947.6 5024 4957.1 5021 4947.6 5029 4953.5 5039 4953.5 5036 4963 5039 4972.5 5042.1 4982 5045.2 4991.5 5053.3 4985.6 5056.4 4995.2 5064.5 5001" clip-path="url(#a)" fill="none" stroke="#000" stroke-linecap="round"/>
<polyline points="5064.5 5001 5056.4 5006.9 5066.4 5006.9 5063.3 5016.4 5071.4 5022.3 5081.4 5022.3 5089.5 5016.4 5097.6 5022.3 5100.7 5031.8 5097.6 5022.3 5100.7 5012.8 5097.6 5003.3 5094.5 4993.8 5104.5 4993.8 5107.6 5003.3 5110.7 5012.8 5102.6 5006.9 5112.6 5006.9 5120.7 5012.8 5130.7 5012.8 5122.6 5006.9 5125.7 5016.4 5122.6 5025.9 5112.6 5025.9 5104.5 5031.8 5114.5 5031.8 5122.6 5025.9 5119.5 5016.4 5127.6 5022.3 5130.7 5012.8 5138.8 5006.9 5128.8 5006.9 5118.8 5006.9 5128.8 5006.9 5131.9 4997.4 5134.9 4987.9 5126.9 4993.8 5136.9 4993.8 5128.8 4999.6 5120.7 5005.5 5110.7 5005.5 5118.8 4999.6 5115.7 5009.2" clip-path="url(#a)" fill="none" stroke="#000" stroke-linecap="round"/>
<polyline points="5115.7 5009.2 5118.8 4999.6 5110.7 5005.5 5113.8 5015 5103.8 5015 5113.8 5015 5123.8 5015 5131.9 5020.9 5139.9 5015 5149.9 5015 5146.9 5005.5 5154.9 5011.4 5151.9 5020.9 5148.8 5030.4 5156.9 5036.3 5159.9 5045.8 5149.9 5045.8 5153 5055.3 5149.9 5064.8 5141.9 5059 5149.9 5053.1 5146.9 5062.6 5138.8 5068.5 5146.9 5062.6 5149.9 5053.1 5153 5062.6 5143 5062.6 5139.9 5072.1 5129.9 5072.1 5138 5066.2 5134.9 5056.7 5131.9 5066.2 5134.9 5056.7 5124.9 5056.7 5134.9 5056.7 5131.9 5047.2 5123.8 5041.3 5131.9 5047.2 5134.9 5056.7 5126.9 5062.6 5134.9 5056.7 5138 5047.2 5128 5047.2" clip-path="url(#a)" fill="none" stroke="#000" stroke-linecap="round"/>
<polyline points="5128 5047.2 5118 5047.2 5109.9 5053.1 5106.9 5062.6 5109.9 5072.1 5106.9 5062.6 5096.9 5062.6 5104.9 5068.5 5114.9 5068.5 5106.9 5074.3 5114.9 5080.2 5106.9 5074.3 5116.9 5074.3 5119.9 5083.8 5109.9 5083.8 5113 5074.3 5103 5074.3 5099.9 5083.8 5109.9 5083.8 5101.9 5078 5093.8 5083.8 5085.7 5089.7 5077.6 5095.6 5074.5 5086.1 5071.4 5095.6 5081.4 5095.6 5073.3 5089.7 5070.2 5080.2 5067.1 5089.7 5075.2 5083.8 5072.1 5074.3 5064 5080.2 5061 5070.7 5064 5061.2 5061 5051.7 5069 5045.8 5066 5036.3 5057.9 5030.4 5066 5036.3 5056 5036.3 5047.9 5042.2 5056 5048.1 5059 5038.5" clip-path="url(#a)" fill="none" stroke="#000" stroke-linecap="round"/>
<polyline points="5059 5038.5 5069 5038.5 5072.1 5029 5082.1 5029 5090.2 5034.9 5093.3 5044.4 5085.2 5038.5 5077.1 5044.4 5069 5038.5 5061 5044.4 5069 5038.5 5066 5029 5076 5029 5079 5038.5 5071 5044.4 5067.9 5053.9 5064.8 5063.4 5072.9 5057.6 5081 5051.7 5089 5057.6 5092.1 5067.1 5102.1 5067.1 5110.2 5061.2 5120.2 5061.2 5117.1 5051.7 5109 5057.6 5101 5063.4 5092.9 5057.6 5101 5063.4 5092.9 5057.6 5084.8 5051.7 5074.8 5051.7 5071.7 5042.2 5074.8 5051.7 5066.7 5057.6 5063.6 5048.1 5055.5 5053.9 5058.6 5044.4 5061.7 5034.9 5058.6 5044.4 5050.5 5050.3 5060.5 5050.3 5057.4 5059.8" clip-path="url(#a)" fill="none" stroke="#000" stroke-linecap="round"/>
<polyline points="5057.4 5059.8 5049.3 5065.7 5057.4 5059.8 5049.3 5065.7 5057.4 5071.6 5060.5 5081.1 5063.6 5090.6 5071.7 5084.7 5063.6 5078.8 5066.7 5088.3 5063.6 5078.8 5073.6 5078.8 5076.7 5069.3 5068.6 5075.2 5058.6 5075.2 5048.6 5075.2 5051.7 5065.7 5054.8 5056.2 5057.9 5065.7 5066 5059.8 5069 5050.3 5077.1 5044.4 5080.2 5053.9 5083.3 5063.4 5093.3 5063.4 5085.2 5069.3 5077.1 5075.2 5080.2 5084.7 5090.2 5084.7 5087.1 5075.2 5084 5065.7 5081 5075.2 5071 5075.2 5074 5084.7 5084 5084.7 5081 5094.2 5084 5103.7 5092.1 5097.9 5095.2 5107.4 5092.1 5097.9 5089 5107.4 5086 5097.9 5082.9 5107.4" clip-path="url(#a)" fill="none" stroke="#000" stroke-linecap="round"/>
<polyline points="5082.9 5107.4 5079.8 5097.9 5087.9 5092 5077.9 5092 5067.9 5092 5059.8 5097.9 5069.8 5097.9 5072.9 5107.4 5064.8 5101.5 5061.7 5092 5069.8 5086.1 5077.9 5092 5074.8 5101.5 5082.9 5095.6 5086 5105.1 5082.9 5095.6 5091 5089.7 5082.9 5083.8 5092.9 5083.8 5084.8 5078 5081.7 5087.5 5084.8 5097 5094.8 5097 5097.9 5087.5 5101 5097 5091 5097 5099 5091.1 5091 5097 5087.9 5087.5 5091 5078 5099 5072.1 5096 5062.6 5099 5072.1 5091 5066.2 5099 5072.1 5107.1 5078 5099 5072.1 5107.1 5078 5099 5083.8 5102.1 5074.3 5094 5068.5 5086 5062.6 5089 5053.1" clip-path="url(#a)" fill="none" stroke="#000" stroke-linecap="round"/>
<polyline points="5089 5053.1 5086 5043.6 5096 5043.6 5099 5053.1 5102.1 5043.6 5092.1 5043.6 5089 5034.1 5097.1 5039.9 5087.1 5039.9 5079 5045.8 5076 5036.3 5067.9 5030.4 5059.8 5024.5 5051.7 5018.7 5048.6 5028.2 5040.5 5022.3 5030.5 5022.3 5033.6 5012.8 5025.5 5018.7 5022.4 5009.2 5012.4 5009.2 5004.3 5015 5001.2 5024.5 4991.2 5024.5 4983.1 5018.7 4991.2 5024.5 4994.3 5034.1 5002.4 5039.9 5010.5 5045.8 5002.4 5051.7 4994.3 5045.8 4986.2 5039.9 4996.2 5039.9 4988.1 5045.8 4978.1 5045.8 4970 5051.7 4980 5051.7 4972 5045.8 4968.9 5036.3 4977 5030.4 4980 5020.9 4972 5026.8 4968.9 5036.3" clip-path="url(#a)" fill="none" stroke="#000" stroke-linecap="round"/>
<polyline points="4968.9 5036.3 4977 5042.2 4967 5042.2 4970 5051.7 4967 5061.2 4975 5055.3 4983.1 5049.4 4975 5055.3 4978.1 5064.8 4981.2 5074.3 4984.3 5064.8 4976.2 5070.7 4979.3 5061.2 4982.4 5051.7 4990.5 5045.8 4987.4 5055.3 4984.3 5045.8 4987.4 5055.3 4990.5 5045.8 4982.4 5039.9 4990.5 5034.1 4982.4 5039.9 4974.3 5045.8 4964.3 5045.8 4961.2 5055.3 4953.1 5061.2 4961.2 5067.1 4951.2 5067.1 4948.1 5057.6 4945 5048.1 4935 5048.1 4927 5042.2 4935 5036.3 4927 5030.4 4923.9 5020.9 4933.9 5020.9 4930.8 5030.4 4927.7 5020.9 4930.8 5011.4 4927.7 5020.9 4930.8 5030.4 4922.7 5024.5 4930.8 5018.7" clip-path="url(#a)" fill="none" stroke="#000" stroke-linecap="round"/>
<polyline points="4930.8 5018.7 4927.7 5009.2 4935.8 5003.3 4932.7 5012.8 4940.8 5018.7 4937.7 5009.2 4940.8 5018.7 4948.9 5012.8 4940.8 5018.7 4948.9 5024.5 4958.9 5024.5 4948.9 5024.5 4940.8 5018.7 4943.9 5009.2 4940.8 5018.7 4943.9 5028.2 4952 5022.3 4960 5016.4 4963.1 5006.9 4960 4997.4 4952 4991.5 4960 4997.4 4968.1 4991.5 4958.1 4991.5 4950 4997.4 4953.1 4987.9 4943.1 4987.9 4953.1 4987.9 4945 4993.8 4937 4987.9 4945 4982 4948.1 4991.5 4956.2 4985.6 4953.1 4976.1 4945 4982 4955 4982 4958.1 4972.5 4961.2 4963 4964.3 4953.5 4972.4 4959.4 4969.3 4949.8 4961.2 4955.7 4971.2 4955.7" clip-path="url(#a)" fill="none" stroke="#000" stroke-linecap="round"/>
<polyline points="4971.2 4955.7 4979.3 4961.6 4976.2 4952.1 4973.1 4961.6 4981.2 4967.5 4984.3 4958 4992.4 4963.8 4995.5 4973.4 5003.6 4979.2 5000.5 4988.7 5008.6 4994.6 5018.6 4994.6 5008.6 4994.6 5016.7 4988.7 5019.8 4979.2 5009.8 4979.2 5012.9 4988.7 5004.8 4994.6 5007.9 5004.1 4999.8 5010 4989.8 5010 4981.7 5004.1 4991.7 5004.1 4994.8 4994.6 5004.8 4994.6 5007.9 4985.1 5004.8 4994.6 5012.9 5000.5 5004.8 5006.4 4996.7 5000.5 4999.8 4991 4996.7 4981.5 4993.6 4972 4990.5 4981.5 4987.4 4991 4977.4 4991 4969.3 4985.1 4961.2 4991 4958.1 5000.5 4950 5006.4 4958.1 5012.3 4961.2 5002.7 4964.3 4993.2" clip-path="url(#a)" fill="none" stroke="#000" stroke-linecap="round"/>
<polyline points="4964.3 4993.2 4974.3 4993.2 4964.3 4993.2 4974.3 4993.2 4984.3 4993.2 4992.4 4987.4 5000.5 4993.2 4992.4 4987.4 4995.5 4977.8 5003.6 4983.7 5006.7 4974.2 5009.8 4983.7 5012.9 4993.2 5009.8 4983.7 5012.9 4974.2 5004.8 4980.1 5001.7 4970.6 5004.8 4961.1 5001.7 4970.6 5004.8 4961.1 4994.8 4961.1 4986.7 4955.2 4978.6 4949.3 4975.5 4958.8 4985.5 4958.8 4977.4 4952.9 4985.5 4958.8 4977.4 4964.7 4980.5 4974.2 4983.6 4964.7 4991.7 4958.8 4999.8 4952.9 5002.9 4962.5 5006 4972 4997.9 4966.1 4994.8 4975.6 4997.9 4985.1 4994.8 4994.6 4986.7 4988.7 4978.6 4982.9 4970.5 4988.7 4973.6 4979.2 4976.7 4969.7" clip-path="url(#a)" fill="none" stroke="#000" stroke-linecap="round"/>
<polyline points="4976.7 4969.7 4968.6 4963.8 4960.5 4969.7 4968.6 4975.6 4976.7 4981.5 4973.6 4972 4981.7 4966.1 4973.6 4960.2 4965.5 4966.1 4962.4 4956.6 4954.3 4950.7 4951.2 4960.2 4943.1 4954.3 4951.2 4960.2 4948.1 4950.7 4956.2 4956.6 4953.1 4947.1 4961.2 4952.9 4958.1 4962.5 4966.2 4956.6 4974.3 4950.7 4977.4 4941.2 4969.3 4947.1 4961.2 4941.2 4971.2 4941.2 4979.3 4947.1 4976.2 4956.6 4966.2 4956.6 4963.1 4947.1 4960 4956.6 4952 4950.7 4960 4956.6 4957 4966.1 4967 4966.1 4958.9 4972 4968.9 4972 4965.8 4962.5 4957.7 4956.6 4949.6 4962.5 4952.7 4972 4944.6 4966.1 4952.7 4960.2 4949.6 4969.7" clip-path="url(#a)" fill="none" stroke="#000" stroke-linecap="round"/>
<polyline points="4949.6 4969.7 4952.7 4960.2 4960.8 4966.1 4963.9 4975.6 4960.8 4985.1 4968.9 4991 4960.8 4985.1 4970.8 4985.1 4960.8 4985.1 4950.8 4985.1 4960.8 4985.1 4950.8 4985.1 4953.9 4975.6 4957 4985.1 4967 4985.1 4977 4985.1 4980 4994.6 4988.1 5000.5 4980 5006.4 4972 5000.5 4975 5010 4983.1 5004.1 4991.2 5010 4981.2 5010 4989.3 5004.1 4992.4 4994.6 5000.5 5000.5" clip-path="url(#a)" fill="none" stroke="#000" stroke-linecap="round"/>
</svg>
