<?xml version="1.0" encoding="UTF-8"?>
<svg width="1e4px" height="1e4px" baseProfile="full" version="1.1" viewBox="4992.4 4991 60.451 61.554" xmlns="http://www.w3.org/2000/svg">
<defs>
<clipPath id="a">
<rect width="1e4" height="1e4"/>
</clipPath>
</defs>
<polyline points="5000.5 5000.5 5010.5 5000.5 5020.5 5000.5 5030.5 5000.5 5027.4 4991 5035.5 4996.9 5038.6 5006.4 5041.7 5015.9 5044.8 5025.4 5052.9 5019.5 5049.8 5029 5041.7 5034.9 5033.6 5040.8 5025.5 5046.7 5033.6 5052.5 5023.6 5052.5 5015.5 5046.7 5007.4 5040.8 4999.3 5034.9 4996.2 5044.4 4993.1 5034.9 4996.2 5025.4 4999.3 5015.9 5002.4 5006.4 4992.4 5006.4 5000.5 5000.5 5010.5 5000.5 5020.5 5000.5 5030.5 5000.5 5027.4 4991 5035.5 4996.9 5038.6 5006.4 5041.7 5015.9 5044.8 5025.4 5052.9 5019.5 5049.8 5029 5041.7 5034.9 5033.6 5040.8 5025.5 5046.7 5033.6 5052.5 5023.6 5052.5 5015.5 5046.7 5007.4 5040.8" clip-path="url(#a)" fill="none" stroke="#000" stroke-linecap="round"/>
<polyline points="5007.4 5040.8 4999.3 5034.9 4996.2 5044.4 4993.1 5034.9 4996.2 5025.4 4999.3 5015.9 5002.4 5006.4 4992.4 5006.4 5000.5 5000.5 5010.5 5000.5 5020.5 5000.5 5030.5 5000.5 5027.4 4991 5035.5 4996.9 5038.6 5006.4 5041.7 5015.9 5044.8 5025.4 5052.9 5019.5 5049.8 5029 5041.7 5034.9 5033.6 5040.8 5025.5 5046.7 5033.6 5052.5 5023.6 5052.5 5015.5 5046.7 5007.4 5040.8 4999.3 5034.9 4996.2 5044.4 4993.1 5034.9 4996.2 5025.4 4999.3 5015.9 5002.4 5006.4 4992.4 5006.4 5000.5 5000.5 5010.5 5000.5 5020.5 5000.5 5030.5 5000.5 5027.4 4991 5035.5 4996.9 5038.6 5006.4 5041.7 5015.9 5044.8 5025.4 5052.9 5019.5" clip-path="url(#a)" fill="none" stroke="#000" stroke-linecap="round"/>
<polyline points="5052.9 5019.5 5049.8 5029 5041.7 5034.9 5033.6 5040.8 5025.5 5046.7 5033.6 5052.5 5023.6 5052.5 5015.5 5046.7 5007.4 5040.8 4999.3 5034.9 4996.2 5044.4 4993.1 5034.9 4996.2 5025.4 4999.3 5015.9 5002.4 5006.4 4992.4 5006.4 5000.5 5000.5 5010.5 5000.5 5020.5 5000.5 5030.5 5000.5 5027.4 4991 5035.5 4996.9 5038.6 5006.4 5041.7 5015.9 5044.8 5025.4 5052.9 5019.5 5049.8 5029 5041.7 5034.9 5033.6 5040.8 5025.5 5046.7 5033.6 5052.5 5023.6 5052.5 5015.5 5046.7 5007.4 5040.8 4999.3 5034.9 4996.2 5044.4 4993.1 5034.9 4996.2 5025.4 4999.3 5015.9 5002.4 5006.4 4992.4 5006.4 5000.5 5000.5 5010.5 5000.5" clip-path="url(#a)" fill="none" stroke="#000" stroke-linecap="round"/>
<polyline points="5010.5 5000.5 5020.5 5000.5 5030.5 5000.5 5027.4 4991 5035.5 4996.9 5038.6 5006.4 5041.7 5015.9 5044.8 5025.4 5052.9 5019.5 5049.8 5029 5041.7 5034.9 5033.6 5040.8 5025.5 5046.7 5033.6 5052.5 5023.6 5052.5 5015.5 5046.7 5007.4 5040.8 4999.3 5034.9 4996.2 5044.4 4993.1 5034.9 4996.2 5025.4 4999.3 5015.9 5002.4 5006.4 4992.4 5006.4 5000.5 5000.5 5010.5 5000.5 5020.5 5000.5 5030.5 5000.5 5027.4 4991 5035.5 4996.9 5038.6 5006.4 5041.7 5015.9 5044.8 5025.4 5052.9 5019.5 5049.8 5029 5041.7 5034.9 5033.6 5040.8 5025.5 5046.7 5033.6 5052.5 5023.6 5052.5 5015.5 5046.7 5007.4 5040.8 4999.3 5034.9" clip-path="url(#a)" fill="none" stroke="#000" stroke-linecap="round"/>
<polyline points="4999.3 5034.9 4996.2 5044.4 4993.1 5034.9 4996.2 5025.4 4999.3 5015.9 5002.4 5006.4 4992.4 5006.4 5000.5 5000.5 5010.5 5000.5 5020.5 5000.5 5030.5 5000.5 5027.4 4991 5035.5 4996.9 5038.6 5006.4 5041.7 5015.9 5044.8 5025.4 5052.9 5019.5 5049.8 5029 5041.7 5034.9 5033.6 5040.8 5025.5 5046.7 5033.6 5052.5 5023.6 5052.5 5015.5 5046.7 5007.4 5040.8 4999.3 5034.9 4996.2 5044.4 4993.1 5034.9 4996.2 5025.4 4999.3 5015.9 5002.4 5006.4 4992.4 5006.4 5000.5 5000.5 5010.5 5000.5 5020.5 5000.5 5030.5 5000.5 5027.4 4991 5035.5 4996.9 5038.6 5006.4 5041.7 5015.9 5044.8 5025.4 5052.9 5019.5 5049.8 5029" clip-path="url(#a)" fill="none" stroke="#000" stroke-linecap="round"/>
<polyline points="5049.8 5029 5041.7 5034.9 5033.6 5040.8 5025.5 5046.7 5033.6 5052.5 5023.6 5052.5 5015.5 5046.7 5007.4 5040.8 4999.3 5034.9 4996.2 5044.4 4993.1 5034.9 4996.2 5025.4 4999.3 5015.9 5002.4 5006.4 4992.4 5006.4 5000.5 5000.5 5010.5 5000.5 5020.5 5000.5 5030.5 5000.5 5027.4 4991 5035.5 4996.9 5038.6 5006.4 5041.7 5015.9 5044.8 5025.4 5052.9 5019.5 5049.8 5029 5041.7 5034.9 5033.6 5040.8 5025.5 5046.7 5033.6 5052.5 5023.6 5052.5 5015.5 5046.7 5007.4 5040.8 4999.3 5034.9 4996.2 5044.4 4993.1 5034.9 4996.2 5025.4 4999.3 5015.9 5002.4 5006.4 4992.4 5006.4 5000.5 5000.5 5010.5 5000.5 5020.5 5000.5" clip-path="url(#a)" fill="none" stroke="#000" stroke-linecap="round"/>
<polyline points="5020.5 5000.5 5030.5 5000.5 5027.4 4991 5035.5 4996.9 5038.6 5006.4 5041.7 5015.9 5044.8 5025.4 5052.9 5019.5 5049.8 5029 5041.7 5034.9 5033.6 5040.8 5025.5 5046.7 5033.6 5052.5 5023.6 5052.5 5015.5 5046.7 5007.4 5040.8 4999.3 5034.9 4996.2 5044.4 4993.1 5034.9 4996.2 5025.4 4999.3 5015.9 5002.4 5006.4 4992.4 5006.4 5000.5 5000.5 5010.5 5000.5 5020.5 5000.5 5030.5 5000.5 5027.4 4991 5035.5 4996.9 5038.6 5006.4 5041.7 5015.9 5044.8 5025.4 5052.9 5019.5 5049.8 5029 5041.7 5034.9 5033.6 5040.8 5025.5 5046.7 5033.6 5052.5 5023.6 5052.5 5015.5 5046.7 5007.4 5040.8 4999.3 5034.9 4996.2 5044.4" clip-path="url(#a)" fill="none" stroke="#000" stroke-linecap="round"/>
<polyline points="4996.2 5044.4 4993.1 5034.9 4996.2 5025.4 4999.3 5015.9 5002.4 5006.4 4992.4 5006.4 5000.5 5000.5 5010.5 5000.5 5020.5 5000.5 5030.5 5000.5 5027.4 4991 5035.5 4996.9 5038.6 5006.4 5041.7 5015.9 5044.8 5025.4 5052.9 5019.5 5049.8 5029 5041.7 5034.9 5033.6 5040.8 5025.5 5046.7 5033.6 5052.5 5023.6 5052.5 5015.5 5046.7 5007.4 5040.8 4999.3 5034.9 4996.2 5044.4 4993.1 5034.9 4996.2 5025.4 4999.3 5015.9 5002.4 5006.4 4992.4 5006.4 5000.5 5000.5 5010.5 5000.5 5020.5 5000.5 5030.5 5000.5 5027.4 4991 5035.5 4996.9 5038.6 5006.4 5041.7 5015.9 5044.8 5025.4 5052.9 5019.5 5049.8 5029 5041.7 5034.9" clip-path="url(#a)" fill="none" stroke="#000" stroke-linecap="round"/>
<polyline points="5041.7 5034.9 5033.6 5040.8 5025.5 5046.7 5033.6 5052.5 5023.6 5052.5 5015.5 5046.7 5007.4 5040.8 4999.3 5034.9 4996.2 5044.4 4993.1 5034.9 4996.2 5025.4 4999.3 5015.9 5002.4 5006.4 4992.4 5006.4 5000.5 5000.5 5010.5 5000.5 5020.5 5000.5 5030.5 5000.5 5027.4 4991 5035.5 4996.9 5038.6 5006.4 5041.7 5015.9 5044.8 5025.4 5052.9 5019.5 5049.8 5029 5041.7 5034.9 5033.6 5040.8 5025.5 5046.7 5033.6 5052.5 5023.6 5052.5 5015.5 5046.7 5007.4 5040.8 4999.3 5034.9 4996.2 5044.4 4993.1 5034.9 4996.2 5025.4 4999.3 5015.9 5002.4 5006.4 4992.4 5006.4 5000.5 5000.5 5010.5 5000.5 5020.5 5000.5 5030.5 5000.5" clip-path="url(#a)" fill="none" stroke="#000" stroke-linecap="round"/>
<polyline points="5030.5 5000.5 5027.4 4991 5035.5 4996.9 5038.6 5006.4 5041.7 5015.9 5044.8 5025.4 5052.9 5019.5 5049.8 5029 5041.7 5034.9 5033.6 5040.8 5025.5 5046.7 5033.6 5052.5 5023.6 5052.5 5015.5 5046.7 5007.4 5040.8 4999.3 5034.9 4996.2 5044.4 4993.1 5034.9 4996.2 5025.4 4999.3 5015.9 5002.4 5006.4 4992.4 5006.4 5000.5 5000.5 5010.5 5000.5 5020.5 5000.5 5030.5 5000.5 5027.4 4991 5035.5 4996.9 5038.6 5006.4 5041.7 5015.9 5044.8 5025.4 5052.9 5019.5 5049.8 5029 5041.7 5034.9 5033.6 5040.8 5025.5 5046.7 5033.6 5052.5 5023.6 5052.5 5015.5 5046.7 5007.4 5040.8 4999.3 5034.9 4996.2 5044.4 4993.1 5034.9" clip-path="url(#a)" fill="none" stroke="#000" stroke-linecap="round"/>
<polyline points="4993.1 5034.9 4996.2 5025.4 4999.3 5015.9 5002.4 5006.4 4992.4 5006.4 5000.5 5000.5 5010.5 5000.5 5020.5 5000.5 5030.5 5000.5 5027.4 4991 5035.5 4996.9 5038.6 5006.4 5041.7 5015.9 5044.8 5025.4 5052.9 5019.5 5049.8 5029 5041.7 5034.9 5033.6 5040.8 5025.5 5046.7 5033.6 5052.5 5023.6 5052.5 5015.5 5046.7 5007.4 5040.8 4999.3 5034.9 4996.2 5044.4 4993.1 5034.9 4996.2 5025.4 4999.3 5015.9 5002.4 5006.4 4992.4 5006.4 5000.5 5000.5 5010.5 5000.5 5020.5 5000.5 5030.5 5000.5 5027.4 4991 5035.5 4996.9 5038.6 5006.4 5041.7 5015.9 5044.8 5025.4 5052.9 5019.5 5049.8 5029 5041.7 5034.9 5033.6 5040.8" clip-path="url(#a)" fill="none" stroke="#000" stroke-linecap="round"/>
<polyline points="5033.6 5040.8 5025.5 5046.7 5033.6 5052.5 5023.6 5052.5 5015.5 5046.7 5007.4 5040.8 4999.3 5034.9 4996.2 5044.4 4993.1 5034.9 4996.2 5025.4 4999.3 5015.9 5002.4 5006.4 4992.4 5006.4 5000.5 5000.5 5010.5 5000.5 5020.5 5000.5 5030.5 5000.5 5027.4 4991 5035.5 4996.9 5038.6 5006.4 5041.7 5015.9 5044.8 5025.4 5052.9 5019.5 5049.8 5029 5041.7 5034.9 5033.6 5040.8 5025.5 5046.7 5033.6 5052.5 5023.6 5052.5 5015.5 5046.7 5007.4 5040.8 4999.3 5034.9 4996.2 5044.4 4993.1 5034.9 4996.2 5025.4 4999.3 5015.9 5002.4 5006.4 4992.4 5006.4 5000.5 5000.5 5010.5 5000.5 5020.5 5000.5 5030.5 5000.5 5027.4 4991" clip-path="url(#a)" fill="none" stroke="#000" stroke-linecap="round"/>
<polyline points="5027.4 4991 5035.5 4996.9 5038.6 5006.4 5041.7 5015.9 5044.8 5025.4 5052.9 5019.5 5049.8 5029 5041.7 5034.9 5033.6 5040.8 5025.5 5046.7 5033.6 5052.5 5023.6 5052.5 5015.5 5046.7 5007.4 5040.8 4999.3 5034.9 4996.2 5044.4 4993.1 5034.9 4996.2 5025.4 4999.3 5015.9 5002.4 5006.4 4992.4 5006.4 5000.5 5000.5 5010.5 5000.5 5020.5 5000.5 5030.5 5000.5 5027.4 4991 5035.5 4996.9 5038.6 5006.4 5041.7 5015.9 5044.8 5025.4 5052.9 5019.5 5049.8 5029 5041.7 5034.9 5033.6 5040.8 5025.5 5046.7 5033.6 5052.5 5023.6 5052.5 5015.5 5046.7 5007.4 5040.8 4999.3 5034.9 4996.2 5044.4 4993.1 5034.9 4996.2 5025.4" clip-path="url(#a)" fill="none" stroke="#000" stroke-linecap="round"/>
<polyline points="4996.2 5025.4 4999.3 5015.9 5002.4 5006.4 4992.4 5006.4 5000.5 5000.5 5010.5 5000.5 5020.5 5000.5 5030.5 5000.5 5027.4 4991 5035.5 4996.9 5038.6 5006.4 5041.7 5015.9 5044.8 5025.4 5052.9 5019.5 5049.8 5029 5041.7 5034.9 5033.6 5040.8 5025.5 5046.7 5033.6 5052.5 5023.6 5052.5 5015.5 5046.7 5007.4 5040.8 4999.3 5034.9 4996.2 5044.4 4993.1 5034.9 4996.2 5025.4 4999.3 5015.9 5002.4 5006.4 4992.4 5006.4 5000.5 5000.5 5010.5 5000.5 5020.5 5000.5 5030.5 5000.5 5027.4 4991 5035.5 4996.9 5038.6 5006.4 5041.7 5015.9 5044.8 5025.4 5052.9 5019.5 5049.8 5029 5041.7 5034.9 5033.6 5040.8 5025.5 5046.7" clip-path="url(#a)" fill="none" stroke="#000" stroke-linecap="round"/>
<polyline points="5025.5 5046.7 5033.6 5052.5 5023.6 5052.5 5015.5 5046.7 5007.4 5040.8 4999.3 5034.9 4996.2 5044.4 4993.1 5034.9 4996.2 5025.4 4999.3 5015.9 5002.4 5006.4 4992.4 5006.4 5000.5 5000.5 5010.5 5000.5 5020.5 5000.5 5030.5 5000.5 5027.4 4991 5035.5 4996.9 5038.6 5006.4 5041.7 5015.9 5044.8 5025.4 5052.9 5019.5 5049.8 5029 5041.7 5034.9 5033.6 5040.8 5025.5 5046.7 5033.6 5052.5 5023.6 5052.5 5015.5 5046.7 5007.4 5040.8 4999.3 5034.9 4996.2 5044.4 4993.1 5034.9 4996.2 5025.4 4999.3 5015.9 5002.4 5006.4 4992.4 5006.4 5000.5 5000.5 5010.5 5000.5 5020.5 5000.5 5030.5 5000.5 5027.4 4991 5035.5 4996.9" clip-path="url(#a)" fill="none" stroke="#000" stroke-linecap="round"/>
<polyline points="5035.5 4996.9 5038.6 5006.4 5041.7 5015.9 5044.8 5025.4 5052.9 5019.5 5049.8 5029 5041.7 5034.9 5033.6 5040.8 5025.5 5046.7 5033.6 5052.5 5023.6 5052.5 5015.5 5046.7 5007.4 5040.8 4999.3 5034.9 4996.2 5044.4 4993.1 5034.9 4996.2 5025.4 4999.3 5015.9 5002.4 5006.4 4992.4 5006.4 5000.5 5000.5 5010.5 5000.5 5020.5 5000.5 5030.5 5000.5 5027.4 4991 5035.5 4996.9 5038.6 5006.4 5041.7 5015.9 5044.8 5025.4 5052.9 5019.5 5049.8 5029 5041.7 5034.9 5033.6 5040.8 5025.5 5046.7 5033.6 5052.5 5023.6 5052.5 5015.5 5046.7 5007.4 5040.8 4999.3 5034.9 4996.2 5044.4 4993.1 5034.9 4996.2 5025.4 4999.3 5015.9" clip-path="url(#a)" fill="none" stroke="#000" stroke-linecap="round"/>
<polyline points="4999.3 5015.9 5002.4 5006.4 4992.4 5006.4 5000.5 5000.5 5010.5 5000.5 5020.5 5000.5 5030.5 5000.5 5027.4 4991 5035.5 4996.9 5038.6 5006.4 5041.7 5015.9 5044.8 5025.4 5052.9 5019.5 5049.8 5029 5041.7 5034.9 5033.6 5040.8 5025.5 5046.7 5033.6 5052.5 5023.6 5052.5 5015.5 5046.7 5007.4 5040.8 4999.3 5034.9 4996.2 5044.4 4993.1 5034.9 4996.2 5025.4 4999.3 5015.9 5002.4 5006.4 4992.4 5006.4 5000.5 5000.5 5010.5 5000.5 5020.5 5000.5 5030.5 5000.5 5027.4 4991 5035.5 4996.9 5038.6 5006.4 5041.7 5015.9 5044.8 5025.4 5052.9 5019.5 5049.8 5029 5041.7 5034.9 5033.6 5040.8 5025.5 5046.7 5033.6 5052.5" clip-path="url(#a)" fill="none" stroke="#000" stroke-linecap="round"/>
<polyline points="5033.6 5052.5 5023.6 5052.5 5015.5 5046.7 5007.4 5040.8 4999.3 5034.9 4996.2 5044.4 4993.1 5034.9 4996.2 5025.4 4999.3 5015.9 5002.4 5006.4 4992.4 5006.4 5000.5 5000.5 5010.5 5000.5 5020.5 5000.5 5030.5 5000.5 5027.4 4991 5035.5 4996.9 5038.6 5006.4 5041.7 5015.9 5044.8 5025.4 5052.9 5019.5 5049.8 5029 5041.7 5034.9 5033.6 5040.8 5025.5 5046.7 5033.6 5052.5 5023.6 5052.5 5015.5 5046.7 5007.4 5040.8 4999.3 5034.9 4996.2 5044.4 4993.1 5034.9 4996.2 5025.4 4999.3 5015.9 5002.4 5006.4 4992.4 5006.4 5000.5 5000.5 5010.5 5000.5 5020.5 5000.5 5030.5 5000.5 5027.4 4991 5035.5 4996.9 5038.6 5006.4" clip-path="url(#a)" fill="none" stroke="#000" stroke-linecap="round"/>
<polyline points="5038.6 5006.4 5041.7 5015.9 5044.8 5025.4 5052.9 5019.5 5049.8 5029 5041.7 5034.9 5033.6 5040.8 5025.5 5046.7 5033.6 5052.5 5023.6 5052.5 5015.5 5046.7 5007.4 5040.8 4999.3 5034.9 4996.2 5044.4 4993.1 5034.9 4996.2 5025.4 4999.3 5015.9 5002.4 5006.4 4992.4 5006.4 5000.5 5000.5 5010.5 5000.5 5020.5 5000.5 5030.5 5000.5 5027.4 4991 5035.5 4996.9 5038.6 5006.4 5041.7 5015.9 5044.8 5025.4 5052.9 5019.5 5049.8 5029 5041.7 5034.9 5033.6 5040.8 5025.5 5046.7 5033.6 5052.5 5023.6 5052.5 5015.5 5046.7 5007.4 5040.8 4999.3 5034.9 4996.2 5044.4 4993.1 5034.9 4996.2 5025.4 4999.3 5015.9 5002.4 5006.4" clip-path="url(#a)" fill="none" stroke="#000" stroke-linecap="round"/>
<polyline points="5002.4 5006.4 4992.4 5006.4 5000.5 5000.5 5010.5 5000.5 5020.5 5000.5 5030.5 5000.5 5027.4 4991 5035.5 4996.9 5038.6 5006.4 5041.7 5015.9 5044.8 5025.4 5052.9 5019.5 5049.8 5029 5041.7 5034.9 5033.6 5040.8 5025.5 5046.7 5033.6 5052.5 5023.6 5052.5 5015.5 5046.7 5007.4 5040.8 4999.3 5034.9 4996.2 5044.4 4993.1 5034.9 4996.2 5025.4 4999.3 5015.9 5002.4 5006.4 4992.4 5006.4 5000.5 5000.5 5010.5 5000.5 5020.5 5000.5 5030.5 5000.5 5027.4 4991 5035.5 4996.9 5038.6 5006.4 5041.7 5015.9 5044.8 5025.4 5052.9 5019.5 5049.8 5029 5041.7 5034.9 5033.6 5040.8 5025.5 5046.7 5033.6 5052.5 5023.6 5052.5" clip-path="url(#a)" fill="none" stroke="#000" stroke-linecap="round"/>
<polyline points="5023.6 5052.5 5015.5 5046.7 5007.4 5040.8 4999.3 5034.9 4996.2 5044.4 4993.1 5034.9 4996.2 5025.4 4999.3 5015.9 5002.4 5006.4 4992.4 5006.4 5000.5 5000.5 5010.5 5000.5 5020.5 5000.5 5030.5 5000.5 5027.4 4991 5035.5 4996.9 5038.6 5006.4 5041.7 5015.9 5044.8 5025.4 5052.9 5019.5 5049.8 5029 5041.7 5034.9 5033.6 5040.8 5025.5 5046.7 5033.6 5052.5 5023.6 5052.5 5015.5 5046.7 5007.4 5040.8 4999.3 5034.9 4996.2 5044.4 4993.1 5034.9 4996.2 5025.4 4999.3 5015.9 5002.4 5006.4 4992.4 5006.4 5000.5 5000.5 5010.5 5000.5 5020.5 5000.5 5030.5 5000.5 5027.4 4991 5035.5 4996.9 5038.6 5006.4 5041.7 5015.9" clip-path="url(#a)" fill="none" stroke="#000" stroke-linecap="round"/>
<polyline points="5041.7 5015.9 5044.8 5025.4 5052.9 5019.5 5049.8 5029 5041.7 5034.9 5033.6 5040.8 5025.5 5046.7 5033.6 5052.5 5023.6 5052.5 5015.5 5046.7 5007.4 5040.8 4999.3 5034.9 4996.2 5044.4 4993.1 5034.9 4996.2 5025.4 4999.3 5015.9 5002.4 5006.4 4992.4 5006.4 5000.5 5000.5 5010.5 5000.5 5020.5 5000.5 5030.5 5000.5 5027.4 4991 5035.5 4996.9 5038.6 5006.4 5041.7 5015.9 5044.8 5025.4 5052.9 5019.5 5049.8 5029 5041.7 5034.9 5033.6 5040.8 5025.5 5046.7 5033.6 5052.5 5023.6 5052.5 5015.5 5046.7 5007.4 5040.8 4999.3 5034.9 4996.2 5044.4 4993.1 5034.9 4996.2 5025.4 4999.3 5015.9 5002.4 5006.4 4992.4 5006.4" clip-path="url(#a)" fill="none" stroke="#000" stroke-linecap="round"/>
<polyline points="4992.4 5006.4 5000.5 5000.5 5010.5 5000.5 5020.5 5000.5 5030.5 5000.5 5027.4 4991 5035.5 4996.9 5038.6 5006.4 5041.7 5015.9 5044.8 5025.4 5052.9 5019.5 5049.8 5029 5041.7 5034.9 5033.6 5040.8 5025.5 5046.7 5033.6 5052.5 5023.6 5052.5 5015.5 5046.7 5007.4 5040.8 4999.3 5034.9 4996.2 5044.4 4993.1 5034.9 4996.2 5025.4 4999.3 5015.9 5002.4 5006.4 4992.4 5006.4 5000.5 5000.5 5010.5 5000.5 5020.5 5000.5 5030.5 5000.5 5027.4 4991 5035.5 4996.9 5038.6 5006.4 5041.7 5015.9 5044.8 5025.4 5052.9 5019.5 5049.8 5029 5041.7 5034.9 5033.6 5040.8 5025.5 5046.7 5033.6 5052.5 5023.6 5052.5 5015.5 5046.7" clip-path="url(#a)" fill="none" stroke="#000" stroke-linecap="round"/>
<polyline points="5015.5 5046.7 5007.4 5040.8 4999.3 5034.9 4996.2 5044.4 4993.1 5034.9 4996.2 5025.4 4999.3 5015.9 5002.4 5006.4 4992.4 5006.4 5000.5 5000.5 5010.5 5000.5 5020.5 5000.5 5030.5 5000.5 5027.4 4991 5035.5 4996.9 5038.6 5006.4 5041.7 5015.9 5044.8 5025.4 5052.9 5019.5 5049.8 5029 5041.7 5034.9 5033.6 5040.8 5025.5 5046.7 5033.6 5052.5 5023.6 5052.5 5015.5 5046.7 5007.4 5040.8 4999.3 5034.9 4996.2 5044.4 4993.1 5034.9 4996.2 5025.4 4999.3 5015.9 5002.4 5006.4 4992.4 5006.4 5000.5 5000.5 5010.5 5000.5 5020.5 5000.5 5030.5 5000.5 5027.4 4991 5035.5 4996.9 5038.6 5006.4 5041.7 5015.9 5044.8 5025.4" clip-path="url(#a)" fill="none" stroke="#000" stroke-linecap="round"/>
<polyline points="5044.8 5025.4 5052.9 5019.5 5049.8 5029 5041.7 5034.9 5033.6 5040.8 5025.5 5046.7 5033.6 5052.5 5023.6 5052.5 5015.5 5046.7 5007.4 5040.8 4999.3 5034.9 4996.2 5044.4 4993.1 5034.9 4996.2 5025.4 4999.3 5015.9 5002.4 5006.4 4992.4 5006.4 5000.5 5000.5 5010.5 5000.5 5020.5 5000.5 5030.5 5000.5 5027.4 4991 5035.5 4996.9 5038.6 5006.4 5041.7 5015.9 5044.8 5025.4 5052.9 5019.5 5049.8 5029 5041.7 5034.9 5033.6 5040.8 5025.5 5046.7 5033.6 5052.5 5023.6 5052.5 5015.5 5046.7 5007.4 5040.8 4999.3 5034.9 4996.2 5044.4 4993.1 5034.9 4996.2 5025.4 4999.3 5015.9 5002.4 5006.4 4992.4 5006.4 5000.5 5000.5" clip-path="url(#a)" fill="none" stroke="#000" stroke-linecap="round"/>
<polyline points="5000.5 5000.5 5010.5 5000.5 5020.5 5000.5 5030.5 5000.5 5027.4 4991 5035.5 4996.9 5038.6 5006.4 5041.7 5015.9 5044.8 5025.4 5052.9 5019.5 5049.8 5029 5041.7 5034.9 5033.6 5040.8 5025.5 5046.7 5033.6 5052.5 5023.6 5052.5 5015.5 5046.7 5007.4 5040.8 4999.3 5034.9 4996.2 5044.4 4993.1 5034.9 4996.2 5025.4 4999.3 5015.9 5002.4 5006.4 4992.4 5006.4 5000.5 5000.5 5010.5 5000.5 5020.5 5000.5 5030.5 5000.5 5027.4 4991 5035.5 4996.9 5038.6 5006.4 5041.7 5015.9 5044.8 5025.4 5052.9 5019.5 5049.8 5029 5041.7 5034.9 5033.6 5040.8 5025.5 5046.7 5033.6 5052.5 5023.6 5052.5 5015.5 5046.7 5007.4 5040.8" clip-path="url(#a)" fill="none" stroke="#000" stroke-linecap="round"/>
<polyline points="5007.4 5040.8 4999.3 5034.9 4996.2 5044.4 4993.1 5034.9 4996.2 5025.4 4999.3 5015.9 5002.4 5006.4 4992.4 5006.4 5000.5 5000.5 5010.5 5000.5 5020.5 5000.5 5030.5 5000.5 5027.4 4991 5035.5 4996.9 5038.6 5006.4 5041.7 5015.9 5044.8 5025.4 5052.9 5019.5 5049.8 5029 5041.7 5034.9 5033.6 5040.8 5025.5 5046.7 5033.6 5052.5 5023.6 5052.5 5015.5 5046.7 5007.4 5040.8 4999.3 5034.9 4996.2 5044.4 4993.1 5034.9 4996.2 5025.4 4999.3 5015.9 5002.4 5006.4 4992.4 5006.4 5000.5 5000.5 5010.5 5000.5 5020.5 5000.5 5030.5 5000.5 5027.4 4991 5035.5 4996.9 5038.6 5006.4 5041.7 5015.9 5044.8 5025.4 5052.9 5019.5" clip-path="url(#a)" fill="none" stroke="#000" stroke-linecap="round"/>
<polyline points="5052.9 5019.5 5049.8 5029 5041.7 5034.9 5033.6 5040.8 5025.5 5046.7 5033.6 5052.5 5023.6 5052.5 5015.5 5046.7 5007.4 5040.8 4999.3 5034.9 4996.2 5044.4 4993.1 5034.9 4996.2 5025.4 4999.3 5015.9 5002.4 5006.4 4992.4 5006.4 5000.5 5000.5 5010.5 5000.5 5020.5 5000.5 5030.5 5000.5 5027.4 4991 5035.5 4996.9 5038.6 5006.4 5041.7 5015.9 5044.8 5025.4 5052.9 5019.5 5049.8 5029 5041.7 5034.9 5033.6 5040.8 5025.5 5046.7 5033.6 5052.5 5023.6 5052.5 5015.5 5046.7 5007.4 5040.8 4999.3 5034.9 4996.2 5044.4 4993.1 5034.9 4996.2 5025.4 4999.3 5015.9 5002.4 5006.4 4992.4 5006.4 5000.5 5000.5 5010.5 5000.5" clip-path="url(#a)" fill="none" stroke="#000" stroke-linecap="round"/>
<polyline points="5010.5 5000.5 5020.5 5000.5 5030.5 5000.5 5027.4 4991 5035.5 4996.9 5038.6 5006.4 5041.7 5015.9 5044.8 5025.4 5052.9 5019.5 5049.8 5029 5041.7 5034.9 5033.6 5040.8 5025.5 5046.7 5033.6 5052.5 5023.6 5052.5 5015.5 5046.7 5007.4 5040.8 4999.3 5034.9 4996.2 5044.4 4993.1 5034.9 4996.2 5025.4 4999.3 5015.9 5002.4 5006.4 4992.4 5006.4 5000.5 5000.5 5010.5 5000.5 5020.5 5000.5 5030.5 5000.5 5027.4 4991 5035.5 4996.9 5038.6 5006.4 5041.7 5015.9 5044.8 5025.4 5052.9 5019.5 5049.8 5029 5041.7 5034.9 5033.6 5040.8 5025.5 5046.7 5033.6 5052.5 5023.6 5052.5 5015.5 5046.7 5007.4 5040.8 4999.3 5034.9" clip-path="url(#a)" fill="none" stroke="#000" stroke-linecap="round"/>
<polyline points="4999.3 5034.9 4996.2 5044.4 4993.1 5034.9 4996.2 5025.4 4999.3 5015.9 5002.4 5006.4 4992.4 5006.4 5000.5 5000.5 5010.5 5000.5 5020.5 5000.5 5030.5 5000.5 5027.4 4991 5035.5 4996.9 5038.6 5006.4 5041.7 5015.9 5044.8 5025.4 5052.9 5019.5 5049.8 5029 5041.7 5034.9 5033.6 5040.8 5025.5 5046.7 5033.6 5052.5 5023.6 5052.5 5015.5 5046.7 5007.4 5040.8 4999.3 5034.9 4996.2 5044.4 4993.1 5034.9 4996.2 5025.4 4999.3 5015.9 5002.4 5006.4 4992.4 5006.4 5000.5 5000.5 5010.5 5000.5 5020.5 5000.5 5030.5 5000.5 5027.4 4991 5035.5 4996.9 5038.6 5006.4 5041.7 5015.9 5044.8 5025.4 5052.9 5019.5 5049.8 5029" clip-path="url(#a)" fill="none" stroke="#000" stroke-linecap="round"/>
<polyline points="5049.8 5029 5041.7 5034.9 5033.6 5040.8 5025.5 5046.7 5033.6 5052.5 5023.6 5052.5 5015.5 5046.7 5007.4 5040.8 4999.3 5034.9 4996.2 5044.4 4993.1 5034.9 4996.2 5025.4 4999.3 5015.9 5002.4 5006.4 4992.4 5006.4 5000.5 5000.5 5010.5 5000.5 5020.5 5000.5 5030.5 5000.5 5027.4 4991 5035.5 4996.9 5038.6 5006.4 5041.7 5015.9 5044.8 5025.4 5052.9 5019.5 5049.8 5029 5041.7 5034.9 5033.6 5040.8 5025.5 5046.7 5033.6 5052.5 5023.6 5052.5 5015.5 5046.7 5007.4 5040.8 4999.3 5034.9 4996.2 5044.4 4993.1 5034.9 4996.2 5025.4 4999.3 5015.9 5002.4 5006.4 4992.4 5006.4 5000.5 5000.5 5010.5 5000.5 5020.5 5000.5" clip-path="url(#a)" fill="none" stroke="#000" stroke-linecap="round"/>
<polyline points="5020.5 5000.5 5030.5 5000.5 5027.4 4991 5035.5 4996.9 5038.6 5006.4 5041.7 5015.9 5044.8 5025.4 5052.9 5019.5 5049.8 5029 5041.7 5034.9 5033.6 5040.8 5025.5 5046.7 5033.6 5052.5 5023.6 5052.5 5015.5 5046.7 5007.4 5040.8 4999.3 5034.9 4996.2 5044.4 4993.1 5034.9 4996.2 5025.4 4999.3 5015.9 5002.4 5006.4 4992.4 5006.4 5000.5 5000.5 5010.5 5000.5 5020.5 5000.5 5030.5 5000.5 5027.4 4991 5035.5 4996.9 5038.6 5006.4 5041.7 5015.9 5044.8 5025.4 5052.9 5019.5 5049.8 5029 5041.7 5034.9 5033.6 5040.8 5025.5 5046.7 5033.6 5052.5 5023.6 5052.5 5015.5 5046.7 5007.4 5040.8 4999.3 5034.9 4996.2 5044.4" clip-path="url(#a)" fill="none" stroke="#000" stroke-linecap="round"/>
<polyline points="4996.2 5044.4 4993.1 5034.9 4996.2 5025.4 4999.3 5015.9 5002.4 5006.4 4992.4 5006.4 5000.5 5000.5 5010.5 5000.5 5020.5 5000.5 5030.5 5000.5 5027.4 4991 5035.5 4996.9 5038.6 5006.4 5041.7 5015.9 5044.8 5025.4 5052.9 5019.5 5049.8 5029 5041.7 5034.9 5033.6 5040.8 5025.5 5046.7 5033.6 5052.5 5023.6 5052.5 5015.5 5046.7 5007.4 5040.8 4999.3 5034.9 4996.2 5044.4 4993.1 5034.9 4996.2 5025.4 4999.3 5015.9 5002.4 5006.4 4992.4 5006.4 5000.5 5000.5 5010.5 5000.5 5020.5 5000.5 5030.5 5000.5 5027.4 4991 5035.5 4996.9 5038.6 5006.4 5041.7 5015.9 5044.8 5025.4 5052.9 5019.5 5049.8 5029 5041.7 5034.9" clip-path="url(#a)" fill="none" stroke="#000" stroke-linecap="round"/>
<polyline points="5041.7 5034.9 5033.6 5040.8 5025.5 5046.7 5033.6 5052.5 5023.6 5052.5 5015.5 5046.7 5007.4 5040.8 4999.3 5034.9 4996.2 5044.4 4993.1 5034.9 4996.2 5025.4 4999.3 5015.9 5002.4 5006.4 4992.4 5006.4 5000.5 5000.5 5010.5 5000.5 5020.5 5000.5 5030.5 5000.5 5027.4 4991 5035.5 4996.9 5038.6 5006.4 5041.7 5015.9 5044.8 5025.4 5052.9 5019.5 5049.8 5029 5041.7 5034.9 5033.6 5040.8 5025.5 5046.7 5033.6 5052.5 5023.6 5052.5 5015.5 5046.7 5007.4 5040.8 4999.3 5034.9 4996.2 5044.4 4993.1 5034.9 4996.2 5025.4 4999.3 5015.9 5002.4 5006.4 4992.4 5006.4 5000.5 5000.5 5010.5 5000.5 5020.5 5000.5 5030.5 5000.5" clip-path="url(#a)" fill="none" stroke="#000" stroke-linecap="round"/>
<polyline points="5030.5 5000.5 5027.4 4991 5035.5 4996.9 5038.6 5006.4 5041.7 5015.9 5044.8 5025.4 5052.9 5019.5 5049.8 5029 5041.7 5034.9 5033.6 5040.8 5025.5 5046.7 5033.6 5052.5 5023.6 5052.5 5015.5 5046.7 5007.4 5040.8 4999.3 5034.9 4996.2 5044.4 4993.1 5034.9 4996.2 5025.4 4999.3 5015.9 5002.4 5006.4 4992.4 5006.4 5000.5 5000.5 5010.5 5000.5 5020.5 5000.5 5030.5 5000.5 5027.4 4991 5035.5 4996.9 5038.6 5006.4 5041.7 5015.9 5044.8 5025.4 5052.9 5019.5 5049.8 5029 5041.7 5034.9 5033.6 5040.8 5025.5 5046.7 5033.6 5052.5 5023.6 5052.5 5015.5 5046.7 5007.4 5040.8 4999.3 5034.9 4996.2 5044.4 4993.1 5034.9" clip-path="url(#a)" fill="none" stroke="#000" stroke-linecap="round"/>
<polyline points="4993.1 5034.9 4996.2 5025.4 4999.3 5015.9 5002.4 5006.4 4992.4 5006.4 5000.5 5000.5 5010.5 5000.5 5020.5 5000.5 5030.5 5000.5 5027.4 4991 5035.5 4996.9 5038.6 5006.4 5041.7 5015.9 5044.8 5025.4 5052.9 5019.5 5049.8 5029 5041.7 5034.9 5033.6 5040.8 5025.5 5046.7 5033.6 5052.5 5023.6 5052.5 5015.5 5046.7 5007.4 5040.8 4999.3 5034.9 4996.2 5044.4 4993.1 5034.9 4996.2 5025.4 4999.3 5015.9 5002.4 5006.4 4992.4 5006.4 5000.5 5000.5 5010.5 5000.5 5020.5 5000.5 5030.5 5000.5 5027.4 4991 5035.5 4996.9 5038.6 5006.4 5041.7 5015.9 5044.8 5025.4 5052.9 5019.5 5049.8 5029 5041.7 5034.9 5033.6 5040.8" clip-path="url(#a)" fill="none" stroke="#000" stroke-linecap="round"/>
<polyline points="5033.6 5040.8 5025.5 5046.7 5033.6 5052.5 5023.6 5052.5 5015.5 5046.7 5007.4 5040.8 4999.3 5034.9 4996.2 5044.4 4993.1 5034.9 4996.2 5025.4 4999.3 5015.9 5002.4 5006.4 4992.4 5006.4 5000.5 5000.5 5010.5 5000.5 5020.5 5000.5 5030.5 5000.5 5027.4 4991 5035.5 4996.9 5038.6 5006.4 5041.7 5015.9 5044.8 5025.4 5052.9 5019.5 5049.8 5029 5041.7 5034.9 5033.6 5040.8 5025.5 5046.7 5033.6 5052.5 5023.6 5052.5 5015.5 5046.7 5007.4 5040.8 4999.3 5034.9 4996.2 5044.4 4993.1 5034.9 4996.2 5025.4 4999.3 5015.9 5002.4 5006.4 4992.4 5006.4 5000.5 5000.5 5010.5 5000.5 5020.5 5000.5 5030.5 5000.5 5027.4 4991" clip-path="url(#a)" fill="none" stroke="#000" stroke-linecap="round"/>
<polyline points="5027.4 4991 5035.5 4996.9 5038.6 5006.4 5041.7 5015.9 5044.8 5025.4 5052.9 5019.5 5049.8 5029 5041.7 5034.9 5033.6 5040.8 5025.5 5046.7 5033.6 5052.5 5023.6 5052.5 5015.5 5046.7 5007.4 5040.8 4999.3 5034.9 4996.2 5044.4 4993.1 5034.9 4996.2 5025.4 4999.3 5015.9 5002.4 5006.4 4992.4 5006.4 5000.5 5000.5 5010.5 5000.5 5020.5 5000.5 5030.5 5000.5 5027.4 4991 5035.5 4996.9 5038.6 5006.4 5041.7 5015.9 5044.8 5025.4 5052.9 5019.5 5049.8 5029 5041.7 5034.9 5033.6 5040.8 5025.5 5046.7 5033.6 5052.5 5023.6 5052.5 5015.5 5046.7 5007.4 5040.8 4999.3 5034.9 4996.2 5044.4 4993.1 5034.9 4996.2 5025.4" clip-path="url(#a)" fill="none" stroke="#000" stroke-linecap="round"/>
<polyline points="4996.2 5025.4 4999.3 5015.9 5002.4 5006.4 4992.4 5006.4 5000.5 5000.5 5010.5 5000.5 5020.5 5000.5 5030.5 5000.5 5027.4 4991 5035.5 4996.9 5038.6 5006.4 5041.7 5015.9 5044.8 5025.4 5052.9 5019.5 5049.8 5029 5041.7 5034.9 5033.6 5040.8 5025.5 5046.7 5033.6 5052.5 5023.6 5052.5 5015.5 5046.7 5007.4 5040.8 4999.3 5034.9 4996.2 5044.4 4993.1 5034.9 4996.2 5025.4 4999.3 5015.9 5002.4 5006.4 4992.4 5006.4 5000.5 5000.5 5010.5 5000.5 5020.5 5000.5 5030.5 5000.5 5027.4 4991 5035.5 4996.9 5038.6 5006.4 5041.7 5015.9 5044.8 5025.4 5052.9 5019.5 5049.8 5029 5041.7 5034.9 5033.6 5040.8 5025.5 5046.7" clip-path="url(#a)" fill="none" stroke="#000" stroke-linecap="round"/>
<polyline points="5025.5 5046.7 5033.6 5052.5 5023.6 5052.5 5015.5 5046.7 5007.4 5040.8 4999.3 5034.9 4996.2 5044.4 4993.1 5034.9 4996.2 5025.4 4999.3 5015.9 5002.4 5006.4 4992.4 5006.4 5000.5 5000.5 5010.5 5000.5 5020.5 5000.5 5030.5 5000.5 5027.4 4991 5035.5 4996.9 5038.6 5006.4 5041.7 5015.9 5044.8 5025.4 5052.9 5019.5 5049.8 5029 5041.7 5034.9 5033.6 5040.8 5025.5 5046.7 5033.6 5052.5 5023.6 5052.5 5015.5 5046.7 5007.4 5040.8 4999.3 5034.9 4996.2 5044.4 4993.1 5034.9 4996.2 5025.4 4999.3 5015.9 5002.4 5006.4 4992.4 5006.4 5000.5 5000.5 5010.5 5000.5 5020.5 5000.5 5030.5 5000.5 5027.4 4991 5035.5 4996.9" clip-path="url(#a)" fill="none" stroke="#000" stroke-linecap="round"/>
<polyline points="5035.5 4996.9 5038.6 5006.4 5041.7 5015.9 5044.8 5025.4 5052.9 5019.5 5049.8 5029 5041.7 5034.9 5033.6 5040.8 5025.5 5046.7 5033.6 5052.5 5023.6 5052.5 5015.5 5046.7 5007.4 5040.8 4999.3 5034.9 4996.2 5044.4 4993.1 5034.9 4996.2 5025.4 4999.3 5015.9 5002.4 5006.4 4992.4 5006.4 5000.5 5000.5 5010.5 5000.5 5020.5 5000.5 5030.5 5000.5 5027.4 4991 5035.5 4996.9 5038.6 5006.4 5041.7 5015.9 5044.8 5025.4 5052.9 5019.5 5049.8 5029 5041.7 5034.9 5033.6 5040.8 5025.5 5046.7 5033.6 5052.5 5023.6 5052.5 5015.5 5046.7 5007.4 5040.8 4999.3 5034.9 4996.2 5044.4 4993.1 5034.9 4996.2 5025.4 4999.3 5015.9" clip-path="url(#a)" fill="none" stroke="#000" stroke-linecap="round"/>
<polyline points="4999.3 5015.9 5002.4 5006.4 4992.4 5006.4 5000.5 5000.5 5010.5 5000.5 5020.5 5000.5 5030.5 5000.5 5027.4 4991 5035.5 4996.9 5038.6 5006.4 5041.7 5015.9 5044.8 5025.4 5052.9 5019.5 5049.8 5029 5041.7 5034.9 5033.6 5040.8 5025.5 5046.7 5033.6 5052.5 5023.6 5052.5 5015.5 5046.7 5007.4 5040.8 4999.3 5034.9 4996.2 5044.4 4993.1 5034.9 4996.2 5025.4 4999.3 5015.9 5002.4 5006.4 4992.4 5006.4 5000.5 5000.5 5010.5 5000.5 5020.5 5000.5 5030.5 5000.5 5027.4 4991 5035.5 4996.9 5038.6 5006.4 5041.7 5015.9 5044.8 5025.4 5052.9 5019.5 5049.8 5029 5041.7 5034.9 5033.6 5040.8 5025.5 5046.7 5033.6 5052.5" clip-path="url(#a)" fill="none" stroke="#000" stroke-linecap="round"/>
<polyline points="5033.6 5052.5 5023.6 5052.5 5015.5 5046.7 5007.4 5040.8 4999.3 5034.9 4996.2 5044.4 4993.1 5034.9 4996.2 5025.4 4999.3 5015.9 5002.4 5006.4 4992.4 5006.4 5000.5 5000.5 5010.5 5000.5 5020.5 5000.5 5030.5 5000.5 5027.4 4991 5035.5 4996.9 5038.6 5006.4 5041.7 5015.9 5044.8 5025.4 5052.9 5019.5 5049.8 5029 5041.7 5034.9 5033.6 5040.8 5025.5 5046.7 5033.6 5052.5 5023.6 5052.5 5015.5 5046.7 5007.4 5040.8 4999.3 5034.9 4996.2 5044.4 4993.1 5034.9 4996.2 5025.4 4999.3 5015.9 5002.4 5006.4 4992.4 5006.4 5000.5 5000.5 5010.5 5000.5 5020.5 5000.5 5030.5 5000.5 5027.4 4991 5035.5 4996.9 5038.6 5006.4" clip-path="url(#a)" fill="none" stroke="#000" stroke-linecap="round"/>
<polyline points="5038.6 5006.4 5041.7 5015.9 5044.8 5025.4 5052.9 5019.5 5049.8 5029 5041.7 5034.9 5033.6 5040.8 5025.5 5046.7 5033.6 5052.5 5023.6 5052.5 5015.5 5046.7 5007.4 5040.8 4999.3 5034.9 4996.2 5044.4 4993.1 5034.9 4996.2 5025.4 4999.3 5015.9 5002.4 5006.4 4992.4 5006.4 5000.5 5000.5 5010.5 5000.5 5020.5 5000.5 5030.5 5000.5 5027.4 4991 5035.5 4996.9 5038.6 5006.4 5041.7 5015.9 5044.8 5025.4 5052.9 5019.5 5049.8 5029 5041.7 5034.9 5033.6 5040.8 5025.5 5046.7 5033.6 5052.5 5023.6 5052.5 5015.5 5046.7 5007.4 5040.8 4999.3 5034.9 4996.2 5044.4 4993.1 5034.9 4996.2 5025.4 4999.3 5015.9 5002.4 5006.4" clip-path="url(#a)" fill="none" stroke="#000" stroke-linecap="round"/>
<polyline points="5002.4 5006.4 4992.4 5006.4 5000.5 5000.5 5010.5 5000.5 5020.5 5000.5 5030.5 5000.5 5027.4 4991 5035.5 4996.9 5038.6 5006.4 5041.7 5015.9 5044.8 5025.4 5052.9 5019.5 5049.8 5029 5041.7 5034.9 5033.6 5040.8 5025.5 5046.7 5033.6 5052.5 5023.6 5052.5 5015.5 5046.7 5007.4 5040.8 4999.3 5034.9 4996.2 5044.4 4993.1 5034.9 4996.2 5025.4 4999.3 5015.9 5002.4 5006.4 4992.4 5006.4 5000.5 5000.5 5010.5 5000.5 5020.5 5000.5 5030.5 5000.5 5027.4 4991 5035.5 4996.9 5038.6 5006.4 5041.7 5015.9 5044.8 5025.4 5052.9 5019.5 5049.8 5029 5041.7 5034.9 5033.6 5040.8 5025.5 5046.7 5033.6 5052.5 5023.6 5052.5" clip-path="url(#a)" fill="none" stroke="#000" stroke-linecap="round"/>
<polyline points="5023.6 5052.5 5015.5 5046.7 5007.4 5040.8 4999.3 5034.9 4996.2 5044.4 4993.1 5034.9 4996.2 5025.4 4999.3 5015.9 5002.4 5006.4 4992.4 5006.4 5000.5 5000.5 5010.5 5000.5 5020.5 5000.5 5030.5 5000.5 5027.4 4991 5035.5 4996.9 5038.6 5006.4 5041.7 5015.9 5044.8 5025.4 5052.9 5019.5 5049.8 5029 5041.7 5034.9 5033.6 5040.8 5025.5 5046.7 5033.6 5052.5 5023.6 5052.5 5015.5 5046.7 5007.4 5040.8 4999.3 5034.9 4996.2 5044.4 4993.1 5034.9 4996.2 5025.4 4999.3 5015.9 5002.4 5006.4 4992.4 5006.4 5000.5 5000.5 5010.5 5000.5 5020.5 5000.5 5030.5 5000.5 5027.4 4991 5035.5 4996.9 5038.6 5006.4 5041.7 5015.9" clip-path="url(#a)" fill="none" stroke="#000" stroke-linecap="round"/>
<polyline points="5041.7 5015.9 5044.8 5025.4 5052.9 5019.5 5049.8 5029 5041.7 5034.9 5033.6 5040.8 5025.5 5046.7 5033.6 5052.5 5023.6 5052.5 5015.5 5046.7 5007.4 5040.8 4999.3 5034.9 4996.2 5044.4 4993.1 5034.9 4996.2 5025.4 4999.3 5015.9 5002.4 5006.4 4992.4 5006.4 5000.5 5000.5 5010.5 5000.5 5020.5 5000.5 5030.5 5000.5 5027.4 4991 5035.5 4996.9 5038.6 5006.4 5041.7 5015.9 5044.8 5025.4 5052.9 5019.5 5049.8 5029 5041.7 5034.9 5033.6 5040.8 5025.5 5046.7 5033.6 5052.5 5023.6 5052.5 5015.5 5046.7 5007.4 5040.8 4999.3 5034.9 4996.2 5044.4 4993.1 5034.9 4996.2 5025.4 4999.3 5015.9 5002.4 5006.4 4992.4 5006.4" clip-path="url(#a)" fill="none" stroke="#000" stroke-linecap="round"/>
<polyline points="4992.4 5006.4 5000.5 5000.5 5010.5 5000.5 5020.5 5000.5 5030.5 5000.5 5027.4 4991 5035.5 4996.9 5038.6 5006.4 5041.7 5015.9 5044.8 5025.4 5052.9 5019.5 5049.8 5029 5041.7 5034.9 5033.6 5040.8 5025.5 5046.7 5033.6 5052.5 5023.6 5052.5 5015.5 5046.7 5007.4 5040.8 4999.3 5034.9 4996.2 5044.4 4993.1 5034.9 4996.2 5025.4 4999.3 5015.9 5002.4 5006.4 4992.4 5006.4 5000.5 5000.5 5010.5 5000.5 5020.5 5000.5 5030.5 5000.5 5027.4 4991 5035.5 4996.9 5038.6 5006.4 5041.7 5015.9 5044.8 5025.4 5052.9 5019.5 5049.8 5029 5041.7 5034.9 5033.6 5040.8 5025.5 5046.7 5033.6 5052.5 5023.6 5052.5 5015.5 5046.7" clip-path="url(#a)" fill="none" stroke="#000" stroke-linecap="round"/>
<polyline points="5015.5 5046.7 5007.4 5040.8 4999.3 5034.9 4996.2 5044.4 4993.1 5034.9 4996.2 5025.4 4999.3 5015.9 5002.4 5006.4 4992.4 5006.4 5000.5 5000.5 5010.5 5000.5 5020.5 5000.5 5030.5 5000.5 5027.4 4991 5035.5 4996.9 5038.6 5006.4 5041.7 5015.9 5044.8 5025.4 5052.9 5019.5 5049.8 5029 5041.7 5034.9 5033.6 5040.8 5025.5 5046.7 5033.6 5052.5 5023.6 5052.5 5015.5 5046.7 5007.4 5040.8 4999.3 5034.9 4996.2 5044.4 4993.1 5034.9 4996.2 5025.4 4999.3 5015.9 5002.4 5006.4 4992.4 5006.4 5000.5 5000.5 5010.5 5000.5 5020.5 5000.5 5030.5 5000.5 5027.4 4991 5035.5 4996.9 5038.6 5006.4 5041.7 5015.9 5044.8 5025.4" clip-path="url(#a)" fill="none" stroke="#000" stroke-linecap="round"/>
<polyline points="5044.8 5025.4 5052.9 5019.5 5049.8 5029 5041.7 5034.9 5033.6 5040.8 5025.5 5046.7 5033.6 5052.5 5023.6 5052.5 5015.5 5046.7 5007.4 5040.8 4999.3 5034.9 4996.2 5044.4 4993.1 5034.9 4996.2 5025.4 4999.3 5015.9 5002.4 5006.4 4992.4 5006.4 5000.5 5000.5 5010.5 5000.5 5020.5 5000.5 5030.5 5000.5 5027.4 4991 5035.5 4996.9 5038.6 5006.4 5041.7 5015.9 5044.8 5025.4 5052.9 5019.5 5049.8 5029 5041.7 5034.9 5033.6 5040.8 5025.5 5046.7 5033.6 5052.5 5023.6 5052.5 5015.5 5046.7 5007.4 5040.8 4999.3 5034.9 4996.2 5044.4 4993.1 5034.9 4996.2 5025.4 4999.3 5015.9 5002.4 5006.4 4992.4 5006.4 5000.5 5000.5" clip-path="url(#a)" fill="none" stroke="#000" stroke-linecap="round"/>
<polyline points="5000.5 5000.5 5010.5 5000.5 5020.5 5000.5 5030.5 5000.5 5027.4 4991 5035.5 4996.9 5038.6 5006.4 5041.7 5015.9 5044.8 5025.4 5052.9 5019.5 5049.8 5029 5041.7 5034.9 5033.6 5040.8 5025.5 5046.7 5033.6 5052.5 5023.6 5052.5 5015.5 5046.7 5007.4 5040.8 4999.3 5034.9 4996.2 5044.4 4993.1 5034.9 4996.2 5025.4 4999.3 5015.9 5002.4 5006.4 4992.4 5006.4 5000.5 5000.5 5010.5 5000.5 5020.5 5000.5 5030.5 5000.5 5027.4 4991 5035.5 4996.9 5038.6 5006.4 5041.7 5015.9 5044.8 5025.4 5052.9 5019.5 5049.8 5029 5041.7 5034.9 5033.6 5040.8 5025.5 5046.7 5033.6 5052.5 5023.6 5052.5 5015.5 5046.7 5007.4 5040.8" clip-path="url(#a)" fill="none" stroke="#000" stroke-linecap="round"/>
<polyline points="5007.4 5040.8 4999.3 5034.9 4996.2 5044.4 4993.1 5034.9 4996.2 5025.4 4999.3 5015.9 5002.4 5006.4 4992.4 5006.4 5000.5 5000.5 5010.5 5000.5 5020.5 5000.5 5030.5 5000.5 5027.4 4991 5035.5 4996.9 5038.6 5006.4 5041.7 5015.9 5044.8 5025.4 5052.9 5019.5 5049.8 5029 5041.7 5034.9 5033.6 5040.8 5025.5 5046.7 5033.6 5052.5 5023.6 5052.5 5015.5 5046.7 5007.4 5040.8 4999.3 5034.9 4996.2 5044.4 4993.1 5034.9 4996.2 5025.4 4999.3 5015.9 5002.4 5006.4 4992.4 5006.4 5000.5 5000.5 5010.5 5000.5 5020.5 5000.5 5030.5 5000.5 5027.4 4991 5035.5 4996.9 5038.6 5006.4 5041.7 5015.9 5044.8 5025.4 5052.9 5019.5" clip-path="url(#a)" fill="none" stroke="#000" stroke-linecap="round"/>
<polyline points="5052.9 5019.5 5049.8 5029 5041.7 5034.9 5033.6 5040.8 5025.5 5046.7 5033.6 5052.5 5023.6 5052.5 5015.5 5046.7 5007.4 5040.8 4999.3 5034.9 4996.2 5044.4 4993.1 5034.9 4996.2 5025.4 4999.3 5015.9 5002.4 5006.4 4992.4 5006.4 5000.5 5000.5 5010.5 5000.5 5020.5 5000.5 5030.5 5000.5 5027.4 4991 5035.5 4996.9 5038.6 5006.4 5041.7 5015.9 5044.8 5025.4 5052.9 5019.5 5049.8 5029 5041.7 5034.9 5033.6 5040.8 5025.5 5046.7 5033.6 5052.5 5023.6 5052.5 5015.5 5046.7 5007.4 5040.8 4999.3 5034.9 4996.2 5044.4 4993.1 5034.9 4996.2 5025.4 4999.3 5015.9 5002.4 5006.4 4992.4 5006.4 5000.5 5000.5 5010.5 5000.5" clip-path="url(#a)" fill="none" stroke="#000" stroke-linecap="round"/>
<polyline points="5010.5 5000.5 5020.5 5000.5 5030.5 5000.5 5027.4 4991 5035.5 4996.9 5038.6 5006.4 5041.7 5015.9 5044.8 5025.4 5052.9 5019.5 5049.8 5029 5041.7 5034.9 5033.6 5040.8 5025.5 5046.7 5033.6 5052.5 5023.6 5052.5 5015.5 5046.7 5007.4 5040.8 4999.3 5034.9 4996.2 5044.4 4993.1 5034.9 4996.2 5025.4 4999.3 5015.9 5002.4 5006.4 4992.4 5006.4 5000.5 5000.5 5010.5 5000.5 5020.5 5000.5 5030.5 5000.5 5027.4 4991 5035.5 4996.9 5038.6 5006.4 5041.7 5015.9 5044.8 5025.4 5052.9 5019.5 5049.8 5029 5041.7 5034.9 5033.6 5040.8 5025.5 5046.7 5033.6 5052.5 5023.6 5052.5 5015.5 5046.7 5007.4 5040.8 4999.3 5034.9" clip-path="url(#a)" fill="none" stroke="#000" stroke-linecap="round"/>
<polyline points="4999.3 5034.9 4996.2 5044.4 4993.1 5034.9 4996.2 5025.4 4999.3 5015.9 5002.4 5006.4 4992.4 5006.4 5000.5 5000.5 5010.5 5000.5 5020.5 5000.5 5030.5 5000.5 5027.4 4991 5035.5 4996.9 5038.6 5006.4 5041.7 5015.9 5044.8 5025.4 5052.9 5019.5 5049.8 5029 5041.7 5034.9 5033.6 5040.8 5025.5 5046.7 5033.6 5052.5 5023.6 5052.5 5015.5 5046.7 5007.4 5040.8 4999.3 5034.9 4996.2 5044.4 4993.1 5034.9 4996.2 5025.4 4999.3 5015.9 5002.4 5006.4 4992.4 5006.4 5000.5 5000.5 5010.5 5000.5 5020.5 5000.5 5030.5 5000.5 5027.4 4991 5035.5 4996.9 5038.6 5006.4 5041.7 5015.9 5044.8 5025.4 5052.9 5019.5 5049.8 5029" clip-path="url(#a)" fill="none" stroke="#000" stroke-linecap="round"/>
<polyline points="5049.8 5029 5041.7 5034.9 5033.6 5040.8 5025.5 5046.7 5033.6 5052.5 5023.6 5052.5 5015.5 5046.7 5007.4 5040.8 4999.3 5034.9 4996.2 5044.4 4993.1 5034.9 4996.2 5025.4 4999.3 5015.9 5002.4 5006.4 4992.4 5006.4 5000.5 5000.5 5010.5 5000.5 5020.5 5000.5 5030.5 5000.5 5027.4 4991 5035.5 4996.9 5038.6 5006.4 5041.7 5015.9 5044.8 5025.4 5052.9 5019.5 5049.8 5029 5041.7 5034.9 5033.6 5040.8 5025.5 5046.7 5033.6 5052.5 5023.6 5052.5 5015.5 5046.7 5007.4 5040.8 4999.3 5034.9 4996.2 5044.4 4993.1 5034.9 4996.2 5025.4 4999.3 5015.9 5002.4 5006.4 4992.4 5006.4 5000.5 5000.5 5010.5 5000.5 5020.5 5000.5" clip-path="url(#a)" fill="none" stroke="#000" stroke-linecap="round"/>
<polyline points="5020.5 5000.5 5030.5 5000.5 5027.4 4991 5035.5 4996.9 5038.6 5006.4 5041.7 5015.9 5044.8 5025.4 5052.9 5019.5 5049.8 5029 5041.7 5034.9 5033.6 5040.8 5025.5 5046.7 5033.6 5052.5 5023.6 5052.5 5015.5 5046.7 5007.4 5040.8 4999.3 5034.9 4996.2 5044.4 4993.1 5034.9 4996.2 5025.4 4999.3 5015.9 5002.4 5006.4 4992.4 5006.4 5000.5 5000.5 5010.5 5000.5 5020.5 5000.5 5030.5 5000.5 5027.4 4991 5035.5 4996.9 5038.6 5006.4 5041.7 5015.9 5044.8 5025.4 5052.9 5019.5 5049.8 5029 5041.7 5034.9 5033.6 5040.8 5025.5 5046.7 5033.6 5052.5 5023.6 5052.5 5015.5 5046.7 5007.4 5040.8 4999.3 5034.9 4996.2 5044.4" clip-path="url(#a)" fill="none" stroke="#000" stroke-linecap="round"/>
<polyline points="4996.2 5044.4 4993.1 5034.9 4996.2 5025.4 4999.3 5015.9 5002.4 5006.4 4992.4 5006.4 5000.5 5000.5 5010.5 5000.5 5020.5 5000.5 5030.5 5000.5 5027.4 4991 5035.5 4996.9 5038.6 5006.4 5041.7 5015.9 5044.8 5025.4 5052.9 5019.5 5049.8 5029 5041.7 5034.9 5033.6 5040.8 5025.5 5046.7 5033.6 5052.5 5023.6 5052.5 5015.5 5046.7 5007.4 5040.8 4999.3 5034.9 4996.2 5044.4 4993.1 5034.9 4996.2 5025.4 4999.3 5015.9 5002.4 5006.4 4992.4 5006.4 5000.5 5000.5 5010.5 5000.5 5020.5 5000.5 5030.5 5000.5 5027.4 4991 5035.5 4996.9 5038.6 5006.4 5041.7 5015.9 5044.8 5025.4 5052.9 5019.5 5049.8 5029 5041.7 5034.9" clip-path="url(#a)" fill="none" stroke="#000" stroke-linecap="round"/>
<polyline points="5041.7 5034.9 5033.6 5040.8 5025.5 5046.7 5033.6 5052.5 5023.6 5052.5 5015.5 5046.7 5007.4 5040.8 4999.3 5034.9 4996.2 5044.4 4993.1 5034.9 4996.2 5025.4 4999.3 5015.9 5002.4 5006.4 4992.4 5006.4 5000.5 5000.5 5010.5 5000.5 5020.5 5000.5 5030.5 5000.5 5027.4 4991 5035.5 4996.9 5038.6 5006.4 5041.7 5015.9 5044.8 5025.4 5052.9 5019.5 5049.8 5029 5041.7 5034.9 5033.6 5040.8 5025.5 5046.7 5033.6 5052.5 5023.6 5052.5 5015.5 5046.7 5007.4 5040.8 4999.3 5034.9 4996.2 5044.4 4993.1 5034.9 4996.2 5025.4 4999.3 5015.9 5002.4 5006.4 4992.4 5006.4 5000.5 5000.5 5010.5 5000.5 5020.5 5000.5 5030.5 5000.5" clip-path="url(#a)" fill="none" stroke="#000" stroke-linecap="round"/>
<polyline points="5030.5 5000.5 5027.4 4991 5035.5 4996.9 5038.6 5006.4 5041.7 5015.9 5044.8 5025.4 5052.9 5019.5 5049.8 5029 5041.7 5034.9 5033.6 5040.8 5025.5 5046.7 5033.6 5052.5 5023.6 5052.5 5015.5 5046.7 5007.4 5040.8 4999.3 5034.9 4996.2 5044.4 4993.1 5034.9 4996.2 5025.4 4999.3 5015.9 5002.4 5006.4 4992.4 5006.4 5000.5 5000.5 5010.5 5000.5 5020.5 5000.5 5030.5 5000.5 5027.4 4991 5035.5 4996.9 5038.6 5006.4 5041.7 5015.9 5044.8 5025.4 5052.9 5019.5 5049.8 5029 5041.7 5034.9 5033.6 5040.8 5025.5 5046.7 5033.6 5052.5 5023.6 5052.5 5015.5 5046.7 5007.4 5040.8 4999.3 5034.9 4996.2 5044.4 4993.1 5034.9" clip-path="url(#a)" fill="none" stroke="#000" stroke-linecap="round"/>
<polyline points="4993.1 5034.9 4996.2 5025.4 4999.3 5015.9 5002.4 5006.4 4992.4 5006.4 5000.5 5000.5 5010.5 5000.5 5020.5 5000.5 5030.5 5000.5 5027.4 4991 5035.5 4996.9 5038.6 5006.4 5041.7 5015.9 5044.8 5025.4 5052.9 5019.5 5049.8 5029 5041.7 5034.9 5033.6 5040.8 5025.5 5046.7 5033.6 5052.5 5023.6 5052.5 5015.5 5046.7 5007.4 5040.8 4999.3 5034.9 4996.2 5044.4 4993.1 5034.9 4996.2 5025.4 4999.3 5015.9 5002.4 5006.4 4992.4 5006.4 5000.5 5000.5 5010.5 5000.5 5020.5 5000.5 5030.5 5000.5 5027.4 4991 5035.5 4996.9 5038.6 5006.4 5041.7 5015.9 5044.8 5025.4 5052.9 5019.5 5049.8 5029 5041.7 5034.9 5033.6 5040.8" clip-path="url(#a)" fill="none" stroke="#000" stroke-linecap="round"/>
<polyline points="5033.6 5040.8 5025.5 5046.7 5033.6 5052.5 5023.6 5052.5 5015.5 5046.7 5007.4 5040.8 4999.3 5034.9 4996.2 5044.4 4993.1 5034.9 4996.2 5025.4 4999.3 5015.9 5002.4 5006.4 4992.4 5006.4 5000.5 5000.5 5010.5 5000.5 5020.5 5000.5 5030.5 5000.5 5027.4 4991 5035.5 4996.9 5038.6 5006.4 5041.7 5015.9 5044.8 5025.4 5052.9 5019.5 5049.8 5029 5041.7 5034.9 5033.6 5040.8 5025.5 5046.7 5033.6 5052.5 5023.6 5052.5 5015.5 5046.7 5007.4 5040.8 4999.3 5034.9 4996.2 5044.4 4993.1 5034.9 4996.2 5025.4 4999.3 5015.9 5002.4 5006.4 4992.4 5006.4 5000.5 5000.5 5010.5 5000.5 5020.5 5000.5 5030.5 5000.5 5027.4 4991" clip-path="url(#a)" fill="none" stroke="#000" stroke-linecap="round"/>
<polyline points="5027.4 4991 5035.5 4996.9 5038.6 5006.4 5041.7 5015.9 5044.8 5025.4 5052.9 5019.5 5049.8 5029 5041.7 5034.9 5033.6 5040.8 5025.5 5046.7 5033.6 5052.5 5023.6 5052.5 5015.5 5046.7 5007.4 5040.8 4999.3 5034.9 4996.2 5044.4 4993.1 5034.9 4996.2 5025.4 4999.3 5015.9 5002.4 5006.4 4992.4 5006.4 5000.5 5000.5 5010.5 5000.5 5020.5 5000.5 5030.5 5000.5 5027.4 4991 5035.5 4996.9 5038.6 5006.4 5041.7 5015.9 5044.8 5025.4 5052.9 5019.5 5049.8 5029 5041.7 5034.9 5033.6 5040.8 5025.5 5046.7 5033.6 5052.5 5023.6 5052.5 5015.5 5046.7 5007.4 5040.8 4999.3 5034.9 4996.2 5044.4 4993.1 5034.9 4996.2 5025.4" clip-path="url(#a)" fill="none" stroke="#000" stroke-linecap="round"/>
<polyline points="4996.2 5025.4 4999.3 5015.9 5002.4 5006.4 4992.4 5006.4 5000.5 5000.5 5010.5 5000.5 5020.5 5000.5 5030.5 5000.5 5027.4 4991 5035.5 4996.9 5038.6 5006.4 5041.7 5015.9 5044.8 5025.4 5052.9 5019.5 5049.8 5029 5041.7 5034.9 5033.6 5040.8 5025.5 5046.7 5033.6 5052.5 5023.6 5052.5 5015.5 5046.7 5007.4 5040.8 4999.3 5034.9 4996.2 5044.4 4993.1 5034.9 4996.2 5025.4 4999.3 5015.9 5002.4 5006.4 4992.4 5006.4 5000.5 5000.5 5010.5 5000.5 5020.5 5000.5 5030.5 5000.5 5027.4 4991 5035.5 4996.9 5038.6 5006.4 5041.7 5015.9 5044.8 5025.4 5052.9 5019.5 5049.8 5029 5041.7 5034.9 5033.6 5040.8 5025.5 5046.7" clip-path="url(#a)" fill="none" stroke="#000" stroke-linecap="round"/>
<polyline points="5025.5 5046.7 5033.6 5052.5 5023.6 5052.5 5015.5 5046.7 5007.4 5040.8 4999.3 5034.9 4996.2 5044.4 4993.1 5034.9 4996.2 5025.4 4999.3 5015.9 5002.4 5006.4 4992.4 5006.4 5000.5 5000.5 5010.5 5000.5 5020.5 5000.5 5030.5 5000.5 5027.4 4991 5035.5 4996.9 5038.6 5006.4 5041.7 5015.9 5044.8 5025.4 5052.9 5019.5 5049.8 5029 5041.7 5034.9 5033.6 5040.8 5025.5 5046.7 5033.6 5052.5 5023.6 5052.5 5015.5 5046.7 5007.4 5040.8 4999.3 5034.9 4996.2 5044.4 4993.1 5034.9 4996.2 5025.4 4999.3 5015.9 5002.4 5006.4 4992.4 5006.4 5000.5 5000.5 5010.5 5000.5 5020.5 5000.5 5030.5 5000.5 5027.4 4991 5035.5 4996.9" clip-path="url(#a)" fill="none" stroke="#000" stroke-linecap="round"/>
<polyline points="5035.5 4996.9 5038.6 5006.4 5041.7 5015.9 5044.8 5025.4 5052.9 5019.5 5049.8 5029 5041.7 5034.9 5033.6 5040.8 5025.5 5046.7 5033.6 5052.5 5023.6 5052.5 5015.5 5046.7 5007.4 5040.8 4999.3 5034.9 4996.2 5044.4 4993.1 5034.9 4996.2 5025.4 4999.3 5015.9 5002.4 5006.4 4992.4 5006.4 5000.5 5000.5 5010.5 5000.5 5020.5 5000.5 5030.5 5000.5 5027.4 4991 5035.5 4996.9 5038.6 5006.4 5041.7 5015.9 5044.8 5025.4 5052.9 5019.5 5049.8 5029 5041.7 5034.9 5033.6 5040.8 5025.5 5046.7 5033.6 5052.5 5023.6 5052.5 5015.5 5046.7 5007.4 5040.8 4999.3 5034.9 4996.2 5044.4 4993.1 5034.9 4996.2 5025.4 4999.3 5015.9" clip-path="url(#a)" fill="none" stroke="#000" stroke-linecap="round"/>
<polyline points="4999.3 5015.9 5002.4 5006.4 4992.4 5006.4 5000.5 5000.5 5010.5 5000.5 5020.5 5000.5 5030.5 5000.5 5027.4 4991 5035.5 4996.9 5038.6 5006.4 5041.7 5015.9 5044.8 5025.4 5052.9 5019.5 5049.8 5029 5041.7 5034.9 5033.6 5040.8 5025.5 5046.7 5033.6 5052.5 5023.6 5052.5 5015.5 5046.7 5007.4 5040.8 4999.3 5034.9 4996.2 5044.4 4993.1 5034.9 4996.2 5025.4 4999.3 5015.9 5002.4 5006.4 4992.4 5006.4 5000.5 5000.5 5010.5 5000.5 5020.5 5000.5 5030.5 5000.5 5027.4 4991 5035.5 4996.9 5038.6 5006.4 5041.7 5015.9 5044.8 5025.4 5052.9 5019.5 5049.8 5029 5041.7 5034.9 5033.6 5040.8 5025.5 5046.7 5033.6 5052.5" clip-path="url(#a)" fill="none" stroke="#000" stroke-linecap="round"/>
<polyline points="5033.6 5052.5 5023.6 5052.5 5015.5 5046.7 5007.4 5040.8 4999.3 5034.9 4996.2 5044.4 4993.1 5034.9 4996.2 5025.4 4999.3 5015.9 5002.4 5006.4 4992.4 5006.4 5000.5 5000.5 5010.5 5000.5 5020.5 5000.5 5030.5 5000.5 5027.4 4991 5035.5 4996.9 5038.6 5006.4 5041.7 5015.9 5044.8 5025.4 5052.9 5019.5 5049.8 5029 5041.7 5034.9 5033.6 5040.8 5025.5 5046.7 5033.6 5052.5 5023.6 5052.5 5015.5 5046.7 5007.4 5040.8 4999.3 5034.9 4996.2 5044.4 4993.1 5034.9 4996.2 5025.4 4999.3 5015.9 5002.4 5006.4 4992.4 5006.4 5000.5 5000.5 5010.5 5000.5 5020.5 5000.5 5030.5 5000.5 5027.4 4991 5035.5 4996.9 5038.6 5006.4" clip-path="url(#a)" fill="none" stroke="#000" stroke-linecap="round"/>
<polyline points="5038.6 5006.4 5041.7 5015.9 5044.8 5025.4 5052.9 5019.5 5049.8 5029 5041.7 5034.9 5033.6 5040.8 5025.5 5046.7 5033.6 5052.5 5023.6 5052.5 5015.5 5046.7 5007.4 5040.8 4999.3 5034.9 4996.2 5044.4 4993.1 5034.9 4996.2 5025.4 4999.3 5015.9 5002.4 5006.4 4992.4 5006.4 5000.5 5000.5 5010.5 5000.5 5020.5 5000.5 5030.5 5000.5 5027.4 4991 5035.5 4996.9 5038.6 5006.4 5041.7 5015.9 5044.8 5025.4 5052.9 5019.5 5049.8 5029 5041.7 5034.9 5033.6 5040.8 5025.5 5046.7 5033.6 5052.5 5023.6 5052.5 5015.5 5046.7 5007.4 5040.8 4999.3 5034.9 4996.2 5044.4 4993.1 5034.9 4996.2 5025.4 4999.3 5015.9 5002.4 5006.4" clip-path="url(#a)" fill="none" stroke="#000" stroke-linecap="round"/>
<polyline points="5002.4 5006.4 4992.4 5006.4 5000.5 5000.5 5010.5 5000.5 5020.5 5000.5 5030.5 5000.5 5027.4 4991 5035.5 4996.9 5038.6 5006.4 5041.7 5015.9 5044.8 5025.4 5052.9 5019.5 5049.8 5029 5041.7 5034.9 5033.6 5040.8 5025.5 5046.7 5033.6 5052.5 5023.6 5052.5 5015.5 5046.7 5007.4 5040.8 4999.3 5034.9 4996.2 5044.4 4993.1 5034.9 4996.2 5025.4 4999.3 5015.9 5002.4 5006.4 4992.4 5006.4 5000.5 5000.5 5010.5 5000.5 5020.5 5000.5 5030.5 5000.5 5027.4 4991 5035.5 4996.9 5038.6 5006.4 5041.7 5015.9 5044.8 5025.4 5052.9 5019.5 5049.8 5029 5041.7 5034.9 5033.6 5040.8 5025.5 5046.7 5033.6 5052.5 5023.6 5052.5" clip-path="url(#a)" fill="none" stroke="#000" stroke-linecap="round"/>
<polyline points="5023.6 5052.5 5015.5 5046.7 5007.4 5040.8 4999.3 5034.9 4996.2 5044.4 4993.1 5034.9 4996.2 5025.4 4999.3 5015.9 5002.4 5006.4 4992.4 5006.4 5000.5 5000.5 5010.5 5000.5 5020.5 5000.5 5030.5 5000.5 5027.4 4991 5035.5 4996.9 5038.6 5006.4 5041.7 5015.9 5044.8 5025.4 5052.9 5019.5 5049.8 5029 5041.7 5034.9 5033.6 5040.8 5025.5 5046.7 5033.6 5052.5 5023.6 5052.5 5015.5 5046.7 5007.4 5040.8 4999.3 5034.9 4996.2 5044.4 4993.1 5034.9 4996.2 5025.4 4999.3 5015.9 5002.4 5006.4 4992.4 5006.4 5000.5 5000.5 5010.5 5000.5 5020.5 5000.5 5030.5 5000.5 5027.4 4991 5035.5 4996.9 5038.6 5006.4 5041.7 5015.9" clip-path="url(#a)" fill="none" stroke="#000" stroke-linecap="round"/>
<polyline points="5041.7 5015.9 5044.8 5025.4 5052.9 5019.5 5049.8 5029 5041.7 5034.9 5033.6 5040.8 5025.5 5046.7 5033.6 5052.5 5023.6 5052.5 5015.5 5046.7 5007.4 5040.8 4999.3 5034.9 4996.2 5044.4 4993.1 5034.9 4996.2 5025.4 4999.3 5015.9 5002.4 5006.4 4992.4 5006.4 5000.5 5000.5 5010.5 5000.5 5020.5 5000.5 5030.5 5000.5 5027.4 4991 5035.5 4996.9 5038.6 5006.4 5041.7 5015.9 5044.8 5025.4 5052.9 5019.5 5049.8 5029 5041.7 5034.9 5033.6 5040.8 5025.5 5046.7 5033.6 5052.5 5023.6 5052.5 5015.5 5046.7 5007.4 5040.8 4999.3 5034.9 4996.2 5044.4 4993.1 5034.9 4996.2 5025.4 4999.3 5015.9 5002.4 5006.4 4992.4 5006.4" clip-path="url(#a)" fill="none" stroke="#000" stroke-linecap="round"/>
<polyline points="4992.4 5006.4 5000.5 5000.5 5010.5 5000.5 5020.5 5000.5 5030.5 5000.5 5027.4 4991 5035.5 4996.9 5038.6 5006.4 5041.7 5015.9 5044.8 5025.4 5052.9 5019.5 5049.8 5029 5041.7 5034.9 5033.6 5040.8 5025.5 5046.7 5033.6 5052.5 5023.6 5052.5 5015.5 5046.7 5007.4 5040.8 4999.3 5034.9 4996.2 5044.4 4993.1 5034.9 4996.2 5025.4 4999.3 5015.9 5002.4 5006.4 4992.4 5006.4 5000.5 5000.5 5010.5 5000.5 5020.5 5000.5 5030.5 5000.5 5027.4 4991 5035.5 4996.9 5038.6 5006.4 5041.7 5015.9 5044.8 5025.4 5052.9 5019.5 5049.8 5029 5041.7 5034.9 5033.6 5040.8 5025.5 5046.7 5033.6 5052.5 5023.6 5052.5 5015.5 5046.7" clip-path="url(#a)" fill="none" stroke="#000" stroke-linecap="round"/>
<polyline points="5015.5 5046.7 5007.4 5040.8 4999.3 5034.9 4996.2 5044.4 4993.1 5034.9 4996.2 5025.4 4999.3 5015.9 5002.4 5006.4 4992.4 5006.4 5000.5 5000.5 5010.5 5000.5 5020.5 5000.5 5030.5 5000.5 5027.4 4991 5035.5 4996.9 5038.6 5006.4 5041.7 5015.9 5044.8 5025.4 5052.9 5019.5 5049.8 5029 5041.7 5034.9 5033.6 5040.8 5025.5 5046.7 5033.6 5052.5 5023.6 5052.5 5015.5 5046.7 5007.4 5040.8 4999.3 5034.9 4996.2 5044.4 4993.1 5034.9 4996.2 5025.4 4999.3 5015.9 5002.4 5006.4 4992.4 5006.4 5000.5 5000.5 5010.5 5000.5 5020.5 5000.5 5030.5 5000.5 5027.4 4991 5035.5 4996.9 5038.6 5006.4 5041.7 5015.9 5044.8 5025.4" clip-path="url(#a)" fill="none" stroke="#000" stroke-linecap="round"/>
<polyline points="5044.8 5025.4 5052.9 5019.5 5049.8 5029 5041.7 5034.9 5033.6 5040.8 5025.5 5046.7 5033.6 5052.5 5023.6 5052.5 5015.5 5046.7 5007.4 5040.8 4999.3 5034.9 4996.2 5044.4 4993.1 5034.9 4996.2 5025.4 4999.3 5015.9 5002.4 5006.4 4992.4 5006.4 5000.5 5000.5 5010.5 5000.5 5020.5 5000.5 5030.5 5000.5 5027.4 4991 5035.5 4996.9 5038.6 5006.4 5041.7 5015.9 5044.8 5025.4 5052.9 5019.5 5049.8 5029 5041.7 5034.9 5033.6 5040.8 5025.5 5046.7 5033.6 5052.5 5023.6 5052.5 5015.5 5046.7 5007.4 5040.8 4999.3 5034.9 4996.2 5044.4 4993.1 5034.9 4996.2 5025.4 4999.3 5015.9 5002.4 5006.4 4992.4 5006.4 5000.5 5000.5" clip-path="url(#a)" fill="none" stroke="#000" stroke-linecap="round"/>
<polyline points="5000.5 5000.5 5010.5 5000.5 5020.5 5000.5 5030.5 5000.5 5027.4 4991 5035.5 4996.9 5038.6 5006.4 5041.7 5015.9 5044.8 5025.4 5052.9 5019.5 5049.8 5029 5041.7 5034.9 5033.6 5040.8 5025.5 5046.7 5033.6 5052.5 5023.6 5052.5 5015.5 5046.7 5007.4 5040.8 4999.3 5034.9 4996.2 5044.4 4993.1 5034.9 4996.2 5025.4 4999.3 5015.9 5002.4 5006.4 4992.4 5006.4 5000.5 5000.5 5010.5 5000.5 5020.5 5000.5 5030.5 5000.5 5027.4 4991 5035.5 4996.9 5038.6 5006.4 5041.7 5015.9 5044.8 5025.4 5052.9 5019.5 5049.8 5029 5041.7 5034.9 5033.6 5040.8 5025.5 5046.7 5033.6 5052.5 5023.6 5052.5 5015.5 5046.7 5007.4 5040.8" clip-path="url(#a)" fill="none" stroke="#000" stroke-linecap="round"/>
<polyline points="5007.4 5040.8 4999.3 5034.9 4996.2 5044.4 4993.1 5034.9 4996.2 5025.4 4999.3 5015.9 5002.4 5006.4 4992.4 5006.4 5000.5 5000.5 5010.5 5000.5 5020.5 5000.5 5030.5 5000.5 5027.4 4991 5035.5 4996.9 5038.6 5006.4 5041.7 5015.9 5044.8 5025.4 5052.9 5019.5 5049.8 5029 5041.7 5034.9 5033.6 5040.8 5025.5 5046.7 5033.6 5052.5 5023.6 5052.5 5015.5 5046.7 5007.4 5040.8 4999.3 5034.9 4996.2 5044.4 4993.1 5034.9 4996.2 5025.4 4999.3 5015.9 5002.4 5006.4 4992.4 5006.4 5000.5 5000.5 5010.5 5000.5 5020.5 5000.5 5030.5 5000.5 5027.4 4991 5035.5 4996.9 5038.6 5006.4 5041.7 5015.9 5044.8 5025.4 5052.9 5019.5" clip-path="url(#a)" fill="none" stroke="#000" stroke-linecap="round"/>
<polyline points="5052.9 5019.5 5049.8 5029 5041.7 5034.9 5033.6 5040.8 5025.5 5046.7 5033.6 5052.5 5023.6 5052.5 5015.5 5046.7 5007.4 5040.8 4999.3 5034.9 4996.2 5044.4 4993.1 5034.9 4996.2 5025.4 4999.3 5015.9 5002.4 5006.4 4992.4 5006.4 5000.5 5000.5 5010.5 5000.5 5020.5 5000.5 5030.5 5000.5 5027.4 4991 5035.5 4996.9 5038.6 5006.4 5041.7 5015.9 5044.8 5025.4 5052.9 5019.5 5049.8 5029 5041.7 5034.9 5033.6 5040.8 5025.5 5046.7 5033.6 5052.5 5023.6 5052.5 5015.5 5046.7 5007.4 5040.8 4999.3 5034.9 4996.2 5044.4 4993.1 5034.9 4996.2 5025.4 4999.3 5015.9 5002.4 5006.4 4992.4 5006.4 5000.5 5000.5 5010.5 5000.5" clip-path="url(#a)" fill="none" stroke="#000" stroke-linecap="round"/>
<polyline points="5010.5 5000.5 5020.5 5000.5 5030.5 5000.5 5027.4 4991 5035.5 4996.9 5038.6 5006.4 5041.7 5015.9 5044.8 5025.4 5052.9 5019.5 5049.8 5029 5041.7 5034.9 5033.6 5040.8 5025.5 5046.7 5033.6 5052.5 5023.6 5052.5 5015.5 5046.7 5007.4 5040.8 4999.3 5034.9 4996.2 5044.4 4993.1 5034.9 4996.2 5025.4 4999.3 5015.9 5002.4 5006.4 4992.4 5006.4 5000.5 5000.5 5010.5 5000.5 5020.5 5000.5 5030.5 5000.5 5027.4 4991 5035.5 4996.9 5038.6 5006.4 5041.7 5015.9 5044.8 5025.4 5052.9 5019.5 5049.8 5029 5041.7 5034.9 5033.6 5040.8 5025.5 5046.7 5033.6 5052.5 5023.6 5052.5 5015.5 5046.7 5007.4 5040.8 4999.3 5034.9" clip-path="url(#a)" fill="none" stroke="#000" stroke-linecap="round"/>
<polyline points="4999.3 5034.9 4996.2 5044.4 4993.1 5034.9 4996.2 5025.4 4999.3 5015.9 5002.4 5006.4 4992.4 5006.4 5000.5 5000.5 5010.5 5000.5 5020.5 5000.5 5030.5 5000.5 5027.4 4991 5035.5 4996.9 5038.6 5006.4 5041.7 5015.9 5044.8 5025.4 5052.9 5019.5 5049.8 5029 5041.7 5034.9 5033.6 5040.8 5025.5 5046.7 5033.6 5052.5 5023.6 5052.5 5015.5 5046.7 5007.4 5040.8 4999.3 5034.9 4996.2 5044.4 4993.1 5034.9 4996.2 5025.4 4999.3 5015.9 5002.4 5006.4 4992.4 5006.4 5000.5 5000.5 5010.5 5000.5 5020.5 5000.5 5030.5 5000.5 5027.4 4991 5035.5 4996.9 5038.6 5006.4 5041.7 5015.9 5044.8 5025.4 5052.9 5019.5 5049.8 5029" clip-path="url(#a)" fill="none" stroke="#000" stroke-linecap="round"/>
<polyline points="5049.8 5029 5041.7 5034.9 5033.6 5040.8 5025.5 5046.7 5033.6 5052.5 5023.6 5052.5 5015.5 5046.7 5007.4 5040.8 4999.3 5034.9 4996.2 5044.4 4993.1 5034.9 4996.2 5025.4 4999.3 5015.9 5002.4 5006.4 4992.4 5006.4 5000.5 5000.5 5010.5 5000.5 5020.5 5000.5 5030.5 5000.5 5027.4 4991 5035.5 4996.9 5038.6 5006.4 5041.7 5015.9 5044.8 5025.4 5052.9 5019.5 5049.8 5029 5041.7 5034.9 5033.6 5040.8 5025.5 5046.7 5033.6 5052.5 5023.6 5052.5 5015.5 5046.7 5007.4 5040.8 4999.3 5034.9 4996.2 5044.4 4993.1 5034.9 4996.2 5025.4 4999.3 5015.9 5002.4 5006.4 4992.4 5006.4 5000.5 5000.5 5010.5 5000.5 5020.5 5000.5" clip-path="url(#a)" fill="none" stroke="#000" stroke-linecap="round"/>
<polyline points="5020.5 5000.5 5030.5 5000.5 5027.4 4991 5035.5 4996.9 5038.6 5006.4 5041.7 5015.9 5044.8 5025.4 5052.9 5019.5 5049.8 5029 5041.7 5034.9 5033.6 5040.8 5025.5 5046.7 5033.6 5052.5 5023.6 5052.5 5015.5 5046.7 5007.4 5040.8 4999.3 5034.9 4996.2 5044.4 4993.1 5034.9 4996.2 5025.4 4999.3 5015.9 5002.4 5006.4 4992.4 5006.4 5000.5 5000.5 5010.5 5000.5 5020.5 5000.5 5030.5 5000.5 5027.4 4991 5035.5 4996.9 5038.6 5006.4 5041.7 5015.9 5044.8 5025.4 5052.9 5019.5 5049.8 5029 5041.7 5034.9 5033.6 5040.8 5025.5 5046.7 5033.6 5052.5 5023.6 5052.5 5015.5 5046.7 5007.4 5040.8 4999.3 5034.9 4996.2 5044.4" clip-path="url(#a)" fill="none" stroke="#000" stroke-linecap="round"/>
<polyline points="4996.2 5044.4 4993.1 5034.9 4996.2 5025.4 4999.3 5015.9 5002.4 5006.4 4992.4 5006.4 5000.5 5000.5 5010.5 5000.5 5020.5 5000.5 5030.5 5000.5 5027.4 4991 5035.5 4996.9 5038.6 5006.4 5041.7 5015.9 5044.8 5025.4 5052.9 5019.5 5049.8 5029 5041.7 5034.9 5033.6 5040.8 5025.5 5046.7 5033.6 5052.5 5023.6 5052.5 5015.5 5046.7 5007.4 5040.8 4999.3 5034.9 4996.2 5044.4 4993.1 5034.9 4996.2 5025.4 4999.3 5015.9 5002.4 5006.4 4992.4 5006.4 5000.5 5000.5 5010.5 5000.5 5020.5 5000.5 5030.5 5000.5 5027.4 4991 5035.5 4996.9 5038.6 5006.4 5041.7 5015.9 5044.8 5025.4 5052.9 5019.5 5049.8 5029 5041.7 5034.9" clip-path="url(#a)" fill="none" stroke="#000" stroke-linecap="round"/>
<polyline points="5041.7 5034.9 5033.6 5040.8 5025.5 5046.7 5033.6 5052.5 5023.6 5052.5 5015.5 5046.7 5007.4 5040.8 4999.3 5034.9 4996.2 5044.4 4993.1 5034.9 4996.2 5025.4 4999.3 5015.9 5002.4 5006.4 4992.4 5006.4 5000.5 5000.5 5010.5 5000.5 5020.5 5000.5 5030.5 5000.5 5027.4 4991 5035.5 4996.9 5038.6 5006.4 5041.7 5015.9 5044.8 5025.4 5052.9 5019.5 5049.8 5029 5041.7 5034.9 5033.6 5040.8 5025.5 5046.7 5033.6 5052.5 5023.6 5052.5 5015.5 5046.7 5007.4 5040.8 4999.3 5034.9 4996.2 5044.4 4993.1 5034.9 4996.2 5025.4 4999.3 5015.9 5002.4 5006.4 4992.4 5006.4 5000.5 5000.5 5010.5 5000.5 5020.5 5000.5 5030.5 5000.5" clip-path="url(#a)" fill="none" stroke="#000" stroke-linecap="round"/>
<polyline points="5030.5 5000.5 5027.4 4991 5035.5 4996.9 5038.6 5006.4 5041.7 5015.9 5044.8 5025.4 5052.9 5019.5 5049.8 5029 5041.7 5034.9 5033.6 5040.8 5025.5 5046.7 5033.6 5052.5 5023.6 5052.5 5015.5 5046.7 5007.4 5040.8 4999.3 5034.9 4996.2 5044.4 4993.1 5034.9 4996.2 5025.4 4999.3 5015.9 5002.4 5006.4 4992.4 5006.4 5000.5 5000.5 5010.5 5000.5 5020.5 5000.5 5030.5 5000.5 5027.4 4991 5035.5 4996.9 5038.6 5006.4 5041.7 5015.9 5044.8 5025.4 5052.9 5019.5 5049.8 5029 5041.7 5034.9 5033.6 5040.8 5025.5 5046.7 5033.6 5052.5 5023.6 5052.5 5015.5 5046.7 5007.4 5040.8 4999.3 5034.9 4996.2 5044.4 4993.1 5034.9" clip-path="url(#a)" fill="none" stroke="#000" stroke-linecap="round"/>
<polyline points="4993.1 5034.9 4996.2 5025.4 4999.3 5015.9 5002.4 5006.4 4992.4 5006.4 5000.5 5000.5 5010.5 5000.5 5020.5 5000.5 5030.5 5000.5 5027.4 4991 5035.5 4996.9 5038.6 5006.4 5041.7 5015.9 5044.8 5025.4 5052.9 5019.5 5049.8 5029 5041.7 5034.9 5033.6 5040.8 5025.5 5046.7 5033.6 5052.5 5023.6 5052.5 5015.5 5046.7 5007.4 5040.8 4999.3 5034.9 4996.2 5044.4 4993.1 5034.9 4996.2 5025.4 4999.3 5015.9 5002.4 5006.4 4992.4 5006.4 5000.5 5000.5 5010.5 5000.5 5020.5 5000.5 5030.5 5000.5 5027.4 4991 5035.5 4996.9 5038.6 5006.4 5041.7 5015.9 5044.8 5025.4 5052.9 5019.5 5049.8 5029 5041.7 5034.9 5033.6 5040.8" clip-path="url(#a)" fill="none" stroke="#000" stroke-linecap="round"/>
<polyline points="5033.6 5040.8 5025.5 5046.7 5033.6 5052.5 5023.6 5052.5 5015.5 5046.7 5007.4 5040.8 4999.3 5034.9 4996.2 5044.4 4993.1 5034.9 4996.2 5025.4 4999.3 5015.9 5002.4 5006.4 4992.4 5006.4 5000.5 5000.5 5010.5 5000.5 5020.5 5000.5 5030.5 5000.5 5027.4 4991 5035.5 4996.9 5038.6 5006.4 5041.7 5015.9 5044.8 5025.4 5052.9 5019.5 5049.8 5029 5041.7 5034.9 5033.6 5040.8 5025.5 5046.7 5033.6 5052.5 5023.6 5052.5 5015.5 5046.7 5007.4 5040.8 4999.3 5034.9 4996.2 5044.4 4993.1 5034.9 4996.2 5025.4 4999.3 5015.9 5002.4 5006.4 4992.4 5006.4 5000.5 5000.5 5010.5 5000.5 5020.5 5000.5 5030.5 5000.5 5027.4 4991" clip-path="url(#a)" fill="none" stroke="#000" stroke-linecap="round"/>
<polyline points="5027.4 4991 5035.5 4996.9 5038.6 5006.4 5041.7 5015.9 5044.8 5025.4 5052.9 5019.5 5049.8 5029 5041.7 5034.9 5033.6 5040.8 5025.5 5046.7 5033.6 5052.5 5023.6 5052.5 5015.5 5046.7 5007.4 5040.8 4999.3 5034.9 4996.2 5044.4 4993.1 5034.9 4996.2 5025.4 4999.3 5015.9 5002.4 5006.4 4992.4 5006.4 5000.5 5000.5 5010.5 5000.5 5020.5 5000.5 5030.5 5000.5 5027.4 4991 5035.5 4996.9 5038.6 5006.4 5041.7 5015.9 5044.8 5025.4 5052.9 5019.5 5049.8 5029 5041.7 5034.9 5033.6 5040.8 5025.5 5046.7 5033.6 5052.5 5023.6 5052.5 5015.5 5046.7 5007.4 5040.8 4999.3 5034.9 4996.2 5044.4 4993.1 5034.9 4996.2 5025.4" clip-path="url(#a)" fill="none" stroke="#000" stroke-linecap="round"/>
<polyline points="4996.2 5025.4 4999.3 5015.9 5002.4 5006.4 4992.4 5006.4 5000.5 5000.5 5010.5 5000.5 5020.5 5000.5 5030.5 5000.5 5027.4 4991 5035.5 4996.9 5038.6 5006.4 5041.7 5015.9 5044.8 5025.4 5052.9 5019.5 5049.8 5029 5041.7 5034.9 5033.6 5040.8 5025.5 5046.7 5033.6 5052.5 5023.6 5052.5 5015.5 5046.7 5007.4 5040.8 4999.3 5034.9 4996.2 5044.4 4993.1 5034.9 4996.2 5025.4 4999.3 5015.9 5002.4 5006.4 4992.4 5006.4 5000.5 5000.5 5010.5 5000.5 5020.5 5000.5 5030.5 5000.5 5027.4 4991 5035.5 4996.9 5038.6 5006.4 5041.7 5015.9 5044.8 5025.4 5052.9 5019.5 5049.8 5029 5041.7 5034.9 5033.6 5040.8 5025.5 5046.7" clip-path="url(#a)" fill="none" stroke="#000" stroke-linecap="round"/>
<polyline points="5025.5 5046.7 5033.6 5052.5 5023.6 5052.5 5015.5 5046.7 5007.4 5040.8 4999.3 5034.9 4996.2 5044.4 4993.1 5034.9 4996.2 5025.4 4999.3 5015.9 5002.4 5006.4 4992.4 5006.4 5000.5 5000.5 5010.5 5000.5 5020.5 5000.5 5030.5 5000.5 5027.4 4991 5035.5 4996.9 5038.6 5006.4 5041.7 5015.9 5044.8 5025.4 5052.9 5019.5 5049.8 5029 5041.7 5034.9 5033.6 5040.8 5025.5 5046.7 5033.6 5052.5 5023.6 5052.5 5015.5 5046.7 5007.4 5040.8 4999.3 5034.9 4996.2 5044.4 4993.1 5034.9 4996.2 5025.4 4999.3 5015.9 5002.4 5006.4 4992.4 5006.4 5000.5 5000.5 5010.5 5000.5 5020.5 5000.5 5030.5 5000.5 5027.4 4991 5035.5 4996.9" clip-path="url(#a)" fill="none" stroke="#000" stroke-linecap="round"/>
<polyline points="5035.5 4996.9 5038.6 5006.4 5041.7 5015.9 5044.8 5025.4 5052.9 5019.5 5049.8 5029 5041.7 5034.9 5033.6 5040.8 5025.5 5046.7 5033.6 5052.5 5023.6 5052.5 5015.5 5046.7 5007.4 5040.8 4999.3 5034.9 4996.2 5044.4 4993.1 5034.9 4996.2 5025.4 4999.3 5015.9 5002.4 5006.4 4992.4 5006.4 5000.5 5000.5 5010.5 5000.5 5020.5 5000.5 5030.5 5000.5 5027.4 4991 5035.5 4996.9 5038.6 5006.4 5041.7 5015.9 5044.8 5025.4 5052.9 5019.5 5049.8 5029 5041.7 5034.9 5033.6 5040.8 5025.5 5046.7 5033.6 5052.5 5023.6 5052.5 5015.5 5046.7 5007.4 5040.8 4999.3 5034.9 4996.2 5044.4 4993.1 5034.9 4996.2 5025.4 4999.3 5015.9" clip-path="url(#a)" fill="none" stroke="#000" stroke-linecap="round"/>
<polyline points="4999.3 5015.9 5002.4 5006.4 4992.4 5006.4 5000.5 5000.5 5010.5 5000.5 5020.5 5000.5 5030.5 5000.5 5027.4 4991 5035.5 4996.9 5038.6 5006.4 5041.7 5015.9 5044.8 5025.4 5052.9 5019.5 5049.8 5029 5041.7 5034.9 5033.6 5040.8 5025.5 5046.7 5033.6 5052.5 5023.6 5052.5 5015.5 5046.7 5007.4 5040.8 4999.3 5034.9 4996.2 5044.4 4993.1 5034.9 4996.2 5025.4 4999.3 5015.9 5002.4 5006.4 4992.4 5006.4 5000.5 5000.5 5010.5 5000.5 5020.5 5000.5 5030.5 5000.5 5027.4 4991 5035.5 4996.9 5038.6 5006.4 5041.7 5015.9 5044.8 5025.4 5052.9 5019.5 5049.8 5029 5041.7 5034.9 5033.6 5040.8 5025.5 5046.7 5033.6 5052.5" clip-path="url(#a)" fill="none" stroke="#000" stroke-linecap="round"/>
<polyline points="5033.6 5052.5 5023.6 5052.5 5015.5 5046.7 5007.4 5040.8 4999.3 5034.9 4996.2 5044.4 4993.1 5034.9 4996.2 5025.4 4999.3 5015.9 5002.4 5006.4 4992.4 5006.4 5000.5 5000.5 5010.5 5000.5 5020.5 5000.5 5030.5 5000.5 5027.4 4991 5035.5 4996.9 5038.6 5006.4 5041.7 5015.9 5044.8 5025.4 5052.9 5019.5 5049.8 5029 5041.7 5034.9 5033.6 5040.8 5025.5 5046.7 5033.6 5052.5 5023.6 5052.5 5015.5 5046.7 5007.4 5040.8 4999.3 5034.9 4996.2 5044.4 4993.1 5034.9 4996.2 5025.4 4999.3 5015.9 5002.4 5006.4 4992.4 5006.4 5000.5 5000.5 5010.5 5000.5 5020.5 5000.5 5030.5 5000.5 5027.4 4991 5035.5 4996.9 5038.6 5006.4" clip-path="url(#a)" fill="none" stroke="#000" stroke-linecap="round"/>
<polyline points="5038.6 5006.4 5041.7 5015.9 5044.8 5025.4 5052.9 5019.5 5049.8 5029 5041.7 5034.9 5033.6 5040.8 5025.5 5046.7 5033.6 5052.5 5023.6 5052.5 5015.5 5046.7 5007.4 5040.8 4999.3 5034.9 4996.2 5044.4 4993.1 5034.9 4996.2 5025.4 4999.3 5015.9 5002.4 5006.4 4992.4 5006.4 5000.5 5000.5 5010.5 5000.5 5020.5 5000.5 5030.5 5000.5 5027.4 4991 5035.5 4996.9 5038.6 5006.4 5041.7 5015.9 5044.8 5025.4 5052.9 5019.5 5049.8 5029 5041.7 5034.9 5033.6 5040.8 5025.5 5046.7 5033.6 5052.5 5023.6 5052.5 5015.5 5046.7 5007.4 5040.8 4999.3 5034.9 4996.2 5044.4 4993.1 5034.9 4996.2 5025.4 4999.3 5015.9 5002.4 5006.4" clip-path="url(#a)" fill="none" stroke="#000" stroke-linecap="round"/>
<polyline points="5002.4 5006.4 4992.4 5006.4 5000.5 5000.5 5010.5 5000.5 5020.5 5000.5 5030.5 5000.5 5027.4 4991 5035.5 4996.9 5038.6 5006.4 5041.7 5015.9 5044.8 5025.4 5052.9 5019.5 5049.8 5029 5041.7 5034.9 5033.6 5040.8 5025.5 5046.7 5033.6 5052.5 5023.6 5052.5 5015.5 5046.7 5007.4 5040.8 4999.3 5034.9 4996.2 5044.4 4993.1 5034.9 4996.2 5025.4 4999.3 5015.9 5002.4 5006.4 4992.4 5006.4 5000.5 5000.5 5010.5 5000.5 5020.5 5000.5 5030.5 5000.5 5027.4 4991 5035.5 4996.9 5038.6 5006.4 5041.7 5015.9 5044.8 5025.4 5052.9 5019.5 5049.8 5029 5041.7 5034.9 5033.6 5040.8 5025.5 5046.7 5033.6 5052.5 5023.6 5052.5" clip-path="url(#a)" fill="none" stroke="#000" stroke-linecap="round"/>
<polyline points="5023.6 5052.5 5015.5 5046.7 5007.4 5040.8 4999.3 5034.9 4996.2 5044.4 4993.1 5034.9 4996.2 5025.4 4999.3 5015.9 5002.4 5006.4 4992.4 5006.4 5000.5 5000.5 5010.5 5000.5 5020.5 5000.5 5030.5 5000.5 5027.4 4991 5035.5 4996.9 5038.6 5006.4 5041.7 5015.9 5044.8 5025.4 5052.9 5019.5 5049.8 5029 5041.7 5034.9 5033.6 5040.8 5025.5 5046.7 5033.6 5052.5 5023.6 5052.5 5015.5 5046.7 5007.4 5040.8 4999.3 5034.9 4996.2 5044.4 4993.1 5034.9 4996.2 5025.4 4999.3 5015.9 5002.4 5006.4 4992.4 5006.4 5000.5 5000.5 5010.5 5000.5 5020.5 5000.5 5030.5 5000.5 5027.4 4991 5035.5 4996.9 5038.6 5006.4 5041.7 5015.9" clip-path="url(#a)" fill="none" stroke="#000" stroke-linecap="round"/>
<polyline points="5041.7 5015.9 5044.8 5025.4 5052.9 5019.5 5049.8 5029 5041.7 5034.9 5033.6 5040.8 5025.5 5046.7 5033.6 5052.5 5023.6 5052.5 5015.5 5046.7 5007.4 5040.8 4999.3 5034.9 4996.2 5044.4 4993.1 5034.9 4996.2 5025.4 4999.3 5015.9 5002.4 5006.4 4992.4 5006.4 5000.5 5000.5 5010.5 5000.5 5020.5 5000.5 5030.5 5000.5 5027.4 4991 5035.5 4996.9 5038.6 5006.4 5041.7 5015.9 5044.8 5025.4 5052.9 5019.5 5049.8 5029 5041.7 5034.9 5033.6 5040.8 5025.5 5046.7 5033.6 5052.5 5023.6 5052.5 5015.5 5046.7 5007.4 5040.8 4999.3 5034.9 4996.2 5044.4 4993.1 5034.9 4996.2 5025.4 4999.3 5015.9 5002.4 5006.4 4992.4 5006.4" clip-path="url(#a)" fill="none" stroke="#000" stroke-linecap="round"/>
<polyline points="4992.4 5006.4 5000.5 5000.5 5010.5 5000.5 5020.5 5000.5 5030.5 5000.5 5027.4 4991 5035.5 4996.9 5038.6 5006.4 5041.7 5015.9 5044.8 5025.4 5052.9 5019.5 5049.8 5029 5041.7 5034.9 5033.6 5040.8 5025.5 5046.7 5033.6 5052.5 5023.6 5052.5 5015.5 5046.7 5007.4 5040.8 4999.3 5034.9 4996.2 5044.4 4993.1 5034.9 4996.2 5025.4 4999.3 5015.9 5002.4 5006.4 4992.4 5006.4 5000.5 5000.5 5010.5 5000.5 5020.5 5000.5 5030.5 5000.5 5027.4 4991 5035.5 4996.9 5038.6 5006.4 5041.7 5015.9 5044.8 5025.4 5052.9 5019.5 5049.8 5029 5041.7 5034.9 5033.6 5040.8 5025.5 5046.7 5033.6 5052.5 5023.6 5052.5 5015.5 5046.7" clip-path="url(#a)" fill="none" stroke="#000" stroke-linecap="round"/>
<polyline points="5015.5 5046.7 5007.4 5040.8 4999.3 5034.9 4996.2 5044.4 4993.1 5034.9 4996.2 5025.4 4999.3 5015.9 5002.4 5006.4 4992.4 5006.4 5000.5 5000.5 5010.5 5000.5 5020.5 5000.5 5030.5 5000.5 5027.4 4991 5035.5 4996.9 5038.6 5006.4 5041.7 5015.9 5044.8 5025.4 5052.9 5019.5 5049.8 5029 5041.7 5034.9 5033.6 5040.8 5025.5 5046.7 5033.6 5052.5 5023.6 5052.5 5015.5 5046.7 5007.4 5040.8 4999.3 5034.9 4996.2 5044.4 4993.1 5034.9 4996.2 5025.4 4999.3 5015.9 5002.4 5006.4 4992.4 5006.4 5000.5 5000.5 5010.5 5000.5 5020.5 5000.5 5030.5 5000.5 5027.4 4991 5035.5 4996.9 5038.6 5006.4 5041.7 5015.9 5044.8 5025.4" clip-path="url(#a)" fill="none" stroke="#000" stroke-linecap="round"/>
<polyline points="5044.8 5025.4 5052.9 5019.5 5049.8 5029 5041.7 5034.9 5033.6 5040.8 5025.5 5046.7 5033.6 5052.5 5023.6 5052.5 5015.5 5046.7 5007.4 5040.8 4999.3 5034.9 4996.2 5044.4 4993.1 5034.9 4996.2 5025.4 4999.3 5015.9 5002.4 5006.4 4992.4 5006.4 5000.5 5000.5 5010.5 5000.5 5020.5 5000.5 5030.5 5000.5 5027.4 4991 5035.5 4996.9 5038.6 5006.4 5041.7 5015.9 5044.8 5025.4 5052.9 5019.5 5049.8 5029 5041.7 5034.9 5033.6 5040.8 5025.5 5046.7 5033.6 5052.5 5023.6 5052.5 5015.5 5046.7 5007.4 5040.8 4999.3 5034.9 4996.2 5044.4 4993.1 5034.9 4996.2 5025.4 4999.3 5015.9 5002.4 5006.4 4992.4 5006.4 5000.5 5000.5" clip-path="url(#a)" fill="none" stroke="#000" stroke-linecap="round"/>
<polyline points="5000.5 5000.5 5010.5 5000.5 5020.5 5000.5 5030.5 5000.5 5027.4 4991 5035.5 4996.9 5038.6 5006.4 5041.7 5015.9 5044.8 5025.4 5052.9 5019.5 5049.8 5029 5041.7 5034.9 5033.6 5040.8 5025.5 5046.7 5033.6 5052.5 5023.6 5052.5 5015.5 5046.7 5007.4 5040.8 4999.3 5034.9 4996.2 5044.4 4993.1 5034.9 4996.2 5025.4 4999.3 5015.9 5002.4 5006.4 4992.4 5006.4 5000.5 5000.5 5010.5 5000.5 5020.5 5000.5 5030.5 5000.5 5027.4 4991 5035.5 4996.9 5038.6 5006.4 5041.7 5015.9 5044.8 5025.4 5052.9 5019.5 5049.8 5029 5041.7 5034.9 5033.6 5040.8 5025.5 5046.7 5033.6 5052.5 5023.6 5052.5 5015.5 5046.7 5007.4 5040.8" clip-path="url(#a)" fill="none" stroke="#000" stroke-linecap="round"/>
<polyline points="5007.4 5040.8 4999.3 5034.9 4996.2 5044.4 4993.1 5034.9 4996.2 5025.4 4999.3 5015.9 5002.4 5006.4 4992.4 5006.4 5000.5 5000.5 5010.5 5000.5 5020.5 5000.5 5030.5 5000.5 5027.4 4991 5035.5 4996.9 5038.6 5006.4 5041.7 5015.9 5044.8 5025.4 5052.9 5019.5 5049.8 5029 5041.7 5034.9 5033.6 5040.8 5025.5 5046.7 5033.6 5052.5 5023.6 5052.5 5015.5 5046.7 5007.4 5040.8 4999.3 5034.9 4996.2 5044.4 4993.1 5034.9 4996.2 5025.4 4999.3 5015.9 5002.4 5006.4 4992.4 5006.4 5000.5 5000.5 5010.5 5000.5 5020.5 5000.5 5030.5 5000.5 5027.4 4991 5035.5 4996.9 5038.6 5006.4 5041.7 5015.9 5044.8 5025.4 5052.9 5019.5" clip-path="url(#a)" fill="none" stroke="#000" stroke-linecap="round"/>
<polyline points="5052.9 5019.5 5049.8 5029 5041.7 5034.9 5033.6 5040.8 5025.5 5046.7 5033.6 5052.5 5023.6 5052.5 5015.5 5046.7 5007.4 5040.8 4999.3 5034.9 4996.2 5044.4 4993.1 5034.9 4996.2 5025.4 4999.3 5015.9 5002.4 5006.4 4992.4 5006.4 5000.5 5000.5 5010.5 5000.5 5020.5 5000.5 5030.5 5000.5 5027.4 4991 5035.5 4996.9 5038.6 5006.4 5041.7 5015.9 5044.8 5025.4 5052.9 5019.5 5049.8 5029 5041.7 5034.9 5033.6 5040.8 5025.5 5046.7 5033.6 5052.5 5023.6 5052.5 5015.5 5046.7 5007.4 5040.8 4999.3 5034.9 4996.2 5044.4 4993.1 5034.9 4996.2 5025.4 4999.3 5015.9 5002.4 5006.4 4992.4 5006.4 5000.5 5000.5 5010.5 5000.5" clip-path="url(#a)" fill="none" stroke="#000" stroke-linecap="round"/>
<polyline points="5010.5 5000.5 5020.5 5000.5 5030.5 5000.5 5027.4 4991 5035.5 4996.9 5038.6 5006.4 5041.7 5015.9 5044.8 5025.4 5052.9 5019.5 5049.8 5029 5041.7 5034.9 5033.6 5040.8 5025.5 5046.7 5033.6 5052.5 5023.6 5052.5 5015.5 5046.7 5007.4 5040.8 4999.3 5034.9 4996.2 5044.4 4993.1 5034.9 4996.2 5025.4 4999.3 5015.9 5002.4 5006.4 4992.4 5006.4 5000.5 5000.5 5010.5 5000.5 5020.5 5000.5 5030.5 5000.5 5027.4 4991 5035.5 4996.9 5038.6 5006.4 5041.7 5015.9 5044.8 5025.4 5052.9 5019.5 5049.8 5029 5041.7 5034.9 5033.6 5040.8 5025.5 5046.7 5033.6 5052.5 5023.6 5052.5 5015.5 5046.7 5007.4 5040.8 4999.3 5034.9" clip-path="url(#a)" fill="none" stroke="#000" stroke-linecap="round"/>
<polyline points="4999.3 5034.9 4996.2 5044.4 4993.1 5034.9 4996.2 5025.4 4999.3 5015.9 5002.4 5006.4 4992.4 5006.4 5000.5 5000.5 5010.5 5000.5 5020.5 5000.5 5030.5 5000.5 5027.4 4991 5035.5 4996.9 5038.6 5006.4 5041.7 5015.9 5044.8 5025.4 5052.9 5019.5 5049.8 5029 5041.7 5034.9 5033.6 5040.8 5025.5 5046.7 5033.6 5052.5 5023.6 5052.5 5015.5 5046.7 5007.4 5040.8 4999.3 5034.9 4996.2 5044.4 4993.1 5034.9 4996.2 5025.4 4999.3 5015.9 5002.4 5006.4 4992.4 5006.4 5000.5 5000.5 5010.5 5000.5 5020.5 5000.5 5030.5 5000.5 5027.4 4991 5035.5 4996.9 5038.6 5006.4 5041.7 5015.9 5044.8 5025.4 5052.9 5019.5 5049.8 5029" clip-path="url(#a)" fill="none" stroke="#000" stroke-linecap="round"/>
<polyline points="5049.8 5029 5041.7 5034.9 5033.6 5040.8 5025.5 5046.7 5033.6 5052.5 5023.6 5052.5 5015.5 5046.7 5007.4 5040.8 4999.3 5034.9 4996.2 5044.4 4993.1 5034.9 4996.2 5025.4 4999.3 5015.9 5002.4 5006.4 4992.4 5006.4 5000.5 5000.5 5010.5 5000.5 5020.5 5000.5 5030.5 5000.5 5027.4 4991 5035.5 4996.9 5038.6 5006.4 5041.7 5015.9 5044.8 5025.4 5052.9 5019.5 5049.8 5029 5041.7 5034.9 5033.6 5040.8 5025.5 5046.7 5033.6 5052.5 5023.6 5052.5 5015.5 5046.7 5007.4 5040.8 4999.3 5034.9 4996.2 5044.4 4993.1 5034.9 4996.2 5025.4 4999.3 5015.9 5002.4 5006.4 4992.4 5006.4 5000.5 5000.5 5010.5 5000.5 5020.5 5000.5" clip-path="url(#a)" fill="none" stroke="#000" stroke-linecap="round"/>
<polyline points="5020.5 5000.5 5030.5 5000.5 5027.4 4991 5035.5 4996.9 5038.6 5006.4 5041.7 5015.9 5044.8 5025.4 5052.9 5019.5 5049.8 5029 5041.7 5034.9 5033.6 5040.8 5025.5 5046.7 5033.6 5052.5 5023.6 5052.5 5015.5 5046.7 5007.4 5040.8 4999.3 5034.9 4996.2 5044.4 4993.1 5034.9 4996.2 5025.4 4999.3 5015.9 5002.4 5006.4 4992.4 5006.4 5000.5 5000.5 5010.5 5000.5 5020.5 5000.5 5030.5 5000.5 5027.4 4991 5035.5 4996.9 5038.6 5006.4 5041.7 5015.9 5044.8 5025.4 5052.9 5019.5 5049.8 5029 5041.7 5034.9 5033.6 5040.8 5025.5 5046.7 5033.6 5052.5 5023.6 5052.5 5015.5 5046.7 5007.4 5040.8 4999.3 5034.9 4996.2 5044.4" clip-path="url(#a)" fill="none" stroke="#000" stroke-linecap="round"/>
<polyline points="4996.2 5044.4 4993.1 5034.9 4996.2 5025.4 4999.3 5015.9 5002.4 5006.4 4992.4 5006.4 5000.5 5000.5 5010.5 5000.5 5020.5 5000.5 5030.5 5000.5 5027.4 4991 5035.5 4996.9 5038.6 5006.4 5041.7 5015.9 5044.8 5025.4 5052.9 5019.5 5049.8 5029 5041.7 5034.9 5033.6 5040.8 5025.5 5046.7 5033.6 5052.5 5023.6 5052.5 5015.5 5046.7 5007.4 5040.8 4999.3 5034.9 4996.2 5044.4 4993.1 5034.9 4996.2 5025.4 4999.3 5015.9 5002.4 5006.4 4992.4 5006.4 5000.5 5000.5 5010.5 5000.5 5020.5 5000.5 5030.5 5000.5 5027.4 4991 5035.5 4996.9 5038.6 5006.4 5041.7 5015.9 5044.8 5025.4 5052.9 5019.5 5049.8 5029 5041.7 5034.9" clip-path="url(#a)" fill="none" stroke="#000" stroke-linecap="round"/>
<polyline points="5041.7 5034.9 5033.6 5040.8 5025.5 5046.7 5033.6 5052.5 5023.6 5052.5 5015.5 5046.7 5007.4 5040.8 4999.3 5034.9 4996.2 5044.4 4993.1 5034.9 4996.2 5025.4 4999.3 5015.9 5002.4 5006.4 4992.4 5006.4 5000.5 5000.5 5010.5 5000.5 5020.5 5000.5 5030.5 5000.5 5027.4 4991 5035.5 4996.9 5038.6 5006.4 5041.7 5015.9 5044.8 5025.4 5052.9 5019.5 5049.8 5029 5041.7 5034.9 5033.6 5040.8 5025.5 5046.7 5033.6 5052.5 5023.6 5052.5 5015.5 5046.7 5007.4 5040.8 4999.3 5034.9 4996.2 5044.4 4993.1 5034.9 4996.2 5025.4 4999.3 5015.9 5002.4 5006.4 4992.4 5006.4 5000.5 5000.5 5010.5 5000.5 5020.5 5000.5 5030.5 5000.5" clip-path="url(#a)" fill="none" stroke="#000" stroke-linecap="round"/>
<polyline points="5030.5 5000.5 5027.4 4991 5035.5 4996.9 5038.6 5006.4 5041.7 5015.9 5044.8 5025.4 5052.9 5019.5 5049.8 5029 5041.7 5034.9 5033.6 5040.8 5025.5 5046.7 5033.6 5052.5 5023.6 5052.5 5015.5 5046.7 5007.4 5040.8 4999.3 5034.9 4996.2 5044.4 4993.1 5034.9 4996.2 5025.4 4999.3 5015.9 5002.4 5006.4 4992.4 5006.4 5000.5 5000.5 5010.5 5000.5 5020.5 5000.5 5030.5 5000.5 5027.4 4991 5035.5 4996.9 5038.6 5006.4 5041.7 5015.9 5044.8 5025.4 5052.9 5019.5 5049.8 5029 5041.7 5034.9 5033.6 5040.8 5025.5 5046.7 5033.6 5052.5 5023.6 5052.5 5015.5 5046.7 5007.4 5040.8 4999.3 5034.9 4996.2 5044.4 4993.1 5034.9" clip-path="url(#a)" fill="none" stroke="#000" stroke-linecap="round"/>
<polyline points="4993.1 5034.9 4996.2 5025.4 4999.3 5015.9 5002.4 5006.4 4992.4 5006.4 5000.5 5000.5 5010.5 5000.5 5020.5 5000.5 5030.5 5000.5 5027.4 4991 5035.5 4996.9 5038.6 5006.4 5041.7 5015.9 5044.8 5025.4 5052.9 5019.5 5049.8 5029 5041.7 5034.9 5033.6 5040.8 5025.5 5046.7 5033.6 5052.5 5023.6 5052.5 5015.5 5046.7 5007.4 5040.8 4999.3 5034.9 4996.2 5044.4 4993.1 5034.9 4996.2 5025.4 4999.3 5015.9 5002.4 5006.4 4992.4 5006.4 5000.5 5000.5 5010.5 5000.5 5020.5 5000.5 5030.5 5000.5 5027.4 4991 5035.5 4996.9 5038.6 5006.4 5041.7 5015.9 5044.8 5025.4 5052.9 5019.5 5049.8 5029 5041.7 5034.9 5033.6 5040.8" clip-path="url(#a)" fill="none" stroke="#000" stroke-linecap="round"/>
<polyline points="5033.6 5040.8 5025.5 5046.7 5033.6 5052.5 5023.6 5052.5 5015.5 5046.7 5007.4 5040.8 4999.3 5034.9 4996.2 5044.4 4993.1 5034.9 4996.2 5025.4 4999.3 5015.9 5002.4 5006.4 4992.4 5006.4 5000.5 5000.5 5010.5 5000.5 5020.5 5000.5 5030.5 5000.5 5027.4 4991 5035.5 4996.9 5038.6 5006.4 5041.7 5015.9 5044.8 5025.4 5052.9 5019.5 5049.8 5029 5041.7 5034.9 5033.6 5040.8 5025.5 5046.7 5033.6 5052.5 5023.6 5052.5 5015.5 5046.7 5007.4 5040.8 4999.3 5034.9 4996.2 5044.4 4993.1 5034.9 4996.2 5025.4 4999.3 5015.9 5002.4 5006.4 4992.4 5006.4 5000.5 5000.5 5010.5 5000.5 5020.5 5000.5 5030.5 5000.5 5027.4 4991" clip-path="url(#a)" fill="none" stroke="#000" stroke-linecap="round"/>
<polyline points="5027.4 4991 5035.5 4996.9 5038.6 5006.4 5041.7 5015.9 5044.8 5025.4 5052.9 5019.5 5049.8 5029 5041.7 5034.9 5033.6 5040.8 5025.5 5046.7 5033.6 5052.5 5023.6 5052.5 5015.5 5046.7 5007.4 5040.8 4999.3 5034.9 4996.2 5044.4 4993.1 5034.9 4996.2 5025.4 4999.3 5015.9 5002.4 5006.4 4992.4 5006.4 5000.5 5000.5 5010.5 5000.5 5020.5 5000.5 5030.5 5000.5 5027.4 4991 5035.5 4996.9 5038.6 5006.4 5041.7 5015.9 5044.8 5025.4 5052.9 5019.5 5049.8 5029 5041.7 5034.9 5033.6 5040.8 5025.5 5046.7 5033.6 5052.5 5023.6 5052.5 5015.5 5046.7 5007.4 5040.8 4999.3 5034.9 4996.2 5044.4 4993.1 5034.9 4996.2 5025.4" clip-path="url(#a)" fill="none" stroke="#000" stroke-linecap="round"/>
<polyline points="4996.2 5025.4 4999.3 5015.9 5002.4 5006.4 4992.4 5006.4 5000.5 5000.5 5010.5 5000.5 5020.5 5000.5 5030.5 5000.5 5027.4 4991 5035.5 4996.9 5038.6 5006.4 5041.7 5015.9 5044.8 5025.4 5052.9 5019.5 5049.8 5029 5041.7 5034.9 5033.6 5040.8 5025.5 5046.7 5033.6 5052.5 5023.6 5052.5 5015.5 5046.7 5007.4 5040.8 4999.3 5034.9 4996.2 5044.4 4993.1 5034.9 4996.2 5025.4 4999.3 5015.9 5002.4 5006.4 4992.4 5006.4 5000.5 5000.5 5010.5 5000.5 5020.5 5000.5 5030.5 5000.5 5027.4 4991 5035.5 4996.9 5038.6 5006.4 5041.7 5015.9 5044.8 5025.4 5052.9 5019.5 5049.8 5029 5041.7 5034.9 5033.6 5040.8 5025.5 5046.7" clip-path="url(#a)" fill="none" stroke="#000" stroke-linecap="round"/>
<polyline points="5025.5 5046.7 5033.6 5052.5 5023.6 5052.5 5015.5 5046.7 5007.4 5040.8 4999.3 5034.9 4996.2 5044.4 4993.1 5034.9 4996.2 5025.4 4999.3 5015.9 5002.4 5006.4 4992.4 5006.4 5000.5 5000.5 5010.5 5000.5 5020.5 5000.5 5030.5 5000.5 5027.4 4991 5035.5 4996.9 5038.6 5006.4 5041.7 5015.9 5044.8 5025.4 5052.9 5019.5 5049.8 5029 5041.7 5034.9 5033.6 5040.8 5025.5 5046.7 5033.6 5052.5 5023.6 5052.5 5015.5 5046.7 5007.4 5040.8 4999.3 5034.9 4996.2 5044.4 4993.1 5034.9 4996.2 5025.4 4999.3 5015.9 5002.4 5006.4 4992.4 5006.4 5000.5 5000.5 5010.5 5000.5 5020.5 5000.5 5030.5 5000.5 5027.4 4991 5035.5 4996.9" clip-path="url(#a)" fill="none" stroke="#000" stroke-linecap="round"/>
<polyline points="5035.5 4996.9 5038.6 5006.4 5041.7 5015.9 5044.8 5025.4 5052.9 5019.5 5049.8 5029 5041.7 5034.9 5033.6 5040.8 5025.5 5046.7 5033.6 5052.5 5023.6 5052.5 5015.5 5046.7 5007.4 5040.8 4999.3 5034.9 4996.2 5044.4 4993.1 5034.9 4996.2 5025.4 4999.3 5015.9 5002.4 5006.4 4992.4 5006.4 5000.5 5000.5 5010.5 5000.5 5020.5 5000.5 5030.5 5000.5 5027.4 4991 5035.5 4996.9 5038.6 5006.4 5041.7 5015.9 5044.8 5025.4 5052.9 5019.5 5049.8 5029 5041.7 5034.9 5033.6 5040.8 5025.5 5046.7 5033.6 5052.5 5023.6 5052.5 5015.5 5046.7 5007.4 5040.8 4999.3 5034.9 4996.2 5044.4 4993.1 5034.9 4996.2 5025.4 4999.3 5015.9" clip-path="url(#a)" fill="none" stroke="#000" stroke-linecap="round"/>
<polyline points="4999.3 5015.9 5002.4 5006.4 4992.4 5006.4 5000.5 5000.5 5010.5 5000.5 5020.5 5000.5 5030.5 5000.5 5027.4 4991 5035.5 4996.9 5038.6 5006.4 5041.7 5015.9 5044.8 5025.4 5052.9 5019.5 5049.8 5029 5041.7 5034.9 5033.6 5040.8 5025.5 5046.7 5033.6 5052.5 5023.6 5052.5 5015.5 5046.7 5007.4 5040.8 4999.3 5034.9 4996.2 5044.4 4993.1 5034.9 4996.2 5025.4 4999.3 5015.9 5002.4 5006.4 4992.4 5006.4 5000.5 5000.5 5010.5 5000.5 5020.5 5000.5 5030.5 5000.5 5027.4 4991 5035.5 4996.9 5038.6 5006.4 5041.7 5015.9 5044.8 5025.4 5052.9 5019.5 5049.8 5029 5041.7 5034.9 5033.6 5040.8 5025.5 5046.7 5033.6 5052.5" clip-path="url(#a)" fill="none" stroke="#000" stroke-linecap="round"/>
<polyline points="5033.6 5052.5 5023.6 5052.5 5015.5 5046.7 5007.4 5040.8 4999.3 5034.9 4996.2 5044.4 4993.1 5034.9 4996.2 5025.4 4999.3 5015.9 5002.4 5006.4 4992.4 5006.4 5000.5 5000.5 5010.5 5000.5 5020.5 5000.5 5030.5 5000.5 5027.4 4991 5035.5 4996.9 5038.6 5006.4 5041.7 5015.9 5044.8 5025.4 5052.9 5019.5 5049.8 5029 5041.7 5034.9 5033.6 5040.8 5025.5 5046.7 5033.6 5052.5 5023.6 5052.5 5015.5 5046.7 5007.4 5040.8 4999.3 5034.9 4996.2 5044.4 4993.1 5034.9 4996.2 5025.4 4999.3 5015.9 5002.4 5006.4 4992.4 5006.4 5000.5 5000.5 5010.5 5000.5 5020.5 5000.5 5030.5 5000.5 5027.4 4991 5035.5 4996.9 5038.6 5006.4" clip-path="url(#a)" fill="none" stroke="#000" stroke-linecap="round"/>
<polyline points="5038.6 5006.4 5041.7 5015.9 5044.8 5025.4 5052.9 5019.5 5049.8 5029 5041.7 5034.9 5033.6 5040.8 5025.5 5046.7 5033.6 5052.5 5023.6 5052.5 5015.5 5046.7 5007.4 5040.8 4999.3 5034.9 4996.2 5044.4 4993.1 5034.9 4996.2 5025.4 4999.3 5015.9 5002.4 5006.4 4992.4 5006.4 5000.5 5000.5 5010.5 5000.5 5020.5 5000.5 5030.5 5000.5 5027.4 4991 5035.5 4996.9 5038.6 5006.4 5041.7 5015.9 5044.8 5025.4 5052.9 5019.5 5049.8 5029 5041.7 5034.9 5033.6 5040.8 5025.5 5046.7 5033.6 5052.5 5023.6 5052.5 5015.5 5046.7 5007.4 5040.8 4999.3 5034.9 4996.2 5044.4 4993.1 5034.9 4996.2 5025.4 4999.3 5015.9 5002.4 5006.4" clip-path="url(#a)" fill="none" stroke="#000" stroke-linecap="round"/>
<polyline points="5002.4 5006.4 4992.4 5006.4 5000.5 5000.5 5010.5 5000.5 5020.5 5000.5 5030.5 5000.5 5027.4 4991 5035.5 4996.9 5038.6 5006.4 5041.7 5015.9 5044.8 5025.4 5052.9 5019.5 5049.8 5029 5041.7 5034.9 5033.6 5040.8 5025.5 5046.7 5033.6 5052.5 5023.6 5052.5 5015.5 5046.7 5007.4 5040.8 4999.3 5034.9 4996.2 5044.4 4993.1 5034.9 4996.2 5025.4 4999.3 5015.9 5002.4 5006.4 4992.4 5006.4 5000.5 5000.5 5010.5 5000.5 5020.5 5000.5 5030.5 5000.5 5027.4 4991 5035.5 4996.9 5038.6 5006.4 5041.7 5015.9 5044.8 5025.4 5052.9 5019.5 5049.8 5029 5041.7 5034.9 5033.6 5040.8 5025.5 5046.7 5033.6 5052.5 5023.6 5052.5" clip-path="url(#a)" fill="none" stroke="#000" stroke-linecap="round"/>
<polyline points="5023.6 5052.5 5015.5 5046.7 5007.4 5040.8 4999.3 5034.9 4996.2 5044.4 4993.1 5034.9 4996.2 5025.4 4999.3 5015.9 5002.4 5006.4 4992.4 5006.4 5000.5 5000.5 5010.5 5000.5 5020.5 5000.5 5030.5 5000.5 5027.4 4991 5035.5 4996.9 5038.6 5006.4 5041.7 5015.9 5044.8 5025.4 5052.9 5019.5 5049.8 5029 5041.7 5034.9 5033.6 5040.8 5025.5 5046.7 5033.6 5052.5 5023.6 5052.5 5015.5 5046.7 5007.4 5040.8 4999.3 5034.9 4996.2 5044.4 4993.1 5034.9 4996.2 5025.4 4999.3 5015.9 5002.4 5006.4 4992.4 5006.4 5000.5 5000.5 5010.5 5000.5 5020.5 5000.5 5030.5 5000.5 5027.4 4991 5035.5 4996.9 5038.6 5006.4 5041.7 5015.9" clip-path="url(#a)" fill="none" stroke="#000" stroke-linecap="round"/>
<polyline points="5041.7 5015.9 5044.8 5025.4 5052.9 5019.5 5049.8 5029 5041.7 5034.9 5033.6 5040.8 5025.5 5046.7 5033.6 5052.5 5023.6 5052.5 5015.5 5046.7 5007.4 5040.8 4999.3 5034.9 4996.2 5044.4 4993.1 5034.9 4996.2 5025.4 4999.3 5015.9 5002.4 5006.4 4992.4 5006.4 5000.5 5000.5 5010.5 5000.5 5020.5 5000.5 5030.5 5000.5 5027.4 4991 5035.5 4996.9 5038.6 5006.4 5041.7 5015.9 5044.8 5025.4 5052.9 5019.5 5049.8 5029 5041.7 5034.9 5033.6 5040.8 5025.5 5046.7 5033.6 5052.5 5023.6 5052.5 5015.5 5046.7 5007.4 5040.8 4999.3 5034.9 4996.2 5044.4 4993.1 5034.9 4996.2 5025.4 4999.3 5015.9 5002.4 5006.4 4992.4 5006.4" clip-path="url(#a)" fill="none" stroke="#000" stroke-linecap="round"/>
<polyline points="4992.4 5006.4 5000.5 5000.5 5010.5 5000.5 5020.5 5000.5 5030.5 5000.5 5027.4 4991 5035.5 4996.9 5038.6 5006.4 5041.7 5015.9 5044.8 5025.4 5052.9 5019.5 5049.8 5029 5041.7 5034.9 5033.6 5040.8 5025.5 5046.7 5033.6 5052.5 5023.6 5052.5 5015.5 5046.7 5007.4 5040.8 4999.3 5034.9 4996.2 5044.4 4993.1 5034.9 4996.2 5025.4 4999.3 5015.9 5002.4 5006.4 4992.4 5006.4 5000.5 5000.5 5010.5 5000.5 5020.5 5000.5 5030.5 5000.5 5027.4 4991 5035.5 4996.9 5038.6 5006.4 5041.7 5015.9 5044.8 5025.4 5052.9 5019.5 5049.8 5029 5041.7 5034.9 5033.6 5040.8 5025.5 5046.7 5033.6 5052.5 5023.6 5052.5 5015.5 5046.7" clip-path="url(#a)" fill="none" stroke="#000" stroke-linecap="round"/>
<polyline points="5015.5 5046.7 5007.4 5040.8 4999.3 5034.9 4996.2 5044.4 4993.1 5034.9 4996.2 5025.4 4999.3 5015.9 5002.4 5006.4 4992.4 5006.4 5000.5 5000.5 5010.5 5000.5 5020.5 5000.5 5030.5 5000.5 5027.4 4991 5035.5 4996.9 5038.6 5006.4 5041.7 5015.9 5044.8 5025.4 5052.9 5019.5 5049.8 5029 5041.7 5034.9 5033.6 5040.8 5025.5 5046.7 5033.6 5052.5 5023.6 5052.5 5015.5 5046.7 5007.4 5040.8 4999.3 5034.9 4996.2 5044.4 4993.1 5034.9 4996.2 5025.4 4999.3 5015.9 5002.4 5006.4 4992.4 5006.4 5000.5 5000.5 5010.5 5000.5 5020.5 5000.5 5030.5 5000.5 5027.4 4991 5035.5 4996.9 5038.6 5006.4 5041.7 5015.9 5044.8 5025.4" clip-path="url(#a)" fill="none" stroke="#000" stroke-linecap="round"/>
<polyline points="5044.8 5025.4 5052.9 5019.5 5049.8 5029 5041.7 5034.9 5033.6 5040.8 5025.5 5046.7 5033.6 5052.5 5023.6 5052.5 5015.5 5046.7 5007.4 5040.8 4999.3 5034.9 4996.2 5044.4 4993.1 5034.9 4996.2 5025.4 4999.3 5015.9 5002.4 5006.4 4992.4 5006.4 5000.5 5000.5 5010.5 5000.5 5020.5 5000.5 5030.5 5000.5 5027.4 4991 5035.5 4996.9 5038.6 5006.4 5041.7 5015.9 5044.8 5025.4 5052.9 5019.5 5049.8 5029 5041.7 5034.9 5033.6 5040.8 5025.5 5046.7 5033.6 5052.5 5023.6 5052.5 5015.5 5046.7 5007.4 5040.8 4999.3 5034.9 4996.2 5044.4 4993.1 5034.9 4996.2 5025.4 4999.3 5015.9 5002.4 5006.4 4992.4 5006.4 5000.5 5000.5" clip-path="url(#a)" fill="none" stroke="#000" stroke-linecap="round"/>
<polyline points="5000.5 5000.5 5010.5 5000.5 5020.5 5000.5 5030.5 5000.5 5027.4 4991 5035.5 4996.9 5038.6 5006.4 5041.7 5015.9 5044.8 5025.4 5052.9 5019.5 5049.8 5029 5041.7 5034.9 5033.6 5040.8 5025.5 5046.7 5033.6 5052.5 5023.6 5052.5 5015.5 5046.7 5007.4 5040.8 4999.3 5034.9 4996.2 5044.4 4993.1 5034.9 4996.2 5025.4 4999.3 5015.9 5002.4 5006.4 4992.4 5006.4 5000.5 5000.5 5010.5 5000.5 5020.5 5000.5 5030.5 5000.5 5027.4 4991 5035.5 4996.9 5038.6 5006.4 5041.7 5015.9 5044.8 5025.4 5052.9 5019.5 5049.8 5029 5041.7 5034.9 5033.6 5040.8 5025.5 5046.7 5033.6 5052.5 5023.6 5052.5 5015.5 5046.7 5007.4 5040.8" clip-path="url(#a)" fill="none" stroke="#000" stroke-linecap="round"/>
<polyline points="5007.4 5040.8 4999.3 5034.9 4996.2 5044.4 4993.1 5034.9 4996.2 5025.4 4999.3 5015.9 5002.4 5006.4 4992.4 5006.4 5000.5 5000.5 5010.5 5000.5 5020.5 5000.5 5030.5 5000.5 5027.4 4991 5035.5 4996.9 5038.6 5006.4 5041.7 5015.9 5044.8 5025.4 5052.9 5019.5 5049.8 5029 5041.7 5034.9 5033.6 5040.8 5025.5 5046.7 5033.6 5052.5 5023.6 5052.5 5015.5 5046.7 5007.4 5040.8 4999.3 5034.9 4996.2 5044.4 4993.1 5034.9 4996.2 5025.4 4999.3 5015.9 5002.4 5006.4 4992.4 5006.4 5000.5 5000.5 5010.5 5000.5 5020.5 5000.5 5030.5 5000.5 5027.4 4991 5035.5 4996.9 5038.6 5006.4 5041.7 5015.9 5044.8 5025.4 5052.9 5019.5" clip-path="url(#a)" fill="none" stroke="#000" stroke-linecap="round"/>
<polyline points="5052.9 5019.5 5049.8 5029 5041.7 5034.9 5033.6 5040.8 5025.5 5046.7 5033.6 5052.5 5023.6 5052.5 5015.5 5046.7 5007.4 5040.8 4999.3 5034.9 4996.2 5044.4 4993.1 5034.9 4996.2 5025.4 4999.3 5015.9 5002.4 5006.4 4992.4 5006.4 5000.5 5000.5 5010.5 5000.5 5020.5 5000.5 5030.5 5000.5 5027.4 4991 5035.5 4996.9 5038.6 5006.4 5041.7 5015.9 5044.8 5025.4 5052.9 5019.5 5049.8 5029 5041.7 5034.9 5033.6 5040.8 5025.5 5046.7 5033.6 5052.5 5023.6 5052.5 5015.5 5046.7 5007.4 5040.8 4999.3 5034.9 4996.2 5044.4 4993.1 5034.9 4996.2 5025.4 4999.3 5015.9 5002.4 5006.4 4992.4 5006.4 5000.5 5000.5 5010.5 5000.5" clip-path="url(#a)" fill="none" stroke="#000" stroke-linecap="round"/>
<polyline points="5010.5 5000.5 5020.5 5000.5 5030.5 5000.5 5027.4 4991 5035.5 4996.9 5038.6 5006.4 5041.7 5015.9 5044.8 5025.4 5052.9 5019.5 5049.8 5029 5041.7 5034.9 5033.6 5040.8 5025.5 5046.7 5033.6 5052.5 5023.6 5052.5 5015.5 5046.7 5007.4 5040.8 4999.3 5034.9 4996.2 5044.4 4993.1 5034.9 4996.2 5025.4 4999.3 5015.9 5002.4 5006.4 4992.4 5006.4 5000.5 5000.5" clip-path="url(#a)" fill="none" stroke="#000" stroke-linecap="round"/>
</svg>
