<?xml version="1.0" encoding="UTF-8"?>
<svg width="1e4px" height="1e4px" baseProfile="full" version="1.1" viewBox="4509.5 4655.5 548.33 536.02" xmlns="http://www.w3.org/2000/svg">
<defs>
<clipPath id="a">
<rect width="1e4" height="1e4"/>
</clipPath>
</defs>
<polyline points="5000.5 5000.5 5010.5 5000.5 5020.5 5000.5 5030.5 5000.5 5027.4 4991 5030.5 5000.5 5038.6 4994.6 5030.5 4988.7 5038.6 4994.6 5028.6 4994.6 5025.5 4985.1 5028.6 4975.6 5031.7 4966.1 5023.6 4972 5031.7 4966.1 5041.7 4966.1 5038.6 4956.6 5046.7 4962.5 5049.8 4952.9 5057.9 4947.1 5049.8 4952.9 5046.7 4943.4 5049.8 4952.9 5046.7 4962.5 5038.6 4956.6 5028.6 4956.6 5031.7 4947.1 5021.7 4947.1 5013.6 4952.9 5023.6 4952.9 5015.5 4947.1 5018.6 4937.6 5026.7 4943.4 5016.7 4943.4 5019.8 4952.9 5029.8 4952.9 5019.8 4952.9 5009.8 4952.9 5006.7 4943.4 5014.8 4937.6 5006.7 4931.7 5003.6 4941.2 4995.5 4947.1" clip-path="url(#a)" fill="none" stroke="#000" stroke-linecap="round"/>
<polyline points="4995.5 4947.1 4998.6 4956.6 5008.6 4956.6 5011.7 4947.1 5014.8 4956.6 5022.9 4962.5 5019.8 4952.9 5027.9 4947.1 5017.9 4947.1 5007.9 4947.1 4999.8 4941.2 5002.9 4931.7 5011 4925.8 5002.9 4919.9 4999.8 4910.4 5002.9 4900.9 4994.8 4895 4991.7 4885.5 4983.6 4891.4 4986.7 4900.9 4978.6 4906.8 4981.7 4897.3 4973.6 4891.4 4963.6 4891.4 4955.5 4885.5 4947.4 4879.6 4950.5 4870.1 4947.4 4860.6 4937.4 4860.6 4940.5 4851.1 4932.4 4845.2 4924.3 4839.4 4927.4 4829.8 4919.3 4835.7 4911.2 4829.8 4903.1 4824 4911.2 4829.8 4901.2 4829.8 4911.2 4829.8 4908.1 4820.3 4918.1 4820.3 4926.2 4814.5 4934.3 4808.6" clip-path="url(#a)" fill="none" stroke="#000" stroke-linecap="round"/>
<polyline points="4934.3 4808.6 4931.2 4799.1 4928.1 4808.6 4920 4802.7 4917 4812.2 4925 4806.3 4935 4806.3 4938.1 4815.8 4948.1 4815.8 4945 4806.3 4937 4812.2 4940 4821.7 4948.1 4827.6 4940 4821.7 4948.1 4827.6 4945 4818.1 4955 4818.1 4952 4827.6 4948.9 4837.1 4958.9 4837.1 4967 4831.2 4975 4837.1 4983.1 4843 4991.2 4837.1 4994.3 4827.6 4986.2 4821.7 4978.1 4815.8 4968.1 4815.8 4976.2 4821.7 4986.2 4821.7 4983.1 4812.2 4980 4821.7 4988.1 4827.6 4980 4833.5 4988.1 4827.6 4985 4837.1 4988.1 4846.6 4980 4852.5 4988.1 4858.4 4980 4864.2 4990 4864.2 4980 4864.2 4990 4864.2" clip-path="url(#a)" fill="none" stroke="#000" stroke-linecap="round"/>
<polyline points="4990 4864.2 4993.1 4873.8 5001.2 4867.9 5009.3 4862 5001.2 4856.1 5004.3 4846.6 5014.3 4846.6 5006.2 4852.5 4996.2 4852.5 4993.1 4862 4996.2 4852.5 5004.3 4858.4 5007.4 4867.9 5004.3 4858.4 5001.2 4848.9 5004.3 4858.4 5012.4 4852.5 5020.5 4846.6 5028.6 4840.7 5020.5 4834.9 5028.6 4840.7 5031.7 4831.2 5021.7 4831.2 5031.7 4831.2 5023.6 4837.1 5015.5 4831.2 5012.4 4821.7 5009.3 4812.2 5006.2 4821.7 5009.3 4812.2 5017.4 4806.3 5009.3 4800.5 5019.3 4800.5 5016.2 4790.9 5019.3 4781.4 5016.2 4790.9 5008.1 4785.1 5016.2 4790.9 5019.3 4800.5 5009.3 4800.5 5001.2 4806.3 4998.1 4796.8 4990 4802.7" clip-path="url(#a)" fill="none" stroke="#000" stroke-linecap="round"/>
<polyline points="4990 4802.7 4987 4812.2 4995 4806.3 4985 4806.3 4982 4796.8 4992 4796.8 4983.9 4802.7 4992 4808.6 5e3 4802.7 4992 4808.6 4983.9 4814.5 4975.8 4808.6 4978.9 4799.1 4968.9 4799.1 4972 4808.6 4968.9 4818.1 4977 4824 4985 4818.1 4982 4808.6 4990 4814.5 5e3 4814.5 4992 4808.6 4995 4799.1 4987 4804.9 4978.9 4810.8 4968.9 4810.8 4965.8 4801.3 4968.9 4791.8 4958.9 4791.8 4950.8 4785.9 4947.7 4776.4 4937.7 4776.4 4929.6 4770.5 4926.5 4780 4934.6 4785.9 4931.5 4795.4 4928.4 4785.9 4918.4 4785.9 4910.3 4791.8 4900.3 4791.8 4890.3 4791.8 4887.2 4782.3 4879.1 4776.4" clip-path="url(#a)" fill="none" stroke="#000" stroke-linecap="round"/>
<polyline points="4879.1 4776.4 4871.1 4782.3 4868 4772.8 4858 4772.8 4848 4772.8 4844.9 4763.3 4841.8 4772.8 4831.8 4772.8 4821.8 4772.8 4831.8 4772.8 4823.7 4778.7 4831.8 4772.8 4823.7 4766.9 4831.8 4761 4834.9 4751.5 4838 4742 4829.9 4736.1 4833 4745.6 4823 4745.6 4826.1 4755.1 4829.1 4745.6 4837.2 4739.8 4845.3 4745.6 4853.4 4739.8 4845.3 4733.9 4842.2 4743.4 4850.3 4749.3 4860.3 4749.3 4850.3 4749.3 4860.3 4749.3 4852.2 4743.4 4860.3 4737.5 4863.4 4747 4866.5 4756.5 4874.6 4750.7 4877.7 4741.1 4887.7 4741.1 4897.7 4741.1 4900.8 4731.6 4897.7 4722.1 4887.7 4722.1 4877.7 4722.1 4869.6 4728" clip-path="url(#a)" fill="none" stroke="#000" stroke-linecap="round"/>
<polyline points="4869.6 4728 4879.6 4728 4887.7 4722.1 4879.6 4716.2 4882.7 4725.8 4892.7 4725.8 4889.6 4735.3 4892.7 4725.8 4895.8 4735.3 4903.9 4741.1 4900.8 4750.7 4910.8 4750.7 4907.7 4760.2 4915.8 4754.3 4907.7 4760.2 4915.8 4754.3 4923.9 4760.2 4927 4750.7 4930 4741.1 4920 4741.1 4917 4731.6 4925 4725.8 4922 4735.3 4913.9 4741.1 4917 4750.7 4913.9 4741.1 4923.9 4741.1 4932 4747 4923.9 4741.1 4915.8 4735.3 4923.9 4741.1 4927 4731.6 4930 4722.1 4933.1 4712.6 4923.1 4712.6 4933.1 4712.6 4930 4703.1 4922 4709 4930 4703.1 4927 4712.6 4917 4712.6 4908.9 4706.7 4900.8 4700.9" clip-path="url(#a)" fill="none" stroke="#000" stroke-linecap="round"/>
<polyline points="4900.8 4700.9 4903.9 4710.4 4900.8 4700.9 4903.9 4691.3 4893.9 4691.3 4902 4685.5 4893.9 4679.6 4890.8 4670.1 4893.9 4679.6 4883.9 4679.6 4893.9 4679.6 4902 4685.5 4893.9 4691.3 4890.8 4700.9 4882.7 4695 4879.6 4704.5 4882.7 4714 4885.8 4704.5 4877.7 4710.4 4869.6 4704.5 4877.7 4698.6 4874.6 4708.1 4884.6 4708.1 4887.7 4698.6 4884.6 4708.1 4881.5 4717.6 4871.5 4717.6 4868.4 4708.1 4860.3 4714 4868.4 4719.9 4871.5 4729.4 4881.5 4729.4 4884.6 4719.9 4876.5 4714 4886.5 4714 4894.6 4708.1 4884.6 4708.1 4881.5 4698.6 4878.4 4708.1 4875.3 4717.6 4867.2 4723.5 4859.1 4717.6 4856.1 4708.1" clip-path="url(#a)" fill="none" stroke="#000" stroke-linecap="round"/>
<polyline points="4856.1 4708.1 4848 4714 4838 4714 4829.9 4708.1 4821.8 4714 4811.8 4714 4814.9 4723.5 4824.9 4723.5 4828 4733 4819.9 4727.1 4811.8 4733 4808.7 4742.5 4800.6 4748.4 4792.5 4754.3 4784.4 4748.4 4774.4 4748.4 4771.3 4757.9 4763.2 4752 4755.2 4757.9 4747.1 4763.8 4739 4757.9 4742.1 4767.4 4734 4773.3 4725.9 4779.2 4734 4773.3 4730.9 4782.8 4734 4773.3 4724 4773.3 4727.1 4763.8 4724 4754.3 4720.9 4744.8 4710.9 4744.8 4719 4750.7 4710.9 4756.5 4719 4762.4 4715.9 4752.9 4719 4743.4 4729 4743.4 4732.1 4733.9 4722.1 4733.9 4725.2 4743.4 4735.2 4743.4 4743.2 4737.5" clip-path="url(#a)" fill="none" stroke="#000" stroke-linecap="round"/>
<polyline points="4743.2 4737.5 4735.2 4743.4 4743.2 4737.5 4733.2 4737.5 4736.3 4728 4744.4 4733.9 4752.5 4739.8 4755.6 4730.2 4752.5 4720.7 4760.6 4714.9 4768.7 4709 4765.6 4699.5 4757.5 4693.6 4749.4 4699.5 4741.3 4705.3 4738.2 4714.9 4746.3 4709 4749.4 4699.5 4739.4 4699.5 4747.5 4705.3 4755.6 4699.5 4758.7 4709 4755.6 4699.5 4763.7 4705.3 4773.7 4705.3 4776.8 4714.9 4784.9 4709 4788 4718.5 4791.1 4709 4788 4718.5 4791.1 4709 4801.1 4709 4798 4699.5 4794.9 4690 4786.8 4695.8 4778.7 4690 4781.8 4680.4 4784.9 4690 4781.8 4699.5 4789.9 4705.3 4781.8 4699.5 4789.9 4693.6 4799.9 4693.6" clip-path="url(#a)" fill="none" stroke="#000" stroke-linecap="round"/>
<polyline points="4799.9 4693.6 4789.9 4693.6 4779.9 4693.6 4789.9 4693.6 4786.8 4684.1 4783.7 4674.6 4780.6 4665.1 4772.5 4670.9 4780.6 4665.1 4772.5 4659.2 4769.4 4668.7 4772.5 4659.2 4775.6 4668.7 4767.5 4674.6 4757.5 4674.6 4747.5 4674.6 4755.6 4680.4 4747.5 4674.6 4744.4 4665.1 4736.3 4670.9 4739.4 4661.4 4729.4 4661.4 4721.3 4655.5 4729.4 4661.4 4721.3 4667.3 4729.4 4661.4 4739.4 4661.4 4736.3 4670.9 4739.4 4680.4 4729.4 4680.4 4732.5 4690 4740.6 4695.8 4737.5 4686.3 4734.4 4695.8 4724.4 4695.8 4727.5 4686.3 4730.6 4695.8 4738.7 4690 4735.6 4680.4 4738.7 4690 4741.8 4699.5 4733.7 4705.3 4725.6 4699.5" clip-path="url(#a)" fill="none" stroke="#000" stroke-linecap="round"/>
<polyline points="4725.6 4699.5 4722.5 4709 4732.5 4709 4740.6 4714.9 4748.7 4709 4745.6 4699.5 4735.6 4699.5 4743.7 4693.6 4746.8 4684.1 4738.7 4690 4730.6 4684.1 4733.7 4693.6 4736.8 4703.1 4733.7 4712.6 4723.7 4712.6 4715.6 4706.7 4712.5 4716.2 4704.4 4722.1 4694.4 4722.1 4691.3 4731.6 4683.2 4737.5 4691.3 4743.4 4699.4 4737.5 4707.5 4743.4 4697.5 4743.4 4694.4 4752.9 4697.5 4762.4 4694.4 4771.9 4691.3 4781.4 4681.3 4781.4 4673.2 4787.3 4676.3 4796.8 4666.3 4796.8 4663.2 4806.3 4660.2 4815.8 4650.2 4815.8 4658.2 4821.7 4655.2 4831.2 4652.1 4840.7 4655.2 4831.2 4658.2 4840.7 4655.2 4831.2 4647.1 4837.1" clip-path="url(#a)" fill="none" stroke="#000" stroke-linecap="round"/>
<polyline points="4647.1 4837.1 4644 4827.6 4635.9 4821.7 4627.8 4815.8 4619.7 4821.7 4629.7 4821.7 4626.6 4831.2 4636.6 4831.2 4628.5 4825.3 4625.4 4815.8 4633.5 4810 4630.4 4800.5 4622.3 4806.3 4630.4 4812.2 4638.5 4806.3 4641.6 4796.8 4638.5 4806.3 4641.6 4796.8 4633.5 4802.7 4630.4 4793.2 4640.4 4793.2 4650.4 4793.2 4647.3 4783.7 4639.3 4777.8 4642.3 4768.3 4645.4 4758.8 4637.3 4752.9 4627.3 4752.9 4624.3 4762.4 4621.2 4771.9 4624.3 4781.4 4627.3 4771.9 4624.3 4762.4 4616.2 4768.3 4626.2 4768.3 4629.3 4758.8 4637.3 4764.7 4629.3 4758.8 4639.3 4758.8 4647.3 4752.9 4655.4 4758.8 4658.5 4749.3 4666.6 4755.1" clip-path="url(#a)" fill="none" stroke="#000" stroke-linecap="round"/>
<polyline points="4666.6 4755.1 4663.5 4745.6 4666.6 4755.1 4663.5 4745.6 4671.6 4739.8 4663.5 4733.9 4655.4 4728 4652.3 4737.5 4642.3 4737.5 4639.3 4728 4647.3 4733.9 4650.4 4743.4 4660.4 4743.4 4650.4 4743.4 4653.5 4733.9 4661.6 4728 4653.5 4733.9 4645.4 4739.8 4653.5 4733.9 4645.4 4728 4637.3 4722.1 4629.3 4716.2 4626.2 4725.8 4629.3 4716.2 4619.3 4716.2 4622.3 4725.8 4619.3 4716.2 4627.3 4722.1 4624.3 4731.6 4616.2 4737.5 4608.1 4743.4 4618.1 4743.4 4608.1 4743.4 4600 4737.5 4596.9 4747 4593.8 4737.5 4585.7 4743.4 4575.7 4743.4 4585.7 4743.4 4582.6 4752.9 4585.7 4743.4 4593.8 4737.5 4596.9 4747" clip-path="url(#a)" fill="none" stroke="#000" stroke-linecap="round"/>
<polyline points="4596.9 4747 4605 4752.9 4596.9 4758.8 4605 4764.7 4615 4764.7 4606.9 4758.8 4610 4768.3 4601.9 4774.2 4598.8 4764.7 4606.9 4770.5 4610 4761 4601.9 4755.1 4610 4761 4618.1 4766.9 4615 4776.4 4605 4776.4 4608.1 4785.9 4616.2 4780 4626.2 4780 4629.3 4770.5 4621.2 4764.7 4613.1 4770.5 4616.2 4761 4613.1 4751.5 4610 4761 4600 4761 4608.1 4766.9 4616.2 4772.8 4619.3 4782.3 4611.2 4788.2 4601.2 4788.2 4604.3 4797.7 4601.2 4807.2 4593.1 4813.1 4596.2 4822.6 4593.1 4832.1 4603.1 4832.1 4606.2 4822.6 4616.2 4822.6 4608.1 4828.5 4611.2 4838 4619.3 4843.8 4622.3 4853.4" clip-path="url(#a)" fill="none" stroke="#000" stroke-linecap="round"/>
<polyline points="4622.3 4853.4 4625.4 4862.9 4617.3 4868.7 4614.3 4878.3 4622.3 4884.1 4614.3 4890 4617.3 4899.5 4620.4 4909 4612.3 4914.9 4622.3 4914.9 4625.4 4924.4 4628.5 4933.9 4625.4 4924.4 4633.5 4930.3 4625.4 4924.4 4622.3 4933.9 4614.3 4928 4604.3 4928 4594.3 4928 4591.2 4937.6 4599.3 4931.7 4602.3 4941.2 4610.4 4935.3 4600.4 4935.3 4592.3 4929.4 4595.4 4919.9 4587.3 4914 4584.3 4923.6 4594.3 4923.6 4597.3 4914 4594.3 4904.5 4597.3 4914 4594.3 4904.5 4591.2 4914 4583.1 4908.2 4591.2 4902.3 4599.3 4896.4 4591.2 4890.5 4581.2 4890.5 4578.1 4881 4575 4871.5 4565 4871.5 4556.9 4877.4" clip-path="url(#a)" fill="none" stroke="#000" stroke-linecap="round"/>
<polyline points="4556.9 4877.4 4560 4886.9 4563.1 4896.4 4571.2 4902.3 4568.1 4892.8 4560 4886.9 4556.9 4896.4 4565 4890.5 4561.9 4881 4571.9 4881 4561.9 4881 4570 4875.1 4573.1 4865.6 4583.1 4865.6 4580 4856.1 4590 4856.1 4581.9 4850.2 4590 4856.1 4581.9 4850.2 4585 4840.7 4575 4840.7 4565 4840.7 4568.1 4850.2 4560 4856.1 4551.9 4850.2 4561.9 4850.2 4570 4856.1 4578.1 4850.2 4570 4856.1 4566.9 4846.6 4570 4837.1 4566.9 4846.6 4563.8 4856.1 4566.9 4846.6 4556.9 4846.6 4546.9 4846.6 4536.9 4846.6 4540 4856.1 4536.9 4846.6 4528.8 4852.5 4536.9 4858.4 4528.8 4852.5 4538.8 4852.5" clip-path="url(#a)" fill="none" stroke="#000" stroke-linecap="round"/>
<polyline points="4538.8 4852.5 4541.9 4862 4538.8 4871.5 4535.7 4881 4543.8 4875.1 4535.7 4881 4525.7 4881 4528.8 4890.5 4520.7 4884.7 4517.6 4894.2 4509.5 4900 4517.6 4894.2 4520.7 4903.7 4517.6 4894.2 4520.7 4884.7 4528.8 4890.5 4538.8 4890.5 4535.7 4900 4545.7 4900 4553.8 4894.2 4543.8 4894.2 4551.9 4900 4548.8 4909.6 4540.7 4903.7 4550.7 4903.7 4547.6 4894.2 4537.6 4894.2 4547.6 4894.2 4557.6 4894.2 4560.7 4903.7 4552.6 4909.6 4560.7 4915.4 4563.8 4905.9 4571.9 4900 4568.8 4890.5 4558.8 4890.5 4555.7 4900 4552.6 4890.5 4544.5 4884.7 4547.6 4894.2 4539.5 4900 4549.5 4900 4559.5 4900" clip-path="url(#a)" fill="none" stroke="#000" stroke-linecap="round"/>
<polyline points="4559.5 4900 4567.6 4905.9 4564.5 4915.4 4556.4 4921.3 4564.5 4927.2 4567.6 4936.7 4564.5 4946.2 4572.6 4952.1 4575.7 4961.6 4583.8 4955.7 4580.7 4946.2 4588.8 4940.3 4585.7 4949.8 4593.8 4955.7 4603.8 4955.7 4611.9 4961.6 4620 4967.5 4616.9 4977 4620 4986.5 4630 4986.5 4626.9 4996 4635 5001.9 4643.1 5007.8 4640 5017.3 4648.1 5011.4 4656.2 5017.3 4664.3 5023.2 4656.2 5017.3 4666.2 5017.3 4656.2 5017.3 4659.3 5026.8 4649.3 5026.8 4641.2 5032.7 4633.1 5038.5 4636.2 5048.1 4639.3 5038.5 4647.3 5044.4 4650.4 5034.9 4642.3 5040.8 4632.3 5040.8 4629.3 5031.3 4619.3 5031.3 4622.3 5040.8" clip-path="url(#a)" fill="none" stroke="#000" stroke-linecap="round"/>
<polyline points="4622.3 5040.8 4630.4 5034.9 4627.3 5025.4 4619.3 5019.5 4627.3 5025.4 4619.3 5019.5 4622.3 5029 4612.3 5029 4615.4 5019.5 4618.5 5010 4608.5 5010 4600.4 5015.9 4592.3 5010 4584.3 5004.1 4576.2 5010 4573.1 5019.5 4581.2 5025.4 4589.3 5031.3 4599.3 5031.3 4591.2 5025.4 4581.2 5025.4 4584.3 5034.9 4587.3 5025.4 4579.3 5019.5 4587.3 5013.6 4579.3 5019.5 4582.3 5010 4579.3 5000.5 4587.3 4994.6 4579.3 4988.7 4587.3 4982.9 4577.3 4982.9 4587.3 4982.9 4577.3 4982.9 4574.3 4973.4 4566.2 4979.2 4558.1 4985.1 4566.2 4991 4563.1 5000.5 4553.1 5000.5 4561.2 4994.6 4571.2 4994.6 4574.3 4985.1" clip-path="url(#a)" fill="none" stroke="#000" stroke-linecap="round"/>
<polyline points="4574.3 4985.1 4571.2 4994.6 4563.1 4988.7 4560 4979.2 4563.1 4988.7 4566.2 4998.3 4563.1 4988.7 4555 4994.6 4546.9 5000.5 4538.8 5006.4 4546.9 5012.3 4538.8 5006.4 4535.7 5015.9 4545.7 5015.9 4535.7 5015.9 4543.8 5010 4551.9 5015.9 4555 5025.4 4558.1 5034.9 4561.2 5025.4 4558.1 5034.9 4550 5040.8 4558.1 5046.7 4548.1 5046.7 4551.2 5056.2 4548.1 5065.7 4551.2 5056.2 4559.3 5062.1 4551.2 5056.2 4548.1 5046.7 4558.1 5046.7 4566.2 5040.8 4569.3 5050.3 4577.3 5044.4 4580.4 5034.9 4572.3 5040.8 4582.3 5040.8 4585.4 5050.3 4575.4 5050.3 4583.5 5044.4 4575.4 5038.5 4567.3 5044.4 4575.4 5038.5" clip-path="url(#a)" fill="none" stroke="#000" stroke-linecap="round"/>
<polyline points="4575.4 5038.5 4583.5 5032.7 4591.6 5038.5 4588.5 5048.1 4598.5 5048.1 4595.4 5038.5 4598.5 5029 4590.4 5023.2 4582.3 5029 4585.4 5038.5 4577.3 5032.7 4567.3 5032.7 4575.4 5038.5 4572.3 5048.1 4580.4 5042.2 4588.5 5036.3 4598.5 5036.3 4601.6 5045.8 4598.5 5055.3 4608.5 5055.3 4616.6 5061.2 4619.7 5070.7 4629.7 5070.7 4637.8 5076.6 4640.9 5067.1 4632.8 5061.2 4635.9 5051.7 4639 5061.2 4649 5061.2 4657.1 5055.3 4667.1 5055.3 4677.1 5055.3 4680.2 5064.8 4688.2 5070.7 4696.3 5064.8 4699.4 5074.3 4709.4 5074.3 4719.4 5074.3 4722.5 5083.8 4725.6 5074.3 4735.6 5074.3 4745.6 5074.3 4735.6 5074.3" clip-path="url(#a)" fill="none" stroke="#000" stroke-linecap="round"/>
<polyline points="4735.6 5074.3 4743.7 5068.5 4735.6 5074.3 4743.7 5080.2 4735.6 5086.1 4732.5 5095.6 4729.4 5105.1 4737.5 5111 4734.4 5101.5 4744.4 5101.5 4741.3 5092 4738.2 5101.5 4730.2 5107.4 4722.1 5101.5 4714 5107.4 4722.1 5113.2 4725.2 5103.7 4717.1 5097.9 4707.1 5097.9 4717.1 5097.9 4707.1 5097.9 4715.2 5103.7 4707.1 5109.6 4704 5100.1 4700.9 5090.6 4692.8 5096.5 4689.7 5106 4679.7 5106 4669.7 5106 4666.6 5115.5 4669.7 5125 4679.7 5125 4689.7 5125 4697.8 5119.1 4687.8 5119.1 4679.7 5125 4687.8 5130.9 4684.7 5121.4 4674.7 5121.4 4677.8 5111.9 4674.7 5121.4 4671.6 5111.9 4663.5 5106" clip-path="url(#a)" fill="none" stroke="#000" stroke-linecap="round"/>
<polyline points="4663.5 5106 4666.6 5096.5 4656.6 5096.5 4659.7 5087 4651.6 5092.8 4659.7 5087 4651.6 5092.8 4643.5 5087 4640.4 5096.5 4637.3 5106 4647.3 5106 4650.4 5115.5 4642.3 5121.4 4645.4 5111.9 4653.5 5106 4650.4 5096.5 4653.5 5106 4643.5 5106 4635.4 5100.1 4643.5 5106 4651.6 5111.9 4643.5 5106 4640.4 5115.5 4637.3 5125 4634.3 5134.5 4644.3 5134.5 4634.3 5134.5 4637.3 5144 4645.4 5138.1 4637.3 5144 4640.4 5134.5 4650.4 5134.5 4658.5 5140.4 4666.6 5146.3 4663.5 5136.8 4666.6 5146.3 4663.5 5155.8 4673.5 5155.8 4665.4 5161.6 4673.5 5167.5 4676.6 5177 4673.5 5167.5 4683.5 5167.5" clip-path="url(#a)" fill="none" stroke="#000" stroke-linecap="round"/>
<polyline points="4683.5 5167.5 4673.5 5167.5 4665.4 5161.6 4673.5 5155.8 4676.6 5146.3 4684.7 5152.1 4687.8 5142.6 4684.7 5133.1 4681.6 5142.6 4689.7 5136.8 4697.8 5142.6 4689.7 5148.5 4692.8 5139 4682.8 5139 4679.7 5148.5 4682.8 5139 4685.9 5129.5 4695.9 5129.5 4699 5139 4707.1 5133.1 4699 5127.2 4695.9 5117.7 4685.9 5117.7 4682.8 5127.2 4690.9 5133.1 4680.9 5133.1 4672.8 5139 4682.8 5139 4685.9 5148.5 4689 5139 4692.1 5129.5 4700.2 5123.6 4708.2 5129.5 4711.3 5139 4719.4 5133.1 4729.4 5133.1 4737.5 5139 4745.6 5133.1 4755.6 5133.1 4752.5 5123.6 4742.5 5123.6 4739.4 5114.1 4747.5 5120" clip-path="url(#a)" fill="none" stroke="#000" stroke-linecap="round"/>
<polyline points="4747.5 5120 4755.6 5114.1 4758.7 5104.6 4766.8 5098.7 4774.9 5092.8 4783 5098.7 4793 5098.7 4796.1 5089.2 4804.1 5095.1 4812.2 5089.2 4820.3 5083.3 4828.4 5089.2 4825.3 5079.7 4833.4 5073.8 4841.5 5067.9 4833.4 5073.8 4836.5 5064.3 4833.4 5073.8 4843.4 5073.8 4840.3 5083.3 4843.4 5092.8 4846.5 5102.3 4856.5 5102.3 4848.4 5096.5 4856.5 5090.6 4848.4 5084.7 4851.5 5094.2 4848.4 5103.7 4838.4 5103.7 4835.3 5113.2 4845.3 5113.2 4842.2 5103.7 4832.2 5103.7 4824.1 5109.6 4832.2 5103.7 4824.1 5109.6 4834.1 5109.6 4831.1 5119.1 4823 5113.2 4814.9 5107.4 4811.8 5116.9 4814.9 5126.4 4806.8 5132.3" clip-path="url(#a)" fill="none" stroke="#000" stroke-linecap="round"/>
<polyline points="4806.8 5132.3 4798.7 5138.1 4801.8 5147.6 4809.9 5153.5 4818 5147.6 4826.1 5141.8 4829.1 5132.3 4821.1 5138.1 4818 5147.6 4828 5147.6 4819.9 5141.8 4811.8 5147.6 4808.7 5138.1 4811.8 5147.6 4803.7 5141.8 4793.7 5141.8 4790.6 5132.3 4782.5 5138.1 4779.4 5128.6 4776.3 5138.1 4779.4 5128.6 4776.3 5138.1 4766.3 5138.1 4769.4 5147.6 4772.5 5157.2 4780.6 5151.3 4788.7 5157.2 4785.6 5166.7 4782.5 5157.2 4785.6 5147.6 4777.5 5141.8 4785.6 5147.6 4777.5 5153.5 4767.5 5153.5 4777.5 5153.5 4787.5 5153.5 4777.5 5153.5 4780.6 5163 4783.7 5172.5 4786.8 5182.1 4794.9 5176.2 4786.8 5182.1 4794.9 5187.9" clip-path="url(#a)" fill="none" stroke="#000" stroke-linecap="round"/>
<polyline points="4794.9 5187.9 4798 5178.4 4794.9 5187.9 4791.8 5178.4 4799.9 5172.5 4809.9 5172.5 4819.9 5172.5 4811.8 5166.7 4819.9 5172.5 4823 5182.1 4831.1 5176.2 4828 5185.7 4838 5185.7 4846.1 5191.6 4838 5185.7 4846.1 5179.8 4838 5185.7 4828 5185.7 4831.1 5176.2 4828 5166.7 4838 5166.7 4834.9 5157.2 4826.8 5151.3 4829.9 5160.8 4833 5151.3 4843 5151.3 4839.9 5160.8 4836.8 5151.3 4828.7 5157.2 4831.8 5166.7 4828.7 5157.2 4825.6 5147.6 4833.7 5141.8 4841.8 5147.6 4844.9 5138.1 4834.9 5138.1 4826.8 5132.3 4818.7 5138.1 4821.8 5147.6 4831.8 5147.6 4823.7 5153.5 4820.6 5163 4828.7 5157.2" clip-path="url(#a)" fill="none" stroke="#000" stroke-linecap="round"/>
<polyline points="4828.7 5157.2 4836.8 5163 4833.7 5153.5 4830.6 5144 4833.7 5134.5 4843.7 5134.5 4851.8 5140.4 4854.9 5130.9 4863 5125 4873 5125 4876.1 5115.5 4884.1 5109.6 4876.1 5103.7 4868 5109.6 4859.9 5103.7 4869.9 5103.7 4873 5094.2 4869.9 5084.7 4873 5075.2 4876.1 5065.7 4886.1 5065.7 4894.1 5059.8 4891.1 5050.3 4901.1 5050.3 4904.1 5040.8 4907.2 5031.3 4917.2 5031.3 4909.1 5025.4 4912.2 5015.9 4915.3 5006.4 4912.2 5015.9 4909.1 5006.4 4912.2 5015.9 4920.3 5010 4923.4 5019.5 4931.5 5025.4 4939.6 5031.3 4947.7 5025.4 4937.7 5025.4 4940.8 5015.9 4930.8 5015.9 4938.9 5021.8 4942 5031.3" clip-path="url(#a)" fill="none" stroke="#000" stroke-linecap="round"/>
<polyline points="4942 5031.3 4933.9 5037.2 4937 5046.7 4945 5040.8 4937 5034.9 4928.9 5040.8 4925.8 5050.3 4928.9 5040.8 4925.8 5050.3 4933.9 5044.4 4937 5053.9 4927 5053.9 4917 5053.9 4920 5063.4 4928.1 5069.3 4925 5078.8 4922 5088.3 4930 5094.2 4940 5094.2 4943.1 5084.7 4946.2 5075.2 4943.1 5065.7 4940 5075.2 4943.1 5084.7 4951.2 5078.8 4941.2 5078.8 4938.1 5088.3 4930 5082.5 4938.1 5088.3 4928.1 5088.3 4920 5094.2 4912 5088.3 4908.9 5097.9 4900.8 5092 4903.9 5101.5 4900.8 5092 4903.9 5101.5 4895.8 5107.4 4903.9 5113.2 4912 5119.1 4915 5109.6 4925 5109.6 4928.1 5119.1" clip-path="url(#a)" fill="none" stroke="#000" stroke-linecap="round"/>
<polyline points="4928.1 5119.1 4920 5113.2 4917 5103.7 4907 5103.7 4917 5103.7 4913.9 5113.2 4905.8 5119.1 4913.9 5113.2 4922 5107.4 4913.9 5113.2 4922 5119.1 4930 5125 4938.1 5130.9 4941.2 5121.4 4938.1 5130.9 4948.1 5130.9 4945 5121.4 4948.1 5130.9 4940 5125 4943.1 5115.5 4951.2 5109.6 4959.3 5103.7 4949.3 5103.7 4959.3 5103.7 4967.4 5109.6 4970.5 5100.1 4973.6 5109.6 4981.7 5103.7 4991.7 5103.7 4981.7 5103.7 4984.8 5094.2 4981.7 5103.7 4973.6 5109.6 4970.5 5100.1 4962.4 5094.2 4970.5 5088.3 4962.4 5082.5 4952.4 5082.5 4960.5 5088.3 4957.4 5078.8 4965.5 5073 4968.6 5082.5 4960.5 5076.6" clip-path="url(#a)" fill="none" stroke="#000" stroke-linecap="round"/>
<polyline points="4960.5 5076.6 4957.4 5086.1 4965.5 5092 4957.4 5086.1 4949.3 5080.2 4952.4 5070.7 4962.4 5070.7 4959.3 5061.2 4951.2 5067.1 4941.2 5067.1 4938.1 5076.6 4946.2 5082.5 4954.3 5076.6 4951.2 5086.1 4954.3 5095.6 4957.4 5086.1 4967.4 5086.1 4959.3 5080.2 4951.2 5074.3 4948.1 5064.8 4956.2 5059 4966.2 5059 4963.1 5049.4 4966.2 5039.9 4974.3 5034.1 4971.2 5024.5 4974.3 5015 4964.3 5015 4961.2 5024.5 4951.2 5024.5 4959.3 5018.7 4956.2 5009.2 4948.1 5003.3 4945 4993.8 4942 4984.3 4950 4978.4 4953.1 4968.9 4945 4963 4953.1 4957.1 4950 4947.6 4947 4938.1 4955 4932.2 4945 4932.2" clip-path="url(#a)" fill="none" stroke="#000" stroke-linecap="round"/>
<polyline points="4945 4932.2 4942 4922.7 4938.9 4913.2 4942 4922.7 4933.9 4916.8 4942 4922.7 4945 4913.2 4953.1 4919.1 4963.1 4919.1 4973.1 4919.1 4976.2 4909.6 4968.1 4915.4 4965 4905.9 4957 4911.8 4967 4911.8 4975 4917.7 4972 4927.2 4980 4933.1 4983.1 4923.6 4973.1 4923.6 4970 4933.1 4973.1 4942.6 4970 4933.1 4973.1 4942.6 4976.2 4933.1 4984.3 4938.9 4976.2 4944.8 4968.1 4950.7 4976.2 4956.6 4986.2 4956.6 4989.3 4966.1 4992.4 4975.6 5002.4 4975.6 5010.5 4969.7 5007.4 4960.2 5004.3 4950.7 4996.2 4944.8 4999.3 4954.3 5007.4 4960.2 5010.5 4950.7 5002.4 4956.6 5005.5 4966.1 4995.5 4966.1" clip-path="url(#a)" fill="none" stroke="#000" stroke-linecap="round"/>
<polyline points="4995.5 4966.1 5005.5 4966.1 4997.4 4972 4994.3 4981.5 4984.3 4981.5 4987.4 4991 4977.4 4991 4985.5 4996.9 4977.4 4991 4985.5 4996.9 4982.4 5006.4 4992.4 5006.4 5002.4 5006.4 4999.3 4996.9 5007.4 4991 5015.5 4996.9 5005.5 4996.9 4997.4 4991 4989.3 4996.9 4997.4 4991 5000.5 5000.5 4997.4 5010 5000.5 5000.5 5003.6 4991 5000.5 5000.5 5010.5 5000.5 5020.5 5000.5 5030.5 5000.5 5027.4 4991 5030.5 5000.5 5038.6 4994.6 5030.5 4988.7 5038.6 4994.6 5028.6 4994.6 5025.5 4985.1 5028.6 4975.6 5031.7 4966.1 5023.6 4972 5031.7 4966.1 5041.7 4966.1 5038.6 4956.6 5046.7 4962.5 5049.8 4952.9" clip-path="url(#a)" fill="none" stroke="#000" stroke-linecap="round"/>
<polyline points="5049.8 4952.9 5057.9 4947.1 5049.8 4952.9 5046.7 4943.4 5049.8 4952.9 5046.7 4962.5 5038.6 4956.6 5028.6 4956.6 5031.7 4947.1 5021.7 4947.1 5013.6 4952.9 5023.6 4952.9 5015.5 4947.1 5018.6 4937.6 5026.7 4943.4 5016.7 4943.4 5019.8 4952.9 5029.8 4952.9 5019.8 4952.9 5009.8 4952.9 5006.7 4943.4 5014.8 4937.6 5006.7 4931.7 5003.6 4941.2 4995.5 4947.1 4998.6 4956.6 5008.6 4956.6 5011.7 4947.1 5014.8 4956.6 5022.9 4962.5 5019.8 4952.9 5027.9 4947.1 5017.9 4947.1 5007.9 4947.1 4999.8 4941.2 5002.9 4931.7 5011 4925.8 5002.9 4919.9 4999.8 4910.4 5002.9 4900.9 4994.8 4895 4991.7 4885.5 4983.6 4891.4" clip-path="url(#a)" fill="none" stroke="#000" stroke-linecap="round"/>
<polyline points="4983.6 4891.4 4986.7 4900.9 4978.6 4906.8 4981.7 4897.3 4973.6 4891.4 4963.6 4891.4 4955.5 4885.5 4947.4 4879.6 4950.5 4870.1 4947.4 4860.6 4937.4 4860.6 4940.5 4851.1 4932.4 4845.2 4924.3 4839.4 4927.4 4829.8 4919.3 4835.7 4911.2 4829.8 4903.1 4824 4911.2 4829.8 4901.2 4829.8 4911.2 4829.8 4908.1 4820.3 4918.1 4820.3 4926.2 4814.5 4934.3 4808.6 4931.2 4799.1 4928.1 4808.6 4920 4802.7 4917 4812.2 4925 4806.3 4935 4806.3 4938.1 4815.8 4948.1 4815.8 4945 4806.3 4937 4812.2 4940 4821.7 4948.1 4827.6 4940 4821.7 4948.1 4827.6 4945 4818.1 4955 4818.1 4952 4827.6 4948.9 4837.1" clip-path="url(#a)" fill="none" stroke="#000" stroke-linecap="round"/>
<polyline points="4948.9 4837.1 4958.9 4837.1 4967 4831.2 4975 4837.1 4983.1 4843 4991.2 4837.1 4994.3 4827.6 4986.2 4821.7 4978.1 4815.8 4968.1 4815.8 4976.2 4821.7 4986.2 4821.7 4983.1 4812.2 4980 4821.7 4988.1 4827.6 4980 4833.5 4988.1 4827.6 4985 4837.1 4988.1 4846.6 4980 4852.5 4988.1 4858.4 4980 4864.2 4990 4864.2 4980 4864.2 4990 4864.2 4993.1 4873.8 5001.2 4867.9 5009.3 4862 5001.2 4856.1 5004.3 4846.6 5014.3 4846.6 5006.2 4852.5 4996.2 4852.5 4993.1 4862 4996.2 4852.5 5004.3 4858.4 5007.4 4867.9 5004.3 4858.4 5001.2 4848.9 5004.3 4858.4 5012.4 4852.5 5020.5 4846.6 5028.6 4840.7" clip-path="url(#a)" fill="none" stroke="#000" stroke-linecap="round"/>
<polyline points="5028.6 4840.7 5020.5 4834.9 5028.6 4840.7 5031.7 4831.2 5021.7 4831.2 5031.7 4831.2 5023.6 4837.1 5015.5 4831.2 5012.4 4821.7 5009.3 4812.2 5006.2 4821.7 5009.3 4812.2 5017.4 4806.3 5009.3 4800.5 5019.3 4800.5 5016.2 4790.9 5019.3 4781.4 5016.2 4790.9 5008.1 4785.1 5016.2 4790.9 5019.3 4800.5 5009.3 4800.5 5001.2 4806.3 4998.1 4796.8 4990 4802.7 4987 4812.2 4995 4806.3 4985 4806.3 4982 4796.8 4992 4796.8 4983.9 4802.7 4992 4808.6 5e3 4802.7 4992 4808.6 4983.9 4814.5 4975.8 4808.6 4978.9 4799.1 4968.9 4799.1 4972 4808.6 4968.9 4818.1 4977 4824 4985 4818.1 4982 4808.6" clip-path="url(#a)" fill="none" stroke="#000" stroke-linecap="round"/>
<polyline points="4982 4808.6 4990 4814.5 5e3 4814.5 4992 4808.6 4995 4799.1 4987 4804.9 4978.9 4810.8 4968.9 4810.8 4965.8 4801.3 4968.9 4791.8 4958.9 4791.8 4950.8 4785.9 4947.7 4776.4 4937.7 4776.4 4929.6 4770.5 4926.5 4780 4934.6 4785.9 4931.5 4795.4 4928.4 4785.9 4918.4 4785.9 4910.3 4791.8 4900.3 4791.8 4890.3 4791.8 4887.2 4782.3 4879.1 4776.4 4871.1 4782.3 4868 4772.8 4858 4772.8 4848 4772.8 4844.9 4763.3 4841.8 4772.8 4831.8 4772.8 4821.8 4772.8 4831.8 4772.8 4823.7 4778.7 4831.8 4772.8 4823.7 4766.9 4831.8 4761 4834.9 4751.5 4838 4742 4829.9 4736.1 4833 4745.6 4823 4745.6" clip-path="url(#a)" fill="none" stroke="#000" stroke-linecap="round"/>
<polyline points="4823 4745.6 4826.1 4755.1 4829.1 4745.6 4837.2 4739.8 4845.3 4745.6 4853.4 4739.8 4845.3 4733.9 4842.2 4743.4 4850.3 4749.3 4860.3 4749.3 4850.3 4749.3 4860.3 4749.3 4852.2 4743.4 4860.3 4737.5 4863.4 4747 4866.5 4756.5 4874.6 4750.7 4877.7 4741.1 4887.7 4741.1 4897.7 4741.1 4900.8 4731.6 4897.7 4722.1 4887.7 4722.1 4877.7 4722.1 4869.6 4728 4879.6 4728 4887.7 4722.1 4879.6 4716.2 4882.7 4725.8 4892.7 4725.8 4889.6 4735.3 4892.7 4725.8 4895.8 4735.3 4903.9 4741.1 4900.8 4750.7 4910.8 4750.7 4907.7 4760.2 4915.8 4754.3 4907.7 4760.2 4915.8 4754.3 4923.9 4760.2 4927 4750.7 4930 4741.1" clip-path="url(#a)" fill="none" stroke="#000" stroke-linecap="round"/>
<polyline points="4930 4741.1 4920 4741.1 4917 4731.6 4925 4725.8 4922 4735.3 4913.9 4741.1 4917 4750.7 4913.9 4741.1 4923.9 4741.1 4932 4747 4923.9 4741.1 4915.8 4735.3 4923.9 4741.1 4927 4731.6 4930 4722.1 4933.1 4712.6 4923.1 4712.6 4933.1 4712.6 4930 4703.1 4922 4709 4930 4703.1 4927 4712.6 4917 4712.6 4908.9 4706.7 4900.8 4700.9 4903.9 4710.4 4900.8 4700.9 4903.9 4691.3 4893.9 4691.3 4902 4685.5 4893.9 4679.6 4890.8 4670.1 4893.9 4679.6 4883.9 4679.6 4893.9 4679.6 4902 4685.5 4893.9 4691.3 4890.8 4700.9 4882.7 4695 4879.6 4704.5 4882.7 4714 4885.8 4704.5 4877.7 4710.4" clip-path="url(#a)" fill="none" stroke="#000" stroke-linecap="round"/>
<polyline points="4877.7 4710.4 4869.6 4704.5 4877.7 4698.6 4874.6 4708.1 4884.6 4708.1 4887.7 4698.6 4884.6 4708.1 4881.5 4717.6 4871.5 4717.6 4868.4 4708.1 4860.3 4714 4868.4 4719.9 4871.5 4729.4 4881.5 4729.4 4884.6 4719.9 4876.5 4714 4886.5 4714 4894.6 4708.1 4884.6 4708.1 4881.5 4698.6 4878.4 4708.1 4875.3 4717.6 4867.2 4723.5 4859.1 4717.6 4856.1 4708.1 4848 4714 4838 4714 4829.9 4708.1 4821.8 4714 4811.8 4714 4814.9 4723.5 4824.9 4723.5 4828 4733 4819.9 4727.1 4811.8 4733 4808.7 4742.5 4800.6 4748.4 4792.5 4754.3 4784.4 4748.4 4774.4 4748.4 4771.3 4757.9 4763.2 4752 4755.2 4757.9" clip-path="url(#a)" fill="none" stroke="#000" stroke-linecap="round"/>
<polyline points="4755.2 4757.9 4747.1 4763.8 4739 4757.9 4742.1 4767.4 4734 4773.3 4725.9 4779.2 4734 4773.3 4730.9 4782.8 4734 4773.3 4724 4773.3 4727.1 4763.8 4724 4754.3 4720.9 4744.8 4710.9 4744.8 4719 4750.7 4710.9 4756.5 4719 4762.4 4715.9 4752.9 4719 4743.4 4729 4743.4 4732.1 4733.9 4722.1 4733.9 4725.2 4743.4 4735.2 4743.4 4743.2 4737.5 4735.2 4743.4 4743.2 4737.5 4733.2 4737.5 4736.3 4728 4744.4 4733.9 4752.5 4739.8 4755.6 4730.2 4752.5 4720.7 4760.6 4714.9 4768.7 4709 4765.6 4699.5 4757.5 4693.6 4749.4 4699.5 4741.3 4705.3 4738.2 4714.9 4746.3 4709 4749.4 4699.5 4739.4 4699.5" clip-path="url(#a)" fill="none" stroke="#000" stroke-linecap="round"/>
<polyline points="4739.4 4699.5 4747.5 4705.3 4755.6 4699.5 4758.7 4709 4755.6 4699.5 4763.7 4705.3 4773.7 4705.3 4776.8 4714.9 4784.9 4709 4788 4718.5 4791.1 4709 4788 4718.5 4791.1 4709 4801.1 4709 4798 4699.5 4794.9 4690 4786.8 4695.8 4778.7 4690 4781.8 4680.4 4784.9 4690 4781.8 4699.5 4789.9 4705.3 4781.8 4699.5 4789.9 4693.6 4799.9 4693.6 4789.9 4693.6 4779.9 4693.6 4789.9 4693.6 4786.8 4684.1 4783.7 4674.6 4780.6 4665.1 4772.5 4670.9 4780.6 4665.1 4772.5 4659.2 4769.4 4668.7 4772.5 4659.2 4775.6 4668.7 4767.5 4674.6 4757.5 4674.6 4747.5 4674.6 4755.6 4680.4 4747.5 4674.6 4744.4 4665.1" clip-path="url(#a)" fill="none" stroke="#000" stroke-linecap="round"/>
<polyline points="4744.4 4665.1 4736.3 4670.9 4739.4 4661.4 4729.4 4661.4 4721.3 4655.5 4729.4 4661.4 4721.3 4667.3 4729.4 4661.4 4739.4 4661.4 4736.3 4670.9 4739.4 4680.4 4729.4 4680.4 4732.5 4690 4740.6 4695.8 4737.5 4686.3 4734.4 4695.8 4724.4 4695.8 4727.5 4686.3 4730.6 4695.8 4738.7 4690 4735.6 4680.4 4738.7 4690 4741.8 4699.5 4733.7 4705.3 4725.6 4699.5 4722.5 4709 4732.5 4709 4740.6 4714.9 4748.7 4709 4745.6 4699.5 4735.6 4699.5 4743.7 4693.6 4746.8 4684.1 4738.7 4690 4730.6 4684.1 4733.7 4693.6 4736.8 4703.1 4733.7 4712.6 4723.7 4712.6 4715.6 4706.7 4712.5 4716.2 4704.4 4722.1 4694.4 4722.1" clip-path="url(#a)" fill="none" stroke="#000" stroke-linecap="round"/>
<polyline points="4694.4 4722.1 4691.3 4731.6 4683.2 4737.5 4691.3 4743.4 4699.4 4737.5 4707.5 4743.4 4697.5 4743.4 4694.4 4752.9 4697.5 4762.4 4694.4 4771.9 4691.3 4781.4 4681.3 4781.4 4673.2 4787.3 4676.3 4796.8 4666.3 4796.8 4663.2 4806.3 4660.2 4815.8 4650.2 4815.8 4658.2 4821.7 4655.2 4831.2 4652.1 4840.7 4655.2 4831.2 4658.2 4840.7 4655.2 4831.2 4647.1 4837.1 4644 4827.6 4635.9 4821.7 4627.8 4815.8 4619.7 4821.7 4629.7 4821.7 4626.6 4831.2 4636.6 4831.2 4628.5 4825.3 4625.4 4815.8 4633.5 4810 4630.4 4800.5 4622.3 4806.3 4630.4 4812.2 4638.5 4806.3 4641.6 4796.8 4638.5 4806.3 4641.6 4796.8 4633.5 4802.7" clip-path="url(#a)" fill="none" stroke="#000" stroke-linecap="round"/>
<polyline points="4633.5 4802.7 4630.4 4793.2 4640.4 4793.2 4650.4 4793.2 4647.3 4783.7 4639.3 4777.8 4642.3 4768.3 4645.4 4758.8 4637.3 4752.9 4627.3 4752.9 4624.3 4762.4 4621.2 4771.9 4624.3 4781.4 4627.3 4771.9 4624.3 4762.4 4616.2 4768.3 4626.2 4768.3 4629.3 4758.8 4637.3 4764.7 4629.3 4758.8 4639.3 4758.8 4647.3 4752.9 4655.4 4758.8 4658.5 4749.3 4666.6 4755.1 4663.5 4745.6 4666.6 4755.1 4663.5 4745.6 4671.6 4739.8 4663.5 4733.9 4655.4 4728 4652.3 4737.5 4642.3 4737.5 4639.3 4728 4647.3 4733.9 4650.4 4743.4 4660.4 4743.4 4650.4 4743.4 4653.5 4733.9 4661.6 4728 4653.5 4733.9 4645.4 4739.8 4653.5 4733.9" clip-path="url(#a)" fill="none" stroke="#000" stroke-linecap="round"/>
<polyline points="4653.5 4733.9 4645.4 4728 4637.3 4722.1 4629.3 4716.2 4626.2 4725.8 4629.3 4716.2 4619.3 4716.2 4622.3 4725.8 4619.3 4716.2 4627.3 4722.1 4624.3 4731.6 4616.2 4737.5 4608.1 4743.4 4618.1 4743.4 4608.1 4743.4 4600 4737.5 4596.9 4747 4593.8 4737.5 4585.7 4743.4 4575.7 4743.4 4585.7 4743.4 4582.6 4752.9 4585.7 4743.4 4593.8 4737.5 4596.9 4747 4605 4752.9 4596.9 4758.8 4605 4764.7 4615 4764.7 4606.9 4758.8 4610 4768.3 4601.9 4774.2 4598.8 4764.7 4606.9 4770.5 4610 4761 4601.9 4755.1 4610 4761 4618.1 4766.9 4615 4776.4 4605 4776.4 4608.1 4785.9 4616.2 4780 4626.2 4780" clip-path="url(#a)" fill="none" stroke="#000" stroke-linecap="round"/>
<polyline points="4626.2 4780 4629.3 4770.5 4621.2 4764.7 4613.1 4770.5 4616.2 4761 4613.1 4751.5 4610 4761 4600 4761 4608.1 4766.9 4616.2 4772.8 4619.3 4782.3 4611.2 4788.2 4601.2 4788.2 4604.3 4797.7 4601.2 4807.2 4593.1 4813.1 4596.2 4822.6 4593.1 4832.1 4603.1 4832.1 4606.2 4822.6 4616.2 4822.6 4608.1 4828.5 4611.2 4838 4619.3 4843.8 4622.3 4853.4 4625.4 4862.9 4617.3 4868.7 4614.3 4878.3 4622.3 4884.1 4614.3 4890 4617.3 4899.5 4620.4 4909 4612.3 4914.9 4622.3 4914.9 4625.4 4924.4 4628.5 4933.9 4625.4 4924.4 4633.5 4930.3 4625.4 4924.4 4622.3 4933.9 4614.3 4928 4604.3 4928 4594.3 4928" clip-path="url(#a)" fill="none" stroke="#000" stroke-linecap="round"/>
<polyline points="4594.3 4928 4591.2 4937.6 4599.3 4931.7 4602.3 4941.2 4610.4 4935.3 4600.4 4935.3 4592.3 4929.4 4595.4 4919.9 4587.3 4914 4584.3 4923.6 4594.3 4923.6 4597.3 4914 4594.3 4904.5 4597.3 4914 4594.3 4904.5 4591.2 4914 4583.1 4908.2 4591.2 4902.3 4599.3 4896.4 4591.2 4890.5 4581.2 4890.5 4578.1 4881 4575 4871.5 4565 4871.5 4556.9 4877.4 4560 4886.9 4563.1 4896.4 4571.2 4902.3 4568.1 4892.8 4560 4886.9 4556.9 4896.4 4565 4890.5 4561.9 4881 4571.9 4881 4561.9 4881 4570 4875.1 4573.1 4865.6 4583.1 4865.6 4580 4856.1 4590 4856.1 4581.9 4850.2 4590 4856.1 4581.9 4850.2" clip-path="url(#a)" fill="none" stroke="#000" stroke-linecap="round"/>
<polyline points="4581.9 4850.2 4585 4840.7 4575 4840.7 4565 4840.7 4568.1 4850.2 4560 4856.1 4551.9 4850.2 4561.9 4850.2 4570 4856.1 4578.1 4850.2 4570 4856.1 4566.9 4846.6 4570 4837.1 4566.9 4846.6 4563.8 4856.1 4566.9 4846.6 4556.9 4846.6 4546.9 4846.6 4536.9 4846.6 4540 4856.1 4536.9 4846.6 4528.8 4852.5 4536.9 4858.4 4528.8 4852.5 4538.8 4852.5 4541.9 4862 4538.8 4871.5 4535.7 4881 4543.8 4875.1 4535.7 4881 4525.7 4881 4528.8 4890.5 4520.7 4884.7 4517.6 4894.2 4509.5 4900 4517.6 4894.2 4520.7 4903.7 4517.6 4894.2 4520.7 4884.7 4528.8 4890.5 4538.8 4890.5 4535.7 4900 4545.7 4900" clip-path="url(#a)" fill="none" stroke="#000" stroke-linecap="round"/>
<polyline points="4545.7 4900 4553.8 4894.2 4543.8 4894.2 4551.9 4900 4548.8 4909.6 4540.7 4903.7 4550.7 4903.7 4547.6 4894.2 4537.6 4894.2 4547.6 4894.2 4557.6 4894.2 4560.7 4903.7 4552.6 4909.6 4560.7 4915.4 4563.8 4905.9 4571.9 4900 4568.8 4890.5 4558.8 4890.5 4555.7 4900 4552.6 4890.5 4544.5 4884.7 4547.6 4894.2 4539.5 4900 4549.5 4900 4559.5 4900 4567.6 4905.9 4564.5 4915.4 4556.4 4921.3 4564.5 4927.2 4567.6 4936.7 4564.5 4946.2 4572.6 4952.1 4575.7 4961.6 4583.8 4955.7 4580.7 4946.2 4588.8 4940.3 4585.7 4949.8 4593.8 4955.7 4603.8 4955.7 4611.9 4961.6 4620 4967.5 4616.9 4977 4620 4986.5" clip-path="url(#a)" fill="none" stroke="#000" stroke-linecap="round"/>
<polyline points="4620 4986.5 4630 4986.5 4626.9 4996 4635 5001.9 4643.1 5007.8 4640 5017.3 4648.1 5011.4 4656.2 5017.3 4664.3 5023.2 4656.2 5017.3 4666.2 5017.3 4656.2 5017.3 4659.3 5026.8 4649.3 5026.8 4641.2 5032.7 4633.1 5038.5 4636.2 5048.1 4639.3 5038.5 4647.3 5044.4 4650.4 5034.9 4642.3 5040.8 4632.3 5040.8 4629.3 5031.3 4619.3 5031.3 4622.3 5040.8 4630.4 5034.9 4627.3 5025.4 4619.3 5019.5 4627.3 5025.4 4619.3 5019.5 4622.3 5029 4612.3 5029 4615.4 5019.5 4618.5 5010 4608.5 5010 4600.4 5015.9 4592.3 5010 4584.3 5004.1 4576.2 5010 4573.1 5019.5 4581.2 5025.4 4589.3 5031.3 4599.3 5031.3" clip-path="url(#a)" fill="none" stroke="#000" stroke-linecap="round"/>
<polyline points="4599.3 5031.3 4591.2 5025.4 4581.2 5025.4 4584.3 5034.9 4587.3 5025.4 4579.3 5019.5 4587.3 5013.6 4579.3 5019.5 4582.3 5010 4579.3 5000.5 4587.3 4994.6 4579.3 4988.7 4587.3 4982.9 4577.3 4982.9 4587.3 4982.9 4577.3 4982.9 4574.3 4973.4 4566.2 4979.2 4558.1 4985.1 4566.2 4991 4563.1 5000.5 4553.1 5000.5 4561.2 4994.6 4571.2 4994.6 4574.3 4985.1 4571.2 4994.6 4563.1 4988.7 4560 4979.2 4563.1 4988.7 4566.2 4998.3 4563.1 4988.7 4555 4994.6 4546.9 5000.5 4538.8 5006.4 4546.9 5012.3 4538.8 5006.4 4535.7 5015.9 4545.7 5015.9 4535.7 5015.9 4543.8 5010 4551.9 5015.9 4555 5025.4 4558.1 5034.9" clip-path="url(#a)" fill="none" stroke="#000" stroke-linecap="round"/>
<polyline points="4558.1 5034.9 4561.2 5025.4 4558.1 5034.9 4550 5040.8 4558.1 5046.7 4548.1 5046.7 4551.2 5056.2 4548.1 5065.7 4551.2 5056.2 4559.3 5062.1 4551.2 5056.2 4548.1 5046.7 4558.1 5046.7 4566.2 5040.8 4569.3 5050.3 4577.3 5044.4 4580.4 5034.9 4572.3 5040.8 4582.3 5040.8 4585.4 5050.3 4575.4 5050.3 4583.5 5044.4 4575.4 5038.5 4567.3 5044.4 4575.4 5038.5 4583.5 5032.7 4591.6 5038.5 4588.5 5048.1 4598.5 5048.1 4595.4 5038.5 4598.5 5029 4590.4 5023.2 4582.3 5029 4585.4 5038.5 4577.3 5032.7 4567.3 5032.7 4575.4 5038.5 4572.3 5048.1 4580.4 5042.2 4588.5 5036.3 4598.5 5036.3 4601.6 5045.8 4598.5 5055.3" clip-path="url(#a)" fill="none" stroke="#000" stroke-linecap="round"/>
<polyline points="4598.5 5055.3 4608.5 5055.3 4616.6 5061.2 4619.7 5070.7 4629.7 5070.7 4637.8 5076.6 4640.9 5067.1 4632.8 5061.2 4635.9 5051.7 4639 5061.2 4649 5061.2 4657.1 5055.3 4667.1 5055.3 4677.1 5055.3 4680.2 5064.8 4688.2 5070.7 4696.3 5064.8 4699.4 5074.3 4709.4 5074.3 4719.4 5074.3 4722.5 5083.8 4725.6 5074.3 4735.6 5074.3 4745.6 5074.3 4735.6 5074.3 4743.7 5068.5 4735.6 5074.3 4743.7 5080.2 4735.6 5086.1 4732.5 5095.6 4729.4 5105.1 4737.5 5111 4734.4 5101.5 4744.4 5101.5 4741.3 5092 4738.2 5101.5 4730.2 5107.4 4722.1 5101.5 4714 5107.4 4722.1 5113.2 4725.2 5103.7 4717.1 5097.9 4707.1 5097.9" clip-path="url(#a)" fill="none" stroke="#000" stroke-linecap="round"/>
<polyline points="4707.1 5097.9 4717.1 5097.9 4707.1 5097.9 4715.2 5103.7 4707.1 5109.6 4704 5100.1 4700.9 5090.6 4692.8 5096.5 4689.7 5106 4679.7 5106 4669.7 5106 4666.6 5115.5 4669.7 5125 4679.7 5125 4689.7 5125 4697.8 5119.1 4687.8 5119.1 4679.7 5125 4687.8 5130.9 4684.7 5121.4 4674.7 5121.4 4677.8 5111.9 4674.7 5121.4 4671.6 5111.9 4663.5 5106 4666.6 5096.5 4656.6 5096.5 4659.7 5087 4651.6 5092.8 4659.7 5087 4651.6 5092.8 4643.5 5087 4640.4 5096.5 4637.3 5106 4647.3 5106 4650.4 5115.5 4642.3 5121.4 4645.4 5111.9 4653.5 5106 4650.4 5096.5 4653.5 5106 4643.5 5106 4635.4 5100.1" clip-path="url(#a)" fill="none" stroke="#000" stroke-linecap="round"/>
<polyline points="4635.4 5100.1 4643.5 5106 4651.6 5111.9 4643.5 5106 4640.4 5115.5 4637.3 5125 4634.3 5134.5 4644.3 5134.5 4634.3 5134.5 4637.3 5144 4645.4 5138.1 4637.3 5144 4640.4 5134.5 4650.4 5134.5 4658.5 5140.4 4666.6 5146.3 4663.5 5136.8 4666.6 5146.3 4663.5 5155.8 4673.5 5155.8 4665.4 5161.6 4673.5 5167.5 4676.6 5177 4673.5 5167.5 4683.5 5167.5 4673.5 5167.5 4665.4 5161.6 4673.5 5155.8 4676.6 5146.3 4684.7 5152.1 4687.8 5142.6 4684.7 5133.1 4681.6 5142.6 4689.7 5136.8 4697.8 5142.6 4689.7 5148.5 4692.8 5139 4682.8 5139 4679.7 5148.5 4682.8 5139 4685.9 5129.5 4695.9 5129.5 4699 5139" clip-path="url(#a)" fill="none" stroke="#000" stroke-linecap="round"/>
<polyline points="4699 5139 4707.1 5133.1 4699 5127.2 4695.9 5117.7 4685.9 5117.7 4682.8 5127.2 4690.9 5133.1 4680.9 5133.1 4672.8 5139 4682.8 5139 4685.9 5148.5 4689 5139 4692.1 5129.5 4700.2 5123.6 4708.2 5129.5 4711.3 5139 4719.4 5133.1 4729.4 5133.1 4737.5 5139 4745.6 5133.1 4755.6 5133.1 4752.5 5123.6 4742.5 5123.6 4739.4 5114.1 4747.5 5120 4755.6 5114.1 4758.7 5104.6 4766.8 5098.7 4774.9 5092.8 4783 5098.7 4793 5098.7 4796.1 5089.2 4804.1 5095.1 4812.2 5089.2 4820.3 5083.3 4828.4 5089.2 4825.3 5079.7 4833.4 5073.8 4841.5 5067.9 4833.4 5073.8 4836.5 5064.3 4833.4 5073.8 4843.4 5073.8" clip-path="url(#a)" fill="none" stroke="#000" stroke-linecap="round"/>
<polyline points="4843.4 5073.8 4840.3 5083.3 4843.4 5092.8 4846.5 5102.3 4856.5 5102.3 4848.4 5096.5 4856.5 5090.6 4848.4 5084.7 4851.5 5094.2 4848.4 5103.7 4838.4 5103.7 4835.3 5113.2 4845.3 5113.2 4842.2 5103.7 4832.2 5103.7 4824.1 5109.6 4832.2 5103.7 4824.1 5109.6 4834.1 5109.6 4831.1 5119.1 4823 5113.2 4814.9 5107.4 4811.8 5116.9 4814.9 5126.4 4806.8 5132.3 4798.7 5138.1 4801.8 5147.6 4809.9 5153.5 4818 5147.6 4826.1 5141.8 4829.1 5132.3 4821.1 5138.1 4818 5147.6 4828 5147.6 4819.9 5141.8 4811.8 5147.6 4808.7 5138.1 4811.8 5147.6 4803.7 5141.8 4793.7 5141.8 4790.6 5132.3 4782.5 5138.1 4779.4 5128.6" clip-path="url(#a)" fill="none" stroke="#000" stroke-linecap="round"/>
<polyline points="4779.4 5128.6 4776.3 5138.1 4779.4 5128.6 4776.3 5138.1 4766.3 5138.1 4769.4 5147.6 4772.5 5157.2 4780.6 5151.3 4788.7 5157.2 4785.6 5166.7 4782.5 5157.2 4785.6 5147.6 4777.5 5141.8 4785.6 5147.6 4777.5 5153.5 4767.5 5153.5 4777.5 5153.5 4787.5 5153.5 4777.5 5153.5 4780.6 5163 4783.7 5172.5 4786.8 5182.1 4794.9 5176.2 4786.8 5182.1 4794.9 5187.9 4798 5178.4 4794.9 5187.9 4791.8 5178.4 4799.9 5172.5 4809.9 5172.5 4819.9 5172.5 4811.8 5166.7 4819.9 5172.5 4823 5182.1 4831.1 5176.2 4828 5185.7 4838 5185.7 4846.1 5191.6 4838 5185.7 4846.1 5179.8 4838 5185.7 4828 5185.7 4831.1 5176.2" clip-path="url(#a)" fill="none" stroke="#000" stroke-linecap="round"/>
<polyline points="4831.1 5176.2 4828 5166.7 4838 5166.7 4834.9 5157.2 4826.8 5151.3 4829.9 5160.8 4833 5151.3 4843 5151.3 4839.9 5160.8 4836.8 5151.3 4828.7 5157.2 4831.8 5166.7 4828.7 5157.2 4825.6 5147.6 4833.7 5141.8 4841.8 5147.6 4844.9 5138.1 4834.9 5138.1 4826.8 5132.3 4818.7 5138.1 4821.8 5147.6 4831.8 5147.6 4823.7 5153.5 4820.6 5163 4828.7 5157.2 4836.8 5163 4833.7 5153.5 4830.6 5144 4833.7 5134.5 4843.7 5134.5 4851.8 5140.4 4854.9 5130.9 4863 5125 4873 5125 4876.1 5115.5 4884.1 5109.6 4876.1 5103.7 4868 5109.6 4859.9 5103.7 4869.9 5103.7 4873 5094.2 4869.9 5084.7 4873 5075.2" clip-path="url(#a)" fill="none" stroke="#000" stroke-linecap="round"/>
<polyline points="4873 5075.2 4876.1 5065.7 4886.1 5065.7 4894.1 5059.8 4891.1 5050.3 4901.1 5050.3 4904.1 5040.8 4907.2 5031.3 4917.2 5031.3 4909.1 5025.4 4912.2 5015.9 4915.3 5006.4 4912.2 5015.9 4909.1 5006.4 4912.2 5015.9 4920.3 5010 4923.4 5019.5 4931.5 5025.4 4939.6 5031.3 4947.7 5025.4 4937.7 5025.4 4940.8 5015.9 4930.8 5015.9 4938.9 5021.8 4942 5031.3 4933.9 5037.2 4937 5046.7 4945 5040.8 4937 5034.9 4928.9 5040.8 4925.8 5050.3 4928.9 5040.8 4925.8 5050.3 4933.9 5044.4 4937 5053.9 4927 5053.9 4917 5053.9 4920 5063.4 4928.1 5069.3 4925 5078.8 4922 5088.3 4930 5094.2 4940 5094.2" clip-path="url(#a)" fill="none" stroke="#000" stroke-linecap="round"/>
<polyline points="4940 5094.2 4943.1 5084.7 4946.2 5075.2 4943.1 5065.7 4940 5075.2 4943.1 5084.7 4951.2 5078.8 4941.2 5078.8 4938.1 5088.3 4930 5082.5 4938.1 5088.3 4928.1 5088.3 4920 5094.2 4912 5088.3 4908.9 5097.9 4900.8 5092 4903.9 5101.5 4900.8 5092 4903.9 5101.5 4895.8 5107.4 4903.9 5113.2 4912 5119.1 4915 5109.6 4925 5109.6 4928.1 5119.1 4920 5113.2 4917 5103.7 4907 5103.7 4917 5103.7 4913.9 5113.2 4905.8 5119.1 4913.9 5113.2 4922 5107.4 4913.9 5113.2 4922 5119.1 4930 5125 4938.1 5130.9 4941.2 5121.4 4938.1 5130.9 4948.1 5130.9 4945 5121.4 4948.1 5130.9 4940 5125" clip-path="url(#a)" fill="none" stroke="#000" stroke-linecap="round"/>
<polyline points="4940 5125 4943.1 5115.5 4951.2 5109.6 4959.3 5103.7 4949.3 5103.7 4959.3 5103.7 4967.4 5109.6 4970.5 5100.1 4973.6 5109.6 4981.7 5103.7 4991.7 5103.7 4981.7 5103.7 4984.8 5094.2 4981.7 5103.7 4973.6 5109.6 4970.5 5100.1 4962.4 5094.2 4970.5 5088.3 4962.4 5082.5 4952.4 5082.5 4960.5 5088.3 4957.4 5078.8 4965.5 5073 4968.6 5082.5 4960.5 5076.6 4957.4 5086.1 4965.5 5092 4957.4 5086.1 4949.3 5080.2 4952.4 5070.7 4962.4 5070.7 4959.3 5061.2 4951.2 5067.1 4941.2 5067.1 4938.1 5076.6 4946.2 5082.5 4954.3 5076.6 4951.2 5086.1 4954.3 5095.6 4957.4 5086.1 4967.4 5086.1 4959.3 5080.2 4951.2 5074.3" clip-path="url(#a)" fill="none" stroke="#000" stroke-linecap="round"/>
<polyline points="4951.2 5074.3 4948.1 5064.8 4956.2 5059 4966.2 5059 4963.1 5049.4 4966.2 5039.9 4974.3 5034.1 4971.2 5024.5 4974.3 5015 4964.3 5015 4961.2 5024.5 4951.2 5024.5 4959.3 5018.7 4956.2 5009.2 4948.1 5003.3 4945 4993.8 4942 4984.3 4950 4978.4 4953.1 4968.9 4945 4963 4953.1 4957.1 4950 4947.6 4947 4938.1 4955 4932.2 4945 4932.2 4942 4922.7 4938.9 4913.2 4942 4922.7 4933.9 4916.8 4942 4922.7 4945 4913.2 4953.1 4919.1 4963.1 4919.1 4973.1 4919.1 4976.2 4909.6 4968.1 4915.4 4965 4905.9 4957 4911.8 4967 4911.8 4975 4917.7 4972 4927.2 4980 4933.1 4983.1 4923.6" clip-path="url(#a)" fill="none" stroke="#000" stroke-linecap="round"/>
<polyline points="4983.1 4923.6 4973.1 4923.6 4970 4933.1 4973.1 4942.6 4970 4933.1 4973.1 4942.6 4976.2 4933.1 4984.3 4938.9 4976.2 4944.8 4968.1 4950.7 4976.2 4956.6 4986.2 4956.6 4989.3 4966.1 4992.4 4975.6 5002.4 4975.6 5010.5 4969.7 5007.4 4960.2 5004.3 4950.7 4996.2 4944.8 4999.3 4954.3 5007.4 4960.2 5010.5 4950.7 5002.4 4956.6 5005.5 4966.1 4995.5 4966.1 5005.5 4966.1 4997.4 4972 4994.3 4981.5 4984.3 4981.5 4987.4 4991 4977.4 4991 4985.5 4996.9 4977.4 4991 4985.5 4996.9 4982.4 5006.4 4992.4 5006.4 5002.4 5006.4 4999.3 4996.9 5007.4 4991 5015.5 4996.9 5005.5 4996.9 4997.4 4991 4989.3 4996.9" clip-path="url(#a)" fill="none" stroke="#000" stroke-linecap="round"/>
<polyline points="4989.3 4996.9 4997.4 4991 5000.5 5000.5 4997.4 5010 5000.5 5000.5 5003.6 4991 5000.5 5000.5 5010.5 5000.5 5020.5 5000.5 5030.5 5000.5 5027.4 4991 5030.5 5000.5 5038.6 4994.6 5030.5 4988.7 5038.6 4994.6 5028.6 4994.6 5025.5 4985.1 5028.6 4975.6 5031.7 4966.1 5023.6 4972 5031.7 4966.1 5041.7 4966.1 5038.6 4956.6 5046.7 4962.5 5049.8 4952.9 5057.9 4947.1 5049.8 4952.9 5046.7 4943.4 5049.8 4952.9 5046.7 4962.5 5038.6 4956.6 5028.6 4956.6 5031.7 4947.1 5021.7 4947.1 5013.6 4952.9 5023.6 4952.9 5015.5 4947.1 5018.6 4937.6 5026.7 4943.4 5016.7 4943.4 5019.8 4952.9 5029.8 4952.9 5019.8 4952.9" clip-path="url(#a)" fill="none" stroke="#000" stroke-linecap="round"/>
<polyline points="5019.8 4952.9 5009.8 4952.9 5006.7 4943.4 5014.8 4937.6 5006.7 4931.7 5003.6 4941.2 4995.5 4947.1 4998.6 4956.6 5008.6 4956.6 5011.7 4947.1 5014.8 4956.6 5022.9 4962.5 5019.8 4952.9 5027.9 4947.1 5017.9 4947.1 5007.9 4947.1 4999.8 4941.2 5002.9 4931.7 5011 4925.8 5002.9 4919.9 4999.8 4910.4 5002.9 4900.9 4994.8 4895 4991.7 4885.5 4983.6 4891.4 4986.7 4900.9 4978.6 4906.8 4981.7 4897.3 4973.6 4891.4 4963.6 4891.4 4955.5 4885.5 4947.4 4879.6 4950.5 4870.1 4947.4 4860.6 4937.4 4860.6 4940.5 4851.1 4932.4 4845.2 4924.3 4839.4 4927.4 4829.8 4919.3 4835.7 4911.2 4829.8 4903.1 4824 4911.2 4829.8" clip-path="url(#a)" fill="none" stroke="#000" stroke-linecap="round"/>
<polyline points="4911.2 4829.8 4901.2 4829.8 4911.2 4829.8 4908.1 4820.3 4918.1 4820.3 4926.2 4814.5 4934.3 4808.6 4931.2 4799.1 4928.1 4808.6 4920 4802.7 4917 4812.2 4925 4806.3 4935 4806.3 4938.1 4815.8 4948.1 4815.8 4945 4806.3 4937 4812.2 4940 4821.7 4948.1 4827.6 4940 4821.7 4948.1 4827.6 4945 4818.1 4955 4818.1 4952 4827.6 4948.9 4837.1 4958.9 4837.1 4967 4831.2 4975 4837.1 4983.1 4843 4991.2 4837.1 4994.3 4827.6 4986.2 4821.7 4978.1 4815.8 4968.1 4815.8 4976.2 4821.7 4986.2 4821.7 4983.1 4812.2 4980 4821.7 4988.1 4827.6 4980 4833.5 4988.1 4827.6 4985 4837.1 4988.1 4846.6" clip-path="url(#a)" fill="none" stroke="#000" stroke-linecap="round"/>
<polyline points="4988.1 4846.6 4980 4852.5 4988.1 4858.4 4980 4864.2 4990 4864.2 4980 4864.2 4990 4864.2 4993.1 4873.8 5001.2 4867.9 5009.3 4862 5001.2 4856.1 5004.3 4846.6 5014.3 4846.6 5006.2 4852.5 4996.2 4852.5 4993.1 4862 4996.2 4852.5 5004.3 4858.4 5007.4 4867.9 5004.3 4858.4 5001.2 4848.9 5004.3 4858.4 5012.4 4852.5 5020.5 4846.6 5028.6 4840.7 5020.5 4834.9 5028.6 4840.7 5031.7 4831.2 5021.7 4831.2 5031.7 4831.2 5023.6 4837.1 5015.5 4831.2 5012.4 4821.7 5009.3 4812.2 5006.2 4821.7 5009.3 4812.2 5017.4 4806.3 5009.3 4800.5 5019.3 4800.5 5016.2 4790.9 5019.3 4781.4 5016.2 4790.9 5008.1 4785.1" clip-path="url(#a)" fill="none" stroke="#000" stroke-linecap="round"/>
<polyline points="5008.1 4785.1 5016.2 4790.9 5019.3 4800.5 5009.3 4800.5 5001.2 4806.3 4998.1 4796.8 4990 4802.7 4987 4812.2 4995 4806.3 4985 4806.3 4982 4796.8 4992 4796.8 4983.9 4802.7 4992 4808.6 5e3 4802.7 4992 4808.6 4983.9 4814.5 4975.8 4808.6 4978.9 4799.1 4968.9 4799.1 4972 4808.6 4968.9 4818.1 4977 4824 4985 4818.1 4982 4808.6 4990 4814.5 5e3 4814.5 4992 4808.6 4995 4799.1 4987 4804.9 4978.9 4810.8 4968.9 4810.8 4965.8 4801.3 4968.9 4791.8 4958.9 4791.8 4950.8 4785.9 4947.7 4776.4 4937.7 4776.4 4929.6 4770.5 4926.5 4780 4934.6 4785.9 4931.5 4795.4 4928.4 4785.9" clip-path="url(#a)" fill="none" stroke="#000" stroke-linecap="round"/>
<polyline points="4928.4 4785.9 4918.4 4785.9 4910.3 4791.8 4900.3 4791.8 4890.3 4791.8 4887.2 4782.3 4879.1 4776.4 4871.1 4782.3 4868 4772.8 4858 4772.8 4848 4772.8 4844.9 4763.3 4841.8 4772.8 4831.8 4772.8 4821.8 4772.8 4831.8 4772.8 4823.7 4778.7 4831.8 4772.8 4823.7 4766.9 4831.8 4761 4834.9 4751.5 4838 4742 4829.9 4736.1 4833 4745.6 4823 4745.6 4826.1 4755.1 4829.1 4745.6 4837.2 4739.8 4845.3 4745.6 4853.4 4739.8 4845.3 4733.9 4842.2 4743.4 4850.3 4749.3 4860.3 4749.3 4850.3 4749.3 4860.3 4749.3 4852.2 4743.4 4860.3 4737.5 4863.4 4747 4866.5 4756.5 4874.6 4750.7 4877.7 4741.1 4887.7 4741.1" clip-path="url(#a)" fill="none" stroke="#000" stroke-linecap="round"/>
<polyline points="4887.7 4741.1 4897.7 4741.1 4900.8 4731.6 4897.7 4722.1 4887.7 4722.1 4877.7 4722.1 4869.6 4728 4879.6 4728 4887.7 4722.1 4879.6 4716.2 4882.7 4725.8 4892.7 4725.8 4889.6 4735.3 4892.7 4725.8 4895.8 4735.3 4903.9 4741.1 4900.8 4750.7 4910.8 4750.7 4907.7 4760.2 4915.8 4754.3 4907.7 4760.2 4915.8 4754.3 4923.9 4760.2 4927 4750.7 4930 4741.1 4920 4741.1 4917 4731.6 4925 4725.8 4922 4735.3 4913.9 4741.1 4917 4750.7 4913.9 4741.1 4923.9 4741.1 4932 4747 4923.9 4741.1 4915.8 4735.3 4923.9 4741.1 4927 4731.6 4930 4722.1 4933.1 4712.6 4923.1 4712.6 4933.1 4712.6 4930 4703.1" clip-path="url(#a)" fill="none" stroke="#000" stroke-linecap="round"/>
<polyline points="4930 4703.1 4922 4709 4930 4703.1 4927 4712.6 4917 4712.6 4908.9 4706.7 4900.8 4700.9 4903.9 4710.4 4900.8 4700.9 4903.9 4691.3 4893.9 4691.3 4902 4685.5 4893.9 4679.6 4890.8 4670.1 4893.9 4679.6 4883.9 4679.6 4893.9 4679.6 4902 4685.5 4893.9 4691.3 4890.8 4700.9 4882.7 4695 4879.6 4704.5 4882.7 4714 4885.8 4704.5 4877.7 4710.4 4869.6 4704.5 4877.7 4698.6 4874.6 4708.1 4884.6 4708.1 4887.7 4698.6 4884.6 4708.1 4881.5 4717.6 4871.5 4717.6 4868.4 4708.1 4860.3 4714 4868.4 4719.9 4871.5 4729.4 4881.5 4729.4 4884.6 4719.9 4876.5 4714 4886.5 4714 4894.6 4708.1 4884.6 4708.1" clip-path="url(#a)" fill="none" stroke="#000" stroke-linecap="round"/>
<polyline points="4884.6 4708.1 4881.5 4698.6 4878.4 4708.1 4875.3 4717.6 4867.2 4723.5 4859.1 4717.6 4856.1 4708.1 4848 4714 4838 4714 4829.9 4708.1 4821.8 4714 4811.8 4714 4814.9 4723.5 4824.9 4723.5 4828 4733 4819.9 4727.1 4811.8 4733 4808.7 4742.5 4800.6 4748.4 4792.5 4754.3 4784.4 4748.4 4774.4 4748.4 4771.3 4757.9 4763.2 4752 4755.2 4757.9 4747.1 4763.8 4739 4757.9 4742.1 4767.4 4734 4773.3 4725.9 4779.2 4734 4773.3 4730.9 4782.8 4734 4773.3 4724 4773.3 4727.1 4763.8 4724 4754.3 4720.9 4744.8 4710.9 4744.8 4719 4750.7 4710.9 4756.5 4719 4762.4 4715.9 4752.9 4719 4743.4" clip-path="url(#a)" fill="none" stroke="#000" stroke-linecap="round"/>
<polyline points="4719 4743.4 4729 4743.4 4732.1 4733.9 4722.1 4733.9 4725.2 4743.4 4735.2 4743.4 4743.2 4737.5 4735.2 4743.4 4743.2 4737.5 4733.2 4737.5 4736.3 4728 4744.4 4733.9 4752.5 4739.8 4755.6 4730.2 4752.5 4720.7 4760.6 4714.9 4768.7 4709 4765.6 4699.5 4757.5 4693.6 4749.4 4699.5 4741.3 4705.3 4738.2 4714.9 4746.3 4709 4749.4 4699.5 4739.4 4699.5 4747.5 4705.3 4755.6 4699.5 4758.7 4709 4755.6 4699.5 4763.7 4705.3 4773.7 4705.3 4776.8 4714.9 4784.9 4709 4788 4718.5 4791.1 4709 4788 4718.5 4791.1 4709 4801.1 4709 4798 4699.5 4794.9 4690 4786.8 4695.8 4778.7 4690 4781.8 4680.4" clip-path="url(#a)" fill="none" stroke="#000" stroke-linecap="round"/>
<polyline points="4781.8 4680.4 4784.9 4690 4781.8 4699.5 4789.9 4705.3 4781.8 4699.5 4789.9 4693.6 4799.9 4693.6 4789.9 4693.6 4779.9 4693.6 4789.9 4693.6 4786.8 4684.1 4783.7 4674.6 4780.6 4665.1 4772.5 4670.9 4780.6 4665.1 4772.5 4659.2 4769.4 4668.7 4772.5 4659.2 4775.6 4668.7 4767.5 4674.6 4757.5 4674.6 4747.5 4674.6 4755.6 4680.4 4747.5 4674.6 4744.4 4665.1 4736.3 4670.9 4739.4 4661.4 4729.4 4661.4 4721.3 4655.5 4729.4 4661.4 4721.3 4667.3 4729.4 4661.4 4739.4 4661.4 4736.3 4670.9 4739.4 4680.4 4729.4 4680.4 4732.5 4690 4740.6 4695.8 4737.5 4686.3 4734.4 4695.8 4724.4 4695.8 4727.5 4686.3 4730.6 4695.8" clip-path="url(#a)" fill="none" stroke="#000" stroke-linecap="round"/>
<polyline points="4730.6 4695.8 4738.7 4690 4735.6 4680.4 4738.7 4690 4741.8 4699.5 4733.7 4705.3 4725.6 4699.5 4722.5 4709 4732.5 4709 4740.6 4714.9 4748.7 4709 4745.6 4699.5 4735.6 4699.5 4743.7 4693.6 4746.8 4684.1 4738.7 4690 4730.6 4684.1 4733.7 4693.6 4736.8 4703.1 4733.7 4712.6 4723.7 4712.6 4715.6 4706.7 4712.5 4716.2 4704.4 4722.1 4694.4 4722.1 4691.3 4731.6 4683.2 4737.5 4691.3 4743.4 4699.4 4737.5 4707.5 4743.4 4697.5 4743.4 4694.4 4752.9 4697.5 4762.4 4694.4 4771.9 4691.3 4781.4 4681.3 4781.4 4673.2 4787.3 4676.3 4796.8 4666.3 4796.8 4663.2 4806.3 4660.2 4815.8 4650.2 4815.8 4658.2 4821.7" clip-path="url(#a)" fill="none" stroke="#000" stroke-linecap="round"/>
<polyline points="4658.2 4821.7 4655.2 4831.2 4652.1 4840.7 4655.2 4831.2 4658.2 4840.7 4655.2 4831.2 4647.1 4837.1 4644 4827.6 4635.9 4821.7 4627.8 4815.8 4619.7 4821.7 4629.7 4821.7 4626.6 4831.2 4636.6 4831.2 4628.5 4825.3 4625.4 4815.8 4633.5 4810 4630.4 4800.5 4622.3 4806.3 4630.4 4812.2 4638.5 4806.3 4641.6 4796.8 4638.5 4806.3 4641.6 4796.8 4633.5 4802.7 4630.4 4793.2 4640.4 4793.2 4650.4 4793.2 4647.3 4783.7 4639.3 4777.8 4642.3 4768.3 4645.4 4758.8 4637.3 4752.9 4627.3 4752.9 4624.3 4762.4 4621.2 4771.9 4624.3 4781.4 4627.3 4771.9 4624.3 4762.4 4616.2 4768.3 4626.2 4768.3 4629.3 4758.8 4637.3 4764.7" clip-path="url(#a)" fill="none" stroke="#000" stroke-linecap="round"/>
<polyline points="4637.3 4764.7 4629.3 4758.8 4639.3 4758.8 4647.3 4752.9 4655.4 4758.8 4658.5 4749.3 4666.6 4755.1 4663.5 4745.6 4666.6 4755.1 4663.5 4745.6 4671.6 4739.8 4663.5 4733.9 4655.4 4728 4652.3 4737.5 4642.3 4737.5 4639.3 4728 4647.3 4733.9 4650.4 4743.4 4660.4 4743.4 4650.4 4743.4 4653.5 4733.9 4661.6 4728 4653.5 4733.9 4645.4 4739.8 4653.5 4733.9 4645.4 4728 4637.3 4722.1 4629.3 4716.2 4626.2 4725.8 4629.3 4716.2 4619.3 4716.2 4622.3 4725.8 4619.3 4716.2 4627.3 4722.1 4624.3 4731.6 4616.2 4737.5 4608.1 4743.4 4618.1 4743.4 4608.1 4743.4 4600 4737.5 4596.9 4747 4593.8 4737.5 4585.7 4743.4" clip-path="url(#a)" fill="none" stroke="#000" stroke-linecap="round"/>
<polyline points="4585.7 4743.4 4575.7 4743.4 4585.7 4743.4 4582.6 4752.9 4585.7 4743.4 4593.8 4737.5 4596.9 4747 4605 4752.9 4596.9 4758.8 4605 4764.7 4615 4764.7 4606.9 4758.8 4610 4768.3 4601.9 4774.2 4598.8 4764.7 4606.9 4770.5 4610 4761 4601.9 4755.1 4610 4761 4618.1 4766.9 4615 4776.4 4605 4776.4 4608.1 4785.9 4616.2 4780 4626.2 4780 4629.3 4770.5 4621.2 4764.7 4613.1 4770.5 4616.2 4761 4613.1 4751.5 4610 4761 4600 4761 4608.1 4766.9 4616.2 4772.8 4619.3 4782.3 4611.2 4788.2 4601.2 4788.2 4604.3 4797.7 4601.2 4807.2 4593.1 4813.1 4596.2 4822.6 4593.1 4832.1 4603.1 4832.1" clip-path="url(#a)" fill="none" stroke="#000" stroke-linecap="round"/>
<polyline points="4603.1 4832.1 4606.2 4822.6 4616.2 4822.6 4608.1 4828.5 4611.2 4838 4619.3 4843.8 4622.3 4853.4 4625.4 4862.9 4617.3 4868.7 4614.3 4878.3 4622.3 4884.1 4614.3 4890 4617.3 4899.5 4620.4 4909 4612.3 4914.9 4622.3 4914.9 4625.4 4924.4 4628.5 4933.9 4625.4 4924.4 4633.5 4930.3 4625.4 4924.4 4622.3 4933.9 4614.3 4928 4604.3 4928 4594.3 4928 4591.2 4937.6 4599.3 4931.7 4602.3 4941.2 4610.4 4935.3 4600.4 4935.3 4592.3 4929.4 4595.4 4919.9 4587.3 4914 4584.3 4923.6 4594.3 4923.6 4597.3 4914 4594.3 4904.5 4597.3 4914 4594.3 4904.5 4591.2 4914 4583.1 4908.2 4591.2 4902.3 4599.3 4896.4" clip-path="url(#a)" fill="none" stroke="#000" stroke-linecap="round"/>
<polyline points="4599.3 4896.4 4591.2 4890.5 4581.2 4890.5 4578.1 4881 4575 4871.5 4565 4871.5 4556.9 4877.4 4560 4886.9 4563.1 4896.4 4571.2 4902.3 4568.1 4892.8 4560 4886.9 4556.9 4896.4 4565 4890.5 4561.9 4881 4571.9 4881 4561.9 4881 4570 4875.1 4573.1 4865.6 4583.1 4865.6 4580 4856.1 4590 4856.1 4581.9 4850.2 4590 4856.1 4581.9 4850.2 4585 4840.7 4575 4840.7 4565 4840.7 4568.1 4850.2 4560 4856.1 4551.9 4850.2 4561.9 4850.2 4570 4856.1 4578.1 4850.2 4570 4856.1 4566.9 4846.6 4570 4837.1 4566.9 4846.6 4563.8 4856.1 4566.9 4846.6 4556.9 4846.6 4546.9 4846.6 4536.9 4846.6" clip-path="url(#a)" fill="none" stroke="#000" stroke-linecap="round"/>
<polyline points="4536.9 4846.6 4540 4856.1 4536.9 4846.6 4528.8 4852.5 4536.9 4858.4 4528.8 4852.5 4538.8 4852.5 4541.9 4862 4538.8 4871.5 4535.7 4881 4543.8 4875.1 4535.7 4881 4525.7 4881 4528.8 4890.5 4520.7 4884.7 4517.6 4894.2 4509.5 4900 4517.6 4894.2 4520.7 4903.7 4517.6 4894.2 4520.7 4884.7 4528.8 4890.5 4538.8 4890.5 4535.7 4900 4545.7 4900 4553.8 4894.2 4543.8 4894.2 4551.9 4900 4548.8 4909.6 4540.7 4903.7 4550.7 4903.7 4547.6 4894.2 4537.6 4894.2 4547.6 4894.2 4557.6 4894.2 4560.7 4903.7 4552.6 4909.6 4560.7 4915.4 4563.8 4905.9 4571.9 4900 4568.8 4890.5 4558.8 4890.5 4555.7 4900" clip-path="url(#a)" fill="none" stroke="#000" stroke-linecap="round"/>
<polyline points="4555.7 4900 4552.6 4890.5 4544.5 4884.7 4547.6 4894.2 4539.5 4900 4549.5 4900 4559.5 4900 4567.6 4905.9 4564.5 4915.4 4556.4 4921.3 4564.5 4927.2 4567.6 4936.7 4564.5 4946.2 4572.6 4952.1 4575.7 4961.6 4583.8 4955.7 4580.7 4946.2 4588.8 4940.3 4585.7 4949.8 4593.8 4955.7 4603.8 4955.7 4611.9 4961.6 4620 4967.5 4616.9 4977 4620 4986.5 4630 4986.5 4626.9 4996 4635 5001.9 4643.1 5007.8 4640 5017.3 4648.1 5011.4 4656.2 5017.3 4664.3 5023.2 4656.2 5017.3 4666.2 5017.3 4656.2 5017.3 4659.3 5026.8 4649.3 5026.8 4641.2 5032.7 4633.1 5038.5 4636.2 5048.1 4639.3 5038.5 4647.3 5044.4" clip-path="url(#a)" fill="none" stroke="#000" stroke-linecap="round"/>
<polyline points="4647.3 5044.4 4650.4 5034.9 4642.3 5040.8 4632.3 5040.8 4629.3 5031.3 4619.3 5031.3 4622.3 5040.8 4630.4 5034.9 4627.3 5025.4 4619.3 5019.5 4627.3 5025.4 4619.3 5019.5 4622.3 5029 4612.3 5029 4615.4 5019.5 4618.5 5010 4608.5 5010 4600.4 5015.9 4592.3 5010 4584.3 5004.1 4576.2 5010 4573.1 5019.5 4581.2 5025.4 4589.3 5031.3 4599.3 5031.3 4591.2 5025.4 4581.2 5025.4 4584.3 5034.9 4587.3 5025.4 4579.3 5019.5 4587.3 5013.6 4579.3 5019.5 4582.3 5010 4579.3 5000.5 4587.3 4994.6 4579.3 4988.7 4587.3 4982.9 4577.3 4982.9 4587.3 4982.9 4577.3 4982.9 4574.3 4973.4 4566.2 4979.2 4558.1 4985.1" clip-path="url(#a)" fill="none" stroke="#000" stroke-linecap="round"/>
<polyline points="4558.1 4985.1 4566.2 4991 4563.1 5000.5 4553.1 5000.5 4561.2 4994.6 4571.2 4994.6 4574.3 4985.1 4571.2 4994.6 4563.1 4988.7 4560 4979.2 4563.1 4988.7 4566.2 4998.3 4563.1 4988.7 4555 4994.6 4546.9 5000.5 4538.8 5006.4 4546.9 5012.3 4538.8 5006.4 4535.7 5015.9 4545.7 5015.9 4535.7 5015.9 4543.8 5010 4551.9 5015.9 4555 5025.4 4558.1 5034.9 4561.2 5025.4 4558.1 5034.9 4550 5040.8 4558.1 5046.7 4548.1 5046.7 4551.2 5056.2 4548.1 5065.7 4551.2 5056.2 4559.3 5062.1 4551.2 5056.2 4548.1 5046.7 4558.1 5046.7 4566.2 5040.8 4569.3 5050.3 4577.3 5044.4 4580.4 5034.9 4572.3 5040.8 4582.3 5040.8" clip-path="url(#a)" fill="none" stroke="#000" stroke-linecap="round"/>
<polyline points="4582.3 5040.8 4585.4 5050.3 4575.4 5050.3 4583.5 5044.4 4575.4 5038.5 4567.3 5044.4 4575.4 5038.5 4583.5 5032.7 4591.6 5038.5 4588.5 5048.1 4598.5 5048.1 4595.4 5038.5 4598.5 5029 4590.4 5023.2 4582.3 5029 4585.4 5038.5 4577.3 5032.7 4567.3 5032.7 4575.4 5038.5 4572.3 5048.1 4580.4 5042.2 4588.5 5036.3 4598.5 5036.3 4601.6 5045.8 4598.5 5055.3 4608.5 5055.3 4616.6 5061.2 4619.7 5070.7 4629.7 5070.7 4637.8 5076.6 4640.9 5067.1 4632.8 5061.2 4635.9 5051.7 4639 5061.2 4649 5061.2 4657.1 5055.3 4667.1 5055.3 4677.1 5055.3 4680.2 5064.8 4688.2 5070.7 4696.3 5064.8 4699.4 5074.3 4709.4 5074.3" clip-path="url(#a)" fill="none" stroke="#000" stroke-linecap="round"/>
<polyline points="4709.4 5074.3 4719.4 5074.3 4722.5 5083.8 4725.6 5074.3 4735.6 5074.3 4745.6 5074.3 4735.6 5074.3 4743.7 5068.5 4735.6 5074.3 4743.7 5080.2 4735.6 5086.1 4732.5 5095.6 4729.4 5105.1 4737.5 5111 4734.4 5101.5 4744.4 5101.5 4741.3 5092 4738.2 5101.5 4730.2 5107.4 4722.1 5101.5 4714 5107.4 4722.1 5113.2 4725.2 5103.7 4717.1 5097.9 4707.1 5097.9 4717.1 5097.9 4707.1 5097.9 4715.2 5103.7 4707.1 5109.6 4704 5100.1 4700.9 5090.6 4692.8 5096.5 4689.7 5106 4679.7 5106 4669.7 5106 4666.6 5115.5 4669.7 5125 4679.7 5125 4689.7 5125 4697.8 5119.1 4687.8 5119.1 4679.7 5125 4687.8 5130.9" clip-path="url(#a)" fill="none" stroke="#000" stroke-linecap="round"/>
<polyline points="4687.8 5130.9 4684.7 5121.4 4674.7 5121.4 4677.8 5111.9 4674.7 5121.4 4671.6 5111.9 4663.5 5106 4666.6 5096.5 4656.6 5096.5 4659.7 5087 4651.6 5092.8 4659.7 5087 4651.6 5092.8 4643.5 5087 4640.4 5096.5 4637.3 5106 4647.3 5106 4650.4 5115.5 4642.3 5121.4 4645.4 5111.9 4653.5 5106 4650.4 5096.5 4653.5 5106 4643.5 5106 4635.4 5100.1 4643.5 5106 4651.6 5111.9 4643.5 5106 4640.4 5115.5 4637.3 5125 4634.3 5134.5 4644.3 5134.5 4634.3 5134.5 4637.3 5144 4645.4 5138.1 4637.3 5144 4640.4 5134.5 4650.4 5134.5 4658.5 5140.4 4666.6 5146.3 4663.5 5136.8 4666.6 5146.3 4663.5 5155.8" clip-path="url(#a)" fill="none" stroke="#000" stroke-linecap="round"/>
<polyline points="4663.5 5155.8 4673.5 5155.8 4665.4 5161.6 4673.5 5167.5 4676.6 5177 4673.5 5167.5 4683.5 5167.5 4673.5 5167.5 4665.4 5161.6 4673.5 5155.8 4676.6 5146.3 4684.7 5152.1 4687.8 5142.6 4684.7 5133.1 4681.6 5142.6 4689.7 5136.8 4697.8 5142.6 4689.7 5148.5 4692.8 5139 4682.8 5139 4679.7 5148.5 4682.8 5139 4685.9 5129.5 4695.9 5129.5 4699 5139 4707.1 5133.1 4699 5127.2 4695.9 5117.7 4685.9 5117.7 4682.8 5127.2 4690.9 5133.1 4680.9 5133.1 4672.8 5139 4682.8 5139 4685.9 5148.5 4689 5139 4692.1 5129.5 4700.2 5123.6 4708.2 5129.5 4711.3 5139 4719.4 5133.1 4729.4 5133.1 4737.5 5139" clip-path="url(#a)" fill="none" stroke="#000" stroke-linecap="round"/>
<polyline points="4737.5 5139 4745.6 5133.1 4755.6 5133.1 4752.5 5123.6 4742.5 5123.6 4739.4 5114.1 4747.5 5120 4755.6 5114.1 4758.7 5104.6 4766.8 5098.7 4774.9 5092.8 4783 5098.7 4793 5098.7 4796.1 5089.2 4804.1 5095.1 4812.2 5089.2 4820.3 5083.3 4828.4 5089.2 4825.3 5079.7 4833.4 5073.8 4841.5 5067.9 4833.4 5073.8 4836.5 5064.3 4833.4 5073.8 4843.4 5073.8 4840.3 5083.3 4843.4 5092.8 4846.5 5102.3 4856.5 5102.3 4848.4 5096.5 4856.5 5090.6 4848.4 5084.7 4851.5 5094.2 4848.4 5103.7 4838.4 5103.7 4835.3 5113.2 4845.3 5113.2 4842.2 5103.7 4832.2 5103.7 4824.1 5109.6 4832.2 5103.7 4824.1 5109.6 4834.1 5109.6" clip-path="url(#a)" fill="none" stroke="#000" stroke-linecap="round"/>
<polyline points="4834.1 5109.6 4831.1 5119.1 4823 5113.2 4814.9 5107.4 4811.8 5116.9 4814.9 5126.4 4806.8 5132.3 4798.7 5138.1 4801.8 5147.6 4809.9 5153.5 4818 5147.6 4826.1 5141.8 4829.1 5132.3 4821.1 5138.1 4818 5147.6 4828 5147.6 4819.9 5141.8 4811.8 5147.6 4808.7 5138.1 4811.8 5147.6 4803.7 5141.8 4793.7 5141.8 4790.6 5132.3 4782.5 5138.1 4779.4 5128.6 4776.3 5138.1 4779.4 5128.6 4776.3 5138.1 4766.3 5138.1 4769.4 5147.6 4772.5 5157.2 4780.6 5151.3 4788.7 5157.2 4785.6 5166.7 4782.5 5157.2 4785.6 5147.6 4777.5 5141.8 4785.6 5147.6 4777.5 5153.5 4767.5 5153.5 4777.5 5153.5 4787.5 5153.5 4777.5 5153.5" clip-path="url(#a)" fill="none" stroke="#000" stroke-linecap="round"/>
<polyline points="4777.5 5153.5 4780.6 5163 4783.7 5172.5 4786.8 5182.1 4794.9 5176.2 4786.8 5182.1 4794.9 5187.9 4798 5178.4 4794.9 5187.9 4791.8 5178.4 4799.9 5172.5 4809.9 5172.5 4819.9 5172.5 4811.8 5166.7 4819.9 5172.5 4823 5182.1 4831.1 5176.2 4828 5185.7 4838 5185.7 4846.1 5191.6 4838 5185.7 4846.1 5179.8 4838 5185.7 4828 5185.7 4831.1 5176.2 4828 5166.7 4838 5166.7 4834.9 5157.2 4826.8 5151.3 4829.9 5160.8 4833 5151.3 4843 5151.3 4839.9 5160.8 4836.8 5151.3 4828.7 5157.2 4831.8 5166.7 4828.7 5157.2 4825.6 5147.6 4833.7 5141.8 4841.8 5147.6 4844.9 5138.1 4834.9 5138.1 4826.8 5132.3" clip-path="url(#a)" fill="none" stroke="#000" stroke-linecap="round"/>
<polyline points="4826.8 5132.3 4818.7 5138.1 4821.8 5147.6 4831.8 5147.6 4823.7 5153.5 4820.6 5163 4828.7 5157.2 4836.8 5163 4833.7 5153.5 4830.6 5144 4833.7 5134.5 4843.7 5134.5 4851.8 5140.4 4854.9 5130.9 4863 5125 4873 5125 4876.1 5115.5 4884.1 5109.6 4876.1 5103.7 4868 5109.6 4859.9 5103.7 4869.9 5103.7 4873 5094.2 4869.9 5084.7 4873 5075.2 4876.1 5065.7 4886.1 5065.7 4894.1 5059.8 4891.1 5050.3 4901.1 5050.3 4904.1 5040.8 4907.2 5031.3 4917.2 5031.3 4909.1 5025.4 4912.2 5015.9 4915.3 5006.4 4912.2 5015.9 4909.1 5006.4 4912.2 5015.9 4920.3 5010 4923.4 5019.5 4931.5 5025.4 4939.6 5031.3" clip-path="url(#a)" fill="none" stroke="#000" stroke-linecap="round"/>
<polyline points="4939.6 5031.3 4947.7 5025.4 4937.7 5025.4 4940.8 5015.9 4930.8 5015.9 4938.9 5021.8 4942 5031.3 4933.9 5037.2 4937 5046.7 4945 5040.8 4937 5034.9 4928.9 5040.8 4925.8 5050.3 4928.9 5040.8 4925.8 5050.3 4933.9 5044.4 4937 5053.9 4927 5053.9 4917 5053.9 4920 5063.4 4928.1 5069.3 4925 5078.8 4922 5088.3 4930 5094.2 4940 5094.2 4943.1 5084.7 4946.2 5075.2 4943.1 5065.7 4940 5075.2 4943.1 5084.7 4951.2 5078.8 4941.2 5078.8 4938.1 5088.3 4930 5082.5 4938.1 5088.3 4928.1 5088.3 4920 5094.2 4912 5088.3 4908.9 5097.9 4900.8 5092 4903.9 5101.5 4900.8 5092 4903.9 5101.5" clip-path="url(#a)" fill="none" stroke="#000" stroke-linecap="round"/>
<polyline points="4903.9 5101.5 4895.8 5107.4 4903.9 5113.2 4912 5119.1 4915 5109.6 4925 5109.6 4928.1 5119.1 4920 5113.2 4917 5103.7 4907 5103.7 4917 5103.7 4913.9 5113.2 4905.8 5119.1 4913.9 5113.2 4922 5107.4 4913.9 5113.2 4922 5119.1 4930 5125 4938.1 5130.9 4941.2 5121.4 4938.1 5130.9 4948.1 5130.9 4945 5121.4 4948.1 5130.9 4940 5125 4943.1 5115.5 4951.2 5109.6 4959.3 5103.7 4949.3 5103.7 4959.3 5103.7 4967.4 5109.6 4970.5 5100.1 4973.6 5109.6 4981.7 5103.7 4991.7 5103.7 4981.7 5103.7 4984.8 5094.2 4981.7 5103.7 4973.6 5109.6 4970.5 5100.1 4962.4 5094.2 4970.5 5088.3 4962.4 5082.5" clip-path="url(#a)" fill="none" stroke="#000" stroke-linecap="round"/>
<polyline points="4962.4 5082.5 4952.4 5082.5 4960.5 5088.3 4957.4 5078.8 4965.5 5073 4968.6 5082.5 4960.5 5076.6 4957.4 5086.1 4965.5 5092 4957.4 5086.1 4949.3 5080.2 4952.4 5070.7 4962.4 5070.7 4959.3 5061.2 4951.2 5067.1 4941.2 5067.1 4938.1 5076.6 4946.2 5082.5 4954.3 5076.6 4951.2 5086.1 4954.3 5095.6 4957.4 5086.1 4967.4 5086.1 4959.3 5080.2 4951.2 5074.3 4948.1 5064.8 4956.2 5059 4966.2 5059 4963.1 5049.4 4966.2 5039.9 4974.3 5034.1 4971.2 5024.5 4974.3 5015 4964.3 5015 4961.2 5024.5 4951.2 5024.5 4959.3 5018.7 4956.2 5009.2 4948.1 5003.3 4945 4993.8 4942 4984.3 4950 4978.4 4953.1 4968.9" clip-path="url(#a)" fill="none" stroke="#000" stroke-linecap="round"/>
<polyline points="4953.1 4968.9 4945 4963 4953.1 4957.1 4950 4947.6 4947 4938.1 4955 4932.2 4945 4932.2 4942 4922.7 4938.9 4913.2 4942 4922.7 4933.9 4916.8 4942 4922.7 4945 4913.2 4953.1 4919.1 4963.1 4919.1 4973.1 4919.1 4976.2 4909.6 4968.1 4915.4 4965 4905.9 4957 4911.8 4967 4911.8 4975 4917.7 4972 4927.2 4980 4933.1 4983.1 4923.6 4973.1 4923.6 4970 4933.1 4973.1 4942.6 4970 4933.1 4973.1 4942.6 4976.2 4933.1 4984.3 4938.9 4976.2 4944.8 4968.1 4950.7 4976.2 4956.6 4986.2 4956.6 4989.3 4966.1 4992.4 4975.6 5002.4 4975.6 5010.5 4969.7 5007.4 4960.2 5004.3 4950.7 4996.2 4944.8" clip-path="url(#a)" fill="none" stroke="#000" stroke-linecap="round"/>
<polyline points="4996.2 4944.8 4999.3 4954.3 5007.4 4960.2 5010.5 4950.7 5002.4 4956.6 5005.5 4966.1 4995.5 4966.1 5005.5 4966.1 4997.4 4972 4994.3 4981.5 4984.3 4981.5 4987.4 4991 4977.4 4991 4985.5 4996.9 4977.4 4991 4985.5 4996.9 4982.4 5006.4 4992.4 5006.4 5002.4 5006.4 4999.3 4996.9 5007.4 4991 5015.5 4996.9 5005.5 4996.9 4997.4 4991 4989.3 4996.9 4997.4 4991 5000.5 5000.5 4997.4 5010 5000.5 5000.5 5003.6 4991 5000.5 5000.5 5010.5 5000.5 5020.5 5000.5 5030.5 5000.5 5027.4 4991 5030.5 5000.5 5038.6 4994.6 5030.5 4988.7 5038.6 4994.6 5028.6 4994.6 5025.5 4985.1 5028.6 4975.6 5031.7 4966.1" clip-path="url(#a)" fill="none" stroke="#000" stroke-linecap="round"/>
<polyline points="5031.7 4966.1 5023.6 4972 5031.7 4966.1 5041.7 4966.1 5038.6 4956.6 5046.7 4962.5 5049.8 4952.9 5057.9 4947.1 5049.8 4952.9 5046.7 4943.4 5049.8 4952.9 5046.7 4962.5 5038.6 4956.6 5028.6 4956.6 5031.7 4947.1 5021.7 4947.1 5013.6 4952.9 5023.6 4952.9 5015.5 4947.1 5018.6 4937.6 5026.7 4943.4 5016.7 4943.4 5019.8 4952.9 5029.8 4952.9 5019.8 4952.9 5009.8 4952.9 5006.7 4943.4 5014.8 4937.6 5006.7 4931.7 5003.6 4941.2 4995.5 4947.1 4998.6 4956.6 5008.6 4956.6 5011.7 4947.1 5014.8 4956.6 5022.9 4962.5 5019.8 4952.9 5027.9 4947.1 5017.9 4947.1 5007.9 4947.1 4999.8 4941.2 5002.9 4931.7 5011 4925.8" clip-path="url(#a)" fill="none" stroke="#000" stroke-linecap="round"/>
<polyline points="5011 4925.8 5002.9 4919.9 4999.8 4910.4 5002.9 4900.9 4994.8 4895 4991.7 4885.5 4983.6 4891.4 4986.7 4900.9 4978.6 4906.8 4981.7 4897.3 4973.6 4891.4 4963.6 4891.4 4955.5 4885.5 4947.4 4879.6 4950.5 4870.1 4947.4 4860.6 4937.4 4860.6 4940.5 4851.1 4932.4 4845.2 4924.3 4839.4 4927.4 4829.8 4919.3 4835.7 4911.2 4829.8 4903.1 4824 4911.2 4829.8 4901.2 4829.8 4911.2 4829.8 4908.1 4820.3 4918.1 4820.3 4926.2 4814.5 4934.3 4808.6 4931.2 4799.1 4928.1 4808.6 4920 4802.7 4917 4812.2 4925 4806.3 4935 4806.3 4938.1 4815.8 4948.1 4815.8 4945 4806.3 4937 4812.2 4940 4821.7 4948.1 4827.6" clip-path="url(#a)" fill="none" stroke="#000" stroke-linecap="round"/>
<polyline points="4948.1 4827.6 4940 4821.7 4948.1 4827.6 4945 4818.1 4955 4818.1 4952 4827.6 4948.9 4837.1 4958.9 4837.1 4967 4831.2 4975 4837.1 4983.1 4843 4991.2 4837.1 4994.3 4827.6 4986.2 4821.7 4978.1 4815.8 4968.1 4815.8 4976.2 4821.7 4986.2 4821.7 4983.1 4812.2 4980 4821.7 4988.1 4827.6 4980 4833.5 4988.1 4827.6 4985 4837.1 4988.1 4846.6 4980 4852.5 4988.1 4858.4 4980 4864.2 4990 4864.2 4980 4864.2 4990 4864.2 4993.1 4873.8 5001.2 4867.9 5009.3 4862 5001.2 4856.1 5004.3 4846.6 5014.3 4846.6 5006.2 4852.5 4996.2 4852.5 4993.1 4862 4996.2 4852.5 5004.3 4858.4 5007.4 4867.9" clip-path="url(#a)" fill="none" stroke="#000" stroke-linecap="round"/>
<polyline points="5007.4 4867.9 5004.3 4858.4 5001.2 4848.9 5004.3 4858.4 5012.4 4852.5 5020.5 4846.6 5028.6 4840.7 5020.5 4834.9 5028.6 4840.7 5031.7 4831.2 5021.7 4831.2 5031.7 4831.2 5023.6 4837.1 5015.5 4831.2 5012.4 4821.7 5009.3 4812.2 5006.2 4821.7 5009.3 4812.2 5017.4 4806.3 5009.3 4800.5 5019.3 4800.5 5016.2 4790.9 5019.3 4781.4 5016.2 4790.9 5008.1 4785.1 5016.2 4790.9 5019.3 4800.5 5009.3 4800.5 5001.2 4806.3 4998.1 4796.8 4990 4802.7 4987 4812.2 4995 4806.3 4985 4806.3 4982 4796.8 4992 4796.8 4983.9 4802.7 4992 4808.6 5e3 4802.7 4992 4808.6 4983.9 4814.5 4975.8 4808.6 4978.9 4799.1" clip-path="url(#a)" fill="none" stroke="#000" stroke-linecap="round"/>
<polyline points="4978.9 4799.1 4968.9 4799.1 4972 4808.6 4968.9 4818.1 4977 4824 4985 4818.1 4982 4808.6 4990 4814.5 5e3 4814.5 4992 4808.6 4995 4799.1 4987 4804.9 4978.9 4810.8 4968.9 4810.8 4965.8 4801.3 4968.9 4791.8 4958.9 4791.8 4950.8 4785.9 4947.7 4776.4 4937.7 4776.4 4929.6 4770.5 4926.5 4780 4934.6 4785.9 4931.5 4795.4 4928.4 4785.9 4918.4 4785.9 4910.3 4791.8 4900.3 4791.8 4890.3 4791.8 4887.2 4782.3 4879.1 4776.4 4871.1 4782.3 4868 4772.8 4858 4772.8 4848 4772.8 4844.9 4763.3 4841.8 4772.8 4831.8 4772.8 4821.8 4772.8 4831.8 4772.8 4823.7 4778.7 4831.8 4772.8 4823.7 4766.9" clip-path="url(#a)" fill="none" stroke="#000" stroke-linecap="round"/>
<polyline points="4823.7 4766.9 4831.8 4761 4834.9 4751.5 4838 4742 4829.9 4736.1 4833 4745.6 4823 4745.6 4826.1 4755.1 4829.1 4745.6 4837.2 4739.8 4845.3 4745.6 4853.4 4739.8 4845.3 4733.9 4842.2 4743.4 4850.3 4749.3 4860.3 4749.3 4850.3 4749.3 4860.3 4749.3 4852.2 4743.4 4860.3 4737.5 4863.4 4747 4866.5 4756.5 4874.6 4750.7 4877.7 4741.1 4887.7 4741.1 4897.7 4741.1 4900.8 4731.6 4897.7 4722.1 4887.7 4722.1 4877.7 4722.1 4869.6 4728 4879.6 4728 4887.7 4722.1 4879.6 4716.2 4882.7 4725.8 4892.7 4725.8 4889.6 4735.3 4892.7 4725.8 4895.8 4735.3 4903.9 4741.1 4900.8 4750.7 4910.8 4750.7 4907.7 4760.2" clip-path="url(#a)" fill="none" stroke="#000" stroke-linecap="round"/>
<polyline points="4907.7 4760.2 4915.8 4754.3 4907.7 4760.2 4915.8 4754.3 4923.9 4760.2 4927 4750.7 4930 4741.1 4920 4741.1 4917 4731.6 4925 4725.8 4922 4735.3 4913.9 4741.1 4917 4750.7 4913.9 4741.1 4923.9 4741.1 4932 4747 4923.9 4741.1 4915.8 4735.3 4923.9 4741.1 4927 4731.6 4930 4722.1 4933.1 4712.6 4923.1 4712.6 4933.1 4712.6 4930 4703.1 4922 4709 4930 4703.1 4927 4712.6 4917 4712.6 4908.9 4706.7 4900.8 4700.9 4903.9 4710.4 4900.8 4700.9 4903.9 4691.3 4893.9 4691.3 4902 4685.5 4893.9 4679.6 4890.8 4670.1 4893.9 4679.6 4883.9 4679.6 4893.9 4679.6 4902 4685.5 4893.9 4691.3" clip-path="url(#a)" fill="none" stroke="#000" stroke-linecap="round"/>
<polyline points="4893.9 4691.3 4890.8 4700.9 4882.7 4695 4879.6 4704.5 4882.7 4714 4885.8 4704.5 4877.7 4710.4 4869.6 4704.5 4877.7 4698.6 4874.6 4708.1 4884.6 4708.1 4887.7 4698.6 4884.6 4708.1 4881.5 4717.6 4871.5 4717.6 4868.4 4708.1 4860.3 4714 4868.4 4719.9 4871.5 4729.4 4881.5 4729.4 4884.6 4719.9 4876.5 4714 4886.5 4714 4894.6 4708.1 4884.6 4708.1 4881.5 4698.6 4878.4 4708.1 4875.3 4717.6 4867.2 4723.5 4859.1 4717.6 4856.1 4708.1 4848 4714 4838 4714 4829.9 4708.1 4821.8 4714 4811.8 4714 4814.9 4723.5 4824.9 4723.5 4828 4733 4819.9 4727.1 4811.8 4733 4808.7 4742.5 4800.6 4748.4" clip-path="url(#a)" fill="none" stroke="#000" stroke-linecap="round"/>
<polyline points="4800.6 4748.4 4792.5 4754.3 4784.4 4748.4 4774.4 4748.4 4771.3 4757.9 4763.2 4752 4755.2 4757.9 4747.1 4763.8 4739 4757.9 4742.1 4767.4 4734 4773.3 4725.9 4779.2 4734 4773.3 4730.9 4782.8 4734 4773.3 4724 4773.3 4727.1 4763.8 4724 4754.3 4720.9 4744.8 4710.9 4744.8 4719 4750.7 4710.9 4756.5 4719 4762.4 4715.9 4752.9 4719 4743.4 4729 4743.4 4732.1 4733.9 4722.1 4733.9 4725.2 4743.4 4735.2 4743.4 4743.2 4737.5 4735.2 4743.4 4743.2 4737.5 4733.2 4737.5 4736.3 4728 4744.4 4733.9 4752.5 4739.8 4755.6 4730.2 4752.5 4720.7 4760.6 4714.9 4768.7 4709 4765.6 4699.5 4757.5 4693.6" clip-path="url(#a)" fill="none" stroke="#000" stroke-linecap="round"/>
<polyline points="4757.5 4693.6 4749.4 4699.5 4741.3 4705.3 4738.2 4714.9 4746.3 4709 4749.4 4699.5 4739.4 4699.5 4747.5 4705.3 4755.6 4699.5 4758.7 4709 4755.6 4699.5 4763.7 4705.3 4773.7 4705.3 4776.8 4714.9 4784.9 4709 4788 4718.5 4791.1 4709 4788 4718.5 4791.1 4709 4801.1 4709 4798 4699.5 4794.9 4690 4786.8 4695.8 4778.7 4690 4781.8 4680.4 4784.9 4690 4781.8 4699.5 4789.9 4705.3 4781.8 4699.5 4789.9 4693.6 4799.9 4693.6 4789.9 4693.6 4779.9 4693.6 4789.9 4693.6 4786.8 4684.1 4783.7 4674.6 4780.6 4665.1 4772.5 4670.9 4780.6 4665.1 4772.5 4659.2 4769.4 4668.7 4772.5 4659.2 4775.6 4668.7" clip-path="url(#a)" fill="none" stroke="#000" stroke-linecap="round"/>
<polyline points="4775.6 4668.7 4767.5 4674.6 4757.5 4674.6 4747.5 4674.6 4755.6 4680.4 4747.5 4674.6 4744.4 4665.1 4736.3 4670.9 4739.4 4661.4 4729.4 4661.4 4721.3 4655.5 4729.4 4661.4 4721.3 4667.3 4729.4 4661.4 4739.4 4661.4 4736.3 4670.9 4739.4 4680.4 4729.4 4680.4 4732.5 4690 4740.6 4695.8 4737.5 4686.3 4734.4 4695.8 4724.4 4695.8 4727.5 4686.3 4730.6 4695.8 4738.7 4690 4735.6 4680.4 4738.7 4690 4741.8 4699.5 4733.7 4705.3 4725.6 4699.5 4722.5 4709 4732.5 4709 4740.6 4714.9 4748.7 4709 4745.6 4699.5 4735.6 4699.5 4743.7 4693.6 4746.8 4684.1 4738.7 4690 4730.6 4684.1 4733.7 4693.6 4736.8 4703.1" clip-path="url(#a)" fill="none" stroke="#000" stroke-linecap="round"/>
<polyline points="4736.8 4703.1 4733.7 4712.6 4723.7 4712.6 4715.6 4706.7 4712.5 4716.2 4704.4 4722.1 4694.4 4722.1 4691.3 4731.6 4683.2 4737.5 4691.3 4743.4 4699.4 4737.5 4707.5 4743.4 4697.5 4743.4 4694.4 4752.9 4697.5 4762.4 4694.4 4771.9 4691.3 4781.4 4681.3 4781.4 4673.2 4787.3 4676.3 4796.8 4666.3 4796.8 4663.2 4806.3 4660.2 4815.8 4650.2 4815.8 4658.2 4821.7 4655.2 4831.2 4652.1 4840.7 4655.2 4831.2 4658.2 4840.7 4655.2 4831.2 4647.1 4837.1 4644 4827.6 4635.9 4821.7 4627.8 4815.8 4619.7 4821.7 4629.7 4821.7 4626.6 4831.2 4636.6 4831.2 4628.5 4825.3 4625.4 4815.8 4633.5 4810 4630.4 4800.5 4622.3 4806.3" clip-path="url(#a)" fill="none" stroke="#000" stroke-linecap="round"/>
<polyline points="4622.3 4806.3 4630.4 4812.2 4638.5 4806.3 4641.6 4796.8 4638.5 4806.3 4641.6 4796.8 4633.5 4802.7 4630.4 4793.2 4640.4 4793.2 4650.4 4793.2 4647.3 4783.7 4639.3 4777.8 4642.3 4768.3 4645.4 4758.8 4637.3 4752.9 4627.3 4752.9 4624.3 4762.4 4621.2 4771.9 4624.3 4781.4 4627.3 4771.9 4624.3 4762.4 4616.2 4768.3 4626.2 4768.3 4629.3 4758.8 4637.3 4764.7 4629.3 4758.8 4639.3 4758.8 4647.3 4752.9 4655.4 4758.8 4658.5 4749.3 4666.6 4755.1 4663.5 4745.6 4666.6 4755.1 4663.5 4745.6 4671.6 4739.8 4663.5 4733.9 4655.4 4728 4652.3 4737.5 4642.3 4737.5 4639.3 4728 4647.3 4733.9 4650.4 4743.4 4660.4 4743.4" clip-path="url(#a)" fill="none" stroke="#000" stroke-linecap="round"/>
<polyline points="4660.4 4743.4 4650.4 4743.4 4653.5 4733.9 4661.6 4728 4653.5 4733.9 4645.4 4739.8 4653.5 4733.9 4645.4 4728 4637.3 4722.1 4629.3 4716.2 4626.2 4725.8 4629.3 4716.2 4619.3 4716.2 4622.3 4725.8 4619.3 4716.2 4627.3 4722.1 4624.3 4731.6 4616.2 4737.5 4608.1 4743.4 4618.1 4743.4 4608.1 4743.4 4600 4737.5 4596.9 4747 4593.8 4737.5 4585.7 4743.4 4575.7 4743.4 4585.7 4743.4 4582.6 4752.9 4585.7 4743.4 4593.8 4737.5 4596.9 4747 4605 4752.9 4596.9 4758.8 4605 4764.7 4615 4764.7 4606.9 4758.8 4610 4768.3 4601.9 4774.2 4598.8 4764.7 4606.9 4770.5 4610 4761 4601.9 4755.1 4610 4761" clip-path="url(#a)" fill="none" stroke="#000" stroke-linecap="round"/>
<polyline points="4610 4761 4618.1 4766.9 4615 4776.4 4605 4776.4 4608.1 4785.9 4616.2 4780 4626.2 4780 4629.3 4770.5 4621.2 4764.7 4613.1 4770.5 4616.2 4761 4613.1 4751.5 4610 4761 4600 4761 4608.1 4766.9 4616.2 4772.8 4619.3 4782.3 4611.2 4788.2 4601.2 4788.2 4604.3 4797.7 4601.2 4807.2 4593.1 4813.1 4596.2 4822.6 4593.1 4832.1 4603.1 4832.1 4606.2 4822.6 4616.2 4822.6 4608.1 4828.5 4611.2 4838 4619.3 4843.8 4622.3 4853.4 4625.4 4862.9 4617.3 4868.7 4614.3 4878.3 4622.3 4884.1 4614.3 4890 4617.3 4899.5 4620.4 4909 4612.3 4914.9 4622.3 4914.9 4625.4 4924.4 4628.5 4933.9 4625.4 4924.4" clip-path="url(#a)" fill="none" stroke="#000" stroke-linecap="round"/>
<polyline points="4625.4 4924.4 4633.5 4930.3 4625.4 4924.4 4622.3 4933.9 4614.3 4928 4604.3 4928 4594.3 4928 4591.2 4937.6 4599.3 4931.7 4602.3 4941.2 4610.4 4935.3 4600.4 4935.3 4592.3 4929.4 4595.4 4919.9 4587.3 4914 4584.3 4923.6 4594.3 4923.6 4597.3 4914 4594.3 4904.5 4597.3 4914 4594.3 4904.5 4591.2 4914 4583.1 4908.2 4591.2 4902.3 4599.3 4896.4 4591.2 4890.5 4581.2 4890.5 4578.1 4881 4575 4871.5 4565 4871.5 4556.9 4877.4 4560 4886.9 4563.1 4896.4 4571.2 4902.3 4568.1 4892.8 4560 4886.9 4556.9 4896.4 4565 4890.5 4561.9 4881 4571.9 4881 4561.9 4881 4570 4875.1 4573.1 4865.6" clip-path="url(#a)" fill="none" stroke="#000" stroke-linecap="round"/>
<polyline points="4573.1 4865.6 4583.1 4865.6 4580 4856.1 4590 4856.1 4581.9 4850.2 4590 4856.1 4581.9 4850.2 4585 4840.7 4575 4840.7 4565 4840.7 4568.1 4850.2 4560 4856.1 4551.9 4850.2 4561.9 4850.2 4570 4856.1 4578.1 4850.2 4570 4856.1 4566.9 4846.6 4570 4837.1 4566.9 4846.6 4563.8 4856.1 4566.9 4846.6 4556.9 4846.6 4546.9 4846.6 4536.9 4846.6 4540 4856.1 4536.9 4846.6 4528.8 4852.5 4536.9 4858.4 4528.8 4852.5 4538.8 4852.5 4541.9 4862 4538.8 4871.5 4535.7 4881 4543.8 4875.1 4535.7 4881 4525.7 4881 4528.8 4890.5 4520.7 4884.7 4517.6 4894.2 4509.5 4900 4517.6 4894.2 4520.7 4903.7" clip-path="url(#a)" fill="none" stroke="#000" stroke-linecap="round"/>
<polyline points="4520.7 4903.7 4517.6 4894.2 4520.7 4884.7 4528.8 4890.5 4538.8 4890.5 4535.7 4900 4545.7 4900 4553.8 4894.2 4543.8 4894.2 4551.9 4900 4548.8 4909.6 4540.7 4903.7 4550.7 4903.7 4547.6 4894.2 4537.6 4894.2 4547.6 4894.2 4557.6 4894.2 4560.7 4903.7 4552.6 4909.6 4560.7 4915.4 4563.8 4905.9 4571.9 4900 4568.8 4890.5 4558.8 4890.5 4555.7 4900 4552.6 4890.5 4544.5 4884.7 4547.6 4894.2 4539.5 4900 4549.5 4900 4559.5 4900 4567.6 4905.9 4564.5 4915.4 4556.4 4921.3 4564.5 4927.2 4567.6 4936.7 4564.5 4946.2 4572.6 4952.1 4575.7 4961.6 4583.8 4955.7 4580.7 4946.2 4588.8 4940.3 4585.7 4949.8" clip-path="url(#a)" fill="none" stroke="#000" stroke-linecap="round"/>
<polyline points="4585.7 4949.8 4593.8 4955.7 4603.8 4955.7 4611.9 4961.6 4620 4967.5 4616.9 4977 4620 4986.5 4630 4986.5 4626.9 4996 4635 5001.9 4643.1 5007.8 4640 5017.3 4648.1 5011.4 4656.2 5017.3 4664.3 5023.2 4656.2 5017.3 4666.2 5017.3 4656.2 5017.3 4659.3 5026.8 4649.3 5026.8 4641.2 5032.7 4633.1 5038.5 4636.2 5048.1 4639.3 5038.5 4647.3 5044.4 4650.4 5034.9 4642.3 5040.8 4632.3 5040.8 4629.3 5031.3 4619.3 5031.3 4622.3 5040.8 4630.4 5034.9 4627.3 5025.4 4619.3 5019.5 4627.3 5025.4 4619.3 5019.5 4622.3 5029 4612.3 5029 4615.4 5019.5 4618.5 5010 4608.5 5010 4600.4 5015.9 4592.3 5010" clip-path="url(#a)" fill="none" stroke="#000" stroke-linecap="round"/>
<polyline points="4592.3 5010 4584.3 5004.1 4576.2 5010 4573.1 5019.5 4581.2 5025.4 4589.3 5031.3 4599.3 5031.3 4591.2 5025.4 4581.2 5025.4 4584.3 5034.9 4587.3 5025.4 4579.3 5019.5 4587.3 5013.6 4579.3 5019.5 4582.3 5010 4579.3 5000.5 4587.3 4994.6 4579.3 4988.7 4587.3 4982.9 4577.3 4982.9 4587.3 4982.9 4577.3 4982.9 4574.3 4973.4 4566.2 4979.2 4558.1 4985.1 4566.2 4991 4563.1 5000.5 4553.1 5000.5 4561.2 4994.6 4571.2 4994.6 4574.3 4985.1 4571.2 4994.6 4563.1 4988.7 4560 4979.2 4563.1 4988.7 4566.2 4998.3 4563.1 4988.7 4555 4994.6 4546.9 5000.5 4538.8 5006.4 4546.9 5012.3 4538.8 5006.4 4535.7 5015.9" clip-path="url(#a)" fill="none" stroke="#000" stroke-linecap="round"/>
<polyline points="4535.7 5015.9 4545.7 5015.9 4535.7 5015.9 4543.8 5010 4551.9 5015.9 4555 5025.4 4558.1 5034.9 4561.2 5025.4 4558.1 5034.9 4550 5040.8 4558.1 5046.7 4548.1 5046.7 4551.2 5056.2 4548.1 5065.7 4551.2 5056.2 4559.3 5062.1 4551.2 5056.2 4548.1 5046.7 4558.1 5046.7 4566.2 5040.8 4569.3 5050.3 4577.3 5044.4 4580.4 5034.9 4572.3 5040.8 4582.3 5040.8 4585.4 5050.3 4575.4 5050.3 4583.5 5044.4 4575.4 5038.5 4567.3 5044.4 4575.4 5038.5 4583.5 5032.7 4591.6 5038.5 4588.5 5048.1 4598.5 5048.1 4595.4 5038.5 4598.5 5029 4590.4 5023.2 4582.3 5029 4585.4 5038.5 4577.3 5032.7 4567.3 5032.7 4575.4 5038.5" clip-path="url(#a)" fill="none" stroke="#000" stroke-linecap="round"/>
<polyline points="4575.4 5038.5 4572.3 5048.1 4580.4 5042.2 4588.5 5036.3 4598.5 5036.3 4601.6 5045.8 4598.5 5055.3 4608.5 5055.3 4616.6 5061.2 4619.7 5070.7 4629.7 5070.7 4637.8 5076.6 4640.9 5067.1 4632.8 5061.2 4635.9 5051.7 4639 5061.2 4649 5061.2 4657.1 5055.3 4667.1 5055.3 4677.1 5055.3 4680.2 5064.8 4688.2 5070.7 4696.3 5064.8 4699.4 5074.3 4709.4 5074.3 4719.4 5074.3 4722.5 5083.8 4725.6 5074.3 4735.6 5074.3 4745.6 5074.3 4735.6 5074.3 4743.7 5068.5 4735.6 5074.3 4743.7 5080.2 4735.6 5086.1 4732.5 5095.6 4729.4 5105.1 4737.5 5111 4734.4 5101.5 4744.4 5101.5 4741.3 5092 4738.2 5101.5 4730.2 5107.4" clip-path="url(#a)" fill="none" stroke="#000" stroke-linecap="round"/>
<polyline points="4730.2 5107.4 4722.1 5101.5 4714 5107.4 4722.1 5113.2 4725.2 5103.7 4717.1 5097.9 4707.1 5097.9 4717.1 5097.9 4707.1 5097.9 4715.2 5103.7 4707.1 5109.6 4704 5100.1 4700.9 5090.6 4692.8 5096.5 4689.7 5106 4679.7 5106 4669.7 5106 4666.6 5115.5 4669.7 5125 4679.7 5125 4689.7 5125 4697.8 5119.1 4687.8 5119.1 4679.7 5125 4687.8 5130.9 4684.7 5121.4 4674.7 5121.4 4677.8 5111.9 4674.7 5121.4 4671.6 5111.9 4663.5 5106 4666.6 5096.5 4656.6 5096.5 4659.7 5087 4651.6 5092.8 4659.7 5087 4651.6 5092.8 4643.5 5087 4640.4 5096.5 4637.3 5106 4647.3 5106 4650.4 5115.5 4642.3 5121.4" clip-path="url(#a)" fill="none" stroke="#000" stroke-linecap="round"/>
<polyline points="4642.3 5121.4 4645.4 5111.9 4653.5 5106 4650.4 5096.5 4653.5 5106 4643.5 5106 4635.4 5100.1 4643.5 5106 4651.6 5111.9 4643.5 5106 4640.4 5115.5 4637.3 5125 4634.3 5134.5 4644.3 5134.5 4634.3 5134.5 4637.3 5144 4645.4 5138.1 4637.3 5144 4640.4 5134.5 4650.4 5134.5 4658.5 5140.4 4666.6 5146.3 4663.5 5136.8 4666.6 5146.3 4663.5 5155.8 4673.5 5155.8 4665.4 5161.6 4673.5 5167.5 4676.6 5177 4673.5 5167.5 4683.5 5167.5 4673.5 5167.5 4665.4 5161.6 4673.5 5155.8 4676.6 5146.3 4684.7 5152.1 4687.8 5142.6 4684.7 5133.1 4681.6 5142.6 4689.7 5136.8 4697.8 5142.6 4689.7 5148.5 4692.8 5139" clip-path="url(#a)" fill="none" stroke="#000" stroke-linecap="round"/>
<polyline points="4692.8 5139 4682.8 5139 4679.7 5148.5 4682.8 5139 4685.9 5129.5 4695.9 5129.5 4699 5139 4707.1 5133.1 4699 5127.2 4695.9 5117.7 4685.9 5117.7 4682.8 5127.2 4690.9 5133.1 4680.9 5133.1 4672.8 5139 4682.8 5139 4685.9 5148.5 4689 5139 4692.1 5129.5 4700.2 5123.6 4708.2 5129.5 4711.3 5139 4719.4 5133.1 4729.4 5133.1 4737.5 5139 4745.6 5133.1 4755.6 5133.1 4752.5 5123.6 4742.5 5123.6 4739.4 5114.1 4747.5 5120 4755.6 5114.1 4758.7 5104.6 4766.8 5098.7 4774.9 5092.8 4783 5098.7 4793 5098.7 4796.1 5089.2 4804.1 5095.1 4812.2 5089.2 4820.3 5083.3 4828.4 5089.2 4825.3 5079.7" clip-path="url(#a)" fill="none" stroke="#000" stroke-linecap="round"/>
<polyline points="4825.3 5079.7 4833.4 5073.8 4841.5 5067.9 4833.4 5073.8 4836.5 5064.3 4833.4 5073.8 4843.4 5073.8 4840.3 5083.3 4843.4 5092.8 4846.5 5102.3 4856.5 5102.3 4848.4 5096.5 4856.5 5090.6 4848.4 5084.7 4851.5 5094.2 4848.4 5103.7 4838.4 5103.7 4835.3 5113.2 4845.3 5113.2 4842.2 5103.7 4832.2 5103.7 4824.1 5109.6 4832.2 5103.7 4824.1 5109.6 4834.1 5109.6 4831.1 5119.1 4823 5113.2 4814.9 5107.4 4811.8 5116.9 4814.9 5126.4 4806.8 5132.3 4798.7 5138.1 4801.8 5147.6 4809.9 5153.5 4818 5147.6 4826.1 5141.8 4829.1 5132.3 4821.1 5138.1 4818 5147.6 4828 5147.6 4819.9 5141.8 4811.8 5147.6 4808.7 5138.1" clip-path="url(#a)" fill="none" stroke="#000" stroke-linecap="round"/>
<polyline points="4808.7 5138.1 4811.8 5147.6 4803.7 5141.8 4793.7 5141.8 4790.6 5132.3 4782.5 5138.1 4779.4 5128.6 4776.3 5138.1 4779.4 5128.6 4776.3 5138.1 4766.3 5138.1 4769.4 5147.6 4772.5 5157.2 4780.6 5151.3 4788.7 5157.2 4785.6 5166.7 4782.5 5157.2 4785.6 5147.6 4777.5 5141.8 4785.6 5147.6 4777.5 5153.5 4767.5 5153.5 4777.5 5153.5 4787.5 5153.5 4777.5 5153.5 4780.6 5163 4783.7 5172.5 4786.8 5182.1 4794.9 5176.2 4786.8 5182.1 4794.9 5187.9 4798 5178.4 4794.9 5187.9 4791.8 5178.4 4799.9 5172.5 4809.9 5172.5 4819.9 5172.5 4811.8 5166.7 4819.9 5172.5 4823 5182.1 4831.1 5176.2 4828 5185.7 4838 5185.7" clip-path="url(#a)" fill="none" stroke="#000" stroke-linecap="round"/>
<polyline points="4838 5185.7 4846.1 5191.6 4838 5185.7 4846.1 5179.8 4838 5185.7 4828 5185.7 4831.1 5176.2 4828 5166.7 4838 5166.7 4834.9 5157.2 4826.8 5151.3 4829.9 5160.8 4833 5151.3 4843 5151.3 4839.9 5160.8 4836.8 5151.3 4828.7 5157.2 4831.8 5166.7 4828.7 5157.2 4825.6 5147.6 4833.7 5141.8 4841.8 5147.6 4844.9 5138.1 4834.9 5138.1 4826.8 5132.3 4818.7 5138.1 4821.8 5147.6 4831.8 5147.6 4823.7 5153.5 4820.6 5163 4828.7 5157.2 4836.8 5163 4833.7 5153.5 4830.6 5144 4833.7 5134.5 4843.7 5134.5 4851.8 5140.4 4854.9 5130.9 4863 5125 4873 5125 4876.1 5115.5 4884.1 5109.6 4876.1 5103.7" clip-path="url(#a)" fill="none" stroke="#000" stroke-linecap="round"/>
<polyline points="4876.1 5103.7 4868 5109.6 4859.9 5103.7 4869.9 5103.7 4873 5094.2 4869.9 5084.7 4873 5075.2 4876.1 5065.7 4886.1 5065.7 4894.1 5059.8 4891.1 5050.3 4901.1 5050.3 4904.1 5040.8 4907.2 5031.3 4917.2 5031.3 4909.1 5025.4 4912.2 5015.9 4915.3 5006.4 4912.2 5015.9 4909.1 5006.4 4912.2 5015.9 4920.3 5010 4923.4 5019.5 4931.5 5025.4 4939.6 5031.3 4947.7 5025.4 4937.7 5025.4 4940.8 5015.9 4930.8 5015.9 4938.9 5021.8 4942 5031.3 4933.9 5037.2 4937 5046.7 4945 5040.8 4937 5034.9 4928.9 5040.8 4925.8 5050.3 4928.9 5040.8 4925.8 5050.3 4933.9 5044.4 4937 5053.9 4927 5053.9 4917 5053.9" clip-path="url(#a)" fill="none" stroke="#000" stroke-linecap="round"/>
<polyline points="4917 5053.9 4920 5063.4 4928.1 5069.3 4925 5078.8 4922 5088.3 4930 5094.2 4940 5094.2 4943.1 5084.7 4946.2 5075.2 4943.1 5065.7 4940 5075.2 4943.1 5084.7 4951.2 5078.8 4941.2 5078.8 4938.1 5088.3 4930 5082.5 4938.1 5088.3 4928.1 5088.3 4920 5094.2 4912 5088.3 4908.9 5097.9 4900.8 5092 4903.9 5101.5 4900.8 5092 4903.9 5101.5 4895.8 5107.4 4903.9 5113.2 4912 5119.1 4915 5109.6 4925 5109.6 4928.1 5119.1 4920 5113.2 4917 5103.7 4907 5103.7 4917 5103.7 4913.9 5113.2 4905.8 5119.1 4913.9 5113.2 4922 5107.4 4913.9 5113.2 4922 5119.1 4930 5125 4938.1 5130.9" clip-path="url(#a)" fill="none" stroke="#000" stroke-linecap="round"/>
<polyline points="4938.1 5130.9 4941.2 5121.4 4938.1 5130.9 4948.1 5130.9 4945 5121.4 4948.1 5130.9 4940 5125 4943.1 5115.5 4951.2 5109.6 4959.3 5103.7 4949.3 5103.7 4959.3 5103.7 4967.4 5109.6 4970.5 5100.1 4973.6 5109.6 4981.7 5103.7 4991.7 5103.7 4981.7 5103.7 4984.8 5094.2 4981.7 5103.7 4973.6 5109.6 4970.5 5100.1 4962.4 5094.2 4970.5 5088.3 4962.4 5082.5 4952.4 5082.5 4960.5 5088.3 4957.4 5078.8 4965.5 5073 4968.6 5082.5 4960.5 5076.6 4957.4 5086.1 4965.5 5092 4957.4 5086.1 4949.3 5080.2 4952.4 5070.7 4962.4 5070.7 4959.3 5061.2 4951.2 5067.1 4941.2 5067.1 4938.1 5076.6 4946.2 5082.5 4954.3 5076.6" clip-path="url(#a)" fill="none" stroke="#000" stroke-linecap="round"/>
<polyline points="4954.3 5076.6 4951.2 5086.1 4954.3 5095.6 4957.4 5086.1 4967.4 5086.1 4959.3 5080.2 4951.2 5074.3 4948.1 5064.8 4956.2 5059 4966.2 5059 4963.1 5049.4 4966.2 5039.9 4974.3 5034.1 4971.2 5024.5 4974.3 5015 4964.3 5015 4961.2 5024.5 4951.2 5024.5 4959.3 5018.7 4956.2 5009.2 4948.1 5003.3 4945 4993.8 4942 4984.3 4950 4978.4 4953.1 4968.9 4945 4963 4953.1 4957.1 4950 4947.6 4947 4938.1 4955 4932.2 4945 4932.2 4942 4922.7 4938.9 4913.2 4942 4922.7 4933.9 4916.8 4942 4922.7 4945 4913.2 4953.1 4919.1 4963.1 4919.1 4973.1 4919.1 4976.2 4909.6 4968.1 4915.4 4965 4905.9" clip-path="url(#a)" fill="none" stroke="#000" stroke-linecap="round"/>
<polyline points="4965 4905.9 4957 4911.8 4967 4911.8 4975 4917.7 4972 4927.2 4980 4933.1 4983.1 4923.6 4973.1 4923.6 4970 4933.1 4973.1 4942.6 4970 4933.1 4973.1 4942.6 4976.2 4933.1 4984.3 4938.9 4976.2 4944.8 4968.1 4950.7 4976.2 4956.6 4986.2 4956.6 4989.3 4966.1 4992.4 4975.6 5002.4 4975.6 5010.5 4969.7 5007.4 4960.2 5004.3 4950.7 4996.2 4944.8 4999.3 4954.3 5007.4 4960.2 5010.5 4950.7 5002.4 4956.6 5005.5 4966.1 4995.5 4966.1 5005.5 4966.1 4997.4 4972 4994.3 4981.5 4984.3 4981.5 4987.4 4991 4977.4 4991 4985.5 4996.9 4977.4 4991 4985.5 4996.9 4982.4 5006.4 4992.4 5006.4 5002.4 5006.4" clip-path="url(#a)" fill="none" stroke="#000" stroke-linecap="round"/>
<polyline points="5002.4 5006.4 4999.3 4996.9 5007.4 4991 5015.5 4996.9 5005.5 4996.9 4997.4 4991 4989.3 4996.9 4997.4 4991 5000.5 5000.5 4997.4 5010 5000.5 5000.5 5003.6 4991 5000.5 5000.5" clip-path="url(#a)" fill="none" stroke="#000" stroke-linecap="round"/>
</svg>
