<?xml version="1.0" encoding="utf-8" ?>
<svg baseProfile="full" height="10000px" version="1.1" width="10000px" xmlns="http://www.w3.org/2000/svg" xmlns:ev="http://www.w3.org/2001/xml-events" xmlns:xlink="http://www.w3.org/1999/xlink"><defs><clipPath id="border_clip"><rect height="10000" width="10000" x="0" y="0" /></clipPath></defs><polyline clip-path="url(#border_clip)" fill="none" points="5000.5,5000.5 5010.5,5000.5 5020.5,5000.5 5017.409830056251,4990.989434837048 5014.319660112501,5000.5 5022.409830056251,4994.6221474770755 5030.5,5000.5 5038.590169943749,4994.6221474770755 5041.680339887499,5004.1327126400265 5038.590169943749,4994.6221474770755 5046.680339887499,4988.744294954151 5043.590169943749,4998.254860117102 5051.680339887499,5004.1327126400265 5059.770509831248,5010.010565162952 5049.770509831248,5010.010565162952 5046.680339887499,5000.5 5049.770509831248,4990.989434837048 5052.860679774998,5000.5 5049.770509831248,4990.989434837048 5052.860679774998,5000.5 5060.950849718747,5006.3778525229245 5052.860679774998,5012.25570504585 5055.950849718747,5021.766270208801 5059.041019662497,5012.25570504585 5055.950849718747,5002.745139882898 5047.860679774998,5008.6229924058225 5044.770509831248,4999.1124272428715 5047.860679774998,4989.60186207992 5037.860679774998,4989.60186207992 5029.770509831248,4995.479714602844 5021.680339887499,5001.357567125769 5029.770509831248,5007.235419648694 5026.680339887499,4997.724854485742 5023.590169943749,5007.235419648694 5013.590169943749,5007.235419648694 5010.5,5016.745984811645 5002.40983005625,5010.8681322887205 5010.5,5016.745984811645 5007.40983005625,5026.256549974597 5004.319660112501,5016.745984811645 4994.319660112501,5016.745984811645 4984.319660112501,5016.745984811645 4992.40983005625,5010.8681322887205" stroke="black" stroke-linecap="round" stroke-width="1" /><polyline clip-path="url(#border_clip)" fill="none" points="4992.40983005625,5010.8681322887205 5000.5,5016.745984811645 5003.590169943749,5026.256549974597 4995.5,5020.3786974516715 5003.590169943749,5026.256549974597 4995.5,5020.3786974516715 4985.5,5020.3786974516715 4988.590169943749,5010.8681322887205 4980.5,5004.990279765796 4983.590169943749,5014.500844928747 4991.680339887499,5020.3786974516715 4994.770509831248,5010.8681322887205 5002.860679774998,5016.745984811645 5005.950849718747,5026.256549974597 5014.041019662497,5020.378697451672 5017.131189606246,5010.8681322887205 5020.221359549996,5001.357567125769 5010.221359549996,5001.357567125769 5018.311529493745,5007.235419648694 5015.221359549996,4997.724854485742 5023.311529493745,4991.847001962818 5020.221359549996,4982.336436799866 5030.221359549996,4982.336436799866 5020.221359549996,4982.336436799866 5017.131189606246,4972.825871636915 5025.221359549996,4978.703724159839 5033.311529493745,4972.825871636915 5041.401699437495,4966.94801911399 5038.311529493745,4976.458584276941 5028.311529493745,4976.458584276941 5020.221359549996,4970.580731754017 5030.221359549996,4970.580731754017 5020.221359549996,4970.580731754017 5030.221359549996,4970.580731754017 5038.311529493745,4964.702879231092 5041.401699437495,4974.213444394043 5051.401699437495,4974.213444394043 5043.311529493745,4968.335591871119 5033.311529493745,4968.335591871119 5036.401699437495,4977.8461570340705 5026.401699437495,4977.8461570340705 5018.311529493745,4971.968304511145 5015.221359549996,4981.478869674097" stroke="black" stroke-linecap="round" stroke-width="1" /><polyline clip-path="url(#border_clip)" fill="none" points="5015.221359549996,4981.478869674097 5018.311529493745,4990.989434837048 5021.401699437495,5000.5 5029.491869381244,4994.6221474770755 5019.491869381244,4994.6221474770755 5027.582039324993,5000.5 5024.491869381244,5010.010565162952 5032.582039324993,5015.888417685876 5024.491869381244,5021.766270208801 5032.582039324993,5015.888417685876 5040.672209268743,5021.766270208801 5030.672209268743,5021.766270208801 5027.582039324993,5031.276835371753 5024.491869381243,5040.787400534704 5021.401699437494,5031.276835371753 5029.491869381244,5025.3989828488275 5039.491869381244,5025.398982848828 5031.401699437494,5031.276835371753 5039.491869381244,5025.398982848828 5031.401699437494,5031.276835371753 5028.311529493745,5040.787400534704 5020.221359549995,5034.909548011779 5012.131189606246,5040.787400534704 5022.131189606246,5040.787400534704 5030.221359549995,5034.909548011779 5022.131189606246,5029.031695488855 5030.221359549995,5023.15384296593 5040.221359549995,5023.15384296593 5037.131189606246,5013.643277802978 5029.041019662497,5007.765425280054 5020.950849718747,5001.8875727571285 5017.860679774998,5011.39813792008 5025.950849718747,5005.520285397156 5015.950849718747,5005.520285397156 5012.860679774998,4996.009720234204 5002.860679774998,4996.009720234204 5005.950849718748,4986.499155071252 5002.860679774998,4996.009720234204 4992.860679774998,4996.009720234204 5000.950849718747,4990.1318677112795 4997.860679774998,4980.621302548328 4994.770509831249,4971.110737385376 5002.860679774998,4976.988589908301" stroke="black" stroke-linecap="round" stroke-width="1" /><polyline clip-path="url(#border_clip)" fill="none" points="5002.860679774998,4976.988589908301 4999.770509831249,4986.499155071252 4991.680339887499,4992.377007594177 4994.770509831249,4982.866442431226 4991.680339887499,4992.377007594177 4994.770509831249,4982.866442431226 4991.680339887499,4973.355877268274 5001.680339887499,4973.355877268274 5004.770509831249,4963.845312105323 4996.680339887499,4969.723164628247 4993.59016994375,4979.233729791198 5003.59016994375,4979.233729791199 5000.5,4988.74429495415 4992.409830056251,4994.622147477075 5000.5,5000.5 5010.5,5000.5 5020.5,5000.5 5017.409830056251,4990.989434837048 5014.319660112501,5000.5 5022.409830056251,4994.6221474770755 5030.5,5000.5 5038.59016994375,4994.6221474770755 5041.680339887499,5004.132712640027 5038.59016994375,4994.6221474770755 5046.680339887499,4988.744294954151 5043.59016994375,4998.254860117103 5051.680339887499,5004.132712640027 5059.770509831248,5010.010565162952 5049.770509831248,5010.010565162952 5046.680339887499,5000.500000000001 5049.770509831249,4990.989434837049 5052.860679774998,5000.500000000001 5049.770509831249,4990.989434837049 5052.860679774998,5000.500000000001 5060.950849718747,5006.377852522925 5052.860679774998,5012.25570504585 5055.950849718747,5021.766270208802 5059.041019662497,5012.25570504585 5055.950849718747,5002.745139882899 5047.860679774998,5008.622992405823 5044.770509831248,4999.1124272428715 5047.860679774998,4989.6018620799205 5037.860679774998,4989.60186207992" stroke="black" stroke-linecap="round" stroke-width="1" /><polyline clip-path="url(#border_clip)" fill="none" points="5037.860679774998,4989.60186207992 5029.770509831248,4995.479714602844 5021.680339887499,5001.357567125769 5029.770509831248,5007.235419648694 5026.680339887499,4997.724854485742 5023.590169943749,5007.235419648694 5013.590169943749,5007.235419648694 5010.5,5016.745984811645 5002.40983005625,5010.8681322887205 5010.5,5016.745984811645 5007.40983005625,5026.256549974597 5004.319660112501,5016.745984811645 4994.319660112501,5016.745984811645 4984.319660112501,5016.745984811644 4992.40983005625,5010.86813228872 5000.5,5016.745984811645 5003.590169943749,5026.256549974597 4995.499999999999,5020.3786974516715 5003.590169943749,5026.256549974597 4995.499999999999,5020.3786974516715 4985.499999999999,5020.3786974516715 4988.590169943749,5010.86813228872 4980.5,5004.990279765795 4983.590169943749,5014.500844928747 4991.680339887498,5020.3786974516715 4994.770509831248,5010.86813228872 5002.860679774997,5016.745984811645 5005.950849718747,5026.256549974597 5014.041019662496,5020.378697451672 5017.131189606246,5010.8681322887205 5020.221359549996,5001.3575671257695 5010.221359549996,5001.357567125769 5018.311529493745,5007.235419648694 5015.221359549996,4997.724854485742 5023.311529493745,4991.847001962818 5020.221359549996,4982.336436799866 5030.221359549996,4982.3364367998665 5020.221359549996,4982.336436799866 5017.131189606247,4972.825871636915 5025.221359549996,4978.703724159839 5033.311529493746,4972.825871636915 5041.401699437496,4966.94801911399 5038.311529493746,4976.458584276942" stroke="black" stroke-linecap="round" stroke-width="1" /><polyline clip-path="url(#border_clip)" fill="none" points="5038.311529493746,4976.458584276942 5028.311529493746,4976.458584276941 5020.221359549996,4970.580731754017 5030.221359549996,4970.580731754017 5020.221359549996,4970.580731754017 5030.221359549996,4970.580731754017 5038.311529493746,4964.702879231092 5041.401699437495,4974.213444394044 5051.401699437495,4974.213444394044 5043.311529493746,4968.335591871119 5033.311529493746,4968.335591871119 5036.401699437495,4977.8461570340705 5026.401699437495,4977.8461570340705 5018.311529493746,4971.968304511145 5015.221359549996,4981.478869674097 5018.311529493745,4990.989434837048 5021.401699437495,5000.5 5029.491869381244,4994.6221474770755 5019.491869381244,4994.6221474770755 5027.582039324993,5000.5 5024.491869381244,5010.010565162952 5032.582039324993,5015.888417685876 5024.491869381243,5021.766270208801 5032.582039324993,5015.888417685876 5040.672209268742,5021.766270208802 5030.672209268742,5021.766270208801 5027.582039324993,5031.276835371753 5024.491869381243,5040.787400534704 5021.401699437494,5031.276835371753 5029.491869381243,5025.398982848828 5039.491869381243,5025.398982848828 5031.401699437494,5031.276835371753 5039.491869381243,5025.398982848828 5031.401699437494,5031.276835371753 5028.311529493744,5040.787400534705 5020.221359549995,5034.909548011779 5012.131189606245,5040.787400534704 5022.131189606245,5040.787400534704 5030.221359549995,5034.909548011779 5022.131189606245,5029.031695488855 5030.221359549995,5023.15384296593 5040.221359549995,5023.15384296593 5037.131189606246,5013.643277802978" stroke="black" stroke-linecap="round" stroke-width="1" /><polyline clip-path="url(#border_clip)" fill="none" points="5037.131189606246,5013.643277802978 5029.041019662497,5007.765425280054 5020.950849718747,5001.8875727571285 5017.860679774997,5011.39813792008 5025.950849718747,5005.520285397156 5015.950849718747,5005.520285397156 5012.860679774998,4996.009720234204 5002.860679774998,4996.009720234203 5005.950849718748,4986.499155071252 5002.860679774998,4996.009720234203 4992.860679774998,4996.009720234203 5000.950849718748,4990.131867711279 4997.860679774998,4980.621302548327 4994.770509831249,4971.110737385376 5002.860679774999,4976.9885899083 4999.770509831249,4986.499155071252 4991.680339887499,4992.377007594177 4994.770509831249,4982.866442431225 4991.680339887499,4992.377007594177 4994.770509831249,4982.866442431225 4991.6803398875,4973.355877268274 5001.6803398875,4973.355877268274 5004.77050983125,4963.845312105322 4996.6803398875,4969.723164628246 4993.59016994375,4979.233729791198 5003.59016994375,4979.233729791198 5000.5,4988.74429495415 4992.409830056251,4994.622147477075 5000.5,5000.499999999999 5010.5,5000.5 5020.5,5000.5 5017.409830056251,4990.989434837048 5014.319660112501,5000.5 5022.409830056251,4994.6221474770755 5030.5,5000.5 5038.59016994375,4994.6221474770755 5041.680339887499,5004.132712640027 5038.59016994375,4994.6221474770755 5046.680339887499,4988.744294954151 5043.59016994375,4998.254860117103 5051.680339887499,5004.132712640027 5059.770509831248,5010.010565162953 5049.770509831248,5010.010565162953" stroke="black" stroke-linecap="round" stroke-width="1" /><polyline clip-path="url(#border_clip)" fill="none" points="5049.770509831248,5010.010565162953 5046.680339887499,5000.500000000001 5049.770509831249,4990.989434837049 5052.860679774998,5000.500000000001 5049.770509831249,4990.989434837049 5052.860679774998,5000.500000000001 5060.950849718747,5006.377852522926 5052.860679774998,5012.255705045851 5055.950849718747,5021.766270208802 5059.041019662496,5012.255705045851 5055.950849718747,5002.745139882899 5047.860679774998,5008.622992405823 5044.770509831249,4999.1124272428715 5047.860679774998,4989.6018620799205 5037.860679774998,4989.6018620799205 5029.770509831249,4995.479714602845 5021.680339887499,5001.357567125769 5029.770509831248,5007.235419648694 5026.680339887499,4997.724854485742 5023.590169943749,5007.235419648694 5013.590169943749,5007.235419648693 5010.499999999999,5016.745984811645 5002.40983005625,5010.86813228872 5010.499999999999,5016.745984811645 5007.409830056249,5026.256549974596 5004.3196601125,5016.745984811645 4994.3196601125,5016.745984811644 4984.3196601125,5016.745984811644 4992.40983005625,5010.86813228872 5000.499999999999,5016.745984811645 5003.590169943748,5026.256549974596 4995.499999999999,5020.3786974516715 5003.590169943748,5026.256549974596 4995.499999999999,5020.3786974516715 4985.499999999999,5020.378697451671 4988.590169943749,5010.86813228872 4980.5,5004.990279765794 4983.590169943749,5014.500844928746 4991.680339887498,5020.3786974516715 4994.770509831248,5010.86813228872 5002.860679774997,5016.745984811645 5005.950849718746,5026.256549974596 5014.041019662496,5020.3786974516715" stroke="black" stroke-linecap="round" stroke-width="1" /><polyline clip-path="url(#border_clip)" fill="none" points="5014.041019662496,5020.3786974516715 5017.131189606246,5010.8681322887205 5020.221359549996,5001.357567125769 5010.221359549996,5001.357567125769 5018.311529493745,5007.235419648694 5015.221359549996,4997.724854485742 5023.311529493746,4991.847001962818 5020.221359549996,4982.336436799866 5030.221359549997,4982.3364367998665 5020.221359549996,4982.336436799866 5017.131189606247,4972.825871636914 5025.221359549997,4978.703724159839 5033.311529493746,4972.825871636915 5041.401699437496,4966.94801911399 5038.311529493746,4976.458584276942 5028.311529493746,4976.458584276941 5020.221359549997,4970.580731754017 5030.221359549997,4970.580731754017 5020.221359549997,4970.580731754017 5030.221359549997,4970.580731754017 5038.311529493747,4964.702879231092 5041.401699437496,4974.213444394044 5051.401699437496,4974.213444394044 5043.311529493747,4968.3355918711195 5033.311529493747,4968.335591871119 5036.401699437496,4977.8461570340705 5026.401699437496,4977.8461570340705 5018.311529493746,4971.968304511145 5015.221359549996,4981.478869674096 5018.311529493745,4990.989434837048 5021.401699437494,5000.5 5029.491869381244,4994.6221474770755 5019.491869381244,4994.6221474770755 5027.582039324993,5000.5 5024.491869381244,5010.010565162952 5032.582039324993,5015.888417685876 5024.491869381243,5021.766270208801 5032.582039324993,5015.888417685876 5040.672209268742,5021.766270208802 5030.672209268742,5021.766270208802 5027.582039324992,5031.276835371753 5024.491869381242,5040.787400534705 5021.401699437493,5031.276835371753" stroke="black" stroke-linecap="round" stroke-width="1" /><polyline clip-path="url(#border_clip)" fill="none" points="5021.401699437493,5031.276835371753 5029.491869381243,5025.398982848828 5039.491869381243,5025.398982848828 5031.401699437493,5031.276835371753 5039.491869381243,5025.398982848828 5031.401699437493,5031.276835371753 5028.311529493743,5040.787400534705 5020.221359549994,5034.909548011779 5012.131189606244,5040.787400534704 5022.131189606244,5040.787400534704 5030.221359549994,5034.90954801178 5022.131189606245,5029.031695488855 5030.221359549995,5023.15384296593 5040.221359549995,5023.153842965931 5037.131189606246,5013.643277802979 5029.041019662496,5007.765425280054 5020.950849718747,5001.8875727571285 5017.860679774997,5011.39813792008 5025.950849718747,5005.520285397156 5015.950849718747,5005.520285397155 5012.860679774998,4996.009720234204 5002.860679774998,4996.009720234203 5005.950849718748,4986.499155071252 5002.860679774998,4996.009720234203 4992.860679774998,4996.009720234203 5000.950849718748,4990.131867711279 4997.860679774999,4980.621302548327 4994.77050983125,4971.110737385375 5002.860679774999,4976.9885899083 4999.770509831249,4986.499155071251 4991.680339887499,4992.377007594176 4994.770509831249,4982.866442431225 4991.680339887499,4992.377007594176 4994.770509831249,4982.866442431225 4991.6803398875,4973.355877268273 5001.6803398875,4973.355877268273 5004.77050983125,4963.845312105322 4996.6803398875,4969.723164628246 4993.59016994375,4979.233729791197 5003.59016994375,4979.233729791198 5000.5,4988.744294954149 4992.409830056251,4994.622147477074 5000.5,5000.499999999999" stroke="black" stroke-linecap="round" stroke-width="1" /><polyline clip-path="url(#border_clip)" fill="none" points="5000.5,5000.499999999999 5010.5,5000.499999999999 5020.5,5000.5 5017.409830056251,4990.989434837048 5014.319660112501,5000.5 5022.409830056251,4994.6221474770755 5030.5,5000.500000000001 5038.59016994375,4994.622147477076 5041.680339887499,5004.132712640027 5038.59016994375,4994.622147477076 5046.6803398875,4988.744294954152 5043.59016994375,4998.254860117103 5051.680339887499,5004.132712640028 5059.770509831248,5010.010565162954 5049.770509831248,5010.010565162953 5046.680339887499,5000.500000000001 5049.770509831249,4990.98943483705 5052.860679774998,5000.500000000002 5049.770509831249,4990.98943483705 5052.860679774998,5000.500000000002 5060.950849718747,5006.377852522927 5052.860679774997,5012.255705045851 5055.950849718746,5021.766270208803 5059.041019662496,5012.255705045852 5055.950849718747,5002.7451398829 5047.860679774998,5008.622992405824 5044.770509831249,4999.112427242872 5047.860679774999,4989.6018620799205 5037.860679774999,4989.6018620799205 5029.770509831249,4995.479714602845 5021.680339887499,5001.357567125769 5029.770509831248,5007.235419648694 5026.680339887499,4997.724854485742 5023.590169943749,5007.235419648694 5013.590169943749,5007.235419648693 5010.499999999999,5016.745984811645 5002.40983005625,5010.86813228872 5010.499999999999,5016.745984811645 5007.409830056249,5026.256549974596 5004.3196601125,5016.745984811644 4994.3196601125,5016.745984811644 4984.3196601125,5016.745984811643 4992.40983005625,5010.868132288719" stroke="black" stroke-linecap="round" stroke-width="1" /><polyline clip-path="url(#border_clip)" fill="none" points="4992.40983005625,5010.868132288719 5000.499999999999,5016.745984811644 5003.590169943748,5026.256549974596 4995.499999999999,5020.378697451671 5003.590169943748,5026.256549974596 4995.499999999999,5020.378697451671 4985.499999999998,5020.378697451671 4988.590169943749,5010.868132288719 4980.499999999999,5004.990279765793 4983.590169943748,5014.500844928745 4991.680339887497,5020.378697451671 4994.770509831247,5010.86813228872 5002.860679774997,5016.745984811644 5005.950849718746,5026.256549974596 5014.041019662495,5020.3786974516715 5017.131189606246,5010.8681322887205 5020.221359549996,5001.357567125769 5010.221359549995,5001.357567125769 5018.311529493745,5007.235419648694 5015.221359549996,4997.724854485742 5023.311529493746,4991.847001962818 5020.221359549997,4982.336436799866 5030.221359549997,4982.3364367998665 5020.221359549997,4982.336436799866 5017.131189606248,4972.825871636914 5025.221359549997,4978.703724159839 5033.311529493747,4972.825871636915 5041.401699437497,4966.948019113991 5038.311529493747,4976.458584276942 5028.311529493747,4976.458584276941 5020.221359549998,4970.580731754017 5030.221359549998,4970.580731754017 5020.221359549998,4970.580731754017 5030.221359549998,4970.580731754017 5038.311529493748,4964.702879231092 5041.401699437496,4974.213444394044 5051.401699437496,4974.213444394045 5043.311529493747,4968.3355918711195 5033.311529493747,4968.335591871119 5036.401699437496,4977.8461570340705 5026.401699437496,4977.8461570340705 5018.311529493747,4971.968304511145 5015.221359549997,4981.478869674096" stroke="black" stroke-linecap="round" stroke-width="1" /><polyline clip-path="url(#border_clip)" fill="none" points="5015.221359549997,4981.478869674096 5018.311529493746,4990.989434837048 5021.401699437494,5000.5 5029.491869381244,4994.6221474770755 5019.491869381244,4994.6221474770755 5027.582039324993,5000.5 5024.491869381243,5010.010565162952 5032.582039324992,5015.888417685877 5024.491869381243,5021.766270208801 5032.582039324992,5015.888417685877 5040.672209268742,5021.766270208803 5030.672209268742,5021.766270208802 5027.5820393249915,5031.276835371753 5024.4918693812415,5040.787400534705 5021.401699437492,5031.276835371753 5029.491869381242,5025.398982848828 5039.491869381242,5025.398982848829 5031.401699437493,5031.276835371754 5039.491869381242,5025.398982848829 5031.401699437493,5031.276835371754 5028.3115294937425,5040.787400534705 5020.221359549993,5034.909548011779 5012.131189606243,5040.787400534704 5022.131189606243,5040.787400534705 5030.221359549993,5034.90954801178 5022.131189606244,5029.031695488855 5030.221359549994,5023.15384296593 5040.221359549994,5023.153842965931 5037.131189606245,5013.643277802979 5029.041019662496,5007.765425280054 5020.950849718747,5001.8875727571285 5017.860679774997,5011.39813792008 5025.950849718747,5005.520285397156 5015.950849718747,5005.520285397155 5012.860679774998,4996.009720234203 5002.860679774998,4996.009720234203 5005.950849718748,4986.499155071251 5002.860679774998,4996.009720234203 4992.860679774998,4996.009720234202 5000.950849718748,4990.131867711278 4997.860679774999,4980.621302548326 4994.77050983125,4971.110737385375 5002.860679774999,4976.988589908299" stroke="black" stroke-linecap="round" stroke-width="1" /><polyline clip-path="url(#border_clip)" fill="none" points="5002.860679774999,4976.988589908299 4999.770509831249,4986.499155071251 4991.680339887499,4992.377007594176 4994.770509831249,4982.866442431224 4991.680339887499,4992.377007594176 4994.770509831249,4982.866442431224 4991.680339887501,4973.355877268272 5001.680339887501,4973.355877268273 5004.770509831251,4963.845312105322 4996.680339887501,4969.723164628245 4993.590169943751,4979.233729791197 5003.590169943751,4979.233729791197 5000.500000000001,4988.744294954149 4992.409830056251,4994.622147477074 5000.5,5000.499999999998" stroke="black" stroke-linecap="round" stroke-width="1" /></svg>