<?xml version="1.0" encoding="UTF-8"?>
<svg width="1e4px" height="1e4px" baseProfile="full" version="1.1" viewBox="4849.4 4848 258.89 253.48" xmlns="http://www.w3.org/2000/svg">
<defs>
<clipPath id="a">
<rect width="1e4" height="1e4"/>
</clipPath>
</defs>
<polyline points="5000.5 5000.5 5010.5 5000.5 5020.5 5000.5 5030.5 5000.5 5027.4 4991 5024.3 5000.5 5027.4 5010 5037.4 5010 5045.5 5015.9 5035.5 5015.9 5027.4 5010 5019.3 5015.9 5011.2 5010 5008.1 5019.5 5016.2 5025.4 5008.1 5031.3 5011.2 5021.8 5003.1 5027.6 5011.2 5021.8 5019.3 5015.9 5011.2 5021.8 5008.1 5031.3 5011.2 5040.8 5008.1 5050.3 5016.2 5044.4 5008.1 5050.3 5016.2 5056.2 5019.3 5065.7 5029.3 5065.7 5021.2 5059.8 5018.1 5050.3 5010 5044.4 5013.1 5053.9 5005 5048.1 5013.1 5042.2 5005 5048.1 5002 5038.5 5010 5044.4 5002 5050.3 4992 5050.3 4983.9 5056.2 4975.8 5050.3 4967.7 5044.4" clip-path="url(#a)" fill="none" stroke="#000" stroke-linecap="round"/>
<polyline points="4967.7 5044.4 4970.8 5034.9 4980.8 5034.9 4977.7 5044.4 4987.7 5044.4 4984.6 5053.9 4992.7 5059.8 5000.8 5065.7 5010.8 5065.7 5007.7 5056.2 5015.8 5062.1 5007.7 5056.2 4997.7 5056.2 4994.6 5046.7 5004.6 5046.7 5001.5 5056.2 5004.6 5065.7 5012.7 5059.8 5004.6 5053.9 4994.6 5053.9 4984.6 5053.9 4994.6 5053.9 4997.7 5063.4 5000.8 5073 5010.8 5073 5020.8 5073 5012.7 5067.1 5020.8 5061.2 5023.9 5070.7 5015.8 5076.6 5012.7 5086.1 5015.8 5076.6 5018.9 5086.1 5015.8 5095.6 5007.7 5101.5 5010.8 5092 5007.7 5101.5 4997.7 5101.5 5000.8 5092 5003.9 5082.5 4993.9 5082.5 4983.9 5082.5 4987 5073" clip-path="url(#a)" fill="none" stroke="#000" stroke-linecap="round"/>
<polyline points="4987 5073 4983.9 5063.4 4992 5069.3 4983.9 5075.2 4987 5084.7 4995 5078.8 4987 5084.7 4997 5084.7 5005 5090.6 5002 5081.1 5010 5075.2 5018.1 5081.1 5026.2 5087 5018.1 5081.1 5021.2 5090.6 5013.1 5084.7 5005 5078.8 5013.1 5073 5005 5078.8 4997 5084.7 4988.9 5078.8 4997 5084.7 5e3 5075.2 4992 5069.3 4995 5078.8 5005 5078.8 5002 5069.3 4992 5069.3 4982 5069.3 4978.9 5059.8 4970.8 5053.9 4967.7 5044.4 4959.6 5038.5 4949.6 5038.5 4946.5 5048.1 4943.4 5038.5 4933.4 5038.5 4936.5 5029 4944.6 5023.2 4952.7 5029 4942.7 5029 4945.8 5038.5 4948.9 5029" clip-path="url(#a)" fill="none" stroke="#000" stroke-linecap="round"/>
<polyline points="4948.9 5029 4958.9 5029 4967 5023.2 4963.9 5013.6 4953.9 5013.6 4950.8 5004.1 4958.9 5010 4948.9 5010 4945.8 5000.5 4948.9 4991 4940.8 4996.9 4937.7 5006.4 4929.6 5012.3 4926.5 5002.7 4929.6 4993.2 4926.5 5002.7 4934.6 5008.6 4942.7 5002.7 4945.8 4993.2 4955.8 4993.2 4947.7 4987.4 4944.6 4996.9 4941.5 5006.4 4938.4 5015.9 4948.4 5015.9 4940.3 5010 4930.3 5010 4927.2 5019.5 4919.1 5025.4 4922.2 5015.9 4930.3 5010 4927.2 5000.5 4935.3 4994.6 4927.2 4988.7 4919.1 4994.6 4916.1 4985.1 4924.1 4991 4921.1 4981.5 4924.1 4991 4927.2 5000.5 4924.1 4991 4916.1 4985.1 4906.1 4985.1" clip-path="url(#a)" fill="none" stroke="#000" stroke-linecap="round"/>
<polyline points="4906.1 4985.1 4898 4979.2 4901.1 4988.7 4898 4979.2 4889.9 4985.1 4879.9 4985.1 4876.8 4994.6 4884.9 4988.7 4894.9 4988.7 4903 4982.9 4893 4982.9 4901.1 4977 4904.1 4986.5 4901.1 4977 4911.1 4977 4903 4982.9 4899.9 4973.4 4903 4963.8 4899.9 4954.3 4908 4948.5 4916.1 4942.6 4924.1 4948.5 4921.1 4958 4913 4952.1 4909.9 4961.6 4901.8 4955.7 4893.7 4961.6 4885.6 4967.5 4882.5 4977 4892.5 4977 4884.4 4982.9 4892.5 4977 4895.6 4967.5 4905.6 4967.5 4902.5 4977 4894.4 4971.1 4884.4 4971.1 4887.5 4980.6 4895.6 4974.7 4898.7 4965.2 4901.8 4955.7 4898.7 4965.2 4888.7 4965.2" clip-path="url(#a)" fill="none" stroke="#000" stroke-linecap="round"/>
<polyline points="4888.7 4965.2 4878.7 4965.2 4875.6 4974.7 4872.5 4984.3 4880.6 4978.4 4883.7 4987.9 4873.7 4987.9 4870.6 4978.4 4862.5 4972.5 4870.6 4978.4 4860.6 4978.4 4852.5 4972.5 4849.4 4963 4857.5 4968.9 4849.4 4963 4852.5 4953.5 4860.6 4959.4 4868.7 4965.2 4871.8 4955.7 4874.9 4946.2 4883 4952.1 4893 4952.1 4884.9 4958 4881.8 4948.5 4871.8 4948.5 4874.9 4958 4871.8 4948.5 4868.7 4958 4860.6 4963.8 4870.6 4963.8 4873.7 4973.4 4865.6 4979.2 4857.5 4985.1 4865.6 4979.2 4855.6 4979.2 4863.7 4973.4 4871.8 4967.5 4874.9 4977 4871.8 4967.5 4868.7 4958 4876.8 4952.1 4868.7 4958 4876.8 4963.8" clip-path="url(#a)" fill="none" stroke="#000" stroke-linecap="round"/>
<polyline points="4876.8 4963.8 4884.9 4958 4874.9 4958 4871.8 4967.5 4881.8 4967.5 4884.9 4958 4888 4948.5 4898 4948.5 4906.1 4942.6 4916.1 4942.6 4924.1 4936.7 4927.2 4927.2 4919.1 4921.3 4929.1 4921.3 4932.2 4911.8 4940.3 4917.7 4943.4 4927.2 4935.3 4933.1 4938.4 4923.6 4928.4 4923.6 4936.5 4929.4 4933.4 4938.9 4936.5 4948.5 4946.5 4948.5 4949.6 4938.9 4959.6 4938.9 4951.5 4944.8 4954.6 4935.3 4964.6 4935.3 4972.7 4941.2 4969.6 4931.7 4961.5 4925.8 4958.4 4916.3 4968.4 4916.3 4976.5 4922.2 4968.4 4916.3 4960.3 4922.2 4963.4 4931.7 4971.5 4937.6 4968.4 4947.1 4976.5 4941.2 4968.4 4935.3 4960.3 4929.4" clip-path="url(#a)" fill="none" stroke="#000" stroke-linecap="round"/>
<polyline points="4960.3 4929.4 4952.2 4923.6 4949.1 4933.1 4957.2 4927.2 4960.3 4917.7 4952.2 4911.8 4949.1 4902.3 4957.2 4908.2 4960.3 4917.7 4970.3 4917.7 4973.4 4927.2 4981.5 4921.3 4978.4 4911.8 4988.4 4911.8 4980.3 4917.7 4990.3 4917.7 4980.3 4917.7 4970.3 4917.7 4980.3 4917.7 4988.4 4911.8 4991.5 4902.3 4999.6 4896.4 4989.6 4896.4 4999.6 4896.4 4996.5 4886.9 4999.6 4877.4 4991.5 4871.5 4994.6 4881 4991.5 4890.5 4994.6 4900 4997.7 4890.5 5000.8 4900 4990.8 4900 5000.8 4900 4997.7 4909.6 4994.6 4900 5004.6 4900 5012.7 4905.9 5022.7 4905.9 5025.8 4915.4 5028.9 4924.9 5020.8 4930.8 5012.7 4924.9" clip-path="url(#a)" fill="none" stroke="#000" stroke-linecap="round"/>
<polyline points="5012.7 4924.9 5020.8 4919.1 5012.7 4913.2 5020.8 4907.3 5017.7 4897.8 5014.6 4888.3 5006.5 4882.4 5003.4 4891.9 5000.3 4882.4 5003.4 4891.9 5011.5 4897.8 5008.4 4907.3 5000.3 4901.4 5008.4 4895.6 5011.5 4886 5001.5 4886 5004.6 4895.6 5012.7 4901.4 5020.8 4907.3 5012.7 4901.4 5015.8 4891.9 5018.9 4882.4 5010.8 4876.5 5002.7 4870.7 5005.8 4880.2 4995.8 4880.2 4998.9 4870.7 5008.9 4870.7 5017 4864.8 5008.9 4870.7 5012 4861.1 5020 4855.3 5030 4855.3 5022 4861.1 5030 4855.3 5038.1 4861.1 5030 4867 5022 4872.9 5030 4878.8 5038.1 4884.7 5030 4890.5 5027 4900 5023.9 4890.5" clip-path="url(#a)" fill="none" stroke="#000" stroke-linecap="round"/>
<polyline points="5023.9 4890.5 5033.9 4890.5 5037 4881 5027 4881 5037 4881 5028.9 4875.1 5025.8 4865.6 5022.7 4875.1 5012.7 4875.1 5009.6 4865.6 5006.5 4856.1 5009.6 4865.6 5012.7 4856.1 5015.8 4865.6 5018.9 4875.1 5008.9 4875.1 5018.9 4875.1 5028.9 4875.1 5032 4884.7 5028.9 4875.1 5020.8 4881 5023.9 4890.5 5027 4881 5018.9 4875.1 5015.8 4884.7 5023.9 4890.5 5032 4896.4 5028.9 4905.9 5032 4915.4 5028.9 4924.9 5032 4934.5 5040 4940.3 5048.1 4934.5 5045 4944 5053.1 4949.8 5045 4955.7 5035 4955.7 5032 4946.2 5040 4952.1 5043.1 4942.6 5035 4948.5 5027 4942.6 5017 4942.6" clip-path="url(#a)" fill="none" stroke="#000" stroke-linecap="round"/>
<polyline points="5017 4942.6 5013.9 4952.1 5022 4958 5018.9 4967.5 5015.8 4958 5023.9 4963.8 5020.8 4973.4 5012.7 4979.2 5022.7 4979.2 5030.8 4973.4 5040.8 4973.4 5037.7 4982.9 5029.6 4988.7 5037.7 4982.9 5034.6 4973.4 5024.6 4973.4 5016.5 4979.2 5008.4 4973.4 5011.5 4982.9 5019.6 4977 5027.7 4971.1 5035.8 4965.2 5027.7 4959.4 5030.8 4968.9 5038.9 4974.7 5047 4968.9 5057 4968.9 5048.9 4974.7 5038.9 4974.7 5035.8 4984.3 5025.8 4984.3 5028.9 4993.8 5038.9 4993.8 5035.8 5003.3 5032.7 4993.8 5029.6 5003.3 5032.7 4993.8 5035.8 4984.3 5032.7 4993.8 5035.8 5003.3 5043.9 5009.2 5047 5018.7 5050 5009.2" clip-path="url(#a)" fill="none" stroke="#000" stroke-linecap="round"/>
<polyline points="5050 5009.2 5047 5018.7 5057 5018.7 5065 5024.5 5073.1 5018.7 5063.1 5018.7 5055 5012.8 5045 5012.8 5053.1 5018.7 5043.1 5018.7 5046.2 5009.2 5043.1 5018.7 5035 5012.8 5045 5012.8 5042 5022.3 5033.9 5028.2 5030.8 5037.7 5020.8 5037.7 5010.8 5037.7 5007.7 5028.2 5015.8 5022.3 5018.9 5031.8 5027 5025.9 5030 5035.4 5040 5035.4 5050 5035.4 5058.1 5029.6 5050 5023.7 5060 5023.7 5050 5023.7 5042 5029.6 5033.9 5023.7 5042 5017.8 5045 5027.3 5053.1 5033.2 5056.2 5023.7 5046.2 5023.7 5038.1 5029.6 5030 5035.4 5038.1 5029.6 5046.2 5035.4 5054.3 5041.3 5062.4 5035.4" clip-path="url(#a)" fill="none" stroke="#000" stroke-linecap="round"/>
<polyline points="5062.4 5035.4 5070.5 5029.6 5060.5 5029.6 5063.6 5020.1 5071.7 5025.9 5068.6 5035.4 5071.7 5045 5068.6 5035.4 5076.7 5041.3 5079.8 5050.8 5076.7 5060.3 5073.6 5050.8 5076.7 5060.3 5068.6 5066.2 5065.5 5056.7 5062.4 5047.2 5054.3 5053.1 5046.2 5059 5043.1 5049.4 5035 5043.6 5045 5043.6 5042 5053.1 5050 5059 5053.1 5049.4 5050 5059 5058.1 5053.1 5068.1 5053.1 5060 5047.2 5063.1 5037.7 5073.1 5037.7 5083.1 5037.7 5073.1 5037.7 5081.2 5043.6 5071.2 5043.6 5061.2 5043.6 5064.3 5034.1 5061.2 5043.6 5058.1 5053.1 5048.1 5053.1 5058.1 5053.1 5055 5043.6 5045 5043.6 5053.1 5049.4" clip-path="url(#a)" fill="none" stroke="#000" stroke-linecap="round"/>
<polyline points="5053.1 5049.4 5061.2 5043.6 5053.1 5037.7 5045 5043.6 5037 5049.4 5028.9 5043.6 5018.9 5043.6 5010.8 5037.7 5000.8 5037.7 4992.7 5043.6 4995.8 5053.1 4987.7 5047.2 4979.6 5053.1 4976.5 5043.6 4979.6 5034.1 4989.6 5034.1 4981.5 5039.9 4989.6 5045.8 4986.5 5036.3 4994.6 5030.4 4997.7 5020.9 4989.6 5015 4981.5 5020.9 4973.4 5015 4983.4 5015 4975.3 5020.9 4967.2 5015 4964.1 5005.5 4961.1 5015 4964.1 5024.5 4961.1 5034.1 4953 5028.2 4949.9 5018.7 4953 5028.2 4963 5028.2 4966.1 5018.7 4963 5009.2 4971.1 5003.3 4961.1 5003.3 4964.1 5012.8 4967.2 5022.3 4970.3 5031.8 4978.4 5025.9" clip-path="url(#a)" fill="none" stroke="#000" stroke-linecap="round"/>
<polyline points="4978.4 5025.9 4968.4 5025.9 4960.3 5031.8 4963.4 5041.3 4960.3 5050.8 4957.2 5041.3 4960.3 5031.8 4952.2 5025.9 4955.3 5016.4 4945.3 5016.4 4942.2 5025.9 4934.1 5020.1 4944.1 5020.1 4936.1 5014.2 4944.1 5020.1 4952.2 5025.9 4944.1 5020.1 4934.1 5020.1 4926.1 5025.9 4916.1 5025.9 4924.1 5031.8 4916.1 5025.9 4913 5035.4 4904.9 5041.3 4908 5050.8 4911.1 5041.3 4919.1 5035.4 4922.2 5025.9 4914.1 5031.8 4917.2 5022.3 4925.3 5028.2 4917.2 5022.3 4925.3 5016.4 4922.2 5025.9 4914.1 5020.1 4911.1 5010.5 4903 5004.7 4906.1 4995.2 4909.1 4985.6 4919.1 4985.6 4922.2 4995.2 4912.2 4995.2 4915.3 5004.7" clip-path="url(#a)" fill="none" stroke="#000" stroke-linecap="round"/>
<polyline points="4915.3 5004.7 4905.3 5004.7 4902.2 5014.2 4899.1 5023.7 4902.2 5033.2 4910.3 5027.3 4907.2 5036.8 4910.3 5027.3 4907.2 5017.8 4915.3 5011.9 4918.4 5021.4 4908.4 5021.4 4900.3 5027.3 4908.4 5033.2 4911.5 5023.7 4908.4 5014.2 4905.3 5004.7 4908.4 5014.2 4900.3 5020.1 4892.2 5025.9 4895.3 5035.4 4898.4 5045 4901.5 5035.4 4909.6 5041.3 4901.5 5047.2 4893.4 5041.3 4883.4 5041.3 4893.4 5041.3 4885.3 5047.2 4875.3 5047.2 4867.2 5041.3 4877.2 5041.3 4867.2 5041.3 4864.1 5031.8 4874.1 5031.8 4884.1 5031.8 4881.1 5022.3 4878 5012.8 4888 5012.8 4896.1 5006.9 4893 5016.4 4884.9 5010.5 4876.8 5016.4" clip-path="url(#a)" fill="none" stroke="#000" stroke-linecap="round"/>
<polyline points="4876.8 5016.4 4884.9 5022.3 4876.8 5016.4 4879.9 5025.9 4876.8 5035.4 4884.9 5029.6 4893 5035.4 4889.9 5045 4886.8 5054.5 4889.9 5045 4881.8 5050.8 4884.9 5041.3 4888 5031.8 4896.1 5037.7 4888 5031.8 4879.9 5025.9 4883 5016.4 4879.9 5025.9 4889.9 5025.9 4893 5016.4 4884.9 5022.3 4888 5031.8 4896.1 5025.9 4893 5016.4 4889.9 5006.9 4898 5001 4901.1 4991.5 4909.1 4985.6 4912.2 4976.1 4909.1 4966.6 4899.1 4966.6 4907.2 4960.7 4904.1 4951.2 4914.1 4951.2 4922.2 4957.1 4919.1 4966.6 4916.1 4957.1 4908 4963 4918 4963 4921.1 4972.5 4929.1 4978.4 4937.2 4972.5 4934.1 4963" clip-path="url(#a)" fill="none" stroke="#000" stroke-linecap="round"/>
<polyline points="4934.1 4963 4942.2 4957.1 4939.1 4966.6 4936.1 4957.1 4944.1 4951.2 4954.1 4951.2 4946.1 4945.4 4936.1 4945.4 4928 4939.5 4936.1 4933.6 4946.1 4933.6 4936.1 4933.6 4933 4943.1 4941.1 4949 4951.1 4949 4954.1 4958.5 4957.2 4949 4947.2 4949 4937.2 4949 4927.2 4949 4930.3 4958.5 4933.4 4949 4930.3 4939.5 4920.3 4939.5 4912.2 4933.6 4922.2 4933.6 4930.3 4939.5 4938.4 4933.6 4946.5 4939.5 4949.6 4930 4941.5 4924.1 4949.6 4918.2 4946.5 4927.7 4954.6 4921.8 4946.5 4927.7 4938.4 4933.6 4946.5 4927.7 4949.6 4918.2 4946.5 4908.7 4949.6 4899.2 4941.5 4905.1 4949.6 4899.2 4941.5 4893.3" clip-path="url(#a)" fill="none" stroke="#000" stroke-linecap="round"/>
<polyline points="4941.5 4893.3 4938.4 4883.8 4928.4 4883.8 4936.5 4889.7 4939.6 4899.2 4947.7 4905.1 4944.6 4895.6 4952.7 4901.4 4944.6 4907.3 4952.7 4901.4 4955.8 4910.9 4947.7 4905.1 4955.8 4899.2 4965.8 4899.2 4973.9 4893.3 4982 4899.2 4990 4905.1 4987 4914.6 4977 4914.6 4980 4905.1 4970 4905.1 4973.1 4895.6 4965 4889.7 4957 4883.8 4947 4883.8 4950 4893.3 4942 4887.4 4950 4893.3 4960 4893.3 4963.1 4902.8 4953.1 4902.8 4956.2 4893.3 4953.1 4883.8 4945 4889.7 4953.1 4895.6 4963.1 4895.6 4973.1 4895.6 4963.1 4895.6 4960 4886 4957 4876.5 4947 4876.5 4937 4876.5 4945 4882.4" clip-path="url(#a)" fill="none" stroke="#000" stroke-linecap="round"/>
<polyline points="4945 4882.4 4937 4888.3 4933.9 4878.8 4942 4872.9 4945 4863.4 4942 4872.9 4938.9 4863.4 4942 4853.9 4950 4848 4947 4857.5 4950 4848 4960 4848 4957 4857.5 4953.9 4867 4963.9 4867 4973.9 4867 4970.8 4876.5 4973.9 4886 4965.8 4880.2 4973.9 4874.3 4970.8 4864.8 4962.7 4870.7 4970.8 4864.8 4960.8 4864.8 4952.7 4858.9 4955.8 4868.4 4947.7 4874.3 4939.6 4868.4 4931.5 4862.5 4939.6 4868.4 4936.5 4858.9 4944.6 4864.8 4952.7 4870.7 4944.6 4876.5 4952.7 4870.7 4960.8 4864.8 4968.9 4870.7 4960.8 4864.8 4957.7 4874.3 4965.8 4880.2 4962.7 4870.7 4952.7 4870.7 4955.8 4880.2" clip-path="url(#a)" fill="none" stroke="#000" stroke-linecap="round"/>
<polyline points="4955.8 4880.2 4965.8 4880.2 4975.8 4880.2 4978.9 4889.7 4987 4895.6 4990 4905.1 4998.1 4910.9 5008.1 4910.9 5011.2 4901.4 5014.3 4910.9 5024.3 4910.9 5021.2 4920.5 5013.1 4926.3 5005 4920.5 5015 4920.5 5012 4910.9 5008.9 4920.5 4998.9 4920.5 4990.8 4926.3 4993.9 4935.8 5003.9 4935.8 5007 4945.4 4998.9 4939.5 5008.9 4939.5 5012 4949 5008.9 4958.5 5017 4952.6 5020 4943.1 5028.1 4937.2 5031.2 4946.7 5028.1 4956.3 5031.2 4946.7 5023.1 4940.9 5015 4946.7 5012 4956.3 5002 4956.3 5010 4962.1 5013.1 4952.6 5016.2 4943.1 5019.3 4933.6 5009.3 4933.6 5017.4 4939.5 5027.4 4939.5" clip-path="url(#a)" fill="none" stroke="#000" stroke-linecap="round"/>
<polyline points="5027.4 4939.5 5030.5 4930 5038.6 4924.1 5035.5 4933.6 5027.4 4939.5 5030.5 4949 5022.4 4954.9 5030.5 4960.7 5038.6 4954.9 5041.7 4964.4 5033.6 4958.5 5036.7 4968 5033.6 4958.5 5030.5 4949 5033.6 4958.5 5041.7 4964.4 5051.7 4964.4 5059.8 4970.3 5056.7 4960.7 5059.8 4970.3 5067.9 4964.4 5077.9 4964.4 5081 4954.9 5072.9 4960.7 5062.9 4960.7 5054.8 4966.6 5064.8 4966.6 5056.7 4972.5 5053.6 4963 5056.7 4972.5 5046.7 4972.5 5054.8 4966.6 5057.9 4976.1 5054.8 4985.6 5057.9 4995.2 5049.8 5001 5041.7 5006.9 5033.6 5001 5036.7 4991.5 5044.8 4997.4 5047.9 4987.9 5056 4993.8 5064 4987.9" clip-path="url(#a)" fill="none" stroke="#000" stroke-linecap="round"/>
<polyline points="5064 4987.9 5072.1 4982 5075.2 4972.5 5065.2 4972.5 5073.3 4966.6 5065.2 4972.5 5062.1 4982 5052.1 4982 5055.2 4972.5 5063.3 4978.4 5073.3 4978.4 5070.2 4968.9 5062.1 4974.7 5059 4984.3 5056 4993.8 5059 4984.3 5069 4984.3 5079 4984.3 5082.1 4974.7 5085.2 4965.2 5077.1 4971.1 5074 4961.6 5084 4961.6 5087.1 4971.1 5095.2 4977 5087.1 4971.1 5097.1 4971.1 5105.2 4977 5108.3 4986.5 5100.2 4980.6 5108.3 4986.5 5105.2 4996 5097.1 4990.1 5089 4984.3 5086 4993.8 5082.9 5003.3 5074.8 4997.4 5064.8 4997.4 5072.9 4991.5 5076 5001 5086 5001 5082.9 4991.5 5086 5001" clip-path="url(#a)" fill="none" stroke="#000" stroke-linecap="round"/>
<polyline points="5086 5001 5089 4991.5 5097.1 4985.6 5087.1 4985.6 5084 4976.1 5092.1 4970.3 5100.2 4964.4 5092.1 4970.3 5102.1 4970.3 5094 4976.1 5086 4982 5082.9 4972.5 5086 4982 5089 4991.5 5081 4997.4 5089 4991.5 5081 4985.6 5072.9 4991.5 5082.9 4991.5 5086 4982 5076 4982 5072.9 4991.5 5069.8 5001 5059.8 5001 5051.7 5006.9 5041.7 5006.9 5033.6 5012.8 5030.5 5022.3 5038.6 5028.2 5028.6 5028.2 5025.5 5037.7 5017.4 5031.8 5014.3 5022.3 5022.4 5016.4 5019.3 5025.9 5029.3 5025.9 5021.2 5020.1 5024.3 5010.5 5021.2 5001 5011.2 5001 5008.1 5010.5 4998.1 5010.5 5006.2 5004.7" clip-path="url(#a)" fill="none" stroke="#000" stroke-linecap="round"/>
<polyline points="5006.2 5004.7 5003.1 5014.2 4993.1 5014.2 4985 5008.3 4988.1 5017.8 4996.2 5023.7 4999.3 5033.2 4989.3 5033.2 4981.2 5027.3 4989.3 5033.2 4997.4 5027.3 4994.3 5017.8 4986.2 5011.9 4989.3 5002.4 4981.2 5008.3 4989.3 5014.2 4997.4 5020.1 5005.5 5025.9 5008.6 5016.4 5000.5 5022.3 4997.4 5031.8 5005.5 5037.7 5008.6 5047.2 5000.5 5041.3 4997.4 5031.8 4987.4 5031.8 4984.3 5022.3 4976.2 5028.2 4979.3 5037.7 4969.3 5037.7 4977.4 5031.8 4967.4 5031.8 4977.4 5031.8 4987.4 5031.8 4977.4 5031.8 4969.3 5037.7 4966.2 5047.2 4958.1 5053.1 4968.1 5053.1 4958.1 5053.1 4961.2 5062.6 4958.1 5072.1 4966.2 5078" clip-path="url(#a)" fill="none" stroke="#000" stroke-linecap="round"/>
<polyline points="4966.2 5078 4963.1 5068.5 4966.2 5059 4963.1 5049.4 4960 5059 4957 5049.4 4967 5049.4 4957 5049.4 4960 5039.9 4963.1 5049.4 4953.1 5049.4 4945 5043.6 4935 5043.6 4932 5034.1 4928.9 5024.5 4937 5018.7 4945 5024.5 4937 5030.4 4945 5036.3 4937 5042.2 4940 5051.7 4943.1 5061.2 4951.2 5067.1 4954.3 5057.6 4957.4 5067.1 4954.3 5057.6 4946.2 5051.7 4949.3 5042.2 4957.4 5048.1 4949.3 5053.9 4946.2 5063.4 4956.2 5063.4 4953.1 5053.9 4945 5048.1 4937 5042.2 4945 5048.1 4942 5057.6 4938.9 5067.1 4947 5073 4955 5078.8 4952 5069.3 4962 5069.3 4958.9 5078.8" clip-path="url(#a)" fill="none" stroke="#000" stroke-linecap="round"/>
<polyline points="4958.9 5078.8 4948.9 5078.8 4940.8 5084.7 4948.9 5078.8 4945.8 5088.3 4937.7 5094.2 4927.7 5094.2 4935.8 5088.3 4927.7 5094.2 4919.6 5088.3 4927.7 5082.5 4935.8 5076.6 4927.7 5070.7 4919.6 5064.8 4927.7 5059 4930.8 5049.4 4933.9 5059 4923.9 5059 4920.8 5068.5 4930.8 5068.5 4920.8 5068.5 4928.9 5074.3 4932 5083.8 4935 5074.3 4945 5074.3 4948.1 5083.8 4951.2 5093.4 4948.1 5083.8 4945 5093.4 4942 5083.8 4938.9 5074.3 4948.9 5074.3 4938.9 5074.3 4928.9 5074.3 4925.8 5064.8 4928.9 5074.3 4937 5068.5 4933.9 5059 4930.8 5068.5 4938.9 5074.3 4942 5064.8 4933.9 5059 4925.8 5053.1" clip-path="url(#a)" fill="none" stroke="#000" stroke-linecap="round"/>
<polyline points="4925.8 5053.1 4928.9 5043.6 4925.8 5034.1 4928.9 5024.5 4925.8 5015 4917.7 5009.2 4909.6 5015 4912.7 5005.5 4904.6 4999.6 4912.7 4993.8 4922.7 4993.8 4925.8 5003.3 4917.7 4997.4 4914.6 5006.9 4922.7 5001 4930.8 5006.9 4940.8 5006.9 4943.9 4997.4 4935.8 4991.5 4938.9 4982 4942 4991.5 4933.9 4985.6 4937 4976.1 4945 4970.3 4935 4970.3 4927 4976.1 4917 4976.1 4920 4966.6 4928.1 4960.7 4920 4966.6 4923.1 4976.1 4933.1 4976.1 4941.2 4970.3 4949.3 4976.1 4946.2 4966.6 4938.1 4972.5 4930 4978.4 4922 4984.3 4930 4990.1 4927 4980.6 4918.9 4974.7 4910.8 4980.6 4900.8 4980.6" clip-path="url(#a)" fill="none" stroke="#000" stroke-linecap="round"/>
<polyline points="4900.8 4980.6 4908.9 4974.7 4918.9 4974.7 4922 4965.2 4932 4965.2 4928.9 4955.7 4918.9 4955.7 4922 4946.2 4925 4955.7 4928.1 4946.2 4925 4955.7 4922 4965.2 4925 4955.7 4922 4946.2 4913.9 4940.3 4910.8 4930.8 4907.7 4940.3 4910.8 4930.8 4900.8 4930.8 4892.7 4924.9 4884.6 4930.8 4894.6 4930.8 4902.7 4936.7 4912.7 4936.7 4904.6 4930.8 4914.6 4930.8 4911.5 4940.3 4914.6 4930.8 4922.7 4936.7 4912.7 4936.7 4915.8 4927.2 4923.9 4921.3 4927 4911.8 4937 4911.8 4947 4911.8 4950 4921.3 4942 4927.2 4938.9 4917.7 4930.8 4923.6 4927.7 4914 4917.7 4914 4907.7 4914 4899.6 4919.9" clip-path="url(#a)" fill="none" stroke="#000" stroke-linecap="round"/>
<polyline points="4899.6 4919.9 4907.7 4925.8 4897.7 4925.8 4907.7 4925.8 4915.8 4919.9 4923.9 4925.8 4915.8 4931.7 4912.7 4922.2 4904.6 4916.3 4901.5 4925.8 4911.5 4925.8 4919.6 4919.9 4927.7 4914 4919.6 4919.9 4911.5 4914 4903.4 4908.2 4895.3 4914 4887.2 4919.9 4897.2 4919.9 4894.1 4929.4 4886.1 4923.6 4889.1 4914 4886.1 4904.5 4889.1 4914 4881.1 4908.2 4878 4898.7 4881.1 4889.1 4884.1 4898.7 4881.1 4889.1 4889.1 4883.3 4892.2 4892.8 4895.3 4902.3 4903.4 4896.4 4911.5 4890.5 4914.6 4900 4922.7 4905.9 4912.7 4905.9 4915.8 4896.4 4907.7 4890.5 4904.6 4900 4907.7 4890.5 4899.6 4896.4 4889.6 4896.4" clip-path="url(#a)" fill="none" stroke="#000" stroke-linecap="round"/>
<polyline points="4889.6 4896.4 4897.7 4902.3 4894.6 4911.8 4884.6 4911.8 4874.6 4911.8 4884.6 4911.8 4876.5 4905.9 4886.5 4905.9 4896.5 4905.9 4893.4 4915.4 4896.5 4905.9 4899.6 4896.4 4909.6 4896.4 4899.6 4896.4 4902.7 4905.9 4912.7 4905.9 4904.6 4900 4896.5 4905.9 4904.6 4911.8 4912.7 4905.9 4920.8 4900 4928.9 4905.9 4938.9 4905.9 4947 4911.8 4957 4911.8 4965 4905.9 4962 4896.4 4970 4902.3 4978.1 4896.4 4981.2 4905.9 4978.1 4915.4 4968.1 4915.4 4976.2 4909.6 4968.1 4903.7 4971.2 4913.2 4963.1 4919.1 4960 4928.6 4968.1 4934.5 4976.2 4928.6 4984.3 4934.5 4974.3 4934.5 4982.4 4928.6 4990.5 4934.5" clip-path="url(#a)" fill="none" stroke="#000" stroke-linecap="round"/>
<polyline points="4990.5 4934.5 4993.6 4944 4996.7 4934.5 4993.6 4924.9 4996.7 4915.4 5004.8 4921.3 5007.9 4930.8 5004.8 4921.3 4994.8 4921.3 4991.7 4930.8 4994.8 4940.3 4986.7 4946.2 4996.7 4946.2 4993.6 4936.7 4990.5 4927.2 4987.4 4917.7 4979.3 4923.6 4989.3 4923.6 4997.4 4917.7 4994.3 4908.2 4997.4 4898.7 5000.5 4908.2 4997.4 4917.7 5005.5 4923.6 5002.4 4933.1 5012.4 4933.1 5015.5 4923.6 5023.6 4929.4 5013.6 4929.4 5021.7 4935.3 5013.6 4929.4 5005.5 4923.6 5013.6 4929.4 5023.6 4929.4 5031.7 4923.6 5041.7 4923.6 5033.6 4917.7 5041.7 4923.6 5044.8 4914 5052.9 4908.2 5049.8 4898.7 5046.7 4908.2 5038.6 4914" clip-path="url(#a)" fill="none" stroke="#000" stroke-linecap="round"/>
<polyline points="5038.6 4914 5035.5 4923.6 5043.6 4917.7 5040.5 4927.2 5032.4 4921.3 5040.5 4927.2 5032.4 4933.1 5035.5 4923.6 5043.6 4929.4 5046.7 4938.9 5054.8 4944.8 5051.7 4954.3 5048.6 4963.8 5038.6 4963.8 5035.5 4954.3 5045.5 4954.3 5042.4 4944.8 5052.4 4944.8 5055.5 4935.3 5058.6 4925.8 5055.5 4916.3 5047.4 4922.2 5050.5 4912.7 5047.4 4922.2 5050.5 4931.7 5042.4 4937.6 5039.3 4928 5049.3 4928 5057.4 4922.2 5049.3 4916.3 5046.2 4925.8 5049.3 4935.3 5052.4 4944.8 5049.3 4935.3 5057.4 4929.4 5065.5 4923.6 5062.4 4914 5059.3 4904.5 5056.2 4914 5048.1 4908.2 5056.2 4902.3 5064.3 4908.2 5074.3 4908.2" clip-path="url(#a)" fill="none" stroke="#000" stroke-linecap="round"/>
<polyline points="5074.3 4908.2 5064.3 4908.2 5072.4 4902.3 5082.4 4902.3 5090.5 4908.2 5080.5 4908.2 5090.5 4908.2 5093.6 4917.7 5083.6 4917.7 5073.6 4917.7 5076.7 4927.2 5079.8 4936.7 5069.8 4936.7 5061.7 4942.6 5064.8 4933.1 5072.9 4938.9 5081 4933.1 5072.9 4927.2 5081 4933.1 5077.9 4923.6 5081 4914 5072.9 4919.9 5064.8 4914 5067.9 4904.5 5071 4895 5067.9 4904.5 5076 4898.7 5072.9 4908.2 5069.8 4917.7 5061.7 4911.8 5069.8 4917.7 5077.9 4923.6 5074.8 4933.1 5077.9 4923.6 5067.9 4923.6 5064.8 4933.1 5072.9 4927.2 5069.8 4917.7 5061.7 4923.6 5064.8 4933.1 5067.9 4942.6 5059.8 4948.5 5056.7 4958" clip-path="url(#a)" fill="none" stroke="#000" stroke-linecap="round"/>
<polyline points="5056.7 4958 5048.6 4963.8 5045.5 4973.4 5048.6 4982.9 5058.6 4982.9 5050.5 4988.7 5053.6 4998.3 5043.6 4998.3 5035.5 4992.4 5038.6 4982.9 5041.7 4992.4 5049.8 4986.5 5039.8 4986.5 5036.7 4977 5028.6 4971.1 5020.5 4977 5023.6 4986.5 5015.5 4992.4 5018.6 4982.9 5021.7 4992.4 5013.6 4998.3 5003.6 4998.3 5011.7 5004.1 5021.7 5004.1 5029.8 5010 5021.7 5015.9 5011.7 5015.9 5021.7 5015.9 5024.8 5006.4 5016.7 5000.5 5006.7 5000.5 5003.6 4991 5000.5 5000.5 5010.5 5000.5 5020.5 5000.5 5030.5 5000.5 5027.4 4991 5024.3 5000.5 5027.4 5010 5037.4 5010 5045.5 5015.9 5035.5 5015.9 5027.4 5010" clip-path="url(#a)" fill="none" stroke="#000" stroke-linecap="round"/>
<polyline points="5027.4 5010 5019.3 5015.9 5011.2 5010 5008.1 5019.5 5016.2 5025.4 5008.1 5031.3 5011.2 5021.8 5003.1 5027.6 5011.2 5021.8 5019.3 5015.9 5011.2 5021.8 5008.1 5031.3 5011.2 5040.8 5008.1 5050.3 5016.2 5044.4 5008.1 5050.3 5016.2 5056.2 5019.3 5065.7 5029.3 5065.7 5021.2 5059.8 5018.1 5050.3 5010 5044.4 5013.1 5053.9 5005 5048.1 5013.1 5042.2 5005 5048.1 5002 5038.5 5010 5044.4 5002 5050.3 4992 5050.3 4983.9 5056.2 4975.8 5050.3 4967.7 5044.4 4970.8 5034.9 4980.8 5034.9 4977.7 5044.4 4987.7 5044.4 4984.6 5053.9 4992.7 5059.8 5000.8 5065.7 5010.8 5065.7 5007.7 5056.2 5015.8 5062.1" clip-path="url(#a)" fill="none" stroke="#000" stroke-linecap="round"/>
<polyline points="5015.8 5062.1 5007.7 5056.2 4997.7 5056.2 4994.6 5046.7 5004.6 5046.7 5001.5 5056.2 5004.6 5065.7 5012.7 5059.8 5004.6 5053.9 4994.6 5053.9 4984.6 5053.9 4994.6 5053.9 4997.7 5063.4 5000.8 5073 5010.8 5073 5020.8 5073 5012.7 5067.1 5020.8 5061.2 5023.9 5070.7 5015.8 5076.6 5012.7 5086.1 5015.8 5076.6 5018.9 5086.1 5015.8 5095.6 5007.7 5101.5 5010.8 5092 5007.7 5101.5 4997.7 5101.5 5000.8 5092 5003.9 5082.5 4993.9 5082.5 4983.9 5082.5 4987 5073 4983.9 5063.4 4992 5069.3 4983.9 5075.2 4987 5084.7 4995 5078.8 4987 5084.7 4997 5084.7 5005 5090.6 5002 5081.1 5010 5075.2" clip-path="url(#a)" fill="none" stroke="#000" stroke-linecap="round"/>
<polyline points="5010 5075.2 5018.1 5081.1 5026.2 5087 5018.1 5081.1 5021.2 5090.6 5013.1 5084.7 5005 5078.8 5013.1 5073 5005 5078.8 4997 5084.7 4988.9 5078.8 4997 5084.7 5e3 5075.2 4992 5069.3 4995 5078.8 5005 5078.8 5002 5069.3 4992 5069.3 4982 5069.3 4978.9 5059.8 4970.8 5053.9 4967.7 5044.4 4959.6 5038.5 4949.6 5038.5 4946.5 5048.1 4943.4 5038.5 4933.4 5038.5 4936.5 5029 4944.6 5023.2 4952.7 5029 4942.7 5029 4945.8 5038.5 4948.9 5029 4958.9 5029 4967 5023.2 4963.9 5013.6 4953.9 5013.6 4950.8 5004.1 4958.9 5010 4948.9 5010 4945.8 5000.5 4948.9 4991 4940.8 4996.9" clip-path="url(#a)" fill="none" stroke="#000" stroke-linecap="round"/>
<polyline points="4940.8 4996.9 4937.7 5006.4 4929.6 5012.3 4926.5 5002.7 4929.6 4993.2 4926.5 5002.7 4934.6 5008.6 4942.7 5002.7 4945.8 4993.2 4955.8 4993.2 4947.7 4987.4 4944.6 4996.9 4941.5 5006.4 4938.4 5015.9 4948.4 5015.9 4940.3 5010 4930.3 5010 4927.2 5019.5 4919.1 5025.4 4922.2 5015.9 4930.3 5010 4927.2 5000.5 4935.3 4994.6 4927.2 4988.7 4919.1 4994.6 4916.1 4985.1 4924.1 4991 4921.1 4981.5 4924.1 4991 4927.2 5000.5 4924.1 4991 4916.1 4985.1 4906.1 4985.1 4898 4979.2 4901.1 4988.7 4898 4979.2 4889.9 4985.1 4879.9 4985.1 4876.8 4994.6 4884.9 4988.7 4894.9 4988.7 4903 4982.9 4893 4982.9" clip-path="url(#a)" fill="none" stroke="#000" stroke-linecap="round"/>
<polyline points="4893 4982.9 4901.1 4977 4904.1 4986.5 4901.1 4977 4911.1 4977 4903 4982.9 4899.9 4973.4 4903 4963.8 4899.9 4954.3 4908 4948.5 4916.1 4942.6 4924.1 4948.5 4921.1 4958 4913 4952.1 4909.9 4961.6 4901.8 4955.7 4893.7 4961.6 4885.6 4967.5 4882.5 4977 4892.5 4977 4884.4 4982.9 4892.5 4977 4895.6 4967.5 4905.6 4967.5 4902.5 4977 4894.4 4971.1 4884.4 4971.1 4887.5 4980.6 4895.6 4974.7 4898.7 4965.2 4901.8 4955.7 4898.7 4965.2 4888.7 4965.2 4878.7 4965.2 4875.6 4974.7 4872.5 4984.3 4880.6 4978.4 4883.7 4987.9 4873.7 4987.9 4870.6 4978.4 4862.5 4972.5 4870.6 4978.4 4860.6 4978.4" clip-path="url(#a)" fill="none" stroke="#000" stroke-linecap="round"/>
<polyline points="4860.6 4978.4 4852.5 4972.5 4849.4 4963 4857.5 4968.9 4849.4 4963 4852.5 4953.5 4860.6 4959.4 4868.7 4965.2 4871.8 4955.7 4874.9 4946.2 4883 4952.1 4893 4952.1 4884.9 4958 4881.8 4948.5 4871.8 4948.5 4874.9 4958 4871.8 4948.5 4868.7 4958 4860.6 4963.8 4870.6 4963.8 4873.7 4973.4 4865.6 4979.2 4857.5 4985.1 4865.6 4979.2 4855.6 4979.2 4863.7 4973.4 4871.8 4967.5 4874.9 4977 4871.8 4967.5 4868.7 4958 4876.8 4952.1 4868.7 4958 4876.8 4963.8 4884.9 4958 4874.9 4958 4871.8 4967.5 4881.8 4967.5 4884.9 4958 4888 4948.5 4898 4948.5 4906.1 4942.6 4916.1 4942.6 4924.1 4936.7" clip-path="url(#a)" fill="none" stroke="#000" stroke-linecap="round"/>
<polyline points="4924.1 4936.7 4927.2 4927.2 4919.1 4921.3 4929.1 4921.3 4932.2 4911.8 4940.3 4917.7 4943.4 4927.2 4935.3 4933.1 4938.4 4923.6 4928.4 4923.6 4936.5 4929.4 4933.4 4938.9 4936.5 4948.5 4946.5 4948.5 4949.6 4938.9 4959.6 4938.9 4951.5 4944.8 4954.6 4935.3 4964.6 4935.3 4972.7 4941.2 4969.6 4931.7 4961.5 4925.8 4958.4 4916.3 4968.4 4916.3 4976.5 4922.2 4968.4 4916.3 4960.3 4922.2 4963.4 4931.7 4971.5 4937.6 4968.4 4947.1 4976.5 4941.2 4968.4 4935.3 4960.3 4929.4 4952.2 4923.6 4949.1 4933.1 4957.2 4927.2 4960.3 4917.7 4952.2 4911.8 4949.1 4902.3 4957.2 4908.2 4960.3 4917.7 4970.3 4917.7 4973.4 4927.2" clip-path="url(#a)" fill="none" stroke="#000" stroke-linecap="round"/>
<polyline points="4973.4 4927.2 4981.5 4921.3 4978.4 4911.8 4988.4 4911.8 4980.3 4917.7 4990.3 4917.7 4980.3 4917.7 4970.3 4917.7 4980.3 4917.7 4988.4 4911.8 4991.5 4902.3 4999.6 4896.4 4989.6 4896.4 4999.6 4896.4 4996.5 4886.9 4999.6 4877.4 4991.5 4871.5 4994.6 4881 4991.5 4890.5 4994.6 4900 4997.7 4890.5 5000.8 4900 4990.8 4900 5000.8 4900 4997.7 4909.6 4994.6 4900 5004.6 4900 5012.7 4905.9 5022.7 4905.9 5025.8 4915.4 5028.9 4924.9 5020.8 4930.8 5012.7 4924.9 5020.8 4919.1 5012.7 4913.2 5020.8 4907.3 5017.7 4897.8 5014.6 4888.3 5006.5 4882.4 5003.4 4891.9 5000.3 4882.4 5003.4 4891.9 5011.5 4897.8" clip-path="url(#a)" fill="none" stroke="#000" stroke-linecap="round"/>
<polyline points="5011.5 4897.8 5008.4 4907.3 5000.3 4901.4 5008.4 4895.6 5011.5 4886 5001.5 4886 5004.6 4895.6 5012.7 4901.4 5020.8 4907.3 5012.7 4901.4 5015.8 4891.9 5018.9 4882.4 5010.8 4876.5 5002.7 4870.7 5005.8 4880.2 4995.8 4880.2 4998.9 4870.7 5008.9 4870.7 5017 4864.8 5008.9 4870.7 5012 4861.1 5020 4855.3 5030 4855.3 5022 4861.1 5030 4855.3 5038.1 4861.1 5030 4867 5022 4872.9 5030 4878.8 5038.1 4884.7 5030 4890.5 5027 4900 5023.9 4890.5 5033.9 4890.5 5037 4881 5027 4881 5037 4881 5028.9 4875.1 5025.8 4865.6 5022.7 4875.1 5012.7 4875.1 5009.6 4865.6 5006.5 4856.1" clip-path="url(#a)" fill="none" stroke="#000" stroke-linecap="round"/>
<polyline points="5006.5 4856.1 5009.6 4865.6 5012.7 4856.1 5015.8 4865.6 5018.9 4875.1 5008.9 4875.1 5018.9 4875.1 5028.9 4875.1 5032 4884.7 5028.9 4875.1 5020.8 4881 5023.9 4890.5 5027 4881 5018.9 4875.1 5015.8 4884.7 5023.9 4890.5 5032 4896.4 5028.9 4905.9 5032 4915.4 5028.9 4924.9 5032 4934.5 5040 4940.3 5048.1 4934.5 5045 4944 5053.1 4949.8 5045 4955.7 5035 4955.7 5032 4946.2 5040 4952.1 5043.1 4942.6 5035 4948.5 5027 4942.6 5017 4942.6 5013.9 4952.1 5022 4958 5018.9 4967.5 5015.8 4958 5023.9 4963.8 5020.8 4973.4 5012.7 4979.2 5022.7 4979.2 5030.8 4973.4 5040.8 4973.4" clip-path="url(#a)" fill="none" stroke="#000" stroke-linecap="round"/>
<polyline points="5040.8 4973.4 5037.7 4982.9 5029.6 4988.7 5037.7 4982.9 5034.6 4973.4 5024.6 4973.4 5016.5 4979.2 5008.4 4973.4 5011.5 4982.9 5019.6 4977 5027.7 4971.1 5035.8 4965.2 5027.7 4959.4 5030.8 4968.9 5038.9 4974.7 5047 4968.9 5057 4968.9 5048.9 4974.7 5038.9 4974.7 5035.8 4984.3 5025.8 4984.3 5028.9 4993.8 5038.9 4993.8 5035.8 5003.3 5032.7 4993.8 5029.6 5003.3 5032.7 4993.8 5035.8 4984.3 5032.7 4993.8 5035.8 5003.3 5043.9 5009.2 5047 5018.7 5050 5009.2 5047 5018.7 5057 5018.7 5065 5024.5 5073.1 5018.7 5063.1 5018.7 5055 5012.8 5045 5012.8 5053.1 5018.7 5043.1 5018.7 5046.2 5009.2" clip-path="url(#a)" fill="none" stroke="#000" stroke-linecap="round"/>
<polyline points="5046.2 5009.2 5043.1 5018.7 5035 5012.8 5045 5012.8 5042 5022.3 5033.9 5028.2 5030.8 5037.7 5020.8 5037.7 5010.8 5037.7 5007.7 5028.2 5015.8 5022.3 5018.9 5031.8 5027 5025.9 5030 5035.4 5040 5035.4 5050 5035.4 5058.1 5029.6 5050 5023.7 5060 5023.7 5050 5023.7 5042 5029.6 5033.9 5023.7 5042 5017.8 5045 5027.3 5053.1 5033.2 5056.2 5023.7 5046.2 5023.7 5038.1 5029.6 5030 5035.4 5038.1 5029.6 5046.2 5035.4 5054.3 5041.3 5062.4 5035.4 5070.5 5029.6 5060.5 5029.6 5063.6 5020.1 5071.7 5025.9 5068.6 5035.4 5071.7 5045 5068.6 5035.4 5076.7 5041.3 5079.8 5050.8 5076.7 5060.3" clip-path="url(#a)" fill="none" stroke="#000" stroke-linecap="round"/>
<polyline points="5076.7 5060.3 5073.6 5050.8 5076.7 5060.3 5068.6 5066.2 5065.5 5056.7 5062.4 5047.2 5054.3 5053.1 5046.2 5059 5043.1 5049.4 5035 5043.6 5045 5043.6 5042 5053.1 5050 5059 5053.1 5049.4 5050 5059 5058.1 5053.1 5068.1 5053.1 5060 5047.2 5063.1 5037.7 5073.1 5037.7 5083.1 5037.7 5073.1 5037.7 5081.2 5043.6 5071.2 5043.6 5061.2 5043.6 5064.3 5034.1 5061.2 5043.6 5058.1 5053.1 5048.1 5053.1 5058.1 5053.1 5055 5043.6 5045 5043.6 5053.1 5049.4 5061.2 5043.6 5053.1 5037.7 5045 5043.6 5037 5049.4 5028.9 5043.6 5018.9 5043.6 5010.8 5037.7 5000.8 5037.7 4992.7 5043.6 4995.8 5053.1" clip-path="url(#a)" fill="none" stroke="#000" stroke-linecap="round"/>
<polyline points="4995.8 5053.1 4987.7 5047.2 4979.6 5053.1 4976.5 5043.6 4979.6 5034.1 4989.6 5034.1 4981.5 5039.9 4989.6 5045.8 4986.5 5036.3 4994.6 5030.4 4997.7 5020.9 4989.6 5015 4981.5 5020.9 4973.4 5015 4983.4 5015 4975.3 5020.9 4967.2 5015 4964.1 5005.5 4961.1 5015 4964.1 5024.5 4961.1 5034.1 4953 5028.2 4949.9 5018.7 4953 5028.2 4963 5028.2 4966.1 5018.7 4963 5009.2 4971.1 5003.3 4961.1 5003.3 4964.1 5012.8 4967.2 5022.3 4970.3 5031.8 4978.4 5025.9 4968.4 5025.9 4960.3 5031.8 4963.4 5041.3 4960.3 5050.8 4957.2 5041.3 4960.3 5031.8 4952.2 5025.9 4955.3 5016.4 4945.3 5016.4 4942.2 5025.9" clip-path="url(#a)" fill="none" stroke="#000" stroke-linecap="round"/>
<polyline points="4942.2 5025.9 4934.1 5020.1 4944.1 5020.1 4936.1 5014.2 4944.1 5020.1 4952.2 5025.9 4944.1 5020.1 4934.1 5020.1 4926.1 5025.9 4916.1 5025.9 4924.1 5031.8 4916.1 5025.9 4913 5035.4 4904.9 5041.3 4908 5050.8 4911.1 5041.3 4919.1 5035.4 4922.2 5025.9 4914.1 5031.8 4917.2 5022.3 4925.3 5028.2 4917.2 5022.3 4925.3 5016.4 4922.2 5025.9 4914.1 5020.1 4911.1 5010.5 4903 5004.7 4906.1 4995.2 4909.1 4985.6 4919.1 4985.6 4922.2 4995.2 4912.2 4995.2 4915.3 5004.7 4905.3 5004.7 4902.2 5014.2 4899.1 5023.7 4902.2 5033.2 4910.3 5027.3 4907.2 5036.8 4910.3 5027.3 4907.2 5017.8 4915.3 5011.9 4918.4 5021.4" clip-path="url(#a)" fill="none" stroke="#000" stroke-linecap="round"/>
<polyline points="4918.4 5021.4 4908.4 5021.4 4900.3 5027.3 4908.4 5033.2 4911.5 5023.7 4908.4 5014.2 4905.3 5004.7 4908.4 5014.2 4900.3 5020.1 4892.2 5025.9 4895.3 5035.4 4898.4 5045 4901.5 5035.4 4909.6 5041.3 4901.5 5047.2 4893.4 5041.3 4883.4 5041.3 4893.4 5041.3 4885.3 5047.2 4875.3 5047.2 4867.2 5041.3 4877.2 5041.3 4867.2 5041.3 4864.1 5031.8 4874.1 5031.8 4884.1 5031.8 4881.1 5022.3 4878 5012.8 4888 5012.8 4896.1 5006.9 4893 5016.4 4884.9 5010.5 4876.8 5016.4 4884.9 5022.3 4876.8 5016.4 4879.9 5025.9 4876.8 5035.4 4884.9 5029.6 4893 5035.4 4889.9 5045 4886.8 5054.5 4889.9 5045 4881.8 5050.8" clip-path="url(#a)" fill="none" stroke="#000" stroke-linecap="round"/>
<polyline points="4881.8 5050.8 4884.9 5041.3 4888 5031.8 4896.1 5037.7 4888 5031.8 4879.9 5025.9 4883 5016.4 4879.9 5025.9 4889.9 5025.9 4893 5016.4 4884.9 5022.3 4888 5031.8 4896.1 5025.9 4893 5016.4 4889.9 5006.9 4898 5001 4901.1 4991.5 4909.1 4985.6 4912.2 4976.1 4909.1 4966.6 4899.1 4966.6 4907.2 4960.7 4904.1 4951.2 4914.1 4951.2 4922.2 4957.1 4919.1 4966.6 4916.1 4957.1 4908 4963 4918 4963 4921.1 4972.5 4929.1 4978.4 4937.2 4972.5 4934.1 4963 4942.2 4957.1 4939.1 4966.6 4936.1 4957.1 4944.1 4951.2 4954.1 4951.2 4946.1 4945.4 4936.1 4945.4 4928 4939.5 4936.1 4933.6 4946.1 4933.6" clip-path="url(#a)" fill="none" stroke="#000" stroke-linecap="round"/>
<polyline points="4946.1 4933.6 4936.1 4933.6 4933 4943.1 4941.1 4949 4951.1 4949 4954.1 4958.5 4957.2 4949 4947.2 4949 4937.2 4949 4927.2 4949 4930.3 4958.5 4933.4 4949 4930.3 4939.5 4920.3 4939.5 4912.2 4933.6 4922.2 4933.6 4930.3 4939.5 4938.4 4933.6 4946.5 4939.5 4949.6 4930 4941.5 4924.1 4949.6 4918.2 4946.5 4927.7 4954.6 4921.8 4946.5 4927.7 4938.4 4933.6 4946.5 4927.7 4949.6 4918.2 4946.5 4908.7 4949.6 4899.2 4941.5 4905.1 4949.6 4899.2 4941.5 4893.3 4938.4 4883.8 4928.4 4883.8 4936.5 4889.7 4939.6 4899.2 4947.7 4905.1 4944.6 4895.6 4952.7 4901.4 4944.6 4907.3 4952.7 4901.4 4955.8 4910.9" clip-path="url(#a)" fill="none" stroke="#000" stroke-linecap="round"/>
<polyline points="4955.8 4910.9 4947.7 4905.1 4955.8 4899.2 4965.8 4899.2 4973.9 4893.3 4982 4899.2 4990 4905.1 4987 4914.6 4977 4914.6 4980 4905.1 4970 4905.1 4973.1 4895.6 4965 4889.7 4957 4883.8 4947 4883.8 4950 4893.3 4942 4887.4 4950 4893.3 4960 4893.3 4963.1 4902.8 4953.1 4902.8 4956.2 4893.3 4953.1 4883.8 4945 4889.7 4953.1 4895.6 4963.1 4895.6 4973.1 4895.6 4963.1 4895.6 4960 4886 4957 4876.5 4947 4876.5 4937 4876.5 4945 4882.4 4937 4888.3 4933.9 4878.8 4942 4872.9 4945 4863.4 4942 4872.9 4938.9 4863.4 4942 4853.9 4950 4848 4947 4857.5 4950 4848" clip-path="url(#a)" fill="none" stroke="#000" stroke-linecap="round"/>
<polyline points="4950 4848 4960 4848 4957 4857.5 4953.9 4867 4963.9 4867 4973.9 4867 4970.8 4876.5 4973.9 4886 4965.8 4880.2 4973.9 4874.3 4970.8 4864.8 4962.7 4870.7 4970.8 4864.8 4960.8 4864.8 4952.7 4858.9 4955.8 4868.4 4947.7 4874.3 4939.6 4868.4 4931.5 4862.5 4939.6 4868.4 4936.5 4858.9 4944.6 4864.8 4952.7 4870.7 4944.6 4876.5 4952.7 4870.7 4960.8 4864.8 4968.9 4870.7 4960.8 4864.8 4957.7 4874.3 4965.8 4880.2 4962.7 4870.7 4952.7 4870.7 4955.8 4880.2 4965.8 4880.2 4975.8 4880.2 4978.9 4889.7 4987 4895.6 4990 4905.1 4998.1 4910.9 5008.1 4910.9 5011.2 4901.4 5014.3 4910.9 5024.3 4910.9" clip-path="url(#a)" fill="none" stroke="#000" stroke-linecap="round"/>
<polyline points="5024.3 4910.9 5021.2 4920.5 5013.1 4926.3 5005 4920.5 5015 4920.5 5012 4910.9 5008.9 4920.5 4998.9 4920.5 4990.8 4926.3 4993.9 4935.8 5003.9 4935.8 5007 4945.4 4998.9 4939.5 5008.9 4939.5 5012 4949 5008.9 4958.5 5017 4952.6 5020 4943.1 5028.1 4937.2 5031.2 4946.7 5028.1 4956.3 5031.2 4946.7 5023.1 4940.9 5015 4946.7 5012 4956.3 5002 4956.3 5010 4962.1 5013.1 4952.6 5016.2 4943.1 5019.3 4933.6 5009.3 4933.6 5017.4 4939.5 5027.4 4939.5 5030.5 4930 5038.6 4924.1 5035.5 4933.6 5027.4 4939.5 5030.5 4949 5022.4 4954.9 5030.5 4960.7 5038.6 4954.9 5041.7 4964.4 5033.6 4958.5" clip-path="url(#a)" fill="none" stroke="#000" stroke-linecap="round"/>
<polyline points="5033.6 4958.5 5036.7 4968 5033.6 4958.5 5030.5 4949 5033.6 4958.5 5041.7 4964.4 5051.7 4964.4 5059.8 4970.3 5056.7 4960.7 5059.8 4970.3 5067.9 4964.4 5077.9 4964.4 5081 4954.9 5072.9 4960.7 5062.9 4960.7 5054.8 4966.6 5064.8 4966.6 5056.7 4972.5 5053.6 4963 5056.7 4972.5 5046.7 4972.5 5054.8 4966.6 5057.9 4976.1 5054.8 4985.6 5057.9 4995.2 5049.8 5001 5041.7 5006.9 5033.6 5001 5036.7 4991.5 5044.8 4997.4 5047.9 4987.9 5056 4993.8 5064 4987.9 5072.1 4982 5075.2 4972.5 5065.2 4972.5 5073.3 4966.6 5065.2 4972.5 5062.1 4982 5052.1 4982 5055.2 4972.5 5063.3 4978.4 5073.3 4978.4" clip-path="url(#a)" fill="none" stroke="#000" stroke-linecap="round"/>
<polyline points="5073.3 4978.4 5070.2 4968.9 5062.1 4974.7 5059 4984.3 5056 4993.8 5059 4984.3 5069 4984.3 5079 4984.3 5082.1 4974.7 5085.2 4965.2 5077.1 4971.1 5074 4961.6 5084 4961.6 5087.1 4971.1 5095.2 4977 5087.1 4971.1 5097.1 4971.1 5105.2 4977 5108.3 4986.5 5100.2 4980.6 5108.3 4986.5 5105.2 4996 5097.1 4990.1 5089 4984.3 5086 4993.8 5082.9 5003.3 5074.8 4997.4 5064.8 4997.4 5072.9 4991.5 5076 5001 5086 5001 5082.9 4991.5 5086 5001 5089 4991.5 5097.1 4985.6 5087.1 4985.6 5084 4976.1 5092.1 4970.3 5100.2 4964.4 5092.1 4970.3 5102.1 4970.3 5094 4976.1 5086 4982" clip-path="url(#a)" fill="none" stroke="#000" stroke-linecap="round"/>
<polyline points="5086 4982 5082.9 4972.5 5086 4982 5089 4991.5 5081 4997.4 5089 4991.5 5081 4985.6 5072.9 4991.5 5082.9 4991.5 5086 4982 5076 4982 5072.9 4991.5 5069.8 5001 5059.8 5001 5051.7 5006.9 5041.7 5006.9 5033.6 5012.8 5030.5 5022.3 5038.6 5028.2 5028.6 5028.2 5025.5 5037.7 5017.4 5031.8 5014.3 5022.3 5022.4 5016.4 5019.3 5025.9 5029.3 5025.9 5021.2 5020.1 5024.3 5010.5 5021.2 5001 5011.2 5001 5008.1 5010.5 4998.1 5010.5 5006.2 5004.7 5003.1 5014.2 4993.1 5014.2 4985 5008.3 4988.1 5017.8 4996.2 5023.7 4999.3 5033.2 4989.3 5033.2 4981.2 5027.3 4989.3 5033.2 4997.4 5027.3" clip-path="url(#a)" fill="none" stroke="#000" stroke-linecap="round"/>
<polyline points="4997.4 5027.3 4994.3 5017.8 4986.2 5011.9 4989.3 5002.4 4981.2 5008.3 4989.3 5014.2 4997.4 5020.1 5005.5 5025.9 5008.6 5016.4 5000.5 5022.3 4997.4 5031.8 5005.5 5037.7 5008.6 5047.2 5000.5 5041.3 4997.4 5031.8 4987.4 5031.8 4984.3 5022.3 4976.2 5028.2 4979.3 5037.7 4969.3 5037.7 4977.4 5031.8 4967.4 5031.8 4977.4 5031.8 4987.4 5031.8 4977.4 5031.8 4969.3 5037.7 4966.2 5047.2 4958.1 5053.1 4968.1 5053.1 4958.1 5053.1 4961.2 5062.6 4958.1 5072.1 4966.2 5078 4963.1 5068.5 4966.2 5059 4963.1 5049.4 4960 5059 4957 5049.4 4967 5049.4 4957 5049.4 4960 5039.9 4963.1 5049.4 4953.1 5049.4" clip-path="url(#a)" fill="none" stroke="#000" stroke-linecap="round"/>
<polyline points="4953.1 5049.4 4945 5043.6 4935 5043.6 4932 5034.1 4928.9 5024.5 4937 5018.7 4945 5024.5 4937 5030.4 4945 5036.3 4937 5042.2 4940 5051.7 4943.1 5061.2 4951.2 5067.1 4954.3 5057.6 4957.4 5067.1 4954.3 5057.6 4946.2 5051.7 4949.3 5042.2 4957.4 5048.1 4949.3 5053.9 4946.2 5063.4 4956.2 5063.4 4953.1 5053.9 4945 5048.1 4937 5042.2 4945 5048.1 4942 5057.6 4938.9 5067.1 4947 5073 4955 5078.8 4952 5069.3 4962 5069.3 4958.9 5078.8 4948.9 5078.8 4940.8 5084.7 4948.9 5078.8 4945.8 5088.3 4937.7 5094.2 4927.7 5094.2 4935.8 5088.3 4927.7 5094.2 4919.6 5088.3 4927.7 5082.5" clip-path="url(#a)" fill="none" stroke="#000" stroke-linecap="round"/>
<polyline points="4927.7 5082.5 4935.8 5076.6 4927.7 5070.7 4919.6 5064.8 4927.7 5059 4930.8 5049.4 4933.9 5059 4923.9 5059 4920.8 5068.5 4930.8 5068.5 4920.8 5068.5 4928.9 5074.3 4932 5083.8 4935 5074.3 4945 5074.3 4948.1 5083.8 4951.2 5093.4 4948.1 5083.8 4945 5093.4 4942 5083.8 4938.9 5074.3 4948.9 5074.3 4938.9 5074.3 4928.9 5074.3 4925.8 5064.8 4928.9 5074.3 4937 5068.5 4933.9 5059 4930.8 5068.5 4938.9 5074.3 4942 5064.8 4933.9 5059 4925.8 5053.1 4928.9 5043.6 4925.8 5034.1 4928.9 5024.5 4925.8 5015 4917.7 5009.2 4909.6 5015 4912.7 5005.5 4904.6 4999.6 4912.7 4993.8 4922.7 4993.8" clip-path="url(#a)" fill="none" stroke="#000" stroke-linecap="round"/>
<polyline points="4922.7 4993.8 4925.8 5003.3 4917.7 4997.4 4914.6 5006.9 4922.7 5001 4930.8 5006.9 4940.8 5006.9 4943.9 4997.4 4935.8 4991.5 4938.9 4982 4942 4991.5 4933.9 4985.6 4937 4976.1 4945 4970.3 4935 4970.3 4927 4976.1 4917 4976.1 4920 4966.6 4928.1 4960.7 4920 4966.6 4923.1 4976.1 4933.1 4976.1 4941.2 4970.3 4949.3 4976.1 4946.2 4966.6 4938.1 4972.5 4930 4978.4 4922 4984.3 4930 4990.1 4927 4980.6 4918.9 4974.7 4910.8 4980.6 4900.8 4980.6 4908.9 4974.7 4918.9 4974.7 4922 4965.2 4932 4965.2 4928.9 4955.7 4918.9 4955.7 4922 4946.2 4925 4955.7 4928.1 4946.2 4925 4955.7" clip-path="url(#a)" fill="none" stroke="#000" stroke-linecap="round"/>
<polyline points="4925 4955.7 4922 4965.2 4925 4955.7 4922 4946.2 4913.9 4940.3 4910.8 4930.8 4907.7 4940.3 4910.8 4930.8 4900.8 4930.8 4892.7 4924.9 4884.6 4930.8 4894.6 4930.8 4902.7 4936.7 4912.7 4936.7 4904.6 4930.8 4914.6 4930.8 4911.5 4940.3 4914.6 4930.8 4922.7 4936.7 4912.7 4936.7 4915.8 4927.2 4923.9 4921.3 4927 4911.8 4937 4911.8 4947 4911.8 4950 4921.3 4942 4927.2 4938.9 4917.7 4930.8 4923.6 4927.7 4914 4917.7 4914 4907.7 4914 4899.6 4919.9 4907.7 4925.8 4897.7 4925.8 4907.7 4925.8 4915.8 4919.9 4923.9 4925.8 4915.8 4931.7 4912.7 4922.2 4904.6 4916.3 4901.5 4925.8 4911.5 4925.8" clip-path="url(#a)" fill="none" stroke="#000" stroke-linecap="round"/>
<polyline points="4911.5 4925.8 4919.6 4919.9 4927.7 4914 4919.6 4919.9 4911.5 4914 4903.4 4908.2 4895.3 4914 4887.2 4919.9 4897.2 4919.9 4894.1 4929.4 4886.1 4923.6 4889.1 4914 4886.1 4904.5 4889.1 4914 4881.1 4908.2 4878 4898.7 4881.1 4889.1 4884.1 4898.7 4881.1 4889.1 4889.1 4883.3 4892.2 4892.8 4895.3 4902.3 4903.4 4896.4 4911.5 4890.5 4914.6 4900 4922.7 4905.9 4912.7 4905.9 4915.8 4896.4 4907.7 4890.5 4904.6 4900 4907.7 4890.5 4899.6 4896.4 4889.6 4896.4 4897.7 4902.3 4894.6 4911.8 4884.6 4911.8 4874.6 4911.8 4884.6 4911.8 4876.5 4905.9 4886.5 4905.9 4896.5 4905.9 4893.4 4915.4 4896.5 4905.9" clip-path="url(#a)" fill="none" stroke="#000" stroke-linecap="round"/>
<polyline points="4896.5 4905.9 4899.6 4896.4 4909.6 4896.4 4899.6 4896.4 4902.7 4905.9 4912.7 4905.9 4904.6 4900 4896.5 4905.9 4904.6 4911.8 4912.7 4905.9 4920.8 4900 4928.9 4905.9 4938.9 4905.9 4947 4911.8 4957 4911.8 4965 4905.9 4962 4896.4 4970 4902.3 4978.1 4896.4 4981.2 4905.9 4978.1 4915.4 4968.1 4915.4 4976.2 4909.6 4968.1 4903.7 4971.2 4913.2 4963.1 4919.1 4960 4928.6 4968.1 4934.5 4976.2 4928.6 4984.3 4934.5 4974.3 4934.5 4982.4 4928.6 4990.5 4934.5 4993.6 4944 4996.7 4934.5 4993.6 4924.9 4996.7 4915.4 5004.8 4921.3 5007.9 4930.8 5004.8 4921.3 4994.8 4921.3 4991.7 4930.8 4994.8 4940.3" clip-path="url(#a)" fill="none" stroke="#000" stroke-linecap="round"/>
<polyline points="4994.8 4940.3 4986.7 4946.2 4996.7 4946.2 4993.6 4936.7 4990.5 4927.2 4987.4 4917.7 4979.3 4923.6 4989.3 4923.6 4997.4 4917.7 4994.3 4908.2 4997.4 4898.7 5000.5 4908.2 4997.4 4917.7 5005.5 4923.6 5002.4 4933.1 5012.4 4933.1 5015.5 4923.6 5023.6 4929.4 5013.6 4929.4 5021.7 4935.3 5013.6 4929.4 5005.5 4923.6 5013.6 4929.4 5023.6 4929.4 5031.7 4923.6 5041.7 4923.6 5033.6 4917.7 5041.7 4923.6 5044.8 4914 5052.9 4908.2 5049.8 4898.7 5046.7 4908.2 5038.6 4914 5035.5 4923.6 5043.6 4917.7 5040.5 4927.2 5032.4 4921.3 5040.5 4927.2 5032.4 4933.1 5035.5 4923.6 5043.6 4929.4 5046.7 4938.9 5054.8 4944.8" clip-path="url(#a)" fill="none" stroke="#000" stroke-linecap="round"/>
<polyline points="5054.8 4944.8 5051.7 4954.3 5048.6 4963.8 5038.6 4963.8 5035.5 4954.3 5045.5 4954.3 5042.4 4944.8 5052.4 4944.8 5055.5 4935.3 5058.6 4925.8 5055.5 4916.3 5047.4 4922.2 5050.5 4912.7 5047.4 4922.2 5050.5 4931.7 5042.4 4937.6 5039.3 4928 5049.3 4928 5057.4 4922.2 5049.3 4916.3 5046.2 4925.8 5049.3 4935.3 5052.4 4944.8 5049.3 4935.3 5057.4 4929.4 5065.5 4923.6 5062.4 4914 5059.3 4904.5 5056.2 4914 5048.1 4908.2 5056.2 4902.3 5064.3 4908.2 5074.3 4908.2 5064.3 4908.2 5072.4 4902.3 5082.4 4902.3 5090.5 4908.2 5080.5 4908.2 5090.5 4908.2 5093.6 4917.7 5083.6 4917.7 5073.6 4917.7 5076.7 4927.2" clip-path="url(#a)" fill="none" stroke="#000" stroke-linecap="round"/>
<polyline points="5076.7 4927.2 5079.8 4936.7 5069.8 4936.7 5061.7 4942.6 5064.8 4933.1 5072.9 4938.9 5081 4933.1 5072.9 4927.2 5081 4933.1 5077.9 4923.6 5081 4914 5072.9 4919.9 5064.8 4914 5067.9 4904.5 5071 4895 5067.9 4904.5 5076 4898.7 5072.9 4908.2 5069.8 4917.7 5061.7 4911.8 5069.8 4917.7 5077.9 4923.6 5074.8 4933.1 5077.9 4923.6 5067.9 4923.6 5064.8 4933.1 5072.9 4927.2 5069.8 4917.7 5061.7 4923.6 5064.8 4933.1 5067.9 4942.6 5059.8 4948.5 5056.7 4958 5048.6 4963.8 5045.5 4973.4 5048.6 4982.9 5058.6 4982.9 5050.5 4988.7 5053.6 4998.3 5043.6 4998.3 5035.5 4992.4 5038.6 4982.9 5041.7 4992.4" clip-path="url(#a)" fill="none" stroke="#000" stroke-linecap="round"/>
<polyline points="5041.7 4992.4 5049.8 4986.5 5039.8 4986.5 5036.7 4977 5028.6 4971.1 5020.5 4977 5023.6 4986.5 5015.5 4992.4 5018.6 4982.9 5021.7 4992.4 5013.6 4998.3 5003.6 4998.3 5011.7 5004.1 5021.7 5004.1 5029.8 5010 5021.7 5015.9 5011.7 5015.9 5021.7 5015.9 5024.8 5006.4 5016.7 5000.5 5006.7 5000.5 5003.6 4991 5000.5 5000.5 5010.5 5000.5 5020.5 5000.5 5030.5 5000.5 5027.4 4991 5024.3 5000.5 5027.4 5010 5037.4 5010 5045.5 5015.9 5035.5 5015.9 5027.4 5010 5019.3 5015.9 5011.2 5010 5008.1 5019.5 5016.2 5025.4 5008.1 5031.3 5011.2 5021.8 5003.1 5027.6 5011.2 5021.8 5019.3 5015.9 5011.2 5021.8" clip-path="url(#a)" fill="none" stroke="#000" stroke-linecap="round"/>
<polyline points="5011.2 5021.8 5008.1 5031.3 5011.2 5040.8 5008.1 5050.3 5016.2 5044.4 5008.1 5050.3 5016.2 5056.2 5019.3 5065.7 5029.3 5065.7 5021.2 5059.8 5018.1 5050.3 5010 5044.4 5013.1 5053.9 5005 5048.1 5013.1 5042.2 5005 5048.1 5002 5038.5 5010 5044.4 5002 5050.3 4992 5050.3 4983.9 5056.2 4975.8 5050.3 4967.7 5044.4 4970.8 5034.9 4980.8 5034.9 4977.7 5044.4 4987.7 5044.4 4984.6 5053.9 4992.7 5059.8 5000.8 5065.7 5010.8 5065.7 5007.7 5056.2 5015.8 5062.1 5007.7 5056.2 4997.7 5056.2 4994.6 5046.7 5004.6 5046.7 5001.5 5056.2 5004.6 5065.7 5012.7 5059.8 5004.6 5053.9 4994.6 5053.9 4984.6 5053.9" clip-path="url(#a)" fill="none" stroke="#000" stroke-linecap="round"/>
<polyline points="4984.6 5053.9 4994.6 5053.9 4997.7 5063.4 5000.8 5073 5010.8 5073 5020.8 5073 5012.7 5067.1 5020.8 5061.2 5023.9 5070.7 5015.8 5076.6 5012.7 5086.1 5015.8 5076.6 5018.9 5086.1 5015.8 5095.6 5007.7 5101.5 5010.8 5092 5007.7 5101.5 4997.7 5101.5 5000.8 5092 5003.9 5082.5 4993.9 5082.5 4983.9 5082.5 4987 5073 4983.9 5063.4 4992 5069.3 4983.9 5075.2 4987 5084.7 4995 5078.8 4987 5084.7 4997 5084.7 5005 5090.6 5002 5081.1 5010 5075.2 5018.1 5081.1 5026.2 5087 5018.1 5081.1 5021.2 5090.6 5013.1 5084.7 5005 5078.8 5013.1 5073 5005 5078.8 4997 5084.7 4988.9 5078.8" clip-path="url(#a)" fill="none" stroke="#000" stroke-linecap="round"/>
<polyline points="4988.9 5078.8 4997 5084.7 5e3 5075.2 4992 5069.3 4995 5078.8 5005 5078.8 5002 5069.3 4992 5069.3 4982 5069.3 4978.9 5059.8 4970.8 5053.9 4967.7 5044.4 4959.6 5038.5 4949.6 5038.5 4946.5 5048.1 4943.4 5038.5 4933.4 5038.5 4936.5 5029 4944.6 5023.2 4952.7 5029 4942.7 5029 4945.8 5038.5 4948.9 5029 4958.9 5029 4967 5023.2 4963.9 5013.6 4953.9 5013.6 4950.8 5004.1 4958.9 5010 4948.9 5010 4945.8 5000.5 4948.9 4991 4940.8 4996.9 4937.7 5006.4 4929.6 5012.3 4926.5 5002.7 4929.6 4993.2 4926.5 5002.7 4934.6 5008.6 4942.7 5002.7 4945.8 4993.2 4955.8 4993.2 4947.7 4987.4" clip-path="url(#a)" fill="none" stroke="#000" stroke-linecap="round"/>
<polyline points="4947.7 4987.4 4944.6 4996.9 4941.5 5006.4 4938.4 5015.9 4948.4 5015.9 4940.3 5010 4930.3 5010 4927.2 5019.5 4919.1 5025.4 4922.2 5015.9 4930.3 5010 4927.2 5000.5 4935.3 4994.6 4927.2 4988.7 4919.1 4994.6 4916.1 4985.1 4924.1 4991 4921.1 4981.5 4924.1 4991 4927.2 5000.5 4924.1 4991 4916.1 4985.1 4906.1 4985.1 4898 4979.2 4901.1 4988.7 4898 4979.2 4889.9 4985.1 4879.9 4985.1 4876.8 4994.6 4884.9 4988.7 4894.9 4988.7 4903 4982.9 4893 4982.9 4901.1 4977 4904.1 4986.5 4901.1 4977 4911.1 4977 4903 4982.9 4899.9 4973.4 4903 4963.8 4899.9 4954.3 4908 4948.5 4916.1 4942.6" clip-path="url(#a)" fill="none" stroke="#000" stroke-linecap="round"/>
<polyline points="4916.1 4942.6 4924.1 4948.5 4921.1 4958 4913 4952.1 4909.9 4961.6 4901.8 4955.7 4893.7 4961.6 4885.6 4967.5 4882.5 4977 4892.5 4977 4884.4 4982.9 4892.5 4977 4895.6 4967.5 4905.6 4967.5 4902.5 4977 4894.4 4971.1 4884.4 4971.1 4887.5 4980.6 4895.6 4974.7 4898.7 4965.2 4901.8 4955.7 4898.7 4965.2 4888.7 4965.2 4878.7 4965.2 4875.6 4974.7 4872.5 4984.3 4880.6 4978.4 4883.7 4987.9 4873.7 4987.9 4870.6 4978.4 4862.5 4972.5 4870.6 4978.4 4860.6 4978.4 4852.5 4972.5 4849.4 4963 4857.5 4968.9 4849.4 4963 4852.5 4953.5 4860.6 4959.4 4868.7 4965.2 4871.8 4955.7 4874.9 4946.2 4883 4952.1" clip-path="url(#a)" fill="none" stroke="#000" stroke-linecap="round"/>
<polyline points="4883 4952.1 4893 4952.1 4884.9 4958 4881.8 4948.5 4871.8 4948.5 4874.9 4958 4871.8 4948.5 4868.7 4958 4860.6 4963.8 4870.6 4963.8 4873.7 4973.4 4865.6 4979.2 4857.5 4985.1 4865.6 4979.2 4855.6 4979.2 4863.7 4973.4 4871.8 4967.5 4874.9 4977 4871.8 4967.5 4868.7 4958 4876.8 4952.1 4868.7 4958 4876.8 4963.8 4884.9 4958 4874.9 4958 4871.8 4967.5 4881.8 4967.5 4884.9 4958 4888 4948.5 4898 4948.5 4906.1 4942.6 4916.1 4942.6 4924.1 4936.7 4927.2 4927.2 4919.1 4921.3 4929.1 4921.3 4932.2 4911.8 4940.3 4917.7 4943.4 4927.2 4935.3 4933.1 4938.4 4923.6 4928.4 4923.6 4936.5 4929.4" clip-path="url(#a)" fill="none" stroke="#000" stroke-linecap="round"/>
<polyline points="4936.5 4929.4 4933.4 4938.9 4936.5 4948.5 4946.5 4948.5 4949.6 4938.9 4959.6 4938.9 4951.5 4944.8 4954.6 4935.3 4964.6 4935.3 4972.7 4941.2 4969.6 4931.7 4961.5 4925.8 4958.4 4916.3 4968.4 4916.3 4976.5 4922.2 4968.4 4916.3 4960.3 4922.2 4963.4 4931.7 4971.5 4937.6 4968.4 4947.1 4976.5 4941.2 4968.4 4935.3 4960.3 4929.4 4952.2 4923.6 4949.1 4933.1 4957.2 4927.2 4960.3 4917.7 4952.2 4911.8 4949.1 4902.3 4957.2 4908.2 4960.3 4917.7 4970.3 4917.7 4973.4 4927.2 4981.5 4921.3 4978.4 4911.8 4988.4 4911.8 4980.3 4917.7 4990.3 4917.7 4980.3 4917.7 4970.3 4917.7 4980.3 4917.7 4988.4 4911.8 4991.5 4902.3" clip-path="url(#a)" fill="none" stroke="#000" stroke-linecap="round"/>
<polyline points="4991.5 4902.3 4999.6 4896.4 4989.6 4896.4 4999.6 4896.4 4996.5 4886.9 4999.6 4877.4 4991.5 4871.5 4994.6 4881 4991.5 4890.5 4994.6 4900 4997.7 4890.5 5000.8 4900 4990.8 4900 5000.8 4900 4997.7 4909.6 4994.6 4900 5004.6 4900 5012.7 4905.9 5022.7 4905.9 5025.8 4915.4 5028.9 4924.9 5020.8 4930.8 5012.7 4924.9 5020.8 4919.1 5012.7 4913.2 5020.8 4907.3 5017.7 4897.8 5014.6 4888.3 5006.5 4882.4 5003.4 4891.9 5000.3 4882.4 5003.4 4891.9 5011.5 4897.8 5008.4 4907.3 5000.3 4901.4 5008.4 4895.6 5011.5 4886 5001.5 4886 5004.6 4895.6 5012.7 4901.4 5020.8 4907.3 5012.7 4901.4 5015.8 4891.9" clip-path="url(#a)" fill="none" stroke="#000" stroke-linecap="round"/>
<polyline points="5015.8 4891.9 5018.9 4882.4 5010.8 4876.5 5002.7 4870.7 5005.8 4880.2 4995.8 4880.2 4998.9 4870.7 5008.9 4870.7 5017 4864.8 5008.9 4870.7 5012 4861.1 5020 4855.3 5030 4855.3 5022 4861.1 5030 4855.3 5038.1 4861.1 5030 4867 5022 4872.9 5030 4878.8 5038.1 4884.7 5030 4890.5 5027 4900 5023.9 4890.5 5033.9 4890.5 5037 4881 5027 4881 5037 4881 5028.9 4875.1 5025.8 4865.6 5022.7 4875.1 5012.7 4875.1 5009.6 4865.6 5006.5 4856.1 5009.6 4865.6 5012.7 4856.1 5015.8 4865.6 5018.9 4875.1 5008.9 4875.1 5018.9 4875.1 5028.9 4875.1 5032 4884.7 5028.9 4875.1 5020.8 4881" clip-path="url(#a)" fill="none" stroke="#000" stroke-linecap="round"/>
<polyline points="5020.8 4881 5023.9 4890.5 5027 4881 5018.9 4875.1 5015.8 4884.7 5023.9 4890.5 5032 4896.4 5028.9 4905.9 5032 4915.4 5028.9 4924.9 5032 4934.5 5040 4940.3 5048.1 4934.5 5045 4944 5053.1 4949.8 5045 4955.7 5035 4955.7 5032 4946.2 5040 4952.1 5043.1 4942.6 5035 4948.5 5027 4942.6 5017 4942.6 5013.9 4952.1 5022 4958 5018.9 4967.5 5015.8 4958 5023.9 4963.8 5020.8 4973.4 5012.7 4979.2 5022.7 4979.2 5030.8 4973.4 5040.8 4973.4 5037.7 4982.9 5029.6 4988.7 5037.7 4982.9 5034.6 4973.4 5024.6 4973.4 5016.5 4979.2 5008.4 4973.4 5011.5 4982.9 5019.6 4977 5027.7 4971.1" clip-path="url(#a)" fill="none" stroke="#000" stroke-linecap="round"/>
<polyline points="5027.7 4971.1 5035.8 4965.2 5027.7 4959.4 5030.8 4968.9 5038.9 4974.7 5047 4968.9 5057 4968.9 5048.9 4974.7 5038.9 4974.7 5035.8 4984.3 5025.8 4984.3 5028.9 4993.8 5038.9 4993.8 5035.8 5003.3 5032.7 4993.8 5029.6 5003.3 5032.7 4993.8 5035.8 4984.3 5032.7 4993.8 5035.8 5003.3 5043.9 5009.2 5047 5018.7 5050 5009.2 5047 5018.7 5057 5018.7 5065 5024.5 5073.1 5018.7 5063.1 5018.7 5055 5012.8 5045 5012.8 5053.1 5018.7 5043.1 5018.7 5046.2 5009.2 5043.1 5018.7 5035 5012.8 5045 5012.8 5042 5022.3 5033.9 5028.2 5030.8 5037.7 5020.8 5037.7 5010.8 5037.7 5007.7 5028.2 5015.8 5022.3" clip-path="url(#a)" fill="none" stroke="#000" stroke-linecap="round"/>
<polyline points="5015.8 5022.3 5018.9 5031.8 5027 5025.9 5030 5035.4 5040 5035.4 5050 5035.4 5058.1 5029.6 5050 5023.7 5060 5023.7 5050 5023.7 5042 5029.6 5033.9 5023.7 5042 5017.8 5045 5027.3 5053.1 5033.2 5056.2 5023.7 5046.2 5023.7 5038.1 5029.6 5030 5035.4 5038.1 5029.6 5046.2 5035.4 5054.3 5041.3 5062.4 5035.4 5070.5 5029.6 5060.5 5029.6 5063.6 5020.1 5071.7 5025.9 5068.6 5035.4 5071.7 5045 5068.6 5035.4 5076.7 5041.3 5079.8 5050.8 5076.7 5060.3 5073.6 5050.8 5076.7 5060.3 5068.6 5066.2 5065.5 5056.7 5062.4 5047.2 5054.3 5053.1 5046.2 5059 5043.1 5049.4 5035 5043.6 5045 5043.6" clip-path="url(#a)" fill="none" stroke="#000" stroke-linecap="round"/>
<polyline points="5045 5043.6 5042 5053.1 5050 5059 5053.1 5049.4 5050 5059 5058.1 5053.1 5068.1 5053.1 5060 5047.2 5063.1 5037.7 5073.1 5037.7 5083.1 5037.7 5073.1 5037.7 5081.2 5043.6 5071.2 5043.6 5061.2 5043.6 5064.3 5034.1 5061.2 5043.6 5058.1 5053.1 5048.1 5053.1 5058.1 5053.1 5055 5043.6 5045 5043.6 5053.1 5049.4 5061.2 5043.6 5053.1 5037.7 5045 5043.6 5037 5049.4 5028.9 5043.6 5018.9 5043.6 5010.8 5037.7 5000.8 5037.7 4992.7 5043.6 4995.8 5053.1 4987.7 5047.2 4979.6 5053.1 4976.5 5043.6 4979.6 5034.1 4989.6 5034.1 4981.5 5039.9 4989.6 5045.8 4986.5 5036.3 4994.6 5030.4 4997.7 5020.9" clip-path="url(#a)" fill="none" stroke="#000" stroke-linecap="round"/>
<polyline points="4997.7 5020.9 4989.6 5015 4981.5 5020.9 4973.4 5015 4983.4 5015 4975.3 5020.9 4967.2 5015 4964.1 5005.5 4961.1 5015 4964.1 5024.5 4961.1 5034.1 4953 5028.2 4949.9 5018.7 4953 5028.2 4963 5028.2 4966.1 5018.7 4963 5009.2 4971.1 5003.3 4961.1 5003.3 4964.1 5012.8 4967.2 5022.3 4970.3 5031.8 4978.4 5025.9 4968.4 5025.9 4960.3 5031.8 4963.4 5041.3 4960.3 5050.8 4957.2 5041.3 4960.3 5031.8 4952.2 5025.9 4955.3 5016.4 4945.3 5016.4 4942.2 5025.9 4934.1 5020.1 4944.1 5020.1 4936.1 5014.2 4944.1 5020.1 4952.2 5025.9 4944.1 5020.1 4934.1 5020.1 4926.1 5025.9 4916.1 5025.9 4924.1 5031.8" clip-path="url(#a)" fill="none" stroke="#000" stroke-linecap="round"/>
<polyline points="4924.1 5031.8 4916.1 5025.9 4913 5035.4 4904.9 5041.3 4908 5050.8 4911.1 5041.3 4919.1 5035.4 4922.2 5025.9 4914.1 5031.8 4917.2 5022.3 4925.3 5028.2 4917.2 5022.3 4925.3 5016.4 4922.2 5025.9 4914.1 5020.1 4911.1 5010.5 4903 5004.7 4906.1 4995.2 4909.1 4985.6 4919.1 4985.6 4922.2 4995.2 4912.2 4995.2 4915.3 5004.7 4905.3 5004.7 4902.2 5014.2 4899.1 5023.7 4902.2 5033.2 4910.3 5027.3 4907.2 5036.8 4910.3 5027.3 4907.2 5017.8 4915.3 5011.9 4918.4 5021.4 4908.4 5021.4 4900.3 5027.3 4908.4 5033.2 4911.5 5023.7 4908.4 5014.2 4905.3 5004.7 4908.4 5014.2 4900.3 5020.1 4892.2 5025.9 4895.3 5035.4" clip-path="url(#a)" fill="none" stroke="#000" stroke-linecap="round"/>
<polyline points="4895.3 5035.4 4898.4 5045 4901.5 5035.4 4909.6 5041.3 4901.5 5047.2 4893.4 5041.3 4883.4 5041.3 4893.4 5041.3 4885.3 5047.2 4875.3 5047.2 4867.2 5041.3 4877.2 5041.3 4867.2 5041.3 4864.1 5031.8 4874.1 5031.8 4884.1 5031.8 4881.1 5022.3 4878 5012.8 4888 5012.8 4896.1 5006.9 4893 5016.4 4884.9 5010.5 4876.8 5016.4 4884.9 5022.3 4876.8 5016.4 4879.9 5025.9 4876.8 5035.4 4884.9 5029.6 4893 5035.4 4889.9 5045 4886.8 5054.5 4889.9 5045 4881.8 5050.8 4884.9 5041.3 4888 5031.8 4896.1 5037.7 4888 5031.8 4879.9 5025.9 4883 5016.4 4879.9 5025.9 4889.9 5025.9 4893 5016.4 4884.9 5022.3" clip-path="url(#a)" fill="none" stroke="#000" stroke-linecap="round"/>
<polyline points="4884.9 5022.3 4888 5031.8 4896.1 5025.9 4893 5016.4 4889.9 5006.9 4898 5001 4901.1 4991.5 4909.1 4985.6 4912.2 4976.1 4909.1 4966.6 4899.1 4966.6 4907.2 4960.7 4904.1 4951.2 4914.1 4951.2 4922.2 4957.1 4919.1 4966.6 4916.1 4957.1 4908 4963 4918 4963 4921.1 4972.5 4929.1 4978.4 4937.2 4972.5 4934.1 4963 4942.2 4957.1 4939.1 4966.6 4936.1 4957.1 4944.1 4951.2 4954.1 4951.2 4946.1 4945.4 4936.1 4945.4 4928 4939.5 4936.1 4933.6 4946.1 4933.6 4936.1 4933.6 4933 4943.1 4941.1 4949 4951.1 4949 4954.1 4958.5 4957.2 4949 4947.2 4949 4937.2 4949 4927.2 4949 4930.3 4958.5" clip-path="url(#a)" fill="none" stroke="#000" stroke-linecap="round"/>
<polyline points="4930.3 4958.5 4933.4 4949 4930.3 4939.5 4920.3 4939.5 4912.2 4933.6 4922.2 4933.6 4930.3 4939.5 4938.4 4933.6 4946.5 4939.5 4949.6 4930 4941.5 4924.1 4949.6 4918.2 4946.5 4927.7 4954.6 4921.8 4946.5 4927.7 4938.4 4933.6 4946.5 4927.7 4949.6 4918.2 4946.5 4908.7 4949.6 4899.2 4941.5 4905.1 4949.6 4899.2 4941.5 4893.3 4938.4 4883.8 4928.4 4883.8 4936.5 4889.7 4939.6 4899.2 4947.7 4905.1 4944.6 4895.6 4952.7 4901.4 4944.6 4907.3 4952.7 4901.4 4955.8 4910.9 4947.7 4905.1 4955.8 4899.2 4965.8 4899.2 4973.9 4893.3 4982 4899.2 4990 4905.1 4987 4914.6 4977 4914.6 4980 4905.1 4970 4905.1" clip-path="url(#a)" fill="none" stroke="#000" stroke-linecap="round"/>
<polyline points="4970 4905.1 4973.1 4895.6 4965 4889.7 4957 4883.8 4947 4883.8 4950 4893.3 4942 4887.4 4950 4893.3 4960 4893.3 4963.1 4902.8 4953.1 4902.8 4956.2 4893.3 4953.1 4883.8 4945 4889.7 4953.1 4895.6 4963.1 4895.6 4973.1 4895.6 4963.1 4895.6 4960 4886 4957 4876.5 4947 4876.5 4937 4876.5 4945 4882.4 4937 4888.3 4933.9 4878.8 4942 4872.9 4945 4863.4 4942 4872.9 4938.9 4863.4 4942 4853.9 4950 4848 4947 4857.5 4950 4848 4960 4848 4957 4857.5 4953.9 4867 4963.9 4867 4973.9 4867 4970.8 4876.5 4973.9 4886 4965.8 4880.2 4973.9 4874.3 4970.8 4864.8" clip-path="url(#a)" fill="none" stroke="#000" stroke-linecap="round"/>
<polyline points="4970.8 4864.8 4962.7 4870.7 4970.8 4864.8 4960.8 4864.8 4952.7 4858.9 4955.8 4868.4 4947.7 4874.3 4939.6 4868.4 4931.5 4862.5 4939.6 4868.4 4936.5 4858.9 4944.6 4864.8 4952.7 4870.7 4944.6 4876.5 4952.7 4870.7 4960.8 4864.8 4968.9 4870.7 4960.8 4864.8 4957.7 4874.3 4965.8 4880.2 4962.7 4870.7 4952.7 4870.7 4955.8 4880.2 4965.8 4880.2 4975.8 4880.2 4978.9 4889.7 4987 4895.6 4990 4905.1 4998.1 4910.9 5008.1 4910.9 5011.2 4901.4 5014.3 4910.9 5024.3 4910.9 5021.2 4920.5 5013.1 4926.3 5005 4920.5 5015 4920.5 5012 4910.9 5008.9 4920.5 4998.9 4920.5 4990.8 4926.3 4993.9 4935.8 5003.9 4935.8" clip-path="url(#a)" fill="none" stroke="#000" stroke-linecap="round"/>
<polyline points="5003.9 4935.8 5007 4945.4 4998.9 4939.5 5008.9 4939.5 5012 4949 5008.9 4958.5 5017 4952.6 5020 4943.1 5028.1 4937.2 5031.2 4946.7 5028.1 4956.3 5031.2 4946.7 5023.1 4940.9 5015 4946.7 5012 4956.3 5002 4956.3 5010 4962.1 5013.1 4952.6 5016.2 4943.1 5019.3 4933.6 5009.3 4933.6 5017.4 4939.5 5027.4 4939.5 5030.5 4930 5038.6 4924.1 5035.5 4933.6 5027.4 4939.5 5030.5 4949 5022.4 4954.9 5030.5 4960.7 5038.6 4954.9 5041.7 4964.4 5033.6 4958.5 5036.7 4968 5033.6 4958.5 5030.5 4949 5033.6 4958.5 5041.7 4964.4 5051.7 4964.4 5059.8 4970.3 5056.7 4960.7 5059.8 4970.3 5067.9 4964.4" clip-path="url(#a)" fill="none" stroke="#000" stroke-linecap="round"/>
<polyline points="5067.9 4964.4 5077.9 4964.4 5081 4954.9 5072.9 4960.7 5062.9 4960.7 5054.8 4966.6 5064.8 4966.6 5056.7 4972.5 5053.6 4963 5056.7 4972.5 5046.7 4972.5 5054.8 4966.6 5057.9 4976.1 5054.8 4985.6 5057.9 4995.2 5049.8 5001 5041.7 5006.9 5033.6 5001 5036.7 4991.5 5044.8 4997.4 5047.9 4987.9 5056 4993.8 5064 4987.9 5072.1 4982 5075.2 4972.5 5065.2 4972.5 5073.3 4966.6 5065.2 4972.5 5062.1 4982 5052.1 4982 5055.2 4972.5 5063.3 4978.4 5073.3 4978.4 5070.2 4968.9 5062.1 4974.7 5059 4984.3 5056 4993.8 5059 4984.3 5069 4984.3 5079 4984.3 5082.1 4974.7 5085.2 4965.2 5077.1 4971.1" clip-path="url(#a)" fill="none" stroke="#000" stroke-linecap="round"/>
<polyline points="5077.1 4971.1 5074 4961.6 5084 4961.6 5087.1 4971.1 5095.2 4977 5087.1 4971.1 5097.1 4971.1 5105.2 4977 5108.3 4986.5 5100.2 4980.6 5108.3 4986.5 5105.2 4996 5097.1 4990.1 5089 4984.3 5086 4993.8 5082.9 5003.3 5074.8 4997.4 5064.8 4997.4 5072.9 4991.5 5076 5001 5086 5001 5082.9 4991.5 5086 5001 5089 4991.5 5097.1 4985.6 5087.1 4985.6 5084 4976.1 5092.1 4970.3 5100.2 4964.4 5092.1 4970.3 5102.1 4970.3 5094 4976.1 5086 4982 5082.9 4972.5 5086 4982 5089 4991.5 5081 4997.4 5089 4991.5 5081 4985.6 5072.9 4991.5 5082.9 4991.5 5086 4982 5076 4982" clip-path="url(#a)" fill="none" stroke="#000" stroke-linecap="round"/>
<polyline points="5076 4982 5072.9 4991.5 5069.8 5001 5059.8 5001 5051.7 5006.9 5041.7 5006.9 5033.6 5012.8 5030.5 5022.3 5038.6 5028.2 5028.6 5028.2 5025.5 5037.7 5017.4 5031.8 5014.3 5022.3 5022.4 5016.4 5019.3 5025.9 5029.3 5025.9 5021.2 5020.1 5024.3 5010.5 5021.2 5001 5011.2 5001 5008.1 5010.5 4998.1 5010.5 5006.2 5004.7 5003.1 5014.2 4993.1 5014.2 4985 5008.3 4988.1 5017.8 4996.2 5023.7 4999.3 5033.2 4989.3 5033.2 4981.2 5027.3 4989.3 5033.2 4997.4 5027.3 4994.3 5017.8 4986.2 5011.9 4989.3 5002.4 4981.2 5008.3 4989.3 5014.2 4997.4 5020.1 5005.5 5025.9 5008.6 5016.4 5000.5 5022.3 4997.4 5031.8" clip-path="url(#a)" fill="none" stroke="#000" stroke-linecap="round"/>
<polyline points="4997.4 5031.8 5005.5 5037.7 5008.6 5047.2 5000.5 5041.3 4997.4 5031.8 4987.4 5031.8 4984.3 5022.3 4976.2 5028.2 4979.3 5037.7 4969.3 5037.7 4977.4 5031.8 4967.4 5031.8 4977.4 5031.8 4987.4 5031.8 4977.4 5031.8 4969.3 5037.7 4966.2 5047.2 4958.1 5053.1 4968.1 5053.1 4958.1 5053.1 4961.2 5062.6 4958.1 5072.1 4966.2 5078 4963.1 5068.5 4966.2 5059 4963.1 5049.4 4960 5059 4957 5049.4 4967 5049.4 4957 5049.4 4960 5039.9 4963.1 5049.4 4953.1 5049.4 4945 5043.6 4935 5043.6 4932 5034.1 4928.9 5024.5 4937 5018.7 4945 5024.5 4937 5030.4 4945 5036.3 4937 5042.2 4940 5051.7" clip-path="url(#a)" fill="none" stroke="#000" stroke-linecap="round"/>
<polyline points="4940 5051.7 4943.1 5061.2 4951.2 5067.1 4954.3 5057.6 4957.4 5067.1 4954.3 5057.6 4946.2 5051.7 4949.3 5042.2 4957.4 5048.1 4949.3 5053.9 4946.2 5063.4 4956.2 5063.4 4953.1 5053.9 4945 5048.1 4937 5042.2 4945 5048.1 4942 5057.6 4938.9 5067.1 4947 5073 4955 5078.8 4952 5069.3 4962 5069.3 4958.9 5078.8 4948.9 5078.8 4940.8 5084.7 4948.9 5078.8 4945.8 5088.3 4937.7 5094.2 4927.7 5094.2 4935.8 5088.3 4927.7 5094.2 4919.6 5088.3 4927.7 5082.5 4935.8 5076.6 4927.7 5070.7 4919.6 5064.8 4927.7 5059 4930.8 5049.4 4933.9 5059 4923.9 5059 4920.8 5068.5 4930.8 5068.5 4920.8 5068.5" clip-path="url(#a)" fill="none" stroke="#000" stroke-linecap="round"/>
<polyline points="4920.8 5068.5 4928.9 5074.3 4932 5083.8 4935 5074.3 4945 5074.3 4948.1 5083.8 4951.2 5093.4 4948.1 5083.8 4945 5093.4 4942 5083.8 4938.9 5074.3 4948.9 5074.3 4938.9 5074.3 4928.9 5074.3 4925.8 5064.8 4928.9 5074.3 4937 5068.5 4933.9 5059 4930.8 5068.5 4938.9 5074.3 4942 5064.8 4933.9 5059 4925.8 5053.1 4928.9 5043.6 4925.8 5034.1 4928.9 5024.5 4925.8 5015 4917.7 5009.2 4909.6 5015 4912.7 5005.5 4904.6 4999.6 4912.7 4993.8 4922.7 4993.8 4925.8 5003.3 4917.7 4997.4 4914.6 5006.9 4922.7 5001 4930.8 5006.9 4940.8 5006.9 4943.9 4997.4 4935.8 4991.5 4938.9 4982 4942 4991.5" clip-path="url(#a)" fill="none" stroke="#000" stroke-linecap="round"/>
<polyline points="4942 4991.5 4933.9 4985.6 4937 4976.1 4945 4970.3 4935 4970.3 4927 4976.1 4917 4976.1 4920 4966.6 4928.1 4960.7 4920 4966.6 4923.1 4976.1 4933.1 4976.1 4941.2 4970.3 4949.3 4976.1 4946.2 4966.6 4938.1 4972.5 4930 4978.4 4922 4984.3 4930 4990.1 4927 4980.6 4918.9 4974.7 4910.8 4980.6 4900.8 4980.6 4908.9 4974.7 4918.9 4974.7 4922 4965.2 4932 4965.2 4928.9 4955.7 4918.9 4955.7 4922 4946.2 4925 4955.7 4928.1 4946.2 4925 4955.7 4922 4965.2 4925 4955.7 4922 4946.2 4913.9 4940.3 4910.8 4930.8 4907.7 4940.3 4910.8 4930.8 4900.8 4930.8 4892.7 4924.9 4884.6 4930.8" clip-path="url(#a)" fill="none" stroke="#000" stroke-linecap="round"/>
<polyline points="4884.6 4930.8 4894.6 4930.8 4902.7 4936.7 4912.7 4936.7 4904.6 4930.8 4914.6 4930.8 4911.5 4940.3 4914.6 4930.8 4922.7 4936.7 4912.7 4936.7 4915.8 4927.2 4923.9 4921.3 4927 4911.8 4937 4911.8 4947 4911.8 4950 4921.3 4942 4927.2 4938.9 4917.7 4930.8 4923.6 4927.7 4914 4917.7 4914 4907.7 4914 4899.6 4919.9 4907.7 4925.8 4897.7 4925.8 4907.7 4925.8 4915.8 4919.9 4923.9 4925.8 4915.8 4931.7 4912.7 4922.2 4904.6 4916.3 4901.5 4925.8 4911.5 4925.8 4919.6 4919.9 4927.7 4914 4919.6 4919.9 4911.5 4914 4903.4 4908.2 4895.3 4914 4887.2 4919.9 4897.2 4919.9 4894.1 4929.4 4886.1 4923.6" clip-path="url(#a)" fill="none" stroke="#000" stroke-linecap="round"/>
<polyline points="4886.1 4923.6 4889.1 4914 4886.1 4904.5 4889.1 4914 4881.1 4908.2 4878 4898.7 4881.1 4889.1 4884.1 4898.7 4881.1 4889.1 4889.1 4883.3 4892.2 4892.8 4895.3 4902.3 4903.4 4896.4 4911.5 4890.5 4914.6 4900 4922.7 4905.9 4912.7 4905.9 4915.8 4896.4 4907.7 4890.5 4904.6 4900 4907.7 4890.5 4899.6 4896.4 4889.6 4896.4 4897.7 4902.3 4894.6 4911.8 4884.6 4911.8 4874.6 4911.8 4884.6 4911.8 4876.5 4905.9 4886.5 4905.9 4896.5 4905.9 4893.4 4915.4 4896.5 4905.9 4899.6 4896.4 4909.6 4896.4 4899.6 4896.4 4902.7 4905.9 4912.7 4905.9 4904.6 4900 4896.5 4905.9 4904.6 4911.8 4912.7 4905.9 4920.8 4900" clip-path="url(#a)" fill="none" stroke="#000" stroke-linecap="round"/>
<polyline points="4920.8 4900 4928.9 4905.9 4938.9 4905.9 4947 4911.8 4957 4911.8 4965 4905.9 4962 4896.4 4970 4902.3 4978.1 4896.4 4981.2 4905.9 4978.1 4915.4 4968.1 4915.4 4976.2 4909.6 4968.1 4903.7 4971.2 4913.2 4963.1 4919.1 4960 4928.6 4968.1 4934.5 4976.2 4928.6 4984.3 4934.5 4974.3 4934.5 4982.4 4928.6 4990.5 4934.5 4993.6 4944 4996.7 4934.5 4993.6 4924.9 4996.7 4915.4 5004.8 4921.3 5007.9 4930.8 5004.8 4921.3 4994.8 4921.3 4991.7 4930.8 4994.8 4940.3 4986.7 4946.2 4996.7 4946.2 4993.6 4936.7 4990.5 4927.2 4987.4 4917.7 4979.3 4923.6 4989.3 4923.6 4997.4 4917.7 4994.3 4908.2 4997.4 4898.7" clip-path="url(#a)" fill="none" stroke="#000" stroke-linecap="round"/>
<polyline points="4997.4 4898.7 5000.5 4908.2 4997.4 4917.7 5005.5 4923.6 5002.4 4933.1 5012.4 4933.1 5015.5 4923.6 5023.6 4929.4 5013.6 4929.4 5021.7 4935.3 5013.6 4929.4 5005.5 4923.6 5013.6 4929.4 5023.6 4929.4 5031.7 4923.6 5041.7 4923.6 5033.6 4917.7 5041.7 4923.6 5044.8 4914 5052.9 4908.2 5049.8 4898.7 5046.7 4908.2 5038.6 4914 5035.5 4923.6 5043.6 4917.7 5040.5 4927.2 5032.4 4921.3 5040.5 4927.2 5032.4 4933.1 5035.5 4923.6 5043.6 4929.4 5046.7 4938.9 5054.8 4944.8 5051.7 4954.3 5048.6 4963.8 5038.6 4963.8 5035.5 4954.3 5045.5 4954.3 5042.4 4944.8 5052.4 4944.8 5055.5 4935.3 5058.6 4925.8 5055.5 4916.3" clip-path="url(#a)" fill="none" stroke="#000" stroke-linecap="round"/>
<polyline points="5055.5 4916.3 5047.4 4922.2 5050.5 4912.7 5047.4 4922.2 5050.5 4931.7 5042.4 4937.6 5039.3 4928 5049.3 4928 5057.4 4922.2 5049.3 4916.3 5046.2 4925.8 5049.3 4935.3 5052.4 4944.8 5049.3 4935.3 5057.4 4929.4 5065.5 4923.6 5062.4 4914 5059.3 4904.5 5056.2 4914 5048.1 4908.2 5056.2 4902.3 5064.3 4908.2 5074.3 4908.2 5064.3 4908.2 5072.4 4902.3 5082.4 4902.3 5090.5 4908.2 5080.5 4908.2 5090.5 4908.2 5093.6 4917.7 5083.6 4917.7 5073.6 4917.7 5076.7 4927.2 5079.8 4936.7 5069.8 4936.7 5061.7 4942.6 5064.8 4933.1 5072.9 4938.9 5081 4933.1 5072.9 4927.2 5081 4933.1 5077.9 4923.6 5081 4914" clip-path="url(#a)" fill="none" stroke="#000" stroke-linecap="round"/>
<polyline points="5081 4914 5072.9 4919.9 5064.8 4914 5067.9 4904.5 5071 4895 5067.9 4904.5 5076 4898.7 5072.9 4908.2 5069.8 4917.7 5061.7 4911.8 5069.8 4917.7 5077.9 4923.6 5074.8 4933.1 5077.9 4923.6 5067.9 4923.6 5064.8 4933.1 5072.9 4927.2 5069.8 4917.7 5061.7 4923.6 5064.8 4933.1 5067.9 4942.6 5059.8 4948.5 5056.7 4958 5048.6 4963.8 5045.5 4973.4 5048.6 4982.9 5058.6 4982.9 5050.5 4988.7 5053.6 4998.3 5043.6 4998.3 5035.5 4992.4 5038.6 4982.9 5041.7 4992.4 5049.8 4986.5 5039.8 4986.5 5036.7 4977 5028.6 4971.1 5020.5 4977 5023.6 4986.5 5015.5 4992.4 5018.6 4982.9 5021.7 4992.4 5013.6 4998.3" clip-path="url(#a)" fill="none" stroke="#000" stroke-linecap="round"/>
<polyline points="5013.6 4998.3 5003.6 4998.3 5011.7 5004.1 5021.7 5004.1 5029.8 5010 5021.7 5015.9 5011.7 5015.9 5021.7 5015.9 5024.8 5006.4 5016.7 5000.5 5006.7 5000.5 5003.6 4991 5000.5 5000.5 5010.5 5000.5 5020.5 5000.5 5030.5 5000.5 5027.4 4991 5024.3 5000.5 5027.4 5010 5037.4 5010 5045.5 5015.9 5035.5 5015.9 5027.4 5010 5019.3 5015.9 5011.2 5010 5008.1 5019.5 5016.2 5025.4 5008.1 5031.3 5011.2 5021.8 5003.1 5027.6 5011.2 5021.8 5019.3 5015.9 5011.2 5021.8 5008.1 5031.3 5011.2 5040.8 5008.1 5050.3 5016.2 5044.4 5008.1 5050.3 5016.2 5056.2 5019.3 5065.7 5029.3 5065.7 5021.2 5059.8 5018.1 5050.3" clip-path="url(#a)" fill="none" stroke="#000" stroke-linecap="round"/>
<polyline points="5018.1 5050.3 5010 5044.4 5013.1 5053.9 5005 5048.1 5013.1 5042.2 5005 5048.1 5002 5038.5 5010 5044.4 5002 5050.3 4992 5050.3 4983.9 5056.2 4975.8 5050.3 4967.7 5044.4 4970.8 5034.9 4980.8 5034.9 4977.7 5044.4 4987.7 5044.4 4984.6 5053.9 4992.7 5059.8 5000.8 5065.7 5010.8 5065.7 5007.7 5056.2 5015.8 5062.1 5007.7 5056.2 4997.7 5056.2 4994.6 5046.7 5004.6 5046.7 5001.5 5056.2 5004.6 5065.7 5012.7 5059.8 5004.6 5053.9 4994.6 5053.9 4984.6 5053.9 4994.6 5053.9 4997.7 5063.4 5000.8 5073 5010.8 5073 5020.8 5073 5012.7 5067.1 5020.8 5061.2 5023.9 5070.7 5015.8 5076.6 5012.7 5086.1" clip-path="url(#a)" fill="none" stroke="#000" stroke-linecap="round"/>
<polyline points="5012.7 5086.1 5015.8 5076.6 5018.9 5086.1 5015.8 5095.6 5007.7 5101.5 5010.8 5092 5007.7 5101.5 4997.7 5101.5 5000.8 5092 5003.9 5082.5 4993.9 5082.5 4983.9 5082.5 4987 5073 4983.9 5063.4 4992 5069.3 4983.9 5075.2 4987 5084.7 4995 5078.8 4987 5084.7 4997 5084.7 5005 5090.6 5002 5081.1 5010 5075.2 5018.1 5081.1 5026.2 5087 5018.1 5081.1 5021.2 5090.6 5013.1 5084.7 5005 5078.8 5013.1 5073 5005 5078.8 4997 5084.7 4988.9 5078.8 4997 5084.7 5e3 5075.2 4992 5069.3 4995 5078.8 5005 5078.8 5002 5069.3 4992 5069.3 4982 5069.3 4978.9 5059.8 4970.8 5053.9" clip-path="url(#a)" fill="none" stroke="#000" stroke-linecap="round"/>
<polyline points="4970.8 5053.9 4967.7 5044.4 4959.6 5038.5 4949.6 5038.5 4946.5 5048.1 4943.4 5038.5 4933.4 5038.5 4936.5 5029 4944.6 5023.2 4952.7 5029 4942.7 5029 4945.8 5038.5 4948.9 5029 4958.9 5029 4967 5023.2 4963.9 5013.6 4953.9 5013.6 4950.8 5004.1 4958.9 5010 4948.9 5010 4945.8 5000.5 4948.9 4991 4940.8 4996.9 4937.7 5006.4 4929.6 5012.3 4926.5 5002.7 4929.6 4993.2 4926.5 5002.7 4934.6 5008.6 4942.7 5002.7 4945.8 4993.2 4955.8 4993.2 4947.7 4987.4 4944.6 4996.9 4941.5 5006.4 4938.4 5015.9 4948.4 5015.9 4940.3 5010 4930.3 5010 4927.2 5019.5 4919.1 5025.4 4922.2 5015.9 4930.3 5010" clip-path="url(#a)" fill="none" stroke="#000" stroke-linecap="round"/>
<polyline points="4930.3 5010 4927.2 5000.5 4935.3 4994.6 4927.2 4988.7 4919.1 4994.6 4916.1 4985.1 4924.1 4991 4921.1 4981.5 4924.1 4991 4927.2 5000.5 4924.1 4991 4916.1 4985.1 4906.1 4985.1 4898 4979.2 4901.1 4988.7 4898 4979.2 4889.9 4985.1 4879.9 4985.1 4876.8 4994.6 4884.9 4988.7 4894.9 4988.7 4903 4982.9 4893 4982.9 4901.1 4977 4904.1 4986.5 4901.1 4977 4911.1 4977 4903 4982.9 4899.9 4973.4 4903 4963.8 4899.9 4954.3 4908 4948.5 4916.1 4942.6 4924.1 4948.5 4921.1 4958 4913 4952.1 4909.9 4961.6 4901.8 4955.7 4893.7 4961.6 4885.6 4967.5 4882.5 4977 4892.5 4977 4884.4 4982.9" clip-path="url(#a)" fill="none" stroke="#000" stroke-linecap="round"/>
<polyline points="4884.4 4982.9 4892.5 4977 4895.6 4967.5 4905.6 4967.5 4902.5 4977 4894.4 4971.1 4884.4 4971.1 4887.5 4980.6 4895.6 4974.7 4898.7 4965.2 4901.8 4955.7 4898.7 4965.2 4888.7 4965.2 4878.7 4965.2 4875.6 4974.7 4872.5 4984.3 4880.6 4978.4 4883.7 4987.9 4873.7 4987.9 4870.6 4978.4 4862.5 4972.5 4870.6 4978.4 4860.6 4978.4 4852.5 4972.5 4849.4 4963 4857.5 4968.9 4849.4 4963 4852.5 4953.5 4860.6 4959.4 4868.7 4965.2 4871.8 4955.7 4874.9 4946.2 4883 4952.1 4893 4952.1 4884.9 4958 4881.8 4948.5 4871.8 4948.5 4874.9 4958 4871.8 4948.5 4868.7 4958 4860.6 4963.8 4870.6 4963.8 4873.7 4973.4" clip-path="url(#a)" fill="none" stroke="#000" stroke-linecap="round"/>
<polyline points="4873.7 4973.4 4865.6 4979.2 4857.5 4985.1 4865.6 4979.2 4855.6 4979.2 4863.7 4973.4 4871.8 4967.5 4874.9 4977 4871.8 4967.5 4868.7 4958 4876.8 4952.1 4868.7 4958 4876.8 4963.8 4884.9 4958 4874.9 4958 4871.8 4967.5 4881.8 4967.5 4884.9 4958 4888 4948.5 4898 4948.5 4906.1 4942.6 4916.1 4942.6 4924.1 4936.7 4927.2 4927.2 4919.1 4921.3 4929.1 4921.3 4932.2 4911.8 4940.3 4917.7 4943.4 4927.2 4935.3 4933.1 4938.4 4923.6 4928.4 4923.6 4936.5 4929.4 4933.4 4938.9 4936.5 4948.5 4946.5 4948.5 4949.6 4938.9 4959.6 4938.9 4951.5 4944.8 4954.6 4935.3 4964.6 4935.3 4972.7 4941.2 4969.6 4931.7" clip-path="url(#a)" fill="none" stroke="#000" stroke-linecap="round"/>
<polyline points="4969.6 4931.7 4961.5 4925.8 4958.4 4916.3 4968.4 4916.3 4976.5 4922.2 4968.4 4916.3 4960.3 4922.2 4963.4 4931.7 4971.5 4937.6 4968.4 4947.1 4976.5 4941.2 4968.4 4935.3 4960.3 4929.4 4952.2 4923.6 4949.1 4933.1 4957.2 4927.2 4960.3 4917.7 4952.2 4911.8 4949.1 4902.3 4957.2 4908.2 4960.3 4917.7 4970.3 4917.7 4973.4 4927.2 4981.5 4921.3 4978.4 4911.8 4988.4 4911.8 4980.3 4917.7 4990.3 4917.7 4980.3 4917.7 4970.3 4917.7 4980.3 4917.7 4988.4 4911.8 4991.5 4902.3 4999.6 4896.4 4989.6 4896.4 4999.6 4896.4 4996.5 4886.9 4999.6 4877.4 4991.5 4871.5 4994.6 4881 4991.5 4890.5 4994.6 4900 4997.7 4890.5" clip-path="url(#a)" fill="none" stroke="#000" stroke-linecap="round"/>
<polyline points="4997.7 4890.5 5000.8 4900 4990.8 4900 5000.8 4900 4997.7 4909.6 4994.6 4900 5004.6 4900 5012.7 4905.9 5022.7 4905.9 5025.8 4915.4 5028.9 4924.9 5020.8 4930.8 5012.7 4924.9 5020.8 4919.1 5012.7 4913.2 5020.8 4907.3 5017.7 4897.8 5014.6 4888.3 5006.5 4882.4 5003.4 4891.9 5000.3 4882.4 5003.4 4891.9 5011.5 4897.8 5008.4 4907.3 5000.3 4901.4 5008.4 4895.6 5011.5 4886 5001.5 4886 5004.6 4895.6 5012.7 4901.4 5020.8 4907.3 5012.7 4901.4 5015.8 4891.9 5018.9 4882.4 5010.8 4876.5 5002.7 4870.7 5005.8 4880.2 4995.8 4880.2 4998.9 4870.7 5008.9 4870.7 5017 4864.8 5008.9 4870.7 5012 4861.1" clip-path="url(#a)" fill="none" stroke="#000" stroke-linecap="round"/>
<polyline points="5012 4861.1 5020 4855.3 5030 4855.3 5022 4861.1 5030 4855.3 5038.1 4861.1 5030 4867 5022 4872.9 5030 4878.8 5038.1 4884.7 5030 4890.5 5027 4900 5023.9 4890.5 5033.9 4890.5 5037 4881 5027 4881 5037 4881 5028.9 4875.1 5025.8 4865.6 5022.7 4875.1 5012.7 4875.1 5009.6 4865.6 5006.5 4856.1 5009.6 4865.6 5012.7 4856.1 5015.8 4865.6 5018.9 4875.1 5008.9 4875.1 5018.9 4875.1 5028.9 4875.1 5032 4884.7 5028.9 4875.1 5020.8 4881 5023.9 4890.5 5027 4881 5018.9 4875.1 5015.8 4884.7 5023.9 4890.5 5032 4896.4 5028.9 4905.9 5032 4915.4 5028.9 4924.9 5032 4934.5" clip-path="url(#a)" fill="none" stroke="#000" stroke-linecap="round"/>
<polyline points="5032 4934.5 5040 4940.3 5048.1 4934.5 5045 4944 5053.1 4949.8 5045 4955.7 5035 4955.7 5032 4946.2 5040 4952.1 5043.1 4942.6 5035 4948.5 5027 4942.6 5017 4942.6 5013.9 4952.1 5022 4958 5018.9 4967.5 5015.8 4958 5023.9 4963.8 5020.8 4973.4 5012.7 4979.2 5022.7 4979.2 5030.8 4973.4 5040.8 4973.4 5037.7 4982.9 5029.6 4988.7 5037.7 4982.9 5034.6 4973.4 5024.6 4973.4 5016.5 4979.2 5008.4 4973.4 5011.5 4982.9 5019.6 4977 5027.7 4971.1 5035.8 4965.2 5027.7 4959.4 5030.8 4968.9 5038.9 4974.7 5047 4968.9 5057 4968.9 5048.9 4974.7 5038.9 4974.7 5035.8 4984.3 5025.8 4984.3" clip-path="url(#a)" fill="none" stroke="#000" stroke-linecap="round"/>
<polyline points="5025.8 4984.3 5028.9 4993.8 5038.9 4993.8 5035.8 5003.3 5032.7 4993.8 5029.6 5003.3 5032.7 4993.8 5035.8 4984.3 5032.7 4993.8 5035.8 5003.3 5043.9 5009.2 5047 5018.7 5050 5009.2 5047 5018.7 5057 5018.7 5065 5024.5 5073.1 5018.7 5063.1 5018.7 5055 5012.8 5045 5012.8 5053.1 5018.7 5043.1 5018.7 5046.2 5009.2 5043.1 5018.7 5035 5012.8 5045 5012.8 5042 5022.3 5033.9 5028.2 5030.8 5037.7 5020.8 5037.7 5010.8 5037.7 5007.7 5028.2 5015.8 5022.3 5018.9 5031.8 5027 5025.9 5030 5035.4 5040 5035.4 5050 5035.4 5058.1 5029.6 5050 5023.7 5060 5023.7 5050 5023.7 5042 5029.6" clip-path="url(#a)" fill="none" stroke="#000" stroke-linecap="round"/>
<polyline points="5042 5029.6 5033.9 5023.7 5042 5017.8 5045 5027.3 5053.1 5033.2 5056.2 5023.7 5046.2 5023.7 5038.1 5029.6 5030 5035.4 5038.1 5029.6 5046.2 5035.4 5054.3 5041.3 5062.4 5035.4 5070.5 5029.6 5060.5 5029.6 5063.6 5020.1 5071.7 5025.9 5068.6 5035.4 5071.7 5045 5068.6 5035.4 5076.7 5041.3 5079.8 5050.8 5076.7 5060.3 5073.6 5050.8 5076.7 5060.3 5068.6 5066.2 5065.5 5056.7 5062.4 5047.2 5054.3 5053.1 5046.2 5059 5043.1 5049.4 5035 5043.6 5045 5043.6 5042 5053.1 5050 5059 5053.1 5049.4 5050 5059 5058.1 5053.1 5068.1 5053.1 5060 5047.2 5063.1 5037.7 5073.1 5037.7 5083.1 5037.7" clip-path="url(#a)" fill="none" stroke="#000" stroke-linecap="round"/>
<polyline points="5083.1 5037.7 5073.1 5037.7 5081.2 5043.6 5071.2 5043.6 5061.2 5043.6 5064.3 5034.1 5061.2 5043.6 5058.1 5053.1 5048.1 5053.1 5058.1 5053.1 5055 5043.6 5045 5043.6 5053.1 5049.4 5061.2 5043.6 5053.1 5037.7 5045 5043.6 5037 5049.4 5028.9 5043.6 5018.9 5043.6 5010.8 5037.7 5000.8 5037.7 4992.7 5043.6 4995.8 5053.1 4987.7 5047.2 4979.6 5053.1 4976.5 5043.6 4979.6 5034.1 4989.6 5034.1 4981.5 5039.9 4989.6 5045.8 4986.5 5036.3 4994.6 5030.4 4997.7 5020.9 4989.6 5015 4981.5 5020.9 4973.4 5015 4983.4 5015 4975.3 5020.9 4967.2 5015 4964.1 5005.5 4961.1 5015 4964.1 5024.5 4961.1 5034.1" clip-path="url(#a)" fill="none" stroke="#000" stroke-linecap="round"/>
<polyline points="4961.1 5034.1 4953 5028.2 4949.9 5018.7 4953 5028.2 4963 5028.2 4966.1 5018.7 4963 5009.2 4971.1 5003.3 4961.1 5003.3 4964.1 5012.8 4967.2 5022.3 4970.3 5031.8 4978.4 5025.9 4968.4 5025.9 4960.3 5031.8 4963.4 5041.3 4960.3 5050.8 4957.2 5041.3 4960.3 5031.8 4952.2 5025.9 4955.3 5016.4 4945.3 5016.4 4942.2 5025.9 4934.1 5020.1 4944.1 5020.1 4936.1 5014.2 4944.1 5020.1 4952.2 5025.9 4944.1 5020.1 4934.1 5020.1 4926.1 5025.9 4916.1 5025.9 4924.1 5031.8 4916.1 5025.9 4913 5035.4 4904.9 5041.3 4908 5050.8 4911.1 5041.3 4919.1 5035.4 4922.2 5025.9 4914.1 5031.8 4917.2 5022.3 4925.3 5028.2" clip-path="url(#a)" fill="none" stroke="#000" stroke-linecap="round"/>
<polyline points="4925.3 5028.2 4917.2 5022.3 4925.3 5016.4 4922.2 5025.9 4914.1 5020.1 4911.1 5010.5 4903 5004.7 4906.1 4995.2 4909.1 4985.6 4919.1 4985.6 4922.2 4995.2 4912.2 4995.2 4915.3 5004.7 4905.3 5004.7 4902.2 5014.2 4899.1 5023.7 4902.2 5033.2 4910.3 5027.3 4907.2 5036.8 4910.3 5027.3 4907.2 5017.8 4915.3 5011.9 4918.4 5021.4 4908.4 5021.4 4900.3 5027.3 4908.4 5033.2 4911.5 5023.7 4908.4 5014.2 4905.3 5004.7 4908.4 5014.2 4900.3 5020.1 4892.2 5025.9 4895.3 5035.4 4898.4 5045 4901.5 5035.4 4909.6 5041.3 4901.5 5047.2 4893.4 5041.3 4883.4 5041.3 4893.4 5041.3 4885.3 5047.2 4875.3 5047.2 4867.2 5041.3" clip-path="url(#a)" fill="none" stroke="#000" stroke-linecap="round"/>
<polyline points="4867.2 5041.3 4877.2 5041.3 4867.2 5041.3 4864.1 5031.8 4874.1 5031.8 4884.1 5031.8 4881.1 5022.3 4878 5012.8 4888 5012.8 4896.1 5006.9 4893 5016.4 4884.9 5010.5 4876.8 5016.4 4884.9 5022.3 4876.8 5016.4 4879.9 5025.9 4876.8 5035.4 4884.9 5029.6 4893 5035.4 4889.9 5045 4886.8 5054.5 4889.9 5045 4881.8 5050.8 4884.9 5041.3 4888 5031.8 4896.1 5037.7 4888 5031.8 4879.9 5025.9 4883 5016.4 4879.9 5025.9 4889.9 5025.9 4893 5016.4 4884.9 5022.3 4888 5031.8 4896.1 5025.9 4893 5016.4 4889.9 5006.9 4898 5001 4901.1 4991.5 4909.1 4985.6 4912.2 4976.1 4909.1 4966.6 4899.1 4966.6" clip-path="url(#a)" fill="none" stroke="#000" stroke-linecap="round"/>
<polyline points="4899.1 4966.6 4907.2 4960.7 4904.1 4951.2 4914.1 4951.2 4922.2 4957.1 4919.1 4966.6 4916.1 4957.1 4908 4963 4918 4963 4921.1 4972.5 4929.1 4978.4 4937.2 4972.5 4934.1 4963 4942.2 4957.1 4939.1 4966.6 4936.1 4957.1 4944.1 4951.2 4954.1 4951.2 4946.1 4945.4 4936.1 4945.4 4928 4939.5 4936.1 4933.6 4946.1 4933.6 4936.1 4933.6 4933 4943.1 4941.1 4949 4951.1 4949 4954.1 4958.5 4957.2 4949 4947.2 4949 4937.2 4949 4927.2 4949 4930.3 4958.5 4933.4 4949 4930.3 4939.5 4920.3 4939.5 4912.2 4933.6 4922.2 4933.6 4930.3 4939.5 4938.4 4933.6 4946.5 4939.5 4949.6 4930 4941.5 4924.1" clip-path="url(#a)" fill="none" stroke="#000" stroke-linecap="round"/>
<polyline points="4941.5 4924.1 4949.6 4918.2 4946.5 4927.7 4954.6 4921.8 4946.5 4927.7 4938.4 4933.6 4946.5 4927.7 4949.6 4918.2 4946.5 4908.7 4949.6 4899.2 4941.5 4905.1 4949.6 4899.2 4941.5 4893.3 4938.4 4883.8 4928.4 4883.8 4936.5 4889.7 4939.6 4899.2 4947.7 4905.1 4944.6 4895.6 4952.7 4901.4 4944.6 4907.3 4952.7 4901.4 4955.8 4910.9 4947.7 4905.1 4955.8 4899.2 4965.8 4899.2 4973.9 4893.3 4982 4899.2 4990 4905.1 4987 4914.6 4977 4914.6 4980 4905.1 4970 4905.1 4973.1 4895.6 4965 4889.7 4957 4883.8 4947 4883.8 4950 4893.3 4942 4887.4 4950 4893.3 4960 4893.3 4963.1 4902.8 4953.1 4902.8" clip-path="url(#a)" fill="none" stroke="#000" stroke-linecap="round"/>
<polyline points="4953.1 4902.8 4956.2 4893.3 4953.1 4883.8 4945 4889.7 4953.1 4895.6 4963.1 4895.6 4973.1 4895.6 4963.1 4895.6 4960 4886 4957 4876.5 4947 4876.5 4937 4876.5 4945 4882.4 4937 4888.3 4933.9 4878.8 4942 4872.9 4945 4863.4 4942 4872.9 4938.9 4863.4 4942 4853.9 4950 4848 4947 4857.5 4950 4848 4960 4848 4957 4857.5 4953.9 4867 4963.9 4867 4973.9 4867 4970.8 4876.5 4973.9 4886 4965.8 4880.2 4973.9 4874.3 4970.8 4864.8 4962.7 4870.7 4970.8 4864.8 4960.8 4864.8 4952.7 4858.9 4955.8 4868.4 4947.7 4874.3 4939.6 4868.4 4931.5 4862.5 4939.6 4868.4 4936.5 4858.9" clip-path="url(#a)" fill="none" stroke="#000" stroke-linecap="round"/>
<polyline points="4936.5 4858.9 4944.6 4864.8 4952.7 4870.7 4944.6 4876.5 4952.7 4870.7 4960.8 4864.8 4968.9 4870.7 4960.8 4864.8 4957.7 4874.3 4965.8 4880.2 4962.7 4870.7 4952.7 4870.7 4955.8 4880.2 4965.8 4880.2 4975.8 4880.2 4978.9 4889.7 4987 4895.6 4990 4905.1 4998.1 4910.9 5008.1 4910.9 5011.2 4901.4 5014.3 4910.9 5024.3 4910.9 5021.2 4920.5 5013.1 4926.3 5005 4920.5 5015 4920.5 5012 4910.9 5008.9 4920.5 4998.9 4920.5 4990.8 4926.3 4993.9 4935.8 5003.9 4935.8 5007 4945.4 4998.9 4939.5 5008.9 4939.5 5012 4949 5008.9 4958.5 5017 4952.6 5020 4943.1 5028.1 4937.2 5031.2 4946.7 5028.1 4956.3" clip-path="url(#a)" fill="none" stroke="#000" stroke-linecap="round"/>
<polyline points="5028.1 4956.3 5031.2 4946.7 5023.1 4940.9 5015 4946.7 5012 4956.3 5002 4956.3 5010 4962.1 5013.1 4952.6 5016.2 4943.1 5019.3 4933.6 5009.3 4933.6 5017.4 4939.5 5027.4 4939.5 5030.5 4930 5038.6 4924.1 5035.5 4933.6 5027.4 4939.5 5030.5 4949 5022.4 4954.9 5030.5 4960.7 5038.6 4954.9 5041.7 4964.4 5033.6 4958.5 5036.7 4968 5033.6 4958.5 5030.5 4949 5033.6 4958.5 5041.7 4964.4 5051.7 4964.4 5059.8 4970.3 5056.7 4960.7 5059.8 4970.3 5067.9 4964.4 5077.9 4964.4 5081 4954.9 5072.9 4960.7 5062.9 4960.7 5054.8 4966.6 5064.8 4966.6 5056.7 4972.5 5053.6 4963 5056.7 4972.5 5046.7 4972.5" clip-path="url(#a)" fill="none" stroke="#000" stroke-linecap="round"/>
<polyline points="5046.7 4972.5 5054.8 4966.6 5057.9 4976.1 5054.8 4985.6 5057.9 4995.2 5049.8 5001 5041.7 5006.9 5033.6 5001 5036.7 4991.5 5044.8 4997.4 5047.9 4987.9 5056 4993.8 5064 4987.9 5072.1 4982 5075.2 4972.5 5065.2 4972.5 5073.3 4966.6 5065.2 4972.5 5062.1 4982 5052.1 4982 5055.2 4972.5 5063.3 4978.4 5073.3 4978.4 5070.2 4968.9 5062.1 4974.7 5059 4984.3 5056 4993.8 5059 4984.3 5069 4984.3 5079 4984.3 5082.1 4974.7 5085.2 4965.2 5077.1 4971.1 5074 4961.6 5084 4961.6 5087.1 4971.1 5095.2 4977 5087.1 4971.1 5097.1 4971.1 5105.2 4977 5108.3 4986.5 5100.2 4980.6 5108.3 4986.5" clip-path="url(#a)" fill="none" stroke="#000" stroke-linecap="round"/>
<polyline points="5108.3 4986.5 5105.2 4996 5097.1 4990.1 5089 4984.3 5086 4993.8 5082.9 5003.3 5074.8 4997.4 5064.8 4997.4 5072.9 4991.5 5076 5001 5086 5001 5082.9 4991.5 5086 5001 5089 4991.5 5097.1 4985.6 5087.1 4985.6 5084 4976.1 5092.1 4970.3 5100.2 4964.4 5092.1 4970.3 5102.1 4970.3 5094 4976.1 5086 4982 5082.9 4972.5 5086 4982 5089 4991.5 5081 4997.4 5089 4991.5 5081 4985.6 5072.9 4991.5 5082.9 4991.5 5086 4982 5076 4982 5072.9 4991.5 5069.8 5001 5059.8 5001 5051.7 5006.9 5041.7 5006.9 5033.6 5012.8 5030.5 5022.3 5038.6 5028.2 5028.6 5028.2 5025.5 5037.7" clip-path="url(#a)" fill="none" stroke="#000" stroke-linecap="round"/>
<polyline points="5025.5 5037.7 5017.4 5031.8 5014.3 5022.3 5022.4 5016.4 5019.3 5025.9 5029.3 5025.9 5021.2 5020.1 5024.3 5010.5 5021.2 5001 5011.2 5001 5008.1 5010.5 4998.1 5010.5 5006.2 5004.7 5003.1 5014.2 4993.1 5014.2 4985 5008.3 4988.1 5017.8 4996.2 5023.7 4999.3 5033.2 4989.3 5033.2 4981.2 5027.3 4989.3 5033.2 4997.4 5027.3 4994.3 5017.8 4986.2 5011.9 4989.3 5002.4 4981.2 5008.3 4989.3 5014.2 4997.4 5020.1 5005.5 5025.9 5008.6 5016.4 5000.5 5022.3 4997.4 5031.8 5005.5 5037.7 5008.6 5047.2 5000.5 5041.3 4997.4 5031.8 4987.4 5031.8 4984.3 5022.3 4976.2 5028.2 4979.3 5037.7 4969.3 5037.7 4977.4 5031.8" clip-path="url(#a)" fill="none" stroke="#000" stroke-linecap="round"/>
<polyline points="4977.4 5031.8 4967.4 5031.8 4977.4 5031.8 4987.4 5031.8 4977.4 5031.8 4969.3 5037.7 4966.2 5047.2 4958.1 5053.1 4968.1 5053.1 4958.1 5053.1 4961.2 5062.6 4958.1 5072.1 4966.2 5078 4963.1 5068.5 4966.2 5059 4963.1 5049.4 4960 5059 4957 5049.4 4967 5049.4 4957 5049.4 4960 5039.9 4963.1 5049.4 4953.1 5049.4 4945 5043.6 4935 5043.6 4932 5034.1 4928.9 5024.5 4937 5018.7 4945 5024.5 4937 5030.4 4945 5036.3 4937 5042.2 4940 5051.7 4943.1 5061.2 4951.2 5067.1 4954.3 5057.6 4957.4 5067.1 4954.3 5057.6 4946.2 5051.7 4949.3 5042.2 4957.4 5048.1 4949.3 5053.9 4946.2 5063.4" clip-path="url(#a)" fill="none" stroke="#000" stroke-linecap="round"/>
<polyline points="4946.2 5063.4 4956.2 5063.4 4953.1 5053.9 4945 5048.1 4937 5042.2 4945 5048.1 4942 5057.6 4938.9 5067.1 4947 5073 4955 5078.8 4952 5069.3 4962 5069.3 4958.9 5078.8 4948.9 5078.8 4940.8 5084.7 4948.9 5078.8 4945.8 5088.3 4937.7 5094.2 4927.7 5094.2 4935.8 5088.3 4927.7 5094.2 4919.6 5088.3 4927.7 5082.5 4935.8 5076.6 4927.7 5070.7 4919.6 5064.8 4927.7 5059 4930.8 5049.4 4933.9 5059 4923.9 5059 4920.8 5068.5 4930.8 5068.5 4920.8 5068.5 4928.9 5074.3 4932 5083.8 4935 5074.3 4945 5074.3 4948.1 5083.8 4951.2 5093.4 4948.1 5083.8 4945 5093.4 4942 5083.8 4938.9 5074.3" clip-path="url(#a)" fill="none" stroke="#000" stroke-linecap="round"/>
<polyline points="4938.9 5074.3 4948.9 5074.3 4938.9 5074.3 4928.9 5074.3 4925.8 5064.8 4928.9 5074.3 4937 5068.5 4933.9 5059 4930.8 5068.5 4938.9 5074.3 4942 5064.8 4933.9 5059 4925.8 5053.1 4928.9 5043.6 4925.8 5034.1 4928.9 5024.5 4925.8 5015 4917.7 5009.2 4909.6 5015 4912.7 5005.5 4904.6 4999.6 4912.7 4993.8 4922.7 4993.8 4925.8 5003.3 4917.7 4997.4 4914.6 5006.9 4922.7 5001 4930.8 5006.9 4940.8 5006.9 4943.9 4997.4 4935.8 4991.5 4938.9 4982 4942 4991.5 4933.9 4985.6 4937 4976.1 4945 4970.3 4935 4970.3 4927 4976.1 4917 4976.1 4920 4966.6 4928.1 4960.7 4920 4966.6 4923.1 4976.1" clip-path="url(#a)" fill="none" stroke="#000" stroke-linecap="round"/>
<polyline points="4923.1 4976.1 4933.1 4976.1 4941.2 4970.3 4949.3 4976.1 4946.2 4966.6 4938.1 4972.5 4930 4978.4 4922 4984.3 4930 4990.1 4927 4980.6 4918.9 4974.7 4910.8 4980.6 4900.8 4980.6 4908.9 4974.7 4918.9 4974.7 4922 4965.2 4932 4965.2 4928.9 4955.7 4918.9 4955.7 4922 4946.2 4925 4955.7 4928.1 4946.2 4925 4955.7 4922 4965.2 4925 4955.7 4922 4946.2 4913.9 4940.3 4910.8 4930.8 4907.7 4940.3 4910.8 4930.8 4900.8 4930.8 4892.7 4924.9 4884.6 4930.8 4894.6 4930.8 4902.7 4936.7 4912.7 4936.7 4904.6 4930.8 4914.6 4930.8 4911.5 4940.3 4914.6 4930.8 4922.7 4936.7 4912.7 4936.7 4915.8 4927.2" clip-path="url(#a)" fill="none" stroke="#000" stroke-linecap="round"/>
<polyline points="4915.8 4927.2 4923.9 4921.3 4927 4911.8 4937 4911.8 4947 4911.8 4950 4921.3 4942 4927.2 4938.9 4917.7 4930.8 4923.6 4927.7 4914 4917.7 4914 4907.7 4914 4899.6 4919.9 4907.7 4925.8 4897.7 4925.8 4907.7 4925.8 4915.8 4919.9 4923.9 4925.8 4915.8 4931.7 4912.7 4922.2 4904.6 4916.3 4901.5 4925.8 4911.5 4925.8 4919.6 4919.9 4927.7 4914 4919.6 4919.9 4911.5 4914 4903.4 4908.2 4895.3 4914 4887.2 4919.9 4897.2 4919.9 4894.1 4929.4 4886.1 4923.6 4889.1 4914 4886.1 4904.5 4889.1 4914 4881.1 4908.2 4878 4898.7 4881.1 4889.1 4884.1 4898.7 4881.1 4889.1 4889.1 4883.3 4892.2 4892.8" clip-path="url(#a)" fill="none" stroke="#000" stroke-linecap="round"/>
<polyline points="4892.2 4892.8 4895.3 4902.3 4903.4 4896.4 4911.5 4890.5 4914.6 4900 4922.7 4905.9 4912.7 4905.9 4915.8 4896.4 4907.7 4890.5 4904.6 4900 4907.7 4890.5 4899.6 4896.4 4889.6 4896.4 4897.7 4902.3 4894.6 4911.8 4884.6 4911.8 4874.6 4911.8 4884.6 4911.8 4876.5 4905.9 4886.5 4905.9 4896.5 4905.9 4893.4 4915.4 4896.5 4905.9 4899.6 4896.4 4909.6 4896.4 4899.6 4896.4 4902.7 4905.9 4912.7 4905.9 4904.6 4900 4896.5 4905.9 4904.6 4911.8 4912.7 4905.9 4920.8 4900 4928.9 4905.9 4938.9 4905.9 4947 4911.8 4957 4911.8 4965 4905.9 4962 4896.4 4970 4902.3 4978.1 4896.4 4981.2 4905.9 4978.1 4915.4" clip-path="url(#a)" fill="none" stroke="#000" stroke-linecap="round"/>
<polyline points="4978.1 4915.4 4968.1 4915.4 4976.2 4909.6 4968.1 4903.7 4971.2 4913.2 4963.1 4919.1 4960 4928.6 4968.1 4934.5 4976.2 4928.6 4984.3 4934.5 4974.3 4934.5 4982.4 4928.6 4990.5 4934.5 4993.6 4944 4996.7 4934.5 4993.6 4924.9 4996.7 4915.4 5004.8 4921.3 5007.9 4930.8 5004.8 4921.3 4994.8 4921.3 4991.7 4930.8 4994.8 4940.3 4986.7 4946.2 4996.7 4946.2 4993.6 4936.7 4990.5 4927.2 4987.4 4917.7 4979.3 4923.6 4989.3 4923.6 4997.4 4917.7 4994.3 4908.2 4997.4 4898.7 5000.5 4908.2 4997.4 4917.7 5005.5 4923.6 5002.4 4933.1 5012.4 4933.1 5015.5 4923.6 5023.6 4929.4 5013.6 4929.4 5021.7 4935.3 5013.6 4929.4" clip-path="url(#a)" fill="none" stroke="#000" stroke-linecap="round"/>
<polyline points="5013.6 4929.4 5005.5 4923.6 5013.6 4929.4 5023.6 4929.4 5031.7 4923.6 5041.7 4923.6 5033.6 4917.7 5041.7 4923.6 5044.8 4914 5052.9 4908.2 5049.8 4898.7 5046.7 4908.2 5038.6 4914 5035.5 4923.6 5043.6 4917.7 5040.5 4927.2 5032.4 4921.3 5040.5 4927.2 5032.4 4933.1 5035.5 4923.6 5043.6 4929.4 5046.7 4938.9 5054.8 4944.8 5051.7 4954.3 5048.6 4963.8 5038.6 4963.8 5035.5 4954.3 5045.5 4954.3 5042.4 4944.8 5052.4 4944.8 5055.5 4935.3 5058.6 4925.8 5055.5 4916.3 5047.4 4922.2 5050.5 4912.7 5047.4 4922.2 5050.5 4931.7 5042.4 4937.6 5039.3 4928 5049.3 4928 5057.4 4922.2 5049.3 4916.3 5046.2 4925.8" clip-path="url(#a)" fill="none" stroke="#000" stroke-linecap="round"/>
<polyline points="5046.2 4925.8 5049.3 4935.3 5052.4 4944.8 5049.3 4935.3 5057.4 4929.4 5065.5 4923.6 5062.4 4914 5059.3 4904.5 5056.2 4914 5048.1 4908.2 5056.2 4902.3 5064.3 4908.2 5074.3 4908.2 5064.3 4908.2 5072.4 4902.3 5082.4 4902.3 5090.5 4908.2 5080.5 4908.2 5090.5 4908.2 5093.6 4917.7 5083.6 4917.7 5073.6 4917.7 5076.7 4927.2 5079.8 4936.7 5069.8 4936.7 5061.7 4942.6 5064.8 4933.1 5072.9 4938.9 5081 4933.1 5072.9 4927.2 5081 4933.1 5077.9 4923.6 5081 4914 5072.9 4919.9 5064.8 4914 5067.9 4904.5 5071 4895 5067.9 4904.5 5076 4898.7 5072.9 4908.2 5069.8 4917.7 5061.7 4911.8 5069.8 4917.7" clip-path="url(#a)" fill="none" stroke="#000" stroke-linecap="round"/>
<polyline points="5069.8 4917.7 5077.9 4923.6 5074.8 4933.1 5077.9 4923.6 5067.9 4923.6 5064.8 4933.1 5072.9 4927.2 5069.8 4917.7 5061.7 4923.6 5064.8 4933.1 5067.9 4942.6 5059.8 4948.5 5056.7 4958 5048.6 4963.8 5045.5 4973.4 5048.6 4982.9 5058.6 4982.9 5050.5 4988.7 5053.6 4998.3 5043.6 4998.3 5035.5 4992.4 5038.6 4982.9 5041.7 4992.4 5049.8 4986.5 5039.8 4986.5 5036.7 4977 5028.6 4971.1 5020.5 4977 5023.6 4986.5 5015.5 4992.4 5018.6 4982.9 5021.7 4992.4 5013.6 4998.3 5003.6 4998.3 5011.7 5004.1 5021.7 5004.1 5029.8 5010 5021.7 5015.9 5011.7 5015.9 5021.7 5015.9 5024.8 5006.4 5016.7 5000.5 5006.7 5000.5" clip-path="url(#a)" fill="none" stroke="#000" stroke-linecap="round"/>
<polyline points="5006.7 5000.5 5003.6 4991 5000.5 5000.5" clip-path="url(#a)" fill="none" stroke="#000" stroke-linecap="round"/>
</svg>
