<?xml version="1.0" encoding="utf-8" ?>
<svg baseProfile="full" height="10000px" version="1.1" width="10000px" xmlns="http://www.w3.org/2000/svg" xmlns:ev="http://www.w3.org/2001/xml-events" xmlns:xlink="http://www.w3.org/1999/xlink"><defs><clipPath id="border_clip"><rect height="10000" width="10000" x="0" y="0" /></clipPath></defs><polyline clip-path="url(#border_clip)" fill="none" points="5000.5,5000.5 5010.5,5000.5 5007.409830056251,4990.989434837048 4999.319660112501,4996.8672873599735 5007.409830056251,5002.745139882898 5010.5,4993.234574719946 5000.5,4993.234574719946 5003.590169943749,5002.745139882898 5011.680339887499,4996.8672873599735 5003.590169943749,4990.989434837048 5000.5,5000.5 5010.5,5000.5 5007.409830056251,4990.989434837048 4999.319660112501,4996.8672873599735 5007.409830056251,5002.745139882898 5010.5,4993.234574719946 5000.5,4993.234574719946 5003.590169943749,5002.745139882898 5011.680339887499,4996.8672873599735 5003.590169943749,4990.989434837048 5000.5,5000.5 5010.5,5000.5 5007.409830056251,4990.989434837048 4999.319660112501,4996.8672873599735 5007.409830056251,5002.745139882898 5010.5,4993.234574719946 5000.5,4993.234574719946 5003.590169943749,5002.745139882898 5011.680339887499,4996.8672873599735 5003.590169943749,4990.989434837048 5000.5,5000.5 5010.5,5000.5 5007.409830056251,4990.989434837048 4999.319660112501,4996.8672873599735 5007.409830056251,5002.745139882898 5010.5,4993.234574719946 5000.5,4993.234574719946 5003.590169943749,5002.745139882898 5011.680339887499,4996.8672873599735 5003.590169943749,4990.989434837048 5000.5,5000.5" stroke="black" stroke-linecap="round" stroke-width="1" /></svg>