<?xml version="1.0" encoding="UTF-8"?>
<svg width="1e4px" height="1e4px" baseProfile="full" version="1.1" viewBox="4999.3 4991 12.361 11.756" xmlns="http://www.w3.org/2000/svg">
<defs>
<clipPath id="a">
<rect width="1e4" height="1e4"/>
</clipPath>
</defs>
<polyline points="5000.5 5000.5 5010.5 5000.5 5007.4 4991 4999.3 4996.9 5007.4 5002.7 5010.5 4993.2 5000.5 4993.2 5003.6 5002.7 5011.7 4996.9 5003.6 4991 5000.5 5000.5 5010.5 5000.5 5007.4 4991 4999.3 4996.9 5007.4 5002.7 5010.5 4993.2 5000.5 4993.2 5003.6 5002.7 5011.7 4996.9 5003.6 4991 5000.5 5000.5 5010.5 5000.5 5007.4 4991 4999.3 4996.9 5007.4 5002.7 5010.5 4993.2 5000.5 4993.2 5003.6 5002.7 5011.7 4996.9 5003.6 4991 5000.5 5000.5 5010.5 5000.5 5007.4 4991 4999.3 4996.9 5007.4 5002.7 5010.5 4993.2 5000.5 4993.2 5003.6 5002.7 5011.7 4996.9 5003.6 4991 5000.5 5000.5" clip-path="url(#a)" fill="none" stroke="#000" stroke-linecap="round"/>
</svg>
