<?xml version="1.0" encoding="UTF-8"?>
<svg width="1e4px" height="1e4px" baseProfile="full" version="1.1" viewBox="4976.2 4920.5 299.61 141.6" xmlns="http://www.w3.org/2000/svg">
<defs>
<clipPath id="a">
<rect width="1e4" height="1e4"/>
</clipPath>
</defs>
<polyline points="5000.5 5000.5 5010.5 5000.5 5020.5 5000.5 5030.5 5000.5 5027.4 4991 5017.4 4991 5027.4 4991 5024.3 5000.5 5034.3 5000.5 5037.4 4991 5047.4 4991 5055.5 4996.9 5058.6 5006.4 5061.7 5015.9 5071.7 5015.9 5074.8 5006.4 5084.8 5006.4 5094.8 5006.4 5102.9 5000.5 5094.8 4994.6 5086.7 4988.7 5078.6 4994.6 5068.6 4994.6 5071.7 5004.1 5079.8 5010 5071.7 5004.1 5068.6 4994.6 5076.7 5000.5 5084.8 5006.4 5087.9 5015.9 5096 5021.8 5104 5015.9 5112.1 5010 5104 5015.9 5107.1 5025.4 5115.2 5031.3 5125.2 5031.3 5122.1 5040.8 5130.2 5046.7 5120.2 5046.7 5123.3 5056.2 5115.2 5062.1 5125.2 5062.1" clip-path="url(#a)" fill="none" stroke="#000" stroke-linecap="round"/>
<polyline points="5125.2 5062.1 5122.1 5052.5 5130.2 5058.4 5127.1 5048.9 5135.2 5043 5132.1 5033.5 5129 5024 5137.1 5018.1 5127.1 5018.1 5135.2 5012.3 5145.2 5012.3 5155.2 5012.3 5145.2 5012.3 5155.2 5012.3 5152.1 5002.7 5162.1 5002.7 5154 4996.9 5162.1 5002.7 5165.2 5012.3 5175.2 5012.3 5178.3 5021.8 5186.4 5015.9 5178.3 5010 5181.4 5000.5 5189.5 5006.4 5179.5 5006.4 5176.4 5015.9 5184.5 5021.8 5194.5 5021.8 5186.4 5015.9 5183.3 5006.4 5191.4 5000.5 5183.3 4994.6 5191.4 4988.7 5194.5 4979.2 5184.5 4979.2 5187.6 4988.7 5184.5 4979.2 5187.6 4988.7 5190.7 4998.3 5193.8 4988.7 5203.8 4988.7 5206.9 4998.3" clip-path="url(#a)" fill="none" stroke="#000" stroke-linecap="round"/>
<polyline points="5206.9 4998.3 5203.8 4988.7 5206.9 4979.2 5214.9 4973.4 5206.9 4967.5 5209.9 4977 5201.9 4982.9 5209.9 4977 5201.9 4971.1 5204.9 4980.6 5214.9 4980.6 5224.9 4980.6 5233 4974.7 5243 4974.7 5233 4974.7 5241.1 4980.6 5244.2 4971.1 5252.3 4965.2 5255.4 4974.7 5263.5 4968.9 5273.5 4968.9 5265.4 4963 5255.4 4963 5258.5 4972.5 5250.4 4966.6 5253.5 4957.1 5256.6 4947.6 5264.7 4953.5 5261.6 4963 5264.7 4972.5 5254.7 4972.5 5264.7 4972.5 5267.8 4982 5264.7 4991.5 5267.8 4982 5275.8 4987.9 5265.8 4987.9 5275.8 4987.9 5267.8 4982 5275.8 4976.1 5272.8 4966.6 5264.7 4972.5 5261.6 4982" clip-path="url(#a)" fill="none" stroke="#000" stroke-linecap="round"/>
<polyline points="5261.6 4982 5269.7 4987.9 5261.6 4993.8 5253.5 4999.6 5261.6 5005.5 5253.5 4999.6 5256.6 4990.1 5246.6 4990.1 5236.6 4990.1 5244.7 4984.3 5247.8 4974.7 5257.8 4974.7 5260.8 4984.3 5257.8 4993.8 5265.8 4999.6 5257.8 4993.8 5249.7 4987.9 5252.8 4978.4 5249.7 4968.9 5246.6 4978.4 5256.6 4978.4 5253.5 4968.9 5243.5 4968.9 5240.4 4978.4 5248.5 4972.5 5251.6 4982 5248.5 4972.5 5251.6 4982 5241.6 4982 5231.6 4982 5221.6 4982 5224.7 4991.5 5234.7 4991.5 5224.7 4991.5 5227.8 4982 5217.8 4982 5214.7 4991.5 5204.7 4991.5 5196.6 4985.6 5193.5 4976.1 5190.4 4966.6 5180.4 4966.6 5177.3 4976.1" clip-path="url(#a)" fill="none" stroke="#000" stroke-linecap="round"/>
<polyline points="5177.3 4976.1 5167.3 4976.1 5157.3 4976.1 5149.2 4982 5157.3 4987.9 5165.4 4993.8 5173.5 4987.9 5183.5 4987.9 5180.4 4978.4 5172.3 4972.5 5180.4 4978.4 5183.5 4987.9 5175.4 4982 5167.3 4976.1 5164.2 4966.6 5156.1 4960.7 5148 4966.6 5139.9 4972.5 5148 4966.6 5144.9 4957.1 5136.9 4951.2 5126.9 4951.2 5129.9 4941.7 5121.9 4935.8 5131.9 4935.8 5128.8 4926.3 5136.9 4920.5 5126.9 4920.5 5129.9 4930 5121.9 4924.1 5124.9 4933.6 5116.9 4939.5 5119.9 4949 5123 4958.5 5114.9 4964.4 5124.9 4964.4 5116.9 4970.3 5106.9 4970.3 5096.9 4970.3 5106.9 4970.3 5096.9 4970.3 5099.9 4979.8 5089.9 4979.8" clip-path="url(#a)" fill="none" stroke="#000" stroke-linecap="round"/>
<polyline points="5089.9 4979.8 5098 4985.6 5089.9 4979.8 5086.9 4970.3 5076.9 4970.3 5073.8 4960.7 5065.7 4966.6 5073.8 4972.5 5070.7 4982 5062.6 4976.1 5072.6 4976.1 5075.7 4966.6 5067.6 4960.7 5057.6 4960.7 5065.7 4966.6 5068.8 4976.1 5060.7 4982 5068.8 4987.9 5060.7 4993.8 5057.6 5003.3 5067.6 5003.3 5064.5 4993.8 5067.6 5003.3 5064.5 4993.8 5061.4 4984.3 5058.3 4993.8 5048.3 4993.8 5045.2 4984.3 5048.3 4993.8 5045.2 5003.3 5037.1 5009.2 5045.2 5015 5042.1 5005.5 5050.2 4999.6 5042.1 5005.5 5050.2 5011.4 5047.1 5001.9 5037.1 5001.9 5027.1 5001.9 5019 5007.8 5009 5007.8 5019 5007.8 5011 5001.9" clip-path="url(#a)" fill="none" stroke="#000" stroke-linecap="round"/>
<polyline points="5011 5001.9 5007.9 5011.4 4999.8 5017.3 4996.7 5007.8 4988.6 5013.6 4978.6 5013.6 4986.7 5019.5 4996.7 5019.5 4993.6 5010 5001.7 5015.9 4998.6 5025.4 4995.5 5034.9 4987.4 5029 4990.5 5019.5 4987.4 5010 4997.4 5010 4987.4 5010 4984.3 5000.5 4987.4 4991 4984.3 5000.5 4976.2 4994.6 4986.2 4994.6 4976.2 4994.6 4984.3 5000.5 4976.2 5006.4 4979.3 5015.9 4987.4 5010 4990.5 5000.5 4982.4 4994.6 4990.5 4988.7 4998.6 4982.9 4990.5 4977 4998.6 4982.9 4995.5 4992.4 5005.5 4992.4 5015.5 4992.4 5007.4 4998.3 5004.3 5007.8 4994.3 5007.8 4991.2 4998.3 4994.3 4988.7 4986.2 4982.9 4994.3 4988.7" clip-path="url(#a)" fill="none" stroke="#000" stroke-linecap="round"/>
<polyline points="4994.3 4988.7 5002.4 4994.6 4999.3 5004.1 5002.4 5013.6 5005.5 5004.1 4995.5 5004.1 4998.6 5013.6 5008.6 5013.6 5011.7 5004.1 5003.6 5010 5000.5 5000.5 5003.6 5010 5000.5 5000.5 5010.5 5000.5 5020.5 5000.5 5030.5 5000.5 5027.4 4991 5017.4 4991 5027.4 4991 5024.3 5000.5 5034.3 5000.5 5037.4 4991 5047.4 4991 5055.5 4996.9 5058.6 5006.4 5061.7 5015.9 5071.7 5015.9 5074.8 5006.4 5084.8 5006.4 5094.8 5006.4 5102.9 5000.5 5094.8 4994.6 5086.7 4988.7 5078.6 4994.6 5068.6 4994.6 5071.7 5004.1 5079.8 5010 5071.7 5004.1 5068.6 4994.6 5076.7 5000.5 5084.8 5006.4 5087.9 5015.9 5096 5021.8" clip-path="url(#a)" fill="none" stroke="#000" stroke-linecap="round"/>
<polyline points="5096 5021.8 5104 5015.9 5112.1 5010 5104 5015.9 5107.1 5025.4 5115.2 5031.3 5125.2 5031.3 5122.1 5040.8 5130.2 5046.7 5120.2 5046.7 5123.3 5056.2 5115.2 5062.1 5125.2 5062.1 5122.1 5052.5 5130.2 5058.4 5127.1 5048.9 5135.2 5043 5132.1 5033.5 5129 5024 5137.1 5018.1 5127.1 5018.1 5135.2 5012.3 5145.2 5012.3 5155.2 5012.3 5145.2 5012.3 5155.2 5012.3 5152.1 5002.7 5162.1 5002.7 5154 4996.9 5162.1 5002.7 5165.2 5012.3 5175.2 5012.3 5178.3 5021.8 5186.4 5015.9 5178.3 5010 5181.4 5000.5 5189.5 5006.4 5179.5 5006.4 5176.4 5015.9 5184.5 5021.8 5194.5 5021.8 5186.4 5015.9 5183.3 5006.4" clip-path="url(#a)" fill="none" stroke="#000" stroke-linecap="round"/>
<polyline points="5183.3 5006.4 5191.4 5000.5 5183.3 4994.6 5191.4 4988.7 5194.5 4979.2 5184.5 4979.2 5187.6 4988.7 5184.5 4979.2 5187.6 4988.7 5190.7 4998.3 5193.8 4988.7 5203.8 4988.7 5206.9 4998.3 5203.8 4988.7 5206.9 4979.2 5214.9 4973.4 5206.9 4967.5 5209.9 4977 5201.9 4982.9 5209.9 4977 5201.9 4971.1 5204.9 4980.6 5214.9 4980.6 5224.9 4980.6 5233 4974.7 5243 4974.7 5233 4974.7 5241.1 4980.6 5244.2 4971.1 5252.3 4965.2 5255.4 4974.7 5263.5 4968.9 5273.5 4968.9 5265.4 4963 5255.4 4963 5258.5 4972.5 5250.4 4966.6 5253.5 4957.1 5256.6 4947.6 5264.7 4953.5 5261.6 4963 5264.7 4972.5 5254.7 4972.5" clip-path="url(#a)" fill="none" stroke="#000" stroke-linecap="round"/>
<polyline points="5254.7 4972.5 5264.7 4972.5 5267.8 4982 5264.7 4991.5 5267.8 4982 5275.8 4987.9 5265.8 4987.9 5275.8 4987.9 5267.8 4982 5275.8 4976.1 5272.8 4966.6 5264.7 4972.5 5261.6 4982 5269.7 4987.9 5261.6 4993.8 5253.5 4999.6 5261.6 5005.5 5253.5 4999.6 5256.6 4990.1 5246.6 4990.1 5236.6 4990.1 5244.7 4984.3 5247.8 4974.7 5257.8 4974.7 5260.8 4984.3 5257.8 4993.8 5265.8 4999.6 5257.8 4993.8 5249.7 4987.9 5252.8 4978.4 5249.7 4968.9 5246.6 4978.4 5256.6 4978.4 5253.5 4968.9 5243.5 4968.9 5240.4 4978.4 5248.5 4972.5 5251.6 4982 5248.5 4972.5 5251.6 4982 5241.6 4982 5231.6 4982 5221.6 4982" clip-path="url(#a)" fill="none" stroke="#000" stroke-linecap="round"/>
<polyline points="5221.6 4982 5224.7 4991.5 5234.7 4991.5 5224.7 4991.5 5227.8 4982 5217.8 4982 5214.7 4991.5 5204.7 4991.5 5196.6 4985.6 5193.5 4976.1 5190.4 4966.6 5180.4 4966.6 5177.3 4976.1 5167.3 4976.1 5157.3 4976.1 5149.2 4982 5157.3 4987.9 5165.4 4993.8 5173.5 4987.9 5183.5 4987.9 5180.4 4978.4 5172.3 4972.5 5180.4 4978.4 5183.5 4987.9 5175.4 4982 5167.3 4976.1 5164.2 4966.6 5156.1 4960.7 5148 4966.6 5139.9 4972.5 5148 4966.6 5144.9 4957.1 5136.9 4951.2 5126.9 4951.2 5129.9 4941.7 5121.9 4935.8 5131.9 4935.8 5128.8 4926.3 5136.9 4920.5 5126.9 4920.5 5129.9 4930 5121.9 4924.1 5124.9 4933.6" clip-path="url(#a)" fill="none" stroke="#000" stroke-linecap="round"/>
<polyline points="5124.9 4933.6 5116.9 4939.5 5119.9 4949 5123 4958.5 5114.9 4964.4 5124.9 4964.4 5116.9 4970.3 5106.9 4970.3 5096.9 4970.3 5106.9 4970.3 5096.9 4970.3 5099.9 4979.8 5089.9 4979.8 5098 4985.6 5089.9 4979.8 5086.9 4970.3 5076.9 4970.3 5073.8 4960.7 5065.7 4966.6 5073.8 4972.5 5070.7 4982 5062.6 4976.1 5072.6 4976.1 5075.7 4966.6 5067.6 4960.7 5057.6 4960.7 5065.7 4966.6 5068.8 4976.1 5060.7 4982 5068.8 4987.9 5060.7 4993.8 5057.6 5003.3 5067.6 5003.3 5064.5 4993.8 5067.6 5003.3 5064.5 4993.8 5061.4 4984.3 5058.3 4993.8 5048.3 4993.8 5045.2 4984.3 5048.3 4993.8 5045.2 5003.3 5037.1 5009.2" clip-path="url(#a)" fill="none" stroke="#000" stroke-linecap="round"/>
<polyline points="5037.1 5009.2 5045.2 5015 5042.1 5005.5 5050.2 4999.6 5042.1 5005.5 5050.2 5011.4 5047.1 5001.9 5037.1 5001.9 5027.1 5001.9 5019 5007.8 5009 5007.8 5019 5007.8 5011 5001.9 5007.9 5011.4 4999.8 5017.3 4996.7 5007.8 4988.6 5013.6 4978.6 5013.6 4986.7 5019.5 4996.7 5019.5 4993.6 5010 5001.7 5015.9 4998.6 5025.4 4995.5 5034.9 4987.4 5029 4990.5 5019.5 4987.4 5010 4997.4 5010 4987.4 5010 4984.3 5000.5 4987.4 4991 4984.3 5000.5 4976.2 4994.6 4986.2 4994.6 4976.2 4994.6 4984.3 5000.5 4976.2 5006.4 4979.3 5015.9 4987.4 5010 4990.5 5000.5 4982.4 4994.6 4990.5 4988.7 4998.6 4982.9" clip-path="url(#a)" fill="none" stroke="#000" stroke-linecap="round"/>
<polyline points="4998.6 4982.9 4990.5 4977 4998.6 4982.9 4995.5 4992.4 5005.5 4992.4 5015.5 4992.4 5007.4 4998.3 5004.3 5007.8 4994.3 5007.8 4991.2 4998.3 4994.3 4988.7 4986.2 4982.9 4994.3 4988.7 5002.4 4994.6 4999.3 5004.1 5002.4 5013.6 5005.5 5004.1 4995.5 5004.1 4998.6 5013.6 5008.6 5013.6 5011.7 5004.1 5003.6 5010 5000.5 5000.5 5003.6 5010 5000.5 5000.5 5010.5 5000.5 5020.5 5000.5 5030.5 5000.5 5027.4 4991 5017.4 4991 5027.4 4991 5024.3 5000.5 5034.3 5000.5 5037.4 4991 5047.4 4991 5055.5 4996.9 5058.6 5006.4 5061.7 5015.9 5071.7 5015.9 5074.8 5006.4 5084.8 5006.4 5094.8 5006.4 5102.9 5000.5" clip-path="url(#a)" fill="none" stroke="#000" stroke-linecap="round"/>
<polyline points="5102.9 5000.5 5094.8 4994.6 5086.7 4988.7 5078.6 4994.6 5068.6 4994.6 5071.7 5004.1 5079.8 5010 5071.7 5004.1 5068.6 4994.6 5076.7 5000.5 5084.8 5006.4 5087.9 5015.9 5096 5021.8 5104 5015.9 5112.1 5010 5104 5015.9 5107.1 5025.4 5115.2 5031.3 5125.2 5031.3 5122.1 5040.8 5130.2 5046.7 5120.2 5046.7 5123.3 5056.2 5115.2 5062.1 5125.2 5062.1 5122.1 5052.5 5130.2 5058.4 5127.1 5048.9 5135.2 5043 5132.1 5033.5 5129 5024 5137.1 5018.1 5127.1 5018.1 5135.2 5012.3 5145.2 5012.3 5155.2 5012.3 5145.2 5012.3 5155.2 5012.3 5152.1 5002.7 5162.1 5002.7 5154 4996.9 5162.1 5002.7 5165.2 5012.3" clip-path="url(#a)" fill="none" stroke="#000" stroke-linecap="round"/>
<polyline points="5165.2 5012.3 5175.2 5012.3 5178.3 5021.8 5186.4 5015.9 5178.3 5010 5181.4 5000.5 5189.5 5006.4 5179.5 5006.4 5176.4 5015.9 5184.5 5021.8 5194.5 5021.8 5186.4 5015.9 5183.3 5006.4 5191.4 5000.5 5183.3 4994.6 5191.4 4988.7 5194.5 4979.2 5184.5 4979.2 5187.6 4988.7 5184.5 4979.2 5187.6 4988.7 5190.7 4998.3 5193.8 4988.7 5203.8 4988.7 5206.9 4998.3 5203.8 4988.7 5206.9 4979.2 5214.9 4973.4 5206.9 4967.5 5209.9 4977 5201.9 4982.9 5209.9 4977 5201.9 4971.1 5204.9 4980.6 5214.9 4980.6 5224.9 4980.6 5233 4974.7 5243 4974.7 5233 4974.7 5241.1 4980.6 5244.2 4971.1 5252.3 4965.2 5255.4 4974.7" clip-path="url(#a)" fill="none" stroke="#000" stroke-linecap="round"/>
<polyline points="5255.4 4974.7 5263.5 4968.9 5273.5 4968.9 5265.4 4963 5255.4 4963 5258.5 4972.5 5250.4 4966.6 5253.5 4957.1 5256.6 4947.6 5264.7 4953.5 5261.6 4963 5264.7 4972.5 5254.7 4972.5 5264.7 4972.5 5267.8 4982 5264.7 4991.5 5267.8 4982 5275.8 4987.9 5265.8 4987.9 5275.8 4987.9 5267.8 4982 5275.8 4976.1 5272.8 4966.6 5264.7 4972.5 5261.6 4982 5269.7 4987.9 5261.6 4993.8 5253.5 4999.6 5261.6 5005.5 5253.5 4999.6 5256.6 4990.1 5246.6 4990.1 5236.6 4990.1 5244.7 4984.3 5247.8 4974.7 5257.8 4974.7 5260.8 4984.3 5257.8 4993.8 5265.8 4999.6 5257.8 4993.8 5249.7 4987.9 5252.8 4978.4 5249.7 4968.9" clip-path="url(#a)" fill="none" stroke="#000" stroke-linecap="round"/>
<polyline points="5249.7 4968.9 5246.6 4978.4 5256.6 4978.4 5253.5 4968.9 5243.5 4968.9 5240.4 4978.4 5248.5 4972.5 5251.6 4982 5248.5 4972.5 5251.6 4982 5241.6 4982 5231.6 4982 5221.6 4982 5224.7 4991.5 5234.7 4991.5 5224.7 4991.5 5227.8 4982 5217.8 4982 5214.7 4991.5 5204.7 4991.5 5196.6 4985.6 5193.5 4976.1 5190.4 4966.6 5180.4 4966.6 5177.3 4976.1 5167.3 4976.1 5157.3 4976.1 5149.2 4982 5157.3 4987.9 5165.4 4993.8 5173.5 4987.9 5183.5 4987.9 5180.4 4978.4 5172.3 4972.5 5180.4 4978.4 5183.5 4987.9 5175.4 4982 5167.3 4976.1 5164.2 4966.6 5156.1 4960.7 5148 4966.6 5139.9 4972.5 5148 4966.6" clip-path="url(#a)" fill="none" stroke="#000" stroke-linecap="round"/>
<polyline points="5148 4966.6 5144.9 4957.1 5136.9 4951.2 5126.9 4951.2 5129.9 4941.7 5121.9 4935.8 5131.9 4935.8 5128.8 4926.3 5136.9 4920.5 5126.9 4920.5 5129.9 4930 5121.9 4924.1 5124.9 4933.6 5116.9 4939.5 5119.9 4949 5123 4958.5 5114.9 4964.4 5124.9 4964.4 5116.9 4970.3 5106.9 4970.3 5096.9 4970.3 5106.9 4970.3 5096.9 4970.3 5099.9 4979.8 5089.9 4979.8 5098 4985.6 5089.9 4979.8 5086.9 4970.3 5076.9 4970.3 5073.8 4960.7 5065.7 4966.6 5073.8 4972.5 5070.7 4982 5062.6 4976.1 5072.6 4976.1 5075.7 4966.6 5067.6 4960.7 5057.6 4960.7 5065.7 4966.6 5068.8 4976.1 5060.7 4982 5068.8 4987.9 5060.7 4993.8" clip-path="url(#a)" fill="none" stroke="#000" stroke-linecap="round"/>
<polyline points="5060.7 4993.8 5057.6 5003.3 5067.6 5003.3 5064.5 4993.8 5067.6 5003.3 5064.5 4993.8 5061.4 4984.3 5058.3 4993.8 5048.3 4993.8 5045.2 4984.3 5048.3 4993.8 5045.2 5003.3 5037.1 5009.2 5045.2 5015 5042.1 5005.5 5050.2 4999.6 5042.1 5005.5 5050.2 5011.4 5047.1 5001.9 5037.1 5001.9 5027.1 5001.9 5019 5007.8 5009 5007.8 5019 5007.8 5011 5001.9 5007.9 5011.4 4999.8 5017.3 4996.7 5007.8 4988.6 5013.6 4978.6 5013.6 4986.7 5019.5 4996.7 5019.5 4993.6 5010 5001.7 5015.9 4998.6 5025.4 4995.5 5034.9 4987.4 5029 4990.5 5019.5 4987.4 5010 4997.4 5010 4987.4 5010 4984.3 5000.5 4987.4 4991" clip-path="url(#a)" fill="none" stroke="#000" stroke-linecap="round"/>
<polyline points="4987.4 4991 4984.3 5000.5 4976.2 4994.6 4986.2 4994.6 4976.2 4994.6 4984.3 5000.5 4976.2 5006.4 4979.3 5015.9 4987.4 5010 4990.5 5000.5 4982.4 4994.6 4990.5 4988.7 4998.6 4982.9 4990.5 4977 4998.6 4982.9 4995.5 4992.4 5005.5 4992.4 5015.5 4992.4 5007.4 4998.3 5004.3 5007.8 4994.3 5007.8 4991.2 4998.3 4994.3 4988.7 4986.2 4982.9 4994.3 4988.7 5002.4 4994.6 4999.3 5004.1 5002.4 5013.6 5005.5 5004.1 4995.5 5004.1 4998.6 5013.6 5008.6 5013.6 5011.7 5004.1 5003.6 5010 5000.5 5000.5 5003.6 5010 5000.5 5000.5 5010.5 5000.5 5020.5 5000.5 5030.5 5000.5 5027.4 4991 5017.4 4991 5027.4 4991" clip-path="url(#a)" fill="none" stroke="#000" stroke-linecap="round"/>
<polyline points="5027.4 4991 5024.3 5000.5 5034.3 5000.5 5037.4 4991 5047.4 4991 5055.5 4996.9 5058.6 5006.4 5061.7 5015.9 5071.7 5015.9 5074.8 5006.4 5084.8 5006.4 5094.8 5006.4 5102.9 5000.5 5094.8 4994.6 5086.7 4988.7 5078.6 4994.6 5068.6 4994.6 5071.7 5004.1 5079.8 5010 5071.7 5004.1 5068.6 4994.6 5076.7 5000.5 5084.8 5006.4 5087.9 5015.9 5096 5021.8 5104 5015.9 5112.1 5010 5104 5015.9 5107.1 5025.4 5115.2 5031.3 5125.2 5031.3 5122.1 5040.8 5130.2 5046.7 5120.2 5046.7 5123.3 5056.2 5115.2 5062.1 5125.2 5062.1 5122.1 5052.5 5130.2 5058.4 5127.1 5048.9 5135.2 5043 5132.1 5033.5 5129 5024" clip-path="url(#a)" fill="none" stroke="#000" stroke-linecap="round"/>
<polyline points="5129 5024 5137.1 5018.1 5127.1 5018.1 5135.2 5012.3 5145.2 5012.3 5155.2 5012.3 5145.2 5012.3 5155.2 5012.3 5152.1 5002.7 5162.1 5002.7 5154 4996.9 5162.1 5002.7 5165.2 5012.3 5175.2 5012.3 5178.3 5021.8 5186.4 5015.9 5178.3 5010 5181.4 5000.5 5189.5 5006.4 5179.5 5006.4 5176.4 5015.9 5184.5 5021.8 5194.5 5021.8 5186.4 5015.9 5183.3 5006.4 5191.4 5000.5 5183.3 4994.6 5191.4 4988.7 5194.5 4979.2 5184.5 4979.2 5187.6 4988.7 5184.5 4979.2 5187.6 4988.7 5190.7 4998.3 5193.8 4988.7 5203.8 4988.7 5206.9 4998.3 5203.8 4988.7 5206.9 4979.2 5214.9 4973.4 5206.9 4967.5 5209.9 4977 5201.9 4982.9" clip-path="url(#a)" fill="none" stroke="#000" stroke-linecap="round"/>
<polyline points="5201.9 4982.9 5209.9 4977 5201.9 4971.1 5204.9 4980.6 5214.9 4980.6 5224.9 4980.6 5233 4974.7 5243 4974.7 5233 4974.7 5241.1 4980.6 5244.2 4971.1 5252.3 4965.2 5255.4 4974.7 5263.5 4968.9 5273.5 4968.9 5265.4 4963 5255.4 4963 5258.5 4972.5 5250.4 4966.6 5253.5 4957.1 5256.6 4947.6 5264.7 4953.5 5261.6 4963 5264.7 4972.5 5254.7 4972.5 5264.7 4972.5 5267.8 4982 5264.7 4991.5 5267.8 4982 5275.8 4987.9 5265.8 4987.9 5275.8 4987.9 5267.8 4982 5275.8 4976.1 5272.8 4966.6 5264.7 4972.5 5261.6 4982 5269.7 4987.9 5261.6 4993.8 5253.5 4999.6 5261.6 5005.5 5253.5 4999.6 5256.6 4990.1" clip-path="url(#a)" fill="none" stroke="#000" stroke-linecap="round"/>
<polyline points="5256.6 4990.1 5246.6 4990.1 5236.6 4990.1 5244.7 4984.3 5247.8 4974.7 5257.8 4974.7 5260.8 4984.3 5257.8 4993.8 5265.8 4999.6 5257.8 4993.8 5249.7 4987.9 5252.8 4978.4 5249.7 4968.9 5246.6 4978.4 5256.6 4978.4 5253.5 4968.9 5243.5 4968.9 5240.4 4978.4 5248.5 4972.5 5251.6 4982 5248.5 4972.5 5251.6 4982 5241.6 4982 5231.6 4982 5221.6 4982 5224.7 4991.5 5234.7 4991.5 5224.7 4991.5 5227.8 4982 5217.8 4982 5214.7 4991.5 5204.7 4991.5 5196.6 4985.6 5193.5 4976.1 5190.4 4966.6 5180.4 4966.6 5177.3 4976.1 5167.3 4976.1 5157.3 4976.1 5149.2 4982 5157.3 4987.9 5165.4 4993.8 5173.5 4987.9" clip-path="url(#a)" fill="none" stroke="#000" stroke-linecap="round"/>
<polyline points="5173.5 4987.9 5183.5 4987.9 5180.4 4978.4 5172.3 4972.5 5180.4 4978.4 5183.5 4987.9 5175.4 4982 5167.3 4976.1 5164.2 4966.6 5156.1 4960.7 5148 4966.6 5139.9 4972.5 5148 4966.6 5144.9 4957.1 5136.9 4951.2 5126.9 4951.2 5129.9 4941.7 5121.9 4935.8 5131.9 4935.8 5128.8 4926.3 5136.9 4920.5 5126.9 4920.5 5129.9 4930 5121.9 4924.1 5124.9 4933.6 5116.9 4939.5 5119.9 4949 5123 4958.5 5114.9 4964.4 5124.9 4964.4 5116.9 4970.3 5106.9 4970.3 5096.9 4970.3 5106.9 4970.3 5096.9 4970.3 5099.9 4979.8 5089.9 4979.8 5098 4985.6 5089.9 4979.8 5086.9 4970.3 5076.9 4970.3 5073.8 4960.7 5065.7 4966.6" clip-path="url(#a)" fill="none" stroke="#000" stroke-linecap="round"/>
<polyline points="5065.7 4966.6 5073.8 4972.5 5070.7 4982 5062.6 4976.1 5072.6 4976.1 5075.7 4966.6 5067.6 4960.7 5057.6 4960.7 5065.7 4966.6 5068.8 4976.1 5060.7 4982 5068.8 4987.9 5060.7 4993.8 5057.6 5003.3 5067.6 5003.3 5064.5 4993.8 5067.6 5003.3 5064.5 4993.8 5061.4 4984.3 5058.3 4993.8 5048.3 4993.8 5045.2 4984.3 5048.3 4993.8 5045.2 5003.3 5037.1 5009.2 5045.2 5015 5042.1 5005.5 5050.2 4999.6 5042.1 5005.5 5050.2 5011.4 5047.1 5001.9 5037.1 5001.9 5027.1 5001.9 5019 5007.8 5009 5007.8 5019 5007.8 5011 5001.9 5007.9 5011.4 4999.8 5017.3 4996.7 5007.8 4988.6 5013.6 4978.6 5013.6 4986.7 5019.5" clip-path="url(#a)" fill="none" stroke="#000" stroke-linecap="round"/>
<polyline points="4986.7 5019.5 4996.7 5019.5 4993.6 5010 5001.7 5015.9 4998.6 5025.4 4995.5 5034.9 4987.4 5029 4990.5 5019.5 4987.4 5010 4997.4 5010 4987.4 5010 4984.3 5000.5 4987.4 4991 4984.3 5000.5 4976.2 4994.6 4986.2 4994.6 4976.2 4994.6 4984.3 5000.5 4976.2 5006.4 4979.3 5015.9 4987.4 5010 4990.5 5000.5 4982.4 4994.6 4990.5 4988.7 4998.6 4982.9 4990.5 4977 4998.6 4982.9 4995.5 4992.4 5005.5 4992.4 5015.5 4992.4 5007.4 4998.3 5004.3 5007.8 4994.3 5007.8 4991.2 4998.3 4994.3 4988.7 4986.2 4982.9 4994.3 4988.7 5002.4 4994.6 4999.3 5004.1 5002.4 5013.6 5005.5 5004.1 4995.5 5004.1 4998.6 5013.6" clip-path="url(#a)" fill="none" stroke="#000" stroke-linecap="round"/>
<polyline points="4998.6 5013.6 5008.6 5013.6 5011.7 5004.1 5003.6 5010 5000.5 5000.5 5003.6 5010 5000.5 5000.5 5010.5 5000.5 5020.5 5000.5 5030.5 5000.5 5027.4 4991 5017.4 4991 5027.4 4991 5024.3 5000.5 5034.3 5000.5 5037.4 4991 5047.4 4991 5055.5 4996.9 5058.6 5006.4 5061.7 5015.9 5071.7 5015.9 5074.8 5006.4 5084.8 5006.4 5094.8 5006.4 5102.9 5000.5 5094.8 4994.6 5086.7 4988.7 5078.6 4994.6 5068.6 4994.6 5071.7 5004.1 5079.8 5010 5071.7 5004.1 5068.6 4994.6 5076.7 5000.5 5084.8 5006.4 5087.9 5015.9 5096 5021.8 5104 5015.9 5112.1 5010 5104 5015.9 5107.1 5025.4 5115.2 5031.3 5125.2 5031.3" clip-path="url(#a)" fill="none" stroke="#000" stroke-linecap="round"/>
<polyline points="5125.2 5031.3 5122.1 5040.8 5130.2 5046.7 5120.2 5046.7 5123.3 5056.2 5115.2 5062.1 5125.2 5062.1 5122.1 5052.5 5130.2 5058.4 5127.1 5048.9 5135.2 5043 5132.1 5033.5 5129 5024 5137.1 5018.1 5127.1 5018.1 5135.2 5012.3 5145.2 5012.3 5155.2 5012.3 5145.2 5012.3 5155.2 5012.3 5152.1 5002.7 5162.1 5002.7 5154 4996.9 5162.1 5002.7 5165.2 5012.3 5175.2 5012.3 5178.3 5021.8 5186.4 5015.9 5178.3 5010 5181.4 5000.5 5189.5 5006.4 5179.5 5006.4 5176.4 5015.9 5184.5 5021.8 5194.5 5021.8 5186.4 5015.9 5183.3 5006.4 5191.4 5000.5 5183.3 4994.6 5191.4 4988.7 5194.5 4979.2 5184.5 4979.2 5187.6 4988.7" clip-path="url(#a)" fill="none" stroke="#000" stroke-linecap="round"/>
<polyline points="5187.6 4988.7 5184.5 4979.2 5187.6 4988.7 5190.7 4998.3 5193.8 4988.7 5203.8 4988.7 5206.9 4998.3 5203.8 4988.7 5206.9 4979.2 5214.9 4973.4 5206.9 4967.5 5209.9 4977 5201.9 4982.9 5209.9 4977 5201.9 4971.1 5204.9 4980.6 5214.9 4980.6 5224.9 4980.6 5233 4974.7 5243 4974.7 5233 4974.7 5241.1 4980.6 5244.2 4971.1 5252.3 4965.2 5255.4 4974.7 5263.5 4968.9 5273.5 4968.9 5265.4 4963 5255.4 4963 5258.5 4972.5 5250.4 4966.6 5253.5 4957.1 5256.6 4947.6 5264.7 4953.5 5261.6 4963 5264.7 4972.5 5254.7 4972.5 5264.7 4972.5 5267.8 4982 5264.7 4991.5 5267.8 4982 5275.8 4987.9 5265.8 4987.9" clip-path="url(#a)" fill="none" stroke="#000" stroke-linecap="round"/>
<polyline points="5265.8 4987.9 5275.8 4987.9 5267.8 4982 5275.8 4976.1 5272.8 4966.6 5264.7 4972.5 5261.6 4982 5269.7 4987.9 5261.6 4993.8 5253.5 4999.6 5261.6 5005.5 5253.5 4999.6 5256.6 4990.1 5246.6 4990.1 5236.6 4990.1 5244.7 4984.3 5247.8 4974.7 5257.8 4974.7 5260.8 4984.3 5257.8 4993.8 5265.8 4999.6 5257.8 4993.8 5249.7 4987.9 5252.8 4978.4 5249.7 4968.9 5246.6 4978.4 5256.6 4978.4 5253.5 4968.9 5243.5 4968.9 5240.4 4978.4 5248.5 4972.5 5251.6 4982 5248.5 4972.5 5251.6 4982 5241.6 4982 5231.6 4982 5221.6 4982 5224.7 4991.5 5234.7 4991.5 5224.7 4991.5 5227.8 4982 5217.8 4982 5214.7 4991.5" clip-path="url(#a)" fill="none" stroke="#000" stroke-linecap="round"/>
<polyline points="5214.7 4991.5 5204.7 4991.5 5196.6 4985.6 5193.5 4976.1 5190.4 4966.6 5180.4 4966.6 5177.3 4976.1 5167.3 4976.1 5157.3 4976.1 5149.2 4982 5157.3 4987.9 5165.4 4993.8 5173.5 4987.9 5183.5 4987.9 5180.4 4978.4 5172.3 4972.5 5180.4 4978.4 5183.5 4987.9 5175.4 4982 5167.3 4976.1 5164.2 4966.6 5156.1 4960.7 5148 4966.6 5139.9 4972.5 5148 4966.6 5144.9 4957.1 5136.9 4951.2 5126.9 4951.2 5129.9 4941.7 5121.9 4935.8 5131.9 4935.8 5128.8 4926.3 5136.9 4920.5 5126.9 4920.5 5129.9 4930 5121.9 4924.1 5124.9 4933.6 5116.9 4939.5 5119.9 4949 5123 4958.5 5114.9 4964.4 5124.9 4964.4 5116.9 4970.3" clip-path="url(#a)" fill="none" stroke="#000" stroke-linecap="round"/>
<polyline points="5116.9 4970.3 5106.9 4970.3 5096.9 4970.3 5106.9 4970.3 5096.9 4970.3 5099.9 4979.8 5089.9 4979.8 5098 4985.6 5089.9 4979.8 5086.9 4970.3 5076.9 4970.3 5073.8 4960.7 5065.7 4966.6 5073.8 4972.5 5070.7 4982 5062.6 4976.1 5072.6 4976.1 5075.7 4966.6 5067.6 4960.7 5057.6 4960.7 5065.7 4966.6 5068.8 4976.1 5060.7 4982 5068.8 4987.9 5060.7 4993.8 5057.6 5003.3 5067.6 5003.3 5064.5 4993.8 5067.6 5003.3 5064.5 4993.8 5061.4 4984.3 5058.3 4993.8 5048.3 4993.8 5045.2 4984.3 5048.3 4993.8 5045.2 5003.3 5037.1 5009.2 5045.2 5015 5042.1 5005.5 5050.2 4999.6 5042.1 5005.5 5050.2 5011.4 5047.1 5001.9" clip-path="url(#a)" fill="none" stroke="#000" stroke-linecap="round"/>
<polyline points="5047.1 5001.9 5037.1 5001.9 5027.1 5001.9 5019 5007.8 5009 5007.8 5019 5007.8 5011 5001.9 5007.9 5011.4 4999.8 5017.3 4996.7 5007.8 4988.6 5013.6 4978.6 5013.6 4986.7 5019.5 4996.7 5019.5 4993.6 5010 5001.7 5015.9 4998.6 5025.4 4995.5 5034.9 4987.4 5029 4990.5 5019.5 4987.4 5010 4997.4 5010 4987.4 5010 4984.3 5000.5 4987.4 4991 4984.3 5000.5 4976.2 4994.6 4986.2 4994.6 4976.2 4994.6 4984.3 5000.5 4976.2 5006.4 4979.3 5015.9 4987.4 5010 4990.5 5000.5 4982.4 4994.6 4990.5 4988.7 4998.6 4982.9 4990.5 4977 4998.6 4982.9 4995.5 4992.4 5005.5 4992.4 5015.5 4992.4 5007.4 4998.3" clip-path="url(#a)" fill="none" stroke="#000" stroke-linecap="round"/>
<polyline points="5007.4 4998.3 5004.3 5007.8 4994.3 5007.8 4991.2 4998.3 4994.3 4988.7 4986.2 4982.9 4994.3 4988.7 5002.4 4994.6 4999.3 5004.1 5002.4 5013.6 5005.5 5004.1 4995.5 5004.1 4998.6 5013.6 5008.6 5013.6 5011.7 5004.1 5003.6 5010 5000.5 5000.5 5003.6 5010 5000.5 5000.5 5010.5 5000.5 5020.5 5000.5 5030.5 5000.5 5027.4 4991 5017.4 4991 5027.4 4991 5024.3 5000.5 5034.3 5000.5 5037.4 4991 5047.4 4991 5055.5 4996.9 5058.6 5006.4 5061.7 5015.9 5071.7 5015.9 5074.8 5006.4 5084.8 5006.4 5094.8 5006.4 5102.9 5000.5 5094.8 4994.6 5086.7 4988.7 5078.6 4994.6 5068.6 4994.6 5071.7 5004.1 5079.8 5010" clip-path="url(#a)" fill="none" stroke="#000" stroke-linecap="round"/>
<polyline points="5079.8 5010 5071.7 5004.1 5068.6 4994.6 5076.7 5000.5 5084.8 5006.4 5087.9 5015.9 5096 5021.8 5104 5015.9 5112.1 5010 5104 5015.9 5107.1 5025.4 5115.2 5031.3 5125.2 5031.3 5122.1 5040.8 5130.2 5046.7 5120.2 5046.7 5123.3 5056.2 5115.2 5062.1 5125.2 5062.1 5122.1 5052.5 5130.2 5058.4 5127.1 5048.9 5135.2 5043 5132.1 5033.5 5129 5024 5137.1 5018.1 5127.1 5018.1 5135.2 5012.3 5145.2 5012.3 5155.2 5012.3 5145.2 5012.3 5155.2 5012.3 5152.1 5002.7 5162.1 5002.7 5154 4996.9 5162.1 5002.7 5165.2 5012.3 5175.2 5012.3 5178.3 5021.8 5186.4 5015.9 5178.3 5010 5181.4 5000.5 5189.5 5006.4" clip-path="url(#a)" fill="none" stroke="#000" stroke-linecap="round"/>
<polyline points="5189.5 5006.4 5179.5 5006.4 5176.4 5015.9 5184.5 5021.8 5194.5 5021.8 5186.4 5015.9 5183.3 5006.4 5191.4 5000.5 5183.3 4994.6 5191.4 4988.7 5194.5 4979.2 5184.5 4979.2 5187.6 4988.7 5184.5 4979.2 5187.6 4988.7 5190.7 4998.3 5193.8 4988.7 5203.8 4988.7 5206.9 4998.3 5203.8 4988.7 5206.9 4979.2 5214.9 4973.4 5206.9 4967.5 5209.9 4977 5201.9 4982.9 5209.9 4977 5201.9 4971.1 5204.9 4980.6 5214.9 4980.6 5224.9 4980.6 5233 4974.7 5243 4974.7 5233 4974.7 5241.1 4980.6 5244.2 4971.1 5252.3 4965.2 5255.4 4974.7 5263.5 4968.9 5273.5 4968.9 5265.4 4963 5255.4 4963 5258.5 4972.5 5250.4 4966.6" clip-path="url(#a)" fill="none" stroke="#000" stroke-linecap="round"/>
<polyline points="5250.4 4966.6 5253.5 4957.1 5256.6 4947.6 5264.7 4953.5 5261.6 4963 5264.7 4972.5 5254.7 4972.5 5264.7 4972.5 5267.8 4982 5264.7 4991.5 5267.8 4982 5275.8 4987.9 5265.8 4987.9 5275.8 4987.9 5267.8 4982 5275.8 4976.1 5272.8 4966.6 5264.7 4972.5 5261.6 4982 5269.7 4987.9 5261.6 4993.8 5253.5 4999.6 5261.6 5005.5 5253.5 4999.6 5256.6 4990.1 5246.6 4990.1 5236.6 4990.1 5244.7 4984.3 5247.8 4974.7 5257.8 4974.7 5260.8 4984.3 5257.8 4993.8 5265.8 4999.6 5257.8 4993.8 5249.7 4987.9 5252.8 4978.4 5249.7 4968.9 5246.6 4978.4 5256.6 4978.4 5253.5 4968.9 5243.5 4968.9 5240.4 4978.4 5248.5 4972.5" clip-path="url(#a)" fill="none" stroke="#000" stroke-linecap="round"/>
<polyline points="5248.5 4972.5 5251.6 4982 5248.5 4972.5 5251.6 4982 5241.6 4982 5231.6 4982 5221.6 4982 5224.7 4991.5 5234.7 4991.5 5224.7 4991.5 5227.8 4982 5217.8 4982 5214.7 4991.5 5204.7 4991.5 5196.6 4985.6 5193.5 4976.1 5190.4 4966.6 5180.4 4966.6 5177.3 4976.1 5167.3 4976.1 5157.3 4976.1 5149.2 4982 5157.3 4987.9 5165.4 4993.8 5173.5 4987.9 5183.5 4987.9 5180.4 4978.4 5172.3 4972.5 5180.4 4978.4 5183.5 4987.9 5175.4 4982 5167.3 4976.1 5164.2 4966.6 5156.1 4960.7 5148 4966.6 5139.9 4972.5 5148 4966.6 5144.9 4957.1 5136.9 4951.2 5126.9 4951.2 5129.9 4941.7 5121.9 4935.8 5131.9 4935.8" clip-path="url(#a)" fill="none" stroke="#000" stroke-linecap="round"/>
<polyline points="5131.9 4935.8 5128.8 4926.3 5136.9 4920.5 5126.9 4920.5 5129.9 4930 5121.9 4924.1 5124.9 4933.6 5116.9 4939.5 5119.9 4949 5123 4958.5 5114.9 4964.4 5124.9 4964.4 5116.9 4970.3 5106.9 4970.3 5096.9 4970.3 5106.9 4970.3 5096.9 4970.3 5099.9 4979.8 5089.9 4979.8 5098 4985.6 5089.9 4979.8 5086.9 4970.3 5076.9 4970.3 5073.8 4960.7 5065.7 4966.6 5073.8 4972.5 5070.7 4982 5062.6 4976.1 5072.6 4976.1 5075.7 4966.6 5067.6 4960.7 5057.6 4960.7 5065.7 4966.6 5068.8 4976.1 5060.7 4982 5068.8 4987.9 5060.7 4993.8 5057.6 5003.3 5067.6 5003.3 5064.5 4993.8 5067.6 5003.3 5064.5 4993.8 5061.4 4984.3" clip-path="url(#a)" fill="none" stroke="#000" stroke-linecap="round"/>
<polyline points="5061.4 4984.3 5058.3 4993.8 5048.3 4993.8 5045.2 4984.3 5048.3 4993.8 5045.2 5003.3 5037.1 5009.2 5045.2 5015 5042.1 5005.5 5050.2 4999.6 5042.1 5005.5 5050.2 5011.4 5047.1 5001.9 5037.1 5001.9 5027.1 5001.9 5019 5007.8 5009 5007.8 5019 5007.8 5011 5001.9 5007.9 5011.4 4999.8 5017.3 4996.7 5007.8 4988.6 5013.6 4978.6 5013.6 4986.7 5019.5 4996.7 5019.5 4993.6 5010 5001.7 5015.9 4998.6 5025.4 4995.5 5034.9 4987.4 5029 4990.5 5019.5 4987.4 5010 4997.4 5010 4987.4 5010 4984.3 5000.5 4987.4 4991 4984.3 5000.5 4976.2 4994.6 4986.2 4994.6 4976.2 4994.6 4984.3 5000.5 4976.2 5006.4" clip-path="url(#a)" fill="none" stroke="#000" stroke-linecap="round"/>
<polyline points="4976.2 5006.4 4979.3 5015.9 4987.4 5010 4990.5 5000.5 4982.4 4994.6 4990.5 4988.7 4998.6 4982.9 4990.5 4977 4998.6 4982.9 4995.5 4992.4 5005.5 4992.4 5015.5 4992.4 5007.4 4998.3 5004.3 5007.8 4994.3 5007.8 4991.2 4998.3 4994.3 4988.7 4986.2 4982.9 4994.3 4988.7 5002.4 4994.6 4999.3 5004.1 5002.4 5013.6 5005.5 5004.1 4995.5 5004.1 4998.6 5013.6 5008.6 5013.6 5011.7 5004.1 5003.6 5010 5000.5 5000.5 5003.6 5010 5000.5 5000.5 5010.5 5000.5 5020.5 5000.5 5030.5 5000.5 5027.4 4991 5017.4 4991 5027.4 4991 5024.3 5000.5 5034.3 5000.5 5037.4 4991 5047.4 4991 5055.5 4996.9 5058.6 5006.4" clip-path="url(#a)" fill="none" stroke="#000" stroke-linecap="round"/>
<polyline points="5058.6 5006.4 5061.7 5015.9 5071.7 5015.9 5074.8 5006.4 5084.8 5006.4 5094.8 5006.4 5102.9 5000.5 5094.8 4994.6 5086.7 4988.7 5078.6 4994.6 5068.6 4994.6 5071.7 5004.1 5079.8 5010 5071.7 5004.1 5068.6 4994.6 5076.7 5000.5 5084.8 5006.4 5087.9 5015.9 5096 5021.8 5104 5015.9 5112.1 5010 5104 5015.9 5107.1 5025.4 5115.2 5031.3 5125.2 5031.3 5122.1 5040.8 5130.2 5046.7 5120.2 5046.7 5123.3 5056.2 5115.2 5062.1 5125.2 5062.1 5122.1 5052.5 5130.2 5058.4 5127.1 5048.9 5135.2 5043 5132.1 5033.5 5129 5024 5137.1 5018.1 5127.1 5018.1 5135.2 5012.3 5145.2 5012.3 5155.2 5012.3 5145.2 5012.3" clip-path="url(#a)" fill="none" stroke="#000" stroke-linecap="round"/>
<polyline points="5145.2 5012.3 5155.2 5012.3 5152.1 5002.7 5162.1 5002.7 5154 4996.9 5162.1 5002.7 5165.2 5012.3 5175.2 5012.3 5178.3 5021.8 5186.4 5015.9 5178.3 5010 5181.4 5000.5 5189.5 5006.4 5179.5 5006.4 5176.4 5015.9 5184.5 5021.8 5194.5 5021.8 5186.4 5015.9 5183.3 5006.4 5191.4 5000.5 5183.3 4994.6 5191.4 4988.7 5194.5 4979.2 5184.5 4979.2 5187.6 4988.7 5184.5 4979.2 5187.6 4988.7 5190.7 4998.3 5193.8 4988.7 5203.8 4988.7 5206.9 4998.3 5203.8 4988.7 5206.9 4979.2 5214.9 4973.4 5206.9 4967.5 5209.9 4977 5201.9 4982.9 5209.9 4977 5201.9 4971.1 5204.9 4980.6 5214.9 4980.6 5224.9 4980.6 5233 4974.7" clip-path="url(#a)" fill="none" stroke="#000" stroke-linecap="round"/>
<polyline points="5233 4974.7 5243 4974.7 5233 4974.7 5241.1 4980.6 5244.2 4971.1 5252.3 4965.2 5255.4 4974.7 5263.5 4968.9 5273.5 4968.9 5265.4 4963 5255.4 4963 5258.5 4972.5 5250.4 4966.6 5253.5 4957.1 5256.6 4947.6 5264.7 4953.5 5261.6 4963 5264.7 4972.5 5254.7 4972.5 5264.7 4972.5 5267.8 4982 5264.7 4991.5 5267.8 4982 5275.8 4987.9 5265.8 4987.9 5275.8 4987.9 5267.8 4982 5275.8 4976.1 5272.8 4966.6 5264.7 4972.5 5261.6 4982 5269.7 4987.9 5261.6 4993.8 5253.5 4999.6 5261.6 5005.5 5253.5 4999.6 5256.6 4990.1 5246.6 4990.1 5236.6 4990.1 5244.7 4984.3 5247.8 4974.7 5257.8 4974.7 5260.8 4984.3" clip-path="url(#a)" fill="none" stroke="#000" stroke-linecap="round"/>
<polyline points="5260.8 4984.3 5257.8 4993.8 5265.8 4999.6 5257.8 4993.8 5249.7 4987.9 5252.8 4978.4 5249.7 4968.9 5246.6 4978.4 5256.6 4978.4 5253.5 4968.9 5243.5 4968.9 5240.4 4978.4 5248.5 4972.5 5251.6 4982 5248.5 4972.5 5251.6 4982 5241.6 4982 5231.6 4982 5221.6 4982 5224.7 4991.5 5234.7 4991.5 5224.7 4991.5 5227.8 4982 5217.8 4982 5214.7 4991.5 5204.7 4991.5 5196.6 4985.6 5193.5 4976.1 5190.4 4966.6 5180.4 4966.6 5177.3 4976.1 5167.3 4976.1 5157.3 4976.1 5149.2 4982 5157.3 4987.9 5165.4 4993.8 5173.5 4987.9 5183.5 4987.9 5180.4 4978.4 5172.3 4972.5 5180.4 4978.4 5183.5 4987.9 5175.4 4982" clip-path="url(#a)" fill="none" stroke="#000" stroke-linecap="round"/>
<polyline points="5175.4 4982 5167.3 4976.1 5164.2 4966.6 5156.1 4960.7 5148 4966.6 5139.9 4972.5 5148 4966.6 5144.9 4957.1 5136.9 4951.2 5126.9 4951.2 5129.9 4941.7 5121.9 4935.8 5131.9 4935.8 5128.8 4926.3 5136.9 4920.5 5126.9 4920.5 5129.9 4930 5121.9 4924.1 5124.9 4933.6 5116.9 4939.5 5119.9 4949 5123 4958.5 5114.9 4964.4 5124.9 4964.4 5116.9 4970.3 5106.9 4970.3 5096.9 4970.3 5106.9 4970.3 5096.9 4970.3 5099.9 4979.8 5089.9 4979.8 5098 4985.6 5089.9 4979.8 5086.9 4970.3 5076.9 4970.3 5073.8 4960.7 5065.7 4966.6 5073.8 4972.5 5070.7 4982 5062.6 4976.1 5072.6 4976.1 5075.7 4966.6 5067.6 4960.7" clip-path="url(#a)" fill="none" stroke="#000" stroke-linecap="round"/>
<polyline points="5067.6 4960.7 5057.6 4960.7 5065.7 4966.6 5068.8 4976.1 5060.7 4982 5068.8 4987.9 5060.7 4993.8 5057.6 5003.3 5067.6 5003.3 5064.5 4993.8 5067.6 5003.3 5064.5 4993.8 5061.4 4984.3 5058.3 4993.8 5048.3 4993.8 5045.2 4984.3 5048.3 4993.8 5045.2 5003.3 5037.1 5009.2 5045.2 5015 5042.1 5005.5 5050.2 4999.6 5042.1 5005.5 5050.2 5011.4 5047.1 5001.9 5037.1 5001.9 5027.1 5001.9 5019 5007.8 5009 5007.8 5019 5007.8 5011 5001.9 5007.9 5011.4 4999.8 5017.3 4996.7 5007.8 4988.6 5013.6 4978.6 5013.6 4986.7 5019.5 4996.7 5019.5 4993.6 5010 5001.7 5015.9 4998.6 5025.4 4995.5 5034.9 4987.4 5029" clip-path="url(#a)" fill="none" stroke="#000" stroke-linecap="round"/>
<polyline points="4987.4 5029 4990.5 5019.5 4987.4 5010 4997.4 5010 4987.4 5010 4984.3 5000.5 4987.4 4991 4984.3 5000.5 4976.2 4994.6 4986.2 4994.6 4976.2 4994.6 4984.3 5000.5 4976.2 5006.4 4979.3 5015.9 4987.4 5010 4990.5 5000.5 4982.4 4994.6 4990.5 4988.7 4998.6 4982.9 4990.5 4977 4998.6 4982.9 4995.5 4992.4 5005.5 4992.4 5015.5 4992.4 5007.4 4998.3 5004.3 5007.8 4994.3 5007.8 4991.2 4998.3 4994.3 4988.7 4986.2 4982.9 4994.3 4988.7 5002.4 4994.6 4999.3 5004.1 5002.4 5013.6 5005.5 5004.1 4995.5 5004.1 4998.6 5013.6 5008.6 5013.6 5011.7 5004.1 5003.6 5010 5000.5 5000.5 5003.6 5010 5000.5 5000.5" clip-path="url(#a)" fill="none" stroke="#000" stroke-linecap="round"/>
<polyline points="5000.5 5000.5 5010.5 5000.5 5020.5 5000.5 5030.5 5000.5 5027.4 4991 5017.4 4991 5027.4 4991 5024.3 5000.5 5034.3 5000.5 5037.4 4991 5047.4 4991 5055.5 4996.9 5058.6 5006.4 5061.7 5015.9 5071.7 5015.9 5074.8 5006.4 5084.8 5006.4 5094.8 5006.4 5102.9 5000.5 5094.8 4994.6 5086.7 4988.7 5078.6 4994.6 5068.6 4994.6 5071.7 5004.1 5079.8 5010 5071.7 5004.1 5068.6 4994.6 5076.7 5000.5 5084.8 5006.4 5087.9 5015.9 5096 5021.8 5104 5015.9 5112.1 5010 5104 5015.9 5107.1 5025.4 5115.2 5031.3 5125.2 5031.3 5122.1 5040.8 5130.2 5046.7 5120.2 5046.7 5123.3 5056.2 5115.2 5062.1 5125.2 5062.1" clip-path="url(#a)" fill="none" stroke="#000" stroke-linecap="round"/>
<polyline points="5125.2 5062.1 5122.1 5052.5 5130.2 5058.4 5127.1 5048.9 5135.2 5043 5132.1 5033.5 5129 5024 5137.1 5018.1 5127.1 5018.1 5135.2 5012.3 5145.2 5012.3 5155.2 5012.3 5145.2 5012.3 5155.2 5012.3 5152.1 5002.7 5162.1 5002.7 5154 4996.9 5162.1 5002.7 5165.2 5012.3 5175.2 5012.3 5178.3 5021.8 5186.4 5015.9 5178.3 5010 5181.4 5000.5 5189.5 5006.4 5179.5 5006.4 5176.4 5015.9 5184.5 5021.8 5194.5 5021.8 5186.4 5015.9 5183.3 5006.4 5191.4 5000.5 5183.3 4994.6 5191.4 4988.7 5194.5 4979.2 5184.5 4979.2 5187.6 4988.7 5184.5 4979.2 5187.6 4988.7 5190.7 4998.3 5193.8 4988.7 5203.8 4988.7 5206.9 4998.3" clip-path="url(#a)" fill="none" stroke="#000" stroke-linecap="round"/>
<polyline points="5206.9 4998.3 5203.8 4988.7 5206.9 4979.2 5214.9 4973.4 5206.9 4967.5 5209.9 4977 5201.9 4982.9 5209.9 4977 5201.9 4971.1 5204.9 4980.6 5214.9 4980.6 5224.9 4980.6 5233 4974.7 5243 4974.7 5233 4974.7 5241.1 4980.6 5244.2 4971.1 5252.3 4965.2 5255.4 4974.7 5263.5 4968.9 5273.5 4968.9 5265.4 4963 5255.4 4963 5258.5 4972.5 5250.4 4966.6 5253.5 4957.1 5256.6 4947.6 5264.7 4953.5 5261.6 4963 5264.7 4972.5 5254.7 4972.5 5264.7 4972.5 5267.8 4982 5264.7 4991.5 5267.8 4982 5275.8 4987.9 5265.8 4987.9 5275.8 4987.9 5267.8 4982 5275.8 4976.1 5272.8 4966.6 5264.7 4972.5 5261.6 4982" clip-path="url(#a)" fill="none" stroke="#000" stroke-linecap="round"/>
<polyline points="5261.6 4982 5269.7 4987.9 5261.6 4993.8 5253.5 4999.6 5261.6 5005.5 5253.5 4999.6 5256.6 4990.1 5246.6 4990.1 5236.6 4990.1 5244.7 4984.3 5247.8 4974.7 5257.8 4974.7 5260.8 4984.3 5257.8 4993.8 5265.8 4999.6 5257.8 4993.8 5249.7 4987.9 5252.8 4978.4 5249.7 4968.9 5246.6 4978.4 5256.6 4978.4 5253.5 4968.9 5243.5 4968.9 5240.4 4978.4 5248.5 4972.5 5251.6 4982 5248.5 4972.5 5251.6 4982 5241.6 4982 5231.6 4982 5221.6 4982 5224.7 4991.5 5234.7 4991.5 5224.7 4991.5 5227.8 4982 5217.8 4982 5214.7 4991.5 5204.7 4991.5 5196.6 4985.6 5193.5 4976.1 5190.4 4966.6 5180.4 4966.6 5177.3 4976.1" clip-path="url(#a)" fill="none" stroke="#000" stroke-linecap="round"/>
<polyline points="5177.3 4976.1 5167.3 4976.1 5157.3 4976.1 5149.2 4982 5157.3 4987.9 5165.4 4993.8 5173.5 4987.9 5183.5 4987.9 5180.4 4978.4 5172.3 4972.5 5180.4 4978.4 5183.5 4987.9 5175.4 4982 5167.3 4976.1 5164.2 4966.6 5156.1 4960.7 5148 4966.6 5139.9 4972.5 5148 4966.6 5144.9 4957.1 5136.9 4951.2 5126.9 4951.2 5129.9 4941.7 5121.9 4935.8 5131.9 4935.8 5128.8 4926.3 5136.9 4920.5 5126.9 4920.5 5129.9 4930 5121.9 4924.1 5124.9 4933.6 5116.9 4939.5 5119.9 4949 5123 4958.5 5114.9 4964.4 5124.9 4964.4 5116.9 4970.3 5106.9 4970.3 5096.9 4970.3 5106.9 4970.3 5096.9 4970.3 5099.9 4979.8 5089.9 4979.8" clip-path="url(#a)" fill="none" stroke="#000" stroke-linecap="round"/>
<polyline points="5089.9 4979.8 5098 4985.6 5089.9 4979.8 5086.9 4970.3 5076.9 4970.3 5073.8 4960.7 5065.7 4966.6 5073.8 4972.5 5070.7 4982 5062.6 4976.1 5072.6 4976.1 5075.7 4966.6 5067.6 4960.7 5057.6 4960.7 5065.7 4966.6 5068.8 4976.1 5060.7 4982 5068.8 4987.9 5060.7 4993.8 5057.6 5003.3 5067.6 5003.3 5064.5 4993.8 5067.6 5003.3 5064.5 4993.8 5061.4 4984.3 5058.3 4993.8 5048.3 4993.8 5045.2 4984.3 5048.3 4993.8 5045.2 5003.3 5037.1 5009.2 5045.2 5015 5042.1 5005.5 5050.2 4999.6 5042.1 5005.5 5050.2 5011.4 5047.1 5001.9 5037.1 5001.9 5027.1 5001.9 5019 5007.8 5009 5007.8 5019 5007.8 5011 5001.9" clip-path="url(#a)" fill="none" stroke="#000" stroke-linecap="round"/>
<polyline points="5011 5001.9 5007.9 5011.4 4999.8 5017.3 4996.7 5007.8 4988.6 5013.6 4978.6 5013.6 4986.7 5019.5 4996.7 5019.5 4993.6 5010 5001.7 5015.9 4998.6 5025.4 4995.5 5034.9 4987.4 5029 4990.5 5019.5 4987.4 5010 4997.4 5010 4987.4 5010 4984.3 5000.5 4987.4 4991 4984.3 5000.5 4976.2 4994.6 4986.2 4994.6 4976.2 4994.6 4984.3 5000.5 4976.2 5006.4 4979.3 5015.9 4987.4 5010 4990.5 5000.5 4982.4 4994.6 4990.5 4988.7 4998.6 4982.9 4990.5 4977 4998.6 4982.9 4995.5 4992.4 5005.5 4992.4 5015.5 4992.4 5007.4 4998.3 5004.3 5007.8 4994.3 5007.8 4991.2 4998.3 4994.3 4988.7 4986.2 4982.9 4994.3 4988.7" clip-path="url(#a)" fill="none" stroke="#000" stroke-linecap="round"/>
<polyline points="4994.3 4988.7 5002.4 4994.6 4999.3 5004.1 5002.4 5013.6 5005.5 5004.1 4995.5 5004.1 4998.6 5013.6 5008.6 5013.6 5011.7 5004.1 5003.6 5010 5000.5 5000.5 5003.6 5010 5000.5 5000.5 5010.5 5000.5 5020.5 5000.5 5030.5 5000.5 5027.4 4991 5017.4 4991 5027.4 4991 5024.3 5000.5 5034.3 5000.5 5037.4 4991 5047.4 4991 5055.5 4996.9 5058.6 5006.4 5061.7 5015.9 5071.7 5015.9 5074.8 5006.4 5084.8 5006.4 5094.8 5006.4 5102.9 5000.5 5094.8 4994.6 5086.7 4988.7 5078.6 4994.6 5068.6 4994.6 5071.7 5004.1 5079.8 5010 5071.7 5004.1 5068.6 4994.6 5076.7 5000.5 5084.8 5006.4 5087.9 5015.9 5096 5021.8" clip-path="url(#a)" fill="none" stroke="#000" stroke-linecap="round"/>
<polyline points="5096 5021.8 5104 5015.9 5112.1 5010 5104 5015.9 5107.1 5025.4 5115.2 5031.3 5125.2 5031.3 5122.1 5040.8 5130.2 5046.7 5120.2 5046.7 5123.3 5056.2 5115.2 5062.1 5125.2 5062.1 5122.1 5052.5 5130.2 5058.4 5127.1 5048.9 5135.2 5043 5132.1 5033.5 5129 5024 5137.1 5018.1 5127.1 5018.1 5135.2 5012.3 5145.2 5012.3 5155.2 5012.3 5145.2 5012.3 5155.2 5012.3 5152.1 5002.7 5162.1 5002.7 5154 4996.9 5162.1 5002.7 5165.2 5012.3 5175.2 5012.3 5178.3 5021.8 5186.4 5015.9 5178.3 5010 5181.4 5000.5 5189.5 5006.4 5179.5 5006.4 5176.4 5015.9 5184.5 5021.8 5194.5 5021.8 5186.4 5015.9 5183.3 5006.4" clip-path="url(#a)" fill="none" stroke="#000" stroke-linecap="round"/>
<polyline points="5183.3 5006.4 5191.4 5000.5 5183.3 4994.6 5191.4 4988.7 5194.5 4979.2 5184.5 4979.2 5187.6 4988.7 5184.5 4979.2 5187.6 4988.7 5190.7 4998.3 5193.8 4988.7 5203.8 4988.7 5206.9 4998.3 5203.8 4988.7 5206.9 4979.2 5214.9 4973.4 5206.9 4967.5 5209.9 4977 5201.9 4982.9 5209.9 4977 5201.9 4971.1 5204.9 4980.6 5214.9 4980.6 5224.9 4980.6 5233 4974.7 5243 4974.7 5233 4974.7 5241.1 4980.6 5244.2 4971.1 5252.3 4965.2 5255.4 4974.7 5263.5 4968.9 5273.5 4968.9 5265.4 4963 5255.4 4963 5258.5 4972.5 5250.4 4966.6 5253.5 4957.1 5256.6 4947.6 5264.7 4953.5 5261.6 4963 5264.7 4972.5 5254.7 4972.5" clip-path="url(#a)" fill="none" stroke="#000" stroke-linecap="round"/>
<polyline points="5254.7 4972.5 5264.7 4972.5 5267.8 4982 5264.7 4991.5 5267.8 4982 5275.8 4987.9 5265.8 4987.9 5275.8 4987.9 5267.8 4982 5275.8 4976.1 5272.8 4966.6 5264.7 4972.5 5261.6 4982 5269.7 4987.9 5261.6 4993.8 5253.5 4999.6 5261.6 5005.5 5253.5 4999.6 5256.6 4990.1 5246.6 4990.1 5236.6 4990.1 5244.7 4984.3 5247.8 4974.7 5257.8 4974.7 5260.8 4984.3 5257.8 4993.8 5265.8 4999.6 5257.8 4993.8 5249.7 4987.9 5252.8 4978.4 5249.7 4968.9 5246.6 4978.4 5256.6 4978.4 5253.5 4968.9 5243.5 4968.9 5240.4 4978.4 5248.5 4972.5 5251.6 4982 5248.5 4972.5 5251.6 4982 5241.6 4982 5231.6 4982 5221.6 4982" clip-path="url(#a)" fill="none" stroke="#000" stroke-linecap="round"/>
<polyline points="5221.6 4982 5224.7 4991.5 5234.7 4991.5 5224.7 4991.5 5227.8 4982 5217.8 4982 5214.7 4991.5 5204.7 4991.5 5196.6 4985.6 5193.5 4976.1 5190.4 4966.6 5180.4 4966.6 5177.3 4976.1 5167.3 4976.1 5157.3 4976.1 5149.2 4982 5157.3 4987.9 5165.4 4993.8 5173.5 4987.9 5183.5 4987.9 5180.4 4978.4 5172.3 4972.5 5180.4 4978.4 5183.5 4987.9 5175.4 4982 5167.3 4976.1 5164.2 4966.6 5156.1 4960.7 5148 4966.6 5139.9 4972.5 5148 4966.6 5144.9 4957.1 5136.9 4951.2 5126.9 4951.2 5129.9 4941.7 5121.9 4935.8 5131.9 4935.8 5128.8 4926.3 5136.9 4920.5 5126.9 4920.5 5129.9 4930 5121.9 4924.1 5124.9 4933.6" clip-path="url(#a)" fill="none" stroke="#000" stroke-linecap="round"/>
<polyline points="5124.9 4933.6 5116.9 4939.5 5119.9 4949 5123 4958.5 5114.9 4964.4 5124.9 4964.4 5116.9 4970.3 5106.9 4970.3 5096.9 4970.3 5106.9 4970.3 5096.9 4970.3 5099.9 4979.8 5089.9 4979.8 5098 4985.6 5089.9 4979.8 5086.9 4970.3 5076.9 4970.3 5073.8 4960.7 5065.7 4966.6 5073.8 4972.5 5070.7 4982 5062.6 4976.1 5072.6 4976.1 5075.7 4966.6 5067.6 4960.7 5057.6 4960.7 5065.7 4966.6 5068.8 4976.1 5060.7 4982 5068.8 4987.9 5060.7 4993.8 5057.6 5003.3 5067.6 5003.3 5064.5 4993.8 5067.6 5003.3 5064.5 4993.8 5061.4 4984.3 5058.3 4993.8 5048.3 4993.8 5045.2 4984.3 5048.3 4993.8 5045.2 5003.3 5037.1 5009.2" clip-path="url(#a)" fill="none" stroke="#000" stroke-linecap="round"/>
<polyline points="5037.1 5009.2 5045.2 5015 5042.1 5005.5 5050.2 4999.6 5042.1 5005.5 5050.2 5011.4 5047.1 5001.9 5037.1 5001.9 5027.1 5001.9 5019 5007.8 5009 5007.8 5019 5007.8 5011 5001.9 5007.9 5011.4 4999.8 5017.3 4996.7 5007.8 4988.6 5013.6 4978.6 5013.6 4986.7 5019.5 4996.7 5019.5 4993.6 5010 5001.7 5015.9 4998.6 5025.4 4995.5 5034.9 4987.4 5029 4990.5 5019.5 4987.4 5010 4997.4 5010 4987.4 5010 4984.3 5000.5 4987.4 4991 4984.3 5000.5 4976.2 4994.6 4986.2 4994.6 4976.2 4994.6 4984.3 5000.5 4976.2 5006.4 4979.3 5015.9 4987.4 5010 4990.5 5000.5 4982.4 4994.6 4990.5 4988.7 4998.6 4982.9" clip-path="url(#a)" fill="none" stroke="#000" stroke-linecap="round"/>
<polyline points="4998.6 4982.9 4990.5 4977 4998.6 4982.9 4995.5 4992.4 5005.5 4992.4 5015.5 4992.4 5007.4 4998.3 5004.3 5007.8 4994.3 5007.8 4991.2 4998.3 4994.3 4988.7 4986.2 4982.9 4994.3 4988.7 5002.4 4994.6 4999.3 5004.1 5002.4 5013.6 5005.5 5004.1 4995.5 5004.1 4998.6 5013.6 5008.6 5013.6 5011.7 5004.1 5003.6 5010 5000.5 5000.5 5003.6 5010 5000.5 5000.5 5010.5 5000.5 5020.5 5000.5 5030.5 5000.5 5027.4 4991 5017.4 4991 5027.4 4991 5024.3 5000.5 5034.3 5000.5 5037.4 4991 5047.4 4991 5055.5 4996.9 5058.6 5006.4 5061.7 5015.9 5071.7 5015.9 5074.8 5006.4 5084.8 5006.4 5094.8 5006.4 5102.9 5000.5" clip-path="url(#a)" fill="none" stroke="#000" stroke-linecap="round"/>
<polyline points="5102.9 5000.5 5094.8 4994.6 5086.7 4988.7 5078.6 4994.6 5068.6 4994.6 5071.7 5004.1 5079.8 5010 5071.7 5004.1 5068.6 4994.6 5076.7 5000.5 5084.8 5006.4 5087.9 5015.9 5096 5021.8 5104 5015.9 5112.1 5010 5104 5015.9 5107.1 5025.4 5115.2 5031.3 5125.2 5031.3 5122.1 5040.8 5130.2 5046.7 5120.2 5046.7 5123.3 5056.2 5115.2 5062.1 5125.2 5062.1 5122.1 5052.5 5130.2 5058.4 5127.1 5048.9 5135.2 5043 5132.1 5033.5 5129 5024 5137.1 5018.1 5127.1 5018.1 5135.2 5012.3 5145.2 5012.3 5155.2 5012.3 5145.2 5012.3 5155.2 5012.3 5152.1 5002.7 5162.1 5002.7 5154 4996.9 5162.1 5002.7 5165.2 5012.3" clip-path="url(#a)" fill="none" stroke="#000" stroke-linecap="round"/>
<polyline points="5165.2 5012.3 5175.2 5012.3 5178.3 5021.8 5186.4 5015.9 5178.3 5010 5181.4 5000.5 5189.5 5006.4 5179.5 5006.4 5176.4 5015.9 5184.5 5021.8 5194.5 5021.8 5186.4 5015.9 5183.3 5006.4 5191.4 5000.5 5183.3 4994.6 5191.4 4988.7 5194.5 4979.2 5184.5 4979.2 5187.6 4988.7 5184.5 4979.2 5187.6 4988.7 5190.7 4998.3 5193.8 4988.7 5203.8 4988.7 5206.9 4998.3 5203.8 4988.7 5206.9 4979.2 5214.9 4973.4 5206.9 4967.5 5209.9 4977 5201.9 4982.9 5209.9 4977 5201.9 4971.1 5204.9 4980.6 5214.9 4980.6 5224.9 4980.6 5233 4974.7 5243 4974.7 5233 4974.7 5241.1 4980.6 5244.2 4971.1 5252.3 4965.2 5255.4 4974.7" clip-path="url(#a)" fill="none" stroke="#000" stroke-linecap="round"/>
<polyline points="5255.4 4974.7 5263.5 4968.9 5273.5 4968.9 5265.4 4963 5255.4 4963 5258.5 4972.5 5250.4 4966.6 5253.5 4957.1 5256.6 4947.6 5264.7 4953.5 5261.6 4963 5264.7 4972.5 5254.7 4972.5 5264.7 4972.5 5267.8 4982 5264.7 4991.5 5267.8 4982 5275.8 4987.9 5265.8 4987.9 5275.8 4987.9 5267.8 4982 5275.8 4976.1 5272.8 4966.6 5264.7 4972.5 5261.6 4982 5269.7 4987.9 5261.6 4993.8 5253.5 4999.6 5261.6 5005.5 5253.5 4999.6 5256.6 4990.1 5246.6 4990.1 5236.6 4990.1 5244.7 4984.3 5247.8 4974.7 5257.8 4974.7 5260.8 4984.3 5257.8 4993.8 5265.8 4999.6 5257.8 4993.8 5249.7 4987.9 5252.8 4978.4 5249.7 4968.9" clip-path="url(#a)" fill="none" stroke="#000" stroke-linecap="round"/>
<polyline points="5249.7 4968.9 5246.6 4978.4 5256.6 4978.4 5253.5 4968.9 5243.5 4968.9 5240.4 4978.4 5248.5 4972.5 5251.6 4982 5248.5 4972.5 5251.6 4982 5241.6 4982 5231.6 4982 5221.6 4982 5224.7 4991.5 5234.7 4991.5 5224.7 4991.5 5227.8 4982 5217.8 4982 5214.7 4991.5 5204.7 4991.5 5196.6 4985.6 5193.5 4976.1 5190.4 4966.6 5180.4 4966.6 5177.3 4976.1 5167.3 4976.1 5157.3 4976.1 5149.2 4982 5157.3 4987.9 5165.4 4993.8 5173.5 4987.9 5183.5 4987.9 5180.4 4978.4 5172.3 4972.5 5180.4 4978.4 5183.5 4987.9 5175.4 4982 5167.3 4976.1 5164.2 4966.6 5156.1 4960.7 5148 4966.6 5139.9 4972.5 5148 4966.6" clip-path="url(#a)" fill="none" stroke="#000" stroke-linecap="round"/>
<polyline points="5148 4966.6 5144.9 4957.1 5136.9 4951.2 5126.9 4951.2 5129.9 4941.7 5121.9 4935.8 5131.9 4935.8 5128.8 4926.3 5136.9 4920.5 5126.9 4920.5 5129.9 4930 5121.9 4924.1 5124.9 4933.6 5116.9 4939.5 5119.9 4949 5123 4958.5 5114.9 4964.4 5124.9 4964.4 5116.9 4970.3 5106.9 4970.3 5096.9 4970.3 5106.9 4970.3 5096.9 4970.3 5099.9 4979.8 5089.9 4979.8 5098 4985.6 5089.9 4979.8 5086.9 4970.3 5076.9 4970.3 5073.8 4960.7 5065.7 4966.6 5073.8 4972.5 5070.7 4982 5062.6 4976.1 5072.6 4976.1 5075.7 4966.6 5067.6 4960.7 5057.6 4960.7 5065.7 4966.6 5068.8 4976.1 5060.7 4982 5068.8 4987.9 5060.7 4993.8" clip-path="url(#a)" fill="none" stroke="#000" stroke-linecap="round"/>
<polyline points="5060.7 4993.8 5057.6 5003.3 5067.6 5003.3 5064.5 4993.8 5067.6 5003.3 5064.5 4993.8 5061.4 4984.3 5058.3 4993.8 5048.3 4993.8 5045.2 4984.3 5048.3 4993.8 5045.2 5003.3 5037.1 5009.2 5045.2 5015 5042.1 5005.5 5050.2 4999.6 5042.1 5005.5 5050.2 5011.4 5047.1 5001.9 5037.1 5001.9 5027.1 5001.9 5019 5007.8 5009 5007.8 5019 5007.8 5011 5001.9 5007.9 5011.4 4999.8 5017.3 4996.7 5007.8 4988.6 5013.6 4978.6 5013.6 4986.7 5019.5 4996.7 5019.5 4993.6 5010 5001.7 5015.9 4998.6 5025.4 4995.5 5034.9 4987.4 5029 4990.5 5019.5 4987.4 5010 4997.4 5010 4987.4 5010 4984.3 5000.5 4987.4 4991" clip-path="url(#a)" fill="none" stroke="#000" stroke-linecap="round"/>
<polyline points="4987.4 4991 4984.3 5000.5 4976.2 4994.6 4986.2 4994.6 4976.2 4994.6 4984.3 5000.5 4976.2 5006.4 4979.3 5015.9 4987.4 5010 4990.5 5000.5 4982.4 4994.6 4990.5 4988.7 4998.6 4982.9 4990.5 4977 4998.6 4982.9 4995.5 4992.4 5005.5 4992.4 5015.5 4992.4 5007.4 4998.3 5004.3 5007.8 4994.3 5007.8 4991.2 4998.3 4994.3 4988.7 4986.2 4982.9 4994.3 4988.7 5002.4 4994.6 4999.3 5004.1 5002.4 5013.6 5005.5 5004.1 4995.5 5004.1 4998.6 5013.6 5008.6 5013.6 5011.7 5004.1 5003.6 5010 5000.5 5000.5 5003.6 5010 5000.5 5000.5 5010.5 5000.5 5020.5 5000.5 5030.5 5000.5 5027.4 4991 5017.4 4991 5027.4 4991" clip-path="url(#a)" fill="none" stroke="#000" stroke-linecap="round"/>
<polyline points="5027.4 4991 5024.3 5000.5 5034.3 5000.5 5037.4 4991 5047.4 4991 5055.5 4996.9 5058.6 5006.4 5061.7 5015.9 5071.7 5015.9 5074.8 5006.4 5084.8 5006.4 5094.8 5006.4 5102.9 5000.5 5094.8 4994.6 5086.7 4988.7 5078.6 4994.6 5068.6 4994.6 5071.7 5004.1 5079.8 5010 5071.7 5004.1 5068.6 4994.6 5076.7 5000.5 5084.8 5006.4 5087.9 5015.9 5096 5021.8 5104 5015.9 5112.1 5010 5104 5015.9 5107.1 5025.4 5115.2 5031.3 5125.2 5031.3 5122.1 5040.8 5130.2 5046.7 5120.2 5046.7 5123.3 5056.2 5115.2 5062.1 5125.2 5062.1 5122.1 5052.5 5130.2 5058.4 5127.1 5048.9 5135.2 5043 5132.1 5033.5 5129 5024" clip-path="url(#a)" fill="none" stroke="#000" stroke-linecap="round"/>
<polyline points="5129 5024 5137.1 5018.1 5127.1 5018.1 5135.2 5012.3 5145.2 5012.3 5155.2 5012.3 5145.2 5012.3 5155.2 5012.3 5152.1 5002.7 5162.1 5002.7 5154 4996.9 5162.1 5002.7 5165.2 5012.3 5175.2 5012.3 5178.3 5021.8 5186.4 5015.9 5178.3 5010 5181.4 5000.5 5189.5 5006.4 5179.5 5006.4 5176.4 5015.9 5184.5 5021.8 5194.5 5021.8 5186.4 5015.9 5183.3 5006.4 5191.4 5000.5 5183.3 4994.6 5191.4 4988.7 5194.5 4979.2 5184.5 4979.2 5187.6 4988.7 5184.5 4979.2 5187.6 4988.7 5190.7 4998.3 5193.8 4988.7 5203.8 4988.7 5206.9 4998.3 5203.8 4988.7 5206.9 4979.2 5214.9 4973.4 5206.9 4967.5 5209.9 4977 5201.9 4982.9" clip-path="url(#a)" fill="none" stroke="#000" stroke-linecap="round"/>
<polyline points="5201.9 4982.9 5209.9 4977 5201.9 4971.1 5204.9 4980.6 5214.9 4980.6 5224.9 4980.6 5233 4974.7 5243 4974.7 5233 4974.7 5241.1 4980.6 5244.2 4971.1 5252.3 4965.2 5255.4 4974.7 5263.5 4968.9 5273.5 4968.9 5265.4 4963 5255.4 4963 5258.5 4972.5 5250.4 4966.6 5253.5 4957.1 5256.6 4947.6 5264.7 4953.5 5261.6 4963 5264.7 4972.5 5254.7 4972.5 5264.7 4972.5 5267.8 4982 5264.7 4991.5 5267.8 4982 5275.8 4987.9 5265.8 4987.9 5275.8 4987.9 5267.8 4982 5275.8 4976.1 5272.8 4966.6 5264.7 4972.5 5261.6 4982 5269.7 4987.9 5261.6 4993.8 5253.5 4999.6 5261.6 5005.5 5253.5 4999.6 5256.6 4990.1" clip-path="url(#a)" fill="none" stroke="#000" stroke-linecap="round"/>
<polyline points="5256.6 4990.1 5246.6 4990.1 5236.6 4990.1 5244.7 4984.3 5247.8 4974.7 5257.8 4974.7 5260.8 4984.3 5257.8 4993.8 5265.8 4999.6 5257.8 4993.8 5249.7 4987.9 5252.8 4978.4 5249.7 4968.9 5246.6 4978.4 5256.6 4978.4 5253.5 4968.9 5243.5 4968.9 5240.4 4978.4 5248.5 4972.5 5251.6 4982 5248.5 4972.5 5251.6 4982 5241.6 4982 5231.6 4982 5221.6 4982 5224.7 4991.5 5234.7 4991.5 5224.7 4991.5 5227.8 4982 5217.8 4982 5214.7 4991.5 5204.7 4991.5 5196.6 4985.6 5193.5 4976.1 5190.4 4966.6 5180.4 4966.6 5177.3 4976.1 5167.3 4976.1 5157.3 4976.1 5149.2 4982 5157.3 4987.9 5165.4 4993.8 5173.5 4987.9" clip-path="url(#a)" fill="none" stroke="#000" stroke-linecap="round"/>
<polyline points="5173.5 4987.9 5183.5 4987.9 5180.4 4978.4 5172.3 4972.5 5180.4 4978.4 5183.5 4987.9 5175.4 4982 5167.3 4976.1 5164.2 4966.6 5156.1 4960.7 5148 4966.6 5139.9 4972.5 5148 4966.6 5144.9 4957.1 5136.9 4951.2 5126.9 4951.2 5129.9 4941.7 5121.9 4935.8 5131.9 4935.8 5128.8 4926.3 5136.9 4920.5 5126.9 4920.5 5129.9 4930 5121.9 4924.1 5124.9 4933.6 5116.9 4939.5 5119.9 4949 5123 4958.5 5114.9 4964.4 5124.9 4964.4 5116.9 4970.3 5106.9 4970.3 5096.9 4970.3 5106.9 4970.3 5096.9 4970.3 5099.9 4979.8 5089.9 4979.8 5098 4985.6 5089.9 4979.8 5086.9 4970.3 5076.9 4970.3 5073.8 4960.7 5065.7 4966.6" clip-path="url(#a)" fill="none" stroke="#000" stroke-linecap="round"/>
<polyline points="5065.7 4966.6 5073.8 4972.5 5070.7 4982 5062.6 4976.1 5072.6 4976.1 5075.7 4966.6 5067.6 4960.7 5057.6 4960.7 5065.7 4966.6 5068.8 4976.1 5060.7 4982 5068.8 4987.9 5060.7 4993.8 5057.6 5003.3 5067.6 5003.3 5064.5 4993.8 5067.6 5003.3 5064.5 4993.8 5061.4 4984.3 5058.3 4993.8 5048.3 4993.8 5045.2 4984.3 5048.3 4993.8 5045.2 5003.3 5037.1 5009.2 5045.2 5015 5042.1 5005.5 5050.2 4999.6 5042.1 5005.5 5050.2 5011.4 5047.1 5001.9 5037.1 5001.9 5027.1 5001.9 5019 5007.8 5009 5007.8 5019 5007.8 5011 5001.9 5007.9 5011.4 4999.8 5017.3 4996.7 5007.8 4988.6 5013.6 4978.6 5013.6 4986.7 5019.5" clip-path="url(#a)" fill="none" stroke="#000" stroke-linecap="round"/>
<polyline points="4986.7 5019.5 4996.7 5019.5 4993.6 5010 5001.7 5015.9 4998.6 5025.4 4995.5 5034.9 4987.4 5029 4990.5 5019.5 4987.4 5010 4997.4 5010 4987.4 5010 4984.3 5000.5 4987.4 4991 4984.3 5000.5 4976.2 4994.6 4986.2 4994.6 4976.2 4994.6 4984.3 5000.5 4976.2 5006.4 4979.3 5015.9 4987.4 5010 4990.5 5000.5 4982.4 4994.6 4990.5 4988.7 4998.6 4982.9 4990.5 4977 4998.6 4982.9 4995.5 4992.4 5005.5 4992.4 5015.5 4992.4 5007.4 4998.3 5004.3 5007.8 4994.3 5007.8 4991.2 4998.3 4994.3 4988.7 4986.2 4982.9 4994.3 4988.7 5002.4 4994.6 4999.3 5004.1 5002.4 5013.6 5005.5 5004.1 4995.5 5004.1 4998.6 5013.6" clip-path="url(#a)" fill="none" stroke="#000" stroke-linecap="round"/>
<polyline points="4998.6 5013.6 5008.6 5013.6 5011.7 5004.1 5003.6 5010 5000.5 5000.5 5003.6 5010 5000.5 5000.5 5010.5 5000.5 5020.5 5000.5 5030.5 5000.5 5027.4 4991 5017.4 4991 5027.4 4991 5024.3 5000.5 5034.3 5000.5 5037.4 4991 5047.4 4991 5055.5 4996.9 5058.6 5006.4 5061.7 5015.9 5071.7 5015.9 5074.8 5006.4 5084.8 5006.4 5094.8 5006.4 5102.9 5000.5 5094.8 4994.6 5086.7 4988.7 5078.6 4994.6 5068.6 4994.6 5071.7 5004.1 5079.8 5010 5071.7 5004.1 5068.6 4994.6 5076.7 5000.5 5084.8 5006.4 5087.9 5015.9 5096 5021.8 5104 5015.9 5112.1 5010 5104 5015.9 5107.1 5025.4 5115.2 5031.3 5125.2 5031.3" clip-path="url(#a)" fill="none" stroke="#000" stroke-linecap="round"/>
<polyline points="5125.2 5031.3 5122.1 5040.8 5130.2 5046.7 5120.2 5046.7 5123.3 5056.2 5115.2 5062.1 5125.2 5062.1 5122.1 5052.5 5130.2 5058.4 5127.1 5048.9 5135.2 5043 5132.1 5033.5 5129 5024 5137.1 5018.1 5127.1 5018.1 5135.2 5012.3 5145.2 5012.3 5155.2 5012.3 5145.2 5012.3 5155.2 5012.3 5152.1 5002.7 5162.1 5002.7 5154 4996.9 5162.1 5002.7 5165.2 5012.3 5175.2 5012.3 5178.3 5021.8 5186.4 5015.9 5178.3 5010 5181.4 5000.5 5189.5 5006.4 5179.5 5006.4 5176.4 5015.9 5184.5 5021.8 5194.5 5021.8 5186.4 5015.9 5183.3 5006.4 5191.4 5000.5 5183.3 4994.6 5191.4 4988.7 5194.5 4979.2 5184.5 4979.2 5187.6 4988.7" clip-path="url(#a)" fill="none" stroke="#000" stroke-linecap="round"/>
<polyline points="5187.6 4988.7 5184.5 4979.2 5187.6 4988.7 5190.7 4998.3 5193.8 4988.7 5203.8 4988.7 5206.9 4998.3 5203.8 4988.7 5206.9 4979.2 5214.9 4973.4 5206.9 4967.5 5209.9 4977 5201.9 4982.9 5209.9 4977 5201.9 4971.1 5204.9 4980.6 5214.9 4980.6 5224.9 4980.6 5233 4974.7 5243 4974.7 5233 4974.7 5241.1 4980.6 5244.2 4971.1 5252.3 4965.2 5255.4 4974.7 5263.5 4968.9 5273.5 4968.9 5265.4 4963 5255.4 4963 5258.5 4972.5 5250.4 4966.6 5253.5 4957.1 5256.6 4947.6 5264.7 4953.5 5261.6 4963 5264.7 4972.5 5254.7 4972.5 5264.7 4972.5 5267.8 4982 5264.7 4991.5 5267.8 4982 5275.8 4987.9 5265.8 4987.9" clip-path="url(#a)" fill="none" stroke="#000" stroke-linecap="round"/>
<polyline points="5265.8 4987.9 5275.8 4987.9 5267.8 4982 5275.8 4976.1 5272.8 4966.6 5264.7 4972.5 5261.6 4982 5269.7 4987.9 5261.6 4993.8 5253.5 4999.6 5261.6 5005.5 5253.5 4999.6 5256.6 4990.1 5246.6 4990.1 5236.6 4990.1 5244.7 4984.3 5247.8 4974.7 5257.8 4974.7 5260.8 4984.3 5257.8 4993.8 5265.8 4999.6 5257.8 4993.8 5249.7 4987.9 5252.8 4978.4 5249.7 4968.9 5246.6 4978.4 5256.6 4978.4 5253.5 4968.9 5243.5 4968.9 5240.4 4978.4 5248.5 4972.5 5251.6 4982 5248.5 4972.5 5251.6 4982 5241.6 4982 5231.6 4982 5221.6 4982 5224.7 4991.5 5234.7 4991.5 5224.7 4991.5 5227.8 4982 5217.8 4982 5214.7 4991.5" clip-path="url(#a)" fill="none" stroke="#000" stroke-linecap="round"/>
<polyline points="5214.7 4991.5 5204.7 4991.5 5196.6 4985.6 5193.5 4976.1 5190.4 4966.6 5180.4 4966.6 5177.3 4976.1 5167.3 4976.1 5157.3 4976.1 5149.2 4982 5157.3 4987.9 5165.4 4993.8 5173.5 4987.9 5183.5 4987.9 5180.4 4978.4 5172.3 4972.5 5180.4 4978.4 5183.5 4987.9 5175.4 4982 5167.3 4976.1 5164.2 4966.6 5156.1 4960.7 5148 4966.6 5139.9 4972.5 5148 4966.6 5144.9 4957.1 5136.9 4951.2 5126.9 4951.2 5129.9 4941.7 5121.9 4935.8 5131.9 4935.8 5128.8 4926.3 5136.9 4920.5 5126.9 4920.5 5129.9 4930 5121.9 4924.1 5124.9 4933.6 5116.9 4939.5 5119.9 4949 5123 4958.5 5114.9 4964.4 5124.9 4964.4 5116.9 4970.3" clip-path="url(#a)" fill="none" stroke="#000" stroke-linecap="round"/>
<polyline points="5116.9 4970.3 5106.9 4970.3 5096.9 4970.3 5106.9 4970.3 5096.9 4970.3 5099.9 4979.8 5089.9 4979.8 5098 4985.6 5089.9 4979.8 5086.9 4970.3 5076.9 4970.3 5073.8 4960.7 5065.7 4966.6 5073.8 4972.5 5070.7 4982 5062.6 4976.1 5072.6 4976.1 5075.7 4966.6 5067.6 4960.7 5057.6 4960.7 5065.7 4966.6 5068.8 4976.1 5060.7 4982 5068.8 4987.9 5060.7 4993.8 5057.6 5003.3 5067.6 5003.3 5064.5 4993.8 5067.6 5003.3 5064.5 4993.8 5061.4 4984.3 5058.3 4993.8 5048.3 4993.8 5045.2 4984.3 5048.3 4993.8 5045.2 5003.3 5037.1 5009.2 5045.2 5015 5042.1 5005.5 5050.2 4999.6 5042.1 5005.5 5050.2 5011.4 5047.1 5001.9" clip-path="url(#a)" fill="none" stroke="#000" stroke-linecap="round"/>
<polyline points="5047.1 5001.9 5037.1 5001.9 5027.1 5001.9 5019 5007.8 5009 5007.8 5019 5007.8 5011 5001.9 5007.9 5011.4 4999.8 5017.3 4996.7 5007.8 4988.6 5013.6 4978.6 5013.6 4986.7 5019.5 4996.7 5019.5 4993.6 5010 5001.7 5015.9 4998.6 5025.4 4995.5 5034.9 4987.4 5029 4990.5 5019.5 4987.4 5010 4997.4 5010 4987.4 5010 4984.3 5000.5 4987.4 4991 4984.3 5000.5 4976.2 4994.6 4986.2 4994.6 4976.2 4994.6 4984.3 5000.5 4976.2 5006.4 4979.3 5015.9 4987.4 5010 4990.5 5000.5 4982.4 4994.6 4990.5 4988.7 4998.6 4982.9 4990.5 4977 4998.6 4982.9 4995.5 4992.4 5005.5 4992.4 5015.5 4992.4 5007.4 4998.3" clip-path="url(#a)" fill="none" stroke="#000" stroke-linecap="round"/>
<polyline points="5007.4 4998.3 5004.3 5007.8 4994.3 5007.8 4991.2 4998.3 4994.3 4988.7 4986.2 4982.9 4994.3 4988.7 5002.4 4994.6 4999.3 5004.1 5002.4 5013.6 5005.5 5004.1 4995.5 5004.1 4998.6 5013.6 5008.6 5013.6 5011.7 5004.1 5003.6 5010 5000.5 5000.5 5003.6 5010 5000.5 5000.5 5010.5 5000.5 5020.5 5000.5 5030.5 5000.5 5027.4 4991 5017.4 4991 5027.4 4991 5024.3 5000.5 5034.3 5000.5 5037.4 4991 5047.4 4991 5055.5 4996.9 5058.6 5006.4 5061.7 5015.9 5071.7 5015.9 5074.8 5006.4 5084.8 5006.4 5094.8 5006.4 5102.9 5000.5 5094.8 4994.6 5086.7 4988.7 5078.6 4994.6 5068.6 4994.6 5071.7 5004.1 5079.8 5010" clip-path="url(#a)" fill="none" stroke="#000" stroke-linecap="round"/>
<polyline points="5079.8 5010 5071.7 5004.1 5068.6 4994.6 5076.7 5000.5 5084.8 5006.4 5087.9 5015.9 5096 5021.8 5104 5015.9 5112.1 5010 5104 5015.9 5107.1 5025.4 5115.2 5031.3 5125.2 5031.3 5122.1 5040.8 5130.2 5046.7 5120.2 5046.7 5123.3 5056.2 5115.2 5062.1 5125.2 5062.1 5122.1 5052.5 5130.2 5058.4 5127.1 5048.9 5135.2 5043 5132.1 5033.5 5129 5024 5137.1 5018.1 5127.1 5018.1 5135.2 5012.3 5145.2 5012.3 5155.2 5012.3 5145.2 5012.3 5155.2 5012.3 5152.1 5002.7 5162.1 5002.7 5154 4996.9 5162.1 5002.7 5165.2 5012.3 5175.2 5012.3 5178.3 5021.8 5186.4 5015.9 5178.3 5010 5181.4 5000.5 5189.5 5006.4" clip-path="url(#a)" fill="none" stroke="#000" stroke-linecap="round"/>
<polyline points="5189.5 5006.4 5179.5 5006.4 5176.4 5015.9 5184.5 5021.8 5194.5 5021.8 5186.4 5015.9 5183.3 5006.4 5191.4 5000.5 5183.3 4994.6 5191.4 4988.7 5194.5 4979.2 5184.5 4979.2 5187.6 4988.7 5184.5 4979.2 5187.6 4988.7 5190.7 4998.3 5193.8 4988.7 5203.8 4988.7 5206.9 4998.3 5203.8 4988.7 5206.9 4979.2 5214.9 4973.4 5206.9 4967.5 5209.9 4977 5201.9 4982.9 5209.9 4977 5201.9 4971.1 5204.9 4980.6 5214.9 4980.6 5224.9 4980.6 5233 4974.7 5243 4974.7 5233 4974.7 5241.1 4980.6 5244.2 4971.1 5252.3 4965.2 5255.4 4974.7 5263.5 4968.9 5273.5 4968.9 5265.4 4963 5255.4 4963 5258.5 4972.5 5250.4 4966.6" clip-path="url(#a)" fill="none" stroke="#000" stroke-linecap="round"/>
<polyline points="5250.4 4966.6 5253.5 4957.1 5256.6 4947.6 5264.7 4953.5 5261.6 4963 5264.7 4972.5 5254.7 4972.5 5264.7 4972.5 5267.8 4982 5264.7 4991.5 5267.8 4982 5275.8 4987.9 5265.8 4987.9 5275.8 4987.9 5267.8 4982 5275.8 4976.1 5272.8 4966.6 5264.7 4972.5 5261.6 4982 5269.7 4987.9 5261.6 4993.8 5253.5 4999.6 5261.6 5005.5 5253.5 4999.6 5256.6 4990.1 5246.6 4990.1 5236.6 4990.1 5244.7 4984.3 5247.8 4974.7 5257.8 4974.7 5260.8 4984.3 5257.8 4993.8 5265.8 4999.6 5257.8 4993.8 5249.7 4987.9 5252.8 4978.4 5249.7 4968.9 5246.6 4978.4 5256.6 4978.4 5253.5 4968.9 5243.5 4968.9 5240.4 4978.4 5248.5 4972.5" clip-path="url(#a)" fill="none" stroke="#000" stroke-linecap="round"/>
<polyline points="5248.5 4972.5 5251.6 4982 5248.5 4972.5 5251.6 4982 5241.6 4982 5231.6 4982 5221.6 4982 5224.7 4991.5 5234.7 4991.5 5224.7 4991.5 5227.8 4982 5217.8 4982 5214.7 4991.5 5204.7 4991.5 5196.6 4985.6 5193.5 4976.1 5190.4 4966.6 5180.4 4966.6 5177.3 4976.1 5167.3 4976.1 5157.3 4976.1 5149.2 4982 5157.3 4987.9 5165.4 4993.8 5173.5 4987.9 5183.5 4987.9 5180.4 4978.4 5172.3 4972.5 5180.4 4978.4 5183.5 4987.9 5175.4 4982 5167.3 4976.1 5164.2 4966.6 5156.1 4960.7 5148 4966.6 5139.9 4972.5 5148 4966.6 5144.9 4957.1 5136.9 4951.2 5126.9 4951.2 5129.9 4941.7 5121.9 4935.8 5131.9 4935.8" clip-path="url(#a)" fill="none" stroke="#000" stroke-linecap="round"/>
<polyline points="5131.9 4935.8 5128.8 4926.3 5136.9 4920.5 5126.9 4920.5 5129.9 4930 5121.9 4924.1 5124.9 4933.6 5116.9 4939.5 5119.9 4949 5123 4958.5 5114.9 4964.4 5124.9 4964.4 5116.9 4970.3 5106.9 4970.3 5096.9 4970.3 5106.9 4970.3 5096.9 4970.3 5099.9 4979.8 5089.9 4979.8 5098 4985.6 5089.9 4979.8 5086.9 4970.3 5076.9 4970.3 5073.8 4960.7 5065.7 4966.6 5073.8 4972.5 5070.7 4982 5062.6 4976.1 5072.6 4976.1 5075.7 4966.6 5067.6 4960.7 5057.6 4960.7 5065.7 4966.6 5068.8 4976.1 5060.7 4982 5068.8 4987.9 5060.7 4993.8 5057.6 5003.3 5067.6 5003.3 5064.5 4993.8 5067.6 5003.3 5064.5 4993.8 5061.4 4984.3" clip-path="url(#a)" fill="none" stroke="#000" stroke-linecap="round"/>
<polyline points="5061.4 4984.3 5058.3 4993.8 5048.3 4993.8 5045.2 4984.3 5048.3 4993.8 5045.2 5003.3 5037.1 5009.2 5045.2 5015 5042.1 5005.5 5050.2 4999.6 5042.1 5005.5 5050.2 5011.4 5047.1 5001.9 5037.1 5001.9 5027.1 5001.9 5019 5007.8 5009 5007.8 5019 5007.8 5011 5001.9 5007.9 5011.4 4999.8 5017.3 4996.7 5007.8 4988.6 5013.6 4978.6 5013.6 4986.7 5019.5 4996.7 5019.5 4993.6 5010 5001.7 5015.9 4998.6 5025.4 4995.5 5034.9 4987.4 5029 4990.5 5019.5 4987.4 5010 4997.4 5010 4987.4 5010 4984.3 5000.5 4987.4 4991 4984.3 5000.5 4976.2 4994.6 4986.2 4994.6 4976.2 4994.6 4984.3 5000.5 4976.2 5006.4" clip-path="url(#a)" fill="none" stroke="#000" stroke-linecap="round"/>
<polyline points="4976.2 5006.4 4979.3 5015.9 4987.4 5010 4990.5 5000.5 4982.4 4994.6 4990.5 4988.7 4998.6 4982.9 4990.5 4977 4998.6 4982.9 4995.5 4992.4 5005.5 4992.4 5015.5 4992.4 5007.4 4998.3 5004.3 5007.8 4994.3 5007.8 4991.2 4998.3 4994.3 4988.7 4986.2 4982.9 4994.3 4988.7 5002.4 4994.6 4999.3 5004.1 5002.4 5013.6 5005.5 5004.1 4995.5 5004.1 4998.6 5013.6 5008.6 5013.6 5011.7 5004.1 5003.6 5010 5000.5 5000.5 5003.6 5010 5000.5 5000.5 5010.5 5000.5 5020.5 5000.5 5030.5 5000.5 5027.4 4991 5017.4 4991 5027.4 4991 5024.3 5000.5 5034.3 5000.5 5037.4 4991 5047.4 4991 5055.5 4996.9 5058.6 5006.4" clip-path="url(#a)" fill="none" stroke="#000" stroke-linecap="round"/>
<polyline points="5058.6 5006.4 5061.7 5015.9 5071.7 5015.9 5074.8 5006.4 5084.8 5006.4 5094.8 5006.4 5102.9 5000.5 5094.8 4994.6 5086.7 4988.7 5078.6 4994.6 5068.6 4994.6 5071.7 5004.1 5079.8 5010 5071.7 5004.1 5068.6 4994.6 5076.7 5000.5 5084.8 5006.4 5087.9 5015.9 5096 5021.8 5104 5015.9 5112.1 5010 5104 5015.9 5107.1 5025.4 5115.2 5031.3 5125.2 5031.3 5122.1 5040.8 5130.2 5046.7 5120.2 5046.7 5123.3 5056.2 5115.2 5062.1 5125.2 5062.1 5122.1 5052.5 5130.2 5058.4 5127.1 5048.9 5135.2 5043 5132.1 5033.5 5129 5024 5137.1 5018.1 5127.1 5018.1 5135.2 5012.3 5145.2 5012.3 5155.2 5012.3 5145.2 5012.3" clip-path="url(#a)" fill="none" stroke="#000" stroke-linecap="round"/>
<polyline points="5145.2 5012.3 5155.2 5012.3 5152.1 5002.7 5162.1 5002.7 5154 4996.9 5162.1 5002.7 5165.2 5012.3 5175.2 5012.3 5178.3 5021.8 5186.4 5015.9 5178.3 5010 5181.4 5000.5 5189.5 5006.4 5179.5 5006.4 5176.4 5015.9 5184.5 5021.8 5194.5 5021.8 5186.4 5015.9 5183.3 5006.4 5191.4 5000.5 5183.3 4994.6 5191.4 4988.7 5194.5 4979.2 5184.5 4979.2 5187.6 4988.7 5184.5 4979.2 5187.6 4988.7 5190.7 4998.3 5193.8 4988.7 5203.8 4988.7 5206.9 4998.3 5203.8 4988.7 5206.9 4979.2 5214.9 4973.4 5206.9 4967.5 5209.9 4977 5201.9 4982.9 5209.9 4977 5201.9 4971.1 5204.9 4980.6 5214.9 4980.6 5224.9 4980.6 5233 4974.7" clip-path="url(#a)" fill="none" stroke="#000" stroke-linecap="round"/>
<polyline points="5233 4974.7 5243 4974.7 5233 4974.7 5241.1 4980.6 5244.2 4971.1 5252.3 4965.2 5255.4 4974.7 5263.5 4968.9 5273.5 4968.9 5265.4 4963 5255.4 4963 5258.5 4972.5 5250.4 4966.6 5253.5 4957.1 5256.6 4947.6 5264.7 4953.5 5261.6 4963 5264.7 4972.5 5254.7 4972.5 5264.7 4972.5 5267.8 4982 5264.7 4991.5 5267.8 4982 5275.8 4987.9 5265.8 4987.9 5275.8 4987.9 5267.8 4982 5275.8 4976.1 5272.8 4966.6 5264.7 4972.5 5261.6 4982 5269.7 4987.9 5261.6 4993.8 5253.5 4999.6 5261.6 5005.5 5253.5 4999.6 5256.6 4990.1 5246.6 4990.1 5236.6 4990.1 5244.7 4984.3 5247.8 4974.7 5257.8 4974.7 5260.8 4984.3" clip-path="url(#a)" fill="none" stroke="#000" stroke-linecap="round"/>
<polyline points="5260.8 4984.3 5257.8 4993.8 5265.8 4999.6 5257.8 4993.8 5249.7 4987.9 5252.8 4978.4 5249.7 4968.9 5246.6 4978.4 5256.6 4978.4 5253.5 4968.9 5243.5 4968.9 5240.4 4978.4 5248.5 4972.5 5251.6 4982 5248.5 4972.5 5251.6 4982 5241.6 4982 5231.6 4982 5221.6 4982 5224.7 4991.5 5234.7 4991.5 5224.7 4991.5 5227.8 4982 5217.8 4982 5214.7 4991.5 5204.7 4991.5 5196.6 4985.6 5193.5 4976.1 5190.4 4966.6 5180.4 4966.6 5177.3 4976.1 5167.3 4976.1 5157.3 4976.1 5149.2 4982 5157.3 4987.9 5165.4 4993.8 5173.5 4987.9 5183.5 4987.9 5180.4 4978.4 5172.3 4972.5 5180.4 4978.4 5183.5 4987.9 5175.4 4982" clip-path="url(#a)" fill="none" stroke="#000" stroke-linecap="round"/>
<polyline points="5175.4 4982 5167.3 4976.1 5164.2 4966.6 5156.1 4960.7 5148 4966.6 5139.9 4972.5 5148 4966.6 5144.9 4957.1 5136.9 4951.2 5126.9 4951.2 5129.9 4941.7 5121.9 4935.8 5131.9 4935.8 5128.8 4926.3 5136.9 4920.5 5126.9 4920.5 5129.9 4930 5121.9 4924.1 5124.9 4933.6 5116.9 4939.5 5119.9 4949 5123 4958.5 5114.9 4964.4 5124.9 4964.4 5116.9 4970.3 5106.9 4970.3 5096.9 4970.3 5106.9 4970.3 5096.9 4970.3 5099.9 4979.8 5089.9 4979.8 5098 4985.6 5089.9 4979.8 5086.9 4970.3 5076.9 4970.3 5073.8 4960.7 5065.7 4966.6 5073.8 4972.5 5070.7 4982 5062.6 4976.1 5072.6 4976.1 5075.7 4966.6 5067.6 4960.7" clip-path="url(#a)" fill="none" stroke="#000" stroke-linecap="round"/>
<polyline points="5067.6 4960.7 5057.6 4960.7 5065.7 4966.6 5068.8 4976.1 5060.7 4982 5068.8 4987.9 5060.7 4993.8 5057.6 5003.3 5067.6 5003.3 5064.5 4993.8 5067.6 5003.3 5064.5 4993.8 5061.4 4984.3 5058.3 4993.8 5048.3 4993.8 5045.2 4984.3 5048.3 4993.8 5045.2 5003.3 5037.1 5009.2 5045.2 5015 5042.1 5005.5 5050.2 4999.6 5042.1 5005.5 5050.2 5011.4 5047.1 5001.9 5037.1 5001.9 5027.1 5001.9 5019 5007.8 5009 5007.8 5019 5007.8 5011 5001.9 5007.9 5011.4 4999.8 5017.3 4996.7 5007.8 4988.6 5013.6 4978.6 5013.6 4986.7 5019.5 4996.7 5019.5 4993.6 5010 5001.7 5015.9 4998.6 5025.4 4995.5 5034.9 4987.4 5029" clip-path="url(#a)" fill="none" stroke="#000" stroke-linecap="round"/>
<polyline points="4987.4 5029 4990.5 5019.5 4987.4 5010 4997.4 5010 4987.4 5010 4984.3 5000.5 4987.4 4991 4984.3 5000.5 4976.2 4994.6 4986.2 4994.6 4976.2 4994.6 4984.3 5000.5 4976.2 5006.4 4979.3 5015.9 4987.4 5010 4990.5 5000.5 4982.4 4994.6 4990.5 4988.7 4998.6 4982.9 4990.5 4977 4998.6 4982.9 4995.5 4992.4 5005.5 4992.4 5015.5 4992.4 5007.4 4998.3 5004.3 5007.8 4994.3 5007.8 4991.2 4998.3 4994.3 4988.7 4986.2 4982.9 4994.3 4988.7 5002.4 4994.6 4999.3 5004.1 5002.4 5013.6 5005.5 5004.1 4995.5 5004.1 4998.6 5013.6 5008.6 5013.6 5011.7 5004.1 5003.6 5010 5000.5 5000.5 5003.6 5010 5000.5 5000.5" clip-path="url(#a)" fill="none" stroke="#000" stroke-linecap="round"/>
<polyline points="5000.5 5000.5 5010.5 5000.5 5020.5 5000.5 5030.5 5000.5 5027.4 4991 5017.4 4991 5027.4 4991 5024.3 5000.5 5034.3 5000.5 5037.4 4991 5047.4 4991 5055.5 4996.9 5058.6 5006.4 5061.7 5015.9 5071.7 5015.9 5074.8 5006.4 5084.8 5006.4 5094.8 5006.4 5102.9 5000.5 5094.8 4994.6 5086.7 4988.7 5078.6 4994.6 5068.6 4994.6 5071.7 5004.1 5079.8 5010 5071.7 5004.1 5068.6 4994.6 5076.7 5000.5 5084.8 5006.4 5087.9 5015.9 5096 5021.8 5104 5015.9 5112.1 5010 5104 5015.9 5107.1 5025.4 5115.2 5031.3 5125.2 5031.3 5122.1 5040.8 5130.2 5046.7 5120.2 5046.7 5123.3 5056.2 5115.2 5062.1 5125.2 5062.1" clip-path="url(#a)" fill="none" stroke="#000" stroke-linecap="round"/>
<polyline points="5125.2 5062.1 5122.1 5052.5 5130.2 5058.4 5127.1 5048.9 5135.2 5043 5132.1 5033.5 5129 5024 5137.1 5018.1 5127.1 5018.1 5135.2 5012.3 5145.2 5012.3 5155.2 5012.3 5145.2 5012.3 5155.2 5012.3 5152.1 5002.7 5162.1 5002.7 5154 4996.9 5162.1 5002.7 5165.2 5012.3 5175.2 5012.3 5178.3 5021.8 5186.4 5015.9 5178.3 5010 5181.4 5000.5 5189.5 5006.4 5179.5 5006.4 5176.4 5015.9 5184.5 5021.8 5194.5 5021.8 5186.4 5015.9 5183.3 5006.4 5191.4 5000.5 5183.3 4994.6 5191.4 4988.7 5194.5 4979.2 5184.5 4979.2 5187.6 4988.7 5184.5 4979.2 5187.6 4988.7 5190.7 4998.3 5193.8 4988.7 5203.8 4988.7 5206.9 4998.3" clip-path="url(#a)" fill="none" stroke="#000" stroke-linecap="round"/>
<polyline points="5206.9 4998.3 5203.8 4988.7 5206.9 4979.2 5214.9 4973.4 5206.9 4967.5 5209.9 4977 5201.9 4982.9 5209.9 4977 5201.9 4971.1 5204.9 4980.6 5214.9 4980.6 5224.9 4980.6 5233 4974.7 5243 4974.7 5233 4974.7 5241.1 4980.6 5244.2 4971.1 5252.3 4965.2 5255.4 4974.7 5263.5 4968.9 5273.5 4968.9 5265.4 4963 5255.4 4963 5258.5 4972.5 5250.4 4966.6 5253.5 4957.1 5256.6 4947.6 5264.7 4953.5 5261.6 4963 5264.7 4972.5 5254.7 4972.5 5264.7 4972.5 5267.8 4982 5264.7 4991.5 5267.8 4982 5275.8 4987.9 5265.8 4987.9 5275.8 4987.9 5267.8 4982 5275.8 4976.1 5272.8 4966.6 5264.7 4972.5 5261.6 4982" clip-path="url(#a)" fill="none" stroke="#000" stroke-linecap="round"/>
<polyline points="5261.6 4982 5269.7 4987.9 5261.6 4993.8 5253.5 4999.6 5261.6 5005.5 5253.5 4999.6 5256.6 4990.1 5246.6 4990.1 5236.6 4990.1 5244.7 4984.3 5247.8 4974.7 5257.8 4974.7 5260.8 4984.3 5257.8 4993.8 5265.8 4999.6 5257.8 4993.8 5249.7 4987.9 5252.8 4978.4 5249.7 4968.9 5246.6 4978.4 5256.6 4978.4 5253.5 4968.9 5243.5 4968.9 5240.4 4978.4 5248.5 4972.5 5251.6 4982 5248.5 4972.5 5251.6 4982 5241.6 4982 5231.6 4982 5221.6 4982 5224.7 4991.5 5234.7 4991.5 5224.7 4991.5 5227.8 4982 5217.8 4982 5214.7 4991.5 5204.7 4991.5 5196.6 4985.6 5193.5 4976.1 5190.4 4966.6 5180.4 4966.6 5177.3 4976.1" clip-path="url(#a)" fill="none" stroke="#000" stroke-linecap="round"/>
<polyline points="5177.3 4976.1 5167.3 4976.1 5157.3 4976.1 5149.2 4982 5157.3 4987.9 5165.4 4993.8 5173.5 4987.9 5183.5 4987.9 5180.4 4978.4 5172.3 4972.5 5180.4 4978.4 5183.5 4987.9 5175.4 4982 5167.3 4976.1 5164.2 4966.6 5156.1 4960.7 5148 4966.6 5139.9 4972.5 5148 4966.6 5144.9 4957.1 5136.9 4951.2 5126.9 4951.2 5129.9 4941.7 5121.9 4935.8 5131.9 4935.8 5128.8 4926.3 5136.9 4920.5 5126.9 4920.5 5129.9 4930 5121.9 4924.1 5124.9 4933.6 5116.9 4939.5 5119.9 4949 5123 4958.5 5114.9 4964.4 5124.9 4964.4 5116.9 4970.3 5106.9 4970.3 5096.9 4970.3 5106.9 4970.3 5096.9 4970.3 5099.9 4979.8 5089.9 4979.8" clip-path="url(#a)" fill="none" stroke="#000" stroke-linecap="round"/>
<polyline points="5089.9 4979.8 5098 4985.6 5089.9 4979.8 5086.9 4970.3 5076.9 4970.3 5073.8 4960.7 5065.7 4966.6 5073.8 4972.5 5070.7 4982 5062.6 4976.1 5072.6 4976.1 5075.7 4966.6 5067.6 4960.7 5057.6 4960.7 5065.7 4966.6 5068.8 4976.1 5060.7 4982 5068.8 4987.9 5060.7 4993.8 5057.6 5003.3 5067.6 5003.3 5064.5 4993.8 5067.6 5003.3 5064.5 4993.8 5061.4 4984.3 5058.3 4993.8 5048.3 4993.8 5045.2 4984.3 5048.3 4993.8 5045.2 5003.3 5037.1 5009.2 5045.2 5015 5042.1 5005.5 5050.2 4999.6 5042.1 5005.5 5050.2 5011.4 5047.1 5001.9 5037.1 5001.9 5027.1 5001.9 5019 5007.8 5009 5007.8 5019 5007.8 5011 5001.9" clip-path="url(#a)" fill="none" stroke="#000" stroke-linecap="round"/>
<polyline points="5011 5001.9 5007.9 5011.4 4999.8 5017.3 4996.7 5007.8 4988.6 5013.6 4978.6 5013.6 4986.7 5019.5 4996.7 5019.5 4993.6 5010 5001.7 5015.9 4998.6 5025.4 4995.5 5034.9 4987.4 5029 4990.5 5019.5 4987.4 5010 4997.4 5010 4987.4 5010 4984.3 5000.5 4987.4 4991 4984.3 5000.5 4976.2 4994.6 4986.2 4994.6 4976.2 4994.6 4984.3 5000.5 4976.2 5006.4 4979.3 5015.9 4987.4 5010 4990.5 5000.5 4982.4 4994.6 4990.5 4988.7 4998.6 4982.9 4990.5 4977 4998.6 4982.9 4995.5 4992.4 5005.5 4992.4 5015.5 4992.4 5007.4 4998.3 5004.3 5007.8 4994.3 5007.8 4991.2 4998.3 4994.3 4988.7 4986.2 4982.9 4994.3 4988.7" clip-path="url(#a)" fill="none" stroke="#000" stroke-linecap="round"/>
<polyline points="4994.3 4988.7 5002.4 4994.6 4999.3 5004.1 5002.4 5013.6 5005.5 5004.1 4995.5 5004.1 4998.6 5013.6 5008.6 5013.6 5011.7 5004.1 5003.6 5010 5000.5 5000.5 5003.6 5010 5000.5 5000.5 5010.5 5000.5 5020.5 5000.5 5030.5 5000.5 5027.4 4991 5017.4 4991 5027.4 4991 5024.3 5000.5 5034.3 5000.5 5037.4 4991 5047.4 4991 5055.5 4996.9 5058.6 5006.4 5061.7 5015.9 5071.7 5015.9 5074.8 5006.4 5084.8 5006.4 5094.8 5006.4 5102.9 5000.5 5094.8 4994.6 5086.7 4988.7 5078.6 4994.6 5068.6 4994.6 5071.7 5004.1 5079.8 5010 5071.7 5004.1 5068.6 4994.6 5076.7 5000.5 5084.8 5006.4 5087.9 5015.9 5096 5021.8" clip-path="url(#a)" fill="none" stroke="#000" stroke-linecap="round"/>
<polyline points="5096 5021.8 5104 5015.9 5112.1 5010 5104 5015.9 5107.1 5025.4 5115.2 5031.3 5125.2 5031.3 5122.1 5040.8 5130.2 5046.7 5120.2 5046.7 5123.3 5056.2 5115.2 5062.1 5125.2 5062.1 5122.1 5052.5 5130.2 5058.4 5127.1 5048.9 5135.2 5043 5132.1 5033.5 5129 5024 5137.1 5018.1 5127.1 5018.1 5135.2 5012.3 5145.2 5012.3 5155.2 5012.3 5145.2 5012.3 5155.2 5012.3 5152.1 5002.7 5162.1 5002.7 5154 4996.9 5162.1 5002.7 5165.2 5012.3 5175.2 5012.3 5178.3 5021.8 5186.4 5015.9 5178.3 5010 5181.4 5000.5 5189.5 5006.4 5179.5 5006.4 5176.4 5015.9 5184.5 5021.8 5194.5 5021.8 5186.4 5015.9 5183.3 5006.4" clip-path="url(#a)" fill="none" stroke="#000" stroke-linecap="round"/>
<polyline points="5183.3 5006.4 5191.4 5000.5 5183.3 4994.6 5191.4 4988.7 5194.5 4979.2 5184.5 4979.2 5187.6 4988.7 5184.5 4979.2 5187.6 4988.7 5190.7 4998.3 5193.8 4988.7 5203.8 4988.7 5206.9 4998.3 5203.8 4988.7 5206.9 4979.2 5214.9 4973.4 5206.9 4967.5 5209.9 4977 5201.9 4982.9 5209.9 4977 5201.9 4971.1 5204.9 4980.6 5214.9 4980.6 5224.9 4980.6 5233 4974.7 5243 4974.7 5233 4974.7 5241.1 4980.6 5244.2 4971.1 5252.3 4965.2 5255.4 4974.7 5263.5 4968.9 5273.5 4968.9 5265.4 4963 5255.4 4963 5258.5 4972.5 5250.4 4966.6 5253.5 4957.1 5256.6 4947.6 5264.7 4953.5 5261.6 4963 5264.7 4972.5 5254.7 4972.5" clip-path="url(#a)" fill="none" stroke="#000" stroke-linecap="round"/>
<polyline points="5254.7 4972.5 5264.7 4972.5 5267.8 4982 5264.7 4991.5 5267.8 4982 5275.8 4987.9 5265.8 4987.9 5275.8 4987.9 5267.8 4982 5275.8 4976.1 5272.8 4966.6 5264.7 4972.5 5261.6 4982 5269.7 4987.9 5261.6 4993.8 5253.5 4999.6 5261.6 5005.5 5253.5 4999.6 5256.6 4990.1 5246.6 4990.1 5236.6 4990.1 5244.7 4984.3 5247.8 4974.7 5257.8 4974.7 5260.8 4984.3 5257.8 4993.8 5265.8 4999.6 5257.8 4993.8 5249.7 4987.9 5252.8 4978.4 5249.7 4968.9 5246.6 4978.4 5256.6 4978.4 5253.5 4968.9 5243.5 4968.9 5240.4 4978.4 5248.5 4972.5 5251.6 4982 5248.5 4972.5 5251.6 4982 5241.6 4982 5231.6 4982 5221.6 4982" clip-path="url(#a)" fill="none" stroke="#000" stroke-linecap="round"/>
<polyline points="5221.6 4982 5224.7 4991.5 5234.7 4991.5 5224.7 4991.5 5227.8 4982 5217.8 4982 5214.7 4991.5 5204.7 4991.5 5196.6 4985.6 5193.5 4976.1 5190.4 4966.6 5180.4 4966.6 5177.3 4976.1 5167.3 4976.1 5157.3 4976.1 5149.2 4982 5157.3 4987.9 5165.4 4993.8 5173.5 4987.9 5183.5 4987.9 5180.4 4978.4 5172.3 4972.5 5180.4 4978.4 5183.5 4987.9 5175.4 4982 5167.3 4976.1 5164.2 4966.6 5156.1 4960.7 5148 4966.6 5139.9 4972.5 5148 4966.6 5144.9 4957.1 5136.9 4951.2 5126.9 4951.2 5129.9 4941.7 5121.9 4935.8 5131.9 4935.8 5128.8 4926.3 5136.9 4920.5 5126.9 4920.5 5129.9 4930 5121.9 4924.1 5124.9 4933.6" clip-path="url(#a)" fill="none" stroke="#000" stroke-linecap="round"/>
<polyline points="5124.9 4933.6 5116.9 4939.5 5119.9 4949 5123 4958.5 5114.9 4964.4 5124.9 4964.4 5116.9 4970.3 5106.9 4970.3 5096.9 4970.3 5106.9 4970.3 5096.9 4970.3 5099.9 4979.8 5089.9 4979.8 5098 4985.6 5089.9 4979.8 5086.9 4970.3 5076.9 4970.3 5073.8 4960.7 5065.7 4966.6 5073.8 4972.5 5070.7 4982 5062.6 4976.1 5072.6 4976.1 5075.7 4966.6 5067.6 4960.7 5057.6 4960.7 5065.7 4966.6 5068.8 4976.1 5060.7 4982 5068.8 4987.9 5060.7 4993.8 5057.6 5003.3 5067.6 5003.3 5064.5 4993.8 5067.6 5003.3 5064.5 4993.8 5061.4 4984.3 5058.3 4993.8 5048.3 4993.8 5045.2 4984.3 5048.3 4993.8 5045.2 5003.3 5037.1 5009.2" clip-path="url(#a)" fill="none" stroke="#000" stroke-linecap="round"/>
<polyline points="5037.1 5009.2 5045.2 5015 5042.1 5005.5 5050.2 4999.6 5042.1 5005.5 5050.2 5011.4 5047.1 5001.9 5037.1 5001.9 5027.1 5001.9 5019 5007.8 5009 5007.8 5019 5007.8 5011 5001.9 5007.9 5011.4 4999.8 5017.3 4996.7 5007.8 4988.6 5013.6 4978.6 5013.6 4986.7 5019.5 4996.7 5019.5 4993.6 5010 5001.7 5015.9 4998.6 5025.4 4995.5 5034.9 4987.4 5029 4990.5 5019.5 4987.4 5010 4997.4 5010 4987.4 5010 4984.3 5000.5 4987.4 4991 4984.3 5000.5 4976.2 4994.6 4986.2 4994.6 4976.2 4994.6 4984.3 5000.5 4976.2 5006.4 4979.3 5015.9 4987.4 5010 4990.5 5000.5 4982.4 4994.6 4990.5 4988.7 4998.6 4982.9" clip-path="url(#a)" fill="none" stroke="#000" stroke-linecap="round"/>
<polyline points="4998.6 4982.9 4990.5 4977 4998.6 4982.9 4995.5 4992.4 5005.5 4992.4 5015.5 4992.4 5007.4 4998.3 5004.3 5007.8 4994.3 5007.8 4991.2 4998.3 4994.3 4988.7 4986.2 4982.9 4994.3 4988.7 5002.4 4994.6 4999.3 5004.1 5002.4 5013.6 5005.5 5004.1 4995.5 5004.1 4998.6 5013.6 5008.6 5013.6 5011.7 5004.1 5003.6 5010 5000.5 5000.5 5003.6 5010 5000.5 5000.5 5010.5 5000.5 5020.5 5000.5 5030.5 5000.5 5027.4 4991 5017.4 4991 5027.4 4991 5024.3 5000.5 5034.3 5000.5 5037.4 4991 5047.4 4991 5055.5 4996.9 5058.6 5006.4 5061.7 5015.9 5071.7 5015.9 5074.8 5006.4 5084.8 5006.4 5094.8 5006.4 5102.9 5000.5" clip-path="url(#a)" fill="none" stroke="#000" stroke-linecap="round"/>
<polyline points="5102.9 5000.5 5094.8 4994.6 5086.7 4988.7 5078.6 4994.6 5068.6 4994.6 5071.7 5004.1 5079.8 5010 5071.7 5004.1 5068.6 4994.6 5076.7 5000.5 5084.8 5006.4 5087.9 5015.9 5096 5021.8 5104 5015.9 5112.1 5010 5104 5015.9 5107.1 5025.4 5115.2 5031.3 5125.2 5031.3 5122.1 5040.8 5130.2 5046.7 5120.2 5046.7 5123.3 5056.2 5115.2 5062.1 5125.2 5062.1 5122.1 5052.5 5130.2 5058.4 5127.1 5048.9 5135.2 5043 5132.1 5033.5 5129 5024 5137.1 5018.1 5127.1 5018.1 5135.2 5012.3 5145.2 5012.3 5155.2 5012.3 5145.2 5012.3 5155.2 5012.3 5152.1 5002.7 5162.1 5002.7 5154 4996.9 5162.1 5002.7 5165.2 5012.3" clip-path="url(#a)" fill="none" stroke="#000" stroke-linecap="round"/>
<polyline points="5165.2 5012.3 5175.2 5012.3 5178.3 5021.8 5186.4 5015.9 5178.3 5010 5181.4 5000.5 5189.5 5006.4 5179.5 5006.4 5176.4 5015.9 5184.5 5021.8 5194.5 5021.8 5186.4 5015.9 5183.3 5006.4 5191.4 5000.5 5183.3 4994.6 5191.4 4988.7 5194.5 4979.2 5184.5 4979.2 5187.6 4988.7 5184.5 4979.2 5187.6 4988.7 5190.7 4998.3 5193.8 4988.7 5203.8 4988.7 5206.9 4998.3 5203.8 4988.7 5206.9 4979.2 5214.9 4973.4 5206.9 4967.5 5209.9 4977 5201.9 4982.9 5209.9 4977 5201.9 4971.1 5204.9 4980.6 5214.9 4980.6 5224.9 4980.6 5233 4974.7 5243 4974.7 5233 4974.7 5241.1 4980.6 5244.2 4971.1 5252.3 4965.2 5255.4 4974.7" clip-path="url(#a)" fill="none" stroke="#000" stroke-linecap="round"/>
<polyline points="5255.4 4974.7 5263.5 4968.9 5273.5 4968.9 5265.4 4963 5255.4 4963 5258.5 4972.5 5250.4 4966.6 5253.5 4957.1 5256.6 4947.6 5264.7 4953.5 5261.6 4963 5264.7 4972.5 5254.7 4972.5 5264.7 4972.5 5267.8 4982 5264.7 4991.5 5267.8 4982 5275.8 4987.9 5265.8 4987.9 5275.8 4987.9 5267.8 4982 5275.8 4976.1 5272.8 4966.6 5264.7 4972.5 5261.6 4982 5269.7 4987.9 5261.6 4993.8 5253.5 4999.6 5261.6 5005.5 5253.5 4999.6 5256.6 4990.1 5246.6 4990.1 5236.6 4990.1 5244.7 4984.3 5247.8 4974.7 5257.8 4974.7 5260.8 4984.3 5257.8 4993.8 5265.8 4999.6 5257.8 4993.8 5249.7 4987.9 5252.8 4978.4 5249.7 4968.9" clip-path="url(#a)" fill="none" stroke="#000" stroke-linecap="round"/>
<polyline points="5249.7 4968.9 5246.6 4978.4 5256.6 4978.4 5253.5 4968.9 5243.5 4968.9 5240.4 4978.4 5248.5 4972.5 5251.6 4982 5248.5 4972.5 5251.6 4982 5241.6 4982 5231.6 4982 5221.6 4982 5224.7 4991.5 5234.7 4991.5 5224.7 4991.5 5227.8 4982 5217.8 4982 5214.7 4991.5 5204.7 4991.5 5196.6 4985.6 5193.5 4976.1 5190.4 4966.6 5180.4 4966.6 5177.3 4976.1 5167.3 4976.1 5157.3 4976.1 5149.2 4982 5157.3 4987.9 5165.4 4993.8 5173.5 4987.9 5183.5 4987.9 5180.4 4978.4 5172.3 4972.5 5180.4 4978.4 5183.5 4987.9 5175.4 4982 5167.3 4976.1 5164.2 4966.6 5156.1 4960.7 5148 4966.6 5139.9 4972.5 5148 4966.6" clip-path="url(#a)" fill="none" stroke="#000" stroke-linecap="round"/>
<polyline points="5148 4966.6 5144.9 4957.1 5136.9 4951.2 5126.9 4951.2 5129.9 4941.7 5121.9 4935.8 5131.9 4935.8 5128.8 4926.3 5136.9 4920.5 5126.9 4920.5 5129.9 4930 5121.9 4924.1 5124.9 4933.6 5116.9 4939.5 5119.9 4949 5123 4958.5 5114.9 4964.4 5124.9 4964.4 5116.9 4970.3 5106.9 4970.3 5096.9 4970.3 5106.9 4970.3 5096.9 4970.3 5099.9 4979.8 5089.9 4979.8 5098 4985.6 5089.9 4979.8 5086.9 4970.3 5076.9 4970.3 5073.8 4960.7 5065.7 4966.6 5073.8 4972.5 5070.7 4982 5062.6 4976.1 5072.6 4976.1 5075.7 4966.6 5067.6 4960.7 5057.6 4960.7 5065.7 4966.6 5068.8 4976.1 5060.7 4982 5068.8 4987.9 5060.7 4993.8" clip-path="url(#a)" fill="none" stroke="#000" stroke-linecap="round"/>
<polyline points="5060.7 4993.8 5057.6 5003.3 5067.6 5003.3 5064.5 4993.8 5067.6 5003.3 5064.5 4993.8 5061.4 4984.3 5058.3 4993.8 5048.3 4993.8 5045.2 4984.3 5048.3 4993.8 5045.2 5003.3 5037.1 5009.2 5045.2 5015 5042.1 5005.5 5050.2 4999.6 5042.1 5005.5 5050.2 5011.4 5047.1 5001.9 5037.1 5001.9 5027.1 5001.9 5019 5007.8 5009 5007.8 5019 5007.8 5011 5001.9 5007.9 5011.4 4999.8 5017.3 4996.7 5007.8 4988.6 5013.6 4978.6 5013.6 4986.7 5019.5 4996.7 5019.5 4993.6 5010 5001.7 5015.9 4998.6 5025.4 4995.5 5034.9 4987.4 5029 4990.5 5019.5 4987.4 5010 4997.4 5010 4987.4 5010 4984.3 5000.5 4987.4 4991" clip-path="url(#a)" fill="none" stroke="#000" stroke-linecap="round"/>
<polyline points="4987.4 4991 4984.3 5000.5 4976.2 4994.6 4986.2 4994.6 4976.2 4994.6 4984.3 5000.5 4976.2 5006.4 4979.3 5015.9 4987.4 5010 4990.5 5000.5 4982.4 4994.6 4990.5 4988.7 4998.6 4982.9 4990.5 4977 4998.6 4982.9 4995.5 4992.4 5005.5 4992.4 5015.5 4992.4 5007.4 4998.3 5004.3 5007.8 4994.3 5007.8 4991.2 4998.3 4994.3 4988.7 4986.2 4982.9 4994.3 4988.7 5002.4 4994.6 4999.3 5004.1 5002.4 5013.6 5005.5 5004.1 4995.5 5004.1 4998.6 5013.6 5008.6 5013.6 5011.7 5004.1 5003.6 5010 5000.5 5000.5 5003.6 5010 5000.5 5000.5 5010.5 5000.5 5020.5 5000.5 5030.5 5000.5 5027.4 4991 5017.4 4991 5027.4 4991" clip-path="url(#a)" fill="none" stroke="#000" stroke-linecap="round"/>
<polyline points="5027.4 4991 5024.3 5000.5 5034.3 5000.5 5037.4 4991 5047.4 4991 5055.5 4996.9 5058.6 5006.4 5061.7 5015.9 5071.7 5015.9 5074.8 5006.4 5084.8 5006.4 5094.8 5006.4 5102.9 5000.5 5094.8 4994.6 5086.7 4988.7 5078.6 4994.6 5068.6 4994.6 5071.7 5004.1 5079.8 5010 5071.7 5004.1 5068.6 4994.6 5076.7 5000.5 5084.8 5006.4 5087.9 5015.9 5096 5021.8 5104 5015.9 5112.1 5010 5104 5015.9 5107.1 5025.4 5115.2 5031.3 5125.2 5031.3 5122.1 5040.8 5130.2 5046.7 5120.2 5046.7 5123.3 5056.2 5115.2 5062.1 5125.2 5062.1 5122.1 5052.5 5130.2 5058.4 5127.1 5048.9 5135.2 5043 5132.1 5033.5 5129 5024" clip-path="url(#a)" fill="none" stroke="#000" stroke-linecap="round"/>
<polyline points="5129 5024 5137.1 5018.1 5127.1 5018.1 5135.2 5012.3 5145.2 5012.3 5155.2 5012.3 5145.2 5012.3 5155.2 5012.3 5152.1 5002.7 5162.1 5002.7 5154 4996.9 5162.1 5002.7 5165.2 5012.3 5175.2 5012.3 5178.3 5021.8 5186.4 5015.9 5178.3 5010 5181.4 5000.5 5189.5 5006.4 5179.5 5006.4 5176.4 5015.9 5184.5 5021.8 5194.5 5021.8 5186.4 5015.9 5183.3 5006.4 5191.4 5000.5 5183.3 4994.6 5191.4 4988.7 5194.5 4979.2 5184.5 4979.2 5187.6 4988.7 5184.5 4979.2 5187.6 4988.7 5190.7 4998.3 5193.8 4988.7 5203.8 4988.7 5206.9 4998.3 5203.8 4988.7 5206.9 4979.2 5214.9 4973.4 5206.9 4967.5 5209.9 4977 5201.9 4982.9" clip-path="url(#a)" fill="none" stroke="#000" stroke-linecap="round"/>
<polyline points="5201.9 4982.9 5209.9 4977 5201.9 4971.1 5204.9 4980.6 5214.9 4980.6 5224.9 4980.6 5233 4974.7 5243 4974.7 5233 4974.7 5241.1 4980.6 5244.2 4971.1 5252.3 4965.2 5255.4 4974.7 5263.5 4968.9 5273.5 4968.9 5265.4 4963 5255.4 4963 5258.5 4972.5 5250.4 4966.6 5253.5 4957.1 5256.6 4947.6 5264.7 4953.5 5261.6 4963 5264.7 4972.5 5254.7 4972.5 5264.7 4972.5 5267.8 4982 5264.7 4991.5 5267.8 4982 5275.8 4987.9 5265.8 4987.9 5275.8 4987.9 5267.8 4982 5275.8 4976.1 5272.8 4966.6 5264.7 4972.5 5261.6 4982 5269.7 4987.9 5261.6 4993.8 5253.5 4999.6 5261.6 5005.5 5253.5 4999.6 5256.6 4990.1" clip-path="url(#a)" fill="none" stroke="#000" stroke-linecap="round"/>
<polyline points="5256.6 4990.1 5246.6 4990.1 5236.6 4990.1 5244.7 4984.3 5247.8 4974.7 5257.8 4974.7 5260.8 4984.3 5257.8 4993.8 5265.8 4999.6 5257.8 4993.8 5249.7 4987.9 5252.8 4978.4 5249.7 4968.9 5246.6 4978.4 5256.6 4978.4 5253.5 4968.9 5243.5 4968.9 5240.4 4978.4 5248.5 4972.5 5251.6 4982 5248.5 4972.5 5251.6 4982 5241.6 4982 5231.6 4982 5221.6 4982 5224.7 4991.5 5234.7 4991.5 5224.7 4991.5 5227.8 4982 5217.8 4982 5214.7 4991.5 5204.7 4991.5 5196.6 4985.6 5193.5 4976.1 5190.4 4966.6 5180.4 4966.6 5177.3 4976.1 5167.3 4976.1 5157.3 4976.1 5149.2 4982 5157.3 4987.9 5165.4 4993.8 5173.5 4987.9" clip-path="url(#a)" fill="none" stroke="#000" stroke-linecap="round"/>
<polyline points="5173.5 4987.9 5183.5 4987.9 5180.4 4978.4 5172.3 4972.5 5180.4 4978.4 5183.5 4987.9 5175.4 4982 5167.3 4976.1 5164.2 4966.6 5156.1 4960.7 5148 4966.6 5139.9 4972.5 5148 4966.6 5144.9 4957.1 5136.9 4951.2 5126.9 4951.2 5129.9 4941.7 5121.9 4935.8 5131.9 4935.8 5128.8 4926.3 5136.9 4920.5 5126.9 4920.5 5129.9 4930 5121.9 4924.1 5124.9 4933.6 5116.9 4939.5 5119.9 4949 5123 4958.5 5114.9 4964.4 5124.9 4964.4 5116.9 4970.3 5106.9 4970.3 5096.9 4970.3 5106.9 4970.3 5096.9 4970.3 5099.9 4979.8 5089.9 4979.8 5098 4985.6 5089.9 4979.8 5086.9 4970.3 5076.9 4970.3 5073.8 4960.7 5065.7 4966.6" clip-path="url(#a)" fill="none" stroke="#000" stroke-linecap="round"/>
<polyline points="5065.7 4966.6 5073.8 4972.5 5070.7 4982 5062.6 4976.1 5072.6 4976.1 5075.7 4966.6 5067.6 4960.7 5057.6 4960.7 5065.7 4966.6 5068.8 4976.1 5060.7 4982 5068.8 4987.9 5060.7 4993.8 5057.6 5003.3 5067.6 5003.3 5064.5 4993.8 5067.6 5003.3 5064.5 4993.8 5061.4 4984.3 5058.3 4993.8 5048.3 4993.8 5045.2 4984.3 5048.3 4993.8 5045.2 5003.3 5037.1 5009.2 5045.2 5015 5042.1 5005.5 5050.2 4999.6 5042.1 5005.5 5050.2 5011.4 5047.1 5001.9 5037.1 5001.9 5027.1 5001.9 5019 5007.8 5009 5007.8 5019 5007.8 5011 5001.9 5007.9 5011.4 4999.8 5017.3 4996.7 5007.8 4988.6 5013.6 4978.6 5013.6 4986.7 5019.5" clip-path="url(#a)" fill="none" stroke="#000" stroke-linecap="round"/>
<polyline points="4986.7 5019.5 4996.7 5019.5 4993.6 5010 5001.7 5015.9 4998.6 5025.4 4995.5 5034.9 4987.4 5029 4990.5 5019.5 4987.4 5010 4997.4 5010 4987.4 5010 4984.3 5000.5 4987.4 4991 4984.3 5000.5 4976.2 4994.6 4986.2 4994.6 4976.2 4994.6 4984.3 5000.5 4976.2 5006.4 4979.3 5015.9 4987.4 5010 4990.5 5000.5 4982.4 4994.6 4990.5 4988.7 4998.6 4982.9 4990.5 4977 4998.6 4982.9 4995.5 4992.4 5005.5 4992.4 5015.5 4992.4 5007.4 4998.3 5004.3 5007.8 4994.3 5007.8 4991.2 4998.3 4994.3 4988.7 4986.2 4982.9 4994.3 4988.7 5002.4 4994.6 4999.3 5004.1 5002.4 5013.6 5005.5 5004.1 4995.5 5004.1 4998.6 5013.6" clip-path="url(#a)" fill="none" stroke="#000" stroke-linecap="round"/>
<polyline points="4998.6 5013.6 5008.6 5013.6 5011.7 5004.1 5003.6 5010 5000.5 5000.5 5003.6 5010 5000.5 5000.5 5010.5 5000.5 5020.5 5000.5 5030.5 5000.5 5027.4 4991 5017.4 4991 5027.4 4991 5024.3 5000.5 5034.3 5000.5 5037.4 4991 5047.4 4991 5055.5 4996.9 5058.6 5006.4 5061.7 5015.9 5071.7 5015.9 5074.8 5006.4 5084.8 5006.4 5094.8 5006.4 5102.9 5000.5 5094.8 4994.6 5086.7 4988.7 5078.6 4994.6 5068.6 4994.6 5071.7 5004.1 5079.8 5010 5071.7 5004.1 5068.6 4994.6 5076.7 5000.5 5084.8 5006.4 5087.9 5015.9 5096 5021.8 5104 5015.9 5112.1 5010 5104 5015.9 5107.1 5025.4 5115.2 5031.3 5125.2 5031.3" clip-path="url(#a)" fill="none" stroke="#000" stroke-linecap="round"/>
<polyline points="5125.2 5031.3 5122.1 5040.8 5130.2 5046.7 5120.2 5046.7 5123.3 5056.2 5115.2 5062.1 5125.2 5062.1 5122.1 5052.5 5130.2 5058.4 5127.1 5048.9 5135.2 5043 5132.1 5033.5 5129 5024 5137.1 5018.1 5127.1 5018.1 5135.2 5012.3 5145.2 5012.3 5155.2 5012.3 5145.2 5012.3 5155.2 5012.3 5152.1 5002.7 5162.1 5002.7 5154 4996.9 5162.1 5002.7 5165.2 5012.3 5175.2 5012.3 5178.3 5021.8 5186.4 5015.9 5178.3 5010 5181.4 5000.5 5189.5 5006.4 5179.5 5006.4 5176.4 5015.9 5184.5 5021.8 5194.5 5021.8 5186.4 5015.9 5183.3 5006.4 5191.4 5000.5 5183.3 4994.6 5191.4 4988.7 5194.5 4979.2 5184.5 4979.2 5187.6 4988.7" clip-path="url(#a)" fill="none" stroke="#000" stroke-linecap="round"/>
<polyline points="5187.6 4988.7 5184.5 4979.2 5187.6 4988.7 5190.7 4998.3 5193.8 4988.7 5203.8 4988.7 5206.9 4998.3 5203.8 4988.7 5206.9 4979.2 5214.9 4973.4 5206.9 4967.5 5209.9 4977 5201.9 4982.9 5209.9 4977 5201.9 4971.1 5204.9 4980.6 5214.9 4980.6 5224.9 4980.6 5233 4974.7 5243 4974.7 5233 4974.7 5241.1 4980.6 5244.2 4971.1 5252.3 4965.2 5255.4 4974.7 5263.5 4968.9 5273.5 4968.9 5265.4 4963 5255.4 4963 5258.5 4972.5 5250.4 4966.6 5253.5 4957.1 5256.6 4947.6 5264.7 4953.5 5261.6 4963 5264.7 4972.5 5254.7 4972.5 5264.7 4972.5 5267.8 4982 5264.7 4991.5 5267.8 4982 5275.8 4987.9 5265.8 4987.9" clip-path="url(#a)" fill="none" stroke="#000" stroke-linecap="round"/>
<polyline points="5265.8 4987.9 5275.8 4987.9 5267.8 4982 5275.8 4976.1 5272.8 4966.6 5264.7 4972.5 5261.6 4982 5269.7 4987.9 5261.6 4993.8 5253.5 4999.6 5261.6 5005.5 5253.5 4999.6 5256.6 4990.1 5246.6 4990.1 5236.6 4990.1 5244.7 4984.3 5247.8 4974.7 5257.8 4974.7 5260.8 4984.3 5257.8 4993.8 5265.8 4999.6 5257.8 4993.8 5249.7 4987.9 5252.8 4978.4 5249.7 4968.9 5246.6 4978.4 5256.6 4978.4 5253.5 4968.9 5243.5 4968.9 5240.4 4978.4 5248.5 4972.5 5251.6 4982 5248.5 4972.5 5251.6 4982 5241.6 4982 5231.6 4982 5221.6 4982 5224.7 4991.5 5234.7 4991.5 5224.7 4991.5 5227.8 4982 5217.8 4982 5214.7 4991.5" clip-path="url(#a)" fill="none" stroke="#000" stroke-linecap="round"/>
<polyline points="5214.7 4991.5 5204.7 4991.5 5196.6 4985.6 5193.5 4976.1 5190.4 4966.6 5180.4 4966.6 5177.3 4976.1 5167.3 4976.1 5157.3 4976.1 5149.2 4982 5157.3 4987.9 5165.4 4993.8 5173.5 4987.9 5183.5 4987.9 5180.4 4978.4 5172.3 4972.5 5180.4 4978.4 5183.5 4987.9 5175.4 4982 5167.3 4976.1 5164.2 4966.6 5156.1 4960.7 5148 4966.6 5139.9 4972.5 5148 4966.6 5144.9 4957.1 5136.9 4951.2 5126.9 4951.2 5129.9 4941.7 5121.9 4935.8 5131.9 4935.8 5128.8 4926.3 5136.9 4920.5 5126.9 4920.5 5129.9 4930 5121.9 4924.1 5124.9 4933.6 5116.9 4939.5 5119.9 4949 5123 4958.5 5114.9 4964.4 5124.9 4964.4 5116.9 4970.3" clip-path="url(#a)" fill="none" stroke="#000" stroke-linecap="round"/>
<polyline points="5116.9 4970.3 5106.9 4970.3 5096.9 4970.3 5106.9 4970.3 5096.9 4970.3 5099.9 4979.8 5089.9 4979.8 5098 4985.6 5089.9 4979.8 5086.9 4970.3 5076.9 4970.3 5073.8 4960.7 5065.7 4966.6 5073.8 4972.5 5070.7 4982 5062.6 4976.1 5072.6 4976.1 5075.7 4966.6 5067.6 4960.7 5057.6 4960.7 5065.7 4966.6 5068.8 4976.1 5060.7 4982 5068.8 4987.9 5060.7 4993.8 5057.6 5003.3 5067.6 5003.3 5064.5 4993.8 5067.6 5003.3 5064.5 4993.8 5061.4 4984.3 5058.3 4993.8 5048.3 4993.8 5045.2 4984.3 5048.3 4993.8 5045.2 5003.3 5037.1 5009.2 5045.2 5015 5042.1 5005.5 5050.2 4999.6 5042.1 5005.5 5050.2 5011.4 5047.1 5001.9" clip-path="url(#a)" fill="none" stroke="#000" stroke-linecap="round"/>
<polyline points="5047.1 5001.9 5037.1 5001.9 5027.1 5001.9 5019 5007.8 5009 5007.8 5019 5007.8 5011 5001.9 5007.9 5011.4 4999.8 5017.3 4996.7 5007.8 4988.6 5013.6 4978.6 5013.6 4986.7 5019.5 4996.7 5019.5 4993.6 5010 5001.7 5015.9 4998.6 5025.4 4995.5 5034.9 4987.4 5029 4990.5 5019.5 4987.4 5010 4997.4 5010 4987.4 5010 4984.3 5000.5 4987.4 4991 4984.3 5000.5 4976.2 4994.6 4986.2 4994.6 4976.2 4994.6 4984.3 5000.5 4976.2 5006.4 4979.3 5015.9 4987.4 5010 4990.5 5000.5 4982.4 4994.6 4990.5 4988.7 4998.6 4982.9 4990.5 4977 4998.6 4982.9 4995.5 4992.4 5005.5 4992.4 5015.5 4992.4 5007.4 4998.3" clip-path="url(#a)" fill="none" stroke="#000" stroke-linecap="round"/>
<polyline points="5007.4 4998.3 5004.3 5007.8 4994.3 5007.8 4991.2 4998.3 4994.3 4988.7 4986.2 4982.9 4994.3 4988.7 5002.4 4994.6 4999.3 5004.1 5002.4 5013.6 5005.5 5004.1 4995.5 5004.1 4998.6 5013.6 5008.6 5013.6 5011.7 5004.1 5003.6 5010 5000.5 5000.5 5003.6 5010 5000.5 5000.5 5010.5 5000.5 5020.5 5000.5 5030.5 5000.5 5027.4 4991 5017.4 4991 5027.4 4991 5024.3 5000.5 5034.3 5000.5 5037.4 4991 5047.4 4991 5055.5 4996.9 5058.6 5006.4 5061.7 5015.9 5071.7 5015.9 5074.8 5006.4 5084.8 5006.4 5094.8 5006.4 5102.9 5000.5 5094.8 4994.6 5086.7 4988.7 5078.6 4994.6 5068.6 4994.6 5071.7 5004.1 5079.8 5010" clip-path="url(#a)" fill="none" stroke="#000" stroke-linecap="round"/>
<polyline points="5079.8 5010 5071.7 5004.1 5068.6 4994.6 5076.7 5000.5 5084.8 5006.4 5087.9 5015.9 5096 5021.8 5104 5015.9 5112.1 5010 5104 5015.9 5107.1 5025.4 5115.2 5031.3 5125.2 5031.3 5122.1 5040.8 5130.2 5046.7 5120.2 5046.7 5123.3 5056.2 5115.2 5062.1 5125.2 5062.1 5122.1 5052.5 5130.2 5058.4 5127.1 5048.9 5135.2 5043 5132.1 5033.5 5129 5024 5137.1 5018.1 5127.1 5018.1 5135.2 5012.3 5145.2 5012.3 5155.2 5012.3 5145.2 5012.3 5155.2 5012.3 5152.1 5002.7 5162.1 5002.7 5154 4996.9 5162.1 5002.7 5165.2 5012.3 5175.2 5012.3 5178.3 5021.8 5186.4 5015.9 5178.3 5010 5181.4 5000.5 5189.5 5006.4" clip-path="url(#a)" fill="none" stroke="#000" stroke-linecap="round"/>
<polyline points="5189.5 5006.4 5179.5 5006.4 5176.4 5015.9 5184.5 5021.8 5194.5 5021.8 5186.4 5015.9 5183.3 5006.4 5191.4 5000.5 5183.3 4994.6 5191.4 4988.7 5194.5 4979.2 5184.5 4979.2 5187.6 4988.7 5184.5 4979.2 5187.6 4988.7 5190.7 4998.3 5193.8 4988.7 5203.8 4988.7 5206.9 4998.3 5203.8 4988.7 5206.9 4979.2 5214.9 4973.4 5206.9 4967.5 5209.9 4977 5201.9 4982.9 5209.9 4977 5201.9 4971.1 5204.9 4980.6 5214.9 4980.6 5224.9 4980.6 5233 4974.7 5243 4974.7 5233 4974.7 5241.1 4980.6 5244.2 4971.1 5252.3 4965.2 5255.4 4974.7 5263.5 4968.9 5273.5 4968.9 5265.4 4963 5255.4 4963 5258.5 4972.5 5250.4 4966.6" clip-path="url(#a)" fill="none" stroke="#000" stroke-linecap="round"/>
<polyline points="5250.4 4966.6 5253.5 4957.1 5256.6 4947.6 5264.7 4953.5 5261.6 4963 5264.7 4972.5 5254.7 4972.5 5264.7 4972.5 5267.8 4982 5264.7 4991.5 5267.8 4982 5275.8 4987.9 5265.8 4987.9 5275.8 4987.9 5267.8 4982 5275.8 4976.1 5272.8 4966.6 5264.7 4972.5 5261.6 4982 5269.7 4987.9 5261.6 4993.8 5253.5 4999.6 5261.6 5005.5 5253.5 4999.6 5256.6 4990.1 5246.6 4990.1 5236.6 4990.1 5244.7 4984.3 5247.8 4974.7 5257.8 4974.7 5260.8 4984.3 5257.8 4993.8 5265.8 4999.6 5257.8 4993.8 5249.7 4987.9 5252.8 4978.4 5249.7 4968.9 5246.6 4978.4 5256.6 4978.4 5253.5 4968.9 5243.5 4968.9 5240.4 4978.4 5248.5 4972.5" clip-path="url(#a)" fill="none" stroke="#000" stroke-linecap="round"/>
<polyline points="5248.5 4972.5 5251.6 4982 5248.5 4972.5 5251.6 4982 5241.6 4982 5231.6 4982 5221.6 4982 5224.7 4991.5 5234.7 4991.5 5224.7 4991.5 5227.8 4982 5217.8 4982 5214.7 4991.5 5204.7 4991.5 5196.6 4985.6 5193.5 4976.1 5190.4 4966.6 5180.4 4966.6 5177.3 4976.1 5167.3 4976.1 5157.3 4976.1 5149.2 4982 5157.3 4987.9 5165.4 4993.8 5173.5 4987.9 5183.5 4987.9 5180.4 4978.4 5172.3 4972.5 5180.4 4978.4 5183.5 4987.9 5175.4 4982 5167.3 4976.1 5164.2 4966.6 5156.1 4960.7 5148 4966.6 5139.9 4972.5 5148 4966.6 5144.9 4957.1 5136.9 4951.2 5126.9 4951.2 5129.9 4941.7 5121.9 4935.8 5131.9 4935.8" clip-path="url(#a)" fill="none" stroke="#000" stroke-linecap="round"/>
<polyline points="5131.9 4935.8 5128.8 4926.3 5136.9 4920.5 5126.9 4920.5 5129.9 4930 5121.9 4924.1 5124.9 4933.6 5116.9 4939.5 5119.9 4949 5123 4958.5 5114.9 4964.4 5124.9 4964.4 5116.9 4970.3 5106.9 4970.3 5096.9 4970.3 5106.9 4970.3 5096.9 4970.3 5099.9 4979.8 5089.9 4979.8 5098 4985.6 5089.9 4979.8 5086.9 4970.3 5076.9 4970.3 5073.8 4960.7 5065.7 4966.6 5073.8 4972.5 5070.7 4982 5062.6 4976.1 5072.6 4976.1 5075.7 4966.6 5067.6 4960.7 5057.6 4960.7 5065.7 4966.6 5068.8 4976.1 5060.7 4982 5068.8 4987.9 5060.7 4993.8 5057.6 5003.3 5067.6 5003.3 5064.5 4993.8 5067.6 5003.3 5064.5 4993.8 5061.4 4984.3" clip-path="url(#a)" fill="none" stroke="#000" stroke-linecap="round"/>
<polyline points="5061.4 4984.3 5058.3 4993.8 5048.3 4993.8 5045.2 4984.3 5048.3 4993.8 5045.2 5003.3 5037.1 5009.2 5045.2 5015 5042.1 5005.5 5050.2 4999.6 5042.1 5005.5 5050.2 5011.4 5047.1 5001.9 5037.1 5001.9 5027.1 5001.9 5019 5007.8 5009 5007.8 5019 5007.8 5011 5001.9 5007.9 5011.4 4999.8 5017.3 4996.7 5007.8 4988.6 5013.6 4978.6 5013.6 4986.7 5019.5 4996.7 5019.5 4993.6 5010 5001.7 5015.9 4998.6 5025.4 4995.5 5034.9 4987.4 5029 4990.5 5019.5 4987.4 5010 4997.4 5010 4987.4 5010 4984.3 5000.5 4987.4 4991 4984.3 5000.5 4976.2 4994.6 4986.2 4994.6 4976.2 4994.6 4984.3 5000.5 4976.2 5006.4" clip-path="url(#a)" fill="none" stroke="#000" stroke-linecap="round"/>
<polyline points="4976.2 5006.4 4979.3 5015.9 4987.4 5010 4990.5 5000.5 4982.4 4994.6 4990.5 4988.7 4998.6 4982.9 4990.5 4977 4998.6 4982.9 4995.5 4992.4 5005.5 4992.4 5015.5 4992.4 5007.4 4998.3 5004.3 5007.8 4994.3 5007.8 4991.2 4998.3 4994.3 4988.7 4986.2 4982.9 4994.3 4988.7 5002.4 4994.6 4999.3 5004.1 5002.4 5013.6 5005.5 5004.1 4995.5 5004.1 4998.6 5013.6 5008.6 5013.6 5011.7 5004.1 5003.6 5010 5000.5 5000.5 5003.6 5010 5000.5 5000.5" clip-path="url(#a)" fill="none" stroke="#000" stroke-linecap="round"/>
</svg>
