<?xml version="1.0" encoding="utf-8" ?>
<svg baseProfile="full" height="1000px" version="1.1" width="1000px" xmlns="http://www.w3.org/2000/svg" xmlns:ev="http://www.w3.org/2001/xml-events" xmlns:xlink="http://www.w3.org/1999/xlink"><defs><clipPath id="border_clip"><rect height="1000" width="1000" x="0" y="0" /></clipPath></defs><polyline clip-path="url(#border_clip)" fill="none" points="500.5,500.5 510.5,500.5 507.40983005625054,490.98943483704846 497.40983005625054,490.98943483704846 494.319660112501,500.5 497.40983005625054,490.98943483704846 507.40983005625054,490.98943483704846 517.4098300562505,490.98943483704846 509.319660112501,496.8672873599732 519.3196601125011,496.8672873599732 509.319660112501,496.8672873599732 501.22949016875157,502.74513988289794 504.319660112501,493.2345747199464 501.22949016875157,483.7240095569949 491.22949016875157,483.7240095569948 483.1393202250021,477.8461570340701 475.04915028125265,471.96830451114533 471.95898033750314,481.47886967409687 480.04915028125265,487.3567221970216 488.1393202250021,481.4788696740969 480.04915028125265,487.3567221970216 471.95898033750314,481.47886967409687 463.8688103937537,475.60101715117213 473.8688103937537,475.60101715117213 465.7786404500042,469.7231646282474 473.8688103937537,475.60101715117213 483.8688103937537,475.6010171511722 475.7786404500042,481.47886967409687 472.6884705062547,490.9894348370484 480.77864045000416,496.8672873599732 483.8688103937536,506.37785252292474 486.9589803375031,515.8884176858763 495.04915028125254,510.0105651629516 491.95898033750314,500.5 481.9589803375031,500.5 491.95898033750314,500.5 495.04915028125254,510.0105651629516 498.139320225002,519.5211303259031 490.04915028125254,513.6432778029783 493.139320225002,523.1538429659299 490.04915028125254,513.6432778029783 481.9589803375031,507.7654252800536 491.9589803375031,507.76542528005365" stroke="black" stroke-linecap="round" stroke-width="1" /><polyline clip-path="url(#border_clip)" fill="none" points="491.9589803375031,507.76542528005365 500.0491502812526,501.8875727571289 496.95898033750314,492.37700759417737 500.04915028125265,482.86644243122583 503.13932022500217,473.3558772682743 493.13932022500217,473.35587726827424 490.04915028125265,482.8664424312258 498.1393202250021,488.7442949541506 490.04915028125265,482.8664424312258 493.13932022500217,473.35587726827424 496.2294901687517,463.8453121053227 499.31966011250114,473.3558772682743 502.40983005625066,463.84531210532276 499.31966011250114,473.3558772682743 502.40983005625054,482.86644243122583 494.3196601125011,476.9885899083011 484.3196601125011,476.98858990830104 481.22949016875157,486.4991550712525 473.13932022500205,492.37700759417726 465.04915028125254,498.25486011710194 473.139320225002,504.1327126400267 481.2294901687515,498.254860117102 478.1393202250021,488.74429495415046 481.2294901687515,498.254860117102 473.139320225002,504.1327126400267 465.0491502812525,510.01056516295137 468.139320225002,500.4999999999999 460.0491502812525,506.37785252292457 468.139320225002,500.4999999999999 471.22949016875157,490.98943483704835 474.31966011250097,500.4999999999999 482.4098300562504,506.3778525229247 490.49999999999994,500.5 500.49999999999994,500.5000000000001 510.49999999999994,500.50000000000017 507.40983005625054,490.9894348370486 497.40983005625054,490.9894348370485 494.31966011250097,500.50000000000006 497.40983005625054,490.9894348370485 507.40983005625054,490.9894348370486 517.4098300562506,490.9894348370487 509.319660112501,496.8672873599734 519.3196601125011,496.86728735997343" stroke="black" stroke-linecap="round" stroke-width="1" /><polyline clip-path="url(#border_clip)" fill="none" points="519.3196601125011,496.86728735997343 509.319660112501,496.8672873599734 501.2294901687515,502.745139882898 504.3196601125011,493.2345747199465 501.2294901687517,483.72400955699493 491.2294901687516,483.7240095569949 483.1393202250022,477.84615703407 475.04915028125276,471.9683045111452 471.9589803375032,481.47886967409676 480.04915028125265,487.35672219702155 488.13932022500217,481.47886967409687 480.04915028125265,487.35672219702155 471.9589803375032,481.47886967409676 463.8688103937538,475.60101715117196 473.8688103937538,475.601017151172 465.7786404500044,469.7231646282472 473.8688103937538,475.601017151172 483.8688103937538,475.60101715117213 475.7786404500043,481.47886967409676 472.6884705062547,490.9894348370483 480.7786404500041,496.8672873599731 483.8688103937535,506.3778525229247 486.9589803375029,515.8884176858762 495.0491502812524,510.0105651629516 491.9589803375031,500.50000000000006 481.958980337503,500.49999999999994 491.9589803375031,500.50000000000006 495.0491502812524,510.0105651629516 498.1393202250018,519.5211303259032 490.04915028125237,513.6432778029783 493.13932022500177,523.1538429659299 490.04915028125237,513.6432778029783 481.95898033750296,507.76542528005353 491.95898033750296,507.76542528005365 500.04915028125254,501.887572757129 496.95898033750314,492.3770075941774 500.04915028125276,482.8664424312259 503.13932022500234,473.3558772682744 493.13932022500234,473.3558772682743 490.0491502812527,482.8664424312258 498.13932022500217,488.74429495415063 490.0491502812527,482.8664424312258 493.13932022500234,473.3558772682743" stroke="black" stroke-linecap="round" stroke-width="1" /><polyline clip-path="url(#border_clip)" fill="none" points="493.13932022500234,473.3558772682743 496.2294901687519,463.84531210532276 499.3196601125013,473.35587726827436 502.4098300562509,463.8453121053229 499.3196601125013,473.35587726827436 502.40983005625066,482.86644243122595 494.31966011250125,476.9885899083011 484.3196601125012,476.988589908301 481.2294901687516,486.49915507125246 473.13932022500205,492.3770075941771 465.0491502812525,498.25486011710177 473.1393202250019,504.13271264002657 481.22949016875145,498.25486011710194 478.1393202250021,488.74429495415035 481.22949016875145,498.25486011710194 473.1393202250019,504.13271264002657 465.0491502812523,510.0105651629512 468.13932022500194,500.4999999999997 460.04915028125237,506.37785252292434 468.13932022500194,500.4999999999997 471.22949016875157,490.9894348370482 474.3196601125009,500.4999999999998 482.4098300562503,506.3778525229246 490.4999999999999,500.5 500.4999999999999,500.50000000000017 510.4999999999999,500.50000000000034 507.40983005625054,490.98943483704875 497.40983005625054,490.9894348370486 494.3196601125009,500.50000000000006 497.40983005625054,490.9894348370486 507.40983005625054,490.98943483704875 517.4098300562506,490.98943483704886 509.31966011250097,496.8672873599735 519.319660112501,496.86728735997366 509.31966011250097,496.8672873599735 501.2294901687514,502.7451398828981 504.319660112501,493.2345747199466 501.22949016875174,483.724009556995 491.2294901687517,483.7240095569949 483.1393202250023,477.84615703406996 475.0491502812529,471.9683045111451 471.95898033750325,481.4788696740966 480.04915028125265,487.3567221970215" stroke="black" stroke-linecap="round" stroke-width="1" /><polyline clip-path="url(#border_clip)" fill="none" points="480.04915028125265,487.3567221970215 488.1393202250023,481.47886967409687 480.04915028125265,487.3567221970215 471.9589803375033,481.4788696740966 463.8688103937539,475.60101715117173 473.8688103937539,475.6010171511719 465.7786404500045,469.72316462824705 473.8688103937539,475.6010171511719 483.8688103937539,475.6010171511721 475.77864045000433,481.4788696740967 472.6884705062547,490.9894348370482 480.7786404500041,496.86728735997303 483.8688103937534,506.3778525229247 486.9589803375027,515.8884176858762 495.0491502812523,510.01056516295165 491.95898033750296,500.50000000000006 481.95898033750296,500.4999999999999 491.95898033750296,500.50000000000006 495.0491502812523,510.01056516295165 498.1393202250016,519.5211303259033 490.0491502812522,513.6432778029784 493.13932022500154,523.15384296593 490.0491502812522,513.6432778029784 481.95898033750285,507.7654252800535 491.95898033750285,507.7654252800537 500.0491502812525,501.8875727571291 496.95898033750314,492.3770075941775 500.0491502812528,482.866442431226 503.13932022500245,473.3558772682745 493.13932022500245,473.3558772682743 490.04915028125276,482.8664424312258 498.13932022500217,488.7442949541507 490.0491502812528,482.8664424312258 493.13932022500245,473.3558772682743 496.22949016875214,463.8453121053228 499.3196601125014,473.3558772682744 502.40983005625105,463.84531210532293 499.3196601125014,473.3558772682744 502.4098300562507,482.86644243122606 494.3196601125013,476.98858990830115 484.3196601125013,476.9885899083009 481.2294901687516,486.4991550712524 473.13932022500205,492.37700759417703" stroke="black" stroke-linecap="round" stroke-width="1" /><polyline clip-path="url(#border_clip)" fill="none" points="473.13932022500205,492.37700759417703 465.0491502812524,498.2548601171016 473.1393202250018,504.1327126400265 481.2294901687514,498.25486011710194 478.1393202250021,488.7442949541503 481.2294901687514,498.25486011710194 473.1393202250018,504.1327126400265 465.0491502812522,510.0105651629511 468.1393202250019,500.4999999999996 460.04915028125225,506.3778525229242 468.1393202250019,500.4999999999996 471.22949016875157,490.98943483704807 474.31966011250086,500.4999999999997 482.4098300562502,506.3778525229246 490.49999999999983,500.50000000000006 500.49999999999983,500.5000000000003 510.4999999999999,500.5000000000005 507.4098300562506,490.98943483704886 497.40983005625054,490.98943483704863 494.31966011250086,500.5000000000001 497.40983005625054,490.98943483704863 507.4098300562506,490.98943483704886 517.4098300562506,490.9894348370491 509.31966011250097,496.86728735997366 519.319660112501,496.8672873599739 509.31966011250097,496.86728735997366 501.22949016875134,502.74513988289823 504.3196601125011,493.23457471994675 501.2294901687518,483.7240095569951 491.2294901687518,483.7240095569949 483.1393202250024,477.84615703406996 475.04915028125305,471.968304511145 471.95898033750336,481.4788696740965 480.0491502812527,487.35672219702144 488.13932022500234,481.47886967409687 480.0491502812527,487.35672219702144 471.95898033750336,481.4788696740965 463.868810393754,475.60101715117156 473.868810393754,475.6010171511718 465.7786404500047,469.7231646282468 473.868810393754,475.6010171511718 483.8688103937541,475.601017151172 475.7786404500044,481.4788696740966" stroke="black" stroke-linecap="round" stroke-width="1" /><polyline clip-path="url(#border_clip)" fill="none" points="475.7786404500044,481.4788696740966 472.6884705062547,490.98943483704807 480.77864045000405,496.86728735997303 483.8688103937533,506.3778525229246 486.95898033750257,515.8884176858763 495.0491502812522,510.01056516295176 491.95898033750296,500.5000000000001 481.9589803375029,500.49999999999983 491.95898033750296,500.5000000000001 495.0491502812522,510.01056516295176 498.1393202250014,519.5211303259034 490.0491502812521,513.6432778029784 493.1393202250013,523.15384296593 490.0491502812521,513.6432778029784 481.95898033750274,507.7654252800535 491.95898033750274,507.76542528005376 500.0491502812524,501.8875727571292 496.9589803375032,492.37700759417754 500.04915028125293,482.86644243122606 503.1393202250026,473.3558772682746 493.1393202250026,473.35587726827436 490.0491502812529,482.86644243122583 498.1393202250022,488.7442949541508 490.0491502812529,482.86644243122583 493.1393202250026,473.35587726827436 496.22949016875236,463.8453121053229 499.3196601125016,473.3558772682745 502.40983005625134,463.84531210532305 499.3196601125016,473.3558772682745 502.4098300562508,482.8664424312261 494.3196601125015,476.98858990830115 484.3196601125014,476.9885899083009 481.2294901687517,486.4991550712524 473.13932022500205,492.3770075941769 465.04915028125237,498.25486011710143 473.1393202250017,504.1327126400264 481.2294901687514,498.2548601171019 478.13932022500217,488.74429495415023 481.2294901687514,498.2548601171019 473.1393202250017,504.1327126400264 465.049150281252,510.0105651629509 468.1393202250018,500.49999999999943 460.04915028125214,506.37785252292394" stroke="black" stroke-linecap="round" stroke-width="1" /><polyline clip-path="url(#border_clip)" fill="none" points="460.04915028125214,506.37785252292394 468.1393202250018,500.49999999999943 471.22949016875157,490.98943483704795 474.31966011250074,500.4999999999996 482.4098300562501,506.3778525229246 490.4999999999998,500.50000000000006 500.4999999999998,500.5000000000004 510.49999999999983,500.5000000000007 507.4098300562506,490.989434837049 497.4098300562506,490.9894348370487 494.3196601125008,500.50000000000017 497.4098300562506,490.9894348370487 507.4098300562506,490.98943483704903 517.4098300562506,490.9894348370493 509.31966011250097,496.86728735997383 519.319660112501,496.8672873599741 509.31966011250097,496.86728735997383 501.2294901687513,502.74513988289834 504.3196601125011,493.23457471994686 501.22949016875185,483.72400955699516 491.22949016875185,483.7240095569949 483.1393202250025,477.8461570340699 475.0491502812532,471.9683045111449 471.9589803375034,481.47886967409636 480.04915028125276,487.3567221970214 488.13932022500245,481.47886967409687 480.04915028125276,487.3567221970214 471.9589803375034,481.47886967409636 463.8688103937541,475.60101715117133 473.86881039375413,475.6010171511717 465.7786404500048,469.72316462824665 473.86881039375413,475.6010171511717 483.8688103937542,475.60101715117196 475.7786404500045,481.4788696740965 472.6884705062547,490.98943483704795 480.778640450004,496.867287359973 483.86881039375317,506.3778525229246 486.9589803375024,515.8884176858763 495.0491502812521,510.0105651629518 491.9589803375029,500.50000000000017 481.95898033750285,500.49999999999983 491.9589803375029,500.50000000000017 495.0491502812521,510.0105651629518" stroke="black" stroke-linecap="round" stroke-width="1" /><polyline clip-path="url(#border_clip)" fill="none" points="495.0491502812521,510.0105651629518 498.13932022500126,519.5211303259035 490.0491502812519,513.6432778029784 493.1393202250011,523.1538429659302 490.0491502812519,513.6432778029784 481.9589803375026,507.7654252800535 491.9589803375027,507.76542528005376 500.04915028125237,501.8875727571293 496.9589803375032,492.3770075941776 500.049150281253,482.8664424312262 503.1393202250028,473.3558772682747 493.13932022500273,473.35587726827436 490.04915028125293,482.86644243122583 498.1393202250023,488.74429495415086 490.04915028125293,482.86644243122583 493.13932022500273,473.35587726827436 496.2294901687526,463.8453121053229 499.3196601125017,473.3558772682746 502.4098300562515,463.8453121053231 499.3196601125017,473.3558772682746 502.4098300562509,482.86644243122623 494.3196601125016,476.9885899083012 484.31966011250154,476.98858990830087 481.22949016875174,486.49915507125235 473.139320225002,492.3770075941768 465.0491502812523,498.2548601171013 473.1393202250016,504.13271264002634 481.22949016875134,498.2548601171018 478.13932022500217,488.7442949541502 481.22949016875134,498.2548601171018 473.1393202250016,504.13271264002634 465.0491502812519,510.0105651629508 468.1393202250017,500.4999999999993 460.04915028125197,506.3778525229238 468.1393202250017,500.4999999999993 471.2294901687515,490.98943483704784 474.3196601125007,500.49999999999955 482.40983005625,506.37785252292457 490.4999999999997,500.5000000000001 500.4999999999998,500.5000000000005 510.4999999999998,500.50000000000085 507.40983005625066,490.98943483704915 497.4098300562506,490.9894348370488" stroke="black" stroke-linecap="round" stroke-width="1" /><polyline clip-path="url(#border_clip)" fill="none" points="497.4098300562506,490.9894348370488 494.31966011250074,500.5000000000003 497.4098300562506,490.9894348370488 507.40983005625066,490.98943483704915 517.4098300562507,490.98943483704954 509.31966011250097,496.867287359974 519.319660112501,496.86728735997434 509.31966011250097,496.867287359974 501.2294901687512,502.74513988289846 504.3196601125011,493.234574719947 501.22949016875197,483.72400955699527 491.2294901687519,483.72400955699493 483.1393202250026,477.84615703406985 475.04915028125333,471.96830451114477 471.9589803375035,481.47886967409625 480.04915028125276,487.3567221970213 488.1393202250025,481.47886967409687 480.04915028125276,487.3567221970213 471.9589803375035,481.47886967409625 463.8688103937542,475.60101715117116 473.86881039375425,475.60101715117156 465.77864045000496,469.7231646282465 473.86881039375425,475.60101715117156 483.8688103937543,475.60101715117196 475.77864045000456,481.4788696740964 472.6884705062547,490.98943483704784 480.778640450004,496.8672873599729 483.8688103937531,506.3778525229246 486.9589803375022,515.8884176858763 495.04915028125197,510.0105651629519 491.95898033750285,500.50000000000017 481.9589803375028,500.4999999999998 491.95898033750285,500.50000000000017 495.04915028125197,510.0105651629519 498.13932022500103,519.5211303259036 490.0491502812518,513.6432778029786 493.1393202250009,523.1538429659302 490.0491502812518,513.6432778029786 481.9589803375025,507.7654252800534 491.95898033750257,507.7654252800538 500.0491502812523,501.88757275712936 496.9589803375032,492.3770075941777 500.04915028125305,482.86644243122623" stroke="black" stroke-linecap="round" stroke-width="1" /><polyline clip-path="url(#border_clip)" fill="none" points="500.04915028125305,482.86644243122623 503.1393202250029,473.35587726827475 493.13932022500285,473.35587726827436 490.049150281253,482.86644243122583 498.1393202250023,488.7442949541509 490.049150281253,482.86644243122583 493.13932022500285,473.35587726827436 496.22949016875276,463.84531210532293 499.3196601125018,473.35587726827464 502.40983005625174,463.84531210532316 499.3196601125018,473.35587726827464 502.40983005625094,482.86644243122635 494.31966011250165,476.98858990830126 484.31966011250165,476.9885899083008 481.22949016875174,486.4991550712523 473.139320225002,492.3770075941767 465.0491502812522,498.25486011710115 473.1393202250015,504.1327126400262 481.2294901687513,498.2548601171018 478.13932022500217,488.74429495415006 481.2294901687513,498.2548601171018 473.1393202250015,504.1327126400262 465.04915028125174,510.0105651629506 468.1393202250016,500.4999999999992 460.04915028125185,506.3778525229236 468.1393202250016,500.4999999999992 471.2294901687515,490.9894348370477 474.3196601125006,500.49999999999943 482.40983005624986,506.37785252292457 490.49999999999966,500.50000000000017 500.4999999999997,500.50000000000057 510.4999999999998,500.500000000001 507.40983005625066,490.98943483704926 497.4098300562506,490.98943483704886 494.3196601125007,500.5000000000003 497.4098300562506,490.98943483704886 507.40983005625066,490.98943483704926 517.4098300562507,490.9894348370497 509.31966011250097,496.8672873599741 519.319660112501,496.86728735997457 509.31966011250097,496.8672873599741 501.22949016875117,502.7451398828985 504.3196601125011,493.2345747199471" stroke="black" stroke-linecap="round" stroke-width="1" /><polyline clip-path="url(#border_clip)" fill="none" points="504.3196601125011,493.2345747199471 501.229490168752,483.7240095569954 491.22949016875197,483.72400955699493 483.1393202250027,477.8461570340698 475.04915028125345,471.96830451114465 471.9589803375035,481.47886967409613 480.04915028125276,487.35672219702127 488.13932022500256,481.47886967409687 480.04915028125276,487.35672219702127 471.9589803375035,481.47886967409613 463.86881039375425,475.601017151171 473.8688103937543,475.60101715117145 465.77864045000507,469.7231646282463 473.8688103937543,475.60101715117145 483.86881039375436,475.6010171511719 475.77864045000456,481.4788696740963 472.68847050625465,490.9894348370478 480.77864045000393,496.86728735997286 483.868810393753,506.3778525229246 486.95898033750206,515.8884176858763 495.04915028125185,510.010565162952 491.9589803375028,500.5000000000002 481.9589803375027,500.4999999999998 491.9589803375028,500.5000000000002 495.04915028125185,510.010565162952 498.13932022500086,519.5211303259038 490.0491502812516,513.6432778029786 493.1393202250007,523.1538429659303 490.0491502812516,513.6432778029786 481.9589803375024,507.7654252800534 491.95898033750245,507.7654252800539 500.04915028125225,501.8875727571295 496.9589803375032,492.37700759417777 500.0491502812531,482.8664424312263 503.1393202250031,473.35587726827487 493.139320225003,473.35587726827436 490.04915028125305,482.86644243122583 498.13932022500234,488.744294954151 490.04915028125305,482.86644243122583 493.139320225003,473.35587726827436 496.22949016875293,463.84531210532293 499.319660112502,473.35587726827464 502.40983005625196,463.8453121053232" stroke="black" stroke-linecap="round" stroke-width="1" /><polyline clip-path="url(#border_clip)" fill="none" points="502.40983005625196,463.8453121053232 499.319660112502,473.35587726827464 502.40983005625105,482.8664424312264 494.31966011250177,476.98858990830126 484.3196601125017,476.98858990830075 481.2294901687518,486.49915507125223 473.13932022500194,492.37700759417663 465.04915028125214,498.254860117101 473.13932022500137,504.13271264002617 481.2294901687512,498.25486011710177 478.13932022500217,488.74429495415 481.2294901687512,498.25486011710177 473.13932022500137,504.13271264002617 465.04915028125157,510.0105651629505 468.13932022500154,500.4999999999991 460.04915028125174,506.37785252292343 468.13932022500154,500.4999999999991 471.2294901687515,490.9894348370476 474.3196601125005,500.4999999999994 482.40983005624975,506.37785252292457 490.4999999999996,500.50000000000017 500.49999999999966,500.5000000000007 510.4999999999997,500.5000000000012 507.4098300562507,490.98943483704943 497.4098300562506,490.9894348370489 494.3196601125006,500.50000000000034 497.4098300562506,490.9894348370489 507.4098300562507,490.98943483704943 517.4098300562507,490.98943483704994 509.3196601125009,496.8672873599743 519.319660112501,496.8672873599748 509.3196601125009,496.8672873599743 501.2294901687511,502.7451398828986 504.3196601125011,493.2345747199472 501.2294901687521,483.72400955699544 491.229490168752,483.72400955699493 483.1393202250028,477.84615703406973 475.04915028125356,471.96830451114454 471.95898033750353,481.478869674096 480.04915028125276,487.3567221970212 488.1393202250026,481.4788696740968 480.04915028125276,487.3567221970212 471.9589803375036,481.478869674096" stroke="black" stroke-linecap="round" stroke-width="1" /><polyline clip-path="url(#border_clip)" fill="none" points="471.9589803375036,481.478869674096 463.86881039375436,475.6010171511708 473.8688103937544,475.60101715117133 465.7786404500052,469.72316462824614 473.8688103937544,475.60101715117133 483.8688103937545,475.60101715117185 475.7786404500046,481.4788696740962 472.68847050625465,490.98943483704767 480.7786404500039,496.8672873599728 483.8688103937529,506.3778525229246 486.9589803375019,515.8884176858763 495.0491502812517,510.010565162952 491.9589803375027,500.5000000000002 481.9589803375026,500.4999999999997 491.9589803375027,500.5000000000002 495.0491502812517,510.01056516295205 498.1393202250007,519.5211303259038 490.04915028125146,513.6432778029786 493.13932022500046,523.1538429659304 490.04915028125146,513.6432778029786 481.9589803375022,507.76542528005336 491.95898033750234,507.76542528005393 500.0491502812522,501.8875727571296 496.9589803375032,492.3770075941778 500.0491502812532,482.86644243122635 503.1393202250032,473.3558772682749 493.13932022500313,473.3558772682744 490.0491502812531,482.86644243122583 498.13932022500234,488.74429495415103 490.0491502812531,482.86644243122583 493.13932022500313,473.3558772682744 496.22949016875316,463.84531210532293 499.3196601125021,473.3558772682747 502.40983005625213,463.8453121053233 499.3196601125021,473.35587726827475 502.4098300562511,482.8664424312265 494.3196601125019,476.98858990830126 484.3196601125018,476.98858990830075 481.2294901687518,486.4991550712522 473.13932022500194,492.3770075941765 465.0491502812521,498.2548601171008 473.13932022500126,504.13271264002606 481.2294901687511,498.2548601171017" stroke="black" stroke-linecap="round" stroke-width="1" /><polyline clip-path="url(#border_clip)" fill="none" points="481.2294901687511,498.2548601171017 478.13932022500217,488.74429495414995 481.2294901687511,498.2548601171017 473.13932022500126,504.13271264002606 465.0491502812514,510.01056516295034 468.1393202250014,500.4999999999989 460.04915028125157,506.37785252292326 468.1393202250015,500.4999999999989 471.2294901687515,490.9894348370475 474.31966011250046,500.49999999999926 482.40983005624963,506.3778525229245 490.49999999999955,500.5000000000002 500.4999999999996,500.5000000000008" stroke="black" stroke-linecap="round" stroke-width="1" /></svg>