<?xml version="1.0" encoding="utf-8" ?>
<svg baseProfile="full" height="10000px" version="1.1" width="10000px" xmlns="http://www.w3.org/2000/svg" xmlns:ev="http://www.w3.org/2001/xml-events" xmlns:xlink="http://www.w3.org/1999/xlink"><defs><clipPath id="border_clip"><rect height="10000" width="10000" x="0" y="0" /></clipPath></defs><polyline clip-path="url(#border_clip)" fill="none" points="5000.5,5000.5 5010.5,5000.5 5020.5,5000.5 5017.409830056251,4990.989434837048 5007.409830056251,4990.989434837048 5004.319660112501,5000.5 5007.409830056251,4990.989434837048 5017.409830056251,4990.989434837048 5027.409830056251,4990.989434837048 5019.319660112501,4996.8672873599735 5029.319660112501,4996.8672873599735 5019.319660112501,4996.8672873599735 5011.229490168752,5002.745139882898 5014.319660112501,4993.234574719946 5011.229490168752,4983.724009556995 5001.229490168752,4983.724009556995 4993.139320225002,4977.8461570340705 4985.049150281253,4971.968304511145 4981.958980337503,4981.478869674097 4990.049150281253,4987.356722197022 4998.139320225002,4981.478869674097 4990.049150281253,4987.356722197022 4981.958980337503,4981.478869674097 4973.868810393754,4975.6010171511725 4983.868810393754,4975.6010171511725 4975.778640450004,4969.723164628247 4983.868810393754,4975.6010171511725 4993.868810393754,4975.6010171511725 4985.778640450004,4981.478869674097 4982.688470506255,4990.989434837048 4990.778640450004,4996.8672873599735 4993.868810393754,5006.3778525229245 4996.958980337503,5015.888417685876 5005.049150281253,5010.010565162952 5001.958980337503,5000.5 4991.958980337503,5000.5 5001.958980337503,5000.5 5005.049150281253,5010.010565162952 5008.139320225002,5019.521130325903 5000.049150281253,5013.643277802978 5003.139320225002,5023.1538429659295 5000.049150281253,5013.643277802978 4991.958980337503,5007.765425280054" stroke="black" stroke-linecap="round" stroke-width="1" /><polyline clip-path="url(#border_clip)" fill="none" points="4991.958980337503,5007.765425280054 5001.958980337503,5007.765425280054 5010.049150281253,5001.8875727571285 5006.958980337503,4992.3770075941775 5010.049150281253,4982.866442431226 5013.139320225002,4973.3558772682745 5003.139320225002,4973.3558772682745 5000.049150281253,4982.866442431226 5008.139320225002,4988.744294954151 5000.049150281253,4982.866442431226 5003.139320225002,4973.3558772682745 5006.229490168752,4963.845312105323 5009.319660112501,4973.3558772682745 5012.409830056251,4963.845312105323 5009.319660112501,4973.3558772682745 5012.409830056251,4982.866442431226 5004.319660112501,4976.988589908301 4994.319660112501,4976.988589908301 4991.229490168752,4986.499155071253 4983.139320225002,4992.3770075941775 4975.049150281253,4998.254860117102 4983.139320225002,5004.1327126400265 4991.229490168752,4998.254860117102 4988.139320225002,4988.74429495415 4991.229490168752,4998.254860117102 4983.139320225002,5004.1327126400265 4975.049150281253,5010.010565162951 4978.139320225002,5000.5 4970.049150281253,5006.3778525229245 4978.139320225002,5000.5 4981.229490168752,4990.989434837048 4984.319660112501,5000.5 4992.40983005625,5006.3778525229245 5000.5,5000.5 5010.5,5000.5 5020.5,5000.5 5017.409830056251,4990.989434837049 5007.409830056251,4990.989434837049 5004.319660112501,5000.5 5007.409830056251,4990.989434837049 5017.409830056251,4990.989434837049 5027.409830056251,4990.989434837049 5019.319660112501,4996.8672873599735" stroke="black" stroke-linecap="round" stroke-width="1" /><polyline clip-path="url(#border_clip)" fill="none" points="5019.319660112501,4996.8672873599735 5029.319660112501,4996.8672873599735 5019.319660112501,4996.8672873599735 5011.229490168752,5002.745139882898 5014.319660112501,4993.234574719946 5011.229490168752,4983.724009556995 5001.229490168752,4983.724009556995 4993.139320225002,4977.84615703407 4985.049150281253,4971.968304511145 4981.958980337503,4981.478869674097 4990.049150281253,4987.356722197022 4998.139320225002,4981.478869674097 4990.049150281253,4987.356722197022 4981.958980337503,4981.478869674097 4973.868810393754,4975.601017151172 4983.868810393754,4975.601017151172 4975.778640450005,4969.723164628247 4983.868810393754,4975.601017151172 4993.868810393754,4975.6010171511725 4985.778640450004,4981.478869674097 4982.688470506255,4990.989434837048 4990.778640450004,4996.8672873599735 4993.868810393754,5006.3778525229245 4996.958980337503,5015.888417685876 5005.049150281252,5010.010565162952 5001.958980337503,5000.5 4991.958980337503,5000.5 5001.958980337503,5000.5 5005.049150281252,5010.010565162952 5008.139320225002,5019.521130325903 5000.049150281252,5013.643277802978 5003.139320225002,5023.15384296593 5000.049150281252,5013.643277802978 4991.958980337503,5007.765425280054 5001.958980337503,5007.765425280054 5010.049150281253,5001.887572757129 5006.958980337503,4992.3770075941775 5010.049150281253,4982.866442431226 5013.139320225002,4973.3558772682745 5003.139320225002,4973.3558772682745 5000.049150281253,4982.866442431226 5008.139320225002,4988.744294954151 5000.049150281253,4982.866442431226" stroke="black" stroke-linecap="round" stroke-width="1" /><polyline clip-path="url(#border_clip)" fill="none" points="5000.049150281253,4982.866442431226 5003.139320225002,4973.3558772682745 5006.229490168752,4963.845312105323 5009.319660112501,4973.3558772682745 5012.409830056251,4963.845312105323 5009.319660112501,4973.3558772682745 5012.409830056251,4982.866442431226 5004.319660112501,4976.988589908301 4994.319660112501,4976.988589908301 4991.229490168752,4986.499155071252 4983.139320225002,4992.3770075941775 4975.049150281253,4998.254860117102 4983.139320225002,5004.1327126400265 4991.229490168751,4998.254860117102 4988.139320225002,4988.74429495415 4991.229490168751,4998.254860117102 4983.139320225002,5004.1327126400265 4975.049150281252,5010.010565162951 4978.139320225002,5000.5 4970.049150281252,5006.3778525229245 4978.139320225002,5000.5 4981.229490168752,4990.989434837048 4984.319660112501,5000.5 4992.40983005625,5006.3778525229245 5000.5,5000.5 5010.5,5000.5 5020.5,5000.5 5017.409830056251,4990.989434837049 5007.409830056251,4990.989434837049 5004.319660112501,5000.5 5007.409830056251,4990.989434837049 5017.409830056251,4990.989434837049 5027.409830056251,4990.989434837049 5019.319660112501,4996.8672873599735 5029.319660112501,4996.8672873599735 5019.319660112501,4996.8672873599735 5011.229490168751,5002.745139882898 5014.319660112501,4993.234574719947 5011.229490168752,4983.724009556995 5001.229490168752,4983.724009556995 4993.139320225002,4977.84615703407 4985.049150281253,4971.968304511145 4981.958980337503,4981.478869674097" stroke="black" stroke-linecap="round" stroke-width="1" /><polyline clip-path="url(#border_clip)" fill="none" points="4981.958980337503,4981.478869674097 4990.049150281253,4987.356722197022 4998.139320225002,4981.478869674097 4990.049150281253,4987.356722197022 4981.958980337503,4981.478869674097 4973.868810393754,4975.601017151172 4983.868810393754,4975.601017151172 4975.778640450005,4969.723164628247 4983.868810393754,4975.601017151172 4993.868810393754,4975.601017151172 4985.778640450004,4981.478869674097 4982.688470506255,4990.989434837048 4990.778640450004,4996.8672873599735 4993.868810393753,5006.3778525229245 4996.958980337503,5015.888417685876 5005.049150281252,5010.010565162952 5001.958980337503,5000.5 4991.958980337503,5000.5 5001.958980337503,5000.5 5005.049150281252,5010.010565162952 5008.139320225002,5019.521130325903 5000.049150281252,5013.643277802978 5003.139320225002,5023.15384296593 5000.049150281252,5013.643277802978 4991.958980337503,5007.765425280054 5001.958980337503,5007.765425280054 5010.049150281253,5001.887572757129 5006.958980337503,4992.3770075941775 5010.049150281253,4982.866442431226 5013.139320225003,4973.3558772682745 5003.139320225003,4973.3558772682745 5000.049150281253,4982.866442431226 5008.139320225002,4988.744294954151 5000.049150281253,4982.866442431226 5003.139320225003,4973.3558772682745 5006.229490168752,4963.845312105323 5009.319660112501,4973.3558772682745 5012.409830056251,4963.845312105323 5009.319660112501,4973.3558772682745 5012.409830056251,4982.8664424312265 5004.319660112501,4976.988589908301 4994.319660112501,4976.988589908301 4991.229490168752,4986.499155071252" stroke="black" stroke-linecap="round" stroke-width="1" /><polyline clip-path="url(#border_clip)" fill="none" points="4991.229490168752,4986.499155071252 4983.139320225002,4992.377007594177 4975.049150281253,4998.254860117102 4983.139320225002,5004.1327126400265 4991.229490168751,4998.254860117102 4988.139320225002,4988.74429495415 4991.229490168751,4998.254860117102 4983.139320225002,5004.1327126400265 4975.049150281252,5010.010565162951 4978.139320225002,5000.5 4970.049150281252,5006.3778525229245 4978.139320225002,5000.5 4981.229490168752,4990.989434837048 4984.319660112501,5000.5 4992.40983005625,5006.3778525229245 5000.5,5000.5 5010.5,5000.5 5020.5,5000.500000000001 5017.409830056251,4990.989434837049 5007.409830056251,4990.989434837049 5004.319660112501,5000.5 5007.409830056251,4990.989434837049 5017.409830056251,4990.989434837049 5027.409830056251,4990.989434837049 5019.319660112501,4996.8672873599735 5029.319660112501,4996.8672873599735 5019.319660112501,4996.8672873599735 5011.229490168751,5002.745139882898 5014.319660112501,4993.234574719947 5011.229490168752,4983.724009556995 5001.229490168752,4983.724009556995 4993.139320225003,4977.84615703407 4985.049150281253,4971.968304511145 4981.958980337503,4981.478869674096 4990.049150281253,4987.356722197022 4998.139320225002,4981.478869674097 4990.049150281253,4987.356722197022 4981.958980337503,4981.478869674096 4973.868810393754,4975.601017151172 4983.868810393754,4975.601017151172 4975.778640450005,4969.723164628247 4983.868810393754,4975.601017151172 4993.868810393754,4975.601017151172" stroke="black" stroke-linecap="round" stroke-width="1" /><polyline clip-path="url(#border_clip)" fill="none" points="4993.868810393754,4975.601017151172 4985.778640450005,4981.478869674096 4982.688470506255,4990.989434837048 4990.778640450004,4996.867287359973 4993.868810393753,5006.3778525229245 4996.958980337503,5015.888417685876 5005.049150281252,5010.010565162952 5001.958980337503,5000.5 4991.958980337503,5000.5 5001.958980337503,5000.5 5005.049150281252,5010.010565162952 5008.139320225001,5019.521130325903 5000.049150281252,5013.643277802978 5003.139320225001,5023.15384296593 5000.049150281252,5013.643277802978 4991.958980337503,5007.765425280054 5001.958980337503,5007.765425280054 5010.049150281252,5001.887572757129 5006.958980337503,4992.3770075941775 5010.049150281253,4982.8664424312265 5013.139320225003,4973.3558772682745 5003.139320225003,4973.3558772682745 5000.049150281253,4982.866442431226 5008.139320225002,4988.744294954151 5000.049150281253,4982.866442431226 5003.139320225003,4973.3558772682745 5006.229490168752,4963.845312105323 5009.319660112502,4973.3558772682745 5012.409830056251,4963.845312105323 5009.319660112502,4973.3558772682745 5012.409830056251,4982.8664424312265 5004.319660112502,4976.988589908301 4994.319660112502,4976.988589908301 4991.229490168752,4986.499155071252 4983.139320225002,4992.377007594177 4975.049150281252,4998.254860117101 4983.139320225002,5004.1327126400265 4991.229490168751,4998.254860117102 4988.139320225002,4988.74429495415 4991.229490168751,4998.254860117102 4983.139320225002,5004.1327126400265 4975.049150281252,5010.010565162951 4978.139320225002,5000.499999999999" stroke="black" stroke-linecap="round" stroke-width="1" /><polyline clip-path="url(#border_clip)" fill="none" points="4978.139320225002,5000.499999999999 4970.049150281252,5006.377852522924 4978.139320225002,5000.499999999999 4981.229490168752,4990.989434837048 4984.319660112501,5000.5 4992.40983005625,5006.3778525229245 5000.5,5000.5 5010.5,5000.5 5020.5,5000.500000000001 5017.409830056251,4990.989434837049 5007.409830056251,4990.989434837049 5004.319660112501,5000.5 5007.409830056251,4990.989434837049 5017.409830056251,4990.989434837049 5027.409830056251,4990.989434837049 5019.319660112501,4996.8672873599735 5029.319660112501,4996.867287359974 5019.319660112501,4996.8672873599735 5011.229490168751,5002.745139882898 5014.319660112501,4993.234574719947 5011.229490168752,4983.724009556995 5001.229490168752,4983.724009556995 4993.139320225003,4977.84615703407 4985.049150281253,4971.968304511145 4981.958980337504,4981.478869674096 4990.049150281253,4987.356722197022 4998.139320225003,4981.478869674097 4990.049150281253,4987.356722197022 4981.958980337504,4981.478869674096 4973.868810393754,4975.601017151172 4983.868810393754,4975.601017151172 4975.778640450005,4969.723164628247 4983.868810393754,4975.601017151172 4993.868810393754,4975.601017151172 4985.778640450005,4981.478869674096 4982.688470506255,4990.989434837048 4990.778640450004,4996.867287359973 4993.868810393753,5006.3778525229245 4996.958980337502,5015.888417685876 5005.049150281252,5010.010565162952 5001.958980337503,5000.5 4991.958980337503,5000.5 5001.958980337503,5000.5" stroke="black" stroke-linecap="round" stroke-width="1" /><polyline clip-path="url(#border_clip)" fill="none" points="5001.958980337503,5000.5 5005.049150281252,5010.010565162952 5008.139320225001,5019.521130325904 5000.049150281252,5013.643277802978 5003.139320225001,5023.15384296593 5000.049150281252,5013.643277802978 4991.958980337503,5007.765425280053 5001.958980337503,5007.765425280054 5010.049150281252,5001.887572757129 5006.958980337503,4992.3770075941775 5010.049150281253,4982.8664424312265 5013.139320225003,4973.3558772682745 5003.139320225003,4973.3558772682745 5000.049150281253,4982.866442431226 5008.139320225002,4988.744294954151 5000.049150281253,4982.866442431226 5003.139320225003,4973.3558772682745 5006.229490168753,4963.845312105323 5009.319660112502,4973.3558772682745 5012.409830056252,4963.8453121053235 5009.319660112502,4973.3558772682745 5012.409830056251,4982.8664424312265 5004.319660112502,4976.988589908301 4994.319660112502,4976.988589908301 4991.229490168752,4986.499155071252 4983.139320225002,4992.377007594177 4975.049150281252,4998.254860117101 4983.139320225002,5004.1327126400265 4991.229490168751,4998.254860117102 4988.139320225002,4988.74429495415 4991.229490168751,4998.254860117102 4983.139320225002,5004.1327126400265 4975.049150281252,5010.010565162951 4978.139320225002,5000.499999999999 4970.049150281252,5006.377852522924 4978.139320225002,5000.499999999999 4981.229490168752,4990.989434837048 4984.319660112501,5000.5 4992.40983005625,5006.3778525229245 5000.5,5000.5 5010.5,5000.500000000001 5020.5,5000.500000000001 5017.409830056251,4990.989434837049" stroke="black" stroke-linecap="round" stroke-width="1" /><polyline clip-path="url(#border_clip)" fill="none" points="5017.409830056251,4990.989434837049 5007.409830056251,4990.989434837049 5004.319660112501,5000.5 5007.409830056251,4990.989434837049 5017.409830056251,4990.989434837049 5027.409830056251,4990.98943483705 5019.319660112501,4996.867287359974 5029.319660112501,4996.867287359974 5019.319660112501,4996.867287359974 5011.229490168751,5002.745139882898 5014.319660112501,4993.234574719947 5011.229490168752,4983.724009556995 5001.229490168752,4983.724009556995 4993.139320225003,4977.84615703407 4985.049150281253,4971.968304511145 4981.958980337504,4981.478869674096 4990.049150281253,4987.356722197022 4998.139320225003,4981.478869674097 4990.049150281253,4987.356722197022 4981.958980337504,4981.478869674096 4973.868810393754,4975.601017151172 4983.868810393754,4975.601017151172 4975.778640450005,4969.723164628246 4983.868810393754,4975.601017151172 4993.868810393754,4975.601017151172 4985.778640450005,4981.478869674096 4982.688470506255,4990.989434837048 4990.778640450004,4996.867287359973 4993.868810393753,5006.3778525229245 4996.958980337502,5015.888417685876 5005.049150281252,5010.010565162952 5001.958980337503,5000.5 4991.958980337503,5000.5 5001.958980337503,5000.5 5005.049150281252,5010.010565162952 5008.139320225001,5019.521130325904 5000.049150281252,5013.643277802978 5003.139320225001,5023.15384296593 5000.049150281252,5013.643277802978 4991.958980337503,5007.765425280053 5001.958980337503,5007.765425280054 5010.049150281252,5001.887572757129 5006.958980337503,4992.3770075941775" stroke="black" stroke-linecap="round" stroke-width="1" /><polyline clip-path="url(#border_clip)" fill="none" points="5006.958980337503,4992.3770075941775 5010.049150281253,4982.8664424312265 5013.139320225003,4973.3558772682745 5003.139320225003,4973.3558772682745 5000.049150281253,4982.866442431226 5008.139320225002,4988.744294954151 5000.049150281253,4982.866442431226 5003.139320225003,4973.3558772682745 5006.229490168753,4963.845312105323 5009.319660112502,4973.3558772682745 5012.409830056252,4963.8453121053235 5009.319660112502,4973.3558772682745 5012.409830056251,4982.8664424312265 5004.319660112502,4976.988589908301 4994.319660112502,4976.988589908301 4991.229490168752,4986.499155071252 4983.139320225002,4992.377007594177 4975.049150281252,4998.254860117101 4983.139320225002,5004.1327126400265 4991.229490168751,4998.254860117102 4988.139320225002,4988.74429495415 4991.229490168751,4998.254860117102 4983.139320225002,5004.1327126400265 4975.049150281252,5010.010565162951 4978.139320225002,5000.499999999999 4970.049150281252,5006.377852522924 4978.139320225002,5000.499999999999 4981.229490168752,4990.989434837048 4984.319660112501,5000.499999999999 4992.40983005625,5006.3778525229245 5000.5,5000.5 5010.5,5000.500000000001 5020.5,5000.500000000001 5017.409830056251,4990.989434837049 5007.409830056251,4990.989434837049 5004.319660112501,5000.5 5007.409830056251,4990.989434837049 5017.409830056251,4990.989434837049 5027.409830056251,4990.98943483705 5019.319660112501,4996.867287359974 5029.319660112501,4996.867287359974 5019.319660112501,4996.867287359974 5011.229490168751,5002.745139882899" stroke="black" stroke-linecap="round" stroke-width="1" /><polyline clip-path="url(#border_clip)" fill="none" points="5011.229490168751,5002.745139882899 5014.319660112501,4993.234574719947 5011.229490168752,4983.724009556995 5001.229490168752,4983.724009556995 4993.139320225003,4977.84615703407 4985.049150281254,4971.968304511145 4981.958980337504,4981.478869674096 4990.049150281253,4987.356722197022 4998.139320225003,4981.478869674097 4990.049150281253,4987.356722197022 4981.958980337504,4981.478869674096 4973.868810393754,4975.601017151171 4983.868810393754,4975.601017151172 4975.778640450005,4969.723164628246 4983.868810393754,4975.601017151172 4993.868810393755,4975.601017151172 4985.778640450005,4981.478869674096 4982.688470506255,4990.989434837048 4990.778640450004,4996.867287359973 4993.868810393753,5006.3778525229245 4996.958980337502,5015.888417685876 5005.049150281252,5010.010565162952 5001.958980337503,5000.5 4991.958980337503,5000.5 5001.958980337503,5000.5 5005.049150281252,5010.010565162952 5008.139320225001,5019.521130325904 5000.049150281252,5013.643277802978 5003.139320225001,5023.15384296593 5000.049150281252,5013.643277802978 4991.958980337502,5007.765425280053 5001.958980337502,5007.765425280054 5010.049150281252,5001.887572757129 5006.958980337503,4992.3770075941775 5010.049150281253,4982.8664424312265 5013.139320225003,4973.3558772682745 5003.139320225003,4973.3558772682745 5000.049150281253,4982.866442431226 5008.139320225002,4988.744294954151 5000.049150281253,4982.866442431226 5003.139320225003,4973.3558772682745 5006.229490168753,4963.845312105323 5009.319660112502,4973.3558772682745" stroke="black" stroke-linecap="round" stroke-width="1" /><polyline clip-path="url(#border_clip)" fill="none" points="5009.319660112502,4973.3558772682745 5012.409830056252,4963.8453121053235 5009.319660112502,4973.3558772682745 5012.409830056251,4982.8664424312265 5004.319660112502,4976.988589908301 4994.319660112502,4976.988589908301 4991.229490168752,4986.499155071252 4983.139320225002,4992.377007594177 4975.049150281252,4998.254860117101 4983.139320225001,5004.1327126400265 4991.229490168751,4998.254860117102 4988.139320225002,4988.74429495415 4991.229490168751,4998.254860117102 4983.139320225001,5004.1327126400265 4975.049150281252,5010.01056516295 4978.139320225002,5000.499999999999 4970.049150281252,5006.377852522924 4978.139320225002,5000.499999999999 4981.229490168752,4990.989434837048 4984.3196601125,5000.499999999999 4992.40983005625,5006.3778525229245 5000.5,5000.5 5010.5,5000.500000000001 5020.5,5000.500000000001 5017.409830056251,4990.989434837049 5007.409830056251,4990.989434837049 5004.319660112501,5000.5 5007.409830056251,4990.989434837049 5017.409830056251,4990.989434837049 5027.409830056251,4990.98943483705 5019.319660112501,4996.867287359974 5029.319660112501,4996.867287359974 5019.319660112501,4996.867287359974 5011.229490168751,5002.745139882899 5014.319660112501,4993.234574719947 5011.229490168752,4983.724009556995 5001.229490168752,4983.724009556995 4993.139320225003,4977.84615703407 4985.049150281254,4971.968304511144 4981.958980337504,4981.478869674096 4990.049150281253,4987.356722197022 4998.139320225003,4981.478869674097 4990.049150281253,4987.356722197022" stroke="black" stroke-linecap="round" stroke-width="1" /><polyline clip-path="url(#border_clip)" fill="none" points="4990.049150281253,4987.356722197022 4981.958980337504,4981.478869674096 4973.868810393755,4975.601017151171 4983.868810393755,4975.601017151172 4975.778640450005,4969.723164628246 4983.868810393755,4975.601017151172 4993.868810393755,4975.601017151172 4985.778640450005,4981.478869674096 4982.688470506255,4990.989434837048 4990.778640450004,4996.867287359973 4993.868810393753,5006.3778525229245 4996.958980337502,5015.888417685876 5005.049150281252,5010.010565162952 5001.958980337503,5000.5 4991.958980337503,5000.5 5001.958980337503,5000.5 5005.049150281252,5010.010565162952 5008.139320225001,5019.521130325904 5000.049150281251,5013.643277802978 5003.139320225,5023.15384296593 5000.049150281251,5013.643277802978 4991.958980337502,5007.765425280053 5001.958980337502,5007.765425280054 5010.049150281252,5001.887572757129 5006.958980337503,4992.3770075941775 5010.049150281253,4982.8664424312265 5013.139320225003,4973.3558772682745 5003.139320225003,4973.3558772682745 5000.049150281253,4982.866442431226 5008.139320225002,4988.744294954151 5000.049150281253,4982.866442431226 5003.139320225003,4973.3558772682745 5006.229490168753,4963.845312105323 5009.319660112502,4973.3558772682745 5012.409830056252,4963.8453121053235 5009.319660112502,4973.3558772682745 5012.409830056251,4982.8664424312265 5004.319660112502,4976.988589908301 4994.319660112502,4976.988589908301 4991.229490168752,4986.499155071252 4983.139320225002,4992.377007594177 4975.049150281252,4998.254860117101 4983.139320225001,5004.132712640026" stroke="black" stroke-linecap="round" stroke-width="1" /><polyline clip-path="url(#border_clip)" fill="none" points="4983.139320225001,5004.132712640026 4991.229490168751,4998.254860117102 4988.139320225002,4988.74429495415 4991.229490168751,4998.254860117102 4983.139320225001,5004.132712640026 4975.049150281251,5010.01056516295 4978.139320225001,5000.499999999999 4970.049150281252,5006.377852522924 4978.139320225001,5000.499999999999 4981.229490168752,4990.989434837047 4984.3196601125,5000.499999999999 4992.40983005625,5006.3778525229245 5000.499999999999,5000.5" stroke="black" stroke-linecap="round" stroke-width="1" /></svg>