<?xml version="1.0" encoding="utf-8" ?>
<svg baseProfile="full" height="10000px" version="1.1" width="10000px" xmlns="http://www.w3.org/2000/svg" xmlns:ev="http://www.w3.org/2001/xml-events" xmlns:xlink="http://www.w3.org/1999/xlink"><defs><clipPath id="border_clip"><rect height="10000" width="10000" x="0" y="0" /></clipPath></defs><polyline clip-path="url(#border_clip)" fill="none" points="5000.5,5000.5 5010.5,5000.5 5020.5,5000.5 5023.590169943749,4990.989434837048 5031.680339887499,4996.8672873599735 5039.770509831248,5002.745139882898 5047.860679774998,4996.8672873599735 5050.950849718747,5006.3778525229245 5054.041019662497,5015.888417685876 5064.041019662497,5015.888417685876 5060.950849718747,5025.3989828488275 5057.860679774998,5034.909548011779 5065.950849718747,5040.787400534704 5057.860679774998,5046.665253057628 5049.770509831248,5052.543105580554 5052.860679774998,5062.053670743505 5042.860679774998,5062.053670743505 5032.860679774998,5062.053670743505 5029.770509831248,5071.564235906457 5021.680339887499,5065.686383383532 5013.590169943749,5059.808530860607 5005.5,5065.686383383531 5002.409830056251,5056.17581822058 4999.319660112501,5046.665253057628 4989.319660112501,5046.665253057628 4992.409830056251,5037.154687894677 4995.5,5027.6441227317255 4987.409830056251,5021.766270208801 4995.5,5015.888417685876 5003.59016994375,5010.010565162952 5000.5,5000.5 5010.5,5000.5 5020.5,5000.5 5023.59016994375,4990.989434837048 5031.680339887499,4996.8672873599735 5039.770509831248,5002.745139882898 5047.860679774998,4996.8672873599735 5050.950849718747,5006.3778525229245 5054.041019662497,5015.888417685876 5064.041019662497,5015.888417685876 5060.950849718747,5025.3989828488275 5057.860679774998,5034.909548011779 5065.950849718747,5040.787400534704" stroke="black" stroke-linecap="round" stroke-width="1" /><polyline clip-path="url(#border_clip)" fill="none" points="5065.950849718747,5040.787400534704 5057.860679774998,5046.665253057628 5049.770509831248,5052.543105580554 5052.860679774998,5062.053670743505 5042.860679774998,5062.053670743505 5032.860679774998,5062.053670743505 5029.770509831248,5071.564235906457 5021.680339887499,5065.686383383531 5013.590169943749,5059.808530860607 5005.5,5065.686383383531 5002.40983005625,5056.17581822058 4999.319660112501,5046.665253057628 4989.319660112501,5046.665253057628 4992.409830056251,5037.154687894677 4995.5,5027.6441227317255 4987.409830056251,5021.766270208801 4995.5,5015.888417685876 5003.59016994375,5010.010565162951 5000.5,5000.5 5010.5,5000.5 5020.5,5000.5 5023.59016994375,4990.989434837048 5031.680339887499,4996.8672873599735 5039.770509831248,5002.745139882898 5047.860679774998,4996.8672873599735 5050.950849718747,5006.3778525229245 5054.041019662497,5015.888417685876 5064.041019662497,5015.888417685876 5060.950849718747,5025.398982848828 5057.860679774998,5034.909548011779 5065.950849718747,5040.787400534704 5057.860679774998,5046.665253057629 5049.770509831248,5052.543105580554 5052.860679774998,5062.053670743505 5042.860679774998,5062.053670743505 5032.860679774998,5062.053670743505 5029.770509831248,5071.564235906457 5021.680339887499,5065.686383383531 5013.590169943749,5059.808530860607 5005.5,5065.686383383531 5002.40983005625,5056.17581822058 4999.319660112501,5046.665253057628 4989.319660112501,5046.665253057628" stroke="black" stroke-linecap="round" stroke-width="1" /><polyline clip-path="url(#border_clip)" fill="none" points="4989.319660112501,5046.665253057628 4992.409830056251,5037.154687894677 4995.5,5027.6441227317255 4987.409830056251,5021.766270208801 4995.5,5015.888417685876 5003.59016994375,5010.010565162951 5000.5,5000.5 5010.5,5000.5 5020.5,5000.5 5023.59016994375,4990.989434837048 5031.680339887499,4996.8672873599735 5039.770509831248,5002.745139882898 5047.860679774998,4996.8672873599735 5050.950849718747,5006.3778525229245 5054.041019662497,5015.888417685876 5064.041019662497,5015.888417685876 5060.950849718747,5025.398982848828 5057.860679774998,5034.909548011779 5065.950849718747,5040.787400534704 5057.860679774998,5046.665253057629 5049.770509831248,5052.543105580554 5052.860679774998,5062.053670743505 5042.860679774998,5062.053670743505 5032.860679774998,5062.053670743505 5029.770509831248,5071.564235906457 5021.680339887499,5065.686383383531 5013.590169943749,5059.808530860607 5005.5,5065.686383383531 5002.40983005625,5056.17581822058 4999.319660112501,5046.665253057628 4989.319660112501,5046.665253057628 4992.409830056251,5037.154687894677 4995.5,5027.6441227317255 4987.409830056251,5021.766270208801 4995.5,5015.888417685876 5003.59016994375,5010.010565162951 5000.5,5000.5 5010.5,5000.5 5020.5,5000.5 5023.59016994375,4990.989434837048 5031.680339887499,4996.8672873599735 5039.770509831249,5002.745139882898 5047.860679774998,4996.8672873599735" stroke="black" stroke-linecap="round" stroke-width="1" /><polyline clip-path="url(#border_clip)" fill="none" points="5047.860679774998,4996.8672873599735 5050.950849718747,5006.3778525229245 5054.041019662497,5015.888417685876 5064.041019662497,5015.888417685876 5060.950849718747,5025.398982848828 5057.860679774998,5034.909548011779 5065.950849718747,5040.787400534704 5057.860679774998,5046.665253057629 5049.770509831248,5052.543105580554 5052.860679774997,5062.053670743505 5042.860679774997,5062.053670743505 5032.860679774997,5062.053670743505 5029.770509831248,5071.564235906457 5021.680339887499,5065.686383383531 5013.590169943749,5059.808530860607 5005.5,5065.686383383531 5002.40983005625,5056.17581822058 4999.319660112501,5046.665253057628 4989.319660112501,5046.665253057628 4992.40983005625,5037.154687894677 4995.5,5027.6441227317255 4987.409830056251,5021.766270208801 4995.5,5015.888417685876 5003.59016994375,5010.010565162951 5000.5,5000.5 5010.5,5000.5 5020.5,5000.5 5023.59016994375,4990.989434837048 5031.680339887499,4996.8672873599735 5039.770509831249,5002.745139882898 5047.860679774998,4996.8672873599735 5050.950849718747,5006.377852522925 5054.041019662497,5015.888417685876 5064.041019662497,5015.888417685876 5060.950849718747,5025.398982848828 5057.860679774998,5034.909548011779 5065.950849718747,5040.787400534705 5057.860679774998,5046.665253057629 5049.770509831248,5052.543105580554 5052.860679774997,5062.053670743505 5042.860679774997,5062.053670743505 5032.860679774997,5062.053670743505 5029.770509831248,5071.564235906457" stroke="black" stroke-linecap="round" stroke-width="1" /><polyline clip-path="url(#border_clip)" fill="none" points="5029.770509831248,5071.564235906457 5021.680339887498,5065.686383383531 5013.590169943749,5059.808530860607 5005.5,5065.686383383531 5002.40983005625,5056.17581822058 4999.319660112501,5046.665253057628 4989.319660112501,5046.665253057628 4992.40983005625,5037.1546878946765 4995.5,5027.6441227317255 4987.409830056251,5021.766270208801 4995.5,5015.8884176858755 5003.59016994375,5010.010565162951 5000.5,5000.5 5010.5,5000.5 5020.5,5000.5 5023.59016994375,4990.989434837048 5031.680339887499,4996.8672873599735 5039.770509831249,5002.745139882898 5047.860679774998,4996.8672873599735 5050.950849718747,5006.377852522925 5054.041019662497,5015.888417685876 5064.041019662497,5015.888417685876 5060.950849718747,5025.398982848828 5057.860679774998,5034.909548011779 5065.950849718747,5040.787400534705 5057.860679774997,5046.665253057629 5049.770509831248,5052.543105580554 5052.860679774997,5062.053670743505 5042.860679774997,5062.053670743505 5032.860679774997,5062.053670743505 5029.770509831248,5071.564235906457 5021.680339887498,5065.686383383531 5013.590169943749,5059.808530860607 5005.5,5065.686383383531 5002.40983005625,5056.17581822058 4999.319660112501,5046.665253057628 4989.319660112501,5046.665253057628 4992.40983005625,5037.1546878946765 4995.5,5027.6441227317255 4987.409830056251,5021.766270208801 4995.5,5015.8884176858755 5003.59016994375,5010.010565162951 5000.5,5000.5" stroke="black" stroke-linecap="round" stroke-width="1" /><polyline clip-path="url(#border_clip)" fill="none" points="5000.5,5000.5 5010.5,5000.5 5020.5,5000.5 5023.59016994375,4990.989434837048 5031.680339887499,4996.8672873599735 5039.770509831249,5002.745139882898 5047.860679774998,4996.8672873599735 5050.950849718747,5006.377852522925 5054.041019662497,5015.888417685876 5064.041019662497,5015.888417685876 5060.950849718747,5025.398982848828 5057.860679774998,5034.909548011779 5065.950849718747,5040.787400534705 5057.860679774997,5046.665253057629 5049.770509831248,5052.543105580554 5052.860679774997,5062.053670743506 5042.860679774997,5062.053670743505 5032.860679774997,5062.053670743505 5029.770509831248,5071.564235906457 5021.680339887498,5065.686383383531 5013.590169943749,5059.808530860607 5005.499999999999,5065.686383383531 5002.40983005625,5056.17581822058 4999.319660112501,5046.665253057628 4989.319660112501,5046.665253057628 4992.40983005625,5037.1546878946765 4995.5,5027.6441227317255 4987.409830056251,5021.7662702088 4995.5,5015.8884176858755 5003.59016994375,5010.010565162951 5000.5,5000.5 5010.5,5000.5 5020.5,5000.5 5023.59016994375,4990.989434837048 5031.680339887499,4996.8672873599735 5039.770509831249,5002.745139882898 5047.860679774998,4996.8672873599735 5050.950849718748,5006.377852522925 5054.041019662497,5015.888417685876 5064.041019662497,5015.888417685876 5060.950849718747,5025.398982848828 5057.860679774998,5034.909548011779 5065.950849718747,5040.787400534705" stroke="black" stroke-linecap="round" stroke-width="1" /><polyline clip-path="url(#border_clip)" fill="none" points="5065.950849718747,5040.787400534705 5057.860679774997,5046.665253057629 5049.770509831248,5052.543105580554 5052.860679774997,5062.053670743506 5042.860679774997,5062.053670743505 5032.860679774997,5062.053670743505 5029.770509831248,5071.564235906457 5021.680339887498,5065.686383383531 5013.590169943749,5059.808530860607 5005.499999999999,5065.686383383531 5002.40983005625,5056.17581822058 4999.319660112501,5046.665253057628 4989.319660112501,5046.665253057628 4992.40983005625,5037.1546878946765 4995.5,5027.6441227317255 4987.409830056251,5021.7662702088 4995.5,5015.8884176858755 5003.59016994375,5010.010565162951 5000.500000000001,5000.5 5010.5,5000.5 5020.5,5000.5 5023.59016994375,4990.989434837049 5031.680339887499,4996.8672873599735 5039.770509831249,5002.745139882898 5047.860679774998,4996.8672873599735 5050.950849718748,5006.377852522925 5054.041019662497,5015.888417685876 5064.041019662497,5015.888417685877 5060.950849718747,5025.398982848828 5057.860679774998,5034.909548011779 5065.950849718747,5040.787400534705 5057.860679774997,5046.665253057629 5049.770509831248,5052.543105580554 5052.860679774997,5062.053670743506 5042.860679774997,5062.053670743505 5032.860679774997,5062.053670743505 5029.770509831248,5071.564235906457 5021.680339887498,5065.686383383531 5013.590169943749,5059.808530860607 5005.499999999999,5065.686383383531 5002.40983005625,5056.1758182205795 4999.319660112501,5046.665253057628 4989.319660112501,5046.665253057628" stroke="black" stroke-linecap="round" stroke-width="1" /><polyline clip-path="url(#border_clip)" fill="none" points="4989.319660112501,5046.665253057628 4992.40983005625,5037.1546878946765 4995.5,5027.6441227317255 4987.409830056251,5021.7662702088 4995.5,5015.8884176858755 5003.59016994375,5010.010565162951 5000.500000000001,5000.5 5010.500000000001,5000.5 5020.500000000001,5000.5 5023.59016994375,4990.989434837049 5031.680339887499,4996.8672873599735 5039.770509831249,5002.745139882898 5047.860679774998,4996.8672873599735 5050.950849718748,5006.377852522925 5054.041019662497,5015.888417685876 5064.041019662497,5015.888417685877 5060.950849718747,5025.398982848828 5057.860679774998,5034.90954801178 5065.950849718747,5040.787400534705 5057.860679774997,5046.665253057629 5049.770509831248,5052.543105580554 5052.860679774997,5062.053670743506 5042.860679774997,5062.053670743505 5032.860679774997,5062.053670743505 5029.770509831247,5071.564235906457 5021.680339887498,5065.686383383531 5013.590169943749,5059.808530860607 5005.499999999999,5065.686383383531 5002.40983005625,5056.1758182205795 4999.319660112501,5046.665253057628 4989.319660112501,5046.665253057628 4992.40983005625,5037.1546878946765 4995.5,5027.6441227317255 4987.409830056251,5021.7662702088 4995.5,5015.8884176858755 5003.59016994375,5010.010565162951 5000.500000000001,5000.5 5010.500000000001,5000.5 5020.500000000001,5000.5 5023.59016994375,4990.989434837049 5031.6803398875,4996.8672873599735 5039.770509831249,5002.745139882898 5047.860679774998,4996.8672873599735" stroke="black" stroke-linecap="round" stroke-width="1" /><polyline clip-path="url(#border_clip)" fill="none" points="5047.860679774998,4996.8672873599735 5050.950849718748,5006.377852522925 5054.041019662497,5015.888417685876 5064.041019662497,5015.888417685877 5060.950849718747,5025.398982848828 5057.860679774998,5034.90954801178 5065.950849718747,5040.787400534705 5057.860679774997,5046.665253057629 5049.770509831248,5052.543105580554 5052.860679774997,5062.053670743506 5042.860679774997,5062.053670743505 5032.860679774997,5062.053670743505 5029.770509831247,5071.564235906457 5021.680339887498,5065.686383383531 5013.590169943749,5059.808530860607 5005.499999999999,5065.686383383531 5002.40983005625,5056.1758182205795 4999.319660112501,5046.665253057628 4989.319660112501,5046.6652530576275 4992.40983005625,5037.1546878946765 4995.5,5027.6441227317255 4987.409830056251,5021.7662702088 4995.5,5015.8884176858755 5003.59016994375,5010.010565162951 5000.500000000001,5000.499999999999 5010.500000000001,5000.5 5020.500000000001,5000.5 5023.59016994375,4990.989434837048 5031.6803398875,4996.8672873599735 5039.770509831249,5002.745139882898 5047.860679774998,4996.8672873599735 5050.950849718748,5006.377852522925 5054.041019662497,5015.888417685876 5064.041019662497,5015.888417685877 5060.950849718747,5025.398982848828 5057.860679774998,5034.90954801178 5065.950849718747,5040.787400534705 5057.860679774997,5046.665253057629 5049.770509831248,5052.543105580554 5052.860679774997,5062.053670743506 5042.860679774997,5062.053670743505 5032.860679774997,5062.053670743505 5029.770509831247,5071.564235906457" stroke="black" stroke-linecap="round" stroke-width="1" /><polyline clip-path="url(#border_clip)" fill="none" points="5029.770509831247,5071.564235906457 5021.680339887498,5065.686383383531 5013.590169943749,5059.808530860607 5005.499999999999,5065.686383383531 5002.40983005625,5056.1758182205795 4999.319660112501,5046.665253057628 4989.319660112501,5046.6652530576275 4992.40983005625,5037.1546878946765 4995.5,5027.644122731725 4987.409830056251,5021.7662702088 4995.5,5015.8884176858755 5003.59016994375,5010.010565162951 5000.500000000001,5000.499999999999 5010.500000000001,5000.5 5020.500000000001,5000.5 5023.59016994375,4990.989434837048 5031.6803398875,4996.8672873599735 5039.770509831249,5002.745139882898 5047.860679774999,4996.8672873599735 5050.950849718748,5006.377852522925 5054.041019662497,5015.888417685877 5064.041019662497,5015.888417685877 5060.950849718747,5025.398982848828 5057.860679774997,5034.90954801178 5065.950849718747,5040.787400534705 5057.860679774997,5046.665253057629 5049.770509831248,5052.543105580554 5052.860679774997,5062.053670743506 5042.860679774997,5062.053670743505 5032.860679774997,5062.053670743505 5029.770509831247,5071.564235906457 5021.680339887498,5065.686383383531 5013.590169943749,5059.808530860607 5005.499999999999,5065.686383383531 5002.40983005625,5056.1758182205795 4999.319660112501,5046.665253057628 4989.319660112501,5046.6652530576275 4992.40983005625,5037.1546878946765 4995.5,5027.644122731725 4987.409830056251,5021.7662702088 4995.5,5015.8884176858755 5003.59016994375,5010.010565162951 5000.500000000001,5000.499999999999" stroke="black" stroke-linecap="round" stroke-width="1" /><polyline clip-path="url(#border_clip)" fill="none" points="5000.500000000001,5000.499999999999 5010.500000000001,5000.5 5020.500000000001,5000.5 5023.59016994375,4990.989434837048 5031.6803398875,4996.8672873599735 5039.770509831249,5002.745139882898 5047.860679774999,4996.8672873599735 5050.950849718748,5006.377852522925 5054.041019662497,5015.888417685877 5064.041019662497,5015.888417685877 5060.950849718747,5025.398982848828 5057.860679774997,5034.90954801178 5065.950849718747,5040.787400534705 5057.860679774997,5046.665253057629 5049.770509831248,5052.543105580554 5052.860679774997,5062.053670743506 5042.860679774997,5062.053670743505 5032.860679774997,5062.053670743505 5029.770509831247,5071.564235906457 5021.680339887498,5065.686383383531 5013.590169943749,5059.808530860607 5005.499999999999,5065.686383383531 5002.40983005625,5056.1758182205795 4999.319660112501,5046.665253057628 4989.319660112501,5046.6652530576275 4992.40983005625,5037.1546878946765 4995.5,5027.644122731725 4987.409830056251,5021.7662702088 4995.5,5015.8884176858755 5003.59016994375,5010.010565162951 5000.500000000001,5000.499999999999 5010.500000000001,5000.5 5020.500000000001,5000.5 5023.590169943751,4990.989434837048 5031.6803398875,4996.8672873599735 5039.770509831249,5002.745139882898 5047.860679774999,4996.8672873599735 5050.950849718748,5006.377852522925 5054.041019662497,5015.888417685877 5064.041019662497,5015.888417685877 5060.950849718747,5025.398982848828 5057.860679774997,5034.90954801178 5065.950849718747,5040.787400534705" stroke="black" stroke-linecap="round" stroke-width="1" /><polyline clip-path="url(#border_clip)" fill="none" points="5065.950849718747,5040.787400534705 5057.860679774997,5046.665253057629 5049.770509831248,5052.543105580554 5052.860679774997,5062.053670743506 5042.860679774997,5062.053670743506 5032.860679774997,5062.053670743505 5029.770509831247,5071.564235906457 5021.680339887498,5065.686383383531 5013.590169943749,5059.808530860607 5005.499999999999,5065.686383383531 5002.40983005625,5056.1758182205795 4999.319660112501,5046.6652530576275 4989.319660112501,5046.6652530576275 4992.40983005625,5037.1546878946765 4995.5,5027.644122731725 4987.409830056251,5021.7662702088 4995.500000000001,5015.8884176858755 5003.59016994375,5010.010565162951 5000.500000000001,5000.499999999999 5010.500000000001,5000.5 5020.500000000001,5000.5 5023.590169943751,4990.989434837048 5031.6803398875,4996.8672873599735 5039.770509831249,5002.745139882898 5047.860679774999,4996.8672873599735 5050.950849718748,5006.377852522925 5054.041019662497,5015.888417685877 5064.041019662497,5015.888417685877 5060.950849718747,5025.398982848828 5057.860679774997,5034.90954801178 5065.950849718747,5040.787400534705 5057.860679774997,5046.665253057629 5049.770509831247,5052.543105580554 5052.860679774997,5062.053670743506 5042.860679774997,5062.053670743506 5032.860679774997,5062.053670743505 5029.770509831247,5071.564235906457 5021.680339887498,5065.686383383531 5013.590169943749,5059.808530860607 5005.499999999999,5065.686383383531 5002.40983005625,5056.1758182205795 4999.319660112501,5046.6652530576275 4989.319660112501,5046.6652530576275" stroke="black" stroke-linecap="round" stroke-width="1" /><polyline clip-path="url(#border_clip)" fill="none" points="4989.319660112501,5046.6652530576275 4992.40983005625,5037.1546878946765 4995.5,5027.644122731725 4987.409830056251,5021.7662702088 4995.500000000001,5015.8884176858755 5003.59016994375,5010.010565162951 5000.500000000001,5000.499999999999 5010.500000000001,5000.5 5020.500000000001,5000.5 5023.590169943751,4990.989434837048 5031.6803398875,4996.8672873599735 5039.770509831249,5002.745139882898 5047.860679774999,4996.8672873599735 5050.950849718748,5006.377852522925 5054.041019662497,5015.888417685877 5064.041019662497,5015.888417685877 5060.950849718747,5025.398982848828 5057.860679774997,5034.90954801178 5065.950849718747,5040.787400534705 5057.860679774997,5046.665253057629 5049.770509831247,5052.543105580554 5052.860679774997,5062.053670743506 5042.860679774997,5062.053670743506 5032.860679774997,5062.053670743505 5029.770509831247,5071.564235906457 5021.680339887498,5065.686383383531 5013.590169943748,5059.808530860607 5005.499999999999,5065.686383383531 5002.40983005625,5056.1758182205795 4999.319660112501,5046.6652530576275 4989.319660112501,5046.6652530576275 4992.40983005625,5037.1546878946765 4995.5,5027.644122731725 4987.409830056251,5021.7662702088 4995.500000000001,5015.8884176858755 5003.59016994375,5010.010565162951 5000.500000000001,5000.499999999999 5010.500000000001,5000.499999999999 5020.500000000001,5000.5 5023.590169943751,4990.989434837048 5031.6803398875,4996.8672873599735 5039.770509831249,5002.745139882898 5047.860679774999,4996.867287359974" stroke="black" stroke-linecap="round" stroke-width="1" /><polyline clip-path="url(#border_clip)" fill="none" points="5047.860679774999,4996.867287359974 5050.950849718748,5006.377852522925 5054.041019662497,5015.888417685877 5064.041019662497,5015.888417685877 5060.950849718747,5025.398982848829 5057.860679774997,5034.90954801178 5065.950849718747,5040.787400534705 5057.860679774997,5046.665253057629 5049.770509831247,5052.543105580554 5052.860679774996,5062.053670743506 5042.860679774997,5062.053670743506 5032.860679774997,5062.053670743505 5029.770509831247,5071.564235906457 5021.680339887498,5065.686383383531 5013.590169943748,5059.808530860607 5005.499999999999,5065.6863833835305 5002.40983005625,5056.1758182205795 4999.319660112501,5046.6652530576275 4989.319660112501,5046.6652530576275 4992.40983005625,5037.154687894676 4995.5,5027.644122731725 4987.409830056251,5021.7662702088 4995.500000000001,5015.8884176858755 5003.59016994375,5010.010565162951 5000.500000000001,5000.499999999999 5010.500000000001,5000.499999999999 5020.500000000001,5000.5 5023.590169943751,4990.989434837048 5031.6803398875,4996.8672873599735 5039.770509831249,5002.745139882898 5047.860679774999,4996.867287359974 5050.950849718748,5006.377852522925 5054.041019662497,5015.888417685877 5064.041019662497,5015.888417685877 5060.950849718747,5025.398982848829 5057.860679774997,5034.90954801178 5065.950849718747,5040.787400534706 5057.860679774997,5046.665253057629 5049.770509831247,5052.543105580554 5052.860679774996,5062.053670743506 5042.860679774996,5062.053670743506 5032.860679774997,5062.053670743505 5029.770509831247,5071.564235906457" stroke="black" stroke-linecap="round" stroke-width="1" /><polyline clip-path="url(#border_clip)" fill="none" points="5029.770509831247,5071.564235906457 5021.680339887498,5065.686383383531 5013.590169943748,5059.808530860607 5005.499999999999,5065.6863833835305 5002.40983005625,5056.1758182205795 4999.319660112501,5046.6652530576275 4989.319660112501,5046.6652530576275 4992.40983005625,5037.154687894676 4995.5,5027.644122731725 4987.409830056251,5021.766270208799 4995.500000000001,5015.8884176858755 5003.59016994375,5010.010565162951 5000.500000000001,5000.499999999999 5010.500000000001,5000.499999999999 5020.500000000001,5000.5 5023.590169943751,4990.989434837048 5031.6803398875,4996.8672873599735 5039.770509831249,5002.745139882899 5047.860679774999,4996.867287359974 5050.950849718748,5006.377852522925 5054.041019662497,5015.888417685877 5064.041019662497,5015.888417685877 5060.950849718747,5025.398982848829 5057.860679774997,5034.90954801178 5065.950849718747,5040.787400534706 5057.860679774997,5046.665253057629 5049.770509831247,5052.543105580554 5052.860679774996,5062.053670743506 5042.860679774996,5062.053670743506 5032.860679774996,5062.053670743505 5029.770509831247,5071.564235906457 5021.680339887497,5065.686383383531 5013.590169943748,5059.808530860606 5005.499999999999,5065.6863833835305 5002.40983005625,5056.1758182205795 4999.319660112501,5046.6652530576275 4989.319660112501,5046.6652530576275 4992.40983005625,5037.154687894676 4995.5,5027.644122731725 4987.409830056251,5021.766270208799 4995.500000000001,5015.8884176858755 5003.59016994375,5010.010565162951 5000.500000000001,5000.499999999999" stroke="black" stroke-linecap="round" stroke-width="1" /><polyline clip-path="url(#border_clip)" fill="none" points="5000.500000000001,5000.499999999999 5010.500000000001,5000.499999999999 5020.500000000001,5000.5 5023.590169943751,4990.989434837048 5031.6803398875,4996.8672873599735 5039.770509831249,5002.745139882899 5047.860679774999,4996.867287359974 5050.950849718748,5006.377852522925 5054.041019662497,5015.888417685877 5064.041019662497,5015.888417685877 5060.950849718747,5025.398982848829 5057.860679774997,5034.90954801178 5065.950849718747,5040.787400534706 5057.860679774997,5046.66525305763 5049.770509831247,5052.543105580554 5052.860679774996,5062.053670743506 5042.860679774996,5062.053670743506 5032.860679774996,5062.053670743505 5029.770509831247,5071.564235906457 5021.680339887497,5065.686383383531 5013.590169943748,5059.808530860606 5005.499999999999,5065.6863833835305 5002.40983005625,5056.1758182205795 4999.319660112501,5046.6652530576275 4989.319660112501,5046.6652530576275 4992.40983005625,5037.154687894676 4995.5,5027.644122731725 4987.409830056251,5021.766270208799 4995.500000000001,5015.888417685875 5003.59016994375,5010.010565162951 5000.500000000001,5000.499999999999 5010.500000000001,5000.499999999999 5020.500000000001,5000.5 5023.590169943751,4990.989434837048 5031.6803398875,4996.8672873599735 5039.770509831249,5002.745139882899 5047.860679774999,4996.867287359974 5050.950849718748,5006.377852522925 5054.041019662497,5015.888417685877 5064.041019662497,5015.888417685877 5060.950849718747,5025.398982848829 5057.860679774997,5034.90954801178 5065.950849718747,5040.787400534706" stroke="black" stroke-linecap="round" stroke-width="1" /><polyline clip-path="url(#border_clip)" fill="none" points="5065.950849718747,5040.787400534706 5057.860679774997,5046.66525305763 5049.770509831247,5052.543105580554 5052.860679774996,5062.053670743506 5042.860679774996,5062.053670743506 5032.860679774996,5062.053670743505 5029.770509831246,5071.564235906457 5021.680339887497,5065.686383383531 5013.590169943748,5059.808530860606 5005.499999999999,5065.6863833835305 5002.40983005625,5056.1758182205795 4999.319660112501,5046.6652530576275 4989.319660112501,5046.6652530576275 4992.40983005625,5037.154687894676 4995.5,5027.644122731725 4987.409830056251,5021.766270208799 4995.500000000001,5015.888417685875 5003.590169943751,5010.010565162951 5000.500000000002,5000.499999999999 5010.500000000001,5000.499999999999 5020.500000000001,5000.5 5023.590169943751,4990.989434837048 5031.6803398875,4996.8672873599735 5039.77050983125,5002.745139882899 5047.860679774999,4996.867287359974 5050.950849718748,5006.377852522925 5054.041019662497,5015.888417685877 5064.041019662497,5015.888417685878 5060.950849718747,5025.398982848829 5057.860679774997,5034.90954801178 5065.950849718747,5040.787400534706 5057.860679774997,5046.66525305763 5049.770509831247,5052.543105580555 5052.860679774996,5062.053670743506 5042.860679774996,5062.053670743506 5032.860679774996,5062.053670743505 5029.770509831246,5071.564235906457 5021.680339887497,5065.686383383531 5013.590169943748,5059.808530860606 5005.499999999998,5065.6863833835305 5002.409830056249,5056.1758182205795 4999.319660112501,5046.6652530576275 4989.319660112501,5046.665253057627" stroke="black" stroke-linecap="round" stroke-width="1" /><polyline clip-path="url(#border_clip)" fill="none" points="4989.319660112501,5046.665253057627 4992.40983005625,5037.154687894676 4995.5,5027.644122731725 4987.409830056251,5021.766270208799 4995.500000000001,5015.888417685875 5003.590169943751,5010.010565162951 5000.500000000002,5000.499999999999" stroke="black" stroke-linecap="round" stroke-width="1" /></svg>