<?xml version="1.0" encoding="UTF-8"?>
<svg width="1e4px" height="1e4px" baseProfile="full" version="1.1" viewBox="4987.4 4991 78.541 80.575" xmlns="http://www.w3.org/2000/svg">
<defs>
<clipPath id="a">
<rect width="1e4" height="1e4"/>
</clipPath>
</defs>
<polyline points="5000.5 5000.5 5010.5 5000.5 5020.5 5000.5 5023.6 4991 5031.7 4996.9 5039.8 5002.7 5047.9 4996.9 5051 5006.4 5054 5015.9 5064 5015.9 5061 5025.4 5057.9 5034.9 5066 5040.8 5057.9 5046.7 5049.8 5052.5 5052.9 5062.1 5042.9 5062.1 5032.9 5062.1 5029.8 5071.6 5021.7 5065.7 5013.6 5059.8 5005.5 5065.7 5002.4 5056.2 4999.3 5046.7 4989.3 5046.7 4992.4 5037.2 4995.5 5027.6 4987.4 5021.8 4995.5 5015.9 5003.6 5010 5000.5 5000.5 5010.5 5000.5 5020.5 5000.5 5023.6 4991 5031.7 4996.9 5039.8 5002.7 5047.9 4996.9 5051 5006.4 5054 5015.9 5064 5015.9 5061 5025.4 5057.9 5034.9 5066 5040.8" clip-path="url(#a)" fill="none" stroke="#000" stroke-linecap="round"/>
<polyline points="5066 5040.8 5057.9 5046.7 5049.8 5052.5 5052.9 5062.1 5042.9 5062.1 5032.9 5062.1 5029.8 5071.6 5021.7 5065.7 5013.6 5059.8 5005.5 5065.7 5002.4 5056.2 4999.3 5046.7 4989.3 5046.7 4992.4 5037.2 4995.5 5027.6 4987.4 5021.8 4995.5 5015.9 5003.6 5010 5000.5 5000.5 5010.5 5000.5 5020.5 5000.5 5023.6 4991 5031.7 4996.9 5039.8 5002.7 5047.9 4996.9 5051 5006.4 5054 5015.9 5064 5015.9 5061 5025.4 5057.9 5034.9 5066 5040.8 5057.9 5046.7 5049.8 5052.5 5052.9 5062.1 5042.9 5062.1 5032.9 5062.1 5029.8 5071.6 5021.7 5065.7 5013.6 5059.8 5005.5 5065.7 5002.4 5056.2 4999.3 5046.7 4989.3 5046.7" clip-path="url(#a)" fill="none" stroke="#000" stroke-linecap="round"/>
<polyline points="4989.3 5046.7 4992.4 5037.2 4995.5 5027.6 4987.4 5021.8 4995.5 5015.9 5003.6 5010 5000.5 5000.5 5010.5 5000.5 5020.5 5000.5 5023.6 4991 5031.7 4996.9 5039.8 5002.7 5047.9 4996.9 5051 5006.4 5054 5015.9 5064 5015.9 5061 5025.4 5057.9 5034.9 5066 5040.8 5057.9 5046.7 5049.8 5052.5 5052.9 5062.1 5042.9 5062.1 5032.9 5062.1 5029.8 5071.6 5021.7 5065.7 5013.6 5059.8 5005.5 5065.7 5002.4 5056.2 4999.3 5046.7 4989.3 5046.7 4992.4 5037.2 4995.5 5027.6 4987.4 5021.8 4995.5 5015.9 5003.6 5010 5000.5 5000.5 5010.5 5000.5 5020.5 5000.5 5023.6 4991 5031.7 4996.9 5039.8 5002.7 5047.9 4996.9" clip-path="url(#a)" fill="none" stroke="#000" stroke-linecap="round"/>
<polyline points="5047.9 4996.9 5051 5006.4 5054 5015.9 5064 5015.9 5061 5025.4 5057.9 5034.9 5066 5040.8 5057.9 5046.7 5049.8 5052.5 5052.9 5062.1 5042.9 5062.1 5032.9 5062.1 5029.8 5071.6 5021.7 5065.7 5013.6 5059.8 5005.5 5065.7 5002.4 5056.2 4999.3 5046.7 4989.3 5046.7 4992.4 5037.2 4995.5 5027.6 4987.4 5021.8 4995.5 5015.9 5003.6 5010 5000.5 5000.5 5010.5 5000.5 5020.5 5000.5 5023.6 4991 5031.7 4996.9 5039.8 5002.7 5047.9 4996.9 5051 5006.4 5054 5015.9 5064 5015.9 5061 5025.4 5057.9 5034.9 5066 5040.8 5057.9 5046.7 5049.8 5052.5 5052.9 5062.1 5042.9 5062.1 5032.9 5062.1 5029.8 5071.6" clip-path="url(#a)" fill="none" stroke="#000" stroke-linecap="round"/>
<polyline points="5029.8 5071.6 5021.7 5065.7 5013.6 5059.8 5005.5 5065.7 5002.4 5056.2 4999.3 5046.7 4989.3 5046.7 4992.4 5037.2 4995.5 5027.6 4987.4 5021.8 4995.5 5015.9 5003.6 5010 5000.5 5000.5 5010.5 5000.5 5020.5 5000.5 5023.6 4991 5031.7 4996.9 5039.8 5002.7 5047.9 4996.9 5051 5006.4 5054 5015.9 5064 5015.9 5061 5025.4 5057.9 5034.9 5066 5040.8 5057.9 5046.7 5049.8 5052.5 5052.9 5062.1 5042.9 5062.1 5032.9 5062.1 5029.8 5071.6 5021.7 5065.7 5013.6 5059.8 5005.5 5065.7 5002.4 5056.2 4999.3 5046.7 4989.3 5046.7 4992.4 5037.2 4995.5 5027.6 4987.4 5021.8 4995.5 5015.9 5003.6 5010 5000.5 5000.5" clip-path="url(#a)" fill="none" stroke="#000" stroke-linecap="round"/>
<polyline points="5000.5 5000.5 5010.5 5000.5 5020.5 5000.5 5023.6 4991 5031.7 4996.9 5039.8 5002.7 5047.9 4996.9 5051 5006.4 5054 5015.9 5064 5015.9 5061 5025.4 5057.9 5034.9 5066 5040.8 5057.9 5046.7 5049.8 5052.5 5052.9 5062.1 5042.9 5062.1 5032.9 5062.1 5029.8 5071.6 5021.7 5065.7 5013.6 5059.8 5005.5 5065.7 5002.4 5056.2 4999.3 5046.7 4989.3 5046.7 4992.4 5037.2 4995.5 5027.6 4987.4 5021.8 4995.5 5015.9 5003.6 5010 5000.5 5000.5 5010.5 5000.5 5020.5 5000.5 5023.6 4991 5031.7 4996.9 5039.8 5002.7 5047.9 4996.9 5051 5006.4 5054 5015.9 5064 5015.9 5061 5025.4 5057.9 5034.9 5066 5040.8" clip-path="url(#a)" fill="none" stroke="#000" stroke-linecap="round"/>
<polyline points="5066 5040.8 5057.9 5046.7 5049.8 5052.5 5052.9 5062.1 5042.9 5062.1 5032.9 5062.1 5029.8 5071.6 5021.7 5065.7 5013.6 5059.8 5005.5 5065.7 5002.4 5056.2 4999.3 5046.7 4989.3 5046.7 4992.4 5037.2 4995.5 5027.6 4987.4 5021.8 4995.5 5015.9 5003.6 5010 5000.5 5000.5 5010.5 5000.5 5020.5 5000.5 5023.6 4991 5031.7 4996.9 5039.8 5002.7 5047.9 4996.9 5051 5006.4 5054 5015.9 5064 5015.9 5061 5025.4 5057.9 5034.9 5066 5040.8 5057.9 5046.7 5049.8 5052.5 5052.9 5062.1 5042.9 5062.1 5032.9 5062.1 5029.8 5071.6 5021.7 5065.7 5013.6 5059.8 5005.5 5065.7 5002.4 5056.2 4999.3 5046.7 4989.3 5046.7" clip-path="url(#a)" fill="none" stroke="#000" stroke-linecap="round"/>
<polyline points="4989.3 5046.7 4992.4 5037.2 4995.5 5027.6 4987.4 5021.8 4995.5 5015.9 5003.6 5010 5000.5 5000.5 5010.5 5000.5 5020.5 5000.5 5023.6 4991 5031.7 4996.9 5039.8 5002.7 5047.9 4996.9 5051 5006.4 5054 5015.9 5064 5015.9 5061 5025.4 5057.9 5034.9 5066 5040.8 5057.9 5046.7 5049.8 5052.5 5052.9 5062.1 5042.9 5062.1 5032.9 5062.1 5029.8 5071.6 5021.7 5065.7 5013.6 5059.8 5005.5 5065.7 5002.4 5056.2 4999.3 5046.7 4989.3 5046.7 4992.4 5037.2 4995.5 5027.6 4987.4 5021.8 4995.5 5015.9 5003.6 5010 5000.5 5000.5 5010.5 5000.5 5020.5 5000.5 5023.6 4991 5031.7 4996.9 5039.8 5002.7 5047.9 4996.9" clip-path="url(#a)" fill="none" stroke="#000" stroke-linecap="round"/>
<polyline points="5047.9 4996.9 5051 5006.4 5054 5015.9 5064 5015.9 5061 5025.4 5057.9 5034.9 5066 5040.8 5057.9 5046.7 5049.8 5052.5 5052.9 5062.1 5042.9 5062.1 5032.9 5062.1 5029.8 5071.6 5021.7 5065.7 5013.6 5059.8 5005.5 5065.7 5002.4 5056.2 4999.3 5046.7 4989.3 5046.7 4992.4 5037.2 4995.5 5027.6 4987.4 5021.8 4995.5 5015.9 5003.6 5010 5000.5 5000.5 5010.5 5000.5 5020.5 5000.5 5023.6 4991 5031.7 4996.9 5039.8 5002.7 5047.9 4996.9 5051 5006.4 5054 5015.9 5064 5015.9 5061 5025.4 5057.9 5034.9 5066 5040.8 5057.9 5046.7 5049.8 5052.5 5052.9 5062.1 5042.9 5062.1 5032.9 5062.1 5029.8 5071.6" clip-path="url(#a)" fill="none" stroke="#000" stroke-linecap="round"/>
<polyline points="5029.8 5071.6 5021.7 5065.7 5013.6 5059.8 5005.5 5065.7 5002.4 5056.2 4999.3 5046.7 4989.3 5046.7 4992.4 5037.2 4995.5 5027.6 4987.4 5021.8 4995.5 5015.9 5003.6 5010 5000.5 5000.5 5010.5 5000.5 5020.5 5000.5 5023.6 4991 5031.7 4996.9 5039.8 5002.7 5047.9 4996.9 5051 5006.4 5054 5015.9 5064 5015.9 5061 5025.4 5057.9 5034.9 5066 5040.8 5057.9 5046.7 5049.8 5052.5 5052.9 5062.1 5042.9 5062.1 5032.9 5062.1 5029.8 5071.6 5021.7 5065.7 5013.6 5059.8 5005.5 5065.7 5002.4 5056.2 4999.3 5046.7 4989.3 5046.7 4992.4 5037.2 4995.5 5027.6 4987.4 5021.8 4995.5 5015.9 5003.6 5010 5000.5 5000.5" clip-path="url(#a)" fill="none" stroke="#000" stroke-linecap="round"/>
<polyline points="5000.5 5000.5 5010.5 5000.5 5020.5 5000.5 5023.6 4991 5031.7 4996.9 5039.8 5002.7 5047.9 4996.9 5051 5006.4 5054 5015.9 5064 5015.9 5061 5025.4 5057.9 5034.9 5066 5040.8 5057.9 5046.7 5049.8 5052.5 5052.9 5062.1 5042.9 5062.1 5032.9 5062.1 5029.8 5071.6 5021.7 5065.7 5013.6 5059.8 5005.5 5065.7 5002.4 5056.2 4999.3 5046.7 4989.3 5046.7 4992.4 5037.2 4995.5 5027.6 4987.4 5021.8 4995.5 5015.9 5003.6 5010 5000.5 5000.5 5010.5 5000.5 5020.5 5000.5 5023.6 4991 5031.7 4996.9 5039.8 5002.7 5047.9 4996.9 5051 5006.4 5054 5015.9 5064 5015.9 5061 5025.4 5057.9 5034.9 5066 5040.8" clip-path="url(#a)" fill="none" stroke="#000" stroke-linecap="round"/>
<polyline points="5066 5040.8 5057.9 5046.7 5049.8 5052.5 5052.9 5062.1 5042.9 5062.1 5032.9 5062.1 5029.8 5071.6 5021.7 5065.7 5013.6 5059.8 5005.5 5065.7 5002.4 5056.2 4999.3 5046.7 4989.3 5046.7 4992.4 5037.2 4995.5 5027.6 4987.4 5021.8 4995.5 5015.9 5003.6 5010 5000.5 5000.5 5010.5 5000.5 5020.5 5000.5 5023.6 4991 5031.7 4996.9 5039.8 5002.7 5047.9 4996.9 5051 5006.4 5054 5015.9 5064 5015.9 5061 5025.4 5057.9 5034.9 5066 5040.8 5057.9 5046.7 5049.8 5052.5 5052.9 5062.1 5042.9 5062.1 5032.9 5062.1 5029.8 5071.6 5021.7 5065.7 5013.6 5059.8 5005.5 5065.7 5002.4 5056.2 4999.3 5046.7 4989.3 5046.7" clip-path="url(#a)" fill="none" stroke="#000" stroke-linecap="round"/>
<polyline points="4989.3 5046.7 4992.4 5037.2 4995.5 5027.6 4987.4 5021.8 4995.5 5015.9 5003.6 5010 5000.5 5000.5 5010.5 5000.5 5020.5 5000.5 5023.6 4991 5031.7 4996.9 5039.8 5002.7 5047.9 4996.9 5051 5006.4 5054 5015.9 5064 5015.9 5061 5025.4 5057.9 5034.9 5066 5040.8 5057.9 5046.7 5049.8 5052.5 5052.9 5062.1 5042.9 5062.1 5032.9 5062.1 5029.8 5071.6 5021.7 5065.7 5013.6 5059.8 5005.5 5065.7 5002.4 5056.2 4999.3 5046.7 4989.3 5046.7 4992.4 5037.2 4995.5 5027.6 4987.4 5021.8 4995.5 5015.9 5003.6 5010 5000.5 5000.5 5010.5 5000.5 5020.5 5000.5 5023.6 4991 5031.7 4996.9 5039.8 5002.7 5047.9 4996.9" clip-path="url(#a)" fill="none" stroke="#000" stroke-linecap="round"/>
<polyline points="5047.9 4996.9 5051 5006.4 5054 5015.9 5064 5015.9 5061 5025.4 5057.9 5034.9 5066 5040.8 5057.9 5046.7 5049.8 5052.5 5052.9 5062.1 5042.9 5062.1 5032.9 5062.1 5029.8 5071.6 5021.7 5065.7 5013.6 5059.8 5005.5 5065.7 5002.4 5056.2 4999.3 5046.7 4989.3 5046.7 4992.4 5037.2 4995.5 5027.6 4987.4 5021.8 4995.5 5015.9 5003.6 5010 5000.5 5000.5 5010.5 5000.5 5020.5 5000.5 5023.6 4991 5031.7 4996.9 5039.8 5002.7 5047.9 4996.9 5051 5006.4 5054 5015.9 5064 5015.9 5061 5025.4 5057.9 5034.9 5066 5040.8 5057.9 5046.7 5049.8 5052.5 5052.9 5062.1 5042.9 5062.1 5032.9 5062.1 5029.8 5071.6" clip-path="url(#a)" fill="none" stroke="#000" stroke-linecap="round"/>
<polyline points="5029.8 5071.6 5021.7 5065.7 5013.6 5059.8 5005.5 5065.7 5002.4 5056.2 4999.3 5046.7 4989.3 5046.7 4992.4 5037.2 4995.5 5027.6 4987.4 5021.8 4995.5 5015.9 5003.6 5010 5000.5 5000.5 5010.5 5000.5 5020.5 5000.5 5023.6 4991 5031.7 4996.9 5039.8 5002.7 5047.9 4996.9 5051 5006.4 5054 5015.9 5064 5015.9 5061 5025.4 5057.9 5034.9 5066 5040.8 5057.9 5046.7 5049.8 5052.5 5052.9 5062.1 5042.9 5062.1 5032.9 5062.1 5029.8 5071.6 5021.7 5065.7 5013.6 5059.8 5005.5 5065.7 5002.4 5056.2 4999.3 5046.7 4989.3 5046.7 4992.4 5037.2 4995.5 5027.6 4987.4 5021.8 4995.5 5015.9 5003.6 5010 5000.5 5000.5" clip-path="url(#a)" fill="none" stroke="#000" stroke-linecap="round"/>
<polyline points="5000.5 5000.5 5010.5 5000.5 5020.5 5000.5 5023.6 4991 5031.7 4996.9 5039.8 5002.7 5047.9 4996.9 5051 5006.4 5054 5015.9 5064 5015.9 5061 5025.4 5057.9 5034.9 5066 5040.8 5057.9 5046.7 5049.8 5052.5 5052.9 5062.1 5042.9 5062.1 5032.9 5062.1 5029.8 5071.6 5021.7 5065.7 5013.6 5059.8 5005.5 5065.7 5002.4 5056.2 4999.3 5046.7 4989.3 5046.7 4992.4 5037.2 4995.5 5027.6 4987.4 5021.8 4995.5 5015.9 5003.6 5010 5000.5 5000.5 5010.5 5000.5 5020.5 5000.5 5023.6 4991 5031.7 4996.9 5039.8 5002.7 5047.9 4996.9 5051 5006.4 5054 5015.9 5064 5015.9 5061 5025.4 5057.9 5034.9 5066 5040.8" clip-path="url(#a)" fill="none" stroke="#000" stroke-linecap="round"/>
<polyline points="5066 5040.8 5057.9 5046.7 5049.8 5052.5 5052.9 5062.1 5042.9 5062.1 5032.9 5062.1 5029.8 5071.6 5021.7 5065.7 5013.6 5059.8 5005.5 5065.7 5002.4 5056.2 4999.3 5046.7 4989.3 5046.7 4992.4 5037.2 4995.5 5027.6 4987.4 5021.8 4995.5 5015.9 5003.6 5010 5000.5 5000.5 5010.5 5000.5 5020.5 5000.5 5023.6 4991 5031.7 4996.9 5039.8 5002.7 5047.9 4996.9 5051 5006.4 5054 5015.9 5064 5015.9 5061 5025.4 5057.9 5034.9 5066 5040.8 5057.9 5046.7 5049.8 5052.5 5052.9 5062.1 5042.9 5062.1 5032.9 5062.1 5029.8 5071.6 5021.7 5065.7 5013.6 5059.8 5005.5 5065.7 5002.4 5056.2 4999.3 5046.7 4989.3 5046.7" clip-path="url(#a)" fill="none" stroke="#000" stroke-linecap="round"/>
<polyline points="4989.3 5046.7 4992.4 5037.2 4995.5 5027.6 4987.4 5021.8 4995.5 5015.9 5003.6 5010 5000.5 5000.5" clip-path="url(#a)" fill="none" stroke="#000" stroke-linecap="round"/>
</svg>
