<?xml version="1.0" encoding="utf-8" ?>
<svg baseProfile="full" height="1000px" version="1.1" width="1000px" xmlns="http://www.w3.org/2000/svg" xmlns:ev="http://www.w3.org/2001/xml-events" xmlns:xlink="http://www.w3.org/1999/xlink"><defs><clipPath id="border_clip"><rect height="1000" width="1000" x="0" y="0" /></clipPath></defs><polyline clip-path="url(#border_clip)" fill="none" points="500.5,500.5 510.5,500.5 513.5901699437495,490.98943483704846 521.6803398874989,496.8672873599732 529.7705098312484,502.74513988289794 537.8606797749978,496.8672873599732 540.9508497187473,506.37785252292474 544.0410196624969,515.8884176858762 554.0410196624969,515.8884176858763 550.9508497187473,525.3989828488278 547.8606797749978,534.9095480117794 555.9508497187473,540.787400534704 547.8606797749978,546.6652530576288 539.7705098312484,552.5431055805535 542.8606797749978,562.0536707435051 532.8606797749978,562.0536707435051 522.8606797749978,562.0536707435051 519.7705098312483,571.5642359064566 511.6803398874989,565.6863833835318 503.59016994374946,559.8085308606071 495.49999999999994,565.6863833835318 492.4098300562505,556.1758182205803 489.319660112501,546.6652530576288 479.319660112501,546.6652530576288 482.40983005625054,537.1546878946772 485.5,527.6441227317257 477.40983005625054,521.766270208801 485.50000000000006,515.8884176858762 493.5901699437495,510.01056516295154 490.50000000000006,500.5 500.50000000000006,500.5 510.50000000000006,500.5 513.5901699437495,490.98943483704846 521.680339887499,496.86728735997326 529.7705098312484,502.745139882898 537.860679774998,496.86728735997326 540.9508497187473,506.3778525229248 544.0410196624969,515.8884176858763 554.0410196624969,515.8884176858763 550.9508497187473,525.3989828488279 547.8606797749978,534.9095480117794 555.9508497187473,540.7874005347041 547.8606797749978,546.6652530576289" stroke="black" stroke-linecap="round" stroke-width="1" /><polyline clip-path="url(#border_clip)" fill="none" points="547.8606797749978,546.6652530576289 539.7705098312483,552.5431055805536 542.8606797749978,562.0536707435051 532.8606797749978,562.0536707435051 522.8606797749978,562.0536707435051 519.7705098312483,571.5642359064566 511.68033988749886,565.6863833835318 503.5901699437494,559.8085308606071 495.4999999999999,565.6863833835317 492.4098300562505,556.1758182205803 489.319660112501,546.6652530576287 479.319660112501,546.6652530576287 482.40983005625054,537.1546878946772 485.5,527.6441227317256 477.4098300562506,521.7662702088008 485.50000000000006,515.8884176858762 493.5901699437496,510.0105651629515 490.5000000000001,500.49999999999994 500.5000000000001,500.5 510.5000000000001,500.5 513.5901699437496,490.98943483704846 521.680339887499,496.86728735997326 529.7705098312485,502.745139882898 537.860679774998,496.8672873599733 540.9508497187475,506.37785252292485 544.0410196624969,515.8884176858763 554.0410196624969,515.8884176858764 550.9508497187473,525.3989828488279 547.8606797749978,534.9095480117794 555.9508497187472,540.7874005347043 547.8606797749978,546.6652530576289 539.7705098312483,552.5431055805536 542.8606797749977,562.0536707435051 532.8606797749977,562.0536707435051 522.8606797749977,562.0536707435051 519.7705098312482,571.5642359064566 511.6803398874988,565.6863833835318 503.59016994374934,559.808530860607 495.49999999999983,565.6863833835317 492.4098300562504,556.1758182205801 489.31966011250097,546.6652530576287 479.319660112501,546.6652530576285 482.40983005625054,537.1546878946771" stroke="black" stroke-linecap="round" stroke-width="1" /><polyline clip-path="url(#border_clip)" fill="none" points="482.40983005625054,537.1546878946771 485.50000000000006,527.6441227317256 477.4098300562506,521.7662702088008 485.5000000000001,515.8884176858761 493.59016994374963,510.0105651629515 490.50000000000017,500.4999999999999 500.50000000000017,500.49999999999994 510.50000000000017,500.5 513.5901699437496,490.9894348370485 521.6803398874991,496.86728735997326 529.7705098312485,502.74513988289806 537.8606797749981,496.8672873599734 540.9508497187475,506.3778525229249 544.0410196624969,515.8884176858764 554.0410196624969,515.8884176858766 550.9508497187473,525.398982848828 547.8606797749978,534.9095480117795 555.9508497187472,540.7874005347043 547.8606797749977,546.665253057629 539.7705098312482,552.5431055805536 542.8606797749976,562.0536707435052 532.8606797749976,562.0536707435051 522.8606797749977,562.0536707435051 519.7705098312481,571.5642359064566 511.6803398874987,565.6863833835318 503.5901699437493,559.808530860607 495.4999999999998,565.6863833835317 492.40983005625037,556.1758182205801 489.31966011250097,546.6652530576287 479.31966011250097,546.6652530576285 482.40983005625054,537.1546878946771 485.50000000000006,527.6441227317255 477.40983005625066,521.7662702088007 485.5000000000001,515.8884176858761 493.59016994374963,510.0105651629514 490.5000000000002,500.4999999999999 500.5000000000002,500.49999999999994 510.5000000000002,500.5 513.5901699437497,490.9894348370485 521.6803398874991,496.8672873599733 529.7705098312485,502.74513988289806 537.8606797749981,496.86728735997343 540.9508497187475,506.37785252292497" stroke="black" stroke-linecap="round" stroke-width="1" /><polyline clip-path="url(#border_clip)" fill="none" points="540.9508497187475,506.37785252292497 544.0410196624969,515.8884176858766 554.0410196624969,515.8884176858766 550.9508497187473,525.398982848828 547.8606797749978,534.9095480117796 555.9508497187472,540.7874005347044 547.8606797749977,546.665253057629 539.7705098312482,552.5431055805537 542.8606797749976,562.0536707435052 532.8606797749976,562.0536707435052 522.8606797749976,562.0536707435051 519.7705098312481,571.5642359064566 511.68033988749863,565.6863833835318 503.59016994374923,559.808530860607 495.4999999999997,565.6863833835316 492.4098300562503,556.1758182205801 489.3196601125009,546.6652530576285 479.31966011250097,546.6652530576284 482.4098300562505,537.154687894677 485.50000000000006,527.6441227317255 477.4098300562506,521.7662702088007 485.50000000000017,515.888417685876 493.5901699437497,510.01056516295137 490.5000000000003,500.49999999999983 500.5000000000003,500.4999999999999 510.5000000000002,500.5 513.5901699437499,490.9894348370485 521.6803398874993,496.8672873599733 529.7705098312487,502.7451398828981 537.8606797749982,496.86728735997343 540.9508497187476,506.377852522925 544.0410196624969,515.8884176858766 554.0410196624969,515.8884176858767 550.9508497187473,525.3989828488282 547.8606797749977,534.9095480117796 555.9508497187471,540.7874005347045 547.8606797749976,546.6652530576291 539.7705098312481,552.5431055805537 542.8606797749975,562.0536707435053 532.8606797749975,562.0536707435052 522.8606797749975,562.0536707435051 519.770509831248,571.5642359064566 511.6803398874986,565.6863833835317" stroke="black" stroke-linecap="round" stroke-width="1" /><polyline clip-path="url(#border_clip)" fill="none" points="511.6803398874986,565.6863833835317 503.5901699437492,559.808530860607 495.49999999999966,565.6863833835316 492.40983005625026,556.17581822058 489.3196601125009,546.6652530576284 479.3196601125009,546.6652530576284 482.4098300562505,537.154687894677 485.50000000000006,527.6441227317254 477.40983005625066,521.7662702088006 485.50000000000017,515.888417685876 493.5901699437497,510.0105651629513 490.50000000000034,500.4999999999998 500.50000000000034,500.4999999999999 510.5000000000003,500.5 513.5901699437499,490.9894348370485 521.6803398874993,496.8672873599733 529.7705098312487,502.7451398828981 537.8606797749982,496.8672873599735 540.9508497187476,506.377852522925 544.0410196624969,515.8884176858766 554.0410196624969,515.8884176858767 550.9508497187473,525.3989828488282 547.8606797749977,534.9095480117796 555.9508497187471,540.7874005347045 547.8606797749976,546.6652530576291 539.7705098312481,552.5431055805537 542.8606797749975,562.0536707435053 532.8606797749975,562.0536707435052 522.8606797749975,562.0536707435051 519.7705098312479,571.5642359064566 511.6803398874985,565.6863833835317 503.5901699437491,559.8085308606069 495.4999999999996,565.6863833835315 492.40983005625026,556.17581822058 489.3196601125009,546.6652530576284 479.3196601125009,546.6652530576283 482.4098300562505,537.1546878946768 485.50000000000006,527.6441227317254 477.4098300562507,521.7662702088005 485.5000000000002,515.8884176858759 493.59016994374974,510.0105651629513 490.5000000000004,500.4999999999997 500.5000000000004,500.4999999999999" stroke="black" stroke-linecap="round" stroke-width="1" /><polyline clip-path="url(#border_clip)" fill="none" points="500.5000000000004,500.4999999999999 510.5000000000004,500.5 513.59016994375,490.9894348370485 521.6803398874994,496.8672873599733 529.7705098312488,502.7451398828982 537.8606797749983,496.86728735997355 540.9508497187476,506.3778525229251 544.041019662497,515.8884176858767 554.041019662497,515.8884176858768 550.9508497187473,525.3989828488283 547.8606797749977,534.9095480117797 555.9508497187471,540.7874005347046 547.8606797749976,546.6652530576292 539.7705098312481,552.5431055805537 542.8606797749974,562.0536707435053 532.8606797749974,562.0536707435052 522.8606797749974,562.0536707435051 519.7705098312479,571.5642359064566 511.68033988749846,565.6863833835317 503.59016994374906,559.8085308606069 495.49999999999955,565.6863833835315 492.4098300562502,556.1758182205799 489.31966011250086,546.6652530576284 479.31966011250086,546.6652530576283 482.4098300562505,537.1546878946768 485.50000000000006,527.6441227317254 477.4098300562507,521.7662702088005 485.5000000000002,515.8884176858759 493.5901699437498,510.01056516295125 490.50000000000045,500.4999999999997 500.50000000000045,500.49999999999983 510.5000000000004,500.5 513.59016994375,490.9894348370485 521.6803398874994,496.8672873599734 529.7705098312488,502.7451398828982 537.8606797749983,496.8672873599736 540.9508497187476,506.37785252292514 544.041019662497,515.8884176858767 554.041019662497,515.8884176858769 550.9508497187473,525.3989828488284 547.8606797749977,534.9095480117799 555.9508497187471,540.7874005347046 547.8606797749976,546.6652530576292" stroke="black" stroke-linecap="round" stroke-width="1" /><polyline clip-path="url(#border_clip)" fill="none" points="547.8606797749976,546.6652530576292 539.770509831248,552.5431055805539 542.8606797749974,562.0536707435054 532.8606797749974,562.0536707435052 522.8606797749974,562.0536707435051 519.7705098312478,571.5642359064566 511.6803398874984,565.6863833835317 503.59016994374906,559.8085308606069 495.4999999999995,565.6863833835315 492.40983005625014,556.1758182205799 489.31966011250086,546.6652530576283 479.31966011250086,546.6652530576282 482.4098300562505,537.1546878946767 485.5000000000001,527.6441227317252 477.4098300562507,521.7662702088004 485.5000000000003,515.8884176858759 493.59016994374986,510.01056516295125 490.5000000000005,500.49999999999966 500.5000000000005,500.49999999999983 510.50000000000045,500.5 513.5901699437501,490.9894348370485 521.6803398874995,496.8672873599734 529.7705098312488,502.74513988289823 537.8606797749984,496.8672873599736 540.9508497187477,506.3778525229252 544.041019662497,515.8884176858768 554.041019662497,515.8884176858769 550.9508497187473,525.3989828488284 547.8606797749977,534.9095480117799 555.9508497187471,540.7874005347047 547.8606797749975,546.6652530576292 539.770509831248,552.5431055805539 542.8606797749973,562.0536707435054 532.8606797749973,562.0536707435052 522.8606797749974,562.0536707435051 519.7705098312478,571.5642359064566 511.68033988749835,565.6863833835317 503.590169943749,559.8085308606069 495.49999999999943,565.6863833835314 492.40983005625014,556.1758182205799 489.31966011250086,546.6652530576283 479.31966011250086,546.6652530576281 482.4098300562505,537.1546878946767" stroke="black" stroke-linecap="round" stroke-width="1" /><polyline clip-path="url(#border_clip)" fill="none" points="482.4098300562505,537.1546878946767 485.5000000000001,527.6441227317252 477.40983005625077,521.7662702088004 485.50000000000034,515.8884176858758 493.59016994374986,510.0105651629512 490.50000000000057,500.49999999999966 500.50000000000057,500.49999999999983 510.5000000000005,500.5 513.5901699437502,490.9894348370485 521.6803398874995,496.8672873599734 529.7705098312489,502.74513988289823 537.8606797749984,496.86728735997366 540.9508497187477,506.37785252292525 544.041019662497,515.8884176858768 554.041019662497,515.888417685877 550.9508497187473,525.3989828488285 547.8606797749977,534.9095480117799 555.950849718747,540.7874005347047 547.8606797749975,546.6652530576293 539.770509831248,552.5431055805539 542.8606797749973,562.0536707435054 532.8606797749973,562.0536707435053 522.8606797749973,562.0536707435051 519.7705098312476,571.5642359064566 511.6803398874983,565.6863833835316 503.59016994374895,559.8085308606068 495.4999999999994,565.6863833835314 492.4098300562501,556.1758182205798 489.3196601125008,546.6652530576282 479.31966011250086,546.6652530576281 482.4098300562505,537.1546878946766 485.5000000000001,527.6441227317251 477.40983005625077,521.7662702088003 485.50000000000034,515.8884176858758 493.5901699437499,510.01056516295114 490.5000000000006,500.4999999999996 500.5000000000006,500.4999999999998 510.50000000000057,500.49999999999994 513.5901699437502,490.9894348370485 521.6803398874996,496.8672873599734 529.7705098312489,502.7451398828983 537.8606797749985,496.8672873599737 540.9508497187478,506.3778525229253" stroke="black" stroke-linecap="round" stroke-width="1" /><polyline clip-path="url(#border_clip)" fill="none" points="540.9508497187478,506.3778525229253 544.041019662497,515.8884176858769 554.041019662497,515.888417685877 550.9508497187473,525.3989828488285 547.8606797749977,534.90954801178 555.950849718747,540.7874005347048 547.8606797749974,546.6652530576293 539.7705098312479,552.543105580554 542.8606797749972,562.0536707435054 532.8606797749972,562.0536707435053 522.8606797749972,562.0536707435051 519.7705098312475,571.5642359064566 511.68033988749823,565.6863833835316 503.5901699437489,559.8085308606068 495.4999999999993,565.6863833835313 492.40983005625003,556.1758182205797 489.31966011250074,546.6652530576282 479.3196601125008,546.665253057628 482.4098300562505,537.1546878946765 485.5000000000001,527.644122731725 477.4098300562508,521.7662702088002 485.5000000000004,515.8884176858757 493.59016994374997,510.0105651629511 490.5000000000007,500.49999999999955 500.5000000000006,500.4999999999998 510.5000000000006,500.49999999999994 513.5901699437503,490.9894348370485 521.6803398874996,496.8672873599734 529.7705098312489,502.7451398828983 537.8606797749985,496.8672873599738 540.9508497187478,506.3778525229253 544.041019662497,515.8884176858769 554.041019662497,515.8884176858771 550.9508497187473,525.3989828488286 547.8606797749976,534.90954801178 555.950849718747,540.7874005347048 547.8606797749974,546.6652530576295 539.7705098312479,552.543105580554 542.860679774997,562.0536707435056 532.8606797749972,562.0536707435053 522.8606797749972,562.0536707435051 519.7705098312474,571.5642359064565 511.6803398874981,565.6863833835316" stroke="black" stroke-linecap="round" stroke-width="1" /><polyline clip-path="url(#border_clip)" fill="none" points="511.6803398874981,565.6863833835316 503.59016994374883,559.8085308606067 495.49999999999926,565.6863833835312 492.40983005625,556.1758182205797 489.31966011250074,546.6652530576281 479.3196601125008,546.6652530576279 482.4098300562505,537.1546878946764 485.50000000000017,527.644122731725 477.4098300562508,521.7662702088 485.5000000000004,515.8884176858755 493.59016994374997,510.010565162951 490.50000000000074,500.4999999999995 500.50000000000074,500.4999999999997 510.5000000000007,500.49999999999994 513.5901699437503,490.9894348370485 521.6803398874997,496.8672873599734 529.770509831249,502.7451398828983 537.8606797749985,496.8672873599738 540.9508497187478,506.37785252292537 544.0410196624971,515.8884176858769 554.041019662497,515.8884176858771 550.9508497187473,525.3989828488286 547.8606797749976,534.90954801178 555.9508497187469,540.787400534705 547.8606797749974,546.6652530576295 539.7705098312478,552.543105580554 542.860679774997,562.0536707435056 532.860679774997,562.0536707435053 522.860679774997,562.0536707435051 519.7705098312474,571.5642359064565 511.68033988749806,565.6863833835316 503.5901699437488,559.8085308606067 495.4999999999992,565.6863833835312 492.40983005625,556.1758182205796 489.31966011250074,546.665253057628 479.31966011250074,546.6652530576278 482.4098300562505,537.1546878946764 485.50000000000017,527.6441227317249 477.4098300562509,521.7662702088 485.50000000000045,515.8884176858755 493.59016994375,510.010565162951 490.5000000000008,500.49999999999943 500.5000000000008,500.49999999999966" stroke="black" stroke-linecap="round" stroke-width="1" /><polyline clip-path="url(#border_clip)" fill="none" points="500.5000000000008,500.49999999999966 510.50000000000074,500.49999999999994 513.5901699437504,490.9894348370485 521.6803398874997,496.86728735997343 529.770509831249,502.74513988289834 537.8606797749986,496.86728735997383 540.9508497187479,506.3778525229254 544.0410196624971,515.888417685877 554.0410196624971,515.8884176858772 550.9508497187473,525.3989828488286 547.8606797749976,534.9095480117801 555.9508497187469,540.787400534705 547.8606797749974,546.6652530576295 539.7705098312478,552.543105580554 542.8606797749969,562.0536707435056 532.860679774997,562.0536707435053 522.860679774997,562.0536707435051 519.7705098312473,571.5642359064565 511.680339887498,565.6863833835316 503.5901699437487,559.8085308606067 495.49999999999915,565.6863833835312 492.4098300562499,556.1758182205796 489.3196601125007,546.665253057628 479.31966011250074,546.6652530576278 482.4098300562505,537.1546878946763 485.50000000000017,527.6441227317249 477.4098300562509,521.7662702087999 485.5000000000005,515.8884176858754 493.5901699437501,510.01056516295097 490.50000000000085,500.4999999999994 500.50000000000085,500.49999999999966 510.5000000000008,500.49999999999994 513.5901699437505,490.9894348370485 521.6803398874998,496.86728735997343 529.7705098312491,502.74513988289834 537.8606797749987,496.8672873599739 540.9508497187479,506.3778525229255 544.0410196624971,515.888417685877 554.0410196624971,515.8884176858774 550.9508497187473,525.3989828488287 547.8606797749976,534.9095480117801 555.9508497187469,540.7874005347051 547.8606797749973,546.6652530576296" stroke="black" stroke-linecap="round" stroke-width="1" /><polyline clip-path="url(#border_clip)" fill="none" points="547.8606797749973,546.6652530576296 539.7705098312476,552.5431055805541 542.8606797749969,562.0536707435056 532.8606797749969,562.0536707435053 522.8606797749969,562.0536707435051 519.7705098312472,571.5642359064565 511.68033988749795,565.6863833835315 503.59016994374866,559.8085308606067 495.4999999999991,565.686383383531 492.40983005624986,556.1758182205795 489.3196601125007,546.6652530576279 479.31966011250074,546.6652530576276 482.4098300562504,537.1546878946763 485.50000000000017,527.6441227317248 477.4098300562509,521.7662702087998 485.5000000000005,515.8884176858754 493.5901699437501,510.0105651629509 490.5000000000009,500.4999999999993 500.5000000000009,500.4999999999996 510.50000000000085,500.4999999999999 513.5901699437505,490.98943483704846 521.6803398874998,496.86728735997343 529.7705098312491,502.74513988289834 537.8606797749987,496.8672873599739 540.9508497187479,506.3778525229255 544.0410196624971,515.888417685877 554.0410196624971,515.8884176858774 550.9508497187473,525.3989828488287 547.8606797749976,534.9095480117802 555.9508497187469,540.7874005347051 547.8606797749973,546.6652530576296 539.7705098312476,552.5431055805541 542.8606797749968,562.0536707435057 532.8606797749969,562.0536707435053 522.8606797749969,562.0536707435051 519.7705098312472,571.5642359064565 511.6803398874979,565.6863833835315 503.5901699437486,559.8085308606065 495.49999999999903,565.686383383531 492.4098300562498,556.1758182205795 489.3196601125006,546.6652530576279 479.3196601125007,546.6652530576275 482.4098300562504,537.1546878946762" stroke="black" stroke-linecap="round" stroke-width="1" /><polyline clip-path="url(#border_clip)" fill="none" points="482.4098300562504,537.1546878946762 485.50000000000017,527.6441227317247 477.40983005625094,521.7662702087998 485.50000000000057,515.8884176858753 493.5901699437502,510.01056516295085 490.500000000001,500.49999999999926 500.50000000000097,500.49999999999955 510.5000000000009,500.49999999999983 513.5901699437507,490.98943483704846 521.6803398874999,496.8672873599734 529.7705098312492,502.74513988289834 537.8606797749989,496.8672873599739 540.950849718748,506.3778525229255 544.0410196624972,515.8884176858771 554.0410196624971,515.8884176858774 550.9508497187473,525.3989828488288 547.8606797749976,534.9095480117802 555.9508497187469,540.7874005347052 547.8606797749973,546.6652530576297 539.7705098312476,552.5431055805541 542.8606797749968,562.0536707435057 532.8606797749968,562.0536707435053 522.8606797749968,562.0536707435051 519.7705098312471,571.5642359064565 511.68033988749784,565.6863833835315 503.59016994374855,559.8085308606065 495.4999999999989,565.6863833835309 492.4098300562498,556.1758182205795 489.3196601125006,546.6652530576278 479.3196601125007,546.6652530576275 482.4098300562504,537.154687894676 485.50000000000017,527.6441227317247 477.40983005625094,521.7662702087997 485.50000000000057,515.8884176858753 493.5901699437502,510.0105651629508 490.500000000001,500.4999999999992 500.500000000001,500.49999999999955 510.50000000000097,500.4999999999999 513.5901699437508,490.98943483704846 521.6803398874999,496.86728735997343 529.7705098312492,502.7451398828984 537.8606797749989,496.86728735997394 540.950849718748,506.37785252292554" stroke="black" stroke-linecap="round" stroke-width="1" /><polyline clip-path="url(#border_clip)" fill="none" points="540.950849718748,506.37785252292554 544.0410196624972,515.8884176858771 554.0410196624971,515.8884176858775 550.9508497187473,525.3989828488288 547.8606797749976,534.9095480117803 555.9508497187468,540.7874005347053 547.8606797749972,546.6652530576297 539.7705098312475,552.5431055805541 542.8606797749967,562.0536707435058 532.8606797749967,562.0536707435054 522.8606797749968,562.0536707435051 519.770509831247,571.5642359064565 511.6803398874978,565.6863833835315 503.5901699437485,559.8085308606065 495.49999999999886,565.6863833835309 492.40983005624975,556.1758182205793 489.3196601125006,546.6652530576278 479.3196601125006,546.6652530576274 482.4098300562504,537.154687894676 485.5000000000002,527.6441227317246 477.409830056251,521.7662702087996 485.5000000000006,515.8884176858752 493.59016994375025,510.0105651629508 490.50000000000114,500.49999999999915 500.5000000000011,500.4999999999995 510.500000000001,500.49999999999983 513.5901699437508,490.98943483704846 521.6803398875,496.86728735997343 529.7705098312492,502.74513988289846 537.860679774999,496.867287359974 540.950849718748,506.3778525229256 544.0410196624972,515.8884176858772 554.0410196624971,515.8884176858776 550.9508497187473,525.398982848829 547.8606797749976,534.9095480117803 555.9508497187468,540.7874005347053 547.8606797749972,546.6652530576298 539.7705098312475,552.5431055805542 542.8606797749967,562.0536707435058 532.8606797749967,562.0536707435054 522.8606797749967,562.0536707435051 519.770509831247,571.5642359064565 511.6803398874977,565.6863833835314" stroke="black" stroke-linecap="round" stroke-width="1" /><polyline clip-path="url(#border_clip)" fill="none" points="511.6803398874977,565.6863833835314 503.5901699437485,559.8085308606064 495.4999999999988,565.6863833835309 492.4098300562497,556.1758182205792 489.31966011250057,546.6652530576276 479.3196601125006,546.6652530576273 482.4098300562504,537.1546878946759 485.5000000000002,527.6441227317246 477.409830056251,521.7662702087996 485.5000000000007,515.8884176858752 493.5901699437503,510.01056516295074 490.5000000000012,500.49999999999915 500.50000000000114,500.4999999999995 510.5000000000011,500.4999999999999 513.5901699437509,490.98943483704846 521.6803398875,496.8672873599735 529.7705098312493,502.74513988289846 537.860679774999,496.86728735997406 540.950849718748,506.37785252292565 544.0410196624972,515.8884176858772 554.0410196624972,515.8884176858776 550.9508497187473,525.3989828488291 547.8606797749975,534.9095480117804 555.9508497187468,540.7874005347054 547.8606797749972,546.6652530576298 539.7705098312474,552.5431055805542 542.8606797749966,562.0536707435058 532.8606797749966,562.0536707435054 522.8606797749967,562.0536707435051 519.7705098312468,571.5642359064564 511.68033988749767,565.6863833835314 503.59016994374844,559.8085308606064 495.4999999999988,565.6863833835308 492.4098300562497,556.1758182205792 489.31966011250057,546.6652530576276 479.3196601125006,546.6652530576273 482.4098300562504,537.1546878946758 485.5000000000003,527.6441227317245 477.40983005625105,521.7662702087995 485.5000000000007,515.8884176858751 493.59016994375037,510.0105651629507 490.50000000000125,500.4999999999991 500.5000000000012,500.4999999999995" stroke="black" stroke-linecap="round" stroke-width="1" /><polyline clip-path="url(#border_clip)" fill="none" points="500.5000000000012,500.4999999999995 510.50000000000114,500.4999999999999 513.590169943751,490.9894348370485 521.6803398875002,496.8672873599735 529.7705098312493,502.7451398828985 537.8606797749991,496.8672873599741 540.9508497187481,506.3778525229257 544.0410196624972,515.8884176858774 554.0410196624972,515.8884176858777 550.9508497187473,525.3989828488291 547.8606797749975,534.9095480117804 555.9508497187467,540.7874005347055 547.860679774997,546.6652530576298 539.7705098312474,552.5431055805542 542.8606797749965,562.0536707435058 532.8606797749966,562.0536707435054 522.8606797749966,562.053670743505 519.7705098312468,571.5642359064564 511.6803398874976,565.6863833835314 503.5901699437484,559.8085308606064 495.49999999999875,565.6863833835307 492.40983005624963,556.1758182205791 489.31966011250057,546.6652530576275 479.3196601125006,546.6652530576272 482.4098300562504,537.1546878946758 485.5000000000003,527.6441227317245 477.40983005625105,521.7662702087994 485.50000000000074,515.8884176858751 493.5901699437504,510.0105651629507 490.5000000000013,500.4999999999991 500.50000000000125,500.4999999999995 510.5000000000012,500.4999999999999 513.590169943751,490.9894348370485 521.6803398875003,496.86728735997355 529.7705098312495,502.7451398828985 537.8606797749991,496.86728735997417 540.9508497187481,506.37785252292576 544.0410196624972,515.8884176858774 554.0410196624972,515.8884176858778 550.9508497187473,525.3989828488292 547.8606797749975,534.9095480117805 555.9508497187467,540.7874005347055 547.860679774997,546.6652530576299" stroke="black" stroke-linecap="round" stroke-width="1" /><polyline clip-path="url(#border_clip)" fill="none" points="547.860679774997,546.6652530576299 539.7705098312474,552.5431055805543 542.8606797749965,562.0536707435059 532.8606797749965,562.0536707435054 522.8606797749966,562.0536707435051 519.7705098312467,571.5642359064564 511.68033988749755,565.6863833835314 503.5901699437483,559.8085308606063 495.4999999999987,565.6863833835307 492.40983005624963,556.1758182205791 489.31966011250057,546.6652530576275 479.3196601125006,546.6652530576271 482.4098300562505,537.1546878946757 485.5000000000003,527.6441227317243 477.4098300562511,521.7662702087994 485.5000000000008,515.888417685875 493.5901699437505,510.0105651629506 490.5000000000014,500.49999999999903 500.5000000000013,500.49999999999943 510.50000000000125,500.4999999999999 513.5901699437511,490.9894348370485 521.6803398875003,496.86728735997355 529.7705098312495,502.74513988289857 537.8606797749992,496.8672873599742 540.9508497187483,506.3778525229258 544.0410196624973,515.8884176858775 554.0410196624972,515.8884176858778 550.9508497187473,525.3989828488292 547.8606797749975,534.9095480117805 555.9508497187467,540.7874005347056 547.860679774997,546.6652530576299 539.7705098312473,552.5431055805543 542.8606797749964,562.0536707435059 532.8606797749965,562.0536707435054 522.8606797749965,562.0536707435051 519.7705098312466,571.5642359064564 511.6803398874975,565.6863833835314 503.5901699437483,559.8085308606063 495.49999999999864,565.6863833835307 492.4098300562496,556.1758182205791 489.3196601125005,546.6652530576275 479.31966011250057,546.6652530576271 482.4098300562505,537.1546878946757" stroke="black" stroke-linecap="round" stroke-width="1" /><polyline clip-path="url(#border_clip)" fill="none" points="482.4098300562505,537.1546878946757 485.50000000000034,527.6441227317243 477.40983005625117,521.7662702087994 485.5000000000008,515.888417685875 493.5901699437505,510.0105651629506 490.5000000000015,500.49999999999903 500.50000000000136,500.49999999999943" stroke="black" stroke-linecap="round" stroke-width="1" /></svg>