<?xml version="1.0" encoding="utf-8" ?>
<svg baseProfile="full" height="10000px" version="1.1" width="10000px" xmlns="http://www.w3.org/2000/svg" xmlns:ev="http://www.w3.org/2001/xml-events" xmlns:xlink="http://www.w3.org/1999/xlink"><defs><clipPath id="border_clip"><rect height="10000" width="10000" x="0" y="0" /></clipPath></defs><polyline clip-path="url(#border_clip)" fill="none" points="5000.5,5000.5 5010.5,5000.5 5020.5,5000.5 5023.590169943749,4990.989434837048 5015.5,4996.8672873599735 5023.590169943749,5002.745139882898 5026.680339887499,5012.255705045849 5029.770509831248,5021.766270208801 5039.770509831248,5021.766270208801 5031.680339887499,5015.888417685876 5028.590169943749,5025.3989828488275 5020.5,5031.276835371753 5012.409830056251,5037.154687894677 5015.5,5046.665253057628 5018.590169943749,5037.154687894677 5008.590169943749,5037.154687894677 5000.5,5031.276835371753 4992.409830056251,5025.3989828488275 4984.319660112501,5031.276835371753 4994.319660112501,5031.276835371753 4991.229490168752,5021.766270208801 4994.319660112501,5012.255705045849 4997.409830056251,5002.745139882898 4989.319660112501,4996.8672873599735 4992.409830056251,5006.3778525229245 5000.5,5000.5 5010.5,5000.5 5020.5,5000.5 5023.59016994375,4990.989434837048 5015.5,4996.8672873599735 5023.590169943749,5002.745139882898 5026.680339887499,5012.25570504585 5029.770509831248,5021.766270208801 5039.770509831248,5021.766270208801 5031.680339887499,5015.888417685876 5028.590169943749,5025.3989828488275 5020.5,5031.276835371753 5012.40983005625,5037.154687894677 5015.5,5046.665253057628 5018.590169943749,5037.154687894677 5008.590169943749,5037.154687894677 5000.5,5031.276835371753 4992.40983005625,5025.3989828488275" stroke="black" stroke-linecap="round" stroke-width="1" /><polyline clip-path="url(#border_clip)" fill="none" points="4992.40983005625,5025.3989828488275 4984.319660112501,5031.276835371752 4994.319660112501,5031.276835371753 4991.229490168752,5021.766270208801 4994.319660112501,5012.255705045849 4997.409830056251,5002.745139882898 4989.319660112501,4996.8672873599735 4992.409830056251,5006.3778525229245 5000.5,5000.5 5010.5,5000.5 5020.5,5000.5 5023.59016994375,4990.989434837048 5015.5,4996.8672873599735 5023.59016994375,5002.745139882898 5026.680339887499,5012.25570504585 5029.770509831248,5021.766270208801 5039.770509831248,5021.766270208801 5031.680339887499,5015.888417685876 5028.590169943749,5025.3989828488275 5020.5,5031.276835371753 5012.40983005625,5037.154687894677 5015.5,5046.665253057628 5018.590169943749,5037.154687894677 5008.590169943749,5037.154687894677 5000.5,5031.276835371753 4992.40983005625,5025.3989828488275 4984.319660112501,5031.276835371752 4994.319660112501,5031.276835371753 4991.229490168752,5021.766270208801 4994.319660112501,5012.255705045849 4997.409830056251,5002.745139882898 4989.319660112501,4996.867287359973 4992.409830056251,5006.3778525229245 5000.5,5000.5 5010.5,5000.5 5020.5,5000.5 5023.59016994375,4990.989434837048 5015.5,4996.8672873599735 5023.59016994375,5002.745139882898 5026.680339887499,5012.25570504585 5029.770509831248,5021.766270208801 5039.770509831248,5021.766270208801 5031.680339887499,5015.888417685876" stroke="black" stroke-linecap="round" stroke-width="1" /><polyline clip-path="url(#border_clip)" fill="none" points="5031.680339887499,5015.888417685876 5028.590169943749,5025.398982848828 5020.5,5031.276835371753 5012.40983005625,5037.154687894677 5015.5,5046.665253057629 5018.590169943749,5037.154687894677 5008.590169943749,5037.154687894677 5000.5,5031.276835371753 4992.40983005625,5025.3989828488275 4984.319660112501,5031.276835371752 4994.319660112501,5031.276835371752 4991.229490168752,5021.766270208801 4994.319660112501,5012.255705045849 4997.409830056251,5002.745139882898 4989.319660112501,4996.867287359973 4992.409830056251,5006.3778525229245 5000.5,5000.5 5010.5,5000.5 5020.5,5000.5 5023.59016994375,4990.989434837049 5015.5,4996.8672873599735 5023.59016994375,5002.745139882898 5026.680339887499,5012.25570504585 5029.770509831248,5021.766270208801 5039.770509831248,5021.766270208801 5031.680339887499,5015.888417685876 5028.590169943749,5025.398982848828 5020.5,5031.276835371753 5012.40983005625,5037.154687894677 5015.5,5046.665253057629 5018.590169943749,5037.154687894677 5008.590169943749,5037.154687894677 5000.5,5031.276835371752 4992.40983005625,5025.3989828488275 4984.319660112501,5031.276835371752 4994.319660112501,5031.276835371752 4991.229490168752,5021.766270208801 4994.319660112501,5012.255705045849 4997.409830056251,5002.745139882898 4989.319660112501,4996.867287359973 4992.409830056251,5006.3778525229245 5000.5,5000.5 5010.5,5000.5" stroke="black" stroke-linecap="round" stroke-width="1" /><polyline clip-path="url(#border_clip)" fill="none" points="5010.5,5000.5 5020.5,5000.5 5023.59016994375,4990.989434837049 5015.5,4996.8672873599735 5023.59016994375,5002.745139882898 5026.680339887499,5012.25570504585 5029.770509831248,5021.766270208801 5039.770509831248,5021.766270208801 5031.680339887499,5015.888417685876 5028.590169943749,5025.398982848828 5020.5,5031.276835371753 5012.40983005625,5037.154687894677 5015.5,5046.665253057629 5018.590169943749,5037.154687894677 5008.590169943749,5037.154687894677 5000.5,5031.276835371752 4992.40983005625,5025.3989828488275 4984.319660112501,5031.276835371752 4994.319660112501,5031.276835371752 4991.229490168752,5021.766270208801 4994.319660112501,5012.255705045849 4997.409830056251,5002.745139882898 4989.319660112501,4996.867287359973 4992.409830056251,5006.3778525229245 5000.5,5000.5 5010.5,5000.5 5020.5,5000.5 5023.59016994375,4990.989434837049 5015.5,4996.8672873599735 5023.59016994375,5002.745139882898 5026.680339887499,5012.25570504585 5029.770509831248,5021.766270208801 5039.770509831248,5021.766270208802 5031.680339887499,5015.888417685876 5028.590169943749,5025.398982848828 5020.5,5031.276835371753 5012.40983005625,5037.154687894677 5015.499999999999,5046.665253057629 5018.590169943749,5037.154687894677 5008.590169943749,5037.154687894677 5000.5,5031.276835371752 4992.40983005625,5025.3989828488275 4984.319660112501,5031.276835371752" stroke="black" stroke-linecap="round" stroke-width="1" /><polyline clip-path="url(#border_clip)" fill="none" points="4984.319660112501,5031.276835371752 4994.319660112501,5031.276835371752 4991.229490168752,5021.766270208801 4994.319660112501,5012.255705045849 4997.409830056251,5002.745139882898 4989.319660112501,4996.867287359973 4992.409830056251,5006.3778525229245 5000.5,5000.5 5010.5,5000.5 5020.5,5000.5 5023.59016994375,4990.989434837049 5015.5,4996.8672873599735 5023.59016994375,5002.745139882898 5026.680339887499,5012.25570504585 5029.770509831248,5021.766270208801 5039.770509831248,5021.766270208802 5031.680339887499,5015.888417685876 5028.590169943749,5025.398982848828 5020.5,5031.276835371753 5012.40983005625,5037.154687894677 5015.499999999999,5046.665253057629 5018.590169943749,5037.154687894677 5008.590169943749,5037.154687894677 5000.5,5031.276835371752 4992.40983005625,5025.3989828488275 4984.319660112501,5031.276835371752 4994.319660112501,5031.276835371752 4991.229490168751,5021.766270208801 4994.319660112501,5012.255705045849 4997.409830056251,5002.745139882898 4989.319660112501,4996.867287359973 4992.409830056251,5006.3778525229245 5000.5,5000.5 5010.5,5000.5 5020.5,5000.5 5023.59016994375,4990.989434837049 5015.500000000001,4996.8672873599735 5023.59016994375,5002.745139882898 5026.680339887499,5012.25570504585 5029.770509831248,5021.766270208802 5039.770509831248,5021.766270208802 5031.680339887499,5015.888417685876 5028.590169943749,5025.398982848828" stroke="black" stroke-linecap="round" stroke-width="1" /><polyline clip-path="url(#border_clip)" fill="none" points="5028.590169943749,5025.398982848828 5020.5,5031.276835371753 5012.40983005625,5037.154687894677 5015.499999999999,5046.665253057629 5018.590169943749,5037.154687894677 5008.590169943749,5037.154687894677 5000.5,5031.276835371752 4992.40983005625,5025.3989828488275 4984.319660112501,5031.276835371752 4994.319660112501,5031.276835371752 4991.229490168751,5021.766270208801 4994.319660112501,5012.255705045849 4997.409830056251,5002.745139882898 4989.319660112502,4996.867287359973 4992.409830056251,5006.3778525229245 5000.5,5000.5 5010.5,5000.5 5020.500000000001,5000.5 5023.59016994375,4990.989434837049 5015.500000000001,4996.8672873599735 5023.59016994375,5002.745139882898 5026.680339887499,5012.25570504585 5029.770509831248,5021.766270208802 5039.770509831248,5021.766270208802 5031.680339887499,5015.888417685876 5028.590169943749,5025.398982848828 5020.5,5031.276835371753 5012.40983005625,5037.154687894677 5015.499999999999,5046.665253057629 5018.590169943749,5037.154687894677 5008.590169943749,5037.154687894677 5000.5,5031.276835371752 4992.40983005625,5025.3989828488275 4984.319660112501,5031.276835371752 4994.319660112501,5031.276835371752 4991.229490168751,5021.7662702088 4994.319660112501,5012.255705045849 4997.409830056251,5002.745139882897 4989.319660112502,4996.867287359973 4992.409830056251,5006.3778525229245 5000.5,5000.5 5010.500000000001,5000.5 5020.500000000001,5000.5" stroke="black" stroke-linecap="round" stroke-width="1" /><polyline clip-path="url(#border_clip)" fill="none" points="5020.500000000001,5000.5 5023.59016994375,4990.989434837049 5015.500000000001,4996.8672873599735 5023.59016994375,5002.745139882898 5026.680339887499,5012.25570504585 5029.770509831248,5021.766270208802 5039.770509831248,5021.766270208802 5031.680339887499,5015.888417685876 5028.590169943749,5025.398982848828 5020.5,5031.276835371753 5012.40983005625,5037.154687894677 5015.499999999999,5046.665253057629 5018.590169943749,5037.154687894677 5008.590169943749,5037.154687894677 5000.5,5031.276835371752 4992.40983005625,5025.3989828488275 4984.319660112501,5031.276835371752 4994.319660112501,5031.276835371752 4991.229490168751,5021.7662702088 4994.319660112501,5012.255705045849 4997.409830056251,5002.745139882897 4989.319660112502,4996.867287359973 4992.409830056251,5006.3778525229245 5000.500000000001,5000.5 5010.500000000001,5000.5 5020.500000000001,5000.5 5023.59016994375,4990.989434837049 5015.500000000001,4996.8672873599735 5023.59016994375,5002.745139882898 5026.680339887499,5012.25570504585 5029.770509831248,5021.766270208802 5039.770509831248,5021.766270208802 5031.680339887499,5015.888417685876 5028.590169943749,5025.398982848828 5020.5,5031.276835371753 5012.40983005625,5037.154687894677 5015.499999999999,5046.665253057629 5018.590169943749,5037.154687894677 5008.590169943749,5037.154687894677 5000.5,5031.276835371752 4992.40983005625,5025.3989828488275 4984.3196601125,5031.276835371752 4994.319660112501,5031.276835371752" stroke="black" stroke-linecap="round" stroke-width="1" /><polyline clip-path="url(#border_clip)" fill="none" points="4994.319660112501,5031.276835371752 4991.229490168751,5021.7662702088 4994.319660112501,5012.255705045849 4997.409830056251,5002.745139882897 4989.319660112502,4996.867287359973 4992.409830056251,5006.3778525229245 5000.500000000001,5000.5 5010.500000000001,5000.5 5020.500000000001,5000.5 5023.590169943751,4990.989434837049 5015.500000000001,4996.8672873599735 5023.59016994375,5002.745139882898 5026.680339887499,5012.25570504585 5029.770509831248,5021.766270208802 5039.770509831248,5021.766270208802 5031.680339887499,5015.888417685877 5028.590169943749,5025.398982848828 5020.5,5031.276835371753 5012.40983005625,5037.154687894677 5015.499999999999,5046.665253057629 5018.590169943749,5037.154687894677 5008.590169943749,5037.154687894677 5000.499999999999,5031.276835371752 4992.40983005625,5025.3989828488275 4984.3196601125,5031.276835371752 4994.319660112501,5031.276835371752 4991.229490168751,5021.7662702088 4994.319660112501,5012.255705045849 4997.409830056251,5002.745139882897 4989.319660112502,4996.867287359973 4992.409830056251,5006.377852522924 5000.500000000001,5000.499999999999 5010.500000000001,5000.5 5020.500000000001,5000.5 5023.590169943751,4990.989434837049 5015.500000000001,4996.8672873599735 5023.59016994375,5002.745139882898 5026.680339887499,5012.25570504585 5029.770509831248,5021.766270208802 5039.770509831248,5021.766270208802 5031.680339887499,5015.888417685877 5028.590169943749,5025.398982848828 5020.5,5031.276835371753" stroke="black" stroke-linecap="round" stroke-width="1" /><polyline clip-path="url(#border_clip)" fill="none" points="5020.5,5031.276835371753 5012.40983005625,5037.154687894677 5015.499999999999,5046.665253057629 5018.590169943749,5037.154687894677 5008.590169943749,5037.154687894677 5000.499999999999,5031.276835371752 4992.40983005625,5025.3989828488275 4984.3196601125,5031.276835371752 4994.3196601125,5031.276835371752 4991.229490168751,5021.7662702088 4994.319660112501,5012.255705045849 4997.409830056251,5002.745139882897 4989.319660112502,4996.867287359973 4992.409830056251,5006.377852522924 5000.500000000001,5000.499999999999 5010.500000000001,5000.5 5020.500000000001,5000.5 5023.590169943751,4990.989434837049 5015.500000000001,4996.8672873599735 5023.59016994375,5002.745139882898 5026.680339887499,5012.25570504585 5029.770509831248,5021.766270208802 5039.770509831248,5021.766270208802 5031.680339887499,5015.888417685877 5028.590169943749,5025.398982848828 5020.5,5031.276835371753 5012.40983005625,5037.154687894677 5015.499999999999,5046.665253057629 5018.590169943749,5037.154687894677 5008.590169943749,5037.154687894677 5000.499999999999,5031.276835371752 4992.40983005625,5025.3989828488275 4984.3196601125,5031.276835371752 4994.3196601125,5031.276835371752 4991.229490168751,5021.7662702088 4994.319660112501,5012.255705045849 4997.409830056251,5002.745139882897 4989.319660112502,4996.867287359973 4992.409830056251,5006.377852522924 5000.500000000001,5000.499999999999 5010.500000000001,5000.5 5020.500000000001,5000.5 5023.590169943751,4990.989434837049" stroke="black" stroke-linecap="round" stroke-width="1" /><polyline clip-path="url(#border_clip)" fill="none" points="5023.590169943751,4990.989434837049 5015.500000000001,4996.8672873599735 5023.59016994375,5002.745139882898 5026.680339887499,5012.25570504585 5029.770509831248,5021.766270208802 5039.770509831248,5021.766270208802 5031.680339887499,5015.888417685877 5028.590169943749,5025.398982848828 5020.5,5031.276835371753 5012.40983005625,5037.154687894677 5015.499999999999,5046.665253057629 5018.590169943749,5037.154687894677 5008.590169943749,5037.154687894677 5000.499999999999,5031.276835371752 4992.40983005625,5025.3989828488275 4984.3196601125,5031.276835371751 4994.3196601125,5031.276835371752 4991.229490168751,5021.7662702088 4994.319660112501,5012.255705045849 4997.409830056251,5002.745139882897 4989.319660112502,4996.867287359972 4992.409830056251,5006.377852522924 5000.500000000001,5000.499999999999 5010.500000000001,5000.5 5020.500000000001,5000.5 5023.590169943751,4990.989434837049 5015.500000000001,4996.8672873599735 5023.59016994375,5002.745139882898 5026.680339887499,5012.25570504585 5029.770509831248,5021.766270208802 5039.770509831248,5021.766270208802 5031.680339887499,5015.888417685877 5028.590169943749,5025.398982848828 5020.499999999999,5031.276835371753 5012.40983005625,5037.154687894677 5015.499999999999,5046.665253057629 5018.590169943749,5037.154687894677 5008.590169943749,5037.154687894677 5000.499999999999,5031.276835371752 4992.40983005625,5025.3989828488275 4984.3196601125,5031.276835371751 4994.3196601125,5031.276835371752 4991.229490168751,5021.7662702088" stroke="black" stroke-linecap="round" stroke-width="1" /><polyline clip-path="url(#border_clip)" fill="none" points="4991.229490168751,5021.7662702088 4994.319660112501,5012.255705045849 4997.409830056251,5002.745139882897 4989.319660112502,4996.867287359972 4992.409830056251,5006.377852522924 5000.500000000001,5000.499999999999 5010.500000000001,5000.5 5020.500000000001,5000.5 5023.590169943751,4990.989434837049 5015.500000000001,4996.8672873599735 5023.59016994375,5002.745139882898 5026.680339887499,5012.25570504585 5029.770509831248,5021.766270208802 5039.770509831248,5021.766270208802 5031.680339887499,5015.888417685877 5028.590169943749,5025.398982848828 5020.499999999999,5031.276835371753 5012.40983005625,5037.154687894677 5015.499999999999,5046.665253057629 5018.590169943749,5037.154687894677 5008.590169943749,5037.154687894677 5000.499999999999,5031.276835371752 4992.40983005625,5025.398982848827 4984.3196601125,5031.276835371751 4994.3196601125,5031.276835371752 4991.229490168751,5021.7662702088 4994.319660112501,5012.255705045849 4997.409830056251,5002.745139882897 4989.319660112502,4996.867287359972 4992.409830056251,5006.377852522924 5000.500000000001,5000.499999999999 5010.500000000001,5000.5 5020.500000000001,5000.5 5023.590169943751,4990.989434837049 5015.500000000001,4996.8672873599735 5023.59016994375,5002.745139882898 5026.680339887499,5012.25570504585 5029.770509831248,5021.766270208802 5039.770509831248,5021.766270208803 5031.680339887499,5015.888417685877 5028.590169943749,5025.398982848828 5020.499999999999,5031.276835371753 5012.40983005625,5037.154687894677" stroke="black" stroke-linecap="round" stroke-width="1" /><polyline clip-path="url(#border_clip)" fill="none" points="5012.40983005625,5037.154687894677 5015.499999999999,5046.665253057629 5018.590169943749,5037.154687894677 5008.590169943748,5037.154687894677 5000.499999999999,5031.276835371752 4992.40983005625,5025.398982848827 4984.3196601125,5031.276835371751 4994.3196601125,5031.276835371752 4991.229490168751,5021.7662702088 4994.319660112501,5012.255705045849 4997.409830056251,5002.745139882897 4989.319660112502,4996.867287359972 4992.409830056251,5006.377852522924 5000.500000000001,5000.499999999999 5010.500000000001,5000.5 5020.500000000001,5000.5 5023.590169943751,4990.989434837049 5015.500000000001,4996.8672873599735 5023.59016994375,5002.745139882898 5026.680339887499,5012.25570504585 5029.770509831248,5021.766270208802 5039.770509831248,5021.766270208803 5031.680339887499,5015.888417685877 5028.590169943749,5025.398982848828 5020.499999999999,5031.276835371753 5012.40983005625,5037.154687894677 5015.499999999999,5046.665253057629 5018.590169943749,5037.154687894677 5008.590169943748,5037.154687894677 5000.499999999999,5031.276835371752 4992.40983005625,5025.398982848827 4984.3196601125,5031.276835371751 4994.3196601125,5031.276835371752 4991.229490168751,5021.7662702088 4994.319660112501,5012.255705045848 4997.409830056251,5002.745139882897 4989.319660112502,4996.867287359972 4992.409830056251,5006.377852522924 5000.500000000001,5000.499999999999 5010.500000000001,5000.5 5020.500000000001,5000.5 5023.590169943751,4990.989434837049 5015.500000000001,4996.8672873599735" stroke="black" stroke-linecap="round" stroke-width="1" /><polyline clip-path="url(#border_clip)" fill="none" points="5015.500000000001,4996.8672873599735 5023.59016994375,5002.745139882898 5026.680339887499,5012.25570504585 5029.770509831248,5021.766270208802 5039.770509831248,5021.766270208803 5031.680339887499,5015.888417685877 5028.590169943749,5025.398982848828 5020.499999999999,5031.276835371753 5012.409830056249,5037.154687894677 5015.499999999998,5046.665253057629 5018.590169943748,5037.154687894677 5008.590169943748,5037.154687894677 5000.499999999999,5031.276835371752 4992.40983005625,5025.398982848827 4984.3196601125,5031.276835371751 4994.3196601125,5031.276835371752 4991.229490168751,5021.7662702088 4994.319660112501,5012.255705045848 4997.409830056251,5002.745139882897 4989.319660112502,4996.867287359972 4992.409830056251,5006.377852522924 5000.500000000001,5000.499999999999 5010.500000000001,5000.5 5020.500000000001,5000.5 5023.590169943751,4990.989434837049 5015.500000000001,4996.8672873599735 5023.590169943751,5002.745139882899 5026.680339887499,5012.25570504585 5029.770509831248,5021.766270208802 5039.770509831248,5021.766270208803 5031.680339887499,5015.888417685877 5028.590169943749,5025.398982848829 5020.499999999999,5031.276835371753 5012.409830056249,5037.154687894677 5015.499999999998,5046.665253057629 5018.590169943748,5037.154687894677 5008.590169943748,5037.154687894677 5000.499999999999,5031.276835371752 4992.40983005625,5025.398982848827 4984.3196601125,5031.276835371751 4994.3196601125,5031.276835371752 4991.229490168751,5021.7662702088 4994.319660112501,5012.255705045848" stroke="black" stroke-linecap="round" stroke-width="1" /><polyline clip-path="url(#border_clip)" fill="none" points="4994.319660112501,5012.255705045848 4997.409830056251,5002.745139882897 4989.319660112502,4996.867287359972 4992.409830056251,5006.377852522924 5000.500000000001,5000.499999999999 5010.500000000001,5000.5 5020.500000000001,5000.5 5023.590169943751,4990.989434837049 5015.500000000001,4996.8672873599735 5023.590169943751,5002.745139882899 5026.680339887499,5012.25570504585 5029.770509831248,5021.766270208802 5039.770509831248,5021.766270208803 5031.680339887499,5015.888417685877 5028.590169943749,5025.398982848829 5020.499999999999,5031.276835371753 5012.409830056249,5037.154687894677 5015.499999999998,5046.665253057629 5018.590169943748,5037.154687894678 5008.590169943748,5037.154687894677 5000.499999999999,5031.276835371752 4992.40983005625,5025.398982848827 4984.3196601125,5031.276835371751 4994.3196601125,5031.276835371752 4991.229490168751,5021.7662702088 4994.319660112501,5012.255705045848 4997.409830056251,5002.745139882897 4989.319660112502,4996.867287359972 4992.409830056251,5006.377852522924 5000.500000000001,5000.499999999999 5010.500000000001,5000.5 5020.500000000001,5000.5 5023.590169943751,4990.989434837049 5015.500000000001,4996.8672873599735 5023.590169943751,5002.745139882899 5026.680339887499,5012.25570504585 5029.770509831248,5021.766270208802 5039.770509831248,5021.766270208803 5031.680339887499,5015.888417685877 5028.590169943749,5025.398982848829 5020.499999999999,5031.276835371753 5012.409830056249,5037.154687894677 5015.499999999998,5046.665253057629" stroke="black" stroke-linecap="round" stroke-width="1" /><polyline clip-path="url(#border_clip)" fill="none" points="5015.499999999998,5046.665253057629 5018.590169943748,5037.154687894678 5008.590169943748,5037.154687894677 5000.499999999999,5031.276835371752 4992.40983005625,5025.398982848827 4984.3196601125,5031.276835371751 4994.3196601125,5031.276835371752 4991.229490168751,5021.7662702088 4994.319660112501,5012.255705045848 4997.409830056251,5002.745139882897 4989.319660112502,4996.867287359972 4992.409830056251,5006.377852522924 5000.500000000001,5000.499999999999 5010.500000000001,5000.5 5020.500000000001,5000.5 5023.590169943751,4990.989434837049 5015.500000000002,4996.8672873599735 5023.590169943751,5002.745139882899 5026.6803398875,5012.25570504585 5029.770509831248,5021.766270208802 5039.770509831248,5021.766270208803 5031.680339887499,5015.888417685877 5028.590169943749,5025.398982848829 5020.499999999999,5031.276835371753 5012.409830056249,5037.154687894677 5015.499999999998,5046.665253057629 5018.590169943748,5037.154687894678 5008.590169943748,5037.154687894677 5000.499999999999,5031.276835371752 4992.40983005625,5025.398982848827 4984.3196601125,5031.276835371751 4994.3196601125,5031.276835371752 4991.229490168751,5021.7662702088 4994.319660112501,5012.255705045848 4997.409830056252,5002.745139882897 4989.319660112502,4996.867287359972 4992.409830056251,5006.377852522924 5000.500000000001,5000.499999999999 5010.500000000001,5000.5 5020.500000000001,5000.5 5023.590169943752,4990.989434837049 5015.500000000002,4996.8672873599735 5023.590169943751,5002.745139882899" stroke="black" stroke-linecap="round" stroke-width="1" /><polyline clip-path="url(#border_clip)" fill="none" points="5023.590169943751,5002.745139882899 5026.6803398875,5012.255705045851 5029.770509831248,5021.766270208802 5039.770509831249,5021.766270208803 5031.680339887499,5015.888417685877 5028.590169943749,5025.398982848829 5020.499999999999,5031.276835371753 5012.409830056249,5037.154687894677 5015.499999999998,5046.665253057629 5018.590169943748,5037.154687894678 5008.590169943748,5037.154687894677 5000.499999999999,5031.276835371752 4992.40983005625,5025.398982848827 4984.3196601125,5031.276835371751 4994.3196601125,5031.276835371752 4991.229490168751,5021.7662702088 4994.319660112501,5012.255705045848 4997.409830056252,5002.745139882897 4989.319660112502,4996.867287359972 4992.409830056251,5006.377852522924 5000.500000000001,5000.499999999999 5010.500000000001,5000.5 5020.500000000001,5000.5 5023.590169943752,4990.989434837049 5015.500000000002,4996.8672873599735 5023.590169943751,5002.745139882899 5026.6803398875,5012.255705045851 5029.770509831248,5021.766270208802 5039.770509831249,5021.766270208803 5031.680339887499,5015.888417685877 5028.590169943749,5025.398982848829 5020.499999999999,5031.276835371753 5012.409830056249,5037.154687894677 5015.499999999998,5046.665253057629 5018.590169943748,5037.154687894678 5008.590169943748,5037.154687894677 5000.499999999999,5031.276835371752 4992.40983005625,5025.398982848827 4984.3196601125,5031.276835371751 4994.3196601125,5031.276835371752 4991.229490168751,5021.7662702088 4994.319660112501,5012.255705045848 4997.409830056252,5002.745139882897" stroke="black" stroke-linecap="round" stroke-width="1" /><polyline clip-path="url(#border_clip)" fill="none" points="4997.409830056252,5002.745139882897 4989.319660112502,4996.867287359972 4992.409830056251,5006.377852522924 5000.500000000001,5000.499999999999 5010.500000000001,5000.5 5020.500000000002,5000.5 5023.590169943752,4990.989434837049 5015.500000000002,4996.8672873599735 5023.590169943751,5002.745139882899 5026.6803398875,5012.255705045851 5029.770509831248,5021.766270208803 5039.770509831249,5021.766270208803 5031.680339887499,5015.888417685877 5028.590169943749,5025.398982848829 5020.499999999999,5031.276835371754 5012.409830056249,5037.154687894677 5015.499999999998,5046.665253057629 5018.590169943748,5037.154687894678 5008.590169943748,5037.154687894677 5000.499999999999,5031.276835371752 4992.40983005625,5025.398982848827 4984.3196601125,5031.276835371751 4994.3196601125,5031.276835371751 4991.229490168751,5021.7662702088 4994.319660112501,5012.255705045848 4997.409830056252,5002.745139882897 4989.319660112502,4996.867287359972 4992.409830056251,5006.377852522924 5000.500000000001,5000.499999999999 5010.500000000001,5000.5 5020.500000000002,5000.500000000001 5023.590169943752,4990.989434837049 5015.500000000002,4996.8672873599735 5023.590169943751,5002.745139882899 5026.6803398875,5012.255705045851 5029.770509831248,5021.766270208803 5039.770509831249,5021.766270208803 5031.680339887499,5015.888417685877 5028.590169943749,5025.398982848829 5020.499999999999,5031.276835371754 5012.409830056249,5037.154687894677 5015.499999999998,5046.665253057629 5018.590169943748,5037.154687894678" stroke="black" stroke-linecap="round" stroke-width="1" /><polyline clip-path="url(#border_clip)" fill="none" points="5018.590169943748,5037.154687894678 5008.590169943748,5037.154687894677 5000.499999999999,5031.276835371752 4992.40983005625,5025.398982848827 4984.3196601125,5031.276835371751 4994.3196601125,5031.276835371751 4991.229490168751,5021.766270208799 4994.319660112501,5012.255705045848 4997.409830056252,5002.745139882897 4989.319660112503,4996.867287359972 4992.409830056251,5006.377852522924 5000.500000000001,5000.499999999999 5010.500000000001,5000.5 5020.500000000002,5000.500000000001 5023.590169943752,4990.989434837049 5015.500000000002,4996.8672873599735 5023.590169943751,5002.745139882899 5026.6803398875,5012.255705045851 5029.770509831248,5021.766270208803 5039.770509831249,5021.766270208804 5031.680339887499,5015.888417685877 5028.590169943749,5025.398982848829 5020.499999999999,5031.276835371754 5012.409830056249,5037.154687894677 5015.499999999998,5046.665253057629 5018.590169943748,5037.154687894678 5008.590169943748,5037.154687894677 5000.499999999999,5031.276835371752 4992.40983005625,5025.398982848827 4984.3196601125,5031.276835371751 4994.3196601125,5031.276835371751 4991.229490168751,5021.766270208799 4994.319660112501,5012.255705045848 4997.409830056252,5002.745139882897 4989.319660112503,4996.867287359971 4992.409830056251,5006.377852522923 5000.500000000001,5000.499999999999 5010.500000000002,5000.5 5020.500000000002,5000.500000000001 5023.590169943752,4990.989434837049 5015.500000000002,4996.8672873599735 5023.590169943751,5002.745139882899 5026.6803398875,5012.255705045851" stroke="black" stroke-linecap="round" stroke-width="1" /><polyline clip-path="url(#border_clip)" fill="none" points="5026.6803398875,5012.255705045851 5029.770509831248,5021.766270208803 5039.770509831249,5021.766270208804 5031.680339887499,5015.888417685878 5028.590169943749,5025.398982848829 5020.499999999999,5031.276835371754 5012.409830056249,5037.154687894677 5015.499999999998,5046.665253057629 5018.590169943748,5037.154687894678 5008.590169943748,5037.154687894677 5000.499999999999,5031.276835371752 4992.40983005625,5025.398982848827 4984.3196601125,5031.27683537175 4994.3196601125,5031.276835371751 4991.229490168751,5021.766270208799 4994.319660112501,5012.255705045848 4997.409830056252,5002.745139882896 4989.319660112503,4996.867287359971 4992.409830056251,5006.377852522923 5000.500000000001,5000.499999999999 5010.500000000002,5000.5 5020.500000000002,5000.500000000001 5023.590169943752,4990.989434837049 5015.500000000002,4996.8672873599735 5023.590169943751,5002.745139882899 5026.6803398875,5012.255705045851 5029.770509831248,5021.766270208803 5039.770509831249,5021.766270208804 5031.680339887499,5015.888417685878 5028.590169943749,5025.398982848829 5020.499999999999,5031.276835371754 5012.409830056249,5037.154687894677 5015.499999999998,5046.665253057629 5018.590169943748,5037.154687894678 5008.590169943748,5037.154687894677 5000.499999999999,5031.276835371752 4992.40983005625,5025.398982848827 4984.319660112499,5031.27683537175 4994.3196601125,5031.276835371751 4991.229490168751,5021.766270208799 4994.319660112501,5012.255705045848 4997.409830056252,5002.745139882896 4989.319660112503,4996.867287359971" stroke="black" stroke-linecap="round" stroke-width="1" /><polyline clip-path="url(#border_clip)" fill="none" points="4989.319660112503,4996.867287359971 4992.409830056251,5006.377852522923 5000.500000000001,5000.499999999999" stroke="black" stroke-linecap="round" stroke-width="1" /></svg>