<?xml version="1.0" encoding="utf-8" ?>
<svg baseProfile="full" height="1000px" version="1.1" width="1000px" xmlns="http://www.w3.org/2000/svg" xmlns:ev="http://www.w3.org/2001/xml-events" xmlns:xlink="http://www.w3.org/1999/xlink"><defs><clipPath id="border_clip"><rect height="1000" width="1000" x="0" y="0" /></clipPath></defs><polyline clip-path="url(#border_clip)" fill="none" points="500.5,500.5 510.5,500.5 513.5901699437495,490.98943483704846 505.5,496.8672873599732 513.5901699437495,502.74513988289794 516.6803398874989,512.2557050458495 519.7705098312484,521.766270208801 529.7705098312484,521.766270208801 521.6803398874989,515.8884176858762 518.5901699437495,525.3989828488278 510.5,531.2768353717526 502.4098300562505,537.1546878946773 505.49999999999994,546.6652530576288 508.59016994374946,537.1546878946773 498.59016994374946,537.1546878946773 490.5,531.2768353717526 482.4098300562505,525.3989828488278 474.319660112501,531.2768353717524 484.319660112501,531.2768353717526 481.22949016875157,521.766270208801 484.3196601125011,512.2557050458494 487.40983005625054,502.7451398828979 479.3196601125011,496.86728735997315 482.40983005625054,506.3778525229247 490.50000000000006,500.49999999999994 500.50000000000006,500.5 510.50000000000006,500.5 513.5901699437495,490.98943483704846 505.50000000000006,496.8672873599732 513.5901699437495,502.74513988289794 516.6803398874989,512.2557050458495 519.7705098312484,521.7662702088011 529.7705098312484,521.7662702088011 521.6803398874989,515.8884176858763 518.5901699437494,525.3989828488278 510.49999999999994,531.2768353717526 502.4098300562504,537.1546878946773 505.4999999999999,546.6652530576289 508.5901699437494,537.1546878946773 498.5901699437494,537.1546878946773 490.49999999999994,531.2768353717524 482.4098300562505,525.3989828488277 474.31966011250097,531.2768353717524" stroke="black" stroke-linecap="round" stroke-width="1" /><polyline clip-path="url(#border_clip)" fill="none" points="474.31966011250097,531.2768353717524 484.31966011250097,531.2768353717524 481.2294901687515,521.766270208801 484.3196601125011,512.2557050458494 487.4098300562506,502.74513988289783 479.31966011250114,496.8672873599731 482.40983005625054,506.3778525229246 490.50000000000006,500.49999999999994 500.50000000000006,500.5 510.5000000000001,500.50000000000006 513.5901699437496,490.9894348370485 505.5000000000001,496.8672873599732 513.5901699437495,502.745139882898 516.680339887499,512.2557050458496 519.7705098312484,521.7662702088011 529.7705098312484,521.7662702088012 521.680339887499,515.8884176858763 518.5901699437494,525.3989828488279 510.49999999999994,531.2768353717527 502.40983005625037,537.1546878946773 505.49999999999983,546.6652530576289 508.59016994374934,537.1546878946773 498.59016994374934,537.1546878946773 490.4999999999999,531.2768353717524 482.4098300562504,525.3989828488277 474.3196601125009,531.2768353717523 484.3196601125009,531.2768353717524 481.2294901687515,521.7662702088008 484.3196601125011,512.2557050458494 487.4098300562506,502.7451398828978 479.3196601125012,496.867287359973 482.4098300562506,506.37785252292457 490.5000000000001,500.4999999999999 500.50000000000017,500.49999999999994 510.50000000000017,500.50000000000006 513.5901699437497,490.9894348370485 505.50000000000017,496.8672873599732 513.5901699437496,502.745139882898 516.680339887499,512.2557050458496 519.7705098312484,521.7662702088012 529.7705098312484,521.7662702088013 521.680339887499,515.8884176858764 518.5901699437495,525.3989828488279" stroke="black" stroke-linecap="round" stroke-width="1" /><polyline clip-path="url(#border_clip)" fill="none" points="518.5901699437495,525.3989828488279 510.4999999999999,531.2768353717527 502.40983005625037,537.1546878946773 505.4999999999998,546.6652530576289 508.59016994374934,537.1546878946774 498.5901699437493,537.1546878946773 490.4999999999999,531.2768353717524 482.4098300562504,525.3989828488277 474.31966011250086,531.2768353717523 484.3196601125009,531.2768353717524 481.2294901687515,521.7662702088008 484.3196601125011,512.2557050458493 487.40983005625066,502.7451398828978 479.31966011250125,496.8672873599729 482.4098300562506,506.3778525229245 490.50000000000017,500.49999999999983 500.5000000000002,500.49999999999994 510.5000000000002,500.50000000000006 513.5901699437499,490.9894348370485 505.5000000000002,496.8672873599732 513.5901699437496,502.745139882898 516.680339887499,512.2557050458496 519.7705098312484,521.7662702088012 529.7705098312484,521.7662702088013 521.680339887499,515.8884176858764 518.5901699437494,525.398982848828 510.4999999999999,531.2768353717527 502.4098300562503,537.1546878946773 505.4999999999997,546.6652530576289 508.5901699437493,537.1546878946774 498.59016994374923,537.1546878946773 490.49999999999983,531.2768353717524 482.4098300562504,525.3989828488276 474.31966011250086,531.2768353717522 484.31966011250086,531.2768353717523 481.2294901687515,521.7662702088007 484.3196601125011,512.2557050458493 487.4098300562507,502.7451398828977 479.3196601125013,496.86728735997286 482.40983005625066,506.37785252292446 490.5000000000002,500.49999999999983 500.5000000000002,500.49999999999994 510.5000000000003,500.50000000000006" stroke="black" stroke-linecap="round" stroke-width="1" /><polyline clip-path="url(#border_clip)" fill="none" points="510.5000000000003,500.50000000000006 513.5901699437499,490.9894348370485 505.5000000000003,496.8672873599732 513.5901699437497,502.74513988289806 516.680339887499,512.2557050458496 519.7705098312484,521.7662702088013 529.7705098312484,521.7662702088014 521.680339887499,515.8884176858766 518.5901699437494,525.398982848828 510.49999999999983,531.2768353717527 502.40983005625026,537.1546878946773 505.4999999999996,546.6652530576289 508.59016994374923,537.1546878946774 498.5901699437492,537.1546878946773 490.4999999999998,531.2768353717524 482.40983005625037,525.3989828488275 474.3196601125008,531.2768353717521 484.3196601125008,531.2768353717523 481.22949016875145,521.7662702088007 484.3196601125011,512.2557050458491 487.4098300562507,502.74513988289766 479.3196601125013,496.8672873599728 482.40983005625066,506.3778525229244 490.5000000000002,500.4999999999998 500.5000000000003,500.49999999999994 510.50000000000034,500.50000000000006 513.59016994375,490.9894348370486 505.50000000000034,496.8672873599732 513.5901699437497,502.74513988289806 516.680339887499,512.2557050458497 519.7705098312484,521.7662702088013 529.7705098312484,521.7662702088014 521.680339887499,515.8884176858766 518.5901699437494,525.398982848828 510.49999999999983,531.2768353717527 502.4098300562502,537.1546878946773 505.49999999999955,546.6652530576289 508.5901699437492,537.1546878946774 498.5901699437491,537.1546878946773 490.4999999999998,531.2768353717523 482.40983005625037,525.3989828488275 474.31966011250074,531.2768353717521 484.31966011250074,531.2768353717522" stroke="black" stroke-linecap="round" stroke-width="1" /><polyline clip-path="url(#border_clip)" fill="none" points="484.31966011250074,531.2768353717522 481.22949016875145,521.7662702088006 484.3196601125011,512.2557050458491 487.40983005625077,502.7451398828976 479.31966011250137,496.8672873599727 482.40983005625066,506.37785252292434 490.5000000000003,500.4999999999997 500.50000000000034,500.49999999999994 510.50000000000034,500.5000000000001 513.59016994375,490.9894348370486 505.5000000000004,496.8672873599732 513.5901699437499,502.7451398828981 516.6803398874991,512.2557050458497 519.7705098312484,521.7662702088013 529.7705098312484,521.7662702088015 521.680339887499,515.8884176858767 518.5901699437494,525.3989828488282 510.4999999999998,531.2768353717528 502.40983005625014,537.1546878946773 505.4999999999995,546.665253057629 508.5901699437491,537.1546878946774 498.5901699437491,537.1546878946773 490.4999999999997,531.2768353717523 482.4098300562503,525.3989828488275 474.3196601125007,531.276835371752 484.31966011250074,531.2768353717522 481.22949016875145,521.7662702088006 484.31966011250114,512.2557050458491 487.4098300562508,502.74513988289755 479.3196601125014,496.86728735997264 482.4098300562507,506.3778525229243 490.50000000000034,500.4999999999997 500.5000000000004,500.4999999999999 510.5000000000004,500.5000000000001 513.5901699437501,490.98943483704863 505.50000000000045,496.8672873599732 513.5901699437499,502.7451398828981 516.6803398874991,512.2557050458498 519.7705098312484,521.7662702088014 529.7705098312484,521.7662702088016 521.6803398874991,515.8884176858767 518.5901699437494,525.3989828488282 510.4999999999998,531.2768353717528" stroke="black" stroke-linecap="round" stroke-width="1" /><polyline clip-path="url(#border_clip)" fill="none" points="510.4999999999998,531.2768353717528 502.40983005625014,537.1546878946774 505.4999999999994,546.665253057629 508.5901699437491,537.1546878946775 498.59016994374906,537.1546878946773 490.49999999999966,531.2768353717523 482.4098300562503,525.3989828488274 474.3196601125006,531.276835371752 484.3196601125007,531.2768353717522 481.2294901687514,521.7662702088005 484.31966011250114,512.255705045849 487.4098300562508,502.74513988289755 479.3196601125015,496.8672873599726 482.4098300562507,506.37785252292423 490.5000000000004,500.49999999999966 500.5000000000004,500.49999999999994 510.50000000000045,500.50000000000017 513.5901699437502,490.98943483704863 505.5000000000005,496.8672873599732 513.5901699437499,502.7451398828982 516.6803398874991,512.2557050458498 519.7705098312484,521.7662702088015 529.7705098312484,521.7662702088018 521.6803398874991,515.8884176858768 518.5901699437494,525.3989828488283 510.4999999999997,531.2768353717528 502.40983005625003,537.1546878946774 505.4999999999993,546.665253057629 508.59016994374906,537.1546878946775 498.590169943749,537.1546878946773 490.4999999999996,531.2768353717523 482.40983005625026,525.3989828488274 474.31966011250057,531.2768353717519 484.3196601125006,531.2768353717522 481.2294901687514,521.7662702088005 484.31966011250114,512.255705045849 487.4098300562509,502.7451398828975 479.3196601125015,496.8672873599725 482.40983005625077,506.3778525229242 490.5000000000004,500.49999999999966 500.50000000000045,500.4999999999999 510.5000000000005,500.50000000000017 513.5901699437503,490.98943483704863" stroke="black" stroke-linecap="round" stroke-width="1" /><polyline clip-path="url(#border_clip)" fill="none" points="513.5901699437503,490.98943483704863 505.50000000000057,496.8672873599732 513.59016994375,502.7451398828982 516.6803398874991,512.2557050458498 519.7705098312484,521.7662702088015 529.7705098312484,521.7662702088018 521.6803398874991,515.8884176858768 518.5901699437494,525.3989828488283 510.49999999999966,531.2768353717529 502.40983005625003,537.1546878946774 505.49999999999926,546.6652530576291 508.590169943749,537.1546878946775 498.59016994374895,537.1546878946773 490.4999999999996,531.2768353717523 482.40983005625026,525.3989828488274 474.31966011250057,531.2768353717519 484.3196601125006,531.2768353717521 481.2294901687514,521.7662702088005 484.31966011250114,512.2557050458489 487.4098300562509,502.74513988289743 479.31966011250154,496.86728735997247 482.40983005625077,506.3778525229241 490.50000000000045,500.4999999999996 500.5000000000005,500.4999999999999 510.50000000000057,500.50000000000017 513.5901699437503,490.9894348370487 505.5000000000006,496.8672873599732 513.59016994375,502.74513988289823 516.6803398874993,512.2557050458499 519.7705098312484,521.7662702088015 529.7705098312484,521.7662702088019 521.6803398874991,515.8884176858769 518.5901699437494,525.3989828488284 510.49999999999966,531.2768353717529 502.40983005625,537.1546878946774 505.49999999999915,546.6652530576291 508.59016994374895,537.1546878946776 498.5901699437489,537.1546878946773 490.49999999999955,531.2768353717523 482.4098300562502,525.3989828488272 474.3196601125005,531.2768353717518 484.31966011250057,531.2768353717521 481.22949016875134,521.7662702088004" stroke="black" stroke-linecap="round" stroke-width="1" /><polyline clip-path="url(#border_clip)" fill="none" points="481.22949016875134,521.7662702088004 484.31966011250114,512.2557050458489 487.40983005625094,502.74513988289743 479.3196601125016,496.8672873599724 482.40983005625077,506.37785252292406 490.5000000000005,500.49999999999955 500.50000000000057,500.4999999999999 510.5000000000006,500.50000000000017 513.5901699437504,490.9894348370487 505.5000000000007,496.8672873599732 513.5901699437501,502.74513988289823 516.6803398874993,512.2557050458499 519.7705098312484,521.7662702088016 529.7705098312484,521.766270208802 521.6803398874991,515.8884176858769 518.5901699437493,525.3989828488284 510.4999999999996,531.2768353717529 502.4098300562499,537.1546878946774 505.4999999999991,546.6652530576291 508.5901699437489,537.1546878946776 498.59016994374883,537.1546878946773 490.4999999999995,531.2768353717522 482.40983005625014,525.3989828488272 474.31966011250046,531.2768353717518 484.3196601125005,531.276835371752 481.22949016875134,521.7662702088004 484.31966011250114,512.2557050458488 487.40983005625094,502.7451398828973 479.31966011250165,496.8672873599723 482.4098300562508,506.377852522924 490.5000000000005,500.4999999999995 500.5000000000006,500.49999999999983 510.5000000000007,500.50000000000017 513.5901699437505,490.9894348370487 505.5000000000008,496.8672873599732 513.5901699437501,502.74513988289823 516.6803398874993,512.2557050458499 519.7705098312484,521.7662702088016 529.7705098312485,521.766270208802 521.6803398874991,515.888417685877 518.5901699437493,525.3989828488285 510.4999999999996,531.2768353717529 502.40983005624986,537.1546878946774" stroke="black" stroke-linecap="round" stroke-width="1" /><polyline clip-path="url(#border_clip)" fill="none" points="502.40983005624986,537.1546878946774 505.49999999999903,546.6652530576291 508.59016994374883,537.1546878946776 498.5901699437488,537.1546878946773 490.49999999999943,531.2768353717522 482.40983005625014,525.3989828488271 474.3196601125004,531.2768353717516 484.31966011250046,531.276835371752 481.22949016875134,521.7662702088003 484.31966011250114,512.2557050458488 487.409830056251,502.7451398828973 479.31966011250165,496.86728735997224 482.4098300562508,506.37785252292394 490.50000000000057,500.4999999999995 500.5000000000007,500.49999999999983 510.50000000000074,500.5000000000002 513.5901699437505,490.98943483704875 505.50000000000085,496.8672873599732 513.5901699437502,502.7451398828983 516.6803398874993,512.25570504585 519.7705098312484,521.7662702088018 529.7705098312485,521.7662702088021 521.6803398874991,515.888417685877 518.5901699437493,525.3989828488285 510.4999999999996,531.276835371753 502.4098300562498,537.1546878946774 505.499999999999,546.6652530576292 508.59016994374883,537.1546878946776 498.5901699437487,537.1546878946773 490.49999999999943,531.2768353717522 482.40983005625014,525.3989828488271 474.31966011250034,531.2768353717516 484.3196601125004,531.276835371752 481.2294901687513,521.7662702088003 484.31966011250114,512.2557050458488 487.40983005625105,502.74513988289726 479.3196601125017,496.8672873599722 482.4098300562508,506.3778525229239 490.5000000000006,500.49999999999943 500.5000000000007,500.49999999999983 510.5000000000008,500.5000000000002 513.5901699437507,490.98943483704875 505.50000000000085,496.8672873599732" stroke="black" stroke-linecap="round" stroke-width="1" /><polyline clip-path="url(#border_clip)" fill="none" points="505.50000000000085,496.8672873599732 513.5901699437502,502.7451398828983 516.6803398874993,512.25570504585 519.7705098312484,521.7662702088018 529.7705098312485,521.7662702088021 521.6803398874993,515.888417685877 518.5901699437493,525.3989828488285 510.49999999999955,531.276835371753 502.4098300562498,537.1546878946774 505.49999999999886,546.6652530576292 508.5901699437488,537.1546878946777 498.5901699437487,537.1546878946773 490.4999999999994,531.2768353717522 482.4098300562501,525.3989828488271 474.3196601125003,531.2768353717515 484.3196601125004,531.276835371752 481.2294901687513,521.7662702088002 484.31966011250114,512.2557050458487 487.40983005625105,502.7451398828972 479.31966011250177,496.8672873599721 482.4098300562509,506.37785252292383 490.5000000000006,500.49999999999943 500.50000000000074,500.49999999999983 510.5000000000008,500.5000000000002 513.5901699437507,490.98943483704875 505.5000000000009,496.8672873599732 513.5901699437502,502.74513988289834 516.6803398874993,512.25570504585 519.7705098312484,521.7662702088018 529.7705098312485,521.7662702088022 521.6803398874993,515.8884176858771 518.5901699437493,525.3989828488286 510.4999999999995,531.276835371753 502.40983005624975,537.1546878946774 505.4999999999988,546.6652530576292 508.5901699437487,537.1546878946777 498.59016994374866,537.1546878946773 490.4999999999994,531.2768353717522 482.4098300562501,525.398982848827 474.3196601125003,531.2768353717515 484.31966011250034,531.2768353717519 481.2294901687513,521.7662702088002 484.3196601125012,512.2557050458487" stroke="black" stroke-linecap="round" stroke-width="1" /><polyline clip-path="url(#border_clip)" fill="none" points="484.3196601125012,512.2557050458487 487.4098300562511,502.7451398828972 479.3196601125018,496.86728735997207 482.4098300562509,506.37785252292383 490.5000000000007,500.4999999999994 500.5000000000008,500.49999999999983 510.50000000000085,500.5000000000003 513.5901699437508,490.9894348370488 505.50000000000097,496.8672873599732 513.5901699437503,502.74513988289834 516.6803398874994,512.2557050458502 519.7705098312484,521.7662702088019 529.7705098312485,521.7662702088023 521.6803398874993,515.8884176858771 518.5901699437493,525.3989828488286 510.4999999999995,531.2768353717531 502.4098300562497,537.1546878946775 505.49999999999875,546.6652530576292 508.59016994374866,537.1546878946777 498.5901699437486,537.1546878946773 490.4999999999993,531.2768353717522 482.40983005625003,525.398982848827 474.31966011250023,531.2768353717514 484.3196601125003,531.2768353717519 481.2294901687512,521.7662702088002 484.3196601125012,512.2557050458487 487.4098300562511,502.74513988289715 479.3196601125019,496.867287359972 482.40983005625094,506.3778525229238 490.50000000000074,500.4999999999994 500.50000000000085,500.49999999999983 510.5000000000009,500.5000000000003 513.5901699437509,490.9894348370488 505.500000000001,496.8672873599732 513.5901699437503,502.7451398828984 516.6803398874994,512.2557050458502 519.7705098312484,521.7662702088019 529.7705098312485,521.7662702088023 521.6803398874993,515.8884176858772 518.5901699437493,525.3989828488287 510.4999999999995,531.2768353717531 502.40983005624963,537.1546878946775 505.4999999999987,546.6652530576292" stroke="black" stroke-linecap="round" stroke-width="1" /><polyline clip-path="url(#border_clip)" fill="none" points="505.4999999999987,546.6652530576292 508.59016994374866,537.1546878946777 498.59016994374855,537.1546878946773 490.4999999999993,531.2768353717521 482.40983005625003,525.398982848827 474.3196601125002,531.2768353717513 484.3196601125003,531.2768353717519 481.2294901687512,521.7662702088 484.3196601125012,512.2557050458486 487.40983005625117,502.7451398828971 479.31966011250194,496.86728735997195 482.40983005625094,506.3778525229237 490.5000000000008,500.4999999999993 500.5000000000009,500.49999999999983 510.50000000000097,500.5000000000003 513.590169943751,490.9894348370488 505.50000000000114,496.8672873599732 513.5901699437504,502.7451398828984 516.6803398874994,512.2557050458502 519.7705098312484,521.766270208802 529.7705098312485,521.7662702088024 521.6803398874993,515.8884176858772 518.5901699437493,525.3989828488287 510.49999999999943,531.2768353717531 502.4098300562496,537.1546878946775 505.49999999999864,546.6652530576292 508.5901699437486,537.1546878946779 498.5901699437485,537.1546878946773 490.49999999999926,531.2768353717521 482.40983005625003,525.3989828488269 474.3196601125002,531.2768353717513 484.31966011250023,531.2768353717518 481.2294901687512,521.7662702088 484.3196601125012,512.2557050458486 487.4098300562512,502.7451398828971 479.31966011250194,496.8672873599719 482.409830056251,506.37785252292366 490.50000000000085,500.4999999999993 500.5000000000009,500.49999999999983 510.500000000001,500.50000000000034 513.590169943751,490.98943483704886 505.50000000000114,496.8672873599732 513.5901699437504,502.74513988289846" stroke="black" stroke-linecap="round" stroke-width="1" /><polyline clip-path="url(#border_clip)" fill="none" points="513.5901699437504,502.74513988289846 516.6803398874994,512.2557050458502 519.7705098312484,521.766270208802 529.7705098312485,521.7662702088026 521.6803398874993,515.8884176858774 518.5901699437493,525.3989828488288 510.49999999999943,531.2768353717531 502.4098300562496,537.1546878946775 505.4999999999986,546.6652530576293 508.59016994374855,537.1546878946779 498.5901699437485,537.1546878946773 490.4999999999992,531.2768353717521 482.40983005625,525.3989828488269 474.3196601125001,531.2768353717512 484.31966011250023,531.2768353717518 481.2294901687512,521.7662702087999 484.31966011250125,512.2557050458485 487.4098300562512,502.74513988289704 479.319660112502,496.86728735997184 482.409830056251,506.3778525229236 490.50000000000085,500.49999999999926 500.50000000000097,500.49999999999983 510.5000000000011,500.50000000000034 513.5901699437511,490.98943483704886 505.5000000000012,496.86728735997326 513.5901699437504,502.74513988289846 516.6803398874995,512.2557050458503 519.7705098312484,521.7662702088021 529.7705098312485,521.7662702088027 521.6803398874993,515.8884176858774 518.5901699437493,525.3989828488288 510.4999999999994,531.2768353717532 502.4098300562495,537.1546878946775 505.49999999999847,546.6652530576293 508.5901699437485,537.1546878946779 498.5901699437484,537.1546878946773 490.4999999999992,531.2768353717521 482.40983005625,525.3989828488268 474.31966011250006,531.2768353717512 484.3196601125002,531.2768353717518 481.22949016875117,521.7662702087999 484.31966011250125,512.2557050458485 487.4098300562513,502.745139882897" stroke="black" stroke-linecap="round" stroke-width="1" /><polyline clip-path="url(#border_clip)" fill="none" points="487.4098300562513,502.745139882897 479.31966011250205,496.8672873599717 482.409830056251,506.37785252292355 490.5000000000009,500.4999999999992 500.500000000001,500.4999999999998 510.50000000000114,500.50000000000034 513.5901699437511,490.9894348370489 505.50000000000125,496.8672873599732 513.5901699437505,502.74513988289846 516.6803398874995,512.2557050458503 519.7705098312484,521.7662702088021 529.7705098312485,521.7662702088027 521.6803398874993,515.8884176858775 518.5901699437493,525.3989828488288 510.4999999999993,531.2768353717532 502.40983005624946,537.1546878946775 505.4999999999984,546.6652530576293 508.59016994374844,537.1546878946779 498.5901699437483,537.1546878946773 490.49999999999915,531.276835371752 482.4098300562499,525.3989828488268 474.3196601125,531.2768353717511 484.3196601125001,531.2768353717516 481.22949016875117,521.7662702087998 484.3196601125012,512.2557050458483 487.4098300562513,502.7451398828969 479.3196601125021,496.86728735997167 482.40983005625105,506.3778525229235 490.5000000000009,500.49999999999915 500.500000000001,500.4999999999998 510.50000000000114,500.50000000000034 513.5901699437512,490.9894348370489 505.5000000000013,496.8672873599732 513.5901699437505,502.7451398828985 516.6803398874995,512.2557050458503 519.7705098312484,521.7662702088021 529.7705098312485,521.7662702088028 521.6803398874993,515.8884176858775 518.5901699437492,525.398982848829 510.4999999999993,531.2768353717532 502.4098300562494,537.1546878946775 505.4999999999983,546.6652530576293 508.5901699437484,537.1546878946779" stroke="black" stroke-linecap="round" stroke-width="1" /><polyline clip-path="url(#border_clip)" fill="none" points="508.5901699437484,537.1546878946779 498.59016994374826,537.1546878946773 490.4999999999991,531.276835371752 482.4098300562499,525.3989828488267 474.31966011249995,531.2768353717511 484.31966011250006,531.2768353717516 481.22949016875117,521.7662702087998 484.31966011250125,512.2557050458483 487.40983005625134,502.7451398828969 479.3196601125021,496.8672873599716 482.40983005625105,506.37785252292343 490.50000000000097,500.49999999999915 500.5000000000011,500.4999999999998 510.5000000000012,500.5000000000004 513.5901699437513,490.9894348370489 505.50000000000136,496.8672873599732 513.5901699437505,502.7451398828985 516.6803398874995,512.2557050458504 519.7705098312484,521.7662702088022 529.7705098312485,521.7662702088028 521.6803398874993,515.8884176858775 518.5901699437492,525.398982848829 510.49999999999926,531.2768353717532 502.40983005624935,537.1546878946775 505.49999999999824,546.6652530576293 508.5901699437484,537.154687894678 498.59016994374826,537.1546878946773 490.49999999999903,531.276835371752 482.40983005624986,525.3989828488267 474.3196601124999,531.276835371751 484.3196601125,531.2768353717516 481.2294901687511,521.7662702087997 484.31966011250125,512.2557050458483 487.4098300562514,502.74513988289686 479.31966011250216,496.86728735997156 482.40983005625105,506.3778525229234 490.500000000001,500.4999999999991 500.50000000000114,500.4999999999997 510.50000000000125,500.5000000000004 513.5901699437513,490.9894348370489 505.5000000000014,496.8672873599732 513.5901699437507,502.74513988289857 516.6803398874995,512.2557050458504" stroke="black" stroke-linecap="round" stroke-width="1" /><polyline clip-path="url(#border_clip)" fill="none" points="516.6803398874995,512.2557050458504 519.7705098312484,521.7662702088022 529.7705098312485,521.7662702088029 521.6803398874994,515.8884176858776 518.5901699437492,525.3989828488291 510.49999999999926,531.2768353717534 502.4098300562493,537.1546878946775 505.4999999999982,546.6652530576295 508.5901699437483,537.154687894678 498.5901699437482,537.1546878946773 490.499999999999,531.276835371752 482.4098300562498,525.3989828488267 474.31966011249983,531.2768353717508 484.3196601125,531.2768353717515 481.2294901687511,521.7662702087997 484.31966011250125,512.2557050458482 487.4098300562514,502.7451398828968 479.3196601125022,496.8672873599715 482.4098300562511,506.3778525229233 490.5000000000011,500.4999999999991 500.5000000000012,500.4999999999998 510.5000000000013,500.5000000000004 513.5901699437514,490.989434837049 505.5000000000015,496.8672873599732 513.5901699437507,502.74513988289857 516.6803398874995,512.2557050458504 519.7705098312484,521.7662702088023 529.7705098312485,521.766270208803 521.6803398874994,515.8884176858776 518.5901699437492,525.3989828488291 510.4999999999992,531.2768353717534 502.40983005624923,537.1546878946776 505.49999999999807,546.6652530576295 508.59016994374826,537.154687894678 498.59016994374815,537.1546878946773 490.499999999999,531.276835371752 482.4098300562498,525.3989828488266 474.3196601124998,531.2768353717508 484.31966011249995,531.2768353717515 481.22949016875106,521.7662702087997 484.31966011250125,512.2557050458482 487.4098300562514,502.74513988289675 479.3196601125022,496.8672873599714" stroke="black" stroke-linecap="round" stroke-width="1" /><polyline clip-path="url(#border_clip)" fill="none" points="479.3196601125022,496.8672873599714 482.4098300562511,506.37785252292326 490.5000000000011,500.49999999999903 500.50000000000125,500.4999999999997 510.50000000000136,500.50000000000045 513.5901699437516,490.989434837049 505.50000000000153,496.8672873599732 513.5901699437508,502.7451398828986 516.6803398874996,512.2557050458505 519.7705098312484,521.7662702088023 529.7705098312485,521.7662702088031 521.6803398874994,515.8884176858777 518.5901699437492,525.3989828488292 510.4999999999992,531.2768353717534 502.4098300562492,537.1546878946776 505.499999999998,546.6652530576295 508.5901699437482,537.1546878946781 498.5901699437481,537.1546878946773 490.4999999999989,531.276835371752 482.40983005624975,525.3989828488266 474.3196601124998,531.2768353717507 484.3196601124999,531.2768353717515 481.22949016875106,521.7662702087996 484.31966011250125,512.2557050458481 487.40983005625145,502.74513988289675 479.31966011250233,496.86728735997133 482.4098300562511,506.3778525229232 490.50000000000114,500.499999999999 500.50000000000125,500.4999999999997 510.5000000000014,500.50000000000045 513.5901699437516,490.98943483704903 505.5000000000016,496.86728735997326 513.5901699437508,502.7451398828986 516.6803398874996,512.2557050458505 519.7705098312484,521.7662702088024 529.7705098312485,521.7662702088031 521.6803398874994,515.8884176858777 518.5901699437492,525.3989828488292 510.49999999999915,531.2768353717534 502.4098300562491,537.1546878946776 505.49999999999795,546.6652530576295 508.59016994374815,537.1546878946781 498.59016994374804,537.1546878946773" stroke="black" stroke-linecap="round" stroke-width="1" /><polyline clip-path="url(#border_clip)" fill="none" points="498.59016994374804,537.1546878946773 490.49999999999886,531.2768353717519 482.40983005624975,525.3989828488264 474.3196601124997,531.2768353717507 484.31966011249983,531.2768353717514 481.22949016875106,521.7662702087996 484.31966011250125,512.2557050458481 487.4098300562515,502.7451398828967 479.31966011250233,496.8672873599713 482.40983005625117,506.37785252292315 490.5000000000012,500.499999999999 500.5000000000013,500.4999999999997 510.5000000000015,500.50000000000045 513.5901699437517,490.98943483704903 505.5000000000017,496.86728735997326 513.5901699437508,502.7451398828987 516.6803398874996,512.2557050458506 519.7705098312484,521.7662702088024 529.7705098312485,521.7662702088032 521.6803398874994,515.8884176858778 518.5901699437492,525.3989828488293 510.49999999999915,531.2768353717535 502.40983005624906,537.1546878946776 505.4999999999979,546.6652530576296 508.59016994374815,537.1546878946781 498.590169943748,537.1546878946773 490.49999999999886,531.2768353717519 482.4098300562497,525.3989828488264 474.31966011249966,531.2768353717506 484.31966011249983,531.2768353717514 481.229490168751,521.7662702087995 484.31966011250125,512.2557050458481 487.4098300562515,502.74513988289664 479.3196601125024,496.8672873599712 482.40983005625117,506.3778525229231 490.50000000000125,500.4999999999989 500.50000000000136,500.4999999999997 510.50000000000153,500.5000000000005 513.5901699437518,490.9894348370491 505.5000000000017,496.86728735997326 513.5901699437509,502.7451398828987 516.6803398874996,512.2557050458506 519.7705098312484,521.7662702088026" stroke="black" stroke-linecap="round" stroke-width="1" /><polyline clip-path="url(#border_clip)" fill="none" points="519.7705098312484,521.7662702088026 529.7705098312485,521.7662702088033 521.6803398874994,515.8884176858778 518.5901699437492,525.3989828488293 510.4999999999991,531.2768353717535 502.409830056249,537.1546878946776 505.4999999999978,546.6652530576296 508.59016994374804,537.1546878946781 498.5901699437479,537.1546878946773 490.4999999999988,531.2768353717519 482.4098300562497,525.3989828488264 474.3196601124996,531.2768353717506 484.3196601124997,531.2768353717514 481.229490168751,521.7662702087995 484.31966011250125,512.255705045848 487.40983005625156,502.7451398828966 479.31966011250245,496.8672873599711 482.40983005625117,506.37785252292304 490.50000000000125,500.49999999999886 500.5000000000014,500.4999999999997 510.50000000000153,500.5000000000005 513.5901699437519,490.9894348370491 505.50000000000176,496.86728735997326 513.5901699437509,502.74513988289874 516.6803398874996,512.2557050458506 519.7705098312484,521.7662702088026 529.7705098312485,521.7662702088033 521.6803398874994,515.8884176858779 518.5901699437492,525.3989828488293 510.49999999999903,531.2768353717535 502.40983005624895,537.1546878946776 505.4999999999977,546.6652530576296 508.590169943748,537.1546878946782 498.59016994374787,537.1546878946773 490.49999999999875,531.2768353717519 482.40983005624963,525.3989828488263 474.31966011249955,531.2768353717505 484.3196601124997,531.2768353717513 481.229490168751,521.7662702087994 484.3196601125013,512.255705045848 487.4098300562516,502.7451398828966 479.3196601125025,496.86728735997104 482.4098300562512,506.377852522923" stroke="black" stroke-linecap="round" stroke-width="1" /><polyline clip-path="url(#border_clip)" fill="none" points="482.4098300562512,506.377852522923 490.5000000000013,500.49999999999886 500.5000000000015,500.4999999999997" stroke="black" stroke-linecap="round" stroke-width="1" /></svg>