<?xml version="1.0" encoding="UTF-8"?>
<svg width="1e4px" height="1e4px" baseProfile="full" version="1.1" viewBox="4984.3 4991 55.451 55.676" xmlns="http://www.w3.org/2000/svg">
<defs>
<clipPath id="a">
<rect width="1e4" height="1e4"/>
</clipPath>
</defs>
<polyline points="5000.5 5000.5 5010.5 5000.5 5020.5 5000.5 5023.6 4991 5015.5 4996.9 5023.6 5002.7 5026.7 5012.3 5029.8 5021.8 5039.8 5021.8 5031.7 5015.9 5028.6 5025.4 5020.5 5031.3 5012.4 5037.2 5015.5 5046.7 5018.6 5037.2 5008.6 5037.2 5000.5 5031.3 4992.4 5025.4 4984.3 5031.3 4994.3 5031.3 4991.2 5021.8 4994.3 5012.3 4997.4 5002.7 4989.3 4996.9 4992.4 5006.4 5000.5 5000.5 5010.5 5000.5 5020.5 5000.5 5023.6 4991 5015.5 4996.9 5023.6 5002.7 5026.7 5012.3 5029.8 5021.8 5039.8 5021.8 5031.7 5015.9 5028.6 5025.4 5020.5 5031.3 5012.4 5037.2 5015.5 5046.7 5018.6 5037.2 5008.6 5037.2 5000.5 5031.3 4992.4 5025.4" clip-path="url(#a)" fill="none" stroke="#000" stroke-linecap="round"/>
<polyline points="4992.4 5025.4 4984.3 5031.3 4994.3 5031.3 4991.2 5021.8 4994.3 5012.3 4997.4 5002.7 4989.3 4996.9 4992.4 5006.4 5000.5 5000.5 5010.5 5000.5 5020.5 5000.5 5023.6 4991 5015.5 4996.9 5023.6 5002.7 5026.7 5012.3 5029.8 5021.8 5039.8 5021.8 5031.7 5015.9 5028.6 5025.4 5020.5 5031.3 5012.4 5037.2 5015.5 5046.7 5018.6 5037.2 5008.6 5037.2 5000.5 5031.3 4992.4 5025.4 4984.3 5031.3 4994.3 5031.3 4991.2 5021.8 4994.3 5012.3 4997.4 5002.7 4989.3 4996.9 4992.4 5006.4 5000.5 5000.5 5010.5 5000.5 5020.5 5000.5 5023.6 4991 5015.5 4996.9 5023.6 5002.7 5026.7 5012.3 5029.8 5021.8 5039.8 5021.8 5031.7 5015.9" clip-path="url(#a)" fill="none" stroke="#000" stroke-linecap="round"/>
<polyline points="5031.7 5015.9 5028.6 5025.4 5020.5 5031.3 5012.4 5037.2 5015.5 5046.7 5018.6 5037.2 5008.6 5037.2 5000.5 5031.3 4992.4 5025.4 4984.3 5031.3 4994.3 5031.3 4991.2 5021.8 4994.3 5012.3 4997.4 5002.7 4989.3 4996.9 4992.4 5006.4 5000.5 5000.5 5010.5 5000.5 5020.5 5000.5 5023.6 4991 5015.5 4996.9 5023.6 5002.7 5026.7 5012.3 5029.8 5021.8 5039.8 5021.8 5031.7 5015.9 5028.6 5025.4 5020.5 5031.3 5012.4 5037.2 5015.5 5046.7 5018.6 5037.2 5008.6 5037.2 5000.5 5031.3 4992.4 5025.4 4984.3 5031.3 4994.3 5031.3 4991.2 5021.8 4994.3 5012.3 4997.4 5002.7 4989.3 4996.9 4992.4 5006.4 5000.5 5000.5 5010.5 5000.5" clip-path="url(#a)" fill="none" stroke="#000" stroke-linecap="round"/>
<polyline points="5010.5 5000.5 5020.5 5000.5 5023.6 4991 5015.5 4996.9 5023.6 5002.7 5026.7 5012.3 5029.8 5021.8 5039.8 5021.8 5031.7 5015.9 5028.6 5025.4 5020.5 5031.3 5012.4 5037.2 5015.5 5046.7 5018.6 5037.2 5008.6 5037.2 5000.5 5031.3 4992.4 5025.4 4984.3 5031.3 4994.3 5031.3 4991.2 5021.8 4994.3 5012.3 4997.4 5002.7 4989.3 4996.9 4992.4 5006.4 5000.5 5000.5 5010.5 5000.5 5020.5 5000.5 5023.6 4991 5015.5 4996.9 5023.6 5002.7 5026.7 5012.3 5029.8 5021.8 5039.8 5021.8 5031.7 5015.9 5028.6 5025.4 5020.5 5031.3 5012.4 5037.2 5015.5 5046.7 5018.6 5037.2 5008.6 5037.2 5000.5 5031.3 4992.4 5025.4 4984.3 5031.3" clip-path="url(#a)" fill="none" stroke="#000" stroke-linecap="round"/>
<polyline points="4984.3 5031.3 4994.3 5031.3 4991.2 5021.8 4994.3 5012.3 4997.4 5002.7 4989.3 4996.9 4992.4 5006.4 5000.5 5000.5 5010.5 5000.5 5020.5 5000.5 5023.6 4991 5015.5 4996.9 5023.6 5002.7 5026.7 5012.3 5029.8 5021.8 5039.8 5021.8 5031.7 5015.9 5028.6 5025.4 5020.5 5031.3 5012.4 5037.2 5015.5 5046.7 5018.6 5037.2 5008.6 5037.2 5000.5 5031.3 4992.4 5025.4 4984.3 5031.3 4994.3 5031.3 4991.2 5021.8 4994.3 5012.3 4997.4 5002.7 4989.3 4996.9 4992.4 5006.4 5000.5 5000.5 5010.5 5000.5 5020.5 5000.5 5023.6 4991 5015.5 4996.9 5023.6 5002.7 5026.7 5012.3 5029.8 5021.8 5039.8 5021.8 5031.7 5015.9 5028.6 5025.4" clip-path="url(#a)" fill="none" stroke="#000" stroke-linecap="round"/>
<polyline points="5028.6 5025.4 5020.5 5031.3 5012.4 5037.2 5015.5 5046.7 5018.6 5037.2 5008.6 5037.2 5000.5 5031.3 4992.4 5025.4 4984.3 5031.3 4994.3 5031.3 4991.2 5021.8 4994.3 5012.3 4997.4 5002.7 4989.3 4996.9 4992.4 5006.4 5000.5 5000.5 5010.5 5000.5 5020.5 5000.5 5023.6 4991 5015.5 4996.9 5023.6 5002.7 5026.7 5012.3 5029.8 5021.8 5039.8 5021.8 5031.7 5015.9 5028.6 5025.4 5020.5 5031.3 5012.4 5037.2 5015.5 5046.7 5018.6 5037.2 5008.6 5037.2 5000.5 5031.3 4992.4 5025.4 4984.3 5031.3 4994.3 5031.3 4991.2 5021.8 4994.3 5012.3 4997.4 5002.7 4989.3 4996.9 4992.4 5006.4 5000.5 5000.5 5010.5 5000.5 5020.5 5000.5" clip-path="url(#a)" fill="none" stroke="#000" stroke-linecap="round"/>
<polyline points="5020.5 5000.5 5023.6 4991 5015.5 4996.9 5023.6 5002.7 5026.7 5012.3 5029.8 5021.8 5039.8 5021.8 5031.7 5015.9 5028.6 5025.4 5020.5 5031.3 5012.4 5037.2 5015.5 5046.7 5018.6 5037.2 5008.6 5037.2 5000.5 5031.3 4992.4 5025.4 4984.3 5031.3 4994.3 5031.3 4991.2 5021.8 4994.3 5012.3 4997.4 5002.7 4989.3 4996.9 4992.4 5006.4 5000.5 5000.5 5010.5 5000.5 5020.5 5000.5 5023.6 4991 5015.5 4996.9 5023.6 5002.7 5026.7 5012.3 5029.8 5021.8 5039.8 5021.8 5031.7 5015.9 5028.6 5025.4 5020.5 5031.3 5012.4 5037.2 5015.5 5046.7 5018.6 5037.2 5008.6 5037.2 5000.5 5031.3 4992.4 5025.4 4984.3 5031.3 4994.3 5031.3" clip-path="url(#a)" fill="none" stroke="#000" stroke-linecap="round"/>
<polyline points="4994.3 5031.3 4991.2 5021.8 4994.3 5012.3 4997.4 5002.7 4989.3 4996.9 4992.4 5006.4 5000.5 5000.5 5010.5 5000.5 5020.5 5000.5 5023.6 4991 5015.5 4996.9 5023.6 5002.7 5026.7 5012.3 5029.8 5021.8 5039.8 5021.8 5031.7 5015.9 5028.6 5025.4 5020.5 5031.3 5012.4 5037.2 5015.5 5046.7 5018.6 5037.2 5008.6 5037.2 5000.5 5031.3 4992.4 5025.4 4984.3 5031.3 4994.3 5031.3 4991.2 5021.8 4994.3 5012.3 4997.4 5002.7 4989.3 4996.9 4992.4 5006.4 5000.5 5000.5 5010.5 5000.5 5020.5 5000.5 5023.6 4991 5015.5 4996.9 5023.6 5002.7 5026.7 5012.3 5029.8 5021.8 5039.8 5021.8 5031.7 5015.9 5028.6 5025.4 5020.5 5031.3" clip-path="url(#a)" fill="none" stroke="#000" stroke-linecap="round"/>
<polyline points="5020.5 5031.3 5012.4 5037.2 5015.5 5046.7 5018.6 5037.2 5008.6 5037.2 5000.5 5031.3 4992.4 5025.4 4984.3 5031.3 4994.3 5031.3 4991.2 5021.8 4994.3 5012.3 4997.4 5002.7 4989.3 4996.9 4992.4 5006.4 5000.5 5000.5 5010.5 5000.5 5020.5 5000.5 5023.6 4991 5015.5 4996.9 5023.6 5002.7 5026.7 5012.3 5029.8 5021.8 5039.8 5021.8 5031.7 5015.9 5028.6 5025.4 5020.5 5031.3 5012.4 5037.2 5015.5 5046.7 5018.6 5037.2 5008.6 5037.2 5000.5 5031.3 4992.4 5025.4 4984.3 5031.3 4994.3 5031.3 4991.2 5021.8 4994.3 5012.3 4997.4 5002.7 4989.3 4996.9 4992.4 5006.4 5000.5 5000.5 5010.5 5000.5 5020.5 5000.5 5023.6 4991" clip-path="url(#a)" fill="none" stroke="#000" stroke-linecap="round"/>
<polyline points="5023.6 4991 5015.5 4996.9 5023.6 5002.7 5026.7 5012.3 5029.8 5021.8 5039.8 5021.8 5031.7 5015.9 5028.6 5025.4 5020.5 5031.3 5012.4 5037.2 5015.5 5046.7 5018.6 5037.2 5008.6 5037.2 5000.5 5031.3 4992.4 5025.4 4984.3 5031.3 4994.3 5031.3 4991.2 5021.8 4994.3 5012.3 4997.4 5002.7 4989.3 4996.9 4992.4 5006.4 5000.5 5000.5 5010.5 5000.5 5020.5 5000.5 5023.6 4991 5015.5 4996.9 5023.6 5002.7 5026.7 5012.3 5029.8 5021.8 5039.8 5021.8 5031.7 5015.9 5028.6 5025.4 5020.5 5031.3 5012.4 5037.2 5015.5 5046.7 5018.6 5037.2 5008.6 5037.2 5000.5 5031.3 4992.4 5025.4 4984.3 5031.3 4994.3 5031.3 4991.2 5021.8" clip-path="url(#a)" fill="none" stroke="#000" stroke-linecap="round"/>
<polyline points="4991.2 5021.8 4994.3 5012.3 4997.4 5002.7 4989.3 4996.9 4992.4 5006.4 5000.5 5000.5 5010.5 5000.5 5020.5 5000.5 5023.6 4991 5015.5 4996.9 5023.6 5002.7 5026.7 5012.3 5029.8 5021.8 5039.8 5021.8 5031.7 5015.9 5028.6 5025.4 5020.5 5031.3 5012.4 5037.2 5015.5 5046.7 5018.6 5037.2 5008.6 5037.2 5000.5 5031.3 4992.4 5025.4 4984.3 5031.3 4994.3 5031.3 4991.2 5021.8 4994.3 5012.3 4997.4 5002.7 4989.3 4996.9 4992.4 5006.4 5000.5 5000.5 5010.5 5000.5 5020.5 5000.5 5023.6 4991 5015.5 4996.9 5023.6 5002.7 5026.7 5012.3 5029.8 5021.8 5039.8 5021.8 5031.7 5015.9 5028.6 5025.4 5020.5 5031.3 5012.4 5037.2" clip-path="url(#a)" fill="none" stroke="#000" stroke-linecap="round"/>
<polyline points="5012.4 5037.2 5015.5 5046.7 5018.6 5037.2 5008.6 5037.2 5000.5 5031.3 4992.4 5025.4 4984.3 5031.3 4994.3 5031.3 4991.2 5021.8 4994.3 5012.3 4997.4 5002.7 4989.3 4996.9 4992.4 5006.4 5000.5 5000.5 5010.5 5000.5 5020.5 5000.5 5023.6 4991 5015.5 4996.9 5023.6 5002.7 5026.7 5012.3 5029.8 5021.8 5039.8 5021.8 5031.7 5015.9 5028.6 5025.4 5020.5 5031.3 5012.4 5037.2 5015.5 5046.7 5018.6 5037.2 5008.6 5037.2 5000.5 5031.3 4992.4 5025.4 4984.3 5031.3 4994.3 5031.3 4991.2 5021.8 4994.3 5012.3 4997.4 5002.7 4989.3 4996.9 4992.4 5006.4 5000.5 5000.5 5010.5 5000.5 5020.5 5000.5 5023.6 4991 5015.5 4996.9" clip-path="url(#a)" fill="none" stroke="#000" stroke-linecap="round"/>
<polyline points="5015.5 4996.9 5023.6 5002.7 5026.7 5012.3 5029.8 5021.8 5039.8 5021.8 5031.7 5015.9 5028.6 5025.4 5020.5 5031.3 5012.4 5037.2 5015.5 5046.7 5018.6 5037.2 5008.6 5037.2 5000.5 5031.3 4992.4 5025.4 4984.3 5031.3 4994.3 5031.3 4991.2 5021.8 4994.3 5012.3 4997.4 5002.7 4989.3 4996.9 4992.4 5006.4 5000.5 5000.5 5010.5 5000.5 5020.5 5000.5 5023.6 4991 5015.5 4996.9 5023.6 5002.7 5026.7 5012.3 5029.8 5021.8 5039.8 5021.8 5031.7 5015.9 5028.6 5025.4 5020.5 5031.3 5012.4 5037.2 5015.5 5046.7 5018.6 5037.2 5008.6 5037.2 5000.5 5031.3 4992.4 5025.4 4984.3 5031.3 4994.3 5031.3 4991.2 5021.8 4994.3 5012.3" clip-path="url(#a)" fill="none" stroke="#000" stroke-linecap="round"/>
<polyline points="4994.3 5012.3 4997.4 5002.7 4989.3 4996.9 4992.4 5006.4 5000.5 5000.5 5010.5 5000.5 5020.5 5000.5 5023.6 4991 5015.5 4996.9 5023.6 5002.7 5026.7 5012.3 5029.8 5021.8 5039.8 5021.8 5031.7 5015.9 5028.6 5025.4 5020.5 5031.3 5012.4 5037.2 5015.5 5046.7 5018.6 5037.2 5008.6 5037.2 5000.5 5031.3 4992.4 5025.4 4984.3 5031.3 4994.3 5031.3 4991.2 5021.8 4994.3 5012.3 4997.4 5002.7 4989.3 4996.9 4992.4 5006.4 5000.5 5000.5 5010.5 5000.5 5020.5 5000.5 5023.6 4991 5015.5 4996.9 5023.6 5002.7 5026.7 5012.3 5029.8 5021.8 5039.8 5021.8 5031.7 5015.9 5028.6 5025.4 5020.5 5031.3 5012.4 5037.2 5015.5 5046.7" clip-path="url(#a)" fill="none" stroke="#000" stroke-linecap="round"/>
<polyline points="5015.5 5046.7 5018.6 5037.2 5008.6 5037.2 5000.5 5031.3 4992.4 5025.4 4984.3 5031.3 4994.3 5031.3 4991.2 5021.8 4994.3 5012.3 4997.4 5002.7 4989.3 4996.9 4992.4 5006.4 5000.5 5000.5 5010.5 5000.5 5020.5 5000.5 5023.6 4991 5015.5 4996.9 5023.6 5002.7 5026.7 5012.3 5029.8 5021.8 5039.8 5021.8 5031.7 5015.9 5028.6 5025.4 5020.5 5031.3 5012.4 5037.2 5015.5 5046.7 5018.6 5037.2 5008.6 5037.2 5000.5 5031.3 4992.4 5025.4 4984.3 5031.3 4994.3 5031.3 4991.2 5021.8 4994.3 5012.3 4997.4 5002.7 4989.3 4996.9 4992.4 5006.4 5000.5 5000.5 5010.5 5000.5 5020.5 5000.5 5023.6 4991 5015.5 4996.9 5023.6 5002.7" clip-path="url(#a)" fill="none" stroke="#000" stroke-linecap="round"/>
<polyline points="5023.6 5002.7 5026.7 5012.3 5029.8 5021.8 5039.8 5021.8 5031.7 5015.9 5028.6 5025.4 5020.5 5031.3 5012.4 5037.2 5015.5 5046.7 5018.6 5037.2 5008.6 5037.2 5000.5 5031.3 4992.4 5025.4 4984.3 5031.3 4994.3 5031.3 4991.2 5021.8 4994.3 5012.3 4997.4 5002.7 4989.3 4996.9 4992.4 5006.4 5000.5 5000.5 5010.5 5000.5 5020.5 5000.5 5023.6 4991 5015.5 4996.9 5023.6 5002.7 5026.7 5012.3 5029.8 5021.8 5039.8 5021.8 5031.7 5015.9 5028.6 5025.4 5020.5 5031.3 5012.4 5037.2 5015.5 5046.7 5018.6 5037.2 5008.6 5037.2 5000.5 5031.3 4992.4 5025.4 4984.3 5031.3 4994.3 5031.3 4991.2 5021.8 4994.3 5012.3 4997.4 5002.7" clip-path="url(#a)" fill="none" stroke="#000" stroke-linecap="round"/>
<polyline points="4997.4 5002.7 4989.3 4996.9 4992.4 5006.4 5000.5 5000.5 5010.5 5000.5 5020.5 5000.5 5023.6 4991 5015.5 4996.9 5023.6 5002.7 5026.7 5012.3 5029.8 5021.8 5039.8 5021.8 5031.7 5015.9 5028.6 5025.4 5020.5 5031.3 5012.4 5037.2 5015.5 5046.7 5018.6 5037.2 5008.6 5037.2 5000.5 5031.3 4992.4 5025.4 4984.3 5031.3 4994.3 5031.3 4991.2 5021.8 4994.3 5012.3 4997.4 5002.7 4989.3 4996.9 4992.4 5006.4 5000.5 5000.5 5010.5 5000.5 5020.5 5000.5 5023.6 4991 5015.5 4996.9 5023.6 5002.7 5026.7 5012.3 5029.8 5021.8 5039.8 5021.8 5031.7 5015.9 5028.6 5025.4 5020.5 5031.3 5012.4 5037.2 5015.5 5046.7 5018.6 5037.2" clip-path="url(#a)" fill="none" stroke="#000" stroke-linecap="round"/>
<polyline points="5018.6 5037.2 5008.6 5037.2 5000.5 5031.3 4992.4 5025.4 4984.3 5031.3 4994.3 5031.3 4991.2 5021.8 4994.3 5012.3 4997.4 5002.7 4989.3 4996.9 4992.4 5006.4 5000.5 5000.5 5010.5 5000.5 5020.5 5000.5 5023.6 4991 5015.5 4996.9 5023.6 5002.7 5026.7 5012.3 5029.8 5021.8 5039.8 5021.8 5031.7 5015.9 5028.6 5025.4 5020.5 5031.3 5012.4 5037.2 5015.5 5046.7 5018.6 5037.2 5008.6 5037.2 5000.5 5031.3 4992.4 5025.4 4984.3 5031.3 4994.3 5031.3 4991.2 5021.8 4994.3 5012.3 4997.4 5002.7 4989.3 4996.9 4992.4 5006.4 5000.5 5000.5 5010.5 5000.5 5020.5 5000.5 5023.6 4991 5015.5 4996.9 5023.6 5002.7 5026.7 5012.3" clip-path="url(#a)" fill="none" stroke="#000" stroke-linecap="round"/>
<polyline points="5026.7 5012.3 5029.8 5021.8 5039.8 5021.8 5031.7 5015.9 5028.6 5025.4 5020.5 5031.3 5012.4 5037.2 5015.5 5046.7 5018.6 5037.2 5008.6 5037.2 5000.5 5031.3 4992.4 5025.4 4984.3 5031.3 4994.3 5031.3 4991.2 5021.8 4994.3 5012.3 4997.4 5002.7 4989.3 4996.9 4992.4 5006.4 5000.5 5000.5 5010.5 5000.5 5020.5 5000.5 5023.6 4991 5015.5 4996.9 5023.6 5002.7 5026.7 5012.3 5029.8 5021.8 5039.8 5021.8 5031.7 5015.9 5028.6 5025.4 5020.5 5031.3 5012.4 5037.2 5015.5 5046.7 5018.6 5037.2 5008.6 5037.2 5000.5 5031.3 4992.4 5025.4 4984.3 5031.3 4994.3 5031.3 4991.2 5021.8 4994.3 5012.3 4997.4 5002.7 4989.3 4996.9" clip-path="url(#a)" fill="none" stroke="#000" stroke-linecap="round"/>
<polyline points="4989.3 4996.9 4992.4 5006.4 5000.5 5000.5" clip-path="url(#a)" fill="none" stroke="#000" stroke-linecap="round"/>
</svg>
