<?xml version="1.0" encoding="utf-8" ?>
<svg baseProfile="full" height="10000px" version="1.1" width="10000px" xmlns="http://www.w3.org/2000/svg" xmlns:ev="http://www.w3.org/2001/xml-events" xmlns:xlink="http://www.w3.org/1999/xlink"><defs><clipPath id="border_clip"><rect height="10000" width="10000" x="0" y="0" /></clipPath></defs><polyline clip-path="url(#border_clip)" fill="none" points="5000.5,5000.5 5010.5,5000.5 5020.5,5000.5 5023.590169943749,4990.989434837048 5013.590169943749,4990.989434837048 5010.5,5000.5 5013.590169943749,4990.989434837048 5010.5,5000.5 5000.5,5000.5 4992.409830056251,5006.3778525229245 5000.5,5012.255705045849 5003.590169943749,5021.766270208801 5000.5,5012.255705045849 4992.409830056251,5018.133557568774 5002.409830056251,5018.133557568774 5005.5,5027.6441227317255 4997.40983005625,5033.521975254651 5005.5,5039.399827777575 4997.40983005625,5045.2776803005 5000.5,5054.788245463452 5003.590169943749,5064.298810626403 5000.5,5073.809375789355 5010.5,5073.809375789355 5020.5,5073.809375789355 5023.590169943749,5064.298810626403 5013.590169943749,5064.298810626403 5010.5,5073.809375789355 5013.590169943749,5064.298810626403 5010.5,5073.809375789355 5000.5,5073.809375789355 4992.40983005625,5079.687228312279 5000.5,5085.565080835204 5003.590169943749,5095.075645998156 5000.5,5085.565080835204 4992.40983005625,5091.442933358128 5002.40983005625,5091.442933358128 5005.5,5100.95349852108 4997.40983005625,5106.831351044005 5005.5,5112.709203566929 4997.40983005625,5118.587056089855 5000.5,5128.097621252806 5003.590169943749,5137.608186415758 5000.5,5147.118751578709" stroke="black" stroke-linecap="round" stroke-width="1" /><polyline clip-path="url(#border_clip)" fill="none" points="5000.5,5147.118751578709 5010.5,5147.118751578709 5020.5,5147.11875157871 5023.590169943749,5137.608186415758 5013.590169943749,5137.608186415758 5010.5,5147.118751578709 5013.590169943749,5137.608186415758 5010.5,5147.118751578709 5000.5,5147.118751578709 4992.40983005625,5152.996604101634 5000.5,5158.874456624559 5003.590169943749,5168.38502178751 5000.5,5158.874456624559 4992.40983005625,5164.752309147483 5002.40983005625,5164.752309147483 5005.499999999999,5174.262874310435 4997.40983005625,5180.14072683336 5005.499999999999,5186.018579356284 4997.40983005625,5191.896431879209 5000.499999999999,5201.406997042161 5003.590169943749,5210.9175622051125 5000.499999999999,5220.4281273680635 5010.499999999999,5220.4281273680635 5020.499999999999,5220.4281273680635 5023.590169943749,5210.9175622051125 5013.590169943749,5210.9175622051125 5010.499999999999,5220.4281273680635 5013.590169943749,5210.9175622051125 5010.499999999999,5220.4281273680635 5000.499999999999,5220.4281273680635 4992.40983005625,5226.305979890988 5000.499999999999,5232.1838324139135 5003.590169943748,5241.6943975768645 5000.499999999999,5232.1838324139135 4992.409830056249,5238.061684936838 5002.409830056249,5238.061684936838 5005.499999999999,5247.572250099789 4997.409830056249,5253.450102622714 5005.499999999999,5259.327955145639 4997.409830056249,5265.2058076685635 5000.499999999999,5274.716372831515 5003.590169943748,5284.226937994466 5000.499999999998,5293.737503157418" stroke="black" stroke-linecap="round" stroke-width="1" /><polyline clip-path="url(#border_clip)" fill="none" points="5000.499999999998,5293.737503157418 5010.499999999998,5293.737503157418 5020.499999999998,5293.737503157418 5023.590169943748,5284.226937994467 5013.590169943748,5284.226937994466 5010.499999999998,5293.737503157418 5013.590169943748,5284.226937994466 5010.499999999998,5293.737503157418 5000.499999999998,5293.737503157418 4992.409830056249,5299.615355680343 5000.499999999998,5305.493208203267 5003.590169943748,5315.003773366219 5000.499999999998,5305.493208203267 4992.409830056249,5311.371060726193 5002.409830056249,5311.371060726193 5005.499999999998,5320.881625889144 4997.409830056249,5326.759478412068 5005.499999999998,5332.637330934994 4997.409830056248,5338.515183457918 5000.499999999998,5348.02574862087 5003.590169943747,5357.536313783821 5000.499999999997,5367.046878946773 5010.499999999997,5367.046878946773 5020.499999999998,5367.046878946773 5023.590169943747,5357.536313783821 5013.590169943747,5357.536313783821 5010.499999999997,5367.046878946773 5013.590169943747,5357.536313783821 5010.499999999997,5367.046878946773 5000.499999999997,5367.046878946773 4992.409830056248,5372.924731469698 5000.499999999997,5378.802583992622 5003.590169943747,5388.313149155574 5000.499999999997,5378.802583992622 4992.409830056248,5384.680436515547 5002.409830056248,5384.680436515548 5005.499999999997,5394.191001678499 4997.409830056248,5400.068854201423 5005.499999999997,5405.946706724349 4997.409830056247,5411.824559247273 5000.499999999997,5421.335124410224 5003.590169943746,5430.845689573176 5000.499999999996,5440.356254736127" stroke="black" stroke-linecap="round" stroke-width="1" /><polyline clip-path="url(#border_clip)" fill="none" points="5000.499999999996,5440.356254736127 5010.499999999996,5440.356254736128 5020.499999999996,5440.356254736128 5023.590169943746,5430.845689573176 5013.590169943746,5430.845689573176 5010.499999999996,5440.356254736128 5013.590169943746,5430.845689573176 5010.499999999996,5440.356254736128 5000.499999999996,5440.356254736127 4992.409830056247,5446.2341072590525 5000.499999999996,5452.111959781977 5003.590169943746,5461.622524944929 5000.499999999996,5452.111959781977 4992.409830056247,5457.9898123049015 5002.409830056247,5457.9898123049015 5005.499999999996,5467.5003774678535 4997.409830056246,5473.378229990778 5005.499999999996,5479.2560825137025 4997.409830056246,5485.133935036627 5000.499999999996,5494.644500199579 5003.590169943745,5504.155065362531 5000.499999999995,5513.665630525482 5010.499999999995,5513.665630525482 5020.499999999995,5513.665630525482 5023.590169943745,5504.155065362531 5013.590169943745,5504.155065362531 5010.499999999995,5513.665630525482 5013.590169943745,5504.155065362531 5010.499999999995,5513.665630525482 5000.499999999995,5513.665630525482 4992.409830056246,5519.543483048406 5000.499999999995,5525.421335571332 5003.5901699437445,5534.931900734283 5000.499999999995,5525.421335571332 4992.4098300562455,5531.299188094256 5002.4098300562455,5531.299188094256 5005.499999999995,5540.809753257208 4997.4098300562455,5546.687605780133 5005.4999999999945,5552.565458303057 4997.4098300562455,5558.443310825982 5000.4999999999945,5567.953875988934 5003.590169943744,5577.464441151886 5000.4999999999945,5586.975006314837" stroke="black" stroke-linecap="round" stroke-width="1" /><polyline clip-path="url(#border_clip)" fill="none" points="5000.4999999999945,5586.975006314837 5010.4999999999945,5586.975006314837 5020.4999999999945,5586.975006314838 5023.590169943744,5577.464441151886 5013.590169943744,5577.464441151886 5010.4999999999945,5586.975006314837 5013.590169943744,5577.464441151886 5010.4999999999945,5586.975006314837 5000.4999999999945,5586.975006314837 4992.409830056245,5592.852858837761 5000.499999999994,5598.730711360687 5003.590169943744,5608.241276523638 5000.499999999994,5598.730711360687 4992.409830056245,5604.608563883611 5002.409830056245,5604.608563883611 5005.499999999994,5614.119129046563 4997.409830056245,5619.996981569488 5005.499999999994,5625.874834092412 4997.409830056244,5631.752686615337 5000.499999999994,5641.263251778289 5003.590169943743,5650.7738169412405 5000.499999999993,5660.2843821041915 5010.499999999993,5660.2843821041915 5020.499999999993,5660.2843821041915 5023.590169943743,5650.7738169412405 5013.590169943743,5650.7738169412405 5010.499999999993,5660.2843821041915 5013.590169943743,5650.7738169412405 5010.499999999993,5660.2843821041915 5000.499999999993,5660.2843821041915 4992.409830056243,5666.162234627116 5000.499999999993,5672.0400871500415 5003.590169943742,5681.5506523129925 5000.499999999993,5672.0400871500415 4992.409830056243,5677.917939672966 5002.409830056243,5677.917939672966 5005.499999999992,5687.428504835918 4997.409830056243,5693.306357358842 5005.499999999992,5699.184209881767 4997.409830056243,5705.0620624046915 5000.499999999992,5714.572627567643 5003.590169943741,5724.083192730594 5000.499999999991,5733.593757893546" stroke="black" stroke-linecap="round" stroke-width="1" /><polyline clip-path="url(#border_clip)" fill="none" points="5000.499999999991,5733.593757893546 5010.499999999991,5733.593757893546 5020.499999999991,5733.593757893546 5023.590169943741,5724.083192730595 5013.590169943741,5724.083192730595 5010.499999999991,5733.593757893546 5013.590169943741,5724.083192730595 5010.499999999991,5733.593757893546 5000.499999999991,5733.593757893546 4992.409830056242,5739.471610416471 5000.499999999991,5745.349462939395 5003.59016994374,5754.860028102347 5000.499999999991,5745.349462939395 4992.409830056241,5751.22731546232 5002.409830056241,5751.227315462321 5005.499999999991,5760.737880625272 4997.409830056241,5766.615733148196 5005.49999999999,5772.493585671122 4997.409830056241,5778.371438194046 5000.49999999999,5787.882003356997 5003.590169943739,5797.392568519949 5000.499999999989,5806.903133682901 5010.499999999989,5806.903133682901 5020.499999999989,5806.903133682901 5023.590169943739,5797.39256851995 5013.590169943739,5797.392568519949 5010.499999999989,5806.903133682901 5013.590169943739,5797.392568519949 5010.499999999989,5806.903133682901 5000.499999999989,5806.903133682901 4992.40983005624,5812.780986205826 5000.499999999989,5818.65883872875 5003.590169943738,5828.169403891702 5000.499999999989,5818.65883872875 4992.409830056239,5824.536691251675 5002.409830056239,5824.536691251675 5005.499999999989,5834.047256414627 4997.409830056239,5839.925108937551 5005.499999999988,5845.802961460477 4997.409830056239,5851.680813983401 5000.499999999988,5861.191379146352 5003.590169943737,5870.701944309304 5000.499999999987,5880.212509472256" stroke="black" stroke-linecap="round" stroke-width="1" /><polyline clip-path="url(#border_clip)" fill="none" points="5000.499999999987,5880.212509472256 5010.499999999987,5880.212509472256 5020.499999999987,5880.212509472256 5023.590169943737,5870.701944309305 5013.590169943737,5870.701944309304 5010.499999999987,5880.212509472256 5013.590169943737,5870.701944309304 5010.499999999987,5880.212509472256 5000.499999999987,5880.212509472256 4992.409830056237,5886.0903619951805 5000.499999999987,5891.968214518105 5003.590169943736,5901.478779681057 5000.499999999987,5891.968214518105 4992.409830056237,5897.8460670410295 5002.409830056237,5897.8460670410295 5005.499999999986,5907.3566322039815 4997.409830056237,5913.234484726906 5005.499999999986,5919.112337249831 4997.409830056236,5924.990189772756 5000.499999999985,5934.500754935707 5003.590169943735,5944.011320098659 5000.499999999985,5953.521885261611 5010.499999999985,5953.521885261611 5020.499999999985,5953.521885261611 5023.590169943735,5944.01132009866 5013.590169943735,5944.01132009866 5010.499999999985,5953.521885261611 5013.590169943735,5944.01132009866 5010.499999999985,5953.521885261611 5000.499999999985,5953.521885261611 4992.4098300562355,5959.399737784535 5000.4999999999845,5965.27759030746 5003.590169943734,5974.788155470412 5000.4999999999845,5965.27759030746 4992.4098300562355,5971.155442830384 5002.4098300562355,5971.155442830384 5005.4999999999845,5980.666007993336 4997.409830056235,5986.543860516261 5005.499999999984,5992.421713039186 4997.409830056235,5998.299565562111 5000.499999999984,6007.810130725062 5003.590169943733,6017.320695888014 5000.499999999983,6026.831261050966" stroke="black" stroke-linecap="round" stroke-width="1" /><polyline clip-path="url(#border_clip)" fill="none" points="5000.499999999983,6026.831261050966 5010.499999999983,6026.831261050966 5020.499999999983,6026.831261050966 5023.590169943733,6017.320695888015 5013.590169943733,6017.320695888014 5010.499999999983,6026.831261050966 5013.590169943733,6017.320695888014 5010.499999999983,6026.831261050966 5000.499999999983,6026.831261050966 4992.409830056233,6032.70911357389 5000.499999999983,6038.586966096815 5003.590169943732,6048.097531259767 5000.499999999983,6038.586966096815 4992.409830056233,6044.464818619739 5002.409830056233,6044.464818619739 5005.499999999982,6053.975383782691 4997.409830056232,6059.853236305616 5005.499999999982,6065.731088828541 4997.409830056232,6071.608941351466 5000.499999999981,6081.119506514417 5003.59016994373,6090.6300716773685 5000.49999999998,6100.14063684032 5010.49999999998,6100.14063684032 5020.499999999981,6100.14063684032 5023.59016994373,6090.630071677369 5013.59016994373,6090.630071677369 5010.49999999998,6100.14063684032 5013.59016994373,6090.630071677369 5010.49999999998,6100.14063684032 5000.49999999998,6100.14063684032 4992.409830056231,6106.018489363245 5000.49999999998,6111.8963418861695 5003.590169943729,6121.406907049121 5000.49999999998,6111.8963418861695 4992.40983005623,6117.774194409094 5002.40983005623,6117.774194409094 5005.499999999979,6127.284759572046 4997.40983005623,6133.16261209497 5005.499999999979,6139.040464617896 4997.409830056229,6144.91831714082 5000.499999999978,6154.428882303771 5003.590169943727,6163.939447466723 5000.499999999977,6173.450012629675" stroke="black" stroke-linecap="round" stroke-width="1" /><polyline clip-path="url(#border_clip)" fill="none" points="5000.499999999977,6173.450012629675 5010.499999999978,6173.450012629675 5020.499999999978,6173.450012629676 5023.590169943727,6163.939447466724 5013.590169943727,6163.939447466724 5010.499999999978,6173.450012629675 5013.590169943727,6163.939447466724 5010.499999999978,6173.450012629675 5000.499999999977,6173.450012629675 4992.409830056228,6179.3278651526 5000.499999999977,6185.205717675524 5003.590169943726,6194.716282838476 5000.499999999977,6185.205717675524 4992.409830056227,6191.083570198449 5002.409830056227,6191.08357019845 5005.499999999976,6200.594135361402 4997.409830056227,6206.471987884326 5005.499999999976,6212.349840407251 4997.409830056226,6218.227692930175 5000.499999999975,6227.738258093127 5003.5901699437245,6237.248823256079 5000.4999999999745,6246.75938841903 5010.4999999999745,6246.75938841903 5020.4999999999745,6246.759388419031 5023.5901699437245,6237.248823256079 5013.5901699437245,6237.248823256079 5010.4999999999745,6246.75938841903 5013.5901699437245,6237.248823256079 5010.4999999999745,6246.75938841903 5000.4999999999745,6246.75938841903 4992.4098300562255,6252.637240941955 5000.4999999999745,6258.51509346488 5003.590169943724,6268.025658627832 5000.4999999999745,6258.51509346488 4992.409830056225,6264.3929459878045 5002.409830056225,6264.3929459878045 5005.499999999974,6273.9035111507565 4997.409830056224,6279.781363673681 5005.499999999974,6285.659216196606 4997.409830056224,6291.537068719531 5000.499999999973,6301.047633882483 5003.590169943722,6310.558199045434 5000.499999999972,6320.068764208386" stroke="black" stroke-linecap="round" stroke-width="1" /><polyline clip-path="url(#border_clip)" fill="none" points="5000.499999999972,6320.068764208386 5010.499999999972,6320.068764208386 5020.499999999972,6320.068764208387 5023.590169943722,6310.558199045435 5013.590169943722,6310.558199045435 5010.499999999972,6320.068764208386 5013.590169943722,6310.558199045435 5010.499999999972,6320.068764208386 5000.499999999972,6320.068764208386 4992.409830056222,6325.94661673131 5000.499999999972,6331.824469254236 5003.590169943721,6341.335034417187 5000.499999999972,6331.824469254236 4992.409830056222,6337.70232177716 5002.409830056222,6337.70232177716 5005.499999999971,6347.212886940112 4997.409830056221,6353.090739463037 5005.49999999997,6358.968591985962 4997.40983005622,6364.846444508887 5000.499999999969,6374.357009671838 5003.590169943719,6383.86757483479 5000.499999999969,6393.3781399977415 5010.499999999969,6393.3781399977415 5020.499999999969,6393.3781399977415 5023.590169943719,6383.8675748347905 5013.590169943719,6383.8675748347905 5010.499999999969,6393.3781399977415 5013.590169943719,6383.8675748347905 5010.499999999969,6393.3781399977415 5000.499999999969,6393.3781399977415 4992.409830056219,6399.255992520666 5000.499999999968,6405.133845043591 5003.590169943717,6414.6444102065425 5000.499999999968,6405.133845043591 4992.409830056218,6411.011697566515 5002.409830056218,6411.011697566516 5005.499999999967,6420.522262729468 4997.409830056217,6426.400115252392 5005.499999999967,6432.277967775317 4997.409830056217,6438.155820298241 5000.499999999966,6447.666385461193 5003.590169943715,6457.176950624145 5000.499999999965,6466.687515787096" stroke="black" stroke-linecap="round" stroke-width="1" /><polyline clip-path="url(#border_clip)" fill="none" points="5000.499999999965,6466.687515787096 5010.499999999965,6466.687515787096 5020.499999999965,6466.687515787097 5023.590169943715,6457.176950624145 5013.590169943715,6457.176950624145 5010.499999999965,6466.687515787096 5013.590169943715,6457.176950624145 5010.499999999965,6466.687515787096 5000.499999999965,6466.687515787096 4992.4098300562155,6472.565368310021 5000.4999999999645,6478.443220832945 5003.590169943714,6487.953785995897 5000.4999999999645,6478.443220832945 4992.409830056215,6484.32107335587 5002.4098300562155,6484.321073355871 5005.4999999999645,6493.831638518823 4997.409830056215,6499.709491041746 5005.499999999964,6505.587343564672 4997.409830056214,6511.465196087596 5000.499999999963,6520.975761250547 5003.590169943712,6530.486326413499 5000.499999999962,6539.996891576451 5010.499999999962,6539.996891576451 5020.499999999962,6539.996891576452 5023.590169943712,6530.4863264135 5013.590169943712,6530.4863264135 5010.499999999962,6539.996891576451 5013.590169943712,6530.4863264135 5010.499999999962,6539.996891576451 5000.499999999962,6539.996891576451 4992.409830056212,6545.874744099376 5000.499999999961,6551.7525966223 5003.59016994371,6561.263161785252 5000.499999999961,6551.7525966223 4992.409830056212,6557.630449145225 5002.409830056212,6557.630449145225 5005.499999999961,6567.141014308177 4997.409830056211,6573.018866831101 5005.49999999996,6578.896719354027 4997.40983005621,6584.774571876951 5000.499999999959,6594.285137039902 5003.590169943708,6603.795702202854 5000.499999999958,6613.306267365806" stroke="black" stroke-linecap="round" stroke-width="1" /><polyline clip-path="url(#border_clip)" fill="none" points="5000.499999999958,6613.306267365806 5010.499999999958,6613.306267365806 5020.499999999958,6613.306267365806 5023.590169943708,6603.795702202855 5013.590169943708,6603.795702202855 5010.499999999958,6613.306267365806 5013.590169943708,6603.795702202855 5010.499999999958,6613.306267365806 5000.499999999958,6613.306267365806 4992.409830056208,6619.18411988873 5000.499999999957,6625.061972411655 5003.590169943706,6634.572537574607 5000.499999999957,6625.061972411655 4992.409830056208,6630.9398249345795 5002.409830056208,6630.9398249345795 5005.499999999957,6640.450390097531 4997.409830056207,6646.328242620456 5005.499999999956,6652.206095143381 4997.409830056206,6658.083947666305 5000.499999999955,6667.594512829257 5003.5901699437045,6677.105077992209 5000.4999999999545,6686.61564315516 5010.4999999999545,6686.615643155161 5020.4999999999545,6686.615643155161 5023.5901699437045,6677.10507799221 5013.5901699437045,6677.105077992209 5010.4999999999545,6686.615643155161 5013.5901699437045,6677.105077992209 5010.4999999999545,6686.615643155161 5000.4999999999545,6686.61564315516 4992.409830056205,6692.493495678084 5000.499999999954,6698.37134820101 5003.590169943703,6707.881913363961 5000.499999999954,6698.37134820101 4992.409830056204,6704.249200723934 5002.409830056204,6704.249200723934 5005.499999999953,6713.759765886886 4997.409830056203,6719.63761840981 5005.499999999953,6725.515470932735 4997.409830056203,6731.39332345566 5000.499999999952,6740.903888618612 5003.590169943701,6750.414453781563 5000.49999999995,6759.925018944515" stroke="black" stroke-linecap="round" stroke-width="1" /><polyline clip-path="url(#border_clip)" fill="none" points="5000.49999999995,6759.925018944515 5010.499999999951,6759.925018944516 5020.499999999951,6759.925018944516 5023.590169943701,6750.414453781565 5013.590169943701,6750.414453781564 5010.499999999951,6759.925018944516 5013.590169943701,6750.414453781564 5010.499999999951,6759.925018944516 5000.49999999995,6759.925018944515 4992.409830056201,6765.802871467439 5000.49999999995,6771.680723990365 5003.590169943699,6781.191289153316 5000.49999999995,6771.680723990365 4992.4098300562,6777.558576513288 5002.4098300562,6777.558576513289 5005.499999999949,6787.06914167624 4997.409830056199,6792.946994199165 5005.499999999948,6798.82484672209 4997.409830056198,6804.702699245015 5000.499999999947,6814.213264407967 5003.590169943696,6823.723829570918 5000.499999999946,6833.2343947338695 5010.499999999946,6833.23439473387 5020.499999999946,6833.23439473387 5023.590169943696,6823.723829570919 5013.590169943696,6823.7238295709185 5010.499999999946,6833.23439473387 5013.590169943696,6823.7238295709185 5010.499999999946,6833.23439473387 5000.499999999946,6833.2343947338695 4992.409830056196,6839.112247256793 5000.499999999945,6844.990099779719 5003.5901699436945,6854.5006649426705 5000.499999999945,6844.990099779719 4992.4098300561955,6850.867952302643 5002.4098300561955,6850.867952302644 5005.4999999999445,6860.378517465595 4997.409830056195,6866.2563699885195 5005.499999999944,6872.134222511445 4997.409830056194,6878.012075034369 5000.499999999943,6887.522640197321 5003.590169943692,6897.033205360272 5000.499999999942,6906.543770523224" stroke="black" stroke-linecap="round" stroke-width="1" /><polyline clip-path="url(#border_clip)" fill="none" points="5000.499999999942,6906.543770523224 5010.499999999942,6906.543770523225 5020.499999999942,6906.543770523225 5023.590169943692,6897.033205360274 5013.590169943692,6897.033205360273 5010.499999999942,6906.543770523225 5013.590169943692,6897.033205360273 5010.499999999942,6906.543770523225 5000.499999999942,6906.543770523224 4992.409830056192,6912.421623046148 5000.499999999941,6918.299475569073 5003.59016994369,6927.810040732025 5000.499999999941,6918.299475569073 4992.409830056191,6924.177328091998 5002.409830056192,6924.177328091999 5005.49999999994,6933.68789325495 4997.40983005619,6939.565745777874 5005.49999999994,6945.4435983008 4997.40983005619,6951.321450823724 5000.499999999938,6960.832015986676 5003.590169943687,6970.342581149627 5000.499999999937,6979.853146312579 5010.499999999937,6979.85314631258 5020.499999999937,6979.85314631258 5023.590169943688,6970.342581149629 5013.590169943687,6970.342581149628 5010.499999999937,6979.85314631258 5013.590169943687,6970.342581149628 5010.499999999937,6979.85314631258 5000.499999999937,6979.853146312579 4992.409830056187,6985.730998835503 5000.499999999936,6991.608851358428 5003.590169943685,7001.11941652138 5000.499999999936,6991.608851358428 4992.409830056186,6997.486703881353 5002.409830056187,6997.486703881354 5005.499999999935,7006.997269044305 4997.4098300561855,7012.875121567229 5005.499999999935,7018.752974090155 4997.4098300561855,7024.630826613079 5000.499999999934,7034.141391776031 5003.590169943683,7043.651956938982 5000.499999999933,7053.162522101933" stroke="black" stroke-linecap="round" stroke-width="1" /><polyline clip-path="url(#border_clip)" fill="none" points="5000.499999999933,7053.162522101933 5010.499999999933,7053.162522101934 5020.499999999933,7053.162522101935 5023.590169943683,7043.651956938983 5013.590169943683,7043.651956938982 5010.499999999933,7053.162522101933 5013.590169943683,7043.651956938982 5010.499999999933,7053.162522101933 5000.499999999933,7053.162522101933 4992.409830056183,7059.040374624858 5000.499999999932,7064.918227147782 5003.590169943681,7074.428792310735 5000.499999999932,7064.918227147782 4992.409830056182,7070.796079670707 5002.409830056182,7070.796079670707 5005.499999999931,7080.306644833659 4997.409830056181,7086.184497356583 5005.49999999993,7092.0623498795085 4997.40983005618,7097.940202402433 5000.499999999929,7107.450767565384 5003.590169943678,7116.961332728337 5000.499999999928,7126.471897891288 5010.499999999928,7126.471897891288 5020.499999999928,7126.471897891289 5023.590169943678,7116.961332728337 5013.590169943678,7116.961332728337 5010.499999999928,7126.471897891288 5013.590169943678,7116.961332728337 5010.499999999928,7126.471897891288 5000.499999999928,7126.471897891288 4992.409830056178,7132.349750414212 5000.499999999927,7138.227602937137 5003.590169943676,7147.73816810009 5000.499999999927,7138.227602937137 4992.409830056177,7144.105455460061 5002.409830056177,7144.105455460061 5005.499999999926,7153.616020623014 4997.409830056176,7159.493873145938 5005.499999999925,7165.371725668863 4997.409830056175,7171.249578191788 5000.4999999999245,7180.760143354739 5003.590169943673,7190.270708517692 5000.499999999923,7199.781273680643" stroke="black" stroke-linecap="round" stroke-width="1" /><polyline clip-path="url(#border_clip)" fill="none" points="5000.499999999923,7199.781273680643 5010.499999999923,7199.781273680644 5020.499999999923,7199.7812736806445 5023.590169943674,7190.2707085176935 5013.590169943674,7190.270708517692 5010.499999999923,7199.781273680644 5013.590169943674,7190.270708517692 5010.499999999923,7199.781273680644 5000.499999999923,7199.781273680643 4992.409830056173,7205.659126203567 5000.499999999922,7211.536978726492 5003.590169943671,7221.047543889445 5000.499999999922,7211.536978726492 4992.409830056172,7217.414831249416 5002.409830056172,7217.414831249417 5005.499999999921,7226.925396412369 4997.409830056171,7232.803248935294 5005.49999999992,7238.681101458218 4997.40983005617,7244.558953981143 5000.499999999919,7254.069519144095 5003.590169943668,7263.5800843070465 5000.499999999918,7273.0906494699975 5010.499999999918,7273.090649469999 5020.499999999918,7273.090649469999 5023.590169943668,7263.580084307048 5013.590169943668,7263.580084307047 5010.499999999918,7273.090649469999 5013.590169943668,7263.580084307047 5010.499999999918,7273.090649469999 5000.499999999918,7273.0906494699975 4992.409830056168,7278.968501992922 5000.499999999917,7284.846354515847 5003.590169943665,7294.356919678799 5000.499999999917,7284.846354515847 4992.409830056167,7290.724207038771 5002.409830056167,7290.724207038773 5005.499999999915,7300.234772201724 4997.409830056165,7306.112624724648 5005.499999999915,7311.990477247574 4997.409830056165,7317.868329770497 5000.499999999914,7327.37889493345 5003.590169943663,7336.889460096401 5000.499999999913,7346.400025259353" stroke="black" stroke-linecap="round" stroke-width="1" /><polyline clip-path="url(#border_clip)" fill="none" points="5000.499999999913,7346.400025259353 5010.499999999913,7346.400025259354 5020.499999999913,7346.400025259355 5023.590169943663,7336.889460096403 5013.590169943663,7336.889460096403 5010.499999999913,7346.400025259354 5013.590169943663,7336.889460096403 5010.499999999913,7346.400025259354 5000.499999999913,7346.400025259353 4992.409830056163,7352.277877782277 5000.499999999912,7358.155730305203 5003.59016994366,7367.666295468154 5000.499999999912,7358.155730305203 4992.409830056162,7364.033582828127 5002.409830056162,7364.033582828128 5005.499999999911,7373.54414799108 4997.409830056161,7379.422000514003 5005.49999999991,7385.29985303693 4997.40983005616,7391.177705559853 5000.499999999908,7400.688270722805 5003.590169943657,7410.198835885757 5000.499999999907,7419.709401048709 5010.499999999907,7419.709401048709 5020.499999999907,7419.709401048711 5023.590169943657,7410.198835885759 5013.590169943657,7410.198835885758 5010.499999999907,7419.709401048709 5013.590169943657,7410.198835885758 5010.499999999907,7419.709401048709 5000.499999999907,7419.709401048709 4992.409830056157,7425.587253571633 5000.499999999906,7431.465106094558 5003.5901699436545,7440.97567125751 5000.499999999906,7431.465106094558 4992.409830056156,7437.3429586174825 5002.409830056156,7437.3429586174825 5005.4999999999045,7446.853523780435 4997.4098300561545,7452.731376303359 5005.499999999904,7458.609228826284 4997.409830056154,7464.487081349209 5000.499999999903,7473.99764651216 5003.590169943652,7483.508211675113 5000.499999999901,7493.018776838064" stroke="black" stroke-linecap="round" stroke-width="1" /><polyline clip-path="url(#border_clip)" fill="none" points="5000.499999999901,7493.018776838064 5010.499999999902,7493.018776838065 5020.499999999902,7493.018776838066 5023.590169943652,7483.508211675115 5013.590169943652,7483.508211675113 5010.499999999902,7493.018776838065 5013.590169943652,7483.508211675113 5010.499999999902,7493.018776838065 5000.499999999901,7493.018776838064 4992.409830056151,7498.896629360988 5000.4999999999,7504.774481883913 5003.590169943649,7514.285047046866 5000.4999999999,7504.774481883913 4992.40983005615,7510.652334406837 5002.40983005615,7510.652334406838 5005.499999999899,7520.16289956979 4997.409830056149,7526.040752092715 5005.499999999898,7531.918604615639 4997.409830056148,7537.796457138564 5000.499999999897,7547.307022301516 5003.590169943645,7556.817587464468 5000.499999999895,7566.328152627419 5010.499999999895,7566.32815262742 5020.499999999895,7566.32815262742 5023.590169943646,7556.817587464469 5013.590169943645,7556.8175874644685 5010.499999999895,7566.32815262742 5013.590169943645,7556.8175874644685 5010.499999999895,7566.32815262742 5000.499999999895,7566.328152627419 4992.409830056145,7572.206005150343 5000.4999999998945,7578.0838576732685 5003.590169943644,7587.5944228362205 5000.4999999998945,7578.0838576732685 4992.4098300561445,7583.961710196192 5002.4098300561445,7583.961710196194 5005.499999999894,7593.472275359145 4997.409830056144,7599.3501278820695 5005.499999999893,7605.227980404995 4997.409830056143,7611.1058329279185 5000.499999999891,7620.616398090871 5003.59016994364,7630.126963253822 5000.499999999889,7639.637528416774" stroke="black" stroke-linecap="round" stroke-width="1" /><polyline clip-path="url(#border_clip)" fill="none" points="5000.499999999889,7639.637528416774 5010.49999999989,7639.637528416775 5020.49999999989,7639.637528416776 5023.59016994364,7630.126963253824 5013.59016994364,7630.126963253824 5010.49999999989,7639.637528416775 5013.59016994364,7630.126963253824 5010.49999999989,7639.637528416775 5000.499999999889,7639.637528416774 4992.409830056139,7645.515380939698 5000.499999999888,7651.393233462624 5003.590169943637,7660.903798625575 5000.499999999888,7651.393233462624 4992.409830056138,7657.271085985548 5002.409830056138,7657.271085985549 5005.499999999887,7666.781651148501 4997.409830056137,7672.659503671424 5005.499999999886,7678.537356194351 4997.409830056136,7684.415208717274 5000.4999999998845,7693.925773880226 5003.590169943634,7703.436339043178 5000.499999999884,7712.94690420613 5010.499999999884,7712.94690420613 5020.499999999884,7712.946904206132 5023.590169943634,7703.43633904318 5013.590169943634,7703.436339043179 5010.499999999884,7712.94690420613 5013.590169943634,7703.436339043179 5010.499999999884,7712.94690420613 5000.499999999884,7712.94690420613 4992.409830056133,7718.824756729054 5000.499999999882,7724.702609251979 5003.590169943631,7734.213174414931 5000.499999999882,7724.702609251979 4992.409830056132,7730.580461774904 5002.409830056133,7730.580461774904 5005.499999999881,7740.091026937856 4997.409830056131,7745.96887946078 5005.49999999988,7751.8467319837055 4997.40983005613,7757.72458450663 5000.499999999878,7767.235149669581 5003.590169943627,7776.745714832534 5000.499999999877,7786.256279995485" stroke="black" stroke-linecap="round" stroke-width="1" /><polyline clip-path="url(#border_clip)" fill="none" points="5000.499999999877,7786.256279995485 5010.499999999877,7786.256279995486 5020.499999999877,7786.256279995487 5023.590169943627,7776.745714832536 5013.590169943627,7776.745714832534 5010.499999999877,7786.256279995486 5013.590169943627,7776.745714832534 5010.499999999877,7786.256279995486 5000.499999999877,7786.256279995485 4992.409830056126,7792.134132518409 5000.499999999875,7798.011985041334 5003.5901699436245,7807.522550204287 5000.499999999875,7798.011985041334 4992.409830056125,7803.889837564258 5002.409830056125,7803.889837564259 5005.4999999998745,7813.400402727211 4997.4098300561245,7819.278255250136 5005.499999999874,7825.15610777306 4997.409830056124,7831.033960295985 5000.499999999872,7840.544525458937 5003.590169943621,7850.055090621889 5000.49999999987,7859.56565578484 5010.499999999871,7859.5656557848415 5020.499999999871,7859.5656557848415 5023.590169943621,7850.0550906218905 5013.590169943621,7850.05509062189 5010.499999999871,7859.5656557848415 5013.590169943621,7850.05509062189 5010.499999999871,7859.5656557848415 5000.49999999987,7859.56565578484 4992.40983005612,7865.443508307764 5000.499999999869,7871.32136083069 5003.590169943618,7880.831925993642 5000.499999999869,7871.32136083069 4992.409830056119,7877.199213353613 5002.409830056119,7877.199213353615 5005.499999999868,7886.709778516566 4997.409830056118,7892.587631039491 5005.499999999867,7898.465483562416 4997.409830056116,7904.34333608534 5000.499999999865,7913.8539012482925 5003.590169943614,7923.3644664112435 5000.499999999864,7932.875031574195" stroke="black" stroke-linecap="round" stroke-width="1" /></svg>