<?xml version="1.0" encoding="UTF-8"?>
<svg width="1e4px" height="1e4px" baseProfile="full" version="1.1" viewBox="4992.4 4991 31.18 2941.9" xmlns="http://www.w3.org/2000/svg">
<defs>
<clipPath id="a">
<rect width="1e4" height="1e4"/>
</clipPath>
</defs>
<polyline points="5000.5 5000.5 5010.5 5000.5 5020.5 5000.5 5023.6 4991 5013.6 4991 5010.5 5000.5 5013.6 4991 5010.5 5000.5 5000.5 5000.5 4992.4 5006.4 5000.5 5012.3 5003.6 5021.8 5000.5 5012.3 4992.4 5018.1 5002.4 5018.1 5005.5 5027.6 4997.4 5033.5 5005.5 5039.4 4997.4 5045.3 5000.5 5054.8 5003.6 5064.3 5000.5 5073.8 5010.5 5073.8 5020.5 5073.8 5023.6 5064.3 5013.6 5064.3 5010.5 5073.8 5013.6 5064.3 5010.5 5073.8 5000.5 5073.8 4992.4 5079.7 5000.5 5085.6 5003.6 5095.1 5000.5 5085.6 4992.4 5091.4 5002.4 5091.4 5005.5 5101 4997.4 5106.8 5005.5 5112.7 4997.4 5118.6 5000.5 5128.1 5003.6 5137.6 5000.5 5147.1" clip-path="url(#a)" fill="none" stroke="#000" stroke-linecap="round"/>
<polyline points="5000.5 5147.1 5010.5 5147.1 5020.5 5147.1 5023.6 5137.6 5013.6 5137.6 5010.5 5147.1 5013.6 5137.6 5010.5 5147.1 5000.5 5147.1 4992.4 5153 5000.5 5158.9 5003.6 5168.4 5000.5 5158.9 4992.4 5164.8 5002.4 5164.8 5005.5 5174.3 4997.4 5180.1 5005.5 5186 4997.4 5191.9 5000.5 5201.4 5003.6 5210.9 5000.5 5220.4 5010.5 5220.4 5020.5 5220.4 5023.6 5210.9 5013.6 5210.9 5010.5 5220.4 5013.6 5210.9 5010.5 5220.4 5000.5 5220.4 4992.4 5226.3 5000.5 5232.2 5003.6 5241.7 5000.5 5232.2 4992.4 5238.1 5002.4 5238.1 5005.5 5247.6 4997.4 5253.5 5005.5 5259.3 4997.4 5265.2 5000.5 5274.7 5003.6 5284.2 5000.5 5293.7" clip-path="url(#a)" fill="none" stroke="#000" stroke-linecap="round"/>
<polyline points="5000.5 5293.7 5010.5 5293.7 5020.5 5293.7 5023.6 5284.2 5013.6 5284.2 5010.5 5293.7 5013.6 5284.2 5010.5 5293.7 5000.5 5293.7 4992.4 5299.6 5000.5 5305.5 5003.6 5315 5000.5 5305.5 4992.4 5311.4 5002.4 5311.4 5005.5 5320.9 4997.4 5326.8 5005.5 5332.6 4997.4 5338.5 5000.5 5348 5003.6 5357.5 5000.5 5367 5010.5 5367 5020.5 5367 5023.6 5357.5 5013.6 5357.5 5010.5 5367 5013.6 5357.5 5010.5 5367 5000.5 5367 4992.4 5372.9 5000.5 5378.8 5003.6 5388.3 5000.5 5378.8 4992.4 5384.7 5002.4 5384.7 5005.5 5394.2 4997.4 5400.1 5005.5 5405.9 4997.4 5411.8 5000.5 5421.3 5003.6 5430.8 5000.5 5440.4" clip-path="url(#a)" fill="none" stroke="#000" stroke-linecap="round"/>
<polyline points="5000.5 5440.4 5010.5 5440.4 5020.5 5440.4 5023.6 5430.8 5013.6 5430.8 5010.5 5440.4 5013.6 5430.8 5010.5 5440.4 5000.5 5440.4 4992.4 5446.2 5000.5 5452.1 5003.6 5461.6 5000.5 5452.1 4992.4 5458 5002.4 5458 5005.5 5467.5 4997.4 5473.4 5005.5 5479.3 4997.4 5485.1 5000.5 5494.6 5003.6 5504.2 5000.5 5513.7 5010.5 5513.7 5020.5 5513.7 5023.6 5504.2 5013.6 5504.2 5010.5 5513.7 5013.6 5504.2 5010.5 5513.7 5000.5 5513.7 4992.4 5519.5 5000.5 5525.4 5003.6 5534.9 5000.5 5525.4 4992.4 5531.3 5002.4 5531.3 5005.5 5540.8 4997.4 5546.7 5005.5 5552.6 4997.4 5558.4 5000.5 5568 5003.6 5577.5 5000.5 5587" clip-path="url(#a)" fill="none" stroke="#000" stroke-linecap="round"/>
<polyline points="5000.5 5587 5010.5 5587 5020.5 5587 5023.6 5577.5 5013.6 5577.5 5010.5 5587 5013.6 5577.5 5010.5 5587 5000.5 5587 4992.4 5592.9 5000.5 5598.7 5003.6 5608.2 5000.5 5598.7 4992.4 5604.6 5002.4 5604.6 5005.5 5614.1 4997.4 5620 5005.5 5625.9 4997.4 5631.8 5000.5 5641.3 5003.6 5650.8 5000.5 5660.3 5010.5 5660.3 5020.5 5660.3 5023.6 5650.8 5013.6 5650.8 5010.5 5660.3 5013.6 5650.8 5010.5 5660.3 5000.5 5660.3 4992.4 5666.2 5000.5 5672 5003.6 5681.6 5000.5 5672 4992.4 5677.9 5002.4 5677.9 5005.5 5687.4 4997.4 5693.3 5005.5 5699.2 4997.4 5705.1 5000.5 5714.6 5003.6 5724.1 5000.5 5733.6" clip-path="url(#a)" fill="none" stroke="#000" stroke-linecap="round"/>
<polyline points="5000.5 5733.6 5010.5 5733.6 5020.5 5733.6 5023.6 5724.1 5013.6 5724.1 5010.5 5733.6 5013.6 5724.1 5010.5 5733.6 5000.5 5733.6 4992.4 5739.5 5000.5 5745.3 5003.6 5754.9 5000.5 5745.3 4992.4 5751.2 5002.4 5751.2 5005.5 5760.7 4997.4 5766.6 5005.5 5772.5 4997.4 5778.4 5000.5 5787.9 5003.6 5797.4 5000.5 5806.9 5010.5 5806.9 5020.5 5806.9 5023.6 5797.4 5013.6 5797.4 5010.5 5806.9 5013.6 5797.4 5010.5 5806.9 5000.5 5806.9 4992.4 5812.8 5000.5 5818.7 5003.6 5828.2 5000.5 5818.7 4992.4 5824.5 5002.4 5824.5 5005.5 5834 4997.4 5839.9 5005.5 5845.8 4997.4 5851.7 5000.5 5861.2 5003.6 5870.7 5000.5 5880.2" clip-path="url(#a)" fill="none" stroke="#000" stroke-linecap="round"/>
<polyline points="5000.5 5880.2 5010.5 5880.2 5020.5 5880.2 5023.6 5870.7 5013.6 5870.7 5010.5 5880.2 5013.6 5870.7 5010.5 5880.2 5000.5 5880.2 4992.4 5886.1 5000.5 5892 5003.6 5901.5 5000.5 5892 4992.4 5897.8 5002.4 5897.8 5005.5 5907.4 4997.4 5913.2 5005.5 5919.1 4997.4 5925 5000.5 5934.5 5003.6 5944 5000.5 5953.5 5010.5 5953.5 5020.5 5953.5 5023.6 5944 5013.6 5944 5010.5 5953.5 5013.6 5944 5010.5 5953.5 5000.5 5953.5 4992.4 5959.4 5000.5 5965.3 5003.6 5974.8 5000.5 5965.3 4992.4 5971.2 5002.4 5971.2 5005.5 5980.7 4997.4 5986.5 5005.5 5992.4 4997.4 5998.3 5000.5 6007.8 5003.6 6017.3 5000.5 6026.8" clip-path="url(#a)" fill="none" stroke="#000" stroke-linecap="round"/>
<polyline points="5000.5 6026.8 5010.5 6026.8 5020.5 6026.8 5023.6 6017.3 5013.6 6017.3 5010.5 6026.8 5013.6 6017.3 5010.5 6026.8 5000.5 6026.8 4992.4 6032.7 5000.5 6038.6 5003.6 6048.1 5000.5 6038.6 4992.4 6044.5 5002.4 6044.5 5005.5 6054 4997.4 6059.9 5005.5 6065.7 4997.4 6071.6 5000.5 6081.1 5003.6 6090.6 5000.5 6100.1 5010.5 6100.1 5020.5 6100.1 5023.6 6090.6 5013.6 6090.6 5010.5 6100.1 5013.6 6090.6 5010.5 6100.1 5000.5 6100.1 4992.4 6106 5000.5 6111.9 5003.6 6121.4 5000.5 6111.9 4992.4 6117.8 5002.4 6117.8 5005.5 6127.3 4997.4 6133.2 5005.5 6139 4997.4 6144.9 5000.5 6154.4 5003.6 6163.9 5000.5 6173.5" clip-path="url(#a)" fill="none" stroke="#000" stroke-linecap="round"/>
<polyline points="5000.5 6173.5 5010.5 6173.5 5020.5 6173.5 5023.6 6163.9 5013.6 6163.9 5010.5 6173.5 5013.6 6163.9 5010.5 6173.5 5000.5 6173.5 4992.4 6179.3 5000.5 6185.2 5003.6 6194.7 5000.5 6185.2 4992.4 6191.1 5002.4 6191.1 5005.5 6200.6 4997.4 6206.5 5005.5 6212.3 4997.4 6218.2 5000.5 6227.7 5003.6 6237.2 5000.5 6246.8 5010.5 6246.8 5020.5 6246.8 5023.6 6237.2 5013.6 6237.2 5010.5 6246.8 5013.6 6237.2 5010.5 6246.8 5000.5 6246.8 4992.4 6252.6 5000.5 6258.5 5003.6 6268 5000.5 6258.5 4992.4 6264.4 5002.4 6264.4 5005.5 6273.9 4997.4 6279.8 5005.5 6285.7 4997.4 6291.5 5000.5 6301 5003.6 6310.6 5000.5 6320.1" clip-path="url(#a)" fill="none" stroke="#000" stroke-linecap="round"/>
<polyline points="5000.5 6320.1 5010.5 6320.1 5020.5 6320.1 5023.6 6310.6 5013.6 6310.6 5010.5 6320.1 5013.6 6310.6 5010.5 6320.1 5000.5 6320.1 4992.4 6325.9 5000.5 6331.8 5003.6 6341.3 5000.5 6331.8 4992.4 6337.7 5002.4 6337.7 5005.5 6347.2 4997.4 6353.1 5005.5 6359 4997.4 6364.8 5000.5 6374.4 5003.6 6383.9 5000.5 6393.4 5010.5 6393.4 5020.5 6393.4 5023.6 6383.9 5013.6 6383.9 5010.5 6393.4 5013.6 6383.9 5010.5 6393.4 5000.5 6393.4 4992.4 6399.3 5000.5 6405.1 5003.6 6414.6 5000.5 6405.1 4992.4 6411 5002.4 6411 5005.5 6420.5 4997.4 6426.4 5005.5 6432.3 4997.4 6438.2 5000.5 6447.7 5003.6 6457.2 5000.5 6466.7" clip-path="url(#a)" fill="none" stroke="#000" stroke-linecap="round"/>
<polyline points="5000.5 6466.7 5010.5 6466.7 5020.5 6466.7 5023.6 6457.2 5013.6 6457.2 5010.5 6466.7 5013.6 6457.2 5010.5 6466.7 5000.5 6466.7 4992.4 6472.6 5000.5 6478.4 5003.6 6488 5000.5 6478.4 4992.4 6484.3 5002.4 6484.3 5005.5 6493.8 4997.4 6499.7 5005.5 6505.6 4997.4 6511.5 5000.5 6521 5003.6 6530.5 5000.5 6540 5010.5 6540 5020.5 6540 5023.6 6530.5 5013.6 6530.5 5010.5 6540 5013.6 6530.5 5010.5 6540 5000.5 6540 4992.4 6545.9 5000.5 6551.8 5003.6 6561.3 5000.5 6551.8 4992.4 6557.6 5002.4 6557.6 5005.5 6567.1 4997.4 6573 5005.5 6578.9 4997.4 6584.8 5000.5 6594.3 5003.6 6603.8 5000.5 6613.3" clip-path="url(#a)" fill="none" stroke="#000" stroke-linecap="round"/>
<polyline points="5000.5 6613.3 5010.5 6613.3 5020.5 6613.3 5023.6 6603.8 5013.6 6603.8 5010.5 6613.3 5013.6 6603.8 5010.5 6613.3 5000.5 6613.3 4992.4 6619.2 5000.5 6625.1 5003.6 6634.6 5000.5 6625.1 4992.4 6630.9 5002.4 6630.9 5005.5 6640.5 4997.4 6646.3 5005.5 6652.2 4997.4 6658.1 5000.5 6667.6 5003.6 6677.1 5000.5 6686.6 5010.5 6686.6 5020.5 6686.6 5023.6 6677.1 5013.6 6677.1 5010.5 6686.6 5013.6 6677.1 5010.5 6686.6 5000.5 6686.6 4992.4 6692.5 5000.5 6698.4 5003.6 6707.9 5000.5 6698.4 4992.4 6704.2 5002.4 6704.2 5005.5 6713.8 4997.4 6719.6 5005.5 6725.5 4997.4 6731.4 5000.5 6740.9 5003.6 6750.4 5000.5 6759.9" clip-path="url(#a)" fill="none" stroke="#000" stroke-linecap="round"/>
<polyline points="5000.5 6759.9 5010.5 6759.9 5020.5 6759.9 5023.6 6750.4 5013.6 6750.4 5010.5 6759.9 5013.6 6750.4 5010.5 6759.9 5000.5 6759.9 4992.4 6765.8 5000.5 6771.7 5003.6 6781.2 5000.5 6771.7 4992.4 6777.6 5002.4 6777.6 5005.5 6787.1 4997.4 6792.9 5005.5 6798.8 4997.4 6804.7 5000.5 6814.2 5003.6 6823.7 5000.5 6833.2 5010.5 6833.2 5020.5 6833.2 5023.6 6823.7 5013.6 6823.7 5010.5 6833.2 5013.6 6823.7 5010.5 6833.2 5000.5 6833.2 4992.4 6839.1 5000.5 6845 5003.6 6854.5 5000.5 6845 4992.4 6850.9 5002.4 6850.9 5005.5 6860.4 4997.4 6866.3 5005.5 6872.1 4997.4 6878 5000.5 6887.5 5003.6 6897 5000.5 6906.5" clip-path="url(#a)" fill="none" stroke="#000" stroke-linecap="round"/>
<polyline points="5000.5 6906.5 5010.5 6906.5 5020.5 6906.5 5023.6 6897 5013.6 6897 5010.5 6906.5 5013.6 6897 5010.5 6906.5 5000.5 6906.5 4992.4 6912.4 5000.5 6918.3 5003.6 6927.8 5000.5 6918.3 4992.4 6924.2 5002.4 6924.2 5005.5 6933.7 4997.4 6939.6 5005.5 6945.4 4997.4 6951.3 5000.5 6960.8 5003.6 6970.3 5000.5 6979.9 5010.5 6979.9 5020.5 6979.9 5023.6 6970.3 5013.6 6970.3 5010.5 6979.9 5013.6 6970.3 5010.5 6979.9 5000.5 6979.9 4992.4 6985.7 5000.5 6991.6 5003.6 7001.1 5000.5 6991.6 4992.4 6997.5 5002.4 6997.5 5005.5 7007 4997.4 7012.9 5005.5 7018.8 4997.4 7024.6 5000.5 7034.1 5003.6 7043.7 5000.5 7053.2" clip-path="url(#a)" fill="none" stroke="#000" stroke-linecap="round"/>
<polyline points="5000.5 7053.2 5010.5 7053.2 5020.5 7053.2 5023.6 7043.7 5013.6 7043.7 5010.5 7053.2 5013.6 7043.7 5010.5 7053.2 5000.5 7053.2 4992.4 7059 5000.5 7064.9 5003.6 7074.4 5000.5 7064.9 4992.4 7070.8 5002.4 7070.8 5005.5 7080.3 4997.4 7086.2 5005.5 7092.1 4997.4 7097.9 5000.5 7107.5 5003.6 7117 5000.5 7126.5 5010.5 7126.5 5020.5 7126.5 5023.6 7117 5013.6 7117 5010.5 7126.5 5013.6 7117 5010.5 7126.5 5000.5 7126.5 4992.4 7132.3 5000.5 7138.2 5003.6 7147.7 5000.5 7138.2 4992.4 7144.1 5002.4 7144.1 5005.5 7153.6 4997.4 7159.5 5005.5 7165.4 4997.4 7171.2 5000.5 7180.8 5003.6 7190.3 5000.5 7199.8" clip-path="url(#a)" fill="none" stroke="#000" stroke-linecap="round"/>
<polyline points="5000.5 7199.8 5010.5 7199.8 5020.5 7199.8 5023.6 7190.3 5013.6 7190.3 5010.5 7199.8 5013.6 7190.3 5010.5 7199.8 5000.5 7199.8 4992.4 7205.7 5000.5 7211.5 5003.6 7221 5000.5 7211.5 4992.4 7217.4 5002.4 7217.4 5005.5 7226.9 4997.4 7232.8 5005.5 7238.7 4997.4 7244.6 5000.5 7254.1 5003.6 7263.6 5000.5 7273.1 5010.5 7273.1 5020.5 7273.1 5023.6 7263.6 5013.6 7263.6 5010.5 7273.1 5013.6 7263.6 5010.5 7273.1 5000.5 7273.1 4992.4 7279 5000.5 7284.8 5003.6 7294.4 5000.5 7284.8 4992.4 7290.7 5002.4 7290.7 5005.5 7300.2 4997.4 7306.1 5005.5 7312 4997.4 7317.9 5000.5 7327.4 5003.6 7336.9 5000.5 7346.4" clip-path="url(#a)" fill="none" stroke="#000" stroke-linecap="round"/>
<polyline points="5000.5 7346.4 5010.5 7346.4 5020.5 7346.4 5023.6 7336.9 5013.6 7336.9 5010.5 7346.4 5013.6 7336.9 5010.5 7346.4 5000.5 7346.4 4992.4 7352.3 5000.5 7358.2 5003.6 7367.7 5000.5 7358.2 4992.4 7364 5002.4 7364 5005.5 7373.5 4997.4 7379.4 5005.5 7385.3 4997.4 7391.2 5000.5 7400.7 5003.6 7410.2 5000.5 7419.7 5010.5 7419.7 5020.5 7419.7 5023.6 7410.2 5013.6 7410.2 5010.5 7419.7 5013.6 7410.2 5010.5 7419.7 5000.5 7419.7 4992.4 7425.6 5000.5 7431.5 5003.6 7441 5000.5 7431.5 4992.4 7437.3 5002.4 7437.3 5005.5 7446.9 4997.4 7452.7 5005.5 7458.6 4997.4 7464.5 5000.5 7474 5003.6 7483.5 5000.5 7493" clip-path="url(#a)" fill="none" stroke="#000" stroke-linecap="round"/>
<polyline points="5000.5 7493 5010.5 7493 5020.5 7493 5023.6 7483.5 5013.6 7483.5 5010.5 7493 5013.6 7483.5 5010.5 7493 5000.5 7493 4992.4 7498.9 5000.5 7504.8 5003.6 7514.3 5000.5 7504.8 4992.4 7510.7 5002.4 7510.7 5005.5 7520.2 4997.4 7526 5005.5 7531.9 4997.4 7537.8 5000.5 7547.3 5003.6 7556.8 5000.5 7566.3 5010.5 7566.3 5020.5 7566.3 5023.6 7556.8 5013.6 7556.8 5010.5 7566.3 5013.6 7556.8 5010.5 7566.3 5000.5 7566.3 4992.4 7572.2 5000.5 7578.1 5003.6 7587.6 5000.5 7578.1 4992.4 7584 5002.4 7584 5005.5 7593.5 4997.4 7599.4 5005.5 7605.2 4997.4 7611.1 5000.5 7620.6 5003.6 7630.1 5000.5 7639.6" clip-path="url(#a)" fill="none" stroke="#000" stroke-linecap="round"/>
<polyline points="5000.5 7639.6 5010.5 7639.6 5020.5 7639.6 5023.6 7630.1 5013.6 7630.1 5010.5 7639.6 5013.6 7630.1 5010.5 7639.6 5000.5 7639.6 4992.4 7645.5 5000.5 7651.4 5003.6 7660.9 5000.5 7651.4 4992.4 7657.3 5002.4 7657.3 5005.5 7666.8 4997.4 7672.7 5005.5 7678.5 4997.4 7684.4 5000.5 7693.9 5003.6 7703.4 5000.5 7712.9 5010.5 7712.9 5020.5 7712.9 5023.6 7703.4 5013.6 7703.4 5010.5 7712.9 5013.6 7703.4 5010.5 7712.9 5000.5 7712.9 4992.4 7718.8 5000.5 7724.7 5003.6 7734.2 5000.5 7724.7 4992.4 7730.6 5002.4 7730.6 5005.5 7740.1 4997.4 7746 5005.5 7751.8 4997.4 7757.7 5000.5 7767.2 5003.6 7776.7 5000.5 7786.3" clip-path="url(#a)" fill="none" stroke="#000" stroke-linecap="round"/>
<polyline points="5000.5 7786.3 5010.5 7786.3 5020.5 7786.3 5023.6 7776.7 5013.6 7776.7 5010.5 7786.3 5013.6 7776.7 5010.5 7786.3 5000.5 7786.3 4992.4 7792.1 5000.5 7798 5003.6 7807.5 5000.5 7798 4992.4 7803.9 5002.4 7803.9 5005.5 7813.4 4997.4 7819.3 5005.5 7825.2 4997.4 7831 5000.5 7840.5 5003.6 7850.1 5000.5 7859.6 5010.5 7859.6 5020.5 7859.6 5023.6 7850.1 5013.6 7850.1 5010.5 7859.6 5013.6 7850.1 5010.5 7859.6 5000.5 7859.6 4992.4 7865.4 5000.5 7871.3 5003.6 7880.8 5000.5 7871.3 4992.4 7877.2 5002.4 7877.2 5005.5 7886.7 4997.4 7892.6 5005.5 7898.5 4997.4 7904.3 5000.5 7913.9 5003.6 7923.4 5000.5 7932.9" clip-path="url(#a)" fill="none" stroke="#000" stroke-linecap="round"/>
</svg>
