<?xml version="1.0" encoding="utf-8" ?>
<svg baseProfile="full" height="1000px" version="1.1" width="1000px" xmlns="http://www.w3.org/2000/svg" xmlns:ev="http://www.w3.org/2001/xml-events" xmlns:xlink="http://www.w3.org/1999/xlink"><defs><clipPath id="border_clip"><rect height="1000" width="1000" x="0" y="0" /></clipPath></defs><polyline clip-path="url(#border_clip)" fill="none" points="500.5,500.5 510.5,500.5 513.5901699437495,490.98943483704846 503.59016994374946,490.98943483704846 500.5,500.5 503.59016994374946,490.98943483704846 500.5,500.5 490.5,500.5 482.40983005625054,506.37785252292474 490.5,512.2557050458495 493.59016994374946,521.766270208801 490.5,512.2557050458495 482.4098300562505,518.1335575687742 492.4098300562505,518.1335575687742 495.49999999999994,527.6441227317257 487.4098300562505,533.5219752546504 495.49999999999994,539.3998277775752 487.4098300562505,545.2776803004999 490.49999999999994,554.7882454634514 493.5901699437494,564.298810626403 490.4999999999999,573.8093757893546 500.4999999999999,573.8093757893546 510.4999999999999,573.8093757893546 513.5901699437494,564.298810626403 503.5901699437494,564.298810626403 500.4999999999999,573.8093757893546 503.5901699437494,564.298810626403 500.4999999999999,573.8093757893546 490.4999999999999,573.8093757893545 482.40983005625037,579.6872283122792 490.49999999999983,585.565080835204 493.5901699437493,595.0756459981556 490.49999999999983,585.565080835204 482.40983005625037,591.4429333581287 492.40983005625037,591.4429333581287 495.4999999999998,600.9534985210803 487.4098300562503,606.8313510440049 495.4999999999998,612.7092035669298 487.40983005625026,618.5870560898544 490.4999999999997,628.097621252806 493.5901699437491,637.6081864157575 490.4999999999996,647.1187515787091 500.4999999999996,647.1187515787092" stroke="black" stroke-linecap="round" stroke-width="1" /><polyline clip-path="url(#border_clip)" fill="none" points="500.4999999999996,647.1187515787092 510.4999999999996,647.1187515787092 513.5901699437492,637.6081864157577 503.5901699437491,637.6081864157576 500.4999999999996,647.1187515787092 503.5901699437491,637.6081864157576 500.4999999999996,647.1187515787092 490.4999999999996,647.1187515787091 482.4098300562501,652.9966041016337 490.49999999999955,658.8744566245585 493.59016994374895,668.3850217875101 490.49999999999955,658.8744566245585 482.40983005625003,664.7523091474832 492.40983005625003,664.7523091474833 495.49999999999943,674.2628743104349 487.4098300562499,680.1407268333595 495.4999999999994,686.0185793562844 487.40983005624986,691.896431879209 490.49999999999926,701.4069970421606 493.5901699437487,710.9175622051121 490.49999999999915,720.4281273680637 500.49999999999915,720.4281273680637 510.49999999999915,720.4281273680638 513.5901699437487,710.9175622051123 503.5901699437487,710.9175622051122 500.49999999999915,720.4281273680637 503.5901699437487,710.9175622051122 500.49999999999915,720.4281273680637 490.49999999999915,720.4281273680635 482.40983005624963,726.3059798909883 490.4999999999991,732.183832413913 493.5901699437485,741.6943975768646 490.4999999999991,732.183832413913 482.4098300562495,738.0616849368378 492.4098300562495,738.0616849368379 495.4999999999989,747.5722500997895 487.4098300562494,753.4501026227141 495.49999999999886,759.327955145639 487.4098300562493,765.2058076685636 490.4999999999987,774.7163728315152 493.5901699437481,784.2269379944668 490.4999999999985,793.7375031574184 500.4999999999985,793.7375031574184" stroke="black" stroke-linecap="round" stroke-width="1" /><polyline clip-path="url(#border_clip)" fill="none" points="500.4999999999985,793.7375031574184 510.4999999999985,793.7375031574186 513.5901699437482,784.226937994467 503.5901699437481,784.2269379944669 500.4999999999985,793.7375031574184 503.5901699437481,784.2269379944669 500.4999999999985,793.7375031574184 490.4999999999985,793.7375031574184 482.40983005624895,799.615355680343 490.4999999999984,805.4932082032678 493.59016994374775,815.0037733662193 490.4999999999984,805.4932082032678 482.40983005624884,811.3710607261924 492.4098300562489,811.3710607261926 495.49999999999824,820.8816258891441 487.40983005624867,826.7594784120688 495.4999999999981,832.6373309349935 487.40983005624855,838.5151834579183 490.49999999999795,848.0257486208698 493.5901699437473,857.5363137838215 490.4999999999977,867.046878946773 500.4999999999977,867.0468789467731 510.4999999999977,867.0468789467732 513.5901699437474,857.5363137838217 503.5901699437473,857.5363137838215 500.4999999999977,867.0468789467731 503.5901699437473,857.5363137838215 500.4999999999977,867.0468789467731 490.4999999999977,867.046878946773 482.40983005624815,872.9247314696976 490.49999999999756,878.8025839926224 493.5901699437469,888.313149155574 490.49999999999756,878.8025839926224 482.409830056248,884.6804365155471 492.40983005624804,884.6804365155472 495.4999999999974,894.1910016784988 487.4098300562478,900.0688542014234 495.4999999999972,905.9467067243482 487.40983005624764,911.8245592472729 490.499999999997,921.3351244102245 493.59016994374633,930.8456895731761 490.49999999999676,940.3562547361275 500.49999999999676,940.3562547361277" stroke="black" stroke-linecap="round" stroke-width="1" /><polyline clip-path="url(#border_clip)" fill="none" points="500.49999999999676,940.3562547361277 510.49999999999676,940.3562547361278 513.5901699437463,930.8456895731763 503.5901699437464,930.8456895731762 500.49999999999676,940.3562547361277 503.5901699437464,930.8456895731762 500.49999999999676,940.3562547361277 490.49999999999676,940.3562547361275 482.4098300562472,946.234107259052 490.4999999999966,952.111959781977 493.59016994374593,961.6225249449285 490.4999999999966,952.111959781977 482.409830056247,957.9898123049015 492.409830056247,957.9898123049018 495.49999999999636,967.5003774678534 487.4098300562468,973.378229990778 495.49999999999613,979.2560825137028 487.40983005624656,985.1339350366275 490.4999999999959,994.644500199579 493.59016994374525,1004.1550653625306 490.4999999999956,1013.6656305254821 500.4999999999956,1013.6656305254822 510.4999999999956,1013.6656305254824 513.5901699437453,1004.1550653625309 503.59016994374525,1004.1550653625306 500.4999999999956,1013.6656305254822 503.59016994374525,1004.1550653625308 500.4999999999956,1013.6656305254822 490.4999999999956,1013.6656305254821 482.409830056246,1019.5434830484068 490.4999999999954,1025.4213355713316 493.59016994374474,1034.9319007342833 490.4999999999954,1025.4213355713316 482.4098300562458,1031.2991880942564 492.4098300562458,1031.2991880942564 495.49999999999517,1040.809753257208 487.40983005624554,1046.6876057801328 495.49999999999494,1052.5654583030575 487.4098300562453,1058.4433108259823 490.49999999999466,1067.9538759889338 493.59016994374394,1077.4644411518852 490.4999999999943,1086.9750063148367 500.4999999999943,1086.9750063148372" stroke="black" stroke-linecap="round" stroke-width="1" /><polyline clip-path="url(#border_clip)" fill="none" points="500.4999999999943,1086.9750063148372 510.4999999999943,1086.9750063148372 513.590169943744,1077.4644411518857 503.59016994374394,1077.4644411518857 500.4999999999943,1086.9750063148372 503.59016994374394,1077.4644411518857 500.4999999999943,1086.9750063148372 490.4999999999943,1086.9750063148367 482.4098300562447,1092.8528588377615 490.4999999999941,1098.7307113606862 493.5901699437434,1108.241276523638 490.4999999999941,1098.7307113606862 482.40983005624446,1104.608563883611 492.40983005624446,1104.6085638836112 495.49999999999375,1114.1191290465626 487.4098300562442,1119.9969815694874 495.4999999999935,1125.8748340924121 487.40983005624395,1131.7526866153369 490.49999999999324,1141.2632517782886 493.5901699437425,1150.77381694124 490.49999999999284,1160.2843821041915 500.49999999999284,1160.2843821041918 510.4999999999929,1160.284382104192 513.5901699437426,1150.7738169412405 503.5901699437425,1150.7738169412403 500.49999999999284,1160.2843821041918 503.5901699437425,1150.7738169412403 500.49999999999284,1160.2843821041918 490.49999999999284,1160.2843821041915 482.4098300562432,1166.162234627116 490.49999999999255,1172.040087150041 493.59016994374184,1181.5506523129927 490.49999999999255,1172.040087150041 482.4098300562429,1177.9179396729658 492.409830056243,1177.917939672966 495.49999999999227,1187.4285048359175 487.40983005624264,1193.306357358842 495.499999999992,1199.184209881767 487.40983005624236,1205.0620624046915 490.4999999999916,1214.5726275676432 493.5901699437409,1224.0831927305949 490.4999999999912,1233.5937578935464 500.4999999999912,1233.5937578935464" stroke="black" stroke-linecap="round" stroke-width="1" /><polyline clip-path="url(#border_clip)" fill="none" points="500.4999999999912,1233.5937578935464 510.49999999999125,1233.5937578935468 513.590169943741,1224.0831927305953 503.59016994374093,1224.0831927305949 500.4999999999912,1233.5937578935464 503.59016994374093,1224.0831927305949 500.4999999999912,1233.5937578935464 490.4999999999912,1233.5937578935464 482.4098300562415,1239.4716104164709 490.4999999999909,1245.3494629393958 493.59016994374014,1254.8600281023473 490.4999999999909,1245.3494629393958 482.4098300562413,1251.2273154623203 492.4098300562413,1251.2273154623203 495.4999999999905,1260.737880625272 487.4098300562409,1266.6157331481966 495.4999999999902,1272.4935856711215 487.4098300562406,1278.371438194046 490.4999999999898,1287.8820033569978 493.59016994373906,1297.3925685199492 490.49999999998937,1306.9031336829007 500.49999999998937,1306.903133682901 510.4999999999894,1306.9031336829012 513.5901699437392,1297.3925685199497 503.5901699437391,1297.3925685199495 500.49999999998937,1306.903133682901 503.5901699437391,1297.3925685199495 500.49999999998937,1306.903133682901 490.49999999998937,1306.9031336829007 482.4098300562397,1312.7809862058252 490.49999999998903,1318.6588387287502 493.59016994373826,1328.169403891702 490.49999999998903,1318.6588387287502 482.4098300562394,1324.5366912516747 492.4098300562394,1324.536691251675 495.49999999998863,1334.0472564146266 487.409830056239,1339.9251089375512 495.49999999998835,1345.8029614604761 487.40983005623866,1351.6808139834006 490.4999999999879,1361.1913791463523 493.5901699437371,1370.701944309304 490.4999999999874,1380.2125094722555 500.4999999999874,1380.2125094722558" stroke="black" stroke-linecap="round" stroke-width="1" /><polyline clip-path="url(#border_clip)" fill="none" points="500.4999999999874,1380.2125094722558 510.49999999998744,1380.212509472256 513.5901699437372,1370.7019443093045 503.5901699437371,1370.7019443093043 500.4999999999874,1380.2125094722558 503.5901699437371,1370.7019443093043 500.4999999999874,1380.2125094722558 490.4999999999874,1380.2125094722555 482.4098300562377,1386.09036199518 490.49999999998704,1391.968214518105 493.5901699437362,1401.4787796810567 490.49999999998704,1391.968214518105 482.40983005623735,1397.8460670410295 492.4098300562374,1397.84606704103 495.4999999999866,1407.3566322039815 487.40983005623696,1413.234484726906 495.49999999998624,1419.112337249831 487.40983005623656,1424.9901897727555 490.4999999999858,1434.5007549357074 493.59016994373496,1444.0113200986589 490.4999999999852,1453.5218852616104 500.4999999999853,1453.5218852616108 510.4999999999853,1453.5218852616113 513.5901699437351,1444.0113200986598 503.590169943735,1444.0113200986593 500.4999999999853,1453.5218852616108 503.590169943735,1444.0113200986593 500.4999999999853,1453.5218852616108 490.4999999999852,1453.5218852616104 482.40983005623553,1459.3997377845349 490.4999999999849,1465.2775903074598 493.59016994373405,1474.7881554704118 490.4999999999849,1465.2775903074598 482.40983005623514,1471.1554428303843 492.4098300562352,1471.1554428303848 495.49999999998437,1480.6660079933365 487.4098300562347,1486.543860516261 495.499999999984,1492.421713039186 487.40983005623434,1498.2995655621105 490.4999999999835,1507.8101307250622 493.5901699437327,1517.320695888014 490.4999999999829,1526.8312610509654 500.49999999998295,1526.8312610509656" stroke="black" stroke-linecap="round" stroke-width="1" /><polyline clip-path="url(#border_clip)" fill="none" points="500.49999999998295,1526.8312610509656 510.49999999998295,1526.8312610509658 513.5901699437328,1517.3206958880144 503.5901699437327,1517.3206958880141 500.49999999998295,1526.8312610509654 503.59016994373275,1517.320695888014 500.49999999998295,1526.8312610509654 490.4999999999829,1526.8312610509652 482.40983005623315,1532.7091135738897 490.4999999999825,1538.5869660968146 493.59016994373167,1548.0975312597664 490.4999999999825,1538.5869660968146 482.40983005623275,1544.4648186197392 492.4098300562328,1544.4648186197394 495.499999999982,1553.975383782691 487.4098300562323,1559.8532363056156 495.4999999999816,1565.7310888285406 487.40983005623184,1571.608941351465 490.499999999981,1581.1195065144168 493.5901699437302,1590.6300716773685 490.4999999999804,1600.14063684032 500.4999999999804,1600.1406368403204 510.49999999998045,1600.140636840321 513.5901699437303,1590.6300716773694 503.59016994373025,1590.630071677369 500.4999999999804,1600.1406368403204 503.59016994373025,1590.630071677369 500.4999999999804,1600.1406368403204 490.4999999999804,1600.14063684032 482.40983005623065,1606.0184893632445 490.49999999997993,1611.8963418861695 493.5901699437291,1621.4069070491212 490.49999999997993,1611.8963418861695 482.40983005623025,1617.774194409094 492.40983005623025,1617.7741944090944 495.4999999999794,1627.2847595720461 487.4098300562297,1633.1626120949707 495.49999999997897,1639.0404646178956 487.4098300562293,1644.9183171408201 490.4999999999784,1654.4288823037718 493.5901699437275,1663.9394474667235 490.4999999999777,1673.450012629675 500.4999999999777,1673.4500126296755" stroke="black" stroke-linecap="round" stroke-width="1" /><polyline clip-path="url(#border_clip)" fill="none" points="500.4999999999777,1673.4500126296755 510.4999999999778,1673.450012629676 513.5901699437277,1663.9394474667245 503.5901699437276,1663.939447466724 500.4999999999777,1673.4500126296755 503.5901699437276,1663.939447466724 500.4999999999777,1673.4500126296755 490.4999999999777,1673.450012629675 482.409830056228,1679.3278651525995 490.49999999997726,1685.2057176755245 493.5901699437264,1694.7162828384762 490.49999999997726,1685.2057176755245 482.4098300562275,1691.083570198449 492.4098300562276,1691.0835701984495 495.4999999999767,1700.5941353614012 487.40983005622695,1706.4719878843257 495.49999999997624,1712.3498404072507 487.4098300562265,1718.2276929301752 490.4999999999756,1727.738258093127 493.59016994372473,1737.2488232560786 490.4999999999749,1746.75938841903 500.49999999997493,1746.7593884190305 510.499999999975,1746.759388419031 513.5901699437248,1737.2488232560795 503.5901699437248,1737.248823256079 500.49999999997493,1746.7593884190305 503.5901699437248,1737.248823256079 500.49999999997493,1746.7593884190305 490.4999999999749,1746.75938841903 482.40983005622513,1752.6372409419546 490.49999999997436,1758.5150934648798 493.5901699437235,1768.0256586278315 490.49999999997436,1758.5150934648798 482.4098300562246,1764.3929459878043 492.4098300562247,1764.3929459878048 495.4999999999738,1773.9035111507565 487.40983005622405,1779.781363673681 495.4999999999733,1785.6592161966062 487.40983005622354,1791.5370687195307 490.49999999997266,1801.0476338824824 493.5901699437217,1810.558199045434 490.49999999997186,1820.0687642083856 500.4999999999719,1820.068764208386" stroke="black" stroke-linecap="round" stroke-width="1" /><polyline clip-path="url(#border_clip)" fill="none" points="500.4999999999719,1820.068764208386 510.499999999972,1820.0687642083865 513.5901699437219,1810.558199045435 503.5901699437218,1810.5581990454345 500.4999999999719,1820.068764208386 503.5901699437218,1810.5581990454345 500.4999999999719,1820.068764208386 490.49999999997186,1820.0687642083856 482.40983005622206,1825.94661673131 490.49999999997135,1831.8244692542353 493.59016994372047,1841.335034417187 490.49999999997135,1831.8244692542353 482.4098300562216,1837.7023217771598 492.40983005622167,1837.7023217771603 495.4999999999707,1847.212886940112 487.409830056221,1853.0907394630365 495.4999999999702,1858.9685919859617 487.40983005622047,1864.8464445088862 490.49999999996953,1874.357009671838 493.5901699437186,1883.8675748347896 490.4999999999687,1893.378139997741 500.49999999996874,1893.3781399977415 510.4999999999688,1893.378139997742 513.5901699437187,1883.8675748347905 503.59016994371865,1883.86757483479 500.49999999996874,1893.3781399977415 503.59016994371865,1883.86757483479 500.49999999996874,1893.3781399977415 490.4999999999687,1893.378139997741 482.4098300562189,1899.2559925206656 490.49999999996817,1905.1338450435908 493.5901699437172,1914.6444102065425 490.49999999996817,1905.1338450435908 482.40983005621837,1911.0116975665153 492.4098300562184,1911.0116975665157 495.4999999999675,1920.5222627294675 487.4098300562177,1926.400115252392 495.499999999967,1932.2779677753172 487.4098300562172,1938.1558202982415 490.49999999996624,1947.6663854611932 493.5901699437153,1957.1769506241449 490.4999999999654,1966.6875157870963 500.49999999996544,1966.6875157870968" stroke="black" stroke-linecap="round" stroke-width="1" /><polyline clip-path="url(#border_clip)" fill="none" points="500.49999999996544,1966.6875157870968 510.4999999999655,1966.6875157870973 513.5901699437154,1957.1769506241458 503.59016994371535,1957.1769506241453 500.49999999996544,1966.6875157870968 503.59016994371535,1957.1769506241453 500.49999999996544,1966.6875157870968 490.4999999999654,1966.6875157870963 482.4098300562156,1972.5653683100206 490.4999999999648,1978.4432208329458 493.5901699437139,1987.9537859958975 490.4999999999648,1978.4432208329458 482.409830056215,1984.32107335587 492.40983005621507,1984.3210733558706 495.49999999996413,1993.8316385188223 487.40983005621433,1999.7094910417466 495.49999999996356,2005.5873435646718 487.40983005621376,2011.465196087596 490.49999999996277,2020.9757612505477 493.5901699437118,2030.4863264134995 490.49999999996186,2039.996891576451 500.4999999999619,2039.9968915764514 510.49999999996203,2039.9968915764518 513.590169943712,2030.4863264135004 503.5901699437119,2030.4863264135 500.4999999999619,2039.9968915764514 503.5901699437119,2030.4863264135 500.4999999999619,2039.9968915764514 490.49999999996186,2039.996891576451 482.40983005621206,2045.8747440993752 490.4999999999613,2051.7525966223 493.5901699437103,2061.263161785252 490.4999999999613,2051.7525966223 482.4098300562115,2057.6304491452247 492.40983005621155,2057.630449145225 495.49999999996055,2067.1410143081766 487.40983005621075,2073.018866831101 495.49999999996,2078.8967193540266 487.4098300562101,2084.7745718769506 490.4999999999592,2094.285137039902 493.5901699437082,2103.795702202854 490.4999999999582,2113.3062673658055 500.4999999999583,2113.306267365806" stroke="black" stroke-linecap="round" stroke-width="1" /><polyline clip-path="url(#border_clip)" fill="none" points="500.4999999999583,2113.306267365806 510.49999999995833,2113.3062673658064 513.5901699437084,2103.795702202855 503.59016994370825,2103.7957022028545 500.4999999999583,2113.306267365806 503.59016994370825,2103.7957022028545 500.4999999999583,2113.306267365806 490.4999999999582,2113.3062673658055 482.40983005620836,2119.1841198887296 490.4999999999576,2125.061972411655 493.5901699437066,2134.572537574607 490.4999999999576,2125.061972411655 482.4098300562078,2130.9398249345795 492.40983005620785,2130.9398249345795 495.49999999995686,2140.4503900975315 487.409830056207,2146.328242620456 495.49999999995623,2152.206095143381 487.4098300562064,2158.083947666305 490.4999999999554,2167.594512829257 493.5901699437044,2177.105077992209 490.4999999999544,2186.61564315516 500.49999999995447,2186.615643155161 510.4999999999545,2186.615643155161 513.5901699437045,2177.1050779922098 503.59016994370444,2177.105077992209 500.49999999995447,2186.615643155161 503.59016994370444,2177.105077992209 500.49999999995447,2186.615643155161 490.4999999999544,2186.61564315516 482.40983005620456,2192.4934956780844 490.4999999999538,2198.37134820101 493.59016994370273,2207.8819133639613 490.4999999999538,2198.37134820101 482.40983005620393,2204.249200723934 492.409830056204,2204.2492007239343 495.499999999953,2213.7597658868863 487.40983005620313,2219.6376184098103 495.4999999999523,2225.5154709327353 487.40983005620245,2231.39332345566 490.49999999995146,2240.9038886186117 493.5901699437004,2250.414453781563 490.4999999999504,2259.9250189445147 500.4999999999505,2259.925018944515" stroke="black" stroke-linecap="round" stroke-width="1" /><polyline clip-path="url(#border_clip)" fill="none" points="500.4999999999505,2259.925018944515 510.49999999995055,2259.9250189445156 513.5901699437005,2250.414453781564 503.5901699437005,2250.4144537815637 500.4999999999505,2259.925018944515 503.5901699437005,2250.4144537815637 500.4999999999505,2259.925018944515 490.4999999999504,2259.9250189445147 482.4098300562005,2265.802871467439 490.49999999994975,2271.680723990364 493.5901699436987,2281.1912891533157 490.49999999994975,2271.680723990364 482.4098300561999,2277.5585765132882 492.40983005619995,2277.558576513289 495.4999999999489,2287.0691416762406 487.40983005619904,2292.9469941991647 495.4999999999482,2298.82484672209 487.40983005619836,2304.7026992450146 490.4999999999473,2314.213264407966 493.59016994369625,2323.7238295709176 490.4999999999462,2333.2343947338695 500.4999999999463,2333.23439473387 510.4999999999464,2333.2343947338704 513.5901699436964,2323.7238295709194 503.59016994369637,2323.7238295709185 500.4999999999463,2333.23439473387 503.59016994369637,2323.7238295709185 500.4999999999463,2333.23439473387 490.4999999999462,2333.2343947338695 482.40983005619637,2339.1122472567936 490.49999999994554,2344.9900997797185 493.5901699436945,2354.5006649426705 490.49999999994554,2344.9900997797185 482.40983005619563,2350.867952302643 492.40983005619574,2350.867952302644 495.4999999999447,2360.3785174655955 487.4098300561948,2366.2563699885195 495.49999999994395,2372.134222511445 487.4098300561941,2378.0120750343694 490.49999999994304,2387.522640197321 493.59016994369193,2397.0332053602724 490.4999999999419,2406.5437705232243 500.49999999994196,2406.543770523225" stroke="black" stroke-linecap="round" stroke-width="1" /><polyline clip-path="url(#border_clip)" fill="none" points="500.49999999994196,2406.543770523225 510.4999999999421,2406.5437705232252 513.5901699436921,2397.033205360274 503.59016994369205,2397.0332053602733 500.49999999994196,2406.543770523225 503.59016994369205,2397.0332053602733 500.49999999994196,2406.543770523225 490.4999999999419,2406.5437705232243 482.409830056192,2412.4216230461484 490.49999999994117,2418.2994755690734 493.5901699436901,2427.8100407320253 490.49999999994117,2418.2994755690734 482.40983005619125,2424.177328091998 492.40983005619137,2424.177328091999 495.49999999994026,2433.6878932549503 487.4098300561904,2439.5657457778743 495.4999999999396,2445.4435983007997 487.40983005618966,2451.3214508237243 490.49999999993855,2460.8320159866757 493.5901699436875,2470.342581149627 490.4999999999374,2479.853146312579 500.4999999999375,2479.8531463125796 510.4999999999376,2479.85314631258 513.5901699436877,2470.342581149629 503.59016994368756,2470.342581149628 500.4999999999375,2479.8531463125796 503.59016994368756,2470.342581149628 500.4999999999375,2479.8531463125796 490.4999999999374,2479.853146312579 482.4098300561875,2485.730998835503 490.4999999999367,2491.608851358428 493.59016994368557,2501.11941652138 490.4999999999367,2491.608851358428 482.40983005618676,2497.4867038813527 492.4098300561868,2497.4867038813536 495.49999999993577,2506.997269044305 487.4098300561858,2512.875121567229 495.49999999993497,2518.7529740901546 487.40983005618506,2524.630826613079 490.49999999993395,2534.1413917760306 493.59016994368284,2543.651956938982 490.49999999993275,2553.1625221019335 500.4999999999328,2553.162522101934" stroke="black" stroke-linecap="round" stroke-width="1" /><polyline clip-path="url(#border_clip)" fill="none" points="500.4999999999328,2553.162522101934 510.4999999999329,2553.1625221019344 513.590169943683,2543.651956938983 503.59016994368295,2543.651956938982 500.4999999999328,2553.1625221019335 503.59016994368295,2543.651956938982 500.4999999999328,2553.1625221019335 490.49999999993275,2553.162522101933 482.40983005618284,2559.040374624857 490.499999999932,2564.9182271477825 493.59016994368085,2574.4287923107345 490.499999999932,2564.9182271477825 482.40983005618205,2570.7960796707066 492.40983005618216,2570.796079670707 495.49999999993105,2580.306644833659 487.4098300561811,2586.184497356583 495.49999999993025,2592.0623498795085 487.40983005618034,2597.9402024024325 490.4999999999292,2607.4507675653845 493.59016994367806,2616.9613327283364 490.4999999999279,2626.471897891288 500.49999999992804,2626.4718978912883 510.4999999999281,2626.471897891289 513.5901699436782,2616.9613327283373 503.5901699436782,2616.961332728337 500.49999999992804,2626.4718978912883 503.5901699436782,2616.961332728337 500.49999999992804,2626.4718978912883 490.4999999999279,2626.471897891288 482.40983005617795,2632.349750414212 490.4999999999271,2638.2276029371374 493.590169943676,2647.7381681000893 490.4999999999271,2638.2276029371374 482.4098300561772,2644.1054554600614 492.40983005617727,2644.105455460062 495.49999999992616,2653.616020623014 487.4098300561762,2659.493873145938 495.4999999999253,2665.3717256688633 487.4098300561754,2671.2495781917874 490.4999999999242,2680.7601433547393 493.59016994367306,2690.270708517691 490.4999999999229,2699.7812736806427 500.49999999992303,2699.7812736806436" stroke="black" stroke-linecap="round" stroke-width="1" /><polyline clip-path="url(#border_clip)" fill="none" points="500.49999999992303,2699.7812736806436 510.49999999992315,2699.7812736806445 513.5901699436732,2690.270708517693 503.5901699436732,2690.270708517692 500.49999999992303,2699.7812736806436 503.5901699436732,2690.270708517692 500.49999999992303,2699.7812736806436 490.4999999999229,2699.7812736806427 482.40983005617295,2705.6591262035668 490.4999999999221,2711.536978726492 493.59016994367096,2721.047543889444 490.4999999999221,2711.536978726492 482.40983005617215,2717.4148312494162 492.40983005617227,2717.414831249417 495.4999999999211,2726.925396412369 487.40983005617113,2732.803248935293 495.49999999992025,2738.6811014582186 487.4098300561703,2744.5589539811426 490.4999999999191,2754.0695191440946 493.59016994366795,2763.5800843070465 490.49999999991775,2773.090649469998 500.49999999991786,2773.090649469999 510.499999999918,2773.09064947 513.5901699436681,2763.5800843070483 503.59016994366806,2763.5800843070474 500.49999999991786,2773.090649469999 503.59016994366806,2763.5800843070474 500.49999999991786,2773.090649469999 490.49999999991775,2773.090649469998 482.4098300561678,2778.968501992922 490.4999999999169,2784.8463545158475 493.5901699436657,2794.3569196787994 490.4999999999169,2784.8463545158475 482.4098300561669,2790.7242070387715 492.40983005616704,2790.7242070387724 495.4999999999159,2800.2347722017244 487.40983005616584,2806.1126247246484 495.49999999991496,2811.990477247574 487.409830056165,2817.868329770498 490.4999999999138,2827.37889493345 493.5901699436626,2836.8894600964018 490.4999999999124,2846.4000252593532 500.4999999999125,2846.400025259354" stroke="black" stroke-linecap="round" stroke-width="1" /><polyline clip-path="url(#border_clip)" fill="none" points="500.4999999999125,2846.400025259354 510.49999999991263,2846.400025259355 513.5901699436629,2836.8894600964036 503.5901699436627,2836.8894600964027 500.4999999999125,2846.400025259354 503.5901699436627,2836.8894600964027 500.4999999999125,2846.400025259354 490.4999999999124,2846.4000252593532 482.40983005616243,2852.2778777822773 490.49999999991155,2858.1557303052027 493.5901699436603,2867.6662954681547 490.49999999991155,2858.1557303052027 482.4098300561616,2864.033582828127 492.40983005616164,2864.0335828281277 495.4999999999105,2873.5441479910796 487.40983005616044,2879.4220005140037 495.49999999990956,2885.299853036929 487.40983005615954,2891.177705559853 490.49999999990837,2900.688270722805 493.59016994365714,2910.198835885757 490.4999999999069,2919.7094010487085 500.499999999907,2919.7094010487094 510.4999999999071,2919.7094010487103 513.5901699436573,2910.198835885759 503.59016994365726,2910.198835885758 500.499999999907,2919.7094010487094 503.59016994365726,2910.198835885758 500.499999999907,2919.7094010487094 490.4999999999069,2919.7094010487085 482.4098300561569,2925.5872535716326 490.49999999990604,2931.465106094558 493.5901699436548,2940.97567125751 490.49999999990604,2931.465106094558 482.409830056156,2937.342958617482 492.4098300561561,2937.342958617483 495.4999999999049,2946.853523780435 487.4098300561549,2952.731376303359 495.499999999904,2958.6092288262844 487.40983005615396,2964.4870813492084 490.49999999990274,2973.9976465121604 493.5901699436515,2983.5082116751123 490.49999999990126,2993.018776838064 500.4999999999013,2993.0187768380647" stroke="black" stroke-linecap="round" stroke-width="1" /><polyline clip-path="url(#border_clip)" fill="none" points="500.4999999999013,2993.0187768380647 510.49999999990143,2993.0187768380656 513.5901699436517,2983.508211675114 503.5901699436516,2983.508211675113 500.4999999999013,2993.0187768380647 503.5901699436516,2983.508211675113 500.4999999999013,2993.0187768380647 490.49999999990126,2993.018776838064 482.40983005615124,2998.896629360988 490.4999999999003,3004.7744818839133 493.5901699436491,3014.285047046865 490.4999999999003,3004.7744818839133 482.4098300561503,3010.6523344068373 492.4098300561504,3010.6523344068382 495.49999999989916,3020.16289956979 487.40983005614913,3026.0407520927142 495.4999999998982,3031.9186046156397 487.40983005614817,3037.7964571385637 490.49999999989694,3047.3070223015156 493.59016994364566,3056.8175874644676 490.4999999998954,3066.328152627419 500.4999999998955,3066.32815262742 510.49999999989564,3066.328152627421 513.590169943646,3056.8175874644694 503.5901699436458,3056.8175874644685 500.4999999998955,3066.32815262742 503.5901699436458,3056.8175874644685 500.4999999998955,3066.32815262742 490.4999999998954,3066.328152627419 482.4098300561454,3072.206005150343 490.49999999989444,3078.0838576732685 493.5901699436432,3087.5944228362205 490.49999999989444,3078.0838576732685 482.4098300561444,3083.9617101961926 492.40983005614453,3083.9617101961935 495.49999999989325,3093.4722753591454 487.4098300561432,3099.3501278820695 495.4999999998923,3105.227980404995 487.40983005614225,3111.105832927919 490.499999999891,3120.616398090871 493.5901699436397,3130.126963253823 490.49999999988944,3139.6375284167743 500.4999999998895,3139.6375284167752" stroke="black" stroke-linecap="round" stroke-width="1" /><polyline clip-path="url(#border_clip)" fill="none" points="500.4999999998895,3139.6375284167752 510.4999999998896,3139.637528416776 513.5901699436399,3130.1269632538247 503.5901699436398,3130.1269632538238 500.4999999998895,3139.6375284167752 503.5901699436398,3130.1269632538238 500.4999999998895,3139.6375284167752 490.4999999998894,3139.6375284167743 482.40983005613936,3145.5153809396984 490.4999999998884,3151.393233462624 493.59016994363714,3160.9037986255757 490.4999999998884,3151.393233462624 482.4098300561384,3157.271085985548 492.4098300561385,3157.271085985549 495.4999999998872,3166.7816511485007 487.40983005613714,3172.6595036714248 495.4999999998862,3178.53735619435 487.4098300561361,3184.4152087172743 490.49999999988484,3193.925773880226 493.59016994363355,3203.436339043178 490.49999999988324,3212.9469042061296 500.49999999988336,3212.9469042061305 510.49999999988347,3212.9469042061314 513.5901699436338,3203.43633904318 503.59016994363367,3203.436339043179 500.49999999988336,3212.9469042061305 503.59016994363367,3203.436339043179 500.49999999988336,3212.9469042061305 490.49999999988324,3212.9469042061296 482.40983005613316,3218.8247567290537 490.4999999998822,3224.702609251979 493.5901699436309,3234.213174414931 490.4999999998822,3224.702609251979 482.40983005613214,3230.580461774903 492.40983005613225,3230.580461774904 495.4999999998809,3240.091026937856 487.40983005613083,3245.96887946078 495.4999999998799,3251.8467319837055 487.4098300561298,3257.7245845066295 490.4999999998785,3267.2351496695815 493.5901699436272,3276.7457148325334 490.4999999998768,3286.256279995485 500.499999999877,3286.256279995486" stroke="black" stroke-linecap="round" stroke-width="1" /><polyline clip-path="url(#border_clip)" fill="none" points="500.499999999877,3286.256279995486 510.4999999998771,3286.2562799954867 513.5901699436274,3276.745714832535 503.5901699436273,3276.7457148325343 500.49999999987693,3286.256279995486 503.5901699436273,3276.7457148325343 500.49999999987693,3286.256279995486 490.4999999998768,3286.256279995485 482.40983005612674,3292.134132518409 490.4999999998758,3298.0119850413344 493.59016994362446,3307.5225502042863 490.4999999998758,3298.0119850413344 482.4098300561257,3303.8898375642584 492.4098300561258,3303.8898375642593 495.4999999998745,3313.4004027272113 487.4098300561244,3319.2782552501353 495.49999999987347,3325.1561077730607 487.4098300561233,3331.033960295985 490.499999999872,3340.5445254589367 493.59016994362065,3350.0550906218887 490.4999999998703,3359.56565578484 500.4999999998704,3359.565655784841 510.4999999998705,3359.565655784842 513.5901699436209,3350.0550906218905 503.59016994362077,3350.0550906218896 500.4999999998704,3359.565655784841 503.59016994362077,3350.0550906218896 500.4999999998704,3359.565655784841 490.4999999998703,3359.56565578484 482.4098300561202,3365.443508307764 490.4999999998692,3371.3213608306896 493.59016994361787,3380.8319259936416 490.4999999998692,3371.3213608306896 482.4098300561191,3377.1992133536137 492.40983005611923,3377.1992133536146 495.4999999998679,3386.7097785165665 487.40983005611776,3392.5876310394906 495.4999999998668,3398.465483562416 487.4098300561167,3404.34333608534 490.49999999986534,3413.853901248292 493.59016994361394,3423.364466411244 490.4999999998636,3432.8750315741954 500.4999999998637,3432.8750315741963" stroke="black" stroke-linecap="round" stroke-width="1" /></svg>