<?xml version="1.0" encoding="utf-8" ?>
<svg baseProfile="full" height="1000px" version="1.1" width="1000px" xmlns="http://www.w3.org/2000/svg" xmlns:ev="http://www.w3.org/2001/xml-events" xmlns:xlink="http://www.w3.org/1999/xlink"><defs><clipPath id="border_clip"><rect height="1000" width="1000" x="0" y="0" /></clipPath></defs><polyline clip-path="url(#border_clip)" fill="none" points="500.5,500.5 510.5,500.5 513.5901699437495,490.98943483704846 510.5,481.4788696740969 500.5,481.4788696740969 503.59016994374946,471.9683045111454 506.680339887499,481.4788696740969 503.59016994374946,471.9683045111454 506.680339887499,462.45773934819385 503.59016994374946,471.9683045111454 495.5,466.09045198822065 498.59016994374946,475.6010171511722 501.680339887499,466.09045198822065 504.77050983124843,475.6010171511722 496.6803398874989,481.4788696740969 488.59016994374946,487.35672219702167 480.5,481.47886967409687 488.59016994374946,487.35672219702167 498.59016994374946,487.35672219702167 508.59016994374946,487.35672219702167 500.49999999999994,493.2345747199464 508.5901699437494,499.11242724287115 505.49999999999994,508.6229924058227 513.5901699437494,514.5008449287475 516.6803398874988,524.011410091699 506.6803398874988,524.011410091699 503.5901699437494,514.5008449287474 513.5901699437494,514.5008449287475 516.6803398874989,504.9902797657959 506.6803398874989,504.9902797657959 514.7705098312483,510.86813228872063 522.8606797749978,516.7459848116454 519.7705098312483,507.23541964869383 509.7705098312484,507.23541964869383 519.7705098312483,507.23541964869383 509.7705098312484,507.23541964869383 512.8606797749978,516.7459848116454 520.9508497187472,522.6238373345701 524.0410196624966,532.1344024975217 532.1311896062462,538.0122550204464 529.0410196624968,528.501689857495 537.1311896062463,522.6238373345702 547.1311896062463,522.6238373345702" stroke="black" stroke-linecap="round" stroke-width="1" /><polyline clip-path="url(#border_clip)" fill="none" points="547.1311896062463,522.6238373345702 544.0410196624968,513.1132721716187 552.1311896062463,518.9911246945435 562.1311896062463,518.9911246945435 559.0410196624968,528.5016898574951 555.9508497187472,538.0122550204466 564.0410196624966,543.8901075433714 574.0410196624966,543.8901075433714 577.1311896062462,534.3795423804199 585.2213595499957,540.2573949033447 575.2213595499957,540.2573949033447 585.2213595499957,540.2573949033447 593.3115294937451,546.1352474262694 585.2213595499957,540.2573949033447 593.3115294937452,534.37954238042 583.3115294937452,534.3795423804199 591.4016994374946,540.2573949033447 581.4016994374946,540.2573949033447 578.3115294937452,530.7468297403931 575.2213595499958,521.2362645774415 583.3115294937453,515.3584120545169 575.2213595499958,521.2362645774415 572.1311896062462,530.7468297403931 569.0410196624966,540.2573949033446 565.9508497187472,530.746829740393 557.8606797749977,536.6246822633177 549.7705098312483,530.7468297403929 541.6803398874988,536.6246822633175 531.6803398874988,536.6246822633175 534.7705098312483,527.1141171003659 544.7705098312483,527.114117100366 541.6803398874988,536.6246822633175 549.7705098312482,542.5025347862423 552.8606797749977,532.9919696232909 544.7705098312482,538.8698221462155 536.6803398874987,544.7476746691402 546.6803398874987,544.7476746691402 549.7705098312483,535.2371095061887 546.6803398874987,544.7476746691402 549.7705098312483,535.2371095061887 539.7705098312483,535.2371095061886 531.6803398874987,541.1149620291133 521.6803398874987,541.1149620291133" stroke="black" stroke-linecap="round" stroke-width="1" /><polyline clip-path="url(#border_clip)" fill="none" points="521.6803398874987,541.1149620291133 513.5901699437492,546.9928145520379 523.5901699437492,546.992814552038 526.6803398874986,556.5033797149896 523.590169943749,566.0139448779411 533.590169943749,566.0139448779412 525.4999999999994,571.8917974008658 522.4098300562499,581.4023625638174 514.3196601125004,575.5245100408926 506.229490168751,569.6466575179677 498.1393202250015,575.5245100408923 495.0491502812519,585.0350752038439 503.1393202250013,590.9129277267687 495.04915028125174,596.7907802496934 498.13932022500137,587.2802150867418 495.04915028125174,596.7907802496934 486.9589803375022,602.668632772618 495.04915028125174,596.7907802496934 498.13932022500114,606.301345412645 501.2294901687507,596.7907802496934 493.13932022500114,602.6686327726181 496.2294901687508,593.1580676096665 506.2294901687508,593.1580676096667 516.2294901687508,593.1580676096669 519.3196601125002,602.6686327726184 516.2294901687508,593.1580676096669 508.13932022500137,587.280215086742 500.04915028125197,581.4023625638172 510.04915028125197,581.4023625638173 506.9589803375026,571.8917974008657 515.0491502812522,566.0139448779411 511.95898033750285,556.5033797149895 515.0491502812524,546.992814552038 523.1393202250018,552.8706670749627 520.0491502812522,562.3812322379143 511.95898033750285,556.5033797149895 503.8688103937533,562.3812322379141 511.9589803375027,568.259084760839 508.86881039375334,558.7485195978874 505.778640450004,549.2379544349358 502.68847050625436,558.7485195978873 510.77864045000376,564.6263721208121 502.68847050625436,558.7485195978873" stroke="black" stroke-linecap="round" stroke-width="1" /><polyline clip-path="url(#border_clip)" fill="none" points="502.68847050625436,558.7485195978873 510.77864045000376,564.6263721208121 513.8688103937534,555.1158069578606 510.77864045000405,545.605241794909 513.8688103937536,536.0946766319574 510.77864045000433,526.5841114690058 507.6884705062547,536.0946766319574 497.6884705062547,536.0946766319572 489.5983005625053,530.2168241090324 486.5081306187557,539.7273892719838 483.4179606750063,530.2168241090322 475.3277907312569,524.3389715861074 483.4179606750065,518.4611190631828 491.5081306187561,512.5832665402581 488.4179606750068,503.0727013773066 480.3277907312574,497.1948488543817 472.2376207875078,503.0727013773063 469.14745084375846,493.5621362143547 477.23762078750786,499.4399887372796 469.14745084375846,493.5621362143547 466.0572809000091,484.05157105140313 469.14745084375846,493.5621362143547 459.1474508437584,493.56213621435455 467.2376207875078,499.4399887372794 464.1474508437585,489.9294235743278 472.2376207875079,495.8072760972527 469.14745084375824,505.3178412602042 466.0572809000086,514.8284064231557 456.0572809000086,514.8284064231556 466.0572809000086,514.8284064231557 474.14745084375824,508.9505539002311 482.2376207875078,503.0727013773065 479.1474508437582,512.583266540258 489.1474508437582,512.5832665402581 492.2376207875075,522.0938317032098 502.2376207875075,522.09383170321 510.3277907312569,527.9716842261349 502.2376207875073,533.8495367490594 494.14745084375795,527.9716842261346 502.2376207875075,522.09383170321 499.14745084375824,512.5832665402584 491.0572809000086,518.461119063183 501.05728090000866,518.4611190631831" stroke="black" stroke-linecap="round" stroke-width="1" /><polyline clip-path="url(#border_clip)" fill="none" points="501.05728090000866,518.4611190631831 511.05728090000866,518.4611190631833 502.96711095625926,512.5832665402585 494.8769410125097,518.461119063183 502.9671109562593,512.5832665402585 494.8769410125097,518.461119063183 502.96711095625903,524.338971586108 512.967110956259,524.3389715861082 521.0572809000084,530.216824109033 531.0572809000084,530.2168241090333 522.9671109562591,524.3389715861083 526.0572809000088,514.8284064231568 534.1474508437584,508.95055390023225 526.057280900009,503.07270137730734 536.0572809000091,503.07270137730757 544.1474508437586,497.19484885438294 547.2376207875079,506.7054140173346 550.3277907312572,516.2159791802862 560.3277907312573,516.2159791802865 568.417960675007,510.33812665736184 565.3277907312577,500.82756149441025 575.3277907312577,500.8275614944104 567.237620787508,506.705414017335 575.3277907312577,500.8275614944104 585.3277907312577,500.82756149441065 575.3277907312577,500.8275614944104 578.4179606750074,491.31699633145894 570.3277907312577,497.1948488543835 580.3277907312578,497.19484885438374 572.2376207875081,503.0727013773083 564.1474508437587,497.19484885438334 556.0572809000093,491.3169963314584 559.1474508437591,481.80643116850695 556.0572809000093,491.3169963314584 559.1474508437586,500.8275614944101 562.2376207875079,510.3381266573617 554.1474508437585,504.46027413443676 551.0572809000089,513.9708392973882 541.0572809000088,513.970839297388 537.9671109562591,523.4814044603395 529.8769410125094,529.3592569832641 526.7867710687602,519.8486918203124 534.8769410125099,513.9708392973879" stroke="black" stroke-linecap="round" stroke-width="1" /><polyline clip-path="url(#border_clip)" fill="none" points="534.8769410125099,513.9708392973879 537.9671109562591,523.4814044603395 547.9671109562591,523.4814044603397 544.8769410125099,513.9708392973881 541.7867710687601,523.4814044603396 538.6966011250105,532.9919696232911 546.7867710687601,527.1141171003666 543.6966011250108,517.6035519374149 546.7867710687601,527.1141171003666 543.6966011250108,517.6035519374149 535.6064311812612,523.4814044603395 532.5162612375115,532.991969623291 524.4260912937618,538.8698221462155 521.3359213500121,548.380387309167 529.4260912937617,542.5025347862424 537.5162612375111,548.3803873091674 540.6064311812603,557.890952472119 548.69660112501,552.0130999491945 545.6064311812603,561.523665112146 548.6966011250095,571.0342302750976 538.6966011250095,571.0342302750973 528.6966011250095,571.0342302750971 525.6064311812597,580.5447954380486 528.6966011250089,590.0553606010002 538.696601125009,590.0553606010004 535.6064311812593,599.565925763952 532.51626123751,590.0553606010003 535.6064311812593,599.565925763952 532.5162612375095,609.0764909269035 535.6064311812593,599.565925763952 543.6966011250086,605.443778286877 540.6064311812594,595.9332131239253 537.5162612375095,605.4437782868767 534.4260912937604,595.933213123925 542.51626123751,590.0553606010005 550.6064311812597,584.177508078076 558.696601125009,590.055360601001 550.6064311812597,584.177508078076 540.6064311812597,584.1775080780758 530.6064311812596,584.1775080780754 538.6966011250094,578.2996555551509 530.60643118126,572.421803032226 533.6966011250097,562.9112378692745" stroke="black" stroke-linecap="round" stroke-width="1" /><polyline clip-path="url(#border_clip)" fill="none" points="533.6966011250097,562.9112378692745 525.6064311812604,557.0333853463495 522.5162612375112,547.5228201833978 532.5162612375112,547.5228201833982 535.6064311812604,557.0333853463499 525.6064311812604,557.0333853463495 522.5162612375107,566.543950509301 532.5162612375107,566.5439505093013 524.4260912937614,560.6660979863763 516.335921350012,554.7882454634513 519.4260912937611,564.298810626403 529.4260912937613,564.2988106264032 519.4260912937611,564.298810626403 529.4260912937613,564.2988106264032 526.3359213500121,554.7882454634516 518.2457514062627,548.9103929405265 515.1555814625135,539.399827777575 507.0654115187642,533.5219752546499 510.1555814625134,543.0325404176016 502.0654115187637,548.9103929405261 492.06541151876365,548.9103929405258 495.1555814625128,558.4209581034775 487.06541151876354,552.5431055805524 477.0654115187635,552.5431055805522 480.1555814625133,543.0325404176007 483.2457514062631,533.5219752546492 475.15558146251374,527.6441227317241 465.15558146251374,527.6441227317238 462.06541151876394,537.1546878946752 453.9752415750146,531.2768353717503 463.97524157501465,531.2768353717506 453.9752415750146,531.2768353717503 445.8850716312653,525.3989828488252 453.9752415750146,531.2768353717503 445.8850716312649,537.1546878946748 455.88507163126496,537.1546878946751 447.7949016875156,531.27683537175 457.7949016875157,531.2768353717504 460.88507163126485,540.7874005347021 463.975241575014,550.2979656976538 455.8850716312643,556.1758182205782 463.975241575014,550.2979656976538 467.0654115187638,540.7874005347023" stroke="black" stroke-linecap="round" stroke-width="1" /><polyline clip-path="url(#border_clip)" fill="none" points="467.0654115187638,540.7874005347023 470.1555814625136,531.2768353717508 473.2457514062628,540.7874005347026 481.3359213500125,534.909548011778 489.4260912937618,540.787400534703 497.5162612375115,534.9095480117786 507.5162612375115,534.909548011779 504.4260912937617,544.4201131747304 494.42609129376166,544.4201131747301 497.5162612375115,534.9095480117786 489.42609129376217,529.0316954888535 486.33592135001237,538.542260651805 494.4260912937621,532.6644081288805 502.5162612375118,526.7865556059561 492.51626123751174,526.7865556059558 489.42609129376194,536.2971207689072 492.51626123751174,526.7865556059558 489.42609129376194,536.2971207689072 499.426091293762,536.2971207689076 507.5162612375117,530.4192682459831 517.5162612375117,530.4192682459834 525.6064311812614,524.541415723059 515.6064311812614,524.5414157230587 512.5162612375123,515.030850560107 515.6064311812621,505.5202853971555 505.60643118126205,505.52028539715513 513.6966011250119,499.6424328742307 516.7867710687616,490.1318677112792 524.8769410125109,496.0097202342042 532.9671109562602,501.8875727571293 541.0572809000099,496.00972023420485 544.1474508437598,486.4991550712534 536.0572809000105,480.62130254832834 544.1474508437602,474.7434500254039 541.0572809000104,484.25401518835537 544.1474508437602,474.7434500254039 552.23762078751,468.86559750247943 544.1474508437602,474.7434500254039 541.057280900011,465.2328848624522 537.9671109562612,474.74345002540366 546.0572809000109,468.8655975024792 542.9671109562611,478.3761626654307 532.9671109562611,478.3761626654303" stroke="black" stroke-linecap="round" stroke-width="1" /><polyline clip-path="url(#border_clip)" fill="none" points="532.9671109562611,478.3761626654303 522.9671109562611,478.3761626654299 519.8769410125119,468.8655975024782 522.9671109562611,478.3761626654299 531.0572809000104,484.25401518835497 539.1474508437595,490.13186771128005 529.1474508437595,490.13186771127965 532.2376207875087,499.64243287423136 524.147450843759,505.52028539715576 527.237620787508,515.0308505601075 524.1474508437582,524.5414157230589 516.0572809000089,518.6635632001338 519.1474508437587,509.1529980371824 527.237620787508,515.0308505601075 535.3277907312578,509.15299803718307 527.2376207875085,503.275145514258 530.3277907312577,512.7857106772096 533.4179606750067,522.2962758401613 536.5081306187566,512.78571067721 528.4179606750073,506.90785815428484 536.5081306187566,512.78571067721 528.4179606750073,506.90785815428484 525.3277907312574,516.4184233172363 528.4179606750065,525.928988480188 525.3277907312566,535.4395536431394 528.4179606750058,544.9501188060912 531.5081306187557,535.4395536431397 541.5081306187557,535.4395536431401 549.598300562505,541.3174061660652 552.6884705062548,531.8068410031137 555.7786404500039,541.3174061660654 563.8688103937532,547.1952586889906 555.7786404500034,553.073111211915 547.6884705062537,558.9509637348394 550.7786404500027,568.4615288977911 558.868810393752,574.3393814207162 566.9589803375018,568.4615288977918 570.0491502812508,577.9720940607435 561.9589803375015,572.0942415378184 570.0491502812508,577.9720940607435 573.1393202249999,587.4826592236952 570.0491502812508,577.9720940607435 580.049150281251,577.972094060744" stroke="black" stroke-linecap="round" stroke-width="1" /><polyline clip-path="url(#border_clip)" fill="none" points="580.049150281251,577.972094060744 571.9589803375017,572.0942415378188 575.0491502812507,581.6048067007705 566.9589803375014,575.7269541778454 570.0491502812514,566.2163890148939 573.1393202250013,556.7058238519426 583.1393202250014,556.7058238519429 573.1393202250013,556.7058238519426 565.0491502812515,562.5836763748669 556.9589803375018,568.4615288977914 560.0491502812516,558.9509637348399 550.0491502812516,558.9509637348394 546.9589803375026,549.4403985718877 536.9589803375025,549.4403985718873 528.8688103937533,543.5625460489621 536.958980337503,537.6846935260378 545.0491502812523,543.5625460489629 536.9589803375025,549.4403985718873 540.0491502812515,558.950963734839 548.1393202250014,553.0731112119146 538.1393202250013,553.0731112119141 528.1393202250013,553.0731112119137 536.2294901687505,558.9509637348388 544.3196601125003,553.0731112119145 536.2294901687505,558.9509637348388 544.3196601125003,553.0731112119145 536.229490168751,547.1952586889893 526.229490168751,547.1952586889888 518.1393202250017,541.3174061660637 508.1393202250017,541.3174061660632 516.2294901687509,547.1952586889884 513.139320225001,556.7058238519398 505.0491502812512,562.5836763748641 513.1393202250005,568.4615288977893 503.1393202250004,568.4615288977889 495.0491502812506,574.3393814207133 491.95898033750154,564.8288162577614 488.8688103937525,555.3182510948097 478.8688103937525,555.3182510948093 470.7786404500027,561.1961036177337 473.8688103937517,570.7066687806854 463.86881039375163,570.7066687806849 471.95898033750143,564.8288162577605" stroke="black" stroke-linecap="round" stroke-width="1" /><polyline clip-path="url(#border_clip)" fill="none" points="471.95898033750143,564.8288162577605 463.86881039375163,570.7066687806849 453.8688103937516,570.7066687806845 463.86881039375163,570.7066687806849 460.7786404500017,580.2172339436363 468.8688103937515,574.339381420712 458.86881039375146,574.3393814207116 466.95898033750126,568.4615288977872 475.0491502812505,574.3393814207122 483.1393202249997,580.2172339436374 480.04915028124975,589.7277991065889 483.1393202249997,580.2172339436374 480.04915028125066,570.7066687806857 476.95898033750166,561.196103617734 485.0491502812509,567.0739561406591 488.13932022500086,557.5633909777077 498.1393202250009,557.5633909777082 501.2294901687509,548.0528258147567 509.3196601125007,542.1749732918324 512.4098300562497,551.6855384547841 504.3196601124999,557.5633909777085 501.2294901687509,548.0528258147567 491.22949016875083,548.0528258147563 494.31966011249983,557.563390977708 497.4098300562498,548.0528258147566 500.4999999999998,538.5422606518051 492.40983005625,544.4201131747295 495.499999999999,553.9306783376812 492.40983005625,544.4201131747295 495.499999999999,553.9306783376812 503.5901699437488,548.0528258147569 506.6803398874988,538.5422606518055 514.7705098312487,532.6644081288811 517.8606797749986,523.1538429659297 509.7705098312488,529.031695488854 501.68033988749954,523.1538429659288 498.59016994375054,513.6432778029771 490.50000000000074,519.5211303259015 493.5901699437507,510.01056516295 490.5000000000017,500.49999999999824 500.50000000000176,500.49999999999875 510.5000000000018,500.4999999999993 513.5901699437518,490.98943483704784" stroke="black" stroke-linecap="round" stroke-width="1" /><polyline clip-path="url(#border_clip)" fill="none" points="513.5901699437518,490.98943483704784 510.50000000000284,481.47886967409613 500.5000000000028,481.47886967409556 503.59016994375276,471.96830451114414 506.68033988750176,481.4788696740959 503.59016994375276,471.96830451114414 506.6803398875028,462.4577393481927 503.59016994375276,471.96830451114414 495.5000000000036,466.09045198821894 498.5901699437525,475.6010171511707 501.68033988750256,466.0904519882193 504.77050983125156,475.60101715117105 496.6803398875017,481.4788696740954 488.59016994375185,487.3567221970197 480.5000000000027,481.4788696740945 488.59016994375185,487.3567221970197 498.5901699437519,487.35672219702025 508.59016994375196,487.3567221970208 500.5000000000021,493.2345747199451 508.59016994375133,499.1124272428703 505.5000000000013,508.6229924058217 513.5901699437505,514.5008449287469 516.6803398874995,524.0114100916987 506.68033988749943,524.0114100916982 503.5901699437504,514.5008449287463 513.5901699437505,514.5008449287469 516.6803398875005,504.99027976579555 506.68033988750045,504.990279765795 514.7705098312497,510.86813228872023 522.8606797749989,516.7459848116455 519.7705098312499,507.23541964869366 509.77050983124985,507.2354196486931 519.7705098312499,507.23541964869366 509.77050983124985,507.2354196486931 512.8606797749987,516.7459848116449 520.950849718748,522.6238373345701 524.041019662497,532.1344024975218 532.1311896062462,538.0122550204471 529.0410196624972,528.5016898574953 537.1311896062471,522.623837334571 547.1311896062471,522.6238373345716 544.0410196624981,513.1132721716198 552.1311896062473,518.9911246945451" stroke="black" stroke-linecap="round" stroke-width="1" /><polyline clip-path="url(#border_clip)" fill="none" points="552.1311896062473,518.9911246945451 562.1311896062474,518.9911246945456 559.0410196624973,528.501689857497 555.9508497187473,538.0122550204485 564.0410196624965,543.8901075433737 574.0410196624965,543.8901075433743 577.1311896062466,534.3795423804229 585.2213595499958,540.2573949033481 575.2213595499957,540.2573949033475 585.2213595499958,540.2573949033481 593.311529493745,546.1352474262734 585.2213595499958,540.2573949033481 593.3115294937456,534.3795423804238 583.3115294937455,534.3795423804232 591.4016994374947,540.2573949033484 581.4016994374947,540.2573949033479 578.3115294937458,530.7468297403962 575.2213595499968,521.2362645774443 583.3115294937467,515.35841205452 575.2213595499968,521.2362645774443 572.1311896062467,530.7468297403957 569.0410196624966,540.2573949033472 565.9508497187477,530.7468297403954 557.8606797749978,536.6246822633196 549.7705098312487,530.7468297403943 541.6803398874988,536.6246822633186 531.6803398874987,536.624682263318 534.7705098312488,527.1141171003667 544.7705098312489,527.1141171003673 541.6803398874988,536.6246822633186 549.770509831248,542.5025347862439 552.8606797749981,532.9919696232926 544.7705098312482,538.8698221462167 536.6803398874982,544.747674669141 546.6803398874983,544.7476746691417 549.7705098312484,535.2371095061902 546.6803398874983,544.7476746691417 549.7705098312484,535.2371095061902 539.7705098312483,535.2371095061897 531.6803398874985,541.1149620291139 521.6803398874983,541.1149620291133 513.5901699437485,546.9928145520375 523.5901699437485,546.9928145520382" stroke="black" stroke-linecap="round" stroke-width="1" /><polyline clip-path="url(#border_clip)" fill="none" points="523.5901699437485,546.9928145520382 526.6803398874974,556.5033797149899 523.5901699437474,566.0139448779414 533.5901699437475,566.013944877942 525.4999999999975,571.8917974008663 522.4098300562474,581.4023625638177 514.3196601124982,575.5245100408924 506.22949016874907,569.6466575179671 498.13932022499915,575.5245100408914 495.04915028124907,585.0350752038428 503.13932022499824,590.9129277267681 495.04915028124833,596.7907802496924 498.1393202249984,587.2802150867409 495.04915028124833,596.7907802496924 486.9589803374984,602.6686327726165 495.04915028124833,596.7907802496924 498.1393202249972,606.3013454126442 501.2294901687473,596.7907802496927 493.1393202249974,602.668632772617 496.22949016874753,593.1580676096655 506.2294901687476,593.1580676096662 516.2294901687477,593.1580676096669 519.3196601124965,602.6686327726187 516.2294901687477,593.1580676096669 508.1393202249985,587.2802150867416 500.04915028124935,581.4023625638163 510.04915028124947,581.402362563817 506.9589803375006,571.8917974008651 515.0491502812505,566.0139448779408 511.9589803375016,556.503379714989 515.0491502812517,546.9928145520377 523.1393202250009,552.870667074963 520.0491502812508,562.3812322379143 511.9589803375016,556.503379714989 503.8688103937517,562.3812322379133 511.95898033750086,568.2590847608386 508.86881039375197,558.7485195978868 505.77864045000314,549.237954434935 502.688470506253,558.7485195978863 510.7786404500021,564.6263721208117 502.688470506253,558.7485195978863 510.7786404500021,564.6263721208117 513.8688103937523,555.1158069578603" stroke="black" stroke-linecap="round" stroke-width="1" /><polyline clip-path="url(#border_clip)" fill="none" points="513.8688103937523,555.1158069578603 510.7786404500034,545.6052417949085 513.8688103937535,536.0946766319571 510.7786404500047,526.5841114690053 507.68847050625453,536.0946766319566 497.6884705062545,536.094676631956 489.5983005625053,530.2168241090307 486.50813061875516,539.727389271982 483.4179606750063,530.2168241090302 475.3277907312572,524.3389715861049 483.4179606750071,518.4611190631806 491.5081306187571,512.5832665402564 488.41796067500826,503.07270137730455 480.3277907312591,497.19484885437925 472.2376207875092,503.0727013773035 469.1474508437603,493.56213621435165 477.23762078750946,499.43998873727696 469.1474508437603,493.56213621435165 466.05728090001145,484.0515710513998 469.1474508437603,493.56213621435165 459.1474508437602,493.5621362143509 467.23762078750934,499.4399887372763 464.1474508437605,489.92942357432446 472.2376207875096,495.8072760972498 469.1474508437595,505.3178412602012 466.0572809000093,514.8284064231526 456.05728090000923,514.8284064231519 466.0572809000093,514.8284064231526 474.14745084375926,508.9505539002284 482.23762078750923,503.07270137730416 479.14745084375903,512.5832665402556 489.14745084375915,512.5832665402563 492.2376207875079,522.0938317032081 502.23762078750804,522.0938317032088 510.32779073125715,527.9716842261342 502.2376207875072,533.8495367490584 494.14745084375807,527.9716842261331 502.23762078750804,522.0938317032088 499.1474508437592,512.583266540257 491.05728090000923,518.4611190631812 501.05728090000935,518.461119063182 511.0572809000094,518.4611190631827 502.9671109562603,512.5832665402573" stroke="black" stroke-linecap="round" stroke-width="1" /><polyline clip-path="url(#border_clip)" fill="none" points="502.9671109562603,512.5832665402573 494.8769410125103,518.4611190631815 502.9671109562603,512.5832665402573 494.8769410125103,518.4611190631815 502.96711095625943,524.3389715861068 512.9671109562595,524.3389715861076 521.0572809000087,530.216824109033 531.0572809000088,530.2168241090337 522.9671109562596,524.3389715861083 526.0572809000098,514.8284064231569 534.1474508437598,508.95055390023276 526.0572809000107,503.07270137730734 536.0572809000108,503.07270137730814 544.1474508437608,497.1948488543839 547.2376207875096,506.7054140173358 550.3277907312583,516.2159791802876 560.3277907312585,516.2159791802884 568.4179606750084,510.3381266573642 565.3277907312597,500.82756149441235 575.3277907312597,500.8275614944131 567.2376207875097,506.70541401733726 575.3277907312597,500.8275614944131 585.3277907312598,500.8275614944138 575.3277907312597,500.8275614944131 578.41796067501,491.3169963314617 570.3277907312599,497.1948488543859 580.32779073126,497.19484885438663 572.2376207875101,503.0727013773108 564.147450843761,497.1948488543854 556.0572809000118,491.31699633146 559.1474508437622,481.8064311685086 556.0572809000118,491.31699633146 559.1474508437607,500.82756149441184 562.2376207875094,510.3381266573637 554.1474508437603,504.4602741344383 551.05728090001,513.9708392973897 541.05728090001,513.9708392973889 537.9671109562597,523.4814044603403 529.8769410125097,529.3592569832645 526.786771068761,519.8486918203126 534.876941012511,513.9708392973885 537.9671109562597,523.4814044603403 547.9671109562598,523.4814044603411" stroke="black" stroke-linecap="round" stroke-width="1" /><polyline clip-path="url(#border_clip)" fill="none" points="547.9671109562598,523.4814044603411 544.8769410125111,513.9708392973893 541.7867710687608,523.4814044603406 538.6966011250106,532.991969623292 546.7867710687606,527.1141171003678 543.6966011250119,517.603551937416 546.7867710687606,527.1141171003678 543.6966011250119,517.603551937416 535.6064311812619,523.4814044603402 532.5162612375116,532.9919696232915 524.4260912937616,538.8698221462156 521.3359213500113,548.3803873091671 529.4260912937614,542.5025347862429 537.5162612375104,548.3803873091683 540.6064311812592,557.8909524721201 548.6966011250091,552.0130999491961 545.6064311812589,561.5236651121475 548.6966011250076,571.0342302750993 538.6966011250075,571.0342302750985 528.6966011250074,571.0342302750977 525.6064311812572,580.544795438049 528.6966011250059,590.055360601001 538.696601125006,590.0553606010018 535.6064311812557,599.5659257639531 532.516261237507,590.0553606010012 535.6064311812557,599.5659257639531 532.5162612375054,609.0764909269045 535.6064311812557,599.5659257639531 543.6966011250048,605.4437782868786 540.6064311812561,595.9332131239267 537.5162612375058,605.4437782868781 534.426091293757,595.9332131239262 542.5162612375071,590.0553606010021 550.6064311812572,584.177508078078 558.6966011250063,590.0553606010034 550.6064311812572,584.177508078078 540.6064311812571,584.1775080780772 530.606431181257,584.1775080780764 538.696601125007,578.2996555551522 530.6064311812579,572.4218030322268 533.6966011250082,562.9112378692754 525.6064311812592,557.0333853463499 522.5162612375104,547.522820183398" stroke="black" stroke-linecap="round" stroke-width="1" /><polyline clip-path="url(#border_clip)" fill="none" points="522.5162612375104,547.522820183398 532.5162612375105,547.5228201833988 535.6064311812593,557.0333853463508 525.6064311812592,557.0333853463499 522.5162612375088,566.5439505093013 532.516261237509,566.5439505093021 524.4260912937599,560.6660979863766 516.3359213500108,554.7882454634512 519.4260912937596,564.2988106264031 529.4260912937597,564.2988106264039 519.4260912937596,564.2988106264031 529.4260912937597,564.2988106264039 526.335921350011,554.7882454634521 518.2457514062619,548.9103929405265 515.1555814625132,539.3998277775746 507.0654115187641,533.5219752546492 510.15558146251277,543.0325404176011 502.06541151876274,548.9103929405252 492.06541151876263,548.9103929405244 495.15558146251135,558.4209581034762 487.0654115187623,552.5431055805508 477.0654115187622,552.5431055805499 480.1555814625125,543.0325404175985 483.2457514062628,533.5219752546471 475.15558146251374,527.6441227317217 465.1555814625136,527.6441227317208 462.0654115187633,537.1546878946722 453.97524157501425,531.2768353717468 463.97524157501437,531.2768353717476 453.97524157501425,531.2768353717468 445.88507163126525,525.3989828488212 453.97524157501425,531.2768353717468 445.8850716312642,537.1546878946708 455.88507163126434,537.1546878946717 447.7949016875153,531.2768353717462 457.7949016875154,531.2768353717471 460.88507163126405,540.7874005346989 463.9752415750127,550.2979656976509 455.8850716312627,556.1758182205749 463.9752415750127,550.2979656976509 467.0654115187631,540.7874005346995 470.1555814625134,531.2768353717481 473.24575140626206,540.7874005347" stroke="black" stroke-linecap="round" stroke-width="1" /><polyline clip-path="url(#border_clip)" fill="none" points="473.24575140626206,540.7874005347 481.33592135001214,534.909548011776 489.4260912937612,540.7874005347014 497.5162612375113,534.9095480117774 507.51626123751134,534.9095480117783 504.42609129376103,544.4201131747296 494.4260912937609,544.4201131747287 497.5162612375113,534.9095480117774 489.4260912937622,529.0316954888518 486.33592135001186,538.5422606518032 494.42609129376194,532.6644081288791 502.516261237512,526.7865556059551 492.5162612375119,526.7865556059542 489.4260912937616,536.2971207689055 492.5162612375119,526.7865556059542 489.4260912937616,536.2971207689055 499.4260912937617,536.2971207689064 507.5162612375118,530.4192682459824 517.5162612375119,530.4192682459833 525.606431181262,524.5414157230592 515.6064311812619,524.5414157230583 512.5162612375132,515.0308505601064 515.6064311812636,505.520285397155 505.6064311812635,505.5202853971541 513.6966011250136,499.64243287423005 516.7867710687639,490.13186771127874 524.8769410125129,496.0097202342042 532.967110956262,501.88757275712976 541.0572809000121,496.0097202342057 544.1474508437624,486.49915507125434 536.0572809000134,480.62130254832886 544.1474508437635,474.7434500254048 541.0572809000131,484.2540151883561 544.1474508437635,474.7434500254048 552.2376207875136,468.86559750248074 544.1474508437635,474.7434500254048 541.0572809000149,465.23288486245286 537.9671109562645,474.74345002540423 546.0572809000146,468.86559750248017 542.9671109562642,478.3761626654315 532.9671109562642,478.37616266543057 522.967110956264,478.37616266542966 519.8769410125153,468.8655975024777" stroke="black" stroke-linecap="round" stroke-width="1" /><polyline clip-path="url(#border_clip)" fill="none" points="519.8769410125153,468.8655975024777 522.967110956264,478.37616266542966 531.057280900013,484.2540151883552 539.147450843762,490.13186771128073 529.1474508437619,490.1318677112798 532.2376207875105,499.64243287423176 524.1474508437605,505.52028539715576 527.2376207875091,515.0308505601078 524.1474508437586,524.541415723059 516.0572809000096,518.6635632001335 519.14745084376,509.15299803718216 527.2376207875091,515.0308505601078 535.3277907312591,509.1529980371837 527.2376207875102,503.2751455142581 530.3277907312588,512.7857106772101 533.4179606750074,522.296275840162 536.5081306187577,512.7857106772107 528.4179606750088,506.90785815428507 536.5081306187577,512.7857106772107 528.4179606750088,506.90785815428507 525.3277907312583,516.4184233172364 528.417960675007,525.9289884801883 525.3277907312565,535.4395536431397 528.4179606750051,544.9501188060916 531.5081306187556,535.4395536431402 541.5081306187557,535.4395536431413 549.5983005625046,541.3174061660668 552.688470506255,531.8068410031154 555.7786404500036,541.3174061660674 563.8688103937527,547.195258688993 555.7786404500025,553.073111211917 547.6884705062524,558.950963734841 550.778640450001,568.461528897793 558.86881039375,574.3393814207185 566.9589803375002,568.4615288977946 570.0491502812487,577.9720940607465 561.9589803374997,572.0942415378208 570.0491502812487,577.9720940607465 573.1393202249973,587.4826592236984 570.0491502812487,577.9720940607465 580.0491502812488,577.9720940607474 571.9589803374998,572.0942415378219 575.0491502812484,581.6048067007738" stroke="black" stroke-linecap="round" stroke-width="1" /><polyline clip-path="url(#border_clip)" fill="none" points="575.0491502812484,581.6048067007738 566.9589803374994,575.7269541778483 570.0491502812498,566.2163890148969 573.1393202250003,556.7058238519455 583.1393202250003,556.7058238519465 573.1393202250003,556.7058238519455 565.0491502812501,562.5836763748696 556.9589803375,568.4615288977935 560.0491502812505,558.9509637348422 550.0491502812504,558.9509637348413 546.9589803375018,549.4403985718893 536.9589803375017,549.4403985718883 528.8688103937527,543.5625460489626 536.9589803375028,537.6846935260387 545.0491502812519,543.5625460489642 536.9589803375017,549.4403985718883 540.0491502812503,558.9509637348402 548.1393202250003,553.0731112119163 538.1393202250002,553.0731112119153 528.1393202250001,553.0731112119142 536.2294901687492,558.9509637348399 544.3196601124993,553.0731112119158 536.2294901687492,558.9509637348399 544.3196601124993,553.0731112119158 536.2294901687503,547.1952586889903 526.2294901687502,547.1952586889893 518.1393202250013,541.3174061660636 508.13932022500114,541.3174061660626 516.2294901687501,547.1952586889882 513.1393202249997,556.7058238519396 505.04915028124947,562.5836763748636 513.1393202249984,568.4615288977892 503.13932022499836,568.4615288977882 495.04915028124816,574.3393814207121 491.9589803374996,564.8288162577602 488.86881039375106,555.3182510948083 478.868810393751,555.3182510948072 470.7786404500008,561.1961036177312 473.86881039374936,570.7066687806831 463.86881039374924,570.7066687806821 471.9589803374994,564.8288162577581 463.86881039374924,570.7066687806821 453.86881039374913,570.7066687806811" stroke="black" stroke-linecap="round" stroke-width="1" /><polyline clip-path="url(#border_clip)" fill="none" points="453.86881039374913,570.7066687806811 463.86881039374924,570.7066687806821 460.77864044999876,580.2172339436335 468.8688103937489,574.3393814207095 458.8688103937488,574.3393814207085 466.958980337499,568.4615288977845 475.04915028124793,574.3393814207101 483.13932022499694,580.2172339436357 480.0491502812464,589.7277991065871 483.13932022499694,580.2172339436357 480.0491502812484,570.7066687806838 476.95898033749984,561.1961036177319 485.04915028124884,567.0739561406575 488.1393202249993,557.5633909777061 498.13932022499944,557.5633909777072 501.2294901687499,548.0528258147558 509.3196601125001,542.1749732918319 512.4098300562487,551.6855384547839 504.31966011249847,557.5633909777079 501.2294901687499,548.0528258147558 491.2294901687498,548.0528258147548 494.31966011249835,557.5633909777068 497.40983005624884,548.0528258147555 500.4999999999994,538.5422606518041 492.4098300562492,544.420113174728 495.49999999999767,553.9306783376801 492.4098300562492,544.420113174728 495.49999999999767,553.9306783376801 503.59016994374787,548.0528258147561 506.6803398874984,538.5422606518048 514.7705098312485,532.6644081288808 517.8606797749991,523.1538429659295 509.7705098312489,529.0316954888535 501.68033988749994,523.1538429659278 498.59016994375145,513.6432778029758 490.50000000000125,519.5211303258998 493.5901699437518,510.01056516294847 490.5000000000033,500.4999999999965 500.5000000000034,500.49999999999756" stroke="black" stroke-linecap="round" stroke-width="1" /></svg>