<?xml version="1.0" encoding="UTF-8"?>
<svg width="1e4px" height="1e4px" baseProfile="full" version="1.1" viewBox="4955.9 4962.5 147.43 146.62" xmlns="http://www.w3.org/2000/svg">
<defs>
<clipPath id="a">
<rect width="1e4" height="1e4"/>
</clipPath>
</defs>
<polyline points="5000.5 5000.5 5010.5 5000.5 5020.5 5000.5 5023.6 4991 5020.5 4981.5 5010.5 4981.5 5013.6 4972 5016.7 4981.5 5013.6 4972 5016.7 4962.5 5013.6 4972 5005.5 4966.1 5008.6 4975.6 5011.7 4966.1 5014.8 4975.6 5006.7 4981.5 4998.6 4987.4 4990.5 4981.5 4998.6 4987.4 5008.6 4987.4 5018.6 4987.4 5010.5 4993.2 5018.6 4999.1 5015.5 5008.6 5023.6 5014.5 5026.7 5024 5016.7 5024 5013.6 5014.5 5023.6 5014.5 5026.7 5005 5016.7 5005 5024.8 5010.9 5032.9 5016.7 5029.8 5007.2 5019.8 5007.2 5029.8 5007.2 5019.8 5007.2 5022.9 5016.7 5031 5022.6 5034 5032.1 5042.1 5038 5039 5028.5 5047.1 5022.6" clip-path="url(#a)" fill="none" stroke="#000" stroke-linecap="round"/>
<polyline points="5047.1 5022.6 5057.1 5022.6 5054 5013.1 5062.1 5019 5072.1 5019 5069 5028.5 5066 5038 5074 5043.9 5084 5043.9 5087.1 5034.4 5095.2 5040.3 5085.2 5040.3 5095.2 5040.3 5103.3 5046.1 5095.2 5040.3 5103.3 5034.4 5093.3 5034.4 5101.4 5040.3 5091.4 5040.3 5088.3 5030.7 5085.2 5021.2 5093.3 5015.4 5085.2 5021.2 5082.1 5030.7 5079 5040.3 5076 5030.7 5067.9 5036.6 5059.8 5030.7 5051.7 5036.6 5041.7 5036.6 5044.8 5027.1 5054.8 5027.1 5051.7 5036.6 5059.8 5042.5 5062.9 5033 5054.8 5038.9 5046.7 5044.7 5056.7 5044.7 5059.8 5035.2 5056.7 5044.7 5059.8 5035.2 5049.8 5035.2 5041.7 5041.1" clip-path="url(#a)" fill="none" stroke="#000" stroke-linecap="round"/>
<polyline points="5041.7 5041.1 5031.7 5041.1 5023.6 5047 5033.6 5047 5036.7 5056.5 5033.6 5066 5043.6 5066 5035.5 5071.9 5032.4 5081.4 5024.3 5075.5 5016.2 5069.6 5008.1 5075.5 5005 5085 5013.1 5090.9 5005 5096.8 5008.1 5087.3 5005 5096.8 4997 5102.7 5005 5096.8 5008.1 5106.3 5011.2 5096.8 5003.1 5102.7 5006.2 5093.2 5016.2 5093.2 5026.2 5093.2 5029.3 5102.7 5026.2 5093.2 5018.1 5087.3 5010 5081.4 5020 5081.4 5017 5071.9 5025 5066 5022 5056.5 5025 5047 5033.1 5052.9 5030 5062.4 5022 5056.5 5013.9 5062.4 5022 5068.3 5018.9 5058.7 5015.8 5049.2 5012.7 5058.7 5020.8 5064.6" clip-path="url(#a)" fill="none" stroke="#000" stroke-linecap="round"/>
<polyline points="5020.8 5064.6 5012.7 5058.7 5020.8 5064.6 5023.9 5055.1 5020.8 5045.6 5023.9 5036.1 5020.8 5026.6 5017.7 5036.1 5007.7 5036.1 4999.6 5030.2 4996.5 5039.7 4993.4 5030.2 4985.3 5024.3 4993.4 5018.5 5001.5 5012.6 4998.4 5003.1 4990.3 4997.2 4982.2 5003.1 4979.1 4993.6 4987.2 4999.4 4979.1 4993.6 4976.1 4984.1 4979.1 4993.6 4969.1 4993.6 4977.2 4999.4 4974.1 4989.9 4982.2 4995.8 4979.1 5005.3 4976.1 5014.8 4966.1 5014.8 4976.1 5014.8 4984.1 5009 4992.2 5003.1 4989.1 5012.6 4999.1 5012.6 5002.2 5022.1 5012.2 5022.1 5020.3 5028 5012.2 5033.8 5004.1 5028 5012.2 5022.1 5009.1 5012.6 5001.1 5018.5" clip-path="url(#a)" fill="none" stroke="#000" stroke-linecap="round"/>
<polyline points="5001.1 5018.5 5011.1 5018.5 5021.1 5018.5 5013 5012.6 5004.9 5018.5 5013 5012.6 5004.9 5018.5 5013 5024.3 5023 5024.3 5031.1 5030.2 5041.1 5030.2 5033 5024.3 5036.1 5014.8 5044.1 5009 5036.1 5003.1 5046.1 5003.1 5054.1 4997.2 5057.2 5006.7 5060.3 5016.2 5070.3 5016.2 5078.4 5010.3 5075.3 5000.8 5085.3 5000.8 5077.2 5006.7 5085.3 5000.8 5095.3 5000.8 5085.3 5000.8 5088.4 4991.3 5080.3 4997.2 5090.3 4997.2 5082.2 5003.1 5074.1 4997.2 5066.1 4991.3 5069.1 4981.8 5066.1 4991.3 5069.1 5000.8 5072.2 5010.3 5064.1 5004.5 5061.1 5014 5051.1 5014 5048 5023.5 5039.9 5029.4 5036.8 5019.8" clip-path="url(#a)" fill="none" stroke="#000" stroke-linecap="round"/>
<polyline points="5036.8 5019.8 5044.9 5014 5048 5023.5 5058 5023.5 5054.9 5014 5051.8 5023.5 5048.7 5033 5056.8 5027.1 5053.7 5017.6 5056.8 5027.1 5053.7 5017.6 5045.6 5023.5 5042.5 5033 5034.4 5038.9 5031.3 5048.4 5039.4 5042.5 5047.5 5048.4 5050.6 5057.9 5058.7 5052 5055.6 5061.5 5058.7 5071 5048.7 5071 5038.7 5071 5035.6 5080.5 5038.7 5090.1 5048.7 5090.1 5045.6 5099.6 5042.5 5090.1 5045.6 5099.6 5042.5 5109.1 5045.6 5099.6 5053.7 5105.4 5050.6 5095.9 5047.5 5105.4 5044.4 5095.9 5052.5 5090.1 5060.6 5084.2 5068.7 5090.1 5060.6 5084.2 5050.6 5084.2 5040.6 5084.2 5048.7 5078.3 5040.6 5072.4" clip-path="url(#a)" fill="none" stroke="#000" stroke-linecap="round"/>
<polyline points="5040.6 5072.4 5043.7 5062.9 5035.6 5057 5032.5 5047.5 5042.5 5047.5 5045.6 5057 5035.6 5057 5032.5 5066.5 5042.5 5066.5 5034.4 5060.7 5026.3 5054.8 5029.4 5064.3 5039.4 5064.3 5029.4 5064.3 5039.4 5064.3 5036.3 5054.8 5028.2 5048.9 5025.2 5039.4 5017.1 5033.5 5020.2 5043 5012.1 5048.9 5002.1 5048.9 5005.2 5058.4 4997.1 5052.5 4987.1 5052.5 4990.2 5043 4993.2 5033.5 4985.2 5027.6 4975.2 5027.6 4972.1 5037.2 4964 5031.3 4974 5031.3 4964 5031.3 4955.9 5025.4 4964 5031.3 4955.9 5037.2 4965.9 5037.2 4957.8 5031.3 4967.8 5031.3 4970.9 5040.8 4974 5050.3 4965.9 5056.2 4974 5050.3" clip-path="url(#a)" fill="none" stroke="#000" stroke-linecap="round"/>
<polyline points="4974 5050.3 4977.1 5040.8 4980.2 5031.3 4983.2 5040.8 4991.3 5034.9 4999.4 5040.8 5007.5 5034.9 5017.5 5034.9 5014.4 5044.4 5004.4 5044.4 5007.5 5034.9 4999.4 5029 4996.3 5038.5 5004.4 5032.7 5012.5 5026.8 5002.5 5026.8 4999.4 5036.3 5002.5 5026.8 4999.4 5036.3 5009.4 5036.3 5017.5 5030.4 5027.5 5030.4 5035.6 5024.5 5025.6 5024.5 5022.5 5015 5025.6 5005.5 5015.6 5005.5 5023.7 4999.6 5026.8 4990.1 5034.9 4996 5043 5001.9 5051.1 4996 5054.1 4986.5 5046.1 4980.6 5054.1 4974.7 5051.1 4984.3 5054.1 4974.7 5062.2 4968.9 5054.1 4974.7 5051.1 4965.2 5048 4974.7 5056.1 4968.9 5053 4978.4" clip-path="url(#a)" fill="none" stroke="#000" stroke-linecap="round"/>
<polyline points="5053 4978.4 5043 4978.4 5033 4978.4 5029.9 4968.9 5033 4978.4 5041.1 4984.3 5049.1 4990.1 5039.1 4990.1 5042.2 4999.6 5034.1 5005.5 5037.2 5015 5034.1 5024.5 5026.1 5018.7 5029.1 5009.2 5037.2 5015 5045.3 5009.2 5037.2 5003.3 5040.3 5012.8 5043.4 5022.3 5046.5 5012.8 5038.4 5006.9 5046.5 5012.8 5038.4 5006.9 5035.3 5016.4 5038.4 5025.9 5035.3 5035.4 5038.4 5045 5041.5 5035.4 5051.5 5035.4 5059.6 5041.3 5062.7 5031.8 5065.8 5041.3 5073.9 5047.2 5065.8 5053.1 5057.7 5059 5060.8 5068.5 5068.9 5074.3 5077 5068.5 5080 5078 5072 5072.1 5080 5078 5083.1 5087.5 5080 5078" clip-path="url(#a)" fill="none" stroke="#000" stroke-linecap="round"/>
<polyline points="5080 5078 5090 5078 5082 5072.1 5085 5081.6 5077 5075.7 5080 5066.2 5083.1 5056.7 5093.1 5056.7 5083.1 5056.7 5075 5062.6 5067 5068.5 5070 5059 5060 5059 5057 5049.4 5047 5049.4 5038.9 5043.6 5047 5037.7 5055 5043.6 5047 5049.4 5050 5059 5058.1 5053.1 5048.1 5053.1 5038.1 5053.1 5046.2 5059 5054.3 5053.1 5046.2 5059 5054.3 5053.1 5046.2 5047.2 5036.2 5047.2 5028.1 5041.3 5018.1 5041.3 5026.2 5047.2 5023.1 5056.7 5015 5062.6 5023.1 5068.5 5013.1 5068.5 5005 5074.3 5002 5064.8 4998.9 5055.3 4988.9 5055.3 4980.8 5061.2 4983.9 5070.7 4973.9 5070.7" clip-path="url(#a)" fill="none" stroke="#000" stroke-linecap="round"/>
<polyline points="4973.9 5070.7 4982 5064.8 4973.9 5070.7 4963.9 5070.7 4973.9 5070.7 4970.8 5080.2 4978.9 5074.3 4968.9 5074.3 4977 5068.5 4985 5074.3 4993.1 5080.2 4990 5089.7 4993.1 5080.2 4990 5070.7 4987 5061.2 4995 5067.1 4998.1 5057.6 5008.1 5057.6 5011.2 5048.1 5019.3 5042.2 5022.4 5051.7 5014.3 5057.6 5011.2 5048.1 5001.2 5048.1 5004.3 5057.6 5007.4 5048.1 5010.5 5038.5 5002.4 5044.4 5005.5 5053.9 5002.4 5044.4 5005.5 5053.9 5013.6 5048.1 5016.7 5038.5 5024.8 5032.7 5027.9 5023.2 5019.8 5029 5011.7 5023.2 5008.6 5013.6 5000.5 5019.5 5003.6 5010 5000.5 5000.5 5010.5 5000.5 5020.5 5000.5" clip-path="url(#a)" fill="none" stroke="#000" stroke-linecap="round"/>
<polyline points="5020.5 5000.5 5023.6 4991 5020.5 4981.5 5010.5 4981.5 5013.6 4972 5016.7 4981.5 5013.6 4972 5016.7 4962.5 5013.6 4972 5005.5 4966.1 5008.6 4975.6 5011.7 4966.1 5014.8 4975.6 5006.7 4981.5 4998.6 4987.4 4990.5 4981.5 4998.6 4987.4 5008.6 4987.4 5018.6 4987.4 5010.5 4993.2 5018.6 4999.1 5015.5 5008.6 5023.6 5014.5 5026.7 5024 5016.7 5024 5013.6 5014.5 5023.6 5014.5 5026.7 5005 5016.7 5005 5024.8 5010.9 5032.9 5016.7 5029.8 5007.2 5019.8 5007.2 5029.8 5007.2 5019.8 5007.2 5022.9 5016.7 5031 5022.6 5034 5032.1 5042.1 5038 5039 5028.5 5047.1 5022.6 5057.1 5022.6 5054 5013.1" clip-path="url(#a)" fill="none" stroke="#000" stroke-linecap="round"/>
<polyline points="5054 5013.1 5062.1 5019 5072.1 5019 5069 5028.5 5066 5038 5074 5043.9 5084 5043.9 5087.1 5034.4 5095.2 5040.3 5085.2 5040.3 5095.2 5040.3 5103.3 5046.1 5095.2 5040.3 5103.3 5034.4 5093.3 5034.4 5101.4 5040.3 5091.4 5040.3 5088.3 5030.7 5085.2 5021.2 5093.3 5015.4 5085.2 5021.2 5082.1 5030.7 5079 5040.3 5076 5030.7 5067.9 5036.6 5059.8 5030.7 5051.7 5036.6 5041.7 5036.6 5044.8 5027.1 5054.8 5027.1 5051.7 5036.6 5059.8 5042.5 5062.9 5033 5054.8 5038.9 5046.7 5044.7 5056.7 5044.7 5059.8 5035.2 5056.7 5044.7 5059.8 5035.2 5049.8 5035.2 5041.7 5041.1 5031.7 5041.1 5023.6 5047" clip-path="url(#a)" fill="none" stroke="#000" stroke-linecap="round"/>
<polyline points="5023.6 5047 5033.6 5047 5036.7 5056.5 5033.6 5066 5043.6 5066 5035.5 5071.9 5032.4 5081.4 5024.3 5075.5 5016.2 5069.6 5008.1 5075.5 5005 5085 5013.1 5090.9 5005 5096.8 5008.1 5087.3 5005 5096.8 4997 5102.7 5005 5096.8 5008.1 5106.3 5011.2 5096.8 5003.1 5102.7 5006.2 5093.2 5016.2 5093.2 5026.2 5093.2 5029.3 5102.7 5026.2 5093.2 5018.1 5087.3 5010 5081.4 5020 5081.4 5017 5071.9 5025 5066 5022 5056.5 5025 5047 5033.1 5052.9 5030 5062.4 5022 5056.5 5013.9 5062.4 5022 5068.3 5018.9 5058.7 5015.8 5049.2 5012.7 5058.7 5020.8 5064.6 5012.7 5058.7 5020.8 5064.6" clip-path="url(#a)" fill="none" stroke="#000" stroke-linecap="round"/>
<polyline points="5020.8 5064.6 5023.9 5055.1 5020.8 5045.6 5023.9 5036.1 5020.8 5026.6 5017.7 5036.1 5007.7 5036.1 4999.6 5030.2 4996.5 5039.7 4993.4 5030.2 4985.3 5024.3 4993.4 5018.5 5001.5 5012.6 4998.4 5003.1 4990.3 4997.2 4982.2 5003.1 4979.1 4993.6 4987.2 4999.4 4979.1 4993.6 4976.1 4984.1 4979.1 4993.6 4969.1 4993.6 4977.2 4999.4 4974.1 4989.9 4982.2 4995.8 4979.1 5005.3 4976.1 5014.8 4966.1 5014.8 4976.1 5014.8 4984.1 5009 4992.2 5003.1 4989.1 5012.6 4999.1 5012.6 5002.2 5022.1 5012.2 5022.1 5020.3 5028 5012.2 5033.8 5004.1 5028 5012.2 5022.1 5009.1 5012.6 5001.1 5018.5 5011.1 5018.5 5021.1 5018.5" clip-path="url(#a)" fill="none" stroke="#000" stroke-linecap="round"/>
<polyline points="5021.1 5018.5 5013 5012.6 5004.9 5018.5 5013 5012.6 5004.9 5018.5 5013 5024.3 5023 5024.3 5031.1 5030.2 5041.1 5030.2 5033 5024.3 5036.1 5014.8 5044.1 5009 5036.1 5003.1 5046.1 5003.1 5054.1 4997.2 5057.2 5006.7 5060.3 5016.2 5070.3 5016.2 5078.4 5010.3 5075.3 5000.8 5085.3 5000.8 5077.2 5006.7 5085.3 5000.8 5095.3 5000.8 5085.3 5000.8 5088.4 4991.3 5080.3 4997.2 5090.3 4997.2 5082.2 5003.1 5074.1 4997.2 5066.1 4991.3 5069.1 4981.8 5066.1 4991.3 5069.1 5000.8 5072.2 5010.3 5064.1 5004.5 5061.1 5014 5051.1 5014 5048 5023.5 5039.9 5029.4 5036.8 5019.8 5044.9 5014 5048 5023.5" clip-path="url(#a)" fill="none" stroke="#000" stroke-linecap="round"/>
<polyline points="5048 5023.5 5058 5023.5 5054.9 5014 5051.8 5023.5 5048.7 5033 5056.8 5027.1 5053.7 5017.6 5056.8 5027.1 5053.7 5017.6 5045.6 5023.5 5042.5 5033 5034.4 5038.9 5031.3 5048.4 5039.4 5042.5 5047.5 5048.4 5050.6 5057.9 5058.7 5052 5055.6 5061.5 5058.7 5071 5048.7 5071 5038.7 5071 5035.6 5080.5 5038.7 5090.1 5048.7 5090.1 5045.6 5099.6 5042.5 5090.1 5045.6 5099.6 5042.5 5109.1 5045.6 5099.6 5053.7 5105.4 5050.6 5095.9 5047.5 5105.4 5044.4 5095.9 5052.5 5090.1 5060.6 5084.2 5068.7 5090.1 5060.6 5084.2 5050.6 5084.2 5040.6 5084.2 5048.7 5078.3 5040.6 5072.4 5043.7 5062.9 5035.6 5057" clip-path="url(#a)" fill="none" stroke="#000" stroke-linecap="round"/>
<polyline points="5035.6 5057 5032.5 5047.5 5042.5 5047.5 5045.6 5057 5035.6 5057 5032.5 5066.5 5042.5 5066.5 5034.4 5060.7 5026.3 5054.8 5029.4 5064.3 5039.4 5064.3 5029.4 5064.3 5039.4 5064.3 5036.3 5054.8 5028.2 5048.9 5025.2 5039.4 5017.1 5033.5 5020.2 5043 5012.1 5048.9 5002.1 5048.9 5005.2 5058.4 4997.1 5052.5 4987.1 5052.5 4990.2 5043 4993.2 5033.5 4985.2 5027.6 4975.2 5027.6 4972.1 5037.2 4964 5031.3 4974 5031.3 4964 5031.3 4955.9 5025.4 4964 5031.3 4955.9 5037.2 4965.9 5037.2 4957.8 5031.3 4967.8 5031.3 4970.9 5040.8 4974 5050.3 4965.9 5056.2 4974 5050.3 4977.1 5040.8 4980.2 5031.3" clip-path="url(#a)" fill="none" stroke="#000" stroke-linecap="round"/>
<polyline points="4980.2 5031.3 4983.2 5040.8 4991.3 5034.9 4999.4 5040.8 5007.5 5034.9 5017.5 5034.9 5014.4 5044.4 5004.4 5044.4 5007.5 5034.9 4999.4 5029 4996.3 5038.5 5004.4 5032.7 5012.5 5026.8 5002.5 5026.8 4999.4 5036.3 5002.5 5026.8 4999.4 5036.3 5009.4 5036.3 5017.5 5030.4 5027.5 5030.4 5035.6 5024.5 5025.6 5024.5 5022.5 5015 5025.6 5005.5 5015.6 5005.5 5023.7 4999.6 5026.8 4990.1 5034.9 4996 5043 5001.9 5051.1 4996 5054.1 4986.5 5046.1 4980.6 5054.1 4974.7 5051.1 4984.3 5054.1 4974.7 5062.2 4968.9 5054.1 4974.7 5051.1 4965.2 5048 4974.7 5056.1 4968.9 5053 4978.4 5043 4978.4 5033 4978.4" clip-path="url(#a)" fill="none" stroke="#000" stroke-linecap="round"/>
<polyline points="5033 4978.4 5029.9 4968.9 5033 4978.4 5041.1 4984.3 5049.1 4990.1 5039.1 4990.1 5042.2 4999.6 5034.1 5005.5 5037.2 5015 5034.1 5024.5 5026.1 5018.7 5029.1 5009.2 5037.2 5015 5045.3 5009.2 5037.2 5003.3 5040.3 5012.8 5043.4 5022.3 5046.5 5012.8 5038.4 5006.9 5046.5 5012.8 5038.4 5006.9 5035.3 5016.4 5038.4 5025.9 5035.3 5035.4 5038.4 5045 5041.5 5035.4 5051.5 5035.4 5059.6 5041.3 5062.7 5031.8 5065.8 5041.3 5073.9 5047.2 5065.8 5053.1 5057.7 5059 5060.8 5068.5 5068.9 5074.3 5077 5068.5 5080 5078 5072 5072.1 5080 5078 5083.1 5087.5 5080 5078 5090 5078 5082 5072.1" clip-path="url(#a)" fill="none" stroke="#000" stroke-linecap="round"/>
<polyline points="5082 5072.1 5085 5081.6 5077 5075.7 5080 5066.2 5083.1 5056.7 5093.1 5056.7 5083.1 5056.7 5075 5062.6 5067 5068.5 5070 5059 5060 5059 5057 5049.4 5047 5049.4 5038.9 5043.6 5047 5037.7 5055 5043.6 5047 5049.4 5050 5059 5058.1 5053.1 5048.1 5053.1 5038.1 5053.1 5046.2 5059 5054.3 5053.1 5046.2 5059 5054.3 5053.1 5046.2 5047.2 5036.2 5047.2 5028.1 5041.3 5018.1 5041.3 5026.2 5047.2 5023.1 5056.7 5015 5062.6 5023.1 5068.5 5013.1 5068.5 5005 5074.3 5002 5064.8 4998.9 5055.3 4988.9 5055.3 4980.8 5061.2 4983.9 5070.7 4973.9 5070.7 4982 5064.8 4973.9 5070.7" clip-path="url(#a)" fill="none" stroke="#000" stroke-linecap="round"/>
<polyline points="4973.9 5070.7 4963.9 5070.7 4973.9 5070.7 4970.8 5080.2 4978.9 5074.3 4968.9 5074.3 4977 5068.5 4985 5074.3 4993.1 5080.2 4990 5089.7 4993.1 5080.2 4990 5070.7 4987 5061.2 4995 5067.1 4998.1 5057.6 5008.1 5057.6 5011.2 5048.1 5019.3 5042.2 5022.4 5051.7 5014.3 5057.6 5011.2 5048.1 5001.2 5048.1 5004.3 5057.6 5007.4 5048.1 5010.5 5038.5 5002.4 5044.4 5005.5 5053.9 5002.4 5044.4 5005.5 5053.9 5013.6 5048.1 5016.7 5038.5 5024.8 5032.7 5027.9 5023.2 5019.8 5029 5011.7 5023.2 5008.6 5013.6 5000.5 5019.5 5003.6 5010 5000.5 5000.5" clip-path="url(#a)" fill="none" stroke="#000" stroke-linecap="round"/>
</svg>
