<?xml version="1.0" encoding="utf-8" ?>
<svg baseProfile="full" height="10000px" version="1.1" width="10000px" xmlns="http://www.w3.org/2000/svg" xmlns:ev="http://www.w3.org/2001/xml-events" xmlns:xlink="http://www.w3.org/1999/xlink"><defs><clipPath id="border_clip"><rect height="10000" width="10000" x="0" y="0" /></clipPath></defs><polyline clip-path="url(#border_clip)" fill="none" points="5000.5,5000.5 5010.5,5000.5 5020.5,5000.5 5023.590169943749,4990.989434837048 5020.5,4981.478869674097 5010.5,4981.478869674097 5013.590169943749,4971.968304511145 5016.680339887499,4981.478869674097 5013.590169943749,4971.968304511145 5016.680339887499,4962.457739348194 5013.590169943749,4971.968304511145 5005.5,4966.090451988221 5008.590169943749,4975.6010171511725 5011.680339887499,4966.090451988221 5014.770509831248,4975.6010171511725 5006.680339887499,4981.478869674097 4998.590169943749,4987.356722197022 4990.5,4981.478869674097 4998.590169943749,4987.356722197022 5008.590169943749,4987.356722197022 5018.590169943749,4987.356722197022 5010.5,4993.234574719946 5018.590169943749,4999.1124272428715 5015.5,5008.6229924058225 5023.590169943749,5014.500844928747 5026.680339887499,5024.011410091699 5016.680339887499,5024.011410091699 5013.590169943749,5014.500844928747 5023.590169943749,5014.500844928747 5026.680339887499,5004.990279765796 5016.680339887499,5004.990279765796 5024.770509831248,5010.8681322887205 5032.860679774998,5016.745984811645 5029.770509831248,5007.235419648694 5019.770509831248,5007.235419648694 5029.770509831248,5007.235419648694 5019.770509831248,5007.235419648694 5022.860679774998,5016.745984811645 5030.950849718747,5022.62383733457 5034.041019662497,5032.1344024975215 5042.131189606246,5038.012255020447 5039.041019662497,5028.501689857495 5047.131189606246,5022.62383733457" stroke="black" stroke-linecap="round" stroke-width="1" /><polyline clip-path="url(#border_clip)" fill="none" points="5047.131189606246,5022.62383733457 5057.131189606246,5022.62383733457 5054.041019662497,5013.1132721716185 5062.131189606246,5018.991124694543 5072.131189606246,5018.991124694544 5069.041019662497,5028.501689857495 5065.950849718747,5038.012255020447 5074.041019662496,5043.890107543371 5084.041019662497,5043.890107543371 5087.131189606246,5034.3795423804195 5095.221359549995,5040.257394903345 5085.221359549995,5040.257394903345 5095.221359549995,5040.257394903345 5103.311529493745,5046.135247426269 5095.221359549995,5040.257394903345 5103.311529493745,5034.37954238042 5093.311529493745,5034.37954238042 5101.401699437494,5040.257394903345 5091.401699437494,5040.257394903345 5088.311529493745,5030.746829740393 5085.221359549996,5021.236264577442 5093.311529493745,5015.3584120545165 5085.221359549996,5021.236264577442 5082.131189606246,5030.746829740393 5079.041019662497,5040.257394903345 5075.950849718747,5030.746829740393 5067.860679774998,5036.6246822633175 5059.770509831248,5030.746829740393 5051.680339887499,5036.6246822633175 5041.680339887499,5036.6246822633175 5044.770509831248,5027.114117100366 5054.770509831248,5027.1141171003665 5051.680339887499,5036.6246822633175 5059.770509831248,5042.502534786242 5062.860679774998,5032.991969623291 5054.770509831248,5038.8698221462155 5046.680339887499,5044.74767466914 5056.680339887499,5044.74767466914 5059.770509831248,5035.237109506189 5056.680339887499,5044.74767466914 5059.770509831248,5035.237109506189 5049.770509831248,5035.237109506189 5041.680339887499,5041.1149620291135" stroke="black" stroke-linecap="round" stroke-width="1" /><polyline clip-path="url(#border_clip)" fill="none" points="5041.680339887499,5041.1149620291135 5031.680339887499,5041.1149620291135 5023.590169943749,5046.992814552038 5033.590169943749,5046.992814552038 5036.680339887498,5056.50337971499 5033.590169943749,5066.013944877941 5043.590169943749,5066.013944877941 5035.499999999999,5071.8917974008655 5032.40983005625,5081.402362563817 5024.3196601125,5075.524510040893 5016.229490168751,5069.6466575179675 5008.139320225001,5075.524510040892 5005.049150281252,5085.035075203844 5013.139320225001,5090.912927726768 5005.049150281252,5096.790780249693 5008.139320225001,5087.280215086742 5005.049150281252,5096.790780249693 4996.958980337502,5102.668632772618 5005.049150281252,5096.790780249693 5008.139320225001,5106.301345412645 5011.229490168751,5096.790780249694 5003.139320225001,5102.668632772618 5006.229490168751,5093.158067609666 5016.229490168751,5093.158067609666 5026.229490168751,5093.158067609666 5029.3196601125,5102.668632772618 5026.229490168751,5093.158067609666 5018.139320225001,5087.280215086742 5010.049150281252,5081.402362563817 5020.049150281252,5081.402362563817 5016.958980337503,5071.8917974008655 5025.049150281252,5066.013944877941 5021.958980337503,5056.503379714989 5025.049150281253,5046.992814552038 5033.139320225002,5052.8706670749625 5030.049150281252,5062.381232237914 5021.958980337503,5056.503379714989 5013.868810393753,5062.381232237914 5021.958980337503,5068.259084760839 5018.868810393753,5058.748519597887 5015.778640450004,5049.237954434936 5012.688470506255,5058.748519597887 5020.778640450004,5064.626372120812" stroke="black" stroke-linecap="round" stroke-width="1" /><polyline clip-path="url(#border_clip)" fill="none" points="5020.778640450004,5064.626372120812 5012.688470506255,5058.748519597887 5020.778640450004,5064.626372120812 5023.868810393753,5055.1158069578605 5020.778640450004,5045.605241794909 5023.868810393754,5036.094676631958 5020.778640450004,5026.584111469006 5017.688470506255,5036.094676631958 5007.688470506255,5036.094676631958 4999.598300562505,5030.216824109032 4996.508130618756,5039.727389271984 4993.417960675007,5030.216824109032 4985.327790731257,5024.338971586108 4993.417960675007,5018.461119063183 5001.508130618756,5012.583266540259 4998.417960675007,5003.072701377307 4990.327790731258,4997.194848854382 4982.237620787508,5003.072701377307 4979.147450843759,4993.562136214355 4987.237620787508,4999.439988737279 4979.147450843759,4993.562136214355 4976.05728090001,4984.051571051403 4979.147450843759,4993.562136214355 4969.147450843759,4993.562136214355 4977.237620787508,4999.439988737279 4974.147450843759,4989.929423574328 4982.237620787508,4995.807276097253 4979.147450843759,5005.317841260204 4976.057280900009,5014.828406423156 4966.057280900009,5014.828406423156 4976.057280900009,5014.828406423156 4984.147450843759,5008.950553900231 4992.237620787508,5003.072701377307 4989.147450843758,5012.583266540258 4999.147450843758,5012.583266540259 5002.237620787508,5022.09383170321 5012.237620787508,5022.09383170321 5020.327790731257,5027.971684226135 5012.237620787508,5033.84953674906 5004.147450843758,5027.971684226135 5012.237620787508,5022.09383170321 5009.147450843759,5012.583266540259 5001.057280900009,5018.461119063183" stroke="black" stroke-linecap="round" stroke-width="1" /><polyline clip-path="url(#border_clip)" fill="none" points="5001.057280900009,5018.461119063183 5011.057280900009,5018.461119063183 5021.057280900009,5018.461119063183 5012.96711095626,5012.583266540259 5004.87694101251,5018.461119063183 5012.96711095626,5012.583266540259 5004.87694101251,5018.461119063183 5012.967110956259,5024.338971586108 5022.967110956259,5024.3389715861085 5031.057280900009,5030.216824109033 5041.057280900009,5030.216824109033 5032.967110956259,5024.3389715861085 5036.057280900009,5014.828406423157 5044.147450843759,5008.950553900232 5036.057280900009,5003.072701377308 5046.057280900009,5003.072701377308 5054.147450843759,4997.194848854383 5057.237620787508,5006.705414017335 5060.327790731258,5016.215979180286 5070.327790731258,5016.215979180286 5078.417960675007,5010.3381266573615 5075.327790731258,5000.8275614944105 5085.327790731258,5000.8275614944105 5077.237620787508,5006.705414017335 5085.327790731258,5000.8275614944105 5095.327790731258,5000.8275614944105 5085.327790731258,5000.8275614944105 5088.417960675008,4991.3169963314585 5080.327790731258,4997.194848854384 5090.327790731258,4997.194848854384 5082.237620787508,5003.0727013773085 5074.147450843759,4997.194848854383 5066.05728090001,4991.3169963314585 5069.147450843759,4981.806431168507 5066.05728090001,4991.3169963314585 5069.147450843759,5000.8275614944105 5072.237620787508,5010.3381266573615 5064.147450843759,5004.460274134437 5061.057280900009,5013.970839297388 5051.057280900009,5013.970839297388 5047.967110956259,5023.48140446034 5039.87694101251,5029.3592569832645 5036.786771068761,5019.8486918203125" stroke="black" stroke-linecap="round" stroke-width="1" /><polyline clip-path="url(#border_clip)" fill="none" points="5036.786771068761,5019.8486918203125 5044.87694101251,5013.970839297388 5047.967110956259,5023.48140446034 5057.967110956259,5023.48140446034 5054.87694101251,5013.970839297388 5051.786771068761,5023.48140446034 5048.696601125011,5032.991969623291 5056.78677106876,5027.1141171003665 5053.696601125011,5017.6035519374145 5056.78677106876,5027.1141171003665 5053.696601125011,5017.6035519374145 5045.6064311812615,5023.481404460339 5042.516261237512,5032.991969623291 5034.426091293762,5038.8698221462155 5031.3359213500125,5048.3803873091665 5039.426091293762,5042.502534786242 5047.516261237511,5048.380387309167 5050.606431181261,5057.890952472119 5058.69660112501,5052.013099949195 5055.606431181261,5061.523665112146 5058.69660112501,5071.034230275098 5048.69660112501,5071.034230275097 5038.69660112501,5071.034230275097 5035.60643118126,5080.544795438049 5038.696601125009,5090.055360601 5048.696601125009,5090.055360601001 5045.606431181259,5099.565925763952 5042.51626123751,5090.055360601 5045.606431181259,5099.565925763952 5042.51626123751,5109.076490926904 5045.606431181259,5099.565925763952 5053.696601125009,5105.443778286877 5050.60643118126,5095.933213123925 5047.51626123751,5105.443778286877 5044.426091293761,5095.933213123925 5052.51626123751,5090.055360601001 5060.60643118126,5084.177508078076 5068.696601125009,5090.055360601001 5060.60643118126,5084.177508078076 5050.60643118126,5084.177508078075 5040.60643118126,5084.177508078075 5048.69660112501,5078.299655555151 5040.60643118126,5072.421803032226" stroke="black" stroke-linecap="round" stroke-width="1" /><polyline clip-path="url(#border_clip)" fill="none" points="5040.60643118126,5072.421803032226 5043.69660112501,5062.911237869274 5035.606431181261,5057.03338534635 5032.516261237512,5047.522820183398 5042.516261237512,5047.522820183398 5045.606431181261,5057.03338534635 5035.606431181261,5057.03338534635 5032.516261237511,5066.543950509301 5042.516261237511,5066.543950509301 5034.426091293762,5060.666097986376 5026.335921350012,5054.788245463451 5029.426091293762,5064.298810626403 5039.426091293762,5064.298810626403 5029.426091293762,5064.298810626403 5039.426091293762,5064.298810626403 5036.335921350012,5054.788245463452 5028.245751406263,5048.910392940526 5025.1555814625135,5039.3998277775745 5017.065411518764,5033.52197525465 5020.1555814625135,5043.032540417602 5012.0654115187635,5048.910392940526 5002.0654115187635,5048.9103929405255 5005.155581462513,5058.4209581034775 4997.0654115187635,5052.543105580552 4987.0654115187635,5052.543105580552 4990.1555814625135,5043.032540417601 4993.2457514062635,5033.521975254649 4985.1555814625135,5027.644122731725 4975.1555814625135,5027.644122731724 4972.0654115187635,5037.154687894676 4963.9752415750145,5031.27683537175 4973.9752415750145,5031.27683537175 4963.9752415750145,5031.27683537175 4955.885071631265,5025.398982848826 4963.9752415750145,5031.27683537175 4955.8850716312645,5037.154687894675 4965.8850716312645,5037.154687894675 4957.794901687515,5031.27683537175 4967.794901687515,5031.27683537175 4970.8850716312645,5040.787400534702 4973.975241575014,5050.297965697654 4965.8850716312645,5056.175818220579 4973.975241575014,5050.297965697654" stroke="black" stroke-linecap="round" stroke-width="1" /><polyline clip-path="url(#border_clip)" fill="none" points="4973.975241575014,5050.297965697654 4977.0654115187635,5040.787400534702 4980.1555814625135,5031.276835371751 4983.245751406263,5040.787400534702 4991.3359213500125,5034.909548011778 4999.426091293762,5040.787400534703 5007.516261237512,5034.9095480117785 5017.516261237512,5034.9095480117785 5014.426091293762,5044.42011317473 5004.426091293762,5044.42011317473 5007.516261237512,5034.9095480117785 4999.4260912937625,5029.031695488854 4996.3359213500125,5038.542260651805 5004.4260912937625,5032.6644081288805 5012.516261237512,5026.786555605956 5002.516261237512,5026.786555605956 4999.426091293762,5036.297120768907 5002.516261237512,5026.786555605956 4999.426091293762,5036.297120768907 5009.426091293762,5036.297120768908 5017.516261237512,5030.419268245983 5027.516261237512,5030.419268245983 5035.6064311812615,5024.541415723059 5025.6064311812615,5024.541415723059 5022.5162612375125,5015.030850560107 5025.606431181262,5005.520285397156 5015.606431181262,5005.520285397155 5023.6966011250115,4999.6424328742305 5026.7867710687615,4990.1318677112795 5034.8769410125105,4996.009720234204 5042.9671109562605,5001.887572757129 5051.05728090001,4996.009720234205 5054.1474508437595,4986.499155071253 5046.0572809000105,4980.6213025483285 5054.14745084376,4974.743450025404 5051.0572809000105,4984.254015188355 5054.14745084376,4974.743450025404 5062.23762078751,4968.865597502479 5054.14745084376,4974.743450025404 5051.057280900011,4965.232884862452 5047.967110956261,4974.743450025404 5056.057280900011,4968.865597502479 5052.967110956261,4978.3761626654305" stroke="black" stroke-linecap="round" stroke-width="1" /><polyline clip-path="url(#border_clip)" fill="none" points="5052.967110956261,4978.3761626654305 5042.967110956261,4978.3761626654305 5032.967110956261,4978.37616266543 5029.876941012512,4968.8655975024785 5032.967110956261,4978.37616266543 5041.0572809000105,4984.254015188355 5049.1474508437595,4990.13186771128 5039.1474508437595,4990.1318677112795 5042.237620787509,4999.642432874231 5034.147450843759,5005.520285397156 5037.237620787508,5015.030850560108 5034.147450843759,5024.541415723059 5026.057280900009,5018.6635632001335 5029.147450843759,5009.152998037182 5037.237620787508,5015.030850560108 5045.327790731258,5009.152998037183 5037.237620787509,5003.275145514258 5040.327790731258,5012.78571067721 5043.417960675007,5022.296275840162 5046.508130618757,5012.78571067721 5038.417960675008,5006.907858154284 5046.508130618757,5012.78571067721 5038.417960675008,5006.907858154284 5035.327790731258,5016.418423317236 5038.417960675007,5025.928988480188 5035.327790731257,5035.439553643139 5038.417960675006,5044.950118806091 5041.508130618756,5035.439553643139 5051.508130618756,5035.43955364314 5059.598300562505,5041.317406166066 5062.688470506255,5031.806841003114 5065.778640450004,5041.317406166066 5073.868810393753,5047.19525868899 5065.778640450004,5053.073111211915 5057.688470506254,5058.950963734839 5060.778640450003,5068.461528897791 5068.868810393752,5074.339381420717 5076.958980337502,5068.461528897792 5080.049150281251,5077.972094060743 5071.958980337502,5072.094241537819 5080.049150281251,5077.972094060743 5083.139320225,5087.482659223695 5080.049150281251,5077.972094060743" stroke="black" stroke-linecap="round" stroke-width="1" /><polyline clip-path="url(#border_clip)" fill="none" points="5080.049150281251,5077.972094060743 5090.049150281251,5077.972094060744 5081.958980337502,5072.094241537819 5085.049150281251,5081.6048067007705 5076.958980337501,5075.726954177845 5080.049150281251,5066.216389014894 5083.139320225001,5056.705823851942 5093.139320225001,5056.705823851943 5083.139320225001,5056.705823851942 5075.049150281252,5062.583676374867 5066.958980337502,5068.461528897791 5070.049150281252,5058.95096373484 5060.049150281252,5058.950963734839 5056.958980337503,5049.440398571887 5046.958980337503,5049.440398571887 5038.868810393753,5043.562546048962 5046.958980337503,5037.684693526037 5055.049150281252,5043.562546048963 5046.958980337503,5049.440398571887 5050.049150281252,5058.950963734839 5058.139320225001,5053.073111211915 5048.139320225001,5053.073111211914 5038.139320225001,5053.073111211914 5046.229490168751,5058.950963734839 5054.3196601125,5053.073111211915 5046.229490168751,5058.950963734839 5054.3196601125,5053.073111211915 5046.229490168751,5047.195258688989 5036.229490168751,5047.195258688989 5028.139320225002,5041.317406166064 5018.139320225002,5041.317406166063 5026.229490168751,5047.195258688988 5023.139320225001,5056.705823851939 5015.049150281251,5062.583676374864 5023.139320225,5068.461528897789 5013.139320225,5068.461528897788 5005.049150281251,5074.339381420713 5001.958980337502,5064.828816257762 4998.868810393753,5055.31825109481 4988.868810393753,5055.318251094809 4980.778640450003,5061.196103617734 4983.868810393752,5070.7066687806855 4973.868810393752,5070.706668780685" stroke="black" stroke-linecap="round" stroke-width="1" /><polyline clip-path="url(#border_clip)" fill="none" points="4973.868810393752,5070.706668780685 4981.958980337501,5064.828816257761 4973.868810393752,5070.706668780685 4963.868810393752,5070.706668780685 4973.868810393752,5070.706668780685 4970.778640450002,5080.2172339436365 4978.868810393751,5074.339381420712 4968.868810393751,5074.339381420711 4976.958980337501,5068.4615288977875 4985.04915028125,5074.339381420712 4993.139320225,5080.217233943637 4990.04915028125,5089.7277991065885 4993.139320225,5080.217233943637 4990.049150281251,5070.7066687806855 4986.958980337502,5061.196103617734 4995.049150281251,5067.073956140659 4998.139320225001,5057.563390977708 5008.139320225001,5057.563390977708 5011.229490168751,5048.052825814757 5019.319660112501,5042.174973291832 5022.40983005625,5051.685538454784 5014.3196601125,5057.563390977709 5011.229490168751,5048.052825814757 5001.229490168751,5048.052825814756 5004.3196601125,5057.563390977708 5007.40983005625,5048.052825814757 5010.5,5038.542260651805 5002.40983005625,5044.4201131747295 5005.499999999999,5053.9306783376815 5002.40983005625,5044.4201131747295 5005.499999999999,5053.9306783376815 5013.590169943749,5048.052825814757 5016.680339887499,5038.542260651805 5024.770509831249,5032.664408128881 5027.860679774999,5023.1538429659295 5019.770509831249,5029.031695488854 5011.6803398875,5023.153842965929 5008.590169943751,5013.6432778029775 5000.500000000001,5019.521130325901 5003.590169943751,5010.01056516295 5000.500000000002,5000.499999999998 5010.500000000002,5000.499999999999 5020.500000000002,5000.499999999999" stroke="black" stroke-linecap="round" stroke-width="1" /><polyline clip-path="url(#border_clip)" fill="none" points="5020.500000000002,5000.499999999999 5023.590169943752,4990.989434837048 5020.500000000003,4981.478869674096 5010.500000000003,4981.478869674095 5013.590169943753,4971.968304511144 5016.680339887502,4981.478869674096 5013.590169943753,4971.968304511144 5016.680339887503,4962.457739348193 5013.590169943753,4971.968304511144 5005.500000000004,4966.090451988219 5008.590169943753,4975.601017151171 5011.680339887503,4966.09045198822 5014.770509831252,4975.601017151171 5006.680339887502,4981.478869674095 4998.590169943752,4987.35672219702 4990.500000000003,4981.478869674094 4998.590169943752,4987.35672219702 5008.590169943752,4987.356722197021 5018.590169943752,4987.356722197021 5010.500000000002,4993.234574719945 5018.590169943752,4999.112427242871 5015.500000000002,5008.622992405822 5023.590169943751,5014.500844928747 5026.6803398875,5024.011410091699 5016.680339887499,5024.011410091698 5013.590169943751,5014.500844928746 5023.590169943751,5014.500844928747 5026.680339887501,5004.990279765795 5016.680339887501,5004.990279765795 5024.77050983125,5010.8681322887205 5032.860679774999,5016.745984811645 5029.77050983125,5007.235419648694 5019.77050983125,5007.235419648693 5029.77050983125,5007.235419648694 5019.77050983125,5007.235419648693 5022.860679774999,5016.745984811645 5030.950849718748,5022.62383733457 5034.041019662497,5032.1344024975215 5042.131189606246,5038.012255020447 5039.041019662497,5028.501689857495 5047.131189606247,5022.623837334571 5057.131189606247,5022.623837334571 5054.041019662498,5013.113272171619" stroke="black" stroke-linecap="round" stroke-width="1" /><polyline clip-path="url(#border_clip)" fill="none" points="5054.041019662498,5013.113272171619 5062.131189606247,5018.991124694545 5072.131189606247,5018.991124694546 5069.041019662497,5028.501689857497 5065.950849718747,5038.012255020449 5074.041019662496,5043.890107543374 5084.041019662496,5043.890107543374 5087.131189606247,5034.379542380423 5095.221359549996,5040.2573949033485 5085.221359549996,5040.257394903348 5095.221359549996,5040.2573949033485 5103.311529493745,5046.135247426273 5095.221359549996,5040.2573949033485 5103.311529493746,5034.379542380424 5093.311529493745,5034.379542380423 5101.401699437495,5040.2573949033485 5091.401699437495,5040.257394903348 5088.311529493746,5030.746829740396 5085.221359549997,5021.236264577445 5093.311529493747,5015.35841205452 5085.221359549997,5021.236264577445 5082.131189606247,5030.746829740396 5079.041019662497,5040.257394903347 5075.950849718748,5030.746829740396 5067.860679774998,5036.624682263319 5059.770509831249,5030.746829740395 5051.680339887499,5036.624682263318 5041.680339887499,5036.624682263318 5044.770509831249,5027.1141171003665 5054.770509831249,5027.114117100367 5051.680339887499,5036.624682263318 5059.770509831248,5042.502534786244 5062.860679774998,5032.991969623293 5054.770509831248,5038.869822146216 5046.680339887498,5044.747674669141 5056.680339887498,5044.747674669142 5059.770509831248,5035.23710950619 5056.680339887498,5044.747674669142 5059.770509831248,5035.23710950619 5049.770509831248,5035.23710950619 5041.680339887498,5041.1149620291135 5031.680339887498,5041.1149620291135 5023.590169943748,5046.992814552038" stroke="black" stroke-linecap="round" stroke-width="1" /><polyline clip-path="url(#border_clip)" fill="none" points="5023.590169943748,5046.992814552038 5033.590169943749,5046.992814552038 5036.680339887497,5056.50337971499 5033.590169943747,5066.013944877941 5043.590169943747,5066.013944877942 5035.499999999997,5071.891797400866 5032.409830056247,5081.402362563817 5024.319660112498,5075.524510040892 5016.229490168749,5069.6466575179675 5008.139320224999,5075.524510040891 5005.049150281249,5085.035075203843 5013.139320224998,5090.912927726768 5005.049150281248,5096.790780249692 5008.139320224998,5087.280215086741 5005.049150281248,5096.790780249692 4996.958980337498,5102.668632772617 5005.049150281248,5096.790780249692 5008.139320224997,5106.301345412644 5011.229490168747,5096.790780249693 5003.139320224997,5102.668632772617 5006.229490168747,5093.1580676096655 5016.229490168747,5093.158067609666 5026.229490168747,5093.158067609667 5029.319660112496,5102.668632772618 5026.229490168747,5093.158067609667 5018.139320224998,5087.280215086742 5010.049150281249,5081.4023625638165 5020.049150281249,5081.4023625638165 5016.958980337501,5071.8917974008655 5025.04915028125,5066.013944877941 5021.958980337502,5056.503379714989 5025.049150281252,5046.992814552038 5033.139320225001,5052.8706670749625 5030.049150281251,5062.381232237914 5021.958980337502,5056.503379714989 5013.868810393752,5062.3812322379135 5021.958980337501,5068.259084760839 5018.868810393752,5058.748519597887 5015.778640450003,5049.237954434935 5012.688470506253,5058.748519597886 5020.778640450002,5064.6263721208115 5012.688470506253,5058.748519597886 5020.778640450002,5064.6263721208115" stroke="black" stroke-linecap="round" stroke-width="1" /><polyline clip-path="url(#border_clip)" fill="none" points="5020.778640450002,5064.6263721208115 5023.868810393752,5055.1158069578605 5020.778640450004,5045.605241794909 5023.868810393754,5036.094676631957 5020.778640450005,5026.584111469006 5017.688470506255,5036.094676631957 5007.688470506255,5036.094676631956 4999.598300562506,5030.21682410903 4996.508130618755,5039.727389271982 4993.417960675007,5030.21682410903 4985.327790731258,5024.338971586105 4993.417960675008,5018.46111906318 5001.508130618758,5012.583266540257 4998.4179606750085,5003.072701377305 4990.3277907312595,4997.194848854379 4982.2376207875095,5003.072701377303 4979.14745084376,4993.562136214352 4987.2376207875095,4999.439988737277 4979.14745084376,4993.562136214352 4976.057280900011,4984.0515710514 4979.14745084376,4993.562136214352 4969.14745084376,4993.562136214351 4977.2376207875095,4999.4399887372765 4974.14745084376,4989.929423574325 4982.2376207875095,4995.80727609725 4979.1474508437595,5005.317841260201 4976.05728090001,5014.828406423153 4966.05728090001,5014.828406423152 4976.05728090001,5014.828406423153 4984.1474508437595,5008.950553900228 4992.2376207875095,5003.072701377304 4989.1474508437595,5012.583266540256 4999.1474508437595,5012.583266540256 5002.237620787508,5022.093831703208 5012.237620787508,5022.093831703209 5020.327790731258,5027.971684226134 5012.237620787508,5033.849536749059 5004.147450843758,5027.971684226133 5012.237620787508,5022.093831703209 5009.1474508437595,5012.583266540257 5001.05728090001,5018.461119063181 5011.05728090001,5018.461119063182 5021.05728090001,5018.461119063183" stroke="black" stroke-linecap="round" stroke-width="1" /><polyline clip-path="url(#border_clip)" fill="none" points="5021.05728090001,5018.461119063183 5012.9671109562605,5012.583266540258 5004.8769410125105,5018.461119063181 5012.9671109562605,5012.583266540258 5004.8769410125105,5018.461119063181 5012.96711095626,5024.338971586107 5022.96711095626,5024.338971586108 5031.057280900009,5030.216824109033 5041.057280900009,5030.216824109034 5032.96711095626,5024.3389715861085 5036.05728090001,5014.828406423157 5044.1474508437595,5008.950553900233 5036.0572809000105,5003.072701377308 5046.0572809000105,5003.0727013773085 5054.14745084376,4997.194848854384 5057.2376207875095,5006.705414017336 5060.327790731259,5016.215979180288 5070.327790731259,5016.215979180289 5078.4179606750085,5010.338126657364 5075.3277907312595,5000.827561494412 5085.3277907312595,5000.827561494413 5077.2376207875095,5006.705414017338 5085.3277907312595,5000.827561494413 5095.32779073126,5000.827561494414 5085.3277907312595,5000.827561494413 5088.41796067501,4991.316996331461 5080.32779073126,4997.194848854386 5090.32779073126,4997.194848854387 5082.23762078751,5003.072701377311 5074.147450843761,4997.194848854386 5066.057280900012,4991.31699633146 5069.147450843762,4981.806431168508 5066.057280900012,4991.31699633146 5069.14745084376,5000.827561494412 5072.2376207875095,5010.338126657363 5064.14745084376,5004.460274134438 5061.0572809000105,5013.97083929739 5051.0572809000105,5013.970839297389 5047.96711095626,5023.48140446034 5039.87694101251,5029.3592569832645 5036.7867710687615,5019.8486918203125 5044.876941012511,5013.970839297388 5047.96711095626,5023.48140446034" stroke="black" stroke-linecap="round" stroke-width="1" /><polyline clip-path="url(#border_clip)" fill="none" points="5047.96711095626,5023.48140446034 5057.96711095626,5023.481404460341 5054.876941012511,5013.970839297389 5051.786771068761,5023.481404460341 5048.696601125011,5032.991969623292 5056.786771068761,5027.114117100368 5053.6966011250115,5017.603551937416 5056.786771068761,5027.114117100368 5053.6966011250115,5017.603551937416 5045.6064311812615,5023.48140446034 5042.516261237512,5032.991969623292 5034.426091293762,5038.8698221462155 5031.335921350012,5048.380387309167 5039.426091293762,5042.502534786243 5047.516261237511,5048.380387309168 5050.606431181259,5057.89095247212 5058.69660112501,5052.013099949196 5055.606431181259,5061.523665112148 5058.696601125008,5071.0342302751 5048.696601125008,5071.034230275099 5038.696601125008,5071.034230275098 5035.606431181257,5080.544795438049 5038.696601125006,5090.055360601001 5048.696601125006,5090.055360601002 5045.606431181256,5099.565925763953 5042.516261237507,5090.055360601002 5045.606431181256,5099.565925763953 5042.516261237505,5109.076490926905 5045.606431181256,5099.565925763953 5053.696601125005,5105.443778286879 5050.606431181256,5095.933213123927 5047.516261237506,5105.443778286878 5044.426091293757,5095.933213123926 5052.516261237507,5090.055360601002 5060.606431181257,5084.177508078078 5068.696601125006,5090.0553606010035 5060.606431181257,5084.177508078078 5050.606431181257,5084.177508078077 5040.606431181257,5084.177508078076 5048.696601125007,5078.299655555153 5040.606431181258,5072.421803032226 5043.696601125008,5062.911237869275 5035.606431181259,5057.03338534635" stroke="black" stroke-linecap="round" stroke-width="1" /><polyline clip-path="url(#border_clip)" fill="none" points="5035.606431181259,5057.03338534635 5032.516261237511,5047.522820183398 5042.516261237511,5047.522820183399 5045.60643118126,5057.033385346351 5035.606431181259,5057.03338534635 5032.516261237509,5066.543950509301 5042.516261237509,5066.543950509302 5034.42609129376,5060.666097986376 5026.335921350011,5054.788245463451 5029.42609129376,5064.298810626403 5039.42609129376,5064.298810626404 5029.42609129376,5064.298810626403 5039.42609129376,5064.298810626404 5036.335921350011,5054.788245463452 5028.245751406262,5048.910392940526 5025.1555814625135,5039.3998277775745 5017.065411518764,5033.521975254649 5020.155581462513,5043.032540417601 5012.065411518763,5048.9103929405255 5002.065411518763,5048.910392940525 5005.155581462512,5058.420958103477 4997.065411518763,5052.543105580551 4987.065411518763,5052.54310558055 4990.155581462513,5043.032540417598 4993.245751406263,5033.521975254647 4985.1555814625135,5027.644122731722 4975.1555814625135,5027.644122731721 4972.0654115187635,5037.154687894672 4963.9752415750145,5031.2768353717465 4973.9752415750145,5031.276835371747 4963.9752415750145,5031.2768353717465 4955.885071631265,5025.398982848821 4963.9752415750145,5031.2768353717465 4955.8850716312645,5037.154687894671 4965.8850716312645,5037.154687894672 4957.794901687515,5031.2768353717465 4967.794901687515,5031.276835371747 4970.8850716312645,5040.787400534699 4973.975241575013,5050.297965697651 4965.885071631263,5056.175818220575 4973.975241575013,5050.297965697651 4977.0654115187635,5040.787400534699 4980.1555814625135,5031.276835371748" stroke="black" stroke-linecap="round" stroke-width="1" /><polyline clip-path="url(#border_clip)" fill="none" points="4980.1555814625135,5031.276835371748 4983.245751406263,5040.7874005347 4991.3359213500125,5034.909548011776 4999.426091293762,5040.787400534701 5007.516261237512,5034.909548011778 5017.516261237512,5034.9095480117785 5014.426091293761,5044.4201131747295 5004.426091293761,5044.420113174729 5007.516261237512,5034.909548011778 4999.4260912937625,5029.031695488852 4996.335921350012,5038.542260651803 5004.426091293762,5032.66440812888 5012.5162612375125,5026.786555605955 5002.516261237512,5026.786555605954 4999.426091293762,5036.297120768905 5002.516261237512,5026.786555605954 4999.426091293762,5036.297120768905 5009.426091293762,5036.297120768906 5017.516261237512,5030.4192682459825 5027.516261237512,5030.419268245983 5035.606431181262,5024.541415723059 5025.6064311812615,5024.541415723058 5022.516261237513,5015.030850560106 5025.606431181263,5005.520285397155 5015.606431181263,5005.520285397154 5023.696601125013,4999.6424328742305 5026.786771068764,4990.131867711279 5034.876941012513,4996.009720234204 5042.967110956262,5001.887572757129 5051.057280900012,4996.009720234206 5054.147450843762,4986.499155071255 5046.057280900013,4980.6213025483285 5054.147450843763,4974.743450025405 5051.057280900013,4984.254015188356 5054.147450843763,4974.743450025405 5062.237620787514,4968.86559750248 5054.147450843763,4974.743450025405 5051.057280900015,4965.232884862453 5047.967110956264,4974.743450025404 5056.057280900015,4968.86559750248 5052.967110956264,4978.376162665431 5042.967110956264,4978.3761626654305 5032.967110956264,4978.37616266543" stroke="black" stroke-linecap="round" stroke-width="1" /><polyline clip-path="url(#border_clip)" fill="none" points="5032.967110956264,4978.37616266543 5029.876941012515,4968.865597502478 5032.967110956264,4978.37616266543 5041.057280900013,4984.254015188355 5049.147450843762,4990.13186771128 5039.147450843762,4990.1318677112795 5042.23762078751,4999.642432874231 5034.14745084376,5005.520285397156 5037.2376207875095,5015.030850560108 5034.147450843759,5024.541415723059 5026.05728090001,5018.6635632001335 5029.14745084376,5009.152998037182 5037.2376207875095,5015.030850560108 5045.3277907312595,5009.152998037183 5037.23762078751,5003.275145514258 5040.327790731259,5012.78571067721 5043.417960675008,5022.296275840162 5046.508130618758,5012.785710677211 5038.4179606750085,5006.907858154285 5046.508130618758,5012.785710677211 5038.4179606750085,5006.907858154285 5035.327790731259,5016.418423317236 5038.417960675007,5025.928988480188 5035.327790731257,5035.439553643139 5038.417960675005,5044.950118806091 5041.508130618756,5035.43955364314 5051.508130618756,5035.439553643141 5059.598300562505,5041.317406166067 5062.688470506255,5031.806841003116 5065.778640450004,5041.3174061660675 5073.868810393753,5047.195258688993 5065.778640450003,5053.073111211917 5057.688470506252,5058.950963734841 5060.778640450001,5068.461528897793 5068.86881039375,5074.339381420718 5076.9589803375,5068.461528897795 5080.049150281249,5077.972094060747 5071.9589803375,5072.094241537821 5080.049150281249,5077.972094060747 5083.139320224997,5087.482659223699 5080.049150281249,5077.972094060747 5090.049150281249,5077.972094060748 5081.9589803375,5072.094241537822" stroke="black" stroke-linecap="round" stroke-width="1" /><polyline clip-path="url(#border_clip)" fill="none" points="5081.9589803375,5072.094241537822 5085.049150281248,5081.604806700774 5076.958980337499,5075.726954177848 5080.04915028125,5066.216389014897 5083.139320225,5056.705823851946 5093.139320225,5056.705823851947 5083.139320225,5056.705823851946 5075.04915028125,5062.583676374869 5066.9589803375,5068.461528897794 5070.04915028125,5058.950963734842 5060.04915028125,5058.950963734841 5056.958980337502,5049.440398571889 5046.958980337502,5049.440398571888 5038.868810393753,5043.562546048963 5046.958980337503,5037.684693526038 5055.049150281252,5043.562546048965 5046.958980337502,5049.440398571888 5050.04915028125,5058.95096373484 5058.139320225,5053.0731112119165 5048.139320225,5053.073111211916 5038.139320225,5053.073111211914 5046.229490168749,5058.95096373484 5054.319660112499,5053.073111211916 5046.229490168749,5058.95096373484 5054.319660112499,5053.073111211916 5046.22949016875,5047.19525868899 5036.22949016875,5047.195258688989 5028.139320225001,5041.317406166064 5018.139320225001,5041.317406166063 5026.22949016875,5047.195258688988 5023.139320225,5056.705823851939 5015.049150281249,5062.583676374864 5023.139320224998,5068.461528897789 5013.139320224998,5068.461528897788 5005.049150281248,5074.339381420712 5001.958980337499,5064.82881625776 4998.868810393751,5055.318251094808 4988.868810393751,5055.318251094807 4980.778640450001,5061.196103617731 4983.868810393749,5070.706668780683 4973.868810393749,5070.706668780682 4981.958980337499,5064.828816257758 4973.868810393749,5070.706668780682" stroke="black" stroke-linecap="round" stroke-width="1" /><polyline clip-path="url(#border_clip)" fill="none" points="4973.868810393749,5070.706668780682 4963.868810393749,5070.706668780681 4973.868810393749,5070.706668780682 4970.778640449998,5080.217233943634 4978.868810393749,5074.339381420709 4968.868810393749,5074.339381420708 4976.958980337499,5068.461528897785 4985.049150281248,5074.33938142071 4993.139320224997,5080.217233943636 4990.0491502812465,5089.727799106587 4993.139320224997,5080.217233943636 4990.049150281248,5070.706668780684 4986.9589803375,5061.196103617732 4995.049150281249,5067.073956140657 4998.139320224999,5057.563390977706 5008.139320224999,5057.563390977707 5011.22949016875,5048.052825814756 5019.3196601125,5042.1749732918315 5022.409830056249,5051.685538454783 5014.319660112498,5057.563390977708 5011.22949016875,5048.052825814756 5001.22949016875,5048.052825814755 5004.319660112498,5057.563390977707 5007.409830056249,5048.052825814755 5010.499999999999,5038.542260651804 5002.409830056249,5044.420113174728 5005.499999999998,5053.93067833768 5002.409830056249,5044.420113174728 5005.499999999998,5053.93067833768 5013.590169943748,5048.052825814756 5016.680339887498,5038.542260651805 5024.770509831249,5032.6644081288805 5027.860679774999,5023.1538429659295 5019.770509831249,5029.031695488853 5011.6803398875,5023.153842965928 5008.590169943752,5013.643277802976 5000.500000000001,5019.5211303259 5003.590169943752,5010.010565162948 5000.500000000004,5000.499999999996" stroke="black" stroke-linecap="round" stroke-width="1" /></svg>