<?xml version="1.0" encoding="utf-8" ?>
<svg baseProfile="full" height="500px" version="1.1" width="500px" xmlns="http://www.w3.org/2000/svg" xmlns:ev="http://www.w3.org/2001/xml-events" xmlns:xlink="http://www.w3.org/1999/xlink"><defs><clipPath id="border_clip"><rect height="500" width="500" x="0" y="0" /></clipPath></defs><polyline clip-path="url(#border_clip)" fill="none" points="250.5,250.5 260.5,250.5 250.5,250.5 253.59016994374946,260.01056516295154 261.680339887499,254.1327126400268 253.5901699437495,248.25486011710208 250.5,257.7654252800536 260.5,257.7654252800536 257.40983005625054,248.25486011710208 249.31966011250105,254.1327126400268 257.40983005625054,260.01056516295154 260.5,250.5 250.5,250.5 253.59016994374946,260.01056516295154 261.680339887499,254.13271264002682 253.5901699437495,248.25486011710206 250.5,257.7654252800536 260.5,257.7654252800536 257.40983005625054,248.25486011710208 249.31966011250105,254.1327126400268 257.4098300562505,260.01056516295154 260.5,250.5 250.5,250.49999999999997 253.59016994374946,260.01056516295154 261.680339887499,254.13271264002682 253.5901699437495,248.25486011710206 250.49999999999997,257.7654252800536 260.5,257.76542528005365 257.40983005625054,248.25486011710208 249.31966011250105,254.1327126400268 257.4098300562505,260.01056516295154 260.5,250.5 250.5,250.49999999999997 253.59016994374946,260.01056516295154 261.680339887499,254.13271264002682 253.5901699437495,248.25486011710206 250.49999999999997,257.7654252800536 260.5,257.76542528005365 257.40983005625054,248.25486011710206 249.31966011250103,254.13271264002677 257.4098300562505,260.01056516295154 260.5,250.5 250.5,250.49999999999997" stroke="black" stroke-linecap="round" stroke-width="1" /><polyline clip-path="url(#border_clip)" fill="none" points="250.5,250.49999999999997 253.59016994374943,260.01056516295154 261.680339887499,254.13271264002682 253.5901699437495,248.25486011710206 250.49999999999997,257.7654252800536 260.5,257.76542528005365 257.40983005625054,248.25486011710206 249.31966011250103,254.13271264002677 257.4098300562505,260.01056516295154 260.5,250.5 250.5,250.49999999999997 253.59016994374943,260.01056516295154 261.680339887499,254.13271264002682 253.5901699437495,248.25486011710206 250.49999999999997,257.7654252800536 260.5,257.76542528005365 257.40983005625054,248.25486011710206 249.31966011250103,254.13271264002677 257.4098300562505,260.01056516295154 260.50000000000006,250.50000000000003 250.5,250.49999999999994 253.59016994374943,260.01056516295154 261.680339887499,254.13271264002685 253.59016994374952,248.25486011710203 250.49999999999994,257.7654252800536 260.5,257.76542528005365 257.4098300562506,248.25486011710206 249.31966011250103,254.13271264002677 257.4098300562505,260.0105651629516 260.50000000000006,250.50000000000003 250.5,250.49999999999994 253.59016994374943,260.01056516295154 261.680339887499,254.13271264002685 253.59016994374952,248.25486011710203 250.49999999999994,257.7654252800536 260.5,257.76542528005365 257.4098300562506,248.25486011710206 249.31966011250103,254.13271264002674 257.4098300562505,260.0105651629516 260.50000000000006,250.50000000000003 250.5,250.49999999999994 253.5901699437494,260.01056516295154 261.680339887499,254.13271264002685" stroke="black" stroke-linecap="round" stroke-width="1" /><polyline clip-path="url(#border_clip)" fill="none" points="261.680339887499,254.13271264002685 253.59016994374952,248.25486011710203 250.49999999999994,257.7654252800536 260.5,257.76542528005365 257.4098300562506,248.25486011710206 249.31966011250103,254.13271264002674 257.4098300562505,260.0105651629516 260.50000000000006,250.50000000000003 250.5,250.49999999999994 253.5901699437494,260.01056516295154 261.680339887499,254.13271264002685 253.59016994374952,248.25486011710203 250.49999999999994,257.7654252800536 260.5,257.76542528005365 257.4098300562506,248.25486011710206 249.31966011250103,254.13271264002674 257.4098300562505,260.0105651629516 260.50000000000006,250.50000000000003 250.5,250.49999999999991 253.5901699437494,260.01056516295154 261.680339887499,254.13271264002688 253.59016994374952,248.25486011710203 250.49999999999994,257.7654252800536 260.5,257.7654252800537 257.4098300562506,248.25486011710206 249.31966011250103,254.13271264002674 257.4098300562505,260.0105651629516 260.50000000000006,250.50000000000003 250.50000000000003,250.49999999999991 253.5901699437494,260.01056516295154 261.680339887499,254.13271264002688 253.59016994374954,248.25486011710203 250.49999999999991,257.7654252800536 260.5,257.7654252800537 257.4098300562506,248.25486011710206 249.31966011250103,254.13271264002674 257.4098300562505,260.0105651629516 260.50000000000006,250.50000000000003 250.50000000000003,250.49999999999991 253.59016994374937,260.01056516295154 261.680339887499,254.13271264002688 253.59016994374954,248.254860117102 250.49999999999991,257.76542528005353" stroke="black" stroke-linecap="round" stroke-width="1" /><polyline clip-path="url(#border_clip)" fill="none" points="250.49999999999991,257.76542528005353 260.5,257.7654252800537 257.4098300562506,248.25486011710206 249.31966011250103,254.1327126400267 257.4098300562504,260.0105651629516 260.50000000000006,250.50000000000006 250.50000000000003,250.49999999999991 253.59016994374937,260.01056516295154 261.680339887499,254.13271264002688 253.59016994374954,248.254860117102 250.49999999999991,257.76542528005353 260.5,257.7654252800537 257.4098300562506,248.25486011710206 249.31966011250103,254.1327126400267 257.4098300562504,260.0105651629516 260.50000000000006,250.50000000000006 250.50000000000003,250.4999999999999 253.59016994374937,260.01056516295154 261.680339887499,254.13271264002688 253.59016994374954,248.254860117102 250.49999999999991,257.76542528005353 260.5,257.7654252800537 257.4098300562506,248.25486011710206 249.319660112501,254.1327126400267 257.4098300562504,260.0105651629516 260.5000000000001,250.50000000000006 250.50000000000003,250.4999999999999 253.59016994374937,260.01056516295154 261.680339887499,254.13271264002688 253.59016994374954,248.254860117102 250.49999999999991,257.76542528005353 260.5,257.7654252800537 257.40983005625066,248.25486011710206 249.319660112501,254.13271264002668 257.4098300562504,260.0105651629516 260.5000000000001,250.50000000000006 250.50000000000003,250.4999999999999 253.59016994374937,260.01056516295154 261.680339887499,254.1327126400269 253.59016994374957,248.254860117102 250.49999999999991,257.76542528005353 260.5,257.7654252800537 257.40983005625066,248.25486011710206" stroke="black" stroke-linecap="round" stroke-width="1" /><polyline clip-path="url(#border_clip)" fill="none" points="257.40983005625066,248.25486011710206 249.319660112501,254.13271264002668 257.4098300562504,260.0105651629516 260.5000000000001,250.50000000000006 250.50000000000003,250.4999999999999 253.59016994374934,260.01056516295154 261.680339887499,254.1327126400269 253.59016994374957,248.254860117102 250.4999999999999,257.76542528005353 260.5,257.7654252800537 257.40983005625066,248.25486011710206 249.319660112501,254.13271264002668 257.4098300562504,260.0105651629516 260.5000000000001,250.50000000000006 250.50000000000003,250.4999999999999 253.59016994374934,260.01056516295154 261.680339887499,254.1327126400269 253.59016994374957,248.254860117102 250.4999999999999,257.76542528005353 260.5,257.7654252800537 257.40983005625066,248.25486011710206 249.319660112501,254.13271264002668 257.4098300562504,260.0105651629516 260.5000000000001,250.50000000000006 250.50000000000003,250.49999999999986 253.59016994374934,260.01056516295154 261.680339887499,254.1327126400269 253.59016994374957,248.254860117102 250.4999999999999,257.76542528005353 260.5,257.76542528005376 257.40983005625066,248.25486011710206 249.319660112501,254.13271264002668 257.4098300562504,260.0105651629516 260.5000000000001,250.50000000000006 250.50000000000003,250.49999999999986 253.59016994374934,260.01056516295154 261.68033988749903,254.13271264002694 253.59016994374957,248.25486011710197 250.4999999999999,257.76542528005353 260.49999999999994,257.76542528005376 257.40983005625066,248.25486011710206 249.319660112501,254.13271264002668 257.4098300562504,260.01056516295165" stroke="black" stroke-linecap="round" stroke-width="1" /><polyline clip-path="url(#border_clip)" fill="none" points="257.4098300562504,260.01056516295165 260.5000000000001,250.50000000000009 250.50000000000003,250.49999999999986 253.59016994374934,260.01056516295154 261.68033988749903,254.13271264002694 253.59016994374957,248.25486011710197 250.4999999999999,257.76542528005353 260.49999999999994,257.76542528005376 257.40983005625066,248.25486011710206 249.319660112501,254.13271264002668 257.4098300562504,260.01056516295165 260.5000000000001,250.50000000000009 250.50000000000003,250.49999999999986 253.59016994374932,260.01056516295154 261.68033988749903,254.13271264002694 253.5901699437496,248.25486011710197 250.49999999999986,257.76542528005353 260.49999999999994,257.76542528005376 257.40983005625066,248.25486011710206 249.319660112501,254.13271264002665 257.4098300562504,260.01056516295165 260.5000000000001,250.50000000000009 250.50000000000003,250.49999999999986 253.59016994374932,260.01056516295154 261.68033988749903,254.13271264002694 253.5901699437496,248.25486011710197 250.49999999999986,257.76542528005353 260.49999999999994,257.76542528005376 257.4098300562507,248.25486011710206 249.319660112501,254.13271264002665 257.4098300562504,260.01056516295165 260.5000000000001,250.50000000000009 250.50000000000003,250.49999999999986 253.59016994374932,260.01056516295154 261.68033988749903,254.13271264002697 253.5901699437496,248.25486011710197 250.49999999999986,257.76542528005353 260.49999999999994,257.76542528005376 257.4098300562507,248.25486011710206 249.319660112501,254.13271264002665 257.4098300562504,260.01056516295165 260.50000000000017,250.50000000000009 250.50000000000003,250.49999999999983" stroke="black" stroke-linecap="round" stroke-width="1" /><polyline clip-path="url(#border_clip)" fill="none" points="250.50000000000003,250.49999999999983 253.59016994374932,260.01056516295154 261.68033988749903,254.13271264002697 253.5901699437496,248.25486011710197 250.49999999999986,257.76542528005353 260.49999999999994,257.76542528005376 257.4098300562507,248.25486011710206 249.31966011250097,254.13271264002665 257.40983005625037,260.01056516295165 260.50000000000017,250.50000000000009 250.50000000000003,250.49999999999983 253.5901699437493,260.01056516295154 261.68033988749903,254.13271264002697 253.5901699437496,248.25486011710197 250.49999999999986,257.76542528005353 260.49999999999994,257.76542528005376 257.4098300562507,248.25486011710206 249.31966011250097,254.13271264002665 257.40983005625037,260.01056516295165 260.50000000000017,250.50000000000009 250.50000000000003,250.49999999999983 253.5901699437493,260.01056516295154 261.68033988749903,254.13271264002697 253.5901699437496,248.25486011710194 250.49999999999983,257.76542528005353 260.49999999999994,257.7654252800538 257.4098300562507,248.25486011710206 249.31966011250097,254.13271264002663 257.40983005625037,260.01056516295165 260.50000000000017,250.50000000000009 250.50000000000003,250.49999999999983 253.5901699437493,260.01056516295154 261.68033988749903,254.132712640027 253.59016994374963,248.25486011710194 250.49999999999983,257.76542528005353 260.49999999999994,257.7654252800538 257.4098300562507,248.25486011710206 249.31966011250097,254.13271264002663 257.40983005625037,260.01056516295165 260.50000000000017,250.5000000000001 250.50000000000003,250.4999999999998 253.5901699437493,260.01056516295154 261.68033988749903,254.132712640027" stroke="black" stroke-linecap="round" stroke-width="1" /><polyline clip-path="url(#border_clip)" fill="none" points="261.68033988749903,254.132712640027 253.59016994374963,248.25486011710194 250.49999999999983,257.76542528005353 260.49999999999994,257.7654252800538 257.4098300562507,248.25486011710206 249.31966011250097,254.13271264002663 257.40983005625037,260.01056516295165 260.50000000000017,250.5000000000001 250.50000000000006,250.4999999999998 253.5901699437493,260.01056516295154 261.68033988749903,254.132712640027 253.59016994374963,248.25486011710194 250.49999999999983,257.76542528005353 260.49999999999994,257.7654252800538 257.4098300562507,248.25486011710206 249.31966011250097,254.13271264002663 257.40983005625037,260.01056516295165 260.50000000000017,250.5000000000001 250.50000000000006,250.4999999999998 253.59016994374926,260.01056516295154 261.68033988749903,254.132712640027 253.59016994374963,248.25486011710194 250.49999999999983,257.76542528005353 260.49999999999994,257.7654252800538 257.4098300562507,248.25486011710206 249.31966011250097,254.13271264002663 257.40983005625037,260.0105651629517 260.50000000000017,250.5000000000001 250.50000000000006,250.4999999999998 253.59016994374926,260.01056516295154 261.68033988749903,254.132712640027 253.59016994374963,248.25486011710194 250.4999999999998,257.7654252800535 260.49999999999994,257.7654252800538 257.40983005625077,248.25486011710206 249.31966011250097,254.13271264002663 257.40983005625037,260.0105651629517 260.50000000000017,250.5000000000001 250.50000000000006,250.4999999999998 253.59016994374926,260.0105651629516 261.68033988749903,254.13271264002702 253.59016994374963,248.25486011710194 250.4999999999998,257.7654252800535" stroke="black" stroke-linecap="round" stroke-width="1" /><polyline clip-path="url(#border_clip)" fill="none" points="250.4999999999998,257.7654252800535 260.49999999999994,257.7654252800538 257.40983005625077,248.25486011710206 249.31966011250097,254.1327126400266 257.40983005625037,260.0105651629517 260.5000000000002,250.5000000000001 250.50000000000006,250.49999999999977 253.59016994374926,260.0105651629516 261.68033988749903,254.13271264002702 253.59016994374966,248.25486011710194 250.4999999999998,257.7654252800535 260.49999999999994,257.7654252800538 257.40983005625077,248.25486011710206 249.31966011250097,254.1327126400266 257.40983005625037,260.0105651629517 260.5000000000002,250.5000000000001 250.50000000000006,250.49999999999977 253.59016994374926,260.01056516295154 261.68033988749903,254.13271264002702 253.59016994374966,248.2548601171019 250.4999999999998,257.7654252800535 260.49999999999994,257.7654252800538 257.40983005625077,248.25486011710206 249.31966011250097,254.1327126400266 257.40983005625037,260.0105651629517 260.5000000000002,250.5000000000001 250.50000000000006,250.49999999999977 253.59016994374923,260.0105651629516 261.68033988749903,254.13271264002702 253.59016994374966,248.2548601171019 250.4999999999998,257.7654252800535 260.49999999999994,257.7654252800539 257.40983005625077,248.25486011710206 249.31966011250094,254.1327126400266 257.40983005625037,260.0105651629517 260.5000000000002,250.50000000000014 250.50000000000006,250.49999999999977 253.59016994374923,260.0105651629516 261.68033988749903,254.13271264002705 253.59016994374966,248.2548601171019 250.4999999999998,257.7654252800535 260.49999999999994,257.7654252800539 257.40983005625077,248.25486011710206" stroke="black" stroke-linecap="round" stroke-width="1" /><polyline clip-path="url(#border_clip)" fill="none" points="257.40983005625077,248.25486011710206 249.31966011250094,254.1327126400266 257.4098300562503,260.0105651629517 260.5000000000002,250.50000000000014 250.50000000000006,250.49999999999977 253.59016994374923,260.0105651629516 261.68033988749903,254.13271264002705 253.59016994374966,248.2548601171019 250.49999999999977,257.7654252800535 260.49999999999994,257.7654252800539 257.40983005625077,248.25486011710206 249.31966011250094,254.13271264002657 257.4098300562503,260.0105651629517 260.5000000000002,250.50000000000014 250.50000000000006,250.49999999999974 253.59016994374923,260.0105651629516 261.68033988749903,254.13271264002705 253.59016994374966,248.2548601171019 250.49999999999977,257.7654252800535 260.49999999999994,257.7654252800539 257.40983005625077,248.25486011710206 249.31966011250094,254.13271264002657 257.4098300562503,260.0105651629517 260.5000000000002,250.50000000000014 250.50000000000006,250.49999999999974 253.5901699437492,260.0105651629516 261.68033988749903,254.13271264002705 253.5901699437497,248.2548601171019 250.49999999999977,257.7654252800535 260.49999999999994,257.7654252800539 257.40983005625077,248.25486011710206 249.31966011250094,254.13271264002657 257.4098300562503,260.0105651629517 260.5000000000002,250.50000000000014 250.50000000000006,250.49999999999974 253.5901699437492,260.0105651629516 261.68033988749903,254.13271264002705 253.5901699437497,248.25486011710188 250.49999999999977,257.7654252800535 260.49999999999994,257.7654252800539 257.4098300562508,248.25486011710206 249.31966011250094,254.13271264002657 257.4098300562503,260.0105651629517" stroke="black" stroke-linecap="round" stroke-width="1" /><polyline clip-path="url(#border_clip)" fill="none" points="257.4098300562503,260.0105651629517 260.5000000000002,250.50000000000014 250.50000000000006,250.49999999999974 253.5901699437492,260.0105651629516 261.68033988749903,254.13271264002708 253.5901699437497,248.25486011710188 250.49999999999977,257.7654252800535 260.49999999999994,257.7654252800539 257.4098300562508,248.25486011710206 249.31966011250094,254.13271264002654 257.4098300562503,260.0105651629517 260.5000000000002,250.50000000000014 250.50000000000006,250.49999999999972 253.5901699437492,260.0105651629516 261.6803398874991,254.13271264002708 253.5901699437497,248.25486011710188 250.49999999999974,257.7654252800535 260.49999999999994,257.7654252800539 257.4098300562508,248.25486011710206 249.31966011250094,254.13271264002654 257.4098300562503,260.0105651629517 260.5000000000002,250.50000000000017 250.50000000000006,250.49999999999972 253.59016994374917,260.0105651629516 261.6803398874991,254.13271264002708 253.5901699437497,248.25486011710188 250.49999999999974,257.7654252800535 260.49999999999994,257.76542528005393 257.4098300562508,248.25486011710206 249.31966011250094,254.13271264002654 257.4098300562503,260.01056516295176 260.5000000000002,250.50000000000017 250.50000000000006,250.49999999999972 253.59016994374917,260.0105651629516 261.6803398874991,254.13271264002708 253.5901699437497,248.25486011710188 250.49999999999974,257.7654252800535 260.49999999999994,257.76542528005393 257.4098300562508,248.25486011710206 249.31966011250094,254.13271264002654 257.4098300562503,260.01056516295176 260.5000000000003,250.50000000000017 250.50000000000006,250.49999999999972" stroke="black" stroke-linecap="round" stroke-width="1" /><polyline clip-path="url(#border_clip)" fill="none" points="250.50000000000006,250.49999999999972 253.59016994374917,260.0105651629516 261.6803398874991,254.13271264002708 253.59016994374971,248.25486011710188 250.49999999999974,257.7654252800535 260.49999999999994,257.76542528005393 257.4098300562508,248.25486011710206 249.3196601125009,254.1327126400265 257.4098300562503,260.01056516295176 260.5000000000003,250.50000000000017 250.50000000000006,250.4999999999997 253.59016994374917,260.0105651629516 261.6803398874991,254.13271264002708 253.59016994374971,248.25486011710188 250.49999999999972,257.7654252800535 260.49999999999994,257.76542528005393 257.4098300562508,248.25486011710206 249.3196601125009,254.1327126400265 257.40983005625026,260.01056516295176 260.5000000000003,250.50000000000017 250.50000000000006,250.4999999999997 253.59016994374915,260.0105651629516 261.6803398874991,254.1327126400271 253.59016994374971,248.25486011710186 250.49999999999972,257.7654252800534 260.49999999999994,257.76542528005393 257.4098300562508,248.25486011710206 249.3196601125009,254.1327126400265 257.40983005625026,260.01056516295176 260.5000000000003,250.50000000000017 250.50000000000006,250.4999999999997 253.59016994374915,260.0105651629516 261.6803398874991,254.1327126400271 253.59016994374971,248.25486011710186 250.49999999999972,257.7654252800534 260.49999999999994,257.76542528005393 257.4098300562508,248.25486011710206 249.3196601125009,254.1327126400265 257.40983005625026,260.01056516295176 260.5000000000003,250.50000000000017 250.50000000000006,250.4999999999997 253.59016994374915,260.0105651629516 261.6803398874991,254.1327126400271" stroke="black" stroke-linecap="round" stroke-width="1" /><polyline clip-path="url(#border_clip)" fill="none" points="261.6803398874991,254.1327126400271 253.59016994374971,248.25486011710186 250.49999999999972,257.7654252800534 260.49999999999994,257.76542528005393 257.4098300562509,248.25486011710206 249.3196601125009,254.13271264002648 257.40983005625026,260.01056516295176 260.5000000000003,250.50000000000017 250.50000000000006,250.49999999999966 253.59016994374915,260.0105651629516 261.6803398874991,254.1327126400271 253.59016994374971,248.25486011710186 250.4999999999997,257.7654252800534 260.49999999999994,257.76542528005393 257.4098300562509,248.25486011710206 249.3196601125009,254.13271264002648 257.40983005625026,260.01056516295176 260.5000000000003,250.50000000000017 250.50000000000006,250.49999999999966 253.59016994374912,260.0105651629516 261.6803398874991,254.13271264002714 253.59016994374974,248.25486011710186 250.4999999999997,257.7654252800534 260.49999999999994,257.76542528005393 257.4098300562509,248.25486011710203 249.3196601125009,254.13271264002648 257.40983005625026,260.01056516295176 260.5000000000003,250.50000000000017 250.50000000000006,250.49999999999966 253.59016994374912,260.0105651629516 261.6803398874991,254.13271264002714 253.59016994374974,248.25486011710183 250.4999999999997,257.7654252800534 260.4999999999999,257.76542528005393 257.4098300562509,248.25486011710203 249.31966011250088,254.13271264002648 257.40983005625026,260.01056516295176 260.5000000000003,250.50000000000017 250.50000000000006,250.49999999999966 253.59016994374912,260.0105651629516 261.6803398874991,254.13271264002714 253.59016994374974,248.25486011710183 250.4999999999997,257.7654252800534" stroke="black" stroke-linecap="round" stroke-width="1" /><polyline clip-path="url(#border_clip)" fill="none" points="250.4999999999997,257.7654252800534 260.4999999999999,257.765425280054 257.4098300562509,248.25486011710203 249.31966011250088,254.13271264002648 257.40983005625026,260.01056516295176 260.5000000000003,250.50000000000017 250.50000000000006,250.49999999999963 253.5901699437491,260.0105651629516 261.6803398874991,254.13271264002714 253.59016994374974,248.25486011710183 250.49999999999966,257.7654252800534 260.4999999999999,257.765425280054 257.4098300562509,248.25486011710203 249.31966011250088,254.13271264002645 257.40983005625026,260.01056516295176 260.50000000000034,250.5000000000002 250.50000000000006,250.49999999999963 253.5901699437491,260.0105651629516 261.6803398874991,254.13271264002714 253.59016994374974,248.25486011710183 250.49999999999966,257.7654252800534 260.4999999999999,257.765425280054 257.4098300562509,248.25486011710203 249.31966011250088,254.13271264002645 257.40983005625026,260.0105651629518 260.50000000000034,250.5000000000002 250.50000000000006,250.49999999999963 253.5901699437491,260.0105651629516 261.6803398874991,254.13271264002717 253.59016994374974,248.25486011710183 250.49999999999966,257.7654252800534 260.4999999999999,257.765425280054 257.4098300562509,248.25486011710203 249.31966011250088,254.13271264002645 257.4098300562502,260.0105651629518 260.50000000000034,250.5000000000002 250.50000000000006,250.49999999999963 253.59016994374906,260.0105651629516 261.6803398874991,254.13271264002717 253.59016994374974,248.25486011710183 250.49999999999966,257.7654252800534 260.4999999999999,257.765425280054 257.4098300562509,248.25486011710203" stroke="black" stroke-linecap="round" stroke-width="1" /><polyline clip-path="url(#border_clip)" fill="none" points="257.4098300562509,248.25486011710203 249.31966011250088,254.13271264002645 257.4098300562502,260.0105651629518 260.50000000000034,250.5000000000002 250.50000000000006,250.49999999999963 253.59016994374906,260.0105651629516 261.6803398874991,254.13271264002717 253.59016994374974,248.25486011710183 250.49999999999963,257.7654252800534 260.4999999999999,257.765425280054 257.4098300562509,248.25486011710203 249.31966011250088,254.13271264002645 257.4098300562502,260.0105651629518 260.50000000000034,250.5000000000002 250.50000000000006,250.4999999999996 253.59016994374906,260.0105651629516 261.6803398874991,254.13271264002717 253.59016994374977,248.2548601171018 250.49999999999963,257.7654252800534 260.4999999999999,257.765425280054 257.40983005625094,248.25486011710203 249.31966011250088,254.13271264002643 257.4098300562502,260.0105651629518 260.50000000000034,250.5000000000002 250.50000000000009,250.4999999999996 253.59016994374906,260.0105651629516 261.6803398874991,254.1327126400272 253.59016994374977,248.2548601171018 250.49999999999963,257.7654252800534 260.4999999999999,257.765425280054 257.40983005625094,248.25486011710203 249.31966011250086,254.13271264002643 257.4098300562502,260.0105651629518 260.50000000000034,250.50000000000023 250.50000000000009,250.4999999999996 253.59016994374903,260.0105651629516 261.6803398874991,254.1327126400272 253.59016994374977,248.2548601171018 250.49999999999963,257.7654252800534 260.4999999999999,257.76542528005405 257.40983005625094,248.25486011710203 249.31966011250086,254.13271264002643 257.4098300562502,260.0105651629518" stroke="black" stroke-linecap="round" stroke-width="1" /><polyline clip-path="url(#border_clip)" fill="none" points="257.4098300562502,260.0105651629518 260.50000000000034,250.50000000000023 250.50000000000009,250.49999999999957 253.59016994374903,260.0105651629516 261.6803398874991,254.1327126400272 253.59016994374977,248.2548601171018 250.4999999999996,257.7654252800534 260.4999999999999,257.76542528005405 257.40983005625094,248.25486011710203 249.31966011250086,254.13271264002643 257.4098300562502,260.0105651629518 260.50000000000034,250.50000000000023 250.50000000000006,250.49999999999957 253.59016994374903,260.0105651629516 261.6803398874991,254.1327126400272 253.59016994374977,248.2548601171018 250.4999999999996,257.7654252800534 260.4999999999999,257.76542528005405 257.40983005625094,248.25486011710203 249.31966011250086,254.1327126400264 257.4098300562502,260.0105651629518 260.50000000000034,250.50000000000023 250.50000000000009,250.49999999999957 253.590169943749,260.0105651629516 261.6803398874991,254.13271264002722 253.59016994374977,248.25486011710177 250.4999999999996,257.76542528005336 260.4999999999999,257.76542528005405 257.40983005625094,248.25486011710203 249.31966011250086,254.1327126400264 257.40983005625014,260.0105651629518 260.50000000000034,250.50000000000023 250.50000000000009,250.49999999999957 253.590169943749,260.0105651629516 261.6803398874991,254.13271264002722 253.5901699437498,248.25486011710177 250.4999999999996,257.76542528005336 260.4999999999999,257.76542528005405 257.40983005625094,248.25486011710203 249.31966011250086,254.1327126400264 257.40983005625014,260.0105651629518 260.50000000000034,250.50000000000023 250.50000000000009,250.49999999999957" stroke="black" stroke-linecap="round" stroke-width="1" /><polyline clip-path="url(#border_clip)" fill="none" points="250.50000000000009,250.49999999999957 253.590169943749,260.0105651629516 261.6803398874991,254.13271264002722 253.5901699437498,248.25486011710177 250.49999999999957,257.76542528005336 260.4999999999999,257.76542528005405 257.40983005625094,248.25486011710203 249.31966011250086,254.1327126400264 257.40983005625014,260.0105651629518 260.5000000000004,250.50000000000023 250.50000000000009,250.49999999999955 253.590169943749,260.0105651629516 261.6803398874991,254.13271264002722 253.5901699437498,248.25486011710177 250.49999999999957,257.76542528005336 260.4999999999999,257.76542528005405 257.40983005625094,248.25486011710203 249.31966011250086,254.13271264002637 257.40983005625014,260.0105651629518 260.5000000000004,250.50000000000023 250.50000000000009,250.49999999999955 253.59016994374898,260.0105651629516 261.6803398874991,254.13271264002722 253.5901699437498,248.25486011710177 250.49999999999957,257.76542528005336 260.4999999999999,257.76542528005405 257.409830056251,248.25486011710203 249.31966011250083,254.13271264002637 257.40983005625014,260.0105651629519 260.5000000000004,250.50000000000023 250.50000000000009,250.49999999999955 253.59016994374898,260.0105651629516 261.68033988749914,254.13271264002725 253.5901699437498,248.25486011710177 250.49999999999957,257.76542528005336 260.4999999999999,257.7654252800541 257.409830056251,248.25486011710203 249.31966011250083,254.13271264002637 257.40983005625014,260.0105651629519 260.5000000000004,250.50000000000026 250.50000000000009,250.49999999999955 253.59016994374898,260.0105651629516 261.68033988749914,254.13271264002725" stroke="black" stroke-linecap="round" stroke-width="1" /><polyline clip-path="url(#border_clip)" fill="none" points="261.68033988749914,254.13271264002725 253.5901699437498,248.25486011710177 250.49999999999957,257.76542528005336 260.4999999999999,257.7654252800541 257.409830056251,248.25486011710203 249.31966011250083,254.13271264002637 257.40983005625014,260.0105651629519 260.5000000000004,250.50000000000026 250.50000000000009,250.49999999999952 253.59016994374898,260.0105651629516 261.68033988749914,254.13271264002725 253.59016994374983,248.25486011710174 250.49999999999955,257.76542528005336 260.4999999999999,257.7654252800541 257.409830056251,248.25486011710203 249.31966011250083,254.13271264002637 257.40983005625014,260.0105651629519 260.5000000000004,250.50000000000026 250.50000000000009,250.49999999999952 253.59016994374895,260.0105651629516 261.68033988749914,254.13271264002725 253.59016994374983,248.25486011710174 250.49999999999955,257.76542528005336 260.4999999999999,257.7654252800541 257.409830056251,248.25486011710203 249.31966011250083,254.13271264002634 257.40983005625014,260.0105651629519 260.5000000000004,250.50000000000026 250.50000000000009,250.49999999999952 253.59016994374895,260.0105651629516 261.68033988749914,254.13271264002728 253.59016994374983,248.25486011710174 250.49999999999955,257.76542528005336 260.4999999999999,257.7654252800541 257.409830056251,248.25486011710203 249.31966011250083,254.13271264002634 257.40983005625014,260.0105651629519 260.5000000000004,250.50000000000026 250.50000000000009,250.4999999999995 253.59016994374895,260.0105651629516 261.68033988749914,254.13271264002728 253.59016994374983,248.25486011710174 250.49999999999955,257.76542528005336" stroke="black" stroke-linecap="round" stroke-width="1" /><polyline clip-path="url(#border_clip)" fill="none" points="250.49999999999955,257.76542528005336 260.4999999999999,257.7654252800541 257.409830056251,248.25486011710203 249.31966011250083,254.13271264002634 257.4098300562501,260.0105651629519 260.5000000000004,250.50000000000026 250.50000000000009,250.4999999999995 253.59016994374892,260.0105651629516 261.68033988749914,254.13271264002728 253.59016994374983,248.25486011710174 250.49999999999952,257.76542528005336 260.4999999999999,257.7654252800541 257.409830056251,248.25486011710203 249.31966011250083,254.13271264002634 257.4098300562501,260.0105651629519 260.50000000000045,250.50000000000026 250.50000000000009,250.4999999999995 253.59016994374892,260.0105651629516 261.68033988749914,254.13271264002728 253.59016994374986,248.2548601171017 250.49999999999952,257.76542528005336 260.4999999999999,257.7654252800541 257.40983005625105,248.25486011710203 249.31966011250083,254.1327126400263 257.4098300562501,260.0105651629519 260.50000000000045,250.50000000000028 250.50000000000009,250.4999999999995 253.59016994374892,260.0105651629516 261.68033988749914,254.1327126400273 253.59016994374986,248.2548601171017 250.49999999999952,257.76542528005336 260.4999999999999,257.76542528005416 257.40983005625105,248.25486011710203 249.31966011250083,254.1327126400263 257.4098300562501,260.0105651629519 260.50000000000045,250.50000000000028 250.50000000000009,250.4999999999995 253.59016994374892,260.0105651629516 261.68033988749914,254.1327126400273 253.59016994374986,248.2548601171017 250.49999999999952,257.76542528005336 260.4999999999999,257.76542528005416 257.40983005625105,248.25486011710203" stroke="black" stroke-linecap="round" stroke-width="1" /><polyline clip-path="url(#border_clip)" fill="none" points="257.40983005625105,248.25486011710203 249.3196601125008,254.1327126400263 257.4098300562501,260.0105651629519 260.50000000000045,250.50000000000028 250.50000000000009,250.49999999999946 253.59016994374892,260.0105651629516 261.68033988749914,254.1327126400273 253.59016994374986,248.2548601171017 250.4999999999995,257.7654252800533 260.49999999999983,257.76542528005416 257.40983005625105,248.25486011710203 249.3196601125008,254.1327126400263 257.4098300562501,260.0105651629519 260.50000000000045,250.50000000000028 250.50000000000009,250.49999999999946 253.5901699437489,260.0105651629516 261.68033988749914,254.1327126400273 253.59016994374986,248.2548601171017 250.4999999999995,257.7654252800533 260.49999999999983,257.76542528005416 257.40983005625105,248.25486011710203 249.3196601125008,254.13271264002628 257.4098300562501,260.01056516295193 260.50000000000045,250.50000000000028 250.50000000000009,250.49999999999946 253.5901699437489,260.0105651629516 261.68033988749914,254.1327126400273 253.59016994374986,248.2548601171017 250.4999999999995,257.7654252800533 260.49999999999983,257.76542528005416 257.40983005625105,248.25486011710203 249.3196601125008,254.13271264002628 257.4098300562501,260.01056516295193 260.50000000000045,250.50000000000028 250.5000000000001,250.49999999999946 253.5901699437489,260.0105651629516 261.68033988749914,254.13271264002734 253.59016994374988,248.2548601171017 250.4999999999995,257.7654252800533 260.49999999999983,257.76542528005416 257.40983005625105,248.25486011710203 249.3196601125008,254.13271264002628 257.4098300562501,260.01056516295193" stroke="black" stroke-linecap="round" stroke-width="1" /><polyline clip-path="url(#border_clip)" fill="none" points="257.4098300562501,260.01056516295193 260.50000000000045,250.50000000000028 250.5000000000001,250.49999999999943 253.5901699437489,260.0105651629516 261.68033988749914,254.13271264002734 253.59016994374988,248.25486011710169 250.4999999999995,257.7654252800533 260.49999999999983,257.76542528005416 257.40983005625105,248.25486011710203 249.3196601125008,254.13271264002628 257.4098300562501,260.01056516295193 260.50000000000045,250.50000000000028 250.5000000000001,250.49999999999943 253.5901699437489,260.0105651629516 261.68033988749914,254.13271264002734 253.59016994374988,248.25486011710169 250.4999999999995,257.7654252800533 260.49999999999983,257.76542528005416 257.4098300562511,248.25486011710203 249.3196601125008,254.13271264002626 257.4098300562501,260.01056516295193 260.5000000000005,250.50000000000028 250.5000000000001,250.49999999999943 253.5901699437489,260.0105651629516 261.68033988749914,254.13271264002734 253.5901699437499,248.25486011710169 250.4999999999995,257.7654252800533 260.49999999999983,257.76542528005416 257.4098300562511,248.25486011710203 249.3196601125008,254.13271264002626 257.4098300562501,260.01056516295193 260.5000000000005,250.50000000000028 250.5000000000001,250.49999999999943 253.59016994374886,260.0105651629516 261.68033988749914,254.13271264002734 253.5901699437499,248.25486011710169 250.4999999999995,257.7654252800533 260.49999999999983,257.76542528005416 257.4098300562511,248.25486011710203 249.3196601125008,254.13271264002626 257.4098300562501,260.01056516295193 260.5000000000005,250.5000000000003 250.5000000000001,250.4999999999994" stroke="black" stroke-linecap="round" stroke-width="1" /><polyline clip-path="url(#border_clip)" fill="none" points="250.5000000000001,250.4999999999994 253.59016994374886,260.0105651629516 261.68033988749914,254.13271264002736 253.5901699437499,248.25486011710169 250.49999999999946,257.7654252800533 260.49999999999983,257.7654252800542 257.4098300562511,248.25486011710203 249.3196601125008,254.13271264002626 257.40983005625003,260.01056516295193 260.5000000000005,250.5000000000003 250.5000000000001,250.4999999999994 253.59016994374886,260.0105651629516 261.68033988749914,254.13271264002736 253.5901699437499,248.25486011710169 250.49999999999946,257.7654252800533 260.49999999999983,257.7654252800542 257.4098300562511,248.25486011710203 249.3196601125008,254.13271264002623 257.40983005625003,260.01056516295193 260.5000000000005,250.5000000000003 250.5000000000001,250.4999999999994 253.59016994374886,260.0105651629516 261.68033988749914,254.13271264002736 253.5901699437499,248.25486011710166 250.49999999999946,257.7654252800533 260.49999999999983,257.7654252800542 257.4098300562511,248.25486011710203 249.3196601125008,254.13271264002623 257.40983005625003,260.01056516295193 260.5000000000005,250.5000000000003 250.5000000000001,250.4999999999994 253.59016994374883,260.0105651629516 261.68033988749914,254.13271264002736 253.5901699437499,248.25486011710166 250.49999999999946,257.7654252800533 260.49999999999983,257.7654252800542 257.4098300562511,248.25486011710203 249.3196601125008,254.13271264002623 257.40983005625003,260.01056516295193 260.5000000000005,250.5000000000003 250.5000000000001,250.49999999999937 253.59016994374883,260.0105651629516 261.68033988749914,254.13271264002736" stroke="black" stroke-linecap="round" stroke-width="1" /><polyline clip-path="url(#border_clip)" fill="none" points="261.68033988749914,254.13271264002736 253.59016994374994,248.25486011710166 250.49999999999946,257.76542528005325 260.49999999999983,257.7654252800542 257.4098300562511,248.25486011710203 249.3196601125008,254.13271264002623 257.40983005625003,260.01056516295193 260.5000000000005,250.5000000000003 250.5000000000001,250.49999999999937 253.59016994374883,260.0105651629516 261.6803398874992,254.1327126400274 253.59016994374994,248.25486011710166 250.49999999999943,257.76542528005325 260.49999999999983,257.7654252800542 257.40983005625117,248.25486011710203 249.3196601125008,254.13271264002623 257.40983005625003,260.01056516295193 260.5000000000005,250.5000000000003 250.5000000000001,250.49999999999937 253.59016994374883,260.0105651629516 261.6803398874992,254.1327126400274 253.59016994374994,248.25486011710166 250.49999999999943,257.76542528005325 260.49999999999983,257.7654252800542 257.40983005625117,248.25486011710203 249.31966011250077,254.1327126400262 257.40983005625003,260.01056516295193 260.5000000000005,250.50000000000034 250.5000000000001,250.49999999999937 253.5901699437488,260.0105651629516 261.6803398874992,254.1327126400274 253.59016994374994,248.25486011710166 250.49999999999943,257.76542528005325 260.49999999999983,257.7654252800542 257.40983005625117,248.25486011710203 249.31966011250077,254.1327126400262 257.40983005625003,260.01056516295193 260.5000000000005,250.50000000000034 250.5000000000001,250.49999999999937 253.5901699437488,260.0105651629516 261.6803398874992,254.1327126400274 253.59016994374994,248.25486011710166 250.49999999999943,257.76542528005325" stroke="black" stroke-linecap="round" stroke-width="1" /><polyline clip-path="url(#border_clip)" fill="none" points="250.49999999999943,257.76542528005325 260.49999999999983,257.7654252800542 257.40983005625117,248.25486011710203 249.31966011250077,254.1327126400262 257.40983005625003,260.01056516295193 260.50000000000057,250.50000000000034 250.50000000000014,250.49999999999935 253.5901699437488,260.0105651629516 261.6803398874992,254.13271264002742 253.59016994374994,248.25486011710166 250.4999999999994,257.76542528005325 260.49999999999983,257.7654252800543 257.40983005625117,248.25486011710203 249.31966011250077,254.1327126400262 257.40983005625003,260.010565162952 260.50000000000057,250.50000000000034 250.50000000000014,250.49999999999935 253.5901699437488,260.0105651629516 261.6803398874992,254.13271264002742 253.59016994374997,248.25486011710163 250.4999999999994,257.76542528005325 260.49999999999983,257.7654252800543 257.40983005625117,248.25486011710203 249.31966011250077,254.1327126400262 257.40983005625,260.010565162952 260.50000000000057,250.50000000000034 250.50000000000014,250.49999999999935 253.59016994374878,260.0105651629516 261.6803398874992,254.13271264002742 253.59016994374997,248.25486011710163 250.4999999999994,257.76542528005325 260.49999999999983,257.7654252800543 257.40983005625117,248.25486011710203 249.31966011250077,254.13271264002617 257.40983005625,260.010565162952 260.50000000000057,250.50000000000034 250.50000000000014,250.49999999999935" stroke="black" stroke-linecap="round" stroke-width="1" /></svg>