<?xml version="1.0" encoding="UTF-8"?>
<svg width="1e4px" height="1e4px" baseProfile="full" version="1.1" viewBox="5000.5 4249.2 254.12 751.33" xmlns="http://www.w3.org/2000/svg">
<defs>
<clipPath id="a">
<rect width="1e4" height="1e4"/>
</clipPath>
</defs>
<polyline points="5000.5 5000.5 5010.5 5000.5 5013.6 4991 5016.7 4981.5 5019.8 4972 5022.9 4962.5 5026 4952.9 5029 4943.4 5032.1 4933.9 5035.2 4924.4 5038.3 4914.9 5041.4 4905.4 5044.5 4895.9 5047.6 4886.4 5050.7 4876.9 5053.8 4867.4 5056.9 4857.8 5059.9 4848.3 5063 4838.8 5066.1 4829.3 5069.2 4819.8 5072.3 4810.3 5075.4 4800.8 5078.5 4791.3 5081.6 4781.8 5084.7 4772.2 5087.8 4762.7 5090.8 4753.2 5093.9 4743.7 5097 4734.2 5100.1 4724.7 5103.2 4715.2 5106.3 4705.7 5109.4 4696.2 5112.5 4686.7 5115.6 4677.1 5118.7 4667.6 5121.7 4658.1 5124.8 4648.6 5127.9 4639.1 5131 4629.6 5134.1 4620.1 5137.2 4610.6" clip-path="url(#a)" fill="none" stroke="#000" stroke-linecap="round"/>
<polyline points="5137.2 4610.6 5140.3 4601.1 5143.4 4591.5 5146.5 4582 5149.6 4572.5 5152.6 4563 5155.7 4553.5 5158.8 4544 5161.9 4534.5 5165 4525 5168.1 4515.5 5171.2 4506 5174.3 4496.4 5177.4 4486.9 5180.5 4477.4 5183.5 4467.9 5186.6 4458.4 5189.7 4448.9 5192.8 4439.4 5195.9 4429.9 5199 4420.4 5202.1 4410.8 5205.2 4401.3 5208.3 4391.8 5211.4 4382.3 5214.5 4372.8 5217.5 4363.3 5220.6 4353.8 5223.7 4344.3 5226.8 4334.8 5229.9 4325.2 5233 4315.7 5236.1 4306.2 5239.2 4296.7 5242.3 4287.2 5245.4 4277.7 5248.4 4268.2 5251.5 4258.7 5254.6 4249.2" clip-path="url(#a)" fill="none" stroke="#000" stroke-linecap="round"/>
</svg>
