<?xml version="1.0" encoding="utf-8" ?>
<svg baseProfile="full" height="1000px" version="1.1" width="1000px" xmlns="http://www.w3.org/2000/svg" xmlns:ev="http://www.w3.org/2001/xml-events" xmlns:xlink="http://www.w3.org/1999/xlink"><defs><clipPath id="border_clip"><rect height="1000" width="1000" x="0" y="0" /></clipPath></defs><polyline clip-path="url(#border_clip)" fill="none" points="500.5,500.5 510.5,500.5 520.5,500.5 530.5,500.5 540.5,500.5 550.5,500.5 560.5,500.5 570.5,500.5 580.5,500.5 590.5,500.5 600.5,500.5 610.5,500.5 620.5,500.5 630.5,500.5 640.5,500.5 650.5,500.5 660.5,500.5 670.5,500.5 680.5,500.5 690.5,500.5 700.5,500.5 710.5,500.5 720.5,500.5 730.5,500.5 740.5,500.5 750.5,500.5 760.5,500.5 770.5,500.5 780.5,500.5 790.5,500.5 800.5,500.5 810.5,500.5 820.5,500.5 830.5,500.5 840.5,500.5 850.5,500.5 860.5,500.5 870.5,500.5 880.5,500.5 890.5,500.5 900.5,500.5 910.5,500.5 920.5,500.5" stroke="black" stroke-linecap="round" stroke-width="1" /><polyline clip-path="url(#border_clip)" fill="none" points="920.5,500.5 930.5,500.5 940.5,500.5 950.5,500.5 960.5,500.5 970.5,500.5 980.5,500.5 990.5,500.5 1000.5,500.5 1010.5,500.5 1020.5,500.5 1030.5,500.5 1040.5,500.5 1050.5,500.5 1060.5,500.5 1070.5,500.5 1080.5,500.5 1090.5,500.5 1100.5,500.5 1110.5,500.5 1120.5,500.5 1130.5,500.5 1140.5,500.5 1150.5,500.5 1160.5,500.5 1170.5,500.5 1180.5,500.5 1190.5,500.5 1200.5,500.5 1210.5,500.5 1220.5,500.5 1230.5,500.5 1240.5,500.5 1250.5,500.5 1260.5,500.5 1270.5,500.5 1280.5,500.5 1290.5,500.5 1300.5,500.5" stroke="black" stroke-linecap="round" stroke-width="1" /></svg>