<?xml version="1.0" encoding="utf-8" ?>
<svg baseProfile="full" height="10000px" version="1.1" width="10000px" xmlns="http://www.w3.org/2000/svg" xmlns:ev="http://www.w3.org/2001/xml-events" xmlns:xlink="http://www.w3.org/1999/xlink"><defs><clipPath id="border_clip"><rect height="10000" width="10000" x="0" y="0" /></clipPath></defs><polyline clip-path="url(#border_clip)" fill="none" points="5000.5,5000.5 5010.5,5000.5 5020.5,5000.5 5028.590169943749,4994.6221474770755 5036.680339887499,5000.5 5033.590169943749,5010.010565162952 5030.5,5000.5 5040.5,5000.5 5048.590169943749,5006.3778525229245 5056.680339887499,5000.5 5046.680339887499,5000.5 5056.680339887499,5000.5 5059.770509831248,4990.989434837048 5069.770509831248,4990.989434837048 5066.680339887499,4981.478869674097 5063.590169943749,4971.968304511145 5055.5,4966.090451988221 5058.59016994375,4956.57988682527 5068.59016994375,4956.57988682527 5060.5,4962.457739348194 5057.409830056251,4952.947174185242 5060.5,4943.436609022291 5052.409830056251,4937.558756499366 5055.5,4947.069321662318 5052.409830056251,4937.558756499366 5042.409830056251,4937.558756499366 5039.319660112501,4928.048191336415 5031.229490168752,4933.926043859339 5023.139320225002,4939.803896382264 5020.049150281253,4949.314461545216 5010.049150281253,4949.314461545216 5006.958980337503,4939.803896382264 5015.049150281253,4945.681748905188 5006.958980337503,4951.559601428114 4996.958980337503,4951.559601428114 4993.868810393754,4961.070166591065 5001.958980337503,4955.19231406814 4993.868810393754,4961.070166591065 4996.958980337503,4970.580731754017 4988.868810393754,4976.458584276941 4996.958980337503,4982.336436799866 5005.049150281253,4988.21428932279 5015.049150281253,4988.214289322791" stroke="black" stroke-linecap="round" stroke-width="1" /><polyline clip-path="url(#border_clip)" fill="none" points="5015.049150281253,4988.214289322791 5018.139320225002,4997.724854485742 5010.049150281253,5003.602707008667 5013.139320225002,4994.092141845716 5021.229490168751,4999.96999436864 5024.319660112501,5009.480559531592 5034.319660112501,5009.480559531592 5026.229490168751,5003.602707008667 5034.319660112501,5009.480559531592 5042.40983005625,5003.602707008667 5050.5,5009.480559531592 5053.590169943749,4999.96999436864 5056.680339887499,4990.459429205689 5053.590169943749,4980.948864042737 5061.680339887499,4975.071011519813 5069.770509831248,4980.948864042737 5059.770509831248,4980.948864042737 5062.860679774998,4971.438298879786 5070.950849718747,4965.560446356861 5067.860679774998,4956.04988119391 5064.770509831249,4965.560446356861 5067.860679774998,4956.04988119391 5059.770509831249,4950.172028670985 5062.860679774998,4940.661463508033 5052.860679774998,4940.661463508033 5042.860679774998,4940.661463508033 5034.770509831249,4946.539316030958 5026.680339887499,4940.661463508033 5029.770509831249,4931.150898345081 5032.860679774998,4940.661463508033 5022.860679774998,4940.661463508033 5014.770509831249,4934.783610985108 5006.680339887499,4940.661463508032 5016.680339887499,4940.661463508033 5006.680339887499,4940.661463508032 5003.59016994375,4950.172028670984 4993.59016994375,4950.172028670984 4996.680339887499,4959.682593833936 4999.770509831248,4969.193158996887 5007.860679774998,4975.071011519812 5004.770509831248,4984.581576682764 4994.770509831248,4984.581576682764 5002.860679774998,4978.703724159839" stroke="black" stroke-linecap="round" stroke-width="1" /><polyline clip-path="url(#border_clip)" fill="none" points="5002.860679774998,4978.703724159839 5005.950849718747,4988.21428932279 5002.860679774998,4997.724854485742 5010.950849718747,5003.602707008667 5007.860679774998,4994.092141845716 5010.950849718747,5003.602707008667 5020.950849718747,5003.602707008667 5024.041019662496,5013.1132721716185 5032.131189606246,5007.235419648694 5040.221359549995,5001.3575671257695 5043.311529493745,4991.847001962818 5053.311529493745,4991.847001962818 5056.401699437494,5001.3575671257695 5048.311529493745,4995.479714602845 5056.401699437494,4989.60186207992 5066.401699437494,4989.6018620799205 5069.491869381244,4980.0912969169685 5061.401699437494,4985.969149439893 5069.491869381244,4980.0912969169685 5066.401699437495,4970.580731754017 5074.491869381244,4964.702879231092 5066.401699437495,4958.825026708168 5058.311529493745,4952.947174185243 5048.311529493745,4952.947174185242 5045.221359549996,4943.436609022291 5053.311529493746,4937.558756499367 5050.221359549996,4947.069321662318 5042.131189606247,4941.191469139393 5039.041019662497,4931.680903976441 5029.041019662497,4931.680903976441 5037.131189606247,4937.558756499366 5029.041019662497,4931.680903976441 5020.950849718748,4937.558756499366 5012.860679774998,4931.680903976441 5009.770509831249,4941.191469139392 5006.680339887499,4950.702034302344 5009.770509831249,4960.212599465295 5001.680339887499,4966.090451988221 4993.59016994375,4960.212599465295 5003.59016994375,4960.212599465295 5000.5,4969.723164628247 4992.40983005625,4975.601017151172 4995.5,4985.111582314124" stroke="black" stroke-linecap="round" stroke-width="1" /><polyline clip-path="url(#border_clip)" fill="none" points="4995.5,4985.111582314124 4998.590169943749,4975.601017151172 4995.5,4985.111582314124 5003.590169943749,4990.989434837048 5000.499999999999,5000.499999999999 5010.499999999999,5000.5 5020.499999999999,5000.5 5028.590169943749,4994.6221474770755 5036.680339887498,5000.5 5033.590169943749,5010.010565162952 5030.5,5000.5 5040.5,5000.5 5048.590169943749,5006.377852522925 5056.680339887498,5000.5 5046.680339887498,5000.5 5056.680339887498,5000.5 5059.770509831248,4990.989434837049 5069.770509831248,4990.989434837049 5066.680339887499,4981.478869674098 5063.59016994375,4971.968304511146 5055.5,4966.090451988221 5058.59016994375,4956.57988682527 5068.59016994375,4956.57988682527 5060.5,4962.457739348194 5057.409830056251,4952.947174185243 5060.500000000001,4943.436609022291 5052.409830056251,4937.558756499367 5055.500000000001,4947.069321662318 5052.409830056251,4937.558756499367 5042.409830056251,4937.558756499366 5039.319660112502,4928.048191336415 5031.229490168752,4933.926043859339 5023.139320225003,4939.803896382264 5020.049150281253,4949.314461545216 5010.049150281253,4949.314461545215 5006.958980337504,4939.803896382264 5015.049150281253,4945.681748905188 5006.958980337504,4951.559601428113 4996.958980337504,4951.559601428113 4993.868810393754,4961.070166591064 5001.958980337504,4955.192314068139 4993.868810393754,4961.070166591064 4996.958980337503,4970.580731754016" stroke="black" stroke-linecap="round" stroke-width="1" /><polyline clip-path="url(#border_clip)" fill="none" points="4996.958980337503,4970.580731754016 4988.868810393754,4976.45858427694 4996.958980337503,4982.336436799866 5005.049150281252,4988.21428932279 5015.049150281252,4988.21428932279 5018.139320225002,4997.724854485742 5010.049150281252,5003.602707008667 5013.139320225002,4994.092141845715 5021.229490168751,4999.96999436864 5024.3196601125,5009.480559531592 5034.3196601125,5009.480559531592 5026.229490168751,5003.602707008667 5034.3196601125,5009.480559531592 5042.40983005625,5003.6027070086675 5050.499999999999,5009.480559531592 5053.590169943749,4999.969994368641 5056.680339887499,4990.459429205689 5053.590169943749,4980.948864042737 5061.680339887499,4975.071011519813 5069.770509831248,4980.948864042738 5059.770509831248,4980.948864042738 5062.860679774998,4971.438298879786 5070.950849718748,4965.560446356862 5067.860679774998,4956.04988119391 5064.770509831249,4965.560446356862 5067.860679774998,4956.04988119391 5059.770509831249,4950.172028670985 5062.860679774999,4940.661463508033 5052.860679774999,4940.661463508033 5042.860679774999,4940.661463508033 5034.770509831249,4946.539316030958 5026.6803398875,4940.661463508033 5029.770509831249,4931.150898345081 5032.860679774999,4940.661463508033 5022.860679774999,4940.661463508032 5014.770509831249,4934.783610985108 5006.6803398875,4940.661463508032 5016.6803398875,4940.661463508032 5006.6803398875,4940.661463508032 5003.59016994375,4950.172028670984 4993.59016994375,4950.172028670983 4996.680339887499,4959.682593833935 4999.770509831248,4969.193158996887" stroke="black" stroke-linecap="round" stroke-width="1" /><polyline clip-path="url(#border_clip)" fill="none" points="4999.770509831248,4969.193158996887 5007.860679774998,4975.071011519812 5004.770509831248,4984.581576682764 4994.770509831248,4984.581576682763 5002.860679774998,4978.703724159838 5005.950849718747,4988.21428932279 5002.860679774997,4997.724854485741 5010.950849718746,5003.602707008667 5007.860679774997,4994.092141845715 5010.950849718746,5003.602707008667 5020.950849718746,5003.602707008667 5024.041019662495,5013.1132721716185 5032.131189606245,5007.235419648694 5040.221359549995,5001.3575671257695 5043.311529493745,4991.847001962818 5053.311529493745,4991.8470019628185 5056.401699437494,5001.3575671257695 5048.311529493744,4995.479714602845 5056.401699437494,4989.6018620799205 5066.401699437494,4989.6018620799205 5069.491869381244,4980.091296916969 5061.401699437494,4985.969149439894 5069.491869381244,4980.091296916969 5066.401699437495,4970.5807317540175 5074.491869381244,4964.702879231093 5066.401699437495,4958.825026708168 5058.311529493746,4952.947174185243 5048.311529493746,4952.947174185243 5045.221359549997,4943.436609022291 5053.311529493746,4937.558756499367 5050.221359549996,4947.069321662318 5042.131189606247,4941.191469139393 5039.041019662498,4931.680903976441 5029.041019662498,4931.680903976441 5037.131189606247,4937.558756499366 5029.041019662498,4931.680903976441 5020.950849718748,4937.558756499366 5012.860679774999,4931.68090397644 5009.770509831249,4941.191469139392 5006.6803398875,4950.702034302343 5009.770509831249,4960.212599465295 5001.680339887499,4966.09045198822 4993.59016994375,4960.212599465294" stroke="black" stroke-linecap="round" stroke-width="1" /><polyline clip-path="url(#border_clip)" fill="none" points="4993.59016994375,4960.212599465294 5003.59016994375,4960.212599465295 5000.5,4969.723164628246 4992.40983005625,4975.601017151171 4995.499999999999,4985.111582314123 4998.590169943749,4975.601017151171 4995.499999999999,4985.111582314123 5003.590169943749,4990.989434837047 5000.499999999999,5000.499999999999 5010.499999999999,5000.499999999999 5020.499999999999,5000.5 5028.590169943749,4994.6221474770755 5036.680339887498,5000.5 5033.590169943748,5010.010565162952 5030.499999999999,5000.5 5040.499999999999,5000.5 5048.590169943748,5006.377852522925 5056.680339887498,5000.500000000001 5046.680339887498,5000.500000000001 5056.680339887498,5000.500000000001 5059.770509831248,4990.989434837049 5069.770509831248,4990.98943483705 5066.680339887499,4981.478869674098 5063.59016994375,4971.968304511146 5055.5,4966.0904519882215 5058.59016994375,4956.57988682527 5068.59016994375,4956.5798868252705 5060.5,4962.457739348195 5057.409830056251,4952.947174185243 5060.500000000001,4943.436609022292 5052.409830056252,4937.558756499367 5055.500000000001,4947.0693216623185 5052.409830056252,4937.558756499367 5042.409830056252,4937.558756499367 5039.319660112503,4928.048191336415 5031.229490168753,4933.926043859339 5023.139320225003,4939.803896382264 5020.049150281254,4949.314461545215 5010.049150281253,4949.314461545215 5006.958980337504,4939.803896382263 5015.049150281254,4945.681748905188 5006.958980337504,4951.559601428113 4996.958980337504,4951.559601428112" stroke="black" stroke-linecap="round" stroke-width="1" /><polyline clip-path="url(#border_clip)" fill="none" points="4996.958980337504,4951.559601428112 4993.868810393754,4961.070166591064 5001.958980337504,4955.192314068139 4993.868810393754,4961.070166591064 4996.958980337503,4970.580731754015 4988.868810393753,4976.458584276939 4996.958980337503,4982.336436799865 5005.049150281252,4988.21428932279 5015.049150281252,4988.21428932279 5018.139320225001,4997.724854485742 5010.049150281251,5003.602707008667 5013.139320225001,4994.092141845715 5021.22949016875,4999.96999436864 5024.319660112499,5009.480559531591 5034.319660112499,5009.480559531592 5026.22949016875,5003.602707008667 5034.319660112499,5009.480559531592 5042.409830056249,5003.6027070086675 5050.499999999998,5009.480559531592 5053.590169943748,4999.969994368641 5056.680339887498,4990.45942920569 5053.590169943749,4980.948864042738 5061.680339887499,4975.0710115198135 5069.770509831248,4980.948864042739 5059.770509831248,4980.948864042738 5062.860679774998,4971.438298879787 5070.950849718748,4965.5604463568625 5067.860679774999,4956.049881193911 5064.770509831249,4965.5604463568625 5067.860679774999,4956.049881193911 5059.770509831249,4950.172028670985 5062.860679774999,4940.661463508034 5052.860679774999,4940.661463508034 5042.860679774999,4940.661463508033 5034.770509831249,4946.539316030958 5026.6803398875,4940.661463508032 5029.77050983125,4931.150898345081 5032.860679774999,4940.661463508033 5022.860679774999,4940.661463508032 5014.77050983125,4934.783610985108 5006.6803398875,4940.661463508032 5016.6803398875,4940.661463508032 5006.6803398875,4940.661463508032" stroke="black" stroke-linecap="round" stroke-width="1" /><polyline clip-path="url(#border_clip)" fill="none" points="5006.6803398875,4940.661463508032 5003.59016994375,4950.172028670983 4993.59016994375,4950.172028670983 4996.680339887499,4959.682593833934 4999.770509831248,4969.193158996886 5007.860679774998,4975.071011519812 5004.770509831248,4984.581576682763 4994.770509831248,4984.581576682763 5002.860679774997,4978.703724159838 5005.950849718746,4988.214289322789 5002.860679774996,4997.724854485741 5010.950849718746,5003.602707008667 5007.860679774997,4994.092141845715 5010.950849718746,5003.602707008667 5020.950849718746,5003.602707008667 5024.041019662495,5013.1132721716185 5032.131189606244,5007.235419648694 5040.221359549994,5001.3575671257695 5043.311529493744,4991.8470019628185 5053.311529493744,4991.8470019628185 5056.401699437493,5001.35756712577 5048.311529493744,4995.479714602845 5056.401699437494,4989.6018620799205 5066.401699437494,4989.601862079921 5069.491869381244,4980.091296916969 5061.401699437494,4985.969149439894 5069.491869381244,4980.091296916969 5066.401699437495,4970.580731754018 5074.491869381244,4964.702879231094 5066.401699437495,4958.8250267081685 5058.311529493746,4952.947174185243 5048.311529493746,4952.947174185243 5045.221359549997,4943.436609022291 5053.311529493747,4937.558756499367 5050.221359549997,4947.0693216623185 5042.131189606248,4941.191469139393 5039.041019662499,4931.680903976441 5029.041019662499,4931.680903976441 5037.131189606248,4937.558756499367 5029.041019662499,4931.680903976441 5020.950849718749,4937.558756499366 5012.860679775,4931.68090397644 5009.77050983125,4941.191469139391" stroke="black" stroke-linecap="round" stroke-width="1" /><polyline clip-path="url(#border_clip)" fill="none" points="5009.77050983125,4941.191469139391 5006.6803398875,4950.702034302343 5009.770509831249,4960.212599465295 5001.680339887499,4966.090451988219 4993.59016994375,4960.212599465294 5003.59016994375,4960.212599465294 5000.5,4969.723164628246 4992.40983005625,4975.601017151171 4995.499999999999,4985.111582314122 4998.590169943749,4975.601017151171 4995.499999999999,4985.111582314122 5003.590169943748,4990.989434837047 5000.499999999998,5000.499999999998 5010.499999999998,5000.499999999999 5020.499999999998,5000.5 5028.590169943748,4994.6221474770755 5036.680339887497,5000.5 5033.590169943747,5010.010565162952 5030.499999999998,5000.5 5040.499999999998,5000.500000000001 5048.590169943748,5006.377852522925 5056.680339887497,5000.500000000001 5046.680339887497,5000.500000000001 5056.680339887497,5000.500000000001 5059.770509831247,4990.98943483705 5069.770509831247,4990.989434837051 5066.680339887498,4981.478869674099 5063.59016994375,4971.968304511147 5055.5,4966.0904519882215 5058.59016994375,4956.5798868252705 5068.59016994375,4956.5798868252705 5060.500000000001,4962.457739348195 5057.409830056252,4952.947174185244 5060.500000000002,4943.436609022292 5052.409830056252,4937.558756499367 5055.500000000001,4947.0693216623185 5052.409830056252,4937.558756499367 5042.409830056252,4937.558756499367 5039.319660112504,4928.048191336415 5031.229490168754,4933.926043859339 5023.139320225004,4939.803896382264 5020.049150281254,4949.314461545215 5010.049150281254,4949.314461545215" stroke="black" stroke-linecap="round" stroke-width="1" /><polyline clip-path="url(#border_clip)" fill="none" points="5010.049150281254,4949.314461545215 5006.958980337505,4939.803896382263 5015.049150281254,4945.681748905187 5006.958980337504,4951.559601428112 4996.958980337504,4951.559601428112 4993.868810393754,4961.070166591063 5001.958980337504,4955.192314068138 4993.868810393754,4961.070166591063 4996.958980337503,4970.580731754015 4988.868810393753,4976.458584276939 4996.958980337502,4982.336436799864 5005.049150281252,4988.214289322789 5015.049150281252,4988.21428932279 5018.139320225001,4997.724854485741 5010.049150281251,5003.602707008666 5013.139320225001,4994.092141845715 5021.22949016875,4999.96999436864 5024.319660112499,5009.480559531591 5034.319660112499,5009.480559531592 5026.22949016875,5003.602707008667 5034.319660112499,5009.480559531592 5042.409830056249,5003.6027070086675 5050.499999999998,5009.480559531593 5053.590169943748,4999.969994368642 5056.680339887498,4990.45942920569 5053.590169943749,4980.948864042738 5061.680339887499,4975.071011519814 5069.770509831248,4980.948864042739 5059.770509831248,4980.948864042739 5062.860679774998,4971.438298879787 5070.950849718748,4965.560446356863 5067.860679774999,4956.0498811939115 5064.770509831249,4965.5604463568625 5067.860679774999,4956.0498811939115 5059.77050983125,4950.172028670986 5062.860679775,4940.661463508035 5052.860679775,4940.661463508034 5042.860679775,4940.661463508033 5034.77050983125,4946.539316030958 5026.680339887501,4940.661463508032 5029.770509831251,4931.150898345081 5032.860679775,4940.661463508033 5022.860679775,4940.661463508032" stroke="black" stroke-linecap="round" stroke-width="1" /><polyline clip-path="url(#border_clip)" fill="none" points="5022.860679775,4940.661463508032 5014.770509831251,4934.783610985107 5006.680339887501,4940.661463508031 5016.680339887501,4940.661463508032 5006.680339887501,4940.661463508031 5003.590169943751,4950.172028670983 4993.590169943751,4950.172028670982 4996.680339887499,4959.682593833934 4999.770509831248,4969.193158996885 5007.860679774997,4975.071011519811 5004.770509831247,4984.581576682763 4994.770509831247,4984.581576682762 5002.860679774997,4978.703724159837 5005.950849718746,4988.214289322789 5002.860679774996,4997.72485448574 5010.950849718745,5003.602707008666 5007.860679774996,4994.092141845714 5010.950849718745,5003.602707008666 5020.950849718745,5003.602707008667 5024.041019662494,5013.1132721716185 5032.131189606244,5007.235419648694 5040.221359549994,5001.3575671257695 5043.311529493744,4991.8470019628185 5053.311529493744,4991.8470019628185 5056.401699437493,5001.35756712577 5048.311529493744,4995.479714602845 5056.401699437493,4989.601862079921 5066.401699437494,4989.601862079921 5069.491869381244,4980.09129691697 5061.401699437494,4985.969149439895 5069.491869381244,4980.09129691697 5066.401699437495,4970.580731754018 5074.491869381245,4964.702879231095 5066.401699437496,4958.825026708169 5058.311529493746,4952.947174185244 5048.311529493746,4952.947174185243 5045.221359549998,4943.436609022291 5053.311529493747,4937.5587564993675 5050.221359549997,4947.0693216623185 5042.131189606248,4941.191469139393 5039.041019662499,4931.680903976441 5029.041019662499,4931.680903976441 5037.131189606249,4937.558756499367" stroke="black" stroke-linecap="round" stroke-width="1" /><polyline clip-path="url(#border_clip)" fill="none" points="5037.131189606249,4937.558756499367 5029.041019662499,4931.680903976441 5020.95084971875,4937.558756499366 5012.860679775,4931.68090397644 5009.77050983125,4941.191469139391 5006.6803398875,4950.702034302342 5009.770509831249,4960.212599465294 5001.680339887499,4966.090451988219 4993.59016994375,4960.212599465293 5003.59016994375,4960.212599465294 5000.5,4969.723164628245 4992.40983005625,4975.60101715117 4995.499999999999,4985.111582314122 4998.590169943749,4975.60101715117 4995.499999999999,4985.111582314122 5003.590169943748,4990.989434837047 5000.499999999998,5000.499999999998 5010.499999999998,5000.499999999999 5020.499999999998,5000.499999999999 5028.590169943748,4994.6221474770755 5036.680339887497,5000.500000000001 5033.590169943747,5010.010565162952 5030.499999999998,5000.5 5040.499999999998,5000.500000000001 5048.590169943747,5006.377852522926 5056.680339887497,5000.500000000002 5046.680339887497,5000.500000000001 5056.680339887497,5000.500000000002 5059.770509831247,4990.989434837051 5069.770509831247,4990.989434837051 5066.680339887498,4981.478869674099 5063.59016994375,4971.968304511148 5055.5,4966.090451988222 5058.590169943751,4956.5798868252705 5068.590169943751,4956.579886825271 5060.500000000001,4962.457739348196 5057.409830056252,4952.947174185244 5060.500000000002,4943.436609022293 5052.409830056253,4937.5587564993675 5055.500000000002,4947.069321662319 5052.409830056253,4937.5587564993675 5042.409830056253,4937.558756499367 5039.319660112504,4928.048191336415" stroke="black" stroke-linecap="round" stroke-width="1" /><polyline clip-path="url(#border_clip)" fill="none" points="5039.319660112504,4928.048191336415 5031.229490168754,4933.926043859339 5023.139320225004,4939.803896382264 5020.049150281254,4949.314461545215 5010.049150281254,4949.314461545214 5006.958980337505,4939.803896382262 5015.049150281255,4945.681748905187 5006.958980337505,4951.559601428112 4996.958980337505,4951.559601428111 4993.868810393754,4961.070166591062 5001.958980337504,4955.192314068138 4993.868810393754,4961.070166591062 4996.958980337503,4970.580731754014 4988.868810393753,4976.458584276938 4996.958980337502,4982.336436799864 5005.049150281251,4988.214289322789 5015.049150281251,4988.214289322789 5018.139320225,4997.724854485741 5010.04915028125,5003.602707008666 5013.139320225,4994.092141845715 5021.229490168749,4999.969994368639 5024.319660112498,5009.480559531591 5034.319660112498,5009.480559531592 5026.229490168749,5003.602707008667 5034.319660112498,5009.480559531592 5042.409830056248,5003.6027070086675 5050.499999999997,5009.480559531593 5053.590169943747,4999.969994368642 5056.680339887498,4990.459429205691 5053.590169943749,4980.948864042739 5061.680339887499,4975.071011519814 5069.770509831248,4980.94886404274 5059.770509831248,4980.948864042739 5062.860679774998,4971.438298879788 5070.950849718748,4965.560446356863 5067.860679774999,4956.0498811939115 5064.770509831249,4965.560446356863 5067.860679774999,4956.0498811939115 5059.77050983125,4950.172028670987 5062.860679775,4940.661463508035 5052.860679775,4940.661463508034 5042.860679775,4940.661463508034 5034.77050983125,4946.539316030958" stroke="black" stroke-linecap="round" stroke-width="1" /><polyline clip-path="url(#border_clip)" fill="none" points="5034.77050983125,4946.539316030958 5026.680339887501,4940.661463508032 5029.770509831252,4931.150898345081 5032.860679775,4940.661463508033 5022.860679775,4940.661463508032 5014.770509831251,4934.783610985107 5006.680339887501,4940.661463508031 5016.680339887501,4940.661463508032 5006.680339887501,4940.661463508031 5003.590169943751,4950.172028670982 4993.590169943751,4950.1720286709815 4996.6803398875,4959.682593833933 4999.770509831248,4969.193158996885 5007.860679774997,4975.071011519811 5004.770509831247,4984.581576682762 4994.770509831247,4984.581576682761 5002.860679774997,4978.703724159837 5005.950849718746,4988.214289322789 5002.860679774995,4997.72485448574 5010.950849718744,5003.602707008666 5007.860679774996,4994.092141845714 5010.950849718744,5003.602707008666 5020.950849718745,5003.602707008667 5024.041019662493,5013.1132721716185 5032.131189606243,5007.235419648694 5040.221359549993,5001.3575671257695 5043.311529493743,4991.8470019628185 5053.311529493743,4991.847001962819 5056.401699437492,5001.357567125771 5048.311529493743,4995.479714602846 5056.401699437493,4989.601862079921 5066.401699437493,4989.601862079922 5069.491869381243,4980.091296916971 5061.401699437493,4985.969149439895 5069.491869381243,4980.091296916971 5066.401699437495,4970.580731754019 5074.491869381245,4964.702879231095 5066.401699437496,4958.825026708169 5058.311529493747,4952.947174185244 5048.311529493747,4952.947174185244 5045.221359549998,4943.436609022292 5053.311529493748,4937.5587564993675 5050.221359549998,4947.0693216623185" stroke="black" stroke-linecap="round" stroke-width="1" /><polyline clip-path="url(#border_clip)" fill="none" points="5050.221359549998,4947.0693216623185 5042.131189606249,4941.191469139394 5039.0410196625,4931.680903976442 5029.0410196625,4931.680903976441 5037.131189606249,4937.558756499367 5029.0410196625,4931.680903976441 5020.95084971875,4937.558756499365 5012.860679775001,4931.680903976439 5009.770509831251,4941.191469139391 5006.6803398875,4950.702034302342 5009.770509831249,4960.212599465294 5001.680339887499,4966.090451988219 4993.59016994375,4960.212599465293 5003.59016994375,4960.212599465293 5000.5,4969.723164628245 4992.40983005625,4975.601017151169 4995.499999999999,4985.111582314121 4998.590169943749,4975.60101715117 4995.499999999999,4985.111582314121 5003.590169943748,4990.989434837046 5000.499999999997,5000.499999999997 5010.499999999997,5000.499999999998 5020.499999999997,5000.499999999999 5028.590169943747,4994.6221474770755 5036.680339887496,5000.500000000001 5033.590169943746,5010.010565162952 5030.499999999997,5000.5 5040.499999999997,5000.500000000001 5048.590169943746,5006.377852522926 5056.680339887496,5000.500000000002 5046.680339887496,5000.500000000002 5056.680339887496,5000.500000000002 5059.770509831247,4990.989434837051 5069.770509831247,4990.989434837052 5066.680339887498,4981.4788696741 5063.59016994375,4971.968304511148 5055.500000000001,4966.090451988222 5058.590169943751,4956.579886825271 5068.590169943751,4956.579886825272 5060.500000000001,4962.457739348196 5057.409830056252,4952.947174185244 5060.500000000003,4943.436609022293 5052.409830056254,4937.5587564993675" stroke="black" stroke-linecap="round" stroke-width="1" /><polyline clip-path="url(#border_clip)" fill="none" points="5052.409830056254,4937.5587564993675 5055.500000000002,4947.069321662319 5052.409830056254,4937.5587564993675 5042.409830056254,4937.558756499367 5039.319660112505,4928.048191336415 5031.229490168755,4933.926043859339 5023.139320225005,4939.803896382263 5020.049150281255,4949.314461545215 5010.049150281255,4949.314461545214 5006.958980337506,4939.803896382262 5015.049150281255,4945.681748905187 5006.958980337505,4951.559601428111 4996.958980337505,4951.559601428111 4993.868810393754,4961.070166591062 5001.958980337504,4955.192314068137 4993.868810393754,4961.070166591062 4996.958980337503,4970.580731754014 4988.868810393753,4976.4585842769375 4996.958980337502,4982.336436799863 5005.049150281251,4988.214289322788 5015.049150281251,4988.214289322789 5018.139320225,4997.724854485741 5010.049150281249,5003.602707008666 5013.139320225,4994.092141845714 5021.229490168749,4999.969994368639 5024.319660112497,5009.480559531591 5034.319660112497,5009.480559531592 5026.229490168748,5003.602707008667 5034.319660112497,5009.480559531592 5042.409830056247,5003.602707008668 5050.499999999996,5009.480559531594 5053.590169943747,4999.969994368642 5056.680339887497,4990.459429205691 5053.590169943749,4980.948864042739 5061.680339887499,4975.071011519815 5069.770509831248,4980.948864042741 5059.770509831248,4980.94886404274 5062.860679774998,4971.438298879789 5070.950849718748,4965.560446356864 5067.860679774999,4956.049881193912 5064.770509831249,4965.560446356863 5067.860679774999,4956.049881193912 5059.770509831251,4950.172028670987" stroke="black" stroke-linecap="round" stroke-width="1" /><polyline clip-path="url(#border_clip)" fill="none" points="5059.770509831251,4950.172028670987 5062.860679775001,4940.661463508036 5052.860679775001,4940.661463508035 5042.860679775001,4940.661463508034 5034.770509831251,4946.539316030958 5026.680339887502,4940.661463508032 5029.770509831252,4931.150898345081 5032.860679775001,4940.661463508033 5022.860679775001,4940.661463508032 5014.770509831252,4934.783610985107 5006.680339887502,4940.6614635080305 5016.680339887502,4940.661463508031 5006.680339887502,4940.6614635080305 5003.590169943751,4950.172028670982 4993.590169943751,4950.1720286709815 4996.6803398875,4959.6825938339325 4999.770509831248,4969.193158996884 5007.860679774997,4975.071011519811 5004.770509831247,4984.581576682762 4994.770509831247,4984.581576682761 5002.860679774997,4978.703724159836 5005.950849718745,4988.214289322788 5002.860679774995,4997.72485448574 5010.950849718744,5003.602707008666 5007.860679774995,4994.092141845714 5010.950849718744,5003.602707008666 5020.950849718744,5003.602707008667 5024.0410196624925,5013.1132721716185 5032.131189606243,5007.235419648694 5040.221359549993,5001.35756712577 5043.311529493743,4991.8470019628185 5053.311529493743,4991.847001962819 5056.401699437492,5001.357567125771 5048.311529493743,4995.479714602846 5056.401699437493,4989.601862079922 5066.401699437493,4989.601862079923 5069.491869381243,4980.091296916971 5061.401699437493,4985.969149439896 5069.491869381243,4980.091296916971 5066.401699437495,4970.58073175402 5074.491869381245,4964.702879231096 5066.401699437496,4958.82502670817 5058.311529493747,4952.947174185245" stroke="black" stroke-linecap="round" stroke-width="1" /><polyline clip-path="url(#border_clip)" fill="none" points="5058.311529493747,4952.947174185245 5048.311529493747,4952.947174185244 5045.221359549999,4943.436609022292 5053.311529493749,4937.5587564993675 5050.221359549998,4947.069321662319 5042.131189606249,4941.191469139394 5039.041019662501,4931.680903976442 5029.041019662501,4931.680903976441 5037.13118960625,4937.558756499367 5029.041019662501,4931.680903976441 5020.950849718751,4937.558756499365 5012.860679775002,4931.680903976439 5009.770509831251,4941.19146913939 5006.680339887501,4950.702034302342 5009.770509831249,4960.212599465294 5001.680339887499,4966.090451988218 4993.59016994375,4960.212599465292 5003.59016994375,4960.212599465293 5000.5,4969.723164628244 4992.40983005625,4975.601017151169 4995.499999999998,4985.111582314121 4998.590169943749,4975.601017151169 4995.499999999998,4985.111582314121 5003.590169943747,4990.989434837046 5000.499999999997,5000.499999999997 5010.499999999997,5000.499999999998 5020.499999999997,5000.499999999999 5028.590169943747,4994.6221474770755 5036.680339887496,5000.500000000001 5033.590169943745,5010.010565162952 5030.499999999997,5000.5 5040.499999999997,5000.500000000001 5048.590169943746,5006.377852522926 5056.680339887496,5000.500000000003 5046.680339887496,5000.500000000002 5056.680339887496,5000.500000000003 5059.770509831246,4990.989434837052 5069.770509831246,4990.989434837053 5066.680339887498,4981.478869674101 5063.59016994375,4971.968304511149 5055.500000000001,4966.090451988223 5058.590169943751,4956.579886825271 5068.590169943751,4956.579886825272" stroke="black" stroke-linecap="round" stroke-width="1" /><polyline clip-path="url(#border_clip)" fill="none" points="5068.590169943751,4956.579886825272 5060.500000000001,4962.457739348197 5057.409830056253,4952.947174185245 5060.500000000003,4943.436609022294 5052.409830056254,4937.5587564993675 5055.500000000003,4947.069321662319 5052.409830056254,4937.5587564993675 5042.409830056254,4937.558756499367 5039.3196601125055,4928.048191336415 5031.229490168756,4933.926043859339 5023.139320225005,4939.803896382263 5020.049150281255,4949.314461545214 5010.049150281255,4949.314461545213 5006.958980337506,4939.803896382261 5015.049150281255,4945.681748905187 5006.958980337505,4951.559601428111 4996.958980337505,4951.55960142811 4993.868810393755,4961.070166591061 5001.958980337505,4955.192314068137 4993.868810393755,4961.070166591061 4996.958980337503,4970.580731754013 4988.868810393753,4976.4585842769375 4996.958980337502,4982.336436799863 5005.04915028125,4988.214289322788 5015.049150281251,4988.214289322789 5018.139320224999,4997.724854485741 5010.049150281249,5003.602707008665 5013.139320224999,4994.092141845714 5021.229490168748,4999.969994368639 5024.319660112497,5009.480559531591 5034.319660112497,5009.480559531592 5026.229490168748,5003.602707008667 5034.319660112497,5009.480559531592 5042.409830056247,5003.602707008668 5050.499999999996,5009.480559531594 5053.590169943746,4999.969994368643 5056.680339887497,4990.459429205692 5053.590169943748,4980.94886404274 5061.680339887499,4975.071011519815 5069.770509831247,4980.948864042742 5059.770509831247,4980.94886404274 5062.860679774998,4971.438298879789 5070.950849718748,4965.560446356865" stroke="black" stroke-linecap="round" stroke-width="1" /><polyline clip-path="url(#border_clip)" fill="none" points="5070.950849718748,4965.560446356865 5067.860679775,4956.049881193913 5064.770509831249,4965.560446356864 5067.860679775,4956.049881193913 5059.770509831251,4950.172028670988 5062.860679775002,4940.661463508036 5052.860679775001,4940.661463508035 5042.860679775001,4940.661463508034 5034.770509831251,4946.539316030958 5026.680339887502,4940.661463508032 5029.770509831253,4931.150898345081 5032.860679775001,4940.661463508033 5022.860679775001,4940.661463508032 5014.770509831252,4934.783610985106 5006.680339887502,4940.6614635080305 5016.680339887502,4940.661463508031 5006.680339887502,4940.6614635080305 5003.590169943752,4950.1720286709815 4993.590169943751,4950.172028670981 4996.6803398875,4959.6825938339325 4999.770509831248,4969.193158996884 5007.860679774997,4975.07101151981 5004.770509831246,4984.581576682761 4994.770509831246,4984.58157668276 5002.860679774997,4978.703724159836 5005.950849718745,4988.214289322788 5002.860679774994,4997.724854485739 5010.9508497187435,5003.602707008665 5007.860679774995,4994.092141845713 5010.9508497187435,5003.602707008665 5020.9508497187435,5003.602707008667 5024.0410196624925,5013.1132721716185 5032.1311896062425,5007.235419648694 5040.2213595499925,5001.35756712577 5043.311529493743,4991.847001962819 5053.311529493743,4991.84700196282 5056.4016994374915,5001.357567125772 5048.3115294937425,4995.479714602847 5056.401699437492,4989.601862079922 5066.401699437493,4989.601862079923 5069.491869381243,4980.091296916972 5061.401699437493,4985.969149439897 5069.491869381243,4980.091296916972" stroke="black" stroke-linecap="round" stroke-width="1" /><polyline clip-path="url(#border_clip)" fill="none" points="5069.491869381243,4980.091296916972 5066.401699437495,4970.58073175402 5074.491869381245,4964.702879231097 5066.401699437496,4958.825026708171 5058.311529493747,4952.947174185245 5048.311529493747,4952.947174185244 5045.221359549999,4943.436609022292 5053.311529493749,4937.558756499368 5050.221359549999,4947.069321662319 5042.13118960625,4941.191469139394 5039.041019662502,4931.680903976442 5029.041019662501,4931.680903976441 5037.13118960625,4937.558756499367 5029.041019662501,4931.680903976441 5020.950849718751,4937.558756499365 5012.860679775002,4931.680903976439 5009.770509831252,4941.19146913939 5006.680339887501,4950.702034302341 5009.770509831249,4960.212599465293 5001.680339887499,4966.090451988217 4993.59016994375,4960.2125994652915 5003.59016994375,4960.212599465292 5000.5,4969.723164628244 4992.40983005625,4975.601017151168 4995.499999999998,4985.11158231412 4998.590169943749,4975.601017151169 4995.499999999998,4985.11158231412 5003.590169943747,4990.989434837045 5000.499999999996,5000.499999999997 5010.499999999996,5000.499999999998 5020.499999999996,5000.499999999999 5028.590169943746,4994.6221474770755 5036.680339887495,5000.500000000001 5033.590169943745,5010.010565162952 5030.499999999996,5000.5 5040.499999999996,5000.500000000002 5048.590169943745,5006.377852522927 5056.680339887495,5000.500000000004 5046.680339887495,5000.500000000002 5056.680339887495,5000.500000000004 5059.770509831246,4990.989434837052 5069.770509831246,4990.9894348370535 5066.680339887498,4981.478869674102" stroke="black" stroke-linecap="round" stroke-width="1" /><polyline clip-path="url(#border_clip)" fill="none" points="5066.680339887498,4981.478869674102 5063.59016994375,4971.968304511149 5055.500000000001,4966.090451988223 5058.590169943751,4956.579886825272 5068.590169943752,4956.579886825273 5060.500000000001,4962.457739348197 5057.409830056253,4952.947174185245 5060.500000000004,4943.436609022294 5052.409830056255,4937.558756499368 5055.500000000003,4947.06932166232 5052.409830056255,4937.558756499368 5042.409830056255,4937.5587564993675 5039.319660112506,4928.048191336415 5031.229490168756,4933.926043859339 5023.139320225006,4939.803896382263 5020.049150281255,4949.314461545214 5010.049150281255,4949.314461545213 5006.958980337507,4939.803896382261 5015.049150281256,4945.681748905186 5006.958980337505,4951.55960142811 4996.958980337505,4951.559601428109 4993.868810393755,4961.07016659106 5001.958980337505,4955.1923140681365 4993.868810393755,4961.07016659106 4996.958980337503,4970.580731754012 4988.868810393753,4976.458584276937 4996.958980337501,4982.336436799862 5005.04915028125,4988.214289322787 5015.04915028125,4988.214289322789 5018.139320224998,4997.724854485741 5010.049150281248,5003.602707008665 5013.139320224999,4994.092141845714 5021.229490168748,4999.969994368639 5024.319660112496,5009.480559531591 5034.319660112496,5009.480559531592 5026.229490168747,5003.602707008667 5034.319660112496,5009.480559531592 5042.409830056246,5003.602707008668 5050.499999999995,5009.480559531595 5053.590169943746,4999.969994368643 5056.680339887497,4990.459429205692 5053.590169943748,4980.94886404274 5061.680339887499,4975.071011519816" stroke="black" stroke-linecap="round" stroke-width="1" /><polyline clip-path="url(#border_clip)" fill="none" points="5061.680339887499,4975.071011519816 5069.770509831247,4980.948864042742 5059.770509831247,4980.948864042741 5062.860679774998,4971.43829887979 5070.950849718748,4965.560446356865 5067.860679775,4956.049881193913 5064.770509831249,4965.560446356865 5067.860679775,4956.049881193913 5059.770509831251,4950.172028670988 5062.860679775002,4940.661463508037 5052.860679775002,4940.661463508035 5042.860679775002,4940.661463508034 5034.770509831252,4946.539316030958 5026.680339887503,4940.661463508032 5029.770509831254,4931.150898345081 5032.860679775002,4940.661463508033 5022.860679775002,4940.661463508031 5014.770509831253,4934.783610985106 5006.680339887503,4940.66146350803 5016.680339887503,4940.661463508031 5006.680339887503,4940.66146350803 5003.590169943752,4950.172028670981 4993.590169943752,4950.17202867098 4996.6803398875,4959.682593833932 4999.770509831248,4969.1931589968835 5007.860679774997,4975.07101151981 5004.770509831246,4984.581576682761 4994.770509831246,4984.58157668276 5002.860679774996,4978.7037241598355 5005.950849718745,4988.214289322787 5002.860679774994,4997.724854485739 5010.9508497187435,5003.602707008665 5007.860679774994,4994.092141845713 5010.9508497187435,5003.602707008665 5020.9508497187435,5003.602707008666 5024.041019662492,5013.1132721716185 5032.131189606242,5007.235419648694 5040.2213595499925,5001.35756712577 5043.3115294937425,4991.847001962819 5053.3115294937425,4991.84700196282 5056.4016994374915,5001.357567125772 5048.3115294937425,4995.479714602847 5056.401699437492,4989.601862079923" stroke="black" stroke-linecap="round" stroke-width="1" /><polyline clip-path="url(#border_clip)" fill="none" points="5056.401699437492,4989.601862079923 5066.401699437492,4989.601862079924 5069.491869381243,4980.091296916973 5061.401699437493,4985.969149439897 5069.491869381243,4980.091296916973 5066.401699437495,4970.580731754021 5074.491869381245,4964.7028792310975 5066.401699437497,4958.825026708171 5058.311529493748,4952.947174185246 5048.311529493748,4952.947174185244 5045.22135955,4943.436609022292 5053.31152949375,4937.558756499368 5050.221359549999,4947.069321662319 5042.13118960625,4941.191469139394 5039.041019662502,4931.680903976442 5029.041019662502,4931.68090397644 5037.131189606251,4937.558756499367 5029.041019662502,4931.68090397644 5020.950849718752,4937.558756499365 5012.860679775003,4931.6809039764385 5009.770509831252,4941.1914691393895 5006.680339887501,4950.702034302341 5009.77050983125,4960.212599465293 5001.680339887499,4966.090451988217 4993.59016994375,4960.212599465291 5003.590169943751,4960.212599465292 5000.5,4969.7231646282435 4992.409830056249,4975.601017151167 4995.499999999997,4985.111582314119 4998.590169943748,4975.601017151168 4995.499999999997,4985.111582314119 5003.590169943746,4990.989434837045 5000.499999999995,5000.499999999996" stroke="black" stroke-linecap="round" stroke-width="1" /></svg>