<?xml version="1.0" encoding="UTF-8"?>
<svg width="1e4px" height="1e4px" baseProfile="full" version="1.1" viewBox="4988.9 4928 85.623 85.065" xmlns="http://www.w3.org/2000/svg">
<defs>
<clipPath id="a">
<rect width="1e4" height="1e4"/>
</clipPath>
</defs>
<polyline points="5000.5 5000.5 5010.5 5000.5 5020.5 5000.5 5028.6 4994.6 5036.7 5000.5 5033.6 5010 5030.5 5000.5 5040.5 5000.5 5048.6 5006.4 5056.7 5000.5 5046.7 5000.5 5056.7 5000.5 5059.8 4991 5069.8 4991 5066.7 4981.5 5063.6 4972 5055.5 4966.1 5058.6 4956.6 5068.6 4956.6 5060.5 4962.5 5057.4 4952.9 5060.5 4943.4 5052.4 4937.6 5055.5 4947.1 5052.4 4937.6 5042.4 4937.6 5039.3 4928 5031.2 4933.9 5023.1 4939.8 5020 4949.3 5010 4949.3 5007 4939.8 5015 4945.7 5007 4951.6 4997 4951.6 4993.9 4961.1 5002 4955.2 4993.9 4961.1 4997 4970.6 4988.9 4976.5 4997 4982.3 5005 4988.2 5015 4988.2" clip-path="url(#a)" fill="none" stroke="#000" stroke-linecap="round"/>
<polyline points="5015 4988.2 5018.1 4997.7 5010 5003.6 5013.1 4994.1 5021.2 5e3 5024.3 5009.5 5034.3 5009.5 5026.2 5003.6 5034.3 5009.5 5042.4 5003.6 5050.5 5009.5 5053.6 5e3 5056.7 4990.5 5053.6 4980.9 5061.7 4975.1 5069.8 4980.9 5059.8 4980.9 5062.9 4971.4 5071 4965.6 5067.9 4956 5064.8 4965.6 5067.9 4956 5059.8 4950.2 5062.9 4940.7 5052.9 4940.7 5042.9 4940.7 5034.8 4946.5 5026.7 4940.7 5029.8 4931.2 5032.9 4940.7 5022.9 4940.7 5014.8 4934.8 5006.7 4940.7 5016.7 4940.7 5006.7 4940.7 5003.6 4950.2 4993.6 4950.2 4996.7 4959.7 4999.8 4969.2 5007.9 4975.1 5004.8 4984.6 4994.8 4984.6 5002.9 4978.7" clip-path="url(#a)" fill="none" stroke="#000" stroke-linecap="round"/>
<polyline points="5002.9 4978.7 5006 4988.2 5002.9 4997.7 5011 5003.6 5007.9 4994.1 5011 5003.6 5021 5003.6 5024 5013.1 5032.1 5007.2 5040.2 5001.4 5043.3 4991.8 5053.3 4991.8 5056.4 5001.4 5048.3 4995.5 5056.4 4989.6 5066.4 4989.6 5069.5 4980.1 5061.4 4986 5069.5 4980.1 5066.4 4970.6 5074.5 4964.7 5066.4 4958.8 5058.3 4952.9 5048.3 4952.9 5045.2 4943.4 5053.3 4937.6 5050.2 4947.1 5042.1 4941.2 5039 4931.7 5029 4931.7 5037.1 4937.6 5029 4931.7 5021 4937.6 5012.9 4931.7 5009.8 4941.2 5006.7 4950.7 5009.8 4960.2 5001.7 4966.1 4993.6 4960.2 5003.6 4960.2 5000.5 4969.7 4992.4 4975.6 4995.5 4985.1" clip-path="url(#a)" fill="none" stroke="#000" stroke-linecap="round"/>
<polyline points="4995.5 4985.1 4998.6 4975.6 4995.5 4985.1 5003.6 4991 5000.5 5000.5 5010.5 5000.5 5020.5 5000.5 5028.6 4994.6 5036.7 5000.5 5033.6 5010 5030.5 5000.5 5040.5 5000.5 5048.6 5006.4 5056.7 5000.5 5046.7 5000.5 5056.7 5000.5 5059.8 4991 5069.8 4991 5066.7 4981.5 5063.6 4972 5055.5 4966.1 5058.6 4956.6 5068.6 4956.6 5060.5 4962.5 5057.4 4952.9 5060.5 4943.4 5052.4 4937.6 5055.5 4947.1 5052.4 4937.6 5042.4 4937.6 5039.3 4928 5031.2 4933.9 5023.1 4939.8 5020 4949.3 5010 4949.3 5007 4939.8 5015 4945.7 5007 4951.6 4997 4951.6 4993.9 4961.1 5002 4955.2 4993.9 4961.1 4997 4970.6" clip-path="url(#a)" fill="none" stroke="#000" stroke-linecap="round"/>
<polyline points="4997 4970.6 4988.9 4976.5 4997 4982.3 5005 4988.2 5015 4988.2 5018.1 4997.7 5010 5003.6 5013.1 4994.1 5021.2 5e3 5024.3 5009.5 5034.3 5009.5 5026.2 5003.6 5034.3 5009.5 5042.4 5003.6 5050.5 5009.5 5053.6 5e3 5056.7 4990.5 5053.6 4980.9 5061.7 4975.1 5069.8 4980.9 5059.8 4980.9 5062.9 4971.4 5071 4965.6 5067.9 4956 5064.8 4965.6 5067.9 4956 5059.8 4950.2 5062.9 4940.7 5052.9 4940.7 5042.9 4940.7 5034.8 4946.5 5026.7 4940.7 5029.8 4931.2 5032.9 4940.7 5022.9 4940.7 5014.8 4934.8 5006.7 4940.7 5016.7 4940.7 5006.7 4940.7 5003.6 4950.2 4993.6 4950.2 4996.7 4959.7 4999.8 4969.2" clip-path="url(#a)" fill="none" stroke="#000" stroke-linecap="round"/>
<polyline points="4999.8 4969.2 5007.9 4975.1 5004.8 4984.6 4994.8 4984.6 5002.9 4978.7 5006 4988.2 5002.9 4997.7 5011 5003.6 5007.9 4994.1 5011 5003.6 5021 5003.6 5024 5013.1 5032.1 5007.2 5040.2 5001.4 5043.3 4991.8 5053.3 4991.8 5056.4 5001.4 5048.3 4995.5 5056.4 4989.6 5066.4 4989.6 5069.5 4980.1 5061.4 4986 5069.5 4980.1 5066.4 4970.6 5074.5 4964.7 5066.4 4958.8 5058.3 4952.9 5048.3 4952.9 5045.2 4943.4 5053.3 4937.6 5050.2 4947.1 5042.1 4941.2 5039 4931.7 5029 4931.7 5037.1 4937.6 5029 4931.7 5021 4937.6 5012.9 4931.7 5009.8 4941.2 5006.7 4950.7 5009.8 4960.2 5001.7 4966.1 4993.6 4960.2" clip-path="url(#a)" fill="none" stroke="#000" stroke-linecap="round"/>
<polyline points="4993.6 4960.2 5003.6 4960.2 5000.5 4969.7 4992.4 4975.6 4995.5 4985.1 4998.6 4975.6 4995.5 4985.1 5003.6 4991 5000.5 5000.5 5010.5 5000.5 5020.5 5000.5 5028.6 4994.6 5036.7 5000.5 5033.6 5010 5030.5 5000.5 5040.5 5000.5 5048.6 5006.4 5056.7 5000.5 5046.7 5000.5 5056.7 5000.5 5059.8 4991 5069.8 4991 5066.7 4981.5 5063.6 4972 5055.5 4966.1 5058.6 4956.6 5068.6 4956.6 5060.5 4962.5 5057.4 4952.9 5060.5 4943.4 5052.4 4937.6 5055.5 4947.1 5052.4 4937.6 5042.4 4937.6 5039.3 4928 5031.2 4933.9 5023.1 4939.8 5020 4949.3 5010 4949.3 5007 4939.8 5015 4945.7 5007 4951.6 4997 4951.6" clip-path="url(#a)" fill="none" stroke="#000" stroke-linecap="round"/>
<polyline points="4997 4951.6 4993.9 4961.1 5002 4955.2 4993.9 4961.1 4997 4970.6 4988.9 4976.5 4997 4982.3 5005 4988.2 5015 4988.2 5018.1 4997.7 5010 5003.6 5013.1 4994.1 5021.2 5e3 5024.3 5009.5 5034.3 5009.5 5026.2 5003.6 5034.3 5009.5 5042.4 5003.6 5050.5 5009.5 5053.6 5e3 5056.7 4990.5 5053.6 4980.9 5061.7 4975.1 5069.8 4980.9 5059.8 4980.9 5062.9 4971.4 5071 4965.6 5067.9 4956 5064.8 4965.6 5067.9 4956 5059.8 4950.2 5062.9 4940.7 5052.9 4940.7 5042.9 4940.7 5034.8 4946.5 5026.7 4940.7 5029.8 4931.2 5032.9 4940.7 5022.9 4940.7 5014.8 4934.8 5006.7 4940.7 5016.7 4940.7 5006.7 4940.7" clip-path="url(#a)" fill="none" stroke="#000" stroke-linecap="round"/>
<polyline points="5006.7 4940.7 5003.6 4950.2 4993.6 4950.2 4996.7 4959.7 4999.8 4969.2 5007.9 4975.1 5004.8 4984.6 4994.8 4984.6 5002.9 4978.7 5006 4988.2 5002.9 4997.7 5011 5003.6 5007.9 4994.1 5011 5003.6 5021 5003.6 5024 5013.1 5032.1 5007.2 5040.2 5001.4 5043.3 4991.8 5053.3 4991.8 5056.4 5001.4 5048.3 4995.5 5056.4 4989.6 5066.4 4989.6 5069.5 4980.1 5061.4 4986 5069.5 4980.1 5066.4 4970.6 5074.5 4964.7 5066.4 4958.8 5058.3 4952.9 5048.3 4952.9 5045.2 4943.4 5053.3 4937.6 5050.2 4947.1 5042.1 4941.2 5039 4931.7 5029 4931.7 5037.1 4937.6 5029 4931.7 5021 4937.6 5012.9 4931.7 5009.8 4941.2" clip-path="url(#a)" fill="none" stroke="#000" stroke-linecap="round"/>
<polyline points="5009.8 4941.2 5006.7 4950.7 5009.8 4960.2 5001.7 4966.1 4993.6 4960.2 5003.6 4960.2 5000.5 4969.7 4992.4 4975.6 4995.5 4985.1 4998.6 4975.6 4995.5 4985.1 5003.6 4991 5000.5 5000.5 5010.5 5000.5 5020.5 5000.5 5028.6 4994.6 5036.7 5000.5 5033.6 5010 5030.5 5000.5 5040.5 5000.5 5048.6 5006.4 5056.7 5000.5 5046.7 5000.5 5056.7 5000.5 5059.8 4991 5069.8 4991 5066.7 4981.5 5063.6 4972 5055.5 4966.1 5058.6 4956.6 5068.6 4956.6 5060.5 4962.5 5057.4 4952.9 5060.5 4943.4 5052.4 4937.6 5055.5 4947.1 5052.4 4937.6 5042.4 4937.6 5039.3 4928 5031.2 4933.9 5023.1 4939.8 5020 4949.3 5010 4949.3" clip-path="url(#a)" fill="none" stroke="#000" stroke-linecap="round"/>
<polyline points="5010 4949.3 5007 4939.8 5015 4945.7 5007 4951.6 4997 4951.6 4993.9 4961.1 5002 4955.2 4993.9 4961.1 4997 4970.6 4988.9 4976.5 4997 4982.3 5005 4988.2 5015 4988.2 5018.1 4997.7 5010 5003.6 5013.1 4994.1 5021.2 5e3 5024.3 5009.5 5034.3 5009.5 5026.2 5003.6 5034.3 5009.5 5042.4 5003.6 5050.5 5009.5 5053.6 5e3 5056.7 4990.5 5053.6 4980.9 5061.7 4975.1 5069.8 4980.9 5059.8 4980.9 5062.9 4971.4 5071 4965.6 5067.9 4956 5064.8 4965.6 5067.9 4956 5059.8 4950.2 5062.9 4940.7 5052.9 4940.7 5042.9 4940.7 5034.8 4946.5 5026.7 4940.7 5029.8 4931.2 5032.9 4940.7 5022.9 4940.7" clip-path="url(#a)" fill="none" stroke="#000" stroke-linecap="round"/>
<polyline points="5022.9 4940.7 5014.8 4934.8 5006.7 4940.7 5016.7 4940.7 5006.7 4940.7 5003.6 4950.2 4993.6 4950.2 4996.7 4959.7 4999.8 4969.2 5007.9 4975.1 5004.8 4984.6 4994.8 4984.6 5002.9 4978.7 5006 4988.2 5002.9 4997.7 5011 5003.6 5007.9 4994.1 5011 5003.6 5021 5003.6 5024 5013.1 5032.1 5007.2 5040.2 5001.4 5043.3 4991.8 5053.3 4991.8 5056.4 5001.4 5048.3 4995.5 5056.4 4989.6 5066.4 4989.6 5069.5 4980.1 5061.4 4986 5069.5 4980.1 5066.4 4970.6 5074.5 4964.7 5066.4 4958.8 5058.3 4952.9 5048.3 4952.9 5045.2 4943.4 5053.3 4937.6 5050.2 4947.1 5042.1 4941.2 5039 4931.7 5029 4931.7 5037.1 4937.6" clip-path="url(#a)" fill="none" stroke="#000" stroke-linecap="round"/>
<polyline points="5037.1 4937.6 5029 4931.7 5021 4937.6 5012.9 4931.7 5009.8 4941.2 5006.7 4950.7 5009.8 4960.2 5001.7 4966.1 4993.6 4960.2 5003.6 4960.2 5000.5 4969.7 4992.4 4975.6 4995.5 4985.1 4998.6 4975.6 4995.5 4985.1 5003.6 4991 5000.5 5000.5 5010.5 5000.5 5020.5 5000.5 5028.6 4994.6 5036.7 5000.5 5033.6 5010 5030.5 5000.5 5040.5 5000.5 5048.6 5006.4 5056.7 5000.5 5046.7 5000.5 5056.7 5000.5 5059.8 4991 5069.8 4991 5066.7 4981.5 5063.6 4972 5055.5 4966.1 5058.6 4956.6 5068.6 4956.6 5060.5 4962.5 5057.4 4952.9 5060.5 4943.4 5052.4 4937.6 5055.5 4947.1 5052.4 4937.6 5042.4 4937.6 5039.3 4928" clip-path="url(#a)" fill="none" stroke="#000" stroke-linecap="round"/>
<polyline points="5039.3 4928 5031.2 4933.9 5023.1 4939.8 5020 4949.3 5010 4949.3 5007 4939.8 5015 4945.7 5007 4951.6 4997 4951.6 4993.9 4961.1 5002 4955.2 4993.9 4961.1 4997 4970.6 4988.9 4976.5 4997 4982.3 5005 4988.2 5015 4988.2 5018.1 4997.7 5010 5003.6 5013.1 4994.1 5021.2 5e3 5024.3 5009.5 5034.3 5009.5 5026.2 5003.6 5034.3 5009.5 5042.4 5003.6 5050.5 5009.5 5053.6 5e3 5056.7 4990.5 5053.6 4980.9 5061.7 4975.1 5069.8 4980.9 5059.8 4980.9 5062.9 4971.4 5071 4965.6 5067.9 4956 5064.8 4965.6 5067.9 4956 5059.8 4950.2 5062.9 4940.7 5052.9 4940.7 5042.9 4940.7 5034.8 4946.5" clip-path="url(#a)" fill="none" stroke="#000" stroke-linecap="round"/>
<polyline points="5034.8 4946.5 5026.7 4940.7 5029.8 4931.2 5032.9 4940.7 5022.9 4940.7 5014.8 4934.8 5006.7 4940.7 5016.7 4940.7 5006.7 4940.7 5003.6 4950.2 4993.6 4950.2 4996.7 4959.7 4999.8 4969.2 5007.9 4975.1 5004.8 4984.6 4994.8 4984.6 5002.9 4978.7 5006 4988.2 5002.9 4997.7 5011 5003.6 5007.9 4994.1 5011 5003.6 5021 5003.6 5024 5013.1 5032.1 5007.2 5040.2 5001.4 5043.3 4991.8 5053.3 4991.8 5056.4 5001.4 5048.3 4995.5 5056.4 4989.6 5066.4 4989.6 5069.5 4980.1 5061.4 4986 5069.5 4980.1 5066.4 4970.6 5074.5 4964.7 5066.4 4958.8 5058.3 4952.9 5048.3 4952.9 5045.2 4943.4 5053.3 4937.6 5050.2 4947.1" clip-path="url(#a)" fill="none" stroke="#000" stroke-linecap="round"/>
<polyline points="5050.2 4947.1 5042.1 4941.2 5039 4931.7 5029 4931.7 5037.1 4937.6 5029 4931.7 5021 4937.6 5012.9 4931.7 5009.8 4941.2 5006.7 4950.7 5009.8 4960.2 5001.7 4966.1 4993.6 4960.2 5003.6 4960.2 5000.5 4969.7 4992.4 4975.6 4995.5 4985.1 4998.6 4975.6 4995.5 4985.1 5003.6 4991 5000.5 5000.5 5010.5 5000.5 5020.5 5000.5 5028.6 4994.6 5036.7 5000.5 5033.6 5010 5030.5 5000.5 5040.5 5000.5 5048.6 5006.4 5056.7 5000.5 5046.7 5000.5 5056.7 5000.5 5059.8 4991 5069.8 4991 5066.7 4981.5 5063.6 4972 5055.5 4966.1 5058.6 4956.6 5068.6 4956.6 5060.5 4962.5 5057.4 4952.9 5060.5 4943.4 5052.4 4937.6" clip-path="url(#a)" fill="none" stroke="#000" stroke-linecap="round"/>
<polyline points="5052.4 4937.6 5055.5 4947.1 5052.4 4937.6 5042.4 4937.6 5039.3 4928 5031.2 4933.9 5023.1 4939.8 5020 4949.3 5010 4949.3 5007 4939.8 5015 4945.7 5007 4951.6 4997 4951.6 4993.9 4961.1 5002 4955.2 4993.9 4961.1 4997 4970.6 4988.9 4976.5 4997 4982.3 5005 4988.2 5015 4988.2 5018.1 4997.7 5010 5003.6 5013.1 4994.1 5021.2 5e3 5024.3 5009.5 5034.3 5009.5 5026.2 5003.6 5034.3 5009.5 5042.4 5003.6 5050.5 5009.5 5053.6 5e3 5056.7 4990.5 5053.6 4980.9 5061.7 4975.1 5069.8 4980.9 5059.8 4980.9 5062.9 4971.4 5071 4965.6 5067.9 4956 5064.8 4965.6 5067.9 4956 5059.8 4950.2" clip-path="url(#a)" fill="none" stroke="#000" stroke-linecap="round"/>
<polyline points="5059.8 4950.2 5062.9 4940.7 5052.9 4940.7 5042.9 4940.7 5034.8 4946.5 5026.7 4940.7 5029.8 4931.2 5032.9 4940.7 5022.9 4940.7 5014.8 4934.8 5006.7 4940.7 5016.7 4940.7 5006.7 4940.7 5003.6 4950.2 4993.6 4950.2 4996.7 4959.7 4999.8 4969.2 5007.9 4975.1 5004.8 4984.6 4994.8 4984.6 5002.9 4978.7 5006 4988.2 5002.9 4997.7 5011 5003.6 5007.9 4994.1 5011 5003.6 5021 5003.6 5024 5013.1 5032.1 5007.2 5040.2 5001.4 5043.3 4991.8 5053.3 4991.8 5056.4 5001.4 5048.3 4995.5 5056.4 4989.6 5066.4 4989.6 5069.5 4980.1 5061.4 4986 5069.5 4980.1 5066.4 4970.6 5074.5 4964.7 5066.4 4958.8 5058.3 4952.9" clip-path="url(#a)" fill="none" stroke="#000" stroke-linecap="round"/>
<polyline points="5058.3 4952.9 5048.3 4952.9 5045.2 4943.4 5053.3 4937.6 5050.2 4947.1 5042.1 4941.2 5039 4931.7 5029 4931.7 5037.1 4937.6 5029 4931.7 5021 4937.6 5012.9 4931.7 5009.8 4941.2 5006.7 4950.7 5009.8 4960.2 5001.7 4966.1 4993.6 4960.2 5003.6 4960.2 5000.5 4969.7 4992.4 4975.6 4995.5 4985.1 4998.6 4975.6 4995.5 4985.1 5003.6 4991 5000.5 5000.5 5010.5 5000.5 5020.5 5000.5 5028.6 4994.6 5036.7 5000.5 5033.6 5010 5030.5 5000.5 5040.5 5000.5 5048.6 5006.4 5056.7 5000.5 5046.7 5000.5 5056.7 5000.5 5059.8 4991 5069.8 4991 5066.7 4981.5 5063.6 4972 5055.5 4966.1 5058.6 4956.6 5068.6 4956.6" clip-path="url(#a)" fill="none" stroke="#000" stroke-linecap="round"/>
<polyline points="5068.6 4956.6 5060.5 4962.5 5057.4 4952.9 5060.5 4943.4 5052.4 4937.6 5055.5 4947.1 5052.4 4937.6 5042.4 4937.6 5039.3 4928 5031.2 4933.9 5023.1 4939.8 5020 4949.3 5010 4949.3 5007 4939.8 5015 4945.7 5007 4951.6 4997 4951.6 4993.9 4961.1 5002 4955.2 4993.9 4961.1 4997 4970.6 4988.9 4976.5 4997 4982.3 5005 4988.2 5015 4988.2 5018.1 4997.7 5010 5003.6 5013.1 4994.1 5021.2 5e3 5024.3 5009.5 5034.3 5009.5 5026.2 5003.6 5034.3 5009.5 5042.4 5003.6 5050.5 5009.5 5053.6 5e3 5056.7 4990.5 5053.6 4980.9 5061.7 4975.1 5069.8 4980.9 5059.8 4980.9 5062.9 4971.4 5071 4965.6" clip-path="url(#a)" fill="none" stroke="#000" stroke-linecap="round"/>
<polyline points="5071 4965.6 5067.9 4956 5064.8 4965.6 5067.9 4956 5059.8 4950.2 5062.9 4940.7 5052.9 4940.7 5042.9 4940.7 5034.8 4946.5 5026.7 4940.7 5029.8 4931.2 5032.9 4940.7 5022.9 4940.7 5014.8 4934.8 5006.7 4940.7 5016.7 4940.7 5006.7 4940.7 5003.6 4950.2 4993.6 4950.2 4996.7 4959.7 4999.8 4969.2 5007.9 4975.1 5004.8 4984.6 4994.8 4984.6 5002.9 4978.7 5006 4988.2 5002.9 4997.7 5011 5003.6 5007.9 4994.1 5011 5003.6 5021 5003.6 5024 5013.1 5032.1 5007.2 5040.2 5001.4 5043.3 4991.8 5053.3 4991.8 5056.4 5001.4 5048.3 4995.5 5056.4 4989.6 5066.4 4989.6 5069.5 4980.1 5061.4 4986 5069.5 4980.1" clip-path="url(#a)" fill="none" stroke="#000" stroke-linecap="round"/>
<polyline points="5069.5 4980.1 5066.4 4970.6 5074.5 4964.7 5066.4 4958.8 5058.3 4952.9 5048.3 4952.9 5045.2 4943.4 5053.3 4937.6 5050.2 4947.1 5042.1 4941.2 5039 4931.7 5029 4931.7 5037.1 4937.6 5029 4931.7 5021 4937.6 5012.9 4931.7 5009.8 4941.2 5006.7 4950.7 5009.8 4960.2 5001.7 4966.1 4993.6 4960.2 5003.6 4960.2 5000.5 4969.7 4992.4 4975.6 4995.5 4985.1 4998.6 4975.6 4995.5 4985.1 5003.6 4991 5000.5 5000.5 5010.5 5000.5 5020.5 5000.5 5028.6 4994.6 5036.7 5000.5 5033.6 5010 5030.5 5000.5 5040.5 5000.5 5048.6 5006.4 5056.7 5000.5 5046.7 5000.5 5056.7 5000.5 5059.8 4991 5069.8 4991 5066.7 4981.5" clip-path="url(#a)" fill="none" stroke="#000" stroke-linecap="round"/>
<polyline points="5066.7 4981.5 5063.6 4972 5055.5 4966.1 5058.6 4956.6 5068.6 4956.6 5060.5 4962.5 5057.4 4952.9 5060.5 4943.4 5052.4 4937.6 5055.5 4947.1 5052.4 4937.6 5042.4 4937.6 5039.3 4928 5031.2 4933.9 5023.1 4939.8 5020 4949.3 5010 4949.3 5007 4939.8 5015 4945.7 5007 4951.6 4997 4951.6 4993.9 4961.1 5002 4955.2 4993.9 4961.1 4997 4970.6 4988.9 4976.5 4997 4982.3 5005 4988.2 5015 4988.2 5018.1 4997.7 5010 5003.6 5013.1 4994.1 5021.2 5e3 5024.3 5009.5 5034.3 5009.5 5026.2 5003.6 5034.3 5009.5 5042.4 5003.6 5050.5 5009.5 5053.6 5e3 5056.7 4990.5 5053.6 4980.9 5061.7 4975.1" clip-path="url(#a)" fill="none" stroke="#000" stroke-linecap="round"/>
<polyline points="5061.7 4975.1 5069.8 4980.9 5059.8 4980.9 5062.9 4971.4 5071 4965.6 5067.9 4956 5064.8 4965.6 5067.9 4956 5059.8 4950.2 5062.9 4940.7 5052.9 4940.7 5042.9 4940.7 5034.8 4946.5 5026.7 4940.7 5029.8 4931.2 5032.9 4940.7 5022.9 4940.7 5014.8 4934.8 5006.7 4940.7 5016.7 4940.7 5006.7 4940.7 5003.6 4950.2 4993.6 4950.2 4996.7 4959.7 4999.8 4969.2 5007.9 4975.1 5004.8 4984.6 4994.8 4984.6 5002.9 4978.7 5006 4988.2 5002.9 4997.7 5011 5003.6 5007.9 4994.1 5011 5003.6 5021 5003.6 5024 5013.1 5032.1 5007.2 5040.2 5001.4 5043.3 4991.8 5053.3 4991.8 5056.4 5001.4 5048.3 4995.5 5056.4 4989.6" clip-path="url(#a)" fill="none" stroke="#000" stroke-linecap="round"/>
<polyline points="5056.4 4989.6 5066.4 4989.6 5069.5 4980.1 5061.4 4986 5069.5 4980.1 5066.4 4970.6 5074.5 4964.7 5066.4 4958.8 5058.3 4952.9 5048.3 4952.9 5045.2 4943.4 5053.3 4937.6 5050.2 4947.1 5042.1 4941.2 5039 4931.7 5029 4931.7 5037.1 4937.6 5029 4931.7 5021 4937.6 5012.9 4931.7 5009.8 4941.2 5006.7 4950.7 5009.8 4960.2 5001.7 4966.1 4993.6 4960.2 5003.6 4960.2 5000.5 4969.7 4992.4 4975.6 4995.5 4985.1 4998.6 4975.6 4995.5 4985.1 5003.6 4991 5000.5 5000.5" clip-path="url(#a)" fill="none" stroke="#000" stroke-linecap="round"/>
</svg>
