<?xml version="1.0" encoding="utf-8" ?>
<svg baseProfile="full" height="10000px" version="1.1" width="10000px" xmlns="http://www.w3.org/2000/svg" xmlns:ev="http://www.w3.org/2001/xml-events" xmlns:xlink="http://www.w3.org/1999/xlink"><defs><clipPath id="border_clip"><rect height="10000" width="10000" x="0" y="0" /></clipPath></defs><polyline clip-path="url(#border_clip)" fill="none" points="5000.5,5000.5 5010.5,5000.5 5020.5,5000.5 5028.590169943749,4994.6221474770755 5025.5,5004.1327126400265 5017.409830056251,5010.010565162952 5027.409830056251,5010.010565162952 5035.5,5015.888417685876 5045.5,5015.888417685876 5035.5,5015.888417685876 5032.409830056251,5025.3989828488275 5035.5,5015.888417685876 5027.409830056251,5021.766270208801 5030.5,5031.276835371753 5038.590169943749,5025.3989828488275 5041.680339887499,5034.909548011779 5051.680339887499,5034.909548011779 5054.770509831248,5044.420113174731 5046.680339887499,5050.297965697656 5043.590169943749,5059.808530860607 5053.590169943749,5059.808530860607 5043.590169943749,5059.808530860607 5053.590169943749,5059.808530860607 5061.680339887499,5065.686383383532 5064.770509831248,5056.17581822058 5056.680339887499,5050.297965697656 5048.590169943749,5056.17581822058 5040.5,5062.053670743505 5048.590169943749,5067.931523266429 5051.680339887499,5058.420958103478 5061.680339887499,5058.420958103478 5069.770509831248,5064.298810626403 5066.680339887499,5073.809375789355 5076.680339887499,5073.809375789355 5086.680339887499,5073.809375789355 5076.680339887499,5073.809375789355 5066.680339887499,5073.809375789355 5063.590169943749,5064.298810626403 5060.5,5073.809375789355 5052.40983005625,5067.931523266429 5055.5,5077.442088429381 5052.40983005625,5067.931523266429 5062.40983005625,5067.93152326643" stroke="black" stroke-linecap="round" stroke-width="1" /><polyline clip-path="url(#border_clip)" fill="none" points="5062.40983005625,5067.93152326643 5054.319660112501,5073.809375789355 5057.40983005625,5083.319940952306 5047.40983005625,5083.319940952306 5039.319660112501,5089.19779347523 5036.229490168751,5098.708358638182 5026.229490168751,5098.708358638182 5034.319660112501,5092.830506115258 5024.319660112501,5092.830506115258 5032.40983005625,5098.708358638182 5040.5,5104.586211161107 5030.5,5104.586211161107 5033.590169943749,5095.075645998156 5041.680339887499,5100.95349852108 5044.770509831248,5110.464063684032 5036.680339887499,5104.586211161107 5046.680339887499,5104.586211161107 5054.770509831248,5098.708358638182 5062.860679774998,5092.830506115258 5065.950849718747,5083.319940952306 5069.041019662496,5092.830506115258 5065.950849718747,5102.34107127821 5074.041019662496,5096.463218755284 5084.041019662496,5096.463218755284 5092.131189606246,5090.58536623236 5084.041019662496,5096.463218755284 5087.131189606246,5105.973783918236 5084.041019662496,5096.463218755284 5080.950849718747,5105.973783918236 5089.041019662496,5111.851636441161 5092.131189606246,5102.34107127821 5100.221359549995,5108.218923801134 5108.311529493745,5102.34107127821 5116.401699437494,5108.218923801134 5113.311529493745,5117.729488964086 5116.401699437494,5127.240054127037 5124.491869381244,5121.362201604113 5116.401699437494,5127.240054127037 5124.491869381244,5121.362201604113 5134.491869381244,5121.362201604113 5131.401699437494,5111.851636441162 5121.401699437494,5111.851636441162 5118.311529493745,5121.362201604113" stroke="black" stroke-linecap="round" stroke-width="1" /><polyline clip-path="url(#border_clip)" fill="none" points="5118.311529493745,5121.362201604113 5115.221359549995,5130.872766767065 5125.221359549995,5130.872766767065 5122.131189606246,5121.362201604113 5130.221359549995,5115.484349081188 5140.221359549995,5115.484349081188 5143.311529493745,5124.99491424414 5151.401699437494,5119.117061721216 5159.491869381244,5113.23920919829 5151.401699437494,5119.117061721216 5143.311529493745,5124.99491424414 5135.221359549995,5119.117061721215 5138.311529493745,5128.627626884167 5128.311529493745,5128.627626884167 5136.401699437494,5134.505479407091 5128.311529493745,5128.627626884167 5136.401699437494,5122.749774361242 5133.311529493744,5132.260339524193 5141.401699437494,5138.1381920471185 5133.311529493744,5144.016044570043 5130.221359549995,5153.526609732994 5133.311529493744,5163.037174895946 5125.221359549995,5168.9150274188705 5128.311529493744,5159.404462255919 5120.221359549995,5165.282314778844 5130.221359549995,5165.282314778844 5140.221359549995,5165.282314778844 5132.131189606245,5171.1601673017685 5129.041019662496,5161.649602138817 5139.041019662496,5161.6496021388175 5147.131189606245,5167.527454661742 5137.131189606245,5167.527454661742 5145.221359549995,5161.6496021388175 5148.311529493744,5152.139036975866 5151.401699437494,5142.6284718129145 5148.311529493745,5133.117906649963 5156.401699437494,5138.995759172887 5159.491869381243,5148.506324335839 5162.582039324993,5138.995759172887 5170.672209268742,5133.117906649963 5173.762379212492,5123.607341487012 5170.672209268742,5133.117906649963 5178.762379212492,5138.995759172888" stroke="black" stroke-linecap="round" stroke-width="1" /><polyline clip-path="url(#border_clip)" fill="none" points="5178.762379212492,5138.995759172888 5170.672209268742,5133.117906649963 5173.762379212492,5142.6284718129145 5183.762379212492,5142.6284718129145 5180.672209268742,5133.117906649963 5190.672209268742,5133.1179066499635 5193.762379212492,5123.607341487012 5203.762379212492,5123.607341487012 5206.852549156241,5133.1179066499635 5214.942719099991,5138.995759172888 5218.03288904374,5129.485194009937 5214.942719099991,5138.995759172888 5218.03288904374,5129.485194009937 5226.12305898749,5123.6073414870125 5218.032889043741,5117.729488964087 5209.942719099991,5123.607341487012 5213.03288904374,5133.1179066499635 5216.12305898749,5142.628471812915 5224.213228931239,5136.75061928999 5216.12305898749,5130.8727667670655 5219.213228931239,5121.3622016041145 5227.303398874989,5115.484349081189 5235.3935688187385,5121.3622016041145 5238.483738762488,5111.851636441163 5241.573908706238,5102.3410712782115 5238.483738762488,5111.851636441163 5235.3935688187385,5121.3622016041145 5225.3935688187385,5121.3622016041145 5233.483738762488,5127.240054127039 5225.3935688187385,5133.1179066499635 5235.3935688187385,5133.1179066499635 5225.3935688187385,5133.1179066499635 5228.483738762488,5123.6073414870125 5231.5739087062375,5133.1179066499635 5241.5739087062375,5133.1179066499635 5238.4837387624875,5142.628471812915 5241.5739087062375,5152.139036975867 5249.664078649987,5158.016889498792 5246.573908706237,5167.527454661744 5243.4837387624875,5158.016889498792 5240.393568818738,5167.527454661743 5248.4837387624875,5161.649602138818 5256.5739087062375,5155.771749615894" stroke="black" stroke-linecap="round" stroke-width="1" /><polyline clip-path="url(#border_clip)" fill="none" points="5256.5739087062375,5155.771749615894 5253.4837387624875,5165.282314778846 5245.3935688187385,5159.40446225592 5253.4837387624875,5153.526609732996 5263.4837387624875,5153.526609732996 5255.3935688187385,5159.404462255921 5258.4837387624875,5149.893897092969 5255.3935688187385,5140.383331930017 5252.303398874989,5130.872766767066 5244.213228931239,5124.994914244141 5254.213228931239,5124.994914244142 5262.303398874989,5130.872766767066 5259.213228931239,5121.3622016041145 5262.303398874989,5111.8516364411635 5259.21322893124,5102.3410712782115 5262.303398874989,5111.8516364411635 5272.303398874989,5111.8516364411635 5262.303398874989,5111.8516364411635 5270.393568818739,5117.729488964088 5278.483738762488,5111.8516364411635 5270.393568818739,5105.973783918239 5278.483738762488,5100.095931395314 5275.393568818739,5090.5853662323625 5283.483738762489,5084.707513709438 5291.573908706238,5090.5853662323625 5301.573908706238,5090.585366232363 5298.483738762489,5081.0748010694115 5301.573908706238,5090.585366232363 5298.483738762489,5081.0748010694115 5301.573908706239,5071.5642359064595 5291.573908706239,5071.5642359064595 5288.483738762489,5081.0748010694115 5296.573908706238,5086.952653592336 5304.664078649988,5092.830506115261 5307.754248593737,5083.3199409523095 5297.754248593737,5083.3199409523095 5294.664078649988,5073.809375789358 5297.754248593738,5064.2988106264065 5307.754248593738,5064.2988106264065 5304.664078649988,5054.788245463455 5301.573908706239,5045.277680300504 5304.664078649988,5054.788245463455 5307.754248593738,5064.2988106264065" stroke="black" stroke-linecap="round" stroke-width="1" /><polyline clip-path="url(#border_clip)" fill="none" points="5307.754248593738,5064.2988106264065 5299.664078649988,5070.176663149331 5309.664078649988,5070.176663149331 5306.573908706238,5079.687228312283 5314.664078649988,5073.8093757893585 5306.573908706238,5079.687228312283 5303.483738762489,5070.176663149331 5311.573908706238,5076.0545156722565 5319.664078649988,5070.176663149332 5322.754248593737,5079.687228312283 5330.844418537487,5085.565080835208 5340.844418537487,5085.565080835208 5343.9345884812365,5095.07564599816 5335.8444185374865,5089.197793475235 5338.9345884812365,5098.708358638187 5342.0247584249855,5089.197793475235 5345.1149283687355,5079.687228312284 5348.205098312485,5089.197793475236 5338.205098312485,5089.197793475235 5341.2952682562345,5079.687228312284 5349.3854381999845,5073.809375789359 5346.2952682562345,5083.31994095231 5343.2050983124855,5073.809375789359 5335.1149283687355,5067.931523266434 5327.024758424986,5062.053670743509 5317.024758424986,5062.0536707435085 5325.114928368736,5056.175818220584 5335.114928368736,5056.175818220585 5327.024758424986,5050.2979656976595 5323.934588481237,5040.787400534708 5315.844418537488,5034.909548011783 5323.934588481237,5040.787400534708 5332.024758424987,5034.909548011783 5323.934588481237,5040.787400534708 5333.934588481237,5040.7874005347085 5337.024758424987,5031.2768353717565 5327.024758424987,5031.2768353717565 5330.114928368737,5021.766270208805 5322.024758424987,5015.88841768588 5325.114928368737,5006.377852522928 5335.114928368737,5006.377852522929 5343.205098312487,5000.500000000005 5335.114928368737,4994.622147477079" stroke="black" stroke-linecap="round" stroke-width="1" /><polyline clip-path="url(#border_clip)" fill="none" points="5335.114928368737,4994.622147477079 5343.205098312487,5000.500000000005 5335.114928368737,4994.622147477079 5332.024758424988,4985.111582314128 5323.934588481239,4990.989434837053 5327.024758424988,5000.500000000004 5337.024758424988,5000.500000000005 5347.024758424988,5000.500000000005 5343.934588481239,4990.989434837053 5335.844418537489,4996.867287359977 5327.75424859374,4990.989434837053 5324.664078649991,4981.478869674101 5332.75424859374,4975.601017151176 5324.664078649991,4969.723164628251 5316.573908706242,4963.845312105326 5324.664078649991,4969.723164628252 5332.75424859374,4975.601017151176 5329.664078649991,4985.111582314127 5337.75424859374,4979.233729791204 5340.844418537489,4988.744294954155 5343.934588481239,4979.233729791204 5340.844418537489,4988.744294954155 5332.75424859374,4982.86644243123 5342.75424859374,4982.86644243123 5345.84441853749,4973.355877268279 5353.934588481239,4979.233729791204 5363.934588481239,4979.233729791204 5372.024758424989,4973.355877268279 5380.114928368738,4979.2337297912045 5370.114928368738,4979.2337297912045 5378.205098312487,4985.111582314129 5375.114928368738,4975.601017151177 5372.024758424989,4966.090451988226 5380.114928368738,4971.968304511151 5372.024758424989,4977.846157034075 5368.93458848124,4968.335591871124 5372.024758424989,4958.825026708172 5375.114928368739,4968.335591871124 5367.024758424989,4962.457739348199 5357.024758424989,4962.457739348199 5347.024758424989,4962.457739348199 5338.93458848124,4968.335591871123 5342.024758424989,4958.825026708171" stroke="black" stroke-linecap="round" stroke-width="1" /><polyline clip-path="url(#border_clip)" fill="none" points="5342.024758424989,4958.825026708171 5350.114928368739,4952.947174185247 5340.114928368739,4952.947174185247 5332.02475842499,4947.069321662321 5322.02475842499,4947.069321662321 5332.02475842499,4947.069321662321 5335.11492836874,4937.55875649937 5332.02475842499,4947.069321662321 5340.114928368739,4941.191469139397 5337.02475842499,4931.680903976445 5328.934588481241,4937.558756499369 5325.844418537492,4928.048191336418 5315.844418537492,4928.048191336417 5312.754248593742,4918.537626173466 5320.844418537492,4912.659773650542 5323.934588481242,4903.14920848759 5313.934588481242,4903.14920848759 5323.934588481242,4903.14920848759 5313.934588481242,4903.14920848759 5305.844418537493,4897.2713559646645 5302.754248593743,4906.781921127616 5310.844418537492,4912.659773650541 5318.934588481242,4906.781921127616 5327.024758424992,4900.904068604692 5318.934588481242,4895.026216081767 5315.844418537492,4904.536781244718 5305.844418537492,4904.536781244718 5297.754248593743,4898.658928721793 5300.844418537493,4889.148363558842 5290.844418537493,4889.148363558841 5280.844418537493,4889.148363558841 5290.844418537493,4889.148363558841 5300.844418537493,4889.148363558842 5303.934588481242,4898.658928721794 5307.024758424992,4889.148363558842 5315.114928368741,4895.026216081767 5312.024758424992,4885.5156509188155 5315.114928368741,4895.026216081767 5305.114928368741,4895.0262160817665 5313.205098312491,4889.148363558842 5310.114928368742,4879.637798395891 5320.114928368742,4879.637798395891 5328.205098312492,4873.7599458729665" stroke="black" stroke-linecap="round" stroke-width="1" /><polyline clip-path="url(#border_clip)" fill="none" points="5328.205098312492,4873.7599458729665 5331.295268256242,4864.249380710015 5341.295268256242,4864.249380710015 5333.205098312492,4870.12723323294 5343.205098312492,4870.12723323294 5335.114928368743,4864.249380710015 5327.024758424993,4858.37152818709 5337.024758424993,4858.371528187091 5333.934588481243,4867.882093350042 5325.844418537494,4862.004240827117 5322.754248593745,4852.4936756641655 5330.844418537494,4858.37152818709 5320.844418537494,4858.37152818709 5312.754248593745,4864.2493807100145 5304.664078649995,4870.127233232939 5301.573908706245,4879.63779839589 5298.483738762496,4870.127233232939 5301.573908706246,4860.616668069987 5293.483738762496,4866.494520592912 5283.483738762496,4866.494520592912 5275.393568818746,4872.372373115835 5283.483738762496,4866.494520592912 5280.393568818747,4856.98395542996 5283.483738762496,4866.494520592912 5286.573908706246,4856.98395542996 5278.483738762497,4851.106102907035 5275.393568818747,4860.616668069986 5267.303398874998,4854.738815547061 5259.213228931248,4860.616668069985 5251.123058987499,4854.738815547061 5254.2132289312485,4845.228250384109 5251.1230589874995,4835.717685221157 5243.0328890437495,4841.595537744081 5251.1230589874995,4835.717685221157 5243.0328890437495,4841.595537744081 5233.0328890437495,4841.595537744081 5236.123058987499,4851.106102907033 5246.123058987499,4851.106102907033 5249.2132289312485,4841.595537744082 5252.3033988749985,4832.08497258113 5242.3033988749985,4832.08497258113 5245.393568818748,4841.595537744081 5237.303398874998,4847.473390267006" stroke="black" stroke-linecap="round" stroke-width="1" /><polyline clip-path="url(#border_clip)" fill="none" points="5237.303398874998,4847.473390267006 5227.303398874998,4847.473390267006 5224.2132289312485,4837.962825104054 5216.123058987499,4843.8406776269785 5208.032889043749,4849.718530149903 5216.123058987499,4843.8406776269785 5224.2132289312485,4837.962825104054 5232.303398874998,4843.840677626979 5229.2132289312485,4834.3301124640275 5239.2132289312485,4834.330112464028 5231.1230589874995,4828.452259941103 5239.2132289312485,4834.330112464028 5231.123058987499,4840.207964986952 5234.2132289312485,4830.697399824001 5226.1230589874995,4824.8195473010755 5234.213228931249,4818.941694778151 5237.303398874999,4809.4311296152 5234.21322893125,4799.920564452248 5242.303398875,4794.042711929324 5239.21322893125,4803.5532770922755 5247.303398874999,4797.675424569351 5237.303398874999,4797.675424569351 5227.303398874999,4797.67542456935 5235.393568818749,4791.797572046426 5238.483738762498,4801.3081372093775 5228.483738762498,4801.308137209377 5220.393568818749,4795.430284686452 5230.393568818749,4795.430284686452 5222.303398874999,4801.308137209377 5219.213228931249,4810.8187023723285 5216.1230589874995,4820.3292675352795 5219.2132289312485,4829.8398326982315 5211.1230589874995,4823.961980175306 5208.03288904375,4814.451415012354 5204.9427191,4823.961980175306 5196.8525491562505,4829.839832698231 5193.7623792125005,4839.350397861182 5196.8525491562505,4829.839832698231 5188.762379212501,4823.961980175305 5196.8525491562505,4829.839832698231 5193.762379212501,4820.329267535279 5183.762379212501,4820.329267535278 5186.8525491562505,4829.83983269823" stroke="black" stroke-linecap="round" stroke-width="1" /><polyline clip-path="url(#border_clip)" fill="none" points="5186.8525491562505,4829.83983269823 5176.8525491562505,4829.83983269823 5173.7623792125005,4839.350397861181 5163.7623792125005,4839.35039786118 5160.672209268751,4829.839832698229 5152.582039325002,4823.961980175303 5149.491869381252,4833.472545338254 5152.582039325002,4823.961980175303 5149.491869381252,4833.472545338254 5141.401699437502,4839.350397861179 5149.4918693812515,4845.228250384104 5157.5820393250015,4839.35039786118 5154.491869381252,4829.839832698228 5151.401699437503,4820.329267535277 5143.311529493754,4826.2071200582 5151.401699437503,4832.084972581126 5148.311529493753,4841.595537744078 5140.221359550003,4847.473390267001 5132.131189606254,4841.595537744077 5129.041019662504,4851.106102907028 5125.950849718754,4860.616668069979 5129.041019662504,4851.106102907028 5132.131189606254,4841.595537744077 5142.131189606254,4841.595537744077 5134.041019662505,4835.717685221151 5142.131189606254,4829.839832698228 5132.131189606254,4829.839832698227 5142.131189606254,4829.839832698228 5139.041019662504,4839.350397861179 5135.950849718756,4829.839832698227 5125.950849718755,4829.839832698227 5129.041019662505,4820.329267535275 5125.950849718757,4810.818702372324 5117.860679775007,4804.940849849399 5120.950849718757,4795.430284686447 5124.041019662506,4804.940849849399 5127.131189606256,4795.4302846864475 5119.041019662507,4801.308137209372 5110.950849718757,4807.185989732296 5114.041019662507,4797.675424569345 5122.131189606256,4803.55327709227 5114.041019662506,4809.431129615194 5104.041019662506,4809.431129615194" stroke="black" stroke-linecap="round" stroke-width="1" /><polyline clip-path="url(#border_clip)" fill="none" points="5104.041019662506,4809.431129615194 5112.131189606256,4803.553277092269 5109.041019662506,4813.063842255221 5112.131189606255,4822.574407418172 5115.221359550004,4832.084972581124 5123.311529493753,4837.962825104049 5113.311529493753,4837.9628251040485 5105.221359550004,4832.084972581124 5108.3115294937525,4841.595537744075 5105.2213595500025,4851.106102907027 5108.311529493752,4860.616668069979 5105.2213595500025,4851.106102907027 5095.2213595500025,4851.106102907026 5105.2213595500025,4851.106102907027 5097.131189606253,4845.228250384102 5089.0410196625035,4851.106102907026 5097.131189606253,4856.983955429951 5089.0410196625035,4862.861807952875 5092.1311896062525,4872.372373115827 5084.041019662503,4878.2502256387515 5075.9508497187535,4872.372373115826 5065.9508497187535,4872.372373115826 5069.041019662502,4881.882938278777 5065.9508497187535,4872.372373115826 5069.041019662502,4881.882938278777 5065.950849718752,4891.393503441729 5075.950849718752,4891.393503441729 5079.041019662503,4881.882938278778 5070.950849718753,4876.005085755853 5062.8606797750035,4870.127233232927 5059.770509831254,4879.637798395879 5069.770509831254,4879.637798395879 5072.860679775003,4889.148363558831 5069.770509831253,4898.658928721783 5059.770509831253,4898.658928721782 5062.860679775002,4908.169493884734 5065.950849718751,4917.680059047686 5062.860679775002,4908.169493884734 5059.770509831253,4898.658928721782 5067.860679775003,4892.781076198858 5057.860679775003,4892.781076198858 5060.950849718753,4883.270511035906 5052.860679775003,4889.14836355883" stroke="black" stroke-linecap="round" stroke-width="1" /><polyline clip-path="url(#border_clip)" fill="none" points="5052.860679775003,4889.14836355883 5060.950849718753,4883.270511035906 5064.041019662502,4892.781076198858 5055.950849718753,4886.903223675932 5047.860679775003,4892.781076198857 5044.770509831254,4883.270511035905 5036.6803398875045,4877.392658512979 5026.6803398875045,4877.392658512979 5023.590169943755,4867.882093350027 5031.6803398875045,4873.759945872953 5028.590169943755,4864.249380710001 5025.5000000000055,4873.759945872952 5022.4098300562555,4883.270511035904 5019.319660112506,4873.759945872952 5029.319660112506,4873.759945872953 5026.2294901687565,4883.270511035904 5018.1393202250065,4889.148363558828 5021.2294901687565,4879.637798395876 5024.3196601125055,4889.148363558828 5032.409830056255,4895.026216081754 5040.500000000004,4900.904068604679 5050.500000000004,4900.904068604679 5042.409830056255,4906.781921127604 5032.409830056254,4906.781921127603 5040.500000000004,4912.659773650528 5043.590169943752,4922.17033881348 5051.680339887502,4928.048191336406 5043.590169943752,4922.17033881348 5035.500000000002,4928.048191336405 5043.590169943752,4922.17033881348 5033.590169943752,4922.170338813479 5030.500000000002,4931.680903976431 5040.500000000002,4931.680903976431 5037.409830056252,4941.191469139383 5045.500000000001,4947.0693216623085 5042.409830056251,4956.57988682526 5032.409830056251,4956.579886825259 5024.319660112501,4962.457739348183 5032.40983005625,4968.335591871109 5024.319660112501,4962.457739348183 5032.40983005625,4968.335591871109 5035.499999999999,4977.8461570340605 5043.590169943749,4971.968304511136" stroke="black" stroke-linecap="round" stroke-width="1" /><polyline clip-path="url(#border_clip)" fill="none" points="5043.590169943749,4971.968304511136 5040.5,4962.457739348184 5030.5,4962.457739348184 5020.5,4962.457739348183 5023.590169943749,4971.968304511135 5031.680339887499,4966.090451988211 5039.770509831248,4971.968304511136 5042.860679774997,4981.478869674088 5034.770509831247,4987.356722197012 5042.860679774996,4993.234574719937 5050.950849718745,4999.112427242862 5042.860679774996,4993.234574719937 5034.770509831247,4987.356722197012 5037.860679774997,4977.8461570340605 5029.770509831247,4983.724009556985 5026.680339887498,4974.213444394033 5023.590169943748,4983.724009556984 5026.680339887498,4974.213444394033 5034.770509831247,4980.0912969169585 5024.770509831247,4980.091296916958 5021.680339887497,4989.601862079909 5013.590169943748,4983.724009556984 5003.590169943748,4983.724009556983 4995.499999999998,4989.601862079907 4987.409830056249,4983.724009556982 4997.409830056249,4983.724009556982 4989.3196601125,4977.846157034057 4992.409830056249,4987.356722197009 4995.499999999997,4996.867287359961 4987.409830056248,4990.989434837035 4995.499999999998,4985.111582314112 4998.590169943747,4994.622147477063 4995.499999999997,5004.132712640015 4992.409830056248,4994.622147477063 5000.499999999997,5000.499999999988 5010.499999999997,5000.499999999989 5020.499999999997,5000.499999999989 5028.590169943747,4994.6221474770655 5025.499999999997,5004.1327126400165 5017.409830056247,5010.010565162941 5027.409830056247,5010.010565162942 5035.499999999996,5015.888417685866 5045.499999999996,5015.888417685867" stroke="black" stroke-linecap="round" stroke-width="1" /><polyline clip-path="url(#border_clip)" fill="none" points="5045.499999999996,5015.888417685867 5035.499999999996,5015.888417685866 5032.409830056246,5025.398982848818 5035.499999999996,5015.888417685866 5027.409830056246,5021.766270208791 5030.499999999995,5031.276835371743 5038.590169943745,5025.398982848818 5041.6803398874945,5034.90954801177 5051.6803398874945,5034.909548011771 5054.7705098312435,5044.420113174723 5046.680339887494,5050.297965697647 5043.590169943743,5059.808530860599 5053.590169943744,5059.8085308606 5043.590169943743,5059.808530860599 5053.590169943744,5059.8085308606 5061.680339887493,5065.686383383525 5064.770509831243,5056.175818220573 5056.680339887494,5050.297965697648 5048.590169943744,5056.175818220572 5040.499999999994,5062.053670743497 5048.590169943743,5067.931523266421 5051.680339887493,5058.42095810347 5061.680339887493,5058.420958103471 5069.770509831242,5064.2988106263965 5066.680339887492,5073.8093757893475 5076.680339887492,5073.809375789348 5086.680339887492,5073.809375789349 5076.680339887492,5073.809375789348 5066.680339887492,5073.8093757893475 5063.590169943743,5064.298810626396 5060.499999999993,5073.8093757893475 5052.409830056244,5067.931523266422 5055.499999999993,5077.442088429374 5052.409830056244,5067.931523266422 5062.409830056244,5067.931523266423 5054.319660112494,5073.809375789347 5057.409830056243,5083.319940952299 5047.409830056243,5083.319940952298 5039.319660112493,5089.197793475222 5036.229490168743,5098.708358638173 5026.229490168742,5098.708358638172 5034.319660112492,5092.830506115249 5024.319660112492,5092.830506115248" stroke="black" stroke-linecap="round" stroke-width="1" /><polyline clip-path="url(#border_clip)" fill="none" points="5024.319660112492,5092.830506115248 5032.409830056241,5098.708358638173 5040.49999999999,5104.586211161099 5030.49999999999,5104.586211161098 5033.590169943741,5095.075645998147 5041.68033988749,5100.953498521072 5044.770509831238,5110.464063684024 5036.680339887489,5104.586211161099 5046.680339887489,5104.586211161099 5054.770509831239,5098.708358638175 5062.860679774989,5092.8305061152505 5065.95084971874,5083.3199409522995 5069.041019662488,5092.830506115251 5065.950849718738,5102.341071278202 5074.041019662488,5096.463218755278 5084.041019662488,5096.463218755279 5092.131189606238,5090.585366232355 5084.041019662488,5096.463218755279 5087.131189606237,5105.973783918231 5084.041019662488,5096.463218755279 5080.950849718738,5105.973783918231 5089.041019662487,5111.851636441156 5092.131189606237,5102.341071278204 5100.221359549986,5108.21892380113 5108.311529493736,5102.341071278206 5116.401699437485,5108.2189238011315 5113.311529493735,5117.7294889640825 5116.401699437484,5127.240054127034 5124.491869381234,5121.36220160411 5116.401699437484,5127.240054127034 5124.491869381234,5121.36220160411 5134.491869381234,5121.362201604111 5131.401699437485,5111.851636441159 5121.401699437485,5111.851636441158 5118.311529493735,5121.36220160411 5115.221359549984,5130.872766767061 5125.221359549984,5130.872766767062 5122.131189606236,5121.36220160411 5130.221359549986,5115.484349081185 5140.221359549986,5115.484349081186 5143.311529493735,5124.994914244138 5151.401699437485,5119.117061721215 5159.491869381235,5113.23920919829" stroke="black" stroke-linecap="round" stroke-width="1" /><polyline clip-path="url(#border_clip)" fill="none" points="5159.491869381235,5113.23920919829 5151.401699437485,5119.117061721215 5143.311529493735,5124.994914244138 5135.221359549986,5119.117061721213 5138.311529493734,5128.627626884165 5128.311529493734,5128.627626884164 5136.401699437483,5134.505479407089 5128.311529493734,5128.627626884164 5136.401699437484,5122.74977436124 5133.311529493734,5132.260339524191 5141.401699437483,5138.138192047117 5133.311529493733,5144.016044570041 5130.221359549983,5153.526609732992 5133.3115294937315,5163.037174895944 5125.221359549982,5168.915027418868 5128.3115294937315,5159.404462255917 5120.221359549982,5165.282314778841 5130.221359549982,5165.282314778842 5140.2213595499825,5165.282314778842 5132.1311896062325,5171.160167301767 5129.041019662483,5161.649602138815 5139.041019662483,5161.649602138816 5147.1311896062325,5167.527454661741 5137.1311896062325,5167.52745466174 5145.2213595499825,5161.649602138816 5148.311529493732,5152.139036975865 5151.401699437483,5142.628471812914 5148.311529493734,5133.117906649962 5156.401699437483,5138.995759172887 5159.491869381232,5148.506324335839 5162.582039324982,5138.995759172887 5170.672209268732,5133.1179066499635 5173.762379212482,5123.607341487012 5170.672209268732,5133.1179066499635 5178.762379212481,5138.995759172889 5170.672209268732,5133.1179066499635 5173.762379212481,5142.628471812915 5183.762379212481,5142.628471812916 5180.672209268732,5133.117906649964 5190.672209268732,5133.117906649965 5193.762379212483,5123.607341487013 5203.762379212483,5123.607341487014 5206.852549156231,5133.117906649966" stroke="black" stroke-linecap="round" stroke-width="1" /><polyline clip-path="url(#border_clip)" fill="none" points="5206.852549156231,5133.117906649966 5214.94271909998,5138.995759172892 5218.032889043731,5129.485194009941 5214.94271909998,5138.995759172892 5218.032889043731,5129.485194009941 5226.123058987481,5123.607341487016 5218.032889043732,5117.729488964091 5209.942719099982,5123.607341487015 5213.03288904373,5133.117906649967 5216.123058987479,5142.628471812919 5224.213228931229,5136.750619289995 5216.12305898748,5130.872766767069 5219.21322893123,5121.362201604118 5227.30339887498,5115.484349081194 5235.393568818729,5121.362201604119 5238.48373876248,5111.851636441168 5241.57390870623,5102.341071278216 5238.48373876248,5111.851636441168 5235.393568818729,5121.362201604119 5225.393568818729,5121.362201604118 5233.483738762478,5127.240054127044 5225.393568818728,5133.117906649968 5235.393568818728,5133.117906649969 5225.393568818728,5133.117906649968 5228.483738762479,5123.607341487016 5231.5739087062275,5133.117906649968 5241.5739087062275,5133.117906649969 5238.4837387624775,5142.628471812921 5241.573908706226,5152.139036975873 5249.664078649975,5158.016889498798 5246.573908706225,5167.527454661749 5243.483738762476,5158.016889498797 5240.393568818726,5167.527454661748 5248.483738762476,5161.649602138825 5256.573908706226,5155.7717496159 5253.483738762476,5165.282314778852 5245.393568818727,5159.404462255927 5253.483738762477,5153.526609733002 5263.483738762477,5153.526609733003 5255.393568818727,5159.404462255928 5258.483738762477,5149.893897092976 5255.393568818728,5140.383331930024 5252.303398874979,5130.872766767072" stroke="black" stroke-linecap="round" stroke-width="1" /><polyline clip-path="url(#border_clip)" fill="none" points="5252.303398874979,5130.872766767072 5244.21322893123,5124.9949142441465 5254.21322893123,5124.994914244147 5262.303398874979,5130.872766767073 5259.213228931231,5121.362201604121 5262.303398874981,5111.85163644117 5259.213228931233,5102.341071278218 5262.303398874981,5111.85163644117 5272.303398874981,5111.851636441171 5262.303398874981,5111.85163644117 5270.39356881873,5117.729488964095 5278.48373876248,5111.851636441172 5270.393568818731,5105.973783918245 5278.483738762481,5100.095931395322 5275.393568818733,5090.58536623237 5283.483738762483,5084.707513709445 5291.573908706232,5090.585366232372 5301.573908706232,5090.5853662323725 5298.483738762483,5081.074801069421 5301.573908706232,5090.5853662323725 5298.483738762483,5081.074801069421 5301.573908706234,5071.564235906469 5291.573908706234,5071.564235906468 5288.483738762483,5081.07480106942 5296.573908706232,5086.952653592345 5304.664078649981,5092.8305061152705 5307.754248593732,5083.3199409523195 5297.754248593732,5083.319940952319 5294.664078649983,5073.809375789367 5297.754248593733,5064.298810626415 5307.754248593734,5064.298810626416 5304.664078649985,5054.788245463464 5301.573908706237,5045.277680300512 5304.664078649985,5054.788245463464 5307.754248593734,5064.298810626416 5299.664078649983,5070.17666314934 5309.664078649984,5070.176663149341 5306.573908706233,5079.687228312292 5314.664078649983,5073.8093757893685 5306.573908706233,5079.687228312292 5303.483738762485,5070.17666314934 5311.573908706234,5076.054515672266 5319.664078649984,5070.176663149342" stroke="black" stroke-linecap="round" stroke-width="1" /><polyline clip-path="url(#border_clip)" fill="none" points="5319.664078649984,5070.176663149342 5322.754248593732,5079.687228312294 5330.844418537481,5085.565080835219 5340.844418537481,5085.56508083522 5343.93458848123,5095.075645998172 5335.844418537481,5089.197793475247 5338.934588481229,5098.708358638199 5342.02475842498,5089.197793475247 5345.11492836873,5079.687228312296 5348.205098312479,5089.197793475248 5338.205098312479,5089.197793475247 5341.295268256229,5079.687228312296 5349.385438199979,5073.809375789371 5346.295268256229,5083.319940952322 5343.20509831248,5073.80937578937 5335.114928368731,5067.931523266445 5327.024758424982,5062.053670743519 5317.024758424982,5062.0536707435185 5325.114928368732,5056.175818220595 5335.114928368733,5056.175818220596 5327.024758424984,5050.29796569767 5323.934588481235,5040.7874005347185 5315.844418537486,5034.909548011792 5323.934588481235,5040.7874005347185 5332.024758424985,5034.909548011794 5323.934588481235,5040.7874005347185 5333.934588481235,5040.787400534719 5337.0247584249855,5031.276835371767 5327.0247584249855,5031.2768353717665 5330.1149283687355,5021.7662702088155 5322.024758424986,5015.88841768589 5325.114928368737,5006.377852522938 5335.114928368737,5006.377852522939 5343.205098312487,5000.5000000000155 5335.114928368738,4994.62214747709 5343.205098312487,5000.5000000000155 5335.114928368738,4994.62214747709 5332.02475842499,4985.111582314138 5323.934588481239,4990.989434837062 5327.024758424988,5000.500000000014 5337.024758424988,5000.500000000015 5347.024758424988,5000.5000000000155 5343.93458848124,4990.9894348370635" stroke="black" stroke-linecap="round" stroke-width="1" /><polyline clip-path="url(#border_clip)" fill="none" points="5343.93458848124,4990.9894348370635 5335.84441853749,4996.867287359988 5327.754248593741,4990.989434837063 5324.664078649992,4981.478869674111 5332.754248593742,4975.601017151186 5324.664078649994,4969.723164628261 5316.573908706245,4963.845312105335 5324.664078649994,4969.723164628261 5332.754248593742,4975.601017151186 5329.664078649992,4985.111582314138 5337.754248593742,4979.233729791214 5340.84441853749,4988.7442949541655 5343.934588481241,4979.2337297912145 5340.84441853749,4988.7442949541655 5332.754248593742,4982.86644243124 5342.754248593742,4982.866442431241 5345.844418537492,4973.35587726829 5353.934588481241,4979.233729791215 5363.934588481241,4979.233729791216 5372.024758424991,4973.355877268293 5380.11492836874,4979.233729791218 5370.11492836874,4979.233729791217 5378.205098312489,4985.111582314143 5375.114928368741,4975.601017151191 5372.024758424992,4966.090451988239 5380.114928368741,4971.968304511164 5372.024758424991,4977.846157034089 5368.934588481242,4968.335591871137 5372.024758424993,4958.825026708185 5375.114928368741,4968.335591871137 5367.024758424993,4962.457739348211 5357.024758424992,4962.45773934821 5347.024758424992,4962.4577393482095 5338.934588481242,4968.335591871133 5342.024758424993,4958.825026708182 5350.114928368743,4952.947174185258 5340.114928368743,4952.947174185257 5332.024758424994,4947.069321662331 5322.024758424994,4947.06932166233 5332.024758424994,4947.069321662331 5335.114928368744,4937.55875649938 5332.024758424994,4947.069321662331 5340.114928368744,4941.191469139408" stroke="black" stroke-linecap="round" stroke-width="1" /><polyline clip-path="url(#border_clip)" fill="none" points="5340.114928368744,4941.191469139408 5337.0247584249955,4931.680903976456 5328.934588481245,4937.558756499379 5325.8444185374965,4928.048191336427 5315.8444185374965,4928.0481913364265 5312.754248593748,4918.537626173475 5320.844418537498,4912.65977365055 5323.934588481248,4903.149208487599 5313.934588481248,4903.149208487598 5323.934588481248,4903.149208487599 5313.934588481248,4903.149208487598 5305.844418537499,4897.271355964673 5302.754248593749,4906.781921127624 5310.844418537498,4912.659773650549 5318.934588481248,4906.7819211276255 5327.024758424998,4900.904068604702 5318.934588481249,4895.026216081776 5315.844418537499,4904.5367812447275 5305.844418537499,4904.536781244726 5297.75424859375,4898.6589287218 5300.8444185375,4889.148363558849 5290.8444185375,4889.148363558848 5280.8444185375,4889.1483635588465 5290.8444185375,4889.148363558848 5300.8444185375,4889.148363558849 5303.934588481249,4898.658928721801 5307.024758424999,4889.14836355885 5315.114928368748,4895.026216081776 5312.024758425,4885.515650918824 5315.114928368748,4895.026216081776 5305.114928368748,4895.026216081775 5313.205098312498,4889.14836355885 5310.11492836875,4879.637798395898 5320.11492836875,4879.637798395899 5328.2050983125,4873.759945872976 5331.295268256251,4864.2493807100245 5341.295268256251,4864.249380710025 5333.205098312501,4870.127233232949 5343.205098312501,4870.12723323295 5335.114928368752,4864.2493807100245 5327.024758425003,4858.371528187099 5337.024758425003,4858.3715281871 5333.934588481253,4867.882093350051" stroke="black" stroke-linecap="round" stroke-width="1" /><polyline clip-path="url(#border_clip)" fill="none" points="5333.934588481253,4867.882093350051 5325.844418537504,4862.004240827126 5322.754248593755,4852.493675664174 5330.844418537504,4858.371528187099 5320.844418537504,4858.371528187098 5312.754248593754,4864.249380710022 5304.664078650004,4870.127233232946 5301.573908706253,4879.637798395897 5298.483738762505,4870.127233232945 5301.573908706255,4860.616668069994 5293.483738762505,4866.494520592918 5283.483738762505,4866.494520592917 5275.393568818755,4872.372373115841 5283.483738762505,4866.494520592917 5280.393568818757,4856.983955429965 5283.483738762505,4866.494520592917 5286.573908706256,4856.983955429966 5278.483738762507,4851.10610290704 5275.393568818756,4860.616668069992 5267.303398875007,4854.738815547065 5259.213228931257,4860.61666806999 5251.123058987508,4854.7388155470635 5254.2132289312585,4845.2282503841125 5251.1230589875095,4835.7176852211605 5243.0328890437595,4841.595537744084 5251.1230589875095,4835.7176852211605 5243.0328890437595,4841.595537744084 5233.0328890437595,4841.595537744083 5236.123058987508,4851.106102907035 5246.123058987508,4851.106102907036 5249.2132289312585,4841.595537744085 5252.303398875009,4832.084972581134 5242.3033988750085,4832.084972581133 5245.393568818758,4841.595537744085 5237.303398875008,4847.473390267009 5227.303398875007,4847.473390267008 5224.2132289312585,4837.962825104056 5216.123058987509,4843.840677626979 5208.032889043758,4849.718530149903 5216.123058987509,4843.840677626979 5224.2132289312585,4837.962825104056 5232.303398875008,4843.840677626981 5229.213228931259,4834.330112464029" stroke="black" stroke-linecap="round" stroke-width="1" /><polyline clip-path="url(#border_clip)" fill="none" points="5229.213228931259,4834.330112464029 5239.213228931259,4834.33011246403 5231.12305898751,4828.452259941105 5239.213228931259,4834.33011246403 5231.123058987509,4840.207964986954 5234.213228931259,4830.697399824003 5226.12305898751,4824.819547301077 5234.213228931261,4818.941694778153 5237.303398875011,4809.431129615202 5234.213228931263,4799.92056445225 5242.303398875013,4794.042711929326 5239.213228931263,4803.553277092277 5247.303398875013,4797.675424569354 5237.303398875013,4797.675424569352 5227.303398875013,4797.675424569351 5235.393568818763,4791.797572046427 5238.483738762511,4801.308137209379 5228.483738762511,4801.308137209378 5220.393568818762,4795.430284686452 5230.393568818762,4795.430284686454 5222.303398875012,4801.3081372093775 5219.213228931261,4810.8187023723285 5216.123058987511,4820.32926753528 5219.213228931259,4829.839832698232 5211.12305898751,4823.961980175306 5208.032889043762,4814.451415012354 5204.942719100011,4823.961980175305 5196.852549156261,4829.83983269823 5193.7623792125105,4839.350397861181 5196.852549156261,4829.83983269823 5188.762379212512,4823.961980175303 5196.852549156261,4829.83983269823 5193.762379212512,4820.329267535278 5183.762379212512,4820.329267535276 5186.852549156261,4829.839832698228 5176.8525491562605,4829.839832698227 5173.7623792125105,4839.350397861179 5163.7623792125105,4839.350397861177 5160.672209268761,4829.839832698225 5152.582039325012,4823.9619801753 5149.491869381262,4833.472545338251 5152.582039325012,4823.9619801753 5149.491869381262,4833.472545338251" stroke="black" stroke-linecap="round" stroke-width="1" /><polyline clip-path="url(#border_clip)" fill="none" points="5149.491869381262,4833.472545338251 5141.4016994375115,4839.350397861174 5149.491869381261,4845.228250384101 5157.5820393250115,4839.350397861176 5154.491869381262,4829.839832698224 5151.401699437514,4820.329267535272 5143.311529493764,4826.207120058197 5151.401699437513,4832.084972581122 5148.3115294937625,4841.595537744073 5140.221359550012,4847.473390266998 5132.131189606263,4841.595537744071 5129.041019662513,4851.106102907022 5125.950849718762,4860.616668069974 5129.041019662513,4851.106102907022 5132.131189606263,4841.595537744071 5142.131189606263,4841.595537744072 5134.041019662514,4835.717685221147 5142.131189606264,4829.839832698223 5132.131189606264,4829.8398326982215 5142.131189606264,4829.839832698223 5139.041019662514,4839.350397861174 5135.950849718765,4829.839832698222 5125.950849718765,4829.8398326982215 5129.041019662516,4820.3292675352695 5125.950849718768,4810.818702372318 5117.860679775019,4804.940849849392 5120.95084971877,4795.43028468644 5124.041019662518,4804.940849849393 5127.131189606269,4795.430284686441 5119.041019662518,4801.308137209366 5110.950849718768,4807.185989732289 5114.041019662519,4797.675424569337 5122.131189606268,4803.553277092264 5114.041019662517,4809.431129615187 5104.041019662517,4809.431129615186 5112.131189606267,4803.553277092262 5109.041019662517,4813.063842255214 5112.131189606265,4822.574407418166 5115.221359550013,4832.084972581118 5123.3115294937625,4837.962825104043 5113.3115294937625,4837.962825104042 5105.221359550013,4832.084972581117 5108.311529493762,4841.595537744069" stroke="black" stroke-linecap="round" stroke-width="1" /><polyline clip-path="url(#border_clip)" fill="none" points="5108.311529493762,4841.595537744069 5105.221359550011,4851.10610290702 5108.31152949376,4860.616668069972 5105.221359550011,4851.10610290702 5095.221359550011,4851.106102907019 5105.221359550011,4851.10610290702 5097.131189606262,4845.228250384094 5089.041019662512,4851.106102907018 5097.131189606261,4856.983955429943 5089.041019662511,4862.861807952868 5092.131189606259,4872.37237311582 5084.041019662508,4878.250225638743 5075.95084971876,4872.372373115817 5065.950849718759,4872.372373115816 5069.041019662508,4881.882938278768 5065.950849718759,4872.372373115816 5069.041019662508,4881.882938278768 5065.950849718757,4891.39350344172 5075.950849718757,4891.393503441721 5079.041019662508,4881.88293827877 5070.950849718759,4876.0050857558435 5062.86067977501,4870.127233232918 5059.770509831259,4879.637798395869 5069.77050983126,4879.63779839587 5072.860679775008,4889.148363558823 5069.770509831257,4898.658928721774 5059.770509831257,4898.658928721772 5062.860679775005,4908.169493884725 5065.9508497187535,4917.680059047677 5062.860679775005,4908.169493884725 5059.770509831257,4898.658928721772 5067.860679775007,4892.7810761988485 5057.860679775007,4892.781076198848 5060.950849718758,4883.270511035897 5052.860679775007,4889.14836355882 5060.950849718758,4883.270511035897 5064.041019662506,4892.7810761988485 5055.950849718757,4886.903223675922 5047.860679775007,4892.781076198846 5044.770509831259,4883.270511035894 5036.68033988751,4877.392658512968 5026.68033988751,4877.392658512967 5023.590169943762,4867.882093350015" stroke="black" stroke-linecap="round" stroke-width="1" /><polyline clip-path="url(#border_clip)" fill="none" points="5023.590169943762,4867.882093350015 5031.68033988751,4873.759945872941 5028.590169943762,4864.249380709989 5025.500000000011,4873.75994587294 5022.40983005626,4883.270511035891 5019.319660112512,4873.759945872939 5029.319660112512,4873.75994587294 5026.229490168762,4883.270511035892 5018.139320225011,4889.148363558816 5021.229490168762,4879.637798395865 5024.31966011251,4889.1483635588165 5032.409830056259,4895.026216081742 5040.500000000008,4900.904068604668 5050.500000000008,4900.904068604669 5042.409830056257,4906.781921127593 5032.409830056257,4906.781921127592 5040.500000000006,4912.659773650517 5043.5901699437545,4922.17033881347 5051.680339887504,4928.048191336396 5043.5901699437545,4922.17033881347 5035.500000000005,4928.048191336394 5043.5901699437545,4922.17033881347 5033.5901699437545,4922.170338813468 5030.500000000004,4931.680903976419 5040.500000000004,4931.680903976421 5037.409830056253,4941.191469139372 5045.500000000002,4947.0693216622985 5042.409830056251,4956.57988682525 5032.409830056251,4956.579886825248 5024.319660112501,4962.457739348172 5032.409830056249,4968.335591871098 5024.319660112501,4962.457739348172 5032.409830056249,4968.335591871098 5035.499999999998,4977.84615703405 5043.590169943748,4971.968304511126 5040.5,4962.457739348174 5030.5,4962.457739348173 5020.5,4962.457739348171 5023.590169943748,4971.968304511123 5031.680339887498,4966.0904519882 5039.770509831247,4971.968304511126 5042.860679774995,4981.478869674078 5034.770509831245,4987.356722197002" stroke="black" stroke-linecap="round" stroke-width="1" /><polyline clip-path="url(#border_clip)" fill="none" points="5034.770509831245,4987.356722197002 5042.8606797749935,4993.234574719927 5050.950849718743,4999.112427242853 5042.8606797749935,4993.234574719927 5034.770509831245,4987.356722197002 5037.860679774995,4977.8461570340505 5029.770509831245,4983.724009556974 5026.680339887497,4974.213444394022 5023.590169943746,4983.724009556973 5026.680339887497,4974.213444394022 5034.770509831246,4980.091296916948 5024.770509831245,4980.091296916947 5021.6803398874945,4989.601862079898 5013.590169943746,4983.724009556971 5003.590169943746,4983.7240095569705 4995.499999999995,4989.601862079894 4987.409830056246,4983.724009556969 4997.409830056247,4983.72400955697 4989.319660112498,4977.846157034044 4992.409830056246,4987.356722196996 4995.4999999999945,4996.867287359948 4987.4098300562455,4990.989434837022 4995.499999999996,4985.111582314098 4998.5901699437445,4994.62214747705 4995.499999999994,5004.132712640002 4992.4098300562455,4994.622147477049 5000.4999999999945,5000.499999999975" stroke="black" stroke-linecap="round" stroke-width="1" /></svg>