<?xml version="1.0" encoding="UTF-8"?>
<svg width="1e4px" height="1e4px" baseProfile="full" version="1.1" viewBox="4987.4 4791.8 392.71 379.36" xmlns="http://www.w3.org/2000/svg">
<defs>
<clipPath id="a">
<rect width="1e4" height="1e4"/>
</clipPath>
</defs>
<polyline points="5000.5 5000.5 5010.5 5000.5 5020.5 5000.5 5028.6 4994.6 5025.5 5004.1 5017.4 5010 5027.4 5010 5035.5 5015.9 5045.5 5015.9 5035.5 5015.9 5032.4 5025.4 5035.5 5015.9 5027.4 5021.8 5030.5 5031.3 5038.6 5025.4 5041.7 5034.9 5051.7 5034.9 5054.8 5044.4 5046.7 5050.3 5043.6 5059.8 5053.6 5059.8 5043.6 5059.8 5053.6 5059.8 5061.7 5065.7 5064.8 5056.2 5056.7 5050.3 5048.6 5056.2 5040.5 5062.1 5048.6 5067.9 5051.7 5058.4 5061.7 5058.4 5069.8 5064.3 5066.7 5073.8 5076.7 5073.8 5086.7 5073.8 5076.7 5073.8 5066.7 5073.8 5063.6 5064.3 5060.5 5073.8 5052.4 5067.9 5055.5 5077.4 5052.4 5067.9 5062.4 5067.9" clip-path="url(#a)" fill="none" stroke="#000" stroke-linecap="round"/>
<polyline points="5062.4 5067.9 5054.3 5073.8 5057.4 5083.3 5047.4 5083.3 5039.3 5089.2 5036.2 5098.7 5026.2 5098.7 5034.3 5092.8 5024.3 5092.8 5032.4 5098.7 5040.5 5104.6 5030.5 5104.6 5033.6 5095.1 5041.7 5101 5044.8 5110.5 5036.7 5104.6 5046.7 5104.6 5054.8 5098.7 5062.9 5092.8 5066 5083.3 5069 5092.8 5066 5102.3 5074 5096.5 5084 5096.5 5092.1 5090.6 5084 5096.5 5087.1 5106 5084 5096.5 5081 5106 5089 5111.9 5092.1 5102.3 5100.2 5108.2 5108.3 5102.3 5116.4 5108.2 5113.3 5117.7 5116.4 5127.2 5124.5 5121.4 5116.4 5127.2 5124.5 5121.4 5134.5 5121.4 5131.4 5111.9 5121.4 5111.9 5118.3 5121.4" clip-path="url(#a)" fill="none" stroke="#000" stroke-linecap="round"/>
<polyline points="5118.3 5121.4 5115.2 5130.9 5125.2 5130.9 5122.1 5121.4 5130.2 5115.5 5140.2 5115.5 5143.3 5125 5151.4 5119.1 5159.5 5113.2 5151.4 5119.1 5143.3 5125 5135.2 5119.1 5138.3 5128.6 5128.3 5128.6 5136.4 5134.5 5128.3 5128.6 5136.4 5122.7 5133.3 5132.3 5141.4 5138.1 5133.3 5144 5130.2 5153.5 5133.3 5163 5125.2 5168.9 5128.3 5159.4 5120.2 5165.3 5130.2 5165.3 5140.2 5165.3 5132.1 5171.2 5129 5161.6 5139 5161.6 5147.1 5167.5 5137.1 5167.5 5145.2 5161.6 5148.3 5152.1 5151.4 5142.6 5148.3 5133.1 5156.4 5139 5159.5 5148.5 5162.6 5139 5170.7 5133.1 5173.8 5123.6 5170.7 5133.1 5178.8 5139" clip-path="url(#a)" fill="none" stroke="#000" stroke-linecap="round"/>
<polyline points="5178.8 5139 5170.7 5133.1 5173.8 5142.6 5183.8 5142.6 5180.7 5133.1 5190.7 5133.1 5193.8 5123.6 5203.8 5123.6 5206.9 5133.1 5214.9 5139 5218 5129.5 5214.9 5139 5218 5129.5 5226.1 5123.6 5218 5117.7 5209.9 5123.6 5213 5133.1 5216.1 5142.6 5224.2 5136.8 5216.1 5130.9 5219.2 5121.4 5227.3 5115.5 5235.4 5121.4 5238.5 5111.9 5241.6 5102.3 5238.5 5111.9 5235.4 5121.4 5225.4 5121.4 5233.5 5127.2 5225.4 5133.1 5235.4 5133.1 5225.4 5133.1 5228.5 5123.6 5231.6 5133.1 5241.6 5133.1 5238.5 5142.6 5241.6 5152.1 5249.7 5158 5246.6 5167.5 5243.5 5158 5240.4 5167.5 5248.5 5161.6 5256.6 5155.8" clip-path="url(#a)" fill="none" stroke="#000" stroke-linecap="round"/>
<polyline points="5256.6 5155.8 5253.5 5165.3 5245.4 5159.4 5253.5 5153.5 5263.5 5153.5 5255.4 5159.4 5258.5 5149.9 5255.4 5140.4 5252.3 5130.9 5244.2 5125 5254.2 5125 5262.3 5130.9 5259.2 5121.4 5262.3 5111.9 5259.2 5102.3 5262.3 5111.9 5272.3 5111.9 5262.3 5111.9 5270.4 5117.7 5278.5 5111.9 5270.4 5106 5278.5 5100.1 5275.4 5090.6 5283.5 5084.7 5291.6 5090.6 5301.6 5090.6 5298.5 5081.1 5301.6 5090.6 5298.5 5081.1 5301.6 5071.6 5291.6 5071.6 5288.5 5081.1 5296.6 5087 5304.7 5092.8 5307.8 5083.3 5297.8 5083.3 5294.7 5073.8 5297.8 5064.3 5307.8 5064.3 5304.7 5054.8 5301.6 5045.3 5304.7 5054.8 5307.8 5064.3" clip-path="url(#a)" fill="none" stroke="#000" stroke-linecap="round"/>
<polyline points="5307.8 5064.3 5299.7 5070.2 5309.7 5070.2 5306.6 5079.7 5314.7 5073.8 5306.6 5079.7 5303.5 5070.2 5311.6 5076.1 5319.7 5070.2 5322.8 5079.7 5330.8 5085.6 5340.8 5085.6 5343.9 5095.1 5335.8 5089.2 5338.9 5098.7 5342 5089.2 5345.1 5079.7 5348.2 5089.2 5338.2 5089.2 5341.3 5079.7 5349.4 5073.8 5346.3 5083.3 5343.2 5073.8 5335.1 5067.9 5327 5062.1 5317 5062.1 5325.1 5056.2 5335.1 5056.2 5327 5050.3 5323.9 5040.8 5315.8 5034.9 5323.9 5040.8 5332 5034.9 5323.9 5040.8 5333.9 5040.8 5337 5031.3 5327 5031.3 5330.1 5021.8 5322 5015.9 5325.1 5006.4 5335.1 5006.4 5343.2 5000.5 5335.1 4994.6" clip-path="url(#a)" fill="none" stroke="#000" stroke-linecap="round"/>
<polyline points="5335.1 4994.6 5343.2 5000.5 5335.1 4994.6 5332 4985.1 5323.9 4991 5327 5000.5 5337 5000.5 5347 5000.5 5343.9 4991 5335.8 4996.9 5327.8 4991 5324.7 4981.5 5332.8 4975.6 5324.7 4969.7 5316.6 4963.8 5324.7 4969.7 5332.8 4975.6 5329.7 4985.1 5337.8 4979.2 5340.8 4988.7 5343.9 4979.2 5340.8 4988.7 5332.8 4982.9 5342.8 4982.9 5345.8 4973.4 5353.9 4979.2 5363.9 4979.2 5372 4973.4 5380.1 4979.2 5370.1 4979.2 5378.2 4985.1 5375.1 4975.6 5372 4966.1 5380.1 4972 5372 4977.8 5368.9 4968.3 5372 4958.8 5375.1 4968.3 5367 4962.5 5357 4962.5 5347 4962.5 5338.9 4968.3 5342 4958.8" clip-path="url(#a)" fill="none" stroke="#000" stroke-linecap="round"/>
<polyline points="5342 4958.8 5350.1 4952.9 5340.1 4952.9 5332 4947.1 5322 4947.1 5332 4947.1 5335.1 4937.6 5332 4947.1 5340.1 4941.2 5337 4931.7 5328.9 4937.6 5325.8 4928 5315.8 4928 5312.8 4918.5 5320.8 4912.7 5323.9 4903.1 5313.9 4903.1 5323.9 4903.1 5313.9 4903.1 5305.8 4897.3 5302.8 4906.8 5310.8 4912.7 5318.9 4906.8 5327 4900.9 5318.9 4895 5315.8 4904.5 5305.8 4904.5 5297.8 4898.7 5300.8 4889.1 5290.8 4889.1 5280.8 4889.1 5290.8 4889.1 5300.8 4889.1 5303.9 4898.7 5307 4889.1 5315.1 4895 5312 4885.5 5315.1 4895 5305.1 4895 5313.2 4889.1 5310.1 4879.6 5320.1 4879.6 5328.2 4873.8" clip-path="url(#a)" fill="none" stroke="#000" stroke-linecap="round"/>
<polyline points="5328.2 4873.8 5331.3 4864.2 5341.3 4864.2 5333.2 4870.1 5343.2 4870.1 5335.1 4864.2 5327 4858.4 5337 4858.4 5333.9 4867.9 5325.8 4862 5322.8 4852.5 5330.8 4858.4 5320.8 4858.4 5312.8 4864.2 5304.7 4870.1 5301.6 4879.6 5298.5 4870.1 5301.6 4860.6 5293.5 4866.5 5283.5 4866.5 5275.4 4872.4 5283.5 4866.5 5280.4 4857 5283.5 4866.5 5286.6 4857 5278.5 4851.1 5275.4 4860.6 5267.3 4854.7 5259.2 4860.6 5251.1 4854.7 5254.2 4845.2 5251.1 4835.7 5243 4841.6 5251.1 4835.7 5243 4841.6 5233 4841.6 5236.1 4851.1 5246.1 4851.1 5249.2 4841.6 5252.3 4832.1 5242.3 4832.1 5245.4 4841.6 5237.3 4847.5" clip-path="url(#a)" fill="none" stroke="#000" stroke-linecap="round"/>
<polyline points="5237.3 4847.5 5227.3 4847.5 5224.2 4838 5216.1 4843.8 5208 4849.7 5216.1 4843.8 5224.2 4838 5232.3 4843.8 5229.2 4834.3 5239.2 4834.3 5231.1 4828.5 5239.2 4834.3 5231.1 4840.2 5234.2 4830.7 5226.1 4824.8 5234.2 4818.9 5237.3 4809.4 5234.2 4799.9 5242.3 4794 5239.2 4803.6 5247.3 4797.7 5237.3 4797.7 5227.3 4797.7 5235.4 4791.8 5238.5 4801.3 5228.5 4801.3 5220.4 4795.4 5230.4 4795.4 5222.3 4801.3 5219.2 4810.8 5216.1 4820.3 5219.2 4829.8 5211.1 4824 5208 4814.5 5204.9 4824 5196.9 4829.8 5193.8 4839.4 5196.9 4829.8 5188.8 4824 5196.9 4829.8 5193.8 4820.3 5183.8 4820.3 5186.9 4829.8" clip-path="url(#a)" fill="none" stroke="#000" stroke-linecap="round"/>
<polyline points="5186.9 4829.8 5176.9 4829.8 5173.8 4839.4 5163.8 4839.4 5160.7 4829.8 5152.6 4824 5149.5 4833.5 5152.6 4824 5149.5 4833.5 5141.4 4839.4 5149.5 4845.2 5157.6 4839.4 5154.5 4829.8 5151.4 4820.3 5143.3 4826.2 5151.4 4832.1 5148.3 4841.6 5140.2 4847.5 5132.1 4841.6 5129 4851.1 5126 4860.6 5129 4851.1 5132.1 4841.6 5142.1 4841.6 5134 4835.7 5142.1 4829.8 5132.1 4829.8 5142.1 4829.8 5139 4839.4 5136 4829.8 5126 4829.8 5129 4820.3 5126 4810.8 5117.9 4804.9 5121 4795.4 5124 4804.9 5127.1 4795.4 5119 4801.3 5111 4807.2 5114 4797.7 5122.1 4803.6 5114 4809.4 5104 4809.4" clip-path="url(#a)" fill="none" stroke="#000" stroke-linecap="round"/>
<polyline points="5104 4809.4 5112.1 4803.6 5109 4813.1 5112.1 4822.6 5115.2 4832.1 5123.3 4838 5113.3 4838 5105.2 4832.1 5108.3 4841.6 5105.2 4851.1 5108.3 4860.6 5105.2 4851.1 5095.2 4851.1 5105.2 4851.1 5097.1 4845.2 5089 4851.1 5097.1 4857 5089 4862.9 5092.1 4872.4 5084 4878.3 5076 4872.4 5066 4872.4 5069 4881.9 5066 4872.4 5069 4881.9 5066 4891.4 5076 4891.4 5079 4881.9 5071 4876 5062.9 4870.1 5059.8 4879.6 5069.8 4879.6 5072.9 4889.1 5069.8 4898.7 5059.8 4898.7 5062.9 4908.2 5066 4917.7 5062.9 4908.2 5059.8 4898.7 5067.9 4892.8 5057.9 4892.8 5061 4883.3 5052.9 4889.1" clip-path="url(#a)" fill="none" stroke="#000" stroke-linecap="round"/>
<polyline points="5052.9 4889.1 5061 4883.3 5064 4892.8 5056 4886.9 5047.9 4892.8 5044.8 4883.3 5036.7 4877.4 5026.7 4877.4 5023.6 4867.9 5031.7 4873.8 5028.6 4864.2 5025.5 4873.8 5022.4 4883.3 5019.3 4873.8 5029.3 4873.8 5026.2 4883.3 5018.1 4889.1 5021.2 4879.6 5024.3 4889.1 5032.4 4895 5040.5 4900.9 5050.5 4900.9 5042.4 4906.8 5032.4 4906.8 5040.5 4912.7 5043.6 4922.2 5051.7 4928 5043.6 4922.2 5035.5 4928 5043.6 4922.2 5033.6 4922.2 5030.5 4931.7 5040.5 4931.7 5037.4 4941.2 5045.5 4947.1 5042.4 4956.6 5032.4 4956.6 5024.3 4962.5 5032.4 4968.3 5024.3 4962.5 5032.4 4968.3 5035.5 4977.8 5043.6 4972" clip-path="url(#a)" fill="none" stroke="#000" stroke-linecap="round"/>
<polyline points="5043.6 4972 5040.5 4962.5 5030.5 4962.5 5020.5 4962.5 5023.6 4972 5031.7 4966.1 5039.8 4972 5042.9 4981.5 5034.8 4987.4 5042.9 4993.2 5051 4999.1 5042.9 4993.2 5034.8 4987.4 5037.9 4977.8 5029.8 4983.7 5026.7 4974.2 5023.6 4983.7 5026.7 4974.2 5034.8 4980.1 5024.8 4980.1 5021.7 4989.6 5013.6 4983.7 5003.6 4983.7 4995.5 4989.6 4987.4 4983.7 4997.4 4983.7 4989.3 4977.8 4992.4 4987.4 4995.5 4996.9 4987.4 4991 4995.5 4985.1 4998.6 4994.6 4995.5 5004.1 4992.4 4994.6 5000.5 5000.5 5010.5 5000.5 5020.5 5000.5 5028.6 4994.6 5025.5 5004.1 5017.4 5010 5027.4 5010 5035.5 5015.9 5045.5 5015.9" clip-path="url(#a)" fill="none" stroke="#000" stroke-linecap="round"/>
<polyline points="5045.5 5015.9 5035.5 5015.9 5032.4 5025.4 5035.5 5015.9 5027.4 5021.8 5030.5 5031.3 5038.6 5025.4 5041.7 5034.9 5051.7 5034.9 5054.8 5044.4 5046.7 5050.3 5043.6 5059.8 5053.6 5059.8 5043.6 5059.8 5053.6 5059.8 5061.7 5065.7 5064.8 5056.2 5056.7 5050.3 5048.6 5056.2 5040.5 5062.1 5048.6 5067.9 5051.7 5058.4 5061.7 5058.4 5069.8 5064.3 5066.7 5073.8 5076.7 5073.8 5086.7 5073.8 5076.7 5073.8 5066.7 5073.8 5063.6 5064.3 5060.5 5073.8 5052.4 5067.9 5055.5 5077.4 5052.4 5067.9 5062.4 5067.9 5054.3 5073.8 5057.4 5083.3 5047.4 5083.3 5039.3 5089.2 5036.2 5098.7 5026.2 5098.7 5034.3 5092.8 5024.3 5092.8" clip-path="url(#a)" fill="none" stroke="#000" stroke-linecap="round"/>
<polyline points="5024.3 5092.8 5032.4 5098.7 5040.5 5104.6 5030.5 5104.6 5033.6 5095.1 5041.7 5101 5044.8 5110.5 5036.7 5104.6 5046.7 5104.6 5054.8 5098.7 5062.9 5092.8 5066 5083.3 5069 5092.8 5066 5102.3 5074 5096.5 5084 5096.5 5092.1 5090.6 5084 5096.5 5087.1 5106 5084 5096.5 5081 5106 5089 5111.9 5092.1 5102.3 5100.2 5108.2 5108.3 5102.3 5116.4 5108.2 5113.3 5117.7 5116.4 5127.2 5124.5 5121.4 5116.4 5127.2 5124.5 5121.4 5134.5 5121.4 5131.4 5111.9 5121.4 5111.9 5118.3 5121.4 5115.2 5130.9 5125.2 5130.9 5122.1 5121.4 5130.2 5115.5 5140.2 5115.5 5143.3 5125 5151.4 5119.1 5159.5 5113.2" clip-path="url(#a)" fill="none" stroke="#000" stroke-linecap="round"/>
<polyline points="5159.5 5113.2 5151.4 5119.1 5143.3 5125 5135.2 5119.1 5138.3 5128.6 5128.3 5128.6 5136.4 5134.5 5128.3 5128.6 5136.4 5122.7 5133.3 5132.3 5141.4 5138.1 5133.3 5144 5130.2 5153.5 5133.3 5163 5125.2 5168.9 5128.3 5159.4 5120.2 5165.3 5130.2 5165.3 5140.2 5165.3 5132.1 5171.2 5129 5161.6 5139 5161.6 5147.1 5167.5 5137.1 5167.5 5145.2 5161.6 5148.3 5152.1 5151.4 5142.6 5148.3 5133.1 5156.4 5139 5159.5 5148.5 5162.6 5139 5170.7 5133.1 5173.8 5123.6 5170.7 5133.1 5178.8 5139 5170.7 5133.1 5173.8 5142.6 5183.8 5142.6 5180.7 5133.1 5190.7 5133.1 5193.8 5123.6 5203.8 5123.6 5206.9 5133.1" clip-path="url(#a)" fill="none" stroke="#000" stroke-linecap="round"/>
<polyline points="5206.9 5133.1 5214.9 5139 5218 5129.5 5214.9 5139 5218 5129.5 5226.1 5123.6 5218 5117.7 5209.9 5123.6 5213 5133.1 5216.1 5142.6 5224.2 5136.8 5216.1 5130.9 5219.2 5121.4 5227.3 5115.5 5235.4 5121.4 5238.5 5111.9 5241.6 5102.3 5238.5 5111.9 5235.4 5121.4 5225.4 5121.4 5233.5 5127.2 5225.4 5133.1 5235.4 5133.1 5225.4 5133.1 5228.5 5123.6 5231.6 5133.1 5241.6 5133.1 5238.5 5142.6 5241.6 5152.1 5249.7 5158 5246.6 5167.5 5243.5 5158 5240.4 5167.5 5248.5 5161.6 5256.6 5155.8 5253.5 5165.3 5245.4 5159.4 5253.5 5153.5 5263.5 5153.5 5255.4 5159.4 5258.5 5149.9 5255.4 5140.4 5252.3 5130.9" clip-path="url(#a)" fill="none" stroke="#000" stroke-linecap="round"/>
<polyline points="5252.3 5130.9 5244.2 5125 5254.2 5125 5262.3 5130.9 5259.2 5121.4 5262.3 5111.9 5259.2 5102.3 5262.3 5111.9 5272.3 5111.9 5262.3 5111.9 5270.4 5117.7 5278.5 5111.9 5270.4 5106 5278.5 5100.1 5275.4 5090.6 5283.5 5084.7 5291.6 5090.6 5301.6 5090.6 5298.5 5081.1 5301.6 5090.6 5298.5 5081.1 5301.6 5071.6 5291.6 5071.6 5288.5 5081.1 5296.6 5087 5304.7 5092.8 5307.8 5083.3 5297.8 5083.3 5294.7 5073.8 5297.8 5064.3 5307.8 5064.3 5304.7 5054.8 5301.6 5045.3 5304.7 5054.8 5307.8 5064.3 5299.7 5070.2 5309.7 5070.2 5306.6 5079.7 5314.7 5073.8 5306.6 5079.7 5303.5 5070.2 5311.6 5076.1 5319.7 5070.2" clip-path="url(#a)" fill="none" stroke="#000" stroke-linecap="round"/>
<polyline points="5319.7 5070.2 5322.8 5079.7 5330.8 5085.6 5340.8 5085.6 5343.9 5095.1 5335.8 5089.2 5338.9 5098.7 5342 5089.2 5345.1 5079.7 5348.2 5089.2 5338.2 5089.2 5341.3 5079.7 5349.4 5073.8 5346.3 5083.3 5343.2 5073.8 5335.1 5067.9 5327 5062.1 5317 5062.1 5325.1 5056.2 5335.1 5056.2 5327 5050.3 5323.9 5040.8 5315.8 5034.9 5323.9 5040.8 5332 5034.9 5323.9 5040.8 5333.9 5040.8 5337 5031.3 5327 5031.3 5330.1 5021.8 5322 5015.9 5325.1 5006.4 5335.1 5006.4 5343.2 5000.5 5335.1 4994.6 5343.2 5000.5 5335.1 4994.6 5332 4985.1 5323.9 4991 5327 5000.5 5337 5000.5 5347 5000.5 5343.9 4991" clip-path="url(#a)" fill="none" stroke="#000" stroke-linecap="round"/>
<polyline points="5343.9 4991 5335.8 4996.9 5327.8 4991 5324.7 4981.5 5332.8 4975.6 5324.7 4969.7 5316.6 4963.8 5324.7 4969.7 5332.8 4975.6 5329.7 4985.1 5337.8 4979.2 5340.8 4988.7 5343.9 4979.2 5340.8 4988.7 5332.8 4982.9 5342.8 4982.9 5345.8 4973.4 5353.9 4979.2 5363.9 4979.2 5372 4973.4 5380.1 4979.2 5370.1 4979.2 5378.2 4985.1 5375.1 4975.6 5372 4966.1 5380.1 4972 5372 4977.8 5368.9 4968.3 5372 4958.8 5375.1 4968.3 5367 4962.5 5357 4962.5 5347 4962.5 5338.9 4968.3 5342 4958.8 5350.1 4952.9 5340.1 4952.9 5332 4947.1 5322 4947.1 5332 4947.1 5335.1 4937.6 5332 4947.1 5340.1 4941.2" clip-path="url(#a)" fill="none" stroke="#000" stroke-linecap="round"/>
<polyline points="5340.1 4941.2 5337 4931.7 5328.9 4937.6 5325.8 4928 5315.8 4928 5312.8 4918.5 5320.8 4912.7 5323.9 4903.1 5313.9 4903.1 5323.9 4903.1 5313.9 4903.1 5305.8 4897.3 5302.8 4906.8 5310.8 4912.7 5318.9 4906.8 5327 4900.9 5318.9 4895 5315.8 4904.5 5305.8 4904.5 5297.8 4898.7 5300.8 4889.1 5290.8 4889.1 5280.8 4889.1 5290.8 4889.1 5300.8 4889.1 5303.9 4898.7 5307 4889.1 5315.1 4895 5312 4885.5 5315.1 4895 5305.1 4895 5313.2 4889.1 5310.1 4879.6 5320.1 4879.6 5328.2 4873.8 5331.3 4864.2 5341.3 4864.2 5333.2 4870.1 5343.2 4870.1 5335.1 4864.2 5327 4858.4 5337 4858.4 5333.9 4867.9" clip-path="url(#a)" fill="none" stroke="#000" stroke-linecap="round"/>
<polyline points="5333.9 4867.9 5325.8 4862 5322.8 4852.5 5330.8 4858.4 5320.8 4858.4 5312.8 4864.2 5304.7 4870.1 5301.6 4879.6 5298.5 4870.1 5301.6 4860.6 5293.5 4866.5 5283.5 4866.5 5275.4 4872.4 5283.5 4866.5 5280.4 4857 5283.5 4866.5 5286.6 4857 5278.5 4851.1 5275.4 4860.6 5267.3 4854.7 5259.2 4860.6 5251.1 4854.7 5254.2 4845.2 5251.1 4835.7 5243 4841.6 5251.1 4835.7 5243 4841.6 5233 4841.6 5236.1 4851.1 5246.1 4851.1 5249.2 4841.6 5252.3 4832.1 5242.3 4832.1 5245.4 4841.6 5237.3 4847.5 5227.3 4847.5 5224.2 4838 5216.1 4843.8 5208 4849.7 5216.1 4843.8 5224.2 4838 5232.3 4843.8 5229.2 4834.3" clip-path="url(#a)" fill="none" stroke="#000" stroke-linecap="round"/>
<polyline points="5229.2 4834.3 5239.2 4834.3 5231.1 4828.5 5239.2 4834.3 5231.1 4840.2 5234.2 4830.7 5226.1 4824.8 5234.2 4818.9 5237.3 4809.4 5234.2 4799.9 5242.3 4794 5239.2 4803.6 5247.3 4797.7 5237.3 4797.7 5227.3 4797.7 5235.4 4791.8 5238.5 4801.3 5228.5 4801.3 5220.4 4795.4 5230.4 4795.4 5222.3 4801.3 5219.2 4810.8 5216.1 4820.3 5219.2 4829.8 5211.1 4824 5208 4814.5 5204.9 4824 5196.9 4829.8 5193.8 4839.4 5196.9 4829.8 5188.8 4824 5196.9 4829.8 5193.8 4820.3 5183.8 4820.3 5186.9 4829.8 5176.9 4829.8 5173.8 4839.4 5163.8 4839.4 5160.7 4829.8 5152.6 4824 5149.5 4833.5 5152.6 4824 5149.5 4833.5" clip-path="url(#a)" fill="none" stroke="#000" stroke-linecap="round"/>
<polyline points="5149.5 4833.5 5141.4 4839.4 5149.5 4845.2 5157.6 4839.4 5154.5 4829.8 5151.4 4820.3 5143.3 4826.2 5151.4 4832.1 5148.3 4841.6 5140.2 4847.5 5132.1 4841.6 5129 4851.1 5126 4860.6 5129 4851.1 5132.1 4841.6 5142.1 4841.6 5134 4835.7 5142.1 4829.8 5132.1 4829.8 5142.1 4829.8 5139 4839.4 5136 4829.8 5126 4829.8 5129 4820.3 5126 4810.8 5117.9 4804.9 5121 4795.4 5124 4804.9 5127.1 4795.4 5119 4801.3 5111 4807.2 5114 4797.7 5122.1 4803.6 5114 4809.4 5104 4809.4 5112.1 4803.6 5109 4813.1 5112.1 4822.6 5115.2 4832.1 5123.3 4838 5113.3 4838 5105.2 4832.1 5108.3 4841.6" clip-path="url(#a)" fill="none" stroke="#000" stroke-linecap="round"/>
<polyline points="5108.3 4841.6 5105.2 4851.1 5108.3 4860.6 5105.2 4851.1 5095.2 4851.1 5105.2 4851.1 5097.1 4845.2 5089 4851.1 5097.1 4857 5089 4862.9 5092.1 4872.4 5084 4878.3 5076 4872.4 5066 4872.4 5069 4881.9 5066 4872.4 5069 4881.9 5066 4891.4 5076 4891.4 5079 4881.9 5071 4876 5062.9 4870.1 5059.8 4879.6 5069.8 4879.6 5072.9 4889.1 5069.8 4898.7 5059.8 4898.7 5062.9 4908.2 5066 4917.7 5062.9 4908.2 5059.8 4898.7 5067.9 4892.8 5057.9 4892.8 5061 4883.3 5052.9 4889.1 5061 4883.3 5064 4892.8 5056 4886.9 5047.9 4892.8 5044.8 4883.3 5036.7 4877.4 5026.7 4877.4 5023.6 4867.9" clip-path="url(#a)" fill="none" stroke="#000" stroke-linecap="round"/>
<polyline points="5023.6 4867.9 5031.7 4873.8 5028.6 4864.2 5025.5 4873.8 5022.4 4883.3 5019.3 4873.8 5029.3 4873.8 5026.2 4883.3 5018.1 4889.1 5021.2 4879.6 5024.3 4889.1 5032.4 4895 5040.5 4900.9 5050.5 4900.9 5042.4 4906.8 5032.4 4906.8 5040.5 4912.7 5043.6 4922.2 5051.7 4928 5043.6 4922.2 5035.5 4928 5043.6 4922.2 5033.6 4922.2 5030.5 4931.7 5040.5 4931.7 5037.4 4941.2 5045.5 4947.1 5042.4 4956.6 5032.4 4956.6 5024.3 4962.5 5032.4 4968.3 5024.3 4962.5 5032.4 4968.3 5035.5 4977.8 5043.6 4972 5040.5 4962.5 5030.5 4962.5 5020.5 4962.5 5023.6 4972 5031.7 4966.1 5039.8 4972 5042.9 4981.5 5034.8 4987.4" clip-path="url(#a)" fill="none" stroke="#000" stroke-linecap="round"/>
<polyline points="5034.8 4987.4 5042.9 4993.2 5051 4999.1 5042.9 4993.2 5034.8 4987.4 5037.9 4977.8 5029.8 4983.7 5026.7 4974.2 5023.6 4983.7 5026.7 4974.2 5034.8 4980.1 5024.8 4980.1 5021.7 4989.6 5013.6 4983.7 5003.6 4983.7 4995.5 4989.6 4987.4 4983.7 4997.4 4983.7 4989.3 4977.8 4992.4 4987.4 4995.5 4996.9 4987.4 4991 4995.5 4985.1 4998.6 4994.6 4995.5 5004.1 4992.4 4994.6 5000.5 5000.5" clip-path="url(#a)" fill="none" stroke="#000" stroke-linecap="round"/>
</svg>
