<?xml version="1.0" encoding="utf-8" ?>
<svg baseProfile="full" height="1000px" version="1.1" width="1000px" xmlns="http://www.w3.org/2000/svg" xmlns:ev="http://www.w3.org/2001/xml-events" xmlns:xlink="http://www.w3.org/1999/xlink"><defs><clipPath id="border_clip"><rect height="1000" width="1000" x="0" y="0" /></clipPath></defs><polyline clip-path="url(#border_clip)" fill="none" points="500.5,500.5 510.5,500.5 518.5901699437495,494.62214747707526 515.5,504.1327126400268 507.40983005625054,510.01056516295154 517.4098300562505,510.01056516295154 525.5,515.8884176858762 535.5,515.8884176858763 525.5,515.8884176858762 522.4098300562505,525.3989828488278 525.5,515.8884176858762 517.4098300562505,521.766270208801 520.5,531.2768353717526 528.5901699437495,525.3989828488278 531.6803398874989,534.9095480117794 541.6803398874989,534.9095480117794 544.7705098312484,544.4201131747309 536.6803398874989,550.2979656976556 533.5901699437494,559.8085308606072 543.5901699437494,559.8085308606072 533.5901699437494,559.8085308606072 543.5901699437494,559.8085308606072 551.6803398874989,565.686383383532 554.7705098312483,556.1758182205804 546.6803398874989,550.2979656976556 538.5901699437494,556.1758182205804 530.4999999999999,562.0536707435051 538.5901699437494,567.9315232664298 541.6803398874989,558.4209581034783 551.6803398874989,558.4209581034784 559.7705098312483,564.2988106264031 556.6803398874988,573.8093757893546 566.6803398874988,573.8093757893547 576.6803398874988,573.8093757893547 566.6803398874988,573.8093757893547 556.6803398874988,573.8093757893546 553.5901699437494,564.2988106264031 550.4999999999999,573.8093757893546 542.4098300562505,567.9315232664298 545.4999999999999,577.4420884293813 542.4098300562505,567.9315232664298 552.4098300562505,567.9315232664298 544.319660112501,573.8093757893546" stroke="black" stroke-linecap="round" stroke-width="1" /><polyline clip-path="url(#border_clip)" fill="none" points="544.319660112501,573.8093757893546 547.4098300562504,583.3199409523061 537.4098300562504,583.3199409523061 529.3196601125009,589.1977934752308 526.2294901687513,598.7083586381823 516.2294901687513,598.7083586381822 524.3196601125009,592.8305061152575 514.3196601125009,592.8305061152574 522.4098300562503,598.7083586381823 530.4999999999998,604.586211161107 520.4999999999997,604.586211161107 523.5901699437493,595.0756459981554 531.6803398874987,600.9534985210803 534.7705098312481,610.4640636840318 526.6803398874987,604.586211161107 536.6803398874987,604.5862111611071 544.7705098312482,598.7083586381824 552.8606797749977,592.8305061152578 555.9508497187472,583.3199409523062 559.0410196624966,592.8305061152578 555.9508497187471,602.3410712782093 564.0410196624966,596.4632187552846 574.0410196624966,596.4632187552847 582.1311896062462,590.58536623236 574.0410196624966,596.4632187552847 577.131189606246,605.9737839182362 574.0410196624966,596.4632187552847 570.9508497187471,605.9737839182362 579.0410196624965,611.851636441161 582.131189606246,602.3410712782095 590.2213595499954,608.2189238011343 598.3115294937451,602.3410712782096 606.4016994374945,608.2189238011345 603.311529493745,617.7294889640859 606.4016994374942,627.2400541270375 614.4918693812438,621.3622016041129 606.4016994374942,627.2400541270375 614.4918693812438,621.3622016041129 624.4918693812438,621.362201604113 621.4016994374945,611.8516364411614 611.4016994374945,611.8516364411613 608.3115294937448,621.3622016041128 605.2213595499952,630.8727667670644" stroke="black" stroke-linecap="round" stroke-width="1" /><polyline clip-path="url(#border_clip)" fill="none" points="605.2213595499952,630.8727667670644 615.2213595499952,630.8727667670644 612.1311896062459,621.3622016041128 620.2213595499954,615.4843490811882 630.2213595499954,615.4843490811883 633.3115294937448,624.9949142441399 641.4016994374944,619.1170617212152 649.4918693812439,613.2392091982905 641.4016994374944,619.1170617212151 633.3115294937448,624.9949142441399 625.2213595499954,619.117061721215 628.3115294937447,628.6276268841666 618.3115294937447,628.6276268841665 626.4016994374941,634.5054794070913 618.3115294937447,628.6276268841665 626.4016994374942,622.7497743612419 623.3115294937447,632.2603395241933 631.4016994374941,638.1381920471181 623.3115294937446,644.0160445700428 620.221359549995,653.5266097329943 623.3115294937444,663.0371748959458 615.2213595499948,668.9150274188705 618.3115294937444,659.4044622559189 610.2213595499949,665.2823147788436 620.2213595499949,665.2823147788438 630.2213595499949,665.2823147788439 622.1311896062454,671.1601673017685 619.041019662496,661.6496021388169 629.041019662496,661.649602138817 637.1311896062454,667.5274546617419 627.1311896062454,667.5274546617418 635.2213595499949,661.6496021388172 638.3115294937445,652.1390369758656 641.4016994374941,642.6284718129141 638.3115294937447,633.1179066499625 646.4016994374941,638.9957591728873 649.4918693812435,648.5063243358389 652.5820393249932,638.9957591728875 660.6722092687427,633.1179066499628 663.7623792124923,623.6073414870114 660.6722092687427,633.1179066499628 668.7623792124921,638.9957591728877 660.6722092687427,633.1179066499628" stroke="black" stroke-linecap="round" stroke-width="1" /><polyline clip-path="url(#border_clip)" fill="none" points="660.6722092687427,633.1179066499628 663.7623792124921,642.6284718129144 673.7623792124921,642.6284718129145 670.6722092687427,633.117906649963 680.6722092687427,633.1179066499631 683.7623792124923,623.6073414870116 693.7623792124923,623.6073414870118 696.8525491562416,633.1179066499634 704.9427190999911,638.9957591728883 708.0328890437406,629.4851940099368 704.9427190999911,638.9957591728883 708.0328890437406,629.4851940099368 716.1230589874903,623.6073414870121 708.0328890437409,617.7294889640873 699.9427190999913,623.6073414870118 703.0328890437406,633.1179066499635 706.1230589874899,642.628471812915 714.2132289312394,636.7506192899905 706.1230589874901,630.8727667670655 709.2132289312398,621.362201604114 717.3033988749894,615.4843490811895 725.3935688187387,621.3622016041144 728.4837387624884,611.8516364411629 731.5739087062381,602.3410712782114 728.4837387624884,611.8516364411629 725.3935688187387,621.3622016041144 715.3935688187387,621.3622016041141 723.4837387624881,627.240054127039 715.3935688187385,633.1179066499636 725.3935688187385,633.1179066499639 715.3935688187385,633.1179066499636 718.4837387624881,623.6073414870121 721.5739087062374,633.1179066499637 731.5739087062375,633.117906649964 728.4837387624877,642.6284718129154 731.573908706237,652.139036975867 739.6640786499864,658.0168894987919 736.5739087062368,667.5274546617434 733.4837387624875,658.0168894987918 730.3935688187378,667.5274546617433 738.4837387624874,661.6496021388186 746.573908706237,655.7717496158941 743.4837387624874,665.2823147788456" stroke="black" stroke-linecap="round" stroke-width="1" /><polyline clip-path="url(#border_clip)" fill="none" points="743.4837387624874,665.2823147788456 735.393568818738,659.4044622559206 743.4837387624876,653.5266097329961 753.4837387624876,653.5266097329963 745.393568818738,659.4044622559209 748.4837387624877,649.8938970929694 745.3935688187385,640.3833319300178 742.3033988749892,630.8727667670662 734.2132289312398,624.9949142441412 744.2132289312398,624.9949142441415 752.3033988749892,630.8727667670664 749.2132289312399,621.3622016041147 752.3033988749896,611.8516364411632 749.2132289312403,602.3410712782116 752.3033988749896,611.8516364411632 762.3033988749896,611.8516364411635 752.3033988749895,611.8516364411632 760.3935688187389,617.7294889640882 768.4837387624885,611.8516364411636 760.3935688187391,605.9737839182387 768.4837387624889,600.0959313953141 765.3935688187396,590.5853662323625 773.4837387624891,584.707513709438 781.5739087062385,590.5853662323628 791.5739087062385,590.5853662323631 788.4837387624892,581.0748010694115 791.5739087062385,590.5853662323631 788.4837387624892,581.0748010694115 791.5739087062389,571.56423590646 781.5739087062389,571.5642359064598 778.4837387624892,581.0748010694113 786.5739087062386,586.9526535923361 794.6640786499879,592.8305061152611 797.7542485937377,583.3199409523096 787.7542485937377,583.3199409523094 784.6640786499884,573.8093757893578 787.754248593738,564.2988106264063 797.754248593738,564.2988106264065 794.6640786499888,554.7882454634548 791.5739087062395,545.2776803005032 794.6640786499888,554.7882454634548 797.754248593738,564.2988106264065 789.6640786499884,570.176663149331" stroke="black" stroke-linecap="round" stroke-width="1" /><polyline clip-path="url(#border_clip)" fill="none" points="789.6640786499884,570.176663149331 799.6640786499884,570.1766631493313 796.5739087062386,579.6872283122827 804.6640786499884,573.8093757893582 796.5739087062386,579.6872283122827 793.4837387624895,570.1766631493311 801.5739087062389,576.0545156722561 809.6640786499884,570.1766631493315 812.7542485937377,579.6872283122832 820.844418537487,585.5650808352082 830.844418537487,585.5650808352084 833.9345884812362,595.07564599816 825.844418537487,589.197793475235 828.9345884812361,598.7083586381867 832.0247584249859,589.1977934752352 835.1149283687356,579.6872283122838 838.2050983124848,589.1977934752354 828.2050983124848,589.1977934752351 831.2952682562345,579.6872283122837 839.3854381999843,573.8093757893591 836.2952682562345,583.3199409523106 833.2050983124852,573.8093757893589 825.114928368736,567.9315232664339 817.0247584249865,562.0536707435091 807.0247584249865,562.0536707435087 815.1149283687362,556.1758182205842 825.1149283687362,556.1758182205845 817.0247584249869,550.2979656976596 813.9345884812376,540.7874005347079 805.8444185374883,534.9095480117829 813.9345884812376,540.7874005347079 822.0247584249872,534.9095480117834 813.9345884812376,540.7874005347079 823.9345884812376,540.7874005347082 827.0247584249873,531.2768353717568 817.0247584249873,531.2768353717564 820.1149283687371,521.7662702088049 812.0247584249878,515.88841768588 815.1149283687375,506.37785252292855 825.1149283687375,506.37785252292883 833.205098312487,500.5000000000043 825.1149283687378,494.62214747707935 833.205098312487,500.5000000000043" stroke="black" stroke-linecap="round" stroke-width="1" /><polyline clip-path="url(#border_clip)" fill="none" points="833.205098312487,500.5000000000043 825.1149283687378,494.62214747707935 822.0247584249886,485.1115823141277 813.934588481239,490.9894348370522 817.024758424988,500.50000000000387 827.024758424988,500.50000000000415 837.024758424988,500.50000000000443 833.934588481239,490.9894348370528 825.8444185374892,496.8672873599773 817.7542485937399,490.98943483705233 814.6640786499908,481.4788696741007 822.7542485937404,475.60101715117617 814.6640786499911,469.7231646282512 806.5739087062418,463.84531210532623 814.6640786499911,469.7231646282512 822.7542485937404,475.60101715117617 819.6640786499906,485.11158231412765 827.7542485937404,479.23372979120313 830.8444185374896,488.7442949541548 833.9345884812394,479.23372979120336 830.8444185374896,488.7442949541548 822.7542485937403,482.8664424312298 832.7542485937403,482.8664424312301 835.8444185374901,473.3558772682787 843.9345884812394,479.23372979120364 853.9345884812394,479.233729791204 862.024758424989,473.35587726827947 870.1149283687383,479.2337297912045 860.1149283687383,479.23372979120415 868.2050983124876,485.1115823141292 865.1149283687384,475.60101715117753 862.0247584249893,466.0904519882259 870.1149283687386,471.96830451115085 862.0247584249889,477.84615703407536 858.9345884812396,468.3355918711237 862.0247584249895,458.82502670817223 865.1149283687387,468.3355918711239 857.0247584249894,462.45773934819886 847.0247584249894,462.4577393481986 837.0247584249894,462.45773934819823 828.9345884812396,468.3355918711227 832.0247584249895,458.8250267081712 840.1149283687391,452.94717418524675" stroke="black" stroke-linecap="round" stroke-width="1" /><polyline clip-path="url(#border_clip)" fill="none" points="840.1149283687391,452.94717418524675 830.1149283687391,452.9471741852464 822.0247584249898,447.0693216623214 812.0247584249898,447.06932166232104 822.0247584249898,447.0693216623214 825.1149283687397,437.55875649936996 822.0247584249898,447.0693216623214 830.1149283687396,441.19146913939693 827.0247584249904,431.6809039764453 818.9345884812408,437.55875649936974 815.8444185374915,428.0481913364181 805.8444185374915,428.0481913364177 802.7542485937424,418.53762617346604 810.8444185374921,412.6597736505416 813.9345884812419,403.14920848759016 803.9345884812419,403.14920848758976 813.9345884812419,403.14920848759016 803.9345884812419,403.14920848758976 795.8444185374926,397.27135596466474 792.7542485937428,406.7819211276162 800.8444185374921,412.65977365054124 808.9345884812417,406.7819211276168 817.0247584249914,400.9040686046923 808.9345884812421,395.0262160817673 805.8444185374924,404.5367812447187 795.8444185374924,404.5367812447183 787.7542485937431,398.6589287217933 790.8444185374929,389.1483635588419 780.8444185374929,389.1483635588415 770.8444185374929,389.14836355884114 780.8444185374929,389.1483635588415 790.8444185374929,389.1483635588419 793.934588481242,398.65892872179353 797.0247584249919,389.1483635588421 805.1149283687412,395.02621608176713 802.0247584249921,385.5156509188155 805.1149283687412,395.02621608176713 795.1149283687412,395.02621608176673 803.2050983124909,389.14836355884233 800.1149283687419,379.6377983958906 810.1149283687419,379.637798395891 818.2050983124916,373.75994587296657 821.2952682562413,364.24938071001515" stroke="black" stroke-linecap="round" stroke-width="1" /><polyline clip-path="url(#border_clip)" fill="none" points="821.2952682562413,364.24938071001515 831.2952682562413,364.24938071001554 823.2050983124916,370.12723323293994 833.2050983124916,370.1272332329404 825.1149283687423,364.2493807100153 817.024758424993,358.37152818709023 827.024758424993,358.3715281870907 823.9345884812433,367.8820933500421 815.844418537494,362.0042408271171 812.7542485937448,352.4936756641654 820.8444185374941,358.37152818709046 810.8444185374941,358.37152818709006 802.7542485937444,364.2493807100145 794.6640786499946,370.1272332329389 791.5739087062448,379.63779839589034 788.4837387624957,370.1272332329387 791.5739087062454,360.6166680699872 783.4837387624957,366.4945205929116 773.4837387624957,366.4945205929113 765.393568818746,372.37237311583567 773.4837387624957,366.4945205929113 770.3935688187466,356.98395542995956 773.4837387624957,366.4945205929113 776.5739087062456,356.9839554299598 768.4837387624964,351.1061029070347 765.3935688187464,360.6166680699862 757.3033988749972,354.7388155470611 749.2132289312475,360.6166680699855 741.1230589874982,354.7388155470604 744.2132289312481,345.228250384109 741.123058987499,335.7176852211573 733.0328890437493,341.5955377440817 741.123058987499,335.7176852211573 733.0328890437493,341.5955377440817 723.0328890437493,341.5955377440813 726.1230589874983,351.106102907033 736.1230589874983,351.1061029070334 739.2132289312483,341.595537744082 742.3033988749982,332.08497258113056 732.3033988749982,332.08497258113016 735.3935688187472,341.59553774408187 727.3033988749975,347.47339026700627 717.3033988749975,347.4733902670058" stroke="black" stroke-linecap="round" stroke-width="1" /><polyline clip-path="url(#border_clip)" fill="none" points="717.3033988749975,347.4733902670058 714.2132289312484,337.9628251040541 706.1230589874986,343.8406776269785 698.0328890437488,349.7185301499029 706.1230589874987,343.8406776269785 714.2132289312484,337.9628251040541 722.3033988749976,343.8406776269792 719.2132289312485,334.3301124640275 729.2132289312486,334.33011246402793 721.1230589874993,328.45225994110285 729.2132289312486,334.33011246402793 721.1230589874988,340.20796498695233 724.2132289312488,330.69739982400097 716.1230589874995,324.81954730107583 724.2132289312493,318.9416947781515 727.3033988749992,309.4311296152 724.2132289312501,299.9205644522483 732.3033988749999,294.04271192932396 729.21322893125,303.5532770922754 737.3033988749997,297.675424569351 727.3033988749997,297.6754245693505 717.3033988749997,297.67542456935007 725.3935688187495,291.7975720464257 728.4837387624985,301.30813720937743 718.4837387624984,301.308137209377 710.3935688187493,295.43028468645184 720.3935688187493,295.4302846864523 712.3033988749995,301.3081372093767 709.2132289312495,310.81870237232806 706.1230589874997,320.32926753527954 709.2132289312486,329.83983269823125 701.1230589874995,323.96198017530605 698.0328890437504,314.45141501235435 694.9427191000004,323.9619801753058 686.8525491562507,329.83983269823017 683.7623792125007,339.3503978611816 686.8525491562507,329.83983269823017 678.7623792125014,323.96198017530503 686.8525491562507,329.83983269823017 683.7623792125016,320.32926753527846 673.7623792125016,320.32926753527795 676.8525491562507,329.83983269822966 666.8525491562507,329.8398326982292" stroke="black" stroke-linecap="round" stroke-width="1" /><polyline clip-path="url(#border_clip)" fill="none" points="666.8525491562507,329.8398326982292 663.7623792125007,339.3503978611806 653.7623792125007,339.3503978611801 650.6722092687517,329.8398326982284 642.5820393250024,323.9619801753033 639.4918693812525,333.4725453382547 642.5820393250024,323.9619801753033 639.4918693812525,333.4725453382547 631.4016994375027,339.3503978611791 639.491869381252,345.22825038410423 647.5820393250017,339.3503978611799 644.4918693812526,329.8398326982282 641.4016994375037,320.3292675352764 633.3115294937538,326.20712005820076 641.4016994375031,332.08497258112595 638.3115294937531,341.5955377440773 630.2213595500033,347.4733902670017 622.1311896062541,341.5955377440765 619.0410196625041,351.10610290702795 615.9508497187542,360.61666806997937 619.0410196625041,351.10610290702795 622.1311896062541,341.5955377440765 632.1311896062541,341.59553774407703 624.0410196625049,335.7176852211519 632.1311896062548,329.8398326982275 622.1311896062547,329.83983269822704 632.1311896062548,329.8398326982275 629.0410196625048,339.350397861179 625.9508497187558,329.8398326982272 615.9508497187558,329.8398326982267 619.0410196625057,320.3292675352753 615.9508497187567,310.8187023723235 607.8606797750075,304.9408498493984 610.9508497187575,295.43028468644695 614.0410196625065,304.94084984939866 617.1311896062565,295.4302846864473 609.0410196625066,301.3081372093716 600.9508497187569,307.185989732296 604.0410196625069,297.6754245693445 612.131189606256,303.5532770922697 604.0410196625062,309.4311296151941 594.0410196625062,309.4311296151935 602.1311896062559,303.55327709226924" stroke="black" stroke-linecap="round" stroke-width="1" /><polyline clip-path="url(#border_clip)" fill="none" points="602.1311896062559,303.55327709226924 599.041019662506,313.0638422552206 602.131189606255,322.57440741817237 605.221359550004,332.08497258112413 613.3115294937531,337.96282510404933 603.3115294937531,337.96282510404876 595.2213595500039,332.08497258112357 598.3115294937529,341.5955377440753 595.221359550003,351.10610290702675 598.3115294937519,360.61666806997846 595.221359550003,351.10610290702675 585.2213595500028,351.1061029070262 595.221359550003,351.10610290702675 587.1311896062537,345.22825038410156 579.0410196625039,351.10610290702584 587.1311896062531,356.98395542995104 579.0410196625032,362.8618079528753 582.1311896062522,372.37237311582714 574.0410196625023,378.25022563875143 565.9508497187531,372.37237311582624 555.9508497187531,372.37237311582567 559.0410196625021,381.88293827877743 555.9508497187531,372.37237311582567 559.0410196625021,381.88293827877743 555.950849718752,391.39350344172885 565.9508497187521,391.3935034417294 569.0410196625021,381.882938278778 560.9508497187529,376.00508575585275 552.8606797750037,370.12723323292755 549.7705098312538,379.637798395879 559.7705098312538,379.63779839587954 562.8606797750027,389.1483635588313 559.7705098312528,398.6589287217827 549.7705098312526,398.6589287217821 552.8606797750016,408.16949388473387 555.9508497187505,417.68005904768563 552.8606797750016,408.16949388473387 549.7705098312526,398.6589287217821 557.8606797750025,392.7810761988578 547.8606797750025,392.78107619885725 550.9508497187525,383.2705110359058 542.8606797750026,389.1483635588301 550.9508497187525,383.2705110359058" stroke="black" stroke-linecap="round" stroke-width="1" /><polyline clip-path="url(#border_clip)" fill="none" points="550.9508497187525,383.2705110359058 554.0410196625014,392.7810761988576 545.9508497187522,386.90322367593234 537.8606797750024,392.7810761988566 534.7705098312535,383.27051103590486 526.6803398875044,377.39265851297966 516.6803398875043,377.39265851297904 513.5901699437553,367.8820933500273 521.6803398875045,373.7599458729525 518.5901699437555,364.24938071000076 515.5000000000056,373.75994587295213 512.4098300562555,383.2705110359035 509.31966011250654,373.7599458729518 519.3196601125067,373.75994587295236 516.2294901687566,383.2705110359037 508.13932022500666,389.148363558828 511.22949016875674,379.63779839587664 514.3196601125056,389.1483635588284 522.4098300562548,395.02621608175366 530.500000000004,400.9040686046789 540.5000000000041,400.90406860467954 532.4098300562541,406.78192112760377 522.4098300562541,406.78192112760314 530.5000000000033,412.65977365052845 533.5901699437521,422.1703388134802 541.6803398875013,428.04819133640547 533.5901699437521,422.1703388134802 525.5000000000023,428.04819133640444 533.5901699437521,422.1703388134802 523.5901699437521,422.1703388134796 520.500000000002,431.68090397643095 530.500000000002,431.68090397643164 527.409830056252,441.191469139383 535.5000000000011,447.06932166230825 532.409830056251,456.5798868252597 522.409830056251,456.57988682525905 514.3196601125012,462.4577393481833 522.4098300562503,468.3355918711086 514.3196601125012,462.4577393481833 522.4098300562503,468.3355918711086 525.4999999999992,477.84615703406035 533.5901699437491,471.9683045111361 530.5000000000002,462.4577393481843" stroke="black" stroke-linecap="round" stroke-width="1" /><polyline clip-path="url(#border_clip)" fill="none" points="530.5000000000002,462.4577393481843 520.5000000000001,462.4577393481837 510.50000000000006,462.45773934818305 513.590169943749,471.9683045111348 521.6803398874988,466.0904519882106 529.770509831248,471.96830451113584 532.8606797749969,481.47886967408766 524.770509831247,487.3567221970119 532.8606797749961,493.2345747199372 540.9508497187453,499.11242724286245 532.8606797749961,493.2345747199372 524.770509831247,487.3567221970119 527.8606797749972,477.8461570340605 519.7705098312472,483.72400955698475 516.6803398874983,474.21344439403293 513.5901699437483,483.72400955698436 516.6803398874983,474.21344439403293 524.7705098312474,480.09129691695824 514.7705098312474,480.0912969169576 511.68033988749727,489.601862079909 503.59016994374815,483.7240095569837 493.5901699437481,483.72400955698305 485.4999999999982,489.6018620799073 477.409830056249,483.72400955698197 487.4098300562491,483.7240095569826 479.31966011249995,477.84615703405734 482.40983005624884,487.3567221970091 485.49999999999767,496.8672873599609 477.40983005624855,490.9894348370356 485.49999999999847,485.1115823141114 488.59016994374736,494.6221474770632 485.4999999999972,504.1327126400146 482.4098300562483,494.62214747706275 490.4999999999975,500.49999999998806 500.49999999999756,500.49999999998875 510.4999999999976,500.4999999999894 518.5901699437476,494.6221474770652 515.4999999999974,504.1327126400166 507.4098300562475,510.0105651629408 517.4098300562475,510.0105651629415 525.4999999999967,515.8884176858668 535.4999999999967,515.8884176858675 525.4999999999967,515.8884176858668" stroke="black" stroke-linecap="round" stroke-width="1" /><polyline clip-path="url(#border_clip)" fill="none" points="525.4999999999967,515.8884176858668 522.4098300562465,525.3989828488183 525.4999999999967,515.8884176858668 517.4098300562467,521.7662702087911 520.4999999999956,531.2768353717429 528.5901699437455,525.3989828488186 531.6803398874944,534.9095480117704 541.6803398874944,534.9095480117711 544.7705098312433,544.4201131747229 536.6803398874933,550.2979656976472 533.5901699437431,559.8085308605986 543.5901699437433,559.8085308605993 533.5901699437431,559.8085308605986 543.5901699437433,559.8085308605993 551.6803398874923,565.6863833835246 554.7705098312425,556.1758182205732 546.6803398874933,550.2979656976479 538.5901699437435,556.1758182205721 530.4999999999935,562.0536707434962 538.5901699437426,567.9315232664217 541.6803398874928,558.4209581034702 551.6803398874929,558.420958103471 559.770509831242,564.2988106263963 556.6803398874918,573.8093757893477 566.6803398874919,573.8093757893483 576.680339887492,573.8093757893491 566.6803398874919,573.8093757893483 556.6803398874918,573.8093757893477 553.590169943743,564.2988106263958 550.4999999999928,573.8093757893472 542.4098300562437,567.9315232664219 545.4999999999925,577.4420884293737 542.4098300562437,567.9315232664219 552.4098300562438,567.9315232664226 544.3196601124938,573.8093757893467 547.4098300562426,583.3199409522986 537.4098300562425,583.3199409522979 529.3196601124926,589.197793475222 526.2294901687425,598.7083586381734 516.2294901687424,598.7083586381727 524.3196601124923,592.8305061152486 514.3196601124922,592.8305061152478 522.4098300562414,598.7083586381732" stroke="black" stroke-linecap="round" stroke-width="1" /><polyline clip-path="url(#border_clip)" fill="none" points="522.4098300562414,598.7083586381732 530.4999999999905,604.5862111610985 520.4999999999903,604.5862111610978 523.5901699437405,595.0756459981465 531.6803398874897,600.9534985210718 534.7705098312384,610.4640636840236 526.6803398874894,604.5862111610983 536.6803398874895,604.586211161099 544.7705098312395,598.7083586381748 552.8606797749894,592.8305061152506 555.9508497187396,583.3199409522992 559.0410196624883,592.8305061152511 555.9508497187381,602.3410712782024 564.0410196624881,596.4632187552784 574.0410196624882,596.4632187552791 582.1311896062382,590.5853662323549 574.0410196624882,596.4632187552791 577.131189606237,605.9737839182309 574.0410196624882,596.4632187552791 570.950849718738,605.9737839182304 579.0410196624871,611.8516364411558 582.1311896062373,602.3410712782045 590.2213595499863,608.2189238011299 598.3115294937363,602.3410712782057 606.4016994374855,608.218923801131 603.3115294937352,617.7294889640824 606.401699437484,627.2400541270342 614.491869381234,621.3622016041102 606.401699437484,627.2400541270342 614.491869381234,621.3622016041102 624.491869381234,621.3622016041109 621.4016994374853,611.851636441159 611.4016994374851,611.8516364411582 608.311529493735,621.3622016041096 605.2213595499848,630.872766767061 615.2213595499848,630.8727667670618 612.131189606236,621.3622016041099 620.221359549986,615.4843490811858 630.2213595499861,615.4843490811866 633.3115294937348,624.9949142441384 641.4016994374849,619.1170617212143 649.4918693812349,613.2392091982902 641.4016994374849,619.1170617212143" stroke="black" stroke-linecap="round" stroke-width="1" /><polyline clip-path="url(#border_clip)" fill="none" points="641.4016994374849,619.1170617212143 633.3115294937348,624.9949142441384 625.2213595499858,619.1170617212131 628.3115294937345,628.6276268841649 618.3115294937345,628.6276268841641 626.4016994374836,634.5054794070895 618.3115294937345,628.6276268841641 626.4016994374845,622.7497743612399 623.3115294937343,632.2603395241913 631.4016994374833,638.1381920471167 623.3115294937332,644.0160445700409 620.221359549983,653.5266097329923 623.3115294937318,663.0371748959441 615.2213595499818,668.9150274188682 618.311529493732,659.4044622559168 610.221359549982,665.2823147788409 620.221359549982,665.2823147788417 630.2213595499821,665.2823147788425 622.1311896062322,671.1601673017667 619.0410196624834,661.6496021388148 629.0410196624834,661.6496021388156 637.1311896062325,667.527454661741 627.1311896062325,667.5274546617402 635.2213595499825,661.6496021388161 638.3115294937328,652.1390369758647 641.4016994374831,642.6284718129134 638.3115294937343,633.1179066499615 646.4016994374833,638.9957591728869 649.4918693812322,648.5063243358388 652.5820393249824,638.9957591728875 660.6722092687324,633.1179066499633 663.7623792124828,623.6073414870119 660.6722092687324,633.1179066499633 668.7623792124815,638.9957591728887 660.6722092687324,633.1179066499633 663.7623792124812,642.6284718129152 673.7623792124812,642.628471812916 670.6722092687326,633.1179066499642 680.6722092687326,633.117906649965 683.7623792124829,623.6073414870136 693.762379212483,623.6073414870144 696.8525491562316,633.1179066499664 704.9427190999806,638.9957591728918" stroke="black" stroke-linecap="round" stroke-width="1" /><polyline clip-path="url(#border_clip)" fill="none" points="704.9427190999806,638.9957591728918 708.032889043731,629.4851940099404 704.9427190999806,638.9957591728918 708.032889043731,629.4851940099404 716.123058987481,623.6073414870164 708.032889043732,617.7294889640908 699.9427190999819,623.607341487015 703.0328890437306,633.1179066499668 706.1230589874793,642.6284718129186 714.2132289312293,636.7506192899946 706.1230589874804,630.8727667670692 709.2132289312306,621.3622016041178 717.3033988749806,615.4843490811937 725.3935688187297,621.3622016041192 728.48373876248,611.8516364411678 731.5739087062303,602.3410712782164 728.48373876248,611.8516364411678 725.3935688187297,621.3622016041192 715.3935688187296,621.3622016041184 723.4837387624787,627.2400541270438 715.3935688187286,633.1179066499678 725.3935688187287,633.1179066499687 715.3935688187286,633.1179066499678 718.4837387624789,623.6073414870165 721.5739087062276,633.1179066499684 731.5739087062277,633.1179066499692 728.4837387624773,642.6284718129206 731.573908706226,652.1390369758725 739.6640786499751,658.0168894987979 736.5739087062248,667.5274546617493 733.483738762476,658.0168894987974 730.3935688187257,667.5274546617487 738.4837387624757,661.6496021388247 746.5739087062258,655.7717496159006 743.4837387624755,665.282314778852 735.3935688187264,659.4044622559264 743.4837387624765,653.5266097330024 753.4837387624766,653.5266097330033 745.3935688187265,659.4044622559273 748.4837387624768,649.893897092976 745.3935688187282,640.383331930024 742.3033988749795,630.8727667670721 734.2132289312306,624.9949142441467" stroke="black" stroke-linecap="round" stroke-width="1" /><polyline clip-path="url(#border_clip)" fill="none" points="734.2132289312306,624.9949142441467 744.2132289312306,624.9949142441476 752.3033988749796,630.872766767073 749.213228931231,621.3622016041212 752.3033988749813,611.8516364411698 749.2132289312326,602.3410712782179 752.3033988749813,611.8516364411698 762.3033988749814,611.8516364411707 752.3033988749813,611.8516364411698 760.3935688187303,617.7294889640953 768.4837387624805,611.8516364411712 760.3935688187314,605.9737839182458 768.4837387624815,600.0959313953217 765.3935688187328,590.5853662323698 773.483738762483,584.7075137094457 781.5739087062319,590.5853662323713 791.573908706232,590.5853662323722 788.4837387624834,581.0748010694202 791.573908706232,590.5853662323722 788.4837387624834,581.0748010694202 791.5739087062337,571.5642359064689 781.5739087062336,571.564235906468 778.4837387624832,581.0748010694193 786.5739087062323,586.9526535923449 794.6640786499813,592.8305061152704 797.7542485937316,583.319940952319 787.7542485937315,583.3199409523181 784.6640786499829,573.8093757893662 787.7542485937333,564.2988106264149 797.7542485937333,564.2988106264158 794.6640786499847,554.7882454634639 791.5739087062361,545.277680300512 794.6640786499847,554.7882454634639 797.7542485937333,564.2988106264158 789.6640786499834,570.1766631493399 799.6640786499834,570.1766631493408 796.573908706233,579.6872283122921 804.6640786499831,573.8093757893681 796.573908706233,579.6872283122921 793.4837387624844,570.1766631493402 801.5739087062334,576.0545156722658 809.6640786499836,570.1766631493417 812.7542485937322,579.6872283122937" stroke="black" stroke-linecap="round" stroke-width="1" /><polyline clip-path="url(#border_clip)" fill="none" points="812.7542485937322,579.6872283122937 820.8444185374811,585.5650808352192 830.8444185374813,585.5650808352201 833.9345884812299,595.075645998172 825.8444185374808,589.1977934752465 828.9345884812294,598.7083586381984 832.0247584249798,589.1977934752471 835.1149283687303,579.6872283122957 838.2050983124789,589.1977934752476 828.2050983124789,589.1977934752467 831.2952682562293,579.6872283122954 839.3854381999793,573.8093757893713 836.2952682562288,583.3199409523227 833.2050983124802,573.8093757893707 825.1149283687313,567.9315232664452 817.0247584249823,562.0536707435195 807.0247584249821,562.0536707435186 815.1149283687323,556.1758182205946 825.1149283687324,556.1758182205956 817.0247584249835,550.2979656976701 813.9345884812349,540.7874005347181 805.8444185374858,534.9095480117925 813.9345884812349,540.7874005347181 822.024758424985,534.9095480117941 813.9345884812349,540.7874005347181 823.9345884812349,540.787400534719 827.0247584249853,531.2768353717677 817.0247584249853,531.2768353717668 820.1149283687357,521.7662702088154 812.0247584249867,515.8884176858899 815.1149283687371,506.3778525229385 825.1149283687372,506.3778525229395 833.2050983124873,500.5000000000155 825.1149283687383,494.6221474770899 833.2050983124873,500.5000000000155 825.1149283687383,494.6221474770899 822.0247584249898,485.111582314138 813.9345884812396,490.989434837062 817.0247584249882,500.5000000000139 827.0247584249882,500.5000000000149 837.0247584249885,500.50000000001586 833.9345884812399,490.9894348370639 825.8444185374897,496.8672873599879" stroke="black" stroke-linecap="round" stroke-width="1" /><polyline clip-path="url(#border_clip)" fill="none" points="825.8444185374897,496.8672873599879 817.7542485937407,490.98943483706233 814.6640786499922,481.4788696741104 822.7542485937423,475.60101715118645 814.6640786499934,469.72316462826086 806.5739087062444,463.8453121053352 814.6640786499934,469.72316462826086 822.7542485937423,475.60101715118645 819.6640786499918,485.11158231413776 827.754248593742,479.23372979121376 830.8444185374906,488.7442949541657 833.934588481241,479.2337297912144 830.8444185374906,488.7442949541657 822.7542485937415,482.8664424312401 832.7542485937417,482.8664424312411 835.8444185374922,473.3558772682898 843.9345884812411,479.2337297912154 853.9345884812412,479.23372979121643 862.0247584249914,473.35587726829243 870.1149283687403,479.233729791218 860.1149283687403,479.233729791217 868.2050983124891,485.11158231414265 865.1149283687406,475.6010171511907 862.0247584249921,466.0904519882387 870.114928368741,471.9683045111644 862.0247584249909,477.8461570340883 858.9345884812424,468.3355918711364 862.0247584249928,458.8250267081851 865.1149283687414,468.335591871137 857.0247584249923,462.45773934821136 847.0247584249923,462.45773934821034 837.0247584249921,462.4577393482093 828.934588481242,468.3355918711333 832.0247584249926,458.82502670818195 840.1149283687427,452.947174185258 830.1149283687425,452.947174185257 822.0247584249936,447.06932166233133 812.0247584249935,447.0693216623303 822.0247584249936,447.06932166233133 825.1149283687441,437.55875649938 822.0247584249936,447.06932166233133 830.1149283687438,441.1914691394074 827.0247584249953,431.6809039764554" stroke="black" stroke-linecap="round" stroke-width="1" /><polyline clip-path="url(#border_clip)" fill="none" points="827.0247584249953,431.6809039764554 818.9345884812451,437.5587564993794 815.8444185374966,428.0481913364274 805.8444185374965,428.0481913364264 802.754248593748,418.5376261734744 810.8444185374982,412.65977365055045 813.9345884812487,403.14920848759914 803.9345884812485,403.1492084875981 813.9345884812487,403.14920848759914 803.9345884812485,403.1492084875981 795.8444185374997,397.27135596467247 792.754248593749,406.7819211276237 800.8444185374981,412.65977365054937 808.9345884812483,406.7819211276254 817.0247584249985,400.9040686047015 808.9345884812494,395.02621608177583 805.844418537499,404.5367812447272 795.8444185374988,404.5367812447261 787.7542485937499,398.6589287218004 790.8444185375004,389.14836355884916 780.8444185375004,389.1483635588481 770.8444185375001,389.148363558847 780.8444185375004,389.1483635588481 790.8444185375004,389.14836355884916 793.934588481249,398.6589287218011 797.0247584249994,389.1483635588498 805.1149283687485,395.02621608177543 802.0247584249998,385.51565091882344 805.1149283687485,395.02621608177543 795.1149283687482,395.02621608177435 803.2050983124984,389.14836355885046 800.11492836875,379.63779839589847 810.11492836875,379.63779839589955 818.2050983125002,373.7599458729756 821.2952682562509,364.2493807100243 831.2952682562509,364.2493807100254 823.2050983125007,370.12723323294927 833.2050983125009,370.1272332329504 825.1149283687519,364.2493807100247 817.024758425003,358.371528187099 827.024758425003,358.3715281871001 823.9345884812526,367.8820933500514 815.8444185375035,362.0042408271257" stroke="black" stroke-linecap="round" stroke-width="1" /><polyline clip-path="url(#border_clip)" fill="none" points="815.8444185375035,362.0042408271257 812.7542485937552,352.49367566417374 820.844418537504,358.37152818709944 810.844418537504,358.3715281870983 802.7542485937538,364.24938071002225 794.6640786500036,370.1272332329462 791.573908706253,379.63779839589745 788.4837387625046,370.1272332329455 791.573908706255,360.61666806999415 783.4837387625048,366.4945205929181 773.4837387625048,366.49452059291696 765.3935688187546,372.3723731158409 773.4837387625048,366.49452059291696 770.3935688187562,356.983955429965 773.4837387625047,366.49452059291696 776.5739087062552,356.9839554299657 768.4837387625063,351.10610290703994 765.3935688187557,360.6166680699913 757.3033988750068,354.73881554706554 749.2132289312566,360.6166680699895 741.1230589875076,354.7388155470638 744.2132289312582,345.22825038411247 741.1230589875097,335.7176852211605 733.0328890437595,341.59553774408437 741.1230589875097,335.7176852211605 733.0328890437595,341.59553774408437 723.0328890437594,341.5955377440833 726.1230589875079,351.1061029070353 736.1230589875079,351.1061029070364 739.2132289312585,341.59553774408505 742.3033988750091,332.0849725811338 732.303398875009,332.08497258113266 735.3935688187573,341.59553774408465 727.3033988750071,347.47339026700854 717.303398875007,347.4733902670074 714.2132289312585,337.9628251040554 706.1230589875083,343.8406776269793 698.0328890437581,349.7185301499032 706.1230589875083,343.8406776269793 714.2132289312585,337.9628251040554 722.3033988750075,343.8406776269811 719.2132289312591,334.33011246402907 729.2132289312592,334.3301124640302" stroke="black" stroke-linecap="round" stroke-width="1" /><polyline clip-path="url(#border_clip)" fill="none" points="729.2132289312592,334.3301124640302 721.1230589875103,328.4522599411045 729.2132289312592,334.3301124640302 721.1230589875089,340.20796498695415 724.2132289312596,330.6973998240028 716.1230589875106,324.8195473010771 724.2132289312608,318.9416947781532 727.3033988750115,309.4311296152019 724.2132289312631,299.9205644522499 732.3033988750133,294.04271192932595 729.2132289312626,303.5532770922773 737.3033988750129,297.67542456935337 727.3033988750128,297.67542456935223 717.3033988750127,297.6754245693511 725.393568818763,291.79757204642726 728.4837387625114,301.30813720937925 718.4837387625112,301.30813720937806 710.3935688187623,295.43028468645235 720.3935688187624,295.43028468645355 712.3033988750121,301.3081372093774 709.2132289312616,310.8187023723287 706.123058987511,320.32926753528 709.2132289312593,329.83983269823204 701.1230589875105,323.9619801753063 698.032889043762,314.45141501235423 694.9427191000115,323.9619801753056 686.8525491562611,329.83983269822943 683.7623792125105,339.35039786118074 686.8525491562611,329.83983269822943 678.7623792125123,323.96198017530367 686.8525491562611,329.83983269822943 683.7623792125128,320.3292675352774 673.7623792125127,320.32926753527624 676.852549156261,329.8398326982283 666.8525491562609,329.8398326982271 663.7623792125103,339.3503978611784 653.7623792125102,339.35039786117727 650.6722092687617,329.8398326982252 642.5820393250128,323.96198017529946 639.4918693812622,333.47254533825077 642.5820393250128,323.96198017529946 639.4918693812622,333.47254533825077 631.4016994375119,339.35039786117466" stroke="black" stroke-linecap="round" stroke-width="1" /><polyline clip-path="url(#border_clip)" fill="none" points="631.4016994375119,339.35039786117466 639.4918693812608,345.2282503841004 647.582039325011,339.35039786117653 644.4918693812626,329.83983269822454 641.4016994375143,320.3292675352725 633.311529493764,326.2071200581963 641.4016994375129,332.0849725811221 638.3115294937622,341.59553774407345 630.221359550012,347.4733902669973 622.1311896062631,341.5955377440715 619.0410196625124,351.1061029070228 615.9508497187618,360.61666806997414 619.0410196625124,351.1061029070228 622.1311896062631,341.5955377440715 632.1311896062632,341.59553774407266 624.0410196625144,335.7176852211469 632.1311896062647,329.83983269822306 622.1311896062646,329.83983269822187 632.1311896062647,329.83983269822306 629.041019662514,339.3503978611744 625.9508497187657,329.8398326982223 615.9508497187655,329.83983269822113 619.0410196625162,320.32926753526976 615.9508497187678,310.8187023723177 607.860679775019,304.94084984939195 610.9508497187696,295.43028468644064 614.041019662518,304.9408498493927 617.1311896062687,295.4302846864414 609.0410196625184,301.3081372093652 600.950849718768,307.18598973228904 604.0410196625187,297.67542456933774 612.1311896062675,303.55327709226356 604.0410196625172,309.4311296151874 594.0410196625171,309.43112961518614 602.1311896062674,303.5532770922623 599.0410196625168,313.0638422552136 602.1311896062651,322.57440741816566 605.2213595500134,332.0849725811177 613.3115294937624,337.96282510404353 603.3115294937622,337.9628251040423 595.2213595500133,332.0849725811165 598.3115294937617,341.59553774406857 595.2213595500109,351.1061029070198" stroke="black" stroke-linecap="round" stroke-width="1" /><polyline clip-path="url(#border_clip)" fill="none" points="595.2213595500109,351.1061029070198 598.3115294937593,360.61666806997187 595.2213595500109,351.1061029070198 585.2213595500108,351.10610290701857 595.2213595500109,351.1061029070198 587.1311896062621,345.22825038409405 579.0410196625118,351.1061029070178 587.1311896062606,356.98395542994365 579.0410196625103,362.8618079528675 582.1311896062587,372.3723731158195 574.0410196625083,378.2502256387433 565.9508497187594,372.3723731158175 555.9508497187593,372.37237311581623 559.0410196625077,381.8829382787683 555.9508497187593,372.37237311581623 559.0410196625077,381.8829382787683 555.9508497187569,391.3935034417196 565.9508497187571,391.39350344172084 569.0410196625078,381.88293827876953 560.950849718759,376.0050857558437 552.8606797750101,370.1272332329179 549.7705098312593,379.6377983958692 559.7705098312596,379.63779839587045 562.8606797750078,389.1483635588225 559.7705098312572,398.6589287217738 549.770509831257,398.65892872177255 552.8606797750053,408.1694938847246 555.9508497187536,417.68005904767665 552.8606797750053,408.1694938847246 549.770509831257,398.65892872177255 557.8606797750074,392.7810761988487 547.8606797750072,392.7810761988475 550.9508497187579,383.27051103589616 542.8606797750076,389.14836355881994 550.9508497187579,383.27051103589616 554.0410196625062,392.78107619884827 545.9508497187574,386.9032236759224 537.860679775007,392.78107619884616 534.7705098312588,383.2705110358941 526.6803398875098,377.39265851296824 516.6803398875097,377.392658512967 513.5901699437615,367.8820933500149 521.6803398875103,373.75994587294076" stroke="black" stroke-linecap="round" stroke-width="1" /><polyline clip-path="url(#border_clip)" fill="none" points="521.6803398875103,373.75994587294076 518.5901699437619,364.2493807099887 515.5000000000113,373.75994587293997 512.4098300562605,383.2705110358912 509.31966011251217,373.75994587293917 519.3196601125123,373.7599458729404 516.2294901687616,383.27051103589173 508.13932022501126,389.1483635588155 511.22949016876197,379.63779839586425 514.3196601125103,389.1483635588163 522.4098300562591,395.0262160817422 530.500000000008,400.90406860466805 540.5000000000081,400.9040686046693 532.4098300562578,406.7819211275931 522.4098300562576,406.7819211275918 530.5000000000065,412.65977365051765 533.5901699437547,422.17033881346975 541.6803398875036,428.04819133639563 533.5901699437547,422.17033881346975 525.5000000000043,428.04819133639353 533.5901699437547,422.17033881346975 523.5901699437545,422.17033881346845 520.5000000000039,431.68090397641976 530.500000000004,431.68090397642106 527.4098300562532,441.1914691393723 535.500000000002,447.0693216622982 532.4098300562513,456.5798868252495 522.4098300562512,456.5798868252482 514.3196601125007,462.4577393481719 522.4098300562496,468.3355918710978 514.3196601125007,462.4577393481719 522.4098300562496,468.3355918710978 525.4999999999978,477.8461570340499 533.5901699437482,471.9683045111262 530.5,462.4577393481741 520.4999999999998,462.45773934817277 510.49999999999966,462.4577393481714 513.5901699437479,471.9683045111235 521.6803398874982,466.0904519881998 529.7705098312471,471.96830451112567 532.8606797749953,481.47886967407777 524.770509831245,487.3567221970015 532.8606797749937,493.2345747199274" stroke="black" stroke-linecap="round" stroke-width="1" /><polyline clip-path="url(#border_clip)" fill="none" points="532.8606797749937,493.2345747199274 540.9508497187426,499.1124272428533 532.8606797749937,493.2345747199274 524.770509831245,487.3567221970015 527.8606797749958,477.84615703405024 519.7705098312454,483.72400955697395 516.6803398874971,474.21344439402185 513.5901699437463,483.72400955697316 516.6803398874971,474.21344439402185 524.7705098312459,480.0912969169478 514.7705098312458,480.0912969169464 511.680339887495,489.6018620798977 503.59016994374616,483.7240095569718 493.590169943746,483.72400955697043 485.4999999999956,489.6018620798942 477.40983005624685,483.72400955696827 487.40983005624696,483.72400955696963 479.3196601124982,477.8461570340437 482.4098300562464,487.3567221969958 485.49999999999466,496.8672873599479 477.4098300562458,490.989434837022 485.49999999999625,485.11158231409826 488.59016994374446,494.62214747705036 485.49999999999363,504.1327126400016 482.4098300562454,494.6221474770495 490.4999999999942,500.49999999997544 500.4999999999944,500.4999999999768" stroke="black" stroke-linecap="round" stroke-width="1" /></svg>