<?xml version="1.0" encoding="utf-8" ?>
<svg baseProfile="full" height="1000px" version="1.1" width="1000px" xmlns="http://www.w3.org/2000/svg" xmlns:ev="http://www.w3.org/2001/xml-events" xmlns:xlink="http://www.w3.org/1999/xlink"><defs><clipPath id="border_clip"><rect height="1000" width="1000" x="0" y="0" /></clipPath></defs><polyline clip-path="url(#border_clip)" fill="none" points="500.5,500.5 510.5,500.5 518.5901699437495,494.62214747707526 515.5,504.1327126400268 525.5,504.1327126400268 533.5901699437495,510.01056516295154 536.6803398874989,500.5 528.5901699437495,506.37785252292474 538.5901699437495,506.37785252292474 541.6803398874989,496.8672873599732 544.7705098312484,506.37785252292474 554.7705098312484,506.37785252292474 557.860679774998,496.8672873599732 565.9508497187473,490.9894348370485 557.860679774998,496.8672873599732 549.7705098312484,502.74513988289794 541.6803398874989,496.8672873599732 531.6803398874989,496.8672873599732 523.5901699437495,490.9894348370484 533.5901699437495,490.98943483704846 530.5,500.5 538.5901699437495,506.37785252292474 548.5901699437495,506.37785252292474 545.5,496.8672873599732 537.4098300562505,490.98943483704846 527.4098300562505,490.98943483704846 535.5,496.8672873599732 527.4098300562505,502.7451398828979 535.5,496.8672873599732 525.5,496.86728735997315 515.5,496.86728735997315 507.40983005625054,490.9894348370484 510.5,481.47886967409687 500.5,481.4788696740968 508.5901699437495,475.60101715117213 516.680339887499,469.7231646282474 513.5901699437495,479.2337297911989 516.680339887499,469.7231646282474 513.5901699437495,479.2337297911989 505.50000000000006,473.3558772682742 502.40983005625054,482.86644243122566 494.3196601125011,476.9885899083009 502.4098300562506,471.11073738537624" stroke="black" stroke-linecap="round" stroke-width="1" /><polyline clip-path="url(#border_clip)" fill="none" points="502.4098300562506,471.11073738537624 510.5000000000001,465.23288486245156 500.5000000000001,465.2328848624515 492.40983005625066,459.3550323395267 482.40983005625066,459.3550323395267 479.3196601125012,449.8444671765751 476.2294901687518,440.3339020136236 468.1393202250023,446.21175453654826 471.2294901687517,455.7223196994998 461.2294901687517,455.72231969949974 458.1393202250023,446.2117545365482 466.2294901687517,452.089607059473 463.13932022500217,461.6001722224245 453.13932022500217,461.6001722224244 463.13932022500217,461.6001722224245 466.22949016875174,452.089607059473 458.1393202250022,457.9674595823977 466.22949016875174,452.089607059473 476.22949016875174,452.08960705947305 486.22949016875174,452.0896070594731 494.31966011250125,446.2117545365484 491.2294901687517,455.72231969949996 501.22949016875174,455.7223196995 509.31966011250114,461.6001722224248 512.4098300562507,452.08960705947334 504.3196601125012,457.96745958239796 514.3196601125012,457.9674595823981 517.4098300562507,448.45689441944654 520.5000000000001,457.9674595823981 530.5000000000001,457.9674595823982 533.5901699437497,448.45689441944666 541.6803398874993,442.57904189652197 533.5901699437497,448.45689441944666 525.5000000000002,454.33474694237134 517.4098300562507,448.45689441944654 507.4098300562507,448.4568944194464 499.3196601125013,442.57904189652163 509.3196601125013,442.57904189652174 506.22949016875174,452.0896070594732 514.3196601125012,457.9674595823981 524.3196601125012,457.96745958239813 521.2294901687518,448.45689441944654 513.1393202250024,442.57904189652174" stroke="black" stroke-linecap="round" stroke-width="1" /><polyline clip-path="url(#border_clip)" fill="none" points="513.1393202250024,442.57904189652174 503.1393202250024,442.57904189652163 511.2294901687518,448.4568944194465 503.1393202250023,454.3347469423711 511.2294901687518,448.4568944194465 501.2294901687518,448.45689441944637 491.2294901687518,448.45689441944626 483.13932022500234,442.57904189652146 486.2294901687519,433.0684767335699 476.2294901687519,433.0684767335698 484.3196601125014,427.1906242106452 492.409830056251,421.3127716877205 489.3196601125014,430.82333685067204 492.409830056251,421.3127716877205 489.3196601125014,430.82333685067204 481.229490168752,424.9454843277472 478.1393202250024,434.4560494906987 470.049150281253,428.57819696777386 478.13932022500256,422.70034444484924 486.2294901687521,416.8224919219246 476.2294901687521,416.8224919219245 468.1393202250027,410.94463939899964 458.1393202250026,410.9446393989995 455.0491502812533,401.43407423604793 451.95898033750393,391.92350907309634 443.86881039375436,397.80136159602097 446.9589803375037,407.31192675897256 436.9589803375037,407.31192675897245 433.86881039375436,397.80136159602085 441.95898033750376,403.6792141189457 438.8688103937542,413.18977928189724 428.86881039375413,413.1897792818971 438.8688103937542,413.18977928189724 441.95898033750376,403.6792141189457 433.8688103937542,409.55706664187034 441.95898033750376,403.6792141189457 451.9589803375038,403.6792141189459 461.9589803375038,403.679214118946 470.0491502812534,397.80136159602137 466.95898033750376,407.31192675897285 476.9589803375038,407.311926758973 485.0491502812532,413.18977928189787 488.13932022500285,403.67921411894633" stroke="black" stroke-linecap="round" stroke-width="1" /><polyline clip-path="url(#border_clip)" fill="none" points="488.13932022500285,403.67921411894633 480.0491502812532,409.55706664187096 490.0491502812533,409.55706664187113 493.1393202250029,400.04650147891965 496.22949016875225,409.55706664187124 506.22949016875225,409.5570666418714 509.3196601125019,400.0465014789199 517.4098300562515,394.1686489559953 509.3196601125019,400.0465014789199 501.2294901687523,405.9243540018445 493.1393202250029,400.04650147891965 483.13932022500285,400.0465014789195 475.04915028125345,394.1686489559946 485.0491502812535,394.16864895599474 481.9589803375039,403.6792141189463 490.0491502812532,409.55706664187113 500.0491502812533,409.5570666418713 496.95898033750393,400.0465014789197 488.86881039375453,394.16864895599485 478.86881039375453,394.1686489559946 486.95898033750393,400.04650147891954 478.8688103937543,405.92435400184416 486.95898033750393,400.04650147891954 476.95898033750393,400.04650147891937 466.9589803375039,400.0465014789192 458.8688103937545,394.1686489559943 461.95898033750416,384.6580837930428 451.9589803375041,384.65808379304264 460.04915028125373,378.780231270118 468.1393202250033,372.90237874719344 465.0491502812537,382.4129439101449 468.1393202250033,372.90237874719344 465.0491502812537,382.4129439101449 456.9589803375043,376.53509138722006 453.86881039375464,386.04565655017154 445.77864045000524,380.16780402724663 453.8688103937548,374.28995150432206 461.95898033750444,368.41209898139743 451.9589803375044,368.41209898139726 443.86881039375504,362.53424645847235 433.868810393755,362.5342464584721 430.7786404500057,353.02368129552053 427.6884705062564,343.51311613256894" stroke="black" stroke-linecap="round" stroke-width="1" /><polyline clip-path="url(#border_clip)" fill="none" points="427.6884705062564,343.51311613256894 419.5983005625068,349.3909686554935 422.68847050625607,358.90153381844516 412.68847050625607,358.90153381844493 409.5983005625068,349.39096865549334 417.6884705062562,355.2688211784182 414.5983005625065,364.77938634136973 404.59830056250644,364.77938634136956 414.5983005625065,364.77938634136973 417.6884705062562,355.2688211784182 409.59830056250655,361.1466737013428 417.6884705062562,355.2688211784182 427.6884705062562,355.2688211784184 437.6884705062562,355.26882117841865 445.7786404500058,349.390968655494 442.6884705062561,358.90153381844556 452.6884705062562,358.9015338184458 460.7786404500056,364.7793863413707 463.86881039375527,355.2688211784192 455.77864045000564,361.14667370134373 465.77864045000564,361.14667370134396 468.8688103937553,351.6361085383925 471.9589803375046,361.1466737013441 481.95898033750467,361.14667370134435 485.04915028125436,351.6361085383928 493.139320225004,345.7582560154683 485.04915028125436,351.6361085383928 476.9589803375047,357.51396106131745 468.8688103937553,351.6361085383925 458.8688103937553,351.63610853839225 450.7786404500059,345.7582560154673 460.778640450006,345.7582560154675 457.6884705062563,355.26882117841905 465.77864045000564,361.14667370134396 475.7786404500057,361.1466737013442 472.6884705062564,351.6361085383926 464.59830056250706,345.7582560154676 454.598300562507,345.7582560154674 462.6884705062564,351.63610853839236 454.5983005625067,357.5139610613169 462.6884705062564,351.63610853839236 452.68847050625635,351.6361085383921 442.6884705062563,351.6361085383918" stroke="black" stroke-linecap="round" stroke-width="1" /><polyline clip-path="url(#border_clip)" fill="none" points="442.6884705062563,351.6361085383918 434.59830056250695,345.7582560154669 437.6884705062567,336.24769085251535 427.68847050625664,336.2476908525151 435.77864045000626,330.3698383295906 443.86881039375595,324.49198580666604 440.7786404500062,334.0025509696176 443.86881039375595,324.49198580666604 440.7786404500062,334.0025509696176 432.68847050625686,328.1246984466926 429.5983005625071,337.6352636096441 421.5081306187578,331.7574110867191 429.59830056250746,325.8795585637946 437.6884705062571,320.00170604087003 427.68847050625703,320.00170604086975 419.5983005625077,314.1238535179448 409.59830056250763,314.12385351794455 406.5081306187584,304.6132883549929 403.41796067500917,295.10272319204125 395.3277907312595,300.98057571496577 398.4179606750087,310.4911408779175 388.41796067500866,310.4911408779172 385.3277907312594,300.98057571496554 393.41796067500877,306.8584282378905 390.32779073125903,316.368993400842 380.32779073125903,316.36899340084176 390.32779073125903,316.368993400842 393.41796067500877,306.8584282378905 385.32779073125914,312.736280760815 393.41796067500877,306.8584282378905 403.4179606750088,306.8584282378908 413.4179606750089,306.8584282378911 421.50813061875857,300.98057571496656 418.41796067500877,310.49114087791804 428.4179606750088,310.49114087791827 436.5081306187582,316.3689934008433 439.5983005625079,306.8584282378918 431.5081306187583,312.7362807608163 441.5081306187583,312.7362807608166 444.5983005625081,303.22571559786513 447.68847050625726,312.73628076081684 457.6884705062573,312.73628076081707 460.77864045000706,303.2257155978656" stroke="black" stroke-linecap="round" stroke-width="1" /><polyline clip-path="url(#border_clip)" fill="none" points="460.77864045000706,303.2257155978656 468.86881039375675,297.3478630749411 460.77864045000706,303.2257155978656 452.6884705062574,309.1035681207901 444.59830056250803,303.22571559786513 434.59830056250803,303.22571559786485 426.5081306187587,297.3478630749398 436.50813061875874,297.34786307494016 433.41796067500894,306.85842823789164 441.5081306187583,312.7362807608166 451.50813061875834,312.73628076081695 448.4179606750091,303.22571559786525 440.3277907312598,297.3478630749403 430.3277907312597,297.34786307493994 438.41796067500906,303.22571559786496 430.32779073125937,309.1035681207895 438.41796067500906,303.22571559786496 428.417960675009,303.2257155978647 418.417960675009,303.22571559786434 410.32779073125965,297.3478630749393 413.41796067500945,287.83729791198783 403.41796067500934,287.83729791198755 411.5081306187591,281.95944538906303 419.59830056250877,276.0815928661385 416.50813061875897,285.59215802909 419.59830056250877,276.0815928661385 416.50813061875897,285.59215802909 408.4179606750096,279.7143055061649 405.3277907312598,289.2248706691164 397.23762078751054,283.34701814619143 405.3277907312602,277.4691656232669 413.4179606750099,271.5913131003424 403.4179606750099,271.59131310034206 395.32779073126056,265.7134605774171 385.3277907312605,265.71346057741675 382.23762078751133,256.20289541446505 379.14745084376216,246.69233025151337 371.0572809000124,252.57018277443785 374.1474508437616,262.08074793738956 364.1474508437616,262.0807479373892 361.0572809000124,252.5701827744375 369.1474508437617,258.44803529736254 366.05728090001185,267.958600460314" stroke="black" stroke-linecap="round" stroke-width="1" /><polyline clip-path="url(#border_clip)" fill="none" points="366.05728090001185,267.958600460314 356.05728090001185,267.9586004603137 366.05728090001185,267.958600460314 369.1474508437617,258.44803529736254 361.05728090001196,264.325887820287 369.1474508437617,258.44803529736254 379.14745084376176,258.4480352973629 389.1474508437618,258.4480352973632 397.23762078751156,252.57018277443873 394.1474508437617,262.08074793739024 404.14745084376176,262.0807479373906 412.2376207875111,267.9586004603156 415.3277907312609,258.44803529736413 407.23762078751116,264.3258878202886 417.2376207875112,264.325887820289 420.3277907312611,254.8153226573375 423.4179606750102,264.3258878202892 433.41796067501025,264.3258878202896 436.5081306187601,254.8153226573381 444.59830056250985,248.93747013441364 436.5081306187601,254.8153226573381 428.41796067501036,260.69317518026253 420.3277907312611,254.8153226573375 410.327790731261,254.81532265733713 402.2376207875117,248.93747013441208 412.2376207875118,248.93747013441245 409.14745084376193,258.44803529736396 417.2376207875112,264.325887820289 427.2376207875113,264.3258878202894 424.14745084376216,254.81532265733765 416.05728090001287,248.9374701344126 406.05728090001276,248.93747013441222 414.1474508437621,254.8153226573373 406.05728090001236,260.69317518026173 414.1474508437621,254.8153226573373 404.14745084376204,254.81532265733694 394.147450843762,254.81532265733657 386.05728090001264,248.93747013441148 389.1474508437625,239.42690497146003 379.1474508437625,239.42690497145963 387.23762078751224,233.54905244853518 395.327790731262,227.67119992561072 392.2376207875121,237.1817650885622" stroke="black" stroke-linecap="round" stroke-width="1" /><polyline clip-path="url(#border_clip)" fill="none" points="392.2376207875121,237.1817650885622 395.327790731262,227.67119992561072 392.2376207875121,237.1817650885622 384.14745084376284,231.30391256563712 381.0572809000129,240.8144777285886 372.96711095626364,234.93662520566352 381.05728090001344,229.05877268273906 389.1474508437632,223.1809201598146 379.1474508437631,223.1809201598142 371.0572809000138,217.30306763688912 361.0572809000138,217.30306763688873 357.9671109562646,207.79250247393702 354.87694101251554,198.2819373109853 346.78677106876574,204.15978983390977 349.87694101251486,213.67035499686148 339.8769410125148,213.67035499686108 336.7867710687657,204.15978983390937 344.876941012515,210.03764235683445 341.7867710687651,219.54820751978593 331.786771068765,219.54820751978554 341.7867710687651,219.54820751978593 344.876941012515,210.03764235683445 336.78677106876523,215.9154948797589 344.876941012515,210.03764235683445 354.87694101251503,210.03764235683485 364.8769410125151,210.03764235683525 372.96711095626483,204.15978983391085 369.876941012515,213.67035499686233 379.87694101251503,213.67035499686273 387.9671109562643,219.54820751978787 391.05728090001423,210.0376423568364 382.96711095626443,215.9154948797608 392.9671109562645,215.91549487976124 396.0572809000144,206.40492971680976 399.14745084376347,215.91549487976147 409.1474508437635,215.91549487976192 412.23762078751344,206.40492971681044 420.32779073126324,200.52707719388604 412.23762078751344,206.40492971681044 404.14745084376364,212.28278223973484 396.0572809000144,206.4049297168097 386.05728090001435,206.40492971680925 377.96711095626506,200.5270771938841" stroke="black" stroke-linecap="round" stroke-width="1" /><polyline clip-path="url(#border_clip)" fill="none" points="377.96711095626506,200.5270771938841 387.9671109562651,200.52707719388457 384.8769410125152,210.03764235683605 392.9671109562645,215.91549487976118 402.96711095626455,215.91549487976164 399.87694101251543,206.40492971680987 391.7867710687662,200.52707719388474 381.78677106876614,200.52707719388428 389.87694101251543,206.40492971680942 381.7867710687656,212.28278223973382 389.87694101251543,206.40492971680942 379.8769410125153,206.40492971680897 369.87694101251526,206.4049297168085 361.78677106876603,200.52707719388337 364.87694101251594,191.0165120309319 354.8769410125159,191.01651203093144 362.9671109562657,185.13865950800704 371.0572809000155,179.26080698508264 367.9671109562655,188.77137214803412 371.0572809000155,179.26080698508264 367.9671109562655,188.77137214803412 359.8769410125163,182.89351962510898 356.78677106876637,192.40408478806046 348.6966011250171,186.52623226513532 356.7867710687669,180.64837974221092 364.8769410125167,174.77052721928652 354.8769410125166,174.77052721928607 346.7867710687674,168.89267469636093 336.7867710687673,168.89267469636047 333.6966011250182,159.3821095334087 330.60643118126916,149.87154437045695 322.51626123751936,155.74939689338134 325.6064311812684,165.2599620563331 315.60643118126836,165.25996205633265 312.5162612375193,155.7493968933809 320.6064311812686,161.62724941630603 317.5162612375186,171.1378145792575 307.5162612375185,171.137814579257 317.5162612375186,171.1378145792575 320.6064311812686,161.62724941630603 312.51626123751873,167.50510193923043 320.6064311812686,161.62724941630603 330.6064311812687,161.62724941630654" stroke="black" stroke-linecap="round" stroke-width="1" /><polyline clip-path="url(#border_clip)" fill="none" points="330.6064311812687,161.62724941630654 340.60643118126876,161.62724941630705 348.69660112501856,155.74939689338265 345.6064311812686,165.25996205633413 355.6064311812687,165.25996205633464 363.696601125018,171.13781457925984 366.78677106876796,161.62724941630836 358.6966011250181,167.50510193923276 368.6966011250182,167.50510193923327 371.7867710687682,157.9945367762818 374.8769410125172,167.50510193923355 384.87694101251725,167.50510193923407 387.9671109562672,157.9945367762826 396.0572809000171,152.11668425335824 387.9671109562672,157.9945367762826 379.87694101251736,163.87238929920693 371.7867710687682,157.99453677628173 361.7867710687681,157.99453677628122 353.69660112501884,152.11668425335603 363.6966011250189,152.11668425335654 360.60643118126893,161.62724941630802 368.69660112501816,167.5051019392332 378.6966011250182,167.50510193923373 375.6064311812693,157.99453677628196 367.51626123752,152.11668425335677 357.5162612375199,152.11668425335625 365.60643118126916,157.99453677628145 357.5162612375193,163.8723892992058 365.60643118126916,157.99453677628145 355.60643118126904,157.99453677628094 345.606431181269,157.99453677628043 337.51626123751976,152.11668425335523 340.6064311812697,142.6061190904038 330.60643118126967,142.6061190904033 338.6966011250195,136.72826656747895 346.7867710687694,130.8504140445546 343.69660112501936,140.36097920750603 346.7867710687694,130.8504140445546 343.69660112501936,140.36097920750603 335.6064311812702,134.48312668458084 332.51626123752015,143.99369184753226 324.4260912937709,138.11583932460707 332.5162612375208,132.23798680168272" stroke="black" stroke-linecap="round" stroke-width="1" /><polyline clip-path="url(#border_clip)" fill="none" points="332.5162612375208,132.23798680168272 340.60643118127064,126.36013427875838 330.6064311812705,126.36013427875787 322.51626123752135,120.48228175583267 312.51626123752123,120.4822817558321 309.4260912937723,110.97171659288034 306.3359213500233,101.46115142992858 298.2457514062734,107.33900395285292 301.33592135002243,116.84956911580468 291.3359213500223,116.84956911580412 288.24575140627337,107.33900395285235 296.33592135002255,113.21685647577755 293.2457514062725,122.72742163872897 283.24575140627246,122.7274216387284 293.2457514062725,122.72742163872897 296.33592135002255,113.21685647577755 288.2457514062727,119.09470899870189 296.33592135002255,113.21685647577755 306.33592135002266,113.21685647577812 316.3359213500227,113.21685647577868 324.4260912937726,107.33900395285434 321.33592135002255,116.84956911580576 331.33592135002266,116.84956911580633 339.42609129377183,122.72742163873158 342.51626123752186,113.21685647578016 334.42609129377195,119.0947089987045 344.42609129377206,119.09470899870507 347.5162612375221,109.58414383575365 350.60643118127103,119.09470899870541 360.6064311812711,119.09470899870598 363.6966011250212,109.58414383575456 371.78677106877103,103.70629131283022 363.6966011250212,109.5841438357545 355.6064311812713,115.46199635867879 347.5162612375221,109.58414383575354 337.51626123752203,109.58414383575297 329.4260912937728,103.70629131282772 339.42609129377286,103.70629131282828 336.33592135002283,113.21685647577971 344.42609129377206,119.09470899870496 354.4260912937721,119.09470899870553 351.33592135002317,109.58414383575371 343.24575140627394,103.70629131282845" stroke="black" stroke-linecap="round" stroke-width="1" /><polyline clip-path="url(#border_clip)" fill="none" points="343.24575140627394,103.70629131282845 333.2457514062739,103.70629131282789 341.3359213500231,109.58414383575314 333.2457514062732,115.46199635867742 341.3359213500231,109.58414383575314 331.335921350023,109.58414383575257 321.3359213500229,109.584143835752 313.2457514062737,103.70629131282675 316.3359213500238,94.19572614987533 306.3359213500237,94.19572614987476 314.42609129377354,88.31787362695047 322.51626123752345,82.44002110402619 319.4260912937734,91.95058626697761 322.5162612375235,82.44002110402619 319.4260912937734,91.95058626697761 311.33592135002425,86.07273374405236 308.24575140627417,95.58329890700378 300.155581462525,89.70544638407853 308.24575140627485,83.82759386115424 316.3359213500247,77.94974133822996 306.33592135002465,77.94974133822933 298.2457514062755,72.07188881530408 288.2457514062754,72.07188881530345 285.15558146252647,62.56132365235163 282.0654115187775,53.05075848939981 273.97524157502767,58.9286110123241 277.0654115187766,68.43917617527592 267.0654115187765,68.43917617527529 263.97524157502755,58.92861101232347 272.0654115187767,64.80646353524872 268.97524157502664,74.31702869820015 258.9752415750266,74.31702869819952 268.97524157502664,74.31702869820015 272.0654115187767,64.80646353524872 263.97524157502687,70.68431605817301 272.0654115187767,64.80646353524872 282.06541151877684,64.80646353524935 292.06541151877695,64.80646353524997 300.1555814625268,58.92861101232569 297.0654115187767,68.43917617527711 307.06541151877684,68.43917617527774 315.155581462526,74.31702869820305 318.2457514062761,64.80646353525162" stroke="black" stroke-linecap="round" stroke-width="1" /><polyline clip-path="url(#border_clip)" fill="none" points="318.2457514062761,64.80646353525162 310.1555814625262,70.68431605817591 320.15558146252624,70.68431605817653 323.2457514062764,61.17375089522511 326.3359213500253,70.68431605817693 336.3359213500254,70.68431605817756 339.42609129377547,61.173750895226135 347.5162612375254,55.295898372301906 339.42609129377547,61.173750895226135 331.33592135002556,67.05160341815036 323.24575140627644,61.173750895225055 313.2457514062763,61.17375089522443 305.15558146252715,55.29589837229912 315.15558146252727,55.295898372299746 312.0654115187772,64.80646353525117 320.1555814625263,70.68431605817648 330.15558146252636,70.6843160581771 327.0654115187775,61.17375089522528 318.97524157502835,55.29589837229997 308.97524157502824,55.29589837229929 317.0654115187774,61.1737508952246 308.9752415750275,67.05160341814883 317.0654115187774,61.1737508952246 307.0654115187773,61.17375089522392 297.06541151877724,61.173750895223236 288.9752415750281,55.29589837229793 292.0654115187782,45.785333209346504 282.06541151877815,45.78533320934582 290.15558146252806,39.90748068642159 298.24575140627803,34.029628163497364 295.1555814625279,43.54019332644879 298.24575140627803,34.029628163497364 295.1555814625279,43.54019332644879 287.0654115187788,37.66234080352348 283.9752415750286,47.1729059664749 275.88507163127946,41.29505344354959 283.9752415750294,35.41720092062536 292.06541151877934,29.539348397701133 282.06541151877923,29.53934839770045 273.9752415750301,23.66149587477514 263.97524157503005,23.66149587477446 260.88507163128116,14.150930711822639 257.7949016875323,4.640365548870818" stroke="black" stroke-linecap="round" stroke-width="1" /><polyline clip-path="url(#border_clip)" fill="none" points="257.7949016875323,4.640365548870818 249.70473174378236,10.518218071795047 252.79490168753122,20.028783234746868 242.79490168753114,20.028783234746186 239.7047317437823,10.518218071794365 247.79490168753145,16.39607059471973 244.70473174378128,25.906635757671154 234.70473174378117,25.90663575767047 244.70473174378125,25.906635757671154 247.79490168753142,16.39607059471973 239.70473174378145,22.27392311764396 247.7949016875314,16.39607059471973 257.7949016875315,16.396070594720413 267.7949016875316,16.396070594721095 275.8850716312815,10.518218071796866 272.79490168753136,20.02878323474829 282.7949016875314,20.02878323474897 290.88507163128054,25.906635757674337 293.97524157503074,16.396070594722914 285.88507163128077,22.273923117647143 295.8850716312808,22.273923117647826 298.97524157503096,12.763357954696403 302.0654115187798,22.273923117648224 312.0654115187799,22.273923117648906 315.1555814625301,12.763357954697483 323.2457514062801,6.885505431773254 315.1555814625301,12.763357954697483 307.06541151878014,18.641210477621712 298.97524157503096,12.763357954696346 288.9752415750309,12.763357954695607 280.8850716312818,6.885505431770241 290.8850716312819,6.88550543177098 287.7949016875317,16.396070594722403 295.88507163128077,22.27392311764777 305.8850716312809,22.273923117648508 302.79490168753205,12.763357954696687 294.704731743783,6.885505431771321 284.7047317437829,6.885505431770582 292.794901687532,12.763357954695948 284.704731743782,18.64121047762012 292.794901687532,12.763357954695948 282.79490168753193,12.76335795469521 272.7949016875318,12.76335795469447" stroke="black" stroke-linecap="round" stroke-width="1" /><polyline clip-path="url(#border_clip)" fill="none" points="272.7949016875318,12.76335795469447 264.7047317437827,6.885505431769104 267.7949016875329,-2.6250597311823185 257.79490168753284,-2.6250597311830575 265.8850716312828,-8.50291225410723 273.9752415750328,-14.380764777031459 270.8850716312826,-4.870199614080093 273.9752415750328,-14.380764777031459 270.8850716312826,-4.870199614080093 262.7949016875334,-10.748052137005459 259.7047317437832,-1.237486974054093 251.61456180003412,-7.115339496979459 259.7047317437841,-12.993192019903631 267.7949016875341,-18.871044542827804 257.79490168753404,-18.8710445428286 249.70473174378492,-24.748897065754022 239.7047317437848,-24.748897065754818 236.61456180003603,-34.25946222870664 233.52439185628725,-43.77002739165846 225.43422191253728,-37.89217486873429 228.52439185628606,-28.381609705782466 218.52439185628594,-28.381609705783262 215.43422191253717,-37.89217486873508 223.5243918562863,-32.01432234580966 220.4342219125361,-22.503757182858294 210.43422191253597,-22.50375718285909 220.4342219125361,-22.503757182858294 223.52439185628634,-32.01432234580966 215.43422191253637,-26.136469822885488 223.5243918562864,-32.01432234580966 233.5243918562865,-32.014322345808864 243.52439185628663,-32.01432234580807 251.61456180003663,-37.89217486873224 248.5243918562864,-28.381609705780875 258.52439185628646,-28.38160970578008 266.6145618000356,-22.503757182854656 269.7047317437858,-32.01432234580602 261.6145618000358,-26.13646982288185 271.61456180003586,-26.136469822881054 274.70473174378617,-35.64703498583242 277.7949016875349,-26.1364698228806 287.794901687535,-26.136469822879803 290.88507163128526,-35.64703498583117" stroke="black" stroke-linecap="round" stroke-width="1" /><polyline clip-path="url(#border_clip)" fill="none" points="290.88507163128526,-35.64703498583117 298.9752415750353,-41.52488750875534 290.88507163128526,-35.64703498583117 282.79490168753523,-29.769182462906997 274.70473174378617,-35.64703498583242 264.70473174378606,-35.647034985833216 256.614561800037,-41.52488750875864 266.61456180003705,-41.52488750875784 263.5243918562868,-32.01432234580648 271.61456180003586,-26.136469822881054 281.614561800036,-26.136469822880258 278.52439185628725,-35.64703498583208 270.43422191253813,-41.5248875087575 260.434221912538,-41.5248875087583 268.52439185628714,-35.647034985832875 260.43422191253705,-29.769182462908702 268.52439185628714,-35.647034985832875 258.524391856287,-35.64703498583367 248.52439185628688,-35.647034985834466 240.4342219125378,-41.52488750875989 243.52439185628805,-51.035452671711255 233.52439185628793,-51.03545267171205 241.61456180003796,-56.91330519463622 249.704731743788,-62.791157717560395 246.6145618000377,-53.28059255460903 249.704731743788,-62.791157717560395 246.6145618000377,-53.28059255460903 238.52439185628862,-59.15844507753445 235.43422191253836,-49.647879914583086 227.3440519687893,-55.52573243750851 235.43422191253933,-61.40358496043268 243.52439185628936,-67.28143748335685 233.52439185628924,-67.28143748335765 225.43422191254018,-73.15929000628307 215.43422191254007,-73.15929000628387 212.34405196879135,-82.6698551692358 209.25388202504263,-92.18042033218774 201.1637120812926,-86.30256780926356 204.25388202504132,-76.79200264631163 194.2538820250412,-76.79200264631243 191.1637120812925,-86.30256780926436 199.25388202504155,-80.42471528633894 196.16371208129124,-70.91415012338757" stroke="black" stroke-linecap="round" stroke-width="1" /><polyline clip-path="url(#border_clip)" fill="none" points="196.16371208129124,-70.91415012338757 186.16371208129112,-70.91415012338837 196.16371208129124,-70.91415012338757 199.25388202504155,-80.42471528633894 191.16371208129152,-74.54686276341477 199.25388202504155,-80.42471528633894 209.25388202504166,-80.42471528633814 219.25388202504178,-80.42471528633735 227.3440519687918,-86.30256780926152 224.2538820250415,-76.79200264631015 234.2538820250416,-76.79200264630936 242.34405196879067,-70.91415012338393 245.43422191254098,-80.4247152863353 237.3440519687909,-74.54686276341124 247.344051968791,-74.54686276341045 250.43422191254132,-84.05742792636181 253.52439185629,-74.54686276340988 263.5243918562901,-74.54686276340908 266.6145618000404,-84.05742792636045 274.7047317437905,-89.9352804492845 266.6145618000404,-84.05742792636045 258.5243918562904,-78.17957540343639 250.43422191254132,-84.05742792636192 240.4342219125412,-84.05742792636283 232.34405196879214,-89.93528044928837 242.34405196879226,-89.93528044928746 239.25388202504195,-80.4247152863361 247.344051968791,-74.54686276341056 257.3440519687911,-74.54686276340965 254.25388202504243,-84.05742792636158 246.16371208129337,-89.93528044928712 236.16371208129323,-89.93528044928803 244.2538820250423,-84.0574279263625 236.1637120812922,-78.17957540343843 244.2538820250423,-84.0574279263625 234.25388202504217,-84.0574279263634 224.25388202504206,-84.05742792636431 216.163712081293,-89.93528044928985 219.25388202504337,-99.44584561224121 209.25388202504325,-99.44584561224212 217.34405196879334,-105.32369813516618 225.43422191254342,-111.20155065809024 222.34405196879305,-101.69098549513888" stroke="black" stroke-linecap="round" stroke-width="1" /><polyline clip-path="url(#border_clip)" fill="none" points="222.34405196879305,-101.69098549513888 225.43422191254342,-111.20155065809024 222.34405196879305,-101.69098549513888 214.253882025044,-107.56883801806441 211.16371208129362,-98.05827285511305 203.07354213754456,-103.93612537803858 211.16371208129465,-109.81397790096264 219.25388202504473,-115.6918304238867 209.25388202504462,-115.69183042388761 201.16371208129556,-121.56968294681315 191.16371208129544,-121.56968294681405 188.07354213754678,-131.080248109766 184.98337219379812,-140.59081327271792 176.89320225004803,-134.71296074979387 179.9833721937967,-125.20239558684193 169.98337219379658,-125.20239558684284 166.89320225004792,-134.71296074979477 174.98337219379698,-128.83510822686924 171.8932022500466,-119.32454306391787 161.8932022500465,-119.32454306391878 171.8932022500466,-119.32454306391787 174.98337219379698,-128.83510822686924 166.8932022500469,-122.95725570394518 174.98337219379698,-128.83510822686924 184.9833721937971,-128.83510822686833 194.9833721937972,-128.83510822686742 203.0735421375473,-134.71296074979148 199.98337219379692,-125.20239558684011 209.98337219379704,-125.2023955868392 218.0735421375461,-119.32454306391367 221.16371208129647,-128.83510822686503 213.07354213754638,-122.95725570394097 223.0735421375465,-122.95725570394006 226.16371208129686,-132.46782086689143 229.25388202504553,-122.9572557039395 239.25388202504564,-122.95725570393859 242.344051968796,-132.46782086688995 250.43422191254612,-138.345673389814 242.344051968796,-132.46782086688995 234.25388202504587,-126.5899683439659 226.16371208129686,-132.46782086689143 216.16371208129675,-132.46782086689234 208.07354213754775,-138.34567338981788" stroke="black" stroke-linecap="round" stroke-width="1" /><polyline clip-path="url(#border_clip)" fill="none" points="208.07354213754775,-138.34567338981788 218.07354213754786,-138.34567338981697 214.9833721937975,-128.8351082268656 223.0735421375465,-122.95725570394006 233.0735421375466,-122.95725570393915 229.983372193798,-132.4678208668911 221.893202250049,-138.34567338981662 211.8932022500489,-138.34567338981753 219.9833721937979,-132.467820866892 211.89320225004775,-126.58996834396794 219.9833721937979,-132.467820866892 209.98337219379778,-132.4678208668929 199.98337219379766,-132.46782086689382 191.89320225004866,-138.34567338981935 194.98337219379908,-147.85623855277072 184.98337219379897,-147.85623855277163 193.0735421375491,-153.7340910756957 201.16371208129925,-159.61194359861975 198.07354213754883,-150.10137843566838 201.16371208129925,-159.61194359861975 198.07354213754883,-150.10137843566838 189.98337219379982,-155.97923095859392 186.8932022500494,-146.46866579564255 178.8030323063004,-152.3465183185681 186.89320225005054,-158.22437084149215 194.98337219380068,-164.1022233644162 184.98337219380056,-164.1022233644171 176.89320225005156,-169.98007588734265 166.89320225005144,-169.98007588734356 163.80303230630284,-179.4906410502955 160.71286236255423,-189.00120621324743 152.6226924188041,-183.12335369032337 155.7128623625527,-173.61278852737144 145.71286236255258,-173.61278852737235 142.62269241880398,-183.12335369032428 150.71286236255298,-177.24550116739874 147.62269241880256,-167.73493600444738 137.62269241880244,-167.7349360044484 147.62269241880256,-167.73493600444738 150.71286236255298,-177.24550116739874 142.62269241880284,-171.36764864447468 150.71286236255298,-177.24550116739874 160.7128623625531,-177.24550116739772" stroke="black" stroke-linecap="round" stroke-width="1" /><polyline clip-path="url(#border_clip)" fill="none" points="160.7128623625531,-177.24550116739772 170.7128623625532,-177.2455011673967 178.80303230630335,-183.12335369032076 175.71286236255293,-173.6127885273694 185.71286236255304,-173.61278852736837 193.80303230630204,-167.73493600444272 196.89320225005247,-177.24550116739408 188.80303230630233,-171.36764864447002 198.80303230630244,-171.367648644469 201.89320225005287,-180.87821380742037 204.98337219380147,-171.36764864446843 214.98337219380159,-171.3676486444674 218.07354213755207,-180.87821380741877 226.1637120813022,-186.75606633034283 218.07354213755207,-180.87821380741877 209.98337219380193,-175.00036128449472 201.89320225005292,-180.87821380742037 191.8932022500528,-180.8782138074214 183.8030323063038,-186.75606633034704 193.80303230630392,-186.75606633034602 190.71286236255344,-177.24550116739465 198.80303230630244,-171.367648644469 208.80303230630255,-171.36764864446798 205.712862362554,-180.8782138074199 197.622692418805,-186.75606633034556 187.6226924188049,-186.75606633034658 195.7128623625539,-180.87821380742093 187.6226924188037,-175.000361284497 195.7128623625539,-180.87821380742093 185.71286236255378,-180.87821380742196 175.71286236255366,-180.87821380742298 167.62269241880466,-186.75606633034863 170.71286236255514,-196.2666314933 160.71286236255503,-196.26663149330102 168.80303230630523,-202.14448401622496 176.89320225005542,-208.0223365391489 173.80303230630494,-198.51177137619754 176.89320225005542,-208.0223365391489 173.80303230630494,-198.51177137619754 165.71286236255594,-204.3896238991232 162.62269241880546,-194.87905873617183 154.53252247505645,-200.75691125909748 162.62269241880665,-206.63476378202142" stroke="black" stroke-linecap="round" stroke-width="1" /><polyline clip-path="url(#border_clip)" fill="none" points="162.62269241880665,-206.63476378202142 170.71286236255685,-212.51261630494537 160.71286236255673,-212.5126163049464 152.62269241880773,-218.39046882787204 142.62269241880756,-218.39046882787306 139.532522475059,-227.901033990825 136.44235253131046,-237.41159915377693 128.35218258756026,-231.533746630853 131.4423525313088,-222.02318146790105 121.44235253130864,-222.02318146790208 118.3521825875601,-231.533746630854 126.4423525313091,-225.65589410792836 123.35218258755862,-216.145328944977 113.35218258755845,-216.14532894497802 123.35218258755856,-216.145328944977 126.44235253130904,-225.65589410792836 118.35218258755884,-219.77804158500442 126.44235253130904,-225.65589410792836 136.4423525313092,-225.65589410792734 146.44235253130933,-225.65589410792631 154.53252247505952,-231.53374663085026 151.44235253130898,-222.0231814678989 161.4423525313091,-222.02318146789787 169.53252247505804,-216.14532894497222 172.62269241880858,-225.6558941079236 164.53252247505839,-219.77804158499964 174.5325224750585,-219.77804158499862 177.62269241880904,-229.28860674794998 180.71286236255753,-219.77804158499794 190.71286236255764,-219.7780415849969 193.80303230630818,-229.28860674794828 201.89320225005838,-235.16645927087222 193.80303230630818,-229.28860674794828 185.71286236255798,-223.41075422502433 177.62269241880904,-229.28860674794998 167.62269241880892,-229.288606747951 159.53252247505998,-235.16645927087666 169.53252247506015,-235.16645927087563 166.4423525313096,-225.65589410792427 174.53252247505856,-219.77804158499862 184.53252247505873,-219.7780415849976 181.44235253131023,-229.28860674794964 173.3521825875613,-235.1664592708753" stroke="black" stroke-linecap="round" stroke-width="1" /><polyline clip-path="url(#border_clip)" fill="none" points="173.3521825875613,-235.1664592708753 163.35218258756112,-235.16645927087632 171.44235253131006,-229.28860674795067 163.3521825875598,-223.41075422502672 171.44235253131,-229.28860674795067 161.44235253130984,-229.2886067479517 151.44235253130967,-229.2886067479527 143.35218258756072,-235.16645927087836 146.44235253131126,-244.67702443382973 136.4423525313111,-244.67702443383087 144.53252247506134,-250.5548769567548 152.6226924188116,-256.43272947967876 149.53252247506106,-246.9221643167274 152.6226924188116,-256.43272947967876 149.53252247506106,-246.9221643167274 141.4423525313121,-252.80001683965304 138.35218258756157,-243.28945167670167 130.26201264381262,-249.16730419962732 138.35218258756288,-255.04515672255127 146.44235253131313,-260.9230092454752 136.44235253131296,-260.92300924547635 128.35218258756402,-266.8008617684021 118.35218258756385,-266.80086176840325 115.26201264381535,-276.3114269313553 112.17184270006686,-285.82199209430735 104.0816727563166,-279.9441395713834 107.1718427000651,-270.43357440843135 97.17184270006493,-270.4335744084325 94.08167275631644,-279.94413957138454 102.17184270006538,-274.0662870484588 99.08167275631479,-264.5557218855074 89.08167275631462,-264.55572188550855 99.08167275631479,-264.5557218855074 102.17184270006538,-274.0662870484588 94.08167275631513,-268.18843452553483 102.17184270006538,-274.0662870484588 112.17184270006555,-274.06628704845764 122.17184270006572,-274.0662870484565 130.26201264381598,-279.94413957138045 127.17184270006538,-270.4335744084291 137.17184270006555,-270.43357440842794 145.2620126438145,-264.5557218855022 148.3521825875651,-274.06628704845355" stroke="black" stroke-linecap="round" stroke-width="1" /><polyline clip-path="url(#border_clip)" fill="none" points="148.3521825875651,-274.06628704845355 140.26201264381484,-268.1884345255296 150.262012643815,-268.18843452552846 153.3521825875656,-277.69899968847983 156.44235253131404,-268.1884345255278 166.4423525313142,-268.18843452552665 169.5325224750648,-277.698999688478 177.62269241881506,-283.57685221140196 169.5325224750648,-277.698999688478 161.44235253131455,-271.82114716555407 153.3521825875656,-277.69899968847983 143.35218258756544,-277.69899968848097 135.2620126438165,-283.57685221140673 145.26201264381666,-283.5768522114056 142.17184270006607,-274.0662870484542 150.262012643815,-268.18843452552846 160.26201264381518,-268.1884345255273 157.17184270006675,-277.6989996884794 149.0816727563178,-283.57685221140514 139.08167275631763,-283.5768522114063 147.17184270006658,-277.6989996884805 139.08167275631627,-271.82114716555657 147.17184270006658,-277.6989996884805 137.1718427000664,-277.69899968848165 127.17184270006624,-277.6989996884828 119.08167275631729,-283.57685221140855 122.17184270006794,-293.0874173743599 112.17184270006777,-293.08741737436105 120.26201264381808,-298.965269897285 128.3521825875684,-304.84312242020894 125.26201264381774,-295.3325572572576 128.3521825875684,-304.84312242020894 125.26201264381774,-295.3325572572576 117.1718427000688,-301.21040978018334 114.08167275631814,-291.699844617232 105.9915028125692,-297.57769714015774 114.0816727563195,-303.4555496630817 122.17184270006982,-309.3334021860056 112.17184270006965,-309.33340218600677 104.0816727563207,-315.21125470893253 94.08167275632053,-315.21125470893367 90.9915028125721,-324.7218198718857 87.90133286882366,-334.23238503483776" stroke="black" stroke-linecap="round" stroke-width="1" /><polyline clip-path="url(#border_clip)" fill="none" points="87.90133286882366,-334.23238503483776 79.81116292507335,-328.3545325119138 82.90133286882178,-318.84396734896177 72.90133286882161,-318.8439673489629 69.81116292507318,-328.35453251191495 77.90133286882212,-322.4766799889892 74.81116292507147,-312.9661148260378 64.8111629250713,-312.96611482603896 74.81116292507147,-312.9661148260378 77.90133286882212,-322.4766799889892 69.81116292507181,-316.59882746606536 77.90133286882212,-322.4766799889892 87.9013328688223,-322.47667998898805 97.90133286882246,-322.4766799889869 105.99150281257278,-328.35453251191075 102.90133286882212,-318.8439673489594 112.9013328688223,-318.84396734895824 120.99150281257124,-312.9661148260325 124.0816727563219,-322.47667998898385 115.99150281257158,-316.59882746606 125.99150281257175,-316.59882746605876 129.0816727563224,-326.10939262901013 132.17184270007078,-316.5988274660581 142.17184270007095,-316.59882746605683 145.2620126438216,-326.1093926290082 153.35218258757192,-331.98724515193203 145.2620126438216,-326.1093926290082 137.1718427000713,-320.23154010608437 129.0816727563224,-326.10939262901013 119.08167275632223,-326.1093926290114 110.99150281257334,-331.98724515193715 120.99150281257351,-331.9872451519359 117.9013328688228,-322.47667998898453 125.9915028125717,-316.59882746605865 135.99150281257187,-316.5988274660574 132.9013328688235,-326.10939262900945 124.8111629250746,-331.9872451519353 114.81116292507443,-331.9872451519366 122.90133286882332,-326.1093926290107 114.81116292507295,-320.23154010608687 122.90133286882332,-326.1093926290107 112.90133286882315,-326.10939262901195 102.90133286882298,-326.1093926290132" stroke="black" stroke-linecap="round" stroke-width="1" /><polyline clip-path="url(#border_clip)" fill="none" points="102.90133286882298,-326.1093926290132 94.81116292507409,-331.9872451519391 97.9013328688248,-341.49781031489044 87.90133286882462,-341.4978103148917 95.99150281257499,-347.3756628378155 104.08167275632536,-353.25351536073936 100.99150281257465,-343.742950197788 104.08167275632536,-353.25351536073936 100.99150281257465,-343.742950197788 92.90133286882576,-349.62080272071387 89.81116292507505,-340.1102375577625 81.72099298132616,-345.9880900806884 89.81116292507653,-351.8659426036122 97.9013328688269,-357.74379512653604 87.90133286882673,-357.7437951265373 79.81116292507784,-363.62164764946317 69.81116292507767,-363.6216476494644 66.72099298132929,-373.13221281241647 63.63082303758091,-382.6427779753685 55.54065309383054,-376.7649254524447 58.63082303757892,-367.2543602894925 48.63082303757875,-367.2543602894938 45.54065309383037,-376.7649254524458 53.63082303757926,-370.88707292951995 50.54065309382855,-361.3765077665686 40.54065309382838,-361.37650776656983 50.54065309382855,-361.3765077665686 53.63082303757926,-370.88707292951995 45.540653093828894,-365.0092204065961 53.63082303757926,-370.88707292951995 63.63082303757943,-370.8870729295187 73.6308230375796,-370.88707292951744 81.72099298132997,-376.7649254524413 78.63082303757926,-367.2543602894899 88.63082303757943,-367.25436028948866 96.72099298132832,-361.3765077665628 99.81116292507909,-370.88707292951415 91.72099298132872,-365.0092204065903 101.72099298132889,-365.00922040658907 104.81116292507966,-374.51978556954043 107.90133286882798,-365.00922040658827 117.90133286882815,-365.009220406587 120.99150281257891,-374.5197855695384" stroke="black" stroke-linecap="round" stroke-width="1" /><polyline clip-path="url(#border_clip)" fill="none" points="120.99150281257891,-374.5197855695384 129.08167275632928,-380.3976380924622 120.99150281257891,-374.5197855695384 112.90133286882855,-368.64193304661455 104.81116292507966,-374.51978556954043 94.81116292507949,-374.5197855695417 86.7209929813306,-380.39763809246756 96.72099298133077,-380.3976380924663 93.63082303758,-370.88707292951494 101.72099298132889,-365.00922040658907 111.72099298132906,-365.0092204065878 108.63082303758074,-374.51978556954 100.54065309383185,-380.39763809246585 90.54065309383168,-380.3976380924671 98.63082303758057,-374.5197855695412 90.5406530938302,-368.6419330466174 98.63082303758057,-374.5197855695412 88.6308230375804,-374.5197855695425 78.63082303758023,-374.5197855695437 70.54065309383134,-380.3976380924696 73.6308230375821,-389.908203255421 63.63082303758193,-389.9082032554222 71.7209929813323,-395.78605577834605 79.81116292508267,-401.6639083012699 76.7209929813319,-392.1533431383185 79.81116292508267,-401.6639083012699 76.7209929813319,-392.1533431383185 68.63082303758301,-398.0311956612444 65.54065309383225,-388.52063049829303 57.45048315008336,-394.3984830212189 65.54065309383378,-400.27633554414274 73.63082303758421,-406.15418806706657 63.63082303758404,-406.15418806706793 55.54065309383515,-412.0320405899938 45.540653093834976,-412.0320405899952 42.45048315008671,-421.54260575294734 39.360313206338446,-431.0531709158995 31.27014326258802,-425.17531839297567 34.360313206336286,-415.6647532300235 24.360313206336116,-415.66475323002487 21.27014326258785,-425.17531839297703 29.360313206336684,-419.29746587005116 26.27014326258592,-409.7869007070998" stroke="black" stroke-linecap="round" stroke-width="1" /><polyline clip-path="url(#border_clip)" fill="none" points="26.27014326258592,-409.7869007070998 16.270143262585748,-409.78690070710115 26.270143262585975,-409.7869007070998 29.360313206336798,-419.29746587005116 21.270143262586373,-413.4196133471273 29.360313206336798,-419.29746587005116 39.36031320633697,-419.2974658700498 49.360313206337196,-419.2974658700484 57.45048315008762,-425.17531839297214 54.3603132063368,-415.6647532300208 64.36031320633703,-415.6647532300194 72.45048315008586,-409.78690070709354 75.54065309383668,-419.2974658700449 67.45048315008626,-413.4196133471212 77.45048315008648,-413.4196133471198 80.5406530938373,-422.9301785100712 83.63082303758557,-413.419613347119 93.6308230375858,-413.41961334711766 96.72099298133662,-422.930178510069 104.81116292508705,-428.80803103299274 96.72099298133662,-422.930178510069 88.6308230375862,-417.0523259871453 80.54065309383736,-422.9301785100713 70.54065309383714,-422.93017851007266 62.4504831500883,-428.80803103299866 72.45048315008853,-428.8080310329973 69.36031320633771,-419.2974658700459 77.45048315008654,-413.41961334711993 87.45048315008677,-413.41961334711857 84.3603132063385,-422.93017851007073 76.27014326258967,-428.8080310329967 66.27014326258944,-428.8080310329981 74.36031320633828,-422.9301785100721 66.27014326258785,-417.0523259871484 74.36031320633828,-422.9301785100721 64.36031320633805,-422.93017851007346 54.36031320633782,-422.9301785100748 46.27014326258899,-428.8080310330008 49.36031320633981,-438.31859619595207 39.36031320633958,-438.31859619595343 47.45048315009001,-444.19644871887715 55.54065309384043,-450.07430124180087 52.45048315008961,-440.5637360788496" stroke="black" stroke-linecap="round" stroke-width="1" /><polyline clip-path="url(#border_clip)" fill="none" points="52.45048315008961,-440.5637360788496 55.54065309384043,-450.07430124180087 52.45048315008961,-440.5637360788496 44.36031320634078,-446.4415886017756 41.270143262589954,-436.93102343882424 33.17997331884112,-442.80887596175023 41.270143262591546,-448.68672848467395 49.36031320634197,-454.56458100759767 39.36031320634174,-454.56458100759903 31.27014326259291,-460.442433530525 21.270143262592683,-460.4424335305264 18.179973318844475,-469.95299869347855 15.089803375096267,-479.4635638564307 6.999633431345785,-473.585711333507 10.089803375093993,-464.07514617055483 0.08980337509376568,-464.0751461705562 -3.0003665686544423,-473.58571133350836 5.089803375094391,-467.70785881058237 1.9996334313435113,-458.1972936476311 -8.000366568656716,-458.1972936476325 1.9996334313435113,-458.1972936476311 5.089803375094391,-467.70785881058237 -3.0003665686560907,-461.83000628765865 5.089803375094391,-467.70785881058237 15.089803375094618,-467.707858810581" stroke="black" stroke-linecap="round" stroke-width="1" /></svg>