<?xml version="1.0" encoding="UTF-8"?>
<svg width="1e4px" height="1e4px" baseProfile="full" version="1.1" viewBox="4502 4020.5 573.95 989.47" xmlns="http://www.w3.org/2000/svg">
<defs>
<clipPath id="a">
<rect width="1e4" height="1e4"/>
</clipPath>
</defs>
<polyline points="5000.5 5000.5 5010.5 5000.5 5020.5 5000.5 5028.6 4994.6 5025.5 5004.1 5035.5 5004.1 5043.6 5010 5046.7 5000.5 5038.6 5006.4 5048.6 5006.4 5051.7 4996.9 5054.8 5006.4 5064.8 5006.4 5067.9 4996.9 5076 4991 5067.9 4996.9 5059.8 5002.7 5051.7 4996.9 5041.7 4996.9 5033.6 4991 5043.6 4991 5040.5 5000.5 5048.6 5006.4 5058.6 5006.4 5055.5 4996.9 5047.4 4991 5037.4 4991 5045.5 4996.9 5037.4 5002.7 5045.5 4996.9 5035.5 4996.9 5025.5 4996.9 5017.4 4991 5020.5 4981.5 5010.5 4981.5 5018.6 4975.6 5026.7 4969.7 5023.6 4979.2 5026.7 4969.7 5023.6 4979.2 5015.5 4973.4 5012.4 4982.9 5004.3 4977" clip-path="url(#a)" fill="none" stroke="#000" stroke-linecap="round"/>
<polyline points="5004.3 4977 5012.4 4971.1 5020.5 4965.2 5010.5 4965.2 5002.4 4959.4 4992.4 4959.4 4989.3 4949.8 4986.2 4940.3 4978.1 4946.2 4981.2 4955.7 4971.2 4955.7 4968.1 4946.2 4976.2 4952.1 4973.1 4961.6 4963.1 4961.6 4973.1 4961.6 4976.2 4952.1 4968.1 4958 4976.2 4952.1 4986.2 4952.1 4996.2 4952.1 5004.3 4946.2 5001.2 4955.7 5011.2 4955.7 5019.3 4961.6 5022.4 4952.1 5014.3 4958 5024.3 4958 5027.4 4948.5 5030.5 4958 5040.5 4958 5043.6 4948.5 5051.7 4942.6 5043.6 4948.5 5035.5 4954.3 5027.4 4948.5 5017.4 4948.5 5009.3 4942.6 5019.3 4942.6 5016.2 4952.1 5024.3 4958 5034.3 4958 5031.2 4948.5" clip-path="url(#a)" fill="none" stroke="#000" stroke-linecap="round"/>
<polyline points="5031.2 4948.5 5023.1 4942.6 5013.1 4942.6 5021.2 4948.5 5013.1 4954.3 5021.2 4948.5 5011.2 4948.5 5001.2 4948.5 4993.1 4942.6 4996.2 4933.1 4986.2 4933.1 4994.3 4927.2 5002.4 4921.3 4999.3 4930.8 5002.4 4921.3 4999.3 4930.8 4991.2 4924.9 4988.1 4934.5 4980 4928.6 4988.1 4922.7 4996.2 4916.8 4986.2 4916.8 4978.1 4910.9 4968.1 4910.9 4965 4901.4 4962 4891.9 4953.9 4897.8 4957 4907.3 4947 4907.3 4943.9 4897.8 4952 4903.7 4948.9 4913.2 4938.9 4913.2 4948.9 4913.2 4952 4903.7 4943.9 4909.6 4952 4903.7 4962 4903.7 4972 4903.7 4980 4897.8 4977 4907.3 4987 4907.3 4995 4913.2" clip-path="url(#a)" fill="none" stroke="#000" stroke-linecap="round"/>
<polyline points="4995 4913.2 4998.1 4903.7 4990 4909.6 5e3 4909.6 5003.1 4900 5006.2 4909.6 5016.2 4909.6 5019.3 4900 5027.4 4894.2 5019.3 4900 5011.2 4905.9 5003.1 4900 4993.1 4900 4985 4894.2 4995 4894.2 4992 4903.7 5e3 4909.6 5010 4909.6 5007 4900 4998.9 4894.2 4988.9 4894.2 4997 4900 4988.9 4905.9 4997 4900 4987 4900 4977 4900 4968.9 4894.2 4972 4884.7 4962 4884.7 4970 4878.8 4978.1 4872.9 4975 4882.4 4978.1 4872.9 4975 4882.4 4967 4876.5 4963.9 4886 4955.8 4880.2 4963.9 4874.3 4972 4868.4 4962 4868.4 4953.9 4862.5 4943.9 4862.5 4940.8 4853" clip-path="url(#a)" fill="none" stroke="#000" stroke-linecap="round"/>
<polyline points="4940.8 4853 4937.7 4843.5 4929.6 4849.4 4932.7 4858.9 4922.7 4858.9 4919.6 4849.4 4927.7 4855.3 4924.6 4864.8 4914.6 4864.8 4924.6 4864.8 4927.7 4855.3 4919.6 4861.1 4927.7 4855.3 4937.7 4855.3 4947.7 4855.3 4955.8 4849.4 4952.7 4858.9 4962.7 4858.9 4970.8 4864.8 4973.9 4855.3 4965.8 4861.1 4975.8 4861.1 4978.9 4851.6 4982 4861.1 4992 4861.1 4995 4851.6 5003.1 4845.8 4995 4851.6 4987 4857.5 4978.9 4851.6 4968.9 4851.6 4960.8 4845.8 4970.8 4845.8 4967.7 4855.3 4975.8 4861.1 4985.8 4861.1 4982.7 4851.6 4974.6 4845.8 4964.6 4845.8 4972.7 4851.6 4964.6 4857.5 4972.7 4851.6 4962.7 4851.6" clip-path="url(#a)" fill="none" stroke="#000" stroke-linecap="round"/>
<polyline points="4962.7 4851.6 4952.7 4851.6 4944.6 4845.8 4947.7 4836.2 4937.7 4836.2 4945.8 4830.4 4953.9 4824.5 4950.8 4834 4953.9 4824.5 4950.8 4834 4942.7 4828.1 4939.6 4837.6 4931.5 4831.8 4939.6 4825.9 4947.7 4820 4937.7 4820 4929.6 4814.1 4919.6 4814.1 4916.5 4804.6 4913.4 4795.1 4905.3 4801 4908.4 4810.5 4898.4 4810.5 4895.3 4801 4903.4 4806.9 4900.3 4816.4 4890.3 4816.4 4900.3 4816.4 4903.4 4806.9 4895.3 4812.7 4903.4 4806.9 4913.4 4806.9 4923.4 4806.9 4931.5 4801 4928.4 4810.5 4938.4 4810.5 4946.5 4816.4 4949.6 4806.9 4941.5 4812.7 4951.5 4812.7 4954.6 4803.2 4957.7 4812.7 4967.7 4812.7" clip-path="url(#a)" fill="none" stroke="#000" stroke-linecap="round"/>
<polyline points="4967.7 4812.7 4970.8 4803.2 4978.9 4797.3 4970.8 4803.2 4962.7 4809.1 4954.6 4803.2 4944.6 4803.2 4936.5 4797.3 4946.5 4797.3 4943.4 4806.9 4951.5 4812.7 4961.5 4812.7 4958.4 4803.2 4950.3 4797.3 4940.3 4797.3 4948.4 4803.2 4940.3 4809.1 4948.4 4803.2 4938.4 4803.2 4928.4 4803.2 4920.3 4797.3 4923.4 4787.8 4913.4 4787.8 4921.5 4782 4929.6 4776.1 4926.5 4785.6 4929.6 4776.1 4926.5 4785.6 4918.4 4779.7 4915.3 4789.2 4907.2 4783.3 4915.3 4777.5 4923.4 4771.6 4913.4 4771.6 4905.3 4765.7 4895.3 4765.7 4892.2 4756.2 4889.1 4746.7 4881.1 4752.6 4884.1 4762.1 4874.1 4762.1 4871.1 4752.6 4879.1 4758.4" clip-path="url(#a)" fill="none" stroke="#000" stroke-linecap="round"/>
<polyline points="4879.1 4758.4 4876.1 4768 4866.1 4768 4876.1 4768 4879.1 4758.4 4871.1 4764.3 4879.1 4758.4 4889.1 4758.4 4899.1 4758.4 4907.2 4752.6 4904.1 4762.1 4914.1 4762.1 4922.2 4768 4925.3 4758.4 4917.2 4764.3 4927.2 4764.3 4930.3 4754.8 4933.4 4764.3 4943.4 4764.3 4946.5 4754.8 4954.6 4748.9 4946.5 4754.8 4938.4 4760.7 4930.3 4754.8 4920.3 4754.8 4912.2 4748.9 4922.2 4748.9 4919.1 4758.4 4927.2 4764.3 4937.2 4764.3 4934.1 4754.8 4926.1 4748.9 4916.1 4748.9 4924.1 4754.8 4916.1 4760.7 4924.1 4754.8 4914.1 4754.8 4904.1 4754.8 4896.1 4748.9 4899.1 4739.4 4889.1 4739.4 4897.2 4733.5 4905.3 4727.7" clip-path="url(#a)" fill="none" stroke="#000" stroke-linecap="round"/>
<polyline points="4905.3 4727.7 4902.2 4737.2 4905.3 4727.7 4902.2 4737.2 4894.1 4731.3 4891.1 4740.8 4883 4734.9 4891.1 4729.1 4899.1 4723.2 4889.1 4723.2 4881.1 4717.3 4871.1 4717.3 4868 4707.8 4864.9 4698.3 4856.8 4704.2 4859.9 4713.7 4849.9 4713.7 4846.8 4704.2 4854.9 4710 4851.8 4719.5 4841.8 4719.5 4851.8 4719.5 4854.9 4710 4846.8 4715.9 4854.9 4710 4864.9 4710 4874.9 4710 4883 4704.2 4879.9 4713.7 4889.9 4713.7 4898 4719.5 4901.1 4710 4893 4715.9 4903 4715.9 4906.1 4706.4 4909.1 4715.9 4919.1 4715.9 4922.2 4706.4 4930.3 4700.5 4922.2 4706.4 4914.1 4712.3 4906.1 4706.4 4896.1 4706.4" clip-path="url(#a)" fill="none" stroke="#000" stroke-linecap="round"/>
<polyline points="4896.1 4706.4 4888 4700.5 4898 4700.5 4894.9 4710 4903 4715.9 4913 4715.9 4909.9 4706.4 4901.8 4700.5 4891.8 4700.5 4899.9 4706.4 4891.8 4712.3 4899.9 4706.4 4889.9 4706.4 4879.9 4706.4 4871.8 4700.5 4874.9 4691 4864.9 4691 4873 4685.1 4881.1 4679.3 4878 4688.8 4881.1 4679.3 4878 4688.8 4869.9 4682.9 4866.8 4692.4 4858.7 4686.5 4866.8 4680.6 4874.9 4674.8 4864.9 4674.8 4856.8 4668.9 4846.8 4668.9 4843.7 4659.4 4840.6 4649.9 4832.5 4655.7 4835.6 4665.3 4825.6 4665.3 4822.5 4655.7 4830.6 4661.6 4827.5 4671.1 4817.5 4671.1 4827.5 4671.1 4830.6 4661.6 4822.5 4667.5 4830.6 4661.6" clip-path="url(#a)" fill="none" stroke="#000" stroke-linecap="round"/>
<polyline points="4830.6 4661.6 4840.6 4661.6 4850.6 4661.6 4858.7 4655.7 4855.6 4665.3 4865.6 4665.3 4873.7 4671.1 4876.8 4661.6 4868.7 4667.5 4878.7 4667.5 4881.8 4658 4884.9 4667.5 4894.9 4667.5 4898 4658 4906.1 4652.1 4898 4658 4889.9 4663.9 4881.8 4658 4871.8 4658 4863.7 4652.1 4873.7 4652.1 4870.6 4661.6 4878.7 4667.5 4888.7 4667.5 4885.6 4658 4877.5 4652.1 4867.5 4652.1 4875.6 4658 4867.5 4663.9 4875.6 4658 4865.6 4658 4855.6 4658 4847.5 4652.1 4850.6 4642.6 4840.6 4642.6 4848.7 4636.7 4856.8 4630.9 4853.7 4640.4 4856.8 4630.9 4853.7 4640.4 4845.6 4634.5 4842.5 4644 4834.4 4638.1" clip-path="url(#a)" fill="none" stroke="#000" stroke-linecap="round"/>
<polyline points="4834.4 4638.1 4842.5 4632.2 4850.6 4626.4 4840.6 4626.4 4832.5 4620.5 4822.5 4620.5 4819.4 4611 4816.3 4601.5 4808.2 4607.3 4811.3 4616.8 4801.3 4616.8 4798.2 4607.3 4806.3 4613.2 4803.2 4622.7 4793.2 4622.7 4803.2 4622.7 4806.3 4613.2 4798.2 4619.1 4806.3 4613.2 4816.3 4613.2 4826.3 4613.2 4834.4 4607.3 4831.3 4616.8 4841.3 4616.8 4849.4 4622.7 4852.5 4613.2 4844.4 4619.1 4854.4 4619.1 4857.5 4609.6 4860.6 4619.1 4870.6 4619.1 4873.7 4609.6 4881.8 4603.7 4873.7 4609.6 4865.6 4615.5 4857.5 4609.6 4847.5 4609.6 4839.4 4603.7 4849.4 4603.7 4846.3 4613.2 4854.4 4619.1 4864.4 4619.1 4861.3 4609.6" clip-path="url(#a)" fill="none" stroke="#000" stroke-linecap="round"/>
<polyline points="4861.3 4609.6 4853.2 4603.7 4843.2 4603.7 4851.3 4609.6 4843.2 4615.5 4851.3 4609.6 4841.3 4609.6 4831.3 4609.6 4823.2 4603.7 4826.3 4594.2 4816.3 4594.2 4824.4 4588.3 4832.5 4582.4 4829.4 4592 4832.5 4582.4 4829.4 4592 4821.3 4586.1 4818.2 4595.6 4810.2 4589.7 4818.2 4583.8 4826.3 4577.9 4816.3 4577.9 4808.2 4572.1 4798.2 4572.1 4795.2 4562.6 4792.1 4553.1 4784 4558.9 4787.1 4568.4 4777.1 4568.4 4774 4558.9 4782.1 4564.8 4779 4574.3 4769 4574.3 4779 4574.3 4782.1 4564.8 4774 4570.7 4782.1 4564.8 4792.1 4564.8 4802.1 4564.8 4810.2 4558.9 4807.1 4568.4 4817.1 4568.4 4825.2 4574.3" clip-path="url(#a)" fill="none" stroke="#000" stroke-linecap="round"/>
<polyline points="4825.2 4574.3 4828.2 4564.8 4820.2 4570.7 4830.2 4570.7 4833.2 4561.2 4836.3 4570.7 4846.3 4570.7 4849.4 4561.2 4857.5 4555.3 4849.4 4561.2 4841.3 4567.1 4833.2 4561.2 4823.2 4561.2 4815.2 4555.3 4825.2 4555.3 4822.1 4564.8 4830.2 4570.7 4840.2 4570.7 4837.1 4561.2 4829 4555.3 4819 4555.3 4827.1 4561.2 4819 4567.1 4827.1 4561.2 4817.1 4561.2 4807.1 4561.2 4799 4555.3 4802.1 4545.8 4792.1 4545.8 4800.2 4539.9 4808.2 4534 4805.2 4543.5 4808.2 4534 4805.2 4543.5 4797.1 4537.7 4794 4547.2 4785.9 4541.3 4794 4535.4 4802.1 4529.5 4792.1 4529.5 4784 4523.7 4774 4523.7 4770.9 4514.2" clip-path="url(#a)" fill="none" stroke="#000" stroke-linecap="round"/>
<polyline points="4770.9 4514.2 4767.8 4504.6 4759.7 4510.5 4762.8 4520 4752.8 4520 4749.7 4510.5 4757.8 4516.4 4754.7 4525.9 4744.7 4525.9 4754.7 4525.9 4757.8 4516.4 4749.7 4522.3 4757.8 4516.4 4767.8 4516.4 4777.8 4516.4 4785.9 4510.5 4782.8 4520 4792.8 4520 4800.9 4525.9 4804 4516.4 4795.9 4522.3 4805.9 4522.3 4809 4512.8 4812.1 4522.3 4822.1 4522.3 4825.2 4512.8 4833.2 4506.9 4825.2 4512.8 4817.1 4518.6 4809 4512.8 4799 4512.8 4790.9 4506.9 4800.9 4506.9 4797.8 4516.4 4805.9 4522.3 4815.9 4522.3 4812.8 4512.8 4804.7 4506.9 4794.7 4506.9 4802.8 4512.8 4794.7 4518.6 4802.8 4512.8 4792.8 4512.8" clip-path="url(#a)" fill="none" stroke="#000" stroke-linecap="round"/>
<polyline points="4792.8 4512.8 4782.8 4512.8 4774.7 4506.9 4777.8 4497.4 4767.8 4497.4 4775.9 4491.5 4784 4485.6 4780.9 4495.1 4784 4485.6 4780.9 4495.1 4772.8 4489.3 4769.7 4498.8 4761.6 4492.9 4769.7 4487 4777.8 4481.1 4767.8 4481.1 4759.7 4475.3 4749.7 4475.3 4746.6 4465.7 4743.5 4456.2 4735.4 4462.1 4738.5 4471.6 4728.5 4471.6 4725.4 4462.1 4733.5 4468 4730.4 4477.5 4720.4 4477.5 4730.4 4477.5 4733.5 4468 4725.4 4473.9 4733.5 4468 4743.5 4468 4753.5 4468 4761.6 4462.1 4758.5 4471.6 4768.5 4471.6 4776.6 4477.5 4779.7 4468 4771.6 4473.9 4781.6 4473.9 4784.7 4464.4 4787.8 4473.9 4797.8 4473.9" clip-path="url(#a)" fill="none" stroke="#000" stroke-linecap="round"/>
<polyline points="4797.8 4473.9 4800.9 4464.4 4809 4458.5 4800.9 4464.4 4792.8 4470.2 4784.7 4464.4 4774.7 4464.4 4766.6 4458.5 4776.6 4458.5 4773.5 4468 4781.6 4473.9 4791.6 4473.9 4788.5 4464.4 4780.4 4458.5 4770.4 4458.5 4778.5 4464.4 4770.4 4470.2 4778.5 4464.4 4768.5 4464.4 4758.5 4464.4 4750.4 4458.5 4753.5 4449 4743.5 4449 4751.6 4443.1 4759.7 4437.2 4756.6 4446.7 4759.7 4437.2 4756.6 4446.7 4748.5 4440.8 4745.4 4450.4 4737.3 4444.5 4745.4 4438.6 4753.5 4432.7 4743.5 4432.7 4735.4 4426.8 4725.4 4426.8 4722.3 4417.3 4719.3 4407.8 4711.2 4413.7 4714.3 4423.2 4704.3 4423.2 4701.2 4413.7 4709.3 4419.6" clip-path="url(#a)" fill="none" stroke="#000" stroke-linecap="round"/>
<polyline points="4709.3 4419.6 4706.2 4429.1 4696.2 4429.1 4706.2 4429.1 4709.3 4419.6 4701.2 4425.5 4709.3 4419.6 4719.3 4419.6 4729.3 4419.6 4737.3 4413.7 4734.3 4423.2 4744.3 4423.2 4752.3 4429.1 4755.4 4419.6 4747.3 4425.5 4757.3 4425.5 4760.4 4415.9 4763.5 4425.5 4773.5 4425.5 4776.6 4415.9 4784.7 4410.1 4776.6 4415.9 4768.5 4421.8 4760.4 4415.9 4750.4 4415.9 4742.3 4410.1 4752.3 4410.1 4749.3 4419.6 4757.3 4425.5 4767.3 4425.5 4764.3 4415.9 4756.2 4410.1 4746.2 4410.1 4754.3 4415.9 4746.2 4421.8 4754.3 4415.9 4744.3 4415.9 4734.3 4415.9 4726.2 4410.1 4729.3 4400.6 4719.3 4400.6 4727.3 4394.7 4735.4 4388.8" clip-path="url(#a)" fill="none" stroke="#000" stroke-linecap="round"/>
<polyline points="4735.4 4388.8 4732.3 4398.3 4735.4 4388.8 4732.3 4398.3 4724.3 4392.4 4721.2 4401.9 4713.1 4396.1 4721.2 4390.2 4729.3 4384.3 4719.3 4384.3 4711.2 4378.4 4701.2 4378.4 4698.1 4368.9 4695 4359.4 4686.9 4365.3 4690 4374.8 4680 4374.8 4676.9 4365.3 4685 4371.2 4681.9 4380.7 4671.9 4380.7 4681.9 4380.7 4685 4371.2 4676.9 4377 4685 4371.2 4695 4371.2 4705 4371.2 4713.1 4365.3 4710 4374.8 4720 4374.8 4728.1 4380.7 4731.2 4371.2 4723.1 4377 4733.1 4377 4736.2 4367.5 4739.3 4377 4749.3 4377 4752.3 4367.5 4760.4 4361.7 4752.3 4367.5 4744.3 4373.4 4736.2 4367.5 4726.2 4367.5" clip-path="url(#a)" fill="none" stroke="#000" stroke-linecap="round"/>
<polyline points="4726.2 4367.5 4718.1 4361.7 4728.1 4361.7 4725 4371.2 4733.1 4377 4743.1 4377 4740 4367.5 4731.9 4361.7 4721.9 4361.7 4730 4367.5 4721.9 4373.4 4730 4367.5 4720 4367.5 4710 4367.5 4701.9 4361.7 4705 4352.1 4695 4352.1 4703.1 4346.3 4711.2 4340.4 4708.1 4349.9 4711.2 4340.4 4708.1 4349.9 4700 4344 4696.9 4353.5 4688.8 4347.7 4696.9 4341.8 4705 4335.9 4695 4335.9 4686.9 4330 4676.9 4330 4673.8 4320.5 4670.7 4311 4662.6 4316.9 4665.7 4326.4 4655.7 4326.4 4652.6 4316.9 4660.7 4322.8 4657.6 4332.3 4647.6 4332.3 4657.6 4332.3 4660.7 4322.8 4652.6 4328.6 4660.7 4322.8" clip-path="url(#a)" fill="none" stroke="#000" stroke-linecap="round"/>
<polyline points="4660.7 4322.8 4670.7 4322.8 4680.7 4322.8 4688.8 4316.9 4685.7 4326.4 4695.7 4326.4 4703.8 4332.3 4706.9 4322.8 4698.8 4328.6 4708.8 4328.6 4711.9 4319.1 4715 4328.6 4725 4328.6 4728.1 4319.1 4736.2 4313.2 4728.1 4319.1 4720 4325 4711.9 4319.1 4701.9 4319.1 4693.8 4313.2 4703.8 4313.2 4700.7 4322.8 4708.8 4328.6 4718.8 4328.6 4715.7 4319.1 4707.6 4313.2 4697.6 4313.2 4705.7 4319.1 4697.6 4325 4705.7 4319.1 4695.7 4319.1 4685.7 4319.1 4677.6 4313.2 4680.7 4303.7 4670.7 4303.7 4678.8 4297.9 4686.9 4292 4683.8 4301.5 4686.9 4292 4683.8 4301.5 4675.7 4295.6 4672.6 4305.1 4664.5 4299.2" clip-path="url(#a)" fill="none" stroke="#000" stroke-linecap="round"/>
<polyline points="4664.5 4299.2 4672.6 4293.4 4680.7 4287.5 4670.7 4287.5 4662.6 4281.6 4652.6 4281.6 4649.5 4272.1 4646.4 4262.6 4638.4 4268.5 4641.4 4278 4631.4 4278 4628.4 4268.5 4636.4 4274.3 4633.4 4283.9 4623.4 4283.9 4633.4 4283.9 4636.4 4274.3 4628.4 4280.2 4636.4 4274.3 4646.4 4274.3 4656.4 4274.3 4664.5 4268.5 4661.4 4278 4671.4 4278 4679.5 4283.9 4682.6 4274.3 4674.5 4280.2 4684.5 4280.2 4687.6 4270.7 4690.7 4280.2 4700.7 4280.2 4703.8 4270.7 4711.9 4264.8 4703.8 4270.7 4695.7 4276.6 4687.6 4270.7 4677.6 4270.7 4669.5 4264.8 4679.5 4264.8 4676.4 4274.3 4684.5 4280.2 4694.5 4280.2 4691.4 4270.7" clip-path="url(#a)" fill="none" stroke="#000" stroke-linecap="round"/>
<polyline points="4691.4 4270.7 4683.4 4264.8 4673.4 4264.8 4681.4 4270.7 4673.4 4276.6 4681.4 4270.7 4671.4 4270.7 4661.4 4270.7 4653.4 4264.8 4656.4 4255.3 4646.4 4255.3 4654.5 4249.4 4662.6 4243.6 4659.5 4253.1 4662.6 4243.6 4659.5 4253.1 4651.4 4247.2 4648.4 4256.7 4640.3 4250.8 4648.4 4245 4656.4 4239.1 4646.4 4239.1 4638.4 4233.2 4628.4 4233.2 4625.3 4223.7 4622.2 4214.2 4614.1 4220.1 4617.2 4229.6 4607.2 4229.6 4604.1 4220.1 4612.2 4225.9 4609.1 4235.4 4599.1 4235.4 4609.1 4235.4 4612.2 4225.9 4604.1 4231.8 4612.2 4225.9 4622.2 4225.9 4632.2 4225.9 4640.3 4220.1 4637.2 4229.6 4647.2 4229.6 4655.3 4235.4" clip-path="url(#a)" fill="none" stroke="#000" stroke-linecap="round"/>
<polyline points="4655.3 4235.4 4658.4 4225.9 4650.3 4231.8 4660.3 4231.8 4663.4 4222.3 4666.4 4231.8 4676.4 4231.8 4679.5 4222.3 4687.6 4216.4 4679.5 4222.3 4671.4 4228.2 4663.4 4222.3 4653.4 4222.3 4645.3 4216.4 4655.3 4216.4 4652.2 4225.9 4660.3 4231.8 4670.3 4231.8 4667.2 4222.3 4659.1 4216.4 4649.1 4216.4 4657.2 4222.3 4649.1 4228.2 4657.2 4222.3 4647.2 4222.3 4637.2 4222.3 4629.1 4216.4 4632.2 4206.9 4622.2 4206.9 4630.3 4201 4638.4 4195.2 4635.3 4204.7 4638.4 4195.2 4635.3 4204.7 4627.2 4198.8 4624.1 4208.3 4616 4202.4 4624.1 4196.5 4632.2 4190.7 4622.2 4190.7 4614.1 4184.8 4604.1 4184.8 4601 4175.3" clip-path="url(#a)" fill="none" stroke="#000" stroke-linecap="round"/>
<polyline points="4601 4175.3 4597.9 4165.8 4589.8 4171.6 4592.9 4181.2 4582.9 4181.2 4579.8 4171.6 4587.9 4177.5 4584.8 4187 4574.8 4187 4584.8 4187 4587.9 4177.5 4579.8 4183.4 4587.9 4177.5 4597.9 4177.5 4607.9 4177.5 4616 4171.6 4612.9 4181.2 4622.9 4181.2 4631 4187 4634.1 4177.5 4626 4183.4 4636 4183.4 4639.1 4173.9 4642.2 4183.4 4652.2 4183.4 4655.3 4173.9 4663.4 4168 4655.3 4173.9 4647.2 4179.8 4639.1 4173.9 4629.1 4173.9 4621 4168 4631 4168 4627.9 4177.5 4636 4183.4 4646 4183.4 4642.9 4173.9 4634.8 4168 4624.8 4168 4632.9 4173.9 4624.8 4179.8 4632.9 4173.9 4622.9 4173.9" clip-path="url(#a)" fill="none" stroke="#000" stroke-linecap="round"/>
<polyline points="4622.9 4173.9 4612.9 4173.9 4604.8 4168 4607.9 4158.5 4597.9 4158.5 4606 4152.6 4614.1 4146.7 4611 4156.3 4614.1 4146.7 4611 4156.3 4602.9 4150.4 4599.8 4159.9 4591.7 4154 4599.8 4148.1 4607.9 4142.3 4597.9 4142.3 4589.8 4136.4 4579.8 4136.4 4576.7 4126.9 4573.6 4117.4 4565.5 4123.2 4568.6 4132.7 4558.6 4132.7 4555.5 4123.2 4563.6 4129.1 4560.5 4138.6 4550.5 4138.6 4560.5 4138.6 4563.6 4129.1 4555.5 4135 4563.6 4129.1 4573.6 4129.1 4583.6 4129.1 4591.7 4123.2 4588.6 4132.7 4598.6 4132.7 4606.7 4138.6 4609.8 4129.1 4601.7 4135 4611.7 4135 4614.8 4125.5 4617.9 4135 4627.9 4135" clip-path="url(#a)" fill="none" stroke="#000" stroke-linecap="round"/>
<polyline points="4627.9 4135 4631 4125.5 4639.1 4119.6 4631 4125.5 4622.9 4131.4 4614.8 4125.5 4604.8 4125.5 4596.7 4119.6 4606.7 4119.6 4603.6 4129.1 4611.7 4135 4621.7 4135 4618.6 4125.5 4610.5 4119.6 4600.5 4119.6 4608.6 4125.5 4600.5 4131.4 4608.6 4125.5 4598.6 4125.5 4588.6 4125.5 4580.5 4119.6 4583.6 4110.1 4573.6 4110.1 4581.7 4104.2 4589.8 4098.3 4586.7 4107.8 4589.8 4098.3 4586.7 4107.8 4578.6 4102 4575.5 4111.5 4567.5 4105.6 4575.5 4099.7 4583.6 4093.8 4573.6 4093.8 4565.5 4088 4555.5 4088 4552.5 4078.5 4549.4 4068.9 4541.3 4074.8 4544.4 4084.3 4534.4 4084.3 4531.3 4074.8 4539.4 4080.7" clip-path="url(#a)" fill="none" stroke="#000" stroke-linecap="round"/>
<polyline points="4539.4 4080.7 4536.3 4090.2 4526.3 4090.2 4536.3 4090.2 4539.4 4080.7 4531.3 4086.6 4539.4 4080.7 4549.4 4080.7 4559.4 4080.7 4567.5 4074.8 4564.4 4084.3 4574.4 4084.3 4582.5 4090.2 4585.5 4080.7 4577.5 4086.6 4587.5 4086.6 4590.5 4077.1 4593.6 4086.6 4603.6 4086.6 4606.7 4077.1 4614.8 4071.2 4606.7 4077.1 4598.6 4082.9 4590.5 4077.1 4580.5 4077.1 4572.5 4071.2 4582.5 4071.2 4579.4 4080.7 4587.5 4086.6 4597.5 4086.6 4594.4 4077.1 4586.3 4071.2 4576.3 4071.2 4584.4 4077.1 4576.3 4082.9 4584.4 4077.1 4574.4 4077.1 4564.4 4077.1 4556.3 4071.2 4559.4 4061.7 4549.4 4061.7 4557.5 4055.8 4565.5 4049.9" clip-path="url(#a)" fill="none" stroke="#000" stroke-linecap="round"/>
<polyline points="4565.5 4049.9 4562.5 4059.4 4565.5 4049.9 4562.5 4059.4 4554.4 4053.6 4551.3 4063.1 4543.2 4057.2 4551.3 4051.3 4559.4 4045.4 4549.4 4045.4 4541.3 4039.6 4531.3 4039.6 4528.2 4030 4525.1 4020.5 4517 4026.4 4520.1 4035.9 4510.1 4035.9 4507 4026.4 4515.1 4032.3 4512 4041.8 4502 4041.8 4512 4041.8 4515.1 4032.3 4507 4038.2 4515.1 4032.3" clip-path="url(#a)" fill="none" stroke="#000" stroke-linecap="round"/>
</svg>
