<?xml version="1.0" encoding="utf-8" ?>
<svg baseProfile="full" height="10000px" version="1.1" width="10000px" xmlns="http://www.w3.org/2000/svg" xmlns:ev="http://www.w3.org/2001/xml-events" xmlns:xlink="http://www.w3.org/1999/xlink"><defs><clipPath id="border_clip"><rect height="10000" width="10000" x="0" y="0" /></clipPath></defs><polyline clip-path="url(#border_clip)" fill="none" points="5000.5,5000.5 5010.5,5000.5 5020.5,5000.5 5028.590169943749,4994.6221474770755 5025.5,5004.1327126400265 5035.5,5004.1327126400265 5043.590169943749,5010.010565162952 5046.680339887499,5000.5 5038.590169943749,5006.3778525229245 5048.590169943749,5006.3778525229245 5051.680339887499,4996.8672873599735 5054.770509831248,5006.3778525229245 5064.770509831248,5006.3778525229245 5067.860679774998,4996.8672873599735 5075.950849718747,4990.989434837048 5067.860679774998,4996.8672873599735 5059.770509831248,5002.745139882898 5051.680339887499,4996.8672873599735 5041.680339887499,4996.8672873599735 5033.590169943749,4990.989434837048 5043.590169943749,4990.989434837048 5040.5,5000.5 5048.590169943749,5006.3778525229245 5058.590169943749,5006.3778525229245 5055.5,4996.8672873599735 5047.409830056251,4990.989434837048 5037.409830056251,4990.989434837048 5045.5,4996.8672873599735 5037.409830056251,5002.745139882898 5045.5,4996.8672873599735 5035.5,4996.8672873599735 5025.5,4996.8672873599735 5017.409830056251,4990.989434837048 5020.5,4981.478869674097 5010.5,4981.478869674097 5018.59016994375,4975.6010171511725 5026.680339887499,4969.723164628247 5023.59016994375,4979.233729791199 5026.680339887499,4969.723164628247 5023.59016994375,4979.233729791199 5015.5,4973.3558772682745 5012.409830056251,4982.866442431226 5004.319660112501,4976.988589908301" stroke="black" stroke-linecap="round" stroke-width="1" /><polyline clip-path="url(#border_clip)" fill="none" points="5004.319660112501,4976.988589908301 5012.409830056251,4971.1107373853765 5020.5,4965.232884862451 5010.5,4965.232884862451 5002.409830056251,4959.355032339527 4992.409830056251,4959.355032339527 4989.319660112501,4949.844467176576 4986.229490168752,4940.333902013624 4978.139320225002,4946.211754536548 4981.229490168752,4955.7223196995 4971.229490168752,4955.7223196995 4968.139320225002,4946.211754536548 4976.229490168752,4952.089607059473 4973.139320225002,4961.600172222425 4963.139320225002,4961.600172222425 4973.139320225002,4961.600172222425 4976.229490168752,4952.089607059473 4968.139320225002,4957.967459582398 4976.229490168752,4952.089607059473 4986.229490168752,4952.089607059473 4996.229490168752,4952.089607059474 5004.319660112501,4946.211754536548 5001.229490168752,4955.7223196995 5011.229490168752,4955.7223196995 5019.319660112501,4961.600172222425 5022.409830056251,4952.089607059474 5014.319660112501,4957.967459582398 5024.319660112501,4957.967459582398 5027.409830056251,4948.456894419446 5030.5,4957.967459582398 5040.5,4957.967459582398 5043.59016994375,4948.456894419447 5051.680339887499,4942.579041896522 5043.59016994375,4948.456894419447 5035.5,4954.334746942372 5027.409830056251,4948.456894419446 5017.409830056251,4948.456894419446 5009.319660112501,4942.579041896522 5019.319660112501,4942.579041896522 5016.229490168752,4952.089607059474 5024.319660112501,4957.967459582398 5034.319660112501,4957.967459582398 5031.229490168752,4948.456894419446" stroke="black" stroke-linecap="round" stroke-width="1" /><polyline clip-path="url(#border_clip)" fill="none" points="5031.229490168752,4948.456894419446 5023.139320225002,4942.579041896522 5013.139320225002,4942.579041896522 5021.229490168752,4948.456894419446 5013.139320225002,4954.334746942372 5021.229490168752,4948.456894419446 5011.229490168752,4948.456894419446 5001.229490168752,4948.456894419446 4993.139320225002,4942.579041896522 4996.229490168752,4933.06847673357 4986.229490168752,4933.06847673357 4994.319660112502,4927.190624210645 5002.409830056251,4921.312771687721 4999.319660112502,4930.823336850672 5002.409830056251,4921.312771687721 4999.319660112502,4930.823336850672 4991.229490168752,4924.945484327747 4988.139320225003,4934.456049490699 4980.049150281253,4928.578196967774 4988.139320225003,4922.700344444849 4996.229490168752,4916.822491921925 4986.229490168752,4916.822491921925 4978.139320225003,4910.944639398999 4968.139320225003,4910.944639398999 4965.049150281253,4901.434074236048 4961.958980337504,4891.923509073096 4953.868810393755,4897.801361596021 4956.958980337504,4907.311926758973 4946.958980337504,4907.311926758973 4943.868810393755,4897.801361596021 4951.958980337504,4903.679214118945 4948.868810393754,4913.189779281897 4938.868810393754,4913.189779281897 4948.868810393754,4913.189779281897 4951.958980337504,4903.679214118945 4943.868810393754,4909.557066641871 4951.958980337504,4903.679214118945 4961.958980337504,4903.679214118946 4971.958980337504,4903.679214118946 4980.049150281254,4897.801361596022 4976.958980337504,4907.311926758973 4986.958980337504,4907.311926758973 4995.049150281253,4913.189779281898" stroke="black" stroke-linecap="round" stroke-width="1" /><polyline clip-path="url(#border_clip)" fill="none" points="4995.049150281253,4913.189779281898 4998.139320225003,4903.679214118946 4990.049150281253,4909.557066641871 5000.049150281253,4909.557066641871 5003.139320225003,4900.04650147892 5006.229490168752,4909.557066641872 5016.229490168752,4909.557066641872 5019.319660112502,4900.04650147892 5027.409830056252,4894.168648955995 5019.319660112502,4900.04650147892 5011.229490168752,4905.924354001844 5003.139320225003,4900.04650147892 4993.139320225003,4900.04650147892 4985.049150281254,4894.168648955994 4995.049150281254,4894.168648955995 4991.958980337504,4903.679214118946 5000.049150281253,4909.557066641871 5010.049150281253,4909.557066641872 5006.958980337504,4900.04650147892 4998.868810393755,4894.168648955995 4988.868810393755,4894.168648955994 4996.958980337504,4900.04650147892 4988.868810393755,4905.924354001844 4996.958980337504,4900.04650147892 4986.958980337504,4900.04650147892 4976.958980337504,4900.046501478919 4968.868810393755,4894.168648955994 4971.958980337504,4884.658083793043 4961.958980337504,4884.658083793042 4970.049150281254,4878.780231270118 4978.139320225004,4872.902378747193 4975.049150281254,4882.412943910145 4978.139320225004,4872.902378747193 4975.049150281254,4882.412943910145 4966.958980337504,4876.53509138722 4963.868810393755,4886.045656550172 4955.778640450005,4880.167804027246 4963.868810393755,4874.289951504322 4971.958980337505,4868.412098981397 4961.958980337505,4868.412098981397 4953.868810393755,4862.534246458472 4943.868810393755,4862.534246458472 4940.778640450006,4853.023681295521" stroke="black" stroke-linecap="round" stroke-width="1" /><polyline clip-path="url(#border_clip)" fill="none" points="4940.778640450006,4853.023681295521 4937.688470506257,4843.513116132569 4929.598300562507,4849.390968655493 4932.688470506256,4858.901533818445 4922.688470506256,4858.901533818445 4919.598300562507,4849.390968655493 4927.688470506256,4855.268821178418 4924.598300562507,4864.77938634137 4914.598300562507,4864.77938634137 4924.598300562507,4864.77938634137 4927.688470506256,4855.268821178418 4919.598300562507,4861.1466737013425 4927.688470506256,4855.268821178418 4937.688470506257,4855.268821178419 4947.688470506257,4855.268821178419 4955.778640450006,4849.390968655494 4952.688470506256,4858.901533818445 4962.688470506257,4858.901533818445 4970.778640450006,4864.779386341371 4973.868810393756,4855.268821178419 4965.778640450006,4861.146673701343 4975.778640450006,4861.146673701344 4978.868810393756,4851.636108538392 4981.958980337505,4861.146673701344 4991.958980337505,4861.146673701344 4995.049150281255,4851.636108538393 5003.139320225004,4845.758256015468 4995.049150281255,4851.636108538393 4986.958980337505,4857.513961061318 4978.868810393756,4851.636108538392 4968.868810393756,4851.636108538392 4960.778640450006,4845.758256015467 4970.778640450006,4845.758256015468 4967.688470506257,4855.268821178419 4975.778640450006,4861.146673701344 4985.778640450006,4861.146673701344 4982.688470506257,4851.636108538392 4974.598300562507,4845.758256015468 4964.598300562507,4845.758256015468 4972.688470506257,4851.636108538392 4964.598300562507,4857.513961061317 4972.688470506257,4851.636108538392 4962.688470506257,4851.636108538392" stroke="black" stroke-linecap="round" stroke-width="1" /><polyline clip-path="url(#border_clip)" fill="none" points="4962.688470506257,4851.636108538392 4952.688470506257,4851.636108538391 4944.598300562507,4845.758256015467 4947.688470506257,4836.247690852515 4937.688470506257,4836.247690852515 4945.778640450007,4830.3698383295905 4953.868810393756,4824.491985806666 4950.778640450007,4834.002550969618 4953.868810393756,4824.491985806666 4950.778640450007,4834.002550969618 4942.688470506257,4828.1246984466925 4939.598300562508,4837.635263609644 4931.508130618758,4831.757411086719 4939.598300562508,4825.8795585637945 4947.6884705062575,4820.00170604087 4937.688470506257,4820.00170604087 4929.598300562508,4814.123853517945 4919.598300562508,4814.123853517945 4916.5081306187585,4804.613288354993 4913.417960675009,4795.102723192042 4905.3277907312595,4800.980575714966 4908.4179606750085,4810.491140877917 4898.4179606750085,4810.491140877917 4895.3277907312595,4800.980575714965 4903.4179606750085,4806.858428237891 4900.3277907312595,4816.368993400842 4890.3277907312595,4816.368993400842 4900.3277907312595,4816.368993400842 4903.4179606750085,4806.858428237891 4895.3277907312595,4812.736280760815 4903.4179606750085,4806.858428237891 4913.4179606750085,4806.858428237891 4923.4179606750085,4806.858428237891 4931.5081306187585,4800.980575714966 4928.4179606750085,4810.491140877918 4938.4179606750085,4810.491140877918 4946.5081306187585,4816.3689934008435 4949.598300562508,4806.8584282378915 4941.5081306187585,4812.736280760816 4951.5081306187585,4812.736280760817 4954.5983005625085,4803.225715597865 4957.6884705062575,4812.736280760817 4967.6884705062575,4812.736280760817" stroke="black" stroke-linecap="round" stroke-width="1" /><polyline clip-path="url(#border_clip)" fill="none" points="4967.6884705062575,4812.736280760817 4970.7786404500075,4803.225715597866 4978.868810393757,4797.347863074941 4970.7786404500075,4803.225715597866 4962.6884705062575,4809.10356812079 4954.5983005625085,4803.225715597865 4944.5983005625085,4803.225715597865 4936.5081306187585,4797.34786307494 4946.5081306187585,4797.3478630749405 4943.4179606750085,4806.8584282378915 4951.5081306187585,4812.736280760817 4961.5081306187585,4812.736280760817 4958.417960675009,4803.225715597865 4950.3277907312595,4797.3478630749405 4940.3277907312595,4797.34786307494 4948.417960675009,4803.225715597865 4940.3277907312595,4809.1035681207895 4948.417960675009,4803.225715597865 4938.417960675009,4803.225715597865 4928.417960675009,4803.225715597864 4920.3277907312595,4797.34786307494 4923.417960675009,4787.837297911988 4913.417960675009,4787.837297911988 4921.508130618759,4781.959445389063 4929.5983005625085,4776.081592866139 4926.508130618759,4785.59215802909 4929.5983005625085,4776.081592866139 4926.508130618759,4785.59215802909 4918.417960675009,4779.714305506165 4915.3277907312595,4789.224870669116 4907.23762078751,4783.347018146192 4915.32779073126,4777.469165623267 4923.41796067501,4771.591313100343 4913.41796067501,4771.591313100342 4905.32779073126,4765.713460577417 4895.32779073126,4765.713460577416 4892.237620787511,4756.202895414465 4889.147450843762,4746.692330251513 4881.057280900012,4752.570182774438 4884.147450843761,4762.08074793739 4874.147450843761,4762.080747937389 4871.057280900012,4752.570182774438 4879.147450843761,4758.448035297362" stroke="black" stroke-linecap="round" stroke-width="1" /><polyline clip-path="url(#border_clip)" fill="none" points="4879.147450843761,4758.448035297362 4876.057280900012,4767.958600460314 4866.057280900012,4767.958600460313 4876.057280900012,4767.958600460314 4879.147450843761,4758.448035297362 4871.057280900012,4764.325887820287 4879.147450843761,4758.448035297362 4889.147450843762,4758.448035297363 4899.147450843762,4758.448035297363 4907.237620787511,4752.570182774439 4904.147450843761,4762.08074793739 4914.147450843762,4762.080747937391 4922.237620787511,4767.958600460315 4925.327790731261,4758.448035297364 4917.237620787511,4764.325887820289 4927.237620787511,4764.325887820289 4930.327790731261,4754.815322657338 4933.41796067501,4764.32588782029 4943.41796067501,4764.32588782029 4946.50813061876,4754.815322657338 4954.59830056251,4748.937470134414 4946.50813061876,4754.815322657338 4938.41796067501,4760.693175180262 4930.327790731261,4754.815322657338 4920.327790731261,4754.815322657337 4912.237620787511,4748.937470134412 4922.237620787512,4748.937470134412 4919.147450843762,4758.448035297364 4927.237620787511,4764.325887820289 4937.237620787511,4764.32588782029 4934.147450843762,4754.815322657338 4926.057280900013,4748.937470134412 4916.057280900013,4748.937470134412 4924.147450843762,4754.815322657338 4916.057280900012,4760.693175180262 4924.147450843762,4754.815322657338 4914.147450843762,4754.815322657337 4904.147450843762,4754.815322657337 4896.057280900012,4748.937470134411 4899.147450843762,4739.42690497146 4889.147450843762,4739.426904971459 4897.237620787512,4733.549052448535 4905.327790731262,4727.67119992561" stroke="black" stroke-linecap="round" stroke-width="1" /><polyline clip-path="url(#border_clip)" fill="none" points="4905.327790731262,4727.67119992561 4902.237620787512,4737.181765088562 4905.327790731262,4727.67119992561 4902.237620787512,4737.181765088562 4894.147450843763,4731.303912565637 4891.057280900013,4740.814477728589 4882.967110956264,4734.936625205663 4891.057280900013,4729.058772682739 4899.147450843763,4723.180920159814 4889.147450843763,4723.180920159814 4881.057280900014,4717.303067636889 4871.057280900014,4717.303067636889 4867.967110956265,4707.792502473937 4864.876941012516,4698.281937310985 4856.786771068766,4704.15978983391 4859.876941012515,4713.6703549968615 4849.876941012515,4713.670354996861 4846.786771068766,4704.15978983391 4854.876941012515,4710.037642356834 4851.786771068765,4719.548207519786 4841.786771068765,4719.548207519785 4851.786771068765,4719.548207519786 4854.876941012515,4710.037642356834 4846.786771068765,4715.915494879759 4854.876941012515,4710.037642356834 4864.876941012515,4710.037642356835 4874.876941012515,4710.037642356835 4882.967110956265,4704.1597898339105 4879.876941012515,4713.670354996862 4889.876941012515,4713.670354996862 4897.967110956264,4719.548207519788 4901.057280900014,4710.037642356836 4892.967110956264,4715.91549487976 4902.967110956264,4715.915494879761 4906.057280900014,4706.404929716809 4909.147450843763,4715.915494879761 4919.147450843763,4715.915494879762 4922.237620787513,4706.40492971681 4930.327790731263,4700.527077193886 4922.237620787513,4706.40492971681 4914.147450843764,4712.282782239735 4906.057280900014,4706.404929716809 4896.057280900014,4706.404929716809" stroke="black" stroke-linecap="round" stroke-width="1" /><polyline clip-path="url(#border_clip)" fill="none" points="4896.057280900014,4706.404929716809 4887.967110956265,4700.527077193884 4897.967110956265,4700.527077193885 4894.876941012515,4710.037642356836 4902.967110956264,4715.915494879761 4912.967110956264,4715.915494879761 4909.876941012515,4706.404929716809 4901.786771068766,4700.527077193885 4891.786771068766,4700.527077193884 4899.876941012515,4706.404929716809 4891.786771068766,4712.282782239734 4899.876941012515,4706.404929716809 4889.876941012515,4706.404929716809 4879.876941012515,4706.4049297168085 4871.786771068766,4700.527077193883 4874.876941012516,4691.016512030932 4864.876941012516,4691.016512030931 4872.967110956266,4685.138659508007 4881.057280900016,4679.260806985083 4877.967110956266,4688.771372148034 4881.057280900016,4679.260806985083 4877.967110956266,4688.771372148034 4869.876941012516,4682.893519625109 4866.786771068766,4692.404084788061 4858.696601125017,4686.526232265135 4866.786771068767,4680.648379742211 4874.876941012517,4674.770527219286 4864.876941012517,4674.770527219286 4856.786771068768,4668.892674696361 4846.786771068767,4668.892674696361 4843.696601125018,4659.382109533409 4840.606431181269,4649.871544370457 4832.51626123752,4655.749396893381 4835.606431181269,4665.259962056333 4825.606431181269,4665.259962056332 4822.51626123752,4655.749396893381 4830.606431181269,4661.627249416306 4827.516261237519,4671.137814579258 4817.516261237519,4671.137814579257 4827.516261237519,4671.137814579258 4830.606431181269,4661.627249416306 4822.516261237519,4667.50510193923 4830.606431181269,4661.627249416306" stroke="black" stroke-linecap="round" stroke-width="1" /><polyline clip-path="url(#border_clip)" fill="none" points="4830.606431181269,4661.627249416306 4840.606431181269,4661.627249416307 4850.606431181269,4661.627249416307 4858.696601125019,4655.749396893382 4855.606431181269,4665.259962056334 4865.606431181269,4665.259962056334 4873.696601125018,4671.13781457926 4876.786771068768,4661.627249416309 4868.696601125018,4667.505101939233 4878.696601125018,4667.505101939233 4881.786771068768,4657.994536776282 4884.876941012517,4667.505101939234 4894.876941012517,4667.505101939234 4897.967110956267,4657.994536776283 4906.057280900017,4652.1166842533585 4897.967110956267,4657.994536776283 4889.876941012518,4663.872389299207 4881.786771068768,4657.994536776282 4871.786771068768,4657.994536776281 4863.696601125019,4652.116684253356 4873.696601125019,4652.116684253357 4870.606431181269,4661.627249416308 4878.696601125018,4667.505101939233 4888.696601125018,4667.505101939234 4885.60643118127,4657.994536776282 4877.51626123752,4652.116684253357 4867.51626123752,4652.116684253357 4875.606431181269,4657.994536776281 4867.51626123752,4663.872389299206 4875.606431181269,4657.994536776281 4865.606431181269,4657.994536776281 4855.606431181269,4657.99453677628 4847.51626123752,4652.116684253355 4850.60643118127,4642.606119090404 4840.60643118127,4642.606119090403 4848.69660112502,4636.728266567479 4856.78677106877,4630.850414044555 4853.69660112502,4640.360979207506 4856.78677106877,4630.850414044555 4853.69660112502,4640.360979207506 4845.606431181271,4634.483126684581 4842.516261237521,4643.993691847532 4834.426091293771,4638.115839324607" stroke="black" stroke-linecap="round" stroke-width="1" /><polyline clip-path="url(#border_clip)" fill="none" points="4834.426091293771,4638.115839324607 4842.516261237521,4632.237986801682 4850.606431181271,4626.360134278759 4840.606431181271,4626.360134278758 4832.516261237522,4620.482281755832 4822.516261237522,4620.482281755832 4819.4260912937725,4610.9717165928805 4816.335921350023,4601.461151429929 4808.2457514062735,4607.339003952853 4811.3359213500225,4616.849569115805 4801.3359213500225,4616.849569115804 4798.2457514062735,4607.339003952852 4806.3359213500225,4613.216856475778 4803.245751406273,4622.727421638729 4793.245751406273,4622.727421638729 4803.245751406273,4622.727421638729 4806.3359213500225,4613.216856475778 4798.245751406273,4619.094708998702 4806.3359213500225,4613.216856475778 4816.3359213500225,4613.2168564757785 4826.3359213500225,4613.2168564757785 4834.4260912937725,4607.339003952854 4831.3359213500225,4616.849569115806 4841.3359213500225,4616.849569115806 4849.426091293772,4622.727421638731 4852.516261237522,4613.21685647578 4844.426091293772,4619.094708998705 4854.4260912937725,4619.094708998705 4857.5162612375225,4609.584143835754 4860.606431181272,4619.094708998706 4870.606431181272,4619.094708998706 4873.6966011250215,4609.584143835755 4881.7867710687715,4603.70629131283 4873.6966011250215,4609.584143835755 4865.606431181272,4615.461996358679 4857.5162612375225,4609.584143835754 4847.5162612375225,4609.584143835753 4839.4260912937725,4603.7062913128275 4849.4260912937725,4603.706291312828 4846.3359213500225,4613.216856475779 4854.426091293772,4619.094708998705 4864.4260912937725,4619.094708998706 4861.335921350023,4609.584143835754" stroke="black" stroke-linecap="round" stroke-width="1" /><polyline clip-path="url(#border_clip)" fill="none" points="4861.335921350023,4609.584143835754 4853.245751406274,4603.706291312828 4843.2457514062735,4603.7062913128275 4851.335921350023,4609.584143835753 4843.2457514062735,4615.461996358677 4851.335921350023,4609.584143835753 4841.335921350023,4609.584143835753 4831.3359213500225,4609.584143835752 4823.2457514062735,4603.706291312827 4826.335921350023,4594.195726149876 4816.335921350023,4594.195726149875 4824.426091293773,4588.31787362695 4832.516261237523,4582.4400211040265 4829.426091293773,4591.950586266978 4832.516261237523,4582.4400211040265 4829.426091293773,4591.950586266978 4821.335921350024,4586.072733744052 4818.245751406274,4595.583298907004 4810.155581462525,4589.705446384079 4818.245751406275,4583.827593861154 4826.335921350024,4577.94974133823 4816.335921350024,4577.94974133823 4808.245751406275,4572.071888815304 4798.245751406275,4572.071888815303 4795.155581462526,4562.561323652351 4792.065411518777,4553.050758489399 4783.975241575028,4558.928611012324 4787.065411518776,4568.439176175276 4777.065411518776,4568.439176175275 4773.975241575027,4558.928611012323 4782.065411518777,4564.806463535248 4778.975241575026,4574.3170286982 4768.975241575026,4574.3170286981995 4778.975241575026,4574.3170286982 4782.065411518777,4564.806463535248 4773.975241575027,4570.684316058173 4782.065411518777,4564.806463535248 4792.065411518777,4564.806463535249 4802.065411518777,4564.80646353525 4810.155581462527,4558.928611012326 4807.065411518777,4568.439176175277 4817.065411518777,4568.439176175278 4825.155581462526,4574.317028698203" stroke="black" stroke-linecap="round" stroke-width="1" /><polyline clip-path="url(#border_clip)" fill="none" points="4825.155581462526,4574.317028698203 4828.245751406276,4564.806463535251 4820.155581462526,4570.684316058176 4830.155581462526,4570.684316058177 4833.245751406276,4561.173750895225 4836.335921350025,4570.684316058177 4846.335921350025,4570.6843160581775 4849.426091293775,4561.1737508952265 4857.516261237525,4555.295898372302 4849.426091293775,4561.1737508952265 4841.335921350025,4567.05160341815 4833.245751406276,4561.173750895225 4823.245751406276,4561.173750895225 4815.155581462527,4555.295898372299 4825.155581462527,4555.2958983723 4822.065411518777,4564.806463535251 4830.155581462526,4570.684316058177 4840.155581462526,4570.6843160581775 4837.065411518777,4561.173750895226 4828.975241575028,4555.2958983723 4818.975241575028,4555.295898372299 4827.065411518777,4561.173750895225 4818.975241575027,4567.051603418149 4827.065411518777,4561.173750895225 4817.065411518777,4561.173750895224 4807.065411518777,4561.173750895223 4798.975241575028,4555.295898372298 4802.065411518778,4545.785333209346 4792.065411518778,4545.7853332093455 4800.155581462528,4539.907480686422 4808.245751406278,4534.029628163497 4805.155581462528,4543.540193326448 4808.245751406278,4534.029628163497 4805.155581462528,4543.540193326448 4797.065411518779,4537.662340803524 4793.975241575029,4547.172905966475 4785.885071631279,4541.2950534435495 4793.975241575029,4535.417200920625 4802.065411518779,4529.539348397701 4792.065411518779,4529.5393483977 4783.97524157503,4523.661495874775 4773.97524157503,4523.661495874774 4770.885071631281,4514.150930711823" stroke="black" stroke-linecap="round" stroke-width="1" /><polyline clip-path="url(#border_clip)" fill="none" points="4770.885071631281,4514.150930711823 4767.794901687533,4504.640365548871 4759.704731743783,4510.518218071795 4762.794901687531,4520.028783234747 4752.794901687531,4520.028783234746 4749.704731743783,4510.518218071795 4757.794901687532,4516.396070594719 4754.704731743781,4525.906635757671 4744.704731743781,4525.90663575767 4754.704731743781,4525.906635757671 4757.794901687532,4516.396070594719 4749.704731743782,4522.273923117644 4757.794901687532,4516.396070594719 4767.794901687532,4516.39607059472 4777.794901687532,4516.396070594721 4785.885071631282,4510.518218071797 4782.794901687532,4520.0287832347485 4792.794901687532,4520.028783234749 4800.885071631281,4525.906635757674 4803.975241575031,4516.396070594723 4795.885071631281,4522.273923117647 4805.885071631281,4522.273923117647 4808.975241575031,4512.763357954696 4812.06541151878,4522.273923117648 4822.06541151878,4522.273923117649 4825.15558146253,4512.763357954697 4833.24575140628,4506.885505431774 4825.15558146253,4512.763357954697 4817.06541151878,4518.641210477622 4808.975241575031,4512.763357954696 4798.975241575031,4512.7633579546955 4790.885071631282,4506.88550543177 4800.885071631282,4506.885505431771 4797.794901687532,4516.396070594722 4805.885071631281,4522.273923117647 4815.885071631281,4522.273923117648 4812.794901687532,4512.763357954696 4804.704731743783,4506.885505431771 4794.704731743783,4506.885505431771 4802.794901687532,4512.763357954696 4794.704731743782,4518.64121047762 4802.794901687532,4512.763357954696 4792.794901687532,4512.7633579546955" stroke="black" stroke-linecap="round" stroke-width="1" /><polyline clip-path="url(#border_clip)" fill="none" points="4792.794901687532,4512.7633579546955 4782.794901687532,4512.763357954695 4774.704731743783,4506.885505431769 4777.794901687533,4497.374940268817 4767.794901687533,4497.374940268817 4775.885071631283,4491.497087745893 4783.975241575033,4485.619235222968 4780.885071631283,4495.12980038592 4783.975241575033,4485.619235222968 4780.885071631283,4495.12980038592 4772.794901687534,4489.251947862995 4769.704731743784,4498.762513025946 4761.614561800035,4492.88466050302 4769.704731743785,4487.006807980097 4777.794901687535,4481.128955457172 4767.794901687534,4481.128955457171 4759.704731743785,4475.251102934246 4749.704731743785,4475.251102934245 4746.614561800036,4465.740537771293 4743.524391856287,4456.229972608342 4735.434221912537,4462.107825131266 4738.5243918562865,4471.6183902942175 4728.5243918562865,4471.618390294217 4725.434221912537,4462.107825131265 4733.5243918562865,4467.98567765419 4730.4342219125365,4477.496242817142 4720.434221912536,4477.496242817141 4730.4342219125365,4477.496242817142 4733.5243918562865,4467.98567765419 4725.4342219125365,4473.863530177115 4733.5243918562865,4467.98567765419 4743.5243918562865,4467.985677654191 4753.5243918562865,4467.985677654192 4761.614561800036,4462.107825131267 4758.5243918562865,4471.618390294219 4768.5243918562865,4471.61839029422 4776.6145618000355,4477.496242817146 4779.7047317437855,4467.985677654194 4771.6145618000355,4473.863530177118 4781.6145618000355,4473.863530177119 4784.704731743786,4464.352965014167 4787.794901687535,4473.863530177119 4797.794901687535,4473.86353017712" stroke="black" stroke-linecap="round" stroke-width="1" /><polyline clip-path="url(#border_clip)" fill="none" points="4797.794901687535,4473.86353017712 4800.885071631285,4464.352965014169 4808.975241575035,4458.4751124912445 4800.885071631285,4464.352965014169 4792.7949016875355,4470.230817537093 4784.704731743786,4464.352965014167 4774.704731743786,4464.352965014166 4766.614561800037,4458.475112491242 4776.614561800037,4458.475112491242 4773.5243918562865,4467.985677654194 4781.6145618000355,4473.863530177119 4791.6145618000355,4473.86353017712 4788.524391856287,4464.352965014168 4780.434221912538,4458.475112491243 4770.434221912538,4458.475112491242 4778.524391856287,4464.352965014167 4770.434221912537,4470.230817537091 4778.524391856287,4464.352965014167 4768.524391856287,4464.352965014166 4758.5243918562865,4464.352965014165 4750.434221912537,4458.47511249124 4753.524391856288,4448.964547328289 4743.524391856288,4448.964547328288 4751.614561800038,4443.086694805364 4759.704731743788,4437.20884228244 4756.614561800037,4446.719407445391 4759.704731743788,4437.20884228244 4756.614561800037,4446.719407445391 4748.524391856288,4440.841554922466 4745.434221912538,4450.352120085417 4737.344051968789,4444.474267562491 4745.434221912539,4438.596415039568 4753.524391856289,4432.718562516643 4743.524391856289,4432.718562516642 4735.43422191254,4426.840709993717 4725.43422191254,4426.840709993716 4722.344051968791,4417.330144830764 4719.253882025043,4407.819579667812 4711.163712081292,4413.697432190736 4714.253882025041,4423.207997353688 4704.253882025041,4423.2079973536875 4701.163712081292,4413.6974321907355 4709.253882025041,4419.575284713661" stroke="black" stroke-linecap="round" stroke-width="1" /><polyline clip-path="url(#border_clip)" fill="none" points="4709.253882025041,4419.575284713661 4706.163712081291,4429.085849876612 4696.163712081291,4429.085849876612 4706.163712081291,4429.085849876612 4709.253882025041,4419.575284713661 4701.163712081291,4425.4531372365855 4709.253882025041,4419.575284713661 4719.253882025041,4419.575284713662 4729.253882025042,4419.575284713663 4737.344051968792,4413.697432190738 4734.253882025041,4423.20799735369 4744.253882025041,4423.207997353691 4752.34405196879,4429.085849876616 4755.434221912541,4419.575284713665 4747.344051968791,4425.453137236589 4757.344051968791,4425.453137236589 4760.434221912541,4415.942572073638 4763.52439185629,4425.45313723659 4773.52439185629,4425.453137236591 4776.61456180004,4415.94257207364 4784.70473174379,4410.064719550715 4776.61456180004,4415.94257207364 4768.52439185629,4421.8204245965635 4760.434221912541,4415.942572073638 4750.434221912541,4415.942572073637 4742.344051968792,4410.064719550712 4752.344051968792,4410.064719550713 4749.253882025042,4419.575284713664 4757.344051968791,4425.453137236589 4767.344051968791,4425.45313723659 4764.253882025042,4415.942572073638 4756.163712081293,4410.064719550713 4746.163712081293,4410.064719550712 4754.253882025042,4415.942572073637 4746.163712081292,4421.820424596562 4754.253882025042,4415.942572073637 4744.253882025042,4415.942572073636 4734.253882025042,4415.942572073635 4726.163712081293,4410.06471955071 4729.253882025043,4400.554154387759 4719.253882025043,4400.554154387758 4727.344051968793,4394.6763018648335 4735.434221912543,4388.79844934191" stroke="black" stroke-linecap="round" stroke-width="1" /><polyline clip-path="url(#border_clip)" fill="none" points="4735.434221912543,4388.79844934191 4732.344051968793,4398.309014504861 4735.434221912543,4388.79844934191 4732.344051968793,4398.309014504861 4724.253882025044,4392.4311619819355 4721.163712081294,4401.941727144887 4713.073542137545,4396.063874621961 4721.163712081295,4390.1860220990375 4729.253882025045,4384.308169576113 4719.253882025045,4384.308169576112 4711.163712081296,4378.430317053187 4701.163712081296,4378.430317053186 4698.073542137547,4368.919751890234 4694.983372193798,4359.409186727282 4686.893202250048,4365.287039250206 4689.983372193797,4374.797604413158 4679.983372193797,4374.797604413157 4676.893202250048,4365.287039250205 4684.983372193797,4371.164891773131 4681.893202250047,4380.675456936082 4671.893202250047,4380.675456936081 4681.893202250047,4380.675456936082 4684.983372193797,4371.164891773131 4676.893202250047,4377.0427442960545 4684.983372193797,4371.164891773131 4694.983372193797,4371.164891773132 4704.983372193798,4371.164891773133 4713.0735421375475,4365.287039250208 4709.983372193797,4374.79760441316 4719.983372193797,4374.797604413161 4728.073542137546,4380.675456936086 4731.163712081297,4371.1648917731345 4723.073542137547,4377.042744296059 4733.073542137547,4377.04274429606 4736.163712081297,4367.532179133109 4739.253882025046,4377.042744296061 4749.253882025046,4377.042744296062 4752.344051968796,4367.53217913311 4760.4342219125465,4361.654326610186 4752.344051968796,4367.53217913311 4744.253882025046,4373.410031656034 4736.163712081297,4367.532179133109 4726.163712081297,4367.532179133108" stroke="black" stroke-linecap="round" stroke-width="1" /><polyline clip-path="url(#border_clip)" fill="none" points="4726.163712081297,4367.532179133108 4718.0735421375475,4361.654326610182 4728.0735421375475,4361.6543266101835 4724.983372193798,4371.1648917731345 4733.073542137547,4377.04274429606 4743.073542137547,4377.042744296061 4739.983372193798,4367.532179133109 4731.8932022500485,4361.6543266101835 4721.8932022500485,4361.654326610183 4729.983372193798,4367.532179133108 4721.893202250048,4373.4100316560325 4729.983372193798,4367.532179133108 4719.983372193798,4367.532179133107 4709.983372193798,4367.532179133106 4701.8932022500485,4361.654326610181 4704.983372193799,4352.143761447229 4694.983372193799,4352.143761447229 4703.073542137549,4346.265908924304 4711.163712081299,4340.38805640138 4708.073542137548,4349.898621564332 4711.163712081299,4340.38805640138 4708.073542137548,4349.898621564332 4699.983372193799,4344.020769041406 4696.893202250049,4353.531334204357 4688.8030323063,4347.653481681432 4696.89320225005,4341.775629158508 4704.9833721938,4335.897776635584 4694.9833721938,4335.897776635583 4686.893202250051,4330.0199241126575 4676.893202250051,4330.019924112657 4673.803032306303,4320.509358949705 4670.712862362554,4310.998793786753 4662.622692418804,4316.876646309676 4665.712862362552,4326.387211472628 4655.712862362552,4326.387211472627 4652.622692418804,4316.876646309675 4660.712862362553,4322.754498832601 4657.622692418802,4332.265063995553 4647.622692418802,4332.265063995552 4657.622692418802,4332.265063995553 4660.712862362553,4322.754498832601 4652.622692418803,4328.632351355525 4660.712862362553,4322.754498832601" stroke="black" stroke-linecap="round" stroke-width="1" /><polyline clip-path="url(#border_clip)" fill="none" points="4660.712862362553,4322.754498832601 4670.712862362553,4322.754498832603 4680.712862362553,4322.7544988326035 4688.803032306303,4316.876646309679 4685.712862362553,4326.387211472631 4695.712862362553,4326.387211472632 4703.803032306302,4332.265063995557 4706.893202250052,4322.754498832606 4698.803032306302,4328.63235135553 4708.803032306302,4328.632351355531 4711.893202250053,4319.12178619258 4714.983372193801,4328.632351355532 4724.983372193801,4328.632351355533 4728.073542137552,4319.121786192582 4736.163712081302,4313.243933669657 4728.073542137552,4319.121786192582 4719.983372193802,4324.999638715505 4711.893202250053,4319.12178619258 4701.893202250053,4319.121786192579 4693.803032306304,4313.243933669653 4703.803032306304,4313.243933669654 4700.712862362553,4322.754498832605 4708.803032306302,4328.632351355531 4718.803032306302,4328.632351355532 4715.712862362554,4319.12178619258 4707.622692418805,4313.243933669654 4697.622692418805,4313.243933669653 4705.712862362554,4319.121786192579 4697.622692418804,4324.999638715503 4705.712862362554,4319.121786192579 4695.712862362554,4319.121786192578 4685.712862362554,4319.121786192577 4677.622692418805,4313.243933669652 4680.712862362555,4303.7333685067 4670.712862362555,4303.733368506699 4678.803032306305,4297.855515983775 4686.893202250056,4291.9776634608515 4683.803032306305,4301.488228623803 4686.893202250056,4291.9776634608515 4683.803032306305,4301.488228623803 4675.712862362556,4295.610376100877 4672.622692418805,4305.120941263828 4664.532522475057,4299.243088740903" stroke="black" stroke-linecap="round" stroke-width="1" /><polyline clip-path="url(#border_clip)" fill="none" points="4664.532522475057,4299.243088740903 4672.622692418807,4293.365236217978 4680.712862362557,4287.487383695055 4670.712862362557,4287.487383695054 4662.622692418808,4281.609531172128 4652.622692418808,4281.609531172127 4649.532522475059,4272.098966009175 4646.4423525313105,4262.5884008462235 4638.3521825875605,4268.466253369147 4641.442352531309,4277.976818532099 4631.442352531309,4277.976818532098 4628.3521825875605,4268.466253369146 4636.442352531309,4274.344105892072 4633.352182587559,4283.854671055023 4623.352182587559,4283.854671055022 4633.352182587559,4283.854671055023 4636.442352531309,4274.344105892072 4628.352182587559,4280.221958414995 4636.442352531309,4274.344105892072 4646.44235253131,4274.344105892073 4656.44235253131,4274.3441058920735 4664.5325224750595,4268.46625336915 4661.442352531309,4277.976818532101 4671.442352531309,4277.976818532102 4679.532522475058,4283.854671055028 4682.622692418809,4274.344105892076 4674.532522475059,4280.221958415001 4684.532522475059,4280.221958415002 4687.622692418809,4270.71139325205 4690.712862362558,4280.2219584150025 4700.712862362558,4280.221958415003 4703.8030323063085,4270.7113932520515 4711.8932022500585,4264.833540729128 4703.8030323063085,4270.7113932520515 4695.712862362558,4276.589245774976 4687.622692418809,4270.71139325205 4677.622692418809,4270.711393252049 4669.5325224750595,4264.833540729123 4679.53252247506,4264.833540729124 4676.44235253131,4274.344105892076 4684.532522475059,4280.221958415002 4694.532522475059,4280.2219584150025 4691.4423525313105,4270.711393252051" stroke="black" stroke-linecap="round" stroke-width="1" /><polyline clip-path="url(#border_clip)" fill="none" points="4691.4423525313105,4270.711393252051 4683.352182587561,4264.833540729125 4673.352182587561,4264.833540729123 4681.4423525313105,4270.71139325205 4673.35218258756,4276.589245774973 4681.4423525313105,4270.71139325205 4671.44235253131,4270.711393252048 4661.44235253131,4270.711393252047 4653.3521825875605,4264.8335407291215 4656.442352531311,4255.3229755661705 4646.442352531311,4255.322975566169 4654.532522475061,4249.445123043245 4662.622692418811,4243.5672705203215 4659.532522475061,4253.0778356832725 4662.622692418811,4243.5672705203215 4659.532522475061,4253.0778356832725 4651.442352531312,4247.199983160347 4648.352182587561,4256.710548323298 4640.262012643812,4250.832695800373 4648.352182587563,4244.954843277449 4656.442352531313,4239.076990754525 4646.442352531313,4239.076990754524 4638.352182587564,4233.199138231598 4628.352182587564,4233.199138231596 4625.262012643815,4223.6885730686445 4622.171842700067,4214.1780079056925 4614.081672756317,4220.055860428616 4617.171842700065,4229.566425591569 4607.171842700065,4229.566425591567 4604.081672756316,4220.055860428615 4612.171842700065,4225.933712951542 4609.081672756315,4235.444278114493 4599.081672756314,4235.444278114492 4609.081672756315,4235.444278114493 4612.171842700065,4225.933712951542 4604.081672756315,4231.811565474465 4612.171842700065,4225.933712951542 4622.171842700065,4225.9337129515425 4632.171842700066,4225.933712951543 4640.262012643816,4220.05586042862 4637.171842700065,4229.566425591571 4647.171842700065,4229.566425591572 4655.262012643814,4235.444278114498" stroke="black" stroke-linecap="round" stroke-width="1" /><polyline clip-path="url(#border_clip)" fill="none" points="4655.262012643814,4235.444278114498 4658.352182587565,4225.933712951546 4650.262012643815,4231.811565474471 4660.262012643815,4231.8115654744715 4663.352182587566,4222.3010003115205 4666.442352531314,4231.811565474472 4676.442352531314,4231.811565474473 4679.532522475065,4222.301000311522 4687.622692418815,4216.423147788598 4679.532522475065,4222.301000311522 4671.442352531314,4228.178852834446 4663.352182587566,4222.3010003115205 4653.352182587565,4222.301000311519 4645.262012643817,4216.423147788593 4655.262012643817,4216.423147788594 4652.171842700066,4225.933712951546 4660.262012643815,4231.8115654744715 4670.262012643815,4231.811565474472 4667.171842700067,4222.3010003115205 4659.081672756318,4216.423147788595 4649.081672756318,4216.423147788593 4657.171842700067,4222.30100031152 4649.081672756316,4228.178852834443 4657.171842700067,4222.30100031152 4647.171842700066,4222.301000311519 4637.171842700066,4222.301000311517 4629.081672756317,4216.423147788591 4632.171842700068,4206.91258262564 4622.171842700068,4206.912582625639 4630.262012643818,4201.034730102715 4638.352182587569,4195.156877579791 4635.262012643818,4204.667442742742 4638.352182587569,4195.156877579791 4635.262012643818,4204.667442742742 4627.171842700069,4198.789590219817 4624.081672756318,4208.300155382768 4615.991502812569,4202.422302859843 4624.08167275632,4196.544450336918 4632.17184270007,4190.6665978139945 4622.17184270007,4190.666597813994 4614.081672756321,4184.788745291067 4604.081672756321,4184.788745291066 4600.991502812572,4175.278180128114" stroke="black" stroke-linecap="round" stroke-width="1" /><polyline clip-path="url(#border_clip)" fill="none" points="4600.991502812572,4175.278180128114 4597.901332868823,4165.7676149651625 4589.811162925073,4171.645467488086 4592.901332868822,4181.156032651038 4582.901332868822,4181.156032651037 4579.811162925073,4171.645467488085 4587.9013328688225,4177.523320011011 4584.811162925072,4187.0338851739625 4574.811162925072,4187.033885173961 4584.811162925072,4187.0338851739625 4587.9013328688225,4177.523320011011 4579.811162925072,4183.401172533935 4587.9013328688225,4177.523320011011 4597.9013328688225,4177.523320011012 4607.9013328688225,4177.523320011013 4615.991502812572,4171.64546748809 4612.9013328688225,4181.156032651041 4622.9013328688225,4181.156032651042 4630.9915028125715,4187.033885173967 4634.0816727563215,4177.523320011016 4625.9915028125715,4183.40117253394 4635.9915028125715,4183.4011725339415 4639.081672756322,4173.8906073709895 4642.171842700071,4183.401172533942 4652.171842700071,4183.401172533943 4655.262012643821,4173.890607370991 4663.352182587572,4168.012754848068 4655.262012643821,4173.890607370991 4647.1718427000715,4179.768459893916 4639.081672756322,4173.8906073709895 4629.081672756322,4173.890607370989 4620.991502812573,4168.012754848063 4630.991502812573,4168.012754848064 4627.9013328688225,4177.523320011015 4635.9915028125715,4183.4011725339415 4645.9915028125715,4183.401172533942 4642.901332868823,4173.89060737099 4634.811162925074,4168.012754848065 4624.811162925074,4168.012754848063 4632.901332868823,4173.8906073709895 4624.8111629250725,4179.768459893913 4632.901332868823,4173.8906073709895 4622.901332868823,4173.890607370988" stroke="black" stroke-linecap="round" stroke-width="1" /><polyline clip-path="url(#border_clip)" fill="none" points="4622.901332868823,4173.890607370988 4612.901332868823,4173.890607370987 4604.811162925074,4168.012754848061 4607.901332868825,4158.502189685109 4597.901332868824,4158.5021896851085 4605.991502812575,4152.624337162184 4614.081672756325,4146.74648463926 4610.991502812574,4156.257049802212 4614.081672756325,4146.74648463926 4610.991502812574,4156.257049802212 4602.901332868826,4150.379197279286 4599.811162925075,4159.889762442237 4591.720992981326,4154.011909919312 4599.811162925076,4148.134057396388 4607.901332868827,4142.2562048734635 4597.901332868827,4142.256204873463 4589.811162925078,4136.378352350537 4579.811162925078,4136.378352350535 4576.720992981329,4126.867787187583 4573.630823037581,4117.3572220246315 4565.540653093831,4123.235074547555 4568.630823037579,4132.745639710507 4558.630823037579,4132.745639710506 4555.540653093831,4123.235074547554 4563.630823037579,4129.1129270704805 4560.540653093829,4138.6234922334315 4550.540653093828,4138.62349223343 4560.540653093829,4138.6234922334315 4563.630823037579,4129.1129270704805 4555.540653093829,4134.990779593404 4563.630823037579,4129.1129270704805 4573.63082303758,4129.112927070481 4583.63082303758,4129.112927070482 4591.72099298133,4123.235074547559 4588.630823037579,4132.74563971051 4598.63082303758,4132.745639710512 4606.720992981328,4138.623492233437 4609.811162925079,4129.112927070486 4601.720992981329,4134.99077959341 4611.720992981329,4134.9907795934105 4614.81116292508,4125.4802144304595 4617.901332868828,4134.990779593411 4627.901332868828,4134.990779593413" stroke="black" stroke-linecap="round" stroke-width="1" /><polyline clip-path="url(#border_clip)" fill="none" points="4627.901332868828,4134.990779593413 4630.991502812579,4125.480214430461 4639.08167275633,4119.602361907538 4630.991502812579,4125.480214430461 4622.901332868829,4131.358066953386 4614.81116292508,4125.4802144304595 4604.81116292508,4125.480214430459 4596.720992981331,4119.602361907532 4606.720992981331,4119.602361907534 4603.63082303758,4129.112927070485 4611.720992981329,4134.9907795934105 4621.720992981329,4134.990779593412 4618.630823037581,4125.48021443046 4610.540653093832,4119.602361907534 4600.540653093832,4119.602361907533 4608.630823037581,4125.480214430459 4600.54065309383,4131.358066953382 4608.630823037581,4125.480214430459 4598.630823037581,4125.480214430458 4588.63082303758,4125.480214430456 4580.540653093832,4119.60236190753 4583.630823037582,4110.091796744579 4573.630823037582,4110.091796744578 4581.7209929813325,4104.213944221654 4589.8111629250825,4098.33609169873 4586.720992981332,4107.846656861681 4589.8111629250825,4098.33609169873 4586.720992981332,4107.846656861681 4578.6308230375835,4101.968804338756 4575.540653093833,4111.479369501707 4567.4504831500835,4105.601516978781 4575.5406530938335,4099.723664455857 4583.630823037584,4093.8458119329334 4573.630823037584,4093.845811932932 4565.540653093835,4087.967959410006 4555.540653093835,4087.967959410005 4552.450483150087,4078.4573942470524 4549.360313206338,4068.9468290841005 4541.270143262588,4074.824681607024 4544.360313206336,4084.3352467699765 4534.360313206336,4084.335246769975 4531.270143262588,4074.824681607023 4539.360313206336,4080.7025341299486" stroke="black" stroke-linecap="round" stroke-width="1" /><polyline clip-path="url(#border_clip)" fill="none" points="4539.360313206336,4080.7025341299486 4536.270143262586,4090.2130992929 4526.270143262585,4090.2130992928987 4536.270143262586,4090.2130992929 4539.360313206337,4080.7025341299486 4531.270143262586,4086.5803866528727 4539.360313206337,4080.7025341299486 4549.360313206337,4080.7025341299504 4559.360313206337,4080.7025341299513 4567.450483150087,4074.8246816070277 4564.360313206337,4084.335246769979 4574.360313206337,4084.3352467699806 4582.450483150086,4090.2130992929065 4585.540653093836,4080.702534129955 4577.450483150086,4086.5803866528786 4587.450483150086,4086.5803866528804 4590.540653093837,4077.069821489929 4593.630823037585,4086.580386652881 4603.630823037586,4086.580386652882 4606.720992981336,4077.069821489931 4614.811162925087,4071.191968967007 4606.720992981336,4077.069821489931 4598.630823037586,4082.947674012855 4590.540653093837,4077.0698214899285 4580.540653093837,4077.0698214899276 4572.450483150088,4071.1919689670012 4582.450483150089,4071.1919689670026 4579.360313206338,4080.702534129954 4587.450483150086,4086.58038665288 4597.450483150087,4086.5803866528813 4594.360313206338,4077.0698214899294 4586.27014326259,4071.191968967003 4576.270143262589,4071.191968967002 4584.360313206338,4077.069821489928 4576.270143262588,4082.9476740128516 4584.360313206338,4077.069821489928 4574.360313206338,4077.0698214899267 4564.360313206338,4077.0698214899253 4556.270143262589,4071.1919689669994 4559.36031320634,4061.681403804048 4549.36031320634,4061.6814038040466 4557.45048315009,4055.803551281123 4565.540653093841,4049.9256987581994" stroke="black" stroke-linecap="round" stroke-width="1" /><polyline clip-path="url(#border_clip)" fill="none" points="4565.540653093841,4049.9256987581994 4562.45048315009,4059.4362639211504 4565.540653093841,4049.9256987581994 4562.45048315009,4059.4362639211504 4554.360313206341,4053.5584113982245 4551.27014326259,4063.068976561176 4543.179973318841,4057.1911240382497 4551.270143262592,4051.313271515326 4559.360313206342,4045.4354189924024 4549.360313206342,4045.435418992401 4541.270143262593,4039.557566469475 4531.270143262593,4039.5575664694734 4528.1799733188445,4030.0470013065215 4525.089803375096,4020.5364361435695 4516.9996334313455,4026.414288666493 4520.089803375094,4035.924853829445 4510.089803375094,4035.9248538294437 4506.9996334313455,4026.4142886664918 4515.089803375095,4032.2921411894176 4511.999633431344,4041.8027063523687 4501.999633431344,4041.8027063523677 4511.999633431344,4041.8027063523687 4515.089803375095,4032.2921411894176 4506.999633431344,4038.1699937123412 4515.089803375095,4032.2921411894176" stroke="black" stroke-linecap="round" stroke-width="1" /></svg>