<?xml version="1.0" encoding="utf-8" ?>
<svg baseProfile="full" height="10000px" version="1.1" width="10000px" xmlns="http://www.w3.org/2000/svg" xmlns:ev="http://www.w3.org/2001/xml-events" xmlns:xlink="http://www.w3.org/1999/xlink"><defs><clipPath id="border_clip"><rect height="10000" width="10000" x="0" y="0" /></clipPath></defs><polyline clip-path="url(#border_clip)" fill="none" points="5000.5,5000.5 5010.5,5000.5 5020.5,5000.5 5028.590169943749,4994.6221474770755 5018.590169943749,4994.6221474770755 5010.5,4988.744294954151 5002.409830056251,4994.6221474770755 5010.5,4988.744294954151 5002.409830056251,4982.866442431226 5010.5,4976.988589908301 5002.409830056251,4971.1107373853765 4992.409830056251,4971.1107373853765 4995.5,4980.621302548328 4998.590169943749,4971.1107373853765 4988.590169943749,4971.1107373853765 4985.5,4980.621302548328 4975.5,4980.621302548328 4978.590169943749,4990.1318677112795 4975.5,4980.621302548328 4983.590169943749,4974.743450025403 4980.5,4965.232884862452 4977.409830056251,4955.7223196995 4985.5,4949.844467176576 4995.5,4949.844467176576 4985.5,4949.844467176576 4995.5,4949.844467176576 4998.59016994375,4940.333902013624 4990.5,4934.456049490699 4987.409830056251,4943.966614653651 4977.409830056251,4943.96661465365 4974.319660112501,4934.456049490699 4971.229490168752,4924.945484327747 4974.319660112501,4934.456049490699 4971.229490168752,4943.96661465365 4963.139320225002,4938.088762130726 4955.049150281253,4932.210909607801 4945.049150281253,4932.210909607801 4953.139320225002,4938.088762130726 4956.229490168752,4947.599327293678 4966.229490168752,4947.599327293678 4956.229490168752,4947.599327293678 4959.319660112501,4957.109892456629 4949.319660112501,4957.109892456629" stroke="black" stroke-linecap="round" stroke-width="1" /><polyline clip-path="url(#border_clip)" fill="none" points="4949.319660112501,4957.109892456629 4952.409830056251,4966.6204576195805 4960.5,4972.498310142505 4963.590169943749,4962.987744979554 4955.5,4968.8655975024785 4963.590169943749,4974.743450025403 4971.680339887499,4968.8655975024785 4979.770509831248,4974.743450025403 4982.860679774998,4965.232884862452 4979.770509831248,4974.743450025403 4969.770509831248,4974.743450025403 4966.680339887499,4984.254015188355 4963.590169943749,4993.764580351306 4953.590169943749,4993.764580351306 4945.5,4987.8867278283815 4953.590169943749,4993.764580351306 4945.5,4987.8867278283815 4937.40983005625,4993.764580351306 4940.5,5003.275145514258 4948.590169943749,4997.3972929913325 4956.680339887499,5003.275145514258 4953.590169943749,5012.785710677209 4950.5,5022.296275840161 4953.590169943749,5012.785710677209 4961.680339887499,5006.907858154284 4964.770509831248,5016.418423317236 4967.860679774997,5025.928988480187 4975.950849718747,5031.806841003112 4972.860679774997,5022.296275840161 4975.950849718747,5012.785710677209 4967.860679774998,5006.907858154284 4975.950849718747,5012.785710677209 4979.041019662497,5003.275145514258 4987.131189606246,5009.152998037182 4990.221359549995,4999.642432874231 4987.131189606246,4990.1318677112795 4979.041019662497,4996.009720234204 4989.041019662497,4996.009720234204 4985.950849718747,4986.499155071253 4975.950849718747,4986.499155071253 4972.860679774998,4976.988589908301 4964.770509831248,4982.866442431226 4972.860679774998,4976.988589908301" stroke="black" stroke-linecap="round" stroke-width="1" /><polyline clip-path="url(#border_clip)" fill="none" points="4972.860679774998,4976.988589908301 4980.950849718747,4982.866442431226 4989.041019662497,4976.988589908301 4997.131189606246,4971.1107373853765 5005.221359549996,4976.988589908301 5008.311529493745,4986.499155071253 5005.221359549996,4976.988589908301 5008.311529493745,4986.499155071253 5018.311529493745,4986.499155071253 5021.401699437495,4976.988589908302 5011.401699437495,4976.988589908301 5008.311529493745,4967.47802474535 5016.401699437495,4961.6001722224255 5024.491869381244,4955.722319699501 5016.401699437495,4961.6001722224255 5006.401699437495,4961.6001722224255 5009.491869381244,4952.089607059474 5012.582039324994,4942.5790418965225 5009.491869381245,4933.068476733571 5006.401699437495,4942.579041896522 4998.311529493745,4948.456894419447 5001.401699437495,4957.967459582398 4998.311529493745,4948.456894419447 4990.221359549996,4954.334746942372 4987.131189606247,4944.82418177942 4979.041019662497,4950.702034302344 4975.950849718748,4960.212599465296 4985.950849718748,4960.212599465296 4977.860679774998,4954.334746942372 4974.770509831249,4963.845312105323 4982.860679774998,4969.723164628247 4979.770509831248,4979.233729791199 4989.770509831248,4979.233729791199 4979.770509831248,4979.233729791199 4976.680339887499,4969.723164628247 4966.680339887499,4969.723164628247 4956.680339887499,4969.723164628247 4953.59016994375,4960.212599465295 4956.680339887499,4950.702034302344 4953.59016994375,4960.212599465295 4956.680339887499,4950.702034302344 4948.59016994375,4944.82418177942 4940.5,4950.702034302344" stroke="black" stroke-linecap="round" stroke-width="1" /><polyline clip-path="url(#border_clip)" fill="none" points="4940.5,4950.702034302344 4948.59016994375,4956.579886825269 4945.5,4966.090451988221 4935.5,4966.09045198822 4925.5,4966.09045198822 4935.5,4966.09045198822 4943.59016994375,4971.968304511145 4935.5,4977.84615703407 4927.40983005625,4983.724009556994 4924.319660112501,4993.234574719946 4932.40983005625,4987.356722197021 4942.40983005625,4987.356722197022 4945.5,4977.84615703407 4942.40983005625,4987.356722197022 4952.40983005625,4987.356722197022 4949.319660112501,4996.867287359973 4959.319660112501,4996.867287359973 4967.40983005625,4990.989434837048 4959.319660112501,4985.111582314124 4962.40983005625,4994.6221474770755 4970.5,4988.74429495415 4967.409830056251,4979.233729791199 4975.5,4973.3558772682745 4967.409830056251,4967.478024745349 4975.5,4973.3558772682745 4972.40983005625,4982.866442431226 4980.5,4988.744294954151 4988.590169943749,4994.6221474770755 4985.5,5004.132712640027 4977.40983005625,5010.010565162952 4985.5,5004.132712640027 4977.40983005625,5010.010565162952 4980.499999999999,5019.521130325903 4990.499999999999,5019.521130325903 4987.40983005625,5010.010565162952 4995.5,5004.132712640027 5003.590169943749,5010.010565162952 5011.680339887498,5015.888417685877 5003.590169943749,5010.010565162952 5000.5,5000.5 5010.5,5000.500000000001 5020.5,5000.500000000001 5028.590169943749,4994.622147477076" stroke="black" stroke-linecap="round" stroke-width="1" /><polyline clip-path="url(#border_clip)" fill="none" points="5028.590169943749,4994.622147477076 5018.590169943749,4994.622147477076 5010.5,4988.744294954151 5002.40983005625,4994.6221474770755 5010.5,4988.744294954151 5002.409830056251,4982.8664424312265 5010.5,4976.988589908302 5002.409830056251,4971.1107373853765 4992.409830056251,4971.1107373853765 4995.5,4980.6213025483285 4998.59016994375,4971.1107373853765 4988.59016994375,4971.1107373853765 4985.5,4980.6213025483285 4975.5,4980.621302548328 4978.590169943749,4990.1318677112795 4975.5,4980.621302548328 4983.59016994375,4974.743450025403 4980.5,4965.232884862452 4977.409830056251,4955.7223196995 4985.500000000001,4949.844467176576 4995.500000000001,4949.844467176576 4985.500000000001,4949.844467176576 4995.500000000001,4949.844467176576 4998.59016994375,4940.3339020136245 4990.500000000001,4934.456049490699 4987.409830056251,4943.966614653651 4977.409830056251,4943.96661465365 4974.319660112502,4934.456049490699 4971.229490168753,4924.945484327747 4974.319660112502,4934.456049490699 4971.229490168752,4943.96661465365 4963.139320225003,4938.088762130726 4955.049150281254,4932.2109096078 4945.049150281254,4932.2109096078 4953.139320225003,4938.088762130726 4956.229490168752,4947.599327293677 4966.229490168752,4947.599327293678 4956.229490168752,4947.599327293677 4959.319660112502,4957.109892456629 4949.319660112502,4957.109892456629 4952.409830056251,4966.62045761958 4960.5,4972.498310142505 4963.59016994375,4962.987744979553" stroke="black" stroke-linecap="round" stroke-width="1" /><polyline clip-path="url(#border_clip)" fill="none" points="4963.59016994375,4962.987744979553 4955.5,4968.865597502478 4963.590169943749,4974.743450025403 4971.680339887499,4968.8655975024785 4979.770509831248,4974.743450025403 4982.860679774998,4965.232884862452 4979.770509831248,4974.743450025403 4969.770509831248,4974.743450025403 4966.680339887499,4984.254015188354 4963.590169943749,4993.764580351306 4953.590169943749,4993.764580351306 4945.5,4987.886727828381 4953.590169943749,4993.764580351306 4945.5,4987.886727828381 4937.40983005625,4993.764580351305 4940.499999999999,5003.275145514257 4948.590169943749,4997.3972929913325 4956.680339887498,5003.275145514257 4953.590169943748,5012.785710677209 4950.499999999999,5022.29627584016 4953.590169943748,5012.785710677209 4961.680339887498,5006.907858154284 4964.770509831247,5016.4184233172355 4967.860679774996,5025.928988480187 4975.950849718746,5031.806841003113 4972.860679774997,5022.296275840161 4975.950849718746,5012.785710677209 4967.860679774997,5006.907858154284 4975.950849718746,5012.785710677209 4979.041019662496,5003.275145514258 4987.131189606245,5009.152998037182 4990.221359549995,4999.642432874231 4987.131189606246,4990.1318677112795 4979.041019662496,4996.009720234204 4989.041019662496,4996.009720234205 4985.950849718747,4986.499155071253 4975.950849718747,4986.499155071253 4972.860679774998,4976.988589908301 4964.770509831248,4982.866442431226 4972.860679774998,4976.988589908301 4980.950849718747,4982.866442431226 4989.041019662497,4976.988589908301 4997.131189606246,4971.1107373853765" stroke="black" stroke-linecap="round" stroke-width="1" /><polyline clip-path="url(#border_clip)" fill="none" points="4997.131189606246,4971.1107373853765 5005.221359549996,4976.988589908302 5008.311529493745,4986.499155071254 5005.221359549996,4976.988589908302 5008.311529493745,4986.499155071254 5018.311529493745,4986.499155071254 5021.401699437495,4976.988589908302 5011.401699437495,4976.988589908302 5008.311529493746,4967.47802474535 5016.401699437495,4961.6001722224255 5024.491869381245,4955.722319699501 5016.401699437495,4961.6001722224255 5006.401699437495,4961.6001722224255 5009.491869381245,4952.0896070594745 5012.582039324995,4942.5790418965225 5009.491869381246,4933.068476733571 5006.401699437496,4942.5790418965225 4998.311529493746,4948.456894419447 5001.401699437495,4957.967459582399 4998.311529493746,4948.456894419447 4990.221359549996,4954.334746942372 4987.131189606247,4944.82418177942 4979.041019662498,4950.702034302344 4975.950849718748,4960.212599465296 4985.950849718748,4960.212599465296 4977.860679774999,4954.334746942372 4974.770509831249,4963.845312105323 4982.860679774998,4969.723164628248 4979.770509831248,4979.233729791199 4989.770509831248,4979.233729791199 4979.770509831248,4979.233729791199 4976.680339887499,4969.723164628247 4966.680339887499,4969.723164628247 4956.680339887499,4969.723164628247 4953.59016994375,4960.212599465295 4956.6803398875,4950.702034302343 4953.59016994375,4960.212599465295 4956.6803398875,4950.702034302343 4948.590169943751,4944.824181779419 4940.500000000001,4950.702034302343 4948.59016994375,4956.579886825268 4945.5,4966.09045198822 4935.5,4966.09045198822" stroke="black" stroke-linecap="round" stroke-width="1" /><polyline clip-path="url(#border_clip)" fill="none" points="4935.5,4966.09045198822 4925.5,4966.090451988219 4935.5,4966.09045198822 4943.59016994375,4971.968304511144 4935.5,4977.846157034069 4927.40983005625,4983.724009556993 4924.3196601125,4993.234574719944 4932.40983005625,4987.356722197021 4942.40983005625,4987.356722197021 4945.5,4977.846157034069 4942.40983005625,4987.356722197021 4952.40983005625,4987.356722197021 4949.3196601125,4996.867287359973 4959.3196601125,4996.867287359973 4967.40983005625,4990.989434837048 4959.319660112501,4985.111582314124 4962.40983005625,4994.622147477075 4970.5,4988.74429495415 4967.40983005625,4979.233729791199 4975.5,4973.3558772682745 4967.409830056251,4967.478024745349 4975.5,4973.3558772682745 4972.40983005625,4982.866442431226 4980.5,4988.744294954151 4988.590169943749,4994.6221474770755 4985.499999999999,5004.132712640027 4977.409830056249,5010.010565162952 4985.499999999999,5004.132712640027 4977.409830056249,5010.010565162952 4980.499999999998,5019.521130325903 4990.499999999998,5019.521130325904 4987.409830056249,5010.010565162952 4995.499999999999,5004.132712640027 5003.590169943748,5010.010565162953 5011.680339887498,5015.888417685877 5003.590169943748,5010.010565162953 5000.499999999999,5000.500000000001 5010.499999999999,5000.500000000001 5020.499999999999,5000.500000000002 5028.590169943749,4994.622147477077 5018.590169943749,4994.622147477077 5010.5,4988.744294954152 5002.40983005625,4994.622147477076" stroke="black" stroke-linecap="round" stroke-width="1" /><polyline clip-path="url(#border_clip)" fill="none" points="5002.40983005625,4994.622147477076 5010.5,4988.744294954152 5002.40983005625,4982.8664424312265 5010.5,4976.988589908302 5002.409830056251,4971.110737385377 4992.409830056251,4971.1107373853765 4995.5,4980.6213025483285 4998.59016994375,4971.110737385377 4988.59016994375,4971.1107373853765 4985.5,4980.6213025483285 4975.5,4980.621302548328 4978.590169943749,4990.1318677112795 4975.5,4980.621302548328 4983.59016994375,4974.743450025403 4980.500000000001,4965.232884862452 4977.409830056252,4955.7223196995 4985.500000000001,4949.844467176576 4995.500000000001,4949.844467176576 4985.500000000001,4949.844467176576 4995.500000000001,4949.844467176576 4998.590169943751,4940.3339020136245 4990.500000000002,4934.456049490699 4987.409830056252,4943.966614653651 4977.409830056252,4943.96661465365 4974.319660112503,4934.456049490699 4971.229490168754,4924.945484327747 4974.319660112503,4934.456049490699 4971.229490168753,4943.96661465365 4963.139320225004,4938.088762130725 4955.049150281255,4932.2109096078 4945.049150281255,4932.210909607799 4953.139320225004,4938.088762130725 4956.229490168753,4947.599327293677 4966.229490168753,4947.599327293677 4956.229490168753,4947.599327293677 4959.319660112502,4957.109892456629 4949.319660112502,4957.109892456628 4952.409830056251,4966.62045761958 4960.5,4972.498310142504 4963.59016994375,4962.987744979553 4955.5,4968.865597502478 4963.590169943749,4974.743450025402 4971.680339887499,4968.8655975024785" stroke="black" stroke-linecap="round" stroke-width="1" /><polyline clip-path="url(#border_clip)" fill="none" points="4971.680339887499,4968.8655975024785 4979.770509831248,4974.743450025403 4982.860679774998,4965.232884862452 4979.770509831248,4974.743450025403 4969.770509831248,4974.743450025403 4966.680339887498,4984.254015188354 4963.590169943749,4993.764580351306 4953.590169943749,4993.764580351305 4945.499999999999,4987.886727828381 4953.590169943749,4993.764580351305 4945.499999999999,4987.886727828381 4937.40983005625,4993.764580351304 4940.499999999999,5003.275145514256 4948.590169943748,4997.397292991332 4956.680339887498,5003.275145514257 4953.590169943748,5012.785710677208 4950.499999999998,5022.29627584016 4953.590169943748,5012.785710677208 4961.680339887497,5006.907858154284 4964.770509831246,5016.4184233172355 4967.860679774995,5025.928988480187 4975.950849718745,5031.806841003113 4972.860679774996,5022.296275840161 4975.950849718746,5012.78571067721 4967.860679774996,5006.907858154284 4975.950849718746,5012.78571067721 4979.041019662495,5003.275145514258 4987.131189606245,5009.152998037183 4990.221359549995,4999.642432874231 4987.131189606246,4990.13186771128 4979.041019662496,4996.009720234204 4989.041019662496,4996.009720234205 4985.950849718747,4986.499155071253 4975.950849718747,4986.499155071253 4972.860679774998,4976.988589908301 4964.770509831248,4982.866442431226 4972.860679774998,4976.988589908301 4980.950849718747,4982.8664424312265 4989.041019662497,4976.988589908302 4997.131189606247,4971.110737385377 5005.221359549996,4976.988589908302 5008.311529493745,4986.499155071254 5005.221359549996,4976.988589908302" stroke="black" stroke-linecap="round" stroke-width="1" /><polyline clip-path="url(#border_clip)" fill="none" points="5005.221359549996,4976.988589908302 5008.311529493745,4986.499155071254 5018.311529493745,4986.499155071255 5021.401699437495,4976.988589908303 5011.401699437495,4976.988589908303 5008.311529493746,4967.478024745351 5016.401699437496,4961.600172222426 5024.491869381245,4955.722319699502 5016.401699437496,4961.600172222426 5006.401699437496,4961.600172222426 5009.491869381246,4952.0896070594745 5012.582039324995,4942.579041896523 5009.491869381247,4933.0684767335715 5006.401699437497,4942.5790418965225 4998.311529493747,4948.456894419447 5001.401699437496,4957.967459582399 4998.311529493747,4948.456894419447 4990.221359549997,4954.334746942372 4987.131189606248,4944.82418177942 4979.041019662498,4950.702034302344 4975.950849718748,4960.212599465296 4985.950849718748,4960.212599465296 4977.860679774999,4954.334746942371 4974.770509831249,4963.845312105323 4982.860679774998,4969.723164628248 4979.770509831248,4979.233729791199 4989.770509831248,4979.2337297912 4979.770509831248,4979.233729791199 4976.680339887499,4969.723164628247 4966.680339887499,4969.723164628247 4956.680339887499,4969.723164628246 4953.59016994375,4960.212599465294 4956.6803398875,4950.702034302343 4953.59016994375,4960.212599465294 4956.6803398875,4950.702034302343 4948.590169943751,4944.824181779418 4940.500000000001,4950.702034302342 4948.59016994375,4956.579886825268 4945.5,4966.090451988219 4935.5,4966.090451988219 4925.5,4966.090451988218 4935.5,4966.090451988219 4943.59016994375,4971.968304511143" stroke="black" stroke-linecap="round" stroke-width="1" /><polyline clip-path="url(#border_clip)" fill="none" points="4943.59016994375,4971.968304511143 4935.5,4977.846157034068 4927.40983005625,4983.724009556992 4924.3196601125,4993.234574719943 4932.40983005625,4987.35672219702 4942.40983005625,4987.35672219702 4945.5,4977.846157034069 4942.40983005625,4987.35672219702 4952.40983005625,4987.356722197021 4949.3196601125,4996.867287359972 4959.3196601125,4996.867287359973 4967.40983005625,4990.989434837048 4959.319660112501,4985.111582314123 4962.409830056249,4994.622147477075 4970.499999999999,4988.74429495415 4967.40983005625,4979.233729791198 4975.5,4973.3558772682745 4967.409830056251,4967.478024745349 4975.5,4973.3558772682745 4972.40983005625,4982.866442431226 4980.499999999999,4988.744294954151 4988.590169943748,4994.622147477076 4985.499999999998,5004.132712640027 4977.409830056249,5010.010565162952 4985.499999999998,5004.132712640027 4977.409830056249,5010.010565162952 4980.499999999998,5019.521130325904 4990.499999999998,5019.521130325904 4987.409830056249,5010.010565162952 4995.499999999999,5004.132712640028 5003.590169943748,5010.010565162953 5011.680339887497,5015.888417685878 5003.590169943748,5010.010565162953 5000.499999999999,5000.500000000002 5010.499999999999,5000.500000000002 5020.499999999999,5000.500000000003 5028.590169943749,4994.622147477078 5018.590169943749,4994.622147477077 5010.5,4988.744294954153 5002.40983005625,4994.622147477076 5010.5,4988.744294954153 5002.40983005625,4982.866442431227 5010.5,4976.988589908303" stroke="black" stroke-linecap="round" stroke-width="1" /><polyline clip-path="url(#border_clip)" fill="none" points="5010.5,4976.988589908303 5002.409830056251,4971.110737385377 4992.409830056251,4971.110737385377 4995.5,4980.6213025483285 4998.59016994375,4971.110737385377 4988.59016994375,4971.1107373853765 4985.5,4980.6213025483285 4975.5,4980.621302548328 4978.590169943749,4990.1318677112795 4975.5,4980.621302548328 4983.59016994375,4974.743450025403 4980.500000000001,4965.232884862452 4977.409830056252,4955.7223196995 4985.500000000002,4949.844467176576 4995.500000000002,4949.8444671765765 4985.500000000002,4949.844467176576 4995.500000000002,4949.8444671765765 4998.590169943752,4940.3339020136245 4990.500000000003,4934.4560494907 4987.409830056253,4943.966614653651 4977.409830056253,4943.96661465365 4974.319660112504,4934.456049490698 4971.229490168755,4924.945484327747 4974.319660112504,4934.456049490698 4971.229490168754,4943.96661465365 4963.139320225005,4938.088762130725 4955.049150281255,4932.210909607799 4945.049150281255,4932.210909607799 4953.139320225005,4938.088762130724 4956.229490168753,4947.599327293676 4966.229490168753,4947.599327293677 4956.229490168753,4947.599327293676 4959.319660112502,4957.109892456628 4949.319660112502,4957.109892456627 4952.409830056251,4966.620457619579 4960.5,4972.498310142504 4963.59016994375,4962.987744979553 4955.5,4968.865597502477 4963.590169943749,4974.743450025402 4971.680339887499,4968.865597502478 4979.770509831248,4974.743450025403 4982.860679774999,4965.232884862452 4979.770509831248,4974.743450025403" stroke="black" stroke-linecap="round" stroke-width="1" /><polyline clip-path="url(#border_clip)" fill="none" points="4979.770509831248,4974.743450025403 4969.770509831248,4974.743450025403 4966.680339887498,4984.254015188354 4963.590169943748,4993.764580351305 4953.590169943748,4993.764580351305 4945.499999999999,4987.88672782838 4953.590169943748,4993.764580351305 4945.499999999999,4987.88672782838 4937.409830056249,4993.764580351304 4940.499999999998,5003.275145514256 4948.590169943748,4997.397292991332 4956.680339887497,5003.275145514257 4953.590169943747,5012.785710677208 4950.499999999997,5022.296275840159 4953.590169943747,5012.785710677208 4961.680339887497,5006.9078581542835 4964.770509831246,5016.4184233172355 4967.860679774994,5025.928988480187 4975.950849718744,5031.806841003113 4972.860679774995,5022.296275840161 4975.950849718745,5012.78571067721 4967.860679774996,5006.907858154284 4975.950849718745,5012.78571067721 4979.041019662495,5003.275145514258 4987.131189606244,5009.152998037183 4990.221359549994,4999.642432874232 4987.131189606245,4990.13186771128 4979.041019662495,4996.009720234204 4989.041019662496,4996.009720234205 4985.950849718747,4986.499155071253 4975.950849718747,4986.499155071253 4972.860679774998,4976.988589908301 4964.770509831248,4982.866442431226 4972.860679774998,4976.988589908301 4980.950849718747,4982.8664424312265 4989.041019662497,4976.988589908302 4997.131189606247,4971.110737385377 5005.221359549996,4976.988589908303 5008.311529493745,4986.499155071255 5005.221359549996,4976.988589908303 5008.311529493745,4986.499155071255 5018.311529493745,4986.499155071256 5021.401699437495,4976.988589908304" stroke="black" stroke-linecap="round" stroke-width="1" /><polyline clip-path="url(#border_clip)" fill="none" points="5021.401699437495,4976.988589908304 5011.401699437495,4976.988589908304 5008.311529493746,4967.478024745352 5016.401699437496,4961.600172222427 5024.491869381246,4955.722319699503 5016.401699437496,4961.600172222427 5006.401699437496,4961.600172222426 5009.491869381246,4952.089607059475 5012.582039324996,4942.579041896523 5009.491869381247,4933.068476733572 5006.401699437497,4942.579041896523 4998.311529493747,4948.456894419448 5001.401699437496,4957.9674595824 4998.311529493747,4948.456894419448 4990.221359549997,4954.334746942372 4987.131189606249,4944.8241817794205 4979.041019662499,4950.702034302344 4975.950849718749,4960.212599465296 4985.950849718749,4960.212599465296 4977.860679775,4954.334746942371 4974.770509831249,4963.845312105323 4982.860679774998,4969.723164628248 4979.770509831248,4979.233729791199 4989.770509831248,4979.2337297912 4979.770509831248,4979.233729791199 4976.680339887499,4969.723164628247 4966.680339887499,4969.723164628247 4956.680339887499,4969.723164628246 4953.590169943751,4960.212599465294 4956.680339887501,4950.702034302343 4953.590169943751,4960.212599465294 4956.680339887501,4950.702034302343 4948.590169943752,4944.824181779418 4940.500000000002,4950.702034302341 4948.590169943751,4956.579886825267 4945.500000000001,4966.090451988219 4935.5,4966.090451988218 4925.5,4966.090451988217 4935.5,4966.090451988218 4943.59016994375,4971.968304511143 4935.5,4977.846157034067 4927.40983005625,4983.724009556991 4924.319660112499,4993.234574719942" stroke="black" stroke-linecap="round" stroke-width="1" /><polyline clip-path="url(#border_clip)" fill="none" points="4924.319660112499,4993.234574719942 4932.409830056249,4987.356722197019 4942.409830056249,4987.35672219702 4945.5,4977.846157034068 4942.409830056249,4987.35672219702 4952.40983005625,4987.35672219702 4949.319660112499,4996.867287359972 4959.319660112499,4996.867287359973 4967.409830056249,4990.989434837048 4959.3196601125,4985.111582314123 4962.409830056249,4994.622147477075 4970.499999999999,4988.74429495415 4967.40983005625,4979.233729791198 4975.5,4973.3558772682745 4967.409830056251,4967.478024745349 4975.5,4973.3558772682745 4972.40983005625,4982.866442431226 4980.499999999999,4988.744294954151 4988.590169943748,4994.622147477076 4985.499999999998,5004.132712640027 4977.409830056248,5010.010565162952 4985.499999999998,5004.132712640027 4977.409830056248,5010.010565162952 4980.499999999997,5019.521130325904 4990.499999999997,5019.521130325905 4987.409830056248,5010.010565162953 4995.499999999998,5004.132712640028 5003.590169943747,5010.010565162954 5011.680339887496,5015.888417685879 5003.590169943747,5010.010565162954 5000.499999999998,5000.500000000002 5010.499999999998,5000.500000000003 5020.499999999998,5000.500000000004 5028.590169943749,4994.622147477079 5018.590169943748,4994.622147477078 5010.499999999999,4988.744294954153 5002.409830056249,4994.622147477077 5010.499999999999,4988.744294954153 5002.40983005625,4982.866442431227 5010.5,4976.988589908304 5002.409830056251,4971.110737385378 4992.409830056251,4971.110737385377 4995.5,4980.621302548329" stroke="black" stroke-linecap="round" stroke-width="1" /><polyline clip-path="url(#border_clip)" fill="none" points="4995.5,4980.621302548329 4998.59016994375,4971.110737385378 4988.59016994375,4971.110737385377 4985.5,4980.6213025483285 4975.5,4980.621302548328 4978.590169943748,4990.1318677112795 4975.5,4980.621302548328 4983.59016994375,4974.743450025404 4980.500000000001,4965.232884862452 4977.409830056252,4955.7223196995 4985.500000000002,4949.844467176576 4995.500000000002,4949.8444671765765 4985.500000000002,4949.844467176576 4995.500000000002,4949.8444671765765 4998.590169943753,4940.333902013625 4990.500000000004,4934.4560494907 4987.409830056253,4943.966614653651 4977.409830056253,4943.96661465365 4974.319660112505,4934.456049490698 4971.229490168756,4924.945484327746 4974.319660112505,4934.456049490698 4971.229490168754,4943.96661465365 4963.139320225005,4938.088762130725 4955.049150281256,4932.210909607799 4945.049150281256,4932.210909607798 4953.139320225005,4938.088762130724 4956.229490168754,4947.599327293676 4966.229490168754,4947.599327293677 4956.229490168754,4947.599327293676 4959.319660112503,4957.109892456628 4949.319660112503,4957.109892456627 4952.409830056251,4966.620457619579 4960.5,4972.498310142504 4963.590169943751,4962.987744979552 4955.5,4968.865597502477 4963.590169943749,4974.743450025402 4971.6803398875,4968.865597502478 4979.770509831249,4974.743450025403 4982.860679774999,4965.232884862452 4979.770509831249,4974.743450025403 4969.770509831248,4974.743450025402 4966.680339887498,4984.254015188354 4963.590169943748,4993.764580351305" stroke="black" stroke-linecap="round" stroke-width="1" /><polyline clip-path="url(#border_clip)" fill="none" points="4963.590169943748,4993.764580351305 4953.590169943748,4993.764580351304 4945.499999999999,4987.886727828379 4953.590169943748,4993.764580351304 4945.499999999999,4987.886727828379 4937.409830056249,4993.764580351303 4940.499999999997,5003.275145514255 4948.590169943747,4997.397292991331 4956.680339887496,5003.275145514256 4953.590169943746,5012.785710677208 4950.499999999996,5022.296275840159 4953.590169943746,5012.785710677208 4961.680339887496,5006.9078581542835 4964.770509831245,5016.4184233172355 4967.8606797749935,5025.928988480187 4975.950849718743,5031.806841003113 4972.860679774994,5022.296275840161 4975.950849718744,5012.78571067721 4967.860679774995,5006.907858154284 4975.950849718744,5012.78571067721 4979.041019662494,5003.275145514258 4987.131189606243,5009.152998037183 4990.221359549994,4999.642432874232 4987.131189606245,4990.13186771128 4979.041019662495,4996.009720234205 4989.041019662495,4996.009720234205 4985.950849718747,4986.499155071254 4975.950849718746,4986.499155071253 4972.860679774998,4976.988589908301 4964.770509831248,4982.866442431225 4972.860679774998,4976.988589908301 4980.950849718747,4982.8664424312265 4989.041019662497,4976.988589908302 4997.131189606247,4971.110737385378 5005.221359549996,4976.988589908304 5008.311529493745,4986.499155071256 5005.221359549996,4976.988589908304 5008.311529493745,4986.499155071256 5018.311529493745,4986.499155071257 5021.401699437495,4976.988589908305 5011.401699437495,4976.988589908304 5008.311529493746,4967.478024745352 5016.401699437496,4961.600172222428" stroke="black" stroke-linecap="round" stroke-width="1" /><polyline clip-path="url(#border_clip)" fill="none" points="5016.401699437496,4961.600172222428 5024.491869381246,4955.722319699504 5016.401699437496,4961.600172222428 5006.401699437496,4961.600172222427 5009.491869381247,4952.089607059475 5012.582039324997,4942.579041896524 5009.491869381248,4933.068476733572 5006.401699437498,4942.579041896524 4998.311529493748,4948.456894419448 5001.401699437497,4957.9674595824 4998.311529493748,4948.456894419448 4990.221359549998,4954.3347469423725 4987.131189606249,4944.8241817794205 4979.041019662499,4950.702034302344 4975.950849718749,4960.212599465296 4985.950849718749,4960.212599465297 4977.860679775,4954.334746942371 4974.77050983125,4963.845312105323 4982.860679774999,4969.723164628248 4979.770509831248,4979.233729791199 4989.770509831248,4979.2337297912 4979.770509831248,4979.233729791199 4976.6803398875,4969.723164628247 4966.680339887499,4969.723164628246 4956.680339887499,4969.723164628245 4953.590169943751,4960.212599465293 4956.680339887501,4950.702034302342 4953.590169943751,4960.212599465293 4956.680339887501,4950.702034302342 4948.590169943752,4944.824181779417 4940.500000000002,4950.7020343023405 4948.590169943751,4956.579886825267 4945.500000000001,4966.090451988218 4935.500000000001,4966.090451988217 4925.500000000001,4966.090451988216 4935.500000000001,4966.090451988217 4943.59016994375,4971.968304511142 4935.499999999999,4977.846157034067 4927.409830056249,4983.7240095569905 4924.319660112499,4993.2345747199415 4932.409830056249,4987.356722197018 4942.409830056249,4987.356722197019 4945.5,4977.846157034068" stroke="black" stroke-linecap="round" stroke-width="1" /><polyline clip-path="url(#border_clip)" fill="none" points="4945.5,4977.846157034068 4942.409830056249,4987.356722197019 4952.409830056249,4987.35672219702 4949.319660112499,4996.867287359971 4959.319660112499,4996.867287359972 4967.409830056249,4990.989434837048 4959.3196601125,4985.111582314123 4962.409830056249,4994.622147477075 4970.499999999999,4988.74429495415 4967.40983005625,4979.233729791198 4975.5,4973.3558772682745 4967.409830056251,4967.478024745349 4975.5,4973.3558772682745 4972.40983005625,4982.866442431226 4980.499999999999,4988.744294954151 4988.590169943748,4994.622147477076 4985.499999999997,5004.132712640028 4977.409830056247,5010.010565162952 4985.499999999997,5004.132712640028 4977.409830056247,5010.010565162952 4980.499999999996,5019.521130325904 4990.499999999996,5019.521130325905 4987.409830056247,5010.010565162953 4995.499999999997,5004.132712640029 5003.590169943746,5010.010565162955 5011.680339887495,5015.88841768588 5003.590169943746,5010.010565162955 5000.499999999998,5000.500000000003 5010.499999999998,5000.500000000004 5020.499999999998,5000.500000000005 5028.590169943748,4994.62214747708 5018.590169943748,4994.622147477079 5010.499999999999,4988.744294954154 5002.409830056249,4994.622147477078 5010.499999999999,4988.744294954154 5002.40983005625,4982.866442431228 5010.5,4976.988589908305 5002.409830056251,4971.110737385378 4992.409830056251,4971.110737385377 4995.5,4980.621302548329 4998.59016994375,4971.110737385378 4988.59016994375,4971.110737385377 4985.5,4980.6213025483285" stroke="black" stroke-linecap="round" stroke-width="1" /><polyline clip-path="url(#border_clip)" fill="none" points="4985.5,4980.6213025483285 4975.5,4980.621302548328 4978.590169943748,4990.1318677112795 4975.5,4980.621302548328 4983.59016994375,4974.743450025404 4980.500000000001,4965.232884862452 4977.409830056253,4955.7223196995 4985.500000000003,4949.844467176576 4995.500000000003,4949.8444671765765 4985.500000000003,4949.844467176576 4995.500000000003,4949.8444671765765 4998.590169943754,4940.333902013625 4990.500000000005,4934.4560494907 4987.409830056254,4943.966614653651 4977.409830056254,4943.96661465365 4974.3196601125055,4934.456049490698 4971.2294901687565,4924.945484327746 4974.3196601125055,4934.456049490698 4971.229490168755,4943.96661465365 4963.139320225006,4938.088762130724 4955.0491502812565,4932.210909607798 4945.0491502812565,4932.2109096077975 4953.139320225006,4938.088762130723 4956.229490168754,4947.599327293675 4966.229490168755,4947.599327293676 4956.229490168754,4947.599327293675 4959.319660112503,4957.109892456627 4949.319660112503,4957.109892456626 4952.409830056251,4966.620457619578 4960.5,4972.498310142503 4963.590169943751,4962.987744979552 4955.500000000001,4968.865597502477 4963.590169943749,4974.743450025402 4971.6803398875,4968.865597502478 4979.770509831249,4974.743450025403 4982.860679774999,4965.232884862452 4979.770509831249,4974.743450025403 4969.770509831248,4974.743450025402 4966.680339887498,4984.254015188354 4963.590169943747,4993.764580351305 4953.590169943747,4993.764580351304 4945.499999999998,4987.886727828379 4953.590169943747,4993.764580351304" stroke="black" stroke-linecap="round" stroke-width="1" /><polyline clip-path="url(#border_clip)" fill="none" points="4953.590169943747,4993.764580351304 4945.499999999998,4987.886727828379 4937.409830056248,4993.764580351302 4940.499999999997,5003.275145514254 4948.590169943747,4997.397292991331 4956.680339887496,5003.275145514256 4953.590169943745,5012.785710677207 4950.499999999995,5022.296275840159 4953.590169943745,5012.785710677207 4961.680339887495,5006.9078581542835 4964.770509831244,5016.4184233172355 4967.860679774993,5025.928988480187 4975.950849718742,5031.806841003113 4972.8606797749935,5022.296275840161 4975.9508497187435,5012.78571067721 4967.860679774994,5006.907858154284 4975.9508497187435,5012.78571067721 4979.041019662494,5003.275145514258 4987.131189606243,5009.152998037184 4990.221359549993,4999.642432874232 4987.131189606245,4990.13186771128 4979.041019662495,4996.009720234205 4989.041019662495,4996.009720234206 4985.950849718746,4986.499155071254 4975.950849718746,4986.499155071253 4972.860679774998,4976.988589908301 4964.770509831248,4982.866442431225 4972.860679774998,4976.988589908301 4980.950849718747,4982.8664424312265 4989.041019662497,4976.988589908302 4997.131189606247,4971.110737385378 5005.221359549996,4976.988589908304 5008.311529493744,4986.499155071256 5005.221359549996,4976.988589908304 5008.311529493744,4986.499155071256 5018.311529493744,4986.499155071257 5021.401699437495,4976.988589908306 5011.401699437495,4976.988589908305 5008.311529493747,4967.478024745353 5016.401699437497,4961.600172222429 5024.491869381247,4955.722319699505 5016.401699437497,4961.600172222429 5006.401699437497,4961.600172222427" stroke="black" stroke-linecap="round" stroke-width="1" /><polyline clip-path="url(#border_clip)" fill="none" points="5006.401699437497,4961.600172222427 5009.491869381247,4952.089607059476 5012.582039324998,4942.579041896525 5009.491869381249,4933.068476733573 5006.401699437499,4942.579041896524 4998.311529493749,4948.456894419449 5001.401699437497,4957.967459582401 4998.311529493749,4948.456894419449 4990.221359549998,4954.3347469423725 4987.13118960625,4944.8241817794205 4979.0410196625,4950.702034302344 4975.950849718749,4960.212599465296 4985.950849718749,4960.212599465297 4977.860679775,4954.334746942371 4974.77050983125,4963.845312105323 4982.860679774999,4969.723164628248 4979.770509831248,4979.233729791199 4989.770509831248,4979.2337297912 4979.770509831248,4979.233729791199 4976.6803398875,4969.723164628247 4966.6803398875,4969.723164628246 4956.680339887499,4969.723164628245 4953.590169943751,4960.212599465293 4956.680339887502,4950.702034302342 4953.590169943751,4960.212599465293 4956.680339887502,4950.702034302342 4948.590169943753,4944.824181779416 4940.500000000003,4950.7020343023405 4948.590169943751,4956.579886825266 4945.500000000001,4966.090451988217 4935.500000000001,4966.090451988216 4925.500000000001,4966.090451988215 4935.500000000001,4966.090451988216 4943.59016994375,4971.9683045111415 4935.499999999999,4977.846157034066 4927.409830056249,4983.72400955699 4924.319660112498,4993.234574719941 4932.409830056249,4987.356722197017 4942.409830056249,4987.356722197018 4945.499999999999,4977.846157034067 4942.409830056249,4987.356722197018 4952.409830056249,4987.356722197019 4949.319660112498,4996.867287359971" stroke="black" stroke-linecap="round" stroke-width="1" /><polyline clip-path="url(#border_clip)" fill="none" points="4949.319660112498,4996.867287359971 4959.319660112498,4996.867287359972 4967.409830056249,4990.989434837048 4959.3196601125,4985.111582314122 4962.409830056248,4994.622147477074 4970.499999999998,4988.74429495415 4967.40983005625,4979.233729791198 4975.5,4973.3558772682745 4967.409830056252,4967.478024745348 4975.5,4973.3558772682745 4972.40983005625,4982.866442431226 4980.499999999999,4988.744294954151 4988.590169943747,4994.622147477077 4985.499999999997,5004.132712640028 4977.409830056246,5010.010565162952 4985.499999999997,5004.132712640028 4977.409830056246,5010.010565162952 4980.499999999995,5019.521130325904 4990.499999999995,5019.521130325905 4987.409830056247,5010.010565162953 4995.499999999997,5004.132712640029 5003.590169943746,5010.010565162955 5011.680339887495,5015.888417685881 5003.590169943746,5010.010565162955 5000.499999999997,5000.500000000003 5010.499999999998,5000.500000000005 5020.499999999998,5000.5000000000055 5028.590169943748,4994.622147477081 5018.590169943748,4994.62214747708 5010.499999999999,4988.744294954155 5002.409830056249,4994.622147477078 5010.499999999999,4988.744294954155 5002.40983005625,4982.866442431229 5010.5,4976.988589908305 5002.409830056252,4971.110737385379 4992.409830056251,4971.110737385378 4995.5,4980.62130254833 4998.59016994375,4971.110737385378 4988.59016994375,4971.110737385377 4985.5,4980.621302548329 4975.5,4980.621302548328 4978.590169943748,4990.1318677112795 4975.5,4980.621302548328" stroke="black" stroke-linecap="round" stroke-width="1" /><polyline clip-path="url(#border_clip)" fill="none" points="4975.5,4980.621302548328 4983.59016994375,4974.743450025404 4980.500000000002,4965.232884862452 4977.409830056253,4955.7223196995 4985.500000000004,4949.8444671765765 4995.500000000004,4949.844467176577 4985.500000000004,4949.8444671765765 4995.500000000004,4949.844467176577 4998.590169943754,4940.333902013625 4990.5000000000055,4934.4560494907 4987.409830056255,4943.966614653651 4977.409830056255,4943.96661465365 4974.3196601125055,4934.456049490698 4971.229490168757,4924.945484327746 4974.3196601125055,4934.456049490698 4971.229490168756,4943.966614653649 4963.1393202250065,4938.088762130724 4955.049150281257,4932.210909607798 4945.049150281257,4932.210909607797 4953.1393202250065,4938.088762130723 4956.229490168755,4947.599327293675 4966.229490168755,4947.599327293676 4956.229490168755,4947.599327293675 4959.319660112503,4957.109892456627 4949.319660112503,4957.109892456626 4952.409830056251,4966.620457619578 4960.5,4972.498310142503 4963.590169943751,4962.987744979552 4955.500000000001,4968.865597502476 4963.590169943749,4974.743450025401 4971.6803398875,4968.865597502478 4979.770509831249,4974.743450025404 4982.860679774999,4965.232884862452 4979.770509831249,4974.743450025404 4969.770509831248,4974.743450025402 4966.680339887498,4984.254015188354 4963.590169943747,4993.764580351305 4953.590169943747,4993.764580351304 4945.499999999998,4987.886727828378 4953.590169943747,4993.764580351304 4945.499999999998,4987.886727828378 4937.409830056248,4993.764580351301 4940.499999999996,5003.275145514253" stroke="black" stroke-linecap="round" stroke-width="1" /><polyline clip-path="url(#border_clip)" fill="none" points="4940.499999999996,5003.275145514253 4948.590169943746,4997.39729299133 4956.680339887495,5003.275145514256 4953.5901699437445,5012.785710677207 4950.4999999999945,5022.296275840158 4953.5901699437445,5012.785710677207 4961.680339887495,5006.9078581542835 4964.7705098312435,5016.4184233172355 4967.860679774992,5025.928988480187 4975.950849718741,5031.806841003113 4972.860679774993,5022.296275840161 4975.9508497187435,5012.78571067721 4967.860679774994,5006.9078581542835 4975.9508497187435,5012.78571067721 4979.041019662493,5003.275145514259 4987.1311896062425,5009.152998037184 4990.221359549993,4999.642432874233 4987.131189606245,4990.131867711281 4979.041019662494,4996.009720234205 4989.041019662494,4996.009720234206 4985.950849718746,4986.499155071254 4975.950849718746,4986.499155071253 4972.860679774998,4976.988589908301 4964.770509831247,4982.866442431225 4972.860679774998,4976.988589908301 4980.950849718747,4982.8664424312265 4989.041019662497,4976.988589908303 4997.131189606247,4971.110737385379 5005.221359549996,4976.988589908305 5008.311529493744,4986.499155071257 5005.221359549996,4976.988589908305 5008.311529493744,4986.499155071257 5018.311529493744,4986.4991550712575 5021.401699437495,4976.9885899083065 5011.401699437495,4976.988589908306 5008.311529493747,4967.478024745354 5016.401699437497,4961.600172222429 5024.491869381248,4955.7223196995055 5016.401699437497,4961.600172222429 5006.401699437497,4961.600172222428 5009.491869381248,4952.089607059477 5012.582039324999,4942.579041896526 5009.49186938125,4933.068476733573" stroke="black" stroke-linecap="round" stroke-width="1" /><polyline clip-path="url(#border_clip)" fill="none" points="5009.49186938125,4933.068476733573 5006.4016994375,4942.579041896525 4998.311529493749,4948.456894419449 5001.401699437497,4957.967459582401 4998.311529493749,4948.456894419449 4990.221359549999,4954.3347469423725 4987.131189606251,4944.8241817794205 4979.0410196625,4950.702034302344 4975.95084971875,4960.212599465295 4985.95084971875,4960.212599465297 4977.860679775001,4954.334746942371 4974.77050983125,4963.845312105323 4982.860679774999,4969.723164628248 4979.770509831248,4979.233729791199 4989.770509831248,4979.233729791201 4979.770509831248,4979.233729791199 4976.6803398875,4969.723164628247 4966.6803398875,4969.723164628246 4956.6803398875,4969.723164628245 4953.590169943751,4960.212599465292 4956.680339887502,4950.702034302341 4953.590169943751,4960.212599465292 4956.680339887502,4950.702034302341 4948.590169943753,4944.824181779416 4940.500000000003,4950.70203430234 4948.590169943752,4956.579886825265 4945.500000000001,4966.090451988217 4935.500000000001,4966.090451988215 4925.500000000001,4966.090451988214 4935.500000000001,4966.090451988215 4943.59016994375,4971.9683045111415 4935.499999999999,4977.846157034065 4927.409830056249,4983.724009556989 4924.319660112498,4993.23457471994 4932.409830056248,4987.356722197016 4942.409830056249,4987.356722197018 4945.499999999999,4977.846157034066 4942.409830056249,4987.356722197018 4952.409830056249,4987.356722197019 4949.319660112498,4996.86728735997 4959.319660112498,4996.867287359972 4967.409830056248,4990.989434837047 4959.3196601125,4985.111582314122" stroke="black" stroke-linecap="round" stroke-width="1" /><polyline clip-path="url(#border_clip)" fill="none" points="4959.3196601125,4985.111582314122 4962.409830056248,4994.622147477074 4970.499999999998,4988.74429495415 4967.40983005625,4979.233729791198 4975.5,4973.3558772682745 4967.409830056252,4967.478024745348 4975.5,4973.3558772682745 4972.40983005625,4982.866442431226 4980.499999999998,4988.744294954151 4988.590169943747,4994.622147477077 4985.499999999996,5004.132712640028 4977.409830056246,5010.010565162952 4985.499999999996,5004.132712640028 4977.409830056246,5010.010565162952 4980.4999999999945,5019.521130325904 4990.4999999999945,5019.521130325906 4987.409830056246,5010.010565162954 4995.499999999996,5004.13271264003 5003.590169943745,5010.010565162956 5011.6803398874945,5015.888417685882 5003.590169943745,5010.010565162956 5000.499999999997,5000.500000000004 5010.499999999997,5000.500000000005 5020.499999999997,5000.500000000006 5028.590169943748,4994.622147477083 5018.590169943748,4994.622147477081 5010.499999999999,4988.7442949541555 5002.409830056248,4994.622147477079 5010.499999999999,4988.7442949541555 5002.40983005625,4982.866442431229 5010.500000000001,4976.988589908306 5002.409830056252,4971.110737385379 4992.409830056252,4971.110737385378 4995.5,4980.62130254833 4998.590169943751,4971.110737385379 4988.590169943751,4971.110737385377 4985.5,4980.621302548329 4975.499999999999,4980.621302548328 4978.590169943748,4990.1318677112795 4975.499999999999,4980.621302548328 4983.59016994375,4974.743450025404 4980.500000000002,4965.232884862452 4977.409830056254,4955.7223196995" stroke="black" stroke-linecap="round" stroke-width="1" /><polyline clip-path="url(#border_clip)" fill="none" points="4977.409830056254,4955.7223196995 4985.500000000004,4949.8444671765765 4995.500000000004,4949.844467176577 4985.500000000004,4949.8444671765765 4995.500000000004,4949.844467176577 4998.5901699437545,4940.333902013626 4990.500000000006,4934.4560494907 4987.4098300562555,4943.966614653652 4977.409830056255,4943.96661465365 4974.319660112506,4934.456049490698 4971.229490168758,4924.945484327746 4974.319660112506,4934.456049490698 4971.229490168756,4943.966614653649 4963.139320225007,4938.088762130724 4955.049150281258,4932.2109096077975 4945.049150281258,4932.210909607797 4953.139320225007,4938.088762130722 4956.229490168756,4947.599327293674 4966.229490168756,4947.599327293676 4956.229490168756,4947.599327293674 4959.319660112504,4957.109892456627 4949.319660112504,4957.109892456625 4952.409830056252,4966.620457619577 4960.5,4972.498310142503 4963.590169943751,4962.987744979551 4955.500000000001,4968.865597502476 4963.590169943749,4974.743450025401 4971.6803398875,4968.865597502478 4979.770509831249,4974.743450025404 4982.860679775,4965.232884862452 4979.770509831249,4974.743450025404 4969.770509831249,4974.743450025402 4966.680339887498,4984.254015188353 4963.590169943747,4993.764580351305 4953.590169943746,4993.764580351303 4945.499999999998,4987.886727828378 4953.590169943746,4993.764580351303 4945.499999999998,4987.886727828378 4937.409830056247,4993.764580351301 4940.499999999995,5003.275145514253 4948.590169943746,4997.39729299133 4956.6803398874945,5003.275145514255 4953.5901699437445,5012.785710677207" stroke="black" stroke-linecap="round" stroke-width="1" /><polyline clip-path="url(#border_clip)" fill="none" points="4953.5901699437445,5012.785710677207 4950.499999999994,5022.296275840158 4953.5901699437445,5012.785710677207 4961.6803398874945,5006.907858154283 4964.770509831243,5016.4184233172355 4967.860679774991,5025.928988480187 4975.95084971874,5031.806841003113 4972.860679774992,5022.296275840161 4975.950849718743,5012.78571067721 4967.8606797749935,5006.9078581542835 4975.950849718743,5012.78571067721 4979.041019662493,5003.275145514259 4987.131189606242,5009.152998037184 4990.2213595499925,4999.642432874233 4987.131189606244,4990.131867711281 4979.041019662494,4996.009720234205 4989.041019662494,4996.009720234206 4985.950849718746,4986.499155071254 4975.950849718746,4986.499155071253 4972.860679774998,4976.988589908301 4964.770509831247,4982.866442431225 4972.860679774998,4976.988589908301 4980.950849718746,4982.8664424312265 4989.041019662497,4976.988589908303 4997.131189606247,4971.110737385379 5005.221359549996,4976.988589908306 5008.311529493744,4986.4991550712575 5005.221359549996,4976.988589908306 5008.311529493744,4986.4991550712575 5018.311529493744,4986.499155071258 5021.401699437495,4976.988589908307 5011.401699437495,4976.9885899083065 5008.311529493747,4967.478024745354 5016.401699437498,4961.60017222243 5024.491869381248,4955.722319699506 5016.401699437498,4961.60017222243 5006.401699437497,4961.600172222429 5009.491869381248,4952.089607059477 5012.582039324999,4942.579041896526 5009.491869381251,4933.068476733574 5006.4016994375,4942.579041896525 4998.31152949375,4948.456894419449 5001.401699437498,4957.967459582402" stroke="black" stroke-linecap="round" stroke-width="1" /><polyline clip-path="url(#border_clip)" fill="none" points="5001.401699437498,4957.967459582402 4998.31152949375,4948.456894419449 4990.221359549999,4954.3347469423725 4987.131189606251,4944.8241817794205 4979.041019662501,4950.702034302344 4975.95084971875,4960.212599465295 4985.95084971875,4960.212599465297 4977.860679775001,4954.334746942371 4974.77050983125,4963.845312105323 4982.860679774999,4969.723164628248 4979.770509831248,4979.2337297912 4989.770509831248,4979.233729791201 4979.770509831248,4979.2337297912 4976.6803398875,4969.723164628247 4966.6803398875,4969.723164628246 4956.6803398875,4969.723164628244 4953.590169943752,4960.212599465292 4956.680339887503,4950.702034302341 4953.590169943752,4960.212599465292 4956.680339887503,4950.702034302341 4948.590169943754,4944.824181779415 4940.500000000004,4950.702034302339 4948.590169943752,4956.579886825265 4945.500000000001,4966.090451988216 4935.500000000001,4966.090451988214 4925.500000000001,4966.090451988213 4935.500000000001,4966.090451988214 4943.59016994375,4971.968304511141 4935.499999999999,4977.846157034064 4927.409830056249,4983.724009556988 4924.319660112498,4993.234574719939 4932.409830056248,4987.356722197015 4942.409830056248,4987.356722197017 4945.499999999999,4977.846157034066 4942.409830056248,4987.356722197017 4952.409830056248,4987.356722197018 4949.319660112497,4996.86728735997 4959.319660112498,4996.867287359971 4967.409830056248,4990.989434837047 4959.319660112499,4985.111582314122 4962.409830056247,4994.622147477074 4970.499999999998,4988.74429495415 4967.40983005625,4979.233729791198" stroke="black" stroke-linecap="round" stroke-width="1" /><polyline clip-path="url(#border_clip)" fill="none" points="4967.40983005625,4979.233729791198 4975.500000000001,4973.3558772682745 4967.409830056252,4967.478024745348 4975.500000000001,4973.3558772682745 4972.409830056249,4982.866442431226 4980.499999999998,4988.744294954151 4988.590169943747,4994.622147477077 4985.499999999996,5004.132712640028 4977.4098300562455,5010.010565162952 4985.499999999996,5004.132712640028 4977.4098300562455,5010.010565162952 4980.499999999994,5019.521130325905 4990.499999999994,5019.521130325906 4987.4098300562455,5010.010565162954 4995.499999999996,5004.13271264003 5003.5901699437445,5010.0105651629565 5011.680339887494,5015.888417685882 5003.5901699437445,5010.0105651629565 5000.499999999997,5000.500000000004" stroke="black" stroke-linecap="round" stroke-width="1" /></svg>