<?xml version="1.0" encoding="utf-8" ?>
<svg baseProfile="full" height="1000px" version="1.1" width="1000px" xmlns="http://www.w3.org/2000/svg" xmlns:ev="http://www.w3.org/2001/xml-events" xmlns:xlink="http://www.w3.org/1999/xlink"><defs><clipPath id="border_clip"><rect height="1000" width="1000" x="0" y="0" /></clipPath></defs><polyline clip-path="url(#border_clip)" fill="none" points="500.5,500.5 510.5,500.5 518.5901699437495,494.62214747707526 508.59016994374946,494.62214747707526 500.5,488.7442949541505 492.40983005625054,494.62214747707526 500.5,488.7442949541505 492.40983005625054,482.8664424312258 500.5,476.9885899083011 492.40983005625054,471.11073738537635 482.40983005625054,471.1107373853763 485.5,480.6213025483279 488.5901699437495,471.11073738537635 478.5901699437495,471.1107373853763 475.5,480.62130254832783 465.5,480.62130254832783 468.59016994374946,490.13186771127937 465.5,480.62130254832783 473.5901699437495,474.74345002540315 470.50000000000006,465.23288486245156 467.4098300562506,455.7223196995001 475.50000000000006,449.84446717657534 485.50000000000006,449.84446717657534 475.50000000000006,449.84446717657534 485.50000000000006,449.84446717657534 488.5901699437496,440.33390201362386 480.5000000000001,434.4560494906991 477.4098300562506,443.9666146536506 467.4098300562506,443.9666146536506 464.3196601125012,434.45604949069906 461.22949016875174,424.9454843277475 464.3196601125012,434.45604949069906 461.2294901687517,443.9666146536506 453.1393202250022,438.0887621307258 445.04915028125276,432.21090960780106 435.04915028125276,432.210909607801 443.1393202250022,438.0887621307258 446.2294901687517,447.59932729367733 456.2294901687517,447.59932729367733 446.2294901687517,447.59932729367733 449.3196601125011,457.10989245662887 439.3196601125011,457.1098924566288 442.40983005625054,466.62045761958035" stroke="black" stroke-linecap="round" stroke-width="1" /><polyline clip-path="url(#border_clip)" fill="none" points="442.40983005625054,466.62045761958035 450.5,472.49831014250515 453.5901699437495,462.9877449795536 445.5,468.8655975024783 453.5901699437494,474.74345002540304 461.6803398874989,468.86559750247835 469.7705098312484,474.74345002540315 472.8606797749979,465.2328848624516 469.7705098312484,474.74345002540315 459.7705098312484,474.7434500254031 456.68033988749886,484.25401518835463 453.59016994374934,493.7645803513061 443.59016994374934,493.76458035130605 435.4999999999999,487.8867278283813 443.59016994374934,493.76458035130605 435.4999999999999,487.8867278283813 427.40983005625037,493.764580351306 430.4999999999998,503.27514551425753 438.5901699437493,497.39729299133285 446.68033988749875,503.27514551425764 443.5901699437492,512.7857106772092 440.49999999999966,522.2962758401607 443.5901699437492,512.7857106772092 451.6803398874987,506.90785815428444 454.7705098312481,516.418423317236 457.86067977499755,525.9289884801876 465.95084971874695,531.8068410031124 462.86067977499755,522.2962758401608 465.9508497187471,512.7857106772093 457.86067977499766,506.9078581542845 465.9508497187471,512.7857106772093 469.04101966249664,503.27514551425776 477.1311896062461,509.15299803718256 480.22135954999567,499.6424328742311 477.13118960624627,490.1318677112795 469.0410196624967,496.00972023420417 479.0410196624967,496.0097202342042 475.95084971874735,486.4991550712527 465.95084971874735,486.49915507125263 462.86067977499795,476.98858990830104 454.77050983124843,482.8664424312257 462.86067977499795,476.98858990830104 470.95084971874735,482.86644243122583" stroke="black" stroke-linecap="round" stroke-width="1" /><polyline clip-path="url(#border_clip)" fill="none" points="470.95084971874735,482.86644243122583 479.04101966249686,476.9885899083012 487.1311896062464,471.1107373853765 495.22135954999584,476.9885899083013 498.3115294937452,486.4991550712529 495.22135954999584,476.9885899083013 498.3115294937452,486.4991550712529 508.3115294937452,486.499155071253 511.40169943749476,476.9885899083015 501.40169943749476,476.9885899083014 498.3115294937454,467.47802474534984 506.4016994374949,461.6001722224252 514.4918693812444,455.72231969950053 506.4016994374949,461.6001722224252 496.4016994374949,461.6001722224251 499.4918693812445,452.08960705947356 502.58203932499407,442.5790418965221 499.4918693812447,433.0684767335705 496.40169943749515,442.579041896522 488.3115294937456,448.45689441944666 491.401699437495,457.96745958239825 488.3115294937456,448.45689441944666 480.22135954999607,454.3347469423713 477.1311896062467,444.82418177941975 469.04101966249715,450.7020343023444 465.9508497187476,460.21259946529585 475.9508497187476,460.21259946529597 467.8606797749982,454.33474694237117 464.77050983124855,463.84531210532265 472.86067977499795,469.7231646282475 469.7705098312484,479.233729791199 479.7705098312484,479.2337297911991 469.7705098312484,479.233729791199 466.68033988749903,469.7231646282474 456.68033988749903,469.7231646282473 446.68033988749903,469.72316462824716 443.5901699437497,460.21259946529557 446.68033988749926,450.7020343023441 443.5901699437497,460.21259946529557 446.68033988749926,450.7020343023441 438.5901699437499,444.82418177941923 430.50000000000034,450.70203430234386 438.59016994374974,456.5798868252687" stroke="black" stroke-linecap="round" stroke-width="1" /><polyline clip-path="url(#border_clip)" fill="none" points="438.59016994374974,456.5798868252687 435.5000000000001,466.0904519882202 425.5000000000001,466.09045198822 415.5000000000001,466.0904519882199 425.5000000000001,466.09045198822 433.5901699437495,471.9683045111449 425.49999999999994,477.8461570340695 417.40983005625037,483.72400955699413 414.3196601125008,493.2345747199456 422.40983005625037,487.356722197021 432.40983005625037,487.35672219702116 435.49999999999994,477.8461570340697 432.40983005625037,487.35672219702116 442.40983005625037,487.3567221970213 439.31966011250074,496.8672873599728 449.31966011250074,496.867287359973 457.4098300562503,490.98943483704835 449.3196601125009,485.1115823141235 452.40983005625026,494.6221474770751 460.49999999999983,488.74429495415046 457.4098300562505,479.23372979119887 465.50000000000006,473.3558772682743 457.40983005625066,467.47802474534944 465.50000000000006,473.3558772682743 462.4098300562504,482.8664424312258 470.49999999999983,488.74429495415063 478.5901699437492,494.6221474770755 475.49999999999955,504.13271264002697 467.40983005625,510.0105651629516 475.49999999999955,504.132712640027 467.40983005625,510.0105651629516 470.49999999999926,519.5211303259032 480.4999999999993,519.5211303259033 477.40983005625,510.01056516295176 485.49999999999955,504.1327126400272 493.59016994374895,510.01056516295205 501.6803398874983,515.8884176858769 493.59016994374895,510.01056516295205 490.49999999999966,500.50000000000045 500.49999999999966,500.5000000000006 510.49999999999966,500.5000000000008 518.5901699437493,494.6221474770762 508.59016994374923,494.62214747707606" stroke="black" stroke-linecap="round" stroke-width="1" /><polyline clip-path="url(#border_clip)" fill="none" points="508.59016994374923,494.62214747707606 500.4999999999999,488.74429495415114 492.40983005625026,494.62214747707577 500.4999999999999,488.74429495415114 492.4098300562505,482.8664424312263 500.5000000000001,476.9885899083017 492.4098300562507,471.1107373853768 482.4098300562507,471.11073738537664 485.5,480.62130254832823 488.5901699437497,471.11073738537675 478.5901699437497,471.1107373853765 475.5,480.621302548328 465.5,480.62130254832783 468.5901699437493,490.1318677112794 465.5,480.62130254832783 473.59016994374963,474.74345002540326 470.50000000000034,465.23288486245167 467.40983005625105,455.7223196995 475.5000000000006,449.84446717657545 485.5000000000006,449.8444671765757 475.5000000000006,449.84446717657545 485.5000000000006,449.8444671765757 488.5901699437503,440.3339020136242 480.50000000000097,434.4560494906993 477.4098300562513,443.96661465365077 467.4098300562513,443.96661465365054 464.319660112502,434.45604949069894 461.2294901687527,424.94548432774735 464.319660112502,434.45604949069894 461.2294901687523,443.9666146536504 453.13932022500296,438.0887621307255 445.0491502812536,432.2109096078006 435.0491502812536,432.2109096078004 443.13932022500296,438.0887621307253 446.2294901687522,447.5993272936769 456.2294901687522,447.5993272936771 446.2294901687522,447.5993272936769 449.3196601125015,457.10989245662853 439.3196601125014,457.10989245662824 442.4098300562507,466.6204576195799 450.50000000000006,472.4983101425048 453.59016994374974,462.9877449795533 445.5000000000001,468.8655975024779" stroke="black" stroke-linecap="round" stroke-width="1" /><polyline clip-path="url(#border_clip)" fill="none" points="445.5000000000001,468.8655975024779 453.59016994374946,474.7434500254028 461.6803398874991,468.8655975024783 469.77050983124843,474.7434500254032 472.8606797749982,465.2328848624517 469.77050983124843,474.7434500254032 459.77050983124843,474.743450025403 456.68033988749875,484.25401518835446 453.590169943749,493.7645803513059 443.590169943749,493.76458035130565 435.49999999999966,487.88672782838074 443.590169943749,493.76458035130565 435.49999999999966,487.88672782838074 427.40983005625003,493.76458035130526 430.49999999999926,503.2751455142569 438.5901699437489,497.39729299133234 446.68033988749823,503.2751455142573 443.5901699437485,512.7857106772087 440.4999999999988,522.2962758401602 443.5901699437485,512.7857106772087 451.6803398874982,506.9078581542842 454.7705098312474,516.4184233172358 457.86067977499664,525.9289884801875 465.950849718746,531.8068410031125 462.8606797749967,522.2962758401608 465.95084971874644,512.7857106772093 457.86067977499715,506.9078581542844 465.95084971874644,512.7857106772093 469.0410196624962,503.2751455142579 477.1311896062455,509.15299803718284 480.22135954999527,499.64243287423136 477.13118960624604,490.1318677112797 469.04101966249635,496.0097202342043 479.0410196624964,496.0097202342045 475.9508497187472,486.4991550712529 465.9508497187471,486.49915507125263 462.86067977499795,476.988589908301 454.77050983124826,482.8664424312255 462.86067977499795,476.988589908301 470.95084971874724,482.86644243122595 479.04101966249686,476.98858990830144 487.13118960624655,471.1107373853769 495.2213595499959,476.9885899083019" stroke="black" stroke-linecap="round" stroke-width="1" /><polyline clip-path="url(#border_clip)" fill="none" points="495.2213595499959,476.9885899083019 498.31152949374507,486.49915507125354 495.2213595499959,476.9885899083019 498.31152949374507,486.49915507125354 508.31152949374507,486.4991550712538 511.40169943749487,476.98858990830234 501.4016994374948,476.98858990830206 498.31152949374564,467.4780247453504 506.40169943749527,461.6001722224259 514.4918693812449,455.7223196995014 506.40169943749527,461.6001722224259 496.40169943749527,461.6001722224256 499.491869381245,452.08960705947413 502.58203932499475,442.57904189652265 499.4918693812456,433.06847673357106 496.40169943749584,442.5790418965225 488.31152949374615,448.456894419447 491.4016994374953,457.96745958239865 488.31152949374615,448.456894419447 480.22135954999646,454.3347469423715 477.1311896062473,444.82418177941986 469.0410196624976,450.7020343023444 465.95084971874786,460.2125994652958 475.95084971874786,460.21259946529614 467.8606797749986,454.3347469423711 464.7705098312488,463.8453121053226 472.8606797749981,469.72316462824756 469.7705098312483,479.23372979119904 479.7705098312484,479.2337297911994 469.7705098312483,479.23372979119904 466.68033988749914,469.7231646282474 456.68033988749914,469.7231646282471 446.6803398874991,469.72316462824676 443.5901699437499,460.2125994652951 446.6803398874997,450.70203430234363 443.5901699437499,460.2125994652951 446.6803398874997,450.70203430234363 438.5901699437504,444.82418177941867 430.50000000000074,450.7020343023431 438.59016994375,456.57988682526815 435.5000000000002,466.09045198821957 425.5000000000002,466.0904519882193 415.50000000000017,466.09045198821894" stroke="black" stroke-linecap="round" stroke-width="1" /><polyline clip-path="url(#border_clip)" fill="none" points="415.50000000000017,466.09045198821894 425.5000000000002,466.0904519882193 433.5901699437495,471.9683045111443 425.49999999999983,477.84615703406877 417.40983005625014,483.7240095569932 414.31966011250034,493.2345747199447 422.40983005625003,487.3567221970202 432.40983005625003,487.35672219702053 435.4999999999999,477.8461570340691 432.40983005625003,487.35672219702053 442.4098300562501,487.3567221970209 439.3196601125003,496.86728735997235 449.3196601125003,496.8672873599727 457.40983005625003,490.98943483704824 449.31966011250074,485.1115823141232 452.40983005624986,494.62214747707486 460.49999999999955,488.7442949541504 457.4098300562504,479.2337297911987 465.5000000000001,473.35587726827424 457.4098300562508,467.4780247453492 465.5000000000001,473.35587726827424 462.4098300562503,482.8664424312257 470.4999999999996,488.74429495415075 478.5901699437489,494.62214747707577 475.4999999999991,504.13271264002725 467.40983005624935,510.0105651629517 475.4999999999991,504.13271264002725 467.40983005624935,510.0105651629517 470.4999999999985,519.5211303259034 480.4999999999985,519.5211303259038 477.4098300562494,510.01056516295205 485.4999999999991,504.1327126400276 493.5901699437484,510.0105651629526 501.68033988749767,515.8884176858777 493.5901699437484,510.0105651629526 490.49999999999926,500.50000000000097 500.4999999999993,500.5000000000013 510.4999999999993,500.5000000000017 518.5901699437491,494.62214747707725 508.590169943749,494.62214747707685 500.4999999999997,488.7442949541518 492.40983005625003,494.6221474770763 500.4999999999997,488.7442949541518" stroke="black" stroke-linecap="round" stroke-width="1" /><polyline clip-path="url(#border_clip)" fill="none" points="500.4999999999997,488.7442949541518 492.4098300562504,482.86644243122674 500.50000000000017,476.9885899083023 492.4098300562509,471.11073738537726 482.4098300562508,471.11073738537686 485.49999999999994,480.6213025483286 488.5901699437498,471.1107373853771 478.59016994374974,471.11073738537675 475.49999999999994,480.6213025483282 465.4999999999999,480.62130254832783 468.590169943749,490.1318677112795 465.4999999999999,480.62130254832783 473.59016994374963,474.7434500254034 470.5000000000005,465.23288486245167 467.4098300562514,455.72231969949996 475.50000000000114,449.84446717657556 485.50000000000114,449.8444671765759 475.50000000000114,449.84446717657556 485.50000000000114,449.8444671765759 488.590169943751,440.3339020136245 480.5000000000017,434.4560494906994 477.40983005625185,443.9666146536508 467.40983005625185,443.9666146536505 464.31966011250273,434.4560494906988 461.2294901687536,424.94548432774707 464.31966011250273,434.4560494906988 461.2294901687529,443.9666146536502 453.1393202250036,438.0887621307251 445.0491502812543,432.21090960780003 435.04915028125424,432.21090960779964 443.13932022500353,438.0887621307247 446.22949016875265,447.5993272936764 456.2294901687527,447.5993272936768 446.22949016875265,447.5993272936764 449.3196601125017,457.10989245662813 439.3196601125017,457.10989245662773 442.40983005625077,466.62045761957944 450.50000000000006,472.4983101425045 453.5901699437499,462.98774497955304 445.50000000000017,468.8655975024775 453.59016994374946,474.7434500254026 461.6803398874992,468.8655975024781 469.7705098312485,474.74345002540326" stroke="black" stroke-linecap="round" stroke-width="1" /><polyline clip-path="url(#border_clip)" fill="none" points="469.7705098312485,474.74345002540326 472.86067977499835,465.2328848624518 469.77050983124843,474.74345002540326 459.77050983124843,474.7434500254028 456.6803398874985,484.2540151883543 453.59016994374866,493.7645803513057 443.5901699437486,493.7645803513053 435.4999999999993,487.8867278283802 443.5901699437486,493.7645803513053 435.4999999999993,487.8867278283802 427.4098300562496,493.7645803513046 430.49999999999864,503.2751455142563 438.59016994374844,497.3972929913319 446.68033988749767,503.275145514257 443.59016994374775,512.7857106772085 440.4999999999979,522.2962758401599 443.59016994374775,512.7857106772085 451.68033988749755,506.90785815428404 454.7705098312466,516.4184233172358 457.8606797749957,525.9289884801875 465.9508497187449,531.8068410031126 462.86067977499584,522.2962758401609 465.95084971874576,512.7857106772094 457.8606797749965,506.9078581542843 465.95084971874576,512.7857106772094 469.04101966249567,503.275145514258 477.1311896062449,509.1529980371831 480.2213595499948,499.64243287423164 477.13118960624575,490.13186771127994 469.041019662496,496.00972023420434 479.04101966249607,496.0097202342048 475.950849718747,486.4991550712531 465.95084971874695,486.49915507125263 462.8606797749979,476.9885899083009 454.7705098312481,482.8664424312253 462.8606797749979,476.9885899083009 470.9508497187471,482.866442431226 479.0410196624969,476.98858990830166 487.13118960624666,471.11073738537726 495.2213595499959,476.9885899083024 498.31152949374496,486.4991550712541 495.2213595499959,476.9885899083024 498.31152949374496,486.4991550712541" stroke="black" stroke-linecap="round" stroke-width="1" /><polyline clip-path="url(#border_clip)" fill="none" points="498.31152949374496,486.4991550712541 508.311529493745,486.49915507125456 511.4016994374949,476.98858990830314 501.4016994374949,476.9885899083027 498.31152949374587,467.478024745351 506.40169943749567,461.6001722224266 514.4918693812455,455.7223196995022 506.40169943749567,461.6001722224266 496.4016994374956,461.6001722224261 499.4918693812455,452.0896070594747 502.5820393249955,442.5790418965232 499.49186938124643,433.0684767335715 496.4016994374965,442.57904189652294 488.3115294937467,448.45689441944734 491.4016994374957,457.96745958239904 488.3115294937467,448.45689441944734 480.2213595499969,454.3347469423717 477.13118960624786,444.82418177942 469.0410196624981,450.7020343023443 465.95084971874815,460.21259946529574 475.9508497187482,460.21259946529625 467.86067977499897,454.3347469423711 464.770509831249,463.84531210532253 472.86067977499823,469.7231646282477 469.77050983124826,479.2337297911991 479.7705098312483,479.2337297911996 469.77050983124826,479.2337297911991 466.68033988749926,469.72316462824733 456.6803398874992,469.7231646282469 446.68033988749914,469.72316462824637 443.59016994375014,460.2125994652946 446.6803398875001,450.70203430234324 443.59016994375014,460.2125994652946 446.6803398875001,450.70203430234324 438.5901699437509,444.82418177941804 430.5000000000011,450.7020343023424 438.5901699437503,456.5798868252676 435.50000000000034,466.090451988219 425.5000000000003,466.0904519882185 415.5000000000002,466.090451988218 425.5000000000003,466.0904519882185 433.5901699437495,471.96830451114363 425.49999999999966,477.846157034068" stroke="black" stroke-linecap="round" stroke-width="1" /><polyline clip-path="url(#border_clip)" fill="none" points="425.49999999999966,477.846157034068 417.40983005624986,483.7240095569923 414.3196601124999,493.2345747199438 422.4098300562497,487.3567221970194 432.4098300562498,487.35672219701996 435.4999999999998,477.84615703406854 432.4098300562498,487.35672219701996 442.4098300562498,487.3567221970205 439.31966011249983,496.8672873599719 449.3196601124999,496.8672873599724 457.4098300562497,490.98943483704807 449.3196601125005,485.11158231412287 452.40983005624946,494.62214747707463 460.4999999999993,488.7442949541503 457.4098300562503,479.2337297911985 465.5000000000001,473.3558772682742 457.40983005625094,467.47802474534905 465.5000000000001,473.3558772682742 462.40983005625014,482.8664424312256 470.4999999999993,488.7442949541508 478.59016994374855,494.622147477076 475.4999999999985,504.1327126400274 467.4098300562487,510.01056516295176 475.4999999999986,504.1327126400274 467.4098300562487,510.01056516295176 470.4999999999977,519.5211303259035 480.4999999999977,519.5211303259041 477.4098300562488,510.0105651629523 485.49999999999864,504.132712640028 493.5901699437478,510.0105651629532 501.680339887497,515.8884176858784 493.5901699437478,510.0105651629532 490.49999999999886,500.5000000000014 500.49999999999886,500.500000000002 510.4999999999989,500.5000000000025 518.5901699437488,494.6221474770782 508.5901699437487,494.62214747707765 500.49999999999955,488.74429495415245 492.4098300562497,494.62214747707674 500.49999999999955,488.74429495415245 492.40983005625037,482.86644243122726 500.50000000000017,476.9885899083029 492.409830056251,471.1107373853777" stroke="black" stroke-linecap="round" stroke-width="1" /><polyline clip-path="url(#border_clip)" fill="none" points="492.409830056251,471.1107373853777 482.40983005625094,471.11073738537715 485.4999999999999,480.6213025483289 488.5901699437499,471.1107373853775 478.59016994374986,471.1107373853769 475.49999999999983,480.62130254832834 465.4999999999998,480.6213025483278 468.5901699437487,490.13186771127954 465.4999999999998,480.6213025483278 473.59016994374963,474.7434500254035 470.5000000000007,465.2328848624517 467.40983005625174,455.72231969949996 475.5000000000016,449.8444671765757 485.50000000000165,449.84446717657625 475.5000000000016,449.8444671765756 485.50000000000165,449.84446717657625 488.5901699437517,440.3339020136248 480.5000000000025,434.45604949069957 477.4098300562525,443.966614653651 467.4098300562524,443.9666146536504 464.31966011250347,434.45604949069866 461.2294901687545,424.9454843277469 464.31966011250347,434.45604949069866 461.22949016875344,443.96661465365 453.1393202250042,438.08876213072483 445.04915028125504,432.2109096077996 435.04915028125504,432.210909607799 443.1393202250042,438.08876213072426 446.2294901687531,447.599327293676 456.22949016875316,447.5993272936766 446.2294901687531,447.599327293676 449.31966011250205,457.1098924566278 439.319660112502,457.1098924566272 442.40983005625094,466.620457619579 450.5000000000001,472.49831014250424 453.59016994375014,462.9877449795528 445.5000000000003,468.8655975024771 453.59016994374946,474.74345002540235 461.6803398874993,468.86559750247807 469.7705098312485,474.7434500254033 472.8606797749986,465.2328848624519 469.7705098312485,474.7434500254033 459.77050983124843,474.7434500254027" stroke="black" stroke-linecap="round" stroke-width="1" /><polyline clip-path="url(#border_clip)" fill="none" points="459.77050983124843,474.7434500254027 456.68033988749835,484.2540151883541 453.59016994374826,493.76458035130554 443.59016994374826,493.7645803513049 435.4999999999991,487.88672782837966 443.59016994374826,493.7645803513049 435.4999999999991,487.88672782837966 427.4098300562492,493.7645803513039 430.49999999999807,503.2751455142557 438.590169943748,497.3972929913314 446.68033988749715,503.2751455142567 443.59016994374707,512.785710677208 440.499999999997,522.2962758401595 443.59016994374707,512.785710677208 451.6803398874969,506.9078581542838 454.7705098312458,516.4184233172356 457.86067977499476,525.9289884801874 465.9508497187439,531.8068410031127 462.860679774995,522.2962758401609 465.9508497187451,512.7857106772095 457.86067977499596,506.9078581542842 465.9508497187451,512.7857106772095 469.04101966249516,503.2751455142581 477.13118960624433,509.15299803718335 480.2213595499944,499.642432874232 477.1311896062455,490.13186771128017 469.0410196624956,496.00972023420445 479.0410196624957,496.0097202342051 475.95084971874684,486.4991550712533 465.9508497187468,486.49915507125263 462.8606797749979,476.98858990830087 454.770509831248,482.8664424312251 462.8606797749979,476.98858990830087 470.950849718747,482.8664424312261 479.0410196624969,476.9885899083019 487.13118960624683,471.11073738537766 495.22135954999595,476.98858990830297 498.31152949374484,486.49915507125473 495.22135954999595,476.98858990830297 498.31152949374484,486.49915507125473 508.3115294937449,486.4991550712554 511.40169943749504,476.988589908304 501.401699437495,476.98858990830337" stroke="black" stroke-linecap="round" stroke-width="1" /><polyline clip-path="url(#border_clip)" fill="none" points="501.401699437495,476.98858990830337 498.3115294937461,467.47802474535155 506.401699437496,461.6001722224273 514.4918693812459,455.7223196995031 506.401699437496,461.6001722224273 496.40169943749595,461.60017222242664 499.4918693812461,452.08960705947527 502.5820393249962,442.57904189652385 499.49186938124734,433.0684767335721 496.4016994374972,442.57904189652345 488.3115294937473,448.4568944194477 491.4016994374961,457.9674595823995 488.3115294937473,448.4568944194477 480.2213595499974,454.3347469423719 477.13118960624854,444.8241817794201 469.04101966249857,450.7020343023443 465.95084971874843,460.21259946529574 475.95084971874854,460.21259946529636 467.86067977499937,454.33474694237105 464.7705098312492,463.8453121053225 472.8606797749984,469.7231646282478 469.77050983124826,479.23372979119915 479.7705098312483,479.23372979119983 469.77050983124826,479.23372979119915 466.6803398874994,469.72316462824733 456.6803398874993,469.72316462824665 446.68033988749926,469.72316462824597 443.5901699437504,460.2125994652942 446.68033988750057,450.7020343023428 443.5901699437504,460.2125994652942 446.68033988750057,450.7020343023428 438.59016994375145,444.8241817794175 430.5000000000015,450.7020343023417 438.5901699437506,456.579886825267 435.50000000000045,466.0904519882184 425.5000000000004,466.0904519882177 415.50000000000034,466.090451988217 425.5000000000004,466.0904519882177 433.5901699437495,471.96830451114306 425.49999999999955,477.84615703406723 417.40983005624963,483.72400955699146 414.31966011249943,493.2345747199428 422.4098300562494,487.35672219701866" stroke="black" stroke-linecap="round" stroke-width="1" /><polyline clip-path="url(#border_clip)" fill="none" points="422.4098300562494,487.35672219701866 432.40983005624946,487.35672219701934 435.49999999999966,477.84615703406797 432.40983005624946,487.35672219701934 442.4098300562495,487.3567221970201 439.3196601124994,496.86728735997144 449.31966011249943,496.8672873599721 457.4098300562494,490.98943483704795 449.3196601125003,485.1115823141226 452.4098300562491,494.6221474770744 460.49999999999903,488.74429495415023 457.40983005625026,479.2337297911984 465.50000000000017,473.3558772682742 457.40983005625105,467.4780247453489 465.50000000000017,473.3558772682742 462.40983005625003,482.8664424312256 470.4999999999991,488.7442949541509 478.5901699437482,494.6221474770763 475.49999999999807,504.1327126400277 467.4098300562481,510.0105651629519 475.49999999999807,504.1327126400277 467.4098300562481,510.0105651629519 470.4999999999969,519.5211303259036 480.49999999999693,519.5211303259044 477.40983005624815,510.0105651629526 485.4999999999981,504.1327126400284 493.59016994374724,510.01056516295375 501.6803398874963,515.8884176858792 493.59016994374724,510.01056516295375 490.4999999999984,500.50000000000193 500.4999999999985,500.5000000000027 510.4999999999986,500.5000000000034 518.5901699437486,494.62214747707924 508.5901699437485,494.6221474770785 500.4999999999994,488.74429495415313 492.4098300562494,494.6221474770773 500.4999999999994,488.74429495415313 492.40983005625026,482.86644243122777 500.5000000000003,476.9885899083036 492.40983005625117,471.1107373853782 482.4098300562511,471.11073738537743 485.4999999999999,480.6213025483293 488.5901699437501,471.1107373853779" stroke="black" stroke-linecap="round" stroke-width="1" /><polyline clip-path="url(#border_clip)" fill="none" points="488.5901699437501,471.1107373853779 478.59016994375,471.11073738537715 475.4999999999998,480.6213025483285 465.4999999999997,480.6213025483278 468.5901699437485,490.1318677112796 465.4999999999997,480.6213025483278 473.5901699437497,474.7434500254036 470.5000000000009,465.2328848624518 467.40983005625213,455.7223196994999 475.5000000000021,449.8444671765758 485.5000000000022,449.84446717657653 475.5000000000021,449.8444671765758 485.5000000000022,449.84446717657653 488.5901699437524,440.33390201362516 480.50000000000335,434.45604949069974 477.4098300562531,443.9666146536511 467.40983005625304,443.96661465365037 464.31966011250427,434.4560494906985 461.2294901687555,424.94548432774667 464.31966011250427,434.4560494906985 461.229490168754,443.96661465364986 453.13932022500495,438.0887621307245 445.0491502812559,432.21090960779907 435.0491502812558,432.21090960779827 443.1393202250049,438.0887621307237 446.2294901687536,447.5993272936756 456.2294901687537,447.5993272936763 446.2294901687536,447.5993272936755 449.3196601125024,457.1098924566274 439.3196601125023,457.1098924566266 442.40983005625105,466.6204576195785 450.5000000000001,472.4983101425039 453.59016994375037,462.98774497955253 445.50000000000034,468.86559750247665 453.5901699437494,474.74345002540207 461.68033988749943,468.86559750247795 469.7705098312485,474.7434500254034 472.86067977499874,465.232884862452 469.7705098312485,474.7434500254034 459.77050983124843,474.7434500254026 456.6803398874982,484.25401518835395 453.5901699437479,493.7645803513053 443.5901699437478,493.76458035130446" stroke="black" stroke-linecap="round" stroke-width="1" /><polyline clip-path="url(#border_clip)" fill="none" points="443.5901699437478,493.76458035130446 435.49999999999875,487.88672782837904 443.5901699437478,493.76458035130446 435.49999999999875,487.88672782837904 427.4098300562488,493.76458035130315 430.4999999999975,503.27514551425503 438.59016994374747,497.3972929913309 446.68033988749653,503.27514551425634 443.5901699437463,512.7857106772077 440.499999999996,522.2962758401591 443.5901699437463,512.7857106772077 451.6803398874963,506.9078581542836 454.770509831245,516.4184233172355 457.86067977499374,525.9289884801873 465.9508497187428,531.8068410031128 462.8606797749941,522.2962758401609 465.9508497187444,512.7857106772095 457.86067977499533,506.9078581542841 465.9508497187444,512.7857106772095 469.04101966249465,503.2751455142582 477.1311896062437,509.15299803718364 480.221359549994,499.64243287423227 477.1311896062453,490.1318677112804 469.0410196624953,496.0097202342045 479.04101966249533,496.00972023420536 475.9508497187466,486.4991550712535 465.95084971874655,486.49915507125263 462.86067977499783,476.98858990830075 454.7705098312478,482.86644243122487 462.86067977499783,476.98858990830075 470.9508497187469,482.86644243122623 479.0410196624969,476.9885899083021 487.13118960624695,471.110737385378 495.221359549996,476.9885899083035 498.3115294937447,486.49915507125536 495.221359549996,476.9885899083035 498.3115294937447,486.49915507125536 508.3115294937448,486.4991550712562 511.4016994374951,476.98858990830485 501.401699437495,476.988589908304 498.3115294937463,467.4780247453521 506.40169943749635,461.600172222428 514.4918693812464,455.72231969950394" stroke="black" stroke-linecap="round" stroke-width="1" /><polyline clip-path="url(#border_clip)" fill="none" points="514.4918693812464,455.72231969950394 506.40169943749635,461.600172222428 496.4016994374963,461.6001722224272 499.4918693812466,452.08960705947584 502.5820393249969,442.5790418965245 499.4918693812482,433.0684767335726 496.4016994374979,442.57904189652396 488.31152949374786,448.456894419448 491.4016994374965,457.9674595823999 488.31152949374786,448.456894419448 480.22135954999777,454.33474694237213 477.1311896062491,444.82418177942026 469.041019662499,450.7020343023443 465.9508497187487,460.2125994652957 475.9508497187488,460.21259946529653 467.86067977499977,454.33474694237105 464.77050983124946,463.8453121053224 472.8606797749985,469.7231646282479 469.77050983124815,479.23372979119927 479.77050983124826,479.2337297912001 469.77050983124815,479.23372979119927 466.6803398874995,469.7231646282474 456.6803398874994,469.7231646282465 446.6803398874993,469.7231646282456 443.59016994375065,460.21259946529375 446.68033988750096,450.7020343023424 443.59016994375065,460.21259946529375 446.68033988750096,450.7020343023424 438.59016994375196,444.8241817794169 430.5000000000019,450.70203430234096 438.5901699437509,456.57988682526644 435.50000000000057,466.0904519882178 425.50000000000045,466.0904519882169 415.5000000000004,466.09045198821605 425.50000000000045,466.0904519882169 433.5901699437495,471.96830451114243 425.49999999999943,477.8461570340665 417.40983005624935,483.72400955699055 414.31966011249904,493.23457471994186 422.4098300562491,487.3567221970178 432.4098300562492,487.3567221970187 435.49999999999955,477.84615703406735 432.4098300562492,487.3567221970187" stroke="black" stroke-linecap="round" stroke-width="1" /><polyline clip-path="url(#border_clip)" fill="none" points="432.4098300562492,487.3567221970187 442.4098300562493,487.3567221970196 439.3196601124989,496.867287359971 449.319660112499,496.86728735997184 457.40983005624906,490.9894348370478 449.31966011250006,485.1115823141223 452.4098300562487,494.6221474770742 460.49999999999875,488.7442949541501 457.40983005625014,479.23372979119824 465.5000000000002,473.3558772682742 457.4098300562512,467.47802474534865 465.5000000000002,473.3558772682742 462.40983005624986,482.86644243122555 470.49999999999886,488.7442949541511 478.59016994374787,494.62214747707657 475.4999999999975,504.13271264002793 467.4098300562474,510.010565162952 475.4999999999975,504.13271264002793 467.4098300562474,510.010565162952 470.499999999996,519.5211303259039 480.49999999999613,519.5211303259048 477.40983005624753,510.0105651629529 485.4999999999976,504.13271264002884 493.5901699437466,510.0105651629544 501.6803398874956,515.88841768588 493.5901699437466,510.0105651629544 490.499999999998,500.50000000000244 500.49999999999807,500.5000000000034 510.4999999999982,500.5000000000043 518.5901699437483,494.6221474770803 508.5901699437482,494.62214747707935 500.4999999999992,488.7442949541538 492.40983005624906,494.6221474770779 500.4999999999992,488.7442949541538 492.4098300562502,482.8664424312283 500.5000000000003,476.9885899083042 492.4098300562513,471.1107373853787 482.40983005625117,471.1107373853778 485.4999999999998,480.62130254832965 488.5901699437502,471.11073738537834 478.5901699437501,471.1107373853774 475.4999999999997,480.62130254832874 465.4999999999996,480.6213025483278" stroke="black" stroke-linecap="round" stroke-width="1" /><polyline clip-path="url(#border_clip)" fill="none" points="465.4999999999996,480.6213025483278 468.5901699437482,490.1318677112797 465.4999999999996,480.6213025483278 473.59016994374974,474.7434500254038 470.50000000000114,465.23288486245184 467.40983005625253,455.7223196994999 475.5000000000026,449.8444671765759 485.50000000000273,449.84446717657687 475.5000000000026,449.8444671765759 485.50000000000273,449.84446717657687 488.59016994375315,440.33390201362556 480.50000000000415,434.45604949069997 477.4098300562537,443.9666146536513 467.40983005625367,443.96661465365037 464.31966011250506,434.45604949069843 461.22949016875646,424.9454843277465 464.31966011250506,434.45604949069843 461.22949016875464,443.96661465364974 453.13932022500563,438.08876213072415 445.0491502812567,432.2109096077986 435.0491502812566,432.2109096077976 443.1393202250056,438.0887621307232 446.2294901687541,447.5993272936751 456.22949016875424,447.5993272936761 446.2294901687541,447.5993272936751 449.31966011250273,457.10989245662705 439.3196601125026,457.1098924566261 442.40983005625117,466.620457619578 450.50000000000017,472.49831014250356 453.5901699437506,462.98774497955225 445.50000000000045,468.86559750247625 453.59016994374946,474.74345002540184 461.6803398874996,468.86559750247784 469.77050983124855,474.74345002540343 472.86067977499897,465.2328848624521 469.77050983124855,474.74345002540343 459.77050983124843,474.74345002540247 456.680339887498,484.2540151883538 453.5901699437476,493.7645803513051 443.59016994374747,493.7645803513041 435.49999999999847,487.8867278283785 443.59016994374747,493.7645803513041 435.49999999999847,487.8867278283785" stroke="black" stroke-linecap="round" stroke-width="1" /><polyline clip-path="url(#border_clip)" fill="none" points="435.49999999999847,487.8867278283785 427.4098300562483,493.7645803513025 430.49999999999693,503.27514551425446 438.590169943747,497.39729299133046 446.680339887496,503.27514551425605 443.59016994374554,512.7857106772074 440.4999999999951,522.2962758401587 443.59016994374554,512.7857106772074 451.68033988749573,506.9078581542834 454.7705098312443,516.4184233172354 457.86067977499283,525.9289884801873 465.9508497187418,531.8068410031129 462.86067977499323,522.2962758401609 465.9508497187437,512.7857106772096 457.86067977499476,506.90785815428404 465.9508497187437,512.7857106772096 469.04101966249414,503.2751455142583 477.13118960624314,509.1529980371839 480.2213595499936,499.6424328742326 477.1311896062451,490.1318677112806 469.0410196624949,496.0097202342046 479.041019662495,496.00972023420564 475.95084971874644,486.4991550712537 465.9508497187464,486.4991550712527 462.86067977499783,476.9885899083007 454.77050983124764,482.8664424312247 462.86067977499783,476.9885899083007 470.9508497187468,482.86644243122635 479.0410196624969,476.9885899083024 487.1311896062471,471.1107373853784 495.22135954999607,476.98858990830405 498.31152949374456,486.499155071256 495.22135954999607,476.98858990830405 498.31152949374456,486.499155071256 508.3115294937447,486.499155071257 511.40169943749515,476.9885899083057 501.4016994374951,476.9885899083047 498.31152949374655,467.47802474535274 506.4016994374967,461.6001722224288 514.4918693812468,455.72231969950485 506.4016994374967,461.6001722224288 496.40169943749663,461.6001722224277 499.4918693812471,452.0896070594764" stroke="black" stroke-linecap="round" stroke-width="1" /><polyline clip-path="url(#border_clip)" fill="none" points="499.4918693812471,452.0896070594764 502.5820393249976,442.5790418965251 499.4918693812491,433.06847673357316 496.40169943749856,442.5790418965245 488.3115294937484,448.4568944194484 491.4016994374969,457.96745958240035 488.3115294937484,448.4568944194484 480.2213595499982,454.33474694237236 477.13118960624973,444.8241817794204 469.04101966249954,450.7020343023444 465.95084971874905,460.2125994652956 475.95084971874917,460.2125994652967 467.8606797750002,454.33474694237105 464.7705098312497,463.84531210532236 472.86067977499863,469.723164628248 469.77050983124815,479.2337297911993 479.77050983124826,479.2337297912004 469.77050983124815,479.2337297911993 466.68033988749966,469.72316462824733 456.68033988749954,469.7231646282463 446.68033988749943,469.72316462824523 443.59016994375094,460.21259946529324 446.6803398875015,450.702034302342 443.59016994375094,460.21259946529324 446.6803398875015,450.702034302342 438.5901699437525,444.8241817794163 430.50000000000233,450.7020343023402 438.5901699437513,456.5798868252659 435.50000000000074,466.0904519882172 425.5000000000006,466.0904519882161 415.5000000000005,466.090451988215 425.5000000000006,466.0904519882161 433.5901699437496,471.9683045111418 425.4999999999994,477.8461570340657 417.4098300562492,483.72400955698964 414.31966011249864,493.23457471994095 422.40983005624884,487.356722197017 432.40983005624895,487.3567221970181 435.4999999999995,477.8461570340668 432.40983005624895,487.3567221970181 442.40983005624906,487.35672219701917 439.3196601124985,496.8672873599705 449.3196601124986,496.8672873599716" stroke="black" stroke-linecap="round" stroke-width="1" /><polyline clip-path="url(#border_clip)" fill="none" points="449.3196601124986,496.8672873599716 457.40983005624884,490.98943483704767 449.3196601124999,485.111582314122 452.4098300562483,494.62214747707395 460.4999999999986,488.74429495415006 457.4098300562501,479.2337297911981 465.50000000000034,473.3558772682742 457.4098300562514,467.4780247453485 465.50000000000034,473.3558772682742 462.40983005624975,482.8664424312255 470.4999999999987,488.74429495415114 478.5901699437476,494.62214747707685 475.49999999999704,504.13271264002816 467.4098300562468,510.01056516295205 475.49999999999704,504.13271264002816 467.4098300562468,510.01056516295205 470.4999999999953,519.5211303259041 480.4999999999954,519.5211303259051 477.4098300562469,510.0105651629532 485.49999999999716,504.1327126400293 493.59016994374605,510.010565162955 501.68033988749494,515.8884176858807 493.59016994374605,510.010565162955 490.4999999999976,500.500000000003 500.4999999999977,500.5000000000041 510.49999999999784,500.50000000000523 518.590169943748,494.62214747708134 508.590169943748,494.6221474770802 500.49999999999903,488.7442949541545 492.40983005624884,494.6221474770784 500.49999999999903,488.7442949541545 492.40983005625014,482.8664424312288 500.5000000000004,476.9885899083049 492.4098300562515,471.1107373853792 482.4098300562514,471.11073738537806 485.4999999999998,480.62130254833005 488.59016994375037,471.11073738537874 478.59016994375025,471.1107373853776 475.49999999999966,480.6213025483289 465.49999999999955,480.6213025483278 468.590169943748,490.13186771127977 465.49999999999955,480.6213025483278 473.5901699437498,474.7434500254039" stroke="black" stroke-linecap="round" stroke-width="1" /><polyline clip-path="url(#border_clip)" fill="none" points="473.5901699437498,474.7434500254039 470.50000000000136,465.2328848624519 467.409830056253,455.7223196994999 475.5000000000032,449.844467176576 485.5000000000033,449.84446717657715 475.5000000000032,449.844467176576 485.5000000000033,449.84446717657715 488.59016994375395,440.3339020136259 480.50000000000506,434.45604949070014 477.4098300562544,443.96661465365145 467.4098300562543,443.9666146536503 464.3196601125059,434.45604949069826 461.2294901687575,424.94548432774627 464.3196601125059,434.45604949069826 461.22949016875526,443.9666146536496 453.1393202250064,438.0887621307238 445.0491502812575,432.2109096077981 435.04915028125737,432.2109096077969 443.13932022500626,438.08876213072267 446.2294901687547,447.59932729367466 456.2294901687548,447.59932729367586 446.2294901687547,447.59932729367466 449.3196601125031,457.1098924566267 439.31966011250296,457.1098924566255 442.40983005625134,466.62045761957756 450.5000000000002,472.49831014250327 453.5901699437509,462.987744979552 445.50000000000057,468.86559750247585 453.59016994374946,474.7434500254016 461.6803398874997,468.8655975024778 469.7705098312486,474.7434500254035 472.86067977499926,465.23288486245224 469.7705098312486,474.7434500254035 459.7705098312485,474.74345002540235 456.6803398874979,484.2540151883536 453.59016994374724,493.7645803513049 443.5901699437471,493.7645803513037 435.49999999999824,487.88672782837796 443.5901699437471,493.7645803513037 435.49999999999824,487.88672782837796 427.409830056248,493.7645803513018 430.49999999999636,503.27514551425384 438.5901699437466,497.39729299133" stroke="black" stroke-linecap="round" stroke-width="1" /><polyline clip-path="url(#border_clip)" fill="none" points="438.5901699437466,497.39729299133 446.6803398874955,503.27514551425577 443.59016994374485,512.785710677207 440.4999999999942,522.2962758401584 443.59016994374485,512.785710677207 451.6803398874951,506.9078581542832 454.7705098312435,516.4184233172352 457.86067977499187,525.9289884801873 465.9508497187407,531.806841003113 462.8606797749924,522.296275840161 465.95084971874303,512.7857106772097 457.86067977499414,506.90785815428393 465.95084971874303,512.7857106772097 469.0410196624937,503.27514551425844 477.1311896062425,509.1529980371842 480.2213595499932,499.64243287423295 477.13118960624485,490.1318677112809 469.04101966249453,496.00972023420474 479.0410196624947,496.00972023420593 475.9508497187463,486.49915507125394 465.9508497187462,486.4991550712527 462.86067977499783,476.9885899083007 454.7705098312475,482.86644243122447 462.86067977499783,476.9885899083007 470.9508497187467,482.86644243122646 479.041019662497,476.98858990830263 487.1311896062473,471.11073738537885 495.2213595499962,476.9885899083046 498.3115294937445,486.49915507125667 495.2213595499962,476.9885899083046 498.3115294937445,486.49915507125667 508.3115294937446,486.4991550712579 511.4016994374953,476.9885899083066 501.4016994374952,476.9885899083054 498.31152949374683,467.47802474535337 506.40169943749714,461.60017222242953 514.4918693812475,455.72231969950576 506.40169943749714,461.60017222242953 496.40169943749703,461.6001722224283 499.49186938124774,452.08960705947703 502.5820393249984,442.5790418965258 499.49186938125007,433.06847673357373 496.40169943749936,442.579041896525" stroke="black" stroke-linecap="round" stroke-width="1" /><polyline clip-path="url(#border_clip)" fill="none" points="496.40169943749936,442.579041896525 488.31152949374905,448.45689441944876 491.4016994374974,457.9674595824008 488.31152949374905,448.45689441944876 480.22135954999874,454.3347469423726 477.1311896062504,444.82418177942054 469.0410196625001,450.7020343023443 465.9508497187494,460.2125994652956 475.95084971874957,460.2125994652969 467.8606797750007,454.33474694237105 464.77050983125,463.8453121053223 472.86067977499886,469.7231646282481 469.77050983124815,479.2337297911994 479.77050983124826,479.2337297912007 469.77050983124815,479.2337297911994 466.6803398874998,469.72316462824733 456.6803398874997,469.7231646282461 446.68033988749954,469.72316462824483 443.5901699437512,460.2125994652928 446.680339887502,450.70203430234153 443.5901699437512,460.2125994652928 446.680339887502,450.70203430234153 438.59016994375315,444.82418177941565 430.5000000000028,450.7020343023395 438.5901699437516,456.5798868252653 435.5000000000009,466.09045198821656 425.5000000000008,466.0904519882153 415.5000000000007,466.090451988214 425.5000000000008,466.0904519882153 433.59016994374963,471.9683045111411 425.49999999999926,477.8461570340649 417.40983005624895,483.7240095569887 414.3196601124982,493.2345747199399 422.40983005624855,487.3567221970162 432.40983005624867,487.35672219701746 435.49999999999943,477.8461570340662 432.40983005624867,487.35672219701746 442.4098300562488,487.35672219701877 439.31966011249807,496.86728735997 449.3196601124982,496.86728735997133 457.40983005624855,490.98943483704755 449.3196601124997,485.1115823141217 452.409830056248,494.6221474770737" stroke="black" stroke-linecap="round" stroke-width="1" /><polyline clip-path="url(#border_clip)" fill="none" points="452.409830056248,494.6221474770737 460.49999999999835,488.74429495415 457.40983005625003,479.2337297911979 465.5000000000004,473.3558772682741 457.40983005625156,467.4780247453483 465.5000000000004,473.3558772682741 462.40983005624963,482.86644243122544 470.49999999999847,488.74429495415126 478.5901699437473,494.62214747707714 475.49999999999653,504.1327126400284 467.40983005624616,510.01056516295216 475.49999999999653,504.1327126400284 467.40983005624616,510.01056516295216 470.4999999999945,519.5211303259042 480.4999999999946,519.5211303259056 477.40983005624634,510.01056516295347 485.4999999999967,504.1327126400297 493.5901699437455,510.0105651629556 501.6803398874943,515.8884176858814 493.59016994374554,510.0105651629556 490.4999999999972,500.5000000000035 500.4999999999974,500.50000000000483 510.4999999999975,500.50000000000614 518.5901699437479,494.6221474770824 508.59016994374775,494.62214747708106 500.4999999999989,488.7442949541552 492.40983005624855,494.62214747707895 500.4999999999989,488.7442949541552 492.40983005625014,482.8664424312293 500.5000000000005,476.9885899083056 492.4098300562517,471.1107373853797 482.4098300562515,471.11073738537834 485.4999999999998,480.62130254833045 488.5901699437506,471.1107373853792 478.5901699437504,471.11073738537783 475.49999999999966,480.62130254832914 465.4999999999995,480.6213025483278 468.59016994374775,490.1318677112799 465.4999999999995,480.6213025483278 473.59016994374986,474.74345002540406 470.50000000000165,465.23288486245195 467.4098300562534,455.72231969949985 475.50000000000375,449.84446717657613" stroke="black" stroke-linecap="round" stroke-width="1" /><polyline clip-path="url(#border_clip)" fill="none" points="475.50000000000375,449.84446717657613 485.5000000000039,449.8444671765775 475.50000000000375,449.84446717657613 485.5000000000039,449.8444671765775 488.5901699437547,440.33390201362624 480.5000000000059,434.4560494907003 477.4098300562551,443.96661465365156 467.409830056255,443.96661465365025 464.3196601125067,434.45604949069815 461.2294901687585,424.94548432774604 464.3196601125067,434.45604949069815 461.2294901687559,443.9666146536494 453.1393202250071,438.08876213072347 445.04915028125833,432.2109096077976 435.04915028125816,432.2109096077962 443.13932022500694,438.0887621307221 446.2294901687552,447.5993272936742 456.2294901687553,447.5993272936756 446.2294901687552,447.5993272936742 449.3196601125034,457.1098924566263 439.31966011250324,457.10989245662495 442.4098300562515,466.62045761957705 450.5000000000003,472.498310142503 453.5901699437511,462.98774497955174 445.5000000000007,468.86559750247545 453.5901699437495,474.7434500254014 461.6803398874999,468.86559750247767 469.77050983124866,474.7434500254036 472.8606797749995,465.23288486245235 469.77050983124866,474.7434500254036 459.77050983124855,474.7434500254022 456.68033988749767,484.25401518835343 453.59016994374684,493.7645803513047 443.59016994374673,493.7645803513033 435.49999999999795,487.8867278283774 443.59016994374673,493.7645803513033 435.49999999999795,487.8867278283774 427.40983005624753,493.7645803513011 430.49999999999574,503.2751455142532 438.5901699437461,497.3972929913295 446.68033988749494,503.2751455142554 443.59016994374406,512.7857106772067 440.49999999999324,522.2962758401579" stroke="black" stroke-linecap="round" stroke-width="1" /><polyline clip-path="url(#border_clip)" fill="none" points="440.49999999999324,522.2962758401579 443.59016994374406,512.7857106772067 451.6803398874945,506.907858154283 454.7705098312427,516.4184233172351 457.8606797749909,525.9289884801872 465.9508497187396,531.8068410031132 462.86067977499147,522.2962758401611 465.9508497187423,512.7857106772099 457.8606797749935,506.9078581542839 465.9508497187423,512.7857106772099 469.04101966249317,503.27514551425855 477.13118960624195,509.15299803718455 480.22135954999277,499.6424328742333 477.1311896062446,490.1318677112812 469.0410196624942,496.00972023420485 479.04101966249436,496.00972023420627 475.95084971874616,486.4991550712541 465.950849718746,486.49915507125274 462.86067977499783,476.9885899083006 454.7705098312474,482.8664424312243 462.86067977499783,476.9885899083006 470.9508497187466,482.8664424312266 479.04101966249704,476.9885899083029 487.13118960624746,471.11073738537925 495.22135954999624,476.9885899083052 498.3115294937444,486.4991550712573 495.22135954999624,476.9885899083052 498.3115294937444,486.4991550712573 508.31152949374456,486.4991550712587 511.40169943749544,476.9885899083075 501.40169943749527,476.9885899083061 498.3115294937471,467.47802474535393 506.40169943749754,461.6001722224303 514.491869381248,455.7223196995066 506.40169943749754,461.6001722224303 496.40169943749737,461.60017222242885 499.49186938124825,452.0896070594776 502.58203932499913,442.5790418965264 499.491869381251,433.06847673357424 496.4016994375001,442.5790418965255 488.3115294937497,448.45689441944916 491.4016994374978,457.96745958240126 488.3115294937497,448.45689441944916" stroke="black" stroke-linecap="round" stroke-width="1" /><polyline clip-path="url(#border_clip)" fill="none" points="488.3115294937497,448.45689441944916 480.22135954999925,454.3347469423728 477.1311896062511,444.8241817794207 469.0410196625006,450.7020343023444 465.95084971874974,460.21259946529557 475.9508497187499,460.21259946529705 467.86067977500113,454.33474694237105 464.77050983125025,463.84531210532225 472.86067977499897,469.72316462824824 469.7705098312481,479.2337297911995 479.77050983124826,479.233729791201 469.7705098312481,479.2337297911995 466.68033988749994,469.7231646282474 456.6803398874998,469.7231646282459 446.68033988749966,469.7231646282445 443.5901699437515,460.2125994652923 446.68033988750244,450.7020343023411 443.5901699437515,460.2125994652923 446.68033988750244,450.7020343023411 438.5901699437537,444.8241817794151 430.50000000000324,450.70203430233875 438.59016994375196,456.57988682526474 435.5000000000011,466.090451988216 425.5000000000009,466.0904519882145 415.50000000000074,466.09045198821303 425.5000000000009,466.0904519882145 433.59016994374963,471.9683045111405 425.4999999999992,477.84615703406416 417.4098300562487,483.72400955698777 414.3196601124978,493.234574719939 422.40983005624827,487.3567221970154 432.40983005624844,487.35672219701684 435.4999999999993,477.84615703406564 432.40983005624844,487.35672219701684 442.40983005624855,487.3567221970183 439.3196601124976,496.86728735996957 449.3196601124978,496.86728735997104 457.40983005624827,490.9894348370474 449.31966011249955,485.1115823141214 452.40983005624764,494.62214747707355 460.4999999999981,488.7442949541499 457.40983005625,479.2337297911978 465.50000000000045,473.3558772682741" stroke="black" stroke-linecap="round" stroke-width="1" /><polyline clip-path="url(#border_clip)" fill="none" points="465.50000000000045,473.3558772682741 457.40983005625174,467.47802474534814 465.50000000000045,473.3558772682741 462.4098300562495,482.8664424312254 470.49999999999824,488.7442949541514 478.590169943747,494.6221474770774 475.499999999996,504.13271264002867 467.4098300562456,510.0105651629523 475.499999999996,504.13271264002867 467.4098300562456,510.0105651629523 470.4999999999937,519.5211303259044 480.4999999999938,519.5211303259059 477.4098300562457,510.01056516295375 485.4999999999962,504.13271264003015 493.5901699437449,510.0105651629562 501.68033988749363,515.8884176858822 493.5901699437449,510.0105651629562 490.4999999999968,500.50000000000404 500.499999999997,500.5000000000055" stroke="black" stroke-linecap="round" stroke-width="1" /></svg>