<?xml version="1.0" encoding="UTF-8"?>
<svg width="1e4px" height="1e4px" baseProfile="full" version="1.1" viewBox="4924.3 4924.9 104.27 106.86" xmlns="http://www.w3.org/2000/svg">
<defs>
<clipPath id="a">
<rect width="1e4" height="1e4"/>
</clipPath>
</defs>
<polyline points="5000.5 5000.5 5010.5 5000.5 5020.5 5000.5 5028.6 4994.6 5018.6 4994.6 5010.5 4988.7 5002.4 4994.6 5010.5 4988.7 5002.4 4982.9 5010.5 4977 5002.4 4971.1 4992.4 4971.1 4995.5 4980.6 4998.6 4971.1 4988.6 4971.1 4985.5 4980.6 4975.5 4980.6 4978.6 4990.1 4975.5 4980.6 4983.6 4974.7 4980.5 4965.2 4977.4 4955.7 4985.5 4949.8 4995.5 4949.8 4985.5 4949.8 4995.5 4949.8 4998.6 4940.3 4990.5 4934.5 4987.4 4944 4977.4 4944 4974.3 4934.5 4971.2 4924.9 4974.3 4934.5 4971.2 4944 4963.1 4938.1 4955 4932.2 4945 4932.2 4953.1 4938.1 4956.2 4947.6 4966.2 4947.6 4956.2 4947.6 4959.3 4957.1 4949.3 4957.1" clip-path="url(#a)" fill="none" stroke="#000" stroke-linecap="round"/>
<polyline points="4949.3 4957.1 4952.4 4966.6 4960.5 4972.5 4963.6 4963 4955.5 4968.9 4963.6 4974.7 4971.7 4968.9 4979.8 4974.7 4982.9 4965.2 4979.8 4974.7 4969.8 4974.7 4966.7 4984.3 4963.6 4993.8 4953.6 4993.8 4945.5 4987.9 4953.6 4993.8 4945.5 4987.9 4937.4 4993.8 4940.5 5003.3 4948.6 4997.4 4956.7 5003.3 4953.6 5012.8 4950.5 5022.3 4953.6 5012.8 4961.7 5006.9 4964.8 5016.4 4967.9 5025.9 4976 5031.8 4972.9 5022.3 4976 5012.8 4967.9 5006.9 4976 5012.8 4979 5003.3 4987.1 5009.2 4990.2 4999.6 4987.1 4990.1 4979 4996 4989 4996 4986 4986.5 4976 4986.5 4972.9 4977 4964.8 4982.9 4972.9 4977" clip-path="url(#a)" fill="none" stroke="#000" stroke-linecap="round"/>
<polyline points="4972.9 4977 4981 4982.9 4989 4977 4997.1 4971.1 5005.2 4977 5008.3 4986.5 5005.2 4977 5008.3 4986.5 5018.3 4986.5 5021.4 4977 5011.4 4977 5008.3 4967.5 5016.4 4961.6 5024.5 4955.7 5016.4 4961.6 5006.4 4961.6 5009.5 4952.1 5012.6 4942.6 5009.5 4933.1 5006.4 4942.6 4998.3 4948.5 5001.4 4958 4998.3 4948.5 4990.2 4954.3 4987.1 4944.8 4979 4950.7 4976 4960.2 4986 4960.2 4977.9 4954.3 4974.8 4963.8 4982.9 4969.7 4979.8 4979.2 4989.8 4979.2 4979.8 4979.2 4976.7 4969.7 4966.7 4969.7 4956.7 4969.7 4953.6 4960.2 4956.7 4950.7 4953.6 4960.2 4956.7 4950.7 4948.6 4944.8 4940.5 4950.7" clip-path="url(#a)" fill="none" stroke="#000" stroke-linecap="round"/>
<polyline points="4940.5 4950.7 4948.6 4956.6 4945.5 4966.1 4935.5 4966.1 4925.5 4966.1 4935.5 4966.1 4943.6 4972 4935.5 4977.8 4927.4 4983.7 4924.3 4993.2 4932.4 4987.4 4942.4 4987.4 4945.5 4977.8 4942.4 4987.4 4952.4 4987.4 4949.3 4996.9 4959.3 4996.9 4967.4 4991 4959.3 4985.1 4962.4 4994.6 4970.5 4988.7 4967.4 4979.2 4975.5 4973.4 4967.4 4967.5 4975.5 4973.4 4972.4 4982.9 4980.5 4988.7 4988.6 4994.6 4985.5 5004.1 4977.4 5010 4985.5 5004.1 4977.4 5010 4980.5 5019.5 4990.5 5019.5 4987.4 5010 4995.5 5004.1 5003.6 5010 5011.7 5015.9 5003.6 5010 5000.5 5000.5 5010.5 5000.5 5020.5 5000.5 5028.6 4994.6" clip-path="url(#a)" fill="none" stroke="#000" stroke-linecap="round"/>
<polyline points="5028.6 4994.6 5018.6 4994.6 5010.5 4988.7 5002.4 4994.6 5010.5 4988.7 5002.4 4982.9 5010.5 4977 5002.4 4971.1 4992.4 4971.1 4995.5 4980.6 4998.6 4971.1 4988.6 4971.1 4985.5 4980.6 4975.5 4980.6 4978.6 4990.1 4975.5 4980.6 4983.6 4974.7 4980.5 4965.2 4977.4 4955.7 4985.5 4949.8 4995.5 4949.8 4985.5 4949.8 4995.5 4949.8 4998.6 4940.3 4990.5 4934.5 4987.4 4944 4977.4 4944 4974.3 4934.5 4971.2 4924.9 4974.3 4934.5 4971.2 4944 4963.1 4938.1 4955 4932.2 4945 4932.2 4953.1 4938.1 4956.2 4947.6 4966.2 4947.6 4956.2 4947.6 4959.3 4957.1 4949.3 4957.1 4952.4 4966.6 4960.5 4972.5 4963.6 4963" clip-path="url(#a)" fill="none" stroke="#000" stroke-linecap="round"/>
<polyline points="4963.6 4963 4955.5 4968.9 4963.6 4974.7 4971.7 4968.9 4979.8 4974.7 4982.9 4965.2 4979.8 4974.7 4969.8 4974.7 4966.7 4984.3 4963.6 4993.8 4953.6 4993.8 4945.5 4987.9 4953.6 4993.8 4945.5 4987.9 4937.4 4993.8 4940.5 5003.3 4948.6 4997.4 4956.7 5003.3 4953.6 5012.8 4950.5 5022.3 4953.6 5012.8 4961.7 5006.9 4964.8 5016.4 4967.9 5025.9 4976 5031.8 4972.9 5022.3 4976 5012.8 4967.9 5006.9 4976 5012.8 4979 5003.3 4987.1 5009.2 4990.2 4999.6 4987.1 4990.1 4979 4996 4989 4996 4986 4986.5 4976 4986.5 4972.9 4977 4964.8 4982.9 4972.9 4977 4981 4982.9 4989 4977 4997.1 4971.1" clip-path="url(#a)" fill="none" stroke="#000" stroke-linecap="round"/>
<polyline points="4997.1 4971.1 5005.2 4977 5008.3 4986.5 5005.2 4977 5008.3 4986.5 5018.3 4986.5 5021.4 4977 5011.4 4977 5008.3 4967.5 5016.4 4961.6 5024.5 4955.7 5016.4 4961.6 5006.4 4961.6 5009.5 4952.1 5012.6 4942.6 5009.5 4933.1 5006.4 4942.6 4998.3 4948.5 5001.4 4958 4998.3 4948.5 4990.2 4954.3 4987.1 4944.8 4979 4950.7 4976 4960.2 4986 4960.2 4977.9 4954.3 4974.8 4963.8 4982.9 4969.7 4979.8 4979.2 4989.8 4979.2 4979.8 4979.2 4976.7 4969.7 4966.7 4969.7 4956.7 4969.7 4953.6 4960.2 4956.7 4950.7 4953.6 4960.2 4956.7 4950.7 4948.6 4944.8 4940.5 4950.7 4948.6 4956.6 4945.5 4966.1 4935.5 4966.1" clip-path="url(#a)" fill="none" stroke="#000" stroke-linecap="round"/>
<polyline points="4935.5 4966.1 4925.5 4966.1 4935.5 4966.1 4943.6 4972 4935.5 4977.8 4927.4 4983.7 4924.3 4993.2 4932.4 4987.4 4942.4 4987.4 4945.5 4977.8 4942.4 4987.4 4952.4 4987.4 4949.3 4996.9 4959.3 4996.9 4967.4 4991 4959.3 4985.1 4962.4 4994.6 4970.5 4988.7 4967.4 4979.2 4975.5 4973.4 4967.4 4967.5 4975.5 4973.4 4972.4 4982.9 4980.5 4988.7 4988.6 4994.6 4985.5 5004.1 4977.4 5010 4985.5 5004.1 4977.4 5010 4980.5 5019.5 4990.5 5019.5 4987.4 5010 4995.5 5004.1 5003.6 5010 5011.7 5015.9 5003.6 5010 5000.5 5000.5 5010.5 5000.5 5020.5 5000.5 5028.6 4994.6 5018.6 4994.6 5010.5 4988.7 5002.4 4994.6" clip-path="url(#a)" fill="none" stroke="#000" stroke-linecap="round"/>
<polyline points="5002.4 4994.6 5010.5 4988.7 5002.4 4982.9 5010.5 4977 5002.4 4971.1 4992.4 4971.1 4995.5 4980.6 4998.6 4971.1 4988.6 4971.1 4985.5 4980.6 4975.5 4980.6 4978.6 4990.1 4975.5 4980.6 4983.6 4974.7 4980.5 4965.2 4977.4 4955.7 4985.5 4949.8 4995.5 4949.8 4985.5 4949.8 4995.5 4949.8 4998.6 4940.3 4990.5 4934.5 4987.4 4944 4977.4 4944 4974.3 4934.5 4971.2 4924.9 4974.3 4934.5 4971.2 4944 4963.1 4938.1 4955 4932.2 4945 4932.2 4953.1 4938.1 4956.2 4947.6 4966.2 4947.6 4956.2 4947.6 4959.3 4957.1 4949.3 4957.1 4952.4 4966.6 4960.5 4972.5 4963.6 4963 4955.5 4968.9 4963.6 4974.7 4971.7 4968.9" clip-path="url(#a)" fill="none" stroke="#000" stroke-linecap="round"/>
<polyline points="4971.7 4968.9 4979.8 4974.7 4982.9 4965.2 4979.8 4974.7 4969.8 4974.7 4966.7 4984.3 4963.6 4993.8 4953.6 4993.8 4945.5 4987.9 4953.6 4993.8 4945.5 4987.9 4937.4 4993.8 4940.5 5003.3 4948.6 4997.4 4956.7 5003.3 4953.6 5012.8 4950.5 5022.3 4953.6 5012.8 4961.7 5006.9 4964.8 5016.4 4967.9 5025.9 4976 5031.8 4972.9 5022.3 4976 5012.8 4967.9 5006.9 4976 5012.8 4979 5003.3 4987.1 5009.2 4990.2 4999.6 4987.1 4990.1 4979 4996 4989 4996 4986 4986.5 4976 4986.5 4972.9 4977 4964.8 4982.9 4972.9 4977 4981 4982.9 4989 4977 4997.1 4971.1 5005.2 4977 5008.3 4986.5 5005.2 4977" clip-path="url(#a)" fill="none" stroke="#000" stroke-linecap="round"/>
<polyline points="5005.2 4977 5008.3 4986.5 5018.3 4986.5 5021.4 4977 5011.4 4977 5008.3 4967.5 5016.4 4961.6 5024.5 4955.7 5016.4 4961.6 5006.4 4961.6 5009.5 4952.1 5012.6 4942.6 5009.5 4933.1 5006.4 4942.6 4998.3 4948.5 5001.4 4958 4998.3 4948.5 4990.2 4954.3 4987.1 4944.8 4979 4950.7 4976 4960.2 4986 4960.2 4977.9 4954.3 4974.8 4963.8 4982.9 4969.7 4979.8 4979.2 4989.8 4979.2 4979.8 4979.2 4976.7 4969.7 4966.7 4969.7 4956.7 4969.7 4953.6 4960.2 4956.7 4950.7 4953.6 4960.2 4956.7 4950.7 4948.6 4944.8 4940.5 4950.7 4948.6 4956.6 4945.5 4966.1 4935.5 4966.1 4925.5 4966.1 4935.5 4966.1 4943.6 4972" clip-path="url(#a)" fill="none" stroke="#000" stroke-linecap="round"/>
<polyline points="4943.6 4972 4935.5 4977.8 4927.4 4983.7 4924.3 4993.2 4932.4 4987.4 4942.4 4987.4 4945.5 4977.8 4942.4 4987.4 4952.4 4987.4 4949.3 4996.9 4959.3 4996.9 4967.4 4991 4959.3 4985.1 4962.4 4994.6 4970.5 4988.7 4967.4 4979.2 4975.5 4973.4 4967.4 4967.5 4975.5 4973.4 4972.4 4982.9 4980.5 4988.7 4988.6 4994.6 4985.5 5004.1 4977.4 5010 4985.5 5004.1 4977.4 5010 4980.5 5019.5 4990.5 5019.5 4987.4 5010 4995.5 5004.1 5003.6 5010 5011.7 5015.9 5003.6 5010 5000.5 5000.5 5010.5 5000.5 5020.5 5000.5 5028.6 4994.6 5018.6 4994.6 5010.5 4988.7 5002.4 4994.6 5010.5 4988.7 5002.4 4982.9 5010.5 4977" clip-path="url(#a)" fill="none" stroke="#000" stroke-linecap="round"/>
<polyline points="5010.5 4977 5002.4 4971.1 4992.4 4971.1 4995.5 4980.6 4998.6 4971.1 4988.6 4971.1 4985.5 4980.6 4975.5 4980.6 4978.6 4990.1 4975.5 4980.6 4983.6 4974.7 4980.5 4965.2 4977.4 4955.7 4985.5 4949.8 4995.5 4949.8 4985.5 4949.8 4995.5 4949.8 4998.6 4940.3 4990.5 4934.5 4987.4 4944 4977.4 4944 4974.3 4934.5 4971.2 4924.9 4974.3 4934.5 4971.2 4944 4963.1 4938.1 4955 4932.2 4945 4932.2 4953.1 4938.1 4956.2 4947.6 4966.2 4947.6 4956.2 4947.6 4959.3 4957.1 4949.3 4957.1 4952.4 4966.6 4960.5 4972.5 4963.6 4963 4955.5 4968.9 4963.6 4974.7 4971.7 4968.9 4979.8 4974.7 4982.9 4965.2 4979.8 4974.7" clip-path="url(#a)" fill="none" stroke="#000" stroke-linecap="round"/>
<polyline points="4979.8 4974.7 4969.8 4974.7 4966.7 4984.3 4963.6 4993.8 4953.6 4993.8 4945.5 4987.9 4953.6 4993.8 4945.5 4987.9 4937.4 4993.8 4940.5 5003.3 4948.6 4997.4 4956.7 5003.3 4953.6 5012.8 4950.5 5022.3 4953.6 5012.8 4961.7 5006.9 4964.8 5016.4 4967.9 5025.9 4976 5031.8 4972.9 5022.3 4976 5012.8 4967.9 5006.9 4976 5012.8 4979 5003.3 4987.1 5009.2 4990.2 4999.6 4987.1 4990.1 4979 4996 4989 4996 4986 4986.5 4976 4986.5 4972.9 4977 4964.8 4982.9 4972.9 4977 4981 4982.9 4989 4977 4997.1 4971.1 5005.2 4977 5008.3 4986.5 5005.2 4977 5008.3 4986.5 5018.3 4986.5 5021.4 4977" clip-path="url(#a)" fill="none" stroke="#000" stroke-linecap="round"/>
<polyline points="5021.4 4977 5011.4 4977 5008.3 4967.5 5016.4 4961.6 5024.5 4955.7 5016.4 4961.6 5006.4 4961.6 5009.5 4952.1 5012.6 4942.6 5009.5 4933.1 5006.4 4942.6 4998.3 4948.5 5001.4 4958 4998.3 4948.5 4990.2 4954.3 4987.1 4944.8 4979 4950.7 4976 4960.2 4986 4960.2 4977.9 4954.3 4974.8 4963.8 4982.9 4969.7 4979.8 4979.2 4989.8 4979.2 4979.8 4979.2 4976.7 4969.7 4966.7 4969.7 4956.7 4969.7 4953.6 4960.2 4956.7 4950.7 4953.6 4960.2 4956.7 4950.7 4948.6 4944.8 4940.5 4950.7 4948.6 4956.6 4945.5 4966.1 4935.5 4966.1 4925.5 4966.1 4935.5 4966.1 4943.6 4972 4935.5 4977.8 4927.4 4983.7 4924.3 4993.2" clip-path="url(#a)" fill="none" stroke="#000" stroke-linecap="round"/>
<polyline points="4924.3 4993.2 4932.4 4987.4 4942.4 4987.4 4945.5 4977.8 4942.4 4987.4 4952.4 4987.4 4949.3 4996.9 4959.3 4996.9 4967.4 4991 4959.3 4985.1 4962.4 4994.6 4970.5 4988.7 4967.4 4979.2 4975.5 4973.4 4967.4 4967.5 4975.5 4973.4 4972.4 4982.9 4980.5 4988.7 4988.6 4994.6 4985.5 5004.1 4977.4 5010 4985.5 5004.1 4977.4 5010 4980.5 5019.5 4990.5 5019.5 4987.4 5010 4995.5 5004.1 5003.6 5010 5011.7 5015.9 5003.6 5010 5000.5 5000.5 5010.5 5000.5 5020.5 5000.5 5028.6 4994.6 5018.6 4994.6 5010.5 4988.7 5002.4 4994.6 5010.5 4988.7 5002.4 4982.9 5010.5 4977 5002.4 4971.1 4992.4 4971.1 4995.5 4980.6" clip-path="url(#a)" fill="none" stroke="#000" stroke-linecap="round"/>
<polyline points="4995.5 4980.6 4998.6 4971.1 4988.6 4971.1 4985.5 4980.6 4975.5 4980.6 4978.6 4990.1 4975.5 4980.6 4983.6 4974.7 4980.5 4965.2 4977.4 4955.7 4985.5 4949.8 4995.5 4949.8 4985.5 4949.8 4995.5 4949.8 4998.6 4940.3 4990.5 4934.5 4987.4 4944 4977.4 4944 4974.3 4934.5 4971.2 4924.9 4974.3 4934.5 4971.2 4944 4963.1 4938.1 4955 4932.2 4945 4932.2 4953.1 4938.1 4956.2 4947.6 4966.2 4947.6 4956.2 4947.6 4959.3 4957.1 4949.3 4957.1 4952.4 4966.6 4960.5 4972.5 4963.6 4963 4955.5 4968.9 4963.6 4974.7 4971.7 4968.9 4979.8 4974.7 4982.9 4965.2 4979.8 4974.7 4969.8 4974.7 4966.7 4984.3 4963.6 4993.8" clip-path="url(#a)" fill="none" stroke="#000" stroke-linecap="round"/>
<polyline points="4963.6 4993.8 4953.6 4993.8 4945.5 4987.9 4953.6 4993.8 4945.5 4987.9 4937.4 4993.8 4940.5 5003.3 4948.6 4997.4 4956.7 5003.3 4953.6 5012.8 4950.5 5022.3 4953.6 5012.8 4961.7 5006.9 4964.8 5016.4 4967.9 5025.9 4976 5031.8 4972.9 5022.3 4976 5012.8 4967.9 5006.9 4976 5012.8 4979 5003.3 4987.1 5009.2 4990.2 4999.6 4987.1 4990.1 4979 4996 4989 4996 4986 4986.5 4976 4986.5 4972.9 4977 4964.8 4982.9 4972.9 4977 4981 4982.9 4989 4977 4997.1 4971.1 5005.2 4977 5008.3 4986.5 5005.2 4977 5008.3 4986.5 5018.3 4986.5 5021.4 4977 5011.4 4977 5008.3 4967.5 5016.4 4961.6" clip-path="url(#a)" fill="none" stroke="#000" stroke-linecap="round"/>
<polyline points="5016.4 4961.6 5024.5 4955.7 5016.4 4961.6 5006.4 4961.6 5009.5 4952.1 5012.6 4942.6 5009.5 4933.1 5006.4 4942.6 4998.3 4948.5 5001.4 4958 4998.3 4948.5 4990.2 4954.3 4987.1 4944.8 4979 4950.7 4976 4960.2 4986 4960.2 4977.9 4954.3 4974.8 4963.8 4982.9 4969.7 4979.8 4979.2 4989.8 4979.2 4979.8 4979.2 4976.7 4969.7 4966.7 4969.7 4956.7 4969.7 4953.6 4960.2 4956.7 4950.7 4953.6 4960.2 4956.7 4950.7 4948.6 4944.8 4940.5 4950.7 4948.6 4956.6 4945.5 4966.1 4935.5 4966.1 4925.5 4966.1 4935.5 4966.1 4943.6 4972 4935.5 4977.8 4927.4 4983.7 4924.3 4993.2 4932.4 4987.4 4942.4 4987.4 4945.5 4977.8" clip-path="url(#a)" fill="none" stroke="#000" stroke-linecap="round"/>
<polyline points="4945.5 4977.8 4942.4 4987.4 4952.4 4987.4 4949.3 4996.9 4959.3 4996.9 4967.4 4991 4959.3 4985.1 4962.4 4994.6 4970.5 4988.7 4967.4 4979.2 4975.5 4973.4 4967.4 4967.5 4975.5 4973.4 4972.4 4982.9 4980.5 4988.7 4988.6 4994.6 4985.5 5004.1 4977.4 5010 4985.5 5004.1 4977.4 5010 4980.5 5019.5 4990.5 5019.5 4987.4 5010 4995.5 5004.1 5003.6 5010 5011.7 5015.9 5003.6 5010 5000.5 5000.5 5010.5 5000.5 5020.5 5000.5 5028.6 4994.6 5018.6 4994.6 5010.5 4988.7 5002.4 4994.6 5010.5 4988.7 5002.4 4982.9 5010.5 4977 5002.4 4971.1 4992.4 4971.1 4995.5 4980.6 4998.6 4971.1 4988.6 4971.1 4985.5 4980.6" clip-path="url(#a)" fill="none" stroke="#000" stroke-linecap="round"/>
<polyline points="4985.5 4980.6 4975.5 4980.6 4978.6 4990.1 4975.5 4980.6 4983.6 4974.7 4980.5 4965.2 4977.4 4955.7 4985.5 4949.8 4995.5 4949.8 4985.5 4949.8 4995.5 4949.8 4998.6 4940.3 4990.5 4934.5 4987.4 4944 4977.4 4944 4974.3 4934.5 4971.2 4924.9 4974.3 4934.5 4971.2 4944 4963.1 4938.1 4955 4932.2 4945 4932.2 4953.1 4938.1 4956.2 4947.6 4966.2 4947.6 4956.2 4947.6 4959.3 4957.1 4949.3 4957.1 4952.4 4966.6 4960.5 4972.5 4963.6 4963 4955.5 4968.9 4963.6 4974.7 4971.7 4968.9 4979.8 4974.7 4982.9 4965.2 4979.8 4974.7 4969.8 4974.7 4966.7 4984.3 4963.6 4993.8 4953.6 4993.8 4945.5 4987.9 4953.6 4993.8" clip-path="url(#a)" fill="none" stroke="#000" stroke-linecap="round"/>
<polyline points="4953.6 4993.8 4945.5 4987.9 4937.4 4993.8 4940.5 5003.3 4948.6 4997.4 4956.7 5003.3 4953.6 5012.8 4950.5 5022.3 4953.6 5012.8 4961.7 5006.9 4964.8 5016.4 4967.9 5025.9 4976 5031.8 4972.9 5022.3 4976 5012.8 4967.9 5006.9 4976 5012.8 4979 5003.3 4987.1 5009.2 4990.2 4999.6 4987.1 4990.1 4979 4996 4989 4996 4986 4986.5 4976 4986.5 4972.9 4977 4964.8 4982.9 4972.9 4977 4981 4982.9 4989 4977 4997.1 4971.1 5005.2 4977 5008.3 4986.5 5005.2 4977 5008.3 4986.5 5018.3 4986.5 5021.4 4977 5011.4 4977 5008.3 4967.5 5016.4 4961.6 5024.5 4955.7 5016.4 4961.6 5006.4 4961.6" clip-path="url(#a)" fill="none" stroke="#000" stroke-linecap="round"/>
<polyline points="5006.4 4961.6 5009.5 4952.1 5012.6 4942.6 5009.5 4933.1 5006.4 4942.6 4998.3 4948.5 5001.4 4958 4998.3 4948.5 4990.2 4954.3 4987.1 4944.8 4979 4950.7 4976 4960.2 4986 4960.2 4977.9 4954.3 4974.8 4963.8 4982.9 4969.7 4979.8 4979.2 4989.8 4979.2 4979.8 4979.2 4976.7 4969.7 4966.7 4969.7 4956.7 4969.7 4953.6 4960.2 4956.7 4950.7 4953.6 4960.2 4956.7 4950.7 4948.6 4944.8 4940.5 4950.7 4948.6 4956.6 4945.5 4966.1 4935.5 4966.1 4925.5 4966.1 4935.5 4966.1 4943.6 4972 4935.5 4977.8 4927.4 4983.7 4924.3 4993.2 4932.4 4987.4 4942.4 4987.4 4945.5 4977.8 4942.4 4987.4 4952.4 4987.4 4949.3 4996.9" clip-path="url(#a)" fill="none" stroke="#000" stroke-linecap="round"/>
<polyline points="4949.3 4996.9 4959.3 4996.9 4967.4 4991 4959.3 4985.1 4962.4 4994.6 4970.5 4988.7 4967.4 4979.2 4975.5 4973.4 4967.4 4967.5 4975.5 4973.4 4972.4 4982.9 4980.5 4988.7 4988.6 4994.6 4985.5 5004.1 4977.4 5010 4985.5 5004.1 4977.4 5010 4980.5 5019.5 4990.5 5019.5 4987.4 5010 4995.5 5004.1 5003.6 5010 5011.7 5015.9 5003.6 5010 5000.5 5000.5 5010.5 5000.5 5020.5 5000.5 5028.6 4994.6 5018.6 4994.6 5010.5 4988.7 5002.4 4994.6 5010.5 4988.7 5002.4 4982.9 5010.5 4977 5002.4 4971.1 4992.4 4971.1 4995.5 4980.6 4998.6 4971.1 4988.6 4971.1 4985.5 4980.6 4975.5 4980.6 4978.6 4990.1 4975.5 4980.6" clip-path="url(#a)" fill="none" stroke="#000" stroke-linecap="round"/>
<polyline points="4975.5 4980.6 4983.6 4974.7 4980.5 4965.2 4977.4 4955.7 4985.5 4949.8 4995.5 4949.8 4985.5 4949.8 4995.5 4949.8 4998.6 4940.3 4990.5 4934.5 4987.4 4944 4977.4 4944 4974.3 4934.5 4971.2 4924.9 4974.3 4934.5 4971.2 4944 4963.1 4938.1 4955 4932.2 4945 4932.2 4953.1 4938.1 4956.2 4947.6 4966.2 4947.6 4956.2 4947.6 4959.3 4957.1 4949.3 4957.1 4952.4 4966.6 4960.5 4972.5 4963.6 4963 4955.5 4968.9 4963.6 4974.7 4971.7 4968.9 4979.8 4974.7 4982.9 4965.2 4979.8 4974.7 4969.8 4974.7 4966.7 4984.3 4963.6 4993.8 4953.6 4993.8 4945.5 4987.9 4953.6 4993.8 4945.5 4987.9 4937.4 4993.8 4940.5 5003.3" clip-path="url(#a)" fill="none" stroke="#000" stroke-linecap="round"/>
<polyline points="4940.5 5003.3 4948.6 4997.4 4956.7 5003.3 4953.6 5012.8 4950.5 5022.3 4953.6 5012.8 4961.7 5006.9 4964.8 5016.4 4967.9 5025.9 4976 5031.8 4972.9 5022.3 4976 5012.8 4967.9 5006.9 4976 5012.8 4979 5003.3 4987.1 5009.2 4990.2 4999.6 4987.1 4990.1 4979 4996 4989 4996 4986 4986.5 4976 4986.5 4972.9 4977 4964.8 4982.9 4972.9 4977 4981 4982.9 4989 4977 4997.1 4971.1 5005.2 4977 5008.3 4986.5 5005.2 4977 5008.3 4986.5 5018.3 4986.5 5021.4 4977 5011.4 4977 5008.3 4967.5 5016.4 4961.6 5024.5 4955.7 5016.4 4961.6 5006.4 4961.6 5009.5 4952.1 5012.6 4942.6 5009.5 4933.1" clip-path="url(#a)" fill="none" stroke="#000" stroke-linecap="round"/>
<polyline points="5009.5 4933.1 5006.4 4942.6 4998.3 4948.5 5001.4 4958 4998.3 4948.5 4990.2 4954.3 4987.1 4944.8 4979 4950.7 4976 4960.2 4986 4960.2 4977.9 4954.3 4974.8 4963.8 4982.9 4969.7 4979.8 4979.2 4989.8 4979.2 4979.8 4979.2 4976.7 4969.7 4966.7 4969.7 4956.7 4969.7 4953.6 4960.2 4956.7 4950.7 4953.6 4960.2 4956.7 4950.7 4948.6 4944.8 4940.5 4950.7 4948.6 4956.6 4945.5 4966.1 4935.5 4966.1 4925.5 4966.1 4935.5 4966.1 4943.6 4972 4935.5 4977.8 4927.4 4983.7 4924.3 4993.2 4932.4 4987.4 4942.4 4987.4 4945.5 4977.8 4942.4 4987.4 4952.4 4987.4 4949.3 4996.9 4959.3 4996.9 4967.4 4991 4959.3 4985.1" clip-path="url(#a)" fill="none" stroke="#000" stroke-linecap="round"/>
<polyline points="4959.3 4985.1 4962.4 4994.6 4970.5 4988.7 4967.4 4979.2 4975.5 4973.4 4967.4 4967.5 4975.5 4973.4 4972.4 4982.9 4980.5 4988.7 4988.6 4994.6 4985.5 5004.1 4977.4 5010 4985.5 5004.1 4977.4 5010 4980.5 5019.5 4990.5 5019.5 4987.4 5010 4995.5 5004.1 5003.6 5010 5011.7 5015.9 5003.6 5010 5000.5 5000.5 5010.5 5000.5 5020.5 5000.5 5028.6 4994.6 5018.6 4994.6 5010.5 4988.7 5002.4 4994.6 5010.5 4988.7 5002.4 4982.9 5010.5 4977 5002.4 4971.1 4992.4 4971.1 4995.5 4980.6 4998.6 4971.1 4988.6 4971.1 4985.5 4980.6 4975.5 4980.6 4978.6 4990.1 4975.5 4980.6 4983.6 4974.7 4980.5 4965.2 4977.4 4955.7" clip-path="url(#a)" fill="none" stroke="#000" stroke-linecap="round"/>
<polyline points="4977.4 4955.7 4985.5 4949.8 4995.5 4949.8 4985.5 4949.8 4995.5 4949.8 4998.6 4940.3 4990.5 4934.5 4987.4 4944 4977.4 4944 4974.3 4934.5 4971.2 4924.9 4974.3 4934.5 4971.2 4944 4963.1 4938.1 4955 4932.2 4945 4932.2 4953.1 4938.1 4956.2 4947.6 4966.2 4947.6 4956.2 4947.6 4959.3 4957.1 4949.3 4957.1 4952.4 4966.6 4960.5 4972.5 4963.6 4963 4955.5 4968.9 4963.6 4974.7 4971.7 4968.9 4979.8 4974.7 4982.9 4965.2 4979.8 4974.7 4969.8 4974.7 4966.7 4984.3 4963.6 4993.8 4953.6 4993.8 4945.5 4987.9 4953.6 4993.8 4945.5 4987.9 4937.4 4993.8 4940.5 5003.3 4948.6 4997.4 4956.7 5003.3 4953.6 5012.8" clip-path="url(#a)" fill="none" stroke="#000" stroke-linecap="round"/>
<polyline points="4953.6 5012.8 4950.5 5022.3 4953.6 5012.8 4961.7 5006.9 4964.8 5016.4 4967.9 5025.9 4976 5031.8 4972.9 5022.3 4976 5012.8 4967.9 5006.9 4976 5012.8 4979 5003.3 4987.1 5009.2 4990.2 4999.6 4987.1 4990.1 4979 4996 4989 4996 4986 4986.5 4976 4986.5 4972.9 4977 4964.8 4982.9 4972.9 4977 4981 4982.9 4989 4977 4997.1 4971.1 5005.2 4977 5008.3 4986.5 5005.2 4977 5008.3 4986.5 5018.3 4986.5 5021.4 4977 5011.4 4977 5008.3 4967.5 5016.4 4961.6 5024.5 4955.7 5016.4 4961.6 5006.4 4961.6 5009.5 4952.1 5012.6 4942.6 5009.5 4933.1 5006.4 4942.6 4998.3 4948.5 5001.4 4958" clip-path="url(#a)" fill="none" stroke="#000" stroke-linecap="round"/>
<polyline points="5001.4 4958 4998.3 4948.5 4990.2 4954.3 4987.1 4944.8 4979 4950.7 4976 4960.2 4986 4960.2 4977.9 4954.3 4974.8 4963.8 4982.9 4969.7 4979.8 4979.2 4989.8 4979.2 4979.8 4979.2 4976.7 4969.7 4966.7 4969.7 4956.7 4969.7 4953.6 4960.2 4956.7 4950.7 4953.6 4960.2 4956.7 4950.7 4948.6 4944.8 4940.5 4950.7 4948.6 4956.6 4945.5 4966.1 4935.5 4966.1 4925.5 4966.1 4935.5 4966.1 4943.6 4972 4935.5 4977.8 4927.4 4983.7 4924.3 4993.2 4932.4 4987.4 4942.4 4987.4 4945.5 4977.8 4942.4 4987.4 4952.4 4987.4 4949.3 4996.9 4959.3 4996.9 4967.4 4991 4959.3 4985.1 4962.4 4994.6 4970.5 4988.7 4967.4 4979.2" clip-path="url(#a)" fill="none" stroke="#000" stroke-linecap="round"/>
<polyline points="4967.4 4979.2 4975.5 4973.4 4967.4 4967.5 4975.5 4973.4 4972.4 4982.9 4980.5 4988.7 4988.6 4994.6 4985.5 5004.1 4977.4 5010 4985.5 5004.1 4977.4 5010 4980.5 5019.5 4990.5 5019.5 4987.4 5010 4995.5 5004.1 5003.6 5010 5011.7 5015.9 5003.6 5010 5000.5 5000.5" clip-path="url(#a)" fill="none" stroke="#000" stroke-linecap="round"/>
</svg>
