<?xml version="1.0" encoding="utf-8" ?>
<svg baseProfile="full" height="10000px" version="1.1" width="10000px" xmlns="http://www.w3.org/2000/svg" xmlns:ev="http://www.w3.org/2001/xml-events" xmlns:xlink="http://www.w3.org/1999/xlink"><defs><clipPath id="border_clip"><rect height="10000" width="10000" x="0" y="0" /></clipPath></defs><polyline clip-path="url(#border_clip)" fill="none" points="5000.5,5000.5 5010.5,5000.5 5018.590169943749,4994.6221474770755 5008.590169943749,4994.6221474770755 5005.5,5004.1327126400265 4995.5,5004.1327126400265 5005.5,5004.1327126400265 5002.409830056251,5013.643277802978 5005.5,5023.1538429659295 5008.590169943749,5013.643277802978 5000.5,5007.765425280054 5003.590169943749,4998.254860117102 5000.5,5007.765425280054 4992.409830056251,5001.8875727571285 4982.409830056251,5001.8875727571285 4990.5,5007.765425280054 4998.590169943749,5001.8875727571285 5006.680339887499,5007.765425280054 4998.590169943749,5001.8875727571285 5006.680339887499,4996.009720234204 5009.770509831248,4986.499155071253 5001.680339887499,4992.3770075941775 5004.770509831248,5001.8875727571285 4996.680339887499,5007.765425280054 5004.770509831248,5001.8875727571285 5007.860679774998,5011.39813792008 5015.950849718747,5017.275990443005 5012.860679774998,5007.765425280054 5002.860679774998,5007.765425280054 4999.770509831248,4998.254860117102 5002.860679774998,5007.765425280054 4992.860679774998,5007.765425280054 4984.770509831248,5013.643277802978 4994.770509831248,5013.643277802978 4997.860679774998,5004.1327126400265 5007.860679774998,5004.1327126400265 4997.860679774998,5004.1327126400265 5000.950849718747,4994.6221474770755 4997.860679774998,4985.111582314124 4994.770509831248,4994.6221474770755 5002.860679774998,5000.5 4999.770509831248,5010.010565162952 5002.860679774998,5000.5" stroke="black" stroke-linecap="round" stroke-width="1" /><polyline clip-path="url(#border_clip)" fill="none" points="5002.860679774998,5000.5 5010.950849718747,5006.3778525229245 5020.950849718747,5006.3778525229245 5012.860679774998,5000.5 5004.770509831248,5006.3778525229245 4996.680339887499,5000.5 5004.770509831248,5006.3778525229245 4996.680339887499,5012.255705045849 4993.590169943749,5021.766270208801 5001.680339887499,5015.888417685876 4998.590169943749,5006.3778525229245 5006.680339887499,5000.5 4998.590169943749,5006.3778525229245 4995.5,4996.8672873599735 4987.409830056251,4990.989434837048 4990.5,5000.5 5000.5,5000.5 5003.590169943749,5010.010565162952 5000.5,5000.5 5010.5,5000.5 5018.59016994375,4994.6221474770755 5008.59016994375,4994.6221474770755 5005.5,5004.1327126400265 4995.5,5004.1327126400265 5005.5,5004.1327126400265 5002.40983005625,5013.643277802978 5005.5,5023.1538429659295 5008.590169943749,5013.643277802978 5000.5,5007.765425280054 5003.59016994375,4998.254860117102 5000.5,5007.765425280054 4992.409830056251,5001.8875727571285 4982.409830056251,5001.8875727571285 4990.5,5007.765425280054 4998.590169943749,5001.8875727571285 5006.680339887499,5007.765425280054 4998.590169943749,5001.8875727571285 5006.680339887499,4996.009720234204 5009.770509831249,4986.499155071253 5001.680339887499,4992.3770075941775 5004.770509831248,5001.8875727571285 4996.680339887499,5007.765425280054 5004.770509831248,5001.8875727571285" stroke="black" stroke-linecap="round" stroke-width="1" /><polyline clip-path="url(#border_clip)" fill="none" points="5004.770509831248,5001.8875727571285 5007.860679774998,5011.39813792008 5015.950849718747,5017.275990443005 5012.860679774998,5007.765425280054 5002.860679774998,5007.765425280054 4999.770509831248,4998.254860117102 5002.860679774998,5007.765425280054 4992.860679774998,5007.765425280054 4984.770509831248,5013.643277802978 4994.770509831248,5013.643277802978 4997.860679774998,5004.1327126400265 5007.860679774998,5004.1327126400265 4997.860679774998,5004.1327126400265 5000.950849718747,4994.6221474770755 4997.860679774998,4985.111582314124 4994.770509831248,4994.6221474770755 5002.860679774998,5000.5 4999.770509831248,5010.010565162952 5002.860679774998,5000.5 5010.950849718747,5006.3778525229245 5020.950849718747,5006.3778525229245 5012.860679774998,5000.5 5004.770509831248,5006.3778525229245 4996.680339887499,5000.5 5004.770509831248,5006.3778525229245 4996.680339887499,5012.255705045849 4993.590169943749,5021.766270208801 5001.680339887499,5015.888417685876 4998.590169943749,5006.3778525229245 5006.680339887499,5000.5 4998.590169943749,5006.3778525229245 4995.5,4996.8672873599735 4987.409830056251,4990.989434837048 4990.5,5000.5 5000.5,5000.5 5003.590169943749,5010.010565162952 5000.5,5000.5" stroke="black" stroke-linecap="round" stroke-width="1" /></svg>