<?xml version="1.0" encoding="utf-8" ?>
<svg baseProfile="full" height="1000px" version="1.1" width="1000px" xmlns="http://www.w3.org/2000/svg" xmlns:ev="http://www.w3.org/2001/xml-events" xmlns:xlink="http://www.w3.org/1999/xlink"><defs><clipPath id="border_clip"><rect height="1000" width="1000" x="0" y="0" /></clipPath></defs><polyline clip-path="url(#border_clip)" fill="none" points="500.5,500.5 510.5,500.5 502.40983005625054,494.62214747707526 494.319660112501,500.5 486.22949016875157,494.62214747707526 494.319660112501,500.5 486.22949016875157,506.37785252292474 483.1393202250021,515.8884176858762 491.22949016875157,510.01056516295154 488.1393202250021,500.5 496.22949016875157,494.62214747707526 488.1393202250021,500.5 485.04915028125265,490.98943483704846 476.9589803375032,485.1115823141237 480.04915028125265,494.62214747707526 490.04915028125265,494.62214747707526 493.1393202250021,504.1327126400268 490.04915028125265,494.62214747707526 500.04915028125265,494.62214747707526 508.1393202250021,488.7442949541506 498.1393202250021,488.7442949541506 495.04915028125265,498.25486011710206 485.04915028125265,498.25486011710206 495.04915028125265,498.25486011710206 491.95898033750314,507.7654252800536 495.0491502812526,517.2759904430052 498.1393202250021,507.76542528005365 490.04915028125265,501.88757275712885 493.1393202250021,492.37700759417737 490.04915028125265,501.88757275712885 481.95898033750314,496.0097202342041 471.95898033750314,496.0097202342041 480.0491502812526,501.88757275712885 488.1393202250021,496.0097202342041 496.22949016875157,501.8875727571289 488.1393202250021,496.0097202342041 496.2294901687516,490.1318677112794 499.31966011250114,480.6213025483279 491.2294901687516,486.49915507125263 494.319660112501,496.00972023420417 486.22949016875157,501.88757275712885 494.319660112501,496.00972023420417 497.4098300562505,505.5202853971557" stroke="black" stroke-linecap="round" stroke-width="1" /><polyline clip-path="url(#border_clip)" fill="none" points="497.4098300562505,505.5202853971557 505.49999999999994,511.3981379200805 502.4098300562505,501.8875727571289 492.4098300562505,501.8875727571289 489.3196601125011,492.3770075941773 492.4098300562505,501.8875727571289 482.4098300562505,501.88757275712885 474.31966011250097,507.76542528005353 484.31966011250097,507.7654252800536 487.40983005625054,498.25486011710206 497.40983005625054,498.2548601171021 487.40983005625054,498.25486011710206 490.50000000000006,488.7442949541505 487.40983005625066,479.233729791199 484.3196601125011,488.7442949541505 492.40983005625054,494.62214747707526 489.319660112501,504.1327126400268 492.40983005625054,494.62214747707526 500.5,500.50000000000006 510.5,500.5000000000001 502.40983005625054,494.6221474770754 494.319660112501,500.5 486.2294901687516,494.62214747707526 494.319660112501,500.5 486.2294901687515,506.3778525229247 483.139320225002,515.8884176858762 491.2294901687515,510.01056516295154 488.1393202250021,500.5 496.2294901687516,494.6221474770753 488.1393202250021,500.5 485.0491502812527,490.9894348370484 476.95898033750325,485.1115823141236 480.04915028125265,494.6221474770752 490.04915028125265,494.62214747707526 493.13932022500205,504.13271264002685 490.04915028125265,494.62214747707526 500.04915028125265,494.6221474770754 508.13932022500217,488.7442949541507 498.13932022500217,488.74429495415063 495.04915028125265,498.2548601171021 485.04915028125265,498.254860117102 495.04915028125265,498.2548601171021 491.9589803375031,507.7654252800536" stroke="black" stroke-linecap="round" stroke-width="1" /><polyline clip-path="url(#border_clip)" fill="none" points="491.9589803375031,507.7654252800536 495.0491502812524,517.2759904430052 498.139320225002,507.76542528005365 490.0491502812526,501.88757275712885 493.13932022500217,492.37700759417737 490.0491502812526,501.88757275712885 481.9589803375032,496.00972023420405 471.9589803375032,496.00972023420394 480.0491502812526,501.8875727571288 488.1393202250021,496.0097202342041 496.2294901687515,501.88757275712896 488.1393202250021,496.0097202342041 496.2294901687517,490.1318677112795 499.31966011250125,480.621302548328 491.2294901687517,486.49915507125263 494.3196601125011,496.0097202342042 486.2294901687515,501.88757275712885 494.3196601125011,496.0097202342042 497.4098300562504,505.52028539715576 505.49999999999983,511.3981379200806 502.4098300562505,501.887572757129 492.4098300562505,501.8875727571289 489.31966011250114,492.3770075941773 492.4098300562505,501.8875727571289 482.4098300562505,501.8875727571288 474.3196601125009,507.7654252800534 484.3196601125009,507.76542528005353 487.40983005625054,498.25486011710206 497.40983005625054,498.25486011710217 487.40983005625054,498.25486011710206 490.5000000000001,488.7442949541505 487.40983005625077,479.233729791199 484.3196601125012,488.74429495415046 492.4098300562506,494.6221474770753 489.31966011250097,504.1327126400268 492.4098300562506,494.6221474770753 500.49999999999994,500.5000000000001" stroke="black" stroke-linecap="round" stroke-width="1" /></svg>