<?xml version="1.0" encoding="utf-8" ?>
<svg baseProfile="full" height="500px" version="1.1" width="500px" xmlns="http://www.w3.org/2000/svg" xmlns:ev="http://www.w3.org/2001/xml-events" xmlns:xlink="http://www.w3.org/1999/xlink"><defs><clipPath id="border_clip"><rect height="500" width="500" x="0" y="0" /></clipPath></defs><polyline clip-path="url(#border_clip)" fill="none" points="250.5,250.5 260.5,250.5 250.5,250.5 253.59016994374946,260.01056516295154 261.680339887499,254.1327126400268 253.5901699437495,248.25486011710208 250.5,257.7654252800536 260.5,257.7654252800536 257.40983005625054,248.25486011710208 249.31966011250105,254.1327126400268 257.40983005625054,260.01056516295154 260.5,250.5 250.5,250.5 253.59016994374946,260.01056516295154 261.680339887499,254.13271264002682 253.5901699437495,248.25486011710206 250.5,257.7654252800536 260.5,257.7654252800536 257.40983005625054,248.25486011710208 249.31966011250105,254.1327126400268 257.4098300562505,260.01056516295154 260.5,250.5 250.5,250.49999999999997 253.59016994374946,260.01056516295154 261.680339887499,254.13271264002682 253.5901699437495,248.25486011710206 250.49999999999997,257.7654252800536 260.5,257.76542528005365 257.40983005625054,248.25486011710208 249.31966011250105,254.1327126400268 257.4098300562505,260.01056516295154 260.5,250.5 250.5,250.49999999999997 253.59016994374946,260.01056516295154 261.680339887499,254.13271264002682 253.5901699437495,248.25486011710206 250.49999999999997,257.7654252800536 260.5,257.76542528005365 257.40983005625054,248.25486011710206 249.31966011250103,254.13271264002677 257.4098300562505,260.01056516295154 260.5,250.5 250.5,250.49999999999997" stroke="black" stroke-linecap="round" stroke-width="1" /><polyline clip-path="url(#border_clip)" fill="none" points="250.5,250.49999999999997 253.59016994374943,260.01056516295154 261.680339887499,254.13271264002682 253.5901699437495,248.25486011710206 250.49999999999997,257.7654252800536 260.5,257.76542528005365 257.40983005625054,248.25486011710206 249.31966011250103,254.13271264002677 257.4098300562505,260.01056516295154 260.5,250.5 250.5,250.49999999999997 253.59016994374943,260.01056516295154 261.680339887499,254.13271264002682 253.5901699437495,248.25486011710206 250.49999999999997,257.7654252800536 260.5,257.76542528005365 257.40983005625054,248.25486011710206 249.31966011250103,254.13271264002677 257.4098300562505,260.01056516295154 260.50000000000006,250.50000000000003 250.5,250.49999999999994 253.59016994374943,260.01056516295154 261.680339887499,254.13271264002685 253.59016994374952,248.25486011710203 250.49999999999994,257.7654252800536 260.5,257.76542528005365 257.4098300562506,248.25486011710206 249.31966011250103,254.13271264002677 257.4098300562505,260.0105651629516 260.50000000000006,250.50000000000003 250.5,250.49999999999994 253.59016994374943,260.01056516295154 261.680339887499,254.13271264002685 253.59016994374952,248.25486011710203 250.49999999999994,257.7654252800536 260.5,257.76542528005365 257.4098300562506,248.25486011710206 249.31966011250103,254.13271264002674 257.4098300562505,260.0105651629516 260.50000000000006,250.50000000000003 250.5,250.49999999999994 253.5901699437494,260.01056516295154 261.680339887499,254.13271264002685" stroke="black" stroke-linecap="round" stroke-width="1" /><polyline clip-path="url(#border_clip)" fill="none" points="261.680339887499,254.13271264002685 253.59016994374952,248.25486011710203 250.49999999999994,257.7654252800536 260.5,257.76542528005365 257.4098300562506,248.25486011710206 249.31966011250103,254.13271264002674 257.4098300562505,260.0105651629516 260.50000000000006,250.50000000000003 250.5,250.49999999999994 253.5901699437494,260.01056516295154 261.680339887499,254.13271264002685 253.59016994374952,248.25486011710203 250.49999999999994,257.7654252800536 260.5,257.76542528005365 257.4098300562506,248.25486011710206 249.31966011250103,254.13271264002674 257.4098300562505,260.0105651629516 260.50000000000006,250.50000000000003 250.5,250.49999999999991 253.5901699437494,260.01056516295154 261.680339887499,254.13271264002688 253.59016994374952,248.25486011710203 250.49999999999994,257.7654252800536 260.5,257.7654252800537 257.4098300562506,248.25486011710206 249.31966011250103,254.13271264002674 257.4098300562505,260.0105651629516 260.50000000000006,250.50000000000003 250.50000000000003,250.49999999999991 253.5901699437494,260.01056516295154 261.680339887499,254.13271264002688 253.59016994374954,248.25486011710203 250.49999999999991,257.7654252800536 260.5,257.7654252800537 257.4098300562506,248.25486011710206 249.31966011250103,254.13271264002674 257.4098300562505,260.0105651629516 260.50000000000006,250.50000000000003 250.50000000000003,250.49999999999991 253.59016994374937,260.01056516295154 261.680339887499,254.13271264002688 253.59016994374954,248.254860117102 250.49999999999991,257.76542528005353" stroke="black" stroke-linecap="round" stroke-width="1" /><polyline clip-path="url(#border_clip)" fill="none" points="250.49999999999991,257.76542528005353 260.5,257.7654252800537 257.4098300562506,248.25486011710206 249.31966011250103,254.1327126400267 257.4098300562504,260.0105651629516 260.50000000000006,250.50000000000006 250.50000000000003,250.49999999999991 253.59016994374937,260.01056516295154 261.680339887499,254.13271264002688 253.59016994374954,248.254860117102 250.49999999999991,257.76542528005353 260.5,257.7654252800537 257.4098300562506,248.25486011710206 249.31966011250103,254.1327126400267 257.4098300562504,260.0105651629516 260.50000000000006,250.50000000000006 250.50000000000003,250.4999999999999 253.59016994374937,260.01056516295154 261.680339887499,254.13271264002688 253.59016994374954,248.254860117102 250.49999999999991,257.76542528005353 260.5,257.7654252800537 257.4098300562506,248.25486011710206 249.319660112501,254.1327126400267 257.4098300562504,260.0105651629516 260.5000000000001,250.50000000000006 250.50000000000003,250.4999999999999 253.59016994374937,260.01056516295154 261.680339887499,254.13271264002688 253.59016994374954,248.254860117102 250.49999999999991,257.76542528005353 260.5,257.7654252800537 257.40983005625066,248.25486011710206 249.319660112501,254.13271264002668 257.4098300562504,260.0105651629516 260.5000000000001,250.50000000000006 250.50000000000003,250.4999999999999 253.59016994374937,260.01056516295154 261.680339887499,254.1327126400269 253.59016994374957,248.254860117102 250.49999999999991,257.76542528005353 260.5,257.7654252800537 257.40983005625066,248.25486011710206" stroke="black" stroke-linecap="round" stroke-width="1" /><polyline clip-path="url(#border_clip)" fill="none" points="257.40983005625066,248.25486011710206 249.319660112501,254.13271264002668 257.4098300562504,260.0105651629516 260.5000000000001,250.50000000000006 250.50000000000003,250.4999999999999 253.59016994374934,260.01056516295154 261.680339887499,254.1327126400269 253.59016994374957,248.254860117102 250.4999999999999,257.76542528005353 260.5,257.7654252800537 257.40983005625066,248.25486011710206 249.319660112501,254.13271264002668 257.4098300562504,260.0105651629516 260.5000000000001,250.50000000000006 250.50000000000003,250.4999999999999 253.59016994374934,260.01056516295154 261.680339887499,254.1327126400269 253.59016994374957,248.254860117102 250.4999999999999,257.76542528005353 260.5,257.7654252800537 257.40983005625066,248.25486011710206 249.319660112501,254.13271264002668 257.4098300562504,260.0105651629516 260.5000000000001,250.50000000000006 250.50000000000003,250.49999999999986 253.59016994374934,260.01056516295154 261.680339887499,254.1327126400269 253.59016994374957,248.254860117102 250.4999999999999,257.76542528005353 260.5,257.76542528005376 257.40983005625066,248.25486011710206 249.319660112501,254.13271264002668 257.4098300562504,260.0105651629516 260.5000000000001,250.50000000000006 250.50000000000003,250.49999999999986 253.59016994374934,260.01056516295154 261.68033988749903,254.13271264002694 253.59016994374957,248.25486011710197 250.4999999999999,257.76542528005353 260.49999999999994,257.76542528005376 257.40983005625066,248.25486011710206 249.319660112501,254.13271264002668 257.4098300562504,260.01056516295165" stroke="black" stroke-linecap="round" stroke-width="1" /><polyline clip-path="url(#border_clip)" fill="none" points="257.4098300562504,260.01056516295165 260.5000000000001,250.50000000000009 250.50000000000003,250.49999999999986 253.59016994374934,260.01056516295154 261.68033988749903,254.13271264002694 253.59016994374957,248.25486011710197 250.4999999999999,257.76542528005353 260.49999999999994,257.76542528005376 257.40983005625066,248.25486011710206 249.319660112501,254.13271264002668 257.4098300562504,260.01056516295165 260.5000000000001,250.50000000000009 250.50000000000003,250.49999999999986 253.59016994374932,260.01056516295154 261.68033988749903,254.13271264002694 253.5901699437496,248.25486011710197 250.49999999999986,257.76542528005353 260.49999999999994,257.76542528005376 257.40983005625066,248.25486011710206 249.319660112501,254.13271264002665 257.4098300562504,260.01056516295165 260.5000000000001,250.50000000000009 250.50000000000003,250.49999999999986 253.59016994374932,260.01056516295154 261.68033988749903,254.13271264002694 253.5901699437496,248.25486011710197 250.49999999999986,257.76542528005353 260.49999999999994,257.76542528005376 257.4098300562507,248.25486011710206 249.319660112501,254.13271264002665 257.4098300562504,260.01056516295165 260.5000000000001,250.50000000000009 250.50000000000003,250.49999999999986 253.59016994374932,260.01056516295154 261.68033988749903,254.13271264002697 253.5901699437496,248.25486011710197 250.49999999999986,257.76542528005353 260.49999999999994,257.76542528005376 257.4098300562507,248.25486011710206 249.319660112501,254.13271264002665 257.4098300562504,260.01056516295165 260.50000000000017,250.50000000000009 250.50000000000003,250.49999999999983" stroke="black" stroke-linecap="round" stroke-width="1" /><polyline clip-path="url(#border_clip)" fill="none" points="250.50000000000003,250.49999999999983 253.59016994374932,260.01056516295154 261.68033988749903,254.13271264002697 253.5901699437496,248.25486011710197 250.49999999999986,257.76542528005353 260.49999999999994,257.76542528005376 257.4098300562507,248.25486011710206 249.31966011250097,254.13271264002665 257.40983005625037,260.01056516295165 260.50000000000017,250.50000000000009 250.50000000000003,250.49999999999983 253.5901699437493,260.01056516295154 261.68033988749903,254.13271264002697 253.5901699437496,248.25486011710197 250.49999999999986,257.76542528005353 260.49999999999994,257.76542528005376 257.4098300562507,248.25486011710206 249.31966011250097,254.13271264002665 257.40983005625037,260.01056516295165 260.50000000000017,250.50000000000009 250.50000000000003,250.49999999999983 253.5901699437493,260.01056516295154 261.68033988749903,254.13271264002697 253.5901699437496,248.25486011710194 250.49999999999983,257.76542528005353 260.49999999999994,257.7654252800538 257.4098300562507,248.25486011710206 249.31966011250097,254.13271264002663 257.40983005625037,260.01056516295165 260.50000000000017,250.50000000000009 250.50000000000003,250.49999999999983 253.5901699437493,260.01056516295154 261.68033988749903,254.132712640027 253.59016994374963,248.25486011710194 250.49999999999983,257.76542528005353 260.49999999999994,257.7654252800538 257.4098300562507,248.25486011710206 249.31966011250097,254.13271264002663 257.40983005625037,260.01056516295165 260.50000000000017,250.5000000000001 250.50000000000003,250.4999999999998 253.5901699437493,260.01056516295154 261.68033988749903,254.132712640027" stroke="black" stroke-linecap="round" stroke-width="1" /><polyline clip-path="url(#border_clip)" fill="none" points="261.68033988749903,254.132712640027 253.59016994374963,248.25486011710194 250.49999999999983,257.76542528005353 260.49999999999994,257.7654252800538 257.4098300562507,248.25486011710206 249.31966011250097,254.13271264002663 257.40983005625037,260.01056516295165 260.50000000000017,250.5000000000001 250.50000000000006,250.4999999999998 253.5901699437493,260.01056516295154 261.68033988749903,254.132712640027 253.59016994374963,248.25486011710194 250.49999999999983,257.76542528005353 260.49999999999994,257.7654252800538 257.4098300562507,248.25486011710206 249.31966011250097,254.13271264002663 257.40983005625037,260.01056516295165 260.50000000000017,250.5000000000001 250.50000000000006,250.4999999999998 253.59016994374926,260.01056516295154 261.68033988749903,254.132712640027 253.59016994374963,248.25486011710194 250.49999999999983,257.76542528005353 260.49999999999994,257.7654252800538 257.4098300562507,248.25486011710206 249.31966011250097,254.13271264002663 257.40983005625037,260.0105651629517 260.50000000000017,250.5000000000001 250.50000000000006,250.4999999999998 253.59016994374926,260.01056516295154 261.68033988749903,254.132712640027 253.59016994374963,248.25486011710194 250.4999999999998,257.7654252800535 260.49999999999994,257.7654252800538 257.40983005625077,248.25486011710206 249.31966011250097,254.13271264002663 257.40983005625037,260.0105651629517 260.50000000000017,250.5000000000001 250.50000000000006,250.4999999999998 253.59016994374926,260.0105651629516 261.68033988749903,254.13271264002702 253.59016994374963,248.25486011710194 250.4999999999998,257.7654252800535" stroke="black" stroke-linecap="round" stroke-width="1" /><polyline clip-path="url(#border_clip)" fill="none" points="250.4999999999998,257.7654252800535 260.49999999999994,257.7654252800538 257.40983005625077,248.25486011710206 249.31966011250097,254.1327126400266 257.40983005625037,260.0105651629517 260.5000000000002,250.5000000000001 250.50000000000006,250.49999999999977 253.59016994374926,260.0105651629516 261.68033988749903,254.13271264002702 253.59016994374966,248.25486011710194 250.4999999999998,257.7654252800535 260.49999999999994,257.7654252800538 257.40983005625077,248.25486011710206 249.31966011250097,254.1327126400266 257.40983005625037,260.0105651629517 260.5000000000002,250.5000000000001 250.50000000000006,250.49999999999977 253.59016994374926,260.01056516295154 261.68033988749903,254.13271264002702 253.59016994374966,248.2548601171019 250.4999999999998,257.7654252800535 260.49999999999994,257.7654252800538 257.40983005625077,248.25486011710206 249.31966011250097,254.1327126400266 257.40983005625037,260.0105651629517 260.5000000000002,250.5000000000001 250.50000000000006,250.49999999999977 253.59016994374923,260.0105651629516 261.68033988749903,254.13271264002702 253.59016994374966,248.2548601171019 250.4999999999998,257.7654252800535 260.49999999999994,257.7654252800539 257.40983005625077,248.25486011710206 249.31966011250094,254.1327126400266 257.40983005625037,260.0105651629517 260.5000000000002,250.50000000000014 250.50000000000006,250.49999999999977 253.59016994374923,260.0105651629516 261.68033988749903,254.13271264002705 253.59016994374966,248.2548601171019 250.4999999999998,257.7654252800535 260.49999999999994,257.7654252800539 257.40983005625077,248.25486011710206" stroke="black" stroke-linecap="round" stroke-width="1" /><polyline clip-path="url(#border_clip)" fill="none" points="257.40983005625077,248.25486011710206 249.31966011250094,254.1327126400266 257.4098300562503,260.0105651629517 260.5000000000002,250.50000000000014 250.50000000000006,250.49999999999977 253.59016994374923,260.0105651629516 261.68033988749903,254.13271264002705 253.59016994374966,248.2548601171019 250.49999999999977,257.7654252800535 260.49999999999994,257.7654252800539 257.40983005625077,248.25486011710206 249.31966011250094,254.13271264002657 257.4098300562503,260.0105651629517 260.5000000000002,250.50000000000014 250.50000000000006,250.49999999999974 253.59016994374923,260.0105651629516 261.68033988749903,254.13271264002705 253.59016994374966,248.2548601171019 250.49999999999977,257.7654252800535 260.49999999999994,257.7654252800539 257.40983005625077,248.25486011710206 249.31966011250094,254.13271264002657 257.4098300562503,260.0105651629517 260.5000000000002,250.50000000000014 250.50000000000006,250.49999999999974 253.5901699437492,260.0105651629516 261.68033988749903,254.13271264002705 253.5901699437497,248.2548601171019 250.49999999999977,257.7654252800535 260.49999999999994,257.7654252800539 257.40983005625077,248.25486011710206 249.31966011250094,254.13271264002657 257.4098300562503,260.0105651629517 260.5000000000002,250.50000000000014 250.50000000000006,250.49999999999974 253.5901699437492,260.0105651629516 261.68033988749903,254.13271264002705 253.5901699437497,248.25486011710188 250.49999999999977,257.7654252800535 260.49999999999994,257.7654252800539 257.4098300562508,248.25486011710206 249.31966011250094,254.13271264002657 257.4098300562503,260.0105651629517" stroke="black" stroke-linecap="round" stroke-width="1" /><polyline clip-path="url(#border_clip)" fill="none" points="257.4098300562503,260.0105651629517 260.5000000000002,250.50000000000014 250.50000000000006,250.49999999999974 253.5901699437492,260.0105651629516 261.68033988749903,254.13271264002708 253.5901699437497,248.25486011710188 250.49999999999977,257.7654252800535 260.49999999999994,257.7654252800539 257.4098300562508,248.25486011710206 249.31966011250094,254.13271264002654 257.4098300562503,260.0105651629517 260.5000000000002,250.50000000000014 250.50000000000006,250.49999999999972 253.5901699437492,260.0105651629516 261.6803398874991,254.13271264002708 253.5901699437497,248.25486011710188 250.49999999999974,257.7654252800535 260.49999999999994,257.7654252800539 257.4098300562508,248.25486011710206 249.31966011250094,254.13271264002654 257.4098300562503,260.0105651629517 260.5000000000002,250.50000000000017 250.50000000000006,250.49999999999972 253.59016994374917,260.0105651629516 261.6803398874991,254.13271264002708 253.5901699437497,248.25486011710188 250.49999999999974,257.7654252800535 260.49999999999994,257.76542528005393 257.4098300562508,248.25486011710206 249.31966011250094,254.13271264002654 257.4098300562503,260.01056516295176 260.5000000000002,250.50000000000017 250.50000000000006,250.49999999999972 253.59016994374917,260.0105651629516 261.6803398874991,254.13271264002708 253.5901699437497,248.25486011710188 250.49999999999974,257.7654252800535 260.49999999999994,257.76542528005393 257.4098300562508,248.25486011710206 249.31966011250094,254.13271264002654 257.4098300562503,260.01056516295176 260.5000000000003,250.50000000000017 250.50000000000006,250.49999999999972" stroke="black" stroke-linecap="round" stroke-width="1" /><polyline clip-path="url(#border_clip)" fill="none" points="250.50000000000006,250.49999999999972 253.59016994374917,260.0105651629516 261.6803398874991,254.13271264002708 253.59016994374971,248.25486011710188 250.49999999999974,257.7654252800535 260.49999999999994,257.76542528005393 257.4098300562508,248.25486011710206 249.3196601125009,254.1327126400265 257.4098300562503,260.01056516295176 260.5000000000003,250.50000000000017 250.50000000000006,250.4999999999997 253.59016994374917,260.0105651629516 261.6803398874991,254.13271264002708 253.59016994374971,248.25486011710188 250.49999999999972,257.7654252800535 260.49999999999994,257.76542528005393 257.4098300562508,248.25486011710206 249.3196601125009,254.1327126400265 257.40983005625026,260.01056516295176 260.5000000000003,250.50000000000017 250.50000000000006,250.4999999999997 253.59016994374915,260.0105651629516 261.6803398874991,254.1327126400271 253.59016994374971,248.25486011710186 250.49999999999972,257.7654252800534 260.49999999999994,257.76542528005393 257.4098300562508,248.25486011710206 249.3196601125009,254.1327126400265 257.40983005625026,260.01056516295176 260.5000000000003,250.50000000000017 250.50000000000006,250.4999999999997 253.59016994374915,260.0105651629516 261.6803398874991,254.1327126400271 253.59016994374971,248.25486011710186 250.49999999999972,257.7654252800534 260.49999999999994,257.76542528005393 257.4098300562508,248.25486011710206 249.3196601125009,254.1327126400265 257.40983005625026,260.01056516295176 260.5000000000003,250.50000000000017 250.50000000000006,250.4999999999997 253.59016994374915,260.0105651629516 261.6803398874991,254.1327126400271" stroke="black" stroke-linecap="round" stroke-width="1" /><polyline clip-path="url(#border_clip)" fill="none" points="261.6803398874991,254.1327126400271 253.59016994374971,248.25486011710186 250.49999999999972,257.7654252800534 260.49999999999994,257.76542528005393 257.4098300562509,248.25486011710206 249.3196601125009,254.13271264002648 257.40983005625026,260.01056516295176 260.5000000000003,250.50000000000017 250.50000000000006,250.49999999999966 253.59016994374915,260.0105651629516 261.6803398874991,254.1327126400271 253.59016994374971,248.25486011710186 250.4999999999997,257.7654252800534 260.49999999999994,257.76542528005393 257.4098300562509,248.25486011710206 249.3196601125009,254.13271264002648 257.40983005625026,260.01056516295176 260.5000000000003,250.50000000000017 250.50000000000006,250.49999999999966 253.59016994374912,260.0105651629516 261.6803398874991,254.13271264002714 253.59016994374974,248.25486011710186 250.4999999999997,257.7654252800534 260.49999999999994,257.76542528005393 257.4098300562509,248.25486011710203 249.3196601125009,254.13271264002648 257.40983005625026,260.01056516295176 260.5000000000003,250.50000000000017 250.50000000000006,250.49999999999966 253.59016994374912,260.0105651629516 261.6803398874991,254.13271264002714 253.59016994374974,248.25486011710183 250.4999999999997,257.7654252800534 260.4999999999999,257.76542528005393 257.4098300562509,248.25486011710203 249.31966011250088,254.13271264002648 257.40983005625026,260.01056516295176 260.5000000000003,250.50000000000017 250.50000000000006,250.49999999999966 253.59016994374912,260.0105651629516 261.6803398874991,254.13271264002714 253.59016994374974,248.25486011710183 250.4999999999997,257.7654252800534" stroke="black" stroke-linecap="round" stroke-width="1" /><polyline clip-path="url(#border_clip)" fill="none" points="250.4999999999997,257.7654252800534 260.4999999999999,257.765425280054 257.4098300562509,248.25486011710203 249.31966011250088,254.13271264002648 257.40983005625026,260.01056516295176 260.5000000000003,250.50000000000017 250.50000000000006,250.49999999999963 253.5901699437491,260.0105651629516 261.6803398874991,254.13271264002714 253.59016994374974,248.25486011710183 250.49999999999966,257.7654252800534 260.4999999999999,257.765425280054 257.4098300562509,248.25486011710203 249.31966011250088,254.13271264002645 257.40983005625026,260.01056516295176 260.50000000000034,250.5000000000002 250.50000000000006,250.49999999999963 253.5901699437491,260.0105651629516 261.6803398874991,254.13271264002714 253.59016994374974,248.25486011710183 250.49999999999966,257.7654252800534 260.4999999999999,257.765425280054 257.4098300562509,248.25486011710203 249.31966011250088,254.13271264002645 257.40983005625026,260.0105651629518 260.50000000000034,250.5000000000002 250.50000000000006,250.49999999999963 253.5901699437491,260.0105651629516 261.6803398874991,254.13271264002717 253.59016994374974,248.25486011710183 250.49999999999966,257.7654252800534 260.4999999999999,257.765425280054 257.4098300562509,248.25486011710203 249.31966011250088,254.13271264002645 257.4098300562502,260.0105651629518 260.50000000000034,250.5000000000002 250.50000000000006,250.49999999999963 253.59016994374906,260.0105651629516 261.6803398874991,254.13271264002717 253.59016994374974,248.25486011710183 250.49999999999966,257.7654252800534 260.4999999999999,257.765425280054 257.4098300562509,248.25486011710203" stroke="black" stroke-linecap="round" stroke-width="1" /><polyline clip-path="url(#border_clip)" fill="none" points="257.4098300562509,248.25486011710203 249.31966011250088,254.13271264002645 257.4098300562502,260.0105651629518 260.50000000000034,250.5000000000002 250.50000000000006,250.49999999999963 253.59016994374906,260.0105651629516 261.6803398874991,254.13271264002717 253.59016994374974,248.25486011710183 250.49999999999963,257.7654252800534 260.4999999999999,257.765425280054 257.4098300562509,248.25486011710203 249.31966011250088,254.13271264002645 257.4098300562502,260.0105651629518 260.50000000000034,250.5000000000002 250.50000000000006,250.4999999999996 253.59016994374906,260.0105651629516 261.6803398874991,254.13271264002717 253.59016994374977,248.2548601171018 250.49999999999963,257.7654252800534 260.4999999999999,257.765425280054 257.40983005625094,248.25486011710203 249.31966011250088,254.13271264002643 257.4098300562502,260.0105651629518 260.50000000000034,250.5000000000002 250.50000000000009,250.4999999999996 253.59016994374906,260.0105651629516 261.6803398874991,254.1327126400272 253.59016994374977,248.2548601171018 250.49999999999963,257.7654252800534 260.4999999999999,257.765425280054 257.40983005625094,248.25486011710203 249.31966011250086,254.13271264002643 257.4098300562502,260.0105651629518 260.50000000000034,250.50000000000023 250.50000000000009,250.4999999999996 253.59016994374903,260.0105651629516 261.6803398874991,254.1327126400272 253.59016994374977,248.2548601171018 250.49999999999963,257.7654252800534 260.4999999999999,257.76542528005405 257.40983005625094,248.25486011710203 249.31966011250086,254.13271264002643 257.4098300562502,260.0105651629518" stroke="black" stroke-linecap="round" stroke-width="1" /><polyline clip-path="url(#border_clip)" fill="none" points="257.4098300562502,260.0105651629518 260.50000000000034,250.50000000000023 250.50000000000009,250.49999999999957 253.59016994374903,260.0105651629516 261.6803398874991,254.1327126400272 253.59016994374977,248.2548601171018 250.4999999999996,257.7654252800534 260.4999999999999,257.76542528005405 257.40983005625094,248.25486011710203 249.31966011250086,254.13271264002643 257.4098300562502,260.0105651629518 260.50000000000034,250.50000000000023 250.50000000000006,250.49999999999957 253.59016994374903,260.0105651629516 261.6803398874991,254.1327126400272 253.59016994374977,248.2548601171018 250.4999999999996,257.7654252800534 260.4999999999999,257.76542528005405 257.40983005625094,248.25486011710203 249.31966011250086,254.1327126400264 257.4098300562502,260.0105651629518 260.50000000000034,250.50000000000023 250.50000000000009,250.49999999999957 253.590169943749,260.0105651629516 261.6803398874991,254.13271264002722 253.59016994374977,248.25486011710177 250.4999999999996,257.76542528005336 260.4999999999999,257.76542528005405 257.40983005625094,248.25486011710203 249.31966011250086,254.1327126400264 257.40983005625014,260.0105651629518 260.50000000000034,250.50000000000023 250.50000000000009,250.49999999999957 253.590169943749,260.0105651629516 261.6803398874991,254.13271264002722 253.5901699437498,248.25486011710177 250.4999999999996,257.76542528005336 260.4999999999999,257.76542528005405 257.40983005625094,248.25486011710203 249.31966011250086,254.1327126400264 257.40983005625014,260.0105651629518 260.50000000000034,250.50000000000023 250.50000000000009,250.49999999999957" stroke="black" stroke-linecap="round" stroke-width="1" /><polyline clip-path="url(#border_clip)" fill="none" points="250.50000000000009,250.49999999999957 253.590169943749,260.0105651629516 261.6803398874991,254.13271264002722 253.5901699437498,248.25486011710177 250.49999999999957,257.76542528005336 260.4999999999999,257.76542528005405 257.40983005625094,248.25486011710203 249.31966011250086,254.1327126400264 257.40983005625014,260.0105651629518 260.5000000000004,250.50000000000023 250.50000000000009,250.49999999999955 253.590169943749,260.0105651629516 261.6803398874991,254.13271264002722 253.5901699437498,248.25486011710177 250.49999999999957,257.76542528005336 260.4999999999999,257.76542528005405 257.40983005625094,248.25486011710203 249.31966011250086,254.13271264002637 257.40983005625014,260.0105651629518 260.5000000000004,250.50000000000023 250.50000000000009,250.49999999999955 253.59016994374898,260.0105651629516 261.6803398874991,254.13271264002722 253.5901699437498,248.25486011710177 250.49999999999957,257.76542528005336 260.4999999999999,257.76542528005405 257.409830056251,248.25486011710203 249.31966011250083,254.13271264002637 257.40983005625014,260.0105651629519 260.5000000000004,250.50000000000023 250.50000000000009,250.49999999999955 253.59016994374898,260.0105651629516 261.68033988749914,254.13271264002725 253.5901699437498,248.25486011710177 250.49999999999957,257.76542528005336 260.4999999999999,257.7654252800541 257.409830056251,248.25486011710203 249.31966011250083,254.13271264002637 257.40983005625014,260.0105651629519 260.5000000000004,250.50000000000026 250.50000000000009,250.49999999999955 253.59016994374898,260.0105651629516 261.68033988749914,254.13271264002725" stroke="black" stroke-linecap="round" stroke-width="1" /><polyline clip-path="url(#border_clip)" fill="none" points="261.68033988749914,254.13271264002725 253.5901699437498,248.25486011710177 250.49999999999957,257.76542528005336 260.4999999999999,257.7654252800541 257.409830056251,248.25486011710203 249.31966011250083,254.13271264002637 257.40983005625014,260.0105651629519 260.5000000000004,250.50000000000026 250.50000000000009,250.49999999999952 253.59016994374898,260.0105651629516 261.68033988749914,254.13271264002725 253.59016994374983,248.25486011710174 250.49999999999955,257.76542528005336 260.4999999999999,257.7654252800541 257.409830056251,248.25486011710203 249.31966011250083,254.13271264002637 257.40983005625014,260.0105651629519 260.5000000000004,250.50000000000026 250.50000000000009,250.49999999999952 253.59016994374895,260.0105651629516 261.68033988749914,254.13271264002725 253.59016994374983,248.25486011710174 250.49999999999955,257.76542528005336 260.4999999999999,257.7654252800541 257.409830056251,248.25486011710203 249.31966011250083,254.13271264002634 257.40983005625014,260.0105651629519 260.5000000000004,250.50000000000026 250.50000000000009,250.49999999999952 253.59016994374895,260.0105651629516 261.68033988749914,254.13271264002728 253.59016994374983,248.25486011710174 250.49999999999955,257.76542528005336 260.4999999999999,257.7654252800541 257.409830056251,248.25486011710203 249.31966011250083,254.13271264002634 257.40983005625014,260.0105651629519 260.5000000000004,250.50000000000026 250.50000000000009,250.4999999999995 253.59016994374895,260.0105651629516 261.68033988749914,254.13271264002728 253.59016994374983,248.25486011710174 250.49999999999955,257.76542528005336" stroke="black" stroke-linecap="round" stroke-width="1" /><polyline clip-path="url(#border_clip)" fill="none" points="250.49999999999955,257.76542528005336 260.4999999999999,257.7654252800541 257.409830056251,248.25486011710203 249.31966011250083,254.13271264002634 257.4098300562501,260.0105651629519 260.5000000000004,250.50000000000026 250.50000000000009,250.4999999999995 253.59016994374892,260.0105651629516 261.68033988749914,254.13271264002728 253.59016994374983,248.25486011710174 250.49999999999952,257.76542528005336 260.4999999999999,257.7654252800541 257.409830056251,248.25486011710203 249.31966011250083,254.13271264002634 257.4098300562501,260.0105651629519 260.50000000000045,250.50000000000026 250.50000000000009,250.4999999999995 253.59016994374892,260.0105651629516 261.68033988749914,254.13271264002728 253.59016994374986,248.2548601171017 250.49999999999952,257.76542528005336 260.4999999999999,257.7654252800541 257.40983005625105,248.25486011710203 249.31966011250083,254.1327126400263 257.4098300562501,260.0105651629519 260.50000000000045,250.50000000000028 250.50000000000009,250.4999999999995 253.59016994374892,260.0105651629516 261.68033988749914,254.1327126400273 253.59016994374986,248.2548601171017 250.49999999999952,257.76542528005336 260.4999999999999,257.76542528005416 257.40983005625105,248.25486011710203 249.31966011250083,254.1327126400263 257.4098300562501,260.0105651629519 260.50000000000045,250.50000000000028 250.50000000000009,250.4999999999995 253.59016994374892,260.0105651629516 261.68033988749914,254.1327126400273 253.59016994374986,248.2548601171017 250.49999999999952,257.76542528005336 260.4999999999999,257.76542528005416 257.40983005625105,248.25486011710203" stroke="black" stroke-linecap="round" stroke-width="1" /><polyline clip-path="url(#border_clip)" fill="none" points="257.40983005625105,248.25486011710203 249.3196601125008,254.1327126400263 257.4098300562501,260.0105651629519 260.50000000000045,250.50000000000028 250.50000000000009,250.49999999999946 253.59016994374892,260.0105651629516 261.68033988749914,254.1327126400273 253.59016994374986,248.2548601171017 250.4999999999995,257.7654252800533 260.49999999999983,257.76542528005416 257.40983005625105,248.25486011710203 249.3196601125008,254.1327126400263 257.4098300562501,260.0105651629519 260.50000000000045,250.50000000000028 250.50000000000009,250.49999999999946 253.5901699437489,260.0105651629516 261.68033988749914,254.1327126400273 253.59016994374986,248.2548601171017 250.4999999999995,257.7654252800533 260.49999999999983,257.76542528005416 257.40983005625105,248.25486011710203 249.3196601125008,254.13271264002628 257.4098300562501,260.01056516295193 260.50000000000045,250.50000000000028 250.50000000000009,250.49999999999946 253.5901699437489,260.0105651629516 261.68033988749914,254.1327126400273 253.59016994374986,248.2548601171017 250.4999999999995,257.7654252800533 260.49999999999983,257.76542528005416 257.40983005625105,248.25486011710203 249.3196601125008,254.13271264002628 257.4098300562501,260.01056516295193 260.50000000000045,250.50000000000028 250.5000000000001,250.49999999999946 253.5901699437489,260.0105651629516 261.68033988749914,254.13271264002734 253.59016994374988,248.2548601171017 250.4999999999995,257.7654252800533 260.49999999999983,257.76542528005416 257.40983005625105,248.25486011710203 249.3196601125008,254.13271264002628 257.4098300562501,260.01056516295193" stroke="black" stroke-linecap="round" stroke-width="1" /><polyline clip-path="url(#border_clip)" fill="none" points="257.4098300562501,260.01056516295193 260.50000000000045,250.50000000000028 250.5000000000001,250.49999999999943 253.5901699437489,260.0105651629516 261.68033988749914,254.13271264002734 253.59016994374988,248.25486011710169 250.4999999999995,257.7654252800533 260.49999999999983,257.76542528005416 257.40983005625105,248.25486011710203 249.3196601125008,254.13271264002628 257.4098300562501,260.01056516295193 260.50000000000045,250.50000000000028 250.5000000000001,250.49999999999943 253.5901699437489,260.0105651629516 261.68033988749914,254.13271264002734 253.59016994374988,248.25486011710169 250.4999999999995,257.7654252800533 260.49999999999983,257.76542528005416 257.4098300562511,248.25486011710203 249.3196601125008,254.13271264002626 257.4098300562501,260.01056516295193 260.5000000000005,250.50000000000028 250.5000000000001,250.49999999999943 253.5901699437489,260.0105651629516 261.68033988749914,254.13271264002734 253.5901699437499,248.25486011710169 250.4999999999995,257.7654252800533 260.49999999999983,257.76542528005416 257.4098300562511,248.25486011710203 249.3196601125008,254.13271264002626 257.4098300562501,260.01056516295193 260.5000000000005,250.50000000000028 250.5000000000001,250.49999999999943 253.59016994374886,260.0105651629516 261.68033988749914,254.13271264002734 253.5901699437499,248.25486011710169 250.4999999999995,257.7654252800533 260.49999999999983,257.76542528005416 257.4098300562511,248.25486011710203 249.3196601125008,254.13271264002626 257.4098300562501,260.01056516295193 260.5000000000005,250.5000000000003 250.5000000000001,250.4999999999994" stroke="black" stroke-linecap="round" stroke-width="1" /><polyline clip-path="url(#border_clip)" fill="none" points="250.5000000000001,250.4999999999994 253.59016994374886,260.0105651629516 261.68033988749914,254.13271264002736 253.5901699437499,248.25486011710169 250.49999999999946,257.7654252800533 260.49999999999983,257.7654252800542 257.4098300562511,248.25486011710203 249.3196601125008,254.13271264002626 257.40983005625003,260.01056516295193 260.5000000000005,250.5000000000003 250.5000000000001,250.4999999999994 253.59016994374886,260.0105651629516 261.68033988749914,254.13271264002736 253.5901699437499,248.25486011710169 250.49999999999946,257.7654252800533 260.49999999999983,257.7654252800542 257.4098300562511,248.25486011710203 249.3196601125008,254.13271264002623 257.40983005625003,260.01056516295193 260.5000000000005,250.5000000000003 250.5000000000001,250.4999999999994 253.59016994374886,260.0105651629516 261.68033988749914,254.13271264002736 253.5901699437499,248.25486011710166 250.49999999999946,257.7654252800533 260.49999999999983,257.7654252800542 257.4098300562511,248.25486011710203 249.3196601125008,254.13271264002623 257.40983005625003,260.01056516295193 260.5000000000005,250.5000000000003 250.5000000000001,250.4999999999994 253.59016994374883,260.0105651629516 261.68033988749914,254.13271264002736 253.5901699437499,248.25486011710166 250.49999999999946,257.7654252800533 260.49999999999983,257.7654252800542 257.4098300562511,248.25486011710203 249.3196601125008,254.13271264002623 257.40983005625003,260.01056516295193 260.5000000000005,250.5000000000003 250.5000000000001,250.49999999999937 253.59016994374883,260.0105651629516 261.68033988749914,254.13271264002736" stroke="black" stroke-linecap="round" stroke-width="1" /><polyline clip-path="url(#border_clip)" fill="none" points="261.68033988749914,254.13271264002736 253.59016994374994,248.25486011710166 250.49999999999946,257.76542528005325 260.49999999999983,257.7654252800542 257.4098300562511,248.25486011710203 249.3196601125008,254.13271264002623 257.40983005625003,260.01056516295193 260.5000000000005,250.5000000000003 250.5000000000001,250.49999999999937 253.59016994374883,260.0105651629516 261.6803398874992,254.1327126400274 253.59016994374994,248.25486011710166 250.49999999999943,257.76542528005325 260.49999999999983,257.7654252800542 257.40983005625117,248.25486011710203 249.3196601125008,254.13271264002623 257.40983005625003,260.01056516295193 260.5000000000005,250.5000000000003 250.5000000000001,250.49999999999937 253.59016994374883,260.0105651629516 261.6803398874992,254.1327126400274 253.59016994374994,248.25486011710166 250.49999999999943,257.76542528005325 260.49999999999983,257.7654252800542 257.40983005625117,248.25486011710203 249.31966011250077,254.1327126400262 257.40983005625003,260.01056516295193 260.5000000000005,250.50000000000034 250.5000000000001,250.49999999999937 253.5901699437488,260.0105651629516 261.6803398874992,254.1327126400274 253.59016994374994,248.25486011710166 250.49999999999943,257.76542528005325 260.49999999999983,257.7654252800542 257.40983005625117,248.25486011710203 249.31966011250077,254.1327126400262 257.40983005625003,260.01056516295193 260.5000000000005,250.50000000000034 250.5000000000001,250.49999999999937 253.5901699437488,260.0105651629516 261.6803398874992,254.1327126400274 253.59016994374994,248.25486011710166 250.49999999999943,257.76542528005325" stroke="black" stroke-linecap="round" stroke-width="1" /><polyline clip-path="url(#border_clip)" fill="none" points="250.49999999999943,257.76542528005325 260.49999999999983,257.7654252800542 257.40983005625117,248.25486011710203 249.31966011250077,254.1327126400262 257.40983005625003,260.01056516295193 260.50000000000057,250.50000000000034 250.50000000000014,250.49999999999935 253.5901699437488,260.0105651629516 261.6803398874992,254.13271264002742 253.59016994374994,248.25486011710166 250.4999999999994,257.76542528005325 260.49999999999983,257.7654252800543 257.40983005625117,248.25486011710203 249.31966011250077,254.1327126400262 257.40983005625003,260.010565162952 260.50000000000057,250.50000000000034 250.50000000000014,250.49999999999935 253.5901699437488,260.0105651629516 261.6803398874992,254.13271264002742 253.59016994374997,248.25486011710163 250.4999999999994,257.76542528005325 260.49999999999983,257.7654252800543 257.40983005625117,248.25486011710203 249.31966011250077,254.1327126400262 257.40983005625,260.010565162952 260.50000000000057,250.50000000000034 250.50000000000014,250.49999999999935 253.59016994374878,260.0105651629516 261.6803398874992,254.13271264002742 253.59016994374997,248.25486011710163 250.4999999999994,257.76542528005325 260.49999999999983,257.7654252800543 257.40983005625117,248.25486011710203 249.31966011250077,254.13271264002617 257.40983005625,260.010565162952 260.50000000000057,250.50000000000034 250.50000000000014,250.49999999999935 247.40983005624958,260.01056516295097 250.4999999999982,269.5211303259032 253.59016994374878,260.0105651629516 245.49999999999955,254.1327126400258 248.5901699437501,244.62214747707418 245.49999999999955,254.1327126400258" stroke="black" stroke-linecap="round" stroke-width="1" /><polyline clip-path="url(#border_clip)" fill="none" points="245.49999999999955,254.1327126400258 237.40983005625034,248.25486011709998 227.40983005624992,248.25486011709899 235.49999999999915,254.13271264002478 243.59016994374954,248.25486011710063 251.68033988749875,254.13271264002643 243.59016994374954,248.25486011710063 251.68033988749997,242.37700759417646 254.77050983125054,232.86644243122484 246.6803398875001,238.74429495414898 249.77050983124875,248.25486011710126 241.68033988749832,254.1327126400254 249.77050983124875,248.25486011710126 252.86067977499738,257.7654252800535 260.9508497187466,263.6432778029793 257.86067977499795,254.13271264002705 247.86067977499755,254.13271264002603 244.77050983124892,244.62214747707378 247.86067977499755,254.13271264002603 237.86067977499712,254.132712640025 229.7705098312467,260.01056516294915 239.77050983124713,260.0105651629502 242.86067977499772,250.49999999999855 252.86067977499812,250.4999999999996 242.86067977499772,250.49999999999855 245.95084971874832,240.98943483704693 242.86067977499968,231.47886967409468 239.7705098312491,240.9894348370463 247.8606797749983,246.86728735997212 244.7705098312477,256.3778525229237 247.8606797749983,246.86728735997212 255.9508497187475,252.74513988289794 265.9508497187479,252.745139882899 257.86067977499874,246.86728735997318 249.7705098312483,252.7451398828973 241.6803398874991,246.86728735997147 249.7705098312483,252.7451398828973 241.68033988749787,258.62299240582144 238.59016994374724,268.133557568773 246.68033988749767,262.2557050458489 243.5901699437491,252.74513988289664 251.6803398874995,246.86728735997252 243.5901699437491,252.74513988289664" stroke="black" stroke-linecap="round" stroke-width="1" /><polyline clip-path="url(#border_clip)" fill="none" points="243.5901699437491,252.74513988289664 240.50000000000048,243.2345747199444 232.4098300562513,237.35672219701854 235.4999999999999,246.86728735997082 245.5000000000003,246.86728735997187 248.59016994374892,256.3778525229241 245.5000000000003,246.86728735997187 255.50000000000074,246.86728735997295 263.59016994375116,240.98943483704883 253.59016994375077,240.98943483704775 250.50000000000014,250.49999999999937 240.49999999999972,250.4999999999983 250.50000000000014,250.49999999999937 247.40983005624952,260.01056516295097 250.4999999999981,269.52113032590324 253.59016994374872,260.01056516295165 245.49999999999955,254.13271264002577 248.59016994375017,244.62214747707418 245.49999999999955,254.13271264002577 237.40983005625037,248.25486011709992 227.40983005624994,248.25486011709884 235.49999999999912,254.1327126400247 243.59016994374957,248.2548601171006 251.68033988749875,254.13271264002645 243.59016994374957,248.2548601171006 251.68033988750003,242.3770075941765 254.77050983125065,232.8664424312249 246.6803398875002,238.744294954149 249.77050983124877,248.25486011710126 241.68033988749832,254.13271264002537 249.77050983124877,248.2548601171013 252.86067977499735,257.76542528005353 260.9508497187465,263.6432778029794 257.86067977499795,254.13271264002714 247.86067977499752,254.13271264002606 244.77050983124897,244.62214747707378 247.86067977499752,254.13271264002606 237.8606797749971,254.13271264002495 229.77050983124664,260.01056516294904 239.77050983124707,260.0105651629501 242.86067977499772,250.49999999999855 252.86067977499815,250.49999999999966 242.86067977499772,250.49999999999855" stroke="black" stroke-linecap="round" stroke-width="1" /><polyline clip-path="url(#border_clip)" fill="none" points="242.86067977499772,250.49999999999855 245.95084971874837,240.98943483704696 242.86067977499982,231.47886967409468 239.77050983124917,240.98943483704628 247.86067977499832,246.86728735997215 244.77050983124767,256.3778525229237 247.86067977499832,246.86728735997215 255.9508497187475,252.74513988289803 265.9508497187479,252.74513988289914 257.86067977499874,246.86728735997326 249.7705098312483,252.74513988289732 241.68033988749912,246.86728735997144 249.7705098312483,252.74513988289732 241.6803398874978,258.6229924058214 238.59016994374713,268.13355756877297 246.6803398874976,262.2557050458489 243.5901699437491,252.74513988289664 251.68033988749954,246.86728735997258 243.59016994374906,252.74513988289664 240.50000000000054,243.23457471994436 232.4098300562514,237.35672219701846 235.49999999999991,246.86728735997076 245.50000000000034,246.86728735997187 248.59016994374886,256.3778525229242 245.50000000000034,246.86728735997187 255.50000000000077,246.867287359973 263.5901699437512,240.98943483704895 253.59016994375082,240.9894348370478 250.50000000000014,250.4999999999994 240.49999999999972,250.49999999999827 250.50000000000014,250.4999999999994 247.40983005624946,260.01056516295097 250.49999999999798,269.52113032590324 253.59016994374866,260.0105651629517 245.49999999999952,254.13271264002577 248.5901699437502,244.6221474770742 245.49999999999952,254.13271264002577 237.40983005625037,248.25486011709987 227.40983005624997,248.25486011709873 235.4999999999991,254.13271264002464 243.5901699437496,248.25486011710058 251.68033988749872,254.13271264002648 243.5901699437496,248.25486011710058" stroke="black" stroke-linecap="round" stroke-width="1" /><polyline clip-path="url(#border_clip)" fill="none" points="243.5901699437496,248.25486011710058 251.68033988750008,242.37700759417655 254.7705098312508,232.86644243122495 246.68033988750028,238.744294954149 249.7705098312488,248.2548601171013 241.6803398874983,254.13271264002535 249.7705098312488,248.2548601171013 252.8606797749973,257.7654252800536 260.95084971874644,263.6432778029795 257.86067977499795,254.13271264002722 247.86067977499752,254.13271264002606 244.77050983124903,244.62214747707375 247.86067977499752,254.13271264002606 237.8606797749971,254.1327126400249 229.77050983124659,260.0105651629489 239.770509831247,260.0105651629501 242.86067977499772,250.49999999999852 252.86067977499815,250.4999999999997 242.86067977499772,250.49999999999852 245.95084971874846,240.98943483704693 242.86067977499997,231.47886967409465 239.77050983124923,240.98943483704622 247.86067977499837,246.86728735997215 244.77050983124764,256.3778525229237 247.86067977499837,246.86728735997215 255.9508497187475,252.7451398828981 265.9508497187479,252.74513988289925 257.8606797749988,246.86728735997332 249.77050983124826,252.74513988289735 241.68033988749914,246.8672873599714 249.77050983124826,252.74513988289735 241.68033988749775,258.6229924058214 238.59016994374701,268.1335575687729 246.68033988749755,262.2557050458489 243.59016994374906,252.7451398828966 251.68033988749957,246.8672873599726 243.59016994374906,252.7451398828966 240.5000000000006,243.2345747199443 232.40983005625148,237.35672219701837 235.49999999999994,246.86728735997067 245.50000000000037,246.86728735997187 248.59016994374883,256.3778525229242 245.50000000000037,246.86728735997187" stroke="black" stroke-linecap="round" stroke-width="1" /><polyline clip-path="url(#border_clip)" fill="none" points="245.50000000000037,246.86728735997187 255.5000000000008,246.86728735997306 263.59016994375133,240.98943483704906 253.5901699437509,240.98943483704787 250.50000000000014,250.49999999999943 240.49999999999972,250.4999999999982 250.50000000000014,250.49999999999943 247.40983005624938,260.01056516295097 250.49999999999784,269.5211303259033 253.5901699437486,260.01056516295176 245.4999999999995,254.13271264002577 248.59016994375025,244.6221474770742 245.4999999999995,254.13271264002577 237.4098300562504,248.2548601170998 227.40983005624997,248.2548601170986 235.49999999999906,254.13271264002455 243.5901699437496,248.25486011710058 251.6803398874987,254.13271264002654 243.5901699437496,248.25486011710058 251.68033988750014,242.37700759417658 254.7705098312509,232.86644243122504 246.68033988750037,238.744294954149 249.7705098312488,248.25486011710132 241.68033988749826,254.13271264002532 249.7705098312488,248.25486011710132 252.86067977499724,257.76542528005365 260.9508497187463,263.64327780297964 257.8606797749979,254.1327126400273 247.8606797749975,254.13271264002606 244.77050983124906,244.62214747707375 247.8606797749975,254.13271264002606 237.86067977499707,254.13271264002483 229.7705098312465,260.0105651629488 239.77050983124693,260.01056516295006 242.86067977499772,250.4999999999985 252.86067977499815,250.49999999999974 242.86067977499772,250.4999999999985 245.95084971874851,240.98943483704693 242.86067977500008,231.47886967409462 239.7705098312493,240.98943483704616 247.86067977499837,246.86728735997215 244.77050983124758,256.3778525229237 247.86067977499837,246.86728735997215" stroke="black" stroke-linecap="round" stroke-width="1" /><polyline clip-path="url(#border_clip)" fill="none" points="247.86067977499837,246.86728735997215 255.95084971874746,252.74513988289814 265.95084971874786,252.7451398828994 257.8606797749988,246.8672873599734 249.77050983124826,252.74513988289738 241.68033988749917,246.86728735997139 249.77050983124826,252.74513988289738 241.6803398874977,258.6229924058213 238.5901699437469,268.13355756877286 246.68033988749744,262.2557050458489 243.59016994374906,252.7451398828966 251.6803398874996,246.86728735997264 243.59016994374903,252.7451398828966 240.50000000000065,243.23457471994428 232.40983005625156,237.35672219701826 235.49999999999997,246.8672873599706 245.5000000000004,246.86728735997187 248.59016994374878,256.3778525229242 245.5000000000004,246.86728735997187 255.50000000000082,246.86728735997312 263.5901699437514,240.98943483704917 253.59016994375096,240.9894348370479 250.50000000000014,250.49999999999946 240.49999999999972,250.49999999999818 250.50000000000014,250.49999999999946 247.40983005624932,260.01056516295097 250.4999999999977,269.5211303259033 253.59016994374852,260.01056516295176 245.49999999999946,254.13271264002577 248.59016994375028,244.62214747707424 245.49999999999946,254.13271264002577 237.4098300562504,248.25486011709975 227.40983005624997,248.25486011709847 235.49999999999903,254.1327126400245 243.59016994374963,248.25486011710055 251.68033988749866,254.13271264002657 243.59016994374963,248.25486011710055 251.6803398875002,242.3770075941766 254.77050983125102,232.86644243122507 246.68033988750045,238.744294954149 249.77050983124883,248.25486011710134 241.68033988749823,254.1327126400253 249.77050983124883,248.25486011710134" stroke="black" stroke-linecap="round" stroke-width="1" /><polyline clip-path="url(#border_clip)" fill="none" points="249.77050983124883,248.25486011710134 252.8606797749972,257.7654252800537 260.95084971874627,263.6432778029797 257.8606797749979,254.1327126400274 247.86067977499746,254.13271264002609 244.7705098312491,244.62214747707372 247.86067977499746,254.13271264002609 237.86067977499704,254.13271264002478 229.77050983124644,260.0105651629487 239.77050983124687,260.01056516295 242.86067977499772,250.49999999999847 252.86067977499815,250.49999999999977 242.86067977499772,250.49999999999847 245.95084971874857,240.98943483704693 242.86067977500022,231.4788696740946 239.77050983124937,240.98943483704613 247.8606797749984,246.86728735997215 244.77050983124755,256.3778525229237 247.8606797749984,246.86728735997215 255.95084971874743,252.7451398828982 265.95084971874786,252.74513988289954 257.86067977499886,246.8672873599735 249.77050983124823,252.7451398828974 241.6803398874992,246.86728735997136 249.77050983124823,252.7451398828974 241.68033988749764,258.6229924058213 238.5901699437468,268.13355756877286 246.68033988749738,262.2557050458489 243.59016994374903,252.74513988289658 251.68033988749963,246.86728735997266 243.59016994374903,252.74513988289658 240.50000000000068,243.23457471994422 232.40983005625168,237.35672219701817 235.5,246.86728735997053 245.50000000000043,246.86728735997187 248.59016994374875,256.37785252292423 245.50000000000043,246.86728735997187 255.50000000000085,246.8672873599732 263.59016994375145,240.98943483704932 253.59016994375102,240.98943483704795 250.50000000000014,250.4999999999995 240.49999999999972,250.49999999999812 250.50000000000014,250.4999999999995" stroke="black" stroke-linecap="round" stroke-width="1" /><polyline clip-path="url(#border_clip)" fill="none" points="250.50000000000014,250.4999999999995 247.40983005624926,260.010565162951 250.49999999999758,269.52113032590336 253.59016994374846,260.0105651629518 245.49999999999943,254.13271264002577 248.59016994375034,244.62214747707424 245.49999999999943,254.13271264002577 237.40983005625043,248.2548601170997 227.40983005625,248.25486011709833 235.49999999999903,254.1327126400244 243.59016994374963,248.25486011710052 251.68033988749866,254.1327126400266 243.59016994374963,248.25486011710052 251.68033988750025,242.37700759417666 254.77050983125113,232.86644243122512 246.68033988750054,238.744294954149 249.77050983124883,248.25486011710137 241.6803398874982,254.13271264002523 249.77050983124883,248.25486011710137 252.86067977499715,257.7654252800537 260.95084971874616,263.6432778029798 257.86067977499783,254.13271264002745 247.86067977499744,254.13271264002609 244.77050983124911,244.62214747707372 247.86067977499744,254.13271264002609 237.860679774997,254.13271264002472 229.7705098312464,260.0105651629486 239.7705098312468,260.01056516294994 242.86067977499772,250.49999999999844 252.86067977499815,250.49999999999983 242.86067977499772,250.49999999999844 245.95084971874863,240.98943483704693 242.86067977500034,231.47886967409457 239.77050983124943,240.98943483704608 247.86067977499843,246.86728735997218 244.7705098312475,256.37785252292366 247.86067977499843,246.86728735997218 255.95084971874743,252.7451398828983 265.95084971874786,252.74513988289965 257.86067977499886,246.86728735997357 249.7705098312482,252.7451398828974 241.68033988749923,246.86728735997133 249.7705098312482,252.7451398828974" stroke="black" stroke-linecap="round" stroke-width="1" /><polyline clip-path="url(#border_clip)" fill="none" points="249.7705098312482,252.7451398828974 241.68033988749758,258.62299240582126 238.59016994374664,268.13355756877274 246.6803398874973,262.2557050458489 243.590169943749,252.74513988289655 251.68033988749966,246.86728735997272 243.590169943749,252.74513988289655 240.50000000000074,243.2345747199442 232.40983005625174,237.3567221970181 235.50000000000003,246.86728735997045 245.50000000000043,246.86728735997184 248.59016994374872,256.37785252292423 245.50000000000043,246.86728735997184 255.50000000000085,246.86728735997326 263.5901699437515,240.9894348370494 253.59016994375108,240.989434837048 250.50000000000014,250.49999999999952 240.49999999999972,250.4999999999981 250.50000000000014,250.49999999999952 247.40983005624918,260.010565162951 250.49999999999744,269.52113032590336 253.5901699437484,260.0105651629519 245.49999999999943,254.13271264002574 248.59016994375037,244.62214747707426 245.49999999999943,254.13271264002574 237.40983005625043,248.25486011709964 227.40983005625003,248.25486011709822 235.499999999999,254.13271264002435 243.59016994374963,248.25486011710052 251.68033988749863,254.13271264002663 243.59016994374966,248.25486011710052 251.68033988750028,242.3770075941767 254.77050983125125,232.86644243122518 246.6803398875006,238.744294954149 249.77050983124886,248.2548601171014 241.6803398874982,254.1327126400252 249.77050983124886,248.2548601171014 252.8606797749971,257.76542528005376 260.95084971874604,263.6432778029799 257.86067977499783,254.13271264002753 247.8606797749974,254.13271264002609 244.77050983124917,244.62214747707372 247.8606797749974,254.13271264002609" stroke="black" stroke-linecap="round" stroke-width="1" /><polyline clip-path="url(#border_clip)" fill="none" points="247.8606797749974,254.13271264002609 237.86067977499698,254.13271264002466 229.77050983124633,260.01056516294847 239.77050983124676,260.0105651629499 242.86067977499772,250.4999999999984 252.86067977499815,250.49999999999986 242.86067977499772,250.4999999999984 245.95084971874869,240.98943483704693 242.86067977500048,231.47886967409454 239.77050983124948,240.98943483704605 247.86067977499846,246.86728735997218 244.77050983124747,256.37785252292366 247.86067977499846,246.86728735997218 255.9508497187474,252.74513988289834 265.95084971874786,252.7451398828998 257.86067977499886,246.86728735997363 249.7705098312482,252.74513988289743 241.68033988749926,246.86728735997127 249.7705098312482,252.74513988289743 241.68033988749752,258.62299240582126 238.59016994374653,268.13355756877274 246.6803398874972,262.2557050458489 243.590169943749,252.74513988289652 251.68033988749968,246.86728735997275 243.590169943749,252.74513988289652 240.5000000000008,243.23457471994413 232.40983005625185,237.35672219701797 235.50000000000006,246.86728735997036 245.50000000000045,246.86728735997184 248.59016994374866,256.37785252292423 245.50000000000045,246.86728735997184 255.50000000000088,246.86728735997332 263.59016994375156,240.98943483704952 253.59016994375114,240.98943483704804 250.50000000000014,250.49999999999952 240.49999999999972,250.49999999999804 250.50000000000014,250.49999999999952 247.40983005624912,260.010565162951 250.49999999999733,269.5211303259034 253.59016994374835,260.01056516295193 245.4999999999994,254.13271264002574 248.5901699437504,244.62214747707426 245.4999999999994,254.13271264002574" stroke="black" stroke-linecap="round" stroke-width="1" /><polyline clip-path="url(#border_clip)" fill="none" points="245.4999999999994,254.13271264002574 237.40983005625046,248.25486011709955 227.40983005625003,248.25486011709808 235.49999999999898,254.13271264002427 243.59016994374966,248.2548601171005 251.6803398874986,254.13271264002668 243.59016994374966,248.2548601171005 251.68033988750034,242.37700759417672 254.7705098312514,232.86644243122524 246.68033988750068,238.744294954149 249.77050983124886,248.2548601171014 241.68033988749818,254.13271264002518 249.77050983124886,248.2548601171014 252.86067977499704,257.7654252800538 260.950849718746,263.64327780298 257.8606797749978,254.1327126400276 247.86067977499738,254.13271264002609 244.7705098312492,244.6221474770737 247.86067977499738,254.13271264002609 237.86067977499695,254.13271264002458 229.77050983124627,260.01056516294835 239.77050983124667,260.0105651629499 242.86067977499772,250.49999999999838 252.86067977499815,250.4999999999999 242.86067977499772,250.49999999999838 245.95084971874877,240.98943483704693 242.8606797750006,231.47886967409454 239.77050983124954,240.989434837046 247.86067977499846,246.86728735997218 244.77050983124744,256.37785252292366 247.86067977499846,246.86728735997218 255.95084971874738,252.7451398828984 265.9508497187478,252.7451398828999 257.8606797749989,246.86728735997372 249.77050983124818,252.74513988289746 241.68033988749926,246.86728735997124 249.77050983124818,252.74513988289746 241.68033988749747,258.6229924058212 238.59016994374642,268.13355756877263 246.68033988749713,262.2557050458489 243.59016994374898,252.74513988289652 251.68033988749968,246.86728735997278 243.59016994374898,252.74513988289652" stroke="black" stroke-linecap="round" stroke-width="1" /><polyline clip-path="url(#border_clip)" fill="none" points="243.59016994374898,252.74513988289652 240.50000000000082,243.2345747199441 232.4098300562519,237.3567221970179 235.50000000000006,246.8672873599703 245.50000000000048,246.86728735997184 248.5901699437486,256.37785252292423 245.50000000000048,246.86728735997184 255.5000000000009,246.86728735997337 263.5901699437516,240.98943483704963 253.5901699437512,240.9894348370481 250.50000000000014,250.49999999999955 240.49999999999972,250.499999999998 250.50000000000014,250.49999999999955 247.40983005624906,260.010565162951 250.4999999999972,269.5211303259034 253.59016994374826,260.010565162952 245.49999999999937,254.13271264002574 248.59016994375045,244.6221474770743 245.49999999999937,254.13271264002574 237.40983005625046,248.2548601170995 227.40983005625003,248.25486011709793 235.49999999999895,254.13271264002418 243.59016994374966,248.25486011710046 251.68033988749858,254.1327126400267 243.59016994374966,248.25486011710046 251.6803398875004,242.37700759417675 254.77050983125147,232.8664424312253 246.68033988750076,238.744294954149 249.77050983124886,248.25486011710143 241.68033988749815,254.13271264002515 249.7705098312489,248.25486011710143 252.86067977499698,257.7654252800538 260.95084971874587,263.6432778029801 257.8606797749978,254.13271264002768 247.86067977499735,254.13271264002609 244.77050983124923,244.62214747707367 247.86067977499735,254.13271264002609 237.86067977499692,254.13271264002452 229.7705098312462,260.01056516294824 239.7705098312466,260.0105651629498 242.86067977499772,250.49999999999835 252.86067977499812,250.49999999999994 242.86067977499772,250.49999999999835" stroke="black" stroke-linecap="round" stroke-width="1" /><polyline clip-path="url(#border_clip)" fill="none" points="242.86067977499772,250.49999999999835 245.95084971874883,240.9894348370469 242.8606797750007,231.47886967409448 239.7705098312496,240.98943483704593 247.8606797749985,246.86728735997218 244.77050983124738,256.37785252292366 247.8606797749985,246.86728735997218 255.95084971874738,252.74513988289846 265.9508497187478,252.74513988290005 257.8606797749989,246.86728735997377 249.77050983124818,252.74513988289746 241.6803398874993,246.86728735997121 249.77050983124818,252.74513988289746 241.6803398874974,258.62299240582115 238.5901699437463,268.1335575687726 246.68033988749704,262.2557050458489 243.59016994374898,252.7451398828965 251.6803398874997,246.8672873599728 243.59016994374898,252.7451398828965 240.50000000000088,243.23457471994405 232.40983005625202,237.3567221970178 235.50000000000009,246.86728735997022 245.5000000000005,246.8672873599718 248.59016994374858,256.37785252292423 245.5000000000005,246.8672873599718 255.50000000000094,246.86728735997343 263.5901699437517,240.98943483704974 253.59016994375128,240.98943483704815 250.50000000000014,250.49999999999957 240.49999999999972,250.49999999999795 250.50000000000014,250.49999999999957 247.409830056249,260.010565162951 250.49999999999707,269.5211303259034 253.5901699437482,260.010565162952 245.49999999999935,254.13271264002572 248.59016994375048,244.6221474770743 245.49999999999935,254.13271264002572 237.40983005625048,248.25486011709944 227.40983005625006,248.25486011709782 235.49999999999892,254.1327126400241 243.5901699437497,248.25486011710043 251.68033988749855,254.13271264002674 243.5901699437497,248.25486011710043" stroke="black" stroke-linecap="round" stroke-width="1" /><polyline clip-path="url(#border_clip)" fill="none" points="243.5901699437497,248.25486011710043 251.68033988750045,242.37700759417677 254.77050983125162,232.86644243122535 246.68033988750085,238.744294954149 249.7705098312489,248.25486011710143 241.68033988749812,254.1327126400251 249.7705098312489,248.25486011710146 252.86067977499695,257.7654252800539 260.9508497187458,263.6432778029802 257.8606797749978,254.13271264002773 247.86067977499732,254.1327126400261 244.77050983124929,244.62214747707367 247.86067977499732,254.1327126400261 237.86067977499692,254.13271264002447 229.77050983124613,260.0105651629481 239.77050983124656,260.0105651629498 242.86067977499772,250.49999999999832 252.86067977499815,250.49999999999997 242.86067977499772,250.49999999999832 245.95084971874888,240.9894348370469 242.86067977500085,231.47886967409445 239.77050983124968,240.98943483704588 247.86067977499852,246.8672873599722 244.77050983124735,256.3778525229236 247.86067977499852,246.8672873599722 255.95084971874738,252.7451398828985 265.9508497187478,252.74513988290016 257.8606797749989,246.86728735997386 249.77050983124815,252.7451398828975 241.68033988749931,246.86728735997116 249.77050983124815,252.7451398828975 241.68033988749735,258.62299240582115 238.5901699437462,268.1335575687726 246.68033988749698,262.2557050458489 243.59016994374895,252.74513988289647 251.68033988749974,246.86728735997283 243.59016994374895,252.74513988289647 240.50000000000094,243.23457471994402 232.40983005625208,237.3567221970177 235.5000000000001,246.86728735997013 245.50000000000054,246.8672873599718 248.59016994374855,256.37785252292423 245.50000000000054,246.8672873599718" stroke="black" stroke-linecap="round" stroke-width="1" /><polyline clip-path="url(#border_clip)" fill="none" points="245.50000000000054,246.8672873599718 255.50000000000097,246.86728735997346 263.59016994375173,240.98943483704986 253.59016994375133,240.98943483704818 250.50000000000014,250.4999999999996 240.49999999999972,250.49999999999793 250.50000000000014,250.4999999999996 247.40983005624892,260.010565162951 250.49999999999693,269.52113032590347 253.59016994374815,260.01056516295205 245.49999999999932,254.13271264002572 248.5901699437505,244.6221474770743 245.49999999999932,254.13271264002572 237.40983005625048,248.25486011709938 227.4098300562501,248.25486011709768 235.4999999999989,254.13271264002404 243.5901699437497,248.2548601171004 251.68033988749852,254.13271264002677 243.59016994374971,248.2548601171004 251.6803398875005,242.3770075941768 254.77050983125173,232.86644243122538 246.6803398875009,238.744294954149 249.77050983124892,248.25486011710146 241.6803398874981,254.13271264002506 249.77050983124892,248.25486011710146 252.8606797749969,257.76542528005393 260.9508497187457,263.64327780298026 257.8606797749977,254.13271264002782 247.8606797749973,254.1327126400261 244.7705098312493,244.62214747707364 247.8606797749973,254.1327126400261 237.8606797749969,254.1327126400244 229.77050983124607,260.010565162948 239.7705098312465,260.0105651629497 242.86067977499772,250.4999999999983 252.86067977499815,250.50000000000003 242.86067977499772,250.4999999999983 245.95084971874894,240.9894348370469 242.860679775001,231.47886967409443 239.77050983124974,240.98943483704585 247.86067977499854,246.8672873599722 244.7705098312473,256.3778525229236 247.86067977499854,246.8672873599722" stroke="black" stroke-linecap="round" stroke-width="1" /><polyline clip-path="url(#border_clip)" fill="none" points="247.86067977499854,246.8672873599722 255.95084971874735,252.74513988289857 265.95084971874775,252.7451398829003 257.86067977499897,246.86728735997391 249.77050983124815,252.74513988289752 241.68033988749934,246.86728735997113 249.77050983124815,252.74513988289752 241.6803398874973,258.6229924058211 238.59016994374605,268.1335575687725 246.6803398874969,262.2557050458489 243.59016994374895,252.74513988289644 251.68033988749977,246.86728735997286 243.59016994374895,252.74513988289644 240.500000000001,243.23457471994396 232.4098300562522,237.35672219701758 235.50000000000014,246.86728735997005 245.50000000000057,246.86728735997178 248.5901699437485,256.3778525229243 245.50000000000057,246.86728735997178 255.50000000000097,246.86728735997355 263.5901699437518,240.98943483704997 253.5901699437514,240.98943483704824 250.50000000000014,250.49999999999963 240.49999999999972,250.49999999999787 250.50000000000014,250.49999999999963 247.40983005624886,260.010565162951 250.49999999999682,269.52113032590347 253.59016994374807,260.0105651629521 245.4999999999993,254.1327126400257 248.59016994375057,244.6221474770743 245.4999999999993,254.1327126400257 237.4098300562505,248.2548601170993 227.4098300562501,248.25486011709754 235.49999999999886,254.13271264002395 243.59016994374971,248.25486011710038 251.6803398874985,254.1327126400268 243.59016994374971,248.25486011710038 251.68033988750057,242.37700759417683 254.77050983125184,232.86644243122544 246.680339887501,238.74429495414898 249.77050983124892,248.2548601171015 241.68033988749806,254.13271264002503 249.77050983124892,248.2548601171015" stroke="black" stroke-linecap="round" stroke-width="1" /><polyline clip-path="url(#border_clip)" fill="none" points="249.77050983124892,248.2548601171015 252.86067977499684,257.76542528005393 260.9508497187456,263.6432778029804 257.8606797749977,254.13271264002788 247.86067977499727,254.1327126400261 244.77050983124937,244.62214747707364 247.86067977499727,254.1327126400261 237.86067977499687,254.13271264002432 229.770509831246,260.0105651629479 239.77050983124641,260.01056516294966 242.86067977499772,250.49999999999827 252.86067977499815,250.50000000000006 242.86067977499772,250.49999999999827 245.95084971874903,240.9894348370469 242.8606797750011,231.4788696740944 239.7705098312498,240.9894348370458 247.86067977499857,246.8672873599722 244.77050983124727,256.3778525229236 247.86067977499857,246.8672873599722 255.95084971874732,252.74513988289863 265.95084971874775,252.74513988290042 257.86067977499897,246.867287359974 249.77050983124812,252.74513988289752 241.68033988749937,246.8672873599711 249.77050983124812,252.74513988289752 241.68033988749727,258.62299240582104 238.59016994374593,268.1335575687724 246.6803398874968,262.2557050458489 243.59016994374892,252.7451398828964 251.6803398874998,246.8672873599729 243.59016994374892,252.7451398828964 240.50000000000102,243.23457471994394 232.4098300562523,237.3567221970175 235.50000000000017,246.86728735996996 245.5000000000006,246.86728735997178 248.59016994374846,256.3778525229243 245.5000000000006,246.86728735997178 255.500000000001,246.8672873599736 263.5901699437519,240.98943483705008 253.59016994375148,240.98943483704826 250.50000000000014,250.49999999999966 240.49999999999972,250.49999999999784 250.50000000000014,250.49999999999966" stroke="black" stroke-linecap="round" stroke-width="1" /><polyline clip-path="url(#border_clip)" fill="none" points="250.50000000000014,250.49999999999966 247.4098300562488,260.010565162951 250.49999999999667,269.5211303259035 253.590169943748,260.01056516295216 245.49999999999926,254.13271264002572 248.5901699437506,244.62214747707432 245.49999999999926,254.13271264002572 237.40983005625054,248.25486011709924 227.40983005625012,248.25486011709742 235.49999999999886,254.13271264002387 243.59016994374974,248.25486011710038 251.6803398874985,254.13271264002682 243.59016994374974,248.25486011710038 251.68033988750062,242.3770075941769 254.77050983125199,232.86644243122552 246.68033988750108,238.744294954149 249.77050983124894,248.25486011710152 241.68033988749806,254.132712640025 249.77050983124894,248.25486011710152 252.8606797749968,257.765425280054 260.95084971874553,263.6432778029805 257.86067977499766,254.13271264002796 247.86067977499727,254.13271264002614 244.7705098312494,244.62214747707364 247.86067977499727,254.13271264002614 237.86067977499684,254.1327126400243 229.77050983124593,260.0105651629478 239.77050983124636,260.0105651629496 242.86067977499772,250.49999999999824 252.86067977499815,250.5000000000001 242.86067977499772,250.49999999999824 245.95084971874908,240.9894348370469 242.86067977500124,231.47886967409437 239.77050983124988,240.98943483704574 247.8606797749986,246.8672873599722 244.77050983124724,256.3778525229236 247.8606797749986,246.8672873599722 255.95084971874732,252.7451398828987 265.95084971874775,252.74513988290056 257.860679774999,246.86728735997409 249.77050983124812,252.74513988289755 241.6803398874994,246.86728735997107 249.77050983124812,252.74513988289755" stroke="black" stroke-linecap="round" stroke-width="1" /><polyline clip-path="url(#border_clip)" fill="none" points="249.77050983124812,252.74513988289755 241.6803398874972,258.62299240582104 238.59016994374582,268.1335575687724 246.68033988749673,262.2557050458489 243.59016994374892,252.7451398828964 251.68033988749983,246.86728735997292 243.59016994374892,252.7451398828964 240.50000000000108,243.23457471994388 232.40983005625236,237.35672219701738 235.5000000000002,246.8672873599699 245.50000000000063,246.86728735997178 248.59016994374844,256.3778525229243 245.50000000000063,246.86728735997178 255.50000000000105,246.86728735997366 263.59016994375196,240.9894348370502 253.59016994375153,240.98943483704832 250.50000000000014,250.4999999999997 240.49999999999972,250.49999999999778 250.50000000000014,250.4999999999997 247.40983005624875,260.010565162951 250.49999999999656,269.5211303259036 253.59016994374795,260.0105651629522 245.49999999999926,254.1327126400257 248.59016994375065,244.62214747707435 245.49999999999926,254.1327126400257 237.40983005625054,248.25486011709918 227.40983005625012,248.25486011709728 235.49999999999883,254.1327126400238 243.59016994374977,248.25486011710035 251.68033988749846,254.13271264002688 243.59016994374977,248.25486011710035 251.6803398875007,242.37700759417692 254.7705098312521,232.86644243122555 246.68033988750116,238.744294954149 249.77050983124897,248.25486011710154 241.68033988749804,254.13271264002498 249.77050983124897,248.25486011710154 252.86067977499675,257.76542528005405 260.9508497187455,263.6432778029806 257.86067977499766,254.13271264002805 247.86067977499724,254.13271264002614 244.77050983124946,244.6221474770736 247.86067977499724,254.13271264002614" stroke="black" stroke-linecap="round" stroke-width="1" /><polyline clip-path="url(#border_clip)" fill="none" points="247.86067977499724,254.13271264002614 237.8606797749968,254.13271264002424 229.77050983124587,260.01056516294767 239.7705098312463,260.0105651629496 242.86067977499772,250.49999999999824 252.86067977499815,250.50000000000014 242.86067977499772,250.49999999999824 245.95084971874914,240.9894348370469 242.86067977500136,231.47886967409437 239.77050983124994,240.9894348370457 247.86067977499863,246.86728735997224 244.77050983124718,256.3778525229236 247.86067977499863,246.86728735997224 255.95084971874732,252.74513988289877 265.95084971874775,252.7451398829007 257.860679774999,246.86728735997417 249.7705098312481,252.74513988289758 241.68033988749943,246.86728735997104 249.7705098312481,252.74513988289758 241.68033988749715,258.622992405821 238.5901699437457,268.13355756877235 246.68033988749667,262.2557050458489 243.5901699437489,252.74513988289638 251.68033988749985,246.86728735997298 243.5901699437489,252.74513988289638 240.50000000000114,243.23457471994385 232.40983005625247,237.35672219701732 235.50000000000023,246.86728735996985 245.50000000000065,246.86728735997178 248.5901699437484,256.37785252292434 245.50000000000065,246.86728735997178 255.50000000000105,246.86728735997374 263.590169943752,240.98943483705034 253.5901699437516,240.98943483704838 250.50000000000014,250.49999999999972 240.49999999999972,250.49999999999775 250.50000000000014,250.49999999999972 247.40983005624867,260.010565162951 250.49999999999642,269.5211303259036 253.5901699437479,260.0105651629523 245.49999999999923,254.1327126400257 248.59016994375068,244.62214747707438 245.49999999999923,254.1327126400257" stroke="black" stroke-linecap="round" stroke-width="1" /><polyline clip-path="url(#border_clip)" fill="none" points="245.49999999999923,254.1327126400257 237.40983005625057,248.25486011709913 227.40983005625014,248.25486011709717 235.4999999999988,254.13271264002373 243.59016994374977,248.25486011710035 251.68033988749843,254.1327126400269 243.59016994374977,248.25486011710035 251.68033988750074,242.37700759417697 254.7705098312522,232.86644243122564 246.68033988750125,238.744294954149 249.77050983124897,248.25486011710157 241.680339887498,254.13271264002495 249.77050983124897,248.25486011710157 252.8606797749967,257.7654252800541 260.95084971874536,263.64327780298066 257.8606797749976,254.13271264002813 247.8606797749972,254.13271264002617 244.77050983124948,244.6221474770736 247.8606797749972,254.13271264002617 237.86067977499678,254.13271264002418 229.77050983124582,260.01056516294756 239.77050983124624,260.01056516294955 242.86067977499772,250.4999999999982 252.86067977499815,250.5000000000002 242.86067977499772,250.4999999999982 245.95084971874923,240.9894348370469 242.8606797750015,231.47886967409434 239.77050983125002,240.98943483704568 247.86067977499866,246.86728735997224 244.77050983124715,256.37785252292355 247.86067977499866,246.86728735997224 255.9508497187473,252.74513988289885 265.95084971874775,252.74513988290084 257.8606797749991,246.86728735997426 249.7705098312481,252.7451398828976 241.68033988749946,246.86728735997102 249.7705098312481,252.7451398828976 241.6803398874971,258.622992405821 238.5901699437456,268.1335575687723 246.6803398874966,262.2557050458489 243.5901699437489,252.74513988289638 251.68033988749988,246.867287359973 243.5901699437489,252.74513988289638" stroke="black" stroke-linecap="round" stroke-width="1" /><polyline clip-path="url(#border_clip)" fill="none" points="243.5901699437489,252.74513988289638 240.5000000000012,243.23457471994382 232.40983005625256,237.3567221970172 235.50000000000026,246.86728735996977 245.50000000000065,246.86728735997178 248.59016994374835,256.37785252292434 245.50000000000065,246.86728735997178 255.50000000000108,246.8672873599738 263.5901699437521,240.98943483705045 253.59016994375168,240.98943483704844 250.50000000000014,250.49999999999974 240.49999999999972,250.49999999999773 250.50000000000014,250.49999999999974 247.4098300562486,260.010565162951 250.4999999999963,269.5211303259036 253.5901699437478,260.0105651629523 245.4999999999992,254.1327126400257 248.59016994375074,244.62214747707438 245.4999999999992,254.1327126400257 237.40983005625057,248.25486011709907 227.40983005625014,248.25486011709705 235.49999999999878,254.13271264002367 243.59016994374977,248.25486011710032 251.6803398874984,254.13271264002694 243.59016994374977,248.25486011710032 251.6803398875008,242.377007594177 254.77050983125233,232.8664424312257 246.6803398875013,238.744294954149 249.77050983124897,248.2548601171016 241.68033988749798,254.13271264002492 249.77050983124897,248.2548601171016 252.86067977499664,257.76542528005416 260.95084971874525,263.6432778029808 257.8606797749976,254.13271264002822 247.86067977499718,254.13271264002617 244.7705098312495,244.6221474770736 247.86067977499718,254.13271264002617 237.86067977499675,254.13271264002412 229.77050983124573,260.01056516294744 239.77050983124616,260.0105651629495 242.86067977499772,250.4999999999982 252.86067977499815,250.50000000000026 242.86067977499772,250.4999999999982" stroke="black" stroke-linecap="round" stroke-width="1" /><polyline clip-path="url(#border_clip)" fill="none" points="242.86067977499772,250.4999999999982 245.95084971874928,240.9894348370469 242.8606797750016,231.4788696740943 239.77050983125008,240.98943483704562 247.86067977499866,246.86728735997227 244.7705098312471,256.37785252292355 247.86067977499866,246.86728735997227 255.95084971874726,252.7451398828989 265.9508497187477,252.745139882901 257.8606797749991,246.86728735997434 249.77050983124806,252.74513988289763 241.68033988749946,246.867287359971 249.77050983124806,252.74513988289763 241.68033988749704,258.6229924058209 238.59016994374548,268.13355756877223 246.6803398874965,262.2557050458489 243.59016994374886,252.74513988289635 251.68033988749988,246.86728735997306 243.59016994374886,252.74513988289635 240.50000000000122,243.2345747199438 232.40983005625264,237.35672219701712 235.50000000000026,246.8672873599697 245.50000000000068,246.86728735997178 248.59016994374832,256.37785252292434 245.50000000000068,246.86728735997178 255.5000000000011,246.86728735997386 263.59016994375213,240.98943483705057 253.59016994375173,240.9894348370485 250.50000000000014,250.49999999999977 240.49999999999972,250.4999999999977 250.50000000000014,250.49999999999977 247.40983005624855,260.0105651629511 250.49999999999616,269.52113032590364 253.59016994374775,260.01056516295233 245.49999999999918,254.1327126400257 248.59016994375077,244.6221474770744 245.49999999999918,254.1327126400257 237.4098300562506,248.254860117099 227.40983005625017,248.25486011709694 235.49999999999875,254.13271264002358 243.5901699437498,248.25486011710032 251.68033988749838,254.132712640027 243.5901699437498,248.25486011710032" stroke="black" stroke-linecap="round" stroke-width="1" /><polyline clip-path="url(#border_clip)" fill="none" points="243.5901699437498,248.25486011710032 251.68033988750085,242.37700759417703 254.77050983125244,232.86644243122575 246.6803398875014,238.74429495414904 249.770509831249,248.2548601171016 241.68033988749795,254.1327126400249 249.770509831249,248.25486011710163 252.8606797749966,257.7654252800542 260.9508497187452,263.6432778029809 257.86067977499755,254.1327126400283 247.86067977499715,254.1327126400262 244.77050983124957,244.6221474770736 247.86067977499715,254.1327126400262 237.86067977499675,254.13271264002407 229.77050983124568,260.01056516294733 239.7705098312461,260.01056516294943 242.86067977499772,250.49999999999818 252.86067977499815,250.50000000000028 242.86067977499772,250.49999999999818 245.95084971874934,240.9894348370469 242.86067977500176,231.4788696740943 239.77050983125014,240.9894348370456 247.8606797749987,246.8672873599723 244.77050983124707,256.37785252292355 247.8606797749987,246.8672873599723 255.95084971874726,252.74513988289897 265.9508497187477,252.7451398829011 257.86067977499914,246.8672873599744 249.77050983124806,252.74513988289766" stroke="black" stroke-linecap="round" stroke-width="1" /></svg>