<?xml version="1.0" encoding="UTF-8"?>
<svg width="1e4px" height="1e4px" baseProfile="full" version="1.1" viewBox="4982.4 4985.1 38.541 38.042" xmlns="http://www.w3.org/2000/svg">
<defs>
<clipPath id="a">
<rect width="1e4" height="1e4"/>
</clipPath>
</defs>
<polyline points="5000.5 5000.5 5010.5 5000.5 5018.6 4994.6 5008.6 4994.6 5005.5 5004.1 4995.5 5004.1 5005.5 5004.1 5002.4 5013.6 5005.5 5023.2 5008.6 5013.6 5000.5 5007.8 5003.6 4998.3 5000.5 5007.8 4992.4 5001.9 4982.4 5001.9 4990.5 5007.8 4998.6 5001.9 5006.7 5007.8 4998.6 5001.9 5006.7 4996 5009.8 4986.5 5001.7 4992.4 5004.8 5001.9 4996.7 5007.8 5004.8 5001.9 5007.9 5011.4 5016 5017.3 5012.9 5007.8 5002.9 5007.8 4999.8 4998.3 5002.9 5007.8 4992.9 5007.8 4984.8 5013.6 4994.8 5013.6 4997.9 5004.1 5007.9 5004.1 4997.9 5004.1 5001 4994.6 4997.9 4985.1 4994.8 4994.6 5002.9 5000.5 4999.8 5010 5002.9 5000.5" clip-path="url(#a)" fill="none" stroke="#000" stroke-linecap="round"/>
<polyline points="5002.9 5000.5 5011 5006.4 5021 5006.4 5012.9 5000.5 5004.8 5006.4 4996.7 5000.5 5004.8 5006.4 4996.7 5012.3 4993.6 5021.8 5001.7 5015.9 4998.6 5006.4 5006.7 5000.5 4998.6 5006.4 4995.5 4996.9 4987.4 4991 4990.5 5000.5 5000.5 5000.5 5003.6 5010 5000.5 5000.5 5010.5 5000.5 5018.6 4994.6 5008.6 4994.6 5005.5 5004.1 4995.5 5004.1 5005.5 5004.1 5002.4 5013.6 5005.5 5023.2 5008.6 5013.6 5000.5 5007.8 5003.6 4998.3 5000.5 5007.8 4992.4 5001.9 4982.4 5001.9 4990.5 5007.8 4998.6 5001.9 5006.7 5007.8 4998.6 5001.9 5006.7 4996 5009.8 4986.5 5001.7 4992.4 5004.8 5001.9 4996.7 5007.8 5004.8 5001.9" clip-path="url(#a)" fill="none" stroke="#000" stroke-linecap="round"/>
<polyline points="5004.8 5001.9 5007.9 5011.4 5016 5017.3 5012.9 5007.8 5002.9 5007.8 4999.8 4998.3 5002.9 5007.8 4992.9 5007.8 4984.8 5013.6 4994.8 5013.6 4997.9 5004.1 5007.9 5004.1 4997.9 5004.1 5001 4994.6 4997.9 4985.1 4994.8 4994.6 5002.9 5000.5 4999.8 5010 5002.9 5000.5 5011 5006.4 5021 5006.4 5012.9 5000.5 5004.8 5006.4 4996.7 5000.5 5004.8 5006.4 4996.7 5012.3 4993.6 5021.8 5001.7 5015.9 4998.6 5006.4 5006.7 5000.5 4998.6 5006.4 4995.5 4996.9 4987.4 4991 4990.5 5000.5 5000.5 5000.5 5003.6 5010 5000.5 5000.5" clip-path="url(#a)" fill="none" stroke="#000" stroke-linecap="round"/>
</svg>
