<?xml version="1.0" encoding="utf-8" ?>
<svg baseProfile="full" height="1000px" version="1.1" width="1000px" xmlns="http://www.w3.org/2000/svg" xmlns:ev="http://www.w3.org/2001/xml-events" xmlns:xlink="http://www.w3.org/1999/xlink"><defs><clipPath id="border_clip"><rect height="1000" width="1000" x="0" y="0" /></clipPath></defs><polyline clip-path="url(#border_clip)" fill="none" points="500.5,500.5 510.5,500.5 518.5901699437495,494.62214747707526 508.59016994374946,494.62214747707526 498.59016994374946,494.62214747707526 495.5,485.1115823141237 492.40983005625054,494.62214747707526 495.5,485.1115823141237 498.59016994374946,475.6010171511722 506.680339887499,481.4788696740969 514.7705098312484,487.35672219702167 511.680339887499,477.84615703407013 501.680339887499,477.84615703407013 498.59016994374946,487.35672219702167 501.680339887499,477.84615703407013 491.680339887499,477.84615703407013 501.680339887499,477.84615703407013 504.77050983124843,468.3355918711186 501.680339887499,458.82502670816706 493.5901699437495,452.9471741852423 485.50000000000006,458.82502670816706 488.5901699437495,449.3144615452155 496.680339887499,455.19231406814026 486.680339887499,455.19231406814026 476.680339887499,455.1923140681402 486.680339887499,455.19231406814026 478.5901699437495,461.07016659106495 486.680339887499,466.9480191139897 489.77050983124843,457.43745395103815 499.77050983124843,457.4374539510382 509.7705098312485,457.4374539510382 512.860679774998,447.92688878808667 522.860679774998,447.9268887880867 530.9508497187475,442.049036265162 527.860679774998,451.5596014281135 519.7705098312484,457.43745395103826 511.680339887499,463.31530647396295 508.59016994374946,472.8258716369145 516.6803398874989,466.94801911398974 524.7705098312484,461.07016659106506 532.860679774998,466.9480191139898 529.7705098312484,457.43745395103826 532.860679774998,466.9480191139898" stroke="black" stroke-linecap="round" stroke-width="1" /><polyline clip-path="url(#border_clip)" fill="none" points="532.860679774998,466.9480191139898 535.9508497187473,476.4585842769414 525.9508497187473,476.45858427694134 515.9508497187473,476.4585842769413 524.0410196624968,482.3364367998661 532.1311896062463,476.45858427694134 529.0410196624969,466.9480191139898 532.1311896062463,476.45858427694134 540.2213595499958,470.58073175401665 532.1311896062463,476.45858427694134 535.2213595499957,485.96914943989293 543.3115294937452,491.84700196281767 553.3115294937452,491.8470019628177 556.4016994374947,482.3364367998662 559.4918693812441,491.8470019628178 549.4918693812441,491.8470019628177 557.5820393249936,485.96914943989304 565.6722092687431,480.0912969169683 557.5820393249936,485.96914943989304 560.6722092687431,476.4585842769415 550.6722092687431,476.45858427694145 553.7623792124925,485.969149439893 545.672209268743,491.84700196281767 537.5820393249935,497.72485448574236 540.672209268743,507.23541964869395 532.5820393249935,513.1132721716186 529.4918693812439,522.6238373345701 526.4016994374945,513.1132721716185 529.491869381244,503.60270700866704 532.5820393249936,494.09214184571556 529.4918693812442,484.58157668276397 526.4016994374946,494.0921418457155 523.3115294937451,503.60270700866704 513.3115294937451,503.6027070086669 521.4016994374945,509.4805595315917 513.3115294937451,503.6027070086669 505.2213595499956,497.7248544857421 513.3115294937452,491.84700196281744 521.4016994374947,485.9691494398928 511.4016994374947,485.9691494398927 508.3115294937451,495.47971460284424 516.4016994374946,501.35756712576904 508.3115294937451,495.47971460284424" stroke="black" stroke-linecap="round" stroke-width="1" /><polyline clip-path="url(#border_clip)" fill="none" points="508.3115294937451,495.47971460284424 505.22135954999555,504.9902797657958 508.3115294937451,495.47971460284424 500.22135954999567,489.60186207991944 490.22135954999567,489.6018620799194 482.13118960624615,495.479714602844 485.22135954999555,504.9902797657956 477.13118960624615,499.1124272428708 485.22135954999567,493.2345747199461 482.1311896062461,502.74513988289766 479.0410196624965,512.2557050458491 482.1311896062461,502.74513988289766 485.2213595499955,512.2557050458493 493.311529493745,506.37785252292457 485.2213595499956,500.4999999999998 488.3115294937452,490.98943483704824 491.40169943749476,481.4788696740967 483.3115294937453,475.6010171511719 486.40169943749487,466.09045198822037 483.31152949374547,456.57988682526883 491.4016994374949,462.4577393481936 494.49186938124427,471.9683045111452 497.5820393249937,481.47886967409676 505.6722092687431,487.3567221970216 502.58203932499373,477.84615703407 499.4918693812443,468.3355918711184 507.5820393249939,462.4577393481938 497.58203932499384,462.4577393481937 507.5820393249939,462.4577393481938 517.5820393249938,462.4577393481939 514.4918693812443,471.9683045111454 511.40169943749476,481.4788696740969 519.4918693812443,475.6010171511723 516.4016994374949,466.0904519882207 506.40169943749487,466.0904519882206 516.4016994374949,466.0904519882207 513.3115294937455,456.5798868252691 516.4016994374949,466.0904519882207 526.4016994374949,466.0904519882208 534.4918693812444,460.2125994652962 537.5820393249941,450.70203430234466 529.4918693812447,444.82418177941986 539.4918693812447,444.82418177942" stroke="black" stroke-linecap="round" stroke-width="1" /><polyline clip-path="url(#border_clip)" fill="none" points="539.4918693812447,444.82418177942 536.401699437495,454.33474694237145 533.3115294937456,444.82418177941986 530.2213595499964,435.31361661646827 533.3115294937456,444.82418177941986 525.2213595499962,438.94632925649506 522.1311896062467,448.45689441944654 532.1311896062467,448.45689441944666 535.221359549996,457.96745958239825 538.3115294937454,467.47802474534984 548.3115294937454,467.47802474534996 551.4016994374948,476.98858990830155 559.4918693812442,482.8664424312264 549.4918693812442,482.8664424312263 541.4016994374947,476.98858990830144 533.3115294937453,471.1107373853766 523.3115294937453,471.1107373853764 531.4016994374947,476.98858990830126 539.4918693812441,482.8664424312261 536.4016994374946,492.37700759417766 544.4918693812441,486.499155071253 536.4016994374945,492.37700759417766 528.311529493745,498.2548601171023 525.2213595499957,488.7442949541507 522.1311896062463,479.2337297911991 519.0410196624966,488.7442949541506 527.131189606246,494.62214747707543 535.2213595499957,488.7442949541508 527.131189606246,494.62214747707543 535.2213595499954,500.5000000000003 527.131189606246,494.62214747707543 519.0410196624965,500.50000000000006 515.9508497187469,510.0105651629516 519.0410196624962,519.5211303259032 529.0410196624962,519.5211303259033 520.9508497187467,525.3989828488279 517.8606797749973,515.8884176858763 525.9508497187467,521.7662702088012 534.0410196624961,527.644122731726 525.9508497187467,521.7662702088012 535.9508497187467,521.7662702088013 532.8606797749974,512.2557050458497 524.7705098312479,518.1335575687743" stroke="black" stroke-linecap="round" stroke-width="1" /><polyline clip-path="url(#border_clip)" fill="none" points="524.7705098312479,518.1335575687743 516.6803398874985,512.2557050458495 508.590169943749,506.3778525229246 500.49999999999943,512.2557050458493 492.40983005625003,506.37785252292434 482.40983005625003,506.37785252292423 490.4999999999996,500.4999999999996 500.49999999999966,500.4999999999998 510.49999999999966,500.49999999999994 518.5901699437493,494.6221474770753 508.59016994374923,494.62214747707515 498.5901699437492,494.622147477075 495.4999999999999,485.1115823141234 492.40983005625026,494.62214747707486 495.4999999999999,485.1115823141234 498.5901699437495,475.6010171511719 506.6803398874989,481.47886967409676 514.7705098312483,487.35672219702167 511.680339887499,477.84615703407 501.680339887499,477.84615703406985 498.59016994374934,487.3567221970214 501.680339887499,477.84615703406985 491.680339887499,477.8461570340697 501.680339887499,477.84615703406985 504.7705098312486,468.33559187111837 501.6803398874993,458.8250267081668 493.5901699437499,452.94717418524186 485.50000000000034,458.8250267081665 488.59016994374997,449.31446154521495 496.6803398874994,455.19231406813986 486.6803398874994,455.1923140681397 476.6803398874993,455.1923140681395 486.6803398874994,455.1923140681397 478.59016994374974,461.07016659106426 486.68033988749914,466.9480191139892 489.7705098312488,457.4374539510377 499.77050983124883,457.43745395103787 509.77050983124883,457.43745395103804 512.8606797749985,447.92688878808656 522.8606797749985,447.9268887880868 530.9508497187481,442.04903626516216 527.8606797749984,451.5596014281137 519.7705098312489,457.43745395103826" stroke="black" stroke-linecap="round" stroke-width="1" /><polyline clip-path="url(#border_clip)" fill="none" points="519.7705098312489,457.43745395103826 511.68033988749926,463.31530647396283 508.5901699437496,472.82587163691437 516.6803398874991,466.94801911398974 524.7705098312488,461.0701665910652 532.8606797749982,466.9480191139901 529.7705098312489,457.4374539510385 532.8606797749982,466.9480191139901 535.9508497187475,476.45858427694174 525.9508497187475,476.4585842769415 515.9508497187473,476.4585842769413 524.0410196624968,482.3364367998662 532.1311896062464,476.4585842769416 529.0410196624971,466.94801911399003 532.1311896062464,476.4585842769416 540.221359549996,470.58073175401705 532.1311896062464,476.4585842769416 535.2213595499957,485.9691494398933 543.3115294937451,491.8470019628182 553.3115294937451,491.8470019628184 556.4016994374947,482.3364367998669 559.491869381244,491.8470019628185 549.491869381244,491.8470019628183 557.5820393249936,485.9691494398937 565.6722092687432,480.09129691696916 557.5820393249936,485.9691494398937 560.6722092687432,476.45858427694225 550.6722092687432,476.458584276942 553.7623792124925,485.96914943989367 545.6722092687429,491.84700196281824 537.5820393249933,497.72485448574275 540.6722092687426,507.2354196486944 532.5820393249929,513.113272171619 529.4918693812432,522.6238373345705 526.401699437494,513.1132721716189 529.4918693812436,503.6027070086673 532.5820393249934,494.09214184571584 529.4918693812441,484.5815766827642 526.4016994374944,494.09214184571573 523.3115294937447,503.6027070086672 513.3115294937446,503.602707008667 521.401699437494,509.4805595315919 513.3115294937446,503.602707008667" stroke="black" stroke-linecap="round" stroke-width="1" /><polyline clip-path="url(#border_clip)" fill="none" points="513.3115294937446,503.602707008667 505.2213595499953,497.724854485742 513.311529493745,491.84700196281744 521.4016994374946,485.96914943989293 511.4016994374945,485.9691494398927 508.31152949374484,495.4797146028442 516.4016994374942,501.3575671257691 508.31152949374484,495.4797146028442 505.22135954999516,504.99027976579566 508.31152949374484,495.4797146028442 500.2213595499955,489.6018620799192 490.22135954999544,489.601862079919 482.1311896062458,495.4797146028435 485.2213595499951,504.99027976579515 477.1311896062457,499.1124272428702 485.2213595499954,493.23457471994567 482.13118960624564,502.74513988289715 479.04101966249596,512.2557050458487 482.13118960624564,502.74513988289715 485.2213595499949,512.2557050458488 493.31152949374456,506.37785252292423 485.2213595499952,500.4999999999993 488.3115294937449,490.9894348370478 491.40169943749464,481.4788696740963 483.3115294937453,475.6010171511714 486.40169943749504,466.0904519882199 483.3115294937458,456.57988682526826 491.40169943749515,462.4577393481932 494.4918693812444,471.9683045111448 497.5820393249936,481.4788696740965 505.67220926874296,487.35672219702144 502.58203932499373,477.8461570340698 499.4918693812445,468.33559187111814 507.5820393249941,462.4577393481936 497.58203932499407,462.45773934819334 507.5820393249941,462.4577393481936 517.5820393249942,462.4577393481939 514.4918693812444,471.9683045111454 511.4016994374947,481.47886967409687 519.4918693812443,475.6010171511723 516.4016994374952,466.0904519882207 506.4016994374951,466.0904519882204 516.4016994374952,466.0904519882207" stroke="black" stroke-linecap="round" stroke-width="1" /><polyline clip-path="url(#border_clip)" fill="none" points="516.4016994374952,466.0904519882207 513.3115294937459,456.579886825269 516.4016994374952,466.0904519882207 526.4016994374952,466.09045198822093 534.4918693812448,460.2125994652964 537.5820393249945,450.70203430234494 529.4918693812452,444.82418177942 539.4918693812452,444.82418177942026 536.4016994374955,454.33474694237174 533.3115294937463,444.8241817794201 530.221359549997,435.31361661646844 533.3115294937463,444.8241817794201 525.2213595499969,438.9463292564951 522.1311896062472,448.4568944194466 532.1311896062472,448.4568944194469 535.2213595499965,457.96745958239853 538.3115294937456,467.4780247453502 548.3115294937456,467.47802474535047 551.4016994374949,476.9885899083021 559.4918693812442,482.8664424312271 549.4918693812442,482.8664424312268 541.4016994374948,476.98858990830183 533.3115294937455,471.1107373853768 523.3115294937455,471.1107373853765 531.4016994374948,476.9885899083015 539.4918693812441,482.8664424312265 536.4016994374944,492.377007594178 544.491869381244,486.4991550712535 536.4016994374944,492.377007594178 528.3115294937447,498.2548601171025 525.2213595499954,488.7442949541508 522.1311896062463,479.23372979119915 519.0410196624965,488.74429495415063 527.1311896062458,494.62214747707566 535.2213595499956,488.74429495415114 527.1311896062458,494.62214747707566 535.2213595499951,500.5000000000006 527.1311896062458,494.62214747707566 519.0410196624962,500.5000000000001 515.9508497187463,510.0105651629516 519.0410196624955,519.5211303259033 529.0410196624956,519.5211303259035 520.9508497187459,525.398982848828" stroke="black" stroke-linecap="round" stroke-width="1" /><polyline clip-path="url(#border_clip)" fill="none" points="520.9508497187459,525.398982848828 517.8606797749967,515.8884176858764 525.950849718746,521.7662702088014 534.0410196624954,527.6441227317264 525.950849718746,521.7662702088014 535.9508497187461,521.7662702088018 532.8606797749969,512.25570504585 524.7705098312472,518.1335575687746 516.6803398874979,512.2557050458496 508.59016994374855,506.3778525229245 500.49999999999886,512.255705045849 492.4098300562496,506.377852522924 482.4098300562495,506.37785252292366 490.4999999999992,500.4999999999992 500.49999999999926,500.49999999999955 510.4999999999993,500.49999999999983 518.590169943749,494.6221474770754 508.59016994374895,494.62214747707503 498.59016994374895,494.6221474770747 495.4999999999998,485.11158231412304 492.4098300562499,494.6221474770745 495.4999999999998,485.11158231412304 498.5901699437496,475.60101715117156 506.68033988749886,481.4788696740966 514.7705098312482,487.3567221970216 511.68033988749903,477.84615703406996 501.680339887499,477.8461570340696 498.5901699437492,487.35672219702104 501.680339887499,477.8461570340696 491.6803398874989,477.8461570340693 501.680339887499,477.8461570340696 504.7705098312488,468.33559187111814 501.6803398874996,458.82502670816643 493.5901699437503,452.9471741852414 485.5000000000006,458.82502670816586 488.5901699437504,449.31446154521444 496.6803398874997,455.19231406813947 486.6803398874997,455.1923140681391 476.68033988749966,455.1923140681388 486.6803398874997,455.1923140681391 478.59016994374997,461.0701665910636 486.68033988749926,466.9480191139886 489.7705098312491,457.4374539510372" stroke="black" stroke-linecap="round" stroke-width="1" /><polyline clip-path="url(#border_clip)" fill="none" points="489.7705098312491,457.4374539510372 499.77050983124917,457.4374539510375 509.77050983124917,457.43745395103787 512.860679774999,447.92688878808644 522.8606797749991,447.9268887880868 530.9508497187487,442.04903626516233 527.860679774999,451.55960142811375 519.7705098312492,457.43745395103826 511.6803398874995,463.31530647396266 508.59016994374963,472.82587163691414 516.6803398874994,466.9480191139897 524.7705098312491,461.07016659106523 532.8606797749984,466.9480191139903 529.7705098312492,457.4374539510386 532.8606797749984,466.9480191139903 535.9508497187476,476.45858427694196 525.9508497187475,476.4585842769416 515.9508497187475,476.4585842769412 524.0410196624968,482.3364367998663 532.1311896062465,476.45858427694185 529.0410196624973,466.94801911399014 532.1311896062465,476.45858427694185 540.2213595499961,470.5807317540174 532.1311896062465,476.45858427694185 535.2213595499956,485.9691494398935 543.3115294937448,491.8470019628186 553.3115294937448,491.847001962819 556.4016994374947,482.3364367998675 559.4918693812439,491.8470019628192 549.4918693812439,491.8470019628188 557.5820393249935,485.96914943989435 565.6722092687432,480.09129691696995 557.5820393249935,485.96914943989435 560.6722092687435,476.45858427694293 550.6722092687434,476.45858427694253 553.7623792124925,485.96914943989424 545.6722092687428,491.84700196281864 537.582039324993,497.7248544857431 540.6722092687421,507.2354196486948 532.5820393249924,513.1132721716192 529.4918693812425,522.6238373345707 526.4016994374934,513.113272171619 529.4918693812433,503.6027070086675" stroke="black" stroke-linecap="round" stroke-width="1" /><polyline clip-path="url(#border_clip)" fill="none" points="529.4918693812433,503.6027070086675 532.5820393249932,494.09214184571607 529.4918693812441,484.58157668276436 526.4016994374941,494.09214184571584 523.3115294937443,503.60270700866727 513.3115294937443,503.60270700866687 521.4016994374936,509.48055953159195 513.3115294937443,503.60270700866687 505.221359549995,497.7248544857418 513.3115294937447,491.84700196281733 521.4016994374945,485.96914943989293 511.40169943749447,485.96914943989253 508.3115294937446,495.47971460284396 516.4016994374939,501.35756712576904 508.3115294937446,495.47971460284396 505.2213595499947,504.99027976579544 508.3115294937446,495.47971460284396 500.2213595499953,489.6018620799189 490.2213595499953,489.6018620799185 482.1311896062455,495.4797146028429 485.22135954999465,504.9902797657946 477.13118960624536,499.1124272428695 485.22135954999516,493.2345747199451 482.13118960624524,502.7451398828965 479.0410196624954,512.255705045848 482.13118960624524,502.7451398828965 485.22135954999436,512.2557050458482 493.3115294937441,506.37785252292383 485.2213595499948,500.4999999999987 488.31152949374473,490.98943483704727 491.40169943749464,481.47886967409585 483.31152949374535,475.6010171511707 486.40169943749527,466.0904519882193 483.3115294937462,456.5798868252676 491.40169943749544,462.45773934819266 494.4918693812445,471.96830451114437 497.5820393249936,481.47886967409613 505.67220926874285,487.3567221970212 502.5820393249938,477.8461570340695 499.49186938124467,468.3355918711178 507.58203932499447,462.4577393481934 497.5820393249944,462.45773934819294 507.58203932499447,462.4577393481934" stroke="black" stroke-linecap="round" stroke-width="1" /><polyline clip-path="url(#border_clip)" fill="none" points="507.58203932499447,462.4577393481934 517.5820393249945,462.45773934819385 514.4918693812446,471.9683045111453 511.4016994374947,481.4788696740967 519.4918693812444,475.6010171511723 516.4016994374954,466.0904519882206 506.4016994374954,466.09045198822014 516.4016994374954,466.0904519882206 513.3115294937463,456.5798868252689 516.4016994374954,466.0904519882206 526.4016994374954,466.09045198822105 534.4918693812452,460.21259946529665 537.5820393249951,450.7020343023452 529.4918693812459,444.8241817794201 539.4918693812459,444.82418177942054 536.401699437496,454.33474694237196 533.3115294937469,444.82418177942026 530.2213595499979,435.31361661646855 533.3115294937469,444.82418177942026 525.2213595499977,438.9463292564951 522.1311896062477,448.4568944194466 532.1311896062479,448.45689441944705 535.2213595499969,457.96745958239876 538.3115294937459,467.47802474535047 548.311529493746,467.4780247453509 551.401699437495,476.98858990830263 559.4918693812442,482.86644243122777 549.4918693812442,482.8664424312273 541.4016994374949,476.9885899083022 533.3115294937458,471.11073738537704 523.3115294937456,471.1107373853766 531.4016994374949,476.9885899083017 539.4918693812441,482.86644243122686 536.4016994374942,492.3770075941783 544.491869381244,486.4991550712539 536.4016994374942,492.3770075941783 528.3115294937444,498.2548601171027 525.2213595499954,488.7442949541509 522.1311896062464,479.2337297911992 519.0410196624964,488.74429495415063 527.1311896062457,494.62214747707577 535.2213595499954,488.7442949541514 527.1311896062457,494.62214747707577" stroke="black" stroke-linecap="round" stroke-width="1" /><polyline clip-path="url(#border_clip)" fill="none" points="527.1311896062457,494.62214747707577 535.2213595499949,500.5000000000009 527.1311896062457,494.62214747707577 519.0410196624958,500.50000000000017 515.9508497187459,510.0105651629516 519.0410196624949,519.5211303259033 529.0410196624949,519.5211303259038 520.9508497187452,525.3989828488282 517.8606797749961,515.8884176858764 525.9508497187454,521.7662702088015 534.0410196624946,527.6441227317267 525.9508497187454,521.7662702088015 535.9508497187454,521.7662702088021 532.8606797749965,512.2557050458503 524.7705098312466,518.1335575687747 516.6803398874974,512.2557050458495 508.59016994374815,506.37785252292434 500.49999999999835,512.2557050458487 492.4098300562492,506.37785252292355 482.4098300562491,506.3778525229231 490.4999999999989,500.4999999999987 500.499999999999,500.4999999999992 510.49999999999903,500.4999999999997 518.5901699437488,494.6221474770754 508.5901699437488,494.62214747707486 498.5901699437487,494.62214747707435 495.4999999999997,485.11158231412264 492.40983005624975,494.62214747707407 495.4999999999997,485.11158231412264 498.5901699437497,475.60101715117116 506.6803398874989,481.47886967409636 514.7705098312481,487.35672219702155 511.6803398874991,477.8461570340698 501.68033988749903,477.8461570340693 498.59016994374906,487.3567221970207 501.68033988749903,477.8461570340693 491.68033988749903,477.84615703406877 501.68033988749903,477.8461570340693 504.77050983124906,468.33559187111786 501.68033988750005,458.8250267081661 493.5901699437508,452.94717418524095 485.500000000001,458.8250267081653 488.590169943751,449.3144615452139" stroke="black" stroke-linecap="round" stroke-width="1" /><polyline clip-path="url(#border_clip)" fill="none" points="488.590169943751,449.3144615452139 496.68033988750017,455.192314068139 486.68033988750017,455.1923140681385 476.6803398875001,455.192314068138 486.68033988750017,455.1923140681385 478.5901699437503,461.07016659106284 486.68033988749954,466.94801911398804 489.7705098312495,457.4374539510366 499.77050983124957,457.4374539510371 509.7705098312496,457.4374539510377 512.8606797749997,447.9268887880862 522.8606797749997,447.9268887880868 530.9508497187495,442.04903626516244 527.8606797749995,451.55960142811387 519.7705098312497,457.4374539510382 511.6803398874998,463.31530647396255 508.59016994374986,472.8258716369139 516.6803398874997,466.94801911398963 524.7705098312495,461.0701665910653 532.8606797749987,466.9480191139905 529.7705098312497,457.4374539510387 532.8606797749987,466.9480191139905 535.9508497187477,476.45858427694225 525.9508497187476,476.4585842769417 515.9508497187476,476.45858427694117 524.0410196624968,482.33643679986636 532.1311896062466,476.458584276942 529.0410196624977,466.94801911399026 532.1311896062466,476.458584276942 540.2213595499965,470.58073175401773 532.1311896062466,476.458584276942 535.2213595499956,485.9691494398938 543.3115294937447,491.847001962819 553.3115294937448,491.84700196281955 556.4016994374948,482.3364367998681 559.4918693812438,491.8470019628199 549.4918693812438,491.8470019628193 557.5820393249936,485.96914943989503 565.6722092687435,480.0912969169707 557.5820393249936,485.96914943989503 560.6722092687436,476.4585842769436 550.6722092687436,476.45858427694304 553.7623792124925,485.9691494398948" stroke="black" stroke-linecap="round" stroke-width="1" /><polyline clip-path="url(#border_clip)" fill="none" points="553.7623792124925,485.9691494398948 545.6722092687427,491.8470019628191 537.5820393249928,497.72485448574344 540.6722092687418,507.2354196486952 532.5820393249919,513.1132721716195 529.4918693812419,522.6238373345709 526.401699437493,513.1132721716192 529.491869381243,503.6027070086677 532.582039324993,494.0921418457163 529.4918693812441,484.58157668276453 526.401699437494,494.09214184571596 523.311529493744,503.6027070086674 513.3115294937439,503.6027070086668 521.4016994374931,509.48055953159206 513.3115294937439,503.6027070086668 505.22135954999476,497.7248544857416 513.3115294937446,491.8470019628173 521.4016994374945,485.969149439893 511.4016994374944,485.9691494398924 508.3115294937444,495.47971460284384 516.4016994374936,501.35756712576904 508.3115294937444,495.47971460284384 505.22135954999436,504.99027976579526 508.3115294937444,495.47971460284384 500.2213595499952,489.6018620799186 490.22135954999516,489.601862079918 482.1311896062453,495.4797146028423 485.22135954999425,504.99027976579407 477.1311896062451,499.1124272428689 485.22135954999493,493.2345747199446 482.1311896062449,502.74513988289596 479.0410196624948,512.2557050458474 482.1311896062449,502.74513988289596 485.2213595499938,512.2557050458478 493.3115294937437,506.37785252292343 485.22135954999453,500.49999999999824 488.31152949374456,490.9894348370468 491.4016994374946,481.4788696740954 483.3115294937454,475.60101715117014 486.4016994374955,466.0904519882187 483.31152949374655,456.57988682526695 491.4016994374957,462.4577393481922 494.49186938124467,471.96830451114397" stroke="black" stroke-linecap="round" stroke-width="1" /><polyline clip-path="url(#border_clip)" fill="none" points="494.49186938124467,471.96830451114397 497.5820393249936,481.4788696740958 505.6722092687428,487.35672219702104 502.58203932499384,477.8461570340692 499.4918693812449,468.33559187111746 507.5820393249948,462.4577393481932 497.58203932499475,462.45773934819255 507.5820393249948,462.4577393481932 517.5820393249949,462.4577393481938 514.4918693812448,471.96830451114516 511.4016994374947,481.4788696740966 519.4918693812446,475.6010171511723 516.4016994374957,466.09045198822054 506.4016994374956,466.0904519882199 516.4016994374957,466.09045198822054 513.3115294937468,456.5798868252688 516.4016994374957,466.09045198822054 526.4016994374957,466.09045198822116 534.4918693812456,460.2125994652969 537.5820393249957,450.70203430234545 529.4918693812465,444.8241817794202 539.4918693812466,444.8241817794208 536.4016994374965,454.33474694237225 533.3115294937476,444.8241817794204 530.2213595499987,435.31361661646866 533.3115294937476,444.8241817794204 525.2213595499984,438.9463292564952 522.1311896062483,448.4568944194466 532.1311896062484,448.45689441944717 535.2213595499974,457.967459582399 538.3115294937462,467.4780247453508 548.3115294937463,467.4780247453514 551.4016994374952,476.9885899083032 559.4918693812443,482.86644243122845 549.4918693812443,482.8664424312278 541.4016994374952,476.9885899083026 533.311529493746,471.11073738537726 523.3115294937459,471.11073738537664 531.401699437495,476.98858990830195 539.4918693812442,482.8664424312272 536.4016994374941,492.3770075941786 544.491869381244,486.49915507125434 536.4016994374941,492.3770075941786" stroke="black" stroke-linecap="round" stroke-width="1" /><polyline clip-path="url(#border_clip)" fill="none" points="536.4016994374941,492.3770075941786 528.3115294937443,498.2548601171029 525.2213595499953,488.7442949541511 522.1311896062464,479.23372979119927 519.0410196624963,488.7442949541507 527.1311896062455,494.622147477076 535.2213595499954,488.7442949541517 527.1311896062455,494.622147477076 535.2213595499946,500.50000000000125 527.1311896062455,494.622147477076 519.0410196624956,500.5000000000002 515.9508497187455,510.01056516295165 519.0410196624944,519.5211303259034 529.0410196624945,519.5211303259041 520.9508497187445,525.3989828488284 517.8606797749957,515.8884176858766 525.9508497187448,521.7662702088019 534.0410196624939,527.6441227317271 525.9508497187448,521.7662702088019 535.9508497187448,521.7662702088024 532.860679774996,512.2557050458506 524.770509831246,518.1335575687749 516.680339887497,512.2557050458496 508.5901699437478,506.37785252292434 500.49999999999784,512.2557050458486 492.4098300562487,506.37785252292326 482.40983005624867,506.37785252292264 490.4999999999986,500.49999999999835 500.49999999999864,500.49999999999903 510.4999999999987,500.49999999999966 518.5901699437486,494.62214747707543 508.59016994374855,494.62214747707475 498.5901699437485,494.6221474770741 495.4999999999996,485.1115823141223 492.40983005624946,494.6221474770737 495.4999999999996,485.1115823141223 498.59016994374974,475.60101715117094 506.68033988749886,481.47886967409625 514.770509831248,487.35672219702155 511.68033988749914,477.84615703406973 501.6803398874991,477.84615703406905 498.59016994374895,487.3567221970205 501.6803398874991,477.84615703406905" stroke="black" stroke-linecap="round" stroke-width="1" /><polyline clip-path="url(#border_clip)" fill="none" points="501.6803398874991,477.84615703406905 491.68033988749903,477.84615703406837 501.6803398874991,477.84615703406905 504.7705098312492,468.3355918711177 501.68033988750034,458.82502670816586 493.5901699437512,452.94717418524056 485.5000000000013,458.8250267081647 488.59016994375145,449.31446154521336 496.68033988750057,455.19231406813867 486.6803398875005,455.192314068138 476.6803398875004,455.1923140681373 486.6803398875005,455.192314068138 478.59016994375054,461.0701665910622 486.6803398874997,466.9480191139876 489.77050983124985,457.43745395103616 499.7705098312499,457.43745395103684 509.77050983124997,457.4374539510375 512.8606797750001,447.9268887880861 522.8606797750002,447.9268887880868 530.9508497187501,442.0490362651626 527.860679775,451.559601428114 519.77050983125,457.4374539510382 511.6803398875001,463.31530647396244 508.59016994374997,472.8258716369138 516.6803398874999,466.9480191139896 524.7705098312498,461.0701665910654 532.860679774999,466.9480191139907 529.7705098312501,457.4374539510389 532.860679774999,466.9480191139907 535.9508497187478,476.45858427694253 525.9508497187477,476.45858427694185 515.9508497187477,476.4585842769411 524.0410196624968,482.3364367998665 532.1311896062467,476.45858427694225 529.0410196624979,466.9480191139904 532.1311896062467,476.45858427694225 540.2213595499967,470.5807317540181 532.1311896062467,476.45858427694225 535.2213595499956,485.96914943989407 543.3115294937447,491.84700196281943 553.3115294937447,491.8470019628201 556.4016994374949,482.33643679986875 559.4918693812438,491.84700196282057" stroke="black" stroke-linecap="round" stroke-width="1" /><polyline clip-path="url(#border_clip)" fill="none" points="559.4918693812438,491.84700196282057 549.4918693812436,491.8470019628199 557.5820393249936,485.96914943989566 565.6722092687436,480.0912969169715 557.5820393249936,485.96914943989566 560.6722092687438,476.4585842769443 550.6722092687437,476.45858427694355 553.7623792124925,485.9691494398954 545.6722092687426,491.8470019628196 537.5820393249926,497.7248544857438 540.6722092687414,507.2354196486956 532.5820393249915,513.1132721716198 529.4918693812413,522.6238373345712 526.4016994374925,513.1132721716194 529.4918693812426,503.602707008668 532.5820393249928,494.0921418457166 529.491869381244,484.58157668276476 526.4016994374939,494.0921418457161 523.3115294937437,503.60270700866755 513.3115294937436,503.6027070086668 521.4016994374927,509.4805595315922 513.3115294937436,503.6027070086668 505.2213595499945,497.72485448574145 513.3115294937445,491.8470019628173 521.4016994374945,485.96914943989304 511.40169943749436,485.96914943989236 508.31152949374416,495.4797146028437 516.4016994374932,501.3575671257691 508.31152949374416,495.4797146028437 505.22135954999396,504.9902797657951 508.31152949374416,495.4797146028437 500.22135954999504,489.60186207991836 490.221359549995,489.6018620799176 482.131189606245,495.4797146028418 485.2213595499938,504.9902797657936 477.1311896062447,499.11242724286825 485.22135954999465,493.2345747199441 482.13118960624445,502.74513988289544 479.04101966249425,512.2557050458469 482.13118960624445,502.74513988289544 485.2213595499932,512.2557050458473 493.3115294937432,506.37785252292315 485.22135954999413,500.4999999999977" stroke="black" stroke-linecap="round" stroke-width="1" /><polyline clip-path="url(#border_clip)" fill="none" points="485.22135954999413,500.4999999999977 488.31152949374433,490.98943483704636 491.4016994374945,481.478869674095 483.3115294937454,475.6010171511696 486.40169943749567,466.0904519882182 483.3115294937469,456.5798868252664 491.40169943749595,462.45773934819175 494.4918693812447,471.96830451114363 497.58203932499356,481.47886967409545 505.6722092687426,487.3567221970209 502.58203932499384,477.846157034069 499.49186938124507,468.3355918711171 507.58203932499504,462.457739348193 497.582039324995,462.4577393481922 507.58203932499504,462.457739348193 517.5820393249951,462.45773934819374 514.4918693812449,471.9683045111451 511.4016994374947,481.4788696740965 519.4918693812447,475.60101715117236 516.401699437496,466.0904519882205 506.40169943749584,466.0904519882197 516.401699437496,466.0904519882205 513.3115294937471,456.57988682526866 516.401699437496,466.0904519882205 526.401699437496,466.0904519882213 534.491869381246,460.2125994652971 537.5820393249962,450.70203430234574 529.4918693812472,444.8241817794203 539.4918693812472,444.82418177942105 536.401699437497,454.3347469423725 533.3115294937483,444.8241817794206 530.2213595499994,435.3136166164687 533.3115294937483,444.8241817794206 525.2213595499991,438.9463292564952 522.1311896062489,448.4568944194466 532.131189606249,448.45689441944734 535.2213595499977,457.9674595823992 538.3115294937465,467.47802474535104 548.3115294937465,467.47802474535183 551.4016994374954,476.9885899083037 559.4918693812444,482.86644243122913 549.4918693812443,482.86644243122834 541.4016994374953,476.9885899083029" stroke="black" stroke-linecap="round" stroke-width="1" /><polyline clip-path="url(#border_clip)" fill="none" points="541.4016994374953,476.9885899083029 533.3115294937462,471.1107373853775 523.3115294937461,471.1107373853767 531.4016994374952,476.9885899083021 539.4918693812442,482.86644243122754 536.401699437494,492.3770075941789 544.491869381244,486.4991550712548 536.401699437494,492.3770075941789 528.3115294937439,498.2548601171031 525.2213595499952,488.7442949541512 522.1311896062465,479.2337297911993 519.0410196624962,488.7442949541507 527.1311896062452,494.62214747707617 535.2213595499953,488.744294954152 527.1311896062452,494.62214747707617 535.2213595499944,500.5000000000016 527.1311896062452,494.62214747707617 519.0410196624953,500.5000000000003 515.950849718745,510.01056516295165 519.0410196624938,519.5211303259035 529.0410196624938,519.5211303259043 520.9508497187438,525.3989828488285 517.8606797749951,515.8884176858766 525.9508497187442,521.766270208802 534.0410196624932,527.6441227317275 525.9508497187442,521.766270208802 535.9508497187443,521.7662702088028 532.8606797749956,512.255705045851 524.7705098312455,518.1335575687751 516.6803398874964,512.2557050458496 508.59016994374736,506.3778525229242 500.4999999999973,512.2557050458483 492.40983005624827,506.37785252292286 482.40983005624815,506.37785252292207 490.4999999999982,500.49999999999795 500.4999999999983,500.49999999999875 510.4999999999984,500.4999999999996 518.5901699437484,494.62214747707543 508.5901699437483,494.62214747707463 498.5901699437482,494.6221474770738 495.4999999999995,485.1115823141219 492.40983005624923,494.6221474770733 495.4999999999995,485.1115823141219" stroke="black" stroke-linecap="round" stroke-width="1" /><polyline clip-path="url(#border_clip)" fill="none" points="495.4999999999995,485.1115823141219 498.5901699437498,475.60101715117054 506.68033988749886,481.478869674096 514.770509831248,487.3567221970215 511.6803398874992,477.84615703406956 501.68033988749914,477.84615703406877 498.59016994374883,487.35672219702013 501.68033988749914,477.84615703406877 491.68033988749903,477.8461570340679 501.68033988749914,477.84615703406877 504.7705098312494,468.3355918711174 501.68033988750074,458.8250267081655 493.5901699437516,452.94717418524004 485.5000000000016,458.82502670816416 488.5901699437519,449.3144615452128 496.68033988750096,455.1923140681382 486.68033988750085,455.1923140681374 476.68033988750074,455.19231406813657 486.68033988750085,455.1923140681374 478.5901699437508,461.0701665910615 486.6803398874999,466.94801911398696 489.7705098312502,457.4374539510356 499.7705098312503,457.43745395103645 509.77050983125037,457.4374539510373 512.8606797750007,447.92688878808593 522.8606797750008,447.9268887880868 530.9508497187509,442.04903626516267 527.8606797750006,451.55960142811404 519.7705098312505,457.43745395103815 511.6803398875004,463.31530647396227 508.5901699437501,472.82587163691363 516.6803398875002,466.9480191139895 524.7705098312503,461.0701665910654 532.8606797749993,466.9480191139909 529.7705098312506,457.437453951039 532.8606797749993,466.9480191139909 535.9508497187479,476.4585842769428 525.9508497187478,476.45858427694196 515.9508497187478,476.4585842769411 524.0410196624968,482.3364367998666 532.1311896062468,476.4585842769425 529.0410196624982,466.9480191139906 532.1311896062468,476.4585842769425" stroke="black" stroke-linecap="round" stroke-width="1" /><polyline clip-path="url(#border_clip)" fill="none" points="532.1311896062468,476.4585842769425 540.2213595499969,470.58073175401836 532.1311896062468,476.4585842769425 535.2213595499956,485.96914943989435 543.3115294937446,491.8470019628199 553.3115294937447,491.84700196282074 556.401699437495,482.3364367998694 559.4918693812438,491.84700196282125 549.4918693812436,491.8470019628204 557.5820393249937,485.96914943989634 565.6722092687437,480.0912969169722 557.5820393249937,485.96914943989634 560.672209268744,476.458584276945 550.6722092687439,476.45858427694407 553.7623792124925,485.969149439896 545.6722092687424,491.84700196282006 537.5820393249924,497.7248544857441 540.6722092687411,507.23541964869605 532.582039324991,513.1132721716201 529.4918693812407,522.6238373345715 526.401699437492,513.1132721716195 529.4918693812424,503.60270700866823 532.5820393249927,494.09214184571687 529.491869381244,484.58157668276493 526.4016994374937,494.0921418457163 523.3115294937434,503.60270700866766 513.3115294937433,503.60270700866675 521.4016994374923,509.4805595315923 513.3115294937433,503.60270700866675 505.2213595499942,497.7248544857413 513.3115294937443,491.8470019628172 521.4016994374944,485.9691494398931 511.40169943749424,485.96914943989225 508.3115294937439,495.47971460284356 516.4016994374929,501.3575671257691 508.3115294937439,495.47971460284356 505.22135954999356,504.9902797657949 508.3115294937439,495.47971460284356 500.2213595499949,489.6018620799181 490.22135954999476,489.60186207991717 482.1311896062447,495.4797146028412 485.22135954999334,504.99027976579316 477.1311896062443,499.1124272428676" stroke="black" stroke-linecap="round" stroke-width="1" /><polyline clip-path="url(#border_clip)" fill="none" points="477.1311896062443,499.1124272428676 485.22135954999436,493.23457471994357 482.131189606244,502.74513988289493 479.0410196624936,512.2557050458463 482.131189606244,502.74513988289493 485.22135954999266,512.2557050458469 493.31152949374274,506.37785252292275 485.22135954999374,500.4999999999972 488.3115294937441,490.9894348370459 491.40169943749447,481.47886967409454 483.31152949374547,475.601017151169 486.40169943749584,466.09045198821764 483.3115294937472,456.5798868252657 491.40169943749623,462.45773934819124 494.49186938124484,471.9683045111432 497.5820393249935,481.4788696740951 505.6722092687425,487.35672219702064 502.5820393249939,477.8461570340687 499.49186938124524,468.3355918711168 507.5820393249954,462.4577393481927 497.58203932499526,462.4577393481918 507.5820393249954,462.4577393481927 517.5820393249954,462.4577393481936 514.4918693812451,471.968304511145 511.4016994374947,481.47886967409636 519.4918693812448,475.6010171511723 516.4016994374962,466.09045198822037 506.40169943749606,466.09045198821946 516.4016994374962,466.09045198822037 513.3115294937476,456.57988682526843 516.4016994374962,466.09045198822037 526.4016994374963,466.09045198822133 534.4918693812464,460.2125994652973 537.5820393249968,450.7020343023459 529.4918693812477,444.82418177942037 539.4918693812479,444.8241817794213 536.4016994374975,454.33474694237265 533.3115294937488,444.8241817794207 530.2213595500002,435.3136166164688 533.3115294937488,444.8241817794207 525.2213595499999,438.9463292564952 522.1311896062494,448.45689441944654 532.1311896062496,448.45689441944745" stroke="black" stroke-linecap="round" stroke-width="1" /><polyline clip-path="url(#border_clip)" fill="none" points="532.1311896062496,448.45689441944745 535.2213595499982,457.9674595823994 538.3115294937468,467.4780247453514 548.3115294937469,467.4780247453523 551.4016994374955,476.9885899083042 559.4918693812446,482.8664424312298 549.4918693812444,482.86644243122885 541.4016994374954,476.98858990830325 533.3115294937464,471.1107373853777 523.3115294937463,471.11073738537675 531.4016994374953,476.98858990830234 539.4918693812443,482.8664424312279 536.4016994374939,492.37700759417925 544.491869381244,486.49915507125525 536.4016994374939,492.37700759417925 528.3115294937437,498.2548601171033 525.2213595499951,488.7442949541513 522.1311896062466,479.2337297911994 519.0410196624961,488.74429495415075 527.1311896062451,494.62214747707634 535.2213595499952,488.7442949541523 527.1311896062451,494.62214747707634 535.2213595499941,500.5000000000019 527.1311896062451,494.62214747707634 519.0410196624949,500.50000000000034 515.9508497187445,510.0105651629517 519.0410196624931,519.5211303259036 529.0410196624932,519.5211303259046 520.9508497187431,525.3989828488286 517.8606797749945,515.8884176858767 525.9508497187435,521.7662702088022 534.0410196624925,527.6441227317279 525.9508497187435,521.7662702088022 535.9508497187437,521.7662702088032 532.8606797749951,512.2557050458513 524.7705098312449,518.1335575687752 516.680339887496,512.2557050458497 508.5901699437469,506.3778525229241 500.49999999999676,512.2557050458481 492.40983005624776,506.3778525229225 482.40983005624764,506.3778525229215 490.49999999999784,500.4999999999975 500.49999999999795,500.4999999999985" stroke="black" stroke-linecap="round" stroke-width="1" /><polyline clip-path="url(#border_clip)" fill="none" points="500.49999999999795,500.4999999999985 510.49999999999807,500.4999999999995 518.5901699437483,494.6221474770755 508.5901699437481,494.6221474770745 498.590169943748,494.6221474770735 495.49999999999943,485.11158231412156 492.40983005624895,494.6221474770729 495.49999999999943,485.11158231412156 498.59016994374986,475.6010171511702 506.68033988749886,481.4788696740958 514.7705098312479,487.35672219702144 511.68033988749926,477.84615703406945 501.68033988749914,477.8461570340685 498.5901699437487,487.3567221970198 501.68033988749914,477.8461570340685 491.68033988749903,477.84615703406746 501.68033988749914,477.8461570340685 504.7705098312496,468.3355918711171 501.6803398875011,458.8250267081652 493.5901699437521,452.94717418523953 485.50000000000193,458.82502670816353 488.59016994375236,449.31446154521217 496.68033988750136,455.1923140681378 486.68033988750125,455.1923140681368 476.68033988750113,455.1923140681358 486.68033988750125,455.1923140681368 478.59016994375105,461.0701665910608 486.68033988750005,466.9480191139864 489.77050983125054,457.4374539510351 499.77050983125065,457.4374539510361 509.77050983125076,457.43745395103707 512.8606797750012,447.92688878808576 522.8606797750014,447.9268887880868 530.9508497187516,442.0490362651628 527.8606797750011,451.55960142811415 519.7705098312509,457.4374539510381 511.68033988750074,463.3153064739621 508.59016994375025,472.82587163691346 516.6803398875004,466.94801911398946 524.7705098312506,461.07016659106546 532.8606797749995,466.9480191139911 529.770509831251,457.4374539510391 532.8606797749995,466.9480191139911" stroke="black" stroke-linecap="round" stroke-width="1" /><polyline clip-path="url(#border_clip)" fill="none" points="532.8606797749995,466.9480191139911 535.9508497187481,476.4585842769431 525.950849718748,476.4585842769421 515.9508497187478,476.45858427694105 524.0410196624969,482.33643679986665 532.1311896062471,476.4585842769427 529.0410196624985,466.9480191139907 532.1311896062471,476.4585842769427 540.2213595499973,470.58073175401876 532.1311896062471,476.4585842769427 535.2213595499956,485.9691494398947 543.3115294937445,491.84700196282034 553.3115294937446,491.84700196282137 556.4016994374952,482.33643679987 559.4918693812436,491.847001962822 549.4918693812435,491.84700196282097 557.5820393249937,485.96914943989697 565.6722092687439,480.091296916973 557.5820393249937,485.96914943989697 560.6722092687443,476.45858427694566 550.6722092687442,476.45858427694463 553.7623792124926,485.96914943989657 545.6722092687424,491.84700196282057 537.5820393249923,497.7248544857445 540.6722092687407,507.2354196486965 532.5820393249905,513.1132721716205 529.49186938124,522.6238373345718 526.4016994374915,513.1132721716198 529.491869381242,503.60270700866846 532.5820393249926,494.09214184571715 529.4918693812441,484.58157668276516 526.4016994374936,494.09214184571647 523.311529493743,503.60270700866783 513.3115294937429,503.60270700866675 521.4016994374919,509.4805595315924 513.3115294937429,503.60270700866675 505.2213595499939,497.7248544857411 513.3115294937442,491.84700196281716 521.4016994374944,485.9691494398932 511.4016994374942,485.96914943989213 508.3115294937437,495.47971460284344 516.4016994374927,501.35756712576915 508.3115294937437,495.47971460284344" stroke="black" stroke-linecap="round" stroke-width="1" /><polyline clip-path="url(#border_clip)" fill="none" points="508.3115294937437,495.47971460284344 505.22135954999317,504.9902797657948 508.3115294937437,495.47971460284344 500.22135954999476,489.6018620799178 490.2213595499946,489.6018620799167 482.1311896062444,495.47971460284066 485.2213595499929,504.99027976579265 477.13118960624394,499.11242724286694 485.22135954999413,493.234574719943 482.1311896062436,502.74513988289436 479.04101966249306,512.2557050458457 482.1311896062436,502.74513988289436 485.2213595499921,512.2557050458463 493.3115294937423,506.3778525229224 485.22135954999334,500.4999999999967 488.31152949374393,490.9894348370454 491.40169943749447,481.4788696740941 483.3115294937455,475.6010171511684 486.40169943749606,466.09045198821707 483.31152949374757,456.579886825265 491.4016994374965,462.4577393481907 494.491869381245,471.9683045111427 497.5820393249935,481.47886967409477 505.67220926874245,487.3567221970205 502.58203932499396,477.8461570340684 499.49186938124546,468.33559187111643 507.5820393249957,462.4577393481925 497.58203932499555,462.4577393481914 507.5820393249957,462.4577393481925 517.5820393249959,462.4577393481936 514.4918693812452,471.96830451114494 511.4016994374947,481.47886967409625 519.491869381245,475.60101715117236 516.4016994374965,466.0904519882203 506.40169943749635,466.09045198821923 516.4016994374965,466.0904519882203 513.311529493748,456.5798868252683 516.4016994374965,466.0904519882203 526.4016994374966,466.09045198822145 534.4918693812468,460.2125994652975 537.5820393249974,450.7020343023462 529.4918693812485,444.8241817794205 539.4918693812486,444.82418177942156" stroke="black" stroke-linecap="round" stroke-width="1" /><polyline clip-path="url(#border_clip)" fill="none" points="539.4918693812486,444.82418177942156 536.4016994374981,454.33474694237293 533.3115294937496,444.8241817794209 530.2213595500011,435.3136166164689 533.3115294937496,444.8241817794209 525.2213595500007,438.9463292564952 522.1311896062501,448.4568944194465 532.1311896062502,448.4568944194476 535.2213595499986,457.96745958239967 538.3115294937471,467.47802474535166 548.3115294937472,467.47802474535274 551.4016994374957,476.9885899083048 559.4918693812447,482.8664424312305 549.4918693812446,482.86644243122936 541.4016994374956,476.98858990830365 533.3115294937467,471.11073738537794 523.3115294937465,471.1107373853768 531.4016994374955,476.9885899083025 539.4918693812443,482.8664424312283 536.4016994374938,492.3770075941796 544.491869381244,486.4991550712557 536.4016994374938,492.3770075941796 528.3115294937435,498.2548601171035 525.2213595499951,488.7442949541515 522.1311896062466,479.23372979119944 519.0410196624961,488.74429495415075 527.131189606245,494.6221474770765 535.2213595499952,488.74429495415256 527.131189606245,494.6221474770765 535.2213595499938,500.5000000000022 527.131189606245,494.6221474770765 519.0410196624947,500.5000000000004 515.9508497187442,510.0105651629517 519.0410196624925,519.5211303259038 529.0410196624927,519.5211303259049 520.9508497187425,525.3989828488287 517.860679774994,515.8884176858767 525.9508497187429,521.7662702088024 534.0410196624919,527.6441227317282 525.9508497187429,521.7662702088024 535.950849718743,521.7662702088036 532.8606797749947,512.2557050458515 524.7705098312443,518.1335575687755" stroke="black" stroke-linecap="round" stroke-width="1" /><polyline clip-path="url(#border_clip)" fill="none" points="524.7705098312443,518.1335575687755 516.6803398874954,512.2557050458497 508.59016994374656,506.37785252292394 500.49999999999625,512.2557050458479 492.40983005624736,506.3778525229221 482.4098300562472,506.37785252292093 490.4999999999975,500.49999999999704 500.4999999999976,500.49999999999824 510.4999999999978,500.4999999999994 518.590169943748,494.6221474770755 508.5901699437479,494.62214747707435 498.59016994374775,494.62214747707316 495.4999999999993,485.11158231412116 492.4098300562487,494.6221474770725 495.4999999999993,485.11158231412116 498.59016994374997,475.60101715116986 506.68033988749886,481.4788696740956 514.7705098312478,487.3567221970214 511.6803398874994,477.84615703406934 501.68033988749926,477.84615703406814 498.5901699437486,487.35672219701945 501.68033988749926,477.84615703406814 491.6803398874991,477.846157034067 501.68033988749926,477.84615703406814 504.77050983124985,468.33559187111683 501.6803398875015,458.82502670816484 493.5901699437526,452.9471741852391 485.5000000000023,458.8250267081629 488.5901699437529,449.3144615452116 496.6803398875018,455.19231406813736 486.6803398875017,455.19231406813617 476.68033988750153,455.19231406813503 486.6803398875017,455.19231406813617 478.5901699437514,461.07016659106006 486.6803398875003,466.9480191139858 489.77050983125093,457.4374539510345 499.7705098312511,457.4374539510357 509.7705098312512,457.4374539510369 512.8606797750019,447.9268887880856 522.860679775002,447.9268887880868 530.9508497187524,442.04903626516295 527.8606797750017,451.55960142811426 519.7705098312514,457.4374539510381" stroke="black" stroke-linecap="round" stroke-width="1" /><polyline clip-path="url(#border_clip)" fill="none" points="519.7705098312514,457.4374539510381 511.6803398875011,463.3153064739619 508.5901699437504,472.82587163691323 516.6803398875007,466.9480191139894 524.770509831251,461.0701665910656 532.8606797749999,466.94801911399134 529.7705098312515,457.4374539510393 532.8606797749999,466.94801911399134 535.9508497187483,476.4585842769434 525.9508497187481,476.4585842769422 515.950849718748,476.458584276941 524.0410196624969,482.33643679986676 532.1311896062472,476.45858427694293 529.0410196624988,466.9480191139909 532.1311896062472,476.45858427694293 540.2213595499975,470.5807317540191 532.1311896062472,476.45858427694293 535.2213595499956,485.969149439895 543.3115294937444,491.84700196282074 553.3115294937446,491.847001962822 556.4016994374953,482.3364367998707 559.4918693812436,491.84700196282273 549.4918693812434,491.84700196282154 557.5820393249937,485.96914943989765 565.672209268744,480.0912969169738 557.5820393249937,485.96914943989765 560.6722092687445,476.45858427694634 550.6722092687443,476.45858427694515 553.7623792124926,485.9691494398972 545.6722092687423,491.847001962821 537.582039324992,497.72485448574486 540.6722092687404,507.23541964869696 532.5820393249901,513.1132721716208 529.4918693812394,522.623837334572 526.4016994374911,513.11327217162 529.4918693812417,503.6027070086687 532.5820393249924,494.0921418457174 529.4918693812441,484.58157668276533 526.4016994374933,494.09214184571664 523.3115294937427,503.60270700866795 513.3115294937426,503.6027070086667 521.4016994374914,509.4805595315925 513.3115294937426,503.6027070086667" stroke="black" stroke-linecap="round" stroke-width="1" /><polyline clip-path="url(#border_clip)" fill="none" points="513.3115294937426,503.6027070086667 505.2213595499937,497.7248544857409 513.3115294937439,491.8470019628171 521.4016994374944,485.9691494398933 511.40169943749413,485.969149439892 508.3115294937435,495.47971460284333 516.4016994374923,501.35756712576915 508.3115294937435,495.47971460284333 505.22135954999277,504.99027976579464 508.3115294937435,495.47971460284333 500.2213595499946,489.6018620799175 490.2213595499944,489.60186207991626 482.1311896062441,495.4797146028401 485.2213595499924,504.99027976579214 477.1311896062436,499.1124272428663 485.2213595499939,493.2345747199425 482.1311896062432,502.7451398828938 479.0410196624925,512.255705045845 482.1311896062432,502.7451398828938 485.2213595499916,512.2557050458458 493.3115294937419,506.37785252292207 485.221359549993,500.4999999999962 488.3115294937437,490.9894348370449 491.40169943749447,481.47886967409363 483.3115294937456,475.60101715116775 486.4016994374963,466.0904519882165 483.31152949374797,456.5798868252644 491.40169943749686,462.4577393481903 494.4918693812452,471.9683045111423 497.5820393249935,481.4788696740944 505.67220926874234,487.35672219702025 502.582039324994,477.84615703406814 499.4918693812457,468.3355918711161 507.58203932499606,462.45773934819226 497.5820393249959,462.457739348191 507.58203932499606,462.45773934819226 517.5820393249962,462.45773934819357 514.4918693812455,471.9683045111449 511.40169943749476,481.47886967409613 519.4918693812451,475.60101715117236 516.4016994374967,466.09045198822025 506.40169943749663,466.090451988219 516.4016994374967,466.09045198822025" stroke="black" stroke-linecap="round" stroke-width="1" /><polyline clip-path="url(#border_clip)" fill="none" points="516.4016994374967,466.09045198822025 513.3115294937485,456.5798868252682 516.4016994374967,466.09045198822025 526.401699437497,466.09045198822156 534.4918693812473,460.2125994652977 537.582039324998,450.7020343023465 529.4918693812492,444.8241817794206 539.4918693812493,444.82418177942185 536.4016994374986,454.33474694237316 533.3115294937503,444.8241817794211 530.2213595500019,435.313616616469 533.3115294937503,444.8241817794211 525.2213595500015,438.94632925649523 522.1311896062507,448.45689441944654 532.1311896062508,448.4568944194478 535.2213595499992,457.9674595823999 538.3115294937475,467.47802474535195 548.3115294937476,467.47802474535325 551.401699437496,476.98858990830536 559.4918693812448,482.86644243123123 549.4918693812446,482.8664424312299 541.4016994374957,476.98858990830405 533.3115294937469,471.1107373853782 523.3115294937468,471.11073738537686 531.4016994374956,476.98858990830274 539.4918693812444,482.8664424312286 536.4016994374937,492.37700759417993 544.4918693812441,486.49915507125615 536.4016994374937,492.37700759417993 528.3115294937434,498.2548601171037 525.221359549995,488.7442949541516 522.1311896062467,479.2337297911995 519.041019662496,488.7442949541508 527.1311896062448,494.6221474770767 535.2213595499952,488.7442949541529 527.1311896062448,494.6221474770767 535.2213595499936,500.50000000000256 527.1311896062448,494.6221474770767 519.0410196624945,500.50000000000045 515.9508497187437,510.01056516295176 519.041019662492,519.5211303259039 529.0410196624921,519.5211303259051 520.9508497187418,525.398982848829" stroke="black" stroke-linecap="round" stroke-width="1" /><polyline clip-path="url(#border_clip)" fill="none" points="520.9508497187418,525.398982848829 517.8606797749935,515.8884176858768 525.9508497187423,521.7662702088027 534.0410196624912,527.6441227317287 525.9508497187423,521.7662702088027 535.9508497187425,521.766270208804 532.8606797749942,512.255705045852 524.7705098312438,518.1335575687757 516.6803398874949,512.2557050458498 508.59016994374616,506.3778525229239 500.49999999999574,512.2557050458477 492.4098300562469,506.3778525229218 482.40983005624673,506.3778525229205 490.49999999999716,500.4999999999967 500.4999999999973,500.499999999998" stroke="black" stroke-linecap="round" stroke-width="1" /></svg>