<?xml version="1.0" encoding="UTF-8"?>
<svg width="1e4px" height="1e4px" baseProfile="full" version="1.1" viewBox="4986.7 4935.3 88.992 92.331" xmlns="http://www.w3.org/2000/svg">
<defs>
<clipPath id="a">
<rect width="1e4" height="1e4"/>
</clipPath>
</defs>
<polyline points="5000.5 5000.5 5010.5 5000.5 5020.5 5000.5 5028.6 4994.6 5018.6 4994.6 5008.6 4994.6 5005.5 4985.1 5002.4 4994.6 5005.5 4985.1 5008.6 4975.6 5016.7 4981.5 5024.8 4987.4 5021.7 4977.8 5011.7 4977.8 5008.6 4987.4 5011.7 4977.8 5001.7 4977.8 5011.7 4977.8 5014.8 4968.3 5011.7 4958.8 5003.6 4952.9 4995.5 4958.8 4998.6 4949.3 5006.7 4955.2 4996.7 4955.2 4986.7 4955.2 4996.7 4955.2 4988.6 4961.1 4996.7 4966.9 4999.8 4957.4 5009.8 4957.4 5019.8 4957.4 5022.9 4947.9 5032.9 4947.9 5041 4942 5037.9 4951.6 5029.8 4957.4 5021.7 4963.3 5018.6 4972.8 5026.7 4966.9 5034.8 4961.1 5042.9 4966.9 5039.8 4957.4" clip-path="url(#a)" fill="none" stroke="#000" stroke-linecap="round"/>
<polyline points="5039.8 4957.4 5042.9 4966.9 5046 4976.5 5036 4976.5 5026 4976.5 5034 4982.3 5042.1 4976.5 5039 4966.9 5042.1 4976.5 5050.2 4970.6 5042.1 4976.5 5045.2 4986 5053.3 4991.8 5063.3 4991.8 5066.4 4982.3 5069.5 4991.8 5059.5 4991.8 5067.6 4986 5075.7 4980.1 5067.6 4986 5070.7 4976.5 5060.7 4976.5 5063.8 4986 5055.7 4991.8 5047.6 4997.7 5050.7 5007.2 5042.6 5013.1 5039.5 5022.6 5036.4 5013.1 5039.5 5003.6 5042.6 4994.1 5039.5 4984.6 5036.4 4994.1 5033.3 5003.6 5023.3 5003.6 5031.4 5009.5 5023.3 5003.6 5015.2 4997.7 5023.3 4991.8 5031.4 4986 5021.4 4986 5018.3 4995.5 5026.4 5001.4" clip-path="url(#a)" fill="none" stroke="#000" stroke-linecap="round"/>
<polyline points="5026.4 5001.4 5018.3 4995.5 5015.2 5005 5018.3 4995.5 5010.2 4989.6 5000.2 4989.6 4992.1 4995.5 4995.2 5005 4987.1 4999.1 4995.2 4993.2 4992.1 5002.7 4989 5012.3 4992.1 5002.7 4995.2 5012.3 5003.3 5006.4 4995.2 5000.5 4998.3 4991 5001.4 4981.5 4993.3 4975.6 4996.4 4966.1 4993.3 4956.6 5001.4 4962.5 5004.5 4972 5007.6 4981.5 5015.7 4987.4 5012.6 4977.8 5009.5 4968.3 5017.6 4962.5 5007.6 4962.5 5017.6 4962.5 5027.6 4962.5 5024.5 4972 5021.4 4981.5 5029.5 4975.6 5026.4 4966.1 5016.4 4966.1 5026.4 4966.1 5023.3 4956.6 5026.4 4966.1 5036.4 4966.1 5044.5 4960.2 5047.6 4950.7 5039.5 4944.8" clip-path="url(#a)" fill="none" stroke="#000" stroke-linecap="round"/>
<polyline points="5039.5 4944.8 5049.5 4944.8 5046.4 4954.3 5043.3 4944.8 5040.2 4935.3 5043.3 4944.8 5035.2 4938.9 5032.1 4948.5 5042.1 4948.5 5045.2 4958 5048.3 4967.5 5058.3 4967.5 5061.4 4977 5069.5 4982.9 5059.5 4982.9 5051.4 4977 5043.3 4971.1 5033.3 4971.1 5041.4 4977 5049.5 4982.9 5046.4 4992.4 5054.5 4986.5 5046.4 4992.4 5038.3 4998.3 5035.2 4988.7 5032.1 4979.2 5029 4988.7 5037.1 4994.6 5045.2 4988.7 5037.1 4994.6 5045.2 5000.5 5037.1 4994.6 5029 5000.5 5026 5010 5029 5019.5 5039 5019.5 5031 5025.4 5027.9 5015.9 5036 5021.8 5044 5027.6 5036 5021.8 5046 5021.8 5042.9 5012.3" clip-path="url(#a)" fill="none" stroke="#000" stroke-linecap="round"/>
<polyline points="5042.9 5012.3 5034.8 5018.1 5026.7 5012.3 5018.6 5006.4 5010.5 5012.3 5002.4 5006.4 4992.4 5006.4 5000.5 5000.5 5010.5 5000.5 5020.5 5000.5 5028.6 4994.6 5018.6 4994.6 5008.6 4994.6 5005.5 4985.1 5002.4 4994.6 5005.5 4985.1 5008.6 4975.6 5016.7 4981.5 5024.8 4987.4 5021.7 4977.8 5011.7 4977.8 5008.6 4987.4 5011.7 4977.8 5001.7 4977.8 5011.7 4977.8 5014.8 4968.3 5011.7 4958.8 5003.6 4952.9 4995.5 4958.8 4998.6 4949.3 5006.7 4955.2 4996.7 4955.2 4986.7 4955.2 4996.7 4955.2 4988.6 4961.1 4996.7 4966.9 4999.8 4957.4 5009.8 4957.4 5019.8 4957.4 5022.9 4947.9 5032.9 4947.9 5041 4942 5037.9 4951.6" clip-path="url(#a)" fill="none" stroke="#000" stroke-linecap="round"/>
<polyline points="5037.9 4951.6 5029.8 4957.4 5021.7 4963.3 5018.6 4972.8 5026.7 4966.9 5034.8 4961.1 5042.9 4966.9 5039.8 4957.4 5042.9 4966.9 5046 4976.5 5036 4976.5 5026 4976.5 5034 4982.3 5042.1 4976.5 5039 4966.9 5042.1 4976.5 5050.2 4970.6 5042.1 4976.5 5045.2 4986 5053.3 4991.8 5063.3 4991.8 5066.4 4982.3 5069.5 4991.8 5059.5 4991.8 5067.6 4986 5075.7 4980.1 5067.6 4986 5070.7 4976.5 5060.7 4976.5 5063.8 4986 5055.7 4991.8 5047.6 4997.7 5050.7 5007.2 5042.6 5013.1 5039.5 5022.6 5036.4 5013.1 5039.5 5003.6 5042.6 4994.1 5039.5 4984.6 5036.4 4994.1 5033.3 5003.6 5023.3 5003.6 5031.4 5009.5" clip-path="url(#a)" fill="none" stroke="#000" stroke-linecap="round"/>
<polyline points="5031.4 5009.5 5023.3 5003.6 5015.2 4997.7 5023.3 4991.8 5031.4 4986 5021.4 4986 5018.3 4995.5 5026.4 5001.4 5018.3 4995.5 5015.2 5005 5018.3 4995.5 5010.2 4989.6 5000.2 4989.6 4992.1 4995.5 4995.2 5005 4987.1 4999.1 4995.2 4993.2 4992.1 5002.7 4989 5012.3 4992.1 5002.7 4995.2 5012.3 5003.3 5006.4 4995.2 5000.5 4998.3 4991 5001.4 4981.5 4993.3 4975.6 4996.4 4966.1 4993.3 4956.6 5001.4 4962.5 5004.5 4972 5007.6 4981.5 5015.7 4987.4 5012.6 4977.8 5009.5 4968.3 5017.6 4962.5 5007.6 4962.5 5017.6 4962.5 5027.6 4962.5 5024.5 4972 5021.4 4981.5 5029.5 4975.6 5026.4 4966.1 5016.4 4966.1" clip-path="url(#a)" fill="none" stroke="#000" stroke-linecap="round"/>
<polyline points="5016.4 4966.1 5026.4 4966.1 5023.3 4956.6 5026.4 4966.1 5036.4 4966.1 5044.5 4960.2 5047.6 4950.7 5039.5 4944.8 5049.5 4944.8 5046.4 4954.3 5043.3 4944.8 5040.2 4935.3 5043.3 4944.8 5035.2 4938.9 5032.1 4948.5 5042.1 4948.5 5045.2 4958 5048.3 4967.5 5058.3 4967.5 5061.4 4977 5069.5 4982.9 5059.5 4982.9 5051.4 4977 5043.3 4971.1 5033.3 4971.1 5041.4 4977 5049.5 4982.9 5046.4 4992.4 5054.5 4986.5 5046.4 4992.4 5038.3 4998.3 5035.2 4988.7 5032.1 4979.2 5029 4988.7 5037.1 4994.6 5045.2 4988.7 5037.1 4994.6 5045.2 5000.5 5037.1 4994.6 5029 5000.5 5026 5010 5029 5019.5 5039 5019.5" clip-path="url(#a)" fill="none" stroke="#000" stroke-linecap="round"/>
<polyline points="5039 5019.5 5031 5025.4 5027.9 5015.9 5036 5021.8 5044 5027.6 5036 5021.8 5046 5021.8 5042.9 5012.3 5034.8 5018.1 5026.7 5012.3 5018.6 5006.4 5010.5 5012.3 5002.4 5006.4 4992.4 5006.4 5000.5 5000.5 5010.5 5000.5 5020.5 5000.5 5028.6 4994.6 5018.6 4994.6 5008.6 4994.6 5005.5 4985.1 5002.4 4994.6 5005.5 4985.1 5008.6 4975.6 5016.7 4981.5 5024.8 4987.4 5021.7 4977.8 5011.7 4977.8 5008.6 4987.4 5011.7 4977.8 5001.7 4977.8 5011.7 4977.8 5014.8 4968.3 5011.7 4958.8 5003.6 4952.9 4995.5 4958.8 4998.6 4949.3 5006.7 4955.2 4996.7 4955.2 4986.7 4955.2 4996.7 4955.2 4988.6 4961.1 4996.7 4966.9" clip-path="url(#a)" fill="none" stroke="#000" stroke-linecap="round"/>
<polyline points="4996.7 4966.9 4999.8 4957.4 5009.8 4957.4 5019.8 4957.4 5022.9 4947.9 5032.9 4947.9 5041 4942 5037.9 4951.6 5029.8 4957.4 5021.7 4963.3 5018.6 4972.8 5026.7 4966.9 5034.8 4961.1 5042.9 4966.9 5039.8 4957.4 5042.9 4966.9 5046 4976.5 5036 4976.5 5026 4976.5 5034 4982.3 5042.1 4976.5 5039 4966.9 5042.1 4976.5 5050.2 4970.6 5042.1 4976.5 5045.2 4986 5053.3 4991.8 5063.3 4991.8 5066.4 4982.3 5069.5 4991.8 5059.5 4991.8 5067.6 4986 5075.7 4980.1 5067.6 4986 5070.7 4976.5 5060.7 4976.5 5063.8 4986 5055.7 4991.8 5047.6 4997.7 5050.7 5007.2 5042.6 5013.1 5039.5 5022.6 5036.4 5013.1" clip-path="url(#a)" fill="none" stroke="#000" stroke-linecap="round"/>
<polyline points="5036.4 5013.1 5039.5 5003.6 5042.6 4994.1 5039.5 4984.6 5036.4 4994.1 5033.3 5003.6 5023.3 5003.6 5031.4 5009.5 5023.3 5003.6 5015.2 4997.7 5023.3 4991.8 5031.4 4986 5021.4 4986 5018.3 4995.5 5026.4 5001.4 5018.3 4995.5 5015.2 5005 5018.3 4995.5 5010.2 4989.6 5000.2 4989.6 4992.1 4995.5 4995.2 5005 4987.1 4999.1 4995.2 4993.2 4992.1 5002.7 4989 5012.3 4992.1 5002.7 4995.2 5012.3 5003.3 5006.4 4995.2 5000.5 4998.3 4991 5001.4 4981.5 4993.3 4975.6 4996.4 4966.1 4993.3 4956.6 5001.4 4962.5 5004.5 4972 5007.6 4981.5 5015.7 4987.4 5012.6 4977.8 5009.5 4968.3 5017.6 4962.5 5007.6 4962.5" clip-path="url(#a)" fill="none" stroke="#000" stroke-linecap="round"/>
<polyline points="5007.6 4962.5 5017.6 4962.5 5027.6 4962.5 5024.5 4972 5021.4 4981.5 5029.5 4975.6 5026.4 4966.1 5016.4 4966.1 5026.4 4966.1 5023.3 4956.6 5026.4 4966.1 5036.4 4966.1 5044.5 4960.2 5047.6 4950.7 5039.5 4944.8 5049.5 4944.8 5046.4 4954.3 5043.3 4944.8 5040.2 4935.3 5043.3 4944.8 5035.2 4938.9 5032.1 4948.5 5042.1 4948.5 5045.2 4958 5048.3 4967.5 5058.3 4967.5 5061.4 4977 5069.5 4982.9 5059.5 4982.9 5051.4 4977 5043.3 4971.1 5033.3 4971.1 5041.4 4977 5049.5 4982.9 5046.4 4992.4 5054.5 4986.5 5046.4 4992.4 5038.3 4998.3 5035.2 4988.7 5032.1 4979.2 5029 4988.7 5037.1 4994.6 5045.2 4988.7" clip-path="url(#a)" fill="none" stroke="#000" stroke-linecap="round"/>
<polyline points="5045.2 4988.7 5037.1 4994.6 5045.2 5000.5 5037.1 4994.6 5029 5000.5 5026 5010 5029 5019.5 5039 5019.5 5031 5025.4 5027.9 5015.9 5036 5021.8 5044 5027.6 5036 5021.8 5046 5021.8 5042.9 5012.3 5034.8 5018.1 5026.7 5012.3 5018.6 5006.4 5010.5 5012.3 5002.4 5006.4 4992.4 5006.4 5000.5 5000.5 5010.5 5000.5 5020.5 5000.5 5028.6 4994.6 5018.6 4994.6 5008.6 4994.6 5005.5 4985.1 5002.4 4994.6 5005.5 4985.1 5008.6 4975.6 5016.7 4981.5 5024.8 4987.4 5021.7 4977.8 5011.7 4977.8 5008.6 4987.4 5011.7 4977.8 5001.7 4977.8 5011.7 4977.8 5014.8 4968.3 5011.7 4958.8 5003.6 4952.9 4995.5 4958.8" clip-path="url(#a)" fill="none" stroke="#000" stroke-linecap="round"/>
<polyline points="4995.5 4958.8 4998.6 4949.3 5006.7 4955.2 4996.7 4955.2 4986.7 4955.2 4996.7 4955.2 4988.6 4961.1 4996.7 4966.9 4999.8 4957.4 5009.8 4957.4 5019.8 4957.4 5022.9 4947.9 5032.9 4947.9 5041 4942 5037.9 4951.6 5029.8 4957.4 5021.7 4963.3 5018.6 4972.8 5026.7 4966.9 5034.8 4961.1 5042.9 4966.9 5039.8 4957.4 5042.9 4966.9 5046 4976.5 5036 4976.5 5026 4976.5 5034 4982.3 5042.1 4976.5 5039 4966.9 5042.1 4976.5 5050.2 4970.6 5042.1 4976.5 5045.2 4986 5053.3 4991.8 5063.3 4991.8 5066.4 4982.3 5069.5 4991.8 5059.5 4991.8 5067.6 4986 5075.7 4980.1 5067.6 4986 5070.7 4976.5 5060.7 4976.5" clip-path="url(#a)" fill="none" stroke="#000" stroke-linecap="round"/>
<polyline points="5060.7 4976.5 5063.8 4986 5055.7 4991.8 5047.6 4997.7 5050.7 5007.2 5042.6 5013.1 5039.5 5022.6 5036.4 5013.1 5039.5 5003.6 5042.6 4994.1 5039.5 4984.6 5036.4 4994.1 5033.3 5003.6 5023.3 5003.6 5031.4 5009.5 5023.3 5003.6 5015.2 4997.7 5023.3 4991.8 5031.4 4986 5021.4 4986 5018.3 4995.5 5026.4 5001.4 5018.3 4995.5 5015.2 5005 5018.3 4995.5 5010.2 4989.6 5000.2 4989.6 4992.1 4995.5 4995.2 5005 4987.1 4999.1 4995.2 4993.2 4992.1 5002.7 4989 5012.3 4992.1 5002.7 4995.2 5012.3 5003.3 5006.4 4995.2 5000.5 4998.3 4991 5001.4 4981.5 4993.3 4975.6 4996.4 4966.1 4993.3 4956.6 5001.4 4962.5" clip-path="url(#a)" fill="none" stroke="#000" stroke-linecap="round"/>
<polyline points="5001.4 4962.5 5004.5 4972 5007.6 4981.5 5015.7 4987.4 5012.6 4977.8 5009.5 4968.3 5017.6 4962.5 5007.6 4962.5 5017.6 4962.5 5027.6 4962.5 5024.5 4972 5021.4 4981.5 5029.5 4975.6 5026.4 4966.1 5016.4 4966.1 5026.4 4966.1 5023.3 4956.6 5026.4 4966.1 5036.4 4966.1 5044.5 4960.2 5047.6 4950.7 5039.5 4944.8 5049.5 4944.8 5046.4 4954.3 5043.3 4944.8 5040.2 4935.3 5043.3 4944.8 5035.2 4938.9 5032.1 4948.5 5042.1 4948.5 5045.2 4958 5048.3 4967.5 5058.3 4967.5 5061.4 4977 5069.5 4982.9 5059.5 4982.9 5051.4 4977 5043.3 4971.1 5033.3 4971.1 5041.4 4977 5049.5 4982.9 5046.4 4992.4 5054.5 4986.5" clip-path="url(#a)" fill="none" stroke="#000" stroke-linecap="round"/>
<polyline points="5054.5 4986.5 5046.4 4992.4 5038.3 4998.3 5035.2 4988.7 5032.1 4979.2 5029 4988.7 5037.1 4994.6 5045.2 4988.7 5037.1 4994.6 5045.2 5000.5 5037.1 4994.6 5029 5000.5 5026 5010 5029 5019.5 5039 5019.5 5031 5025.4 5027.9 5015.9 5036 5021.8 5044 5027.6 5036 5021.8 5046 5021.8 5042.9 5012.3 5034.8 5018.1 5026.7 5012.3 5018.6 5006.4 5010.5 5012.3 5002.4 5006.4 4992.4 5006.4 5000.5 5000.5 5010.5 5000.5 5020.5 5000.5 5028.6 4994.6 5018.6 4994.6 5008.6 4994.6 5005.5 4985.1 5002.4 4994.6 5005.5 4985.1 5008.6 4975.6 5016.7 4981.5 5024.8 4987.4 5021.7 4977.8 5011.7 4977.8 5008.6 4987.4" clip-path="url(#a)" fill="none" stroke="#000" stroke-linecap="round"/>
<polyline points="5008.6 4987.4 5011.7 4977.8 5001.7 4977.8 5011.7 4977.8 5014.8 4968.3 5011.7 4958.8 5003.6 4952.9 4995.5 4958.8 4998.6 4949.3 5006.7 4955.2 4996.7 4955.2 4986.7 4955.2 4996.7 4955.2 4988.6 4961.1 4996.7 4966.9 4999.8 4957.4 5009.8 4957.4 5019.8 4957.4 5022.9 4947.9 5032.9 4947.9 5041 4942 5037.9 4951.6 5029.8 4957.4 5021.7 4963.3 5018.6 4972.8 5026.7 4966.9 5034.8 4961.1 5042.9 4966.9 5039.8 4957.4 5042.9 4966.9 5046 4976.5 5036 4976.5 5026 4976.5 5034 4982.3 5042.1 4976.5 5039 4966.9 5042.1 4976.5 5050.2 4970.6 5042.1 4976.5 5045.2 4986 5053.3 4991.8 5063.3 4991.8 5066.4 4982.3" clip-path="url(#a)" fill="none" stroke="#000" stroke-linecap="round"/>
<polyline points="5066.4 4982.3 5069.5 4991.8 5059.5 4991.8 5067.6 4986 5075.7 4980.1 5067.6 4986 5070.7 4976.5 5060.7 4976.5 5063.8 4986 5055.7 4991.8 5047.6 4997.7 5050.7 5007.2 5042.6 5013.1 5039.5 5022.6 5036.4 5013.1 5039.5 5003.6 5042.6 4994.1 5039.5 4984.6 5036.4 4994.1 5033.3 5003.6 5023.3 5003.6 5031.4 5009.5 5023.3 5003.6 5015.2 4997.7 5023.3 4991.8 5031.4 4986 5021.4 4986 5018.3 4995.5 5026.4 5001.4 5018.3 4995.5 5015.2 5005 5018.3 4995.5 5010.2 4989.6 5000.2 4989.6 4992.1 4995.5 4995.2 5005 4987.1 4999.1 4995.2 4993.2 4992.1 5002.7 4989 5012.3 4992.1 5002.7 4995.2 5012.3 5003.3 5006.4" clip-path="url(#a)" fill="none" stroke="#000" stroke-linecap="round"/>
<polyline points="5003.3 5006.4 4995.2 5000.5 4998.3 4991 5001.4 4981.5 4993.3 4975.6 4996.4 4966.1 4993.3 4956.6 5001.4 4962.5 5004.5 4972 5007.6 4981.5 5015.7 4987.4 5012.6 4977.8 5009.5 4968.3 5017.6 4962.5 5007.6 4962.5 5017.6 4962.5 5027.6 4962.5 5024.5 4972 5021.4 4981.5 5029.5 4975.6 5026.4 4966.1 5016.4 4966.1 5026.4 4966.1 5023.3 4956.6 5026.4 4966.1 5036.4 4966.1 5044.5 4960.2 5047.6 4950.7 5039.5 4944.8 5049.5 4944.8 5046.4 4954.3 5043.3 4944.8 5040.2 4935.3 5043.3 4944.8 5035.2 4938.9 5032.1 4948.5 5042.1 4948.5 5045.2 4958 5048.3 4967.5 5058.3 4967.5 5061.4 4977 5069.5 4982.9 5059.5 4982.9" clip-path="url(#a)" fill="none" stroke="#000" stroke-linecap="round"/>
<polyline points="5059.5 4982.9 5051.4 4977 5043.3 4971.1 5033.3 4971.1 5041.4 4977 5049.5 4982.9 5046.4 4992.4 5054.5 4986.5 5046.4 4992.4 5038.3 4998.3 5035.2 4988.7 5032.1 4979.2 5029 4988.7 5037.1 4994.6 5045.2 4988.7 5037.1 4994.6 5045.2 5000.5 5037.1 4994.6 5029 5000.5 5026 5010 5029 5019.5 5039 5019.5 5031 5025.4 5027.9 5015.9 5036 5021.8 5044 5027.6 5036 5021.8 5046 5021.8 5042.9 5012.3 5034.8 5018.1 5026.7 5012.3 5018.6 5006.4 5010.5 5012.3 5002.4 5006.4 4992.4 5006.4 5000.5 5000.5 5010.5 5000.5 5020.5 5000.5 5028.6 4994.6 5018.6 4994.6 5008.6 4994.6 5005.5 4985.1 5002.4 4994.6" clip-path="url(#a)" fill="none" stroke="#000" stroke-linecap="round"/>
<polyline points="5002.4 4994.6 5005.5 4985.1 5008.6 4975.6 5016.7 4981.5 5024.8 4987.4 5021.7 4977.8 5011.7 4977.8 5008.6 4987.4 5011.7 4977.8 5001.7 4977.8 5011.7 4977.8 5014.8 4968.3 5011.7 4958.8 5003.6 4952.9 4995.5 4958.8 4998.6 4949.3 5006.7 4955.2 4996.7 4955.2 4986.7 4955.2 4996.7 4955.2 4988.6 4961.1 4996.7 4966.9 4999.8 4957.4 5009.8 4957.4 5019.8 4957.4 5022.9 4947.9 5032.9 4947.9 5041 4942 5037.9 4951.6 5029.8 4957.4 5021.7 4963.3 5018.6 4972.8 5026.7 4966.9 5034.8 4961.1 5042.9 4966.9 5039.8 4957.4 5042.9 4966.9 5046 4976.5 5036 4976.5 5026 4976.5 5034 4982.3 5042.1 4976.5 5039 4966.9" clip-path="url(#a)" fill="none" stroke="#000" stroke-linecap="round"/>
<polyline points="5039 4966.9 5042.1 4976.5 5050.2 4970.6 5042.1 4976.5 5045.2 4986 5053.3 4991.8 5063.3 4991.8 5066.4 4982.3 5069.5 4991.8 5059.5 4991.8 5067.6 4986 5075.7 4980.1 5067.6 4986 5070.7 4976.5 5060.7 4976.5 5063.8 4986 5055.7 4991.8 5047.6 4997.7 5050.7 5007.2 5042.6 5013.1 5039.5 5022.6 5036.4 5013.1 5039.5 5003.6 5042.6 4994.1 5039.5 4984.6 5036.4 4994.1 5033.3 5003.6 5023.3 5003.6 5031.4 5009.5 5023.3 5003.6 5015.2 4997.7 5023.3 4991.8 5031.4 4986 5021.4 4986 5018.3 4995.5 5026.4 5001.4 5018.3 4995.5 5015.2 5005 5018.3 4995.5 5010.2 4989.6 5000.2 4989.6 4992.1 4995.5 4995.2 5005" clip-path="url(#a)" fill="none" stroke="#000" stroke-linecap="round"/>
<polyline points="4995.2 5005 4987.1 4999.1 4995.2 4993.2 4992.1 5002.7 4989 5012.3 4992.1 5002.7 4995.2 5012.3 5003.3 5006.4 4995.2 5000.5 4998.3 4991 5001.4 4981.5 4993.3 4975.6 4996.4 4966.1 4993.3 4956.6 5001.4 4962.5 5004.5 4972 5007.6 4981.5 5015.7 4987.4 5012.6 4977.8 5009.5 4968.3 5017.6 4962.5 5007.6 4962.5 5017.6 4962.5 5027.6 4962.5 5024.5 4972 5021.4 4981.5 5029.5 4975.6 5026.4 4966.1 5016.4 4966.1 5026.4 4966.1 5023.3 4956.6 5026.4 4966.1 5036.4 4966.1 5044.5 4960.2 5047.6 4950.7 5039.5 4944.8 5049.5 4944.8 5046.4 4954.3 5043.3 4944.8 5040.2 4935.3 5043.3 4944.8 5035.2 4938.9 5032.1 4948.5" clip-path="url(#a)" fill="none" stroke="#000" stroke-linecap="round"/>
<polyline points="5032.1 4948.5 5042.1 4948.5 5045.2 4958 5048.3 4967.5 5058.3 4967.5 5061.4 4977 5069.5 4982.9 5059.5 4982.9 5051.4 4977 5043.3 4971.1 5033.3 4971.1 5041.4 4977 5049.5 4982.9 5046.4 4992.4 5054.5 4986.5 5046.4 4992.4 5038.3 4998.3 5035.2 4988.7 5032.1 4979.2 5029 4988.7 5037.1 4994.6 5045.2 4988.7 5037.1 4994.6 5045.2 5000.5 5037.1 4994.6 5029 5000.5 5026 5010 5029 5019.5 5039 5019.5 5031 5025.4 5027.9 5015.9 5036 5021.8 5044 5027.6 5036 5021.8 5046 5021.8 5042.9 5012.3 5034.8 5018.1 5026.7 5012.3 5018.6 5006.4 5010.5 5012.3 5002.4 5006.4 4992.4 5006.4 5000.5 5000.5" clip-path="url(#a)" fill="none" stroke="#000" stroke-linecap="round"/>
<polyline points="5000.5 5000.5 5010.5 5000.5 5020.5 5000.5 5028.6 4994.6 5018.6 4994.6 5008.6 4994.6 5005.5 4985.1 5002.4 4994.6 5005.5 4985.1 5008.6 4975.6 5016.7 4981.5 5024.8 4987.4 5021.7 4977.8 5011.7 4977.8 5008.6 4987.4 5011.7 4977.8 5001.7 4977.8 5011.7 4977.8 5014.8 4968.3 5011.7 4958.8 5003.6 4952.9 4995.5 4958.8 4998.6 4949.3 5006.7 4955.2 4996.7 4955.2 4986.7 4955.2 4996.7 4955.2 4988.6 4961.1 4996.7 4966.9 4999.8 4957.4 5009.8 4957.4 5019.8 4957.4 5022.9 4947.9 5032.9 4947.9 5041 4942 5037.9 4951.6 5029.8 4957.4 5021.7 4963.3 5018.6 4972.8 5026.7 4966.9 5034.8 4961.1 5042.9 4966.9 5039.8 4957.4" clip-path="url(#a)" fill="none" stroke="#000" stroke-linecap="round"/>
<polyline points="5039.8 4957.4 5042.9 4966.9 5046 4976.5 5036 4976.5 5026 4976.5 5034 4982.3 5042.1 4976.5 5039 4966.9 5042.1 4976.5 5050.2 4970.6 5042.1 4976.5 5045.2 4986 5053.3 4991.8 5063.3 4991.8 5066.4 4982.3 5069.5 4991.8 5059.5 4991.8 5067.6 4986 5075.7 4980.1 5067.6 4986 5070.7 4976.5 5060.7 4976.5 5063.8 4986 5055.7 4991.8 5047.6 4997.7 5050.7 5007.2 5042.6 5013.1 5039.5 5022.6 5036.4 5013.1 5039.5 5003.6 5042.6 4994.1 5039.5 4984.6 5036.4 4994.1 5033.3 5003.6 5023.3 5003.6 5031.4 5009.5 5023.3 5003.6 5015.2 4997.7 5023.3 4991.8 5031.4 4986 5021.4 4986 5018.3 4995.5 5026.4 5001.4" clip-path="url(#a)" fill="none" stroke="#000" stroke-linecap="round"/>
<polyline points="5026.4 5001.4 5018.3 4995.5 5015.2 5005 5018.3 4995.5 5010.2 4989.6 5000.2 4989.6 4992.1 4995.5 4995.2 5005 4987.1 4999.1 4995.2 4993.2 4992.1 5002.7 4989 5012.3 4992.1 5002.7 4995.2 5012.3 5003.3 5006.4 4995.2 5000.5 4998.3 4991 5001.4 4981.5 4993.3 4975.6 4996.4 4966.1 4993.3 4956.6 5001.4 4962.5 5004.5 4972 5007.6 4981.5 5015.7 4987.4 5012.6 4977.8 5009.5 4968.3 5017.6 4962.5 5007.6 4962.5 5017.6 4962.5 5027.6 4962.5 5024.5 4972 5021.4 4981.5 5029.5 4975.6 5026.4 4966.1 5016.4 4966.1 5026.4 4966.1 5023.3 4956.6 5026.4 4966.1 5036.4 4966.1 5044.5 4960.2 5047.6 4950.7 5039.5 4944.8" clip-path="url(#a)" fill="none" stroke="#000" stroke-linecap="round"/>
<polyline points="5039.5 4944.8 5049.5 4944.8 5046.4 4954.3 5043.3 4944.8 5040.2 4935.3 5043.3 4944.8 5035.2 4938.9 5032.1 4948.5 5042.1 4948.5 5045.2 4958 5048.3 4967.5 5058.3 4967.5 5061.4 4977 5069.5 4982.9 5059.5 4982.9 5051.4 4977 5043.3 4971.1 5033.3 4971.1 5041.4 4977 5049.5 4982.9 5046.4 4992.4 5054.5 4986.5 5046.4 4992.4 5038.3 4998.3 5035.2 4988.7 5032.1 4979.2 5029 4988.7 5037.1 4994.6 5045.2 4988.7 5037.1 4994.6 5045.2 5000.5 5037.1 4994.6 5029 5000.5 5026 5010 5029 5019.5 5039 5019.5 5031 5025.4 5027.9 5015.9 5036 5021.8 5044 5027.6 5036 5021.8 5046 5021.8 5042.9 5012.3" clip-path="url(#a)" fill="none" stroke="#000" stroke-linecap="round"/>
<polyline points="5042.9 5012.3 5034.8 5018.1 5026.7 5012.3 5018.6 5006.4 5010.5 5012.3 5002.4 5006.4 4992.4 5006.4 5000.5 5000.5 5010.5 5000.5 5020.5 5000.5 5028.6 4994.6 5018.6 4994.6 5008.6 4994.6 5005.5 4985.1 5002.4 4994.6 5005.5 4985.1 5008.6 4975.6 5016.7 4981.5 5024.8 4987.4 5021.7 4977.8 5011.7 4977.8 5008.6 4987.4 5011.7 4977.8 5001.7 4977.8 5011.7 4977.8 5014.8 4968.3 5011.7 4958.8 5003.6 4952.9 4995.5 4958.8 4998.6 4949.3 5006.7 4955.2 4996.7 4955.2 4986.7 4955.2 4996.7 4955.2 4988.6 4961.1 4996.7 4966.9 4999.8 4957.4 5009.8 4957.4 5019.8 4957.4 5022.9 4947.9 5032.9 4947.9 5041 4942 5037.9 4951.6" clip-path="url(#a)" fill="none" stroke="#000" stroke-linecap="round"/>
<polyline points="5037.9 4951.6 5029.8 4957.4 5021.7 4963.3 5018.6 4972.8 5026.7 4966.9 5034.8 4961.1 5042.9 4966.9 5039.8 4957.4 5042.9 4966.9 5046 4976.5 5036 4976.5 5026 4976.5 5034 4982.3 5042.1 4976.5 5039 4966.9 5042.1 4976.5 5050.2 4970.6 5042.1 4976.5 5045.2 4986 5053.3 4991.8 5063.3 4991.8 5066.4 4982.3 5069.5 4991.8 5059.5 4991.8 5067.6 4986 5075.7 4980.1 5067.6 4986 5070.7 4976.5 5060.7 4976.5 5063.8 4986 5055.7 4991.8 5047.6 4997.7 5050.7 5007.2 5042.6 5013.1 5039.5 5022.6 5036.4 5013.1 5039.5 5003.6 5042.6 4994.1 5039.5 4984.6 5036.4 4994.1 5033.3 5003.6 5023.3 5003.6 5031.4 5009.5" clip-path="url(#a)" fill="none" stroke="#000" stroke-linecap="round"/>
<polyline points="5031.4 5009.5 5023.3 5003.6 5015.2 4997.7 5023.3 4991.8 5031.4 4986 5021.4 4986 5018.3 4995.5 5026.4 5001.4 5018.3 4995.5 5015.2 5005 5018.3 4995.5 5010.2 4989.6 5000.2 4989.6 4992.1 4995.5 4995.2 5005 4987.1 4999.1 4995.2 4993.2 4992.1 5002.7 4989 5012.3 4992.1 5002.7 4995.2 5012.3 5003.3 5006.4 4995.2 5000.5 4998.3 4991 5001.4 4981.5 4993.3 4975.6 4996.4 4966.1 4993.3 4956.6 5001.4 4962.5 5004.5 4972 5007.6 4981.5 5015.7 4987.4 5012.6 4977.8 5009.5 4968.3 5017.6 4962.5 5007.6 4962.5 5017.6 4962.5 5027.6 4962.5 5024.5 4972 5021.4 4981.5 5029.5 4975.6 5026.4 4966.1 5016.4 4966.1" clip-path="url(#a)" fill="none" stroke="#000" stroke-linecap="round"/>
<polyline points="5016.4 4966.1 5026.4 4966.1 5023.3 4956.6 5026.4 4966.1 5036.4 4966.1 5044.5 4960.2 5047.6 4950.7 5039.5 4944.8 5049.5 4944.8 5046.4 4954.3 5043.3 4944.8 5040.2 4935.3 5043.3 4944.8 5035.2 4938.9 5032.1 4948.5 5042.1 4948.5 5045.2 4958 5048.3 4967.5 5058.3 4967.5 5061.4 4977 5069.5 4982.9 5059.5 4982.9 5051.4 4977 5043.3 4971.1 5033.3 4971.1 5041.4 4977 5049.5 4982.9 5046.4 4992.4 5054.5 4986.5 5046.4 4992.4 5038.3 4998.3 5035.2 4988.7 5032.1 4979.2 5029 4988.7 5037.1 4994.6 5045.2 4988.7 5037.1 4994.6 5045.2 5000.5 5037.1 4994.6 5029 5000.5 5026 5010 5029 5019.5 5039 5019.5" clip-path="url(#a)" fill="none" stroke="#000" stroke-linecap="round"/>
<polyline points="5039 5019.5 5031 5025.4 5027.9 5015.9 5036 5021.8 5044 5027.6 5036 5021.8 5046 5021.8 5042.9 5012.3 5034.8 5018.1 5026.7 5012.3 5018.6 5006.4 5010.5 5012.3 5002.4 5006.4 4992.4 5006.4 5000.5 5000.5" clip-path="url(#a)" fill="none" stroke="#000" stroke-linecap="round"/>
</svg>
