<?xml version="1.0" encoding="utf-8" ?>
<svg baseProfile="full" height="1000px" version="1.1" width="1000px" xmlns="http://www.w3.org/2000/svg" xmlns:ev="http://www.w3.org/2001/xml-events" xmlns:xlink="http://www.w3.org/1999/xlink"><defs><clipPath id="border_clip"><rect height="1000" width="1000" x="0" y="0" /></clipPath></defs><polyline clip-path="url(#border_clip)" fill="none" points="500.5,500.5 510.5,500.5 518.5901699437495,494.62214747707526 510.5,488.7442949541505 520.5,488.7442949541505 528.5901699437495,494.62214747707526 525.5,504.1327126400268 522.4098300562505,494.62214747707526 514.3196601125011,500.5 506.22949016875157,506.37785252292474 503.13932022500205,515.8884176858762 513.139320225002,515.8884176858762 505.0491502812526,521.766270208801 495.0491502812526,521.766270208801 491.95898033750314,512.2557050458495 500.0491502812526,518.1335575687742 503.1393202250021,508.62299240582263 506.22949016875157,499.1124272428711 503.13932022500217,489.60186207991956 495.04915028125265,495.4797146028443 498.13932022500217,485.96914943989276 506.2294901687516,480.091296916968 514.3196601125011,485.9691494398928 504.3196601125011,485.96914943989276 507.40983005625054,495.4797146028443 510.5,504.9902797657959 518.5901699437494,510.86813228872063 521.6803398874989,501.3575671257691 524.7705098312484,510.86813228872063 521.6803398874989,520.3786974516722 511.6803398874989,520.3786974516721 519.7705098312484,514.5008449287475 511.6803398874989,508.6229924058227 503.59016994374946,502.7451398828979 493.59016994374946,502.7451398828979 496.6803398874989,512.2557050458494 488.59016994374946,506.3778525229246 485.5,496.8672873599731 493.5901699437495,490.9894348370484 490.5,500.49999999999994 500.5,500.49999999999994 510.5,500.5 518.5901699437495,494.6221474770753" stroke="black" stroke-linecap="round" stroke-width="1" /><polyline clip-path="url(#border_clip)" fill="none" points="518.5901699437495,494.6221474770753 510.50000000000006,488.7442949541505 520.5000000000001,488.7442949541506 528.5901699437495,494.6221474770754 525.5,504.1327126400269 522.4098300562506,494.6221474770754 514.3196601125011,500.50000000000006 506.22949016875157,506.37785252292474 503.139320225002,515.8884176858762 513.139320225002,515.8884176858763 505.0491502812525,521.766270208801 495.0491502812525,521.766270208801 491.9589803375031,512.2557050458494 500.04915028125254,518.1335575687741 503.13932022500205,508.62299240582263 506.2294901687516,499.1124272428711 503.1393202250022,489.60186207991956 495.04915028125265,495.47971460284424 498.1393202250022,485.9691494398927 506.22949016875174,480.091296916968 514.3196601125012,485.9691494398928 504.3196601125012,485.9691494398927 507.4098300562506,495.4797146028443 510.5,504.9902797657959 518.5901699437494,510.8681322887207 521.680339887499,501.35756712576915 524.7705098312484,510.86813228872074 521.6803398874988,520.3786974516722 511.6803398874988,520.3786974516722 519.7705098312483,514.5008449287475 511.6803398874989,508.6229924058227 503.59016994374946,502.7451398828979 493.59016994374946,502.7451398828978 496.68033988749886,512.2557050458494 488.5901699437494,506.37785252292457 485.5,496.867287359973 493.5901699437496,490.9894348370483 490.5,500.49999999999983 500.5,500.49999999999994 510.50000000000006,500.5 518.5901699437496,494.6221474770754 510.50000000000017,488.7442949541505 520.5000000000002,488.74429495415063" stroke="black" stroke-linecap="round" stroke-width="1" /><polyline clip-path="url(#border_clip)" fill="none" points="520.5000000000002,488.74429495415063 528.5901699437496,494.6221474770755 525.5,504.13271264002697 522.4098300562506,494.6221474770754 514.3196601125011,500.50000000000006 506.2294901687515,506.37785252292474 503.13932022500194,515.8884176858762 513.1393202250019,515.8884176858763 505.0491502812524,521.766270208801 495.04915028125237,521.7662702088008 491.958980337503,512.2557050458493 500.0491502812524,518.1335575687741 503.13932022500205,508.62299240582263 506.2294901687516,499.1124272428711 503.1393202250023,489.6018620799195 495.0491502812527,495.4797146028441 498.1393202250023,485.9691494398926 506.22949016875185,480.09129691696796 514.3196601125013,485.9691494398928 504.31966011250125,485.9691494398927 507.4098300562506,495.4797146028443 510.5,504.9902797657959 518.5901699437494,510.86813228872074 521.680339887499,501.3575671257692 524.7705098312483,510.8681322887208 521.6803398874988,520.3786974516723 511.68033988749875,520.3786974516722 519.7705098312483,514.5008449287476 511.6803398874989,508.62299240582274 503.59016994374946,502.74513988289783 493.59016994374946,502.7451398828977 496.6803398874988,512.2557050458494 488.5901699437494,506.37785252292446 485.50000000000006,496.86728735997286 493.59016994374963,490.98943483704824 490.5,500.4999999999998 500.5,500.4999999999999 510.50000000000006,500.50000000000006 518.5901699437496,494.62214747707543 510.5000000000002,488.7442949541505 520.5000000000002,488.7442949541507 528.5901699437496,494.62214747707554 525.5,504.1327126400271" stroke="black" stroke-linecap="round" stroke-width="1" /><polyline clip-path="url(#border_clip)" fill="none" points="525.5,504.1327126400271 522.4098300562507,494.6221474770755 514.3196601125011,500.5000000000001 506.2294901687515,506.37785252292474 503.1393202250019,515.8884176858762 513.1393202250019,515.8884176858764 505.0491502812523,521.766270208801 495.0491502812523,521.7662702088008 491.95898033750296,512.2557050458493 500.04915028125237,518.1335575687741 503.139320225002,508.62299240582263 506.2294901687517,499.1124272428711 503.13932022500234,489.60186207991944 495.0491502812527,495.47971460284407 498.1393202250024,485.9691494398926 506.22949016875197,480.09129691696796 514.3196601125014,485.9691494398929 504.31966011250137,485.9691494398927 507.40983005625066,495.4797146028443 510.5,504.99027976579595 518.5901699437494,510.8681322887208 521.680339887499,501.3575671257693 524.7705098312483,510.8681322887209 521.6803398874987,520.3786974516725 511.68033988749863,520.3786974516722 519.7705098312483,514.5008449287477 511.68033988749886,508.62299240582274 503.59016994374946,502.74513988289783 493.59016994374946,502.74513988289766 496.68033988749875,512.2557050458493 488.59016994374934,506.3778525229244 485.50000000000006,496.86728735997275 493.5901699437497,490.9894348370482 490.5,500.49999999999966 500.50000000000006,500.4999999999999 510.50000000000006,500.50000000000006 518.5901699437497,494.6221474770755 510.5000000000003,488.7442949541505 520.5000000000003,488.74429495415075 528.5901699437497,494.62214747707566 525.5000000000001,504.1327126400272 522.4098300562507,494.62214747707554 514.3196601125011,500.5000000000001" stroke="black" stroke-linecap="round" stroke-width="1" /><polyline clip-path="url(#border_clip)" fill="none" points="514.3196601125011,500.5000000000001 506.2294901687515,506.37785252292474 503.1393202250018,515.8884176858762 513.1393202250018,515.8884176858764 505.04915028125225,521.7662702088011 495.0491502812522,521.7662702088008 491.9589803375029,512.2557050458491 500.0491502812523,518.1335575687741 503.139320225002,508.6229924058226 506.2294901687517,499.1124272428711 503.1393202250024,489.60186207991944 495.04915028125276,495.479714602844 498.13932022500245,485.9691494398925 506.2294901687521,480.0912969169679 514.3196601125014,485.9691494398929 504.3196601125014,485.96914943989265 507.4098300562507,495.4797146028443 510.5,504.99027976579595 518.5901699437494,510.8681322887209 521.680339887499,501.3575671257694 524.7705098312483,510.86813228872103 521.6803398874986,520.3786974516726 511.6803398874986,520.3786974516723 519.7705098312482,514.5008449287477 511.68033988749886,508.6229924058228 503.59016994374946,502.74513988289783 493.5901699437494,502.7451398828976 496.6803398874987,512.2557050458493 488.5901699437493,506.3778525229243 485.5,496.86728735997264 493.5901699437497,490.98943483704807 490.49999999999994,500.4999999999996 500.50000000000006,500.49999999999983 510.5000000000001,500.50000000000006 518.5901699437497,494.6221474770755 510.5000000000004,488.7442949541505 520.5000000000005,488.7442949541508 528.5901699437499,494.62214747707577 525.5000000000001,504.13271264002725 522.4098300562508,494.6221474770756 514.3196601125012,500.50000000000017 506.2294901687515,506.37785252292474 503.13932022500177,515.8884176858762" stroke="black" stroke-linecap="round" stroke-width="1" /><polyline clip-path="url(#border_clip)" fill="none" points="503.13932022500177,515.8884176858762 513.1393202250018,515.8884176858764 505.04915028125214,521.7662702088011 495.0491502812521,521.7662702088008 491.9589803375028,512.2557050458491 500.0491502812522,518.1335575687741 503.13932022500194,508.6229924058226 506.2294901687517,499.11242724287104 503.13932022500245,489.6018620799194 495.04915028125276,495.47971460284396 498.1393202250025,485.9691494398924 506.2294901687522,480.09129691696785 514.3196601125015,485.9691494398929 504.3196601125015,485.9691494398926 507.4098300562507,495.4797146028443 510.49999999999994,504.99027976579595 518.5901699437493,510.868132288721 521.6803398874991,501.35756712576944 524.7705098312483,510.86813228872114 521.6803398874986,520.3786974516727 511.68033988749846,520.3786974516723 519.7705098312482,514.5008449287478 511.6803398874988,508.6229924058228 503.59016994374946,502.7451398828978 493.5901699437494,502.7451398828975 496.68033988749863,512.2557050458493 488.59016994374923,506.3778525229242 485.50000000000006,496.8672873599725 493.59016994374974,490.98943483704795 490.49999999999994,500.4999999999995 500.50000000000006,500.4999999999998 510.5000000000001,500.50000000000006 518.5901699437499,494.62214747707554 510.50000000000045,488.7442949541505 520.5000000000006,488.7442949541508 528.5901699437499,494.6221474770758 525.5000000000001,504.13271264002736 522.4098300562509,494.62214747707566 514.3196601125012,500.50000000000017 506.22949016875145,506.3778525229247 503.13932022500165,515.8884176858762 513.1393202250017,515.8884176858766 505.049150281252,521.7662702088011" stroke="black" stroke-linecap="round" stroke-width="1" /><polyline clip-path="url(#border_clip)" fill="none" points="505.049150281252,521.7662702088011 495.04915028125197,521.7662702088007 491.95898033750274,512.255705045849 500.0491502812521,518.1335575687741 503.1393202250019,508.6229924058226 506.2294901687517,499.11242724287104 503.1393202250025,489.60186207991933 495.04915028125276,495.47971460284384 498.13932022500256,485.96914943989236 506.2294901687523,480.09129691696785 514.3196601125017,485.9691494398929 504.3196601125016,485.96914943989253 507.40983005625077,495.47971460284424 510.49999999999994,504.99027976579595 518.5901699437493,510.868132288721 521.6803398874991,501.3575671257695 524.7705098312483,510.8681322887212 521.6803398874985,520.3786974516727 511.6803398874984,520.3786974516723 519.7705098312481,514.5008449287478 511.6803398874988,508.6229924058228 503.59016994374946,502.7451398828978 493.5901699437494,502.74513988289743 496.6803398874986,512.2557050458491 488.59016994374923,506.3778525229241 485.50000000000006,496.86728735997235 493.5901699437498,490.9894348370479 490.49999999999994,500.4999999999994 500.50000000000006,500.4999999999997 510.5000000000001,500.50000000000006 518.5901699437499,494.6221474770756 510.5000000000005,488.7442949541505 520.5000000000006,488.74429495415086 528.59016994375,494.62214747707594 525.5000000000001,504.1327126400274 522.4098300562509,494.6221474770757 514.3196601125012,500.5000000000002 506.22949016875145,506.3778525229247 503.1393202250016,515.8884176858762 513.1393202250017,515.8884176858766 505.04915028125197,521.7662702088011 495.04915028125185,521.7662702088007 491.9589803375027,512.2557050458489" stroke="black" stroke-linecap="round" stroke-width="1" /><polyline clip-path="url(#border_clip)" fill="none" points="491.9589803375027,512.2557050458489 500.049150281252,518.133557568774 503.1393202250019,508.6229924058225 506.22949016875174,499.11242724287104 503.13932022500256,489.6018620799193 495.0491502812528,495.4797146028438 498.1393202250027,485.96914943989225 506.2294901687524,480.0912969169678 514.3196601125018,485.9691494398929 504.31966011250165,485.9691494398925 507.4098300562508,495.47971460284424 510.49999999999994,504.990279765796 518.5901699437493,510.8681322887211 521.6803398874991,501.35756712576955 524.7705098312483,510.8681322887213 521.6803398874985,520.3786974516728 511.68033988749835,520.3786974516725 519.7705098312481,514.5008449287479 511.6803398874988,508.62299240582286 503.59016994374946,502.7451398828978 493.59016994374934,502.7451398828974 496.6803398874985,512.2557050458491 488.5901699437492,506.377852522924 485.50000000000006,496.8672873599723 493.5901699437498,490.9894348370478 490.49999999999994,500.4999999999993 500.50000000000006,500.4999999999997 510.50000000000017,500.5000000000001 518.59016994375,494.6221474770756 510.5000000000006,488.7442949541505 520.5000000000007,488.7442949541509 528.5901699437501,494.622147477076 525.5000000000001,504.13271264002753 522.409830056251,494.62214747707577 514.3196601125012,500.5000000000002 506.22949016875145,506.3778525229247 503.13932022500154,515.8884176858762 513.1393202250017,515.8884176858766 505.04915028125185,521.7662702088011 495.04915028125174,521.7662702088007 491.9589803375026,512.2557050458489 500.04915028125197,518.133557568774 503.1393202250018,508.6229924058225" stroke="black" stroke-linecap="round" stroke-width="1" /><polyline clip-path="url(#border_clip)" fill="none" points="503.1393202250018,508.6229924058225 506.22949016875174,499.11242724287104 503.1393202250026,489.6018620799193 495.0491502812528,495.4797146028437 498.13932022500273,485.9691494398922 506.22949016875253,480.09129691696774 514.3196601125019,485.9691494398929 504.31966011250177,485.9691494398925 507.4098300562508,495.47971460284424 510.49999999999994,504.990279765796 518.5901699437493,510.86813228872114 521.6803398874991,501.3575671257696 524.7705098312483,510.8681322887214 521.6803398874983,520.3786974516729 511.68033988749823,520.3786974516725 519.7705098312481,514.500844928748 511.68033988749875,508.62299240582286 503.59016994374946,502.7451398828977 493.59016994374934,502.7451398828973 496.68033988749846,512.255705045849 488.5901699437491,506.37785252292394 485.50000000000006,496.8672873599721 493.59016994374986,490.9894348370477 490.49999999999994,500.4999999999992 500.50000000000006,500.49999999999966 510.50000000000017,500.5000000000001 518.59016994375,494.62214747707566 510.5000000000007,488.7442949541505 520.5000000000008,488.7442949541509 528.5901699437501,494.6221474770761 525.5000000000002,504.1327126400276 522.409830056251,494.6221474770758 514.3196601125013,500.5000000000003 506.2294901687514,506.3778525229247 503.1393202250015,515.8884176858762 513.1393202250016,515.8884176858767 505.04915028125174,521.7662702088011 495.0491502812516,521.7662702088006 491.95898033750257,512.2557050458488 500.04915028125185,518.133557568774 503.1393202250018,508.6229924058225 506.2294901687518,499.11242724287104 503.1393202250027,489.6018620799192" stroke="black" stroke-linecap="round" stroke-width="1" /><polyline clip-path="url(#border_clip)" fill="none" points="503.1393202250027,489.6018620799192 495.0491502812529,495.4797146028436 498.1393202250028,485.96914943989213 506.22949016875265,480.09129691696774 514.319660112502,485.9691494398929 504.3196601125018,485.9691494398924 507.4098300562509,495.47971460284424 510.49999999999994,504.990279765796 518.5901699437493,510.8681322887212 521.6803398874993,501.3575671257697 524.7705098312483,510.8681322887215 521.6803398874983,520.378697451673 511.6803398874982,520.3786974516726 519.7705098312481,514.5008449287482 511.68033988749875,508.6229924058229 503.59016994374946,502.7451398828977 493.59016994374934,502.74513988289726 496.6803398874984,512.255705045849 488.5901699437491,506.37785252292383 485.50000000000006,496.867287359972 493.5901699437499,490.9894348370476 490.49999999999994,500.49999999999915 500.50000000000006,500.4999999999996 510.50000000000017,500.5000000000001 518.5901699437501,494.6221474770757 510.5000000000008,488.7442949541505 520.5000000000009,488.744294954151 528.5901699437502,494.6221474770762 525.5000000000002,504.1327126400277 522.4098300562512,494.6221474770759 514.3196601125013,500.5000000000003 506.2294901687514,506.3778525229247 503.1393202250014,515.8884176858762 513.1393202250016,515.8884176858767 505.0491502812517,521.7662702088011 495.0491502812515,521.7662702088006 491.9589803375025,512.2557050458488 500.0491502812518,518.133557568774 503.13932022500177,508.6229924058225 506.2294901687518,499.112427242871 503.1393202250028,489.60186207991916 495.0491502812529,495.47971460284356 498.1393202250029,485.9691494398921" stroke="black" stroke-linecap="round" stroke-width="1" /><polyline clip-path="url(#border_clip)" fill="none" points="498.1393202250029,485.9691494398921 506.22949016875276,480.0912969169677 514.3196601125021,485.96914943989293 504.31966011250194,485.96914943989236 507.40983005625094,495.47971460284424 510.49999999999994,504.99027976579606 518.5901699437493,510.8681322887213 521.6803398874993,501.3575671257698 524.7705098312483,510.8681322887216 521.6803398874982,520.3786974516731 511.6803398874981,520.3786974516726 519.770509831248,514.5008449287482 511.68033988749875,508.62299240582297 503.59016994374946,502.7451398828977 493.5901699437493,502.74513988289715 496.68033988749835,512.255705045849 488.59016994374906,506.3778525229238 485.50000000000006,496.8672873599719 493.59016994374997,490.98943483704755 490.49999999999994,500.49999999999903 500.50000000000006,500.4999999999996 510.5000000000002,500.5000000000001 518.5901699437501,494.62214747707577 510.50000000000085,488.7442949541505 520.500000000001,488.74429495415103 528.5901699437503,494.62214747707634 525.5000000000002,504.1327126400278 522.4098300562513,494.62214747707594 514.3196601125013,500.50000000000034 506.2294901687514,506.3778525229247 503.13932022500137,515.8884176858762 513.1393202250015,515.8884176858768 505.04915028125157,521.7662702088012 495.0491502812514,521.7662702088006 491.95898033750245,512.2557050458487 500.0491502812517,518.133557568774 503.13932022500177,508.6229924058225 506.2294901687518,499.112427242871 503.13932022500285,489.60186207991916 495.0491502812529,495.4797146028435 498.13932022500296,485.969149439892 506.2294901687529,480.0912969169676 514.3196601125021,485.96914943989293" stroke="black" stroke-linecap="round" stroke-width="1" /><polyline clip-path="url(#border_clip)" fill="none" points="514.3196601125021,485.96914943989293 504.319660112502,485.96914943989236 507.409830056251,495.4797146028442 510.49999999999994,504.99027976579606 518.5901699437492,510.86813228872137 521.6803398874993,501.35756712576983 524.7705098312482,510.8681322887217 521.6803398874982,520.3786974516732 511.680339887498,520.3786974516727 519.770509831248,514.5008449287483 511.6803398874987,508.62299240582297 503.59016994374946,502.7451398828977 493.5901699437493,502.7451398828971 496.6803398874983,512.255705045849 488.590169943749,506.37785252292366 485.50000000000006,496.8672873599718 493.59016994374997,490.98943483704744 490.4999999999999,500.499999999999 500.50000000000006,500.49999999999955 510.5000000000002,500.50000000000017 518.5901699437502,494.62214747707577 510.5000000000009,488.7442949541505 520.500000000001,488.7442949541511 528.5901699437503,494.6221474770764 525.5000000000002,504.1327126400279 522.4098300562513,494.622147477076 514.3196601125013,500.50000000000034 506.22949016875134,506.3778525229247 503.13932022500126,515.8884176858762 513.1393202250015,515.8884176858768 505.04915028125146,521.7662702088012 495.0491502812513,521.7662702088005 491.95898033750234,512.2557050458487 500.0491502812516,518.133557568774 503.1393202250017,508.6229924058225 506.2294901687518,499.112427242871 503.13932022500285,489.6018620799191 495.0491502812529,495.47971460284344 498.139320225003,485.96914943989196 506.229490168753,480.0912969169676 514.3196601125022,485.96914943989293 504.31966011250205,485.9691494398923 507.409830056251,495.4797146028442" stroke="black" stroke-linecap="round" stroke-width="1" /><polyline clip-path="url(#border_clip)" fill="none" points="507.409830056251,495.4797146028442 510.49999999999994,504.99027976579606 518.5901699437492,510.8681322887214 521.6803398874993,501.3575671257699 524.7705098312482,510.8681322887218 521.6803398874981,520.3786974516734 511.68033988749795,520.3786974516727 519.770509831248,514.5008449287484 511.6803398874987,508.622992405823 503.59016994374946,502.74513988289766 493.5901699437493,502.74513988289704 496.6803398874982,512.2557050458489 488.59016994374895,506.3778525229236 485.50000000000006,496.8672873599717 493.59016994375,490.9894348370474 490.4999999999999,500.49999999999886 500.50000000000006,500.49999999999955 510.5000000000002,500.50000000000017 518.5901699437502,494.6221474770758 510.50000000000097,488.7442949541505 520.5000000000011,488.74429495415114 528.5901699437504,494.6221474770765 525.5000000000002,504.132712640028 522.4098300562514,494.6221474770761 514.3196601125013,500.5000000000004 506.22949016875134,506.3778525229247 503.1393202250012,515.8884176858762 513.1393202250014,515.8884176858769 505.0491502812514,521.7662702088012 495.04915028125123,521.7662702088005 491.9589803375023,512.2557050458486 500.0491502812515,518.133557568774 503.1393202250017,508.62299240582246 506.22949016875185,499.112427242871 503.13932022500296,489.60186207991904 495.04915028125293,495.4797146028434 498.1393202250031,485.96914943989185 506.2294901687531,480.09129691696756 514.3196601125023,485.96914943989293 504.31966011250216,485.96914943989225 507.40983005625105,495.4797146028442 510.49999999999994,504.9902797657961 518.5901699437492,510.8681322887215" stroke="black" stroke-linecap="round" stroke-width="1" /><polyline clip-path="url(#border_clip)" fill="none" points="518.5901699437492,510.8681322887215 521.6803398874994,501.35756712577 524.7705098312482,510.8681322887219 521.680339887498,520.3786974516734 511.6803398874979,520.3786974516727 519.7705098312479,514.5008449287484 511.6803398874987,508.622992405823 503.59016994374946,502.74513988289766 493.59016994374923,502.745139882897 496.6803398874981,512.2557050458489 488.5901699437489,506.3778525229235 485.50000000000006,496.86728735997156 493.5901699437501,490.98943483704727 490.4999999999999,500.4999999999988 500.50000000000006,500.4999999999995 510.5000000000003,500.50000000000017 518.5901699437503,494.6221474770759 510.5000000000011,488.74429495415046 520.5000000000013,488.7442949541512 528.5901699437504,494.62214747707657 525.5000000000003,504.1327126400281 522.4098300562514,494.62214747707617 514.3196601125014,500.50000000000045 506.22949016875134,506.3778525229247 503.13932022500114,515.8884176858762 513.1393202250014,515.8884176858769 505.0491502812513,521.7662702088012 495.0491502812511,521.7662702088005 491.9589803375022,512.2557050458486 500.04915028125146,518.133557568774 503.13932022500165,508.62299240582246 506.22949016875185,499.112427242871 503.139320225003,489.601862079919 495.04915028125293,495.4797146028433 498.13932022500313,485.9691494398918 506.2294901687532,480.0912969169675 514.3196601125024,485.96914943989293 504.3196601125022,485.96914943989225 507.4098300562511,495.4797146028442 510.49999999999994,504.9902797657961 518.5901699437492,510.86813228872154 521.6803398874994,501.35756712577006 524.7705098312482,510.868132288722" stroke="black" stroke-linecap="round" stroke-width="1" /><polyline clip-path="url(#border_clip)" fill="none" points="524.7705098312482,510.868132288722 521.680339887498,520.3786974516735 511.6803398874978,520.3786974516728 519.7705098312479,514.5008449287485 511.68033988749863,508.6229924058231 503.59016994374946,502.7451398828976 493.59016994374923,502.7451398828969 496.68033988749806,512.2557050458488 488.5901699437489,506.37785252292343 485.50000000000006,496.86728735997144 493.5901699437501,490.9894348370472 490.4999999999999,500.4999999999987 500.50000000000006,500.49999999999943 510.5000000000003,500.50000000000017 518.5901699437503,494.62214747707594 510.50000000000114,488.74429495415046 520.5000000000014,488.7442949541512 528.5901699437505,494.6221474770767 525.5000000000003,504.13271264002816 522.4098300562515,494.6221474770762 514.3196601125014,500.50000000000045 506.22949016875134,506.3778525229247 503.1393202250011,515.8884176858762 513.1393202250013,515.8884176858769 505.04915028125123,521.7662702088012 495.049150281251,521.7662702088005 491.95898033750217,512.2557050458485 500.0491502812514,518.133557568774 503.13932022500165,508.62299240582246 506.2294901687519,499.1124272428709 503.1393202250031,489.601862079919 495.049150281253,495.4797146028432 498.13932022500325,485.96914943989174 506.22949016875333,480.0912969169675 514.3196601125026,485.96914943989293 504.31966011250233,485.9691494398922 507.4098300562511,495.4797146028442 510.49999999999994,504.9902797657961 518.5901699437492,510.8681322887216 521.6803398874994,501.3575671257701 524.7705098312482,510.8681322887221 521.6803398874979,520.3786974516736 511.6803398874977,520.3786974516728" stroke="black" stroke-linecap="round" stroke-width="1" /><polyline clip-path="url(#border_clip)" fill="none" points="511.6803398874977,520.3786974516728 519.7705098312479,514.5008449287486 511.68033988749863,508.6229924058231 503.59016994374946,502.7451398828976 493.59016994374923,502.74513988289686 496.680339887498,512.2557050458488 488.59016994374883,506.3778525229233 485.50000000000006,496.86728735997133 493.59016994375014,490.9894348370471 490.4999999999999,500.49999999999864 500.50000000000006,500.49999999999943 510.5000000000003,500.50000000000017 518.5901699437504,494.622147477076 510.5000000000012,488.74429495415046 520.5000000000015,488.74429495415126 528.5901699437507,494.62214747707674 525.5000000000003,504.1327126400283 522.4098300562515,494.6221474770763 514.3196601125014,500.5000000000005 506.2294901687513,506.3778525229247 503.139320225001,515.8884176858762 513.1393202250013,515.888417685877 505.0491502812511,521.7662702088012 495.0491502812509,521.7662702088004 491.9589803375021,512.2557050458485 500.0491502812513,518.1335575687739 503.1393202250016,508.62299240582246 506.2294901687519,499.1124272428709 503.13932022500313,489.60186207991893 495.049150281253,495.47971460284316 498.1393202250033,485.9691494398916 506.22949016875344,480.09129691696745 514.3196601125026,485.969149439893 504.3196601125024,485.96914943989213 507.40983005625117,495.4797146028441 510.49999999999994,504.9902797657962 518.5901699437491,510.86813228872165 521.6803398874994,501.3575671257702 524.7705098312482,510.86813228872217 521.6803398874979,520.3786974516737 511.6803398874976,520.3786974516729 519.7705098312478,514.5008449287486 511.6803398874986,508.62299240582314" stroke="black" stroke-linecap="round" stroke-width="1" /><polyline clip-path="url(#border_clip)" fill="none" points="511.6803398874986,508.62299240582314 503.5901699437494,502.7451398828976 493.5901699437492,502.74513988289675 496.68033988749795,512.2557050458488 488.5901699437488,506.37785252292326 485.50000000000006,496.8672873599712 493.5901699437502,490.98943483704704 490.49999999999983,500.4999999999985 500.50000000000006,500.4999999999994 510.5000000000003,500.5000000000002 518.5901699437504,494.622147477076 510.5000000000013,488.74429495415046 520.5000000000015,488.7442949541513 528.5901699437507,494.62214747707685 525.5000000000003,504.13271264002833 522.4098300562516,494.62214747707634 514.3196601125014,500.5000000000005 506.2294901687513,506.3778525229247 503.1393202250009,515.8884176858762 513.1393202250011,515.888417685877 505.049150281251,521.7662702088012 495.0491502812508,521.7662702088004 491.95898033750206,512.2557050458483 500.0491502812512,518.1335575687739 503.13932022500154,508.6229924058224 506.2294901687519,499.1124272428709 503.1393202250032,489.6018620799189 495.04915028125305,495.47971460284305 498.1393202250034,485.96914943989157 506.22949016875356,480.0912969169674 514.3196601125027,485.969149439893 504.3196601125025,485.96914943989213 507.4098300562512,495.4797146028441 510.49999999999994,504.9902797657962 518.5901699437491,510.86813228872177 521.6803398874995,501.35756712577023 524.7705098312482,510.8681322887223 521.6803398874978,520.3786974516738 511.68033988749755,520.3786974516729 519.7705098312478,514.5008449287487 511.6803398874986,508.62299240582314 503.59016994374946,502.74513988289755 493.5901699437492,502.7451398828967" stroke="black" stroke-linecap="round" stroke-width="1" /><polyline clip-path="url(#border_clip)" fill="none" points="493.5901699437492,502.7451398828967 496.6803398874979,512.2557050458487 488.5901699437488,506.37785252292315 485.50000000000006,496.8672873599711 493.59016994375025,490.98943483704693 490.49999999999983,500.49999999999847 500.5000000000001,500.4999999999993 510.50000000000034,500.5000000000002 518.5901699437505,494.62214747707606 510.50000000000136,488.74429495415046 520.5000000000016,488.74429495415137 528.5901699437508,494.62214747707696 525.5000000000003,504.13271264002844 522.4098300562516,494.6221474770764 514.3196601125014,500.50000000000057 506.2294901687512,506.3778525229247 503.13932022500086,515.8884176858762 513.1393202250011,515.8884176858771 505.0491502812509,521.7662702088012 495.04915028125066,521.7662702088003 491.95898033750194,512.2557050458482 500.0491502812511,518.1335575687739 503.13932022500154,508.6229924058224 506.2294901687519,499.1124272428709 503.13932022500325,489.6018620799189 495.04915028125305,495.479714602843 498.1393202250035,485.9691494398915 506.22949016875367,480.0912969169674 514.3196601125028,485.969149439893 504.31966011250256,485.9691494398921 507.4098300562512,495.4797146028441 510.4999999999999,504.9902797657962 518.5901699437491,510.8681322887218 521.6803398874995,501.3575671257703 524.7705098312481,510.8681322887224 521.6803398874977,520.3786974516738 511.68033988749744,520.3786974516729 519.7705098312476,514.5008449287488 511.6803398874985,508.6229924058232 503.5901699437494,502.74513988289755 493.5901699437492,502.74513988289664 496.68033988749784,512.2557050458487 488.5901699437487,506.37785252292304" stroke="black" stroke-linecap="round" stroke-width="1" /><polyline clip-path="url(#border_clip)" fill="none" points="488.5901699437487,506.37785252292304 485.5,496.867287359971 493.59016994375025,490.9894348370469 490.49999999999983,500.49999999999835 500.50000000000006,500.49999999999926 510.50000000000034,500.5000000000002 518.5901699437505,494.6221474770761 510.5000000000014,488.74429495415046 520.5000000000017,488.74429495415137 528.5901699437508,494.622147477077 525.5000000000003,504.13271264002856 522.4098300562517,494.62214747707645 514.3196601125014,500.50000000000057 506.2294901687512,506.3778525229247 503.13932022500074,515.8884176858762 513.139320225001,515.8884176858771 505.0491502812508,521.7662702088013 495.04915028125055,521.7662702088003 491.9589803375019,512.2557050458482 500.049150281251,518.1335575687739 503.1393202250015,508.6229924058224 506.2294901687519,499.1124272428709 503.13932022500325,489.6018620799188 495.04915028125305,495.47971460284293 498.1393202250035,485.96914943989145 506.2294901687537,480.09129691696734 514.3196601125029,485.969149439893 504.3196601125026,485.969149439892 507.4098300562512,495.4797146028441 510.4999999999999,504.9902797657962 518.590169943749,510.8681322887219 521.6803398874995,501.3575671257704 524.7705098312481,510.86813228872245 521.6803398874977,520.3786974516739 511.6803398874974,520.378697451673 519.7705098312476,514.5008449287488 511.6803398874985,508.6229924058232 503.5901699437494,502.74513988289755 493.5901699437491,502.7451398828966 496.6803398874978,512.2557050458487 488.59016994374866,506.377852522923 485.5,496.8672873599709 493.59016994375025,490.98943483704676" stroke="black" stroke-linecap="round" stroke-width="1" /><polyline clip-path="url(#border_clip)" fill="none" points="493.59016994375025,490.98943483704676 490.4999999999998,500.4999999999983 500.50000000000006,500.49999999999926 510.50000000000034,500.5000000000002 518.5901699437507,494.6221474770761 510.5000000000015,488.74429495415046 520.5000000000017,488.7442949541514 528.5901699437509,494.62214747707714 525.5000000000003,504.1327126400286 522.4098300562517,494.6221474770765 514.3196601125014,500.5000000000006 506.2294901687512,506.3778525229247 503.1393202250007,515.8884176858762 513.1393202250009,515.8884176858771 505.0491502812507,521.7662702088013 495.04915028125043,521.7662702088003 491.9589803375018,512.2557050458481 500.04915028125095,518.1335575687739 503.1393202250014,508.62299240582234 506.22949016875197,499.11242724287087 503.13932022500336,489.60186207991876 495.04915028125305,495.4797146028429 498.1393202250036,485.9691494398914 506.22949016875384,480.0912969169673 514.319660112503,485.969149439893 504.3196601125027,485.969149439892 507.4098300562513,495.4797146028441 510.4999999999999,504.99027976579623 518.590169943749,510.86813228872194 521.6803398874995,501.35756712577046 524.7705098312481,510.86813228872256 521.6803398874976,520.378697451674 511.68033988749727,520.378697451673 519.7705098312476,514.500844928749 511.68033988749846,508.62299240582325 503.5901699437494,502.7451398828975 493.5901699437491,502.74513988289647 496.6803398874977,512.2557050458486 488.5901699437486,506.37785252292286 485.5,496.86728735997076 493.5901699437503,490.9894348370467 490.4999999999998,500.4999999999982 500.50000000000006,500.4999999999992" stroke="black" stroke-linecap="round" stroke-width="1" /><polyline clip-path="url(#border_clip)" fill="none" points="500.50000000000006,500.4999999999992 510.50000000000034,500.5000000000002 518.5901699437507,494.62214747707617 510.50000000000153,488.74429495415046 520.5000000000018,488.7442949541515 528.5901699437509,494.62214747707725 525.5000000000003,504.1327126400287 522.4098300562518,494.62214747707657 514.3196601125015,500.5000000000006 506.22949016875117,506.3778525229247 503.13932022500063,515.8884176858762 513.1393202250009,515.8884176858772 505.0491502812506,521.7662702088013 495.0491502812503,521.7662702088002 491.9589803375017,512.2557050458481 500.04915028125083,518.1335575687739 503.13932022500137,508.62299240582234 506.22949016875197,499.11242724287087 503.1393202250034,489.60186207991876 495.04915028125305,495.47971460284276 498.13932022500364,485.9691494398913 506.22949016875396,480.0912969169673 514.319660112503,485.96914943989304 504.31966011250273,485.96914943989196 507.4098300562513,495.47971460284407 510.4999999999999,504.99027976579623 518.590169943749,510.868132288722 521.6803398874995,501.3575671257705 524.7705098312481,510.8681322887227 521.6803398874974,520.3786974516742 511.6803398874972,520.378697451673 519.7705098312475,514.5008449287491 511.68033988749846,508.62299240582325 503.5901699437494,502.7451398828975 493.59016994374906,502.7451398828964 496.6803398874976,512.2557050458486 488.59016994374855,506.3778525229228 485.5,496.86728735997065 493.59016994375037,490.9894348370466 490.4999999999998,500.49999999999807 500.50000000000006,500.49999999999915 510.50000000000034,500.5000000000003 518.5901699437507,494.6221474770762" stroke="black" stroke-linecap="round" stroke-width="1" /><polyline clip-path="url(#border_clip)" fill="none" points="518.5901699437507,494.6221474770762 510.5000000000016,488.74429495415046 520.5000000000019,488.74429495415154 528.590169943751,494.6221474770773 525.5000000000003,504.1327126400288 522.4098300562518,494.6221474770766 514.3196601125015,500.5000000000007 506.22949016875117,506.3778525229247 503.1393202250005,515.8884176858762 513.1393202250008,515.8884176858772 505.0491502812505,521.7662702088013 495.0491502812502,521.7662702088002 491.95898033750166,512.255705045848 500.0491502812507,518.1335575687738 503.13932022500137,508.62299240582234 506.22949016875197,499.11242724287087 503.1393202250034,489.6018620799187 495.0491502812531,495.4797146028427 498.1393202250037,485.9691494398912 506.22949016875407,480.0912969169672 514.3196601125031,485.96914943989304 504.31966011250285,485.9691494398919 507.40983005625134,495.47971460284407 510.49999999999983,504.99027976579623 518.590169943749,510.86813228872205 521.6803398874995,501.3575671257706 524.7705098312481,510.86813228872273 521.6803398874974,520.3786974516743 511.6803398874971,520.3786974516731 519.7705098312475,514.5008449287491 511.68033988749846,508.6229924058233 503.5901699437494,502.7451398828975 493.59016994374906,502.74513988289635 496.68033988749755,512.2557050458486 488.5901699437485,506.3778525229227 485.5,496.86728735997053 493.5901699437504,490.98943483704653 490.4999999999998,500.499999999998 500.50000000000006,500.49999999999915 510.50000000000034,500.5000000000003 518.5901699437508,494.6221474770763 510.5000000000017,488.74429495415046 520.500000000002,488.7442949541516" stroke="black" stroke-linecap="round" stroke-width="1" /><polyline clip-path="url(#border_clip)" fill="none" points="520.500000000002,488.7442949541516 528.5901699437511,494.6221474770774 525.5000000000005,504.1327126400289 522.409830056252,494.6221474770767 514.3196601125015,500.5000000000007 506.2294901687511,506.3778525229247 503.13932022500046,515.8884176858761 513.1393202250008,515.8884176858772 505.0491502812504,521.7662702088013 495.0491502812501,521.7662702088002 491.9589803375016,512.255705045848 500.04915028125066,518.1335575687738 503.1393202250013,508.62299240582234 506.22949016875197,499.11242724287087 503.13932022500353,489.60186207991865 495.0491502812531,495.47971460284265 498.13932022500376,485.96914943989117 506.2294901687542,480.09129691696717 514.3196601125032,485.96914943989304 504.3196601125029,485.9691494398919 507.4098300562514,495.47971460284407 510.49999999999983,504.9902797657963 518.5901699437488,510.8681322887221 521.6803398874996,501.35756712577063 524.770509831248,510.86813228872285 521.6803398874973,520.3786974516743 511.68033988749704,520.3786974516731 519.7705098312474,514.5008449287492 511.6803398874984,508.6229924058233 503.59016994374934,502.74513988289743 493.59016994374906,502.7451398828963 496.6803398874975,512.2557050458485 488.59016994374844,506.3778525229226 485.5,496.8672873599704 493.5901699437504,490.9894348370464 490.4999999999997,500.4999999999979 500.50000000000006,500.4999999999991 510.5000000000004,500.5000000000003 518.5901699437508,494.6221474770763 510.50000000000176,488.7442949541504 520.500000000002,488.7442949541516 528.5901699437511,494.6221474770775 525.5000000000005,504.13271264002896" stroke="black" stroke-linecap="round" stroke-width="1" /><polyline clip-path="url(#border_clip)" fill="none" points="525.5000000000005,504.13271264002896 522.409830056252,494.62214747707674 514.3196601125015,500.50000000000074 506.2294901687511,506.3778525229247 503.1393202250004,515.8884176858761 513.1393202250007,515.8884176858774 505.0491502812503,521.7662702088013 495.04915028125,521.7662702088002 491.95898033750154,512.2557050458479 500.04915028125055,518.1335575687738 503.13932022500126,508.6229924058223 506.229490168752,499.1124272428708 503.1393202250036,489.6018620799186 495.0491502812531,495.4797146028426 498.1393202250038,485.9691494398911 506.2294901687543,480.0912969169671 514.3196601125034,485.96914943989304 504.31966011250296,485.96914943989185 507.4098300562514,495.47971460284407 510.49999999999983,504.9902797657963 518.5901699437488,510.86813228872217 521.6803398874996,501.3575671257707 524.770509831248,510.8681322887229 521.6803398874973,520.3786974516744 511.680339887497,520.3786974516732 519.7705098312474,514.5008449287493 511.6803398874984,508.6229924058233 503.59016994374934,502.74513988289743 493.590169943749,502.7451398828962 496.68033988749744,512.2557050458485 488.59016994374844,506.3778525229225 485.5,496.8672873599703 493.5901699437505,490.98943483704636 490.4999999999997,500.49999999999784 500.50000000000006,500.49999999999903 510.5000000000004,500.5000000000003 518.5901699437509,494.62214747707634 510.5000000000018,488.7442949541504 520.5000000000022,488.74429495415166 528.5901699437512,494.6221474770776 525.5000000000005,504.13271264002907 522.4098300562521,494.6221474770768 514.3196601125015,500.50000000000074" stroke="black" stroke-linecap="round" stroke-width="1" /><polyline clip-path="url(#border_clip)" fill="none" points="514.3196601125015,500.50000000000074 506.2294901687511,506.3778525229247 503.13932022500035,515.8884176858761 513.1393202250007,515.8884176858774 505.0491502812502,521.7662702088013 495.04915028124987,521.7662702088 491.95898033750143,512.2557050458478 500.0491502812505,518.1335575687738 503.13932022500126,508.6229924058223 506.229490168752,499.1124272428708 503.1393202250036,489.6018620799186 495.0491502812531,495.4797146028425 498.13932022500387,485.969149439891 506.2294901687544,480.0912969169671 514.3196601125034,485.96914943989304 504.3196601125031,485.9691494398918 507.40983005625145,495.479714602844 510.49999999999983,504.9902797657963 518.5901699437488,510.8681322887222 521.6803398874996,501.35756712577074 524.770509831248,510.868132288723 521.6803398874972,520.3786974516745 511.68033988749687,520.3786974516732 519.7705098312474,514.5008449287493 511.68033988749835,508.62299240582337 503.59016994374934,502.7451398828974 493.590169943749,502.7451398828961 496.6803398874974,512.2557050458483 488.5901699437484,506.3778525229224 485.5,496.8672873599702 493.5901699437505,490.98943483704625 490.4999999999997,500.4999999999977 500.50000000000006,500.49999999999903 510.5000000000004,500.5000000000003 518.5901699437509,494.6221474770764 510.50000000000193,488.7442949541504 520.5000000000023,488.7442949541517 528.5901699437513,494.62214747707765 525.5000000000005,504.1327126400291 522.4098300562521,494.62214747707685 514.3196601125017,500.5000000000008 506.22949016875106,506.3778525229247 503.1393202250003,515.8884176858761" stroke="black" stroke-linecap="round" stroke-width="1" /><polyline clip-path="url(#border_clip)" fill="none" points="503.1393202250003,515.8884176858761 513.1393202250006,515.8884176858775 505.0491502812501,521.7662702088013 495.04915028124975,521.7662702088 491.9589803375014,512.2557050458478 500.0491502812504,518.1335575687738 503.1393202250012,508.6229924058223 506.229490168752,499.1124272428708 503.1393202250037,489.60186207991853 495.04915028125316,495.4797146028424 498.139320225004,485.96914943989094 506.2294901687545,480.09129691696705 514.3196601125035,485.96914943989304 504.31966011250313,485.96914943989174 507.4098300562515,495.479714602844 510.49999999999983,504.9902797657963 518.5901699437488,510.86813228872234 521.6803398874997,501.35756712577086 524.770509831248,510.86813228872313 521.6803398874972,520.3786974516746 511.6803398874968,520.3786974516732 519.7705098312474,514.5008449287494 511.68033988749835,508.6229924058234 503.59016994374934,502.7451398828974 493.590169943749,502.74513988289607 496.6803398874973,512.2557050458483 488.5901699437483,506.37785252292235 485.5,496.86728735997 493.59016994375054,490.98943483704613 490.49999999999966,500.4999999999976 500.50000000000006,500.499999999999 510.50000000000045,500.5000000000003 518.590169943751,494.6221474770764 510.500000000002,488.7442949541504 520.5000000000024,488.7442949541517 528.5901699437513,494.62214747707776 525.5000000000005,504.13271264002924 522.4098300562522,494.6221474770769 514.3196601125017,500.5000000000008 506.22949016875106,506.3778525229247 503.1393202250002,515.8884176858761 513.1393202250006,515.8884176858775 505.04915028125,521.7662702088014" stroke="black" stroke-linecap="round" stroke-width="1" /><polyline clip-path="url(#border_clip)" fill="none" points="505.04915028125,521.7662702088014 495.04915028124964,521.7662702088 491.9589803375013,512.2557050458477 500.0491502812503,518.1335575687738 503.13932022500114,508.6229924058223 506.229490168752,499.1124272428708 503.13932022500376,489.6018620799185 495.04915028125316,495.4797146028423 498.13932022500404,485.9691494398908 506.22949016875464,480.091296916967 514.3196601125036,485.96914943989304 504.31966011250324,485.9691494398917 507.4098300562515,495.479714602844 510.49999999999983,504.99027976579634 518.5901699437488,510.8681322887224 521.6803398874997,501.3575671257709 524.770509831248,510.86813228872325 521.6803398874971,520.3786974516747 511.6803398874967,520.3786974516734 519.7705098312473,514.5008449287495 511.6803398874983,508.6229924058234 503.59016994374934,502.7451398828974 493.59016994374895,502.74513988289596 496.6803398874972,512.2557050458483 488.59016994374826,506.37785252292224 485.49999999999994,496.8672873599699 493.59016994375054,490.9894348370461 490.49999999999966,500.49999999999756 500.50000000000006,500.4999999999989 510.50000000000045,500.5000000000003 518.590169943751,494.62214747707645 510.50000000000205,488.7442949541504 520.5000000000025,488.74429495415177 528.5901699437514,494.6221474770778 525.5000000000006,504.1327126400293 522.4098300562522,494.62214747707696 514.3196601125017,500.5000000000008 506.229490168751,506.3778525229247 503.1393202250001,515.8884176858761 513.1393202250005,515.8884176858775 505.0491502812499,521.7662702088014 495.0491502812495,521.7662702087999 491.95898033750126,512.2557050458477" stroke="black" stroke-linecap="round" stroke-width="1" /><polyline clip-path="url(#border_clip)" fill="none" points="491.95898033750126,512.2557050458477 500.0491502812502,518.1335575687738 503.13932022500114,508.62299240582223 506.2294901687521,499.11242724287075 503.1393202250038,489.6018620799184 495.04915028125316,495.47971460284225 498.1393202250041,485.96914943989077 506.2294901687547,480.09129691696694 514.3196601125037,485.96914943989304 504.3196601125033,485.9691494398916 507.40983005625156,495.479714602844 510.49999999999983,504.99027976579634 518.5901699437488,510.86813228872245 521.6803398874997,501.35756712577097 524.770509831248,510.8681322887233 521.680339887497,520.3786974516747 511.68033988749664,520.3786974516734 519.7705098312473,514.5008449287495 511.6803398874983,508.6229924058234 503.59016994374934,502.7451398828973 493.59016994374895,502.7451398828959 496.68033988749715,512.2557050458482 488.5901699437482,506.3778525229221 485.5,496.8672873599698 493.5901699437506,490.98943483704596 490.49999999999966,500.49999999999744 500.50000000000006,500.49999999999886 510.50000000000045,500.5000000000003 518.5901699437511,494.6221474770765 510.50000000000216,488.74429495415035 520.5000000000025,488.7442949541518 528.5901699437516,494.62214747707793 525.5000000000006,504.1327126400294 522.4098300562523,494.622147477077 514.3196601125017,500.50000000000085 506.229490168751,506.3778525229246 503.13932022500006,515.8884176858761 513.1393202250005,515.8884176858776 505.0491502812498,521.7662702088014 495.0491502812494,521.7662702087999 491.95898033750115,512.2557050458475 500.0491502812501,518.1335575687737 503.1393202250011,508.62299240582223" stroke="black" stroke-linecap="round" stroke-width="1" /><polyline clip-path="url(#border_clip)" fill="none" points="503.1393202250011,508.62299240582223 506.2294901687521,499.11242724287075 503.13932022500387,489.60186207991836 495.0491502812532,495.4797146028422 498.13932022500416,485.9691494398907 506.2294901687548,480.0912969169669 514.3196601125038,485.96914943989304 504.31966011250336,485.9691494398916 507.40983005625156,495.47971460284396 510.49999999999983,504.99027976579634 518.5901699437487,510.8681322887225 521.6803398874997,501.357567125771 524.770509831248,510.8681322887234 521.680339887497,520.3786974516748 511.68033988749653,520.3786974516734 519.7705098312472,514.5008449287496 511.6803398874983,508.6229924058235 503.59016994374934,502.7451398828973 493.5901699437489,502.74513988289584 496.6803398874971,512.2557050458482 488.59016994374815,506.37785252292207 485.5,496.8672873599697 493.59016994375065,490.9894348370459 490.49999999999966,500.4999999999974 500.50000000000006,500.49999999999886 510.50000000000045,500.50000000000034 518.5901699437511,494.6221474770765 510.5000000000022,488.74429495415035 520.5000000000026,488.7442949541518 528.5901699437516,494.62214747707804 525.5000000000006,504.13271264002947 522.4098300562524,494.6221474770771 514.3196601125017,500.50000000000085 506.229490168751,506.3778525229246 503.13932022499995,515.8884176858761 513.1393202250003,515.8884176858776 505.0491502812497,521.7662702088014 495.0491502812493,521.7662702087999 491.9589803375011,512.2557050458474 500.04915028125004,518.1335575687737 503.1393202250011,508.62299240582223 506.2294901687521,499.11242724287075 503.1393202250039,489.60186207991836" stroke="black" stroke-linecap="round" stroke-width="1" /><polyline clip-path="url(#border_clip)" fill="none" points="503.1393202250039,489.60186207991836 495.0491502812532,495.4797146028421 498.13932022500427,485.96914943989066 506.2294901687549,480.0912969169669 514.3196601125039,485.96914943989304 504.31966011250347,485.96914943989157 507.4098300562516,495.47971460284396 510.4999999999998,504.99027976579634 518.5901699437487,510.86813228872256 521.6803398874997,501.3575671257711 524.770509831248,510.8681322887235 521.6803398874969,520.378697451675 511.6803398874965,520.3786974516735 519.7705098312472,514.5008449287496 511.68033988749823,508.6229924058235 503.59016994374934,502.74513988289726 493.5901699437489,502.7451398828958 496.68033988749704,512.2557050458481 488.59016994374815,506.37785252292196 485.5,496.86728735996957 493.5901699437507,490.9894348370458 490.49999999999966,500.49999999999727 500.50000000000006,500.4999999999988 510.50000000000045,500.50000000000034 518.5901699437512,494.62214747707657 510.5000000000023,488.74429495415035 520.5000000000027,488.7442949541519 528.5901699437517,494.6221474770781 525.5000000000006,504.1327126400296 522.4098300562524,494.62214747707714 514.3196601125017,500.5000000000009 506.22949016875094,506.3778525229246 503.1393202249999,515.8884176858761 513.1393202250003,515.8884176858777 505.0491502812496,521.7662702088014 495.0491502812492,521.7662702087998 491.95898033750103,512.2557050458474 500.0491502812499,518.1335575687737 503.13932022500103,508.6229924058222 506.2294901687521,499.1124272428707 503.1393202250039,489.6018620799183 495.0491502812532,495.479714602842 498.1393202250043,485.96914943989054" stroke="black" stroke-linecap="round" stroke-width="1" /><polyline clip-path="url(#border_clip)" fill="none" points="498.1393202250043,485.96914943989054 506.22949016875504,480.0912969169668 514.3196601125039,485.96914943989304 504.3196601125035,485.9691494398915 507.4098300562516,495.47971460284396 510.4999999999998,504.9902797657964 518.5901699437487,510.8681322887226 521.6803398874998,501.35756712577114 524.7705098312479,510.8681322887236 521.6803398874969,520.3786974516751 511.68033988749636,520.3786974516735 519.7705098312472,514.5008449287498 511.68033988749823,508.62299240582354 503.5901699437493,502.74513988289726 493.59016994374883,502.7451398828957 496.680339887497,512.2557050458481 488.5901699437481,506.3778525229219 485.49999999999994,496.86728735996945 493.5901699437507,490.98943483704574 490.4999999999996,500.4999999999972 500.50000000000006,500.49999999999875 510.5000000000005,500.50000000000034 518.5901699437512,494.6221474770766 510.50000000000233,488.74429495415035 520.5000000000028,488.74429495415194 528.5901699437517,494.6221474770782 525.5000000000006,504.1327126400297 522.4098300562525,494.62214747707725 514.3196601125018,500.50000000000097 506.22949016875094,506.3778525229246 503.13932022499984,515.8884176858761 513.1393202250002,515.8884176858777 505.04915028124947,521.7662702088014 495.04915028124907,521.7662702087998 491.958980337501,512.2557050458473 500.04915028124987,518.1335575687737 503.139320225001,508.6229924058222 506.22949016875214,499.1124272428707 503.13932022500404,489.60186207991825 495.0491502812532,495.47971460284197 498.1393202250044,485.9691494398905 506.22949016875515,480.0912969169668 514.319660112504,485.9691494398931" stroke="black" stroke-linecap="round" stroke-width="1" /><polyline clip-path="url(#border_clip)" fill="none" points="514.319660112504,485.9691494398931 504.3196601125036,485.9691494398915 507.4098300562517,495.47971460284396 510.4999999999998,504.9902797657964 518.5901699437487,510.86813228872273 521.6803398874998,501.35756712577125 524.7705098312479,510.8681322887237 521.6803398874968,520.3786974516752 511.6803398874963,520.3786974516736 519.7705098312471,514.5008449287499 511.6803398874982,508.6229924058236 503.5901699437493,502.74513988289726 493.59016994374883,502.74513988289567 496.6803398874969,512.2557050458481 488.59016994374804,506.3778525229218 485.49999999999994,496.86728735996934 493.59016994375077,490.9894348370456 490.4999999999996,500.4999999999971 500.50000000000006,500.49999999999875 510.5000000000005,500.5000000000004 518.5901699437513,494.6221474770767 510.50000000000244,488.74429495415035 520.5000000000028,488.744294954152 528.5901699437518,494.62214747707833 525.5000000000006,504.1327126400298 522.4098300562525,494.6221474770773 514.3196601125018,500.50000000000097 506.22949016875094,506.3778525229247 503.1393202249997,515.8884176858761 513.1393202250002,515.8884176858778 505.0491502812494,521.7662702088014 495.04915028124896,521.7662702087998 491.95898033750086,512.2557050458473 500.04915028124975,518.1335575687737 503.1393202250009,508.6229924058222 506.22949016875214,499.1124272428707 503.1393202250041,489.60186207991825 495.0491502812533,495.4797146028419 498.13932022500444,485.96914943989043 506.22949016875526,480.09129691696677 514.3196601125042,485.9691494398931 504.3196601125037,485.96914943989145 507.40983005625174,495.47971460284396" stroke="black" stroke-linecap="round" stroke-width="1" /><polyline clip-path="url(#border_clip)" fill="none" points="507.40983005625174,495.47971460284396 510.4999999999998,504.99027976579646 518.5901699437486,510.8681322887228 521.6803398874998,501.3575671257713 524.7705098312479,510.8681322887238 521.6803398874966,520.3786974516753 511.6803398874962,520.3786974516736 519.7705098312471,514.50084492875 511.6803398874982,508.6229924058236 503.5901699437493,502.74513988289726 493.59016994374883,502.7451398828956 496.68033988749687,512.2557050458481 488.590169943748,506.3778525229217 485.49999999999994,496.8672873599692 493.59016994375077,490.98943483704556 490.49999999999955,500.49999999999704 500.50000000000006,500.4999999999987 510.5000000000005,500.5000000000004 518.5901699437513,494.62214747707674 510.5000000000025,488.74429495415035 520.500000000003,488.74429495415205 528.5901699437519,494.62214747707844 525.5000000000007,504.1327126400299 522.4098300562526,494.62214747707736 514.3196601125018,500.500000000001 506.2294901687509,506.3778525229247 503.13932022499966,515.8884176858761 513.1393202250001,515.8884176858778 505.0491502812493,521.7662702088015 495.0491502812488,521.7662702087998 491.9589803375008,512.2557050458473 500.0491502812497,518.1335575687737 503.1393202250009,508.6229924058222 506.22949016875214,499.11242724287075 503.13932022500416,489.6018620799182 495.0491502812533,495.47971460284185 498.1393202250045,485.9691494398904 506.2294901687554,480.0912969169667 514.3196601125043,485.96914943989316 504.31966011250375,485.96914943989145 507.40983005625174,495.47971460284396 510.4999999999998,504.99027976579646 518.5901699437486,510.8681322887229" stroke="black" stroke-linecap="round" stroke-width="1" /><polyline clip-path="url(#border_clip)" fill="none" points="518.5901699437486,510.8681322887229 521.6803398874998,501.3575671257714 524.7705098312479,510.8681322887239 521.6803398874966,520.3786974516754 511.68033988749613,520.3786974516737 519.770509831247,514.5008449287501 511.6803398874981,508.62299240582365 503.5901699437493,502.74513988289726 493.5901699437488,502.7451398828955 496.6803398874968,512.255705045848 488.5901699437479,506.37785252292167 485.49999999999994,496.8672873599691 493.5901699437508,490.9894348370455 490.49999999999955,500.49999999999693 500.50000000000006,500.4999999999987 510.5000000000005,500.5000000000004 518.5901699437514,494.6221474770768 510.50000000000256,488.74429495415035 520.5000000000031,488.7442949541521 528.5901699437519,494.6221474770785 525.5000000000007,504.13271264003 522.4098300562526,494.6221474770775 514.3196601125018,500.5000000000011 506.2294901687509,506.3778525229247 503.1393202249996,515.8884176858761 513.1393202250001,515.8884176858779 505.0491502812492,521.7662702088015 495.04915028124867,521.7662702087997 491.95898033750075,512.2557050458472 500.0491502812496,518.1335575687737 503.13932022500086,508.6229924058222 506.22949016875214,499.1124272428707 503.1393202250042,489.6018620799182 495.0491502812533,495.4797146028418 498.13932022500455,485.9691494398903 506.2294901687555,480.0912969169667 514.3196601125044,485.96914943989316 504.3196601125038,485.9691494398914 507.4098300562518,495.47971460284396 510.4999999999998,504.9902797657965 518.5901699437486,510.86813228872296 521.6803398874999,501.3575671257715 524.7705098312479,510.86813228872404" stroke="black" stroke-linecap="round" stroke-width="1" /><polyline clip-path="url(#border_clip)" fill="none" points="524.7705098312479,510.86813228872404 521.6803398874965,520.3786974516755 511.6803398874961,520.3786974516737 519.770509831247,514.5008449287501 511.6803398874981,508.62299240582365 503.5901699437493,502.7451398828972 493.5901699437488,502.74513988289544 496.68033988749676,512.255705045848 488.59016994374787,506.37785252292156 485.49999999999994,496.867287359969 493.5901699437509,490.9894348370454 490.49999999999955,500.4999999999969 500.50000000000006,500.49999999999864" stroke="black" stroke-linecap="round" stroke-width="1" /></svg>