<?xml version="1.0" encoding="utf-8" ?>
<svg baseProfile="full" height="10000px" version="1.1" width="10000px" xmlns="http://www.w3.org/2000/svg" xmlns:ev="http://www.w3.org/2001/xml-events" xmlns:xlink="http://www.w3.org/1999/xlink"><defs><clipPath id="border_clip"><rect height="10000" width="10000" x="0" y="0" /></clipPath></defs><polyline clip-path="url(#border_clip)" fill="none" points="5000.5,5000.5 5010.5,5000.5 5020.5,5000.5 5028.590169943749,4994.6221474770755 5020.5,4988.744294954151 5030.5,4988.744294954151 5038.590169943749,4994.6221474770755 5035.5,5004.1327126400265 5032.409830056251,4994.6221474770755 5024.319660112501,5000.5 5016.229490168752,5006.3778525229245 5013.139320225002,5015.888417685876 5023.139320225002,5015.888417685876 5015.049150281253,5021.766270208801 5005.049150281253,5021.766270208801 5001.958980337503,5012.255705045849 5010.049150281253,5018.133557568774 5013.139320225002,5008.6229924058225 5016.229490168752,4999.1124272428715 5013.139320225002,4989.60186207992 5005.049150281253,4995.479714602844 5008.139320225002,4985.969149439893 5016.229490168752,4980.091296916968 5024.319660112501,4985.969149439893 5014.319660112501,4985.969149439893 5017.409830056251,4995.479714602844 5020.5,5004.990279765796 5028.590169943749,5010.8681322887205 5031.680339887499,5001.3575671257695 5034.770509831248,5010.8681322887205 5031.680339887499,5020.378697451672 5021.680339887499,5020.378697451672 5029.770509831248,5014.500844928747 5021.680339887499,5008.6229924058225 5013.590169943749,5002.745139882898 5003.590169943749,5002.745139882898 5006.680339887499,5012.255705045849 4998.590169943749,5006.3778525229245 4995.5,4996.8672873599735 5003.59016994375,4990.989434837048 5000.5,5000.5 5010.5,5000.5 5020.5,5000.5" stroke="black" stroke-linecap="round" stroke-width="1" /><polyline clip-path="url(#border_clip)" fill="none" points="5020.5,5000.5 5028.59016994375,4994.6221474770755 5020.5,4988.744294954151 5030.5,4988.744294954151 5038.59016994375,4994.6221474770755 5035.5,5004.1327126400265 5032.409830056251,4994.6221474770755 5024.319660112501,5000.5 5016.229490168752,5006.3778525229245 5013.139320225002,5015.888417685876 5023.139320225002,5015.888417685876 5015.049150281253,5021.766270208801 5005.049150281253,5021.766270208801 5001.958980337503,5012.255705045849 5010.049150281253,5018.133557568774 5013.139320225002,5008.6229924058225 5016.229490168752,4999.1124272428715 5013.139320225002,4989.60186207992 5005.049150281253,4995.479714602844 5008.139320225002,4985.969149439893 5016.229490168752,4980.091296916968 5024.319660112501,4985.969149439893 5014.319660112501,4985.969149439893 5017.409830056251,4995.479714602844 5020.5,5004.990279765796 5028.590169943749,5010.8681322887205 5031.680339887499,5001.3575671257695 5034.770509831248,5010.8681322887205 5031.680339887499,5020.378697451672 5021.680339887499,5020.378697451672 5029.770509831248,5014.500844928748 5021.680339887499,5008.6229924058225 5013.590169943749,5002.745139882898 5003.590169943749,5002.745139882898 5006.680339887499,5012.255705045849 4998.590169943749,5006.3778525229245 4995.5,4996.867287359973 5003.59016994375,4990.989434837048 5000.5,5000.5 5010.5,5000.5 5020.5,5000.5 5028.59016994375,4994.6221474770755 5020.5,4988.744294954151" stroke="black" stroke-linecap="round" stroke-width="1" /><polyline clip-path="url(#border_clip)" fill="none" points="5020.5,4988.744294954151 5030.5,4988.744294954151 5038.59016994375,4994.6221474770755 5035.5,5004.132712640027 5032.409830056251,4994.6221474770755 5024.319660112501,5000.5 5016.229490168752,5006.3778525229245 5013.139320225002,5015.888417685876 5023.139320225002,5015.888417685876 5015.049150281252,5021.766270208801 5005.049150281252,5021.766270208801 5001.958980337503,5012.255705045849 5010.049150281253,5018.133557568774 5013.139320225002,5008.6229924058225 5016.229490168752,4999.1124272428715 5013.139320225002,4989.60186207992 5005.049150281253,4995.479714602844 5008.139320225002,4985.969149439893 5016.229490168752,4980.091296916968 5024.319660112501,4985.969149439893 5014.319660112501,4985.969149439893 5017.409830056251,4995.479714602844 5020.5,5004.990279765796 5028.590169943749,5010.8681322887205 5031.680339887499,5001.3575671257695 5034.770509831248,5010.8681322887205 5031.680339887499,5020.378697451672 5021.680339887499,5020.378697451672 5029.770509831248,5014.500844928748 5021.680339887499,5008.6229924058225 5013.590169943749,5002.745139882898 5003.590169943749,5002.745139882898 5006.680339887499,5012.255705045849 4998.590169943749,5006.3778525229245 4995.5,4996.867287359973 5003.59016994375,4990.989434837048 5000.5,5000.5 5010.5,5000.5 5020.5,5000.5 5028.59016994375,4994.6221474770755 5020.5,4988.744294954151 5030.5,4988.744294954151 5038.59016994375,4994.6221474770755" stroke="black" stroke-linecap="round" stroke-width="1" /><polyline clip-path="url(#border_clip)" fill="none" points="5038.59016994375,4994.6221474770755 5035.5,5004.132712640027 5032.409830056251,4994.6221474770755 5024.319660112501,5000.5 5016.229490168752,5006.3778525229245 5013.139320225002,5015.888417685876 5023.139320225002,5015.888417685876 5015.049150281252,5021.766270208801 5005.049150281252,5021.766270208801 5001.958980337503,5012.255705045849 5010.049150281252,5018.133557568774 5013.139320225002,5008.6229924058225 5016.229490168752,4999.1124272428715 5013.139320225002,4989.60186207992 5005.049150281253,4995.479714602844 5008.139320225002,4985.969149439892 5016.229490168752,4980.091296916968 5024.319660112501,4985.969149439893 5014.319660112501,4985.969149439893 5017.409830056251,4995.479714602844 5020.5,5004.990279765796 5028.590169943749,5010.8681322887205 5031.680339887499,5001.3575671257695 5034.770509831248,5010.8681322887205 5031.680339887499,5020.378697451672 5021.680339887499,5020.378697451672 5029.770509831248,5014.500844928748 5021.680339887499,5008.6229924058225 5013.590169943749,5002.745139882898 5003.590169943749,5002.745139882898 5006.680339887499,5012.255705045849 4998.590169943749,5006.3778525229245 4995.5,4996.867287359973 5003.59016994375,4990.989434837048 5000.5,5000.5 5010.5,5000.5 5020.5,5000.5 5028.59016994375,4994.6221474770755 5020.5,4988.744294954151 5030.5,4988.744294954151 5038.59016994375,4994.6221474770755 5035.5,5004.132712640027 5032.409830056251,4994.6221474770755" stroke="black" stroke-linecap="round" stroke-width="1" /><polyline clip-path="url(#border_clip)" fill="none" points="5032.409830056251,4994.6221474770755 5024.319660112501,5000.5 5016.229490168752,5006.3778525229245 5013.139320225002,5015.888417685876 5023.139320225002,5015.888417685876 5015.049150281252,5021.766270208801 5005.049150281252,5021.766270208801 5001.958980337503,5012.255705045849 5010.049150281252,5018.133557568774 5013.139320225002,5008.6229924058225 5016.229490168752,4999.1124272428715 5013.139320225002,4989.60186207992 5005.049150281253,4995.479714602844 5008.139320225003,4985.969149439892 5016.229490168752,4980.091296916968 5024.319660112502,4985.969149439893 5014.319660112501,4985.969149439893 5017.409830056251,4995.479714602844 5020.5,5004.990279765796 5028.590169943749,5010.8681322887205 5031.680339887499,5001.3575671257695 5034.770509831248,5010.868132288721 5031.680339887499,5020.378697451672 5021.680339887498,5020.378697451672 5029.770509831248,5014.500844928748 5021.680339887499,5008.6229924058225 5013.590169943749,5002.745139882898 5003.590169943749,5002.745139882898 5006.680339887499,5012.255705045849 4998.590169943749,5006.3778525229245 4995.5,4996.867287359973 5003.59016994375,4990.989434837048 5000.5,5000.5 5010.5,5000.5 5020.5,5000.5 5028.59016994375,4994.6221474770755 5020.5,4988.744294954151 5030.5,4988.744294954151 5038.59016994375,4994.6221474770755 5035.5,5004.132712640027 5032.409830056251,4994.6221474770755 5024.319660112501,5000.5 5016.229490168752,5006.3778525229245" stroke="black" stroke-linecap="round" stroke-width="1" /><polyline clip-path="url(#border_clip)" fill="none" points="5016.229490168752,5006.3778525229245 5013.139320225002,5015.888417685876 5023.139320225002,5015.888417685876 5015.049150281252,5021.766270208801 5005.049150281252,5021.766270208801 5001.958980337503,5012.255705045849 5010.049150281252,5018.133557568774 5013.139320225002,5008.6229924058225 5016.229490168752,4999.1124272428715 5013.139320225003,4989.60186207992 5005.049150281253,4995.479714602844 5008.139320225003,4985.969149439892 5016.229490168752,4980.091296916968 5024.319660112502,4985.969149439893 5014.319660112502,4985.969149439892 5017.409830056251,4995.479714602844 5020.5,5004.990279765796 5028.590169943749,5010.8681322887205 5031.680339887499,5001.3575671257695 5034.770509831248,5010.868132288721 5031.680339887498,5020.378697451672 5021.680339887498,5020.378697451672 5029.770509831248,5014.500844928748 5021.680339887499,5008.6229924058225 5013.590169943749,5002.745139882898 5003.590169943749,5002.745139882897 5006.680339887499,5012.255705045849 4998.590169943749,5006.3778525229245 4995.5,4996.867287359973 5003.59016994375,4990.989434837048 5000.5,5000.499999999999 5010.5,5000.5 5020.5,5000.5 5028.59016994375,4994.6221474770755 5020.5,4988.744294954151 5030.500000000001,4988.744294954151 5038.59016994375,4994.6221474770755 5035.5,5004.132712640027 5032.409830056251,4994.6221474770755 5024.319660112501,5000.5 5016.229490168752,5006.3778525229245 5013.139320225002,5015.888417685876 5023.139320225002,5015.888417685876" stroke="black" stroke-linecap="round" stroke-width="1" /><polyline clip-path="url(#border_clip)" fill="none" points="5023.139320225002,5015.888417685876 5015.049150281252,5021.766270208801 5005.049150281252,5021.766270208801 5001.958980337503,5012.255705045849 5010.049150281252,5018.133557568774 5013.139320225002,5008.6229924058225 5016.229490168752,4999.1124272428715 5013.139320225003,4989.60186207992 5005.049150281253,4995.479714602844 5008.139320225003,4985.969149439892 5016.229490168752,4980.091296916968 5024.319660112502,4985.969149439893 5014.319660112502,4985.969149439892 5017.409830056251,4995.479714602844 5020.5,5004.990279765796 5028.590169943749,5010.868132288721 5031.680339887499,5001.3575671257695 5034.770509831248,5010.868132288721 5031.680339887498,5020.378697451672 5021.680339887498,5020.378697451672 5029.770509831248,5014.500844928748 5021.680339887499,5008.6229924058225 5013.590169943749,5002.745139882898 5003.590169943749,5002.745139882897 5006.680339887498,5012.255705045849 4998.590169943749,5006.3778525229245 4995.5,4996.867287359973 5003.59016994375,4990.989434837048 5000.5,5000.499999999999 5010.5,5000.5 5020.5,5000.5 5028.59016994375,4994.6221474770755 5020.500000000001,4988.74429495415 5030.500000000001,4988.744294954151 5038.59016994375,4994.6221474770755 5035.5,5004.132712640027 5032.409830056251,4994.6221474770755 5024.319660112501,5000.5 5016.229490168752,5006.3778525229245 5013.139320225002,5015.888417685876 5023.139320225002,5015.888417685876 5015.049150281252,5021.766270208801 5005.049150281252,5021.766270208801" stroke="black" stroke-linecap="round" stroke-width="1" /><polyline clip-path="url(#border_clip)" fill="none" points="5005.049150281252,5021.766270208801 5001.958980337503,5012.255705045849 5010.049150281252,5018.133557568774 5013.139320225002,5008.6229924058225 5016.229490168752,4999.112427242871 5013.139320225003,4989.60186207992 5005.049150281253,4995.479714602844 5008.139320225003,4985.969149439892 5016.229490168753,4980.091296916968 5024.319660112502,4985.969149439893 5014.319660112502,4985.969149439892 5017.409830056251,4995.479714602844 5020.5,5004.990279765796 5028.590169943749,5010.868132288721 5031.680339887499,5001.3575671257695 5034.770509831248,5010.868132288721 5031.680339887498,5020.378697451672 5021.680339887498,5020.378697451672 5029.770509831248,5014.500844928748 5021.680339887499,5008.6229924058225 5013.590169943749,5002.745139882898 5003.590169943749,5002.745139882897 5006.680339887498,5012.255705045849 4998.590169943749,5006.377852522924 4995.5,4996.867287359973 5003.59016994375,4990.989434837048 5000.5,5000.499999999999 5010.5,5000.5 5020.5,5000.5 5028.59016994375,4994.6221474770755 5020.500000000001,4988.74429495415 5030.500000000001,4988.744294954151 5038.59016994375,4994.622147477076 5035.5,5004.132712640027 5032.409830056251,4994.6221474770755 5024.319660112501,5000.5 5016.229490168751,5006.3778525229245 5013.139320225002,5015.888417685876 5023.139320225002,5015.888417685876 5015.049150281252,5021.766270208801 5005.049150281252,5021.766270208801 5001.958980337503,5012.255705045849 5010.049150281252,5018.133557568774" stroke="black" stroke-linecap="round" stroke-width="1" /><polyline clip-path="url(#border_clip)" fill="none" points="5010.049150281252,5018.133557568774 5013.139320225002,5008.6229924058225 5016.229490168752,4999.112427242871 5013.139320225003,4989.60186207992 5005.049150281253,4995.479714602844 5008.139320225003,4985.969149439892 5016.229490168753,4980.091296916968 5024.319660112502,4985.969149439893 5014.319660112502,4985.969149439892 5017.409830056251,4995.479714602844 5020.5,5004.990279765796 5028.590169943749,5010.868132288721 5031.680339887499,5001.3575671257695 5034.770509831248,5010.868132288721 5031.680339887498,5020.378697451673 5021.680339887498,5020.378697451672 5029.770509831248,5014.500844928748 5021.680339887499,5008.6229924058225 5013.590169943749,5002.745139882898 5003.590169943749,5002.745139882897 5006.680339887498,5012.255705045849 4998.590169943749,5006.377852522924 4995.5,4996.867287359973 5003.59016994375,4990.989434837048 5000.5,5000.499999999999 5010.5,5000.5 5020.5,5000.5 5028.59016994375,4994.6221474770755 5020.500000000001,4988.74429495415 5030.500000000001,4988.744294954151 5038.59016994375,4994.622147477076 5035.5,5004.132712640027 5032.409830056251,4994.6221474770755 5024.319660112501,5000.5 5016.229490168751,5006.3778525229245 5013.139320225002,5015.888417685876 5023.139320225002,5015.888417685876 5015.049150281252,5021.766270208801 5005.049150281252,5021.766270208801 5001.958980337503,5012.255705045849 5010.049150281252,5018.133557568774 5013.139320225002,5008.6229924058225 5016.229490168752,4999.112427242871" stroke="black" stroke-linecap="round" stroke-width="1" /><polyline clip-path="url(#border_clip)" fill="none" points="5016.229490168752,4999.112427242871 5013.139320225003,4989.60186207992 5005.049150281253,4995.479714602844 5008.139320225003,4985.969149439892 5016.229490168753,4980.091296916968 5024.319660112502,4985.969149439893 5014.319660112502,4985.969149439892 5017.409830056251,4995.479714602844 5020.5,5004.990279765796 5028.590169943749,5010.868132288721 5031.680339887499,5001.3575671257695 5034.770509831248,5010.868132288721 5031.680339887498,5020.378697451673 5021.680339887498,5020.378697451672 5029.770509831248,5014.500844928748 5021.680339887499,5008.6229924058225 5013.590169943749,5002.745139882898 5003.590169943749,5002.745139882897 5006.680339887498,5012.255705045849 4998.590169943749,5006.377852522924 4995.5,4996.867287359972 5003.59016994375,4990.989434837048 5000.5,5000.499999999999 5010.5,5000.5 5020.5,5000.5 5028.59016994375,4994.6221474770755 5020.500000000001,4988.74429495415 5030.500000000001,4988.744294954151 5038.59016994375,4994.622147477076 5035.5,5004.132712640027 5032.409830056251,4994.6221474770755 5024.319660112501,5000.5 5016.229490168751,5006.3778525229245 5013.139320225001,5015.888417685876 5023.139320225002,5015.888417685876 5015.049150281252,5021.766270208801 5005.049150281252,5021.766270208801 5001.958980337503,5012.255705045849 5010.049150281252,5018.133557568774 5013.139320225002,5008.6229924058225 5016.229490168752,4999.112427242871 5013.139320225003,4989.60186207992 5005.049150281253,4995.479714602843" stroke="black" stroke-linecap="round" stroke-width="1" /><polyline clip-path="url(#border_clip)" fill="none" points="5005.049150281253,4995.479714602843 5008.139320225003,4985.969149439892 5016.229490168753,4980.091296916968 5024.319660112502,4985.969149439893 5014.319660112502,4985.969149439892 5017.409830056251,4995.479714602844 5020.5,5004.990279765796 5028.590169943749,5010.868132288721 5031.680339887499,5001.3575671257695 5034.770509831248,5010.868132288721 5031.680339887498,5020.378697451673 5021.680339887498,5020.378697451672 5029.770509831248,5014.500844928748 5021.680339887499,5008.6229924058225 5013.590169943749,5002.745139882898 5003.590169943749,5002.745139882897 5006.680339887498,5012.255705045849 4998.590169943749,5006.377852522924 4995.5,4996.867287359972 5003.59016994375,4990.989434837047 5000.5,5000.499999999999 5010.5,5000.5 5020.5,5000.5 5028.59016994375,4994.6221474770755 5020.500000000001,4988.74429495415 5030.500000000001,4988.744294954151 5038.59016994375,4994.622147477076 5035.5,5004.132712640027 5032.409830056251,4994.622147477076 5024.319660112501,5000.5 5016.229490168751,5006.3778525229245 5013.139320225001,5015.888417685876 5023.139320225002,5015.888417685876 5015.049150281252,5021.766270208801 5005.049150281251,5021.766270208801 5001.958980337502,5012.255705045849 5010.049150281252,5018.133557568774 5013.139320225002,5008.6229924058225 5016.229490168752,4999.112427242871 5013.139320225003,4989.60186207992 5005.049150281253,4995.479714602843 5008.139320225003,4985.969149439892 5016.229490168753,4980.091296916968" stroke="black" stroke-linecap="round" stroke-width="1" /><polyline clip-path="url(#border_clip)" fill="none" points="5016.229490168753,4980.091296916968 5024.319660112502,4985.969149439893 5014.319660112502,4985.969149439892 5017.409830056251,4995.479714602844 5020.5,5004.990279765796 5028.590169943749,5010.868132288721 5031.680339887499,5001.3575671257695 5034.770509831248,5010.868132288721 5031.680339887498,5020.378697451673 5021.680339887498,5020.378697451672 5029.770509831248,5014.500844928748 5021.680339887499,5008.622992405823 5013.590169943749,5002.745139882898 5003.590169943749,5002.745139882897 5006.680339887498,5012.255705045849 4998.590169943749,5006.377852522924 4995.5,4996.867287359972 5003.59016994375,4990.989434837047 5000.5,5000.499999999999 5010.5,5000.5 5020.5,5000.5 5028.59016994375,4994.6221474770755 5020.500000000001,4988.74429495415 5030.500000000001,4988.744294954151 5038.59016994375,4994.622147477076 5035.5,5004.132712640028 5032.409830056251,4994.622147477076 5024.319660112501,5000.5 5016.229490168751,5006.3778525229245 5013.139320225001,5015.888417685876 5023.139320225001,5015.888417685876 5015.049150281251,5021.766270208801 5005.049150281251,5021.766270208801 5001.958980337502,5012.255705045849 5010.049150281252,5018.1335575687735 5013.139320225002,5008.6229924058225 5016.229490168752,4999.112427242871 5013.139320225003,4989.60186207992 5005.049150281253,4995.479714602843 5008.139320225003,4985.969149439892 5016.229490168753,4980.091296916968 5024.319660112502,4985.969149439893 5014.319660112502,4985.969149439892" stroke="black" stroke-linecap="round" stroke-width="1" /><polyline clip-path="url(#border_clip)" fill="none" points="5014.319660112502,4985.969149439892 5017.409830056251,4995.479714602844 5020.5,5004.990279765796 5028.590169943749,5010.868132288721 5031.680339887499,5001.3575671257695 5034.770509831248,5010.868132288721 5031.680339887498,5020.378697451673 5021.680339887498,5020.378697451672 5029.770509831248,5014.500844928748 5021.680339887499,5008.622992405823 5013.590169943749,5002.745139882898 5003.590169943749,5002.745139882897 5006.680339887498,5012.255705045849 4998.590169943749,5006.377852522924 4995.5,4996.867287359972 5003.59016994375,4990.989434837047 5000.5,5000.499999999999 5010.5,5000.499999999999 5020.5,5000.5 5028.59016994375,4994.6221474770755 5020.500000000001,4988.74429495415 5030.500000000001,4988.744294954151 5038.59016994375,4994.622147477076 5035.5,5004.132712640028 5032.409830056251,4994.622147477076 5024.319660112501,5000.5 5016.229490168751,5006.3778525229245 5013.139320225001,5015.888417685876 5023.139320225001,5015.888417685876 5015.049150281251,5021.766270208801 5005.049150281251,5021.766270208801 5001.958980337502,5012.255705045849 5010.049150281252,5018.1335575687735 5013.139320225002,5008.6229924058225 5016.229490168752,4999.112427242871 5013.139320225003,4989.601862079919 5005.049150281253,4995.479714602843 5008.139320225003,4985.969149439892 5016.229490168753,4980.091296916968 5024.319660112502,4985.969149439893 5014.319660112502,4985.969149439892 5017.409830056251,4995.479714602844 5020.5,5004.990279765796" stroke="black" stroke-linecap="round" stroke-width="1" /><polyline clip-path="url(#border_clip)" fill="none" points="5020.5,5004.990279765796 5028.590169943749,5010.868132288721 5031.680339887499,5001.35756712577 5034.770509831248,5010.868132288722 5031.680339887498,5020.378697451673 5021.680339887498,5020.378697451672 5029.770509831248,5014.500844928749 5021.680339887499,5008.622992405823 5013.590169943749,5002.745139882898 5003.590169943749,5002.745139882897 5006.680339887498,5012.255705045849 4998.590169943749,5006.377852522924 4995.5,4996.867287359972 5003.59016994375,4990.989434837047 5000.5,5000.499999999999 5010.5,5000.499999999999 5020.5,5000.5 5028.59016994375,4994.6221474770755 5020.500000000001,4988.74429495415 5030.500000000001,4988.744294954151 5038.590169943751,4994.622147477076 5035.5,5004.132712640028 5032.409830056252,4994.622147477076 5024.319660112501,5000.5 5016.229490168751,5006.3778525229245 5013.139320225001,5015.888417685876 5023.139320225001,5015.888417685877 5015.049150281251,5021.766270208801 5005.049150281251,5021.7662702088 5001.958980337502,5012.255705045848 5010.049150281251,5018.1335575687735 5013.139320225002,5008.6229924058225 5016.229490168752,4999.112427242871 5013.139320225003,4989.601862079919 5005.049150281253,4995.479714602843 5008.139320225003,4985.969149439892 5016.229490168753,4980.091296916968 5024.319660112503,4985.969149439893 5014.319660112502,4985.969149439892 5017.409830056251,4995.479714602844 5020.5,5004.990279765796 5028.590169943749,5010.868132288721 5031.680339887499,5001.35756712577" stroke="black" stroke-linecap="round" stroke-width="1" /><polyline clip-path="url(#border_clip)" fill="none" points="5031.680339887499,5001.35756712577 5034.770509831248,5010.868132288722 5031.680339887498,5020.378697451673 5021.680339887498,5020.378697451672 5029.770509831248,5014.500844928749 5021.680339887499,5008.622992405823 5013.590169943749,5002.745139882898 5003.590169943749,5002.745139882897 5006.680339887498,5012.255705045849 4998.590169943749,5006.377852522924 4995.5,4996.867287359972 5003.59016994375,4990.989434837047 5000.5,5000.499999999999 5010.5,5000.499999999999 5020.5,5000.5 5028.59016994375,4994.6221474770755 5020.500000000001,4988.74429495415 5030.500000000001,4988.744294954151 5038.590169943751,4994.622147477076 5035.5,5004.132712640028 5032.409830056252,4994.622147477076 5024.319660112501,5000.500000000001 5016.229490168751,5006.3778525229245 5013.139320225001,5015.888417685876 5023.139320225001,5015.888417685877 5015.049150281251,5021.766270208801 5005.049150281251,5021.7662702088 5001.958980337502,5012.255705045848 5010.049150281251,5018.1335575687735 5013.139320225002,5008.6229924058225 5016.229490168752,4999.112427242871 5013.139320225003,4989.601862079919 5005.049150281253,4995.479714602843 5008.139320225003,4985.969149439892 5016.229490168754,4980.091296916968 5024.319660112503,4985.969149439893 5014.319660112502,4985.969149439892 5017.409830056251,4995.479714602844 5020.5,5004.990279765796 5028.590169943749,5010.868132288721 5031.680339887499,5001.35756712577 5034.770509831248,5010.868132288722 5031.680339887498,5020.378697451673" stroke="black" stroke-linecap="round" stroke-width="1" /><polyline clip-path="url(#border_clip)" fill="none" points="5031.680339887498,5020.378697451673 5021.680339887498,5020.378697451672 5029.770509831248,5014.500844928749 5021.680339887499,5008.622992405823 5013.590169943749,5002.745139882898 5003.590169943749,5002.745139882897 5006.680339887498,5012.255705045849 4998.590169943749,5006.377852522924 4995.5,4996.867287359972 5003.59016994375,4990.989434837047 5000.5,5000.499999999998 5010.5,5000.499999999999 5020.5,5000.5 5028.59016994375,4994.622147477076 5020.500000000001,4988.74429495415 5030.500000000002,4988.744294954151 5038.590169943751,4994.622147477076 5035.5,5004.132712640028 5032.409830056252,4994.622147477076 5024.319660112501,5000.500000000001 5016.229490168751,5006.3778525229245 5013.139320225001,5015.888417685876 5023.139320225001,5015.888417685877 5015.049150281251,5021.766270208801 5005.049150281251,5021.7662702088 5001.958980337502,5012.255705045848 5010.049150281251,5018.1335575687735 5013.139320225002,5008.6229924058225 5016.229490168752,4999.112427242871 5013.139320225003,4989.601862079919 5005.049150281253,4995.479714602843 5008.139320225003,4985.969149439891 5016.229490168754,4980.091296916968 5024.319660112503,4985.969149439893 5014.319660112503,4985.969149439892 5017.409830056251,4995.479714602844 5020.5,5004.990279765796 5028.590169943749,5010.868132288721 5031.680339887499,5001.35756712577 5034.770509831248,5010.868132288722 5031.680339887498,5020.378697451673 5021.680339887497,5020.378697451672 5029.770509831248,5014.500844928749" stroke="black" stroke-linecap="round" stroke-width="1" /><polyline clip-path="url(#border_clip)" fill="none" points="5029.770509831248,5014.500844928749 5021.680339887499,5008.622992405823 5013.590169943749,5002.745139882898 5003.590169943749,5002.745139882897 5006.680339887498,5012.255705045849 4998.590169943749,5006.377852522924 4995.5,4996.867287359972 5003.59016994375,4990.989434837047 5000.5,5000.499999999998 5010.5,5000.499999999999 5020.5,5000.5 5028.590169943751,4994.622147477076 5020.500000000001,4988.74429495415 5030.500000000002,4988.744294954151 5038.590169943751,4994.622147477077 5035.5,5004.132712640028 5032.409830056252,4994.622147477076 5024.319660112502,5000.500000000001 5016.229490168751,5006.3778525229245 5013.139320225001,5015.888417685876 5023.139320225001,5015.888417685877 5015.049150281251,5021.766270208801 5005.049150281251,5021.7662702088 5001.958980337502,5012.255705045848 5010.049150281251,5018.1335575687735 5013.139320225002,5008.6229924058225 5016.229490168752,4999.112427242871 5013.139320225003,4989.601862079919 5005.049150281253,4995.479714602843 5008.139320225004,4985.969149439891 5016.229490168754,4980.091296916968 5024.319660112503,4985.969149439893 5014.319660112503,4985.969149439892 5017.409830056251,4995.479714602844 5020.5,5004.990279765796 5028.590169943749,5010.868132288721 5031.680339887499,5001.35756712577 5034.770509831248,5010.868132288722 5031.680339887498,5020.378697451673 5021.680339887497,5020.378697451672 5029.770509831248,5014.500844928749 5021.680339887499,5008.622992405823 5013.590169943749,5002.745139882898" stroke="black" stroke-linecap="round" stroke-width="1" /><polyline clip-path="url(#border_clip)" fill="none" points="5013.590169943749,5002.745139882898 5003.590169943749,5002.745139882897 5006.680339887498,5012.255705045849 4998.590169943749,5006.377852522923 4995.5,4996.867287359971 5003.59016994375,4990.989434837047 5000.5,5000.499999999998 5010.5,5000.499999999999 5020.5,5000.5 5028.590169943751,4994.622147477076 5020.500000000002,4988.74429495415 5030.500000000002,4988.744294954151 5038.590169943751,4994.622147477077 5035.5,5004.132712640028 5032.409830056252,4994.622147477076 5024.319660112502,5000.500000000001 5016.229490168751,5006.3778525229245 5013.139320225001,5015.888417685876 5023.139320225001,5015.888417685877 5015.049150281251,5021.766270208801 5005.049150281251,5021.7662702088 5001.958980337502,5012.255705045848 5010.049150281251,5018.1335575687735 5013.139320225002,5008.6229924058225 5016.229490168752,4999.112427242871 5013.139320225003,4989.601862079919 5005.049150281253,4995.479714602843 5008.139320225004,4985.969149439891 5016.229490168754,4980.091296916968 5024.319660112503,4985.969149439893 5014.319660112503,4985.969149439892 5017.409830056251,4995.479714602844 5020.5,5004.990279765796 5028.590169943749,5010.868132288721 5031.680339887499,5001.35756712577 5034.770509831248,5010.868132288722 5031.680339887498,5020.378697451674 5021.680339887497,5020.378697451673 5029.770509831248,5014.500844928749 5021.680339887498,5008.622992405823 5013.590169943749,5002.745139882898 5003.590169943749,5002.745139882896 5006.680339887498,5012.255705045849" stroke="black" stroke-linecap="round" stroke-width="1" /><polyline clip-path="url(#border_clip)" fill="none" points="5006.680339887498,5012.255705045849 4998.590169943749,5006.377852522923 4995.5,4996.867287359971 5003.59016994375,4990.989434837047 5000.5,5000.499999999998 5010.5,5000.499999999999 5020.5,5000.5 5028.590169943751,4994.622147477076 5020.500000000002,4988.74429495415 5030.500000000002,4988.744294954151 5038.590169943751,4994.622147477077 5035.5,5004.132712640028 5032.409830056252,4994.622147477076 5024.319660112502,5000.500000000001 5016.229490168751,5006.3778525229245 5013.139320225001,5015.888417685876 5023.139320225001,5015.888417685877 5015.049150281251,5021.766270208801 5005.04915028125,5021.7662702088 5001.958980337502,5012.255705045848 5010.049150281251,5018.1335575687735 5013.139320225001,5008.6229924058225 5016.229490168752,4999.112427242871 5013.139320225003,4989.601862079919 5005.049150281253,4995.479714602843 5008.139320225004,4985.969149439891 5016.229490168754,4980.091296916968 5024.319660112503,4985.969149439893 5014.319660112503,4985.969149439892 5017.409830056251,4995.479714602844 5020.5,5004.990279765796 5028.590169943749,5010.868132288721 5031.6803398875,5001.35756712577 5034.770509831248,5010.868132288722 5031.680339887497,5020.378697451674 5021.680339887497,5020.378697451673 5029.770509831248,5014.500844928749 5021.680339887498,5008.622992405823 5013.590169943749,5002.745139882897 5003.590169943749,5002.745139882896 5006.680339887498,5012.255705045849 4998.590169943749,5006.377852522923 4995.5,4996.867287359971" stroke="black" stroke-linecap="round" stroke-width="1" /><polyline clip-path="url(#border_clip)" fill="none" points="4995.5,4996.867287359971 5003.59016994375,4990.989434837047 5000.5,5000.499999999998 5010.5,5000.499999999999 5020.5,5000.5 5028.590169943751,4994.622147477076 5020.500000000002,4988.74429495415 5030.500000000002,4988.744294954152 5038.590169943751,4994.622147477077 5035.5,5004.132712640028 5032.409830056252,4994.622147477076 5024.319660112502,5000.500000000001 5016.229490168751,5006.3778525229245 5013.139320225001,5015.888417685876 5023.139320225001,5015.888417685877 5015.049150281251,5021.766270208801 5005.04915028125,5021.7662702088 5001.958980337502,5012.255705045848 5010.049150281251,5018.1335575687735 5013.139320225001,5008.6229924058225 5016.229490168752,4999.112427242871 5013.139320225004,4989.601862079919 5005.049150281253,4995.479714602843 5008.139320225004,4985.969149439891 5016.229490168754,4980.091296916968 5024.319660112503,4985.969149439893 5014.319660112503,4985.969149439892 5017.409830056251,4995.479714602844 5020.5,5004.990279765796 5028.590169943749,5010.868132288722 5031.6803398875,5001.35756712577 5034.770509831248,5010.868132288722 5031.680339887497,5020.378697451674 5021.680339887497,5020.378697451673 5029.770509831247,5014.500844928749 5021.680339887498,5008.622992405823 5013.590169943749,5002.745139882897 5003.590169943749,5002.745139882896 5006.680339887498,5012.255705045849 4998.590169943749,5006.377852522923 4995.5,4996.867287359971 5003.59016994375,4990.989434837046 5000.5,5000.499999999998" stroke="black" stroke-linecap="round" stroke-width="1" /><polyline clip-path="url(#border_clip)" fill="none" points="5000.5,5000.499999999998 5010.5,5000.499999999999 5020.5,5000.5 5028.590169943751,4994.622147477076 5020.500000000002,4988.74429495415 5030.500000000002,4988.744294954152 5038.590169943751,4994.622147477077 5035.5,5004.132712640028 5032.409830056252,4994.622147477076 5024.319660112502,5000.500000000001 5016.229490168751,5006.3778525229245 5013.139320225001,5015.888417685876 5023.139320225001,5015.888417685877 5015.049150281251,5021.766270208801 5005.04915028125,5021.7662702088 5001.958980337502,5012.255705045848 5010.049150281251,5018.1335575687735 5013.139320225001,5008.6229924058225 5016.229490168752,4999.112427242871 5013.139320225004,4989.601862079919 5005.049150281253,4995.479714602843 5008.139320225004,4985.969149439891 5016.229490168754,4980.091296916968 5024.319660112503,4985.969149439893 5014.319660112503,4985.969149439892 5017.409830056251,4995.479714602844 5020.5,5004.990279765796 5028.590169943749,5010.868132288722 5031.6803398875,5001.35756712577 5034.770509831248,5010.868132288722 5031.680339887497,5020.378697451674 5021.680339887497,5020.378697451673 5029.770509831247,5014.500844928749 5021.680339887498,5008.622992405823 5013.590169943749,5002.745139882897 5003.590169943749,5002.745139882896 5006.680339887498,5012.255705045848 4998.590169943748,5006.377852522923 4995.5,4996.867287359971 5003.59016994375,4990.989434837046 5000.5,5000.499999999998 5010.5,5000.499999999999 5020.5,5000.5" stroke="black" stroke-linecap="round" stroke-width="1" /><polyline clip-path="url(#border_clip)" fill="none" points="5020.5,5000.5 5028.590169943751,4994.622147477076 5020.500000000002,4988.74429495415 5030.500000000002,4988.744294954152 5038.590169943751,4994.622147477077 5035.5,5004.132712640029 5032.409830056252,4994.622147477076 5024.319660112502,5000.500000000001 5016.229490168751,5006.3778525229245 5013.139320225001,5015.888417685876 5023.139320225001,5015.888417685877 5015.04915028125,5021.766270208801 5005.04915028125,5021.7662702088 5001.958980337502,5012.255705045848 5010.049150281251,5018.1335575687735 5013.139320225001,5008.6229924058225 5016.229490168752,4999.112427242871 5013.139320225004,4989.601862079919 5005.049150281253,4995.479714602843 5008.139320225004,4985.969149439891 5016.229490168754,4980.091296916968 5024.319660112503,4985.969149439893 5014.319660112503,4985.969149439892 5017.409830056251,4995.479714602844 5020.5,5004.990279765796 5028.590169943749,5010.868132288722 5031.6803398875,5001.35756712577 5034.770509831248,5010.868132288722 5031.680339887497,5020.378697451674 5021.680339887497,5020.378697451673 5029.770509831247,5014.500844928749 5021.680339887498,5008.622992405823 5013.590169943749,5002.745139882897 5003.590169943749,5002.745139882896 5006.680339887497,5012.255705045848 4998.590169943748,5006.377852522923 4995.5,4996.867287359971 5003.590169943751,4990.989434837046 5000.5,5000.499999999998 5010.5,5000.499999999999 5020.5,5000.5 5028.590169943751,4994.622147477076 5020.500000000002,4988.74429495415" stroke="black" stroke-linecap="round" stroke-width="1" /><polyline clip-path="url(#border_clip)" fill="none" points="5020.500000000002,4988.74429495415 5030.500000000002,4988.744294954152 5038.590169943751,4994.622147477077 5035.5,5004.132712640029 5032.409830056252,4994.622147477076 5024.319660112502,5000.500000000001 5016.229490168751,5006.3778525229245 5013.139320225,5015.888417685876 5023.139320225001,5015.888417685877 5015.04915028125,5021.766270208801 5005.04915028125,5021.7662702088 5001.958980337502,5012.255705045848 5010.049150281251,5018.1335575687735 5013.139320225001,5008.6229924058225 5016.229490168752,4999.112427242871 5013.139320225004,4989.601862079919 5005.049150281253,4995.479714602842 5008.139320225004,4985.969149439891 5016.229490168755,4980.091296916968 5024.319660112504,4985.969149439893 5014.319660112503,4985.969149439892 5017.409830056252,4995.479714602844 5020.5,5004.990279765796 5028.590169943749,5010.868132288722 5031.6803398875,5001.35756712577 5034.770509831248,5010.868132288723 5031.680339887497,5020.378697451674 5021.680339887497,5020.378697451673 5029.770509831247,5014.500844928749 5021.680339887498,5008.622992405823 5013.590169943749,5002.745139882897 5003.590169943749,5002.745139882896 5006.680339887497,5012.255705045848 4998.590169943748,5006.377852522923 4995.5,4996.867287359971 5003.590169943751,4990.989434837046 5000.5,5000.499999999998 5010.5,5000.499999999999 5020.5,5000.5 5028.590169943751,4994.622147477076 5020.500000000002,4988.74429495415 5030.500000000002,4988.744294954152 5038.590169943751,4994.622147477077" stroke="black" stroke-linecap="round" stroke-width="1" /><polyline clip-path="url(#border_clip)" fill="none" points="5038.590169943751,4994.622147477077 5035.500000000001,5004.132712640029 5032.409830056252,4994.622147477076 5024.319660112502,5000.500000000001 5016.229490168751,5006.3778525229245 5013.139320225,5015.888417685876 5023.139320225001,5015.888417685877 5015.04915028125,5021.766270208801 5005.04915028125,5021.7662702088 5001.958980337502,5012.255705045848 5010.049150281251,5018.1335575687735 5013.139320225001,5008.6229924058225 5016.229490168752,4999.112427242871 5013.139320225004,4989.601862079919 5005.049150281253,4995.479714602842 5008.139320225004,4985.969149439891 5016.229490168755,4980.091296916967 5024.319660112504,4985.969149439893 5014.319660112503,4985.969149439892 5017.409830056252,4995.479714602844 5020.5,5004.990279765796 5028.590169943749,5010.868132288722 5031.6803398875,5001.35756712577 5034.770509831248,5010.868132288723 5031.680339887497,5020.378697451674 5021.680339887497,5020.378697451673 5029.770509831247,5014.500844928749 5021.680339887498,5008.622992405823 5013.590169943749,5002.745139882897 5003.590169943749,5002.745139882896 5006.680339887497,5012.255705045848 4998.590169943748,5006.377852522923 4995.5,4996.86728735997 5003.590169943751,4990.989434837046 5000.5,5000.499999999998 5010.5,5000.499999999999 5020.5,5000.5 5028.590169943751,4994.622147477076 5020.500000000002,4988.74429495415 5030.500000000002,4988.744294954152 5038.590169943751,4994.622147477077 5035.500000000001,5004.132712640029 5032.409830056252,4994.622147477076" stroke="black" stroke-linecap="round" stroke-width="1" /><polyline clip-path="url(#border_clip)" fill="none" points="5032.409830056252,4994.622147477076 5024.319660112502,5000.500000000001 5016.229490168751,5006.3778525229245 5013.139320225,5015.888417685876 5023.139320225001,5015.888417685877 5015.04915028125,5021.766270208801 5005.04915028125,5021.7662702088 5001.958980337501,5012.255705045848 5010.04915028125,5018.1335575687735 5013.139320225001,5008.6229924058225 5016.229490168752,4999.112427242871 5013.139320225004,4989.601862079919 5005.049150281253,4995.479714602842 5008.139320225004,4985.969149439891 5016.229490168755,4980.091296916967 5024.319660112504,4985.969149439893 5014.319660112503,4985.969149439892 5017.409830056252,4995.479714602844 5020.5,5004.990279765796 5028.590169943749,5010.868132288722 5031.6803398875,5001.35756712577 5034.770509831248,5010.868132288723 5031.680339887497,5020.378697451674 5021.680339887497,5020.378697451673 5029.770509831247,5014.50084492875 5021.680339887498,5008.622992405823 5013.590169943749,5002.745139882897 5003.590169943749,5002.745139882896 5006.680339887497,5012.255705045848 4998.590169943748,5006.377852522923 4995.5,4996.86728735997 5003.590169943751,4990.989434837046 5000.5,5000.499999999998 5010.5,5000.499999999999 5020.500000000001,5000.5 5028.590169943751,4994.622147477076 5020.500000000002,4988.74429495415 5030.500000000003,4988.744294954152 5038.590169943752,4994.622147477077 5035.500000000001,5004.132712640029 5032.409830056252,4994.622147477077 5024.319660112502,5000.500000000001 5016.229490168751,5006.3778525229245" stroke="black" stroke-linecap="round" stroke-width="1" /><polyline clip-path="url(#border_clip)" fill="none" points="5016.229490168751,5006.3778525229245 5013.139320225,5015.888417685876 5023.139320225001,5015.888417685877 5015.04915028125,5021.766270208801 5005.04915028125,5021.7662702088 5001.958980337501,5012.255705045848 5010.04915028125,5018.1335575687735 5013.139320225001,5008.6229924058225 5016.229490168752,4999.112427242871 5013.139320225004,4989.601862079919 5005.049150281253,4995.479714602842 5008.139320225004,4985.969149439891 5016.229490168755,4980.091296916967 5024.319660112504,4985.969149439893 5014.319660112503,4985.969149439892 5017.409830056252,4995.479714602844 5020.5,5004.990279765796 5028.590169943749,5010.868132288722 5031.6803398875,5001.35756712577 5034.770509831248,5010.868132288723 5031.680339887497,5020.378697451674 5021.680339887497,5020.378697451673 5029.770509831247,5014.50084492875 5021.680339887498,5008.622992405823 5013.590169943749,5002.745139882897 5003.590169943749,5002.745139882896 5006.680339887497,5012.255705045848 4998.590169943748,5006.377852522923 4995.5,4996.86728735997 5003.590169943751,4990.989434837046 5000.5,5000.499999999997 5010.5,5000.499999999999 5020.500000000001,5000.5 5028.590169943751,4994.622147477076 5020.500000000002,4988.74429495415 5030.500000000003,4988.744294954152 5038.590169943752,4994.622147477077 5035.500000000001,5004.132712640029 5032.409830056252,4994.622147477077 5024.319660112502,5000.500000000001 5016.229490168751,5006.3778525229245 5013.139320225,5015.888417685876 5023.139320225001,5015.888417685877" stroke="black" stroke-linecap="round" stroke-width="1" /><polyline clip-path="url(#border_clip)" fill="none" points="5023.139320225001,5015.888417685877 5015.04915028125,5021.766270208801 5005.049150281249,5021.7662702088 5001.958980337501,5012.255705045848 5010.04915028125,5018.1335575687735 5013.139320225001,5008.6229924058225 5016.229490168752,4999.112427242871 5013.139320225004,4989.601862079919 5005.049150281253,4995.479714602842 5008.139320225004,4985.969149439891 5016.229490168755,4980.091296916967 5024.319660112504,4985.969149439893 5014.319660112504,4985.969149439892 5017.409830056252,4995.479714602844 5020.5,5004.990279765796 5028.590169943749,5010.868132288722 5031.6803398875,5001.357567125771 5034.770509831248,5010.868132288723 5031.680339887497,5020.378697451674 5021.680339887497,5020.378697451673 5029.770509831247,5014.50084492875 5021.680339887498,5008.622992405823 5013.590169943749,5002.745139882897 5003.590169943749,5002.745139882896 5006.680339887497,5012.255705045848 4998.590169943748,5006.377852522923 4995.5,4996.86728735997 5003.590169943751,4990.989434837046 5000.5,5000.499999999997 5010.5,5000.499999999999 5020.500000000001,5000.5 5028.590169943751,4994.622147477076 5020.500000000002,4988.74429495415 5030.500000000003,4988.744294954152 5038.590169943752,4994.622147477078 5035.500000000001,5004.132712640029 5032.409830056252,4994.622147477077 5024.319660112502,5000.500000000001 5016.229490168751,5006.3778525229245 5013.139320225,5015.888417685876 5023.139320225,5015.888417685877 5015.04915028125,5021.766270208801 5005.049150281249,5021.7662702088" stroke="black" stroke-linecap="round" stroke-width="1" /><polyline clip-path="url(#border_clip)" fill="none" points="5005.049150281249,5021.7662702088 5001.958980337501,5012.255705045847 5010.04915028125,5018.1335575687735 5013.139320225001,5008.6229924058225 5016.229490168752,4999.112427242871 5013.139320225004,4989.601862079919 5005.049150281253,4995.479714602842 5008.139320225004,4985.969149439891 5016.229490168755,4980.091296916967 5024.319660112504,4985.969149439893 5014.319660112504,4985.969149439891 5017.409830056252,4995.479714602844 5020.5,5004.990279765796 5028.590169943749,5010.868132288722 5031.6803398875,5001.357567125771 5034.770509831248,5010.868132288723 5031.680339887497,5020.378697451675 5021.680339887496,5020.378697451673 5029.770509831247,5014.50084492875 5021.680339887498,5008.622992405823 5013.590169943749,5002.745139882897 5003.590169943749,5002.745139882896 5006.680339887497,5012.255705045848 4998.590169943748,5006.377852522922 4995.5,4996.86728735997 5003.590169943751,4990.989434837046 5000.5,5000.499999999997 5010.5,5000.499999999999 5020.500000000001,5000.5 5028.590169943751,4994.622147477076 5020.500000000002,4988.74429495415 5030.500000000003,4988.744294954152 5038.590169943752,4994.622147477078 5035.500000000001,5004.132712640029 5032.409830056253,4994.622147477077 5024.319660112502,5000.500000000001 5016.229490168751,5006.3778525229245 5013.139320225,5015.888417685876 5023.139320225,5015.888417685877 5015.04915028125,5021.766270208801 5005.049150281249,5021.7662702088 5001.958980337501,5012.255705045847 5010.04915028125,5018.1335575687735" stroke="black" stroke-linecap="round" stroke-width="1" /><polyline clip-path="url(#border_clip)" fill="none" points="5010.04915028125,5018.1335575687735 5013.139320225001,5008.6229924058225 5016.229490168752,4999.112427242871 5013.139320225004,4989.601862079919 5005.049150281253,4995.479714602842 5008.139320225005,4985.96914943989 5016.229490168755,4980.091296916967 5024.319660112504,4985.969149439893 5014.319660112504,4985.969149439891 5017.409830056252,4995.479714602844 5020.5,5004.990279765796 5028.590169943749,5010.868132288722 5031.6803398875,5001.357567125771 5034.770509831248,5010.868132288723 5031.680339887497,5020.378697451675 5021.680339887496,5020.378697451673 5029.770509831247,5014.50084492875 5021.680339887498,5008.622992405823 5013.590169943749,5002.745139882897 5003.590169943749,5002.745139882896 5006.680339887497,5012.255705045848 4998.590169943748,5006.377852522922 4995.5,4996.86728735997 5003.590169943751,4990.989434837046 5000.5,5000.499999999997 5010.5,5000.499999999999 5020.500000000001,5000.5 5028.590169943751,4994.622147477076 5020.500000000002,4988.74429495415 5030.500000000003,4988.744294954152 5038.590169943752,4994.622147477078 5035.500000000001,5004.132712640029 5032.409830056253,4994.622147477077 5024.319660112502,5000.500000000001 5016.229490168751,5006.3778525229245 5013.139320225,5015.888417685876 5023.139320225,5015.888417685877 5015.04915028125,5021.766270208801 5005.049150281249,5021.7662702088 5001.958980337501,5012.255705045847 5010.04915028125,5018.1335575687735 5013.139320225001,5008.6229924058225 5016.229490168752,4999.112427242871" stroke="black" stroke-linecap="round" stroke-width="1" /><polyline clip-path="url(#border_clip)" fill="none" points="5016.229490168752,4999.112427242871 5013.139320225004,4989.601862079919 5005.049150281253,4995.479714602842 5008.139320225005,4985.96914943989 5016.229490168755,4980.091296916967 5024.319660112504,4985.969149439893 5014.319660112504,4985.969149439891 5017.409830056252,4995.479714602844 5020.5,5004.990279765796 5028.590169943749,5010.868132288722 5031.6803398875,5001.357567125771 5034.770509831248,5010.868132288723 5031.680339887497,5020.378697451675 5021.680339887496,5020.378697451673 5029.770509831247,5014.50084492875 5021.680339887498,5008.622992405823 5013.590169943749,5002.745139882897 5003.590169943749,5002.745139882896 5006.680339887497,5012.255705045848 4998.590169943748,5006.377852522922 4995.5,4996.86728735997 5003.590169943751,4990.989434837046 5000.5,5000.499999999997 5010.5,5000.499999999999 5020.500000000001,5000.5 5028.590169943751,4994.622147477076 5020.500000000003,4988.74429495415 5030.500000000003,4988.744294954152 5038.590169943752,4994.622147477078 5035.500000000001,5004.132712640029 5032.409830056253,4994.622147477077 5024.319660112502,5000.500000000001 5016.229490168751,5006.3778525229245 5013.139320225,5015.888417685876 5023.139320225,5015.888417685877 5015.049150281249,5021.766270208801 5005.049150281249,5021.7662702088 5001.958980337501,5012.255705045847 5010.04915028125,5018.1335575687735 5013.139320225001,5008.6229924058225 5016.229490168752,4999.112427242871 5013.139320225004,4989.601862079919 5005.049150281253,4995.479714602842" stroke="black" stroke-linecap="round" stroke-width="1" /><polyline clip-path="url(#border_clip)" fill="none" points="5005.049150281253,4995.479714602842 5008.139320225005,4985.96914943989 5016.229490168756,4980.091296916967 5024.319660112504,4985.969149439893 5014.319660112504,4985.969149439891 5017.409830056252,4995.479714602844 5020.5,5004.990279765796 5028.590169943749,5010.868132288722 5031.6803398875,5001.357567125771 5034.770509831248,5010.868132288723 5031.680339887497,5020.378697451675 5021.680339887496,5020.378697451673 5029.770509831247,5014.50084492875 5021.680339887498,5008.622992405823 5013.590169943749,5002.745139882897 5003.590169943749,5002.745139882895 5006.680339887497,5012.255705045848 4998.590169943748,5006.377852522922 4995.5,4996.86728735997 5003.590169943751,4990.989434837045 5000.5,5000.499999999997 5010.5,5000.499999999999 5020.500000000001,5000.5 5028.590169943751,4994.622147477076 5020.500000000003,4988.74429495415 5030.500000000003,4988.744294954152 5038.590169943752,4994.622147477078 5035.500000000001,5004.132712640029 5032.409830056253,4994.622147477077 5024.319660112502,5000.500000000001 5016.229490168751,5006.3778525229245 5013.139320225,5015.888417685876 5023.139320225,5015.888417685877 5015.049150281249,5021.766270208802 5005.049150281249,5021.7662702088 5001.958980337501,5012.255705045847 5010.04915028125,5018.1335575687735 5013.139320225001,5008.6229924058225 5016.229490168752,4999.112427242871 5013.139320225004,4989.601862079919 5005.049150281253,4995.479714602842 5008.139320225005,4985.96914943989 5016.229490168756,4980.091296916967" stroke="black" stroke-linecap="round" stroke-width="1" /><polyline clip-path="url(#border_clip)" fill="none" points="5016.229490168756,4980.091296916967 5024.319660112504,4985.969149439893 5014.319660112504,4985.969149439891 5017.409830056252,4995.479714602844 5020.5,5004.990279765796 5028.590169943749,5010.868132288722 5031.6803398875,5001.357567125771 5034.770509831248,5010.868132288724 5031.680339887497,5020.378697451675 5021.680339887496,5020.378697451673 5029.770509831247,5014.50084492875 5021.680339887498,5008.622992405823 5013.590169943749,5002.745139882897 5003.590169943749,5002.745139882895 5006.680339887497,5012.255705045848 4998.590169943748,5006.377852522922 4995.5,4996.867287359969 5003.590169943751,4990.989434837045 5000.5,5000.499999999997 5010.5,5000.499999999999 5020.500000000001,5000.5 5028.590169943752,4994.622147477076 5020.500000000003,4988.74429495415 5030.500000000003,4988.744294954152 5038.590169943752,4994.622147477078 5035.500000000001,5004.13271264003 5032.409830056253,4994.622147477077 5024.319660112502,5000.500000000001 5016.229490168751,5006.3778525229245 5013.139320225,5015.888417685876 5023.139320225,5015.888417685877 5015.049150281249,5021.766270208802 5005.049150281249,5021.7662702088 5001.958980337501,5012.255705045847 5010.04915028125,5018.1335575687735 5013.139320225001,5008.6229924058225 5016.229490168752,4999.112427242871 5013.139320225004,4989.601862079919 5005.049150281253,4995.479714602842 5008.139320225005,4985.96914943989 5016.229490168756,4980.091296916967 5024.319660112505,4985.969149439893 5014.319660112504,4985.969149439891" stroke="black" stroke-linecap="round" stroke-width="1" /><polyline clip-path="url(#border_clip)" fill="none" points="5014.319660112504,4985.969149439891 5017.409830056252,4995.479714602844 5020.5,5004.990279765796 5028.590169943749,5010.868132288723 5031.6803398875,5001.357567125771 5034.770509831248,5010.868132288724 5031.680339887496,5020.378697451675 5021.680339887496,5020.378697451673 5029.770509831247,5014.50084492875 5021.680339887498,5008.622992405823 5013.590169943749,5002.745139882897 5003.590169943749,5002.745139882895 5006.680339887497,5012.255705045848 4998.590169943748,5006.377852522922 4995.5,4996.867287359969 5003.590169943751,4990.989434837045 5000.5,5000.499999999997 5010.5,5000.499999999999 5020.500000000001,5000.5 5028.590169943752,4994.622147477076 5020.500000000003,4988.74429495415 5030.500000000003,4988.744294954152 5038.590169943752,4994.622147477078 5035.500000000001,5004.13271264003 5032.409830056253,4994.622147477077 5024.319660112502,5000.500000000001 5016.229490168751,5006.3778525229245 5013.139320225,5015.888417685876 5023.139320225,5015.888417685878 5015.049150281249,5021.766270208802 5005.049150281249,5021.7662702088 5001.958980337501,5012.255705045847 5010.04915028125,5018.1335575687735 5013.139320225001,5008.6229924058225 5016.229490168752,4999.112427242871 5013.139320225004,4989.601862079919 5005.049150281253,4995.479714602842 5008.139320225005,4985.96914943989 5016.229490168756,4980.091296916967 5024.319660112505,4985.969149439893 5014.319660112504,4985.969149439891 5017.409830056252,4995.479714602844 5020.5,5004.990279765797" stroke="black" stroke-linecap="round" stroke-width="1" /><polyline clip-path="url(#border_clip)" fill="none" points="5020.5,5004.990279765797 5028.590169943749,5010.868132288723 5031.6803398875,5001.357567125771 5034.770509831248,5010.868132288724 5031.680339887496,5020.378697451675 5021.680339887496,5020.378697451673 5029.770509831247,5014.50084492875 5021.680339887498,5008.622992405823 5013.590169943749,5002.745139882897 5003.590169943749,5002.745139882895 5006.680339887497,5012.255705045848 4998.590169943748,5006.377852522922 4995.5,4996.867287359969 5003.590169943751,4990.989434837045 5000.5,5000.499999999997 5010.5,5000.499999999999 5020.500000000001,5000.5 5028.590169943752,4994.622147477076 5020.500000000003,4988.74429495415 5030.500000000003,4988.744294954152 5038.590169943752,4994.622147477078 5035.500000000001,5004.13271264003 5032.409830056253,4994.622147477077 5024.319660112502,5000.500000000001 5016.229490168751,5006.3778525229245 5013.139320224999,5015.888417685876 5023.139320225,5015.888417685878 5015.049150281249,5021.766270208802 5005.049150281248,5021.7662702088 5001.958980337501,5012.255705045847 5010.049150281249,5018.1335575687735 5013.139320225001,5008.6229924058225 5016.229490168752,4999.112427242871 5013.139320225005,4989.601862079918 5005.049150281254,4995.479714602841 5008.139320225005,4985.96914943989 5016.229490168756,4980.091296916967 5024.319660112505,4985.969149439893 5014.319660112504,4985.969149439891 5017.409830056252,4995.479714602844 5020.5,5004.990279765797 5028.590169943749,5010.868132288723 5031.6803398875,5001.357567125771" stroke="black" stroke-linecap="round" stroke-width="1" /><polyline clip-path="url(#border_clip)" fill="none" points="5031.6803398875,5001.357567125771 5034.770509831248,5010.868132288724 5031.680339887496,5020.378697451675 5021.680339887496,5020.378697451673 5029.770509831247,5014.50084492875 5021.680339887498,5008.622992405823 5013.590169943749,5002.745139882897 5003.590169943749,5002.745139882895 5006.680339887497,5012.255705045848 4998.590169943748,5006.377852522922 4995.5,4996.867287359969 5003.590169943751,4990.989434837045 5000.5,5000.499999999997" stroke="black" stroke-linecap="round" stroke-width="1" /></svg>