<?xml version="1.0" encoding="UTF-8"?>
<svg width="1e4px" height="1e4px" baseProfile="full" version="1.1" viewBox="4995.5 4980.1 43.09 41.675" xmlns="http://www.w3.org/2000/svg">
<defs>
<clipPath id="a">
<rect width="1e4" height="1e4"/>
</clipPath>
</defs>
<polyline points="5000.5 5000.5 5010.5 5000.5 5020.5 5000.5 5028.6 4994.6 5020.5 4988.7 5030.5 4988.7 5038.6 4994.6 5035.5 5004.1 5032.4 4994.6 5024.3 5000.5 5016.2 5006.4 5013.1 5015.9 5023.1 5015.9 5015 5021.8 5005 5021.8 5002 5012.3 5010 5018.1 5013.1 5008.6 5016.2 4999.1 5013.1 4989.6 5005 4995.5 5008.1 4986 5016.2 4980.1 5024.3 4986 5014.3 4986 5017.4 4995.5 5020.5 5005 5028.6 5010.9 5031.7 5001.4 5034.8 5010.9 5031.7 5020.4 5021.7 5020.4 5029.8 5014.5 5021.7 5008.6 5013.6 5002.7 5003.6 5002.7 5006.7 5012.3 4998.6 5006.4 4995.5 4996.9 5003.6 4991 5000.5 5000.5 5010.5 5000.5 5020.5 5000.5" clip-path="url(#a)" fill="none" stroke="#000" stroke-linecap="round"/>
<polyline points="5020.5 5000.5 5028.6 4994.6 5020.5 4988.7 5030.5 4988.7 5038.6 4994.6 5035.5 5004.1 5032.4 4994.6 5024.3 5000.5 5016.2 5006.4 5013.1 5015.9 5023.1 5015.9 5015 5021.8 5005 5021.8 5002 5012.3 5010 5018.1 5013.1 5008.6 5016.2 4999.1 5013.1 4989.6 5005 4995.5 5008.1 4986 5016.2 4980.1 5024.3 4986 5014.3 4986 5017.4 4995.5 5020.5 5005 5028.6 5010.9 5031.7 5001.4 5034.8 5010.9 5031.7 5020.4 5021.7 5020.4 5029.8 5014.5 5021.7 5008.6 5013.6 5002.7 5003.6 5002.7 5006.7 5012.3 4998.6 5006.4 4995.5 4996.9 5003.6 4991 5000.5 5000.5 5010.5 5000.5 5020.5 5000.5 5028.6 4994.6 5020.5 4988.7" clip-path="url(#a)" fill="none" stroke="#000" stroke-linecap="round"/>
<polyline points="5020.5 4988.7 5030.5 4988.7 5038.6 4994.6 5035.5 5004.1 5032.4 4994.6 5024.3 5000.5 5016.2 5006.4 5013.1 5015.9 5023.1 5015.9 5015 5021.8 5005 5021.8 5002 5012.3 5010 5018.1 5013.1 5008.6 5016.2 4999.1 5013.1 4989.6 5005 4995.5 5008.1 4986 5016.2 4980.1 5024.3 4986 5014.3 4986 5017.4 4995.5 5020.5 5005 5028.6 5010.9 5031.7 5001.4 5034.8 5010.9 5031.7 5020.4 5021.7 5020.4 5029.8 5014.5 5021.7 5008.6 5013.6 5002.7 5003.6 5002.7 5006.7 5012.3 4998.6 5006.4 4995.5 4996.9 5003.6 4991 5000.5 5000.5 5010.5 5000.5 5020.5 5000.5 5028.6 4994.6 5020.5 4988.7 5030.5 4988.7 5038.6 4994.6" clip-path="url(#a)" fill="none" stroke="#000" stroke-linecap="round"/>
<polyline points="5038.6 4994.6 5035.5 5004.1 5032.4 4994.6 5024.3 5000.5 5016.2 5006.4 5013.1 5015.9 5023.1 5015.9 5015 5021.8 5005 5021.8 5002 5012.3 5010 5018.1 5013.1 5008.6 5016.2 4999.1 5013.1 4989.6 5005 4995.5 5008.1 4986 5016.2 4980.1 5024.3 4986 5014.3 4986 5017.4 4995.5 5020.5 5005 5028.6 5010.9 5031.7 5001.4 5034.8 5010.9 5031.7 5020.4 5021.7 5020.4 5029.8 5014.5 5021.7 5008.6 5013.6 5002.7 5003.6 5002.7 5006.7 5012.3 4998.6 5006.4 4995.5 4996.9 5003.6 4991 5000.5 5000.5 5010.5 5000.5 5020.5 5000.5 5028.6 4994.6 5020.5 4988.7 5030.5 4988.7 5038.6 4994.6 5035.5 5004.1 5032.4 4994.6" clip-path="url(#a)" fill="none" stroke="#000" stroke-linecap="round"/>
<polyline points="5032.4 4994.6 5024.3 5000.5 5016.2 5006.4 5013.1 5015.9 5023.1 5015.9 5015 5021.8 5005 5021.8 5002 5012.3 5010 5018.1 5013.1 5008.6 5016.2 4999.1 5013.1 4989.6 5005 4995.5 5008.1 4986 5016.2 4980.1 5024.3 4986 5014.3 4986 5017.4 4995.5 5020.5 5005 5028.6 5010.9 5031.7 5001.4 5034.8 5010.9 5031.7 5020.4 5021.7 5020.4 5029.8 5014.5 5021.7 5008.6 5013.6 5002.7 5003.6 5002.7 5006.7 5012.3 4998.6 5006.4 4995.5 4996.9 5003.6 4991 5000.5 5000.5 5010.5 5000.5 5020.5 5000.5 5028.6 4994.6 5020.5 4988.7 5030.5 4988.7 5038.6 4994.6 5035.5 5004.1 5032.4 4994.6 5024.3 5000.5 5016.2 5006.4" clip-path="url(#a)" fill="none" stroke="#000" stroke-linecap="round"/>
<polyline points="5016.2 5006.4 5013.1 5015.9 5023.1 5015.9 5015 5021.8 5005 5021.8 5002 5012.3 5010 5018.1 5013.1 5008.6 5016.2 4999.1 5013.1 4989.6 5005 4995.5 5008.1 4986 5016.2 4980.1 5024.3 4986 5014.3 4986 5017.4 4995.5 5020.5 5005 5028.6 5010.9 5031.7 5001.4 5034.8 5010.9 5031.7 5020.4 5021.7 5020.4 5029.8 5014.5 5021.7 5008.6 5013.6 5002.7 5003.6 5002.7 5006.7 5012.3 4998.6 5006.4 4995.5 4996.9 5003.6 4991 5000.5 5000.5 5010.5 5000.5 5020.5 5000.5 5028.6 4994.6 5020.5 4988.7 5030.5 4988.7 5038.6 4994.6 5035.5 5004.1 5032.4 4994.6 5024.3 5000.5 5016.2 5006.4 5013.1 5015.9 5023.1 5015.9" clip-path="url(#a)" fill="none" stroke="#000" stroke-linecap="round"/>
<polyline points="5023.1 5015.9 5015 5021.8 5005 5021.8 5002 5012.3 5010 5018.1 5013.1 5008.6 5016.2 4999.1 5013.1 4989.6 5005 4995.5 5008.1 4986 5016.2 4980.1 5024.3 4986 5014.3 4986 5017.4 4995.5 5020.5 5005 5028.6 5010.9 5031.7 5001.4 5034.8 5010.9 5031.7 5020.4 5021.7 5020.4 5029.8 5014.5 5021.7 5008.6 5013.6 5002.7 5003.6 5002.7 5006.7 5012.3 4998.6 5006.4 4995.5 4996.9 5003.6 4991 5000.5 5000.5 5010.5 5000.5 5020.5 5000.5 5028.6 4994.6 5020.5 4988.7 5030.5 4988.7 5038.6 4994.6 5035.5 5004.1 5032.4 4994.6 5024.3 5000.5 5016.2 5006.4 5013.1 5015.9 5023.1 5015.9 5015 5021.8 5005 5021.8" clip-path="url(#a)" fill="none" stroke="#000" stroke-linecap="round"/>
<polyline points="5005 5021.8 5002 5012.3 5010 5018.1 5013.1 5008.6 5016.2 4999.1 5013.1 4989.6 5005 4995.5 5008.1 4986 5016.2 4980.1 5024.3 4986 5014.3 4986 5017.4 4995.5 5020.5 5005 5028.6 5010.9 5031.7 5001.4 5034.8 5010.9 5031.7 5020.4 5021.7 5020.4 5029.8 5014.5 5021.7 5008.6 5013.6 5002.7 5003.6 5002.7 5006.7 5012.3 4998.6 5006.4 4995.5 4996.9 5003.6 4991 5000.5 5000.5 5010.5 5000.5 5020.5 5000.5 5028.6 4994.6 5020.5 4988.7 5030.5 4988.7 5038.6 4994.6 5035.5 5004.1 5032.4 4994.6 5024.3 5000.5 5016.2 5006.4 5013.1 5015.9 5023.1 5015.9 5015 5021.8 5005 5021.8 5002 5012.3 5010 5018.1" clip-path="url(#a)" fill="none" stroke="#000" stroke-linecap="round"/>
<polyline points="5010 5018.1 5013.1 5008.6 5016.2 4999.1 5013.1 4989.6 5005 4995.5 5008.1 4986 5016.2 4980.1 5024.3 4986 5014.3 4986 5017.4 4995.5 5020.5 5005 5028.6 5010.9 5031.7 5001.4 5034.8 5010.9 5031.7 5020.4 5021.7 5020.4 5029.8 5014.5 5021.7 5008.6 5013.6 5002.7 5003.6 5002.7 5006.7 5012.3 4998.6 5006.4 4995.5 4996.9 5003.6 4991 5000.5 5000.5 5010.5 5000.5 5020.5 5000.5 5028.6 4994.6 5020.5 4988.7 5030.5 4988.7 5038.6 4994.6 5035.5 5004.1 5032.4 4994.6 5024.3 5000.5 5016.2 5006.4 5013.1 5015.9 5023.1 5015.9 5015 5021.8 5005 5021.8 5002 5012.3 5010 5018.1 5013.1 5008.6 5016.2 4999.1" clip-path="url(#a)" fill="none" stroke="#000" stroke-linecap="round"/>
<polyline points="5016.2 4999.1 5013.1 4989.6 5005 4995.5 5008.1 4986 5016.2 4980.1 5024.3 4986 5014.3 4986 5017.4 4995.5 5020.5 5005 5028.6 5010.9 5031.7 5001.4 5034.8 5010.9 5031.7 5020.4 5021.7 5020.4 5029.8 5014.5 5021.7 5008.6 5013.6 5002.7 5003.6 5002.7 5006.7 5012.3 4998.6 5006.4 4995.5 4996.9 5003.6 4991 5000.5 5000.5 5010.5 5000.5 5020.5 5000.5 5028.6 4994.6 5020.5 4988.7 5030.5 4988.7 5038.6 4994.6 5035.5 5004.1 5032.4 4994.6 5024.3 5000.5 5016.2 5006.4 5013.1 5015.9 5023.1 5015.9 5015 5021.8 5005 5021.8 5002 5012.3 5010 5018.1 5013.1 5008.6 5016.2 4999.1 5013.1 4989.6 5005 4995.5" clip-path="url(#a)" fill="none" stroke="#000" stroke-linecap="round"/>
<polyline points="5005 4995.5 5008.1 4986 5016.2 4980.1 5024.3 4986 5014.3 4986 5017.4 4995.5 5020.5 5005 5028.6 5010.9 5031.7 5001.4 5034.8 5010.9 5031.7 5020.4 5021.7 5020.4 5029.8 5014.5 5021.7 5008.6 5013.6 5002.7 5003.6 5002.7 5006.7 5012.3 4998.6 5006.4 4995.5 4996.9 5003.6 4991 5000.5 5000.5 5010.5 5000.5 5020.5 5000.5 5028.6 4994.6 5020.5 4988.7 5030.5 4988.7 5038.6 4994.6 5035.5 5004.1 5032.4 4994.6 5024.3 5000.5 5016.2 5006.4 5013.1 5015.9 5023.1 5015.9 5015 5021.8 5005 5021.8 5002 5012.3 5010 5018.1 5013.1 5008.6 5016.2 4999.1 5013.1 4989.6 5005 4995.5 5008.1 4986 5016.2 4980.1" clip-path="url(#a)" fill="none" stroke="#000" stroke-linecap="round"/>
<polyline points="5016.2 4980.1 5024.3 4986 5014.3 4986 5017.4 4995.5 5020.5 5005 5028.6 5010.9 5031.7 5001.4 5034.8 5010.9 5031.7 5020.4 5021.7 5020.4 5029.8 5014.5 5021.7 5008.6 5013.6 5002.7 5003.6 5002.7 5006.7 5012.3 4998.6 5006.4 4995.5 4996.9 5003.6 4991 5000.5 5000.5 5010.5 5000.5 5020.5 5000.5 5028.6 4994.6 5020.5 4988.7 5030.5 4988.7 5038.6 4994.6 5035.5 5004.1 5032.4 4994.6 5024.3 5000.5 5016.2 5006.4 5013.1 5015.9 5023.1 5015.9 5015 5021.8 5005 5021.8 5002 5012.3 5010 5018.1 5013.1 5008.6 5016.2 4999.1 5013.1 4989.6 5005 4995.5 5008.1 4986 5016.2 4980.1 5024.3 4986 5014.3 4986" clip-path="url(#a)" fill="none" stroke="#000" stroke-linecap="round"/>
<polyline points="5014.3 4986 5017.4 4995.5 5020.5 5005 5028.6 5010.9 5031.7 5001.4 5034.8 5010.9 5031.7 5020.4 5021.7 5020.4 5029.8 5014.5 5021.7 5008.6 5013.6 5002.7 5003.6 5002.7 5006.7 5012.3 4998.6 5006.4 4995.5 4996.9 5003.6 4991 5000.5 5000.5 5010.5 5000.5 5020.5 5000.5 5028.6 4994.6 5020.5 4988.7 5030.5 4988.7 5038.6 4994.6 5035.5 5004.1 5032.4 4994.6 5024.3 5000.5 5016.2 5006.4 5013.1 5015.9 5023.1 5015.9 5015 5021.8 5005 5021.8 5002 5012.3 5010 5018.1 5013.1 5008.6 5016.2 4999.1 5013.1 4989.6 5005 4995.5 5008.1 4986 5016.2 4980.1 5024.3 4986 5014.3 4986 5017.4 4995.5 5020.5 5005" clip-path="url(#a)" fill="none" stroke="#000" stroke-linecap="round"/>
<polyline points="5020.5 5005 5028.6 5010.9 5031.7 5001.4 5034.8 5010.9 5031.7 5020.4 5021.7 5020.4 5029.8 5014.5 5021.7 5008.6 5013.6 5002.7 5003.6 5002.7 5006.7 5012.3 4998.6 5006.4 4995.5 4996.9 5003.6 4991 5000.5 5000.5 5010.5 5000.5 5020.5 5000.5 5028.6 4994.6 5020.5 4988.7 5030.5 4988.7 5038.6 4994.6 5035.5 5004.1 5032.4 4994.6 5024.3 5000.5 5016.2 5006.4 5013.1 5015.9 5023.1 5015.9 5015 5021.8 5005 5021.8 5002 5012.3 5010 5018.1 5013.1 5008.6 5016.2 4999.1 5013.1 4989.6 5005 4995.5 5008.1 4986 5016.2 4980.1 5024.3 4986 5014.3 4986 5017.4 4995.5 5020.5 5005 5028.6 5010.9 5031.7 5001.4" clip-path="url(#a)" fill="none" stroke="#000" stroke-linecap="round"/>
<polyline points="5031.7 5001.4 5034.8 5010.9 5031.7 5020.4 5021.7 5020.4 5029.8 5014.5 5021.7 5008.6 5013.6 5002.7 5003.6 5002.7 5006.7 5012.3 4998.6 5006.4 4995.5 4996.9 5003.6 4991 5000.5 5000.5 5010.5 5000.5 5020.5 5000.5 5028.6 4994.6 5020.5 4988.7 5030.5 4988.7 5038.6 4994.6 5035.5 5004.1 5032.4 4994.6 5024.3 5000.5 5016.2 5006.4 5013.1 5015.9 5023.1 5015.9 5015 5021.8 5005 5021.8 5002 5012.3 5010 5018.1 5013.1 5008.6 5016.2 4999.1 5013.1 4989.6 5005 4995.5 5008.1 4986 5016.2 4980.1 5024.3 4986 5014.3 4986 5017.4 4995.5 5020.5 5005 5028.6 5010.9 5031.7 5001.4 5034.8 5010.9 5031.7 5020.4" clip-path="url(#a)" fill="none" stroke="#000" stroke-linecap="round"/>
<polyline points="5031.7 5020.4 5021.7 5020.4 5029.8 5014.5 5021.7 5008.6 5013.6 5002.7 5003.6 5002.7 5006.7 5012.3 4998.6 5006.4 4995.5 4996.9 5003.6 4991 5000.5 5000.5 5010.5 5000.5 5020.5 5000.5 5028.6 4994.6 5020.5 4988.7 5030.5 4988.7 5038.6 4994.6 5035.5 5004.1 5032.4 4994.6 5024.3 5000.5 5016.2 5006.4 5013.1 5015.9 5023.1 5015.9 5015 5021.8 5005 5021.8 5002 5012.3 5010 5018.1 5013.1 5008.6 5016.2 4999.1 5013.1 4989.6 5005 4995.5 5008.1 4986 5016.2 4980.1 5024.3 4986 5014.3 4986 5017.4 4995.5 5020.5 5005 5028.6 5010.9 5031.7 5001.4 5034.8 5010.9 5031.7 5020.4 5021.7 5020.4 5029.8 5014.5" clip-path="url(#a)" fill="none" stroke="#000" stroke-linecap="round"/>
<polyline points="5029.8 5014.5 5021.7 5008.6 5013.6 5002.7 5003.6 5002.7 5006.7 5012.3 4998.6 5006.4 4995.5 4996.9 5003.6 4991 5000.5 5000.5 5010.5 5000.5 5020.5 5000.5 5028.6 4994.6 5020.5 4988.7 5030.5 4988.7 5038.6 4994.6 5035.5 5004.1 5032.4 4994.6 5024.3 5000.5 5016.2 5006.4 5013.1 5015.9 5023.1 5015.9 5015 5021.8 5005 5021.8 5002 5012.3 5010 5018.1 5013.1 5008.6 5016.2 4999.1 5013.1 4989.6 5005 4995.5 5008.1 4986 5016.2 4980.1 5024.3 4986 5014.3 4986 5017.4 4995.5 5020.5 5005 5028.6 5010.9 5031.7 5001.4 5034.8 5010.9 5031.7 5020.4 5021.7 5020.4 5029.8 5014.5 5021.7 5008.6 5013.6 5002.7" clip-path="url(#a)" fill="none" stroke="#000" stroke-linecap="round"/>
<polyline points="5013.6 5002.7 5003.6 5002.7 5006.7 5012.3 4998.6 5006.4 4995.5 4996.9 5003.6 4991 5000.5 5000.5 5010.5 5000.5 5020.5 5000.5 5028.6 4994.6 5020.5 4988.7 5030.5 4988.7 5038.6 4994.6 5035.5 5004.1 5032.4 4994.6 5024.3 5000.5 5016.2 5006.4 5013.1 5015.9 5023.1 5015.9 5015 5021.8 5005 5021.8 5002 5012.3 5010 5018.1 5013.1 5008.6 5016.2 4999.1 5013.1 4989.6 5005 4995.5 5008.1 4986 5016.2 4980.1 5024.3 4986 5014.3 4986 5017.4 4995.5 5020.5 5005 5028.6 5010.9 5031.7 5001.4 5034.8 5010.9 5031.7 5020.4 5021.7 5020.4 5029.8 5014.5 5021.7 5008.6 5013.6 5002.7 5003.6 5002.7 5006.7 5012.3" clip-path="url(#a)" fill="none" stroke="#000" stroke-linecap="round"/>
<polyline points="5006.7 5012.3 4998.6 5006.4 4995.5 4996.9 5003.6 4991 5000.5 5000.5 5010.5 5000.5 5020.5 5000.5 5028.6 4994.6 5020.5 4988.7 5030.5 4988.7 5038.6 4994.6 5035.5 5004.1 5032.4 4994.6 5024.3 5000.5 5016.2 5006.4 5013.1 5015.9 5023.1 5015.9 5015 5021.8 5005 5021.8 5002 5012.3 5010 5018.1 5013.1 5008.6 5016.2 4999.1 5013.1 4989.6 5005 4995.5 5008.1 4986 5016.2 4980.1 5024.3 4986 5014.3 4986 5017.4 4995.5 5020.5 5005 5028.6 5010.9 5031.7 5001.4 5034.8 5010.9 5031.7 5020.4 5021.7 5020.4 5029.8 5014.5 5021.7 5008.6 5013.6 5002.7 5003.6 5002.7 5006.7 5012.3 4998.6 5006.4 4995.5 4996.9" clip-path="url(#a)" fill="none" stroke="#000" stroke-linecap="round"/>
<polyline points="4995.5 4996.9 5003.6 4991 5000.5 5000.5 5010.5 5000.5 5020.5 5000.5 5028.6 4994.6 5020.5 4988.7 5030.5 4988.7 5038.6 4994.6 5035.5 5004.1 5032.4 4994.6 5024.3 5000.5 5016.2 5006.4 5013.1 5015.9 5023.1 5015.9 5015 5021.8 5005 5021.8 5002 5012.3 5010 5018.1 5013.1 5008.6 5016.2 4999.1 5013.1 4989.6 5005 4995.5 5008.1 4986 5016.2 4980.1 5024.3 4986 5014.3 4986 5017.4 4995.5 5020.5 5005 5028.6 5010.9 5031.7 5001.4 5034.8 5010.9 5031.7 5020.4 5021.7 5020.4 5029.8 5014.5 5021.7 5008.6 5013.6 5002.7 5003.6 5002.7 5006.7 5012.3 4998.6 5006.4 4995.5 4996.9 5003.6 4991 5000.5 5000.5" clip-path="url(#a)" fill="none" stroke="#000" stroke-linecap="round"/>
<polyline points="5000.5 5000.5 5010.5 5000.5 5020.5 5000.5 5028.6 4994.6 5020.5 4988.7 5030.5 4988.7 5038.6 4994.6 5035.5 5004.1 5032.4 4994.6 5024.3 5000.5 5016.2 5006.4 5013.1 5015.9 5023.1 5015.9 5015 5021.8 5005 5021.8 5002 5012.3 5010 5018.1 5013.1 5008.6 5016.2 4999.1 5013.1 4989.6 5005 4995.5 5008.1 4986 5016.2 4980.1 5024.3 4986 5014.3 4986 5017.4 4995.5 5020.5 5005 5028.6 5010.9 5031.7 5001.4 5034.8 5010.9 5031.7 5020.4 5021.7 5020.4 5029.8 5014.5 5021.7 5008.6 5013.6 5002.7 5003.6 5002.7 5006.7 5012.3 4998.6 5006.4 4995.5 4996.9 5003.6 4991 5000.5 5000.5 5010.5 5000.5 5020.5 5000.5" clip-path="url(#a)" fill="none" stroke="#000" stroke-linecap="round"/>
<polyline points="5020.5 5000.5 5028.6 4994.6 5020.5 4988.7 5030.5 4988.7 5038.6 4994.6 5035.5 5004.1 5032.4 4994.6 5024.3 5000.5 5016.2 5006.4 5013.1 5015.9 5023.1 5015.9 5015 5021.8 5005 5021.8 5002 5012.3 5010 5018.1 5013.1 5008.6 5016.2 4999.1 5013.1 4989.6 5005 4995.5 5008.1 4986 5016.2 4980.1 5024.3 4986 5014.3 4986 5017.4 4995.5 5020.5 5005 5028.6 5010.9 5031.7 5001.4 5034.8 5010.9 5031.7 5020.4 5021.7 5020.4 5029.8 5014.5 5021.7 5008.6 5013.6 5002.7 5003.6 5002.7 5006.7 5012.3 4998.6 5006.4 4995.5 4996.9 5003.6 4991 5000.5 5000.5 5010.5 5000.5 5020.5 5000.5 5028.6 4994.6 5020.5 4988.7" clip-path="url(#a)" fill="none" stroke="#000" stroke-linecap="round"/>
<polyline points="5020.5 4988.7 5030.5 4988.7 5038.6 4994.6 5035.5 5004.1 5032.4 4994.6 5024.3 5000.5 5016.2 5006.4 5013.1 5015.9 5023.1 5015.9 5015 5021.8 5005 5021.8 5002 5012.3 5010 5018.1 5013.1 5008.6 5016.2 4999.1 5013.1 4989.6 5005 4995.5 5008.1 4986 5016.2 4980.1 5024.3 4986 5014.3 4986 5017.4 4995.5 5020.5 5005 5028.6 5010.9 5031.7 5001.4 5034.8 5010.9 5031.7 5020.4 5021.7 5020.4 5029.8 5014.5 5021.7 5008.6 5013.6 5002.7 5003.6 5002.7 5006.7 5012.3 4998.6 5006.4 4995.5 4996.9 5003.6 4991 5000.5 5000.5 5010.5 5000.5 5020.5 5000.5 5028.6 4994.6 5020.5 4988.7 5030.5 4988.7 5038.6 4994.6" clip-path="url(#a)" fill="none" stroke="#000" stroke-linecap="round"/>
<polyline points="5038.6 4994.6 5035.5 5004.1 5032.4 4994.6 5024.3 5000.5 5016.2 5006.4 5013.1 5015.9 5023.1 5015.9 5015 5021.8 5005 5021.8 5002 5012.3 5010 5018.1 5013.1 5008.6 5016.2 4999.1 5013.1 4989.6 5005 4995.5 5008.1 4986 5016.2 4980.1 5024.3 4986 5014.3 4986 5017.4 4995.5 5020.5 5005 5028.6 5010.9 5031.7 5001.4 5034.8 5010.9 5031.7 5020.4 5021.7 5020.4 5029.8 5014.5 5021.7 5008.6 5013.6 5002.7 5003.6 5002.7 5006.7 5012.3 4998.6 5006.4 4995.5 4996.9 5003.6 4991 5000.5 5000.5 5010.5 5000.5 5020.5 5000.5 5028.6 4994.6 5020.5 4988.7 5030.5 4988.7 5038.6 4994.6 5035.5 5004.1 5032.4 4994.6" clip-path="url(#a)" fill="none" stroke="#000" stroke-linecap="round"/>
<polyline points="5032.4 4994.6 5024.3 5000.5 5016.2 5006.4 5013.1 5015.9 5023.1 5015.9 5015 5021.8 5005 5021.8 5002 5012.3 5010 5018.1 5013.1 5008.6 5016.2 4999.1 5013.1 4989.6 5005 4995.5 5008.1 4986 5016.2 4980.1 5024.3 4986 5014.3 4986 5017.4 4995.5 5020.5 5005 5028.6 5010.9 5031.7 5001.4 5034.8 5010.9 5031.7 5020.4 5021.7 5020.4 5029.8 5014.5 5021.7 5008.6 5013.6 5002.7 5003.6 5002.7 5006.7 5012.3 4998.6 5006.4 4995.5 4996.9 5003.6 4991 5000.5 5000.5 5010.5 5000.5 5020.5 5000.5 5028.6 4994.6 5020.5 4988.7 5030.5 4988.7 5038.6 4994.6 5035.5 5004.1 5032.4 4994.6 5024.3 5000.5 5016.2 5006.4" clip-path="url(#a)" fill="none" stroke="#000" stroke-linecap="round"/>
<polyline points="5016.2 5006.4 5013.1 5015.9 5023.1 5015.9 5015 5021.8 5005 5021.8 5002 5012.3 5010 5018.1 5013.1 5008.6 5016.2 4999.1 5013.1 4989.6 5005 4995.5 5008.1 4986 5016.2 4980.1 5024.3 4986 5014.3 4986 5017.4 4995.5 5020.5 5005 5028.6 5010.9 5031.7 5001.4 5034.8 5010.9 5031.7 5020.4 5021.7 5020.4 5029.8 5014.5 5021.7 5008.6 5013.6 5002.7 5003.6 5002.7 5006.7 5012.3 4998.6 5006.4 4995.5 4996.9 5003.6 4991 5000.5 5000.5 5010.5 5000.5 5020.5 5000.5 5028.6 4994.6 5020.5 4988.7 5030.5 4988.7 5038.6 4994.6 5035.5 5004.1 5032.4 4994.6 5024.3 5000.5 5016.2 5006.4 5013.1 5015.9 5023.1 5015.9" clip-path="url(#a)" fill="none" stroke="#000" stroke-linecap="round"/>
<polyline points="5023.1 5015.9 5015 5021.8 5005 5021.8 5002 5012.3 5010 5018.1 5013.1 5008.6 5016.2 4999.1 5013.1 4989.6 5005 4995.5 5008.1 4986 5016.2 4980.1 5024.3 4986 5014.3 4986 5017.4 4995.5 5020.5 5005 5028.6 5010.9 5031.7 5001.4 5034.8 5010.9 5031.7 5020.4 5021.7 5020.4 5029.8 5014.5 5021.7 5008.6 5013.6 5002.7 5003.6 5002.7 5006.7 5012.3 4998.6 5006.4 4995.5 4996.9 5003.6 4991 5000.5 5000.5 5010.5 5000.5 5020.5 5000.5 5028.6 4994.6 5020.5 4988.7 5030.5 4988.7 5038.6 4994.6 5035.5 5004.1 5032.4 4994.6 5024.3 5000.5 5016.2 5006.4 5013.1 5015.9 5023.1 5015.9 5015 5021.8 5005 5021.8" clip-path="url(#a)" fill="none" stroke="#000" stroke-linecap="round"/>
<polyline points="5005 5021.8 5002 5012.3 5010 5018.1 5013.1 5008.6 5016.2 4999.1 5013.1 4989.6 5005 4995.5 5008.1 4986 5016.2 4980.1 5024.3 4986 5014.3 4986 5017.4 4995.5 5020.5 5005 5028.6 5010.9 5031.7 5001.4 5034.8 5010.9 5031.7 5020.4 5021.7 5020.4 5029.8 5014.5 5021.7 5008.6 5013.6 5002.7 5003.6 5002.7 5006.7 5012.3 4998.6 5006.4 4995.5 4996.9 5003.6 4991 5000.5 5000.5 5010.5 5000.5 5020.5 5000.5 5028.6 4994.6 5020.5 4988.7 5030.5 4988.7 5038.6 4994.6 5035.5 5004.1 5032.4 4994.6 5024.3 5000.5 5016.2 5006.4 5013.1 5015.9 5023.1 5015.9 5015 5021.8 5005 5021.8 5002 5012.3 5010 5018.1" clip-path="url(#a)" fill="none" stroke="#000" stroke-linecap="round"/>
<polyline points="5010 5018.1 5013.1 5008.6 5016.2 4999.1 5013.1 4989.6 5005 4995.5 5008.1 4986 5016.2 4980.1 5024.3 4986 5014.3 4986 5017.4 4995.5 5020.5 5005 5028.6 5010.9 5031.7 5001.4 5034.8 5010.9 5031.7 5020.4 5021.7 5020.4 5029.8 5014.5 5021.7 5008.6 5013.6 5002.7 5003.6 5002.7 5006.7 5012.3 4998.6 5006.4 4995.5 4996.9 5003.6 4991 5000.5 5000.5 5010.5 5000.5 5020.5 5000.5 5028.6 4994.6 5020.5 4988.7 5030.5 4988.7 5038.6 4994.6 5035.5 5004.1 5032.4 4994.6 5024.3 5000.5 5016.2 5006.4 5013.1 5015.9 5023.1 5015.9 5015 5021.8 5005 5021.8 5002 5012.3 5010 5018.1 5013.1 5008.6 5016.2 4999.1" clip-path="url(#a)" fill="none" stroke="#000" stroke-linecap="round"/>
<polyline points="5016.2 4999.1 5013.1 4989.6 5005 4995.5 5008.1 4986 5016.2 4980.1 5024.3 4986 5014.3 4986 5017.4 4995.5 5020.5 5005 5028.6 5010.9 5031.7 5001.4 5034.8 5010.9 5031.7 5020.4 5021.7 5020.4 5029.8 5014.5 5021.7 5008.6 5013.6 5002.7 5003.6 5002.7 5006.7 5012.3 4998.6 5006.4 4995.5 4996.9 5003.6 4991 5000.5 5000.5 5010.5 5000.5 5020.5 5000.5 5028.6 4994.6 5020.5 4988.7 5030.5 4988.7 5038.6 4994.6 5035.5 5004.1 5032.4 4994.6 5024.3 5000.5 5016.2 5006.4 5013.1 5015.9 5023.1 5015.9 5015 5021.8 5005 5021.8 5002 5012.3 5010 5018.1 5013.1 5008.6 5016.2 4999.1 5013.1 4989.6 5005 4995.5" clip-path="url(#a)" fill="none" stroke="#000" stroke-linecap="round"/>
<polyline points="5005 4995.5 5008.1 4986 5016.2 4980.1 5024.3 4986 5014.3 4986 5017.4 4995.5 5020.5 5005 5028.6 5010.9 5031.7 5001.4 5034.8 5010.9 5031.7 5020.4 5021.7 5020.4 5029.8 5014.5 5021.7 5008.6 5013.6 5002.7 5003.6 5002.7 5006.7 5012.3 4998.6 5006.4 4995.5 4996.9 5003.6 4991 5000.5 5000.5 5010.5 5000.5 5020.5 5000.5 5028.6 4994.6 5020.5 4988.7 5030.5 4988.7 5038.6 4994.6 5035.5 5004.1 5032.4 4994.6 5024.3 5000.5 5016.2 5006.4 5013.1 5015.9 5023.1 5015.9 5015 5021.8 5005 5021.8 5002 5012.3 5010 5018.1 5013.1 5008.6 5016.2 4999.1 5013.1 4989.6 5005 4995.5 5008.1 4986 5016.2 4980.1" clip-path="url(#a)" fill="none" stroke="#000" stroke-linecap="round"/>
<polyline points="5016.2 4980.1 5024.3 4986 5014.3 4986 5017.4 4995.5 5020.5 5005 5028.6 5010.9 5031.7 5001.4 5034.8 5010.9 5031.7 5020.4 5021.7 5020.4 5029.8 5014.5 5021.7 5008.6 5013.6 5002.7 5003.6 5002.7 5006.7 5012.3 4998.6 5006.4 4995.5 4996.9 5003.6 4991 5000.5 5000.5 5010.5 5000.5 5020.5 5000.5 5028.6 4994.6 5020.5 4988.7 5030.5 4988.7 5038.6 4994.6 5035.5 5004.1 5032.4 4994.6 5024.3 5000.5 5016.2 5006.4 5013.1 5015.9 5023.1 5015.9 5015 5021.8 5005 5021.8 5002 5012.3 5010 5018.1 5013.1 5008.6 5016.2 4999.1 5013.1 4989.6 5005 4995.5 5008.1 4986 5016.2 4980.1 5024.3 4986 5014.3 4986" clip-path="url(#a)" fill="none" stroke="#000" stroke-linecap="round"/>
<polyline points="5014.3 4986 5017.4 4995.5 5020.5 5005 5028.6 5010.9 5031.7 5001.4 5034.8 5010.9 5031.7 5020.4 5021.7 5020.4 5029.8 5014.5 5021.7 5008.6 5013.6 5002.7 5003.6 5002.7 5006.7 5012.3 4998.6 5006.4 4995.5 4996.9 5003.6 4991 5000.5 5000.5 5010.5 5000.5 5020.5 5000.5 5028.6 4994.6 5020.5 4988.7 5030.5 4988.7 5038.6 4994.6 5035.5 5004.1 5032.4 4994.6 5024.3 5000.5 5016.2 5006.4 5013.1 5015.9 5023.1 5015.9 5015 5021.8 5005 5021.8 5002 5012.3 5010 5018.1 5013.1 5008.6 5016.2 4999.1 5013.1 4989.6 5005 4995.5 5008.1 4986 5016.2 4980.1 5024.3 4986 5014.3 4986 5017.4 4995.5 5020.5 5005" clip-path="url(#a)" fill="none" stroke="#000" stroke-linecap="round"/>
<polyline points="5020.5 5005 5028.6 5010.9 5031.7 5001.4 5034.8 5010.9 5031.7 5020.4 5021.7 5020.4 5029.8 5014.5 5021.7 5008.6 5013.6 5002.7 5003.6 5002.7 5006.7 5012.3 4998.6 5006.4 4995.5 4996.9 5003.6 4991 5000.5 5000.5 5010.5 5000.5 5020.5 5000.5 5028.6 4994.6 5020.5 4988.7 5030.5 4988.7 5038.6 4994.6 5035.5 5004.1 5032.4 4994.6 5024.3 5000.5 5016.2 5006.4 5013.1 5015.9 5023.1 5015.9 5015 5021.8 5005 5021.8 5002 5012.3 5010 5018.1 5013.1 5008.6 5016.2 4999.1 5013.1 4989.6 5005 4995.5 5008.1 4986 5016.2 4980.1 5024.3 4986 5014.3 4986 5017.4 4995.5 5020.5 5005 5028.6 5010.9 5031.7 5001.4" clip-path="url(#a)" fill="none" stroke="#000" stroke-linecap="round"/>
<polyline points="5031.7 5001.4 5034.8 5010.9 5031.7 5020.4 5021.7 5020.4 5029.8 5014.5 5021.7 5008.6 5013.6 5002.7 5003.6 5002.7 5006.7 5012.3 4998.6 5006.4 4995.5 4996.9 5003.6 4991 5000.5 5000.5" clip-path="url(#a)" fill="none" stroke="#000" stroke-linecap="round"/>
</svg>
