<?xml version="1.0" encoding="utf-8" ?>
<svg baseProfile="full" height="1000px" version="1.1" width="1000px" xmlns="http://www.w3.org/2000/svg" xmlns:ev="http://www.w3.org/2001/xml-events" xmlns:xlink="http://www.w3.org/1999/xlink"><defs><clipPath id="border_clip"><rect height="1000" width="1000" x="0" y="0" /></clipPath></defs><polyline clip-path="url(#border_clip)" fill="none" points="500.5,500.5 510.5,500.5 518.5901699437495,494.62214747707526 515.5,485.1115823141237 523.5901699437495,490.98943483704846 515.5,485.1115823141237 518.5901699437495,475.6010171511722 510.5,469.72316462824745 502.40983005625054,475.6010171511722 499.3196601125011,466.09045198822065 507.40983005625054,460.2125994652959 497.40983005625054,460.2125994652959 494.3196601125011,450.7020343023444 486.2294901687516,444.82418177941963 478.13932022500217,438.9463292564949 468.13932022500217,438.9463292564949 465.04915028125265,448.4568944194464 461.9589803375032,438.9463292564949 465.04915028125265,448.45689441944637 456.9589803375032,454.3347469423711 460.04915028125265,463.84531210532265 470.04915028125265,463.84531210532265 466.95898033750314,473.3558772682742 456.95898033750314,473.3558772682742 465.0491502812526,479.2337297911989 461.95898033750314,488.74429495415046 465.04915028125254,498.254860117102 468.139320225002,507.76542528005353 476.22949016875145,513.6432778029783 484.31966011250097,507.7654252800536 481.22949016875145,517.2759904430051 484.31966011250097,507.7654252800536 494.31966011250097,507.7654252800536 497.4098300562505,498.25486011710206 489.319660112501,492.3770075941773 497.4098300562505,486.49915507125263 505.49999999999994,492.37700759417737 502.4098300562505,482.86644243122583 510.5,476.98858990830115 513.5901699437495,467.4780247453496 516.680339887499,457.9674595823981 513.5901699437496,448.45689441944654 503.5901699437496,448.4568944194465" stroke="black" stroke-linecap="round" stroke-width="1" /><polyline clip-path="url(#border_clip)" fill="none" points="503.5901699437496,448.4568944194465 511.6803398874991,442.5790418965218 503.5901699437496,448.4568944194465 495.50000000000017,442.57904189652174 487.40983005625066,448.4568944194464 490.50000000000006,457.96745958239796 480.50000000000006,457.96745958239796 477.40983005625066,448.45689441944637 474.31966011250114,457.9674595823979 464.31966011250114,457.96745958239785 456.2294901687516,463.84531210532253 448.1393202250021,469.7231646282472 445.0491502812526,479.23372979119875 453.13932022500205,485.11158231412355 443.13932022500205,485.1115823141235 453.13932022500205,485.11158231412355 456.22949016875145,494.6221474770751 466.22949016875145,494.62214747707515 469.31966011250097,485.1115823141236 477.4098300562504,490.9894348370484 474.3196601125009,500.49999999999994 482.4098300562504,494.62214747707526 490.49999999999983,500.50000000000006 500.49999999999983,500.5000000000001 510.4999999999999,500.50000000000017 518.5901699437494,494.6221474770755 515.5,485.11158231412395 523.5901699437494,490.9894348370487 515.5,485.11158231412395 518.5901699437495,475.6010171511724 510.50000000000006,469.7231646282476 502.40983005625054,475.6010171511723 499.31966011250114,466.0904519882207 507.40983005625066,460.2125994652961 497.40983005625066,460.21259946529597 494.31966011250125,450.70203430234443 486.22949016875185,444.82418177941963 478.1393202250024,438.94632925649483 468.1393202250024,438.9463292564948 465.0491502812528,448.45689441944626 461.9589803375034,438.94632925649466 465.0491502812528,448.45689441944626 456.9589803375033,454.33474694237094" stroke="black" stroke-linecap="round" stroke-width="1" /><polyline clip-path="url(#border_clip)" fill="none" points="456.9589803375033,454.33474694237094 460.0491502812527,463.8453121053225 470.0491502812527,463.8453121053226 466.95898033750314,473.35587726827407 456.95898033750314,473.355877268274 465.04915028125254,479.2337297911988 461.958980337503,488.74429495415035 465.04915028125237,498.2548601171019 468.13932022500177,507.7654252800535 476.2294901687512,513.6432778029782 484.31966011250074,507.7654252800536 481.22949016875117,517.2759904430052 484.31966011250074,507.7654252800536 494.31966011250074,507.7654252800537 497.4098300562503,498.2548601171022 489.3196601125009,492.37700759417737 497.4098300562504,486.49915507125274 505.49999999999983,492.37700759417754 502.4098300562505,482.866442431226 510.5,476.9885899083013 513.5901699437496,467.47802474534984 516.6803398874991,457.9674595823983 513.5901699437497,448.45689441944677 503.5901699437498,448.45689441944666 511.6803398874993,442.57904189652197 503.5901699437498,448.45689441944666 495.5000000000004,442.5790418965218 487.4098300562508,448.4568944194465 490.50000000000017,457.967459582398 480.50000000000017,457.9674595823979 477.4098300562508,448.45689441944637 474.31966011250125,457.96745958239785 464.31966011250125,457.96745958239774 456.2294901687517,463.84531210532236 448.13932022500217,469.723164628247 445.04915028125254,479.2337297911985 453.139320225002,485.1115823141233 443.13932022500194,485.1115823141232 453.139320225002,485.1115823141233 456.22949016875134,494.6221474770749 466.22949016875134,494.62214747707503 469.3196601125009,485.11158231412355 477.40983005625037,490.9894348370484" stroke="black" stroke-linecap="round" stroke-width="1" /><polyline clip-path="url(#border_clip)" fill="none" points="477.40983005625037,490.9894348370484 474.31966011250074,500.4999999999999 482.4098300562503,494.62214747707526 490.4999999999997,500.5000000000001 500.4999999999997,500.5000000000002 510.4999999999997,500.50000000000034 518.5901699437493,494.6221474770757 515.4999999999999,485.1115823141241 523.5901699437493,490.989434837049 515.4999999999999,485.1115823141241 518.5901699437495,475.60101715117264 510.5000000000001,469.7231646282478 502.4098300562506,475.6010171511724 499.31966011250125,466.0904519882208 507.40983005625077,460.2125994652962 497.40983005625077,460.2125994652961 494.3196601125014,450.7020343023445 486.229490168752,444.82418177941963 478.1393202250026,438.9463292564948 468.1393202250026,438.9463292564946 465.049150281253,448.45689441944614 461.9589803375037,438.94632925649455 465.049150281253,448.45689441944614 456.9589803375035,454.3347469423707 460.04915028125276,463.8453121053223 470.04915028125276,463.8453121053225 466.9589803375032,473.35587726827396 456.95898033750314,473.35587726827384 465.04915028125254,479.2337297911987 461.9589803375029,488.7442949541502 465.04915028125225,498.25486011710177 468.1393202250016,507.76542528005336 476.22949016875094,513.6432778029782 484.3196601125005,507.76542528005365 481.2294901687509,517.2759904430052 484.3196601125005,507.76542528005365 494.31966011250057,507.7654252800538 497.4098300562502,498.2548601171023 489.3196601125008,492.3770075941774 497.40983005625037,486.4991550712528 505.4999999999998,492.3770075941777 502.4098300562505,482.8664424312261 510.50000000000006,476.9885899083015" stroke="black" stroke-linecap="round" stroke-width="1" /><polyline clip-path="url(#border_clip)" fill="none" points="510.50000000000006,476.9885899083015 513.5901699437497,467.47802474535 516.6803398874994,457.96745958239853 513.5901699437501,448.4568944194469 503.59016994375,448.4568944194467 511.6803398874996,442.57904189652214 503.59016994375,448.4568944194467 495.5000000000006,442.57904189652186 487.40983005625105,448.4568944194464 490.50000000000034,457.967459582398 480.50000000000034,457.96745958239785 477.40983005625105,448.45689441944626 474.31966011250137,457.96745958239774 464.31966011250137,457.96745958239757 456.2294901687518,463.84531210532214 448.13932022500217,469.7231646282467 445.04915028125254,479.23372979119824 453.1393202250019,485.1115823141231 443.1393202250019,485.1115823141229 453.1393202250019,485.1115823141231 456.22949016875117,494.6221474770747 466.22949016875117,494.6221474770749 469.31966011250086,485.11158231412344 477.4098300562502,490.9894348370483 474.31966011250057,500.49999999999983 482.40983005625014,494.6221474770752 490.49999999999955,500.5000000000001 500.49999999999955,500.50000000000034 510.49999999999955,500.5000000000005 518.5901699437492,494.62214747707594 515.4999999999999,485.11158231412435 523.5901699437493,490.98943483704926 515.4999999999999,485.11158231412435 518.5901699437495,475.60101715117287 510.50000000000017,469.72316462824796 502.4098300562506,475.6010171511725 499.3196601125013,466.09045198822093 507.40983005625094,460.2125994652963 497.4098300562509,460.21259946529614 494.31966011250165,450.7020343023445 486.22949016875225,444.8241817794196 478.1393202250029,438.94632925649466 468.1393202250029,438.94632925649444" stroke="black" stroke-linecap="round" stroke-width="1" /><polyline clip-path="url(#border_clip)" fill="none" points="468.1393202250029,438.94632925649444 465.0491502812532,448.4568944194459 461.95898033750393,438.9463292564943 465.0491502812532,448.4568944194459 456.9589803375036,454.3347469423705 460.0491502812529,463.84531210532214 470.0491502812529,463.84531210532236 466.9589803375032,473.35587726827384 456.95898033750314,473.3558772682736 465.04915028125254,479.2337297911985 461.9589803375028,488.74429495415 465.0491502812521,498.2548601171016 468.13932022500137,507.76542528005325 476.2294901687507,513.6432778029782 484.3196601125003,507.7654252800536 481.2294901687506,517.2759904430051 484.3196601125003,507.7654252800536 494.31966011250034,507.7654252800538 497.40983005625003,498.2548601171024 489.3196601125007,492.3770075941774 497.4098300562503,486.4991550712529 505.49999999999966,492.3770075941778 502.4098300562504,482.8664424312262 510.50000000000006,476.98858990830166 513.5901699437497,467.4780247453502 516.6803398874995,457.9674595823987 513.5901699437502,448.45689441944705 503.5901699437502,448.4568944194468 511.6803398874998,442.5790418965223 503.5901699437502,448.4568944194468 495.50000000000085,442.5790418965219 487.4098300562512,448.4568944194464 490.50000000000045,457.9674595823981 480.50000000000045,457.9674595823978 477.4098300562512,448.4568944194462 474.3196601125015,457.9674595823977 464.3196601125015,457.9674595823974 456.2294901687518,463.8453121053219 448.13932022500217,469.7231646282465 445.0491502812525,479.23372979119796 453.1393202250018,485.11158231412287 443.13932022500177,485.11158231412264 453.1393202250018,485.11158231412287" stroke="black" stroke-linecap="round" stroke-width="1" /><polyline clip-path="url(#border_clip)" fill="none" points="453.1393202250018,485.11158231412287 456.229490168751,494.6221474770745 466.22949016875106,494.6221474770748 469.31966011250074,485.1115823141233 477.4098300562501,490.9894348370483 474.3196601125004,500.4999999999997 482.40983005625003,494.6221474770752 490.4999999999994,500.50000000000017 500.4999999999994,500.50000000000045 510.4999999999994,500.5000000000007 518.5901699437491,494.62214747707617 515.4999999999998,485.1115823141245 523.5901699437492,490.9894348370495 515.4999999999998,485.1115823141245 518.5901699437495,475.60101715117304 510.5000000000002,469.7231646282481 502.4098300562506,475.60101715117264 499.31966011250137,466.090451988221 507.409830056251,460.2125994652965 497.409830056251,460.2125994652962 494.31966011250177,450.70203430234454 486.2294901687524,444.8241817794196 478.1393202250031,438.9463292564946 468.1393202250031,438.9463292564943 465.04915028125333,448.4568944194458 461.9589803375041,438.94632925649415 465.04915028125333,448.4568944194458 456.9589803375037,454.3347469423703 460.0491502812529,463.84531210532197 470.04915028125293,463.84531210532225 466.95898033750314,473.35587726827373 456.95898033750314,473.35587726827345 465.0491502812525,479.2337297911984 461.9589803375027,488.7442949541499 465.0491502812519,498.2548601171015 468.13932022500114,507.76542528005314 476.22949016875043,513.6432778029781 484.3196601125001,507.76542528005365 481.2294901687503,517.2759904430051 484.3196601125001,507.76542528005365 494.3196601125001,507.76542528005393 497.4098300562499,498.25486011710245 489.31966011250057,492.3770075941775" stroke="black" stroke-linecap="round" stroke-width="1" /><polyline clip-path="url(#border_clip)" fill="none" points="489.31966011250057,492.3770075941775 497.40983005625026,486.49915507125297 505.49999999999955,492.37700759417794 502.40983005625037,482.8664424312263 510.5,476.98858990830183 513.5901699437497,467.47802474535035 516.6803398874996,457.9674595823989 513.5901699437504,448.4568944194472 503.59016994375037,448.45689441944694 511.6803398875,442.5790418965224 503.59016994375037,448.45689441944694 495.500000000001,442.57904189652197 487.4098300562514,448.4568944194464 490.50000000000057,457.9674595823981 480.50000000000057,457.96745958239774 477.40983005625134,448.45689441944614 474.3196601125016,457.96745958239757 464.31966011250154,457.9674595823973 456.2294901687519,463.84531210532174 448.1393202250022,469.7231646282462 445.0491502812524,479.2337297911977 453.1393202250017,485.1115823141227 443.1393202250017,485.11158231412236 453.1393202250017,485.1115823141227 456.2294901687509,494.62214747707435 466.2294901687509,494.62214747707463 469.3196601125007,485.1115823141232 477.40983005625,490.9894348370482 474.31966011250023,500.49999999999966 482.4098300562499,494.6221474770752 490.4999999999992,500.50000000000017 500.4999999999992,500.5000000000005 510.4999999999992,500.50000000000085 518.590169943749,494.62214747707634 515.4999999999998,485.1115823141247 523.5901699437491,490.9894348370497 515.4999999999998,485.1115823141247 518.5901699437495,475.60101715117327 510.5000000000002,469.72316462824824 502.40983005625054,475.6010171511727 499.3196601125014,466.09045198822105 507.40983005625105,460.2125994652966 497.40983005625105,460.21259946529625" stroke="black" stroke-linecap="round" stroke-width="1" /><polyline clip-path="url(#border_clip)" fill="none" points="497.40983005625105,460.21259946529625 494.31966011250194,450.7020343023446 486.22949016875265,444.8241817794196 478.13932022500336,438.94632925649455 468.1393202250033,438.9463292564942 465.0491502812535,448.4568944194457 461.9589803375044,438.946329256494 465.0491502812535,448.4568944194457 456.9589803375038,454.3347469423701 460.049150281253,463.8453121053218 470.049150281253,463.84531210532214 466.9589803375032,473.35587726827356 456.9589803375032,473.3558772682732 465.0491502812524,479.23372979119824 461.9589803375026,488.74429495414967 465.0491502812518,498.2548601171013 468.1393202250009,507.76542528005297 476.2294901687502,513.643277802978 484.3196601124999,507.76542528005353 481.2294901687501,517.275990443005 484.3196601124999,507.76542528005353 494.3196601124999,507.76542528005393 497.40983005624975,498.25486011710245 489.31966011250046,492.3770075941774 497.40983005625014,486.49915507125297 505.49999999999943,492.37700759417805 502.4098300562503,482.86644243122635 510.5,476.98858990830195 513.5901699437499,467.47802474535047 516.6803398874996,457.96745958239904 513.5901699437505,448.4568944194474 503.5901699437505,448.45689441944705 511.6803398875002,442.5790418965226 503.5901699437505,448.45689441944705 495.50000000000125,442.57904189652197 487.4098300562515,448.4568944194464 490.5000000000007,457.9674595823981 480.5000000000006,457.96745958239774 477.4098300562515,448.45689441944603 474.3196601125017,457.9674595823975 464.31966011250165,457.9674595823971 456.22949016875197,463.84531210532157 448.1393202250023,469.72316462824597" stroke="black" stroke-linecap="round" stroke-width="1" /><polyline clip-path="url(#border_clip)" fill="none" points="448.1393202250023,469.72316462824597 445.0491502812524,479.2337297911974 453.13932022500165,485.1115823141225 443.13932022500165,485.1115823141221 453.13932022500165,485.1115823141225 456.2294901687508,494.6221474770741 466.2294901687508,494.6221474770745 469.3196601125006,485.1115823141231 477.4098300562499,490.9894348370481 474.31966011250006,500.49999999999955 482.40983005624975,494.62214747707515 490.49999999999903,500.50000000000017 500.49999999999903,500.50000000000057 510.49999999999903,500.50000000000097 518.5901699437488,494.62214747707657 515.4999999999997,485.11158231412486 523.590169943749,490.98943483704994 515.4999999999997,485.11158231412486 518.5901699437495,475.60101715117344 510.5000000000003,469.72316462824836 502.40983005625054,475.6010171511728 499.3196601125014,466.0904519882211 507.40983005625117,460.2125994652967 497.40983005625117,460.2125994652963 494.31966011250205,450.7020343023446 486.2294901687528,444.8241817794196 478.13932022500353,438.9463292564945 468.13932022500353,438.9463292564941 465.0491502812537,448.4568944194455 461.9589803375046,438.94632925649387 465.0491502812537,448.4568944194455 456.95898033750393,454.3347469423699 460.04915028125305,463.8453121053216 470.04915028125305,463.845312105322 466.9589803375032,473.35587726827345 456.9589803375032,473.35587726827305 465.0491502812524,479.23372979119813 461.9589803375025,488.7442949541495 465.0491502812516,498.2548601171012 468.1393202250007,507.7654252800529 476.2294901687499,513.643277802978 484.31966011249966,507.76542528005353 481.2294901687498,517.275990443005" stroke="black" stroke-linecap="round" stroke-width="1" /><polyline clip-path="url(#border_clip)" fill="none" points="481.2294901687498,517.275990443005 484.31966011249966,507.76542528005353 494.31966011249966,507.765425280054 497.4098300562496,498.25486011710257 489.31966011250034,492.3770075941775 497.4098300562501,486.4991550712531 505.4999999999993,492.37700759417817 502.40983005625026,482.8664424312265 510.5,476.9885899083021 513.5901699437499,467.4780247453507 516.6803398874997,457.9674595823993 513.5901699437507,448.45689441944756 503.59016994375065,448.45689441944717 511.6803398875004,442.57904189652277 503.59016994375065,448.45689441944717 495.5000000000014,442.5790418965221 487.4098300562517,448.4568944194464 490.50000000000074,457.96745958239813 480.50000000000074,457.9674595823977 477.4098300562517,448.45689441944603 474.31966011250177,457.9674595823974 464.31966011250177,457.96745958239694 456.229490168752,463.84531210532134 448.1393202250023,469.72316462824574 445.04915028125237,479.2337297911971 453.1393202250016,485.11158231412224 443.1393202250016,485.1115823141218 453.1393202250016,485.11158231412224 456.22949016875066,494.62214747707395 466.22949016875066,494.62214747707435 469.31966011250057,485.111582314123 477.4098300562498,490.98943483704807 474.3196601124999,500.4999999999995 482.40983005624963,494.6221474770751 490.49999999999886,500.5000000000002 500.49999999999886,500.5000000000007 510.49999999999886,500.50000000000114 518.5901699437486,494.6221474770768 515.4999999999995,485.1115823141251 523.5901699437488,490.9894348370502 515.4999999999995,485.1115823141251 518.5901699437495,475.60101715117366 510.5000000000003,469.7231646282486" stroke="black" stroke-linecap="round" stroke-width="1" /><polyline clip-path="url(#border_clip)" fill="none" points="510.5000000000003,469.7231646282486 502.40983005625054,475.6010171511729 499.3196601125015,466.0904519882212 507.4098300562513,460.2125994652969 497.4098300562512,460.2125994652964 494.3196601125022,450.7020343023447 486.229490168753,444.8241817794196 478.1393202250038,438.94632925649444 468.13932022500376,438.946329256494 465.04915028125384,448.4568944194454 461.95898033750484,438.9463292564937 465.04915028125384,448.4568944194454 456.9589803375041,454.33474694236975 460.0491502812531,463.84531210532145 470.0491502812531,463.8453121053219 466.9589803375032,473.35587726827333 456.9589803375032,473.3558772682728 465.04915028125237,479.23372979119796 461.95898033750245,488.7442949541494 465.04915028125146,498.25486011710103 468.13932022500046,507.76542528005274 476.2294901687497,513.6432778029779 484.31966011249943,507.76542528005353 481.2294901687495,517.275990443005 484.31966011249943,507.76542528005353 494.31966011249943,507.76542528005405 497.4098300562494,498.2548601171026 489.3196601125002,492.3770075941775 497.40983005625,486.49915507125314 505.49999999999915,492.3770075941783 502.40983005625014,482.8664424312266 510.49999999999994,476.9885899083023 513.5901699437499,467.47802474535087 516.6803398874998,457.9674595823995 513.5901699437509,448.4568944194478 503.5901699437508,448.4568944194473 511.6803398875006,442.57904189652294 503.5901699437508,448.4568944194473 495.50000000000165,442.57904189652214 487.40983005625185,448.4568944194465 490.50000000000085,457.9674595823982 480.50000000000085,457.9674595823977 477.40983005625185,448.456894419446" stroke="black" stroke-linecap="round" stroke-width="1" /><polyline clip-path="url(#border_clip)" fill="none" points="477.40983005625185,448.456894419446 474.3196601125019,457.96745958239734 464.3196601125019,457.9674595823968 456.2294901687521,463.84531210532117 448.1393202250023,469.72316462824546 445.04915028125237,479.2337297911969 453.13932022500154,485.111582314122 443.1393202250015,485.1115823141215 453.13932022500154,485.111582314122 456.2294901687505,494.6221474770737 466.22949016875054,494.62214747707424 469.3196601125005,485.11158231412287 477.4098300562497,490.989434837048 474.3196601124997,500.49999999999943 482.4098300562495,494.6221474770751 490.4999999999987,500.5000000000003 500.4999999999987,500.5000000000008 510.4999999999987,500.5000000000013 518.5901699437485,494.622147477077 515.4999999999995,485.11158231412526 523.5901699437487,490.98943483705045 515.4999999999995,485.11158231412526 518.5901699437495,475.6010171511739 510.50000000000034,469.7231646282487 502.40983005625054,475.60101715117304 499.31966011250154,466.09045198822133 507.40983005625134,460.212599465297 497.40983005625134,460.2125994652965 494.3196601125024,450.70203430234477 486.2294901687532,444.8241817794196 478.13932022500404,438.94632925649444 468.13932022500404,438.94632925649387 465.049150281254,448.45689441944523 461.95898033750507,438.9463292564935 465.049150281254,448.45689441944523 456.9589803375042,454.3347469423696 460.0491502812532,463.8453121053213 470.0491502812532,463.8453121053218 466.9589803375032,473.35587726827316 456.9589803375032,473.35587726827265 465.04915028125237,479.23372979119785 461.95898033750234,488.7442949541492 465.0491502812513,498.2548601171009" stroke="black" stroke-linecap="round" stroke-width="1" /><polyline clip-path="url(#border_clip)" fill="none" points="465.0491502812513,498.2548601171009 468.13932022500023,507.7654252800526 476.2294901687494,513.6432778029778 484.3196601124992,507.76542528005353 481.22949016874924,517.2759904430048 484.3196601124992,507.76542528005353 494.31966011249926,507.76542528005405 497.40983005624923,498.2548601171027 489.31966011250006,492.3770075941775 497.4098300562499,486.4991550712532 505.49999999999903,492.3770075941784 502.4098300562501,482.8664424312267 510.49999999999994,476.9885899083024 513.59016994375,467.47802474535104 516.6803398874999,457.96745958239967 513.590169943751,448.45689441944796 503.590169943751,448.4568944194474 511.6803398875008,442.5790418965231 503.590169943751,448.4568944194474 495.5000000000018,442.5790418965222 487.409830056252,448.4568944194465 490.50000000000097,457.9674595823982 480.50000000000097,457.9674595823976 477.409830056252,448.4568944194459 474.319660112502,457.9674595823973 464.319660112502,457.96745958239666 456.2294901687522,463.84531210532094 448.13932022500234,469.72316462824523 445.0491502812523,479.2337297911966 453.1393202250015,485.1115823141218 443.1393202250015,485.1115823141212 453.1393202250015,485.1115823141218 456.2294901687504,494.6221474770735 466.22949016875043,494.6221474770741 469.31966011250046,485.11158231412276 477.4098300562496,490.98943483704795 474.31966011249955,500.4999999999993 482.40983005624935,494.62214747707503 490.4999999999985,500.5000000000003 500.4999999999985,500.50000000000085 510.4999999999985,500.5000000000014 518.5901699437484,494.6221474770772 515.4999999999994,485.1115823141254" stroke="black" stroke-linecap="round" stroke-width="1" /><polyline clip-path="url(#border_clip)" fill="none" points="515.4999999999994,485.1115823141254 523.5901699437486,490.9894348370507 515.4999999999994,485.1115823141254 518.5901699437495,475.60101715117406 510.5000000000004,469.72316462824887 502.40983005625054,475.6010171511731 499.31966011250165,466.0904519882214 507.40983005625145,460.2125994652971 497.40983005625145,460.21259946529653 494.31966011250256,450.70203430234477 486.2294901687534,444.8241817794195 478.13932022500427,438.9463292564943 468.13932022500427,438.9463292564937 465.0491502812542,448.45689441944506 461.9589803375053,438.9463292564933 465.0491502812542,448.45689441944506 456.9589803375044,454.3347469423693 460.0491502812533,463.84531210532106 470.0491502812533,463.8453121053217 466.95898033750325,473.35587726827305 456.9589803375032,473.3558772682724 465.0491502812523,479.2337297911977 461.9589803375023,488.74429495414904 465.0491502812512,498.25486011710075 468.13932022500006,507.7654252800525 476.2294901687492,513.6432778029778 484.31966011249904,507.7654252800535 481.22949016874895,517.2759904430048 484.31966011249904,507.7654252800535 494.31966011249904,507.7654252800541 497.4098300562491,498.25486011710274 489.3196601125,492.3770075941775 497.40983005624986,486.49915507125326 505.499999999999,492.3770075941785 502.4098300562501,482.8664424312268 510.49999999999994,476.9885899083026 513.59016994375,467.4780247453512 516.6803398875,457.96745958239984 513.5901699437512,448.4568944194481 503.5901699437512,448.45689441944745 511.6803398875011,442.5790418965232 503.5901699437512,448.45689441944745 495.5000000000021,442.5790418965222" stroke="black" stroke-linecap="round" stroke-width="1" /><polyline clip-path="url(#border_clip)" fill="none" points="495.5000000000021,442.5790418965222 487.40983005625225,448.4568944194464 490.5000000000011,457.9674595823982 480.5000000000011,457.9674595823975 477.4098300562522,448.4568944194458 474.3196601125021,457.96745958239717 464.3196601125021,457.9674595823965 456.22949016875225,463.8453121053207 448.1393202250024,469.72316462824494 445.0491502812523,479.2337297911963 453.13932022500137,485.11158231412156 443.13932022500137,485.1115823141209 453.13932022500137,485.11158231412156 456.22949016875026,494.6221474770733 466.22949016875026,494.62214747707395 469.31966011250034,485.1115823141226 477.40983005624946,490.9894348370479 474.3196601124994,500.4999999999992 482.40983005624923,494.62214747707503 490.49999999999835,500.5000000000003 500.49999999999835,500.50000000000097 510.49999999999835,500.5000000000016 518.5901699437483,494.6221474770774 515.4999999999994,485.11158231412566 523.5901699437485,490.9894348370509 515.4999999999994,485.11158231412566 518.5901699437495,475.6010171511743 510.5000000000004,469.72316462824904 502.40983005625054,475.6010171511732 499.3196601125017,466.09045198822145 507.40983005625156,460.2125994652973 497.40983005625156,460.2125994652966 494.31966011250273,450.7020343023448 486.2294901687536,444.8241817794196 478.13932022500455,438.94632925649427 468.1393202250045,438.9463292564936 465.0491502812544,448.45689441944495 461.9589803375055,438.9463292564932 465.04915028125436,448.45689441944495 456.9589803375045,454.3347469423691 460.04915028125333,463.8453121053209 470.04915028125333,463.84531210532157 466.95898033750325,473.35587726827293" stroke="black" stroke-linecap="round" stroke-width="1" /><polyline clip-path="url(#border_clip)" fill="none" points="466.95898033750325,473.35587726827293 456.9589803375032,473.35587726827225 465.0491502812523,479.2337297911975 461.95898033750217,488.74429495414887 465.049150281251,498.25486011710063 468.13932022499984,507.7654252800524 476.2294901687489,513.6432778029777 484.3196601124988,507.7654252800535 481.22949016874867,517.2759904430048 484.3196601124988,507.7654252800535 494.3196601124988,507.76542528005416 497.40983005624895,498.25486011710285 489.31966011249983,492.37700759417754 497.40983005624975,486.49915507125337 505.4999999999988,492.3770075941787 502.40983005625003,482.8664424312269 510.4999999999999,476.98858990830274 513.5901699437501,467.4780247453514 516.6803398875002,457.96745958240007 513.5901699437513,448.4568944194483 503.5901699437514,448.45689441944756 511.68033988750125,442.5790418965234 503.5901699437514,448.45689441944756 495.5000000000023,442.57904189652226 487.4098300562524,448.4568944194464 490.5000000000012,457.9674595823982 480.5000000000012,457.9674595823975 477.40983005625236,448.45689441944575 474.3196601125022,457.96745958239705 464.3196601125022,457.9674595823964 456.2294901687523,463.84531210532055 448.1393202250024,469.72316462824466 445.04915028125225,479.233729791196 453.1393202250013,485.11158231412134 443.1393202250013,485.1115823141206 453.1393202250013,485.11158231412134 456.2294901687501,494.6221474770731 466.2294901687501,494.62214747707384 469.3196601125003,485.1115823141225 477.40983005624935,490.98943483704784 474.31966011249915,500.49999999999915 482.40983005624906,494.622147477075 490.4999999999981,500.50000000000034" stroke="black" stroke-linecap="round" stroke-width="1" /><polyline clip-path="url(#border_clip)" fill="none" points="490.4999999999981,500.50000000000034 500.4999999999982,500.500000000001 510.4999999999982,500.50000000000176 518.590169943748,494.62214747707765 515.4999999999993,485.1115823141258 523.5901699437484,490.9894348370512 515.4999999999993,485.1115823141258 518.5901699437495,475.6010171511745 510.5000000000004,469.7231646282492 502.4098300562505,475.6010171511733 499.3196601125017,466.09045198822156 507.4098300562516,460.21259946529744 497.4098300562516,460.2125994652967 494.31966011250285,450.7020343023449 486.2294901687538,444.8241817794196 478.1393202250047,438.9463292564942 468.1393202250047,438.94632925649347 465.0491502812545,448.4568944194448 461.95898033750575,438.946329256493 465.0491502812545,448.4568944194448 456.9589803375046,454.33474694236895 460.0491502812534,463.8453121053207 470.0491502812534,463.84531210532145 466.9589803375032,473.3558772682728 456.9589803375032,473.355877268272 465.04915028125225,479.2337297911974 461.95898033750206,488.7442949541487 465.04915028125083,498.25486011710046 468.13932022499955,507.7654252800523 476.2294901687486,513.6432778029777 484.3196601124985,507.7654252800535 481.2294901687483,517.2759904430048 484.3196601124985,507.7654252800535 494.3196601124986,507.7654252800543 497.4098300562488,498.25486011710296 489.3196601124997,492.3770075941776 497.40983005624963,486.4991550712535 505.4999999999987,492.3770075941788 502.4098300562499,482.86644243122703 510.4999999999999,476.9885899083029 513.5901699437501,467.4780247453516 516.6803398875003,457.9674595824003 513.5901699437516,448.45689441944853" stroke="black" stroke-linecap="round" stroke-width="1" /><polyline clip-path="url(#border_clip)" fill="none" points="513.5901699437516,448.45689441944853 503.5901699437515,448.45689441944774 511.6803398875015,442.5790418965236 503.5901699437515,448.45689441944774 495.5000000000025,442.57904189652237 487.40983005625253,448.4568944194465 490.5000000000013,457.9674595823983 480.50000000000125,457.9674595823975 477.40983005625253,448.4568944194457 474.31966011250233,457.967459582397 464.31966011250233,457.96745958239626 456.22949016875236,463.8453121053203 448.1393202250024,469.72316462824443 445.0491502812522,479.23372979119574 453.1393202250012,485.1115823141211 443.1393202250012,485.11158231412037 453.1393202250012,485.1115823141211 456.2294901687499,494.62214747707293 466.22949016875,494.6221474770737 469.3196601125002,485.1115823141224 477.4098300562492,490.9894348370478 474.319660112499,500.4999999999991 482.4098300562489,494.622147477075 490.49999999999795,500.5000000000004 500.49999999999795,500.5000000000012 510.49999999999795,500.500000000002 518.5901699437479,494.6221474770779 515.4999999999992,485.11158231412605 523.5901699437483,490.9894348370515 515.4999999999992,485.11158231412605 518.5901699437494,475.6010171511748 510.5000000000004,469.7231646282494 502.4098300562505,475.6010171511735 499.31966011250177,466.0904519882217 507.40983005625174,460.2125994652976 497.4098300562517,460.21259946529676 494.319660112503,450.702034302345 486.229490168754,444.8241817794196 478.139320225005,438.9463292564942 468.139320225005,438.9463292564934 465.04915028125475,448.45689441944467 461.95898033750603,438.9463292564929 465.04915028125475,448.45689441944467" stroke="black" stroke-linecap="round" stroke-width="1" /><polyline clip-path="url(#border_clip)" fill="none" points="465.04915028125475,448.45689441944467 456.9589803375048,454.3347469423688 460.04915028125345,463.84531210532055 470.0491502812535,463.8453121053214 466.95898033750325,473.3558772682727 456.9589803375032,473.35587726827185 465.0491502812522,479.2337297911973 461.95898033750194,488.7442949541486 465.04915028125066,498.25486011710035 468.1393202249993,507.76542528005217 476.2294901687483,513.6432778029775 484.3196601124983,507.7654252800535 481.22949016874804,517.2759904430048 484.3196601124983,507.7654252800535 494.31966011249835,507.76542528005433 497.4098300562486,498.254860117103 489.3196601124996,492.3770075941776 497.4098300562496,486.49915507125354 505.4999999999986,492.37700759417896 502.4098300562499,482.86644243122714 510.4999999999999,476.9885899083031 513.5901699437502,467.47802474535183 516.6803398875004,457.9674595824005 513.5901699437518,448.4568944194487 503.59016994375173,448.45689441944785 511.6803398875017,442.5790418965238 503.59016994375173,448.45689441944785 495.50000000000273,442.5790418965224 487.40983005625276,448.4568944194465 490.5000000000014,457.9674595823983 480.5000000000014,457.96745958239745 477.40983005625276,448.4568944194457 474.31966011250245,457.96745958239694 464.31966011250245,457.9674595823961 456.2294901687525,463.84531210532015 448.13932022500245,469.7231646282442 445.0491502812522,479.2337297911955 453.13932022500114,485.11158231412094 443.13932022500114,485.1115823141201 453.13932022500114,485.11158231412094 456.2294901687498,494.62214747707276 466.22949016874986,494.6221474770736 469.3196601125001,485.1115823141223" stroke="black" stroke-linecap="round" stroke-width="1" /><polyline clip-path="url(#border_clip)" fill="none" points="469.3196601125001,485.1115823141223 477.4098300562491,490.9894348370477 474.3196601124988,500.49999999999903 482.4098300562488,494.622147477075 490.4999999999978,500.5000000000004 500.4999999999978,500.5000000000013 510.49999999999784,500.50000000000216 518.5901699437478,494.6221474770781 515.4999999999992,485.1115823141263 523.5901699437482,490.9894348370517 515.4999999999992,485.1115823141263 518.5901699437495,475.60101715117503 510.5000000000005,469.72316462824955 502.4098300562505,475.6010171511736 499.3196601125018,466.0904519882218 507.40983005625185,460.2125994652977 497.40983005625185,460.2125994652969 494.3196601125032,450.70203430234506 486.22949016875424,444.8241817794196 478.13932022500524,438.94632925649415 468.13932022500524,438.94632925649324 465.0491502812549,448.45689441944455 461.95898033750626,438.94632925649273 465.0491502812549,448.45689441944455 456.9589803375049,454.33474694236855 460.04915028125356,463.8453121053204 470.04915028125356,463.8453121053213 466.95898033750325,473.35587726827254 456.95898033750325,473.3558772682717 465.0491502812522,479.2337297911971 461.9589803375019,488.74429495414836 465.0491502812505,498.25486011710024 468.13932022499915,507.76542528005206 476.2294901687481,513.6432778029775 484.3196601124981,507.7654252800535 481.22949016874776,517.2759904430047 484.3196601124981,507.7654252800535 494.3196601124981,507.7654252800544 497.40983005624844,498.2548601171031 489.3196601124995,492.37700759417766 497.4098300562495,486.49915507125365 505.49999999999847,492.3770075941791 502.4098300562498,482.86644243122726" stroke="black" stroke-linecap="round" stroke-width="1" /><polyline clip-path="url(#border_clip)" fill="none" points="502.4098300562498,482.86644243122726 510.49999999999983,476.98858990830325 513.5901699437502,467.478024745352 516.6803398875005,457.96745958240075 513.5901699437519,448.4568944194489 503.5901699437519,448.456894419448 511.6803398875019,442.579041896524 503.5901699437519,448.45689441944796 495.5000000000029,442.57904189652254 487.40983005625293,448.45689441944654 490.50000000000153,457.96745958239836 480.5000000000015,457.96745958239745 477.4098300562529,448.45689441944563 474.31966011250256,457.9674595823969 464.31966011250256,457.967459582396 456.2294901687525,463.84531210532 448.1393202250025,469.723164628244 445.04915028125214,479.23372979119523 453.1393202250011,485.1115823141207 443.1393202250011,485.1115823141198 453.1393202250011,485.1115823141207 456.2294901687497,494.62214747707253 466.2294901687497,494.62214747707344 469.31966011250006,485.1115823141222 477.409830056249,490.98943483704767 474.31966011249864,500.499999999999 482.40983005624867,494.622147477075 490.4999999999976,500.50000000000045 500.4999999999976,500.50000000000136 510.4999999999976,500.50000000000233 518.5901699437477,494.62214747707833 515.4999999999991,485.1115823141265 523.590169943748,490.989434837052 515.4999999999991,485.1115823141265 518.5901699437494,475.60101715117526 510.5000000000005,469.7231646282497 502.4098300562505,475.6010171511737 499.3196601125019,466.09045198822184 507.4098300562519,460.2125994652979 497.4098300562519,460.21259946529693 494.31966011250336,450.7020343023451 486.2294901687544,444.82418177941963 478.13932022500546,438.9463292564941" stroke="black" stroke-linecap="round" stroke-width="1" /><polyline clip-path="url(#border_clip)" fill="none" points="478.13932022500546,438.9463292564941 468.13932022500546,438.9463292564932 465.0491502812551,448.45689441944444 461.9589803375065,438.94632925649256 465.0491502812551,448.45689441944444 456.95898033750507,454.3347469423684 460.0491502812536,463.8453121053202 470.0491502812536,463.84531210532117 466.95898033750325,473.3558772682724 456.95898033750325,473.35587726827146 465.04915028125214,479.233729791197 461.95898033750177,488.74429495414824 465.0491502812503,498.25486011710007 468.1393202249989,507.76542528005194 476.2294901687478,513.6432778029774 484.3196601124979,507.7654252800535 481.2294901687475,517.2759904430047 484.3196601124979,507.7654252800535 494.3196601124979,507.76542528005444 497.4098300562483,498.2548601171032 489.3196601124994,492.37700759417766 497.40983005624946,486.4991550712537 505.49999999999835,492.37700759417925 502.4098300562498,482.86644243122737 510.49999999999983,476.9885899083034 513.5901699437502,467.4780247453522 516.6803398875006,457.9674595824009 513.5901699437521,448.4568944194491 503.5901699437521,448.4568944194481 511.68033988750216,442.57904189652413 503.5901699437521,448.4568944194481 495.5000000000032,442.57904189652254 487.4098300562531,448.45689441944654 490.50000000000165,457.96745958239836 480.50000000000165,457.9674595823974 477.4098300562531,448.4568944194456 474.3196601125027,457.9674595823968 464.3196601125027,457.9674595823958 456.2294901687526,463.84531210531975 448.13932022500256,469.7231646282437 445.04915028125214,479.23372979119495 453.13932022500103,485.1115823141205 443.13932022500103,485.1115823141195" stroke="black" stroke-linecap="round" stroke-width="1" /><polyline clip-path="url(#border_clip)" fill="none" points="443.13932022500103,485.1115823141195 453.13932022500103,485.1115823141205 456.2294901687496,494.62214747707236 466.2294901687496,494.6221474770733 469.3196601125,485.1115823141221 477.4098300562489,490.9894348370476 474.31966011249847,500.49999999999886 482.40983005624855,494.6221474770749 490.49999999999744,500.50000000000045 500.49999999999744,500.5000000000015 510.4999999999975,500.50000000000244 518.5901699437476,494.62214747707856 515.499999999999,485.1115823141267 523.5901699437479,490.9894348370522 515.499999999999,485.1115823141267 518.5901699437494,475.6010171511754 510.50000000000057,469.7231646282499 502.4098300562505,475.60101715117383 499.31966011250194,466.09045198822196 507.409830056252,460.212599465298 497.409830056252,460.21259946529705 494.3196601125035,450.70203430234517 486.22949016875464,444.82418177941963 478.13932022500575,438.9463292564941 468.1393202250057,438.9463292564931 465.04915028125527,448.4568944194443 461.9589803375068,438.94632925649245 465.04915028125527,448.4568944194443 456.9589803375052,454.3347469423682 460.04915028125373,463.8453121053201 470.04915028125373,463.8453121053211 466.95898033750325,473.3558772682723 456.95898033750325,473.3558772682713 465.04915028125214,479.2337297911969 461.9589803375017,488.7442949541481 465.0491502812502,498.25486011709995 468.1393202249987,507.76542528005183 476.2294901687476,513.6432778029774 484.3196601124977,507.7654252800535 481.22949016874725,517.2759904430047 484.3196601124977,507.7654252800535 494.3196601124977,507.7654252800545 497.40983005624815,498.25486011710325" stroke="black" stroke-linecap="round" stroke-width="1" /><polyline clip-path="url(#border_clip)" fill="none" points="497.40983005624815,498.25486011710325 489.31966011249926,492.3770075941777 497.40983005624935,486.49915507125377 505.49999999999824,492.37700759417936 502.40983005624975,482.8664424312275 510.49999999999983,476.9885899083036 513.5901699437503,467.4780247453524 516.6803398875007,457.96745958240115 513.5901699437522,448.45689441944927 503.59016994375224,448.45689441944825 511.6803398875023,442.57904189652436 503.59016994375224,448.45689441944825 495.50000000000335,442.57904189652265 487.40983005625327,448.4568944194466 490.50000000000176,457.9674595823984 480.50000000000176,457.9674595823974 477.40983005625327,448.4568944194455 474.3196601125028,457.96745958239677 464.3196601125028,457.9674595823957 456.22949016875265,463.84531210531964 448.13932022500256,469.7231646282435 445.0491502812521,479.2337297911947 453.139320225001,485.1115823141203 443.1393202250009,485.1115823141193 453.139320225001,485.1115823141203 456.2294901687494,494.6221474770722 466.22949016874946,494.62214747707327 469.31966011249995,485.111582314122 477.4098300562488,490.9894348370476 474.3196601124983,500.49999999999886 482.40983005624844,494.622147477075 490.49999999999727,500.50000000000057 500.4999999999973,500.5000000000016 510.4999999999973,500.5000000000027 518.5901699437475,494.6221474770788 515.499999999999,485.1115823141269 523.5901699437478,490.9894348370525 515.499999999999,485.1115823141269 518.5901699437494,475.6010171511757 510.50000000000057,469.72316462825006 502.4098300562505,475.60101715117395 499.319660112502,466.09045198822207 507.40983005625213,460.21259946529824" stroke="black" stroke-linecap="round" stroke-width="1" /><polyline clip-path="url(#border_clip)" fill="none" points="507.40983005625213,460.21259946529824 497.40983005625213,460.21259946529716 494.31966011250364,450.7020343023453 486.2294901687548,444.82418177941963 478.1393202250059,438.94632925649404 468.1393202250059,438.94632925649296 465.04915028125544,448.4568944194442 461.958980337507,438.9463292564923 465.04915028125544,448.4568944194442 456.9589803375053,454.33474694236804 460.0491502812538,463.8453121053199 470.0491502812538,463.845312105321 466.95898033750325,473.35587726827225 456.95898033750325,473.3558772682712 465.0491502812521,479.23372979119677 461.9589803375016,488.74429495414796 465.04915028125004,498.2548601170999 468.13932022499847,507.7654252800518 476.2294901687473,513.6432778029774 484.31966011249744,507.76542528005353 481.2294901687469,517.2759904430047 484.31966011249744,507.76542528005353 494.31966011249744,507.7654252800546 497.409830056248,498.2548601171034 489.31966011249915,492.37700759417777 497.4098300562493,486.49915507125394 505.4999999999981,492.37700759417953 502.4098300562497,482.86644243122765 510.49999999999983,476.9885899083038 513.5901699437503,467.4780247453526 516.6803398875008,457.9674595824014 513.5901699437525,448.4568944194495 503.5901699437524,448.4568944194484 511.68033988750256,442.57904189652453 503.5901699437524,448.4568944194484 495.5000000000036,442.57904189652277 487.40983005625344,448.4568944194466 490.5000000000019,457.9674595823985 480.5000000000018,457.9674595823974 477.40983005625344,448.4568944194455 474.3196601125029,457.9674595823967 464.3196601125029,457.9674595823956 456.2294901687527,463.8453121053194" stroke="black" stroke-linecap="round" stroke-width="1" /><polyline clip-path="url(#border_clip)" fill="none" points="456.2294901687527,463.8453121053194 448.1393202250026,469.72316462824324 445.0491502812521,479.2337297911945 453.1393202250009,485.1115823141201 443.13932022500086,485.111582314119 453.1393202250009,485.1115823141201 456.2294901687493,494.622147477072 466.2294901687493,494.6221474770731 469.31966011249983,485.1115823141219 477.40983005624867,490.98943483704755 474.3196601124981,500.49999999999875 482.40983005624827,494.6221474770749 490.4999999999971,500.50000000000057 500.4999999999971,500.5000000000017 510.4999999999971,500.50000000000284 518.5901699437472,494.622147477079 515.4999999999989,485.11158231412713 523.5901699437477,490.9894348370528 515.4999999999989,485.11158231412713 518.5901699437494,475.60101715117594 510.5000000000006,469.7231646282503 502.4098300562504,475.6010171511741 499.31966011250205,466.0904519882222 507.4098300562522,460.21259946529835 497.4098300562522,460.2125994652972 494.3196601125038,450.70203430234534 486.229490168755,444.82418177941963 478.1393202250062,438.946329256494 468.13932022500614,438.94632925649285 465.0491502812556,448.45689441944404 461.9589803375072,438.94632925649216 465.0491502812556,448.45689441944404 456.9589803375054,454.3347469423679 460.04915028125384,463.84531210531975 470.04915028125384,463.8453121053209 466.95898033750325,473.3558772682721 456.95898033750325,473.35587726827094 465.0491502812521,479.23372979119665 461.9589803375015,488.7442949541478 465.04915028124987,498.2548601170997 468.13932022499824,507.76542528005166 476.229490168747,513.6432778029773 484.3196601124972,507.76542528005353" stroke="black" stroke-linecap="round" stroke-width="1" /><polyline clip-path="url(#border_clip)" fill="none" points="484.3196601124972,507.76542528005353 481.2294901687466,517.2759904430047 484.3196601124972,507.76542528005353 494.3196601124972,507.76542528005467 497.4098300562478,498.2548601171035 489.31966011249904,492.3770075941778 497.4098300562492,486.499155071254 505.49999999999795,492.3770075941797 502.40983005624963,482.86644243122777 510.4999999999998,476.988589908304 513.5901699437504,467.4780247453528 516.680339887501,457.9674595824016 513.5901699437526,448.4568944194497 503.5901699437526,448.45689441944853 511.6803398875028,442.57904189652476 503.5901699437526,448.45689441944853 495.5000000000038,442.5790418965228 487.4098300562536,448.4568944194466 490.500000000002,457.96745958239853 480.500000000002,457.96745958239734 477.4098300562536,448.45689441944546 474.319660112503,457.9674595823966 464.319660112503,457.96745958239546 456.2294901687528,463.84531210531924 448.1393202250026,469.723164628243 445.049150281252,479.2337297911942 453.1393202250008,485.1115823141199 443.1393202250008,485.1115823141187 453.1393202250008,485.1115823141199 456.2294901687492,494.6221474770718 466.2294901687492,494.622147477073 469.3196601124998,485.1115823141218 477.40983005624855,490.9894348370475 474.31966011249796,500.4999999999987 482.40983005624815,494.6221474770749 490.49999999999693,500.5000000000006 500.49999999999693,500.5000000000018 510.49999999999693,500.500000000003 518.5901699437471,494.62214747707924 515.4999999999987,485.11158231412736 523.5901699437476,490.98943483705307 515.4999999999987,485.11158231412736 518.5901699437494,475.60101715117617" stroke="black" stroke-linecap="round" stroke-width="1" /><polyline clip-path="url(#border_clip)" fill="none" points="518.5901699437494,475.60101715117617 510.5000000000006,469.72316462825046 502.4098300562504,475.60101715117423 499.3196601125021,466.0904519882223 507.4098300562523,460.2125994652985 497.4098300562523,460.21259946529733 494.319660112504,450.7020343023454 486.2294901687552,444.8241817794197 478.13932022500643,438.946329256494 468.13932022500643,438.94632925649273 465.0491502812558,448.4568944194439 461.95898033750746,438.946329256492 465.0491502812558,448.4568944194439 456.9589803375056,454.3347469423677 460.0491502812539,463.84531210531964 470.0491502812539,463.84531210532083 466.9589803375033,473.35587726827197 456.95898033750325,473.3558772682708 465.049150281252,479.2337297911965 461.9589803375014,488.7442949541477 465.0491502812497,498.2548601170996 468.139320224998,507.76542528005155 476.2294901687468,513.6432778029773 484.319660112497,507.7654252800535 481.22949016874634,517.2759904430047 484.319660112497,507.7654252800535 494.319660112497,507.7654252800547 497.40983005624764,498.2548601171036 489.3196601124989,492.3770075941778 497.4098300562491,486.4991550712541 505.49999999999784,492.3770075941798 502.4098300562496,482.8664424312279 510.4999999999998,476.98858990830416 513.5901699437504,467.47802474535297 516.6803398875011,457.96745958240183 513.5901699437528,448.4568944194499 503.59016994375276,448.45689441944864 511.680339887503,442.5790418965249 503.59016994375276,448.45689441944864 495.50000000000404,442.5790418965229 487.4098300562538,448.45689441944666 490.5000000000021,457.9674595823986 480.5000000000021,457.96745958239734" stroke="black" stroke-linecap="round" stroke-width="1" /><polyline clip-path="url(#border_clip)" fill="none" points="480.5000000000021,457.96745958239734 477.4098300562538,448.4568944194454 474.31966011250313,457.96745958239654 464.31966011250313,457.9674595823953 456.2294901687529,463.845312105319 448.1393202250027,469.7231646282427 445.04915028125197,479.2337297911939 453.13932022500074,485.1115823141197 443.13932022500074,485.1115823141184 453.13932022500074,485.1115823141197 456.229490168749,494.6221474770716 466.229490168749,494.6221474770729 469.3196601124997,485.11158231412173 477.40983005624844,490.9894348370475 474.3196601124978,500.49999999999864 482.409830056248,494.6221474770749 490.4999999999967,500.5000000000007 500.49999999999676,500.50000000000193 510.49999999999676,500.5000000000032 518.590169943747,494.6221474770795 515.4999999999987,485.11158231412753 523.5901699437475,490.9894348370533 515.4999999999987,485.11158231412753 518.5901699437494,475.6010171511764 510.5000000000007,469.72316462825063 502.4098300562504,475.60101715117435 499.31966011250216,466.0904519882224 507.4098300562524,460.2125994652987 497.40983005625236,460.21259946529744 494.31966011250415,450.7020343023455 486.2294901687554,444.8241817794197 478.13932022500666,438.9463292564939 468.13932022500666,438.9463292564927 465.04915028125595,448.4568944194438 461.9589803375077,438.9463292564919 465.04915028125595,448.4568944194438 456.95898033750575,454.33474694236753 460.04915028125396,463.84531210531946 470.049150281254,463.8453121053207 466.9589803375033,473.3558772682719 456.95898033750325,473.3558772682706 465.04915028125197,479.23372979119637 461.9589803375013,488.7442949541475" stroke="black" stroke-linecap="round" stroke-width="1" /><polyline clip-path="url(#border_clip)" fill="none" points="461.9589803375013,488.7442949541475 465.0491502812495,498.25486011709944 468.1393202249978,507.76542528005143 476.2294901687465,513.6432778029772 484.31966011249676,507.7654252800535 481.22949016874605,517.2759904430046 484.31966011249676,507.7654252800535 494.31966011249676,507.7654252800548 497.4098300562475,498.25486011710365 489.31966011249875,492.3770075941779 497.409830056249,486.49915507125417 505.4999999999977,492.37700759418 502.40983005624946,482.86644243122805 510.4999999999997,476.98858990830433 513.5901699437504,467.4780247453532 516.6803398875012,457.96745958240206 513.5901699437529,448.4568944194501 503.5901699437529,448.4568944194488 511.6803398875032,442.57904189652515 503.5901699437529,448.4568944194488 495.5000000000042,442.579041896523 487.40983005625395,448.4568944194467 490.5000000000022,457.96745958239865 480.50000000000216,457.96745958239734 477.40983005625395,448.45689441944535 474.31966011250324,457.9674595823965 464.31966011250324,457.9674595823952 456.22949016875293,463.84531210531884 448.1393202250027,469.72316462824256 445.04915028125197,479.2337297911937 453.1393202250007,485.11158231411946 443.13932022500063,485.11158231411815 453.1393202250007,485.11158231411946 456.2294901687489,494.62214747707145 466.2294901687489,494.62214747707276 469.3196601124996,485.1115823141216 477.4098300562483,490.98943483704744 474.31966011249756,500.4999999999986 482.40983005624787,494.6221474770749 490.49999999999653,500.50000000000074 500.4999999999966,500.50000000000205 510.4999999999966,500.5000000000034 518.5901699437469,494.62214747707975" stroke="black" stroke-linecap="round" stroke-width="1" /><polyline clip-path="url(#border_clip)" fill="none" points="518.5901699437469,494.62214747707975 515.4999999999986,485.11158231412776 523.5901699437474,490.9894348370536 515.4999999999986,485.11158231412776 518.5901699437494,475.6010171511766 510.5000000000007,469.72316462825086 502.4098300562504,475.60101715117446 499.3196601125022,466.0904519882225 507.40983005625253,460.21259946529887 497.4098300562525,460.2125994652975 494.31966011250427,450.70203430234557 486.2294901687556,444.82418177941975 478.1393202250069,438.9463292564939 468.1393202250069,438.94632925649256 465.0491502812561,448.4568944194437 461.9589803375079,438.9463292564917 465.0491502812561,448.4568944194437 456.95898033750586,454.33474694236736 460.049150281254,463.8453121053193 470.0491502812541,463.84531210532066 466.9589803375033,473.3558772682718 456.95898033750325,473.35587726827043 465.04915028125197,479.23372979119625 461.9589803375012,488.7442949541474 465.04915028124935,498.2548601170993 468.13932022499756,507.7654252800513 476.2294901687462,513.6432778029772 484.31966011249654,507.76542528005353 481.22949016874577,517.2759904430046 484.31966011249654,507.76542528005353 494.31966011249654,507.7654252800549 497.4098300562473,498.25486011710376 489.31966011249864,492.3770075941779 497.4098300562489,486.4991550712543 505.4999999999976,492.3770075941801 502.4098300562494,482.86644243122817 510.4999999999997,476.9885899083045 513.5901699437505,467.4780247453534 516.6803398875013,457.9674595824023 513.5901699437532,448.4568944194503 503.5901699437531,448.45689441944893 511.6803398875034,442.5790418965253 503.5901699437531,448.45689441944893" stroke="black" stroke-linecap="round" stroke-width="1" /><polyline clip-path="url(#border_clip)" fill="none" points="503.5901699437531,448.45689441944893 495.50000000000443,442.5790418965231 487.4098300562541,448.4568944194467 490.5000000000023,457.96745958239865 480.5000000000023,457.9674595823973 477.4098300562541,448.45689441944535 474.3196601125033,457.96745958239643 464.3196601125033,457.96745958239507 456.22949016875305,463.84531210531867 448.13932022500273,469.7231646282423 445.0491502812519,479.2337297911934 453.1393202250006,485.1115823141193 443.1393202250006,485.11158231411787 453.1393202250006,485.1115823141193 456.2294901687487,494.6221474770712 466.2294901687488,494.62214747707264 469.31966011249955,485.1115823141215 477.4098300562482,490.9894348370474 474.31966011249744,500.4999999999985 482.40983005624776,494.6221474770749 490.4999999999964,500.50000000000074 500.4999999999964,500.50000000000216 510.4999999999964,500.5000000000036 518.5901699437468,494.62214747708 515.4999999999986,485.111582314128 523.5901699437472,490.98943483705386 515.4999999999986,485.111582314128 518.5901699437494,475.60101715117685 510.50000000000074,469.72316462825097 502.4098300562504,475.6010171511746 499.3196601125023,466.0904519882226 507.4098300562526,460.212599465299 497.4098300562526,460.21259946529756 494.31966011250444,450.7020343023456 486.22949016875583,444.8241817794197 478.13932022500717,438.9463292564938 468.1393202250071,438.9463292564924 465.0491502812563,448.45689441944353 461.9589803375082,438.94632925649154 465.0491502812563,448.45689441944353 456.958980337506,454.33474694236713 460.04915028125413,463.8453121053191 470.04915028125413,463.84531210532055" stroke="black" stroke-linecap="round" stroke-width="1" /><polyline clip-path="url(#border_clip)" fill="none" points="470.04915028125413,463.84531210532055 466.9589803375033,473.3558772682716 456.9589803375033,473.3558772682702 465.04915028125197,479.2337297911961 461.9589803375011,488.7442949541472 465.04915028124924,498.2548601170992 468.13932022499733,507.7654252800512 476.229490168746,513.6432778029771 484.3196601124963,507.7654252800535 481.2294901687455,517.2759904430046 484.3196601124963,507.7654252800535 494.3196601124963,507.76542528005496 497.4098300562472,498.2548601171038 489.3196601124985,492.37700759417794 497.40983005624884,486.49915507125434 505.4999999999975,492.37700759418027 502.4098300562494,482.8664424312283 510.4999999999997,476.9885899083047 513.5901699437505,467.4780247453536 516.6803398875014,457.96745958240245 513.5901699437533,448.45689441945046 503.59016994375327,448.45689441944904 511.68033988750364,442.57904189652544 503.59016994375327,448.45689441944904 495.50000000000466,442.5790418965231 487.4098300562543,448.4568944194467 490.50000000000244,457.9674595823987 480.5000000000024,457.9674595823972 477.4098300562543,448.45689441944523 474.31966011250347,457.9674595823964 464.3196601125034,457.9674595823949 456.2294901687531,463.84531210531844 448.13932022500273,469.72316462824205 445.0491502812519,479.2337297911931 453.1393202250005,485.11158231411906 443.1393202250005,485.1115823141176 453.1393202250005,485.11158231411906 456.2294901687486,494.62214747707105 466.2294901687486,494.6221474770725 469.3196601124995,485.1115823141214 477.4098300562481,490.9894348370473 474.3196601124973,500.4999999999984 482.4098300562476,494.62214747707486" stroke="black" stroke-linecap="round" stroke-width="1" /><polyline clip-path="url(#border_clip)" fill="none" points="482.4098300562476,494.62214747707486 490.49999999999625,500.5000000000008 500.49999999999625,500.5000000000023 510.49999999999625,500.5000000000037 518.5901699437466,494.62214747708015 515.4999999999985,485.11158231412816 523.5901699437471,490.9894348370541 515.4999999999985,485.11158231412816 518.5901699437494,475.6010171511771 510.5000000000008,469.72316462825114 502.4098300562504,475.6010171511747 499.31966011250233,466.0904519882227 507.4098300562527,460.21259946529915 497.4098300562527,460.21259946529767 494.3196601125046,450.7020343023456 486.229490168756,444.82418177941975 478.1393202250074,438.94632925649375 468.1393202250074,438.9463292564923 465.0491502812565,448.4568944194434 461.9589803375084,438.94632925649137 465.0491502812565,448.4568944194434 456.95898033750615,454.3347469423669 460.0491502812542,463.84531210531895 470.0491502812542,463.84531210532043 466.9589803375033,473.3558772682715 456.9589803375033,473.35587726827004 465.0491502812519,479.23372979119597 461.95898033750103,488.74429495414705 465.04915028124907,498.25486011709904 468.1393202249971,507.7654252800511 476.2294901687457,513.643277802977 484.3196601124961,507.7654252800535 481.2294901687452,517.2759904430046 484.3196601124961,507.7654252800535 494.31966011249614,507.76542528005496 497.409830056247,498.2548601171039 489.3196601124984,492.37700759417794 497.4098300562488,486.4991550712544 505.4999999999974,492.3770075941804 502.40983005624935,482.86644243122834 510.4999999999997,476.98858990830485 513.5901699437507,467.47802474535376 516.6803398875015,457.9674595824027" stroke="black" stroke-linecap="round" stroke-width="1" /><polyline clip-path="url(#border_clip)" fill="none" points="516.6803398875015,457.9674595824027 513.5901699437535,448.45689441945063 503.59016994375344,448.45689441944916 511.68033988750386,442.5790418965256 503.59016994375344,448.45689441944916 495.5000000000049,442.57904189652317 487.40983005625446,448.4568944194467 490.50000000000256,457.9674595823987 480.5000000000025,457.9674595823972 477.40983005625446,448.4568944194452 474.3196601125036,457.96745958239626 464.3196601125035,457.9674595823947 456.22949016875316,463.84531210531827 448.1393202250028,469.72316462824176 445.04915028125185,479.23372979119284 453.13932022500046,485.1115823141188 443.13932022500046,485.1115823141173 453.13932022500046,485.11158231411883 456.2294901687485,494.6221474770708 466.2294901687485,494.62214747707236 469.31966011249943,485.1115823141213 477.409830056248,490.98943483704727 474.31966011249705,500.49999999999835 482.4098300562475,494.6221474770748 490.499999999996,500.5000000000008 500.499999999996,500.50000000000233 510.4999999999961,500.50000000000387 518.5901699437464,494.6221474770804 515.4999999999984,485.1115823141284 523.590169943747,490.9894348370543 515.4999999999984,485.1115823141284 518.5901699437494,475.6010171511773 510.5000000000008,469.7231646282513 502.40983005625037,475.6010171511748 499.3196601125024,466.09045198822275 507.40983005625276,460.21259946529926 497.40983005625276,460.2125994652977 494.3196601125048,450.7020343023457 486.2294901687562,444.8241817794197 478.1393202250076,438.9463292564937 468.1393202250076,438.94632925649216 465.04915028125663,448.45689441944324 461.95898033750865,438.9463292564912" stroke="black" stroke-linecap="round" stroke-width="1" /><polyline clip-path="url(#border_clip)" fill="none" points="461.95898033750865,438.9463292564912 465.04915028125663,448.45689441944324 456.95898033750626,454.33474694236673 460.04915028125424,463.8453121053187 470.04915028125424,463.8453121053203 466.9589803375033,473.35587726827134 456.9589803375033,473.3558772682698 465.04915028125185,479.2337297911958 461.9589803375009,488.7442949541469 465.0491502812489,498.25486011709893 468.1393202249969,507.7654252800509 476.2294901687455,513.643277802977 484.31966011249585,507.7654252800535 481.2294901687449,517.2759904430045 484.31966011249585,507.7654252800535 494.31966011249585,507.765425280055 497.40983005624685,498.25486011710393 489.3196601124983,492.37700759417794 497.40983005624867,486.4991550712545 505.49999999999727,492.3770075941805 502.40983005624923,482.86644243122845 510.49999999999966,476.988589908305 513.5901699437507,467.47802474535393 516.6803398875016,457.96745958240285 513.5901699437536,448.45689441945086 503.5901699437536,448.45689441944927 511.68033988750403,442.57904189652584 503.5901699437536,448.45689441944927 495.50000000000506,442.5790418965233 487.40983005625463,448.4568944194467 490.5000000000026,457.96745958239876 480.5000000000026,457.96745958239717 477.40983005625463,448.4568944194451 474.31966011250364,457.9674595823962 464.31966011250364,457.9674595823946 456.2294901687533,463.84531210531804 448.13932022500285,469.72316462824153 445.04915028125185,479.23372979119256 453.1393202250004,485.1115823141186 443.1393202250004,485.111582314117 453.1393202250004,485.1115823141186 456.2294901687484,494.6221474770706 466.2294901687484,494.6221474770722" stroke="black" stroke-linecap="round" stroke-width="1" /><polyline clip-path="url(#border_clip)" fill="none" points="466.2294901687484,494.6221474770722 469.3196601124994,485.11158231412116 477.4098300562479,490.98943483704716 474.31966011249693,500.49999999999824 482.4098300562473,494.6221474770748 490.49999999999585,500.5000000000008 500.4999999999959,500.50000000000244" stroke="black" stroke-linecap="round" stroke-width="1" /></svg>