<?xml version="1.0" encoding="utf-8" ?>
<svg baseProfile="full" height="10000px" version="1.1" width="10000px" xmlns="http://www.w3.org/2000/svg" xmlns:ev="http://www.w3.org/2001/xml-events" xmlns:xlink="http://www.w3.org/1999/xlink"><defs><clipPath id="border_clip"><rect height="10000" width="10000" x="0" y="0" /></clipPath></defs><polyline clip-path="url(#border_clip)" fill="none" points="5000.5,5000.5 5010.5,5000.5 5020.5,5000.5 5028.590169943749,4994.6221474770755 5025.5,4985.111582314124 5033.590169943749,4990.989434837048 5025.5,4985.111582314124 5028.590169943749,4975.6010171511725 5020.5,4969.723164628247 5012.409830056251,4975.6010171511725 5009.319660112501,4966.090451988221 5017.409830056251,4960.212599465296 5007.409830056251,4960.212599465296 5004.319660112501,4950.702034302344 4996.229490168752,4944.82418177942 4988.139320225002,4938.946329256495 4978.139320225002,4938.946329256495 4975.049150281253,4948.456894419446 4971.958980337503,4938.946329256495 4975.049150281253,4948.456894419446 4966.958980337503,4954.334746942372 4970.049150281253,4963.845312105323 4980.049150281253,4963.845312105323 4976.958980337503,4973.3558772682745 4966.958980337503,4973.3558772682745 4975.049150281253,4979.233729791199 4971.958980337503,4988.74429495415 4975.049150281253,4998.254860117102 4978.139320225002,5007.765425280054 4986.229490168752,5013.643277802978 4994.319660112501,5007.765425280054 4991.229490168751,5017.275990443005 4994.319660112501,5007.765425280054 5004.319660112501,5007.765425280054 5007.40983005625,4998.254860117102 4999.319660112501,4992.3770075941775 5007.409830056251,4986.499155071253 5015.5,4992.3770075941775 5012.409830056251,4982.866442431226 5020.5,4976.988589908301 5023.590169943749,4967.47802474535 5026.680339887499,4957.967459582398 5023.59016994375,4948.456894419446" stroke="black" stroke-linecap="round" stroke-width="1" /><polyline clip-path="url(#border_clip)" fill="none" points="5023.59016994375,4948.456894419446 5013.59016994375,4948.456894419446 5021.680339887499,4942.579041896522 5013.59016994375,4948.456894419446 5005.5,4942.579041896522 4997.409830056251,4948.456894419446 5000.5,4957.967459582398 4990.5,4957.967459582398 4987.409830056251,4948.456894419446 4984.319660112501,4957.967459582398 4974.319660112501,4957.967459582398 4966.229490168752,4963.845312105323 4958.139320225002,4969.723164628247 4955.049150281253,4979.233729791199 4963.139320225002,4985.111582314124 4953.139320225002,4985.111582314124 4963.139320225002,4985.111582314124 4966.229490168751,4994.6221474770755 4976.229490168751,4994.6221474770755 4979.319660112501,4985.111582314124 4987.40983005625,4990.989434837048 4984.319660112501,5000.5 4992.40983005625,4994.6221474770755 5000.5,5000.5 5010.5,5000.5 5020.5,5000.5 5028.590169943749,4994.6221474770755 5025.5,4985.111582314124 5033.590169943749,4990.989434837049 5025.5,4985.111582314124 5028.590169943749,4975.6010171511725 5020.5,4969.723164628248 5012.409830056251,4975.6010171511725 5009.319660112501,4966.090451988221 5017.409830056251,4960.212599465296 5007.409830056251,4960.212599465296 5004.319660112501,4950.702034302344 4996.229490168752,4944.82418177942 4988.139320225002,4938.946329256495 4978.139320225002,4938.946329256495 4975.049150281253,4948.456894419446 4971.958980337504,4938.946329256495 4975.049150281253,4948.456894419446" stroke="black" stroke-linecap="round" stroke-width="1" /><polyline clip-path="url(#border_clip)" fill="none" points="4975.049150281253,4948.456894419446 4966.958980337503,4954.334746942371 4970.049150281253,4963.845312105323 4980.049150281253,4963.845312105323 4976.958980337503,4973.3558772682745 4966.958980337503,4973.355877268274 4975.049150281253,4979.233729791199 4971.958980337503,4988.74429495415 4975.049150281252,4998.254860117102 4978.139320225002,5007.765425280053 4986.229490168751,5013.643277802978 4994.319660112501,5007.765425280054 4991.229490168751,5017.275990443005 4994.319660112501,5007.765425280054 5004.319660112501,5007.765425280054 5007.40983005625,4998.254860117102 4999.319660112501,4992.3770075941775 5007.40983005625,4986.499155071253 5015.5,4992.3770075941775 5012.40983005625,4982.866442431226 5020.5,4976.988589908301 5023.59016994375,4967.47802474535 5026.680339887499,4957.967459582398 5023.59016994375,4948.456894419447 5013.59016994375,4948.456894419447 5021.680339887499,4942.579041896522 5013.59016994375,4948.456894419447 5005.5,4942.579041896522 4997.409830056251,4948.456894419446 5000.5,4957.967459582398 4990.5,4957.967459582398 4987.409830056251,4948.456894419446 4984.319660112501,4957.967459582398 4974.319660112501,4957.967459582398 4966.229490168752,4963.845312105323 4958.139320225002,4969.723164628247 4955.049150281253,4979.233729791198 4963.139320225002,4985.111582314124 4953.139320225002,4985.111582314124 4963.139320225002,4985.111582314124 4966.229490168751,4994.622147477075 4976.229490168751,4994.6221474770755 4979.319660112501,4985.111582314124" stroke="black" stroke-linecap="round" stroke-width="1" /><polyline clip-path="url(#border_clip)" fill="none" points="4979.319660112501,4985.111582314124 4987.40983005625,4990.989434837048 4984.319660112501,5000.5 4992.40983005625,4994.6221474770755 5000.5,5000.5 5010.5,5000.5 5020.5,5000.5 5028.590169943749,4994.6221474770755 5025.5,4985.1115823141245 5033.590169943749,4990.989434837049 5025.5,4985.1115823141245 5028.59016994375,4975.6010171511725 5020.5,4969.723164628248 5012.409830056251,4975.6010171511725 5009.319660112501,4966.090451988221 5017.409830056251,4960.212599465296 5007.409830056251,4960.212599465296 5004.319660112502,4950.702034302344 4996.229490168752,4944.82418177942 4988.139320225003,4938.946329256495 4978.139320225003,4938.946329256494 4975.049150281253,4948.456894419446 4971.958980337504,4938.946329256494 4975.049150281253,4948.456894419446 4966.958980337504,4954.334746942371 4970.049150281253,4963.845312105323 4980.049150281253,4963.845312105323 4976.958980337503,4973.355877268274 4966.958980337503,4973.355877268274 4975.049150281253,4979.233729791199 4971.958980337503,4988.74429495415 4975.049150281252,4998.254860117102 4978.139320225002,5007.765425280053 4986.229490168751,5013.643277802978 4994.319660112501,5007.765425280054 4991.229490168751,5017.275990443005 4994.319660112501,5007.765425280054 5004.319660112501,5007.765425280054 5007.40983005625,4998.254860117102 4999.319660112501,4992.3770075941775 5007.40983005625,4986.499155071253 5015.5,4992.3770075941775 5012.40983005625,4982.8664424312265" stroke="black" stroke-linecap="round" stroke-width="1" /><polyline clip-path="url(#border_clip)" fill="none" points="5012.40983005625,4982.8664424312265 5020.5,4976.988589908302 5023.59016994375,4967.47802474535 5026.680339887499,4957.967459582398 5023.59016994375,4948.456894419447 5013.59016994375,4948.456894419447 5021.6803398875,4942.5790418965225 5013.59016994375,4948.456894419447 5005.500000000001,4942.579041896522 4997.409830056251,4948.456894419446 5000.5,4957.967459582398 4990.5,4957.967459582398 4987.409830056251,4948.456894419446 4984.319660112501,4957.967459582398 4974.319660112501,4957.967459582397 4966.229490168752,4963.845312105323 4958.139320225002,4969.723164628247 4955.049150281253,4979.233729791198 4963.139320225002,4985.111582314124 4953.139320225002,4985.111582314123 4963.139320225002,4985.111582314124 4966.229490168751,4994.622147477075 4976.229490168751,4994.622147477075 4979.319660112501,4985.111582314124 4987.40983005625,4990.989434837048 4984.319660112501,5000.5 4992.40983005625,4994.6221474770755 5000.499999999999,5000.5 5010.499999999999,5000.5 5020.5,5000.500000000001 5028.590169943749,4994.622147477076 5025.5,4985.1115823141245 5033.590169943749,4990.989434837049 5025.5,4985.1115823141245 5028.59016994375,4975.6010171511725 5020.5,4969.723164628248 5012.409830056251,4975.6010171511725 5009.319660112501,4966.090451988221 5017.409830056251,4960.212599465296 5007.409830056251,4960.212599465296 5004.319660112502,4950.702034302344 4996.229490168752,4944.82418177942 4988.139320225003,4938.946329256495" stroke="black" stroke-linecap="round" stroke-width="1" /><polyline clip-path="url(#border_clip)" fill="none" points="4988.139320225003,4938.946329256495 4978.139320225003,4938.946329256494 4975.049150281253,4948.456894419446 4971.958980337504,4938.946329256494 4975.049150281253,4948.456894419446 4966.958980337504,4954.334746942371 4970.049150281253,4963.845312105322 4980.049150281253,4963.845312105323 4976.958980337503,4973.355877268274 4966.958980337503,4973.355877268274 4975.049150281253,4979.233729791198 4971.958980337503,4988.74429495415 4975.049150281252,4998.254860117102 4978.139320225001,5007.765425280053 4986.229490168751,5013.643277802978 4994.3196601125,5007.765425280054 4991.229490168751,5017.275990443005 4994.3196601125,5007.765425280054 5004.3196601125,5007.765425280054 5007.40983005625,4998.254860117102 4999.319660112501,4992.3770075941775 5007.40983005625,4986.499155071253 5015.5,4992.3770075941775 5012.40983005625,4982.8664424312265 5020.5,4976.988589908302 5023.59016994375,4967.47802474535 5026.680339887499,4957.967459582399 5023.59016994375,4948.456894419447 5013.59016994375,4948.456894419447 5021.6803398875,4942.5790418965225 5013.59016994375,4948.456894419447 5005.500000000001,4942.579041896522 4997.409830056251,4948.456894419446 5000.5,4957.967459582398 4990.5,4957.967459582398 4987.409830056251,4948.456894419446 4984.319660112502,4957.967459582398 4974.319660112502,4957.967459582397 4966.229490168752,4963.845312105322 4958.139320225002,4969.723164628246 4955.049150281253,4979.233729791198 4963.139320225002,4985.111582314123 4953.139320225002,4985.111582314123" stroke="black" stroke-linecap="round" stroke-width="1" /><polyline clip-path="url(#border_clip)" fill="none" points="4953.139320225002,4985.111582314123 4963.139320225002,4985.111582314123 4966.229490168751,4994.622147477075 4976.229490168751,4994.622147477075 4979.319660112501,4985.111582314124 4987.40983005625,4990.989434837048 4984.3196601125,5000.5 4992.40983005625,4994.6221474770755 5000.499999999999,5000.5 5010.499999999999,5000.5 5020.499999999999,5000.500000000001 5028.590169943749,4994.622147477076 5025.5,4985.1115823141245 5033.590169943749,4990.98943483705 5025.5,4985.1115823141245 5028.59016994375,4975.601017151173 5020.5,4969.723164628248 5012.409830056251,4975.6010171511725 5009.319660112501,4966.090451988221 5017.409830056251,4960.212599465296 5007.409830056251,4960.212599465296 5004.319660112502,4950.702034302344 4996.229490168753,4944.82418177942 4988.139320225003,4938.946329256494 4978.139320225003,4938.946329256494 4975.049150281253,4948.456894419446 4971.958980337504,4938.946329256494 4975.049150281253,4948.456894419446 4966.958980337504,4954.334746942371 4970.049150281253,4963.845312105322 4980.049150281253,4963.845312105323 4976.958980337503,4973.355877268274 4966.958980337503,4973.355877268274 4975.049150281253,4979.233729791198 4971.958980337503,4988.74429495415 4975.049150281252,4998.254860117101 4978.139320225001,5007.765425280053 4986.22949016875,5013.643277802978 4994.3196601125,5007.765425280054 4991.22949016875,5017.275990443005 4994.3196601125,5007.765425280054 5004.3196601125,5007.765425280054 5007.40983005625,4998.254860117103" stroke="black" stroke-linecap="round" stroke-width="1" /><polyline clip-path="url(#border_clip)" fill="none" points="5007.40983005625,4998.254860117103 4999.319660112501,4992.3770075941775 5007.40983005625,4986.499155071253 5015.499999999999,4992.377007594178 5012.40983005625,4982.8664424312265 5020.5,4976.988589908302 5023.59016994375,4967.47802474535 5026.6803398875,4957.967459582399 5023.59016994375,4948.456894419447 5013.59016994375,4948.456894419447 5021.6803398875,4942.5790418965225 5013.59016994375,4948.456894419447 5005.500000000001,4942.579041896522 4997.409830056251,4948.456894419446 5000.500000000001,4957.967459582398 4990.500000000001,4957.967459582398 4987.409830056251,4948.456894419446 4984.319660112502,4957.967459582397 4974.319660112502,4957.967459582397 4966.229490168752,4963.845312105322 4958.139320225002,4969.723164628246 4955.049150281253,4979.233729791198 4963.139320225002,4985.111582314123 4953.139320225002,4985.111582314123 4963.139320225002,4985.111582314123 4966.229490168751,4994.622147477075 4976.229490168751,4994.622147477075 4979.319660112501,4985.111582314124 4987.40983005625,4990.989434837048 4984.3196601125,5000.5 4992.40983005625,4994.6221474770755 5000.499999999999,5000.5 5010.499999999999,5000.500000000001 5020.499999999999,5000.500000000001 5028.590169943749,4994.622147477076 5025.5,4985.1115823141245 5033.590169943749,4990.98943483705 5025.5,4985.1115823141245 5028.59016994375,4975.601017151173 5020.5,4969.723164628248 5012.409830056251,4975.6010171511725 5009.319660112501,4966.0904519882215 5017.409830056251,4960.212599465297" stroke="black" stroke-linecap="round" stroke-width="1" /><polyline clip-path="url(#border_clip)" fill="none" points="5017.409830056251,4960.212599465297 5007.409830056251,4960.212599465296 5004.319660112502,4950.702034302344 4996.229490168753,4944.82418177942 4988.139320225004,4938.946329256494 4978.139320225004,4938.946329256494 4975.049150281254,4948.456894419445 4971.958980337505,4938.946329256494 4975.049150281254,4948.456894419445 4966.958980337504,4954.33474694237 4970.049150281253,4963.845312105322 4980.049150281253,4963.845312105322 4976.958980337503,4973.355877268274 4966.958980337503,4973.355877268274 4975.049150281253,4979.233729791198 4971.958980337503,4988.74429495415 4975.049150281252,4998.254860117101 4978.139320225001,5007.765425280053 4986.22949016875,5013.643277802978 4994.3196601125,5007.765425280054 4991.22949016875,5017.275990443005 4994.3196601125,5007.765425280054 5004.3196601125,5007.765425280054 5007.40983005625,4998.254860117103 4999.3196601125,4992.3770075941775 5007.40983005625,4986.499155071253 5015.499999999999,4992.377007594178 5012.40983005625,4982.8664424312265 5020.5,4976.988589908302 5023.59016994375,4967.478024745351 5026.6803398875,4957.967459582399 5023.590169943751,4948.456894419447 5013.590169943751,4948.456894419447 5021.6803398875,4942.5790418965225 5013.590169943751,4948.456894419447 5005.500000000001,4942.579041896522 4997.409830056252,4948.456894419446 5000.500000000001,4957.967459582398 4990.500000000001,4957.967459582398 4987.409830056252,4948.456894419446 4984.319660112502,4957.967459582397 4974.319660112502,4957.967459582397 4966.229490168752,4963.845312105322" stroke="black" stroke-linecap="round" stroke-width="1" /><polyline clip-path="url(#border_clip)" fill="none" points="4966.229490168752,4963.845312105322 4958.139320225002,4969.723164628246 4955.049150281252,4979.233729791197 4963.139320225002,4985.111582314123 4953.139320225002,4985.111582314122 4963.139320225002,4985.111582314123 4966.229490168751,4994.622147477075 4976.229490168751,4994.622147477075 4979.319660112501,4985.111582314123 4987.40983005625,4990.989434837048 4984.3196601125,5000.5 4992.40983005625,4994.6221474770755 5000.499999999999,5000.5 5010.499999999999,5000.500000000001 5020.499999999999,5000.500000000001 5028.590169943749,4994.622147477076 5025.5,4985.1115823141245 5033.590169943749,4990.98943483705 5025.5,4985.1115823141245 5028.59016994375,4975.601017151173 5020.5,4969.723164628248 5012.409830056251,4975.6010171511725 5009.319660112502,4966.0904519882215 5017.409830056251,4960.212599465297 5007.409830056251,4960.212599465296 5004.319660112502,4950.702034302345 4996.229490168753,4944.82418177942 4988.139320225004,4938.946329256494 4978.139320225004,4938.946329256494 4975.049150281254,4948.456894419445 4971.958980337505,4938.946329256494 4975.049150281254,4948.456894419445 4966.958980337504,4954.33474694237 4970.049150281253,4963.845312105322 4980.049150281253,4963.845312105322 4976.958980337503,4973.355877268274 4966.958980337503,4973.355877268273 4975.049150281252,4979.233729791198 4971.958980337503,4988.744294954149 4975.049150281252,4998.254860117101 4978.139320225001,5007.765425280053 4986.22949016875,5013.6432778029775 4994.3196601125,5007.765425280054" stroke="black" stroke-linecap="round" stroke-width="1" /><polyline clip-path="url(#border_clip)" fill="none" points="4994.3196601125,5007.765425280054 4991.22949016875,5017.275990443005 4994.3196601125,5007.765425280054 5004.3196601125,5007.765425280054 5007.409830056249,4998.254860117103 4999.3196601125,4992.3770075941775 5007.40983005625,4986.499155071253 5015.499999999999,4992.377007594178 5012.40983005625,4982.8664424312265 5020.5,4976.988589908302 5023.59016994375,4967.478024745351 5026.6803398875,4957.967459582399 5023.590169943751,4948.456894419448 5013.590169943751,4948.456894419447 5021.680339887501,4942.5790418965225 5013.590169943751,4948.456894419447 5005.500000000002,4942.579041896522 4997.409830056252,4948.456894419446 5000.500000000001,4957.967459582398 4990.500000000001,4957.967459582398 4987.409830056252,4948.456894419446 4984.319660112502,4957.967459582397 4974.319660112502,4957.967459582397 4966.229490168752,4963.845312105322 4958.139320225002,4969.723164628245 4955.049150281252,4979.233729791197 4963.139320225002,4985.111582314123 4953.139320225002,4985.111582314122 4963.139320225002,4985.111582314123 4966.229490168751,4994.622147477074 4976.229490168751,4994.622147477075 4979.319660112501,4985.111582314123 4987.40983005625,4990.989434837048 4984.3196601125,5000.499999999999 4992.40983005625,4994.6221474770755 5000.499999999999,5000.5 5010.499999999999,5000.500000000001 5020.499999999999,5000.500000000001 5028.590169943749,4994.622147477076 5025.5,4985.111582314125 5033.590169943749,4990.98943483705 5025.5,4985.111582314125 5028.590169943749,4975.601017151173" stroke="black" stroke-linecap="round" stroke-width="1" /><polyline clip-path="url(#border_clip)" fill="none" points="5028.590169943749,4975.601017151173 5020.5,4969.723164628249 5012.409830056251,4975.6010171511725 5009.319660112502,4966.0904519882215 5017.409830056251,4960.212599465297 5007.409830056251,4960.212599465296 5004.319660112502,4950.702034302345 4996.229490168753,4944.82418177942 4988.139320225004,4938.946329256494 4978.139320225004,4938.946329256494 4975.049150281254,4948.456894419445 4971.958980337505,4938.946329256493 4975.049150281254,4948.456894419445 4966.958980337504,4954.33474694237 4970.049150281253,4963.845312105322 4980.049150281253,4963.845312105322 4976.958980337503,4973.355877268274 4966.958980337503,4973.355877268273 4975.049150281252,4979.233729791198 4971.958980337502,4988.744294954149 4975.049150281251,4998.254860117101 4978.139320225,5007.765425280053 4986.22949016875,5013.6432778029775 4994.319660112499,5007.765425280054 4991.229490168749,5017.275990443005 4994.319660112499,5007.765425280054 5004.319660112499,5007.765425280054 5007.409830056249,4998.254860117103 4999.3196601125,4992.3770075941775 5007.40983005625,4986.499155071253 5015.499999999999,4992.377007594178 5012.40983005625,4982.8664424312265 5020.5,4976.988589908302 5023.59016994375,4967.478024745351 5026.6803398875,4957.9674595824 5023.590169943751,4948.456894419448 5013.590169943751,4948.456894419447 5021.680339887501,4942.5790418965225 5013.590169943751,4948.456894419447 5005.500000000002,4942.5790418965225 4997.409830056252,4948.456894419446 5000.500000000001,4957.967459582398 4990.500000000001,4957.967459582398" stroke="black" stroke-linecap="round" stroke-width="1" /><polyline clip-path="url(#border_clip)" fill="none" points="4990.500000000001,4957.967459582398 4987.409830056252,4948.456894419446 4984.319660112502,4957.967459582397 4974.319660112502,4957.967459582397 4966.229490168752,4963.845312105321 4958.139320225002,4969.723164628245 4955.049150281252,4979.233729791197 4963.139320225002,4985.111582314122 4953.139320225002,4985.111582314122 4963.139320225002,4985.111582314122 4966.22949016875,4994.622147477074 4976.22949016875,4994.622147477075 4979.3196601125,4985.111582314123 4987.40983005625,4990.989434837048 4984.3196601125,5000.499999999999 4992.409830056249,4994.6221474770755 5000.499999999999,5000.5 5010.499999999999,5000.500000000001 5020.499999999999,5000.500000000001 5028.590169943748,4994.622147477077 5025.499999999999,4985.111582314125 5033.590169943749,4990.989434837051 5025.499999999999,4985.111582314125 5028.590169943749,4975.601017151174 5020.5,4969.723164628249 5012.409830056251,4975.601017151173 5009.319660112502,4966.0904519882215 5017.409830056251,4960.212599465297 5007.409830056251,4960.212599465296 5004.319660112503,4950.702034302345 4996.229490168753,4944.82418177942 4988.139320225004,4938.946329256494 4978.139320225004,4938.946329256494 4975.049150281254,4948.456894419445 4971.958980337505,4938.946329256493 4975.049150281254,4948.456894419445 4966.958980337504,4954.33474694237 4970.049150281253,4963.845312105322 4980.049150281253,4963.845312105322 4976.958980337503,4973.355877268274 4966.958980337503,4973.355877268273 4975.049150281252,4979.233729791198 4971.958980337502,4988.744294954149" stroke="black" stroke-linecap="round" stroke-width="1" /><polyline clip-path="url(#border_clip)" fill="none" points="4971.958980337502,4988.744294954149 4975.049150281251,4998.254860117101 4978.139320225,5007.765425280053 4986.229490168749,5013.6432778029775 4994.319660112499,5007.765425280054 4991.229490168749,5017.275990443005 4994.319660112499,5007.765425280054 5004.319660112499,5007.765425280054 5007.409830056249,4998.254860117103 4999.3196601125,4992.3770075941775 5007.40983005625,4986.499155071253 5015.499999999999,4992.377007594178 5012.40983005625,4982.8664424312265 5020.5,4976.988589908303 5023.59016994375,4967.478024745351 5026.6803398875,4957.9674595824 5023.590169943751,4948.456894419448 5013.590169943751,4948.456894419447 5021.680339887501,4942.579041896523 5013.590169943751,4948.456894419447 5005.500000000002,4942.5790418965225 4997.409830056252,4948.456894419446 5000.500000000001,4957.967459582398 4990.500000000001,4957.967459582397 4987.409830056252,4948.456894419446 4984.319660112502,4957.967459582397 4974.319660112502,4957.967459582396 4966.229490168752,4963.845312105321 4958.139320225002,4969.723164628245 4955.049150281252,4979.233729791196 4963.139320225001,4985.111582314122 4953.139320225001,4985.111582314121 4963.139320225001,4985.111582314122 4966.22949016875,4994.622147477074 4976.22949016875,4994.622147477074 4979.3196601125,4985.111582314123 4987.409830056249,4990.989434837048 4984.319660112499,5000.499999999999 4992.409830056249,4994.6221474770755 5000.499999999998,5000.5 5010.499999999998,5000.500000000001 5020.499999999998,5000.500000000002 5028.590169943748,4994.622147477077" stroke="black" stroke-linecap="round" stroke-width="1" /><polyline clip-path="url(#border_clip)" fill="none" points="5028.590169943748,4994.622147477077 5025.499999999999,4985.111582314125 5033.590169943748,4990.989434837051 5025.499999999999,4985.111582314125 5028.590169943749,4975.601017151174 5020.5,4969.723164628249 5012.409830056251,4975.601017151173 5009.319660112502,4966.0904519882215 5017.409830056252,4960.212599465297 5007.409830056252,4960.212599465296 5004.319660112503,4950.702034302345 4996.229490168754,4944.82418177942 4988.139320225005,4938.946329256494 4978.139320225005,4938.946329256493 4975.049150281254,4948.456894419445 4971.958980337506,4938.946329256493 4975.049150281254,4948.456894419445 4966.958980337505,4954.33474694237 4970.049150281253,4963.845312105321 4980.049150281253,4963.845312105322 4976.958980337503,4973.355877268273 4966.958980337503,4973.355877268273 4975.049150281252,4979.233729791197 4971.958980337502,4988.744294954149 4975.049150281251,4998.254860117101 4978.139320225,5007.765425280052 4986.229490168749,5013.6432778029775 4994.319660112499,5007.765425280054 4991.229490168749,5017.275990443005 4994.319660112499,5007.765425280054 5004.319660112499,5007.765425280054 5007.409830056249,4998.254860117103 4999.3196601125,4992.3770075941775 5007.40983005625,4986.499155071253 5015.499999999999,4992.377007594178 5012.40983005625,4982.8664424312265 5020.5,4976.988589908303 5023.59016994375,4967.478024745351 5026.6803398875,4957.9674595824 5023.590169943751,4948.456894419448 5013.590169943751,4948.456894419447 5021.680339887501,4942.579041896523 5013.590169943751,4948.456894419447" stroke="black" stroke-linecap="round" stroke-width="1" /><polyline clip-path="url(#border_clip)" fill="none" points="5013.590169943751,4948.456894419447 5005.500000000002,4942.5790418965225 4997.409830056252,4948.456894419446 5000.500000000001,4957.967459582398 4990.500000000001,4957.967459582397 4987.409830056252,4948.456894419446 4984.319660112502,4957.967459582397 4974.319660112502,4957.967459582396 4966.229490168752,4963.845312105321 4958.139320225002,4969.723164628245 4955.049150281252,4979.233729791196 4963.139320225001,4985.111582314122 4953.139320225001,4985.111582314121 4963.139320225001,4985.111582314122 4966.22949016875,4994.622147477074 4976.22949016875,4994.622147477074 4979.3196601125,4985.111582314123 4987.409830056249,4990.989434837048 4984.319660112499,5000.499999999999 4992.409830056249,4994.622147477075 5000.499999999998,5000.5 5010.499999999998,5000.500000000001 5020.499999999998,5000.500000000002 5028.590169943748,4994.622147477077 5025.499999999999,4985.111582314125 5033.590169943748,4990.989434837051 5025.499999999999,4985.111582314125 5028.590169943749,4975.601017151174 5020.5,4969.723164628249 5012.409830056251,4975.601017151173 5009.319660112502,4966.0904519882215 5017.409830056252,4960.212599465297 5007.409830056252,4960.212599465297 5004.319660112503,4950.702034302345 4996.229490168754,4944.82418177942 4988.139320225005,4938.946329256494 4978.139320225005,4938.946329256493 4975.049150281255,4948.456894419445 4971.958980337506,4938.946329256493 4975.049150281255,4948.456894419445 4966.958980337505,4954.334746942369 4970.049150281253,4963.845312105321 4980.049150281253,4963.845312105322" stroke="black" stroke-linecap="round" stroke-width="1" /><polyline clip-path="url(#border_clip)" fill="none" points="4980.049150281253,4963.845312105322 4976.958980337503,4973.355877268273 4966.958980337503,4973.355877268272 4975.049150281252,4979.233729791197 4971.958980337502,4988.744294954149 4975.049150281251,4998.2548601171 4978.139320225,5007.765425280052 4986.229490168749,5013.6432778029775 4994.319660112499,5007.765425280054 4991.229490168748,5017.275990443005 4994.319660112499,5007.765425280054 5004.319660112499,5007.765425280054 5007.409830056249,4998.254860117103 4999.3196601125,4992.3770075941775 5007.40983005625,4986.499155071253 5015.499999999999,4992.377007594178 5012.40983005625,4982.8664424312265 5020.5,4976.988589908303 5023.59016994375,4967.478024745352 5026.6803398875,4957.9674595824 5023.590169943752,4948.456894419448 5013.590169943752,4948.456894419448 5021.680339887501,4942.579041896523 5013.590169943752,4948.456894419448 5005.500000000003,4942.5790418965225 4997.409830056253,4948.456894419446 5000.500000000001,4957.967459582398 4990.500000000001,4957.967459582397 4987.409830056253,4948.456894419446 4984.319660112502,4957.967459582397 4974.319660112502,4957.967459582396 4966.229490168752,4963.845312105321 4958.139320225002,4969.723164628244 4955.049150281252,4979.233729791196 4963.139320225001,4985.111582314122 4953.139320225001,4985.111582314121 4963.139320225001,4985.111582314122 4966.22949016875,4994.622147477073 4976.22949016875,4994.622147477074 4979.3196601125,4985.111582314123 4987.409830056249,4990.989434837048 4984.319660112499,5000.499999999999 4992.409830056249,4994.622147477075" stroke="black" stroke-linecap="round" stroke-width="1" /><polyline clip-path="url(#border_clip)" fill="none" points="4992.409830056249,4994.622147477075 5000.499999999998,5000.5 5010.499999999998,5000.500000000001 5020.499999999998,5000.500000000002 5028.590169943748,4994.622147477077 5025.499999999999,4985.111582314126 5033.590169943748,4990.989434837051 5025.499999999999,4985.111582314126 5028.590169943749,4975.601017151174 5020.5,4969.723164628249 5012.409830056251,4975.601017151173 5009.319660112502,4966.0904519882215 5017.409830056252,4960.212599465297 5007.409830056252,4960.212599465297 5004.319660112503,4950.702034302345 4996.229490168754,4944.82418177942 4988.139320225005,4938.946329256494 4978.139320225005,4938.946329256493 4975.049150281255,4948.456894419445 4971.958980337506,4938.946329256493 4975.049150281255,4948.456894419445 4966.958980337505,4954.334746942369 4970.049150281254,4963.845312105321 4980.049150281254,4963.845312105322 4976.958980337503,4973.355877268273 4966.958980337503,4973.355877268272 4975.049150281252,4979.233729791197 4971.958980337502,4988.744294954149 4975.049150281251,4998.2548601171 4978.139320224999,5007.765425280052 4986.229490168748,5013.6432778029775 4994.319660112498,5007.765425280054 4991.229490168748,5017.275990443005 4994.319660112498,5007.765425280054 5004.319660112498,5007.765425280054 5007.409830056249,4998.254860117103 4999.3196601125,4992.3770075941775 5007.40983005625,4986.499155071254 5015.499999999999,4992.377007594178 5012.40983005625,4982.866442431227 5020.5,4976.988589908303 5023.59016994375,4967.478024745352 5026.6803398875,4957.9674595824" stroke="black" stroke-linecap="round" stroke-width="1" /><polyline clip-path="url(#border_clip)" fill="none" points="5026.6803398875,4957.9674595824 5023.590169943752,4948.456894419449 5013.590169943752,4948.456894419448 5021.680339887502,4942.579041896523 5013.590169943752,4948.456894419448 5005.500000000003,4942.5790418965225 4997.409830056253,4948.456894419446 5000.500000000001,4957.967459582398 4990.500000000001,4957.967459582397 4987.409830056253,4948.456894419446 4984.319660112502,4957.967459582397 4974.319660112502,4957.967459582396 4966.229490168752,4963.845312105321 4958.139320225002,4969.723164628244 4955.049150281252,4979.233729791195 4963.139320225001,4985.111582314121 4953.139320225001,4985.11158231412 4963.139320225001,4985.111582314121 4966.22949016875,4994.622147477073 4976.22949016875,4994.622147477074 4979.3196601125,4985.111582314123 4987.409830056249,4990.989434837048 4984.319660112499,5000.499999999999 4992.409830056249,4994.622147477075 5000.499999999998,5000.5 5010.499999999998,5000.500000000001 5020.499999999998,5000.500000000002 5028.590169943748,4994.622147477078 5025.499999999999,4985.111582314126 5033.590169943748,4990.989434837052 5025.499999999999,4985.111582314126 5028.590169943749,4975.601017151174 5020.5,4969.72316462825 5012.40983005625,4975.601017151173 5009.319660112502,4966.0904519882215 5017.409830056252,4960.212599465298 5007.409830056252,4960.212599465297 5004.319660112503,4950.702034302345 4996.229490168754,4944.82418177942 4988.139320225005,4938.946329256494 4978.139320225005,4938.946329256493 4975.049150281255,4948.456894419444 4971.958980337506,4938.946329256493" stroke="black" stroke-linecap="round" stroke-width="1" /><polyline clip-path="url(#border_clip)" fill="none" points="4971.958980337506,4938.946329256493 4975.049150281255,4948.456894419444 4966.958980337505,4954.334746942369 4970.049150281254,4963.845312105321 4980.049150281254,4963.845312105322 4976.958980337503,4973.355877268273 4966.958980337503,4973.355877268272 4975.049150281252,4979.233729791197 4971.958980337502,4988.744294954148 4975.049150281251,4998.2548601171 4978.139320224999,5007.765425280052 4986.229490168748,5013.6432778029775 4994.319660112498,5007.765425280054 4991.229490168748,5017.275990443005 4994.319660112498,5007.765425280054 5004.319660112498,5007.765425280054 5007.409830056248,4998.254860117103 4999.319660112499,4992.3770075941775 5007.409830056249,4986.499155071254 5015.499999999998,4992.377007594179 5012.40983005625,4982.866442431227 5020.5,4976.988589908303 5023.59016994375,4967.478024745352 5026.6803398875,4957.967459582401 5023.590169943752,4948.456894419449 5013.590169943752,4948.456894419448 5021.680339887502,4942.579041896523 5013.590169943752,4948.456894419448 5005.500000000003,4942.5790418965225 4997.409830056253,4948.456894419446 5000.500000000002,4957.967459582398 4990.500000000002,4957.967459582397 4987.409830056253,4948.456894419445 4984.319660112503,4957.967459582397 4974.319660112503,4957.967459582396 4966.229490168753,4963.84531210532 4958.139320225003,4969.723164628244 4955.049150281252,4979.233729791195 4963.139320225001,4985.111582314121 4953.139320225001,4985.11158231412 4963.139320225001,4985.111582314121 4966.22949016875,4994.622147477073 4976.22949016875,4994.622147477074" stroke="black" stroke-linecap="round" stroke-width="1" /><polyline clip-path="url(#border_clip)" fill="none" points="4976.22949016875,4994.622147477074 4979.3196601125,4985.111582314123 4987.409830056249,4990.989434837048 4984.319660112499,5000.499999999999 4992.409830056249,4994.622147477075 5000.499999999998,5000.5 5010.499999999998,5000.500000000001 5020.499999999998,5000.500000000002 5028.590169943748,4994.622147477078 5025.499999999999,4985.111582314126 5033.590169943748,4990.989434837052 5025.499999999999,4985.111582314126 5028.590169943749,4975.601017151175 5020.500000000001,4969.72316462825 5012.40983005625,4975.601017151173 5009.319660112502,4966.0904519882215 5017.409830056252,4960.212599465298 5007.409830056252,4960.212599465297 5004.319660112503,4950.702034302345 4996.229490168755,4944.82418177942 4988.139320225006,4938.946329256494 4978.139320225006,4938.946329256493 4975.049150281255,4948.456894419444 4971.958980337507,4938.946329256492 4975.049150281255,4948.456894419444 4966.958980337505,4954.334746942369 4970.049150281254,4963.845312105321 4980.049150281254,4963.845312105322 4976.958980337503,4973.355877268273 4966.958980337503,4973.355877268272 4975.049150281252,4979.233729791197 4971.958980337502,4988.744294954148 4975.04915028125,4998.2548601171 4978.139320224999,5007.765425280052 4986.229490168748,5013.6432778029775 4994.319660112498,5007.765425280053 4991.229490168747,5017.275990443005 4994.319660112498,5007.765425280053 5004.319660112498,5007.765425280054 5007.409830056248,4998.254860117103 4999.319660112499,4992.3770075941775 5007.409830056249,4986.499155071254 5015.499999999998,4992.377007594179" stroke="black" stroke-linecap="round" stroke-width="1" /><polyline clip-path="url(#border_clip)" fill="none" points="5015.499999999998,4992.377007594179 5012.40983005625,4982.866442431227 5020.5,4976.988589908303 5023.59016994375,4967.478024745352 5026.680339887501,4957.967459582401 5023.590169943752,4948.456894419449 5013.590169943752,4948.456894419448 5021.680339887502,4942.579041896524 5013.590169943752,4948.456894419448 5005.500000000003,4942.5790418965225 4997.409830056253,4948.456894419446 5000.500000000002,4957.967459582398 4990.500000000002,4957.967459582397 4987.409830056253,4948.456894419445 4984.319660112503,4957.967459582397 4974.319660112503,4957.967459582396 4966.229490168753,4963.84531210532 4958.139320225003,4969.723164628244 4955.049150281252,4979.233729791195 4963.139320225001,4985.111582314121 4953.139320225001,4985.11158231412 4963.139320225001,4985.111582314121 4966.22949016875,4994.622147477073 4976.22949016875,4994.622147477074 4979.3196601125,4985.111582314123 4987.409830056249,4990.989434837048 4984.319660112498,5000.499999999999 4992.409830056248,4994.622147477075 5000.499999999997,5000.500000000001 5010.499999999997,5000.500000000002 5020.499999999997,5000.500000000003 5028.590169943747,4994.622147477078 5025.499999999999,4985.111582314126 5033.590169943748,4990.989434837052 5025.499999999999,4985.111582314126 5028.590169943749,4975.601017151175 5020.500000000001,4969.72316462825 5012.40983005625,4975.601017151173 5009.319660112502,4966.0904519882215 5017.409830056252,4960.212599465298 5007.409830056252,4960.212599465297 5004.319660112504,4950.702034302345 4996.229490168755,4944.82418177942" stroke="black" stroke-linecap="round" stroke-width="1" /><polyline clip-path="url(#border_clip)" fill="none" points="4996.229490168755,4944.82418177942 4988.139320225006,4938.946329256494 4978.139320225006,4938.946329256493 4975.049150281255,4948.456894419444 4971.958980337507,4938.946329256492 4975.049150281255,4948.456894419444 4966.958980337505,4954.334746942368 4970.049150281254,4963.84531210532 4980.049150281254,4963.845312105321 4976.958980337503,4973.355877268273 4966.958980337503,4973.355877268272 4975.049150281252,4979.233729791197 4971.958980337502,4988.744294954148 4975.04915028125,4998.2548601171 4978.139320224999,5007.765425280052 4986.229490168747,5013.6432778029775 4994.319660112498,5007.765425280054 4991.229490168747,5017.275990443005 4994.319660112498,5007.765425280054 5004.319660112498,5007.765425280055 5007.409830056248,4998.254860117103 4999.319660112499,4992.3770075941775 5007.409830056249,4986.499155071254 5015.499999999998,4992.377007594179 5012.40983005625,4982.866442431227 5020.5,4976.988589908304 5023.59016994375,4967.478024745352 5026.680339887501,4957.967459582401 5023.590169943752,4948.456894419449 5013.590169943752,4948.456894419448 5021.680339887502,4942.579041896524 5013.590169943752,4948.456894419448 5005.500000000003,4942.5790418965225 4997.409830056253,4948.456894419446 5000.500000000002,4957.967459582398 4990.500000000002,4957.967459582397 4987.409830056253,4948.456894419445 4984.319660112503,4957.967459582397 4974.319660112503,4957.967459582396 4966.229490168753,4963.84531210532 4958.139320225003,4969.7231646282435 4955.049150281252,4979.233729791195 4963.139320225001,4985.111582314121" stroke="black" stroke-linecap="round" stroke-width="1" /><polyline clip-path="url(#border_clip)" fill="none" points="4963.139320225001,4985.111582314121 4953.139320225001,4985.11158231412 4963.139320225001,4985.111582314121 4966.229490168749,4994.622147477073 4976.229490168749,4994.622147477074 4979.3196601125,4985.111582314122 4987.409830056249,4990.989434837048 4984.319660112498,5000.499999999999 4992.409830056248,4994.622147477075 5000.499999999997,5000.500000000001 5010.499999999997,5000.500000000002 5020.499999999997,5000.500000000003 5028.590169943747,4994.622147477078 5025.499999999999,4985.111582314126 5033.590169943748,4990.989434837053 5025.499999999999,4985.111582314126 5028.590169943749,4975.601017151175 5020.500000000001,4969.72316462825 5012.40983005625,4975.601017151173 5009.319660112502,4966.090451988222 5017.409830056252,4960.212599465298 5007.409830056252,4960.212599465297 5004.319660112504,4950.702034302345 4996.229490168755,4944.82418177942 4988.139320225006,4938.946329256494 4978.139320225006,4938.946329256493 4975.049150281256,4948.456894419444 4971.958980337507,4938.946329256492 4975.049150281256,4948.456894419444 4966.958980337505,4954.334746942368 4970.049150281254,4963.84531210532 4980.049150281254,4963.845312105321 4976.958980337503,4973.355877268273 4966.958980337503,4973.355877268271 4975.049150281252,4979.233729791197 4971.958980337502,4988.744294954148 4975.04915028125,4998.2548601171 4978.139320224998,5007.765425280052 4986.229490168747,5013.6432778029775 4994.319660112497,5007.765425280053 4991.229490168747,5017.275990443005 4994.319660112497,5007.765425280053 5004.319660112497,5007.765425280055" stroke="black" stroke-linecap="round" stroke-width="1" /><polyline clip-path="url(#border_clip)" fill="none" points="5004.319660112497,5007.765425280055 5007.409830056248,4998.254860117103 4999.319660112499,4992.3770075941775 5007.409830056249,4986.499155071254 5015.499999999998,4992.377007594179 5012.40983005625,4982.866442431227 5020.5,4976.988589908304 5023.59016994375,4967.478024745353 5026.680339887501,4957.967459582401 5023.590169943753,4948.456894419449 5013.590169943752,4948.456894419448 5021.680339887503,4942.579041896524 5013.590169943752,4948.456894419448 5005.500000000004,4942.5790418965225 4997.409830056254,4948.456894419446 5000.500000000002,4957.967459582398 4990.500000000002,4957.967459582397 4987.409830056254,4948.456894419445 4984.319660112503,4957.967459582397 4974.319660112503,4957.967459582395 4966.229490168753,4963.84531210532 4958.139320225003,4969.7231646282435 4955.049150281252,4979.2337297911945 4963.139320225001,4985.11158231412 4953.139320225001,4985.111582314119 4963.139320225001,4985.11158231412 4966.229490168749,4994.622147477072 4976.229490168749,4994.622147477074 4979.3196601125,4985.111582314122 4987.409830056249,4990.989434837048 4984.319660112498,5000.499999999999 4992.409830056248,4994.622147477075 5000.499999999997,5000.500000000001 5010.499999999997,5000.500000000002 5020.499999999997,5000.500000000003 5028.590169943747,4994.622147477079 5025.499999999999,4985.111582314127 5033.590169943748,4990.989434837053 5025.499999999999,4985.111582314127 5028.590169943749,4975.601017151175 5020.500000000001,4969.72316462825 5012.40983005625,4975.601017151174 5009.319660112502,4966.090451988222" stroke="black" stroke-linecap="round" stroke-width="1" /><polyline clip-path="url(#border_clip)" fill="none" points="5009.319660112502,4966.090451988222 5017.409830056252,4960.212599465298 5007.409830056252,4960.212599465297 5004.319660112504,4950.702034302345 4996.229490168755,4944.82418177942 4988.139320225006,4938.946329256494 4978.139320225006,4938.946329256493 4975.049150281256,4948.456894419444 4971.958980337507,4938.946329256492 4975.049150281256,4948.456894419444 4966.958980337506,4954.334746942368 4970.049150281254,4963.84531210532 4980.049150281254,4963.845312105321 4976.958980337503,4973.355877268272 4966.958980337503,4973.355877268271 4975.049150281252,4979.233729791196 4971.958980337502,4988.744294954148 4975.04915028125,4998.2548601171 4978.139320224998,5007.765425280052 4986.229490168747,5013.6432778029775 4994.319660112497,5007.765425280054 4991.229490168747,5017.275990443005 4994.319660112497,5007.765425280054 5004.319660112497,5007.765425280055 5007.409830056248,4998.254860117104 4999.319660112499,4992.3770075941775 5007.409830056249,4986.499155071254 5015.499999999998,4992.377007594179 5012.40983005625,4982.866442431227 5020.5,4976.988589908304 5023.59016994375,4967.478024745353 5026.680339887501,4957.967459582402 5023.590169943753,4948.45689441945 5013.590169943753,4948.456894419448 5021.680339887503,4942.579041896524 5013.590169943753,4948.456894419448 5005.500000000004,4942.5790418965225 4997.409830056254,4948.456894419447 5000.500000000002,4957.967459582398 4990.500000000002,4957.967459582397 4987.409830056254,4948.456894419445 4984.319660112503,4957.967459582396 4974.319660112503,4957.967459582395" stroke="black" stroke-linecap="round" stroke-width="1" /><polyline clip-path="url(#border_clip)" fill="none" points="4974.319660112503,4957.967459582395 4966.229490168753,4963.84531210532 4958.139320225003,4969.7231646282435 4955.049150281252,4979.2337297911945 4963.139320225001,4985.11158231412 4953.139320225001,4985.111582314119 4963.139320225001,4985.11158231412 4966.229490168749,4994.622147477072 4976.229490168749,4994.622147477073 4979.3196601125,4985.111582314122 4987.409830056249,4990.989434837047 4984.319660112498,5000.499999999999 4992.409830056248,4994.622147477075 5000.499999999997,5000.500000000001 5010.499999999997,5000.500000000002 5020.499999999997,5000.500000000003 5028.590169943747,4994.622147477079 5025.499999999999,4985.111582314127 5033.590169943747,4990.989434837053 5025.499999999999,4985.111582314127 5028.590169943749,4975.601017151176 5020.500000000001,4969.72316462825 5012.40983005625,4975.601017151174 5009.319660112502,4966.090451988222 5017.409830056252,4960.212599465299 5007.409830056252,4960.212599465297 5004.319660112504,4950.702034302345 4996.229490168755,4944.82418177942 4988.1393202250065,4938.946329256494 4978.1393202250065,4938.946329256493 4975.049150281256,4948.456894419444 4971.9589803375075,4938.946329256492 4975.049150281256,4948.456894419444 4966.958980337506,4954.334746942368 4970.049150281254,4963.84531210532 4980.049150281254,4963.845312105321 4976.958980337503,4973.355877268272 4966.958980337503,4973.355877268271 4975.049150281252,4979.233729791196 4971.958980337501,4988.744294954148 4975.04915028125,4998.2548601171 4978.139320224998,5007.765425280051 4986.229490168747,5013.6432778029775" stroke="black" stroke-linecap="round" stroke-width="1" /><polyline clip-path="url(#border_clip)" fill="none" points="4986.229490168747,5013.6432778029775 4994.319660112497,5007.765425280054 4991.229490168746,5017.275990443005 4994.319660112497,5007.765425280054 5004.319660112497,5007.765425280055 5007.409830056248,4998.254860117104 4999.319660112499,4992.3770075941775 5007.409830056249,4986.499155071254 5015.499999999998,4992.377007594179 5012.40983005625,4982.866442431227 5020.5,4976.988589908304 5023.59016994375,4967.478024745353 5026.680339887501,4957.967459582402 5023.590169943753,4948.45689441945 5013.590169943753,4948.456894419449 5021.680339887503,4942.579041896524 5013.590169943753,4948.456894419449 5005.500000000004,4942.5790418965225 4997.409830056254,4948.456894419447 5000.500000000002,4957.967459582399 4990.500000000002,4957.967459582397 4987.409830056254,4948.456894419445 4984.319660112503,4957.967459582396 4974.319660112503,4957.967459582395 4966.229490168753,4963.845312105319 4958.139320225003,4969.723164628243 4955.049150281252,4979.2337297911945 4963.139320225001,4985.11158231412 4953.139320225001,4985.111582314119 4963.139320225001,4985.11158231412 4966.229490168749,4994.622147477072 4976.229490168749,4994.622147477073 4979.3196601125,4985.111582314122 4987.409830056248,4990.989434837047 4984.319660112498,5000.499999999999 4992.409830056248,4994.622147477075 5000.499999999997,5000.500000000001 5010.499999999997,5000.500000000002 5020.499999999997,5000.500000000003 5028.590169943747,4994.622147477079 5025.499999999999,4985.111582314127 5033.590169943747,4990.989434837053 5025.499999999999,4985.111582314127" stroke="black" stroke-linecap="round" stroke-width="1" /><polyline clip-path="url(#border_clip)" fill="none" points="5025.499999999999,4985.111582314127 5028.590169943749,4975.601017151176 5020.500000000001,4969.723164628251 5012.40983005625,4975.601017151174 5009.319660112502,4966.090451988222 5017.409830056252,4960.212599465299 5007.409830056252,4960.212599465297 5004.319660112504,4950.702034302345 4996.229490168756,4944.82418177942 4988.1393202250065,4938.946329256494 4978.1393202250065,4938.946329256492 4975.049150281256,4948.456894419444 4971.9589803375075,4938.946329256492 4975.049150281256,4948.456894419444 4966.958980337506,4954.334746942368 4970.049150281254,4963.84531210532 4980.049150281254,4963.845312105321 4976.958980337503,4973.355877268272 4966.958980337503,4973.355877268271 4975.049150281252,4979.233729791196 4971.958980337501,4988.744294954147 4975.049150281249,4998.254860117099 4978.139320224998,5007.765425280051 4986.229490168746,5013.6432778029775 4994.319660112497,5007.765425280054 4991.229490168746,5017.275990443005 4994.319660112497,5007.765425280054 5004.319660112497,5007.765425280055 5007.409830056247,4998.254860117104 4999.319660112499,4992.3770075941775 5007.409830056249,4986.499155071254 5015.499999999998,4992.37700759418 5012.409830056249,4982.866442431228 5020.5,4976.988589908304 5023.59016994375,4967.478024745353 5026.680339887501,4957.967459582402 5023.590169943753,4948.45689441945 5013.590169943753,4948.456894419449 5021.680339887503,4942.579041896525 5013.590169943753,4948.456894419449 5005.500000000004,4942.5790418965225 4997.409830056254,4948.456894419447 5000.500000000002,4957.967459582399" stroke="black" stroke-linecap="round" stroke-width="1" /><polyline clip-path="url(#border_clip)" fill="none" points="5000.500000000002,4957.967459582399 4990.500000000002,4957.967459582397 4987.409830056254,4948.456894419445 4984.319660112503,4957.967459582396 4974.319660112503,4957.967459582395 4966.229490168753,4963.845312105319 4958.139320225003,4969.723164628243 4955.049150281252,4979.233729791194 4963.139320225001,4985.11158231412 4953.139320225001,4985.111582314118 4963.139320225001,4985.11158231412 4966.229490168749,4994.622147477072 4976.229490168749,4994.622147477073 4979.3196601125,4985.111582314122 4987.409830056248,4990.989434837047 4984.319660112497,5000.499999999998 4992.409830056248,4994.622147477075 5000.499999999996,5000.500000000001 5010.499999999996,5000.500000000002 5020.499999999996,5000.500000000004 5028.590169943747,4994.622147477079 5025.499999999999,4985.111582314127 5033.590169943747,4990.9894348370535 5025.499999999999,4985.111582314127 5028.590169943749,4975.601017151176 5020.500000000001,4969.723164628251 5012.40983005625,4975.601017151174 5009.319660112502,4966.090451988222 5017.409830056253,4960.212599465299 5007.409830056253,4960.212599465297 5004.319660112504,4950.702034302345 4996.229490168756,4944.82418177942 4988.1393202250065,4938.946329256494 4978.1393202250065,4938.946329256492 4975.049150281256,4948.456894419443 4971.9589803375075,4938.9463292564915 4975.049150281256,4948.456894419443 4966.958980337506,4954.334746942368 4970.049150281254,4963.84531210532 4980.049150281254,4963.845312105321 4976.958980337503,4973.355877268272 4966.958980337503,4973.355877268271 4975.049150281252,4979.233729791196" stroke="black" stroke-linecap="round" stroke-width="1" /><polyline clip-path="url(#border_clip)" fill="none" points="4975.049150281252,4979.233729791196 4971.958980337501,4988.744294954147 4975.049150281249,4998.254860117099 4978.139320224997,5007.765425280051 4986.229490168746,5013.6432778029775 4994.319660112496,5007.765425280054 4991.229490168746,5017.275990443005 4994.319660112496,5007.765425280054 5004.319660112496,5007.765425280055 5007.409830056247,4998.254860117104 4999.319660112499,4992.3770075941775 5007.409830056249,4986.499155071254 5015.499999999997,4992.37700759418 5012.409830056249,4982.866442431228 5020.5,4976.988589908305 5023.590169943751,4967.478024745354 5026.680339887501,4957.967459582402 5023.590169943753,4948.45689441945 5013.590169943753,4948.456894419449 5021.680339887504,4942.579041896525 5013.590169943753,4948.456894419449 5005.500000000005,4942.579041896523 4997.409830056254,4948.456894419447 5000.500000000002,4957.967459582399 4990.500000000002,4957.967459582397 4987.409830056254,4948.456894419445 4984.319660112503,4957.967459582396 4974.319660112503,4957.967459582395 4966.229490168753,4963.845312105319 4958.139320225003,4969.723164628243 4955.049150281252,4979.233729791194 4963.139320225001,4985.11158231412 4953.139320225001,4985.111582314118 4963.139320225001,4985.11158231412 4966.229490168749,4994.622147477072 4976.229490168749,4994.622147477073 4979.3196601125,4985.111582314122 4987.409830056248,4990.989434837047 4984.319660112497,5000.499999999998 4992.409830056248,4994.622147477075 5000.499999999996,5000.500000000001 5010.499999999996,5000.500000000002 5020.499999999996,5000.500000000004" stroke="black" stroke-linecap="round" stroke-width="1" /><polyline clip-path="url(#border_clip)" fill="none" points="5020.499999999996,5000.500000000004 5028.590169943747,4994.62214747708 5025.499999999998,4985.111582314128 5033.590169943747,4990.9894348370535 5025.499999999998,4985.111582314128 5028.590169943749,4975.601017151177 5020.500000000001,4969.723164628251 5012.40983005625,4975.601017151174 5009.319660112502,4966.090451988222 5017.409830056253,4960.212599465299 5007.409830056253,4960.212599465298 5004.319660112505,4950.702034302346 4996.229490168756,4944.82418177942 4988.1393202250065,4938.946329256494 4978.1393202250065,4938.946329256492 4975.0491502812565,4948.456894419443 4971.9589803375075,4938.9463292564915 4975.0491502812565,4948.456894419443 4966.958980337506,4954.334746942367 4970.049150281254,4963.845312105319 4980.049150281254,4963.845312105321 4976.958980337503,4973.355877268272 4966.958980337503,4973.35587726827 4975.049150281252,4979.233729791196 4971.958980337501,4988.744294954147 4975.049150281249,4998.254860117099 4978.139320224997,5007.765425280051 4986.229490168746,5013.6432778029775 4994.319660112496,5007.765425280054 4991.2294901687455,5017.275990443005 4994.319660112496,5007.765425280054 5004.319660112496,5007.765425280055 5007.409830056247,4998.254860117104 4999.319660112498,4992.3770075941775 5007.409830056249,4986.499155071254 5015.499999999997,4992.37700759418 5012.409830056249,4982.866442431228 5020.5,4976.988589908305 5023.590169943751,4967.478024745354 5026.680339887501,4957.967459582403 5023.590169943753,4948.456894419451 5013.590169943753,4948.456894419449 5021.680339887504,4942.579041896525" stroke="black" stroke-linecap="round" stroke-width="1" /><polyline clip-path="url(#border_clip)" fill="none" points="5021.680339887504,4942.579041896525 5013.590169943753,4948.456894419449 5005.500000000005,4942.579041896523 4997.409830056254,4948.456894419447 5000.500000000002,4957.967459582399 4990.500000000002,4957.967459582397 4987.409830056254,4948.456894419445 4984.319660112504,4957.967459582396 4974.319660112504,4957.967459582395 4966.229490168753,4963.845312105319 4958.139320225003,4969.723164628243 4955.049150281252,4979.233729791194 4963.139320225,4985.111582314119 4953.139320225,4985.111582314118 4963.139320225,4985.111582314119 4966.229490168749,4994.622147477071 4976.229490168749,4994.622147477073 4979.319660112499,4985.111582314122 4987.409830056248,4990.989434837047 4984.319660112497,5000.499999999998 4992.409830056247,4994.622147477075 5000.499999999996,5000.500000000001 5010.499999999996,5000.500000000002 5020.499999999996,5000.500000000004 5028.590169943746,4994.62214747708 5025.499999999998,4985.111582314128 5033.590169943747,4990.9894348370535 5025.499999999998,4985.111582314128 5028.590169943749,4975.601017151177 5020.500000000001,4969.723164628251 5012.40983005625,4975.601017151174 5009.319660112502,4966.090451988222 5017.409830056253,4960.212599465299 5007.409830056253,4960.212599465298 5004.319660112505,4950.702034302346 4996.229490168756,4944.82418177942 4988.139320225007,4938.946329256494 4978.139320225007,4938.946329256492 4975.0491502812565,4948.456894419443 4971.958980337508,4938.9463292564915 4975.0491502812565,4948.456894419443 4966.958980337506,4954.334746942367 4970.049150281254,4963.845312105319" stroke="black" stroke-linecap="round" stroke-width="1" /><polyline clip-path="url(#border_clip)" fill="none" points="4970.049150281254,4963.845312105319 4980.049150281254,4963.845312105321 4976.958980337503,4973.355877268272 4966.958980337503,4973.35587726827 4975.049150281252,4979.233729791196 4971.958980337501,4988.744294954147 4975.049150281249,4998.254860117099 4978.139320224997,5007.765425280051 4986.2294901687455,5013.6432778029775 4994.319660112496,5007.765425280054 4991.2294901687455,5017.275990443005 4994.319660112496,5007.765425280054 5004.319660112496,5007.765425280055 5007.409830056247,4998.254860117104 4999.319660112498,4992.3770075941775 5007.409830056249,4986.499155071255 5015.499999999997,4992.37700759418 5012.409830056249,4982.866442431228 5020.5,4976.988589908305 5023.590169943751,4967.478024745354 5026.680339887502,4957.967459582403 5023.590169943754,4948.456894419451 5013.590169943754,4948.456894419449 5021.680339887504,4942.579041896525 5013.590169943754,4948.456894419449 5005.500000000005,4942.579041896523 4997.409830056255,4948.456894419447 5000.500000000003,4957.967459582399 4990.500000000003,4957.967459582397 4987.409830056255,4948.456894419445 4984.319660112504,4957.967459582396 4974.319660112504,4957.967459582394 4966.229490168753,4963.845312105318 4958.139320225003,4969.723164628242 4955.049150281252,4979.233729791193 4963.139320225,4985.111582314119 4953.139320225,4985.111582314117 4963.139320225,4985.111582314119 4966.229490168748,4994.622147477071 4976.229490168748,4994.622147477073 4979.319660112499,4985.111582314122 4987.409830056248,4990.989434837047 4984.319660112497,5000.499999999998" stroke="black" stroke-linecap="round" stroke-width="1" /><polyline clip-path="url(#border_clip)" fill="none" points="4984.319660112497,5000.499999999998 4992.409830056247,4994.622147477075 5000.499999999996,5000.500000000001 5010.499999999996,5000.500000000002 5020.499999999996,5000.500000000004 5028.590169943746,4994.62214747708 5025.499999999998,4985.111582314128 5033.590169943747,4990.989434837054 5025.499999999998,4985.111582314128 5028.590169943749,4975.601017151177 5020.500000000001,4969.723164628251 5012.40983005625,4975.601017151174 5009.319660112503,4966.090451988222 5017.409830056253,4960.212599465299 5007.409830056253,4960.212599465298 5004.319660112505,4950.702034302346 4996.229490168756,4944.82418177942 4988.139320225007,4938.946329256494 4978.139320225007,4938.946329256492 4975.0491502812565,4948.456894419443 4971.958980337508,4938.9463292564915 4975.0491502812565,4948.456894419443 4966.958980337507,4954.334746942367 4970.049150281254,4963.845312105319 4980.049150281254,4963.845312105321 4976.958980337503,4973.355877268272 4966.958980337503,4973.35587726827 4975.049150281252,4979.233729791196 4971.958980337501,4988.744294954147 4975.049150281249,4998.254860117099 4978.139320224997,5007.765425280051 4986.2294901687455,5013.643277802977 4994.319660112496,5007.765425280054 4991.2294901687455,5017.275990443005 4994.319660112496,5007.765425280054 5004.319660112496,5007.765425280055 5007.409830056247,4998.254860117104 4999.319660112498,4992.377007594178 5007.409830056249,4986.499155071255 5015.499999999997,4992.37700759418 5012.409830056249,4982.866442431228 5020.5,4976.988589908305 5023.590169943751,4967.478024745354" stroke="black" stroke-linecap="round" stroke-width="1" /><polyline clip-path="url(#border_clip)" fill="none" points="5023.590169943751,4967.478024745354 5026.680339887502,4957.967459582403 5023.590169943754,4948.456894419451 5013.590169943754,4948.456894419449 5021.680339887504,4942.579041896525 5013.590169943754,4948.456894419449 5005.500000000005,4942.579041896523 4997.409830056255,4948.456894419447 5000.500000000003,4957.967459582399 4990.500000000003,4957.967459582397 4987.409830056255,4948.456894419445 4984.319660112504,4957.967459582396 4974.319660112504,4957.967459582394 4966.229490168753,4963.845312105318 4958.139320225003,4969.723164628242 4955.049150281252,4979.233729791193 4963.139320225,4985.111582314119 4953.139320225,4985.111582314117 4963.139320225,4985.111582314119 4966.229490168748,4994.622147477071 4976.229490168748,4994.622147477073 4979.319660112499,4985.111582314121 4987.409830056248,4990.989434837047 4984.319660112497,5000.499999999998 4992.409830056247,4994.622147477075 5000.499999999996,5000.500000000001 5010.499999999996,5000.500000000003 5020.499999999996,5000.500000000004 5028.590169943746,4994.62214747708 5025.499999999998,4985.111582314128 5033.590169943747,4990.989434837054 5025.499999999998,4985.111582314128 5028.590169943749,4975.601017151177 5020.500000000001,4969.723164628252 5012.40983005625,4975.601017151174 5009.319660112503,4966.090451988222 5017.409830056253,4960.2125994653 5007.409830056253,4960.212599465298 5004.319660112505,4950.702034302346 4996.2294901687565,4944.82418177942 4988.139320225007,4938.946329256493 4978.139320225007,4938.946329256492 4975.0491502812565,4948.456894419443" stroke="black" stroke-linecap="round" stroke-width="1" /><polyline clip-path="url(#border_clip)" fill="none" points="4975.0491502812565,4948.456894419443 4971.958980337508,4938.9463292564915 4975.0491502812565,4948.456894419443 4966.958980337507,4954.334746942367 4970.049150281255,4963.845312105319 4980.049150281255,4963.84531210532 4976.958980337503,4973.355877268272 4966.958980337503,4973.35587726827 4975.049150281252,4979.233729791195 4971.958980337501,4988.744294954146 4975.049150281249,4998.254860117099 4978.1393202249965,5007.765425280051 4986.2294901687455,5013.643277802977 4994.3196601124955,5007.765425280053 4991.229490168745,5017.275990443005 4994.3196601124955,5007.765425280053 5004.3196601124955,5007.765425280055 5007.409830056246,4998.254860117104 4999.319660112498,4992.377007594178 5007.409830056249,4986.499155071255 5015.499999999997,4992.37700759418 5012.409830056249,4982.866442431228 5020.5,4976.988589908305 5023.590169943751,4967.478024745354 5026.680339887502,4957.967459582403 5023.590169943754,4948.456894419451 5013.590169943754,4948.456894419449 5021.680339887504,4942.579041896526 5013.590169943754,4948.456894419449 5005.5000000000055,4942.579041896523 4997.409830056255,4948.456894419447 5000.500000000003,4957.967459582399 4990.500000000003,4957.967459582397 4987.409830056255,4948.456894419445 4984.319660112504,4957.967459582396 4974.319660112504,4957.967459582394 4966.229490168753,4963.845312105318 4958.139320225003,4969.723164628242 4955.049150281252,4979.233729791193 4963.139320225,4985.111582314119 4953.139320225,4985.111582314117 4963.139320225,4985.111582314119 4966.229490168748,4994.622147477071" stroke="black" stroke-linecap="round" stroke-width="1" /><polyline clip-path="url(#border_clip)" fill="none" points="4966.229490168748,4994.622147477071 4976.229490168748,4994.622147477072 4979.319660112499,4985.111582314121 4987.409830056248,4990.989434837047 4984.319660112497,5000.499999999998 4992.409830056247,4994.622147477075 5000.499999999995,5000.500000000001" stroke="black" stroke-linecap="round" stroke-width="1" /></svg>