<?xml version="1.0" encoding="utf-8" ?>
<svg baseProfile="full" height="1000px" version="1.1" width="1000px" xmlns="http://www.w3.org/2000/svg" xmlns:ev="http://www.w3.org/2001/xml-events" xmlns:xlink="http://www.w3.org/1999/xlink"><defs><clipPath id="border_clip"><rect height="1000" width="1000" x="0" y="0" /></clipPath></defs><polyline clip-path="url(#border_clip)" fill="none" points="500.5,500.5 510.5,500.5 518.5901699437495,494.62214747707526 515.5,485.1115823141237 512.4098300562505,475.6010171511722 509.319660112501,485.1115823141237 499.319660112501,485.1115823141237 491.22949016875157,490.98943483704846 481.22949016875157,490.98943483704846 478.1393202250021,500.5 470.04915028125265,494.62214747707526 478.1393202250021,488.7442949541505 481.22949016875157,479.233729791199 484.3196601125011,469.72316462824745 494.3196601125011,469.72316462824745 486.2294901687516,463.8453121053227 483.1393202250021,473.35587726827424 493.1393202250021,473.35587726827424 490.04915028125265,482.8664424312258 500.04915028125265,482.86644243122583 491.95898033750314,476.98858990830104 488.86881039375373,467.4780247453495 480.7786404500042,473.35587726827424 470.7786404500042,473.3558772682742 473.86881039375373,463.8453121053227 470.7786404500042,473.3558772682742 462.6884705062547,479.2337297911989 454.59830056250524,485.1115823141236 462.6884705062547,490.9894348370484 452.6884705062547,490.98943483704835 444.5983005625052,496.86728735997303 454.5983005625052,496.8672873599731 446.50813061875573,490.98943483704835 454.5983005625052,496.8672873599731 446.5081306187557,502.7451398828978 438.41796067500627,496.86728735997303 435.32779073125675,506.37785252292457 438.41796067500616,515.8884176858761 446.5081306187557,510.0105651629514 443.41796067500627,500.49999999999983 446.5081306187557,510.0105651629514 454.5983005625052,504.1327126400267 462.6884705062547,498.254860117102" stroke="black" stroke-linecap="round" stroke-width="1" /><polyline clip-path="url(#border_clip)" fill="none" points="462.6884705062547,498.254860117102 465.7786404500042,488.7442949541505 457.68847050625476,482.8664424312257 449.5983005625053,476.9885899083009 452.6884705062547,486.4991550712525 444.5983005625052,492.3770075941772 441.5081306187557,501.88757275712874 433.4179606750062,507.7654252800534 436.5081306187556,517.275990443005 426.5081306187556,517.275990443005 429.5983005625052,507.7654252800534 426.50813061875573,498.2548601171018 423.41796067500627,488.7442949541503 431.5081306187558,482.8664424312256 421.5081306187558,482.86644243122555 424.5983005625052,492.3770075941771 432.6884705062547,486.4991550712524 435.77864045000416,496.00972023420394 443.8688103937537,490.13186771127926 433.8688103937536,490.1318677112792 425.7786404500042,484.25401518835446 422.6884705062547,493.76458035130594 414.5983005625052,499.6424328742306 411.5081306187558,490.1318677112791 414.5983005625052,499.6424328742306 411.5081306187556,509.15299803718216 408.41796067500604,518.6635632001337 418.41796067500604,518.6635632001337 410.3277907312565,524.5414157230584 407.237620787507,534.0519808860099 415.3277907312565,528.1741283630853 405.3277907312565,528.1741283630852 415.3277907312565,528.1741283630853 412.237620787507,537.6846935260368 402.237620787507,537.6846935260367 405.3277907312564,547.1952586889882 413.4179606750058,553.0731112119131 416.5081306187554,543.5625460489615 408.41796067500593,537.6846935260368 416.5081306187554,543.5625460489615 419.59830056250496,534.05198088601 422.6884705062545,524.5414157230585 419.5983005625051,515.030850560107" stroke="black" stroke-linecap="round" stroke-width="1" /><polyline clip-path="url(#border_clip)" fill="none" points="419.5983005625051,515.030850560107 409.5983005625051,515.0308505601068 399.5983005625051,515.0308505601067 407.68847050625453,520.9087030830316 404.59830056250496,530.4192682459831 407.68847050625436,539.9298334089347 404.5983005625048,549.4403985718861 412.68847050625425,555.318251094811 404.5983005625047,561.1961036177356 401.50813061875533,551.685538454784 393.4179606750059,545.8076859318593 385.3277907312564,539.9298334089344 388.41796067500604,530.419268245983 380.32779073125647,536.2971207689076 388.4179606750059,542.1749732918324 391.50813061875544,532.6644081288808 399.59830056250485,538.5422606518057 402.6884705062545,529.0316954888542 394.5983005625049,534.9095480117788 384.5983005625049,534.9095480117787 387.68847050625425,544.4201131747303 384.5983005625047,553.9306783376818 376.5081306187553,548.0528258147569 384.5983005625047,553.9306783376818 387.688470506254,563.4412435006334 390.7786404500034,572.951808663585 398.86881039375294,567.0739561406604 395.77864045000337,576.5845213036118 398.86881039375277,586.0950864665634 401.95898033750234,576.584521303612 393.86881039375277,582.4623738265366 401.95898033750234,576.584521303612 405.0491502812517,586.0950864665635 396.9589803375021,591.9729389894882 405.04915028125157,597.850791512413 415.04915028125157,597.8507915124131 411.9589803375022,588.3402263494615 401.9589803375022,588.3402263494614 411.9589803375022,588.3402263494615 408.8688103937528,578.82966118651 405.7786404500035,569.3190960235584 397.6884705062541,563.4412435006335 389.5983005625045,569.3190960235581" stroke="black" stroke-linecap="round" stroke-width="1" /><polyline clip-path="url(#border_clip)" fill="none" points="389.5983005625045,569.3190960235581 381.508130618755,575.1969485464828 391.508130618755,575.1969485464829 394.59830056250433,584.7075137094345 402.68847050625374,590.5853662323593 405.7786404500031,600.0959313953109 415.7786404500031,600.095931395311 412.68847050625345,609.6064965582625 404.59830056250405,603.7286440353377 394.59830056250405,603.7286440353375 384.59830056250405,603.7286440353374 381.5081306187547,594.2180788723858 378.4179606750051,603.7286440353373 388.41796067500513,603.7286440353374 385.32779073125573,594.2180788723858 395.3277907312558,594.2180788723861 392.23762078750644,584.7075137094345 389.1474508437568,594.218078872386 381.05728090000724,600.0959313953106 389.14745084375664,605.9737839182354 392.237620787506,615.484349081187 382.237620787506,615.4843490811868 392.237620787506,615.484349081187 400.3277907312554,621.3622016041119 408.41796067500474,627.2400541270367 411.50813061875436,617.7294889640852 414.5983005625037,627.2400541270368 422.6884705062531,633.1179066499617 419.59830056250377,623.6073414870101 416.50813061875414,633.1179066499616 419.59830056250377,623.6073414870101 427.68847050625317,629.485194009935 424.5983005625035,638.9957591728864 434.59830056250354,638.9957591728867 442.6884705062531,633.117906649962 434.5983005625037,627.2400541270372 426.50813061875414,633.1179066499618 434.5983005625037,627.2400541270372 426.5081306187543,621.3622016041123 418.41796067500496,615.4843490811875 408.4179606750049,615.4843490811872 405.3277907312553,624.9949142441387 402.23762078750565,634.5054794070902" stroke="black" stroke-linecap="round" stroke-width="1" /><polyline clip-path="url(#border_clip)" fill="none" points="402.23762078750565,634.5054794070902 410.3277907312552,628.6276268841657 418.4179606750046,634.5054794070905 428.4179606750046,634.5054794070907 436.508130618754,640.3833319300156 444.5983005625036,634.505479407091 447.68847050625294,644.0160445700426 437.6884705062529,644.0160445700424 429.5983005625033,649.893897092967 421.50813061875374,655.7717496158916 413.41796067500434,649.8938970929668 416.5081306187536,659.4044622559184 424.59830056250325,653.5266097329937 416.50813061875385,647.6487572100689 424.5983005625035,641.7709046871443 416.5081306187541,635.8930521642194 419.59830056250337,645.403617327171 416.50813061875374,654.9141824901226 426.50813061875374,654.9141824901227 434.59830056250314,660.7920350130477 426.5081306187535,666.6698875359723 434.59830056250314,660.7920350130477 444.59830056250314,660.7920350130478 454.5983005625032,660.792035013048 451.5081306187539,651.2814698500964 459.59830056250325,657.1593223730213 469.5983005625033,657.1593223730215 461.5081306187539,651.2814698500966 464.5983005625032,660.7920350130482 461.5081306187539,651.2814698500966 471.50813061875397,651.2814698500968 474.59830056250325,660.7920350130485 482.6884705062529,654.9141824901238 485.7786404500025,645.4036173271724 475.7786404500025,645.4036173271721 472.6884705062528,654.9141824901237 475.7786404500025,645.4036173271721 465.7786404500025,645.4036173271719 455.77864045000246,645.4036173271717 447.6884705062528,651.2814698500963 450.7786404500021,660.7920350130479 453.8688103937514,670.3026001759995 456.9589803375011,660.792035013048" stroke="black" stroke-linecap="round" stroke-width="1" /><polyline clip-path="url(#border_clip)" fill="none" points="456.9589803375011,660.792035013048 466.9589803375011,660.7920350130482 475.0491502812507,654.9141824901237 485.0491502812508,654.914182490124 488.13932022500046,645.4036173271724 496.22949016874986,651.2814698500973 488.13932022500023,657.159322373022 485.0491502812505,666.6698875359734 481.9589803375008,676.1804526989249 471.95898033750075,676.1804526989247 480.04915028125015,682.0583052218497 483.13932022499984,672.5477400588982 473.13932022499984,672.547740058898 476.2294901687495,663.0371748959464 466.22949016874946,663.0371748959461 474.31966011249887,668.9150274188711 477.4098300562481,678.4255925818227 485.4999999999977,672.5477400588982 495.4999999999978,672.5477400588984 492.4098300562481,682.0583052218499 495.4999999999978,672.5477400588984 503.5901699437474,666.6698875359739 511.6803398874971,660.7920350130494 503.5901699437477,654.9141824901244 513.5901699437478,654.9141824901246 521.6803398874974,649.0363299672001 511.6803398874974,649.0363299671999 519.7705098312467,654.9141824901249 511.6803398874974,649.0363299671999 519.7705098312471,643.1584774442753 527.8606797749964,649.0363299672002 530.9508497187461,639.5257648042488 527.8606797749969,630.0151996412972 519.7705098312472,635.8930521642217 522.8606797749965,645.4036173271733 519.7705098312472,635.8930521642217 511.68033988749755,641.7709046871462 503.59016994374787,647.6487572100707 500.4999999999982,657.1593223730222 508.5901699437475,663.0371748959471 516.6803398874969,668.9150274188721 513.5901699437476,659.4044622559205 521.6803398874973,653.5266097329959" stroke="black" stroke-linecap="round" stroke-width="1" /><polyline clip-path="url(#border_clip)" fill="none" points="521.6803398874973,653.5266097329959 524.7705098312471,644.0160445700444 532.8606797749967,638.1381920471199 529.7705098312474,628.6276268841683 539.7705098312475,628.6276268841685 536.6803398874978,638.13819204712 539.770509831247,647.6487572100717 542.8606797749962,657.1593223730233 534.7705098312465,663.0371748959478 544.7705098312466,663.0371748959482 541.6803398874973,653.5266097329966 533.5901699437477,659.4044622559211 530.4999999999985,649.8938970929694 522.4098300562488,655.7717496158939 532.4098300562489,655.7717496158942 540.4999999999982,661.6496021388192 543.5901699437479,652.1390369758677 551.6803398874977,646.2611844529432 554.7705098312468,655.7717496158949 551.6803398874977,646.2611844529433 554.7705098312474,636.7506192899918 557.8606797749972,627.2400541270404 547.8606797749972,627.24005412704 555.9508497187468,621.3622016041155 559.0410196624965,611.851636441164 550.9508497187469,617.7294889640885 560.9508497187469,617.7294889640889 550.9508497187469,617.7294889640885 554.0410196624966,608.2189238011371 564.0410196624966,608.2189238011374 560.9508497187475,598.7083586381857 552.8606797749982,592.8305061152607 549.7705098312484,602.3410712782122 557.8606797749977,608.2189238011372 549.7705098312484,602.3410712782121 546.6803398874986,611.8516364411636 543.5901699437488,621.3622016041151 546.680339887498,630.8727667670668 556.6803398874981,630.8727667670671 566.6803398874981,630.8727667670673 558.5901699437488,624.9949142441424 561.6803398874986,615.4843490811909 558.5901699437494,605.9737839182392" stroke="black" stroke-linecap="round" stroke-width="1" /><polyline clip-path="url(#border_clip)" fill="none" points="558.5901699437494,605.9737839182392 561.6803398874991,596.4632187552877 553.5901699437499,590.5853662323627 561.6803398874995,584.7075137094382 564.7705098312488,594.2180788723899 572.8606797749981,600.0959313953149 580.9508497187473,605.97378391824 577.8606797749976,615.4843490811915 585.9508497187473,609.6064965582669 577.860679774998,603.7286440353419 574.7705098312482,613.2392091982933 566.6803398874988,607.3613566753684 563.5901699437491,616.8719218383198 571.6803398874988,610.9940693153953 581.6803398874988,610.9940693153957 578.5901699437496,601.483504152444 581.6803398874995,591.9729389894925 589.7705098312488,597.8507915124176 581.6803398874995,591.9729389894925 578.5901699437502,582.4623738265408 575.5000000000011,572.9518086635892 567.4098300562514,578.8296611865136 570.5000000000011,569.3190960235621 567.409830056252,559.8085308606104 564.3196601125022,569.3190960235619 572.4098300562518,563.4412435006375 564.3196601125022,569.3190960235619 561.229490168753,559.8085308606103 569.3196601125028,553.9306783376858 561.2294901687534,548.0528258147607 551.2294901687534,548.0528258147604 554.3196601125026,557.5633909777121 564.3196601125026,557.5633909777124 554.3196601125026,557.5633909777121 557.4098300562517,567.0739561406638 560.5000000000009,576.5845213036155 568.5901699437502,582.4623738265404 576.6803398874999,576.584521303616 584.7705098312496,570.7066687806915 574.7705098312496,570.7066687806912 571.6803398875004,561.1961036177395 563.5901699437511,555.3182510948144 560.5000000000019,545.8076859318627" stroke="black" stroke-linecap="round" stroke-width="1" /><polyline clip-path="url(#border_clip)" fill="none" points="560.5000000000019,545.8076859318627 550.5000000000019,545.8076859318624 553.5901699437517,536.2971207689109 561.6803398875011,542.174973291836 571.6803398875011,542.1749732918363 581.6803398875011,542.1749732918367 584.7705098312503,551.6855384547883 587.8606797750001,542.174973291837 577.8606797750001,542.1749732918365 580.9508497187492,551.6855384547882 570.9508497187492,551.6855384547879 574.0410196624983,561.1961036177396 577.1311896062482,551.6855384547881 585.2213595499978,545.8076859318636 577.1311896062485,539.9298334089385 574.0410196624995,530.4192682459869 584.0410196624995,530.4192682459873 574.0410196624995,530.4192682459869 565.9508497187502,524.5414157230618 557.8606797750009,518.6635632001368 554.770509831251,528.1741283630882 551.6803398875019,518.6635632001365 543.5901699437526,512.7857106772115 546.6803398875018,522.2962758401632 549.7705098312516,512.7857106772117 546.6803398875018,522.2962758401632 538.5901699437525,516.4184233172381 541.6803398875023,506.9078581542866 531.6803398875022,506.9078581542862 523.5901699437525,512.7857106772107 531.6803398875018,518.6635632001357 539.7705098312515,512.7857106772112 531.6803398875018,518.6635632001357 539.770509831251,524.5414157230608 547.8606797750003,530.4192682459859 557.8606797750004,530.4192682459862 560.9508497187503,520.9087030830349 564.0410196625002,511.39813792008334 555.9508497187504,517.2759904430078 547.8606797750011,511.3981379200827 537.860679775001,511.3981379200823 529.7705098312517,505.52028539715724 521.680339887502,511.39813792008164" stroke="black" stroke-linecap="round" stroke-width="1" /><polyline clip-path="url(#border_clip)" fill="none" points="521.680339887502,511.39813792008164 518.5901699437529,501.88757275712993 528.5901699437529,501.88757275713033 536.6803398875027,496.00972023420593 544.7705098312525,490.1318677112815 552.8606797750017,496.00972023420655 549.7705098312526,486.49915507125485 541.6803398875029,492.3770075941793 549.7705098312522,498.2548601171044 541.6803398875024,504.1327126400288 549.7705098312517,510.0105651629539 546.6803398875026,500.5000000000022 549.7705098312525,490.98943483705074 539.7705098312524,490.9894348370503 531.6803398875031,485.1115823141252 539.7705098312529,479.23372979120074 531.6803398875031,485.1115823141252 521.6803398875031,485.11158231412475 511.680339887503,485.11158231412435 514.7705098312521,494.62214747707606 506.68033988750284,488.744294954151 496.6803398875027,488.7442949541505 504.770509831252,494.62214747707566 501.68033988750295,485.1115823141239 504.770509831252,494.62214747707566 494.77050983125196,494.6221474770752 491.6803398875029,485.11158231412344 483.5901699437531,490.9894348370479 480.5000000000032,500.4999999999993 490.50000000000324,500.4999999999998 493.59016994375315,490.9894348370483 490.50000000000324,500.4999999999998 500.5000000000033,500.5000000000002 510.50000000000335,500.5000000000007 518.5901699437532,494.6221474770763 515.5000000000041,485.1115823141245 512.409830056255,475.6010171511728 509.3196601125051,485.11158231412423 499.31966011250506,485.1115823141238 491.22949016875526,490.9894348370482 481.2294901687552,490.9894348370478 478.13932022500524,500.4999999999992 470.049150281256,494.62214747707407" stroke="black" stroke-linecap="round" stroke-width="1" /><polyline clip-path="url(#border_clip)" fill="none" points="470.049150281256,494.62214747707407 478.1393202250058,488.74429495414967 481.2294901687557,479.23372979119824 484.31966011250563,469.72316462824676 494.3196601125057,469.7231646282472 486.22949016875646,463.8453121053221 483.13932022500654,473.3558772682735 493.1393202250066,473.355877268274 490.04915028125663,482.86644243122544 500.04915028125674,482.8664424312259 491.95898033750746,476.98858990830075 488.8688103937584,467.478024745349 480.7786404500086,473.3558772682734 470.77864045000854,473.35587726827293 473.8688103937585,463.84531210532145 470.77864045000854,473.35587726827293 462.68847050625874,479.23372979119733 454.59830056250894,485.11158231412173 462.68847050625817,490.9894348370469 452.6884705062581,490.9894348370464 444.59830056250826,496.86728735997076 454.59830056250837,496.8672873599713 446.5081306187591,490.9894348370461 454.59830056250837,496.8672873599713 446.5081306187585,502.74513988289567 438.4179606750093,496.8672873599705 435.3277907312593,506.37785252292196 438.4179606750084,515.8884176858737 446.5081306187582,510.0105651629493 443.41796067500917,500.49999999999756 446.5081306187582,510.0105651629493 454.59830056250803,504.1327126400249 462.68847050625783,498.2548601171006 465.7786404500078,488.7442949541491 457.68847050625857,482.86644243122396 449.5983005625093,476.98858990829876 452.68847050625834,486.4991550712505 444.5983005625085,492.37700759417487 441.5081306187585,501.88757275712635 433.4179606750087,507.76542528005075 436.5081306187577,517.2759904430025 426.50813061875766,517.275990443002 429.59830056250763,507.7654252800505" stroke="black" stroke-linecap="round" stroke-width="1" /><polyline clip-path="url(#border_clip)" fill="none" points="429.59830056250763,507.7654252800505 426.5081306187586,498.25486011709876 423.41796067500957,488.744294954147 431.5081306187594,482.86644243122265 421.5081306187593,482.86644243122214 424.59830056250837,492.3770075941739 432.68847050625817,486.4991550712495 435.7786404500072,496.00972023420127 443.86881039375703,490.1318677112769 433.8688103937569,490.1318677112764 425.77864045000774,484.2540151883512 422.6884705062577,493.7645803513027 414.5983005625079,499.64243287422704 411.50813061875886,490.1318677112753 414.59830056250786,499.64243287422704 411.5081306187579,509.1529980371785 408.4179606750079,518.6635632001299 418.417960675008,518.6635632001305 410.3277907312581,524.5414157230548 407.23762078750815,534.0519808860063 415.327790731258,528.1741283630819 405.3277907312579,528.1741283630814 415.327790731258,528.1741283630819 412.237620787508,537.6846935260334 402.2376207875079,537.6846935260329 405.3277907312569,547.1952586889846 413.41796067500616,553.0731112119098 416.5081306187561,543.5625460489584 408.4179606750069,537.6846935260332 416.5081306187561,543.5625460489584 419.59830056250615,534.051980886007 422.6884705062561,524.5414157230555 419.5983005625071,515.0308505601037 409.59830056250706,515.0308505601032 399.598300562507,515.0308505601026 407.6884705062562,520.9087030830278 404.5983005625062,530.4192682459793 407.68847050625516,539.9298334089311 404.5983005625052,549.4403985718825 412.68847050625436,555.3182510948078 404.5983005625045,561.1961036177321 401.50813061875556,551.6855384547803 393.4179606750063,545.8076859318551" stroke="black" stroke-linecap="round" stroke-width="1" /><polyline clip-path="url(#border_clip)" fill="none" points="393.4179606750063,545.8076859318551 385.3277907312571,539.9298334089299 388.4179606750071,530.4192682459784 380.3277907312572,536.2971207689028 388.41796067500644,542.174973291828 391.50813061875647,532.6644081288765 399.5983005625057,538.5422606518018 402.6884705062557,529.0316954888503 394.59830056250587,534.9095480117746 384.59830056250576,534.9095480117741 387.68847050625476,544.4201131747259 384.59830056250473,553.9306783376774 376.5081306187555,548.0528258147522 384.59830056250473,553.9306783376774 387.6884705062537,563.4412435006292 390.7786404500027,572.9518086635809 398.86881039375254,567.0739561406566 395.7786404500025,576.5845213036081 398.86881039375146,586.0950864665599 401.9589803375015,576.5845213036084 393.86881039375163,582.4623738265327 401.9589803375015,576.5845213036084 405.0491502812505,586.0950864665601 396.9589803375006,591.9729389894845 405.0491502812498,597.8507915124097 415.0491502812499,597.8507915124103 411.9589803375009,588.3402263494586 401.95898033750086,588.3402263494579 411.9589803375009,588.3402263494586 408.86881039375197,578.8296611865068 405.77864045000297,569.319096023555 397.6884705062538,563.4412435006296 389.5983005625039,569.319096023554 381.508130618754,575.1969485464783 391.5081306187541,575.1969485464789 394.598300562503,584.7075137094307 402.68847050625226,590.5853662323559 405.7786404500012,600.0959313953077 415.77864045000126,600.0959313953083 412.68847050625124,609.6064965582598 404.598300562502,603.7286440353345 394.59830056250195,603.7286440353339 384.5983005625019,603.7286440353333" stroke="black" stroke-linecap="round" stroke-width="1" /><polyline clip-path="url(#border_clip)" fill="none" points="384.5983005625019,603.7286440353333 381.50813061875294,594.2180788723815 378.41796067500286,603.728644035333 388.417960675003,603.7286440353336 385.327790731254,594.2180788723817 395.3277907312541,594.2180788723824 392.23762078750514,584.7075137094306 389.1474508437551,594.218078872382 381.0572809000052,600.0959313953063 389.14745084375437,605.9737839182316 392.2376207875033,615.4843490811834 382.2376207875032,615.4843490811828 392.2376207875033,615.4843490811834 400.32779073125255,621.3622016041087 408.4179606750017,627.240054127034 411.5081306187518,617.7294889640825 414.59830056250075,627.2400541270343 422.6884705062499,633.1179066499597 419.59830056250104,623.6073414870078 416.50813061875095,633.1179066499592 419.59830056250104,623.6073414870078 427.6884705062502,629.4851940099331 424.5983005625001,638.9957591728846 434.5983005625002,638.9957591728852 442.68847050625016,633.1179066499609 434.5983005625009,627.2400541270356 426.508130618751,633.1179066499599 434.5983005625009,627.2400541270356 426.50813061875175,621.3622016041103 418.4179606750025,615.484349081185 408.41796067500246,615.4843490811844 405.3277907312523,624.9949142441359 402.23762078750224,634.5054794070873 410.3277907312522,628.627626884163 418.4179606750014,634.5054794070883 428.4179606750015,634.505479407089 436.50813061875067,640.3833319300143 444.5983005625006,634.50547940709 447.6884705062495,644.0160445700418 437.68847050624936,644.0160445700411 429.59830056249945,649.8938970929654 421.50813061874953,655.7717496158897 413.41796067500036,649.8938970929644" stroke="black" stroke-linecap="round" stroke-width="1" /><polyline clip-path="url(#border_clip)" fill="none" points="413.41796067500036,649.8938970929644 416.50813061874925,659.4044622559162 424.59830056249916,653.5266097329919 416.50813061875,647.6487572100666 424.59830056249996,641.7709046871423 416.5081306187508,635.8930521642171 419.5983005624997,645.4036173271688 416.50813061874953,654.9141824901203 426.50813061874965,654.914182490121 434.5983005624988,660.7920350130463 426.50813061874885,666.6698875359705 434.5983005624988,660.7920350130463 444.59830056249893,660.7920350130469 454.59830056249905,660.7920350130476 451.50813061875016,651.2814698500957 459.59830056249933,657.159322373021 469.5983005624994,657.1593223730217 461.5081306187502,651.2814698500964 464.5983005624991,660.7920350130482 461.5081306187502,651.2814698500964 471.50813061875033,651.281469850097 474.5983005624992,660.7920350130489 482.6884705062492,654.9141824901246 485.77864044999933,645.4036173271732 475.7786404499992,645.4036173271726 472.6884705062491,654.914182490124 475.7786404499992,645.4036173271726 465.7786404499991,645.4036173271719 455.778640449999,645.4036173271712 447.688470506249,651.2814698500954 450.7786404499979,660.7920350130473 453.8688103937468,670.3026001759991 456.95898033749694,660.7920350130478 466.95898033749705,660.7920350130485 475.04915028124697,654.9141824901242 485.0491502812471,654.9141824901249 488.1393202249972,645.4036173271734 496.2294901687464,651.2814698500988 488.1393202249964,657.159322373023 485.0491502812463,666.6698875359745 481.95898033749614,676.1804526989258 471.95898033749603,676.1804526989251 480.0491502812452,682.0583052218506" stroke="black" stroke-linecap="round" stroke-width="1" /><polyline clip-path="url(#border_clip)" fill="none" points="480.0491502812452,682.0583052218506 483.13932022499534,672.5477400588991 473.13932022499523,672.5477400588984 476.22949016874543,663.0371748959469 466.2294901687453,663.0371748959462 474.31966011249443,668.9150274188717 477.4098300562433,678.4255925818235 485.4999999999933,672.5477400588993 495.4999999999934,672.5477400589 492.4098300562432,682.0583052218514 495.4999999999934,672.5477400589 503.5901699437434,666.6698875359757 511.68033988749335,660.7920350130515 503.5901699437442,654.9141824901261 513.5901699437443,654.9141824901269 521.6803398874943,649.0363299672026 511.68033988749414,649.0363299672019 519.7705098312433,654.9141824901272 511.68033988749414,649.0363299672019 519.7705098312441,643.1584774442777 527.8606797749933,649.0363299672031 530.9508497187435,639.5257648042516 527.8606797749947,630.0151996412998 519.7705098312447,635.893052164224 522.8606797749935,645.4036173271759 519.7705098312447,635.893052164224 511.68033988749465,641.7709046871482 503.5901699437447,647.6487572100725 500.4999999999945,657.1593223730239 508.59016994374366,663.0371748959492 516.6803398874928,668.9150274188746 513.590169943744,659.4044622559227 521.6803398874939,653.5266097329985 524.7705098312441,644.0160445700471 532.8606797749942,638.1381920471229 529.7705098312454,628.627626884171 539.7705098312455,628.6276268841717 536.6803398874953,638.1381920471232 539.770509831244,647.648757210075 542.8606797749928,657.159322373027 534.7705098312429,663.0371748959511 544.770509831243,663.0371748959519 541.6803398874941,653.526609733" stroke="black" stroke-linecap="round" stroke-width="1" /><polyline clip-path="url(#border_clip)" fill="none" points="541.6803398874941,653.526609733 533.5901699437442,659.4044622559242 530.4999999999953,649.8938970929723 522.4098300562454,655.7717496158965 532.4098300562455,655.7717496158973 540.4999999999947,661.6496021388226 543.5901699437449,652.1390369758712 551.6803398874948,646.261184452947 554.7705098312437,655.7717496158989 551.6803398874948,646.261184452947 554.770509831245,636.7506192899956 557.8606797749952,627.2400541270442 547.8606797749951,627.2400541270434 555.9508497187452,621.3622016041193 559.0410196624954,611.8516364411678 550.9508497187454,617.7294889640921 560.9508497187455,617.7294889640928 550.9508497187454,617.7294889640921 554.0410196624956,608.2189238011406 564.0410196624957,608.2189238011414 560.9508497187469,598.7083586381895 552.8606797749978,592.830506115264 549.7705098312475,602.3410712782155 557.8606797749967,608.2189238011409 549.7705098312475,602.3410712782155 546.6803398874973,611.8516364411669 543.5901699437471,621.3622016041184 546.6803398874958,630.8727667670702 556.680339887496,630.872766767071 566.6803398874961,630.8727667670717 558.590169943747,624.9949142441462 561.6803398874972,615.4843490811949 558.5901699437485,605.973783918243 561.6803398874987,596.4632187552916 553.5901699437496,590.5853662323661 561.6803398874996,584.707513709442 564.7705098312483,594.2180788723939 572.8606797749975,600.0959313953193 580.9508497187467,605.9737839182447 577.8606797749964,615.4843490811961 585.9508497187464,609.6064965582719 577.8606797749973,603.7286440353465 574.7705098312471,613.2392091982979" stroke="black" stroke-linecap="round" stroke-width="1" /><polyline clip-path="url(#border_clip)" fill="none" points="574.7705098312471,613.2392091982979 566.6803398874979,607.3613566753725 563.5901699437477,616.8719218383239 571.6803398874977,610.9940693153998 581.6803398874978,610.9940693154006 578.5901699437491,601.4835041524486 581.6803398874993,591.9729389894973 589.7705098312484,597.8507915124227 581.6803398874993,591.9729389894973 578.5901699437505,582.4623738265453 575.5000000000018,572.9518086635935 567.4098300562517,578.8296611865176 570.500000000002,569.3190960235662 567.4098300562532,559.8085308606143 564.319660112503,569.3190960235657 572.409830056253,563.4412435006416 564.319660112503,569.3190960235657 561.2294901687542,559.8085308606138 569.3196601125043,553.9306783376896 561.2294901687551,548.0528258147642 551.229490168755,548.0528258147634 554.3196601125038,557.5633909777154 564.3196601125039,557.5633909777162 554.3196601125038,557.5633909777154 557.4098300562525,567.0739561406672 560.5000000000013,576.5845213036191 568.5901699437504,582.4623738265445 576.6803398875004,576.5845213036205 584.7705098312505,570.7066687806963 574.7705098312504,570.7066687806955 571.6803398875016,561.1961036177436 563.5901699437525,555.318251094818 560.5000000000038,545.8076859318662 550.5000000000036,545.8076859318653 553.590169943754,536.2971207689139 561.680339887503,542.1749732918395 571.6803398875031,542.1749732918403 581.6803398875032,542.1749732918411 584.770509831252,551.685538454793 587.8606797750023,542.1749732918415 577.8606797750022,542.1749732918407 580.9508497187509,551.6855384547927 570.9508497187508,551.6855384547919" stroke="black" stroke-linecap="round" stroke-width="1" /><polyline clip-path="url(#border_clip)" fill="none" points="570.9508497187508,551.6855384547919 574.0410196624995,561.1961036177438 577.1311896062498,551.6855384547923 585.2213595499999,545.8076859318683 577.1311896062508,539.9298334089427 574.0410196625021,530.4192682459908 584.0410196625022,530.4192682459917 574.0410196625021,530.4192682459908 565.950849718753,524.5414157230654 557.8606797750039,518.6635632001398 554.7705098312535,528.1741283630912 551.6803398875048,518.6635632001394 543.5901699437558,512.7857106772138 546.6803398875045,522.2962758401658 549.7705098312548,512.7857106772144 546.6803398875045,522.2962758401658 538.5901699437554,516.4184233172402 541.6803398875057,506.9078581542889 531.6803398875056,506.907858154288 523.5901699437555,512.7857106772121 531.6803398875046,518.6635632001377 539.7705098312547,512.7857106772135 531.6803398875046,518.6635632001377 539.7705098312537,524.5414157230631 547.8606797750027,530.4192682459886 557.860679775003,530.4192682459895 560.9508497187533,520.9087030830381 564.0410196625036,511.3981379200867 555.9508497187535,517.2759904430108 547.8606797750044,511.39813792008533 537.8606797750042,511.3981379200844 529.7705098312551,505.52028539715894 521.680339887505,511.39813792008306 518.5901699437563,501.8875727571311 528.5901699437566,501.887572757132 536.6803398875066,496.00972023420786 544.7705098312567,490.13186771128375 552.8606797750058,496.0097202342093 549.7705098312571,486.49915507125735 541.680339887507,492.37700759418146 549.770509831256,498.25486011710694 541.680339887506,504.13271264003106 549.770509831255,510.0105651629566" stroke="black" stroke-linecap="round" stroke-width="1" /><polyline clip-path="url(#border_clip)" fill="none" points="549.770509831255,510.0105651629566 546.6803398875063,500.50000000000466 549.7705098312567,490.98943483705324 539.7705098312565,490.9894348370524 531.6803398875074,485.11158231412685 539.7705098312576,479.23372979120273 531.6803398875074,485.11158231412685 521.6803398875073,485.111582314126 511.6803398875072,485.1115823141251 514.7705098312559,494.622147477077 506.6803398875068,488.74429495415154 496.68033988750665,488.74429495415063 504.77050983125577,494.62214747707617 501.68033988750705,485.11158231412423 504.77050983125577,494.62214747707617 494.7705098312556,494.62214747707526 491.68033988750693,485.1115823141233 483.5901699437568,490.98943483704744 480.5000000000064,500.4999999999988 490.5000000000066,500.4999999999997 493.59016994375696,490.9894348370483 490.5000000000066,500.4999999999997 500.5000000000067,500.5000000000006 510.5000000000069,500.5000000000015 518.590169943757,494.6221474770774 515.5000000000083,485.1115823141254 512.4098300562597,475.6010171511735 509.31966011250927,485.1115823141249 499.31966011250915,485.111582314124 491.229490168759,490.9894348370481 481.2294901687589,490.9894348370472 478.13932022500853,500.4999999999986 470.0491502812595,494.62214747707304 478.13932022500956,488.744294954149 481.2294901687599,479.23372979119756 484.3196601125103,469.7231646282462 494.31966011251046,469.7231646282471 486.2294901687614,463.84531210532157 483.13932022501103,473.35587726827293 493.13932022501115,473.35587726827384 490.0491502812608,482.8664424312252 500.04915028126095,482.8664424312261 491.9589803375119,476.9885899083006" stroke="black" stroke-linecap="round" stroke-width="1" /><polyline clip-path="url(#border_clip)" fill="none" points="491.9589803375119,476.9885899083006 488.8688103937632,467.47802474534865 480.7786404500131,473.3558772682727 470.778640450013,473.3558772682718 473.86881039376334,463.84531210532043 470.778640450013,473.3558772682718 462.68847050626283,479.23372979119586 454.5983005625127,485.1115823141199 462.68847050626175,490.9894348370455 452.6884705062616,490.9894348370446 444.59830056251144,496.86728735996866 454.5983005625116,496.86728735996957 446.50813061876255,490.98943483704403 454.5983005625116,496.86728735996957 446.50813061876147,502.7451398828936 438.4179606750124,496.8672873599681 435.327790731262,506.37785252291945 438.41796067501065,515.8884176858714 446.5081306187608,510.0105651629474 443.4179606750121,500.4999999999954 446.5081306187608,510.0105651629474 454.59830056251093,504.1327126400233 462.68847050626107,498.25486011709927 465.7786404500115,488.74429495414785 457.68847050626243,482.86644243122225 449.5983005625134,476.9885899082967 452.68847050626204,486.49915507124865 444.5983005625119,492.3770075941727 441.50813061876147,501.88757275712413 433.4179606750113,507.7654252800482 436.50813061875994,517.2759904430002 426.50813061875976,517.2759904429992 429.5983005625102,507.7654252800478 426.5081306187616,498.25486011709586 423.417960675013,488.74429495414387 431.5081306187631,482.8664424312198 421.50813061876295,482.86644243121884 424.59830056251155,492.37700759417083 432.68847050626175,486.4991550712468 435.77864045001036,496.00972023419877 443.8688103937605,490.1318677112747 433.8688103937603,490.13186771127374 425.7786404500113,484.25401518834815" stroke="black" stroke-linecap="round" stroke-width="1" /><polyline clip-path="url(#border_clip)" fill="none" points="425.7786404500113,484.25401518834815 422.68847050626084,493.76458035129957 414.5983005625107,499.6424328742236 411.5081306187621,490.1318677112716 414.5983005625107,499.6424328742236 411.5081306187603,509.15299803717494 408.4179606750098,518.6635632001263 418.41796067500997,518.6635632001273 410.3277907312598,524.5414157230514 407.23762078750934,534.0519808860028 415.32779073125954,528.1741283630787 405.32779073125937,528.1741283630777 415.32779073125954,528.1741283630787 412.23762078750906,537.6846935260301 402.23762078750894,537.6846935260292 405.3277907312575,547.1952586889811 413.4179606750065,553.0731112119067 416.508130618757,543.5625460489554 408.417960675008,537.6846935260297 416.508130618757,543.5625460489554 419.59830056250746,534.051980886004 422.6884705062579,524.5414157230525 419.5983005625093,515.0308505601006 409.59830056250917,515.0308505600996 399.598300562509,515.0308505600987 407.688470506258,520.9087030830242 404.5983005625076,530.4192682459756 407.6884705062561,539.9298334089276 404.59830056250564,549.440398571879 412.6884705062547,555.3182510948046 404.5983005625045,561.1961036177286 401.5081306187559,551.6855384547766 393.4179606750069,545.807685931851 385.3277907312579,539.9298334089253 388.4179606750083,530.419268245974 380.3277907312581,536.297120768898 388.4179606750072,542.1749732918237 391.50813061875766,532.6644081288723 399.59830056250667,538.5422606517978 402.68847050625715,529.0316954888465 394.59830056250695,534.9095480117705 384.5983005625068,534.9095480117695 387.6884705062554,544.4201131747216" stroke="black" stroke-linecap="round" stroke-width="1" /><polyline clip-path="url(#border_clip)" fill="none" points="387.6884705062554,544.4201131747216 384.59830056250485,553.9306783376729 376.5081306187559,548.0528258147473 384.59830056250485,553.9306783376729 387.68847050625345,563.4412435006249 390.778640450002,572.9518086635769 398.8688103937522,567.0739561406529 395.7786404500017,576.5845213036043 398.86881039375027,586.0950864665563 401.95898033750075,576.5845213036049 393.86881039375055,582.462373826529 401.95898033750075,576.5845213036049 405.0491502812493,586.095086466557 396.9589803374991,591.9729389894809 405.0491502812481,597.8507915124065 415.0491502812483,597.8507915124076 411.9589803374997,588.3402263494556 401.95898033749955,588.3402263494546 411.9589803374997,588.3402263494556 408.8688103937512,578.8296611865036 405.7786404500026,569.3190960235515 397.6884705062536,563.4412435006259 389.5983005625034,569.31909602355 381.50813061875317,575.1969485464739 391.5081306187534,575.1969485464749 394.5983005625019,584.707513709427 402.6884705062509,590.5853662323526 405.77864044999944,600.0959313953047 415.7786404499996,600.0959313953057 412.68847050624913,609.606496558257 404.59830056250007,603.7286440353314 394.59830056249996,603.7286440353304 384.59830056249973,603.7286440353294 381.50813061875124,594.2180788723773 378.4179606750007,603.7286440353287 388.41796067500087,603.7286440353297 385.3277907312523,594.2180788723776 395.3277907312525,594.2180788723788 392.23762078750394,584.7075137094267 389.14745084375346,594.2180788723781 381.0572809000032,600.095931395302 389.1474508437522,605.9737839182278 392.23762078750076,615.4843490811797" stroke="black" stroke-linecap="round" stroke-width="1" /><polyline clip-path="url(#border_clip)" fill="none" points="392.23762078750076,615.4843490811797 382.23762078750053,615.4843490811787 392.23762078750076,615.4843490811797 400.3277907312497,621.3622016041055 408.4179606749987,627.2400541270312 411.50813061874925,617.7294889640798 414.5983005624978,627.2400541270318 422.68847050624674,633.1179066499575 419.59830056249825,623.6073414870054 416.5081306187477,633.1179066499569 419.59830056249825,623.6073414870054 427.68847050624726,629.4851940099312 424.5983005624967,638.9957591728826 434.5983005624969,638.9957591728837 442.68847050624714,633.1179066499597 434.59830056249814,627.240054127034 426.5081306187479,633.117906649958 434.59830056249814,627.240054127034 426.5081306187492,621.3622016041082 418.4179606750002,615.4843490811826 408.417960675,615.4843490811814 405.3277907312495,624.9949142441328 402.23762078749894,634.5054794070843 410.32779073124914,628.6276268841602 418.41796067499814,634.505479407086 428.4179606749983,634.505479407087 436.50813061874726,640.3833319300128 444.59830056249757,634.5054794070888 447.68847050624606,644.0160445700409 437.68847050624584,644.0160445700399 429.59830056249564,649.8938970929637 421.5081306187453,655.7717496158878 413.4179606749964,649.893897092962 416.5081306187449,659.404462255914 424.5983005624951,653.5266097329901 416.5081306187461,647.6487572100643 424.59830056249643,641.7709046871405 416.50813061874743,635.8930521642147 419.5983005624959,645.4036173271668 416.5081306187453,654.9141824901182 426.50813061874555,654.9141824901193 434.5983005624945,660.792035013045 426.50813061874425,666.6698875359689" stroke="black" stroke-linecap="round" stroke-width="1" /><polyline clip-path="url(#border_clip)" fill="none" points="426.50813061874425,666.6698875359689 434.5983005624945,660.792035013045 444.59830056249467,660.7920350130461 454.59830056249484,660.7920350130472 451.50813061874635,651.2814698500952 459.59830056249535,657.1593223730209 469.5983005624955,657.159322373022 461.5081306187466,651.2814698500963 464.598300562495,660.7920350130483 461.5081306187466,651.2814698500963 471.50813061874675,651.2814698500974 474.5983005624952,660.7920350130494 482.6884705062455,654.9141824901255 485.7786404499961,645.4036173271741 475.7786404499959,645.403617327173 472.6884705062453,654.9141824901244 475.7786404499959,645.403617327173 465.7786404499957,645.4036173271719 455.7786404499955,645.4036173271708 447.68847050624527,651.2814698500947 450.7786404499937,660.7920350130468 453.8688103937422,670.3026001759988 456.9589803374928,660.7920350130474 466.95898033749296,660.7920350130486 475.0491502812432,654.9141824901246 485.04915028124344,654.9141824901258 488.13932022499404,645.4036173271745 496.229490168743,651.2814698501002 488.13932022499273,657.1593223730241 485.0491502812421,666.6698875359755 481.9589803374915,676.1804526989268 471.9589803374913,676.1804526989257 480.04915028124026,682.0583052218515 483.13932022499085,672.5477400589001 473.1393202249907,672.547740058899 476.2294901687413,663.0371748959476 466.2294901687411,663.0371748959465 474.31966011249006,668.9150274188722 477.40983005623855,678.4255925818243 485.4999999999888,672.5477400589004 495.49999999998903,672.5477400589016 492.4098300562384,682.058305221853 495.49999999998903,672.5477400589016" stroke="black" stroke-linecap="round" stroke-width="1" /><polyline clip-path="url(#border_clip)" fill="none" points="495.49999999998903,672.5477400589016 503.59016994373934,666.6698875359776 511.68033988748965,660.7920350130537 503.5901699437407,654.9141824901279 513.5901699437409,654.9141824901292 521.6803398874912,649.0363299672052 511.680339887491,649.036329967204 519.7705098312399,654.9141824901299 511.680339887491,649.036329967204 519.7705098312413,643.1584774442802 527.8606797749902,649.0363299672059 530.9508497187409,639.5257648042545 527.8606797749925,630.0151996413025 519.7705098312422,635.8930521642264 522.8606797749906,645.4036173271785 519.7705098312422,635.8930521642264 511.6803398874918,641.7709046871503 503.5901699437415,647.6487572100742 500.49999999999085,657.1593223730256 508.5901699437398,663.0371748959514 516.6803398874888,668.9150274188771 513.5901699437403,659.4044622559251 521.6803398874906,653.5266097330012 524.7705098312413,644.0160445700499 532.8606797749916,638.1381920471259 529.7705098312432,628.6276268841739 539.7705098312434,628.627626884175 536.6803398874928,638.1381920471264 539.7705098312412,647.6487572100784 542.8606797749895,657.1593223730306 534.7705098312392,663.0371748959544 544.7705098312395,663.0371748959557 541.6803398874911,653.5266097330036 533.5901699437406,659.4044622559275 530.4999999999923,649.8938970929754 522.409830056242,655.7717496158992 532.4098300562422,655.7717496159005 540.4999999999911,661.6496021388263 543.5901699437418,652.1390369758749 551.6803398874921,646.261184452951 554.7705098312405,655.7717496159031 551.6803398874921,646.261184452951 554.7705098312427,636.7506192899996" stroke="black" stroke-linecap="round" stroke-width="1" /><polyline clip-path="url(#border_clip)" fill="none" points="554.7705098312427,636.7506192899996 557.8606797749934,627.2400541270483 547.8606797749933,627.2400541270471 555.9508497187436,621.3622016041232 559.0410196624943,611.8516364411719 550.9508497187439,617.7294889640957 560.9508497187442,617.729488964097 550.9508497187439,617.7294889640957 554.0410196624946,608.2189238011443 564.0410196624948,608.2189238011456 560.9508497187464,598.7083586381934 552.8606797749975,592.8305061152677 549.7705098312468,602.341071278219 557.8606797749957,608.2189238011448 549.7705098312468,602.341071278219 546.6803398874961,611.8516364411704 543.5901699437454,621.3622016041218 546.6803398874938,630.8727667670738 556.680339887494,630.8727667670751 566.6803398874943,630.8727667670762 558.5901699437453,624.9949142441504 561.680339887496,615.4843490811991 558.5901699437476,605.9737839182469 561.6803398874983,596.4632187552957 553.5901699437494,590.5853662323698 561.6803398874997,584.707513709446 564.7705098312481,594.218078872398 572.860679774997,600.0959313953239 580.950849718746,605.9737839182496 577.8606797749952,615.484349081201 585.9508497187456,609.6064965582772 577.8606797749967,603.7286440353514 574.770509831246,613.2392091983027 566.6803398874971,607.3613566753769 563.5901699437463,616.8719218383283 571.6803398874968,610.9940693154043 581.680339887497,610.9940693154056 578.5901699437486,601.4835041524535 581.6803398874993,591.9729389895022 589.7705098312482,597.850791512428 581.6803398874993,591.9729389895022 578.5901699437509,582.46237382655 575.5000000000025,572.951808663598" stroke="black" stroke-linecap="round" stroke-width="1" /><polyline clip-path="url(#border_clip)" fill="none" points="575.5000000000025,572.951808663598 567.4098300562522,578.8296611865218 570.500000000003,569.3190960235704 567.4098300562546,559.8085308606182 564.3196601125038,569.3190960235696 572.4098300562542,563.4412435006458 564.3196601125038,569.3190960235696 561.2294901687554,559.8085308606176 569.3196601125059,553.9306783376937 561.2294901687569,548.0528258147679 551.2294901687568,548.0528258147666 554.3196601125051,557.5633909777187 564.3196601125053,557.5633909777199 554.3196601125051,557.5633909777187 557.4098300562534,567.0739561406708 560.5000000000018,576.584521303623 568.5901699437507,582.4623738265487 576.6803398875011,576.5845213036249 584.7705098312515,570.7066687807011 574.7705098312513,570.7066687806998 571.6803398875029,561.1961036177478 563.5901699437541,555.3182510948219 560.5000000000057,545.8076859318697 550.5000000000055,545.8076859318685 553.5901699437562,536.2971207689171 561.680339887505,542.174973291843 571.6803398875053,542.1749732918443 581.6803398875055,542.1749732918456 584.7705098312539,551.6855384547977 587.8606797750047,542.1749732918463 577.8606797750044,542.174973291845 580.9508497187527,551.6855384547972 570.9508497187526,551.685538454796 574.0410196625008,561.1961036177481 577.1311896062516,551.6855384547968 585.221359550002,545.8076859318729 577.1311896062531,539.929833408947 574.0410196625048,530.4192682459949 584.041019662505,530.4192682459961 574.0410196625048,530.4192682459949 565.9508497187559,524.541415723069 557.860679775007,518.6635632001431 554.7705098312563,528.1741283630944" stroke="black" stroke-linecap="round" stroke-width="1" /><polyline clip-path="url(#border_clip)" fill="none" points="554.7705098312563,528.1741283630944 551.6803398875079,518.6635632001423 543.5901699437591,512.7857106772165 546.6803398875073,522.2962758401685 549.7705098312581,512.7857106772173 546.6803398875073,522.2962758401685 538.5901699437585,516.4184233172426 541.6803398875093,506.9078581542913 531.680339887509,506.90785815429 523.5901699437586,512.7857106772138 531.6803398875074,518.6635632001397 539.7705098312579,512.7857106772159 531.6803398875074,518.6635632001397 539.7705098312564,524.5414157230656 547.8606797750052,530.4192682459916 557.8606797750055,530.4192682459928 560.9508497187562,520.9087030830415 564.041019662507,511.39813792009016 555.9508497187567,517.2759904430139 547.8606797750077,511.39813792008806 537.8606797750075,511.39813792008675 529.7705098312587,505.5202853971608 521.6803398875082,511.39813792008465 518.59016994376,501.8875727571325 528.5901699437602,501.8875727571338 536.6803398875106,496.00972023421 544.7705098312609,490.1318677112862 552.8606797750099,496.0097202342121 549.7705098312616,486.49915507125996 541.6803398875112,492.3770075941838 549.77050983126,498.2548601171097 541.6803398875096,504.1327126400335 549.7705098312584,510.01056516295944 546.6803398875102,500.5000000000073 549.770509831261,490.9894348370559 539.7705098312608,490.9894348370546 531.6803398875119,485.11158231412867 539.7705098312623,479.2337297912049 531.6803398875119,485.11158231412867 521.6803398875116,485.11158231412736 511.6803398875115,485.111582314126 514.7705098312598,494.62214747707816 506.68033988751085,488.7442949541522" stroke="black" stroke-linecap="round" stroke-width="1" /><polyline clip-path="url(#border_clip)" fill="none" points="506.68033988751085,488.7442949541522 496.6803398875106,488.74429495415086 504.7705098312595,494.62214747707685 501.68033988751125,485.1115823141247 504.7705098312595,494.62214747707685 494.7705098312593,494.6221474770755 491.680339887511,485.1115823141233 483.5901699437606,490.9894348370471 480.5000000000098,500.4999999999984 490.50000000001,500.4999999999998 493.5901699437608,490.98943483704846 490.50000000001,500.4999999999998 500.50000000001023,500.50000000000114 510.50000000001046,500.5000000000025 518.5901699437609,494.6221474770787 515.5000000000126,485.11158231412657 512.4098300562644,475.60101715117435 509.31966011251353,485.1115823141257 499.3196601125133,485.11158231412435 491.2294901687629,490.9894348370481 481.22949016876265,490.98943483704676 478.13932022501183,500.49999999999807 470.04915028126294,494.62214747707213 478.1393202250134,488.74429495414836 481.22949016876424,479.23372979119705 484.31966011251507,469.72316462824574 494.3196601125153,469.7231646282471 486.22949016876646,463.8453121053211 483.1393202250156,473.3558772682724 493.1393202250158,473.3558772682738 490.049150281265,482.86644243122515 500.0491502812652,482.8664424312265 491.9589803375163,476.9885899083005 488.8688103937681,467.47802474534836 480.77864045001763,473.35587726827214 470.7786404500174,473.3558772682707 473.8688103937683,463.8453121053194 470.7786404500174,473.3558772682708 462.688470506267,479.2337297911945 454.5983005625165,485.1115823141182 462.68847050626533,490.9894348370442 452.6884705062651,490.98943483704284 444.5983005625146,496.86728735996655" stroke="black" stroke-linecap="round" stroke-width="1" /><polyline clip-path="url(#border_clip)" fill="none" points="444.5983005625146,496.86728735996655 454.59830056251485,496.867287359968 446.508130618766,490.989434837042 454.59830056251485,496.867287359968 446.5081306187644,502.7451398828917 438.41796067501554,496.8672873599657 435.3277907312647,506.377852522917 438.4179606750129,515.8884176858692 446.5081306187634,510.01056516294545 443.41796067501514,500.4999999999933 446.5081306187634,510.01056516294545 454.5983005625138,504.13271264002174 462.6884705062643,498.254860117098 465.7786404500152,488.7442949541467 457.68847050626636,482.8664424312207 449.5983005625175,476.9885899082947 452.68847050626573,486.4991550712469 444.59830056251525,492.3770075941706 441.5081306187644,501.8875727571219 433.4179606750139,507.7654252800457 436.50813061876215,517.2759904429979 426.5081306187619,517.2759904429964 429.5983005625128,507.7654252800451 426.50813061876454,498.25486011709296 423.4179606750164,488.74429495414074 431.5081306187668,482.866442431217 421.5081306187666,482.86644243121566 424.59830056251485,492.3770075941678 432.6884705062653,486.4991550712441 435.77864045001354,496.00972023419627 443.868810393764,490.13186771127255 433.86881039376374,490.1318677112711 425.77864045001496,484.25401518834514 422.688470506264,493.76458035129644 414.59830056251354,499.64243287422016 411.50813061876534,490.131867711268 414.59830056251354,499.64243287422016 411.50813061876266,509.15299803717147 408.4179606750117,518.6635632001228 418.41796067501195,518.6635632001243 410.3277907312615,524.541415723048 407.2376207875106,534.0519808859992 415.3277907312611,528.1741283630755" stroke="black" stroke-linecap="round" stroke-width="1" /><polyline clip-path="url(#border_clip)" fill="none" points="415.3277907312611,528.1741283630755 405.32779073126085,528.1741283630741 415.3277907312611,528.1741283630755 412.2376207875102,537.6846935260269 402.23762078750997,537.6846935260254 405.3277907312581,547.1952586889777 413.41796067500695,553.0731112119037 416.50813061875783,543.5625460489523 408.41796067500906,537.6846935260263 416.50813061875783,543.5625460489523 419.59830056250877,534.051980886001 422.6884705062597,524.5414157230497 419.59830056251155,515.0308505600975 409.5983005625113,515.030850560096 399.5983005625111,515.0308505600946 407.6884705062599,520.9087030830207 404.59830056250894,530.4192682459719 407.68847050625715,539.9298334089242 404.5983005625062,549.4403985718754 412.68847050625504,555.3182510948016 404.5983005625045,561.1961036177253 401.50813061875635,551.685538454773 393.4179606750075,545.807685931847 385.3277907312587,539.9298334089209 388.4179606750097,530.4192682459696 380.32779073125914,536.2971207688933 388.4179606750079,542.1749732918194 391.50813061875886,532.664408128868 399.5983005625077,538.5422606517941 402.6884705062586,529.0316954888427 394.5983005625081,534.9095480117664 384.59830056250786,534.909548011765 387.688470506256,544.4201131747172 384.5983005625051,553.9306783376685 376.50813061875624,548.0528258147425 384.5983005625051,553.9306783376685 387.6884705062532,563.4412435006208 390.7786404500014,572.9518086635729 398.8688103937519,567.0739561406493 395.7786404500009,576.5845213036006 398.8688103937491,586.0950864665529 401.95898033750007,576.5845213036015 393.8688103937495,582.4623738265252" stroke="black" stroke-linecap="round" stroke-width="1" /><polyline clip-path="url(#border_clip)" fill="none" points="393.8688103937495,582.4623738265252 401.95898033750007,576.5845213036015 405.04915028124816,586.0950864665538 396.9589803374976,591.9729389894774 405.0491502812464,597.8507915124035 415.0491502812467,597.850791512405 411.95898033749853,588.3402263494528 401.9589803374983,588.3402263494513 411.95898033749853,588.3402263494528 408.8688103937504,578.8296611865005 405.7786404500023,569.3190960235482 397.68847050625345,563.4412435006222 389.5983005625029,569.3190960235459 381.5081306187524,575.1969485464696 391.5081306187526,575.196948546471 394.59830056250075,584.7075137094232 402.68847050624953,590.5853662323493 405.7786404499976,600.0959313953016 415.77864044999785,600.0959313953031 412.6884705062469,609.6064965582544 404.59830056249814,603.7286440353283 394.59830056249785,603.7286440353269 384.5983005624976,603.7286440353253 381.50813061874953,594.2180788723731 378.41796067499854,603.7286440353244 388.41796067499877,603.7286440353258 385.3277907312506,594.2180788723737 395.3277907312509,594.2180788723751 392.2376207875028,584.7075137094229 389.1474508437518,594.2180788723742 381.0572809000012,600.0959313952978 389.14745084375,605.973783918224 392.2376207874981,615.4843490811762 382.23762078749786,615.4843490811746 392.2376207874981,615.4843490811762 400.32779073124686,621.3622016041023 408.41796067499564,627.2400541270284 411.50813061874663,617.7294889640771 414.5983005624947,627.2400541270293 422.68847050624356,633.1179066499554 419.5983005624954,623.6073414870032 416.5081306187444,633.1179066499545 419.5983005624954,623.6073414870032" stroke="black" stroke-linecap="round" stroke-width="1" /><polyline clip-path="url(#border_clip)" fill="none" points="419.5983005624954,623.6073414870032 427.6884705062442,629.4851940099293 424.5983005624932,638.9957591728806 434.5983005624935,638.9957591728821 442.688470506244,633.1179066499585 434.59830056249524,627.2400541270324 426.50813061874464,633.117906649956 434.59830056249524,627.2400541270324 426.50813061874646,621.3622016041063 418.4179606749977,615.4843490811802 408.41796067499746,615.4843490811786 405.3277907312464,624.99491424413 402.2376207874954,634.5054794070812 410.327790731246,628.6276268841576 418.4179606749948,634.5054794070837 428.417960674995,634.5054794070853 436.50813061874385,640.3833319300114 444.5983005624944,634.5054794070878 447.6884705062425,644.0160445700401 437.68847050624225,644.0160445700385 429.59830056249166,649.8938970929621 421.50813061874106,655.7717496158857 413.4179606749923,649.8938970929596 416.5081306187404,659.4044622559119 424.598300562491,653.5266097329883 416.5081306187422,647.6487572100621 424.5983005624928,641.7709046871385 416.508130618744,635.8930521642123 419.5983005624921,645.4036173271646 416.50813061874106,654.9141824901159 426.50813061874135,654.9141824901175 434.59830056249007,660.7920350130436 426.5081306187395,666.6698875359673 434.59830056249007,660.7920350130436 444.59830056249035,660.7920350130452 454.5983005624906,660.7920350130468 451.50813061874254,651.2814698500945 459.5983005624913,657.1593223730206 469.59830056249154,657.1593223730222 461.50813061874277,651.2814698500961 464.59830056249086,660.7920350130482 461.50813061874277,651.2814698500961 471.50813061874305,651.2814698500976" stroke="black" stroke-linecap="round" stroke-width="1" /><polyline clip-path="url(#border_clip)" fill="none" points="471.50813061874305,651.2814698500976 474.5983005624911,660.7920350130498 482.68847050624174,654.9141824901262 485.7786404499928,645.403617327175 475.7786404499925,645.4036173271734 472.68847050624146,654.9141824901246 475.7786404499925,645.4036173271734 465.7786404499922,645.4036173271718 455.778640449992,645.4036173271702 447.68847050624134,651.2814698500938 450.77864044998944,660.7920350130461 453.8688103937375,670.3026001759984 456.9589803374885,660.7920350130471 466.9589803374888,660.7920350130487 475.0491502812394,654.9141824901251 485.0491502812397,654.9141824901267 488.13932022499074,645.4036173271753 496.2294901687395,651.2814698501015 488.13932022498886,657.1593223730251 485.0491502812378,666.6698875359764 481.95898033748676,676.1804526989276 471.9589803374865,676.180452698926 480.0491502812352,682.0583052218523 483.1393202249863,672.547740058901 473.139320224986,672.5477400588994 476.2294901687371,663.037174895948 466.22949016873685,663.0371748959465 474.31966011248556,668.9150274188727 477.4098300562336,678.425592581825 485.49999999998425,672.5477400589014 495.49999999998454,672.547740058903 492.40983005623343,682.0583052218542 495.49999999998454,672.547740058903 503.5901699437352,666.6698875359793 511.6803398874858,660.7920350130557 503.59016994373707,654.9141824901295 513.5901699437374,654.9141824901312 521.680339887488,649.0363299672076 511.6803398874877,649.0363299672059 519.7705098312365,654.9141824901321 511.6803398874877,649.0363299672059 519.7705098312383,643.1584774442824 527.8606797749871,649.0363299672085" stroke="black" stroke-linecap="round" stroke-width="1" /><polyline clip-path="url(#border_clip)" fill="none" points="527.8606797749871,649.0363299672085 530.9508497187383,639.5257648042573 527.8606797749902,630.0151996413049 519.7705098312396,635.8930521642285 522.8606797749876,645.4036173271809 519.7705098312396,635.8930521642285 511.68033988748886,641.7709046871521 503.5901699437382,647.6487572100757 500.49999999998715,657.159322373027 508.5901699437359,663.0371748959532 516.6803398874846,668.9150274188794 513.5901699437366,659.4044622559271 521.6803398874872,653.5266097330035 524.7705098312383,644.0160445700523 532.860679774989,638.1381920471287 529.770509831241,628.6276268841764 539.7705098312413,628.627626884178 536.6803398874902,638.1381920471292 539.7705098312382,647.6487572100816 542.8606797749861,657.1593223730339 534.7705098312355,663.0371748959575 544.7705098312358,663.0371748959591 541.6803398874878,653.5266097330068 533.5901699437371,659.4044622559304 530.4999999999891,649.893897092978 522.4098300562384,655.7717496159016 532.4098300562388,655.7717496159033 540.4999999999875,661.6496021388296 543.5901699437386,652.1390369758783 551.6803398874893,646.2611844529547 554.7705098312373,655.771749615907 551.6803398874893,646.2611844529547 554.7705098312404,636.7506192900034 557.8606797749916,627.2400541270521 547.8606797749912,627.2400541270505 555.9508497187419,621.3622016041269 559.0410196624931,611.8516364411756 550.9508497187423,617.7294889640991 560.9508497187427,617.7294889641008 550.9508497187423,617.7294889640991 554.0410196624936,608.2189238011479 564.0410196624938,608.2189238011495 560.9508497187459,598.7083586381972" stroke="black" stroke-linecap="round" stroke-width="1" /><polyline clip-path="url(#border_clip)" fill="none" points="560.9508497187459,598.7083586381972 552.8606797749972,592.830506115271 549.7705098312459,602.3410712782222 557.8606797749947,608.2189238011485 549.7705098312459,602.3410712782222 546.6803398874948,611.8516364411736 543.5901699437437,621.3622016041248 546.6803398874916,630.8727667670771 556.680339887492,630.8727667670788 566.6803398874922,630.8727667670805 558.5901699437435,624.9949142441543 561.6803398874946,615.4843490812029 558.5901699437467,605.9737839182507 561.6803398874978,596.4632187552994 553.5901699437491,590.5853662323731 561.6803398874998,584.7075137094496 564.7705098312478,594.2180788724019 572.8606797749965,600.0959313953282 580.9508497187452,605.9737839182544 577.8606797749941,615.4843490812057 585.9508497187447,609.6064965582822 577.860679774996,603.728644035356 574.7705098312449,613.2392091983072 566.6803398874961,607.361356675381 563.590169943745,616.8719218383322 571.6803398874956,610.9940693154088 581.680339887496,610.9940693154103 578.590169943748,601.4835041524581 581.6803398874991,591.9729389895068 589.7705098312479,597.850791512433 581.6803398874991,591.9729389895068 578.5901699437512,582.4623738265544 575.5000000000033,572.9518086636022 567.4098300562525,578.8296611865256 570.5000000000038,569.3190960235744 567.4098300562558,559.808530860622 564.3196601125046,569.3190960235733 572.4098300562553,563.4412435006498 564.3196601125046,569.3190960235733 561.2294901687567,559.808530860621 569.3196601125073,553.9306783376974 561.2294901687587,548.0528258147712 551.2294901687584,548.0528258147694" stroke="black" stroke-linecap="round" stroke-width="1" /><polyline clip-path="url(#border_clip)" fill="none" points="551.2294901687584,548.0528258147694 554.3196601125063,557.5633909777217 564.3196601125067,557.5633909777234 554.3196601125063,557.5633909777217 557.4098300562542,567.0739561406741 560.5000000000022,576.5845213036265 568.5901699437509,582.4623738265527 576.6803398875016,576.5845213036292 584.7705098312523,570.7066687807057 574.7705098312521,570.706668780704 571.6803398875041,561.1961036177516 563.5901699437554,555.3182510948253 560.5000000000075,545.807685931873 550.5000000000072,545.8076859318713 553.5901699437584,536.29712076892 561.6803398875071,542.1749732918463 571.6803398875073,542.174973291848 581.6803398875077,542.1749732918497 584.7705098312556,551.6855384548021 587.8606797750068,542.1749732918508 577.8606797750065,542.1749732918491 580.9508497187544,551.6855384548014 570.9508497187542,551.6855384547997 574.0410196625021,561.1961036177521 577.1311896062532,551.6855384548007 585.221359550004,545.8076859318772 577.1311896062552,539.929833408951 574.0410196625074,530.4192682459986 584.0410196625077,530.4192682460003 574.0410196625074,530.4192682459986 565.9508497187587,524.5414157230723 557.86067977501,518.663563200146 554.7705098312588,528.1741283630972 551.6803398875109,518.663563200145 543.5901699437622,512.7857106772186 546.6803398875101,522.296275840171 549.7705098312613,512.7857106772196 546.6803398875101,522.296275840171 538.5901699437615,516.4184233172447 541.6803398875127,506.90785815429336 531.6803398875123,506.9078581542916 523.5901699437616,512.7857106772151 531.6803398875103,518.6635632001414" stroke="black" stroke-linecap="round" stroke-width="1" /><polyline clip-path="url(#border_clip)" fill="none" points="531.6803398875103,518.6635632001414 539.770509831261,512.7857106772179 531.6803398875103,518.6635632001414 539.770509831259,524.5414157230678 547.8606797750076,530.4192682459941 557.860679775008,530.4192682459958 560.9508497187592,520.9087030830445 564.0410196625104,511.3981379200933 555.9508497187596,517.2759904430168 547.860679775011,511.39813792009045 537.8606797750107,511.3981379200887 529.7705098312621,505.52028539716235 521.6803398875113,511.3981379200858 518.5901699437634,501.88757275713346 528.5901699437637,501.8875727571352 536.6803398875145,496.0097202342117 544.7705098312651,490.13186771128824 552.8606797750139,496.00972023421457 549.7705098312659,486.49915507126224 541.6803398875152,492.37700759418567 549.7705098312639,498.25486011711206 541.6803398875131,504.1327126400355 549.7705098312618,510.0105651629618 546.6803398875139,500.5000000000095 549.7705098312651,490.9894348370582 539.7705098312649,490.9894348370564 531.6803398875162,485.1115823141301 539.770509831267,479.2337297912066 531.6803398875162,485.1115823141301 521.6803398875159,485.1115823141283 511.68033988751563,485.1115823141265 514.7705098312634,494.6221474770789 506.68033988751483,488.74429495415256 496.6803398875145,488.74429495415075 504.77050983126315,494.62214747707714 501.6803398875153,485.11158231412475 504.77050983126315,494.62214747707714 494.77050983126287,494.6221474770753 491.680339887515,485.1115823141229 483.59016994376424,490.9894348370464 480.50000000001296,500.49999999999767 490.50000000001324,500.4999999999995 493.5901699437645,490.9894348370482" stroke="black" stroke-linecap="round" stroke-width="1" /><polyline clip-path="url(#border_clip)" fill="none" points="493.5901699437645,490.9894348370482 490.50000000001324,500.4999999999995 500.5000000000136,500.50000000000125" stroke="black" stroke-linecap="round" stroke-width="1" /></svg>