<?xml version="1.0" encoding="UTF-8"?>
<svg width="1e4px" height="1e4px" baseProfile="full" version="1.1" viewBox="4886.5 4963.8 213.26 218.21" xmlns="http://www.w3.org/2000/svg">
<defs>
<clipPath id="a">
<rect width="1e4" height="1e4"/>
</clipPath>
</defs>
<polyline points="5000.5 5000.5 5010.5 5000.5 5020.5 5000.5 5028.6 4994.6 5025.5 4985.1 5022.4 4975.6 5019.3 4985.1 5009.3 4985.1 5001.2 4991 4991.2 4991 4988.1 5000.5 4980 4994.6 4988.1 4988.7 4991.2 4979.2 4994.3 4969.7 5004.3 4969.7 4996.2 4963.8 4993.1 4973.4 5003.1 4973.4 5e3 4982.9 5010 4982.9 5002 4977 4998.9 4967.5 4990.8 4973.4 4980.8 4973.4 4983.9 4963.8 4980.8 4973.4 4972.7 4979.2 4964.6 4985.1 4972.7 4991 4962.7 4991 4954.6 4996.9 4964.6 4996.9 4956.5 4991 4964.6 4996.9 4956.5 5002.7 4948.4 4996.9 4945.3 5006.4 4948.4 5015.9 4956.5 5010 4953.4 5000.5 4956.5 5010 4964.6 5004.1" clip-path="url(#a)" fill="none" stroke="#000" stroke-linecap="round"/>
<polyline points="4964.6 5004.1 4972.7 4998.3 4975.8 4988.7 4967.7 4982.9 4959.6 4977 4962.7 4986.5 4954.6 4992.4 4951.5 5001.9 4943.4 5007.8 4946.5 5017.3 4936.5 5017.3 4939.6 5007.8 4936.5 4998.3 4933.4 4988.7 4941.5 4982.9 4931.5 4982.9 4934.6 4992.4 4942.7 4986.5 4945.8 4996 4953.9 4990.1 4943.9 4990.1 4935.8 4984.3 4932.7 4993.8 4924.6 4999.6 4921.5 4990.1 4924.6 4999.6 4921.5 5009.2 4918.4 5018.7 4928.4 5018.7 4920.3 5024.5 4917.2 5034.1 4925.3 5028.2 4915.3 5028.2 4925.3 5028.2 4922.2 5037.7 4912.2 5037.7 4915.3 5047.2 4923.4 5053.1 4926.5 5043.6 4918.4 5037.7 4926.5 5043.6 4929.6 5034.1 4932.7 5024.5" clip-path="url(#a)" fill="none" stroke="#000" stroke-linecap="round"/>
<polyline points="4932.7 5024.5 4929.6 5015 4919.6 5015 4909.6 5015 4917.7 5020.9 4914.6 5030.4 4917.7 5039.9 4914.6 5049.4 4922.7 5055.3 4914.6 5061.2 4911.5 5051.7 4903.4 5045.8 4895.3 5039.9 4898.4 5030.4 4890.3 5036.3 4898.4 5042.2 4901.5 5032.7 4909.6 5038.5 4912.7 5029 4904.6 5034.9 4894.6 5034.9 4897.7 5044.4 4894.6 5053.9 4886.5 5048.1 4894.6 5053.9 4897.7 5063.4 4900.8 5073 4908.9 5067.1 4905.8 5076.6 4908.9 5086.1 4912 5076.6 4903.9 5082.5 4912 5076.6 4915 5086.1 4907 5092 4915 5097.9 4925 5097.9 4922 5088.3 4912 5088.3 4922 5088.3 4918.9 5078.8 4915.8 5069.3 4907.7 5063.4" clip-path="url(#a)" fill="none" stroke="#000" stroke-linecap="round"/>
<polyline points="4907.7 5063.4 4899.6 5069.3 4891.5 5075.2 4901.5 5075.2 4904.6 5084.7 4912.7 5090.6 4915.8 5100.1 4925.8 5100.1 4922.7 5109.6 4914.6 5103.7 4904.6 5103.7 4894.6 5103.7 4891.5 5094.2 4888.4 5103.7 4898.4 5103.7 4895.3 5094.2 4905.3 5094.2 4902.2 5084.7 4899.1 5094.2 4891.1 5100.1 4899.1 5106 4902.2 5115.5 4892.2 5115.5 4902.2 5115.5 4910.3 5121.4 4918.4 5127.2 4921.5 5117.7 4924.6 5127.2 4932.7 5133.1 4929.6 5123.6 4926.5 5133.1 4929.6 5123.6 4937.7 5129.5 4934.6 5139 4944.6 5139 4952.7 5133.1 4944.6 5127.2 4936.5 5133.1 4944.6 5127.2 4936.5 5121.4 4928.4 5115.5 4918.4 5115.5 4915.3 5125" clip-path="url(#a)" fill="none" stroke="#000" stroke-linecap="round"/>
<polyline points="4915.3 5125 4912.2 5134.5 4920.3 5128.6 4928.4 5134.5 4938.4 5134.5 4946.5 5140.4 4954.6 5134.5 4957.7 5144 4947.7 5144 4939.6 5149.9 4931.5 5155.8 4923.4 5149.9 4926.5 5159.4 4934.6 5153.5 4926.5 5147.6 4934.6 5141.8 4926.5 5135.9 4929.6 5145.4 4926.5 5154.9 4936.5 5154.9 4944.6 5160.8 4936.5 5166.7 4944.6 5160.8 4954.6 5160.8 4964.6 5160.8 4961.5 5151.3 4969.6 5157.2 4979.6 5157.2 4971.5 5151.3 4974.6 5160.8 4971.5 5151.3 4981.5 5151.3 4984.6 5160.8 4992.7 5154.9 4995.8 5145.4 4985.8 5145.4 4982.7 5154.9 4985.8 5145.4 4975.8 5145.4 4965.8 5145.4 4957.7 5151.3 4960.8 5160.8 4963.9 5170.3" clip-path="url(#a)" fill="none" stroke="#000" stroke-linecap="round"/>
<polyline points="4963.9 5170.3 4967 5160.8 4977 5160.8 4985 5154.9 4995 5154.9 4998.1 5145.4 5006.2 5151.3 4998.1 5157.2 4995 5166.7 4992 5176.2 4982 5176.2 4990 5182.1 4993.1 5172.5 4983.1 5172.5 4986.2 5163 4976.2 5163 4984.3 5168.9 4987.4 5178.4 4995.5 5172.5 5005.5 5172.5 5002.4 5182.1 5005.5 5172.5 5013.6 5166.7 5021.7 5160.8 5013.6 5154.9 5023.6 5154.9 5031.7 5149 5021.7 5149 5029.8 5154.9 5021.7 5149 5029.8 5143.2 5037.9 5149 5041 5139.5 5037.9 5130 5029.8 5135.9 5032.9 5145.4 5029.8 5135.9 5021.7 5141.8 5013.6 5147.6 5010.5 5157.2 5018.6 5163 5026.7 5168.9 5023.6 5159.4" clip-path="url(#a)" fill="none" stroke="#000" stroke-linecap="round"/>
<polyline points="5023.6 5159.4 5031.7 5153.5 5034.8 5144 5042.9 5138.1 5039.8 5128.6 5049.8 5128.6 5046.7 5138.1 5049.8 5147.6 5052.9 5157.2 5044.8 5163 5054.8 5163 5051.7 5153.5 5043.6 5159.4 5040.5 5149.9 5032.4 5155.8 5042.4 5155.8 5050.5 5161.6 5053.6 5152.1 5061.7 5146.3 5064.8 5155.8 5061.7 5146.3 5064.8 5136.8 5067.9 5127.2 5057.9 5127.2 5066 5121.4 5069 5111.9 5061 5117.7 5071 5117.7 5061 5117.7 5064 5108.2 5074 5108.2 5071 5098.7 5062.9 5092.8 5059.8 5102.3 5067.9 5108.2 5059.8 5102.3 5056.7 5111.9 5053.6 5121.4 5056.7 5130.9 5066.7 5130.9 5076.7 5130.9 5068.6 5125 5071.7 5115.5" clip-path="url(#a)" fill="none" stroke="#000" stroke-linecap="round"/>
<polyline points="5071.7 5115.5 5068.6 5106 5071.7 5096.5 5063.6 5090.6 5071.7 5084.7 5074.8 5094.2 5082.9 5100.1 5091 5106 5087.9 5115.5 5096 5109.6 5087.9 5103.7 5084.8 5113.2 5076.7 5107.4 5073.6 5116.9 5081.7 5111 5091.7 5111 5088.6 5101.5 5091.7 5092 5099.8 5097.9 5091.7 5092 5088.6 5082.5 5085.5 5073 5077.4 5078.8 5080.5 5069.3 5077.4 5059.8 5074.3 5069.3 5082.4 5063.4 5074.3 5069.3 5071.2 5059.8 5079.3 5053.9 5071.2 5048.1 5061.2 5048.1 5064.3 5057.6 5074.3 5057.6 5064.3 5057.6 5067.4 5067.1 5070.5 5076.6 5078.6 5082.5 5086.7 5076.6 5094.8 5070.7 5084.8 5070.7 5081.7 5061.2 5073.6 5055.3" clip-path="url(#a)" fill="none" stroke="#000" stroke-linecap="round"/>
<polyline points="5073.6 5055.3 5070.5 5045.8 5060.5 5045.8 5063.6 5036.3 5071.7 5042.2 5081.7 5042.2 5091.7 5042.2 5094.8 5051.7 5097.9 5042.2 5087.9 5042.2 5091 5051.7 5081 5051.7 5084 5061.2 5087.1 5051.7 5095.2 5045.8 5087.1 5039.9 5084 5030.4 5094 5030.4 5084 5030.4 5076 5024.5 5067.9 5018.7 5064.8 5028.2 5061.7 5018.7 5053.6 5012.8 5056.7 5022.3 5059.8 5012.8 5056.7 5022.3 5048.6 5016.4 5051.7 5006.9 5041.7 5006.9 5033.6 5012.8 5041.7 5018.7 5049.8 5012.8 5041.7 5018.7 5049.8 5024.5 5057.9 5030.4 5067.9 5030.4 5071 5020.9 5074 5011.4 5066 5017.3 5057.9 5011.4 5047.9 5011.4 5039.8 5005.5" clip-path="url(#a)" fill="none" stroke="#000" stroke-linecap="round"/>
<polyline points="5039.8 5005.5 5031.7 5011.4 5028.6 5001.9 5038.6 5001.9 5046.7 4996 5054.8 4990.1 5062.9 4996 5059.8 4986.5 5051.7 4992.4 5059.8 4998.3 5051.7 5004.1 5059.8 5010 5056.7 5000.5 5059.8 4991 5049.8 4991 5041.7 4985.1 5049.8 4979.2 5041.7 4985.1 5031.7 4985.1 5021.7 4985.1 5024.8 4994.6 5016.7 4988.7 5006.7 4988.7 5014.8 4994.6 5011.7 4985.1 5014.8 4994.6 5004.8 4994.6 5001.7 4985.1 4993.6 4991 4990.5 5000.5 5000.5 5000.5 5003.6 4991 5000.5 5000.5 5010.5 5000.5 5020.5 5000.5 5028.6 4994.6 5025.5 4985.1 5022.4 4975.6 5019.3 4985.1 5009.3 4985.1 5001.2 4991 4991.2 4991 4988.1 5000.5" clip-path="url(#a)" fill="none" stroke="#000" stroke-linecap="round"/>
<polyline points="4988.1 5000.5 4980 4994.6 4988.1 4988.7 4991.2 4979.2 4994.3 4969.7 5004.3 4969.7 4996.2 4963.8 4993.1 4973.4 5003.1 4973.4 5e3 4982.9 5010 4982.9 5002 4977 4998.9 4967.5 4990.8 4973.4 4980.8 4973.4 4983.9 4963.8 4980.8 4973.4 4972.7 4979.2 4964.6 4985.1 4972.7 4991 4962.7 4991 4954.6 4996.9 4964.6 4996.9 4956.5 4991 4964.6 4996.9 4956.5 5002.7 4948.4 4996.9 4945.3 5006.4 4948.4 5015.9 4956.5 5010 4953.4 5000.5 4956.5 5010 4964.6 5004.1 4972.7 4998.3 4975.8 4988.7 4967.7 4982.9 4959.6 4977 4962.7 4986.5 4954.6 4992.4 4951.5 5001.9 4943.4 5007.8 4946.5 5017.3 4936.5 5017.3" clip-path="url(#a)" fill="none" stroke="#000" stroke-linecap="round"/>
<polyline points="4936.5 5017.3 4939.6 5007.8 4936.5 4998.3 4933.4 4988.7 4941.5 4982.9 4931.5 4982.9 4934.6 4992.4 4942.7 4986.5 4945.8 4996 4953.9 4990.1 4943.9 4990.1 4935.8 4984.3 4932.7 4993.8 4924.6 4999.6 4921.5 4990.1 4924.6 4999.6 4921.5 5009.2 4918.4 5018.7 4928.4 5018.7 4920.3 5024.5 4917.2 5034.1 4925.3 5028.2 4915.3 5028.2 4925.3 5028.2 4922.2 5037.7 4912.2 5037.7 4915.3 5047.2 4923.4 5053.1 4926.5 5043.6 4918.4 5037.7 4926.5 5043.6 4929.6 5034.1 4932.7 5024.5 4929.6 5015 4919.6 5015 4909.6 5015 4917.7 5020.9 4914.6 5030.4 4917.7 5039.9 4914.6 5049.4 4922.7 5055.3 4914.6 5061.2 4911.5 5051.7" clip-path="url(#a)" fill="none" stroke="#000" stroke-linecap="round"/>
<polyline points="4911.5 5051.7 4903.4 5045.8 4895.3 5039.9 4898.4 5030.4 4890.3 5036.3 4898.4 5042.2 4901.5 5032.7 4909.6 5038.5 4912.7 5029 4904.6 5034.9 4894.6 5034.9 4897.7 5044.4 4894.6 5053.9 4886.5 5048.1 4894.6 5053.9 4897.7 5063.4 4900.8 5073 4908.9 5067.1 4905.8 5076.6 4908.9 5086.1 4912 5076.6 4903.9 5082.5 4912 5076.6 4915 5086.1 4907 5092 4915 5097.9 4925 5097.9 4922 5088.3 4912 5088.3 4922 5088.3 4918.9 5078.8 4915.8 5069.3 4907.7 5063.4 4899.6 5069.3 4891.5 5075.2 4901.5 5075.2 4904.6 5084.7 4912.7 5090.6 4915.8 5100.1 4925.8 5100.1 4922.7 5109.6 4914.6 5103.7 4904.6 5103.7" clip-path="url(#a)" fill="none" stroke="#000" stroke-linecap="round"/>
<polyline points="4904.6 5103.7 4894.6 5103.7 4891.5 5094.2 4888.4 5103.7 4898.4 5103.7 4895.3 5094.2 4905.3 5094.2 4902.2 5084.7 4899.1 5094.2 4891.1 5100.1 4899.1 5106 4902.2 5115.5 4892.2 5115.5 4902.2 5115.5 4910.3 5121.4 4918.4 5127.2 4921.5 5117.7 4924.6 5127.2 4932.7 5133.1 4929.6 5123.6 4926.5 5133.1 4929.6 5123.6 4937.7 5129.5 4934.6 5139 4944.6 5139 4952.7 5133.1 4944.6 5127.2 4936.5 5133.1 4944.6 5127.2 4936.5 5121.4 4928.4 5115.5 4918.4 5115.5 4915.3 5125 4912.2 5134.5 4920.3 5128.6 4928.4 5134.5 4938.4 5134.5 4946.5 5140.4 4954.6 5134.5 4957.7 5144 4947.7 5144 4939.6 5149.9 4931.5 5155.8" clip-path="url(#a)" fill="none" stroke="#000" stroke-linecap="round"/>
<polyline points="4931.5 5155.8 4923.4 5149.9 4926.5 5159.4 4934.6 5153.5 4926.5 5147.6 4934.6 5141.8 4926.5 5135.9 4929.6 5145.4 4926.5 5154.9 4936.5 5154.9 4944.6 5160.8 4936.5 5166.7 4944.6 5160.8 4954.6 5160.8 4964.6 5160.8 4961.5 5151.3 4969.6 5157.2 4979.6 5157.2 4971.5 5151.3 4974.6 5160.8 4971.5 5151.3 4981.5 5151.3 4984.6 5160.8 4992.7 5154.9 4995.8 5145.4 4985.8 5145.4 4982.7 5154.9 4985.8 5145.4 4975.8 5145.4 4965.8 5145.4 4957.7 5151.3 4960.8 5160.8 4963.9 5170.3 4967 5160.8 4977 5160.8 4985 5154.9 4995 5154.9 4998.1 5145.4 5006.2 5151.3 4998.1 5157.2 4995 5166.7 4992 5176.2 4982 5176.2" clip-path="url(#a)" fill="none" stroke="#000" stroke-linecap="round"/>
<polyline points="4982 5176.2 4990 5182.1 4993.1 5172.5 4983.1 5172.5 4986.2 5163 4976.2 5163 4984.3 5168.9 4987.4 5178.4 4995.5 5172.5 5005.5 5172.5 5002.4 5182.1 5005.5 5172.5 5013.6 5166.7 5021.7 5160.8 5013.6 5154.9 5023.6 5154.9 5031.7 5149 5021.7 5149 5029.8 5154.9 5021.7 5149 5029.8 5143.2 5037.9 5149 5041 5139.5 5037.9 5130 5029.8 5135.9 5032.9 5145.4 5029.8 5135.9 5021.7 5141.8 5013.6 5147.6 5010.5 5157.2 5018.6 5163 5026.7 5168.9 5023.6 5159.4 5031.7 5153.5 5034.8 5144 5042.9 5138.1 5039.8 5128.6 5049.8 5128.6 5046.7 5138.1 5049.8 5147.6 5052.9 5157.2 5044.8 5163 5054.8 5163" clip-path="url(#a)" fill="none" stroke="#000" stroke-linecap="round"/>
<polyline points="5054.8 5163 5051.7 5153.5 5043.6 5159.4 5040.5 5149.9 5032.4 5155.8 5042.4 5155.8 5050.5 5161.6 5053.6 5152.1 5061.7 5146.3 5064.8 5155.8 5061.7 5146.3 5064.8 5136.8 5067.9 5127.2 5057.9 5127.2 5066 5121.4 5069 5111.9 5061 5117.7 5071 5117.7 5061 5117.7 5064 5108.2 5074 5108.2 5071 5098.7 5062.9 5092.8 5059.8 5102.3 5067.9 5108.2 5059.8 5102.3 5056.7 5111.9 5053.6 5121.4 5056.7 5130.9 5066.7 5130.9 5076.7 5130.9 5068.6 5125 5071.7 5115.5 5068.6 5106 5071.7 5096.5 5063.6 5090.6 5071.7 5084.7 5074.8 5094.2 5082.9 5100.1 5091 5106 5087.9 5115.5 5096 5109.6 5087.9 5103.7" clip-path="url(#a)" fill="none" stroke="#000" stroke-linecap="round"/>
<polyline points="5087.9 5103.7 5084.8 5113.2 5076.7 5107.4 5073.6 5116.9 5081.7 5111 5091.7 5111 5088.6 5101.5 5091.7 5092 5099.8 5097.9 5091.7 5092 5088.6 5082.5 5085.5 5073 5077.4 5078.8 5080.5 5069.3 5077.4 5059.8 5074.3 5069.3 5082.4 5063.4 5074.3 5069.3 5071.2 5059.8 5079.3 5053.9 5071.2 5048.1 5061.2 5048.1 5064.3 5057.6 5074.3 5057.6 5064.3 5057.6 5067.4 5067.1 5070.5 5076.6 5078.6 5082.5 5086.7 5076.6 5094.8 5070.7 5084.8 5070.7 5081.7 5061.2 5073.6 5055.3 5070.5 5045.8 5060.5 5045.8 5063.6 5036.3 5071.7 5042.2 5081.7 5042.2 5091.7 5042.2 5094.8 5051.7 5097.9 5042.2 5087.9 5042.2 5091 5051.7" clip-path="url(#a)" fill="none" stroke="#000" stroke-linecap="round"/>
<polyline points="5091 5051.7 5081 5051.7 5084 5061.2 5087.1 5051.7 5095.2 5045.8 5087.1 5039.9 5084 5030.4 5094 5030.4 5084 5030.4 5076 5024.5 5067.9 5018.7 5064.8 5028.2 5061.7 5018.7 5053.6 5012.8 5056.7 5022.3 5059.8 5012.8 5056.7 5022.3 5048.6 5016.4 5051.7 5006.9 5041.7 5006.9 5033.6 5012.8 5041.7 5018.7 5049.8 5012.8 5041.7 5018.7 5049.8 5024.5 5057.9 5030.4 5067.9 5030.4 5071 5020.9 5074 5011.4 5066 5017.3 5057.9 5011.4 5047.9 5011.4 5039.8 5005.5 5031.7 5011.4 5028.6 5001.9 5038.6 5001.9 5046.7 4996 5054.8 4990.1 5062.9 4996 5059.8 4986.5 5051.7 4992.4 5059.8 4998.3 5051.7 5004.1" clip-path="url(#a)" fill="none" stroke="#000" stroke-linecap="round"/>
<polyline points="5051.7 5004.1 5059.8 5010 5056.7 5000.5 5059.8 4991 5049.8 4991 5041.7 4985.1 5049.8 4979.2 5041.7 4985.1 5031.7 4985.1 5021.7 4985.1 5024.8 4994.6 5016.7 4988.7 5006.7 4988.7 5014.8 4994.6 5011.7 4985.1 5014.8 4994.6 5004.8 4994.6 5001.7 4985.1 4993.6 4991 4990.5 5000.5 5000.5 5000.5 5003.6 4991 5000.5 5000.5 5010.5 5000.5 5020.5 5000.5 5028.6 4994.6 5025.5 4985.1 5022.4 4975.6 5019.3 4985.1 5009.3 4985.1 5001.2 4991 4991.2 4991 4988.1 5000.5 4980 4994.6 4988.1 4988.7 4991.2 4979.2 4994.3 4969.7 5004.3 4969.7 4996.2 4963.8 4993.1 4973.4 5003.1 4973.4 5e3 4982.9 5010 4982.9" clip-path="url(#a)" fill="none" stroke="#000" stroke-linecap="round"/>
<polyline points="5010 4982.9 5002 4977 4998.9 4967.5 4990.8 4973.4 4980.8 4973.4 4983.9 4963.8 4980.8 4973.4 4972.7 4979.2 4964.6 4985.1 4972.7 4991 4962.7 4991 4954.6 4996.9 4964.6 4996.9 4956.5 4991 4964.6 4996.9 4956.5 5002.7 4948.4 4996.9 4945.3 5006.4 4948.4 5015.9 4956.5 5010 4953.4 5000.5 4956.5 5010 4964.6 5004.1 4972.7 4998.3 4975.8 4988.7 4967.7 4982.9 4959.6 4977 4962.7 4986.5 4954.6 4992.4 4951.5 5001.9 4943.4 5007.8 4946.5 5017.3 4936.5 5017.3 4939.6 5007.8 4936.5 4998.3 4933.4 4988.7 4941.5 4982.9 4931.5 4982.9 4934.6 4992.4 4942.7 4986.5 4945.8 4996 4953.9 4990.1 4943.9 4990.1" clip-path="url(#a)" fill="none" stroke="#000" stroke-linecap="round"/>
<polyline points="4943.9 4990.1 4935.8 4984.3 4932.7 4993.8 4924.6 4999.6 4921.5 4990.1 4924.6 4999.6 4921.5 5009.2 4918.4 5018.7 4928.4 5018.7 4920.3 5024.5 4917.2 5034.1 4925.3 5028.2 4915.3 5028.2 4925.3 5028.2 4922.2 5037.7 4912.2 5037.7 4915.3 5047.2 4923.4 5053.1 4926.5 5043.6 4918.4 5037.7 4926.5 5043.6 4929.6 5034.1 4932.7 5024.5 4929.6 5015 4919.6 5015 4909.6 5015 4917.7 5020.9 4914.6 5030.4 4917.7 5039.9 4914.6 5049.4 4922.7 5055.3 4914.6 5061.2 4911.5 5051.7 4903.4 5045.8 4895.3 5039.9 4898.4 5030.4 4890.3 5036.3 4898.4 5042.2 4901.5 5032.7 4909.6 5038.5 4912.7 5029 4904.6 5034.9 4894.6 5034.9" clip-path="url(#a)" fill="none" stroke="#000" stroke-linecap="round"/>
<polyline points="4894.6 5034.9 4897.7 5044.4 4894.6 5053.9 4886.5 5048.1 4894.6 5053.9 4897.7 5063.4 4900.8 5073 4908.9 5067.1 4905.8 5076.6 4908.9 5086.1 4912 5076.6 4903.9 5082.5 4912 5076.6 4915 5086.1 4907 5092 4915 5097.9 4925 5097.9 4922 5088.3 4912 5088.3 4922 5088.3 4918.9 5078.8 4915.8 5069.3 4907.7 5063.4 4899.6 5069.3 4891.5 5075.2 4901.5 5075.2 4904.6 5084.7 4912.7 5090.6 4915.8 5100.1 4925.8 5100.1 4922.7 5109.6 4914.6 5103.7 4904.6 5103.7 4894.6 5103.7 4891.5 5094.2 4888.4 5103.7 4898.4 5103.7 4895.3 5094.2 4905.3 5094.2 4902.2 5084.7 4899.1 5094.2 4891.1 5100.1 4899.1 5106" clip-path="url(#a)" fill="none" stroke="#000" stroke-linecap="round"/>
<polyline points="4899.1 5106 4902.2 5115.5 4892.2 5115.5 4902.2 5115.5 4910.3 5121.4 4918.4 5127.2 4921.5 5117.7 4924.6 5127.2 4932.7 5133.1 4929.6 5123.6 4926.5 5133.1 4929.6 5123.6 4937.7 5129.5 4934.6 5139 4944.6 5139 4952.7 5133.1 4944.6 5127.2 4936.5 5133.1 4944.6 5127.2 4936.5 5121.4 4928.4 5115.5 4918.4 5115.5 4915.3 5125 4912.2 5134.5 4920.3 5128.6 4928.4 5134.5 4938.4 5134.5 4946.5 5140.4 4954.6 5134.5 4957.7 5144 4947.7 5144 4939.6 5149.9 4931.5 5155.8 4923.4 5149.9 4926.5 5159.4 4934.6 5153.5 4926.5 5147.6 4934.6 5141.8 4926.5 5135.9 4929.6 5145.4 4926.5 5154.9 4936.5 5154.9 4944.6 5160.8" clip-path="url(#a)" fill="none" stroke="#000" stroke-linecap="round"/>
<polyline points="4944.6 5160.8 4936.5 5166.7 4944.6 5160.8 4954.6 5160.8 4964.6 5160.8 4961.5 5151.3 4969.6 5157.2 4979.6 5157.2 4971.5 5151.3 4974.6 5160.8 4971.5 5151.3 4981.5 5151.3 4984.6 5160.8 4992.7 5154.9 4995.8 5145.4 4985.8 5145.4 4982.7 5154.9 4985.8 5145.4 4975.8 5145.4 4965.8 5145.4 4957.7 5151.3 4960.8 5160.8 4963.9 5170.3 4967 5160.8 4977 5160.8 4985 5154.9 4995 5154.9 4998.1 5145.4 5006.2 5151.3 4998.1 5157.2 4995 5166.7 4992 5176.2 4982 5176.2 4990 5182.1 4993.1 5172.5 4983.1 5172.5 4986.2 5163 4976.2 5163 4984.3 5168.9 4987.4 5178.4 4995.5 5172.5 5005.5 5172.5 5002.4 5182.1" clip-path="url(#a)" fill="none" stroke="#000" stroke-linecap="round"/>
<polyline points="5002.4 5182.1 5005.5 5172.5 5013.6 5166.7 5021.7 5160.8 5013.6 5154.9 5023.6 5154.9 5031.7 5149 5021.7 5149 5029.8 5154.9 5021.7 5149 5029.8 5143.2 5037.9 5149 5041 5139.5 5037.9 5130 5029.8 5135.9 5032.9 5145.4 5029.8 5135.9 5021.7 5141.8 5013.6 5147.6 5010.5 5157.2 5018.6 5163 5026.7 5168.9 5023.6 5159.4 5031.7 5153.5 5034.8 5144 5042.9 5138.1 5039.8 5128.6 5049.8 5128.6 5046.7 5138.1 5049.8 5147.6 5052.9 5157.2 5044.8 5163 5054.8 5163 5051.7 5153.5 5043.6 5159.4 5040.5 5149.9 5032.4 5155.8 5042.4 5155.8 5050.5 5161.6 5053.6 5152.1 5061.7 5146.3 5064.8 5155.8 5061.7 5146.3" clip-path="url(#a)" fill="none" stroke="#000" stroke-linecap="round"/>
<polyline points="5061.7 5146.3 5064.8 5136.8 5067.9 5127.2 5057.9 5127.2 5066 5121.4 5069 5111.9 5061 5117.7 5071 5117.7 5061 5117.7 5064 5108.2 5074 5108.2 5071 5098.7 5062.9 5092.8 5059.8 5102.3 5067.9 5108.2 5059.8 5102.3 5056.7 5111.9 5053.6 5121.4 5056.7 5130.9 5066.7 5130.9 5076.7 5130.9 5068.6 5125 5071.7 5115.5 5068.6 5106 5071.7 5096.5 5063.6 5090.6 5071.7 5084.7 5074.8 5094.2 5082.9 5100.1 5091 5106 5087.9 5115.5 5096 5109.6 5087.9 5103.7 5084.8 5113.2 5076.7 5107.4 5073.6 5116.9 5081.7 5111 5091.7 5111 5088.6 5101.5 5091.7 5092 5099.8 5097.9 5091.7 5092 5088.6 5082.5" clip-path="url(#a)" fill="none" stroke="#000" stroke-linecap="round"/>
<polyline points="5088.6 5082.5 5085.5 5073 5077.4 5078.8 5080.5 5069.3 5077.4 5059.8 5074.3 5069.3 5082.4 5063.4 5074.3 5069.3 5071.2 5059.8 5079.3 5053.9 5071.2 5048.1 5061.2 5048.1 5064.3 5057.6 5074.3 5057.6 5064.3 5057.6 5067.4 5067.1 5070.5 5076.6 5078.6 5082.5 5086.7 5076.6 5094.8 5070.7 5084.8 5070.7 5081.7 5061.2 5073.6 5055.3 5070.5 5045.8 5060.5 5045.8 5063.6 5036.3 5071.7 5042.2 5081.7 5042.2 5091.7 5042.2 5094.8 5051.7 5097.9 5042.2 5087.9 5042.2 5091 5051.7 5081 5051.7 5084 5061.2 5087.1 5051.7 5095.2 5045.8 5087.1 5039.9 5084 5030.4 5094 5030.4 5084 5030.4 5076 5024.5 5067.9 5018.7" clip-path="url(#a)" fill="none" stroke="#000" stroke-linecap="round"/>
<polyline points="5067.9 5018.7 5064.8 5028.2 5061.7 5018.7 5053.6 5012.8 5056.7 5022.3 5059.8 5012.8 5056.7 5022.3 5048.6 5016.4 5051.7 5006.9 5041.7 5006.9 5033.6 5012.8 5041.7 5018.7 5049.8 5012.8 5041.7 5018.7 5049.8 5024.5 5057.9 5030.4 5067.9 5030.4 5071 5020.9 5074 5011.4 5066 5017.3 5057.9 5011.4 5047.9 5011.4 5039.8 5005.5 5031.7 5011.4 5028.6 5001.9 5038.6 5001.9 5046.7 4996 5054.8 4990.1 5062.9 4996 5059.8 4986.5 5051.7 4992.4 5059.8 4998.3 5051.7 5004.1 5059.8 5010 5056.7 5000.5 5059.8 4991 5049.8 4991 5041.7 4985.1 5049.8 4979.2 5041.7 4985.1 5031.7 4985.1 5021.7 4985.1 5024.8 4994.6" clip-path="url(#a)" fill="none" stroke="#000" stroke-linecap="round"/>
<polyline points="5024.8 4994.6 5016.7 4988.7 5006.7 4988.7 5014.8 4994.6 5011.7 4985.1 5014.8 4994.6 5004.8 4994.6 5001.7 4985.1 4993.6 4991 4990.5 5000.5 5000.5 5000.5 5003.6 4991 5000.5 5000.5 5010.5 5000.5 5020.5 5000.5 5028.6 4994.6 5025.5 4985.1 5022.4 4975.6 5019.3 4985.1 5009.3 4985.1 5001.2 4991 4991.2 4991 4988.1 5000.5 4980 4994.6 4988.1 4988.7 4991.2 4979.2 4994.3 4969.7 5004.3 4969.7 4996.2 4963.8 4993.1 4973.4 5003.1 4973.4 5e3 4982.9 5010 4982.9 5002 4977 4998.9 4967.5 4990.8 4973.4 4980.8 4973.4 4983.9 4963.8 4980.8 4973.4 4972.7 4979.2 4964.6 4985.1 4972.7 4991 4962.7 4991" clip-path="url(#a)" fill="none" stroke="#000" stroke-linecap="round"/>
<polyline points="4962.7 4991 4954.6 4996.9 4964.6 4996.9 4956.5 4991 4964.6 4996.9 4956.5 5002.7 4948.4 4996.9 4945.3 5006.4 4948.4 5015.9 4956.5 5010 4953.4 5000.5 4956.5 5010 4964.6 5004.1 4972.7 4998.3 4975.8 4988.7 4967.7 4982.9 4959.6 4977 4962.7 4986.5 4954.6 4992.4 4951.5 5001.9 4943.4 5007.8 4946.5 5017.3 4936.5 5017.3 4939.6 5007.8 4936.5 4998.3 4933.4 4988.7 4941.5 4982.9 4931.5 4982.9 4934.6 4992.4 4942.7 4986.5 4945.8 4996 4953.9 4990.1 4943.9 4990.1 4935.8 4984.3 4932.7 4993.8 4924.6 4999.6 4921.5 4990.1 4924.6 4999.6 4921.5 5009.2 4918.4 5018.7 4928.4 5018.7 4920.3 5024.5 4917.2 5034.1" clip-path="url(#a)" fill="none" stroke="#000" stroke-linecap="round"/>
<polyline points="4917.2 5034.1 4925.3 5028.2 4915.3 5028.2 4925.3 5028.2 4922.2 5037.7 4912.2 5037.7 4915.3 5047.2 4923.4 5053.1 4926.5 5043.6 4918.4 5037.7 4926.5 5043.6 4929.6 5034.1 4932.7 5024.5 4929.6 5015 4919.6 5015 4909.6 5015 4917.7 5020.9 4914.6 5030.4 4917.7 5039.9 4914.6 5049.4 4922.7 5055.3 4914.6 5061.2 4911.5 5051.7 4903.4 5045.8 4895.3 5039.9 4898.4 5030.4 4890.3 5036.3 4898.4 5042.2 4901.5 5032.7 4909.6 5038.5 4912.7 5029 4904.6 5034.9 4894.6 5034.9 4897.7 5044.4 4894.6 5053.9 4886.5 5048.1 4894.6 5053.9 4897.7 5063.4 4900.8 5073 4908.9 5067.1 4905.8 5076.6 4908.9 5086.1 4912 5076.6" clip-path="url(#a)" fill="none" stroke="#000" stroke-linecap="round"/>
<polyline points="4912 5076.6 4903.9 5082.5 4912 5076.6 4915 5086.1 4907 5092 4915 5097.9 4925 5097.9 4922 5088.3 4912 5088.3 4922 5088.3 4918.9 5078.8 4915.8 5069.3 4907.7 5063.4 4899.6 5069.3 4891.5 5075.2 4901.5 5075.2 4904.6 5084.7 4912.7 5090.6 4915.8 5100.1 4925.8 5100.1 4922.7 5109.6 4914.6 5103.7 4904.6 5103.7 4894.6 5103.7 4891.5 5094.2 4888.4 5103.7 4898.4 5103.7 4895.3 5094.2 4905.3 5094.2 4902.2 5084.7 4899.1 5094.2 4891.1 5100.1 4899.1 5106 4902.2 5115.5 4892.2 5115.5 4902.2 5115.5 4910.3 5121.4 4918.4 5127.2 4921.5 5117.7 4924.6 5127.2 4932.7 5133.1 4929.6 5123.6 4926.5 5133.1" clip-path="url(#a)" fill="none" stroke="#000" stroke-linecap="round"/>
<polyline points="4926.5 5133.1 4929.6 5123.6 4937.7 5129.5 4934.6 5139 4944.6 5139 4952.7 5133.1 4944.6 5127.2 4936.5 5133.1 4944.6 5127.2 4936.5 5121.4 4928.4 5115.5 4918.4 5115.5 4915.3 5125 4912.2 5134.5 4920.3 5128.6 4928.4 5134.5 4938.4 5134.5 4946.5 5140.4 4954.6 5134.5 4957.7 5144 4947.7 5144 4939.6 5149.9 4931.5 5155.8 4923.4 5149.9 4926.5 5159.4 4934.6 5153.5 4926.5 5147.6 4934.6 5141.8 4926.5 5135.9 4929.6 5145.4 4926.5 5154.9 4936.5 5154.9 4944.6 5160.8 4936.5 5166.7 4944.6 5160.8 4954.6 5160.8 4964.6 5160.8 4961.5 5151.3 4969.6 5157.2 4979.6 5157.2 4971.5 5151.3 4974.6 5160.8 4971.5 5151.3" clip-path="url(#a)" fill="none" stroke="#000" stroke-linecap="round"/>
<polyline points="4971.5 5151.3 4981.5 5151.3 4984.6 5160.8 4992.7 5154.9 4995.8 5145.4 4985.8 5145.4 4982.7 5154.9 4985.8 5145.4 4975.8 5145.4 4965.8 5145.4 4957.7 5151.3 4960.8 5160.8 4963.9 5170.3 4967 5160.8 4977 5160.8 4985 5154.9 4995 5154.9 4998.1 5145.4 5006.2 5151.3 4998.1 5157.2 4995 5166.7 4992 5176.2 4982 5176.2 4990 5182.1 4993.1 5172.5 4983.1 5172.5 4986.2 5163 4976.2 5163 4984.3 5168.9 4987.4 5178.4 4995.5 5172.5 5005.5 5172.5 5002.4 5182.1 5005.5 5172.5 5013.6 5166.7 5021.7 5160.8 5013.6 5154.9 5023.6 5154.9 5031.7 5149 5021.7 5149 5029.8 5154.9 5021.7 5149 5029.8 5143.2" clip-path="url(#a)" fill="none" stroke="#000" stroke-linecap="round"/>
<polyline points="5029.8 5143.2 5037.9 5149 5041 5139.5 5037.9 5130 5029.8 5135.9 5032.9 5145.4 5029.8 5135.9 5021.7 5141.8 5013.6 5147.6 5010.5 5157.2 5018.6 5163 5026.7 5168.9 5023.6 5159.4 5031.7 5153.5 5034.8 5144 5042.9 5138.1 5039.8 5128.6 5049.8 5128.6 5046.7 5138.1 5049.8 5147.6 5052.9 5157.2 5044.8 5163 5054.8 5163 5051.7 5153.5 5043.6 5159.4 5040.5 5149.9 5032.4 5155.8 5042.4 5155.8 5050.5 5161.6 5053.6 5152.1 5061.7 5146.3 5064.8 5155.8 5061.7 5146.3 5064.8 5136.8 5067.9 5127.2 5057.9 5127.2 5066 5121.4 5069 5111.9 5061 5117.7 5071 5117.7 5061 5117.7 5064 5108.2 5074 5108.2" clip-path="url(#a)" fill="none" stroke="#000" stroke-linecap="round"/>
<polyline points="5074 5108.2 5071 5098.7 5062.9 5092.8 5059.8 5102.3 5067.9 5108.2 5059.8 5102.3 5056.7 5111.9 5053.6 5121.4 5056.7 5130.9 5066.7 5130.9 5076.7 5130.9 5068.6 5125 5071.7 5115.5 5068.6 5106 5071.7 5096.5 5063.6 5090.6 5071.7 5084.7 5074.8 5094.2 5082.9 5100.1 5091 5106 5087.9 5115.5 5096 5109.6 5087.9 5103.7 5084.8 5113.2 5076.7 5107.4 5073.6 5116.9 5081.7 5111 5091.7 5111 5088.6 5101.5 5091.7 5092 5099.8 5097.9 5091.7 5092 5088.6 5082.5 5085.5 5073 5077.4 5078.8 5080.5 5069.3 5077.4 5059.8 5074.3 5069.3 5082.4 5063.4 5074.3 5069.3 5071.2 5059.8 5079.3 5053.9 5071.2 5048.1" clip-path="url(#a)" fill="none" stroke="#000" stroke-linecap="round"/>
<polyline points="5071.2 5048.1 5061.2 5048.1 5064.3 5057.6 5074.3 5057.6 5064.3 5057.6 5067.4 5067.1 5070.5 5076.6 5078.6 5082.5 5086.7 5076.6 5094.8 5070.7 5084.8 5070.7 5081.7 5061.2 5073.6 5055.3 5070.5 5045.8 5060.5 5045.8 5063.6 5036.3 5071.7 5042.2 5081.7 5042.2 5091.7 5042.2 5094.8 5051.7 5097.9 5042.2 5087.9 5042.2 5091 5051.7 5081 5051.7 5084 5061.2 5087.1 5051.7 5095.2 5045.8 5087.1 5039.9 5084 5030.4 5094 5030.4 5084 5030.4 5076 5024.5 5067.9 5018.7 5064.8 5028.2 5061.7 5018.7 5053.6 5012.8 5056.7 5022.3 5059.8 5012.8 5056.7 5022.3 5048.6 5016.4 5051.7 5006.9 5041.7 5006.9 5033.6 5012.8" clip-path="url(#a)" fill="none" stroke="#000" stroke-linecap="round"/>
<polyline points="5033.6 5012.8 5041.7 5018.7 5049.8 5012.8 5041.7 5018.7 5049.8 5024.5 5057.9 5030.4 5067.9 5030.4 5071 5020.9 5074 5011.4 5066 5017.3 5057.9 5011.4 5047.9 5011.4 5039.8 5005.5 5031.7 5011.4 5028.6 5001.9 5038.6 5001.9 5046.7 4996 5054.8 4990.1 5062.9 4996 5059.8 4986.5 5051.7 4992.4 5059.8 4998.3 5051.7 5004.1 5059.8 5010 5056.7 5000.5 5059.8 4991 5049.8 4991 5041.7 4985.1 5049.8 4979.2 5041.7 4985.1 5031.7 4985.1 5021.7 4985.1 5024.8 4994.6 5016.7 4988.7 5006.7 4988.7 5014.8 4994.6 5011.7 4985.1 5014.8 4994.6 5004.8 4994.6 5001.7 4985.1 4993.6 4991 4990.5 5000.5 5000.5 5000.5" clip-path="url(#a)" fill="none" stroke="#000" stroke-linecap="round"/>
<polyline points="5000.5 5000.5 5003.6 4991 5000.5 5000.5" clip-path="url(#a)" fill="none" stroke="#000" stroke-linecap="round"/>
</svg>
