<?xml version="1.0" encoding="utf-8" ?>
<svg baseProfile="full" height="10000px" version="1.1" width="10000px" xmlns="http://www.w3.org/2000/svg" xmlns:ev="http://www.w3.org/2001/xml-events" xmlns:xlink="http://www.w3.org/1999/xlink"><defs><clipPath id="border_clip"><rect height="10000" width="10000" x="0" y="0" /></clipPath></defs><polyline clip-path="url(#border_clip)" fill="none" points="5000.5,5000.5 5010.5,5000.5 5020.5,5000.5 5028.590169943749,4994.6221474770755 5025.5,4985.111582314124 5022.409830056251,4975.6010171511725 5019.319660112501,4985.111582314124 5009.319660112501,4985.111582314124 5001.229490168752,4990.989434837048 4991.229490168752,4990.989434837048 4988.139320225002,5000.5 4980.049150281253,4994.6221474770755 4988.139320225002,4988.74429495415 4991.229490168752,4979.233729791199 4994.319660112501,4969.723164628247 5004.319660112501,4969.723164628247 4996.229490168752,4963.845312105323 4993.139320225002,4973.3558772682745 5003.139320225002,4973.3558772682745 5000.049150281253,4982.866442431226 5010.049150281253,4982.866442431226 5001.958980337503,4976.988589908301 4998.868810393754,4967.478024745349 4990.778640450004,4973.3558772682745 4980.778640450004,4973.3558772682745 4983.868810393754,4963.845312105323 4980.778640450004,4973.3558772682745 4972.688470506255,4979.233729791199 4964.598300562505,4985.111582314124 4972.688470506255,4990.989434837048 4962.688470506255,4990.989434837048 4954.598300562505,4996.8672873599735 4964.598300562505,4996.8672873599735 4956.508130618756,4990.989434837048 4964.598300562505,4996.8672873599735 4956.508130618756,5002.745139882898 4948.417960675006,4996.867287359973 4945.327790731257,5006.3778525229245 4948.417960675006,5015.888417685876 4956.508130618756,5010.010565162951 4953.417960675006,5000.5 4956.508130618756,5010.010565162951 4964.598300562505,5004.1327126400265" stroke="black" stroke-linecap="round" stroke-width="1" /><polyline clip-path="url(#border_clip)" fill="none" points="4964.598300562505,5004.1327126400265 4972.688470506255,4998.254860117102 4975.778640450004,4988.74429495415 4967.688470506255,4982.866442431226 4959.598300562505,4976.988589908301 4962.688470506255,4986.499155071252 4954.598300562505,4992.3770075941775 4951.508130618756,5001.8875727571285 4943.417960675006,5007.765425280053 4946.508130618756,5017.275990443005 4936.508130618756,5017.275990443005 4939.598300562505,5007.765425280053 4936.508130618756,4998.254860117102 4933.417960675007,4988.74429495415 4941.508130618756,4982.866442431226 4931.508130618756,4982.866442431226 4934.598300562505,4992.3770075941775 4942.688470506255,4986.499155071252 4945.778640450004,4996.009720234204 4953.868810393754,4990.1318677112795 4943.868810393754,4990.1318677112795 4935.778640450004,4984.254015188354 4932.688470506255,4993.764580351306 4924.598300562505,4999.6424328742305 4921.508130618756,4990.1318677112795 4924.598300562505,4999.6424328742305 4921.508130618756,5009.152998037182 4918.417960675006,5018.6635632001335 4928.417960675006,5018.6635632001335 4920.327790731257,5024.541415723058 4917.237620787507,5034.05198088601 4925.327790731257,5028.174128363085 4915.327790731257,5028.174128363085 4925.327790731257,5028.174128363085 4922.237620787507,5037.684693526036 4912.237620787507,5037.684693526036 4915.327790731257,5047.195258688988 4923.417960675006,5053.073111211913 4926.508130618756,5043.562546048962 4918.417960675006,5037.684693526036 4926.508130618756,5043.562546048962 4929.598300562505,5034.05198088601 4932.688470506255,5024.541415723059" stroke="black" stroke-linecap="round" stroke-width="1" /><polyline clip-path="url(#border_clip)" fill="none" points="4932.688470506255,5024.541415723059 4929.598300562505,5015.030850560107 4919.598300562505,5015.030850560107 4909.598300562505,5015.030850560107 4917.688470506255,5020.9087030830315 4914.598300562505,5030.419268245983 4917.688470506254,5039.929833408934 4914.598300562505,5049.440398571886 4922.688470506254,5055.318251094811 4914.598300562505,5061.196103617735 4911.508130618755,5051.685538454784 4903.417960675006,5045.807685931859 4895.327790731257,5039.929833408934 4898.417960675006,5030.4192682459825 4890.327790731257,5036.297120768908 4898.417960675006,5042.174973291832 4901.508130618756,5032.6644081288805 4909.598300562505,5038.542260651806 4912.688470506255,5029.031695488854 4904.598300562505,5034.9095480117785 4894.598300562505,5034.9095480117785 4897.688470506254,5044.42011317473 4894.598300562505,5053.9306783376815 4886.508130618755,5048.052825814757 4894.598300562505,5053.9306783376815 4897.688470506254,5063.441243500633 4900.778640450003,5072.951808663585 4908.868810393753,5067.07395614066 4905.778640450003,5076.584521303612 4908.868810393753,5086.095086466564 4911.958980337502,5076.584521303612 4903.868810393753,5082.462373826536 4911.958980337502,5076.584521303612 4915.049150281252,5086.095086466564 4906.958980337502,5091.972938989488 4915.049150281252,5097.850791512413 4925.049150281252,5097.850791512413 4921.958980337502,5088.340226349462 4911.958980337502,5088.340226349462 4921.958980337502,5088.340226349462 4918.868810393753,5078.82966118651 4915.778640450004,5069.319096023558 4907.688470506254,5063.441243500633" stroke="black" stroke-linecap="round" stroke-width="1" /><polyline clip-path="url(#border_clip)" fill="none" points="4907.688470506254,5063.441243500633 4899.598300562505,5069.319096023558 4891.508130618755,5075.196948546482 4901.508130618755,5075.196948546483 4904.598300562504,5084.707513709434 4912.688470506254,5090.585366232359 4915.778640450003,5100.095931395311 4925.778640450003,5100.095931395311 4922.688470506253,5109.606496558263 4914.598300562504,5103.728644035337 4904.598300562504,5103.728644035337 4894.598300562504,5103.728644035337 4891.508130618755,5094.218078872385 4888.417960675005,5103.728644035337 4898.417960675005,5103.728644035337 4895.327790731256,5094.218078872386 4905.327790731256,5094.218078872386 4902.237620787507,5084.707513709434 4899.147450843757,5094.218078872386 4891.057280900007,5100.095931395311 4899.147450843757,5105.973783918235 4902.237620787506,5115.484349081187 4892.237620787506,5115.484349081187 4902.237620787506,5115.484349081187 4910.327790731255,5121.362201604112 4918.417960675005,5127.240054127036 4921.508130618754,5117.729488964085 4924.598300562504,5127.240054127037 4932.688470506253,5133.117906649962 4929.598300562504,5123.60734148701 4926.508130618754,5133.117906649962 4929.598300562504,5123.60734148701 4937.688470506253,5129.485194009935 4934.598300562504,5138.995759172886 4944.598300562504,5138.995759172887 4952.688470506253,5133.117906649962 4944.598300562504,5127.240054127037 4936.508130618754,5133.117906649962 4944.598300562504,5127.240054127037 4936.508130618754,5121.362201604113 4928.417960675005,5115.484349081187 4918.417960675005,5115.484349081187 4915.327790731255,5124.994914244139" stroke="black" stroke-linecap="round" stroke-width="1" /><polyline clip-path="url(#border_clip)" fill="none" points="4915.327790731255,5124.994914244139 4912.237620787506,5134.50547940709 4920.327790731255,5128.627626884166 4928.417960675005,5134.50547940709 4938.417960675005,5134.505479407091 4946.508130618754,5140.383331930016 4954.598300562504,5134.505479407091 4957.688470506253,5144.016044570042 4947.688470506253,5144.016044570042 4939.598300562503,5149.893897092967 4931.508130618754,5155.771749615891 4923.417960675004,5149.893897092967 4926.508130618754,5159.404462255919 4934.598300562503,5153.526609732994 4926.508130618754,5147.648757210069 4934.598300562503,5141.770904687144 4926.508130618754,5135.89305216422 4929.598300562503,5145.403617327171 4926.508130618754,5154.914182490123 4936.508130618754,5154.914182490123 4944.598300562503,5160.792035013048 4936.508130618753,5166.6698875359725 4944.598300562503,5160.792035013048 4954.598300562503,5160.792035013048 4964.598300562503,5160.792035013048 4961.508130618754,5151.281469850096 4969.598300562503,5157.1593223730215 4979.598300562503,5157.1593223730215 4971.508130618754,5151.281469850097 4974.598300562503,5160.792035013048 4971.508130618754,5151.281469850097 4981.508130618754,5151.281469850097 4984.598300562503,5160.792035013048 4992.688470506253,5154.9141824901235 4995.778640450002,5145.4036173271725 4985.778640450002,5145.4036173271725 4982.688470506253,5154.9141824901235 4985.778640450002,5145.4036173271725 4975.778640450002,5145.403617327172 4965.778640450002,5145.403617327172 4957.688470506253,5151.281469850096 4960.778640450002,5160.792035013048 4963.868810393751,5170.302600176" stroke="black" stroke-linecap="round" stroke-width="1" /><polyline clip-path="url(#border_clip)" fill="none" points="4963.868810393751,5170.302600176 4966.958980337501,5160.792035013048 4976.958980337501,5160.792035013048 4985.049150281251,5154.9141824901235 4995.049150281251,5154.9141824901235 4998.139320225,5145.4036173271725 5006.22949016875,5151.281469850097 4998.139320225,5157.1593223730215 4995.04915028125,5166.669887535973 4991.958980337501,5176.180452698925 4981.958980337501,5176.1804526989245 4990.04915028125,5182.05830522185 4993.139320225,5172.547740058898 4983.139320225,5172.547740058898 4986.229490168749,5163.037174895946 4976.229490168749,5163.037174895946 4984.319660112499,5168.915027418871 4987.409830056248,5178.4255925818225 4995.499999999997,5172.547740058898 5005.499999999998,5172.547740058899 5002.409830056248,5182.05830522185 5005.499999999998,5172.547740058899 5013.590169943747,5166.669887535973 5021.680339887497,5160.792035013049 5013.590169943747,5154.914182490124 5023.590169943748,5154.914182490124 5031.680339887497,5149.0363299672 5021.680339887497,5149.0363299672 5029.770509831246,5154.914182490124 5021.680339887497,5149.0363299672 5029.770509831247,5143.158477444275 5037.860679774996,5149.0363299672 5040.950849718746,5139.525764804249 5037.860679774997,5130.015199641297 5029.770509831247,5135.893052164221 5032.860679774996,5145.403617327173 5029.770509831247,5135.893052164221 5021.680339887497,5141.770904687146 5013.590169943748,5147.6487572100705 5010.499999999998,5157.159322373022 5018.590169943747,5163.037174895947 5026.680339887497,5168.915027418872 5023.590169943747,5159.40446225592" stroke="black" stroke-linecap="round" stroke-width="1" /><polyline clip-path="url(#border_clip)" fill="none" points="5023.590169943747,5159.40446225592 5031.680339887497,5153.526609732996 5034.770509831247,5144.016044570045 5042.860679774996,5138.13819204712 5039.770509831247,5128.627626884168 5049.770509831247,5128.627626884168 5046.680339887498,5138.13819204712 5049.770509831247,5147.648757210071 5052.860679774996,5157.159322373023 5044.770509831246,5163.037174895948 5054.770509831246,5163.037174895948 5051.680339887497,5153.526609732997 5043.590169943747,5159.404462255921 5040.499999999998,5149.893897092969 5032.409830056249,5155.771749615894 5042.409830056249,5155.771749615894 5050.499999999998,5161.649602138819 5053.590169943748,5152.139036975867 5061.680339887497,5146.261184452943 5064.770509831247,5155.771749615895 5061.680339887497,5146.261184452943 5064.770509831247,5136.750619289992 5067.860679774997,5127.24005412704 5057.860679774997,5127.24005412704 5065.950849718747,5121.362201604115 5069.041019662496,5111.851636441164 5060.950849718747,5117.729488964089 5070.950849718747,5117.729488964089 5060.950849718747,5117.729488964089 5064.041019662496,5108.218923801137 5074.041019662497,5108.218923801137 5070.950849718747,5098.708358638186 5062.860679774998,5092.8305061152605 5059.770509831248,5102.341071278212 5067.860679774998,5108.218923801137 5059.770509831248,5102.341071278212 5056.680339887498,5111.8516364411635 5053.590169943749,5121.362201604115 5056.680339887498,5130.872766767066 5066.680339887498,5130.872766767067 5076.680339887498,5130.872766767067 5068.590169943749,5124.994914244143 5071.680339887498,5115.484349081191" stroke="black" stroke-linecap="round" stroke-width="1" /><polyline clip-path="url(#border_clip)" fill="none" points="5071.680339887498,5115.484349081191 5068.590169943749,5105.973783918239 5071.680339887499,5096.463218755288 5063.59016994375,5090.5853662323625 5071.6803398875,5084.707513709438 5074.770509831249,5094.21807887239 5082.860679774998,5100.095931395315 5090.950849718747,5105.97378391824 5087.860679774997,5115.484349081192 5095.950849718747,5109.606496558267 5087.860679774998,5103.728644035342 5084.770509831248,5113.239209198294 5076.680339887499,5107.361356675368 5073.590169943749,5116.871921838319 5081.680339887499,5110.994069315395 5091.680339887499,5110.994069315396 5088.59016994375,5101.483504152444 5091.680339887499,5091.972938989493 5099.770509831249,5097.850791512417 5091.680339887499,5091.972938989493 5088.59016994375,5082.462373826541 5085.500000000001,5072.951808663589 5077.409830056251,5078.8296611865135 5080.500000000001,5069.319096023562 5077.409830056252,5059.8085308606105 5074.319660112502,5069.3190960235615 5082.409830056252,5063.441243500637 5074.319660112502,5069.3190960235615 5071.229490168753,5059.8085308606105 5079.319660112503,5053.930678337686 5071.229490168754,5048.052825814761 5061.229490168754,5048.052825814761 5064.319660112503,5057.563390977712 5074.319660112503,5057.5633909777125 5064.319660112503,5057.563390977712 5067.409830056252,5067.0739561406635 5070.500000000001,5076.5845213036155 5078.59016994375,5082.462373826541 5086.6803398875,5076.584521303616 5094.77050983125,5070.706668780692 5084.77050983125,5070.706668780691 5081.6803398875,5061.19610361774 5073.590169943751,5055.3182510948145" stroke="black" stroke-linecap="round" stroke-width="1" /><polyline clip-path="url(#border_clip)" fill="none" points="5073.590169943751,5055.3182510948145 5070.500000000002,5045.807685931863 5060.500000000002,5045.807685931863 5063.590169943752,5036.297120768911 5071.680339887501,5042.174973291836 5081.680339887501,5042.174973291836 5091.680339887501,5042.174973291837 5094.77050983125,5051.685538454788 5097.860679775,5042.174973291837 5087.860679775,5042.174973291837 5090.950849718749,5051.685538454788 5080.950849718749,5051.685538454788 5084.041019662498,5061.19610361774 5087.131189606248,5051.685538454788 5095.221359549998,5045.8076859318635 5087.131189606249,5039.929833408939 5084.0410196625,5030.419268245987 5094.0410196625,5030.419268245987 5084.0410196625,5030.419268245987 5075.95084971875,5024.541415723062 5067.860679775001,5018.663563200137 5064.770509831251,5028.174128363088 5061.680339887502,5018.663563200136 5053.590169943753,5012.785710677212 5056.680339887502,5022.296275840163 5059.770509831252,5012.785710677212 5056.680339887502,5022.296275840163 5048.590169943753,5016.418423317238 5051.680339887503,5006.907858154286 5041.680339887502,5006.907858154286 5033.590169943753,5012.785710677211 5041.680339887502,5018.663563200135 5049.770509831252,5012.785710677212 5041.680339887502,5018.663563200135 5049.770509831251,5024.541415723061 5057.860679775,5030.419268245986 5067.860679775001,5030.419268245986 5070.95084971875,5020.908703083035 5074.0410196625,5011.398137920083 5065.950849718751,5017.275990443008 5057.860679775001,5011.398137920082 5047.860679775001,5011.398137920082 5039.770509831252,5005.520285397157" stroke="black" stroke-linecap="round" stroke-width="1" /><polyline clip-path="url(#border_clip)" fill="none" points="5039.770509831252,5005.520285397157 5031.680339887502,5011.398137920081 5028.590169943753,5001.88757275713 5038.590169943753,5001.88757275713 5046.680339887503,4996.009720234206 5054.770509831253,4990.131867711281 5062.860679775002,4996.009720234207 5059.770509831253,4986.499155071255 5051.680339887503,4992.377007594179 5059.770509831252,4998.254860117105 5051.680339887503,5004.132712640029 5059.770509831252,5010.010565162954 5056.680339887503,5000.500000000002 5059.770509831253,4990.989434837051 5049.770509831253,4990.98943483705 5041.680339887503,4985.111582314125 5049.770509831253,4979.233729791201 5041.680339887503,4985.111582314125 5031.680339887503,4985.1115823141245 5021.680339887503,4985.1115823141245 5024.770509831252,4994.622147477076 5016.680339887503,4988.744294954151 5006.680339887503,4988.74429495415 5014.770509831252,4994.6221474770755 5011.680339887503,4985.111582314124 5014.770509831252,4994.6221474770755 5004.770509831252,4994.6221474770755 5001.680339887503,4985.111582314124 4993.590169943753,4990.989434837048 4990.500000000003,5000.499999999999 5000.500000000004,5000.5 5003.590169943753,4990.989434837048 5000.500000000004,5000.5 5010.500000000004,5000.5 5020.500000000004,5000.500000000001 5028.590169943753,4994.622147477076 5025.500000000004,4985.1115823141245 5022.409830056255,4975.6010171511725 5019.3196601125055,4985.1115823141245 5009.319660112505,4985.111582314124 5001.229490168756,4990.989434837048 4991.229490168756,4990.989434837048 4988.139320225006,5000.499999999999" stroke="black" stroke-linecap="round" stroke-width="1" /><polyline clip-path="url(#border_clip)" fill="none" points="4988.139320225006,5000.499999999999 4980.049150281256,4994.622147477074 4988.139320225006,4988.74429495415 4991.229490168756,4979.233729791198 4994.3196601125055,4969.723164628247 5004.3196601125055,4969.723164628247 4996.2294901687565,4963.845312105322 4993.1393202250065,4973.355877268274 5003.1393202250065,4973.355877268274 5000.0491502812565,4982.866442431226 5010.0491502812565,4982.866442431226 5001.9589803375075,4976.988589908301 4998.868810393758,4967.478024745349 4990.778640450008,4973.355877268274 4980.778640450008,4973.355877268273 4983.868810393758,4963.845312105322 4980.778640450008,4973.355877268273 4972.688470506258,4979.233729791197 4964.5983005625085,4985.111582314122 4972.688470506258,4990.989434837047 4962.688470506258,4990.989434837046 4954.5983005625085,4996.867287359971 4964.5983005625085,4996.867287359972 4956.508130618759,4990.989434837046 4964.5983005625085,4996.867287359972 4956.5081306187585,5002.745139882895 4948.417960675009,4996.867287359971 4945.3277907312595,5006.377852522922 4948.4179606750085,5015.888417685874 4956.5081306187585,5010.010565162949 4953.417960675009,5000.499999999997 4956.5081306187585,5010.010565162949 4964.598300562508,5004.132712640025 4972.6884705062575,4998.2548601171 4975.7786404500075,4988.744294954149 4967.688470506258,4982.866442431224 4959.598300562509,4976.988589908298 4962.688470506258,4986.49915507125 4954.5983005625085,4992.377007594175 4951.5081306187585,5001.887572757127 4943.4179606750085,5007.76542528005 4946.508130618758,5017.275990443002 4936.508130618758,5017.275990443002" stroke="black" stroke-linecap="round" stroke-width="1" /><polyline clip-path="url(#border_clip)" fill="none" points="4936.508130618758,5017.275990443002 4939.598300562508,5007.76542528005 4936.5081306187585,4998.254860117098 4933.417960675009,4988.744294954147 4941.508130618759,4982.866442431223 4931.508130618759,4982.866442431222 4934.5983005625085,4992.377007594174 4942.688470506258,4986.499155071249 4945.7786404500075,4996.009720234201 4953.868810393757,4990.131867711277 4943.868810393757,4990.131867711277 4935.7786404500075,4984.254015188351 4932.6884705062575,4993.764580351302 4924.598300562508,4999.642432874227 4921.5081306187585,4990.131867711275 4924.598300562508,4999.642432874227 4921.508130618758,5009.152998037179 4918.417960675008,5018.66356320013 4928.417960675008,5018.663563200131 4920.327790731259,5024.541415723055 4917.237620787508,5034.051980886006 4925.327790731258,5028.174128363082 4915.327790731258,5028.174128363082 4925.327790731258,5028.174128363082 4922.237620787508,5037.684693526034 4912.237620787508,5037.684693526033 4915.327790731257,5047.195258688985 4923.417960675006,5053.07311121191 4926.508130618756,5043.562546048958 4918.417960675007,5037.684693526033 4926.508130618756,5043.562546048958 4929.598300562506,5034.051980886007 4932.688470506256,5024.541415723055 4929.598300562508,5015.030850560103 4919.598300562507,5015.030850560103 4909.598300562507,5015.030850560102 4917.688470506257,5020.908703083028 4914.598300562506,5030.41926824598 4917.688470506255,5039.929833408931 4914.598300562505,5049.440398571883 4922.688470506255,5055.318251094808 4914.598300562505,5061.196103617732 4911.508130618756,5051.685538454781" stroke="black" stroke-linecap="round" stroke-width="1" /><polyline clip-path="url(#border_clip)" fill="none" points="4911.508130618756,5051.685538454781 4903.417960675007,5045.807685931855 4895.327790731257,5039.92983340893 4898.417960675007,5030.419268245979 4890.327790731257,5036.2971207689025 4898.417960675007,5042.174973291828 4901.508130618757,5032.664408128877 4909.598300562506,5038.542260651801 4912.688470506256,5029.03169548885 4904.598300562506,5034.909548011775 4894.598300562506,5034.909548011774 4897.688470506255,5044.420113174726 4894.598300562505,5053.930678337677 4886.508130618756,5048.052825814752 4894.598300562505,5053.930678337677 4897.688470506254,5063.441243500629 4900.778640450003,5072.951808663581 4908.868810393753,5067.073956140656 4905.778640450002,5076.584521303608 4908.868810393751,5086.09508646656 4911.958980337501,5076.584521303608 4903.868810393752,5082.462373826533 4911.958980337501,5076.584521303608 4915.04915028125,5086.09508646656 4906.9589803375,5091.972938989485 4915.04915028125,5097.85079151241 4925.04915028125,5097.85079151241 4921.958980337501,5088.340226349458 4911.958980337501,5088.340226349458 4921.958980337501,5088.340226349458 4918.868810393752,5078.829661186507 4915.778640450003,5069.319096023555 4907.688470506254,5063.44124350063 4899.598300562504,5069.319096023554 4891.508130618754,5075.196948546478 4901.508130618754,5075.196948546479 4904.598300562503,5084.707513709431 4912.688470506252,5090.585366232356 4915.778640450001,5100.095931395308 4925.778640450001,5100.095931395308 4922.688470506251,5109.60649655826 4914.598300562502,5103.728644035335 4904.598300562502,5103.728644035334" stroke="black" stroke-linecap="round" stroke-width="1" /><polyline clip-path="url(#border_clip)" fill="none" points="4904.598300562502,5103.728644035334 4894.598300562502,5103.728644035334 4891.508130618753,5094.218078872382 4888.417960675003,5103.728644035333 4898.417960675003,5103.728644035334 4895.327790731254,5094.218078872382 4905.327790731254,5094.218078872383 4902.237620787505,5084.707513709431 4899.147450843755,5094.218078872382 4891.057280900005,5100.095931395306 4899.147450843754,5105.973783918232 4902.237620787503,5115.484349081184 4892.237620787503,5115.484349081183 4902.237620787503,5115.484349081184 4910.327790731252,5121.362201604109 4918.417960675001,5127.2400541270335 4921.508130618752,5117.7294889640825 4924.5983005625,5127.240054127034 4932.68847050625,5133.11790664996 4929.598300562501,5123.607341487008 4926.508130618751,5133.117906649959 4929.598300562501,5123.607341487008 4937.68847050625,5129.485194009933 4934.5983005625,5138.995759172884 4944.5983005625,5138.995759172885 4952.68847050625,5133.117906649961 4944.598300562501,5127.240054127035 4936.508130618751,5133.11790664996 4944.598300562501,5127.240054127035 4936.508130618752,5121.36220160411 4928.417960675002,5115.484349081185 4918.417960675002,5115.4843490811845 4915.327790731252,5124.9949142441355 4912.237620787502,5134.5054794070875 4920.327790731252,5128.627626884163 4928.417960675001,5134.505479407088 4938.417960675001,5134.505479407089 4946.50813061875,5140.383331930014 4954.5983005625,5134.50547940709 4957.688470506249,5144.016044570042 4947.688470506249,5144.016044570041 4939.598300562499,5149.893897092966 4931.508130618749,5155.771749615889" stroke="black" stroke-linecap="round" stroke-width="1" /><polyline clip-path="url(#border_clip)" fill="none" points="4931.508130618749,5155.771749615889 4923.417960675,5149.893897092965 4926.508130618749,5159.404462255916 4934.598300562499,5153.526609732992 4926.50813061875,5147.648757210067 4934.5983005625,5141.770904687142 4926.50813061875,5135.893052164217 4929.598300562499,5145.403617327169 4926.508130618749,5154.91418249012 4936.508130618749,5154.914182490121 4944.5983005624985,5160.792035013046 4936.5081306187485,5166.669887535971 4944.5983005624985,5160.792035013046 4954.5983005624985,5160.792035013047 4964.598300562499,5160.792035013048 4961.50813061875,5151.281469850096 4969.598300562499,5157.1593223730215 4979.598300562499,5157.1593223730215 4971.50813061875,5151.281469850096 4974.598300562499,5160.792035013048 4971.50813061875,5151.281469850096 4981.50813061875,5151.281469850097 4984.598300562499,5160.792035013049 4992.688470506249,5154.914182490124 4995.778640449999,5145.403617327173 4985.778640449999,5145.4036173271725 4982.688470506249,5154.914182490124 4985.778640449999,5145.4036173271725 4975.778640449999,5145.403617327172 4965.778640449999,5145.403617327172 4957.688470506249,5151.281469850095 4960.7786404499975,5160.792035013047 4963.868810393747,5170.302600175999 4966.9589803374965,5160.792035013048 4976.958980337497,5160.792035013048 4985.049150281247,5154.914182490124 4995.049150281247,5154.914182490124 4998.139320224997,5145.403617327173 5006.229490168746,5151.281469850099 4998.1393202249965,5157.159322373023 4995.0491502812465,5166.669887535974 4991.9589803374965,5176.180452698926 4981.958980337496,5176.180452698925" stroke="black" stroke-linecap="round" stroke-width="1" /><polyline clip-path="url(#border_clip)" fill="none" points="4981.958980337496,5176.180452698925 4990.049150281246,5182.058305221851 4993.139320224996,5172.547740058899 4983.139320224996,5172.547740058899 4986.2294901687455,5163.037174895947 4976.2294901687455,5163.037174895946 4984.319660112495,5168.915027418871 4987.409830056244,5178.425592581823 4995.499999999994,5172.547740058899 5005.499999999994,5172.5477400589 5002.409830056244,5182.058305221852 5005.499999999994,5172.5477400589 5013.590169943744,5166.669887535976 5021.680339887494,5160.792035013052 5013.5901699437445,5154.914182490126 5023.5901699437445,5154.914182490127 5031.6803398874945,5149.036329967203 5021.6803398874945,5149.036329967202 5029.7705098312435,5154.914182490127 5021.6803398874945,5149.036329967202 5029.770509831244,5143.158477444278 5037.8606797749935,5149.036329967203 5040.9508497187435,5139.525764804252 5037.860679774994,5130.0151996413 5029.770509831244,5135.893052164224 5032.8606797749935,5145.403617327176 5029.770509831244,5135.893052164224 5021.6803398874945,5141.770904687148 5013.5901699437445,5147.648757210072 5010.4999999999945,5157.159322373024 5018.590169943744,5163.03717489595 5026.680339887493,5168.915027418874 5023.590169943744,5159.404462255923 5031.680339887494,5153.526609732999 5034.770509831244,5144.016044570047 5042.860679774994,5138.138192047123 5039.770509831245,5128.627626884171 5049.770509831245,5128.627626884172 5046.680339887495,5138.138192047123 5049.770509831244,5147.648757210075 5052.860679774993,5157.159322373027 5044.770509831243,5163.0371748959515 5054.770509831243,5163.0371748959515" stroke="black" stroke-linecap="round" stroke-width="1" /><polyline clip-path="url(#border_clip)" fill="none" points="5054.770509831243,5163.0371748959515 5051.6803398874945,5153.526609733 5043.5901699437445,5159.404462255924 5040.499999999995,5149.893897092972 5032.4098300562455,5155.771749615897 5042.4098300562455,5155.7717496158975 5050.4999999999945,5161.649602138823 5053.5901699437445,5152.139036975871 5061.6803398874945,5146.261184452947 5064.7705098312435,5155.771749615898 5061.6803398874945,5146.261184452947 5064.770509831245,5136.7506192899955 5067.860679774995,5127.2400541270445 5057.860679774995,5127.240054127044 5065.950849718745,5121.362201604119 5069.041019662495,5111.851636441168 5060.950849718745,5117.729488964092 5070.950849718745,5117.7294889640925 5060.950849718745,5117.729488964092 5064.041019662495,5108.218923801141 5074.041019662496,5108.2189238011415 5070.950849718747,5098.70835863819 5062.860679774998,5092.830506115264 5059.770509831247,5102.341071278215 5067.860679774996,5108.218923801141 5059.770509831247,5102.341071278215 5056.680339887497,5111.851636441167 5053.590169943747,5121.362201604118 5056.680339887496,5130.87276676707 5066.680339887496,5130.872766767071 5076.680339887496,5130.872766767072 5068.590169943747,5124.9949142441465 5071.680339887497,5115.4843490811945 5068.590169943748,5105.973783918243 5071.680339887499,5096.463218755292 5063.59016994375,5090.585366232366 5071.6803398875,5084.707513709442 5074.770509831248,5094.218078872394 5082.860679774997,5100.095931395319 5090.950849718746,5105.973783918244 5087.860679774996,5115.484349081196 5095.950849718746,5109.606496558272 5087.860679774997,5103.728644035346" stroke="black" stroke-linecap="round" stroke-width="1" /><polyline clip-path="url(#border_clip)" fill="none" points="5087.860679774997,5103.728644035346 5084.770509831247,5113.239209198298 5076.680339887498,5107.361356675373 5073.590169943747,5116.871921838324 5081.680339887498,5110.994069315399 5091.680339887498,5110.9940693154 5088.590169943749,5101.483504152448 5091.680339887499,5091.972938989497 5099.770509831248,5097.850791512423 5091.680339887499,5091.972938989497 5088.590169943751,5082.462373826545 5085.500000000002,5072.9518086635935 5077.409830056252,5078.829661186518 5080.500000000002,5069.319096023566 5077.409830056254,5059.808530860614 5074.319660112503,5069.319096023566 5082.409830056253,5063.441243500642 5074.319660112503,5069.319096023566 5071.229490168755,5059.808530860614 5079.319660112505,5053.93067833769 5071.229490168756,5048.052825814764 5061.229490168755,5048.052825814763 5064.319660112504,5057.563390977715 5074.319660112504,5057.563390977716 5064.319660112504,5057.563390977715 5067.409830056253,5067.073956140667 5070.500000000001,5076.584521303619 5078.59016994375,5082.4623738265445 5086.680339887501,5076.58452130362 5094.770509831251,5070.706668780696 5084.770509831251,5070.7066687806955 5081.680339887502,5061.196103617744 5073.590169943753,5055.318251094818 5070.500000000004,5045.807685931866 5060.500000000004,5045.807685931865 5063.590169943754,5036.297120768914 5071.680339887503,5042.17497329184 5081.680339887504,5042.174973291841 5091.680339887504,5042.174973291841 5094.770509831252,5051.685538454793 5097.860679775003,5042.1749732918415 5087.860679775003,5042.174973291841 5090.950849718751,5051.685538454793" stroke="black" stroke-linecap="round" stroke-width="1" /><polyline clip-path="url(#border_clip)" fill="none" points="5090.950849718751,5051.685538454793 5080.950849718751,5051.685538454792 5084.0410196625,5061.196103617744 5087.13118960625,5051.685538454793 5095.22135955,5045.807685931868 5087.131189606251,5039.929833408943 5084.041019662502,5030.419268245991 5094.041019662503,5030.419268245992 5084.041019662502,5030.419268245991 5075.950849718753,5024.541415723065 5067.8606797750035,5018.66356320014 5064.770509831254,5028.174128363091 5061.6803398875045,5018.663563200139 5053.590169943755,5012.7857106772135 5056.6803398875045,5022.296275840165 5059.7705098312545,5012.785710677214 5056.6803398875045,5022.296275840165 5048.590169943755,5016.41842331724 5051.680339887505,5006.907858154289 5041.680339887505,5006.907858154288 5033.590169943755,5012.785710677213 5041.6803398875045,5018.663563200138 5049.7705098312545,5012.7857106772135 5041.6803398875045,5018.663563200138 5049.770509831254,5024.541415723063 5057.860679775003,5030.419268245989 5067.860679775003,5030.41926824599 5070.9508497187535,5020.908703083038 5074.0410196625035,5011.398137920087 5065.9508497187535,5017.27599044301 5057.860679775004,5011.398137920085 5047.860679775004,5011.398137920084 5039.770509831255,5005.520285397159 5031.680339887505,5011.398137920083 5028.590169943756,5001.887572757131 5038.590169943756,5001.887572757132 5046.680339887506,4996.009720234208 5054.770509831256,4990.131867711284 5062.860679775006,4996.009720234209 5059.770509831257,4986.4991550712575 5051.680339887507,4992.377007594181 5059.770509831256,4998.254860117107 5051.680339887506,5004.132712640031" stroke="black" stroke-linecap="round" stroke-width="1" /><polyline clip-path="url(#border_clip)" fill="none" points="5051.680339887506,5004.132712640031 5059.770509831255,5010.0105651629565 5056.680339887506,5000.500000000005 5059.770509831256,4990.9894348370535 5049.770509831256,4990.989434837053 5041.680339887507,4985.111582314127 5049.770509831257,4979.233729791203 5041.680339887507,4985.111582314127 5031.680339887507,4985.111582314126 5021.680339887507,4985.111582314125 5024.770509831256,4994.622147477077 5016.680339887507,4988.744294954152 5006.680339887506,4988.744294954151 5014.770509831255,4994.622147477076 5011.680339887507,4985.1115823141245 5014.770509831255,4994.622147477076 5004.770509831255,4994.6221474770755 5001.680339887507,4985.111582314124 4993.590169943757,4990.989434837047 4990.500000000006,5000.499999999999 5000.500000000006,5000.5 5003.590169943757,4990.989434837048 5000.500000000006,5000.5 5010.500000000006,5000.500000000001 5020.500000000007,5000.500000000002 5028.590169943757,4994.622147477077 5025.500000000008,4985.111582314125 5022.40983005626,4975.601017151173 5019.319660112509,4985.1115823141245 5009.319660112509,4985.1115823141245 5001.229490168759,4990.989434837048 4991.229490168759,4990.989434837047 4988.139320225008,5000.499999999998 4980.049150281259,4994.622147477073 4988.139320225009,4988.744294954149 4991.22949016876,4979.233729791197 4994.31966011251,4969.723164628246 5004.31966011251,4969.723164628247 4996.229490168761,4963.845312105322 4993.139320225011,4973.355877268273 5003.139320225011,4973.355877268274 5000.049150281261,4982.866442431226 5010.049150281261,4982.8664424312265" stroke="black" stroke-linecap="round" stroke-width="1" /><polyline clip-path="url(#border_clip)" fill="none" points="5010.049150281261,4982.8664424312265 5001.958980337512,4976.988589908301 4998.868810393763,4967.478024745348 4990.778640450013,4973.355877268273 4980.778640450013,4973.355877268272 4983.868810393763,4963.845312105321 4980.778640450013,4973.355877268272 4972.688470506263,4979.233729791196 4964.598300562513,4985.11158231412 4972.688470506262,4990.989434837045 4962.688470506261,4990.989434837044 4954.598300562511,4996.867287359969 4964.598300562511,4996.86728735997 4956.508130618762,4990.989434837044 4964.598300562511,4996.86728735997 4956.508130618761,5002.745139882893 4948.417960675012,4996.867287359968 4945.327790731262,5006.377852522919 4948.41796067501,5015.888417685871 4956.50813061876,5010.010565162947 4953.417960675012,5000.499999999995 4956.50813061876,5010.010565162947 4964.598300562511,5004.132712640023 4972.688470506261,4998.254860117099 4975.778640450011,4988.744294954148 4967.688470506262,4982.866442431222 4959.598300562513,4976.9885899082965 4962.688470506262,4986.499155071248 4954.598300562512,4992.377007594173 4951.508130618761,5001.887572757124 4943.417960675011,5007.7654252800485 4946.50813061876,5017.275990443 4936.508130618759,5017.2759904429995 4939.59830056251,5007.765425280048 4936.508130618761,4998.254860117096 4933.417960675013,4988.744294954144 4941.508130618763,4982.86644243122 4931.508130618763,4982.866442431219 4934.598300562511,4992.377007594171 4942.688470506262,4986.499155071247 4945.77864045001,4996.0097202341985 4953.86881039376,4990.131867711275 4943.86881039376,4990.131867711274" stroke="black" stroke-linecap="round" stroke-width="1" /><polyline clip-path="url(#border_clip)" fill="none" points="4943.86881039376,4990.131867711274 4935.778640450011,4984.254015188349 4932.688470506261,4993.7645803513 4924.59830056251,4999.642432874223 4921.508130618762,4990.131867711271 4924.59830056251,4999.642432874223 4921.50813061876,5009.152998037175 4918.417960675009,5018.663563200126 4928.41796067501,5018.663563200127 4920.3277907312595,5024.541415723052 4917.2376207875095,5034.051980886003 4925.3277907312595,5028.174128363079 4915.3277907312595,5028.174128363078 4925.3277907312595,5028.174128363079 4922.2376207875095,5037.68469352603 4912.237620787509,5037.684693526029 4915.327790731258,5047.195258688981 4923.417960675007,5053.0731112119065 4926.508130618757,5043.5625460489555 4918.417960675008,5037.68469352603 4926.508130618757,5043.5625460489555 4929.598300562508,5034.051980886004 4932.6884705062575,5024.5414157230525 4929.598300562509,5015.030850560101 4919.598300562509,5015.0308505601 4909.598300562509,5015.030850560099 4917.688470506258,5020.908703083024 4914.598300562508,5030.419268245975 4917.688470506256,5039.929833408927 4914.598300562506,5049.440398571879 4922.688470506255,5055.3182510948045 4914.598300562505,5061.196103617729 4911.508130618756,5051.685538454776 4903.417960675007,5045.807685931851 4895.327790731258,5039.929833408925 4898.4179606750085,5030.419268245974 4890.327790731259,5036.297120768898 4898.417960675008,5042.174973291823 4901.508130618758,5032.664408128872 4909.598300562507,5038.542260651798 4912.6884705062575,5029.031695488847 4904.598300562507,5034.90954801177 4894.598300562507,5034.909548011769" stroke="black" stroke-linecap="round" stroke-width="1" /><polyline clip-path="url(#border_clip)" fill="none" points="4894.598300562507,5034.909548011769 4897.688470506256,5044.420113174721 4894.598300562505,5053.930678337673 4886.508130618756,5048.052825814747 4894.598300562505,5053.930678337673 4897.688470506254,5063.441243500625 4900.778640450002,5072.951808663577 4908.868810393752,5067.073956140653 4905.778640450002,5076.584521303605 4908.86881039375,5086.0950864665565 4911.958980337501,5076.584521303605 4903.86881039375,5082.462373826529 4911.958980337501,5076.584521303605 4915.049150281249,5086.0950864665565 4906.958980337499,5091.972938989481 4915.049150281248,5097.850791512406 4925.049150281248,5097.850791512407 4921.9589803375,5088.340226349455 4911.958980337499,5088.3402263494545 4921.9589803375,5088.340226349455 4918.868810393751,5078.8296611865035 4915.778640450003,5069.3190960235515 4907.688470506254,5063.441243500626 4899.598300562503,5069.31909602355 4891.508130618753,5075.196948546474 4901.508130618753,5075.196948546475 4904.598300562502,5084.707513709427 4912.688470506251,5090.5853662323525 4915.778640449999,5100.095931395304 4925.778640449999,5100.095931395305 4922.688470506249,5109.606496558257 4914.5983005625,5103.728644035331 4904.5983005625,5103.72864403533 4894.598300562499,5103.728644035329 4891.508130618751,5094.218078872377 4888.417960675,5103.728644035328 4898.417960675001,5103.72864403533 4895.327790731252,5094.218078872378 4905.327790731252,5094.218078872379 4902.237620787504,5084.707513709427 4899.147450843753,5094.218078872378 4891.057280900003,5100.095931395302 4899.147450843752,5105.973783918228" stroke="black" stroke-linecap="round" stroke-width="1" /><polyline clip-path="url(#border_clip)" fill="none" points="4899.147450843752,5105.973783918228 4902.2376207875,5115.48434908118 4892.2376207875,5115.484349081179 4902.2376207875,5115.48434908118 4910.3277907312495,5121.362201604105 4918.4179606749985,5127.240054127031 4921.508130618749,5117.72948896408 4924.598300562498,5127.240054127032 4932.688470506247,5133.117906649957 4929.5983005624985,5123.607341487005 4926.508130618748,5133.117906649957 4929.5983005624985,5123.607341487005 4937.6884705062475,5129.485194009932 4934.598300562497,5138.995759172883 4944.598300562497,5138.9957591728835 4952.6884705062475,5133.11790664996 4944.5983005624985,5127.2400541270335 4936.508130618748,5133.117906649958 4944.5983005624985,5127.2400541270335 4936.508130618749,5121.362201604108 4928.417960675,5115.484349081183 4918.417960675,5115.484349081182 4915.3277907312495,5124.994914244133 4912.237620787499,5134.505479407084 4920.3277907312495,5128.62762688416 4928.4179606749985,5134.505479407086 4938.4179606749985,5134.5054794070875 4946.508130618748,5140.383331930013 4954.598300562498,5134.505479407089 4957.688470506246,5144.016044570041 4947.688470506246,5144.016044570039 4939.598300562496,5149.893897092964 4931.508130618746,5155.7717496158875 4923.417960674997,5149.893897092962 4926.508130618745,5159.404462255914 4934.598300562495,5153.52660973299 4926.508130618746,5147.648757210064 4934.598300562497,5141.7709046871405 4926.508130618748,5135.893052164215 4929.598300562496,5145.403617327167 4926.508130618746,5154.914182490118 4936.508130618746,5154.914182490119 4944.598300562495,5160.792035013045" stroke="black" stroke-linecap="round" stroke-width="1" /><polyline clip-path="url(#border_clip)" fill="none" points="4944.598300562495,5160.792035013045 4936.508130618744,5166.669887535969 4944.598300562495,5160.792035013045 4954.598300562495,5160.792035013046 4964.598300562495,5160.792035013047 4961.508130618747,5151.281469850095 4969.598300562496,5157.159322373021 4979.598300562496,5157.159322373022 4971.508130618747,5151.281469850096 4974.598300562495,5160.792035013048 4971.508130618747,5151.281469850096 4981.508130618747,5151.281469850097 4984.598300562495,5160.79203501305 4992.688470506246,5154.914182490125 4995.778640449996,5145.403617327174 4985.778640449996,5145.403617327173 4982.688470506246,5154.914182490124 4985.778640449996,5145.403617327173 4975.778640449996,5145.403617327172 4965.778640449996,5145.403617327171 4957.688470506246,5151.281469850095 4960.778640449994,5160.792035013047 4963.868810393742,5170.302600175999 4966.958980337493,5160.792035013047 4976.958980337493,5160.792035013049 4985.049150281243,5154.914182490124 4995.049150281244,5154.914182490126 4998.139320224994,5145.403617327174 5006.229490168743,5151.281469850101 4998.139320224993,5157.159322373024 4995.049150281242,5166.669887535975 4991.958980337491,5176.180452698927 4981.958980337491,5176.180452698925 4990.04915028124,5182.058305221852 4993.139320224991,5172.5477400589 4983.139320224991,5172.547740058899 4986.229490168741,5163.037174895948 4976.229490168741,5163.037174895947 4984.31966011249,5168.915027418872 4987.409830056238,5178.425592581824 4995.499999999989,5172.547740058901 5005.499999999989,5172.547740058902 5002.409830056238,5182.058305221853" stroke="black" stroke-linecap="round" stroke-width="1" /><polyline clip-path="url(#border_clip)" fill="none" points="5002.409830056238,5182.058305221853 5005.499999999989,5172.547740058902 5013.590169943739,5166.669887535978 5021.68033988749,5160.7920350130535 5013.590169943741,5154.914182490128 5023.590169943741,5154.914182490129 5031.680339887491,5149.036329967205 5021.680339887491,5149.036329967204 5029.77050983124,5154.91418249013 5021.680339887491,5149.036329967204 5029.770509831242,5143.15847744428 5037.86067977499,5149.036329967206 5040.950849718741,5139.525764804254 5037.860679774993,5130.015199641302 5029.770509831242,5135.893052164226 5032.860679774991,5145.403617327179 5029.770509831242,5135.893052164226 5021.680339887492,5141.7709046871505 5013.590169943742,5147.648757210074 5010.499999999991,5157.159322373025 5018.59016994374,5163.0371748959515 5026.680339887489,5168.915027418877 5023.59016994374,5159.404462255925 5031.680339887491,5153.526609733001 5034.770509831242,5144.016044570049 5042.860679774992,5138.138192047126 5039.7705098312435,5128.627626884174 5049.7705098312435,5128.627626884175 5046.680339887493,5138.138192047127 5049.770509831241,5147.648757210079 5052.86067977499,5157.159322373031 5044.770509831239,5163.037174895954 5054.77050983124,5163.037174895956 5051.680339887491,5153.526609733003 5043.590169943741,5159.404462255928 5040.499999999993,5149.893897092976 5032.409830056242,5155.771749615899 5042.409830056242,5155.7717496159 5050.499999999991,5161.649602138827 5053.590169943742,5152.139036975875 5061.680339887492,5146.261184452951 5064.770509831241,5155.771749615903 5061.680339887492,5146.261184452951" stroke="black" stroke-linecap="round" stroke-width="1" /><polyline clip-path="url(#border_clip)" fill="none" points="5061.680339887492,5146.261184452951 5064.770509831243,5136.75061929 5067.8606797749935,5127.240054127048 5057.8606797749935,5127.240054127047 5065.9508497187435,5121.362201604124 5069.041019662494,5111.851636441172 5060.950849718744,5117.729488964096 5070.950849718744,5117.729488964097 5060.950849718744,5117.729488964096 5064.041019662494,5108.218923801144 5074.041019662495,5108.218923801145 5070.950849718746,5098.708358638193 5062.860679774997,5092.830506115268 5059.770509831247,5102.341071278219 5067.860679774995,5108.218923801145 5059.770509831247,5102.341071278219 5056.680339887496,5111.851636441171 5053.590169943745,5121.362201604122 5056.680339887494,5130.872766767074 5066.6803398874945,5130.872766767075 5076.6803398874945,5130.872766767076 5068.590169943745,5124.99491424415 5071.680339887496,5115.484349081199 5068.590169943747,5105.973783918247 5071.680339887498,5096.463218755295 5063.590169943749,5090.58536623237 5071.6803398875,5084.707513709446 5074.770509831248,5094.218078872398 5082.860679774997,5100.0959313953235 5090.950849718746,5105.97378391825 5087.860679774995,5115.484349081201 5095.950849718745,5109.606496558277 5087.860679774997,5103.728644035351 5084.770509831246,5113.239209198303 5076.680339887497,5107.361356675377 5073.590169943746,5116.8719218383285 5081.680339887497,5110.994069315404 5091.680339887497,5110.994069315406 5088.590169943749,5101.483504152454 5091.680339887499,5091.972938989502 5099.770509831248,5097.850791512428 5091.680339887499,5091.972938989502 5088.590169943751,5082.46237382655" stroke="black" stroke-linecap="round" stroke-width="1" /><polyline clip-path="url(#border_clip)" fill="none" points="5088.590169943751,5082.46237382655 5085.500000000003,5072.951808663598 5077.409830056252,5078.829661186522 5080.500000000003,5069.319096023571 5077.409830056255,5059.808530860619 5074.319660112504,5069.31909602357 5082.409830056255,5063.441243500646 5074.319660112504,5069.31909602357 5071.229490168756,5059.808530860618 5079.3196601125055,5053.930678337693 5071.229490168757,5048.052825814768 5061.2294901687565,5048.052825814767 5064.3196601125055,5057.563390977719 5074.3196601125055,5057.56339097772 5064.3196601125055,5057.563390977719 5067.409830056254,5067.073956140671 5070.500000000002,5076.584521303623 5078.590169943751,5082.462373826549 5086.680339887501,5076.584521303625 5094.770509831252,5070.706668780701 5084.770509831251,5070.7066687807 5081.680339887503,5061.196103617748 5073.590169943754,5055.318251094822 5070.5000000000055,5045.80768593187 5060.5000000000055,5045.807685931869 5063.590169943756,5036.297120768917 5071.680339887505,5042.174973291843 5081.680339887505,5042.174973291844 5091.680339887505,5042.174973291845 5094.770509831254,5051.685538454798 5097.860679775004,5042.174973291846 5087.860679775004,5042.174973291845 5090.950849718753,5051.685538454797 5080.950849718753,5051.685538454796 5084.041019662501,5061.196103617748 5087.131189606252,5051.685538454797 5095.221359550002,5045.807685931873 5087.131189606253,5039.929833408947 5084.041019662504,5030.419268245995 5094.041019662505,5030.419268245996 5084.041019662504,5030.419268245995 5075.950849718756,5024.541415723069 5067.860679775007,5018.6635632001435" stroke="black" stroke-linecap="round" stroke-width="1" /><polyline clip-path="url(#border_clip)" fill="none" points="5067.860679775007,5018.6635632001435 5064.770509831256,5028.1741283630945 5061.680339887508,5018.663563200143 5053.590169943759,5012.785710677216 5056.680339887507,5022.296275840168 5059.770509831258,5012.785710677217 5056.680339887507,5022.296275840168 5048.590169943758,5016.418423317243 5051.680339887509,5006.907858154292 5041.680339887509,5006.90785815429 5033.590169943758,5012.7857106772135 5041.680339887507,5018.66356320014 5049.770509831258,5012.785710677216 5041.680339887507,5018.66356320014 5049.770509831256,5024.541415723065 5057.860679775005,5030.419268245992 5067.860679775005,5030.4192682459925 5070.950849718756,5020.9087030830415 5074.041019662507,5011.39813792009 5065.950849718756,5017.275990443014 5057.860679775008,5011.398137920088 5047.860679775007,5011.398137920087 5039.770509831259,5005.5202853971605 5031.680339887508,5011.398137920085 5028.59016994376,5001.887572757132 5038.59016994376,5001.887572757134 5046.680339887511,4996.00972023421 5054.770509831261,4990.131867711286 5062.86067977501,4996.009720234212 5059.770509831262,4986.49915507126 5051.680339887511,4992.377007594184 5059.77050983126,4998.254860117109 5051.68033988751,5004.132712640034 5059.770509831258,5010.010565162959 5056.68033988751,5000.500000000007 5059.770509831261,4990.989434837056 5049.770509831261,4990.989434837054 5041.680339887512,4985.111582314129 5049.770509831263,4979.2337297912045 5041.680339887512,4985.111582314129 5031.680339887512,4985.111582314127 5021.680339887512,4985.111582314126 5024.77050983126,4994.622147477078" stroke="black" stroke-linecap="round" stroke-width="1" /><polyline clip-path="url(#border_clip)" fill="none" points="5024.77050983126,4994.622147477078 5016.680339887511,4988.744294954152 5006.680339887511,4988.744294954151 5014.77050983126,4994.622147477076 5011.680339887511,4985.1115823141245 5014.77050983126,4994.622147477076 5004.770509831259,4994.6221474770755 5001.680339887511,4985.111582314124 4993.590169943761,4990.989434837047 4990.50000000001,5000.499999999998 5000.50000000001,5000.5 5003.590169943761,4990.989434837048 5000.50000000001,5000.5 5010.50000000001,5000.500000000001 5020.50000000001,5000.500000000003 5028.590169943761,4994.622147477079 5025.500000000013,4985.111582314126 5022.409830056265,4975.601017151174 5019.319660112514,4985.111582314125 5009.319660112514,4985.1115823141245 5001.229490168763,4990.989434837048 4991.229490168763,4990.989434837047 4988.139320225012,5000.499999999998 4980.049150281263,4994.622147477072 4988.139320225014,4988.744294954148 4991.229490168765,4979.233729791197 4994.319660112515,4969.723164628245 5004.3196601125155,4969.723164628247 4996.2294901687665,4963.845312105321 4993.139320225016,4973.355877268273 5003.139320225016,4973.355877268274 5000.049150281265,4982.866442431226 5010.049150281266,4982.8664424312265 5001.958980337517,4976.9885899083 4998.868810393768,4967.478024745348 4990.7786404500175,4973.355877268272 4980.7786404500175,4973.355877268271 4983.868810393768,4963.84531210532 4980.7786404500175,4973.355877268271 4972.688470506267,4979.2337297911945 4964.598300562517,4985.111582314118 4972.688470506266,4990.989434837044 4962.688470506265,4990.989434837043" stroke="black" stroke-linecap="round" stroke-width="1" /><polyline clip-path="url(#border_clip)" fill="none" points="4962.688470506265,4990.989434837043 4954.598300562515,4996.867287359966 4964.598300562515,4996.867287359968 4956.508130618766,4990.989434837042 4964.598300562515,4996.867287359968 4956.508130618764,5002.745139882892 4948.417960675016,4996.867287359965 4945.327790731265,5006.377852522917 4948.417960675013,5015.888417685869 4956.508130618763,5010.010565162946 4953.417960675015,5000.499999999994 4956.508130618763,5010.010565162946 4964.598300562514,5004.132712640022 4972.688470506264,4998.254860117098 4975.778640450015,4988.744294954146 4967.688470506267,4982.866442431221 4959.598300562518,4976.988589908295 4962.688470506266,4986.499155071247 4954.598300562515,4992.37700759417 4951.508130618764,5001.887572757122 4943.417960675014,5007.765425280046 4946.508130618762,5017.275990442998 4936.508130618762,5017.275990442997 4939.598300562513,5007.765425280045 4936.508130618765,4998.254860117093 4933.417960675017,4988.744294954141 4941.508130618767,4982.866442431217 4931.508130618767,4982.866442431216 4934.598300562515,4992.3770075941675 4942.688470506266,4986.499155071244 4945.778640450014,4996.009720234197 4953.868810393764,4990.131867711272 4943.868810393764,4990.131867711271 4935.778640450015,4984.254015188345 4932.688470506264,4993.764580351297 4924.598300562514,4999.6424328742205 4921.508130618766,4990.131867711268 4924.598300562514,4999.6424328742205 4921.508130618763,5009.1529980371715 4918.417960675012,5018.663563200123 4928.417960675012,5018.663563200124 4920.327790731261,5024.541415723048 4917.23762078751,5034.051980885999" stroke="black" stroke-linecap="round" stroke-width="1" /><polyline clip-path="url(#border_clip)" fill="none" points="4917.23762078751,5034.051980885999 4925.327790731261,5028.174128363075 4915.32779073126,5028.1741283630745 4925.327790731261,5028.174128363075 4922.23762078751,5037.684693526026 4912.2376207875095,5037.6846935260255 4915.327790731259,5047.195258688977 4923.417960675007,5053.073111211904 4926.508130618758,5043.562546048953 4918.417960675009,5037.684693526026 4926.508130618758,5043.562546048953 4929.5983005625085,5034.051980886001 4932.688470506259,5024.54141572305 4929.598300562511,5015.030850560098 4919.598300562511,5015.030850560096 4909.598300562511,5015.030850560094 4917.68847050626,5020.908703083021 4914.598300562509,5030.419268245972 4917.6884705062575,5039.929833408924 4914.598300562506,5049.440398571875 4922.688470506255,5055.318251094802 4914.598300562505,5061.196103617725 4911.508130618757,5051.685538454773 4903.417960675008,5045.807685931847 4895.327790731259,5039.929833408921 4898.417960675009,5030.41926824597 4890.3277907312595,5036.297120768893 4898.417960675008,5042.17497329182 4901.5081306187585,5032.664408128868 4909.598300562508,5038.542260651794 4912.688470506258,5029.031695488843 4904.5983005625085,5034.909548011767 4894.598300562508,5034.909548011765 4897.688470506256,5044.420113174717 4894.598300562505,5053.930678337669 4886.508130618757,5048.052825814742 4894.598300562505,5053.930678337669 4897.688470506253,5063.441243500621 4900.778640450001,5072.951808663573 4908.868810393752,5067.073956140649 4905.778640450001,5076.584521303601 4908.868810393749,5086.095086466553 4911.9589803375,5076.584521303602" stroke="black" stroke-linecap="round" stroke-width="1" /><polyline clip-path="url(#border_clip)" fill="none" points="4911.9589803375,5076.584521303602 4903.868810393749,5082.462373826525 4911.9589803375,5076.584521303602 4915.049150281248,5086.095086466554 4906.958980337497,5091.972938989477 4915.0491502812465,5097.850791512404 4925.0491502812465,5097.850791512405 4921.958980337498,5088.340226349453 4911.958980337498,5088.340226349451 4921.958980337498,5088.340226349453 4918.86881039375,5078.829661186501 4915.778640450002,5069.319096023548 4907.688470506254,5063.4412435006225 4899.598300562503,5069.319096023546 4891.508130618752,5075.19694854647 4901.508130618753,5075.196948546471 4904.5983005625,5084.707513709423 4912.688470506249,5090.58536623235 4915.7786404499975,5100.095931395302 4925.7786404499975,5100.0959313953035 4922.688470506247,5109.606496558255 4914.5983005624985,5103.728644035328 4904.598300562498,5103.728644035326 4894.598300562498,5103.7286440353255 4891.508130618749,5094.218078872373 4888.4179606749985,5103.728644035325 4898.4179606749985,5103.7286440353255 4895.32779073125,5094.218078872374 4905.327790731251,5094.218078872375 4902.237620787503,5084.7075137094225 4899.147450843751,5094.2180788723745 4891.057280900001,5100.095931395298 4899.1474508437495,5105.973783918224 4902.237620787498,5115.484349081176 4892.237620787498,5115.4843490811745 4902.237620787498,5115.484349081176 4910.327790731247,5121.362201604103 4918.417960674996,5127.240054127028 4921.508130618747,5117.729488964077 4924.598300562495,5127.240054127029 4932.688470506244,5133.117906649955 4929.598300562496,5123.607341487003 4926.508130618744,5133.117906649954" stroke="black" stroke-linecap="round" stroke-width="1" /><polyline clip-path="url(#border_clip)" fill="none" points="4926.508130618744,5133.117906649954 4929.598300562496,5123.607341487003 4937.688470506244,5129.48519400993 4934.598300562493,5138.995759172881 4944.598300562493,5138.995759172883 4952.688470506244,5133.117906649959 4944.598300562495,5127.240054127033 4936.508130618745,5133.117906649956 4944.598300562495,5127.240054127033 4936.508130618747,5121.362201604106 4928.417960674998,5115.48434908118 4918.417960674998,5115.484349081179 4915.327790731247,5124.99491424413 4912.237620787495,5134.505479407081 4920.327790731246,5128.6276268841575 4928.417960674995,5134.505479407084 4938.417960674995,5134.505479407086 4946.508130618744,5140.383331930011 4954.598300562495,5134.5054794070875 4957.688470506242,5144.01604457004 4947.688470506242,5144.0160445700385 4939.598300562491,5149.893897092962 4931.508130618741,5155.771749615886 4923.417960674992,5149.893897092959 4926.50813061874,5159.404462255912 4934.598300562491,5153.526609732989 4926.508130618742,5147.648757210062 4934.598300562493,5141.770904687139 4926.508130618744,5135.893052164212 4929.598300562492,5145.403617327164 4926.508130618741,5154.914182490116 4936.508130618741,5154.914182490117 4944.59830056249,5160.7920350130435 4936.508130618739,5166.669887535967 4944.59830056249,5160.7920350130435 4954.59830056249,5160.792035013045 4964.59830056249,5160.792035013047 4961.508130618742,5151.281469850094 4969.598300562491,5157.159322373021 4979.598300562491,5157.159322373022 4971.508130618743,5151.281469850096 4974.598300562491,5160.792035013048 4971.508130618743,5151.281469850096" stroke="black" stroke-linecap="round" stroke-width="1" /><polyline clip-path="url(#border_clip)" fill="none" points="4971.508130618743,5151.281469850096 4981.508130618743,5151.281469850098 4984.598300562491,5160.79203501305 4992.688470506242,5154.914182490126 4995.778640449993,5145.403617327175 4985.778640449992,5145.403617327173 4982.688470506241,5154.914182490124 4985.778640449992,5145.403617327173 4975.778640449992,5145.403617327172 4965.778640449992,5145.403617327171 4957.688470506241,5151.281469850093 4960.778640449989,5160.792035013046 4963.8688103937375,5170.302600175998 4966.958980337488,5160.792035013047 4976.958980337488,5160.792035013049 4985.049150281239,5154.914182490125 4995.049150281239,5154.914182490126 4998.139320224991,5145.403617327175 5006.229490168739,5151.2814698501015 4998.139320224989,5157.159322373025 4995.049150281237,5166.669887535976 4991.9589803374865,5176.180452698928 4981.9589803374865,5176.180452698926 4990.049150281236,5182.058305221853 4993.1393202249865,5172.547740058901 4983.139320224986,5172.5477400589 4986.229490168737,5163.037174895948 4976.229490168736,5163.037174895947 4984.3196601124855,5168.915027418872 4987.409830056234,5178.425592581825 4995.4999999999845,5172.547740058902 5005.4999999999845,5172.5477400589025 5002.409830056234,5182.058305221854 5005.4999999999845,5172.5477400589025 5013.590169943735,5166.66988753598 5021.680339887485,5160.792035013055 5013.590169943737,5154.91418249013 5023.590169943737,5154.914182490131 5031.680339887488,5149.036329967207 5021.680339887488,5149.036329967206 5029.770509831236,5154.914182490133 5021.680339887488,5149.036329967206 5029.770509831238,5143.158477444283" stroke="black" stroke-linecap="round" stroke-width="1" /><polyline clip-path="url(#border_clip)" fill="none" points="5029.770509831238,5143.158477444283 5037.860679774987,5149.036329967209 5040.950849718738,5139.525764804257 5037.86067977499,5130.015199641305 5029.77050983124,5135.893052164229 5032.860679774987,5145.403617327181 5029.77050983124,5135.893052164229 5021.680339887489,5141.770904687152 5013.590169943738,5147.648757210076 5010.499999999987,5157.159322373027 5018.590169943735,5163.037174895953 5026.6803398874845,5168.91502741888 5023.590169943736,5159.404462255927 5031.680339887487,5153.526609733003 5034.770509831238,5144.016044570052 5042.860679774989,5138.1381920471285 5039.770509831241,5128.627626884177 5049.770509831241,5128.6276268841775 5046.68033988749,5138.138192047129 5049.770509831238,5147.648757210081 5052.860679774986,5157.159322373034 5044.770509831235,5163.037174895958 5054.770509831235,5163.037174895959 5051.680339887488,5153.526609733007 5043.590169943737,5159.40446225593 5040.499999999989,5149.8938970929785 5032.409830056238,5155.771749615902 5042.409830056239,5155.771749615903 5050.499999999987,5161.649602138829 5053.590169943738,5152.139036975878 5061.680339887489,5146.261184452955 5064.770509831237,5155.771749615907 5061.680339887489,5146.261184452955 5064.77050983124,5136.750619290004 5067.860679774992,5127.240054127052 5057.860679774991,5127.240054127051 5065.950849718742,5121.362201604127 5069.041019662493,5111.851636441175 5060.950849718743,5117.729488964099 5070.950849718743,5117.729488964101 5060.950849718743,5117.729488964099 5064.041019662493,5108.218923801148 5074.041019662493,5108.21892380115" stroke="black" stroke-linecap="round" stroke-width="1" /><polyline clip-path="url(#border_clip)" fill="none" points="5074.041019662493,5108.21892380115 5070.950849718746,5098.708358638197 5062.860679774997,5092.8305061152705 5059.770509831246,5102.341071278222 5067.860679774994,5108.218923801149 5059.770509831246,5102.341071278222 5056.6803398874945,5111.8516364411735 5053.590169943744,5121.3622016041245 5056.680339887492,5130.872766767077 5066.680339887492,5130.872766767079 5076.680339887492,5130.872766767081 5068.590169943744,5124.994914244155 5071.6803398874945,5115.484349081203 5068.590169943746,5105.973783918251 5071.680339887498,5096.4632187553 5063.590169943749,5090.585366232373 5071.6803398875,5084.70751370945 5074.770509831248,5094.218078872402 5082.860679774996,5100.095931395328 5090.950849718745,5105.973783918254 5087.860679774994,5115.484349081205 5095.950849718744,5109.606496558282 5087.860679774996,5103.7286440353555 5084.770509831244,5113.239209198307 5076.680339887496,5107.361356675381 5073.5901699437445,5116.871921838332 5081.680339887495,5110.9940693154085 5091.680339887496,5110.99406931541 5088.590169943748,5101.483504152458 5091.680339887499,5091.9729389895065 5099.770509831248,5097.850791512433 5091.680339887499,5091.9729389895065 5088.590169943751,5082.4623738265545 5085.500000000004,5072.951808663602 5077.409830056253,5078.829661186525 5080.500000000004,5069.319096023574 5077.4098300562555,5059.808530860622 5074.319660112505,5069.319096023573 5082.4098300562555,5063.44124350065 5074.319660112505,5069.319096023573 5071.2294901687565,5059.8085308606205 5079.319660112507,5053.930678337698 5071.229490168758,5048.0528258147715" stroke="black" stroke-linecap="round" stroke-width="1" /><polyline clip-path="url(#border_clip)" fill="none" points="5071.229490168758,5048.0528258147715 5061.229490168758,5048.05282581477 5064.319660112506,5057.563390977722 5074.319660112506,5057.563390977723 5064.319660112506,5057.563390977722 5067.409830056255,5067.073956140674 5070.500000000002,5076.584521303626 5078.590169943751,5082.462373826553 5086.680339887502,5076.584521303629 5094.770509831253,5070.7066687807055 5084.770509831252,5070.706668780704 5081.6803398875045,5061.196103617752 5073.590169943755,5055.318251094825 5070.500000000007,5045.807685931873 5060.500000000007,5045.807685931872 5063.590169943758,5036.29712076892 5071.680339887507,5042.174973291846 5081.680339887507,5042.174973291848 5091.680339887507,5042.17497329185 5094.770509831255,5051.685538454802 5097.860679775007,5042.174973291851 5087.860679775006,5042.174973291849 5090.950849718754,5051.685538454802 5080.950849718754,5051.6855384548 5084.041019662502,5061.196103617752 5087.131189606253,5051.685538454801 5095.221359550004,5045.807685931877 5087.131189606255,5039.929833408951 5084.041019662507,5030.419268245999 5094.041019662508,5030.419268246001 5084.041019662507,5030.419268245999 5075.950849718759,5024.5414157230725 5067.86067977501,5018.663563200146 5064.770509831259,5028.174128363097 5061.680339887511,5018.663563200145 5053.590169943762,5012.785710677219 5056.68033988751,5022.296275840171 5059.770509831262,5012.78571067722 5056.68033988751,5022.296275840171 5048.590169943762,5016.418423317245 5051.680339887513,5006.9078581542935 5041.680339887513,5006.907858154292 5033.590169943762,5012.785710677215" stroke="black" stroke-linecap="round" stroke-width="1" /><polyline clip-path="url(#border_clip)" fill="none" points="5033.590169943762,5012.785710677215 5041.68033988751,5018.663563200142 5049.770509831261,5012.785710677218 5041.68033988751,5018.663563200142 5049.770509831259,5024.541415723068 5057.860679775007,5030.419268245994 5067.860679775008,5030.419268245996 5070.950849718759,5020.908703083044 5074.041019662511,5011.398137920093 5065.95084971876,5017.275990443017 5057.860679775011,5011.39813792009 5047.860679775011,5011.398137920089 5039.770509831262,5005.520285397162 5031.680339887511,5011.398137920086 5028.590169943764,5001.887572757133 5038.590169943764,5001.887572757135 5046.6803398875145,4996.009720234212 5054.770509831265,4990.131867711289 5062.8606797750135,4996.009720234215 5059.770509831266,4986.499155071262 5051.680339887515,4992.377007594186 5059.770509831264,4998.254860117112 5051.680339887513,5004.132712640036 5059.770509831262,5010.010565162962 5056.680339887514,5000.500000000009 5059.770509831265,4990.989434837058 5049.7705098312645,4990.989434837056 5041.680339887516,4985.11158231413 5049.770509831267,4979.233729791206 5041.680339887516,4985.11158231413 5031.680339887515,4985.111582314128 5021.680339887515,4985.111582314126 5024.770509831264,4994.622147477079 5016.6803398875145,4988.744294954153 5006.6803398875145,4988.744294954151 5014.770509831264,4994.622147477077 5011.680339887515,4985.1115823141245 5014.770509831264,4994.622147477077 5004.770509831263,4994.6221474770755 5001.680339887515,4985.111582314123 4993.5901699437645,4990.989434837046 4990.500000000013,5000.499999999997 5000.500000000014,5000.499999999999" stroke="black" stroke-linecap="round" stroke-width="1" /><polyline clip-path="url(#border_clip)" fill="none" points="5000.500000000014,5000.499999999999 5003.5901699437645,4990.989434837048 5000.500000000014,5000.499999999999" stroke="black" stroke-linecap="round" stroke-width="1" /></svg>