<?xml version="1.0" encoding="UTF-8"?>
<svg width="1e4px" height="1e4px" baseProfile="full" version="1.1" viewBox="4951.2 4954.3 154.44 153.88" xmlns="http://www.w3.org/2000/svg">
<defs>
<clipPath id="a">
<rect width="1e4" height="1e4"/>
</clipPath>
</defs>
<polyline points="5000.5 5000.5 5010.5 5000.5 5020.5 5000.5 5028.6 4994.6 5031.7 4985.1 5023.6 4979.2 5020.5 4988.7 5023.6 4979.2 5031.7 4973.4 5023.6 4979.2 5031.7 4973.4 5039.8 4967.5 5031.7 4973.4 5034.8 4963.8 5031.7 4954.3 5041.7 4954.3 5049.8 4960.2 5041.7 4966.1 5038.6 4956.6 5041.7 4966.1 5051.7 4966.1 5054.8 4975.6 5057.9 4985.1 5049.8 4991 5039.8 4991 5036.7 4981.5 5044.8 4975.6 5047.9 4985.1 5039.8 4979.2 5042.9 4988.7 5046 4998.3 5049 4988.7 5041 4994.6 5031 4994.6 5039 5000.5 5042.1 4991 5052.1 4991 5055.2 4981.5 5058.3 4972 5050.2 4966.1 5042.1 4972 5052.1 4972 5049 4981.5" clip-path="url(#a)" fill="none" stroke="#000" stroke-linecap="round"/>
<polyline points="5049 4981.5 5052.1 4991 5049 5000.5 5052.1 5010 5055.2 5019.5 5063.3 5025.4 5073.3 5025.4 5076.4 5015.9 5066.4 5015.9 5076.4 5015.9 5084.5 5021.8 5076.4 5015.9 5084.5 5021.8 5092.6 5027.6 5084.5 5021.8 5094.5 5021.8 5102.6 5015.9 5105.7 5025.4 5102.6 5034.9 5094.5 5029 5102.6 5023.2 5094.5 5029 5097.6 5038.5 5089.5 5044.4 5081.4 5050.3 5073.3 5044.4 5070.2 5034.9 5078.3 5029 5086.4 5034.9 5078.3 5040.8 5081.4 5031.3 5073.3 5037.2 5065.2 5043 5075.2 5043 5067.1 5037.2 5064 5027.6 5061 5037.2 5071 5037.2 5074 5046.7 5084 5046.7 5094 5046.7 5097.1 5037.2 5089 5031.3" clip-path="url(#a)" fill="none" stroke="#000" stroke-linecap="round"/>
<polyline points="5089 5031.3 5092.1 5040.8 5082.1 5040.8 5074 5046.7 5064 5046.7 5056 5052.5 5047.9 5058.4 5044.8 5067.9 5047.9 5077.4 5057.9 5077.4 5054.8 5067.9 5057.9 5077.4 5054.8 5087 5057.9 5077.4 5054.8 5087 5051.7 5096.5 5054.8 5087 5057.9 5096.5 5066 5102.3 5057.9 5108.2 5047.9 5108.2 5051 5098.7 5059 5104.6 5051 5098.7 5042.9 5104.6 5034.8 5098.7 5026.7 5092.8 5029.8 5083.3 5037.9 5077.4 5046 5083.3 5042.9 5092.8 5034.8 5087 5044.8 5087 5036.7 5081.1 5028.6 5075.2 5031.7 5084.7 5034.8 5075.2 5042.9 5069.3 5032.9 5069.3 5036 5078.8 5027.9 5084.7 5031 5094.2 5034 5103.7" clip-path="url(#a)" fill="none" stroke="#000" stroke-linecap="round"/>
<polyline points="5034 5103.7 5044 5103.7 5047.1 5094.2 5039 5100.1 5036 5090.6 5027.9 5084.7 5024.8 5075.2 5016.7 5069.3 5008.6 5063.4 4998.6 5063.4 4990.5 5069.3 4993.6 5078.8 5001.7 5073 4993.6 5078.8 4983.6 5078.8 4993.6 5078.8 4983.6 5078.8 4973.6 5078.8 4983.6 5078.8 4975.5 5084.7 4972.4 5094.2 4964.3 5088.3 4961.2 5078.8 4971.2 5078.8 4968.1 5088.3 4971.2 5078.8 4963.1 5073 4966.2 5063.4 4969.3 5053.9 4979.3 5053.9 4987.4 5059.8 4984.3 5069.3 4974.3 5069.3 4977.4 5059.8 4980.5 5069.3 4983.6 5059.8 4986.7 5050.3 4978.6 5056.2 4988.6 5056.2 4996.7 5062.1 4993.6 5052.5 4985.5 5058.4 4977.4 5052.5" clip-path="url(#a)" fill="none" stroke="#000" stroke-linecap="round"/>
<polyline points="4977.4 5052.5 4969.3 5058.4 4961.2 5064.3 4964.3 5073.8 4974.3 5073.8 4966.2 5067.9 4974.3 5062.1 4977.4 5052.5 4985.5 5046.7 4988.6 5037.2 4991.7 5027.6 4988.6 5018.1 4980.5 5012.3 4972.4 5018.1 4980.5 5024 4972.4 5018.1 4969.3 5008.6 4972.4 5018.1 4969.3 5008.6 4966.2 4999.1 4969.3 5008.6 4961.2 5002.7 4951.2 5002.7 4954.3 4993.2 4962.4 4987.4 4965.5 4996.9 4955.5 4996.9 4965.5 4996.9 4968.6 4987.4 4978.6 4987.4 4988.6 4987.4 4991.7 4996.9 4988.6 5006.4 4978.6 5006.4 4975.5 4996.9 4985.5 4996.9 4977.4 5002.7 4987.4 5002.7 4997.4 5002.7 4989.3 4996.9 4992.4 5006.4 4989.3 5015.9 4997.4 5010" clip-path="url(#a)" fill="none" stroke="#000" stroke-linecap="round"/>
<polyline points="4997.4 5010 4989.3 5004.1 4992.4 4994.6 4984.3 4988.7 4976.2 4982.9 4968.1 4988.7 4971.2 4998.3 4974.3 4988.7 4982.4 4994.6 4992.4 4994.6 5000.5 5000.5 5010.5 5000.5 5020.5 5000.5 5028.6 4994.6 5031.7 4985.1 5023.6 4979.2 5020.5 4988.7 5023.6 4979.2 5031.7 4973.4 5023.6 4979.2 5031.7 4973.4 5039.8 4967.5 5031.7 4973.4 5034.8 4963.8 5031.7 4954.3 5041.7 4954.3 5049.8 4960.2 5041.7 4966.1 5038.6 4956.6 5041.7 4966.1 5051.7 4966.1 5054.8 4975.6 5057.9 4985.1 5049.8 4991 5039.8 4991 5036.7 4981.5 5044.8 4975.6 5047.9 4985.1 5039.8 4979.2 5042.9 4988.7 5046 4998.3 5049 4988.7 5041 4994.6" clip-path="url(#a)" fill="none" stroke="#000" stroke-linecap="round"/>
<polyline points="5041 4994.6 5031 4994.6 5039 5000.5 5042.1 4991 5052.1 4991 5055.2 4981.5 5058.3 4972 5050.2 4966.1 5042.1 4972 5052.1 4972 5049 4981.5 5052.1 4991 5049 5000.5 5052.1 5010 5055.2 5019.5 5063.3 5025.4 5073.3 5025.4 5076.4 5015.9 5066.4 5015.9 5076.4 5015.9 5084.5 5021.8 5076.4 5015.9 5084.5 5021.8 5092.6 5027.6 5084.5 5021.8 5094.5 5021.8 5102.6 5015.9 5105.7 5025.4 5102.6 5034.9 5094.5 5029 5102.6 5023.2 5094.5 5029 5097.6 5038.5 5089.5 5044.4 5081.4 5050.3 5073.3 5044.4 5070.2 5034.9 5078.3 5029 5086.4 5034.9 5078.3 5040.8 5081.4 5031.3 5073.3 5037.2 5065.2 5043" clip-path="url(#a)" fill="none" stroke="#000" stroke-linecap="round"/>
<polyline points="5065.2 5043 5075.2 5043 5067.1 5037.2 5064 5027.6 5061 5037.2 5071 5037.2 5074 5046.7 5084 5046.7 5094 5046.7 5097.1 5037.2 5089 5031.3 5092.1 5040.8 5082.1 5040.8 5074 5046.7 5064 5046.7 5056 5052.5 5047.9 5058.4 5044.8 5067.9 5047.9 5077.4 5057.9 5077.4 5054.8 5067.9 5057.9 5077.4 5054.8 5087 5057.9 5077.4 5054.8 5087 5051.7 5096.5 5054.8 5087 5057.9 5096.5 5066 5102.3 5057.9 5108.2 5047.9 5108.2 5051 5098.7 5059 5104.6 5051 5098.7 5042.9 5104.6 5034.8 5098.7 5026.7 5092.8 5029.8 5083.3 5037.9 5077.4 5046 5083.3 5042.9 5092.8 5034.8 5087 5044.8 5087" clip-path="url(#a)" fill="none" stroke="#000" stroke-linecap="round"/>
<polyline points="5044.8 5087 5036.7 5081.1 5028.6 5075.2 5031.7 5084.7 5034.8 5075.2 5042.9 5069.3 5032.9 5069.3 5036 5078.8 5027.9 5084.7 5031 5094.2 5034 5103.7 5044 5103.7 5047.1 5094.2 5039 5100.1 5036 5090.6 5027.9 5084.7 5024.8 5075.2 5016.7 5069.3 5008.6 5063.4 4998.6 5063.4 4990.5 5069.3 4993.6 5078.8 5001.7 5073 4993.6 5078.8 4983.6 5078.8 4993.6 5078.8 4983.6 5078.8 4973.6 5078.8 4983.6 5078.8 4975.5 5084.7 4972.4 5094.2 4964.3 5088.3 4961.2 5078.8 4971.2 5078.8 4968.1 5088.3 4971.2 5078.8 4963.1 5073 4966.2 5063.4 4969.3 5053.9 4979.3 5053.9 4987.4 5059.8 4984.3 5069.3 4974.3 5069.3" clip-path="url(#a)" fill="none" stroke="#000" stroke-linecap="round"/>
<polyline points="4974.3 5069.3 4977.4 5059.8 4980.5 5069.3 4983.6 5059.8 4986.7 5050.3 4978.6 5056.2 4988.6 5056.2 4996.7 5062.1 4993.6 5052.5 4985.5 5058.4 4977.4 5052.5 4969.3 5058.4 4961.2 5064.3 4964.3 5073.8 4974.3 5073.8 4966.2 5067.9 4974.3 5062.1 4977.4 5052.5 4985.5 5046.7 4988.6 5037.2 4991.7 5027.6 4988.6 5018.1 4980.5 5012.3 4972.4 5018.1 4980.5 5024 4972.4 5018.1 4969.3 5008.6 4972.4 5018.1 4969.3 5008.6 4966.2 4999.1 4969.3 5008.6 4961.2 5002.7 4951.2 5002.7 4954.3 4993.2 4962.4 4987.4 4965.5 4996.9 4955.5 4996.9 4965.5 4996.9 4968.6 4987.4 4978.6 4987.4 4988.6 4987.4 4991.7 4996.9 4988.6 5006.4" clip-path="url(#a)" fill="none" stroke="#000" stroke-linecap="round"/>
<polyline points="4988.6 5006.4 4978.6 5006.4 4975.5 4996.9 4985.5 4996.9 4977.4 5002.7 4987.4 5002.7 4997.4 5002.7 4989.3 4996.9 4992.4 5006.4 4989.3 5015.9 4997.4 5010 4989.3 5004.1 4992.4 4994.6 4984.3 4988.7 4976.2 4982.9 4968.1 4988.7 4971.2 4998.3 4974.3 4988.7 4982.4 4994.6 4992.4 4994.6 5000.5 5000.5 5010.5 5000.5 5020.5 5000.5 5028.6 4994.6 5031.7 4985.1 5023.6 4979.2 5020.5 4988.7 5023.6 4979.2 5031.7 4973.4 5023.6 4979.2 5031.7 4973.4 5039.8 4967.5 5031.7 4973.4 5034.8 4963.8 5031.7 4954.3 5041.7 4954.3 5049.8 4960.2 5041.7 4966.1 5038.6 4956.6 5041.7 4966.1 5051.7 4966.1 5054.8 4975.6 5057.9 4985.1" clip-path="url(#a)" fill="none" stroke="#000" stroke-linecap="round"/>
<polyline points="5057.9 4985.1 5049.8 4991 5039.8 4991 5036.7 4981.5 5044.8 4975.6 5047.9 4985.1 5039.8 4979.2 5042.9 4988.7 5046 4998.3 5049 4988.7 5041 4994.6 5031 4994.6 5039 5000.5 5042.1 4991 5052.1 4991 5055.2 4981.5 5058.3 4972 5050.2 4966.1 5042.1 4972 5052.1 4972 5049 4981.5 5052.1 4991 5049 5000.5 5052.1 5010 5055.2 5019.5 5063.3 5025.4 5073.3 5025.4 5076.4 5015.9 5066.4 5015.9 5076.4 5015.9 5084.5 5021.8 5076.4 5015.9 5084.5 5021.8 5092.6 5027.6 5084.5 5021.8 5094.5 5021.8 5102.6 5015.9 5105.7 5025.4 5102.6 5034.9 5094.5 5029 5102.6 5023.2 5094.5 5029 5097.6 5038.5" clip-path="url(#a)" fill="none" stroke="#000" stroke-linecap="round"/>
<polyline points="5097.6 5038.5 5089.5 5044.4 5081.4 5050.3 5073.3 5044.4 5070.2 5034.9 5078.3 5029 5086.4 5034.9 5078.3 5040.8 5081.4 5031.3 5073.3 5037.2 5065.2 5043 5075.2 5043 5067.1 5037.2 5064 5027.6 5061 5037.2 5071 5037.2 5074 5046.7 5084 5046.7 5094 5046.7 5097.1 5037.2 5089 5031.3 5092.1 5040.8 5082.1 5040.8 5074 5046.7 5064 5046.7 5056 5052.5 5047.9 5058.4 5044.8 5067.9 5047.9 5077.4 5057.9 5077.4 5054.8 5067.9 5057.9 5077.4 5054.8 5087 5057.9 5077.4 5054.8 5087 5051.7 5096.5 5054.8 5087 5057.9 5096.5 5066 5102.3 5057.9 5108.2 5047.9 5108.2 5051 5098.7 5059 5104.6" clip-path="url(#a)" fill="none" stroke="#000" stroke-linecap="round"/>
<polyline points="5059 5104.6 5051 5098.7 5042.9 5104.6 5034.8 5098.7 5026.7 5092.8 5029.8 5083.3 5037.9 5077.4 5046 5083.3 5042.9 5092.8 5034.8 5087 5044.8 5087 5036.7 5081.1 5028.6 5075.2 5031.7 5084.7 5034.8 5075.2 5042.9 5069.3 5032.9 5069.3 5036 5078.8 5027.9 5084.7 5031 5094.2 5034 5103.7 5044 5103.7 5047.1 5094.2 5039 5100.1 5036 5090.6 5027.9 5084.7 5024.8 5075.2 5016.7 5069.3 5008.6 5063.4 4998.6 5063.4 4990.5 5069.3 4993.6 5078.8 5001.7 5073 4993.6 5078.8 4983.6 5078.8 4993.6 5078.8 4983.6 5078.8 4973.6 5078.8 4983.6 5078.8 4975.5 5084.7 4972.4 5094.2 4964.3 5088.3 4961.2 5078.8" clip-path="url(#a)" fill="none" stroke="#000" stroke-linecap="round"/>
<polyline points="4961.2 5078.8 4971.2 5078.8 4968.1 5088.3 4971.2 5078.8 4963.1 5073 4966.2 5063.4 4969.3 5053.9 4979.3 5053.9 4987.4 5059.8 4984.3 5069.3 4974.3 5069.3 4977.4 5059.8 4980.5 5069.3 4983.6 5059.8 4986.7 5050.3 4978.6 5056.2 4988.6 5056.2 4996.7 5062.1 4993.6 5052.5 4985.5 5058.4 4977.4 5052.5 4969.3 5058.4 4961.2 5064.3 4964.3 5073.8 4974.3 5073.8 4966.2 5067.9 4974.3 5062.1 4977.4 5052.5 4985.5 5046.7 4988.6 5037.2 4991.7 5027.6 4988.6 5018.1 4980.5 5012.3 4972.4 5018.1 4980.5 5024 4972.4 5018.1 4969.3 5008.6 4972.4 5018.1 4969.3 5008.6 4966.2 4999.1 4969.3 5008.6 4961.2 5002.7 4951.2 5002.7" clip-path="url(#a)" fill="none" stroke="#000" stroke-linecap="round"/>
<polyline points="4951.2 5002.7 4954.3 4993.2 4962.4 4987.4 4965.5 4996.9 4955.5 4996.9 4965.5 4996.9 4968.6 4987.4 4978.6 4987.4 4988.6 4987.4 4991.7 4996.9 4988.6 5006.4 4978.6 5006.4 4975.5 4996.9 4985.5 4996.9 4977.4 5002.7 4987.4 5002.7 4997.4 5002.7 4989.3 4996.9 4992.4 5006.4 4989.3 5015.9 4997.4 5010 4989.3 5004.1 4992.4 4994.6 4984.3 4988.7 4976.2 4982.9 4968.1 4988.7 4971.2 4998.3 4974.3 4988.7 4982.4 4994.6 4992.4 4994.6 5000.5 5000.5 5010.5 5000.5 5020.5 5000.5 5028.6 4994.6 5031.7 4985.1 5023.6 4979.2 5020.5 4988.7 5023.6 4979.2 5031.7 4973.4 5023.6 4979.2 5031.7 4973.4 5039.8 4967.5 5031.7 4973.4" clip-path="url(#a)" fill="none" stroke="#000" stroke-linecap="round"/>
<polyline points="5031.7 4973.4 5034.8 4963.8 5031.7 4954.3 5041.7 4954.3 5049.8 4960.2 5041.7 4966.1 5038.6 4956.6 5041.7 4966.1 5051.7 4966.1 5054.8 4975.6 5057.9 4985.1 5049.8 4991 5039.8 4991 5036.7 4981.5 5044.8 4975.6 5047.9 4985.1 5039.8 4979.2 5042.9 4988.7 5046 4998.3 5049 4988.7 5041 4994.6 5031 4994.6 5039 5000.5 5042.1 4991 5052.1 4991 5055.2 4981.5 5058.3 4972 5050.2 4966.1 5042.1 4972 5052.1 4972 5049 4981.5 5052.1 4991 5049 5000.5 5052.1 5010 5055.2 5019.5 5063.3 5025.4 5073.3 5025.4 5076.4 5015.9 5066.4 5015.9 5076.4 5015.9 5084.5 5021.8 5076.4 5015.9 5084.5 5021.8" clip-path="url(#a)" fill="none" stroke="#000" stroke-linecap="round"/>
<polyline points="5084.5 5021.8 5092.6 5027.6 5084.5 5021.8 5094.5 5021.8 5102.6 5015.9 5105.7 5025.4 5102.6 5034.9 5094.5 5029 5102.6 5023.2 5094.5 5029 5097.6 5038.5 5089.5 5044.4 5081.4 5050.3 5073.3 5044.4 5070.2 5034.9 5078.3 5029 5086.4 5034.9 5078.3 5040.8 5081.4 5031.3 5073.3 5037.2 5065.2 5043 5075.2 5043 5067.1 5037.2 5064 5027.6 5061 5037.2 5071 5037.2 5074 5046.7 5084 5046.7 5094 5046.7 5097.1 5037.2 5089 5031.3 5092.1 5040.8 5082.1 5040.8 5074 5046.7 5064 5046.7 5056 5052.5 5047.9 5058.4 5044.8 5067.9 5047.9 5077.4 5057.9 5077.4 5054.8 5067.9 5057.9 5077.4 5054.8 5087" clip-path="url(#a)" fill="none" stroke="#000" stroke-linecap="round"/>
<polyline points="5054.8 5087 5057.9 5077.4 5054.8 5087 5051.7 5096.5 5054.8 5087 5057.9 5096.5 5066 5102.3 5057.9 5108.2 5047.9 5108.2 5051 5098.7 5059 5104.6 5051 5098.7 5042.9 5104.6 5034.8 5098.7 5026.7 5092.8 5029.8 5083.3 5037.9 5077.4 5046 5083.3 5042.9 5092.8 5034.8 5087 5044.8 5087 5036.7 5081.1 5028.6 5075.2 5031.7 5084.7 5034.8 5075.2 5042.9 5069.3 5032.9 5069.3 5036 5078.8 5027.9 5084.7 5031 5094.2 5034 5103.7 5044 5103.7 5047.1 5094.2 5039 5100.1 5036 5090.6 5027.9 5084.7 5024.8 5075.2 5016.7 5069.3 5008.6 5063.4 4998.6 5063.4 4990.5 5069.3 4993.6 5078.8 5001.7 5073" clip-path="url(#a)" fill="none" stroke="#000" stroke-linecap="round"/>
<polyline points="5001.7 5073 4993.6 5078.8 4983.6 5078.8 4993.6 5078.8 4983.6 5078.8 4973.6 5078.8 4983.6 5078.8 4975.5 5084.7 4972.4 5094.2 4964.3 5088.3 4961.2 5078.8 4971.2 5078.8 4968.1 5088.3 4971.2 5078.8 4963.1 5073 4966.2 5063.4 4969.3 5053.9 4979.3 5053.9 4987.4 5059.8 4984.3 5069.3 4974.3 5069.3 4977.4 5059.8 4980.5 5069.3 4983.6 5059.8 4986.7 5050.3 4978.6 5056.2 4988.6 5056.2 4996.7 5062.1 4993.6 5052.5 4985.5 5058.4 4977.4 5052.5 4969.3 5058.4 4961.2 5064.3 4964.3 5073.8 4974.3 5073.8 4966.2 5067.9 4974.3 5062.1 4977.4 5052.5 4985.5 5046.7 4988.6 5037.2 4991.7 5027.6 4988.6 5018.1 4980.5 5012.3" clip-path="url(#a)" fill="none" stroke="#000" stroke-linecap="round"/>
<polyline points="4980.5 5012.3 4972.4 5018.1 4980.5 5024 4972.4 5018.1 4969.3 5008.6 4972.4 5018.1 4969.3 5008.6 4966.2 4999.1 4969.3 5008.6 4961.2 5002.7 4951.2 5002.7 4954.3 4993.2 4962.4 4987.4 4965.5 4996.9 4955.5 4996.9 4965.5 4996.9 4968.6 4987.4 4978.6 4987.4 4988.6 4987.4 4991.7 4996.9 4988.6 5006.4 4978.6 5006.4 4975.5 4996.9 4985.5 4996.9 4977.4 5002.7 4987.4 5002.7 4997.4 5002.7 4989.3 4996.9 4992.4 5006.4 4989.3 5015.9 4997.4 5010 4989.3 5004.1 4992.4 4994.6 4984.3 4988.7 4976.2 4982.9 4968.1 4988.7 4971.2 4998.3 4974.3 4988.7 4982.4 4994.6 4992.4 4994.6 5000.5 5000.5 5010.5 5000.5 5020.5 5000.5" clip-path="url(#a)" fill="none" stroke="#000" stroke-linecap="round"/>
<polyline points="5020.5 5000.5 5028.6 4994.6 5031.7 4985.1 5023.6 4979.2 5020.5 4988.7 5023.6 4979.2 5031.7 4973.4 5023.6 4979.2 5031.7 4973.4 5039.8 4967.5 5031.7 4973.4 5034.8 4963.8 5031.7 4954.3 5041.7 4954.3 5049.8 4960.2 5041.7 4966.1 5038.6 4956.6 5041.7 4966.1 5051.7 4966.1 5054.8 4975.6 5057.9 4985.1 5049.8 4991 5039.8 4991 5036.7 4981.5 5044.8 4975.6 5047.9 4985.1 5039.8 4979.2 5042.9 4988.7 5046 4998.3 5049 4988.7 5041 4994.6 5031 4994.6 5039 5000.5 5042.1 4991 5052.1 4991 5055.2 4981.5 5058.3 4972 5050.2 4966.1 5042.1 4972 5052.1 4972 5049 4981.5 5052.1 4991 5049 5000.5" clip-path="url(#a)" fill="none" stroke="#000" stroke-linecap="round"/>
<polyline points="5049 5000.5 5052.1 5010 5055.2 5019.5 5063.3 5025.4 5073.3 5025.4 5076.4 5015.9 5066.4 5015.9 5076.4 5015.9 5084.5 5021.8 5076.4 5015.9 5084.5 5021.8 5092.6 5027.6 5084.5 5021.8 5094.5 5021.8 5102.6 5015.9 5105.7 5025.4 5102.6 5034.9 5094.5 5029 5102.6 5023.2 5094.5 5029 5097.6 5038.5 5089.5 5044.4 5081.4 5050.3 5073.3 5044.4 5070.2 5034.9 5078.3 5029 5086.4 5034.9 5078.3 5040.8 5081.4 5031.3 5073.3 5037.2 5065.2 5043 5075.2 5043 5067.1 5037.2 5064 5027.6 5061 5037.2 5071 5037.2 5074 5046.7 5084 5046.7 5094 5046.7 5097.1 5037.2 5089 5031.3 5092.1 5040.8 5082.1 5040.8" clip-path="url(#a)" fill="none" stroke="#000" stroke-linecap="round"/>
<polyline points="5082.1 5040.8 5074 5046.7 5064 5046.7 5056 5052.5 5047.9 5058.4 5044.8 5067.9 5047.9 5077.4 5057.9 5077.4 5054.8 5067.9 5057.9 5077.4 5054.8 5087 5057.9 5077.4 5054.8 5087 5051.7 5096.5 5054.8 5087 5057.9 5096.5 5066 5102.3 5057.9 5108.2 5047.9 5108.2 5051 5098.7 5059 5104.6 5051 5098.7 5042.9 5104.6 5034.8 5098.7 5026.7 5092.8 5029.8 5083.3 5037.9 5077.4 5046 5083.3 5042.9 5092.8 5034.8 5087 5044.8 5087 5036.7 5081.1 5028.6 5075.2 5031.7 5084.7 5034.8 5075.2 5042.9 5069.3 5032.9 5069.3 5036 5078.8 5027.9 5084.7 5031 5094.2 5034 5103.7 5044 5103.7 5047.1 5094.2" clip-path="url(#a)" fill="none" stroke="#000" stroke-linecap="round"/>
<polyline points="5047.1 5094.2 5039 5100.1 5036 5090.6 5027.9 5084.7 5024.8 5075.2 5016.7 5069.3 5008.6 5063.4 4998.6 5063.4 4990.5 5069.3 4993.6 5078.8 5001.7 5073 4993.6 5078.8 4983.6 5078.8 4993.6 5078.8 4983.6 5078.8 4973.6 5078.8 4983.6 5078.8 4975.5 5084.7 4972.4 5094.2 4964.3 5088.3 4961.2 5078.8 4971.2 5078.8 4968.1 5088.3 4971.2 5078.8 4963.1 5073 4966.2 5063.4 4969.3 5053.9 4979.3 5053.9 4987.4 5059.8 4984.3 5069.3 4974.3 5069.3 4977.4 5059.8 4980.5 5069.3 4983.6 5059.8 4986.7 5050.3 4978.6 5056.2 4988.6 5056.2 4996.7 5062.1 4993.6 5052.5 4985.5 5058.4 4977.4 5052.5 4969.3 5058.4 4961.2 5064.3" clip-path="url(#a)" fill="none" stroke="#000" stroke-linecap="round"/>
<polyline points="4961.2 5064.3 4964.3 5073.8 4974.3 5073.8 4966.2 5067.9 4974.3 5062.1 4977.4 5052.5 4985.5 5046.7 4988.6 5037.2 4991.7 5027.6 4988.6 5018.1 4980.5 5012.3 4972.4 5018.1 4980.5 5024 4972.4 5018.1 4969.3 5008.6 4972.4 5018.1 4969.3 5008.6 4966.2 4999.1 4969.3 5008.6 4961.2 5002.7 4951.2 5002.7 4954.3 4993.2 4962.4 4987.4 4965.5 4996.9 4955.5 4996.9 4965.5 4996.9 4968.6 4987.4 4978.6 4987.4 4988.6 4987.4 4991.7 4996.9 4988.6 5006.4 4978.6 5006.4 4975.5 4996.9 4985.5 4996.9 4977.4 5002.7 4987.4 5002.7 4997.4 5002.7 4989.3 4996.9 4992.4 5006.4 4989.3 5015.9 4997.4 5010 4989.3 5004.1 4992.4 4994.6" clip-path="url(#a)" fill="none" stroke="#000" stroke-linecap="round"/>
<polyline points="4992.4 4994.6 4984.3 4988.7 4976.2 4982.9 4968.1 4988.7 4971.2 4998.3 4974.3 4988.7 4982.4 4994.6 4992.4 4994.6 5000.5 5000.5 5010.5 5000.5 5020.5 5000.5 5028.6 4994.6 5031.7 4985.1 5023.6 4979.2 5020.5 4988.7 5023.6 4979.2 5031.7 4973.4 5023.6 4979.2 5031.7 4973.4 5039.8 4967.5 5031.7 4973.4 5034.8 4963.8 5031.7 4954.3 5041.7 4954.3 5049.8 4960.2 5041.7 4966.1 5038.6 4956.6 5041.7 4966.1 5051.7 4966.1 5054.8 4975.6 5057.9 4985.1 5049.8 4991 5039.8 4991 5036.7 4981.5 5044.8 4975.6 5047.9 4985.1 5039.8 4979.2 5042.9 4988.7 5046 4998.3 5049 4988.7 5041 4994.6 5031 4994.6 5039 5000.5" clip-path="url(#a)" fill="none" stroke="#000" stroke-linecap="round"/>
<polyline points="5039 5000.5 5042.1 4991 5052.1 4991 5055.2 4981.5 5058.3 4972 5050.2 4966.1 5042.1 4972 5052.1 4972 5049 4981.5 5052.1 4991 5049 5000.5 5052.1 5010 5055.2 5019.5 5063.3 5025.4 5073.3 5025.4 5076.4 5015.9 5066.4 5015.9 5076.4 5015.9 5084.5 5021.8 5076.4 5015.9 5084.5 5021.8 5092.6 5027.6 5084.5 5021.8 5094.5 5021.8 5102.6 5015.9 5105.7 5025.4 5102.6 5034.9 5094.5 5029 5102.6 5023.2 5094.5 5029 5097.6 5038.5 5089.5 5044.4 5081.4 5050.3 5073.3 5044.4 5070.2 5034.9 5078.3 5029 5086.4 5034.9 5078.3 5040.8 5081.4 5031.3 5073.3 5037.2 5065.2 5043 5075.2 5043 5067.1 5037.2" clip-path="url(#a)" fill="none" stroke="#000" stroke-linecap="round"/>
<polyline points="5067.1 5037.2 5064 5027.6 5061 5037.2 5071 5037.2 5074 5046.7 5084 5046.7 5094 5046.7 5097.1 5037.2 5089 5031.3 5092.1 5040.8 5082.1 5040.8 5074 5046.7 5064 5046.7 5056 5052.5 5047.9 5058.4 5044.8 5067.9 5047.9 5077.4 5057.9 5077.4 5054.8 5067.9 5057.9 5077.4 5054.8 5087 5057.9 5077.4 5054.8 5087 5051.7 5096.5 5054.8 5087 5057.9 5096.5 5066 5102.3 5057.9 5108.2 5047.9 5108.2 5051 5098.7 5059 5104.6 5051 5098.7 5042.9 5104.6 5034.8 5098.7 5026.7 5092.8 5029.8 5083.3 5037.9 5077.4 5046 5083.3 5042.9 5092.8 5034.8 5087 5044.8 5087 5036.7 5081.1 5028.6 5075.2" clip-path="url(#a)" fill="none" stroke="#000" stroke-linecap="round"/>
<polyline points="5028.6 5075.2 5031.7 5084.7 5034.8 5075.2 5042.9 5069.3 5032.9 5069.3 5036 5078.8 5027.9 5084.7 5031 5094.2 5034 5103.7 5044 5103.7 5047.1 5094.2 5039 5100.1 5036 5090.6 5027.9 5084.7 5024.8 5075.2 5016.7 5069.3 5008.6 5063.4 4998.6 5063.4 4990.5 5069.3 4993.6 5078.8 5001.7 5073 4993.6 5078.8 4983.6 5078.8 4993.6 5078.8 4983.6 5078.8 4973.6 5078.8 4983.6 5078.8 4975.5 5084.7 4972.4 5094.2 4964.3 5088.3 4961.2 5078.8 4971.2 5078.8 4968.1 5088.3 4971.2 5078.8 4963.1 5073 4966.2 5063.4 4969.3 5053.9 4979.3 5053.9 4987.4 5059.8 4984.3 5069.3 4974.3 5069.3 4977.4 5059.8 4980.5 5069.3" clip-path="url(#a)" fill="none" stroke="#000" stroke-linecap="round"/>
<polyline points="4980.5 5069.3 4983.6 5059.8 4986.7 5050.3 4978.6 5056.2 4988.6 5056.2 4996.7 5062.1 4993.6 5052.5 4985.5 5058.4 4977.4 5052.5 4969.3 5058.4 4961.2 5064.3 4964.3 5073.8 4974.3 5073.8 4966.2 5067.9 4974.3 5062.1 4977.4 5052.5 4985.5 5046.7 4988.6 5037.2 4991.7 5027.6 4988.6 5018.1 4980.5 5012.3 4972.4 5018.1 4980.5 5024 4972.4 5018.1 4969.3 5008.6 4972.4 5018.1 4969.3 5008.6 4966.2 4999.1 4969.3 5008.6 4961.2 5002.7 4951.2 5002.7 4954.3 4993.2 4962.4 4987.4 4965.5 4996.9 4955.5 4996.9 4965.5 4996.9 4968.6 4987.4 4978.6 4987.4 4988.6 4987.4 4991.7 4996.9 4988.6 5006.4 4978.6 5006.4 4975.5 4996.9" clip-path="url(#a)" fill="none" stroke="#000" stroke-linecap="round"/>
<polyline points="4975.5 4996.9 4985.5 4996.9 4977.4 5002.7 4987.4 5002.7 4997.4 5002.7 4989.3 4996.9 4992.4 5006.4 4989.3 5015.9 4997.4 5010 4989.3 5004.1 4992.4 4994.6 4984.3 4988.7 4976.2 4982.9 4968.1 4988.7 4971.2 4998.3 4974.3 4988.7 4982.4 4994.6 4992.4 4994.6 5000.5 5000.5 5010.5 5000.5 5020.5 5000.5 5028.6 4994.6 5031.7 4985.1 5023.6 4979.2 5020.5 4988.7 5023.6 4979.2 5031.7 4973.4 5023.6 4979.2 5031.7 4973.4 5039.8 4967.5 5031.7 4973.4 5034.8 4963.8 5031.7 4954.3 5041.7 4954.3 5049.8 4960.2 5041.7 4966.1 5038.6 4956.6 5041.7 4966.1 5051.7 4966.1 5054.8 4975.6 5057.9 4985.1 5049.8 4991 5039.8 4991" clip-path="url(#a)" fill="none" stroke="#000" stroke-linecap="round"/>
<polyline points="5039.8 4991 5036.7 4981.5 5044.8 4975.6 5047.9 4985.1 5039.8 4979.2 5042.9 4988.7 5046 4998.3 5049 4988.7 5041 4994.6 5031 4994.6 5039 5000.5 5042.1 4991 5052.1 4991 5055.2 4981.5 5058.3 4972 5050.2 4966.1 5042.1 4972 5052.1 4972 5049 4981.5 5052.1 4991 5049 5000.5 5052.1 5010 5055.2 5019.5 5063.3 5025.4 5073.3 5025.4 5076.4 5015.9 5066.4 5015.9 5076.4 5015.9 5084.5 5021.8 5076.4 5015.9 5084.5 5021.8 5092.6 5027.6 5084.5 5021.8 5094.5 5021.8 5102.6 5015.9 5105.7 5025.4 5102.6 5034.9 5094.5 5029 5102.6 5023.2 5094.5 5029 5097.6 5038.5 5089.5 5044.4 5081.4 5050.3" clip-path="url(#a)" fill="none" stroke="#000" stroke-linecap="round"/>
<polyline points="5081.4 5050.3 5073.3 5044.4 5070.2 5034.9 5078.3 5029 5086.4 5034.9 5078.3 5040.8 5081.4 5031.3 5073.3 5037.2 5065.2 5043 5075.2 5043 5067.1 5037.2 5064 5027.6 5061 5037.2 5071 5037.2 5074 5046.7 5084 5046.7 5094 5046.7 5097.1 5037.2 5089 5031.3 5092.1 5040.8 5082.1 5040.8 5074 5046.7 5064 5046.7 5056 5052.5 5047.9 5058.4 5044.8 5067.9 5047.9 5077.4 5057.9 5077.4 5054.8 5067.9 5057.9 5077.4 5054.8 5087 5057.9 5077.4 5054.8 5087 5051.7 5096.5 5054.8 5087 5057.9 5096.5 5066 5102.3 5057.9 5108.2 5047.9 5108.2 5051 5098.7 5059 5104.6 5051 5098.7 5042.9 5104.6" clip-path="url(#a)" fill="none" stroke="#000" stroke-linecap="round"/>
<polyline points="5042.9 5104.6 5034.8 5098.7 5026.7 5092.8 5029.8 5083.3 5037.9 5077.4 5046 5083.3 5042.9 5092.8 5034.8 5087 5044.8 5087 5036.7 5081.1 5028.6 5075.2 5031.7 5084.7 5034.8 5075.2 5042.9 5069.3 5032.9 5069.3 5036 5078.8 5027.9 5084.7 5031 5094.2 5034 5103.7 5044 5103.7 5047.1 5094.2 5039 5100.1 5036 5090.6 5027.9 5084.7 5024.8 5075.2 5016.7 5069.3 5008.6 5063.4 4998.6 5063.4 4990.5 5069.3 4993.6 5078.8 5001.7 5073 4993.6 5078.8 4983.6 5078.8 4993.6 5078.8 4983.6 5078.8 4973.6 5078.8 4983.6 5078.8 4975.5 5084.7 4972.4 5094.2 4964.3 5088.3 4961.2 5078.8 4971.2 5078.8 4968.1 5088.3" clip-path="url(#a)" fill="none" stroke="#000" stroke-linecap="round"/>
<polyline points="4968.1 5088.3 4971.2 5078.8 4963.1 5073 4966.2 5063.4 4969.3 5053.9 4979.3 5053.9 4987.4 5059.8 4984.3 5069.3 4974.3 5069.3 4977.4 5059.8 4980.5 5069.3 4983.6 5059.8 4986.7 5050.3 4978.6 5056.2 4988.6 5056.2 4996.7 5062.1 4993.6 5052.5 4985.5 5058.4 4977.4 5052.5 4969.3 5058.4 4961.2 5064.3 4964.3 5073.8 4974.3 5073.8 4966.2 5067.9 4974.3 5062.1 4977.4 5052.5 4985.5 5046.7 4988.6 5037.2 4991.7 5027.6 4988.6 5018.1 4980.5 5012.3 4972.4 5018.1 4980.5 5024 4972.4 5018.1 4969.3 5008.6 4972.4 5018.1 4969.3 5008.6 4966.2 4999.1 4969.3 5008.6 4961.2 5002.7 4951.2 5002.7 4954.3 4993.2 4962.4 4987.4" clip-path="url(#a)" fill="none" stroke="#000" stroke-linecap="round"/>
<polyline points="4962.4 4987.4 4965.5 4996.9 4955.5 4996.9 4965.5 4996.9 4968.6 4987.4 4978.6 4987.4 4988.6 4987.4 4991.7 4996.9 4988.6 5006.4 4978.6 5006.4 4975.5 4996.9 4985.5 4996.9 4977.4 5002.7 4987.4 5002.7 4997.4 5002.7 4989.3 4996.9 4992.4 5006.4 4989.3 5015.9 4997.4 5010 4989.3 5004.1 4992.4 4994.6 4984.3 4988.7 4976.2 4982.9 4968.1 4988.7 4971.2 4998.3 4974.3 4988.7 4982.4 4994.6 4992.4 4994.6 5000.5 5000.5 5010.5 5000.5 5020.5 5000.5 5028.6 4994.6 5031.7 4985.1 5023.6 4979.2 5020.5 4988.7 5023.6 4979.2 5031.7 4973.4 5023.6 4979.2 5031.7 4973.4 5039.8 4967.5 5031.7 4973.4 5034.8 4963.8 5031.7 4954.3" clip-path="url(#a)" fill="none" stroke="#000" stroke-linecap="round"/>
<polyline points="5031.7 4954.3 5041.7 4954.3 5049.8 4960.2 5041.7 4966.1 5038.6 4956.6 5041.7 4966.1 5051.7 4966.1 5054.8 4975.6 5057.9 4985.1 5049.8 4991 5039.8 4991 5036.7 4981.5 5044.8 4975.6 5047.9 4985.1 5039.8 4979.2 5042.9 4988.7 5046 4998.3 5049 4988.7 5041 4994.6 5031 4994.6 5039 5000.5 5042.1 4991 5052.1 4991 5055.2 4981.5 5058.3 4972 5050.2 4966.1 5042.1 4972 5052.1 4972 5049 4981.5 5052.1 4991 5049 5000.5 5052.1 5010 5055.2 5019.5 5063.3 5025.4 5073.3 5025.4 5076.4 5015.9 5066.4 5015.9 5076.4 5015.9 5084.5 5021.8 5076.4 5015.9 5084.5 5021.8 5092.6 5027.6 5084.5 5021.8" clip-path="url(#a)" fill="none" stroke="#000" stroke-linecap="round"/>
<polyline points="5084.5 5021.8 5094.5 5021.8 5102.6 5015.9 5105.7 5025.4 5102.6 5034.9 5094.5 5029 5102.6 5023.2 5094.5 5029 5097.6 5038.5 5089.5 5044.4 5081.4 5050.3 5073.3 5044.4 5070.2 5034.9 5078.3 5029 5086.4 5034.9 5078.3 5040.8 5081.4 5031.3 5073.3 5037.2 5065.2 5043 5075.2 5043 5067.1 5037.2 5064 5027.6 5061 5037.2 5071 5037.2 5074 5046.7 5084 5046.7 5094 5046.7 5097.1 5037.2 5089 5031.3 5092.1 5040.8 5082.1 5040.8 5074 5046.7 5064 5046.7 5056 5052.5 5047.9 5058.4 5044.8 5067.9 5047.9 5077.4 5057.9 5077.4 5054.8 5067.9 5057.9 5077.4 5054.8 5087 5057.9 5077.4 5054.8 5087" clip-path="url(#a)" fill="none" stroke="#000" stroke-linecap="round"/>
<polyline points="5054.8 5087 5051.7 5096.5 5054.8 5087 5057.9 5096.5 5066 5102.3 5057.9 5108.2 5047.9 5108.2 5051 5098.7 5059 5104.6 5051 5098.7 5042.9 5104.6 5034.8 5098.7 5026.7 5092.8 5029.8 5083.3 5037.9 5077.4 5046 5083.3 5042.9 5092.8 5034.8 5087 5044.8 5087 5036.7 5081.1 5028.6 5075.2 5031.7 5084.7 5034.8 5075.2 5042.9 5069.3 5032.9 5069.3 5036 5078.8 5027.9 5084.7 5031 5094.2 5034 5103.7 5044 5103.7 5047.1 5094.2 5039 5100.1 5036 5090.6 5027.9 5084.7 5024.8 5075.2 5016.7 5069.3 5008.6 5063.4 4998.6 5063.4 4990.5 5069.3 4993.6 5078.8 5001.7 5073 4993.6 5078.8 4983.6 5078.8" clip-path="url(#a)" fill="none" stroke="#000" stroke-linecap="round"/>
<polyline points="4983.6 5078.8 4993.6 5078.8 4983.6 5078.8 4973.6 5078.8 4983.6 5078.8 4975.5 5084.7 4972.4 5094.2 4964.3 5088.3 4961.2 5078.8 4971.2 5078.8 4968.1 5088.3 4971.2 5078.8 4963.1 5073 4966.2 5063.4 4969.3 5053.9 4979.3 5053.9 4987.4 5059.8 4984.3 5069.3 4974.3 5069.3 4977.4 5059.8 4980.5 5069.3 4983.6 5059.8 4986.7 5050.3 4978.6 5056.2 4988.6 5056.2 4996.7 5062.1 4993.6 5052.5 4985.5 5058.4 4977.4 5052.5 4969.3 5058.4 4961.2 5064.3 4964.3 5073.8 4974.3 5073.8 4966.2 5067.9 4974.3 5062.1 4977.4 5052.5 4985.5 5046.7 4988.6 5037.2 4991.7 5027.6 4988.6 5018.1 4980.5 5012.3 4972.4 5018.1 4980.5 5024" clip-path="url(#a)" fill="none" stroke="#000" stroke-linecap="round"/>
<polyline points="4980.5 5024 4972.4 5018.1 4969.3 5008.6 4972.4 5018.1 4969.3 5008.6 4966.2 4999.1 4969.3 5008.6 4961.2 5002.7 4951.2 5002.7 4954.3 4993.2 4962.4 4987.4 4965.5 4996.9 4955.5 4996.9 4965.5 4996.9 4968.6 4987.4 4978.6 4987.4 4988.6 4987.4 4991.7 4996.9 4988.6 5006.4 4978.6 5006.4 4975.5 4996.9 4985.5 4996.9 4977.4 5002.7 4987.4 5002.7 4997.4 5002.7 4989.3 4996.9 4992.4 5006.4 4989.3 5015.9 4997.4 5010 4989.3 5004.1 4992.4 4994.6 4984.3 4988.7 4976.2 4982.9 4968.1 4988.7 4971.2 4998.3 4974.3 4988.7 4982.4 4994.6 4992.4 4994.6 5000.5 5000.5" clip-path="url(#a)" fill="none" stroke="#000" stroke-linecap="round"/>
</svg>
