<?xml version="1.0" encoding="utf-8" ?>
<svg baseProfile="full" height="1000px" version="1.1" width="1000px" xmlns="http://www.w3.org/2000/svg" xmlns:ev="http://www.w3.org/2001/xml-events" xmlns:xlink="http://www.w3.org/1999/xlink"><defs><clipPath id="border_clip"><rect height="1000" width="1000" x="0" y="0" /></clipPath></defs><polyline clip-path="url(#border_clip)" fill="none" points="500.5,500.5 510.5,500.5 518.5901699437495,494.62214747707526 521.6803398874989,485.1115823141237 513.5901699437495,479.233729791199 510.5,488.7442949541505 513.5901699437495,479.233729791199 521.6803398874989,473.3558772682743 513.5901699437495,479.233729791199 521.6803398874989,473.3558772682743 529.7705098312484,467.47802474534956 521.6803398874989,473.3558772682743 524.7705098312484,463.8453121053227 521.680339887499,454.33474694237117 531.680339887499,454.3347469423712 539.7705098312484,460.21259946529597 531.6803398874989,466.0904519882207 528.5901699437495,456.5798868252691 531.6803398874989,466.0904519882207 541.6803398874989,466.0904519882207 544.7705098312484,475.60101715117224 547.8606797749978,485.1115823141238 539.7705098312484,490.9894348370485 529.7705098312484,490.98943483704846 526.6803398874989,481.4788696740969 534.7705098312484,475.6010171511722 537.8606797749978,485.1115823141238 529.7705098312484,479.233729791199 532.8606797749978,488.7442949541506 535.9508497187473,498.2548601171021 539.0410196624969,488.7442949541506 530.9508497187473,494.62214747707526 520.9508497187473,494.62214747707526 529.0410196624968,500.5 532.1311896062463,490.98943483704846 542.1311896062463,490.9894348370485 545.2213595499958,481.478869674097 548.3115294937453,471.96830451114545 540.2213595499959,466.0904519882207 532.1311896062464,471.9683045111454 542.1311896062464,471.96830451114545 539.0410196624969,481.478869674097 542.1311896062463,490.9894348370485" stroke="black" stroke-linecap="round" stroke-width="1" /><polyline clip-path="url(#border_clip)" fill="none" points="542.1311896062463,490.9894348370485 539.0410196624968,500.50000000000006 542.1311896062462,510.0105651629516 545.2213595499957,519.5211303259032 553.3115294937451,525.3989828488279 563.3115294937451,525.398982848828 566.4016994374946,515.8884176858764 556.4016994374946,515.8884176858764 566.4016994374946,515.8884176858764 574.491869381244,521.7662702088013 566.4016994374946,515.8884176858764 574.491869381244,521.7662702088013 582.5820393249935,527.644122731726 574.491869381244,521.7662702088013 584.4918693812441,521.7662702088013 592.5820393249936,515.8884176858767 595.672209268743,525.3989828488282 592.5820393249935,534.9095480117797 584.491869381244,529.0316954888549 592.5820393249935,523.1538429659303 584.491869381244,529.0316954888549 587.5820393249934,538.5422606518065 579.4918693812439,544.4201131747312 571.4016994374944,550.2979656976559 563.311529493745,544.4201131747311 560.2213595499956,534.9095480117795 568.3115294937451,529.0316954888548 576.4016994374945,534.9095480117796 568.311529493745,540.7874005347043 571.4016994374945,531.2768353717528 563.311529493745,537.1546878946774 555.2213595499954,543.0325404176021 565.2213595499954,543.0325404176021 557.131189606246,537.1546878946774 554.0410196624966,527.6441227317258 550.950849718747,537.1546878946773 560.9508497187471,537.1546878946774 564.0410196624964,546.665253057629 574.0410196624964,546.6652530576291 584.0410196624965,546.6652530576292 587.131189606246,537.1546878946776 579.0410196624966,531.2768353717529 582.131189606246,540.7874005347044" stroke="black" stroke-linecap="round" stroke-width="1" /><polyline clip-path="url(#border_clip)" fill="none" points="582.131189606246,540.7874005347044 572.131189606246,540.7874005347044 564.0410196624964,546.665253057629 554.0410196624964,546.6652530576289 545.9508497187469,552.5431055805535 537.8606797749974,558.4209581034781 534.7705098312478,567.9315232664297 537.8606797749972,577.4420884293813 547.8606797749972,577.4420884293813 544.7705098312478,567.9315232664298 547.8606797749972,577.4420884293813 544.7705098312476,586.9526535923329 547.8606797749972,577.4420884293813 544.7705098312476,586.9526535923329 541.680339887498,596.4632187552844 544.7705098312476,586.9526535923329 547.8606797749969,596.4632187552845 555.9508497187464,602.3410712782093 547.8606797749968,608.218923801134 537.8606797749968,608.2189238011339 540.9508497187464,598.7083586381823 549.0410196624958,604.5862111611071 540.9508497187464,598.7083586381823 532.8606797749968,604.586211161107 524.7705098312474,598.7083586381822 516.680339887498,592.8305061152573 519.7705098312476,583.3199409523058 527.8606797749972,577.4420884293811 535.9508497187466,583.319940952306 532.8606797749969,592.8305061152575 524.7705098312475,586.9526535923327 534.7705098312476,586.9526535923328 526.6803398874982,581.074801069408 518.5901699437488,575.1969485464831 521.6803398874981,584.7075137094347 524.7705098312478,575.1969485464831 532.8606797749973,569.3190960235586 522.8606797749973,569.3190960235584 525.9508497187467,578.82966118651 517.860679774997,584.7075137094346 520.9508497187464,594.2180788723862 524.0410196624957,603.7286440353378 534.0410196624957,603.728644035338" stroke="black" stroke-linecap="round" stroke-width="1" /><polyline clip-path="url(#border_clip)" fill="none" points="534.0410196624957,603.728644035338 537.1311896062454,594.2180788723864 529.0410196624957,600.095931395311 525.9508497187464,590.5853662323594 517.860679774997,584.7075137094346 514.7705098312478,575.196948546483 506.68033988749835,569.3190960235581 498.59016994374895,563.4412435006333 488.5901699437489,563.4412435006332 480.4999999999993,569.3190960235578 483.59016994374866,578.8296611865094 491.68033988749823,572.9518086635848 483.59016994374866,578.8296611865094 473.59016994374866,578.8296611865092 483.59016994374866,578.8296611865094 473.59016994374866,578.8296611865092 463.59016994374866,578.829661186509 473.59016994374866,578.8296611865092 465.4999999999991,584.7075137094338 462.40983005624946,594.2180788723853 454.31966011250006,588.3402263494604 451.2294901687507,578.8296611865088 461.2294901687508,578.8296611865089 458.13932022500114,588.3402263494605 461.2294901687508,578.8296611865089 453.13932022500137,572.9518086635841 456.229490168751,563.4412435006326 459.3196601125006,553.9306783376811 469.3196601125007,553.9306783376812 477.40983005625003,559.8085308606062 474.3196601125004,569.3190960235577 464.3196601125004,569.3190960235574 467.40983005625003,559.808530860606 470.4999999999993,569.3190960235576 473.590169943749,559.8085308606061 476.68033988749863,550.2979656976546 468.59016994374906,556.1758182205792 478.59016994374906,556.1758182205793 486.68033988749846,562.0536707435043 483.5901699437492,552.5431055805527 475.49999999999955,558.4209581034772 467.40983005625014,552.5431055805524 459.31966011250057,558.4209581034769" stroke="black" stroke-linecap="round" stroke-width="1" /><polyline clip-path="url(#border_clip)" fill="none" points="459.31966011250057,558.4209581034769 451.229490168751,564.2988106264015 454.3196601125003,573.8093757893531 464.3196601125003,573.8093757893533 456.2294901687509,567.9315232664285 464.3196601125005,562.0536707435039 467.4098300562502,552.5431055805524 475.4999999999998,546.6652530576278 478.59016994374946,537.1546878946763 481.68033988749914,527.6441227317248 478.59016994374986,518.1335575687732 470.50000000000045,512.2557050458483 462.4098300562508,518.1335575687729 470.5000000000002,524.0114100916978 462.4098300562508,518.1335575687729 459.3196601125016,508.62299240582126 462.4098300562508,518.1335575687729 459.3196601125016,508.62299240582126 456.2294901687523,499.11242724286967 459.3196601125016,508.62299240582126 451.2294901687522,502.74513988289635 441.2294901687522,502.7451398828961 444.3196601125019,493.23457471994465 452.4098300562515,487.3567221970201 455.5000000000008,496.8672873599717 445.50000000000074,496.8672873599715 455.5000000000008,496.8672873599717 458.5901699437505,487.35672219702025 468.5901699437505,487.3567221970205 478.5901699437505,487.3567221970207 481.68033988749977,496.8672873599723 478.5901699437501,506.3778525229238 468.59016994375,506.37785252292355 465.5000000000008,496.8672873599719 475.5000000000008,496.8672873599722 467.40983005625117,502.7451398828967 477.40983005625117,502.7451398828969 487.4098300562512,502.7451398828972 479.3196601125019,496.86728735997224 482.4098300562511,506.3778525229239 479.3196601125014,515.8884176858753 487.40983005625105,510.0105651629508 479.3196601125017,504.1327126400259" stroke="black" stroke-linecap="round" stroke-width="1" /><polyline clip-path="url(#border_clip)" fill="none" points="479.3196601125017,504.1327126400259 482.4098300562514,494.6221474770744 474.31966011250205,488.74429495414944 466.2294901687527,482.8664424312245 458.1393202250031,488.74429495414904 461.22949016875236,498.2548601171007 464.31966011250205,488.7442949541492 472.4098300562514,494.6221474770741 482.4098300562514,494.6221474770744 490.50000000000074,500.4999999999993 500.50000000000074,500.4999999999996 510.5000000000008,500.49999999999983 518.5901699437504,494.6221474770753 521.6803398875002,485.11158231412384 513.5901699437508,479.2337297911989 510.5000000000011,488.74429495415035 513.5901699437508,479.2337297911989 521.6803398875004,473.35587726827436 513.5901699437508,479.2337297911989 521.6803398875004,473.35587726827436 529.77050983125,467.47802474534984 521.6803398875004,473.35587726827436 524.7705098312501,463.84531210532293 521.680339887501,454.3347469423713 531.680339887501,454.3347469423715 539.7705098312503,460.2125994652965 531.6803398875006,466.09045198822105 528.5901699437514,456.5798868252694 531.6803398875006,466.09045198822105 541.6803398875006,466.0904519882213 544.7705098312499,475.6010171511729 547.8606797749991,485.1115823141246 539.7705098312495,490.9894348370491 529.7705098312495,490.9894348370488 526.6803398875002,481.47886967409715 534.7705098312499,475.60101715117264 537.8606797749991,485.1115823141243 529.7705098312497,479.2337297911993 532.860679774999,488.744294954151 535.9508497187481,498.2548601171026 539.0410196624979,488.74429495415114 530.9508497187483,494.62214747707566 520.9508497187483,494.6221474770754" stroke="black" stroke-linecap="round" stroke-width="1" /><polyline clip-path="url(#border_clip)" fill="none" points="520.9508497187483,494.6221474770754 529.0410196624975,500.50000000000034 532.1311896062473,490.98943483704886 542.1311896062473,490.98943483704915 545.2213595499971,481.4788696740977 548.3115294937469,471.96830451114624 540.2213595499975,466.0904519882213 532.1311896062479,471.96830451114573 542.1311896062479,471.9683045111461 539.0410196624981,481.4788696740975 542.1311896062473,490.9894348370492 539.0410196624975,500.5000000000006 542.1311896062467,510.0105651629523 545.2213595499959,519.521130325904 553.3115294937452,525.398982848829 563.3115294937453,525.3989828488293 566.401699437495,515.8884176858778 556.401699437495,515.8884176858775 566.401699437495,515.8884176858778 574.4918693812443,521.7662702088028 566.401699437495,515.8884176858778 574.4918693812443,521.7662702088028 582.5820393249936,527.6441227317277 574.4918693812443,521.7662702088028 584.4918693812444,521.7662702088031 592.5820393249941,515.8884176858786 595.6722092687432,525.3989828488303 592.5820393249935,534.9095480117817 584.4918693812442,529.0316954888567 592.5820393249938,523.1538429659322 584.4918693812442,529.0316954888567 587.5820393249933,538.5422606518084 579.4918693812436,544.4201131747328 571.401699437494,550.2979656976573 563.3115294937446,544.4201131747324 560.2213595499954,534.9095480117807 568.3115294937452,529.0316954888561 576.4016994374945,534.9095480117812 568.3115294937447,540.7874005347056 571.4016994374946,531.2768353717543 563.3115294937448,537.1546878946787 555.2213595499952,543.0325404176032 565.2213595499952,543.0325404176035" stroke="black" stroke-linecap="round" stroke-width="1" /><polyline clip-path="url(#border_clip)" fill="none" points="565.2213595499952,543.0325404176035 557.1311896062459,537.1546878946784 554.0410196624968,527.6441227317268 550.950849718747,537.1546878946783 560.950849718747,537.1546878946787 564.0410196624962,546.6652530576303 574.0410196624962,546.6652530576306 584.0410196624962,546.6652530576309 587.131189606246,537.1546878946796 579.0410196624968,531.2768353717545 582.1311896062459,540.7874005347062 572.1311896062458,540.7874005347059 564.0410196624962,546.6652530576303 554.0410196624961,546.6652530576299 545.9508497187464,552.5431055805543 537.8606797749967,558.4209581034788 534.7705098312468,567.9315232664303 537.860679774996,577.442088429382 547.860679774996,577.4420884293824 544.770509831247,567.9315232664306 547.860679774996,577.4420884293824 544.7705098312463,586.9526535923337 547.860679774996,577.4420884293824 544.7705098312463,586.9526535923337 541.6803398874964,596.4632187552852 544.7705098312463,586.9526535923337 547.8606797749953,596.4632187552854 555.9508497187446,602.3410712782105 547.8606797749949,608.2189238011349 537.8606797749949,608.2189238011346 540.9508497187447,598.7083586381831 549.041019662494,604.5862111611082 540.9508497187447,598.7083586381831 532.860679774995,604.5862111611076 524.7705098312458,598.7083586381825 516.6803398874965,592.8305061152574 519.7705098312463,583.3199409523061 527.860679774996,577.4420884293816 535.9508497187453,583.3199409523066 532.8606797749954,592.830506115258 524.7705098312462,586.952653592333 534.7705098312463,586.9526535923334 526.680339887497,581.0748010694083" stroke="black" stroke-linecap="round" stroke-width="1" /><polyline clip-path="url(#border_clip)" fill="none" points="526.680339887497,581.0748010694083 518.5901699437477,575.1969485464832 521.6803398874968,584.7075137094349 524.7705098312466,575.1969485464834 532.8606797749964,569.319096023559 522.8606797749964,569.3190960235587 525.9508497187455,578.8296611865103 517.8606797749958,584.7075137094348 520.9508497187448,594.2180788723865 524.0410196624939,603.7286440353382 534.0410196624939,603.7286440353386 537.1311896062439,594.2180788723871 529.0410196624941,600.0959313953115 525.950849718745,590.5853662323599 517.8606797749958,584.7075137094348 514.7705098312466,575.1969485464831 506.6803398874974,569.319096023558 498.59016994374815,563.4412435006329 488.5901699437481,563.4412435006325 480.49999999999835,569.3190960235569 483.59016994374747,578.8296611865086 491.6803398874972,572.9518086635842 483.59016994374747,578.8296611865086 473.5901699437474,578.8296611865082 483.59016994374747,578.8296611865086 473.5901699437474,578.8296611865082 463.5901699437474,578.8296611865078 473.5901699437474,578.8296611865082 465.49999999999767,584.7075137094326 462.4098300562478,594.218078872384 454.3196601124985,588.3402263494589 451.22949016874946,578.8296611865072 461.2294901687495,578.8296611865077 458.1393202249996,588.3402263494592 461.2294901687495,578.8296611865077 453.13932022500023,572.9518086635826 456.22949016875015,563.4412435006311 459.31966011250006,553.9306783376798 469.31966011250006,553.9306783376802 477.40983005624935,559.8085308606053 474.31966011249943,569.3190960235567 464.3196601124994,569.3190960235563 467.4098300562493,559.8085308606048" stroke="black" stroke-linecap="round" stroke-width="1" /><polyline clip-path="url(#border_clip)" fill="none" points="467.4098300562493,559.8085308606048 470.49999999999835,569.3190960235565 473.59016994374826,559.8085308606051 476.6803398874982,550.2979656976537 468.5901699437484,556.1758182205781 478.59016994374844,556.1758182205785 486.68033988749767,562.0536707435036 483.5901699437486,552.5431055805519 475.49999999999886,558.4209581034763 467.40983005624963,552.5431055805511 459.31966011249983,558.4209581034755 451.2294901687501,564.2988106263999 454.31966011249915,573.8093757893516 464.31966011249915,573.8093757893521 456.2294901687499,567.931523266427 464.3196601124997,562.0536707435026 467.40983005624963,552.5431055805511 475.4999999999994,546.6652530576268 478.59016994374934,537.1546878946754 481.68033988749926,527.6441227317239 478.5901699437502,518.1335575687722 470.50000000000097,512.2557050458471 462.40983005625117,518.1335575687715 470.50000000000045,524.0114100916966 462.40983005625117,518.1335575687715 459.31966011250216,508.62299240581973 462.40983005625117,518.1335575687715 459.31966011250216,508.62299240581973 456.2294901687531,499.112427242868 459.31966011250216,508.62299240581973 451.22949016875293,502.7451398828946 441.2294901687529,502.74513988289414 444.3196601125028,493.2345747199427 452.4098300562526,487.35672219701837 455.50000000000165,496.8672873599701 445.5000000000016,496.8672873599696 455.50000000000165,496.8672873599701 458.59016994375156,487.35672219701866 468.5901699437516,487.3567221970191 478.5901699437517,487.3567221970196 481.6803398875007,496.86728735997133 478.5901699437507,506.37785252292275 468.5901699437507,506.37785252292224" stroke="black" stroke-linecap="round" stroke-width="1" /><polyline clip-path="url(#border_clip)" fill="none" points="468.5901699437507,506.37785252292224 465.50000000000165,496.86728735997053 475.5000000000017,496.86728735997104 467.4098300562519,502.7451398828954 477.40983005625196,502.7451398828959 487.40983005625196,502.74513988289635 479.3196601125028,496.8672873599712 482.4098300562518,506.3778525229229 479.3196601125018,515.8884176858744 487.4098300562516,510.01056516295 479.3196601125024,504.13271264002486 482.40983005625236,494.62214747707344 474.3196601125032,488.7442949541483 466.22949016875396,482.8664424312231 458.13932022500416,488.74429495414745 461.22949016875316,498.2548601170992 464.31966011250313,488.7442949541478 472.40983005625236,494.62214747707293 482.40983005625236,494.62214747707344 490.5000000000016,500.49999999999864 500.50000000000165,500.4999999999991 510.50000000000165,500.4999999999996 518.5901699437514,494.62214747707526 521.6803398875014,485.11158231412384 513.5901699437522,479.2337297911987 510.5000000000023,488.7442949541501 513.5901699437522,479.2337297911987 521.680339887502,473.35587726827436 513.5901699437522,479.2337297911987 521.680339887502,473.35587726827436 529.7705098312518,467.47802474535 521.680339887502,473.35587726827436 524.7705098312521,463.84531210532293 521.680339887503,454.3347469423712 531.6803398875031,454.33474694237174 539.7705098312523,460.2125994652969 531.6803398875024,466.0904519882212 528.5901699437535,456.5798868252695 531.6803398875024,466.0904519882212 541.6803398875024,466.09045198822173 544.7705098312515,475.6010171511735 547.8606797750004,485.11158231412526 539.7705098312506,490.98943483704954" stroke="black" stroke-linecap="round" stroke-width="1" /><polyline clip-path="url(#border_clip)" fill="none" points="539.7705098312506,490.98943483704954 529.7705098312506,490.98943483704903 526.6803398875016,481.47886967409727 534.7705098312515,475.601017151173 537.8606797750004,485.1115823141247 529.7705098312513,479.2337297911995 532.8606797750002,488.74429495415126 535.9508497187492,498.254860117103 539.0410196624991,488.7442949541516 530.9508497187494,494.62214747707594 520.9508497187493,494.6221474770754 529.0410196624985,500.50000000000057 532.1311896062485,490.98943483704915 542.1311896062485,490.9894348370497 545.2213595499986,481.4788696740983 548.3115294937486,471.9683045111469 540.2213595499994,466.0904519882217 532.1311896062496,471.968304511146 542.1311896062496,471.9683045111465 539.0410196624996,481.47886967409795 542.1311896062485,490.9894348370497 539.0410196624986,500.50000000000114 542.1311896062475,510.0105651629529 545.2213595499965,519.5211303259047 553.3115294937456,525.3989828488299 563.3115294937456,525.3989828488304 566.4016994374957,515.888417685879 556.4016994374956,515.8884176858784 566.4016994374957,515.888417685879 574.4918693812449,521.7662702088043 566.4016994374957,515.888417685879 574.4918693812449,521.7662702088043 582.5820393249941,527.6441227317295 574.4918693812449,521.7662702088043 584.4918693812449,521.7662702088048 592.5820393249949,515.8884176858804 595.6722092687437,525.3989828488322 592.5820393249937,534.9095480117836 584.4918693812446,529.0316954888584 592.5820393249944,523.1538429659341 584.4918693812446,529.0316954888584 587.5820393249935,538.5422606518102 579.4918693812436,544.4201131747345" stroke="black" stroke-linecap="round" stroke-width="1" /><polyline clip-path="url(#border_clip)" fill="none" points="579.4918693812436,544.4201131747345 571.4016994374938,550.2979656976588 563.3115294937446,544.4201131747335 560.2213595499957,534.9095480117818 568.3115294937455,529.0316954888575 576.4016994374947,534.9095480117827 568.3115294937448,540.787400534707 571.4016994374949,531.2768353717556 563.311529493745,537.1546878946799 555.2213595499951,543.0325404176042 565.2213595499952,543.0325404176048 557.131189606246,537.1546878946796 554.0410196624971,527.6441227317277 550.950849718747,537.1546878946791 560.9508497187471,537.1546878946798 564.0410196624961,546.6652530576315 574.0410196624961,546.6652530576322 584.0410196624962,546.6652530576328 587.1311896062462,537.1546878946814 579.0410196624971,531.2768353717561 582.1311896062459,540.7874005347079 572.1311896062459,540.7874005347072 564.0410196624961,546.6652530576315 554.041019662496,546.6652530576309 545.9508497187461,552.5431055805552 537.8606797749962,558.4209581034795 534.7705098312462,567.9315232664309 537.8606797749951,577.4420884293827 547.8606797749951,577.4420884293833 544.7705098312462,567.9315232664314 547.8606797749951,577.4420884293833 544.770509831245,586.9526535923346 547.8606797749951,577.4420884293833 544.770509831245,586.9526535923346 541.6803398874949,596.4632187552861 544.770509831245,586.9526535923346 547.860679774994,596.4632187552864 555.9508497187431,602.3410712782118 547.8606797749932,608.218923801136 537.8606797749932,608.2189238011354 540.9508497187433,598.708358638184 549.0410196624924,604.5862111611092 540.9508497187433,598.708358638184" stroke="black" stroke-linecap="round" stroke-width="1" /><polyline clip-path="url(#border_clip)" fill="none" points="540.9508497187433,598.708358638184 532.8606797749933,604.5862111611082 524.7705098312442,598.708358638183 516.680339887495,592.8305061152577 519.7705098312451,583.3199409523063 527.860679774995,577.442088429382 535.9508497187442,583.3199409523073 532.8606797749941,592.8305061152587 524.7705098312449,586.9526535923334 534.770509831245,586.9526535923341 526.6803398874958,581.0748010694087 518.5901699437467,575.1969485464834 521.6803398874956,584.7075137094353 524.7705098312457,575.1969485464839 532.8606797749956,569.3190960235596 522.8606797749956,569.319096023559 525.9508497187444,578.8296611865107 517.8606797749945,584.707513709435 520.9508497187434,594.2180788723869 524.0410196624922,603.7286440353387 534.0410196624923,603.7286440353392 537.1311896062424,594.2180788723879 529.0410196624925,600.0959313953122 525.9508497187436,590.5853662323603 517.8606797749945,584.707513709435 514.7705098312456,575.1969485464832 506.6803398874965,569.3190960235579 498.59016994374736,563.4412435006326 488.59016994374724,563.4412435006319 480.4999999999973,569.3190960235562 483.5901699437462,578.829661186508 491.68033988749613,572.9518086635837 483.5901699437462,578.829661186508 473.59016994374616,578.8296611865073 483.5901699437462,578.829661186508 473.59016994374616,578.8296611865073 463.5901699437461,578.8296611865067 473.59016994374616,578.8296611865073 465.49999999999625,584.7075137094315 462.4098300562461,594.218078872383 454.319660112497,588.3402263494577 451.2294901687481,578.8296611865059 461.22949016874816,578.8296611865065" stroke="black" stroke-linecap="round" stroke-width="1" /><polyline clip-path="url(#border_clip)" fill="none" points="461.22949016874816,578.8296611865065 458.139320224998,588.3402263494579 461.22949016874816,578.8296611865065 453.13932022499904,572.9518086635812 456.2294901687492,563.4412435006298 459.3196601124993,553.9306783376784 469.3196601124994,553.9306783376791 477.40983005624855,559.8085308606044 474.31966011249835,569.3190960235559 464.3196601124983,569.3190960235551 467.40983005624844,559.8085308606037 470.49999999999727,569.3190960235555 473.59016994374747,559.8085308606042 476.6803398874976,550.2979656976528 468.59016994374764,556.175818220577 478.59016994374775,556.1758182205776 486.68033988749687,562.053670743503 483.59016994374804,552.5431055805511 475.49999999999807,558.4209581034754 467.40983005624895,552.54310558055 459.31966011249904,558.4209581034743 451.22949016874907,564.2988106263984 454.3196601124979,573.8093757893503 464.31966011249796,573.809375789351 456.22949016874884,567.9315232664256 464.3196601124988,562.0536707435015 467.40983005624895,552.54310558055 475.4999999999989,546.6652530576258 478.59016994374906,537.1546878946745 481.68033988749926,527.6441227317231 478.5901699437504,518.1335575687713 470.5000000000013,512.2557050458458 462.4098300562514,518.1335575687701 470.5000000000005,524.0114100916954 462.4098300562514,518.1335575687701 459.31966011250256,508.62299240581825 462.4098300562514,518.1335575687701 459.31966011250256,508.62299240581825 456.2294901687537,499.11242724286643 459.31966011250256,508.62299240581825 451.22949016875344,502.7451398828929 441.2294901687534,502.7451398828922 444.3196601125036,493.2345747199408" stroke="black" stroke-linecap="round" stroke-width="1" /><polyline clip-path="url(#border_clip)" fill="none" points="444.3196601125036,493.2345747199408 452.40983005625355,487.3567221970166 455.50000000000233,496.86728735996843 445.5000000000023,496.8672873599677 455.50000000000233,496.86728735996843 458.5901699437525,487.35672219701706 468.5901699437526,487.3567221970178 478.5901699437527,487.35672219701854 481.6803398875015,496.86728735997036 478.5901699437513,506.3778525229217 468.5901699437512,506.377852522921 465.5000000000024,496.86728735996917 475.5000000000025,496.8672873599699 467.40983005625253,502.7451398828941 477.4098300562526,502.7451398828948 487.40983005625264,502.74513988289556 479.3196601125036,496.8672873599702 482.40983005625236,506.377852522922 479.3196601125021,515.8884176858734 487.40983005625213,510.01056516294926 479.319660112503,504.13271264002384 482.4098300562532,494.6221474770725 474.31966011250415,488.7442949541471 466.2294901687551,482.8664424312217 458.13932022500506,488.74429495414586 461.22949016875384,498.25486011709773 464.3196601125041,488.74429495414637 472.40983005625316,494.62214747707174 482.4098300562532,494.6221474770725 490.50000000000233,500.4999999999979 500.5000000000024,500.49999999999864 510.50000000000244,500.49999999999943 518.5901699437525,494.62214747707526 521.6803398875027,485.1115823141239 513.5901699437536,479.23372979119847 510.50000000000335,488.74429495414984 513.5901699437536,479.23372979119847 521.6803398875036,473.35587726827436 513.5901699437536,479.23372979119847 521.6803398875036,473.35587726827436 529.7705098312535,467.4780247453502 521.6803398875036,473.35587726827436 524.7705098312538,463.845312105323" stroke="black" stroke-linecap="round" stroke-width="1" /><polyline clip-path="url(#border_clip)" fill="none" points="524.7705098312538,463.845312105323 521.680339887505,454.3347469423711 531.680339887505,454.3347469423719 539.7705098312542,460.21259946529733 531.6803398875041,466.09045198822145 528.5901699437554,456.57988682526957 531.6803398875041,466.09045198822145 541.6803398875043,466.09045198822224 544.770509831253,475.60101715117406 547.8606797750018,485.11158231412594 539.7705098312517,490.98943483705006 529.7705098312517,490.98943483704926 526.6803398875029,481.47886967409744 534.770509831253,475.60101715117327 537.8606797750017,485.11158231412514 529.7705098312526,479.2337297911997 532.8606797750014,488.7442949541516 535.9508497187501,498.2548601171034 539.0410196625004,488.74429495415205 530.9508497187503,494.6221474770762 520.9508497187503,494.6221474770754 529.0410196624994,500.50000000000085 532.1311896062496,490.9894348370495 542.1311896062497,490.9894348370503 545.22135955,481.4788696740989 548.3115294937502,471.96830451114755 540.2213595500011,466.0904519882221 532.1311896062512,471.96830451114624 542.1311896062513,471.96830451114704 539.041019662501,481.4788696740984 542.1311896062497,490.9894348370503 539.0410196624994,500.50000000000165 542.1311896062481,510.01056516295347 545.2213595499968,519.5211303259053 553.3115294937459,525.3989828488308 563.311529493746,525.3989828488316 566.4016994374963,515.8884176858802 556.4016994374962,515.8884176858794 566.4016994374963,515.8884176858802 574.4918693812454,521.7662702088057 566.4016994374963,515.8884176858802 574.4918693812454,521.7662702088057 582.5820393249944,527.6441227317312" stroke="black" stroke-linecap="round" stroke-width="1" /><polyline clip-path="url(#border_clip)" fill="none" points="582.5820393249944,527.6441227317312 574.4918693812454,521.7662702088057 584.4918693812454,521.7662702088065 592.5820393249954,515.8884176858824 595.6722092687442,525.3989828488343 592.5820393249938,534.9095480117857 584.4918693812448,529.0316954888601 592.5820393249949,523.1538429659361 584.4918693812448,529.0316954888601 587.5820393249935,538.5422606518121 579.4918693812435,544.4201131747361 571.4016994374934,550.2979656976603 563.3115294937444,544.4201131747348 560.2213595499957,534.9095480117829 568.3115294937458,529.0316954888589 576.4016994374948,534.9095480117843 568.3115294937447,540.7874005347084 571.401699437495,531.276835371757 563.3115294937451,537.1546878946812 555.221359549995,543.0325404176052 565.2213595499951,543.0325404176061 557.131189606246,537.1546878946806 554.0410196624973,527.6441227317288 550.950849718747,537.1546878946801 560.9508497187471,537.1546878946809 564.0410196624958,546.6652530576329 574.0410196624958,546.6652530576337 584.041019662496,546.6652530576346 587.1311896062463,537.1546878946832 579.0410196624972,531.2768353717577 582.1311896062459,540.7874005347096 572.1311896062458,540.7874005347087 564.0410196624958,546.6652530576329 554.0410196624957,546.665253057632 545.9508497187456,552.543105580556 537.8606797749957,558.4209581034801 534.7705098312452,567.9315232664314 537.860679774994,577.4420884293834 547.8606797749941,577.4420884293842 544.7705098312454,567.9315232664324 547.8606797749941,577.4420884293842 544.7705098312438,586.9526535923355 547.8606797749941,577.4420884293842" stroke="black" stroke-linecap="round" stroke-width="1" /><polyline clip-path="url(#border_clip)" fill="none" points="547.8606797749941,577.4420884293842 544.7705098312438,586.9526535923355 541.6803398874933,596.4632187552869 544.7705098312438,586.9526535923355 547.8606797749924,596.4632187552875 555.9508497187414,602.3410712782129 547.8606797749914,608.218923801137 537.8606797749912,608.218923801136 540.9508497187417,598.7083586381848 549.0410196624906,604.5862111611102 540.9508497187417,598.7083586381848 532.8606797749916,604.5862111611088 524.7705098312425,598.7083586381833 516.6803398874936,592.8305061152578 519.7705098312439,583.3199409523065 527.860679774994,577.4420884293825 535.9508497187429,583.3199409523079 532.8606797749926,592.8305061152593 524.7705098312435,586.9526535923337 534.7705098312437,586.9526535923346 526.6803398874947,581.0748010694092 518.5901699437457,575.1969485464837 521.6803398874943,584.7075137094355 524.7705098312447,575.1969485464842 532.8606797749948,569.3190960235602 522.8606797749947,569.3190960235593 525.9508497187433,578.8296611865112 517.8606797749932,584.7075137094351 520.9508497187419,594.2180788723871 524.0410196624905,603.728644035339 534.0410196624906,603.7286440353399 537.1311896062409,594.2180788723886 529.0410196624908,600.0959313953126 525.9508497187422,590.5853662323607 517.8606797749932,584.7075137094353 514.7705098312446,575.1969485464833 506.68033988749556,569.3190960235578 498.59016994374656,563.4412435006323 488.5901699437465,563.4412435006313 480.4999999999964,569.3190960235554 483.5901699437451,578.8296611865073 491.6803398874951,572.9518086635833 483.5901699437451,578.8296611865073" stroke="black" stroke-linecap="round" stroke-width="1" /><polyline clip-path="url(#border_clip)" fill="none" points="483.5901699437451,578.8296611865073 473.59016994374497,578.8296611865063 483.5901699437451,578.8296611865073 473.59016994374497,578.8296611865063 463.5901699437449,578.8296611865054 473.59016994374497,578.8296611865063 465.4999999999949,584.7075137094304 462.4098300562445,594.2180788723817 454.3196601124955,588.3402263494562 451.2294901687469,578.8296611865043 461.22949016874696,578.8296611865053 458.1393202249966,588.3402263494565 461.22949016874696,578.8296611865053 453.13932022499796,572.9518086635796 456.2294901687484,563.4412435006284 459.31966011249875,553.930678337677 469.31966011249887,553.930678337678 477.4098300562478,559.8085308606035 474.31966011249744,569.3190960235548 464.31966011249733,569.3190960235539 467.40983005624776,559.8085308606026 470.49999999999636,569.3190960235545 473.5901699437468,559.8085308606031 476.68033988749715,550.2979656976519 468.59016994374707,556.1758182205758 478.5901699437471,556.1758182205768 486.68033988749613,562.0536707435024 483.5901699437475,552.5431055805504 475.49999999999744,558.4209581034744 467.40983005624844,552.5431055805489 459.31966011249835,558.4209581034729 451.22949016874827,564.2988106263969 454.3196601124968,573.8093757893488 464.31966011249693,573.8093757893498 456.22949016874793,567.9315232664242 464.319660112498,562.0536707435002 467.40983005624844,552.5431055805489 475.4999999999986,546.6652530576249 478.590169943749,537.1546878946735 481.68033988749943,527.6441227317222 478.5901699437508,518.1335575687704 470.5000000000019,512.2557050458447 462.40983005625174,518.1335575687688" stroke="black" stroke-linecap="round" stroke-width="1" /><polyline clip-path="url(#border_clip)" fill="none" points="462.40983005625174,518.1335575687688 470.50000000000074,524.0114100916943 462.40983005625174,518.1335575687688 459.3196601125032,508.62299240581683 462.40983005625174,518.1335575687688 459.3196601125032,508.62299240581683 456.2294901687546,499.1124272428649 459.31966011250313,508.62299240581683 451.2294901687542,502.74513988289124 441.22949016875407,502.74513988289027 444.31966011250455,493.23457471993896 452.40983005625463,487.35672219701496 455.50000000000324,496.8672873599669 445.5000000000031,496.8672873599659 455.5000000000032,496.8672873599669 458.59016994375366,487.3567221970156 468.5901699437537,487.35672219701655 478.59016994375384,487.3567221970175 481.6803398875024,496.86728735996945 478.59016994375196,506.37785252292076 468.59016994375185,506.3778525229198 465.5000000000033,496.86728735996786 475.5000000000034,496.8672873599689 467.40983005625327,502.74513988289283 477.4098300562533,502.74513988289385 487.40983005625344,502.7451398828948 479.3196601125045,496.8672873599692 482.40983005625304,506.37785252292116 479.31966011250256,515.8884176858725 487.4098300562527,510.0105651629485 479.31966011250375,504.13271264002293 482.40983005625424,494.6221474770716 474.3196601125053,488.74429495414597 466.22949016875634,482.8664424312204 458.13932022500614,488.7442949541444 461.2294901687547,498.2548601170963 464.3196601125052,488.744294954145 472.4098300562541,494.6221474770706 482.40983005625424,494.6221474770716 490.5000000000032,500.4999999999972 500.50000000000324,500.49999999999824 510.50000000000335,500.49999999999926 518.5901699437535,494.6221474770753" stroke="black" stroke-linecap="round" stroke-width="1" /><polyline clip-path="url(#border_clip)" fill="none" points="518.5901699437535,494.6221474770753 521.6803398875039,485.111582314124 513.590169943755,479.23372979119836 510.50000000000455,488.74429495414967 513.590169943755,479.23372979119836 521.6803398875052,473.3558772682744 513.590169943755,479.23372979119836 521.6803398875052,473.3558772682744 529.7705098312554,467.47802474535047 521.6803398875052,473.3558772682744 524.7705098312557,463.8453121053231 521.6803398875071,454.33474694237117 531.6803398875072,454.3347469423722 539.7705098312562,460.21259946529784 531.6803398875061,466.0904519882218 528.5901699437575,456.57988682526985 531.6803398875061,466.0904519882218 541.6803398875061,466.0904519882228 544.7705098312547,475.60101715117474 547.8606797750032,485.11158231412674 539.770509831253,490.9894348370507 529.7705098312529,490.9894348370496 526.6803398875044,481.47886967409767 534.7705098312546,475.6010171511737 537.8606797750031,485.11158231412566 529.7705098312541,479.23372979120006 532.8606797750026,488.744294954152 535.9508497187511,498.25486011710393 539.0410196625016,488.7442949541526 530.9508497187514,494.62214747707657 520.9508497187513,494.62214747707554 529.0410196625003,500.5000000000012 532.1311896062508,490.9894348370499 542.1311896062509,490.9894348370509 545.2213595500015,481.47886967409966 548.3115294937519,471.96830451114835 540.221359550003,466.0904519882227 532.1311896062529,471.9683045111466 542.131189606253,471.96830451114766 539.0410196625024,481.478869674099 542.1311896062509,490.9894348370509 539.0410196625004,500.5000000000022 542.1311896062489,510.0105651629542" stroke="black" stroke-linecap="round" stroke-width="1" /><polyline clip-path="url(#border_clip)" fill="none" points="542.1311896062489,510.0105651629542 545.2213595499974,519.5211303259061 553.3115294937462,525.3989828488318 563.3115294937463,525.3989828488328 566.4016994374969,515.8884176858816 556.4016994374967,515.8884176858805 566.4016994374969,515.8884176858816 574.4918693812458,521.7662702088072 566.4016994374969,515.8884176858816 574.4918693812458,521.7662702088072 582.5820393249948,527.6441227317329 574.4918693812458,521.7662702088072 584.4918693812459,521.7662702088084 592.5820393249961,515.8884176858844 595.6722092687446,525.3989828488363 592.5820393249941,534.9095480117877 584.4918693812451,529.0316954888619 592.5820393249953,523.1538429659381 584.4918693812451,529.0316954888619 587.5820393249936,538.542260651814 579.4918693812434,544.4201131747378 571.4016994374932,550.2979656976618 563.3115294937443,544.4201131747361 560.2213595499958,534.9095480117842 568.311529493746,529.0316954888602 576.4016994374949,534.9095480117859 568.3115294937447,540.7874005347098 571.4016994374953,531.2768353717585 563.3115294937451,537.1546878946824 555.2213595499949,543.0325404176064 565.221359549995,543.0325404176074 557.131189606246,537.1546878946817 554.0410196624975,527.6441227317298 550.950849718747,537.154687894681 560.9508497187471,537.1546878946822 564.0410196624956,546.6652530576341 574.0410196624957,546.6652530576353 584.0410196624957,546.6652530576364 587.1311896062464,537.1546878946851 579.0410196624974,531.2768353717594 582.1311896062459,540.7874005347114 572.1311896062458,540.7874005347103 564.0410196624956,546.6652530576341" stroke="black" stroke-linecap="round" stroke-width="1" /><polyline clip-path="url(#border_clip)" fill="none" points="564.0410196624956,546.6652530576341 554.0410196624955,546.665253057633 545.9508497187453,552.5431055805569 537.8606797749951,558.4209581034808 534.7705098312445,567.931523266432 537.860679774993,577.4420884293841 547.8606797749931,577.4420884293852 544.7705098312446,567.9315232664331 547.8606797749931,577.4420884293852 544.7705098312424,586.9526535923364 547.8606797749931,577.4420884293852 544.7705098312424,586.9526535923364 541.6803398874919,596.4632187552877 544.7705098312424,586.9526535923364 547.8606797749909,596.4632187552884 555.9508497187397,602.3410712782141 547.8606797749895,608.218923801138 537.8606797749894,608.2189238011368 540.95084971874,598.7083586381856 549.0410196624889,604.5862111611114 540.95084971874,598.7083586381856 532.8606797749898,604.5862111611094 524.7705098312409,598.7083586381837 516.680339887492,592.830506115258 519.7705098312426,583.3199409523068 527.8606797749928,577.4420884293828 535.9508497187417,583.3199409523086 532.8606797749911,592.8305061152598 524.7705098312423,586.9526535923342 534.7705098312424,586.9526535923353 526.6803398874935,581.0748010694095 518.5901699437446,575.1969485464838 521.680339887493,584.7075137094358 524.7705098312437,575.1969485464845 532.8606797749939,569.3190960235606 522.8606797749937,569.3190960235595 525.9508497187421,578.8296611865114 517.8606797749919,584.7075137094354 520.9508497187403,594.2180788723873 524.0410196624887,603.7286440353394 534.0410196624888,603.7286440353405 537.1311896062394,594.2180788723892 529.0410196624891,600.0959313953131" stroke="black" stroke-linecap="round" stroke-width="1" /><polyline clip-path="url(#border_clip)" fill="none" points="529.0410196624891,600.0959313953131 525.9508497187408,590.585366232361 517.8606797749919,584.7075137094353 514.7705098312435,575.1969485464833 506.68033988749465,569.3190960235576 498.59016994374576,563.4412435006318 488.59016994374565,563.4412435006307 480.49999999999545,569.3190960235545 483.59016994374383,578.8296611865064 491.6803398874941,572.9518086635826 483.59016994374383,578.8296611865064 473.5901699437437,578.8296611865053 483.59016994374383,578.8296611865064 473.5901699437437,578.8296611865053 463.5901699437436,578.8296611865042 473.5901699437437,578.8296611865053 465.49999999999346,584.7075137094291 462.4098300562428,594.2180788723804 454.3196601124939,588.3402263494546 451.22949016874554,578.8296611865027 461.22949016874566,578.8296611865038 458.139320224995,588.3402263494551 461.22949016874566,578.8296611865038 453.1393202249968,572.951808663578 456.2294901687475,563.4412435006268 459.3196601124981,553.9306783376755 469.3196601124982,553.9306783376767 477.4098300562471,559.8085308606024 474.3196601124964,569.3190960235538 464.3196601124963,569.3190960235526 467.40983005624696,559.8085308606013 470.49999999999534,569.3190960235534 473.590169943746,559.808530860602 476.68033988749664,550.2979656976507 468.59016994374633,556.1758182205746 478.59016994374645,556.1758182205758 486.68033988749534,562.0536707435016 483.59016994374696,552.5431055805495 475.4999999999967,558.4209581034734 467.40983005624787,552.5431055805476 459.31966011249756,558.4209581034714 451.22949016874725,564.2988106263952 454.3196601124956,573.8093757893472" stroke="black" stroke-linecap="round" stroke-width="1" /><polyline clip-path="url(#border_clip)" fill="none" points="454.3196601124956,573.8093757893472 464.31966011249574,573.8093757893485 456.2294901687469,567.9315232664227 464.31966011249716,562.0536707434989 467.40983005624787,552.5431055805476 475.4999999999981,546.6652530576238 478.59016994374883,537.1546878946725 481.6803398874995,527.6441227317213 478.59016994375116,518.1335575687692 470.50000000000233,512.2557050458435 462.409830056252,518.1335575687672 470.50000000000085,524.011410091693 462.409830056252,518.1335575687672 459.3196601125037,508.6229924058152 462.409830056252,518.1335575687672 459.3196601125037,508.6229924058152 456.2294901687553,499.11242724286313 459.3196601125037,508.6229924058152 451.22949016875486,502.74513988288936 441.22949016875475,502.74513988288817 444.3196601125054,493.23457471993686 452.4098300562557,487.3567221970131 455.50000000000404,496.86728735996513 445.5000000000039,496.8672873599639 455.50000000000404,496.86728735996513 458.59016994375474,487.3567221970138 468.59016994375486,487.3567221970151 478.590169943755,487.3567221970163 481.6803398875033,496.8672873599684 478.5901699437526,506.3778525229196 468.59016994375247,506.3778525229184 465.50000000000415,496.8672873599664 475.5000000000043,496.86728735996763 467.409830056254,502.7451398828914 477.4098300562541,502.74513988289266 487.40983005625424,502.7451398828939 479.3196601125054,496.8672873599681 482.4098300562537,506.37785252292014 479.319660112503,515.8884176858714 487.4098300562533,510.0105651629476 479.3196601125045,504.1327126400218 482.4098300562552,494.62214747707054 474.31966011250637,488.7442949541447" stroke="black" stroke-linecap="round" stroke-width="1" /><polyline clip-path="url(#border_clip)" fill="none" points="474.31966011250637,488.7442949541447 466.22949016875754,482.86644243121884 458.1393202250072,488.7442949541426 461.22949016875555,498.25486011709467 464.31966011250626,488.7442949541434 472.4098300562551,494.62214747706923 482.4098300562552,494.62214747707054 490.50000000000404,500.49999999999636 500.50000000000415,500.49999999999767 510.50000000000426,500.4999999999989 518.5901699437546,494.62214747707515 521.6803398875053,485.1115823141239 513.5901699437565,479.2337297911981 510.50000000000574,488.7442949541493 513.5901699437565,479.2337297911981 521.6803398875068,473.3558772682743 513.5901699437565,479.2337297911981 521.6803398875068,473.3558772682743 529.7705098312572,467.4780247453505 521.6803398875068,473.3558772682743 524.7705098312575,463.84531210532305 521.6803398875093,454.334746942371 531.6803398875094,454.3347469423723 539.7705098312582,460.2125994652981 531.6803398875079,466.0904519882219 528.5901699437596,456.57988682526985 531.6803398875079,466.0904519882219 541.680339887508,466.0904519882232 544.7705098312563,475.60101715117526 547.8606797750045,485.1115823141273 539.7705098312542,490.9894348370511 529.7705098312541,490.98943483704977 526.6803398875059,481.4788696740977 534.7705098312562,475.60101715117395 537.8606797750044,485.111582314126 529.7705098312556,479.2337297912001 532.8606797750039,488.7442949541522 535.9508497187521,498.2548601171043 539.0410196625029,488.744294954153 530.9508497187526,494.62214747707674 520.9508497187525,494.62214747707543 529.0410196625012,500.5000000000013 532.1311896062521,490.98943483705006" stroke="black" stroke-linecap="round" stroke-width="1" /><polyline clip-path="url(#border_clip)" fill="none" points="532.1311896062521,490.98943483705006 542.1311896062522,490.98943483705136 545.221359550003,481.4788696741001 548.3115294937537,471.96830451114886 540.2213595500049,466.090451988223 532.1311896062546,471.96830451114675 542.1311896062547,471.96830451114806 539.0410196625039,481.4788696740993 542.1311896062522,490.98943483705136 539.0410196625014,500.5000000000026 542.1311896062496,510.01056516295466 545.2213595499978,519.5211303259067 553.3115294937467,525.3989828488326 563.3115294937468,525.398982848834 566.4016994374975,515.8884176858827 556.4016994374974,515.8884176858813 566.4016994374975,515.8884176858827 574.4918693812464,521.7662702088086 566.4016994374975,515.8884176858827 574.4918693812464,521.7662702088086 582.5820393249951,527.6441227317345 574.4918693812464,521.7662702088086 584.4918693812465,521.7662702088099 592.5820393249968,515.8884176858862 595.6722092687451,525.3989828488383 592.5820393249943,534.9095480117895 584.4918693812455,529.0316954888636 592.5820393249959,523.1538429659399 584.4918693812455,529.0316954888636 587.5820393249937,538.5422606518157 579.4918693812433,544.4201131747394 571.401699437493,550.2979656976631 563.3115294937443,544.4201131747373 560.221359549996,534.9095480117852 568.3115294937463,529.0316954888615 576.4016994374952,534.9095480117874 568.3115294937447,540.7874005347111 571.4016994374956,531.2768353717598 563.3115294937452,537.1546878946835 555.2213595499948,543.0325404176073 565.221359549995,543.0325404176086 557.1311896062462,537.1546878946826 554.041019662498,527.6441227317306" stroke="black" stroke-linecap="round" stroke-width="1" /><polyline clip-path="url(#border_clip)" fill="none" points="554.041019662498,527.6441227317306 550.9508497187471,537.1546878946818 560.9508497187472,537.1546878946832 564.0410196624955,546.6652530576353 574.0410196624956,546.6652530576366 584.0410196624957,546.6652530576381 587.1311896062465,537.1546878946868 579.0410196624978,531.2768353717609 582.1311896062459,540.787400534713 572.1311896062458,540.7874005347117 564.0410196624955,546.6652530576353 554.0410196624954,546.6652530576339 545.950849718745,552.5431055805576 537.8606797749945,558.4209581034813 534.7705098312438,567.9315232664326 537.8606797749919,577.4420884293846 547.860679774992,577.442088429386 544.7705098312439,567.9315232664339 547.860679774992,577.442088429386 544.7705098312413,586.9526535923371 547.860679774992,577.442088429386 544.7705098312413,586.9526535923371 541.6803398874904,596.4632187552884 544.7705098312413,586.9526535923371 547.8606797749894,596.4632187552893 555.9508497187383,602.3410712782152 547.8606797749878,608.2189238011389 537.8606797749877,608.2189238011375 540.9508497187385,598.7083586381863 549.0410196624873,604.5862111611123 540.9508497187385,598.7083586381863 532.8606797749882,604.58621116111 524.7705098312393,598.708358638184 516.6803398874906,592.8305061152581 519.7705098312415,583.3199409523069 527.8606797749919,577.4420884293831 535.9508497187406,583.3199409523091 532.8606797749898,592.8305061152604 524.770509831241,586.9526535923344 534.7705098312412,586.9526535923358 526.6803398874924,581.0748010694099 518.5901699437436,575.1969485464839 521.6803398874919,584.707513709436" stroke="black" stroke-linecap="round" stroke-width="1" /><polyline clip-path="url(#border_clip)" fill="none" points="521.6803398874919,584.707513709436 524.7705098312426,575.1969485464848 532.8606797749931,569.3190960235611 522.860679774993,569.3190960235597 525.9508497187411,578.8296611865118 517.8606797749907,584.7075137094355 520.9508497187388,594.2180788723875 524.0410196624871,603.7286440353396 534.0410196624872,603.7286440353411 537.1311896062381,594.2180788723898 529.0410196624877,600.0959313953135 525.9508497187395,590.5853662323614 517.8606797749907,584.7075137094355 514.7705098312425,575.1969485464833 506.68033988749386,569.3190960235574 498.5901699437451,563.4412435006315 488.59016994374497,563.44124350063 480.49999999999454,569.3190960235537 483.5901699437427,578.8296611865057 491.6803398874931,572.9518086635821 483.5901699437427,578.8296611865057 473.5901699437426,578.8296611865043 483.5901699437427,578.8296611865057 473.5901699437426,578.8296611865043 463.59016994374247,578.8296611865029 473.5901699437426,578.8296611865043 465.49999999999216,584.707513709428 462.4098300562413,594.2180788723791 454.31966011249256,588.3402263494531 451.2294901687444,578.8296611865011 461.2294901687445,578.8296611865026 458.13932022499364,588.3402263494537 461.2294901687445,578.8296611865026 453.1393202249958,572.9518086635766 456.2294901687467,563.4412435006253 459.31966011249756,553.9306783376742 469.31966011249773,553.9306783376755 477.40983005624645,559.8085308606015 474.3196601124955,569.3190960235528 464.3196601124954,569.3190960235513 467.4098300562463,559.8085308606001 470.49999999999443,569.3190960235522 473.5901699437453,559.808530860601" stroke="black" stroke-linecap="round" stroke-width="1" /><polyline clip-path="url(#border_clip)" fill="none" points="473.5901699437453,559.808530860601 476.68033988749625,550.2979656976498 468.5901699437458,556.1758182205734 478.59016994374593,556.1758182205749 486.68033988749465,562.0536707435009 483.59016994374656,552.5431055805487 475.4999999999961,558.4209581034725 467.40983005624736,552.5431055805464 459.31966011249693,558.42095810347 451.22949016874645,564.2988106263937 454.3196601124946,573.8093757893457 464.3196601124947,573.8093757893472 456.229490168746,567.9315232664212 464.3196601124964,562.0536707434976 467.40983005624736,552.5431055805464 475.49999999999784,546.6652530576227 478.5901699437488,537.1546878946716 481.68033988749966,527.6441227317204 478.59016994375156,518.1335575687683 470.50000000000284,512.2557050458422 462.4098300562524,518.1335575687658 470.50000000000114,524.0114100916919 462.4098300562524,518.1335575687658 459.3196601125043,508.62299240581376 462.4098300562524,518.1335575687658 459.3196601125043,508.62299240581376 456.22949016875623,499.1124272428616 459.31966011250427,508.62299240581376 451.2294901687556,502.7451398828877 441.22949016875543,502.74513988288624 444.31966011250637,493.23457471993504 452.40983005625685,487.35672219701144 455.50000000000495,496.86728735996354 445.50000000000483,496.86728735996206 455.50000000000495,496.86728735996354 458.5901699437559,487.35672219701235 468.590169943756,487.3567221970139 478.59016994375617,487.35672219701536 481.68033988750426,496.86728735996746 478.59016994375327,506.3778525229187 468.59016994375315,506.3778525229172 465.50000000000506,496.867287359965 475.50000000000523,496.86728735996655" stroke="black" stroke-linecap="round" stroke-width="1" /><polyline clip-path="url(#border_clip)" fill="none" points="475.50000000000523,496.86728735996655 467.40983005625475,502.74513988289016 477.40983005625486,502.74513988289164 487.40983005625503,502.74513988289317 479.3196601125063,496.8672873599671 482.4098300562544,506.3778525229193 479.3196601125034,515.8884176858704 487.4098300562539,510.0105651629469 479.31966011250523,504.1327126400208 482.40983005625617,494.62214747706963 474.3196601125075,488.7442949541436 466.22949016875884,482.86644243121754 458.1393202250083,488.74429495414114 461.2294901687564,498.2548601170933 464.3196601125074,488.7442949541421 472.40983005625606,494.62214747706815 482.40983005625617,494.6221474770697 490.5000000000049,500.49999999999574 500.500000000005,500.49999999999727 510.5000000000052,500.4999999999988 518.5901699437557,494.6221474770752 521.6803398875066,485.111582314124 513.5901699437579,479.23372979119796 510.50000000000693,488.74429495414915 513.5901699437579,479.23372979119796 521.6803398875085,473.3558772682744 513.5901699437579,479.23372979119796 521.6803398875085,473.3558772682744 529.7705098312589,467.4780247453508 521.6803398875085,473.3558772682744 524.7705098312595,463.8453121053232 521.6803398875113,454.33474694237105 531.6803398875115,454.3347469423726 539.7705098312601,460.2125994652987 531.6803398875097,466.09045198822224 528.5901699437617,456.5798868252701 531.6803398875097,466.09045198822224 541.6803398875098,466.0904519882238 544.7705098312579,475.60101715117594 547.8606797750059,485.1115823141281 539.7705098312554,490.98943483705165 529.7705098312553,490.98943483705006 526.6803398875072,481.47886967409795" stroke="black" stroke-linecap="round" stroke-width="1" /><polyline clip-path="url(#border_clip)" fill="none" points="526.6803398875072,481.47886967409795 534.7705098312578,475.60101715117435 537.8606797750058,485.1115823141265 529.7705098312571,479.23372979120046 532.8606797750051,488.7442949541526 535.9508497187531,498.2548601171048 539.0410196625041,488.7442949541536 530.9508497187536,494.62214747707714 520.9508497187535,494.62214747707554 529.0410196625022,500.50000000000165 532.1311896062532,490.98943483705045 542.1311896062533,490.98943483705204 545.2213595500043,481.47886967410085 548.3115294937554,471.96830451114965 540.2213595500067,466.09045198822355 532.1311896062562,471.9683045111471 542.1311896062564,471.9683045111487 539.0410196625053,481.4788696740999 542.1311896062533,490.98943483705204 539.0410196625023,500.5000000000032 542.1311896062502,510.01056516295534 545.2213595499983,519.5211303259075 553.311529493747,525.3989828488336 563.3115294937471,525.3989828488352 566.4016994374981,515.8884176858841 556.401699437498,515.8884176858825 566.4016994374981,515.8884176858841 574.4918693812468,521.7662702088102 566.4016994374981,515.8884176858841 574.4918693812468,521.7662702088102 582.5820393249954,527.6441227317363 574.4918693812468,521.7662702088102 584.4918693812469,521.7662702088118 592.5820393249975,515.8884176858883 595.6722092687455,525.3989828488404 592.5820393249944,534.9095480117916 584.4918693812458,529.0316954888655 592.5820393249963,523.153842965942 584.4918693812458,529.0316954888655 587.5820393249938,538.5422606518176 579.4918693812433,544.4201131747411 571.4016994374928,550.2979656976647 563.311529493744,544.4201131747385" stroke="black" stroke-linecap="round" stroke-width="1" /><polyline clip-path="url(#border_clip)" fill="none" points="563.311529493744,544.4201131747385 560.2213595499961,534.9095480117863 568.3115294937467,529.0316954888629 576.4016994374953,534.909548011789 568.3115294937447,540.7874005347126 571.4016994374958,531.2768353717613 563.3115294937453,537.1546878946848 555.2213595499948,543.0325404176083 565.2213595499949,543.03254041761 557.1311896062462,537.1546878946838 554.0410196624982,527.6441227317316 550.9508497187471,537.1546878946829 560.9508497187473,537.1546878946845 564.0410196624953,546.6652530576366 574.0410196624955,546.6652530576383 584.0410196624956,546.6652530576399 587.1311896062467,537.1546878946888 579.041019662498,531.2768353717626 582.131189606246,540.7874005347147 572.1311896062458,540.7874005347131 564.0410196624953,546.6652530576366 554.0410196624952,546.665253057635 545.9508497187446,552.5431055805585 537.860679774994,558.420958103482 534.770509831243,567.9315232664331 537.8606797749909,577.4420884293854 547.860679774991,577.442088429387 544.7705098312431,567.9315232664349 547.860679774991,577.442088429387 544.7705098312399,586.9526535923382 547.860679774991,577.442088429387 544.7705098312399,586.9526535923382 541.6803398874889,596.4632187552894 544.7705098312399,586.9526535923382 547.860679774988,596.4632187552904 555.9508497187365,602.3410712782165 547.860679774986,608.21892380114 537.8606797749858,608.2189238011383 540.9508497187369,598.7083586381872 549.0410196624855,604.5862111611134 540.9508497187369,598.7083586381872 532.8606797749864,604.5862111611107 524.7705098312377,598.7083586381846" stroke="black" stroke-linecap="round" stroke-width="1" /><polyline clip-path="url(#border_clip)" fill="none" points="524.7705098312377,598.7083586381846 516.6803398874891,592.8305061152583 519.7705098312402,583.3199409523072 527.8606797749908,577.4420884293837 535.9508497187394,583.3199409523099 532.8606797749883,592.8305061152611 524.7705098312397,586.9526535923349 534.7705098312398,586.9526535923366 526.6803398874912,581.0748010694103 518.5901699437426,575.1969485464842 521.6803398874905,584.7075137094364 524.7705098312416,575.1969485464853 532.8606797749923,569.3190960235618 522.860679774992,569.3190960235601 525.95084971874,578.8296611865122 517.8606797749894,584.7075137094357 520.9508497187373,594.2180788723879 524.0410196624853,603.7286440353402 534.0410196624854,603.7286440353419 537.1311896062365,594.2180788723906 529.041019662486,600.0959313953141 525.950849718738,590.5853662323619 517.8606797749894,584.7075137094357 514.7705098312415,575.1969485464836 506.68033988749283,569.3190960235573 498.59016994374423,563.4412435006311 488.59016994374406,563.4412435006294 480.49999999999346,569.3190960235529 483.5901699437414,578.8296611865051 491.680339887492,572.9518086635817 483.5901699437414,578.8296611865051 473.5901699437412,578.8296611865034 483.5901699437414,578.8296611865051 473.5901699437412,578.8296611865034 463.5901699437411,578.8296611865017 473.5901699437412,578.8296611865034 465.4999999999906,584.7075137094268 462.4098300562395,594.218078872378 454.3196601124909,588.3402263494518 451.229490168743,578.8296611864996 461.22949016874315,578.8296611865013 458.139320224992,588.3402263494525 461.22949016874315,578.8296611865013" stroke="black" stroke-linecap="round" stroke-width="1" /><polyline clip-path="url(#border_clip)" fill="none" points="461.22949016874315,578.8296611865013 453.13932022499455,572.9518086635751 456.2294901687457,563.441243500624 459.3196601124968,553.9306783376728 469.319660112497,553.9306783376744 477.4098300562456,559.8085308606006 474.31966011249443,569.3190960235519 464.31966011249426,569.3190960235502 467.4098300562454,559.8085308605989 470.49999999999335,569.3190960235512 473.5901699437445,559.8085308606001 476.6803398874957,550.2979656976488 468.590169943745,556.1758182205723 478.5901699437452,556.175818220574 486.6803398874938,562.0536707435002 483.59016994374593,552.5431055805481 475.4999999999953,558.4209581034714 467.4098300562467,552.5431055805452 459.3196601124961,558.4209581034686 451.22949016874543,564.2988106263921 454.31966011249335,573.8093757893444 464.31966011249347,573.8093757893461 456.2294901687449,567.9315232664198 464.3196601124955,562.0536707434964 467.4098300562467,552.5431055805452 475.4999999999973,546.6652530576218 478.5901699437485,537.1546878946706 481.68033988749966,527.6441227317194 478.5901699437518,518.1335575687673 470.5000000000032,512.2557050458411 462.4098300562526,518.1335575687644 470.50000000000114,524.0114100916907 462.4098300562526,518.1335575687644 459.3196601125047,508.6229924058122 462.4098300562526,518.1335575687644 459.3196601125047,508.6229924058122 456.2294901687568,499.11242724286 459.3196601125047,508.6229924058122 451.2294901687561,502.74513988288595 441.22949016875594,502.74513988288425 444.3196601125071,493.23457471993305 452.40983005625776,487.3567221970097 455.5000000000056,496.8672873599619" stroke="black" stroke-linecap="round" stroke-width="1" /><polyline clip-path="url(#border_clip)" fill="none" points="455.5000000000056,496.8672873599619 445.50000000000546,496.86728735996013 455.5000000000056,496.8672873599619 458.5901699437568,487.35672219701075 468.590169943757,487.35672219701246 478.59016994375713,487.3567221970142 481.680339887505,496.8672873599665 478.59016994375384,506.37785252291764 468.59016994375366,506.3778525229159 465.5000000000058,496.86728735996365 475.50000000000597,496.8672873599654 467.4098300562553,502.7451398828888 477.4098300562555,502.74513988289056 487.40983005625566,502.7451398828923 479.3196601125071,496.8672873599661 482.4098300562549,506.3778525229183 479.3196601125037,515.8884176858695 487.40983005625435,510.0105651629461 479.3196601125058,504.1327126400198 482.409830056257,494.62214747706867 474.3196601125085,488.7442949541424 466.22949016875987,482.8664424312161 458.1393202250092,488.7442949541395 461.2294901687571,498.25486011709177 464.3196601125083,488.7442949541406 472.40983005625685,494.6221474770669 482.409830056257,494.62214747706867 490.50000000000557,500.49999999999494 500.50000000000574,500.4999999999967 510.5000000000059,500.4999999999985 518.5901699437566,494.6221474770751 521.6803398875078,485.11158231412395 513.5901699437593,479.2337297911977 510.500000000008,488.7442949541488 513.5901699437593,479.2337297911977 521.68033988751,473.3558772682743 513.5901699437593,479.2337297911977 521.68033988751,473.3558772682743 529.7705098312606,467.4780247453509 521.68033988751,473.3558772682743 524.7705098312612,463.84531210532316 521.6803398875134,454.3347469423709 531.6803398875135,454.3347469423727" stroke="black" stroke-linecap="round" stroke-width="1" /><polyline clip-path="url(#border_clip)" fill="none" points="531.6803398875135,454.3347469423727 539.7705098312621,460.212599465299 531.6803398875114,466.09045198822236 528.5901699437636,456.5798868252701 531.6803398875114,466.09045198822236 541.6803398875115,466.0904519882242 544.7705098312593,475.6010171511764 547.8606797750072,485.11158231412867 539.7705098312565,490.98943483705204 529.7705098312564,490.9894348370502 526.6803398875086,481.478869674098 534.7705098312592,475.60101715117463 537.860679775007,485.11158231412685 529.7705098312584,479.2337297912006 532.8606797750062,488.74429495415285 535.9508497187541,498.2548601171051 539.0410196625053,488.744294954154 530.9508497187546,494.6221474770773 520.9508497187545,494.6221474770755 529.041019662503,500.5000000000018 532.1311896062543,490.9894348370507 542.1311896062545,490.9894348370525 545.2213595500057,481.47886967410136 548.311529493757,471.9683045111502 540.2213595500084,466.0904519882239 532.1311896062577,471.96830451114727 542.131189606258,471.9683045111491 539.0410196625066,481.4788696741002 542.1311896062545,490.9894348370525 539.0410196625032,500.50000000000364 542.1311896062509,510.0105651629559 545.2213595499987,519.5211303259082 553.3115294937473,525.3989828488345 563.3115294937475,525.3989828488363 566.4016994374988,515.8884176858852 556.4016994374986,515.8884176858834 566.4016994374988,515.8884176858852 574.4918693812473,521.7662702088115 566.4016994374988,515.8884176858852 574.4918693812473,521.7662702088115 582.5820393249958,527.6441227317379 574.4918693812473,521.7662702088115 584.4918693812474,521.7662702088134" stroke="black" stroke-linecap="round" stroke-width="1" /><polyline clip-path="url(#border_clip)" fill="none" points="584.4918693812474,521.7662702088134 592.5820393249982,515.88841768589 595.672209268746,525.3989828488423 592.5820393249946,534.9095480117934 584.4918693812461,529.0316954888671 592.5820393249968,523.1538429659438 584.4918693812461,529.0316954888671 587.5820393249938,538.5422606518193 579.4918693812432,544.4201131747427 571.4016994374924,550.2979656976661 563.3115294937439,544.4201131747396 560.2213595499961,534.9095480117874 568.3115294937469,529.0316954888641 576.4016994374954,534.9095480117904 568.3115294937447,540.7874005347137 571.4016994374961,531.2768353717627 563.3115294937453,537.1546878946859 555.2213595499945,543.0325404176093 565.2213595499948,543.0325404176111 557.1311896062463,537.1546878946848 554.0410196624985,527.6441227317325 550.9508497187471,537.1546878946837 560.9508497187473,537.1546878946855 564.041019662495,546.6652530576378 574.0410196624953,546.6652530576397 584.0410196624955,546.6652530576415 587.1311896062468,537.1546878946904 579.0410196624982,531.276835371764 582.131189606246,540.7874005347163 572.1311896062458,540.7874005347145 564.0410196624952,546.6652530576378 554.0410196624949,546.6652530576359 545.9508497187442,552.5431055805592 537.8606797749935,558.4209581034825 534.7705098312422,567.9315232664336 537.8606797749899,577.4420884293859 547.8606797749901,577.4420884293878 544.7705098312424,567.9315232664355 547.8606797749901,577.4420884293878 544.7705098312388,586.952653592339 547.8606797749901,577.4420884293878 544.7705098312388,586.952653592339 541.6803398874874,596.4632187552901" stroke="black" stroke-linecap="round" stroke-width="1" /><polyline clip-path="url(#border_clip)" fill="none" points="541.6803398874874,596.4632187552901 544.7705098312388,586.952653592339 547.8606797749865,596.4632187552912 555.950849718735,602.3410712782176 547.8606797749843,608.2189238011409 537.8606797749841,608.218923801139 540.9508497187354,598.7083586381879 549.0410196624839,604.5862111611143 540.9508497187354,598.7083586381879 532.8606797749846,604.5862111611111 524.7705098312362,598.7083586381848 516.6803398874877,592.8305061152585 519.770509831239,583.3199409523073 527.8606797749898,577.4420884293841 535.9508497187383,583.3199409523104 532.8606797749869,592.8305061152615 524.7705098312384,586.9526535923351 534.7705098312385,586.952653592337 526.6803398874902,581.0748010694107 518.5901699437416,575.1969485464842 521.6803398874894,584.7075137094365 524.7705098312407,575.1969485464855 532.8606797749915,569.3190960235622 522.8606797749912,569.3190960235602 525.9508497187389,578.8296611865126 517.8606797749882,584.7075137094358 520.9508497187359,594.2180788723881 524.0410196624836,603.7286440353404 534.0410196624838,603.7286440353423 537.1311896062351,594.2180788723913 529.0410196624844,600.0959313953146 525.9508497187367,590.5853662323623 517.8606797749882,584.7075137094358 514.7705098312405,575.1969485464836 506.68033988749204,569.3190960235571 498.59016994374355,563.4412435006307 488.5901699437434,563.4412435006287 480.4999999999926,569.319096023552 483.5901699437403,578.8296611865044 491.6803398874911,572.9518086635811 483.5901699437403,578.8296611865044 473.5901699437401,578.8296611865024 483.5901699437403,578.8296611865044" stroke="black" stroke-linecap="round" stroke-width="1" /><polyline clip-path="url(#border_clip)" fill="none" points="483.5901699437403,578.8296611865044 473.5901699437401,578.8296611865024 463.5901699437399,578.8296611865005 473.5901699437401,578.8296611865024 465.4999999999893,584.7075137094257 462.409830056238,594.2180788723767 454.3196601124895,588.3402263494504 451.2294901687418,578.829661186498 461.22949016874196,578.8296611865 458.13932022499057,588.3402263494511 461.22949016874196,578.8296611865 453.1393202249935,572.9518086635736 456.22949016874486,563.4412435006225 459.3196601124963,553.9306783376713 469.3196601124965,553.9306783376733 477.4098300562449,559.8085308605997 474.3196601124935,569.3190960235509 464.31966011249335,569.3190960235489 467.40983005624474,559.8085308605978 470.49999999999244,569.3190960235501 473.59016994374383,559.8085308605989 476.6803398874952,550.2979656976479 468.59016994374446,556.1758182205712 478.5901699437446,556.1758182205731 486.6803398874931,562.0536707434995 483.5901699437454,552.5431055805473 475.49999999999466,558.4209581034704 467.40983005624616,552.543105580544 459.3196601124954,558.4209581034672 451.22949016874463,564.2988106263905 454.3196601124923,573.8093757893428 464.31966011249244,573.8093757893448 456.229490168744,567.9315232664184 464.3196601124948,562.0536707434951 467.40983005624616,552.543105580544 475.499999999997,546.6652530576208 478.5901699437484,537.1546878946697 481.6803398874998,527.6441227317185 478.59016994375213,518.1335575687663 470.5000000000037,512.2557050458398 462.4098300562529,518.1335575687631 470.50000000000136,524.0114100916895 462.4098300562529,518.1335575687631" stroke="black" stroke-linecap="round" stroke-width="1" /><polyline clip-path="url(#border_clip)" fill="none" points="462.4098300562529,518.1335575687631 459.3196601125053,508.6229924058107 462.4098300562529,518.1335575687631 459.3196601125053,508.6229924058107 456.2294901687576,499.11242724285836 459.3196601125053,508.6229924058107 451.2294901687568,502.74513988288425 441.2294901687566,502.74513988288226 444.319660112508,493.2345747199312 452.40983005625884,487.3567221970079 455.5000000000065,496.86728735996024 445.50000000000625,496.86728735995825 455.5000000000065,496.86728735996024 458.5901699437579,487.35672219700916 468.5901699437581,487.35672219701115 478.59016994375827,487.3567221970132 481.6803398875059,496.86728735996553 478.59016994375446,506.3778525229166 468.5901699437543,506.3778525229146 465.50000000000665,496.86728735996223 475.5000000000068,496.8672873599643 467.40983005625606,502.7451398828875 477.4098300562562,502.7451398828895 487.4098300562564,502.7451398828915 479.31966011250796,496.867287359965 482.4098300562556,506.3778525229174 479.31966011250415,515.8884176858685 487.4098300562549,510.0105651629453 479.3196601125065,504.1327126400188 482.409830056258,494.6221474770677 474.3196601125095,488.7442949541412 466.2294901687611,482.86644243121475 458.13932022501024,488.74429495413796 461.2294901687579,498.2548601170903 464.3196601125093,488.7442949541392 472.40983005625776,494.62214747706565 482.409830056258,494.6221474770677 490.50000000000637,500.4999999999942 500.5000000000066,500.49999999999625" stroke="black" stroke-linecap="round" stroke-width="1" /></svg>