<?xml version="1.0" encoding="UTF-8"?>
<svg width="1e4px" height="1e4px" baseProfile="full" version="1.1" viewBox="4745.6 4736.7 350.07 348.06" xmlns="http://www.w3.org/2000/svg">
<defs>
<clipPath id="a">
<rect width="1e4" height="1e4"/>
</clipPath>
</defs>
<polyline points="5000.5 5000.5 5010.5 5000.5 5020.5 5000.5 5028.6 4994.6 5036.7 4988.7 5028.6 4982.9 5020.5 4977 5017.4 4967.5 5007.4 4967.5 5010.5 4958 5020.5 4958 5017.4 4948.5 5020.5 4958 5023.6 4967.5 5020.5 4958 5012.4 4952.1 5020.5 4958 5017.4 4948.5 5025.5 4954.3 5028.6 4944.8 5036.7 4938.9 5039.8 4929.4 5047.9 4935.3 5039.8 4929.4 5031.7 4935.3 5039.8 4929.4 5042.9 4938.9 5032.9 4938.9 5036 4948.5 5044 4954.3 5047.1 4963.8 5044 4954.3 5052.1 4948.5 5055.2 4958 5047.1 4952.1 5039 4958 5031 4952.1 5034 4942.6 5037.1 4952.1 5034 4942.6 5037.1 4933.1 5045.2 4938.9 5048.3 4948.5" clip-path="url(#a)" fill="none" stroke="#000" stroke-linecap="round"/>
<polyline points="5048.3 4948.5 5056.4 4942.6 5064.5 4948.5 5074.5 4948.5 5066.4 4942.6 5069.5 4952.1 5077.6 4946.2 5074.5 4936.7 5077.6 4927.2 5087.6 4927.2 5095.7 4933.1 5085.7 4933.1 5077.6 4927.2 5069.5 4921.3 5077.6 4915.4 5074.5 4905.9 5066.4 4900 5076.4 4900 5068.3 4894.2 5065.2 4884.7 5062.1 4894.2 5052.1 4894.2 5060.2 4900 5052.1 4894.2 5049 4903.7 5046 4894.2 5042.9 4884.7 5051 4878.8 5047.9 4869.3 5044.8 4878.8 5036.7 4872.9 5039.8 4882.4 5049.8 4882.4 5052.9 4872.9 5056 4882.4 5047.9 4888.3 5039.8 4894.2 5049.8 4894.2 5057.9 4888.3 5054.8 4878.8 5046.7 4884.7 5043.6 4875.1 5035.5 4869.3" clip-path="url(#a)" fill="none" stroke="#000" stroke-linecap="round"/>
<polyline points="5035.5 4869.3 5025.5 4869.3 5028.6 4878.8 5031.7 4869.3 5034.8 4859.8 5026.7 4853.9 5018.6 4848 5028.6 4848 5036.7 4842.1 5044.8 4848 5036.7 4842.1 5044.8 4848 5034.8 4848 5037.9 4838.5 5041 4829 5037.9 4819.5 5034.8 4810 5026.7 4815.8 5018.6 4821.7 5008.6 4821.7 5005.5 4831.2 4997.4 4825.3 5000.5 4815.8 4990.5 4815.8 5000.5 4815.8 5010.5 4815.8 5000.5 4815.8 4992.4 4821.7 5000.5 4815.8 4990.5 4815.8 4998.6 4810 4990.5 4804.1 4987.4 4794.6 4979.3 4788.7 4987.4 4782.8 4979.3 4788.7 4982.4 4798.2 4979.3 4788.7 4989.3 4788.7 4986.2 4798.2 4996.2 4798.2 5004.3 4792.3 5014.3 4792.3" clip-path="url(#a)" fill="none" stroke="#000" stroke-linecap="round"/>
<polyline points="5014.3 4792.3 5004.3 4792.3 5001.2 4782.8 5011.2 4782.8 5003.1 4788.7 5006.2 4798.2 4998.1 4804.1 4990 4798.2 5e3 4798.2 4990 4798.2 4982 4792.3 4990 4786.4 5e3 4786.4 4997 4776.9 5005 4771.1 5008.1 4761.6 5e3 4767.4 5010 4767.4 5007 4757.9 4997 4757.9 4988.9 4752 4992 4742.5 5e3 4736.7 4997 4746.2 4988.9 4752 4980.8 4757.9 4977.7 4748.4 4967.7 4748.4 4959.6 4754.3 4962.7 4744.8 4954.6 4750.7 4944.6 4750.7 4952.7 4756.5 4949.6 4766 4957.7 4760.2 4949.6 4766 4957.7 4771.9 4947.7 4771.9 4937.7 4771.9 4934.6 4762.4 4924.6 4762.4 4932.7 4768.3 4924.6 4774.2" clip-path="url(#a)" fill="none" stroke="#000" stroke-linecap="round"/>
<polyline points="4924.6 4774.2 4934.6 4774.2 4937.7 4764.7 4929.6 4758.8 4939.6 4758.8 4942.7 4768.3 4945.8 4777.8 4948.9 4768.3 4945.8 4758.8 4935.8 4758.8 4938.9 4768.3 4928.9 4768.3 4920.8 4774.2 4917.7 4783.7 4927.7 4783.7 4919.6 4777.8 4911.5 4771.9 4903.4 4777.8 4895.3 4783.7 4898.4 4774.2 4895.3 4764.7 4903.4 4758.8 4895.3 4764.7 4903.4 4758.8 4900.3 4768.3 4892.2 4762.4 4884.1 4756.5 4874.1 4756.5 4864.1 4756.5 4867.2 4766 4870.3 4775.6 4867.2 4785.1 4875.3 4790.9 4867.2 4796.8 4859.1 4790.9 4856.1 4800.5 4859.1 4790.9 4862.2 4781.4 4859.1 4790.9 4862.2 4800.5 4859.1 4790.9 4856.1 4800.5 4853 4790.9" clip-path="url(#a)" fill="none" stroke="#000" stroke-linecap="round"/>
<polyline points="4853 4790.9 4844.9 4796.8 4834.9 4796.8 4826.8 4802.7 4823.7 4793.2 4826.8 4802.7 4836.8 4802.7 4826.8 4802.7 4829.9 4793.2 4838 4799.1 4841.1 4789.6 4838 4780 4841.1 4770.5 4838 4780 4828 4780 4831.1 4770.5 4834.1 4780 4844.1 4780 4847.2 4789.6 4839.1 4795.4 4842.2 4785.9 4839.1 4795.4 4831.1 4801.3 4828 4791.8 4831.1 4782.3 4821.1 4782.3 4818 4772.8 4809.9 4766.9 4813 4776.4 4816.1 4766.9 4806.1 4766.9 4803 4776.4 4794.9 4782.3 4786.8 4776.4 4783.7 4766.9 4791.8 4772.8 4794.9 4782.3 4798 4791.8 4788 4791.8 4784.9 4801.3 4788 4810.8 4779.9 4804.9 4783 4814.5" clip-path="url(#a)" fill="none" stroke="#000" stroke-linecap="round"/>
<polyline points="4783 4814.5 4779.9 4824 4788 4818.1 4796.1 4824 4793 4814.5 4796.1 4824 4804.1 4818.1 4801.1 4827.6 4798 4837.1 4788 4837.1 4784.9 4846.6 4793 4840.7 4796.1 4850.2 4799.1 4840.7 4791.1 4834.9 4783 4840.7 4786.1 4831.2 4796.1 4831.2 4806.1 4831.2 4798 4825.3 4788 4825.3 4784.9 4834.9 4794.9 4834.9 4791.8 4844.4 4794.9 4853.9 4803 4859.8 4806.1 4850.2 4798 4856.1 4789.9 4862 4793 4871.5 4796.1 4881 4788 4875.1 4778 4875.1 4774.9 4865.6 4778 4875.1 4774.9 4865.6 4783 4871.5 4774.9 4877.4 4766.8 4883.3 4763.7 4892.8 4760.6 4902.3 4770.6 4902.3 4780.6 4902.3" clip-path="url(#a)" fill="none" stroke="#000" stroke-linecap="round"/>
<polyline points="4780.6 4902.3 4788.7 4908.2 4796.8 4902.3 4799.9 4911.8 4791.8 4917.7 4799.9 4923.6 4791.8 4917.7 4783.7 4911.8 4791.8 4917.7 4801.8 4917.7 4791.8 4917.7 4799.9 4923.6 4789.9 4923.6 4793 4933.1 4789.9 4942.6 4793 4952.1 4783 4952.1 4793 4952.1 4796.1 4942.6 4793 4952.1 4784.9 4946.2 4793 4940.3 4784.9 4934.5 4774.9 4934.5 4766.8 4928.6 4774.9 4934.5 4771.8 4944 4763.7 4938.1 4773.7 4938.1 4776.8 4928.6 4786.8 4928.6 4789.9 4938.1 4781.8 4932.2 4789.9 4938.1 4793 4947.6 4783 4947.6 4774.9 4941.7 4771.8 4951.2 4761.8 4951.2 4753.7 4957.1 4763.7 4957.1 4755.6 4951.2 4752.5 4960.7" clip-path="url(#a)" fill="none" stroke="#000" stroke-linecap="round"/>
<polyline points="4752.5 4960.7 4760.6 4966.6 4763.7 4976.1 4755.6 4982 4745.6 4982 4753.7 4976.1 4763.7 4976.1 4773.7 4976.1 4770.6 4985.6 4778.7 4991.5 4788.7 4991.5 4780.6 4997.4 4790.6 4997.4 4798.7 5003.3 4795.6 4993.8 4803.7 4987.9 4793.7 4987.9 4803.7 4987.9 4800.6 4978.4 4808.7 4984.3 4816.8 4990.1 4813.7 4999.6 4821.8 5005.5 4818.7 4996 4828.7 4996 4820.6 4990.1 4812.5 4996 4815.6 5005.5 4807.5 4999.6 4810.6 4990.1 4813.7 4980.6 4805.6 4986.5 4802.5 4996 4810.6 5001.9 4813.7 4992.4 4821.8 4998.3 4831.8 4998.3 4839.9 4992.4 4831.8 4986.5 4834.9 4996 4838 5005.5 4848 5005.5 4858 5005.5" clip-path="url(#a)" fill="none" stroke="#000" stroke-linecap="round"/>
<polyline points="4858 5005.5 4849.9 5011.4 4846.8 5020.9 4836.8 5020.9 4846.8 5020.9 4836.8 5020.9 4844.9 5015 4848 5024.5 4851.1 5034.1 4859.1 5039.9 4867.2 5045.8 4870.3 5036.3 4873.4 5026.8 4881.5 5020.9 4878.4 5011.4 4888.4 5011.4 4891.5 5020.9 4899.6 5015 4891.5 5020.9 4883.4 5026.8 4891.5 5020.9 4894.6 5011.4 4891.5 5020.9 4899.6 5015 4896.5 5024.5 4906.5 5024.5 4914.6 5030.4 4924.6 5030.4 4921.5 5039.9 4924.6 5030.4 4916.5 5024.5 4924.6 5030.4 4916.5 5036.3 4913.4 5026.8 4905.3 5032.7 4902.2 5042.2 4894.1 5048.1 4902.2 5042.2 4910.3 5048.1 4902.2 5053.9 4905.3 5044.4 4897.2 5038.5 4900.3 5029" clip-path="url(#a)" fill="none" stroke="#000" stroke-linecap="round"/>
<polyline points="4900.3 5029 4910.3 5029 4902.2 5034.9 4910.3 5029 4920.3 5029 4917.2 5038.5 4909.1 5044.4 4917.2 5050.3 4914.1 5059.8 4917.2 5069.3 4920.3 5059.8 4912.2 5065.7 4920.3 5071.6 4928.4 5065.7 4938.4 5065.7 4941.5 5075.2 4938.4 5084.7 4935.3 5075.2 4938.4 5065.7 4941.5 5056.2 4949.6 5062.1 4957.7 5056.2 4960.8 5046.7 4963.9 5056.2 4967 5046.7 4975 5040.8 4965 5040.8 4962 5031.3 4958.9 5040.8 4962 5031.3 4952 5031.3 4960 5025.4 4968.1 5019.5 4976.2 5025.4 4984.3 5019.5 4974.3 5019.5 4977.4 5010 4969.3 5015.9 4972.4 5025.4 4982.4 5025.4 4974.3 5031.3 4966.2 5025.4 4958.1 5019.5" clip-path="url(#a)" fill="none" stroke="#000" stroke-linecap="round"/>
<polyline points="4958.1 5019.5 4961.2 5029 4969.3 5034.9 4977.4 5029 4969.3 5023.2 4977.4 5017.3 4980.5 5007.8 4977.4 4998.3 4969.3 5004.1 4979.3 5004.1 4989.3 5004.1 4992.4 4994.6 4995.5 4985.1 4998.6 4994.6 5006.7 5000.5 5003.6 5010 5006.7 5000.5 5003.6 5010 5000.5 5000.5 5010.5 5000.5 5020.5 5000.5 5028.6 4994.6 5036.7 4988.7 5028.6 4982.9 5020.5 4977 5017.4 4967.5 5007.4 4967.5 5010.5 4958 5020.5 4958 5017.4 4948.5 5020.5 4958 5023.6 4967.5 5020.5 4958 5012.4 4952.1 5020.5 4958 5017.4 4948.5 5025.5 4954.3 5028.6 4944.8 5036.7 4938.9 5039.8 4929.4 5047.9 4935.3 5039.8 4929.4 5031.7 4935.3" clip-path="url(#a)" fill="none" stroke="#000" stroke-linecap="round"/>
<polyline points="5031.7 4935.3 5039.8 4929.4 5042.9 4938.9 5032.9 4938.9 5036 4948.5 5044 4954.3 5047.1 4963.8 5044 4954.3 5052.1 4948.5 5055.2 4958 5047.1 4952.1 5039 4958 5031 4952.1 5034 4942.6 5037.1 4952.1 5034 4942.6 5037.1 4933.1 5045.2 4938.9 5048.3 4948.5 5056.4 4942.6 5064.5 4948.5 5074.5 4948.5 5066.4 4942.6 5069.5 4952.1 5077.6 4946.2 5074.5 4936.7 5077.6 4927.2 5087.6 4927.2 5095.7 4933.1 5085.7 4933.1 5077.6 4927.2 5069.5 4921.3 5077.6 4915.4 5074.5 4905.9 5066.4 4900 5076.4 4900 5068.3 4894.2 5065.2 4884.7 5062.1 4894.2 5052.1 4894.2 5060.2 4900 5052.1 4894.2 5049 4903.7" clip-path="url(#a)" fill="none" stroke="#000" stroke-linecap="round"/>
<polyline points="5049 4903.7 5046 4894.2 5042.9 4884.7 5051 4878.8 5047.9 4869.3 5044.8 4878.8 5036.7 4872.9 5039.8 4882.4 5049.8 4882.4 5052.9 4872.9 5056 4882.4 5047.9 4888.3 5039.8 4894.2 5049.8 4894.2 5057.9 4888.3 5054.8 4878.8 5046.7 4884.7 5043.6 4875.1 5035.5 4869.3 5025.5 4869.3 5028.6 4878.8 5031.7 4869.3 5034.8 4859.8 5026.7 4853.9 5018.6 4848 5028.6 4848 5036.7 4842.1 5044.8 4848 5036.7 4842.1 5044.8 4848 5034.8 4848 5037.9 4838.5 5041 4829 5037.9 4819.5 5034.8 4810 5026.7 4815.8 5018.6 4821.7 5008.6 4821.7 5005.5 4831.2 4997.4 4825.3 5000.5 4815.8 4990.5 4815.8 5000.5 4815.8" clip-path="url(#a)" fill="none" stroke="#000" stroke-linecap="round"/>
<polyline points="5000.5 4815.8 5010.5 4815.8 5000.5 4815.8 4992.4 4821.7 5000.5 4815.8 4990.5 4815.8 4998.6 4810 4990.5 4804.1 4987.4 4794.6 4979.3 4788.7 4987.4 4782.8 4979.3 4788.7 4982.4 4798.2 4979.3 4788.7 4989.3 4788.7 4986.2 4798.2 4996.2 4798.2 5004.3 4792.3 5014.3 4792.3 5004.3 4792.3 5001.2 4782.8 5011.2 4782.8 5003.1 4788.7 5006.2 4798.2 4998.1 4804.1 4990 4798.2 5e3 4798.2 4990 4798.2 4982 4792.3 4990 4786.4 5e3 4786.4 4997 4776.9 5005 4771.1 5008.1 4761.6 5e3 4767.4 5010 4767.4 5007 4757.9 4997 4757.9 4988.9 4752 4992 4742.5 5e3 4736.7 4997 4746.2 4988.9 4752" clip-path="url(#a)" fill="none" stroke="#000" stroke-linecap="round"/>
<polyline points="4988.9 4752 4980.8 4757.9 4977.7 4748.4 4967.7 4748.4 4959.6 4754.3 4962.7 4744.8 4954.6 4750.7 4944.6 4750.7 4952.7 4756.5 4949.6 4766 4957.7 4760.2 4949.6 4766 4957.7 4771.9 4947.7 4771.9 4937.7 4771.9 4934.6 4762.4 4924.6 4762.4 4932.7 4768.3 4924.6 4774.2 4934.6 4774.2 4937.7 4764.7 4929.6 4758.8 4939.6 4758.8 4942.7 4768.3 4945.8 4777.8 4948.9 4768.3 4945.8 4758.8 4935.8 4758.8 4938.9 4768.3 4928.9 4768.3 4920.8 4774.2 4917.7 4783.7 4927.7 4783.7 4919.6 4777.8 4911.5 4771.9 4903.4 4777.8 4895.3 4783.7 4898.4 4774.2 4895.3 4764.7 4903.4 4758.8 4895.3 4764.7 4903.4 4758.8 4900.3 4768.3" clip-path="url(#a)" fill="none" stroke="#000" stroke-linecap="round"/>
<polyline points="4900.3 4768.3 4892.2 4762.4 4884.1 4756.5 4874.1 4756.5 4864.1 4756.5 4867.2 4766 4870.3 4775.6 4867.2 4785.1 4875.3 4790.9 4867.2 4796.8 4859.1 4790.9 4856.1 4800.5 4859.1 4790.9 4862.2 4781.4 4859.1 4790.9 4862.2 4800.5 4859.1 4790.9 4856.1 4800.5 4853 4790.9 4844.9 4796.8 4834.9 4796.8 4826.8 4802.7 4823.7 4793.2 4826.8 4802.7 4836.8 4802.7 4826.8 4802.7 4829.9 4793.2 4838 4799.1 4841.1 4789.6 4838 4780 4841.1 4770.5 4838 4780 4828 4780 4831.1 4770.5 4834.1 4780 4844.1 4780 4847.2 4789.6 4839.1 4795.4 4842.2 4785.9 4839.1 4795.4 4831.1 4801.3 4828 4791.8 4831.1 4782.3" clip-path="url(#a)" fill="none" stroke="#000" stroke-linecap="round"/>
<polyline points="4831.1 4782.3 4821.1 4782.3 4818 4772.8 4809.9 4766.9 4813 4776.4 4816.1 4766.9 4806.1 4766.9 4803 4776.4 4794.9 4782.3 4786.8 4776.4 4783.7 4766.9 4791.8 4772.8 4794.9 4782.3 4798 4791.8 4788 4791.8 4784.9 4801.3 4788 4810.8 4779.9 4804.9 4783 4814.5 4779.9 4824 4788 4818.1 4796.1 4824 4793 4814.5 4796.1 4824 4804.1 4818.1 4801.1 4827.6 4798 4837.1 4788 4837.1 4784.9 4846.6 4793 4840.7 4796.1 4850.2 4799.1 4840.7 4791.1 4834.9 4783 4840.7 4786.1 4831.2 4796.1 4831.2 4806.1 4831.2 4798 4825.3 4788 4825.3 4784.9 4834.9 4794.9 4834.9 4791.8 4844.4 4794.9 4853.9" clip-path="url(#a)" fill="none" stroke="#000" stroke-linecap="round"/>
<polyline points="4794.9 4853.9 4803 4859.8 4806.1 4850.2 4798 4856.1 4789.9 4862 4793 4871.5 4796.1 4881 4788 4875.1 4778 4875.1 4774.9 4865.6 4778 4875.1 4774.9 4865.6 4783 4871.5 4774.9 4877.4 4766.8 4883.3 4763.7 4892.8 4760.6 4902.3 4770.6 4902.3 4780.6 4902.3 4788.7 4908.2 4796.8 4902.3 4799.9 4911.8 4791.8 4917.7 4799.9 4923.6 4791.8 4917.7 4783.7 4911.8 4791.8 4917.7 4801.8 4917.7 4791.8 4917.7 4799.9 4923.6 4789.9 4923.6 4793 4933.1 4789.9 4942.6 4793 4952.1 4783 4952.1 4793 4952.1 4796.1 4942.6 4793 4952.1 4784.9 4946.2 4793 4940.3 4784.9 4934.5 4774.9 4934.5 4766.8 4928.6" clip-path="url(#a)" fill="none" stroke="#000" stroke-linecap="round"/>
<polyline points="4766.8 4928.6 4774.9 4934.5 4771.8 4944 4763.7 4938.1 4773.7 4938.1 4776.8 4928.6 4786.8 4928.6 4789.9 4938.1 4781.8 4932.2 4789.9 4938.1 4793 4947.6 4783 4947.6 4774.9 4941.7 4771.8 4951.2 4761.8 4951.2 4753.7 4957.1 4763.7 4957.1 4755.6 4951.2 4752.5 4960.7 4760.6 4966.6 4763.7 4976.1 4755.6 4982 4745.6 4982 4753.7 4976.1 4763.7 4976.1 4773.7 4976.1 4770.6 4985.6 4778.7 4991.5 4788.7 4991.5 4780.6 4997.4 4790.6 4997.4 4798.7 5003.3 4795.6 4993.8 4803.7 4987.9 4793.7 4987.9 4803.7 4987.9 4800.6 4978.4 4808.7 4984.3 4816.8 4990.1 4813.7 4999.6 4821.8 5005.5 4818.7 4996 4828.7 4996" clip-path="url(#a)" fill="none" stroke="#000" stroke-linecap="round"/>
<polyline points="4828.7 4996 4820.6 4990.1 4812.5 4996 4815.6 5005.5 4807.5 4999.6 4810.6 4990.1 4813.7 4980.6 4805.6 4986.5 4802.5 4996 4810.6 5001.9 4813.7 4992.4 4821.8 4998.3 4831.8 4998.3 4839.9 4992.4 4831.8 4986.5 4834.9 4996 4838 5005.5 4848 5005.5 4858 5005.5 4849.9 5011.4 4846.8 5020.9 4836.8 5020.9 4846.8 5020.9 4836.8 5020.9 4844.9 5015 4848 5024.5 4851.1 5034.1 4859.1 5039.9 4867.2 5045.8 4870.3 5036.3 4873.4 5026.8 4881.5 5020.9 4878.4 5011.4 4888.4 5011.4 4891.5 5020.9 4899.6 5015 4891.5 5020.9 4883.4 5026.8 4891.5 5020.9 4894.6 5011.4 4891.5 5020.9 4899.6 5015 4896.5 5024.5" clip-path="url(#a)" fill="none" stroke="#000" stroke-linecap="round"/>
<polyline points="4896.5 5024.5 4906.5 5024.5 4914.6 5030.4 4924.6 5030.4 4921.5 5039.9 4924.6 5030.4 4916.5 5024.5 4924.6 5030.4 4916.5 5036.3 4913.4 5026.8 4905.3 5032.7 4902.2 5042.2 4894.1 5048.1 4902.2 5042.2 4910.3 5048.1 4902.2 5053.9 4905.3 5044.4 4897.2 5038.5 4900.3 5029 4910.3 5029 4902.2 5034.9 4910.3 5029 4920.3 5029 4917.2 5038.5 4909.1 5044.4 4917.2 5050.3 4914.1 5059.8 4917.2 5069.3 4920.3 5059.8 4912.2 5065.7 4920.3 5071.6 4928.4 5065.7 4938.4 5065.7 4941.5 5075.2 4938.4 5084.7 4935.3 5075.2 4938.4 5065.7 4941.5 5056.2 4949.6 5062.1 4957.7 5056.2 4960.8 5046.7 4963.9 5056.2 4967 5046.7" clip-path="url(#a)" fill="none" stroke="#000" stroke-linecap="round"/>
<polyline points="4967 5046.7 4975 5040.8 4965 5040.8 4962 5031.3 4958.9 5040.8 4962 5031.3 4952 5031.3 4960 5025.4 4968.1 5019.5 4976.2 5025.4 4984.3 5019.5 4974.3 5019.5 4977.4 5010 4969.3 5015.9 4972.4 5025.4 4982.4 5025.4 4974.3 5031.3 4966.2 5025.4 4958.1 5019.5 4961.2 5029 4969.3 5034.9 4977.4 5029 4969.3 5023.2 4977.4 5017.3 4980.5 5007.8 4977.4 4998.3 4969.3 5004.1 4979.3 5004.1 4989.3 5004.1 4992.4 4994.6 4995.5 4985.1 4998.6 4994.6 5006.7 5000.5 5003.6 5010 5006.7 5000.5 5003.6 5010 5000.5 5000.5 5010.5 5000.5 5020.5 5000.5 5028.6 4994.6 5036.7 4988.7 5028.6 4982.9 5020.5 4977" clip-path="url(#a)" fill="none" stroke="#000" stroke-linecap="round"/>
<polyline points="5020.5 4977 5017.4 4967.5 5007.4 4967.5 5010.5 4958 5020.5 4958 5017.4 4948.5 5020.5 4958 5023.6 4967.5 5020.5 4958 5012.4 4952.1 5020.5 4958 5017.4 4948.5 5025.5 4954.3 5028.6 4944.8 5036.7 4938.9 5039.8 4929.4 5047.9 4935.3 5039.8 4929.4 5031.7 4935.3 5039.8 4929.4 5042.9 4938.9 5032.9 4938.9 5036 4948.5 5044 4954.3 5047.1 4963.8 5044 4954.3 5052.1 4948.5 5055.2 4958 5047.1 4952.1 5039 4958 5031 4952.1 5034 4942.6 5037.1 4952.1 5034 4942.6 5037.1 4933.1 5045.2 4938.9 5048.3 4948.5 5056.4 4942.6 5064.5 4948.5 5074.5 4948.5 5066.4 4942.6 5069.5 4952.1 5077.6 4946.2" clip-path="url(#a)" fill="none" stroke="#000" stroke-linecap="round"/>
<polyline points="5077.6 4946.2 5074.5 4936.7 5077.6 4927.2 5087.6 4927.2 5095.7 4933.1 5085.7 4933.1 5077.6 4927.2 5069.5 4921.3 5077.6 4915.4 5074.5 4905.9 5066.4 4900 5076.4 4900 5068.3 4894.2 5065.2 4884.7 5062.1 4894.2 5052.1 4894.2 5060.2 4900 5052.1 4894.2 5049 4903.7 5046 4894.2 5042.9 4884.7 5051 4878.8 5047.9 4869.3 5044.8 4878.8 5036.7 4872.9 5039.8 4882.4 5049.8 4882.4 5052.9 4872.9 5056 4882.4 5047.9 4888.3 5039.8 4894.2 5049.8 4894.2 5057.9 4888.3 5054.8 4878.8 5046.7 4884.7 5043.6 4875.1 5035.5 4869.3 5025.5 4869.3 5028.6 4878.8 5031.7 4869.3 5034.8 4859.8 5026.7 4853.9 5018.6 4848" clip-path="url(#a)" fill="none" stroke="#000" stroke-linecap="round"/>
<polyline points="5018.6 4848 5028.6 4848 5036.7 4842.1 5044.8 4848 5036.7 4842.1 5044.8 4848 5034.8 4848 5037.9 4838.5 5041 4829 5037.9 4819.5 5034.8 4810 5026.7 4815.8 5018.6 4821.7 5008.6 4821.7 5005.5 4831.2 4997.4 4825.3 5000.5 4815.8 4990.5 4815.8 5000.5 4815.8 5010.5 4815.8 5000.5 4815.8 4992.4 4821.7 5000.5 4815.8 4990.5 4815.8 4998.6 4810 4990.5 4804.1 4987.4 4794.6 4979.3 4788.7 4987.4 4782.8 4979.3 4788.7 4982.4 4798.2 4979.3 4788.7 4989.3 4788.7 4986.2 4798.2 4996.2 4798.2 5004.3 4792.3 5014.3 4792.3 5004.3 4792.3 5001.2 4782.8 5011.2 4782.8 5003.1 4788.7 5006.2 4798.2 4998.1 4804.1" clip-path="url(#a)" fill="none" stroke="#000" stroke-linecap="round"/>
<polyline points="4998.1 4804.1 4990 4798.2 5e3 4798.2 4990 4798.2 4982 4792.3 4990 4786.4 5e3 4786.4 4997 4776.9 5005 4771.1 5008.1 4761.6 5e3 4767.4 5010 4767.4 5007 4757.9 4997 4757.9 4988.9 4752 4992 4742.5 5e3 4736.7 4997 4746.2 4988.9 4752 4980.8 4757.9 4977.7 4748.4 4967.7 4748.4 4959.6 4754.3 4962.7 4744.8 4954.6 4750.7 4944.6 4750.7 4952.7 4756.5 4949.6 4766 4957.7 4760.2 4949.6 4766 4957.7 4771.9 4947.7 4771.9 4937.7 4771.9 4934.6 4762.4 4924.6 4762.4 4932.7 4768.3 4924.6 4774.2 4934.6 4774.2 4937.7 4764.7 4929.6 4758.8 4939.6 4758.8 4942.7 4768.3 4945.8 4777.8" clip-path="url(#a)" fill="none" stroke="#000" stroke-linecap="round"/>
<polyline points="4945.8 4777.8 4948.9 4768.3 4945.8 4758.8 4935.8 4758.8 4938.9 4768.3 4928.9 4768.3 4920.8 4774.2 4917.7 4783.7 4927.7 4783.7 4919.6 4777.8 4911.5 4771.9 4903.4 4777.8 4895.3 4783.7 4898.4 4774.2 4895.3 4764.7 4903.4 4758.8 4895.3 4764.7 4903.4 4758.8 4900.3 4768.3 4892.2 4762.4 4884.1 4756.5 4874.1 4756.5 4864.1 4756.5 4867.2 4766 4870.3 4775.6 4867.2 4785.1 4875.3 4790.9 4867.2 4796.8 4859.1 4790.9 4856.1 4800.5 4859.1 4790.9 4862.2 4781.4 4859.1 4790.9 4862.2 4800.5 4859.1 4790.9 4856.1 4800.5 4853 4790.9 4844.9 4796.8 4834.9 4796.8 4826.8 4802.7 4823.7 4793.2 4826.8 4802.7 4836.8 4802.7" clip-path="url(#a)" fill="none" stroke="#000" stroke-linecap="round"/>
<polyline points="4836.8 4802.7 4826.8 4802.7 4829.9 4793.2 4838 4799.1 4841.1 4789.6 4838 4780 4841.1 4770.5 4838 4780 4828 4780 4831.1 4770.5 4834.1 4780 4844.1 4780 4847.2 4789.6 4839.1 4795.4 4842.2 4785.9 4839.1 4795.4 4831.1 4801.3 4828 4791.8 4831.1 4782.3 4821.1 4782.3 4818 4772.8 4809.9 4766.9 4813 4776.4 4816.1 4766.9 4806.1 4766.9 4803 4776.4 4794.9 4782.3 4786.8 4776.4 4783.7 4766.9 4791.8 4772.8 4794.9 4782.3 4798 4791.8 4788 4791.8 4784.9 4801.3 4788 4810.8 4779.9 4804.9 4783 4814.5 4779.9 4824 4788 4818.1 4796.1 4824 4793 4814.5 4796.1 4824 4804.1 4818.1" clip-path="url(#a)" fill="none" stroke="#000" stroke-linecap="round"/>
<polyline points="4804.1 4818.1 4801.1 4827.6 4798 4837.1 4788 4837.1 4784.9 4846.6 4793 4840.7 4796.1 4850.2 4799.1 4840.7 4791.1 4834.9 4783 4840.7 4786.1 4831.2 4796.1 4831.2 4806.1 4831.2 4798 4825.3 4788 4825.3 4784.9 4834.9 4794.9 4834.9 4791.8 4844.4 4794.9 4853.9 4803 4859.8 4806.1 4850.2 4798 4856.1 4789.9 4862 4793 4871.5 4796.1 4881 4788 4875.1 4778 4875.1 4774.9 4865.6 4778 4875.1 4774.9 4865.6 4783 4871.5 4774.9 4877.4 4766.8 4883.3 4763.7 4892.8 4760.6 4902.3 4770.6 4902.3 4780.6 4902.3 4788.7 4908.2 4796.8 4902.3 4799.9 4911.8 4791.8 4917.7 4799.9 4923.6 4791.8 4917.7" clip-path="url(#a)" fill="none" stroke="#000" stroke-linecap="round"/>
<polyline points="4791.8 4917.7 4783.7 4911.8 4791.8 4917.7 4801.8 4917.7 4791.8 4917.7 4799.9 4923.6 4789.9 4923.6 4793 4933.1 4789.9 4942.6 4793 4952.1 4783 4952.1 4793 4952.1 4796.1 4942.6 4793 4952.1 4784.9 4946.2 4793 4940.3 4784.9 4934.5 4774.9 4934.5 4766.8 4928.6 4774.9 4934.5 4771.8 4944 4763.7 4938.1 4773.7 4938.1 4776.8 4928.6 4786.8 4928.6 4789.9 4938.1 4781.8 4932.2 4789.9 4938.1 4793 4947.6 4783 4947.6 4774.9 4941.7 4771.8 4951.2 4761.8 4951.2 4753.7 4957.1 4763.7 4957.1 4755.6 4951.2 4752.5 4960.7 4760.6 4966.6 4763.7 4976.1 4755.6 4982 4745.6 4982 4753.7 4976.1 4763.7 4976.1" clip-path="url(#a)" fill="none" stroke="#000" stroke-linecap="round"/>
<polyline points="4763.7 4976.1 4773.7 4976.1 4770.6 4985.6 4778.7 4991.5 4788.7 4991.5 4780.6 4997.4 4790.6 4997.4 4798.7 5003.3 4795.6 4993.8 4803.7 4987.9 4793.7 4987.9 4803.7 4987.9 4800.6 4978.4 4808.7 4984.3 4816.8 4990.1 4813.7 4999.6 4821.8 5005.5 4818.7 4996 4828.7 4996 4820.6 4990.1 4812.5 4996 4815.6 5005.5 4807.5 4999.6 4810.6 4990.1 4813.7 4980.6 4805.6 4986.5 4802.5 4996 4810.6 5001.9 4813.7 4992.4 4821.8 4998.3 4831.8 4998.3 4839.9 4992.4 4831.8 4986.5 4834.9 4996 4838 5005.5 4848 5005.5 4858 5005.5 4849.9 5011.4 4846.8 5020.9 4836.8 5020.9 4846.8 5020.9 4836.8 5020.9 4844.9 5015" clip-path="url(#a)" fill="none" stroke="#000" stroke-linecap="round"/>
<polyline points="4844.9 5015 4848 5024.5 4851.1 5034.1 4859.1 5039.9 4867.2 5045.8 4870.3 5036.3 4873.4 5026.8 4881.5 5020.9 4878.4 5011.4 4888.4 5011.4 4891.5 5020.9 4899.6 5015 4891.5 5020.9 4883.4 5026.8 4891.5 5020.9 4894.6 5011.4 4891.5 5020.9 4899.6 5015 4896.5 5024.5 4906.5 5024.5 4914.6 5030.4 4924.6 5030.4 4921.5 5039.9 4924.6 5030.4 4916.5 5024.5 4924.6 5030.4 4916.5 5036.3 4913.4 5026.8 4905.3 5032.7 4902.2 5042.2 4894.1 5048.1 4902.2 5042.2 4910.3 5048.1 4902.2 5053.9 4905.3 5044.4 4897.2 5038.5 4900.3 5029 4910.3 5029 4902.2 5034.9 4910.3 5029 4920.3 5029 4917.2 5038.5 4909.1 5044.4" clip-path="url(#a)" fill="none" stroke="#000" stroke-linecap="round"/>
<polyline points="4909.1 5044.4 4917.2 5050.3 4914.1 5059.8 4917.2 5069.3 4920.3 5059.8 4912.2 5065.7 4920.3 5071.6 4928.4 5065.7 4938.4 5065.7 4941.5 5075.2 4938.4 5084.7 4935.3 5075.2 4938.4 5065.7 4941.5 5056.2 4949.6 5062.1 4957.7 5056.2 4960.8 5046.7 4963.9 5056.2 4967 5046.7 4975 5040.8 4965 5040.8 4962 5031.3 4958.9 5040.8 4962 5031.3 4952 5031.3 4960 5025.4 4968.1 5019.5 4976.2 5025.4 4984.3 5019.5 4974.3 5019.5 4977.4 5010 4969.3 5015.9 4972.4 5025.4 4982.4 5025.4 4974.3 5031.3 4966.2 5025.4 4958.1 5019.5 4961.2 5029 4969.3 5034.9 4977.4 5029 4969.3 5023.2 4977.4 5017.3 4980.5 5007.8" clip-path="url(#a)" fill="none" stroke="#000" stroke-linecap="round"/>
<polyline points="4980.5 5007.8 4977.4 4998.3 4969.3 5004.1 4979.3 5004.1 4989.3 5004.1 4992.4 4994.6 4995.5 4985.1 4998.6 4994.6 5006.7 5000.5 5003.6 5010 5006.7 5000.5 5003.6 5010 5000.5 5000.5 5010.5 5000.5 5020.5 5000.5 5028.6 4994.6 5036.7 4988.7 5028.6 4982.9 5020.5 4977 5017.4 4967.5 5007.4 4967.5 5010.5 4958 5020.5 4958 5017.4 4948.5 5020.5 4958 5023.6 4967.5 5020.5 4958 5012.4 4952.1 5020.5 4958 5017.4 4948.5 5025.5 4954.3 5028.6 4944.8 5036.7 4938.9 5039.8 4929.4 5047.9 4935.3 5039.8 4929.4 5031.7 4935.3 5039.8 4929.4 5042.9 4938.9 5032.9 4938.9 5036 4948.5 5044 4954.3 5047.1 4963.8" clip-path="url(#a)" fill="none" stroke="#000" stroke-linecap="round"/>
<polyline points="5047.1 4963.8 5044 4954.3 5052.1 4948.5 5055.2 4958 5047.1 4952.1 5039 4958 5031 4952.1 5034 4942.6 5037.1 4952.1 5034 4942.6 5037.1 4933.1 5045.2 4938.9 5048.3 4948.5 5056.4 4942.6 5064.5 4948.5 5074.5 4948.5 5066.4 4942.6 5069.5 4952.1 5077.6 4946.2 5074.5 4936.7 5077.6 4927.2 5087.6 4927.2 5095.7 4933.1 5085.7 4933.1 5077.6 4927.2 5069.5 4921.3 5077.6 4915.4 5074.5 4905.9 5066.4 4900 5076.4 4900 5068.3 4894.2 5065.2 4884.7 5062.1 4894.2 5052.1 4894.2 5060.2 4900 5052.1 4894.2 5049 4903.7 5046 4894.2 5042.9 4884.7 5051 4878.8 5047.9 4869.3 5044.8 4878.8 5036.7 4872.9" clip-path="url(#a)" fill="none" stroke="#000" stroke-linecap="round"/>
<polyline points="5036.7 4872.9 5039.8 4882.4 5049.8 4882.4 5052.9 4872.9 5056 4882.4 5047.9 4888.3 5039.8 4894.2 5049.8 4894.2 5057.9 4888.3 5054.8 4878.8 5046.7 4884.7 5043.6 4875.1 5035.5 4869.3 5025.5 4869.3 5028.6 4878.8 5031.7 4869.3 5034.8 4859.8 5026.7 4853.9 5018.6 4848 5028.6 4848 5036.7 4842.1 5044.8 4848 5036.7 4842.1 5044.8 4848 5034.8 4848 5037.9 4838.5 5041 4829 5037.9 4819.5 5034.8 4810 5026.7 4815.8 5018.6 4821.7 5008.6 4821.7 5005.5 4831.2 4997.4 4825.3 5000.5 4815.8 4990.5 4815.8 5000.5 4815.8 5010.5 4815.8 5000.5 4815.8 4992.4 4821.7 5000.5 4815.8 4990.5 4815.8 4998.6 4810" clip-path="url(#a)" fill="none" stroke="#000" stroke-linecap="round"/>
<polyline points="4998.6 4810 4990.5 4804.1 4987.4 4794.6 4979.3 4788.7 4987.4 4782.8 4979.3 4788.7 4982.4 4798.2 4979.3 4788.7 4989.3 4788.7 4986.2 4798.2 4996.2 4798.2 5004.3 4792.3 5014.3 4792.3 5004.3 4792.3 5001.2 4782.8 5011.2 4782.8 5003.1 4788.7 5006.2 4798.2 4998.1 4804.1 4990 4798.2 5e3 4798.2 4990 4798.2 4982 4792.3 4990 4786.4 5e3 4786.4 4997 4776.9 5005 4771.1 5008.1 4761.6 5e3 4767.4 5010 4767.4 5007 4757.9 4997 4757.9 4988.9 4752 4992 4742.5 5e3 4736.7 4997 4746.2 4988.9 4752 4980.8 4757.9 4977.7 4748.4 4967.7 4748.4 4959.6 4754.3 4962.7 4744.8 4954.6 4750.7" clip-path="url(#a)" fill="none" stroke="#000" stroke-linecap="round"/>
<polyline points="4954.6 4750.7 4944.6 4750.7 4952.7 4756.5 4949.6 4766 4957.7 4760.2 4949.6 4766 4957.7 4771.9 4947.7 4771.9 4937.7 4771.9 4934.6 4762.4 4924.6 4762.4 4932.7 4768.3 4924.6 4774.2 4934.6 4774.2 4937.7 4764.7 4929.6 4758.8 4939.6 4758.8 4942.7 4768.3 4945.8 4777.8 4948.9 4768.3 4945.8 4758.8 4935.8 4758.8 4938.9 4768.3 4928.9 4768.3 4920.8 4774.2 4917.7 4783.7 4927.7 4783.7 4919.6 4777.8 4911.5 4771.9 4903.4 4777.8 4895.3 4783.7 4898.4 4774.2 4895.3 4764.7 4903.4 4758.8 4895.3 4764.7 4903.4 4758.8 4900.3 4768.3 4892.2 4762.4 4884.1 4756.5 4874.1 4756.5 4864.1 4756.5 4867.2 4766 4870.3 4775.6" clip-path="url(#a)" fill="none" stroke="#000" stroke-linecap="round"/>
<polyline points="4870.3 4775.6 4867.2 4785.1 4875.3 4790.9 4867.2 4796.8 4859.1 4790.9 4856.1 4800.5 4859.1 4790.9 4862.2 4781.4 4859.1 4790.9 4862.2 4800.5 4859.1 4790.9 4856.1 4800.5 4853 4790.9 4844.9 4796.8 4834.9 4796.8 4826.8 4802.7 4823.7 4793.2 4826.8 4802.7 4836.8 4802.7 4826.8 4802.7 4829.9 4793.2 4838 4799.1 4841.1 4789.6 4838 4780 4841.1 4770.5 4838 4780 4828 4780 4831.1 4770.5 4834.1 4780 4844.1 4780 4847.2 4789.6 4839.1 4795.4 4842.2 4785.9 4839.1 4795.4 4831.1 4801.3 4828 4791.8 4831.1 4782.3 4821.1 4782.3 4818 4772.8 4809.9 4766.9 4813 4776.4 4816.1 4766.9 4806.1 4766.9" clip-path="url(#a)" fill="none" stroke="#000" stroke-linecap="round"/>
<polyline points="4806.1 4766.9 4803 4776.4 4794.9 4782.3 4786.8 4776.4 4783.7 4766.9 4791.8 4772.8 4794.9 4782.3 4798 4791.8 4788 4791.8 4784.9 4801.3 4788 4810.8 4779.9 4804.9 4783 4814.5 4779.9 4824 4788 4818.1 4796.1 4824 4793 4814.5 4796.1 4824 4804.1 4818.1 4801.1 4827.6 4798 4837.1 4788 4837.1 4784.9 4846.6 4793 4840.7 4796.1 4850.2 4799.1 4840.7 4791.1 4834.9 4783 4840.7 4786.1 4831.2 4796.1 4831.2 4806.1 4831.2 4798 4825.3 4788 4825.3 4784.9 4834.9 4794.9 4834.9 4791.8 4844.4 4794.9 4853.9 4803 4859.8 4806.1 4850.2 4798 4856.1 4789.9 4862 4793 4871.5 4796.1 4881" clip-path="url(#a)" fill="none" stroke="#000" stroke-linecap="round"/>
<polyline points="4796.1 4881 4788 4875.1 4778 4875.1 4774.9 4865.6 4778 4875.1 4774.9 4865.6 4783 4871.5 4774.9 4877.4 4766.8 4883.3 4763.7 4892.8 4760.6 4902.3 4770.6 4902.3 4780.6 4902.3 4788.7 4908.2 4796.8 4902.3 4799.9 4911.8 4791.8 4917.7 4799.9 4923.6 4791.8 4917.7 4783.7 4911.8 4791.8 4917.7 4801.8 4917.7 4791.8 4917.7 4799.9 4923.6 4789.9 4923.6 4793 4933.1 4789.9 4942.6 4793 4952.1 4783 4952.1 4793 4952.1 4796.1 4942.6 4793 4952.1 4784.9 4946.2 4793 4940.3 4784.9 4934.5 4774.9 4934.5 4766.8 4928.6 4774.9 4934.5 4771.8 4944 4763.7 4938.1 4773.7 4938.1 4776.8 4928.6 4786.8 4928.6" clip-path="url(#a)" fill="none" stroke="#000" stroke-linecap="round"/>
<polyline points="4786.8 4928.6 4789.9 4938.1 4781.8 4932.2 4789.9 4938.1 4793 4947.6 4783 4947.6 4774.9 4941.7 4771.8 4951.2 4761.8 4951.2 4753.7 4957.1 4763.7 4957.1 4755.6 4951.2 4752.5 4960.7 4760.6 4966.6 4763.7 4976.1 4755.6 4982 4745.6 4982 4753.7 4976.1 4763.7 4976.1 4773.7 4976.1 4770.6 4985.6 4778.7 4991.5 4788.7 4991.5 4780.6 4997.4 4790.6 4997.4 4798.7 5003.3 4795.6 4993.8 4803.7 4987.9 4793.7 4987.9 4803.7 4987.9 4800.6 4978.4 4808.7 4984.3 4816.8 4990.1 4813.7 4999.6 4821.8 5005.5 4818.7 4996 4828.7 4996 4820.6 4990.1 4812.5 4996 4815.6 5005.5 4807.5 4999.6 4810.6 4990.1 4813.7 4980.6" clip-path="url(#a)" fill="none" stroke="#000" stroke-linecap="round"/>
<polyline points="4813.7 4980.6 4805.6 4986.5 4802.5 4996 4810.6 5001.9 4813.7 4992.4 4821.8 4998.3 4831.8 4998.3 4839.9 4992.4 4831.8 4986.5 4834.9 4996 4838 5005.5 4848 5005.5 4858 5005.5 4849.9 5011.4 4846.8 5020.9 4836.8 5020.9 4846.8 5020.9 4836.8 5020.9 4844.9 5015 4848 5024.5 4851.1 5034.1 4859.1 5039.9 4867.2 5045.8 4870.3 5036.3 4873.4 5026.8 4881.5 5020.9 4878.4 5011.4 4888.4 5011.4 4891.5 5020.9 4899.6 5015 4891.5 5020.9 4883.4 5026.8 4891.5 5020.9 4894.6 5011.4 4891.5 5020.9 4899.6 5015 4896.5 5024.5 4906.5 5024.5 4914.6 5030.4 4924.6 5030.4 4921.5 5039.9 4924.6 5030.4 4916.5 5024.5" clip-path="url(#a)" fill="none" stroke="#000" stroke-linecap="round"/>
<polyline points="4916.5 5024.5 4924.6 5030.4 4916.5 5036.3 4913.4 5026.8 4905.3 5032.7 4902.2 5042.2 4894.1 5048.1 4902.2 5042.2 4910.3 5048.1 4902.2 5053.9 4905.3 5044.4 4897.2 5038.5 4900.3 5029 4910.3 5029 4902.2 5034.9 4910.3 5029 4920.3 5029 4917.2 5038.5 4909.1 5044.4 4917.2 5050.3 4914.1 5059.8 4917.2 5069.3 4920.3 5059.8 4912.2 5065.7 4920.3 5071.6 4928.4 5065.7 4938.4 5065.7 4941.5 5075.2 4938.4 5084.7 4935.3 5075.2 4938.4 5065.7 4941.5 5056.2 4949.6 5062.1 4957.7 5056.2 4960.8 5046.7 4963.9 5056.2 4967 5046.7 4975 5040.8 4965 5040.8 4962 5031.3 4958.9 5040.8 4962 5031.3 4952 5031.3" clip-path="url(#a)" fill="none" stroke="#000" stroke-linecap="round"/>
<polyline points="4952 5031.3 4960 5025.4 4968.1 5019.5 4976.2 5025.4 4984.3 5019.5 4974.3 5019.5 4977.4 5010 4969.3 5015.9 4972.4 5025.4 4982.4 5025.4 4974.3 5031.3 4966.2 5025.4 4958.1 5019.5 4961.2 5029 4969.3 5034.9 4977.4 5029 4969.3 5023.2 4977.4 5017.3 4980.5 5007.8 4977.4 4998.3 4969.3 5004.1 4979.3 5004.1 4989.3 5004.1 4992.4 4994.6 4995.5 4985.1 4998.6 4994.6 5006.7 5000.5 5003.6 5010 5006.7 5000.5 5003.6 5010 5000.5 5000.5" clip-path="url(#a)" fill="none" stroke="#000" stroke-linecap="round"/>
</svg>
