<?xml version="1.0" encoding="utf-8" ?>
<svg baseProfile="full" height="10000px" version="1.1" width="10000px" xmlns="http://www.w3.org/2000/svg" xmlns:ev="http://www.w3.org/2001/xml-events" xmlns:xlink="http://www.w3.org/1999/xlink"><defs><clipPath id="border_clip"><rect height="10000" width="10000" x="0" y="0" /></clipPath></defs><polyline clip-path="url(#border_clip)" fill="none" points="5000.5,5000.5 5010.5,5000.5 5020.5,5000.5 5028.590169943749,4994.6221474770755 5036.680339887499,4988.744294954151 5028.590169943749,4982.866442431226 5020.5,4976.988589908301 5017.409830056251,4967.478024745349 5007.409830056251,4967.478024745349 5010.5,4957.967459582398 5020.5,4957.967459582398 5017.409830056251,4948.456894419446 5020.5,4957.967459582398 5023.590169943749,4967.478024745349 5020.5,4957.967459582398 5012.409830056251,4952.089607059474 5020.5,4957.967459582398 5017.409830056251,4948.456894419446 5025.5,4954.334746942372 5028.590169943749,4944.82418177942 5036.680339887499,4938.946329256495 5039.770509831248,4929.435764093543 5047.860679774998,4935.313616616469 5039.770509831248,4929.435764093543 5031.680339887499,4935.313616616468 5039.770509831248,4929.435764093543 5042.860679774998,4938.946329256495 5032.860679774998,4938.946329256495 5035.950849718747,4948.456894419446 5044.041019662497,4954.334746942372 5047.131189606246,4963.845312105323 5044.041019662497,4954.334746942372 5052.131189606246,4948.456894419446 5055.221359549996,4957.967459582398 5047.131189606246,4952.089607059474 5039.041019662497,4957.967459582398 5030.950849718747,4952.089607059474 5034.041019662497,4942.579041896522 5037.131189606246,4952.089607059474 5034.041019662497,4942.579041896522 5037.131189606246,4933.068476733571 5045.221359549996,4938.946329256495 5048.311529493745,4948.456894419446" stroke="black" stroke-linecap="round" stroke-width="1" /><polyline clip-path="url(#border_clip)" fill="none" points="5048.311529493745,4948.456894419446 5056.401699437495,4942.579041896522 5064.491869381244,4948.456894419447 5074.491869381244,4948.456894419447 5066.401699437495,4942.579041896522 5069.491869381244,4952.089607059474 5077.582039324994,4946.211754536549 5074.491869381244,4936.701189373597 5077.582039324994,4927.190624210646 5087.582039324994,4927.190624210646 5095.672209268743,4933.068476733571 5085.672209268743,4933.068476733571 5077.582039324994,4927.190624210646 5069.491869381244,4921.312771687721 5077.582039324994,4915.434919164796 5074.491869381244,4905.924354001844 5066.401699437495,4900.04650147892 5076.401699437495,4900.04650147892 5068.311529493746,4894.168648955995 5065.221359549996,4884.658083793043 5062.131189606247,4894.168648955995 5052.131189606247,4894.168648955995 5060.221359549996,4900.04650147892 5052.131189606247,4894.168648955995 5049.041019662497,4903.679214118946 5045.950849718748,4894.168648955995 5042.860679774998,4884.658083793043 5050.950849718748,4878.780231270119 5047.860679774998,4869.269666107167 5044.770509831249,4878.780231270119 5036.6803398875,4872.902378747194 5039.770509831249,4882.412943910145 5049.770509831249,4882.412943910145 5052.860679774998,4872.902378747194 5055.950849718748,4882.412943910145 5047.860679774998,4888.29079643307 5039.770509831249,4894.168648955995 5049.770509831249,4894.168648955995 5057.860679774998,4888.290796433071 5054.770509831249,4878.780231270119 5046.680339887499,4884.658083793043 5043.59016994375,4875.147518630091 5035.500000000001,4869.269666107167" stroke="black" stroke-linecap="round" stroke-width="1" /><polyline clip-path="url(#border_clip)" fill="none" points="5035.500000000001,4869.269666107167 5025.500000000001,4869.269666107167 5028.59016994375,4878.780231270119 5031.6803398875,4869.269666107167 5034.770509831249,4859.759100944216 5026.6803398875,4853.88124842129 5018.59016994375,4848.003395898366 5028.59016994375,4848.003395898366 5036.6803398875,4842.125543375441 5044.770509831249,4848.003395898366 5036.6803398875,4842.125543375441 5044.770509831249,4848.003395898366 5034.770509831249,4848.003395898366 5037.860679774999,4838.492830735415 5040.950849718748,4828.982265572463 5037.860679774999,4819.471700409511 5034.77050983125,4809.96113524656 5026.6803398875,4815.838987769484 5018.590169943751,4821.716840292409 5008.590169943751,4821.716840292409 5005.500000000001,4831.22740545536 4997.409830056252,4825.3495529324355 5000.500000000001,4815.838987769484 4990.500000000001,4815.8389877694835 5000.500000000001,4815.838987769484 5010.500000000001,4815.838987769484 5000.500000000001,4815.838987769484 4992.409830056252,4821.716840292409 5000.500000000001,4815.838987769484 4990.500000000001,4815.8389877694835 4998.590169943751,4809.961135246559 4990.500000000001,4804.0832827236345 4987.409830056252,4794.572717560683 4979.319660112503,4788.694865037758 4987.409830056252,4782.817012514834 4979.319660112503,4788.694865037758 4982.409830056252,4798.20543020071 4979.319660112503,4788.694865037758 4989.319660112503,4788.694865037758 4986.229490168753,4798.20543020071 4996.229490168753,4798.20543020071 5004.319660112503,4792.3275776777855 5014.319660112503,4792.3275776777855" stroke="black" stroke-linecap="round" stroke-width="1" /><polyline clip-path="url(#border_clip)" fill="none" points="5014.319660112503,4792.3275776777855 5004.319660112503,4792.3275776777855 5001.229490168753,4782.817012514834 5011.229490168753,4782.817012514834 5003.139320225004,4788.694865037758 5006.229490168753,4798.20543020071 4998.139320225004,4804.0832827236345 4990.049150281254,4798.20543020071 5000.049150281254,4798.20543020071 4990.049150281254,4798.20543020071 4981.958980337505,4792.327577677785 4990.049150281254,4786.44972515486 5000.049150281254,4786.44972515486 4996.958980337505,4776.939159991909 5005.049150281255,4771.0613074689845 5008.139320225004,4761.550742306033 5000.049150281255,4767.428594828957 5010.049150281255,4767.428594828957 5006.958980337505,4757.918029666006 4996.958980337505,4757.918029666006 4988.868810393756,4752.040177143081 4991.958980337506,4742.52961198013 5000.049150281255,4736.651759457205 4996.958980337506,4746.162324620156 4988.868810393756,4752.040177143081 4980.778640450006,4757.918029666005 4977.688470506257,4748.407464503054 4967.688470506257,4748.407464503054 4959.598300562508,4754.285317025979 4962.688470506257,4744.774751863027 4954.598300562508,4750.652604385951 4944.598300562508,4750.652604385951 4952.688470506257,4756.530456908876 4949.598300562507,4766.041022071828 4957.688470506257,4760.163169548903 4949.598300562507,4766.041022071828 4957.688470506257,4771.918874594752 4947.688470506257,4771.918874594752 4937.688470506257,4771.918874594752 4934.598300562507,4762.4083094318 4924.598300562507,4762.4083094318 4932.688470506257,4768.286161954725 4924.598300562507,4774.16401447765" stroke="black" stroke-linecap="round" stroke-width="1" /><polyline clip-path="url(#border_clip)" fill="none" points="4924.598300562507,4774.16401447765 4934.598300562507,4774.16401447765 4937.688470506257,4764.653449314698 4929.598300562507,4758.775596791774 4939.598300562507,4758.775596791774 4942.688470506257,4768.286161954726 4945.778640450006,4777.796727117677 4948.868810393756,4768.286161954726 4945.778640450006,4758.775596791774 4935.778640450006,4758.775596791774 4938.868810393756,4768.286161954726 4928.868810393756,4768.286161954725 4920.778640450006,4774.164014477649 4917.688470506256,4783.674579640601 4927.688470506256,4783.674579640601 4919.598300562507,4777.796727117677 4911.508130618758,4771.918874594751 4903.417960675008,4777.796727117676 4895.327790731258,4783.6745796406 4898.417960675008,4774.164014477649 4895.327790731259,4764.653449314697 4903.4179606750085,4758.775596791773 4895.327790731259,4764.653449314697 4903.4179606750085,4758.775596791773 4900.327790731259,4768.286161954725 4892.2376207875095,4762.408309431799 4884.1474508437595,4756.530456908875 4874.1474508437595,4756.530456908874 4864.1474508437595,4756.530456908874 4867.237620787509,4766.041022071826 4870.327790731259,4775.551587234778 4867.237620787509,4785.062152397729 4875.327790731258,4790.940004920654 4867.237620787509,4796.817857443579 4859.147450843759,4790.940004920653 4856.05728090001,4800.450570083605 4859.147450843759,4790.940004920653 4862.237620787509,4781.429439757702 4859.147450843759,4790.940004920653 4862.237620787508,4800.450570083605 4859.147450843759,4790.940004920653 4856.05728090001,4800.450570083605 4852.96711095626,4790.940004920653" stroke="black" stroke-linecap="round" stroke-width="1" /><polyline clip-path="url(#border_clip)" fill="none" points="4852.96711095626,4790.940004920653 4844.8769410125105,4796.817857443578 4834.8769410125105,4796.817857443578 4826.786771068761,4802.695709966502 4823.6966011250115,4793.18514480355 4826.786771068761,4802.695709966502 4836.786771068761,4802.695709966502 4826.786771068761,4802.695709966502 4829.8769410125105,4793.18514480355 4837.96711095626,4799.062997326476 4841.05728090001,4789.552432163524 4837.9671109562605,4780.041867000572 4841.05728090001,4770.531301837621 4837.9671109562605,4780.041867000572 4827.9671109562605,4780.041867000572 4831.05728090001,4770.531301837621 4834.147450843759,4780.041867000572 4844.147450843759,4780.041867000573 4847.237620787509,4789.552432163524 4839.147450843759,4795.430284686448 4842.237620787509,4785.919719523497 4839.147450843759,4795.430284686448 4831.057280900009,4801.308137209373 4827.96711095626,4791.797572046422 4831.05728090001,4782.28700688347 4821.05728090001,4782.28700688347 4817.9671109562605,4772.776441720518 4809.8769410125105,4766.8985891975935 4812.9671109562605,4776.409154360545 4816.05728090001,4766.8985891975935 4806.05728090001,4766.8985891975935 4802.9671109562605,4776.409154360545 4794.8769410125105,4782.287006883469 4786.7867710687615,4776.409154360545 4783.6966011250115,4766.898589197593 4791.7867710687615,4772.776441720517 4794.8769410125105,4782.287006883469 4797.96711095626,4791.797572046421 4787.96711095626,4791.79757204642 4784.87694101251,4801.308137209372 4787.967110956259,4810.818702372324 4779.87694101251,4804.940849849399 4782.967110956259,4814.4514150123505" stroke="black" stroke-linecap="round" stroke-width="1" /><polyline clip-path="url(#border_clip)" fill="none" points="4782.967110956259,4814.4514150123505 4779.87694101251,4823.9619801753015 4787.967110956259,4818.084127652377 4796.057280900008,4823.961980175302 4792.967110956259,4814.4514150123505 4796.057280900008,4823.961980175302 4804.147450843758,4818.084127652378 4801.057280900008,4827.594692815329 4797.967110956259,4837.105257978281 4787.967110956259,4837.10525797828 4784.876941012509,4846.615823141232 4792.967110956258,4840.737970618307 4796.057280900008,4850.248535781259 4799.147450843757,4840.737970618307 4791.057280900008,4834.860118095383 4782.967110956258,4840.737970618307 4786.057280900008,4831.227405455355 4796.057280900008,4831.227405455355 4806.057280900008,4831.227405455356 4797.967110956259,4825.349552932431 4787.967110956259,4825.349552932431 4784.876941012509,4834.860118095382 4794.876941012509,4834.860118095383 4791.786771068759,4844.370683258334 4794.876941012508,4853.881248421286 4802.967110956258,4859.759100944211 4806.057280900008,4850.248535781259 4797.967110956258,4856.126388304184 4789.876941012508,4862.004240827108 4792.967110956257,4871.51480599006 4796.057280900006,4881.025371153011 4787.967110956257,4875.147518630087 4777.967110956257,4875.147518630087 4774.876941012508,4865.636953467135 4777.967110956257,4875.147518630087 4774.876941012508,4865.636953467135 4782.967110956257,4871.514805990059 4774.876941012508,4877.392658512984 4766.786771068758,4883.270511035908 4763.696601125008,4892.78107619886 4760.606431181258,4902.291641361811 4770.606431181258,4902.291641361812 4780.606431181258,4902.291641361812" stroke="black" stroke-linecap="round" stroke-width="1" /><polyline clip-path="url(#border_clip)" fill="none" points="4780.606431181258,4902.291641361812 4788.696601125008,4908.169493884738 4796.786771068757,4902.291641361813 4799.876941012506,4911.802206524764 4791.786771068757,4917.680059047689 4799.876941012506,4923.557911570614 4791.786771068757,4917.680059047689 4783.696601125007,4911.802206524764 4791.786771068757,4917.680059047689 4801.786771068757,4917.68005904769 4791.786771068757,4917.680059047689 4799.876941012506,4923.557911570614 4789.876941012506,4923.557911570613 4792.967110956255,4933.068476733565 4789.876941012505,4942.579041896517 4792.967110956254,4952.089607059468 4782.967110956254,4952.089607059468 4792.967110956254,4952.089607059468 4796.057280900004,4942.579041896517 4792.967110956254,4952.089607059468 4784.876941012505,4946.211754536544 4792.967110956255,4940.333902013619 4784.876941012505,4934.456049490694 4774.876941012505,4934.456049490694 4766.786771068756,4928.578196967768 4774.876941012505,4934.456049490694 4771.786771068756,4943.966614653645 4763.696601125006,4938.08876213072 4773.696601125006,4938.08876213072 4776.786771068756,4928.578196967769 4786.786771068756,4928.578196967769 4789.876941012505,4938.088762130721 4781.786771068756,4932.210909607796 4789.876941012505,4938.088762130721 4792.967110956254,4947.599327293673 4782.967110956254,4947.599327293672 4774.876941012505,4941.721474770748 4771.786771068755,4951.232039933699 4761.786771068755,4951.232039933699 4753.696601125005,4957.109892456623 4763.696601125006,4957.109892456623 4755.606431181256,4951.232039933698 4752.516261237506,4960.74260509665" stroke="black" stroke-linecap="round" stroke-width="1" /><polyline clip-path="url(#border_clip)" fill="none" points="4752.516261237506,4960.74260509665 4760.606431181256,4966.620457619574 4763.696601125005,4976.131022782526 4755.606431181255,4982.008875305451 4745.606431181255,4982.008875305451 4753.696601125005,4976.131022782526 4763.696601125005,4976.131022782526 4773.696601125005,4976.131022782527 4770.606431181255,4985.641587945478 4778.696601125004,4991.519440468403 4788.696601125004,4991.519440468403 4780.606431181254,4997.397292991328 4790.606431181254,4997.397292991329 4798.696601125004,5003.275145514253 4795.606431181255,4993.764580351301 4803.696601125004,4987.886727828378 4793.696601125004,4987.886727828377 4803.696601125004,4987.886727828378 4800.606431181255,4978.376162665426 4808.696601125005,4984.25401518835 4816.786771068754,4990.131867711276 4813.696601125004,4999.642432874228 4821.786771068753,5005.520285397152 4818.696601125004,4996.0097202342 4828.696601125004,4996.009720234201 4820.606431181255,4990.131867711276 4812.516261237505,4996.0097202342 4815.606431181254,5005.520285397152 4807.516261237505,4999.642432874227 4810.606431181255,4990.131867711276 4813.696601125005,4980.621302548324 4805.606431181255,4986.499155071248 4802.516261237505,4996.0097202342 4810.606431181254,5001.887572757125 4813.696601125004,4992.377007594174 4821.786771068753,4998.254860117099 4831.786771068754,4998.254860117099 4839.876941012503,4992.377007594175 4831.786771068754,4986.499155071249 4834.876941012503,4996.009720234201 4837.967110956252,5005.520285397153 4847.967110956252,5005.520285397153 4857.967110956252,5005.520285397154" stroke="black" stroke-linecap="round" stroke-width="1" /><polyline clip-path="url(#border_clip)" fill="none" points="4857.967110956252,5005.520285397154 4849.876941012502,5011.398137920079 4846.786771068753,5020.90870308303 4836.786771068752,5020.90870308303 4846.786771068753,5020.90870308303 4836.786771068752,5020.90870308303 4844.876941012502,5015.030850560105 4847.967110956251,5024.541415723057 4851.0572809000005,5034.051980886008 4859.1474508437495,5039.9298334089335 4867.2376207874995,5045.807685931859 4870.3277907312495,5036.297120768907 4873.417960674999,5026.786555605956 4881.5081306187485,5020.9087030830315 4878.417960674999,5011.3981379200795 4888.417960674999,5011.39813792008 4891.5081306187485,5020.908703083032 4899.5983005624985,5015.030850560108 4891.5081306187485,5020.908703083032 4883.417960674999,5026.786555605956 4891.5081306187485,5020.908703083032 4894.5983005624985,5011.39813792008 4891.5081306187485,5020.908703083032 4899.5983005624985,5015.030850560108 4896.5081306187485,5024.541415723059 4906.5081306187485,5024.54141572306 4914.5983005624985,5030.419268245984 4924.5983005624985,5030.419268245985 4921.5081306187485,5039.929833408936 4924.5983005624985,5030.419268245985 4916.5081306187485,5024.54141572306 4924.5983005624985,5030.419268245985 4916.5081306187485,5036.29712076891 4913.417960674999,5026.786555605958 4905.3277907312495,5032.664408128882 4902.2376207874995,5042.174973291833 4894.1474508437495,5048.052825814758 4902.2376207874995,5042.174973291833 4910.327790731249,5048.052825814759 4902.237620787499,5053.930678337683 4905.327790731249,5044.420113174731 4897.2376207874995,5038.542260651807 4900.3277907312495,5029.031695488855" stroke="black" stroke-linecap="round" stroke-width="1" /><polyline clip-path="url(#border_clip)" fill="none" points="4900.3277907312495,5029.031695488855 4910.3277907312495,5029.031695488856 4902.2376207874995,5034.90954801178 4910.3277907312495,5029.031695488856 4920.3277907312495,5029.031695488856 4917.2376207874995,5038.542260651808 4909.1474508437495,5044.420113174732 4917.2376207874995,5050.297965697657 4914.1474508437495,5059.808530860609 4917.237620787499,5069.319096023561 4920.327790731249,5059.808530860609 4912.237620787499,5065.686383383533 4920.327790731248,5071.564235906459 4928.417960674998,5065.686383383534 4938.417960674998,5065.686383383534 4941.508130618747,5075.196948546486 4938.417960674997,5084.707513709438 4935.327790731248,5075.196948546486 4938.417960674998,5065.686383383534 4941.508130618748,5056.175818220583 4949.598300562497,5062.0536707435085 4957.688470506247,5056.175818220584 4960.778640449997,5046.665253057632 4963.868810393746,5056.175818220584 4966.958980337496,5046.665253057633 4975.049150281246,5040.7874005347085 4965.049150281246,5040.787400534708 4961.9589803374965,5031.2768353717565 4958.868810393747,5040.787400534708 4961.9589803374965,5031.2768353717565 4951.9589803374965,5031.276835371756 4960.0491502812465,5025.398982848831 4968.139320224996,5019.521130325907 4976.2294901687455,5025.398982848832 4984.319660112495,5019.5211303259075 4974.319660112495,5019.5211303259075 4977.409830056245,5010.010565162956 4969.3196601124955,5015.88841768588 4972.409830056244,5025.398982848832 4982.409830056245,5025.398982848832 4974.319660112495,5031.2768353717565 4966.2294901687455,5025.398982848831 4958.139320224996,5019.521130325907" stroke="black" stroke-linecap="round" stroke-width="1" /><polyline clip-path="url(#border_clip)" fill="none" points="4958.139320224996,5019.521130325907 4961.229490168745,5029.0316954888585 4969.319660112494,5034.909548011783 4977.409830056244,5029.0316954888585 4969.319660112495,5023.153842965934 4977.409830056245,5017.2759904430095 4980.4999999999945,5007.765425280058 4977.4098300562455,4998.254860117107 4969.3196601124955,5004.13271264003 4979.3196601124955,5004.132712640031 4989.3196601124955,5004.132712640032 4992.409830056246,4994.62214747708 4995.499999999996,4985.111582314129 4998.5901699437445,4994.622147477081 5006.6803398874945,5000.5000000000055 5003.5901699437445,5010.010565162957 5006.6803398874945,5000.5000000000055 5003.5901699437445,5010.010565162957 5000.499999999995,5000.5000000000055 5010.499999999995,5000.500000000006 5020.499999999995,5000.500000000006 5028.590169943745,4994.622147477082 5036.680339887495,4988.744294954158 5028.590169943745,4982.866442431233 5020.499999999996,4976.988589908307 5017.409830056247,4967.4780247453555 5007.409830056247,4967.4780247453555 5010.499999999997,4957.9674595824035 5020.499999999997,4957.967459582404 5017.409830056249,4948.4568944194525 5020.499999999997,4957.967459582404 5023.590169943746,4967.478024745356 5020.499999999997,4957.967459582404 5012.409830056248,4952.089607059479 5020.499999999997,4957.967459582404 5017.409830056249,4948.4568944194525 5025.499999999998,4954.334746942378 5028.590169943748,4944.824181779426 5036.680339887498,4938.946329256502 5039.770509831248,4929.4357640935505 5047.860679774997,4935.313616616476 5039.770509831248,4929.4357640935505 5031.680339887498,4935.313616616475" stroke="black" stroke-linecap="round" stroke-width="1" /><polyline clip-path="url(#border_clip)" fill="none" points="5031.680339887498,4935.313616616475 5039.770509831248,4929.4357640935505 5042.860679774997,4938.946329256502 5032.860679774997,4938.9463292565015 5035.950849718745,4948.456894419453 5044.041019662495,4954.334746942379 5047.131189606244,4963.845312105331 5044.041019662495,4954.334746942379 5052.131189606245,4948.456894419454 5055.221359549993,4957.967459582406 5047.131189606244,4952.089607059481 5039.041019662494,4957.967459582405 5030.950849718745,4952.08960705948 5034.041019662495,4942.579041896529 5037.131189606244,4952.089607059481 5034.041019662495,4942.579041896529 5037.131189606245,4933.068476733577 5045.221359549995,4938.946329256502 5048.311529493743,4948.456894419454 5056.401699437493,4942.57904189653 5064.491869381243,4948.456894419455 5074.491869381243,4948.456894419456 5066.401699437493,4942.579041896531 5069.491869381242,4952.089607059483 5077.582039324992,4946.211754536558 5074.491869381243,4936.701189373606 5077.582039324994,4927.190624210655 5087.582039324994,4927.190624210655 5095.672209268743,4933.068476733581 5085.672209268743,4933.068476733581 5077.582039324994,4927.190624210655 5069.491869381244,4921.31277168773 5077.582039324994,4915.434919164805 5074.491869381246,4905.924354001853 5066.401699437496,4900.046501478928 5076.401699437497,4900.046501478929 5068.311529493747,4894.168648956003 5065.221359549999,4884.658083793051 5062.131189606248,4894.168648956003 5052.131189606248,4894.1686489560025 5060.221359549997,4900.046501478928 5052.131189606248,4894.1686489560025 5049.041019662498,4903.679214118954" stroke="black" stroke-linecap="round" stroke-width="1" /><polyline clip-path="url(#border_clip)" fill="none" points="5049.041019662498,4903.679214118954 5045.950849718749,4894.1686489560025 5042.860679775001,4884.6580837930505 5050.950849718751,4878.780231270126 5047.860679775002,4869.269666107174 5044.770509831252,4878.780231270126 5036.680339887502,4872.902378747201 5039.770509831251,4882.4129439101525 5049.770509831251,4882.4129439101525 5052.860679775001,4872.9023787472015 5055.95084971875,4882.412943910153 5047.860679775,4888.290796433077 5039.77050983125,4894.168648956002 5049.77050983125,4894.1686489560025 5057.860679775,4888.290796433078 5054.770509831252,4878.780231270126 5046.680339887502,4884.6580837930505 5043.590169943753,4875.147518630099 5035.500000000004,4869.269666107173 5025.500000000004,4869.269666107173 5028.590169943752,4878.780231270124 5031.680339887503,4869.269666107173 5034.770509831253,4859.759100944222 5026.680339887504,4853.881248421297 5018.5901699437545,4848.003395898371 5028.5901699437545,4848.003395898371 5036.6803398875045,4842.125543375448 5044.770509831254,4848.003395898373 5036.6803398875045,4842.125543375448 5044.770509831254,4848.003395898373 5034.770509831254,4848.003395898372 5037.8606797750035,4838.49283073542 5040.9508497187535,4828.982265572469 5037.860679775004,4819.471700409517 5034.770509831256,4809.961135246565 5026.680339887506,4815.83898776949 5018.590169943756,4821.716840292414 5008.590169943755,4821.7168402924135 5005.5000000000055,4831.2274054553645 4997.409830056256,4825.349552932439 5000.500000000006,4815.838987769488 4990.500000000006,4815.838987769487 5000.500000000006,4815.838987769488" stroke="black" stroke-linecap="round" stroke-width="1" /><polyline clip-path="url(#border_clip)" fill="none" points="5000.500000000006,4815.838987769488 5010.500000000006,4815.838987769489 5000.500000000006,4815.838987769488 4992.409830056256,4821.716840292413 5000.500000000006,4815.838987769488 4990.500000000006,4815.838987769487 4998.590169943756,4809.961135246564 4990.500000000007,4804.083282723638 4987.409830056258,4794.572717560686 4979.319660112509,4788.694865037761 4987.409830056259,4782.817012514836 4979.319660112509,4788.694865037761 4982.409830056258,4798.205430200713 4979.319660112509,4788.694865037761 4989.319660112509,4788.694865037762 4986.229490168759,4798.205430200713 4996.229490168759,4798.205430200714 5004.319660112509,4792.327577677789 5014.319660112509,4792.32757767779 5004.319660112509,4792.327577677789 5001.229490168761,4782.817012514837 5011.229490168761,4782.817012514838 5003.139320225011,4788.694865037763 5006.229490168759,4798.2054302007145 4998.139320225009,4804.083282723638 4990.04915028126,4798.205430200713 5000.04915028126,4798.205430200714 4990.04915028126,4798.205430200713 4981.958980337511,4792.327577677787 4990.049150281261,4786.449725154864 5000.049150281261,4786.449725154865 4996.958980337513,4776.939159991913 5005.049150281263,4771.061307468988 5008.139320225013,4761.550742306037 5000.049150281263,4767.428594828961 5010.049150281263,4767.428594828962 5006.958980337514,4757.91802966601 4996.958980337514,4757.918029666009 4988.868810393765,4752.040177143083 4991.958980337515,4742.529611980132 5000.049150281265,4736.651759457208 4996.958980337515,4746.16232462016 4988.868810393765,4752.040177143083" stroke="black" stroke-linecap="round" stroke-width="1" /><polyline clip-path="url(#border_clip)" fill="none" points="4988.868810393765,4752.040177143083 4980.778640450015,4757.918029666008 4977.688470506266,4748.407464503056 4967.688470506266,4748.407464503055 4959.598300562516,4754.28531702598 4962.688470506266,4744.7747518630285 4954.598300562516,4750.652604385952 4944.598300562516,4750.652604385951 4952.688470506265,4756.530456908877 4949.598300562515,4766.041022071829 4957.688470506265,4760.163169548904 4949.598300562515,4766.041022071829 4957.688470506264,4771.918874594754 4947.688470506264,4771.918874594753 4937.688470506264,4771.918874594752 4934.598300562515,4762.4083094318 4924.598300562515,4762.408309431799 4932.688470506264,4768.286161954725 4924.598300562514,4774.164014477649 4934.598300562514,4774.16401447765 4937.688470506265,4764.653449314698 4929.598300562515,4758.775596791773 4939.598300562516,4758.775596791774 4942.688470506264,4768.286161954726 4945.778640450013,4777.796727117678 4948.868810393763,4768.286161954727 4945.778640450015,4758.775596791775 4935.778640450014,4758.775596791774 4938.868810393763,4768.286161954726 4928.868810393763,4768.286161954725 4920.778640450013,4774.164014477649 4917.688470506263,4783.6745796406 4927.688470506263,4783.674579640601 4919.598300562514,4777.796727117676 4911.508130618765,4771.91887459475 4903.417960675015,4777.796727117674 4895.327790731265,4783.6745796405985 4898.417960675015,4774.1640144776475 4895.327790731266,4764.6534493146955 4903.417960675016,4758.775596791771 4895.327790731266,4764.6534493146955 4903.417960675016,4758.775596791771 4900.327790731266,4768.286161954723" stroke="black" stroke-linecap="round" stroke-width="1" /><polyline clip-path="url(#border_clip)" fill="none" points="4900.327790731266,4768.286161954723 4892.237620787517,4762.4083094317975 4884.147450843768,4756.530456908871 4874.147450843768,4756.530456908871 4864.147450843768,4756.53045690887 4867.237620787516,4766.041022071822 4870.327790731265,4775.551587234774 4867.237620787515,4785.062152397725 4875.327790731264,4790.940004920651 4867.237620787514,4796.817857443575 4859.147450843765,4790.94000492065 4856.057280900014,4800.450570083601 4859.147450843765,4790.94000492065 4862.237620787515,4781.429439757698 4859.147450843765,4790.94000492065 4862.237620787513,4800.450570083602 4859.147450843765,4790.94000492065 4856.057280900014,4800.450570083601 4852.967110956266,4790.940004920649 4844.876941012515,4796.817857443573 4834.876941012515,4796.817857443572 4826.786771068765,4802.695709966496 4823.696601125017,4793.185144803544 4826.786771068765,4802.695709966496 4836.786771068765,4802.695709966497 4826.786771068765,4802.695709966496 4829.876941012516,4793.185144803545 4837.967110956265,4799.06299732647 4841.057280900015,4789.552432163519 4837.967110956266,4780.041867000567 4841.057280900017,4770.5313018376155 4837.967110956266,4780.041867000567 4827.967110956266,4780.0418670005665 4831.057280900017,4770.531301837615 4834.147450843765,4780.0418670005665 4844.147450843765,4780.041867000567 4847.237620787514,4789.552432163519 4839.147450843764,4795.430284686444 4842.237620787514,4785.919719523492 4839.147450843764,4795.430284686444 4831.057280900014,4801.3081372093675 4827.967110956265,4791.797572046416 4831.057280900015,4782.2870068834645" stroke="black" stroke-linecap="round" stroke-width="1" /><polyline clip-path="url(#border_clip)" fill="none" points="4831.057280900015,4782.2870068834645 4821.057280900015,4782.287006883464 4817.967110956267,4772.776441720512 4809.876941012518,4766.898589197586 4812.967110956266,4776.409154360538 4816.057280900017,4766.898589197587 4806.057280900017,4766.898589197586 4802.967110956266,4776.409154360537 4794.876941012516,4782.287006883462 4786.786771068767,4776.409154360536 4783.696601125018,4766.898589197584 4791.786771068767,4772.77644172051 4794.876941012516,4782.287006883462 4797.967110956265,4791.797572046414 4787.967110956264,4791.797572046413 4784.876941012514,4801.308137209364 4787.967110956263,4810.818702372316 4779.876941012514,4804.94084984939 4782.967110956262,4814.451415012342 4779.876941012512,4823.961980175293 4787.967110956262,4818.08412765237 4796.057280900011,4823.961980175295 4792.967110956262,4814.451415012343 4796.057280900011,4823.961980175295 4804.147450843761,4818.084127652371 4801.057280900011,4827.594692815323 4797.9671109562605,4837.105257978274 4787.9671109562605,4837.105257978273 4784.8769410125105,4846.615823141225 4792.9671109562605,4840.7379706183 4796.05728090001,4850.248535781252 4799.1474508437595,4840.737970618301 4791.0572809000105,4834.860118095376 4782.9671109562605,4840.737970618299 4786.0572809000105,4831.227405455348 4796.0572809000105,4831.227405455349 4806.0572809000105,4831.22740545535 4797.967110956261,4825.349552932425 4787.967110956261,4825.349552932424 4784.876941012511,4834.860118095375 4794.876941012511,4834.860118095376 4791.7867710687615,4844.370683258327 4794.87694101251,4853.8812484212785" stroke="black" stroke-linecap="round" stroke-width="1" /><polyline clip-path="url(#border_clip)" fill="none" points="4794.87694101251,4853.8812484212785 4802.967110956259,4859.759100944204 4806.05728090001,4850.248535781253 4797.967110956259,4856.126388304177 4789.876941012509,4862.004240827101 4792.967110956258,4871.514805990053 4796.057280900006,4881.025371153005 4787.967110956257,4875.1475186300795 4777.967110956257,4875.147518630079 4774.876941012509,4865.636953467127 4777.967110956257,4875.147518630079 4774.876941012509,4865.636953467127 4782.967110956258,4871.514805990052 4774.876941012508,4877.392658512977 4766.786771068757,4883.2705110359 4763.696601125007,4892.781076198852 4760.606431181257,4902.291641361803 4770.606431181257,4902.291641361804 4780.606431181257,4902.291641361805 4788.696601125006,4908.16949388473 4796.786771068756,4902.291641361807 4799.876941012505,4911.802206524759 4791.786771068754,4917.680059047682 4799.876941012503,4923.557911570608 4791.786771068754,4917.680059047682 4783.696601125005,4911.802206524757 4791.786771068754,4917.680059047682 4801.786771068755,4917.680059047683 4791.786771068754,4917.680059047682 4799.876941012503,4923.557911570608 4789.876941012503,4923.557911570607 4792.967110956252,4933.068476733559 4789.876941012501,4942.579041896511 4792.9671109562505,4952.089607059463 4782.9671109562505,4952.089607059462 4792.9671109562505,4952.089607059463 4796.0572809000005,4942.579041896511 4792.9671109562505,4952.089607059463 4784.876941012501,4946.211754536536 4792.967110956251,4940.333902013613 4784.876941012502,4934.456049490687 4774.876941012502,4934.456049490686 4766.786771068753,4928.578196967761" stroke="black" stroke-linecap="round" stroke-width="1" /><polyline clip-path="url(#border_clip)" fill="none" points="4766.786771068753,4928.578196967761 4774.876941012502,4934.456049490686 4771.7867710687515,4943.966614653637 4763.696601125002,4938.088762130712 4773.696601125002,4938.088762130713 4776.786771068753,4928.578196967762 4786.786771068753,4928.578196967763 4789.876941012502,4938.088762130715 4781.786771068753,4932.210909607789 4789.876941012502,4938.088762130715 4792.9671109562505,4947.599327293667 4782.9671109562505,4947.599327293666 4774.876941012501,4941.72147477074 4771.7867710687515,4951.232039933691 4761.786771068751,4951.23203993369 4753.696601125001,4957.109892456614 4763.696601125001,4957.109892456615 4755.6064311812515,4951.2320399336895 4752.516261237502,4960.7426050966415 4760.606431181251,4966.620457619567 4763.696601124999,4976.131022782519 4755.606431181249,4982.008875305442 4745.606431181249,4982.0088753054415 4753.696601124999,4976.131022782518 4763.696601124999,4976.131022782519 4773.696601124999,4976.13102278252 4770.606431181249,4985.641587945471 4778.696601124998,4991.519440468396 4788.696601124998,4991.519440468397 4780.606431181248,4997.397292991322 4790.606431181248,4997.3972929913225 4798.696601124997,5003.275145514248 4795.606431181249,4993.764580351296 4803.696601124999,4987.886727828372 4793.696601124999,4987.8867278283715 4803.696601124999,4987.886727828372 4800.60643118125,4978.37616266542 4808.696601124999,4984.254015188346 4816.786771068748,4990.131867711271 4813.696601124998,4999.642432874222 4821.786771068747,5005.520285397149 4818.696601124998,4996.009720234197 4828.696601124998,4996.009720234198" stroke="black" stroke-linecap="round" stroke-width="1" /><polyline clip-path="url(#border_clip)" fill="none" points="4828.696601124998,4996.009720234198 4820.606431181249,4990.131867711271 4812.516261237499,4996.009720234196 4815.606431181248,5005.520285397148 4807.516261237499,4999.642432874222 4810.606431181249,4990.13186771127 4813.696601125,4980.621302548319 4805.606431181249,4986.499155071243 4802.516261237499,4996.009720234195 4810.606431181248,5001.88757275712 4813.696601124998,4992.377007594169 4821.786771068747,4998.254860117095 4831.786771068747,4998.254860117096 4839.876941012498,4992.377007594172 4831.786771068749,4986.499155071246 4834.876941012497,4996.009720234198 4837.967110956246,5005.52028539715 4847.967110956246,5005.520285397151 4857.967110956246,5005.520285397152 4849.876941012496,5011.398137920076 4846.786771068745,5020.908703083027 4836.786771068745,5020.908703083026 4846.786771068745,5020.908703083027 4836.786771068745,5020.908703083026 4844.876941012495,5015.030850560102 4847.967110956244,5024.541415723054 4851.057280899992,5034.051980886006 4859.147450843741,5039.929833408932 4867.23762078749,5045.807685931857 4870.32779073124,5036.297120768906 4873.417960674991,5026.786555605955 4881.508130618741,5020.908703083031 4878.417960674993,5011.398137920079 4888.417960674993,5011.3981379200795 4891.508130618741,5020.9087030830315 4899.598300562492,5015.030850560108 4891.508130618741,5020.9087030830315 4883.417960674991,5026.786555605956 4891.508130618741,5020.9087030830315 4894.598300562492,5011.39813792008 4891.508130618741,5020.9087030830315 4899.598300562492,5015.030850560108 4896.508130618741,5024.541415723059" stroke="black" stroke-linecap="round" stroke-width="1" /><polyline clip-path="url(#border_clip)" fill="none" points="4896.508130618741,5024.541415723059 4906.508130618741,5024.54141572306 4914.59830056249,5030.419268245986 4924.59830056249,5030.419268245987 4921.50813061874,5039.929833408938 4924.59830056249,5030.419268245987 4916.508130618741,5024.541415723062 4924.59830056249,5030.419268245987 4916.50813061874,5036.297120768911 4913.417960674992,5026.786555605959 4905.327790731241,5032.664408128883 4902.237620787491,5042.174973291834 4894.147450843741,5048.052825814758 4902.237620787491,5042.174973291834 4910.32779073124,5048.05282581476 4902.2376207874895,5053.930678337684 4905.32779073124,5044.420113174732 4897.237620787491,5038.542260651807 4900.327790731242,5029.031695488856 4910.327790731242,5029.031695488857 4902.237620787492,5034.90954801178 4910.327790731242,5029.031695488857 4920.327790731242,5029.031695488858 4917.237620787491,5038.542260651809 4909.147450843741,5044.420113174733 4917.23762078749,5050.297965697659 4914.1474508437395,5059.80853086061 4917.237620787489,5069.3190960235615 4920.327790731239,5059.8085308606105 4912.237620787489,5065.686383383534 4920.327790731238,5071.56423590646 4928.417960674988,5065.686383383536 4938.4179606749885,5065.686383383538 4941.508130618737,5075.19694854649 4938.417960674986,5084.707513709441 4935.327790731238,5075.196948546489 4938.4179606749885,5065.686383383538 4941.5081306187385,5056.175818220586 4949.598300562488,5062.053670743512 4957.6884705062375,5056.175818220588 4960.778640449988,5046.665253057637 4963.868810393737,5056.175818220589 4966.958980337487,5046.6652530576375" stroke="black" stroke-linecap="round" stroke-width="1" /><polyline clip-path="url(#border_clip)" fill="none" points="4966.958980337487,5046.6652530576375 4975.049150281237,5040.787400534713 4965.049150281237,5040.787400534712 4961.958980337489,5031.27683537176 4958.868810393738,5040.787400534711 4961.958980337489,5031.27683537176 4951.958980337489,5031.276835371759 4960.049150281239,5025.398982848835 4968.139320224989,5019.521130325911 4976.229490168738,5025.398982848837 4984.319660112488,5019.521130325913 4974.319660112488,5019.521130325912 4977.409830056239,5010.01056516296 4969.319660112489,5015.888417685885 4972.409830056237,5025.398982848837 4982.409830056237,5025.3989828488375 4974.319660112487,5031.276835371761 4966.229490168738,5025.398982848836 4958.139320224989,5019.52113032591 4961.229490168737,5029.031695488862 4969.319660112486,5034.909548011788 4977.409830056237,5029.031695488864 4969.319660112488,5023.153842965938 4977.409830056238,5017.275990443014 4980.499999999989,5007.765425280063 4977.40983005624,4998.254860117111 4969.31966011249,5004.132712640035 4979.31966011249,5004.132712640036 4989.31966011249,5004.1327126400365 4992.409830056241,4994.6221474770855 4995.499999999992,4985.1115823141345 4998.59016994374,4994.622147477086 5006.680339887489,5000.500000000012 5003.590169943738,5010.010565162964 5006.680339887489,5000.500000000012 5003.590169943738,5010.010565162964 5000.49999999999,5000.500000000011 5010.49999999999,5000.500000000013 5020.49999999999,5000.500000000014 5028.590169943741,4994.62214747709 5036.680339887491,4988.7442949541655 5028.590169943742,4982.86644243124 5020.499999999993,4976.988589908315" stroke="black" stroke-linecap="round" stroke-width="1" /><polyline clip-path="url(#border_clip)" fill="none" points="5020.499999999993,4976.988589908315 5017.409830056245,4967.478024745362 5007.409830056245,4967.478024745361 5010.4999999999945,4957.96745958241 5020.499999999995,4957.967459582411 5017.409830056246,4948.456894419459 5020.499999999995,4957.967459582411 5023.590169943744,4967.478024745363 5020.499999999995,4957.967459582411 5012.409830056246,4952.089607059485 5020.499999999995,4957.967459582411 5017.409830056246,4948.456894419459 5025.499999999995,4954.334746942384 5028.590169943746,4944.824181779433 5036.680339887496,4938.94632925651 5039.770509831247,4929.435764093558 5047.860679774996,4935.313616616484 5039.770509831247,4929.435764093558 5031.680339887497,4935.313616616482 5039.770509831247,4929.435764093558 5042.860679774995,4938.946329256511 5032.860679774995,4938.946329256509 5035.9508497187435,4948.456894419461 5044.0410196624925,4954.334746942387 5047.131189606241,4963.845312105339 5044.0410196624925,4954.334746942387 5052.131189606243,4948.4568944194625 5055.221359549992,4957.967459582415 5047.1311896062425,4952.089607059489 5039.0410196624925,4957.967459582413 5030.9508497187435,4952.089607059487 5034.041019662493,4942.579041896536 5037.1311896062425,4952.089607059488 5034.041019662493,4942.579041896536 5037.131189606244,4933.068476733584 5045.221359549993,4938.946329256511 5048.311529493742,4948.4568944194625 5056.401699437492,4942.579041896539 5064.4918693812415,4948.456894419464 5074.4918693812415,4948.456894419465 5066.401699437492,4942.57904189654 5069.491869381241,4952.089607059492 5077.5820393249915,4946.211754536568" stroke="black" stroke-linecap="round" stroke-width="1" /><polyline clip-path="url(#border_clip)" fill="none" points="5077.5820393249915,4946.211754536568 5074.491869381242,4936.701189373616 5077.582039324993,4927.190624210664 5087.582039324993,4927.190624210666 5095.672209268742,4933.0684767335915 5085.672209268742,4933.068476733591 5077.582039324993,4927.190624210664 5069.491869381244,4921.312771687739 5077.582039324995,4915.434919164815 5074.491869381246,4905.924354001862 5066.401699437497,4900.046501478937 5076.401699437498,4900.046501478938 5068.311529493749,4894.1686489560125 5065.221359550001,4884.6580837930605 5062.13118960625,4894.168648956012 5052.13118960625,4894.168648956011 5060.221359549998,4900.046501478936 5052.13118960625,4894.168648956011 5049.041019662499,4903.679214118962 5045.950849718751,4894.16864895601 5042.860679775002,4884.658083793058 5050.950849718753,4878.780231270134 5047.8606797750035,4869.269666107181 5044.770509831254,4878.780231270133 5036.6803398875045,4872.902378747207 5039.770509831253,4882.412943910159 5049.770509831253,4882.412943910161 5052.8606797750035,4872.902378747209 5055.950849718752,4882.412943910162 5047.860679775002,4888.290796433085 5039.770509831252,4894.168648956009 5049.770509831252,4894.168648956011 5057.860679775002,4888.290796433086 5054.770509831254,4878.780231270134 5046.680339887503,4884.658083793058 5043.5901699437545,4875.147518630106 5035.5000000000055,4869.2696661071805 5025.5000000000055,4869.269666107179 5028.590169943754,4878.7802312701315 5031.6803398875045,4869.26966610718 5034.770509831255,4859.7591009442285 5026.680339887506,4853.881248421303 5018.590169943757,4848.003395898377" stroke="black" stroke-linecap="round" stroke-width="1" /><polyline clip-path="url(#border_clip)" fill="none" points="5018.590169943757,4848.003395898377 5028.590169943758,4848.003395898378 5036.680339887508,4842.125543375454 5044.770509831257,4848.00339589838 5036.680339887508,4842.125543375454 5044.770509831257,4848.00339589838 5034.770509831257,4848.003395898379 5037.860679775007,4838.492830735428 5040.950849718758,4828.9822655724765 5037.86067977501,4819.471700409524 5034.770509831262,4809.961135246572 5026.680339887511,4815.838987769496 5018.590169943761,4821.71684029242 5008.590169943761,4821.716840292418 5005.50000000001,4831.22740545537 4997.409830056261,4825.349552932444 5000.500000000012,4815.838987769493 4990.500000000012,4815.838987769492 5000.500000000012,4815.838987769493 5010.500000000012,4815.8389877694935 5000.500000000012,4815.838987769493 4992.409830056262,4821.716840292416 5000.500000000012,4815.838987769493 4990.500000000012,4815.838987769492 4998.590169943762,4809.961135246567 4990.500000000013,4804.083282723642 4987.409830056265,4794.57271756069 4979.3196601125155,4788.6948650377635 4987.409830056266,4782.81701251484 4979.3196601125155,4788.6948650377635 4982.409830056265,4798.205430200715 4979.3196601125155,4788.6948650377635 4989.319660112516,4788.694865037765 4986.229490168766,4798.205430200716 4996.229490168766,4798.205430200717 5004.3196601125155,4792.327577677794 5014.319660112516,4792.3275776777955 5004.3196601125155,4792.327577677794 5001.229490168767,4782.817012514842 5011.229490168767,4782.817012514843 5003.139320225017,4788.694865037767 5006.229490168766,4798.205430200719 4998.139320225016,4804.083282723643" stroke="black" stroke-linecap="round" stroke-width="1" /><polyline clip-path="url(#border_clip)" fill="none" points="4998.139320225016,4804.083282723643 4990.0491502812665,4798.205430200717 5000.0491502812665,4798.205430200718 4990.0491502812665,4798.205430200717 4981.9589803375175,4792.327577677791 4990.049150281268,4786.449725154867 5000.049150281268,4786.449725154868 4996.95898033752,4776.939159991916 5005.04915028127,4771.061307468993 5008.139320225021,4761.550742306041 5000.04915028127,4767.428594828965 5010.049150281271,4767.428594828966 5006.958980337523,4757.918029666014 4996.958980337522,4757.918029666013 4988.868810393774,4752.040177143087 4991.958980337524,4742.529611980136 5000.049150281275,4736.651759457212 4996.958980337524,4746.162324620163 4988.868810393774,4752.040177143087 4980.778640450023,4757.918029666011 4977.688470506275,4748.407464503059 4967.688470506275,4748.407464503058 4959.598300562524,4754.285317025981 4962.688470506275,4744.774751863029 4954.598300562525,4750.652604385954 4944.598300562525,4750.652604385952 4952.688470506273,4756.5304569088785 4949.598300562522,4766.0410220718295 4957.688470506273,4760.163169548906 4949.598300562522,4766.0410220718295 4957.688470506271,4771.918874594756 4947.688470506271,4771.918874594754 4937.688470506271,4771.918874594753 4934.598300562523,4762.408309431801 4924.598300562522,4762.408309431799 4932.688470506271,4768.286161954726 4924.598300562521,4774.164014477649 4934.598300562521,4774.16401447765 4937.688470506272,4764.653449314699 4929.598300562523,4758.775596791773 4939.598300562523,4758.775596791775 4942.688470506271,4768.286161954727 4945.77864045002,4777.7967271176785" stroke="black" stroke-linecap="round" stroke-width="1" /><polyline clip-path="url(#border_clip)" fill="none" points="4945.77864045002,4777.7967271176785 4948.86881039377,4768.2861619547275 4945.778640450022,4758.775596791776 4935.778640450022,4758.775596791774 4938.86881039377,4768.286161954727 4928.86881039377,4768.286161954725 4920.77864045002,4774.164014477648 4917.688470506269,4783.6745796406 4927.688470506269,4783.674579640601 4919.59830056252,4777.796727117675 4911.508130618771,4771.9188745947495 4903.417960675021,4777.796727117673 4895.32779073127,4783.674579640597 4898.417960675021,4774.164014477646 4895.327790731273,4764.653449314694 4903.417960675024,4758.77559679177 4895.327790731273,4764.653449314694 4903.417960675024,4758.77559679177 4900.327790731273,4768.286161954721 4892.237620787524,4762.408309431795 4884.147450843775,4756.530456908869 4874.147450843775,4756.530456908868 4864.147450843775,4756.530456908867 4867.237620787523,4766.041022071819 4870.327790731271,4775.5515872347705 4867.23762078752,4785.0621523977225 4875.3277907312695,4790.940004920648 4867.237620787519,4796.8178574435715 4859.1474508437705,4790.940004920646 4856.05728090002,4800.450570083597 4859.1474508437705,4790.940004920646 4862.237620787521,4781.429439757694 4859.1474508437705,4790.940004920646 4862.237620787519,4800.450570083598 4859.1474508437705,4790.940004920646 4856.05728090002,4800.450570083597 4852.967110956271,4790.940004920645 4844.876941012521,4796.817857443569 4834.876941012521,4796.817857443567 4826.78677106877,4802.695709966491 4823.6966011250215,4793.185144803539 4826.78677106877,4802.695709966491 4836.786771068771,4802.695709966492" stroke="black" stroke-linecap="round" stroke-width="1" /><polyline clip-path="url(#border_clip)" fill="none" points="4836.786771068771,4802.695709966492 4826.78677106877,4802.695709966491 4829.876941012521,4793.1851448035395 4837.96711095627,4799.062997326466 4841.0572809000205,4789.552432163515 4837.967110956272,4780.041867000562 4841.057280900023,4770.531301837611 4837.967110956272,4780.041867000562 4827.967110956272,4780.041867000561 4831.057280900023,4770.53130183761 4834.147450843771,4780.041867000562 4844.147450843771,4780.041867000563 4847.2376207875195,4789.552432163516 4839.14745084377,4795.430284686439 4842.23762078752,4785.919719523487 4839.14745084377,4795.430284686439 4831.057280900019,4801.308137209363 4827.9671109562705,4791.797572046411 4831.057280900021,4782.287006883459 4821.057280900021,4782.287006883458 4817.967110956273,4772.776441720506 4809.876941012524,4766.89858919758 4812.967110956272,4776.409154360532 4816.057280900023,4766.898589197581 4806.057280900023,4766.898589197579 4802.967110956272,4776.409154360531 4794.8769410125215,4782.2870068834545 4786.786771068773,4776.409154360528 4783.696601125024,4766.898589197576 4791.786771068773,4772.776441720503 4794.8769410125215,4782.2870068834545 4797.96711095627,4791.7975720464065 4787.96711095627,4791.797572046406 4784.876941012519,4801.308137209357 4787.967110956267,4810.8187023723085 4779.876941012518,4804.940849849382 4782.967110956266,4814.451415012335 4779.876941012515,4823.961980175286 4787.967110956266,4818.084127652362 4796.057280900015,4823.961980175288 4792.967110956267,4814.451415012336 4796.057280900015,4823.961980175288 4804.147450843765,4818.084127652364" stroke="black" stroke-linecap="round" stroke-width="1" /><polyline clip-path="url(#border_clip)" fill="none" points="4804.147450843765,4818.084127652364 4801.057280900014,4827.594692815316 4797.967110956263,4837.105257978267 4787.967110956263,4837.105257978265 4784.876941012512,4846.615823141217 4792.967110956262,4840.737970618294 4796.057280900011,4850.248535781246 4799.147450843762,4840.737970618295 4791.057280900013,4834.860118095368 4782.967110956262,4840.737970618292 4786.057280900013,4831.227405455341 4796.057280900014,4831.227405455342 4806.057280900014,4831.227405455344 4797.967110956265,4825.349552932417 4787.967110956265,4825.349552932416 4784.876941012514,4834.860118095367 4794.876941012514,4834.860118095368 4791.786771068763,4844.37068325832 4794.876941012511,4853.881248421272 4802.9671109562605,4859.7591009441985 4806.057280900011,4850.248535781247 4797.9671109562605,4856.12638830417 4789.8769410125105,4862.004240827095 4792.967110956259,4871.514805990047 4796.057280900007,4881.025371152999 4787.967110956258,4875.147518630072 4777.967110956258,4875.147518630071 4774.87694101251,4865.636953467119 4777.967110956258,4875.147518630071 4774.87694101251,4865.636953467119 4782.967110956258,4871.514805990045 4774.876941012508,4877.392658512968 4766.786771068757,4883.270511035892 4763.696601125006,4892.781076198844 4760.606431181255,4902.291641361795 4770.606431181255,4902.291641361797 4780.606431181256,4902.291641361798 4788.696601125004,4908.169493884724 4796.786771068755,4902.2916413618 4799.876941012503,4911.802206524752 4791.786771068752,4917.680059047676 4799.876941012501,4923.557911570602 4791.786771068752,4917.680059047676" stroke="black" stroke-linecap="round" stroke-width="1" /><polyline clip-path="url(#border_clip)" fill="none" points="4791.786771068752,4917.680059047676 4783.696601125004,4911.80220652475 4791.786771068752,4917.680059047676 4801.786771068753,4917.680059047678 4791.786771068752,4917.680059047676 4799.876941012501,4923.557911570602 4789.876941012501,4923.5579115706005 4792.96711095625,4933.068476733552 4789.876941012499,4942.579041896504 4792.967110956247,4952.089607059456 4782.967110956246,4952.0896070594545 4792.967110956247,4952.089607059456 4796.057280899998,4942.579041896505 4792.967110956247,4952.089607059456 4784.876941012498,4946.21175453653 4792.967110956249,4940.333902013606 4784.8769410125,4934.45604949068 4774.8769410125,4934.456049490679 4766.786771068751,4928.578196967753 4774.8769410125,4934.456049490679 4771.786771068749,4943.96661465363 4763.696601125,4938.088762130704 4773.696601125,4938.088762130706 4776.786771068751,4928.578196967755 4786.7867710687515,4928.5781969677555 4789.876941012499,4938.088762130708 4781.786771068751,4932.210909607782 4789.876941012499,4938.088762130708 4792.967110956247,4947.59932729366 4782.967110956247,4947.5993272936585 4774.876941012499,4941.721474770733 4771.786771068747,4951.232039933684 4761.786771068747,4951.232039933682 4753.696601124997,4957.109892456606 4763.696601124997,4957.109892456608 4755.606431181248,4951.232039933681 4752.516261237497,4960.742605096632 4760.606431181246,4966.620457619559 4763.696601124994,4976.131022782511 4755.606431181243,4982.008875305434 4745.606431181243,4982.008875305433 4753.696601124993,4976.13102278251 4763.696601124994,4976.131022782511" stroke="black" stroke-linecap="round" stroke-width="1" /><polyline clip-path="url(#border_clip)" fill="none" points="4763.696601124994,4976.131022782511 4773.696601124994,4976.131022782512 4770.606431181243,4985.6415879454635 4778.6966011249915,4991.51944046839 4788.696601124992,4991.519440468392 4780.6064311812415,4997.397292991315 4790.6064311812415,4997.397292991316 4798.696601124991,5003.2751455142425 4795.606431181242,4993.7645803512905 4803.696601124993,4987.886727828367 4793.696601124992,4987.886727828365 4803.696601124993,4987.886727828367 4800.606431181245,4978.376162665415 4808.696601124993,4984.25401518834 4816.786771068742,4990.131867711267 4813.6966011249915,4999.642432874218 4821.786771068741,5005.520285397144 4818.696601124992,4996.009720234192 4828.696601124992,4996.009720234193 4820.606431181243,4990.131867711268 4812.516261237493,4996.009720234191 4815.6064311812415,5005.520285397143 4807.5162612374925,4999.642432874217 4810.606431181243,4990.131867711266 4813.696601124994,4980.621302548315 4805.606431181244,4986.499155071238 4802.5162612374925,4996.009720234189 4810.6064311812415,5001.887572757116 4813.696601124992,4992.377007594165 4821.7867710687415,4998.25486011709 4831.7867710687415,4998.254860117092 4839.876941012492,4992.377007594168 4831.786771068743,4986.499155071242 4834.876941012491,4996.009720234195 4837.96711095624,5005.520285397147 4847.96711095624,5005.520285397149 4857.96711095624,5005.52028539715 4849.87694101249,5011.398137920073 4846.786771068739,5020.908703083024 4836.786771068738,5020.908703083023 4846.786771068739,5020.908703083025 4836.786771068738,5020.908703083023 4844.876941012489,5015.0308505601" stroke="black" stroke-linecap="round" stroke-width="1" /><polyline clip-path="url(#border_clip)" fill="none" points="4844.876941012489,5015.0308505601 4847.967110956237,5024.541415723052 4851.057280899985,5034.051980886004 4859.147450843733,5039.92983340893 4867.237620787482,5045.807685931856 4870.327790731233,5036.297120768905 4873.417960674984,5026.786555605953 4881.508130618735,5020.90870308303 4878.417960674987,5011.398137920078 4888.417960674987,5011.3981379200795 4891.508130618735,5020.9087030830315 4899.598300562486,5015.030850560108 4891.508130618735,5020.9087030830315 4883.417960674984,5026.786555605955 4891.508130618735,5020.9087030830315 4894.598300562486,5011.39813792008 4891.508130618735,5020.9087030830315 4899.598300562486,5015.030850560108 4896.508130618735,5024.541415723059 4906.508130618735,5024.541415723061 4914.598300562483,5030.419268245987 4924.598300562484,5030.419268245989 4921.508130618733,5039.92983340894 4924.598300562484,5030.419268245989 4916.508130618735,5024.5414157230625 4924.598300562484,5030.419268245989 4916.508130618733,5036.2971207689125 4913.417960674985,5026.78655560596 4905.327790731235,5032.664408128883 4902.237620787483,5042.174973291835 4894.147450843733,5048.052825814759 4902.237620787483,5042.174973291835 4910.327790731232,5048.052825814761 4902.237620787481,5053.930678337684 4905.327790731232,5044.420113174733 4897.237620787484,5038.542260651807 4900.327790731235,5029.031695488856 4910.327790731235,5029.031695488858 4902.237620787485,5034.909548011781 4910.327790731235,5029.031695488858 4920.327790731235,5029.031695488859 4917.237620787484,5038.5422606518105 4909.147450843734,5044.420113174734" stroke="black" stroke-linecap="round" stroke-width="1" /><polyline clip-path="url(#border_clip)" fill="none" points="4909.147450843734,5044.420113174734 4917.237620787482,5050.29796569766 4914.147450843731,5059.808530860611 4917.2376207874795,5069.319096023563 4920.32779073123,5059.808530860612 4912.2376207874795,5065.686383383536 4920.327790731229,5071.564235906462 4928.417960674979,5065.686383383539 4938.417960674979,5065.6863833835405 4941.508130618728,5075.196948546492 4938.417960674976,5084.707513709443 4935.327790731229,5075.1969485464915 4938.417960674979,5065.6863833835405 4941.50813061873,5056.175818220589 4949.598300562479,5062.053670743515 4957.688470506229,5056.175818220591 4960.778640449981,5046.66525305764 4963.868810393728,5056.175818220592 4966.95898033748,5046.665253057641 4975.04915028123,5040.787400534718 4965.04915028123,5040.787400534716 4961.958980337482,5031.276835371764 4958.868810393731,5040.787400534715 4961.958980337482,5031.276835371764 4951.958980337482,5031.276835371762 4960.049150281233,5025.398982848838 4968.139320224984,5019.521130325915 4976.229490168732,5025.398982848841 4984.319660112483,5019.5211303259175 4974.319660112483,5019.521130325917 4977.409830056234,5010.010565162965 4969.319660112483,5015.888417685888 4972.409830056231,5025.398982848841 4982.409830056231,5025.398982848842 4974.31966011248,5031.276835371766 4966.229490168732,5025.398982848839 4958.139320224983,5019.521130325914 4961.229490168731,5029.031695488866 4969.31966011248,5034.909548011792 4977.40983005623,5029.0316954888685 4969.319660112482,5023.153842965942 4977.409830056233,5017.275990443019 4980.499999999984,5007.765425280068" stroke="black" stroke-linecap="round" stroke-width="1" /><polyline clip-path="url(#border_clip)" fill="none" points="4980.499999999984,5007.765425280068 4977.4098300562355,4998.254860117116 4969.319660112485,5004.132712640038 4979.3196601124855,5004.13271264004 4989.3196601124855,5004.132712640042 4992.409830056236,4994.622147477091 4995.499999999987,4985.11158231414 4998.590169943735,4994.622147477092 5006.6803398874845,5000.500000000018 5003.590169943733,5010.010565162969 5006.6803398874845,5000.500000000018 5003.590169943733,5010.010565162969 5000.499999999985,5000.500000000017 5010.499999999985,5000.500000000019 5020.499999999985,5000.50000000002 5028.590169943736,4994.622147477097 5036.680339887487,4988.744294954174 5028.590169943738,4982.866442431247 5020.499999999989,4976.988589908321 5017.409830056242,4967.478024745369 5007.409830056241,4967.478024745367 5010.499999999993,4957.967459582415 5020.499999999993,4957.967459582417 5017.409830056245,4948.456894419465 5020.499999999993,4957.967459582417 5023.590169943741,4967.47802474537 5020.499999999993,4957.967459582417 5012.409830056244,4952.089607059491 5020.499999999993,4957.967459582417 5017.409830056245,4948.456894419465 5025.499999999994,4954.334746942392 5028.5901699437445,4944.824181779441 5036.680339887495,4938.946329256517 5039.770509831246,4929.435764093566 5047.860679774995,4935.313616616491 5039.770509831246,4929.435764093566 5031.680339887495,4935.313616616489 5039.770509831246,4929.435764093566 5042.860679774994,4938.946329256518 5032.860679774994,4938.946329256516 5035.950849718742,4948.456894419468 5044.041019662491,4954.334746942394 5047.131189606239,4963.845312105347" stroke="black" stroke-linecap="round" stroke-width="1" /><polyline clip-path="url(#border_clip)" fill="none" points="5047.131189606239,4963.845312105347 5044.041019662491,4954.334746942394 5052.131189606242,4948.456894419471 5055.22135954999,4957.9674595824235 5047.131189606241,4952.089607059497 5039.04101966249,4957.967459582421 5030.950849718742,4952.0896070594945 5034.0410196624925,4942.5790418965435 5037.131189606241,4952.089607059495 5034.0410196624925,4942.5790418965435 5037.131189606243,4933.0684767335915 5045.2213595499925,4938.946329256518 5048.311529493741,4948.456894419471 5056.401699437491,4942.579041896547 5064.49186938124,4948.456894419473 5074.49186938124,4948.456894419475 5066.4016994374915,4942.579041896549 5069.491869381239,4952.089607059501 5077.58203932499,4946.211754536577 5074.4918693812415,4936.701189373625 5077.582039324993,4927.190624210674 5087.582039324993,4927.190624210676 5095.672209268742,4933.068476733602 5085.672209268741,4933.068476733601 5077.582039324993,4927.190624210674 5069.491869381244,4921.312771687748 5077.582039324995,4915.434919164824 5074.491869381247,4905.924354001872 5066.401699437499,4900.046501478946 5076.401699437499,4900.046501478948 5068.31152949375,4894.168648956022 5065.2213595500025,4884.658083793069 5062.131189606251,4894.16864895602 5052.131189606251,4894.168648956018 5060.22135955,4900.046501478944 5052.131189606251,4894.168648956018 5049.0410196625,4903.67921411897 5045.950849718752,4894.168648956017 5042.8606797750035,4884.658083793065 5050.950849718754,4878.7802312701415 5047.860679775006,4869.26966610719 5044.770509831255,4878.780231270141 5036.680339887507,4872.902378747214" stroke="black" stroke-linecap="round" stroke-width="1" /><polyline clip-path="url(#border_clip)" fill="none" points="5036.680339887507,4872.902378747214 5039.7705098312545,4882.412943910166 5049.770509831255,4882.412943910168 5052.860679775006,4872.902378747217 5055.950849718754,4882.412943910169 5047.8606797750035,4888.2907964330925 5039.770509831253,4894.168648956016 5049.770509831253,4894.168648956018 5057.8606797750035,4888.290796433094 5054.770509831255,4878.780231270142 5046.680339887505,4884.658083793066 5043.590169943757,4875.147518630113 5035.500000000008,4869.269666107187 5025.500000000008,4869.269666107185 5028.590169943756,4878.780231270138 5031.680339887507,4869.269666107186 5034.770509831259,4859.759100944235 5026.68033988751,4853.881248421309 5018.590169943762,4848.003395898382 5028.590169943762,4848.003395898384 5036.680339887513,4842.125543375461 5044.770509831261,4848.003395898387 5036.680339887513,4842.125543375461 5044.770509831261,4848.003395898387 5034.770509831261,4848.003395898386 5037.860679775012,4838.492830735434 5040.9508497187635,4828.982265572483 5037.860679775015,4819.471700409531 5034.770509831267,4809.961135246578 5026.680339887517,4815.838987769502 5018.590169943766,4821.716840292425 5008.590169943765,4821.7168402924235 5005.500000000015,4831.2274054553745 4997.409830056266,4825.349552932448 5000.500000000017,4815.838987769497 4990.500000000017,4815.838987769495 5000.500000000017,4815.838987769497 5010.500000000017,4815.838987769499 5000.500000000017,4815.838987769497 4992.409830056266,4821.716840292421 5000.500000000017,4815.838987769497 4990.500000000017,4815.838987769495 4998.590169943768,4809.961135246572" stroke="black" stroke-linecap="round" stroke-width="1" /><polyline clip-path="url(#border_clip)" fill="none" points="4998.590169943768,4809.961135246572 4990.500000000019,4804.083282723645 4987.409830056271,4794.5727175606935 4979.319660112523,4788.694865037767 4987.409830056274,4782.817012514844 4979.319660112523,4788.694865037767 4982.409830056271,4798.205430200719 4979.319660112523,4788.694865037767 4989.319660112523,4788.694865037769 4986.229490168772,4798.20543020072 4996.229490168772,4798.205430200722 5004.319660112523,4792.327577677798 5014.319660112523,4792.3275776778 5004.319660112523,4792.327577677798 5001.229490168775,4782.817012514846 5011.229490168775,4782.817012514848 5003.139320225025,4788.694865037772 5006.229490168772,4798.205430200724 4998.139320225021,4804.083282723647 4990.049150281273,4798.205430200721 5000.049150281273,4798.205430200723 4990.049150281273,4798.205430200721 4981.958980337524,4792.327577677795 4990.049150281275,4786.449725154871 5000.049150281276,4786.449725154873 4996.9589803375275,4776.939159991921 5005.049150281278,4771.061307468997 5008.139320225029,4761.550742306046 5000.049150281278,4767.428594828969 5010.049150281279,4767.428594828971 5006.958980337531,4757.918029666019 4996.958980337531,4757.918029666017 4988.868810393782,4752.040177143091 4991.958980337534,4742.52961198014 5000.049150281285,4736.651759457216 4996.958980337533,4746.162324620167 4988.868810393782,4752.040177143091 4980.778640450031,4757.918029666014 4977.688470506284,4748.407464503061 4967.688470506284,4748.40746450306 4959.598300562533,4754.285317025983 4962.688470506284,4744.774751863032 4954.598300562533,4750.652604385956" stroke="black" stroke-linecap="round" stroke-width="1" /><polyline clip-path="url(#border_clip)" fill="none" points="4954.598300562533,4750.652604385956 4944.598300562533,4750.652604385953 4952.688470506282,4756.53045690888 4949.59830056253,4766.041022071831 4957.688470506281,4760.163169548908 4949.59830056253,4766.041022071831 4957.6884705062785,4771.918874594758 4947.6884705062785,4771.918874594756 4937.6884705062785,4771.918874594754 4934.59830056253,4762.408309431801 4924.59830056253,4762.408309431799 4932.688470506279,4768.286161954726 4924.5983005625285,4774.164014477649 4934.5983005625285,4774.164014477651 4937.688470506279,4764.6534493147 4929.598300562531,4758.775596791774 4939.598300562531,4758.775596791776 4942.688470506279,4768.2861619547275 4945.778640450027,4777.79672711768 4948.868810393778,4768.286161954729 4945.77864045003,4758.7755967917765 4935.77864045003,4758.775596791775 4938.868810393778,4768.286161954727 4928.8688103937775,4768.286161954725 4920.778640450027,4774.164014477648 4917.688470506276,4783.674579640599 4927.688470506276,4783.674579640601 4919.598300562528,4777.796727117675 4911.5081306187785,4771.918874594749 4903.417960675028,4777.796727117672 4895.327790731278,4783.674579640596 4898.417960675029,4774.164014477644 4895.32779073128,4764.653449314692 4903.417960675031,4758.775596791768 4895.32779073128,4764.653449314692 4903.417960675031,4758.775596791768 4900.32779073128,4768.286161954719 4892.237620787531,4762.408309431793 4884.147450843783,4756.530456908867 4874.147450843783,4756.530456908865 4864.147450843782,4756.530456908863 4867.23762078753,4766.041022071816 4870.327790731279,4775.551587234768" stroke="black" stroke-linecap="round" stroke-width="1" /><polyline clip-path="url(#border_clip)" fill="none" points="4870.327790731279,4775.551587234768 4867.237620787527,4785.062152397719 4875.327790731275,4790.940004920645 4867.237620787525,4796.817857443569 4859.147450843776,4790.940004920642 4856.057280900025,4800.450570083593 4859.147450843776,4790.940004920642 4862.237620787528,4781.429439757691 4859.147450843776,4790.940004920642 4862.237620787524,4800.450570083594 4859.147450843776,4790.940004920642 4856.057280900025,4800.450570083593 4852.967110956277,4790.9400049206415 4844.876941012526,4796.817857443564 4834.876941012526,4796.817857443562 4826.786771068775,4802.695709966486 4823.696601125027,4793.185144803533 4826.786771068775,4802.695709966486 4836.786771068775,4802.695709966488 4826.786771068775,4802.695709966486 4829.876941012527,4793.185144803535 4837.967110956275,4799.062997326461 4841.057280900027,4789.55243216351 4837.967110956279,4780.041867000557 4841.0572809000305,4770.531301837606 4837.967110956279,4780.041867000557 4827.967110956279,4780.041867000556 4831.05728090003,4770.531301837605 4834.147450843778,4780.0418670005565 4844.147450843778,4780.041867000558 4847.237620787526,4789.552432163511 4839.147450843775,4795.430284686435 4842.237620787526,4785.919719523483 4839.147450843775,4795.430284686435 4831.057280900024,4801.3081372093575 4827.967110956276,4791.797572046406 4831.057280900028,4782.2870068834545 4821.057280900028,4782.287006883453 4817.96711095628,4772.7764417205 4809.8769410125315,4766.8985891975735 4812.967110956279,4776.4091543605255 4816.0572809000305,4766.898589197574 4806.05728090003,4766.898589197573" stroke="black" stroke-linecap="round" stroke-width="1" /><polyline clip-path="url(#border_clip)" fill="none" points="4806.05728090003,4766.898589197573 4802.967110956279,4776.409154360524 4794.876941012528,4782.287006883447 4786.786771068779,4776.409154360521 4783.6966011250315,4766.898589197568 4791.78677106878,4772.776441720494 4794.876941012528,4782.287006883447 4797.967110956275,4791.797572046399 4787.967110956275,4791.797572046397 4784.876941012524,4801.308137209348 4787.967110956271,4810.818702372301 4779.876941012523,4804.940849849375 4782.9671109562705,4814.451415012327 4779.87694101252,4823.961980175278 4787.96711095627,4818.084127652355 4796.057280900019,4823.9619801752815 4792.9671109562705,4814.451415012329 4796.057280900019,4823.9619801752815 4804.14745084377,4818.084127652358 4801.057280900018,4827.594692815309 4797.967110956267,4837.105257978261 4787.967110956266,4837.105257978258 4784.876941012515,4846.61582314121 4792.967110956266,4840.737970618286 4796.057280900013,4850.248535781238 4799.147450843765,4840.737970618287 4791.057280900016,4834.860118095361 4782.967110956265,4840.737970618285 4786.057280900017,4831.227405455334 4796.057280900017,4831.227405455335 4806.057280900018,4831.227405455337 4797.967110956269,4825.349552932411 4787.967110956269,4825.349552932409 4784.876941012517,4834.86011809536 4794.876941012518,4834.860118095362 4791.786771068766,4844.370683258313 4794.876941012513,4853.881248421266 4802.967110956262,4859.759100944192 4806.057280900013,4850.248535781241 4797.967110956263,4856.126388304164 4789.876941012512,4862.004240827087 4792.96711095626,4871.514805990039 4796.057280900008,4881.025371152992" stroke="black" stroke-linecap="round" stroke-width="1" /><polyline clip-path="url(#border_clip)" fill="none" points="4796.057280900008,4881.025371152992 4787.967110956259,4875.147518630066 4777.967110956259,4875.147518630064 4774.8769410125105,4865.636953467111 4777.967110956259,4875.147518630064 4774.8769410125105,4865.636953467111 4782.96711095626,4871.5148059900375 4774.876941012509,4877.392658512961 4766.786771068758,4883.270511035884 4763.696601125006,4892.781076198836 4760.606431181255,4902.291641361787 4770.606431181255,4902.291641361789 4780.606431181255,4902.29164136179 4788.696601125004,4908.169493884717 4796.786771068755,4902.291641361794 4799.876941012502,4911.802206524746 4791.7867710687515,4917.68005904767 4799.8769410125,4923.557911570596 4791.7867710687515,4917.68005904767 4783.696601125003,4911.802206524743 4791.7867710687515,4917.68005904767 4801.7867710687515,4917.680059047671 4791.7867710687515,4917.68005904767 4799.8769410125,4923.557911570596 4789.8769410125,4923.557911570594 4792.967110956247,4933.068476733546 4789.876941012496,4942.579041896498 4792.967110956243,4952.08960705945 4782.967110956243,4952.089607059448 4792.967110956243,4952.08960705945 4796.057280899995,4942.579041896499 4792.967110956243,4952.08960705945 4784.876941012495,4946.211754536524 4792.967110956246,4940.3339020136 4784.876941012497,4934.456049490674 4774.876941012497,4934.456049490672 4766.786771068749,4928.5781969677455 4774.876941012497,4934.456049490672 4771.786771068746,4943.966614653623 4763.696601124997,4938.0887621306965 4773.696601124997,4938.088762130698 4776.786771068749,4928.578196967747 4786.786771068749,4928.578196967749" stroke="black" stroke-linecap="round" stroke-width="1" /><polyline clip-path="url(#border_clip)" fill="none" points="4786.786771068749,4928.578196967749 4789.876941012497,4938.088762130702 4781.786771068748,4932.210909607775 4789.876941012497,4938.088762130702 4792.967110956244,4947.599327293654 4782.967110956244,4947.599327293652 4774.876941012496,4941.721474770726 4771.786771068744,4951.232039933677 4761.786771068744,4951.232039933674 4753.696601124993,4957.109892456598 4763.696601124993,4957.1098924565995 4755.606431181244,4951.232039933673 4752.516261237493,4960.742605096624 4760.6064311812415,4966.6204576195505 4763.69660112499,4976.131022782503 4755.606431181238,4982.008875305427 4745.606431181238,4982.008875305424 4753.696601124989,4976.1310227825015 4763.69660112499,4976.131022782503 4773.69660112499,4976.131022782505 4770.606431181238,4985.641587945456 4778.696601124986,4991.519440468383 4788.696601124987,4991.519440468385 4780.606431181236,4997.397292991309 4790.606431181236,4997.397292991311 4798.696601124984,5003.275145514237 4795.606431181237,4993.764580351285 4803.696601124988,4987.8867278283615 4793.696601124988,4987.88672782836 4803.696601124988,4987.8867278283615 4800.606431181241,4978.376162665409 4808.696601124989,4984.254015188336 4816.786771068737,4990.131867711262 4813.696601124986,4999.642432874213 4821.786771068734,5005.52028539714 4818.696601124987,4996.009720234188 4828.696601124987,4996.009720234189 4820.606431181239,4990.131867711263 4812.516261237488,4996.009720234186 4815.606431181235,5005.520285397139 4807.516261237486,4999.642432874212 4810.606431181238,4990.131867711261 4813.69660112499,4980.621302548309" stroke="black" stroke-linecap="round" stroke-width="1" /><polyline clip-path="url(#border_clip)" fill="none" points="4813.69660112499,4980.621302548309 4805.606431181239,4986.499155071233 4802.516261237487,4996.009720234184 4810.606431181236,5001.88757275711 4813.696601124987,4992.377007594159 4821.786771068736,4998.2548601170865 4831.786771068736,4998.254860117088 4839.876941012487,4992.377007594165 4831.786771068739,4986.499155071238 4834.876941012486,4996.009720234191 4837.967110956233,5005.520285397143 4847.967110956234,5005.520285397145 4857.967110956234,5005.520285397148 4849.876941012483,5011.39813792007 4846.7867710687315,5020.9087030830215 4836.7867710687315,5020.90870308302 4846.7867710687315,5020.9087030830215 4836.7867710687315,5020.90870308302 4844.876941012482,5015.030850560097 4847.96711095623,5024.541415723049 4851.057280899978,5034.051980886002 4859.147450843726,5039.929833408928 4867.237620787474,5045.807685931854 4870.327790731226,5036.297120768903 4873.417960674978,5026.786555605952 4881.5081306187285,5020.908703083029 4878.41796067498,5011.398137920077 4888.417960674981,5011.398137920079 4891.5081306187285,5020.9087030830315 4899.598300562479,5015.030850560108 4891.5081306187285,5020.9087030830315 4883.417960674978,5026.786555605954 4891.5081306187285,5020.9087030830315 4894.59830056248,5011.39813792008 4891.5081306187285,5020.9087030830315 4899.598300562479,5015.030850560108 4896.508130618728,5024.541415723059 4906.5081306187285,5024.541415723062 4914.598300562477,5030.419268245988 4924.598300562477,5030.41926824599 4921.508130618726,5039.929833408942 4924.598300562477,5030.41926824599 4916.5081306187285,5024.541415723063" stroke="black" stroke-linecap="round" stroke-width="1" /><polyline clip-path="url(#border_clip)" fill="none" points="4916.5081306187285,5024.541415723063 4924.598300562477,5030.41926824599 4916.508130618726,5036.297120768913 4913.4179606749785,5026.7865556059605 4905.327790731228,5032.664408128884 4902.237620787476,5042.174973291835 4894.147450843725,5048.052825814759 4902.237620787476,5042.174973291835 4910.327790731224,5048.0528258147615 4902.237620787473,5053.930678337685 4905.327790731225,5044.420113174734 4897.237620787477,5038.542260651807 4900.327790731229,5029.031695488856 4910.327790731229,5029.0316954888585 4902.237620787478,5034.909548011781 4910.327790731229,5029.0316954888585 4920.327790731229,5029.03169548886 4917.237620787477,5038.542260651811 4909.147450843726,5044.420113174735 4917.237620787475,5050.297965697661 4914.147450843723,5059.808530860612 4917.23762078747,5069.319096023565 4920.327790731222,5059.808530860614 4912.237620787471,5065.686383383537 4920.3277907312195,5071.564235906463 4928.41796067497,5065.6863833835405 4938.417960674971,5065.686383383542 4941.5081306187185,5075.196948546495 4938.417960674967,5084.707513709446 4935.3277907312195,5075.196948546493 4938.417960674971,5065.686383383542 4941.508130618722,5056.175818220591 4949.598300562471,5062.0536707435185 4957.688470506222,5056.175818220595 4960.778640449974,5046.665253057644 4963.868810393721,5056.175818220597 4966.958980337473,5046.665253057645 4975.049150281224,5040.787400534722 4965.049150281224,5040.78740053472 4961.958980337476,5031.276835371767 4958.868810393724,5040.7874005347185 4961.958980337476,5031.276835371767 4951.958980337476,5031.276835371766" stroke="black" stroke-linecap="round" stroke-width="1" /><polyline clip-path="url(#border_clip)" fill="none" points="4951.958980337476,5031.276835371766 4960.0491502812265,5025.398982848842 4968.139320224977,5019.521130325919 4976.229490168726,5025.398982848846 4984.319660112477,5019.521130325922 4974.319660112476,5019.52113032592 4977.409830056228,5010.010565162969 4969.319660112477,5015.888417685892 4972.409830056225,5025.398982848845 4982.4098300562255,5025.398982848847 4974.319660112474,5031.27683537177 4966.2294901687255,5025.398982848844 4958.139320224977,5019.521130325917 4961.229490168725,5029.031695488869 4969.319660112473,5034.909548011796 4977.409830056225,5029.031695488873 4969.3196601124755,5023.153842965946 4977.409830056226,5017.275990443023 4980.499999999978,5007.765425280072 4977.409830056231,4998.254860117119 4969.31966011248,5004.132712640043 4979.31966011248,5004.132712640045 4989.319660112481,5004.1327126400465 4992.409830056232,4994.6221474770955 4995.499999999984,4985.1115823141445 4998.590169943732,4994.622147477097 5006.68033988748,5000.500000000024 5003.590169943728,5010.010565162975 5006.68033988748,5000.500000000024 5003.590169943728,5010.010565162975 5000.499999999981,5000.500000000023" stroke="black" stroke-linecap="round" stroke-width="1" /></svg>