<?xml version="1.0" encoding="utf-8" ?>
<svg baseProfile="full" height="1000px" version="1.1" width="1000px" xmlns="http://www.w3.org/2000/svg" xmlns:ev="http://www.w3.org/2001/xml-events" xmlns:xlink="http://www.w3.org/1999/xlink"><defs><clipPath id="border_clip"><rect height="1000" width="1000" x="0" y="0" /></clipPath></defs><polyline clip-path="url(#border_clip)" fill="none" points="500.5,500.5 510.5,500.5 518.5901699437495,494.62214747707526 526.6803398874989,488.7442949541505 518.5901699437495,482.8664424312258 510.5,476.9885899083011 507.40983005625054,467.47802474534956 497.40983005625054,467.4780247453495 500.5,457.96745958239796 510.5,457.96745958239796 507.40983005625054,448.4568944194465 510.5,457.96745958239796 513.5901699437495,467.47802474534956 510.5,457.96745958239796 502.40983005625054,452.0896070594732 510.5,457.96745958239796 507.40983005625054,448.4568944194464 515.5,454.3347469423712 518.5901699437495,444.82418177941963 526.680339887499,438.94632925649495 529.7705098312485,429.4357640935434 537.860679774998,435.31361661646815 529.7705098312485,429.4357640935434 521.680339887499,435.31361661646815 529.7705098312485,429.4357640935434 532.860679774998,438.94632925649495 522.860679774998,438.94632925649495 525.9508497187473,448.4568944194465 534.0410196624969,454.3347469423712 537.1311896062463,463.8453121053228 534.0410196624969,454.3347469423712 542.1311896062464,448.45689441944654 545.2213595499958,457.9674595823981 537.1311896062464,452.08960705947334 529.0410196624969,457.967459582398 520.9508497187473,452.0896070594733 524.0410196624969,442.57904189652174 527.1311896062464,452.0896070594733 524.0410196624969,442.57904189652174 527.1311896062464,433.0684767335702 535.2213595499959,438.946329256495 538.3115294937453,448.45689441944654 546.4016994374948,442.57904189652186" stroke="black" stroke-linecap="round" stroke-width="1" /><polyline clip-path="url(#border_clip)" fill="none" points="546.4016994374948,442.57904189652186 554.4918693812442,448.4568944194466 564.4918693812442,448.4568944194467 556.4016994374948,442.5790418965219 559.4918693812442,452.08960705947345 567.5820393249937,446.21175453654877 564.4918693812443,436.70118937359723 567.5820393249938,427.1906242106457 577.5820393249938,427.19062421064575 585.6722092687434,433.06847673357055 575.6722092687434,433.0684767335705 567.5820393249938,427.1906242106457 559.4918693812444,421.3127716877209 567.582039324994,415.4349191647962 564.4918693812446,405.9243540018446 556.4016994374952,400.0465014789198 566.4016994374952,400.0465014789199 558.3115294937456,394.1686489559951 555.2213595499962,384.6580837930435 552.1311896062467,394.168648955995 542.1311896062467,394.16864895599497 550.2213595499961,400.04650147891977 542.1311896062467,394.16864895599497 539.0410196624971,403.67921411894645 535.9508497187478,394.1686489559949 532.8606797749984,384.6580837930433 540.9508497187479,378.78023127011863 537.8606797749985,369.26966610716704 534.7705098312489,378.7802312701186 526.6803398874995,372.9023787471938 529.7705098312489,382.4129439101454 539.7705098312489,382.4129439101455 542.8606797749985,372.90237874719395 545.9508497187478,382.4129439101455 537.8606797749983,388.29079643307017 529.7705098312488,394.16864895599485 539.7705098312488,394.1686489559949 547.8606797749983,388.2907964330703 544.770509831249,378.7802312701187 536.6803398874994,384.6580837930434 533.59016994375,375.1475186300918 525.5000000000006,369.2696661071669 515.5000000000006,369.2696661071668" stroke="black" stroke-linecap="round" stroke-width="1" /><polyline clip-path="url(#border_clip)" fill="none" points="515.5000000000006,369.2696661071668 518.59016994375,378.7802312701184 521.6803398874995,369.2696661071669 524.7705098312491,359.7591009442154 516.6803398874997,353.8812484212906 508.59016994375025,348.00339589836574 518.5901699437503,348.00339589836585 526.6803398874998,342.1255433754412 534.7705098312492,348.003395898366 526.6803398874998,342.1255433754412 534.7705098312492,348.003395898366 524.7705098312492,348.0033958983659 527.8606797749989,338.4928307354144 530.9508497187484,328.9822655724629 527.8606797749991,319.4717004095113 524.7705098312497,309.9611352465597 516.6803398875002,315.83898776948433 508.59016994375054,321.716840292409 498.59016994375054,321.7168402924089 495.50000000000097,331.22740545536044 487.40983005625156,325.3495529324356 490.50000000000114,315.8389877694841 480.50000000000114,315.838987769484 490.50000000000114,315.8389877694841 500.50000000000114,315.8389877694842 490.50000000000114,315.8389877694841 482.40983005625156,321.71684029240873 490.50000000000114,315.8389877694841 480.50000000000114,315.838987769484 488.59016994375065,309.96113524655937 480.50000000000125,304.0832827236345 477.4098300562519,294.5727175606829 469.3196601125025,288.69486503775806 477.4098300562521,282.81701251483344 469.3196601125025,288.69486503775806 472.40983005625185,298.20543020070966 469.3196601125025,288.69486503775806 479.3196601125025,288.6948650377582 476.22949016875293,298.20543020070966 486.22949016875293,298.2054302007098 494.3196601125025,292.3275776777852 504.3196601125025,292.32757767778537 494.3196601125025,292.3275776777852" stroke="black" stroke-linecap="round" stroke-width="1" /><polyline clip-path="url(#border_clip)" fill="none" points="494.3196601125025,292.3275776777852 491.22949016875316,282.8170125148336 501.22949016875316,282.8170125148338 493.1393202250036,288.6948650377584 496.22949016875293,298.20543020071 488.13932022500336,304.0832827236346 480.04915028125396,298.20543020070977 490.04915028125396,298.2054302007099 480.04915028125396,298.20543020070977 471.95898033750456,292.32757767778486 480.04915028125413,286.4497251548603 490.0491502812542,286.4497251548604 486.95898033750484,276.9391599919088 495.0491502812544,271.06130746898424 498.13932022500404,261.5507423060327 490.04915028125447,267.42859482895733 500.04915028125447,267.4285948289575 496.9589803375052,257.9180296660059 486.9589803375051,257.91802966600574 478.8688103937558,252.04017714308085 481.9589803375054,242.52961198012935 490.049150281255,236.65175945720478 486.95898033750535,246.16232462015628 478.8688103937558,252.04017714308088 470.77864045000615,257.9180296660055 467.68847050625686,248.40746450305386 457.68847050625686,248.4074645030537 449.59830056250723,254.2853170259783 452.6884705062569,244.77475186302678 444.5983005625073,250.65260438595138 434.5983005625073,250.65260438595118 442.6884705062567,256.5304569088761 439.598300562507,266.04102207182757 447.68847050625664,260.163169548903 439.598300562507,266.04102207182757 447.6884705062564,271.9188745947525 437.68847050625635,271.9188745947523 427.68847050625635,271.9188745947521 424.59830056250706,262.4083094318005 414.598300562507,262.40830943180026 422.6884705062564,268.2861619547252 414.5983005625068,274.16401447764974 424.5983005625068,274.16401447764997" stroke="black" stroke-linecap="round" stroke-width="1" /><polyline clip-path="url(#border_clip)" fill="none" points="424.5983005625068,274.16401447764997 427.68847050625646,264.6534493146985 419.5983005625071,258.7755967917735 429.5983005625071,258.77559679177375 432.6884705062564,268.28616195472534 435.7786404500057,277.796727117677 438.8688103937553,268.2861619547255 435.7786404500061,258.77559679177386 425.77864045000604,258.77559679177364 428.8688103937553,268.2861619547253 418.8688103937553,268.28616195472506 410.7786404500057,274.16401447764963 407.688470506256,283.6745796406011 417.68847050625607,283.67457964060134 409.59830056250667,277.7967271176764 401.5081306187573,271.9188745947515 393.4179606750077,277.7967271176761 385.3277907312581,283.67457964060065 388.41796067500775,274.1640144776492 385.3277907312585,264.6534493146976 393.4179606750081,258.77559679177295 385.32779073125846,264.6534493146976 393.4179606750081,258.77559679177295 390.3277907312584,268.28616195472443 382.23762078750906,262.4083094317995 374.1474508437597,256.5304569088746 364.14745084375966,256.5304569088744 354.14745084375966,256.53045690887416 357.23762078750894,266.04102207182575 360.3277907312582,275.55158723477734 357.2376207875085,285.0621523977288 365.3277907312578,290.9400049206538 357.23762078750815,296.8178574435783 349.14745084375886,290.9400049206534 346.0572809000091,300.4505700836049 349.14745084375886,290.9400049206534 352.23762078750855,281.4294397577019 349.14745084375886,290.9400049206534 352.2376207875081,300.45057008360504 349.14745084375886,290.9400049206534 346.0572809000091,300.4505700836049 342.96711095625983,290.9400049206532 334.8769410125102,296.8178574435778" stroke="black" stroke-linecap="round" stroke-width="1" /><polyline clip-path="url(#border_clip)" fill="none" points="334.8769410125102,296.8178574435778 324.8769410125102,296.8178574435775 316.7867710687606,302.6957099665021 313.6966011250113,293.18514480355043 316.7867710687606,302.6957099665021 326.7867710687606,302.69570996650236 316.7867710687606,302.6957099665021 319.8769410125103,293.1851448035506 327.9671109562596,299.0629973264755 331.05728090000935,289.55243216352403 327.9671109562601,280.04186700057244 331.0572809000098,270.53130183762096 327.9671109562601,280.04186700057244 317.96711095626006,280.04186700057215 321.0572809000098,270.5313018376207 324.1474508437591,280.0418670005723 334.1474508437591,280.04186700057255 337.2376207875083,289.55243216352426 329.14745084375863,295.4302846864488 332.2376207875084,285.9197195234973 329.14745084375863,295.4302846864488 321.057280900009,301.3081372093733 317.9671109562598,291.79757204642164 321.0572809000095,282.28700688347016 311.05728090000946,282.28700688346987 307.9671109562603,272.7764417205182 299.87694101251094,266.89858919759325 302.96711095626017,276.4091543605449 306.0572809000099,266.8985891975934 296.05728090000986,266.89858919759314 292.9671109562601,276.4091543605446 284.87694101251043,282.28700688346913 276.78677106876114,276.4091543605441 273.69660112501197,266.8985891975925 281.78677106876125,272.7764417205175 284.87694101251043,282.28700688346913 287.96711095625966,291.7975720464208 277.9671109562596,291.7975720464205 274.87694101250986,301.308137209372 277.96711095625903,310.8187023723236 269.87694101250975,304.94084984939866 272.9671109562589,314.45141501235025 269.8769410125092,323.96198017530173" stroke="black" stroke-linecap="round" stroke-width="1" /><polyline clip-path="url(#border_clip)" fill="none" points="269.8769410125092,323.96198017530173 277.96711095625886,318.0841276523772 286.0572809000082,323.96198017530224 282.967110956259,314.4514150123506 286.0572809000082,323.96198017530224 294.14745084375784,318.08412765237773 291.0572809000081,327.5946928153292 287.96711095625835,337.1052579782807 277.9671109562583,337.1052579782804 274.8769410125085,346.6158231412319 282.9671109562582,340.7379706183074 286.05728090000736,350.2485357812591 289.14745084375716,340.7379706183076 281.05728090000787,334.8601180953825 272.9671109562581,340.73797061830703 276.057280900008,331.22740545535555 286.057280900008,331.2274054553559 296.057280900008,331.2274054553562 287.9671109562587,325.34955293243115 277.9671109562587,325.3495529324308 274.87694101250884,334.8601180953823 284.8769410125089,334.86011809538263 281.7867710687591,344.3706832583341 284.87694101250827,353.8812484212858 292.96711095625756,359.75910094421084 296.0572809000074,350.24853578125936 287.96711095625767,356.1263883041838 279.876941012508,362.00424082710833 282.96711095625716,371.51480599006004 286.05728090000633,381.0253711530117 277.967110956257,375.14751863008667 267.967110956257,375.1475186300863 264.8769410125078,365.6369534671347 267.967110956257,375.1475186300863 264.8769410125078,365.6369534671347 272.9671109562571,371.5148059900597 264.8769410125074,377.3926585129842 256.78677106875773,383.27051103590867 253.6966011250079,392.78107619886015 250.6064311812581,402.29164136181157 260.60643118125813,402.2916413618119 270.60643118125813,402.29164136181225 278.6966011250075,408.16949388473734" stroke="black" stroke-linecap="round" stroke-width="1" /><polyline clip-path="url(#border_clip)" fill="none" points="278.6966011250075,408.16949388473734 286.78677106875716,402.2916413618128 289.87694101250634,411.80220652476453 281.7867710687566,417.680059047689 289.87694101250594,423.557911570614 281.78677106875665,417.680059047689 273.69660112500736,411.80220652476396 281.78677106875665,417.680059047689 291.7867710687567,417.6800590476893 281.78677106875665,417.680059047689 289.87694101250594,423.557911570614 279.8769410125059,423.55791157061367 282.96711095625506,433.0684767335654 279.8769410125052,442.5790418965168 282.9671109562544,452.0896070594685 272.9671109562543,452.0896070594681 282.9671109562544,452.0896070594685 286.05728090000423,442.579041896517 282.9671109562544,452.0896070594685 274.8769410125051,446.2117545365434 282.9671109562548,440.33390201361897 274.87694101250554,434.45604949069394 264.8769410125055,434.45604949069354 256.7867710687562,428.5781969677685 264.8769410125055,434.45604949069354 261.7867710687557,443.966614653645 253.69660112500637,438.08876213071994 263.6966011250064,438.08876213072034 266.78677106875625,428.57819696776886 276.7867710687563,428.57819696776926 279.8769410125054,438.08876213072097 271.78677106875614,432.2109096077959 279.8769410125054,438.08876213072097 282.96711095625454,447.5993272936727 272.9671109562545,447.5993272936723 264.8769410125052,441.7214747707472 261.78677106875534,451.2320399336987 251.7867710687553,451.2320399336983 243.69660112500554,457.1098924566227 253.6966011250056,457.1098924566231 245.6064311812563,451.23203993369805 242.51626123750646,460.74260509664947 250.60643118125574,466.62045761957455" stroke="black" stroke-linecap="round" stroke-width="1" /><polyline clip-path="url(#border_clip)" fill="none" points="250.60643118125574,466.62045761957455 253.69660112500486,476.13102278252626 245.60643118125512,482.0088753054507 235.60643118125506,482.00887530545026 243.6966011250048,476.13102278252586 253.69660112500486,476.13102278252626 263.6966011250049,476.13102278252666 260.60643118125506,485.64158794547814 268.6966011250043,491.5194404684032 278.69660112500435,491.5194404684036 270.6064311812546,497.3972929913281 280.60643118125466,497.39729299132847 288.6966011250039,503.27514551425355 285.60643118125483,493.76458035130184 293.6966011250046,487.88672782837745 283.6966011250046,487.886727828377 293.6966011250046,487.88672782837745 290.6064311812555,478.3761626654257 298.6966011250048,484.2540151883508 306.78677106875404,490.1318677112759 303.6966011250041,499.6424328742274 311.7867710687534,505.52028539715246 308.69660112500435,496.00972023420076 318.69660112500435,496.00972023420115 310.6064311812551,490.1318677112761 302.5162612375053,496.0097202342005 305.60643118125444,505.5202853971522 297.5162612375052,499.6424328742271 300.60643118125506,490.1318677112756 303.69660112500503,480.6213025483242 295.60643118125523,486.4991550712486 292.5162612375053,496.0097202342001 300.6064311812546,501.88757275712516 303.69660112500446,492.37700759417373 311.78677106875375,498.2548601170988 321.7867710687538,498.25486011709927 329.8769410125036,492.37700759417487 321.7867710687543,486.49915507124973 324.8769410125034,496.00972023420144 327.96711095625244,505.5202853971532 337.9671109562525,505.5202853971536 347.96711095625255,505.52028539715405 339.8769410125028,511.39813792007845" stroke="black" stroke-linecap="round" stroke-width="1" /><polyline clip-path="url(#border_clip)" fill="none" points="339.8769410125028,511.39813792007845 336.78677106875284,520.9087030830299 326.78677106875284,520.9087030830295 336.78677106875284,520.9087030830299 326.78677106875284,520.9087030830294 334.8769410125026,515.030850560105 337.96711095625164,524.5414157230568 341.0572809000007,534.0519808860086 349.14745084375,539.9298334089336 357.2376207874992,545.8076859318588 360.32779073124914,536.2971207689073 363.41796067499905,526.7865556059559 371.50813061874885,520.9087030830315 368.4179606749998,511.39813792007976 378.41796067499985,511.3981379200802 381.5081306187489,520.9087030830319 389.5983005624987,515.0308505601075 381.5081306187489,520.9087030830319 373.4179606749991,526.7865556059563 381.5081306187489,520.9087030830319 384.5983005624988,511.3981379200805 381.5081306187489,520.9087030830319 389.5983005624987,515.0308505601075 386.50813061874874,524.541415723059 396.50813061874885,524.5414157230595 404.5983005624981,530.4192682459847 414.59830056249814,530.4192682459851 411.50813061874817,539.9298334089366 414.59830056249814,530.4192682459851 406.50813061874885,524.5414157230599 414.59830056249814,530.4192682459851 406.50813061874834,536.2971207689095 403.4179606749993,526.7865556059577 395.3277907312495,532.6644081288821 392.2376207874995,542.1749732918336 384.1474508437497,548.052825814758 392.2376207874995,542.1749732918336 400.3277907312488,548.0528258147588 392.23762078749894,553.930678337683 395.3277907312489,544.4201131747317 387.2376207874997,538.5422606518065 390.3277907312496,529.031695488855 400.3277907312497,529.0316954888556" stroke="black" stroke-linecap="round" stroke-width="1" /><polyline clip-path="url(#border_clip)" fill="none" points="400.3277907312497,529.0316954888556 392.23762078749985,534.9095480117799 400.3277907312497,529.0316954888556 410.32779073124976,529.031695488856 407.2376207874998,538.5422606518075 399.14745084374994,544.4201131747318 407.23762078749917,550.297965697657 404.1474508437492,559.8085308606085 407.23762078749826,569.3190960235602 410.32779073124823,559.8085308606088 402.2376207874984,565.6863833835331 410.3277907312476,571.5642359064583 418.4179606749974,565.6863833835339 428.4179606749975,565.6863833835345 431.5081306187465,575.1969485464863 428.4179606749965,584.7075137094376 425.32779073124755,575.1969485464859 428.4179606749975,565.6863833835345 431.5081306187475,556.175818220583 439.5983005624967,562.0536707435082 447.6884705062465,556.1758182205839 450.77864044999654,546.6652530576324 453.86881039374555,556.1758182205842 456.9589803374955,546.6652530576328 465.0491502812454,540.7874005347084 455.0491502812453,540.7874005347079 451.9589803374963,531.2768353717561 448.8688103937463,540.7874005347076 451.9589803374963,531.2768353717561 441.95898033749626,531.2768353717555 450.0491502812461,525.3989828488312 458.1393202249959,519.5211303259068 466.22949016874514,525.3989828488321 474.319660112495,519.5211303259077 464.31966011249494,519.5211303259072 467.40983005624497,510.01056516295574 459.3196601124951,515.8884176858801 462.40983005624406,525.3989828488319 472.4098300562442,525.3989828488324 464.3196601124943,531.2768353717568 456.2294901687451,525.3989828488316 448.1393202249959,519.5211303259064 451.22949016874486,529.0316954888581" stroke="black" stroke-linecap="round" stroke-width="1" /><polyline clip-path="url(#border_clip)" fill="none" points="451.22949016874486,529.0316954888581 459.3196601124941,534.9095480117833 467.40983005624395,529.031695488859 459.3196601124947,523.1538429659338 467.4098300562446,517.2759904430094 470.4999999999946,507.765425280058 467.4098300562456,498.2548601171062 459.31966011249574,504.13271264003055 469.31966011249585,504.1327126400311 479.3196601124959,504.1327126400317 482.40983005624594,494.6221474770802 485.49999999999596,485.1115823141288 488.5901699437449,494.62214747708055 496.68033988749414,500.5000000000058 493.5901699437441,510.0105651629572 496.68033988749414,500.5000000000058 493.5901699437441,510.0105651629572 490.49999999999517,500.50000000000546 500.4999999999952,500.500000000006 510.49999999999534,500.5000000000066 518.5901699437452,494.62214747708225 526.680339887495,488.7442949541579 518.5901699437459,482.8664424312327 510.49999999999665,476.98858990830746 507.4098300562477,467.4780247453557 497.4098300562476,467.4780247453551 500.4999999999976,457.96745958240365 510.4999999999977,457.9674595824042 507.4098300562488,448.45689441945245 510.4999999999977,457.9674595824042 513.5901699437467,467.47802474535604 510.4999999999977,457.9674595824042 502.4098300562485,452.089607059479 510.4999999999977,457.9674595824043 507.4098300562488,448.45689441945245 515.499999999998,454.3347469423777 518.590169943748,444.8241817794263 526.6803398874979,438.946329256502 529.770509831248,429.4357640935506 537.8606797749972,435.31361661647577 529.770509831248,429.4357640935506 521.6803398874981,435.31361661647486 529.770509831248,429.4357640935506" stroke="black" stroke-linecap="round" stroke-width="1" /><polyline clip-path="url(#border_clip)" fill="none" points="529.770509831248,429.4357640935506 532.8606797749969,438.94632925650234 522.8606797749968,438.94632925650177 525.9508497187458,448.45689441945353 534.0410196624949,454.33474694237884 537.1311896062439,463.8453121053306 534.0410196624949,454.33474694237884 542.1311896062448,448.4568944194545 545.2213595499937,457.9674595824063 537.1311896062446,452.08960705948107 529.0410196624947,457.96745958240535 520.9508497187455,452.0896070594801 524.0410196624956,442.5790418965287 527.1311896062444,452.08960705948044 524.0410196624956,442.5790418965287 527.1311896062457,433.0684767335772 535.2213595499949,438.9463292565025 538.3115294937438,448.45689441945433 546.4016994374937,442.57904189653004 554.4918693812429,448.4568944194553 564.491869381243,448.4568944194559 556.4016994374938,442.5790418965306 559.4918693812426,452.08960705948243 567.5820393249926,446.21175453655815 564.4918693812436,436.7011893736063 567.5820393249937,427.19062421065496 577.5820393249938,427.1906242106555 585.672209268743,433.06847673358084 575.6722092687429,433.0684767335802 567.5820393249937,427.19062421065496 559.4918693812446,421.31277168772965 567.5820393249945,415.43491916480536 564.4918693812456,405.92435400185354 556.4016994374964,400.04650147892823 566.4016994374965,400.0465014789289 558.3115294937473,394.1686489560036 555.2213595499984,384.6580837930518 552.1311896062483,394.1686489560032 542.1311896062482,394.1686489560026 550.2213595499974,400.0465014789279 542.1311896062482,394.1686489560026 539.0410196624981,403.67921411895395 535.9508497187493,394.16864895600213" stroke="black" stroke-linecap="round" stroke-width="1" /><polyline clip-path="url(#border_clip)" fill="none" points="535.9508497187493,394.16864895600213 532.8606797750003,384.6580837930503 540.9508497187503,378.7802312701261 537.8606797750014,369.26966610717426 534.7705098312513,378.7802312701257 526.6803398875021,372.9023787472004 529.770509831251,382.4129439101522 539.770509831251,382.4129439101529 542.8606797750012,372.9023787472014 545.9508497187501,382.4129439101532 537.8606797750001,388.2907964330775 529.7705098312503,394.16864895600173 539.7705098312504,394.1686489560024 547.8606797750002,388.2907964330782 544.7705098312514,378.78023127012636 536.6803398875014,384.6580837930506 533.5901699437526,375.1475186300988 525.5000000000034,369.2696661071734 515.5000000000033,369.2696661071728 518.5901699437522,378.7802312701246 521.6803398875023,369.2696661071732 524.7705098312525,359.75910094422176 516.6803398875034,353.8812484212964 508.5901699437542,348.0033958983711 518.5901699437543,348.00339589837176 526.6803398875043,342.1255433754475 534.7705098312533,348.00339589837284 526.6803398875043,342.1255433754475 534.7705098312533,348.00339589837284 524.7705098312533,348.00339589837216 527.8606797750034,338.49283073542074 530.9508497187536,328.9822655724693 527.8606797750047,319.4717004095175 524.7705098312558,309.9611352465657 516.6803398875059,315.8389877694899 508.59016994375594,321.71684029241413 498.5901699437559,321.71684029241345 495.5000000000057,331.2274054553649 487.40983005625657,325.34955293243956 490.5000000000067,315.8389877694881 480.5000000000066,315.8389877694874 490.5000000000067,315.8389877694881 500.5000000000068,315.83898776948877" stroke="black" stroke-linecap="round" stroke-width="1" /><polyline clip-path="url(#border_clip)" fill="none" points="500.5000000000068,315.83898776948877 490.5000000000067,315.8389877694881 482.40983005625674,321.71684029241237 490.5000000000067,315.8389877694881 480.5000000000066,315.8389877694874 488.59016994375656,309.96113524656323 480.50000000000745,304.08328272363786 477.4098300562586,294.572717560686 469.31966011250944,288.6948650377607 477.4098300562594,282.81701251483645 469.31966011250944,288.6948650377607 472.4098300562583,298.2054302007125 469.31966011250944,288.6948650377607 479.31966011250955,288.69486503776136 476.22949016875936,298.20543020071284 486.22949016875947,298.2054302007135 494.31966011250944,292.3275776777893 504.31966011250955,292.32757767779003 494.31966011250944,292.3275776777893 491.2294901687606,282.8170125148374 501.2294901687607,282.81701251483815 493.13932022501075,288.6948650377624 496.2294901687596,298.2054302007142 488.1393202250096,304.0832827236384 480.04915028126044,298.20543020071307 490.04915028126055,298.20543020071375 480.04915028126044,298.20543020071307 471.9589803375113,292.32757767778764 480.0491502812613,286.4497251548635 490.0491502812614,286.4497251548642 486.95898033751257,276.93915999191233 495.0491502812626,271.06130746898816 498.1393202250128,261.55074230603674 490.04915028126277,267.42859482896097 500.0491502812629,267.42859482896165 496.9589803375141,257.91802966600983 486.958980337514,257.9180296660091 478.8688103937649,252.0401771430837 481.9589803375151,242.5296119801323 490.04915028126504,236.65175945720813 486.95898033751484,246.16232462015955 478.8688103937649,252.04017714308375 470.77864045001485,257.91802966600795" stroke="black" stroke-linecap="round" stroke-width="1" /><polyline clip-path="url(#border_clip)" fill="none" points="470.77864045001485,257.91802966600795 467.68847050626607,248.40746450305608 457.68847050626596,248.40746450305534 449.59830056251593,254.28531702597954 452.6884705062662,244.77475186302814 444.59830056251616,250.65260438595234 434.59830056251604,250.6526043859516 442.68847050626516,256.530456908877 439.59830056251496,266.04102207182837 447.68847050626493,260.1631695489042 439.59830056251496,266.04102207182837 447.6884705062641,271.9188745947538 437.68847050626397,271.918874594753 427.68847050626385,271.91887459475225 424.5983005625151,262.4083094318004 414.59830056251496,262.4083094317996 422.688470506264,268.286161954725 414.59830056251405,274.1640144776492 424.59830056251417,274.16401447764997 427.68847050626437,264.6534493146986 419.5983005625153,258.7755967917732 429.5983005625154,258.7755967917739 432.68847050626414,268.2861619547258 435.778640450013,277.7967271176777 438.86881039376317,268.28616195472625 435.7786404500144,258.77559679177443 425.7786404500143,258.77559679177364 428.86881039376306,268.2861619547255 418.86881039376294,268.2861619547248 410.778640450013,274.16401447764895 407.6884705062627,283.6745796406003 417.68847050626283,283.6745796406011 409.5983005625137,277.7967271176757 401.5081306187646,271.91887459475026 393.41796067501457,277.79672711767444 385.32779073126454,283.6745796405986 388.4179606750148,274.1640144776472 385.3277907312661,264.6534493146953 393.41796067501605,258.77559679177114 385.3277907312661,264.6534493146953 393.41796067501605,258.77559679177114 390.32779073126585,268.2861619547225 382.23762078751673,262.4083094317971" stroke="black" stroke-linecap="round" stroke-width="1" /><polyline clip-path="url(#border_clip)" fill="none" points="382.23762078751673,262.4083094317971 374.1474508437676,256.53045690887166 364.1474508437675,256.53045690887086 354.1474508437674,256.53045690887006 357.2376207875161,266.04102207182194 360.3277907312649,275.5515872347738 357.23762078751463,285.0621523977252 365.32779073126375,290.94000492065067 357.2376207875137,296.81785744357484 349.14745084376466,290.94000492064936 346.05728090001435,300.4505700836008 349.14745084376466,290.94000492064936 352.2376207875149,281.429439757698 349.14745084376466,290.94000492064936 352.2376207875134,300.4505700836013 349.14745084376466,290.94000492064936 346.05728090001435,300.4505700836008 342.9671109562656,290.9400049206489 334.87694101251554,296.817857443573 324.87694101251543,296.8178574435722 316.78677106876535,302.69570996649634 313.6966011250166,293.18514480354446 316.78677106876535,302.69570996649634 326.78677106876546,302.69570996649713 316.78677106876535,302.69570996649634 319.87694101251566,293.185144803545 327.9671109562647,299.0629973264704 331.05728090001503,289.55243216351903 327.9671109562663,280.0418670005671 331.05728090001656,270.53130183761573 327.9671109562663,280.0418670005671 317.9671109562662,280.0418670005663 321.05728090001645,270.5313018376149 324.14745084376517,280.04186700056675 334.1474508437653,280.0418670005676 337.237620787514,289.5524321635195 329.147450843764,295.43028468644366 332.2376207875143,285.9197195234923 329.147450843764,295.43028468644366 321.0572809000139,301.3081372093678 317.9671109562652,291.7975720464159 321.0572809000155,282.2870068834645 311.05728090001537,282.2870068834636" stroke="black" stroke-linecap="round" stroke-width="1" /><polyline clip-path="url(#border_clip)" fill="none" points="311.05728090001537,282.2870068834636 307.96711095626665,272.77644172051174 299.8769410125176,266.89858919758626 302.9671109562663,276.4091543605382 306.0572809000166,266.8985891975868 296.0572809000165,266.8985891975859 292.9671109562662,276.4091543605373 284.8769410125161,282.28700688346146 276.786771068767,276.4091543605359 273.69660112501833,266.89858919758404 281.7867710687674,272.7764417205095 284.8769410125161,282.28700688346146 287.9671109562648,291.7975720464134 277.96711095626466,291.79757204641254 274.8769410125143,301.30813720936396 277.967110956263,310.81870237231584 269.87694101251395,304.94084984939036 272.9671109562627,314.4514150123423 269.8769410125123,323.96198017529366 277.9671109562624,318.08412765236955 286.05728090001145,323.961980175295 282.9671109562628,314.4514150123431 286.05728090001145,323.961980175295 294.14745084376153,318.08412765237097 291.05728090001116,327.59469281532233 287.96711095626085,337.1052579782737 277.96711095626074,337.10525797827285 274.87694101251043,346.61582314122427 282.9671109562605,340.73797061830015 286.0572809000092,350.2485357812521 289.14745084375954,340.73797061830066 281.0572809000105,334.8601180953752 272.9671109562604,340.7379706182993 276.0572809000107,331.2274054553479 286.0572809000108,331.22740545534873 296.05728090001094,331.22740545534964 287.9671109562619,325.3495529324241 277.96711095626176,325.34955293242325 274.87694101251145,334.8601180953747 284.87694101251157,334.8601180953755 281.7867710687612,344.37068325832695 284.87694101250986,353.8812484212789 292.9671109562589,359.7591009442044" stroke="black" stroke-linecap="round" stroke-width="1" /><polyline clip-path="url(#border_clip)" fill="none" points="292.9671109562589,359.7591009442044 296.0572809000093,350.248535781253 287.96711095625915,356.1263883041771 279.87694101250906,362.00424082710117 282.9671109562577,371.5148059900531 286.0572809000064,381.02537115300504 277.96711095625733,375.1475186300795 267.9671109562572,375.1475186300786 264.87694101250855,365.63695346712666 267.9671109562572,375.1475186300786 264.87694101250855,365.63695346712666 272.9671109562576,371.5148059900522 264.8769410125075,377.3926585129763 256.7867710687574,383.2705110359004 253.69660112500702,392.7810761988518 250.60643118125665,402.29164136180316 260.60643118125677,402.29164136180407 270.6064311812569,402.291641361805 278.69660112500594,408.1694938847305 286.786771068756,402.2916413618064 289.87694101250474,411.80220652475833 281.7867710687546,417.6800590476824 289.87694101250366,423.5579115706079 281.7867710687546,417.6800590476824 273.69660112500554,411.80220652475685 281.78677106875455,417.6800590476824 291.7867710687547,417.6800590476833 281.7867710687546,417.6800590476824 289.8769410125036,423.5579115706079 279.8769410125035,423.557911570607 282.9671109562521,433.06847673355895 279.87694101250173,442.5790418965104 282.9671109562504,452.0896070594623 272.9671109562502,452.0896070594614 282.96711095625034,452.0896070594623 286.0572809000007,442.57904189651094 282.96711095625034,452.0896070594623 274.87694101250133,446.2117545365367 282.9671109562514,440.33390201361266 274.87694101250236,434.4560494906871 264.87694101250224,434.4560494906862 256.7867710687532,428.5781969677606 264.87694101250224,434.4560494906862" stroke="black" stroke-linecap="round" stroke-width="1" /><polyline clip-path="url(#border_clip)" fill="none" points="264.87694101250224,434.4560494906862 261.7867710687518,443.9666146536376 253.69660112500281,438.088762130712 263.6966011250029,438.08876213071295 266.7867710687533,428.5781969677616 276.78677106875347,428.5781969677625 279.87694101250213,438.0887621307145 271.78677106875307,432.2109096077889 279.87694101250213,438.0887621307145 282.96711095625074,447.5993272936664 272.96711095625056,447.59932729366545 264.87694101250156,441.72147477073986 261.78677106875114,451.2320399336912 251.78677106875097,451.2320399336903 243.69660112500083,457.1098924566144 253.69660112500094,457.1098924566153 245.6064311812519,451.23203993368975 242.5162612375015,460.7426050966411 250.6064311812505,466.62045761956665 253.69660112499912,476.13102278251864 245.60643118124898,482.00887530544264 235.60643118124887,482.0088753054417 243.696601124999,476.1310227825177 253.69660112499915,476.13102278251864 263.6966011249993,476.1310227825196 260.60643118124887,485.641587945471 268.69660112499787,491.51944046839657 278.696601124998,491.51944046839753 270.6064311812479,497.39729299132154 280.606431181248,497.3972929913225 288.696601124997,503.2751455142481 285.60643118124847,493.76458035129616 293.69660112499855,487.8867278283721 283.69660112499844,487.88672782837114 293.69660112499855,487.8867278283721 290.60643118125,478.37616266542017 298.696601124999,484.25401518834576 306.786771068748,490.13186771127135 303.6966011249975,499.6424328742227 311.7867710687466,505.5202853971483 308.696601124998,496.0097202341964 318.6966011249981,496.00972023419735 310.60643118124915,490.13186771127175" stroke="black" stroke-linecap="round" stroke-width="1" /><polyline clip-path="url(#border_clip)" fill="none" points="310.60643118124915,490.13186771127175 302.51626123749895,496.00972023419575 305.60643118124756,505.5202853971477 297.5162612374985,499.6424328742221 300.606431181249,490.13186771127073 303.69660112499946,480.6213025483194 295.60643118124926,486.4991550712434 292.51626123749884,496.00972023419473 300.6064311812478,501.8875727571204 303.69660112499827,492.377007594169 311.78677106874727,498.2548601170946 321.7867710687474,498.25486011709563 329.8769410124976,492.37700759417163 321.7867710687486,486.49915507124604 324.8769410124971,496.00972023419797 327.9671109562457,505.52028539714996 337.96711095624585,505.52028539715093 347.96711095624596,505.52028539715195 339.87694101249576,511.39813792007595 336.78677106874534,520.9087030830273 326.78677106874517,520.9087030830262 336.78677106874534,520.9087030830273 326.78677106874517,520.9087030830262 334.8769410124953,515.0308505601023 337.9671109562439,524.5414157230542 341.0572808999924,534.0519808860063 349.1474508437414,539.9298334089319 357.2376207874904,545.8076859318575 360.32779073124084,536.2971207689062 363.4179606749914,526.7865556059548 371.5081306187415,520.9087030830308 368.41796067499297,511.39813792007885 378.4179606749931,511.3981379200799 381.50813061874163,520.9087030830318 389.59830056249183,515.0308505601079 381.50813061874163,520.9087030830318 373.4179606749915,526.7865556059559 381.50813061874163,520.9087030830318 384.5983005624921,511.3981379200805 381.50813061874163,520.9087030830318 389.59830056249183,515.0308505601079 386.50813061874135,524.5414157230592 396.50813061874146,524.5414157230603" stroke="black" stroke-linecap="round" stroke-width="1" /><polyline clip-path="url(#border_clip)" fill="none" points="396.50813061874146,524.5414157230603 404.59830056249046,530.4192682459859 414.5983005624906,530.4192682459869 411.5081306187401,539.9298334089383 414.5983005624906,530.4192682459869 406.50813061874163,524.5414157230613 414.5983005624906,530.4192682459869 406.5081306187404,536.2971207689109 403.4179606749919,526.7865556059589 395.3277907312417,532.6644081288829 392.23762078749115,542.1749732918342 384.14745084374096,548.0528258147582 392.23762078749115,542.1749732918342 400.32779073124016,548.0528258147599 392.23762078748996,553.9306783376838 395.32779073124044,544.4201131747325 387.2376207874915,538.5422606518068 390.32779073124203,529.0316954888555 400.32779073124215,529.0316954888566 392.23762078749195,534.9095480117805 400.32779073124215,529.0316954888566 410.3277907312423,529.0316954888576 407.2376207874918,538.542260651809 399.1474508437416,544.4201131747329 407.2376207874905,550.2979656976586 404.14745084374,559.80853086061 407.2376207874885,569.319096023562 410.327790731239,559.8085308606106 402.2376207874888,565.6863833835346 410.32779073123777,571.5642359064602 418.41796067498797,565.6863833835363 428.41796067498814,565.6863833835373 431.50813061873663,575.1969485464894 428.4179606749861,584.7075137094407 425.3277907312376,575.1969485464887 428.41796067498814,565.6863833835373 431.50813061873873,556.175818220586 439.5983005624877,562.0536707435117 447.6884705062379,556.1758182205878 450.7786404499885,546.6652530576364 453.8688103937369,556.1758182205884 456.9589803374875,546.6652530576371 465.04915028123776,540.7874005347131" stroke="black" stroke-linecap="round" stroke-width="1" /><polyline clip-path="url(#border_clip)" fill="none" points="465.04915028123776,540.7874005347131 455.0491502812376,540.7874005347121 451.9589803374891,531.2768353717601 448.86881039373856,540.7874005347114 451.9589803374891,531.2768353717601 441.9589803374889,531.2768353717589 450.0491502812392,525.398982848835 458.13932022498943,519.521130325911 466.2294901687384,525.3989828488368 474.31966011248863,519.5211303259128 464.31966011248846,519.5211303259117 467.40983005623906,510.0105651629604 459.3196601124888,515.8884176858843 462.4098300562373,525.3989828488363 472.4098300562374,525.3989828488375 464.31966011248716,531.2768353717614 456.2294901687382,525.3989828488357 448.13932022498926,519.52113032591 451.22949016873775,529.0316954888619 459.3196601124867,534.9095480117877 467.40983005623696,529.0316954888638 459.319660112488,523.1538429659381 467.40983005623826,517.2759904430142 470.49999999998886,507.7654252800628 467.40983005624037,498.25486011711075 459.3196601124901,504.1327126400347 469.3196601124903,504.13271264003583 479.31966011249045,504.1327126400369 482.40983005624105,494.6221474770856 485.4999999999916,485.11158231413424 488.5901699437401,494.6221474770863 496.680339887489,500.500000000012 493.59016994373843,510.01056516296336 496.680339887489,500.500000000012 493.59016994373843,510.01056516296336 490.49999999999,500.5000000000113 500.4999999999901,500.50000000001245 510.4999999999903,500.5000000000136 518.5901699437405,494.62214747708964 526.6803398874908,488.74429495416575 518.5901699437419,482.86644243124 510.49999999999295,476.9885899083143 507.4098300562445,467.47802474536223" stroke="black" stroke-linecap="round" stroke-width="1" /><polyline clip-path="url(#border_clip)" fill="none" points="507.4098300562445,467.47802474536223 497.40983005624435,467.4780247453611 500.49999999999494,457.9674595824098 510.4999999999951,457.9674595824109 507.4098300562467,448.4568944194589 510.4999999999951,457.9674595824109 513.5901699437435,467.478024745363 510.4999999999951,457.9674595824109 502.40983005624616,452.08960705948516 510.4999999999951,457.9674595824109 507.4098300562467,448.4568944194589 515.4999999999956,454.33474694238464 518.5901699437462,444.8241817794333 526.6803398874965,438.9463292565094 529.7705098312471,429.4357640935581 537.860679774996,435.31361661648384 529.7705098312471,429.4357640935581 521.6803398874969,435.31361661648197 529.7705098312471,429.4357640935581 532.8606797749956,438.9463292565101 522.8606797749953,438.946329256509 525.9508497187438,448.45689441946104 534.0410196624928,454.3347469423868 537.1311896062412,463.84531210533885 534.0410196624928,454.3347469423868 542.131189606243,448.4568944194629 545.2213595499915,457.96745958241496 537.1311896062425,452.0896070594892 529.0410196624922,457.9674595824131 520.9508497187433,452.0896070594873 524.0410196624939,442.57904189653595 527.1311896062423,452.089607059488 524.0410196624939,442.57904189653595 527.1311896062446,433.06847673358465 535.2213595499935,438.9463292565104 538.3115294937419,448.45689441946246 546.4016994374922,442.57904189653857 554.4918693812411,448.45689441946433 564.4918693812413,448.4568944194655 556.4016994374923,442.57904189653976 559.4918693812408,452.0896070594918 567.582039324991,446.2117545365679 564.4918693812426,436.7011893736159" stroke="black" stroke-linecap="round" stroke-width="1" /><polyline clip-path="url(#border_clip)" fill="none" points="564.4918693812426,436.7011893736159 567.5820393249933,427.19062421066457 577.5820393249935,427.19062421066576 585.6722092687423,433.0684767335915 575.6722092687422,433.06847673359033 567.5820393249933,427.1906242106645 559.4918693812444,421.31277168773875 567.5820393249948,415.4349191648149 564.4918693812463,405.9243540018628 556.4016994374974,400.04650147893705 566.4016994374975,400.04650147893824 558.3115294937487,394.1686489560124 555.2213595500003,384.65808379306037 552.1311896062496,394.1686489560117 542.1311896062494,394.1686489560105 550.2213595499984,400.0465014789363 542.1311896062494,394.1686489560105 539.0410196624988,403.6792141189618 535.9508497187504,394.16864895600975 532.860679775002,384.6580837930577 540.9508497187524,378.78023127013387 537.860679775004,369.26966610718176 534.7705098312533,378.7802312701331 526.6803398875044,372.9023787472073 529.7705098312528,382.41294391015936 539.770509831253,382.41294391016055 542.8606797750036,372.90237874720924 545.950849718752,382.4129439101613 537.8606797750017,388.2907964330851 529.7705098312514,394.168648956009 539.7705098312515,394.1686489560102 547.8606797750018,388.29079643308637 544.7705098312534,378.7802312701343 536.6803398875031,384.65808379305815 533.5901699437547,375.1475186301061 525.5000000000059,369.2696661071802 515.5000000000057,369.26966610717903 518.5901699437541,378.78023127013114 521.6803398875047,369.2696661071798 524.7705098312555,359.7591009442285 516.6803398875065,353.88124842130264 508.5901699437577,348.0033958983769 518.5901699437578,348.0033958983781" stroke="black" stroke-linecap="round" stroke-width="1" /><polyline clip-path="url(#border_clip)" fill="none" points="518.5901699437578,348.0033958983781 526.6803398875081,342.12554337545424 534.7705098312571,348.00339589838006 526.6803398875081,342.12554337545424 534.7705098312571,348.00339589838006 524.7705098312568,348.0033958983788 527.8606797750076,338.49283073542756 530.9508497187583,328.9822655724762 527.8606797750099,319.47170040952415 524.7705098312616,309.9611352465721 516.6803398875113,315.83898776949593 508.59016994376094,321.71684029241976 498.59016994376077,321.7168402924185 495.50000000001006,331.22740545536976 487.40983005626117,325.349552932444 490.5000000000119,315.83898776949263 480.5000000000117,315.8389877694914 490.5000000000119,315.83898776949263 500.50000000001205,315.8389877694939 490.5000000000119,315.83898776949263 482.4098300562615,321.71684029241646 490.5000000000119,315.83898776949263 480.5000000000117,315.8389877694914 488.590169943762,309.96113524656755 480.5000000000132,304.08328272364173 477.4098300562648,294.5727175606896 469.319660112516,288.6948650377638 477.4098300562663,282.81701251484003 469.319660112516,288.6948650377638 472.4098300562643,298.2054302007159 469.319660112516,288.6948650377638 479.31966011251615,288.69486503776506 476.22949016876544,298.20543020071636 486.22949016876555,298.2054302007176 494.3196601125159,292.3275776777938 504.3196601125161,292.32757767779503 494.3196601125159,292.3275776777938 491.2294901687676,282.81701251484174 501.22949016876777,282.817012514843 493.1393202250174,288.6948650377668 496.2294901687657,298.20543020071887 488.13932022501535,304.0832827236427 480.0491502812665,298.2054302007168" stroke="black" stroke-linecap="round" stroke-width="1" /><polyline clip-path="url(#border_clip)" fill="none" points="480.0491502812665,298.2054302007168 490.0491502812667,298.2054302007181 480.0491502812665,298.2054302007168 471.9589803375177,292.32757767779094 480.049150281268,286.44972515486717 490.04915028126817,286.4497251548685 486.9589803375199,276.9391599919163 495.0491502812703,271.06130746899254 498.139320225021,261.55074230604123 490.0491502812706,267.42859482896506 500.0491502812708,267.4285948289663 496.9589803375225,257.9180296660142 486.95898033752235,257.9180296660129 478.86881039377346,252.04017714308705 481.9589803375242,242.52961198013577 490.0491502812746,236.651759457212 486.9589803375238,246.1623246201633 478.86881039377346,252.04017714308708 470.7786404500231,257.91802966601085 467.6884705062748,248.40746450305875 457.6884705062746,248.40746450305744 449.59830056252423,254.28531702598121 452.688470506275,244.7747518630299 444.5983005625246,250.65260438595368 434.59830056252446,250.65260438595237 442.6884705062733,256.53045690887825 439.5983005625225,266.0410220718296 447.6884705062729,260.1631695489058 439.5983005625225,266.0410220718296 447.68847050627136,271.9188745947555 437.6884705062712,271.9188745947542 427.688470506271,271.9188745947529 424.59830056252275,262.4083094318008 414.5983005625226,262.40830943179947 422.6884705062714,268.28616195472534 414.598300562521,274.1640144776491 424.59830056252116,274.1640144776504 427.688470506272,264.6534493146992 419.59830056252315,258.7755967917733 429.59830056252326,258.7755967917746 432.6884705062715,268.2861619547267 435.7786404500198,277.7967271176788 438.8688103937706,268.2861619547275" stroke="black" stroke-linecap="round" stroke-width="1" /><polyline clip-path="url(#border_clip)" fill="none" points="438.8688103937706,268.2861619547275 435.77864045002235,258.77559679177546 425.7786404500222,258.7755967917741 428.86881039377045,268.2861619547262 418.8688103937703,268.2861619547249 410.7786404500199,274.1640144776486 407.6884705062691,283.67457964059986 417.68847050626925,283.6745796406012 409.5983005625204,277.79672711767535 401.5081306187716,271.9188745947494 393.41796067502116,277.7967271176732 385.3277907312708,283.6745796405969 388.4179606750216,274.16401447764565 385.32779073127335,264.6534493146935 393.4179606750238,258.7755967917698 385.32779073127335,264.6534493146935 393.4179606750238,258.7755967917698 390.32779073127296,268.286161954721 382.2376207875241,262.4083094317951 374.1474508437753,256.53045690886916 364.1474508437751,256.5304569088678 354.14745084377495,256.5304569088665 357.23762078752316,266.0410220718186 360.3277907312714,275.55158723477075 357.2376207875206,285.062152397722 365.32779073126943,290.940004920648 357.237620787519,296.8178574435717 349.1474508437702,290.9400049206458 346.05728090001935,300.4505700835971 349.1474508437702,290.9400049206458 352.237620787521,281.42943975769447 349.1474508437702,290.9400049206458 352.2376207875184,300.4505700835979 349.1474508437702,290.9400049206458 346.05728090001935,300.4505700835971 342.9671109562711,290.9400049206449 334.87694101252066,296.81785744356864 324.87694101252055,296.8178574435673 316.7867710687701,302.69570996649105 313.69660112502186,293.18514480353895 316.7867710687701,302.69570996649105 326.78677106877024,302.6957099664924 316.7867710687701,302.69570996649105" stroke="black" stroke-linecap="round" stroke-width="1" /><polyline clip-path="url(#border_clip)" fill="none" points="316.7867710687701,302.69570996649105 319.8769410125209,293.18514480353974 327.9671109562697,299.06299732646573 331.05728090002054,289.5524321635145 327.96711095627234,280.0418670005623 331.05728090002316,270.53130183761107 327.96711095627234,280.0418670005623 317.9671109562721,280.04186700056096 321.057280900023,270.5313018376097 324.14745084377114,280.0418670005618 334.14745084377137,280.04186700056323 337.2376207875196,289.55243216351533 329.14745084376915,295.43028468643905 332.23762078752,285.91971952348774 329.14745084376915,295.43028468643905 321.05728090001867,301.30813720936277 317.9671109562705,291.79757204641066 321.05728090002134,282.28700688345936 311.05728090002117,282.28700688345793 307.9671109562729,272.77644172050583 299.8769410125241,266.8985891975799 302.96711095627234,276.40915436053206 306.0572809000232,266.89858919758075 296.057280900023,266.8985891975793 292.9671109562721,276.40915436053064 284.8769410125217,282.28700688345435 276.78677106877285,276.40915436052836 273.6966011250247,266.8985891975762 281.78677106877353,272.7764417205022 284.8769410125217,282.28700688345435 287.96711095626983,291.7975720464065 277.96711095626966,291.7975720464051 274.8769410125188,301.30813720935635 277.967110956267,310.8187023723085 269.87694101251816,304.9408498493825 272.9671109562663,314.4514150123347 269.87694101251543,323.961980175286 277.96711095626597,318.0841276523623 286.05728090001475,323.9619801752883 282.96711095626654,314.45141501233616 286.05728090001475,323.9619801752883 294.1474508437652,318.0841276523646 291.05728090001435,327.59469281531585" stroke="black" stroke-linecap="round" stroke-width="1" /><polyline clip-path="url(#border_clip)" fill="none" points="291.05728090001435,327.59469281531585 287.9671109562634,337.10525797826716 277.96711095626324,337.10525797826574 274.8769410125123,346.615823141217 282.9671109562628,340.73797061829333 286.05728090001094,350.2485357812455 289.1474508437619,340.7379706182942 281.0572809000131,334.8601180953682 272.9671109562626,340.7379706182919 276.05728090001355,331.2274054553406 286.0572809000137,331.227405455342 296.0572809000139,331.2274054553435 287.9671109562652,325.3495529324175 277.96711095626495,325.34955293241603 274.87694101251407,334.8601180953673 284.87694101251424,334.86011809536876 281.7867710687633,344.37068325832 284.87694101251145,353.8812484212722 292.9671109562603,359.7591009441982 296.05728090001116,350.2485357812469 287.9671109562607,356.12638830417063 279.8769410125102,362.00424082709435 282.96711095625835,371.5148059900465 286.0572809000065,381.0253711529987 277.9671109562577,375.1475186300726 267.96711095625756,375.1475186300712 264.8769410125094,365.63695346711904 267.96711095625756,375.1475186300712 264.8769410125094,365.63695346711904 272.9671109562581,371.51480599004503 264.8769410125077,377.3926585129687 256.78677106875716,383.27051103589235 253.69660112500628,392.7810761988436 250.60643118125537,402.29164136179486 260.6064311812556,402.29164136179634 270.60643118125574,402.2916413617978 278.6966011250046,408.1694938847238 286.786771068755,402.29164136180015 289.87694101250315,411.8022065247523 281.7867710687527,417.68005904767597 289.87694101250145,423.557911570602 281.7867710687527,417.68005904767597 273.6966011250039,411.80220652475" stroke="black" stroke-linecap="round" stroke-width="1" /><polyline clip-path="url(#border_clip)" fill="none" points="273.6966011250039,411.80220652475 281.7867710687527,417.68005904767597 291.7867710687529,417.68005904767745 281.7867710687527,417.68005904767597 289.87694101250145,423.557911570602 279.8769410125013,423.55791157060054 282.96711095624937,433.0684767335527 279.8769410124985,442.579041896504 282.9671109562466,452.08960705945617 272.9671109562464,452.0896070594547 282.9671109562466,452.08960705945617 286.0572808999975,442.5790418965049 282.9671109562466,452.08960705945617 274.8769410124978,446.2117545365301 282.96711095624835,440.33390201360646 274.87694101249957,434.4560494906804 264.8769410124994,434.45604949067894 256.7867710687506,428.5781969677529 264.8769410124994,434.45604949067894 261.7867710687484,443.9666146536302 253.69660112499966,438.08876213070414 263.69660112499986,438.0887621307056 266.7867710687508,428.57819696775437 276.786771068751,428.5781969677559 279.8769410124992,438.08876213070806 271.7867710687504,432.210909607782 279.8769410124992,438.08876213070806 282.9671109562472,447.5993272936603 272.96711095624704,447.59932729365875 264.87694101249826,441.7214747707327 261.7867710687473,451.23203993368395 251.78677106874713,451.2320399336824 243.69660112499662,457.1098924566061 253.69660112499682,457.10989245660755 245.60643118124807,451.2320399336815 242.51626123749708,460.74260509663276 250.60643118124582,466.6204576195588 253.69660112499392,476.131022782511 245.60643118124338,482.00887530543463 235.60643118124318,482.0088753054331 243.69660112499372,476.1310227825095 253.69660112499392,476.131022782511 263.6966011249941,476.13102278251256" stroke="black" stroke-linecap="round" stroke-width="1" /><polyline clip-path="url(#border_clip)" fill="none" points="263.6966011249941,476.13102278251256 260.6064311812431,485.6415879454638 268.69660112499184,491.51944046838986 278.69660112499207,491.5194404683914 270.60643118124153,497.397292991315 280.60643118124176,497.39729299131653 288.6966011249905,503.27514551424264 285.60643118124244,493.7645803512904 293.696601124993,487.8867278283668 283.69660112499275,487.8867278283653 293.696601124993,487.8867278283668 290.6064311812449,478.3761626654146 298.69660112499366,484.2540151883407 306.7867710687424,490.1318677112668 303.6966011249914,499.64243287421806 311.7867710687401,505.52028539714416 308.69660112499207,496.00972023419195 318.69660112499224,496.0097202341935 310.6064311812435,490.13186771126743 302.516261237493,496.009720234191 305.6064311812411,505.5202853971432 297.51626123749236,499.6424328742171 300.60643118124335,490.13186771126584 303.69660112499434,480.6213025483146 295.6064311812438,486.4991550712382 292.5162612374928,496.00972023418944 300.60643118124153,501.88757275711555 303.6966011249925,492.3770075941643 311.78677106874125,498.2548601170904 321.7867710687415,498.254860117092 329.876941012492,492.3770075941684 321.7867710687433,486.4991550712423 324.87694101249133,496.0097202341945 327.9671109562394,505.52028539714667 337.9671109562396,505.52028539714826 347.9671109562398,505.5202853971498 339.8769410124893,511.3981379200734 336.78677106873823,520.9087030830246 326.78677106873806,520.908703083023 336.78677106873823,520.9087030830246 326.78677106873806,520.908703083023 334.8769410124886,515.0308505600995 337.96711095623664,524.5414157230517" stroke="black" stroke-linecap="round" stroke-width="1" /><polyline clip-path="url(#border_clip)" fill="none" points="337.96711095623664,524.5414157230517 341.0572808999847,534.0519808860039 349.1474508437334,539.9298334089301 357.2376207874821,545.8076859318562 360.3277907312331,536.297120768905 363.41796067498416,526.7865556059537 371.50813061873475,520.9087030830301 368.4179606749867,511.3981379200779 378.4179606749869,511.3981379200794 381.5081306187349,520.9087030830317 389.5983005624855,515.0308505601081 381.5081306187349,520.9087030830317 373.41796067498433,526.7865556059552 381.5081306187349,520.9087030830317 384.598300562486,511.39813792008044 381.5081306187349,520.9087030830317 389.5983005624855,515.0308505601081 386.5081306187344,524.5414157230593 396.50813061873464,524.5414157230609 404.59830056248336,530.419268245987 414.5983005624836,530.4192682459886 411.50813061873254,539.9298334089399 414.5983005624836,530.4192682459886 406.50813061873487,524.5414157230625 414.5983005624836,530.4192682459886 406.508130618733,536.2971207689122 403.41796067498495,526.78655560596 395.32779073123436,532.6644081288836 392.2376207874833,542.1749732918348 384.1474508437327,548.0528258147583 392.2376207874833,542.1749732918348 400.327790731232,548.0528258147609 392.23762078748143,553.9306783376845 395.3277907312325,544.4201131747333 387.2376207874838,538.542260651807 390.32779073123487,529.0316954888559 400.32779073123504,529.0316954888575 392.2376207874845,534.909548011781 400.32779073123504,529.0316954888575 410.32779073123527,529.0316954888591 407.2376207874842,538.5422606518104 399.1474508437336,544.4201131747338 407.2376207874823,550.2979656976601" stroke="black" stroke-linecap="round" stroke-width="1" /><polyline clip-path="url(#border_clip)" fill="none" points="407.2376207874823,550.2979656976601 404.1474508437312,559.8085308606113 407.23762078747916,569.3190960235636 410.32779073123027,559.8085308606123 402.23762078747967,565.6863833835358 410.32779073122833,571.564235906462 418.417960674979,565.6863833835384 428.4179606749792,565.6863833835401 431.5081306187272,575.1969485464924 428.4179606749761,584.7075137094436 425.3277907312281,575.1969485464914 428.4179606749792,565.6863833835401 431.5081306187303,556.1758182205889 439.59830056247904,562.0536707435151 447.68847050622963,556.1758182205915 450.77864044998074,546.6652530576403 453.8688103937287,556.1758182205925 456.95898033747983,546.6652530576413 465.0491502812304,540.7874005347178 455.0491502812302,540.7874005347161 451.9589803374822,531.2768353717639 448.8688103937311,540.7874005347151 451.9589803374822,531.2768353717639 441.958980337482,531.2768353717622 450.04915028123264,525.3989828488387 458.1393202249833,519.5211303259151 466.22949016873196,525.3989828488413 474.31966011248255,519.5211303259179 464.3196601124823,519.5211303259161 467.4098300562335,510.01056516296495 459.31966011248284,515.8884176858885 462.4098300562308,525.3989828488408 472.40983005623104,525.3989828488424 464.3196601124804,531.276835371766 456.22949016873173,525.3989828488398 448.13932022498307,519.5211303259135 451.229490168731,529.0316954888658 459.31966011247965,534.909548011792 467.4098300562303,529.0316954888684 459.31966011248164,523.1538429659422 467.4098300562323,517.2759904430187 470.4999999999834,507.7654252800675 467.4098300562354,498.25486011711524" stroke="black" stroke-linecap="round" stroke-width="1" /><polyline clip-path="url(#border_clip)" fill="none" points="467.4098300562354,498.25486011711524 459.3196601124848,504.13271264003873 469.31966011248505,504.13271264004044 479.3196601124853,504.1327126400421 482.4098300562364,494.62214747709083 485.4999999999875,485.11158231413964 488.5901699437355,494.6221474770919 496.68033988748414,500.50000000001813 493.59016994373303,510.0105651629693 496.68033988748414,500.50000000001813 493.59016994373303,510.0105651629693 490.49999999998505,500.50000000001705 500.4999999999853,500.50000000001876 510.4999999999855,500.5000000000204 518.5901699437362,494.6221474770969 526.6803398874868,488.7442949541734 518.5901699437381,482.8664424312472 510.4999999999895,476.988589908321 507.4098300562415,467.4780247453687 497.4098300562413,467.478024745367 500.49999999999244,457.9674595824158 510.49999999999267,457.96745958241746 507.40983005624474,448.4568944194652 510.49999999999267,457.96745958241746 513.5901699437406,467.47802474536974 510.49999999999267,457.96745958241746 502.409830056244,452.08960705949124 510.49999999999267,457.96745958241746 507.40983005624474,448.4568944194652 515.4999999999934,454.33474694239146 518.5901699437445,444.8241817794402 526.6803398874952,438.9463292565167 529.7705098312464,429.43576409356547 537.860679774995,435.31361661649174 529.7705098312464,429.43576409356547 521.6803398874957,435.31361661648896 529.7705098312464,429.43576409356547 532.8606797749943,438.94632925651774 522.8606797749941,438.94632925651604 525.950849718742,448.4568944194683 534.0410196624906,454.3347469423946 537.1311896062385,463.84531210534686 534.0410196624906,454.3347469423946" stroke="black" stroke-linecap="round" stroke-width="1" /><polyline clip-path="url(#border_clip)" fill="none" points="534.0410196624906,454.3347469423946 542.1311896062413,448.4568944194711 545.2213595499892,457.9674595824234 537.1311896062406,452.08960705949715 529.0410196624899,457.9674595824206 520.9508497187412,452.08960705949437 524.0410196624924,442.5790418965431 527.1311896062404,452.08960705949545 524.0410196624924,442.5790418965431 527.1311896062437,433.0684767335919 535.2213595499923,438.9463292565182 538.3115294937402,448.4568944194705 546.4016994374908,442.579041896547 554.4918693812394,448.45689441947326 564.4918693812398,448.456894419475 556.4016994374911,442.57904189654874 559.491869381239,452.089607059501 567.5820393249896,446.21175453657753 564.4918693812417,436.70118937362525 567.5820393249929,427.19062421067406 577.5820393249932,427.19062421067576 585.6722092687419,433.06847673360204 575.6722092687417,433.0684767336003 567.5820393249929,427.19062421067406 559.4918693812443,421.3127716877477 567.582039324995,415.4349191648243 564.4918693812472,405.92435400187196 556.4016994374985,400.04650147894574 566.4016994374987,400.04650147894745 558.3115294937501,394.1686489560212 555.2213595500021,384.6580837930689 552.1311896062509,394.1686489560201 542.1311896062507,394.16864895601833 550.2213595499994,400.0465014789446 542.1311896062507,394.16864895601833 539.0410196624996,403.6792141189695 535.9508497187517,394.16864895601725 532.8606797750037,384.658083793065 540.9508497187545,378.7802312701415 537.8606797750066,369.2696661071892 534.7705098312554,378.7802312701404 526.6803398875068,372.90237874721413 529.7705098312547,382.4129439101664" stroke="black" stroke-linecap="round" stroke-width="1" /><polyline clip-path="url(#border_clip)" fill="none" points="529.7705098312547,382.4129439101664 539.7705098312549,382.4129439101682 542.8606797750061,372.90237874721697 545.950849718754,382.4129439101693 537.8606797750033,388.29079643309274 529.7705098312525,394.16864895601617 539.7705098312528,394.16864895601793 547.8606797750035,388.2907964330945 544.7705098312556,378.78023127014217 536.6803398875049,384.65808379306566 533.590169943757,375.1475186301133 525.5000000000084,369.26966610718705 515.5000000000082,369.26966610718523 518.5901699437561,378.78023127013756 521.6803398875073,369.26966610718637 524.7705098312586,359.7591009442352 516.68033988751,353.8812484213089 508.5901699437613,348.00339589838256 518.5901699437616,348.0033958983843 526.6803398875122,342.1255433754609 534.7705098312608,348.0033958983872 526.6803398875122,342.1255433754609 534.7705098312608,348.0033958983872 524.7705098312606,348.0033958983854 527.8606797750118,338.4928307354342 530.9508497187632,328.982265572483 527.8606797750152,319.47170040953074 524.7705098312674,309.9611352465784 516.6803398875167,315.83898776950184 508.590169943766,321.7168402924253 498.5901699437658,321.7168402924235 495.5000000000145,331.22740545537465 487.4098300562659,325.3495529324484 490.50000000001717,315.8389877694972 480.50000000001694,315.83898776949536 490.50000000001717,315.8389877694972 500.5000000000174,315.838987769499 490.50000000001717,315.8389877694972 482.4098300562664,321.71684029242056 490.50000000001717,315.8389877694972 480.50000000001694,315.83898776949536 488.59016994376765,309.961135246572 480.50000000001904,304.08328272364565" stroke="black" stroke-linecap="round" stroke-width="1" /><polyline clip-path="url(#border_clip)" fill="none" points="480.50000000001904,304.08328272364565 477.4098300562712,294.5727175606934 469.31966011252257,288.69486503776704 477.40983005627334,282.8170125148436 469.31966011252257,288.69486503776704 472.40983005627044,298.2054302007193 469.31966011252257,288.69486503776704 479.31966011252285,288.69486503776886 476.2294901687716,298.20543020072 486.2294901687718,298.2054302007218 494.3196601125225,292.32757767779844 504.31966011252274,292.32757767780026 494.3196601125225,292.32757767779844 491.2294901687747,282.8170125148461 501.22949016877493,282.81701251484793 493.1393202250242,288.69486503777136 496.22949016877203,298.20543020072364 488.13932022502127,304.0832827236471 480.04915028127266,298.2054302007207 490.04915028127294,298.2054302007225 480.04915028127266,298.2054302007207 471.9589803375241,292.32757767779435 480.0491502812748,286.449725154871 490.0491502812751,286.4497251548728 486.9589803375273,276.9391599919205 495.049150281278,271.06130746899714 498.13932022502934,261.5507423060459 490.04915028127857,267.42859482896927 500.0491502812788,267.42859482897114 496.95898033753105,257.9180296660188 486.95898033753076,257.918029666017 478.8688103937822,252.0401771430906 481.9589803375335,242.5296119801394 490.04915028128426,236.65175945721603 486.958980337533,246.16232462016723 478.8688103937822,252.0401771430906 470.77864045003145,257.918029666014 467.68847050628364,248.40746450306165 457.6884705062834,248.4074645030598 449.59830056253264,254.28531702598318 452.688470506284,244.77475186303198 444.5983005625332,250.65260438595536 434.598300562533,250.65260438595348" stroke="black" stroke-linecap="round" stroke-width="1" /><polyline clip-path="url(#border_clip)" fill="none" points="434.598300562533,250.65260438595348 442.68847050628153,256.53045690887984 439.5983005625302,266.0410220718311 447.68847050628096,260.1631695489077 439.5983005625302,266.0410220718311 447.6884705062788,271.9188745947574 437.6884705062786,271.9188745947556 427.68847050627835,271.9188745947537 424.59830056253054,262.40830943180134 414.5983005625303,262.40830943179947 422.68847050627886,268.28616195472586 414.5983005625281,274.1640144776492 424.5983005625283,274.1640144776511 427.68847050627966,264.65344931469986 419.5983005625311,258.7755967917735 429.59830056253134,258.77559679177534 432.68847050627915,268.28616195472773 435.77864045002684,277.79672711768006 438.86881039377823,268.28616195472887 435.7786404500305,258.7755967917765 425.7786404500302,258.77559679177466 428.86881039377795,268.286161954727 418.8688103937777,268.2861619547251 410.77864045002696,274.1640144776485 407.6884705062756,283.67457964059963 417.68847050627585,283.67457964060156 409.59830056252724,277.7967271176751 401.5081306187787,271.9188745947488 393.4179606750279,277.7967271176721 385.32779073127716,283.6745796405954 388.4179606750285,274.1640144776443 385.32779073128074,264.6534493146919 393.4179606750315,258.7755967917685 385.32779073128074,264.6534493146919 393.4179606750315,258.7755967917685 390.3277907312802,268.2861619547197 382.2376207875316,262.4083094317933 374.1474508437831,256.5304569088669 364.14745084378285,256.53045690886495 354.14745084378256,256.5304569088631 357.2376207875303,266.0410220718154 360.32779073127807,275.5515872347678 357.2376207875267,285.062152397719" stroke="black" stroke-linecap="round" stroke-width="1" /><polyline clip-path="url(#border_clip)" fill="none" points="357.2376207875267,285.062152397719 365.3277907312753,290.9400049206454 357.23762078752446,296.81785744356876 349.1474508437759,290.9400049206423 346.0572809000246,300.4505700835935 349.1474508437759,290.9400049206423 352.23762078752725,281.4294397576911 349.1474508437759,290.9400049206423 352.2376207875236,300.4505700835947 349.1474508437759,290.9400049206423 346.0572809000246,300.4505700835935 342.9671109562768,290.9400049206412 334.876941012526,296.81785744356444 324.8769410125258,296.81785744356256 316.786771068775,302.6957099664859 313.69660112502726,293.1851448035335 316.786771068775,302.6957099664859 326.78677106877524,302.6957099664878 316.786771068775,302.6957099664859 319.87694101252634,293.18514480353474 327.9671109562749,299.06299732646113 331.0572809000263,289.55243216350993 327.9671109562786,280.0418670005576 331.0572809000299,270.5313018376064 327.9671109562786,280.0418670005576 317.9671109562783,280.04186700055567 321.0572809000297,270.5313018376045 324.1474508437774,280.04186700055686 334.1474508437777,280.0418670005588 337.23762078752543,289.5524321635112 329.14745084377455,295.43028468643445 332.237620787526,285.9197195234833 329.14745084377455,295.43028468643445 321.0572809000238,301.3081372093578 317.9671109562761,291.79757204640543 321.0572809000274,282.2870068834543 311.0572809000272,282.28700688345236 307.9671109562795,272.7764417205 299.87694101253095,266.89858919757353 302.96711095627865,276.4091543605259 306.05728090003004,266.8985891975747 296.0572809000298,266.89858919757273 292.96711095627836,276.4091543605239" stroke="black" stroke-linecap="round" stroke-width="1" /><polyline clip-path="url(#border_clip)" fill="none" points="292.96711095627836,276.4091543605239 284.8769410125276,282.28700688344725 276.78677106877905,276.40915436052074 273.69660112503135,266.89858919756836 281.7867710687799,272.77644172049486 284.8769410125276,282.28700688344725 287.9671109562753,291.79757204639964 277.967110956275,291.79757204639765 274.8769410125236,301.30813720934884 277.9671109562713,310.81870237230123 269.87694101252276,304.94084984937473 272.96711095627046,314.4514150123271 269.87694101251907,323.9619801752783 277.9671109562699,318.084127652355 286.05728090001844,323.9619801752815 282.96711095627074,314.4514150123291 286.05728090001844,323.9619801752815 294.14745084376926,318.0841276523582 291.0572809000179,327.5946928153094 287.9671109562664,337.1052579782605 277.9671109562662,337.1052579782585 274.87694101251475,346.6158231412097 282.96711095626557,340.7379706182864 286.0572809000132,350.2485357812388 289.14745084376466,340.7379706182876 281.05728090001617,334.86011809536114 272.9671109562653,340.7379706182844 276.05728090001674,331.22740545533327 286.057280900017,331.22740545533526 296.0572809000173,331.22740545533725 287.96711095626875,325.34955293241075 277.96711095626847,325.34955293240876 274.876941012517,334.8601180953599 284.8769410125173,334.86011809536194 281.78677106876586,344.3706832583131 284.8769410125135,353.88124842126547 292.96711095626205,359.75910094419197 296.0572809000135,350.2485357812408 287.9671109562627,356.12638830416404 279.8769410125118,362.0042408270873 282.9671109562595,371.5148059900397 286.05728090000713,381.02537115299214 277.9671109562586,375.14751863006563" stroke="black" stroke-linecap="round" stroke-width="1" /><polyline clip-path="url(#border_clip)" fill="none" points="277.9671109562586,375.14751863006563 267.96711095625835,375.1475186300636 264.87694101251066,365.6369534671112 267.96711095625835,375.1475186300636 264.87694101251066,365.6369534671112 272.9671109562592,371.5148059900377 264.8769410125084,377.39265851296096 256.7867710687575,383.2705110358842 253.69660112500605,392.7810761988354 250.6064311812546,402.29164136178656 260.60643118125483,402.29164136178855 270.6064311812551,402.29164136179054 278.6966011250036,408.1694938847171 286.7867710687545,402.29164136179384 289.87694101250213,411.8022065247462 281.78677106875125,417.6800590476695 289.87694101249974,423.557911570596 281.78677106875125,417.6800590476695 273.69660112500276,411.8022065247429 281.78677106875125,417.6800590476695 291.7867710687515,417.6800590476715 281.78677106875125,417.6800590476695 289.87694101249974,423.557911570596 279.8769410124995,423.557911570594 282.9671109562471,433.0684767335464 279.87694101249565,442.57904189649753 282.9671109562433,452.0896070594499 272.967110956243,452.0896070594479 282.9671109562433,452.0896070594499 286.0572808999948,442.5790418964988 282.9671109562433,452.0896070594499 274.8769410124948,446.2117545365234 282.9671109562457,440.3339020136002 274.8769410124972,434.45604949067365 264.8769410124969,434.4560494906716 256.7867710687484,428.5781969677451 264.8769410124969,434.4560494906716 261.78677106874545,443.96661465362274 253.69660112499693,438.08876213069624 263.6966011249972,438.0887621306983 266.7867710687487,428.5781969677471 276.786771068749,428.57819696774914 279.87694101249656,438.0887621307016" stroke="black" stroke-linecap="round" stroke-width="1" /><polyline clip-path="url(#border_clip)" fill="none" points="279.87694101249656,438.0887621307016 271.78677106874807,432.210909607775 279.87694101249656,438.0887621307016 282.96711095624414,447.59932729365397 272.9671109562439,447.5993272936519 264.8769410124954,441.7214747707254 261.7867710687439,451.23203993367656 251.78677106874366,451.2320399336745 243.69660112499275,457.1098924565977 253.696601124993,457.10989245659977 245.60643118124452,451.2320399336732 242.51626123749298,460.7426050966244 250.60643118124148,466.6204576195509 253.69660112498906,476.13102278250335 245.60643118123815,482.00887530542656 235.6064311812379,482.0088753054245 243.69660112498877,476.1310227825013 253.69660112498906,476.13102278250335 263.69660112498934,476.13102278250545 260.6064311812378,485.6415879454566 268.6966011249863,491.51944046838315 278.69660112498656,491.5194404683852 270.6064311812356,497.39729299130846 280.6064311812359,497.3972929913105 288.69660112498434,503.27514551423707 285.60643118123676,493.7645803512846 293.6966011249877,487.8867278283614 283.6966011249874,487.88672782835937 293.6966011249877,487.8867278283614 290.6064311812401,478.376162665409 298.69660112498855,484.2540151883356 306.78677106873704,490.13186771126215 303.6966011249855,499.64243287421334 311.78677106873397,505.5202853971399 308.6966011249864,496.00972023418745 318.69660112498667,496.00972023418956 310.60643118123824,490.13186771126294 302.5162612374873,496.00972023418615 305.6064311812348,505.5202853971386 297.5162612374864,499.64243287421203 300.60643118123795,490.1318677112609 303.6966011249895,480.6213025483097 295.6064311812386,486.4991550712329" stroke="black" stroke-linecap="round" stroke-width="1" /><polyline clip-path="url(#border_clip)" fill="none" points="295.6064311812386,486.4991550712329 292.516261237487,496.00972023418404 300.6064311812355,501.88757275711066 303.69660112498707,492.3770075941595 311.7867710687355,498.2548601170861 321.7867710687358,498.2548601170882 329.8769410124867,492.377007594165 321.7867710687383,486.4991550712384 324.8769410124858,496.00972023419087 327.96711095623334,505.5202853971433 337.9671109562336,505.5202853971454 347.9671109562339,505.5202853971475 339.8769410124829,511.39813792007067 336.78677106873135,520.9087030830218 326.7867710687311,520.9087030830198 336.7867710687314,520.9087030830218 326.7867710687311,520.9087030830198 334.87694101248206,515.0308505600965 337.9671109562296,524.541415723049 341.0572808999772,534.0519808860014 349.14745084372566,539.9298334089281 357.2376207874741,545.8076859318546 360.32779073122566,536.2971207689035 363.4179606749772,526.7865556059523 371.50813061872816,520.9087030830292 368.4179606749806,511.39813792007675 378.41796067498086,511.39813792007885 381.5081306187284,520.9087030830312 389.5983005624794,515.0308505601081 381.5081306187284,520.9087030830312 373.4179606749775,526.7865556059545 381.50813061872844,520.9087030830312 384.59830056248,511.39813792008016 381.50813061872844,520.9087030830312 389.5983005624794,515.0308505601081 386.5081306187278,524.5414157230592 396.50813061872805,524.5414157230614 404.59830056247654,530.4192682459881 414.59830056247677,530.4192682459901 411.5081306187252,539.9298334089412 414.59830056247677,530.4192682459901 406.5081306187284,524.5414157230636 414.59830056247677,530.4192682459901" stroke="black" stroke-linecap="round" stroke-width="1" /><polyline clip-path="url(#border_clip)" fill="none" points="414.59830056247677,530.4192682459901 406.50813061872583,536.2971207689134 403.4179606749783,526.7865556059609 395.32779073122737,532.664408128884 392.23762078747575,542.1749732918352 384.1474508437248,548.0528258147583 392.23762078747575,542.1749732918352 400.32779073122424,548.0528258147618 392.23762078747325,553.930678337685 395.32779073122487,544.4201131747338 387.23762078747643,538.5422606518072 390.327790731228,529.031695488856 400.32779073122833,529.0316954888582 392.23762078747734,534.9095480117813 400.32779073122833,529.0316954888582 410.32779073122856,529.0316954888604 407.237620787477,538.5422606518115 399.147450843726,544.4201131747346 407.23762078747444,550.2979656976613 404.1474508437228,559.8085308606124 407.2376207874703,569.3190960235648 410.32779073122197,559.8085308606137 402.237620787471,565.6863833835368 410.32779073121935,571.5642359064635 418.41796067497035,565.6863833835404 428.41796067497063,565.6863833835425 431.50813061871816,575.196948546495 428.4179606749665,584.7075137094462 425.327790731219,575.1969485464937 428.41796067497063,565.6863833835425 431.50813061872225,556.1758182205914 439.5983005624707,562.0536707435181 447.6884705062217,556.1758182205949 450.7786404499733,546.6652530576439 453.8688103937208,556.1758182205963 456.95898033747244,546.6652530576451 465.04915028122343,540.7874005347221 455.04915028122315,540.7874005347198 451.9589803374757,531.2768353717674 448.86881039372406,540.7874005347185 451.9589803374757,531.2768353717674 441.9589803374754,531.2768353717652 450.0491502812264,525.398982848842" stroke="black" stroke-linecap="round" stroke-width="1" /><polyline clip-path="url(#border_clip)" fill="none" points="450.0491502812264,525.398982848842 458.1393202249774,519.521130325919 466.2294901687258,525.3989828488457 474.3196601124768,519.5211303259225 464.3196601124765,519.5211303259204 467.40983005622815,510.01056516296916 459.31966011247715,515.8884176858923 462.4098300562246,525.3989828488448 472.4098300562249,525.398982848847 464.3196601124739,531.2768353717701 456.22949016872553,525.3989828488434 448.1393202249771,519.5211303259167 451.22949016872457,529.0316954888692 459.319660112473,534.9095480117959 467.409830056224,529.0316954888727 459.31966011247556,523.1538429659461 467.4098300562266,517.275990443023 470.49999999997823,507.7654252800719 467.40983005623076,498.2548601171194 459.31966011247977,504.1327126400425 469.31966011248005,504.1327126400447 479.31966011248034,504.1327126400469 482.409830056232,494.6221474770958 485.4999999999837,485.11158231414464 488.59016994373115,494.62214747709714 496.68033988747953,500.5000000000238 493.59016994372786,510.01056516297496 496.68033988747953,500.5000000000238 493.59016994372786,510.01056516297496 490.49999999998045,500.50000000002245 500.49999999998073,500.50000000002467" stroke="black" stroke-linecap="round" stroke-width="1" /></svg>